<?xml version="1.0" encoding="UTF-8" standalone="no"?>
<svg
   xmlns:dc="http://purl.org/dc/elements/1.1/"
   xmlns:cc="http://creativecommons.org/ns#"
   xmlns:rdf="http://www.w3.org/1999/02/22-rdf-syntax-ns#"
   xmlns:svg="http://www.w3.org/2000/svg"
   xmlns="http://www.w3.org/2000/svg"
   xmlns:sodipodi="http://sodipodi.sourceforge.net/DTD/sodipodi-0.dtd"
   xmlns:inkscape="http://www.inkscape.org/namespaces/inkscape"
   sodipodi:docname="perceptron-decision.svg"
   inkscape:version="1.0 (4035a4fb49, 2020-05-01)"
   id="svg8"
   version="1.1"
   viewBox="0 0 317.5 158.75"
   height="600"
   width="1200">
  <defs
     id="defs2" />
  <sodipodi:namedview
     inkscape:snap-global="false"
     inkscape:document-rotation="0"
     inkscape:window-maximized="0"
     inkscape:window-y="21"
     inkscape:window-x="0"
     inkscape:window-height="1059"
     inkscape:window-width="1918"
     units="px"
     showgrid="false"
     inkscape:current-layer="layer1"
     inkscape:document-units="mm"
     inkscape:cy="306.76951"
     inkscape:cx="596.66779"
     inkscape:zoom="1.4"
     inkscape:pageshadow="2"
     inkscape:pageopacity="0.0"
     borderopacity="1.0"
     bordercolor="#666666"
     pagecolor="#ffffff"
     id="base" />
  <metadata
     id="metadata5">
    <rdf:RDF>
      <cc:Work
         rdf:about="">
        <dc:format>image/svg+xml</dc:format>
        <dc:type
           rdf:resource="http://purl.org/dc/dcmitype/StillImage" />
        <dc:title></dc:title>
      </cc:Work>
    </rdf:RDF>
  </metadata>
  <g
     transform="translate(0,-138.25001)"
     id="layer1"
     inkscape:groupmode="layer"
     inkscape:label="Layer 1">
    <path
       d="m 10.5148,146.96333 c 0.45333,15.20039 5.061865,30.01947 4.348334,45.3351 0.486384,20.41366 -3.711393,40.562 -3.000609,60.98638 0.148825,10.40526 -1.270148,20.78291 -1.745208,31.10911 4.290119,7.8475 1.109999,-10.776 2.074299,-13.78631 1.959169,-17.08302 -0.24881,-34.28961 2.47151,-51.32456 3.166218,-23.26902 -0.210028,-46.68739 -3.716224,-69.70615 0.149983,-0.65774 1.659539,-3.40036 -0.432102,-2.61357 z"
       style="fill:#000000;stroke:#000000;stroke-width:0.264999;stroke-linecap:round"
       id="path96" />
    <path
       d="m 6.7547061,277.64423 c 19.3839139,0.18 38.7880839,-2.51256 58.1260229,0.0338 27.094524,1.63623 54.214961,3.53545 81.356631,2.44304 30.20129,-0.17415 60.38456,1.269 90.58799,0.7743 19.21724,-0.0141 38.47221,0.25261 57.65014,-0.096 -33.62298,-0.15639 -67.23884,-0.0154 -100.87438,-0.16489 -25.55341,-1.03845 -51.12392,-0.59134 -76.66783,-0.33947 -33.734299,-0.84362 -67.492887,-5.76533 -101.237207,-2.79297 -2.990038,0.67125 -5.9420152,0.0322 -8.9413669,0.14221 z"
       style="fill:#000000;stroke:#000000;stroke-width:0.264999;stroke-linecap:round"
       id="path98" />
    <path
       d="m 289.48946,276.38999 c 4.27915,3.52848 23.68559,1.54398 11.28027,7.20496 -14.14915,9.24676 16.22298,-4.94478 1.94404,-4.36625 -4.52929,-0.30371 -9.1354,-1.16828 -13.22431,-2.83871 z"
       style="fill:#000000;stroke:#000000;stroke-width:0.264999;stroke-linecap:round"
       id="path100" />
    <path
       d="m 6.937563,153.1766 c 3.069211,-3.60383 4.255443,-19.28878 6.180629,-6.27919 5.352478,14.98801 -1.791888,-17.44281 -4.2872695,-0.91274 -0.3335159,2.15001 -3.4565315,5.20773 -1.8933595,7.19193 z"
       style="fill:#000000;stroke:#000000;stroke-width:0.264999;stroke-linecap:round"
       id="path102" />
    <path
       d="m 16.815991,157.73997 c 1.105383,1.12413 1.465132,2.72329 1.807913,4.20824 0.189963,0.61012 0.02463,1.38149 0.498677,1.87083 0.344431,0.34588 0.940296,0.35952 1.26924,-0.0117 0.209721,-0.39458 -0.06701,-0.84778 -0.170923,-1.24256 -0.547119,-1.45005 -0.958768,-2.96981 -1.805551,-4.28611 -0.113139,-0.52628 -0.544238,-0.77178 -1.049057,-0.57523 -0.183427,0.0122 -0.366919,0.0244 -0.550299,0.0366 z"
       style="fill:#000000;stroke:#000000;stroke-width:0.264999;stroke-linecap:round"
       id="path104" />
    <path
       d="m 19.91919,162.64676 c -0.254581,-1.53191 -0.441631,-3.09659 -0.26742,-4.64806 0.09482,-0.6465 0.45383,-1.29092 1.061561,-1.57878 0.129291,-0.23974 -0.292717,-0.17386 -0.443738,-0.23179 -0.287495,-0.0393 -0.609421,-0.0945 -0.85805,0.0991 -0.330966,0.2339 -0.523498,0.60384 -0.743405,0.93287 -0.27878,0.50815 -0.207413,1.10058 -0.180416,1.65488 0.0283,0.86859 0.09001,1.73536 0.144276,2.60247 0.01807,0.39164 0.0249,0.78415 0.0067,1.17592 0.426673,-0.002 0.85451,-0.007 1.280452,-0.007 z"
       style="fill:#000000;stroke:#000000;stroke-width:0.264999;stroke-linecap:round"
       id="path106" />
    <path
       d="m 23.512861,155.57252 c 0.700914,1.42184 1.033583,2.98922 1.261204,4.54803 -0.186776,0.81391 0.772036,1.01697 1.367351,0.86355 1.064446,-0.24305 -0.10081,-1.39398 -0.146552,-2.03886 -0.41575,-1.13921 -0.790444,-2.29318 -1.223004,-3.42629 -0.419661,0.0178 -0.839366,0.0363 -1.258999,0.0536 z"
       style="fill:#000000;stroke:#000000;stroke-width:0.264999;stroke-linecap:round"
       id="path108" />
    <path
       d="m 22.68375,149.87672 c -0.536572,0.59746 -1.291589,1.21866 -1.23017,2.10184 0.0016,0.81345 1.950593,0.54814 1.584725,0.19328 -0.51065,0.29775 1.034139,0.28423 0.609339,-0.33271 -0.300535,-0.79694 1.304728,-1.27407 0.814198,-1.81482 -0.592397,-0.0636 -1.185581,-0.0447 -1.778092,-0.14759 z"
       style="fill:#000000;stroke:#000000;stroke-width:0.264999;stroke-linecap:round"
       id="path110" />
    <path
       d="m 28.887245,152.80395 c -1.350435,1.49704 -1.819405,4.00739 -0.531592,5.68012 0.84256,0.67002 2.064497,0.47169 3.045553,0.27623 1.506299,-0.55619 2.184929,-2.30732 1.98971,-3.81522 -0.08711,-1.11464 -0.24898,-2.67243 -1.52359,-3.03508 -0.541472,-0.12064 -2.198284,-0.32015 -1.923944,0.48847 0.353573,-0.21761 1.681769,-0.36737 0.600458,-0.3119 -1.255098,-0.0146 0.649736,0.47339 0.698016,1.08619 1.003207,1.54745 0.971851,4.02667 -0.704752,5.10389 -0.515468,0.15373 -0.905967,0.52891 -0.07809,0.41716 -0.338254,-0.0361 -1.314489,-0.69646 -1.403867,-1.40369 -0.494611,-1.54581 0.116149,-3.36069 1.408496,-4.33068 -0.518938,-0.10763 -1.052145,-0.0921 -1.576399,-0.15549 z"
       style="fill:#000000;stroke:#000000;stroke-width:0.264999;stroke-linecap:round"
       id="path112" />
    <path
       d="m 31.021745,151.7322 c 1.302496,1.87837 2.051686,4.09833 2.476799,6.32911 0.293393,1.95895 -0.437394,4.03903 -1.826936,5.43356 -0.410911,0.26166 -0.925286,0.4814 -0.117943,0.38953 1.053291,0.0994 -0.295848,-0.85561 0.06761,-1.44554 0.152609,-1.72548 1.509637,-2.97507 2.571871,-4.21792 -0.360146,-0.34689 0.08763,-1.15263 -0.569561,-0.46428 -1.258198,0.60487 -2.013727,1.83742 -2.765403,2.95463 -0.528787,0.90366 -0.858264,2.02979 -0.54062,3.05606 0.633952,0.57905 1.796317,0.39468 2.51023,0.0465 0.835446,-0.79533 1.327288,-1.89148 1.776805,-2.93836 0.733744,-1.74686 0.07237,-3.63649 -0.521525,-5.31657 -0.467307,-1.33731 -1.122689,-2.59656 -1.675993,-3.89825 -0.461763,0.0238 -0.923694,0.0481 -1.385339,0.0716 z"
       style="fill:#000000;stroke:#000000;stroke-width:0.264999;stroke-linecap:round"
       id="path114" />
    <path
       d="m 32.9718,145.54986 c 1.719822,2.85413 2.693289,6.07567 3.45565,9.29754 0.637121,1.2459 3.048142,0.25135 1.720746,-0.98988 -0.567289,-2.17347 -1.699093,-4.10848 -2.718686,-6.08601 -0.574344,-1.09926 -0.774155,-2.73235 -2.45771,-2.22165 z"
       style="fill:#000000;stroke:#000000;stroke-width:0.264999;stroke-linecap:round"
       id="path116" />
    <path
       d="m 37.161456,151.6253 c 0.06267,-1.07655 0.458959,-2.23233 1.359465,-2.88624 0.315874,-0.1444 1.103813,-0.22003 0.323697,-0.18758 -1.125002,-0.0482 0.427264,0.49518 0.520102,0.98093 0.811794,1.23305 1.038771,2.72702 1.574392,4.08089 0.465995,0.55181 2.011717,0.71439 2.085151,-0.12336 -0.307531,-0.64229 -0.705856,-1.23719 -0.964494,-1.90924 -0.546779,-1.09627 -1.054514,-2.31716 -2.073555,-3.05946 -0.794947,-0.43373 -1.774155,-0.30126 -2.611326,-0.0778 -0.967813,0.36383 -1.150906,1.52916 -1.480945,2.3853 -0.14018,0.44301 -0.280252,0.99552 0.388546,0.79143 0.292957,0.002 0.586317,0.003 0.878967,0.005 z"
       style="fill:#000000;stroke:#000000;stroke-width:0.264999;stroke-linecap:round"
       id="path118" />
    <path
       d="m 41.943046,142.58655 c 1.43979,1.89554 2.066871,4.23857 2.922765,6.42279 0.510876,0.95022 0.218076,2.78173 1.661234,2.79852 1.278157,0.31677 1.491295,-0.93428 0.800827,-1.74146 -0.955911,-2.50068 -2.063096,-4.94613 -3.342406,-7.29757 -0.53459,-0.63747 -1.369772,-0.0982 -2.04242,-0.18228 z"
       style="fill:#000000;stroke:#000000;stroke-width:0.264999;stroke-linecap:round"
       id="path120" />
    <path
       d="m 43.764766,146.40829 c 1.721301,-0.93271 3.293742,-2.10565 4.904218,-3.21169 -0.559356,-0.81036 -1.910665,-0.52292 -2.692346,-0.25212 -0.928689,0.71937 -1.767095,1.55554 -2.791803,2.15253 -0.449353,0.39183 -1.726967,0.85716 -1.744322,1.05299 0.774751,0.0861 1.549479,0.1724 2.324253,0.25829 z"
       style="fill:#000000;stroke:#000000;stroke-width:0.264999;stroke-linecap:round"
       id="path122" />
    <path
       d="m 265.10646,284.59555 c 1.29187,2.80712 1.65186,5.92449 1.82418,8.97757 0.3314,0.33394 0.62755,0.79058 1.11593,0.89439 0.42178,0.0321 0.54972,-0.44729 0.75097,-0.71962 0.40136,-0.71562 0.12984,-1.55313 -0.0284,-2.29733 -0.10613,-0.40037 -0.12414,-0.81466 -0.1473,-1.22386 -0.28402,-1.86306 -0.67832,-3.70691 -1.08598,-5.54616 -0.77264,-0.37084 -1.62263,0.0174 -2.42942,-0.085 z"
       style="fill:#000000;stroke:#000000;stroke-width:0.264999;stroke-linecap:round"
       id="path124" />
    <path
       d="m 272.97179,292.16233 c 0.69564,-0.15341 1.43873,-0.43082 1.79856,-1.09213 0.43976,-0.6488 0.50328,-1.48411 0.28052,-2.22264 -0.0588,-0.50918 -0.48507,-0.88676 -0.99259,-0.90752 -0.63759,-0.0948 -1.27216,0.0658 -1.90308,0.13805 -0.75268,0.54641 -1.14409,1.43387 -1.49941,2.26159 -0.22814,1.02979 0.21029,2.06991 0.71447,2.94768 0.49083,0.82599 1.48644,1.11792 2.39423,1.11139 0.60005,-0.005 1.20735,-0.0275 1.79952,-0.11111 0.89198,-0.3083 1.76279,-0.72135 2.52891,-1.27704 0.30941,-0.21812 -0.50516,-0.10914 -0.42302,-0.44891 -0.57457,0.22674 -1.23659,-0.001 -1.75877,0.38236 -0.78662,0.47931 -1.58903,1.02131 -2.5335,1.10262 -0.36072,0.17091 0.47931,0.0489 0.60614,0.067 0.23725,-0.018 0.85633,-0.0364 0.85243,-0.0697 -0.99376,-0.0595 -1.8199,-0.79994 -2.20461,-1.68573 -0.39536,-0.73972 -0.50449,-1.68293 -0.0528,-2.42454 0.31847,-0.64403 0.77022,-1.26271 1.40812,-1.60842 -0.4428,-0.0327 -1.39531,-0.0105 -1.5228,-0.0658 0.63766,-0.009 0.91929,0.71208 0.9126,1.25409 0.0424,0.97164 -0.64694,1.90397 -1.591,2.14395 -0.23391,0.12778 -1.27208,0.20546 -0.56703,0.25817 0.58436,0.0823 1.16886,0.16431 1.75313,0.24668 z"
       style="fill:#000000;stroke:#000000;stroke-width:0.264999;stroke-linecap:round"
       id="path128" />
    <path
       d="m 283.60288,284.97532 c -0.289,-0.53708 -0.43117,-1.36353 -1.2063,-1.36669 -0.75622,-0.0287 -1.78087,-0.10091 -2.16434,0.7101 -0.45949,0.98146 -0.45338,2.10075 -0.51666,3.16313 0.001,1.73985 0.35866,3.45279 0.76201,5.13815 0.17385,0.77157 0.45863,1.62411 1.16765,2.06462 0.52335,0.742 1.0819,-0.22181 0.94878,-0.77422 -0.23138,-1.24855 -0.794,-2.4112 -0.99798,-3.66867 -0.25793,-0.99132 -0.28927,-2.01611 -0.24457,-3.03384 0.0162,-0.94814 0.0595,-1.95489 0.53288,-2.7994 0.19014,-0.2963 1.04976,-0.6741 0.26848,-0.58064 -0.31899,0.051 -1.28746,-0.0359 -0.53279,0.16127 0.62735,0.19808 7.3e-4,1.2344 0.78477,1.00606 0.39933,-0.007 0.79888,-0.0135 1.19807,-0.0199 z"
       style="fill:#000000;stroke:#000000;stroke-width:0.264999;stroke-linecap:round"
       id="path130" />
    <path
       d="m 279.54708,288.84118 c 1.22146,0.045 2.43762,-0.15714 3.61963,-0.45001 0.69461,0.30468 0.48393,-0.89262 -0.1647,-0.56038 -1.03735,-0.11356 -2.06361,0.0699 -3.06612,0.32068 -1.03367,0.25184 -2.09951,0.27511 -3.15634,0.24826 0.92024,0.15577 1.8454,0.29396 2.76753,0.44145 z"
       style="fill:#000000;stroke:#000000;stroke-width:0.264999;stroke-linecap:round"
       id="path132" />
    <path
       d="m 287.46749,282.82615 c 1.73581,3.27126 1.32213,7.15418 2.72352,10.52652 0.78405,1.60401 1.88155,-0.38848 1.43418,-1.40434 -0.42297,-2.96155 -1.08545,-5.88709 -1.69555,-8.8156 -0.55709,-0.88431 -1.66656,-0.10622 -2.46215,-0.30658 z"
       style="fill:#000000;stroke:#000000;stroke-width:0.264999;stroke-linecap:round"
       id="path134" />
    <path
       d="m 289.31179,287.55933 c 1.52102,-1.10465 3.13984,-2.06394 4.69901,-3.11209 -1.05212,-0.38981 -2.30637,-0.54441 -3.37598,-0.18069 -0.90626,0.61115 -1.77122,1.27965 -2.70505,1.85487 -0.39504,0.35657 -1.37734,0.81124 -1.39099,1.13047 0.90236,0.21712 1.85568,0.15996 2.77301,0.30744 z"
       style="fill:#000000;stroke:#000000;stroke-width:0.264999;stroke-linecap:round"
       id="path136" />
    <path
       d="m 232.96767,276.76462 c -1.39708,5.8554 4.62268,13.27388 2.46018,3.27349 0.14341,-1.37746 -0.31824,-4.39048 -2.46018,-3.27349 z"
       style="fill:#000000;stroke:#000000;stroke-width:0.264999;stroke-linecap:round"
       id="path138" />
    <path
       d="m 238.69335,289.26034 c 1.60149,-1.30977 2.43983,-3.26708 3.50218,-4.98465 -0.80811,-0.24264 -2.46742,-0.0877 -1.81849,1.21312 0.12588,2.89896 0.38087,5.79839 0.26774,8.70227 -0.12583,0.92327 -2.70624,0.92826 -0.95824,0.82749 1.17152,0.30759 2.13982,-0.63093 3.25482,-0.8349 1.29224,-0.40234 2.61578,-0.68997 3.92971,-1.01021 -0.28787,-0.49031 -1.70438,-0.36715 -2.42489,-0.33357 -1.9555,0.7658 -4.04005,1.18816 -5.99914,1.96241 -0.67945,1.09508 1.66071,0.56556 2.22825,0.55879 1.374,-0.1518 2.30012,-1.44913 1.90397,-2.79104 -0.28299,-2.71704 -0.76284,-5.46509 -0.36517,-8.19681 -0.71177,-0.2919 -2.26477,-1.21545 -2.06177,0.197 -0.50294,1.83182 -1.63783,3.55933 -3.32225,4.50215 0.6211,0.0626 1.24218,0.12535 1.86328,0.18795 z"
       style="fill:#000000;stroke:#000000;stroke-width:0.264999;stroke-linecap:round"
       id="path140" />
    <path
       d="m 12.684668,171.13231 c 16.02036,-0.81115 -7.7495944,-1.07922 0,0 z"
       style="fill:#000000;stroke:#000000;stroke-width:0.264999;stroke-linecap:round"
       id="path142" />
    <path
       d="m 4.827375,169.89482 c 0.9701402,-1.67457 1.6657031,-3.52955 2.0883441,-5.40496 -0.6182334,-0.44703 -1.8682903,-0.10997 -1.3686589,0.8664 0.3639942,3.05212 0.963681,6.07757 1.2259347,9.14028 0.1135677,1.09664 -0.7295351,1.99872 -1.8092921,2.05438 -0.5930717,0.10991 -2.1071595,0.43298 -0.6887039,0.47659 1.1502353,0.35334 2.2218407,-0.163 3.2849404,-0.52814 1.3286662,-0.41958 2.6796747,-0.76479 4.0050967,-1.19497 -0.933597,-0.60052 -2.1932411,-0.26561 -3.1665816,0.13041 -1.5537973,0.54969 -3.1233533,1.0921 -4.7415581,1.41828 0.9579985,0.32288 2.0383325,0.50013 2.96404,-0.0203 0.8760441,-0.24212 1.9636773,-0.88389 1.5672184,-1.96309 -0.9095968,-2.99879 -1.6012222,-6.13151 -1.4915094,-9.27847 0.6581261,-1.19796 -0.7001865,-1.5114 -1.6253283,-1.56352 0.7196865,0.83025 0.055879,2.06652 -0.031298,3.02122 -0.162267,1.01728 -1.1315663,2.0094 -1.3660915,2.76792 0.3787532,0.0862 0.7754456,-0.008 1.1534479,0.078 z"
       style="fill:#000000;stroke:#000000;stroke-width:0.264999;stroke-linecap:round"
       id="path144" />
    <path
       d="m 12.228175,230.6074 c 8.768552,0.0863 3.278262,-0.77561 -2.2663448,-0.41761 z"
       style="fill:#000000;stroke:#000000;stroke-width:0.264999;stroke-linecap:round"
       id="path146" />
    <path
       d="m 3.8616093,224.93748 c -0.7102387,1.66542 -1.4533284,3.43235 -1.3485837,5.2784 0.1016618,1.04839 0.4485495,2.22673 1.3773813,2.82665 0.8641077,0.32355 1.8620843,0.28601 2.7546175,0.11096 1.1425763,-0.46987 2.0546211,-1.44359 2.6161445,-2.53057 0.8479861,-1.99508 0.6933,-4.22168 1.2303411,-6.29357 -0.139312,-0.9732 -1.4082828,-0.50336 -2.0775574,-0.6736 -1.1045849,-0.0437 -1.8715902,0.85054 -2.3565259,1.73378 -0.3906392,0.60639 -1.2827112,2.08609 0.031952,2.10786 0.8365483,0.0365 1.2745214,-0.71216 1.4479604,-1.42335 0.4681707,-0.82657 1.0162389,-1.82385 2.0277797,-2.03493 -0.3641166,-0.03 -1.3253869,-0.0585 -1.2724533,0.003 0.7269726,0.51769 0.38125,1.59461 0.4601665,2.35867 -0.07868,2.20988 -0.6104648,4.68791 -2.5228268,6.0486 -0.3730717,0.28797 -1.686893,0.65174 -0.5046406,0.62468 -0.1790093,-0.0199 -1.3409787,-0.36578 -1.5857485,-0.96628 -1.0087706,-1.39537 -0.6014713,-3.22008 -0.097238,-4.72473 0.2558833,-0.84439 0.6193478,-1.66606 1.1528202,-2.37338 -0.4445165,-0.0241 -0.8891723,-0.0479 -1.3335894,-0.0722 z"
       style="fill:#000000;stroke:#000000;stroke-width:0.264999;stroke-linecap:round"
       id="path148" />
    <path
       d="m 73.747685,274.71636 c -1.606132,14.36576 5.494248,2.69646 0,0 z"
       style="fill:#000000;stroke:#000000;stroke-width:0.264999;stroke-linecap:round"
       id="path150" />
    <path
       d="m 73.877968,286.71891 c -1.679479,0.92977 -2.758162,2.80382 -2.687014,4.72656 -0.07172,1.31492 0.471306,2.86247 1.829372,3.30682 1.043576,0.3215 2.173444,0.23677 3.23946,0.0967 1.202661,-0.32664 1.854399,-1.55882 2.326971,-2.61565 0.601341,-1.61822 1.00304,-3.37228 0.839598,-5.10559 -0.05573,-0.86818 -0.682582,-1.75034 -1.647149,-1.61368 -0.966114,-0.003 -2.014848,0.19684 -2.635167,1.0143 -0.620411,0.50357 -0.689209,1.4242 -0.02515,1.93068 0.827953,-0.65252 1.425674,-1.60558 2.308294,-2.24399 0.302018,-0.2169 1.121054,-0.30568 0.30405,-0.3389 -0.42407,-0.004 -1.24081,-0.10418 -0.504686,0.25695 0.991611,1.25083 0.803615,3.0103 0.384362,4.45042 -0.421692,1.54539 -1.156801,3.25957 -2.733414,3.92103 -0.444272,0.0286 -0.755258,0.23667 -0.08162,0.18609 1.230538,-0.002 -0.743818,-0.12975 -0.956806,-0.58542 -1.329481,-0.99768 -1.361936,-2.90878 -0.887355,-4.35824 0.396119,-1.21619 1.301448,-2.25119 2.462528,-2.787 -0.333548,-0.14846 -1.057124,-0.15475 -1.536275,-0.24107 z"
       style="fill:#000000;stroke:#000000;stroke-width:0.264999;stroke-linecap:round"
       id="path152" />
    <path
       d="m 30.434872,230.53338 c 8.145166,-0.0662 -4.587117,-0.66818 0,0 z"
       style="fill:#000000;stroke:#000000;stroke-width:0.264999;stroke-linecap:round"
       id="path168" />
    <path
       d="m 54.177988,230.77612 c 3.795015,0.77842 2.180772,-1.05532 0,0 z"
       style="fill:#000000;stroke:#000000;stroke-width:0.264999;stroke-linecap:round"
       id="path170" />
    <path
       d="m 81.686156,231.01954 c 7.111081,-0.001 5.27258,-0.70474 0,0 z"
       style="fill:#000000;stroke:#000000;stroke-width:0.264999;stroke-linecap:round"
       id="path172" />
    <path
       d="m 109.67252,231.65036 c 6.75278,-0.27779 -3.97469,-0.76753 0,0 z"
       style="fill:#000000;stroke:#000000;stroke-width:0.264999;stroke-linecap:round"
       id="path174" />
    <path
       d="m 134.06042,231.76505 c 4.68459,0.0375 5.18006,-0.91617 0,0 z"
       style="fill:#000000;stroke:#000000;stroke-width:0.264999;stroke-linecap:round"
       id="path176" />
    <path
       d="m 171.25413,232.36993 c 8.26189,0.12893 -4.46954,-0.63239 0,0 z"
       style="fill:#000000;stroke:#000000;stroke-width:0.264999;stroke-linecap:round"
       id="path178" />
    <path
       d="m 200.54452,233.26336 c 3.88427,0.4402 2.16734,-0.87872 -0.34018,-0.25604 z"
       style="fill:#000000;stroke:#000000;stroke-width:0.264999;stroke-linecap:round"
       id="path180" />
    <path
       d="m 220.05224,233.86144 c 2.01661,0.55802 7.20824,-0.0185 2.15364,-0.0698 z"
       style="fill:#000000;stroke:#000000;stroke-width:0.264999;stroke-linecap:round"
       id="path182" />
    <path
       d="m 251.39762,234.21851 c 6.33995,0.14446 5.72842,-0.37608 0,0 z"
       style="fill:#000000;stroke:#000000;stroke-width:0.264999;stroke-linecap:round"
       id="path184" />
    <path
       d="m 32.993695,171.53192 c 6.888868,-0.27103 2.98687,-1.50222 0,0 z"
       style="fill:#000000;stroke:#000000;stroke-width:0.264999;stroke-linecap:round"
       id="path186" />
    <path
       d="m 53.130301,170.93196 c 7.858813,0.21718 -0.321371,-0.56122 -0.838978,-0.13357 l 0.534678,0.0851 z"
       style="fill:#000000;stroke:#000000;stroke-width:0.264999;stroke-linecap:round"
       id="path188" />
    <path
       d="m 86.352921,173.47326 c 6.164867,0.43565 4.181528,-0.2634 0,0 z"
       style="fill:#000000;stroke:#000000;stroke-width:0.264999;stroke-linecap:round"
       id="path190" />
    <path
       d="m 116.72511,172.86874 c 10.33512,0.1337 -1.79587,-1.21446 0,0 z"
       style="fill:#000000;stroke:#000000;stroke-width:0.264999;stroke-linecap:round"
       id="path192" />
    <path
       d="m 143.35288,173.51191 c 7.86165,0.65663 4.022,-0.61136 0,0 z"
       style="fill:#000000;stroke:#000000;stroke-width:0.264999;stroke-linecap:round"
       id="path194" />
    <path
       d="m 183.62027,175.55852 c 5.45671,0.34936 -1.13325,-1.34129 0,0 z"
       style="fill:#000000;stroke:#000000;stroke-width:0.264999;stroke-linecap:round"
       id="path196" />
    <path
       d="m 219.68227,175.12441 c 6.15891,-0.0806 -3.61987,-0.76866 0,0 z"
       style="fill:#000000;stroke:#000000;stroke-width:0.264999;stroke-linecap:round"
       id="path198" />
    <path
       d="m 240.60223,175.8009 c 7.94642,0.0933 -4.57249,-0.62581 0,0 z"
       style="fill:#000000;stroke:#000000;stroke-width:0.264999;stroke-linecap:round"
       id="path200" />
    <path
       d="m 269.55678,177.07401 c 6.17726,-0.0301 -5.37819,-0.62005 0,0 z"
       style="fill:#000000;stroke:#000000;stroke-width:0.264999;stroke-linecap:round;fill-opacity:1;stroke-opacity:1"
       id="path202" />
    <path
       d="m 71.159827,150.35792 c -1.387841,4.14779 1.758742,2.04789 0,0 z"
       style="fill:#000000;stroke:#000000;stroke-width:0.264999;stroke-linecap:round"
       id="path204" />
    <path
       d="m 72.094086,188.46303 c -0.703736,5.65415 0.838275,6.92294 0,0 z"
       style="fill:#000000;stroke:#000000;stroke-width:0.264999;stroke-linecap:round"
       id="path208" />
    <path
       d="m 72.410356,214.95947 c -0.17494,5.53147 0.62112,6.14091 0,0 z"
       style="fill:#000000;stroke:#000000;stroke-width:0.264999;stroke-linecap:round"
       id="path210" />
    <path
       d="m 74.06977,240.12203 c -0.491847,6.27161 0.43108,7.0035 0,0 z"
       style="fill:#000000;stroke:#000000;stroke-width:0.264999;stroke-linecap:round"
       id="path212" />
    <path
       d="m 73.772458,261.81919 c -0.341855,3.26198 2.456483,-1.03908 0,0 z"
       style="fill:#000000;stroke:#000000;stroke-width:0.264999;stroke-linecap:round"
       id="path214" />
    <path
       d="m 230.55239,147.11144 c -2.13667,11.25559 3.59299,0.038 0,0 z"
       style="fill:#000000;stroke:#000000;stroke-width:0.264999;stroke-linecap:round"
       id="path216" />
    <path
       d="m 230.93292,196.73399 c 0.27065,5.67228 0.15071,7.95831 1.28476,1.25578 0.39685,-0.70616 -0.36633,-2.05029 -1.28476,-1.25578 z"
       style="fill:#000000;stroke:#000000;stroke-width:0.264999;stroke-linecap:round"
       id="path220" />
    <path
       d="m 231.16909,224.10189 c -1.10392,4.50129 3.27089,4.24718 0,0 z"
       style="fill:#000000;stroke:#000000;stroke-width:0.264999;stroke-linecap:round"
       id="path222" />
    <path
       d="m 231.94789,252.13008 c -1.32224,3.48118 2.17214,1.75196 0,0 z"
       style="fill:#000000;stroke:#000000;stroke-width:0.264999;stroke-linecap:round"
       id="path224" />
    <path
       d="m 232.04362,263.82763 c -1.80545,5.49596 3.47527,2.16468 0,0 z"
       style="fill:#000000;stroke:#000000;stroke-width:0.264999;stroke-linecap:round"
       id="path226" />
    <path
       d="m 72.143688,228.53303 c -0.354619,0.69231 -0.709663,1.40322 -0.795518,2.18339 0.01532,0.73939 0.468453,1.25572 0.993051,1.72112 0.167954,0.12573 0.323196,0.25771 0.518003,0.34252 0.923965,0.40226 2.273917,0.24126 3.144695,0.24524 0.915104,-0.13517 1.356151,-0.52518 1.738828,-1.34617 0.306449,-0.75169 0.273799,-1.52416 0.05055,-2.28834 -0.637241,-1.47463 -1.564164,-1.02663 -3.190195,-1.02794 -0.373449,0.13004 -1.078405,0.5231 -1.010896,1.01842 0.0028,0.0201 0.447902,0.84999 0.460414,0.87342 0,0 0.113356,0.003 0.113356,0.003 v 0 c 1.153271,-1.03441 -0.353322,0.27368 1.045638,-0.78369 0.44091,-0.33326 0.672275,-0.76545 1.284933,-0.8227 -3.141763,-0.0797 -1.543656,-0.19815 -1.010533,0.12117 0.266816,0.15982 0.431585,0.40922 0.582292,0.67341 0.270592,0.73024 0.226624,1.4292 -0.06102,2.15227 -0.421804,0.77298 -0.806445,1.06384 -1.699136,1.15903 2.589067,0.0214 1.169575,0.0489 0.583216,-0.0782 -0.335727,-0.0728 -0.650304,-0.19246 -0.937078,-0.38432 -0.532077,-0.40282 -0.965829,-0.87639 -1.039124,-1.57005 -0.0013,-0.10951 -0.0155,-0.21961 -0.004,-0.32851 0.06797,-0.64382 0.429958,-1.25457 0.791802,-1.7715 0,0 -1.559287,-0.0915 -1.559287,-0.0915 z"
       id="path228"
       style="fill:#000000;stroke:#000000;stroke-width:0.264999;stroke-linecap:round" />
    <path
       d="m 42.220541,164.92039 c 27.844877,27.62847 65.107779,42.42962 95.970019,66.0921 12.72349,9.04876 35.49466,25.89332 43.33553,28.0399 -35.5078,-21.90778 -68.79336,-47.26258 -105.0084,-68.08197 -12.386812,-7.41529 -23.225477,-16.89773 -34.297149,-26.05003 z"
       style="fill:#6600ff;stroke:#6600ff;stroke-width:0.264999;stroke-linecap:round"
       id="path563" />
    <path
       d="m 83.113511,212.8522 c -1.674805,1.42365 -2.271589,3.72006 -2.169065,5.84387 0.09446,1.28549 0.483151,2.63606 1.375822,3.59101 0.415523,0.34261 1.569149,0.72365 1.616162,0.85477 -0.689812,-0.47407 -0.776365,-1.45878 -1.308372,-2.10694 -0.811255,-1.81997 -0.741654,-3.97193 -0.07762,-5.82472 0.234684,-0.89624 1.162458,-1.71662 1.571255,-2.26874 -0.332481,-0.0632 -0.676171,-0.0249 -1.00818,-0.0892 z"
       style="fill:#000000;stroke:#000000;stroke-width:0.264999;stroke-linecap:round"
       id="path230" />
    <path
       d="m 89.725806,215.16406 c -0.597562,0.61102 -1.187477,1.32867 -1.328918,2.20227 -0.04033,0.24909 -0.02365,0.50411 -0.03548,0.75616 -0.0089,1.57742 0.554173,3.02384 1.305431,4.38154 0.104047,0.11427 0.183935,0.25652 0.312142,0.34282 0.564756,0.38015 2.013786,-0.0212 2.208686,-0.0834 0.206084,-0.0658 0.300821,-0.31297 0.427186,-0.48856 0.398756,-0.55406 0.487775,-0.85236 0.766664,-1.48587 0.319538,-0.93862 0.489122,-1.91249 0.634162,-2.8897 0.09003,-0.60658 0.183925,-0.97737 0.1017,-1.58181 -0.02781,-0.20444 -0.107852,-0.3983 -0.161779,-0.59744 -0.08485,-0.15253 -0.122558,-0.34338 -0.254543,-0.45759 -0.526566,-0.45565 -1.311222,-0.37285 -1.938665,-0.29249 0,0 0.112291,0.0158 0.112291,0.0158 v 0 c 0.02972,-0.0139 0.08851,-0.0745 0.08915,-0.0417 0.0011,0.0588 -0.09563,0.0954 -0.08697,0.15365 0.02111,0.14201 0.456536,0.65562 0.471517,0.67474 0.07714,0.18883 0.168402,0.3725 0.231426,0.56651 0.483118,1.48717 0.340595,2.96369 -0.237305,4.40263 -0.316238,0.58306 -0.465482,0.95638 -0.9227,1.43685 -0.157639,0.16565 -0.629272,0.22608 -0.532053,0.43305 0.120621,0.25681 0.559903,0.10436 0.82804,0.19711 0.324755,0.11233 -1.507175,-0.24855 -0.961689,-0.37135 -0.142814,-0.16602 -0.300133,-0.3206 -0.428448,-0.49808 -0.799642,-1.10599 -1.123958,-2.45741 -1.062606,-3.80638 0.04528,-0.24483 0.07248,-0.49371 0.135847,-0.7345 0.235776,-0.89594 0.796774,-1.64151 1.599623,-2.10041 0,0 -1.272706,-0.13384 -1.272706,-0.13384 z"
       id="path232"
       style="fill:#000000;stroke:#000000;stroke-width:0.264999;stroke-linecap:round" />
    <path
       d="m 96.281683,221.29127 c 0.02544,1.14995 -0.158827,2.29028 -0.310535,3.42523 0.06415,0.44604 0.380146,1.00688 0.228265,1.37262 0.240022,-0.53972 0.785856,-0.79617 1.083271,-1.29454 0.509578,-0.83808 0.53516,-1.85517 0.49211,-2.80331 0.148187,-0.47855 -0.195751,-0.82427 -0.655008,-0.70661 -0.279286,0.002 -0.559217,0.005 -0.838103,0.007 z"
       style="fill:#000000;stroke:#000000;stroke-width:0.264999;stroke-linecap:round"
       id="path234" />
    <path
       d="m 103.30142,214.52577 c -0.42416,1.43249 -0.90858,2.90327 -0.67791,4.41977 0.17282,1.03437 0.24819,2.49275 1.40943,2.90477 1.74301,0.54022 3.9635,-0.16601 4.66845,-1.9534 0.55373,-1.26355 0.5305,-2.70202 0.35365,-4.04272 -0.29708,-1.13552 -1.55559,-1.11108 -2.48648,-1.08699 -0.92326,-0.30084 -0.52546,0.90881 -0.0456,0.26599 -0.58389,-0.0452 -0.63449,0.0611 -0.0269,0.18072 0.84357,0.61158 1.11469,1.8497 1.11382,2.85923 -0.10017,1.50768 -1.02851,3.10478 -2.56445,3.50122 -0.19572,0.3318 1.41919,0.1215 0.48585,0.11199 -1.32799,-0.31738 -1.72109,-1.85638 -1.82469,-3.0416 -0.10076,-1.41777 0.30317,-2.84453 1.02687,-4.05845 -0.47732,-0.0201 -0.95468,-0.041 -1.43198,-0.0605 z"
       style="fill:#000000;stroke:#000000;stroke-width:0.264999;stroke-linecap:round"
       id="path236" />
    <path
       d="m 110.44455,210.93071 c 2.28466,1.92833 2.54607,5.2022 2.29209,7.98511 -0.16665,1.83664 -0.88901,3.58246 -0.96031,5.42224 -0.61948,1.47664 1.13993,-1.08859 1.35565,-1.63851 1.09025,-3.5669 1.06111,-7.61875 -0.77543,-10.94404 -0.35485,-0.94704 -1.04191,-1.06129 -1.912,-0.8248 z"
       style="fill:#000000;stroke:#000000;stroke-width:0.264999;stroke-linecap:round"
       id="path238" />
    <path
       d="m 70.970385,169.07125 c -1.629332,0.89494 -2.171068,4.39473 0.276721,4.44907 1.733028,-0.009 4.126875,-0.74818 4.460315,-2.69921 0.609585,-1.63362 -2.356566,-3.18652 -2.852718,-1.6937 1.457078,1.06231 0.69305,3.59691 -1.086181,3.76231 -1.020117,0.34385 0.170082,0.26064 -0.573725,-0.30328 -1.020149,-1.23538 0.975165,-2.73624 0.775251,-3.456 -0.329213,-0.0836 -0.670776,0.0391 -0.999663,-0.0592 z"
       style="fill:#000000;stroke:#000000;stroke-width:0.264999;stroke-linecap:round"
       id="path240" />
    <path
       d="m 84.499221,157.16794 c -2.088376,1.87892 -2.771053,4.96051 -2.231256,7.64454 0.17845,0.65844 1.203569,1.96686 1.280611,1.9303 -0.640578,-0.97849 -0.513061,-2.24771 -0.673347,-3.36382 0.0413,-1.93124 0.769676,-3.85656 1.970217,-5.35717 0.695525,-0.43674 0.934265,-0.94057 -0.07946,-0.82818 l -0.133384,-0.0128 z"
       style="fill:#000000;stroke:#000000;stroke-width:0.264999;stroke-linecap:round"
       id="path242" />
    <path
       d="m 90.514743,159.22714 c -1.364609,0.50454 -2.401853,1.73997 -2.675079,3.16763 -0.323709,1.13232 -0.466569,2.52801 0.360971,3.48383 0.573062,0.47233 1.367746,0.31767 2.054694,0.36634 0.960413,0.005 1.928755,-0.39566 2.501693,-1.18815 1.032931,-1.25015 1.436573,-2.87904 1.676908,-4.44636 -0.02921,-0.74148 -0.862759,-0.96096 -1.467484,-1.02852 -0.458367,-0.23662 -0.419057,0.55873 -0.414704,0.7036 0.273125,1.98212 -0.554229,4.16489 -2.238725,5.31256 -0.350753,0.0198 -1.112277,0.31909 -0.334061,0.43769 0.572945,0.0146 0.479305,-0.16199 -0.02064,-0.13647 -0.706595,0.002 -0.973426,-0.71706 -1.258252,-1.23351 -0.342882,-1.29242 0.125611,-2.6889 0.883361,-3.74673 0.569951,-0.77426 1.443561,-1.31162 2.387459,-1.48693 -0.485385,-0.0683 -0.970745,-0.13679 -1.456145,-0.20498 z"
       style="fill:#000000;stroke:#000000;stroke-width:0.264999;stroke-linecap:round"
       id="path244" />
    <path
       d="m 96.436293,166.1462 c 0.07727,0.92447 -0.209786,1.87315 -0.06558,2.76843 0.176951,0.38945 0.476235,1.31661 0.585658,1.35468 0.300483,-0.7376 1.162041,-1.15523 1.210978,-2.01518 -0.09119,-0.66334 0.556936,-1.73704 -0.185315,-2.1093 -0.510967,-0.0608 -1.031651,0.029 -1.545738,0.001 z"
       style="fill:#000000;stroke:#000000;stroke-width:0.264999;stroke-linecap:round"
       id="path246" />
    <path
       d="m 104.1929,159.59697 c 0.64992,-0.83942 1.24811,-1.89044 1.5526,-2.81026 0.52146,-0.41072 -1.0321,-0.17676 -1.27406,0.0558 -0.21792,0.80317 0.25757,1.78701 0.16313,2.68748 0.0243,2.20925 0.45241,4.49206 -0.21687,6.64714 -0.35255,1.03292 -1.70726,1.58024 -2.66868,1.28251 0.86095,-0.10257 1.73446,-0.0183 2.56642,0.22629 0.97541,-0.0802 1.93184,-0.44388 2.906,-0.61232 0.82961,-0.14041 0.32865,-0.75647 -0.26236,-0.40668 -0.93456,0.028 -1.88149,0.0956 -2.79754,0.33274 -0.7404,0.3101 -1.84858,0.13298 -2.3509,0.7292 0.85742,0.42747 2.10341,0.32181 3.01055,-0.0756 1.25675,-0.62668 1.29396,-2.23177 1.09296,-3.43903 -0.26032,-2.39698 -0.45923,-4.86506 0.0438,-7.23431 -0.51575,-0.57973 -1.41296,-0.94644 -2.11694,-1.19952 0.76307,0.6495 0.17235,1.51383 -0.14175,2.22202 -0.082,0.5486 -1.09579,1.3192 -0.87579,1.48181 0.45634,0.0376 0.91404,0.075 1.36946,0.11273 z"
       style="fill:#000000;stroke:#000000;stroke-width:0.264999;stroke-linecap:round"
       id="path248" />
    <path
       d="m 107.50399,152.33285 c 3.20991,1.36577 4.46723,5.13781 4.44628,8.38766 0.20015,1.71409 -0.55964,3.2893 -0.7277,4.94449 0.23066,0.67523 -0.74617,2.8289 0.0979,1.3386 1.31498,-1.28769 1.87099,-3.05503 1.73288,-4.87088 -0.048,-2.85015 -0.74133,-5.76757 -2.24515,-8.20337 -0.73033,-1.14063 -1.87745,-2.06212 -3.30425,-1.5965 z"
       style="fill:#000000;stroke:#000000;stroke-width:0.264999;stroke-linecap:round"
       id="path250" />
    <path
       d="m 229.84263,171.85298 c -1.45598,0.44014 -2.47123,2.52311 -1.25962,3.7126 1.20846,1.14624 3.02366,0.96296 4.54722,0.81195 1.40062,-0.2124 2.98287,-1.35623 2.72379,-2.93654 -0.27537,-1.56639 -1.95934,-2.02628 -3.32843,-1.98451 -0.77292,-0.3339 -1.48377,0.82129 -0.30013,0.58403 1.05778,-0.34106 -1.0783,-0.28976 0.17045,-0.0575 1.2948,0.13373 2.22749,1.67041 1.54137,2.84437 -0.54998,0.93823 -1.97475,1.5469 -2.5284,1.34477 -1.32465,-0.0936 -2.7425,-1.47375 -2.03312,-2.83718 0.1422,-0.71346 1.41137,-0.92513 1.43771,-1.38332 -0.3189,-0.073 -0.65522,-0.0104 -0.97084,-0.0987 z"
       style="fill:#000000;stroke:#000000;stroke-width:0.264999;stroke-linecap:round"
       id="path252" />
    <path
       d="m 243.00151,157.26703 c -2.313,2.12001 -2.50259,5.51293 -2.46957,8.44786 -0.3378,1.4736 1.34522,3.11521 2.24791,3.14279 -1.04809,-1.47747 -1.61292,-3.32637 -1.38991,-5.14785 0.18216,-1.86138 0.73973,-3.77499 1.88549,-5.26782 0.57874,-0.4918 1.67027,-1.24544 0.23899,-1.1206 -0.17097,-0.0181 -0.34194,-0.0362 -0.51291,-0.0544 z"
       style="fill:#000000;stroke:#000000;stroke-width:0.264999;stroke-linecap:round"
       id="path254" />
    <path
       d="m 250.34444,162.71669 c 0.75806,-1.26415 0.96575,-2.762 1.48597,-4.11838 0.71723,-0.35127 -0.78081,-0.12249 -0.95935,0.10712 0.23161,1.0694 0.32671,2.2016 0.33418,3.31295 -0.0322,1.90174 0.28412,3.92438 -0.5426,5.70736 -0.34945,0.76603 -1.67175,1.30276 -2.13774,1.23642 0.83967,-0.26315 1.64171,0.3694 2.48486,-0.0593 0.66856,-0.21639 1.80399,-0.15715 2.18113,-0.52211 0.75339,-0.39634 -0.67266,-0.0245 -1.05086,-0.13645 -1.12343,1e-5 -2.20807,0.33319 -3.31495,0.48657 -0.59279,-0.0573 -1.1631,0.57389 -0.2627,0.58686 0.90611,-0.014 1.94379,0.0577 2.59531,-0.71496 0.93317,-0.96763 0.74765,-2.38587 0.70557,-3.61256 -0.024,-1.88339 -0.0546,-3.77119 0.11065,-5.64984 0.47129,-0.77085 -0.63328,-1.34861 -1.21147,-1.54781 0.0153,0.72402 -0.007,1.52008 -0.33412,2.25331 -0.27812,0.92243 -0.63898,1.85493 -1.30388,2.57218 0.40334,0.0674 0.81387,0.0606 1.22,0.0986 z"
       style="fill:#000000;stroke:#000000;stroke-width:0.264999;stroke-linecap:round"
       id="path256" />
    <path
       d="m 259.6665,167.50919 c -0.43963,0.93099 -0.9551,1.8251 -1.3642,2.77068 0.0372,0.39578 -0.19916,1.07304 -0.0262,1.3032 0.35269,-0.30575 0.64318,-0.67605 1.03614,-0.93982 0.64321,-0.57209 0.99722,-1.37415 1.47667,-2.07387 0.12307,-0.29852 0.62312,-0.82012 0.46588,-0.98667 -0.52943,-0.0245 -1.05887,-0.049 -1.5883,-0.0735 z"
       style="fill:#000000;stroke:#000000;stroke-width:0.264999;stroke-linecap:round"
       id="path258" />
    <path
       d="m 270.63731,160.14036 c 0.48533,-1.02994 1.32233,-1.89736 1.54973,-3.04167 0.52283,-0.76433 -1.78582,-0.25897 -1.20397,0.57268 0.32526,1.30548 0.22494,2.66625 0.27184,4.00152 -0.0861,1.61201 0.19193,3.39918 -0.74243,4.82456 -0.66686,0.95347 -1.90761,1.40559 -3.03985,1.37833 1.23389,0.36285 2.53869,0.35495 3.79477,0.13018 0.51457,0.0912 2.09106,-0.40845 0.82106,-0.38158 -1.4311,-0.0457 -2.86228,0.0551 -4.2851,0.20206 0.74956,0.20929 1.56765,0.45417 2.33943,0.32393 1.4261,-0.39958 2.24135,-1.97219 2.03346,-3.39018 -0.0792,-2.31983 -0.3303,-4.6739 0.15259,-6.9683 0.5978,-0.7672 -1.34826,-2.18072 -1.56173,-0.99437 -0.24144,0.86823 -0.51106,1.80216 -0.80487,2.67086 -0.50208,0.44106 -0.30702,0.80372 0.33538,0.65045 l 0.17,0.0108 0.16998,0.0107 z"
       style="fill:#000000;stroke:#000000;stroke-width:0.264999;stroke-linecap:round"
       id="path260" />
    <path
       d="m 277.50648,153.60411 c 2.74432,2.83726 3.44714,7.3933 1.66831,10.92432 -0.77118,1.71498 -1.85042,3.26452 -2.92189,4.80129 -0.18004,0.54149 -0.75193,1.6783 0.11158,0.76457 1.75204,-1.17438 2.62935,-3.17968 3.47039,-5.03361 1.46419,-3.32491 1.08107,-7.19351 -0.39907,-10.44219 -0.1919,-1.07404 -0.9689,-1.30452 -1.92932,-1.01438 z"
       style="fill:#000000;stroke:#000000;stroke-width:0.264999;stroke-linecap:round"
       id="path262" />
    <path
       d="m 231.37754,231.59968 c -1.62849,0.99334 -2.44275,3.62811 -0.89411,5.03996 1.19515,0.82319 2.80145,0.50248 4.11805,0.18885 1.48276,-0.599 2.51869,-2.5789 1.68961,-4.04685 -0.64335,-1.10834 -3.1805,-1.18996 -3.4852,-0.91233 1.47837,0.3798 2.66596,1.99033 1.71325,3.4306 -0.23286,0.68986 -1.7757,1.24849 -1.64384,1.56287 -0.20431,0.0506 -1.86141,-0.6917 -1.78827,-1.68957 -0.55057,-1.46827 0.91999,-2.61974 1.57024,-3.43596 -0.413,-0.13715 -0.86571,0.003 -1.27973,-0.13757 z"
       style="fill:#000000;stroke:#000000;stroke-width:0.264999;stroke-linecap:round"
       id="path264" />
    <path
       d="m 159.44883,145.82488 c 43.44584,36.47772 92.02434,66.16829 136.22039,101.67494 -2.39584,-6.2573 -9.42363,-8.51732 -14.19596,-12.59199 -15.04301,-10.60735 -29.52011,-21.99847 -44.78351,-32.2995 -24.95116,-17.44306 -49.89321,-34.98184 -73.26054,-54.52965 -1.23164,-0.90274 -2.54482,-1.71676 -3.98038,-2.2538 z"
       style="fill:#ff6600;stroke:#ff6600;stroke-width:0.264999;stroke-linecap:round"
       id="path583" />
    <path
       d="m 248.27691,216.3302 c -2.08613,1.16442 -3.19779,3.59305 -3.11496,5.93085 -0.0397,1.60693 0.17966,3.52801 1.5976,4.52984 0.71992,0.58251 2.39659,0.61876 2.78865,0.63433 -0.96593,0.12588 -1.72126,-0.54963 -2.22082,-1.29278 -1.95244,-2.41257 -1.58976,-6.14502 0.48935,-8.36288 0.31552,-0.52586 1.46776,-1.0629 1.48806,-1.31026 -0.3397,-0.065 -0.68694,-0.0728 -1.02788,-0.1291 z"
       style="fill:#000000;stroke:#000000;stroke-width:0.264999;stroke-linecap:round"
       id="path266" />
    <path
       d="m 256.04535,220.42633 c 0.82935,-0.90465 1.43877,-1.98601 2.08047,-3.0215 0.10407,-0.52741 0.90987,-1.17702 0.93802,-1.3661 -0.62885,0.21358 -1.95444,0.15473 -1.80903,1.06095 0.28549,0.95453 0.18454,1.96727 0.27194,2.95308 0.0152,1.65549 0.0458,3.33876 -0.2795,4.96745 -0.0788,0.74083 -1.04897,1.51161 -1.51062,1.41173 0.92726,-0.11756 1.79696,0.20219 2.66457,-0.007 0.58298,-0.20952 1.86808,1.8e-4 2.05136,-0.45404 -1.76512,-0.0262 -3.56677,-0.11509 -5.28607,0.36918 -0.1696,0.8722 1.37824,0.26345 1.91082,0.45344 1.16787,0.25871 1.66145,-0.99337 1.51584,-1.94845 -0.1175,-2.64204 -0.57225,-5.33216 0.0378,-7.94842 0.20591,-0.73431 -1.74166,-1.13462 -1.50509,-0.0514 -0.16418,0.63824 -0.4643,1.23599 -0.71539,1.853 -0.31335,0.63711 -0.74831,1.22994 -1.33338,1.6423 0.32274,0.0287 0.64576,0.0565 0.96831,0.0858 z"
       style="fill:#000000;stroke:#000000;stroke-width:0.264999;stroke-linecap:round"
       id="path268" />
    <path
       d="m 264.59476,226.21097 c -0.30385,0.68049 -0.60213,1.36473 -0.92179,2.03713 -0.17179,0.52669 -0.24828,1.08577 -0.26367,1.63714 -0.0442,0.41688 0.33396,0.72279 0.5591,0.25237 0.74155,-0.77264 1.56085,-1.49765 2.08381,-2.44748 0.27692,-0.42922 0.58001,-0.84176 0.83603,-1.28429 -0.25976,-0.21489 -0.7271,-0.0686 -1.07506,-0.13944 -0.40612,-0.0186 -0.81237,-0.037 -1.21842,-0.0554 z"
       style="fill:#000000;stroke:#000000;stroke-width:0.264999;stroke-linecap:round"
       id="path270" />
    <path
       d="m 199.10666,161.32688 c 16.64244,12.1876 33.33354,24.30562 51.60782,33.94755 18.53574,11.4873 36.34342,24.08876 54.22545,36.5543 -15.68505,-14.03532 -34.02328,-24.96054 -51.84563,-36.10238 -16.60864,-9.30761 -32.98803,-19.15184 -47.58299,-31.42584 -1.9971,-1.25501 -4.13761,-2.30354 -6.40465,-2.97363 z"
       style="fill:#ff0066;fill-opacity:1;stroke:#ff0066;stroke-width:0.264999;stroke-linecap:round;stroke-opacity:1"
       id="path643" />
    <path
       d="m 275.89638,216.19038 c -2.21812,0.76072 -3.27504,3.2327 -3.29077,5.43388 -0.008,1.00802 -0.18826,2.35269 0.77824,2.99604 1.05391,0.49465 2.32465,0.35146 3.42798,0.0915 1.64716,-0.46982 3.04671,-1.88257 3.18857,-3.63752 0.31925,-1.09319 -0.0252,-2.47402 -1.24916,-2.78724 -0.42867,0.65966 -0.43578,1.58951 -0.44432,2.41345 -0.0675,1.28632 -0.75684,2.45481 -1.76809,3.22078 -0.34128,0.36108 -2.11665,0.38234 -1.36037,0.8465 1.01452,-0.42722 -1.1956,-0.0814 -1.05616,-1.02467 -1.30786,-2.43866 -0.2409,-5.85123 2.23246,-7.10503 0.5005,-0.0776 0.97328,-0.41481 0.1241,-0.36798 -0.19416,-0.0266 -0.3885,-0.053 -0.58248,-0.0797 z"
       style="fill:#000000;stroke:#000000;stroke-width:0.264999;stroke-linecap:round"
       id="path272" />
    <path
       d="m 280.87256,212.14335 c 2.60365,1.97493 2.84865,5.6979 1.94256,8.60719 -0.88581,3.3174 -2.92932,6.19102 -5.21578,8.68649 2.43617,-1.34142 4.49055,-3.45216 5.40327,-6.11771 1.20026,-3.25772 1.6928,-7.08441 0.135,-10.30799 -0.44294,-1.03223 -1.31136,-1.07625 -2.26505,-0.86798 z"
       style="fill:#000000;stroke:#000000;stroke-width:0.264999;stroke-linecap:round"
       id="path274" />
    <path
       d="m 164.35514,263.31028 c -1.82742,1.20679 -3.0636,3.76657 -2.02255,5.85573 0.65887,1.28303 2.20298,1.43431 3.47003,1.21233 2.23487,-0.24658 3.59145,-2.68455 3.41163,-4.77971 -0.0107,-1.08535 -0.59414,-2.43968 -1.88644,-2.31542 -0.62615,-0.0696 -1.99285,0.16474 -1.05292,0.96372 0.49886,-0.0819 1.97241,-0.71892 0.61206,-0.65231 -0.59701,0.1944 1.02136,0.79682 0.79803,1.43827 0.59657,2.02556 -0.59732,4.44216 -2.62477,5.10213 1.38962,0.1679 -0.65281,0.1759 -0.94981,-0.30476 -1.12335,-0.73765 -1.44119,-2.24993 -0.97993,-3.46444 0.36821,-1.21871 1.21537,-2.28777 2.32312,-2.91688 -0.34886,-0.1516 -0.7436,-0.0143 -1.09845,-0.13866 z"
       style="fill:#6600ff;stroke:#6600ff;stroke-width:0.264999;stroke-linecap:round"
       id="path565" />
    <path
       d="m 172.73674,263.63691 c -0.0482,1.19274 -0.2654,2.37719 -0.19625,3.57419 -0.0182,1.02166 -0.0864,2.0483 0.0368,3.06627 0.26502,0.50649 1.2735,0.57864 1.51484,0.0491 0.0717,-0.67129 -0.22484,-1.33075 -0.25119,-2.00477 -0.16617,-1.33391 -0.28259,-2.684 -0.23637,-4.02737 0.30784,-0.89444 -0.23217,-0.61107 -0.86785,-0.65745 z"
       style="fill:#6600ff;stroke:#6600ff;stroke-width:0.264999;stroke-linecap:round"
       id="path567" />
    <path
       d="m 173.75236,263.93458 c 1.33222,-0.79877 3.36295,1.00072 2.4428,2.38571 -0.2724,0.82477 -2.42888,1.07302 -1.11591,1.9904 1.17912,0.80541 2.0319,1.99218 3.16747,2.85705 0.65341,0.38445 2.46801,-0.07 1.11004,-0.72022 -1.10143,-0.78473 -2.10199,-1.70275 -3.03452,-2.68004 0.96132,-0.47627 2.08995,-1.5963 1.31232,-2.71068 -0.92525,-1.54568 -3.10769,-1.89025 -4.67561,-1.24255 0.20025,0.1472 0.55136,0.0431 0.79341,0.12033 z"
       style="fill:#6600ff;stroke:#6600ff;stroke-width:0.264999;stroke-linecap:round"
       id="path569" />
    <path
       d="m 157.60371,252.36938 c -1.61168,1.83316 -3.83976,3.0367 -5.28928,5.02471 0.0406,0.99865 1.80589,0.5434 1.99133,-0.24723 1.09595,-1.59971 2.70161,-2.73562 3.99955,-4.15684 0.96268,-0.74047 -0.1164,-0.52867 -0.7016,-0.62064 z"
       style="fill:#6600ff;stroke:#6600ff;stroke-width:0.264999;stroke-linecap:round"
       id="path571" />
    <path
       d="m 150.38098,256.04627 c -0.18831,1.26798 -0.40206,2.55528 -0.95059,3.72536 0.35958,1.0483 1.728,0.40004 2.4988,0.24829 1.60382,-0.50562 3.17846,-1.14694 4.81635,-1.50711 0.61491,0.0851 1.31822,-0.52224 0.30226,-0.53922 -1.60725,-0.0811 -3.11868,0.62893 -4.62161,1.10282 -0.69547,0.2979 -2.11422,0.66503 -2.40552,0.84481 0.63376,0.0449 1.37164,0.0976 1.06092,-0.74676 0.10815,-0.93051 0.18694,-1.86469 0.4651,-2.76187 0.09,-0.66301 -0.79088,-0.25216 -1.16571,-0.36632 z"
       style="fill:#6600ff;stroke:#6600ff;stroke-width:0.264999;stroke-linecap:round"
       id="path573" />
    <path
       d="m 165.17327,243.9885 c 1.07527,-1.50748 2.66736,-2.54638 3.759,-4.03993 0.78134,-0.35457 0.38248,-1.6945 -0.48469,-1.07513 -1.16853,0.43392 -1.66879,1.69379 -2.43657,2.58282 -0.67013,0.85972 -1.40893,1.66335 -2.17222,2.44063 0.44482,0.0306 0.88968,0.061 1.33448,0.0916 z"
       style="fill:#6600ff;stroke:#6600ff;stroke-width:0.264999;stroke-linecap:round"
       id="path575" />
    <path
       d="m 166.64541,237.39426 c 1.75919,-0.14977 3.48898,-0.51942 5.23778,-0.74878 -1.1773,-0.29981 -1.18015,1.29913 -1.63254,1.98703 -0.24978,0.57147 -1.075,2.30216 -0.0557,2.25739 0.78417,-0.72572 1.184,-1.74875 1.73523,-2.64626 0.6707,-0.76646 0.41567,-2.13139 -0.80538,-1.79228 -1.8234,0.29197 -3.63532,0.70756 -5.48979,0.77566 0.33434,0.07 0.67394,0.10964 1.01043,0.16724 z"
       style="fill:#6600ff;stroke:#6600ff;stroke-width:0.264999;stroke-linecap:round"
       id="path577" />
    <path
       d="m 141.09314,262.92519 c -1.33364,1.21543 -2.49841,3.0907 -1.94004,4.949 0.68438,1.39674 2.62133,1.43065 3.86465,0.82368 1.51559,-0.73634 2.27651,-2.66129 1.82598,-4.24841 -0.55982,-0.89317 -2.04316,-0.72072 -2.86268,-0.28104 -0.80231,0.93969 1.57512,0.90422 1.65885,-0.004 -0.64135,-0.0132 -1.03801,-0.10753 -0.35275,0.4535 0.60778,1.48084 -0.30836,3.29772 -1.73393,3.91835 -0.61023,0.3169 0.8245,0.28684 -0.11318,0.16317 -1.44032,-0.52934 -1.39753,-2.32812 -0.85069,-3.49924 0.17366,-0.84338 1.25132,-1.79235 1.44997,-2.19322 -0.31538,-0.0274 -0.63082,-0.0549 -0.94618,-0.082 z"
       style="fill:#6600ff;stroke:#6600ff;stroke-width:0.264999;stroke-linecap:round"
       id="path579" />
    <path
       d="m 179.26008,231.27108 c 0.38337,-1.31525 1.82761,-2.73147 1.77675,-3.87155 -1.69224,-0.27218 -1.13354,1.62308 -1.05865,2.63047 0.0999,1.57425 0.30061,3.15242 0.2298,4.73035 -0.0347,0.71988 -1.90621,1.0681 -1.63323,0.70526 1.16724,0.0967 2.31462,0.63226 3.46754,0.0986 0.87257,0.0883 1.23191,-0.79241 0.13905,-0.61394 -1.34547,-0.0155 -2.60627,0.56401 -3.9415,0.6408 0.42418,1.00749 2.11376,0.19825 2.9421,0.15068 1.23182,-0.83815 0.31518,-2.2898 0.14034,-3.40058 -0.26275,-1.48945 -0.33822,-3.03296 -0.12486,-4.52682 -0.48147,-1.05191 -1.98833,-0.22226 -1.63905,0.80977 -0.0535,0.90617 -1.34845,2.03463 -1.002,2.63771 0.23531,0.0142 0.47381,-0.0882 0.70371,0.009 z"
       style="fill:#6600ff;stroke:#6600ff;stroke-width:0.264999;stroke-linecap:round"
       id="path581" />
    <path
       d="m 172.39544,148.66708 c 1.19828,-2.3301 2.42146,-4.65281 3.83022,-6.86277 0.65532,-1.08585 -1.98531,-0.5135 -1.07055,0.43324 0.31493,2.19562 0.62049,4.40839 1.1295,6.5635 0.72875,0.99196 2.07186,-0.25528 1.12892,-1.09974 -0.57361,-1.77908 -0.91195,-3.64456 -0.88965,-5.51755 0.5525,-1.15785 -1.74449,-1.61409 -1.87827,-0.39559 -0.3315,1.11491 -0.66624,2.22917 -1.23016,3.2552 -0.59665,1.2097 -1.23305,2.41988 -2.03881,3.49713 0.19715,0.26606 0.73176,-0.0251 1.0188,0.12658 z"
       style="fill:#ff6600;stroke:#ff6600;stroke-width:0.264999;stroke-linecap:round"
       id="path587" />
    <path
       d="m 172.72922,145.92955 c 1.12048,0.20129 2.25351,0.31917 3.3858,0.42519 0.24018,0.066 1.00793,0.0348 0.8655,-0.25904 -0.13973,-0.0363 -0.59503,0.0321 -0.19812,-0.0237 0.14519,-0.002 0.75799,-0.0428 0.33513,-0.05 -0.96733,-0.0181 -1.93039,-0.16112 -2.88232,-0.30046 -0.502,0.0693 -1.00395,0.13895 -1.50599,0.20801 z"
       style="fill:#ff6600;stroke:#ff6600;stroke-width:0.264999;stroke-linecap:round"
       id="path589" />
    <path
       d="m 182.10769,147.81869 c 0.36216,-1.78875 0.99477,-3.50543 1.58736,-5.22681 -0.34303,-0.76011 -2.11426,-0.1571 -0.95015,0.50245 0.95034,1.27896 1.4079,2.83824 1.98511,4.29683 0.003,0.96852 0.24767,2.13673 1.40931,1.3696 1.494,-0.32149 0.76179,-2.20143 1.43701,-3.21291 0.057,-1.06561 1.71421,-2.46739 0.29306,-3.19979 -1.32716,-0.2856 -1.49967,1.25442 -1.62163,2.18123 -0.19919,1.29473 -0.93104,2.80236 -0.96743,3.91416 0.62535,0.25875 1.9686,0.17841 1.07591,-0.67565 -0.74542,-1.60336 -1.3622,-3.2653 -2.13652,-4.85375 -0.31357,-0.96914 -2.33488,-1.02095 -2.26425,0.16867 0.0107,1.14079 -0.464,2.21593 -0.78594,3.28901 -0.51552,0.71453 -0.54128,1.83784 0.6213,1.40828 l 0.1591,0.009 0.15776,0.03 z"
       style="fill:#ff6600;stroke:#ff6600;stroke-width:0.264999;stroke-linecap:round"
       id="path591" />
    <path
       d="m 192.67437,142.27277 c 0.21994,2.02313 0.0868,4.07098 -0.23906,6.07462 -0.0406,0.65727 0.79834,1.04723 1.30678,0.6613 0.51572,-0.28315 0.33754,-0.93335 0.34588,-1.41172 -0.14161,-1.71376 -0.10096,-3.43633 -0.0357,-5.1529 -0.33385,-0.4022 -0.93233,-0.0553 -1.3779,-0.1713 z"
       style="fill:#ff6600;stroke:#ff6600;stroke-width:0.264999;stroke-linecap:round"
       id="path593" />
    <path
       d="m 193.66017,142.70235 c 0.28243,-0.23721 1.66031,-0.34611 1.27394,-0.4079 0.55,0.23122 1.2481,0.75877 1.2769,1.54428 0.22593,1.66286 -1.08286,3.04608 -2.37031,3.8851 -0.39279,0.42075 -1.5863,0.58472 -0.72437,0.99903 0.6555,0.21911 1.67457,-0.0458 2.22967,-0.58865 1.11044,-0.97706 2.3576,-2.17358 2.36888,-3.76183 -0.0487,-1.22719 -1.15372,-2.35986 -2.41778,-2.23776 -0.79855,-0.0447 -2.31282,0.21968 -2.60939,0.44601 0.32416,0.0405 0.6483,0.0812 0.97246,0.12172 z"
       style="fill:#ff6600;stroke:#ff6600;stroke-width:0.264999;stroke-linecap:round"
       id="path595" />
    <path
       d="m 172.99161,162.91135 c -1.5025,1.22497 -2.93269,2.5348 -4.36133,3.84415 -0.0507,0.79141 0.95917,0.4711 1.4042,0.40062 0.72661,-0.27197 1.08927,-1.04795 1.64412,-1.54755 0.85737,-0.94611 1.75523,-1.88576 2.86044,-2.54492 -0.5158,-0.0509 -1.03167,-0.10101 -1.54743,-0.1523 z"
       style="fill:#ff6600;stroke:#ff6600;stroke-width:0.264999;stroke-linecap:round"
       id="path597" />
    <path
       d="m 167.10569,165.41638 c -0.2087,1.24434 -0.69385,2.42966 -1.32879,3.51531 -0.14542,0.41357 0.40584,0.54531 0.7088,0.49108 1.20227,-0.0386 2.35163,-0.44713 3.4838,-0.81907 0.59271,-0.20203 1.18324,-0.41104 1.78222,-0.59405 0.10851,-0.43021 -0.52189,-0.24462 -0.79709,-0.27034 -0.47145,-0.0185 -0.94983,0.0412 -1.3727,0.26167 -1.14657,0.45372 -2.31309,0.88888 -3.53592,1.08393 0.38667,0.06 0.87452,-0.012 1.20345,-0.036 -0.0568,-0.45481 0.26109,-0.83903 0.26603,-1.28983 0.15421,-0.78372 0.40122,-1.54811 0.5958,-2.32321 -0.33518,-0.007 -0.67043,-0.0137 -1.0056,-0.0195 z"
       style="fill:#ff6600;stroke:#ff6600;stroke-width:0.264999;stroke-linecap:round"
       id="path599" />
    <path
       d="m 173.29889,172.11576 c -0.69166,1.24659 -1.16583,2.74291 -0.80501,4.16569 0.11703,0.74724 0.88014,1.07748 1.55963,0.90025 0.60412,-0.0127 1.27519,-0.004 1.73738,-0.46662 1.22696,-1.14085 1.95479,-2.80925 1.94765,-4.48373 -0.0494,-0.57413 -0.63824,-0.78593 -1.13653,-0.69846 -0.46414,0.0643 -1.19521,-0.42964 -1.42274,0.18379 -0.081,0.69015 0.81784,0.0136 1.19673,0.13869 0.30447,-0.02 0.53834,-0.0723 0.0944,-0.0663 -0.26256,0.0374 -1.23887,-0.11272 -0.55114,0.0528 0.5712,0.4211 0.49277,1.24424 0.38344,1.8631 -0.27599,1.10757 -0.84744,2.20318 -1.77354,2.89876 -0.23534,0.0977 -0.88241,0.39146 -0.26722,0.41379 0.74634,0.0518 -0.39218,-0.0223 -0.47803,-0.39443 -0.6929,-0.9619 -0.43281,-2.24607 0.004,-3.25792 0.0714,-0.43136 0.73241,-0.86253 0.65164,-1.17033 -0.38016,-0.0262 -0.76054,-0.0509 -1.14049,-0.0791 z"
       style="fill:#ff6600;stroke:#ff6600;stroke-width:0.264999;stroke-linecap:round"
       id="path601" />
    <path
       d="m 180.04947,157.59174 c 1.37155,-1.24391 2.89177,-2.31226 4.25103,-3.57035 0.0453,-0.40962 -0.34427,-0.7915 -0.75052,-0.57596 -0.4402,0.2094 -0.97883,0.23834 -1.34039,0.57163 -0.97202,0.83308 -1.8545,1.76835 -2.85492,2.56769 -0.31182,0.24995 -0.66761,0.47191 -0.8981,0.80293 0.29387,0.17176 0.74738,0.0985 1.10403,0.15785 0.16327,0.0117 0.32652,0.0253 0.48887,0.0462 z"
       style="fill:#ff6600;stroke:#ff6600;stroke-width:0.264999;stroke-linecap:round"
       id="path603" />
    <path
       d="m 182.42116,151.25315 c 1.27737,-0.29907 2.58559,-0.47145 3.8383,-0.87138 -0.63299,-0.46955 -1.59339,0.19363 -0.96575,0.93908 0.24669,1.42187 0.1178,2.89236 -0.22628,4.28799 0.3142,1.01435 1.88601,0.43829 1.67271,-0.5359 0.002,-1.55471 -0.0671,-3.1116 -0.20196,-4.66125 -0.7023,-0.44039 -1.61436,-0.39591 -2.32477,-0.004 -0.95995,0.3517 -1.96997,0.54146 -2.98054,0.67714 0.39612,0.056 0.79209,0.11309 1.18829,0.16842 z"
       style="fill:#ff6600;stroke:#ff6600;stroke-width:0.264999;stroke-linecap:round"
       id="path605" />
    <path
       d="m 192.14149,157.64255 c 0.29389,-0.82495 0.93565,-1.45756 1.30733,-2.24243 -0.52192,0.0398 -1.10619,-0.11226 -1.6523,-0.158 -0.17987,0.40533 0.16335,1.10785 0.12181,1.63807 0.0993,1.34285 0.15429,2.70456 -0.0228,4.04196 -0.0728,0.62956 -0.63059,1.12212 -1.2751,1.02815 0.41338,0.0285 1.46149,-0.0762 1.45891,0.0508 0.36039,0.27066 0.89242,-0.22328 1.34687,-0.21788 0.48067,-0.11535 0.96462,-0.21668 1.4443,-0.33619 -0.25102,-0.4757 -1.04774,-0.21808 -1.5211,-0.2863 -0.79274,0.068 -1.5324,0.39598 -2.31513,0.5279 -0.35491,-0.0265 -1.23952,0.40422 -0.50262,0.55577 0.77976,-0.0832 1.6004,0.13812 2.34969,-0.1546 0.70249,-0.37696 0.64954,-1.28758 0.58169,-1.9696 -0.22159,-1.59895 -0.30899,-3.24104 0.03,-4.83072 -0.40277,-0.35176 -1.03909,0.0429 -1.55353,-0.10093 -0.71141,0.18105 -0.40678,1.18001 -0.8101,1.67651 -0.20839,0.33412 -0.73892,0.8628 0.0259,0.72033 0.32863,0.0195 0.65784,0.0385 0.98615,0.0572 z"
       style="fill:#ff6600;stroke:#ff6600;stroke-width:0.264999;stroke-linecap:round"
       id="path607" />
    <path
       d="m 132.4164,150.73919 c 19.49176,19.95804 43.3575,34.90512 64.47038,52.97702 30.09091,21.28087 63.72808,37.43973 91.81615,61.54883 -15.14253,-16.18438 -35.66609,-25.95311 -53.87402,-38.21858 -23.74137,-13.16091 -45.683,-29.14126 -66.18709,-46.81608 -12.85329,-8.8538 -24.34481,-19.67417 -36.22542,-29.49119 z"
       style="fill:#0088aa;stroke:#0088aa;stroke-width:0.264999;stroke-linecap:round"
       id="path609" />
    <path
       d="m 246.85331,267.47411 c 0.16999,-1.86873 0.3999,-3.73718 0.74509,-5.58118 0.12943,-0.52523 0.5295,-1.19975 -0.32252,-0.97356 -0.43263,0.006 -1.42317,-0.18312 -0.70676,0.42129 0.86818,1.46596 1.26179,3.14796 1.88552,4.72263 0.4473,0.61584 0.17281,2.1707 1.20715,1.99691 0.48871,-0.18997 1.48794,0.19986 1.52966,-0.5529 0.15434,-1.28974 0.35236,-2.57391 0.70206,-3.82682 0.16342,-0.82433 0.45687,-1.61507 0.69546,-2.41501 0.18667,-0.73484 -0.41358,-1.85748 -1.07648,-0.90111 -0.91724,0.70284 -0.68599,1.9704 -1.02854,2.95071 -0.38578,1.45614 -0.42471,3.04947 -1.20633,4.36899 0.29717,0.25675 1.55773,0.1 1.61802,0.14766 -0.62246,-0.34958 -0.73771,-1.14427 -1.10021,-1.70963 -0.78204,-1.66967 -1.3717,-3.42717 -1.78436,-5.22343 -0.5481,-0.18563 -1.57337,-0.46687 -1.8935,0.07 -0.0849,0.84277 -0.0221,1.69695 -0.14956,2.54316 -0.0941,1.3228 -0.19148,2.66271 -0.59919,3.93319 0.49479,0.01 0.98987,0.0191 1.48449,0.0291 z"
       style="fill:#0088aa;stroke:#0088aa;stroke-width:0.264999;stroke-linecap:round"
       id="path615" />
    <path
       d="m 254.6774,267.67418 c 0.44758,-1.36436 1.15943,-2.62234 1.65193,-3.97001 0.43931,-0.99261 0.98698,-1.93132 1.49098,-2.89131 -0.27718,-0.52107 -1.61064,-0.26842 -1.70982,0.21924 0.49427,0.73623 0.6344,1.62102 0.95751,2.43861 0.59703,1.79009 1.4074,3.5012 2.29661,5.16164 0.29824,0.51118 1.71845,0.54917 1.64136,-0.0996 -0.46359,-0.74289 -1.02023,-1.42974 -1.38838,-2.23336 -0.85845,-1.7198 -1.57178,-3.56129 -1.77406,-5.4846 -0.57596,-0.15435 -1.4008,-0.60449 -1.87372,-0.0662 -0.27135,0.82435 -0.33878,1.70994 -0.70791,2.51659 -0.52744,1.47443 -1.25062,2.87181 -1.98967,4.24656 0.16922,0.24816 0.69545,0.0665 1.0169,0.14616 0.12942,0.005 0.2589,0.011 0.38827,0.0163 z"
       style="fill:#0088aa;stroke:#0088aa;stroke-width:0.264999;stroke-linecap:round"
       id="path617" />
    <path
       d="m 256.84182,265.29977 c 0.71749,-0.096 1.45475,-0.0503 2.15766,-0.24587 -0.34422,-0.14307 -0.70392,-0.25126 -1.07902,-0.21345 -0.58231,-0.0631 -1.16823,-0.0501 -1.74706,0.0378 -0.43382,0.0473 -0.86756,0.0987 -1.30351,0.1221 0.6573,0.0998 1.31472,0.19946 1.97193,0.29945 z"
       style="fill:#0088aa;stroke:#0088aa;stroke-width:0.264999;stroke-linecap:round"
       id="path619" />
    <path
       d="m 263.17133,266.82861 c 0.002,-1.53973 0.52328,-3.02915 0.48006,-4.57339 -0.17584,-0.79266 1.03689,-1.62832 0.33862,-2.20929 -0.48315,0.1059 -1.18182,0.17704 -1.54229,0.45667 1.03488,1.14837 1.57565,2.64864 2.17445,4.05582 0.33843,0.92771 0.83466,1.80252 1.09347,2.75407 0.16157,0.99542 1.23518,0.0798 1.8697,0.12104 0.82634,-0.44423 0.19399,-1.76072 0.42767,-2.57473 0.0352,-0.88076 0.10371,-1.76076 0.2258,-2.63394 -0.0616,0.66503 0.20305,-0.7925 -0.14032,-0.96914 -0.21235,-0.70511 -0.87117,-0.55688 -1.08491,0.052 -0.51028,0.6509 -0.24872,1.51766 -0.40737,2.27062 -0.13322,1.20789 -0.30267,2.44152 -0.67292,3.59027 0.61386,0.22003 1.48449,0.50824 2.13236,0.37892 -1.14103,-0.90272 -1.59957,-2.33266 -2.16187,-3.61663 -0.48944,-1.22258 -1.06364,-2.40876 -1.61464,-3.60269 -0.28705,-0.86068 -1.38751,-1.00473 -1.88041,-0.25389 -0.78599,1.03537 -0.60001,2.41683 -0.7478,3.63455 -0.0569,1.03382 -0.009,2.10466 -0.39299,3.0864 0.63446,0.0111 1.26893,0.0228 1.90339,0.0334 z"
       style="fill:#0088aa;stroke:#0088aa;stroke-width:0.264999;stroke-linecap:round"
       id="path623" />
    <path
       d="m 271.68898,261.12072 c 0.0466,1.95244 0.0799,3.91314 -0.0191,5.86153 -0.21513,0.748 0.56728,1.28995 1.23594,1.01176 0.89356,-0.43371 0.18012,-1.53318 0.2577,-2.26652 -0.16001,-1.45048 -0.31503,-2.90725 -0.28061,-4.36877 -0.22054,-0.48823 -0.81147,-0.12723 -1.19394,-0.238 z"
       style="fill:#0088aa;stroke:#0088aa;stroke-width:0.264999;stroke-linecap:round"
       id="path625" />
    <path
       d="m 272.51358,261.28321 c 0.28354,-0.20448 1.20824,-0.16169 1.14622,-0.24829 -0.53747,0.3025 0.92218,0.36878 1.08017,0.7721 0.88393,0.64032 1.32799,1.84259 0.93451,2.8844 -0.40847,1.21516 -1.44076,2.09008 -2.45875,2.79701 -0.67788,0.16557 -0.52746,0.81481 0.15114,0.70682 0.59602,0.0918 1.26464,8e-5 1.66769,-0.49509 1.07614,-1.01142 2.258,-2.16468 2.39769,-3.72151 -0.0206,-1.60659 -1.5339,-2.78264 -3.01499,-3.03761 -1.06901,-0.20301 -2.16607,-0.0528 -3.21886,0.17174 0.43836,0.0568 0.87702,0.11322 1.31518,0.17043 z"
       style="fill:#0088aa;stroke:#0088aa;stroke-width:0.264999;stroke-linecap:round"
       id="path627" />
    <path
       d="m 261.87434,250.25867 c -1.08197,1.87186 -2.77286,3.28229 -4.14854,4.91664 -0.90828,0.79174 0.47896,1.48837 1.06771,0.68395 0.58857,-0.72047 1.03202,-1.55664 1.7175,-2.20473 0.79705,-0.84408 1.55063,-1.73863 2.14072,-2.73828 0.88363,-0.85725 -0.22623,-0.55715 -0.77739,-0.65758 z"
       style="fill:#0088aa;stroke:#0088aa;stroke-width:0.264999;stroke-linecap:round"
       id="path629" />
    <path
       d="m 256.18929,254.53398 c -0.29946,1.26731 -0.77899,2.48628 -1.35557,3.65182 0.49197,0.90846 1.66049,0.17584 2.38652,-0.0197 1.32299,-0.53657 2.65979,-1.09242 4.07662,-1.30849 0.26693,-0.51364 -1.08385,-0.35544 -1.44466,-0.32555 -1.38701,0.34582 -2.71405,0.89259 -4.02168,1.46618 -0.31847,0.13 -0.9683,0.2669 -0.22044,0.30535 0.87698,0.10406 0.45599,-1.16575 0.81751,-1.71405 -0.0742,-0.65607 0.76153,-1.71006 0.0987,-2.10123 l -0.14846,0.008 -0.1885,0.0378 z"
       style="fill:#0088aa;stroke:#0088aa;stroke-width:0.264999;stroke-linecap:round"
       id="path631" />
    <path
       d="m 268.36002,245.5751 c 1.34031,-1.16756 2.36562,-2.62454 3.50335,-3.97403 0.37949,-0.80719 2.07425,-1.39225 1.58881,-2.32311 -0.88064,-0.43362 -1.82766,0.1973 -2.35383,0.89918 -1.53066,1.66436 -2.73768,3.60672 -4.36956,5.1811 0.50764,0.25886 1.0946,0.0973 1.63123,0.21686 z"
       style="fill:#0088aa;stroke:#0088aa;stroke-width:0.264999;stroke-linecap:round"
       id="path633" />
    <path
       d="m 270.91269,238.35016 c 1.55512,-0.55926 2.98597,-1.41584 4.48777,-2.08141 -1.10025,-0.42936 -1.25112,0.47285 -0.89048,1.26157 0.0853,1.34217 0.006,2.72159 -0.47051,3.98811 -0.55347,1.47842 1.73202,1.66447 1.78095,0.22297 -0.0132,-1.81652 0.49669,-3.61887 0.39619,-5.44705 -0.7193,-0.80087 -2.32463,1.32297 -2.35537,0.18394 0.43999,-0.95005 -1.16803,0.53926 -1.61859,0.64561 -0.78902,0.45036 -1.61727,0.8475 -2.49939,1.07759 0.3898,0.0496 0.77969,0.0986 1.16943,0.14867 z"
       style="fill:#0088aa;stroke:#0088aa;stroke-width:0.264999;stroke-linecap:round"
       id="path635" />
    <path
       d="m 248.39347,251.11937 c 0.54249,-1.10602 1.64697,-2.51476 1.6982,-3.50891 -1.27114,-0.26166 -1.46588,0.87945 -0.99916,1.79146 0.26572,1.2881 0.61052,2.56722 0.70302,3.88398 -0.19367,0.92119 -1.75025,0.79364 -2.07516,0.87272 1.09938,-0.12166 2.1846,0.30668 3.27287,0.006 0.99032,-0.2761 2.18155,-0.13627 3.04718,-0.64135 -1.94095,-0.27322 -3.8423,0.40368 -5.77331,0.5006 -0.72018,-0.12055 -1.16748,0.38537 -0.23932,0.50877 1.0649,-0.15096 2.24371,0.11677 3.17733,-0.55514 0.89689,-0.88924 -0.53637,-2.00719 -0.4533,-3.06958 -0.25812,-0.99149 -0.43268,-2.00981 -0.43915,-3.03671 -0.507,-0.29751 -2.34913,-1.26984 -1.71183,-0.13227 0.22171,1.21071 -1.17875,2.40678 -1.01007,3.36285 0.26614,0.0367 0.53561,-0.0585 0.8027,0.0178 z"
       style="fill:#0088aa;stroke:#0088aa;stroke-width:0.264999;stroke-linecap:round"
       id="path637" />
    <path
       d="m 280.55945,243.00462 c -1.20568,0.91899 -2.8381,2.63428 -1.75321,4.202 1.1925,1.18621 3.22768,1.02647 4.72193,0.6284 1.93851,-1.05188 2.58235,-3.52555 2.39158,-5.58702 -0.19186,-1.15779 -2.59584,-1.15366 -2.79601,-0.38694 0.45959,0.4789 2.3556,-0.1781 0.77941,-0.0493 -1.11459,-0.0926 0.45741,1.05906 0.016,1.72372 -0.0712,1.57047 -0.79236,3.26037 -2.28137,3.96562 -1.14619,0.44335 1.38438,0.20114 -0.0349,0.15363 -1.6746,-0.28002 -1.80149,-2.54875 -0.57994,-3.4574 0.34271,-0.37013 1.9965,-1.15139 0.57568,-1.0824 -0.34645,-0.0364 -0.69299,-0.073 -1.03925,-0.11033 z"
       style="fill:#0088aa;stroke:#0088aa;stroke-width:0.264999;stroke-linecap:round"
       id="path639" />
    <path
       d="m 262.19232,192.50525 c 2.46018,-2.30106 5.18633,-4.31472 8.0855,-6.02084 0.25478,-1.09 -1.87197,-0.25249 -2.38,0.22351 -2.37334,1.59197 -4.66792,3.30231 -6.83489,5.16833 -1.37448,0.8181 0.68905,0.44709 1.12939,0.629 z"
       style="fill:#ff0066;fill-opacity:1;stroke:#ff0066;stroke-width:0.264999;stroke-linecap:round;stroke-opacity:1"
       id="path645" />
    <path
       d="m 261.24786,184.64268 c 2.50178,2.23467 4.57386,4.89929 7.01068,7.19559 0.55527,0.69034 2.22814,0.67621 1.20835,-0.46401 -2.18879,-2.1687 -4.51289,-4.22609 -6.37081,-6.69961 -0.56237,-0.38688 -1.23833,0.0405 -1.84822,-0.032 z"
       style="fill:#ff0066;fill-opacity:1;stroke:#ff0066;stroke-width:0.264999;stroke-linecap:round;stroke-opacity:1"
       id="path647" />
    <path
       d="m 277.82107,185.52092 c -2.02182,0.64382 -3.34916,2.78363 -3.09925,4.88178 -0.0148,1.38471 0.93049,2.87444 2.48232,2.61437 1.35146,-0.006 2.78212,-0.2864 3.75499,-1.30163 0.97215,-0.96546 1.66367,-2.26165 1.87921,-3.6135 0.21534,-1.0917 -1.64203,-1.82717 -2.18058,-0.95494 0.12593,1.07951 0.2784,2.27764 -0.40322,3.22908 -0.5445,1.10788 -1.76123,1.87878 -2.77881,2.23428 1.23585,0.49032 -0.96806,-0.11228 -1.00323,-0.75802 -1.35641,-2.24338 0.11468,-5.58304 2.68597,-6.1019 -0.41015,-0.22199 -0.90296,-0.0981 -1.3374,-0.22952 z"
       style="fill:#ff0066;fill-opacity:1;stroke:#ff0066;stroke-width:0.264999;stroke-linecap:round;stroke-opacity:1"
       id="path649" />
    <path
       d="m 287.16745,184.77022 c 0.0493,1.60964 -0.44856,3.17296 -0.55676,4.7682 -0.26726,0.65221 -0.11195,2.45511 0.78423,2.03835 0.8088,-0.84082 0.48086,-2.07697 0.62036,-3.12062 0.0668,-1.23192 0.16423,-2.47163 0.47786,-3.6691 -0.44188,-0.006 -0.88384,-0.0118 -1.32569,-0.0168 z"
       style="fill:#ff0066;fill-opacity:1;stroke:#ff0066;stroke-width:0.264999;stroke-linecap:round;stroke-opacity:1"
       id="path651" />
    <path
       d="m 288.4152,183.66016 c 1.0141,-0.30898 2.3432,-0.70115 3.09567,0.32729 0.61532,1.28604 -0.53866,2.70392 -1.6836,3.22109 -0.64384,0.36186 -2.47132,0.3841 -1.1576,1.20168 1.02343,0.6637 1.29212,1.88543 1.96346,2.82491 0.38537,1.0361 2.27597,1.18886 1.43198,-0.21587 -0.51411,-1.02545 -1.07546,-2.024 -1.84988,-2.88032 -0.28858,-0.60043 1.35279,-0.4967 1.67109,-1.16543 1.0603,-0.73378 1.71938,-2.57856 0.49092,-3.4549 -1.57893,-0.56983 -3.35871,-0.4312 -4.95749,0.0137 0.33181,0.0426 0.66369,0.085 0.99545,0.12782 z"
       style="fill:#ff0066;fill-opacity:1;stroke:#ff0066;stroke-width:0.264999;stroke-linecap:round;stroke-opacity:1"
       id="path653" />
    <path
       d="m 299.98344,180.8615 c 0.17461,-0.11987 1.65017,-0.31127 0.86721,-0.27033 0.86674,0.48408 2.36258,0.75673 2.18508,2.07142 -0.44352,1.20093 -1.93404,1.19426 -2.89229,1.78423 -1.05287,0.48365 -2.0575,1.72069 -1.54978,2.91127 0.40744,1.23862 2.02859,0.99607 1.77131,-0.38639 -0.14648,-0.95275 0.44018,-1.80812 1.26685,-2.22728 0.90381,-0.57847 2.08764,-0.61858 2.8998,-1.33058 0.82899,-0.91139 -0.0896,-2.01976 -0.98562,-2.40817 -1.51575,-0.82694 -3.35487,-0.7343 -4.98359,-0.39299 0.23883,0.18273 0.99473,0.14826 1.42103,0.24882 z"
       style="fill:#ff0066;fill-opacity:1;stroke:#ff0066;stroke-width:0.264999;stroke-linecap:round;stroke-opacity:1"
       id="path655" />
    <path
       d="m 298.82867,193.66222 c -0.53586,0.0465 -1.09777,0.23133 -1.46264,0.64454 -0.29769,0.32842 -0.26546,0.87234 0.0484,1.17842 0.3492,0.3737 0.90173,0.38947 1.37784,0.36996 0.39388,-0.0198 0.78868,-0.0534 1.18265,-0.0207 0.83457,-0.007 1.71838,-0.42851 2.08272,-1.2103 0.15836,-0.27667 0.11304,-0.6367 -0.0981,-0.87264 -0.27231,-0.31423 -0.68077,-0.53085 -1.10077,-0.53422 -0.17135,0.0288 -0.28254,0.20142 -0.41349,0.30818 -0.32467,0.3294 -0.59967,0.74866 -0.63422,1.22036 -0.0963,0.27583 -0.40301,0.37437 -0.64133,0.49501 -0.14926,0.0216 -0.43448,0.26137 -0.13656,0.28021 0.32616,0.0104 0.65384,-0.0239 0.97901,0.007 -0.12575,0.10597 -0.48653,-0.005 -0.63972,-0.15026 -0.3165,-0.25892 -0.47207,-0.78748 -0.18882,-1.12464 0.18312,-0.21968 0.48426,-0.21876 0.74317,-0.25343 0.10972,8.6e-4 0.4421,-0.12762 0.17054,-0.16488 -0.4248,-0.0378 -0.84627,-0.11363 -1.26874,-0.17272 z"
       style="fill:#ff0066;fill-opacity:1;stroke:#ff0066;stroke-width:0.264999;stroke-linecap:round;stroke-opacity:1"
       id="path657" />
    <path
       d="m 27.535669,188.85479 c 26.572149,19.80988 55.046973,36.91712 81.479451,56.94191 5.97045,4.89161 27.51734,18.20717 11.52745,6.28889 -25.436892,-16.3816 -48.918987,-35.67356 -74.95039,-51.17255 -5.825776,-4.28586 -11.45707,-8.97757 -18.056511,-12.05825 z"
       style="fill:#ff0066;stroke:#ff0066;stroke-width:0.264999;stroke-linecap:round"
       id="path659" />
    <path
       d="m 28.452873,216.2286 c 1.098066,1.24154 2.002898,2.6556 3.259502,3.7533 1.028554,1.00493 1.955766,2.13641 3.12964,2.97779 0.319997,0.34852 1.346626,0.42689 0.835681,-0.26487 -1.044922,-1.13431 -2.275381,-2.08837 -3.28809,-3.25771 -0.737767,-0.83504 -1.461809,-1.70479 -2.012924,-2.67257 -0.149166,-0.74925 -0.918979,-0.62693 -1.493132,-0.56233 -0.143549,0.009 -0.287145,0.0177 -0.430677,0.0264 z"
       style="fill:#ff0066;stroke:#ff0066;stroke-width:0.264999;stroke-linecap:round"
       id="path661" />
    <path
       d="m 35.151189,215.77043 c -1.879046,1.79301 -3.461271,3.86037 -5.128379,5.84392 -0.341434,0.51039 -0.04486,1.71336 0.546962,0.8031 1.415976,-0.77181 2.134273,-2.30062 3.235105,-3.41573 0.897715,-1.04205 1.816311,-2.06644 2.687515,-3.13107 -0.447061,-0.0335 -0.894166,-0.0664 -1.341203,-0.10022 z"
       style="fill:#ff0066;stroke:#ff0066;stroke-width:0.264999;stroke-linecap:round"
       id="path663" />
    <path
       d="m 40.53936,217.25368 c -0.824318,0.88818 -1.42618,2.08888 -1.227131,3.32878 0.07822,0.93217 0.289211,1.97291 1.014788,2.61843 1.099709,0.63321 2.626936,0.335 3.364755,-0.71417 0.66929,-0.8824 1.081608,-1.96013 1.281046,-3.04131 0.123424,-0.92645 -0.619648,-1.76193 -1.542793,-1.78169 -0.647528,-0.18079 -1.200214,0.0796 -0.694538,0.75014 0.646076,1.41013 0.340717,3.25829 -0.806657,4.32581 -0.529554,0.0871 -0.816385,0.61201 -0.08314,0.48951 0.542777,-0.0707 -0.638093,-0.15977 -0.680943,-0.48205 -0.956722,-1.07388 -0.950949,-2.74451 -0.37579,-4.00211 0.05338,-0.53137 1.043238,-1.04373 0.768593,-1.41499 -0.336069,-0.0627 -0.685667,0.0107 -1.018191,-0.0763 z"
       style="fill:#ff0066;stroke:#ff0066;stroke-width:0.264999;stroke-linecap:round"
       id="path665" />
    <path
       d="m 47.850215,216.10243 c 0.300514,1.44434 0.09887,2.93694 0.367543,4.3865 0.0067,0.92963 -0.02424,1.94074 0.640073,2.67693 0.480596,0.77963 0.778299,-0.78857 0.771726,-1.17461 -0.169276,-1.32671 -0.338647,-2.65638 -0.462226,-3.99021 -0.243641,-0.61473 0.238904,-1.7271 -0.53873,-1.96613 -0.258719,0.0332 -0.51351,0.11848 -0.778386,0.0675 z"
       style="fill:#ff0066;stroke:#ff0066;stroke-width:0.264999;stroke-linecap:round"
       id="path667" />
    <path
       d="m 48.503773,216.31983 c 0.222689,-0.56654 1.638751,-1.14524 1.668141,-0.78865 1.198252,0.33421 0.804824,1.90835 0.03224,2.49943 -0.883441,0.40544 -1.296653,1.41297 -0.399763,2.0792 0.97566,1.03162 1.639386,2.46981 3.06997,2.96702 0.947436,0.60785 -0.0086,-1.05292 -0.349616,-1.38802 -0.607552,-0.78566 -1.680105,-1.74121 -1.480775,-2.76923 0.545983,-0.6236 1.32279,-1.1573 1.385645,-2.06456 0.120416,-1.07572 -1.069809,-1.55276 -1.959945,-1.55555 -0.968346,-0.081 -2.095075,-0.0129 -2.76157,0.79637 -0.23406,0.33462 0.626785,0.1285 0.795668,0.22399 z"
       style="fill:#ff0066;stroke:#ff0066;stroke-width:0.264999;stroke-linecap:round"
       id="path669" />
    <path
       d="m 57.646786,216.15222 c 0.628724,-0.26787 1.926548,-0.54076 2.224285,-0.42381 -0.470417,0.0106 -0.650086,0.12635 -0.133927,0.32302 0.846639,0.73961 0.330782,2.18809 -0.710224,2.43458 -0.760854,0.25041 -1.778384,0.51335 -1.864403,1.46822 -0.252967,0.87609 0.37967,1.77534 1.268306,1.8658 0.852932,0.0607 0.822698,-0.93668 0.707177,-1.52124 -0.07428,-0.96599 0.99767,-1.28791 1.732054,-1.51674 0.942566,-0.31269 1.459589,-1.51519 0.892235,-2.37061 -0.46453,-0.78955 -1.439631,-0.96995 -2.282569,-0.92742 -1.066206,-0.0297 -2.146925,0.11945 -3.140546,0.51743 0.435866,0.0503 0.871741,0.10052 1.307612,0.15077 z"
       style="fill:#ff0066;stroke:#ff0066;stroke-width:0.264999;stroke-linecap:round"
       id="path671" />
    <path
       d="m 57.221548,226.26434 c 1.247162,0.28465 2.537868,0.16611 3.795184,0.022 1.071514,-0.57872 -0.224426,-1.85767 -1.07516,-1.32441 -0.644667,-0.0798 -1.310293,0.14198 -1.312061,0.83351 -0.416331,0.45623 0.771816,0.10873 1.033512,0.21931 0.767078,0.0223 -0.624867,-0.0398 -0.884843,0.0441 -0.520003,0.0599 -1.03517,0.15754 -1.556632,0.20546 z"
       style="fill:#ff0066;stroke:#ff0066;stroke-width:0.264999;stroke-linecap:round"
       id="path673" />
  </g>
</svg>
