<?xml version="1.0" encoding="UTF-8" standalone="no"?>
<svg
   xmlns:dc="http://purl.org/dc/elements/1.1/"
   xmlns:cc="http://creativecommons.org/ns#"
   xmlns:rdf="http://www.w3.org/1999/02/22-rdf-syntax-ns#"
   xmlns:svg="http://www.w3.org/2000/svg"
   xmlns="http://www.w3.org/2000/svg"
   xmlns:sodipodi="http://sodipodi.sourceforge.net/DTD/sodipodi-0.dtd"
   xmlns:inkscape="http://www.inkscape.org/namespaces/inkscape"
   sodipodi:docname="da-mean-full.svg"
   inkscape:version="1.0 (4035a4fb49, 2020-05-01)"
   id="svg8"
   version="1.1"
   viewBox="0 0 317.5 158.75"
   height="600"
   width="1200">
  <defs
     id="defs2" />
  <sodipodi:namedview
     inkscape:document-rotation="0"
     inkscape:window-maximized="1"
     inkscape:window-y="19"
     inkscape:window-x="0"
     inkscape:window-height="1061"
     inkscape:window-width="1920"
     units="px"
     showgrid="false"
     inkscape:current-layer="layer1"
     inkscape:document-units="mm"
     inkscape:cy="307.02346"
     inkscape:cx="605.24332"
     inkscape:zoom="1.4"
     inkscape:pageshadow="2"
     inkscape:pageopacity="0.0"
     borderopacity="1.0"
     bordercolor="#666666"
     pagecolor="#ffffff"
     id="base" />
  <metadata
     id="metadata5">
    <rdf:RDF>
      <cc:Work
         rdf:about="">
        <dc:format>image/svg+xml</dc:format>
        <dc:type
           rdf:resource="http://purl.org/dc/dcmitype/StillImage" />
        <dc:title />
      </cc:Work>
    </rdf:RDF>
  </metadata>
  <g
     transform="translate(0,-217.62501)"
     id="layer1"
     inkscape:groupmode="layer"
     inkscape:label="Layer 1">
    <path
       d="m 9.9950497,349.51806 c 1.2236943,-0.064 2.4405733,-0.21106 3.6576063,-0.34818 1.378344,-0.1732 2.767049,-0.22164 4.154449,-0.25416 1.793154,-0.01 -0.762751,0.004 -0.885777,0.01 -0.16922,0.008 0.338182,0.021 0.507041,0.0346 0.490726,0.0396 0.973466,0.1084 1.459006,0.188 1.056816,0.1916 2.115655,0.37048 3.178094,0.528 1.537782,0.2471 3.08913,0.37336 4.643073,0.45812 2.584913,0.0928 5.172256,0.0888 7.758511,0.099 2.647381,-0.002 5.294104,0.0538 7.940483,0.1202 3.922717,0.1236 7.848085,0.0868 11.771587,0.025 4.350449,-0.097 8.701938,-0.1278 13.052652,-0.20824 4.778603,-0.0748 9.555423,-0.22532 14.332544,-0.36092 4.624424,-0.115 9.242304,-0.38272 13.86168,-0.6143 4.700921,-0.23576 9.405871,-0.359 14.112061,-0.4123 4.60267,0.004 9.20331,-0.1372 13.80321,-0.27928 4.91295,-0.1272 9.81893,-0.42852 14.72069,-0.77336 4.8174,-0.35796 9.626,-0.81598 14.44397,-1.1674 5.28915,-0.40424 10.59123,-0.57908 15.89285,-0.7132 5.18543,-0.1418 10.37269,-0.125 15.55926,-0.0904 6.5183,0.0602 13.03404,0.2602 19.55131,0.37824 6.77782,0.1148 13.55662,0.1408 20.33474,0.23124 6.3595,0.0888 12.71646,0.29748 19.0741,0.4684 5.81194,0.1528 11.62064,0.41238 17.42546,0.73476 4.67988,0.22416 9.32466,0.82864 13.9565,1.5051 3.18378,0.50156 6.39184,0.82442 9.61372,0.90446 2.38248,-0.197 4.80392,0.1594 7.18842,-0.1004 0.1812,-0.02 0.22356,-0.0346 0.1892,-0.23982 -0.0244,-0.145 -0.016,-0.30664 -0.0954,-0.43052 -0.032,-0.0502 -0.119,0.001 -0.1784,0.002 -0.62894,0.98578 -0.137,0.5869 -1.87008,0.33564 0,0 0.187,-0.0278 0.187,-0.0278 v 0 c -2.2415,-0.29686 -1.63534,-0.82752 -2.39948,0.28924 -0.63352,0.018 0.0732,-0.67536 -0.35752,-0.59002 -1.20812,0.1618 -4.35492,0.30874 0.7927,0.21646 -3.41964,0.0396 -6.82348,-0.28166 -10.20672,-0.77176 -2.21566,-0.29522 -4.43068,-0.61156 -6.65362,-0.84824 -1.74502,-0.1858 -3.33784,-0.3088 -5.09194,-0.42786 -0.9189,-0.0624 -1.83854,-0.1134 -2.7578,-0.1702 -5.8837,-0.31228 -11.77234,-0.52508 -17.66144,-0.70498 -6.4397,-0.1468 -12.87854,-0.3334 -19.31922,-0.43278 -6.83876,-0.0602 -13.6778,-0.1026 -20.51612,-0.20138 -6.42832,-0.1254 -12.85438,-0.34268 -19.28339,-0.42258 -6.4832,-0.0418 -12.96776,-0.0458 -19.45002,0.0866 -5.32498,0.1272 -10.64877,0.30952 -15.96128,0.71272 -4.84732,0.36094 -9.68971,0.7808 -14.53613,1.15292 -4.83753,0.34672 -9.67772,0.6764 -14.5274,0.79452 -4.64855,0.1374 -9.29758,0.2386 -13.94833,0.25318 -4.64219,0.0736 -9.283257,0.21578 -13.920317,0.44924 -4.651338,0.22134 -9.302328,0.45816 -13.957116,0.59592 -4.754509,0.1548 -9.509331,0.30458 -14.266144,0.36832 -4.387782,0.056 -8.775288,0.1278 -13.162968,0.1906 -3.287484,0.042 -4.079409,0.055 -7.577668,-0.044 -2.672015,-0.0698 -5.344498,-0.138 -8.017739,-0.1132 -2.563835,-0.002 -5.128624,-0.002 -7.691025,-0.0994 -1.556004,-0.068 -3.109828,-0.1748 -4.647482,-0.43542 -1.053726,-0.1604 -2.107194,-0.32324 -3.153557,-0.5273 -1.751385,-0.30764 -3.517059,-0.32806 -5.297166,-0.2426 -1.374723,0.0412 -2.751107,0.0958 -4.115761,0.27818 -1.197271,0.1408 -2.3947812,0.30468 -3.6010602,0.34162 0,0 1.9463329,0.3003 1.9463329,0.3003 z"
       id="path192"
       style="opacity:1;fill:#000000;stroke:#000000;stroke-width:0.529998;stroke-linecap:round" />
    <path
       d="m 280.88507,341.5817 c 1.16084,0.49432 2.14884,1.30002 3.13242,2.07342 1.36672,1.19426 2.97428,2.01132 4.61766,2.74844 2.06838,0.8788 4.26774,1.34294 6.47334,1.71688 2.61544,0.42518 5.26876,0.47044 7.90962,0.59576 1.7477,0.0738 3.48736,0.245 5.22552,0.4319 0.1844,0.0236 0.39346,0.0482 0.5801,0.0786 0.1218,0.02 0.20456,0.0432 0.20442,0.0384 -0.018,-0.62776 0.0716,-0.56344 -0.29522,-0.53988 -1.11476,0.1748 -2.20084,0.48328 -3.2771,0.81554 -2.05822,0.69778 -4.1129,1.4054 -6.19112,2.04172 -2.38396,0.7117 -4.75724,1.41492 -7.05636,2.37148 -1.4789,0.6622 -2.92188,1.43506 -4.22518,2.40422 -0.75618,0.5623 -1.07282,0.88024 -1.76162,1.5066 -1.14414,1.09324 -2.23986,2.23784 -3.09454,3.57426 -0.02,0.56362 0.42924,0.7636 0.78358,1.10318 0,0 0.1886,0.01 0.1886,0.01 v 0 c 0.76836,-0.27788 1.58748,-0.42858 2.27872,-0.89212 0.28566,-0.2896 0.59284,-0.5951 0.86384,-0.89674 0.78032,-0.86854 1.45764,-1.82982 2.32316,-2.62126 0.69688,-0.64232 0.9296,-0.88428 1.68892,-1.47018 1.24296,-0.95914 2.60954,-1.739 4.0553,-2.3494 2.31764,-0.91782 4.6905,-1.67592 7.09362,-2.33814 2.15872,-0.65074 4.29754,-1.36352 6.4589,-2.00478 1.1237,-0.31784 2.26184,-0.64446 3.43478,-0.70178 0.38154,-0.001 0.40034,0.0828 0.41544,-0.55862 0.001,-0.0468 -0.0934,-0.006 -0.1402,-0.008 -0.73798,-0.0304 0.33568,0.0222 -0.60944,-0.0234 -0.1616,-0.008 -0.32316,-0.016 -0.48474,-0.0248 -1.94206,-0.1198 -3.8836,-0.24882 -5.82666,-0.35156 -2.64792,-0.1164 -5.3065,-0.1666 -7.93244,-0.56018 -0.9673,-0.1598 -1.55544,-0.24322 -2.50948,-0.45532 -1.38528,-0.30796 -2.74176,-0.73954 -4.08658,-1.18792 -0.84454,-0.31598 -1.08352,-0.38166 -1.8897,-0.77646 -1.07766,-0.52774 -2.07116,-1.21126 -3.06544,-1.87752 -1.04574,-0.73454 -2.06736,-1.51862 -3.20158,-2.11458 0,0 -2.0806,0.24216 -2.0806,0.24216 z"
       id="path194"
       style="opacity:1;fill:#000000;stroke:#000000;stroke-width:0.529998;stroke-linecap:round" />
    <path
       d="m 286.66215,324.214 c 1.05494,-0.77566 2.35898,-1.10178 3.63578,-1.2804 1.63202,-0.02 -0.61052,0.002 -0.85668,0.0526 -0.1446,0.0302 0.2845,0.0856 0.41506,0.1544 0.411,0.21692 0.57298,0.53254 0.74348,0.94046 0.2381,1.1807 -0.27814,2.1494 -0.83024,3.14918 -0.75432,1.27024 -1.77042,2.34286 -2.83672,3.35264 -0.55332,0.57216 -1.22288,1.00588 -1.84032,1.50066 -0.1948,0.156 -0.67214,0.4294 -0.59096,0.8025 0.0336,0.1548 0.1842,0.25774 0.2763,0.3866 -0.0562,0.0974 -0.1124,0.1948 -0.1684,0.29222 0,0 0.1888,0.01 0.1888,0.01 v 0 c 0.056,-0.0954 0.112,-0.191 0.168,-0.28638 0.60058,-0.1592 1.2864,-0.3073 1.85392,-0.58122 0.92906,-0.4484 1.63844,-1.26626 2.38996,-1.94394 1.01402,-1.05044 2.05496,-2.1246 2.7376,-3.42824 0.5151,-1.04764 0.94772,-2.1512 0.73358,-3.34 -0.0654,-0.1436 -0.114,-0.29628 -0.1966,-0.43078 -0.8463,-1.37782 -2.67186,-0.98384 -4.06088,-0.89706 -1.27818,0.23254 -2.61388,0.57482 -3.65512,1.38634 0,0 1.89344,0.1604 1.89344,0.1604 z"
       id="path196"
       style="opacity:1;fill:#000000;stroke:#000000;stroke-width:0.529998;stroke-linecap:round" />
    <path
       d="m 295.43541,330.50192 c -0.1388,-0.004 -0.5549,-0.008 -0.41616,-0.01 3.95482,-0.0658 2.29892,0.0868 1.41922,-0.115 -0.3906,-0.0896 -0.41488,-0.1144 -0.79024,-0.25852 -0.72182,-0.32454 -1.34802,-0.81564 -1.8937,-1.38304 -0.44938,-0.5562 -0.70288,-1.22724 -0.66186,-1.94974 0.01,-0.1888 0.0548,-0.37414 0.0822,-0.56124 0.4254,-1.68492 1.71012,-2.8742 3.01148,-3.93044 0.78768,-0.63868 0.8175,-0.31328 0.23304,-0.95226 0,0 -0.1876,-0.0222 -0.1876,-0.0222 v 0 c -2.2972,0.2479 -1.38728,-0.1168 -2.8494,0.7274 -0.99232,0.83988 -1.85078,1.67444 -2.5535,2.78082 -0.1496,0.23562 -0.30144,0.47232 -0.41532,0.72718 -0.0884,0.1978 -0.125,0.41472 -0.1874,0.62206 -0.0648,0.36648 -0.1638,0.7953 -0.1422,1.17368 0.0334,0.58268 0.32652,1.13992 0.64086,1.61364 0.6066,0.65986 1.31254,1.1699 2.1584,1.48682 0.26536,0.1056 0.5514,0.22904 0.8288,0.30344 0.2767,0.0742 0.56162,0.119 0.84854,0.1222 2.50762,0.0268 1.99244,0.0472 3.20164,-0.012 0,0 -2.3268,-0.36302 -2.3268,-0.36302 z"
       id="path198"
       style="opacity:1;fill:#000000;stroke:#000000;stroke-width:0.529998;stroke-linecap:round" />
    <path
       d="m 107.35231,334.22744 c -12.125371,-7.7457 12.47976,-10.93 2.35141,-0.57036 -0.78909,0.1026 -1.78506,-0.22232 -2.35141,0.57036 z"
       style="fill:#00aad4;stroke:#00aad4;stroke-width:0.529166px;stroke-linecap:butt;stroke-linejoin:miter;stroke-opacity:1"
       id="path200" />
    <path
       d="m 133.84234,315.30522 c -10.0581,1.7008 5.41071,11.5889 3.98261,1.86046 -0.56883,-1.41802 -2.43688,-3.02492 -3.98261,-1.86046 z"
       style="fill:#00aad4;stroke:#00aad4;stroke-width:0.529166px;stroke-linecap:butt;stroke-linejoin:miter;stroke-opacity:1"
       id="path206" />
    <path
       d="m 116.97399,301.26328 c -11.24685,7.09122 14.71876,6.24728 2.1794,-0.26302 l -1.09654,0.1746 z"
       style="fill:#00aad4;stroke:#00aad4;stroke-width:0.529166px;stroke-linecap:butt;stroke-linejoin:miter;stroke-opacity:1"
       id="path212" />
    <path
       d="m 158.83519,319.6629 c -7.45663,-11.14722 16.44523,-3.39728 2.63763,0.83238 l -1.33145,-0.41734 z"
       style="fill:#00aad4;stroke:#00aad4;stroke-width:0.529166px;stroke-linecap:butt;stroke-linejoin:miter;stroke-opacity:1"
       id="path218" />
    <path
       d="m 182.32363,292.1084 c -11.45966,3.7709 10.56159,11.49774 5.45421,1.12146 -1.59347,-1.22332 -3.76732,-0.1238 -5.45421,-1.12146 z"
       style="fill:#00aad4;stroke:#00aad4;stroke-width:0.529166px;stroke-linecap:butt;stroke-linejoin:miter;stroke-opacity:1"
       id="path224" />
    <path
       d="m 146.30646,277.74526 c -9.33934,7.34346 15.8364,6.06686 4.8187,-0.56466 -1.47694,-0.48816 -3.80414,-1.09494 -4.8187,0.56466 z"
       style="fill:#00aad4;stroke:#00aad4;stroke-width:0.529166px;stroke-linecap:butt;stroke-linejoin:miter;stroke-opacity:1"
       id="path230" />
    <path
       d="m 74.544556,297.6696 c -12.319781,0.3847 1.574132,14.13332 4.195456,3.06616 -0.0152,-1.97818 -2.110654,-4.43438 -4.195456,-3.06616 z"
       style="fill:#00aad4;stroke:#00aad4;stroke-width:0.529166px;stroke-linecap:butt;stroke-linejoin:miter;stroke-opacity:1"
       id="path236" />
    <path
       d="m 149.92788,295.94618 c -10.95177,3.38364 10.81933,11.47678 5.36348,0.55988 -1.52551,-1.00812 -3.67829,-1.40742 -5.36348,-0.55988 z"
       style="fill:#00aad4;stroke:#00aad4;stroke-width:0.529166px;stroke-linecap:butt;stroke-linejoin:miter;stroke-opacity:1"
       id="path242" />
    <path
       d="m 116.00409,271.02766 c -13.11555,0.84132 6.58425,17.2361 4.05031,3.33308 -0.45245,-1.77442 -1.90641,-3.92816 -4.05031,-3.33308 z"
       style="fill:#00aad4;stroke:#00aad4;stroke-width:0.529166px;stroke-linecap:butt;stroke-linejoin:miter;stroke-opacity:1"
       id="path248" />
    <path
       d="m 141.57334,234.05014 c -10.5912,2.47998 5.65202,14.37532 6.21374,4.10392 -1.01868,-2.4188 -3.46151,-4.5019 -6.21374,-4.10392 z"
       style="fill:#00aad4;stroke:#00aad4;stroke-width:0.529166px;stroke-linecap:butt;stroke-linejoin:miter;stroke-opacity:1"
       id="path254" />
    <path
       d="m 30.891277,266.4801 c -7.29319,11.60842 18.26424,3.33542 2.866938,-0.57136 l -1.464559,0.1366 z"
       style="fill:#00aad4;stroke:#00aad4;stroke-width:0.529166px;stroke-linecap:butt;stroke-linejoin:miter;stroke-opacity:1"
       id="path260" />
    <path
       d="m 224.23765,263.15264 c -11.68914,-1.15922 1.35704,13.46876 3.58242,2.9383 0.4579,-2.03752 -1.64028,-4.16724 -3.58242,-2.9383 z"
       style="fill:#00aad4;stroke:#00aad4;stroke-width:0.529166px;stroke-linecap:butt;stroke-linejoin:miter;stroke-opacity:1"
       id="path266" />
    <path
       d="m 260.07721,299.48862 c -10.41004,3.07436 5.5682,12.34758 5.5048,2.09992 -0.24026,-1.68874 -5.51982,-5.90486 -5.5048,-2.09992 z"
       style="fill:#00aad4;stroke:#00aad4;stroke-width:0.529166px;stroke-linecap:butt;stroke-linejoin:miter;stroke-opacity:1"
       id="path272" />
    <path
       d="m 162.63992,254.9005 c -9.61036,1.4292 5.29566,11.64136 2.95408,1.6339 -0.44414,-1.0563 -1.7303,-2.15446 -2.95408,-1.6339 z"
       style="fill:#00aad4;stroke:#00aad4;stroke-width:0.529166px;stroke-linecap:butt;stroke-linejoin:miter;stroke-opacity:1"
       id="path284" />
    <path
       d="m 11.722833,340.9895 c 0.06967,0.77082 0.07435,1.54446 0.109408,2.31712 0.03645,0.73574 0.111266,1.46932 0.193288,2.20134 0.0386,0.69006 0.09268,1.37914 0.120222,2.06974 0.0185,0.73744 0.0084,1.47496 0.0032,2.2125 0.017,0.75644 -0.03269,1.50972 -0.1203,2.26054 -0.09666,0.58636 -0.127448,1.17846 -0.168646,1.7701 -0.0069,0.71672 -0.04805,1.43186 -0.07592,2.1477 -0.02333,0.59206 -0.06048,1.18194 -0.09318,1.77336 -0.03371,0.36336 -0.0257,0.72728 -0.03633,1.09136 0.04556,0.0732 -0.04225,0.22546 9.53e-4,0.29758 0.04589,0.0766 0.25507,0.0842 0.28892,0.0864 0.205039,0.014 0.410725,0.012 0.616086,0.018 0.209617,0.006 0.419235,0.012 0.628852,0.018 0,0 0.187352,-0.0248 0.187352,-0.0248 v 0 c 0.181394,-10e-4 0.362788,-0.002 0.544182,-0.004 0.204259,-0.008 0.408924,-0.012 0.612776,-0.0266 0.02078,-0.002 0.24015,-0.01 0.277063,-0.0884 0.03498,-0.0738 -0.07405,-0.21852 -0.03448,-0.29378 -0.04776,-0.35334 -0.05027,-0.70822 -0.04622,-1.0644 0.0087,-0.59202 0.03144,-1.18208 0.05463,-1.77376 0.02109,-0.71406 0.01522,-1.42934 0.08476,-2.14148 0.02336,-0.5866 0.08127,-1.17142 0.13071,-1.7563 0.06723,-0.76086 0.08939,-1.52524 0.103104,-2.28878 0.0051,-0.7436 -0.0047,-1.48694 -0.05913,-2.22892 -0.0416,-0.70014 -0.05906,-1.40156 -0.214082,-2.08936 -0.09548,-0.72594 -0.222048,-1.44848 -0.256205,-2.18154 -0.04501,-0.7712 -0.107044,-1.5412 -0.08951,-2.31444 0,0 -2.761501,0.012 -2.761501,0.012 z"
       id="path318"
       style="opacity:1;fill:#000000;stroke:#000000;stroke-width:0.529998;stroke-linecap:round" />
    <path
       d="m 143.0556,340.82338 c -0.14056,0.9407 -0.15478,1.89542 -0.23089,2.84294 -0.0729,0.8395 -0.1293,1.68026 -0.17974,2.52136 -0.057,0.8099 -0.0976,1.6204 -0.10676,2.43226 -0.063,1.00442 -0.18232,2.0044 -0.33387,2.99904 -0.10988,0.748 -0.23179,1.49454 -0.33856,2.24298 -0.009,0.0604 -0.0401,0.1218 -0.0264,0.1814 0.0761,0.32996 0.93979,0.28342 0.99983,0.29254 0.0543,0.008 0.10306,0.0382 0.15458,0.0572 0,0 0.1879,-0.0202 0.1879,-0.0202 v 0 c -0.0142,-0.016 -0.0644,-0.0468 -0.0427,-0.0502 0.15724,-0.0252 0.84814,0.0566 0.98007,-0.25798 0.0232,-0.0554 0.005,-0.12 0.008,-0.18 0.044,-0.7482 0.11454,-1.49282 0.21434,-2.236 0.12812,-1.00432 0.28596,-2.00738 0.33604,-3.01952 0.0607,-0.80854 0.0465,-1.6188 0.0948,-2.42816 0.055,-0.84068 0.0892,-1.68266 0.10258,-2.52506 0.013,-0.94612 0.069,-1.89124 0.0661,-2.83708 0,0 -1.88506,-0.016 -1.88506,-0.016 z"
       id="path320"
       style="opacity:1;fill:#00aad4;fill-opacity:1;stroke:#00aad4;stroke-width:0.529998;stroke-linecap:round;stroke-opacity:1" />
    <path
       d="m 111.18953,368.51424 c 1.27974,-0.24718 2.44351,-0.79376 3.57113,-1.42704 1.43505,-0.81478 2.49248,-2.09416 3.42059,-3.42952 0.86344,-1.37762 1.45222,-2.90066 2.00972,-4.4212 0.26598,-1.0247 0.74898,-1.96834 1.02052,-2.9893 0.0237,-0.0406 0.11816,-0.1212 0.0712,-0.1216 -0.63194,-0.006 -1.27207,-0.014 -1.89306,0.1036 -0.0867,0.016 -0.0284,0.1742 -0.0408,0.26162 -0.0685,0.48392 -0.1423,0.96674 -0.21503,1.45012 -0.25459,1.5868 -0.13778,3.18954 0.10302,4.76868 0.12602,0.43842 0.54029,2.12438 1.18172,2.15032 0.70141,0.0284 1.40363,-0.0312 2.10543,-0.0468 0.12318,-0.0828 0.25766,-0.151 0.36956,-0.24844 0.85184,-0.74236 1.41548,-2.22722 1.8513,-3.24126 0.38019,-0.97356 0.68579,-1.97478 1.05093,-2.95364 0.24173,-0.64806 0.5041,-1.28182 0.72477,-1.93784 -0.66587,0.0922 0.41606,-0.4782 0.24378,-0.45928 -0.67527,0.0742 -1.392,0.0486 -2.01154,0.32734 -0.17506,0.0788 0.007,0.38392 0.004,0.57584 -0.005,0.24574 -0.0192,0.49122 -0.0289,0.73684 -0.005,0.28728 -0.01,0.57456 -0.0144,0.86184 0.0596,1.88714 -0.052,3.79172 0.17468,5.67144 0.0518,0.42978 0.14022,0.85432 0.21034,1.28148 0.23695,1.23238 0.5803,2.4502 0.99379,3.63522 0.20555,0.58904 0.402,1.2142 0.91063,1.6328 0.28549,0.23496 0.64779,0.35668 0.97168,0.53502 0.13284,0.147 0.26566,0.29394 0.39849,0.44092 0,0 0.18852,-0.014 0.18852,-0.014 v 0 c -0.1174,-0.1468 -0.23478,-0.29366 -0.35217,-0.4405 0.0949,-0.1962 0.26041,-0.37202 0.28456,-0.58862 0.0506,-0.45336 -0.37397,-1.28364 -0.51241,-1.62998 -0.46688,-1.168 -0.85956,-2.3583 -1.08009,-3.6008 -0.11832,-0.72408 -0.29982,-1.77136 -0.37926,-2.50506 -0.15846,-1.46344 -0.19402,-2.94086 -0.0908,-4.40914 0.0307,-0.32788 0.11068,-1.23634 0.16234,-1.59146 0.028,-0.193 0.27987,-0.48212 0.10836,-0.57492 -0.58298,-0.31542 -1.29601,-0.27884 -1.94402,-0.41826 0.006,0.0462 0.0247,0.0924 0.0192,0.1386 -0.0138,0.1158 -0.0508,0.22746 -0.0762,0.3412 -0.16726,0.64328 -0.29683,1.30056 -0.47514,1.94014 -0.27997,1.00422 -0.65473,1.98378 -1.07291,2.93748 -0.46981,1.02322 -1.06754,2.45484 -2.02897,3.12332 -0.11214,0.078 -0.24403,0.1228 -0.36604,0.1842 0.46988,0.0246 0.93915,0.0676 1.40963,0.0738 0.11812,0.002 -0.24184,-0.01 -0.34928,-0.0598 -0.1267,-0.0578 -0.2346,-0.1538 -0.33333,-0.25202 -0.44946,-0.44732 -0.67508,-1.02272 -0.78559,-1.63688 -0.20576,-1.61094 -0.19384,-3.12176 0.13028,-4.71878 0.0695,-0.3447 0.14012,-0.72822 0.23296,-1.06978 0.0337,-0.1238 0.0778,-0.24458 0.11694,-0.3668 0.0283,-0.0882 0.17502,-0.2412 0.0853,-0.26472 -0.59296,-0.1556 -1.21637,-0.1694 -1.82895,-0.1926 -0.0412,-0.002 0.003,0.0824 0.005,0.1234 -0.27638,0.98904 -0.31689,2.02664 -0.71197,2.98638 -0.52432,1.5165 -1.11415,3.01354 -1.95015,4.38998 -0.13208,0.21614 -0.25418,0.4387 -0.39624,0.64842 -0.74217,1.0956 -1.71441,2.03612 -2.83772,2.7334 -1.06184,0.60342 -2.16281,1.17268 -3.3703,1.4169 0,0 1.01566,0.1392 1.01566,0.1392 z"
       id="path322"
       style="opacity:1;fill:#00aad4;fill-opacity:1;stroke:#00aad4;stroke-width:0.529998;stroke-linecap:round;stroke-opacity:1" />
    <path
       d="m 131.41304,357.72162 c 0.0589,0.0828 0.1138,0.1684 0.17676,0.24814 0.36739,0.46488 0.25649,0.24032 0.60551,0.80236 0.36112,0.58154 0.59333,1.19962 0.83149,1.8379 0.52866,1.48184 0.69454,3.03972 0.70864,4.60298 0.0209,1.50878 -0.46838,2.94196 -0.78845,4.39758 -0.0467,0.31498 -0.16064,0.60914 -0.28017,0.90146 -0.0184,0.045 -0.0909,0.0998 -0.0566,0.1342 0.0655,0.0658 0.17516,0.0678 0.26749,0.0774 0.31696,0.033 0.63647,0.0332 0.9547,0.0498 0,0 0.44059,0.016 0.44059,0.016 v 0 c 0.3262,-0.006 0.65328,0.008 0.97859,-0.016 0.10324,-0.008 0.2175,-0.018 0.30011,-0.0802 0.0363,-0.0274 -0.01,-0.0904 -0.0142,-0.1358 -0.0288,-0.30242 -0.0521,-0.60434 -0.004,-0.90724 0.11578,-1.47724 0.1004,-2.96146 0.19016,-4.44034 -0.0571,-1.5877 -0.17924,-3.18954 -0.80181,-4.67246 -0.40255,-0.89692 -0.95403,-2.03012 -1.69991,-2.698 -0.10312,-0.0924 -0.22387,-0.1628 -0.3358,-0.24424 0,0 -1.47253,0.1278 -1.47253,0.1278 z"
       id="path324"
       style="opacity:1;fill:#00aad4;fill-opacity:1;stroke:#00aad4;stroke-width:0.529998;stroke-linecap:round;stroke-opacity:1" />
    <path
       d="m 134.00161,371.50808 c 0.61773,-0.77554 1.38942,-1.4912 2.29382,-1.92376 0.26831,-0.1284 0.55431,-0.2158 0.83147,-0.3237 1.41306,-0.46922 2.86698,-0.84178 4.348,-1.01202 0.0198,-0.001 0.68486,-0.0344 0.77581,-0.0746 0.0289,-0.012 -0.001,-0.0632 -0.002,-0.0946 0.0672,-0.0226 0.13443,-0.045 0.20163,-0.0676 0,0 -0.18678,-0.0288 -0.18678,-0.0288 v 0 c -1.063,-0.0368 -2.12708,-0.1682 -3.1903,-0.0798 -1.38559,0.2399 -2.75216,0.61422 -4.06674,1.11272 -0.59671,0.30764 -0.79004,0.37484 -1.31993,0.76972 -0.60628,0.4518 -1.05624,1.05708 -1.58384,1.5914 0,0 1.8983,0.1312 1.8983,0.1312 z"
       id="path326"
       style="opacity:1;fill:#00aad4;fill-opacity:1;stroke:#00aad4;stroke-width:0.529998;stroke-linecap:round;stroke-opacity:1" />
    <path
       d="m 134.96684,365.17908 c 0.54524,-0.55802 1.14366,-1.0849 1.85265,-1.4271 0.59649,-0.28792 1.01858,-0.38178 1.66182,-0.57232 1.01967,-0.3398 2.07906,-0.51346 3.12837,-0.7266 0.48084,-0.0976 0.42274,0.0408 0.45874,-0.23006 -0.0777,-0.018 -0.15532,-0.0354 -0.23299,-0.0532 0,0 0.18672,-0.0292 0.18672,-0.0292 v 0 c -0.32754,-0.0222 -0.65509,-0.0442 -0.98263,-0.0664 -0.306,1.6e-4 -0.61236,-0.014 -0.91799,4.6e-4 -1.26515,0.0622 -2.48672,0.5237 -3.69639,0.85016 -0.24672,0.103 -0.4986,0.1944 -0.74015,0.309 -0.9353,0.44374 -1.73606,1.11056 -2.49242,1.80652 0,0 1.77428,0.1388 1.77428,0.1388 z"
       id="path328"
       style="opacity:1;fill:#00aad4;fill-opacity:1;stroke:#00aad4;stroke-width:0.529998;stroke-linecap:round;stroke-opacity:1" />
    <path
       d="m 133.37987,360.27612 c 1.3502,-0.11 2.48801,-0.45748 3.71991,-1.0025 0.51845,-0.3371 1.03846,-0.69834 1.48607,-1.12878 0.11296,-0.1086 0.24756,-0.2086 0.31259,-0.35118 0.0491,-0.1076 0.068,-0.25204 0.009,-0.3547 -0.0916,-0.1602 -0.27944,-0.24122 -0.41915,-0.36184 -0.0433,-0.098 -0.0867,-0.196 -0.13006,-0.2939 0,0 -0.18828,-0.016 -0.18828,-0.016 v 0 c -0.24409,0.0746 -0.48818,0.149 -0.73227,0.22366 -0.72976,0.1628 -1.13623,0.1878 -1.76752,0.53254 -0.25306,0.1382 -0.63628,0.51112 -0.85795,0.68922 -0.1573,0.1264 -0.31939,0.24682 -0.48354,0.36416 -0.16658,0.119 -0.33889,0.22994 -0.50833,0.34492 -0.1406,0.1014 -0.2733,0.21464 -0.42181,0.30396 -0.62317,0.3748 -1.34806,0.56296 -2.04067,0.75914 0,0 2.02172,0.29154 2.02172,0.29154 z"
       id="path330"
       style="opacity:1;fill:#00aad4;fill-opacity:1;stroke:#00aad4;stroke-width:0.529998;stroke-linecap:round;stroke-opacity:1" />
    <path
       d="m 146.33833,369.0233 c 0.97369,-1.10292 1.76396,-2.36008 2.48435,-3.63894 0.54315,-1.10582 1.12811,-2.1938 1.53685,-3.35956 0.21928,-0.6254 0.40676,-1.26156 0.61919,-1.88932 0.22404,-0.86762 0.55697,-1.70044 0.83384,-2.55094 0.12912,-0.39662 0.22107,-0.80024 0.37837,-1.18682 0.0172,-0.014 0.074,-0.0448 0.0514,-0.044 -0.94543,0.034 -1.90262,-0.02 -2.83446,0.144 -0.11488,0.02 0.009,0.23316 0.0184,0.3494 0.0544,0.66248 0.12818,1.32434 0.1886,1.98636 0.0367,0.2708 0.0551,0.54474 0.11008,0.81242 0.10184,0.49554 0.45595,1.68804 0.605,2.14744 0.13302,0.41006 0.60932,1.7638 0.78967,2.1855 0.13394,0.31314 0.29735,0.61284 0.44602,0.91926 0.31958,0.64924 0.35906,0.80094 0.76315,1.36802 0.11376,0.1596 0.19816,0.36262 0.36985,0.45726 0.53911,0.29718 1.56983,0.37068 2.20104,0.4909 0,0 0.18742,-0.0242 0.18742,-0.0242 v 0 c -0.57594,-0.2881 0.25946,-0.24374 0.082,-0.65326 -0.082,-0.1892 -0.3142,-0.2688 -0.4543,-0.4202 -0.47321,-0.51136 -0.544,-0.70276 -0.91837,-1.31784 -0.27658,-0.58934 -0.63728,-1.33054 -0.86487,-1.93466 -0.48925,-1.29872 -0.75049,-2.66292 -0.80385,-4.0488 -0.0319,-0.59088 -0.0587,-0.84544 -0.0424,-1.4246 0.005,-0.176 0.0158,-0.3522 0.0352,-0.5273 0.0122,-0.1102 0.16814,-0.30654 0.0592,-0.32708 -1.95042,-0.36802 -3.71559,0.006 -2.73724,-0.1984 -0.0116,0.4075 -0.14882,0.77962 -0.24402,1.1742 -0.20557,0.85214 -0.35636,1.71912 -0.65209,2.5478 -0.54759,1.79962 -1.24481,3.55622 -2.16493,5.20056 -0.68567,1.2501 -1.40381,2.47818 -2.2816,3.60568 0,0 2.23837,0.1572 2.23837,0.1572 z"
       id="path332"
       style="opacity:1;fill:#00aad4;fill-opacity:1;stroke:#00aad4;stroke-width:0.529998;stroke-linecap:round;stroke-opacity:1" />
    <path
       d="m 149.17272,365.93058 c 0.85195,-0.1876 1.99612,-0.32322 2.67503,-0.91244 0.104,-0.0902 0.15802,-0.2256 0.23702,-0.3384 -0.0865,-0.55494 -0.16324,-0.30404 0.5223,-0.58888 0,0 -0.18768,-0.0222 -0.18768,-0.0222 v 0 c -0.96489,0.4021 -0.3712,0.20706 -1.82186,0.44206 -0.33414,0.0812 -0.67101,0.1522 -1.00243,0.24386 -0.99782,0.27626 -1.95994,0.69816 -2.99782,0.81802 0,0 2.57544,0.35798 2.57544,0.35798 z"
       id="path334"
       style="opacity:1;fill:#00aad4;fill-opacity:1;stroke:#00aad4;stroke-width:0.529998;stroke-linecap:round;stroke-opacity:1" />
    <path
       d="m 159.65331,368.23856 c 0.10106,-0.23016 0.15648,-0.47802 0.2551,-0.709 0.0596,-0.1396 0.1422,-0.26878 0.20149,-0.40858 0.20129,-0.47464 0.31881,-0.99022 0.46163,-1.48398 0.3402,-1.1756 0.76269,-2.32464 1.09493,-3.5027 0.32593,-1.25994 0.67472,-2.51362 1.05838,-3.75742 0.12482,-0.5587 0.43557,-1.05358 0.52284,-1.61972 0.57365,0.90246 -0.0553,-0.1248 -2.93785,0.0608 -0.0663,0.004 0.0476,0.124 0.0688,0.187 0.0343,0.102 0.0647,0.20538 0.0978,0.30786 0.35929,1.11444 -0.0835,-0.2735 0.32543,1.01242 0.38276,1.40752 0.8375,2.7934 1.24921,4.19226 0.46798,1.4932 1.13679,2.91698 1.91735,4.27058 0.0922,0.1194 0.16884,0.25256 0.27665,0.35804 0.15506,0.1518 0.39375,0.2849 0.62125,0.2728 1.15574,-0.0616 2.32386,-0.0574 3.46166,-0.26936 0.16984,-0.0316 0.78168,-0.98834 0.82403,-1.05032 1.02593,-2.02804 1.78997,-4.16406 2.50804,-6.3155 0.31624,-1.15122 0.3591,-0.74402 0.11206,-1.83164 -0.0524,-0.23088 -0.0541,-0.49016 -0.18914,-0.68468 -0.16104,-0.2321 -0.43816,-0.3567 -0.65723,-0.53504 0,0 -0.18886,-0.008 -0.18886,-0.008 v 0 c -0.35296,0.1618 -0.73963,0.26464 -1.05888,0.4857 -0.24513,0.1698 -0.40781,0.43542 -0.60026,0.66314 -0.83688,0.99022 -0.57999,0.5873 -0.96962,1.80232 -0.32967,1.14036 -0.69114,2.26354 -1.07025,3.38836 -0.32786,0.9728 -0.64657,1.95026 -1.18042,2.83598 -0.12606,0.1826 -0.23894,0.37516 -0.37819,0.54796 -0.10588,0.1314 -0.51958,0.32614 -0.35455,0.36126 0.8914,0.1898 1.8219,0.0706 2.73027,0.1444 0.1194,0.01 -0.2365,0.0554 -0.35611,0.0486 -0.41651,-0.0238 -0.48233,-0.1432 -0.82832,-0.37782 -0.12644,-0.1568 -0.26524,-0.30456 -0.37931,-0.47064 -0.76343,-1.11154 -1.11303,-2.44654 -1.50699,-3.7166 -0.42349,-1.3851 -0.83932,-2.77362 -1.15459,-4.18816 -0.0618,-0.26918 -0.16867,-0.72464 -0.2261,-1.0083 -0.0206,-0.1018 -0.0391,-0.2041 -0.0553,-0.30672 -0.0108,-0.0684 0.0427,-0.1976 -0.0259,-0.20588 -1.0029,-0.1212 -2.01625,-0.1416 -3.02622,-0.1632 -0.0328,-5.4e-4 -0.003,0.0656 -0.004,0.0984 -0.25271,0.51366 -0.24302,1.09312 -0.38286,1.64172 -0.26307,1.26778 -0.64684,2.50358 -0.96425,3.7576 -0.29497,1.17476 -0.61452,2.34226 -0.98259,3.49654 -0.15574,0.4876 -0.33439,0.97712 -0.44534,1.47776 -0.03,0.1354 -0.0372,0.27548 -0.0709,0.41004 -0.0602,0.2404 -0.17406,0.4651 -0.23517,0.70528 0,0 2.44205,0.0856 2.44205,0.0856 z"
       id="path336"
       style="opacity:1;fill:#00aad4;fill-opacity:1;stroke:#00aad4;stroke-width:0.529998;stroke-linecap:round;stroke-opacity:1" />
    <path
       d="m 18.980327,359.98374 c -0.406448,0.6358 -0.787351,1.27946 -1.064739,1.98268 -0.239413,0.719 -0.291643,1.4734 -0.2597,2.22466 0.07347,0.57978 0.115026,1.21774 0.402626,1.74226 0.05923,0.108 0.13644,0.20516 0.204659,0.30774 0.400128,0.59884 1.003408,0.93366 1.679848,1.12668 1.379441,0.1856 0.639,0.1032 3.567898,0.0364 0.19748,-0.004 0.591418,-0.13 0.76284,-0.1994 0.276998,-0.112 0.489436,-0.2453 0.747324,-0.3931 0.899923,-0.55742 1.320475,-1.5144 1.703387,-2.4573 0.384735,-0.8912 0.581025,-1.70648 0.573855,-2.6752 -0.0869,-0.92248 -0.24599,-1.84546 -0.505265,-2.73542 -0.2431,-0.7062 -0.500216,-1.31698 -1.056273,-1.82646 -0.401432,-0.29158 -0.872006,-0.4649 -1.357804,-0.54926 -1.74946,-0.1014 -2.838409,-0.41768 -4.085028,0.46794 -0.366496,0.2445 -0.67973,0.51624 -0.899326,0.89926 -0.267134,0.49548 -0.353796,1.04398 -0.41123,1.59622 -0.0098,0.39268 -0.1505,0.57138 0.243894,0.8208 0.13582,0.0858 0.28459,0.154 0.438482,0.20028 0.826282,0.24824 0.598662,-0.0888 0.803726,0.29842 0,0 0.188761,-0.01 0.188761,-0.01 v 0 c -0.0263,-0.0488 -0.126601,-0.1182 -0.07892,-0.1464 0.18192,-0.1078 0.412384,-0.0978 0.611442,-0.1694 0.15782,-0.0566 0.51672,-0.22732 0.609853,-0.40738 0.08534,-0.165 -0.0596,-0.39296 0.03438,-0.55618 0.0587,-0.51392 0.13912,-1.03092 0.45666,-1.45724 0.250082,-0.32272 0.564216,-0.5742 0.918234,-0.77818 0.237892,-0.1406 0.464856,-0.26036 0.743758,-0.295 0.07122,-0.008 0.286704,-0.012 0.214936,-0.012 -0.904732,-0.01 -1.809552,-0.01 -2.714327,-0.016 0.464475,0.004 0.915943,0.1236 1.305007,0.38432 0.604698,0.3966 0.876076,0.97894 1.138558,1.63748 0.25122,0.86718 0.394136,1.75262 0.442564,2.655 0.0022,0.88054 -0.15588,1.7374 -0.474334,2.56114 -0.377792,0.88888 -0.831408,1.74196 -1.681646,2.2624 -0.368634,0.1832 -0.725961,0.35288 -1.135195,0.42656 -0.1208,0.0218 -0.488796,0.036 -0.3661,0.0398 0.692182,0.0214 3.537129,0.047 2.077481,0.014 -0.653184,-0.105 -1.234419,-0.388 -1.663119,-0.90626 -0.360224,-0.57982 -0.527108,-1.21348 -0.551998,-1.89734 -0.0178,-0.71002 0.04192,-1.43126 0.28912,-2.10266 0.27314,-0.65914 0.56377,-1.32062 0.933927,-1.93072 0,0 -2.788211,-0.1642 -2.788211,-0.1642 z"
       id="path338"
       style="opacity:1;fill:#000000;fill-opacity:1;stroke:#000000;stroke-width:0.529998;stroke-linecap:round;stroke-opacity:1" />
    <path
       d="m 40.154089,242.4273 c 0.1121,1.12568 0.17898,2.2649 0.376354,3.38018 0.11316,0.63942 0.318122,1.26142 0.41272,1.90386 0.09736,0.6612 0.10794,1.3323 0.1619,1.99846 0,0 0.18898,-0.002 0.18898,-0.002 v 0 c -0.05396,-0.66594 -0.17344,-1.3298 -0.1619,-1.99784 0.011,-0.63976 0.17014,-1.2687 0.22939,-1.90578 0.10446,-1.12332 0.12724,-2.25686 0.11416,-3.38432 0,0 -1.32161,0.006 -1.32161,0.006 z"
       id="path340"
       style="opacity:1;fill:#ff2a2a;fill-opacity:1;stroke:#ff2a2a;stroke-width:0.529998;stroke-linecap:round;stroke-opacity:1" />
    <path
       d="m 40.052949,258.1257 c 0.0098,2.27534 0.06146,4.5486 0.217664,6.81884 0,0 0.18898,-0.001 0.18898,-0.001 v 0 c -0.02646,-0.38444 -0.06872,-0.76814 -0.07942,-1.15334 -0.0174,-0.62392 0.03512,-1.97696 0.05408,-2.58742 0.0239,-0.7699 0.03496,-1.54018 0.0625,-2.30996 0.0092,-0.25534 0.02736,-0.51028 0.04106,-0.76542 0,0 -0.48486,-0.001 -0.48486,-0.001 z"
       id="path342"
       style="opacity:1;fill:#ff2a2a;fill-opacity:1;stroke:#ff2a2a;stroke-width:0.529998;stroke-linecap:round;stroke-opacity:1" />
    <path
       d="m 40.352459,274.96152 c 0.008,0.1856 0.0166,0.37128 0.02388,0.55696 0.0106,0.26662 0.008,0.534 0.02974,0.79996 0.14722,1.80188 0.08302,0.1264 0.26192,2.05438 0.03674,0.39588 0.04272,0.79402 0.06408,1.19104 0,0 0.18898,-10e-4 0.18898,-10e-4 v 0 c -0.02136,-0.39682 -0.06988,-0.79312 -0.06408,-1.19046 0.009,-0.61908 0.15576,-1.43276 0.2256,-2.05218 0.02994,-0.26568 0.0445,-0.53286 0.07118,-0.79888 0.0186,-0.1854 0.04306,-0.37012 0.0646,-0.55518 0,0 -0.865904,-0.004 -0.865904,-0.004 z"
       id="path344"
       style="opacity:1;fill:#ff2a2a;fill-opacity:1;stroke:#ff2a2a;stroke-width:0.529998;stroke-linecap:round;stroke-opacity:1" />
    <path
       d="m 40.949659,291.2433 c 0.015,0.1918 0.0188,0.38482 0.04496,0.5754 0.03768,0.2736 0.1166,0.54092 0.14656,0.81548 0.03398,0.31128 0.02574,0.62578 0.04484,0.93834 0.02054,0.336 0.04938,0.67146 0.07406,1.00718 0,0 0.18898,-0.002 0.18898,-0.002 v 0 c -0.0194,-0.26334 -0.1302,-1.65236 -0.1189,-1.94454 0.0106,-0.27372 0.07656,-0.54248 0.1126,-0.81404 0.02538,-0.1912 0.04776,-0.3829 0.07164,-0.57434 0,0 -0.564756,-0.002 -0.564756,-0.002 z"
       id="path346"
       style="opacity:1;fill:#ff2a2a;fill-opacity:1;stroke:#ff2a2a;stroke-width:0.529998;stroke-linecap:round;stroke-opacity:1" />
    <path
       d="m 41.126135,304.3876 c 0.0344,1.99818 0.0992,3.99674 0.06402,5.99548 0,0 0.18898,3.4e-4 0.18898,3.4e-4 v 0 c 0.0072,-0.4066 0.0012,-0.81366 0.02148,-1.21982 0.0794,-1.59272 0.325478,-3.17756 0.305994,-4.776 0,0 -0.58048,0 -0.58048,0 z"
       id="path348"
       style="opacity:1;fill:#ff2a2a;fill-opacity:1;stroke:#ff2a2a;stroke-width:0.529998;stroke-linecap:round;stroke-opacity:1" />
    <path
       d="m 40.904769,318.52538 c -0.09226,0.93284 0.244602,1.81366 0.313624,2.73316 0.02426,0.32314 0.0114,0.64802 0.0172,0.97202 0,0 0.18898,-3.4e-4 0.18898,-3.4e-4 v 0 c -0.0058,-0.32384 -0.0383,-0.64832 -0.0172,-0.97152 0.06126,-0.93598 0.486925,-1.7882 0.540419,-2.7259 0,0 -1.043031,-0.008 -1.043031,-0.008 z"
       id="path350"
       style="opacity:1;fill:#ff2a2a;fill-opacity:1;stroke:#ff2a2a;stroke-width:0.529998;stroke-linecap:round;stroke-opacity:1" />
    <path
       d="m 41.325885,333.8628 c 0.06014,0.42952 0.21186,0.8408 0.280662,1.2683 0.04004,0.24884 0.04898,0.5017 0.07346,0.75256 0,0 0.188981,-0.002 0.188981,-0.002 v 0 c -0.02448,-0.25064 -0.07316,-0.50008 -0.07346,-0.75192 -3.64e-4,-0.30004 0.11156,-0.95156 0.16092,-1.26766 0,0 -0.630559,5.4e-4 -0.630559,5.4e-4 z"
       id="path352"
       style="opacity:1;fill:#ff2a2a;fill-opacity:1;stroke:#ff2a2a;stroke-width:0.529998;stroke-linecap:round;stroke-opacity:1" />
    <path
       d="m 41.005357,340.74334 c 0.09776,0.90896 0.11378,1.83354 0.320682,2.7285 0.550007,2.37904 0.17684,-0.1822 0.455193,2.0976 0,0 0.18898,-0.002 0.18898,-0.002 v 0 c -0.0415,-0.33954 -0.13348,-0.67668 -0.12448,-1.01864 0.0096,-0.36498 0.14108,-0.71742 0.17964,-1.08048 0.09624,-0.90618 0.0285,-1.81924 0.06622,-2.72744 0,0 -1.086219,0.002 -1.086219,0.002 z"
       id="path354"
       style="opacity:1;fill:#ff2a2a;fill-opacity:1;stroke:#ff2a2a;stroke-width:0.529998;stroke-linecap:round;stroke-opacity:1" />
    <path
       d="m 257.12241,331.88312 c -0.1306,0.81344 -0.1066,0.46548 -0.094,1.4391 0.004,0.32866 -0.029,0.66134 0.0236,0.9858 0.102,0.62854 0.45578,1.36486 0.70078,1.94184 0,0 0.189,-0.001 0.189,-0.001 v 0 c 0.0506,-0.151 0.6075,-1.79746 0.63588,-1.93622 0.0658,-0.3221 0.0554,-0.65522 0.0854,-0.98262 0.1006,-1.09302 0.0902,-0.52858 0.0702,-1.42538 0,0 -1.61098,-0.0216 -1.61098,-0.0216 z"
       id="path356"
       style="opacity:1;fill:#ff2a2a;fill-opacity:1;stroke:#ff2a2a;stroke-width:0.529998;stroke-linecap:round;stroke-opacity:1" />
    <path
       d="m 257.00357,343.14806 c -0.0688,0.4042 -0.1784,1.40406 10e-4,1.75016 0.88966,1.7136 0.59158,-0.1734 0.7223,1.45374 0,0 0.189,-0.002 0.189,-0.002 v 0 c -0.02,-0.23892 -0.1428,-0.49272 -0.0576,-0.71676 0.113,-0.29708 0.46802,-0.44876 0.60916,-0.73354 0.1568,-0.31628 0.1298,-1.34558 0.1124,-1.74004 0,0 -1.5765,-0.012 -1.5765,-0.012 z"
       id="path358"
       style="opacity:1;fill:#ff2a2a;fill-opacity:1;stroke:#ff2a2a;stroke-width:0.529998;stroke-linecap:round;stroke-opacity:1" />
    <path
       d="m 256.61585,311.8869 c 0.016,0.26356 0.0846,1.48746 0.107,1.66156 0.0438,0.34032 0.1466,0.67152 0.1866,1.0123 0.0382,0.32662 0.0314,0.65694 0.0472,0.98542 0,0 0.189,-10e-4 0.189,-10e-4 v 0 c -0.016,-0.32826 -0.0656,-0.65666 -0.0472,-0.98476 0.02,-0.34078 0.117,-0.6728 0.1592,-1.01152 0.0686,-0.55134 0.0826,-1.10848 0.1504,-1.65998 0,0 -0.79208,-0.002 -0.79208,-0.002 z"
       id="path360"
       style="opacity:1;fill:#ff2a2a;fill-opacity:1;stroke:#ff2a2a;stroke-width:0.529998;stroke-linecap:round;stroke-opacity:1" />
    <path
       d="m 257.20917,293.70376 c -0.22826,0.90554 -0.1694,0.44298 -0.1434,1.55536 0.008,0.36506 -0.026,0.73454 0.0326,1.09496 0.0634,0.38992 0.26962,0.74778 0.3305,1.1381 0.0568,0.3648 0.014,0.73828 0.02,1.10742 0,0 0.189,-3.4e-4 0.189,-3.4e-4 v 0 c -0.006,-0.36896 -0.074,-0.74188 -0.02,-1.1069 0.0584,-0.3922 0.27568,-0.74706 0.35326,-1.13592 0.0716,-0.35892 0.0618,-0.72938 0.0916,-1.09416 0.0922,-1.13106 0.133,-0.6314 -0.0532,-1.55756 0,0 -0.80038,-0.001 -0.80038,-0.001 z"
       id="path362"
       style="opacity:1;fill:#ff2a2a;fill-opacity:1;stroke:#ff2a2a;stroke-width:0.529998;stroke-linecap:round;stroke-opacity:1" />
    <path
       d="m 257.43185,271.59274 c 0.0288,0.42412 0.1084,1.6356 0.1442,1.92258 0.0694,0.55808 0.21042,1.10674 0.2612,1.66684 0.0552,0.60884 0.0328,1.22224 0.0562,1.83314 0.0222,0.58354 0.0536,1.16672 0.0804,1.75008 0,0 0.189,-10e-4 0.189,-10e-4 v 0 c -0.0202,-0.4409 -0.155,-3.17558 -0.1366,-3.58262 0.0252,-0.55952 0.154,-1.10972 0.21402,-1.66658 0.0438,-0.40548 0.1104,-1.42558 0.1442,-1.92258 0,0 -0.95252,0 -0.95252,0 z"
       id="path364"
       style="opacity:1;fill:#ff2a2a;fill-opacity:1;stroke:#ff2a2a;stroke-width:0.529998;stroke-linecap:round;stroke-opacity:1" />
    <path
       d="m 256.97717,254.79794 c 0.0686,0.67938 -0.092,1.36332 -0.036,2.0417 0.0354,0.43028 0.195,0.84398 0.23352,1.274 0.0352,0.39284 -0.008,0.78878 -0.014,1.18318 0,0 0.189,2e-4 0.189,2e-4 v 0 c 0.004,-0.3941 -0.0492,-0.79314 0.014,-1.1823 0.07,-0.436 0.28722,-0.83732 0.37988,-1.26906 0.144,-0.67074 0.1066,-1.37182 0.27942,-2.03896 0,0 -1.04574,-0.008 -1.04574,-0.008 z"
       id="path366"
       style="opacity:1;fill:#ff2a2a;fill-opacity:1;stroke:#ff2a2a;stroke-width:0.529998;stroke-linecap:round;stroke-opacity:1" />
    <path
       d="m 256.98777,235.73082 c -0.0222,0.46686 -0.063,0.92618 0.01,1.39374 0.0478,0.3074 0.1578,0.60194 0.22586,0.90548 0.0786,0.35048 0.1426,0.70406 0.21376,1.0561 0,0 0.189,-0.001 0.189,-0.001 v 0 c 0.0236,-0.35172 0.0202,-0.7063 0.0708,-1.05514 0.0444,-0.30584 0.159,-0.598 0.21338,-0.90222 0.0676,-0.37896 0.1028,-0.98532 0.1316,-1.38808 0,0 -1.05402,-0.008 -1.05402,-0.008 z"
       id="path368"
       style="opacity:1;fill:#ff2a2a;fill-opacity:1;stroke:#ff2a2a;stroke-width:0.529998;stroke-linecap:round;stroke-opacity:1" />
    <path
       d="m 146.85803,340.78596 c 0.0793,-0.74868 0.46746,-1.37308 0.836,-2.0085 0.35918,-0.57498 0.75475,-1.12246 1.17154,-1.65664 0.50611,-0.60318 1.10821,-1.10482 1.72013,-1.59446 0.71257,-0.54542 1.5218,-0.94288 2.321,-1.34272 0.91952,-0.46634 1.90134,-0.78234 2.88013,-1.09582 1.02231,-0.32734 2.07327,-0.54574 3.12528,-0.75148 0.93344,-0.191 1.87975,-0.30604 2.8267,-0.4043 0.79005,-0.0596 1.58229,-0.0906 2.37417,-0.115 0.841,0.01 2.62178,-0.0466 -1.18551,0.002 -0.1322,0.002 0.26435,0.008 0.39623,0.018 0.32347,0.0226 0.42429,0.0434 0.74152,0.0898 1.0741,0.193 2.09034,0.61466 3.08971,1.0396 1.45642,0.7059 2.8837,1.46902 4.336,2.18394 1.45602,0.73326 2.94096,1.40662 4.44323,2.03902 1.22341,0.48698 2.4304,1.01374 3.65146,1.50626 0.95849,0.3957 1.93973,0.7289 2.94512,0.98176 1.6854,0.4011 3.41214,0.24278 5.13357,0.23336 0.60811,-0.002 1.14425,-0.24064 1.69132,-0.47544 0.46456,-0.1894 0.88445,-0.46908 1.35928,-0.6332 0.69014,-0.29204 1.37596,-0.59428 2.06917,-0.87906 0.68088,-0.24124 1.33516,-0.52726 1.96949,-0.87054 0.74861,-0.4994 1.51326,-0.9728 2.28302,-1.4393 0.53853,-0.37916 1.05162,-0.79596 1.4718,-1.30462 0.44896,-0.50238 0.83818,-1.05484 1.2115,-1.61468 0.3549,-0.49008 0.65096,-1.01826 0.98642,-1.5207 0.3231,-0.5446 0.61588,-1.10522 0.90702,-1.66734 0.0646,-0.1902 0.26962,-0.39674 0.207,-0.60062 -0.002,-0.006 -0.008,-0.027 -0.008,-0.02 -0.002,1.14178 1.00858,0.012 -2.89784,0.1752 -0.0652,0.002 0.1112,0.0684 0.1654,0.1048 0.24218,0.1626 0.20312,0.1414 0.4396,0.34112 0.5388,0.537 1.12042,1.02534 1.70906,1.50614 0.79668,0.6191 1.60438,1.22262 2.40072,1.84246 1.12344,0.83286 2.2719,1.63204 3.40712,2.44924 1.13294,0.857 2.33406,1.6197 3.55654,2.34148 1.2801,0.76076 2.69938,1.18938 4.13424,1.54398 1.77318,0.4338 3.58834,0.63708 5.4071,0.74438 2.88474,0.1318 5.75938,0.0346 8.61992,-0.32438 1.13634,-0.199 2.33768,-0.22314 3.40176,-0.70512 0.73264,-0.42084 1.38808,-0.9694 2.02904,-1.5173 0.58298,-0.57492 1.212,-1.09426 1.85792,-1.5966 0.68758,-0.54798 1.46668,-0.95956 2.1905,-1.45434 0.573,-0.49954 1.20744,-0.91024 1.87204,-1.2752 0.74152,-0.41662 1.51464,-0.77034 2.30806,-1.07532 0.58408,-0.25406 1.1996,-0.37074 1.82628,-0.45554 1.23608,-0.1792 4.95804,-0.1422 -0.39712,-0.1204 0.76324,0.0286 1.49296,0.25356 2.20532,0.51148 0.6696,0.2231 1.29602,0.52572 1.83366,0.9848 0.47446,0.46818 0.87212,1.00726 1.26814,1.54152 0.4087,0.58618 0.95492,1.0509 1.4658,1.5432 0.52234,0.51926 0.9449,1.11584 1.33846,1.73448 0.2226,0.40234 0.48334,0.78242 0.6041,1.22968 0.0852,0.31726 0.1414,0.64132 0.1844,0.96672 0.074,0.29772 0.0734,0.36188 0.3965,0.42532 0.52062,0.1042 1.05022,-0.0988 1.5632,0.0376 0,0 0.1876,-0.023 0.1876,-0.023 v 0 c -0.48888,-0.26654 0.89968,-0.1166 1.0932,-0.199 0.3005,-0.0486 0.1278,-0.1078 0.0754,-0.3251 -0.1274,-0.31438 -0.147,-0.65924 -0.24496,-0.98328 -0.17,-0.46998 -0.43172,-0.89516 -0.7064,-1.31116 -0.42148,-0.6332 -0.8838,-1.2496 -1.41328,-1.79584 -0.49074,-0.5006 -1.0469,-0.9355 -1.4649,-1.50498 -0.44356,-0.53408 -0.84082,-1.10946 -1.33972,-1.595 -0.55244,-0.48202 -1.1518,-0.8654 -1.85574,-1.0935 -0.71992,-0.25838 -1.43402,-0.55392 -2.2061,-0.60834 -1.87918,-0.006 -3.77368,-0.0912 -5.64486,0.1434 -0.65794,0.0918 -1.3011,0.24468 -1.90776,0.52362 -0.78158,0.33704 -1.55172,0.7019 -2.29678,1.11414 -0.68966,0.38376 -1.34392,0.81864 -1.9714,1.29788 -0.6977,0.49324 -1.40436,0.97386 -2.09496,1.47702 -0.67436,0.50116 -1.3288,1.01906 -1.92882,1.60936 -0.62066,0.53568 -1.26416,1.0636 -2.0093,1.41742 -0.98654,0.37058 -2.04014,0.50096 -3.0758,0.6656 -0.94812,0.1198 -1.89198,0.21996 -2.84688,0.26958 -0.31554,0.016 -1.26262,0.018 -0.9472,0.0364 0.6018,0.0358 1.20566,0.01 1.8085,0.014 0.32708,0.002 -0.65416,-0.006 -0.98122,-0.008 -1.808,-0.0924 -3.61174,-0.27766 -5.37724,-0.69486 -1.4033,-0.3475 -2.802,-0.75572 -4.06932,-1.47002 -1.243,-0.70408 -2.46486,-1.44448 -3.60682,-2.30612 -1.11468,-0.82006 -2.26586,-1.58992 -3.35708,-2.44184 -0.77292,-0.62524 -1.5625,-1.22894 -2.34376,-1.84358 -0.58058,-0.47286 -1.1629,-0.94448 -1.67486,-1.49348 -1.14392,-1.11166 -1.0839,-0.67472 -3.76562,-0.674 -0.0656,2e-5 0.01,0.1666 -0.0666,0.1854 -0.189,0.143 -0.25192,0.37864 -0.35982,0.58648 -0.25919,0.5607 -0.53843,1.11416 -0.87011,1.63594 -0.30024,0.52014 -0.65873,1.00322 -0.98156,1.50942 -0.36704,0.54112 -0.73163,1.08414 -1.17312,1.56936 -0.44767,0.44544 -0.92038,0.86414 -1.43707,1.22908 -0.71262,0.52926 -1.46681,1.00196 -2.25384,1.41298 -0.57544,0.31308 -1.16374,0.60296 -1.76606,0.86102 -0.71189,0.29636 -1.42967,0.5783 -2.14005,0.87832 -0.40256,0.22612 -0.79391,0.47424 -1.22776,0.63922 -0.5235,0.20072 -1.05153,0.3754 -1.61842,0.38546 5.06786,0.0254 1.57028,0.1104 0.41102,-0.1658 -1.04265,-0.2263 -2.0666,-0.5268 -3.05633,-0.92838 -1.25677,-0.48136 -2.49805,-0.99984 -3.75145,-1.48978 -1.54052,-0.62552 -3.06663,-1.28238 -4.5622,-2.01014 -1.46016,-0.70306 -2.88455,-1.4758 -4.33857,-2.19134 -0.9769,-0.46128 -1.98943,-0.89272 -3.05117,-1.11146 -1.56893,-0.23844 -3.15755,-0.1618 -4.74096,-0.1282 -0.74304,0.025 -1.48596,0.0656 -2.22431,0.156 -0.87981,0.104 -1.75184,0.2572 -2.61575,0.45428 -1.00963,0.21932 -2.01817,0.4448 -2.99431,0.7895 -0.97522,0.30936 -1.92777,0.68026 -2.84823,1.1289 -0.79092,0.39654 -1.56506,0.82872 -2.2546,1.38858 -0.58749,0.47898 -1.10916,1.03578 -1.55988,1.64582 -0.41529,0.5318 -0.83622,1.06182 -1.10562,1.6868 -0.33197,0.65852 -0.56394,1.34918 -0.79903,2.0469 0,0 1.50757,0.0384 1.50757,0.0384 z"
       id="path372"
       style="opacity:1;fill:#ff2a2a;fill-opacity:1;stroke:#ff2a2a;stroke-width:0.529998;stroke-linecap:round;stroke-opacity:1" />
    <path
       d="m 184.19245,313.8542 c 0.47078,-0.8962 1.20425,-1.57828 1.9878,-2.19724 0.52842,-0.41606 1.1276,-0.66874 1.79369,-0.7619 0.1579,-0.022 0.63657,-0.0326 0.47714,-0.0336 -0.53655,-0.004 -1.07295,0.018 -1.60943,0.027 0.82796,0.1146 0.96433,0.54704 1.06886,1.3017 0.0481,1.12776 -0.1712,2.24458 -0.38918,3.3456 -0.22517,1.15808 -0.69925,2.23012 -1.24608,3.26662 -0.70856,1.20006 -1.63452,2.24834 -2.57794,3.26636 -0.60551,0.68432 -1.34865,1.20538 -2.10134,1.70886 -0.95068,0.65556 -1.79467,0.39832 2.79249,0.1572 0.0637,-0.004 0.0476,-0.1196 0.0834,-0.1724 0.0592,-0.0876 0.29791,-0.3384 0.36243,-0.40796 0.22837,-0.1394 0.36034,-0.2398 0.61752,-0.32006 0.10784,-0.0336 0.22147,-0.0448 0.3322,-0.067 -0.76846,0.018 -1.54084,-0.027 -2.30539,0.0526 -0.17958,0.018 0.35516,0.0718 0.52519,0.1324 0.1944,0.0694 0.3758,0.1708 0.5637,0.25636 0.75396,0.35518 1.4161,0.88398 2.15309,1.2666 0.44494,0.231 0.57264,0.24244 1.051,0.38092 1.27485,0.22884 2.70163,0.1484 3.94332,-0.022 0.0943,-0.012 -0.12618,-0.1426 -0.18928,-0.21376 0,0 -0.18726,-0.0256 -0.18726,-0.0256 v 0 c -2.39673,0.004 -0.6419,0.018 0.60521,-0.08 0.1277,-0.01 -0.2557,-0.016 -0.38318,-0.029 -0.17936,-0.018 -0.3581,-0.041 -0.53715,-0.0616 -0.37619,-0.0838 -0.84207,-0.179 -1.20515,-0.29814 -0.90499,-0.29676 -1.70359,-0.82174 -2.56165,-1.22214 -0.022,-0.01 -0.97518,-0.4915 -1.07124,-0.49694 -1.73381,-0.0986 -2.82311,-0.3964 -4.0645,0.50954 -0.30758,0.2156 -0.37096,0.21518 -0.574,0.50822 -0.0511,0.0738 -0.21319,0.21932 -0.12546,0.23826 2.68796,0.58028 2.16471,0.87656 3.19059,0.2036 0.68155,-0.50976 1.24943,-1.16342 1.80813,-1.79978 0.90137,-1.06208 1.80904,-2.1363 2.5166,-3.34036 0.50792,-1.06362 0.87767,-2.17368 1.03482,-3.34676 0.18508,-1.13098 0.32219,-2.27462 0.22501,-3.42252 -0.13576,-0.8896 -0.32478,-1.4242 -1.29994,-1.58464 -1.92042,-0.008 -3.20136,-0.3207 -4.67084,0.91346 -0.76346,0.68268 -1.45326,1.43808 -2.07186,2.25454 0,0 2.03871,0.1136 2.03871,0.1136 z"
       id="path374"
       style="opacity:1;fill:#ff2a2a;fill-opacity:1;stroke:#ff2a2a;stroke-width:0.529998;stroke-linecap:round;stroke-opacity:1" />
    <path
       d="m 203.60777,313.89702 c -1.7158,-0.063 -3.03744,-0.25754 -4.49034,0.5844 -0.53356,0.48596 -0.82472,1.17298 -0.53908,1.87914 0.063,0.156 0.1636,0.29402 0.2454,0.44104 0.49404,0.7624 1.28358,1.25454 1.86422,1.93768 0.1038,0.122 0.1902,0.25764 0.28536,0.38646 0.0676,0.1354 0.32842,0.6336 0.35786,0.7865 0.1168,0.60634 -0.2507,1.35544 -0.5285,1.86506 -0.48404,0.54586 -1.04708,1.00486 -1.68082,1.36716 -0.24164,0.1382 -0.49822,0.24836 -0.74602,0.3751 -0.20427,0.1044 -0.56423,0.0938 -0.61019,0.31858 -0.0387,0.1894 0.31868,0.21864 0.47803,0.32798 0.008,0.0254 0.0156,0.051 0.0234,0.0764 0,0 0.187,0.028 0.187,0.028 v 0 c 0.24258,0.004 0.48516,0.008 0.72774,0.012 0.56028,-0.0292 1.12712,0.002 1.68084,-0.0876 0.28522,-0.0466 0.54538,-0.1942 0.80642,-0.31828 0.68932,-0.32738 1.44404,-0.80352 1.90936,-1.42462 0.1258,-0.168 0.1982,-0.37 0.29742,-0.55502 0.119,-0.40454 0.23064,-0.64586 0.1998,-1.0757 -0.0486,-0.67712 -0.46878,-1.36592 -0.91224,-1.8528 -0.39864,-0.40058 -0.7968,-0.7933 -1.22752,-1.15982 -0.25674,-0.21848 -0.59972,-0.48388 -0.83868,-0.7244 -0.1194,-0.1202 -0.2238,-0.2545 -0.33572,-0.38176 -0.074,-0.1322 -0.1606,-0.25812 -0.22176,-0.39672 -0.2758,-0.62532 -0.0712,-1.23532 0.47322,-1.62416 0.38938,-0.21588 0.76372,-0.36474 1.20728,-0.43886 0.1646,-0.0276 0.66386,-0.0426 0.49744,-0.054 -0.35544,-0.0244 -2.19872,-0.0224 -1.06888,0.002 0,0 1.95916,-0.29474 1.95916,-0.29474 z"
       id="path376"
       style="opacity:1;fill:#ff2a2a;fill-opacity:1;stroke:#ff2a2a;stroke-width:0.529998;stroke-linecap:round;stroke-opacity:1" />
    <path
       d="m 210.69323,314.10628 c 0.0204,0.96458 0.1524,1.92726 0.1058,2.89316 -0.014,0.27398 -0.0446,0.54674 -0.067,0.82012 -0.0988,1.49402 -0.1568,2.99136 -0.30108,4.48204 0.008,0.1532 -0.044,0.3222 0.0238,0.4599 0.21892,0.44416 0.70524,0.39068 1.06764,0.61384 0.0676,0.0416 0.063,0.1458 0.0946,0.2188 0,0 0.189,0.004 0.189,0.004 v 0 c 0.0664,-0.0734 0.1114,-0.1746 0.1994,-0.22016 0.38462,-0.1992 0.88394,-0.1778 1.13694,-0.60406 0.0792,-0.1336 0.0452,-0.3072 0.068,-0.4608 -0.008,-0.68116 0.0226,-1.3672 -0.004,-2.04764 -0.0312,-0.81758 -0.1204,-1.63532 -0.175,-2.45144 -0.1562,-1.24168 -0.1692,-2.49212 -0.34468,-3.73054 0,0 -1.99408,0.0224 -1.99408,0.0224 z"
       id="path378"
       style="opacity:1;fill:#ff2a2a;fill-opacity:1;stroke:#ff2a2a;stroke-width:0.529998;stroke-linecap:round;stroke-opacity:1" />
    <path
       d="m 210.70945,314.9618 c 1.4089,-0.1816 2.78576,-0.52246 4.16828,-0.83928 0.6048,-0.1354 1.2144,-0.24864 1.81808,-0.3892 0.1342,-0.0312 0.29544,-0.01 0.40146,-0.099 0.0464,-0.0384 -0.054,-0.1174 -0.1074,-0.1454 -0.1558,-0.082 -0.33254,-0.1156 -0.49882,-0.1734 -0.038,-0.0244 -0.0762,-0.049 -0.1142,-0.0734 0,0 -0.187,-0.0272 -0.187,-0.0272 v 0 c -0.1926,-0.006 -0.38524,-0.012 -0.57786,-0.018 -0.5297,-0.018 -1.32442,-0.0686 -1.878,-0.012 -0.1318,0.014 -0.2571,0.0648 -0.3856,0.0974 -0.53672,0.1362 -1.07204,0.27776 -1.60786,0.41754 -1.2351,0.3048 -2.4849,0.55784 -3.70652,0.91034 0,0 2.67544,0.35104 2.67544,0.35104 z"
       id="path380"
       style="opacity:1;fill:#ff2a2a;fill-opacity:1;stroke:#ff2a2a;stroke-width:0.529998;stroke-linecap:round;stroke-opacity:1" />
    <path
       d="m 221.15649,313.25742 c -0.0438,0.59782 0.0288,1.20202 -0.002,1.79906 -0.01,0.185 -0.0508,0.3671 -0.0662,0.55168 -0.02,0.22904 -0.025,0.45898 -0.0376,0.68846 -0.0248,1.24422 -0.0916,2.49438 -0.2685,3.72712 -0.0536,0.84828 -0.21848,1.68626 -0.2767,2.53322 0.0628,0.0846 0.1022,0.1932 0.1882,0.25392 0.27964,0.1974 0.8235,0.27454 1.11642,0.33982 0,0 0.189,0.002 0.189,0.002 v 0 c 0.32822,-0.064 0.86934,-0.1274 1.1849,-0.31912 0.0976,-0.0592 0.1566,-0.1664 0.2348,-0.24954 0.1012,-0.84496 0.1304,-1.70144 0.1676,-2.55086 -0.091,-1.24488 -0.1794,-2.49124 -0.1964,-3.73976 -0.1434,-1.81456 0.0502,0.28784 -0.1654,-1.24736 -0.084,-0.59822 -0.082,-1.2112 -0.20898,-1.80476 0,0 -1.8595,0.016 -1.8595,0.016 z"
       id="path382"
       style="opacity:1;fill:#ff2a2a;fill-opacity:1;stroke:#ff2a2a;stroke-width:0.529998;stroke-linecap:round;stroke-opacity:1" />
    <path
       d="m 222.74009,314.12332 c 0.118,-0.0576 0.23308,-0.1218 0.35404,-0.173 0.53846,-0.22796 1.11958,-0.39746 1.70488,-0.44102 0.2454,-0.018 0.98412,-0.012 0.7382,-0.004 -0.54532,0.02 -1.09104,0.0238 -1.63656,0.0358 1.03806,0.121 2.02508,0.59912 2.58618,1.51628 0.0994,0.1624 0.1634,0.34394 0.245,0.51592 0.098,0.3825 0.20228,0.67634 0.1886,1.07834 -0.0284,0.8346 -0.53984,1.69238 -0.938,2.39876 -0.9913,1.49842 -2.23802,2.3266 -3.83614,3.0694 0.24486,-0.24782 -0.75936,0.26952 -0.58696,0.44406 0.35218,0.3566 0.75916,0.0952 0.28716,0.3216 0,0 0.1874,0.0238 0.1874,0.0238 v 0 c 0.12,-0.0276 0.23686,-0.0762 0.35974,-0.0826 1.0185,-0.0534 1.85724,0.0996 2.81042,-0.36562 0.22256,-0.1172 0.4514,-0.22316 0.66762,-0.35166 1.20902,-0.71856 2.26744,-1.70704 2.99612,-2.91252 0.49062,-0.8967 0.79924,-1.52484 0.72558,-2.57714 -0.014,-0.20168 -0.032,-0.4055 -0.0856,-0.60044 -0.055,-0.1996 -0.1582,-0.38278 -0.2374,-0.57416 -0.115,-0.184 -0.21796,-0.37596 -0.34506,-0.55174 -0.66678,-0.92204 -1.6019,-1.5348 -2.73276,-1.70314 -1.7962,-0.018 -3.9022,-0.30444 -5.5205,0.7357 0,0 2.06794,0.198 2.06794,0.198 z"
       id="path384"
       style="opacity:1;fill:#ff2a2a;fill-opacity:1;stroke:#ff2a2a;stroke-width:0.529998;stroke-linecap:round;stroke-opacity:1" />
    <path
       d="m 200.09069,342.0996 c 0.0732,0.40572 0.1452,0.81658 0.1544,1.23006 0.004,0.1368 -0.016,0.27362 -0.012,0.41046 0.006,0.26058 0.0408,0.5197 0.0602,0.77964 0.0364,0.65128 0.0556,1.30304 0.0536,1.95546 0.016,0.58354 0.0252,1.16648 0.008,1.75 0.01,0.39956 0.0296,0.78654 -0.016,1.18382 -0.0262,0.35278 -0.0744,0.70294 -0.1254,1.05274 -0.0292,0.23648 -0.01,0.47546 -0.0492,0.7112 0.016,0.066 0.008,0.0956 0.096,0.118 0.4012,0.1014 0.82278,0.0906 1.2352,0.1248 0,0 0.1886,-0.012 0.1886,-0.012 v 0 c 0.26618,-0.0212 0.53286,-0.0366 0.79852,-0.0636 0.1304,-0.014 0.39182,0.01 0.42364,-0.1684 -0.0412,-0.2318 -0.0254,-0.46646 -0.0416,-0.7002 -0.0278,-0.35548 0.004,-0.70634 0.012,-1.06214 -0.044,-0.3956 -0.1056,-0.78964 -0.1228,-1.18806 -0.0376,-0.58246 -0.06,-1.16538 -0.0766,-1.74882 -0.02,-0.66116 -0.0298,-1.32408 -0.1416,-1.9778 -0.0322,-0.2126 -0.0818,-0.57894 -0.1378,-0.78694 -0.0372,-0.1384 -0.0986,-0.26958 -0.1372,-0.40764 -0.1118,-0.40002 -0.1608,-0.81532 -0.1934,-1.22808 0,0 -1.97538,0.0278 -1.97538,0.0278 z"
       id="path386"
       style="opacity:1;fill:#ff2a2a;fill-opacity:1;stroke:#ff2a2a;stroke-width:0.529998;stroke-linecap:round;stroke-opacity:1" />
  </g>
</svg>
