<?xml version="1.0" encoding="UTF-8" standalone="no"?>
<svg
   xmlns:dc="http://purl.org/dc/elements/1.1/"
   xmlns:cc="http://creativecommons.org/ns#"
   xmlns:rdf="http://www.w3.org/1999/02/22-rdf-syntax-ns#"
   xmlns:svg="http://www.w3.org/2000/svg"
   xmlns="http://www.w3.org/2000/svg"
   xmlns:sodipodi="http://sodipodi.sourceforge.net/DTD/sodipodi-0.dtd"
   xmlns:inkscape="http://www.inkscape.org/namespaces/inkscape"
   width="1200"
   height="600"
   viewBox="0 0 317.5 158.75"
   version="1.1"
   id="svg8"
   sodipodi:docname="fe-formula-one.svg"
   inkscape:version="1.0.1 (3bc2e813f5, 2020-09-07)">
  <sodipodi:namedview
     pagecolor="#ffffff"
     bordercolor="#666666"
     borderopacity="1"
     objecttolerance="10"
     gridtolerance="10"
     guidetolerance="10"
     inkscape:pageopacity="0"
     inkscape:pageshadow="2"
     inkscape:window-width="1920"
     inkscape:window-height="1061"
     id="namedview91"
     showgrid="false"
     inkscape:zoom="1.4"
     inkscape:cx="600"
     inkscape:cy="300"
     inkscape:window-x="0"
     inkscape:window-y="19"
     inkscape:window-maximized="0"
     inkscape:current-layer="svg8" />
  <defs
     id="defs2" />
  <metadata
     id="metadata5">
    <rdf:RDF>
      <cc:Work
         rdf:about="">
        <dc:format>image/svg+xml</dc:format>
        <dc:type
           rdf:resource="http://purl.org/dc/dcmitype/StillImage" />
        <dc:title></dc:title>
      </cc:Work>
    </rdf:RDF>
  </metadata>
  <path
     id="path597"
     style="fill:#b7bec8;fill-opacity:1;stroke:#b7bec8;stroke-width:0.264583px;stroke-linecap:butt;stroke-linejoin:miter;stroke-opacity:1"
     d="m 211.80774,81.67267 c -0.36039,0.47299 -1.1694,1.23484 -0.41157,1.74748 0.88624,0.57104 1.97481,0.69013 2.99645,0.8499 1.42846,0.18582 2.88373,0.19742 4.3091,0.32361 0.43204,0.30495 0.81283,0.1271 0.71358,-0.42147 0.28357,-0.57669 0.25509,-1.46406 -0.61139,-1.34395 -1.37376,-0.24462 -2.76779,-0.30096 -4.15838,-0.35808 -0.98353,-0.0766 -1.9887,-0.26964 -2.83779,-0.79749 z" />
  <path
     id="path193"
     style="fill:#b3b3b3;fill-opacity:1;stroke:#b3b3b3;stroke-width:0.264583px;stroke-linecap:butt;stroke-linejoin:miter;stroke-opacity:1"
     d="m 116.93003,30.656 c -0.81408,-1.96812 2.18108,-4.84604 4.18802,-4.04163 1.4906,1.25802 1.2516,3.50518 1.55162,5.24744 -0.22694,2.38859 -0.32097,4.77711 -0.25616,7.17682 0.036,3.47789 -0.69393,6.89091 -0.93423,10.34793 -0.71839,3.35714 -1.42263,6.79225 -3.11894,9.81366 -0.88444,0.89284 -2.68835,2.4797 -3.79192,1.58915 -0.88302,-1.82355 -1.35667,-3.84764 -1.44122,-5.96106 -0.14701,-4.14711 0.55595,-8.26075 1.17689,-12.3393 0.54142,-2.39649 1.09726,-4.84123 0.81286,-7.3129 0.0801,-1.64965 0.89506,-3.20289 1.81308,-4.52011 z" />
  <path
     id="path199"
     style="fill:#333333;fill-opacity:1;stroke:#333333;stroke-width:0.264583px;stroke-linecap:butt;stroke-linejoin:miter;stroke-opacity:1"
     d="m 120.43018,27.3618 c 1.82195,-1.47231 1.78556,3.66871 1.84054,5.08273 0.31178,4.13748 -0.28965,8.24359 -0.64561,12.349 -0.11704,3.60447 -0.49923,7.22122 -1.89657,10.57389 -0.42682,2.53626 -2.49147,4.14545 -3.65808,6.28022 -1.144,2.25993 1.4477,4.75499 3.06483,2.12951 3.86145,-4.32823 4.20286,-10.38969 5.28526,-15.82473 0.93227,-5.90329 1.85915,-11.83338 1.7861,-17.83022 0.42255,-2.85664 -0.60109,-5.61468 -0.63082,-8.45483 -0.74136,-2.30502 -0.63869,-6.79963 -3.4104,-7.21989 -1.99388,1.31485 -2.25348,4.08432 -2.45887,6.27755 0.4086,2.06604 -1.62812,5.49216 0.72362,6.63677 z" />
  <path
     id="path690"
     style="fill:#808080;fill-opacity:1;stroke:#808080;stroke-width:0.264583px;stroke-linecap:butt;stroke-linejoin:miter;stroke-opacity:1"
     d="m 125.44901,47.16413 c -0.60068,1.11301 -0.41667,2.48725 -0.13356,3.66375 0.44961,1.32782 2.10831,1.53617 3.14585,0.77183 1.3228,-0.83435 3.00858,-1.04988 4.51504,-0.67019 1.03856,0.3214 2.24193,1.06232 3.30114,0.44621 0.75435,-0.6774 1.18969,-1.65384 1.60352,-2.55066 0.0826,-0.96923 -1.05092,-1.19291 -1.75308,-1.44246 -1.21619,-0.39329 -2.54346,-0.45202 -3.6991,-1.01549 -0.5491,-0.52487 -1.1837,-1.37779 -2.04419,-0.86676 -1.51848,0.95185 -3.52898,0.4863 -4.93562,1.66377 z" />
  <path
     id="path219"
     style="fill:#373e48;fill-opacity:1;stroke:#373e48;stroke-width:0.264583px;stroke-linecap:butt;stroke-linejoin:miter;stroke-opacity:1"
     d="m 115.62364,50.24372 c 1.7224,-1.12904 3.60854,-2.09923 4.91488,-3.74316 0.92451,-0.93572 1.35649,-2.36153 2.66264,-2.87807 1.22386,-0.52556 2.54079,-0.83362 3.83473,-1.12064 1.12752,0.0455 0.64849,1.54702 1.17012,2.24851 0.21555,1.12778 -1.55964,1.26933 -1.68392,2.36871 -0.41409,1.41612 -0.78512,2.85223 -0.80713,4.337 -0.007,0.96247 -0.38588,2.4058 -1.63254,1.74111 -0.89945,-0.43864 -2.36047,-0.21806 -2.26172,1.04718 -0.22231,1.32573 -1.16843,2.46414 -2.20157,3.27677 -1.49104,0.9648 -3.18699,1.62513 -4.94759,1.87872 -1.00146,-0.56863 -0.52671,-1.95049 -0.42804,-2.87439 0.3939,-2.00793 0.69348,-4.03817 1.31366,-5.99326 l 0.0343,-0.14398 z" />
  <path
     id="path205"
     style="fill:#333333;fill-opacity:1;stroke:#333333;stroke-width:0.264583px;stroke-linecap:butt;stroke-linejoin:miter;stroke-opacity:1"
     d="m 112.19743,23.23574 c 0.54596,-3.67305 1.97844,-7.16265 2.86186,-10.74579 0.24685,-3.13365 4.32587,-6.00186 5.98709,-1.93005 1.56872,2.39508 4.00507,5.14272 2.40231,8.18877 -1.90079,3.67665 -2.37518,7.89523 -4.12714,11.64197 -1.43673,4.76551 -2.36609,9.68833 -2.36624,14.67083 -0.12667,3.20062 -1.53936,6.59612 -0.0786,9.66914 -0.296,2.92013 4.16419,4.72928 1.93446,7.8672 -1.58307,2.78511 -3.79528,5.17727 -5.64929,7.7796 -1.74553,2.27639 -5.54393,2.40804 -6.60097,-0.59586 -1.90832,-4.74746 0.0295,-9.92858 0.0482,-14.83381 1.66195,-10.5088 2.98914,-21.11063 5.44858,-31.45855 l 0.0966,-0.17519 0.0432,-0.0783 z" />
  <path
     id="path225"
     style="fill:#373e48;stroke:#373e48;stroke-width:0.264583px;stroke-linecap:butt;stroke-linejoin:miter;stroke-opacity:1"
     d="m 124.85467,35.94668 c 0.60422,-0.64406 1.6936,-0.88603 2.46083,-0.41155 0.66945,0.43301 0.57955,1.18308 0.10134,1.7106 0.21806,0.70168 1.69056,0.64612 1.43506,1.63761 -0.39407,1.08376 -1.47202,0.3408 -2.07862,-0.0808 -0.77799,-0.32692 -1.06576,0.71379 -1.45357,1.1726 -0.45919,0.75685 -1.24467,1.24349 -1.67292,2.02763 -0.50323,0.73104 -0.92576,1.48456 -1.46802,2.17472 -0.36756,0.89914 -1.46858,0.61392 -2.13798,0.2641 -0.7175,-0.24264 -1.46227,-0.87294 -2.25192,-0.56748 -0.91869,0.54384 -0.81412,-1.08022 -0.53453,-1.53844 0.42621,-0.54194 0.51646,-1.25231 0.84872,-1.84457 0.20517,-0.92368 0.62015,-1.83209 1.49868,-2.29565 0.89233,-0.48735 1.66045,-1.15554 2.53652,-1.65634 0.84705,-0.35213 1.77744,-0.77322 2.71641,-0.59243 z" />
  <path
     id="path231"
     style="fill:#b7bec8;fill-opacity:1;stroke:#b7bec8;stroke-width:0.264583px;stroke-linecap:butt;stroke-linejoin:miter;stroke-opacity:1"
     d="m 124.63283,38.05408 c 0.42965,-0.59505 1.62406,-0.50495 1.6663,0.34761 0.26194,1.14093 0.61475,2.24868 1.11064,3.30986 0.5839,1.56524 0.23365,3.2962 0.77322,4.87592 0.254,1.37746 1.03736,2.62442 1.0626,4.05078 0.48231,1.16355 -0.88174,1.38357 -1.5661,1.85537 -0.21154,0.28202 -0.66751,1.0688 -0.60128,0.20471 0.0254,-1.54633 -0.70019,-2.96361 -0.78892,-4.49407 -0.23574,-0.88269 -0.47707,-1.76768 -0.47056,-2.69048 -0.009,-1.18055 -0.49576,-2.26485 -0.66762,-3.41829 -0.13198,-0.78958 -0.41615,-1.53924 -0.73851,-2.26566 -0.1918,-0.6172 0.18657,-1.17695 0.22023,-1.77575 z" />
  <path
     id="path237"
     style="fill:#1a1a1a;fill-opacity:1;stroke:#1a1a1a;stroke-width:0.264583px;stroke-linecap:butt;stroke-linejoin:miter;stroke-opacity:1"
     d="m 119.86326,37.47732 c 0.22823,0.75404 1.16514,0.74498 1.31888,-0.0534 0.69338,-0.92337 1.08839,-2.00457 1.46935,-3.08061 0.50735,-1.37486 1.75935,-2.21736 2.81978,-3.13924 1.00509,-0.8983 2.39626,-0.35001 3.4974,0.0291 1.09366,0.26307 1.89895,1.08742 2.43771,2.038 0.60606,1.00234 1.4323,1.83964 2.04995,2.83329 0.68001,0.90354 0.46189,-1.04664 0.28194,-1.49703 -0.47884,-1.427 -1.44682,-2.62337 -2.46752,-3.70071 -0.77272,-0.59832 -1.58057,-1.17214 -2.57283,-1.31809 -1.06617,-0.4004 -2.37915,-0.78729 -3.40825,-0.0884 -1.58907,0.9444 -2.28335,2.72567 -3.16693,4.25067 -0.50828,0.68774 -0.92992,1.42658 -1.25299,2.22024 -0.25663,0.5479 -0.55614,1.0922 -1.00649,1.50619 z" />
  <path
     id="path289"
     style="fill:#333333;fill-opacity:1;stroke:#333333;stroke-width:0.264583px;stroke-linecap:butt;stroke-linejoin:miter;stroke-opacity:1"
     d="m 91.208859,13.78094 c 2.80283,-1.44414 6.457311,-9.01958 8.844391,-5.98326 -2.380466,5.79046 -4.553699,11.67969 -6.141145,17.73039 -1.113517,6.0197 -1.752458,12.11536 -3.389452,18.02401 -1.076406,7.47852 -1.236527,15.09609 -1.126496,22.63059 -0.133365,5.50633 2.949329,10.91329 3.018297,15.92981 -5.323422,0.8793 -7.395993,-6.74102 -8.506752,-10.89064 -2.668024,-7.66825 -1.542882,-15.95325 -1.522868,-23.90259 1.186892,-7.30822 1.46718,-14.80072 3.378315,-21.9828 1.836031,-3.73049 2.268443,-8.868 5.44571,-11.55551 z" />
  <path
     id="path296"
     style="fill:#1a1a1a;fill-opacity:1;stroke:#1a1a1a;stroke-width:0.264583px;stroke-linecap:butt;stroke-linejoin:miter;stroke-opacity:1"
     d="m 96.311192,12.08393 c 0.55204,-3.52827 2.45817,-8.11259 6.932558,-6.85923 5.17946,0.48068 10.19722,1.88327 15.31657,2.67204 4.67641,1.32134 0.70977,5.66899 -0.6219,8.12838 -1.55443,4.25189 -3.68564,8.37905 -3.82103,13.01147 -1.55767,8.00789 -3.28859,15.9904 -3.68644,24.16656 -0.60802,7.83268 -1.48144,15.64242 -1.66042,23.49915 -1.70865,3.86362 -6.84763,2.46914 -10.150792,3.70616 -3.648095,1.91426 -8.821759,2.17707 -8.516397,-3.43883 -0.80909,-5.80768 -3.400495,-11.22276 -3.490803,-17.14161 -0.425921,-8.32608 -0.315434,-16.73312 1.744277,-24.86548 1.326918,-5.14892 2.122735,-10.46735 4.3736,-15.31759 1.218495,-2.51308 1.226669,-5.72775 3.580777,-7.56102 z" />
  <path
     id="path506"
     style="fill:#b7bec8;fill-opacity:1;stroke:#b7bec8;stroke-width:0.264583px;stroke-linecap:butt;stroke-linejoin:miter;stroke-opacity:1"
     d="m 66.73525,100.01401 c 5.322457,-0.053 10.51322,1.26226 15.788324,1.75988 2.339602,0.28319 4.67943,0.58039 6.996957,1.01281 0.773468,1.27791 0.09246,2.95253 -1.540694,2.23024 -2.1559,-0.0415 -4.221522,-0.74027 -6.371772,-0.86856 -3.276943,-0.34047 -6.409151,-1.42616 -9.685501,-1.76822 -1.670082,-0.58391 -4.19242,0.18322 -5.209264,-1.58921 -0.06329,-0.25392 -0.07947,-0.53098 0.02195,-0.77694 z" />
  <path
     id="path513"
     style="fill:#b7bec8;fill-opacity:1;stroke:#b7bec8;stroke-width:0.264583px;stroke-linecap:butt;stroke-linejoin:miter;stroke-opacity:1"
     d="m 66.562707,102.60944 c 2.244465,1.20789 4.819692,1.52143 7.141594,2.54737 2.523118,0.90623 4.882547,2.27239 7.552791,2.72689 1.929076,0.51412 3.970497,0.61104 5.816776,1.39541 1.959439,0.0976 0.437291,-2.95838 -0.914716,-3.02572 -2.627168,-0.85698 -5.516631,-0.89645 -7.983357,-2.25156 -2.989754,-1.49053 -6.350316,-1.92934 -9.410747,-3.24309 -1.643384,-0.72498 -3.02269,1.21314 -1.894227,2.59385" />
  <path
     id="path31"
     style="fill:#0055d4;fill-opacity:1;stroke:#0055d4;stroke-width:0.264583px;stroke-linecap:butt;stroke-linejoin:miter;stroke-opacity:1"
     d="m 88.759775,99.39473 c 2.185463,-6.80551 6.608451,-12.85727 6.113365,-20.32274 2.636657,-7.86149 12.63359,-5.68664 17.1229,-11.90418 6.94035,-6.9043 12.73991,-15.01143 21.49462,-19.96024 8.63355,-4.58393 13.32643,-14.72616 23.58013,-16.52204 8.18045,-1.50421 16.31871,-3.3279 23.8893,-6.9076 8.0019,-3.69992 20.29916,-3.83464 24.29621,5.59867 2.02193,6.62667 6.25522,11.94492 10.71114,17.09784 5.73262,6.49626 3.2309,15.55542 2.20719,23.22501 -2.03163,11.66802 -12.27308,18.48085 -18.70609,27.58413 -4.59318,6.71348 -9.66788,13.30199 -17.24241,16.88438 -6.46583,3.89858 -11.50806,10.31189 -18.41925,13.39682 -12.18211,3.05062 -24.75814,1.88818 -37.15436,1.65198 -11.24757,-2.73237 -24.33393,-0.51011 -33.661252,-8.745 -7.918072,-5.20921 -6.209894,-13.23213 -4.231493,-21.07703 z" />
  <path
     id="path583"
     style="fill:#373e48;fill-opacity:1;stroke:#373e48;stroke-width:0.264583px;stroke-linecap:butt;stroke-linejoin:miter;stroke-opacity:1"
     d="m 200.13002,97.23303 c 1.56043,-0.66684 2.16603,-2.37352 3.18233,-3.5992 0.42373,-0.63014 1.23184,-0.80544 1.66574,-1.40208 0.19284,-0.37501 0.5792,-0.36542 0.45748,0.10588 0.0125,1.06686 -0.0291,2.13474 -0.0441,3.20067 -0.10699,0.88897 -0.5781,1.72784 -1.21837,2.34194 -0.51536,0.36118 -1.17677,0.4005 -1.75845,0.61388 -0.5747,0.16336 -1.15375,0.31537 -1.74304,0.41662 -0.46982,-0.21305 -0.84393,-0.80505 -0.74877,-1.31571 0.0508,-0.13033 0.13587,-0.24339 0.20717,-0.362 z" />
  <path
     id="path45"
     style="fill:#003380;stroke:#003380;stroke-width:0.264583px;stroke-linecap:butt;stroke-linejoin:miter;stroke-opacity:1"
     d="m 201.6766,72.64185 c 1.99508,-2.15573 3.80875,-4.47866 6.08144,-6.3583 2.30169,-1.43679 2.734,-6.971 5.92612,-5.6639 0.75087,4.74692 -0.85118,9.50965 -1.23085,14.25257 -0.27411,4.49583 -0.9258,9.26093 -4.01974,12.78717 -2.79236,2.87541 -5.03569,6.19763 -7.28668,9.48678 -2.11202,2.37741 -3.34385,5.36631 -5.60336,7.6413 -2.29346,3.43874 -5.05589,6.7887 -9.06874,8.26422 -1.57606,0.47069 -6.90933,3.65693 -4.08776,0.0414 2.85014,-3.50468 3.97246,-7.98929 3.48144,-12.44654 -0.12594,-4.13875 -0.3105,-8.32404 0.12002,-12.43731 1.57516,-3.02129 5.49254,-4.1504 7.16343,-7.35327 2.34459,-2.93898 5.89102,-4.51294 8.40059,-7.26511 l 0.13303,-0.46357 -0.009,-0.48549 z" />
  <path
     id="path59"
     style="fill:#dbdbe3;fill-opacity:1;stroke:#dbdbe3;stroke-width:0.264583px;stroke-linecap:butt;stroke-linejoin:miter;stroke-opacity:1"
     d="m 187.01046,13.90088 c 2.25976,-0.71845 4.14683,-2.4078 6.55207,-2.70273 0.91794,-0.38303 1.57126,0.49063 1.18092,1.33353 -0.28269,1.46027 -1.02915,2.81059 -1.06396,4.32379 -0.19352,1.72049 0.0592,3.46374 -0.15338,5.17802 -0.28743,1.43677 -1.11665,2.69122 -2.03732,3.79983 -0.15389,0.39114 -0.59408,1.06991 -0.50937,0.25157 -0.22824,-2.53827 -1.79637,-4.65347 -2.64893,-6.99332 -0.54236,-1.22217 -1.04499,-2.5001 -1.03497,-3.85947 -0.0374,-0.45287 -0.10328,-0.91107 -0.28506,-1.33122 z" />
  <path
     id="path65"
     style="fill:#939dac;fill-opacity:1;stroke:#939dac;stroke-width:0.264583px;stroke-linecap:butt;stroke-linejoin:miter;stroke-opacity:1"
     d="m 182.96804,13.52377 c 0.0362,-1.19166 1.19633,-1.82458 1.93754,-2.59083 0.66765,-0.55359 1.33808,-1.1919 2.16368,-1.47847 1.18533,-0.0871 2.31915,0.40688 3.4422,0.71482 1.14057,0.41147 2.30642,0.81847 3.53304,0.8176 1.25996,0.0968 0.53753,1.75072 -0.34846,1.88625 -1.0574,0.3339 -2.02532,0.86521 -2.99205,1.39887 -1.7951,0.78307 -3.64485,1.94882 -5.68786,1.6039 -1.16889,-0.25902 -1.4618,-1.49373 -2.04809,-2.35214 z" />
  <path
     id="path72"
     style="fill:#939dac;stroke:#939dac;stroke-width:0.264583px;stroke-linecap:butt;stroke-linejoin:miter;stroke-opacity:1"
     d="m 196.40172,22.86287 c 1.07218,-0.37543 2.246,-0.005 3.13507,0.63657 0.65585,0.43757 1.30445,0.89503 2.00697,1.25218 0.25314,0.40919 0.71025,0.5809 1.03608,0.14006 0.44116,-0.4209 0.99992,-0.65307 1.54887,-0.8932 0.58835,-0.25354 0.16812,-0.90488 -0.006,-1.30044 -0.57498,-1.05392 -1.21818,-2.08294 -1.9965,-2.99914 -0.69057,-0.66694 -1.7671,-0.59257 -2.62892,-0.36507 -0.71354,0.18433 -1.42171,0.6238 -1.65263,1.36215 -0.10488,0.46962 -0.53356,0.79563 -1.02018,0.68479 -0.53916,-0.18524 -1.1821,0.20069 -0.78775,0.791 0.11953,0.23129 0.23513,0.46584 0.36544,0.6911 z" />
  <path
     id="path78"
     style="fill:#000000;stroke:#000000;stroke-width:0.264583px;stroke-linecap:butt;stroke-linejoin:miter;stroke-opacity:1"
     d="m 199.63072,29.51781 c 0.80446,-0.001 1.43116,-0.62252 2.11299,-0.96917 0.65536,-0.26658 1.6728,-1.64878 2.15442,-0.54159 0.33819,0.84857 0.15357,1.89929 0.83895,2.60132 0.74299,0.94858 0.45023,2.29777 1.16274,3.27763 0.63809,1.22678 1.16685,2.78374 2.57138,3.31924 0.99394,0.31439 -0.47964,1.15017 -0.73257,1.56072 -0.6545,0.47231 -1.56403,1.80035 -2.42135,1.20314 -0.4489,-0.88842 -0.47038,-1.92876 -0.86835,-2.84347 -0.80892,-2.08666 -1.63899,-4.2351 -3.10639,-5.9591 -0.60864,-0.51508 -1.32923,-0.91375 -1.71182,-1.64872 z" />
  <path
     id="path84"
     style="fill:#808080;stroke:#808080;stroke-width:0.264583px;stroke-linecap:butt;stroke-linejoin:miter;stroke-opacity:1"
     d="m 217.62445,48.55096 c 0.43952,-0.21729 0.89179,-0.47326 1.39331,-0.48842 0.23231,-0.003 0.40508,0.18814 0.44476,0.40485 0.10128,0.4416 0.0657,0.90107 0.13505,1.34768 0.0193,0.23675 0.11199,0.45898 0.16997,0.68433 -0.0301,0.21174 -0.21712,0.35484 -0.33528,0.52038 -0.12396,0.19218 -0.38683,0.3687 -0.53359,0.0975 -0.32125,-0.37234 -0.50642,-0.84316 -0.85107,-1.19654 -0.30362,-0.36524 -0.393,-0.84622 -0.41853,-1.30743 l -0.002,-0.0312 z" />
  <path
     id="path90"
     style="fill:#1a1a1a;fill-opacity:1;stroke:#1a1a1a;stroke-width:0.264583px;stroke-linecap:butt;stroke-linejoin:miter;stroke-opacity:1"
     d="m 220.13865,49.34955 c 2.62316,0.51756 5.42228,1.23644 7.94733,-0.0719 1.95464,-1.01359 4.07272,-1.64767 6.01269,-2.67334 1.80218,-1.08045 3.78648,-1.7154 5.62971,-2.72358 2.62976,-1.46531 5.69622,-2.82748 8.73325,-1.75595 1.50718,0.27168 4.65871,2.32146 3.3004,3.67499 -2.33287,-0.9456 -4.06594,-3.72666 -6.90687,-3.131 -2.82122,0.70692 -5.14656,2.64652 -7.97607,3.3804 -2.78712,1.1899 -5.17048,3.20592 -8.078,4.16211 -2.04606,0.77033 -4.20467,1.44904 -6.39401,1.52651 -1.10305,0.32475 -6.94451,-2.14177 -2.26843,-2.38824 z" />
  <path
     id="path97"
     style="fill:#b7bec8;stroke:#b7bec8;stroke-width:0.264583px;stroke-linecap:butt;stroke-linejoin:miter;stroke-opacity:1"
     d="m 218.80761,52.0559 c 1.12215,-1.76184 2.2634,0.83258 3.6304,0.42698 1.78471,-0.30721 3.55347,-0.80104 5.38548,-0.73917 3.47796,0.007 6.9039,-0.93386 10.39327,-0.64032 1.23868,-0.0228 2.42,-0.57293 3.68154,-0.37272 1.51504,0.3557 3.60574,-0.55747 4.7692,0.17671 0.27588,2.07092 -1.93789,1.57374 -3.21598,1.39785 -1.44853,0.10896 -2.88864,0.30149 -4.34436,0.12487 -2.38091,0.0243 -4.74103,0.41226 -7.11567,0.5813 -2.56752,0.31504 -5.13319,0.63162 -7.71097,0.8513 -1.39718,0.2062 -2.80964,0.45199 -4.05757,1.14238 -1.82385,0.70597 -1.25291,-2.00227 -1.41534,-2.94918 z" />
  <path
     id="path103"
     style="fill:#000000;stroke:#000000;stroke-width:0.264583px;stroke-linecap:butt;stroke-linejoin:miter;stroke-opacity:1"
     d="m 219.49777,59.48725 c 0.65389,-0.58862 1.10145,-1.39111 1.88322,-1.84091 0.80881,-0.5707 1.73837,-0.98135 2.7205,-1.13016 0.38268,-0.19545 1.40702,-0.93157 0.75211,-0.0391 -0.34223,0.3868 -0.65423,1.07268 0.16052,0.79874 0.34502,0.0561 0.73051,-0.53115 0.60471,-0.16184 0.36243,0.23559 1.13277,0.0277 0.74165,0.73527 -0.33887,0.56656 -0.0916,0.6666 0.48016,0.51896 -0.0254,0.36888 0.13316,0.40809 0.53083,0.4108 0.19469,0.7304 1.40025,-0.47825 0.85869,0.51192 -0.45328,0.97072 -1.21548,1.77715 -1.5323,2.81858 -0.42199,1.21001 -1.0277,2.36779 -1.88432,3.32633 -0.63219,0.36715 -0.95257,1.00935 -1.37994,1.5685 -0.52531,0.21107 -0.23398,-1.06303 -0.316,-1.46657 0.0997,-0.368 0.10669,-1.1334 -0.14223,-0.36799 -0.45211,0.59685 -0.0428,-0.73888 0.0226,-0.9995 0.0249,-1.31709 -1.31929,0.94748 -1.41409,0.0274 0.18081,-0.43792 0.11691,-1.15902 -0.48719,-0.75009 -0.72003,0.18033 -0.18078,-1.71655 -0.99057,-0.84691 -0.15616,0.41886 -0.74347,0.654 -0.49588,0.0246 0.28932,-1.06888 -1.48778,-0.006 -1.06006,-0.91593 0.55786,-0.46607 0.63871,-1.26512 0.87647,-1.91458 l 0.0371,-0.15364 0.0341,-0.15392 z" />
  <path
     id="path109"
     style="fill:#808080;stroke:#808080;stroke-width:0.264583px;stroke-linecap:butt;stroke-linejoin:miter;stroke-opacity:1"
     d="m 227.3115,57.73478 c -1.2392,2.23627 -2.37411,4.59906 -2.69349,7.16417 -0.19335,0.66366 -1.09168,1.81802 0.0553,2.06261 2.30317,0.4197 4.59268,-0.57244 6.90812,-0.29617 1.50284,0.12097 3.01225,0.008 4.51317,0.0737 1.69224,0.23021 3.34878,0.94113 5.08113,0.66786 1.14153,-0.0769 0.99579,-1.52494 0.98629,-2.34281 -0.11558,-1.72052 -0.77114,-3.52529 -0.0124,-5.19172 0.43135,-1.58879 -1.56594,-1.02885 -2.47474,-1.29025 -2.61782,-0.54166 -5.30704,-0.90561 -7.97797,-0.56358 -1.34868,0.18578 -2.6743,-0.0997 -3.99154,-0.31233 -0.13175,-0.002 -0.26384,0.007 -0.39384,0.0285 z" />
  <path
     id="path115"
     style="fill:#373e48;fill-opacity:1;stroke:#373e48;stroke-width:0.264583px;stroke-linecap:butt;stroke-linejoin:miter;stroke-opacity:1"
     d="m 241.46,57.97879 c -0.37974,1.28008 -1.03069,2.67994 -0.45971,4.0057 0.33493,1.51751 0.26245,3.08539 0.33674,4.6216 0.5155,1.2607 2.22339,0.0248 3.20102,-0.0231 1.06853,-0.31424 1.82859,-1.4824 3.06898,-1.21681 0.99509,-0.0434 2.06423,0.83782 2.83208,0.84664 0.54781,-1.3582 0.81835,-2.82477 0.899,-4.28118 -0.25384,-1.12326 -1.54289,-1.46188 -2.3184,-2.15094 -1.18922,-0.78458 -1.70975,-2.43148 -3.22447,-2.72868 -0.82636,0.0471 -2.06915,-0.62529 -2.56002,0.36719 -0.38504,0.57994 -0.35435,1.81474 -0.51184,2.09127 -0.45551,-0.48237 -0.71014,-1.13994 -1.26338,-1.53174 z" />
  <path
     id="path122"
     style="fill:#808080;stroke:#808080;stroke-width:0.264583px;stroke-linecap:butt;stroke-linejoin:miter;stroke-opacity:1"
     d="m 218.43787,62.30451 c 0.98088,-1.47609 1.80646,-3.12209 3.19019,-4.27191 0.71361,-0.36342 1.52506,-0.47602 2.27659,-0.74707 0.6145,-0.1872 1.22855,-0.38568 1.80858,-0.66466 -0.25015,-0.69193 -1.16484,-0.80144 -1.72405,-1.17648 -0.63991,-0.33728 -1.48575,-0.57017 -1.8328,-1.2377 -0.31421,-0.66262 -1.48108,-0.72877 -1.71261,0.0407 -0.22453,0.6462 -0.48403,1.3374 -1.12359,1.68775 -1.14013,0.74815 -2.73006,0.88498 -3.50988,2.11831 -0.48997,1.01371 -0.47119,2.33455 0.19315,3.26577 0.42275,0.64938 1.50068,0.0486 1.73987,0.86082 -0.0803,0.32279 0.51993,0.0913 0.69455,0.12449 z" />
  <path
     id="path128"
     style="fill:#373e48;fill-opacity:1;stroke:#373e48;stroke-width:0.264583px;stroke-linecap:butt;stroke-linejoin:miter;stroke-opacity:1"
     d="m 244.49181,51.14638 c 0.44663,-0.72858 1.24267,-1.14013 1.89762,-1.65649 0.49537,-0.42669 1.29066,-0.81055 1.57551,0.0491 0.21755,0.76501 0.77666,1.21432 1.4013,1.61932 0.40365,0.57143 1.00247,0.92943 1.57517,1.31069 0.65293,0.29268 0.26463,1.07811 0.26916,1.62812 -0.26036,1.76381 -0.80283,3.56059 -0.39631,5.3456 -0.0286,0.74861 -0.9603,-0.22674 -1.05728,-0.62221 -0.25725,-0.61002 -0.63701,-1.15341 -1.11142,-1.61374 -0.88299,-1.0656 -1.33557,-2.43462 -2.29203,-3.44062 -0.19071,0.37956 -0.69269,1.48798 -1.22861,0.68604 -0.42426,-0.34016 -1.17151,-0.49367 -1.00037,-1.21231 0.008,-0.71429 0.26621,-1.39222 0.36726,-2.09347 z" />
  <path
     id="path134"
     style="fill:#b7bec8;fill-opacity:1;stroke:#b7bec8;stroke-width:0.264583px;stroke-linecap:butt;stroke-linejoin:miter;stroke-opacity:1"
     d="m 212.71932,65.14395 c -1.02823,1.59692 -1.18679,3.63243 -2.26791,5.24284 0.51492,3.38633 2.84896,-1.1239 4.57689,-1.35367 1.59957,-0.65571 3.10181,-1.57367 4.63265,-2.36173 3.1513,-2.01043 6.84549,-2.97192 9.94743,-5.07081 2.54855,-1.28214 4.85215,-3.04069 7.45895,-4.25011 2.61539,-1.1633 5.04661,-2.70917 7.73403,-3.68656 1.81504,-0.31883 2.35569,-4.26084 -0.056,-2.71543 -1.54889,1.57043 -3.32364,2.99123 -5.40723,3.89752 -2.20905,0.66758 -4.53419,1.21732 -6.389,2.6683 -3.09774,1.51944 -6.2609,2.92786 -9.15351,4.82213 -2.13622,0.92366 -4.4637,1.36574 -6.44219,2.65508 -1.50317,1.39167 -3.05611,1.68547 -4.63414,0.15244 z" />
  <path
     id="path140"
     style="fill:#ececec;fill-opacity:1;stroke:#ececec;stroke-width:0.264583px;stroke-linecap:butt;stroke-linejoin:miter;stroke-opacity:1"
     d="m 197.68346,56.24851 c -0.76001,-2.10237 1.36634,-3.46187 2.64147,-4.63509 1.96875,-0.24701 3.03099,2.01662 4.57848,2.93464 1.97016,1.69763 3.46277,3.92401 4.11918,6.448 0.96882,1.61504 0.64976,3.5725 1.55468,5.20078 1.01651,1.57171 -0.82664,3.34629 0.54061,4.81998 1.40717,1.97885 0.66927,4.64127 0.40747,6.87821 -0.84478,2.36855 -0.52528,5.0323 -1.66894,7.30098 -0.83233,1.32259 -3.83483,4.43425 -4.78689,1.85373 -0.75244,-3.80741 2.4555,-7.54217 0.64622,-11.26596 -0.95819,-1.71121 -1.86209,-3.44371 -2.20513,-5.39867 -0.74786,-2.58655 -2.74361,-4.51205 -4.08386,-6.78902 -1.65759,-1.68243 -2.82724,-3.95595 -1.9931,-6.35052 0.0734,-0.33474 0.15883,-0.66671 0.24981,-0.99706 z" />
  <path
     id="path146"
     style="fill:#000000;stroke:#000000;stroke-width:0.264583px;stroke-linecap:butt;stroke-linejoin:miter;stroke-opacity:1"
     d="m 203.54428,60.99801 c 0.58828,0.55659 2.23181,2.20567 2.19323,1.88745 -0.66452,-2.00145 2.0657,-1.98966 2.25035,-0.2494 0.77963,2.4349 1.31378,4.96224 1.24934,7.53301 0.0491,3.04952 -0.52312,6.08035 -0.3016,9.12706 0.37824,2.12127 -1.00078,4.16249 -0.81863,6.09153 0.96894,-0.65815 2.05691,-1.97817 1.56553,-3.36719 -0.66465,0.68872 0.20232,-1.49401 -0.18937,-1.92236 -0.3178,-2.06696 0.031,-4.12165 0.35144,-6.15534 0.0241,-3.46582 0.52134,-7.11947 -0.97324,-10.38061 -0.28038,-1.34695 -0.624,-2.77749 -1.87111,-3.55849 -0.72837,-1.07031 -1.48288,-2.12842 -2.72741,-2.63852 -1.17633,-1.06354 -2.48952,-0.44662 -2.08727,1.16241 0.0829,0.96446 0.50723,1.94767 1.35874,2.47045 z" />
  <path
     id="path152"
     style="fill:#000000;stroke:#000000;stroke-width:0.264583px;stroke-linecap:butt;stroke-linejoin:miter;stroke-opacity:1"
     d="m 199.95382,60.10392 c 0.45838,0.42985 0.8485,-1.49393 1.37331,0.008 1.24423,1.44028 1.71531,3.40714 3.19219,4.6771 2.34176,2.45281 2.33999,5.97785 2.98963,9.09385 0.59058,2.18706 0.51433,4.49836 0.62571,6.74188 -0.95416,1.59857 -0.0784,3.70137 -1.27837,5.01648 -1.11706,-0.81834 0.4376,-2.79308 0.027,-4.1275 0.0779,-2.97985 -0.53105,-5.91491 -0.63786,-8.88235 -0.3443,-1.82748 -0.80788,-3.66417 -1.61301,-5.34595 -0.98234,-1.72772 -2.24477,-3.28188 -3.21887,-5.0095 -0.52875,-0.69036 -1.2053,-1.31413 -1.45971,-2.172 z" />
  <path
     id="path159"
     style="fill:#333333;stroke:#333333;stroke-width:0.264583px;stroke-linecap:butt;stroke-linejoin:miter;stroke-opacity:1"
     d="m 252.25483,35.38347 c 1.7354,-2.72973 3.94078,-5.18204 6.56313,-7.05642 1.76398,0.48456 -0.67268,4.17014 -0.74816,5.9559 -1.22291,4.14645 -1.52418,8.52975 -2.42044,12.74423 -0.36452,5.70476 -1.95744,11.31056 -1.49617,17.06708 -0.004,4.14615 0.15789,8.28736 0.94861,12.3692 0.68479,2.74148 -0.29803,5.57109 0.37251,8.26509 0.82795,1.66989 0.0246,3.50671 -0.90078,1.10373 -2.30584,-3.64039 -1.56743,-8.15958 -3.02526,-12.09502 -1.27483,-4.08721 -2.77909,-8.31754 -1.97957,-12.66173 0.82952,-4.13929 1.31536,-8.3007 1.49262,-12.50876 1.06329,-4.33891 0.96772,-8.76158 1.19351,-13.1833 z" />
  <path
     id="path165"
     style="fill:#b3b3b3;stroke:#999999;stroke-width:0.264583px;stroke-linecap:butt;stroke-linejoin:miter;stroke-opacity:1"
     d="m 284.10127,43.74652 c 0.0161,-1.65569 2.42182,-3.08976 1.69967,-0.43518 -0.33409,2.47143 -0.88452,4.93988 -0.49608,7.44406 0.28415,3.08189 0.19886,6.19621 -0.50891,9.21674 -0.71376,4.56861 0.0657,9.18913 -0.2025,13.76816 -0.4468,3.13786 -1.75927,6.06964 -2.20234,9.21445 0.0328,1.48348 -1.65729,5.34383 -2.33184,2.07399 -0.62713,-6.09371 0.72675,-12.17587 0.41344,-18.27685 -0.10668,-3.92321 0.75541,-7.77441 1.28063,-11.64191 0.5495,-3.821 3.19328,-7.42151 2.34793,-11.36346 z" />
  <path
     id="path175"
     style="fill:#333333;stroke:#333333;stroke-width:0.264583px;stroke-linecap:butt;stroke-linejoin:miter;stroke-opacity:1"
     d="m 278.07613,34.87847 c 0.88943,-2.70754 1.10756,-7.595 4.22146,-8.16453 2.53395,2.67652 4.92605,6.17551 5.79032,9.89773 -0.34338,3.58235 -2.2162,6.91267 -2.7933,10.51326 -1.28275,6.26402 -1.25459,12.70554 -2.47145,18.99169 -1.55362,7.42114 -0.42901,15.01806 -0.73934,22.51826 -0.10226,4.07179 1.07032,8.99866 -1.85012,12.34389 -2.13088,2.18005 -6.64291,8.19673 -7.79706,1.98391 -1.23308,-11.46586 -1.66625,-23.05786 -0.48849,-34.54987 0.61207,-8.67586 1.34705,-17.38689 3.52286,-25.8223 0.62528,-2.59154 0.44542,-5.81045 2.60512,-7.71204 z" />
  <path
     id="path181"
     style="fill:#333333;stroke:#333333;stroke-width:0.264583px;stroke-linecap:butt;stroke-linejoin:miter;stroke-opacity:1"
     d="m 286.1733,34.701 c 3.15314,1.36006 1.84073,5.60876 1.93984,8.2857 -0.32978,6.28355 -0.29455,12.58597 -1.2461,18.82318 -0.3876,4.64452 -0.58992,9.2813 -0.79196,13.93569 -0.73092,3.61548 -0.72564,7.29566 -1.14155,10.94162 -1.21697,3.25262 -0.61646,7.00009 -2.51758,10.013 -0.2469,2.1574 -2.82909,5.48659 -3.12771,1.52407 -0.70421,-4.79844 0.30456,-9.6463 1.99502,-14.13397 1.23553,-3.45445 1.81962,-7.05728 1.97728,-10.71396 0.43403,-7.47701 1.50696,-14.91929 1.60386,-22.41775 0.64303,-4.04677 0.31358,-8.1574 0.13788,-12.22392 -0.13054,-1.39587 -0.24664,-3.21603 1.17102,-4.03366 z" />
  <path
     id="path187"
     style="fill:#1a1a1a;stroke:#1a1a1a;stroke-width:0.264583px;stroke-linecap:butt;stroke-linejoin:miter;stroke-opacity:1"
     d="m 257.03983,32.75877 c -0.15849,-3.64592 3.17219,-6.66875 6.33945,-7.83276 4.56031,-0.97756 9.34517,-0.82253 13.97001,-0.42652 4.79106,0.28547 7.39258,4.76775 4.76543,8.88979 -1.39401,6.86678 -3.49528,13.57795 -4.27236,20.5546 -1.76937,6.9874 -1.70385,14.20388 -2.67577,21.30791 0.14071,5.95608 -0.11012,12.01004 0.64648,17.89707 -0.0436,3.94009 3.6612,9.55332 -0.21631,12.14151 -4.47051,0.98926 -10.19482,1.99943 -13.8805,-1.43162 -3.01018,-2.99708 -3.31572,-7.50805 -5.29271,-11.1196 -2.6647,-6.64534 -1.34487,-13.92625 -2.60116,-20.8244 0.10664,-4.92272 -1.39501,-9.78197 -0.38405,-14.65923 1.02324,-4.94468 1.17437,-9.99899 2.06966,-14.92918 0.99778,-3.09835 1.33814,-6.33266 1.53183,-9.56757 z" />
  <path
     id="path243"
     style="fill:#dbdbe3;fill-opacity:1;stroke:#dbdbe3;stroke-width:0.264583px;stroke-linecap:butt;stroke-linejoin:miter;stroke-opacity:1"
     d="m 128.62596,35.20354 c 1.23107,-1.41875 3.1575,-2.53194 5.08501,-2.06736 1.25005,0.59529 2.20991,1.63564 3.3559,2.39252 1.10443,0.91792 1.68752,2.5049 1.10135,3.87278 -0.44378,1.32774 -1.09202,2.58793 -1.79278,3.79294 -0.88216,1.20311 -2.53666,2.09683 -4.00795,1.43645 -1.24101,-0.3541 -2.73565,-0.70334 -3.25093,-2.05029 -0.76129,-1.15593 -1.92483,-2.32006 -1.63434,-3.8353 0.0371,-1.29139 0.86207,-2.33758 1.14374,-3.54174 z" />
  <path
     id="path250"
     style="fill:#f2f2f2;fill-opacity:1;stroke:#f2f2f2;stroke-width:0.264583px;stroke-linecap:butt;stroke-linejoin:miter;stroke-opacity:1"
     d="m 129.22986,36.93383 c 0.80377,-1.55122 2.71814,-2.732 4.45974,-2.0384 1.23321,0.43198 2.56591,1.18975 2.88549,2.56351 0.42098,1.31081 0.2217,2.73093 -0.39124,3.94394 -0.44804,0.96905 -0.90816,2.19015 -2.08185,2.43753 -0.89706,0.2097 -1.92558,0.57551 -2.7785,0.0368 -0.9349,-0.51531 -1.41832,-1.51205 -2.03165,-2.32541 -0.38732,-0.88059 0.0828,-1.86206 -0.2956,-2.75475 -0.13251,-0.6199 -0.37864,-1.41349 0.23361,-1.86324 z" />
  <path
     id="path257"
     style="fill:#6f6f91;fill-opacity:1;stroke:#6f6f91;stroke-width:0.264583px;stroke-linecap:butt;stroke-linejoin:miter;stroke-opacity:1"
     d="m 130.79507,40.90461 c -0.25888,0.10877 -0.46382,0.39901 -0.37191,0.68519 0.1078,0.40549 0.46724,0.70208 0.84604,0.8494 0.30424,0.11968 0.71827,0.0703 0.89327,-0.23528 0.10391,-0.20792 0.074,-0.45845 0.0159,-0.67585 -0.0663,-0.24703 -0.28601,-0.41647 -0.5278,-0.47443 -0.27852,-0.0838 -0.5725,-0.0874 -0.85551,-0.14903 z" />
  <path
     id="path306"
     style="fill:#3771c8;stroke:#3771c8;stroke-width:0.264583px;stroke-linecap:butt;stroke-linejoin:miter;stroke-opacity:1"
     d="m 147.26898,41.17129 c 2.45888,-0.99615 4.49663,-2.81096 5.64439,-5.21092 1.0639,-2.44985 4.03424,-3.26546 4.67002,-5.88334 0.5025,-2.54996 3.08178,-2.91592 4.60434,-4.55322 2.09604,-1.3887 5.01995,-0.17466 7.23626,-1.71158 2.91287,-1.02475 6.15445,-1.62296 9.24006,-1.16028 2.51173,0.66557 4.20606,3.4663 7.06389,2.90158 2.39305,-0.22225 7.00665,-0.72237 5.53396,3.04242 0.93658,2.26228 2.48007,4.31766 2.2704,6.93409 -0.47664,2.50384 1.57045,5.90474 -0.89311,7.64557 -2.86377,1.75095 -6.30209,2.36455 -8.95241,4.50511 -3.13956,1.71477 -6.64841,0.10372 -9.44213,-1.51506 -4.20671,-2.27795 -8.8322,-3.73845 -13.61412,-4.10657 -3.56547,-0.29728 -7.16207,-0.34921 -10.72313,-0.016 -0.93708,-0.0978 -1.72837,-0.67459 -2.63842,-0.87179 z" />
  <path
     id="path312"
     style="fill:#ffccaa;stroke:#ffccaa;stroke-width:0.264583px;stroke-linecap:butt;stroke-linejoin:miter;stroke-opacity:1"
     d="m 165.23001,23.37569 c -0.27634,2.73233 2.01108,4.9529 1.77018,7.69127 -0.0165,2.78989 0.8431,5.47378 2.16963,7.90158 0.56134,1.6196 1.7492,2.98224 3.47594,3.37304 1.80817,0.26165 3.76957,1.22201 5.53201,0.25485 2.337,-0.53431 3.62232,-2.77267 5.26952,-4.30513 1.60305,-1.95197 2.91158,-4.20032 3.39934,-6.69679 0.95332,-2.80049 2.33382,-5.66851 1.80932,-8.7053 -0.70157,-2.06708 -2.36755,-3.90303 -4.63045,-4.1523 -2.40011,-0.46559 -4.70682,-1.55292 -7.20352,-1.2922 -2.27498,0.1373 -4.51957,0.73185 -6.6333,1.55322 -1.60697,1.0311 -3.06593,2.31747 -4.43103,3.658 0.007,0.31921 -0.17245,0.68487 -0.52764,0.71976 z" />
  <path
     id="path322"
     style="fill:#aa4400;stroke:#aa4400;stroke-width:0.264583px;stroke-linecap:butt;stroke-linejoin:miter;stroke-opacity:1"
     d="m 176.11469,36.28515 c 0.51243,-0.0453 1.01611,0.0912 1.52122,0.13627 0.47617,-0.0159 0.89598,0.24883 1.35089,0.34823 0.79931,0.19327 1.66586,0.21256 2.38218,0.66168 0.3929,0.21814 -0.18371,0.4653 -0.4043,0.29866 -0.36044,-0.1042 -0.73895,-0.17899 -1.04277,-0.41383 -0.42818,-0.33229 -0.99773,-0.177 -1.4803,-0.3503 -0.45244,-0.18722 -0.88958,-0.47053 -1.3975,-0.46614 -0.31728,-0.0217 -0.65111,-0.0443 -0.92942,-0.21457 z" />
  <path
     id="path328"
     style="fill:#aa4400;fill-opacity:1;stroke:#aa4400;stroke-width:0.264583px;stroke-linecap:butt;stroke-linejoin:miter;stroke-opacity:1"
     d="m 178.99055,33.24209 c 0.36963,0.0785 0.77934,0.11213 1.07422,0.37514 0.10274,0.24788 0.30681,0.49297 0.60639,0.43125 0.30356,-0.0954 0.56546,0.0213 0.76465,0.24179 0.26287,0.12516 0.5874,0.005 0.82558,0.2028 0.25688,0.34098 0.56795,0.002 0.55708,-0.32116 0.0187,-0.31252 0.18019,-0.58852 0.25257,-0.88619 0.056,-0.60701 0.007,-1.28556 -0.38494,-1.78038 -0.28184,-0.33928 -0.77521,-0.46945 -1.18526,-0.29914 -0.66731,0.23273 -1.16985,0.76297 -1.80431,1.06184 -0.32222,0.17382 -0.6512,0.3446 -0.92891,0.58659 -0.0195,0.16455 0.15814,0.25659 0.22293,0.38746 z" />
  <path
     id="path334"
     style="fill:#502d16;stroke:#502d16;stroke-width:0.264583px;stroke-linecap:butt;stroke-linejoin:miter;stroke-opacity:1"
     d="m 170.79872,28.69319 c 0.61332,1.46779 1.62658,2.89308 2.98238,3.73863 1.44824,0.78406 3.18548,0.78854 4.75526,0.46009 1.24003,-0.46616 2.24416,-1.57611 3.65733,-1.55744 1.26394,0.56315 0.16798,2.36322 1.20659,3.239 0.61117,1.28866 2.25621,2.5396 3.67848,1.74116 1.05293,-0.62518 2.18817,-1.43071 2.34858,-2.75081 0.0228,-1.57218 1.13821,-2.87475 1.24905,-4.41458 -0.30711,-1.55819 -2.03431,-2.24346 -3.44344,-2.43676 -1.63273,-0.0949 -3.23735,-0.47944 -4.81071,-0.9063 -1.57739,-0.74364 -2.97408,-1.87113 -4.63997,-2.46207 -1.42323,-0.20885 -2.83321,-0.81582 -4.28426,-0.64098 -1.49619,0.15608 -1.57956,1.7235 -2.0324,2.80901 -0.76247,0.99727 -0.26988,2.11503 -0.66689,3.18105 z" />
  <path
     id="path340"
     style="fill:#afdde9;fill-opacity:1;stroke:#afdde9;stroke-width:0.264583px;stroke-linecap:butt;stroke-linejoin:miter;stroke-opacity:1"
     d="m 173.60485,27.24225 c -0.3862,0.85728 0.0465,1.74478 0.60641,2.39331 0.62513,0.97912 1.92271,1.03808 2.96334,0.97369 0.99395,-0.30599 2.02051,-0.58434 2.95749,-1.05142 1.35753,-0.9959 3.27148,-0.11929 4.07884,1.18217 0.53857,0.71269 0.6777,1.69156 1.46152,2.2194 0.63688,0.75013 1.75865,0.74334 2.40354,0.003 0.82242,-0.75184 1.09264,-1.90942 1.3858,-2.94312 0.36434,-1.15246 -1.00321,-1.38676 -1.81896,-1.49877 -1.79584,-0.3667 -3.56084,-0.90453 -5.39863,-1.03642 -1.31442,-0.0438 -2.33015,-0.9269 -3.47161,-1.44346 -1.12056,-0.56236 -2.36997,-0.78322 -3.61381,-0.82484 -0.64029,-0.13988 -1.8756,-0.73061 -1.45886,0.48486 0.006,0.51622 -0.15664,1.02475 -0.0951,1.54184 z" />
  <path
     id="path350"
     style="fill:#1a1a1a;stroke:#1a1a1a;stroke-width:0.264583px;stroke-linecap:butt;stroke-linejoin:miter;stroke-opacity:1"
     d="m 179.21714,42.70066 c -1.78777,-0.0238 -3.49606,-0.5564 -5.05313,-1.40905 -1.85956,-0.95238 -3.30518,-2.92472 -3.61403,-5.00301 -0.27433,-2.45707 1.17892,-4.83658 0.44197,-7.27098 -0.49838,-2.08221 0.32521,-4.19445 1.45405,-5.91429 1.25393,-1.06655 2.91511,-0.0721 4.34648,-0.0653 1.99487,0.23228 3.4431,1.80965 5.22533,2.59358 2.33434,1.00613 4.97201,0.97597 7.35838,1.79775 0.69149,0.9195 2.15436,1.88034 2.08112,-0.034 0.0997,-1.74824 -1.68921,-2.70148 -2.98801,-3.45054 -1.59408,-0.91166 -3.30404,-1.585 -5.15692,-1.70888 -2.18372,-0.41667 -4.38676,-0.77155 -6.58145,-1.07527 -1.62814,-0.3295 -3.3753,-0.25794 -4.95624,0.2254 -1.4094,0.46252 -2.27132,1.66255 -2.30566,3.13686 -0.33431,2.42741 -0.11422,5.21642 -1.80523,7.19715 -1.09807,1.03737 -1.85466,3.03256 -0.72808,4.32782 0.9249,2.40936 2.65545,4.66096 5.19923,5.47106 1.74403,0.54461 3.56638,0.8908 5.38406,1.06887 0.56655,-0.0219 1.1519,-0.0871 1.69813,0.11284 z" />
  <path
     id="path356"
     style="fill:#0055d4;fill-opacity:1;stroke:#0055d4;stroke-width:0.264583px;stroke-linecap:butt;stroke-linejoin:miter;stroke-opacity:1"
     d="m 169.26493,30.99901 c -0.51878,1.64877 -1.3851,4.1906 -3.50742,3.96693 -2.21812,-0.69905 -2.13673,-3.43089 -2.11782,-5.3293 0.22055,-2.09289 0.14902,-4.19575 0.26631,-6.28718 0.25753,-3.75825 1.91253,-7.23904 3.83121,-10.41205 1.85211,-2.50893 4.9343,-3.84234 7.95926,-4.22503 2.34325,-0.77975 5.00229,-1.36765 7.31987,-0.17948 2.36702,0.71372 4.13233,2.52218 6.05725,3.96677 1.91031,1.94801 3.02229,4.64712 3.33191,7.33094 0.12533,2.26016 -0.33007,5.84672 -1.3585,7.0672 -1.36992,-2.39053 -4.32669,-2.67023 -6.6636,-3.69133 -1.95756,-1.04361 -4.17452,-0.8488 -6.28096,-1.28745 -1.91845,-0.13489 -4.17367,-0.38191 -5.75782,0.91477 -1.31244,1.02507 -2.27555,2.47024 -2.34923,4.17734 -0.24843,1.32591 -0.0532,2.77175 -0.73046,3.98787 z" />
  <path
     id="path362"
     style="fill:#000000;stroke:#000000;stroke-width:0.264583px;stroke-linecap:butt;stroke-linejoin:miter;stroke-opacity:1"
     d="m 169.70938,20.96007 c -0.52257,0.45843 -0.22343,2.1196 0.27636,0.8962 0.91148,-0.66238 2.12427,-0.73261 3.16204,-1.145 1.18557,-0.16484 2.35827,-0.37751 3.54378,-0.53978 1.72405,-0.0287 3.39182,0.5452 5.06015,0.91948 2.21995,0.57398 4.37426,1.38202 6.44546,2.36069 1.30855,0.23789 2.17221,1.28215 3.28002,1.89144 1.50556,-0.10465 -0.1851,-1.8247 -0.74168,-2.32148 -1.02651,-1.21964 -2.71152,-1.4321 -4.03744,-2.1942 -1.13155,-0.29711 -2.22216,-0.70734 -3.33115,-1.07207 -1.89828,-0.43914 -3.86752,-0.47444 -5.75159,-0.99156 -1.61754,-0.24574 -3.26249,-0.16865 -4.88966,-0.27489 -1.42452,0.0942 -2.48695,1.25367 -3.01629,2.47117 z" />
  <path
     id="path368"
     style="fill:#6f8a91;stroke:#6f8a91;stroke-width:0.264583px;stroke-linecap:butt;stroke-linejoin:miter;stroke-opacity:1"
     d="m 165.18644,27.46186 c -0.47297,1.08309 1.73281,1.4162 1.52821,0.1965 0.0433,-0.85824 -1.87525,-1.31926 -1.52821,-0.1965 z" />
  <path
     id="path388"
     style="fill:#6f8a91;fill-opacity:1;stroke:#6f8a91;stroke-width:0.264583px;stroke-linecap:butt;stroke-linejoin:miter;stroke-opacity:1"
     d="m 173.70943,16.34843 c -0.35594,1.67715 2.71772,0.8859 1.85394,-0.51123 -0.34847,-0.82887 -2.35349,-0.58521 -1.85394,0.51123 z" />
  <path
     id="path410"
     style="fill:#6f8a91;fill-opacity:1;stroke:#6f8a91;stroke-width:0.264583px;stroke-linecap:butt;stroke-linejoin:miter;stroke-opacity:1"
     d="m 184.73355,16.9837 c -0.32286,0.71921 0.31797,1.86579 1.17515,1.49316 0.64566,-0.31314 1.14661,-1.35573 0.49669,-1.90559 -0.54688,-0.53367 -1.33553,-0.1519 -1.67184,0.41243 z" />
  <path
     id="path423"
     style="fill:#6f8a91;fill-opacity:1;stroke:#6f8a91;stroke-width:0.264583px;stroke-linecap:butt;stroke-linejoin:miter;stroke-opacity:1"
     d="m 191.73147,20.82674 c -0.20684,0.19501 -0.28194,0.50394 -0.18816,0.77206 0.0974,0.31675 0.32329,0.60452 0.62432,0.74835 0.2245,0.11145 0.48231,-0.0213 0.57529,-0.24071 0.16409,-0.2946 0.12395,-0.66341 -0.0462,-0.94594 -0.10092,-0.18433 -0.2166,-0.36155 -0.34042,-0.53073 -0.15438,-0.1376 -0.36951,-0.0178 -0.49796,0.0961 -0.0424,0.0335 -0.0838,0.0683 -0.12689,0.10086 z" />
  <path
     id="path434"
     style="fill:#502d16;stroke:#502d16;stroke-width:0.264583px;stroke-linecap:butt;stroke-linejoin:miter;stroke-opacity:1"
     d="m 145.27912,40.61013 c 3.96283,-3.08656 8.6733,-5.20119 13.74056,-5.41227 4.22919,-0.5047 8.83404,0.21065 12.00119,3.27286 3.34483,2.5435 7.27921,4.73428 8.61701,9.04269 2.43177,4.89499 3.26288,10.76351 1.635,16.04198 -3.24513,-1.12007 -0.1447,-6.03847 -2.44478,-8.45547 -1.51251,-3.67175 -1.58343,-8.10362 -4.83553,-10.84896 -4.02259,-3.42214 -8.96773,-6.7933 -14.53784,-6.04325 -6.41772,0.41334 -12.69819,2.83219 -17.78349,6.73201 -0.76196,1.70836 -3.51145,4.27816 -2.41836,0.78332 1.47172,-1.95441 3.71377,-4.36438 6.02624,-5.11291 z" />
  <path
     id="path441"
     style="fill:#afdde9;stroke:#afdde9;stroke-width:0.264583px;stroke-linecap:butt;stroke-linejoin:miter;stroke-opacity:1"
     d="m 153.33152,29.6492 c 3.58591,1.07916 -1.06155,3.64193 -2.10632,5.06629 -1.97827,1.96723 -5.26079,2.25191 -7.08669,4.13663 2.89224,-0.49134 5.75729,-1.47499 8.74919,-1.43844 6.06062,-0.31931 12.44575,0.89104 17.33671,4.66813 3.66646,2.48167 8.18129,3.62955 12.56943,3.78132 3.42821,0.0492 5.6737,-2.85016 7.16624,-5.56749 0.99527,-3.49093 6.66451,0.5624 6.09457,-3.68886 -0.35789,-0.91348 -1.94942,-4.26856 0.17164,-3.03485 3.01592,3.86664 3.56025,8.99579 3.66776,13.73852 -0.51281,4.1735 -3.48645,7.46474 -6.09355,10.54618 -2.67136,2.64758 -6.60038,3.72626 -10.27934,3.14798 -7.60607,-0.18497 -15.2254,0.26805 -22.8182,0.4496 -5.14934,0.8185 -10.44931,0.31927 -15.53377,-0.67762 -4.42773,-1.16237 -8.21635,-3.83104 -12.2255,-5.9157 -1.965,-0.57444 -7.65534,0.52537 -5.40962,-3.09689 1.59228,-3.34473 4.39051,-5.83127 6.62109,-8.69458 1.76214,-3.21428 4.97996,-5.24499 8.44865,-6.19155 3.83276,-1.25474 8.56827,-2.11259 10.4312,-6.19359 0.18531,-0.29637 0.29623,-0.68425 0.29651,-1.03508 z" />
  <path
     id="path264"
     style="fill:#dbdbe3;fill-opacity:1;stroke:#dbdbe3;stroke-width:0.264583px;stroke-linecap:butt;stroke-linejoin:miter;stroke-opacity:1"
     d="m 197.10073,42.53507 c 0.26326,-0.91991 1.03076,-1.67712 1.8029,-2.19076 1.45197,-0.87824 3.27377,-1.17769 4.86795,-0.49701 1.2436,0.37496 2.80681,0.64237 3.25788,2.07785 0.47376,1.84235 0.47844,3.79076 0.30807,5.67774 -0.12216,1.27691 -1.23429,2.02001 -2.20379,2.66833 -1.49202,1.1285 -3.63396,1.04575 -5.22108,0.17258 -1.18362,-0.90046 -1.98492,-2.24586 -2.55388,-3.60391 -0.55399,-1.29332 -0.33315,-2.72071 -0.32933,-4.08261 l 0.0708,-0.22221 z" />
  <path
     id="path271"
     style="fill:#f2f2f2;fill-opacity:1;stroke:#f2f2f2;stroke-width:0.264583px;stroke-linecap:butt;stroke-linejoin:miter;stroke-opacity:1"
     d="m 197.6923,44.45392 c 0.15693,-1.14483 1.02511,-2.12955 1.91725,-2.78521 0.80172,-0.22277 1.64929,-0.2336 2.46759,-0.38777 1.46784,-0.21076 3.17109,0.52027 3.63516,2.01489 0.50567,1.71514 0.58844,3.60452 0.0748,5.32361 -0.44461,0.69417 -1.13299,1.28425 -1.90885,1.56598 -1.32761,0.21055 -2.89687,0.21519 -3.94665,-0.75432 -0.55593,-0.62524 -0.72658,-1.49589 -1.2806,-2.13259 -0.6052,-0.80567 -1.0968,-1.81008 -0.95871,-2.84459 z" />
  <path
     id="path278"
     style="fill:#6f6f91;stroke:#6f6f91;stroke-width:0.264583px;stroke-linecap:butt;stroke-linejoin:miter;stroke-opacity:1"
     d="m 200.67482,47.84793 c -0.15289,0.2982 -0.21001,0.64646 -0.12108,0.9731 0.0325,0.27123 0.22181,0.49206 0.47678,0.58086 0.32284,0.14168 0.69345,0.268 1.04574,0.17005 0.25275,-0.0754 0.30299,-0.36636 0.3809,-0.58181 0.12035,-0.37032 0.0673,-0.82849 -0.25398,-1.08278 -0.2712,-0.22705 -0.62269,-0.31909 -0.95319,-0.42113 -0.19912,-0.03 -0.31066,0.17998 -0.4627,0.27077 -0.0374,0.0301 -0.0757,0.0618 -0.11247,0.0909 z" />
  <path
     id="path447"
     style="fill:#000000;stroke:#000000;stroke-width:0.264583px;stroke-linecap:butt;stroke-linejoin:miter;stroke-opacity:1"
     d="m 94.249617,109.12071 c 2.998192,-1.12439 6.287683,-1.26158 9.447283,-1.52714 6.72225,0.11061 13.40105,1.13272 20.04604,2.08228 6.69647,1.22995 13.36765,2.66508 19.90484,4.56442 4.27532,1.44081 8.3713,3.66447 11.13159,7.33499 2.93005,2.33505 1.76279,6.44627 -2.07025,6.53577 -4.31513,0.5896 -8.73761,0.30495 -13.09701,0.44365 -5.52271,-0.0265 -10.94641,-1.14664 -16.4436,-1.48122 -5.97807,-1.37085 -12.1213,-1.94243 -18.07248,-3.4632 -3.93272,-0.617 -7.936094,-1.51935 -11.148365,-4.00433 -4.015287,-1.53434 -3.794128,-6.16514 -1.182314,-8.92543 0.41955,-0.58454 0.910057,-1.12317 1.484266,-1.55979 z" />
  <path
     id="path453"
     style="fill:#ececec;stroke:#ececec;stroke-width:0.264583px;stroke-linecap:butt;stroke-linejoin:miter;stroke-opacity:1"
     d="m 140.60196,58.90793 c 3.19527,1.81842 6.82737,2.44653 10.46146,2.20206 3.28258,0.13728 6.57709,0.40057 9.85863,0.0983 -2.74582,3.74867 -5.1746,7.72037 -7.97793,11.43541 -2.75193,3.34998 -4.87939,7.17319 -7.02329,10.92224 -1.64777,4.41108 -3.22603,8.86514 -5.83174,12.82445 -1.84887,4.32377 -4.87863,8.24 -5.28092,13.06367 0.356,4.87671 -5.46992,0.53886 -8.33548,0.90559 -4.49895,-1.06093 -9.95749,-0.79851 -13.90846,-2.31479 -0.8046,-4.48087 2.96654,-8.02178 4.11784,-12.09271 2.37794,-5.99027 4.91868,-12.03635 8.89861,-17.16589 3.77149,-5.83907 8.1657,-11.23938 12.70401,-16.48328 0.79313,-0.95837 2.71994,-1.93057 2.31727,-3.39509 z" />
  <path
     id="path459"
     style="fill:#ececec;fill-opacity:1;stroke:#ececec;stroke-width:0.264583px;stroke-linecap:butt;stroke-linejoin:miter;stroke-opacity:1"
     d="m 107.14101,82.32225 c 3.77789,-2.80501 8.33334,-4.38729 12.77748,-5.79316 6.42776,-2.20815 13.4096,-2.06842 20.06791,-1.27515 5.16257,0.90651 10.53865,1.49812 15.25474,3.9231 3.3874,1.73695 5.76392,4.79386 7.59321,8.02204 2.01417,2.90406 0.31673,7.43535 -3.25244,8.0399 -3.9443,1.28655 -8.14885,1.52361 -12.21005,0.64774 -5.66684,-1.31136 -11.57514,-0.82407 -17.20708,-2.25792 -6.85519,-1.07811 -13.79566,-2.2591 -20.28941,-4.75445 -2.18488,-1.14535 -4.7088,-4.15709 -2.73436,-6.5521 z" />
  <path
     id="path465"
     style="fill:#000000;stroke:#000000;stroke-width:0.264583px;stroke-linecap:butt;stroke-linejoin:miter;stroke-opacity:1"
     d="m 122.18919,77.56396 c 1.90795,0.31076 3.88733,0.50626 5.77655,-0.0248 0.97591,-0.0178 -0.37826,1.18263 -0.53558,1.67196 -0.9118,1.35671 -1.87371,2.68786 -2.52996,4.19501 -0.54312,1.0655 -1.12905,2.1064 -1.6063,3.20403 -0.59763,0.9245 -1.02428,1.94463 -1.47157,2.94494 -0.7857,0.28869 -1.68417,0.0211 -2.51771,0.008 -1.04091,0.0646 -2.08331,0.23243 -3.13365,0.0899 -1.05299,0.1838 -1.17907,-0.6485 -0.62471,-1.35226 0.44493,-0.9201 1.07084,-1.74839 1.44201,-2.70622 0.7679,-1.19216 1.36684,-2.47811 2.09396,-3.6921 0.80554,-1.15215 1.44794,-2.39864 2.02906,-3.67421 0.1945,-0.36819 0.59945,-0.91199 1.0779,-0.6643 z" />
  <path
     id="path471"
     style="fill:#000000;stroke:#000000;stroke-width:0.264583px;stroke-linecap:butt;stroke-linejoin:miter;stroke-opacity:1"
     d="m 135.15454,79.77118 c 1.42135,1.61552 3.54025,2.50208 5.55956,1.42179 2.23069,-0.62578 4.26454,0.54711 6.11971,1.59474 2.39171,1.87018 -1.27582,3.2278 -2.96643,2.62679 -3.20024,-0.0553 -6.35955,0.83937 -9.57524,0.58956 -1.9986,0.18629 -3.29624,1.91657 -4.66795,3.17993 -1.11485,1.90936 2.5772,0.84701 3.52071,1.66605 3.71557,1.09269 7.73945,1.13615 11.26233,2.8781 1.86244,0.0919 4.60602,1.86705 5.85365,0.16443 1.77056,-2.36061 -1.87204,-2.74954 -3.47934,-3.13909 -3.01467,-0.74028 -6.16744,-0.77493 -9.1514,-1.61415 -1.13676,-1.51828 2.62659,-1.58665 3.64645,-1.91376 3.69169,-0.79302 7.35649,0.53776 11.05004,0.36395 2.12979,-0.21262 3.2511,-3.20793 1.45783,-4.58351 -2.16413,-1.42201 -4.79431,-1.96776 -7.16449,-2.99018 -2.65036,-0.6321 -5.40654,-0.43901 -8.10656,-0.79776 -1.14633,-0.0233 -2.24641,0.33038 -3.35887,0.55311 z" />
  <path
     id="path478"
     style="fill:#b3b3b3;stroke:#b3b3b3;stroke-width:0.264583px;stroke-linecap:butt;stroke-linejoin:miter;stroke-opacity:1"
     d="m 124.54317,95.44357 c -0.56484,0.43455 -0.26708,1.19891 0.16338,1.60495 0.81229,1.07753 2.25649,1.26924 3.51332,1.30631 0.98756,-0.0349 2.10611,0.2395 2.96758,-0.39202 0.61383,-0.50653 0.89694,-1.44656 0.60227,-2.194 -0.37908,-0.60292 -1.12168,-0.81908 -1.74639,-1.074 -1.43973,-0.4396 -2.94393,-0.0878 -4.39154,0.11659 -0.42258,0.0887 -0.84357,0.27838 -1.10862,0.63217 z" />
  <path
     id="path485"
     style="fill:#1a1a1a;fill-opacity:1;stroke:#1a1a1a;stroke-width:0.264583px;stroke-linecap:butt;stroke-linejoin:miter;stroke-opacity:1"
     d="m 71.997799,57.92026 c 0.695754,2.44581 4.123387,-0.0844 5.655607,1.69076 2.156812,1.27097 4.453688,2.39313 6.131662,4.29605 2.303717,1.82047 3.699622,4.42168 5.573246,6.62499 2.202498,2.31397 4.45752,4.89853 7.422304,6.16731 2.339937,-0.76563 -1.291796,-2.69729 -2.159009,-3.38582 -2.752152,-3.13258 -5.418576,-6.34686 -8.172027,-9.47931 -3.541664,-3.77046 -8.231015,-7.09776 -13.580059,-7.19414 -0.737478,-0.0673 -2.751047,1.0637 -0.871724,1.28016 z" />
  <path
     id="path492"
     style="fill:#b7bec8;fill-opacity:1;stroke:#b7bec8;stroke-width:0.264583px;stroke-linecap:butt;stroke-linejoin:miter;stroke-opacity:1"
     d="m 71.948502,63.79879 c -1.252166,2.85326 2.896972,3.75201 4.704643,4.86604 2.088964,1.37943 4.41954,2.28106 6.611718,3.48632 2.189432,1.15561 4.521557,2.16648 6.266097,3.99794 1.570963,1.21288 3.484164,2.02985 5.244191,2.83475 1.961051,-1.58414 -2.060076,-2.5175 -3.226414,-3.19205 -1.733903,-1.02214 -3.023274,-2.68733 -4.900982,-3.5295 -3.21579,-1.66968 -6.47104,-3.35056 -9.259302,-5.691 -1.518528,-1.24529 -3.397961,-2.49716 -5.258327,-2.8862 l -0.09745,0.061 z" />
  <path
     id="path528"
     style="fill:#b3b3b3;fill-opacity:1;stroke:#b3b3b3;stroke-width:0.264583px;stroke-linecap:butt;stroke-linejoin:miter;stroke-opacity:1"
     d="m 217.55991,111.44693 c -0.0932,-2.75977 0.32181,-5.51311 0.2193,-8.279 0.14713,-3.45257 1.43839,-6.72417 1.43861,-10.19626 0.37854,-2.9963 0.59763,-6.15474 2.24699,-8.77415 0.815,-2.87041 3.20181,-6.14355 6.55104,-5.64126 2.57755,0.46851 4.15904,2.87444 4.53256,5.32828 1.69832,4.62156 0.93802,9.57667 1.14875,14.36727 0.41786,4.40617 1.02646,8.90479 -0.16879,13.25349 -1.04636,4.79291 -1.87732,9.63465 -2.95513,14.41697 -0.60098,2.69955 -3.31878,5.43684 -6.24495,4.26275 -2.19048,-1.48685 -5.31196,-2.4345 -6.06693,-5.30154 -1.61175,-3.97648 -1.94426,-8.45878 -0.76071,-12.59451 l 0.0436,-0.419 0.0156,-0.42275 z" />
  <path
     id="path590"
     style="fill:#b7bec8;fill-opacity:1;stroke:#b7bec8;stroke-width:0.264583px;stroke-linecap:butt;stroke-linejoin:miter;stroke-opacity:1"
     d="m 205.01026,94.80173 c -0.80841,1.21174 1.09862,1.33718 1.87763,1.13672 1.47887,-0.30411 2.82752,-1.06139 4.33452,-1.26847 1.51038,-0.31147 3.04441,-0.53803 4.53698,-0.91182 0.98385,0.27574 2.61804,-0.29954 1.88063,-1.531 -1.09367,-0.45154 -2.47041,-0.14044 -3.62661,0.0928 -1.44762,0.59611 -2.97782,0.96238 -4.5401,1.07189 -1.32404,0.16416 -2.54771,0.78195 -3.89409,0.80653 -0.43979,0.0478 -0.92172,0.0271 -0.56896,0.60336 z" />
  <path
     id="path618"
     style="fill:#333333;fill-opacity:1;stroke:#333333;stroke-width:0.264583px;stroke-linecap:butt;stroke-linejoin:miter;stroke-opacity:1"
     d="m 232.36276,62.53283 c -5.38151,0.53009 -8.20766,5.9556 -10.80946,10.01748 -3.27015,4.35752 -4.1667,9.80629 -6.30409,14.70831 -1.54385,5.58155 -1.27219,11.49634 -2.43778,17.17995 -0.32467,7.47302 -0.26319,15.08428 1.77429,22.33509 0.91344,4.14576 2.2009,8.16058 3.89141,12.05381 0.72305,4.91929 5.58753,9.8855 10.83234,8.01259 4.11234,-1.56773 2.56918,-6.82659 1.68344,-10.03829 -0.57297,-4.13718 -4.05852,-6.30217 -7.60597,-7.73484 -4.37486,-2.21543 -5.28412,-7.40815 -5.87037,-11.78569 0.45252,-4.81165 0.94021,-9.59626 1.17559,-14.4262 1.27592,-5.75287 0.52081,-11.80417 2.7511,-17.36073 0.32829,-3.89158 3.99369,-6.25604 7.6287,-6.42313 3.14076,-2.12804 2.57481,-6.65252 3.32426,-9.97963 -0.15073,-1.70643 1.78253,-6.35736 -0.0335,-6.55872 z" />
  <path
     id="path534"
     style="fill:#1a1a1a;fill-opacity:1;stroke:#1a1a1a;stroke-width:0.264583px;stroke-linecap:butt;stroke-linejoin:miter;stroke-opacity:1"
     d="m 223.70982,84.7606 c 1.65223,-4.06419 6.68516,-2.12861 6.66678,1.70878 1.94361,5.55373 1.09906,11.51665 1.15199,17.26689 -0.21079,2.91985 -2.08312,5.37707 -1.92835,8.37993 -0.18235,3.333 -0.72367,6.68322 -2.32842,9.65033 -0.61851,2.24338 -3.34375,6.64699 -5.34636,2.99163 -3.27507,-5.10712 -1.95313,-11.41935 -1.93639,-17.11943 0.80594,-3.82985 1.47418,-7.66291 1.61045,-11.57596 0.73958,-3.74047 -0.24111,-8.04571 2.1103,-11.30217 z" />
  <path
     id="path541"
     style="fill:#373e48;fill-opacity:1;stroke:#373e48;stroke-width:0.264583px;stroke-linecap:butt;stroke-linejoin:miter;stroke-opacity:1"
     d="m 221.50375,84.19493 c 0.53035,-0.90446 1.9604,-0.79313 2.41918,0.12809 0.57978,1.17028 1.72727,-0.64677 2.42273,0.56538 1.10596,0.78515 1.28583,2.16133 1.63812,3.36734 0.40034,1.03744 0.65124,2.15418 1.3351,3.06433 0.71487,0.94769 0.94476,2.09509 1.19983,3.21821 0.51956,0.99888 -0.87266,1.89745 -0.16141,2.78196 0.83556,0.64056 1.29805,1.58032 1.36212,2.63269 0.5253,1.38689 -1.01046,1.71047 -1.7957,0.76974 -0.85962,-0.46686 -1.79134,-1.03508 -1.93686,-2.09902 -0.36711,-1.48475 -0.24257,-3.15013 -1.22413,-4.4259 -0.41746,-1.09851 -1.44952,-1.58332 -2.52835,-1.7642 -0.94433,-0.33314 -2.05592,-1.44535 -1.12448,-2.40857 0.62702,-1.03284 1.32368,-2.26524 0.95337,-3.51078 -0.64339,-0.9389 -1.84617,-1.33958 -2.55082,-2.12957 l -0.009,-0.1897 z" />
  <path
     id="path547"
     style="fill:#373e48;fill-opacity:1;stroke:#373e48;stroke-width:0.264583px;stroke-linecap:butt;stroke-linejoin:miter;stroke-opacity:1"
     d="m 223.85772,121.3517 c 0.58037,0.36357 0.70821,1.07411 0.97153,1.64756 0.59674,0.62196 0.55329,-0.57324 0.50564,-0.95944 -0.0566,-0.88317 -0.25392,-1.81806 0.0725,-2.66933 0.25575,-0.64511 1.01382,-0.3263 1.27671,0.13143 0.50039,0.42955 1.03984,1.01112 0.89229,1.72953 -0.19176,0.69378 0.0806,1.36261 0.46707,1.93359 0.54083,0.78191 0.50459,1.81015 0.10181,2.641 -0.34989,0.75907 -0.821,1.45643 -1.14258,2.22901 -0.25012,0.58089 -0.90747,0.80162 -1.49239,0.66463 -0.77029,-0.13169 -1.57605,-0.48372 -2.03292,-1.14078 -0.47337,-0.7129 0.45952,-1.55781 -0.0887,-2.24342 -0.48903,-0.65866 -1.2013,-1.13156 -1.97357,-1.39389 -0.0717,-0.5325 0.20849,-1.10405 0.74723,-1.25027 0.62225,-0.25874 0.12026,-1.2789 0.90833,-1.27554 0.26229,-0.0204 0.53069,0.0298 0.78701,-0.0441 z" />
  <path
     id="path553"
     style="fill:#1a1a1a;fill-opacity:1;stroke:#1a1a1a;stroke-width:0.264583px;stroke-linecap:butt;stroke-linejoin:miter;stroke-opacity:1"
     d="m 186.35435,88.04371 c 1.80674,0.36719 3.77625,0.97424 5.43573,-0.21941 2.11266,-0.97669 4.23711,-1.89643 6.47208,-2.54786 3.94524,-1.60075 7.218,-4.66829 11.45171,-5.58856 1.88023,-0.29194 3.91588,-2.18082 5.74791,-0.88211 2.26355,1.77962 3.71681,4.61779 6.56217,5.61235 2.13568,0.72669 -0.51014,-1.63335 -0.95679,-2.34166 -1.74445,-1.48871 -1.81719,-4.33007 -4.22299,-5.12585 -2.13085,-0.979 -4.61657,-0.88902 -6.69894,0.16627 -3.02818,1.4313 -6.1415,2.68144 -9.01731,4.4117 -3.59845,1.79824 -7.22839,3.55247 -10.78784,5.42322 -1.3014,0.66156 -3.89525,-1.23127 -4.13783,0.90808 l 0.1521,0.18385 z" />
  <path
     id="path559"
     style="fill:#b7bec8;fill-opacity:1;stroke:#b7bec8;stroke-width:0.264583px;stroke-linecap:butt;stroke-linejoin:miter;stroke-opacity:1"
     d="m 185.59023,90.77224 c 1.80923,-0.64683 3.61388,1.04046 5.35152,0.16611 1.93224,-0.52566 4.88371,-1.61531 5.267,1.24183 2.62926,0.47299 5.27179,-1.8026 8.04619,-1.73651 3.74051,-0.11733 7.47107,-0.71805 10.98879,-2.00245 2.68398,-0.59889 5.39742,-1.12666 8.06224,-1.80699 1.62861,0.42564 1.51849,4.05894 -0.55828,2.56375 -1.6119,-0.45769 -3.43507,-1.11568 -4.95005,-0.005 -1.57495,0.59955 -3.20189,0.97641 -4.71733,1.77396 -2.40021,0.36118 -4.90674,0.20393 -7.22962,1.06003 -2.578,0.69625 -5.19559,1.28861 -7.88122,1.23872 -2.49138,-0.48001 -3.16224,3.32489 -5.87886,1.98283 -1.86233,-0.36844 -1.70775,-3.73407 -4.18268,-2.54605 -1.77701,0.71802 -2.347,-0.41085 -2.3177,-1.93069 z" />
  <path
     id="path569"
     style="fill:#b7bec8;fill-opacity:1;stroke:#b7bec8;stroke-width:0.264583px;stroke-linecap:butt;stroke-linejoin:miter;stroke-opacity:1"
     d="m 185.75045,88.13244 c 0.92607,0.36963 4.38702,1.95219 1.72885,2.19616 -1.03221,-0.16636 -1.84303,0.18549 -0.41819,0.35973 1.49861,0.66672 3.11108,0.72624 4.70239,0.41807 2.09784,-0.83468 4.19499,-0.78342 6.39712,-0.3351 2.93539,-0.47499 5.80294,-1.34015 8.73402,-1.87879 2.64174,-0.52582 5.44638,-0.45515 7.92009,-1.69233 1.75144,-0.72811 3.9222,-0.36646 5.30464,-1.86171 1.45028,-0.27824 5.03949,0.93853 2.77413,-1.47275 -1.50243,-1.88561 -3.62746,0.17428 -5.29229,0.67936 -2.16405,0.82832 -4.50223,0.62241 -6.72792,0.19998 -2.73992,-0.14187 -5.38518,0.77851 -8.05437,1.2251 -2.46197,0.87122 -5.05025,1.24629 -7.65302,1.17458 -1.62736,0.15852 -3.31639,0.14981 -4.66417,1.21404 -1.59295,0.99623 -3.16965,-1.34696 -4.75128,-0.22634 z" />
  <path
     id="path604"
     style="fill:#b7bec8;fill-opacity:1;stroke:#b7bec8;stroke-width:0.264583px;stroke-linecap:butt;stroke-linejoin:miter;stroke-opacity:1"
     d="m 175.73391,112.07148 c 0.16342,2.20893 5.38288,0.0374 3.31803,3.40925 -1.2072,2.31588 -4.80294,-4.18401 -4.45324,0.54594 -0.18929,3.49744 3.86018,4.99487 6.45061,3.00524 3.51081,-2.24084 7.67263,-0.29942 11.43209,0.0189 4.47834,0.62183 9.02001,0.73224 13.42508,1.86218 4.72234,1.11193 9.6669,0.47251 14.32411,1.97125 2.80806,1.98884 4.26375,-3.38713 0.76603,-2.17849 -4.38441,0.0531 -8.55938,-1.96856 -12.98536,-2.08423 -7.25398,-1.45106 -14.55443,-2.89183 -21.94196,-3.45712 -2.96045,-1.39454 -4.85922,-6.24993 -9.03929,-3.84361 -0.4603,0.19629 -0.89876,0.44593 -1.2961,0.75067 z" />
  <path
     id="path611"
     style="fill:#b7bec8;fill-opacity:1;stroke:#b7bec8;stroke-width:0.264583px;stroke-linecap:butt;stroke-linejoin:miter;stroke-opacity:1"
     d="m 173.82362,120.02414 c 0.724,4.70992 6.60279,1.93463 9.74264,2.34262 9.42903,0.43083 18.85529,0.9793 28.30212,0.87569 2.75109,-0.25048 7.84498,1.6318 9.13101,-0.46444 -2.7774,-1.68773 -6.50721,-1.5488 -9.73395,-2.10996 -6.31712,-0.1985 -12.64403,0.0685 -18.95525,-0.41815 -3.69727,0.0214 -7.4271,-1.19411 -11.05621,-0.0472 -2.57457,1.25813 -5.18232,-0.79517 -7.43036,-0.17855 z" />
  <path
     id="path624"
     style="fill:#333333;fill-opacity:1;stroke:#333333;stroke-width:0.264583px;stroke-linecap:butt;stroke-linejoin:miter;stroke-opacity:1"
     d="m 224.18837,77.62262 c 5.67285,0.84509 7.47876,6.10565 8.13396,11.10395 0.1182,3.68873 -0.40127,7.38995 0.0517,11.09045 0.60419,7.50998 -1.63885,14.79486 -3.0846,22.06961 -0.38897,4.43824 -4.36504,6.44585 -7.06905,8.53408 0.53432,5.01611 0.65526,10.12201 1.71876,15.09833 2.56913,3.00618 7.61137,2.13008 8.73147,-1.7724 2.79311,-5.2226 2.39036,-11.37581 3.11598,-17.09298 0.0477,-6.19329 2.03589,-12.1638 2.65239,-18.31665 0.89801,-6.34237 0.66424,-12.78471 1.46456,-19.13866 0.27246,-8.80921 -2.07074,-17.59264 -5.76804,-25.51294 -3.69383,-4.00666 -5.04049,3.79203 -6.92736,6.04063 -1.36258,2.40294 -4.09758,4.8612 -3.01978,7.89658 z" />
  <path
     id="path646"
     style="fill:#1a1a1a;fill-opacity:1;stroke:#1a1a1a;stroke-width:0.264583px;stroke-linecap:butt;stroke-linejoin:miter;stroke-opacity:1"
     d="m 233.87912,67.2229 c 4.44633,4.70276 3.68923,11.72134 4.46057,17.68232 0.90089,10.07292 -1.16279,20.01628 -2.69902,29.90886 -0.6892,7.95423 -1.66846,16.01144 -4.11028,23.63524 -0.99386,4.23166 -6.81971,7.94779 -10.43524,4.40711 -2.22101,-0.75648 -3.81808,-7.85599 -2.54297,-2.25327 0.6302,4.49813 4.63103,7.13262 8.76421,8.03715 6.08485,1.52761 12.61535,1.51124 18.73128,0.281 6.80362,-3.38208 9.74267,-11.00783 12.23088,-17.71182 3.73879,-7.4086 5.73143,-15.59607 5.98424,-23.8861 0.99792,-6.23477 -0.33326,-12.58501 -1.06719,-18.77146 -1.26148,-7.102 -5.05949,-13.32481 -7.54287,-20.0129 -1.82381,-5.40787 -7.73866,-8.28939 -13.19615,-7.61892 -4.54091,-0.12212 -9.81188,-0.99752 -13.75294,1.72156 -1.32585,1.70005 -6.81816,7.78926 -2.2704,4.12262 2.22836,-1.52961 5.79663,-2.3723 7.44588,0.45861 z" />
  <path
     id="path656"
     style="fill:#b3b3b3;fill-opacity:1;stroke:#b3b3b3;stroke-width:0.264583px;stroke-linecap:butt;stroke-linejoin:miter;stroke-opacity:1"
     d="m 30.166971,68.3732 c 0.139358,-2.71084 1.384231,-5.21591 1.648089,-7.91742 0.667927,-3.1063 2.674972,-5.69321 4.492407,-8.21324 2.97375,-3.25864 5.019345,2.15003 4.913882,4.74678 0.743291,3.72331 0.358881,7.55288 0.572311,11.32596 0.08496,3.02562 -0.474328,6.01541 -1.692449,8.78564 -1.220866,3.66841 -2.551078,7.42095 -2.045457,11.35478 -0.274129,3.7095 -0.308441,7.63335 -1.914571,11.07015 -1.375413,1.87706 -2.937944,5.24816 -5.793283,4.46618 -2.065336,-1.37221 -3.006166,-4.10852 -3.286344,-6.4937 -0.34424,-3.36743 -0.272868,-6.7506 0.430075,-10.07436 1.314762,-5.94724 -0.03355,-12.26966 2.146865,-18.05148 l 0.263519,-0.50003 z" />
  <path
     id="path662"
     style="fill:#333333;fill-opacity:1;stroke:#333333;stroke-width:0.264583px;stroke-linecap:butt;stroke-linejoin:miter;stroke-opacity:1"
     d="m 32.241074,68.38888 c 0.327329,-2.25898 1.32411,-4.37946 2.185639,-6.46608 1.00651,-1.64184 1.467891,-3.70341 2.884425,-5.03353 2.795554,-1.0609 2.437934,3.12672 2.631852,4.84114 0.477137,4.51005 1.417373,9.21504 -0.19627,13.61297 -0.988768,2.77713 -1.703786,5.67079 -2.262221,8.57045 -0.141384,2.25367 -0.488024,4.4756 -1.10481,6.6543 -0.602749,1.98125 -0.431367,4.16803 -1.299908,6.06033 -0.855397,1.73489 -3.875403,2.36952 -4.2533,-0.0633 -0.212828,-2.00345 -0.506026,-3.99227 -0.648861,-6.00419 -0.216676,-5.54559 0.320577,-11.09915 1.106056,-16.5732 -0.144559,-1.97226 0.415022,-3.75492 0.957398,-5.59884 z" />
  <path
     id="path668"
     style="fill:#333333;fill-opacity:1;stroke:#333333;stroke-width:0.264583px;stroke-linecap:butt;stroke-linejoin:miter;stroke-opacity:1"
     d="m 48.799135,36.10538 c -3.751959,-2.81604 -6.430069,2.64224 -9.345023,4.22937 -3.573692,2.04825 -5.15003,5.88131 -6.225546,9.64734 -2.809934,7.63312 -4.967246,15.52114 -5.895636,23.61501 -0.561778,8.2732 -2.078063,16.47075 -1.657525,24.79504 -0.177318,4.45638 2.09709,8.52437 3.414508,12.67121 0.832771,2.70668 3.580004,2.70791 2.641694,-0.42277 -0.487108,-3.46657 -0.717161,-7.04977 -1.788588,-10.38442 -2.487635,-4.35135 -2.388106,-9.65551 -1.572613,-14.45477 0.270212,-6.04064 1.031992,-12.11783 2.850572,-17.92458 0.5355,-4.39839 1.718404,-8.62419 3.833749,-12.50338 0.763774,-4.26426 6.501792,-3.64436 7.464385,-8.01575 1.886812,-3.83466 6.067564,-6.72475 6.280023,-11.2523 z" />
  <path
     id="path678"
     style="fill:#333333;fill-opacity:1;stroke:#333333;stroke-width:0.264583px;stroke-linecap:butt;stroke-linejoin:miter;stroke-opacity:1"
     d="m 34.925214,54.41279 c 3.684954,-3.87008 6.617584,1.38225 5.49515,5.05217 0.337359,4.84497 1.426373,9.7606 -0.318602,14.47801 -0.831476,4.44368 -2.508137,8.69164 -2.570001,13.24532 -1.21657,4.04855 -1.483165,8.47354 -3.344134,12.30765 -1.269692,3.32192 -4.240622,0.75269 -5.61186,0.57044 -0.522838,5.9734 -0.31294,13.06022 4.549059,17.32871 4.068701,4.2613 6.23664,-3.53631 7.444643,-6.46814 1.989559,-7.77353 3.032231,-15.75329 5.007388,-23.54172 0.837865,-5.94613 2.625601,-11.69065 3.687675,-17.58891 0.971485,-6.37 -0.598452,-12.79504 0.323402,-19.16107 -0.533083,-4.5174 0.990226,-9.52239 -1.19619,-13.64862 -3.171337,2.15746 -5.705744,7.07038 -9.259212,9.73461 -2.602018,1.87193 -2.539125,5.22235 -4.207318,7.69155 z" />
  <path
     id="path499"
     style="fill:#b7bec8;fill-opacity:1;stroke:#b7bec8;stroke-width:0.264583px;stroke-linecap:butt;stroke-linejoin:miter;stroke-opacity:1"
     d="m 71.775957,67.53665 c 2.938453,1.06938 5.553725,2.88895 8.584629,3.73493 4.064548,1.40952 7.903841,3.36565 11.807137,5.14423 1.062767,0.61069 4.090959,0.8062 3.502411,2.34369 -2.239204,-0.79651 -4.890996,-1.28087 -7.153839,-2.34386 -2.337276,-1.62783 -5.310549,-1.79949 -7.76503,-3.20351 -1.866681,-0.89619 -3.954834,-1.35339 -5.444173,-2.89319 -1.038343,-1.09307 -3.925527,-0.46386 -3.946894,-2.25326 l 0.159714,-0.24937 z" />
  <path
     id="path684"
     style="fill:#1a1a1a;fill-opacity:1;stroke:#1a1a1a;stroke-width:0.264583px;stroke-linecap:butt;stroke-linejoin:miter;stroke-opacity:1"
     d="m 47.945002,49.81683 c 0.179173,-3.7264 -0.406958,-11.39453 -5.273458,-10.90871 -2.600574,0.49227 2.657774,-5.42966 5.095346,-3.96832 5.115977,-0.24215 9.978576,1.69103 15.064688,2.02321 4.707345,1.46264 7.700573,5.71858 8.294866,10.49822 3.874724,14.34647 -0.108993,29.0471 -0.707604,43.52696 -1.035116,7.85394 -4.067433,15.25649 -6.66671,22.66916 -2.491808,4.11558 -5.094289,9.81436 -10.587386,10.15121 -5.578093,-0.0936 -10.973093,-1.99893 -16.284234,-3.57291 -2.088568,-0.61276 -7.314782,-4.94624 -2.275144,-2.94856 4.805702,-1.67764 5.830854,-7.67964 6.967139,-12.05001 2.283338,-9.76504 4.575924,-19.57153 5.55292,-29.57434 2.14929,-7.97284 2.069619,-16.33633 0.722895,-24.43966 l -0.0029,-0.70718 0.09959,-0.69907 z" />
</svg>
