<?xml version="1.0" encoding="UTF-8" standalone="no"?>
<svg
   xmlns:dc="http://purl.org/dc/elements/1.1/"
   xmlns:cc="http://creativecommons.org/ns#"
   xmlns:rdf="http://www.w3.org/1999/02/22-rdf-syntax-ns#"
   xmlns:svg="http://www.w3.org/2000/svg"
   xmlns="http://www.w3.org/2000/svg"
   xmlns:sodipodi="http://sodipodi.sourceforge.net/DTD/sodipodi-0.dtd"
   xmlns:inkscape="http://www.inkscape.org/namespaces/inkscape"
   width="1200"
   height="600"
   viewBox="0 0 317.5 158.75"
   version="1.1"
   id="svg8"
   sodipodi:docname="reg-fox.svg"
   inkscape:version="1.0.1 (3bc2e813f5, 2020-09-07)">
  <sodipodi:namedview
     pagecolor="#ffffff"
     bordercolor="#666666"
     borderopacity="1"
     objecttolerance="10"
     gridtolerance="10"
     guidetolerance="10"
     inkscape:pageopacity="0"
     inkscape:pageshadow="2"
     inkscape:window-width="1920"
     inkscape:window-height="1061"
     id="namedview31"
     showgrid="false"
     inkscape:zoom="1.4"
     inkscape:cx="600"
     inkscape:cy="300"
     inkscape:window-x="0"
     inkscape:window-y="19"
     inkscape:window-maximized="0"
     inkscape:current-layer="svg8"
     inkscape:document-rotation="0" />
  <defs
     id="defs2" />
  <metadata
     id="metadata5">
    <rdf:RDF>
      <cc:Work
         rdf:about="">
        <dc:format>image/svg+xml</dc:format>
        <dc:type
           rdf:resource="http://purl.org/dc/dcmitype/StillImage" />
        <dc:title />
      </cc:Work>
    </rdf:RDF>
  </metadata>
  <path
     style="fill:#d8ae84;fill-opacity:1;stroke:#d8ae84;stroke-width:0.264583px;stroke-linecap:butt;stroke-linejoin:miter;stroke-opacity:1"
     d="m 135.16455,41.29491 c 0.25493,-0.0524 -0.0742,-0.42216 -0.18084,-0.5353 -0.26343,-0.27951 -0.0544,-0.58988 0.16753,-0.82479 0.7902,-0.8363 1.76154,-1.47598 2.74007,-2.06724 1.8523,-1.11922 3.79726,-2.08395 5.79744,-2.91171 0.72066,-0.29824 1.47334,-0.50632 2.23386,-0.67276 0.96881,-0.21202 1.85642,-0.66746 2.74562,-1.08928 1.55084,-0.73569 3.15135,-1.46018 4.88053,-1.63494 2.09363,-0.21159 4.19778,-0.01 6.29054,0.10993 1.19282,0.0681 2.39198,0.14189 3.58377,0.0113 0.79779,-0.0874 1.60105,-0.0583 2.39915,0.0149 0.58387,0.0536 2.32097,-0.0446 1.75551,0.10971 -0.18198,0.0496 -0.73688,0.11439 -0.61603,0.12884 0.63633,0.0761 1.26811,-0.0789 1.89545,-0.16721 0.89327,-0.12571 1.80732,-0.13054 2.68449,-0.3415 0.14744,-0.0355 0.26655,-0.0789 0.0579,0.005 -0.33225,0.13392 -1.28117,0.21384 -0.99024,0.42437 0.24054,0.17406 0.56362,0.25464 0.86031,0.30219 1.28938,0.20664 2.60117,0.0813 3.89587,-5.9e-4 0.71178,-0.045 2.82846,-0.28697 2.13775,-0.10758 -0.34082,0.0885 -0.69011,0.15587 -1.02387,0.27773 -0.47264,0.17256 -1.01147,0.27961 -1.37235,0.64048 -0.28082,0.28081 0.20835,0.57812 0.44454,0.66978 0.79126,0.30707 1.65869,0.32082 2.49537,0.31503 0.90213,-0.006 1.80613,-0.10933 2.70576,-0.0264 0.23175,0.0214 0.90792,-0.0376 0.70262,0.0714 -0.52189,0.27727 -1.09831,0.44437 -1.62682,0.70986 -0.098,0.0492 -0.59276,0.16253 -0.24843,0.17943 0.82429,0.0405 1.62844,0.24131 2.45302,0.2983 1.16707,0.0807 2.33602,0.14337 3.50565,0.14587 0.19685,4.2e-4 0.94731,0.12139 0.66007,0.22145 -0.61061,0.2127 -1.29862,0.27794 -1.82723,0.66303 -0.34772,0.25331 0.19202,0.42613 0.4175,0.47147 1.1883,0.23895 2.40864,0.19999 3.61405,0.24804 1.11718,0.0445 2.25253,0.0622 3.33927,0.3609 0.14685,0.0404 0.49821,0.10239 0.16898,0.23862 -0.44188,0.18284 -1.04855,0.19747 -1.30299,0.61847 -0.20284,0.33562 0.2577,0.60228 0.52787,0.68957 1.3999,0.45227 2.8865,0.3422 4.33368,0.47477 0.35357,0.0324 0.69631,0.13756 0.9951,0.33062 0.45677,0.29514 1.00569,0.35623 1.53148,0.42301 1.73623,0.2205 6.97657,0.10198 5.23311,0.0893 -0.20077,-10e-4 -0.90764,-0.0328 -0.69876,0.15973 0.284,0.26179 0.68247,0.34603 1.04523,0.44515 0.91351,0.2496 1.8649,0.33852 2.77466,0.59721 0.45321,0.12887 -0.11983,0.36976 -0.31331,0.43615 -0.53342,0.18303 -2.19398,0.37689 -1.63395,0.429 1.06744,0.0993 2.14933,0.211 3.16869,0.54517 0.29308,0.0961 0.71877,0.0961 0.84908,0.38652 0.14865,0.33125 -0.40578,0.31611 -0.60339,0.41699 -0.31665,0.16164 0.0669,0.43057 0.21596,0.5619 0.40744,0.3589 0.86505,0.6579 1.37282,0.86126 1.229,0.49221 2.51685,0.79818 3.73672,1.34182 0.17379,0.0774 0.40843,0.18554 0.0981,0.3345 -0.22817,0.10953 -0.88089,0.32104 -0.56641,0.60374 0.30815,0.27701 0.70779,0.42638 1.08564,0.58305 1.19611,0.49596 2.45897,0.86876 3.53139,1.63878 0.14721,0.1057 0.27003,0.16967 0.003,0.21826 -0.47137,0.0858 -1.64576,-0.21781 -1.42496,0.20205 0.12025,0.22866 0.41168,0.33628 0.61471,0.49648 0.99858,0.78793 1.80601,1.76735 2.69627,2.70539 0.24556,0.25874 -0.40884,0.12377 -0.16324,0.51813 0.66476,1.06739 1.77795,1.72053 2.69809,2.54036 0.26326,0.23456 0.7351,0.3898 0.75664,0.74398 0.007,0.11856 -0.21103,0.10223 -0.0107,0.25562 1.44106,1.10364 5.65967,1.24806 4.65685,2.76347 -0.0915,0.1383 -0.38848,0.16892 -0.20872,0.4394 0.73558,1.10684 2.88004,1.81339 2.509,3.08613 -0.0764,0.26207 -0.494,0.21537 -0.72459,0.23523 -0.41864,0.0361 -1.45891,-0.30538 -1.25878,0.064 0.14731,0.2719 0.42621,0.5361 0.64356,0.7865 0.61636,0.71008 1.18068,1.46885 1.58812,2.34186 0.14609,0.31302 -0.13105,0.58222 -0.14939,0.87819 -0.0486,0.78489 0.35089,1.4942 0.75262,2.12485 0.15968,0.25067 0.20101,0.46918 0.26463,0.7282 0.0698,0.28436 -0.4638,0.11529 -0.61346,0.0494 -0.1165,-0.0513 0.29866,0.14956 0.3932,0.21917 0.71355,0.52541 1.14364,1.32795 1.64224,2.05397 0.1643,0.23924 -0.42502,0.23804 -0.21937,0.56721 0.18515,0.29636 0.47501,0.53412 0.72761,0.78028 0.76447,0.74498 1.72268,1.36301 2.21422,2.31725 0.21403,0.4155 -0.65749,-0.0937 -0.50058,0.28149 0.24556,0.58724 0.6483,1.09258 1.01362,1.60918 0.41651,0.58899 0.95742,1.17794 1.03485,1.90199 0.0267,0.25006 -0.38461,0.14111 -0.52294,0.0744 -0.14057,-0.0678 -0.4257,-0.26017 -0.33513,0.0537 0.16154,0.55973 0.54331,1.02046 0.88418,1.48131 0.45393,0.61372 1.06766,1.12392 1.39788,1.81373 0.11698,0.24436 0.50254,0.73411 0.19183,0.83026 -0.37374,0.11566 -0.74269,-0.11753 -1.06068,-0.29322 -0.28344,-0.1566 -0.12043,0.4071 -0.0864,0.55669 0.30902,1.35916 1.17427,2.5179 1.38371,3.91864 0.0659,0.44095 -0.43644,0.27493 -0.69513,0.29049 -0.34535,0.0208 -0.43776,0.40768 -0.49048,0.68437 -0.20931,1.09841 -0.0508,2.2429 0.29057,3.29594 0.28683,0.88482 0.76105,1.72929 1.50177,2.32903 0.37182,0.30105 -0.2843,-0.34963 -0.033,-0.0724 0.33049,0.36451 0.54668,0.91806 1.01152,1.07717 0.16244,0.0556 0.64483,0.30569 0.26511,0.40358 -0.18383,0.0474 -0.75934,-0.0648 -0.6122,0.0575 0.64216,0.53366 1.29598,1.07932 1.72568,1.82664 0.13967,0.24291 0.0774,0.48594 -0.21141,0.66242 -0.18379,0.11231 -0.7787,0.0271 -0.5693,0.38052 0.28863,0.48708 0.77796,0.89112 0.86652,1.46788 0.0712,0.46384 -0.38233,0.84032 -0.83645,0.86734 -0.29026,0.0173 -0.71843,-0.129 -0.8663,0.19121 -0.19391,0.4199 -0.11404,0.90407 -0.0516,1.34396 0.23579,1.66034 1.50936,3.41556 0.8441,4.95851 -0.12161,0.28205 -0.33996,0.52372 -0.31198,0.87856 0.0965,1.22379 0.68692,2.36275 0.71829,3.59341 0.0192,0.7541 -0.16808,1.5243 -0.0129,2.26241 0.22722,1.08091 0.96052,4.30914 0.78878,3.21656 -0.0476,-0.3027 -0.083,-0.75207 -0.4009,-0.83977 -0.43334,-0.11953 -0.14537,0.43718 -0.0368,0.61712 0.24771,0.41065 0.34317,0.88305 0.48685,1.33495 0.23035,0.72448 0.18429,1.52587 0.48188,2.22294 0.049,0.1148 0.20495,0.41733 -0.0439,0.21935 -0.25874,-0.20585 -0.56048,-0.85965 -0.78594,-0.61337 -0.25833,0.28218 -0.34261,0.68834 -0.39783,1.05824 -0.25772,1.72646 0.0119,3.48918 -0.24002,5.21296 -0.0437,0.29929 0.0304,0.70972 -0.21991,0.88181 -0.13615,0.0936 -0.21318,-0.35658 -0.42834,-0.15042 -0.37818,0.36237 -0.55999,0.87079 -0.79415,1.32817 -0.83715,1.6352 -1.04196,5.17356 -2.82257,4.72876 -0.15244,-0.0381 -0.32306,-0.32216 -0.49254,-0.0615 -0.40182,0.61788 -0.7206,1.28631 -1.05893,1.94061 -0.40433,0.78194 -0.89163,1.52557 -1.49543,2.16725 -0.25967,0.27596 -0.49864,0.8653 -0.85661,0.73856 -0.2547,-0.0902 -0.35832,-0.41991 -0.44892,-0.65744 -0.23864,-0.62565 -0.33534,-1.30758 -0.67727,-1.89434 -0.14329,-0.24589 -0.45744,-0.25794 -0.69943,-0.16785 -0.60231,0.22423 -0.93493,0.8169 -1.27438,1.32252 -0.37184,0.55387 -0.73258,1.21471 -1.39042,1.45357 -0.67191,0.24397 -1.39078,-0.10053 -1.91876,-0.51503 -0.7409,-0.58166 -1.36386,-1.3647 -2.28806,-1.67319 -0.74186,-0.24763 -1.52697,0.024 -2.19818,0.35549 -0.69784,0.34464 -1.41887,0.68885 -2.22003,0.72647 -0.83196,0.0391 -1.68247,-0.20682 -2.32728,-0.76263 -0.48903,-0.42153 -0.79102,-1.11483 -1.44041,-1.29438 -0.4968,-0.13736 -1.02371,-0.0513 -1.51908,0.0475 -1.07239,0.214 -2.13978,0.59681 -3.25658,0.46053 -0.5498,-0.0671 -1.06257,-0.3443 -1.41772,-0.776 -0.60578,-0.73635 -0.82238,-1.7556 -1.60132,-2.35369 -0.57918,-0.44471 -1.35884,-0.39526 -2.04072,-0.27966 -0.80729,0.13686 -1.65989,0.35142 -2.46298,0.0537 -1.1109,-0.41179 -1.87728,-1.35863 -2.73297,-2.12845 -0.69774,-0.62772 -1.57638,-1.18847 -2.54572,-1.13524 -1.05896,0.0582 -2.07641,0.47677 -3.14904,0.40525 -0.44036,-0.0294 -0.80511,-0.30439 -1.08079,-0.63437 -0.91602,-1.09646 -1.0643,-2.64259 -2.06944,-3.6827 -0.46619,-0.48241 -1.11548,-0.76803 -1.79396,-0.78135 -1.04844,-0.0206 -2.12169,0.48895 -3.13814,0.12024 -0.64939,-0.23556 -1.02674,-0.86082 -1.42383,-1.38368 -0.44423,-0.58493 -0.99814,-1.20339 -1.77177,-1.28581 -0.7717,-0.0822 -1.53438,0.3608 -2.29891,0.11143 -1.3447,-0.43861 -2.3507,-1.55947 -3.73563,-1.91752 -1.55561,-0.40217 -3.21633,-0.0526 -4.74651,-0.60728 -1.77978,-0.64518 -3.14874,-2.10036 -4.96102,-2.6627 -1.53986,-0.47781 -3.22632,-0.11149 -4.73541,-0.72016 -1.33185,-0.53718 -2.00367,-1.97213 -3.29452,-2.57314 -0.65499,-0.30496 -1.32925,-0.61912 -2.06717,-0.65901 -0.73358,-0.0397 -1.53945,0.0133 -2.16859,-0.44331 -1.13297,-0.82231 -1.86962,-2.06538 -2.37196,-3.35094 -0.75171,-1.92374 -1.10238,-4.00845 -2.15552,-5.81069 -0.75789,-1.29698 -1.97929,-2.21721 -3.16529,-3.0967 -1.09802,-0.81425 -2.16994,-1.71588 -2.8835,-2.90698 -0.722,-1.20519 -1.3338,-2.47503 -1.86137,-3.77436 -0.43945,-1.08231 -0.70113,-2.273 -1.43924,-3.20395 -0.54578,-0.68837 -1.43154,-0.92844 -2.23335,-1.17905 -0.83486,-0.26094 -1.75487,-0.46803 -2.38584,-1.11361 -0.432,-0.442 -0.60632,-1.05962 -0.75643,-1.64049 -0.39804,-1.54026 -0.44214,-3.16579 -1.08892,-4.64712 -0.34068,-0.78026 -1.09788,-1.2493 -1.83404,-1.60971 -0.8361,-0.40934 -1.75492,-0.78671 -2.31279,-1.58102 -0.34511,-0.49138 -0.43385,-1.11413 -0.34698,-1.69996 0.1919,-1.29408 0.75938,-2.48682 1.15669,-3.72347 0.28162,-0.87656 0.55463,-1.79891 0.41558,-2.73165 -0.075,-0.50337 -0.42992,-0.90649 -0.85632,-1.16516 -0.72979,-0.44272 -1.60061,-0.63668 -2.23907,-1.23789 -0.72035,-0.67833 -0.98298,-1.694 -1.01771,-2.65178 -0.0508,-1.40217 0.11022,-2.80221 0.28599,-4.1909 0.1888,-1.49165 0.50051,-2.97048 0.59533,-4.47136 0.0884,-1.39995 -0.26235,-2.84236 0.16626,-4.20672 0.35076,-1.11655 1.1558,-2.02467 2.02289,-2.77778 0.78179,-0.67902 1.60157,-1.33082 2.5127,-1.82083 0.69128,-0.37177 1.47607,-0.64046 2.0186,-1.22321 0.25547,-0.27441 0.31605,-0.66691 0.39516,-1.01897 0.19843,-0.88302 0.0135,-1.79387 -0.28605,-2.63205 -0.30496,-0.85333 -0.61373,-1.73051 -0.57166,-2.65098 z"
     id="path162" />
  <path
     id="path166"
     style="fill:#e29c60;fill-opacity:1;stroke:#e29c60;stroke-width:0.264583px;stroke-linecap:butt;stroke-linejoin:miter;stroke-opacity:1"
     d="m 235.31322,120.40001 c 3.47967,1.21891 4.71249,6.17139 4.49119,9.53636 -2.3218,1.00738 -3.5966,2.61004 -2.08631,5.05949 -1.16381,1.43618 -4.0044,1.13816 -2.92237,4.07696 -2.90487,-0.44554 -2.16719,3.23193 -4.57341,4.20416 -1.75394,1.11311 -3.98872,2.45948 -6.09341,3.45557 -2.28447,1.33417 -5.06907,0.82977 -7.0637,3.06374 -2.88707,0.29587 -6.2936,2.94559 -9.73791,3.18011 -0.86505,0.10953 -4.3065,2.05965 -3.26585,0.67148 -2.71762,0.51703 -7.26214,5.11251 -8.82491,4.13619 2.62611,-2.77714 -3.71545,0.22612 -5.021,-0.37695 -4.01915,-0.44607 -7.95678,-1.45898 -11.9904,-1.19327 -3.66552,0.40417 -7.24072,0.17629 -10.79097,1.69534 -2.06006,-0.0914 -3.54581,-1.72722 -6.11971,-1.31405 -1.41815,-3.19606 -5.51841,-0.37761 -7.74427,-2.05904 -3.39562,1.50432 -3.66565,-1.72792 -7.14099,-0.92795 -2.30403,0.0746 0.53881,-3.09813 -2.32152,-2.1691 -2.15573,0.51594 -6.33286,0.16873 -2.85003,-2.0454 -2.31369,0.17333 -6.80031,-0.98066 -2.84793,-3.26268 3.60187,-1.40703 -4.01488,-0.14747 0.20765,-1.04673 3.41488,-1.45511 6.52394,-2.86439 9.68161,-4.48579 2.677,0.19401 4.55134,0.19635 7.66242,0.47678 -0.35716,-1.49398 5.44133,-0.55056 7.06555,-1.74381 -4.06276,-1.00553 3.51685,0.64241 3.40854,-0.72472 -2.57299,-3.73093 8.23337,0.22006 5.13358,-4.10276 -0.49323,-2.73527 7.71601,0.53419 5.37158,-3.62987 1.66707,-0.0487 7.86499,0.021 6.67129,-1.80672 2.50965,0.0105 6.45736,-0.35019 7.84283,-2.22272 3.29872,1.31768 6.36805,-0.11419 9.03329,-0.5388 3.68016,0.84079 6.8877,-1.5315 9.59284,-0.62858 2.20937,0.65963 5.23251,0.99306 5.63428,-1.07534 2.66203,1.30455 6.80388,2.1955 8.03983,-0.69784 1.9304,0.31742 6.74611,0.79975 3.87891,-2.13732 2.25172,-0.97365 5.28916,-0.092 7.6793,-1.36674 z" />
  <path
     id="path172"
     style="fill:#e2c798;fill-opacity:1;stroke:#e2c798;stroke-width:0.264583px;stroke-linecap:butt;stroke-linejoin:miter;stroke-opacity:1"
     d="m 234.08076,107.57815 c 0.29743,2.80447 -4.26447,-1.02561 -3.08618,1.56572 -1.98334,0.18001 1.27985,2.75944 -1.84861,1.94839 -1.91381,-0.69012 -3.40314,-0.7242 -3.7886,0.66236 -1.737,-0.0452 -4.0124,-2.50191 -3.33687,-0.0233 -2.60859,0.659 -5.93199,-5.7894 -6.07213,-0.94874 -2.94599,-0.17658 -4.86791,-4.44211 -5.91283,-2.05265 -1.78837,-1.20457 -3.09592,-1.84438 -4.01385,-0.51846 -1.65907,-0.99479 -5.02206,-4.45762 -3.58982,-0.2277 -1.53563,1.87856 -6.52343,-4.91099 -4.59926,-0.0188 -0.31697,2.27882 -2.75536,-2.56757 -2.91188,0.62262 -2.37339,1.15636 -5.49271,0.0545 -7.89714,0.89858 3.36952,3.11118 -6.86508,-0.10532 -1.93245,2.61978 -2.02598,1.63661 -6.11833,-0.30179 -5.95944,2.6798 -2.04766,0.0906 -4.54641,-0.0316 -3.87792,2.2067 -1.97678,0.34105 -2.99067,1.29528 -3.02049,2.35331 -2.34182,-0.16429 -2.54353,1.2897 -2.49642,2.39262 -3.89197,1.25587 2.63033,3.17144 -1.60938,1.32148 -2.62513,-0.92368 -6.0406,-3.52703 -7.15512,-1.49746 -2.93466,-1.47601 -3.09147,-2.77097 -6.06235,-2.42644 -3.49477,-2.04664 -6.4986,1.21148 -9.60824,3.01623 -0.53174,2.0707 -6.26171,1.20619 -8.53381,2.96566 -3.63862,0.9758 -6.83411,3.43948 -10.44227,4.81354 -4.11113,1.51039 -2.48492,6.97424 -3.4609,10.58605 -0.26965,3.29744 -1.55176,8.28828 3.55596,6.82087 5.75546,0.3648 11.59118,0.48444 17.26505,1.41813 0.0816,1.42644 -1.13196,2.91477 1.54355,1.66273 2.5107,-0.20226 5.1611,-1.38215 6.64224,-2.15668 -0.0535,-0.93389 4.36416,0.44862 4.72465,-1.34856 2.14813,-0.40389 5.80018,-1.78596 5.98141,-1.14044 1.86713,-0.59408 5.56609,-1.36406 5.35273,-1.54859 2.65263,-0.7295 7.085,-3.14925 8.02915,-1.78476 2.81085,-0.46814 6.41587,-1.87937 6.46964,-2.98653 2.24455,-1.47856 4.64738,-0.90558 5.31908,-2.10744 2.7695,-1.52593 7.64965,-1.80504 9.15795,-3.98881 2.25045,-0.14462 3.41123,-0.41418 5.22885,-0.31523 1.21593,-1.40574 5.8922,2.39973 8.3827,0.28125 3.98509,0.99969 6.85587,-1.92328 10.46354,-2.93665 0.87104,-1.27585 3.23314,-0.43203 4.10747,-2.61802 3.48639,1.19238 3.42003,-2.79131 6.47372,-3.01772 2.20278,-1.68941 6.76571,-4.13083 3.43082,-6.73038 -0.0638,-2.8868 5.68633,-3.16342 1.80618,-5.53939 -0.80123,-1.6676 -0.88298,-3.94979 -2.71873,-4.90308 z" />
  <path
     id="path184"
     style="fill:#e2c798;fill-opacity:1;stroke:#e2c798;stroke-width:0.264583px;stroke-linecap:butt;stroke-linejoin:miter;stroke-opacity:1"
     d="m 88.035778,79.20592 c -1.735692,-2.25147 -3.214685,-7.42591 -3.831432,-8.39472 -0.596366,3.67721 -4.095666,6.20348 -5.180047,9.7279 2.563253,2.23701 -0.887267,3.8352 -1.002618,3.88466 0.06193,2.05128 1.518888,5.17027 -1.291555,5.10853 3.033086,1.18841 -0.338639,4.0351 0.301759,3.61402 1.911873,2.38203 -3.223441,1.26046 -0.806815,3.14731 -2.401022,4.11728 1.785316,9.49965 1.052187,13.69378 -2.689081,-2.35265 1.435894,4.67163 -1.155692,2.05371 -0.127425,3.10463 2.127756,6.16385 0.916131,8.48969 -1.990852,1.82829 3.655704,6.53154 6.235081,7.70016 -3.099761,-0.15604 1.022521,2.26803 1.91017,3.51734 1.43849,3.93287 6.7416,3.66075 8.507182,7.43553 -2.303555,2.01914 5.024118,0.65422 6.860231,2.25702 4.22698,1.64132 8.8284,2.40442 13.35466,2.81617 4.46274,0.0659 9.46796,6.79055 13.11225,1.47027 3.68255,-1.14072 1.67271,-2.60563 1.45938,-4.79835 6.71167,-2.32816 -2.31597,-4.38359 -4.76101,-5.83348 -4.8156,-2.30318 -10.74397,-0.52103 -15.60561,-3.22263 -3.26692,-2.78274 -8.200297,-2.59053 -10.122575,-6.66416 -2.297593,-3.11998 -8.129798,-4.02973 -8.648271,-8.75401 -3.427642,-4.96671 -4.288375,-12.08821 -4.273418,-18.17814 -2.88097,-6.0166 -0.497232,-12.82789 3.013135,-18.01121 0.725008,-0.36807 0.118116,-0.70892 -0.04312,-1.05939 z" />
  <path
     id="path190"
     style="fill:#b3b3b3;stroke:#b3b3b3;stroke-width:0.264583px;stroke-linecap:butt;stroke-linejoin:miter;stroke-opacity:1"
     d="m 160.28184,97.46264 c -1.43954,5.67421 0.5785,11.85092 4.52949,16.04122 3.22747,2.25881 -4.35921,-0.99746 -0.95436,0.8103 1.76797,1.1596 4.20363,2.00995 5.97343,2.36759 -2.23663,0.0237 -2.14771,1.05261 0.0381,1.30913 1.98622,-0.37143 5.00296,1.67467 1.39183,1.70913 1.51083,-0.24159 2.97016,0.5551 0.51389,0.92254 -3.08494,0.35423 4.15282,0.74752 0.79542,2.36128 1.4932,1.33897 1.20718,2.44319 -0.56155,2.35856 1.80673,0.89805 1.28937,1.30645 0.0875,1.52728 1.31012,0.98038 2.20495,2.91728 -0.29175,2.25851 -2.0182,-1.27183 -4.20994,0.13683 -2.20298,2.15041 -1.44934,-0.15165 -2.77165,-3.46819 -3.98563,-1.64738 -0.3335,-0.9654 -0.16714,-6.01347 -1.25839,-2.80646 -0.84831,3.07651 -1.35523,-5.14555 -4.09312,-1.84259 -1.70019,-0.0778 -2.27565,-4.40162 -3.15182,-1.34642 -1.65113,-1.80422 -2.90847,0.87868 -4.71439,-0.0452 -2.43536,1.0638 -3.90834,3.59454 -5.41645,5.16916 -1.12513,-2.05561 -2.82328,-1.39183 -3.20836,0.44197 -1.76022,-2.45063 -3.71997,2.90749 -3.64857,2.16063 -2.07487,-2.76513 -2.23161,3.62625 -3.8721,1.53003 -1.70994,0.28398 -1.70944,3.36898 -3.9848,1.80542 -2.84116,-0.28624 2.27641,4.06391 -1.43588,2.78534 -1.02939,-0.19874 -5.55786,-1.76902 -2.81894,0.23511 1.56434,3.0508 -5.1894,-1.9708 -2.32037,1.29962 -0.91815,1.96461 -3.0748,-1.14214 -4.04684,-0.94408 -1.85401,1.47764 -3.2581,-1.41555 -4.18383,-1.25144 -2.15925,1.95987 -3.92554,-1.50849 -6.20632,-0.051 -0.47904,-3.35173 -5.93304,0.84082 -5.83124,-2.3562 -0.54887,-0.74956 -4.14698,1.63668 -3.04346,-1.25504 0.57782,-1.36062 0.67018,-2.19745 -0.77867,-2.2326 0.46204,-1.81955 -0.84262,-2.27828 -1.960304,-2.80724 -0.241897,-1.84004 3.327984,-4.46074 2.104614,-5.22784 -3.601946,0.84636 1.15868,-3.44538 1.9944,-4.32128 -1.21406,-0.48978 -3.91477,0.68787 -1.37284,-1.26199 0.96827,-1.28527 4.69126,-2.60002 4.46035,-3.52137 -1.12967,0.36439 -3.83571,1.07508 -1.59794,-0.46767 0.96707,-1.37634 5.86458,-3.18925 1.77717,-3.60735 -1.97061,-1.86658 3.18549,-4.19638 4.81482,-5.3788 2.57495,-1.6949 -5.99225,2.03333 -2.31779,-0.62315 1.50644,-1.50816 5.21221,-2.41485 5.98611,-3.48287 -1.57756,0.30668 -3.39984,0.14896 -0.97953,-1.02322 2.04268,-1.63875 4.94478,-2.49448 7.13351,-3.19737 -2.53423,-1.38518 3.80395,-2.58242 2.44422,0.37168 0.95133,-1.98648 3.95354,-3.74665 5.20559,-1.05551 1.99238,0.23894 4.24904,-4.77457 5.74691,-2.3384 1.97802,4.03941 6.07784,-2.45351 8.88265,0.51656 2.06444,1.39218 5.03187,-2.15656 5.94753,1.46944 2.08753,1.49502 5.16545,1.13138 7.66479,2.0016 1.10344,0.0368 1.71301,1.79868 2.74587,0.48996 z" />
  <path
     id="path196"
     style="fill:#5f380f;fill-opacity:1;stroke:#000000;stroke-width:0.264583px;stroke-linecap:butt;stroke-linejoin:miter;stroke-opacity:0"
     d="m 117.58986,54.00586 c -2.01917,-0.16812 -7.41643,-1.44363 -7.44725,-0.43476 -1.93023,0.88086 -5.61093,0.23005 -6.92067,1.46579 1.26003,0.29177 4.42664,-0.21563 1.50626,1.1 -1.30523,0.64948 -5.050178,0.91965 -1.39081,1.39095 2.58009,1.24968 -4.004719,1.46722 -3.402557,1.85266 3.786977,1.54582 -5.918114,2.10797 -2.476682,2.28864 -2.349039,0.96682 -4.719799,1.20095 -6.353569,1.53452 0.688983,0.19232 3.312576,-0.1979 0.724624,0.69995 -2.085331,0.66436 -4.324428,0.65201 -6.411574,1.28453 1.457383,0.20816 4.988902,1.06214 1.873321,2.16677 -1.490182,0.63821 -3.923024,1.96367 -1.18712,2.7652 -1.067144,1.22141 -1.904022,1.51231 -0.44591,2.39676 -0.62201,1.22852 -3.661051,1.94331 -0.818213,2.32883 0.296946,1.82937 -3.031111,3.47721 -2.607566,5.06831 3.643751,0.0834 -2.149073,3.18453 0.934056,3.88024 0.13616,1.47798 -1.381558,2.6326 -0.106916,3.74956 -1.093738,2.66763 -1.369087,5.71853 -2.237341,8.47683 1.613816,-0.84835 -0.03362,3.41161 0.06474,4.47331 -0.352074,1.59759 -0.688032,2.6501 0.264666,2.89057 1.112575,1.97821 -4.536342,3.62505 -0.568067,3.55946 1.437571,0.25269 2.777848,0.83139 1.302979,1.80247 2.008514,0.68139 2.281868,2.66306 0.184388,3.4238 2.0984,0.0399 2.815809,2.29085 1.566484,3.48537 1.921219,0.6262 0.299185,3.10354 3.025753,3.06069 2.205676,0.63229 0.482665,0.87286 0.377724,1.67876 3.347121,1.82482 5.870854,4.95048 6.937133,8.55257 2.138101,-0.0262 1.379486,4.67041 3.72763,2.46716 1.203011,1.78 2.713147,0.76222 3.823807,0.10984 1.83004,4.06922 5.38614,-2.79716 3.51087,-3.0964 -0.68534,-0.005 -0.26255,-4.11261 -0.38267,-5.55183 0.0761,-1.1673 0.10146,-1.35847 0.24352,-0.24737 -0.28256,-1.29589 0.34192,-5.5117 0.82213,-1.80591 0.66096,0.16154 0.86951,-4.03473 1.68671,-1.6431 -0.17997,-1.07867 0.76077,-6.00136 1.42195,-3.44193 0.56854,-1.60581 -0.0942,-5.26543 1.9488,-4.18782 1.31577,-1.13851 1.79064,-6.578 2.46585,-2.56761 -0.17303,-1.25912 0.69958,-6.51504 1.4612,-2.53136 1.05392,0.0554 1.14089,-6.51346 3.33205,-4.01766 1.97705,-0.04 1.44777,-3.75016 1.54345,-5.25695 1.42634,-2.90217 1.264,-6.16007 -1.87547,-7.67523 -1.36406,-2.12314 -3.03764,-4.38241 -3.17914,-6.97043 1.86743,-2.74561 1.86826,-5.77884 0.008,-8.51162 -1.39333,-3.69345 1.62226,-6.34222 3.25438,-9.22941 1.3298,-2.96138 1.83895,-6.5329 1.13654,-9.68122 -0.31772,-0.49905 -0.82804,-0.82909 -1.33789,-1.10293 z" />
  <path
     id="path205"
     style="fill:#120701;fill-opacity:1;stroke:#120701;stroke-width:0.264583px;stroke-linecap:butt;stroke-linejoin:miter;stroke-opacity:1"
     d="m 162.50023,18.24663 c 0.98127,-1.70486 3.14938,-1.9643 4.34724,-3.4593 2.15474,-2.19231 4.95271,-3.64594 6.90568,-6.05748 1.54283,-1.44953 2.49565,-3.30223 3.64337,-5.01705 0.64334,-0.66028 2.5455,-2.87273 3.09468,-1.51342 -0.51506,2.29905 -2.47625,3.92947 -3.00061,6.23895 -0.91878,2.60027 -1.63523,5.29427 -2.99012,7.71335 -1.29174,3.4086 -3.55986,6.36811 -4.64382,9.8577 -1.29985,2.49189 -3.16797,4.66995 -4.10788,7.3526 -0.69206,1.83622 -2.39999,3.2639 -2.3435,5.35839 0.0591,1.37776 0.0817,3.91061 -1.98161,2.65811 -1.94639,-0.49433 -3.3136,-2.08933 -5.08839,-2.95049 -1.52905,-0.9479 -3.50844,-1.09714 -4.63876,-2.66571 -1.41252,-1.11393 -1.7526,-3.18884 -0.5655,-4.60429 1.61094,-2.1803 4.11997,-3.46439 5.77093,-5.62071 1.35146,-1.39134 2.41054,-3.03821 2.97694,-4.90141 0.31797,-1.5313 1.88781,-1.34354 2.62135,-2.38924 z" />
  <path
     id="path210"
     style="fill:#e2c798;fill-opacity:1;stroke:#e2c798;stroke-width:0.264583px;stroke-linecap:butt;stroke-linejoin:miter;stroke-opacity:1"
     d="m 175.49023,8.28639 c 0.66947,0.27736 1.93207,-0.6183 2.63012,-0.32731 -0.2919,0.5283 -1.81015,1.2791 -0.31334,1.15133 0.61657,-0.21268 1.80455,-0.12419 0.71076,0.49707 -1.30832,0.70258 -2.35493,1.81248 -3.65917,2.48177 -0.78307,0.20057 -0.59873,0.47281 0.0501,0.46159 -0.92357,0.97121 -2.19027,1.65215 -3.32744,2.35661 0.48406,0.3185 2.55672,-0.29826 2.55595,0.13729 -0.51573,0.65394 -2.21405,1.22776 -2.32322,1.54184 0.73144,0.0485 2.59837,0.30552 1.11472,1.02358 -1.16134,0.32726 -1.19055,1.09488 -0.01,1.25805 1.83335,0.2641 -0.15714,1.21434 -0.79209,1.69364 -1.20603,1.18234 1.38599,0.3814 1.90634,0.0849 0.93792,-0.32726 -0.68117,0.96712 -1.00424,1.12884 -0.93635,0.63843 -1.94101,1.21082 -2.97984,1.60659 0.34311,0.44656 2.58357,-0.44772 2.46261,0.27279 -1.09619,1.07946 -2.82781,1.21315 -3.92791,2.2382 1.1942,0.21335 -1.31734,1.31998 -1.76586,1.60992 -1.58965,0.9447 1.1162,0.60287 1.75436,0.61113 0.31937,0.81101 -3.1452,1.35963 -1.04735,1.58309 0.52562,0.1329 2.37532,-0.41757 2.23695,0.1083 -1.41892,0.58423 -2.90724,1.05029 -4.22087,1.86304 -0.20201,0.66112 3.39494,-0.18475 1.45639,0.79021 -0.54747,0.4578 -2.45427,0.59769 -0.70521,0.59869 0.77551,0.25338 -1.24296,0.83294 0.0532,1.11689 0.75557,0.0245 2.18342,1.26686 0.68816,1.27964 -0.88644,0.24062 1.12037,0.53634 1.49495,0.59046 0.88721,0.79524 -1.49237,0.67164 -2.02809,0.75969 -0.80914,-0.10799 -1.63993,0.56515 -0.45927,0.94773 0.47943,0.53662 1.99492,0.33608 2.12307,0.7176 -1.68845,-0.13857 -3.18592,0.89128 -4.82026,1.0446 0.46107,-0.60122 1.44445,-1.58774 -0.0648,-1.31859 -1.4301,0.12896 0.20559,-1.8415 -1.19176,-1.30139 -0.72031,0.1165 -2.95755,1.04749 -1.98977,-0.4712 0.63639,-0.81734 -1.5777,0.68309 -2.23318,0.45101 -1.27874,0.62169 -1.13677,-0.55618 -0.49256,-1.22415 0.98581,-1.18718 -0.15205,-2.80232 1.05291,-3.88812 0.89296,-1.00826 2.81909,-2.03439 1.07182,-3.28392 -0.41633,-1.61438 1.48853,-2.56086 2.64043,-3.24236 1.19346,-0.45948 1.85208,-1.38991 1.6564,-2.65411 0.75895,-1.37105 2.51624,-1.80224 3.30648,-3.15547 -0.0821,-1.55429 1.27771,-2.62907 2.09138,-3.80826 1.70483,-2.13784 3.51187,-4.1884 5.42352,-6.1421 0.32021,-0.37411 0.62347,-0.76507 0.87524,-1.1891 z" />
  <path
     id="path215"
     style="fill:#421c01;fill-opacity:1;stroke:#421c01;stroke-width:0.264583px;stroke-linecap:butt;stroke-linejoin:miter;stroke-opacity:1"
     d="m 139.23163,26.52094 c 3.68933,-1.09083 7.16614,-2.98289 10.06627,-5.5066 1.71046,-1.86499 3.94041,-3.1627 5.9034,-4.74405 1.99696,-1.33226 3.79417,-2.99093 5.93431,-4.08544 1.9047,-0.74303 3.78386,-1.75463 5.28629,-3.14284 1.69956,-1.27705 3.38741,-2.55461 4.95558,-3.9982 1.64715,-1.43244 3.15646,-3.30762 5.36758,-3.88779 1.35113,-0.17156 5.17944,-1.15452 3.88787,1.40839 -1.87477,2.91771 -4.95951,4.81452 -6.70189,7.84187 -1.74462,2.65532 -3.35153,5.43225 -5.62446,7.68414 -2.13394,2.83267 -4.55304,5.41843 -6.95062,8.02299 -1.48532,1.65549 -2.65691,3.69023 -2.59127,5.9807 -0.25096,1.87824 0.26283,3.75573 0.0611,5.62855 -1.51096,-0.85406 -3.48536,-1.03756 -5.13433,-1.76908 -1.99017,-0.96698 -3.93124,-2.0355 -6.01159,-2.81504 -1.90358,-0.90227 -4.08323,-1.14141 -5.76192,-2.50584 -1.69452,-0.38538 -4.51864,-1.2878 -2.97783,-3.55922 l 0.14328,-0.27762 0.14811,-0.27491 z" />
  <path
     id="path344"
     style="fill:#999999;stroke:#999999;stroke-width:0.264583px;stroke-linecap:butt;stroke-linejoin:miter;stroke-opacity:1"
     d="m 117.54849,101.91267 c -0.81225,0.71798 -2.47599,2.36923 -0.36345,2.42179 1.1474,1.04796 -1.39064,2.70222 0.69528,3.0644 1.59176,1.04571 2.40227,2.82226 3.76783,4.10296 0.31105,1.14021 0.61472,2.06293 2.03677,1.7582 1.44244,0.93074 -0.70045,2.22019 0.26515,3.28181 -0.75679,1.31708 0.26345,2.69724 -1.18831,3.72778 0.0264,0.43491 1.28283,0.76106 0.68325,1.7011 0.26455,1.04243 1.86004,0.60785 1.85048,2.07387 1.05179,0.68268 -1.057,3.81979 0.71167,2.11206 1.08612,-1.81781 3.0823,0.0381 4.33876,-1.3158 0.92441,-1.26989 2.33547,-1.05133 3.60407,-1.13683 1.15229,-0.33174 1.97472,-2.78872 2.70933,-2.50323 0.88683,1.87042 1.54248,-0.87593 1.98574,-1.37315 1.63343,1.39621 3.96113,1.00696 4.61405,-1.17792 0.70384,-2.20695 2.72936,0.10586 4.24275,-0.58146 1.17424,-0.44138 3.56789,-0.65558 2.13518,-2.37362 -0.0263,-1.31634 3.17353,-0.13527 2.26834,-2.19388 -1.26662,-2.47363 2.43908,-1.23363 3.16631,-2.46352 -0.37596,-1.91985 3.1907,1.3774 2.58995,-1.27395 0.42853,-1.62032 -0.59398,-2.50893 -1.8133,-3.25123 -1.56688,-0.86168 -3.69666,-0.45931 -5.11699,-1.76862 -1.89552,0.10863 -3.43828,-0.95935 -5.12192,-1.69732 -1.86934,-0.5469 -4.0193,0.20064 -5.69515,-1.05805 -1.56201,-1.30003 -3.68646,-0.32182 -5.36344,-1.14757 -1.93602,-1.02564 -4.19587,-0.0338 -6.26496,-0.36815 -1.99612,-0.36648 -3.75381,1.1452 -5.75184,0.54393 -1.53776,-0.20251 -3.62186,-0.65541 -4.70364,0.7139 l -0.28185,0.18285 z" />
  <path
     id="path232"
     style="fill:#c8beb7;stroke:#c8beb7;stroke-width:0.264583px;stroke-linecap:butt;stroke-linejoin:miter;stroke-opacity:1"
     d="m 172.13775,99.77887 c -4.18684,-2.7995 -6.42325,-8.20093 -11.59762,-9.55193 -3.13684,-0.75417 -6.3229,-1.32322 -9.33318,-2.5299 -2.1976,-1.05712 -4.53324,-0.20432 -6.80675,-0.31213 -2.34624,-0.8214 -4.82565,-0.76415 -7.25625,-0.42678 -1.51266,-0.13064 -3.07673,0.002 -4.43941,-0.0381 -1.18383,-1.12015 -3.9328,-0.19897 -5.52017,-1.40678 -2.93502,0.31642 -5.52125,-1.06518 -8.49445,-0.39026 -4.55782,0.78618 -9.22437,1.91523 -13.84917,1.4779 0.53812,1.281 5.54392,0.66807 2.37005,2.19175 -1.01375,0.31318 -2.5625,1.10549 -0.6063,0.70055 2.35911,-0.75323 2.25261,1.4041 0.30533,2.03348 1.28023,-0.83326 3.39178,0.1376 1.24469,1.44743 -1.69693,1.389 3.24682,-0.46238 3.44143,1.41771 0.53076,1.07405 -3.57854,3.28239 -0.74544,2.43095 2.68951,-0.38652 -2.20292,4.55625 1.06531,2.98468 1.21535,-1.31263 3.06756,-0.67372 1.74369,1.06729 -0.68731,2.1847 2.30375,-2.09623 1.49008,0.99838 -0.26897,1.76047 0.87783,3.71667 2.41092,1.98639 0.5065,1.0519 1.04807,2.73097 2.18087,0.9059 1.29191,-1.95553 0.94663,4.43019 2.23342,1.11441 0.32417,1.02743 0.10177,4.47694 1.2159,1.72918 0.48143,-1.13139 0.67765,-1.78431 0.76658,-0.0502 0.3841,1.29384 1.59933,3.06089 1.57252,0.53485 0.12688,-1.07125 0.47492,-4.21081 0.94149,-1.48541 0.34504,1.45685 0.87125,1.92189 0.87692,0.19557 0.0533,-0.99524 1.02603,-4.36948 1.14972,-1.52286 0.83163,2.50729 2.85487,-4.49016 3.77267,-1.41664 -1.02295,3.45853 1.93674,-1.66757 3.55201,-1.06481 -0.0787,1.13843 -3.98032,2.82498 -0.78981,1.68783 0.84651,-0.27851 3.50555,-2.06728 2.42209,-0.49309 2.78205,0.437 5.59363,0.62955 8.32363,1.37539 3.02213,0.27663 5.92228,1.3759 8.98177,1.21862 3.04867,0.0241 6.22687,0.36097 9.04647,-1.09514 2.98422,-0.99921 5.23664,-3.16871 7.57117,-5.13982 l 0.39258,-0.27015 0.36716,-0.30368 z" />
  <path
     id="path237"
     style="fill:#d68f50;fill-opacity:1;stroke:#d68f50;stroke-width:0.264583px;stroke-linecap:butt;stroke-linejoin:miter;stroke-opacity:1"
     d="m 110.36749,54.41434 c -1.45091,1.99306 -3.36598,3.6246 -4.92099,5.50516 0.89535,-0.36173 3.7158,-3.03025 2.35803,-0.39823 -0.47999,1.1372 -3.18693,2.66995 -2.70928,3.42434 0.88627,-0.52519 4.24207,-2.23639 2.33565,-0.0462 -0.70249,0.47196 -1.96983,2.74157 -0.33694,1.25517 1.44811,-0.47084 -2.33166,3.29697 -0.1935,2.12274 1.25839,0.71082 -2.63491,2.83279 -0.11662,2.00397 2.39105,0.4794 -0.66113,3.02446 -1.17383,3.56936 1.12,-0.33453 3.53106,-0.11682 1.44195,0.99892 -0.87855,0.41986 -1.69984,0.94442 -0.10804,0.64549 1.75544,0.0332 -1.77023,1.0816 -2.15288,1.32251 -1.84756,0.5338 3.42806,0.11009 1.02282,1.33449 -0.89503,0.42496 -4.33466,1.88598 -1.41627,1.52805 1.10408,-0.28439 3.93247,0.30177 1.45972,1.14105 -0.91325,0.28948 -3.7247,1.5236 -0.98487,1.14109 2.77097,-0.27099 0.39757,1.17152 -0.0482,1.99706 2.81369,0.76836 0.53942,3.25129 -0.74848,4.19903 0.73513,0.17968 2.43846,-0.51903 1.35238,0.99837 -1.96858,1.94779 0.82776,0.004 1.79839,0.0955 0.53211,0.75222 -2.12506,3.29616 -0.14178,1.80296 0.74663,-0.58589 3.3785,-1.89338 2.52131,-0.38514 1.30128,-0.27339 3.81791,-1.66511 4.55864,-0.47599 -2.05844,1.58325 1.92199,-0.68846 2.63437,-0.97207 0.93219,-0.004 -1.69577,1.67304 0.3549,0.67669 1.01469,-0.32174 3.48175,-1.17175 1.46649,0.3005 0.8734,-0.24852 4.13323,-1.39758 2.62316,0.8238 0.98819,-0.45579 4.36673,-1.99443 4.15174,-0.55642 -1.69892,0.61839 1.82176,-0.16426 2.3153,-0.0768 1.77797,-0.23203 -1.39238,1.59405 0.87276,0.85265 1.63775,-0.74948 2.65722,-0.009 1.66826,1.29109 0.88522,-0.40325 4.77823,-1.57763 2.50744,0.29821 -0.63958,0.6703 1.66879,-1.47466 2.43123,-1.29084 1.5246,-0.4998 -0.70894,1.11043 1.2259,0.23176 0.78478,-0.37489 3.65624,-1.8211 3.66674,-0.8286 -1.18511,0.94461 1.72211,-1.02413 2.18781,-1.16585 1.1218,-0.71592 2.33126,-0.52796 0.60076,0.37692 1.82837,-0.38915 3.92771,-1.128 5.85868,-1.60078 -0.0378,-0.91807 -2.06816,-1.56522 -2.06153,-2.71273 -1.20138,0.27333 -1.53758,0.0612 -0.74452,-1.02332 0.52561,-1.34411 -2.73397,-0.63786 -2.04598,-2.51189 -1.17563,-0.34716 -1.36321,-1.29013 -1.83373,-2.04696 -0.95952,-0.57943 -0.3276,-3.06557 -0.51849,-3.35216 0.6,-1.69989 -5.36965,5.29314 -6.36236,5.24263 0.14899,-1.12109 3.09784,-2.41322 3.06549,-3.37712 -0.8047,-0.20005 -3.78577,2.37511 -2.25147,0.29216 1.61565,-2.32521 -3.5694,0.87158 -3.46378,-0.9114 1.11353,-1.32191 2.55365,-3.44286 -0.37145,-2.96693 -1.5273,-0.35689 -0.45142,-2.56315 -1.8588,-3.33009 0.93192,-1.79643 0.5526,-3.20194 -1.7061,-3.14385 -2.31723,-1.49601 2.7588,-5.0906 -1.10554,-5.38137 -1.91846,-0.73008 -1.88829,-3.30788 -4.4121,-2.80444 -1.43242,-0.63045 -1.93595,-2.76296 -2.27765,-3.7222 0.30931,-0.92798 1.60395,-3.62018 -0.0517,-1.56943 -1.38133,1.49638 -0.28105,-2.22618 -0.29144,-2.90211 -0.0592,-2.73482 -1.47126,1.66448 -2.18302,1.79491 0.10736,-1.28801 -1.07182,-4.69884 -1.75919,-1.67621 -0.25666,0.95938 -1.12042,2.82651 -0.73711,0.61928 -0.16396,-1.60091 -1.11954,1.82839 -1.57831,2.25571 -0.82825,0.83614 -2.62975,1.51794 -3.81394,1.08756 z" />
  <path
     id="path246"
     style="fill:#e29c60;fill-opacity:1;stroke:#e29c60;stroke-width:0.264583px;stroke-linecap:butt;stroke-linejoin:miter;stroke-opacity:1"
     d="m 145.93592,71.34008 c -2.75332,1.30875 -4.54489,3.9185 -6.28733,6.31386 -0.52468,1.2998 2.70554,1.84607 0.68201,3.36624 -2.92141,1.44503 3.31865,-0.78043 0.74109,0.94274 -2.35284,0.94036 3.21057,0.74063 0.49902,2.1852 -1.14357,0.74427 -2.05316,1.7108 0.074,1.60036 1.98403,0.19733 2.72958,1.59156 1.08386,2.61908 0.90454,1.10911 5.16529,0.21259 3.70027,2.25615 -0.55516,1.20342 3.23908,-0.0941 4.23519,0.40271 3.04965,0.22344 6.05481,0.90329 9.02205,1.59272 2.49959,1.08782 3.77691,3.74564 6.02403,5.21373 1.87241,1.74187 3.33089,3.97985 5.70561,5.12589 3.17678,1.7247 6.88165,1.95507 10.34506,2.75376 2.19504,0.12127 4.97195,0.81797 6.72585,-0.91391 1.605,-1.06536 0.83905,-5.20255 3.55263,-3.21558 2.72561,0.56585 0.29534,-3.29498 -0.75732,-4.1298 -1.70245,-1.69048 -3.32315,-3.45532 -4.56254,-5.5217 -2.08209,-2.69144 -4.91741,-4.67953 -7.07299,-7.29534 -1.17249,-2.06154 -2.7869,-3.89363 -3.93299,-6.02136 -2.04392,-3.58508 0.0523,-8.09624 -2.07397,-11.61895 -2.52123,-2.56111 -6.25297,-3.35835 -9.68074,-3.92575 -4.61878,-0.27922 -8.55898,2.64865 -12.24979,5.04555 -1.81294,1.35173 -3.27928,3.33739 -5.77291,3.22446 z" />
  <path
     id="path255"
     style="fill:#a35419;fill-opacity:1;stroke:#a35419;stroke-width:0.264583px;stroke-linecap:butt;stroke-linejoin:miter;stroke-opacity:1"
     d="m 126.75903,30.14597 c -0.16982,-1.19127 0.65011,-2.64563 0.17639,-0.64494 -0.23359,2.43461 2.47929,-2.20928 2.59043,-1.79154 0.31863,3.26898 1.37,-2.86015 1.86167,0.271 0.62242,1.32147 3.21472,-3.78831 2.57368,-0.52774 0.0487,1.9578 3.63524,-4.52735 3.07379,-0.62216 0.43686,2.03226 3.02777,-3.82335 3.46705,-0.0329 -0.0181,3.02441 2.8168,-2.84177 2.32009,0.97233 -0.0402,1.47269 1.49845,-1.00132 1.10619,1.14294 -0.0658,2.60864 2.46039,-1.60154 1.69268,1.18104 -0.86838,2.70331 4.29163,-0.99229 2.91102,2.32852 1.09312,-0.54707 3.8158,-1.27244 2.30523,0.87575 -1.18257,2.7348 3.52142,-3.10544 3.5868,0.66433 0.30478,1.92512 2.24409,0.37671 2.9307,2.50427 1.45515,-2.56429 1.87225,0.32039 2.39481,1.57009 1.3243,-1.24743 2.00219,-1.23049 2.51041,0.69586 0.72183,-0.89991 2.47603,-1.92623 1.44613,0.21325 0.006,0.81186 3.86805,-0.11284 2.24716,1.97931 -1.9473,1.39722 3.97705,-1.0551 1.89655,1.54452 -1.48065,1.18217 -0.3193,1.8432 -1.29216,3.207 4.00324,-0.50635 -2.8408,3.69234 1.35224,3.40384 -0.33118,1.25637 -1.23244,2.41469 0.65666,2.46233 0.21754,1.63292 -3.08734,4.50254 0.24468,3.14726 -0.28519,1.10429 -1.67233,3.4138 0.41588,1.75218 1.24621,-0.43574 -1.62833,3.89635 1.23551,2.43113 2.72773,-0.66488 1.0002,2.1753 0.36455,2.8953 1.29271,-0.1901 6.42933,-0.89421 2.72536,0.68988 -2.18488,1.63814 5.65241,-0.40053 1.74251,1.61213 0.74369,0.43789 5.05447,0.39077 1.80003,1.31926 -2.15745,1.34508 1.80239,-0.22859 -0.49142,0.56986 -2.06639,1.23136 -1.70698,4.02841 -2.09721,5.71325 -1.42234,-1.66517 -2.57731,-1.72494 -2.62062,-4.06915 -0.2017,1.19323 -1.19246,2.21367 -1.95736,1.17025 -0.0912,3.33408 -2.94529,-3.15887 -2.37116,0.6324 -0.13621,1.86033 -3.55553,-3.00024 -2.86963,0.35428 -1.20567,-0.49872 -3.32264,-1.73436 -2.80212,0.65763 -1.75411,-1.37945 -4.04144,0.12774 -2.06161,1.95211 -0.19192,0.95184 -1.04833,1.58569 5.7e-4,2.83688 -2.68499,-0.0771 -5.03774,-2.19957 -7.8957,-0.76262 -3.17636,-0.20084 -6.01973,0.49788 -8.88494,1.7435 -2.63656,0.74795 -4.49312,2.94621 -7.09613,3.80479 -0.98915,0.44381 -3.89083,2.89576 -1.85939,0.43325 0.7794,-1.28941 2.77322,-2.66194 -0.11448,-1.8697 -1.23912,0.16699 -4.33246,1.77226 -1.81744,-0.32913 1.65319,-0.91156 1.14097,-2.43509 -0.50561,-1.20075 -1.01845,0.51079 -4.44283,3.14994 -2.35965,0.2973 -0.65479,-1.88136 -4.47468,1.94117 -3.36494,-1.56311 0.14785,-1.30454 2.04882,-4.97142 -0.64384,-2.85952 -1.03958,0.47268 -2.65099,3.87207 -2.2148,0.91503 -0.2412,-1.48557 1.68854,-5.01702 0.28608,-5.44215 -1.08728,0.3695 -2.50802,4.18571 -1.40785,1.19963 0.35476,-1.24373 2.14684,-4.81624 0.96019,-5.04191 -1.0926,0.0221 2.36511,-4.05209 4.16383,-3.45057 3.41176,0.23356 -3.25374,-3.55016 0.84134,-3.08096 2.37105,0.3998 2.49654,-1.77205 1.63324,-3.34204 0.97909,-0.79385 4.11378,0.32482 2.24416,-1.77554 -2.12174,-1.75842 -0.31422,-2.50339 1.57931,-2.4169 2.1738,-0.58252 -0.35951,-4.6339 -0.61228,-6.49265 -1.32672,-4.62655 -6.24911,-7.29205 -7.14403,-12.08694 -0.11513,-0.79475 0.19883,-1.73211 1.14745,-1.74077 z" />
  <path
     id="path260"
     style="fill:#421c01;fill-opacity:1;stroke:#421c01;stroke-width:0.264583px;stroke-linecap:butt;stroke-linejoin:miter;stroke-opacity:1"
     d="m 102.33194,59.89357 c -1.70562,0.24666 -2.983907,1.71252 -3.885809,1.32306 -1.046345,-1.14364 0.741204,-3.76425 0.711279,-4.68897 -1.161313,0.51438 0.664943,-2.80642 -0.05449,-3.10347 -0.615114,-1.91198 1.14753,-3.63721 1.14872,-5.01474 0.16789,-1.05943 1.09829,-1.80175 0.89361,-1.86906 1.08466,-1.9436 1.53833,-3.96776 1.93305,-6.10734 0.49189,-2.24748 -0.53039,-4.49435 -0.29334,-6.77275 0.17857,-2.30112 -0.3496,-4.88427 1.0336,-6.90206 0.2243,-2.54722 1.37089,-4.81164 2.35159,-7.12704 0.6756,-2.17279 1.95068,-4.13556 3.47645,-5.80593 2.0117,0.11871 3.82766,-0.92339 5.85321,-0.94157 1.94697,-0.1771 3.3478,2.1176 4.65368,1.84051 0.87932,1.22196 0.58176,2.60587 1.78522,2.91439 0.46011,1.28116 2.3156,1.11736 2.60954,2.90805 0.93061,2.4554 3.25146,3.85939 4.1641,6.32156 2.05269,2.04073 2.00624,5.17767 3.58673,7.51179 1.08364,2.3157 3.26252,3.93243 3.9918,6.4324 1.1279,2.43782 1.52751,5.3461 0.18428,7.79512 -1.11667,1.7098 -2.57262,3.38441 -4.6203,3.82597 -1.6002,1.82857 -1.09804,4.56259 -2.165,6.65934 0.0871,2.48031 -2.24058,4.37234 -4.40667,2.69402 -1.99043,-0.10806 -3.53532,-1.39169 -4.77894,-2.83557 -1.21986,-1.10337 -2.701,-4.26038 -4.27127,-1.73998 -1.23963,1.26214 -1.51001,-3.40553 -3.39521,-1.55752 -1.93977,-0.70962 -4.52547,-1.32692 -5.74932,0.94471 -0.91501,1.90647 -2.80908,2.79641 -4.75657,3.29478 z" />
  <path
     id="path269"
     style="fill:#120701;fill-opacity:1;stroke:#120701;stroke-width:0.264583px;stroke-linecap:butt;stroke-linejoin:miter;stroke-opacity:1"
     d="m 108.78995,50.59883 c -0.084,-3.75061 -0.69659,-7.49475 -1.97131,-11.02903 -1.18265,-4.50568 -0.37241,-9.2162 0.44295,-13.71491 0.26291,-2.5507 2.67376,-4.01981 4.74733,-5.07348 1.67663,-0.8001 3.86495,-1.98578 5.56847,-0.58976 2.58571,2.21889 4.04413,5.43746 5.31837,8.52898 0.47329,1.81008 0.83624,3.77642 2.40917,5.01567 2.01386,1.75174 3.7772,3.81081 5.07005,6.15123 0.6643,1.57043 1.08451,3.25306 2.08447,4.66601 0.88862,1.2677 1.08454,3.06807 -0.23903,4.11692 -0.94616,1.48389 -0.21008,2.0946 0.0451,3.81969 0.40941,1.4666 1.04604,4.98335 -1.13188,5.80863 -1.62118,0.49618 -3.25173,1.24831 -4.96931,1.23749 -2.67999,-0.24365 -3.95067,-2.95357 -4.98412,-5.082 -1.12145,-2.46771 -4.04357,-2.87701 -6.40826,-3.32203 -1.89969,-0.12497 -3.86302,-0.7845 -5.67926,-0.68296 l -0.3027,0.14957 z" />
  <path
     id="path274"
     style="fill:#e2c798;fill-opacity:1;stroke:#e2c798;stroke-width:0.264583px;stroke-linecap:butt;stroke-linejoin:miter;stroke-opacity:1"
     d="m 114.6071,45.07523 c 0.78234,-0.99995 0.20378,-0.72688 -0.0115,-0.008 0.77276,0.13782 2.05145,-1.05884 1.56993,0.58213 -0.15283,0.57515 -0.48435,1.92244 0.36956,0.7894 1.36904,-1.45465 0.88048,1.46331 0.77623,1.84756 1.20226,-0.96849 1.71603,0.39442 0.91725,1.31027 0.65925,-0.72873 2.52919,-1.62524 1.66126,0.21787 0.13027,1.02649 1.88042,-2.02017 1.56321,0.10178 -0.10716,1.46008 -0.16781,0.45532 0.61145,0.32877 0.44865,0.58002 1.81741,2.64924 1.53704,0.63234 0.35548,-1.07163 -1.11014,-1.91126 -1.10645,-2.31886 0.8285,-0.0851 2.68464,-1.75341 0.7532,-1.12106 -2.21681,0.55421 0.0898,-2.19963 0.36233,-3.0518 0.92555,-1.64878 -1.87982,1.80528 -1.89828,0.0601 0.12162,-0.62231 1.23937,-3.03214 -0.0994,-1.62602 -0.56278,0.65268 -2.14909,1.54702 -1.08297,0.003 0.57633,-1.53549 1.30155,-3.37583 1.69453,-4.78337 -0.42033,0.57835 -1.48089,2.81143 -1.45634,0.81334 -0.19667,-1.77206 0.5028,-3.49089 0.4292,-5.24153 -0.38824,0.4194 -1.55759,2.06139 -1.042,0.43121 -0.0144,-0.94655 2.53442,-3.29294 0.21842,-2.47318 -2.52172,0.7322 0.77112,-1.62723 0.63089,-1.29959 -0.73311,0.41692 -3.37905,1.12545 -1.89953,-0.42517 0.35963,-0.7302 2.45469,-2.30296 0.43748,-1.51486 -1.65022,1.12045 -3.8764,-0.6095 -1.85531,-2.02051 1.33491,-1.06033 -3.31026,0.58059 -1.37073,-1.65069 0.64735,-0.46526 0.57948,-1.69868 -0.0872,-0.52331 -1.47489,1.10382 -1.40591,-3.93262 -1.50155,-1.69647 -0.0382,-0.63893 -0.57659,-2.71408 -0.0689,-0.95054 1.17237,2.21846 -1.23474,-0.0987 -2.12001,0.33517 0.462,0.85367 -2.57528,-1.07114 -0.85081,0.41935 -0.48447,0.3677 -3.04064,0.2664 -2.67546,1.02292 0.92209,-0.18965 1.8447,-0.24591 0.33068,0.14987 -1.10183,0.4803 -1.21954,0.28525 -0.0596,0.38495 -0.0213,0.81153 -3.18161,2.18861 -0.92548,1.87061 2.63422,-0.32438 -0.90452,2.99366 -0.80236,2.50805 0.34475,0.65595 -1.99635,2.92768 -1.31667,2.76502 2.20645,-1.54738 -0.61136,1.68442 0.0219,2.03365 1.89673,-0.69436 -0.81436,3.13393 1.33671,2.34955 0.52924,0.79359 -0.95676,2.22454 0.43593,1.9332 0.11475,0.82951 -0.40632,1.27013 0.19208,1.67408 -0.20412,0.92563 -0.78146,1.81032 0.38822,1.45965 -0.61376,1.02148 -0.78345,1.51988 0.37976,0.96115 0.28337,0.73464 -1.27968,2.18968 0.2772,1.63645 0.6657,0.88648 -1.50178,2.99535 0.57959,2.52426 -1.05611,1.17398 1.49452,1.63552 0.42181,3.03467 -0.16263,0.59843 1.63637,0.16862 0.66414,1.3918 0.58504,0.36538 1.71581,-1.69561 1.22617,-0.0159 0.12851,1.4138 1.40645,-3.17236 1.2171,-0.60886 0.14098,0.80342 -0.38322,3.86994 -0.10987,1.57822 0.75617,0.0125 -0.43107,2.99963 -1.78102,2.64671 -0.78933,0.45665 -1.81366,2.0495 -2.48374,0.66647 -1.12855,0.5258 -1.35323,3.18347 -2.48145,3.01068 -1.28469,-1.75027 -1.8544,-3.92779 -2.37897,-6.00636 -0.45505,-2.07887 0.021,-4.10729 0.61522,-6.08782 0.51829,-1.87748 1.04773,-3.85464 0.54634,-5.79678 -0.24595,-4.12499 -0.47243,-8.2551 -0.99639,-12.35417 -0.0943,-2.94687 2.65099,-4.67059 4.00525,-6.97013 0.87755,-1.37959 2.12976,-3.36964 4.00749,-3.09999 1.32113,0.6517 1.53497,-1.36954 2.75536,-0.80275 0.77635,-1.53187 1.84654,0.38349 2.93628,0.51399 1.71292,1.70809 3.05025,3.75657 4.87225,5.36493 2.49715,2.59919 4.91382,5.49501 5.85331,9.05175 0.46984,1.72507 0.61557,3.50557 1.72645,4.96732 1.09059,2.29386 2.06405,5.05684 0.81799,7.49879 -0.361,1.78035 -0.20676,3.65357 -1.02543,5.40846 -0.34855,1.85889 0.59075,4.03528 -0.90515,5.58403 -1.0032,1.33087 -2.40815,2.64473 -4.23433,2.2322 -1.61001,-0.2745 -2.98135,-1.66677 -4.62424,-0.71185 -1.06835,-0.6126 -1.78392,-2.76155 -3.1495,-1.10732 -0.60866,-0.4716 -0.60978,-3.92639 -1.38445,-1.51683 -1.07849,1.30712 -0.54976,-1.75328 -1.17199,-2.21797 -0.11061,-2.04589 -1.38905,-4.12438 -0.1821,-6.09317 z" />
  <path
     id="path279"
     style="fill:#f4e3d7;stroke:#f4e3d7;stroke-width:0.264583px;stroke-linecap:butt;stroke-linejoin:miter;stroke-opacity:1"
     d="m 189.5399,106.98839 c -1.38472,-2.12606 -3.6793,-3.41511 -6.13525,-3.8573 -2.77283,-0.53436 -5.62698,-0.62867 -8.32173,-1.5456 -2.61953,-0.73316 -5.16571,-1.7963 -7.42614,-3.32237 -2.66561,-0.59881 -5.02291,-2.008 -6.67307,-4.11969 -2.22634,-1.37743 -5.46492,-1.02256 -7.07171,1.14296 -2.62802,2.63932 -6.00716,4.74729 -9.802,4.99848 -2.87286,0.34918 -5.12578,2.20841 -7.57698,3.47762 -2.87654,1.24534 2.26152,0.89998 3.24645,1.24134 4.37242,0.18684 8.34744,2.22311 12.58787,3.0919 3.14987,1.22689 6.34932,2.33522 9.63038,3.12535 4.77918,1.98534 9.68292,3.80335 14.8071,4.66809 2.50217,0.84904 5.14118,-0.1824 7.599,-0.708 2.82423,-1.0202 5.7535,-2.21784 7.94031,-4.31325 1.66612,-2.15225 -0.34917,-4.58028 -2.80423,-3.87955 z" />
  <path
     id="path285"
     style="fill:#040404;fill-opacity:1;stroke:#040404;stroke-width:0.264583px;stroke-linecap:butt;stroke-linejoin:miter;stroke-opacity:1"
     d="m 150.20018,102.39648 c 3.56258,0.58773 6.40545,3.01465 9.69161,4.33035 1.71154,0.94935 3.28991,2.12395 4.84098,3.31106 1.57226,1.55392 3.52525,2.79924 5.57143,3.65989 2.12952,0.45428 4.23708,1.02266 6.27074,1.79514 2.93829,0.63321 6.01538,0.21651 8.88562,-0.54914 -1.19435,-0.55796 -3.23997,0.16484 -4.74952,-0.19695 -2.24403,0.19611 -3.5226,0.58934 -5.44153,-0.61511 -5.60712,-0.03 -7.32863,-2.19943 -10.28275,-4.9267 -2.52231,-1.25817 -5.10261,-3.02166 -7.71683,-4.14744 -2.3239,-1.33707 -4.28675,-2.12685 -7.06975,-2.6611 z" />
  <path
     id="path295"
     style="fill:#040404;fill-opacity:1;stroke:#040404;stroke-width:1;stroke-linecap:round;stroke-opacity:1"
     d="m 174.12541,104.99337 c -14.89072,-2.51617 -30.01741,-2.9614 -45.07514,-3.60002 13.73164,0.91593 27.72104,0.60424 41.19712,3.55479 1.21908,0.45946 2.70442,0.85539 3.87802,0.0452 z" />
  <path
     id="path299"
     style="fill:#040404;fill-opacity:1;stroke:#040404;stroke-width:1;stroke-linecap:round;stroke-opacity:1"
     d="m 168.50571,108.20688 c -14.20543,-3.31213 -28.88477,-4.90195 -43.46202,-3.87545 14.41993,-0.84968 29.00302,0.49448 42.96026,4.05646 z" />
  <path
     id="path301"
     style="fill:#040404;fill-opacity:1;stroke:#040404;stroke-width:1;stroke-linecap:round;stroke-opacity:1"
     d="m 167.0766,101.61071 c -13.7046,-3.40542 -27.80618,-5.58569 -41.96112,-5.13574 -1.12103,-0.003 -4.12436,0.11699 -1.46063,0.0602 14.32503,-0.18435 28.79116,1.10478 42.55694,5.24188 l 0.43911,-0.0334 z" />
  <path
     id="path303"
     style="fill:#040404;fill-opacity:1;stroke:#040404;stroke-width:0.264583px;stroke-linecap:butt;stroke-linejoin:miter;stroke-opacity:1"
     d="m 188.45534,100.37782 c 0.22125,1.10645 -0.002,2.38531 -0.90493,3.13961 -0.69631,0.71156 -1.62498,1.3451 -1.86034,2.36898 -0.17813,0.86772 0.1976,1.82095 1.05651,2.15028 0.62449,0.3802 1.49596,0.68441 1.66828,1.47899 0.25744,1.2161 0.021,2.56531 0.68516,3.67347 0.60668,0.57021 1.44946,-0.14138 1.95576,-0.54548 0.69205,-0.67285 1.41489,-1.33544 2.30995,-1.72779 1.01344,-0.5168 1.99669,-1.20054 2.5251,-2.24142 0.67472,-1.09699 1.36761,-2.31126 1.33101,-3.637 -0.36098,-0.6573 -0.98586,-1.13196 -1.27885,-1.85077 -0.68382,-1.03991 -1.26589,-2.14441 -1.95027,-3.1823 -0.48662,-0.63537 -1.20983,-1.24039 -2.04805,-1.21809 -0.81408,0.21909 -1.21257,1.26948 -2.13225,1.21071 -0.47724,-0.008 -0.94869,0.13855 -1.35708,0.38081 z" />
  <path
     id="path309"
     style="fill:#374837;fill-opacity:1;stroke:#374837;stroke-width:0.264583px;stroke-linecap:butt;stroke-linejoin:miter;stroke-opacity:1"
     d="m 143.52032,76.75276 c 1.31753,-0.004 2.34321,-1.06116 3.65032,-1.13641 2.0729,-0.27056 4.23252,-0.20728 6.229,0.45462 0.63015,0.24148 1.22698,0.56068 1.89829,0.66342 1.42133,0.53913 2.96635,1.011 4.0416,2.14342 0.18625,0.42623 -0.58727,-0.36529 -0.83757,-0.31762 -0.83554,-0.33916 -1.78583,-0.53189 -2.67544,-0.3158 -0.63493,0.21068 -1.09766,0.77394 -1.7667,0.86901 -0.95783,0.77817 -2.22236,1.14609 -3.44647,1.14309 -0.85096,-0.10291 -1.71804,-0.31146 -2.46184,-0.75124 -0.60615,-0.30086 -0.64744,-1.09084 -1.26903,-1.36763 -0.24843,-0.6108 -0.74368,-1.1627 -1.4433,-1.22415 -0.63369,-0.11577 -1.2835,-0.0606 -1.91886,-0.16071 z" />
  <path
     id="path318"
     style="fill:#040404;fill-opacity:1;stroke:#040404;stroke-width:0.264583px;stroke-linecap:butt;stroke-linejoin:miter;stroke-opacity:1"
     d="m 150.31779,75.62922 c 0.16463,0.53167 0.24756,1.10746 0.11003,1.65484 -0.0355,0.18237 -0.0276,0.37354 -0.10175,0.54743 0.11246,0.003 0.18116,-0.21349 0.26756,-0.30242 0.23826,-0.35315 0.47272,-0.71012 0.68499,-1.07927 0.0913,-0.21981 0.12152,-0.46328 0.11779,-0.70008 -0.005,-0.11962 -0.0365,-0.28999 -0.18998,-0.28412 -0.30381,-0.006 -0.59464,0.10252 -0.88864,0.16362 z" />
</svg>
