<?xml version="1.0" encoding="UTF-8" standalone="no"?>
<svg
   xmlns:dc="http://purl.org/dc/elements/1.1/"
   xmlns:cc="http://creativecommons.org/ns#"
   xmlns:rdf="http://www.w3.org/1999/02/22-rdf-syntax-ns#"
   xmlns:svg="http://www.w3.org/2000/svg"
   xmlns="http://www.w3.org/2000/svg"
   xmlns:sodipodi="http://sodipodi.sourceforge.net/DTD/sodipodi-0.dtd"
   xmlns:inkscape="http://www.inkscape.org/namespaces/inkscape"
   width="1200"
   height="600"
   viewBox="0 0 317.5 158.75"
   version="1.1"
   id="svg8"
   sodipodi:docname="reg-turn.svg"
   inkscape:version="1.0.1 (3bc2e813f5, 2020-09-07)">
  <sodipodi:namedview
     pagecolor="#ffffff"
     bordercolor="#666666"
     borderopacity="1"
     objecttolerance="10"
     gridtolerance="10"
     guidetolerance="10"
     inkscape:pageopacity="0"
     inkscape:pageshadow="2"
     inkscape:window-width="1920"
     inkscape:window-height="1061"
     id="namedview64"
     showgrid="false"
     inkscape:zoom="1.4"
     inkscape:cx="600"
     inkscape:cy="300"
     inkscape:window-x="0"
     inkscape:window-y="19"
     inkscape:window-maximized="0"
     inkscape:current-layer="svg8"
     inkscape:document-rotation="0" />
  <defs
     id="defs2" />
  <metadata
     id="metadata5">
    <rdf:RDF>
      <cc:Work
         rdf:about="">
        <dc:format>image/svg+xml</dc:format>
        <dc:type
           rdf:resource="http://purl.org/dc/dcmitype/StillImage" />
        <dc:title />
      </cc:Work>
    </rdf:RDF>
  </metadata>
  <path
     id="path31"
     style="fill:#79727b;fill-opacity:1;stroke:#79727b;stroke-width:0.264583px;stroke-linecap:butt;stroke-linejoin:miter;stroke-opacity:1"
     d="m 80.32158,133.03252 c -24.564403,2.2731 -49.916337,-1.52842 -73.8428385,5.76685 -1.0747663,11.8642 24.5522035,3.00947 34.2495615,5.26947 33.673661,-1.38525 67.456227,-0.13324 101.025747,-3.61188 29.87065,-0.97108 59.78265,-0.40086 89.55987,-3.45547 20.54652,-0.0241 41.21798,-0.66547 61.69862,-1.53825 27.04057,2.71215 24.24313,-31.61783 15.37454,-47.85172 -5.10052,-19.27788 -27.03087,-22.67486 -43.537,-17.22681 -13.39529,0.47617 -36.20332,9.99166 -29.39945,26.62067 5.74306,6.90911 26.66967,15.61499 6.60806,19.35786 -25.4171,5.92801 -51.72517,6.3394 -77.45547,10.44938 -25.36402,1.91594 -50.74538,3.95432 -76.177951,5.19265 -2.71238,0.24277 -5.420462,0.55667 -8.103689,1.02725 z" />
  <path
     id="path360"
     style="fill:#31354e;fill-opacity:1;stroke:#31354e;stroke-width:0.264583px;stroke-linecap:butt;stroke-linejoin:miter;stroke-opacity:1"
     d="m 49.682942,92.08243 c 0.825308,-2.23194 2.595692,-4.07625 4.062529,-5.8617 2.277255,-2.21224 5.538319,-0.35015 6.867161,1.97036 2.336882,3.57676 1.274144,8.00326 1.593071,12.01402 -0.09199,4.48948 0.737807,8.95108 0.615025,13.42793 -0.521338,2.83773 -2.516768,5.20584 -4.608445,7.09156 -2.276015,1.26305 -4.686704,-0.46471 -5.879576,-2.38655 -2.647928,-3.76317 -2.233717,-8.61306 -3.026204,-12.94999 -0.563675,-3.31009 -1.775599,-6.63401 -0.898468,-10.02099 0.189201,-1.18853 0.688114,-2.25281 1.274907,-3.28464 z" />
  <path
     id="path37"
     style="fill:#e9afaf;stroke:#e9afaf;stroke-width:0.264583px;stroke-linecap:butt;stroke-linejoin:miter;stroke-opacity:1"
     d="m 211.74975,103.99478 c -9.12133,6.15203 18.01511,9.3824 1.32937,12.41095 -16.13084,3.98456 -32.99641,2.68881 -49.37927,5.27289 -21.65058,1.46365 -43.12647,4.33756 -64.800924,5.10445 -17.181413,2.21951 -34.47467,2.01214 -51.726039,2.47221 -13.390512,2.09385 -26.937989,2.39752 -40.3541492,3.91387 -13.1321905,4.02481 10.4494312,11.94677 16.4882552,8.01715 26.734102,-4.41083 53.975186,-1.26272 80.744807,-5.4181 24.00648,-1.09225 49.54641,-2.76469 73.49786,-4.54534 24.72137,-2.63796 47.45272,-7.09203 71.8059,-11.85402 6.79245,1.22325 32.2755,-4.52614 16.60941,-11.19426 -17.97625,-0.76144 -35.67884,-7.10731 -53.74688,-4.86743 l -0.46117,0.67711 -0.007,0.0105 z" />
  <path
     id="path47"
     style="fill:#c8b7b7;fill-opacity:1;stroke:#c8b7b7;stroke-width:0.264583px;stroke-linecap:butt;stroke-linejoin:miter;stroke-opacity:1"
     d="m 172.21285,38.70978 c -1.17792,5.3704 -1.66909,12.09562 -7.19597,14.86591 -2.91967,4.60108 7.37747,1.48218 10.26051,1.99067 7.57828,-0.48248 15.12875,-2.17869 22.71753,-0.79014 14.24835,0.20648 28.53972,0.2129 42.77185,1.05823 7.85294,0.005 15.86052,0.42767 23.38518,-2.20487 5.72481,-0.12344 6.87544,-6.29571 7.55897,-10.8481 3.10958,-5.62075 -1.60875,-10.21138 -7.40328,-8.49507 -5.84644,-0.76582 -11.62855,0.0703 -17.40697,0.82264 -7.54047,0.13876 -15.10447,-0.57961 -22.59875,0.61768 -16.69882,0.91503 -33.44482,0.62008 -50.11747,1.97022 l -1.05126,0.38143 z" />
  <path
     id="path57"
     style="fill:#d11a1c;fill-opacity:1;stroke:#d11a1c;stroke-width:0.264583px;stroke-linecap:butt;stroke-linejoin:miter;stroke-opacity:1"
     d="m 172.01566,43.8119 c 7.03051,-0.25974 14.05691,0.75387 21.08036,0.0765 7.39854,-0.54945 14.74142,-1.69333 22.1707,-1.90226 5.12737,-0.14402 10.08414,-2.61266 15.22622,-1.1256 5.17775,0.96362 10.44887,0.15267 15.67887,0.738 7.16235,-0.16796 14.20273,-2.01618 21.38861,-1.82128 0.86957,5.21989 -7.80587,1.73497 -11.19513,2.17852 -8.25166,0.0266 -16.52743,1.40338 -24.79617,0.39814 -10.25037,0.0832 -20.41413,1.76465 -30.67387,1.64873 -5.10815,0.50696 -10.15843,1.62602 -15.33075,1.08478 -4.96301,-0.31619 -9.96406,-0.19479 -14.86801,0.5086 -1.63864,-0.29217 1.02923,-1.55475 1.31917,-1.78409 z" />
  <path
     id="path63"
     style="fill:#fb7b4d;fill-opacity:1;stroke:#fb7b4d;stroke-width:0.264583px;stroke-linecap:butt;stroke-linejoin:miter;stroke-opacity:1"
     d="m 179.1392,50.79959 c -4.03177,1.53176 -9.9854,-1.62934 -12.3113,2.84668 -4.0369,6.15545 5.30113,1.24801 7.66975,4.81499 6.25919,2.18452 13.24596,-0.66795 19.83962,0.19281 7.40501,-0.15047 14.85819,0.46677 22.20955,-0.82524 9.18463,1.14456 18.25744,-1.61356 27.46094,-1.03361 5.52988,0.257 10.97856,-0.84319 16.45458,-1.15679 4.03965,1.39931 10.22424,-2.1395 7.68377,-6.25769 -11.75435,-1.77425 -23.46331,2.66422 -35.22882,0.89465 -6.20778,0.0612 -12.35928,0.87832 -18.56605,0.94796 -10.49004,0.72625 -21.06201,1.45065 -31.56744,0.58695 -1.14856,-0.57167 -2.48223,-0.48098 -3.6446,-1.01071 z" />
  <path
     id="path73"
     style="fill:#b50d1e;fill-opacity:1;stroke:#b50d1e;stroke-width:0.264583px;stroke-linecap:butt;stroke-linejoin:miter;stroke-opacity:1"
     d="m 271.67133,33.11963 c -2.67213,0.80512 -5.85052,0.31343 -8.10666,2.21714 -1.30128,1.5693 -0.87676,3.78452 -1.47735,5.62529 -0.65099,3.65369 -0.2688,7.3746 -0.42819,11.05372 -0.36987,2.11781 -0.89264,4.41754 -2.49937,5.95945 -0.58145,0.90741 2.1026,0.27755 2.94916,0.4615 4.23125,-0.45712 8.34881,-1.58511 12.49022,-2.50522 1.46708,-1.33163 0.19603,-3.5962 0.19374,-5.30018 -0.19418,-2.2606 0.45195,-4.4945 0.44103,-6.75987 0.27625,-3.67221 -0.64059,-7.32785 -0.19472,-10.99462 -0.24584,-1.70525 -2.55014,-0.15134 -3.36786,0.24279 z" />
  <path
     id="path79"
     style="fill:#323143;fill-opacity:1;stroke:#323143;stroke-width:0.264583px;stroke-linecap:butt;stroke-linejoin:miter;stroke-opacity:1"
     d="m 136.59512,64.26477 c -2.39402,-0.63679 -4.88958,-0.0238 -7.31336,-0.41567 -2.12625,-0.0555 -4.10195,1.03806 -5.75582,2.27753 -0.89119,0.82816 -1.10935,2.12092 -1.9906,2.98624 -0.54613,0.87681 -0.8839,1.8652 -1.45592,2.73398 -0.43246,0.7639 -0.85242,1.54447 -1.10867,2.38793 0.92933,1.33004 2.94991,1.11464 4.41494,1.23247 2.236,-0.0233 4.4574,-0.44627 6.69552,-0.29224 1.30804,0.0504 2.01715,-1.19102 2.81873,-2.01298 1.01933,-1.26772 2.15584,-2.52953 2.59988,-4.13102 0.61544,-1.27111 1.60754,-2.53178 1.34309,-4.03854 -0.0441,-0.2535 -0.12801,-0.50009 -0.24779,-0.7277 z" />
  <path
     id="path92"
     style="fill:#31354e;fill-opacity:1;stroke:#31354e;stroke-width:0.264583px;stroke-linecap:butt;stroke-linejoin:miter;stroke-opacity:1"
     d="m 293.11592,73.31549 c 1.40289,-1.00271 3.50034,-1.13063 4.65034,0.34761 1.84734,2.26044 1.39667,5.38756 2.08538,8.06569 0.59362,2.96669 1.04362,6.01362 0.55942,9.03012 0.22254,1.7553 -0.33782,3.37721 -0.83963,5.018 -0.82599,2.88886 -0.86134,5.93595 -1.72161,8.80856 -0.64834,2.10675 -3.57611,1.78678 -4.60486,0.17534 -1.65037,-2.61294 -1.78579,-5.83605 -2.2776,-8.81113 -0.33934,-4.03745 -0.21107,-8.09795 -0.31186,-12.14428 0.0984,-2.53587 0.15301,-5.09613 0.30858,-7.61563 0.41282,-1.15153 1.34594,-1.9957 2.15184,-2.87428 z" />
  <path
     id="path106"
     style="fill:#a3a1b3;fill-opacity:1;stroke:#a3a1b3;stroke-width:0.264583px;stroke-linecap:butt;stroke-linejoin:miter;stroke-opacity:1"
     d="m 293.58425,82.94297 c 0.22189,-1.80995 0.53964,-3.59861 0.53952,-5.41342 0.73005,-2.0587 1.96308,-3.93284 3.32228,-5.62701 1.45728,-2.27415 3.66768,0.16371 4.55797,1.65553 1.40629,2.20098 1.25418,4.95715 2.26907,7.31938 0.28475,1.89401 0.60074,3.78404 0.89481,5.67221 0.22602,3.53656 -0.63335,7.0192 -0.90846,10.52662 -0.7295,3.2468 -0.82821,6.7815 -2.58836,9.69101 -1.26299,1.92828 -4.23709,0.84298 -5.20873,-0.86444 -1.30762,-2.104 -1.91575,-4.5755 -2.52983,-6.95319 -0.62273,-3.44851 -0.63751,-6.98948 -0.61294,-10.47523 0.76282,-2.0859 1.36296,1.64709 1.26818,2.44105 -0.13427,3.38101 0.85327,6.6203 1.60748,9.87321 0.6072,2.16372 1.56247,-0.9206 1.21321,-1.86757 -0.0143,-2.76441 0.66088,-5.47615 0.53577,-8.24785 0.11747,-3.17345 0.68386,-6.32019 0.60814,-9.50686 0.11036,-1.617 -0.0798,-3.88161 -1.92176,-4.42034 -1.93344,0.19991 -1.25053,3.08272 -1.52589,4.51894 -0.0714,2.99098 -0.0108,6.01366 -0.46932,8.96869 -0.13177,1.22316 -1.07303,2.20946 -1.16867,0.3103 -0.18859,-2.52486 -0.26999,-5.09006 0.11753,-7.60103 z" />
  <path
     id="path112"
     style="fill:#1a1a1a;stroke:#1a1a1a;stroke-width:0.264583px;stroke-linecap:butt;stroke-linejoin:miter;stroke-opacity:1"
     d="m 300.63387,72.98274 c 1.61782,2.5911 1.84484,5.84775 2.71998,8.6917 0.17577,3.58829 1.52683,7.10304 0.53963,10.69725 -1.14809,4.22622 -1.27716,8.73742 -2.96221,12.80109 -2.02807,3.9539 -5.63619,-1.46924 -5.88073,-4.00082 -1.03717,-3.26181 -1.13925,-6.60034 -1.01503,-9.96278 -0.33398,-3.72633 0.21869,-7.43109 0.34927,-11.15121 -0.35007,-4.64222 5.22303,-6.39875 5.21368,-10.56314 -0.84501,-3.23596 -0.31325,-6.95252 -2.2186,-9.81265 -1.86591,-1.94439 -5.01093,-5.31674 -7.73703,-2.83028 -2.03914,4.07018 -3.83218,8.45865 -4.24682,13.07299 -0.61312,5.00318 -2.41589,9.85764 -1.97755,14.95552 0.15217,3.9406 1.08793,7.8446 1.01339,11.82738 -0.13824,4.20376 2.26466,7.96444 2.16033,12.1711 -0.0805,5.03778 3.87042,8.47531 6.07348,12.60547 2.3497,2.74867 6.26651,0.70077 7.07583,-2.3367 2.99866,-3.67564 4.81237,-8.10701 5.7451,-12.72863 2.10918,-5.11929 0.35458,-10.82211 2.00791,-16.04988 0.64386,-4.60913 -1.49532,-9.01682 -1.45867,-13.56976 -1.43134,-2.76821 -0.80204,-5.93897 -2.2189,-8.66397 -1.78432,-3.27365 -2.35825,-7.5174 -5.68953,-9.72034 -2.03469,-2.95091 -7.55627,-3.68102 -6.81469,1.35733 0.25702,4.33074 -0.18774,9.41493 2.07389,13.19631 2.21126,2.19407 4.80003,-0.54692 7.24727,0.014 z" />
  <path
     id="path118"
     style="fill:#999999;fill-opacity:1;stroke:#999999;stroke-width:0.264583px;stroke-linecap:butt;stroke-linejoin:miter;stroke-opacity:1"
     d="m 239.06079,91.30602 c 2.4497,0.0231 4.72957,-1.2162 7.19068,-1.06243 1.47264,0.0432 2.92309,-0.24383 4.38364,-0.34494 1.02408,3e-5 1.8115,1.15224 1.65938,2.1122 -0.41709,0.78975 -1.50961,0.99529 -2.3401,1.02087 -1.87431,-0.65528 -3.95473,-0.43816 -5.80378,0.21056 -1.14892,0.33118 -2.40522,0.80963 -3.59414,0.42811 -0.87221,-0.47614 -1.02462,-1.57249 -1.49568,-2.36437 z" />
  <path
     id="path125"
     style="fill:#0e0e12;fill-opacity:1;stroke:#0e0e12;stroke-width:0.264583px;stroke-linecap:butt;stroke-linejoin:miter;stroke-opacity:1"
     d="m 258.92784,87.29087 c -1.19855,0.89609 -2.8557,0.75059 -4.04723,1.65995 -1.27255,0.32739 -2.60971,0.11465 -3.9105,0.19277 -1.30851,-0.3461 -1.33216,1.21371 -1.44624,2.11386 -0.54548,0.97977 -0.39454,2.30873 0.92412,2.4539 1.28846,0.48575 2.26528,1.44476 3.30958,2.28996 1.6325,1.05871 3.42664,1.87242 4.92307,3.13151 0.97476,0.6812 0.51253,-1.35818 0.61417,-1.93235 -0.13366,-1.86287 -0.36192,-3.73002 -0.13631,-5.5962 0.0739,-1.20057 0.14621,-2.40141 0.18853,-3.60359 -0.12565,-0.24473 -0.27922,-0.47345 -0.41919,-0.70981 z" />
  <path
     id="path144"
     style="fill:none;stroke:#000000;stroke-width:0.264583px;stroke-linecap:butt;stroke-linejoin:miter;stroke-opacity:1"
     d="m 249.38869,107.30007 c 3.54431,1.69625 7.58497,1.85783 11.43312,1.54054 0.69304,-0.0125 2.76646,-0.35416 1.63242,0.77058 -0.84377,0.76757 -1.72738,1.48875 -2.48983,2.34337 -0.72755,0.73816 -1.45378,1.49 -2.02228,2.36143 -0.76129,0.46171 -1.69936,0.17752 -2.53876,0.28347 -1.48144,-0.0285 -2.96416,0.0359 -4.44058,0.12463 -1.27112,-0.006 -1.31153,-1.41448 -1.38238,-2.35007 -0.19824,-1.68233 -0.2908,-3.38126 -0.19171,-5.07395 z" />
  <path
     id="path155"
     style="fill:#323143;fill-opacity:1;stroke:#323143;stroke-width:0.264583px;stroke-linecap:butt;stroke-linejoin:miter;stroke-opacity:1"
     d="m 281.3091,54.90347 c -6.04169,9.2e-4 -12.33052,-0.0566 -17.90891,2.55394 -4.16478,1.34851 -4.70828,6.40731 -6.51766,9.78998 -2.715,6.12818 -4.15287,12.85742 -3.51771,19.56545 -0.20876,6.20936 -0.34448,12.77986 2.84266,18.36014 2.83072,6.35319 4.08216,13.94929 9.77829,18.55941 9.21826,2.11063 18.7959,0.77688 28.03122,-0.53383 4.66549,-2.15305 -3.17669,-4.90711 -2.76503,-8.49815 -1.93104,-6.30989 -4.93635,-12.5335 -4.65084,-19.26038 -0.68756,-5.08819 -0.43511,-10.20336 -0.15341,-15.30342 -0.12327,-4.1341 0.85353,-8.13219 2.41409,-11.92687 1.22839,-3.90476 1.22445,-9.27577 5.73166,-11.01484 4.17965,-2.33364 -6.77035,-2.31181 -9.09634,-2.59192 -1.40098,-0.0167 -2.80508,0.071 -4.18802,0.30049 z" />
  <path
     id="path161"
     style="fill:#0e0e12;fill-opacity:1;stroke:#0e0e12;stroke-width:0.264583px;stroke-linecap:butt;stroke-linejoin:miter;stroke-opacity:1"
     d="m 202.01342,71.27464 c 5.46461,-1.85326 11.32471,-0.95804 16.9563,-1.37591 2.43706,0.0174 2.65474,-2.72287 4.65209,-3.42428 2.59109,-0.33213 6.37719,-1.34199 7.2659,1.91228 1.74693,1.78619 4.5339,1.69041 6.47386,3.18948 1.99625,0.0538 4.50224,0.61724 5.79395,-1.39299 1.68471,-2.104 4.82674,-2.6697 6.82883,-0.62685 1.25997,2.51843 -2.84948,3.09144 -4.59093,3.44118 -3.91345,0.77245 -7.84146,1.79975 -11.86759,1.44221 -4.67784,-0.16574 -9.35647,-0.55192 -14.03534,-0.20171 -4.67821,-0.0844 -9.34722,0.92824 -14.01071,0.33609 -1.3887,-0.28171 -4.60724,-1.33157 -3.46636,-3.2995 z" />
  <path
     id="path181"
     style="fill:#0e0e12;fill-opacity:1;stroke:#0e0e12;stroke-width:0.264583px;stroke-linecap:butt;stroke-linejoin:miter;stroke-opacity:1"
     d="m 239.89885,96.29723 c 4.57276,1.94328 9.65011,1.42085 14.45629,2.18668 1.8834,0.51078 5.83959,-0.25527 6.58785,0.981 -1.88062,1.47113 -5.11137,-0.32874 -6.39876,1.95139 -0.92353,2.41599 -1.64993,4.92449 -1.63785,7.53386 -0.41197,1.79504 -0.86184,4.40252 1.83288,4.18462 5.74179,0.62917 11.48375,-0.60466 17.22015,-0.61187 -0.18848,1.23499 -3.37662,1.18136 -4.71503,1.70541 -4.71481,0.78605 -9.29661,2.3652 -14.11753,2.43249 -6.41055,0.29299 -12.86369,0.22799 -19.21993,1.18845 0.39127,-2.6913 2.51658,-4.87273 2.36682,-7.70202 -0.11011,-2.78293 1.06474,-5.30385 1.56467,-7.97783 0.57568,-1.92336 0.0792,-4.71324 2.06044,-5.87218 z" />
  <path
     id="path187"
     style="fill:#0e0e12;fill-opacity:1;stroke:#0e0e12;stroke-width:0.264583px;stroke-linecap:butt;stroke-linejoin:miter;stroke-opacity:1"
     d="m 202.5064,74.71302 c 2.87312,0.44685 5.78314,0.55707 8.67247,0.52466 2.57534,0.80712 5.26396,0.1131 7.88029,0.5179 1.36495,1.88514 0.58873,4.38337 0.8245,6.54336 -0.0547,3.0645 0.4994,6.0824 0.52979,9.14478 0.3037,4.45131 1.23901,8.82745 2.09008,13.19676 0.28968,2.00073 1.5346,4.0861 0.8331,6.11009 -2.09898,2.0907 -5.41171,2.01149 -8.19489,2.06253 -2.03191,-0.31553 -4.03707,-0.76415 -6.1061,-0.74471 -2.25571,0.12682 -4.11001,-0.86417 -4.20652,-3.34811 -0.86222,-3.05463 -0.23771,-6.2921 -1.12532,-9.32791 -0.19987,-2.7198 -0.16065,-5.46247 -0.92445,-8.10347 -0.4392,-3.42159 -1.25994,-6.79897 -1.48551,-10.24098 0.0261,-2.16136 0.69056,-4.27415 1.21256,-6.3349 z" />
  <path
     id="path193"
     style="fill:#f2625c;fill-opacity:1;stroke:#f2625c;stroke-width:0.264583px;stroke-linecap:butt;stroke-linejoin:miter;stroke-opacity:1"
     d="m 245.8639,67.43695 c 0.41341,1.27935 -0.7481,3.30338 0.26964,4.11363 1.91054,0.10948 3.82846,-0.0106 5.73506,0.19984 2.97676,0.14975 5.9278,0.60234 8.85814,1.12448 0.93841,0.23189 2.05309,0.76735 2.82936,-0.13871 1.63377,-1.41175 2.76438,-3.26134 4.00813,-4.99856 0.15438,-1.12942 -1.89919,-0.45992 -2.6276,-0.61711 -3.02503,0.12089 -6.04129,0.51051 -9.07446,0.37767 -3.32735,0.0374 -6.71494,0.798 -9.99827,-0.0612 z" />
  <path
     id="path221"
     style="fill:#808080;fill-opacity:1;stroke:#808080;stroke-width:0.264583px;stroke-linecap:butt;stroke-linejoin:miter;stroke-opacity:1"
     d="m 163.26528,17.10339 c -0.90342,1.67325 -0.68083,3.62986 -0.53168,5.44867 0.0492,0.6947 0.0148,1.40533 -0.20481,2.06956 0.12858,0.684 1.04943,-0.0761 1.48283,-0.11607 0.86557,-0.2467 1.78939,-0.19534 2.67891,-0.13962 0.70357,0.22494 1.56408,0.36059 2.04551,0.95476 0.45418,0.38237 0.10216,-0.77192 0.34799,-1.05009 0.36299,-1.79472 0.0571,-3.64945 0.42272,-5.4446 0.32158,-0.69172 -0.27349,-1.07782 -0.88768,-1.18457 -1.48919,-0.5168 -3.08529,-0.84751 -4.66638,-0.71293 -0.23482,0.0313 -0.4674,0.0861 -0.68741,0.17489 z" />
  <path
     id="path211"
     style="fill:#b50d1e;fill-opacity:1;stroke:#b50d1e;stroke-width:0.264583px;stroke-linecap:butt;stroke-linejoin:miter;stroke-opacity:1"
     d="m 210.64055,73.13802 c -3.88286,2.29075 -6.34748,-2.79838 -7.24661,-5.77577 -1.97124,-5.15029 -6.42948,-8.68378 -8.9411,-13.51839 -2.66393,-4.24404 -6.07488,-7.98346 -9.67169,-11.4458 -4.19684,-2.63346 -6.72072,-7.02865 -9.41563,-11.04455 -2.30609,-2.54223 -3.92261,-6.38469 -7.74792,-6.83437 -3.59937,-0.66271 -8.90903,-0.17824 -10.06714,3.98889 -0.14792,3.10441 -0.31183,6.27703 -1.85647,9.0499 -2.04756,4.82837 9.02379,3.68047 4.99995,7.65502 -2.45228,-0.19493 -9.03597,0.97949 -6.83226,3.92696 4.37711,1.46485 9.69026,2.57094 11.73623,7.2931 2.67999,4.67424 0.95737,11.29862 5.56097,14.9394 4.48082,4.01729 10.88391,3.48052 16.45291,4.3942 6.06061,0.30519 12.19,0.73803 18.21725,-0.30096 1.13536,-1.42027 5.16331,0.2509 4.81151,-2.32763 z" />
  <path
     id="path227"
     style="fill:#4d4d4d;fill-opacity:1;stroke:#4d4d4d;stroke-width:0.264583px;stroke-linecap:butt;stroke-linejoin:miter;stroke-opacity:1"
     d="m 159.56794,14.61888 c -2.25344,-0.004 -4.50746,-0.0786 -6.76051,-0.005 -1.08353,1.10291 -1.32726,2.90884 -0.91683,4.3436 1.00024,1.13242 2.7602,0.73023 4.10691,0.77636 3.05481,-0.26644 6.08723,-0.77377 9.16037,-0.8236 3.2207,-0.085 6.49196,-0.65024 9.68206,0.009 2.2288,0.97089 4.32392,-0.78274 6.10976,-1.90618 1.50496,-0.5908 2.13975,-2.16706 0.22753,-2.61615 -2.94321,-1.55751 -6.28204,-0.35446 -9.387,-0.17115 -3.84179,-0.0265 -7.67618,0.28802 -11.51724,0.35923 -0.23506,0.0106 -0.47023,0.0221 -0.70505,0.0343 z" />
  <path
     id="path245"
     style="fill:#fb7b4d;fill-opacity:1;stroke:#fb7b4d;stroke-width:0.264583px;stroke-linecap:butt;stroke-linejoin:miter;stroke-opacity:1"
     d="m 164.10334,46.42952 c -4.02719,-1.98617 -8.77711,-2.08391 -12.5459,0.50148 -4.10373,1.35426 -7.72801,3.6793 -11.64374,5.43711 -2.67272,1.92307 -5.23682,4.13897 -7.29787,6.7345 -2.06558,3.13326 -2.82331,7.01466 -5.43387,9.81894 -0.79978,4.19298 6.32488,2.33244 8.97717,3.22739 4.03321,-0.45823 7.90526,0.59131 11.8203,1.3503 5.58876,0.75703 11.15026,1.82093 16.6625,2.93549 3.03168,0.75112 8.03281,2.30676 9.59384,-1.47599 0.80694,-4.36087 0.85094,-8.89889 0.55794,-13.33243 -0.44651,-4.73324 -1.64846,-9.89552 -5.81626,-12.7608 -1.43385,-0.96832 -3.09555,-2.53299 -4.87411,-2.43599 z" />
  <path
     id="path367"
     style="fill:#1a1a1a;fill-opacity:1;stroke:#1a1a1a;stroke-width:0.264583px;stroke-linecap:butt;stroke-linejoin:miter;stroke-opacity:1"
     d="m 47.513835,72.1176 c -4.680543,4.00724 1.440324,9.4174 2.518644,13.72067 3.594235,0.88651 9.29421,-0.39472 9.68019,5.2322 1.061726,8.357 2.465265,17.05931 0.308705,25.36246 -0.842314,5.11415 -7.545581,1.25745 -8.312859,5.53042 -0.888698,4.33017 -0.338894,8.7011 -0.514046,13.06875 2.92903,4.53685 6.556453,-4.32036 7.995002,-6.73016 1.937897,-5.89962 5.940016,-11.29268 5.701142,-17.73606 0.03843,-5.24767 0.638456,-10.57875 0.305641,-15.791 -1.20716,-4.58593 -2.071438,-9.25982 -4.166288,-13.55226 -1.644518,-3.95353 -3.380746,-9.27234 -8.072854,-10.35013 -2.014669,-0.49946 -3.619779,0.74328 -5.443277,1.24511 z" />
  <path
     id="path252"
     style="fill:#b50d1e;fill-opacity:1;stroke:#b50d1e;stroke-width:0.264583px;stroke-linecap:butt;stroke-linejoin:miter;stroke-opacity:1"
     d="m 108.05164,61.91335 c 2.30109,-0.1878 4.53781,0.64417 6.83829,0.54597 1.53768,0.10981 3.13051,0.2441 4.61828,-0.25453 1.41185,0.20026 0.29037,2.00724 0.39519,2.95308 -0.18648,1.23778 -0.2676,2.49106 -0.26433,3.73982 -0.60072,0.88339 -1.96863,0.28485 -2.89632,0.42601 -2.01963,-0.15674 -4.04279,-0.21441 -6.06711,-0.22839 -1.1857,-0.10616 -2.81772,-0.10962 -3.28866,-1.45354 -0.62496,-1.17413 -0.93443,-2.57349 -0.44815,-3.85719 0.23207,-0.69359 0.61818,-1.33337 1.11281,-1.87123 z" />
  <path
     id="path259"
     style="fill:#b50d1e;fill-opacity:1;stroke:#b50d1e;stroke-width:0.264583px;stroke-linecap:butt;stroke-linejoin:miter;stroke-opacity:1"
     d="m 259.27292,70.4095 c -3.77542,0.84379 -7.57408,-0.27011 -11.32149,-0.58665 -5.43301,-1.91653 -11.26043,-1.33628 -16.91255,-1.31215 -3.54732,0.74018 -7.11504,0.59883 -10.69817,0.71226 -3.8662,0.40103 -8.25029,-0.11914 -11.15032,3.02133 3.89315,1.33596 7.986,1.69865 11.99595,2.41688 4.92986,1.36736 3.76094,7.35083 3.76244,11.22564 0.56839,4.2806 0.42626,8.59542 -0.10555,12.85605 -0.0762,4.23538 -2.1324,8.54556 -0.13448,12.6435 0.0151,3.85216 -5.3455,5.4974 -6.53588,7.82275 7.86311,1.359 15.61282,-1.4855 23.44692,-1.73379 5.60147,0.35211 1.40427,-6.28042 2.48188,-9.54192 -0.32611,-5.25535 -0.94757,-10.64626 0.60862,-15.78545 -10e-4,-3.59174 3.4187,-5.89801 5.96517,-7.87767 2.96932,-2.69562 6.9395,-3.47628 10.51838,-4.95896 2.86461,-2.15567 0.64869,-7.23774 -1.77707,-8.93162 l -0.14356,0.0298 z" />
  <path
     id="path265"
     style="fill:#d11a1c;fill-opacity:1;stroke:#d11a1c;stroke-width:0.264583px;stroke-linecap:butt;stroke-linejoin:miter;stroke-opacity:1"
     d="m 227.10605,77.70776 c 0.27258,-2.34069 0.77688,-5.7578 -2.60495,-5.8292 -2.96467,-0.95011 -5.87607,-1.81133 -8.89425,-2.38474 -3.28834,0.13675 -6.8316,0.33276 -9.10385,3.11803 -1.38054,1.22036 -5.2577,5.06192 -1.44049,5.18305 3.65609,-0.55697 7.91145,-1.50514 11.31568,0.24045 1.48191,2.16016 0.63068,4.98771 0.86502,7.44525 0.11096,4.99376 1.07626,9.93427 0.80161,14.94205 -0.0449,2.47041 0.0955,4.9463 0.22303,7.40486 -2.19003,2.38519 -6.24928,0.35261 -9.20481,1.26266 -3.02511,-0.2629 -6.21312,0.98175 -5.49294,4.6353 0.0651,2.03892 -2.26223,5.12675 1.28429,4.21492 3.17263,0.0624 6.3542,-0.002 9.45348,0.79785 2.70427,0.0315 5.41402,1.39731 7.98685,1.38124 1.25644,-1.96828 -0.45521,-6.34101 3.52144,-5.43895 3.89494,0.84532 3.5044,-3.32537 2.97004,-5.83798 -0.35149,-2.76583 0.0801,-5.55598 -0.56227,-8.26802 -0.17946,-3.66692 0.53411,-7.3299 -0.0819,-10.9841 -0.3442,-3.34154 -0.35527,-6.72008 -0.57367,-10.05279 -0.1352,-0.61474 -0.32787,-1.21495 -0.4623,-1.82988 z" />
  <path
     id="path271"
     style="fill:#d11a1c;fill-opacity:1;stroke:#d11a1c;stroke-width:0.264583px;stroke-linecap:butt;stroke-linejoin:miter;stroke-opacity:1"
     d="m 254.29382,71.94013 c -0.19673,1.08628 -0.64137,2.49452 0.44285,3.27695 0.84913,0.56112 1.28431,1.49756 2.12395,2.05639 1.0918,0.81018 1.16513,2.2803 1.81756,3.38857 0.77946,1.27838 1.40905,2.69513 2.44757,3.78871 1.26858,1.01248 3.45597,0.69008 4.32096,-0.72037 1.44971,-2.12573 1.61836,-4.80357 1.86238,-7.28831 0.0605,-1.8257 0.3503,-3.64691 0.28633,-5.47235 -0.28541,-1.30961 0.1226,-2.62868 -0.0689,-3.93049 -0.40566,-1.31714 -1.8937,-0.22274 -2.58454,0.25119 -1.14265,0.89254 -2.45998,1.50508 -3.86849,1.84869 -2.32253,0.69666 -4.73615,0.99929 -7.12419,1.37907 -0.58053,0.31853 0.18623,1.06029 0.3445,1.42195 z" />
  <path
     id="path277"
     style="fill:#0e0e12;fill-opacity:1;stroke:#0e0e12;stroke-width:0.264583px;stroke-linecap:butt;stroke-linejoin:miter;stroke-opacity:1"
     d="m 159.32145,28.77173 c 1.91399,-1.75193 4.7161,-3.87491 7.4043,-2.62094 2.95645,1.46665 3.1125,5.03118 3.96837,7.80505 1.1465,2.33099 0.79858,6.54164 -2.78972,5.27292 -2.73124,-0.35986 -5.42261,0.62813 -8.18114,-0.1374 -3.52502,0.78306 -1.66831,-3.17422 -0.50549,-4.61525 0.72798,-1.79768 0.96281,-3.90519 0.10368,-5.70438 z" />
  <path
     id="path287"
     style="fill:#d11a1c;fill-opacity:1;stroke:#d11a1c;stroke-width:0.264583px;stroke-linecap:butt;stroke-linejoin:miter;stroke-opacity:1"
     d="m 142.14113,45.34254 c 5.66309,-2.23972 7.31003,-1.58553 10.94364,-1.20141 3.37775,0.65267 5.94973,3.31101 7.78774,6.06076 2.12735,4.01827 2.41989,8.76334 2.14785,13.21478 -0.60696,3.18829 -4.19455,4.26087 -6.8114,5.35682 -3.79214,1.09798 -7.78119,2.18856 -11.75399,1.78813 -5.05786,-0.87074 -7.66236,-6.2863 -8.36942,-10.89275 -1.55736,-3.49984 -1.02547,-7.9376 1.56474,-10.48708 1.10358,-1.52443 2.57542,-2.8484 4.49084,-3.83925 z" />
  <path
     id="path295"
     style="fill:#37abc8;stroke:#37abc8;stroke-width:0.264583px;stroke-linecap:butt;stroke-linejoin:miter;stroke-opacity:1"
     d="m 142.01789,57.32143 c 2.71646,0.18235 4.91535,-1.73035 7.48598,-2.17178 2.24568,-1.09561 4.83406,-1.30574 6.93969,-2.71498 0.99137,-0.72526 3.53847,-1.77688 2.92387,0.5127 -0.0574,2.3241 0.42397,5.12128 -1.3891,6.92677 -2.13317,2.28044 -4.41693,4.61044 -7.47214,5.59288 -2.2489,0.76497 -4.62837,1.05336 -6.8456,1.93642 -1.84324,0.56616 -4.47397,1.11963 -5.63713,-0.91653 -0.76918,-1.90298 -1.95939,-3.85713 -1.86533,-5.9642 0.59466,-1.62116 2.93968,-0.98668 4.05361,-2.24702 0.59302,-0.33627 1.22281,-0.59876 1.80615,-0.95426 z" />
  <path
     id="path302"
     style="fill:#0e0e12;fill-opacity:1;stroke:#0e0e12;stroke-width:0.264583px;stroke-linecap:butt;stroke-linejoin:miter;stroke-opacity:1"
     d="m 132.23226,68.36865 c 0.6109,-1.84826 2.05139,-3.33585 3.91604,-3.91595 2.49409,-1.1592 5.27785,-2.56946 8.09449,-1.85196 1.94505,0.69796 3.37649,2.28388 5.08231,3.38813 0.76832,0.81417 2.65054,2.05018 2.07778,3.13502 -1.505,0.53569 -2.90271,-0.78994 -3.9062,-1.7682 -0.99047,-1.30754 -2.67563,-0.89904 -4.082,-1.00936 -1.414,-0.0618 -2.78257,-0.74201 -4.2123,-0.35988 -1.64848,0.36489 -3.25065,0.99061 -4.75129,1.75225 -0.67347,0.38963 -1.39304,1.03662 -2.21883,0.62995 z" />
  <path
     id="path309"
     style="fill:#b50d1e;fill-opacity:1;stroke:#b50d1e;stroke-width:0.264583px;stroke-linecap:butt;stroke-linejoin:miter;stroke-opacity:1"
     d="m 144.92647,63.46617 c -0.22984,0.97224 0.47739,2.73899 1.6877,2.18065 0.60304,-0.30973 1.69572,-2.57553 1.30955,-0.75227 -0.51336,1.05941 0.37964,2.00103 1.40775,1.38217 0.61829,-0.14978 -0.38025,2.06989 0.87884,1.32977 0.78541,0.58783 -0.75135,2.62482 1.00025,2.52916 1.32174,-0.2484 1.7602,-1.85937 3.09151,-2.12491 1.28104,-0.22846 2.53201,0.60268 3.5569,1.29008 0.3776,0.49218 0.65024,0.77896 0.39499,-0.0535 -0.52046,-1.1106 -1.28604,-2.1245 -1.45768,-3.37481 -0.42695,-1.34854 -0.83161,-2.99906 -2.25486,-3.62864 -1.75776,-0.95976 -3.53212,-2.21077 -5.61573,-2.22184 -1.20382,-0.12305 -1.66713,1.11772 -2.27928,1.88896 -0.63461,0.43945 -1.42627,0.76181 -1.71994,1.55518 z" />
  <path
     id="path316"
     style="fill:#b50d1e;fill-opacity:1;stroke:#b50d1e;stroke-width:0.264583px;stroke-linecap:butt;stroke-linejoin:miter;stroke-opacity:1"
     d="m 128.60886,65.37392 c 0.96278,-0.18361 1.81219,-0.70815 2.4725,-1.41969 0.97009,-0.80749 2.03117,-1.65832 3.29835,-1.8907 1.19406,0.1402 1.56517,1.49061 2.38989,2.17013 0.64159,0.14466 0.80452,0.85768 -0.02,0.88393 -0.95209,0.36405 0.66834,0.84321 0.83409,1.3046 0.63949,0.8481 -0.0576,2.20172 -1.17346,1.9501 -1.47908,-0.096 -2.73668,-1.04432 -4.19492,-1.22482 -1.42613,0.12781 -2.72565,0.82202 -4.14396,0.99098 -0.51552,-0.70863 0.23607,-1.53446 0.35209,-2.27306 0.0607,-0.16424 0.12283,-0.32799 0.18538,-0.49147 z" />
  <path
     id="path374"
     style="fill:#4d4d4d;fill-opacity:1;stroke:#4d4d4d;stroke-width:0.264583px;stroke-linecap:butt;stroke-linejoin:miter;stroke-opacity:1"
     d="m 50.86609,91.81623 c -1.519143,1.90653 2.419558,1.70243 3.459259,1.61087 4.98529,-0.0611 9.941628,-0.99602 14.935792,-0.59957 2.427291,0.0906 4.870483,-0.19717 7.278512,-0.21204 2.609598,0.41873 1.484679,-3.8867 -0.776898,-2.98885 -3.137809,0.20332 -6.177525,1.36683 -9.359418,1.07706 -4.034932,-0.0954 -8.013691,0.79192 -12.051636,0.57525 -1.231056,0.031 -2.487235,-0.45824 -3.485611,0.53728 z" />
  <path
     id="path323"
     style="fill:#d11a1c;fill-opacity:1;stroke:#d11a1c;stroke-width:0.264583px;stroke-linecap:butt;stroke-linejoin:miter;stroke-opacity:1"
     d="m 167.33235,74.93485 c -2.87752,-3.22122 -7.71626,-3.18361 -11.60537,-4.3808 -6.81927,-1.21246 -13.68467,-1.75606 -20.61114,-1.69228 -6.92892,-0.37412 -14.36642,-0.7664 -20.51257,3.08032 -8.47601,2.38261 -14.961291,8.48048 -22.120323,13.24765 -1.575428,3.35347 -11.307988,4.72118 -6.513461,8.76289 4.994228,2.7742 10.220796,5.04038 15.986054,5.60151 11.16644,2.73852 22.91348,1.84397 34.01912,4.82915 5.34264,1.90505 10.28608,4.73359 15.56341,6.81563 3.25549,0.55663 8.35744,2.10968 10.34787,-1.32462 2.55384,-4.24661 0.74444,-9.2917 1.70105,-13.89834 0.47282,-6.05848 2.49385,-11.84329 2.83958,-17.91702 0.18797,-1.06951 0.46728,-2.12826 0.90578,-3.12409 z" />
  <path
     id="path381"
     style="fill:#4d4d4d;fill-opacity:1;stroke:#4d4d4d;stroke-width:0.264583px;stroke-linecap:butt;stroke-linejoin:miter;stroke-opacity:1"
     d="m 109.33339,111.64797 c -2.26311,3.77633 -8.04251,2.12152 -11.813221,2.10869 -7.516518,-0.8624 -15.045334,0.51405 -22.556472,0.89488 -6.97367,0.83823 -14.186745,-0.0138 -21.042355,1.16144 -1.776281,-3.37611 4.71392,-0.92052 6.533145,-2.26494 8.285175,-1.74812 16.821298,-0.53552 25.209973,-1.24651 7.574249,-0.67626 15.1721,-1.29386 22.78413,-1.31847 0.42415,-0.0432 0.79781,0.2725 0.8848,0.66491 z" />
  <path
     id="path415"
     style="fill:#d11a1c;fill-opacity:1;stroke:#d11a1c;stroke-width:0.264583px;stroke-linecap:butt;stroke-linejoin:miter;stroke-opacity:1"
     d="m 74.06075,94.27856 c 1.663869,-0.3814 3.235156,0.89988 4.367334,1.94714 0.610333,1.53924 -0.01955,3.24317 0.05307,4.85298 -0.219627,5.01223 1.145674,9.9153 1.198043,14.9154 -0.394495,2.01181 2.185124,4.84523 -0.242853,6.04957 -1.35587,0.45582 -4.59319,1.84201 -3.917929,-0.85511 -0.04603,-3.80706 0.04729,-7.64058 -0.729626,-11.39002 -0.4042,-4.32181 -0.604038,-8.66074 -1.015058,-12.98288 0.02436,-0.85051 -0.269744,-1.79881 0.287016,-2.53708 z" />
  <path
     id="path388"
     style="fill:#808080;fill-opacity:1;stroke:#808080;stroke-width:0.264583px;stroke-linecap:butt;stroke-linejoin:miter;stroke-opacity:1"
     d="m 71.866992,92.393 c 1.134016,-0.33406 4.536746,0.1461 2.45375,1.53584 -1.73133,1.15488 -3.414213,2.38169 -5.163134,3.49776 -1.77867,1.9498 -4.036338,3.2921 -6.294175,4.60726 -2.08531,1.17656 -3.856772,2.79322 -5.425051,4.58314 -1.977353,1.82471 -4.503891,2.88445 -7.007626,3.77192 -1.94903,1.24512 -1.756724,-2.66944 0.193464,-2.51515 3.423029,-1.78537 5.570288,-5.25508 9.071507,-6.93193 3.000717,-1.23887 6.073872,-2.47779 8.518183,-4.69597 1.824233,-0.56861 2.578931,-2.46495 3.653082,-3.85287 z" />
  <path
     id="path353"
     style="fill:#d11a1c;fill-opacity:1;stroke:#d11a1c;stroke-width:0.264583px;stroke-linecap:butt;stroke-linejoin:miter;stroke-opacity:1"
     d="m 89.54028,99.33631 c 1.488294,3.55505 1.081061,7.61036 0.696967,11.3406 -0.326179,3.66408 -3.492768,5.58895 -5.707826,8.028 -1.478837,1.97243 -4.733735,6.72203 0.07935,6.40197 4.237907,0.0631 8.447116,-0.34161 12.655751,-0.81788 2.793828,-0.73528 5.825038,1.30625 8.353058,-0.2877 1.59269,-2.85984 4.01336,-4.68076 7.55261,-3.99966 2.65014,-0.19675 7.18922,0.58145 8.28671,-2.0506 -2.17984,-2.44662 -5.30619,-3.86131 -7.80665,-5.97332 -3.98819,-2.01835 -5.93665,-6.89071 -10.46695,-7.84072 -4.680625,-0.64488 -8.625062,-3.52086 -13.057989,-4.84833 z" />
  <path
     id="path395"
     style="fill:#808080;fill-opacity:1;stroke:#808080;stroke-width:0.264583px;stroke-linecap:butt;stroke-linejoin:miter;stroke-opacity:1"
     d="m 49.461102,97.31766 c 2.579672,0.41169 5.255159,-0.77891 7.770223,0.16954 1.425246,0.62189 1.32538,2.38566 1.991611,3.49268 1.075069,0.38948 2.261738,-0.10983 3.344461,-0.27981 1.075912,-0.25507 2.60518,-0.58546 2.409277,-2.01654 -0.04546,-1.07185 -1.260139,-1.47509 -2.103771,-1.79801 -2.142743,-0.57683 -4.388666,-0.5949 -6.587319,-0.79182 -2.09179,-0.0953 -4.242528,-0.16094 -6.259663,0.46203 -0.307946,0.13583 -0.578492,0.39906 -0.564819,0.76193 z" />
  <path
     id="path333"
     style="fill:#b50d1e;fill-opacity:1;stroke:#b50d1e;stroke-width:0.264583px;stroke-linecap:butt;stroke-linejoin:miter;stroke-opacity:1"
     d="m 159.00101,111.3374 c -4.71358,-0.72408 -8.65835,-3.49646 -12.47081,-6.13282 -7.93803,-3.33746 -16.35481,-5.87804 -24.99553,-6.28817 -6.40196,-1.44606 -12.94651,-1.07349 -19.41743,-1.76695 -5.670048,-0.2898 -10.010112,-3.98915 -15.035188,-5.99676 -4.034454,-0.50509 -8.443964,-2.23266 -12.402931,-0.79647 -4.464145,4.09681 2.347732,7.96162 6.043306,8.81364 6.165249,3.45698 13.555885,3.11397 19.921153,5.90164 6.27776,2.96703 7.40777,11.58347 14.29087,13.81878 6.07039,2.57134 12.89736,2.5385 19.37094,2.23836 9.46062,-1.32661 19.35888,-0.38781 28.45259,-3.73776 0.5879,-2.65079 -2.44875,-4.21454 -3.75697,-6.05349 z" />
  <path
     id="path402"
     style="fill:#1a1a1a;fill-opacity:1;stroke:#1a1a1a;stroke-width:0.264583px;stroke-linecap:butt;stroke-linejoin:miter;stroke-opacity:1"
     d="m 55.376846,74.22499 c -0.335704,-6.47701 -8.711483,-4.46879 -10.291974,0.2963 -6.26513,8.23847 -8.70209,18.9176 -7.642459,29.1332 0.107157,8.01585 2.551173,15.69347 4.348512,23.43223 1.113861,4.98964 5.076427,11.07799 10.922221,9.89034 4.62789,-1.71182 4.440946,-7.59808 3.4565,-11.5741 0.908725,-4.77611 -2.795737,-7.13597 -5.163112,-10.50329 -0.990856,-4.50982 -1.157443,-9.23382 -0.932539,-13.85524 0.986389,-4.05276 1.123603,-8.57801 3.495429,-12.0995 4.342541,-2.27993 7.801463,-5.22095 4.388992,-10.33849 -0.695763,-1.53958 -1.089929,-3.37095 -2.58157,-4.38145 z" />
  <path
     id="path347"
     style="fill:#f2625c;fill-opacity:1;stroke:#f2625c;stroke-width:0.264583px;stroke-linecap:butt;stroke-linejoin:miter;stroke-opacity:1"
     d="m 167.67745,67.99153 c -8.29747,0.58007 -16.61939,-0.33956 -24.93395,-0.22324 -8.19333,-0.11729 -16.28771,-1.46811 -24.48926,-1.33104 -7.26157,-0.28819 -14.85984,-0.24248 -21.392438,3.40426 -5.189245,2.64783 -11.794302,3.38248 -15.378867,8.45057 -3.196991,4.33966 -7.878653,8.24449 -8.598496,13.83076 3.400756,3.58935 11.76699,3.37203 15.374292,-0.65879 6.01926,-4.06332 10.316336,-10.19266 16.811259,-13.62748 5.94371,-4.28806 13.50601,-4.75932 20.36581,-6.68691 6.38643,-0.99865 12.97865,-0.91924 19.35483,0.20932 6.95432,1.08466 13.99307,1.95969 20.78186,3.80068 3.85542,-0.0645 4.2236,-4.8365 2.10496,-7.16813 z" />
  <path
     id="path409"
     style="fill:#323143;fill-opacity:1;stroke:#323143;stroke-width:0.264583px;stroke-linecap:butt;stroke-linejoin:miter;stroke-opacity:1"
     d="m 37.506364,67.59224 c -5.466147,-0.52712 -10.073126,-0.24941 -14.270939,4.21299 -3.674153,4.01246 -7.797041,9.1465 -8.532609,14.67638 -1.462816,4.49618 -1.500911,8.62215 -1.640277,13.33596 -0.580753,6.65817 0.02986,12.33853 1.614445,18.64222 1.843219,6.00507 4.027862,12.29053 8.523072,16.85407 4.598899,3.87027 10.929956,3.0791 16.49229,3.78751 4.257177,0.009 8.582165,-0.51143 12.645219,-1.79007 3.035178,-0.33509 5.407081,-4.73917 0.668739,-3.85208 -4.694448,1.02839 -7.928571,-3.65385 -9.588626,-7.38673 -3.729179,-8.06264 -2.391758,-17.13192 -2.448361,-25.71528 0.817199,-5.0362 1.067374,-10.18864 2.329955,-15.14239 0.318627,-4.63052 3.306857,-8.43363 6.66953,-11.3393 2.013522,-2.46684 6.302181,0.66375 7.496341,-0.12554 -2.797579,-3.87823 -8.472695,-4.83591 -12.835468,-5.61701 -2.372222,-0.2918 -4.786177,0.0441 -7.123311,-0.54073 z" />
  <path
     id="path422"
     style="fill:#f2625c;fill-opacity:1;stroke:#f2625c;stroke-width:0.264583px;stroke-linecap:butt;stroke-linejoin:miter;stroke-opacity:1"
     d="m 92.941835,107.18915 c 1.345746,-4.18316 -1.600555,-8.45493 -0.817014,-12.39564 2.490622,-1.53615 6.1869,1.00614 6.976181,3.55259 0.707517,4.94075 0.623187,9.98192 1.124108,14.95655 -0.467741,2.78478 2.12263,7.55674 -1.550744,8.55115 -2.746064,1.55823 -5.822837,-0.22837 -5.179688,-3.46854 -0.165164,-3.72665 -1.925249,-7.49253 -0.552843,-11.19611 z" />
  <path
     id="path435"
     style="fill:#f2625c;fill-opacity:1;stroke:#f2625c;stroke-width:0.264583px;stroke-linecap:butt;stroke-linejoin:miter;stroke-opacity:1"
     d="m 14.804683,131.05821 c -0.925711,0.32513 -4.319486,0.24469 -2.762239,1.763 3.04939,0.74862 5.980335,-1.15016 9.052194,-0.90608 1.972793,0.15962 3.924135,0.0808 5.887379,-0.16939 3.45673,-0.18528 6.840479,-0.89647 10.177204,-1.78961 1.64672,-0.51853 4.672822,-0.34109 4.891373,-2.62608 -0.498457,-4.43392 0.989577,-8.78157 0.74166,-13.2204 -0.158952,-1.73913 0.192002,-3.49652 -0.07355,-5.20436 -1.471442,-1.45562 -4.275878,-0.74228 -6.298334,-0.71601 -1.594741,0.51877 -4.003144,0.70585 -4.154237,2.84142 -0.514075,1.803 -2.012,4.03458 -4.190868,3.05134 -2.722536,-0.21381 -3.029704,-4.49307 -5.77896,-3.84322 -2.165794,1.90796 -1.93174,5.13974 -1.576329,7.75921 0.433054,3.58336 -0.0035,7.22496 0.595839,10.79271 -0.489872,2.41138 -3.260427,1.20811 -4.933182,1.42785 -0.609709,0.0591 -1.207832,0.33949 -1.577947,0.83962 z" />
  <path
     id="path441"
     style="fill:#0e0e12;fill-opacity:1;stroke:#0e0e12;stroke-width:0.264583px;stroke-linecap:butt;stroke-linejoin:miter;stroke-opacity:1"
     d="m 40.612128,110.47226 c -5.906071,5.45602 -16.723227,14.07949 -2.393791,11.16634 15.638945,-1.32993 31.308627,-2.81742 47.019754,-1.99938 20.213259,0.5335 40.321869,-4.47329 60.514609,-1.4891 5.64021,-0.36766 15.77002,-9.07383 12.56943,-13.61345 -9.07495,1.13592 -18.85732,-0.26072 -27.76461,2.56191 -11.08252,8.92036 -25.85583,6.84202 -38.954524,9.1932 -9.34242,0.61593 -20.032547,2.04956 -28.273005,-3.40325 -4.171197,-7.41085 -14.84277,-6.68135 -21.62862,-3.10983 l -1.089245,0.69358 z" />
  <path
     id="path452"
     style="fill:#0e0e12;fill-opacity:1;stroke:#0e0e12;stroke-width:0.264583px;stroke-linecap:butt;stroke-linejoin:miter;stroke-opacity:1"
     d="m 25.84741,124.86912 c -2.3858,6.47423 9.043313,1.82601 12.512945,2.55778 8.299815,-0.9937 16.357652,-3.77212 24.820102,-3.314 14.942566,0.0368 29.845925,-1.19598 44.781013,-1.4561 10.36388,-0.19537 20.68094,1.30235 31.03422,1.06865 3.74618,2.77993 11.93712,-3.0109 4.45448,-3.70822 -7.42166,-0.37107 -14.82112,-0.86246 -22.21305,0.52136 -10.88424,0.63581 -21.791861,-0.25398 -32.677914,0.59591 -7.476763,0.6697 -15.0518,-1.36666 -22.386991,0.68547 -6.583967,0.95309 -13.310757,0.38593 -19.843107,2.04517 -6.572078,1.21938 -13.322921,0.52801 -19.895077,0.53915 l -0.586621,0.46501 z" />
  <path
     id="path465"
     style="fill:#4d4d4d;stroke:#4d4d4d;stroke-width:0.264583px;stroke-linecap:butt;stroke-linejoin:miter;stroke-opacity:1"
     d="m 140.41571,92.17116 c 1.32455,0.19838 -0.30821,0.92488 0.007,1.10763 1.39803,0.74416 3.00421,-0.0366 4.43852,-0.29958 3.2296,-0.98877 6.58148,-1.49871 9.9254,-1.87703 1.7946,-0.37299 3.65825,-0.0637 5.44635,-0.48468 0.0259,-1.61434 -2.15282,-0.63626 -3.11005,-0.49029 -2.59803,0.7346 -5.29974,0.81345 -7.97069,1.04729 -2.94119,0.13386 -5.77384,1.4326 -8.7362,0.99666 z" />
  <path
     id="path458"
     style="fill:#808080;stroke:#808080;stroke-width:0.264583px;stroke-linecap:butt;stroke-linejoin:miter;stroke-opacity:1"
     d="m 128.41167,74.73521 c -0.92023,2.88035 4.03041,3.08032 5.18672,5.22985 2.99554,1.4987 5.58732,3.59621 8.26452,5.57732 3.55799,2.29742 6.84306,5.02165 10.65342,6.91622 2.39014,1.74124 5.14733,2.90836 7.47847,4.69989 2.96629,1.51153 0.72946,-2.45265 -1.31012,-2.10209 -2.5151,-0.97247 -4.00307,-3.43686 -6.28238,-4.81141 -2.767,-1.90358 -5.30189,-4.11726 -7.82612,-6.30102 -3.13432,-2.06947 -5.9275,-4.59295 -9.24092,-6.38272 -2.09084,-0.78994 -4.71505,-4.63061 -6.92359,-2.82604 z" />
  <path
     id="path472"
     style="fill:#4d4d4d;fill-opacity:1;stroke:#4d4d4d;stroke-width:0.264583px;stroke-linecap:butt;stroke-linejoin:miter;stroke-opacity:1"
     d="m 122.10154,88.51094 c -2.69549,2.93596 2.01458,3.28163 4.01892,2.53116 3.79401,-0.61785 7.624,-1.08383 11.47332,-0.79894 5.06165,0.10255 10.09413,-0.57292 15.05561,-1.47945 2.29947,-0.68275 7.06333,1.48161 7.58967,-1.54206 -2.89903,-1.57048 -6.57388,0.52238 -9.77389,0.67794 -8.79186,2.00606 -17.82855,0.99057 -26.73586,0.74153 -0.54314,-0.0361 -1.08586,-0.0788 -1.62777,-0.13018 z" />
  <path
     id="path479"
     style="fill:#1a1a1a;fill-opacity:1;stroke:#1a1a1a;stroke-width:0.264583px;stroke-linecap:butt;stroke-linejoin:miter;stroke-opacity:1"
     d="m 103.02326,87.53488 c -0.96661,0.67575 -1.72704,2.68095 -0.18937,3.1463 1.5135,0.38747 3.03622,-0.27703 4.5647,-0.27203 1.26054,-0.0419 2.49569,-0.3238 3.73163,-0.50314 1.38948,-0.13646 2.81971,-0.0328 4.17931,-0.36243 1.39713,-0.50929 2.51454,-1.57656 3.94715,-2.01651 -0.42134,-0.24101 -1.95273,-0.0377 -2.77445,-0.25537 -1.90425,-0.2125 -3.73321,-1.01174 -5.68062,-0.7545 -2.60593,0.23699 -5.16114,0.85126 -7.77835,1.01768 z" />
  <path
     id="path486"
     style="fill:#31354e;fill-opacity:1;stroke:#31354e;stroke-width:0.264583px;stroke-linecap:butt;stroke-linejoin:miter;stroke-opacity:1"
     d="m 192.69612,78.8169 c 8.41631,-1.35722 10.30507,9.88954 10.91323,16.10774 -0.47855,5.55681 1.85307,17.38389 -5.739,17.84661 -5.18575,-3.16112 -5.0593,-9.95938 -6.16183,-15.2683 -0.65529,-6.12637 -0.53438,-12.33987 -0.2288,-18.46956 0.0568,-0.7247 1.107,-1.17941 1.2164,-0.21649 z" />
  <path
     id="path506"
     style="fill:#a3a1b3;fill-opacity:1;stroke:#a3a1b3;stroke-width:0.264583px;stroke-linecap:butt;stroke-linejoin:miter;stroke-opacity:1"
     d="m 194.96381,94.81096 c -0.91626,-4.11931 -0.58612,-8.39898 0.0268,-12.53482 2.02506,-1.16746 2.77289,2.85653 2.9301,4.41121 0.45401,2.71942 1.41236,5.31735 1.89361,8.0351 1.05715,4.39586 0.10848,8.95262 -0.61965,13.32784 -2.32381,-0.23993 -2.45888,-3.51036 -2.94356,-5.3607 0.12275,-1.14295 -1.28204,-5.09137 -1.76851,-2.17982 0.22282,2.9428 0.54635,5.93945 1.44859,8.76549 0.63315,2.05168 2.17197,3.89847 4.38809,4.24928 1.9201,0.36281 4.42937,1.28424 5.93194,-0.5102 1.67885,-2.02883 0.95745,-4.79166 1.8142,-7.13613 0.50144,-2.86765 -0.39483,-5.78788 0.16293,-8.66238 -0.13719,-1.93351 -0.56845,-3.83605 -0.4554,-5.78918 -0.21526,-4.46703 -1.78589,-8.7024 -3.18059,-12.8946 -1.08352,-1.64873 -3.17811,-2.262 -4.57773,-3.65329 -1.58021,-1.00259 -3.54007,-0.90451 -5.149,-0.0165 -2.40302,1.25463 -1.81538,4.38351 -1.99142,6.63131 -0.19601,4.88259 -2.19364,9.69592 -1.24977,14.60179 0.72893,2.00941 0.83899,4.14454 1.30092,6.21926 0.98689,1.60784 0.19956,4.47801 2.33367,5.16746 1.34087,-2.3902 0.26264,-5.22283 0.0292,-7.75928 -0.27305,-1.61827 -0.53433,-3.26944 -0.3244,-4.91184 z" />
  <path
     id="path516"
     style="fill:#1a1a1a;fill-opacity:1;stroke:#1a1a1a;stroke-width:0.264583px;stroke-linecap:butt;stroke-linejoin:miter;stroke-opacity:1"
     d="m 205.9326,85.51621 c 1.64212,8.45869 1.43051,19.19221 -1.93691,27.32538 -2.48031,2.66722 -6.19077,-1.145 -7.29043,-4.1477 -1.53924,-3.6785 -1.79889,-7.72613 -2.91602,-11.53185 -1.15289,-5.65436 -0.31015,-11.43663 0.46959,-17.06572 0.30922,-3.007 4.03267,-5.88981 6.74991,-3.7676 1.97333,1.54355 1.86165,6.33699 5.42118,4.85972 2.43216,-2.44905 -1.21634,-5.23477 -2.25598,-7.4687 -1.41548,-4.76991 -5.02038,-8.5532 -8.83883,-11.56817 -3.34265,-1.70862 -7.03329,0.59898 -9.34293,3.00069 -3.87426,3.36148 -6.00783,8.38561 -6.13584,13.47784 -0.14096,4.99734 0.41004,9.98925 0.14542,14.98911 -0.19426,3.71957 1.84464,6.97556 2.97155,10.39905 1.94927,4.91845 3.84132,9.86894 5.96649,14.71134 1.81259,2.21662 2.70513,4.94735 4.30993,7.26831 1.81984,2.40518 5.55366,3.90297 7.98787,2.7641 2.07462,-1.13422 4.58324,-4.32013 5.61834,-6.26958 2.57179,-3.9452 2.46891,-9.35729 2.84948,-14.06996 0.98002,-5.97969 -0.39508,-11.98341 -0.67699,-17.96099 -0.2883,-3.009 -0.6526,-6.01117 -0.86519,-9.02709 -1.13937,-2.46965 -1.6251,-7.25025 -5.32719,-6.65848 -2.8382,2.002 0.14947,5.06993 1.2753,7.14683 0.56434,1.21759 1.02079,2.50216 1.82125,3.59347 z" />
  <path
     id="path556"
     style="fill:#323143;fill-opacity:1;stroke:#323143;stroke-width:0.264583px;stroke-linecap:butt;stroke-linejoin:miter;stroke-opacity:1"
     d="m 161.4166,112.40219 c -2.40116,-3.94144 -2.70262,-8.78012 -3.28567,-13.24152 -0.64592,-6.21116 -0.7977,-12.52132 0.65308,-18.63632 0.20383,-4.84182 2.85442,-9.06896 4.74675,-13.4053 3.39834,-3.67352 8.92494,-4.09804 13.54531,-5.38016 5.21737,-0.12766 10.71055,-2.3806 15.76712,-0.31199 4.78537,1.45231 -3.22846,1.59458 -3.40879,4.96929 -1.88268,4.37842 -3.63374,8.89462 -4.89736,13.48435 -1.16416,5.84063 -0.0694,11.77065 0.0909,17.6473 0.48776,6.0584 2.30764,11.87412 3.58132,17.79118 2.22095,3.49009 3.89417,7.92146 7.61714,10.00748 2.11429,0.69935 9.07879,3.17963 2.70454,4.77058 -6.81983,1.72184 -14.64457,2.35291 -21.75086,2.53533 -3.98095,0.82941 -7.84996,-1.03329 -9.48011,-4.75171 -3.35544,-3.89088 -5.25903,-8.84614 -6.20531,-13.84022 -0.001,-0.55958 0.096,-1.12399 0.32193,-1.63829 z" />
  <path
     id="path566"
     style="fill:#f2625c;fill-opacity:1;stroke:#f2625c;stroke-width:0.264583px;stroke-linecap:butt;stroke-linejoin:miter;stroke-opacity:1"
     d="m 156.63471,103.81732 c -2.35332,-0.79751 -2.63535,2.42237 -3.19029,3.93772 -0.39189,1.30195 -1.10964,5.31028 -2.78495,2.77916 -0.72541,-2.42318 -3.07098,-3.60386 -4.74586,-5.27404 -2.37679,-1.23027 -3.43431,1.85588 -3.70509,3.65994 -0.51481,2.29037 -0.20352,4.63651 0.25557,6.89659 0.20935,2.42347 0.40934,4.83087 0.3582,7.26952 -0.25135,2.11182 0.51335,4.43596 3.04335,3.66153 2.60568,0.0906 5.19905,0.76643 7.83017,0.51458 3.05067,-0.31912 6.03058,-1.23092 9.12489,-1.20905 4.1511,-0.11491 8.44879,0.64275 12.47708,-0.68772 -1.53858,-1.72309 -4.74561,-0.94746 -7.00153,-1.12276 -1.07224,0.0232 -2.30307,-0.0503 -1.15153,-1.20242 1.47111,-2.07456 1.59344,-4.83161 0.11384,-6.9338 -1.18427,-2.47603 -3.77869,-3.75615 -5.31991,-5.96986 -1.63842,-2.19332 -3.42019,-4.31924 -5.30394,-6.31936 z" />
</svg>
