<?xml version="1.0" encoding="UTF-8" standalone="no"?>
<svg
   xmlns:dc="http://purl.org/dc/elements/1.1/"
   xmlns:cc="http://creativecommons.org/ns#"
   xmlns:rdf="http://www.w3.org/1999/02/22-rdf-syntax-ns#"
   xmlns:svg="http://www.w3.org/2000/svg"
   xmlns="http://www.w3.org/2000/svg"
   xmlns:sodipodi="http://sodipodi.sourceforge.net/DTD/sodipodi-0.dtd"
   xmlns:inkscape="http://www.inkscape.org/namespaces/inkscape"
   sodipodi:docname="earth.svg"
   inkscape:version="1.0 (4035a4fb49, 2020-05-01)"
   id="svg8"
   version="1.1"
   viewBox="0 0 317.5 158.75"
   height="600"
   width="1200">
  <defs
     id="defs2">
    <inkscape:path-effect
       lpeversion="1"
       is_visible="true"
       id="path-effect522"
       effect="spiro" />
    <inkscape:path-effect
       simplify_just_coalesce="false"
       simplify_individual_paths="false"
       helper_size="0"
       smooth_angles="360"
       threshold="0.000408163"
       steps="1"
       lpeversion="1"
       is_visible="true"
       id="path-effect520"
       effect="simplify" />
    <inkscape:path-effect
       lpeversion="1"
       is_visible="true"
       id="path-effect514"
       effect="spiro" />
    <inkscape:path-effect
       simplify_just_coalesce="false"
       simplify_individual_paths="false"
       helper_size="0"
       smooth_angles="360"
       threshold="0.000408163"
       steps="1"
       lpeversion="1"
       is_visible="true"
       id="path-effect512"
       effect="simplify" />
    <inkscape:path-effect
       lpeversion="1"
       is_visible="true"
       id="path-effect506"
       effect="spiro" />
    <inkscape:path-effect
       simplify_just_coalesce="false"
       simplify_individual_paths="false"
       helper_size="0"
       smooth_angles="360"
       threshold="0.000408163"
       steps="1"
       lpeversion="1"
       is_visible="true"
       id="path-effect504"
       effect="simplify" />
    <inkscape:path-effect
       lpeversion="1"
       is_visible="true"
       id="path-effect498"
       effect="spiro" />
    <inkscape:path-effect
       simplify_just_coalesce="false"
       simplify_individual_paths="false"
       helper_size="0"
       smooth_angles="360"
       threshold="0.000408163"
       steps="1"
       lpeversion="1"
       is_visible="true"
       id="path-effect496"
       effect="simplify" />
    <inkscape:path-effect
       lpeversion="1"
       is_visible="true"
       id="path-effect490"
       effect="spiro" />
    <inkscape:path-effect
       simplify_just_coalesce="false"
       simplify_individual_paths="false"
       helper_size="0"
       smooth_angles="360"
       threshold="0.000408163"
       steps="1"
       lpeversion="1"
       is_visible="true"
       id="path-effect488"
       effect="simplify" />
    <inkscape:path-effect
       lpeversion="1"
       is_visible="true"
       id="path-effect482"
       effect="spiro" />
    <inkscape:path-effect
       simplify_just_coalesce="false"
       simplify_individual_paths="false"
       helper_size="0"
       smooth_angles="360"
       threshold="0.000408163"
       steps="1"
       lpeversion="1"
       is_visible="true"
       id="path-effect480"
       effect="simplify" />
    <inkscape:path-effect
       lpeversion="1"
       is_visible="true"
       id="path-effect474"
       effect="spiro" />
    <inkscape:path-effect
       simplify_just_coalesce="false"
       simplify_individual_paths="false"
       helper_size="0"
       smooth_angles="360"
       threshold="0.000408163"
       steps="1"
       lpeversion="1"
       is_visible="true"
       id="path-effect472"
       effect="simplify" />
    <inkscape:path-effect
       lpeversion="1"
       is_visible="true"
       id="path-effect467"
       effect="spiro" />
    <inkscape:path-effect
       simplify_just_coalesce="false"
       simplify_individual_paths="false"
       helper_size="0"
       smooth_angles="360"
       threshold="0.000408163"
       steps="1"
       lpeversion="1"
       is_visible="true"
       id="path-effect465"
       effect="simplify" />
    <inkscape:path-effect
       lpeversion="1"
       is_visible="true"
       id="path-effect460"
       effect="spiro" />
    <inkscape:path-effect
       simplify_just_coalesce="false"
       simplify_individual_paths="false"
       helper_size="0"
       smooth_angles="360"
       threshold="0.000408163"
       steps="1"
       lpeversion="1"
       is_visible="true"
       id="path-effect458"
       effect="simplify" />
    <inkscape:path-effect
       lpeversion="1"
       is_visible="true"
       id="path-effect453"
       effect="spiro" />
    <inkscape:path-effect
       simplify_just_coalesce="false"
       simplify_individual_paths="false"
       helper_size="0"
       smooth_angles="360"
       threshold="0.000408163"
       steps="1"
       lpeversion="1"
       is_visible="true"
       id="path-effect451"
       effect="simplify" />
    <inkscape:path-effect
       lpeversion="1"
       is_visible="true"
       id="path-effect447"
       effect="spiro" />
    <inkscape:path-effect
       simplify_just_coalesce="false"
       simplify_individual_paths="false"
       helper_size="0"
       smooth_angles="360"
       threshold="0.000408163"
       steps="1"
       lpeversion="1"
       is_visible="true"
       id="path-effect445"
       effect="simplify" />
    <inkscape:path-effect
       lpeversion="1"
       is_visible="true"
       id="path-effect440"
       effect="spiro" />
    <inkscape:path-effect
       simplify_just_coalesce="false"
       simplify_individual_paths="false"
       helper_size="0"
       smooth_angles="360"
       threshold="0.000408163"
       steps="1"
       lpeversion="1"
       is_visible="true"
       id="path-effect438"
       effect="simplify" />
    <inkscape:path-effect
       lpeversion="1"
       is_visible="true"
       id="path-effect433"
       effect="spiro" />
    <inkscape:path-effect
       simplify_just_coalesce="false"
       simplify_individual_paths="false"
       helper_size="0"
       smooth_angles="360"
       threshold="0.000408163"
       steps="1"
       lpeversion="1"
       is_visible="true"
       id="path-effect431"
       effect="simplify" />
    <inkscape:path-effect
       lpeversion="1"
       is_visible="true"
       id="path-effect426"
       effect="spiro" />
    <inkscape:path-effect
       simplify_just_coalesce="false"
       simplify_individual_paths="false"
       helper_size="0"
       smooth_angles="360"
       threshold="0.000408163"
       steps="1"
       lpeversion="1"
       is_visible="true"
       id="path-effect424"
       effect="simplify" />
    <inkscape:path-effect
       lpeversion="1"
       is_visible="true"
       id="path-effect419"
       effect="spiro" />
    <inkscape:path-effect
       simplify_just_coalesce="false"
       simplify_individual_paths="false"
       helper_size="0"
       smooth_angles="360"
       threshold="0.000408163"
       steps="1"
       lpeversion="1"
       is_visible="true"
       id="path-effect417"
       effect="simplify" />
    <inkscape:path-effect
       lpeversion="1"
       is_visible="true"
       id="path-effect412"
       effect="spiro" />
    <inkscape:path-effect
       simplify_just_coalesce="false"
       simplify_individual_paths="false"
       helper_size="0"
       smooth_angles="360"
       threshold="0.000408163"
       steps="1"
       lpeversion="1"
       is_visible="true"
       id="path-effect410"
       effect="simplify" />
    <inkscape:path-effect
       lpeversion="1"
       is_visible="true"
       id="path-effect406"
       effect="spiro" />
    <inkscape:path-effect
       simplify_just_coalesce="false"
       simplify_individual_paths="false"
       helper_size="0"
       smooth_angles="360"
       threshold="0.000408163"
       steps="1"
       lpeversion="1"
       is_visible="true"
       id="path-effect404"
       effect="simplify" />
    <inkscape:path-effect
       lpeversion="1"
       is_visible="true"
       id="path-effect400"
       effect="spiro" />
    <inkscape:path-effect
       simplify_just_coalesce="false"
       simplify_individual_paths="false"
       helper_size="0"
       smooth_angles="360"
       threshold="0.000408163"
       steps="1"
       lpeversion="1"
       is_visible="true"
       id="path-effect398"
       effect="simplify" />
    <inkscape:path-effect
       lpeversion="1"
       is_visible="true"
       id="path-effect393"
       effect="spiro" />
    <inkscape:path-effect
       simplify_just_coalesce="false"
       simplify_individual_paths="false"
       helper_size="0"
       smooth_angles="360"
       threshold="0.000408163"
       steps="1"
       lpeversion="1"
       is_visible="true"
       id="path-effect391"
       effect="simplify" />
    <inkscape:path-effect
       lpeversion="1"
       is_visible="true"
       id="path-effect385"
       effect="spiro" />
    <inkscape:path-effect
       simplify_just_coalesce="false"
       simplify_individual_paths="false"
       helper_size="0"
       smooth_angles="360"
       threshold="0.000408163"
       steps="1"
       lpeversion="1"
       is_visible="true"
       id="path-effect383"
       effect="simplify" />
    <inkscape:path-effect
       lpeversion="1"
       is_visible="true"
       id="path-effect377"
       effect="spiro" />
    <inkscape:path-effect
       simplify_just_coalesce="false"
       simplify_individual_paths="false"
       helper_size="0"
       smooth_angles="360"
       threshold="0.000408163"
       steps="1"
       lpeversion="1"
       is_visible="true"
       id="path-effect375"
       effect="simplify" />
    <inkscape:path-effect
       lpeversion="1"
       is_visible="true"
       id="path-effect369"
       effect="spiro" />
    <inkscape:path-effect
       simplify_just_coalesce="false"
       simplify_individual_paths="false"
       helper_size="0"
       smooth_angles="360"
       threshold="0.000408163"
       steps="1"
       lpeversion="1"
       is_visible="true"
       id="path-effect367"
       effect="simplify" />
    <inkscape:path-effect
       lpeversion="1"
       is_visible="true"
       id="path-effect363"
       effect="spiro" />
    <inkscape:path-effect
       simplify_just_coalesce="false"
       simplify_individual_paths="false"
       helper_size="0"
       smooth_angles="360"
       threshold="0.000408163"
       steps="1"
       lpeversion="1"
       is_visible="true"
       id="path-effect361"
       effect="simplify" />
    <inkscape:path-effect
       lpeversion="1"
       is_visible="true"
       id="path-effect355"
       effect="spiro" />
    <inkscape:path-effect
       simplify_just_coalesce="false"
       simplify_individual_paths="false"
       helper_size="0"
       smooth_angles="360"
       threshold="0.000408163"
       steps="1"
       lpeversion="1"
       is_visible="true"
       id="path-effect353"
       effect="simplify" />
    <inkscape:path-effect
       lpeversion="1"
       is_visible="true"
       id="path-effect349"
       effect="spiro" />
    <inkscape:path-effect
       simplify_just_coalesce="false"
       simplify_individual_paths="false"
       helper_size="0"
       smooth_angles="360"
       threshold="0.000408163"
       steps="1"
       lpeversion="1"
       is_visible="true"
       id="path-effect347"
       effect="simplify" />
    <inkscape:path-effect
       lpeversion="1"
       is_visible="true"
       id="path-effect341"
       effect="spiro" />
    <inkscape:path-effect
       simplify_just_coalesce="false"
       simplify_individual_paths="false"
       helper_size="0"
       smooth_angles="360"
       threshold="0.000408163"
       steps="1"
       lpeversion="1"
       is_visible="true"
       id="path-effect339"
       effect="simplify" />
    <inkscape:path-effect
       lpeversion="1"
       is_visible="true"
       id="path-effect333"
       effect="spiro" />
    <inkscape:path-effect
       simplify_just_coalesce="false"
       simplify_individual_paths="false"
       helper_size="0"
       smooth_angles="360"
       threshold="0.000408163"
       steps="1"
       lpeversion="1"
       is_visible="true"
       id="path-effect331"
       effect="simplify" />
    <inkscape:path-effect
       lpeversion="1"
       is_visible="true"
       id="path-effect325"
       effect="spiro" />
    <inkscape:path-effect
       simplify_just_coalesce="false"
       simplify_individual_paths="false"
       helper_size="0"
       smooth_angles="360"
       threshold="0.000408163"
       steps="1"
       lpeversion="1"
       is_visible="true"
       id="path-effect323"
       effect="simplify" />
    <inkscape:path-effect
       lpeversion="1"
       is_visible="true"
       id="path-effect317"
       effect="spiro" />
    <inkscape:path-effect
       simplify_just_coalesce="false"
       simplify_individual_paths="false"
       helper_size="0"
       smooth_angles="360"
       threshold="0.000408163"
       steps="1"
       lpeversion="1"
       is_visible="true"
       id="path-effect315"
       effect="simplify" />
    <inkscape:path-effect
       lpeversion="1"
       is_visible="true"
       id="path-effect311"
       effect="spiro" />
    <inkscape:path-effect
       simplify_just_coalesce="false"
       simplify_individual_paths="false"
       helper_size="0"
       smooth_angles="360"
       threshold="0.000408163"
       steps="1"
       lpeversion="1"
       is_visible="true"
       id="path-effect309"
       effect="simplify" />
    <inkscape:path-effect
       lpeversion="1"
       is_visible="true"
       id="path-effect303"
       effect="spiro" />
    <inkscape:path-effect
       simplify_just_coalesce="false"
       simplify_individual_paths="false"
       helper_size="0"
       smooth_angles="360"
       threshold="0.000408163"
       steps="1"
       lpeversion="1"
       is_visible="true"
       id="path-effect301"
       effect="simplify" />
    <inkscape:path-effect
       lpeversion="1"
       is_visible="true"
       id="path-effect295"
       effect="spiro" />
    <inkscape:path-effect
       simplify_just_coalesce="false"
       simplify_individual_paths="false"
       helper_size="0"
       smooth_angles="360"
       threshold="0.000408163"
       steps="1"
       lpeversion="1"
       is_visible="true"
       id="path-effect293"
       effect="simplify" />
    <inkscape:path-effect
       lpeversion="1"
       is_visible="true"
       id="path-effect287"
       effect="spiro" />
    <inkscape:path-effect
       simplify_just_coalesce="false"
       simplify_individual_paths="false"
       helper_size="0"
       smooth_angles="360"
       threshold="0.000408163"
       steps="1"
       lpeversion="1"
       is_visible="true"
       id="path-effect285"
       effect="simplify" />
    <inkscape:path-effect
       lpeversion="1"
       is_visible="true"
       id="path-effect279"
       effect="spiro" />
    <inkscape:path-effect
       simplify_just_coalesce="false"
       simplify_individual_paths="false"
       helper_size="0"
       smooth_angles="360"
       threshold="0.000408163"
       steps="1"
       lpeversion="1"
       is_visible="true"
       id="path-effect277"
       effect="simplify" />
    <inkscape:path-effect
       lpeversion="1"
       is_visible="true"
       id="path-effect271"
       effect="spiro" />
    <inkscape:path-effect
       simplify_just_coalesce="false"
       simplify_individual_paths="false"
       helper_size="0"
       smooth_angles="360"
       threshold="0.000408163"
       steps="1"
       lpeversion="1"
       is_visible="true"
       id="path-effect269"
       effect="simplify" />
    <inkscape:path-effect
       lpeversion="1"
       is_visible="true"
       id="path-effect264"
       effect="spiro" />
    <inkscape:path-effect
       simplify_just_coalesce="false"
       simplify_individual_paths="false"
       helper_size="0"
       smooth_angles="360"
       threshold="0.000408163"
       steps="1"
       lpeversion="1"
       is_visible="true"
       id="path-effect262"
       effect="simplify" />
    <inkscape:path-effect
       lpeversion="1"
       is_visible="true"
       id="path-effect257"
       effect="spiro" />
    <inkscape:path-effect
       simplify_just_coalesce="false"
       simplify_individual_paths="false"
       helper_size="0"
       smooth_angles="360"
       threshold="0.000408163"
       steps="1"
       lpeversion="1"
       is_visible="true"
       id="path-effect255"
       effect="simplify" />
    <inkscape:path-effect
       lpeversion="1"
       is_visible="true"
       id="path-effect250"
       effect="spiro" />
    <inkscape:path-effect
       simplify_just_coalesce="false"
       simplify_individual_paths="false"
       helper_size="0"
       smooth_angles="360"
       threshold="0.000408163"
       steps="1"
       lpeversion="1"
       is_visible="true"
       id="path-effect248"
       effect="simplify" />
    <inkscape:path-effect
       lpeversion="1"
       is_visible="true"
       id="path-effect243"
       effect="spiro" />
    <inkscape:path-effect
       simplify_just_coalesce="false"
       simplify_individual_paths="false"
       helper_size="0"
       smooth_angles="360"
       threshold="0.000408163"
       steps="1"
       lpeversion="1"
       is_visible="true"
       id="path-effect241"
       effect="simplify" />
    <inkscape:path-effect
       lpeversion="1"
       is_visible="true"
       id="path-effect235"
       effect="spiro" />
    <inkscape:path-effect
       simplify_just_coalesce="false"
       simplify_individual_paths="false"
       helper_size="0"
       smooth_angles="360"
       threshold="0.000408163"
       steps="1"
       lpeversion="1"
       is_visible="true"
       id="path-effect233"
       effect="simplify" />
    <inkscape:path-effect
       lpeversion="1"
       is_visible="true"
       id="path-effect227"
       effect="spiro" />
    <inkscape:path-effect
       simplify_just_coalesce="false"
       simplify_individual_paths="false"
       helper_size="0"
       smooth_angles="360"
       threshold="0.000408163"
       steps="1"
       lpeversion="1"
       is_visible="true"
       id="path-effect225"
       effect="simplify" />
    <inkscape:path-effect
       lpeversion="1"
       is_visible="true"
       id="path-effect219"
       effect="spiro" />
    <inkscape:path-effect
       simplify_just_coalesce="false"
       simplify_individual_paths="false"
       helper_size="0"
       smooth_angles="360"
       threshold="0.000408163"
       steps="1"
       lpeversion="1"
       is_visible="true"
       id="path-effect217"
       effect="simplify" />
    <inkscape:path-effect
       lpeversion="1"
       is_visible="true"
       id="path-effect211"
       effect="spiro" />
    <inkscape:path-effect
       simplify_just_coalesce="false"
       simplify_individual_paths="false"
       helper_size="0"
       smooth_angles="360"
       threshold="0.000408163"
       steps="1"
       lpeversion="1"
       is_visible="true"
       id="path-effect209"
       effect="simplify" />
    <inkscape:path-effect
       lpeversion="1"
       is_visible="true"
       id="path-effect203"
       effect="spiro" />
    <inkscape:path-effect
       simplify_just_coalesce="false"
       simplify_individual_paths="false"
       helper_size="0"
       smooth_angles="360"
       threshold="0.000408163"
       steps="1"
       lpeversion="1"
       is_visible="true"
       id="path-effect201"
       effect="simplify" />
    <inkscape:path-effect
       lpeversion="1"
       is_visible="true"
       id="path-effect195"
       effect="spiro" />
    <inkscape:path-effect
       simplify_just_coalesce="false"
       simplify_individual_paths="false"
       helper_size="0"
       smooth_angles="360"
       threshold="0.000408163"
       steps="1"
       lpeversion="1"
       is_visible="true"
       id="path-effect193"
       effect="simplify" />
    <inkscape:path-effect
       lpeversion="1"
       is_visible="true"
       id="path-effect187"
       effect="spiro" />
    <inkscape:path-effect
       simplify_just_coalesce="false"
       simplify_individual_paths="false"
       helper_size="0"
       smooth_angles="360"
       threshold="0.000408163"
       steps="1"
       lpeversion="1"
       is_visible="true"
       id="path-effect185"
       effect="simplify" />
    <inkscape:path-effect
       lpeversion="1"
       is_visible="true"
       id="path-effect179"
       effect="spiro" />
    <inkscape:path-effect
       simplify_just_coalesce="false"
       simplify_individual_paths="false"
       helper_size="0"
       smooth_angles="360"
       threshold="0.000408163"
       steps="1"
       lpeversion="1"
       is_visible="true"
       id="path-effect177"
       effect="simplify" />
    <inkscape:path-effect
       lpeversion="1"
       is_visible="true"
       id="path-effect162"
       effect="spiro" />
    <inkscape:path-effect
       simplify_just_coalesce="false"
       simplify_individual_paths="false"
       helper_size="0"
       smooth_angles="360"
       threshold="0.000408163"
       steps="1"
       lpeversion="1"
       is_visible="true"
       id="path-effect160"
       effect="simplify" />
  </defs>
  <sodipodi:namedview
     inkscape:snap-global="false"
     inkscape:document-rotation="0"
     inkscape:window-maximized="0"
     inkscape:window-y="21"
     inkscape:window-x="3"
     inkscape:window-height="1059"
     inkscape:window-width="1918"
     units="px"
     showgrid="false"
     inkscape:current-layer="layer1"
     inkscape:document-units="mm"
     inkscape:cy="294.34665"
     inkscape:cx="610.50185"
     inkscape:zoom="1.4"
     inkscape:pageshadow="2"
     inkscape:pageopacity="0.0"
     borderopacity="1.0"
     bordercolor="#666666"
     pagecolor="#ffffff"
     id="base" />
  <metadata
     id="metadata5">
    <rdf:RDF>
      <cc:Work
         rdf:about="">
        <dc:format>image/svg+xml</dc:format>
        <dc:type
           rdf:resource="http://purl.org/dc/dcmitype/StillImage" />
        <dc:title></dc:title>
      </cc:Work>
    </rdf:RDF>
  </metadata>
  <g
     transform="translate(0,-138.25001)"
     id="layer1"
     inkscape:groupmode="layer"
     inkscape:label="Layer 1">
    <path
       d="m 85.174609,194.05787 c 8.898933,-36.94395 50.125131,-60.88343 86.810841,-53.23149 37.2698,5.43997 67.05011,41.92406 64.42719,79.59505 0.19077,39.79183 -35.95408,75.29071 -75.62939,74.96946 -22.05412,-0.12056 -44.07261,-9.39478 -59.5251,-25.11209 -17.365375,-18.73494 -23.847988,-46.32886 -18.51564,-71.07955 0.563369,-1.81621 1.358057,-3.56838 2.432099,-5.14138 z"
       style="fill:#0d387c;fill-opacity:1;stroke:#0d387c;stroke-width:0.264583px;stroke-linecap:butt;stroke-linejoin:miter;stroke-opacity:1"
       id="path158" />
    <path
       d="m 105.76568,159.42064 c 2.22174,0.54796 4.02882,-1.10752 5.60577,-2.39016 1.65366,-1.60105 3.78348,-3.31781 6.2087,-3.09537 -1.09626,1.7352 -3.66329,1.82553 -4.64506,3.8167 -1.39472,0.97942 2.2873,-0.53977 0.62142,0.88736 -1.73982,1.56395 -3.71797,2.96858 -5.01559,4.93297 -0.21465,0.95476 -1.67342,1.85827 -0.21689,2.67275 -0.44672,0.85043 -3.06956,0.77464 -2.08641,2.12005 -1.76821,-0.0273 -4.01718,1.40039 -3.3913,3.21331 -1.06132,0.63656 -1.69391,3.56296 -2.8288,2.69423 0.81818,-1.08856 0.42687,-1.86891 0.056,-2.83541 1.05486,-1.45866 3.13077,-1.85694 4.20566,-3.37337 -0.15103,-0.0349 -1.28782,0.97875 -1.38173,-0.42747 0.71656,-1.73293 -2.63951,-1.52867 -0.95529,-0.17354 -0.16253,1.13934 -1.71505,1.6866 -1.86079,2.70629 -1.084573,0.58897 -2.032405,1.65861 -1.601633,2.66523 -1.642222,0.76544 -1.315612,-0.47629 -1.071992,-1.34565 -1.977787,-0.008 -2.216896,2.57985 -3.918656,3.29407 0.157107,1.87842 -2.25022,2.67781 -2.112297,4.52086 -0.01046,1.2002 -1.834893,2.13039 -1.147986,0.26864 0.551454,-2.49953 2.460009,-4.33577 3.315665,-6.71 1.991313,-2.57724 3.850108,-5.25547 5.883011,-7.79567 1.637048,-1.99304 4.516048,-2.63861 5.725088,-5.03176 l 0.27458,-0.33901 z"
       style="fill:#417241;fill-opacity:1;stroke:#417241;stroke-width:0.264583px;stroke-linecap:butt;stroke-linejoin:miter;stroke-opacity:1"
       id="path175" />
    <path
       d="m 136.31805,142.28416 c -1.60321,0.38611 -1.24917,1.90002 -0.52444,2.48632 -0.61466,0.5766 -2.23855,2.03613 -0.29332,1.34692 2.64691,-0.44547 5.3093,-2.63007 7.9499,-1.89634 1.83787,1.81092 -1.36631,3.54238 -2.99728,2.56352 -1.94034,-0.93218 -3.83009,-0.0401 -5.66646,0.47607 -1.19967,1.19826 -2.09079,3.90813 -4.45908,4.07656 -2.11872,1.47377 -4.17427,2.9707 -6.50791,4.09332 -2.09112,1.38143 -4.17487,2.69226 -5.96508,4.45921 -1.03942,0.50403 -2.5799,3.65068 -0.32443,2.35562 1.51346,-1.56119 3.33913,-2.41887 5.29973,-3.24851 1.18188,-0.92319 2.08394,-1.30929 3.38526,-0.52972 2.39803,-0.70664 4.73548,-1.51305 7.29855,-1.45585 2.14881,0.13913 0.95285,-1.91602 1.64644,-2.80815 0.16473,1.52636 1.3681,1.82275 2.00519,0.32474 0.39108,-1.7229 1.76877,-2.37324 3.28047,-2.0874 2.20539,-0.9405 3.7157,-3.02831 6.0111,-3.80114 0.84232,0.47517 -2.79567,1.38484 -0.90188,1.45597 2.34144,-1.81554 5.65834,-0.49912 8.07841,-2.16158 2.10489,-1.19 3.67451,2.00398 5.42738,0.0117 1.81881,-0.54295 3.53618,-2.29294 5.22508,-0.83615 1.75421,0.17397 -0.003,-2.55358 2.1006,-2.45415 1.16491,0.10603 2.48166,2.24346 3.23982,0.0991 -0.33813,-1.00284 1.08824,-2.15841 -0.67709,-2.28456 -1.91829,0.25157 -2.20562,-1.99346 -0.27935,-2.11367 1.06778,-0.4509 -2.08055,-0.23108 -2.53885,-0.64397 -2.53478,-0.87144 -5.19356,-0.75977 -7.81781,-0.53463 -3.59972,0.2668 -7.2846,-0.16093 -10.80066,0.78539 -2.92735,0.62404 -5.96387,0.55652 -8.81073,1.57577 -0.8039,0.21436 -1.58577,0.53004 -2.38356,0.74561 z"
       style="fill:#cccccc;stroke:#cccccc;stroke-width:0.264583px;stroke-linecap:butt;stroke-linejoin:miter;stroke-opacity:1"
       id="path183" />
    <path
       d="m 132.32492,143.32677 c 0.69687,-0.5455 1.97766,-0.13494 1.26797,0.84201 -0.0523,1.20842 -1.12121,1.26122 -2.04964,1.17273 -1.07017,0.28731 -2.10505,0.70628 -3.22236,0.79275 -1.07706,0.15118 -1.36404,1.30581 -2.16514,1.85399 -0.51197,0.65262 -1.52103,1.23405 -2.36868,1.61614 -0.89783,0.57337 -1.94245,0.39627 -2.93406,0.40089 -1.27061,-0.0173 -1.89817,1.27983 -3.03984,1.53472 -0.54988,0.12795 -2.07302,0.4541 -0.87277,-0.19398 0.96223,-0.39592 1.45716,-1.3545 2.30796,-1.87436 0.84943,-0.42381 1.59485,-1.02638 2.53259,-1.26853 0.8275,-0.46282 1.60012,-1.00781 2.56052,-1.18193 0.89724,-0.5285 1.95455,-0.75099 2.76868,-1.42513 1.09722,-0.5716 2.55495,-0.26047 3.42723,-1.29511 0.4993,-0.39197 1.0743,-1.16967 1.78754,-0.97419 z"
       style="fill:#417241;fill-opacity:1;stroke:#417241;stroke-width:0.264583px;stroke-linecap:butt;stroke-linejoin:miter;stroke-opacity:1"
       id="path191" />
    <path
       d="m 130.47624,146.89825 c 0.44474,-0.43322 2.10232,-0.46573 1.17389,0.34846 -0.6506,0.50531 -1.5042,0.75455 -1.96198,1.48843 -0.4481,0.47445 -1.37074,0.36156 -1.55228,1.18452 -1.09672,0.86628 -2.73817,0.56456 -3.75565,1.59135 -1.22396,1.00303 -2.03659,2.43091 -3.27382,3.40523 -0.9,0.38613 -0.55724,-0.33368 -0.17269,-0.71889 0.4159,-1.20586 -1.2759,-0.26555 -1.61461,0.17329 -0.25437,0.22889 -1.39014,1.24316 -0.82798,0.3058 0.43364,-0.63868 0.85513,-1.28729 1.0056,-2.06698 0.4351,-0.47514 1.26614,-0.67724 1.83692,-0.86888 0.87633,0.0346 1.50969,-0.65911 2.31828,-0.86019 0.97636,-0.64997 2.04983,-1.11128 3.06544,-1.68218 0.79817,-0.40698 1.04202,-1.41913 1.90315,-1.70694 0.60208,-0.24865 1.20571,-0.49806 1.85573,-0.59302 z"
       style="fill:#417241;fill-opacity:1;stroke:#417241;stroke-width:0.264583px;stroke-linecap:butt;stroke-linejoin:miter;stroke-opacity:1"
       id="path199" />
    <path
       d="m 130.77204,160.51871 c 0.10706,0.40259 -0.29271,0.68902 -0.63499,0.77551 -0.33834,0.13833 -0.89785,0.68777 -0.4985,0.9968 0.31498,0.14303 0.71738,-0.0703 0.99061,0.15562 -0.10682,0.36548 -0.44526,0.5844 -0.70579,0.82915 0.14919,0.29462 0.5911,-0.14565 0.86808,-0.16226 0.41625,-0.27176 0.86744,0.0514 1.28183,0.14468 0.38715,0.1185 0.89243,0.15345 1.11801,-0.25839 0.19733,-0.39619 0.55451,-0.20738 0.76954,0.0479 0.38413,0.18829 0.73443,-0.17801 0.94391,-0.46181 0.32753,-0.44535 0.64253,-0.95341 0.68157,-1.51681 -0.0549,-0.34983 -0.0242,-1.00167 -0.49308,-1.02052 -0.31661,0.0659 -0.52142,0.34017 -0.64996,0.6179 -0.30633,0.41397 -0.56673,-0.45888 -0.97852,-0.16028 -0.41521,0.1222 -0.80313,0.54732 -1.26396,0.37853 -0.37362,-0.1847 -0.12437,-0.67193 -0.27505,-0.98219 -0.0945,-0.37038 -0.6073,-0.42136 -0.78748,-0.0933 -0.14237,0.22551 -0.25172,0.46905 -0.36622,0.70941 z"
       style="fill:#cccccc;stroke:#cccccc;stroke-width:0.264583px;stroke-linecap:butt;stroke-linejoin:miter;stroke-opacity:1"
       id="path207" />
    <path
       d="m 154.76961,293.87516 c 1.03731,1.19861 2.77826,0.85788 4.1791,1.03599 1.41564,-0.31921 2.82438,-0.53974 4.28156,-0.40765 1.60849,-0.22596 3.1168,0.58973 4.65555,-0.13329 1.33564,0.026 2.69427,0.42834 3.93545,-0.29365 1.54871,0.14441 2.90647,-0.89352 4.41795,-0.69711 -0.10924,0.85231 -2.12336,0.85528 -2.89488,1.49897 -1.40968,0.95322 -3.1429,0.096 -4.68777,0.47346 -1.82406,0.19317 -3.54742,1.13376 -5.41975,0.81463 -1.86856,-0.26799 -3.75193,-0.3772 -5.63551,-0.20797 -2.17107,0.14219 -4.35506,-0.0618 -6.44757,-0.65897 -0.80431,-0.22021 -2.5074,-0.32095 -2.66862,-0.93817 1.21181,-0.47693 2.46021,0.47384 3.7277,0.33316 0.88882,0.0757 2.04275,0.0432 2.55679,-0.8194 z"
       style="fill:#cccccc;stroke:#cccccc;stroke-width:0.264583px;stroke-linecap:butt;stroke-linejoin:miter;stroke-opacity:1"
       id="path215" />
    <path
       d="m 81.796415,232.3995 c 1.999732,-1.1117 0.797816,3.19819 2.235446,4.05547 1.543862,1.74769 0.759918,5.1369 3.160839,5.92247 1.34537,2.06451 2.577403,4.09317 3.654237,6.34087 1.763906,1.7856 3.050166,4.39657 2.313124,6.9387 -0.386013,2.75321 1.617754,4.90568 2.923684,7.08425 1.975818,1.5622 2.162906,4.30581 3.890479,6.03852 1.181986,0.95156 2.984906,2.71167 3.215316,3.66057 -2.12162,-0.82983 -3.252255,-3.18483 -5.017592,-4.65408 -0.970562,-2.31732 -3.74684,-3.25036 -4.557407,-5.70548 -1.203866,-2.72369 -2.689445,-5.33673 -4.343464,-7.79839 -0.884317,-1.79582 -2.409202,-3.31782 -2.485446,-5.43402 -0.732566,-2.61753 -1.58488,-5.22103 -3.119999,-7.49034 -0.986176,-2.20098 -0.917744,-4.70662 -1.767944,-6.97988 -0.139275,-0.65236 -0.122453,-1.31678 -0.101273,-1.97866 z"
       style="fill:#417241;fill-opacity:1;stroke:#417241;stroke-width:0.264583px;stroke-linecap:butt;stroke-linejoin:miter;stroke-opacity:1"
       id="path223" />
    <path
       d="m 160.6773,176.62148 c -4.78562,1.27325 -6.01293,7.97784 -1.97328,10.85274 2.6785,4.72406 5.45633,-1.76884 8.99703,-1.66974 2.07092,-2.22895 4.36498,2.7342 6.4082,-0.52632 1.11473,-0.40351 4.93407,-4.26151 3.73232,-1.14217 -1.91405,0.79494 1.13732,1.76492 -0.65808,2.75437 2.24194,0.51995 9.03388,2.04699 5.48063,5.13016 -3.03496,2.5283 -7.97639,-2.01298 -10.20161,1.75489 -1.73565,0.87463 -3.02828,-0.23105 -4.21265,1.50681 -2.72158,0.35303 -3.03288,2.42126 -0.35809,2.73412 -0.94494,2.27147 3.91731,5.60733 4.80629,2.67064 2.45724,2.50351 5.8045,-3.56594 6.65719,1.07269 -0.58098,2.73898 0.14377,6.7201 -2.46187,7.59984 3.98455,0.52927 5.83179,-4.09204 9.88643,-4.22493 3.91097,0.004 7.6774,1.85536 11.59225,1.00094 2.3299,2.47457 6.23221,3.55474 8.6921,1.42112 3.30114,3.39804 6.95322,-1.93054 10.36647,-1.80514 0.78206,2.04832 3.00108,0.61735 3.63281,1.21 -2.42746,1.74251 1.0529,2.76273 1.80022,0.98486 1.77442,2.88698 3.54521,6.38726 4.90408,9.69609 0.76678,1.53489 1.89738,5.5762 3.0836,5.48394 -0.28888,-3.28262 1.41075,-6.82671 -0.68492,-9.83589 0.0588,-3.64311 0.8225,-7.24137 -0.0206,-10.92642 -0.7547,-1.66381 -0.22559,-7.52613 1.86348,-3.42628 1.22461,0.99967 3.05652,4.71563 2.84591,0.98961 0.39024,-4.1396 -1.99162,-7.74957 -3.22872,-11.5076 -1.2882,-3.92652 -3.51011,-7.34257 -5.47689,-10.91177 -2.31477,-3.4525 -4.25555,-7.1622 -7.20781,-10.14777 -2.36279,-2.90808 -4.79561,-5.64916 -7.47072,-8.22035 -3.10899,-2.26283 -5.77763,-5.13095 -9.24822,-6.85255 -1.86329,-2.0529 -6.97935,-4.21926 -6.06237,0.62411 -0.30648,2.96104 -2.85448,4.15214 -5.02593,5.02482 1.23222,4.41189 -4.97011,2.73424 -6.51402,5.63482 -2.46137,2.34829 -6.38458,2.68448 -9.39476,3.28416 -4.02476,-1.27808 -3.98339,5.64654 -8.43652,5.15694 -2.94749,0.90625 -4.07593,2.69523 -6.11194,4.60926 z"
       style="fill:#d4dc70;fill-opacity:1;stroke:#d4dc70;stroke-width:0.264583px;stroke-linecap:butt;stroke-linejoin:miter;stroke-opacity:1"
       id="path231" />
    <path
       sodipodi:nodetypes="ccccccccccccccccccccccccccccccccccccccccccccccccccccccccccccccccccccccccc"
       d="m 204.26069,153.44946 c -2.05439,-1.78254 -3.6772,-2.77812 -7.13582,-4.45784 -2.27436,-1.5831 -4.97855,-2.468 -7.45709,-3.68218 -2.60033,-1.22253 -5.52765,-1.70829 -8.30345,-2.43306 -1.62729,-0.61313 -5.41297,-1.76166 -3.46581,1.19071 -1.12518,0.0808 -0.7704,0.23681 -0.41428,1.1865 -1.05962,-0.89893 -3.58779,-2.01043 -3.77638,0.0463 -0.9351,0.83661 1.93242,2.84808 0.084,3.59608 -0.74009,1.57034 0.70748,2.45212 2.40748,2.94582 2.01088,1.60549 5.03568,0.15761 6.04936,2.95894 0.75549,1.15906 -2.19644,-1.48173 -2.96247,-0.81293 -1.13139,0.0745 -3.15882,-0.71542 -3.73618,-0.32807 1.85135,0.50811 0.65496,0.63487 -0.33703,0.98126 1.03048,1.20809 -1.51265,0.88439 -1.37261,2.19969 -1.4776,-0.12344 -2.21632,-0.36465 -1.92493,1.5515 -1.09362,1.40279 -2.17609,0.0658 -2.05812,-1.09902 -2.40564,-0.89648 -0.75985,1.10169 -0.47435,1.99421 0.0655,0.86353 -3.30862,2.37803 -1.97768,2.15799 0.89204,2.51616 -4.72811,0.22365 -2.54458,-0.8709 2.79456,0.4704 4.51354,-2.43401 0.79241,-2.22017 -2.27368,-0.98301 -4.64059,-0.5337 -6.9764,-0.88902 -2.68012,-1.35339 -4.43682,1.96159 -6.24018,3.05299 -1.66516,0.0551 0.12994,1.55005 -1.82384,1.2599 -0.0371,0.55233 0.97342,0.69274 0.36264,1.0791 -0.7245,-0.11501 -1.43303,1.11726 -2.04802,1.0658 -0.66436,1.11083 -3.38413,-0.50351 -3.6183,1.8059 -1.78353,0.75987 -0.35631,1.83095 -0.54981,2.47832 -1.07009,0.47861 1.22835,0.28934 -0.51885,1.06274 -0.79894,1.5044 2.19403,-0.57927 0.69739,1.2452 0.0444,1.42289 2.53634,1.03188 3.39591,-0.031 2.22454,-0.32891 2.00547,2.80038 2.28627,3.96707 2.11881,-0.23948 3.64932,-1.94141 3.3185,-4.06754 2.22807,-0.75873 0.6102,-2.42073 -0.18929,-3.36436 0.49641,-2.65647 3.10894,-2.81817 3.92196,-4.90791 2.99542,-0.99924 1.33326,2.1847 -0.16564,2.89511 -1.73769,3.00916 2.49485,4.3945 4.58663,2.95563 1.30061,0.0322 2.30536,0.56505 0.64702,1.00316 0.51209,1.9811 -1.8996,-0.99238 -2.79253,0.49093 -2.09293,0.2239 -0.12642,1.18183 0.65165,1.27395 0.68091,2.15882 -1.67745,2.54678 -2.25518,0.58352 -2.18111,0.44257 1.30027,4.72253 -1.39238,3.94768 -1.02737,0.0737 0.66367,1.3993 -1.1837,0.94128 -1.26266,-1.8909 -2.27981,1.58583 -4.01344,0.0303 -0.0986,2.02245 -2.10117,-1.30136 -3.06548,0.66518 -0.25976,-1.7647 -1.74204,0.55847 -0.53095,1.63524 2.445,1.38924 -2.69252,3.62003 -0.43051,4.34845 -0.26623,2.26109 3.20194,1.38999 4.47192,0.82963 1.21438,1.29525 2.55314,-1.51664 3.96402,0.26443 1.59582,-0.1798 4.33498,-0.36053 5.23842,-0.42538 -2.88671,-1.33219 1.95054,-0.34726 1.24042,-2.37649 1.61568,-0.49592 5.81462,-0.44639 3.06651,-2.66603 2.04864,-0.33952 -0.82562,-3.70653 1.81232,-2.82403 2.01857,1.75053 1.39087,-2.96577 3.47591,-0.8246 1.77994,0.76231 1.58653,-3.35607 3.25845,-0.88641 0.78645,1.0258 1.65718,2.18371 1.90255,0.26709 1.19783,-0.58733 -0.0976,-3.8195 1.89087,-2.18917 -0.41091,-3.7189 2.69132,-0.115 3.92253,0.0513 -0.7874,-1.36486 -1.04911,-2.02996 0.30837,-2.61239 -0.96662,-2.15085 2.00515,0.22512 3.0453,0.002 1.34355,1.07792 2.86382,3.37057 4.52605,3.26399 -0.15251,-2.12041 -0.84253,-3.86562 -1.15333,-5.84924 0.41572,-1.53584 2.50914,2.36212 1.96072,0.0775 -1.46682,-1.2258 1.37709,-0.90455 1.18137,-2.24123 1.53364,1.04603 -0.57787,-2.31278 1.71161,-1.04709 1.29277,-0.13181 4.24065,1.90972 2.54731,-0.48172 1.80166,0.35555 3.62317,-0.92872 4.88859,0.85204 0.19298,1.99451 2.22191,2.17185 2.78262,3.81347 0.85402,-0.43911 2.48205,-1.3045 2.7298,-1.77131 -1.9727,-1.23631 2.11939,-2.54237 -0.51279,-3.84009 -0.19921,-0.93746 1.56299,-0.0781 0.70203,-1.45654 1.13847,-0.16403 2.53783,2.41686 2.04313,0.0844 1.4466,-0.97648 0.40183,-3.98389 -1.05705,-4.52476 -0.33889,-1.1047 -2.49585,-2.46344 -3.50789,-3.00331"
       style="fill:#417241;fill-opacity:1;stroke:#417241;stroke-width:0.264583px;stroke-linecap:butt;stroke-linejoin:miter;stroke-opacity:1"
       id="path239" />
    <path
       sodipodi:nodetypes="cccccccccccccccccccccccccccccccccccccccccccccccccccccccccccccc"
       d="m 149.2732,177.94965 c -1.42899,-0.10289 0.17896,-2.61878 -1.23384,-1.97929 -1.30426,-0.7174 0.31295,-1.77165 0.56011,-2.3494 -0.814,-0.0927 0.38625,-2.47676 -0.82205,-1.36166 -0.44008,0.91046 -1.74749,-0.23605 -1.38524,1.20999 -0.63585,1.17435 0.71171,3.11094 -0.58437,3.81719 -1.09104,-0.59583 -2.52701,1.04683 -2.79718,0.80907 -1.03368,-0.009 -1.46988,2.84999 -3.33686,2.37875 -1.03018,0.60369 -2.84933,3.76005 -3.87929,1.74249 -1.34571,-1.14613 0.30208,2.40664 -1.71226,1.56324 -0.33402,-1.17789 -3.12489,-0.30184 -1.82046,0.47463 -0.48515,1.14367 2.52565,0.41667 1.84139,2.23477 0.67118,1.5166 0.39667,4.2317 -1.14718,5.11227 -1.88885,-0.48983 -3.99613,-0.31831 -5.81122,-1.03854 -1.86344,-0.98382 -1.82773,1.60136 -1.64189,2.8289 0.10041,1.62013 -1.63773,2.99721 -2.03565,3.89276 1.24557,0.72601 -1.4649,3.69082 1.19505,2.71097 1.0662,0.97485 1.91244,3.18492 3.33688,1.29516 1.39358,-0.22898 3.19103,0.67614 3.68536,-0.99824 1.28756,0.73155 1.04538,-1.48364 2.02291,-1.89426 -0.93227,-1.99859 2.25545,-3.68339 4.00514,-4.01931 0.93239,-0.90397 0.43694,-3.65674 2.83217,-2.67312 1.91584,2.35265 3.90135,-2.40717 5.62628,-0.46985 1.23202,1.47584 1.9764,3.52558 3.89035,4.34242 1.74644,-0.47948 2.28978,1.6684 3.39766,2.49736 0.78137,2.31363 -2.52226,2.46497 -3.74172,1.92022 -1.6659,1.06223 1.18146,1.65072 2.24337,2.1699 0.79933,-0.0717 -0.11202,-1.92756 0.96792,-1.77248 0.85839,-0.34854 1.67521,-1.59877 1.82578,-2.48432 -1.62742,-1.05581 0.58668,-1.76559 1.33888,-0.8206 1.05925,-1.25158 -2.89662,-1.65881 -2.81764,-2.41679 1.14928,-0.66783 -2.14587,-0.3422 -2.18809,-1.53975 0.18255,-1.46125 -3.07399,-2.28318 -1.87148,-3.30189 -1.36347,-0.96146 1.04083,-1.16193 1.39332,-1.02707 -0.92683,1.7765 1.97091,-0.0303 1.67072,2.01748 0.63934,1.34877 2.38959,1.03309 3.27966,2.3526 0.96632,0.91809 2.9752,0.84711 1.82483,2.70088 0.45101,1.40833 2.18687,1.82357 2.57699,3.28715 0.92608,-1.06075 3.75482,1.32092 1.65877,0.52514 -1.0583,-0.61418 -2.60383,0.62023 -0.89678,1.09435 -0.29979,1.452 0.96212,0.21286 1.24311,1.18243 1.32475,-0.0123 0.23283,-0.23487 0.0566,-1.06546 1.18963,0.47209 1.14223,-0.0228 1.0481,-0.78883 0.77428,-0.34266 1.53537,0.83687 0.6637,-0.57728 0.0978,-0.56049 1.71978,0.92012 0.71671,-0.25717 -1.2016,-1.00674 -2.4297,-1.43351 -2.82656,-3.04804 0.54064,-0.75043 1.87713,2.04543 1.50287,0.24526 0.0877,-0.74201 -0.84818,-1.74543 0.81703,-1.11526 1.21116,-0.96696 2.6004,1.70666 3.10077,-0.47261 0.85038,-0.51365 3.04233,-1.26782 0.79296,-1.63581 0.32469,-1.03054 -1.48428,-1.1294 0.0129,-2.00488 0.19494,-1.12132 0.27554,-2.48113 1.18729,-3.29254 -0.44859,-1.80897 1.71332,-2.12764 2.9789,-1.29416 -1.05993,0.97165 1.13476,0.47817 0.81505,1.7216 1.08663,0.18143 2.77356,-1.13444 3.1411,-1.76043 -1.61649,0.67833 -1.65156,-1.75254 -3.07503,-0.9716 -1.94652,-0.10164 -3.62497,-1.53638 -5.6891,-0.98894 -2.22221,-0.18118 -4.33567,0.57891 -6.49534,0.68133 -2.65595,0.65142 -3.44962,-2.18977 -5.53662,-2.82212 -1.60458,0.50497 -2.62713,-0.36874 -2.2092,-1.80131 -1.06218,-0.0439 -1.95071,-0.82158 -2.85085,-1.21278 0.81855,-1.0399 0.11233,-1.34913 -0.94998,-1.56818"
       style="fill:#d4dc70;fill-opacity:1;stroke:#d4dc70;stroke-width:0.264583px;stroke-linecap:butt;stroke-linejoin:miter;stroke-opacity:1"
       id="path246" />
    <path
       d="m 134.74846,170.91807 c -0.14659,-0.34445 0.74495,-0.77936 0.43133,-0.1928 -0.26436,0.66216 0.8661,0.45017 0.99325,-0.001 0.30509,-0.34658 0.55618,-0.86324 1.10638,-0.78422 0.36249,-0.0505 1.01558,0.18871 0.55731,0.61186 -0.28813,0.40328 -0.81658,0.51618 -1.07015,0.92586 -0.33397,0.0961 0.3893,0.0525 0.49213,0.0591 0.39975,0.071 1.17615,-0.3185 1.21518,0.3357 -0.11371,0.71605 -0.71321,1.25867 -1.36364,1.51648 -0.15595,0.0621 -0.68609,0.0941 -0.26561,0.24752 0.5107,0.15265 1.1704,0.36457 1.19303,1.01182 -0.10737,0.56667 -0.13582,1.17566 0.39197,1.53548 0.36773,0.47252 0.0633,1.0284 0.0979,1.54983 -0.26773,0.12952 -0.20236,0.60919 0.11279,0.41046 0.39037,-0.4545 0.9832,0.12946 1.10414,0.54814 0.29303,0.60587 -0.42225,0.86135 -0.87896,0.97532 -0.50174,-4.1e-4 -0.289,0.62636 0.0958,0.32403 0.25719,0.27309 -0.53584,0.7245 -0.85641,0.71175 -0.44813,0.13792 -0.92658,0.29732 -1.38342,0.0749 -0.48329,-0.26375 -1.03862,-0.31949 -1.5037,0.0226 -0.42061,0.32125 -0.91851,-0.67129 -1.10085,0.0776 -0.32025,0.73239 -0.97412,-0.22196 -1.47494,0.11194 -0.27305,-0.009 -0.76971,0.73621 -0.70932,0.17719 0.29205,-0.3762 0.91367,-0.39489 1.11706,-0.87581 0.22871,-0.49196 0.85269,-0.34318 1.28804,-0.37997 0.21488,-0.0366 0.7266,-0.29527 0.6412,-0.45055 -0.35566,0.12304 -0.86417,0.12893 -0.87966,-0.34289 -0.32652,-0.0798 -0.91479,0.514 -1.05765,-0.0958 0.0745,-0.58198 0.80783,-0.41503 1.13516,-0.73841 0.28966,-0.21845 0.46681,-0.62076 0.002,-0.71185 0.19142,-0.38484 0.6693,-0.80525 1.15215,-0.80404 0.26696,0.52206 0.62588,-0.0494 0.70133,-0.3997 0.51765,-0.3883 -0.59232,-0.29469 -0.29214,-0.80097 0.23729,-0.32872 -0.0532,-0.82951 -0.40231,-0.42897 -0.30429,0.0784 -0.66988,0.64819 -0.91944,0.46779 0.24567,-0.46729 0.40995,-1.00261 0.81786,-1.37113 0.38154,-0.32683 0.0791,-1.05603 -0.30555,-0.48156 -0.15591,0.19098 -0.54772,0.56662 -0.38661,0.0352 0.20943,-0.25865 0.10086,-0.38766 -0.17921,-0.23728 -0.45842,-0.29837 0.45287,-0.57087 0.69311,-0.66442 0.44163,-0.29371 -0.12819,-0.55489 -0.31122,-0.15396 -0.45076,0.0345 0.23383,-0.55397 0.40269,-0.62155 0.24783,-0.18504 0.15901,-0.62583 0.21756,-0.82265 -0.18246,0.2535 -0.52494,0.43526 -0.61973,0.0297 -0.27844,-0.14641 -0.56783,0.65421 -0.6485,0.2796 0.33037,-0.13821 0.24351,-0.64633 0.64961,-0.67993 z"
       style="fill:#d4dc70;fill-opacity:1;stroke:#d4dc70;stroke-width:0.264583px;stroke-linecap:butt;stroke-linejoin:miter;stroke-opacity:1"
       id="path253" />
    <path
       d="m 130.43467,175.14933 c -0.001,-0.37087 0.50596,-0.13067 0.71403,-0.0876 0.31237,0.0671 0.64973,0.043 0.94858,-0.0662 0.0166,-0.17663 -0.33256,0.0258 -0.43884,-0.13284 -0.30795,-0.20352 0.0895,-0.39167 0.30371,-0.37621 0.28672,-0.0567 0.411,-0.4311 0.71539,-0.42837 0.17528,0.0563 0.27539,0.37709 0.49681,0.1735 0.20912,-0.21244 0.5669,-0.0986 0.51768,0.23207 0.1071,0.29526 0.24857,0.5853 0.18049,0.91112 0.0536,0.36343 -0.33584,0.40287 -0.55275,0.56179 -0.16133,0.15864 -0.31331,0.39445 -0.20439,0.62413 0.033,0.30847 -0.12028,0.60815 -0.31825,0.836 -0.21773,0.25693 -0.39826,0.55602 -0.67087,0.75951 -0.34752,0.24523 -0.7919,-1.2e-4 -1.15462,0.1957 -0.41187,0.17809 -0.68861,0.64073 -1.17162,0.64853 -0.2867,-0.006 -0.63006,-0.0799 -0.79351,-0.33865 -0.13474,-0.37891 0.13375,-0.7602 0.42437,-0.98361 0.26965,-0.19923 0.55124,-0.39231 0.74347,-0.67396 0.0771,-0.1365 0.47957,-0.43936 0.19861,-0.51717 -0.24224,0.091 -0.47192,-0.1151 -0.50371,-0.3505 -0.11749,-0.30271 0.33479,-0.28949 0.3846,-0.52326 -0.15072,0.0113 -0.42355,-0.15166 -0.19442,-0.29586 0.14656,-0.0248 0.28118,-0.0313 0.37524,-0.16809 z"
       style="fill:#d4dc70;fill-opacity:1;stroke:#d4dc70;stroke-width:0.264583px;stroke-linecap:butt;stroke-linejoin:miter;stroke-opacity:1"
       id="path260" />
    <path
       d="m 136.70587,197.55536 c 0.27544,-0.20436 0.55126,-0.40843 0.83508,-0.60109 0.13741,-0.011 0.19234,0.15972 0.3052,0.21366 0.0787,0.0871 0.22998,0.239 0.13863,0.35689 -0.077,0.0348 -0.21476,0.0447 -0.17391,0.16829 0.0323,0.10402 0.15846,0.2035 0.0817,0.3201 -0.11472,0.11024 -0.28441,0.13553 -0.43592,0.16017 -0.13024,0.0196 -0.25046,-0.094 -0.22441,-0.22642 0.0206,-0.12887 -0.0403,-0.27043 -0.1739,-0.3076 -0.11414,-0.0392 -0.23401,-0.067 -0.3525,-0.084 z"
       style="fill:#d4dc70;fill-opacity:1;stroke:#d4dc70;stroke-width:0.264583px;stroke-linecap:butt;stroke-linejoin:miter;stroke-opacity:1"
       id="path267" />
    <path
       d="m 144.76263,193.39076 c -0.40123,0.12017 -0.23669,0.74599 -0.1645,1.06297 0.02,0.31485 0.68325,0.75971 0.14298,0.91058 -0.31641,0.0189 -0.73337,0.14717 -0.68512,0.52132 -0.26227,0.19587 -0.33914,0.53852 -0.10059,0.79332 0.28783,0.30196 0.23127,0.72423 0.0163,1.04758 -0.13736,0.31068 -0.13876,0.70701 0.005,1.01099 0.18456,0.3212 0.56141,0.16696 0.73598,-0.0706 0.30722,-0.17834 0.59887,0.5841 0.78358,0.0978 0.1134,-0.41713 -0.28585,-0.86225 0.01,-1.24539 0.22095,-0.21777 0.2965,-0.56577 -0.0568,-0.68493 -0.11356,-0.33575 0.45609,-0.44177 0.33264,-0.7923 -0.0724,-0.39433 -0.55612,-0.51735 -0.78837,-0.68974 0.0767,-0.33333 0.46213,-0.4962 0.50559,-0.81652 -0.25806,-0.24196 -0.11919,-0.59929 0.1292,-0.78341 0.15201,-0.30442 -2.6e-4,-0.7462 -0.28013,-0.91691 -0.28392,-0.0175 -0.51999,0.31717 -0.58589,0.5552 z"
       style="fill:#d4dc70;fill-opacity:1;stroke:#d4dc70;stroke-width:0.264583px;stroke-linecap:butt;stroke-linejoin:miter;stroke-opacity:1"
       id="path275" />
    <path
       d="m 163.39111,203.7747 c 0.24172,-0.25969 0.62135,-0.26748 0.95031,-0.25793 0.23076,-0.0516 0.49741,-0.0537 0.65693,0.15077 0.18683,0.20406 0.48916,0.13496 0.7086,0.0299 0.22706,-0.1115 0.48524,-0.19543 0.73704,-0.11334 0.22135,0.0452 0.52949,0.23045 0.45691,0.49466 -0.0758,0.17436 -0.28614,0.21466 -0.43877,0.2986 -0.25417,0.11516 -0.53755,0.13558 -0.81132,0.0984 -0.19361,-0.0245 -0.49945,0.0634 -0.51933,-0.22166 -0.14229,-0.232 -0.4453,-0.31326 -0.70356,-0.33211 -0.28752,-0.0162 -0.544,0.14845 -0.8234,0.17276 -0.12674,-0.0101 -0.56046,-0.0704 -0.3525,-0.23614 0.0463,-0.0269 0.10744,-0.0424 0.13909,-0.0839 z"
       style="fill:#d4dc70;fill-opacity:1;stroke:#d4dc70;stroke-width:0.264583px;stroke-linecap:butt;stroke-linejoin:miter;stroke-opacity:1"
       id="path283" />
    <path
       d="m 174.61254,202.94838 c 0.18415,-0.19033 0.47663,-0.31231 0.73104,-0.19189 0.16011,0.12816 0.36592,0.0716 0.38705,-0.14799 0.11215,-0.24252 0.40605,-0.31598 0.65019,-0.27193 0.24158,0.0477 0.49845,-0.0244 0.63291,-0.24156 0.11808,-0.10474 0.16692,-0.26781 0.29232,-0.36029 -0.16801,0.13735 -0.26979,0.32971 -0.3537,0.52554 -0.0952,0.14381 -0.10242,0.33621 0.0606,0.4334 0.18911,0.15327 -0.0435,0.30948 -0.21171,0.25431 -0.20706,0.006 -0.39312,0.13 -0.54036,0.26474 -0.0796,0.15265 -0.12139,0.38489 -0.34185,0.38269 -0.21686,0.003 -0.42603,-0.0727 -0.64185,-0.0904 -0.22114,-0.0344 -0.46078,-0.0911 -0.60772,-0.27255 -0.0846,-0.0589 -0.22235,-0.22565 -0.0569,-0.28408 z"
       style="fill:#d4dc70;fill-opacity:1;stroke:#d4dc70;stroke-width:0.264583px;stroke-linecap:butt;stroke-linejoin:miter;stroke-opacity:1"
       id="path291" />
    <path
       d="m 231.58312,219.76974 c -0.0257,0.63176 0.0303,1.26268 0.0823,1.89137 0.007,0.55034 -0.0752,1.10051 -0.0396,1.65029 0.01,0.29544 0.34673,0.37962 0.58669,0.32535 0.29416,6.1e-4 0.45756,-0.27742 0.55635,-0.51632 0.175,-0.3667 0.32707,-0.83963 0.0796,-1.20969 -0.20514,-0.29479 -0.54476,-0.52445 -0.57805,-0.91197 -0.007,-0.30862 -0.0857,-0.60691 -0.26575,-0.86043 -0.1001,-0.16041 -0.20214,-0.37006 -0.4215,-0.3686 z"
       style="fill:#d4dc70;fill-opacity:1;stroke:#d4dc70;stroke-width:0.264583px;stroke-linecap:butt;stroke-linejoin:miter;stroke-opacity:1"
       id="path299" />
    <path
       sodipodi:nodetypes="csssccsssscsssssssscssssssscsc"
       inkscape:original-d="m 179.96317,187.60641 c 0.44155,0.82963 1.48244,1.19404 2.32683,1.498 0.29653,0.10675 0.66209,0.11082 0.96733,0.19608 0.92309,0.25781 -0.0123,1.15434 0.0872,1.33329 0.0474,0.0852 0.27999,-0.0509 0.33116,-0.0706 0.20667,-0.0797 0.48475,-0.06 0.69718,-0.0706 0.49944,-0.025 1.07851,-0.0325 1.53379,0.20392 0.23574,0.1224 0.43458,0.30592 0.67103,0.42352 0.5417,0.26941 1.09599,0.54382 1.64708,0.78429 0.37292,0.16272 0.71108,0.40449 1.08934,0.56469 0.16641,0.0705 0.34162,0.11981 0.50546,0.19607 0.0766,0.0357 0.20595,0.17333 0.23529,0.0941 0.0598,-0.16157 -0.41816,-0.41382 -0.54903,-0.50979 -0.34765,-0.25494 -0.81981,-0.69137 -1.19391,-0.87841 -0.54388,-0.27193 -1.16608,-0.54152 -1.6558,-0.89409 -0.14157,-0.10193 -0.80856,-0.43194 -0.60131,-0.69018 0.49827,-0.62089 1.5604,-0.28867 2.21354,-0.18039 0.59757,0.0991 1.19776,0.0944 1.78651,0.25882 0.14712,0.0411 0.99339,0.50745 1.08934,0.2196 0.013,-0.0391 0.0377,-0.39872 -0.0174,-0.42352 -0.57999,-0.26098 -1.36188,-0.37288 -1.69937,-0.98036 -0.0996,-0.17927 -0.1234,-0.38755 -0.25273,-0.55685 -0.15101,-0.19768 -1.58636,-0.89963 -1.88238,-0.82351 -0.72854,0.18734 -1.35996,0.75912 -2.10896,0.84704 -0.43473,0.051 -1.07623,0.0486 -1.47279,-0.15686 -0.3709,-0.19218 -0.73057,-0.43083 -1.1242,-0.57254 -0.14884,-0.0536 -0.25226,-0.15956 -0.40087,-0.21175 -0.58038,-0.20383 -0.97796,-0.61041 -1.59145,-0.47239 -0.12385,0.0279 -0.33844,0.39831 -0.28197,0.47718 0.0796,0.11119 -0.46968,0.3545 -0.33315,0.3623"
       inkscape:path-effect="#path-effect309;#path-effect311"
       id="path307"
       d="m 179.96317,187.60641 c 0.175,0.28815 0.40773,0.54107 0.68036,0.73938 0.3584,0.2607 0.77694,0.42311 1.18729,0.59053 0.16476,0.0672 0.32957,0.13589 0.50132,0.18244 0.31417,0.0852 0.64592,0.0948 0.95688,0.19105 0.0615,0.019 0.12243,0.0416 0.17796,0.0743 0.0555,0.0327 0.10579,0.0759 0.14009,0.13047 0.0287,0.0456 0.0456,0.098 0.053,0.1514 0.007,0.0534 0.006,0.1077 -0.001,0.16112 -0.0226,0.1739 -0.0984,0.33779 -0.19865,0.48166 -0.0267,0.0384 -0.0553,0.0756 -0.0778,0.11657 -0.0225,0.041 -0.0389,0.0864 -0.0389,0.13318 0,0.02 0.003,0.0402 0.0112,0.0584 0.008,0.0183 0.0214,0.0345 0.0389,0.0442 0.0144,0.008 0.0311,0.0112 0.0475,0.0107 0.0164,-5.5e-4 0.0326,-0.005 0.0478,-0.011 0.0304,-0.0124 0.0569,-0.0326 0.0849,-0.0498 0.0516,-0.0316 0.10882,-0.0533 0.16723,-0.0692 0.18136,-0.0493 0.37234,-0.0435 0.56026,-0.0467 0.15279,-0.003 0.30542,-0.0115 0.45821,-0.0145 0.30899,-0.006 0.62356,0.0133 0.91428,0.11818 0.14344,0.0517 0.27888,0.12356 0.40943,0.20235 0.18008,0.10867 0.35173,0.23094 0.53289,0.33779 0.52284,0.30838 1.11498,0.48286 1.64383,0.78082 0.38382,0.21624 0.74255,0.50069 1.17268,0.59591 0.0716,0.0159 0.14451,0.0262 0.21462,0.0476 0.0701,0.0214 0.13857,0.055 0.18758,0.10954 0.0239,0.0266 0.0428,0.0577 0.0697,0.0813 0.0134,0.0118 0.0289,0.0216 0.046,0.0268 0.0171,0.005 0.036,0.005 0.0526,-0.001 0.0174,-0.007 0.0314,-0.0214 0.0394,-0.0384 0.008,-0.017 0.0105,-0.0363 0.009,-0.0549 -0.004,-0.0393 -0.0267,-0.0749 -0.0553,-0.10225 -0.0286,-0.0274 -0.0629,-0.0478 -0.0967,-0.0683 -0.13292,-0.081 -0.26173,-0.16861 -0.38643,-0.26173 -0.23354,-0.17439 -0.45245,-0.36774 -0.68629,-0.54173 -0.18223,-0.13559 -0.37333,-0.25925 -0.57165,-0.36997 -0.46299,-0.25848 -0.96507,-0.4465 -1.40872,-0.73692 -0.0763,-0.0499 -0.15066,-0.10279 -0.22661,-0.15327 -0.16709,-0.11104 -0.34303,-0.21149 -0.49024,-0.34779 -0.0296,-0.0274 -0.0583,-0.0566 -0.0797,-0.0908 -0.0215,-0.0342 -0.0355,-0.0741 -0.0336,-0.11447 0.001,-0.0261 0.009,-0.0517 0.0205,-0.0752 0.0115,-0.0235 0.0265,-0.0451 0.0428,-0.0656 0.12035,-0.15203 0.3036,-0.24355 0.49155,-0.29119 0.2519,-0.0638 0.51682,-0.0564 0.7746,-0.0236 0.31486,0.0401 0.62388,0.1171 0.93763,0.16509 0.5416,0.0828 1.09767,0.0793 1.62739,0.21932 0.0776,0.0205 0.15437,0.044 0.23022,0.0702 0.22176,0.0766 0.43509,0.17589 0.65618,0.25441 0.0411,0.0146 0.0827,0.0285 0.12598,0.0339 0.0432,0.005 0.0886,0.002 0.12767,-0.0176 0.0433,-0.0214 0.0758,-0.0604 0.0983,-0.1031 0.0512,-0.0974 0.0535,-0.21848 0.008,-0.31881 -0.0164,-0.0364 -0.0386,-0.07 -0.0638,-0.10093 -0.0642,-0.0786 -0.14804,-0.13962 -0.23856,-0.18545 -0.0905,-0.0458 -0.18778,-0.077 -0.28609,-0.10211 -0.19661,-0.0502 -0.40073,-0.0774 -0.58697,-0.15796 -0.21212,-0.0917 -0.39356,-0.25228 -0.51199,-0.45075 -0.0641,-0.1075 -0.10986,-0.22483 -0.15354,-0.34215 -0.0393,-0.10545 -0.0787,-0.21421 -0.15344,-0.29837 -0.0651,-0.0734 -0.15238,-0.12275 -0.23844,-0.16981 -0.26551,-0.1452 -0.53596,-0.28137 -0.81086,-0.40788 -0.19344,-0.089 -0.39114,-0.17389 -0.60044,-0.21308 -0.0701,-0.0131 -0.14145,-0.0211 -0.21279,-0.0197 -0.17146,0.003 -0.33807,0.0604 -0.4914,0.13718 -0.15332,0.0768 -0.29571,0.1734 -0.44219,0.26257 -0.29778,0.18128 -0.61712,0.33369 -0.95772,0.40808 -0.17572,0.0384 -0.35543,0.0556 -0.53505,0.0651 -0.27702,0.0146 -0.5586,0.0102 -0.82625,-0.0627 -0.13354,-0.0364 -0.26194,-0.0894 -0.38838,-0.14568 -0.37081,-0.16512 -0.72767,-0.35958 -1.08593,-0.5504 -0.13326,-0.071 -0.26678,-0.14148 -0.40062,-0.21138 -0.24365,-0.12724 -0.48903,-0.25276 -0.74644,-0.34916 -0.18653,-0.0699 -0.3798,-0.12435 -0.57776,-0.14639 -0.045,-0.005 -0.0905,-0.008 -0.13562,-0.005 -0.0452,0.004 -0.0902,0.0144 -0.12993,0.0363 -0.056,0.0309 -0.098,0.0815 -0.14002,0.12976 -0.0335,0.0384 -0.0682,0.0763 -0.0944,0.11994 -0.0263,0.0437 -0.0439,0.0943 -0.0396,0.14505 0.003,0.0339 0.0154,0.0673 0.0118,0.10114 -0.002,0.022 -0.0115,0.043 -0.0246,0.0608 -0.0131,0.0178 -0.03,0.0326 -0.0484,0.0449 -0.0478,0.0319 -0.10473,0.0467 -0.15639,0.0718 -0.0258,0.0126 -0.0506,0.028 -0.0708,0.0484 -0.0202,0.0204 -0.0357,0.0462 -0.0406,0.0745 -0.002,0.0131 -0.002,0.0265 -9e-5,0.0396"
       style="fill:#417241;fill-opacity:1;stroke:#417241;stroke-width:0.264583px;stroke-linecap:butt;stroke-linejoin:miter;stroke-opacity:1" />
    <path
       d="m 188.14927,182.01094 c 0.16232,-0.89548 1.33429,-1.43445 2.14392,-1.12822 1.26223,-0.43563 1.21511,2.22181 0.0127,2.48291 0.47116,0.57185 0.59505,0.79379 -0.0899,1.21875 0.62462,0.68379 1.57042,1.32211 2.45982,1.64532 0.86447,0.19781 0.77387,1.62793 1.74818,1.72999 1.27408,0.22486 0.28852,1.97492 1.45532,2.18075 1.06619,-0.23676 0.18556,1.25601 1.26653,1.19115 0.67192,0.73731 0.70751,1.85624 1.52451,2.51547 0.45679,0.81614 -1.06087,-0.0167 -1.255,0.87293 -0.24712,1.11185 -1.38201,0.54171 -2.12173,0.41684 -0.79496,0.0663 -1.71858,-0.052 -2.08182,-0.8601 -0.81485,-0.47661 -0.90028,-1.35522 -0.62892,-2.17 -0.0899,-0.67766 -0.6627,-1.41374 0.37149,-1.59341 0.74781,-0.80135 -1.13175,-1.00536 -1.67862,-1.18271 -0.84484,-0.38018 -1.17149,-1.41992 -2.09766,-1.67891 -0.97259,-0.28355 -1.5313,-1.00999 -1.85739,-1.90526 -1.00595,-0.16207 -0.65217,-1.14106 0.0666,-1.50945 0.0706,-0.30219 -0.25657,-1.16307 0.53135,-0.99245 0.35761,-0.30204 0.22537,-0.82633 0.23069,-1.2336 z"
       style="fill:#0d387c;fill-opacity:1;stroke:#0d387c;stroke-width:0.264583px;stroke-linecap:butt;stroke-linejoin:miter;stroke-opacity:1"
       id="path313" />
    <path
       d="m 197.16028,178.4581 c -0.046,0.25261 0.26724,0.144 0.21524,-0.0564 0.065,-0.18337 0.22684,-0.73564 0.2963,-0.27862 0.0782,0.29072 0.12132,0.61382 -0.10086,0.86179 -0.2327,0.36465 0.30511,0.44942 0.47965,0.63725 0.33305,0.32614 0.78126,0.56555 1.25566,0.55635 0.0118,0.42965 -0.59323,0.54734 -0.57567,0.97825 0.0866,0.28525 0.37435,0.49169 0.38425,0.81131 0.0287,0.3042 0.12956,0.8218 -0.21233,0.95933 -0.30716,-0.0579 -0.51257,-0.34037 -0.77724,-0.48743 -0.3076,-0.0513 -0.46232,0.301 -0.6126,0.51127 -0.19459,-0.0595 -0.29368,-0.46013 -0.35999,-0.68847 -0.0384,-0.28738 -0.32716,-0.39181 -0.46288,-0.61297 -0.22475,-0.27278 -0.51897,-0.47666 -0.53329,-0.87237 -0.1039,-0.29747 -0.0807,-0.91139 0.37484,-0.63213 0.2609,0.2557 0.53893,-0.0211 0.41821,-0.31758 0.10101,-0.29702 -0.36305,-0.46665 -0.3428,-0.61502 0.16734,0.003 0.49625,0.0165 0.56425,-0.0991 -0.29008,-0.1903 -0.76572,-0.0701 -0.94853,-0.41949 0.005,-0.39496 0.60844,-0.47373 0.87596,-0.28208 l 0.0618,0.0462 z"
       style="fill:#0d387c;fill-opacity:1;stroke:#0d387c;stroke-width:0.264583px;stroke-linecap:butt;stroke-linejoin:miter;stroke-opacity:1"
       id="path321" />
    <path
       d="m 207.01664,172.23082 c -0.21981,0.29834 -0.37022,0.66386 -0.69721,0.86661 -0.28149,0.22116 -0.57788,0.45613 -0.94516,0.50246 -0.36373,0.0269 -0.61442,0.38462 -0.50776,0.73572 0.14292,0.6039 0.54057,1.11567 0.97883,1.54032 0.12606,0.0806 0.43847,0.43556 0.37655,0.0838 -0.0418,-0.53939 -0.48399,-0.98654 -0.40586,-1.54343 0.087,-0.22573 0.33978,-0.31862 0.53,-0.44075 0.31927,-0.15729 0.62929,-0.36078 0.81008,-0.67763 0.12042,-0.29989 0.3437,-0.5414 0.46007,-0.8265 0.009,-0.31384 -0.39253,-0.29509 -0.59954,-0.24061 z"
       style="fill:#0d387c;fill-opacity:1;stroke:#0d387c;stroke-width:0.264583px;stroke-linecap:butt;stroke-linejoin:miter;stroke-opacity:1"
       id="path329" />
    <path
       d="m 199.67012,192.24596 c -0.13987,2.08225 -1.57766,4.45184 -3.89708,4.39046 -1.79651,-0.70096 -3.38505,-2.05026 -5.34718,-2.47324 -0.54725,-0.23588 -3.17347,-0.92276 -1.97862,-0.0938 1.85709,-0.24859 2.39658,1.66433 2.2509,3.05079 1.17786,1.10649 3.19899,1.42206 2.84126,3.53567 0.57022,1.92789 3.0563,0.99222 4.33322,1.99607 0.90935,1.21927 1.65529,2.62268 2.92841,3.53434 0.95855,1.23528 2.66654,1.18258 3.807,2.08839 1.50443,0.73158 2.79948,-1.17193 4.18952,0.29904 1.93431,0.98945 3.64834,-0.81855 5.44813,-1.26126 1.53646,-0.28785 2.49134,-1.70296 2.15744,-3.23178 0.16928,-1.70435 -0.45675,-3.22115 -1.44071,-4.58042 -0.63595,-0.84495 -0.43335,-2.4607 0.86182,-1.35035 1.44099,0.189 0.46879,-2.97877 -0.68541,-3.36756 -1.76103,-0.94987 -0.80789,-3.38348 -1.88622,-4.79572 -0.13532,-1.70223 -1.45392,-2.37429 -1.4267,-0.31869 0.34372,2.3042 -2.68517,1.9905 -2.89326,3.83691 -1.20226,1.33442 -3.11668,-0.27816 -4.58965,-0.37418 -1.69346,-0.33935 -3.24642,-3.5072 -4.67287,-0.88467 z"
       style="fill:#815b4a;fill-opacity:1;stroke:#815b4a;stroke-width:0.264583px;stroke-linecap:butt;stroke-linejoin:miter;stroke-opacity:1"
       id="path337" />
    <path
       sodipodi:nodetypes="csssssssscsscsssscssssssssscssssssssscssscsccssssscccsc"
       inkscape:original-d="m 210.67681,178.63849 c -0.0339,0.67181 0.25303,1.2807 0.39216,1.92151 0.11282,0.51962 0.10458,1.07301 0.10458,1.59996 0,0.3003 0.0401,0.6611 -0.13072,0.92547 -0.22687,0.35117 -1.13952,0.8437 -1.11548,1.25486 0.0367,0.62757 0.67727,1.07602 0.87147,1.6627 0.20239,0.61146 -0.0672,1.10922 0.40088,1.74113 0.18352,0.24775 0.35745,0.54519 0.61874,0.72155 0.40682,0.2746 1.10984,-0.20392 1.55122,-0.23528 0.40133,-0.0285 0.84586,0.0708 1.20263,0.25097 0.93007,0.46955 1.49877,1.39885 2.40527,1.8823 0.80852,0.4312 1.67273,0.84904 2.57083,1.06664 0.16809,0.0407 0.35974,0.0272 0.53161,0.0471 0.82223,0.0949 1.64493,0.13215 2.46626,0.23529 1.79936,0.22594 2.45148,0.64692 4.19178,-0.26667 0.56368,-0.29591 1.36642,-1.63579 1.46407,-2.25092 0.10949,-0.68967 -0.10344,-0.7621 0.31373,-1.32545 0.0685,-0.0925 0.0652,-0.2816 0.14815,-0.3843 0.186,-0.23017 0.27937,-0.56452 0.49674,-0.77645 0.71094,-0.69314 1.22538,-0.89592 1.58608,-1.90583 0.30073,-0.84202 -0.22237,-0.80575 -0.64489,-1.49016 -0.0852,-0.13807 -0.0832,-0.30532 -0.13072,-0.45489 -0.0522,-0.16433 -0.34087,-0.52069 -0.44445,-0.69017 -0.25985,-0.4252 -0.17034,-0.94108 -0.41831,-1.37252 -0.26336,-0.45823 -0.57692,-0.88226 -0.86275,-1.31761 -0.13639,-0.20773 -0.35011,-0.38324 -0.48803,-0.60391 -0.19579,-0.31326 -0.28867,-0.68387 -0.50546,-0.99605 -0.0534,-0.0769 -0.11561,-0.0892 -0.17429,-0.14901 -0.19583,-0.19975 -0.37936,-0.53375 -0.52288,-0.76861 -0.0945,-0.15465 -0.22735,-0.37361 -0.27887,-0.53332 -0.0737,-0.22846 -0.13367,-0.76083 -0.27887,-0.95684 -0.23465,-0.31675 -0.52156,-0.60666 -0.79304,-0.89409 -0.4066,-0.43049 -0.6048,-1.19837 -0.8889,-1.70976 -0.29264,-0.52674 -0.80107,-0.87697 -1.26364,-1.24702 -0.0925,-0.074 -0.13453,-0.18782 -0.22658,-0.25882 -0.17347,-0.1338 -0.29868,-0.40651 -0.4183,-0.6039 -0.0761,-0.1256 -0.2285,-0.21666 -0.32245,-0.32941 -0.14604,-0.17525 -0.0554,-0.46372 -0.1743,-0.65096 -0.0842,-0.13268 -0.2672,-0.25617 -0.38344,-0.36077 -0.21064,-0.18955 -0.25053,-0.48437 -0.60132,-0.40784 -0.51297,0.11192 -1.05656,0.50182 -1.10677,1.06664 -0.026,0.29205 0.0371,0.62342 -0.11329,0.89409 -0.34431,0.61982 -1.44837,0.20529 -1.57736,1.48232 -0.11263,1.11499 -0.0174,2.19654 0,3.30971 0.008,0.54086 -0.0133,1.11375 0.0872,1.64702 0.31315,1.6627 0.83545,3.08803 -0.15687,4.65085 -0.14402,0.22683 -0.3034,0.62919 -0.52288,0.76861 -0.59792,0.37984 -1.3464,0.41597 -1.90853,-0.0784 -0.40303,-0.35447 -0.52573,-1.00859 -0.9499,-1.31761 -0.40947,-0.29831 -1.01413,-0.43997 -1.23749,-0.95684 -0.18171,-0.4205 -0.19221,-0.92715 -0.31373,-1.36467 -0.0483,-0.17405 -0.22409,-0.3249 -0.31373,-0.48626 -0.0444,-0.0798 -0.12922,-0.067 -0.20044,-0.11764 -0.35278,-0.25065 -1.52448,-0.70963 -1.94767,-0.48112 -0.11524,0.0622 0.0821,0.71409 -0.0285,0.77935"
       inkscape:path-effect="#path-effect347;#path-effect349"
       id="path345"
       d="m 210.67681,178.63849 c 0.0426,0.42183 0.11315,0.84084 0.21098,1.25337 0.084,0.35402 0.18811,0.70391 0.24512,1.06325 0.0777,0.48971 0.0666,0.98885 0.0447,1.4842 -0.01,0.22201 -0.0244,0.45325 -0.13475,0.64612 -0.0961,0.1679 -0.25499,0.28903 -0.41116,0.40321 -0.21496,0.15716 -0.4386,0.31613 -0.58001,0.54176 -0.0669,0.1067 -0.11376,0.22799 -0.12075,0.35372 -0.008,0.14061 0.0345,0.28043 0.0993,0.40546 0.0648,0.12503 0.15153,0.23718 0.23862,0.34784 0.20604,0.2618 0.42144,0.52769 0.52296,0.845 0.084,0.2625 0.0843,0.54304 0.10451,0.81791 0.0183,0.24955 0.0552,0.50303 0.16726,0.72676 0.0781,0.15591 0.18994,0.29185 0.29085,0.43406 0.0702,0.0989 0.13555,0.20155 0.21338,0.29456 0.0778,0.093 0.16966,0.17708 0.27972,0.22804 0.17371,0.0804 0.3766,0.0711 0.56297,0.0274 0.2934,-0.0688 0.56525,-0.21749 0.86237,-0.26793 0.19771,-0.0336 0.40105,-0.0224 0.59852,0.0126 0.33762,0.0597 0.66194,0.18865 0.95353,0.36901 0.65466,0.40493 1.127,1.05118 1.75939,1.49007 0.19233,0.13348 0.39785,0.24661 0.60292,0.35954 0.75281,0.41457 1.52632,0.83728 2.37699,0.95955 0.19643,0.0282 0.3948,0.04 0.59287,0.0522 0.97195,0.0597 1.94546,0.12959 2.90425,0.29983 0.51784,0.092 1.03447,0.21345 1.56037,0.21913 0.43545,0.005 0.86931,-0.0706 1.28732,-0.1927 0.30855,-0.0901 0.61313,-0.20761 0.87577,-0.39295 0.21088,-0.14882 0.39023,-0.33827 0.55197,-0.53942 0.28915,-0.35961 0.52631,-0.76062 0.70567,-1.18577 0.084,-0.19922 0.15606,-0.40626 0.17665,-0.6215 0.0182,-0.18987 -0.004,-0.38256 0.0234,-0.57131 0.0265,-0.18191 0.0986,-0.3548 0.19046,-0.51402 0.0437,-0.0757 0.092,-0.1489 0.13087,-0.2272 0.0483,-0.0973 0.0814,-0.20132 0.12153,-0.30231 0.10974,-0.27642 0.27278,-0.53125 0.47535,-0.74901 0.26302,-0.28275 0.58849,-0.50042 0.86204,-0.773 0.23233,-0.2315 0.42524,-0.50105 0.58149,-0.78941 0.10401,-0.19196 0.1932,-0.39651 0.2172,-0.61351 0.0175,-0.15828 -0.002,-0.3236 -0.0756,-0.46463 -0.0934,-0.17813 -0.26285,-0.30096 -0.40678,-0.44146 -0.10875,-0.10615 -0.20616,-0.22704 -0.2653,-0.36703 -0.0694,-0.16439 -0.0834,-0.34816 -0.15411,-0.51203 -0.0973,-0.22559 -0.29305,-0.3943 -0.41063,-0.61002 -0.15227,-0.27937 -0.16142,-0.6119 -0.24605,-0.91861 -0.0477,-0.1727 -0.11957,-0.33778 -0.19821,-0.49875 -0.22527,-0.4611 -0.50835,-0.89445 -0.84554,-1.28132 -0.18092,-0.20757 -0.37947,-0.4048 -0.50993,-0.64728 -0.0832,-0.15471 -0.13626,-0.32347 -0.2014,-0.48663 -0.0652,-0.16316 -0.14518,-0.32482 -0.27096,-0.44748 -0.0583,-0.0569 -0.12529,-0.10415 -0.1865,-0.15794 -0.2422,-0.21285 -0.38228,-0.51508 -0.53243,-0.80043 -0.10261,-0.19501 -0.21368,-0.38803 -0.27579,-0.59946 -0.0709,-0.24148 -0.0769,-0.50345 -0.18847,-0.72906 -0.0527,-0.10667 -0.12726,-0.20099 -0.20537,-0.29077 -0.22265,-0.25592 -0.47906,-0.48225 -0.68627,-0.75082 -0.21067,-0.27307 -0.36626,-0.58449 -0.50169,-0.90167 -0.12514,-0.29309 -0.23534,-0.59509 -0.40617,-0.86412 -0.23337,-0.36752 -0.56972,-0.65741 -0.9172,-0.91967 -0.10834,-0.0818 -0.21854,-0.16166 -0.31788,-0.25415 -0.0809,-0.0753 -0.1543,-0.15881 -0.21814,-0.24907 -0.1413,-0.19977 -0.23695,-0.4337 -0.40935,-0.60735 -0.0574,-0.0578 -0.12212,-0.10765 -0.18263,-0.16212 -0.0605,-0.0545 -0.11764,-0.11473 -0.1548,-0.18718 -0.0478,-0.0932 -0.0596,-0.20015 -0.0709,-0.30431 -0.0114,-0.10416 -0.024,-0.21113 -0.0733,-0.3036 -0.0477,-0.0895 -0.12616,-0.15841 -0.20646,-0.22042 -0.0803,-0.062 -0.16496,-0.12 -0.23212,-0.19604 -0.0504,-0.057 -0.0896,-0.12285 -0.13511,-0.18386 -0.0455,-0.061 -0.0992,-0.11873 -0.16825,-0.15073 -0.0622,-0.0288 -0.13309,-0.0348 -0.20115,-0.0269 -0.0681,0.008 -0.13389,0.0288 -0.19836,0.052 -0.16756,0.0602 -0.33044,0.13654 -0.47497,0.24052 -0.14453,0.10398 -0.27053,0.23659 -0.35313,0.39432 -0.0827,0.15783 -0.11982,0.33652 -0.1285,0.51447 -0.006,0.11884 6.8e-4,0.23799 -0.004,0.35688 -0.005,0.11888 -0.0216,0.23927 -0.0711,0.34745 -0.0709,0.15489 -0.20518,0.27426 -0.35531,0.35477 -0.13315,0.0714 -0.27903,0.11496 -0.42227,0.163 -0.14325,0.048 -0.28689,0.10206 -0.40905,0.19095 -0.18694,0.13603 -0.31074,0.34637 -0.37495,0.56847 -0.0629,0.21772 -0.0726,0.4468 -0.0795,0.67333 -0.0335,1.10099 -0.0104,2.20304 0.0351,3.3036 0.0189,0.45652 0.0417,0.91369 0.10674,1.36595 0.11075,0.77025 0.34341,1.52307 0.39172,2.29974 0.0346,0.55665 -0.0295,1.12797 -0.25899,1.63627 -0.10347,0.22914 -0.23885,0.44232 -0.35289,0.66638 -0.11054,0.21719 -0.2055,0.45093 -0.38328,0.61761 -0.0933,0.0875 -0.2056,0.15234 -0.32189,0.20548 -0.35851,0.16383 -0.77559,0.21956 -1.15172,0.10166 -0.3089,-0.0968 -0.57716,-0.30707 -0.76391,-0.57149 -0.10673,-0.15112 -0.18764,-0.31854 -0.27526,-0.48148 -0.0876,-0.16294 -0.18385,-0.324 -0.31518,-0.4543 -0.16304,-0.16176 -0.37156,-0.26796 -0.57487,-0.37478 -0.26456,-0.13901 -0.53608,-0.29199 -0.70552,-0.53817 -0.1225,-0.17799 -0.18184,-0.39161 -0.22208,-0.6039 -0.0602,-0.31758 -0.0829,-0.64443 -0.18837,-0.94997 -0.0622,-0.18002 -0.15771,-0.3562 -0.31202,-0.46781 -0.0645,-0.0467 -0.13725,-0.0806 -0.20878,-0.11562 -0.24189,-0.11855 -0.47673,-0.25414 -0.73102,-0.34301 -0.2804,-0.098 -0.5773,-0.13671 -0.86987,-0.18801 -0.0604,-0.0106 -0.12176,-0.0218 -0.18276,-0.0153 -0.0305,0.003 -0.0607,0.011 -0.0881,0.0249 -0.0273,0.0139 -0.0517,0.0341 -0.0687,0.0597 -0.0186,0.0279 -0.0278,0.0614 -0.0305,0.0948 -0.003,0.0334 6.4e-4,0.0671 0.006,0.10029 0.0122,0.083 0.0336,0.16445 0.0463,0.24741 0.0127,0.0829 0.0162,0.16901 -0.007,0.24965 -0.008,0.0277 -0.019,0.0545 -0.0329,0.0797"
       style="fill:#cccccc;fill-opacity:1;stroke:#cccccc;stroke-width:0.264583px;stroke-linecap:butt;stroke-linejoin:miter;stroke-opacity:1" />
    <path
       d="m 212.88964,163.16143 c 1.35791,0.0646 1.95339,1.5334 3.11392,1.9194 1.39006,0.69972 3.24271,1.21037 3.66759,2.92602 0.44165,1.48764 -1.89534,1.54079 -2.14234,2.9827 -0.21848,1.74152 -2.0493,1.16332 -3.07036,1.01841 -0.14954,1.27423 -0.55628,2.11972 -1.64351,0.867 -1.90151,-0.87705 -1.91225,1.74001 -2.78286,2.75236 -0.54453,1.48118 -0.94306,3.15867 -2.36749,4.09912 -1.45648,0.34412 -3.06271,1.42269 -1.84981,3.01684 0.14208,1.78492 -0.88477,3.71564 -2.56514,4.42731 -1.33248,0.28965 -3.22071,-0.9117 -2.20008,-2.26765 -0.79035,-1.01697 -0.98659,-2.21569 0.42448,-2.75753 1.57724,-1.29361 -0.29177,-2.67204 -0.62543,-3.97454 0.77104,-0.95321 2.3624,-1.04897 3.56559,-1.1879 1.33228,-0.0552 2.67758,-0.50763 3.72133,-1.31768 0.5806,-1.20271 0.59278,-2.78572 -0.008,-3.99307 -0.25945,-1.23215 1.99884,-1.54284 0.68181,-2.97481 -0.17015,-1.43532 2.92663,-1.86289 1.16001,-3.62491 -0.99201,-2.23081 1.588,-2.01741 2.92014,-1.91107 z"
       style="fill:#bcb57e;fill-opacity:1;stroke:#bcb57e;stroke-width:0.264583px;stroke-linecap:butt;stroke-linejoin:miter;stroke-opacity:1"
       id="path351" />
    <path
       d="m 178.27535,207.69904 c -0.43887,1.09675 -1.52227,1.30854 -2.27588,1.56434 0.45036,1.78467 1.35594,3.53729 3.08336,4.36871 1.27667,1.43509 0.3204,-1.1971 0.87186,-1.81158 0.40054,-1.6583 0.52343,0.84429 0.25958,1.36666 1.51794,0.26806 2.12497,1.96223 3.16904,2.97639 1.73789,0.46446 0.85279,2.9461 2.83394,2.83062 1.00728,1.31112 1.81889,2.75502 2.08087,4.25801 0.94047,1.2986 3.06753,1.33144 3.39482,3.17171 1.24515,1.01895 2.48598,2.00869 2.91437,3.70351 1.06822,1.30454 0.64179,3.41395 1.97346,4.38083 1.34042,-0.71777 3.0216,-1.60595 4.24127,-2.75437 0.79638,-1.88394 3.22396,-1.79015 4.51916,-3.04287 1.0484,-1.32622 0.89054,-3.23636 2.06802,-4.31611 1.25757,-0.52235 2.20987,-1.37673 2.00947,-2.81397 1.826,-0.0469 0.37013,-2.30779 2.00238,-2.53513 0.006,-1.24221 -0.50003,-2.53922 0.55296,-3.59606 0.0795,-1.2441 1.11014,-3.58032 -1.02557,-3.35428 -1.09964,-0.9967 -3.53004,-0.54155 -3.56316,-2.7148 -1.34046,-0.41985 -0.45525,2.40825 -1.75979,2.88895 -0.27181,1.4081 -1.97933,1.182 -2.90138,1.77995 -0.33431,-0.64461 -0.22718,-3.53639 -1.52699,-2.69831 -0.0262,0.66884 0.64778,2.5288 -0.28269,1.05387 -0.43964,-0.5986 -0.62662,-0.66792 -0.5696,-1.38795 -1.50045,-0.66438 -2.65701,-1.40841 -3.29003,-2.98869 -1.58914,-0.79609 0.78581,-1.65608 -0.33978,-2.56179 -2.04481,0.009 -3.72668,-1.27171 -5.44623,-2.26567 -1.63564,-0.56181 -3.29603,-1.2076 -5.08384,-1.19951 -0.91202,-0.73301 -1.86469,-2.11542 -3.20812,-0.84919 -0.98963,1.01639 -3.15552,2.51743 -1.87834,4.04084 0.18645,1.21563 -1.06667,4.28466 -2.31985,2.34952 -0.17863,-0.0481 -0.37999,0.0203 -0.50331,0.15637 z"
       style="fill:#bcb57e;fill-opacity:1;stroke:#bcb57e;stroke-width:0.264583px;stroke-linecap:butt;stroke-linejoin:miter;stroke-opacity:1"
       id="path365" />
    <path
       d="m 182.05896,214.45381 c 0.36878,1.18225 1.02285,2.04686 2.07603,2.53926 0.35476,1.10827 1.21111,1.95999 2.44285,1.50888 1.38299,0.30098 2.16933,1.85425 2.82993,3.01204 0.63664,1.21755 1.95944,1.86246 2.94817,2.74585 0.66291,1.14949 2.20757,1.57842 2.38303,3.01429 0.231,1.8036 1.72462,3.53269 3.65185,3.42824 1.48689,0.50349 -0.20786,-1.19809 -0.50577,-1.66223 -1.07367,-0.91116 -0.69136,-2.57863 -1.74653,-3.50614 -0.80559,-0.82577 -0.87449,-2.00824 -0.52016,-3.05223 0.17113,-1.14587 0.0369,-2.3112 0.70555,-3.32224 0.62054,-1.21316 -0.0199,-2.82218 -1.36478,-3.17382 -1.16593,0.002 -2.5161,-0.5258 -2.74495,-1.82051 -0.55467,-0.22417 -0.58494,-1.63971 -1.62786,-1.93496 -1.14888,-1.03857 -1.76537,0.68143 -2.31392,1.45584 -0.7061,1.04484 -2.12805,0.92706 -3.19994,0.74186 -0.81378,-0.59825 -2.08681,-2.61474 -2.96686,-1.00628 -0.10835,0.33016 -0.13602,0.69415 -0.0466,1.03215 z"
       style="fill:#815b4a;fill-opacity:1;stroke:#815b4a;stroke-width:0.264583px;stroke-linecap:butt;stroke-linejoin:miter;stroke-opacity:1"
       id="path373" />
    <path
       d="m 188.54164,195.02261 c 0.31465,0.15091 0.53571,0.49837 0.49448,0.85157 0.0246,0.15471 -0.082,0.28191 -0.11885,0.41127 0.0674,0.1015 0.19579,0.14658 0.30482,0.19122 0.1867,0.0635 0.44771,0.03 0.53825,-0.1678 0.0892,-0.20475 -0.0159,-0.42451 -0.12471,-0.59854 -0.11792,-0.18569 -0.19891,-0.4033 -0.16776,-0.62645 0.0257,-0.14979 -0.0198,-0.32236 -0.17299,-0.38267 -0.12267,-0.0946 -0.29593,-0.0622 -0.38673,0.0608 -0.0772,0.11043 -0.17744,0.21319 -0.31502,0.24095 -0.0171,0.006 -0.0355,0.0139 -0.0515,0.0196 z"
       style="fill:#0d387c;fill-opacity:1;stroke:#0d387c;stroke-width:0.264583px;stroke-linecap:butt;stroke-linejoin:miter;stroke-opacity:1"
       id="path381" />
    <path
       d="m 180.32802,217.41727 c -2.10727,-2.50983 -3.33083,-5.57012 -4.27184,-8.35847 -3.00639,-1.21315 -5.6213,3.09439 -8.75896,0.30875 -2.87705,0.77111 -5.72799,-3.59345 -8.18464,0.0854 0.44426,1.41391 1.03382,4.77198 -1.64848,3.43201 -1.12251,-2.68073 -5.35461,-0.15968 -4.97952,-3.32867 -2.52603,-1.11993 -6.12157,-0.61709 -7.411,-3.24759 2.06363,-0.74325 2.04609,-1.81276 1.20957,-3.35029 1.93033,-1.0294 -0.75885,-1.80423 -1.17819,-1.53995 -3.08535,1.65035 -6.88176,-0.0375 -10.29385,0.91871 -3.09666,0.53565 -6.3857,2.23101 -8.86714,0.71507 -0.92985,3.67654 -7.83823,3.14636 -6.02837,8.05198 -0.73354,2.76727 -5.47688,1.58312 -6.46283,4.54478 -1.11374,2.08615 -2.87171,4.44257 -4.62849,5.94518 0.55741,2.8885 1.58797,5.92848 -0.0174,8.98172 -1.61999,1.26964 0.1139,5.20924 1.303,2.01698 4.34041,-2.90617 4.96701,4.69495 8.72265,5.10237 3.64646,0.3992 6.98158,2.46901 10.7278,2.00587 3.63667,-0.75461 5.71623,3.80028 9.42336,2.70384 3.28347,-0.34831 6.40279,1.03244 9.01708,2.847 3.67488,-0.67102 7.40042,-3.09609 11.16762,-1.59775 4.42914,0.70866 9.03556,-0.22816 13.45834,0.84146 3.74752,0.52462 6.24573,-2.40777 9.34156,-3.07983 3.56127,-0.0156 6.17018,2.22216 9.53154,2.83178 3.10027,-0.99044 3.58919,6.48025 6.32022,2.37248 1.71407,-2.70716 5.53956,-3.14244 6.3209,-6.77749 1.82352,-1.49846 3.09609,-6.31937 1.34119,-7.39534 -1.10608,3.21678 -5.16869,2.10603 -6.85934,4.76964 -1.69405,0.31 -5.00696,-0.49339 -2.87657,-2.13614 -2.34616,-2.06821 -6.27438,-2.14079 -6.88631,-5.63074 -3.7611,-1.92155 -2.47726,-7.11627 -6.66703,-8.89115 0.5257,-1.432 -0.7837,-2.48617 -1.86491,-3.14165 z"
       style="fill:#bcb57e;fill-opacity:1;stroke:#bcb57e;stroke-width:0.264583px;stroke-linecap:butt;stroke-linejoin:miter;stroke-opacity:1"
       id="path389" />
    <path
       sodipodi:nodetypes="ccccccccccccccccccccccc"
       d="m 178.00121,214.98222 c 0.24022,0.95055 1.27003,1.73547 0.90455,2.78863 -0.36822,0.87078 0.846,1.58851 0.0524,2.4423 0.007,1.28205 1.53891,1.95181 1.58081,3.24483 0.23315,0.6828 0.72615,1.26153 0.37395,2.01058 1.22507,0.62591 0.44199,2.07053 0.96417,2.97839 1.06569,0.29908 1.75783,1.03578 2.48273,1.80813 0.97351,0.32938 0.94882,1.7422 1.73202,2.12607 0.76765,-0.86036 2.31824,-0.76434 2.9695,0.19154 0.5873,0.84029 1.83889,0.69211 2.38499,1.57593 0.7415,0.84375 0.57782,2.18409 1.59226,2.8909 0.81202,0.35232 1.66493,0.59392 2.45659,0.99484 1.31873,-0.30072 -0.57703,-1.02861 -0.0134,-1.79152 -0.26889,-0.726 1.36318,-1.39247 -0.17333,-1.70623 -0.95299,-0.57958 -1.817,-1.29507 -2.83282,-1.76472 -0.88719,-0.36015 -1.96108,-0.65632 -2.54896,-1.46382 -0.12393,-0.92368 -0.88593,-1.53235 -1.20667,-2.37219 -0.82315,-0.76427 -2.0624,-1.42523 -2.06755,-2.70248 -0.24638,-1.09534 -1.05878,-1.98915 -1.27517,-3.11412 -0.54149,-0.87834 -1.05866,-1.92966 -2.14093,-2.22635 -1.11201,-0.34922 -0.2532,-1.76044 -1.15896,-2.42681 -0.72238,-0.79202 -1.35894,-1.66041 -2.15714,-2.38132 -0.32791,-1.03354 -1.93167,-0.91981 -1.91881,-1.0702"
       style="fill:#815b4a;fill-opacity:1;stroke:#815b4a;stroke-width:0.264583px;stroke-linecap:butt;stroke-linejoin:miter;stroke-opacity:1"
       id="path408" />
    <path
       d="m 129.89121,205.88706 c 1.83068,-0.62646 4.00677,-1.7218 5.89778,-1.48079 0.18283,2.3427 -2.52346,3.55475 -4.44143,3.95689 -1.36723,0.48949 -0.0313,2.38484 -1.78514,1.66546 -2.87395,0.11829 0.45646,3.90785 -2.41038,3.93353 -1.38424,-0.41667 -3.39006,1.52339 -1.18031,1.69088 -0.50187,1.08983 -1.49459,3.46605 0.77212,3.41708 1.97561,-0.37647 3.92026,-1.03491 5.90686,-1.36194 1.38412,-0.91682 1.43969,1.97189 2.89095,0.54683 1.67685,-1.08638 3.87715,-1.37235 5.77367,-0.7794 0.94783,0.89061 1.32418,3.1806 3.11868,1.91212 1.65121,-0.36348 3.44251,-1.0934 4.96775,-1.34816 -0.34764,1.35491 -1.61688,4.11868 0.43714,4.57269 1.76032,-0.4574 3.39307,-2.19197 4.41802,-3.62949 1.52009,-0.6456 1.11089,2.87918 0.22781,3.5784 -0.95417,1.92805 1.44744,4.11317 2.98107,2.52472 1.43907,-0.30779 1.45225,-3.85436 3.47064,-2.28852 0.72901,0.48866 -0.44068,3.24257 0.14072,1.80976 1.21427,-1.16401 0.94567,1.45782 -0.0483,1.82091 -0.48109,1.44413 -0.0452,3.94301 -2.03386,3.85844 0.38598,2.28164 -2.27591,0.23587 -2.93213,-0.54802 -0.41451,-2.43771 -3.50177,-2.42167 -5.28835,-1.57444 -1.29813,-0.29381 -1.86007,-1.94646 -2.72418,-2.79507 1.29071,-2.04664 -3.38515,-0.70622 -3.45093,-2.73174 -0.68995,-2.18533 -3.55439,-0.32322 -4.40787,-2.60452 -1.63915,-1.76409 -1.45457,2.7364 0.5099,2.04632 2.7226,0.53544 0.70003,4.27466 -1.32902,2.65373 -1.45034,-1.12552 -3.39347,-1.53829 -4.24111,-3.38697 -1.73892,-0.63832 -3.00173,-2.35484 -5.05072,-1.21826 -1.5832,0.2434 -3.6851,1.07888 -4.96499,-0.0835 -1.84521,-0.14126 -2.25814,-1.70546 -2.39596,-3.21924 -1.61124,-0.83551 -3.46418,0.80937 -5.04401,1.28885 -1.03382,1.76632 -1.45694,5.12164 -4.29414,4.64534 -2.47194,-1.88995 1.34264,-3.7536 1.29792,-5.88972 0.99431,-1.66306 3.52741,-1.45681 4.62299,-3.13282 1.21182,-1.14124 2.04897,-2.42404 2.37772,-3.9771 1.74419,-1.13041 3.85904,-1.56094 5.08123,-3.37383 0.95103,-0.0795 2.34979,-1.18621 3.12983,-0.49845 z"
       style="fill:#815b4a;fill-opacity:1;stroke:#815b4a;stroke-width:0.264583px;stroke-linecap:butt;stroke-linejoin:miter;stroke-opacity:1"
       id="path415" />
    <path
       sodipodi:nodetypes="ccccccccccccccccccccccccccc"
       d="m 111.30957,229.38186 c -1.33287,-0.25259 -2.30019,-1.8037 -2.34282,0.81534 -2.10503,1.38821 -0.24769,3.48703 -0.74477,5.51791 1.06721,2.92733 4.09154,4.43763 4.59566,7.51729 0.63884,3.003 4.08907,4.68967 5.94901,7.12201 2.1208,1.06797 5.02941,-1.06076 7.56159,0.62465 3.31487,2.14781 6.03732,-2.89008 9.72738,-0.86565 2.65414,0.29396 3.70164,4.97382 7.31591,2.83494 4.15948,-1.0773 0.70803,7.16918 4.68782,4.09862 2.9807,-1.13686 6.44194,-1.21211 9.60235,-0.70126 3.735,-1.76145 6.78123,3.51036 10.67047,1.26511 3.23765,-0.22268 6.4433,0.16897 9.30783,-1.8352 2.88029,-2.2875 5.62421,1.36191 7.61954,2.58747 2.89744,-0.25351 4.45771,4.50211 7.14026,1.07981 1.9042,-3.0431 3.42179,-6.18707 6.18299,-8.6293 2.6231,-2.25304 4.63922,-5.18038 5.37596,-8.59299 0.48111,-1.33347 3.13084,-5.82609 1.17796,-5.87261 -1.509,3.59175 -5.00609,4.9733 -8.58376,5.8004 -5.01421,1.72803 -4.83333,-4.94648 -8.91244,-5.80979 -3.73347,0.40742 -6.85786,-3.42597 -10.43253,-0.80472 -3.45521,1.78393 -7.65075,2.72039 -11.36559,1.25415 -2.88187,-2.50038 -6.732,1.8475 -9.6077,-0.58927 -3.07028,-2.86688 -7.32753,-3.02458 -11.03381,-1.41466 -3.5269,1.0775 -7.22874,1.10288 -10.76268,0.009 -3.53992,-0.84106 -6.73158,-3.25597 -10.47752,-3.06182 -2.94266,1.79109 -6.39725,-0.1945 -9.29804,-1.09392 -1.19705,0.54696 -2.82585,-0.87304 -3.43554,-1.2795"
       style="fill:#d4dc70;fill-opacity:1;stroke:#d4dc70;stroke-width:0.264583px;stroke-linecap:butt;stroke-linejoin:miter;stroke-opacity:1"
       id="path422" />
    <path
       d="m 149.86245,238.66882 c 0.3919,0.15137 0.64183,0.55387 0.66451,0.96544 0.0538,0.18895 -0.098,0.68263 0.22911,0.58936 0.18564,-0.16362 0.3592,0.0245 0.27115,0.23079 -0.005,0.26645 -0.1028,0.52482 -0.0849,0.79127 0.0204,0.25776 0.32525,0.34977 0.5425,0.29883 0.34926,-0.0805 0.57556,-0.38682 0.80549,-0.63763 0.24182,-0.26805 0.4657,-0.61587 0.84617,-0.68572 0.32632,-0.0111 0.67637,0.11642 0.98491,-0.0452 0.27308,-0.13191 0.076,-0.44505 -0.13886,-0.5059 -0.34323,-0.17988 -0.72282,-0.27326 -1.10483,-0.32379 -0.30127,-0.0504 -0.60042,-0.20931 -0.73769,-0.49371 -0.12529,-0.22183 -0.31501,-0.42371 -0.55356,-0.51854 -0.3118,-0.039 -0.3916,0.38788 -0.68925,0.39803 -0.25113,0.0538 -0.42644,-0.21582 -0.67597,-0.16868 -0.12445,0.014 -0.2455,0.0529 -0.35883,0.10543 z"
       style="fill:#0d387c;fill-opacity:1;stroke:#0d387c;stroke-width:0.264583px;stroke-linecap:butt;stroke-linejoin:miter;stroke-opacity:1"
       id="path429" />
    <path
       d="m 143.22446,251.77056 c -0.15852,1.21603 2.38029,0.30396 1.83916,2.05388 0.4428,1.10644 1.05982,2.01174 0.64273,3.29052 0.52089,0.62607 -0.66105,1.0794 -0.26653,1.84636 -1.61139,1.62594 0.81968,3.12645 1.17235,4.67654 1.74699,0.57133 3.02171,1.70201 3.99944,3.28455 1.67792,1.14349 1.99971,3.12988 2.52299,4.85759 2.00271,0.003 1.51219,-3.16284 3.76353,-2.79781 1.1798,-0.89377 1.94422,-2.34428 3.67608,-2.15008 0.66744,-1.11725 1.98851,-2.47255 2.88775,-0.60386 0.62457,2.03987 3.04967,2.11975 4.64455,1.20138 1.76314,-0.15261 3.59882,-0.49809 5.14205,-1.28711 1.59199,-0.43974 3.2241,-0.85286 4.6566,-1.79812 1.02869,-0.67299 1.53817,-1.89764 0.44968,-2.71443 0.27267,-1.17376 2.21747,-0.73959 2.49563,-2.08924 1.04691,0.83936 2.09246,-0.36397 3.18412,0.10348 0.41119,-0.97714 -0.11424,-2.03362 1.24942,-2.59732 0.67416,-0.49675 2.40509,-0.48452 1.28827,-1.69535 -1.54372,-0.33158 -3.01574,-0.8988 -4.38023,-1.69828 -1.95052,-0.28344 -0.76792,-2.6019 -2.10301,-3.20826 0.75606,-2.1516 -1.99158,-0.88623 -2.79475,-0.17193 -1.00296,0.0742 0.0173,-2.34768 -1.65771,-1.80648 -1.45178,0.1028 -2.61421,-2.97398 -3.68309,-0.4369 -1.52539,1.02524 -3.2564,-1.3734 -4.75557,-0.0488 -1.56409,1.62155 -3.28433,-2.45968 -4.49792,-0.0421 -0.79419,1.56209 -2.35463,2.94317 -4.13426,2.96281 -1.07494,-0.66526 -1.94235,-1.2854 -2.99561,-0.20237 -1.95936,-0.17939 -4.21674,0.1835 -5.99201,-0.5839 -0.27847,-1.64528 -3.82668,-3.34832 -3.54287,-0.64561 -0.0128,1.79542 -4.39601,0.45552 -2.81079,2.30093 z"
       style="fill:#417241;fill-opacity:1;stroke:#417241;stroke-width:0.264583px;stroke-linecap:butt;stroke-linejoin:miter;stroke-opacity:1"
       id="path436" />
    <path
       d="m 193.31666,255.63712 c -0.57179,1.55708 -1.62784,2.94724 -1.84778,4.60186 -0.16962,1.34039 -0.63712,2.69692 0.43907,3.69262 -1.39956,1.94512 1.85129,3.31986 0.88505,5.31558 -0.16807,1.67908 -1.7e-4,3.65639 -2.05364,4.18528 -1.22083,1.4988 -2.8169,2.5163 -4.44257,3.50084 -1.42216,1.00728 -3.24301,2.30119 -1.8308,4.067 -0.24531,2.23947 -3.47451,1.3424 -4.00641,3.28467 0.14307,1.81142 -1.7915,3.12999 -3.38737,3.52658 -2.11245,0.39047 -3.38488,2.60418 -5.70062,2.4593 -2.03823,0.11374 -4.78448,1.34731 -6.36781,-0.3763 -0.60378,-2.03683 -2.68377,-2.38835 -4.38998,-3.07145 -2.0236,-0.35873 -3.02809,-2.14379 -4.13591,-3.65123 -1.17125,-1.44212 -2.19033,-3.19682 -3.79209,-4.19741 -2.11591,-0.93655 -1.32827,-3.77757 0.48857,-4.50571 1.27865,-1.50331 -1.75501,-3.10834 -0.57375,-4.12186 1.18037,-0.14742 -0.38591,-2.40916 1.11025,-2.92992 0.90754,-1.37725 1.17756,-2.8546 -0.22504,-3.94197 -1.30328,-1.02451 -0.95449,-4.17228 1.03322,-2.74235 1.79471,0.61406 0.29235,2.91786 1.93128,3.84855 0.13375,2.51902 3.12397,-0.57593 3.70173,1.53195 1.038,-0.12077 2.66716,-2.7303 3.85523,-0.52572 0.88705,2.21932 3.10672,1.26981 4.57466,0.36716 1.93185,-0.47593 -0.25894,-1.64772 0.29763,-2.30847 1.5419,-1.43934 2.92128,2.16355 4.8542,0.6101 1.69242,-0.17919 2.78574,-1.40963 2.66853,-3.05711 1.92467,-0.7794 1.24772,-2.93697 2.63096,-4.152 -0.2185,-2.34719 4.23273,-1.73978 4.50987,0.0861 2.15771,1.40133 4.71491,0.26068 6.67399,-0.92906 0.97823,-0.40518 2.0436,-0.57823 3.09953,-0.56703 z"
       style="fill:#d4dc70;fill-opacity:1;stroke:#d4dc70;stroke-width:0.264583px;stroke-linecap:butt;stroke-linejoin:miter;stroke-opacity:1"
       id="path449" />
    <path
       d="m 152.37492,276.3895 c 0.12122,1.05782 -1.78007,1.15746 -1.32146,2.08759 0.69783,0.54253 0.55646,1.52755 1.06167,2.11303 0.97502,0.43846 1.75388,1.18105 2.26204,2.11941 0.5988,0.56308 1.39321,1.04159 1.50692,1.94618 0.14455,0.90179 0.8729,1.55774 1.28324,2.33735 0.69963,0.50992 1.39437,1.03201 2.10077,1.53462 0.72904,0.53006 1.6773,0.69257 2.3489,1.29604 0.87548,0.68197 -1.0071,0.70919 -0.30574,1.28744 0.77672,0.61564 1.85579,0.24888 2.76345,0.27221 1.66348,-0.14428 3.32243,-0.48402 4.90043,-1.01152 -0.23438,-0.65679 -1.5979,-0.47777 -2.25597,-0.74291 -1.11865,0.008 -1.38935,-1.24635 -2.21177,-1.76013 -0.72673,-0.67057 -1.37426,-1.50784 -2.39668,-1.73028 -1.45537,-0.43706 -2.86359,-1.0929 -4.03908,-2.06495 -0.53024,-0.55723 -0.90041,-1.24741 -1.45695,-1.7866 -0.89171,-1.07159 -1.44384,-2.46833 -2.68814,-3.21155 -0.97091,-0.31045 -0.79506,-1.33008 -1.05471,-2.09508 -0.10418,-0.23941 -0.2775,-0.44855 -0.49692,-0.59085 z"
       style="fill:#815b4a;fill-opacity:1;stroke:#815b4a;stroke-width:0.264583px;stroke-linecap:butt;stroke-linejoin:miter;stroke-opacity:1"
       id="path456" />
    <path
       d="m 186.58018,249.48827 c -0.2057,0.33991 -0.19465,0.77412 -0.0352,1.12974 0.1057,0.26548 0.32729,0.45816 0.55959,0.61255 0.13472,0.0877 0.26272,0.21776 0.26109,0.38978 0.0193,0.19196 -0.0886,0.37854 -0.0423,0.56852 0.0718,0.20458 0.35321,0.26664 0.53071,0.17023 0.17419,-0.1268 0.15848,-0.37244 0.11598,-0.55989 -0.12189,-0.48948 -0.34445,-0.94651 -0.57753,-1.39116 -0.10345,-0.26631 0.0623,-0.56946 -0.0845,-0.82666 -0.0906,-0.14974 -0.20682,-0.29483 -0.36247,-0.38013 -0.13882,-0.0655 -0.25041,0.0846 -0.31665,0.1871 -0.0191,0.0318 -0.0354,0.0653 -0.0487,0.0999 z"
       style="fill:#0d387c;fill-opacity:1;stroke:#0d387c;stroke-width:0.264583px;stroke-linecap:butt;stroke-linejoin:miter;stroke-opacity:1"
       id="path463" />
    <path
       d="m 180.47116,257.41746 c -0.0583,-0.41698 0.32458,-0.66955 0.66756,-0.77897 0.51902,-0.2976 0.96442,-0.82913 1.60715,-0.82683 0.48915,0.1121 0.95214,0.45295 1.47538,0.24463 0.23807,-0.0486 1.06064,-0.23854 0.8515,0.21328 -0.27779,0.29915 -0.73124,0.33641 -1.00653,0.63167 -0.30367,0.39258 0.23997,0.85813 -0.0135,1.25822 -0.19668,0.22807 -0.96939,0.16854 -0.66379,0.62604 0.21786,0.18429 0.74239,0.2409 0.5957,0.63402 -0.22496,0.43102 -0.79658,0.35099 -1.20105,0.31355 -0.54843,-0.0703 -0.85106,0.47267 -1.26222,0.72444 -0.24346,0.2176 -0.7268,0.46561 -0.92658,0.0633 -0.27654,-0.43728 0.11849,-0.88473 0.1371,-1.33074 0.0727,-0.46632 -0.58957,-0.61565 -0.5154,-1.07552 0.0148,-0.25152 0.12636,-0.48477 0.25468,-0.69705 z"
       style="fill:#0d387c;fill-opacity:1;stroke:#0d387c;stroke-width:0.264583px;stroke-linecap:butt;stroke-linejoin:miter;stroke-opacity:1"
       id="path470" />
    <path
       d="m 176.8807,262.07616 c 0.31575,0.2218 0.39885,0.62854 0.34086,0.9891 -0.0832,0.42095 0.14987,0.75574 0.51847,0.92239 0.0598,0.32949 0.49851,0.60741 0.0172,0.85861 -0.40452,0.42183 0.40403,0.47253 0.65835,0.60837 0.52115,0.11568 0.50262,0.66787 0.54406,1.08395 0.12892,0.44356 0.78055,0.4974 0.80329,0.99978 0.14428,0.44749 -0.44454,0.63233 -0.72877,0.37781 -0.45691,-0.43159 -0.5581,-1.17491 -1.14804,-1.4778 -0.44476,-0.16093 -1.04077,-0.0596 -1.32019,-0.53356 -0.32287,-0.3824 -0.005,-0.79882 0.14173,-1.16907 0.17327,-0.44982 -0.25292,-0.76072 -0.50365,-1.06163 -0.33799,-0.41567 -0.0113,-0.95173 0.33886,-1.23555 0.11812,-0.11542 0.23587,-0.23206 0.33778,-0.3624 z"
       style="fill:#0d387c;fill-opacity:1;stroke:#0d387c;stroke-width:0.264583px;stroke-linecap:butt;stroke-linejoin:miter;stroke-opacity:1"
       id="path478" />
    <path
       d="m 183.65204,268.11522 c 0.0367,-0.26629 0.34099,-0.55177 0.59125,-0.31363 0.36044,0.24513 0.37071,0.72408 0.28402,1.10837 -0.0417,0.25137 -0.16625,0.63673 0.1626,0.74697 0.28451,0.0538 0.42539,0.32842 0.26487,0.58065 -0.0815,0.40198 -0.31806,0.81392 -0.15,1.22673 0.10671,0.38349 0.25057,0.76111 0.28445,1.16073 -0.10203,0.26246 -0.56159,0.25056 -0.69363,0.0209 -0.17087,-0.29165 -0.10611,-0.65573 -0.25975,-0.95053 -0.15738,-0.21239 -0.50308,-0.36438 -0.43514,-0.67969 0.10376,-0.32507 0.39577,-0.53733 0.59101,-0.80361 0.12447,-0.27388 -0.23776,-0.47357 -0.25648,-0.74677 -0.0401,-0.2418 -0.0232,-0.57495 -0.31758,-0.66273 -0.42744,-0.0353 -0.42397,-0.53876 -0.0656,-0.68739 z"
       style="fill:#0d387c;fill-opacity:1;stroke:#0d387c;stroke-width:0.264583px;stroke-linecap:butt;stroke-linejoin:miter;stroke-opacity:1"
       id="path486" />
    <path
       d="m 175.51249,268.89167 c -0.0551,-0.14371 0.0575,-0.27942 0.16931,-0.35611 0.22045,-0.16852 0.49468,-0.28556 0.77551,-0.27965 0.14363,-0.004 0.21281,0.15892 0.1631,0.27917 -0.12019,0.36683 -0.34951,0.69283 -0.62688,0.95836 -0.0949,0.0849 -0.2067,0.17897 -0.3412,0.17542 -0.11973,-0.0228 -0.13998,-0.16143 -0.13212,-0.26256 -0.004,-0.17122 0.0155,-0.34468 -0.008,-0.51463 z"
       style="fill:#0d387c;fill-opacity:1;stroke:#0d387c;stroke-width:0.264583px;stroke-linecap:butt;stroke-linejoin:miter;stroke-opacity:1"
       id="path494" />
    <path
       d="m 198.79822,270.51515 c 0.83737,-0.38229 2.12572,-0.29609 2.46898,-1.34452 0.24493,-0.9528 0.69558,-1.93073 1.62246,-2.39253 0.63753,-0.21573 0.59418,-1.59587 1.14257,-1.35178 0.27748,0.78466 -0.13657,1.60528 0.0436,2.40825 0.18058,0.96511 -1.22877,0.80128 -1.10458,1.84561 -0.33574,1.15227 -1.35558,1.96094 -1.64425,3.13951 -0.68921,1.61046 -2.19312,2.78606 -2.56207,4.55008 -0.27885,0.82235 -1.02815,1.40143 -1.88888,1.48004 -0.7567,0.18689 -1.60083,0.71055 -2.33346,0.16073 -0.65965,-0.3638 -0.3315,-1.04623 0.0487,-1.43281 -0.70485,-0.76106 0.72956,-1.22335 1.16563,-1.73421 0.34507,-0.59368 0.592,-1.32072 0.58726,-2.00053 -0.34992,-0.86962 0.21957,-1.75726 0.84238,-2.33592 0.479,-0.41309 1.03937,-0.72831 1.61168,-0.99192 z"
       style="fill:#d4dc70;fill-opacity:1;stroke:#d4dc70;stroke-width:0.264583px;stroke-linecap:butt;stroke-linejoin:miter;stroke-opacity:1"
       id="path502" />
    <path
       d="m 208.91482,230.25068 c 0.17646,-0.0818 0.38641,-0.0503 0.55417,-0.15636 0.0775,-0.0367 0.15486,-0.093 0.2435,-0.0909 0.10343,0.0246 0.096,0.15746 0.0515,0.23031 -0.11545,0.21595 -0.34023,0.34784 -0.55871,0.441 -0.13512,0.0508 -0.28632,0.11815 -0.42973,0.0549 -0.12233,-0.0519 -0.2262,-0.14673 -0.3008,-0.25541 -0.0705,-0.0814 -0.0335,-0.21502 0.0738,-0.23781 0.12084,-0.029 0.24628,-0.008 0.36629,0.0142 z"
       style="fill:#bcb57e;fill-opacity:1;stroke:#bcb57e;stroke-width:0.264583px;stroke-linecap:butt;stroke-linejoin:miter;stroke-opacity:1"
       id="path510" />
    <path
       d="m 143.45818,189.55444 c 0.25235,-1.0089 1.31277,-2.17321 2.41869,-1.56289 1.00539,0.17495 2.09492,0.4622 3.08572,0.16882 0.92329,-0.52393 1.51373,-1.49472 2.53853,-1.88462 1.24438,-0.84911 2.6687,-1.35617 4.09075,-1.81372 1.33811,-0.61005 2.965,-0.82401 4.265,0.007 1.47266,0.81541 2.87566,1.72985 4.10209,2.88903 0.47293,-1.1285 -0.40994,-2.32539 -1.18504,-3.10158 -1.01563,-0.8012 -2.33747,-1.12774 -3.55731,-1.50336 -1.89089,-0.35409 -3.34394,1.27606 -5.13708,1.53165 -1.72951,0.42179 -3.29012,1.34239 -5.02762,1.72639 -1.63263,0.10595 -3.30967,0.21865 -4.86766,0.74033 -0.96702,0.48364 -1.78244,1.25422 -2.47303,2.06658 -0.77542,1.01328 0.66934,2.21269 1.4045,1.02974 l 0.1955,-0.17128 z"
       style="fill:#417241;fill-opacity:1;stroke:#417241;stroke-width:0.264583px;stroke-linecap:butt;stroke-linejoin:miter;stroke-opacity:1"
       id="path518" />
  </g>
</svg>
