<?xml version="1.0" encoding="UTF-8" standalone="no"?>
<svg
   xmlns:dc="http://purl.org/dc/elements/1.1/"
   xmlns:cc="http://creativecommons.org/ns#"
   xmlns:rdf="http://www.w3.org/1999/02/22-rdf-syntax-ns#"
   xmlns:svg="http://www.w3.org/2000/svg"
   xmlns="http://www.w3.org/2000/svg"
   xmlns:sodipodi="http://sodipodi.sourceforge.net/DTD/sodipodi-0.dtd"
   xmlns:inkscape="http://www.inkscape.org/namespaces/inkscape"
   sodipodi:docname="np-brownie.svg"
   inkscape:version="1.0 (4035a4fb49, 2020-05-01)"
   id="svg8"
   version="1.1"
   viewBox="0 0 158.75 79.375"
   height="300"
   width="600">
  <defs
     id="defs2">
    <inkscape:path-effect
       lpeversion="1"
       is_visible="true"
       id="path-effect2089"
       effect="spiro" />
    <inkscape:path-effect
       simplify_just_coalesce="false"
       simplify_individual_paths="false"
       helper_size="0"
       smooth_angles="360"
       threshold="0.000408163"
       steps="1"
       lpeversion="1"
       is_visible="true"
       id="path-effect2087"
       effect="simplify" />
    <inkscape:path-effect
       lpeversion="1"
       is_visible="true"
       id="path-effect2083"
       effect="spiro" />
    <inkscape:path-effect
       simplify_just_coalesce="false"
       simplify_individual_paths="false"
       helper_size="0"
       smooth_angles="360"
       threshold="0.000408163"
       steps="1"
       lpeversion="1"
       is_visible="true"
       id="path-effect2081"
       effect="simplify" />
    <inkscape:path-effect
       lpeversion="1"
       is_visible="true"
       id="path-effect2077"
       effect="spiro" />
    <inkscape:path-effect
       simplify_just_coalesce="false"
       simplify_individual_paths="false"
       helper_size="0"
       smooth_angles="360"
       threshold="0.000408163"
       steps="1"
       lpeversion="1"
       is_visible="true"
       id="path-effect2075"
       effect="simplify" />
    <inkscape:path-effect
       lpeversion="1"
       is_visible="true"
       id="path-effect2071"
       effect="spiro" />
    <inkscape:path-effect
       simplify_just_coalesce="false"
       simplify_individual_paths="false"
       helper_size="0"
       smooth_angles="360"
       threshold="0.000408163"
       steps="1"
       lpeversion="1"
       is_visible="true"
       id="path-effect2069"
       effect="simplify" />
    <inkscape:path-effect
       lpeversion="1"
       is_visible="true"
       id="path-effect2065"
       effect="spiro" />
    <inkscape:path-effect
       simplify_just_coalesce="false"
       simplify_individual_paths="false"
       helper_size="0"
       smooth_angles="360"
       threshold="0.000408163"
       steps="1"
       lpeversion="1"
       is_visible="true"
       id="path-effect2063"
       effect="simplify" />
    <inkscape:path-effect
       lpeversion="1"
       is_visible="true"
       id="path-effect2059"
       effect="spiro" />
    <inkscape:path-effect
       simplify_just_coalesce="false"
       simplify_individual_paths="false"
       helper_size="0"
       smooth_angles="360"
       threshold="0.000408163"
       steps="1"
       lpeversion="1"
       is_visible="true"
       id="path-effect2057"
       effect="simplify" />
    <inkscape:path-effect
       lpeversion="1"
       is_visible="true"
       id="path-effect2053"
       effect="spiro" />
    <inkscape:path-effect
       simplify_just_coalesce="false"
       simplify_individual_paths="false"
       helper_size="0"
       smooth_angles="360"
       threshold="0.000408163"
       steps="1"
       lpeversion="1"
       is_visible="true"
       id="path-effect2051"
       effect="simplify" />
    <inkscape:path-effect
       lpeversion="1"
       is_visible="true"
       id="path-effect2047"
       effect="spiro" />
    <inkscape:path-effect
       simplify_just_coalesce="false"
       simplify_individual_paths="false"
       helper_size="0"
       smooth_angles="360"
       threshold="0.000408163"
       steps="1"
       lpeversion="1"
       is_visible="true"
       id="path-effect2045"
       effect="simplify" />
    <inkscape:path-effect
       lpeversion="1"
       is_visible="true"
       id="path-effect2041"
       effect="spiro" />
    <inkscape:path-effect
       simplify_just_coalesce="false"
       simplify_individual_paths="false"
       helper_size="0"
       smooth_angles="360"
       threshold="0.000408163"
       steps="1"
       lpeversion="1"
       is_visible="true"
       id="path-effect2039"
       effect="simplify" />
    <inkscape:path-effect
       lpeversion="1"
       is_visible="true"
       id="path-effect2035"
       effect="spiro" />
    <inkscape:path-effect
       simplify_just_coalesce="false"
       simplify_individual_paths="false"
       helper_size="0"
       smooth_angles="360"
       threshold="0.000408163"
       steps="1"
       lpeversion="1"
       is_visible="true"
       id="path-effect2033"
       effect="simplify" />
    <inkscape:path-effect
       lpeversion="1"
       is_visible="true"
       id="path-effect2029"
       effect="spiro" />
    <inkscape:path-effect
       simplify_just_coalesce="false"
       simplify_individual_paths="false"
       helper_size="0"
       smooth_angles="360"
       threshold="0.000408163"
       steps="1"
       lpeversion="1"
       is_visible="true"
       id="path-effect2027"
       effect="simplify" />
    <inkscape:path-effect
       lpeversion="1"
       is_visible="true"
       id="path-effect2023"
       effect="spiro" />
    <inkscape:path-effect
       simplify_just_coalesce="false"
       simplify_individual_paths="false"
       helper_size="0"
       smooth_angles="360"
       threshold="0.000408163"
       steps="1"
       lpeversion="1"
       is_visible="true"
       id="path-effect2021"
       effect="simplify" />
    <inkscape:path-effect
       lpeversion="1"
       is_visible="true"
       id="path-effect2011"
       effect="spiro" />
    <inkscape:path-effect
       simplify_just_coalesce="false"
       simplify_individual_paths="false"
       helper_size="0"
       smooth_angles="360"
       threshold="0.000408163"
       steps="1"
       lpeversion="1"
       is_visible="true"
       id="path-effect2009"
       effect="simplify" />
    <inkscape:path-effect
       lpeversion="1"
       is_visible="true"
       id="path-effect2003"
       effect="spiro" />
    <inkscape:path-effect
       simplify_just_coalesce="false"
       simplify_individual_paths="false"
       helper_size="0"
       smooth_angles="360"
       threshold="0.000408163"
       steps="1"
       lpeversion="1"
       is_visible="true"
       id="path-effect2001"
       effect="simplify" />
    <inkscape:path-effect
       lpeversion="1"
       is_visible="true"
       id="path-effect1995"
       effect="spiro" />
    <inkscape:path-effect
       simplify_just_coalesce="false"
       simplify_individual_paths="false"
       helper_size="0"
       smooth_angles="360"
       threshold="0.000408163"
       steps="1"
       lpeversion="1"
       is_visible="true"
       id="path-effect1993"
       effect="simplify" />
    <inkscape:path-effect
       lpeversion="1"
       is_visible="true"
       id="path-effect1987"
       effect="spiro" />
    <inkscape:path-effect
       simplify_just_coalesce="false"
       simplify_individual_paths="false"
       helper_size="0"
       smooth_angles="360"
       threshold="0.000408163"
       steps="1"
       lpeversion="1"
       is_visible="true"
       id="path-effect1985"
       effect="simplify" />
    <inkscape:path-effect
       lpeversion="1"
       is_visible="true"
       id="path-effect1973"
       effect="spiro" />
    <inkscape:path-effect
       simplify_just_coalesce="false"
       simplify_individual_paths="false"
       helper_size="0"
       smooth_angles="360"
       threshold="0.000408163"
       steps="1"
       lpeversion="1"
       is_visible="true"
       id="path-effect1971"
       effect="simplify" />
    <inkscape:path-effect
       lpeversion="1"
       is_visible="true"
       id="path-effect1965"
       effect="spiro" />
    <inkscape:path-effect
       simplify_just_coalesce="false"
       simplify_individual_paths="false"
       helper_size="0"
       smooth_angles="360"
       threshold="0.000408163"
       steps="1"
       lpeversion="1"
       is_visible="true"
       id="path-effect1963"
       effect="simplify" />
    <inkscape:path-effect
       lpeversion="1"
       is_visible="true"
       id="path-effect1957"
       effect="spiro" />
    <inkscape:path-effect
       simplify_just_coalesce="false"
       simplify_individual_paths="false"
       helper_size="0"
       smooth_angles="360"
       threshold="0.000408163"
       steps="1"
       lpeversion="1"
       is_visible="true"
       id="path-effect1955"
       effect="simplify" />
    <inkscape:path-effect
       lpeversion="1"
       is_visible="true"
       id="path-effect1949"
       effect="spiro" />
    <inkscape:path-effect
       simplify_just_coalesce="false"
       simplify_individual_paths="false"
       helper_size="0"
       smooth_angles="360"
       threshold="0.000408163"
       steps="1"
       lpeversion="1"
       is_visible="true"
       id="path-effect1947"
       effect="simplify" />
    <inkscape:path-effect
       lpeversion="1"
       is_visible="true"
       id="path-effect1941"
       effect="spiro" />
    <inkscape:path-effect
       simplify_just_coalesce="false"
       simplify_individual_paths="false"
       helper_size="0"
       smooth_angles="360"
       threshold="0.000408163"
       steps="1"
       lpeversion="1"
       is_visible="true"
       id="path-effect1939"
       effect="simplify" />
    <inkscape:path-effect
       lpeversion="1"
       is_visible="true"
       id="path-effect1927"
       effect="spiro" />
    <inkscape:path-effect
       simplify_just_coalesce="false"
       simplify_individual_paths="false"
       helper_size="0"
       smooth_angles="360"
       threshold="0.000408163"
       steps="1"
       lpeversion="1"
       is_visible="true"
       id="path-effect1925"
       effect="simplify" />
    <inkscape:path-effect
       lpeversion="1"
       is_visible="true"
       id="path-effect1908"
       effect="spiro" />
    <inkscape:path-effect
       simplify_just_coalesce="false"
       simplify_individual_paths="false"
       helper_size="0"
       smooth_angles="360"
       threshold="0.000408163"
       steps="1"
       lpeversion="1"
       is_visible="true"
       id="path-effect1906"
       effect="simplify" />
    <inkscape:path-effect
       lpeversion="1"
       is_visible="true"
       id="path-effect1900"
       effect="spiro" />
    <inkscape:path-effect
       simplify_just_coalesce="false"
       simplify_individual_paths="false"
       helper_size="0"
       smooth_angles="360"
       threshold="0.000408163"
       steps="1"
       lpeversion="1"
       is_visible="true"
       id="path-effect1898"
       effect="simplify" />
    <inkscape:path-effect
       lpeversion="1"
       is_visible="true"
       id="path-effect1892"
       effect="spiro" />
    <inkscape:path-effect
       simplify_just_coalesce="false"
       simplify_individual_paths="false"
       helper_size="0"
       smooth_angles="360"
       threshold="0.000408163"
       steps="1"
       lpeversion="1"
       is_visible="true"
       id="path-effect1890"
       effect="simplify" />
    <inkscape:path-effect
       lpeversion="1"
       is_visible="true"
       id="path-effect1884"
       effect="spiro" />
    <inkscape:path-effect
       simplify_just_coalesce="false"
       simplify_individual_paths="false"
       helper_size="0"
       smooth_angles="360"
       threshold="0.000408163"
       steps="1"
       lpeversion="1"
       is_visible="true"
       id="path-effect1882"
       effect="simplify" />
    <inkscape:path-effect
       lpeversion="1"
       is_visible="true"
       id="path-effect1876"
       effect="spiro" />
    <inkscape:path-effect
       simplify_just_coalesce="false"
       simplify_individual_paths="false"
       helper_size="0"
       smooth_angles="360"
       threshold="0.000408163"
       steps="1"
       lpeversion="1"
       is_visible="true"
       id="path-effect1874"
       effect="simplify" />
    <inkscape:path-effect
       lpeversion="1"
       is_visible="true"
       id="path-effect1862"
       effect="spiro" />
    <inkscape:path-effect
       simplify_just_coalesce="false"
       simplify_individual_paths="false"
       helper_size="0"
       smooth_angles="360"
       threshold="0.000408163"
       steps="1"
       lpeversion="1"
       is_visible="true"
       id="path-effect1860"
       effect="simplify" />
    <inkscape:path-effect
       lpeversion="1"
       is_visible="true"
       id="path-effect1854"
       effect="spiro" />
    <inkscape:path-effect
       simplify_just_coalesce="false"
       simplify_individual_paths="false"
       helper_size="0"
       smooth_angles="360"
       threshold="0.000408163"
       steps="1"
       lpeversion="1"
       is_visible="true"
       id="path-effect1852"
       effect="simplify" />
    <inkscape:path-effect
       lpeversion="1"
       is_visible="true"
       id="path-effect1846"
       effect="spiro" />
    <inkscape:path-effect
       simplify_just_coalesce="false"
       simplify_individual_paths="false"
       helper_size="0"
       smooth_angles="360"
       threshold="0.000408163"
       steps="1"
       lpeversion="1"
       is_visible="true"
       id="path-effect1844"
       effect="simplify" />
    <inkscape:path-effect
       lpeversion="1"
       is_visible="true"
       id="path-effect1838"
       effect="spiro" />
    <inkscape:path-effect
       simplify_just_coalesce="false"
       simplify_individual_paths="false"
       helper_size="0"
       smooth_angles="360"
       threshold="0.000408163"
       steps="1"
       lpeversion="1"
       is_visible="true"
       id="path-effect1836"
       effect="simplify" />
    <inkscape:path-effect
       lpeversion="1"
       is_visible="true"
       id="path-effect1830"
       effect="spiro" />
    <inkscape:path-effect
       simplify_just_coalesce="false"
       simplify_individual_paths="false"
       helper_size="0"
       smooth_angles="360"
       threshold="0.000408163"
       steps="1"
       lpeversion="1"
       is_visible="true"
       id="path-effect1828"
       effect="simplify" />
    <inkscape:path-effect
       lpeversion="1"
       is_visible="true"
       id="path-effect1822"
       effect="spiro" />
    <inkscape:path-effect
       simplify_just_coalesce="false"
       simplify_individual_paths="false"
       helper_size="0"
       smooth_angles="360"
       threshold="0.000408163"
       steps="1"
       lpeversion="1"
       is_visible="true"
       id="path-effect1820"
       effect="simplify" />
    <inkscape:path-effect
       lpeversion="1"
       is_visible="true"
       id="path-effect1814"
       effect="spiro" />
    <inkscape:path-effect
       simplify_just_coalesce="false"
       simplify_individual_paths="false"
       helper_size="0"
       smooth_angles="360"
       threshold="0.000408163"
       steps="1"
       lpeversion="1"
       is_visible="true"
       id="path-effect1812"
       effect="simplify" />
    <inkscape:path-effect
       lpeversion="1"
       is_visible="true"
       id="path-effect1648"
       effect="spiro" />
    <inkscape:path-effect
       simplify_just_coalesce="false"
       simplify_individual_paths="false"
       helper_size="0"
       smooth_angles="360"
       threshold="0.000408163"
       steps="1"
       lpeversion="1"
       is_visible="true"
       id="path-effect1646"
       effect="simplify" />
    <inkscape:path-effect
       lpeversion="1"
       is_visible="true"
       id="path-effect1640"
       effect="spiro" />
    <inkscape:path-effect
       simplify_just_coalesce="false"
       simplify_individual_paths="false"
       helper_size="0"
       smooth_angles="360"
       threshold="0.000408163"
       steps="1"
       lpeversion="1"
       is_visible="true"
       id="path-effect1638"
       effect="simplify" />
    <inkscape:path-effect
       lpeversion="1"
       is_visible="true"
       id="path-effect1632"
       effect="spiro" />
    <inkscape:path-effect
       simplify_just_coalesce="false"
       simplify_individual_paths="false"
       helper_size="0"
       smooth_angles="360"
       threshold="0.000408163"
       steps="1"
       lpeversion="1"
       is_visible="true"
       id="path-effect1630"
       effect="simplify" />
    <inkscape:path-effect
       lpeversion="1"
       is_visible="true"
       id="path-effect1618"
       effect="spiro" />
    <inkscape:path-effect
       simplify_just_coalesce="false"
       simplify_individual_paths="false"
       helper_size="0"
       smooth_angles="360"
       threshold="0.000408163"
       steps="1"
       lpeversion="1"
       is_visible="true"
       id="path-effect1616"
       effect="simplify" />
    <inkscape:path-effect
       lpeversion="1"
       is_visible="true"
       id="path-effect1610"
       effect="spiro" />
    <inkscape:path-effect
       simplify_just_coalesce="false"
       simplify_individual_paths="false"
       helper_size="0"
       smooth_angles="360"
       threshold="0.000408163"
       steps="1"
       lpeversion="1"
       is_visible="true"
       id="path-effect1608"
       effect="simplify" />
    <inkscape:path-effect
       lpeversion="1"
       is_visible="true"
       id="path-effect1602"
       effect="spiro" />
    <inkscape:path-effect
       simplify_just_coalesce="false"
       simplify_individual_paths="false"
       helper_size="0"
       smooth_angles="360"
       threshold="0.000408163"
       steps="1"
       lpeversion="1"
       is_visible="true"
       id="path-effect1600"
       effect="simplify" />
    <inkscape:path-effect
       lpeversion="1"
       is_visible="true"
       id="path-effect1594"
       effect="spiro" />
    <inkscape:path-effect
       simplify_just_coalesce="false"
       simplify_individual_paths="false"
       helper_size="0"
       smooth_angles="360"
       threshold="0.000408163"
       steps="1"
       lpeversion="1"
       is_visible="true"
       id="path-effect1592"
       effect="simplify" />
    <inkscape:path-effect
       lpeversion="1"
       is_visible="true"
       id="path-effect1580"
       effect="spiro" />
    <inkscape:path-effect
       simplify_just_coalesce="false"
       simplify_individual_paths="false"
       helper_size="0"
       smooth_angles="360"
       threshold="0.000408163"
       steps="1"
       lpeversion="1"
       is_visible="true"
       id="path-effect1578"
       effect="simplify" />
  </defs>
  <sodipodi:namedview
     inkscape:snap-global="false"
     inkscape:document-rotation="0"
     inkscape:window-maximized="0"
     inkscape:window-y="19"
     inkscape:window-x="0"
     inkscape:window-height="1061"
     inkscape:window-width="1920"
     units="px"
     showgrid="false"
     inkscape:current-layer="layer1"
     inkscape:document-units="mm"
     inkscape:cy="146.94092"
     inkscape:cx="304.71899"
     inkscape:zoom="2.8"
     inkscape:pageshadow="2"
     inkscape:pageopacity="0.0"
     borderopacity="1.0"
     bordercolor="#666666"
     pagecolor="#ffffff"
     id="base" />
  <metadata
     id="metadata5">
    <rdf:RDF>
      <cc:Work
         rdf:about="">
        <dc:format>image/svg+xml</dc:format>
        <dc:type
           rdf:resource="http://purl.org/dc/dcmitype/StillImage" />
        <dc:title></dc:title>
      </cc:Work>
    </rdf:RDF>
  </metadata>
  <g
     transform="translate(0,-217.62501)"
     id="layer1"
     inkscape:groupmode="layer"
     inkscape:label="Layer 1">
    <path
       d="m 28.136684,294.1425 c 3.837124,-0.008 7.590754,0.96793 11.394035,1.25048 2.719655,-0.31089 5.364953,-1.10345 8.117629,-1.17401 4.258154,-0.60849 8.515048,-1.22132 12.794237,-1.6535 3.376544,-0.54121 6.854605,-1.20702 10.247558,-0.3991 3.320968,0.66713 3.910477,-3.07461 2.962578,-5.4158 -1.512068,-2.66186 -0.311647,-5.41459 -0.08031,-8.16962 -0.124656,-2.66375 -3.432368,-2.03392 -5.272366,-2.16527 -6.052586,0.0302 -11.93763,1.69024 -17.978539,1.88255 -5.078944,0.45416 -10.149283,1.96519 -15.271477,1.04072 -5.511393,-0.49195 -11.063743,0.0733 -16.481329,1.11229 -2.146469,-0.38728 -5.814137,-0.52652 -5.590672,2.6062 -0.212836,3.13948 0.231926,6.31015 -0.300893,9.42952 0.286581,1.36532 -0.956738,2.32531 0.719444,2.55927 2.004659,-0.31353 3.922667,-1.01943 6.01881,-0.7405 2.888626,-0.0935 5.856529,-0.76818 8.721295,-0.16323 z"
       style="fill:#713425;fill-opacity:1;stroke:#713425;stroke-width:0.264583px;stroke-linecap:butt;stroke-linejoin:miter;stroke-opacity:1"
       id="path1576" />
    <path
       d="m 72.843549,277.89622 c -1.081595,-2.76109 0.0017,-5.919 -1.530682,-8.60825 -1.028137,-2.25448 1.666415,-6.99573 -2.202731,-6.69644 -2.16673,0.15152 -4.26223,0.88073 -6.452053,0.78725 -9.058386,0.74803 -18.326141,0.32962 -27.127452,2.95478 -2.961323,0.4974 -5.983145,0.58341 -8.903393,1.33378 -2.670964,0.39113 -5.371723,0.72763 -8.019191,1.17523 -1.664831,-0.54935 -3.683557,0.0368 -3.318909,2.14711 -0.910971,2.54528 -1.481345,5.18181 -1.947396,7.82331 -1.050379,1.41969 -0.79392,4.29224 1.217194,2.88606 3.200768,-0.32292 6.374192,-0.92489 9.5994,-0.8485 2.970448,-0.25717 5.94616,-0.52374 8.927211,-0.35018 3.370468,-0.22003 6.756959,-1.30885 10.128476,-0.46127 6.091016,0.6668 12.075538,-1.41219 18.169751,-1.00261 3.509242,0.0154 7.008387,-0.45262 10.414969,-1.25622 0.351402,-0.0153 0.705643,0.022 1.044806,0.11595 z"
       style="fill:#cb480b;fill-opacity:1;stroke:#cb480b;stroke-width:0.264583px;stroke-linecap:butt;stroke-linejoin:miter;stroke-opacity:1"
       id="path1590" />
    <path
       d="m 12.650678,282.34267 c 0.356082,4.08868 5.749678,1.20678 8.27847,1.03252 4.426233,-0.73049 8.944048,-0.0747 13.377732,-0.84678 3.424188,-0.0976 6.914108,0.37644 10.267437,-0.58407 4.754513,-0.43497 9.511343,1.0004 14.258412,0.0776 4.389649,-0.68171 8.794309,-1.92391 13.262546,-1.32454 2.794983,-1.03089 0.480544,-4.48033 -1.708938,-2.56311 -2.888286,0.54408 -5.827904,0.81017 -8.693055,1.38126 -2.938312,-0.45321 -5.831979,-0.0232 -8.753578,0.28892 -5.002178,0.0464 -9.999345,0.34728 -14.997921,0.11632 -3.195201,0.32616 -6.421355,0.1647 -9.610751,0.54448 -3.673651,0.98289 -7.542854,0.69246 -11.305564,0.97339 -1.123202,-0.45329 -5.609499,0.5196 -3.968409,0.51606 0.442808,-0.60047 1.53053,-1.57857 1.903386,-0.28572"
       style="fill:#421f16;fill-opacity:1;stroke:#421f16;stroke-width:0.264583px;stroke-linecap:butt;stroke-linejoin:miter;stroke-opacity:1"
       id="path1636" />
    <path
       d="m 9.2317517,269.58069 c -0.207246,2.15007 -0.892426,5.05815 0.678687,6.7287 2.8841193,0.83628 5.9834793,-0.295 8.9401613,0.36893 3.811309,1.1285 7.740846,0.91338 11.661954,0.76819 3.226346,0.51228 6.516616,0.4649 9.75803,0.77045 4.180012,-0.2963 8.352115,0.0626 12.53292,-0.0617 2.855742,0.28444 5.567959,1.74435 8.515924,1.0428 4.346776,0.28247 1.423849,-3.81653 0.456524,-5.70346 -0.833886,-2.46592 1.973183,-6.31342 -0.620183,-7.70332 -5.186477,0.0848 -10.39248,-0.12118 -15.576677,0.27766 -5.33572,-0.12968 -10.535212,-1.9698 -15.910334,-1.40145 -5.052142,0.23928 -10.120878,0.17078 -15.137539,-0.48265 -1.919509,0.4979 -7.5191663,-0.96836 -6.0885113,2.48976 0.367035,0.90581 1.146379,1.88063 0.789044,2.90613 z"
       style="fill:#713425;fill-opacity:1;stroke:#713425;stroke-width:0.264583px;stroke-linecap:butt;stroke-linejoin:miter;stroke-opacity:1"
       id="path1598" />
    <path
       d="m 59.9723,265.45616 c -0.803477,2.41303 -0.316432,4.99215 0.191322,7.41165 0.701696,1.32182 1.066213,2.78088 1.277455,4.2503 0.226789,1.18276 1.634482,1.14896 2.402793,0.78925 0.611157,-1.08199 1.388352,-2.03527 2.157477,-3.0136 0.81095,-0.86653 1.814296,-1.52671 2.624644,-2.40152 1.173072,-1.23755 2.585549,-2.198 3.849785,-3.33039 0.924512,-0.82143 1.592197,-1.87335 2.233174,-2.90955 0.994169,-1.10269 2.070847,-2.19341 2.578278,-3.62387 0.880353,-1.14246 0.472572,-2.43848 -0.228167,-3.51661 -0.784314,-1.63654 -1.447479,-3.38942 -1.424562,-5.22622 -0.167689,-1.23559 -1.490033,-1.10902 -1.895596,-0.0908 -2.812183,2.92938 -6.766781,4.70519 -8.918591,8.26821 -0.808105,1.14183 -2.055944,1.82631 -3.174881,2.60194 -0.475047,0.40216 -1.045054,0.72416 -1.673131,0.7912 z"
       style="fill:#421f16;fill-opacity:1;stroke:#421f16;stroke-width:0.264583px;stroke-linecap:butt;stroke-linejoin:miter;stroke-opacity:1"
       id="path1606" />
    <path
       d="m 8.8606267,267.85286 c -3.489706,-0.64581 0.181285,-5.2716 2.4276843,-3.7203 3.302085,0.77968 6.703391,-0.0314 10.050327,0.14341 9.288151,-0.17303 18.638202,-0.065 27.810063,1.54942 3.778145,0.29096 7.590387,-0.21735 11.285363,-0.94515 4.610611,-1.77782 7.514849,-6.07944 11.637717,-8.63437 2.363348,-0.63113 3.984818,-5.22511 0.296573,-4.47825 -3.083162,0.7052 -6.235839,0.36012 -9.305888,-0.24674 -4.432704,-0.53327 -8.919618,-0.52805 -13.376159,-0.84215 -3.652874,-0.27754 -7.343019,-0.17684 -10.972903,-0.64859 -4.166806,-0.84225 -8.695708,-2.60993 -12.80116,-0.55034 -4.056047,1.46983 -7.318636,4.464 -9.970978,7.7792 -2.379237,2.35597 -5.26782,4.21941 -7.2307273,6.97735 -0.367792,1.19447 0.09513,2.41548 0.150088,3.61651 z"
       style="fill:#cb480b;fill-opacity:1;stroke:#cb480b;stroke-width:0.264583px;stroke-linecap:butt;stroke-linejoin:miter;stroke-opacity:1"
       id="path1614" />
    <path
       d="m 8.7012057,264.17854 c 7e-6,3.85594 4.7280843,2.57009 7.0741773,1.99887 3.391095,-0.96643 6.684499,0.86507 10.110853,0.42883 3.492177,0.11565 6.971736,0.83417 10.476364,0.31286 2.83236,-0.25374 5.670862,0.28317 8.502502,0.27192 2.990806,0.62316 6.07133,1.01098 9.11619,0.63953 1.944904,-0.99582 4.39988,-0.25034 6.180684,-1.65193 1.127679,-2.59366 -3.363993,-0.263 -4.702445,-0.77631 -3.199204,-0.52454 -6.472552,-1.46882 -9.653886,-0.28861 -2.992626,0.77743 -5.60452,-1.31233 -8.545131,-1.302 -3.829253,-0.10926 -7.662803,0.49368 -11.48051,-0.0634 -5.008875,-0.0674 -10.021893,1.26007 -15.01191,0.28099 -0.691411,-0.0343 -1.3887673,0.008 -2.0668883,0.14924 z"
       style="fill:#421f16;fill-opacity:1;stroke:#421f16;stroke-width:0.264583px;stroke-linecap:butt;stroke-linejoin:miter;stroke-opacity:1"
       id="path1628" />
    <path
       d="m 12.805048,294.45921 c -1.074884,-2.38987 0.812986,-4.678 1.946514,-6.63986 1.510088,-1.78862 5.03268,-2.31816 6.185664,0.139 0.914184,2.18497 2.864496,3.52721 4.490068,5.1362 3.138974,1.91585 5.158091,-2.57037 6.795141,-4.5173 2.744064,-2.71697 6.905781,-2.81735 10.404189,-3.94928 2.290575,-1.11546 5.639997,1.10583 3.800973,3.5914 -1.38767,1.28311 -4.475172,3.09609 -1.324135,4.5529 2.910062,1.10673 5.927981,-0.72933 8.604038,-1.67977 2.021617,-1.3288 4.745985,-0.99025 6.915064,-0.18741 -0.31017,2.77343 -4.046456,1.79651 -5.970577,2.4813 -2.34311,1.05045 -4.834677,1.28809 -7.35716,1.4273 -2.955491,0.51542 -6.061792,1.41729 -8.996481,0.28001 -3.169367,-0.66797 -6.415687,0.19239 -9.596056,-0.40087 -2.868827,0.69268 -5.75019,-0.0676 -8.609359,-0.38831 -2.39508,-0.46296 -5.056306,1.26452 -7.200085,0.3789 z"
       style="fill:#612e21;fill-opacity:1;stroke:#612e21;stroke-width:0.264583px;stroke-linecap:butt;stroke-linejoin:miter;stroke-opacity:1"
       id="path1644" />
    <path
       d="m 61.935508,279.2055 c -2.359922,1.22714 -4.33497,-1.16825 -6.55441,-1.38318 -4.000254,-0.14176 -8.017738,1.0128 -12.00958,0.17165 -2.73064,-1.23328 -5.606676,0.15438 -8.376389,-0.45336 -3.013977,-1.41813 -6.465927,-1.42071 -9.643305,-0.60735 -1.636908,0.60842 -4.707102,-0.0305 -3.926249,-2.34535 0.955409,-2.19457 3.69446,-2.66047 5.821313,-2.9047 1.954651,0.46851 4.606322,-1.44251 5.8506,0.84496 1.278844,0.98092 4.009055,2.11916 5.20245,0.88727 -0.638753,-2.46354 1.864577,-2.88055 3.740268,-2.85885 2.980446,0.27569 5.155378,2.71849 7.900752,3.68519 2.138057,1.848 5.096057,-0.10602 7.514943,0.98808 1.660761,1.04159 2.846524,2.9247 4.950591,2.87419 0.156789,0.41689 -0.19168,0.83402 -0.470984,1.10145 z"
       style="fill:#612e21;fill-opacity:1;stroke:#612e21;stroke-width:0.264583px;stroke-linecap:butt;stroke-linejoin:miter;stroke-opacity:1"
       id="path1810" />
    <path
       d="m 17.363198,253.54023 c 1.229529,3.48723 -0.247279,7.01056 -0.446809,10.43976 -1.764345,2.45985 0.01369,5.11881 2.849303,3.73731 2.833108,-1.34282 5.797461,-2.41276 8.976345,-2.41993 2.936894,-0.77987 5.902074,-1.67269 8.999519,-1.26803 2.853006,0.0436 5.58656,-1.24931 8.46945,-1.03531 2.920435,-0.5971 5.858407,-1.02977 8.826084,-1.20363 3.107314,-0.78865 6.164218,-1.67545 9.281489,-2.41208 2.727972,0.16708 5.05917,-1.16855 7.578467,-1.90261 3.280731,-0.64915 0.05645,-4.93765 0.702246,-7.1698 -0.125405,-2.52258 0.25395,-5.17518 0.252706,-7.58095 -3.258088,-0.96819 -6.573047,1.38328 -9.874962,1.64837 -8.120743,0.76114 -15.809572,3.71184 -23.785005,5.26023 -3.559537,1.59663 -7.287921,1.69376 -11.052557,1.12323 -3.746601,0.21378 -7.183393,1.86198 -10.776276,2.78344 z"
       style="fill:#421f16;fill-opacity:1;stroke:#421f16;stroke-width:0.264583px;stroke-linecap:butt;stroke-linejoin:miter;stroke-opacity:1"
       id="path1818" />
    <path
       d="m 18.324506,255.0265 c 0.345283,-1.16769 -0.04492,-2.59679 -1.333951,-2.93604 -1.422843,-1.27851 -1.809298,-3.25683 -2.89924,-4.78046 -0.793537,-1.21901 -1.566766,-2.4519 -2.217459,-3.75179 -0.232699,-1.12536 -0.682759,-0.28599 -0.303941,0.40046 -0.204633,1.57022 -0.139375,3.20384 -0.242012,4.80264 -0.0943,1.38878 -0.356771,3.04192 0.847854,4.05915 1.070459,1.64889 1.224432,3.68146 1.836689,5.51453 0.617945,2.38845 1.569718,4.69825 1.785281,7.17654 -0.459709,1.53993 1.979621,2.25964 2.084618,0.59867 0.02544,-1.98033 -0.437351,-3.97176 -0.02513,-5.944 0.218966,-1.70701 0.104239,-3.45284 0.467291,-5.1397 z"
       style="fill:#713425;fill-opacity:1;stroke:#713425;stroke-width:0.264583px;stroke-linecap:butt;stroke-linejoin:miter;stroke-opacity:1"
       id="path1826" />
    <path
       d="m 73.157448,243.74734 c -2.108091,-2.66499 -4.122041,-6.36418 -7.90335,-6.59958 -3.348318,-0.98477 -6.475477,0.90919 -9.768428,1.16573 -3.393341,0.62014 -6.304673,2.83296 -9.929588,2.17562 -5.183618,0.56168 -10.116663,2.73675 -15.387071,2.79969 -4.768414,0.60818 -9.584027,0.38146 -14.315108,-0.36073 -2.73567,-1.0993 -6.2305543,1.29435 -3.159432,3.75604 2.555597,2.19844 1.997494,7.13532 5.659775,7.83207 4.219555,-2.12623 9.044662,-1.35773 13.552217,-2.25627 4.386189,-0.87335 8.928021,-0.91088 13.226692,-2.28655 3.758726,-0.95605 7.679264,-1.08911 11.318005,-2.60195 4.683798,-1.41607 9.559113,-2.05126 14.309015,-3.12693 0.762952,-0.28654 1.563042,-0.62236 2.397273,-0.49714 z"
       style="fill:#cb480b;fill-opacity:1;stroke:#cb480b;stroke-width:0.264583px;stroke-linecap:butt;stroke-linejoin:miter;stroke-opacity:1"
       id="path1834" />
    <path
       d="m 72.024045,252.48325 c 0.498696,1.84552 1.356273,4.85511 -0.557163,6.0445 -1.784373,0.45553 -3.648408,0.8673 -5.493313,0.65635 -2.383235,-0.29769 -4.289742,1.44386 -6.487884,2.02988 -3.941719,1.38007 -8.201097,1.1736 -12.246858,2.08898 -2.062452,0.13458 -4.553307,0.87812 -6.371265,-0.34852 -0.797804,-1.38782 -0.26284,-3.27423 -2.331665,-3.47077 -2.037203,-1.88605 2.315924,-3.74685 3.984422,-3.70749 1.675216,0.32536 3.655972,0.75393 4.894889,-0.83374 0.553223,-1.77411 4.19833,-1.95072 2.616918,0.41043 -0.761271,2.37803 2.299935,2.2651 3.803673,2.48219 2.179938,0.3901 3.431011,-1.68852 4.665361,-3.08144 1.414845,-0.95303 2.124767,-2.49907 3.184266,-3.77511 1.561622,-1.23092 3.224533,-3.41573 5.329094,-3.13261 1.031988,1.59754 2.759064,1.9642 4.387666,1.29488 1.153208,0.57349 1.345803,2.35329 0.621859,3.34247 z"
       style="fill:#612e21;fill-opacity:1;stroke:#612e21;stroke-width:0.264583px;stroke-linecap:butt;stroke-linejoin:miter;stroke-opacity:1"
       id="path1842" />
    <path
       d="m 11.609487,244.20894 c -0.358203,1.45743 0.366517,2.93767 1.386005,3.95103 0.908054,1.04069 1.514423,2.2876 2.158256,3.49522 0.447297,0.64087 0.974523,1.21805 1.260331,1.95806 0.362208,0.78468 1.09333,1.27883 1.617259,1.94312 0.962921,0.52813 0.792478,-0.92064 0.487947,-1.42428 -0.437163,-1.04626 -1.106478,-1.97384 -1.635229,-2.97382 -0.614575,-0.98825 -1.26556,-1.96291 -1.626953,-3.08027 -0.542548,-1.56088 -2.175797,-2.51647 -2.470072,-4.18976 -0.121082,-0.44522 -0.939383,-1.77006 -1.004686,-0.68801 0.04856,0.35389 -0.09723,0.67237 -0.172858,1.00871 z"
       style="fill:#421f16;fill-opacity:1;stroke:#421f16;stroke-width:0.264583px;stroke-linecap:butt;stroke-linejoin:miter;stroke-opacity:1"
       id="path1850" />
    <path
       d="m 1.5308527,232.01043 c 1.295359,4.05405 0.994001,8.40917 0.572948,12.48202 2.716545,0.97053 5.953837,0.27224 8.8695013,0.88481 5.938528,0.61501 11.877147,1.26385 17.857309,1.15738 6.039109,0.50225 12.24,0.0287 18.091208,1.89865 2.748602,0.26573 5.482521,1.15003 8.210006,0.53319 3.779436,0.44619 3.410694,-3.44259 2.87451,-5.95305 -0.661382,-2.8168 1.538344,-5.78048 0.204443,-8.38402 -3.219535,-1.82337 -7.193627,-1.13996 -10.69547,-2.06666 -4.128658,-1.23306 -8.451513,-0.47585 -12.636323,-1.35038 -4.171676,-0.78408 -8.402894,-1.08963 -12.64125,-0.94968 -4.527655,-0.12973 -8.948243,-1.92983 -13.4964903,-0.99176 -2.415203,0.76289 -6.806063,-0.94862 -7.210392,2.7395 z"
       style="fill:#713425;fill-opacity:1;stroke:#713425;stroke-width:0.264583px;stroke-linecap:butt;stroke-linejoin:miter;stroke-opacity:1"
       id="path1858" />
    <path
       d="m 61.723584,245.80835 c 1.953291,-1.72971 3.970347,-3.42066 6.313395,-4.60247 1.707326,-1.08069 3.097324,-2.5635 4.804414,-3.64256 2.065809,-1.48624 3.539651,-3.9512 3.219652,-6.55782 -0.293117,-2.32347 -0.345342,-4.66446 -0.692396,-6.98079 0.559449,-1.73383 -1.175981,-2.64216 -2.430546,-1.43644 -1.508016,0.82754 -2.318637,2.58907 -4.045631,3.0669 -1.496493,0.79984 -2.391392,2.34324 -3.888817,3.15444 -2.086258,1.23106 -3.41193,3.32195 -5.375144,4.70934 -1.750276,1.02922 -2.241877,3.13436 -1.941117,5.02232 0.206601,2.32922 -0.946431,4.52961 -0.758714,6.86602 0.171653,1.19962 -1.071085,4.11572 1.137067,3.52508 1.538388,-0.6105 2.587177,-1.92495 3.657837,-3.12402 z"
       style="fill:#421f16;fill-opacity:1;stroke:#421f16;stroke-width:0.264583px;stroke-linecap:butt;stroke-linejoin:miter;stroke-opacity:1"
       id="path1872" />
    <path
       d="m 19.866713,220.76573 c -2.453772,0.85559 -4.811339,2.14256 -7.210573,3.18421 -2.62665,2.37138 -6.3782913,2.43206 -9.3455613,4.05937 -0.780895,0.7795 -2.79080403,2.75012 -0.210803,2.14194 2.88399,-1.11918 6.00458,-0.14756 8.9995273,-0.50681 3.021875,-0.31205 6.012374,0.37184 9.007579,0.64638 3.531688,0.84191 7.175235,0.18406 10.746394,0.71664 2.839998,0.19068 5.493546,1.41167 8.34898,1.58345 3.073934,0.6288 6.192573,1.02794 9.333717,0.82528 2.587104,0.37437 5.149114,0.91615 7.673134,1.16956 2.675856,0.0326 3.973327,-2.76234 6.327719,-3.64839 3.192504,-2.08819 5.925639,-4.78678 8.793793,-7.26605 1.336387,-0.50549 4.888474,-2.67457 1.298779,-2.66503 -2.40367,-0.14342 -4.757636,0.96375 -7.170864,0.3452 -3.181966,-0.32759 -6.103095,-2.12134 -9.373582,-1.68702 -2.615479,-0.68512 -5.058307,0.91362 -7.720383,0.4986 -3.402367,-0.21426 -6.802951,-0.50087 -10.213146,-0.27087 -2.507066,-0.0128 -4.869841,-1.83238 -7.371827,-0.65778 -2.19601,-1.11135 -4.267868,0.37486 -6.592821,0.22348 -1.932194,0.068 -3.818084,-0.22187 -5.320062,1.30784 z"
       style="fill:#cb480b;fill-opacity:1;stroke:#cb480b;stroke-width:0.264583px;stroke-linecap:butt;stroke-linejoin:miter;stroke-opacity:1"
       id="path1888" />
    <path
       d="m 78.418841,226.21512 c -0.290021,1.10168 -1.401563,1.68012 -2.09311,2.50948 -1.03732,1.04513 -1.690069,2.45606 -2.959281,3.26953 -1.660284,1.42984 -3.101376,3.14687 -4.058807,5.1271 -0.829417,0.63129 0.01872,1.08111 0.615328,0.55909 1.34175,-0.61383 2.113941,-1.9962 3.429593,-2.65946 1.596052,-0.95452 3.230123,-1.90975 5.006747,-2.48156 1.238014,-0.33909 2.767804,-0.11608 3.696067,-1.16907 1.390003,-1.53978 2.103286,-3.5376 3.448889,-5.11393 0.76165,-1.00875 1.65941,-1.91161 2.32036,-2.98822 0.77877,-1.01942 2.24127,-1.58379 2.50782,-2.93908 3e-4,-1.40616 -1.83051,-0.15028 -2.3902,0.27933 -1.03044,0.82576 -2.18996,1.4472 -3.380803,2.00463 -1.506713,1.03798 -3.726769,1.00477 -4.772242,2.68712 -0.239187,0.49058 -0.709714,1.29514 -1.370361,0.91504 z"
       style="fill:#713425;fill-opacity:1;stroke:#713425;stroke-width:0.264583px;stroke-linecap:butt;stroke-linejoin:miter;stroke-opacity:1"
       id="path1896" />
    <path
       d="m 76.902936,270.50378 c -0.230813,-1.76813 -1.473019,-3.37505 -1.708273,-5.01297 1.605899,-0.0964 3.291728,-0.0871 4.823799,-0.8724 1.840946,-0.85162 3.741489,-1.50221 5.329175,-2.81214 1.29948,-1.37113 3.60622,-1.17724 4.02682,0.86751 0.75421,1.73566 1.01203,3.62681 1.92921,5.30113 0.72902,1.93613 1.63878,3.8467 2.92146,5.47938 1.24043,2.2075 2.17404,4.62743 3.95982,6.47648 1.26897,1.22748 1.39318,3.05787 2.290143,4.48999 1.07955,1.67671 1.92525,3.55202 2.43702,5.44601 1.11826,1.98394 -0.89947,3.68207 -2.67311,4.06753 -1.271133,1.25032 -3.100733,0.32335 -4.449803,1.63375 -1.77724,1.00575 -4.27958,0.94981 -5.85336,-0.4088 -1.28567,-1.672 -2.07513,-3.65616 -2.82558,-5.62012 -1.11469,-1.47651 -1.47725,-3.31292 -2.263543,-4.9325 -1.133353,-1.83346 -1.848963,-3.91712 -3.353669,-5.50234 -1.335963,-1.67099 -1.89131,-3.76857 -2.921564,-5.62599 -0.602734,-0.94943 -0.900152,-2.18617 -1.668545,-2.97452 z"
       style="fill:#421f16;fill-opacity:1;stroke:#421f16;stroke-width:0.264583px;stroke-linecap:butt;stroke-linejoin:miter;stroke-opacity:1"
       id="path1923" />
    <path
       d="m 70.272377,236.89631 c 1.373774,-1.38399 2.975652,-2.56119 4.657218,-3.53829 1.857849,-0.85147 3.884713,-1.26704 5.826657,-1.85347 2.126616,-0.24199 1.663486,2.16864 2.622939,3.25413 1.106633,1.17165 1.344593,2.76893 2.112126,4.14654 0.59203,1.87942 1.05378,3.81247 1.72072,5.66316 0.4375,1.66392 1.09753,3.26208 1.42919,4.957 0.37929,2.22494 1.39557,4.39707 0.97552,6.69771 -0.57653,1.47519 -0.764,3.04965 -0.98597,4.61171 -1.17416,1.09666 -3.08637,1.61695 -4.461893,2.63356 -1.548776,1.10377 -3.354989,1.57406 -5.198266,1.87409 -1.059347,0.25126 -4.239487,1.67966 -3.585504,-0.54561 0.335245,-1.45713 1.24495,-2.90489 0.571635,-4.42099 -0.795664,-1.38424 -1.061583,-2.99193 -1.27504,-4.56598 0.116042,-1.58489 1.644321,-3.07036 0.860604,-4.74861 -0.526521,-1.70351 -1.285816,-3.42188 -2.658809,-4.61443 -0.754112,-1.44127 -1.636756,-2.79992 -2.538405,-4.13005 -0.246819,-1.55392 -1.963949,-3.1525 -1.284839,-4.65071 0.430542,-0.46688 1.309705,-0.64667 1.347702,-1.39085"
       style="fill:#612e21;fill-opacity:1;stroke:#612e21;stroke-width:0.264583px;stroke-linecap:butt;stroke-linejoin:miter;stroke-opacity:1"
       id="path1937" />
    <path
       d="m 89.523207,220.55842 c 2.16222,-1.06186 1.73802,3.83984 3.86219,4.57702 1.12466,2.0653 2.8941,3.64799 4.19732,5.58322 1.80597,3.13006 2.35567,6.85764 4.593673,9.75356 1.63187,2.01166 1.40432,4.73986 2.87679,6.7703 2.32092,1.85952 3.48777,4.35209 3.4462,7.32425 0.79158,2.35276 3.40638,3.83869 2.92283,6.62424 0.98193,2.43978 2.74004,4.57145 3.59918,6.99075 0.30042,2.94499 -3.45359,4.00939 -2.48013,7.17117 -0.93509,1.65824 -1.82486,3.07105 -1.75502,5.04733 -2.59978,1.53008 -3.60316,4.34316 -4.59611,6.59811 -2.10466,0.69902 -1.30527,5.57016 -3.32668,4.98993 -0.32719,-3.1365 -2.6977,-5.46568 -3.353503,-8.51895 -0.83779,-2.45466 -2.25946,-4.56123 -3.79639,-6.62324 -2.5766,-2.32888 -4.06966,-5.33249 -4.95616,-8.64358 -0.34554,-2.57058 -1.89141,-4.60941 -2.81709,-6.94663 0.39833,-1.86716 0.35695,-4.92654 0.81983,-6.39418 1.90591,-1.66282 -1.99864,-3.87016 -1.03735,-6.26764 0.5875,-2.59397 -1.52232,-4.4206 -2.54085,-6.54028 -0.693183,-2.28004 -0.387783,-4.97083 -2.306369,-6.74867 -3.136596,-2.57923 -0.0947,-5.71973 1.398876,-8.25404 1.277373,-2.19603 3.246033,-3.84241 4.876333,-5.7501 l 0.23999,-0.38311 z"
       style="fill:#cb480b;fill-opacity:1;stroke:#cb480b;stroke-width:0.264583px;stroke-linecap:butt;stroke-linejoin:miter;stroke-opacity:1"
       id="path1904" />
    <path
       d="m 10.684189,242.74098 c 0.466319,2.42984 3.460512,1.17956 5.111076,1.72508 1.380062,0.53141 3.851197,-0.23382 4.596524,0.99227 0.315829,2.36317 3.174095,-0.33584 4.540205,-0.34127 1.435804,0.35075 2.919443,0.62382 4.443178,0.47584 2.1033,-0.0795 4.181876,-0.56365 6.287945,-0.23246 1.886834,0.40073 3.792059,0.64158 5.720165,0.79715 2.504673,0.50909 5.106681,0.40873 7.595666,1.05858 2.618515,-0.15761 0.626037,-3.0273 1.309356,-4.23226 1.628979,-1.55338 4.263137,1.22127 5.680288,-0.7481 0.503728,-2.40254 -2.247674,-3.82758 -4.03044,-4.74193 -1.789097,-0.63789 -3.851491,-0.64372 -5.459836,0.46214 -1.336634,0.76836 -2.525096,1.78467 -3.933662,2.42889 -2.119172,0.0606 -3.172934,-2.12605 -4.355724,-3.53104 -1.36988,-1.61503 -3.653769,-2.92793 -5.795364,-2.21993 -2.466401,1.13924 -2.989379,4.34108 -5.519054,5.40537 -2.763767,1.43283 -6.001551,1.73037 -9.062819,1.51965 -2.42483,-0.0693 -3.539723,-2.55139 -5.665925,-3.18633 -1.065507,-0.59777 -4.2797853,0.0856 -2.5066623,1.42257 1.4905613,-0.21466 3.6670643,1.47785 1.3342693,2.18783 -0.245223,0.15487 -0.381577,0.47447 -0.289186,0.75795 z"
       style="fill:#612e21;fill-opacity:1;stroke:#612e21;stroke-width:0.264583px;stroke-linecap:butt;stroke-linejoin:miter;stroke-opacity:1"
       id="path1945" />
    <path
       d="m 64.501095,224.24514 c 1.669764,-0.41382 3.767926,0.6759 2.960815,2.50442 1.612073,1.27916 -1.409013,2.39008 -2.345707,3.16306 -1.53373,1.06822 -2.776336,2.51278 -4.444376,3.39534 -1.147061,1.2436 -2.981129,2.38145 -4.593652,1.21506 -1.421901,-0.94732 -2.858018,-1.98099 -4.633452,-2.08992 -1.922587,-0.40426 -4.183854,0.048 -5.651516,-1.58627 -1.04656,-1.6513 -2.873941,-2.53002 -4.744349,-2.91488 -2.313532,-0.62762 -4.75285,0.31159 -7.050464,-0.30997 -1.907554,-1.21401 -0.209459,-3.31529 1.596068,-3.18403 2.116543,-0.89126 4.021013,0.56909 6.009897,1.04283 1.891749,0.6794 3.683318,-0.24584 5.007623,-1.5621 2.387782,-1.44234 4.803444,-3.12294 7.61834,-3.55969 1.777177,0.21687 3.509141,0.77223 5.326132,0.56236 1.637865,0.41175 2.913107,1.42615 4.736961,0.98107 2.208111,0.38857 0.696414,2.51852 -0.920474,1.72667 -1.521762,0.56632 0.631901,1.06793 1.128154,0.61605 z"
       style="fill:#b7410a;fill-opacity:1;stroke:#b7410a;stroke-width:0.264583px;stroke-linecap:butt;stroke-linejoin:miter;stroke-opacity:1"
       id="path1969" />
    <path
       d="m 88.820247,264.454 c 1.52984,1.54892 1.17605,3.93947 2.00385,5.82822 0.67129,2.3953 2.02281,4.70289 4.22474,5.97797 1.50275,1.59099 2.50362,3.78172 2.98743,5.87007 0.42326,2.56269 1.63477,5.08825 3.665823,6.74619 1.43189,1.03954 0.14259,5.16265 2.61373,3.32811 0.8394,-1.879 1.36186,-3.78598 3.06617,-5.09799 1.22165,-2.06045 0.83191,-4.69782 2.65543,-6.4826 1.52803,-2.48948 -0.66348,-5.5146 0.63182,-8.06955 1.00962,-2.45792 0.471,-5.31592 -0.11609,-7.83424 -0.35947,-2.57681 -3.21771,-3.34347 -4.43478,-0.93989 -1.62559,1.93498 -3.46518,-0.58158 -4.54745,-1.78682 -0.75615,-2.29273 1.29531,-4.58086 0.0273,-6.92538 -0.97707,-3.09782 -1.862983,-6.30773 -3.603153,-9.08369 -1.23097,-1.27922 -2.65091,-3.84471 -4.68759,-3.18976 -1.54373,1.79438 0.86138,4.41514 -0.43312,6.49907 -0.71453,2.37817 -2.38417,3.90661 -3.9931,5.59738 -0.78425,2.14712 -0.70061,4.51702 -1.26743,6.75547 -0.42473,1.31051 1.45159,1.96299 1.20641,2.80744 z"
       style="fill:#b7410a;fill-opacity:1;stroke:#b7410a;stroke-width:0.264583px;stroke-linecap:butt;stroke-linejoin:miter;stroke-opacity:1"
       id="path1983" />
    <path
       d="m 88.155187,275.61699 c 0.94923,-0.96976 1.7816,0.94344 1.6411,1.78126 0.15302,1.60102 0.72707,3.1195 1.06875,4.68203 0.70251,2.08233 2.02525,3.88372 3.31108,5.63943 0.50889,0.90331 1.6958,1.01986 2.1792,1.92663 0.44106,0.73711 0.85675,1.84079 1.88963,1.80145 1.21353,0.37769 0.46743,2.08881 -0.0445,2.82414 -0.60826,0.72003 -1.48678,0.88134 -2.12816,1.53577 -1.65382,0.55575 -3.57336,1.17332 -5.23699,0.30798 -1.14674,-0.55262 -2.15025,-1.54487 -2.3471,-2.85049 -0.19172,-1.26722 -0.91099,-2.31953 -1.50237,-3.41361 -0.27188,-1.01101 -1.02198,-1.74038 -1.50179,-2.63065 -0.40182,-0.99291 -0.492793,-2.12394 -1.191583,-2.98222 -0.435763,-0.88847 -0.956223,-1.91027 -0.781033,-2.91821 0.37405,-0.8595 1.121763,-1.60072 1.006193,-2.61171 0.23816,-1.33045 1.826083,-0.22508 2.623273,-0.18321 0.75894,-0.54384 0.27838,-1.77382 0.78333,-2.53534 0.0634,-0.13214 0.14036,-0.25796 0.23098,-0.37325 z"
       style="fill:#612e21;fill-opacity:1;stroke:#612e21;stroke-width:0.264583px;stroke-linecap:butt;stroke-linejoin:miter;stroke-opacity:1"
       id="path1991" />
    <path
       d="m 71.812935,241.48822 c -2.17992,-0.48082 -1.384961,1.68252 -0.189213,2.35888 1.162047,1.41351 1.282287,3.40671 2.541477,4.76318 0.518392,1.44293 1.870097,2.91587 1.043588,4.5207 -0.992817,1.81442 -0.875763,4.00641 -0.0797,5.87335 0.791598,2.06435 0.777784,4.40736 -0.08788,6.4341 0.569581,1.92502 2.879324,0.13704 4.318828,0.59509 1.72521,-0.13158 2.795233,-1.67234 4.280646,-2.33281 1.148473,-0.36946 2.756856,-0.94638 3.286116,-1.95758 -0.41958,-1.63864 -2.910313,-1.58104 -2.980326,-3.50288 -0.0965,-1.52414 1.770066,-2.35962 1.703666,-3.96561 -0.008,-1.54231 -0.15236,-3.10436 -0.38354,-4.62533 -0.670313,-2.57409 -2.362449,-4.90539 -4.689435,-6.2174 0.372543,1.50868 0.918633,2.94537 1.630756,4.323 0.41871,1.0576 1.012083,4.00826 -0.790003,3.58089 -1.354063,-1.64951 -1.552583,-3.87414 -3.032595,-5.48635 -0.830996,-1.15217 -2.01756,0.033 -1.018763,0.91148 0.145653,1.37158 -1.613887,-0.70805 -1.708589,-1.26433 -0.591977,-1.69917 -1.514055,-3.52293 -3.300733,-4.18603 -0.636606,0.10916 -0.700699,0.22143 -0.297823,-0.43242"
       style="fill:#713425;fill-opacity:1;stroke:#713425;stroke-width:0.264583px;stroke-linecap:butt;stroke-linejoin:miter;stroke-opacity:1"
       id="path1999" />
    <path
       d="m 9.0197437,233.4912 c -2.952705,-0.20265 -0.669274,2.52949 1.1017393,1.84402 2.206986,1.74947 3.728801,-1.19371 0.973916,-1.45037 -0.41402,-0.83073 -1.3601283,-1.16356 -2.0756553,-0.39365 z"
       style="fill:#612e21;fill-opacity:1;stroke:#612e21;stroke-width:0.264583px;stroke-linecap:butt;stroke-linejoin:miter;stroke-opacity:1"
       id="path2007" />
    <path
       d="m 14.627376,254.31008 c 0.195402,1.54942 1.36514,3.31253 1.10369,0.65079 -0.05949,-0.73947 -1.409266,-2.65054 -1.10369,-0.65079 z"
       style="fill:#421f16;fill-opacity:1;stroke:#421f16;stroke-width:0.264583px;stroke-linecap:butt;stroke-linejoin:miter;stroke-opacity:1"
       id="path2019" />
    <path
       d="m 14.541108,269.23934 c 1.307045,1.47747 3.792687,0.3392 1.280435,-0.70913 -0.650298,-0.62126 -1.082558,0.21068 -1.280435,0.70913 z"
       style="fill:#421f16;fill-opacity:1;stroke:#421f16;stroke-width:0.264583px;stroke-linecap:butt;stroke-linejoin:miter;stroke-opacity:1"
       id="path2025" />
    <path
       d="m 29.034689,268.3742 c -1.549806,-0.51368 -3.85661,1.76032 -1.036831,1.07491 0.60778,0.91515 2.120547,-0.57188 1.036831,-1.07491 z"
       style="fill:#612e21;fill-opacity:1;stroke:#612e21;stroke-width:0.264583px;stroke-linecap:butt;stroke-linejoin:miter;stroke-opacity:1"
       id="path2031" />
    <path
       d="m 62.581903,283.92458 c -1.975023,-0.84647 -4.836375,2.38461 -1.197438,1.20975 1.931736,1.23842 5.016698,-1.0784 2.605251,-2.53191 -0.647093,0.2369 -0.903727,0.9127 -1.407813,1.32216 z"
       style="fill:#612e21;fill-opacity:1;stroke:#612e21;stroke-width:0.264583px;stroke-linecap:butt;stroke-linejoin:miter;stroke-opacity:1"
       id="path2037" />
    <path
       d="m 79.702885,260.81525 c -3.902862,1.57412 4.085566,0.90827 0.560767,-0.384 z"
       style="fill:#421f16;fill-opacity:1;stroke:#421f16;stroke-width:0.264583px;stroke-linecap:butt;stroke-linejoin:miter;stroke-opacity:1"
       id="path2043" />
    <path
       d="m 67.425421,270.13775 c -1.319652,0.41255 -5.443821,3.08777 -2.059342,2.47469 0.828076,-0.5924 2.401774,-1.21431 2.059342,-2.47469 z"
       style="fill:#612e21;fill-opacity:1;stroke:#612e21;stroke-width:0.264583px;stroke-linecap:butt;stroke-linejoin:miter;stroke-opacity:1"
       id="path2049" />
    <path
       d="m 71.825254,260.51027 c -3.29606,1.99164 3.694845,0.0621 0.337914,0.0787 z"
       style="fill:#612e21;fill-opacity:1;stroke:#612e21;stroke-width:0.264583px;stroke-linecap:butt;stroke-linejoin:miter;stroke-opacity:1"
       id="path2055" />
    <path
       d="m 32.214399,255.91836 c -2.82528,0.15671 -1.600786,2.18828 0.531214,1.08173 1.866446,-0.73493 0.783502,-1.18983 -0.531214,-1.08173 z"
       style="fill:#612e21;fill-opacity:1;stroke:#612e21;stroke-width:0.264583px;stroke-linecap:butt;stroke-linejoin:miter;stroke-opacity:1"
       id="path2061" />
    <path
       d="m 62.347734,236.91849 c -2.938989,2.03069 2.969678,-0.10836 0.903004,-1.09716 -0.396436,0.27386 -0.610009,0.72955 -0.903004,1.09716 z"
       style="fill:#612e21;stroke:#612e21;stroke-width:0.264583px;stroke-linecap:butt;stroke-linejoin:miter;stroke-opacity:1;fill-opacity:1"
       id="path2067" />
    <path
       d="m 79.254685,227.72007 c -3.724988,0.75273 1.433767,2.42636 1.141997,-0.0465 -0.31403,-0.29865 -0.834877,-0.2189 -1.141997,0.0465 z"
       style="fill:#612e21;fill-opacity:1;stroke:#612e21;stroke-width:0.264583px;stroke-linecap:butt;stroke-linejoin:miter;stroke-opacity:1"
       id="path2073" />
    <path
       d="m 78.749828,237.50913 c -1.439976,1.11194 -1.160303,3.16468 0.642077,1.26165 0.713307,-0.60484 0.27481,-1.60694 -0.642077,-1.26165 z"
       style="fill:#713425;fill-opacity:1;stroke:#713425;stroke-width:0.264583px;stroke-linecap:butt;stroke-linejoin:miter;stroke-opacity:1"
       id="path2079" />
    <path
       d="m 85.787717,267.02613 c -3.436429,2.14951 4.60579,0.32361 0.47854,0.058 z"
       style="fill:#612e21;fill-opacity:1;stroke:#612e21;stroke-width:0.264583px;stroke-linecap:butt;stroke-linejoin:miter;stroke-opacity:1"
       id="path2085" />
    <path
       d="m 113.84628,276.74916 c 0.46284,0.25134 0.89796,0.57856 1.2705,0.95219 0.10097,0.10127 0.19278,0.21129 0.28916,0.31694 0.59309,0.67407 0.93024,1.40181 1.19291,2.24958 0.24892,0.95456 0.37804,1.9336 0.47243,2.91378 0.10976,1.05343 0.0708,2.11125 -0.0352,3.16255 -0.0992,0.90319 -0.40594,1.75643 -0.76528,2.58423 -0.46514,1.00362 -1.03895,1.952 -1.59411,2.90734 -0.17026,0.332 -0.40373,0.63746 -0.54548,0.98476 -0.0382,0.0935 -0.1027,0.24804 -0.002,0.34116 0.0363,0.0334 0.0956,0.0249 0.14334,0.0373 0,0 0.0377,0.003 0.0377,0.003 v 0 c 0.0662,-0.007 0.13661,0.002 0.19864,-0.0222 0.38335,-0.15035 0.6567,-0.97986 0.86255,-1.30858 0.26181,-0.49458 0.52147,-0.98935 0.79683,-1.4766 0.1501,-0.26561 0.42725,-0.73912 0.56868,-1.01445 0.0715,-0.13911 0.13343,-0.28291 0.20014,-0.42437 0.35823,-0.83482 0.67637,-1.69199 0.7534,-2.60544 0.0867,-1.05649 0.12276,-2.11816 0.005,-3.17438 -0.0903,-0.9834 -0.19902,-1.97101 -0.4553,-2.92732 -0.27209,-0.8683 -0.61402,-1.58338 -1.21926,-2.27592 -0.0988,-0.10737 -0.19305,-0.2191 -0.29639,-0.3221 -0.37325,-0.37202 -0.80147,-0.69688 -1.24991,-0.97162 0,0 -0.6289,0.0703 -0.6289,0.0703 z"
       id="path2171"
       style="opacity:1;fill:#421f16;fill-opacity:1;stroke:#cb480b;stroke-width:0.529167;stroke-linecap:round;stroke-miterlimit:4;stroke-dasharray:none;stroke-opacity:1" />
    <path
       d="m 113.2297,279.41621 c 0.15073,-0.57334 0.44293,-1.091 0.75983,-1.58658 0.29794,-0.42833 0.63173,-0.83596 1.03769,-1.1672 0.28156,-0.22975 0.37474,-0.27071 0.68706,-0.45927 0.549,-0.28567 1.14873,-0.50359 1.77579,-0.49905 0.0482,2.7e-4 -0.18034,0.0111 -0.13968,0.037 0.12199,0.0775 0.2745,0.0906 0.41176,0.13586 0.4399,0.23007 0.87989,0.557 1.04326,1.05245 0.0971,0.29456 0.0658,0.50187 0.0597,0.80689 -0.11411,0.8313 -0.54514,1.53409 -1.0448,2.18685 -0.28525,0.34369 -0.52751,0.3652 0.69549,0.17914 0.0631,-0.01 0.0821,-0.0978 0.12694,-0.14316 0.1903,-0.19276 0.2799,-0.25696 0.49739,-0.43758 0.4404,-0.32741 0.91241,-0.64401 1.45451,-0.77306 0.12127,-0.0289 0.42654,0.0565 0.36998,-0.0546 -0.059,-0.11582 -0.25972,0.0107 -0.38958,0.0161 0.70048,0.15766 1.22533,0.64118 1.58119,1.25093 0.0858,0.14697 0.15374,0.30363 0.23061,0.45545 0.35334,0.86252 0.49148,1.80726 0.22937,2.71738 -0.0617,0.21426 -0.15614,0.41771 -0.23422,0.62656 -0.58593,1.31946 -1.62101,2.34305 -2.48955,3.47114 -0.15787,0.41789 -0.0893,0.23336 -0.20699,0.5531 0,0 0.0376,0.003 0.0376,0.003 v 0 c 0.58979,-0.2554 0.28763,-0.0946 0.89458,-0.50414 1.0218,-1.03297 1.95849,-2.17973 2.59369,-3.49418 0.19662,-0.5395 0.285,-0.67302 0.34387,-1.23273 0.0789,-0.74987 -0.10032,-1.48931 -0.38616,-2.17721 -0.0783,-0.15491 -0.14779,-0.31462 -0.23495,-0.46473 -0.29047,-0.50022 -0.71002,-0.96151 -1.24746,-1.20044 -0.11797,-0.0525 -0.24552,-0.0799 -0.36829,-0.1199 -0.36568,-0.002 -0.73167,-0.0213 -1.09703,-0.006 -0.65589,0.0275 -1.32224,0.50296 -1.83829,0.86555 -0.24957,0.19919 -0.30935,0.23871 -0.53208,0.44474 -0.0505,0.0467 -0.20952,0.11705 -0.14675,0.14532 0.7283,0.32804 0.63979,0.26215 0.89854,-0.0711 0.48239,-0.67066 0.89028,-1.40299 0.99518,-2.23587 0.002,-0.30867 0.0307,-0.54421 -0.0697,-0.84289 -0.17789,-0.52889 -0.6876,-0.85437 -1.15396,-1.09418 -0.14459,-0.0493 -0.28218,-0.12895 -0.43376,-0.14781 -1.04238,-0.12972 -1.83312,0.0161 -2.74591,0.49754 -0.11891,0.0741 -0.24166,0.14243 -0.35673,0.2224 -0.54486,0.37869 -0.98056,0.89358 -1.36446,1.42868 -0.30403,0.50918 -0.57198,1.04472 -0.76409,1.60667 0,0 0.5204,0.009 0.5204,0.009 z"
       id="path2173"
       style="opacity:1;fill:#421f16;fill-opacity:1;stroke:#cb480b;stroke-width:0.529167;stroke-linecap:round;stroke-miterlimit:4;stroke-dasharray:none;stroke-opacity:1" />
    <path
       d="m 123.67031,277.1177 c 0.57875,0.41542 1.05405,0.93343 1.47826,1.50113 0.42603,0.64689 0.75225,1.35299 1.0002,2.08516 0.27836,1.03268 0.34413,2.10313 0.38306,3.16685 8e-4,0.63939 0.0355,1.28344 -0.014,1.92203 0.0815,-0.0452 -0.0454,0.13654 -7.9e-4,0.13418 0.29043,-0.0153 0.58977,-0.006 0.86766,-0.092 0.0555,-0.0171 -0.003,-0.11605 -0.006,-0.17403 -0.0105,-0.21216 -0.0218,-0.35004 -0.0374,-0.56788 -0.0695,-0.85287 -0.27759,-1.68491 -0.46311,-2.51769 -0.14897,-0.81252 -0.39155,-1.59702 -0.72094,-2.35315 -0.32938,-0.72774 -0.80256,-1.3734 -1.30934,-1.98586 -0.29344,-0.32915 -0.60243,-0.65185 -1.00007,-0.85175 -0.12354,-0.0561 -0.25425,-0.0967 -0.3908,-0.0955 -0.0265,-0.0188 -0.0171,0.0336 -0.01,0.0271 0.0146,-0.0131 0.0172,-0.0355 0.0285,-0.0515 0.0264,-0.0373 0.0544,-0.0735 0.0842,-0.10818 0.12944,-0.15071 0.19183,-0.20456 0.34041,-0.34986 0.55874,-0.52503 1.19706,-0.83433 1.92223,-1.0573 -0.27684,-0.0556 0.85146,-0.0888 0.63686,-0.0997 -0.15094,-0.008 -0.31485,-0.0392 -0.45286,0.0224 -0.0798,0.0356 0.17189,0.0354 0.2535,0.0666 0.211,0.0806 0.27384,0.15065 0.45122,0.28793 0.0636,0.0755 0.13723,0.14362 0.19082,0.22654 0.27226,0.42124 0.33122,0.93705 0.25496,1.42289 -0.0229,0.14602 -0.0642,0.28857 -0.0963,0.43285 -0.17082,0.56143 -0.40359,1.1139 -0.7322,1.60262 -0.0203,0.0277 -0.0395,0.0561 -0.0608,0.083 -2e-5,2e-5 -0.0546,0.0662 -0.0709,0.0715 -0.006,0.002 -0.0213,-0.009 -0.0154,-0.009 0.91375,-0.0155 0.69577,0.23015 0.93888,-0.11075 0.2408,-0.29504 0.55253,-0.49496 0.93185,-0.55871 0.093,-0.0156 0.18793,-0.0154 0.28189,-0.023 -0.16572,0.006 -0.33846,-0.0301 -0.49717,0.018 -0.0826,0.0251 0.1717,0.0267 0.25292,0.056 0.43028,0.1553 0.65784,0.45189 0.9034,0.81512 0.30676,0.54416 0.46843,1.15232 0.68632,1.73422 0.14999,0.34562 0.30555,0.83897 0.69519,0.99645 0.0952,0.0385 0.19954,0.0486 0.29931,0.0728 0.15465,-0.0216 0.30931,-0.0432 0.46397,-0.0647 0,0 -0.0375,-0.005 -0.0375,-0.005 v 0 c 0.0252,0.004 0.0504,0.009 0.0756,0.0133 -0.0563,-0.15839 -0.1752,-0.21933 -0.28315,-0.35235 -0.12755,-0.15716 -0.17573,-0.2395 -0.26517,-0.42506 -0.0419,-0.0868 -0.0771,-0.17675 -0.11564,-0.26512 -0.22059,-0.58863 -0.39879,-1.19722 -0.69727,-1.753 -0.25234,-0.37859 -0.50035,-0.69353 -0.93894,-0.87223 -0.36931,-0.15047 -1.06223,-0.0781 -1.30945,-0.0813 -0.55484,0.0768 -0.87949,0.21527 -1.24803,0.64405 -0.0288,0.0385 -0.13126,0.0985 -0.0863,0.11556 0.60965,0.23206 0.71205,0.31136 0.94734,-0.0521 0.29959,-0.50964 0.50305,-1.06618 0.66653,-1.63318 0.0332,-0.14765 0.0755,-0.29355 0.0996,-0.44296 0.10165,-0.63215 -0.0295,-1.2509 -0.47557,-1.72463 -0.17679,-0.14714 -0.24502,-0.22594 -0.45839,-0.31766 -0.59432,-0.25546 -1.30071,-0.11847 -1.91086,0.0167 -0.30348,0.0987 -0.42667,0.12881 -0.72026,0.26568 -0.4522,0.21081 -0.8703,0.49585 -1.24735,0.82083 -0.0912,0.0835 -0.6245,0.49706 -0.50699,0.67286 0.12752,0.0137 0.25807,0.005 0.37831,0.0651 0.42411,0.16758 0.75621,0.47202 1.05736,0.8095 0.51602,0.59858 0.98822,1.23912 1.31674,1.96214 0.31652,0.75396 0.54959,1.53677 0.70934,2.3393 0.19128,0.82578 0.40203,1.65347 0.44189,2.50407 0.008,0.27638 0.0128,0.30547 0.005,0.56323 -0.002,0.0564 -0.0628,0.15285 -0.009,0.16903 0.2747,0.0823 0.56972,0.0697 0.85609,0.0847 0.043,0.002 -0.14102,-0.17168 -0.0288,-0.12609 -0.0381,-0.19455 -0.0458,-0.38595 -0.0558,-0.58411 -0.0225,-0.44538 -0.0412,-0.89094 -0.0635,-1.33633 -0.0599,-1.0696 -0.11105,-2.15097 -0.41313,-3.18579 -0.25857,-0.74654 -0.60428,-1.46057 -1.0697,-2.1021 -0.21719,-0.28276 -0.27305,-0.3711 -0.52105,-0.63062 -0.31281,-0.32736 -0.67529,-0.59582 -1.02625,-0.87948 0,0 -0.53337,0.0481 -0.53337,0.0481 z"
       id="path2179"
       style="opacity:1;fill:#421f16;fill-opacity:1;stroke:#cb480b;stroke-width:0.529167;stroke-linecap:round;stroke-miterlimit:4;stroke-dasharray:none;stroke-opacity:1" />
    <path
       d="m 131.49987,275.7424 c -0.28581,0.68145 -0.47424,1.40484 -0.48379,2.14766 -0.003,0.2099 0.0192,0.4194 0.0287,0.6291 0.0284,0.21236 0.0406,0.42753 0.0853,0.63707 0.13624,0.63891 0.48635,1.48467 0.99859,1.92132 0.0949,0.0809 0.21356,0.12894 0.32033,0.19341 0.59517,0.0661 0.7223,0.10771 1.51978,-0.10477 0.14772,-0.0394 0.2578,-0.1663 0.37317,-0.2666 0.26832,-0.23331 0.50489,-0.52453 0.68277,-0.83178 0.10075,-0.17403 0.1739,-0.36262 0.26085,-0.54393 0.21802,-0.64187 0.36809,-1.33726 0.30303,-2.02099 -0.0245,-0.25679 -0.082,-0.5105 -0.15195,-0.75878 -0.18421,-0.65379 -0.33451,-0.87317 -0.6421,-1.47248 -0.17377,-0.21108 -0.32824,-0.43966 -0.52131,-0.63323 -0.27402,-0.27475 -0.81578,-0.69033 -1.20732,-0.80923 -0.18403,-0.0559 -0.38411,-0.0597 -0.57553,-0.041 -1.2207,0.11945 -0.98225,-0.0897 -1.3457,0.58233 0.22989,0.66073 0.0589,0.34311 0.54304,0.93607 0,0 0.0377,-0.002 0.0377,-0.002 v 0 c -0.20908,-0.60822 -0.21417,-0.30889 -10e-4,-0.89811 0.1001,-0.11006 0.2894,-0.18181 0.3003,-0.33019 0.008,-0.10523 -0.3559,-0.12572 -0.26312,-0.17597 0.16679,-0.0904 0.3855,-0.0379 0.56897,0.0103 0.22224,0.0583 0.42551,0.17902 0.61973,0.30181 0.58863,0.37215 0.69152,0.56864 1.1488,1.09237 0.30991,0.59638 0.45574,0.79892 0.63337,1.45273 0.25334,0.9325 0.15066,1.84124 -0.19975,2.7314 -0.0921,0.17698 -0.17108,0.3614 -0.27624,0.53093 -0.17875,0.28816 -0.43107,0.58899 -0.69669,0.8032 -0.11756,0.0948 -0.39423,0.0947 -0.38103,0.24519 0.0125,0.14299 0.36332,-0.0133 0.41318,0.12134 0.0428,0.11542 -0.24617,-0.002 -0.36925,-0.003 -0.11919,-0.0554 -0.24987,-0.0908 -0.35758,-0.1661 -0.12564,-0.0879 -0.23296,-0.20104 -0.33327,-0.31699 -0.53232,-0.61532 -0.79835,-1.39814 -0.93203,-2.18786 -0.0671,-0.93558 -0.0966,-1.86978 0.2612,-2.75537 0,0 -0.36084,-0.0181 -0.36084,-0.0181 z"
       id="path2181"
       style="opacity:1;fill:#421f16;fill-opacity:1;stroke:#cb480b;stroke-width:0.529167;stroke-linecap:round;stroke-miterlimit:4;stroke-dasharray:none;stroke-opacity:1" />
    <path
       d="m 135.56122,270.53854 c 0.74579,1.04539 1.33074,2.18875 1.8846,3.34361 0.69461,1.4386 1.37439,2.88442 2.05257,4.33086 0.12126,0.13391 0.12323,0.34522 0.23501,0.48638 0.0217,0.0274 0.0585,0.0526 0.0932,0.0482 0.33103,-0.0421 0.69233,-0.0227 0.98382,-0.18511 0.11371,-0.0634 0.0392,-0.25792 0.0445,-0.38799 0.008,-0.18674 -0.004,-0.37375 -0.006,-0.56063 -0.0244,-0.2416 -0.0422,-0.48395 -0.0732,-0.72479 -0.0373,-0.28931 -0.0871,-0.57688 -0.13158,-0.86518 -0.18338,-1.18832 -0.38268,-2.37396 -0.57962,-3.56008 -0.0331,-0.18593 -0.149,-0.7812 -0.15908,-1.01472 -0.003,-0.0797 -0.0118,-0.16756 0.0256,-0.23804 0.0173,-0.0326 0.14408,-0.0291 0.10949,-0.0162 -0.6304,0.234 -0.63716,0.008 -0.19548,0.5145 0.88438,1.18989 1.72652,2.4099 2.57825,3.62304 0.0805,0.0807 0.12886,0.22516 0.2416,0.24204 0.3912,0.0586 0.81121,0.0973 1.18634,-0.0282 0.13088,-0.0438 0.0854,-0.26461 0.0995,-0.40189 0.0851,-0.8256 -0.12997,-1.66757 -0.28355,-2.46964 -0.33491,-1.3113 -0.10296,-0.67582 -0.69954,-1.90508 0,0 -0.0378,8e-4 -0.0378,8e-4 v 0 c -0.1581,1.26111 -0.14565,0.62283 -0.0289,1.91497 0.0526,0.61261 0.12046,1.21034 0.11286,1.82598 -0.002,0.2016 -0.0104,0.40483 -0.0476,0.60299 -0.0199,0.10608 -0.21637,0.24756 -0.122,0.29995 0.23458,0.13022 0.54305,0.1502 0.80118,0.0771 0.11598,-0.0328 -0.18953,-0.14899 -0.28429,-0.22348 -0.12453,-0.13183 -0.2542,-0.25899 -0.37357,-0.39549 -0.88653,-1.01374 -1.61897,-2.14963 -2.44254,-3.21222 -0.45028,-0.54725 -0.24871,-0.46155 -1.23023,-0.54341 -0.0427,-0.004 -0.0799,0.0503 -0.0898,0.092 -0.0193,0.0814 -0.002,0.16793 0.008,0.25092 0.0441,0.34187 0.14993,0.6741 0.19322,1.01589 0.34009,1.69014 0.74246,3.39931 0.62508,5.13503 -0.018,0.1832 -0.0265,0.36757 -0.0539,0.54961 -0.0179,0.11918 -0.18418,0.28913 -0.0815,0.35224 0.23108,0.14203 0.54225,0.0412 0.80822,0.0944 0.0389,0.008 -0.0757,0.0651 -0.11009,0.0452 -0.16263,-0.0938 -0.13627,-0.39702 -0.29847,-0.47758 -0.78546,-1.4136 -1.49229,-2.86776 -2.19522,-4.32377 -0.52998,-0.99574 -0.36777,-0.70777 -0.8982,-1.64254 -0.3405,-0.60004 -0.67599,-1.21178 -1.16969,-1.70319 0,0 -0.49163,0.0338 -0.49163,0.0338 z"
       id="path2183"
       style="opacity:1;fill:#421f16;fill-opacity:1;stroke:#cb480b;stroke-width:0.529167;stroke-linecap:round;stroke-miterlimit:4;stroke-dasharray:none;stroke-opacity:1" />
    <path
       d="m 144.27935,266.52329 c 0.4269,1.09155 0.69959,2.23546 0.9988,3.36646 0.2535,1.04648 0.53413,2.0867 0.76347,3.13897 0.20791,0.95395 -0.003,0.0614 0.18149,0.82666 0.12209,0.49436 0.0337,0.55567 0.97905,0.20976 0.0703,-0.0257 -0.0342,-0.14583 -0.0523,-0.21851 -0.0287,-0.11557 -0.0588,-0.23082 -0.0882,-0.34624 -0.0379,-0.15302 -0.0758,-0.30604 -0.11372,-0.45906 -0.3177,-1.46661 -0.51835,-2.95588 -0.63163,-4.45138 -0.0132,-0.57937 -0.0591,-1.16824 0.0301,-1.74487 0.0344,-0.22206 0.097,-0.49619 0.24471,-0.68003 0.0567,-0.0706 0.14256,-0.11179 0.21384,-0.16768 0.0945,-10e-5 0.37073,-0.0365 0.28345,-2.7e-4 -0.17177,0.0713 -0.45765,-0.0534 -0.54702,0.10963 -0.0688,0.12561 0.24467,0.15169 0.35162,0.24695 0.46459,0.41379 0.70802,0.93041 0.98039,1.47532 0.35201,0.72003 0.56405,1.49602 0.87396,2.23295 0.0898,0.21357 0.17038,0.43396 0.29448,0.62961 0.99962,1.57587 0.0461,-0.23541 0.57554,0.80279 0,0 0.0378,-10e-4 0.0378,-10e-4 v 0 c -0.22016,-0.80225 0.0371,0.31125 0.006,-0.82112 -0.006,-0.21587 -0.0699,-0.42677 -0.12318,-0.63604 -0.1966,-0.77191 -0.51577,-1.50672 -0.80354,-2.24673 -0.28175,-0.56285 -0.5252,-1.06831 -0.98277,-1.51514 -0.10416,-0.10171 -0.20001,-0.236 -0.34077,-0.2732 -0.86494,-0.22856 -0.90648,-0.19093 -1.48114,-0.0778 -0.0688,0.0675 -0.15235,0.12275 -0.20655,0.20249 -0.40011,0.58862 -0.23052,1.80409 -0.22008,2.4707 0.11346,1.49969 0.33273,2.98496 0.60706,4.46357 0.0375,0.19039 0.11878,0.59236 0.15363,0.80347 0.0113,0.0685 -0.0392,0.18814 0.0277,0.20634 0.29364,0.0798 0.60734,0.0555 0.91155,0.049 0.10542,-0.002 -0.60325,-0.3965 -0.13386,-0.28659 -0.091,-0.27503 -0.19047,-0.54722 -0.28002,-0.82271 -0.33499,-1.03051 -0.57767,-2.08748 -0.84685,-3.1362 -0.28866,-1.14228 -0.56866,-2.29569 -1.05148,-3.37523 0,0 -0.61156,0.0256 -0.61156,0.0256 z"
       id="path2185"
       style="opacity:1;fill:#421f16;fill-opacity:1;stroke:#cb480b;stroke-width:0.529167;stroke-linecap:round;stroke-miterlimit:4;stroke-dasharray:none;stroke-opacity:1" />
    <path
       d="m 149.36046,262.86367 c 0.31703,1.08632 0.6735,2.16175 1.02081,3.23888 0.33512,0.96099 0.63686,1.93334 0.96189,2.89764 0.18176,0.53926 0.27001,0.84933 0.55235,1.32839 0.0814,0.13807 0.18796,0.25964 0.28193,0.38946 0.0689,0.0222 0.13776,0.0445 0.20664,0.0667 0,0 0.0378,7.9e-4 0.0378,7.9e-4 v 0 c 0.0787,-0.0274 0.15744,-0.0547 0.23616,-0.0821 0.0112,-0.13328 0.0413,-0.26631 0.0336,-0.39984 -0.0275,-0.48277 -0.16765,-0.87512 -0.3171,-1.33655 -0.31487,-0.97222 -0.66944,-1.93182 -1.00244,-2.89781 -0.41479,-1.09885 -0.82212,-2.20827 -1.4099,-3.22966 0,0 -0.60178,0.0242 -0.60178,0.0242 z"
       id="path2187"
       style="opacity:1;fill:#421f16;fill-opacity:1;stroke:#cb480b;stroke-width:0.529167;stroke-linecap:round;stroke-miterlimit:4;stroke-dasharray:none;stroke-opacity:1" />
    <path
       d="m 153.22129,264.825 c 0.6429,-0.17418 1.28469,-0.42398 1.83979,-0.79855 0.12005,-0.081 0.23077,-0.17506 0.34615,-0.26259 0.42221,-0.50094 0.83202,-1.11239 0.74854,-1.80215 -0.0116,-0.0962 -0.0451,-0.18841 -0.0677,-0.28261 -0.047,-0.0786 -0.0848,-0.16359 -0.14113,-0.23589 -0.47974,-0.61623 -1.21149,-0.37828 -1.88413,-0.31716 -0.61739,0.35004 -1.03194,0.93903 -1.26303,1.60299 -0.057,0.16373 -0.0925,0.33416 -0.13878,0.50124 -0.0209,0.17349 -0.0645,0.34574 -0.0627,0.52048 0.009,0.82024 0.38251,1.77557 0.95189,2.37004 0.14317,0.14947 0.32127,0.26102 0.48191,0.39154 0.17429,0.084 0.34034,0.18784 0.52287,0.252 0.59515,0.20922 1.42718,0.14374 1.9727,0.10291 0.12336,-0.009 0.25123,-0.0486 0.35023,-0.12277 0.0612,-0.0458 0.0446,-0.15051 0.0932,-0.2095 0.077,-0.0935 0.18331,-0.15827 0.27497,-0.2374 0,0 -0.0376,-0.004 -0.0376,-0.004 v 0 c -0.56734,0.32801 -0.27206,0.21487 -1.07157,0.35022 -0.17722,0.03 -0.43332,-0.0698 -0.5333,0.0796 -0.0869,0.1298 0.56582,0.13957 0.46824,0.0176 -0.23179,-0.28969 -0.89649,0.15936 -1.06648,-0.31856 -0.1694,-0.12213 -0.35423,-0.22531 -0.5082,-0.3664 -0.56317,-0.51604 -1.05383,-1.53441 -1.10832,-2.29734 -0.0121,-0.1697 0.0304,-0.33889 0.0456,-0.50833 0.0432,-0.1635 0.0741,-0.33078 0.12965,-0.49051 0.22668,-0.65164 0.63856,-1.23277 1.26888,-1.53629 -0.17022,-0.024 -0.34444,-0.0281 -0.51067,-0.0719 -0.0735,-0.0194 0.15269,-0.0128 0.22801,-0.003 0.32634,0.0443 0.58331,0.27342 0.73961,0.54907 0.0226,0.0882 0.0563,0.17433 0.068,0.26467 0.0638,0.4953 -0.15268,0.99996 -0.44609,1.38774 -0.0917,0.12117 -0.20361,0.22561 -0.30541,0.33841 -0.11462,0.0847 -0.22479,0.17578 -0.34383,0.25413 -0.55557,0.36564 -1.19004,0.60503 -1.83003,0.77328 0,0 0.78877,0.10826 0.78877,0.10826 z"
       id="path2189"
       style="opacity:1;fill:#421f16;fill-opacity:1;stroke:#cb480b;stroke-width:0.529167;stroke-linecap:round;stroke-miterlimit:4;stroke-dasharray:none;stroke-opacity:1" />
    <path
       d="m 148.15204,259.10652 c -0.35104,0.23777 -0.68009,0.51271 -0.88157,0.89062 -0.0369,0.15843 0.003,0.30573 0.20195,0.30325 0.92762,-0.0115 0.92488,0.0586 1.50786,-0.31234 0.0602,-0.0368 0.39295,-0.27508 0.27561,-0.40714 -0.257,-0.28925 -0.21946,0.014 -0.22604,-0.23297 0,0 -0.0378,1e-4 -0.0378,1e-4 v 0 c 0.001,0.0339 0.0324,0.0851 0.003,0.10169 -0.10254,0.0574 -0.23047,0.0492 -0.34141,0.0879 -0.21078,0.0736 -0.38947,0.22475 -0.56075,0.36135 -0.0665,0.0431 -0.13018,0.091 -0.19949,0.12939 -0.0684,0.038 -0.28651,0.0732 -0.21272,0.0993 0.19913,0.0703 0.42226,0.0213 0.63166,0.0486 0.0575,0.008 -0.11624,0.0198 -0.17356,0.0112 -0.12996,-0.0196 -0.12008,-0.0642 -0.16287,-0.16504 0.01,-0.0481 0.0123,-0.0984 0.0293,-0.14441 0.11951,-0.32233 0.42343,-0.53381 0.69763,-0.71419 0,0 -0.55067,-0.0573 -0.55067,-0.0573 z"
       id="path2191"
       style="opacity:1;fill:#421f16;fill-opacity:1;stroke:#cb480b;stroke-width:0.529167;stroke-linecap:round;stroke-miterlimit:4;stroke-dasharray:none;stroke-opacity:1" />
    <path
       d="m 110.76574,242.50682 c -0.0794,-0.01 0.46114,-0.0605 0.34939,-0.0266 -0.0895,0.0272 -0.24095,-0.0589 -0.27946,0.0263 -0.0336,0.0745 0.15771,0.0447 0.23327,0.076 0.21489,0.0889 0.29181,0.15248 0.48736,0.28007 0.64818,0.47431 1.05954,1.17152 1.41607,1.87498 0.43721,0.9515 0.60118,1.99336 0.7629,3.01919 0.17963,1.53764 0.50166,3.04892 0.8735,4.54985 0.16906,0.60555 0.29842,1.35606 0.69195,1.87273 0.0982,0.12898 0.23916,0.21898 0.35874,0.32847 0,0 0.0377,-0.002 0.0377,-0.002 v 0 c -0.0126,-0.25166 -0.0265,-0.61307 -0.0617,-0.84724 -0.0768,-0.51093 -0.18969,-0.86345 -0.32659,-1.36933 -0.3854,-1.50075 -0.73673,-3.0099 -0.97554,-4.54205 -0.1683,-1.03332 -0.30779,-2.09434 -0.79358,-3.03687 -0.37729,-0.71032 -0.81057,-1.40717 -1.46207,-1.89971 -0.20487,-0.13379 -0.49777,-0.34467 -0.74913,-0.37532 -0.23177,-0.0283 -0.46636,-0.025 -0.69976,-0.0313 -0.17391,-0.005 -0.19288,0.008 -0.35635,0.04 0,0 0.49325,0.0627 0.49325,0.0627 z"
       id="path2223"
       style="opacity:1;fill:#421f16;fill-opacity:1;stroke:#cb480b;stroke-width:0.529167;stroke-linecap:round;stroke-miterlimit:4;stroke-dasharray:none;stroke-opacity:1" />
    <path
       d="m 120.21855,240.97891 c -0.0979,-0.21376 -0.14462,-0.45503 -0.26946,-0.65661 -0.0226,-0.0365 -0.0372,-0.0949 -0.0797,-0.10103 -0.22788,-0.0328 -0.46042,-0.007 -0.69063,-0.01 -0.0212,0.0551 -0.0513,0.10752 -0.0636,0.16524 -0.11523,0.53847 0.12518,1.3929 0.25095,1.91512 0.35839,1.35633 0.66749,2.72402 0.97838,4.09178 0.18357,0.84495 0.43058,1.67458 0.6841,2.50065 0.13692,0.44615 0.29027,0.96668 0.4851,1.3968 0.0766,0.16905 0.17628,0.32663 0.26442,0.48995 0.34118,0.42676 0.14557,0.2707 0.55951,0.50051 0,0 0.0377,-0.003 0.0377,-0.003 v 0 c -0.0237,-0.2895 -2.7e-4,-0.1156 -0.099,-0.51697 -0.17445,-0.63745 -0.38855,-1.25712 -0.58853,-1.88681 -0.26142,-0.82314 -0.48963,-1.65649 -0.68947,-2.49666 -0.34125,-1.36548 -0.6743,-2.73345 -1.04754,-4.09059 -0.11149,-0.44261 -0.22375,-0.87749 -0.25359,-1.33481 -0.01,-0.15034 -0.0182,-0.38441 0.0243,-0.54013 0.0106,-0.0387 0.0399,-0.0696 0.0599,-0.10446 -0.17457,-0.0112 -0.35004,-0.0545 -0.5237,-0.0335 -0.0393,0.005 0.0585,0.0544 0.0811,0.087 0.13295,0.19181 0.21295,0.42485 0.28502,0.64398 0,0 0.59476,-0.0167 0.59476,-0.0167 z"
       id="path2225"
       style="opacity:1;fill:#421f16;fill-opacity:1;stroke:#cb480b;stroke-width:0.529167;stroke-linecap:round;stroke-miterlimit:4;stroke-dasharray:none;stroke-opacity:1" />
    <path
       d="m 113.63698,248.78107 c 0.13309,-0.30144 0.2891,-0.5971 0.49488,-0.85636 0.0933,-0.11756 0.17966,-0.24747 0.30285,-0.33322 0.34027,-0.23688 0.76956,-0.31047 1.1575,-0.41273 0.23596,-0.0321 0.47123,-0.0698 0.70788,-0.0962 0.24813,-0.0278 0.49827,-0.036 0.74609,-0.0664 0.62564,-0.0768 1.04712,-0.15 1.64991,-0.34294 0.26237,-0.084 0.5272,-0.16849 0.77229,-0.29429 0.18541,-0.0952 0.33924,-0.24218 0.50886,-0.36328 0.15941,-0.11598 0.31883,-0.23196 0.47824,-0.34794 0,0 -0.0376,-0.004 -0.0376,-0.004 v 0 c -0.24216,0.10649 -0.48432,0.21298 -0.72649,0.31948 -0.84887,0.28463 -1.6866,0.6162 -2.56523,0.80025 -0.83373,0.17464 -0.69079,0.0952 -1.50483,0.20194 -0.22554,0.0296 -0.44903,0.073 -0.67355,0.10948 -0.20126,0.0605 -0.41107,0.0976 -0.6038,0.18145 -0.59213,0.25748 -1.03187,0.89835 -1.24542,1.48978 0,0 0.53841,0.0151 0.53841,0.0151 z"
       id="path2227"
       style="opacity:1;fill:#421f16;fill-opacity:1;stroke:#cb480b;stroke-width:0.529167;stroke-linecap:round;stroke-miterlimit:4;stroke-dasharray:none;stroke-opacity:1" />
    <path
       d="m 124.9933,250.67556 c 0.51199,-0.90499 0.7083,-1.94437 0.94562,-2.94527 0.28795,-1.35355 0.51496,-2.72007 0.71817,-4.08875 0.0558,-0.25576 0.0617,-0.51805 0.0911,-0.77675 0.004,-0.0317 0.0506,-0.0918 0.0187,-0.094 -0.79663,-0.0559 -0.76781,-0.0688 -0.5433,0.13048 0.5521,0.7186 1.22258,1.33033 1.90897,1.91682 0.5082,0.44292 1.08078,0.78309 1.71872,1.00048 0.12871,0.0439 0.25772,0.09 0.39132,0.1153 0.16583,0.0315 0.33561,0.0363 0.50341,0.0545 0.15207,-0.005 0.30415,-0.0102 0.45622,-0.0152 0,0 0.0374,-0.006 0.0374,-0.006 v 0 c -0.001,-0.0155 -0.002,-0.031 -0.003,-0.0465 -0.39622,-0.1858 0.0225,-0.003 -0.59346,-0.199 -0.65115,-0.207 -1.25711,-0.53786 -1.78788,-0.96751 -0.70666,-0.56905 -1.39727,-1.1738 -1.94484,-1.90272 -0.21941,-0.30414 -0.10537,-0.22111 -0.81786,-0.0913 -0.0324,0.006 -0.007,0.0655 -0.011,0.0982 -0.0297,0.25778 -0.0522,0.51615 -0.0694,0.77512 -0.12701,1.37331 -0.30421,2.74296 -0.64188,4.08289 -0.24857,0.99401 -0.47244,2.0224 -0.97688,2.92423 0,0 0.59995,0.0346 0.59995,0.0346 z"
       id="path2229"
       style="opacity:1;fill:#421f16;fill-opacity:1;stroke:#cb480b;stroke-width:0.529167;stroke-linecap:round;stroke-miterlimit:4;stroke-dasharray:none;stroke-opacity:1" />
    <path
       d="m 126.16615,248.08472 c 0.56936,-0.22534 1.0885,-0.56465 1.5689,-0.94113 0.17836,-0.13978 0.35959,-0.27785 0.52003,-0.4379 0.13674,-0.13641 0.2452,-0.2985 0.3678,-0.44776 0.26346,-0.51861 0.0906,-0.29686 0.51005,-0.67172 0,0 -0.0377,-0.003 -0.0377,-0.003 v 0 c -0.48938,0.43743 -0.18904,0.20801 -0.93935,0.63491 -0.21023,0.14067 -0.42439,0.27563 -0.63068,0.42201 -0.19364,0.13739 -0.37608,0.29006 -0.56864,0.42897 -0.49199,0.35492 -1.00741,0.67513 -1.55922,0.9289 0,0 0.76878,0.0869 0.76878,0.0869 z"
       id="path2231"
       style="opacity:1;fill:#421f16;fill-opacity:1;stroke:#cb480b;stroke-width:0.529167;stroke-linecap:round;stroke-miterlimit:4;stroke-dasharray:none;stroke-opacity:1" />
    <path
       d="m 132.56156,241.68477 c 0.57798,0.11799 1.05802,0.48322 1.5058,0.84745 0.64816,0.54489 1.12909,1.23922 1.58329,1.94508 0.25237,0.40484 0.48634,0.82167 0.68148,1.25722 0.0454,0.0887 0.0668,0.18519 0.0909,0.28082 0.12031,0.3856 0.11937,0.22553 1.00071,-0.0712 0.0569,-0.0192 0.0316,-0.11586 0.0464,-0.17405 0.0181,-0.0711 0.0348,-0.14264 0.0522,-0.21395 0.16074,-0.74818 0.18792,-1.51647 0.22206,-2.27842 0.0434,-1.01349 0.20068,-2.01764 0.53482,-2.97603 0.0519,-0.11605 0.1013,-0.23324 0.15566,-0.34815 0.15,-0.31718 0.20718,-0.31427 0.21775,-0.66331 0.0139,-0.45793 -0.12349,-0.13406 0.0815,-0.48465 0,0 -0.0377,-0.003 -0.0377,-0.003 v 0 c -0.49831,0.44847 0.16424,-0.12355 -0.64839,0.45162 -0.45468,0.32182 -0.54116,0.51894 -0.74664,1.01528 -0.0421,0.12884 -0.0897,0.25601 -0.12637,0.38651 -0.2392,0.85156 -0.28011,1.73893 -0.33701,2.61639 -0.0495,0.75676 -0.0631,1.5216 -0.25333,2.26054 -0.018,0.071 -0.036,0.14195 -0.054,0.21293 -0.0144,0.0568 -0.0993,0.15364 -0.0431,0.1704 0.28646,0.0855 0.5962,0.0471 0.89296,0.0832 0.01,0.001 -0.008,0.0229 -0.0175,0.0232 -0.0234,8e-4 -0.0266,-0.0521 -0.0501,-0.0492 -0.0683,-0.0794 -0.0829,-0.19541 -0.15008,-0.27814 -0.23943,-0.42829 -0.48515,-0.85338 -0.75701,-1.26216 -0.46927,-0.70859 -0.96197,-1.40991 -1.61247,-1.96673 -0.46888,-0.36616 -0.96704,-0.73517 -1.55418,-0.87979 0,0 -0.67761,0.0977 -0.67761,0.0977 z"
       id="path2235"
       style="opacity:1;fill:#421f16;fill-opacity:1;stroke:#cb480b;stroke-width:0.529167;stroke-linecap:round;stroke-miterlimit:4;stroke-dasharray:none;stroke-opacity:1" />
    <path
       d="m 143.67241,241.42919 c 0.47097,-0.0714 0.96628,-0.15484 1.37844,-0.41231 0.35289,-0.22044 0.59769,-0.49353 0.89316,-0.78247 0.13518,-0.16257 0.28655,-0.31294 0.40555,-0.48769 0.34467,-0.50613 0.58695,-1.10322 0.63776,-1.71525 0.0354,-0.42689 -0.009,-0.52469 -0.0858,-0.92283 -0.0454,-0.1068 -0.0782,-0.2199 -0.13627,-0.3204 -0.27833,-0.48189 -0.7779,-0.39369 -1.29991,-0.29664 -0.14768,0.0274 -0.49961,0.4179 -0.56992,0.48873 -0.46951,0.63226 -0.83227,1.35826 -0.98898,2.13531 -0.1105,0.54788 -0.0737,0.68776 -0.0542,1.23744 0.0516,0.19421 0.0771,0.39725 0.15468,0.58263 0.25164,0.60167 0.75091,0.97618 1.38424,1.1109 0.70467,0.14989 1.55817,-0.0251 2.2205,-0.0909 0.15699,-0.10493 0.31398,-0.20987 0.47096,-0.3148 0,0 -0.0375,-0.005 -0.0375,-0.005 v 0 c -0.34449,0.0781 -0.68898,0.15625 -1.03347,0.23437 -0.0134,0.3155 0.0249,0.18851 -0.69261,0.0601 -0.63067,-0.11285 -1.16187,-0.45845 -1.47897,-1.02144 -0.0985,-0.1749 -0.14629,-0.37388 -0.21943,-0.56082 -0.0167,-0.19989 -0.0519,-0.39908 -0.0501,-0.59965 0.007,-0.79791 0.28214,-1.62159 0.69357,-2.29991 0.0883,-0.14557 0.19766,-0.27728 0.29649,-0.41591 0.0977,-0.0948 0.18557,-0.20098 0.29313,-0.28445 0.098,-0.076 0.79568,-0.35611 -0.14311,-0.21235 -0.0746,0.0114 0.14918,0.0394 0.21066,0.0832 0.1931,0.13761 0.22599,0.29322 0.32201,0.50265 0.0302,0.13544 0.0746,0.26848 0.0906,0.40631 0.0379,0.32608 0.017,0.73095 -0.0693,1.04599 -0.16958,0.6193 -0.54712,1.1447 -0.97861,1.60691 -0.36546,0.34527 -0.49023,0.50335 -0.91832,0.75762 -0.41086,0.24403 -0.89009,0.33759 -1.35798,0.3901 0,0 0.66267,0.10016 0.66267,0.10016 z"
       id="path2237"
       style="opacity:1;fill:#421f16;fill-opacity:1;stroke:#cb480b;stroke-width:0.529167;stroke-linecap:round;stroke-miterlimit:4;stroke-dasharray:none;stroke-opacity:1" />
    <path
       d="m 129.63984,264.46416 c 0.35032,-0.59669 0.61495,-1.23782 0.85213,-1.88615 0.37614,-1.05769 0.57483,-2.16337 0.72368,-3.27234 0.15432,-1.31278 0.1412,-2.63588 0.12677,-3.95514 0.005,-0.60535 -0.0334,-1.20965 -0.0571,-1.81368 0.24274,-0.12935 0.35146,-0.18457 -0.78086,0.0413 -0.0368,0.007 0.0369,0.0654 0.0548,0.0984 0.0304,0.0559 0.0604,0.112 0.0901,0.16828 0.14708,0.27859 0.1407,0.26958 0.29296,0.57089 0.41889,0.85311 0.91423,1.66322 1.45575,2.44307 0.59593,0.76225 1.23758,1.51055 1.9916,2.12301 0.16711,0.13574 0.34417,0.25877 0.51625,0.38815 0.62397,0.43328 1.2956,0.79156 2.05388,0.90737 0.50106,0.0765 0.88754,0.038 1.4201,0.0302 0.15765,-0.1437 0.056,-0.0679 0.32628,-0.19568 0,0 -0.0375,-0.004 -0.0375,-0.004 v 0 c -0.3909,0.18311 -0.14644,0.10574 -0.75891,0.12567 0.0691,-0.004 0.27026,0.0177 0.20723,-0.0108 -0.10761,-0.0486 -0.23471,-0.029 -0.35016,-0.0538 -0.13783,-0.0296 -0.27456,-0.0655 -0.40854,-0.10932 -0.5545,-0.18139 -1.0729,-0.45151 -1.55864,-0.77283 -0.46314,-0.34058 -0.57737,-0.40794 -1.00602,-0.78897 -0.58139,-0.51682 -1.09807,-1.10087 -1.60601,-1.68817 -0.56987,-0.75897 -1.06291,-1.57107 -1.47184,-2.42841 -0.1137,-0.24727 -0.23144,-0.49294 -0.34235,-0.74148 -0.0161,-0.0362 -0.008,-0.10308 -0.0469,-0.10919 -0.27973,-0.0437 -0.56571,-0.0346 -0.84879,-0.0307 -0.0142,2e-4 -0.002,0.0284 -0.003,0.0426 0.0558,0.60197 0.0989,1.20575 0.12502,1.80981 0.0385,1.31575 0.0293,2.6354 -0.13386,3.9437 -0.14648,1.1044 -0.34959,2.20431 -0.729,3.25562 -0.23328,0.62971 -0.46199,1.26153 -0.72241,1.8807 0,0 0.62586,0.0321 0.62586,0.0321 z"
       id="path2239"
       style="opacity:1;fill:#421f16;fill-opacity:1;stroke:#cb480b;stroke-width:0.529167;stroke-linecap:round;stroke-miterlimit:4;stroke-dasharray:none;stroke-opacity:1" />
    <path
       d="m 131.82724,259.72967 c 0.46279,-0.2049 0.95012,-0.40534 1.35203,-0.72084 0.29335,-0.23028 0.40946,-0.3962 0.64448,-0.67563 0.0389,-0.096 0.0778,-0.19198 0.11666,-0.28797 0,0 -0.0376,-0.004 -0.0376,-0.004 v 0 c -0.21516,0.0803 -0.43031,0.16056 -0.64547,0.24084 -0.77072,0.45879 -1.5046,0.98268 -2.33064,1.34152 0,0 0.90056,0.10573 0.90056,0.10573 z"
       id="path2241"
       style="opacity:1;fill:#421f16;fill-opacity:1;stroke:#cb480b;stroke-width:0.529167;stroke-linecap:round;stroke-miterlimit:4;stroke-dasharray:none;stroke-opacity:1" />
  </g>
</svg>
