<?xml version="1.0" encoding="UTF-8" standalone="no"?>
<svg
   xmlns:dc="http://purl.org/dc/elements/1.1/"
   xmlns:cc="http://creativecommons.org/ns#"
   xmlns:rdf="http://www.w3.org/1999/02/22-rdf-syntax-ns#"
   xmlns:svg="http://www.w3.org/2000/svg"
   xmlns="http://www.w3.org/2000/svg"
   xmlns:sodipodi="http://sodipodi.sourceforge.net/DTD/sodipodi-0.dtd"
   xmlns:inkscape="http://www.inkscape.org/namespaces/inkscape"
   width="1200"
   height="600"
   viewBox="0 0 317.5 158.75"
   version="1.1"
   id="svg8"
   inkscape:version="1.0.1 (3bc2e813f5, 2020-09-07)"
   sodipodi:docname="ol-activation-functions.svg">
  <defs
     id="defs2" />
  <sodipodi:namedview
     id="base"
     pagecolor="#ffffff"
     bordercolor="#666666"
     borderopacity="1.0"
     inkscape:pageopacity="0.0"
     inkscape:pageshadow="2"
     inkscape:zoom="1.4"
     inkscape:cx="605.17626"
     inkscape:cy="297.53322"
     inkscape:document-units="mm"
     inkscape:current-layer="layer1"
     showgrid="false"
     units="px"
     inkscape:window-width="1920"
     inkscape:window-height="1061"
     inkscape:window-x="0"
     inkscape:window-y="19"
     inkscape:window-maximized="0"
     inkscape:document-rotation="0"
     inkscape:snap-global="false" />
  <metadata
     id="metadata5">
    <rdf:RDF>
      <cc:Work
         rdf:about="">
        <dc:format>image/svg+xml</dc:format>
        <dc:type
           rdf:resource="http://purl.org/dc/dcmitype/StillImage" />
        <dc:title></dc:title>
      </cc:Work>
    </rdf:RDF>
  </metadata>
  <g
     inkscape:label="Layer 1"
     inkscape:groupmode="layer"
     id="layer1"
     transform="translate(0,-138.25001)">
    <path
       id="path74"
       style="fill:#000000;stroke:#000000;stroke-width:0.264583"
       d="m 4.9363094,216.13333 c 98.5627906,-2.34932 197.1387406,2.6416 295.7054606,0.14489 -97.44844,1.18077 -195.00731,-1.94389 -292.4106942,-0.5615 l -1.794298,0.22688 z" />
    <path
       id="path96"
       style="fill:#000000;stroke:#000000;stroke-width:0.264583"
       d="m 300.80517,207.65979 c 0.0477,3.27524 1.70186,6.63766 4.7192,8.12938 0.54057,0.72477 3.55974,2.31781 2.77944,1.00505 -2.48023,0.40994 -4.47542,2.51215 -6.53323,3.8961 -1.33292,1.64719 -5.01773,3.16668 -4.09078,5.56691 1.81757,-0.85401 3.1155,-2.90718 4.82394,-4.13315 2.14219,-1.95913 4.76251,-3.2885 7.55789,-4.01444 2.50995,-1.84389 -2.11179,-2.66266 -3.32312,-3.53236 -2.45313,-1.18922 -4.43214,-3.56802 -4.45192,-6.38743 -0.1892,-0.60034 -0.96421,-0.71181 -1.48142,-0.53006 z" />
    <path
       id="path98"
       style="fill:#000000;stroke:#000000;stroke-width:0.264583"
       d="m 153.12616,149.22856 c -0.45938,48.28816 3.53011,96.7984 1.0585,144.92645 5.22654,-3.77123 0.98995,-22.13168 2.19744,-31.36517 -0.46262,-36.31934 -1.41944,-72.67702 -2.17371,-108.95701 l -0.44201,-2.31805 z" />
    <path
       id="path100"
       style="fill:#000000;stroke:#000000;stroke-width:0.264583"
       d="m 139.96146,152.98502 c 4.92044,0.002 9.82818,-2.65285 12.30382,-6.92946 1.62471,-1.08927 -0.16461,-3.23754 0.76951,-0.85121 2.81008,2.13244 4.58241,5.39598 7.78863,7.0702 1.35173,0.71663 5.89658,2.87868 5.85154,0.5175 -2.5127,-0.27872 -5.09729,-0.99766 -6.94344,-2.88651 -1.8172,-1.8039 -3.80159,-3.54645 -5.13747,-5.7179 -3.35497,-2.86961 -3.93701,2.66119 -5.6924,4.28431 -2.40538,2.66702 -6.39252,2.58302 -8.94019,4.51307 z" />
    <path
       id="path102"
       style="fill:#000000;stroke:#000000;stroke-width:0.264583"
       d="m 149.02208,172.99766 c 4.13572,0.0336 8.25765,0.42131 12.38878,0.55678 0.53137,-0.83949 -2.1892,-2.1334 -0.44847,-1.83898 -3.46526,0.20816 -6.96491,0.26359 -10.4197,-0.0731 -0.76375,0.0608 -0.98466,0.95197 -1.52061,1.35531 z" />
    <path
       id="path104"
       style="fill:#000000;stroke:#000000;stroke-width:0.264583"
       d="m 141.9879,169.42892 c 0.4285,-1.1549 2.37349,-2.62714 1.79086,-3.61717 -1.55713,0.1325 -0.31753,2.375 -0.74744,3.37625 -0.0956,2.7809 -0.48179,5.54158 -0.70958,8.31067 0.48004,1.47826 2.16082,-0.0919 1.48074,-1.15597 -0.2383,-3.2343 -0.11887,-6.49996 0.42578,-9.69885 0.71158,-1.46274 -2.13635,-1.56147 -1.64218,0.0484 -0.0699,0.99722 -2.34655,2.26228 -0.59818,2.73666 z" />
    <path
       id="path106"
       style="fill:#000000;stroke:#000000;stroke-width:0.264583"
       d="m 149.89494,262.81765 c 3.61324,-0.85336 7.33762,-1.21088 11.03854,-1.3535 1.07378,0.41394 2.65438,-0.70072 0.96913,-1.31496 -1.61348,-0.35756 -3.20988,0.45938 -4.8384,0.44349 -2.7713,0.30341 -5.59356,0.41379 -8.34212,0.72678 -0.5266,0.54364 0.99714,0.99747 1.17285,1.49819 z" />
    <path
       id="path108"
       style="fill:#000000;stroke:#000000;stroke-width:0.264583"
       d="m 164.92889,262.14839 c 1.62157,-0.0439 3.24019,0.1649 4.86165,0.0828 -0.0473,-0.22619 -0.45372,-0.63638 -0.0962,-0.76576 -0.64445,0.0467 -0.90129,-0.85583 -1.54955,-0.75995 0.2682,-0.0485 0.89704,0.10854 0.2571,0.0726 -0.71569,-0.026 -1.44073,0.0647 -2.14811,-0.083 -0.44148,0.48458 -0.88419,0.96809 -1.32489,1.45335 z" />
    <path
       id="path112"
       style="fill:#000000;stroke:#000000;stroke-width:0.264583"
       d="m 173.1935,258.42591 c 0.43492,-1.33303 1.16827,-2.5394 1.69284,-3.83534 -0.64861,-0.15378 -2.01356,-0.34496 -1.46592,0.77032 0.37776,2.55524 0.41037,5.15252 0.45559,7.72539 -0.33075,0.84869 -0.0231,2.48366 0.92847,2.42713 0.97086,-0.46974 0.65224,-1.61158 0.51101,-2.4554 -0.27022,-2.45744 -0.62239,-4.93927 -0.45575,-7.41274 0.57228,-1.13298 -0.62565,-1.76768 -1.55113,-1.23772 -0.20073,1.21629 -0.43231,2.58237 -1.28413,3.57762 0.3598,0.21894 0.78432,0.28118 1.16902,0.44074 z" />
    <path
       id="path162"
       style="fill:#a02c2c;stroke:#a02c2c;stroke-width:0.264583"
       d="m 5.6879652,264.60676 c 26.0006328,-1.79705 53.0582478,3.55767 77.8837938,-6.54915 33.570251,-10.90971 61.361311,-33.39993 88.590441,-54.95494 22.12134,-10.63644 43.11042,-27.11541 68.93205,-26.63797 18.26347,0.1441 36.38022,-1.28853 54.61007,-1.29648 10.96623,-3.14995 -14.04842,-1.35086 -18.7845,-0.78726 -25.28698,2.08924 -52.92662,-2.95749 -75.46762,11.84042 -16.36926,8.36248 -33.40126,15.93779 -46.72924,28.96285 -28.7098,22.185 -60.63519,43.23951 -97.433335,47.9223 -17.206211,0.70767 -34.550928,-0.8519 -51.6016598,1.50023 z" />
    <path
       id="path164"
       style="fill:#a02c2c;stroke:#a02c2c;stroke-width:0.264583"
       d="m 18.757065,254.24758 c 0.521182,1.44553 0.497604,3.00308 0.533212,4.51762 0.200496,0.57049 1.002869,0.47369 1.388654,0.15674 0.222069,-0.6197 -0.182243,-1.34864 -0.188554,-2.01218 -0.132277,-0.83678 -0.224761,-1.68022 -0.310413,-2.52131 -0.171041,-0.64604 -0.978604,-0.0284 -1.422899,-0.14087 z" />
    <path
       id="path166"
       style="fill:#a02c2c;stroke:#a02c2c;stroke-width:0.264583"
       d="m 17.88669,256.30329 c 1.563881,-1.34111 3.283159,-2.50033 5.110481,-3.45149 0.565347,-0.9015 -1.018918,-1.27048 -1.601742,-0.82685 -1.751122,0.93729 -3.140343,2.42444 -4.888597,3.37158 0.350558,0.44826 0.939753,0.57679 1.379858,0.90676 z" />
    <path
       id="path168"
       style="fill:#a02c2c;stroke:#a02c2c;stroke-width:0.264583"
       d="m 24.066034,258.40643 c 0.627203,-1.90089 0.813812,-3.94733 1.730775,-5.74929 -0.325525,-0.78225 -1.789763,0.32843 -0.681134,0.75792 1.191256,1.40038 2.1839,2.9519 3.26275,4.43696 1.038803,1.01307 2.117825,-0.86236 0.776091,-1.34398 -1.117431,-1.26007 -2.149506,-2.61051 -3.010094,-4.05104 -0.813422,-1.14796 -2.307543,-0.44005 -1.987964,0.9062 -0.17282,1.61862 -0.663479,3.18904 -1.266547,4.69527 0.307985,0.32968 0.809317,0.15137 1.176123,0.34796 z" />
    <path
       id="path170"
       style="fill:#a02c2c;stroke:#a02c2c;stroke-width:0.264583"
       d="m 25.446557,257.01328 c 0.807088,-0.34388 1.718758,-0.37227 2.499305,-0.78761 -0.0042,-0.322 0.236381,-0.83513 0.294852,-0.92349 -0.562752,-9e-5 -1.088874,-0.12699 -1.615264,-0.29094 -0.921859,0.0663 -1.809129,0.37723 -2.705663,0.59002 -0.05157,0.21444 0.669885,0.60839 0.916605,0.8921 0.203387,0.17331 0.406775,0.34661 0.610165,0.51992 z" />
    <path
       id="path172"
       style="fill:#a02c2c;stroke:#a02c2c;stroke-width:0.264583"
       d="m 32.914407,257.85157 c -0.136306,-1.81395 -0.04101,-3.63933 0.195059,-5.44103 -0.8667,-0.0238 -1.917854,0.53249 -0.798559,1.19566 1.047081,1.28542 2.09054,2.59609 3.10395,3.89452 0.396833,1.15796 1.932521,1.65166 2.830099,0.75077 0.718855,-1.14627 0.686467,-2.60477 0.965975,-3.89974 0.07018,-1.16517 0.836215,-3.3641 -0.922041,-3.57264 -1.428523,0.32664 -1.300526,2.18431 -1.416977,3.33468 0.03303,0.8093 -0.613638,2.13171 -0.376258,2.6085 0.373289,-0.47101 1.982539,0.50656 0.801148,0.16441 -1.832385,-1.25499 -3.039286,-3.19097 -4.031105,-5.13421 -0.880473,-0.7189 -2.606048,0.19383 -2.043813,1.3805 0.228039,1.48405 0.256758,2.99201 0.153579,4.488 0.318239,0.50864 1.069704,0.0505 1.538943,0.23058 z" />
    <path
       id="path180"
       style="fill:#a02c2c;stroke:#a02c2c;stroke-width:0.264583"
       d="m 41.198702,251.11169 c 0.320214,2.15934 0.09997,4.35318 -0.01584,6.51329 0.127392,0.85296 1.436623,0.68846 1.305347,-0.18649 -0.197285,-2.04984 -0.292099,-4.12349 -0.139783,-6.18216 -0.247029,-0.42098 -0.787631,-0.004 -1.149724,-0.14464 z" />
    <path
       id="path182"
       style="fill:#a02c2c;stroke:#a02c2c;stroke-width:0.264583"
       d="m 42.63409,255.90537 c 0.937303,-0.0319 1.877971,-0.0445 2.801112,-0.22932 0.517269,-0.12021 1.709392,0.01 1.428818,-0.84116 -0.286374,-0.57374 -1.043764,-0.67405 -1.623119,-0.74051 -0.589562,0.0824 -1.155284,0.30236 -1.752355,0.3683 -0.565976,0.0943 -1.135677,0.16371 -1.70533,0.23135 -0.05831,0.51095 0.655967,0.77427 0.850874,1.21134 z" />
    <path
       id="path184"
       style="fill:#a02c2c;stroke:#a02c2c;stroke-width:0.264583"
       d="m 45.929097,249.99325 c 0.272512,2.21943 0.06415,4.46683 0.04056,6.68919 -0.303366,0.73833 0.595495,2.84627 1.282961,1.68486 0.63902,-0.96364 0.114458,-2.11289 0.166835,-3.16827 -0.09773,-1.67673 -0.178036,-3.35652 -0.139329,-5.03653 -0.286399,-0.47333 -0.932571,-0.0418 -1.351024,-0.16925 z" />
    <path
       style="fill:#003380;stroke:#003380;stroke-width:0.264583"
       id="path186"
       d="m 56.19044,292.76984 c 0.449112,-0.28026 0.951566,-0.44168 1.396635,-0.72876 0.613516,-0.58407 1.252011,-1.13891 1.89711,-1.68763 0.885859,-0.73467 1.832668,-1.38833 2.755847,-2.07404 0.966488,-0.66122 1.913795,-1.34949 2.872327,-2.02203 0.803939,-0.56261 1.569741,-1.17579 2.34129,-1.78112 0.649706,-0.48148 1.257763,-1.01448 1.890252,-1.51775 0.747197,-0.58419 1.473068,-1.19317 2.202479,-1.79964 0.975945,-0.83597 1.945643,-1.67739 2.888641,-2.5503 0.886373,-0.77959 1.693135,-1.64304 2.529576,-2.47461 0.941213,-0.87736 1.823582,-1.81431 2.774275,-2.68148 1.016736,-0.92965 2.026243,-1.86759 3.055475,-2.78338 1.071184,-0.94338 2.184651,-1.83833 3.336477,-2.68105 1.080892,-0.82491 2.204091,-1.58916 3.327265,-2.35426 0.9695,-0.68503 1.940873,-1.36639 2.898691,-2.06791 1.090152,-0.72932 2.138285,-1.51723 3.208327,-2.2749 1.166868,-0.84612 2.240335,-1.80887 3.344246,-2.73309 1.352157,-1.12176 2.750517,-2.18597 4.122477,-3.28335 1.2381,-0.95419 2.46943,-1.9171 3.71734,-2.85844 1.02521,-0.72563 2.00996,-1.50573 3.02937,-2.23917 1.22556,-0.9076 2.45979,-1.80461 3.71195,-2.67534 1.28151,-0.83631 2.49311,-1.77079 3.73166,-2.66764 1.24162,-0.82705 2.40031,-1.76452 3.56787,-2.69099 1.00648,-0.83998 2.04085,-1.64574 3.07627,-2.44952 0.91785,-0.65808 1.82959,-1.32343 2.78433,-1.92739 1.05597,-0.64479 2.05741,-1.37324 3.07619,-2.07421 1.22378,-0.90013 2.49051,-1.73962 3.73742,-2.6074 1.60364,-1.02876 3.14759,-2.14481 4.72696,-3.20927 1.39729,-0.92106 2.69985,-1.97045 4.01869,-2.99729 1.12133,-0.92803 2.27716,-1.81279 3.40262,-2.73564 0.88869,-0.71149 1.69293,-1.51754 2.52878,-2.28792 0.76841,-0.74287 1.59333,-1.42407 2.41131,-2.11108 0.78556,-0.66909 1.57435,-1.33398 2.3569,-2.00664 0.80266,-0.63181 1.5963,-1.27559 2.42287,-1.87613 0.68787,-0.45694 1.33682,-0.96162 1.98153,-1.47659 0.95168,-0.82046 1.89967,-1.64533 2.85195,-2.46514 1.25194,-0.96053 2.42576,-2.00633 3.56346,-3.09744 1.18051,-1.15508 2.26074,-2.40532 3.38973,-3.60944 1.19183,-1.27855 2.39892,-2.54181 3.58622,-3.82458 0.99966,-1.09327 2.07714,-2.10616 3.1963,-3.07489 1.10976,-0.93967 2.21099,-1.88843 3.33435,-2.81181 1.49805,-1.32186 3.01735,-2.62059 4.57884,-3.86701 1.8358,-1.41795 3.65079,-2.86169 5.46274,-4.30991 1.57626,-1.19194 3.02798,-2.52515 4.42382,-3.92051 1.38699,-1.46388 2.74007,-2.95947 4.1238,-4.42631 1.36562,-1.3483 2.76762,-2.65921 4.1995,-3.93676 1.52886,-1.31095 3.08865,-2.58534 4.67734,-3.82301 1.86693,-1.51509 3.823,-2.91533 5.73857,-4.36788 1.75081,-1.28192 3.3851,-2.70744 5.0188,-4.13216 1.45262,-1.27455 2.75596,-2.70295 4.15062,-4.03827 1.37796,-1.34589 2.90447,-2.52686 4.41241,-3.72133 1.26153,-0.91885 2.46672,-1.91034 3.69509,-2.87211 0.96567,-0.72252 1.87428,-1.51403 2.81163,-2.27191 1.08149,-0.86736 2.20286,-1.68629 3.32996,-2.49348 0.9343,-0.63961 1.81156,-1.35683 2.73213,-2.01491 0.59167,-0.48355 1.16046,-0.99304 1.7646,-1.46109 0.17889,-0.21047 0.75707,-0.46732 0.8186,-0.72087 -0.25552,-0.2992 -0.0862,-0.13334 -0.55455,-0.4452 0,0 -0.10301,-0.0474 -0.10301,-0.0474 v 0 c -0.56815,-0.22314 -0.31775,-0.13913 -0.74498,-0.26991 -0.38088,0.10914 -0.57988,0.49873 -0.8782,0.73765 -0.53285,0.51712 -1.09937,0.99774 -1.65886,1.48551 -0.80351,0.74509 -1.66829,1.41961 -2.54473,2.07632 -1.10928,0.84585 -2.22589,1.68239 -3.35117,2.50687 -0.96298,0.73593 -1.93523,1.46036 -2.81319,2.29901 -1.13428,1.02683 -2.33842,1.96834 -3.50027,2.96311 -0.96306,0.81049 -1.94931,1.59825 -2.8772,2.44944 -0.23657,0.21701 -0.46232,0.44557 -0.6973,0.6643 -0.25338,0.23586 -0.51179,0.46624 -0.76768,0.69936 -1.36816,1.34473 -2.7313,2.6944 -4.09247,4.04615 -1.55068,1.46638 -3.18342,2.84222 -4.84876,4.17646 -1.89958,1.48436 -3.8353,2.92343 -5.78268,4.34432 -1.61472,1.23496 -3.2371,2.46222 -4.74937,3.82348 -1.43827,1.27769 -2.87355,2.56298 -4.15411,4.00302 -1.39332,1.4597 -2.7326,2.9701 -4.1558,4.40065 -1.35913,1.38497 -2.80903,2.67132 -4.27078,3.94686 -1.75601,1.5044 -3.58443,2.91849 -5.42626,4.31604 -0.60618,0.45957 -1.22276,0.90535 -1.82822,1.36588 -1.01602,0.77282 -1.97803,1.61511 -3.00574,2.37324 -1.15581,0.91927 -2.34704,1.79531 -3.4439,2.7864 -1.09118,1.00314 -2.13472,2.05285 -3.09408,3.18447 -1.17322,1.29031 -2.33967,2.58809 -3.5666,3.82799 -1.12122,1.2044 -2.26766,2.38486 -3.41333,3.56595 -1.13308,1.07845 -2.34384,2.07166 -3.56501,3.04844 -1.02091,0.78581 -2.03667,1.58122 -3.09548,2.31553 -0.65557,0.4898 -1.31846,0.97073 -1.94645,1.49606 -0.79059,0.65015 -1.60586,1.26968 -2.39588,1.92061 -0.80305,0.65622 -1.57812,1.34417 -2.37702,2.00526 -0.8049,0.70675 -1.62718,1.3946 -2.38266,2.1555 -0.81476,0.76931 -1.65815,1.50819 -2.46323,2.28817 -1.07349,0.94565 -2.1417,1.89945 -3.2617,2.79012 -1.27683,1.04463 -2.60518,2.02475 -3.92213,3.01788 -1.5273,1.13399 -3.11039,2.18907 -4.73128,3.18491 -1.32541,0.80567 -2.63273,1.63416 -3.90433,2.52344 -1.02485,0.70396 -2.09006,1.3432 -3.13369,2.01836 -0.95515,0.62644 -1.90938,1.25487 -2.78303,1.9945 -1.02233,0.80909 -2.02293,1.64255 -3.0103,2.49399 -1.14081,0.9328 -2.31876,1.81818 -3.50135,2.69711 -1.23193,0.90235 -2.50444,1.74727 -3.73045,2.65806 -1.2537,0.89133 -2.51118,1.77805 -3.78581,2.63918 -1.0274,0.73691 -2.09474,1.42109 -3.04374,2.2619 -1.1834,0.98091 -2.34026,1.99326 -3.53854,2.95624 -1.39149,1.09661 -2.818482,2.14724 -4.211365,3.2422 -1.134454,0.89534 -2.267815,1.79342 -3.433341,2.64811 -1.055127,0.77963 -2.153182,1.49849 -3.223729,2.25669 -0.989012,0.66692 -1.978205,1.33114 -2.922846,2.06068 -1.074831,0.81241 -2.183924,1.57866 -3.238342,2.41837 -1.148151,0.87879 -2.318273,1.7309 -3.387285,2.70789 -1.033497,0.91764 -2.023192,1.88021 -3.060126,2.79407 -0.948325,0.89115 -1.91592,1.76217 -2.847666,2.67055 -0.82801,0.82611 -1.660519,1.64755 -2.490816,2.47132 -0.929484,0.87485 -1.880359,1.7333 -2.917598,2.48001 -0.769196,0.58071 -1.550648,1.14404 -2.308407,1.73968 -0.635114,0.49386 -1.255488,1.00134 -1.855018,1.53815 -0.753208,0.59802 -1.492181,1.214 -2.258406,1.79532 -0.93223,0.692 -1.881447,1.36102 -2.812135,2.05526 -0.954788,0.66426 -1.886693,1.35767 -2.781731,2.10163 -0.658868,0.51781 -1.290034,1.07417 -1.975387,1.55562 -0.421198,0.26169 -0.851305,0.51903 -1.317051,0.69342 0,0 0.952659,0.67258 0.952659,0.67258 z" />
    <path
       id="path188"
       style="fill:#003380;stroke:#003380;stroke-width:0.264583"
       d="m 109.30032,253.95809 c 1.62505,1.25633 2.8076,2.96117 4.23458,4.41846 0.0972,1.45627 1.89685,0.85012 2.56454,0.16523 1.18065,-0.83237 2.19848,-1.86466 3.31108,-2.78088 0.66571,-1.60153 -2.20936,-1.5639 -2.68449,-0.35509 -0.7952,0.7612 -1.60141,1.52861 -2.5493,2.0995 0.5807,0.0985 1.95493,0.26145 0.67837,-0.29631 -1.18316,-1.0714 -2.30615,-2.20705 -3.48817,-3.27969 -0.39949,-0.98535 -1.46449,-0.31857 -2.06661,0.0288 z" />
    <path
       id="path190"
       style="fill:#003380;stroke:#003380;stroke-width:0.264583"
       d="m 118.34583,248.57751 c 1.56611,1.47942 2.92615,3.16842 4.46223,4.6699 0.74675,0.44367 2.02473,-0.58873 0.9265,-1.14333 -1.5038,-1.23088 -2.97005,-2.52641 -4.2069,-4.0322 -0.39394,0.16855 -0.78789,0.33708 -1.18183,0.50563 z" />
    <path
       id="path192"
       style="fill:#003380;stroke:#003380;stroke-width:0.264583"
       d="m 118.61557,247.41023 c 0.33122,-0.49128 0.50082,-1.14043 0.0266,-1.59154 -0.19707,-0.6407 -0.78876,-0.0733 -1.22055,-0.0715 -0.39492,0.13132 -0.93664,0.48343 -0.85439,0.95803 0.28817,0.2376 0.73605,0.20786 1.07741,0.38195 0.32226,0.11172 0.64224,0.23111 0.97095,0.32302 z" />
    <path
       id="path194"
       style="fill:#003380;stroke:#003380;stroke-width:0.264583"
       d="m 128.35157,250.4211 c -1.36407,-1.54536 -2.24342,-3.45467 -2.84733,-5.4097 -0.18674,0.73337 -2.2795,0.51381 -0.71346,1.06208 1.82987,1.03068 3.72686,1.97546 5.48708,3.10524 1.50693,0.7056 2.91201,-1.0403 1.58962,-2.24084 -0.94101,-1.6925 -1.4603,-3.55892 -2.1045,-5.36743 -0.38314,-1.76882 -2.74952,-1.3269 -2.03481,0.43561 0.75279,1.78902 1.6629,3.51511 2.15061,5.40359 -0.0261,1.10285 1.70061,0.46273 1.75547,0.35799 -2.23407,-0.67313 -4.37459,-1.76437 -6.21512,-3.20964 -1.16521,-0.67315 -2.77351,0.76594 -1.29595,1.66556 1.13148,1.41122 1.57471,3.60743 3.11425,4.5252 0.39606,0.0284 0.78474,-0.11856 1.11414,-0.32766 z" />
    <path
       id="path196"
       style="fill:#003380;stroke:#003380;stroke-width:0.264583"
       d="m 132.15693,240.92752 c 0.93565,1.16345 1.70712,2.44701 2.436,3.74676 -0.0917,1.11071 1.06613,1.38174 1.85494,0.90339 0.9501,-0.54054 0.95061,-1.85907 1.80893,-2.51889 0.96244,-0.64918 0.32876,-2.06855 -0.78314,-1.60326 -1.1052,0.30138 -1.5048,1.57001 -2.1029,2.42462 -0.24585,0.41516 -0.80066,1.15127 0.0567,0.94056 0.4805,-0.21302 1.50764,0.11047 0.58365,-0.32974 -1.08305,-1.14053 -1.9627,-2.488 -2.60149,-3.9268 -0.41751,0.1211 -0.83548,0.24227 -1.25266,0.36336 z" />
    <path
       id="path198"
       style="fill:#003380;stroke:#003380;stroke-width:0.264583"
       d="m 134.86212,242.46853 c 0.64716,-1.13326 1.30674,-2.25972 1.99862,-3.36636 0.11091,-0.66867 -0.64469,-1.16058 -1.2495,-0.95549 -0.76967,0.0847 -1.03501,0.85378 -1.33745,1.44318 -0.42342,0.76965 -0.90835,1.50477 -1.43869,2.20479 0.67567,0.22464 1.35136,0.44922 2.02702,0.67388 z" />
    <path
       id="path200"
       style="fill:#003380;stroke:#003380;stroke-width:0.264583"
       d="m 133.54048,240.59905 c -0.15806,-0.5118 -0.81127,-1.08681 -0.26453,-1.56057 0.45481,-0.76233 1.00447,-1.46724 1.61041,-2.11525 -0.0921,-0.71724 -1.04997,-0.93495 -1.62645,-0.73674 -0.51103,0.48164 -0.74854,1.19085 -1.21767,1.72011 -0.33818,0.60316 -1.23917,1.14232 -0.88733,1.92857 0.32986,0.49732 0.68216,1.325 1.42884,1.09703 0.32394,-0.10287 0.61378,-0.28053 0.95673,-0.33315 z" />
    <path
       id="path202"
       style="fill:#003380;stroke:#003380;stroke-width:0.264583"
       d="m 139.27455,233.42029 c 0.68382,1.83845 0.82892,3.86041 1.77419,5.60356 0.0671,0.83247 0.83061,1.77245 1.72524,1.28123 0.89751,-0.72245 -0.38918,-1.57478 -0.59849,-2.31246 -0.71985,-1.45271 -1.37662,-2.96496 -1.62165,-4.57935 -0.36436,-0.36565 -0.85708,0.0877 -1.27929,0.007 z" />
    <path
       style="fill:#003380;stroke:#003380;stroke-width:0.264583"
       id="path204"
       d="m 138.60834,233.04709 c 1.43422,0.36172 2.80147,0.97038 4.13133,1.6097 0.67043,0.32898 1.31612,0.70612 1.95414,1.09342 0.38039,0.23092 0.70995,0.43703 1.13173,0.57863 0.37678,0.0917 0.69046,-0.10231 0.99324,-0.29728 0,0 0.11311,-0.008 0.11311,-0.008 v 0 c 0.11062,-0.1183 0.37516,-0.36755 0.4089,-0.54146 0.0119,-0.0613 -0.0602,-0.10934 -0.0904,-0.16401 -0.35556,-0.24343 -0.73469,-0.37775 -1.13011,-0.5486 -0.73323,-0.31681 -1.45738,-0.65518 -2.18552,-0.98334 -0.85859,-0.36803 -1.7161,-0.73974 -2.58151,-1.09159 -0.40103,-0.16304 -0.81101,-0.30411 -1.20851,-0.47557 -0.11621,-0.0501 -0.22712,-0.11172 -0.34069,-0.16758 0,0 -1.19576,0.99573 -1.19576,0.99573 z" />
    <path
       id="path206"
       style="fill:#003380;stroke:#003380;stroke-width:0.264583"
       d="m 142.25925,237.3675 c 0.57249,-1.06809 1.51708,-2.03976 1.52227,-3.32301 0.17591,-0.25475 0.38068,-0.9678 -0.0788,-0.45892 -0.87489,0.53918 -1.86464,1.00083 -2.42794,1.90327 -0.60349,0.38762 -1.25511,1.46935 -0.0889,1.52387 0.36269,0.1016 0.73458,0.18489 1.07337,0.35479 z" />
    <path
       id="path210"
       style="fill:#003380;stroke:#003380;stroke-width:0.264583"
       d="m 150.6704,234.22101 c -1.60506,-1.64883 -2.88936,-3.5771 -4.49532,-5.22508 -0.22513,-0.62014 0.11867,-1.28683 0.50178,-1.76807 0.22812,-0.43195 0.73145,-0.2188 0.584,0.2491 0.18086,0.60609 -0.13939,1.18409 -0.38989,1.72925 -0.3146,0.53237 0.21203,1.02505 0.73294,1.0442 1.59808,0.18566 3.11892,-0.75438 4.7183,-0.43406 0.21336,-0.13868 0.97216,0.22368 0.39603,0.13416 -0.65528,-0.26041 0.38219,-0.60769 0.56215,-0.92166 0.56345,-0.42881 -0.187,-0.90802 -0.64348,-0.78165 -1.82276,0.22479 -3.6385,0.62116 -5.48464,0.55607 0.59339,-0.27695 1.04806,0.35619 1.50965,0.61858 0.56756,0.20781 0.44114,-0.69445 0.5848,-1.00337 0.42327,-1.40042 -0.7368,-2.93637 -2.16426,-3.04763 -1.11047,-0.0964 -2.08782,0.70492 -2.64277,1.60061 -0.58462,0.93853 -0.84696,2.26535 -0.1403,3.21248 0.41142,0.51987 1.05095,0.78291 1.50733,1.25992 1.16066,1.05342 2.07168,2.35401 3.27585,3.36252 0.60569,0.11051 1.05841,-0.39953 1.58783,-0.58537 z" />
    <path
       id="path214"
       style="fill:#aa0088;stroke:#aa0088;stroke-width:0.264583"
       d="m 6.3433495,266.24405 c 10.3767115,-0.73826 20.9218475,1.0878 31.3685785,-0.14586 8.039899,-0.11862 14.971032,-0.0419 21.764506,-0.0296 14.466453,0.35077 28.796647,-2.32969 43.280376,-1.76602 5.21992,-0.15798 19.30169,-0.64043 26.08914,-0.60426 5.37145,0.45933 19.01175,-0.96668 26.10421,-0.72605 2.0552,-2.77422 1.63859,-16.31983 1.09015,-23.52062 -0.44543,-10.94602 -0.20944,-21.93619 -0.39267,-32.89717 0.82741,-10.96613 2.50247,-22.09253 0.75119,-32.95978 -3.82386,2.66547 10.72767,-0.43537 14.38264,0.32328 5.60126,-0.40744 16.71369,1.08923 25.00631,1.06237 9.11912,0.2517 17.96808,-0.24068 29.0853,-0.8748 15.81865,-0.12996 31.591,-1.59453 47.42067,-1.15999 5.91297,0.36945 18.8548,-0.62243 27.29854,-0.78 6.19809,-0.14203 1.81111,0.44737 4.76599,-2.21307 -14.5903,0.7226 -28.91341,1.55842 -42.81445,1.09461 -18.19754,0.86707 -36.42468,1.10193 -54.58524,2.30547 -4.94343,-0.39274 -14.45562,0.39197 -23.48611,-0.92604 -8.66474,-0.48708 -21.87566,-0.29891 -28.10505,0.32685 -4.15715,1.58001 1.71979,15.77548 -1.12269,21.8738 -1.77423,14.94283 -0.49677,29.99268 -0.75538,44.97302 -0.054,6.4556 1.4273,24.72389 0.21684,21.55485 -10.50658,0.29877 -19.49939,1.26173 -28.36206,0.97858 -5.68463,-0.0629 -18.07126,0.65183 -26.515801,0.55483 -13.308034,0.48922 -26.571303,1.92327 -39.900733,1.99726 -6.457865,0.0781 -17.43448,-0.28309 -25.556807,0.27318 -9.669251,1.19836 -17.422836,-1.14891 -28.1016202,0.36778 0.3551392,0.29976 0.7217421,0.62353 1.0741707,0.91742 z" />
    <path
       id="path216"
       style="fill:#aa0088;stroke:#aa0088;stroke-width:0.264583"
       d="m 19.592347,268.72754 c -0.935327,0.91645 -2.262898,1.95071 -2.021134,3.4264 0.04617,0.94096 1.63054,1.02817 1.710959,1.43404 -0.775065,0.85439 -1.884708,1.27516 -2.921769,1.69415 -1.123165,1.04145 1.223991,1.87998 2.022964,1.19258 1.302603,-0.71397 2.905838,-1.63809 3.036074,-3.29162 0.05931,-1.34816 -1.849429,-0.6549 -2.084997,-1.58576 -0.114157,-1.04747 1.816983,-1.38822 1.571848,-2.10131 -0.409419,-0.30366 -0.927572,-0.4329 -1.313945,-0.76848 z" />
    <path
       id="path218"
       style="fill:#aa0088;stroke:#aa0088;stroke-width:0.264583"
       d="m 24.467636,269.62845 c -0.08819,1.76445 -0.314756,3.51832 -0.570578,5.26522 -0.05924,0.88609 1.301172,1.24896 1.671553,0.42129 0.283861,-0.68634 0.0843,-1.45929 0.172483,-2.18185 0.03282,-1.10513 0.09163,-2.21131 0.241188,-3.30751 -0.449496,-0.29671 -1.025616,-0.0526 -1.514646,-0.19715 z" />
    <path
       id="path220"
       style="fill:#aa0088;stroke:#aa0088;stroke-width:0.264583"
       d="m 25.103897,268.99231 c 0.604398,-0.3025 2.267555,0.10861 1.819734,-1.0463 -0.483484,-0.75081 -1.498045,-0.81414 -2.289156,-0.63942 -0.45878,-0.0512 -1.16554,0.32424 -0.471038,0.68678 0.312478,0.33392 0.63933,0.65448 0.94046,0.99894 z" />
    <path
       id="path222"
       style="fill:#aa0088;stroke:#aa0088;stroke-width:0.264583"
       d="m 31.159033,268.65204 c -1.251594,1.19497 -2.976467,2.78111 -2.555113,4.67485 0.872129,1.73903 3.185538,1.94142 4.888316,1.54367 1.117221,-0.30835 2.437989,-0.97747 2.705811,-2.1936 0.286578,-0.67122 -1.317238,-2.26642 -0.976664,-0.9961 0.765542,0.28301 2.196794,-0.85301 0.607699,-0.40753 -0.485164,1.52053 -0.299801,3.32304 -0.36458,4.96746 -0.542317,1.44969 1.760832,2.52301 2.098003,0.90082 -0.215979,-1.57625 -0.374091,-3.16711 -0.169885,-4.75713 0.485439,-1.31201 -0.294952,-2.84574 -1.857151,-2.29137 -0.919832,0.14198 -3.008295,0.68133 -2.089127,1.94534 1.960543,0.70019 -0.82353,2.01149 -1.755561,1.73886 -1.600922,0.0861 -1.870332,-1.6371 -0.858958,-2.58337 0.530045,-0.93395 2.617785,-1.81119 0.594253,-2.3382 l -0.140748,-0.0962 -0.126246,-0.10748 z" />
    <path
       id="path224"
       style="fill:#aa0088;stroke:#aa0088;stroke-width:0.264583"
       d="m 41.256082,274.87777 c -0.305935,-1.6984 -0.261701,-3.44805 0.03069,-5.145 0.194419,0.85744 -1.903843,0.022 -0.575852,0.8571 1.312674,1.21995 2.298808,2.73388 3.308119,4.19544 0.914135,1.04471 2.592604,-0.0796 2.425179,-1.33486 0.128042,-1.84513 0.529936,-3.65612 0.702602,-5.49578 -0.363975,-1.36478 -2.540277,-0.76916 -2.291526,0.60238 -0.09937,1.71914 -0.161319,3.45056 -0.54131,5.1382 0.406844,-0.0411 1.94663,0.16944 0.822264,-0.086 -1.119618,-0.81555 -1.938478,-1.98815 -2.784513,-3.06644 -0.248211,-1.03802 -2.395079,-2.48045 -2.639333,-0.79394 0.203675,1.71884 0.258568,3.45349 0.149217,5.18443 0.4648,-0.0186 0.929778,-0.0366 1.394463,-0.0555 z" />
    <path
       style="fill:#88aa00;stroke:#88aa00;stroke-width:0.264583"
       id="path226"
       d="m 7.5622324,214.37407 c 0.5119235,-0.0857 1.0329096,-0.049 1.5481234,-0.0203 -1.8080143,-0.07 -0.8276399,0.0344 -0.4098499,0.0892 0.2195788,0.0336 0.4418211,0.0488 0.6630286,0.0768 0.2730334,0.0289 0.54667,0.0403 0.8210605,0.0368 0.380407,0.003 0.760241,0.0228 1.140473,0.0346 0.427184,-0.004 0.854326,0.0113 1.281595,0.0162 0.422585,0.0105 0.844863,0.028 1.267287,0.044 0.897724,0.0139 1.794752,0.004 2.692721,-0.002 0.563022,-0.022 1.123921,-0.0795 1.684282,-0.13641 0.470042,-0.0351 0.939302,-0.0867 1.410021,-0.1103 0.421769,-0.002 0.842934,-0.0288 1.264479,-0.0348 0.400658,-0.0261 0.802074,-0.007 1.20287,-0.0133 0.338465,0.007 0.676957,0.004 1.015451,0.003 0.573009,-0.003 0.159659,-6e-5 -0.894454,-0.007 -0.06416,-5.3e-4 0.128325,0.001 0.192478,2.7e-4 0.08811,-0.001 0.176143,-0.006 0.264253,-0.007 0.24263,-0.003 0.333315,0.001 0.576469,0.007 1.082965,0.0453 2.162689,-0.003 3.242648,-0.0609 0.645108,-0.0181 1.288474,-0.0734 1.933771,-0.083 0.508963,-0.009 1.016672,-0.027 1.524736,-0.0595 0.628578,-0.0671 1.255305,-0.14884 1.885013,-0.20682 0.673391,-0.0578 1.347642,-0.10406 2.0231,-0.12821 0.714684,-0.0438 1.430371,-0.0571 2.145913,-0.0771 0.747599,-0.032 1.494827,-0.0795 2.24304,-0.0932 0.201239,0.008 0.402632,-2.7e-4 0.603901,0.004 0.08369,0.002 0.33461,0.008 0.250936,0.01 -2.084263,0.0609 -1.150247,0.0111 -0.677225,0.0224 0.921721,0.0299 1.843923,0.003 2.765864,0.002 0.08769,-0.002 0.175382,-0.004 0.263081,-0.006 0.353623,-0.007 0.591145,-0.008 0.553135,-0.008 -2.023946,-0.0198 -0.881028,-0.009 -0.434494,0.01 0.526082,0.0302 1.052158,0.0233 1.578557,0.0384 0.976641,0.0539 1.954787,0.0274 2.932547,0.0219 0.571312,-0.0191 1.140179,-0.0757 1.711111,-0.10001 0.615079,-0.0186 1.227243,-0.0806 1.842515,-0.0924 0.612291,-0.0147 1.2245,-0.0289 1.836997,-0.0293 0.579837,-0.017 1.160182,-0.009 1.739964,0.001 0.375647,-0.003 0.180295,-0.003 0.548531,2.6e-4 0.08727,8e-4 0.349086,0.001 0.261816,0.002 -2.130139,0.0219 -1.044593,0.007 -0.579919,-0.002 0.60747,0.0109 1.214795,0.0159 1.822307,0.0188 0.726451,0.0276 1.452496,0.0749 2.178227,0.12055 0.798857,0.0749 1.598343,0.0724 2.399274,0.0679 1.347753,0.0429 2.690765,-0.0546 4.036187,-0.0964 0.716568,-0.0188 1.43265,-0.0554 2.149551,-0.0585 0.547545,0.002 1.094722,-0.0198 1.64215,-0.0229 -0.209124,-0.005 0.919956,-0.0135 0.68993,-0.015 -0.305123,-0.002 -1.220499,0.006 -0.915384,0.003 0.786117,-0.008 1.575178,0.003 2.361718,-0.0155 0.70843,-0.005 1.417048,-0.009 2.125263,5.3e-4 0.674683,-0.002 1.349209,-0.0186 2.023928,-0.0179 0.650243,-0.008 1.300321,10e-4 1.95049,0.004 0.646176,-0.007 1.291746,-0.0229 1.937721,-0.0276 0.73302,-0.0169 1.465328,-0.0484 2.198584,-0.0514 0.776819,-0.014 1.553432,-0.0305 2.330439,-0.0321 0.739818,-0.0121 1.481365,-0.005 2.22077,0.0254 0.09763,0.002 0.195244,0.005 0.292886,0.006 1.137033,0.0122 -1.630556,-2.6e-4 -0.472102,-0.004 0.09533,-2.6e-4 0.190667,8e-4 0.285991,0.002 0.08905,0.001 0.178089,0.003 0.267131,0.005 0.491424,0.0104 0.982885,0.0111 1.474394,0.0103 0.872151,0.0149 1.748012,-0.0188 2.618869,0.0252 0.207738,0.004 0.105569,0.003 0.30651,0.003 0.04689,10e-4 0.187565,0.003 0.140665,0.003 -2.29195,0.003 -1.58352,-0.0206 -1.115047,7.9e-4 0.246883,0.0284 0.496428,0.0333 0.74484,0.0412 0.601776,0.007 1.204391,0.005 1.805545,0.0305 0.887709,0.0392 1.775053,0.0817 2.663415,0.10197 1.288899,0.0454 2.574354,-0.0362 3.860213,-0.10154 0.83153,-0.0495 1.660218,-0.13568 2.490774,-0.19726 0.651223,-0.0332 1.300893,-0.0872 1.951393,-0.12988 0.85179,-0.0731 1.69953,-0.18459 2.54763,-0.29089 0.98382,-0.13401 1.96835,-0.26975 2.95711,-0.3619 0.64926,-0.0663 1.29758,-0.13624 1.94905,-0.17509 0.44812,-0.035 0.89462,-0.0807 1.34185,-0.12576 0.72374,-0.12737 1.44922,-0.24827 2.17792,-0.3433 0.76177,-0.0644 1.50903,-0.21346 2.25877,-0.35464 0.56691,-0.10326 1.14146,-0.15201 1.71018,-0.24324 0.69185,-0.12878 1.37873,-0.28043 2.06785,-0.42253 0.53805,-0.12304 1.0821,-0.21559 1.62396,-0.31911 0.48302,-0.0929 0.95678,-0.23138 1.42849,-0.36997 0.35582,-0.18784 0.73235,-0.24856 1.12249,-0.30588 0.42644,-0.0604 0.83135,-0.2092 1.25122,-0.29988 0.44469,-0.0986 0.87508,-0.25181 1.30169,-0.40934 0.66182,-0.30602 1.35073,-0.54675 2.03736,-0.79042 0.67168,-0.23091 1.31796,-0.52041 1.97098,-0.79745 0.51909,-0.23974 1.04495,-0.46309 1.57153,-0.68553 0.75424,-0.34155 1.48397,-0.7349 2.24668,-1.05726 0.60429,-0.23735 1.20702,-0.48213 1.82183,-0.69133 0.45852,-0.10998 0.8582,-0.35053 1.28542,-0.53967 0.66243,-0.32233 1.33571,-0.61086 1.98168,-0.96638 0.6189,-0.31512 1.19418,-0.70501 1.79582,-1.0492 0.47816,-0.23444 0.89737,-0.54876 1.30828,-0.88316 0.24739,-0.16225 0.46701,-0.44983 0.75963,-0.53545 0.0858,0.005 0.20408,-0.0324 0.27386,-0.0853 0.0729,-0.0493 0.0956,-0.14862 0.16112,-0.20334 0.003,-0.002 -0.0164,0.0728 0.0596,-0.0274 0.29492,-0.27403 0.63307,-0.50065 0.95923,-0.73768 0.51267,-0.36165 1.05885,-0.67013 1.57356,-1.02869 0.32229,-0.28243 0.69031,-0.50027 1.01445,-0.78001 0.38259,-0.375 0.82498,-0.67488 1.2729,-0.96555 0.58466,-0.37541 1.16443,-0.75802 1.76884,-1.10126 0.57551,-0.32532 1.14066,-0.6673 1.71464,-0.99521 0.65939,-0.4105 1.34893,-0.76882 2.03565,-1.13071 0.62425,-0.37021 1.28234,-0.67528 1.92294,-1.0135 0.55632,-0.29708 1.1042,-0.60356 1.64855,-0.9224 0.61645,-0.37961 1.27723,-0.67496 1.93967,-0.96322 0.71976,-0.33297 1.42456,-0.68923 2.10196,-1.10183 0.54474,-0.34511 1.09333,-0.6842 1.63375,-1.03614 0.41247,-0.20281 0.73456,-0.51203 1.07273,-0.81164 0.38541,-0.33694 0.79201,-0.64603 1.20417,-0.94879 0.37044,-0.26639 0.71303,-0.56896 1.0693,-0.85361 0.39336,-0.2918 0.78859,-0.57355 1.16053,-0.89314 0.37039,-0.30388 0.79131,-0.538 1.19564,-0.79324 0.36738,-0.22586 0.68816,-0.51417 1.02624,-0.77946 0.30424,-0.26531 0.67737,-0.4253 1.02895,-0.61516 0.54719,-0.35278 1.11654,-0.66523 1.70576,-0.94181 0.56959,-0.24789 1.15817,-0.44675 1.74044,-0.6615 0.57566,-0.20585 1.15846,-0.38564 1.7524,-0.53019 0.53922,-0.0971 1.05715,-0.25359 1.57915,-0.41524 0.50258,-0.13074 0.99261,-0.28326 1.46638,-0.49694 0.63801,-0.32322 1.29507,-0.60519 1.972,-0.83533 0.6964,-0.21732 1.40171,-0.4103 2.1177,-0.55106 0.45487,-0.0838 0.91487,-0.14404 1.3662,-0.24548 0.39643,-0.0977 0.79778,-0.16999 1.20136,-0.23043 0.5394,-0.10162 1.07715,-0.21101 1.6201,-0.29234 0.4762,-0.0414 0.94454,-0.13322 1.41431,-0.21725 0.51294,-0.0755 1.03147,-0.0925 1.54893,-0.10656 0.59087,-0.0122 1.18183,-0.0197 1.77289,-0.0223 0.54725,0.004 0.92708,0.006 -0.78197,0.0102 -0.10463,2.6e-4 0.20923,-0.006 0.31386,-0.006 0.27971,8e-4 0.56015,0.0111 0.83983,0.0168 1.05741,0.0573 2.10195,-0.02 3.15007,-0.12124 0.59374,-0.0613 1.18962,-0.0965 1.78349,-0.15717 0.75366,-0.0517 1.50593,-0.11554 2.25867,-0.17922 0.84405,-0.082 1.68807,-0.13585 2.52916,-0.24512 0.82792,-0.11643 1.65544,-0.23542 2.48412,-0.3465 0.57477,-0.0644 1.15107,-0.11022 1.72773,-0.15281 0.44375,-0.037 0.88799,-0.0608 1.33313,-0.0716 0.65024,-0.0295 1.29954,-0.0743 1.94986,-0.10168 0.63358,-0.0206 1.26489,-0.0565 1.89902,-0.0582 0.52931,-0.0245 1.05823,-0.0509 1.58765,-0.0742 0.72901,-0.0431 1.45803,-0.0731 2.18798,-0.0941 0.93058,-0.0144 1.86066,-0.0426 2.79085,-0.0729 0.73021,-0.0219 1.46084,-0.019 2.19064,-0.0533 0.54509,-0.0317 1.08888,-0.0836 1.63201,-0.14042 0.75519,-0.0757 1.50985,-0.15687 2.26351,-0.24703 0.97795,-0.0844 1.95403,-0.18275 2.93133,-0.27435 0.91338,-0.0782 1.81853,-0.21686 2.72719,-0.33401 0.80508,-0.0769 1.60636,-0.18739 2.41126,-0.26582 0.80469,-0.10731 1.6146,-0.16218 2.42381,-0.22243 0.98149,-0.0531 1.96314,-0.0973 2.94498,-0.14358 0.93234,-0.0525 1.86582,-0.0773 2.79868,-0.1179 0.52755,-0.0339 3.18571,-0.0126 0.59592,-0.0211 1.34164,0.0234 2.68286,-0.009 4.0249,-0.0209 1.293,-0.0314 2.58456,-0.0959 3.87756,-0.13037 1.16774,-0.0695 2.33763,-0.0374 3.50647,-0.032 0.51408,0.005 1.02765,-0.019 1.54182,-0.0188 0.0419,-0.004 0.0838,-0.009 0.12585,-0.0112 0.0765,-0.004 0.19404,-0.0179 0.27036,0.001 0.0139,0.004 0.0501,0.0237 0.0357,0.024 -0.50335,0.008 -1.00683,-7.9e-4 -1.51024,-0.001 1.26909,0.0716 2.48256,-0.12253 3.74277,-0.18812 1.4889,-0.0509 2.9787,-0.0553 4.46831,-0.0547 -0.15599,0.004 -0.62162,-0.0156 -0.46796,0.0115 0.002,2.6e-4 1.34645,0.051 1.35292,0.0514 0.57736,0.0289 1.15391,0.0781 1.73022,0.12236 0.87259,0.0689 1.74831,0.10383 2.6234,0.12224 1.30355,0.0273 2.60628,-0.006 3.90933,-0.0298 0.46297,0.0254 1.96858,-0.0304 -0.24516,0.0152 -0.11142,0.002 0.22272,0.007 0.33411,0.0112 0.40492,0.0134 0.2285,0.008 0.6282,0.0173 0.57653,0.0216 1.15329,0.0226 1.7299,0.0356 1.15406,0.0906 2.29164,-0.0329 3.43702,-0.11949 0.7612,-0.0292 1.52299,-0.0309 2.28465,-0.0352 0.13338,-7.9e-4 0.26675,-0.002 0.40013,-0.002 0.42897,-2.6e-4 0.85786,0.008 1.28683,0.005 0.16139,-0.001 0.6455,-0.005 0.48413,-0.007 -0.34174,-0.006 -0.68355,-0.001 -1.02534,-0.002 1.05021,-0.0221 2.09936,0.0108 3.14735,0.0751 0.96266,0.0916 1.91918,0.23652 2.87867,0.35635 0.88252,0.12719 1.76009,0.28041 2.64287,0.40673 0.65979,0.11623 1.32281,0.20198 1.99035,0.25698 1.15158,0.15858 2.28108,0.0216 3.4172,-0.1065 0.61317,-0.10591 1.23283,-0.1687 1.85161,-0.23195 0.73731,-0.0608 1.47481,-0.13144 2.21403,-0.16698 0.90459,-0.10219 1.80973,-0.18743 2.71804,-0.24828 0.8182,-0.0467 1.63782,-0.0669 2.45732,-0.072 -2.94114,-0.0323 -0.27776,0.0179 0.40984,0.0762 0.25069,0.0224 0.50175,0.0697 0.75366,0.0658 0.23905,0.0352 0.47993,0.0461 0.72089,0.061 0.26299,0.0704 0.43084,0.0714 0.6568,-0.0829 0.2694,-0.10237 0.28956,-0.43478 0.48924,-0.59702 0.0935,-0.076 0.23283,-0.0619 0.34925,-0.0929 0,0 0.11247,-0.0145 0.11247,-0.0145 v 0 c 0.0984,-0.10681 0.21154,-0.20176 0.29531,-0.32043 0.64783,-0.91781 -0.0608,-0.10581 0.412,-0.62777 0.18206,-0.24588 -0.004,-0.17606 -0.19917,-0.23716 -0.24019,-0.0858 -0.48562,-0.15248 -0.73936,-0.18239 -0.31755,-0.0842 -0.65521,-0.0817 -0.98147,-0.0719 -1.34905,0.008 -2.69843,-0.0727 -4.04775,-0.0179 -0.84572,0.0156 -1.6891,0.0612 -2.53066,0.14929 -0.90035,0.0919 -1.80142,0.17938 -2.70666,0.20419 -0.76388,0.0525 -1.52908,0.0766 -2.28981,0.1692 -0.62942,0.0574 -1.25532,0.14682 -1.88582,0.18815 -0.25329,0.0185 -0.50975,0.0439 -0.76398,0.0418 -0.0729,-5.3e-4 -0.29126,-0.0121 -0.21837,-0.012 1.98507,0.004 2.10127,-0.005 1.34843,0.0253 -0.65821,0.0254 -1.31863,0.0117 -1.97451,-0.0519 -0.91591,-0.0985 -1.83044,-0.20703 -2.74619,-0.30669 -0.99846,-0.12006 -1.99882,-0.22575 -3.00024,-0.31776 -1.08027,-0.0986 -2.16151,-0.12883 -3.24607,-0.11445 -1.41343,-0.001 -2.82665,-0.0186 -4.23992,0.006 -0.77142,0.0168 -1.54366,0.0454 -2.30994,0.14084 -0.57949,0.0528 -3.05332,0.14842 -0.38003,0.0918 -0.5825,0.01 -1.16527,0.006 -1.74786,0.009 -1.18949,-0.01 -2.37987,-0.0196 -3.56843,0.0281 -0.2843,0.005 -0.56852,0.0142 -0.85286,0.015 -0.14531,5.2e-4 -0.58121,-0.005 -0.4359,-0.005 2.11682,-0.006 0.6182,0.0119 0.17507,0.004 -0.88844,-5.3e-4 -1.77615,-0.0253 -2.66459,-0.0234 -1.72459,-0.0114 -3.44667,-0.11573 -5.17207,-0.0677 -1.51605,0.004 -3.03201,0.002 -4.54784,-0.0275 -0.64759,-0.0219 -4.23565,-0.19516 -0.88301,-0.15276 -0.84137,-0.002 -1.38759,-0.052 -2.11036,0.0745 -0.44744,0.0679 -0.89518,0.13069 -1.34712,0.16139 -1.11804,0.0814 -2.23608,0.17348 -3.35743,0.19335 -1.3131,0.039 -2.62574,0.0462 -3.93925,0.0231 0.26552,-0.003 0.53169,0.009 0.79656,-0.01 0.16272,-0.0116 -0.32626,-0.005 -0.48927,-0.0119 -0.39898,-0.016 -0.79945,-0.0249 -1.19826,-0.0449 -0.12047,-0.006 -0.24065,-0.0168 -0.36098,-0.0252 -1.16825,-0.0122 -2.32918,-0.0434 -3.49112,0.0879 -0.90859,0.0684 -1.8171,0.13816 -2.72779,0.17251 -0.99331,0.0432 -1.9871,0.0588 -2.97896,0.13245 -0.84832,0.0405 -1.69337,0.10306 -2.53605,0.21267 -0.79207,0.12251 -1.59066,0.19084 -2.38253,0.31449 -0.88466,0.12848 -1.7711,0.24261 -2.65971,0.34096 -0.98076,0.10178 -1.96403,0.16956 -2.94683,0.24878 -0.78043,0.0524 -1.56102,0.097 -2.34172,0.14399 -0.53827,0.0319 -1.07598,0.0687 -1.61327,0.11392 -0.69492,0.0448 -1.38797,0.11199 -2.08404,0.13801 -0.92584,0.0375 -1.85247,0.0524 -2.7791,0.047 -0.75866,3e-5 -1.5171,0.006 -2.27554,0.0245 -0.54284,0.01 -1.08491,0.0261 -1.62698,0.0587 -0.61438,0.0568 -1.22852,0.0932 -1.84526,0.11375 -0.65775,0.0301 -1.31607,0.0493 -1.9746,0.045 -0.47285,0.015 -0.94236,0.0562 -1.41135,0.11898 -0.5593,0.0714 -1.11082,0.18483 -1.66565,0.284 -0.81075,0.11946 -1.61675,0.27292 -2.43295,0.35283 -0.83445,0.0791 -1.67013,0.14844 -2.50619,0.20837 -0.7643,0.051 -1.52913,0.0904 -2.29319,0.14517 -0.61268,0.0322 -1.2251,0.0611 -1.8353,0.12748 -0.26915,0.0236 -0.53825,0.0404 -0.80833,0.0496 -0.0891,0.003 -0.35666,0.006 -0.26748,0.006 1.80099,-0.001 1.38356,-0.004 0.86351,-0.009 -1.06474,0.0196 -2.12932,0.0111 -3.19434,0.0195 -0.61607,-0.001 -1.23182,-0.0104 -1.84745,0.0205 -0.55118,0.0362 -1.09813,0.10993 -1.64372,0.19562 -0.47856,0.0646 -0.95708,0.12968 -1.42942,0.2321 -0.53737,0.1069 -1.07775,0.20067 -1.62241,0.26122 -0.42787,0.0695 -0.84834,0.17198 -1.27342,0.25594 -0.44555,0.0905 -0.88279,0.21882 -1.31988,0.34295 -0.71514,0.21709 -1.43028,0.43307 -2.13615,0.67933 -0.68974,0.25082 -1.36017,0.5467 -2.05001,0.79486 -0.49019,0.13732 -0.98393,0.26054 -1.46631,0.42457 -0.49708,0.161 -1.00831,0.2701 -1.51058,0.41384 -0.60243,0.18425 -1.19244,0.40345 -1.78624,0.6135 -0.62428,0.21371 -1.22717,0.48004 -1.81602,0.77785 -0.59151,0.30648 -1.16883,0.63913 -1.77192,0.92282 -0.43281,0.21528 -0.83599,0.47097 -1.20338,0.7874 -0.30097,0.24289 -0.60831,0.47782 -0.93096,0.69156 -0.43205,0.28319 -0.86445,0.56525 -1.24955,0.91249 -0.39796,0.29873 -0.8117,0.57613 -1.20565,0.88025 -0.32975,0.27647 -0.64012,0.57562 -0.9867,0.83161 -0.43366,0.32506 -0.85987,0.66021 -1.28414,0.99754 -0.30788,0.25171 -0.64538,0.46632 -0.9586,0.71205 -0.50515,0.34461 -1.00239,0.7009 -1.52554,1.0174 -0.65861,0.36225 -1.32134,0.72078 -2.01636,1.00913 -0.70044,0.31563 -1.39314,0.64408 -2.06047,1.0267 -0.53979,0.3033 -1.09421,0.5778 -1.62751,0.89298 -0.62911,0.3397 -1.24422,0.70549 -1.87456,1.04338 -0.69553,0.37249 -1.38512,0.75393 -2.07394,1.139 -0.59358,0.32918 -1.19431,0.64346 -1.76862,1.00622 -0.58828,0.37894 -1.15683,0.7875 -1.75785,1.14684 -0.49826,0.32035 -0.9918,0.645 -1.4552,1.01536 -0.31609,0.24175 -0.61265,0.50697 -0.93549,0.73952 -0.47869,0.35768 -0.94971,0.72675 -1.45855,1.04175 -0.41314,0.24729 -0.85145,0.45232 -1.25143,0.72124 -0.0449,0.0319 -0.13641,0.17614 -0.10018,0.0228 -0.11423,0.0591 -0.23402,0.15572 -0.32701,0.25312 -0.20138,0.23205 -0.43216,0.43814 -0.67413,0.62707 -0.37657,0.28789 -0.77085,0.54969 -1.17539,0.79726 -0.55148,0.36073 -1.10736,0.71414 -1.69212,1.01967 -0.64822,0.31619 -1.31938,0.58788 -1.99419,0.8416 -0.44155,0.17727 -0.89762,0.30793 -1.32833,0.51151 -0.55367,0.28363 -1.10888,0.56431 -1.67564,0.82122 -0.7624,0.35106 -1.53032,0.69343 -2.32699,0.96036 -0.53818,0.21557 -1.05148,0.48025 -1.57838,0.72094 -0.61537,0.28588 -1.24756,0.53121 -1.88433,0.76523 -0.67982,0.25449 -1.36177,0.51352 -2.06335,0.70093 -0.43346,0.11091 -0.87086,0.20498 -1.30371,0.31803 -0.39678,0.1147 -0.80117,0.18893 -1.20723,0.26247 -0.40417,0.10099 -0.77721,0.28038 -1.17916,0.38688 -0.44178,0.12505 -0.8844,0.24368 -1.33819,0.31802 -0.53236,0.11163 -1.05875,0.24387 -1.58412,0.38449 -0.67045,0.15593 -1.35304,0.26271 -2.03778,0.33212 -0.5802,0.0719 -1.15379,0.18336 -1.72217,0.32046 -0.71637,0.15025 -1.44294,0.24134 -2.1677,0.34128 -0.73638,0.0978 -1.47596,0.19715 -2.21911,0.21842 -0.4648,0.0291 -0.93007,0.0578 -1.38971,0.13653 -0.61147,0.11033 -1.22507,0.20844 -1.83893,0.30465 -0.96495,0.15861 -1.93576,0.29137 -2.9096,0.38078 -0.86499,0.0787 -1.73122,0.1383 -2.59951,0.16599 -0.649847,0.0411 -1.296581,0.0981 -1.941855,0.18949 -0.814665,0.0947 -1.633265,0.14797 -2.452425,0.18597 -0.413705,0.0305 -0.826043,0.0574 -1.240708,0.0711 -0.140266,0.005 -0.280551,0.009 -0.420838,0.0125 -0.13942,0.004 -0.557615,0.005 -0.418283,0.0109 0.27622,0.0125 0.552979,0.005 0.829469,0.008 -0.861679,0.0156 -1.722451,-0.0156 -2.580764,-0.0964 -0.574861,-0.0481 -1.147856,-0.10643 -1.723642,-0.14606 -0.22724,-0.0155 -0.451429,-0.0447 -0.678571,-0.0573 -0.732629,-0.0771 -1.47111,-0.0309 -2.206673,-0.0258 -0.569299,0.0315 -0.0173,-0.002 1.035431,0.0125 0.0688,10e-4 -0.13743,0.007 -0.206195,0.009 -0.242218,0.008 -0.484841,0.01 -0.727104,0.003 -0.497232,-8e-4 -0.994413,-1.2e-4 -1.491567,0.0101 -1.000917,0.0181 -2.002304,-0.0139 -3.003206,0.009 -0.724742,0.0332 -1.451613,0.04 -2.176974,0.0381 -0.781835,0.0111 -1.563587,0.019 -2.345449,0.0256 -0.737364,0.0189 -1.47492,0.0237 -2.212522,0.0237 -0.649129,0.005 -1.29789,0.0114 -1.947199,0.005 -0.647716,0.004 -1.295384,0.0145 -1.943168,0.0164 -0.672233,0.0115 -1.344581,0.0168 -2.016909,0.0159 -0.705392,0.013 -1.411007,0.0137 -2.116695,0.0224 -0.123675,-5.3e-4 -0.247359,-0.003 -0.371028,-0.002 -0.113893,0.001 -0.455446,0.009 -0.341548,0.0103 0.301903,0.003 1.207651,-0.004 0.905735,-0.005 -0.783458,-0.003 -1.567141,0.0139 -2.350387,-0.0116 -0.568441,5e-5 -1.137965,-0.0211 -1.705075,0.0312 -0.678439,0.0668 -1.356424,0.1422 -2.037763,0.17319 -0.63164,0.037 -1.259874,0.0375 -1.89217,0.0468 -0.144738,0.002 -0.578885,0.007 -0.43415,0.01 0.257297,0.004 0.514657,-0.003 0.771986,-0.004 -0.777288,-0.007 -1.554554,-0.0346 -2.331845,-0.0517 -0.721971,-0.041 -1.442227,-0.11551 -2.162677,-0.17807 -0.597615,-0.0384 -1.196861,-0.0395 -1.795095,-0.0677 -0.963094,-0.0633 -1.92854,-0.008 -2.892904,-0.0161 -0.579564,0.0126 -1.1591,0.0255 -1.739021,0.0264 -0.617559,0.0216 -1.235229,0.028 -1.852507,0.0586 -0.616376,0.045 -1.234019,0.0569 -1.851189,0.0873 -0.558948,0.0304 -1.118629,0.07 -1.678564,0.0633 -0.919933,0.003 0.648634,-0.002 0.743034,-0.003 0.08587,-8e-4 -0.171725,-0.004 -0.257603,-0.004 -0.252532,5.3e-4 -0.505124,0.009 -0.757621,-0.005 -0.533842,-0.0212 -1.066165,-0.0418 -1.600595,-0.0312 -1.012827,-0.005 -2.025917,-0.0306 -3.039025,-0.0254 -0.466257,0.009 -1.532707,0.0189 0.57739,-0.002 0.691279,-0.007 -1.336352,0.003 -0.651632,-0.0111 -0.946782,-0.0201 -1.896605,-0.039 -2.838783,0.0697 -0.736275,0.0548 -1.474655,0.0939 -2.213055,0.0991 -0.722188,0.0211 -1.443834,0.0572 -2.165646,0.0892 -0.687877,0.0442 -1.376437,0.0786 -2.061199,0.16097 -0.624465,0.0645 -1.249926,0.12754 -1.877928,0.14205 -0.501965,0.0195 -1.003446,0.0365 -1.503831,0.0834 -0.62489,0.0563 -1.251102,0.0973 -1.877583,0.13127 -0.337651,0.0111 -0.675947,0.0214 -1.013603,0.028 -0.109766,0.002 -0.43914,-10e-4 -0.329355,-0.002 0.382082,-0.002 1.400502,-7.9e-4 0.591376,-0.002 -0.889001,-0.0169 -1.774484,-0.1391 -2.666776,-0.0668 -0.341204,-0.001 -0.682565,-0.004 -1.023543,0.0114 -0.396032,0.005 -0.791001,0.048 -1.187393,0.0499 -0.43511,0.0164 -0.87136,0.0171 -1.303908,0.0753 -0.468598,0.0508 -0.938963,0.0853 -1.406203,0.14919 -0.532242,0.0549 -1.06554,0.1005 -1.601417,0.0827 2.095882,-0.0126 0.284143,0.002 -0.199733,-0.0191 -0.42644,-0.003 -0.852692,-0.0211 -1.279093,-0.0284 -0.428813,-0.0159 -0.857793,-0.0165 -1.286653,-0.0293 -0.365615,0.002 -0.732245,0.008 -1.096459,-0.0291 -0.28121,-0.029 -0.561482,-0.0194 -0.843718,-0.0105 -0.251549,0.008 -0.501704,-0.0212 -0.7516006,7.9e-4 -0.612285,0.0353 -1.2253518,0.003 -1.8386129,0.0324 -0.4996653,0.0607 -1.001763,0.13084 -1.5063768,0.0819 0,0 1.0247367,1.14953 1.0247367,1.14953 z" />
    <path
       style="fill:#165016;stroke:#165016;stroke-width:0.264583"
       id="path230"
       d="m 5.8039232,216.15108 c -1.9085787,-0.084 0.0044,-0.009 0.4261086,0.0271 0.2767941,0.005 0.548232,0.0147 0.8226073,0.0536 0.257117,0.0488 0.5168775,0.0813 0.7733945,0.12989 0.2820228,0.0563 0.5667986,0.0881 0.8517342,0.12312 0.3565234,0.0374 0.7148169,0.0549 1.0730013,0.0685 0.4911539,0.0224 0.9828169,0.0421 1.4728249,0.0834 0.4224,0.0392 0.846529,0.0369 1.270173,0.0471 0.907506,0.045 1.816349,0.0307 2.724625,0.0225 0.328472,5.3e-4 0.166825,-0.001 0.484942,0.005 0.07689,-5.2e-4 0.307542,-0.002 0.230656,-0.001 -1.973011,0.009 -1.086756,-0.007 -0.646619,0.0179 0.430967,0.0106 0.86073,0.0462 1.291525,0.0591 0.678437,0.0537 1.348997,-0.008 2.024094,-0.0282 0.195931,-0.006 0.783965,-0.0106 0.587947,-0.0116 -0.308543,-0.002 -0.617094,5.3e-4 -0.925641,8e-4 0.524812,-0.002 1.049625,-0.004 1.574437,-0.007 0.108654,5.2e-4 0.434601,-5.3e-4 0.325961,0.001 -0.312553,0.005 -0.625258,1.9e-4 -0.93774,0.009 -0.09669,0.003 0.193444,0.004 0.290034,0.009 0.189248,0.01 0.460369,0.0358 0.647631,0.0524 1.16302,0.0166 2.32617,0.009 3.489153,0.0308 0.59785,-0.0186 2.544199,0.001 -0.06326,0.003 0.887212,0.003 1.774179,0.0233 2.661585,0.009 0.417007,-0.006 0.832872,-0.0311 1.25004,-0.0373 0.579051,-0.0158 1.15815,-0.0306 1.73732,-0.0413 0.753163,-0.0227 1.501299,-0.10134 2.249909,-0.17934 0.694454,-0.0552 1.390279,-0.0909 2.084461,-0.14904 0.598384,-0.057 1.197102,-0.0993 1.797055,-0.13517 0.72748,-0.0653 1.45873,-0.0935 2.188906,-0.10046 -0.289237,-1.4e-4 -0.578493,-0.004 -0.867709,-5.3e-4 -0.137932,0.002 0.27585,0.005 0.413793,0.006 0.58902,0.002 1.174623,0.0174 1.763313,0.036 0.804256,0.026 1.608391,0.0414 2.413047,0.0481 0.756023,-0.007 1.512097,9e-5 2.267744,0.0244 0.650907,0.0205 1.301258,0.0536 1.951977,0.0791 0.560303,0.002 1.11897,0.0216 1.678471,0.0491 0.48064,0.0307 0.961668,0.0258 1.442839,0.0265 0.529503,-0.021 1.057773,0.012 1.586178,0.04 0.968004,0.0448 1.938824,0.0327 2.907307,0.0329 0.570402,-0.0263 1.14149,-0.0374 1.712362,-0.0495 0.743985,-0.0164 1.488033,-0.0202 2.232145,-0.0224 0.424478,0.0193 1.796441,0.003 -0.22102,0.003 -0.120637,-2e-5 0.241215,0.007 0.361852,0.007 1.603573,-7.9e-4 1.200676,0.008 2.103035,-0.0194 0.814621,-0.0398 1.628783,-0.0881 2.443615,-0.12414 0.760225,-0.0341 1.520619,-0.0509 2.281529,-0.0586 0.110146,5.3e-4 0.220292,0.001 0.330438,0.002 0.106807,0.002 0.213598,0.006 0.320421,0.006 0.106272,7.9e-4 0.425093,-0.002 0.318823,-0.002 -2.137688,0.0165 -0.905391,0.011 -0.439235,0.006 0.680225,2.6e-4 1.360493,-0.0102 2.040652,0.001 0.651711,0.0185 1.302861,0.0518 1.953188,0.098 0.678619,0.0267 1.356125,0.0731 2.033519,0.12139 0.81122,0.0231 1.621017,0.0744 2.432198,0.0986 1.246034,0.0497 2.493873,0.0501 3.740764,0.0442 0.445386,-7.9e-4 0.245681,-5e-5 0.683834,-0.003 0.113596,-5.3e-4 0.454385,-0.002 0.340786,-0.002 -2.057659,-0.003 -0.786074,0.007 -0.338688,0.0145 1.155888,0.001 2.311866,0.0189 3.467457,-0.008 0.734182,-0.019 1.468652,-0.0229 2.202728,-0.0414 0.774705,-0.0534 1.549926,-0.0935 2.325269,-0.13619 0.866638,-0.0491 1.734286,-0.07 2.601614,-0.1027 0.800232,-0.0215 1.600464,-0.0231 2.400869,-0.0185 0.716531,-0.0141 1.433118,-0.0118 2.149763,-0.0117 0.740598,0.01 0.308388,0.003 -0.643755,0.003 -0.116255,9e-5 0.232511,5.3e-4 0.348758,0.002 0.345646,0.004 0.691205,0.0121 1.036865,0.0157 0.843923,0.003 3.503075,0.005 1.063339,-0.002 -0.120928,-2.6e-4 0.241856,-0.001 0.362781,-2e-4 0.247936,0.002 0.495837,0.006 0.743757,0.01 0.98724,0.0159 1.973842,0.005 2.961478,-0.0101 0.285293,-0.004 -0.570658,-2e-5 -0.855972,0.003 -0.147454,0.001 0.294924,8e-4 0.442386,0.001 0.758788,0.0208 1.517373,0.0446 2.276037,0.0683 0.47092,0.0139 0.94122,0.0352 1.41138,0.0652 0.36471,0.0257 0.73159,0.0251 1.0973,0.0288 0.49779,-0.0205 0.99465,-0.0203 1.4921,0.008 0.78105,0.0411 1.56385,0.0471 2.34587,0.0449 1.48315,-0.0216 2.96722,-0.0187 4.44964,-0.0753 0.97504,-0.0294 1.94972,-0.0671 2.92439,-0.10763 0.58097,-0.0293 1.16029,-0.0781 1.74193,-0.0933 0.60232,-0.015 2.31658,0.01 -0.3021,5.3e-4 0.46805,-0.0139 0.9361,-0.006 1.40424,-0.005 0.57031,-8e-4 1.13691,0.0626 1.70528,0.0976 1.12823,0.0469 2.26174,0.0236 3.3904,0.0171 0.91504,-0.0339 1.82934,-0.0609 2.7441,-0.0994 1.06504,-0.0484 2.12831,-0.11923 3.19374,-0.16087 0.93369,-0.0377 1.86657,-0.0962 2.79847,-0.16527 0.69995,-0.0464 1.40164,-0.0609 2.10295,-0.0515 0.49986,0.006 1.62783,0.0212 -0.65117,5.3e-4 -0.0962,-7.9e-4 0.19241,-0.002 0.2886,-5.3e-4 0.12019,0.002 0.57753,0.0191 0.68394,0.023 0.88754,0.01 1.77336,0.0468 2.65967,0.0956 0.78757,0.0408 1.57206,0.12043 2.35963,0.1611 1.08876,0.10285 2.18001,0.0931 3.2726,0.096 0.40904,7.9e-4 0.81739,0.0281 1.22506,-0.011 0.47399,-0.0783 0.95489,-0.0933 1.43259,-0.13749 0.60498,-0.0589 1.21108,-0.10498 1.81671,-0.15643 0.74542,-0.0942 1.49317,-0.15434 2.24347,-0.19058 0.90573,-0.0545 1.81341,-0.0709 2.72064,-0.085 0.58037,0.0121 3.31676,0.0118 0.53422,0.0312 0.56348,-0.0181 1.12593,0.0226 1.68908,0.0356 0.53432,0.0272 1.07165,0.0606 1.60179,0.13606 0.18802,0.005 0.36088,0.0831 0.54124,0.12103 1.33151,0.0211 1.56147,0.35165 2.25197,-0.2811 0.19384,-0.11281 0.32841,-0.27611 0.45404,-0.45848 0.1332,-0.17453 0.30627,-0.37455 0.5163,-0.45485 0.27444,-0.0786 0.40039,-0.38232 0.57843,-0.58801 0.27036,-0.30556 0.62194,-0.50955 0.98049,-0.6932 0.2159,-0.0617 0.29336,-0.25793 0.4057,-0.42861 0.19554,-0.28736 0.44977,-0.53021 0.69245,-0.77724 0.27352,-0.25537 0.54715,-0.51055 0.81692,-0.7698 0.18717,-0.21812 0.33892,-0.46343 0.51468,-0.69363 0.38008,-0.47821 0.80153,-0.91859 1.2348,-1.34806 0.37022,-0.35844 0.65359,-0.78553 0.97596,-1.18315 0.33156,-0.33324 0.58742,-0.72601 0.87844,-1.09247 0.55749,-0.69072 1.10071,-1.38917 1.6887,-2.05487 0.63182,-0.79986 1.33143,-1.54027 2.01136,-2.29774 0.36328,-0.35775 0.699,-0.74174 1.05267,-1.10862 0.19392,-0.26668 0.35262,-0.55405 0.548,-0.8225 0.55738,-0.73238 1.187,-1.40393 1.82749,-2.06331 0.54196,-0.52943 1.12695,-1.01308 1.71061,-1.49555 0.26612,-0.18001 0.44005,-0.44484 0.65758,-0.67145 0.52216,-0.53977 1.02991,-1.09344 1.55604,-1.6294 0.61477,-0.6203 1.25637,-1.21209 1.91226,-1.78836 0.28887,-0.31886 0.67386,-0.52151 0.99936,-0.79201 0.26503,-0.28256 0.53699,-0.55454 0.82206,-0.82023 0.81626,-0.76322 1.69549,-1.4518 2.59082,-2.11892 0.91368,-0.67511 1.8477,-1.32342 2.78108,-1.97118 0.40918,-0.33974 0.94075,-0.49269 1.36295,-0.80615 0.29487,-0.35553 0.57323,-0.71643 0.90304,-1.04176 0.68618,-0.70991 1.43227,-1.35651 2.14471,-2.03864 0.64952,-0.57421 1.27033,-1.17799 1.89648,-1.77712 0.30117,-0.33058 0.65869,-0.61173 0.94038,-0.9597 0.21733,-0.34915 0.40442,-0.71681 0.60517,-1.07611 0.37352,-0.57088 0.77615,-1.12576 1.19942,-1.661 0.31269,-0.33429 0.50492,-0.75442 0.78966,-1.10849 0.29681,-0.3534 0.58521,-0.71503 0.85623,-1.08866 0.30851,-0.30982 0.60939,-0.62741 0.94472,-0.90891 0.38699,-0.35878 0.80878,-0.67823 1.23569,-0.98793 0.58528,-0.48604 1.20852,-0.92265 1.81246,-1.38422 0.65499,-0.5024 1.29154,-1.028 1.95479,-1.51952 0.5919,-0.53931 1.2082,-1.04848 1.84997,-1.52756 0.66806,-0.50263 1.32539,-1.01876 1.9927,-1.52245 0.97831,-0.65934 1.8838,-1.41682 2.8303,-2.11974 1.08453,-0.77875 2.12683,-1.61372 3.16423,-2.45355 0.84623,-0.73597 1.70936,-1.45357 2.52799,-2.22041 0.54706,-0.50764 1.0919,-1.01683 1.62243,-1.54163 0.56093,-0.56945 1.0988,-1.16015 1.65248,-1.73648 0.52919,-0.56986 1.04754,-1.14937 1.60093,-1.69602 0.35218,-0.32063 0.72337,-0.60929 1.03349,-0.97009 0.39281,-0.54583 0.85919,-1.02672 1.34377,-1.49034 0.44468,-0.41353 0.87981,-0.83579 1.34575,-1.22509 0.45226,-0.32549 0.85135,-0.71698 1.29251,-1.05717 0.44452,-0.30948 0.82182,-0.68752 1.19587,-1.07544 0.48951,-0.59211 1.09998,-1.06194 1.66098,-1.58104 0.32087,-0.28112 0.61211,-0.59589 0.94598,-0.86206 0.39062,-0.27117 0.77092,-0.55588 1.15451,-0.83691 0.53046,-0.46152 1.08142,-0.897 1.63117,-1.33528 0.59634,-0.49532 1.24007,-0.92752 1.8643,-1.3858 0.35169,-0.34266 0.74688,-0.63037 1.11458,-0.9548 0.34807,-0.30953 0.71192,-0.60062 1.06432,-0.90486 0.34465,-0.26024 0.59717,-0.61246 0.92037,-0.89557 0.22567,-0.23609 0.4756,-0.44017 0.76309,-0.59519 0.0302,-0.0527 0.22344,-0.0793 0.18531,-0.0765 -0.36591,-0.12226 -0.73469,-0.48788 -1.0262,-0.71951 0,0 -0.0899,-0.0691 -0.0899,-0.0691 v 0 c -0.35231,-0.21212 -0.77796,-0.53014 -1.17843,-0.65297 -0.10175,0.0315 -0.14617,0.18181 -0.24341,0.23243 -0.25573,0.27029 -0.53386,0.5175 -0.79423,0.78328 -0.25993,0.29213 -0.53887,0.55989 -0.83329,0.81737 -0.36733,0.31493 -0.74312,0.62341 -1.07622,0.97502 -0.30942,0.31999 -0.63356,0.6264 -0.97071,0.91701 -0.53712,0.49591 -1.07494,0.99653 -1.6853,1.40279 -0.59874,0.40551 -1.1751,0.84184 -1.76809,1.25541 -0.42381,0.30906 -0.86893,0.59027 -1.27072,0.92805 -0.3122,0.30225 -0.58988,0.63645 -0.88258,0.95745 -0.52876,0.54814 -1.06549,1.08802 -1.67511,1.54865 -0.38257,0.32771 -0.77107,0.64555 -1.13365,0.99596 -0.45437,0.38929 -0.97828,0.68917 -1.407,1.10731 -0.41454,0.43319 -0.8053,0.88904 -1.22522,1.31737 -0.50332,0.50944 -1.02169,1.0025 -1.54811,1.48793 -0.30112,0.31876 -0.57287,0.6621 -0.86678,0.98852 -0.531,0.56951 -1.02834,1.17022 -1.57317,1.72734 -0.53665,0.57898 -1.1025,1.12996 -1.67247,1.67598 -0.5217,0.51195 -1.05136,1.01665 -1.52326,1.57667 -0.75909,0.76404 -1.56005,1.48558 -2.37502,2.18949 -0.99773,0.84313 -2.02317,1.65397 -3.08069,2.42099 -0.97399,0.70277 -1.98778,1.3445 -2.98367,2.01522 -0.71106,0.48221 -1.38154,1.02215 -2.0715,1.53401 -0.62633,0.50074 -1.23584,1.02049 -1.85681,1.52763 -0.63078,0.51489 -1.29015,0.99345 -1.92989,1.49714 -0.63078,0.44971 -1.25722,0.90556 -1.9002,1.3378 -0.45811,0.34707 -0.93134,0.67654 -1.33434,1.09019 -0.37133,0.36553 -0.78177,0.69717 -1.07172,1.13614 -0.2862,0.37237 -0.56529,0.74909 -0.86701,1.10956 -0.25124,0.37835 -0.49166,0.76326 -0.73481,1.14685 -0.3651,0.59304 -0.79661,1.13991 -1.18938,1.71441 -0.23748,0.31958 -0.47782,0.63352 -0.74306,0.93026 -0.20095,0.30972 -0.41325,0.6103 -0.66528,0.88185 -0.55658,0.6149 -1.15584,1.18964 -1.72773,1.79022 -0.74287,0.67369 -1.4826,1.35145 -2.26424,1.98059 -0.32923,0.29191 -0.6551,0.60474 -1.02699,0.84072 -0.36119,0.30244 -0.67738,0.66042 -1.06126,0.9379 -0.88267,0.69121 -1.79079,1.34835 -2.67171,2.04157 -0.92477,0.6928 -1.86616,1.36289 -2.79313,2.05277 -0.36783,0.25409 -0.74871,0.50237 -1.08355,0.79812 -0.2685,0.29942 -0.51509,0.61951 -0.80299,0.90188 -0.60693,0.62431 -1.22783,1.23443 -1.85334,1.84009 -0.56224,0.53373 -1.14271,1.04709 -1.75054,1.52857 -0.22887,0.21357 -0.4398,0.43192 -0.62909,0.68125 -0.48957,0.55877 -1.0167,1.08334 -1.51424,1.63502 -0.66921,0.69659 -1.34863,1.38342 -2.0133,2.08429 -0.24448,0.26245 -0.52708,0.51659 -0.71937,0.81868 -0.2248,0.40345 -0.51902,0.76079 -0.79525,1.1293 -0.63084,0.77435 -1.21707,1.58711 -1.9089,2.31132 -0.61626,0.68095 -1.24133,1.35356 -1.89076,2.00313 -0.32768,0.3652 -0.62897,0.75355 -0.93765,1.13508 -0.27883,0.37661 -0.59049,0.72894 -0.89683,1.08302 -0.4013,0.46433 -0.81617,0.91702 -1.24701,1.35415 -0.22064,0.2029 -0.44242,0.40737 -0.64085,0.63089 -0.21797,0.26035 -0.41541,0.53833 -0.65998,0.77596 -0.31331,0.29738 -0.66616,0.55421 -0.94727,0.88437 -0.1054,0.12296 0.0284,-0.10556 -0.0704,-0.0128 -0.0255,0.024 -0.0492,0.0498 -0.0738,0.0747 -0.34995,0.31199 -0.70708,0.61598 -1.05152,0.93406 -0.0937,0.0812 -0.16914,0.15844 -0.27885,0.21585 -0.11254,0.0589 -0.19784,0.0464 -0.27815,0.18835 -0.20532,0.2114 -0.41069,0.42558 -0.6277,0.62405 -0.0897,0.0267 -0.18145,0.0333 -0.26521,0.0891 -0.0492,-0.0537 0.0211,-0.0738 0.006,-0.12744 -0.004,-0.015 -0.0603,-0.0141 -0.0447,-0.014 0.5551,0.004 1.11007,0.0191 1.6651,0.0287 -0.22637,-0.0132 -0.45536,0.0197 -0.68146,-0.0142 -0.55874,-0.0362 -1.11789,-0.0802 -1.67473,-0.13618 -0.58209,-0.0548 -1.16566,-0.0388 -1.74889,-0.0745 -1.1482,0.004 -2.29294,0.004 -3.43798,0.0933 -0.92154,0.0387 -1.84332,0.0688 -2.76523,0.0953 -0.76603,0.0587 -1.53152,0.12377 -2.29842,0.17038 -0.60546,0.0511 -1.21081,0.1022 -1.81821,0.1248 -0.48415,0.0211 -0.96724,0.0756 -1.45199,0.0654 -0.38288,-0.006 -0.76459,0.0219 -1.1473,0.0321 2.63971,0.0159 0.2368,0.0268 -0.36484,0.0106 -0.80415,-0.0463 -1.61033,-0.0458 -2.4133,-0.11576 -0.86702,-0.0329 -1.73284,-0.0784 -2.59791,-0.14481 -1.07871,-0.0863 -2.15996,-0.17339 -3.243,-0.0868 -0.69786,0.0513 -1.39544,0.10551 -2.09284,0.16259 -0.90212,0.0886 -1.8041,0.16151 -2.70924,0.21088 -1.05524,0.0767 -2.11173,0.12812 -3.16976,0.14363 -0.92867,0.0153 -1.85793,0.0237 -2.78667,0.009 2.36122,-0.0144 -0.0197,-0.0106 -0.52772,-0.0461 -0.5674,-0.0172 -1.13272,-0.0474 -1.6978,-0.10324 -0.46986,-0.0437 -0.94116,-0.0646 -1.41301,-0.0717 -0.90349,-0.003 -1.7971,-0.0409 -2.69292,0.0712 -0.55121,0.0577 -1.09792,0.15142 -1.65114,0.19181 -0.93674,0.0867 -1.87564,0.14953 -2.81654,0.16535 -0.52894,0.0109 -1.0581,0.0288 -1.58718,0.0303 -0.17998,5.3e-4 -0.71953,0.008 -0.53994,-0.004 0.26761,-0.0179 0.53668,7.9e-4 0.80449,-0.0137 0.15159,-0.008 -0.3036,-0.003 -0.4554,-0.005 -0.73729,-0.0163 -1.47541,-0.0227 -2.21061,-0.0872 -0.50088,-0.0431 -1.00033,-0.11451 -1.50388,-0.11774 -0.3566,5e-5 -0.71297,-0.004 -1.06942,-0.006 -0.50598,-0.003 -1.01202,-0.0131 -1.51783,0.006 -0.78247,0.014 -1.56524,0.0194 -2.34787,0.0199 -1.041704,-0.0157 -0.299579,-0.007 -2.226521,-0.005 -0.292312,-0.004 0.584798,-0.002 0.876908,-0.0135 0.131083,-0.005 -0.262334,-0.005 -0.39352,-0.006 -0.127061,-5.3e-4 -0.254114,0.004 -0.381172,0.003 -0.12804,-0.001 -0.256024,-0.006 -0.384037,-0.009 -0.714449,-0.0117 -4.646803,-0.0333 -1.825014,-0.0237 0.113395,2.6e-4 -0.226785,0.002 -0.340175,0.003 -1.150464,-0.0103 -2.301235,-0.0174 -3.451651,-0.007 -0.725432,0.001 -1.45094,0.003 -2.176301,0.008 -0.782762,0.0299 -1.564889,0.0758 -2.347828,0.10178 -0.882557,0.0188 -1.764604,0.0436 -2.646613,0.082 -0.775462,0.031 -1.549662,0.09 -2.326156,0.0902 -0.732065,0.0121 -1.463876,0.0327 -2.196238,0.03 -0.239847,-7.9e-4 -0.479665,-0.007 -0.719516,-0.007 -0.10895,7e-5 -0.435731,0.004 -0.326794,0.006 2.063004,0.0331 0.752639,-0.009 0.305874,-5.2e-4 -1.137581,-0.0175 -2.275975,-0.0299 -3.413265,0.005 -0.817621,0.0191 -0.06779,-0.002 0.595238,0.0184 0.135562,0.004 -0.271206,0.006 -0.406831,0.007 -0.538787,0.004 -0.292957,-5.3e-4 -0.828117,-0.0134 -0.133456,-0.003 -0.266951,-0.004 -0.400426,-0.007 -0.792014,-0.0343 -1.584801,-0.0521 -2.375013,-0.11809 -0.673587,-0.0362 -1.346153,-0.084 -2.017118,-0.15457 -0.667752,-0.0243 -1.333912,-0.0766 -2.002477,-0.0822 -0.67904,-0.0307 -1.357429,-0.0582 -2.037525,-0.0518 -1.095359,-0.0197 -2.191885,-0.0159 -3.286749,0.0209 -0.753219,0.0376 -1.506204,0.0802 -2.259566,0.11454 -0.809799,0.0425 -1.620279,0.0842 -2.431401,0.0839 -0.126429,2.7e-4 -0.505714,0.001 -0.379286,8e-4 0.322699,-8e-4 0.645404,-0.005 0.968095,-0.002 0.12442,7.9e-4 -0.248785,0.007 -0.373208,0.007 -0.811969,-6e-5 -1.624862,-0.0189 -2.436882,0.003 -0.757557,-0.002 -1.515033,-0.005 -2.272569,-0.0136 -0.58456,-0.004 -1.169247,2.7e-4 -1.753664,-0.0106 2.488946,7.9e-4 0.505923,0.006 -0.07156,0.007 -0.536784,-0.008 -1.071631,-0.0532 -1.608058,-0.0713 -0.474382,-0.002 -0.9486,-0.012 -1.423078,-0.007 -0.572269,-0.002 -1.143418,-0.0236 -1.715605,-0.0227 -0.656114,0.003 -1.312469,-0.006 -1.967699,-0.0422 -0.770742,-0.0192 -1.541084,-0.0102 -2.312027,-0.0163 -0.806103,8e-4 -1.612244,0.006 -2.418252,-0.007 -1.315196,-0.0232 -2.628968,-0.0818 -3.94508,-0.0542 -0.766556,0.008 -1.531591,0.0262 -2.297353,0.0675 -0.608045,0.0392 -1.214345,0.10189 -1.821051,0.15749 -0.678886,0.0664 -1.358153,0.12797 -2.036199,0.20239 -0.737478,0.0589 -1.478041,0.0974 -2.218081,0.0797 -0.596791,0.003 -1.193332,-0.01 -1.790092,-0.0132 -0.419252,0.007 -0.838431,0.009 -1.257644,0.0173 -0.629501,0.001 -0.123924,-8e-5 1.010121,0.004 0.06879,2.5e-4 -0.137578,7.9e-4 -0.206362,2e-5 -0.203473,-0.002 -0.406878,-0.01 -0.610178,-0.0179 -0.918638,-0.002 -1.821729,-5.3e-4 -2.735146,0.0665 -0.434356,0.0164 -1.597295,0.0161 0.340238,0.0285 0.124459,7.9e-4 -0.248933,7.9e-4 -0.373384,-8e-4 -0.126306,-0.002 -0.252544,-0.007 -0.37884,-0.009 -0.121477,-0.002 -0.242977,-0.003 -0.364465,-0.005 -0.860434,0.039 -1.718061,0.0264 -2.580261,0.0305 -0.106654,5.3e-4 -0.426601,0.004 -0.319947,0.003 0.298724,-0.001 0.597441,-0.004 0.896162,-0.006 -0.521785,-4e-5 -1.04357,-9e-5 -1.565354,-1.4e-4 -0.102646,5.3e-4 -0.205291,0.001 -0.307938,0.002 -0.106949,1.7e-4 -0.465444,-8e-4 -0.576692,-0.002 -0.08477,-0.001 -0.339075,-0.004 -0.254297,-0.005 0.352205,-0.003 0.70443,-0.001 1.056646,-0.002 -0.420893,0.0131 -0.838933,-0.003 -1.258393,-0.0417 -0.877665,-0.0123 -1.755755,-0.0231 -2.633402,10e-4 -0.436904,0.002 -1.482219,-0.0157 0.498419,0.002 0.734788,0.007 -1.432877,0.0285 -0.691534,-0.006 -0.423342,-0.0214 -0.846159,-0.0443 -1.270278,-0.0342 -0.488114,-0.004 -0.976174,-0.0347 -1.463441,-0.0605 -0.342378,-0.0331 -0.685048,-0.0617 -1.028244,-0.0828 -0.2761782,-0.0149 -0.5527789,-0.0276 -0.8279133,-0.0565 -0.2748039,-0.0307 -0.5476631,-0.071 -0.8231277,-0.10267 -0.3189449,-0.0403 -0.6375763,-0.10686 -0.9599208,-0.0849 -0.9122865,0.0503 -1.8229545,0.0307 -2.7365774,-0.009 0,0 1.1403774,1.33522 1.1403774,1.33522 z" />
    <path
       id="path232"
       style="fill:#88aa00;stroke:#88aa00;stroke-width:0.264583"
       d="m 29.050281,202.24944 c -1.020838,0.59871 -2.873553,1.91775 -1.804392,3.20053 0.913861,0.829 2.371572,0.65892 3.234464,1.53194 0.756069,1.08469 -0.882344,1.49194 -1.648227,1.7273 -1.011469,0.28556 -2.064934,0.38128 -3.111863,0.41652 1.184031,0.3371 -0.463895,0.97877 0.502653,1.40236 1.449432,0.33993 3.003229,-0.11728 4.301658,-0.77769 0.899486,-0.54139 1.92518,-1.42555 1.832655,-2.57318 -0.357558,-1.23705 -1.789776,-1.51524 -2.845267,-1.90001 -1.295121,-0.0987 -1.129758,-1.39584 -0.064,-1.73342 1.407645,-0.54236 0.01874,-0.71623 -0.397678,-1.29435 z" />
    <path
       id="path234"
       style="fill:#88aa00;stroke:#88aa00;stroke-width:0.264583"
       d="m 36.70444,203.11358 c 0.02664,1.9432 -0.460232,3.844 -0.598039,5.77487 -0.270712,0.70551 0.318493,1.27523 1.025719,1.04612 0.887758,-0.23947 0.337659,-1.42701 0.561989,-2.09475 0.137311,-1.35485 0.13866,-2.7183 0.237506,-4.07575 0.425697,-0.88362 -0.782382,-0.57655 -1.227175,-0.65049 z" />
    <path
       id="path236"
       style="fill:#88aa00;stroke:#88aa00;stroke-width:0.264583"
       d="m 37.655357,201.00079 c 0.770343,-0.53001 2.352661,-0.35829 2.596988,-1.34638 -0.575991,-1.09969 -1.878636,-0.20632 -2.709517,0.0425 -0.522986,-0.009 -1.24469,0.49179 -0.440351,0.8288 0.192567,0.1479 0.395932,0.28722 0.55288,0.47506 z" />
    <path
       id="path238"
       style="fill:#88aa00;stroke:#88aa00;stroke-width:0.264583"
       d="m 43.58468,202.22821 c -1.228936,0.89124 -2.616195,2.25429 -2.139331,3.92228 0.292111,1.62746 2.09427,2.62902 3.624659,1.99215 1.0991,-5.5e-4 1.918668,-1.85292 0.734427,-2.20269 0.768475,0.34547 0.441361,-0.23749 -0.164911,-0.0327 -0.643897,0.39135 -0.04432,1.64202 -0.394326,2.38641 -0.08187,0.94714 -0.393271,1.94775 -0.09085,2.87474 1.084101,1.18341 1.83216,-0.93358 1.510654,-1.84813 -0.173201,-1.35846 0.57105,-2.7824 0.08502,-4.05916 -0.654607,-0.89227 -2.132682,-0.29126 -2.537915,0.55874 -0.213642,0.68748 1.128574,1.12353 -0.0795,1.476 -0.779423,0.52094 -2.082084,-1.28935 -1.525353,-2.31685 0.07448,-1.12684 1.591086,-1.49504 1.817222,-2.23231 -0.290115,-0.15662 -0.568974,-0.32709 -0.8398,-0.51847 z" />
    <path
       id="path240"
       style="fill:#88aa00;stroke:#88aa00;stroke-width:0.264583"
       d="m 51.794835,209.20271 c -0.151306,-1.90501 0.164331,-3.82316 0.569332,-5.67029 -0.6411,-0.66124 -1.818776,0.33645 -0.787097,0.89948 0.749688,1.34186 1.370459,2.74945 2.028977,4.13685 1.179033,0.55274 2.061426,-0.63983 1.962999,-1.71293 0.408558,-1.33007 1.086987,-2.56141 1.872896,-3.7037 -0.804186,-0.12712 -1.82073,0.0789 -1.06702,1.02291 0.47116,1.66415 0.485456,3.40751 0.768363,5.1049 1.020587,1.18155 2.141835,-0.59981 1.257308,-1.5295 -0.372812,-1.64522 -0.561281,-3.32383 -0.770457,-4.99552 -0.85981,-0.8429 -2.151871,0.006 -2.235807,1.05906 -0.577402,1.32388 -1.118417,2.66366 -1.721371,3.97634 0.710362,0.06 1.572317,-0.0901 0.682297,-0.75655 -0.767138,-1.11673 -1.377721,-2.3769 -1.676356,-3.67786 -0.64122,-1.08426 -2.284413,-0.64456 -1.993542,0.69282 -0.144005,1.69516 -0.277685,3.39187 -0.46226,5.0837 0.513457,0.14807 1.049018,0.0209 1.571738,0.0703 z" />
    <path
       id="path242"
       style="fill:#88aa00;stroke:#88aa00;stroke-width:0.264583"
       d="m 64.409142,202.57606 c -1.347413,0.65055 -2.676872,1.90247 -2.521754,3.53032 0.128256,1.29077 0.482205,3.12384 1.931132,3.49774 1.349985,0.26476 2.477942,-0.70338 3.230779,-1.70757 1.078149,-1.19685 1.73001,-3.13232 0.707924,-4.55955 -0.536901,-1.08503 -2.616744,-0.0233 -1.831332,0.92406 0.731798,0.88858 0.141125,2.05014 -0.412572,2.8546 -0.182822,0.54401 -1.33607,1.00473 -1.316627,1.09464 1.171078,0.25936 -0.35433,0.1805 -0.456417,-0.43563 -0.937687,-1.29993 -0.506429,-3.35553 0.991789,-4.03272 1.447671,-0.32224 0.07336,-0.6812 -0.322922,-1.16589 z" />
    <path
       id="path244"
       style="fill:#88aa00;stroke:#88aa00;stroke-width:0.264583"
       d="m 72.626228,202.61147 c -0.388095,2.06004 -0.660054,4.14149 -0.828036,6.23086 0.158916,0.72722 1.266935,0.74617 1.73113,0.32376 0.34689,-0.71175 0.09097,-1.56888 0.248039,-2.33792 0.06788,-1.27998 0.133379,-2.5656 0.326517,-3.83211 -0.222837,-0.49523 -1.049159,-0.19087 -1.47765,-0.38459 z" />
    <path
       id="path246"
       style="fill:#88aa00;stroke:#88aa00;stroke-width:0.264583"
       d="m 73.599513,200.67431 c 0.749887,-0.11711 1.399671,-0.48521 1.769506,-1.1235 -0.246268,-0.29302 -0.968819,-0.22749 -1.402076,-0.37859 -0.498823,-0.0274 -1.386317,-0.13869 -1.603267,0.37948 0.429766,0.34364 0.826966,0.74449 1.235837,1.12261 z" />
    <path
       id="path248"
       style="fill:#88aa00;stroke:#88aa00;stroke-width:0.264583"
       d="m 78.443978,202.81398 c 0.0085,1.82064 -0.240555,3.63116 -0.285883,5.44925 -0.315746,0.75999 0.05866,1.78869 1.019591,1.59649 0.826351,0.013 0.874281,-0.88698 0.857162,-1.4991 0.07854,-1.77164 -0.03449,-3.5449 0.02201,-5.3169 -0.287536,-0.58024 -1.134708,-0.0487 -1.61288,-0.22974 z" />
    <path
       id="path250"
       style="fill:#88aa00;stroke:#88aa00;stroke-width:0.264583"
       d="m 79.148209,201.98662 c 1.659791,-0.10995 3.719491,0.65131 4.016888,2.49174 0.406941,2.13559 -1.113101,4.24782 -3.052257,5.02504 -0.86733,0.33052 -1.022965,1.54091 0.145176,1.31585 1.395077,0.23057 2.379436,-0.98554 3.20319,-1.91236 1.600159,-1.86303 1.904258,-5.01679 -0.01676,-6.77293 -1.167466,-1.02429 -2.829598,-1.00384 -4.29227,-1.13336 -1.483208,-0.0663 -0.466791,0.36474 -0.004,0.98602 z" />
    <path
       id="path252"
       style="fill:#165016;stroke:#165016;stroke-width:0.264583"
       d="m 188.66429,163.87979 c 1.6949,1.14479 2.77831,2.92224 4.06178,4.46823 0.14367,0.94952 1.80781,1.70403 2.11207,0.49745 -0.38527,-0.87478 -1.28035,-1.44821 -1.83929,-2.23146 -1.02428,-1.10608 -2.0991,-2.1637 -3.17498,-3.21917 -0.46168,-0.11597 -0.7669,0.34951 -1.15958,0.48495 z" />
    <path
       id="path254"
       style="fill:#165016;stroke:#165016;stroke-width:0.264583"
       d="m 189.31934,163.15904 c 0.22453,-0.84772 2.04716,-1.86928 2.04821,-1.51564 0.55834,0.64037 1.05699,1.8149 0.31838,2.70515 -0.84275,1.24057 1.67702,1.39317 2.50267,1.07479 1.31387,-0.58859 2.90936,0.62734 4.0962,-0.37737 0.726,-1.31812 -1.71323,-0.78582 -2.43762,-0.865 -1.40011,0.0295 -2.83175,0.0224 -4.18321,0.43759 -0.37804,1.13276 1.86581,1.50487 1.58805,0.0789 0.36311,-1.38725 0.18544,-3.24898 -1.2281,-3.97818 -1.38994,-0.54819 -2.84361,0.60694 -3.43624,1.78789 -0.11031,0.44502 0.34648,0.70627 0.73166,0.65189 z" />
    <path
       id="path256"
       style="fill:#165016;stroke:#165016;stroke-width:0.264583"
       d="m 196.00452,158.05722 c 1.4555,1.8124 2.88424,3.67575 3.9034,5.7762 0.76428,0.68033 1.99808,0.0749 2.41933,-0.72589 0.35582,-0.93325 2.03245,-1.48061 1.60043,-2.54519 -0.85543,-0.87143 -2.046,-0.0389 -2.48773,0.83918 -0.2694,0.48922 -1.822,1.63351 -0.34472,1.15808 0.8534,0.58554 -0.67332,-0.33608 -0.77376,-0.74736 -1.02215,-1.28764 -1.91005,-2.68343 -2.90844,-3.98266 -0.47528,-0.43313 -0.92096,0.17551 -1.40851,0.22764 z" />
    <path
       id="path258"
       style="fill:#165016;stroke:#165016;stroke-width:0.264583"
       d="m 199.6239,160.53368 c 0.56776,-0.98402 1.44842,-1.72835 2.19775,-2.55887 0.20324,-0.57864 -0.4611,-1.0969 -1.00768,-0.90055 -0.70344,0.0158 -1.03024,0.68106 -1.43837,1.14039 -0.47833,0.56589 -0.98202,1.11049 -1.51171,1.62868 0.58667,0.23011 1.17331,0.4603 1.76001,0.69035 z" />
    <path
       id="path260"
       style="fill:#165016;stroke:#165016;stroke-width:0.264583"
       d="m 197.49346,158.78221 c 0.49733,-0.89152 1.0964,-1.7198 1.66764,-2.56417 -0.0185,-0.35292 0.0324,-0.70701 -0.008,-1.05917 -0.51893,0.12013 -1.07886,0.17425 -1.53486,0.46912 -0.65763,0.53597 -0.91384,1.40074 -1.53927,1.96671 -0.19686,0.15703 -0.37829,0.5775 -0.0152,0.65156 0.49111,0.13366 0.95781,0.34734 1.42972,0.53595 z" />
    <path
       id="path262"
       style="fill:#165016;stroke:#165016;stroke-width:0.264583"
       d="m 203.24015,153.53879 c 1.14611,1.3487 2.1669,2.84067 2.7554,4.52177 0.90147,0.73461 2.15938,0.1157 2.8371,-0.63696 0.98855,-0.92113 1.99232,-1.84333 2.92224,-2.81602 0.31405,-1.01783 -1.33685,-1.38372 -1.97867,-0.8351 -0.71977,0.72376 -1.34052,1.54734 -2.1485,2.19022 -0.34263,0.42298 -1.91857,1.17776 -0.58738,1.2092 1.25568,0.22657 -0.47941,-0.9187 -0.67059,-1.46481 -0.58659,-0.79233 -1.13241,-1.63444 -1.5574,-2.51349 -0.51397,-0.29382 -1.0482,0.33272 -1.5722,0.34519 z" />
    <path
       id="path264"
       style="fill:#165016;stroke:#165016;stroke-width:0.264583"
       d="m 209.79196,147.92291 c 0.77414,1.68286 1.87565,3.46212 3.71376,4.09102 1.01451,0.23818 2.30507,0.0116 2.63248,-1.13628 0.71293,-1.94709 0.4007,-4.06378 0.44337,-6.09227 -0.43927,-1.0009 -1.87995,-0.38905 -2.52445,0.0423 -0.18349,1.11114 0.78232,2.17058 0.51574,3.3617 0.20955,0.81776 -0.63146,1.96598 -0.51814,2.37902 0.53364,-0.0131 0.90354,0.13289 0.11421,0.0485 -1.49635,-0.33301 -2.31756,-1.78853 -3.07391,-2.88137 -0.44187,-0.11366 -0.88093,0.0798 -1.30306,0.1874 z" />
  </g>
</svg>
