<?xml version="1.0" encoding="UTF-8" standalone="no"?>
<svg
   xmlns:dc="http://purl.org/dc/elements/1.1/"
   xmlns:cc="http://creativecommons.org/ns#"
   xmlns:rdf="http://www.w3.org/1999/02/22-rdf-syntax-ns#"
   xmlns:svg="http://www.w3.org/2000/svg"
   xmlns="http://www.w3.org/2000/svg"
   xmlns:sodipodi="http://sodipodi.sourceforge.net/DTD/sodipodi-0.dtd"
   xmlns:inkscape="http://www.inkscape.org/namespaces/inkscape"
   width="1200"
   height="600"
   viewBox="0 0 317.5 158.75"
   version="1.1"
   id="svg8"
   inkscape:version="1.0 (4035a4fb49, 2020-05-01)"
   sodipodi:docname="columbo.svg">
  <defs
     id="defs2" />
  <sodipodi:namedview
     id="base"
     pagecolor="#ffffff"
     bordercolor="#666666"
     borderopacity="1.0"
     inkscape:pageopacity="0.0"
     inkscape:pageshadow="2"
     inkscape:zoom="1.4"
     inkscape:cx="591.59852"
     inkscape:cy="306.54929"
     inkscape:document-units="mm"
     inkscape:current-layer="layer1"
     showgrid="false"
     units="px"
     inkscape:window-width="1920"
     inkscape:window-height="1061"
     inkscape:window-x="0"
     inkscape:window-y="19"
     inkscape:window-maximized="0"
     inkscape:document-rotation="0"
     inkscape:snap-global="false" />
  <metadata
     id="metadata5">
    <rdf:RDF>
      <cc:Work
         rdf:about="">
        <dc:format>image/svg+xml</dc:format>
        <dc:type
           rdf:resource="http://purl.org/dc/dcmitype/StillImage" />
        <dc:title />
      </cc:Work>
    </rdf:RDF>
  </metadata>
  <g
     inkscape:label="Layer 1"
     inkscape:groupmode="layer"
     id="layer1"
     transform="translate(0,-138.25001)">
    <path
       id="path531"
       style="fill:#ba9179;fill-opacity:1;stroke:#ba9179;stroke-width:0.264583px;stroke-linecap:butt;stroke-linejoin:miter;stroke-opacity:1"
       d="m 212.8431,225.26784 c -0.49312,0.8575 -0.71181,1.92343 -1.51605,2.56555 -0.77101,0.58662 -1.78109,0.5549 -2.69877,0.57549 -0.63281,0.0675 -1.4548,-0.017 -1.63781,-0.75641 -0.36356,-1.03332 -0.1363,-2.13982 -0.21349,-3.20451 -0.13526,-0.50619 -0.27592,-1.16431 0.18402,-1.55246 0.3604,-0.28121 0.86159,-0.22996 1.2308,-0.50342 0.54655,-0.29362 0.99651,-0.80552 1.61776,-0.93568 0.53172,0.0195 0.81898,0.54915 1.17456,0.86947 0.48126,0.55257 1.02262,1.05472 1.47375,1.63112 0.25338,0.38631 0.39295,0.84838 0.38523,1.31085 z" />
    <path
       id="path164"
       style="fill:#e4826f;fill-opacity:1;stroke:#e4826f;stroke-width:0.264583px;stroke-linecap:butt;stroke-linejoin:miter;stroke-opacity:1"
       d="m 162.36209,250.68917 c 1.19448,2.75683 2.92515,5.26331 4.16748,7.97789 1.54385,2.84503 3.25702,5.70548 6.14633,7.35338 4.09441,3.49372 10.04857,1.51278 14.11611,-1.00106 4.3691,-2.9135 9.04732,-5.56358 12.47998,-9.63031 3.95713,-2.96875 7.8689,-6.24815 10.01532,-10.81619 2.39188,-2.6716 2.49556,-6.36641 1.42695,-9.63397 -0.78575,-3.66279 -1.94523,-7.19788 -3.02062,-10.77587 -0.0688,-3.90052 -2.85757,-7.72192 -6.86919,-8.22994 -3.55359,0.93572 -2.55683,5.73043 -4.34752,8.2395 -2.3034,3.88182 -3.71256,8.17919 -5.80298,12.14138 -4.31906,6.42779 -11.9462,9.07666 -18.64207,12.25609 -2.78327,1.21029 -5.86558,1.65729 -8.85804,1.33868 l -0.49458,0.26954 z" />
    <path
       id="path170"
       style="fill:#1a1a1a;fill-opacity:1;stroke:#1a1a1a;stroke-width:0.264583px;stroke-linecap:butt;stroke-linejoin:miter;stroke-opacity:1"
       d="m 208.43097,210.3824 c 0.81051,1.58702 -2.31814,4.31448 0.49209,4.68949 1.82098,0.41493 -1.30378,4.01744 0.58522,3.55919 1.56457,-1.26083 3.44645,-2.19291 4.593,-3.91877 0.90438,-1.88373 1.85252,-3.83067 2.69401,-5.672 -0.66916,-1.83431 0.008,-3.60162 1.5042,-4.65736 -2.50402,-0.70119 0.15499,-3.15596 0.49483,-4.56552 0.81636,-2.23366 -1.88898,-4.02307 -0.22142,-6.12612 -0.26859,-1.75719 1.49448,-3.38554 0.82828,-5.26632 -0.60337,-1.47094 -2.01651,-2.92486 -3.48842,-3.32405 -1.3598,0.82656 -0.81607,3.99637 -3.38144,3.26042 -1.76208,-0.71162 -4.41397,0.30372 -4.29252,2.46563 0.63459,1.85441 0.9944,4.0187 -0.94613,5.25195 -1.27043,1.53981 -3.44664,2.05938 -4.52824,3.76021 -0.72007,2.02006 3.57407,3.13346 1.09303,5.05326 -0.44009,1.76967 2.14929,2.39205 2.99645,3.71797 0.43847,0.66027 0.52697,1.78947 1.57706,1.77202 z" />
    <path
       id="path463"
       style="fill:#e6e6e6;fill-opacity:1;stroke:#e6e6e6;stroke-width:0.264583px;stroke-linecap:butt;stroke-linejoin:miter;stroke-opacity:1"
       d="m 161.67188,255.326 c 1.06585,2.07854 1.13409,4.49297 0.88236,6.76872 -0.0759,1.67596 0.0869,3.35817 -0.13701,5.02787 9.9e-4,0.32799 -0.12566,1.23852 0.032,1.21415 -0.0369,-1.01467 0.93492,-1.60281 1.14958,-2.5631 0.47693,-1.19415 1.39443,-2.14048 2.13966,-3.16834 0.63342,-0.60856 1.50883,-0.85444 2.22721,-1.34332 0.52969,-0.2198 1.45336,-0.29736 0.8495,-1.05754 -0.48451,-0.85015 -1.29857,-1.48585 -1.62012,-2.43518 -0.44526,-0.87228 -0.78346,-1.83398 -1.38301,-2.60596 -0.77176,-0.41515 -1.70296,-0.19895 -2.53658,-0.16672 -0.54304,0.0596 -1.08419,0.1575 -1.60361,0.32942 z" />
    <path
       id="path366"
       style="fill:#c7a693;fill-opacity:1;stroke:#c7a693;stroke-width:0.264583px;stroke-linecap:butt;stroke-linejoin:miter;stroke-opacity:1"
       d="m 145.08314,225.3122 c -5.06396,-1.01002 -10.40587,-7.22704 -15.34113,-4.31607 -2.51908,5.72322 -3.79532,12.12267 -7.83855,17.08398 -2.82098,4.35743 -2.94222,9.80716 -5.69519,14.22717 -2.51141,5.16507 -4.23793,10.64737 -6.99121,15.70328 -0.81036,4.92559 -3.15724,9.15001 -5.9577,13.22131 -1.68512,3.24573 -2.12315,8.58276 -2.14001,11.15747 4.39972,0.54385 8.84999,-0.86027 13.20756,0.35448 4.15433,0.16553 8.28502,0.005 12.38273,0.85619 5.24735,0.5715 10.60748,0.18765 15.8149,0.44347 3.91773,-0.25642 8.40992,-1.37706 9.00109,-5.9903 2.90934,-4.53118 -1.00973,-9.26197 0.50006,-13.97665 1.72202,-5.95176 3.24254,-11.95475 3.79028,-18.14472 -0.45981,-3.69317 2.17789,-7.92357 -0.31246,-11.22623 -2.84195,-2.48744 -6.3837,-4.84706 -6.28081,-9.11078 -1.30723,-3.43623 -0.67048,-8.09241 -4.13956,-10.28262 z" />
    <path
       id="path380"
       style="fill:#ba9179;fill-opacity:1;stroke:#ba9179;stroke-width:0.264583px;stroke-linecap:butt;stroke-linejoin:miter;stroke-opacity:1"
       d="m 147.86847,236.55906 c 0.60964,2.05019 -1.60223,3.96115 -0.55527,5.94234 0.78972,1.479 2.58958,2.2337 2.93718,3.98815 0.16161,1.74043 1.96445,4.04601 -0.50612,4.95752 -1.88208,0.71001 -3.42185,2.26508 -5.43374,2.54793 -1.70178,-0.32065 -2.95036,2.44617 -0.58605,2.14802 2.62711,0.47747 5.35533,0.18244 7.9388,0.93425 2.32991,0.49242 4.74978,0.41959 7.07617,-0.0457 1.22105,-0.18641 3.59518,2.35956 3.11426,-0.25669 0.38012,-1.89226 -0.55745,-3.61117 -1.00565,-5.39353 -0.52208,-1.85182 -2.23753,-3.02262 -3.12964,-4.68386 -1.52007,-1.87923 -3.53648,-3.23141 -5.332,-4.81066 -1.40397,-1.22694 -1.08188,-3.39286 -2.55869,-4.58372 -1.80314,-1.11039 0.36349,-2.54519 0.2929,-3.91044 -0.24783,-1.46051 -2.53723,-2.13465 -3.19123,-0.58176 -0.69766,1.24152 -0.21893,2.95818 0.93908,3.74817 z" />
    <path
       id="path186"
       style="fill:#f4aa9c;fill-opacity:1;stroke:#f4aa9c;stroke-width:0.264583px;stroke-linecap:butt;stroke-linejoin:miter;stroke-opacity:1"
       d="m 132.24107,185.89221 c 1.615,8.45847 2.76157,15.95384 4.93188,24.31454 0.99447,4.89338 1.06669,7.9253 1.44077,15.00173 1.23813,5.31703 3.96088,10.82555 7.27329,15.01735 5.153,5.08765 9.82025,10.61987 14.6398,15.99367 3.90812,3.29421 9.33572,0.71705 13.90644,0.79777 5.74441,-0.70931 11.0001,-4.30204 14.05942,-9.19959 4.55761,-5.95151 11.45894,-10.64421 13.00274,-18.42491 1.22159,-6.59649 4.25614,-13.14146 2.77606,-19.95739 -0.73403,-5.61513 -0.56206,-11.35339 -2.35148,-16.80361 -1.73979,-5.70136 -3.04174,-11.51731 -4.55022,-17.27445 -1.68432,-5.52058 -5.72817,-10.8093 -11.44589,-12.3845 -5.49612,-0.50828 -10.92174,1.28675 -16.1394,2.81506 -6.2889,2.3109 -12.75128,4.61948 -19.55817,4.34078 -6.23343,-0.0153 -12.74067,-0.28213 -18.52389,2.38464 -4.25145,3.06399 -1.91539,8.62878 0.0275,12.35005 l 0.25209,0.51617 z"
       sodipodi:nodetypes="cccccccccccccccccc" />
    <path
       id="path523"
       style="fill:#ba9179;fill-opacity:1;stroke:#ba9179;stroke-width:0.264583px;stroke-linecap:butt;stroke-linejoin:miter;stroke-opacity:1"
       d="m 211.5919,212.23802 c 1.25112,1.04978 2.09985,2.43479 2.94956,3.79573 0.88922,1.42188 2.45826,2.07444 3.67196,3.12401 0.93654,0.89125 1.86309,1.74481 2.92683,2.48015 1.27645,0.64296 3.14506,1.64674 2.19901,3.36916 -0.77829,2.56031 -3.08263,4.20008 -4.27063,6.54343 -0.99389,1.47635 -1.33298,3.61438 -3.19437,4.2971 -2.05943,0.51896 -4.16739,-0.27724 -6.2258,-0.48736 -1.10801,-0.27971 -3.65511,0.43184 -2.29634,-1.45404 1.32799,-2.62304 1.65264,-5.63079 1.60213,-8.53369 0.40737,-1.69033 1.00211,-3.37583 0.62581,-5.14137 -0.32637,-1.71181 0.58816,-3.21018 0.9668,-4.80873 0.10579,-1.16534 0.6789,-2.11246 1.04504,-3.18439 z" />
    <path
       id="path210"
       style="fill:#f4aa9c;fill-opacity:1;stroke:#f4aa9c;stroke-width:0.264583px;stroke-linecap:butt;stroke-linejoin:miter;stroke-opacity:1"
       d="m 202.4166,213.82134 c -0.15899,2.52258 1.13984,4.79847 1.71837,7.18597 0.49844,1.33143 1.5866,2.53497 2.94793,2.97623 1.44823,0.21234 2.65691,-1.06901 3.27565,-2.24517 1.16048,-3.00437 1.70223,-6.25467 3.30335,-9.08481 0.90497,-2.44973 0.92652,-5.10856 1.13831,-7.68184 0.0244,-1.85648 0.0406,-3.98863 -1.22657,-5.47831 -1.70094,-1.79196 -5.15541,-2.03712 -6.57076,0.24811 -0.94914,1.6508 -2.19507,3.07237 -3.45292,4.4869 -1.21042,1.75488 -1.46615,3.98031 -1.07598,6.04237 0.12648,1.17775 0.21682,2.38577 -0.0574,3.55055 z" />
    <path
       id="path218"
       style="fill:#e4826f;fill-opacity:1;stroke:#e4826f;stroke-width:0.264583px;stroke-linecap:butt;stroke-linejoin:miter;stroke-opacity:1"
       d="m 204.53639,214.57556 c 1.2727,-0.4446 2.51518,-1.19714 3.25437,-2.35015 0.37824,-0.7542 -0.37287,-1.29879 -0.64073,-1.90996 -0.29977,-0.91985 0.51069,-1.70219 0.52779,-2.61054 0.18421,-1.19162 -0.21247,-2.54215 0.58088,-3.58362 0.37248,-0.61488 0.64729,-1.12786 1.23224,-1.738 0.88602,-0.41448 1.20501,0.72032 1.26593,1.37759 0.18804,1.26376 0.0172,2.54838 0.11747,3.81494 0.33572,0.125 -0.37039,-0.92826 -0.0821,-1.30153 0.25953,-1.03289 1.14501,-1.87643 1.06112,-3.00557 -0.027,-1.21406 -0.78341,-2.46118 -1.95056,-2.87304 -0.81211,-0.0223 -1.3622,0.76238 -1.86381,1.29651 -1.17248,1.64964 -1.33928,3.74584 -2.17975,5.55244 -0.52906,1.408 -1.45393,2.75553 -1.34689,4.3218 0.007,1.00457 0.27556,2.01338 0.024,3.00913 z" />
    <path
       id="path226"
       style="fill:#e4826f;fill-opacity:1;stroke:#e4826f;stroke-width:0.264583px;stroke-linecap:butt;stroke-linejoin:miter;stroke-opacity:1"
       d="m 153.80887,239.70907 c 1.73628,0.002 2.95588,1.99821 4.76574,1.48194 1.26034,-0.41218 2.49418,-1.04971 3.86133,-0.88687 1.37746,-0.16073 2.6867,-1.01403 4.1079,-0.62589 1.37199,0.25557 2.77768,0.4948 4.16602,0.20855 2.4809,-0.30221 4.96627,-0.68225 7.38659,-1.29935 1.23124,-0.55305 2.3034,-1.67103 3.7315,-1.6365 1.52479,0.53732 0.68008,3.00359 -0.90951,2.32782 -2.84193,0.21569 -5.09898,2.49753 -7.99143,2.50551 -1.27623,0.0113 -2.56895,-0.24807 -3.82147,0.13836 -1.47343,0.48498 -3.05062,0.41064 -4.55365,0.73352 -1.43084,-0.0318 -2.80809,-0.66768 -4.25391,-0.43655 -1.46386,0.0482 -2.94764,0.0813 -4.39891,-0.10332 -0.90149,-0.36832 -2.89414,-0.45948 -2.76936,-1.66934 0.19635,-0.27346 0.52421,-0.43209 0.67916,-0.73788 z" />
    <path
       id="path240"
       style="fill:#e4826f;fill-opacity:1;stroke:#e4826f;stroke-width:0.264583px;stroke-linecap:butt;stroke-linejoin:miter;stroke-opacity:1"
       d="m 158.14708,210.5826 c 0.7854,2.44269 -0.19486,4.87808 -0.86027,7.18681 -0.25434,3.08061 -0.3425,6.18152 -0.76509,9.24629 -1.28725,1.34601 -0.68764,3.28261 0.59743,4.34102 1.92856,1.11131 3.3248,1.17389 5.64895,1.28212 1.87844,0.68702 3.08326,-0.63045 4.52259,-1.51614 1.23309,-1.08932 2.94181,-1.25485 3.41041,-3.1413 0.24584,-1.50687 -0.0584,-2.76811 -0.60874,-4.1246 -1.16442,-0.93991 -2.8195,-1.75306 -2.68511,-3.52518 -0.1318,-1.55617 -0.23825,-3.13308 -0.65774,-4.6237 -1.05451,-1.93248 -2.63831,-3.79969 -2.43031,-6.15147 -0.0694,-1.93312 1.19249,-3.50959 1.93781,-5.19958 0.79416,-0.75801 0.99895,-2.15493 -0.36624,-0.92579 -1.6878,0.62139 -3.53438,2.18988 -5.37239,1.10587 -1.02344,-0.83214 -3.55309,-1.59257 -3.2006,0.59581 0.13819,1.82973 0.38005,3.66763 0.8293,5.44984 z"
       sodipodi:nodetypes="cccccccccccccccc" />
    <path
       id="path248"
       style="fill:#e4826f;fill-opacity:1;stroke:#e4826f;stroke-width:0.264583px;stroke-linecap:butt;stroke-linejoin:miter;stroke-opacity:1"
       d="m 169.14052,206.98893 c 0.72961,-0.0808 0.28944,-1.3226 1.20974,-1.33735 0.92805,-0.5026 1.92843,-0.89183 2.99048,-0.96153 1.45763,-0.27933 2.95177,-0.68511 4.43677,-0.33266 1.42805,0.24149 2.91044,0.38052 4.24643,0.97179 0.38667,0.25572 1.06509,1.35073 1.4393,0.69812 -0.39847,-0.4072 -1.14044,-0.63304 -1.33529,-1.29787 -1.20328,-1.31151 -3.12134,-1.41504 -4.78236,-1.47011 -1.19569,-0.0156 -2.38509,-0.15036 -3.55194,-0.40746 -1.56998,-0.24426 -2.992,0.78683 -3.91082,1.96362 -0.43255,0.63095 -1.0693,1.35286 -0.74231,2.17345 z" />
    <path
       id="path256"
       style="fill:#e6e6e6;stroke:#e6e6e6;stroke-width:0.264583px;stroke-linecap:butt;stroke-linejoin:miter;stroke-opacity:1"
       d="m 169.68278,209.36253 c -0.19329,-0.77762 0.80865,-0.77697 1.21081,-1.1249 0.74462,-0.74313 1.46227,-1.60274 2.52067,-1.89563 1.46025,-0.46653 3.01591,-0.30855 4.52405,-0.4207 0.93091,-0.0901 1.87306,0.004 2.74893,0.34253 0.52379,0.22329 1.20833,0.24425 1.50771,0.80542 0.19271,0.31368 0.96515,0.99272 0.082,0.87816 -0.86957,-0.27926 -1.80571,-0.33556 -2.68526,-0.60983 -0.93667,-0.27653 -1.91906,-0.16087 -2.82565,0.15925 -1.28245,0.29719 -2.55564,0.65323 -3.7454,1.22666 -1.0485,0.43843 -2.1867,0.82398 -3.33787,0.63904 z" />
    <path
       id="path264"
       style="fill:#502d16;fill-opacity:1;stroke:#502d16;stroke-width:0.264583px;stroke-linecap:butt;stroke-linejoin:miter;stroke-opacity:1"
       d="m 174.14425,206.25688 c -0.16544,0.49894 -0.17618,1.09829 0.13571,1.54296 0.24991,0.28504 0.60993,0.0573 0.8477,-0.11363 0.77998,-0.42787 1.72764,-0.57733 2.59214,-0.34217 0.47983,0.1014 1.07287,0.18903 1.44691,-0.21098 0.18793,-0.28234 0.62888,-0.7392 0.33843,-1.06667 -0.38452,-0.23018 -0.86205,-0.0985 -1.28547,-0.16051 -1.11292,-0.12995 -2.21747,-0.38079 -3.34315,-0.36594 -0.32031,0.11261 -0.47679,0.44606 -0.70156,0.67701 l -0.0307,0.0401 z" />
    <path
       id="path272"
       style="fill:#e4826f;fill-opacity:1;stroke:#e4826f;stroke-width:0.264583px;stroke-linecap:butt;stroke-linejoin:miter;stroke-opacity:1"
       d="m 182.50025,210.93753 c -1.39676,0.19181 -2.37335,1.41067 -3.76506,1.62662 -1.02197,0.20724 -2.07275,0.2518 -3.11113,0.28563 -0.42649,-0.14931 -0.95697,-0.003 -1.30656,-0.0749 0.39972,-0.39097 1.03317,-0.55291 1.55475,-0.78245 0.51413,-0.29282 1.00307,-0.70019 1.63621,-0.65764 0.85264,-0.0371 1.65323,-0.32959 2.41895,-0.68485 0.88242,-0.36327 1.86669,-0.56434 2.57077,-1.25746 0.46788,-0.52421 1.16017,-0.71674 1.81174,-0.89518 0.74607,0.24755 -0.16339,0.90617 -0.42615,1.23254 -0.43053,0.4363 -0.91062,0.81937 -1.38352,1.20767 z" />
    <path
       id="path280"
       style="fill:#e6e6e6;fill-opacity:1;stroke:#e6e6e6;stroke-width:0.264583px;stroke-linecap:butt;stroke-linejoin:miter;stroke-opacity:1"
       d="m 144.73805,212.37943 c 0.9904,-0.70701 1.89591,-1.61617 3.12159,-1.89959 1.47327,-0.43545 3.11068,-0.55483 4.55599,0.0477 0.68101,0.27102 1.42849,0.43763 2.01638,0.89386 0.2657,0.47748 1.11426,0.46396 1.11414,1.09922 -0.2238,0.76812 -1.16501,0.50606 -1.67757,0.21135 -0.62042,-0.32801 -1.2963,-0.0133 -1.94772,-0.1089 -0.82816,-0.12569 -1.61365,-0.5873 -2.47701,-0.43165 -1.05404,0.21769 -2.1064,0.45017 -3.16596,0.63726 -0.57352,0.24659 -1.21943,0.14908 -1.53984,-0.44928 z" />
    <path
       id="path288"
       style="fill:#502d16;stroke:#502d16;stroke-width:0.264583px;stroke-linecap:butt;stroke-linejoin:miter;stroke-opacity:1"
       d="m 147.69593,210.49387 c -0.0542,0.50127 -0.0611,1.04914 0.19808,1.4984 0.24787,0.3779 0.736,0.42842 1.14766,0.38871 0.7155,-0.0613 1.41648,-0.26702 2.13953,-0.24552 0.23851,-0.0195 0.48673,0.0518 0.71556,0.0137 0.17831,-0.2097 0.005,-0.50019 0.0403,-0.74615 -0.002,-0.32446 0.0778,-0.64122 0.15793,-0.9524 -0.0173,-0.32665 -0.41137,-0.23517 -0.62733,-0.28611 -0.68322,-0.13395 -1.28143,-0.62098 -1.99814,-0.59111 -0.43823,0.0419 -0.79312,0.34066 -1.16145,0.55391 -0.20056,0.12779 -0.40162,0.25575 -0.61211,0.36658 z" />
    <path
       id="path296"
       style="fill:#e4826f;fill-opacity:1;stroke:#e4826f;stroke-width:0.264583px;stroke-linecap:butt;stroke-linejoin:miter;stroke-opacity:1"
       d="m 154.47439,208.71921 c -1.54814,-0.45477 -3.22552,-0.91445 -4.82299,-0.42385 -1.70378,0.52476 -3.37862,1.26966 -4.73173,2.45422 -0.48572,0.46236 -1.31692,0.44428 -1.67432,1.02251 -0.58484,0.61028 0.24001,-0.75976 0.54072,-0.92965 0.28706,-0.48877 0.56923,-1.03247 1.11305,-1.29777 0.8247,-0.49043 1.68886,-0.91244 2.51536,-1.39874 1.80978,-0.86703 3.8654,-0.93729 5.83554,-0.92765 0.66855,-0.002 1.3618,0.5238 1.25495,1.24526 -0.005,0.0858 -0.0155,0.17137 -0.0306,0.25567 z" />
    <path
       id="path316"
       style="fill:#1a1a1a;fill-opacity:1;stroke:#1a1a1a;stroke-width:0.264583px;stroke-linecap:butt;stroke-linejoin:miter;stroke-opacity:1"
       d="m 166.72492,197.40581 c 0.65459,0.85028 2.00196,1.26912 1.73028,2.62627 0.2463,1.72203 2.42277,0.98981 3.2822,0.19263 1.06877,-0.86782 2.30604,-1.90911 3.79079,-1.60662 2.4554,0.13161 4.90841,0.99727 7.36858,0.51477 1.7167,-0.52639 3.42243,-1.17313 4.97099,-2.09309 -0.73196,-0.75218 -2.60186,-0.27097 -3.74118,-0.66049 -2.81116,-0.6957 -5.41076,-2.40308 -8.39821,-2.30189 -1.80083,0.0848 -3.65804,-0.2726 -5.39735,0.366 -1.15721,0.14333 -2.48443,0.39805 -3.08503,1.52958 -0.26756,0.43648 -0.43436,0.92977 -0.52107,1.43284 z" />
    <path
       id="path324"
       style="fill:#1a1a1a;fill-opacity:1;stroke:#1a1a1a;stroke-width:0.264583px;stroke-linecap:butt;stroke-linejoin:miter;stroke-opacity:1"
       d="m 152.05879,203.43962 c -2.14741,0.34163 -4.21511,1.126 -6.40083,1.22457 -1.13101,0.17075 -2.01408,0.98616 -3.01857,1.47514 -0.77068,0.36049 -1.03321,1.35085 -1.92534,1.54651 -0.80271,0.10697 -1.16764,0.91909 -1.7882,1.2985 -0.73321,0.0866 -1.61051,-0.54804 -1.73317,-1.27697 0.0849,-1.09949 1.27253,-1.5272 2.02498,-2.1248 1.79924,-1.07214 3.02107,-2.88687 4.87158,-3.87819 1.71628,-0.69396 3.48168,-1.35392 5.01609,-2.40825 0.63952,-0.48031 1.56543,-1.7571 2.35103,-0.81473 0.64227,0.8648 1.04654,1.93767 0.87038,3.0265 -0.0614,0.64764 -0.20314,1.28453 -0.26795,1.93172 z" />
    <path
       id="path338"
       style="fill:#e4826f;fill-opacity:1;stroke:#e4826f;stroke-width:0.264583px;stroke-linecap:butt;stroke-linejoin:miter;stroke-opacity:1"
       d="m 143.5056,189.22023 c 5.44293,-0.9707 10.96441,0.87384 16.39506,-0.0857 3.078,-0.85256 5.68851,-2.90527 8.8564,-3.51762 2.73839,-1.03432 5.65457,-1.4346 8.56439,-1.11822 2.45775,0.39558 5.589,0.17596 7.3366,2.15939 2.07185,-0.15096 -1.86608,-2.44108 -3.03691,-2.30997 -2.18453,-0.31433 -4.17065,-1.37612 -6.3409,-1.69989 -2.8188,-0.25859 -5.34675,1.29083 -8.10479,1.53764 -2.31006,0.83793 -4.1623,2.73238 -6.69923,3.0074 -4.72945,0.98647 -9.58893,0.30742 -14.36196,0.60032 -0.64904,0.42266 -3.39734,0.13242 -2.60866,1.42665 z" />
    <path
       id="path346"
       style="fill:#e4826f;fill-opacity:1;stroke:#e4826f;stroke-width:0.264583px;stroke-linecap:butt;stroke-linejoin:miter;stroke-opacity:1"
       d="m 184.27496,191.70474 c -4.33679,-1.34668 -8.91451,-1.7764 -13.43101,-1.97088 -3.33994,-0.0705 -6.36918,1.62001 -9.21167,3.18001 -3.77807,1.8461 -8.08766,1.60057 -12.17121,1.68928 -2.07493,-0.50706 -4.59675,-0.0132 -6.33629,-0.12658 2.02835,0.0533 4.07405,-0.20147 6.12339,-0.17371 3.35954,-0.63782 6.78489,-0.80306 10.16706,-1.25851 3.29745,-0.66157 5.83991,-3.08623 8.93582,-4.21324 2.52021,-0.25457 5.07209,-0.20636 7.60634,-0.34479 2.42228,0.009 4.72472,0.8266 7.08181,1.24614 0.80413,0.26166 1.46852,1.09276 1.23576,1.97228 z" />
    <path
       id="path388"
       style="fill:#cdb1a0;fill-opacity:1;stroke:#cdb1a0;stroke-width:0.264583px;stroke-linecap:butt;stroke-linejoin:miter;stroke-opacity:1"
       d="m 129.82544,220.4541 c -3.50856,-0.66714 -6.72647,1.18921 -10.11959,1.58541 -3.94815,0.96317 -8.05423,1.10553 -12.1026,1.29833 -4.40524,-0.27506 -9.06495,0.15305 -12.839147,2.65506 -2.134667,0.65845 -3.715126,2.41131 -1.996078,4.46014 1.194982,3.39323 2.272805,6.86751 3.900764,10.06926 2.189244,2.97127 4.955761,5.46727 7.256491,8.35709 1.55229,1.98361 3.73337,3.27773 5.5835,4.91033 1.30398,1.16726 4.48981,5.58043 5.48061,2.28353 1.08695,-2.04881 2.34954,-4.04596 3.19811,-6.25927 1.22007,-2.34575 2.07711,-4.82565 2.69888,-7.36662 0.77403,-2.81743 3.02679,-4.54717 3.99278,-7.24113 2.265,-2.74727 3.84124,-5.98646 4.49821,-9.49188 -0.0223,-1.13302 2.81513,-5.59794 0.44807,-5.26025 z" />
    <path
       id="path408"
       style="fill:#1a1a1a;fill-opacity:1;stroke:#1a1a1a;stroke-width:0.264583px;stroke-linecap:butt;stroke-linejoin:miter;stroke-opacity:1"
       d="m 168.69683,176.46492 c 4.03316,-0.39711 7.53786,-2.5669 11.47635,-3.09025 4.05318,-0.71181 7.07378,1.06351 7.3496,5.47256 1.03041,4.0453 1.68567,8.59552 5.03184,11.49642 3.31496,3.62048 2.38049,9.08757 5.39243,12.87713 2.49208,2.76231 -0.58643,10.41581 5.70245,8.71576 0.12615,-3.05636 3.47238,-0.15188 3.95857,-2.59373 0.21932,-1.54275 -0.62628,-2.58227 1.03159,-2.56224 -1.41223,-2.25358 3.22762,-0.38677 1.80312,-0.86566 1.20445,-1.61888 -1.09032,-4.33001 0.0184,-6.30054 1.21797,-1.28767 -1.1435,-3.52355 1.84306,-4.06463 0.68634,-1.58849 -1.41623,-2.96899 1.34362,-4.01678 -0.63286,-3.54826 6.08131,-4.04713 2.19785,-7.48488 -2.26892,-2.58235 -2.01153,-6.8218 -1.14798,-9.87956 -1.14681,-4.18032 -3.42717,-7.27476 -7.04499,-9.36084 -1.16317,-3.83995 3.69343,-7.54933 -0.4496,-11.12092 -2.03509,-3.28524 -5.40908,-5.09622 -8.58255,-5.7937 3.07617,-2.62457 -0.14662,-5.37285 -3.17068,-5.83077 0.76999,-4.07785 -3.35443,-0.82902 -4.19687,-2.48945 -2.74265,-2.67922 -6.60524,1.55194 -10.13473,0.24954 -3.37637,0.81373 -7.10992,0.51076 -10.19515,-0.64224 -4.22849,2.76853 -9.20277,0.9541 -13.85317,1.60558 -3.39406,-0.41571 -4.96698,2.1232 -8.34103,1.96777 -1.09314,3.13116 -6.40693,1.16513 -5.28925,5.08378 -3.1607,1.02476 -3.22022,5.55512 -7.12217,4.29368 -0.0289,4.06501 -7.34278,2.64261 -7.3795,7.63003 -3.20888,0.0196 -5.86307,1.65362 -7.32743,4.26077 -2.29674,0.17373 -6.43106,4.32683 -5.51764,5.82957 3.03652,-1.30581 3.39227,2.08635 0.24767,2.05852 -4.58933,4.44431 5.85704,-0.14599 7.18642,3.37408 1.77586,2.3551 1.17139,4.6019 0.0642,6.8673 3.61504,0.82346 3.10026,4.43518 4.14129,7.1602 2.68429,1.23969 5.92818,2.85761 5.77788,-1.86275 2.87933,-2.50267 1.53566,-6.41997 3.30681,-9.36144 2.88566,2.00885 6.05688,1.78245 8.50807,-0.93691 3.67372,-1.11168 4.56723,2.93954 6.21638,4.29658 3.92018,-0.0568 8.10303,1.97994 11.24869,-0.78529 1.74153,-1.85545 4.09793,-2.62287 5.9064,-4.19669 z" />
    <path
       id="path423"
       style="fill:#ee9284;fill-opacity:1;stroke:#ee9284;stroke-width:0.264583px;stroke-linecap:butt;stroke-linejoin:miter;stroke-opacity:1"
       d="m 126.02951,162.97757 c 0.62537,-1.37423 0.31835,-3.00982 1.07508,-4.33395 0.92536,-1.04278 2.5481,-0.98712 3.76324,-0.54532 1.33068,0.4542 2.40409,1.57531 2.71002,2.96064 0.41583,1.52671 0.3682,3.21233 1.27056,4.57632 0.46643,0.8248 0.97468,1.92125 0.32998,2.79601 -0.5333,0.8488 -1.35968,1.46963 -2.34235,1.69684 -1.84809,0.5416 -3.75113,1.09825 -5.6951,1.0203 -0.82358,-0.23675 -0.75125,-1.26356 -0.70076,-1.94471 0.0967,-1.21404 0.054,-2.43668 -0.21932,-3.62655 -0.14085,-0.85804 -0.24076,-1.72893 -0.19135,-2.59958 z" />
    <path
       id="path415"
       style="fill:#f3b4aa;fill-opacity:1;stroke:#f3b4aa;stroke-width:0.264583px;stroke-linecap:butt;stroke-linejoin:miter;stroke-opacity:1"
       d="m 90.99339,217.99176 c 6.827702,-2.391 10.8793,-8.84162 16.10129,-13.43215 4.00856,-3.74219 4.79826,-9.51542 4.9079,-14.70253 1.17159,-5.46233 0.75821,-11.98246 5.28958,-16.01765 3.68856,-3.37115 7.6589,-6.4211 11.18198,-9.97937 3.75257,-4.04833 9.67539,-2.82334 14.57512,-3.78027 3.47822,-1.79605 11.15087,-1.99634 10.66199,3.48032 -2.49266,3.13658 -7.28151,3.03789 -10.63968,5.03121 -3.70956,2.46069 -8.8578,1.54841 -12.15057,4.80828 -1.58141,1.14004 -6.54603,3.50423 -6.01394,3.9138 4.07619,-1.24694 7.06412,-4.62811 11.04582,-5.90396 4.91258,-0.0606 9.92444,0.40096 14.71738,0.14694 5.66263,1.64996 4.23557,9.81805 -1.76998,8.9403 -5.02181,-0.94828 -10.09181,-0.003 -14.61591,2.29012 -1.38309,0.98667 -7.92743,3.56831 -3.4839,3.80044 3.58829,-1.71115 6.712,-4.93454 11.08504,-4.4628 5.01705,0.54859 11.53181,-0.16492 14.58111,4.79895 3.76921,4.35247 -1.87754,8.00694 -5.98934,5.92063 -4.21806,-2.24001 -8.68803,-0.69024 -12.29408,1.92742 -3.609,1.35587 3.39941,1.07594 4.83937,1.06576 4.15488,-0.57056 10.55427,-3.41792 11.59775,2.9899 -0.19931,5.09784 -6.05634,2.90245 -9.56985,4.47256 -4.47016,1.11667 -9.72493,4.65698 -11.70195,8.58305 -2.47177,3.45505 -2.58178,4.50187 -5.86977,7.16463 -3.66191,0.97697 -10.19467,3.99532 -11.82556,8.13686 -2.7482,4.10761 -5.32371,8.84745 -9.45346,11.50464 -4.00265,3.73987 -9.2186,6.23038 -14.780036,6.057 -5.610228,0.90234 -6.975925,-5.86775 -6.195939,-10.08104 0.767711,-4.90001 2.091168,-9.78442 4.560501,-14.1182 0.314357,-0.78577 -0.443991,-3.05757 1.209134,-2.55484 z"
       sodipodi:nodetypes="cccccccccccccccccccccccccccccc" />
    <path
       id="path587"
       style="fill:#fef3e6;fill-opacity:1;stroke:#fef3e6;stroke-width:0.264583px;stroke-linecap:butt;stroke-linejoin:miter;stroke-opacity:1"
       d="m 91.348443,237.57948 c 4.028439,2.5822 7.3067,3.39688 11.905777,2.19024 3.14745,-1.58484 5.45047,-1.79535 6.70474,-3.70423 -0.81934,0.9316 -0.20211,3.95977 -0.77782,5.29123 -1.23911,2.73865 -3.84344,4.44876 -6.05129,6.33499 -1.57116,0.76632 -3.388597,0.78014 -4.995957,1.47957 -2.479383,0.93105 -5.046038,1.56861 -7.651347,2.02221 -1.884983,0.36583 -3.730338,1.02639 -5.282506,2.17475 -1.551347,0.9249 -2.832531,-0.53433 -3.489302,-1.80076 -1.223693,-1.32126 -0.566438,-3.07184 0.312478,-4.36475 2.058529,-3.68116 5.821078,-5.86953 8.500697,-9.01904 0.250868,-0.23139 0.524252,-0.44057 0.82453,-0.60421 z"
       sodipodi:nodetypes="cccccccccccc" />
    <path
       id="path439"
       style="fill:#e4826f;fill-opacity:1;stroke:#e4826f;stroke-width:0.264583px;stroke-linecap:butt;stroke-linejoin:miter;stroke-opacity:1"
       d="m 152.30685,172.95998 c -0.32473,-0.0119 -0.75757,-0.21167 -1.00504,0.083 -0.21517,0.39201 -0.1243,0.86424 -0.095,1.29043 0.0284,0.4068 0.20342,0.77647 0.34146,1.15234 0.17606,0.53268 -0.0534,1.06366 -0.23357,1.55907 -0.15751,0.35155 0.22332,0.57901 0.43589,0.78572 0.29025,0.217 0.51154,0.62525 0.90235,0.64657 0.29929,-0.12967 0.4139,-0.48948 0.69304,-0.66094 0.63334,-0.56584 1.16248,-1.31368 1.23463,-2.18248 0.0418,-0.50095 -0.0346,-1.1073 -0.50693,-1.39101 -0.472,-0.32783 -0.6083,-1.02823 -1.20653,-1.19902 -0.18222,-0.054 -0.3728,-0.064 -0.56031,-0.0837 z" />
    <path
       id="path455"
       style="fill:#1a1a1a;fill-opacity:1;stroke:#1a1a1a;stroke-width:0.264583px;stroke-linecap:butt;stroke-linejoin:miter;stroke-opacity:1"
       d="m 155.06597,158.54094 c -2.10615,1.09603 -4.37973,3.20811 -3.85428,5.81331 0.58696,1.44329 0.95095,3.15536 -0.39592,4.31308 -1.14255,1.24808 -0.83328,3.25084 0.50967,4.22277 1.51604,1.1547 2.3323,2.90202 2.82445,4.6974 0.77767,1.72197 0.4795,4.77022 2.95875,4.9944 1.26064,-0.73289 2.58912,-0.32176 3.79559,0.31681 1.53108,0.0193 1.97439,-2.0209 3.39934,-2.38897 1.6207,-0.70928 2.89245,-1.97635 4.36767,-2.87949 1.55612,-0.20851 2.7002,-1.94413 0.93334,-2.92902 -1.36686,-0.73698 -2.41054,-1.60735 -1.79691,-3.25671 -0.79068,-1.51346 -2.83902,-1.937 -3.80933,-3.37555 -0.16643,-1.39619 -0.49879,-3.03002 -1.98412,-3.7088 -1.50427,-0.7338 -2.3757,-2.66014 -0.4799,-3.60116 1.52861,-2.09843 -1.60501,-4.58973 -3.68848,-3.93925 -0.97938,0.41358 -2.40687,0.54056 -2.77987,1.72118 z" />
    <path
       id="path471"
       style="fill:#fef3e6;fill-opacity:1;stroke:#fef3e6;stroke-width:0.264583px;stroke-linecap:butt;stroke-linejoin:miter;stroke-opacity:1"
       d="m 169.75673,262.38025 c 1.45047,1.05566 4.00248,0.93203 4.46822,3.02126 0.43742,1.92052 1.77145,3.68188 3.80071,4.04361 2.4926,0.66585 5.76525,-0.0359 7.47666,2.34575 2.21016,2.32846 3.04256,6.06044 1.2014,8.86053 -1.2558,1.80944 -3.3074,2.90671 -4.35806,4.91108 -1.54755,2.06362 -3.47197,3.81109 -5.40927,5.47938 -1.34371,1.99992 -3.35575,3.59357 -5.87295,3.63127 -2.47199,0.12981 -5.43116,0.0553 -7.30389,-1.79228 -1.62785,-1.88072 0.32929,-4.75111 -1.40563,-6.63338 -2.47932,-1.08794 -4.1082,-3.57463 -3.5435,-6.34085 0.45082,-2.32102 0.70943,-4.68971 1.61261,-6.89968 0.17027,-4.02282 2.98697,-7.40543 6.13953,-9.63142 1.03605,-0.42373 2.37608,-0.0708 3.19417,-0.99527 z" />
    <path
       id="path491"
       style="fill:#002255;stroke:#002255;stroke-width:0.264583px;stroke-linecap:butt;stroke-linejoin:miter;stroke-opacity:1"
       d="m 166.82351,265.13096 c 1.552,1.04105 2.14969,3.2188 3.87891,3.92324 1.49093,0.13721 4.57896,-1.09581 4.37559,1.41813 -0.15935,1.74279 0.0121,3.62434 0.86491,5.2004 1.15137,1.87936 -1.29241,2.1556 -2.0533,3.35949 -1.10154,1.47893 -2.9253,2.13852 -4.36104,3.23453 -2.04001,1.10471 0.26445,3.36317 0.1042,5.0744 0.56878,2.33935 1.35316,4.64838 1.43985,7.082 -1.33663,2.04225 -4.15474,2.27291 -6.37228,2.12643 -1.60625,-0.60075 -5.19317,0.43972 -5.02005,-2.1287 0.48322,-2.68755 0.79393,-5.42662 0.66448,-8.16648 -0.053,-2.61355 0.7628,-5.16509 0.54969,-7.7744 -0.2911,-2.41653 2.16914,-3.70231 2.84622,-5.77129 0.80361,-1.34851 1.39691,-2.89955 1.0899,-4.50969 0.024,-1.27842 0.66341,-2.70345 1.99292,-3.06806 z" />
    <path
       id="path499"
       style="fill:#e6e6e6;stroke:#e6e6e6;stroke-width:0.264583px;stroke-linecap:butt;stroke-linejoin:miter;stroke-opacity:1"
       d="m 200.95814,250.08308 c -1.96567,1.03226 -2.92946,3.28051 -4.96879,4.26986 -2.46914,1.61135 -5.12209,2.9266 -7.37483,4.84752 -3.54246,2.10278 -7.37291,3.73192 -11.32539,4.91958 -1.93052,0.72222 -5.82505,-0.82123 -4.65171,2.67985 0.68604,3.36849 -0.8335,6.96078 0.83476,10.16139 1.29311,2.98767 2.37484,6.19403 1.92314,9.48787 -0.37209,2.93327 2.30202,-1.00207 3.08879,-1.76088 3.13551,-4.04678 5.61912,-8.54834 8.60282,-12.70346 2.9758,-4.68306 4.81459,-10.67259 10.06307,-13.38396 2.46476,-1.92097 3.22276,-5.07437 4.5873,-7.70686 0.21596,-0.49269 -0.35079,-0.86141 -0.77916,-0.81091 z" />
    <path
       id="path507"
       style="fill:#e6e6e6;fill-opacity:1;stroke:#e6e6e6;stroke-width:0.264583px;stroke-linecap:butt;stroke-linejoin:miter;stroke-opacity:1"
       d="m 160.94123,257.76978 c 1.87908,1.0155 4.20216,-0.0999 6.02189,1.05962 0.79911,0.90469 1.78166,1.56974 2.73909,2.29584 0.59036,0.97617 1.45206,1.79455 2.35863,2.48559 0.0527,0.97182 -1.39722,1.39714 -2.04675,2.00426 -1.13004,0.60364 -1.9003,1.67106 -2.97676,2.36526 -2.00833,1.69477 -3.33997,4.00941 -4.75342,6.18462 -0.37324,0.75933 0.84119,2.82068 -0.58091,2.59457 -0.37969,-0.9605 -0.38247,-2.08317 -0.22904,-3.10286 0.70359,-2.17746 0.98738,-4.58767 0.18152,-6.7818 -0.51144,-1.90325 -0.44956,-3.90088 -0.86888,-5.82303 -0.14035,-1.09059 -0.13746,-2.21536 0.15463,-3.28207 z" />
    <path
       id="path515"
       style="fill:#ba9179;fill-opacity:1;stroke:#ba9179;stroke-width:0.264583px;stroke-linecap:butt;stroke-linejoin:miter;stroke-opacity:1"
       d="m 150.53055,247.31788 c 1.35501,2.59216 -0.69337,5.34004 -3.48581,5.43695 -2.80775,1.0985 -5.5371,2.38865 -8.3507,3.51202 -1.6418,1.40857 -6.19427,0.34615 -4.83759,3.84623 1.76553,5.37629 1.94971,11.05707 2.59701,16.63052 0.87603,5.06838 3.74658,9.53191 4.55209,14.62678 -0.29382,3.00842 2.23931,4.1484 4.8203,3.12397 4.00449,-0.87517 8.16088,-0.55727 12.21045,-0.70053 4.34953,1.72233 1.77875,-3.9918 2.78831,-6.26778 0.95239,-3.40809 1.35936,-6.88019 0.90261,-10.41424 0.0649,-3.19929 0.97058,-6.34516 0.70079,-9.56419 0.68516,-2.57372 0.59342,-5.13629 -0.16545,-7.66287 0.34215,-3.33637 -3.48149,-3.16931 -5.25576,-4.96888 -2.18983,-1.58 -4.74692,-2.93798 -5.50969,-5.76467 -0.28921,-0.62739 -0.58602,-1.25488 -0.96656,-1.83331 z" />
    <path
       id="path547"
       style="fill:#c7a693;fill-opacity:1;stroke:#c7a693;stroke-width:0.264583px;stroke-linecap:butt;stroke-linejoin:miter;stroke-opacity:1"
       d="m 227.36132,228.4844 c 5.62157,2.24673 9.00374,7.45921 12.51832,12.04563 4.2264,1.68129 6.54648,5.68112 8.3654,9.70483 1.65244,3.95813 5.30796,6.94384 6.53409,10.99134 -0.69048,4.71035 -6.06293,6.53527 -8.1043,10.59178 -3.25361,4.15068 -7.08779,7.82368 -9.53154,12.5612 -2.62277,3.03781 -3.72323,7.17532 -6.65588,9.90119 -6.11301,2.54467 -12.5167,-1.7191 -18.81768,-1.07238 -5.85727,0.0445 -11.81487,-0.25648 -17.51867,1.03008 -3.57413,-0.89232 -9.74565,-1.87384 -9.33095,-6.64891 0.53016,-6.10278 4.03826,-11.36009 8.51507,-15.34623 4.47359,-4.41536 7.70342,-9.88301 12.24281,-14.2579 5.37353,-5.93563 8.44522,-13.51001 13.35195,-19.75261 3.02843,-3.0671 5.42847,-6.68109 8.43138,-9.74802 z" />
    <path
       id="path539"
       style="fill:#ba9179;fill-opacity:1;stroke:#ba9179;stroke-width:0.264583px;stroke-linecap:butt;stroke-linejoin:miter;stroke-opacity:1"
       d="m 208.38162,230.88018 c -1.08251,4.62072 -2.70112,9.13873 -5.90068,12.73008 -2.677,4.97857 -5.5002,9.85098 -8.94479,14.34793 -3.40114,4.70021 -4.86305,10.609 -9.19267,14.67689 -5.28996,5.34514 -8.98225,11.93097 -13.05712,18.18748 -1.72126,1.5325 -5.70073,6.97035 -0.74965,4.04623 4.90702,-0.60352 10.01729,-0.52408 14.90803,-0.16932 7.41994,2.11579 8.78327,-6.68336 6.80462,-12.0185 0.28076,-2.452 -1.7987,-6.51186 1.63339,-3.1843 3.49759,2.02913 5.98482,4.70391 6.54707,8.57418 6.25558,-1.16541 8.53277,-7.35672 11.06535,-12.34843 2.10445,-7.08379 4.84588,-14.04219 8.45911,-20.52257 2.89928,-6.30662 5.23672,-12.91848 9.29624,-18.62673 2.38792,-3.98246 5.84931,-8.46217 -1.16367,-9.54646 -4.75248,-2.20073 -9.03492,-5.63109 -12.32406,-9.66665 -3.75235,3.16157 -3.057,9.1196 -6.84438,12.46571 z" />
    <path
       id="path571"
       style="fill:#a05a2c;stroke:#a05a2c;stroke-width:0.264583px;stroke-linecap:butt;stroke-linejoin:miter;stroke-opacity:1"
       d="m 128.87417,175.01653 c 0.86265,-0.31622 1.81952,-0.3473 2.51793,-1.03753 1.79579,-1.06377 3.71798,-2.10974 5.83573,-2.27442 1.10242,-0.58729 0.11757,-1.94355 0.13247,-2.88647 -0.35497,-3.12091 -1.25127,-6.17735 -1.23813,-9.33654 0.003,-0.60593 -0.0683,-2.53656 -0.97438,-1.58032 -0.43368,0.82663 -1.12259,1.58787 -2.14877,1.47403 -1.40477,0.006 -2.7634,-0.42979 -4.1421,-0.63948 -0.89557,-0.38466 -2.17264,-0.66598 -2.1065,0.74276 -0.1992,1.47676 -0.37817,3.13688 0.59715,4.39955 0.75065,1.43491 0.39255,3.11158 0.88273,4.62062 0.54135,1.71787 0.27426,3.52006 0.38416,5.2834 0.0392,0.41936 0.1176,0.83712 0.25971,1.2344 z" />
    <path
       id="path555"
       style="fill:#554400;stroke:#554400;stroke-width:0.264583px;stroke-linecap:butt;stroke-linejoin:miter;stroke-opacity:1"
       d="m 128.39936,160.34138 c 2.02234,-0.32527 4.18597,-0.28799 6.01442,-1.3361 0.48608,-0.2942 1.01929,-0.61967 1.27813,-1.14386 0.23227,-0.69092 -0.32859,-1.31325 -0.9093,-1.60071 -1.31687,-0.82551 -2.97815,-0.78566 -4.42375,-0.35752 -1.00924,0.30025 -2.17345,0.53038 -2.8151,1.45478 -0.46594,0.62432 -0.78537,1.48265 -0.51205,2.24806 0.24611,0.4997 0.83505,0.73899 1.36765,0.73535 z" />
    <path
       id="path579"
       style="fill:#fef3e6;fill-opacity:1;stroke:#fef3e6;stroke-width:0.264583px;stroke-linecap:butt;stroke-linejoin:miter;stroke-opacity:1"
       d="m 98.49663,213.57732 c -2.63823,0.32159 -4.889803,2.35428 -6.379345,4.40518 -1.321975,1.98102 -3.53031,3.19557 -4.501124,5.43976 -1.22479,2.2597 -2.790763,4.29148 -4.498715,6.20099 -1.821744,2.17031 -2.355346,5.14078 -1.609802,7.8423 0.210825,2.25536 -0.772981,4.42346 -1.104501,6.63383 -0.606147,2.3341 -0.655748,4.76614 -1.02551,7.11614 0.827572,2.23591 3.387842,-0.91806 4.667208,-1.63143 1.970577,-1.82568 4.217021,-3.30681 6.688384,-4.35928 2.111914,-0.75942 1.360052,-3.05151 0.750045,-4.5971 -0.513711,-2.65967 -0.05067,-5.40662 0.0062,-8.09653 0.05851,-3.87632 1.226799,-7.60608 1.722809,-11.4234 0.926383,-2.97955 3.070636,-5.42017 5.28439,-7.53046 z" />
    <path
       id="path607"
       style="fill:#ba9179;fill-opacity:1;stroke:#ba9179;stroke-width:0.264583px;stroke-linecap:butt;stroke-linejoin:miter;stroke-opacity:1"
       d="m 88.858897,221.62981 c -1.740924,3.58515 -2.125965,8.02576 -5.419632,10.65231 -2.947803,3.95851 0.07353,8.6135 0.580943,12.80983 -0.422796,2.84581 0.522817,6.64133 4.124275,5.36118 4.181206,0.34462 8.529778,-2.96473 11.799377,-5.51276 2.44138,-1.22846 3.65986,-4.09161 6.2108,-5.30281 1.09881,-0.6915 2.17359,-0.54846 3.90696,-3.36098 0.56283,3.51218 -1.1798,7.80299 -5.81857,11.7527 -0.61019,4.58216 -5.546403,7.63296 -8.428713,10.93612 -2.211236,1.69105 -3.731984,4.43931 -6.436564,5.45675 -2.441188,1.41165 -4.965154,2.88864 -7.90214,2.70533 -3.547012,0.37295 -6.300721,-2.47867 -8.884131,-4.44366 -2.001832,-2.53881 -0.256119,-5.73955 -0.01636,-8.52069 1.035846,-3.13301 3.156642,-5.94086 3.120886,-9.37747 0.324327,-4.46518 -0.272854,-9.21373 2.005013,-13.28929 2.053515,-3.78523 3.838271,-7.97203 7.370579,-10.6435 1.407876,-0.77226 8.490834,-7.09117 9.172373,-5.4023 -0.479857,1.06945 -4.968289,5.08508 -5.385101,6.17924 z"
       sodipodi:nodetypes="sccccccccccccccccss" />
    <path
       id="path623"
       style="fill:#ba9179;fill-opacity:1;stroke:#ba9179;stroke-width:0.264583px;stroke-linecap:butt;stroke-linejoin:miter;stroke-opacity:1"
       d="m 68.843956,270.12217 c 0.828077,4.35446 4.636806,8.03792 3.505653,12.74571 -0.325166,3.45199 2.413962,6.97734 6.085816,5.74507 5.345088,-0.48462 10.846553,-0.33628 15.936145,-2.25404 3.405569,-1.0629 7.80567,0.03 10.31285,-3.0652 2.59578,-4.42283 3.41587,-9.61599 5.79326,-14.15405 1.42627,-3.57409 3.13411,-7.07602 5.53715,-10.08884 0.19804,-2.34748 2.66711,-5.44304 -0.94697,-5.62377 -2.73024,-0.69218 -4.72961,-2.8773 -7.47926,-3.56148 -2.11693,-0.90365 -5.2733,-3.41106 -5.99143,0.48315 -2.397001,4.7172 -6.896342,8.0203 -8.82436,13.01905 -2.555264,5.78849 -8.456798,10.76588 -15.060527,10.188 -3.099298,-0.42135 -6.010175,-1.8283 -8.036661,-4.1876 -0.601295,-0.36895 -0.28294,0.7591 -0.831666,0.754 z" />
    <path
       id="path615"
       style="fill:#c7a693;fill-opacity:1;stroke:#c7a693;stroke-width:0.264583px;stroke-linecap:butt;stroke-linejoin:miter;stroke-opacity:1"
       d="m 93.047263,214.99123 c -6.895768,1.25151 -7.50189,1.87305 -10.417485,3.23032 -3.085852,1.14733 -6.851717,0.6425 -9.464047,2.80067 -3.049249,3.48287 -0.754552,8.6872 -4.179763,12.03835 0.09089,4.77314 -2.612527,8.99211 -3.309919,13.64417 -1.176312,4.18333 -2.588593,8.3847 -2.957777,12.70593 0.182899,3.54457 3.151363,5.923 4.678351,8.91172 2.762678,2.01929 3.995769,5.08372 6.27005,7.59384 2.876045,2.30118 6.34992,-0.90582 9.528782,-0.97726 5.426727,-1.06165 6.028893,-7.94659 10.609712,-10.3138 3.984689,-3.02494 6.568953,-7.44015 9.095373,-11.66193 2.19823,-4.17517 6.67048,-7.24455 7.34824,-12.91477 -0.0381,-7.03831 0.4223,-3.6032 -1.36623,-0.84316 -2.74766,4.14605 -6.24795,8.06886 -7.59978,12.84664 -2.569959,5.13411 -7.936649,5.98078 -11.061756,10.66943 -3.260197,2.88916 -9.413384,6.61702 -12.72359,2.98214 -1.72996,-2.64564 -7.545793,-2.85603 -5.222943,-7.0172 1.843709,-3.60193 0.885974,-8.10792 3.439212,-11.46851 2.080916,-3.51487 -0.455961,-8.02917 2.207815,-11.40253 1.071683,-3.72277 0.809219,-8.13456 4.053584,-10.87799 2.613456,-2.81587 4.735411,-6.06366 8.318367,-7.75116 0.793798,-0.68136 2.678642,-1.15733 2.753804,-2.1949 z"
       sodipodi:nodetypes="cccccccccccccccccccccc" />
    <path
       id="path1454"
       style="fill:#e4826f;fill-opacity:1;stroke:#e4826f;stroke-width:0.264583px;stroke-linecap:butt;stroke-linejoin:miter;stroke-opacity:1"
       d="m 162.47939,251.73089 c 0.57684,-0.97029 1.68833,-1.49348 2.78976,-1.54836 2.35389,-0.32469 4.73326,-0.43324 7.10414,-0.52507 1.32747,0.0279 2.51387,0.76006 3.48286,1.61203 0.47957,0.73021 0.18854,-0.73352 -0.18404,-0.85158 -1.04221,-0.96174 -2.50182,-1.24024 -3.84906,-1.51138 -1.47103,-0.22153 -2.97472,-0.35012 -4.459,-0.2157 -1.20088,0.21284 -2.37745,0.60966 -3.61234,0.56998 -0.66818,0.0331 -1.6647,-0.0936 -1.8503,0.7655 -0.2298,0.65254 0.19836,1.22004 0.57798,1.70458 z" />
    <path
       id="path1462"
       style="fill:#e4826f;fill-opacity:1;stroke:#e4826f;stroke-width:0.264583px;stroke-linecap:butt;stroke-linejoin:miter;stroke-opacity:1"
       d="m 154.60128,215.30834 c -0.53279,0.57301 -1.34281,0.69024 -2.03521,0.97452 -0.6442,0.24282 -1.32981,0.34245 -2.01597,0.34362 -0.51987,0.0103 -1.03574,0.0786 -1.54668,0.16708 -0.23317,-0.0407 -0.59595,0.0818 -0.74986,-0.0489 0.23009,-0.27211 0.64541,-0.13656 0.94284,-0.0586 0.4495,0.13904 0.81028,0.44772 1.20512,0.68677 0.43081,0.1982 0.92444,0.14735 1.38677,0.16523 0.78154,-0.012 1.67378,-0.0608 2.24231,-0.67269 0.38076,-0.42569 0.51452,-1.00381 0.57068,-1.55708 z" />
    <path
       id="path1482"
       style="fill:#e4826f;fill-opacity:1;stroke:#e4826f;stroke-width:0.264583px;stroke-linecap:butt;stroke-linejoin:miter;stroke-opacity:1"
       d="m 115.88381,185.5931 c -0.0819,0.90493 0.83397,1.32443 1.25431,1.96998 0.76703,1.37109 1.32164,2.89095 1.40947,4.47149 0.0837,1.2631 0.22264,2.56264 0.86747,3.6809 0.32916,0.80497 1.10422,1.2763 1.45098,2.07043 0.26938,0.11955 0.85247,0.63942 0.8816,0.51582 -0.21726,-1.00773 -0.84022,-1.8946 -1.19592,-2.86498 -0.79239,-1.41455 -1.63,-2.90928 -1.61765,-4.58163 -0.1082,-1.55333 -0.0572,-3.22994 -0.87198,-4.61413 -0.47406,-0.7349 -1.38802,-0.90059 -2.17828,-0.64788 z" />
    <path
       id="path1490"
       style="fill:#e4826f;fill-opacity:1;stroke:#e4826f;stroke-width:0.264583px;stroke-linecap:butt;stroke-linejoin:miter;stroke-opacity:1"
       d="m 139.12048,205.79039 c -3.43329,0.87974 -6.80815,2.01316 -10.04405,3.46119 -0.48284,0.10366 -0.88804,0.73484 -1.20903,0.77309 0.16885,-0.50032 0.89127,-0.82422 1.40027,-1.05115 0.99226,-0.3715 1.97451,-0.79354 3.0306,-0.95513 1.36891,-0.25598 2.79284,-0.55548 3.90543,-1.45005 0.76049,-0.58387 1.71492,-1.16664 2.71022,-0.84863 l 0.1042,0.0327 0.1024,0.038 z" />
  </g>
</svg>
