<?xml version="1.0" encoding="UTF-8" standalone="no"?>
<svg
   xmlns:dc="http://purl.org/dc/elements/1.1/"
   xmlns:cc="http://creativecommons.org/ns#"
   xmlns:rdf="http://www.w3.org/1999/02/22-rdf-syntax-ns#"
   xmlns:svg="http://www.w3.org/2000/svg"
   xmlns="http://www.w3.org/2000/svg"
   xmlns:sodipodi="http://sodipodi.sourceforge.net/DTD/sodipodi-0.dtd"
   xmlns:inkscape="http://www.inkscape.org/namespaces/inkscape"
   sodipodi:docname="forest-lodgepole-pine.svg"
   inkscape:version="1.0 (4035a4fb49, 2020-05-01)"
   id="svg8"
   version="1.1"
   viewBox="0 0 158.75 79.375"
   height="300"
   width="600">
  <defs
     id="defs2">
    <inkscape:path-effect
       lpeversion="1"
       is_visible="true"
       id="path-effect502"
       effect="spiro" />
    <inkscape:path-effect
       simplify_just_coalesce="false"
       simplify_individual_paths="false"
       helper_size="0"
       smooth_angles="360"
       threshold="0.000408163"
       steps="1"
       lpeversion="1"
       is_visible="true"
       id="path-effect500"
       effect="simplify" />
    <inkscape:path-effect
       lpeversion="1"
       is_visible="true"
       id="path-effect494"
       effect="spiro" />
    <inkscape:path-effect
       simplify_just_coalesce="false"
       simplify_individual_paths="false"
       helper_size="0"
       smooth_angles="360"
       threshold="0.000408163"
       steps="1"
       lpeversion="1"
       is_visible="true"
       id="path-effect492"
       effect="simplify" />
    <inkscape:path-effect
       lpeversion="1"
       is_visible="true"
       id="path-effect486"
       effect="spiro" />
    <inkscape:path-effect
       simplify_just_coalesce="false"
       simplify_individual_paths="false"
       helper_size="0"
       smooth_angles="360"
       threshold="0.000408163"
       steps="1"
       lpeversion="1"
       is_visible="true"
       id="path-effect484"
       effect="simplify" />
    <inkscape:path-effect
       lpeversion="1"
       is_visible="true"
       id="path-effect478"
       effect="spiro" />
    <inkscape:path-effect
       simplify_just_coalesce="false"
       simplify_individual_paths="false"
       helper_size="0"
       smooth_angles="360"
       threshold="0.000408163"
       steps="1"
       lpeversion="1"
       is_visible="true"
       id="path-effect476"
       effect="simplify" />
    <inkscape:path-effect
       lpeversion="1"
       is_visible="true"
       id="path-effect470"
       effect="spiro" />
    <inkscape:path-effect
       simplify_just_coalesce="false"
       simplify_individual_paths="false"
       helper_size="0"
       smooth_angles="360"
       threshold="0.000408163"
       steps="1"
       lpeversion="1"
       is_visible="true"
       id="path-effect468"
       effect="simplify" />
    <inkscape:path-effect
       lpeversion="1"
       is_visible="true"
       id="path-effect462"
       effect="spiro" />
    <inkscape:path-effect
       simplify_just_coalesce="false"
       simplify_individual_paths="false"
       helper_size="0"
       smooth_angles="360"
       threshold="0.000408163"
       steps="1"
       lpeversion="1"
       is_visible="true"
       id="path-effect460"
       effect="simplify" />
    <inkscape:path-effect
       lpeversion="1"
       is_visible="true"
       id="path-effect456"
       effect="spiro" />
    <inkscape:path-effect
       simplify_just_coalesce="false"
       simplify_individual_paths="false"
       helper_size="0"
       smooth_angles="360"
       threshold="0.000408163"
       steps="1"
       lpeversion="1"
       is_visible="true"
       id="path-effect454"
       effect="simplify" />
    <inkscape:path-effect
       lpeversion="1"
       is_visible="true"
       id="path-effect448"
       effect="spiro" />
    <inkscape:path-effect
       simplify_just_coalesce="false"
       simplify_individual_paths="false"
       helper_size="0"
       smooth_angles="360"
       threshold="0.000408163"
       steps="1"
       lpeversion="1"
       is_visible="true"
       id="path-effect446"
       effect="simplify" />
    <inkscape:path-effect
       lpeversion="1"
       is_visible="true"
       id="path-effect440"
       effect="spiro" />
    <inkscape:path-effect
       simplify_just_coalesce="false"
       simplify_individual_paths="false"
       helper_size="0"
       smooth_angles="360"
       threshold="0.000408163"
       steps="1"
       lpeversion="1"
       is_visible="true"
       id="path-effect438"
       effect="simplify" />
    <inkscape:path-effect
       lpeversion="1"
       is_visible="true"
       id="path-effect432"
       effect="spiro" />
    <inkscape:path-effect
       simplify_just_coalesce="false"
       simplify_individual_paths="false"
       helper_size="0"
       smooth_angles="360"
       threshold="0.000408163"
       steps="1"
       lpeversion="1"
       is_visible="true"
       id="path-effect430"
       effect="simplify" />
    <inkscape:path-effect
       lpeversion="1"
       is_visible="true"
       id="path-effect424"
       effect="spiro" />
    <inkscape:path-effect
       simplify_just_coalesce="false"
       simplify_individual_paths="false"
       helper_size="0"
       smooth_angles="360"
       threshold="0.000408163"
       steps="1"
       lpeversion="1"
       is_visible="true"
       id="path-effect422"
       effect="simplify" />
    <inkscape:path-effect
       lpeversion="1"
       is_visible="true"
       id="path-effect416"
       effect="spiro" />
    <inkscape:path-effect
       simplify_just_coalesce="false"
       simplify_individual_paths="false"
       helper_size="0"
       smooth_angles="360"
       threshold="0.000408163"
       steps="1"
       lpeversion="1"
       is_visible="true"
       id="path-effect414"
       effect="simplify" />
    <inkscape:path-effect
       lpeversion="1"
       is_visible="true"
       id="path-effect408"
       effect="spiro" />
    <inkscape:path-effect
       simplify_just_coalesce="false"
       simplify_individual_paths="false"
       helper_size="0"
       smooth_angles="360"
       threshold="0.000408163"
       steps="1"
       lpeversion="1"
       is_visible="true"
       id="path-effect406"
       effect="simplify" />
    <inkscape:path-effect
       lpeversion="1"
       is_visible="true"
       id="path-effect400"
       effect="spiro" />
    <inkscape:path-effect
       simplify_just_coalesce="false"
       simplify_individual_paths="false"
       helper_size="0"
       smooth_angles="360"
       threshold="0.000408163"
       steps="1"
       lpeversion="1"
       is_visible="true"
       id="path-effect398"
       effect="simplify" />
    <inkscape:path-effect
       lpeversion="1"
       is_visible="true"
       id="path-effect392"
       effect="spiro" />
    <inkscape:path-effect
       simplify_just_coalesce="false"
       simplify_individual_paths="false"
       helper_size="0"
       smooth_angles="360"
       threshold="0.000408163"
       steps="1"
       lpeversion="1"
       is_visible="true"
       id="path-effect390"
       effect="simplify" />
    <inkscape:path-effect
       lpeversion="1"
       is_visible="true"
       id="path-effect384"
       effect="spiro" />
    <inkscape:path-effect
       simplify_just_coalesce="false"
       simplify_individual_paths="false"
       helper_size="0"
       smooth_angles="360"
       threshold="0.000408163"
       steps="1"
       lpeversion="1"
       is_visible="true"
       id="path-effect382"
       effect="simplify" />
    <inkscape:path-effect
       lpeversion="1"
       is_visible="true"
       id="path-effect376"
       effect="spiro" />
    <inkscape:path-effect
       simplify_just_coalesce="false"
       simplify_individual_paths="false"
       helper_size="0"
       smooth_angles="360"
       threshold="0.000408163"
       steps="1"
       lpeversion="1"
       is_visible="true"
       id="path-effect374"
       effect="simplify" />
    <inkscape:path-effect
       lpeversion="1"
       is_visible="true"
       id="path-effect368"
       effect="spiro" />
    <inkscape:path-effect
       simplify_just_coalesce="false"
       simplify_individual_paths="false"
       helper_size="0"
       smooth_angles="360"
       threshold="0.000408163"
       steps="1"
       lpeversion="1"
       is_visible="true"
       id="path-effect366"
       effect="simplify" />
    <inkscape:path-effect
       lpeversion="1"
       is_visible="true"
       id="path-effect360"
       effect="spiro" />
    <inkscape:path-effect
       simplify_just_coalesce="false"
       simplify_individual_paths="false"
       helper_size="0"
       smooth_angles="360"
       threshold="0.000408163"
       steps="1"
       lpeversion="1"
       is_visible="true"
       id="path-effect358"
       effect="simplify" />
    <inkscape:path-effect
       lpeversion="1"
       is_visible="true"
       id="path-effect352"
       effect="spiro" />
    <inkscape:path-effect
       simplify_just_coalesce="false"
       simplify_individual_paths="false"
       helper_size="0"
       smooth_angles="360"
       threshold="0.000408163"
       steps="1"
       lpeversion="1"
       is_visible="true"
       id="path-effect350"
       effect="simplify" />
    <inkscape:path-effect
       lpeversion="1"
       is_visible="true"
       id="path-effect344"
       effect="spiro" />
    <inkscape:path-effect
       simplify_just_coalesce="false"
       simplify_individual_paths="false"
       helper_size="0"
       smooth_angles="360"
       threshold="0.000408163"
       steps="1"
       lpeversion="1"
       is_visible="true"
       id="path-effect342"
       effect="simplify" />
    <inkscape:path-effect
       lpeversion="1"
       is_visible="true"
       id="path-effect336"
       effect="spiro" />
    <inkscape:path-effect
       simplify_just_coalesce="false"
       simplify_individual_paths="false"
       helper_size="0"
       smooth_angles="360"
       threshold="0.000408163"
       steps="1"
       lpeversion="1"
       is_visible="true"
       id="path-effect334"
       effect="simplify" />
    <inkscape:path-effect
       lpeversion="1"
       is_visible="true"
       id="path-effect330"
       effect="spiro" />
    <inkscape:path-effect
       simplify_just_coalesce="false"
       simplify_individual_paths="false"
       helper_size="0"
       smooth_angles="360"
       threshold="0.000408163"
       steps="1"
       lpeversion="1"
       is_visible="true"
       id="path-effect328"
       effect="simplify" />
    <inkscape:path-effect
       lpeversion="1"
       is_visible="true"
       id="path-effect322"
       effect="spiro" />
    <inkscape:path-effect
       simplify_just_coalesce="false"
       simplify_individual_paths="false"
       helper_size="0"
       smooth_angles="360"
       threshold="0.000408163"
       steps="1"
       lpeversion="1"
       is_visible="true"
       id="path-effect320"
       effect="simplify" />
    <inkscape:path-effect
       lpeversion="1"
       is_visible="true"
       id="path-effect314"
       effect="spiro" />
    <inkscape:path-effect
       simplify_just_coalesce="false"
       simplify_individual_paths="false"
       helper_size="0"
       smooth_angles="360"
       threshold="0.000408163"
       steps="1"
       lpeversion="1"
       is_visible="true"
       id="path-effect312"
       effect="simplify" />
    <inkscape:path-effect
       lpeversion="1"
       is_visible="true"
       id="path-effect306"
       effect="spiro" />
    <inkscape:path-effect
       simplify_just_coalesce="false"
       simplify_individual_paths="false"
       helper_size="0"
       smooth_angles="360"
       threshold="0.000408163"
       steps="1"
       lpeversion="1"
       is_visible="true"
       id="path-effect304"
       effect="simplify" />
    <inkscape:path-effect
       lpeversion="1"
       is_visible="true"
       id="path-effect298"
       effect="spiro" />
    <inkscape:path-effect
       simplify_just_coalesce="false"
       simplify_individual_paths="false"
       helper_size="0"
       smooth_angles="360"
       threshold="0.000408163"
       steps="1"
       lpeversion="1"
       is_visible="true"
       id="path-effect296"
       effect="simplify" />
    <inkscape:path-effect
       lpeversion="1"
       is_visible="true"
       id="path-effect290"
       effect="spiro" />
    <inkscape:path-effect
       simplify_just_coalesce="false"
       simplify_individual_paths="false"
       helper_size="0"
       smooth_angles="360"
       threshold="0.000408163"
       steps="1"
       lpeversion="1"
       is_visible="true"
       id="path-effect288"
       effect="simplify" />
    <inkscape:path-effect
       lpeversion="1"
       is_visible="true"
       id="path-effect282"
       effect="spiro" />
    <inkscape:path-effect
       simplify_just_coalesce="false"
       simplify_individual_paths="false"
       helper_size="0"
       smooth_angles="360"
       threshold="0.000408163"
       steps="1"
       lpeversion="1"
       is_visible="true"
       id="path-effect280"
       effect="simplify" />
    <inkscape:path-effect
       lpeversion="1"
       is_visible="true"
       id="path-effect274"
       effect="spiro" />
    <inkscape:path-effect
       simplify_just_coalesce="false"
       simplify_individual_paths="false"
       helper_size="0"
       smooth_angles="360"
       threshold="0.000408163"
       steps="1"
       lpeversion="1"
       is_visible="true"
       id="path-effect272"
       effect="simplify" />
    <inkscape:path-effect
       lpeversion="1"
       is_visible="true"
       id="path-effect266"
       effect="spiro" />
    <inkscape:path-effect
       simplify_just_coalesce="false"
       simplify_individual_paths="false"
       helper_size="0"
       smooth_angles="360"
       threshold="0.000408163"
       steps="1"
       lpeversion="1"
       is_visible="true"
       id="path-effect264"
       effect="simplify" />
    <inkscape:path-effect
       lpeversion="1"
       is_visible="true"
       id="path-effect258"
       effect="spiro" />
    <inkscape:path-effect
       simplify_just_coalesce="false"
       simplify_individual_paths="false"
       helper_size="0"
       smooth_angles="360"
       threshold="0.000408163"
       steps="1"
       lpeversion="1"
       is_visible="true"
       id="path-effect256"
       effect="simplify" />
    <inkscape:path-effect
       lpeversion="1"
       is_visible="true"
       id="path-effect250"
       effect="spiro" />
    <inkscape:path-effect
       simplify_just_coalesce="false"
       simplify_individual_paths="false"
       helper_size="0"
       smooth_angles="360"
       threshold="0.000408163"
       steps="1"
       lpeversion="1"
       is_visible="true"
       id="path-effect248"
       effect="simplify" />
    <inkscape:path-effect
       lpeversion="1"
       is_visible="true"
       id="path-effect242"
       effect="spiro" />
    <inkscape:path-effect
       simplify_just_coalesce="false"
       simplify_individual_paths="false"
       helper_size="0"
       smooth_angles="360"
       threshold="0.000408163"
       steps="1"
       lpeversion="1"
       is_visible="true"
       id="path-effect240"
       effect="simplify" />
    <inkscape:path-effect
       lpeversion="1"
       is_visible="true"
       id="path-effect234"
       effect="spiro" />
    <inkscape:path-effect
       simplify_just_coalesce="false"
       simplify_individual_paths="false"
       helper_size="0"
       smooth_angles="360"
       threshold="0.000408163"
       steps="1"
       lpeversion="1"
       is_visible="true"
       id="path-effect232"
       effect="simplify" />
    <inkscape:path-effect
       lpeversion="1"
       is_visible="true"
       id="path-effect226"
       effect="spiro" />
    <inkscape:path-effect
       simplify_just_coalesce="false"
       simplify_individual_paths="false"
       helper_size="0"
       smooth_angles="360"
       threshold="0.000408163"
       steps="1"
       lpeversion="1"
       is_visible="true"
       id="path-effect224"
       effect="simplify" />
    <inkscape:path-effect
       lpeversion="1"
       is_visible="true"
       id="path-effect218"
       effect="spiro" />
    <inkscape:path-effect
       simplify_just_coalesce="false"
       simplify_individual_paths="false"
       helper_size="0"
       smooth_angles="360"
       threshold="0.000408163"
       steps="1"
       lpeversion="1"
       is_visible="true"
       id="path-effect216"
       effect="simplify" />
    <inkscape:path-effect
       lpeversion="1"
       is_visible="true"
       id="path-effect210"
       effect="spiro" />
    <inkscape:path-effect
       simplify_just_coalesce="false"
       simplify_individual_paths="false"
       helper_size="0"
       smooth_angles="360"
       threshold="0.000408163"
       steps="1"
       lpeversion="1"
       is_visible="true"
       id="path-effect208"
       effect="simplify" />
    <inkscape:path-effect
       lpeversion="1"
       is_visible="true"
       id="path-effect202"
       effect="spiro" />
    <inkscape:path-effect
       simplify_just_coalesce="false"
       simplify_individual_paths="false"
       helper_size="0"
       smooth_angles="360"
       threshold="0.000408163"
       steps="1"
       lpeversion="1"
       is_visible="true"
       id="path-effect200"
       effect="simplify" />
    <inkscape:path-effect
       lpeversion="1"
       is_visible="true"
       id="path-effect194"
       effect="spiro" />
    <inkscape:path-effect
       simplify_just_coalesce="false"
       simplify_individual_paths="false"
       helper_size="0"
       smooth_angles="360"
       threshold="0.000408163"
       steps="1"
       lpeversion="1"
       is_visible="true"
       id="path-effect192"
       effect="simplify" />
    <inkscape:path-effect
       lpeversion="1"
       is_visible="true"
       id="path-effect186"
       effect="spiro" />
    <inkscape:path-effect
       simplify_just_coalesce="false"
       simplify_individual_paths="false"
       helper_size="0"
       smooth_angles="360"
       threshold="0.000408163"
       steps="1"
       lpeversion="1"
       is_visible="true"
       id="path-effect184"
       effect="simplify" />
    <inkscape:path-effect
       lpeversion="1"
       is_visible="true"
       id="path-effect178"
       effect="spiro" />
    <inkscape:path-effect
       simplify_just_coalesce="false"
       simplify_individual_paths="false"
       helper_size="0"
       smooth_angles="360"
       threshold="0.000408163"
       steps="1"
       lpeversion="1"
       is_visible="true"
       id="path-effect176"
       effect="simplify" />
    <inkscape:path-effect
       lpeversion="1"
       is_visible="true"
       id="path-effect170"
       effect="spiro" />
    <inkscape:path-effect
       simplify_just_coalesce="false"
       simplify_individual_paths="false"
       helper_size="0"
       smooth_angles="360"
       threshold="0.000408163"
       steps="1"
       lpeversion="1"
       is_visible="true"
       id="path-effect168"
       effect="simplify" />
    <inkscape:path-effect
       lpeversion="1"
       is_visible="true"
       id="path-effect162"
       effect="spiro" />
    <inkscape:path-effect
       simplify_just_coalesce="false"
       simplify_individual_paths="false"
       helper_size="0"
       smooth_angles="360"
       threshold="0.000408163"
       steps="1"
       lpeversion="1"
       is_visible="true"
       id="path-effect160"
       effect="simplify" />
  </defs>
  <sodipodi:namedview
     inkscape:snap-global="false"
     inkscape:document-rotation="0"
     inkscape:window-maximized="0"
     inkscape:window-y="25"
     inkscape:window-x="20"
     inkscape:window-height="1059"
     inkscape:window-width="1918"
     units="px"
     showgrid="false"
     inkscape:current-layer="layer1"
     inkscape:document-units="mm"
     inkscape:cy="110.03229"
     inkscape:cx="447.00752"
     inkscape:zoom="1.979899"
     inkscape:pageshadow="2"
     inkscape:pageopacity="0.0"
     borderopacity="1.0"
     bordercolor="#666666"
     pagecolor="#ffffff"
     id="base" />
  <metadata
     id="metadata5">
    <rdf:RDF>
      <cc:Work
         rdf:about="">
        <dc:format>image/svg+xml</dc:format>
        <dc:type
           rdf:resource="http://purl.org/dc/dcmitype/StillImage" />
        <dc:title></dc:title>
      </cc:Work>
    </rdf:RDF>
  </metadata>
  <g
     transform="translate(0,-217.62501)"
     id="layer1"
     inkscape:groupmode="layer"
     inkscape:label="Layer 1">
    <path
       d="m 79.411271,223.9476 c 0.267361,3.26754 -0.377155,6.54146 -0.360025,9.8131 -0.804959,8.56323 0.09873,17.16537 -0.254944,25.74901 0.01363,7.07351 -1.353731,14.08233 -1.132599,21.1704 -0.126037,4.51177 -1.256923,9.62307 -0.615155,13.73758 4.61707,1.87618 3.056431,-4.10217 3.250294,-6.73054 -0.3467,-4.33934 -0.103901,-8.71019 0.124057,-13.0289 -0.124084,-4.28557 0.159171,-8.55859 -0.196383,-12.83711 0.525152,-5.86683 0.161121,-11.77125 0.148094,-17.65567 -0.290581,-5.97598 0.56479,-11.99849 -0.652493,-17.92471 0.715752,-1.01097 -0.290109,-2.14161 -0.01509,-2.94759"
       style="fill:#52422d;fill-opacity:1;stroke:#52422d;stroke-width:0.264583px;stroke-linecap:butt;stroke-linejoin:miter;stroke-opacity:1"
       id="path158" />
    <path
       d="m 80.039821,264.05473 c 0.967359,0.48059 2.086682,0.14682 2.989672,-0.31994 0.639666,-0.25199 1.27316,-0.52691 1.836751,-0.92491 0.807303,-0.40601 1.733112,-0.50174 2.526621,-0.94459 0.824074,-0.37987 1.720079,-0.56285 2.559914,-0.89604 0.46326,-0.24148 -0.39553,0.20399 -0.491845,0.37042 -0.604357,0.28981 -1.245012,0.51868 -1.884484,0.71568 -0.769948,0.0585 -1.399357,0.50159 -2.062426,0.84563 -0.542493,0.30684 -1.223355,0.27855 -1.691701,0.72647 -0.406632,0.28083 -0.917035,0.33697 -1.366639,0.53106 -0.450561,0.17171 -0.939069,0.17793 -1.403305,0.0657 -0.33665,-0.0521 -0.710928,0.0196 -1.012558,-0.16952 z"
       style="fill:#52422d;fill-opacity:1;stroke:#52422d;stroke-width:0.264583px;stroke-linecap:butt;stroke-linejoin:miter;stroke-opacity:1"
       id="path166" />
    <path
       d="m 79.990521,267.14928 c 1.772678,-0.29367 3.583062,-0.46454 5.374802,-0.24857 1.23895,0.0136 2.460409,-0.24698 3.682632,-0.41871 0.488233,-0.0591 0.992218,-0.19241 1.477559,-0.15219 0.506914,0.0498 0.419059,0.44773 -0.03419,0.45999 -0.763263,0.22506 -1.536058,0.45726 -2.342217,0.40748 -0.981728,0.0271 -1.964382,-0.0207 -2.943971,-0.0578 -0.529646,0.37696 0.550561,0.74745 0.901055,0.64869 0.946142,0.0268 1.902647,-0.35829 2.836709,-0.0656 0.144608,0.38519 -0.791905,0.12872 -1.048642,0.20198 -0.421979,0.0674 -1.287486,-0.0935 -1.462422,0.20339 0.510033,0.30234 0.998753,0.67035 1.612442,0.7297 0.357609,0.20865 -0.504086,0.058 -0.674341,-0.0843 -0.668895,-0.27907 -1.359891,-0.52835 -2.073452,-0.62681 -0.561002,-0.30826 -1.025582,-0.81414 -1.688392,-0.91203 -1.183311,-0.25036 -2.419489,-0.13772 -3.61757,-0.0852 z"
       style="fill:#52422d;fill-opacity:1;stroke:#52422d;stroke-width:0.264583px;stroke-linecap:butt;stroke-linejoin:miter;stroke-opacity:1"
       id="path174" />
    <path
       d="m 78.992237,271.14224 c -0.825529,0.34249 -1.067118,1.30732 -1.772125,1.79813 -0.731704,0.67423 -1.628172,1.10674 -2.477169,1.60542 -0.939925,0.81221 -2.374897,0.81861 -3.167331,1.8336 -0.321661,0.44064 -1.053287,0.44951 -1.169035,1.03182 -0.03664,0.0813 0.593668,-0.6145 0.817692,-0.79622 0.454596,-0.27321 0.808564,-1.1001 1.029137,-1.26701 -0.526502,0.50987 -1.348182,0.32841 -2.015812,0.48681 -0.409425,0.21353 -1.273695,0.29441 -1.443208,0.13869 0.538935,-0.0944 1.110466,0.0387 1.619421,-0.22668 1.443766,-0.52121 3.066611,-0.68467 4.304798,-1.66281 0.691956,-0.58979 1.18415,-1.39328 1.969407,-1.8818 0.575568,-0.31604 1.053767,-0.77566 1.621747,-1.10154 0.121506,-0.35105 0.53007,-0.17792 0.682478,0.0416 z"
       style="fill:#52422d;fill-opacity:1;stroke:#52422d;stroke-width:0.264583px;stroke-linecap:butt;stroke-linejoin:miter;stroke-opacity:1"
       id="path182" />
    <path
       d="m 79.731705,277.37571 c 0.873619,-0.29938 1.809952,-0.59817 2.741273,-0.45147 0.847006,0.27344 1.691384,0.56463 2.570632,0.72435 0.714022,0.17913 1.500823,0.25001 2.08777,0.73729 0.65411,0.33841 1.551001,0.11641 2.074721,0.73215 0.300822,0.35397 0.57682,-0.24139 0.139411,-0.31431 -0.800088,-0.66903 -1.874298,-0.78298 -2.809519,-1.17624 -0.815315,-0.2618 -1.546065,-0.71323 -2.326468,-1.0526 -1.093385,-0.43111 -2.300642,-0.35102 -3.447525,-0.26512 -0.433141,0.0772 -1.09443,0.41041 -1.084315,0.86738 l 0.03509,0.0985 0.01893,0.1001 z"
       style="fill:#52422d;fill-opacity:1;stroke:#52422d;stroke-width:0.264583px;stroke-linecap:butt;stroke-linejoin:miter;stroke-opacity:1"
       id="path190" />
    <path
       d="m 78.992235,271.14224 c 1.485963,0.0349 2.878033,-0.64096 4.36323,-0.60997 1.083657,0.0141 2.116109,-0.34369 3.17875,-0.49848 0.746193,-0.1077 1.449346,-0.38179 2.163594,-0.60223 0.608406,0.0883 -0.383996,0.36573 -0.602624,0.45865 -1.175181,0.30163 -2.418343,0.38687 -3.528455,0.91548 -0.257937,-0.0711 -0.83899,0.22413 -0.327662,0.32521 0.441796,-0.26709 0.926,-0.49734 1.436301,-0.2023 0.343985,0.15524 0.99672,0.19865 1.1241,0.36207 -0.679615,0.22426 -1.429189,-0.13399 -2.142668,-0.11302 -1.054008,-0.10355 -2.096001,0.0961 -3.128095,0.27989 -0.520644,0.0773 -1.043495,0.1394 -1.563059,0.22399 0.172403,0.10144 0.59735,-0.2281 0.852178,0.0835 0.442955,0.32017 0.976141,0.12737 1.463753,0.24952 0.623563,0.1363 1.219226,0.35224 1.797513,0.62182 1.100478,0.40873 2.288355,0.57073 3.353329,1.07186 0.267244,0.19683 0.79238,0.41807 0.920777,0.56113 -0.584378,-0.20222 -1.184568,-0.3583 -1.717526,-0.71462 -1.114155,-0.42012 -2.392225,-0.30162 -3.437015,-0.93481 -0.927809,-0.50562 -1.961231,-0.84017 -3.027559,-0.81206 -0.310119,-0.1402 -0.8695,0.26121 -0.850887,-0.19585 -0.133815,-0.13884 -0.201482,-0.32529 -0.327975,-0.46975 z"
       style="fill:#52422d;fill-opacity:1;stroke:#52422d;stroke-width:0.264583px;stroke-linecap:butt;stroke-linejoin:miter;stroke-opacity:1"
       id="path198" />
    <path
       d="m 79.990521,267.14928 c 0.06432,-0.7989 -0.989437,-1.06723 -1.503072,-0.57096 -0.601816,0.29845 -1.085302,0.91787 -1.821225,0.84472 -0.966193,-0.17469 -1.326605,0.85943 -2.069784,1.22101 -0.427809,0.27198 -1.295469,0.56467 -1.538645,0.62532 0.309026,0.2071 -0.588281,0.17516 -0.687783,0.47393 0.296611,-0.11713 1.015197,-0.70748 1.554554,-0.84222 0.448012,-0.37277 1.046378,-0.77777 1.31245,-1.2451 -0.874412,-0.19956 -1.856587,-0.24174 -2.777495,-0.22132 -1.016901,0.15205 -2.038966,0.30647 -3.069011,0.3147 -0.516042,0.22986 -1.074765,0.52786 -1.578908,0.54399 0.726628,0.0475 1.370428,-0.6099 2.065392,-0.8451 0.194727,-0.16686 1.045618,-0.30923 0.372393,-0.19706 -0.614512,0.0524 -1.196823,-0.29588 -1.82806,-0.18589 -0.379401,-0.14667 -1.380527,0.10845 -1.411105,-0.0226 0.698617,-0.0218 1.366924,-0.48719 2.099819,-0.35296 0.860957,-0.11057 1.699726,0.0846 2.373247,0.62937 1.050205,0.36509 2.223655,0.27004 3.281144,-0.0131 0.841479,-0.54899 1.874731,-0.5425 2.763149,-0.95897 0.438545,-0.64078 1.453376,-0.69301 1.801763,0.0745 0.185352,0.27761 0.635673,0.33971 0.661177,0.72784 z"
       style="fill:#52422d;fill-opacity:1;stroke:#52422d;stroke-width:0.264583px;stroke-linecap:butt;stroke-linejoin:miter;stroke-opacity:1"
       id="path206" />
    <path
       d="m 80.039821,264.05473 c -0.36921,-0.31151 -1.052092,-0.22542 -1.128255,0.32337 -0.129929,0.48904 -0.196407,1.24399 -0.868121,1.23091 -0.657381,0.004 -1.297165,-0.2068 -1.957297,-0.20345 -0.85212,-0.0512 -1.710496,-0.12336 -2.557335,0.0317 -0.555805,0.10022 -1.149344,0.15505 -1.680333,-0.0826 -0.439761,-0.15755 -0.777032,0.0943 -1.109155,0.25937 0.183779,-0.44124 0.647285,0.2301 0.694635,0.52847 0.25105,0.45656 0.819841,0.0191 1.172178,-0.0884 0.647615,-0.27454 1.375981,-0.33357 2.072278,-0.30429 0.756564,0.0937 1.543139,0.25535 2.282499,-0.0269 0.549596,-0.23626 1.173779,-0.10726 1.712836,-0.35112 0.593717,-0.28428 0.827569,-0.96408 1.36607,-1.31706 z"
       style="fill:#52422d;fill-opacity:1;stroke:#52422d;stroke-width:0.264583px;stroke-linecap:butt;stroke-linejoin:miter;stroke-opacity:1"
       id="path214" />
    <path
       d="m 79.140132,263.17849 c 0.150358,-0.33807 -0.277036,-0.39301 -0.249807,-0.026 -0.559637,0.48915 -1.181281,-0.27068 -1.670567,-0.52031 -0.709588,-0.3011 -1.125897,-0.93587 -1.61739,-1.48397 -0.38927,-0.45032 -1.464859,-0.74211 -1.09364,-1.49432 0.334278,-0.48285 0.842214,-0.81228 1.282245,-1.18739 0.116965,-0.43574 -0.681388,-0.40644 -0.798268,0.0354 -0.4496,0.4692 0.04385,-1.27645 -0.368673,-0.40391 -0.186301,0.43667 -0.277913,1.12736 -0.845073,1.2163 -0.637584,0.006 -1.148452,-0.46025 -1.732552,-0.657 -0.63569,-0.16189 -0.02824,-1.33068 -0.757201,-1.21023 -0.059,0.43915 0.451059,1.23513 -0.372529,1.12697 -0.333426,0.0762 -1.187841,-0.14379 -1.179675,0.29988 0.555537,-0.34339 1.035979,0.27114 1.54287,0.41301 0.701109,0.20644 1.475711,0.23668 2.077067,0.70013 0.973967,0.4981 1.843275,1.26833 2.330129,2.25901 0.513341,0.47048 1.123501,0.84705 1.763961,1.11784 0.55182,0.19565 1.20805,0.17625 1.689103,-0.1854 z"
       style="fill:#52422d;fill-opacity:1;stroke:#52422d;stroke-width:0.264583px;stroke-linecap:butt;stroke-linejoin:miter;stroke-opacity:1"
       id="path222" />
    <path
       d="m 80.286304,253.14062 c 0.93873,-0.0917 1.431746,-1.00163 1.771245,-1.77369 0.280203,-0.53566 0.631411,-1.04979 1.082138,-1.45337 0.468255,-0.26986 1.035779,-0.31666 1.347845,-0.82058 0.504951,-0.24302 0.273463,0.34395 -0.0313,0.41676 -0.252574,0.4566 -0.652238,0.76319 -1.130851,0.95178 -0.705349,0.2556 -0.114203,0.91113 -0.399734,1.34197 -0.428961,0.3836 -0.934223,0.67798 -1.276899,1.16215 -0.345963,0.46078 -1.091094,0.43595 -1.333805,0.15444 0.205286,0.42409 0.817205,0.49724 1.201612,0.74755 0.76909,0.35869 1.672771,0.59559 2.495729,0.27227 0.671111,-0.21685 1.464709,0.12885 2.066312,-0.32387 0.05395,-0.18963 0.468357,-0.76915 0.472496,-0.26286 -0.158335,0.44876 -1.120655,0.93192 -1.047085,1.09015 0.583184,0.12665 1.145639,-0.072 1.722206,-0.11907 0.259566,-0.062 1.167957,-0.02 0.476447,0.0718 -0.278436,0.31266 -0.701579,0.44053 -1.030013,0.57505 0.506761,0.0279 1.126252,0.21108 1.687601,0.20065 0.376939,-0.091 0.860079,0.50665 0.245239,0.48105 -0.492443,-0.2142 -0.993524,-0.43407 -1.54538,-0.4335 -0.636339,-0.0236 -1.284636,-0.15192 -1.794106,-0.5583 -0.642793,-0.38589 -1.418374,-0.39833 -2.139964,-0.51608 -0.932512,-0.11603 -1.948634,0.0998 -2.789102,-0.43118 -0.274959,-0.17329 -0.161428,-0.53733 -0.05063,-0.7731 z"
       style="fill:#52422d;fill-opacity:1;stroke:#52422d;stroke-width:0.264583px;stroke-linecap:butt;stroke-linejoin:miter;stroke-opacity:1"
       id="path230" />
    <path
       d="m 79.324996,253.429 c -0.81148,0.19858 -1.542821,-0.32726 -2.173397,-0.76122 -0.707939,-0.3564 -1.451987,-0.63746 -2.149471,-1.01777 -0.449071,-0.35036 -0.288287,-1.01133 -0.412516,-1.50442 -0.02258,-0.25319 -0.145043,-0.79718 -0.192867,-0.26055 0.04381,0.55233 0.292187,1.08481 0.102843,1.64181 -0.06715,0.23621 -0.514273,-0.36559 -0.799119,-0.30815 -0.424944,-0.14222 -0.61957,-0.62 -1.046508,-0.74727 -0.385719,-0.044 -0.222251,-0.68326 -0.378135,-0.68757 0.141286,0.61083 0.48651,1.20607 0.815994,1.75149 0.17493,0.13957 0.408922,0.57996 -0.01056,0.33166 -0.631322,-0.10349 -1.245854,-0.28087 -1.876763,-0.37789 -0.662581,0.0757 0.425226,0.20951 0.592906,0.44499 0.500298,0.22812 1.095711,0.61015 1.640705,0.2859 0.376839,-0.38962 0.880244,-0.2045 1.232692,0.0143 0.505435,0.009 0.890652,0.35037 1.261518,0.64654 0.561176,0.33197 1.237369,0.42406 1.7607,0.83032 0.460803,0.35602 1.097513,0.25375 1.491365,-0.15185 l 0.07171,-0.0637 0.06889,-0.0666 z"
       style="fill:#52422d;fill-opacity:1;stroke:#52422d;stroke-width:0.264583px;stroke-linecap:butt;stroke-linejoin:miter;stroke-opacity:1"
       id="path238" />
    <path
       d="m 79.435922,245.44307 c -0.903124,0.14656 -1.632018,0.74104 -2.309724,1.31364 -0.441197,0.38135 -0.929762,0.70781 -1.350286,1.1121 -0.104544,0.16804 -0.449093,0.41497 -0.517102,0.39647 0.268614,-0.16497 0.294118,-0.55114 0.556641,-0.74576 0.291365,-0.32256 0.512769,-0.6982 0.786752,-1.0349 -0.05899,0.0721 -0.432844,0.20089 -0.621078,0.25593 -0.357583,0.0923 -0.735708,0.0867 -1.082031,0.22165 -0.240513,-0.0832 0.104757,-0.47764 0.208437,-0.61932 0.237345,-0.24231 0.632129,-0.12958 0.939238,-0.21285 0.2961,-0.0622 0.598911,-0.0274 0.878365,0.076 0.325645,-0.0121 0.534805,-0.308 0.778243,-0.48672 0.238025,-0.24919 0.55106,-0.45372 0.91274,-0.3742 0.273536,0.0296 0.544207,0.0892 0.819805,0.098 z"
       style="fill:#52422d;fill-opacity:1;stroke:#52422d;stroke-width:0.264583px;stroke-linecap:butt;stroke-linejoin:miter;stroke-opacity:1"
       id="path246" />
    <path
       d="m 80.421874,248.80382 c 1.060882,-0.20442 2.132552,-0.35066 3.186167,-0.59281 0.543293,-0.10302 1.095923,0.0199 1.634614,0.0969 0.307086,0.0947 0.622963,0.23385 0.915659,0.25452 -0.295998,0.0406 -0.77303,-0.11799 -1.100097,-0.26612 -0.182152,-0.0564 -0.730895,-0.32872 -0.269957,-0.2883 0.525451,-0.0976 1.056575,-0.19159 1.597977,-0.2131 0.202793,-0.11584 0.91347,0.0894 0.73023,-0.28587 -0.381067,-0.005 -0.776079,0.0956 -1.178695,0.0565 -0.30638,0.0483 -0.934131,0.16061 -1.041153,0.13671 0.436695,-0.3443 0.969628,-0.55672 1.335126,-0.98815 0.295718,-0.25312 0.444513,-0.6052 0.709775,-0.88287 -0.37275,0.1839 -0.768172,0.34036 -1.1161,0.58304 -0.325964,0.23622 -0.648951,0.48163 -0.979613,0.70754 -0.06702,0.30575 -0.513457,0.52047 -0.450614,0.05 0.249999,-0.39187 0.07389,-0.7937 0.0232,-1.21009 -0.03559,-0.17267 0.03863,-0.81467 -0.148212,-0.70059 0.01533,0.42967 -0.02633,0.8596 0.05608,1.28757 -0.01169,0.37019 0.23478,0.85409 -0.07762,1.12355 -0.6289,0.30295 -1.335186,0.36829 -2.024654,0.3702 -0.553867,0.0537 -1.029157,0.3786 -1.525345,0.60252 -0.09377,0.0502 -0.186307,0.10293 -0.276769,0.15881 z"
       style="fill:#52422d;fill-opacity:1;stroke:#52422d;stroke-width:0.264583px;stroke-linecap:butt;stroke-linejoin:miter;stroke-opacity:1"
       id="path254" />
    <path
       d="m 80.458849,237.60132 c 1.011153,-0.1086 2.033256,-0.21361 3.048733,-0.15584 0.333978,0.17881 0.48734,0.57209 0.803342,0.78544 0.36725,0.35773 0.895314,0.18833 1.34639,0.24934 0.368427,0.18683 -0.121182,-0.18943 -0.270671,-0.21225 -0.514324,-0.3101 -0.927736,-0.76241 -1.314144,-1.21517 -0.373017,-0.41903 0.345646,-0.47545 0.550837,-0.69641 0.517854,-0.4053 0.887405,-0.98828 1.484836,-1.29323 0.206569,-0.14378 0.639979,-0.68446 0.362809,-0.79739 -0.08219,0.3489 -0.269251,0.62744 -0.666005,0.67398 -0.567797,0.19686 -1.014472,0.62521 -1.492633,0.9735 -0.570732,0.51395 -1.036523,1.24337 -1.84231,1.40399 -0.618074,0.13504 -1.309615,-0.20902 -1.872754,0.18277 -0.04837,0.0306 -0.09472,0.0644 -0.13843,0.10127 z"
       style="fill:#52422d;fill-opacity:1;stroke:#52422d;stroke-width:0.264583px;stroke-linecap:butt;stroke-linejoin:miter;stroke-opacity:1"
       id="path262" />
    <path
       d="m 80.631395,222.11749 c 0.03595,-0.99007 1.599766,-1.46558 2.095322,-0.55897 0.261112,0.61889 -0.252908,1.40649 -0.863357,1.55156 -0.916745,0.33907 0.433027,0.63076 0.830532,0.62637 0.773074,0.50365 0.121652,-1.17777 1.001269,-0.93282 0.507559,0.28559 0.990024,0.65768 1.359726,1.10333 -0.0586,0.49883 -0.04748,0.96192 0.506691,1.2048 0.311694,0.29492 -0.643889,-1e-4 -0.368061,0.54203 -0.06921,0.7667 -1.315107,-0.47305 -1.529621,0.37886 -0.2918,0.46946 -0.979731,0.0403 -1.292311,0.60126 -0.57254,0.0799 -1.074031,0.2921 -1.516026,0.70703 -0.195352,-0.3827 0.129356,-1.26212 -0.639796,-0.88001 -0.626314,-0.11886 -0.56124,0.41579 -0.668389,0.76791 -0.408687,-0.13879 -0.763705,-0.48246 -1.172787,-0.22999 -0.404253,-0.7394 -0.672189,0.71292 -1.255599,0.54745 -0.270758,-0.49764 -0.0738,-1.2237 -0.291552,-1.63691 -0.358846,0.12105 -1.258777,-0.18301 -0.442565,-0.38504 0.600828,0.002 0.469547,-0.47647 0.0074,-0.63044 -0.283523,-0.49083 -0.673919,-1.13543 -1.356306,-1.00323 -0.47318,-0.39147 0.698295,-0.77331 1.004647,-1.05606 0.459196,-0.43877 0.739053,0.0401 0.998293,0.2835 -0.03129,-0.48756 -0.686642,-1.67691 0.404834,-1.29422 0.292092,0.15185 1.005569,0.50098 0.573339,-0.13901 -0.272118,-0.48856 0.395828,-0.73286 0.626944,-0.68726 -0.463243,-0.68629 0.31919,-1.19237 0.962767,-1.14452 0.443917,0.17892 0.872836,0.29495 1.338705,0.35212 -0.453597,0.42217 0.04939,1.16483 -0.781538,1.23308 -0.672438,0.40635 0.09341,0.63997 0.467459,0.67918 z"
       style="fill:#7b944e;fill-opacity:1;stroke:#7b944e;stroke-width:0.264583px;stroke-linecap:butt;stroke-linejoin:miter;stroke-opacity:1"
       id="path270" />
    <path
       d="m 75.356518,225.20095 c -0.417973,0.63127 -1.393272,1.06135 -1.761017,0.1132 -0.452181,-0.19256 -1.825184,0.34062 -1.394863,1.08383 0.284882,0.5726 1.697655,0.45344 0.849567,1.23231 -0.149949,0.59535 1.204086,0.0259 0.60484,0.80979 -0.30238,0.39626 -1.404482,0.76892 -0.350149,0.9579 0.394653,0.16735 0.475064,0.82837 0.936722,0.22208 0.269198,-0.78022 1.438319,-0.68141 0.88882,0.23496 -0.643043,0.51358 0.205404,0.57594 0.507008,0.16465 0.275082,0.38216 -0.525499,1.70271 0.158603,0.89556 0.495686,-0.18839 0.882749,-1.51188 1.33155,-0.98513 -0.03488,0.60311 0.139309,0.57876 0.558188,0.25368 0.506743,-0.16468 1.092808,-0.15858 0.699773,0.5361 0.156714,0.915 1.215121,-0.11443 1.588482,-0.3717 0.426326,0.0305 0.798805,0.32932 0.983393,-0.23171 0.581424,0.69222 0.781701,-0.2968 0.952629,-0.71923 0.228507,0.61438 0.08653,1.35849 0.0695,1.86119 0.411394,-0.54378 1.386707,-0.53355 1.668898,-1.09945 -0.07203,-0.40363 0.05436,-1.13018 0.568876,-0.71451 -0.278984,-0.57744 1.169298,-1.01721 0.821291,-0.9567 0.254116,-0.50585 0.875489,-0.4882 1.197176,-0.76395 -0.718297,-0.2689 -0.328877,-1.41533 -0.695085,-1.64958 -0.551302,0.50139 -1.432329,0.25346 -1.893589,0.84784 -0.504297,0.65244 -0.723072,-0.65919 -1.233646,0.11446 -0.906236,0.65824 -0.233601,-1.73361 -1.075391,-1.05631 -0.396373,0.0923 -0.363156,1.22329 -0.76501,0.5022 -0.660875,-0.62868 -1.06084,1.16031 -1.641957,0.25653 -0.03229,-0.3319 -0.776328,0.0394 -0.945076,-0.39868 -0.06768,0.48443 -0.91047,0.95711 -0.556414,0.13538 0.429553,-0.8099 -0.49046,-1.55645 -1.119418,-0.82559 0.238019,-0.5058 -0.04112,-1.47453 -0.830493,-1.01758 -0.122378,0.1604 -0.124589,0.37609 -0.123204,0.56846 z"
       style="fill:#677e3f;fill-opacity:1;stroke:#677e3f;stroke-width:0.264583px;stroke-linecap:butt;stroke-linejoin:miter;stroke-opacity:1"
       id="path278" />
    <path
       d="m 85.721404,228.73916 c 0.617184,-0.69111 1.99304,-0.60026 1.840062,0.55015 0.01915,0.97843 -1.283922,0.53741 -1.449324,0.99371 0.470671,0.68057 -0.632791,0.8666 -0.08859,1.60433 -0.236625,0.40156 -1.239732,-0.007 -0.929096,0.90644 0.05262,0.82977 -1.036467,1.36566 -1.767145,1.10994 -0.707407,-0.7663 -0.516952,0.93836 -1.455084,0.58135 -0.608151,0.0299 -0.746381,1.00553 -1.418774,0.25879 -0.05388,0.38371 -0.467203,1.04331 -1.138391,0.65653 -0.828211,-0.5731 -1.672986,0.37285 -2.520285,-0.0188 -0.574417,-0.24979 -0.559042,-1.51368 -1.169888,-0.73703 -0.720464,0.25874 -1.868216,1.05751 -1.70111,-0.11474 -0.886899,0.14181 -1.785985,-0.34297 -2.679921,-0.0841 -0.943478,-0.22071 -0.340551,-1.35285 0.42083,-0.86227 1.005247,-0.59676 -1.054926,-0.81729 -1.286664,-1.32612 0.05669,-0.51158 -1.034601,-1.18715 0.01819,-1.25226 1.07614,-0.0122 0.01821,-1.31752 1.079147,-1.56404 1.161661,-0.28902 0.929228,1.57786 1.908887,1.61362 0.543201,-0.79635 1.979858,-0.61142 1.860187,0.54458 0.442512,0.50565 1.223705,0.6572 1.102301,-0.19096 0.485067,-0.74995 1.555267,-0.77678 1.920548,-1.65214 -0.489945,-0.76447 0.835906,-1.26606 1.282971,-0.66923 0.556623,0.0634 1.125493,-1.38191 1.072708,-0.22388 0.139456,0.55573 0.257881,0.85683 -0.01466,1.33796 0.267464,0.4398 1.049298,-0.48623 0.801591,0.44983 0.32573,0.80287 0.846491,-1.5309 1.448729,-0.4462 -0.142837,0.94727 0.884491,1.06521 1.021751,0.18187 -0.463157,-0.70412 0.132973,-0.14066 0.465236,-0.32941 -0.749496,-0.13245 -0.881543,-1.80299 0.223108,-1.36332 0.407484,-0.0672 0.839422,-0.47136 1.152691,0.0454 z"
       style="fill:#677e3f;fill-opacity:1;stroke:#677e3f;stroke-width:0.264583px;stroke-linecap:butt;stroke-linejoin:miter;stroke-opacity:1"
       id="path286" />
    <path
       d="m 68.676652,235.63812 c -0.257652,-0.33349 0.104495,-0.89715 0.518889,-0.70153 0.395246,0.14813 0.75546,0.38818 1.089225,0.64277 0.196082,0.17133 -0.0384,0.23243 -0.09987,0.33191 0.315725,0.31712 0.919778,0.12972 1.185805,0.39733 0.03327,0.48538 0.870789,-0.005 0.802787,0.59712 0.0065,0.35836 0.05024,0.75479 -0.120766,1.08139 -0.275638,0.19001 -0.425684,0.48874 -0.333598,0.82674 0.04049,0.31643 0.02826,0.81491 -0.386588,0.85372 -0.218906,0.0823 -0.82005,-0.16754 -0.774835,0.18512 0.236056,0.37302 -0.386062,0.43757 -0.631001,0.36909 -0.519667,-0.11641 -0.93951,-0.55608 -1.10244,-1.05218 -0.03517,-0.35087 0.06293,-0.75077 -0.223863,-1.02469 -0.143761,-0.35343 -0.402417,-0.60817 -0.625102,-0.89305 -0.01358,-0.41148 -0.05501,-0.87658 0.171304,-1.23901 0.140677,-0.16958 0.346211,-0.26185 0.530051,-0.37473 z"
       style="fill:#677e3f;fill-opacity:1;stroke:#677e3f;stroke-width:0.264583px;stroke-linecap:butt;stroke-linejoin:miter;stroke-opacity:1"
       id="path294" />
    <path
       d="m 71.572903,238.46647 c 0.424769,0.16238 0.650567,0.58225 0.982355,0.86607 0.209995,0.19858 0.399311,0.42777 0.670027,0.54778 0.266999,0.1486 0.580127,0.23752 0.797694,0.46078 0.157766,0.22553 -0.196564,0.25913 -0.344665,0.23414 -0.199733,-0.032 -0.385165,0.054 -0.562155,0.13358 -0.203267,0.0638 -0.371702,-0.11008 -0.461854,-0.27175 -0.195411,-0.30467 -0.268272,-0.69163 -0.561399,-0.92819 -0.194445,-0.18403 -0.422295,-0.34818 -0.553736,-0.586 -0.05988,-0.14476 -0.02053,-0.31613 0.03373,-0.45641 z"
       style="fill:#52422d;fill-opacity:1;stroke:#52422d;stroke-width:0.264583px;stroke-linecap:butt;stroke-linejoin:miter;stroke-opacity:1"
       id="path302" />
    <path
       d="m 81.666648,236.41453 c -0.574394,0.23255 -1.05826,-0.3717 -1.402595,-0.0456 -0.530218,-0.43371 -1.225441,-0.5698 -1.540799,0.17349 -0.54113,0.6632 -1.147798,-1.15831 -1.379052,0.002 -0.318235,0.81352 -0.943794,0.23706 -1.197619,-0.23679 -0.859403,-0.6243 -1.248511,0.82808 -1.008675,1.07574 -0.452406,-0.3976 -2.080139,-0.3361 -1.328482,0.5032 0.704321,0.72326 -0.964094,0.1826 -0.444957,0.91214 0.527507,0.59606 -1.085181,0.33556 -0.618473,1.07925 -0.167894,0.45645 -1.536206,0.37528 -0.631462,0.96832 0.991877,0.776 -1.418512,0.23376 -0.844113,1.05821 0.411686,0.13257 1.194702,0.67137 0.3269,0.71399 -1.030907,0.34219 0.102912,0.85252 0.437368,1.19375 -0.316374,0.55442 0.03945,1.25841 0.760335,1.00129 0.809474,-0.54256 0.543453,1.61255 1.363807,0.55855 0.547675,-0.33242 0.03731,-1.39391 0.900761,-1.28843 0.699554,-0.90926 1.326006,0.61495 1.13632,0.68912 0.356661,-0.54711 1.360262,-0.30675 1.660007,-0.68383 0.527319,-0.0137 1.129105,-0.49713 1.716405,-0.63716 0.350618,-0.45735 0.898193,-0.46887 1.342318,-0.27464 0.297971,-0.57548 0.83756,-0.5127 1.326745,-0.64854 0.332171,-0.55985 -0.909701,-0.44511 -0.68864,-1.19538 -0.091,-0.54493 0.549573,-1.1353 -0.366965,-1.21064 -0.627046,-0.2925 -0.367953,-0.58449 0.196484,-0.61195 0.69506,-0.15426 2.038024,-0.49266 1.495064,-1.47595 -0.313542,-0.19524 -0.274664,-0.66429 -0.440691,-0.70478 -0.299387,-0.10719 0.374827,-1.16863 -0.405664,-0.97469 l -0.182101,0.03 -0.182251,0.0291 z"
       style="fill:#677e3f;fill-opacity:1;stroke:#677e3f;stroke-width:0.264583px;stroke-linecap:butt;stroke-linejoin:miter;stroke-opacity:1"
       id="path310" />
    <path
       d="m 86.300651,232.78758 c -0.526135,-0.11752 -1.338081,-0.0417 -1.334672,0.66469 -0.174627,0.55585 -0.01674,1.28371 0.639604,1.30363 -0.198089,0.33752 0.733938,0.62997 0.139537,0.81758 -0.187716,0.22428 -1.162795,0.20737 -0.531493,0.58305 0.170957,0.27612 -0.355023,0.19274 0.01191,0.35431 -0.839773,-0.004 0.453335,1.21764 -0.528758,0.91045 -0.399677,-0.20321 -1.395598,-0.221 -1.146685,0.4636 0.208764,0.6719 0.872931,1.16661 1.588803,1.07707 0.605136,-0.006 1.775141,-0.58332 1.625195,0.47045 0.273785,0.16718 -0.14886,-1.00129 0.593094,-0.60104 0.684616,0.19257 0.796986,-0.54691 1.072676,-0.90275 0.407191,-0.13324 1.265979,-0.026 1.280471,-0.54764 -0.560393,-0.0276 -1.250711,-0.0869 -1.559462,-0.6289 0.218877,-0.60481 0.978989,0.20783 1.319981,-0.40087 0.410415,-0.33639 1.081579,0.22682 1.38984,-0.3738 0.298186,-0.48295 0.168062,-1.08588 -0.244287,-1.3806 0.168306,-0.36537 0.0056,-0.69328 -0.09939,-0.9566 0.26231,-0.24107 0.800057,-0.45913 0.29844,-0.80062 -0.280184,-0.67361 0.08687,-1.38523 0.18558,-2.05639 0.0481,-0.77086 -0.685707,-0.83216 -0.94723,-0.17495 -0.429918,0.28467 -0.284064,0.78309 -0.320684,1.13061 -0.586792,0.21778 -1.151809,-0.20567 -1.722236,-0.1717 -0.497384,0.20796 0.198993,1.18528 -0.612678,0.8802 -0.355094,-0.0684 -1.580279,0.2351 -0.785945,0.52274 0.09345,0.0189 0.191176,0.0233 0.279984,0.0613"
       style="fill:#7b944e;fill-opacity:1;stroke:#7b944e;stroke-width:0.264583px;stroke-linecap:butt;stroke-linejoin:miter;stroke-opacity:1"
       id="path318" />
    <path
       d="m 80.803935,240.77352 c -0.157682,-0.55074 0.6036,-1.22774 0.991552,-0.59798 0.116322,0.3517 0.337901,1.01686 0.675588,0.4158 0.121624,-0.39631 0.826689,-1.1217 1.074883,-0.47646 -0.221131,-0.94813 1.057962,-0.70666 1.154373,0.0121 0.463816,0.51626 0.733745,-0.23078 1.010448,-0.46927 0.655649,-0.12513 0.359341,0.68157 0.639142,0.89828 0.373735,-0.0589 0.549123,-0.78145 0.97915,-0.29677 0.385229,0.47381 0.684073,0.0834 0.823931,-0.33009 0.437015,-0.45225 0.350151,0.27802 0.47205,0.38903 0.148878,-0.36689 0.521015,-0.99845 0.994762,-0.70633 0.137206,0.35881 -0.212419,1.00771 0.433328,0.84394 0.669707,0.16475 0.413073,1.1974 -0.286537,0.89155 0.617495,0.21542 0.296677,0.88965 -0.08499,1.12205 0.183256,0.4537 0.36839,1.15295 -0.407642,0.99184 -0.569517,-0.0643 -0.817716,1.10113 -1.454807,0.55134 -0.247104,-0.52201 -1.016569,-0.15377 -1.323605,-0.68182 -0.158567,-0.57522 -0.796792,-0.40699 -1.229694,-0.33636 -0.513731,-0.0899 -0.953934,-0.46949 -1.493492,-0.28638 -0.369046,-0.30967 -0.770466,-0.69776 -1.272804,-0.35448 -0.58432,0.30285 -0.789221,-0.287 -0.959912,-0.70435 -0.421221,-0.0395 -1.379063,0.0379 -1.244949,-0.63208 0.102402,-0.17258 0.313063,-0.26236 0.509223,-0.24359 z"
       style="fill:#7b944e;fill-opacity:1;stroke:#7b944e;stroke-width:0.264583px;stroke-linecap:butt;stroke-linejoin:miter;stroke-opacity:1"
       id="path332" />
    <path
       d="m 80.92718,243.12493 c -0.339616,0.21843 -0.264962,0.73194 0.127814,0.84471 0.418782,0.21956 0.908916,0.60916 0.785361,1.14244 0.03064,0.38694 0.445952,-0.46748 0.62144,-0.0104 0.129588,0.28842 0.137772,0.71432 0.07673,0.97492 -0.177661,-0.25819 0.437671,-0.30932 0.555441,-0.0529 0.271403,0.29609 0.73135,0.0784 1.080501,0.0588 0.49223,-0.12645 0.909028,-0.48802 1.425935,-0.52101 0.252857,0.14186 0.301728,-0.31809 0.535509,-0.43053 0.276166,-0.42992 0.24996,-0.98194 0.186691,-1.46989 -0.172489,-0.26795 -0.5759,-0.26572 -0.477287,-0.71992 -0.02166,-0.3298 0.0022,-0.91305 -0.492821,-0.82167 -0.46896,-0.0476 -1.106847,0.34741 -1.43087,-0.13945 -0.251523,0.0264 -0.491973,0.4512 -0.839165,0.23406 -0.264667,-0.19912 -0.641465,-0.22493 -0.893584,0.0147 -0.292732,0.14708 -0.788328,-0.002 -0.817867,0.47391 -0.09512,0.18687 -0.271389,0.31318 -0.443825,0.42222 z"
       style="fill:#677e3f;fill-opacity:1;stroke:#677e3f;stroke-width:0.264583px;stroke-linecap:butt;stroke-linejoin:miter;stroke-opacity:1"
       id="path340" />
    <path
       d="m 86.054162,245.65381 c 0.195031,-0.55364 0.73081,-1.32204 1.398452,-1.10796 0.317391,0.32907 0.661445,0.84876 0.881216,0.13851 0.349257,-0.45828 0.97161,0.56499 1.162802,-0.2672 0.238316,-0.16258 0.608733,0.0982 0.370499,-0.33588 -0.02377,-0.46585 0.738133,-0.3114 0.817672,-0.2167 -0.396121,-0.51503 0.509631,-1.1788 0.782217,-0.72482 -0.269238,-0.47343 0.502676,-1.06491 0.825069,-0.56689 -0.09011,0.68566 0.670236,0.60858 1.026246,0.92366 0.195969,0.53907 -0.460421,0.84219 -0.64671,1.27697 -0.04799,0.40263 0.407738,1.05596 -0.265852,1.20235 -0.09269,0.43137 0.533564,1.04016 -0.126099,1.35997 -0.605119,0.14066 -0.266063,1.11563 -1.034803,0.92066 -0.494771,-0.0516 -0.724199,0.62115 -1.180647,0.55839 -0.266224,-0.27473 -0.534023,-0.33468 -0.755306,0.0124 -0.496239,0.19989 -1.062125,0.46648 -1.595572,0.39792 -0.430112,-0.17831 -0.16902,-0.83234 -0.715018,-0.70621 -0.656166,-0.14805 -0.58518,-0.859 -0.05837,-1.088 -0.1749,-0.54897 -0.82955,-0.23722 -1.201139,-0.47667 -0.561985,-0.30815 -0.0071,-0.92563 0.265644,-1.23654 l 0.04971,-0.0639 z"
       style="fill:#677e3f;fill-opacity:1;stroke:#677e3f;stroke-width:0.264583px;stroke-linecap:butt;stroke-linejoin:miter;stroke-opacity:1"
       id="path348" />
    <path
       d="m 81.863837,250.45646 c -0.375785,0.61744 -0.319598,1.7454 0.509169,1.93881 0.474549,0.17329 1.461448,-0.45309 1.490339,0.34649 0.07027,0.35471 -0.84848,1.09408 -0.09347,0.65986 0.415738,-0.16832 0.761106,0.5638 1.23144,0.0993 0.343795,-0.21286 1.18832,0.311 1.040708,-0.45014 -0.07029,-0.59716 0.248117,-1.62795 0.914083,-1.42218 0.547383,-0.37564 1.447628,-0.25068 2.003642,-0.12733 0.51469,-0.45644 0.883235,0.83725 1.185184,0.0489 0.215114,-0.34512 0.825804,-0.075 0.824417,-0.67879 0.02534,-0.7029 0.816108,-0.77066 1.133961,-1.24675 -0.106297,-0.51416 -0.691574,-0.87837 -1.148934,-1.12803 -0.631608,-0.32917 -1.04995,0.32451 -1.266796,0.81736 -0.207675,0.5508 -1.351368,1.01745 -1.49209,0.23212 -0.598615,0.16267 -1.111399,-0.34202 -1.232375,-0.81178 -0.469169,0.19183 -0.44059,-1.031 -0.896151,-0.42504 -0.377365,0.40998 -0.94812,-0.006 -1.185184,0.50311 -0.473236,0.12755 -1.258391,-0.20437 -1.2411,0.59434 -0.137477,0.93577 -1.169635,0.26228 -1.672018,0.6583 -0.08013,0.11564 -0.06994,0.26137 -0.10482,0.3914 z"
       style="fill:#677e3f;fill-opacity:1;stroke:#677e3f;stroke-width:0.264583px;stroke-linecap:butt;stroke-linejoin:miter;stroke-opacity:1"
       id="path356" />
    <path
       d="m 88.543704,253.11844 c 0.439611,-0.078 0.291913,-0.84829 0.888043,-0.80077 0.645196,-0.19671 1.40675,-0.72944 2.069352,-0.36916 0.34125,0.32339 0.831504,0.91424 1.23622,0.31243 0.403857,-0.5739 1.098555,-0.92425 1.795696,-0.94481 0.646439,0.0729 0.774897,0.89228 0.629015,1.40838 -0.220014,0.7504 -1.026164,1.03294 -1.673404,1.31382 -0.285489,0.0299 -0.52296,0.15973 -0.143373,0.32632 0.332275,0.53827 -0.343557,0.6049 -0.727887,0.61068 -0.05496,0.49283 -0.359298,0.98381 -0.923736,0.88448 -0.508218,-0.14669 -0.806161,0.17083 -0.675142,0.65257 -0.327609,0.44563 -0.964394,0.29368 -1.441891,0.30423 -0.537136,0.0622 -1.012786,-0.36402 -0.783871,-0.91052 0.338979,-0.68512 -0.572078,-0.48009 -0.963539,-0.63762 -0.562252,-0.0804 -0.482734,-0.84204 -0.233833,-0.91241 -0.508241,-0.0834 -1.003511,-0.27061 -1.460998,-0.49511 -0.672542,-0.45355 0.06894,-0.96722 0.579748,-1.04015 0.341444,-0.21099 0.688394,0.0322 0.951211,0.0469 0.109668,-0.57914 0.778841,-0.10932 0.878389,0.25075 z"
       style="fill:#7b944e;fill-opacity:1;stroke:#7b944e;stroke-width:0.264583px;stroke-linecap:butt;stroke-linejoin:miter;stroke-opacity:1"
       id="path364" />
    <path
       d="m 66.655442,242.73673 c -0.279304,-0.49308 0.60816,-0.87286 0.916144,-0.49437 0.380107,0.35476 0.135489,0.92432 0.365184,1.33088 0.37853,0.49 0.9267,-0.10479 1.380243,-0.15284 0.566672,-0.30773 1.021958,0.053 1.203742,0.58741 0.566828,-0.27692 1.479388,-0.73066 2.19652,-0.24546 0.645103,0.16724 0.373531,0.90879 0.807054,1.24562 0.231054,0.43856 0.154217,1.23214 -0.301184,1.53041 -0.390676,0.26194 -1.3115,-0.14327 -1.357997,0.42071 0.367757,0.34242 0.520215,0.80467 0.0263,1.09952 0.281073,0.6228 -0.769814,0.48882 -1.112125,0.3032 -0.377339,-0.57354 -0.703806,0.63621 -1.274478,0.47779 0.0049,0.81886 -1.036017,0.54047 -1.538499,0.36002 -0.419292,-0.18339 -1.300466,-0.2754 -1.189427,-0.90452 0.08698,-0.49994 1.323296,-0.51397 0.773818,-1.01769 -0.46686,-0.23847 -0.973189,-0.0455 -1.365175,-0.44377 -0.500267,-0.14489 -0.299208,-1.08474 0.20089,-1.15005 0.224173,0.0975 0.51992,0.26823 0.32219,-0.14002 -0.0747,-0.49201 -0.545884,-0.67771 -0.516794,-1.19627 -0.338024,-0.26753 -0.744891,-0.67352 -0.369894,-1.12588 -0.403573,-0.36054 -0.167021,-1.03896 0.413801,-0.74439 0.153316,0.0625 0.290152,0.1581 0.419691,0.2597 z"
       style="fill:#7b944e;fill-opacity:1;stroke:#7b944e;stroke-width:0.264583px;stroke-linecap:butt;stroke-linejoin:miter;stroke-opacity:1"
       id="path372" />
    <path
       d="m 73.16276,246.18621 c 0.491676,-0.25989 0.984292,-0.60016 1.558385,-0.61838 0.327431,7e-5 0.569051,0.32401 0.512373,0.63849 -0.104805,0.32474 -0.02551,0.63045 0.266732,0.80942 -0.08634,0.25096 -0.07123,0.5167 0.148105,0.7234 0.224252,0.27352 0.100677,0.65796 -0.129496,0.88342 -0.278599,0.30826 -0.779754,0.28457 -1.129352,0.12225 -0.290083,-0.11507 -0.510794,-0.48411 -0.862068,-0.38341 -0.425182,0.21275 -0.917999,0.14932 -1.378224,0.16796 -0.3934,-0.0162 -0.848667,-0.0712 -1.119316,-0.38859 -0.118366,-0.22239 -0.25235,-0.56278 -0.06116,-0.77764 0.241689,-0.23672 0.621013,0.0526 0.852803,-0.19691 0.09693,-0.32377 0.501234,-0.23916 0.766777,-0.28609 0.246712,-0.10539 0.142311,0.26599 -0.0021,0.0251 -0.2492,-0.21126 -0.10802,-0.51621 0.206248,-0.47211 0.151915,-0.0281 0.285509,-0.1187 0.370263,-0.24689 z"
       style="fill:#677e3f;fill-opacity:1;stroke:#677e3f;stroke-width:0.264583px;stroke-linecap:butt;stroke-linejoin:miter;stroke-opacity:1"
       id="path380" />
    <path
       d="m 74.925163,249.26966 c -0.523129,0.17168 -0.621518,0.78567 -0.986155,1.11666 -0.436699,0.16092 -0.89602,-0.10054 -1.348699,-0.072 -0.55429,-0.12771 -0.686868,0.35904 -0.618429,0.79716 -0.122117,0.52146 -0.903607,0.35708 -1.076385,0.82957 0.266779,0.6413 -0.455212,0.89812 -0.878303,1.18301 -0.453439,0.4929 -1.042323,0.21515 -1.353512,-0.27908 -0.432695,-0.29226 -1.138366,-0.63634 -0.667266,-1.24995 0.149535,-0.31977 0.681768,-1.00304 -0.04712,-0.9368 -0.623786,-0.10623 -0.596638,-0.90658 -0.269044,-1.30089 0.10445,-0.25284 0.448667,0.0522 0.358419,-0.35598 -0.01379,-0.54741 0.65401,-0.59771 1.058308,-0.54005 0.49076,0.20789 0.0014,-0.90131 0.647226,-0.77475 0.522611,-0.0402 0.791831,0.55884 1.281932,0.58104 0.48962,-0.0112 0.569101,-0.74078 1.111858,-0.64437 0.568966,0.005 0.789003,0.82448 1.388642,0.69256 0.437952,-0.11872 0.979587,-0.58909 1.390516,-0.16254 0.121008,0.35329 0.315487,0.67662 0.499758,0.96123 -0.09267,0.16574 -0.332201,0.13198 -0.491743,0.15521 z"
       style="fill:#7b944e;fill-opacity:1;stroke:#7b944e;stroke-width:0.264583px;stroke-linecap:butt;stroke-linejoin:miter;stroke-opacity:1"
       id="path388" />
    <path
       d="m 69.687262,255.09274 c -0.147615,-0.69322 1.079352,-1.58237 1.672115,-1.05402 0.07675,0.57763 1.242433,0.30048 0.740901,1.06647 -0.246537,0.57622 1.070392,0.4568 0.749133,1.28002 -0.404698,0.4026 -0.399697,0.84735 -0.272178,1.37474 -0.450246,0.23919 -1.315976,0.20124 -1.540002,-0.16908 -0.396905,0.051 -0.923966,0.23734 -0.463847,0.64939 0.342681,0.58162 -1.387703,0.40907 -0.66823,0.82679 0.41084,0.51381 -0.851412,0.74378 -1.263545,0.67788 -0.446106,-0.10678 -0.184167,-0.41673 -0.52753,-0.39548 -0.329149,-0.26193 0.07721,-0.85583 -0.234426,-0.2641 -0.487329,0.16687 -1.249306,0.53075 -0.514613,1.00947 0.25536,0.58599 -0.759759,-0.0169 -1.092267,0.0868 -0.481092,-0.22399 -1.07542,9.6e-4 -1.422207,-0.32847 0.233948,-0.66745 -0.458012,-0.74386 -0.887027,-0.41653 -0.657646,0.33316 -1.024575,-0.42311 -1.110622,-0.84949 -0.520969,-0.15068 -0.80905,-0.74549 -0.184316,-1.01918 0.633269,-0.50738 -0.681953,-0.87237 -0.151485,-1.37173 -0.578807,-0.60365 0.244126,-1.34996 -0.260017,-1.91106 -0.633172,-0.33513 -0.670347,-1.13896 -0.0074,-1.47383 0.546875,-0.51833 1.02831,0.24991 1.530806,0.40148 0.610031,-0.0544 0.75291,0.66499 0.85933,0.93028 0.692855,-0.17419 1.134696,0.77216 0.697775,1.13298 -0.07094,-0.7652 0.820134,-1.16733 0.927501,-1.9369 0.177626,-0.65015 1.186463,-0.62888 0.940645,0.15941 0.133543,0.62594 1.319333,-0.0524 1.544854,0.72664 0.0041,0.33694 -0.410292,1.14887 0.306655,0.94915 0.210524,-0.023 0.42053,-0.0513 0.63003,-0.0816 z"
       style="fill:#7b944e;fill-opacity:1;stroke:#7b944e;stroke-width:0.264583px;stroke-linecap:butt;stroke-linejoin:miter;stroke-opacity:1"
       id="path396" />
    <path
       d="m 75.652307,257.3887 c 0.120266,-0.0991 -0.207354,0.36145 -0.166356,0.51672 -0.0029,0.31473 -0.274698,0.85262 -0.290452,0.98228 0.303522,-0.0635 0.70778,0.15853 0.910508,-0.16639 0.295375,-0.30733 0.83748,-0.0945 1.055201,-0.51134 0.03566,-0.1979 0.52052,-0.44352 0.471567,-0.35811 -0.147669,-0.28812 -0.07226,-0.70246 0.05808,-1.00445 0.143241,-0.19035 0.127652,-0.24626 -0.05016,-0.3849 -0.159113,-0.27281 -0.0076,-0.77677 -0.386496,-0.87609 -0.325299,0.0599 -0.794614,0.19954 -0.743668,-0.32324 -0.09772,-0.38252 0.443546,-0.89525 -0.188649,-0.97405 -0.29248,-0.05 -0.652811,-0.41083 -0.906045,-0.10701 -0.107377,0.27546 0.207968,0.96433 -0.340187,0.80501 -0.226778,0.0642 -0.899187,-0.12163 -0.767164,0.24589 0.141676,0.15437 0.849771,0.48079 0.291602,0.48162 -0.286672,0.063 -0.831242,-0.10193 -0.946165,0.17398 0.112654,0.16978 0.731645,0.52289 0.220697,0.54481 -0.438542,0.0343 -0.883769,-0.013 -1.317519,0.0468 -0.289147,0.28399 0.359547,0.54605 0.575197,0.69989 0.420883,0.0757 0.279097,0.38867 -0.03578,0.50388 -0.379612,0.35578 0.494579,0.5113 0.690627,0.25345 0.444418,-0.14104 0.01954,0.75469 0.461042,0.70203 0.407945,-0.0421 0.339042,-0.51365 0.575771,-0.73668 0.257372,-0.2646 0.719889,0.0374 0.935731,-0.24515 0.04001,-0.10486 -0.0044,-0.22279 -0.107377,-0.26897 z"
       style="fill:#677e3f;fill-opacity:1;stroke:#677e3f;stroke-width:0.264583px;stroke-linecap:butt;stroke-linejoin:miter;stroke-opacity:1"
       id="path404" />
    <path
       d="m 75.442794,260.09503 c -0.38208,-0.76448 0.820251,-0.1185 0.649812,-0.85853 -0.09339,-0.74116 0.72631,-0.65435 1.055077,-0.66293 -0.0999,-0.61754 0.683514,-0.71239 0.976767,-0.36788 -0.207646,-0.73619 0.178754,-1.63617 1.109534,-1.52304 0.630575,-0.14269 1.320039,0.0881 1.457709,0.72179 0.80252,0.21225 -0.01136,0.87279 -0.371499,1.06859 0.968098,-0.37307 1.038736,-1.74601 2.032356,-2.071 1.029426,0.3688 0.970241,-1.20206 1.971833,-0.9581 0.548313,0.0392 1.619023,0.44212 0.688836,0.951 -0.322021,0.49598 0.561043,1.21233 1.038542,0.92101 0.545343,-0.0256 0.245135,0.73212 0.352164,0.50026 0.641471,0.24763 1.019095,0.9356 1.562046,1.36906 0.178174,0.5574 -0.618628,1.1233 0.05467,1.63881 -0.754294,0.70849 -1.870972,0.73746 -2.823348,0.50595 -0.595938,-1.4e-4 -1.622581,1.39689 -1.956975,0.32944 -0.55447,0.1234 -1.097045,0.28629 -1.544079,-0.23765 -0.589172,0.23004 -1.409665,0.17114 -1.4784,-0.6561 -0.586069,0.44894 -1.236741,0.82632 -1.961444,0.33125 -0.638726,-0.0759 -0.134984,1.13785 -0.951681,1.17747 -0.550539,0.41955 -0.906452,-0.0684 -1.435223,-0.26849 0.588162,-1.05523 -1.446717,0.35416 -1.058851,-0.72179 0.04437,-0.45119 0.07658,-1.08251 0.632157,-1.18912 z"
       style="fill:#7b944e;fill-opacity:1;stroke:#7b944e;stroke-width:0.264583px;stroke-linecap:butt;stroke-linejoin:miter;stroke-opacity:1"
       id="path412" />
    <path
       d="m 70.389755,260.69398 c 0.238112,-0.27786 0.534456,-0.61927 0.9266,-0.62415 0.4223,0.0553 0.17893,0.77536 0.701114,0.50154 0.366393,-0.0459 0.918832,0.0348 0.999424,0.47753 -0.08877,0.30608 0.06576,0.57829 0.394687,0.38269 0.542215,-0.0932 1.12746,-0.24244 1.488175,-0.68984 0.356347,0.41203 0.1032,0.97416 0.222433,1.45334 0.262029,0.47764 -0.167559,0.63902 -0.579999,0.60493 -0.463412,0.019 0.06909,0.61146 -0.426838,0.65277 -0.637859,0.35367 -1.403392,-0.0674 -1.760368,-0.62655 -0.295282,-0.28531 -0.709308,0.0434 -1.060333,0.0389 -0.519415,0.10969 -1.036627,0.26129 -1.571583,0.26521 -0.286149,-0.24454 -0.244443,-0.79715 -0.725168,-0.8284 -0.334165,-0.0554 -0.813583,-0.32943 -0.617678,-0.73014 0.165104,-0.34815 0.756085,-0.38355 0.922471,-0.52897 -0.615566,-0.22122 0.203753,-0.70199 0.542578,-0.54257 0.428853,0.2762 0.840542,0.20223 1.271632,-0.0285"
       style="fill:#677e3f;fill-opacity:1;stroke:#677e3f;stroke-width:0.264583px;stroke-linecap:butt;stroke-linejoin:miter;stroke-opacity:1"
       id="path420" />
    <path
       d="m 90.010315,260.83817 c -0.05721,0.93187 0.753508,1.65168 1.575697,1.9193 0.648868,0.25937 1.412803,0.27734 2.025263,-0.0924 0.413765,-0.22136 1.211151,-0.62017 0.919161,-1.19472 -0.254161,-0.47064 -0.894685,-0.27165 -1.220009,-0.55326 0.104893,-0.52939 0.74368,-0.56708 1.166143,-0.42715 0.316578,-0.0188 1.237474,-0.11006 0.942659,-0.56656 -0.270405,-0.27601 -0.97725,0.26402 -0.914721,-0.34714 0.119991,-0.16169 0.702719,0.0578 0.273139,-0.16661 -0.343911,-0.45309 0.538394,-0.51822 0.837309,-0.48184 0.573814,-0.0399 1.059094,-0.54265 1.167812,-1.08998 0.05123,-0.54577 -0.604494,-0.70929 -1.032042,-0.66728 -0.474282,-0.0687 -0.886571,0.52159 -1.331912,0.26283 -0.295145,-0.14785 0.08376,0.25018 -0.327926,0.21878 -0.390067,0.34695 -0.809545,0.009 -1.228292,-0.01 0.119457,0.24901 0.61026,1.07689 0.01011,0.75533 -0.506269,-0.36205 -1.11342,0.0735 -1.671147,-0.0886 0.600883,0.41294 -0.314946,0.65895 -0.622327,0.79501 0.04792,0.5618 -0.645314,0.58145 -1.044173,0.49352 -0.325248,0.0717 -0.657531,-0.63691 -0.658181,-0.0251 -0.116657,0.55661 0.296417,1.00178 0.814719,1.13153 0.105855,0.0457 0.212637,0.0893 0.318714,0.13443 z"
       style="fill:#7b944e;fill-opacity:1;stroke:#7b944e;stroke-width:0.264583px;stroke-linecap:butt;stroke-linejoin:miter;stroke-opacity:1"
       id="path428" />
    <path
       d="m 85.659777,265.78501 c -0.116566,0.81029 0.828534,1.19047 1.499016,1.12137 0.779059,0.023 1.703949,-0.29994 2.259189,-0.64688 -0.476236,0.31572 0.0033,0.48184 0.201339,0.64176 -0.250693,0.51202 -0.130438,0.95088 0.501221,0.93874 0.588778,0.6905 -0.892332,0.55127 -1.316107,0.66901 -0.854187,-0.007 0.600741,0.99156 -0.390227,0.7238 -0.690031,-0.28294 -1.018318,0.536 -0.289123,0.78436 0.413743,0.18083 0.353502,0.51725 0.686915,0.72887 -0.202297,0.25982 -1.84717,0.54844 -0.817287,1.0364 0.632572,0.43574 1.429026,0.67407 2.122587,0.24918 0.472902,-0.23514 1.264884,0.64157 1.179884,0.12515 0.267859,-0.9552 1.421912,0.20661 1.835332,-0.56127 0.412204,-0.59164 0.985249,-0.20264 1.280418,0.17964 0.624023,-0.19365 1.195449,-0.56364 1.838905,-0.13643 0.540166,0.0822 1.996301,0.16172 1.192882,-0.6976 -0.630867,-0.37101 -1.240767,-0.85649 -1.83993,-1.22145 -0.145457,-0.43064 -0.937597,-0.51108 -0.133262,-0.62464 0.644151,-0.0509 -0.282227,-0.6098 0.403419,-0.69424 0.473274,0.11056 1.455925,-0.11791 0.744901,-0.68283 -0.496012,-0.53982 -1.171115,-0.8235 -1.880692,-0.9555 -0.818915,-0.0665 -0.489743,-0.79124 0.05544,-0.87601 -0.06833,-0.41986 0.425695,-0.89693 -0.145174,-1.28117 -0.224124,-0.40025 -0.395211,-0.80575 -0.809516,-0.27266 -0.522602,0.363 -1.300952,-0.11815 -1.661436,0.65204 -0.926293,0.459 -0.703242,-0.98621 -0.822237,-1.44378 -0.598285,-0.0469 -1.236706,0.1705 -1.744758,0.5152 -0.674961,0.15202 -1.889359,-0.47378 -2.125118,0.37105 -0.14386,0.79907 -1.129121,0.93638 -1.732981,1.30456 l -0.09361,0.0533 z"
       style="fill:#677e3f;fill-opacity:1;stroke:#677e3f;stroke-width:0.264583px;stroke-linecap:butt;stroke-linejoin:miter;stroke-opacity:1"
       id="path436" />
    <path
       d="m 95.371462,263.98818 c -0.184683,-0.56354 0.138206,-1.37259 0.782623,-1.42895 0.576702,-0.0536 0.410591,0.87375 1.042534,0.5625 0.31541,0.16066 0.605746,0.0905 0.649003,-0.32217 0.373229,-0.3786 1.244338,-0.25411 1.261344,0.37529 0.07363,0.68225 1.180764,-0.028 1.228374,0.55369 -0.17628,0.16529 -0.510202,0.44419 -0.0405,0.43315 0.35165,0.37688 0.43541,0.96736 0.16629,1.4189 -0.0208,0.58013 -0.969232,0.24505 -0.859189,0.85942 0.195122,0.48515 -0.121257,0.97652 -0.663937,0.75198 -0.44947,0.0488 -0.819477,-0.45733 -1.195321,-0.31867 -0.137212,0.36088 -0.179265,0.76682 -0.279268,1.14835 -0.206804,0.53436 -1.067608,0.40034 -1.40575,0.0621 -0.294166,-0.48824 -1.100363,-0.37048 -1.289408,-0.95009 -0.07758,-0.39098 -0.670817,-0.6769 -0.77325,-0.14649 -0.370991,0.1372 -0.469076,-0.22216 -0.09326,-0.30419 0.216886,-0.32245 0.527255,-0.68387 0.962968,-0.49861 0.417057,0.22427 0.970427,-0.23462 0.44065,-0.55518 -0.36896,-0.21638 -0.339561,-0.83191 0.159957,-0.83882 -0.128066,-0.29814 -0.709343,-0.10335 -0.748759,-0.57364 -0.127196,-0.51036 0.398196,-0.31529 0.654894,-0.22855 z"
       style="fill:#7b944e;fill-opacity:1;stroke:#7b944e;stroke-width:0.264583px;stroke-linecap:butt;stroke-linejoin:miter;stroke-opacity:1"
       id="path444" />
    <path
       d="m 87.73029,273.5713 c -0.114022,0.27182 -0.187907,0.60519 -0.01245,0.86886 0.114875,0.20945 0.354252,0.0795 0.511664,0.004 0.198103,-0.11085 0.302936,0.11004 0.369493,0.25615 0.12229,0.19882 0.315765,0.009 0.437392,-0.0813 0.15495,-0.0903 0.399772,-0.26262 0.561551,-0.12484 0.01745,0.23759 0.236828,0.21978 0.392505,0.11105 0.151597,-0.11116 0.328022,-0.12949 0.503559,-0.15703 0.06205,-0.23396 -0.02591,-0.52385 -0.07415,-0.76776 -0.04753,-0.26054 -0.34929,-0.14699 -0.512864,-0.25432 -0.293052,-0.15999 -0.337676,-0.59024 -0.681698,-0.68168 -0.327941,-0.0712 -0.61672,0.14027 -0.911258,0.24602 -0.223366,0.0433 -0.187341,0.28254 -0.274175,0.43335 -0.0842,0.0795 -0.200024,0.11729 -0.30957,0.14712 z"
       style="fill:#677e3f;fill-opacity:1;stroke:#677e3f;stroke-width:0.264583px;stroke-linecap:butt;stroke-linejoin:miter;stroke-opacity:1"
       id="path458" />
    <path
       d="m 71.129223,266.0623 c 0.453743,-0.6389 1.291655,-0.86064 1.75936,-1.48261 -0.116633,-0.473 -0.834009,-0.19408 -1.181674,-0.11851 -0.386808,0.11128 -0.965802,-0.32381 -0.942421,0.37711 0.0075,0.5917 -0.847135,1.04408 -1.185935,0.43881 -0.210031,-0.42227 -0.51848,-1.03381 -1.028875,-1.06258 -0.447472,0.46217 -1.274625,0.66065 -1.617986,-0.0525 -0.331518,-0.64383 0.552421,-1.2284 0.12085,-1.90348 -0.204163,-0.60796 -0.872533,-1.03009 -1.504756,-0.96262 -0.245348,0.45601 -0.93949,0.41433 -1.167809,0.97496 -0.231621,0.48776 -1.060079,-0.0112 -0.4689,-0.30811 0.340057,-0.007 1.044119,-0.63729 0.298984,-0.5429 -0.634843,0.39361 -0.582137,1.39721 -0.123346,1.92638 0.18492,0.21857 1.051526,0.43325 0.389229,0.67717 -0.14331,0.56781 1.068363,-0.0591 1.061266,0.62901 -0.268076,0.25104 -0.892547,1.04326 -0.12696,1.05228 0.496556,-0.0927 0.817427,0.509 1.305706,0.0765 0.760941,-0.35784 0.312324,0.8203 0.801916,0.89527 0.669748,-0.0371 1.294827,-0.41738 1.94328,-0.43649 0.591422,0.10598 1.197554,0.37144 1.799161,0.25467 0.128967,-0.13681 -0.08613,-0.30671 -0.13109,-0.43246 z"
       style="fill:#677e3f;fill-opacity:1;stroke:#677e3f;stroke-width:0.264583px;stroke-linecap:butt;stroke-linejoin:miter;stroke-opacity:1"
       id="path466" />
    <path
       d="m 59.174488,263.41142 c -1.215677,0.24261 -0.526837,-2.77306 0.50773,-1.78468 0.679745,0.58997 1.43632,-0.7292 2.29259,-0.12371 0.983227,0.0731 0.115148,1.08428 1.017172,1.26832 0.220893,1.12183 1.643429,-0.72416 1.886812,0.43569 -0.276823,0.89563 0.608356,0.82119 1.003385,1.11019 -0.197398,0.57344 -0.43249,0.95726 0.231247,0.99406 -0.480936,0.86753 1.699446,0.56259 1.374047,1.74681 -0.714097,0.66831 0.1048,1.23765 0.718982,0.67009 0.479706,-0.40802 0.946155,0.14218 0.581263,0.55573 0.829779,-0.0225 1.899067,0.18105 1.891375,1.12667 0.383655,-0.50766 0.776249,-0.59909 1.191044,0.003 0.673944,0.0685 1.67476,0.31264 2.167922,0.17527 -0.0709,0.63007 0.449765,1.65085 -0.671972,1.36803 -0.842381,-0.01 -1.746264,1.36204 -2.552751,0.56454 -0.35516,-0.92411 -1.39497,-1.21508 -1.770039,-0.12408 -0.577859,0.92289 -1.676553,0.11683 -2.481999,0.22172 -0.726651,0.64911 -1.538822,-0.27654 -0.949659,-0.85841 -1.038365,-0.19484 0.86592,-1.28501 0.85292,-1.50044 -0.735101,-0.0375 -1.438157,0.72645 -2.233633,0.15512 -0.839545,-0.1979 -1.576961,-0.25992 -2.37573,-0.54005 -0.783352,0.0435 -2.514701,0.18467 -1.55463,-1.03693 0.09695,-1.12088 1.10055,-1.72036 2.179866,-1.50528 0.633073,0.3497 1.571769,-0.94463 0.446902,-0.44905 -0.475256,-0.41064 -0.758502,-1.4317 -1.563495,-0.7278 -0.795561,0.26311 -1.875968,-0.17196 -2.205527,0.84796 -0.92561,-0.0495 -1.199419,-1.23262 -0.928703,-1.97807 0.463484,0.0406 1.49176,0.39356 0.97537,-0.44609 l -0.03049,-0.16856 z"
       style="fill:#7b944e;fill-opacity:1;stroke:#7b944e;stroke-width:0.264583px;stroke-linecap:butt;stroke-linejoin:miter;stroke-opacity:1"
       id="path474" />
    <path
       d="m 75.418143,269.17904 c -0.444349,0.48494 0.02437,1.33691 0.644691,0.82742 0.45422,-0.14312 0.960499,-1.24544 1.327845,-0.46676 0.0446,0.35365 0.472197,0.97367 0.652922,0.32853 0.27779,-0.74502 0.953417,-0.0912 1.40427,0.0209 0.562144,-0.2328 1.119893,0.019 1.587478,0.30187 0.58538,0.11491 1.379421,0.0998 1.556082,0.80933 0.625766,0.10288 1.384105,0.28343 2.021412,-0.006 0.387793,-0.39827 0.939159,-0.56859 1.338084,-0.90753 -0.603964,0.2277 -1.516622,-0.20695 -1.331843,-0.93437 -0.210576,-0.46309 -0.739127,-0.67948 -1.033758,-1.09455 -0.706928,0.26348 -0.628436,-0.76306 -1.131635,-0.97116 -0.69231,-0.16048 -0.594688,1.03392 -1.011517,0.99761 -0.211343,-0.77508 -1.369906,-0.88663 -1.975816,-0.45679 -0.325722,0.3742 -1.021997,0.11364 -1.246786,0.41519 -0.511247,-0.0797 -1.056434,-0.0793 -1.576986,0.004 -0.2166,0.42745 -0.781824,0.23629 -1.12703,0.53711 -0.07829,0.28049 0.381671,0.26578 -0.07774,0.47293 l -0.02438,0.0525 0.0047,0.0705 z"
       style="fill:#677e3f;fill-opacity:1;stroke:#677e3f;stroke-width:0.264583px;stroke-linecap:butt;stroke-linejoin:miter;stroke-opacity:1"
       id="path482" />
    <path
       d="m 68.269948,274.30334 c -0.08952,0.27746 -1.180561,0.39314 -0.345296,0.48937 0.677574,0.16765 1.552084,-0.16331 2.10078,0.1564 0.260638,0.52302 -0.811922,1.17965 -0.357522,1.46843 0.807477,-0.32896 0.775074,0.60232 0.336501,0.95508 0.621195,0.23217 1.150247,-0.63739 1.850501,-0.4908 0.676347,-0.0993 0.715218,0.9326 1.368718,0.84918 0.185591,0.68794 -0.758635,0.84661 -1.178711,0.85008 0.01895,0.42302 0.02795,0.69506 -0.386603,0.87159 0.207789,0.43759 0.02629,0.882 -0.531504,0.81291 -0.588261,0.0799 -1.273055,0.41371 -1.822624,0.0392 -0.03411,-0.58903 -0.449768,-0.83315 -0.968102,-0.66628 -0.682662,-0.25148 -1.479834,-0.21564 -2.114371,-0.35039 -0.131027,-0.34481 0.390032,-1.3293 -0.243755,-0.67843 -0.492178,0.45122 -1.327561,0.35135 -1.822281,0.89165 -0.335579,0.33362 -1.341829,0.73855 -1.348336,-0.0431 -0.134105,-0.748 0.609436,-1.11896 0.990287,-1.62792 0.257774,-0.35912 1.288831,-1.19992 0.260276,-1.15592 -0.555279,0.12604 -1.178544,0.3583 -1.692323,-0.0274 -0.772847,-0.35716 0.104116,-1.06652 0.580652,-1.20001 0.629913,-0.26663 1.297814,0.1341 1.908477,-0.10138 0.554409,0.0863 0.391929,-1.45979 0.874981,-0.58855 0.497635,0.14981 1.327339,0.86595 1.694894,0.3525 -0.16814,-0.57104 0.406307,-0.74208 0.845361,-0.80626 z"
       style="fill:#677e3f;fill-opacity:1;stroke:#677e3f;stroke-width:0.264583px;stroke-linecap:butt;stroke-linejoin:miter;stroke-opacity:1"
       id="path490" />
    <path
       d="m 89.233877,278.47377 c -0.174761,0.54839 -0.834072,0.47198 -1.162525,0.12089 -0.689478,-0.28474 -1.544652,-0.0369 -2.053797,0.48615 -0.612937,0.55284 0.314415,0.8267 0.786845,0.67943 0.560318,-0.14284 0.830294,0.55381 1.387824,0.22415 0.453334,-0.0419 0.813053,0.12324 1.222442,-0.16129 0.150797,0.45107 -0.40823,0.9164 -0.468555,1.39641 -0.178537,0.68172 0.591746,-0.007 0.935116,0.0993 0.756794,-0.16258 1.553711,-0.49494 2.323891,-0.21168 0.449332,-0.0512 0.749343,-0.66159 1.199361,-0.20934 0.363948,0.26748 1.038701,0.21907 0.72517,-0.38917 -0.240583,-0.86196 1.114268,0.0926 0.929078,-0.60259 -0.227901,-0.48027 -0.691544,-1.08626 -1.299172,-0.83025 -0.162969,-0.10813 -0.04334,-0.86814 -0.585802,-0.82644 -0.628397,-0.26937 -1.444803,-0.18336 -1.949702,-0.68293 -0.211951,-0.51875 -0.867487,-0.74635 -0.996324,-0.0545 -0.203639,0.43435 -0.661383,0.64249 -0.99385,0.96193 z"
       style="fill:#677e3f;fill-opacity:1;stroke:#677e3f;stroke-width:0.264583px;stroke-linecap:butt;stroke-linejoin:miter;stroke-opacity:1"
       id="path498" />
  </g>
</svg>
