<?xml version="1.0" encoding="UTF-8" standalone="no"?>
<svg
   xmlns:dc="http://purl.org/dc/elements/1.1/"
   xmlns:cc="http://creativecommons.org/ns#"
   xmlns:rdf="http://www.w3.org/1999/02/22-rdf-syntax-ns#"
   xmlns:svg="http://www.w3.org/2000/svg"
   xmlns="http://www.w3.org/2000/svg"
   xmlns:sodipodi="http://sodipodi.sourceforge.net/DTD/sodipodi-0.dtd"
   xmlns:inkscape="http://www.inkscape.org/namespaces/inkscape"
   sodipodi:docname="forest-cottonwood.svg"
   inkscape:version="1.0 (4035a4fb49, 2020-05-01)"
   id="svg8"
   version="1.1"
   viewBox="0 0 158.75 79.375"
   height="300"
   width="600">
  <defs
     id="defs2">
    <inkscape:path-effect
       lpeversion="1"
       is_visible="true"
       id="path-effect219"
       effect="spiro" />
    <inkscape:path-effect
       simplify_just_coalesce="false"
       simplify_individual_paths="false"
       helper_size="0"
       smooth_angles="360"
       threshold="0.000408163"
       steps="1"
       lpeversion="1"
       is_visible="true"
       id="path-effect217"
       effect="simplify" />
    <inkscape:path-effect
       lpeversion="1"
       is_visible="true"
       id="path-effect213"
       effect="spiro" />
    <inkscape:path-effect
       simplify_just_coalesce="false"
       simplify_individual_paths="false"
       helper_size="0"
       smooth_angles="360"
       threshold="0.000408163"
       steps="1"
       lpeversion="1"
       is_visible="true"
       id="path-effect211"
       effect="simplify" />
    <inkscape:path-effect
       lpeversion="1"
       is_visible="true"
       id="path-effect206"
       effect="spiro" />
    <inkscape:path-effect
       simplify_just_coalesce="false"
       simplify_individual_paths="false"
       helper_size="0"
       smooth_angles="360"
       threshold="0.000408163"
       steps="1"
       lpeversion="1"
       is_visible="true"
       id="path-effect204"
       effect="simplify" />
    <inkscape:path-effect
       lpeversion="1"
       is_visible="true"
       id="path-effect199"
       effect="spiro" />
    <inkscape:path-effect
       simplify_just_coalesce="false"
       simplify_individual_paths="false"
       helper_size="0"
       smooth_angles="360"
       threshold="0.000408163"
       steps="1"
       lpeversion="1"
       is_visible="true"
       id="path-effect197"
       effect="simplify" />
    <inkscape:path-effect
       lpeversion="1"
       is_visible="true"
       id="path-effect192"
       effect="spiro" />
    <inkscape:path-effect
       simplify_just_coalesce="false"
       simplify_individual_paths="false"
       helper_size="0"
       smooth_angles="360"
       threshold="0.000408163"
       steps="1"
       lpeversion="1"
       is_visible="true"
       id="path-effect190"
       effect="simplify" />
    <inkscape:path-effect
       lpeversion="1"
       is_visible="true"
       id="path-effect185"
       effect="spiro" />
    <inkscape:path-effect
       simplify_just_coalesce="false"
       simplify_individual_paths="false"
       helper_size="0"
       smooth_angles="360"
       threshold="0.000408163"
       steps="1"
       lpeversion="1"
       is_visible="true"
       id="path-effect183"
       effect="simplify" />
    <inkscape:path-effect
       lpeversion="1"
       is_visible="true"
       id="path-effect178"
       effect="spiro" />
    <inkscape:path-effect
       simplify_just_coalesce="false"
       simplify_individual_paths="false"
       helper_size="0"
       smooth_angles="360"
       threshold="0.000408163"
       steps="1"
       lpeversion="1"
       is_visible="true"
       id="path-effect176"
       effect="simplify" />
    <inkscape:path-effect
       lpeversion="1"
       is_visible="true"
       id="path-effect170"
       effect="spiro" />
    <inkscape:path-effect
       simplify_just_coalesce="false"
       simplify_individual_paths="false"
       helper_size="0"
       smooth_angles="360"
       threshold="0.000408163"
       steps="1"
       lpeversion="1"
       is_visible="true"
       id="path-effect168"
       effect="simplify" />
    <inkscape:path-effect
       lpeversion="1"
       is_visible="true"
       id="path-effect162"
       effect="spiro" />
    <inkscape:path-effect
       simplify_just_coalesce="false"
       simplify_individual_paths="false"
       helper_size="0"
       smooth_angles="360"
       threshold="0.000408163"
       steps="1"
       lpeversion="1"
       is_visible="true"
       id="path-effect160"
       effect="simplify" />
  </defs>
  <sodipodi:namedview
     inkscape:snap-global="false"
     inkscape:document-rotation="0"
     inkscape:window-maximized="0"
     inkscape:window-y="25"
     inkscape:window-x="3"
     inkscape:window-height="1059"
     inkscape:window-width="1918"
     units="px"
     showgrid="false"
     inkscape:current-layer="layer1"
     inkscape:document-units="mm"
     inkscape:cy="148.06429"
     inkscape:cx="306.30111"
     inkscape:zoom="2.8"
     inkscape:pageshadow="2"
     inkscape:pageopacity="0.0"
     borderopacity="1.0"
     bordercolor="#666666"
     pagecolor="#ffffff"
     id="base" />
  <metadata
     id="metadata5">
    <rdf:RDF>
      <cc:Work
         rdf:about="">
        <dc:format>image/svg+xml</dc:format>
        <dc:type
           rdf:resource="http://purl.org/dc/dcmitype/StillImage" />
        <dc:title></dc:title>
      </cc:Work>
    </rdf:RDF>
  </metadata>
  <g
     transform="translate(0,-217.62501)"
     id="layer1"
     inkscape:groupmode="layer"
     inkscape:label="Layer 1">
    <path
       d="m 83.884308,233.48643 c -0.30522,3.20598 -1.348021,6.11462 -4.044913,8.07002 -2.224098,1.67605 -3.976857,4.22936 -4.769751,6.88659 -0.572886,3.08932 -3.852048,4.9606 -3.972821,8.19324 -1.688679,-0.83296 -0.456684,-4.3155 -0.929723,-6.04221 1.684176,-1.68895 -0.648471,-1.40099 -0.642039,0.41657 -0.605283,2.39903 -2.747389,4.91538 -1.17863,7.40052 0.878336,2.8518 -1.166628,6.30984 -3.795983,7.54905 -1.814524,1.89085 0.522501,-1.91366 -1.286402,-2.47446 -0.212266,-2.46278 -2.849832,-4.61929 0.07262,-6.53597 0.791024,-1.24362 1.697295,-4.87625 1.757335,-5.17879 -0.981011,2.76575 -2.944382,5.23795 -5.594911,6.56228 -0.530094,-0.12952 0.872927,-3.22519 1.724836,-4.07037 1.012015,-1.25921 -2.386047,-5.73376 -1.500038,-2.27077 -0.05077,2.92064 -1.590142,5.78093 -0.556074,8.64988 0.242349,2.86269 -4.856397,-0.75023 -2.485356,-2.62079 0.955929,-1.48702 1.898242,-6.32288 -0.385815,-6.19651 -0.561871,2.45597 -1.788642,4.49762 -1.644331,7.17195 0.314727,2.12359 -2.20839,3.93995 -2.419028,0.95483 0.595121,-2.59586 0.224061,-5.57814 -1.868352,-7.39275 0.913058,0.007 0.68295,2.86155 -0.6276,3.03272 0.04866,1.72204 1.948822,4.58716 0.937532,5.71912 -2.910915,-0.57677 -2.446641,-4.77876 -3.761022,-5.85021 0.259794,2.58529 1.789295,5.06142 3.027458,7.29421 1.521413,2.79231 3.841383,1.24864 6.099557,0.82505 1.405313,1.62612 5.221616,0.56902 3.813985,3.77745 -1.934957,3.40481 -0.383447,6.93312 1.695465,9.7417 0.717642,3.75138 -2.91978,6.29016 -4.117893,9.51236 -1.23477,2.36182 -2.983426,4.54322 -4.065169,6.91636 1.478231,1.4851 4.557024,-1.01682 5.634316,1.77871 2.847812,0.17923 6.03314,-1.52965 4.818794,-4.97639 0.178034,-4.63454 3.510136,-8.20172 5.271351,-12.27683 1.312314,-2.79908 4.247785,-3.79211 6.818601,-5.03761 2.191508,-0.26576 3.658193,-1.6616 4.620789,-3.38646 1.280935,1.42625 2.408824,0.41199 1.005661,-0.96421 -2.591853,-0.67793 -3.342851,4.48944 -6.278719,2.49946 -0.359597,-1.60253 4.670505,-2.08836 1.487133,-2.12765 -0.820809,0.46268 -4.352923,2.72344 -2.696483,0.52262 2.642096,-0.87024 5.157776,-3.25436 8.038502,-2.73761 1.332584,1.68536 2.577656,4.2926 5.248319,2.66139 1.097959,-0.16245 4.603792,-1.0352 4.052811,-1.86247 -2.06758,0.299 -6.058328,1.68585 -6.306343,-1.45762 1.554365,-1.04356 6.436375,-1.23023 5.490285,-3.93062 -2.334281,0.007 -4.12902,1.51716 -6.090663,2.46528 -3.750394,-0.10154 1.298549,-1.8368 1.664633,-3.20318 2.204285,-2.51663 -1.552091,-0.15908 -2.021432,1.01011 -2.315867,1.45018 -5.18386,1.94337 -7.805367,2.50398 -2.162211,-0.0405 2.935427,-1.50651 2.376673,-2.54653 -3.050101,-0.54116 -3.731635,3.12771 -5.704193,4.33658 -1.085103,0.10976 -4.007517,2.52764 -3.903347,1.65115 1.31018,-2.05337 4.421344,-3.18739 4.177542,-6.08113 -2.195727,-2.22915 1.343933,-5.96278 2.81331,-2.65188 1.567468,2.32096 5.503333,-1.0334 5.820927,1.54146 2.006614,-0.29368 6.348471,-0.77395 6.206582,-3.14809 -1.084441,0.13193 -3.968935,2.76095 -4.474426,0.96686 0.492875,-1.06514 2.775657,-1.57691 0.373895,-1.82691 -2.367153,-0.24535 -5.433788,1.71185 -7.524518,0.5996 2.994891,-0.0803 4.533638,-2.39913 5.955537,-4.59508 1.871389,-1.37512 -1.9908,1.03033 -2.251182,1.69734 -0.700337,2.46286 -3.788412,1.9356 -5.353517,1.32652 1.68825,-1.92841 3.861232,-3.39926 5.469554,-5.42409 1.912139,-2.15479 4.900817,-1.93754 7.318755,-0.98808 3.069383,0.37989 6.079706,-0.52426 8.595955,-2.28159 1.268001,-0.18774 4.04189,-3.41262 1.211299,-1.81015 -2.359535,0.27324 -5.745908,2.51951 -7.529282,1.14283 2.141603,-1.09307 4.387478,-2.19296 6.812932,-2.72469 0.993894,-1.44825 -4.030386,-0.83864 -4.775215,0.19558 -1.280028,1.92056 -2.491139,-0.0961 -0.730954,-1.00215 1.471924,-0.89282 0.71565,-4.76134 -0.540431,-2.11878 -0.366472,2.7222 -2.704195,5.95206 -5.80768,4.76552 -3.463205,0.94205 0.478672,-2.54333 1.233342,-3.46376 0.778579,-1.99457 4.372863,-3.04302 4.076214,-4.94095 -2.388129,0.44895 -3.510543,3.44451 -5.7118,4.53704 -0.902841,0.77903 -4.66471,2.56071 -2.480054,0.44299 2.579767,-1.77657 4.828045,-4.76373 4.222342,-8.15083 0.243563,-2.40521 -1.992792,-5.26403 -2.313387,-0.97075 z"
       style="fill:#28170b;stroke:#28170b;stroke-width:0.264583px;stroke-linecap:butt;stroke-linejoin:miter;stroke-opacity:1"
       id="path158" />
    <path
       d="m 56.868683,240.59212 c -1.426537,0.74857 -2.829728,1.74568 -4.581913,1.39408 -1.286673,-0.10863 -2.225995,-1.14701 -3.373794,-1.57831 -0.295197,-0.97648 0.841613,-2.59896 -0.869442,-2.83063 -1.038711,-0.63101 -1.176966,-2.09359 -2.40722,-2.63713 -1.33337,-1.47252 0.662161,-2.99038 2.142351,-2.3546 0.974736,0.10044 2.273322,1.75731 2.384005,-0.12911 -0.02058,-1.33349 -0.520418,-3.13781 1.273524,-3.61228 1.416566,-0.72073 1.968033,1.85143 3.517081,1.09703 0.981068,0.52553 2.23652,1.01966 2.801263,-0.41744 0.739549,-1.22193 3.060789,-0.46598 3.087599,-2.30987 0.300491,-1.54545 2.169736,-1.57308 2.448853,-3.06789 1.242299,-1.07854 2.788376,-1.00982 3.894465,0.18391 1.453324,0.18022 1.830903,-1.69545 3.034177,-2.04315 1.597877,0.33099 3.21402,-0.60176 4.764541,0.1835 1.373184,0.27568 4.21598,1.37317 2.398585,3.00001 -0.998567,0.85106 -1.03473,2.1696 0.29449,2.63728 0.377051,0.98565 -2.033096,2.04833 -0.07451,2.62765 1.608116,0.87994 -0.189792,2.89237 -1.586496,2.31804 -2.135474,0.60848 -0.544963,3.13163 -0.898507,4.60726 -0.635808,0.98546 -1.011273,2.11579 -1.50931,3.11815 -1.099043,0.67778 -2.213225,0.90496 -3.388046,0.67603 -1.101924,1.06826 -2.450922,1.43047 -3.918893,1.50695 -1.074209,1.12777 -2.63338,1.28889 -3.958294,0.50605 -1.137457,-0.97336 -3.390819,1.19881 -3.659838,-0.65366 0.783592,-1.11357 -1.461496,-1.1957 -1.814674,-2.22187 z"
       style="fill:#677821;stroke:#677821;stroke-width:0.264583px;stroke-linecap:butt;stroke-linejoin:miter;stroke-opacity:1"
       id="path166" />
    <path
       d="m 81.949637,221.26715 c -0.95339,0.49557 -1.026876,2.52924 -2.353253,1.99721 -0.746096,-0.23791 -2.021281,-1.05248 -1.979884,0.38491 0.312802,1.35774 -0.563506,2.39489 -1.940389,2.27606 -1.552643,0.21858 -1.115111,1.89253 -0.489222,2.80936 0.554702,1.60952 -1.618855,1.40498 -2.385989,2.14767 -0.633353,0.82476 -1.204799,1.96246 -0.231143,2.71808 0.248943,1.03308 -1.515948,2.2813 0.131281,2.71139 0.521036,0.92719 1.447622,2.55276 2.708278,1.99696 1.126896,-0.99722 1.556741,0.42185 1.772034,1.27862 1.229461,0.32888 2.409307,-0.89447 3.008629,-1.90119 0.526346,-0.65328 1.465821,-0.79293 1.883249,-1.63903 0.946353,0.0697 1.909593,0.81084 2.982919,0.34996 1.034698,0.31958 2.271244,-0.51441 3.094021,0.35806 0.8977,0.13605 1.850219,-0.0959 2.616746,0.66366 1.15106,0.0994 1.930332,-1.2175 3.173714,-0.9347 1.133883,-0.2009 2.085166,-1.07925 2.421079,-2.17139 0.376966,-0.73903 1.367482,-1.22005 0.988891,-2.06868 0.988143,-0.26709 1.758351,-0.9121 1.469205,-2.07208 0.16219,-1.12667 2.347807,-1.7948 0.945635,-3.00054 -1.130609,-0.98927 -2.070096,0.41263 -2.976128,0.89719 -1.369477,-0.45419 0.08116,-2.69663 -1.408004,-3.39801 -0.821343,-1.10853 -2.361168,-0.68932 -3.319589,-0.0188 -0.161398,0.81727 -1.436304,0.89697 -0.861619,-0.10514 0.104841,-0.61576 -0.881384,-0.85807 -0.137242,-1.51384 0.523766,-1.18959 -1.457602,-1.67939 -2.33166,-1.93311 -1.231302,-0.20604 -1.905649,-2.09371 -3.198707,-1.75377 -1.2176,0.50248 -2.084621,1.52949 -3.427447,1.81988 z"
       style="fill:#89a02c;fill-opacity:1;stroke:#89a02c;stroke-width:0.264583px;stroke-linecap:butt;stroke-linejoin:miter;stroke-opacity:1"
       id="path174" />
    <path
       d="m 95.178581,233.95701 c 0.685578,-1.08822 1.888781,-2.79653 3.359047,-2.20986 1.258151,1.06977 2.512062,-1.07978 3.828412,-0.23413 1.21414,0.65877 0.22289,2.56863 1.84176,2.92832 0.9622,0.83042 -0.27356,2.00751 0.0138,3.03957 -0.75227,0.56091 -1.96816,0.73864 -1.80276,2.02689 -0.0565,1.72881 1.80215,-0.82034 2.5266,0.35991 0.0212,0.59877 -0.99064,2.12924 0.33576,1.54344 1.03687,-0.65054 2.39598,-0.61967 3.30814,-1.46013 0.62985,-0.74439 -0.16938,-2.35729 1.36433,-2.32275 1.52588,-0.55934 1.75656,1.43638 2.89641,1.8904 1.18752,0.20872 2.57138,1.23729 1.40262,2.43273 -0.99455,1.22692 -2.66704,1.42198 -3.94188,2.23745 -0.896,0.0517 -1.41252,0.9721 -0.24752,1.13622 1.04754,0.53066 2.74349,-0.99405 3.21512,0.70846 0.50106,1.7521 -1.58741,1.76326 -2.73593,1.54087 -1.03692,0.22036 -2.28978,-0.43038 -3.09892,0.55723 -0.91845,1.29577 -1.25007,-0.85093 -2.03957,-0.73858 -1.04773,0.62483 -1.91913,1.99025 -3.32019,1.41515 -0.85897,-0.75531 -1.82107,-1.25332 -3.042815,-1.02881 -1.522892,0.29135 -1.71128,-1.56071 -2.88629,-1.83857 -0.948925,-0.15918 -2.758836,0.75352 -2.870325,-0.73196 0.328561,-0.9552 -0.421481,-1.38821 -0.947836,-1.94422 -0.118714,-0.56139 1.472271,-1.50577 0.218769,-1.46725 -0.825108,0.89653 -2.073451,0.10059 -3.055906,0.60647 -1.251934,0.56382 -1.468265,-0.83935 -0.916614,-1.64942 -0.313706,-1.23146 -2.065376,0.0731 -2.754402,-0.53378 -0.194402,-0.71774 -0.514316,-1.42661 -0.108748,-2.02065 -1.680115,-0.38633 0.110526,-1.83395 1.034369,-1.66222 1.05719,-0.38547 1.897896,-1.52442 3.173173,-0.80558 1.306189,0.34848 1.985312,-1.16517 3.186256,-1.29245 0.69024,-0.14909 1.421477,-0.16344 2.06516,-0.48275 z"
       style="fill:#677821;fill-opacity:1;stroke:#677821;stroke-width:0.264583px;stroke-linecap:butt;stroke-linejoin:miter;stroke-opacity:1"
       id="path181" />
    <path
       d="m 57.199841,246.47432 c -1.155621,-0.22364 -1.277623,1.74648 -2.596736,1.01685 -1.152408,0.0616 -1.631199,-1.23422 -2.679864,-1.47616 -0.83845,-0.21088 -1.978286,-0.60276 -2.569813,0.29484 -0.673343,0.66311 -2.018609,1.23052 -1.581402,2.38875 -0.622652,0.66752 -1.721365,-0.22498 -2.549385,-0.005 -1.40041,-0.18303 -0.672584,2.07219 -2.198008,1.73203 -1.085377,-0.12145 -1.559001,0.75985 -1.089062,1.71432 0.556488,1.24691 -0.976909,1.69251 -1.265854,2.6927 0.03385,0.75977 1.944823,1.23711 0.799178,1.992 -1.183505,0.52293 -0.565664,1.48864 0.537411,1.43618 1.117443,0.0471 1.144952,1.39607 0.483612,2.0309 -0.791096,0.55613 -1.061907,1.57478 0.0073,1.97076 1.104993,0.44416 2.118896,1.13806 3.230104,1.48917 0.831092,0.009 2.305046,0.22745 2.763408,-0.40474 -0.643869,-1.02494 -0.122566,-2.1383 0.246386,-3.13013 -0.197005,-1.26295 1.092407,-1.68121 2.12319,-1.61178 1.692513,0.11479 0.130944,-2.32479 1.697039,-2.47219 1.768426,-0.5789 0.135106,2.02006 1.540047,2.26317 1.216305,0.34314 1.569611,-1.1495 2.044223,-1.91731 0.834454,-0.64729 1.873163,-1.71294 3.026995,-1.23088 0.632968,0.21184 0.229872,1.13345 1.130761,1.08131 1.046297,-0.1272 1.849347,0.41867 1.201955,1.46604 0.647537,0.66156 2.225384,0.27186 2.517975,-0.45481 -1.110978,-0.61192 -0.02353,-1.94916 -0.244292,-2.90475 0.212839,-1.06454 -1.066455,-2.07768 0.0075,-2.88296 0.897057,-0.66413 1.6233,-1.85588 0.835908,-2.90027 -0.08992,-1.30902 -1.403771,-1.75153 -2.504692,-1.36541 -1.092419,0.144 -2.251334,0.008 -3.272367,-0.4137 -0.516783,-0.2183 -1.059065,-0.53045 -1.641513,-0.39844 z"
       style="fill:#89a02c;stroke:#89a02c;stroke-width:0.264583px;stroke-linecap:butt;stroke-linejoin:miter;stroke-opacity:1"
       id="path188" />
    <path
       d="m 91.744983,252.02711 c 1.625951,0.0546 3.513282,-0.55564 4.913767,0.53932 1.093338,1.03107 2.780989,0.73427 4.13796,0.57953 0.95549,-0.47994 1.90487,1.02862 1.47602,1.88243 -0.12224,1.82725 -2.49499,1.25388 -2.927828,2.64872 0.04725,1.00041 1.405828,1.03409 2.100138,1.44876 1.18099,-0.2051 2.35447,-1.80672 3.54284,-0.67378 0.84825,0.63192 0.86424,2.53907 2.41316,1.7218 0.86769,-0.39354 1.45889,-1.03557 1.87493,-1.75564 0.8775,0.58178 1.97079,0.50808 2.33986,-0.67048 0.56821,-0.99586 0.0329,-2.80836 1.76483,-2.70267 1.38795,-0.24903 2.81304,-0.34651 4.21737,-0.3352 0.80375,0.87507 -0.23624,2.07815 -1.2147,2.17848 -0.0357,1.41954 1.71678,2.28639 1.69763,3.69226 -0.4405,1.00293 -1.66679,1.30104 -2.11407,2.27985 -0.93143,0.11067 -2.23975,0.21183 -1.72692,1.52961 -0.16645,1.15128 -2.03608,0.73667 -2.88595,0.46791 -0.67459,-0.43324 -2.64577,-0.60411 -1.69464,0.67532 0.54683,0.9974 1.83417,1.22495 2.57624,1.80439 -0.25882,1.57247 -2.13022,1.86463 -3.33474,2.45858 -1.06048,0.68556 -2.32792,1.27984 -3.47227,0.35873 -1.22154,-0.32184 -2.30061,-1.05611 -2.21973,-2.44478 -0.66519,-0.66941 -1.79398,-1.01206 -1.61012,-2.24623 -0.7703,-0.8365 -2.279537,-0.54905 -3.384136,-0.53755 -1.046053,-0.005 -1.668115,-0.89466 -2.427257,-1.45043 -1.050564,-0.5457 -2.243329,-0.71991 -3.334977,-1.1516 -0.924645,-0.94172 -0.650793,-2.57336 0.120272,-3.53921 0.37438,-1.39775 -1.229124,-2.24088 -2.094047,-3.03648 -1.430784,-0.64096 -0.773363,-2.41453 0.140043,-3.17082 0.375285,-0.19305 0.889616,-0.12532 1.126325,-0.55082 z"
       style="fill:#677821;fill-opacity:1;stroke:#677821;stroke-width:0.264583px;stroke-linecap:butt;stroke-linejoin:miter;stroke-opacity:1"
       id="path202" />
    <path
       d="m 66.053992,239.24314 c -1.558864,0.0392 -2.277848,2.49331 -4.09471,1.96884 -1.255126,0.13421 -2.684889,-1.40318 -3.688743,-0.16931 -0.374902,1.58498 -2.024082,2.2088 -2.551627,3.66989 -1.743115,1.24782 2.335929,2.06449 0.711312,3.70417 -0.327474,0.4786 1.121853,0.67004 0.01164,1.01181 -2.430684,0.50446 -0.266852,3.12713 1.040577,3.53114 0.939635,0.33496 -0.129404,2.44175 1.503889,1.8307 1.332284,-0.21132 2.566972,0.7624 3.879211,0.78695 0.377172,1.67037 2.336814,1.03261 3.058186,0.005 1.464957,0.0729 1.105784,-2.48479 2.74138,-1.39937 1.720137,0.64567 2.639046,-1.62689 4.245943,-1.88269 0.987091,-0.63509 0.866746,1.20221 2.038358,0.91212 1.35269,0.7599 3.51147,-1.26956 4.294312,0.39594 0.534204,0.9084 1.890561,0.53637 2.374765,1.63452 1.132423,0.15225 2.469772,-0.25345 2.95969,1.21197 1.50562,1.06174 3.025578,-1.03186 4.610191,-0.7181 1.48222,1.14269 3.149825,0.16025 4.281812,-0.97946 1.427227,-0.7486 1.161712,-2.23619 0.646586,-3.4069 0.683152,-1.06292 2.560327,-2.48332 0.503013,-3.41933 -1.514387,-0.34037 -3.087378,-0.93745 -3.425703,-2.65264 -0.933945,-1.55904 -2.977921,0.098 -4.12857,-1.2002 -1.226374,-1.03318 -2.937978,-0.80739 -4.271161,-1.51259 -0.623392,-1.13853 -1.562923,-1.7553 -2.842417,-1.8252 -1.034169,-1.48405 -1.947557,-3.36971 -3.987012,-3.35063 -1.539769,-1.00385 -2.336099,1.43661 -3.967897,0.8373 -1.168038,0.58274 -2.163992,1.81251 -3.642097,1.40903 -0.77272,-0.0931 -1.535135,-0.25674 -2.300925,-0.39289 z"
       style="fill:#89a02c;fill-opacity:1;stroke:#89a02c;stroke-width:0.264583px;stroke-linecap:butt;stroke-linejoin:miter;stroke-opacity:1"
       id="path195" />
    <path
       d="m 86.516155,254.0349 c 0.848945,-1.28295 1.958289,0.036 2.566969,0.67512 1.181397,0.1941 2.620649,0.0217 3.428084,1.12346 0.983721,1.15756 1.534865,2.71636 1.990154,4.07479 -0.793233,0.84264 -1.334302,2.31422 0.23865,2.67981 0.710925,1.01333 2.150248,0.77239 2.82528,1.64796 -0.267322,1.29889 0.228611,2.74634 1.815627,2.53289 1.358401,0.28178 2.419901,-1.38105 3.752561,-0.70976 0.61103,0.0859 0.99099,0.25548 0.8485,0.80831 1.50649,0.29048 1.74357,1.89947 0.75212,2.9117 -0.95057,1.21689 0.17179,2.57678 1.54486,1.95928 1.31464,-0.0252 2.62895,0.23245 3.7807,-0.62715 1.34652,0.1327 2.80833,1.62528 2.15927,3.08497 -0.60395,0.99976 -1.57334,2.10895 -2.79951,2.19438 -1.13107,-0.39654 -2.23157,-1.37165 -3.33441,-0.29387 -1.1682,-0.086 -2.32785,-0.14064 -3.23904,0.77003 -2.14471,0.58834 -0.87479,-2.55734 -2.64866,-2.5982 -1.869719,-0.1706 0.59466,1.82175 -0.855982,2.48772 -0.868724,1.31061 -2.521378,0.27718 -3.493571,-0.35983 -1.069889,-0.89838 -2.483566,-0.21697 -3.668962,-0.64089 -1.686991,-1.07822 0.749126,-2.46446 0.94402,-3.69889 0.170411,-1.80254 -2.183089,-1.18179 -3.142938,-2.0002 -1.560742,-0.51659 -1.155724,-2.34779 -1.890342,-3.50471 0.08434,-1.46399 -1.31441,-2.27135 -2.012008,-3.27577 -0.804889,-0.85784 -2.353375,-2.05255 -1.266694,-3.44837 0.673608,-1.17276 -0.842389,-1.95217 -1.080696,-2.98659 0.08813,-1.02382 1.335036,-1.48397 1.860668,-2.27085 0.32072,-0.15602 0.630228,-0.33508 0.92535,-0.53534 z"
       style="fill:#89a02c;fill-opacity:1;stroke:#89a02c;stroke-width:0.264583px;stroke-linecap:butt;stroke-linejoin:miter;stroke-opacity:1"
       id="path215" />
  </g>
</svg>
