<?xml version="1.0" encoding="UTF-8" standalone="no"?>
<svg
   xmlns:dc="http://purl.org/dc/elements/1.1/"
   xmlns:cc="http://creativecommons.org/ns#"
   xmlns:rdf="http://www.w3.org/1999/02/22-rdf-syntax-ns#"
   xmlns:svg="http://www.w3.org/2000/svg"
   xmlns="http://www.w3.org/2000/svg"
   xmlns:sodipodi="http://sodipodi.sourceforge.net/DTD/sodipodi-0.dtd"
   xmlns:inkscape="http://www.inkscape.org/namespaces/inkscape"
   width="1200"
   height="600"
   viewBox="0 0 317.5 158.75"
   version="1.1"
   id="svg8"
   sodipodi:docname="ol-gradient.svg"
   inkscape:version="1.0.1 (3bc2e813f5, 2020-09-07)">
  <sodipodi:namedview
     pagecolor="#ffffff"
     bordercolor="#666666"
     borderopacity="1"
     objecttolerance="10"
     gridtolerance="10"
     guidetolerance="10"
     inkscape:pageopacity="0"
     inkscape:pageshadow="2"
     inkscape:window-width="1920"
     inkscape:window-height="1061"
     id="namedview29"
     showgrid="false"
     inkscape:zoom="1.4"
     inkscape:cx="600"
     inkscape:cy="300"
     inkscape:window-x="0"
     inkscape:window-y="19"
     inkscape:window-maximized="0"
     inkscape:current-layer="svg8" />
  <defs
     id="defs2" />
  <metadata
     id="metadata5">
    <rdf:RDF>
      <cc:Work
         rdf:about="">
        <dc:format>image/svg+xml</dc:format>
        <dc:type
           rdf:resource="http://purl.org/dc/dcmitype/StillImage" />
        <dc:title></dc:title>
      </cc:Work>
    </rdf:RDF>
  </metadata>
  <path
     id="path126"
     style="fill:#000000;stroke:#000000;stroke-width:1;stroke-linecap:round"
     d="m 47.24669,98.514238 c 19.727817,-2.75344 37.507423,-12.97572 57.29692,-15.6068 42.4541,-10.21807 85.11579,-19.84906 127.00599,-32.05957 10.20871,-5.13937 -13.26614,1.01249 -17.53493,2.81686 -44.03582,13.06215 -89.17605,22.0794 -133.645376,33.44806 -9.943335,4.3499 -27.772855,8.75913 -33.122604,11.40145 z" />
  <path
     id="path75"
     style="fill:#80ffe6;fill-opacity:1;stroke:#80ffe6;stroke-width:0.264583px;stroke-linecap:butt;stroke-linejoin:miter;stroke-opacity:1"
     d="m 85.864288,120.57489 c 5.394138,7.25813 12.763551,22.56131 22.549572,10.98725 5.97117,-13.92247 25.50122,-14.88211 30.71881,0.20136 5.02319,10.40193 17.30359,9.81345 26.91773,8.28564 8.94299,-1.97495 15.48998,-9.33916 24.23442,-12.07945 10.95974,-3.40237 13.13283,13.23965 22.28504,15.57704 8.64397,0.14058 19.32163,-0.23175 26.04523,-6.12534 0.53624,-8.5712 -1.18964,-18.13275 -5.10948,-26.03305 -7.32033,-13.610392 -14.02508,-27.504662 -20.79302,-41.404452 -4.10699,-11.08665 -13.77306,-18.25924 -22.36455,-25.56542 -8.70017,-9.42875 -20.32288,-16.74233 -33.46902,-17.18944 -9.58555,-1.86868 -19.70842,-2.35802 -28.7657,1.95958 -13.96747,4.4608 -27.22983,13.30199 -33.373527,27.05916 -10.425016,17.66758 -12.877586,39.10553 -10.152226,59.161702 0.325545,1.74439 0.743389,3.47255 1.276721,5.16542 z" />
  <path
     id="path91"
     style="fill:#ffffff;fill-opacity:1;stroke:#ffffff;stroke-width:0.264583px;stroke-linecap:butt;stroke-linejoin:miter;stroke-opacity:1"
     d="m 118.70135,76.466258 c -0.20332,-4.24015 -0.42116,-8.5824 0.90855,-12.67515 0.61629,-4.05561 2.76197,-8.35712 6.94834,-9.65806 3.40874,-1.35385 7.72076,0.46378 8.54026,4.17403 2.70874,7.43893 2.98361,15.55241 2.12305,23.34751 -0.78526,3.66079 -2.60891,8.21341 -6.83902,8.77386 -3.12208,0.55027 -6.73513,-0.36079 -8.35292,-3.30292 -1.95973,-3.21041 -2.6242,-7.02349 -3.32826,-10.65927 z" />
  <path
     id="path98"
     style="fill:#ffffff;fill-opacity:1;stroke:#ffffff;stroke-width:0.264583px;stroke-linecap:butt;stroke-linejoin:miter;stroke-opacity:1"
     d="m 152.51445,72.419308 c -0.60825,-4.55377 0.77435,-9.0402 2.07225,-13.35079 1.81266,-2.92874 4.89861,-6.41472 8.73266,-5.43283 3.6815,0.43174 4.95472,4.2643 5.74728,7.33426 1.15033,3.88386 2.65205,7.75718 2.36156,11.8912 0.19955,4.22439 0.46076,8.68848 -1.64946,12.53804 -1.34096,3.80022 -5.10429,7.08658 -9.34108,6.05469 -4.18715,-0.66168 -6.0371,-4.89291 -6.48059,-8.65671 -0.65022,-3.07094 -1.68332,-6.08724 -1.42277,-9.27604 -0.003,-0.36732 -0.008,-0.73465 -0.0199,-1.10182 z" />
  <path
     id="path109"
     style="fill:#000000;fill-opacity:1;stroke:#000000;stroke-width:0.264583px;stroke-linecap:butt;stroke-linejoin:miter;stroke-opacity:1"
     d="m 122.67526,60.247098 c -1.67678,0.39147 -1.80421,2.40102 -1.69426,3.80574 -0.019,2.82048 1.2484,5.87095 3.94152,7.09603 1.94246,0.97544 4.68099,1.1277 6.28596,-0.54307 1.32544,-1.74181 1.51414,-4.01767 2.08429,-6.06658 0.40148,-2.41907 -1.00676,-4.94207 -3.05831,-6.19403 -2.56679,-1.31839 -5.69015,-0.0412 -7.5592,1.90191 z" />
  <path
     id="path117"
     style="fill:#000000;fill-opacity:1;stroke:#000000;stroke-width:0.264583px;stroke-linecap:butt;stroke-linejoin:miter;stroke-opacity:1"
     d="m 156.80209,60.247098 c -1.60665,2.42354 -2.4466,5.71281 -1.16387,8.4481 1.1214,1.27542 2.17556,2.93314 3.99729,3.19706 1.98387,0.1705 4.35279,0.29293 5.82961,-1.30905 0.99972,-1.25323 0.97389,-2.96675 1.2304,-4.47838 0.24583,-2.4001 -0.37398,-5.09547 -2.42199,-6.5822 -1.91389,-1.61781 -4.83402,-2.42129 -7.10203,-1.0524 -0.75126,0.27371 -1.28149,1.31717 -0.36941,1.77687 z" />
  <path
     id="path128"
     style="fill:#000000;stroke:#000000;stroke-width:1;stroke-linecap:round"
     d="m 230.50476,46.322808 c 4.97063,0.51018 9.90809,-0.5097 14.80088,-1.21885 2.09494,0.18084 -0.25227,-1.11297 -1.01746,-1.31445 -1.08077,0.42399 -1.70071,1.70951 -2.64391,2.45607 -2.16647,2.21002 -4.50761,4.27024 -6.96876,6.12645 -1.26974,1.67165 1.24253,2.51306 2.25799,1.23841 2.60199,-2.57132 5.34831,-5.01774 7.90691,-7.62774 1.16277,-0.42997 1.9509,-1.41966 0.46045,-2.08292 -1.27608,-1.13035 -2.53286,0.6817 -3.93504,0.66215 -2.82036,0.6547 -5.75743,1.03479 -8.64919,0.74584 -1.04783,-0.52699 -1.54424,0.39573 -2.21187,1.01504 z" />
  <path
     id="path130"
     style="fill:#000000;stroke:#000000;stroke-width:1;stroke-linecap:round"
     d="m 44.521328,83.267808 c 19.129498,1.78928 35.131946,13.68853 53.09403,19.478572 22.655452,9.67216 46.945042,14.66102 70.048422,23.17533 22.15872,6.48861 44.03295,13.75878 65.37279,22.61461 1.56862,-5.82801 -18.10236,-6.72867 -23.85199,-11.11484 C 167.48897,123.22645 124.42162,112.89258 83.819123,95.679658 71.46406,90.485878 58.283082,81.129638 44.521328,83.267808 Z" />
  <path
     id="path132"
     style="fill:#000000;stroke:#000000;stroke-width:1;stroke-linecap:round"
     d="m 235.01401,142.51664 c 2.11282,2.41191 3.79308,5.16023 5.60323,7.79655 0.69896,1.09993 1.38745,2.20771 2.14379,3.26966 -0.25112,0.0502 0.6319,-2.26039 -0.85313,-1.62846 -0.48084,0.0907 -2.25738,0.0651 -0.91458,0.0613 1.68287,0.006 -0.87767,-0.10634 -1.33801,-0.0883 -2.81008,0.024 -5.62375,-0.0374 -8.40673,-0.45653 -1.6772,-0.12891 -3.38345,-0.22462 -5.05231,-0.0188 -1.36406,0.46749 0.63671,1.73687 1.14433,2.2457 0.3745,0.53537 2.16148,0.46327 1.85366,0.36442 -0.46512,-0.0163 -1.49735,-0.0363 -0.41516,-5.3e-4 4.88829,0.158 9.76676,0.75898 14.66173,0.62576 1.35157,0.2056 2.58308,-0.4293 2.4512,-1.94642 0.61598,-1.01547 -0.96449,-0.0908 -1.25917,-1.10897 -1.70297,-1.97391 -2.95408,-4.28718 -4.64931,-6.2714 -0.90663,-1.16253 -1.8138,-2.34845 -2.41845,-3.7025 -0.85035,0.28619 -1.70081,0.57212 -2.55109,0.85848 z" />
  <path
     id="path142"
     style="fill:#ffbc2b;fill-opacity:1;stroke:#ffbc2b;stroke-width:1;stroke-linecap:round;stroke-opacity:1"
     d="m 160.12369,14.861318 c 7.95245,8.17233 15.92681,16.32149 23.26792,25.05587 11.3308,12.47177 25.53561,22.00648 36.03985,35.28141 2.39103,2.00645 6.65533,10.39816 8.6903,7.69658 -10.61625,-12.13237 -21.39703,-24.31606 -34.29205,-34.11864 -11.8868,-10.46277 -21.58519,-23.0676 -32.63689,-34.35394 -0.35638,0.14624 -0.71275,0.29248 -1.06913,0.43872 z" />
  <path
     id="path146"
     style="fill:#ffbc2b;fill-opacity:1;stroke:#ffbc2b;stroke-width:1;stroke-linecap:round;stroke-opacity:1"
     d="m 218.29048,83.431528 c 3.03639,0.87954 5.86688,2.33563 8.89191,3.25474 2.34006,0.83898 4.66829,1.77572 6.84381,2.96241 1.24745,0.0919 3.78418,-0.71155 2.28013,-2.22349 -2.75324,-3.00471 -4.77689,-6.60401 -6.32675,-10.35557 -0.67805,-1.60256 -3.19079,-1.4262 -2.00751,0.53559 0.82602,1.7541 1.59531,3.5313 2.39065,5.29981 0.93309,1.95823 2.23019,3.72564 3.2933,5.59319 0.63744,-0.11023 2.31446,-0.36911 2.50721,-0.68605 -4.86632,-1.24831 -9.76683,-2.55536 -14.36711,-4.61829 -1.25586,-0.86476 -2.46602,-1.15984 -3.50564,0.23766 z" />
  <path
     id="path150"
     style="fill:#ffbc2b;fill-opacity:1;stroke:#ffbc2b;stroke-width:1;stroke-linecap:round;stroke-opacity:1"
     d="m 187.21808,4.1148983 c 0.15228,8.2251397 0.16192,16.4582897 0.624,24.6777497 0.2064,5.11464 0.33988,10.24175 0.0254,15.35499 4.09847,0.95337 1.58845,-4.72038 2.11042,-7.00741 -0.35945,-9.57763 -0.63841,-19.15718 -1.02042,-28.7340397 -0.55367,-1.32616 1.02982,-5.03695 -1.73935,-4.29129 z" />
  <path
     id="path152"
     style="fill:#ffbc2b;fill-opacity:1;stroke:#ffbc2b;stroke-width:1;stroke-linecap:round;stroke-opacity:1"
     d="m 189.00852,44.399718 c 4.97803,5.09444 11.06822,8.92527 17.35563,12.18316 4.0737,2.63977 7.89786,5.65898 12.10649,8.10403 1.29765,1.72186 6.32665,2.8846 4.94787,-0.46108 -3.53194,-1.31973 -6.90043,-3.39135 -9.98663,-5.62589 -3.26242,-2.39933 -6.74129,-4.44599 -10.40291,-6.16501 -3.89495,-2.10532 -7.64459,-4.4892 -11.14644,-7.20123 -0.49135,-1.18095 -1.82314,-1.68882 -2.87401,-0.83398 z" />
  <path
     id="path156"
     style="fill:#ffbc2b;fill-opacity:1;stroke:#ffbc2b;stroke-width:1;stroke-linecap:round;stroke-opacity:1"
     d="m 192.32962,44.874688 c 6.44186,-1.9054 12.92024,-3.72601 19.23609,-6.01936 3.87332,-1.54618 7.7183,-3.19961 11.82762,-4.02579 1.91741,-0.2725 5.41952,-1.63673 1.92396,-2.87718 -2.73912,-0.01 -5.11731,1.75473 -7.74109,2.41013 -4.76722,1.75341 -9.21987,4.27815 -14.13628,5.63928 -4.04737,1.29219 -8.00437,2.89495 -12.19464,3.69328 0.06,0.60216 0.79739,0.72231 1.08434,1.17964 z" />
  <path
     id="path158"
     style="fill:#ffbc2b;fill-opacity:1;stroke:#ffbc2b;stroke-width:1;stroke-linecap:round;stroke-opacity:1"
     d="m 191.33133,35.469908 c 3.065,-1.06236 5.98433,-2.69272 9.25656,-3.04042 -0.21169,0.37506 -2.73239,-1.63907 -2.4259,0.3326 -0.55419,2.6007 -1.25671,5.16635 -1.9528,7.73174 0.073,0.9377 0.83484,2.44471 1.64599,1.17192 1.18493,-0.74287 0.97779,-2.30423 1.38504,-3.47188 0.48091,-2.06644 1.09032,-4.12512 1.93381,-6.06259 -0.2545,-0.8479 -1.38521,-2.08419 -2.33145,-1.67165 -1.83704,1.71617 -4.35656,2.32729 -6.65312,3.18577 -0.69004,0.42114 -3.09456,0.35345 -1.54454,1.22969 0.22883,0.19824 0.45765,0.3965 0.68641,0.59482 z" />
  <path
     id="path162"
     style="fill:#ffbc2b;fill-opacity:1;stroke:#ffbc2b;stroke-width:1;stroke-linecap:round;stroke-opacity:1"
     d="m 194.05586,39.567648 c 1.87544,-1.29328 -2.83318,-2.39604 -1.39903,-0.56277 0.48491,0.12414 1.02069,0.19981 1.39903,0.56277 z" />
  <path
     id="path164"
     style="fill:#ffbc2b;fill-opacity:1;stroke:#ffbc2b;stroke-width:1;stroke-linecap:round;stroke-opacity:1"
     d="m 199.48332,44.131488 c 2.02938,0.89929 3.73633,2.41021 5.85212,3.13927 0.52587,0.0635 2.07358,1.18206 1.40387,-0.0368 -0.25239,-1.37663 -1.30136,0.5623 -2.0002,0.76832 -0.87997,0.61659 -1.83491,1.12024 -2.82042,1.54553 -1.63341,0.27695 -0.0149,1.92705 0.94803,1.9696 1.14638,0.24999 2.05081,-0.74469 2.99985,-1.21468 1.27845,-0.8007 2.59144,-1.578 3.70092,-2.61129 0.55805,-0.96569 -0.008,-2.3391 -1.25936,-2.06681 -2.32033,-0.36123 -4.4017,-1.55954 -6.30699,-2.86606 -0.93466,-0.19237 -1.66479,1.06467 -2.51782,1.37294 z" />
  <path
     id="path166"
     style="fill:#ffbc2b;fill-opacity:1;stroke:#ffbc2b;stroke-width:1;stroke-linecap:round;stroke-opacity:1"
     d="m 198.80934,47.577068 c 2.72535,-0.95103 -2.77354,-3.42766 -1.03516,-0.82905 0.35127,0.26511 0.83192,0.40141 1.03516,0.82905 z" />
  <path
     id="path168"
     style="fill:#ffbc2b;fill-opacity:1;stroke:#ffbc2b;stroke-width:1;stroke-linecap:round;stroke-opacity:1"
     d="m 236.72505,75.349068 c 2.8084,-0.65826 5.71597,-0.60452 8.58066,-0.74527 0.57746,-0.0273 1.83022,0.23958 1.04716,-0.62468 -0.74533,-0.55116 -1.16918,-1.55431 -2.08211,-1.82884 -1.08683,-0.0275 -2.15289,0.35912 -3.25101,0.37569 -2.17179,0.15043 -4.3254,0.51013 -6.50243,0.58283 0.7359,0.74676 1.4719,1.49346 2.20773,2.24027 z" />
  <path
     id="path180"
     style="fill:#ffbc2b;fill-opacity:1;stroke:#ffbc2b;stroke-width:1;stroke-linecap:round;stroke-opacity:1"
     d="m 246.08503,65.366548 c 2.76702,3.82432 4.30693,8.3388 5.94576,12.71778 0.3628,1.30356 0.41246,3.41392 2.10106,3.65907 1.74137,0.0356 2.76917,-1.62638 3.58527,-2.92166 2.14638,-2.92568 4.59987,-5.61688 7.09236,-8.24972 1.94964,-2.02641 3.97304,-3.9808 6.03893,-5.88819 1.64812,-0.61809 0.17568,-2.52265 -1.03662,-2.5913 -1.54566,-0.53639 -3.10353,0.34902 -4.67259,0.32683 -4.16411,0.41723 -8.35416,0.57332 -12.53783,0.47244 1.42294,-0.0295 -1.29128,0.009 -1.75203,-0.15559 -0.93526,-0.20063 -3.32995,-0.60019 -2.74907,1.05287 0.48043,0.51468 2.33815,1.09057 1.30503,1.97332 -0.63631,0.0558 -1.35506,-0.27915 -0.29968,-0.23361 7.58147,-0.0837 15.16304,-0.40437 22.7136,-1.11127 -0.8712,-0.73278 -2.37043,-2.20375 -3.41828,-1.01435 -0.64307,1.04661 -1.35491,2.02116 -2.2509,2.86501 -4.09282,4.53741 -8.2615,9.00637 -12.4922,13.41518 0.18966,0.91587 2.9142,0.51013 1.57677,-0.56981 -1.05824,-2.02731 -1.99482,-4.11747 -3.07442,-6.13592 -1.30673,-2.58018 -2.69777,-5.14346 -3.65553,-7.87571 -0.60718,-0.84629 -1.67848,0.22133 -2.41963,0.26463 z" />
  <path
     id="path184"
     style="fill:#ffbc2b;fill-opacity:1;stroke:#ffbc2b;stroke-width:1;stroke-linecap:round;stroke-opacity:1"
     d="m 251.63642,68.987558 c 1.23374,1.18664 2.06119,2.7311 2.6319,4.33002 0.0542,1.29962 2.03585,0.94268 2.63519,0.27307 0.004,-1.32013 -1.26367,-2.34591 -1.73743,-3.56543 -0.61752,-0.84235 -0.98078,-2.5518 -2.22225,-1.55287 -0.43582,0.17169 -0.87164,0.3434 -1.30741,0.51521 z" />
  <path
     id="path186"
     style="fill:#2ad4ff;fill-opacity:1;stroke:#2ad4ff;stroke-width:1;stroke-linecap:round;stroke-opacity:1"
     d="m 83.163279,120.21426 c 7.117622,-4.12675 3.111832,-14.02608 5.323915,-20.693872 2.176737,-12.96091 5.355076,-25.84558 10.057904,-38.13 6.189132,-15.49653 18.228142,-30.37292 35.325392,-33.82805 15.35738,-3.24423 31.55455,2.91314 42.36591,13.95038 14.0092,12.01899 26.24858,26.75661 32.3863,44.37677 7.49679,15.960742 15.76169,31.623102 21.60322,48.301172 7.14446,-5.13993 -4.29054,-12.98393 -5.00226,-19.3617 -7.77992,-17.163962 -15.26391,-34.560182 -24.87729,-50.798452 -5.97567,-8.95115 -13.80657,-16.51728 -21.6178,-23.86054 -11.67564,-10.68444 -27.7594,-18.5624 -43.893,-14.98107 -16.9545,3.30617 -31.17454,16.30468 -37.016003,32.42499 -7.523228,17.05259 -11.457705,35.52313 -12.877541,54.058022 -1.538434,2.25409 -0.01035,7.20932 -1.778747,8.54235 z" />
  <path
     id="path188"
     style="fill:#2ad4ff;fill-opacity:1;stroke:#2ad4ff;stroke-width:1;stroke-linecap:round;stroke-opacity:1"
     d="m 133.46833,28.156878 c 11.75576,-2.08201 22.72554,5.78045 30.875,13.33847 10.53875,12.80294 11.25046,30.16713 17.05334,45.13226 5.75145,18.705322 6.65266,38.402912 10.17026,57.502992 5.13738,8.72735 1.11354,-8.10261 -0.0342,-11.76368 -1.59868,-20.50946 -5.56654,-40.864392 -12.4901,-60.276742 -2.91396,-14.20902 -7.19294,-29.88616 -20.28048,-38.1192 -5.63863,-3.71351 -22.35813,-12.80566 -25.2938,-5.8141 z" />
</svg>
