<?xml version="1.0" encoding="UTF-8" standalone="no"?>
<svg
   xmlns:dc="http://purl.org/dc/elements/1.1/"
   xmlns:cc="http://creativecommons.org/ns#"
   xmlns:rdf="http://www.w3.org/1999/02/22-rdf-syntax-ns#"
   xmlns:svg="http://www.w3.org/2000/svg"
   xmlns="http://www.w3.org/2000/svg"
   xmlns:sodipodi="http://sodipodi.sourceforge.net/DTD/sodipodi-0.dtd"
   xmlns:inkscape="http://www.inkscape.org/namespaces/inkscape"
   width="1200"
   height="600"
   viewBox="0 0 317.5 158.75"
   version="1.1"
   id="svg8"
   sodipodi:docname="ol-hamburger.svg"
   inkscape:version="1.0.1 (3bc2e813f5, 2020-09-07)">
  <sodipodi:namedview
     pagecolor="#ffffff"
     bordercolor="#666666"
     borderopacity="1"
     objecttolerance="10"
     gridtolerance="10"
     guidetolerance="10"
     inkscape:pageopacity="0"
     inkscape:pageshadow="2"
     inkscape:window-width="1920"
     inkscape:window-height="1061"
     id="namedview34"
     showgrid="false"
     inkscape:zoom="1.4"
     inkscape:cx="600"
     inkscape:cy="300"
     inkscape:window-x="0"
     inkscape:window-y="19"
     inkscape:window-maximized="0"
     inkscape:current-layer="svg8" />
  <defs
     id="defs2" />
  <metadata
     id="metadata5">
    <rdf:RDF>
      <cc:Work
         rdf:about="">
        <dc:format>image/svg+xml</dc:format>
        <dc:type
           rdf:resource="http://purl.org/dc/dcmitype/StillImage" />
        <dc:title></dc:title>
      </cc:Work>
    </rdf:RDF>
  </metadata>
  <path
     id="path27"
     style="fill:#2a0d0c;fill-opacity:1;stroke:#2a0d0c;stroke-width:0.264583px;stroke-linecap:butt;stroke-linejoin:miter;stroke-opacity:1"
     d="m 167.03655,112.27741 c 10.43493,0.24813 20.81235,-1.42689 31.24452,-1.58395 9.04331,-0.93383 18.09804,-1.47608 27.08787,-2.84887 8.51288,0.16577 22.22831,-4.57638 21.42869,8.29582 -2.81177,9.74165 -16.14258,10.455 -24.67569,13.01453 -15.4926,1.10408 -31.05825,1.26562 -46.57374,2.41385 -12.85479,0.64368 -25.68872,0.42895 -38.5324,0.26938 -10.05278,1.78117 -20.14054,2.14361 -30.21173,0.0235 -9.195042,-1.14647 -20.654244,0.57135 -27.446801,-7.09957 -3.569184,-5.33418 -7.941375,-15.99667 3.180821,-13.35182 8.959611,3.41612 18.45527,2.91155 27.88293,2.70924 7.36307,-0.63606 14.68146,1.26605 22.02295,1.00341 11.46911,-2.15112 23.35029,0.45118 34.59258,-2.84556 z" />
  <path
     id="path33"
     style="fill:#4f0d01;fill-opacity:1;stroke:#4f0d01;stroke-width:0.264583px;stroke-linecap:butt;stroke-linejoin:miter;stroke-opacity:1"
     d="m 112.83352,78.38157 c -6.5297,-1.30205 -13.466382,-1.6849 -20.17636,-1.2259 -5.801304,1.01809 -11.636174,2.14626 -17.287812,3.72116 -5.676838,2.03754 -8.906434,7.31454 -9.666932,13.05774 0.338376,4.41061 -2.073276,9.17497 0.359327,13.0236 0.566074,5.77845 7.50638,9.16642 12.978958,10.42567 5.951965,-0.29262 12.159504,1.9608 18.313637,-0.17858 6.046052,3.9149 13.126852,4.20068 20.205332,2.78817 5.78492,-0.98233 11.58612,-3.36643 16.96295,-0.26374 6.12105,2.77739 12.46631,1.24137 18.42167,-0.85433 6.96273,1.40831 13.82022,2.1562 20.72437,0.56698 6.40718,1.06542 12.85176,4.56266 18.80852,0.11204 6.97299,-0.94068 13.8979,-3.63853 20.99117,-2.15171 7.0632,-1.83002 14.38172,-2.42335 21.65302,-2.76838 5.18466,0.89259 16.0595,1.73191 13.96224,-6.62126 2.49455,-6.28403 -1.06558,-12.52454 -1.09891,-19.09518 -2.73985,-4.67156 -7.25831,-8.50526 -11.10053,-12.37084 -6.55759,-1.52908 -13.30824,1.78806 -19.98822,0.73804 -10.53534,-3.09314 -21.40415,0.58394 -32.12155,0.009 -8.55841,0.25615 -17.08638,0.97816 -25.64814,1.01309 -11.34361,1.1158 -22.68416,2.55003 -34.11215,1.96216 -4.81086,1.48947 -7.83765,-0.90273 -12.18059,-1.88746 z" />
  <path
     id="path46"
     style="fill:#f4e6bd;fill-opacity:1;stroke:#f4e6bd;stroke-width:0.264583px;stroke-linecap:butt;stroke-linejoin:miter;stroke-opacity:1"
     d="m 84.906271,126.43955 c -5.757367,0.60776 -15.820636,-1.21033 -18.750541,2.53295 4.936774,5.70575 13.756174,4.23675 20.415152,6.58051 17.727778,2.32323 35.663518,1.74364 53.441908,3.51556 12.85327,0.50898 25.72936,0.1683 38.59118,-0.11753 10.81808,-0.30893 21.53479,-2.01849 32.37755,-2.00404 8.29203,-0.70382 16.58542,-1.71514 24.85735,-2.72629 6.12915,-0.87016 13.51833,-2.82781 15.72019,-9.3897 -3.22438,-7.71727 -14.09778,-0.25301 -19.86673,1.13008 -10.64802,2.34951 -21.62288,2.72272 -32.40453,4.28292 -14.93001,1.0761 -29.91651,1.13161 -44.87311,0.56799 -16.02351,0.91322 -32.09381,0.29362 -48.11304,-0.39812 -7.259162,-0.1181 -14.908405,-0.28628 -21.395379,-3.97433 z" />
  <path
     id="path52"
     style="fill:#e87c16;fill-opacity:1;stroke:#e87c16;stroke-width:0.264583px;stroke-linecap:butt;stroke-linejoin:miter;stroke-opacity:1"
     d="m 72.359955,128.08111 c -9.824542,-6.19114 -8.435044,11.11846 -5.017368,16.02526 6.173588,7.89054 17.544182,6.34278 26.27567,8.72753 10.602103,1.92962 21.158803,4.73439 32.028443,3.35435 20.50272,0.46998 41.01604,0.41931 61.50649,-0.33588 11.02181,-1.34444 22.24268,-1.24241 33.15222,-3.48533 11.45167,-0.6714 25.33146,-3.82047 29.88799,-15.81471 5.15261,-7.88698 0.71869,-15.18847 -6.77907,-7.59541 -15.96342,7.52279 -34.08283,3.87703 -51.06135,5.69099 -18.70661,0.34693 -37.37652,2.61784 -56.08532,1.00616 -18.39227,-1.36963 -36.985042,-0.8232 -55.220927,-3.52362 -3.134136,-0.64845 -6.529172,-1.48111 -8.686778,-4.04934 z" />
  <path
     id="path58"
     style="fill:#f4e6bd;fill-opacity:1;stroke:#f4e6bd;stroke-width:0.264583px;stroke-linecap:butt;stroke-linejoin:miter;stroke-opacity:1"
     d="m 65.532194,51.32742 c -2.601634,12.24109 13.512392,12.79812 21.960385,12.90945 21.646271,-0.70131 43.339631,0.24464 64.984211,0.43007 22.02945,-1.30561 44.33894,2.08771 66.19878,-2.22223 8.6516,-2.10126 17.81214,0.15061 26.25589,-2.66458 11.39148,-8.34074 -7.12262,-9.67531 -13.43193,-8.87409 -20.7032,-3.92955 -41.89232,-5.44875 -62.97575,-4.50483 -16.52453,-1.30156 -33.04809,-0.54427 -49.57691,0.21888 -8.89784,0.62793 -17.82338,1.36832 -26.754293,1.77276 -8.819563,1.1168 -18.188747,0.47257 -26.660383,2.93457 z" />
  <path
     id="path64"
     style="fill:#e87c16;fill-opacity:1;stroke:#e87c16;stroke-width:0.264583px;stroke-linecap:butt;stroke-linejoin:miter;stroke-opacity:1"
     d="m 139.47903,3.50055 c -15.01823,-0.22479 -29.57928,4.2772 -44.07428,7.59707 -11.647795,4.4636 -24.16836,11.94486 -28.511232,24.26812 -5.571869,9.68715 -5.538323,25.68829 9.677655,21.97393 11.01684,0.55878 21.952675,-1.87538 32.937547,-0.0675 15.31351,-1.05025 30.44343,-4.83605 45.90515,-4.29068 13.45704,-0.80524 26.84508,1.69589 40.25257,1.22849 16.07112,-3.02344 32.18502,1.14995 48.33928,-0.25718 12.2257,0.26486 8.32512,-17.89928 1.79772,-23.01406 -6.46196,-6.2494 -12.66602,-12.95598 -21.58177,-15.4716 C 211.80585,9.49655 198.02662,7.0727 184.78278,3.9779 172.95052,3.12505 161.12856,3.26959 149.32021,2.19318 c -3.3053,10e-4 -6.65593,0.45627 -9.84118,1.30732 z" />
  <path
     id="path74"
     style="fill:#c4ed30;fill-opacity:1;stroke:#c4ed30;stroke-width:0.264583px;stroke-linecap:butt;stroke-linejoin:miter;stroke-opacity:1"
     d="m 82.268836,60.51124 c -5.942024,0.81895 -11.537888,-0.19112 -15.98682,-3.47141 -2.632163,6.46148 -9.044835,-4.55415 -10.960113,2.60747 -1.201985,6.2272 -2.61144,13.14953 6.156171,12.57794 2.24135,7.77733 -11.110176,-2.75635 -7.961565,6.61228 2.480662,2.68847 5.911072,7.65328 10.757727,9.64253 6.065886,2.60394 2.002694,-10.36567 6.894753,-3.22016 4.711537,-1.06048 12.992245,-8.85385 15.725753,-1.55139 4.027991,-4.38581 12.442306,-6.57424 14.932858,0.48068 3.16198,3.23645 8.38499,4.98601 6.22328,-1.70889 3.49542,-5.54447 10.89345,3.70264 16.29879,0.55047 3.59648,2.53504 15.25221,7.49962 15.67098,0.35675 0.76477,-2.99607 9.69209,-1.71015 11.39162,1.00835 1.40541,4.38927 10.13104,14.25907 10.16413,4.13489 -1.9273,-4.82578 2.28232,-10.0581 6.89311,-6.20573 0.255,4.438 6.88654,10.50707 6.6144,2.4488 0.52184,-5.55716 10.32032,-3.91458 13.17532,-3.83266 2.32812,4.31229 14.13284,6.17418 12.88368,-0.99347 5.58011,-2.10262 10.54718,8.84891 16.65601,6.21556 -3.9938,-4.42687 0.5918,-7.64227 4.29326,-3.88362 1.46273,8.50418 9.66105,-1.08366 10.8091,-2.89652 3.70225,6.90364 11.3064,-1.10686 16.0377,-1.02662 1.74691,-6.13218 5.57624,-0.79703 6.75389,1.68924 2.16349,-2.47947 3.58188,-4.12095 7.34787,-5.09821 2.38672,-2.05194 8.6e-4,-9.77476 -3.05302,-5.16448 4.91982,-2.72602 6.51565,-13.27033 1.03398,-13.82673 -3.28941,1.70265 -5.68479,-7.32947 -8.57388,-0.89349 -3.45811,-3.38822 -6.56169,-0.34544 -9.782,1.67467 -3.12388,-3.75738 -7.96171,-5.68017 -10.75507,-1.91082 -3.28104,-1.68705 -11.47514,-4.52946 -9.3409,2.82685 -3.89645,-0.90232 -8.69925,4.81901 -7.79806,-1.91357 -4.91215,-6.35698 -11.86013,-1.52608 -12.51764,4.95119 -1.01386,5.81315 -8.62135,-0.7644 -12.28645,1.56508 1.56561,-6.24031 -6.14406,-10.68192 -11.31305,-7.20063 -3.0471,1.56645 -1.97758,8.00576 -6.10768,3.83227 -0.73404,-6.5001 -14.31169,-5.13354 -11.62968,1.40213 -0.27708,6.03921 -9.63146,-2.98143 -13.43636,1.49035 -5.71575,0.78868 -9.8066,-3.93942 -15.24304,-0.32073 -5.51946,-0.63891 -10.38379,2.93084 -13.34317,-2.88921 -5.75367,-6.47661 -15.25982,2.87054 -18.49318,3.23512 2.64122,-7.15371 -8.920138,-7.12276 -12.515441,-3.68687 -2.526757,2.60752 -0.769255,4.73845 -5.617263,2.39259 z" />
  <path
     id="path79"
     style="fill:#c4ed30;fill-opacity:1;stroke:#c4ed30;stroke-width:0.264583px;stroke-linecap:butt;stroke-linejoin:miter;stroke-opacity:1"
     d="m 68.613314,116.32404 c 5.707615,-6.01333 7.379933,3.74792 11.699323,4.64847 2.791052,4.56725 9.273881,5.69024 14.819224,2.64804 4.222207,3.49972 10.494779,2.03354 15.137239,1.91107 -2.44071,-8.70956 10.02509,-4.66809 9.09002,-11.98156 3.71187,-2.7188 13.20309,-3.58724 11.16849,3.01934 4.72756,1.14646 -0.68538,5.76151 4.22934,7.7185 3.87828,7.12161 5.89798,-5.50513 10.438,-0.0904 3.29085,0.7237 9.541,-6.62837 11.7851,0.11123 1.46842,4.50473 3.96707,1.93997 6.04416,0.92122 2.66121,4.05373 8.40572,5.07073 11.42101,0.34084 3.50531,-0.24451 6.4604,0.10159 8.61641,-2.19703 2.49234,0.5301 6.3365,2.74085 7.81725,-0.23581 0.95769,4.11194 8.74695,5.31673 11.04094,2.64725 3.31776,4.78515 4.90094,-3.12735 9.48584,-1.63467 4.33951,-1.56643 3.09968,-10.76279 9.83066,-5.87369 2.14198,3.18062 -1.17129,7.88973 4.79682,7.59835 2.09012,-3.23978 4.68259,-5.28026 6.6535,-4.72191 -0.81507,-8.03152 5.26918,-1.81164 8.12111,-1.42312 5.51419,-0.7435 12.91165,-3.44806 18.30691,-2.45823 1.35029,3.10976 -7.26561,6.8893 -2.60015,8.72609 -4.27574,3.94503 12.28805,9.3365 0.92162,10.54829 -3.0034,-1.25339 -9.94277,-3.50116 -4.9228,2.01453 -3.41147,3.47758 -8.72909,-2.43537 -8.78553,-4.23863 -4.58323,-0.81585 -4.89982,2.16057 -4.09543,3.97393 -2.92236,-1.13434 -8.60594,-4.52715 -3.90977,0.55797 -0.16111,4.53698 -6.77033,3.42832 -6.46401,0.35228 -3.62648,0.0491 -8.67557,-0.17139 -4.09956,-4.05842 -4.77424,0.2891 -8.81458,-9.14296 -12.8572,-3.26145 0.2083,3.09072 -6.04944,7.46665 -7.36942,1.67334 -3.97269,-5.99623 -8.576,6.25574 -13.00239,-0.7396 -3.64877,0.94198 0.90628,5.62147 -4.58274,2.15989 -3.52276,-2.09332 -6.6577,4.04447 -10.43417,0.18834 -4.23113,-0.27474 -3.43819,9.08584 -7.54585,2.76659 -3.36509,-4.00338 -8.80034,-4.03805 -10.37469,1.0035 7.74147,4.98776 -4.93139,1.59434 -5.27058,-2.61537 -3.19046,-1.72811 -9.32983,-6.09496 -6.98219,0.95251 -2.84643,5.80613 -10.32776,2.97154 -11.69754,-1.94063 -4.38241,-3.23254 -9.03657,5.67954 -10.32897,-0.7632 -1.68906,-4.7163 -6.08029,7.62867 -9.4205,2.88097 -3.18081,4.29408 -11.89255,3.87306 -14.88597,-0.87153 -5.606009,-1.71643 -2.268942,0.68792 -0.0297,2.95599 -4.332162,3.47811 -9.602416,0.66365 -12.979742,-1.41457 4.196938,6.11485 -6.635722,6.37963 -4.405196,0.87617 -3.232729,3.98343 -4.8514,-1.90241 -6.699588,-1.12604 -0.745248,3.31031 -4.656403,5.57137 -5.721889,2.98402 3.507979,-0.36508 4.674232,-6.07901 0.450775,-2.89291 -2.680664,-1.01872 -1.768183,-8.14156 -7.063737,-6.72573 0.17788,-3.33942 -4.080709,-7.05436 0.592789,-8.10983 1.005762,-2.82656 0.796824,-3.53317 4.700602,-3.12433 1.606318,-1.61391 -1.120938,-2.32845 -0.63781,-3.68009 z" />
  <path
     style="fill:#6c9301;fill-opacity:1;stroke:#6c9301;stroke-width:0.264583px;stroke-linecap:butt;stroke-linejoin:miter;stroke-opacity:1"
     d="m 71.47259,67.05526 c -0.704346,-0.60611 -1.595462,-1.0995 -2.551011,-1.07169 -0.834015,0.0243 -1.523658,0.80323 -1.535483,1.60414 -0.0099,0.67146 0.567704,1.13321 1.055466,1.50105 0.628137,0.4737 1.277828,0.9431 1.703079,1.65835 0.226291,0.38061 -0.143104,0.66612 -0.432797,0.8607 -0.769271,0.5167 -1.689701,1.01089 -2.011278,1.93827 -0.14705,0.42407 -0.09301,0.89903 0.158054,1.28234 0.680473,1.03888 1.545717,1.95058 2.480908,2.75882 0.535675,0.46296 1.005774,1.13301 1.706881,1.27391 0.380521,0.0765 0.623625,-0.33961 0.742502,-0.64387 0.305017,-0.78068 0.298663,-1.62957 0.585366,-2.42206 0.458301,-1.26681 1.868464,-2.13378 2.017112,-3.4593 0.04328,-0.38598 0.457551,-0.48134 0.770567,-0.5625 1.013662,-0.26282 2.124183,-0.11555 3.09216,-0.50515 0.434442,-0.17486 0.324978,0.42115 0.149654,0.6404 -0.294015,0.36767 0.207408,0.53963 0.520095,0.57268 0.927212,0.098 1.851345,-0.0912 2.771715,-0.18012 0.944971,-0.0913 1.893196,-0.12337 2.847444,-0.15113 0.465725,-0.0136 0.430068,0.50548 0.566358,0.81004 0.459847,1.02758 1.46935,1.70168 2.518873,1.99227 0.428124,0.11854 0.9084,0.37324 1.323686,0.19626 0.441887,-0.18832 0.672219,-0.65533 0.89912,-1.05043 0.423374,-0.73721 0.643519,-1.58513 1.138555,-2.2775 0.823368,-1.15158 2.142808,-2.43697 3.515699,-2.1701 0.433937,0.0844 0.151393,0.71716 0.05178,0.99741 -0.459218,1.29199 -1.080996,2.59475 -1.062953,3.97647 0.0042,0.31964 -0.06222,0.82839 0.316764,0.93799 0.482218,0.13945 1.018792,0.16157 1.494882,0.0122 1.393356,-0.43707 2.677349,-1.1754 4.075522,-1.59108 0.34241,-0.1018 0.62177,0.22816 0.8622,0.42275 0.57681,0.46684 1.0501,1.0725 1.69792,1.44103 0.67302,0.38287 1.4711,0.21909 2.18113,0.0611 0.50012,-0.11126 1.01049,-0.0813 1.51947,-0.01 0.43881,0.0618 0.98794,0.20085 1.33913,-0.15817 0.35196,-0.35981 0.56448,-0.83598 1.00645,-1.12079 1.19078,-0.76736 2.79724,-0.97553 4.0888,-0.31192 1.25252,0.64355 2.17589,1.74616 3.37693,2.47314 1.49438,0.90454 2.9947,1.84731 4.64594,2.42252 0.37623,0.13106 0.78596,0.43806 1.16743,0.29226 0.36968,-0.14129 0.45362,-0.57847 0.61852,-0.90034 0.26029,-0.50805 0.56481,-1.01363 0.60231,-1.60814 0.0405,-0.64215 0.0207,-1.3029 0.2317,-1.92302 0.13738,-0.40374 0.61878,-0.34799 0.94745,-0.27329 1.00081,0.22745 1.83983,1.03634 2.8993,0.99115 1.29616,-0.0553 2.24413,-1.22874 3.54487,-1.25096 1.61464,-0.0276 2.93822,1.18319 4.54759,1.19747 1.53324,0.0136 2.91613,-0.74259 4.41109,-0.97887 1.21402,-0.19188 2.44983,0.0693 3.57661,0.53131 1.44557,0.59275 2.85069,1.44091 4.44729,1.51172 1.42638,0.0633 2.86371,-0.26991 4.2824,0.0219 0.66625,0.13704 1.19878,0.59709 1.6303,1.09928 1.00398,1.1684 1.42402,2.77732 2.58127,3.80315 0.23,0.20388 0.59352,0.91986 0.72371,0.65848 0.28047,-0.56311 0.26546,-1.21537 0.43886,-1.8136 0.42975,-1.48262 0.91337,-3.00484 1.87574,-4.23144 0.43083,-0.54912 0.98372,-1.17215 1.70704,-1.19777 0.88572,-0.0314 1.5899,0.62305 2.45081,0.73914 0.89425,0.12059 1.80208,0.10424 2.68832,0.30938 1.35684,0.31407 2.7295,0.79642 4.14255,0.58575 0.7708,-0.11492 1.51723,-0.36551 2.21935,-0.72407 0.27099,-0.13839 0.76633,-0.5525 0.8917,-0.24693 0.15796,0.385 -0.42039,0.71128 -0.68237,0.954 -0.50298,0.46601 -1.14224,0.89556 -1.35406,1.55792 -0.18945,0.59241 -0.13557,1.24771 0.0566,1.84194 0.14339,0.44329 0.63508,0.43773 1.01997,0.40141 1.09828,-0.10365 2.0719,-0.65732 3.10878,-0.98853 1.33333,-0.4259 2.73887,-0.81976 3.82724,-1.74304 0.32475,-0.27549 0.40975,-0.8068 0.79244,-0.98881 0.21658,-0.10301 0.37986,-0.20721 0.11238,-0.42726 -0.30929,-0.25444 -0.88708,-0.40505 -0.88285,-0.83865 0.004,-0.40514 0.43415,-0.6997 0.78159,-0.73648 0.67242,-0.0712 1.34184,0.0906 2.0055,0.18054 0.58343,0.0791 1.17327,0.066 1.7553,-0.071 0.98212,-0.23106 1.94726,-0.66504 2.95834,-0.65004 0.48468,0.007 0.15173,0.68241 0.0757,0.95746 -0.0883,0.31929 -0.16585,0.66907 0.0145,0.9814 0.41045,0.71084 1.20035,1.08089 1.9331,1.36701 1.57267,0.61409 3.2518,0.85213 4.88948,1.22384 0.5754,0.1306 1.16705,0.3584 1.75654,0.26082 0.33667,-0.0557 0.22819,-0.47628 0.31388,-0.7141 0.29229,-0.81115 1.08619,-1.31567 1.86331,-1.58687 0.9252,-0.32288 1.92031,-0.31271 2.88671,-0.3758 0.96341,-0.0629 1.9566,0.006 2.88627,-0.27075 0.60826,-0.18076 0.97501,-0.74461 1.52073,-1.04552 0.8508,-0.46913 1.88517,-0.40734 2.7803,-0.0843 1.09791,0.39627 2.05235,1.2519 3.22526,1.35422 0.42104,0.0367 1.17159,-0.31495 1.26733,0.1015 0.0834,0.36277 -0.17667,0.73868 -0.24801,1.12119 -0.14358,0.76979 -0.2055,1.55398 -0.17459,2.34669 0.0154,0.39446 0.44132,0.47864 0.73585,0.24647 0.68228,-0.53782 1.22345,-1.22815 1.79763,-1.87463 0.87536,-0.98559 1.83912,-2.0084 3.13773,-2.40507 0.67067,-0.20486 1.31779,0.1511 1.91792,0.40017 0.62194,0.25812 1.32967,0.1422 1.91299,-0.16579 0.57222,-0.30213 1.1466,-0.6229 1.80639,-0.70855 1.13163,-0.1469 2.37334,0.0192 3.38083,-0.59518 0.62282,-0.37983 0.9832,-1.16227 1.71458,-1.34217 0.59882,-0.14729 1.21118,-0.0265 1.81678,-0.017 0.75241,0.0118 1.35327,-0.52805 1.86411,-1.01461 0.89999,-0.85722 1.55835,-2.34243 2.81994,-2.4463 0.18352,-0.0151 0.50176,-0.44442 0.55272,-0.27417 0.31971,1.06814 0.8224,2.08149 1.43851,3.00584 0.4458,0.66883 0.93878,1.33956 1.62314,1.79103 0.45397,0.29948 1.02289,0.081 1.39673,-0.24586 0.80575,-0.70446 0.90011,-2.03973 1.7913,-2.59153 0.45028,-0.2788 0.97789,-0.38302 1.399,-0.73735 0.62709,-0.52765 1.16125,-1.29637 1.99355,-1.46764 0.70771,-0.14563 1.3505,0.29566 1.89898,0.67602 0.86862,0.60238 1.93502,0.82583 2.96693,0.92375 1.22446,0.11619 2.53492,0.13509 3.65859,-0.41634 0.35978,-0.17656 0.77276,-0.41588 0.80964,-0.86077 0.0354,-0.42653 0.25057,-0.78727 0.43395,-1.17253 0.16937,-0.35583 0.87119,-0.99321 0.49345,-1.11286 -0.60032,-0.19015 -1.23306,-0.30435 -1.86116,-0.31415 -0.36356,-0.006 -0.7119,0.11907 -1.07725,0.15394 -0.53539,0.0511 -1.08738,-0.16037 -1.41533,-0.60004 -0.42312,-0.56726 -0.80334,-1.19494 -1.43579,-1.57156 -0.5291,-0.31508 -1.17116,-0.34646 -1.764,-0.19849 -0.73136,0.18255 -1.48665,0.53289 -2.25482,0.29521 -1.1057,-0.34212 -1.99391,-1.17317 -3.15348,-1.39642 -1.37053,-0.26386 -2.88215,-0.0281 -4.12572,-0.7535 -0.70953,-0.41388 -1.35658,-0.96465 -1.82345,-1.63571 -0.46788,-0.67251 -0.74118,-1.46261 -1.33352,-2.06915 -0.27274,-0.27928 -0.61054,-0.0852 -0.77003,0.23587 -0.34892,0.70247 -0.79306,1.35195 -1.22022,2.00839 -0.73524,1.1299 -1.40516,2.35735 -2.44472,3.22281 -0.87302,0.72681 -1.90957,1.24157 -2.97265,1.61916 -0.86929,0.30876 -1.78653,0.63395 -2.71981,0.53782 -0.75463,-0.0777 -1.23904,-0.72304 -1.68677,-1.25942 -0.40402,-0.48401 -1.00415,-0.84092 -1.6564,-0.78256 -1.30037,0.11635 -2.30338,1.19016 -3.62675,1.22846 -0.60641,0.0175 -1.12984,-0.3346 -1.54678,-0.74708 -0.43107,-0.42646 -0.91374,-0.89062 -1.57808,-0.91778 -0.46064,-0.0188 -0.73703,0.41874 -0.84941,0.81488 -0.33644,1.18597 -0.22909,2.47974 -0.76891,3.61238 -0.19875,0.41701 -0.59707,0.67574 -1.02262,0.84514 -0.70303,0.27986 -1.58713,0.53678 -2.258,0.0634 -0.58902,-0.41567 -0.99114,-1.02597 -1.56184,-1.47163 -1.08156,-0.8446 -2.21685,-1.68668 -3.54131,-2.10019 -0.62996,-0.19668 -1.40308,-0.20489 -1.91368,0.29267 -0.32824,0.31986 -0.46437,0.81152 -0.30058,1.2619 0.17652,0.48538 0.73616,0.98785 0.45141,1.4901 -0.1841,0.32472 -0.60447,0.39216 -0.9413,0.44734 -1.27137,0.20827 -2.57394,0.19294 -3.85166,0.0545 -0.50203,-0.0544 -1.00254,-0.18359 -1.40705,-0.51784 -0.42932,-0.35475 -0.62207,-0.98915 -1.20395,-1.14818 -0.95993,-0.26235 -1.94359,0.0237 -2.88678,0.21962 -1.06199,0.22059 -2.19662,1.12482 -3.18338,0.67441 -0.36363,-0.16598 -0.56431,-0.6083 -0.81502,-0.92674 -0.34868,-0.44287 -0.84781,-0.78482 -1.4378,-0.80895 -0.65527,-0.0268 -1.42288,0.23115 -1.9709,-0.24094 -0.61946,-0.53363 -0.82272,-1.36386 -1.06864,-2.10958 -0.25008,-0.75833 -0.39708,-1.61962 -0.98617,-2.1923 -0.46033,-0.44751 -1.22925,-0.59464 -1.78456,-0.22195 -0.67916,0.45581 -1.14769,1.1377 -1.67247,1.75113 -0.78528,0.91793 -1.38594,2.09751 -1.3243,3.32852 0.0283,0.56519 0.25422,1.12462 0.68874,1.50689 0.27926,0.24568 0.5612,0.60669 0.42625,1.00207 -0.24371,0.71401 -0.93696,1.13072 -1.53855,1.51854 -0.56722,0.36566 -1.24863,0.57477 -1.73318,1.04866 -0.2797,0.27355 -0.0521,0.68435 0.14128,0.93395 0.274,0.35366 0.57263,0.71478 0.6209,1.18597 0.0649,0.63307 -0.46526,1.10547 -0.97061,1.39705 -0.34463,0.19885 -0.75663,0.26223 -1.06675,0.51858 -0.27765,0.22951 -0.43212,0.11048 -0.64089,-0.11626 -0.38151,-0.41435 -0.4015,-1.01923 -0.45678,-1.54819 -0.0376,-0.35968 -0.23619,-0.70535 -0.59369,-0.83322 -0.7551,-0.27009 -1.57104,-0.0731 -2.32181,0.0973 -0.4709,0.10691 -0.96873,0.11196 -1.42271,-0.0818 -0.93235,-0.39791 -1.79734,-1.01941 -2.3847,-1.8401 -0.49844,-0.69645 -0.74699,-1.54279 -0.89723,-2.37685 -0.0804,-0.44618 -0.0249,-0.89312 0.099,-1.33655 0.13416,-0.48022 0.45838,-0.97801 0.32612,-1.4704 -0.25247,-0.93994 -0.99059,-1.62735 -1.29808,-2.56109 -0.1387,-0.42119 -0.031,-1.13637 -0.46383,-1.2541 -0.34675,-0.0943 -0.69663,0.13246 -0.98578,0.3073 -0.55932,0.3382 -1.10117,0.69832 -1.6547,1.04929 -0.62198,0.39437 -1.36101,0.66335 -1.81673,1.27142 -0.35778,0.47739 -0.19511,1.09757 -0.0451,1.61573 0.2268,0.78328 0.12534,1.74931 -0.51889,2.29825 -0.7632,0.65031 -1.82016,0.8143 -2.79181,0.78998 -0.34598,-0.009 -0.6698,-0.0996 -0.99153,-0.26166 -0.24529,-0.12355 -0.5108,-0.44671 -0.80735,-0.25636 -0.5253,0.33718 -0.81142,0.93105 -1.04297,1.48856 -0.46134,1.11077 -0.30525,2.36278 0.0792,3.47376 0.11038,0.31901 0.36333,1.28213 0.365,0.94483 0.003,-0.5385 -0.17796,-1.0585 -0.44946,-1.52757 -0.38246,-0.66077 -1.08381,-1.08317 -1.8259,-1.20812 -0.97932,-0.1649 -1.9864,-0.13926 -2.95695,-0.35785 -0.47739,-0.10752 -1.10766,-0.10497 -1.38414,-0.53444 -0.50612,-0.78618 -0.50111,-1.85474 -1.23088,-2.50385 -0.7748,-0.68916 -1.85152,-0.74993 -2.8085,-1.0027 -0.43891,-0.11593 -0.84076,-0.34238 -1.13894,-0.70322 -0.36879,-0.44629 -0.58962,-1.14998 -1.17841,-1.29534 -0.62984,-0.15549 -1.28591,0.0198 -1.88325,0.21835 -0.97875,0.32535 -1.89661,0.81489 -2.76872,1.37862 -0.33823,0.21863 -0.45735,0.61801 -0.44646,0.99082 0.0112,0.38488 -0.27884,0.65784 -0.62599,0.7922 -1.23825,0.47924 -2.54999,0.83683 -3.89022,0.83475 -0.63292,-9.8e-4 -1.2252,-0.26102 -1.73959,-0.61554 -0.55001,-0.37907 -1.14311,-0.71615 -1.83001,-0.80305 -1.38411,-0.17511 -2.77076,0.0781 -4.15726,0.026 -1.26943,-0.0477 -2.41204,-0.67893 -3.44392,-1.39551 -0.48822,-0.33904 -0.88726,-1.64528 -1.299,-1.1995 -0.39614,0.42889 -0.71809,0.92583 -1.08575,1.38123 -0.68904,0.85348 -1.42328,1.67933 -2.28356,2.37547 -0.34256,0.2772 -0.80567,0.2893 -1.21247,0.16223 -1.34083,-0.41884 -2.45756,-1.35489 -3.8153,-1.73355 -0.4619,-0.12882 -1.05208,-0.0835 -1.32803,0.36248 -0.39847,0.64399 -0.7788,1.30117 -1.06003,2.00767 -0.24319,0.61093 -0.52526,1.29365 -1.16339,1.58823 -0.55961,0.25833 -1.19191,0.37936 -1.80145,0.333 -0.93682,-0.0712 -1.61154,-0.79428 -2.38731,-1.23507 -1.35375,-0.7692 -2.87804,-1.33406 -3.968405,-2.48409 -0.662326,-0.69857 -0.865784,-1.73582 -1.546899,-2.40096 -0.293862,-0.28697 -0.897951,-0.20777 -0.93666,-0.76624 -0.04077,-0.58816 0.153326,-1.29564 -0.295318,-1.75967 -0.50367,-0.52094 -1.330843,-0.6035 -1.993453,-0.38364 -1.109841,0.36826 -2.002814,1.18873 -2.745571,2.05899 -0.44441,0.5207 -0.823529,1.0942 -1.257694,1.62652 -0.221659,0.27177 -0.01247,1.02972 -0.278408,0.95262 -0.672775,-0.19504 -1.088487,-0.81577 -1.706301,-1.12641 -1.37169,-0.68969 -2.881227,-1.25189 -4.441009,-1.1681 -1.370462,0.0736 -2.519995,0.90137 -3.828916,1.22835 -1.406206,0.35128 -2.838284,0.58448 -4.223233,1.03557 -0.467161,0.15216 -0.972724,0.28995 -1.463262,0.11183 -1.047104,-0.38021 -1.451695,-1.61146 -2.404958,-2.09991 -0.415187,-0.21274 -0.904395,-0.22594 -1.355676,-0.31048 z"
     id="path84" />
  <path
     id="path88"
     style="fill:#6c9301;fill-opacity:1;stroke:#6c9301;stroke-width:0.264583px;stroke-linecap:butt;stroke-linejoin:miter;stroke-opacity:1"
     d="m 69.944359,121.1156 c -2.948168,-0.038 -3.537984,4.87397 0.331072,5.45006 -0.852228,4.97528 4.658081,-2.07314 4.334751,2.83696 1.894766,6.45511 11.414351,-1.28484 12.329374,6.49244 3.216178,-2.65473 7.756998,4.55868 6.381033,-1.46528 4.295699,-2.87704 10.977321,-1.99206 16.069421,0.32888 5.09712,0.73825 4.86292,-6.07519 10.07738,-5.35347 2.08164,-1.29245 6.09909,-1.81858 4.59739,-4.6137 2.63696,4.3192 9.75299,3.71981 10.48572,8.81397 2.83545,-2.47924 5.92897,4.04548 6.365,-1.6548 5.0647,0.30371 9.39074,-2.48041 14.541,-1.06275 5.2877,1.00038 11.03885,1.3557 16.38282,1.20758 5.15897,-0.55044 10.22229,-1.44369 15.50126,-2.75327 6.12898,-2.51335 11.66021,1.84653 17.88749,2.13248 5.1014,0.30372 9.76065,-7.2026 14.56861,-3.41061 3.37735,4.34305 10.28316,5.35737 14.82014,3.78481 -3.06908,-1.09794 -8.1345,-2.21014 -11.69835,-3.94637 -2.74571,-7.40202 -9.35938,-3.07188 -13.79144,0.1261 -5.75983,1.31895 -12.17253,1.84152 -17.3437,-1.53716 -2.46489,0.0396 -4.66482,0.70077 -7.13106,0.58133 -2.79877,2.95117 -7.75183,0.41444 -10.7262,4.10835 -5.89116,-0.16334 -11.57637,-0.42152 -17.33024,-2.22601 -3.74792,-0.82453 -8.44474,-6.5065 -10.12732,-0.44902 -4.95135,-0.0581 -10.40888,2.40112 -14.38164,-2.26897 -3.5247,-1.87821 -4.58631,-6.59021 -7.54075,-9.00105 4.32572,-4.65393 -5.82977,1.62207 0.15413,3.27044 3.4579,3.69606 -7.89673,-1.02714 -4.45471,4.09316 -3.30948,3.44328 -8.85072,6.24792 -14.01834,4.83412 -4.09187,-1.14189 -9.378132,2.49345 -12.296879,-1.47343 -6.122475,0.14396 -12.914615,-1.2462 -17.404075,-5.92038 -2.014152,-1.42791 -4.550429,-4.02621 -6.581887,-0.92441 z" />
  <path
     id="path93"
     style="fill:#f4e6bd;fill-opacity:1;stroke:#f4e6bd;stroke-width:0.264583px;stroke-linecap:butt;stroke-linejoin:miter;stroke-opacity:1"
     d="m 116.85131,18.60727 c -5.19794,2.88027 6.14137,1.29791 0.29565,-0.13344 l -0.29565,0.13349 z" />
  <path
     id="path97"
     style="fill:#f4e6bd;fill-opacity:1;stroke:#f4e6bd;stroke-width:0.264583px;stroke-linecap:butt;stroke-linejoin:miter;stroke-opacity:1"
     d="m 148.91958,18.14143 c -4.0728,3.12068 7.24529,1.37221 0.76339,-0.0904 z" />
  <path
     id="path101"
     style="fill:#f4e6bd;fill-opacity:1;stroke:#f4e6bd;stroke-width:0.264583px;stroke-linecap:butt;stroke-linejoin:miter;stroke-opacity:1"
     d="m 173.34668,26.37137 c -5.42552,4.66775 5.80653,0.87196 0,0 z" />
  <path
     id="path105"
     style="fill:#f4e6bd;fill-opacity:1;stroke:#f4e6bd;stroke-width:0.264583px;stroke-linecap:butt;stroke-linejoin:miter;stroke-opacity:1"
     d="m 145.00039,4.38788 c -1.71068,4.70206 6.19323,1.81152 0,0 z" />
  <path
     id="path109"
     style="fill:#f4e6bd;fill-opacity:1;stroke:#f4e6bd;stroke-width:0.264583px;stroke-linecap:butt;stroke-linejoin:miter;stroke-opacity:1"
     d="m 131.07374,7.82627 c -4.85306,1.5761 8.7537,1.56296 1.62283,-0.25435 l -0.82488,0.0254 z" />
  <path
     id="path113"
     style="fill:#f4e6bd;fill-opacity:1;stroke:#f4e6bd;stroke-width:0.264583px;stroke-linecap:butt;stroke-linejoin:miter;stroke-opacity:1"
     d="m 100.80484,13.66043 c 0.89035,3.97664 5.77827,-2.67193 0.50011,-0.39234 z" />
  <path
     id="path117"
     style="fill:#f4e6bd;fill-opacity:1;stroke:#f4e6bd;stroke-width:0.264583px;stroke-linecap:butt;stroke-linejoin:miter;stroke-opacity:1"
     d="m 78.867281,21.02524 c -7.004556,3.68934 4.379341,3.31853 0,0 z" />
  <path
     id="path121"
     style="fill:#f4e6bd;fill-opacity:1;stroke:#f4e6bd;stroke-width:0.264583px;stroke-linecap:butt;stroke-linejoin:miter;stroke-opacity:1"
     d="m 232.10225,18.60426 c -0.27543,6.39724 6.29177,-0.0747 0,0 z" />
  <path
     id="path125"
     style="fill:#f4e6bd;fill-opacity:1;stroke:#f4e6bd;stroke-width:0.264583px;stroke-linecap:butt;stroke-linejoin:miter;stroke-opacity:1"
     d="m 237.38464,29.63229 c -0.67921,5.15074 5.38661,0.84603 0,0 z" />
  <path
     id="path129"
     style="fill:#f4e6bd;fill-opacity:1;stroke:#f4e6bd;stroke-width:0.264583px;stroke-linecap:butt;stroke-linejoin:miter;stroke-opacity:1"
     d="m 210.04897,24.64109 c -6.00926,1.37861 3.27344,5.12601 0,0 z" />
  <path
     id="path133"
     style="fill:#f4e6bd;fill-opacity:1;stroke:#f4e6bd;stroke-width:0.264583px;stroke-linecap:butt;stroke-linejoin:miter;stroke-opacity:1"
     d="m 186.43528,9.91148 c -3.97134,4.59729 5.41778,1.19382 0,0 z" />
  <path
     id="path137"
     style="fill:#f4e6bd;fill-opacity:1;stroke:#f4e6bd;stroke-width:0.264583px;stroke-linecap:butt;stroke-linejoin:miter;stroke-opacity:1"
     d="m 193.70671,31.11857 c -3.21912,5.8211 5.52584,3.09361 0,0 z" />
  <path
     id="path141"
     style="fill:#f4e6bd;fill-opacity:1;stroke:#f4e6bd;stroke-width:0.264583px;stroke-linecap:butt;stroke-linejoin:miter;stroke-opacity:1"
     d="m 218.05987,34.4904 c -6.07034,2.84929 5.31835,4.7976 0,0 z" />
  <path
     id="path145"
     style="fill:#f4e6bd;fill-opacity:1;stroke:#f4e6bd;stroke-width:0.264583px;stroke-linecap:butt;stroke-linejoin:miter;stroke-opacity:1"
     d="m 196.0237,8.78014 c 2.35543,4.25432 4.67716,-1.41165 0,0 z" />
  <path
     id="path149"
     style="fill:#f4e6bd;fill-opacity:1;stroke:#f4e6bd;stroke-width:0.264583px;stroke-linecap:butt;stroke-linejoin:miter;stroke-opacity:1"
     d="m 160.40599,3.54492 c -4.52691,2.00288 6.34741,2.01352 0,0 z" />
  <path
     id="path153"
     style="fill:#f4e6bd;fill-opacity:1;stroke:#f4e6bd;stroke-width:0.264583px;stroke-linecap:butt;stroke-linejoin:miter;stroke-opacity:1"
     d="m 105.0691,26.70412 c -7.965482,2.28262 6.36683,3.27455 0,0 z" />
  <path
     id="path157"
     style="fill:#f4e6bd;fill-opacity:1;stroke:#f4e6bd;stroke-width:0.264583px;stroke-linecap:butt;stroke-linejoin:miter;stroke-opacity:1"
     d="m 71.940921,44.36191 c -5.146527,5.84885 7.179808,1.28249 0,0 z" />
  <path
     id="path195"
     style="fill:#2a0d0c;fill-opacity:1;stroke:#2a0d0c;stroke-width:0.264583px;stroke-linecap:butt;stroke-linejoin:miter;stroke-opacity:1"
     d="m 65.577091,91.0525 c -0.890839,4.67148 -0.213621,9.08154 -0.301446,13.8601 2.627674,2.32049 4.670536,-4.0697 7.787029,-0.81946 4.52656,-3.58205 10.130083,2.76093 15.403577,-1.08084 5.382846,-1.65761 12.460239,-6.1162 16.563739,-0.20879 8.99899,0.30888 17.81362,-3.34552 26.89941,-2.28913 7.44165,0.76537 14.92463,0.84425 22.37192,1.38738 6.01326,0.39989 9.95464,5.98943 16.22808,5.65101 7.16184,0.51904 13.08127,5.43573 20.56092,4.54402 6.19431,0.94282 13.20449,-5.67624 18.60229,-1.18294 4.92917,1.58887 11.31763,0.0136 15.97056,-2.24421 3.78597,-2.57629 10.84335,-2.26664 13.40616,-4.76188 -7.63005,-2.28902 -15.40506,1.36646 -23.07797,0.9381 -3.63329,-3.63919 -13.63392,2.15546 -14.04731,-4.67399 1.21172,-1.868 6.56969,-5.68857 1.00178,-4.84296 -6.34269,-0.30747 -3.47293,8.13142 -10.33735,7.70106 -5.98084,1.47056 -11.70945,-0.0887 -17.53621,-0.59291 -5.80505,2.43316 -10.47585,-1.23668 -15.52912,-3.09405 -7.23195,-0.19197 -14.29612,-1.77887 -21.48078,-2.44903 -9.11681,-0.1149 -18.38222,-0.32177 -27.31557,1.66153 -1.14797,-3.67536 10.77561,-9.01973 2.86046,-10.873 -3.54112,4.29186 -9.19344,8.40851 -15.080132,8.98974 -5.982102,0.97665 -12.010931,1.22356 -18.062326,1.60859 -5.167649,1.28055 -14.276043,4.43432 -11.972889,-4.58333 -0.500451,-1.03401 -1.344661,-3.4821 -2.914822,-2.64501 z" />
</svg>
