<?xml version="1.0" encoding="UTF-8" standalone="no"?>
<svg
   xmlns:dc="http://purl.org/dc/elements/1.1/"
   xmlns:cc="http://creativecommons.org/ns#"
   xmlns:rdf="http://www.w3.org/1999/02/22-rdf-syntax-ns#"
   xmlns:svg="http://www.w3.org/2000/svg"
   xmlns="http://www.w3.org/2000/svg"
   xmlns:sodipodi="http://sodipodi.sourceforge.net/DTD/sodipodi-0.dtd"
   xmlns:inkscape="http://www.inkscape.org/namespaces/inkscape"
   width="1200"
   height="600"
   viewBox="0 0 317.5 158.75"
   version="1.1"
   id="svg8"
   sodipodi:docname="ol-olympics.svg"
   inkscape:version="1.0.1 (3bc2e813f5, 2020-09-07)">
  <sodipodi:namedview
     pagecolor="#ffffff"
     bordercolor="#666666"
     borderopacity="1"
     objecttolerance="10"
     gridtolerance="10"
     guidetolerance="10"
     inkscape:pageopacity="0"
     inkscape:pageshadow="2"
     inkscape:window-width="1920"
     inkscape:window-height="1061"
     id="namedview27"
     showgrid="false"
     inkscape:zoom="1.4"
     inkscape:cx="600"
     inkscape:cy="300"
     inkscape:window-x="0"
     inkscape:window-y="19"
     inkscape:window-maximized="0"
     inkscape:current-layer="svg8" />
  <defs
     id="defs2" />
  <metadata
     id="metadata5">
    <rdf:RDF>
      <cc:Work
         rdf:about="">
        <dc:format>image/svg+xml</dc:format>
        <dc:type
           rdf:resource="http://purl.org/dc/dcmitype/StillImage" />
        <dc:title></dc:title>
      </cc:Work>
    </rdf:RDF>
  </metadata>
  <path
     id="path178"
     style="fill:#c8c4b7;stroke:#c8c4b7;stroke-width:0.264583px;stroke-linecap:butt;stroke-linejoin:miter;stroke-opacity:1"
     d="m 172.93522,78.44667 c 10.8834,-6.60533 16.02879,-19.00779 25.27644,-27.36685 7.98772,-8.39437 17.97655,-14.78466 24.81993,-24.28804 8.69318,-9.50378 15.16626,6.51252 6.67128,11.76233 -14.34699,10.04371 -28.30176,20.81614 -39.72471,34.20224 -6.45279,7.40307 -13.9231,13.71595 -22.10795,19.10599 -2.23329,4.13536 -11.41521,11.11662 -10.14649,1.68493 4.78585,-5.15958 10.17971,-10.03482 15.2115,-15.1006 z" />
  <path
     id="path186"
     style="fill:#ac9d93;stroke:#ac9d93;stroke-width:0.264583px;stroke-linecap:butt;stroke-linejoin:miter;stroke-opacity:1"
     d="m 221.21476,15.23268 c -1.84462,1.61639 -4.68314,3.21776 -4.36682,6.07183 0.50822,3.28094 2.98165,5.73686 4.59805,8.51709 1.9333,1.59978 3.37487,3.75008 5.2326,5.46002 1.55604,1.67349 3.90312,2.10942 5.75087,3.37024 2.25489,1.20368 4.91242,2.3603 7.49017,1.5232 2.12995,-0.88343 3.6126,-2.7785 3.77742,-5.12734 0.41852,-2.2076 -0.10193,-4.46278 -1.45533,-6.24697 -1.06483,-1.31144 -2.30556,-2.49861 -3.03639,-4.05789 -0.89877,-1.83825 -2.2807,-3.35214 -3.89954,-4.58354 -3.33079,-2.90023 -7.41152,-5.9433 -12.08481,-5.41529 -0.68456,0.0849 -1.35978,0.24756 -2.00622,0.48865 z" />
  <path
     id="path196"
     style="fill:#c8beb7;stroke:#c8beb7;stroke-width:0.264583px;stroke-linecap:butt;stroke-linejoin:miter;stroke-opacity:1"
     d="m 220.16897,15.73463 c -0.90015,4.1015 0.26834,8.59997 3.18608,11.64634 1.14553,2.59866 3.45774,4.00819 5.7005,5.52173 2.91584,1.80696 5.691,4.54838 9.37785,4.41876 2.39189,0.31402 5.29601,-1.30432 4.9346,-4.0222 -0.0813,-3.0358 -1.87835,-5.60967 -2.79903,-8.41962 -2.53214,-5.53618 -8.17503,-9.11855 -14.05675,-10.12979 -2.13505,-0.61695 -4.5811,-0.50474 -6.34325,0.98478 z" />
  <path
     id="path203"
     style="fill:#241f1c;stroke:#241f1c;stroke-width:0.264583px;stroke-linecap:butt;stroke-linejoin:miter;stroke-opacity:1"
     d="m 224.03831,25.14614 c 0.19453,1.21436 0.12081,2.74637 1.26447,3.51415 0.70606,0.5687 0.76857,1.59777 1.62581,2.03248 0.94284,0.73508 1.49529,1.8537 2.44504,2.593 0.74758,0.59867 1.81196,1.35841 2.7761,0.78161 0.80316,-0.45065 0.85861,-1.48852 1.56013,-2.04946 0.73484,-0.62151 0.24941,-1.58588 -0.33916,-2.10517 -0.91389,-0.99487 -1.82595,-1.99958 -2.84931,-2.87902 -0.76255,-0.63439 -0.49805,-1.93251 -1.52781,-2.31206 -1.01714,-0.57238 -2.25244,-0.79474 -3.35268,-0.30673 -0.55161,0.20356 -1.06585,0.49321 -1.60259,0.7312 z" />
  <path
     id="path210"
     style="fill:#917c6f;stroke:#917c6f;stroke-width:0.264583px;stroke-linecap:butt;stroke-linejoin:miter;stroke-opacity:1"
     d="m 219.8204,18.68357 c 2.82601,-2.44484 7.08032,-2.43176 10.26455,-0.70556 1.63512,0.59911 2.92919,1.54124 4.33647,2.51964 1.15634,1.02581 1.69241,2.62788 3.08163,3.47382 2.15052,1.79152 2.46718,4.79219 3.41686,7.26491 0.39149,1.75511 2.0491,4.45091 0.0324,5.70364 1.58032,-0.2408 2.59508,-1.79382 3.22167,-3.12806 0.52353,-2.10366 -0.69888,-4.23708 -1.7156,-5.91824 -1.29533,-0.91101 -1.40361,-2.76711 -1.90044,-4.17875 -0.67962,-1.6795 -1.92863,-2.72201 -3.42796,-3.82371 -1.96099,-1.92368 -3.96416,-4.10226 -6.68059,-4.88686 -1.77846,-0.14967 -3.58388,-0.19278 -5.26598,-0.86497 -1.88042,-0.63575 -4.15387,-0.005 -5.15948,1.78475 -0.75131,0.88768 -0.97318,1.78402 -0.20352,2.75939 z" />
  <path
     id="path220"
     style="fill:#ff7f2a;stroke:#ff7f2a;stroke-width:0.264583px;stroke-linecap:butt;stroke-linejoin:miter;stroke-opacity:1"
     d="m 229.58089,11.18573 c 2.48171,-1.26641 4.63515,-3.10993 6.18532,-5.4273 1.96194,-2.21415 -0.26105,1.22714 -0.31889,2.22108 -1.38804,2.36726 2.06951,-1.04817 3.08245,0.0494 2.24945,1.07992 4.91192,1.3501 6.50979,-0.9337 0.92735,-0.59148 3.24785,-2.41501 1.32782,-0.43519 -0.003,1.31679 -3.57353,3.71435 -0.51281,3.0236 2.36769,-0.53749 4.66495,2.63461 6.77566,0.24185 1.10294,-0.37562 2.89157,-2.95611 3.35428,-2.29792 -0.54115,1.51503 -0.32378,4.00939 -2.28637,4.4296 3.27159,0.26918 4.87172,-3.43247 7.95854,-3.78059 2.38388,-0.10318 4.4118,-1.31066 6.0453,-2.97494 0.90455,-0.48601 2.26566,-2.27236 2.56919,-2.34295 -0.93158,1.29361 -1.58507,3.21362 -2.64229,4.11711 1.99559,-0.91588 4.16952,-0.89352 6.30906,-1.19994 -0.17499,0.42991 -3.41571,2.19378 -4.34224,2.9324 3.04768,0.16876 6.05311,-0.46377 9.06267,-0.82721 0.86064,-0.2225 3.68683,-1.00932 1.32218,-0.25734 -2.23609,1.76245 -5.15831,2.0674 -7.81004,2.86144 -2.67691,0.53196 -5.75703,0.20223 -7.7848,2.41735 -1.85111,2.03356 -4.59815,0.85981 -6.83281,1.40405 -1.09826,0.80732 -2.98168,2.84047 -0.26051,2.7351 1.18724,0.1935 3.71235,-0.11811 4.21374,-0.49526 -2.72456,-0.0723 -4.47282,2.90667 -7.30721,2.71061 -3.91823,0.60346 -7.76975,-1.51254 -11.66031,-0.73306 -2.13719,0.98131 -2.92585,3.62749 -2.51845,5.80761 -0.40511,2.65989 -3.74273,1.73999 -5.42117,2.97797 -0.91231,1.36694 1.85263,4.52855 -1.31042,4.55369 -1.47405,-1.56567 -1.60389,-4.52625 -4.04241,-5.11269 -2.45337,-0.27248 -4.78882,-2.14709 -4.75666,-4.77527 0.12183,-2.69909 -1.15195,-5.14396 -1.4098,-7.76695 -0.0955,-1.29476 0.96554,-3.31202 1.54981,-0.94192 1.26615,3.58401 3.51499,-1.39756 4.95138,-2.18068 z" />
  <path
     id="path226"
     style="fill:#ffdd55;stroke:#ffdd55;stroke-width:0.264583px;stroke-linecap:butt;stroke-linejoin:miter;stroke-opacity:1"
     d="m 229.16257,19.71883 c -1.204,0.89008 -1.29224,2.62294 -0.50538,3.81667 0.77666,1.7166 3.17722,1.91475 4.26861,0.39024 1.09029,-1.52444 2.07723,-3.07728 3.18247,-4.57781 0.75054,-1.27532 1.81509,-2.39798 3.32569,-2.69657 3.44985,-1.11863 7.17399,0.81572 10.58081,-0.6171 0.57174,-0.12716 2.20636,-1.16753 0.73478,-0.76568 -1.12237,0.0703 -3.04084,0.24146 -3.62578,-0.63316 0.43144,-0.55206 2.80734,-1.89741 0.91284,-2.01238 -2.98706,-0.23826 -5.95226,0.54015 -8.94243,0.26796 -1.85787,0.0534 -3.76316,0.16102 -5.50489,0.83686 -0.35954,-0.49961 1.34635,-2.40412 0.89317,-2.8622 -1.54083,0.40483 -2.45788,1.86814 -3.73824,2.72031 -0.97711,0.7658 -2.72329,1.95686 -1.50106,3.28517 0.55613,0.86308 -0.0754,1.91241 -0.0806,2.84769 z" />
  <path
     id="path232"
     style="fill:#dea378;fill-opacity:1;stroke:#dea378;stroke-width:0.264583px;stroke-linecap:butt;stroke-linejoin:miter;stroke-opacity:1"
     d="m 53.57939,44.02808 c -3.314523,2.52533 -2.07509,7.43086 -1.850109,11.0101 1.108384,6.43475 5.786087,12.92275 2.645567,19.50357 -2.317093,4.19256 -2.837509,8.99123 -4.677543,13.34643 -0.707549,4.48688 3.662789,8.07978 5.513131,12.01011 4.181008,6.6172 8.973121,12.81679 13.812105,18.94416 2.54632,2.91338 3.086079,12.22429 8.420241,8.65462 3.204911,-4.61456 5.844066,-9.71279 9.020069,-14.39969 2.701493,-5.63489 -1.206482,-11.43776 -3.640149,-16.4188 C 78.454656,90.37296 76.902777,82.5079 76.28425,74.98515 75.381601,70.12279 78.836518,64.71379 79.599655,61.13772 75.60884,60.33016 73.363267,55.87894 70.505755,53.19122 66.50598,48.91771 61.192761,45.86448 55.725018,43.92721 l -1.066473,-0.0688 z" />
  <path
     style="fill:#000000;stroke:#000000;stroke-width:0.264583px;stroke-linecap:butt;stroke-linejoin:miter;stroke-opacity:1"
     d="m 45.395944,42.85237 c -0.319631,0.9149 -0.524593,1.87172 -0.590366,2.83877 -0.05816,0.85511 -0.0091,1.72755 0.241107,2.55177 0.249038,0.82023 0.636794,1.59773 0.804623,2.44187 0.215399,1.08341 0.288737,2.19405 0.588256,3.26089 0.0803,0.28603 0.189594,0.56253 0.300472,0.83796 0.525636,1.30574 0.893553,2.67511 1.524254,3.93791 0.282427,0.56548 0.632213,1.09694 1.043884,1.57814 1.278093,1.49394 2.347152,3.14959 3.576288,4.68217 0.449348,0.56028 0.870288,1.14718 1.370649,1.66234 0.109326,0.11256 0.293424,0.10101 0.397831,0.22006 0.180945,0.20633 0.288553,0.46197 0.433608,0.69219 0.106618,0.16922 0.261894,0.30896 0.448198,0.38477 0.191375,0.0779 0.408161,0.1193 0.610652,0.058 0.233011,-0.0705 0.409548,-0.25304 0.553084,-0.44183 0.29351,-0.38605 0.486693,-0.84982 0.53634,-1.33392 0.05985,-0.58361 -0.07343,-1.1659 -0.247219,-1.71952 -0.243794,-0.77664 -0.563869,-1.5315 -0.719279,-2.3346 -0.16142,-0.83416 -0.285364,-1.67524 -0.452355,-2.50828 -0.26808,-1.33732 -0.765285,-2.62147 -0.959521,-3.97466 -0.08229,-0.5733 -0.08646,-1.16016 -0.239906,-1.72126 -0.101091,-0.36966 -0.259324,-0.72465 -0.302513,-1.10992 -0.0749,-0.66812 -0.218721,-1.33139 -0.211125,-2.00658 0.0025,-0.22577 0.03579,-0.44992 0.08829,-0.6698 0.145678,-0.61007 0.291313,-1.22178 0.377535,-1.8433 0.03063,-0.22082 0.07793,-0.44456 0.05415,-0.6671 -0.0176,-0.16465 -0.06601,-0.32456 -0.117633,-0.48128 -0.126059,-0.38269 -0.31431,-0.74092 -0.459912,-1.11587 -0.133148,-0.34288 -0.195051,-0.70732 -0.296457,-1.0598 -0.08546,-0.29705 -0.186175,-0.60318 -0.39269,-0.83912 -0.10829,-0.12372 -0.237774,-0.22652 -0.361258,-0.33433 -0.757806,-0.66161 -1.567245,-1.28268 -2.486266,-1.7048 -0.71313,-0.32755 -1.493107,-0.50917 -2.278368,-0.52246 -0.446781,-0.008 -0.90591,-0.014 -1.333179,0.11628 -0.161325,0.0492 -0.30219,0.14667 -0.43748,0.24431 -0.363134,0.26209 -0.685622,0.57464 -1.03277,0.85651 -0.01021,0.008 -0.02049,0.0165 -0.03092,0.0245 z"
     id="path242" />
  <path
     id="path246"
     style="fill:#f1be90;fill-opacity:1;stroke:#f1be90;stroke-width:0.264583px;stroke-linecap:butt;stroke-linejoin:miter;stroke-opacity:1"
     d="m 51.533529,49.2633 c -0.492514,3.05009 1.616142,5.78327 3.660653,7.789 1.392184,1.25803 3.237114,1.47962 5.038047,1.25157 2.661672,-0.65915 4.472582,1.49164 6.306789,3.01811 1.861955,1.58855 4.002316,2.68916 6.101157,3.89909 3.938893,1.65939 8.180469,-0.47761 12.241751,0.35407 2.286372,0.98571 3.685078,-0.95633 3.048673,-3.05533 -0.09882,-1.75208 1.627525,-3.00896 1.415855,-4.83314 0.22614,-2.14474 -0.1702,-4.29857 -0.0182,-6.43584 0.82646,-1.16977 3.58887,-2.12498 1.57435,-3.78472 -1.46338,-1.35123 -3.039041,-2.59375 -4.09316,-4.33126 -1.777839,-1.50586 0.132063,-3.43299 -0.105462,-5.177 -0.995732,-3.41219 -2.779642,-6.73864 -5.650145,-8.93379 -1.627762,-1.4505 -3.994387,-1.46696 -6.043341,-1.83384 -4.485664,-0.36521 -9.089546,-0.18779 -13.432366,1.0586 -1.833134,1.06367 -4.108583,1.37768 -5.68098,2.84574 -1.492217,1.70654 -3.309084,3.92356 -2.476957,6.34175 0.396335,2.16986 0.770069,4.36689 2.098658,6.19945 0.523205,1.0302 0.825285,2.57078 -0.862159,1.74231 -2.341048,-0.70398 -2.964531,2.2333 -3.123203,3.88523 z" />
  <path
     id="path255"
     style="fill:#683922;fill-opacity:1;stroke:#683922;stroke-width:0.264583px;stroke-linecap:butt;stroke-linejoin:miter;stroke-opacity:1"
     d="m 80.89042,55.91824 c 1.058719,0.36082 2.21316,0.41276 3.315793,0.2692 0.533045,-0.0468 0.924563,-0.54703 1.486308,-0.42139 1.157889,-0.0229 2.405183,-0.16966 3.463973,0.41038 0.43594,0.25399 0.68751,0.79716 0.59237,1.28838 -0.17876,0.42707 -0.73113,0.66779 -1.16405,0.48222 -0.852521,-0.25858 -1.687307,-0.63043 -2.580431,-0.71744 -1.410372,-0.0888 -2.83404,0.004 -4.235443,-0.19993 -0.513483,-0.13863 -0.743863,-0.64484 -0.87852,-1.11142 z" />
  <path
     id="path261"
     style="fill:#1a1a1a;stroke:#1a1a1a;stroke-width:0.264583px;stroke-linecap:butt;stroke-linejoin:miter;stroke-opacity:1"
     d="m 84.828724,39.22019 c 0.499159,0.18247 0.985933,0.39949 1.493073,0.55937 0.249331,0.0693 0.520499,0.14386 0.777038,0.0724 0.142555,-0.0618 0.239599,-0.22609 0.267396,-0.36618 -0.117638,-0.0997 -0.285631,-0.12024 -0.435036,-0.14166 -0.233635,-0.0294 -0.494526,-0.008 -0.688253,-0.167 -0.194984,-0.13513 -0.378453,-0.36362 -0.641241,-0.32821 -0.274323,0.0823 -0.516459,0.24712 -0.772977,0.37132 z" />
  <path
     id="path267"
     style="fill:#1a1a1a;stroke:#1a1a1a;stroke-width:0.264583px;stroke-linecap:butt;stroke-linejoin:miter;stroke-opacity:1"
     d="m 73.446442,40.19039 c 1.879804,-0.51888 3.695734,-1.48618 5.695123,-1.39652 0.612807,0.0305 1.267101,0.11277 1.781837,0.47106 0.337811,0.22207 0.245284,0.81409 -0.204831,0.78946 -0.834184,0.0147 -1.610105,-0.36917 -2.438175,-0.42218 -1.174891,-0.16238 -2.425385,-0.28682 -3.546318,0.19335 -0.41961,0.15126 -0.842238,0.31021 -1.287636,0.36483 z" />
  <path
     id="path273"
     style="fill:#1a1a1a;stroke:#1a1a1a;stroke-width:0.264583px;stroke-linecap:butt;stroke-linejoin:miter;stroke-opacity:1"
     d="m 75.856347,44.91298 c 0.322212,-0.34054 0.729825,-0.61376 1.20923,-0.6431 0.693693,-0.19995 1.105441,-0.91296 1.808967,-1.08406 0.564589,-0.0308 1.038491,0.41203 1.30996,0.86489 0.215446,0.32275 0.253854,1.047 -0.263526,1.0704 -0.688289,-0.031 -1.256545,-0.5228 -1.942428,-0.55525 -0.72266,-0.0197 -1.431434,0.15349 -2.122203,0.34712 z" />
  <path
     id="path280"
     style="fill:#1a1a1a;stroke:#1a1a1a;stroke-width:0.264583px;stroke-linecap:butt;stroke-linejoin:miter;stroke-opacity:1"
     d="m 51.508885,21.91148 c -2.389694,2.89327 -6.472801,3.40474 -9.072544,6.05444 -1.652349,1.06626 -3.032008,2.58886 -3.356808,4.58969 -0.926914,2.72969 -2.247887,5.37153 -2.414125,8.30595 -0.397505,2.75628 1.157081,5.23581 1.25991,7.95032 0.333472,2.34987 0.381295,5.04577 2.051921,6.89663 1.742068,1.25661 4.089674,1.47653 6.174508,1.74277 3.495998,0.0876 1.075373,-3.63686 1.182456,-5.59994 -0.784293,-4.78527 -1.145197,-9.93626 0.975672,-14.44761 1.284103,-1.79736 1.875633,-4.07073 3.637404,-5.51461 1.725628,-2.11339 4.287257,-3.13965 6.481108,-4.56012 C 59.98237,25.76141 58.260323,23.99666 57.03458,22.93757 55.658551,21.2288 53.448253,20.6702 51.508885,21.91148 Z" />
  <path
     id="path286"
     style="fill:#000000;stroke:#000000;stroke-width:0.264583px;stroke-linecap:butt;stroke-linejoin:miter;stroke-opacity:1"
     d="m 45.420593,41.92068 c -1.102214,2.43849 -0.212893,5.18351 -0.504344,7.75057 0.718711,2.94831 1.234431,6.31331 3.607211,8.4419 2.565779,0.51938 1.319553,-4.13251 1.098367,-5.89298 -0.500932,-2.18947 -0.912374,-4.63926 0.02705,-6.75701 1.892462,-1.39531 4.704146,0.29229 6.319425,1.60132 1.567721,1.39679 4.87368,3.08668 6.469289,1.13698 0.532087,-2.55657 -0.417672,-5.24263 0.482937,-7.81789 0.124565,-2.8948 2.692737,-4.88613 2.71546,-7.75404 0.542553,-2.59976 3.963938,-2.46655 5.914893,-3.66266 3.045525,-0.86474 6.197926,0.14392 9.261324,0.15452 -0.269913,-2.83666 -3.656502,-5.08254 -6.550336,-5.29204 -4.048916,-0.68024 -8.212743,-1.31675 -12.310476,-0.80259 -3.211312,0.78224 -6.451023,2.05078 -8.730542,4.52607 -2.11338,2.09942 -3.713849,4.64524 -5.617357,6.93392 -1.490143,2.17571 -1.780061,4.89645 -2.182897,7.43393 z" />
  <path
     id="path292"
     style="fill:#c8c4b7;stroke:#c8c4b7;stroke-width:0.264583px;stroke-linecap:butt;stroke-linejoin:miter;stroke-opacity:1"
     d="m 51.38564,85.84331 c 3.943666,-3.1859 9.111829,-4.03522 13.95615,-4.97381 3.84712,-0.61335 7.966168,-0.64288 11.321534,1.65233 2.097439,0.61408 5.924175,6.23379 1.48454,4.17347 -2.304315,-4.78718 -7.413024,-3.34847 -10.725439,-0.70606 -4.135758,1.48064 -5.47929,5.93203 -4.60979,9.9351 0.55189,4.40101 0.658756,9.31971 3.906714,12.72386 2.867497,4.15659 4.853512,8.96703 8.829085,12.28318 3.411575,2.24102 2.630067,6.65777 3.482851,10.08868 0.192567,4.94629 0.225268,9.90594 0.723395,14.82547 -0.560865,2.91115 -1.214665,7.76425 -4.924861,7.94074 -5.401294,-1.05616 -10.967213,-0.63994 -16.235624,0.95821 -2.166802,0.27863 -6.508094,3.01517 -4.355008,-1.237 0.928452,-4.09586 0.105004,-8.51565 -0.941617,-12.55059 -2.695175,-5.93034 -4.641864,-12.17794 -5.735366,-18.60382 -0.625178,-5.47618 -1.886817,-10.8903 -4.248198,-15.89578 -1.892646,-5.5989 -0.426479,-11.97371 2.957834,-16.671 1.395379,-1.66372 3.225599,-2.9048 5.1138,-3.94298 z" />
  <path
     id="path298"
     style="fill:#c8c4b7;fill-opacity:1;stroke:#c8c4b7;stroke-width:0.264583px;stroke-linecap:butt;stroke-linejoin:miter;stroke-opacity:1"
     d="m 76.798697,119.98317 c -1.67584,4.41955 -0.755573,9.28119 -1.621271,13.85437 0.01308,4.74564 1.646344,9.33343 1.496445,14.09303 0.760941,4.30176 5.964211,3.27222 9.160381,3.27 3.872512,-0.31362 7.842112,-0.4693 11.583282,0.77998 4.013376,-0.10257 0.59996,-5.93162 1.27808,-8.54644 -0.33285,-4.60558 1.20546,-9.06578 2.864756,-13.27921 1.05206,-4.81205 4.17001,-9.49837 2.85986,-14.57475 -2.43765,-6.46253 -9.119686,-9.90707 -12.486126,-15.79459 -2.95664,-4.08106 -6.852834,-8.0043 -11.937951,-9.15513 -2.580059,2.10766 1.180759,5.88324 0.418789,8.86249 0.367944,3.92901 1.101936,7.99326 -0.572934,11.7666 -1.516867,2.76707 -1.953771,5.82201 -3.043311,8.72365 z" />
  <path
     id="path304"
     style="fill:#aca793;stroke:#aca793;stroke-width:0.264583px;stroke-linecap:butt;stroke-linejoin:miter;stroke-opacity:1"
     d="m 53.530096,143.00927 c 0.574106,2.38106 -3.527069,5.06511 -0.395738,6.63345 -1.114397,3.71986 3.638532,1.36716 5.662555,1.25415 3.876808,-0.85035 7.895098,-0.57009 11.815228,-1.1843 5.768692,-0.52998 11.285611,-2.40587 16.985152,-3.30921 3.692191,-0.30174 7.527111,-0.50752 11.115961,0.57828 0.0333,-1.94735 0.61224,-3.94193 1.248,-5.83152 -1.80496,-1.14389 -4.27429,0.0765 -6.24495,0.43028 -4.34724,1.51077 -8.971754,1.7026 -13.530793,1.64275 -3.334755,0.459 -6.674669,-1.68969 -9.932347,-0.25718 -3.163655,0.78851 -6.272419,1.9575 -9.511085,2.35753 -2.70612,0.26527 -4.717252,-1.75554 -7.211983,-2.31423 z" />
  <path
     id="path310"
     style="fill:#f1be90;fill-opacity:1;stroke:#f1be90;stroke-width:0.264583px;stroke-linecap:butt;stroke-linejoin:miter;stroke-opacity:1"
     d="m 65.262993,88.50528 c -4.680956,2.98394 -1.629388,10.68345 -0.349128,15.09926 3.580105,5.61232 11.151778,5.28576 17.039327,5.25692 6.939902,-0.44069 13.977102,-1.30786 20.380588,-4.15494 7.16957,-2.36157 14.39189,-4.55152 21.33059,-7.56167 5.886,0.2097 10.05336,-3.54499 14.68675,-6.47441 4.12031,-2.22219 8.20888,-4.52247 12.01471,-7.26529 4.75725,-2.58361 9.8385,-4.49971 14.5552,-7.19684 3.6522,-2.54979 7.07349,-4.67106 11.05885,-1.68666 4.0638,0.23796 7.93873,5.8418 11.81242,2.17652 3.44462,0.094 4.04948,-4.4596 7.28001,-5.72317 -0.57752,-3.94258 -2.40012,-9.83779 -6.50622,-11.36125 -4.79965,0.50374 -9.65101,0.96805 -14.47071,1.74258 -4.78565,0.31079 -9.11186,2.64104 -13.68216,3.91783 -4.72023,2.58117 -9.8726,4.17361 -14.82612,6.21192 -6.29681,1.6053 -13.70362,0.28494 -18.85308,5.07881 -3.84092,3.25213 -8.59729,6.05347 -13.77705,6.16554 -4.72332,0.31231 -9.26739,1.6272 -13.889366,2.45768 -5.4879,1.27612 -11.274496,0.66411 -16.624589,-1.03782 -5.717177,-0.89433 -11.373247,0.62919 -16.226613,3.64686 l -0.7002,0.47584 -0.253239,0.23226 z" />
  <path
     id="path319"
     style="fill:#dea378;fill-opacity:1;stroke:#dea378;stroke-width:0.264583px;stroke-linecap:butt;stroke-linejoin:miter;stroke-opacity:1"
     d="m 56.682085,50.80883 c -0.40086,0.15076 -0.664477,0.54645 -0.673969,0.97065 -0.07096,0.31844 -0.125556,0.75172 0.215133,0.93603 0.261392,0.19044 0.503235,0.41118 0.813317,0.52265 0.629937,0.268 1.319309,0.3327 1.993506,0.40044 0.27416,-0.2493 -0.19904,-0.56853 -0.459178,-0.56574 -0.588972,-0.16591 -1.266826,-0.24093 -1.707724,-0.70991 -0.274375,-0.26261 0.02661,-0.52814 0.236244,-0.69306 0.210608,-0.25275 -0.08188,-0.54008 -0.260821,-0.71274 -0.05218,-0.0494 -0.10544,-0.0979 -0.156508,-0.14832 z" />
</svg>
