<?xml version="1.0" encoding="UTF-8" standalone="no"?>
<svg
   xmlns:dc="http://purl.org/dc/elements/1.1/"
   xmlns:cc="http://creativecommons.org/ns#"
   xmlns:rdf="http://www.w3.org/1999/02/22-rdf-syntax-ns#"
   xmlns:svg="http://www.w3.org/2000/svg"
   xmlns="http://www.w3.org/2000/svg"
   xmlns:sodipodi="http://sodipodi.sourceforge.net/DTD/sodipodi-0.dtd"
   xmlns:inkscape="http://www.inkscape.org/namespaces/inkscape"
   width="1200"
   height="600"
   viewBox="0 0 317.5 158.75"
   version="1.1"
   id="svg8"
   sodipodi:docname="ol-rembrandt.svg"
   inkscape:version="1.0.1 (3bc2e813f5, 2020-09-07)">
  <sodipodi:namedview
     pagecolor="#ffffff"
     bordercolor="#666666"
     borderopacity="1"
     objecttolerance="10"
     gridtolerance="10"
     guidetolerance="10"
     inkscape:pageopacity="0"
     inkscape:pageshadow="2"
     inkscape:window-width="1920"
     inkscape:window-height="1061"
     id="namedview36"
     showgrid="false"
     inkscape:zoom="1.4"
     inkscape:cx="600"
     inkscape:cy="300"
     inkscape:window-x="0"
     inkscape:window-y="19"
     inkscape:window-maximized="0"
     inkscape:current-layer="svg8" />
  <defs
     id="defs2" />
  <metadata
     id="metadata5">
    <rdf:RDF>
      <cc:Work
         rdf:about="">
        <dc:format>image/svg+xml</dc:format>
        <dc:type
           rdf:resource="http://purl.org/dc/dcmitype/StillImage" />
        <dc:title></dc:title>
      </cc:Work>
    </rdf:RDF>
  </metadata>
  <path
     id="path158"
     style="fill:#a5927a;fill-opacity:1;stroke:#a5927a;stroke-width:0.264583px;stroke-linecap:butt;stroke-linejoin:miter;stroke-opacity:1"
     d="m 202.35471,49.63514 c 0.2342,2.98524 1.22721,5.89312 0.87917,8.92198 0.16303,4.32686 0.30068,8.69463 -0.70768,12.93942 -0.27327,3.55234 0.21452,7.19575 -1.01825,10.61836 -0.97263,3.39419 2.03078,6.0232 2.69144,9.16215 1.19354,3.98631 1.24061,8.28613 -0.15929,12.22337 -1.02834,2.07826 -0.47616,5.09545 2.2633,3.37753 3.62867,-1.87584 7.4878,-4.24991 9.27645,-8.0936 1.26337,-3.05817 1.42757,-6.44373 1.00987,-9.67215 1.13232,-2.51469 3.53831,-4.33464 3.70547,-7.32846 0.89367,-3.17014 0.87185,-6.72991 -1.18927,-9.45916 -2.18432,-2.9086 0.78873,-5.75367 0.92284,-8.734 -0.23355,-3.13222 -2.73145,-5.58053 -4.79904,-7.74704 -2.92596,-2.44739 -3.66931,-7.23249 -7.82128,-8.24804 -2.0407,-0.94175 -4.66276,-0.55565 -5.05373,2.03964 z" />
  <path
     id="path164"
     style="fill:#1c1815;fill-opacity:1;stroke:#1c1815;stroke-width:0.264583px;stroke-linecap:butt;stroke-linejoin:miter;stroke-opacity:1"
     d="m 189.09359,130.7589 c 0.56798,-1.89743 1.45018,-5.01388 3.96835,-4.65574 2.34657,0.7619 4.04928,2.74593 5.92851,4.26113 1.53945,1.5488 3.6173,2.32683 5.63575,3.01809 2.54004,0.39993 5.57652,0.30031 7.28883,2.59243 1.47665,2.58331 3.63401,4.70685 4.96835,7.38136 0.72538,1.83069 2.17694,3.14485 3.6792,4.34035 1.5797,1.23658 3.03045,4.99792 -0.29048,4.40829 -2.05315,0.0703 -4.0301,-1.35443 -6.04238,-0.38242 -2.71803,0.93299 -5.72724,0.66904 -8.37133,1.91102 -2.36273,0.0787 -5.17034,1.43175 -7.15418,-0.46378 -2.40142,-2.4601 -2.11933,-6.25906 -3.98239,-9.05061 -1.67886,-4.52868 -2.91798,-9.29385 -5.62823,-13.36012 z" />
  <path
     id="path170"
     style="fill:#e2ab8b;fill-opacity:1;stroke:#e2ab8b;stroke-width:0.264583px;stroke-linecap:butt;stroke-linejoin:miter;stroke-opacity:1"
     d="m 128.38323,92.11587 c 5.40085,-1.76723 9.41499,3.46739 12.00084,7.42071 3.91316,5.16815 4.40428,12.01398 8.2273,17.26963 5.85292,6.60032 14.85563,8.81501 22.59749,12.40318 5.43348,1.26591 10.30257,4.78728 15.98051,4.80925 5.12862,-1.38045 3.1148,7.30595 5.98135,9.9607 1.18027,3.24423 4.43052,9.60258 -0.48976,10.9166 -4.93703,0.6495 -7.85062,-4.32736 -11.76402,-6.41695 -5.25227,-2.88141 -9.92421,-6.75904 -13.51452,-11.57892 -5.78842,-5.06554 -13.45239,-7.342 -19.28227,-12.3914 -3.84713,-3.13445 -6.72786,-7.21725 -10.62854,-10.31473 -3.74343,-4.15677 -9.67001,-5.78291 -13.12684,-10.16414 -0.83569,-3.65485 2.19213,-8.71506 3.54733,-11.02843 0.65018,0.30435 0.87249,-0.43281 0.47113,-0.8855 z" />
  <path
     id="path176"
     style="fill:#1c1815;fill-opacity:1;stroke:#1c1815;stroke-width:0.264583px;stroke-linecap:butt;stroke-linejoin:miter;stroke-opacity:1"
     d="m 129.39384,112.8793 c 5.67389,2.29538 10.62326,6.07347 14.71189,10.56259 5.12565,3.19835 9.29735,7.51197 14.08193,11.12886 5.88355,3.8882 9.72012,10.5626 16.49727,13.12924 3.30515,1.97399 10.24046,7.80887 2.06579,6.73339 -7.22103,0.15799 -13.66473,-3.70359 -20.6996,-4.80536 -6.75228,-1.56014 -13.64591,2.4543 -20.38875,0.2935 -9.11002,-2.89692 -18.69852,-1.38118 -27.93785,-0.0867 -5.86364,0.94357 -11.814136,1.48433 -17.647983,0.0713 -1.94632,-0.44813 -6.032282,-0.62532 -1.964607,-2.05237 4.809863,-4.09648 7.138658,-11.09312 13.48666,-13.38776 4.83369,-3.36591 11.16126,-5.95028 12.81313,-12.2003 1.74422,-5.06143 5.08656,-9.91825 9.75147,-12.63069 2.57622,-1.15115 3.99812,1.52853 5.23065,3.24439 z" />
  <path
     id="path194"
     style="fill:#ded0b9;fill-opacity:1;stroke:#ded0b9;stroke-width:0.264583px;stroke-linecap:butt;stroke-linejoin:miter;stroke-opacity:1"
     d="m 137.05965,119.73389 c 2.76482,2.22796 5.28118,4.75574 8.38716,6.52811 2.94572,2.66703 6.13397,5.01498 9.04159,7.70415 3.20529,2.57979 7.07255,4.29113 9.80188,7.46078 4.5929,5.05161 11.02486,7.79048 16.09642,12.27838 4.44288,2.96297 9.9466,4.33797 15.23707,3.35382 3.28942,0.17704 7.1787,-2.04097 4.51978,-5.57961 -1.63186,-4.0153 -3.34236,-8.00005 -4.49451,-12.18686 -1.59399,-2.68334 -3.00636,-6.00899 -5.54291,-7.82928 -4.2046,1.3492 -0.72384,6.08734 -0.10735,8.80023 0.51281,3.74258 2.0544,7.28895 2.14089,11.10209 1.10808,3.98046 -2.24731,-0.1684 -3.81891,-0.57265 -3.97742,-2.5972 -8.27456,-4.80836 -11.54505,-8.33388 -2.58803,-2.4806 -5.79495,-4.16369 -8.37231,-6.66922 -3.99277,-2.9134 -8.16794,-5.68924 -12.85841,-7.37616 -3.57684,-2.44217 -7.4597,-4.59462 -10.18937,-8.06045 -2.11483,-2.63383 -4.40034,-5.15875 -7.24748,-7.01386 -2.57214,-2.4553 -4.69082,-6.08611 -8.47817,-6.6872 -3.36129,0.89649 -0.73587,5.88935 0.12453,8.13335 1.86179,2.41335 5.48032,2.27431 7.30515,4.94826 z" />
  <path
     id="path200"
     style="fill:#716452;fill-opacity:1;stroke:#716452;stroke-width:0.264583px;stroke-linecap:butt;stroke-linejoin:miter;stroke-opacity:1"
     d="m 124.48869,75.70033 c 3.37272,1.47131 4.71541,5.19927 7.14956,7.70078 0.63771,2.12421 -0.79452,4.93705 1.99454,6.08907 2.48075,2.41285 1.38,6.18813 0.17963,8.9534 -1.60324,2.80305 0.15593,6.52782 -1.89961,9.01977 -3.03043,0.60344 -1.64242,4.88312 -4.02909,5.57384 -2.30051,-0.55259 -3.19584,2.36165 -4.45817,3.71606 -1.99603,2.42449 -3.70992,-1.04312 -2.75056,-2.99162 0.72447,-2.18588 -0.73241,-3.95837 -2.01235,-5.53611 -1.50539,-2.50535 0.15237,-5.3989 0.51956,-7.9969 0.91667,-4.02164 -0.0129,-8.15254 0.56089,-12.20478 0.0975,-3.18804 -1.29443,-6.28405 -0.95261,-9.46632 0.72324,-2.68477 3.93279,-0.94453 5.19361,-2.92872 z" />
  <path
     id="path206"
     style="fill:#9a6650;fill-opacity:1;stroke:#9a6650;stroke-width:0.264583px;stroke-linecap:butt;stroke-linejoin:miter;stroke-opacity:1"
     d="m 139.35201,96.48595 c 0.0393,4.34304 1.34094,8.65527 2.48489,12.77369 0.834,3.03398 1.646,6.11439 3.67879,8.60474 2.31308,3.88647 6.05539,6.60012 9.27809,9.68222 3.9404,1.04729 7.90561,2.23642 11.21898,4.71423 3.86821,2.39406 8.7292,1.81059 12.81591,3.70043 3.28563,1.21475 7.92762,1.57847 9.76842,-2.09412 2.37202,-2.34957 4.50251,-4.75233 6.05602,-7.68371 1.99833,-2.39619 4.86716,-4.94742 4.34562,-8.39213 -1.59432,-1.49701 -4.25577,2.47969 -6.64411,2.80113 -4.3267,3.2244 -9.88989,1.22573 -14.80081,2.11571 -5.69842,1.15894 -11.39146,-2.11097 -14.59401,-6.71021 -3.14169,-3.36915 -6.75226,-6.32129 -9.72441,-9.82329 -3.1165,-1.7054 -5.43915,-4.30332 -7.67368,-6.95306 -1.26318,-1.58801 -4.31862,-5.86972 -6.2097,-2.73563 z" />
  <path
     id="path212"
     style="fill:#e2ab8b;fill-opacity:1;stroke:#e2ab8b;stroke-width:0.264583px;stroke-linecap:butt;stroke-linejoin:miter;stroke-opacity:1"
     d="m 145.88398,37.94462 c -4.52896,0.34711 -6.11551,5.20011 -7.08974,8.91314 -1.84013,4.90922 -1.61602,10.24977 -3.23146,15.20016 -0.82938,4.07719 1.11378,8.15449 0.20654,12.18472 -2.9856,2.42482 -8.47327,3.01682 -7.68576,8.34636 -0.13011,5.22559 1.84016,10.30709 4.13627,14.88496 2.23163,4.5625 8.39444,-0.43863 9.31418,5.11878 2.79745,3.86221 4.49011,8.5974 8.51421,11.47296 3.3123,3.22188 7.18098,5.68026 11.40006,7.6132 4.10998,2.89825 8.37341,5.763 13.17983,7.46673 4.89229,2.54976 10.66148,0.57881 15.64995,-0.73145 3.17576,-2.16644 4.87919,-5.94033 8.19596,-8.15677 3.76364,-4.05219 3.97299,-9.78274 5.45869,-14.81342 0.72185,-4.76368 3.0351,-9.48358 2.1092,-14.43512 -0.67438,-3.89135 -0.004,-7.96573 -1.65316,-11.67284 -1.10531,-3.94073 1.34924,-7.7336 0.9607,-11.77466 0.66229,-5.04681 0.9382,-10.15219 1.10729,-15.23227 -0.34741,-6.67916 -6.20496,-11.6565 -12.24653,-13.50853 -6.10433,-2.4744 -12.81924,-2.5025 -19.10509,-4.35659 -8.41535,-1.753 -17.20562,-0.88872 -25.5368,0.85957 -1.43709,0.51653 -2.72484,1.43253 -3.68434,2.62107 z" />
  <path
     id="path217"
     style="fill:#9a6650;fill-opacity:1;stroke:#9a6650;stroke-width:0.264583px;stroke-linecap:butt;stroke-linejoin:miter;stroke-opacity:1"
     d="m 132.42566,80.29225 c -0.83514,1.26277 -1.2591,3.06606 -0.34403,4.39871 0.70869,0.97011 1.96963,1.22132 3.09889,1.27128 1.03646,0.0583 2.21533,0.27521 2.83083,1.20796 0.52436,0.7533 0.71594,1.67346 1.12726,2.48097 0.2416,0.73762 0.32462,-0.55672 0.31533,-0.81635 -0.0484,-1.98223 -0.25249,-3.98061 -0.78971,-5.89393 -0.36183,-1.17166 -1.0852,-2.32154 -2.25026,-2.82139 -0.45682,-0.39865 -1.04431,-0.5672 -1.64266,-0.46054 -0.81182,0.0844 -1.56139,0.43281 -2.34565,0.63329 z" />
  <path
     id="path223"
     style="fill:#9a6650;fill-opacity:1;stroke:#9a6650;stroke-width:0.264583px;stroke-linecap:butt;stroke-linejoin:miter;stroke-opacity:1"
     d="m 178.91357,76.45456 c 1.03392,-1.46371 2.95936,-1.75915 4.41509,-0.77331 1.66826,0.89618 2.49365,2.6836 3.03002,4.4071 1.02234,2.28555 2.4366,4.38125 3.29188,6.74455 1.31556,2.81184 3.48808,5.38251 3.70486,8.58794 0.13253,1.96463 -1.99313,2.76951 -3.371,3.64725 -1.41694,0.74676 -3.06018,0.96231 -4.62888,1.21188 -2.66194,-0.36448 -5.00686,-2.02002 -7.74129,-2.01752 -2.09719,-0.0925 -2.44574,-2.544 -1.3355,-3.98478 0.83636,-2.32188 1.49428,-4.78368 3.01149,-6.77046 1.02575,-1.70611 1.82441,-3.63723 1.55621,-5.67149 -0.0899,-1.81803 -1.72563,-3.09796 -1.83501,-4.92291 l -0.049,-0.22912 z" />
  <path
     id="path229"
     style="fill:#9a6650;fill-opacity:1;stroke:#9a6650;stroke-width:0.264583px;stroke-linecap:butt;stroke-linejoin:miter;stroke-opacity:1"
     d="m 173.04712,92.49298 c -0.62288,2.58199 -1.55619,5.08795 -2.68899,7.48699 -1.01565,1.86307 -2.34777,3.52704 -3.60134,5.23002 -0.89229,0.89002 -2.23989,1.36661 -2.79292,2.56854 0.10699,0.86871 1.53864,-0.17593 1.98097,-0.44995 1.19189,-0.76997 2.2305,-1.77349 2.92151,-3.02233 0.82884,-1.11007 1.87427,-2.08767 2.36625,-3.41576 0.33464,-0.95761 1.06934,-1.66431 1.55784,-2.52493 0.62137,-1.3615 0.96278,-2.86839 0.99673,-4.36287 0.005,-0.60665 -0.36469,-1.07336 -0.74005,-1.50971 z" />
  <path
     id="path235"
     style="fill:#9a6650;fill-opacity:1;stroke:#9a6650;stroke-width:0.264583px;stroke-linecap:butt;stroke-linejoin:miter;stroke-opacity:1"
     d="m 194.71354,101.32187 c 0.0264,0.93961 0.66261,1.69414 0.92976,2.56549 0.21823,0.58454 0.34602,1.19501 0.48128,1.80224 0.10453,0.30006 0.15264,0.69258 0.4329,0.87668 0.10535,-0.20897 -0.0389,-0.51423 -0.0481,-0.75756 -0.17862,-0.96446 -0.30886,-1.93782 -0.5034,-2.89908 -0.13893,-0.62338 -0.48577,-1.25225 -1.10048,-1.51038 -0.0626,-0.029 -0.12681,-0.0548 -0.19197,-0.0774 z" />
  <path
     id="path241"
     style="fill:#716452;fill-opacity:1;stroke:#716452;stroke-width:0.264583px;stroke-linecap:butt;stroke-linejoin:miter;stroke-opacity:1"
     d="m 157.88801,69.04539 c 0.82402,0.30767 1.69251,0.1099 2.53718,0.10016 1.43118,0.0372 2.92112,0.68914 4.30594,0.0552 1.372,-0.57408 2.89862,-0.46859 4.35472,-0.49417 1.43609,0.0697 2.98552,-0.005 4.22854,0.84669 0.38408,0.27098 0.94722,0.67315 0.55446,-0.0274 -0.69949,-1.094 -1.41195,-2.24832 -2.48093,-3.01979 -0.92682,-0.19454 -1.62451,0.7117 -2.54522,0.72795 -1.77057,0.48741 -3.54329,0.99947 -5.37557,1.19231 -1.04309,0.26771 -2.11127,0.47657 -3.19201,0.33618 -0.80116,-0.0465 -1.64428,-0.071 -2.38711,0.28291 z" />
  <path
     id="path258"
     style="fill:#b3b3b3;fill-opacity:1;stroke:#b3b3b3;stroke-width:0.264583px;stroke-linecap:butt;stroke-linejoin:miter;stroke-opacity:1"
     d="m 189.16753,76.09963 c -0.0912,-0.73275 0.37132,-1.23996 0.9732,-1.58172 1.21078,-0.97903 2.96271,-1.39213 4.42069,-0.73329 0.69203,0.14636 1.15011,0.69247 1.72879,1.02232 1.18667,0.46719 2.49095,0.88046 3.35221,1.87581 0.47294,0.55373 0.0715,1.3651 -0.59507,1.51806 -0.84893,0.29551 -1.72569,0.5104 -2.59283,0.74944 -1.4618,0.35503 -3.0894,0.50093 -4.48122,-0.17654 -0.66597,-0.53555 -1.40237,-0.96123 -2.10125,-1.44647 -0.38332,-0.30843 -0.61291,-0.74979 -0.70452,-1.22761 z" />
  <path
     id="path264"
     style="fill:#b3b3b3;fill-opacity:1;stroke:#b3b3b3;stroke-width:0.264583px;stroke-linecap:butt;stroke-linejoin:miter;stroke-opacity:1"
     d="m 158.03591,76.54329 c 0.90904,-1.11428 2.50313,-1.09923 3.61391,-1.92228 1.29148,-0.77225 2.84996,-1.32217 4.35317,-0.88158 0.86132,0.1327 1.70595,0.38844 2.40894,0.92168 0.7493,0.54679 1.54574,1.07316 2.08412,1.83811 0.63192,0.66954 1.50802,1.11375 2.01414,1.89262 0.0254,0.72664 -1.10617,0.60109 -1.63871,0.82716 -0.90751,0.16855 -1.7829,0.52718 -2.72332,0.44834 -1.42879,-0.0458 -2.77704,0.57363 -4.20861,0.55456 -1.67084,0.0931 -3.24869,-0.64854 -4.61278,-1.54385 -0.46019,-0.64431 -0.35918,-1.60125 -1.17039,-2.01835 l -0.12047,-0.11642 z" />
  <path
     id="path270"
     style="fill:#5b422a;fill-opacity:1;stroke:#5b422a;stroke-width:0.264583px;stroke-linecap:butt;stroke-linejoin:miter;stroke-opacity:1"
     d="m 161.16633,76.6764 c -0.0431,0.85241 -0.23485,1.86975 0.40192,2.55799 0.79162,0.6427 1.89496,0.67508 2.86896,0.59064 0.94291,-0.10074 2.0187,-0.56197 2.28325,-1.56207 0.21344,-0.81567 0.21835,-1.67277 0.2448,-2.51019 0.01,-0.80852 -0.6729,-1.36474 -1.35652,-1.65194 -0.46965,-0.30662 -0.98448,-0.66178 -1.58042,-0.52571 -0.99658,0.20249 -1.96681,0.75948 -2.5486,1.60695 -0.2854,0.44135 -0.3048,0.98566 -0.31339,1.49433 z" />
  <path
     id="path277"
     style="fill:#5b422a;fill-opacity:1;stroke:#5b422a;stroke-width:0.264583px;stroke-linecap:butt;stroke-linejoin:miter;stroke-opacity:1"
     d="m 191.55847,74.81301 c -0.45055,0.59362 -0.51905,1.37961 -0.40452,2.0943 0.0446,0.50542 0.0755,1.13964 0.57674,1.41652 0.53486,0.28323 1.16425,0.23597 1.74683,0.32256 0.67524,0.0707 1.47204,1.8e-4 1.91637,-0.58261 0.49322,-0.63766 0.65883,-1.46414 0.72606,-2.25058 0.0278,-0.39192 -0.0665,-0.80888 -0.37702,-1.07361 -0.6445,-0.56764 -1.48742,-0.88575 -2.32898,-1.01257 -0.51546,-0.0656 -1.16218,-0.0587 -1.48096,0.42707 -0.13827,0.21203 -0.23603,0.44713 -0.37452,0.65892 z" />
  <path
     id="path283"
     style="fill:#9a6650;fill-opacity:1;stroke:#9a6650;stroke-width:0.264583px;stroke-linecap:butt;stroke-linejoin:miter;stroke-opacity:1"
     d="m 155.76821,73.30456 c -0.41708,1.15293 -0.54631,2.47428 -0.0837,3.63329 0.1212,0.45967 0.61602,0.18169 0.74655,-0.12159 0.49624,-0.61507 0.73688,-1.39234 1.21552,-2.01636 0.85467,-0.93373 2.15462,-1.1518 3.29576,-1.55961 0.17439,-0.0662 0.86548,-0.30955 0.35709,-0.22231 -0.72549,0.0936 -1.46554,0.12227 -2.16543,0.35681 -0.82935,0.23591 -1.77456,0.30327 -2.42401,0.93533 -0.20126,0.0994 -0.54303,0.6339 -0.68367,0.38036 0.10456,-0.41752 -0.0622,-0.82773 -0.20033,-1.21841 -0.0198,-0.0556 -0.0394,-0.11142 -0.0578,-0.16751 z" />
  <path
     id="path289"
     style="fill:#9a6650;fill-opacity:1;stroke:#9a6650;stroke-width:0.264583px;stroke-linecap:butt;stroke-linejoin:miter;stroke-opacity:1"
     d="m 187.83649,72.3285 c 0.54768,-0.73258 1.38104,-1.21032 2.2683,-1.40026 0.39731,-0.11128 0.81751,-0.14147 1.20502,-0.28175 0.15127,-0.1405 0.57144,-0.0979 0.24953,0.0939 -0.48871,0.32124 -0.85955,0.78216 -1.31427,1.14632 -0.49181,0.41114 -1.03286,0.76583 -1.48419,1.22423 -0.15632,0.43253 -0.0826,0.91136 -0.23108,1.34639 -0.25232,0.31393 -0.16644,-0.29494 -0.17045,-0.45828 -0.0487,-0.58703 -0.30976,-1.12974 -0.52286,-1.67056 z" />
  <path
     id="path295"
     style="fill:#9a6650;fill-opacity:1;stroke:#9a6650;stroke-width:0.264583px;stroke-linecap:butt;stroke-linejoin:miter;stroke-opacity:1"
     d="m 165.03621,57.51016 c 3.85811,-0.95424 7.86964,-0.85871 11.78731,-1.28799 2.2553,-0.91317 4.52541,0.16866 6.66656,0.26451 3.1633,-0.9723 6.52112,-0.53677 9.77492,-0.59822 1.98484,0.20624 3.87562,0.88537 5.8114,1.33328 -2.10874,-1.65023 -4.89103,-2.07193 -7.46871,-2.47081 -3.02754,-0.40041 -6.03245,0.25487 -8.9796,0.87401 -2.32584,0.14223 -4.60869,-1.09707 -6.9452,-0.44648 -2.49182,0.48761 -4.97102,1.05693 -7.50886,1.24502 -1.09671,0.17572 -2.19789,0.47519 -3.13782,1.08668 z" />
  <path
     id="path81"
     style="fill:#643c32;fill-opacity:1;stroke:#643c32;stroke-width:0.264583px;stroke-linecap:butt;stroke-linejoin:miter;stroke-opacity:1"
     d="m 174.13167,109.45157 c 1.47686,0.056 2.38817,-1.72085 3.91454,-1.3976 1.16094,0.2406 2.1596,1.10016 3.40028,0.98104 2.23248,0.0328 4.48136,-0.39821 6.69682,0.0649 0.81195,0.18287 2.26255,0.2699 2.55156,1.00249 -1.51326,0.40896 -3.09201,0.58449 -4.65845,0.64637 -2.3327,0.0597 -4.67767,-0.077 -6.98154,-0.4472 -0.70456,-0.22839 -1.4082,-0.47184 -2.16432,-0.33302 -0.94888,0.0961 -1.97807,0.13193 -2.75889,-0.51697 z" />
  <path
     id="path87"
     style="fill:#9a6650;fill-opacity:1;stroke:#9a6650;stroke-width:0.264583px;stroke-linecap:butt;stroke-linejoin:miter;stroke-opacity:1"
     d="m 180.29391,116.2618 c 0.96944,0.19927 1.94881,0.42958 2.94629,0.34577 1.16867,-0.0693 2.31321,-0.34595 3.44626,-0.62279 0.28413,-0.0653 0.73646,-0.341 0.941,-0.16049 -0.27156,0.31185 -0.69918,0.45843 -1.0441,0.6881 -0.73997,0.40801 -1.46909,0.88991 -2.32788,0.99645 -1.32645,0.19641 -2.68586,0.10545 -3.9998,-0.1414 -0.32625,-0.18847 -0.8334,-0.42287 -0.82702,-0.84817 0.1983,-0.23484 0.59296,-0.16515 0.86525,-0.25747 z" />
  <path
     id="path93"
     style="fill:#a5927a;fill-opacity:1;stroke:#a5927a;stroke-width:0.264583px;stroke-linecap:butt;stroke-linejoin:miter;stroke-opacity:1"
     d="m 164.39534,42.32536 c -2.05042,5.74382 -9.14922,5.86421 -14.29496,6.11604 -3.96242,0.20663 -7.43401,4.59758 -9.9947,5.83586 2.53445,3.4379 5.61215,6.647 4.83616,11.31762 -0.98795,4.14705 -1.78264,9.05122 -5.35857,11.81981 -3.91127,3.1462 -12.93914,4.57317 -10.10583,11.35987 2.41214,5.37397 -4.7719,10.30051 -0.54673,14.92072 1.28104,5.09807 -5.48521,7.46179 -6.63711,11.96216 2.34387,5.07371 -2.93782,8.19741 -7.1647,7.0055 -3.68868,2.72512 -10.02003,2.00872 -11.0343,-3.11617 -2.04431,-6.48867 5.57774,-8.81406 8.31751,-13.02075 0.15633,-5.7784 -5.84575,6.66345 -9.15108,0.95443 -3.929692,-4.95928 4.19258,-9.61779 1.91059,-15.29988 1.22222,-2.7322 7.24071,-5.83683 1.01324,-5.84279 -4.97851,-2.79478 -1.91997,-10.57895 1.92614,-13.14426 3.22539,-0.94805 8.43529,-0.73846 7.12959,-5.51627 2.65016,-1.91618 4.84946,-4.99022 0.46791,-6.29497 -3.97287,-2.46723 -3.74995,-11.36631 2.11632,-10.31394 5.6651,3.16997 10.08569,-2.46616 8.18427,-7.79114 3.62354,-4.56408 9.25572,3.56784 12.25011,-2.19591 4.46257,0.0419 9.19392,3.57559 13.67331,0.0853 3.962,-1.79119 9.30538,-2.57734 12.46283,1.15873 z" />
  <path
     id="path99"
     style="fill:#4e3927;fill-opacity:1;stroke:#4e3927;stroke-width:0.264583px;stroke-linecap:butt;stroke-linejoin:miter;stroke-opacity:1"
     d="m 169.62092,40.75036 c 8.04842,-1.31698 16.3879,-1.03419 23.9807,2.16993 8.07412,1.47474 13.70845,7.27856 17.44421,14.20726 3.21353,4.74694 7.3509,17.19817 13.24443,7.8063 3.43406,-4.56243 8.78612,-9.58618 6.1181,-15.88494 -2.81201,-5.81045 -5.14504,-11.89453 -8.3934,-17.4684 -4.78945,-6.52303 -9.54352,-13.38506 -16.87886,-17.2928 -8.40955,-6.89686 -18.88038,-11.99962 -30.00014,-11.56305 -6.73668,-0.75521 -13.5339,-2.83958 -20.0649,0.45258 -6.45423,0.32826 -11.17416,4.88186 -17.2609,6.09888 -5.35657,-1.50299 -12.44409,-0.71867 -14.92481,5.06982 -1.74269,4.89236 -1.58752,10.434 -0.60474,15.45592 3.13064,5.26356 5.38951,13.53197 11.65375,14.9107 6.23402,-3.90754 13.14333,0.39655 19.75388,-2.34125 5.32515,-0.0647 10.78405,-2.99682 15.93268,-1.62095 z" />
  <path
     id="path105"
     style="fill:#754f25;fill-opacity:1;stroke:#754f25;stroke-width:0.264583px;stroke-linecap:butt;stroke-linejoin:miter;stroke-opacity:1"
     d="m 129.71428,24.82286 c -0.49901,3.34577 3.75311,7.66458 5.33365,2.73439 1.74049,-4.49443 5.93205,-6.77275 9.98248,-8.83212 4.78058,-2.50855 10.01695,-4.02178 15.20043,-5.48184 9.86913,-2.69226 20.15465,-3.73825 30.36064,-3.75345 1.96388,0.0437 6.53426,1.2207 2.29529,-0.2384 C 186.3585,6.67001 179.20632,8.184 172.44444,8.73638 c -6.20073,0.30188 -12.204,1.89598 -18.11323,3.70335 -4.3369,1.27849 -8.99414,1.67626 -12.87024,4.21319 -3.7479,2.48167 -8.99646,3.07265 -11.32874,7.33056 -0.12101,0.28892 -0.27461,0.5616 -0.41795,0.83938 z" />
  <path
     id="path111"
     style="fill:#754f25;fill-opacity:1;stroke:#754f25;stroke-width:0.264583px;stroke-linecap:butt;stroke-linejoin:miter;stroke-opacity:1"
     d="m 147.46152,24.97814 c -1.84015,3.63278 3.43799,4.64711 5.74716,3.02502 8.25319,-2.66129 16.22444,-6.25392 24.77488,-7.9459 5.86677,-1.20336 11.88322,-1.99949 17.87454,-1.80646 4.796,0.61512 9.33104,2.51923 13.84628,4.1672 1.70882,0.75893 3.58175,2.02827 1.24349,0.0536 -2.00131,-2.39491 -5.01294,-3.188 -7.95699,-3.65858 -6.03082,-1.4049 -12.08161,-3.02048 -18.33078,-2.85343 -5.2947,0.031 -10.5879,0.3325 -15.87408,0.59448 -3.77575,0.45792 -7.32867,1.9293 -11.07122,2.59743 -3.521,0.92808 -7.4321,2.12443 -9.30496,5.55101 l -0.28947,0.15562 z" />
  <path
     id="path121"
     style="fill:#4c4236;fill-opacity:1;stroke:#4c4236;stroke-width:0.264583px;stroke-linecap:butt;stroke-linejoin:miter;stroke-opacity:1"
     d="m 150.41938,44.47713 c 3.2799,-0.17607 6.42391,-1.44194 9.74912,-1.19611 4.66344,0.11133 9.35506,-0.29067 13.94748,0.76034 4.68222,0.69782 9.52892,0.63532 14.04429,2.16372 4.0205,0.52264 7.79866,2.08237 11.81264,2.65611 2.44723,0.0967 6.19616,2.95237 7.4693,2.47868 -1.19195,-2.56908 -3.9148,-4.03595 -6.10518,-5.66557 -5.82695,-2.98045 -12.19457,-4.96691 -18.70786,-5.65935 -7.61148,-0.1071 -15.21396,-1.22872 -22.82475,-0.69491 -4.91008,0.40607 -9.68137,1.91825 -14.17798,3.86059 -1.23308,0.65817 -3.46785,1.96412 -0.5642,1.46569 1.81381,0.34598 3.53336,0.18477 5.35714,-0.16919 z" />
  <path
     id="path127"
     style="fill:#716452;fill-opacity:1;stroke:#716452;stroke-width:0.264583px;stroke-linecap:butt;stroke-linejoin:miter;stroke-opacity:1"
     d="m 187.99737,68.87819 c 1.59056,-0.0359 3.23968,-0.27917 4.65184,-1.03674 0.53874,-0.58649 1.29403,-0.25121 1.41546,0.47595 0.59603,0.63997 1.46675,0.92581 2.26008,1.24663 1.0169,0.41499 2.12654,0.47613 3.15148,0.86207 0.292,0.0562 1.45061,0.51179 0.83394,0.70035 -0.59544,-0.12096 -1.11227,-0.48941 -1.7243,-0.57146 -0.80145,-0.11861 -1.61117,-0.21013 -2.36334,-0.53808 -1.26327,-0.44316 -2.5728,-0.88885 -3.93318,-0.79466 -0.93043,-0.0212 -1.85496,0.11816 -2.73402,0.40766 -0.63999,0.0468 -1.01617,-0.54702 -1.55796,-0.75172 z" />
  <path
     id="path133"
     style="fill:#9a6650;fill-opacity:1;stroke:#9a6650;stroke-width:0.264583px;stroke-linecap:butt;stroke-linejoin:miter;stroke-opacity:1"
     d="m 189.13608,80.13908 c 0.46843,1.52422 1.82097,2.67313 3.34755,3.05771 0.99945,0.30165 2.06289,0.18139 3.07068,0.42815 -0.24167,0.19224 -0.77857,-0.0479 -1.07967,-0.20049 -0.53318,-0.30907 -1.06458,-0.62868 -1.66113,-0.80304 -0.97277,-0.33113 -2.03387,-0.66183 -2.68851,-1.50988 -0.30266,-0.34908 -0.59236,-0.72355 -0.98892,-0.97245 z" />
  <path
     id="path143"
     style="fill:#9a6650;fill-opacity:1;stroke:#9a6650;stroke-width:0.264583px;stroke-linecap:butt;stroke-linejoin:miter;stroke-opacity:1"
     d="m 174.72194,79.43322 c -0.70807,0.82406 -1.73881,1.24019 -2.64432,1.79738 -0.95333,0.49988 -2.03968,0.62894 -3.1,0.66773 -0.2107,0.0431 -0.94778,-0.003 -0.37879,0.0302 0.86169,0.13891 1.72462,0.33752 2.60422,0.27455 1.16942,-0.0617 2.34103,-0.33685 3.38839,-0.86637 0.3901,-0.22578 0.88819,-0.55702 0.81328,-1.07655 -0.0779,-0.36358 -0.39599,-0.62043 -0.68278,-0.82694 z" />
</svg>
