<?xml version="1.0" encoding="UTF-8" standalone="no"?>
<svg
   xmlns:dc="http://purl.org/dc/elements/1.1/"
   xmlns:cc="http://creativecommons.org/ns#"
   xmlns:rdf="http://www.w3.org/1999/02/22-rdf-syntax-ns#"
   xmlns:svg="http://www.w3.org/2000/svg"
   xmlns="http://www.w3.org/2000/svg"
   xmlns:sodipodi="http://sodipodi.sourceforge.net/DTD/sodipodi-0.dtd"
   xmlns:inkscape="http://www.inkscape.org/namespaces/inkscape"
   width="1200"
   height="600"
   viewBox="0 0 317.5 158.75"
   version="1.1"
   id="svg8"
   inkscape:version="1.0.1 (3bc2e813f5, 2020-09-07)"
   sodipodi:docname="pd-british-isles.svg">
  <sodipodi:namedview
     id="base"
     pagecolor="#ffffff"
     bordercolor="#666666"
     borderopacity="1.0"
     inkscape:pageopacity="0.0"
     inkscape:pageshadow="2"
     inkscape:zoom="1.4"
     inkscape:cx="603.14599"
     inkscape:cy="295.17112"
     inkscape:document-units="mm"
     inkscape:current-layer="layer1"
     showgrid="false"
     units="px"
     inkscape:window-width="1920"
     inkscape:window-height="1061"
     inkscape:window-x="0"
     inkscape:window-y="19"
     inkscape:window-maximized="0"
     inkscape:document-rotation="0"
     inkscape:snap-global="false" />
  <metadata
     id="metadata5">
    <rdf:RDF>
      <cc:Work
         rdf:about="">
        <dc:format>image/svg+xml</dc:format>
        <dc:type
           rdf:resource="http://purl.org/dc/dcmitype/StillImage" />
        <dc:title />
      </cc:Work>
    </rdf:RDF>
  </metadata>
  <g
     inkscape:label="Layer 1"
     inkscape:groupmode="layer"
     id="layer1"
     transform="translate(0,-138.25001)">
    <path
       id="path615"
       style="fill:#999999;fill-opacity:1;stroke:#999999;stroke-width:1;stroke-linecap:round;stroke-opacity:1"
       d="m 72.65556,250.42296 c 8.191614,8.50206 14.324142,19.44878 25.344007,24.77288 6.080323,2.04348 8.473603,10.31912 15.395503,9.58838 11.31235,-1.68862 22.76374,-2.71376 34.21934,-2.78416 7.68886,0.76605 7.97898,-10.52509 12.6356,-14.91625 1.28136,-3.55303 7.15671,-7.85929 6.56911,-10.16935 -5.16118,4.81279 -8.04618,12.05581 -12.15121,17.95375 -2.84041,8.35306 -12.13239,7.1141 -19.22926,7.34182 -8.29248,0.50778 -16.55317,2.35857 -24.8886,1.60958 -6.49928,-4.89675 -13.386673,-9.2238 -20.073749,-13.82818 -7.097755,-5.42799 -11.237524,-13.65886 -17.820741,-19.56847 z" />
    <path
       id="path613"
       style="fill:#999999;fill-opacity:1;stroke:#999999;stroke-width:1;stroke-linecap:round;stroke-opacity:1"
       d="m 71.557769,246.64404 c 31.321611,2.59927 62.725641,-1.97982 94.055891,0.33365 8.27114,4.8909 6.1461,-5.14795 0.0587,-6.78458 -7.82407,-10.20681 -17.06574,-21.6058 -31.58113,-18.62887 -12.44929,1.34908 -29.44826,-8.68692 -38.351303,3.6157 -4.227162,10.09955 -17.302733,12.59633 -21.87107,21.2302 11.159372,-5.86784 19.5781,-15.37625 27.948433,-24.32324 10.75178,-3.58217 22.15212,1.58108 33.21264,0.89875 12.27233,-1.53749 20.39567,8.06572 27.61094,16.324 3.57361,5.28079 12.47718,10.23924 1.24669,7.37512 -30.58705,-2.10984 -61.25598,2.68268 -91.805206,-0.42738 l -0.510952,0.37661 -0.01367,0.0101 z" />
    <path
       id="path623"
       style="fill:#999999;fill-opacity:1;stroke:#999999;stroke-width:1;stroke-linecap:round;stroke-opacity:1"
       d="m 194.9261,252.32857 c -1.08075,12.69542 -8.0984,23.65593 -13.15436,34.98259 -3.27836,3.70476 -6.11798,10.23539 1.43865,7.54337 7.94434,-2.25562 15.91547,-4.46867 23.4349,-7.94224 6.99946,-2.86011 14.42626,-5.05918 22.0571,-4.87179 5.92311,-1.15179 6.74547,-8.13972 7.72228,-13.0232 4.39737,-12.56727 7.80698,-25.55421 13.62777,-37.57917 2.55079,-1.44153 2.19459,-7.81515 0.11143,-2.63311 -7.86691,16.36865 -10.97042,34.59423 -19.00543,50.89668 -9.68047,3.04091 -20.14985,3.61949 -29.18814,8.57655 -7.83416,3.08032 -16.04509,5.1394 -24.35392,6.44183 5.20195,-2.88893 4.46263,-10.95914 8.67702,-15.33455 3.91558,-7.66941 6.72443,-15.86061 8.70447,-24.21023 0.4057,-0.83771 0.85264,-2.16086 -0.0718,-2.84673 z" />
    <path
       id="path617"
       style="fill:#999999;fill-opacity:1;stroke:#999999;stroke-width:1;stroke-linecap:round;stroke-opacity:1"
       d="m 134.88317,210.49666 c 17.41725,-8.14445 31.4694,-21.59604 46.50273,-33.1305 15.94033,-3.80814 26.37079,14.20923 39.31168,20.60333 7.82498,8.60347 25.75606,11.34265 29.64834,19.63453 -11.40956,8.71712 -25.82606,13.21926 -37.22235,22.56426 -16.01236,13.09225 -31.16681,-5.43019 -43.45917,-14.43956 -5.97535,-5.18613 -25.18511,-20.64179 -26.81111,-15.38182 20.11179,7.701 34.69591,24.7429 53.26597,35.2138 15.5043,2.44852 25.51723,-13.71458 38.72365,-18.93883 8.07653,-2.90755 28.06027,-11.32434 9.18078,-15.04311 -20.73721,-8.55029 -36.03952,-26.02479 -55.89651,-35.90924 -11.25369,-1.56171 -17.99853,13.72792 -27.93448,18.5386 -7.95876,6.12497 -16.35354,11.72265 -25.30953,16.28854 z" />
    <path
       id="path621"
       style="fill:#999999;fill-opacity:1;stroke:#999999;stroke-width:1;stroke-linecap:round;stroke-opacity:1"
       d="m 129.92098,203.76979 c 2.65839,-11.86163 7.12659,-23.24624 10.05219,-35.05691 1.71914,-6.54899 4.10503,-12.89382 6.66851,-19.15281 6.25597,-0.81266 12.42452,-2.2069 18.66512,-3.14422 10.41943,-2.58237 21.12071,-3.89653 31.85897,-3.36042 4.82598,-0.97177 -5.09299,6.30769 -6.19573,9.52207 -3.56572,4.47981 -6.75071,9.33855 -8.88253,14.67449 4.45819,-4.20627 5.03936,-11.27648 10.07536,-15.33878 2.45653,-3.23773 12.79003,-10.86526 2.80743,-9.97097 -7.30616,1.26974 -14.84574,0.30828 -22.11832,2.16709 -8.60197,1.92083 -17.17297,4.30615 -26.04645,4.56162 -4.13374,4.77575 -3.93002,12.35158 -6.69868,18.23894 -3.45271,12.06555 -6.91612,24.13828 -11.40377,35.86255 -1.11659,1.40824 0.64563,0.78648 1.2179,0.99735 z" />
    <g
       id="g478"
       transform="matrix(1.3189973,0,0,1.3189973,-34.157726,-88.955991)">
      <g
         id="g426"
         transform="translate(-2.0905171,0.79140705)">
        <path
           id="path27"
           style="fill:#d4aa00;stroke:#d4aa00;stroke-width:0.264583px;stroke-linecap:butt;stroke-linejoin:miter;stroke-opacity:1"
           d="m 187.27851,253.52911 c -1.83158,3.571 0.0469,6.40753 -0.22574,6.79319 -0.90849,-1.57581 -1.88231,1.11507 -0.86826,1.99172 -1.29086,2.34269 -2.38832,-1.30064 -3.68677,3.08738 -1.87394,-2.63811 -2.67366,3.53454 -4.64192,5.28812 0.27992,2.01928 -2.81124,5.09418 -2.13915,6.36824 1.60724,-1.11658 3.14899,-6.50164 4.34261,-4.38001 -0.66251,1.61235 -0.10691,1.81592 0.56379,1.65447 -1.35516,1.95728 1.41969,-0.13025 -0.18938,1.95806 0.10711,1.4113 -1.32374,3.65361 -2.41983,5.05025 -0.69654,0.7813 -0.9735,1.4805 -1.76984,1.76628 0.0531,0.62335 -1.93569,2.07874 -0.4035,1.32048 1.69826,-1.57796 -1.14246,1.92837 0.67197,0.18563 0.69965,-0.47306 0.6686,-1.17876 1.02797,-0.7695 -1.17398,0.93778 -0.72611,1.23199 0.24441,0.28819 0.56187,-0.91843 1.51201,-2.30422 2.00264,-2.8266 -0.0857,0.72279 2.05317,-1.32182 0.74928,0.25285 -1.23181,1.44735 0.72087,-0.24406 1.03076,-0.90578 0.95835,-0.50308 2.03969,-0.15527 3.04641,-1.96346 0.5765,-1.13888 1.79053,-2.12273 2.47656,-3.48954 -0.83479,1.67039 -2.1009,3.34456 -2.8172,4.80332 -0.97713,0.89115 -2.0183,1.36491 -3.02492,2.76833 -1.35847,0.90447 -0.26175,1.12267 -1.39186,1.9721 -0.0144,0.67578 -0.0785,1.63908 -1.18973,2.75584 -0.44237,0.77081 -0.59643,1.36435 -1.35174,2.23256 -0.89594,0.5938 -0.9984,1.45327 -0.25594,0.64068 0.0472,-0.68015 1.55696,-1.00636 1.79878,-1.72531 -0.86451,0.49918 0.11383,-0.37296 0.38516,-0.80157 0.21943,-0.6501 1.00878,-1.27029 1.7082,-1.96726 0.66105,-0.30154 -0.0702,-0.60328 0.65253,-0.71175 0.60485,-0.50746 1.05609,-0.45581 1.5651,-1.44211 0.39004,-0.38136 -0.42922,-0.0173 0.19965,-0.76007 0.03,-0.35278 0.0222,-0.60375 0.45735,-0.66368 0.74701,-1.38193 2.1596,-2.36701 2.50829,-2.13342 0.28334,-0.19628 0.41589,-0.96028 0.85621,-0.9955 0.44663,-0.17209 1.00933,-1.31664 0.42232,-0.73149 0.33573,-0.51926 1.71843,-1.53813 2.10222,-2.48488 -0.16029,-0.3093 0.46051,-0.14332 0.84333,-0.84633 0.35173,0.21366 1.65115,-1.59349 2.32824,-2.06405 0.33476,-0.008 1.06562,-1.04437 1.61107,-1.67933 0.40623,-0.59534 0.74589,-1.14591 1.06084,-1.30372 0.31842,-0.93056 1.65499,-2.05709 1.91256,-3.01751 0.34485,-0.58286 0.85678,-1.34115 0.0841,-0.40258 -0.30054,0.0198 -1.4162,1.75634 -1.37746,1.16484 -0.76049,1.01101 -0.28698,0.26218 0.0653,-0.28408 -0.47846,0.0929 1.59012,-1.75119 1.37213,-2.21176 -0.67814,0.99922 -0.9936,0.83373 -0.1675,-0.15126 0.76755,-1.06527 1.16042,-0.5701 1.79352,-2.28934 -0.80412,0.76993 1.28755,-2.44548 0.35975,-0.53398 0.89022,-1.17789 1.78071,-2.62354 2.33747,-3.95727 1.4147,-2.04023 2.82091,-5.21531 2.57994,-5.8112 0.0893,-1.24969 -1.36437,0.3087 -1.94317,0.20253 -0.77317,0.60443 -3.56914,5.78649 -2.81039,3.04477 2.08726,-2.89201 3.92623,-7.6824 3.81787,-9.66109 0.62295,-2.52906 -0.58301,-3.2256 -1.23403,-2.45435 2.57959,-5.96817 1.32033,2.37094 3.31998,-3.16515 -0.75496,-1.10659 -0.74184,1.44064 0.52071,-2.37732 2.07492,-9.68163 -2.61924,-0.13668 -4.69344,1.75389 -3.49815,5.50279 -5.91323,7.10496 -8.14558,6.37424 -2.08987,5.11637 -4.12507,4.28559 -6.07138,7.24397 z"
           sodipodi:nodetypes="ccccccccccccccccccccccccccccccccccccccccccccccccccccccccccccc" />
        <path
           id="path32"
           style="fill:#d4aa00;stroke:#d4aa00;stroke-width:0.264583px;stroke-linecap:butt;stroke-linejoin:miter;stroke-opacity:1"
           d="m 189.77376,276.17038 c 0.0349,0.0136 -0.043,0.1281 -0.0914,0.13992 -0.0987,0.0898 -0.13955,0.23246 -0.2433,0.33499 -0.13695,0.14731 -0.27277,0.25761 -0.41237,0.43727 -0.0833,0.12169 -0.0668,0.18231 -0.0136,0.16077 0.12046,-0.0511 0.28556,-0.18699 0.42153,-0.27054 0.0827,-0.0734 0.1206,-0.0217 0.21554,-0.15247 0.12044,-0.18015 0.20653,-0.35355 0.33656,-0.53765 0.0872,-0.10814 0.14346,-0.10277 0.23058,-0.22123 0.0645,-0.11145 0.0688,-0.18012 0.0672,-0.22987 9.1e-4,-0.0728 -0.10484,0.0166 -0.19863,0.10713 -0.0823,0.0652 -0.13487,0.0717 -0.20995,0.121 -0.0335,0.0338 -0.0682,0.0742 -0.10224,0.11069 z" />
        <path
           id="path38"
           style="fill:#d4aa00;stroke:#d4aa00;stroke-width:0.264583px;stroke-linecap:butt;stroke-linejoin:miter;stroke-opacity:1"
           d="m 175.08334,269.17493 c -0.34004,-0.10585 -0.35111,-0.62074 -0.1762,-1.03483 0.18589,-0.649 0.73483,-0.87759 1.09063,-1.33778 0.0891,-0.4933 0.46557,-0.77742 0.74597,-0.52483 0.31544,0.26287 0.31494,0.87916 0.60325,1.14117 0.18319,0.18729 0.37892,0.38694 0.629,0.3958 0.32517,-0.004 0.55975,-0.79636 0.84762,-0.562 0.24765,0.14756 0.17762,0.74268 -0.11971,1.00597 -0.25095,0.24598 -0.48289,0.53746 -0.64818,0.89139 -0.27262,0.50873 -0.65928,0.89324 -1.00796,1.30426 -0.32844,0.47493 -0.44158,-0.20655 -0.75081,-0.0789 -0.39288,0.24398 -0.84436,0.50233 -1.22345,0.35537 -0.39956,0.0157 -0.28817,-0.52443 -0.16227,-0.89716 0.0592,-0.21728 0.12635,-0.43609 0.17217,-0.65848 z" />
        <path
           id="path44"
           style="fill:#d4aa00;stroke:#d4aa00;stroke-width:0.264583px;stroke-linecap:butt;stroke-linejoin:miter;stroke-opacity:1"
           d="m 196.47856,267.45062 c -0.0504,0.0757 -0.10001,0.17161 -0.0861,0.18707 0.0159,0.0276 0.0768,-0.0181 0.13164,-0.0584 0.0875,-0.0684 0.18716,-0.15927 0.2997,-0.28535 0.0387,-0.0405 0.0999,-0.13045 0.0982,-0.16026 8.1e-4,-0.0328 -0.0266,-0.0242 -0.0516,-0.0169 -0.003,-0.0195 -6.2e-4,-0.0489 -0.0363,-0.0163 -0.0526,0.0351 -0.12371,0.10721 -0.17579,0.14111 -0.0194,-0.0145 -0.0898,0.0861 -0.14466,0.16168 -0.0117,0.0159 -0.0234,0.0319 -0.035,0.0473 z" />
      </g>
      <g
         id="g454"
         transform="translate(-0.34506952,3.9258821)">
        <path
           id="path263"
           style="fill:#666666;fill-opacity:1;stroke:#666666;stroke-width:0.264583px;stroke-linecap:butt;stroke-linejoin:miter;stroke-opacity:1"
           d="m 185.98488,255.76445 c -0.0605,1.23461 -0.44187,2.60047 -0.52998,3.70638 -0.0886,0.53995 0.37741,-0.17113 0.54487,-0.19049 0.26064,-0.22299 0.52608,-0.44946 0.75209,-0.49604 0.23736,-0.17133 0.20189,-0.71512 0.29604,-1.04639 0.0747,-0.49937 0.17424,-1.02831 0.27621,-1.57005 0.0921,-0.5168 -0.19319,-0.37664 -0.35747,-0.42455 -0.30937,0.0818 -0.24328,0.81986 -0.38051,1.18968 -0.18686,0.52546 -0.53162,0.47898 -0.32744,-0.0869 0.12073,-0.67285 0.25195,-1.37251 0.36992,-2.08773 -0.0943,-0.21786 -0.36333,0.0314 -0.50815,-0.0666 -0.15783,0.34336 -0.0861,0.74555 -0.13561,1.07285 z" />
        <path
           id="path270"
           style="fill:#ff2a2a;fill-opacity:1;stroke:#ff2a2a;stroke-width:0.264583px;stroke-linecap:butt;stroke-linejoin:miter;stroke-opacity:1"
           d="m 185.82165,254.87971 c 0.149,-0.20104 0.29097,-0.21755 0.4319,-0.30615 0.21965,-0.10922 0.43053,-0.17157 0.64347,-0.27032 -0.003,-0.18618 -0.0938,-0.2753 -0.13247,-0.42529 -0.0813,-0.13809 0.0125,-0.49403 -0.0221,-0.69676 -0.11167,-0.0488 -0.24435,0.42526 -0.36103,0.60558 -0.18383,0.37579 -0.36655,0.74973 -0.55975,1.0929 z" />
      </g>
      <g
         id="g458"
         transform="translate(1.5949265,4.7111638)">
        <path
           id="path278"
           style="fill:#666666;fill-opacity:1;stroke:#666666;stroke-width:0.264583px;stroke-linecap:butt;stroke-linejoin:miter;stroke-opacity:1"
           d="m 188.70238,251.95363 c -0.25957,0.75668 -0.42528,1.46394 -0.62431,2.15914 0.0437,0.30101 0.38755,-0.13391 0.53015,-0.0649 0.42019,-0.13634 0.81592,-0.20613 1.26945,-0.50858 0.28064,-0.39381 0.36608,-0.97399 0.45485,-1.38218 0.0181,-0.4212 0.38411,-1.12563 0.40067,-1.51353 -0.0762,-0.15225 -0.39427,-0.13618 -0.50301,0.50523 0.0831,0.25068 -0.43166,1.20898 -0.36218,0.65726 0.11137,-0.51237 0.42953,-1.10893 0.52568,-1.64144 0.0861,-0.42537 0.17359,-1.08668 -0.10531,-0.81524 -0.17161,0.16737 -0.3677,-0.22875 -0.53947,0.43172 -0.12325,0.6861 -0.19307,1.32731 -0.42055,2.05191 -0.18712,0.3717 -0.59256,0.58859 -0.29959,-0.0236 0.2372,-0.68004 -0.21935,-0.62321 -0.32638,0.1442 z" />
        <path
           id="path285"
           style="fill:#0066ff;fill-opacity:1;stroke:#0066ff;stroke-width:0.264583px;stroke-linecap:butt;stroke-linejoin:miter;stroke-opacity:1"
           d="m 191.08479,246.19952 c 0.20548,-0.1147 0.4318,-0.30277 0.60436,-0.3099 0.0849,0.0644 -0.0584,0.47447 -0.13914,0.73475 -0.10461,0.27445 -0.18763,0.76167 -0.33945,0.83902 -0.10744,0.0446 -0.19858,0.0341 -0.30473,0.0735 -0.16681,0.26169 -0.26478,0.71773 -0.38183,1.04603 -0.11836,0.38635 -0.22466,0.76306 -0.3383,1.13693 0.038,-0.31808 0.0756,-0.64639 0.18289,-1.03963 0.17794,-0.70768 0.32855,-1.43951 0.62018,-2.22801 0.0308,-0.0844 0.0629,-0.16895 0.096,-0.25261 z" />
      </g>
      <g
         id="g446"
         transform="translate(-4.6330575,2.1392889)">
        <path
           id="path292"
           style="fill:#666666;fill-opacity:1;stroke:#666666;stroke-width:0.264583px;stroke-linecap:butt;stroke-linejoin:miter;stroke-opacity:1"
           d="m 185.44286,278.85202 c 0.34066,-0.29287 0.67204,-0.54325 1.00267,-0.81877 0.14065,-0.0826 0.24897,-0.26085 0.24158,-0.36459 0.0239,-0.15532 0.035,-0.30479 0.11423,-0.50565 0.0324,-0.14207 0.11693,-0.31373 0.20687,-0.47387 -0.0904,0.0132 -0.22836,0.0999 -0.35128,0.17597 -0.12593,0.14049 -0.1509,0.30727 -0.2124,0.44353 -0.0465,-0.0454 -0.0262,-0.1824 -0.0323,-0.27943 -0.002,-0.12355 0.0204,-0.27337 0.005,-0.38706 -0.11201,0.0352 -0.27218,0.17787 -0.40379,0.24703 -0.14542,0.094 -0.30539,0.31693 -0.27682,0.42519 -0.002,0.25638 0.19413,0.31511 0.1109,0.63186 0.011,0.0896 0.0403,0.20541 -0.14301,0.30833 -0.15043,0.1165 -0.12972,-0.0376 -0.16334,-0.0952 -0.0462,-0.0791 -0.24288,0.1329 -0.36635,0.23213 -0.14222,0.0837 -0.22424,0.25921 -0.11721,0.24191 0.0994,0.0821 0.0919,0.30122 0.28998,0.24472 0.0306,-0.006 0.0629,-0.0157 0.0956,-0.0261 z" />
        <path
           id="path298"
           style="fill:#ff2a2a;fill-opacity:1;stroke:#ff2a2a;stroke-width:0.264583px;stroke-linecap:butt;stroke-linejoin:miter;stroke-opacity:1"
           d="m 187.00015,276.21251 c -0.0974,0.13974 -0.20682,0.27012 -0.30814,0.40618 -0.0651,0.0872 -0.13523,0.17772 -0.18433,0.26807 -0.0208,0.0647 0.0713,-0.047 0.10006,-0.0511 0.13206,-0.0711 0.2439,-0.0993 0.35847,-0.13714 0.0569,-0.0241 0.12479,-0.066 0.16059,-0.0513 -0.0577,-0.12326 -0.10169,-0.26718 -0.12665,-0.43471 z" />
        <path
           id="path304"
           style="fill:#ff2a2a;fill-opacity:1;stroke:#ff2a2a;stroke-width:0.264583px;stroke-linecap:butt;stroke-linejoin:miter;stroke-opacity:1"
           d="m 184.8679,278.74234 c 0.11948,-0.11354 0.23815,-0.19531 0.35598,-0.29086 0.13038,-0.10109 0.2596,-0.19892 0.38858,-0.29897 0.0654,-0.11551 -0.0239,-0.11382 -0.0575,-0.13928 -0.0634,-0.0113 -0.1168,-0.0387 -0.12135,-0.12273 0.003,-0.0776 -0.0729,-0.0402 -0.12251,0.0743 -0.0957,0.16348 -0.13491,0.30422 -0.2027,0.4551 -0.0469,0.11036 -0.13924,0.23764 -0.2405,0.32245 z" />
      </g>
      <g
         id="g450"
         transform="translate(-1.7001106,0.61059889)">
        <path
           id="path311"
           style="fill:#666666;fill-opacity:1;stroke:#666666;stroke-width:0.264583px;stroke-linecap:butt;stroke-linejoin:miter;stroke-opacity:1"
           d="m 180.14754,280.82052 c -0.11359,0.3394 0.001,0.50577 -0.0486,0.78797 0.0118,0.0883 -0.061,0.27157 -0.006,0.30642 0.13377,-0.11378 0.26486,-0.26032 0.40072,-0.3591 0.12471,-0.0854 0.30667,-0.24538 0.27646,-0.35103 0.009,-0.17907 -0.0638,-0.29462 -0.006,-0.51914 0.0252,-0.14796 0.0647,-0.31451 0.0186,-0.40776 -0.0852,0.009 -0.21645,0.15446 -0.32128,0.21272 -0.11646,0.0843 -0.21732,0.20601 -0.31402,0.32992 z" />
        <path
           id="path318"
           style="fill:#ff2a2a;fill-opacity:1;stroke:#ff2a2a;stroke-width:0.264583px;stroke-linecap:butt;stroke-linejoin:miter;stroke-opacity:1"
           d="m 180.38506,280.13847 c 0.0148,0.0861 -0.0806,0.23801 -0.13976,0.36039 -0.0844,0.15842 -0.18015,0.31879 -0.24978,0.47195 0.001,0.0876 0.15572,-0.0771 0.22572,-0.13083 0.25827,-0.23017 0.50837,-0.49576 0.76504,-0.71249 0.0676,-0.0467 -0.0755,0.0313 -0.0933,0.0238 -0.19491,0.0434 -0.30661,-0.0553 -0.50792,-0.0128 z" />
      </g>
    </g>
    <g
       id="g607"
       transform="translate(48.023741,7.6684363)">
      <g
         id="g439"
         transform="translate(-51.63249,-1.3484204)">
        <path
           id="path183"
           style="fill:#ff6600;fill-opacity:1;stroke:#ff6600;stroke-width:0.264583px;stroke-linecap:butt;stroke-linejoin:miter;stroke-opacity:1"
           d="m 97.598643,252.01375 c -0.561114,1.05799 1.76977,3.792 5.875177,4.61664 1.88405,1.39771 -5.005575,-0.87702 0.007,1.241 -1.9697,-0.1885 -4.146255,-0.47705 -1.55242,1.19447 0.41415,0.55906 0.58454,1.30459 2.46331,1.24649 1.81187,0.7532 0.94687,1.23306 2.33528,1.97507 -0.92472,0.181 -2.54532,0.15441 -1.24429,0.97705 0.7576,-0.30463 2.25711,-0.29836 4.43295,0.0185 2.24241,0.19506 -0.97571,-1.84466 2.92639,-0.8624 2.4635,0.52598 2.40746,1.08329 0.85352,0.95418 -1.21375,0.1865 -1.4806,0.81092 -4.01067,0.32461 -2.55096,-0.43059 -0.20902,0.71628 -1.71417,0.66168 -0.68523,0.20462 2.07377,0.53379 1.83526,0.80855 2.36765,0.36685 0.59788,0.68899 -0.81009,0.0699 -1.75933,-0.47908 0.0258,0.35414 -1.73394,-0.15309 -1.78764,-0.17605 1.01115,0.82505 -0.60766,0.61169 1.69117,0.53967 2.59673,0.22896 3.76979,0.35881 0.20431,-0.0788 1.928,-0.0249 1.35143,0.14858 -0.68006,0.0478 0.53518,0.60033 -1.17228,0.31792 -0.25702,0.0843 0.93411,0.54909 0.8069,0.64127 0.46988,-0.005 1.20956,-0.0982 1.36489,0.23456 0.27864,0.27551 1.35396,-0.0252 1.93013,0.0218 0.76843,0.073 0.71632,-0.21806 1.11539,-0.18629 0.91604,0.49608 -1.25533,0.28837 -0.49466,0.7103 -0.93962,-0.17597 -1.59138,0.0838 -0.28682,0.17831 0.50794,-0.13434 1.66336,-0.068 2.29907,-0.17468 -0.2777,-0.41425 2.10071,0.37561 0.63271,0.2338 -0.54309,0.0127 -0.97184,0.0807 -1.16566,0.17604 0.30272,-0.0502 2.12119,-0.011 1.09928,0.10389 -0.36652,0.0374 -0.65374,0.27812 0.1892,0.20004 0.51679,-0.005 1.21564,-0.31562 1.88982,0.0583 0.60812,0.0308 0.91811,-0.0262 0.85346,0.18321 0.79658,0.0574 0.86838,-0.2485 2.10927,-0.0783 0.68185,-0.0634 1.79417,-0.0395 2.24044,-0.19761 0.89569,-0.009 0.6384,-0.39315 -0.65961,-0.5424 -0.38247,-0.38817 1.67845,-0.10155 1.66535,0.23026 1.11419,0.22673 1.52812,-0.18634 2.00893,-0.29876 0.11404,-0.23393 2.82728,0.34746 1.83266,-0.22351 -1.17996,-0.54836 1.80701,-0.14018 2.65557,-0.12861 1.19969,0.18353 1.73496,-0.0685 2.21504,-0.29837 0.51301,0.23067 0.0873,0.71818 1.0131,0.36345 0.2098,-0.27157 0.58037,-0.49505 1.22399,-0.11217 0.90966,0.005 2.66081,0.48645 3.1769,0.13963 -0.32635,-0.32524 -2.07059,-0.61409 -0.12259,-0.73124 1.00712,-0.56528 3.23582,-0.98068 3.20349,-2.03401 0.74723,-1.06065 5.39658,-2.18094 3.36121,-3.66525 1.09703,-1.51597 2.93759,-3.63234 -0.10559,-4.68361 0.59972,-3.25705 6.30814,1.39267 5.14735,-2.03362 -1.52042,-2.47186 14.03585,-16.05279 5.26278,-15.99562 -4.87726,-1.41876 -8.9057,-0.61578 -14.03963,-4.58334 -7.72397,-7.52276 -21.00649,-3.84216 -28.04276,-0.60609 -3.83747,3.85243 -8.10001,5.96906 -12.27876,7.35734 -9.133501,-2.70708 -3.133972,5.2197 -2.907465,8.01957 1.303705,2.2866 -1.510142,2.37629 -2.198204,3.21195 z"
           sodipodi:nodetypes="sccccccccccccccccccccccccccccccccccccccccccccccccccccss" />
        <path
           id="path188"
           style="fill:#ff6600;fill-opacity:1;stroke:#ff6600;stroke-width:0.264583px;stroke-linecap:butt;stroke-linejoin:miter;stroke-opacity:1"
           d="m 109.48207,266.54002 c 0.0713,0.0618 0.16144,0.12653 0.25107,0.19016 0.0827,0.0476 0.31908,0.0774 0.36863,0.0673 0.0729,-0.009 0.0117,-0.0513 -0.009,-0.0825 -0.0668,-0.0619 -0.1436,-0.1318 -0.39028,-0.22115 -0.10903,-0.0471 -0.29991,-0.0715 -0.27557,-0.0413 -0.0143,0.0222 0.0212,0.0554 0.0548,0.0875 z" />
        <path
           id="path195"
           style="fill:#ff6600;fill-opacity:1;stroke:#ff6600;stroke-width:0.264583px;stroke-linecap:butt;stroke-linejoin:miter;stroke-opacity:1"
           d="m 119.5436,268.82586 c -0.0604,0.0139 -0.21551,0.004 -0.20181,0.0361 -0.0125,0.013 0.046,0.0399 0.11856,0.0363 0.30558,0.0223 0.61262,0.0452 0.9117,0.0642 0.0156,-0.0146 -0.0622,-0.0431 -0.0922,-0.0643 -0.0542,-0.0286 -0.1824,-0.0607 -0.28493,-0.069 -0.19199,-0.0186 -0.31404,-0.006 -0.4513,-0.003 z" />
      </g>
      <g
         id="g596">
        <path
           id="path220"
           style="fill:#666666;fill-opacity:1;stroke:#666666;stroke-width:0.264583px;stroke-linecap:butt;stroke-linejoin:miter;stroke-opacity:1"
           d="m 90.068147,255.26809 c -0.161354,-0.77739 0.258281,-1.71376 -0.155543,-2.57565 -0.242708,-0.18585 -0.445363,-0.71209 0.05821,-0.84952 0.461768,-0.006 1.020258,-0.0353 1.295282,0.28021 0.170428,0.26753 0.07429,0.61274 0.17664,0.89332 0.0485,0.25302 0.149777,0.63011 0.578845,0.56201 0.340422,-0.0746 0.777619,-0.15564 0.938517,-0.47271 0.208549,-0.38129 0.292147,-0.78807 0.430769,-1.20223 0.106764,-0.4133 0.157763,-0.83698 0.185047,-1.26951 0.480851,0.25798 0.8718,0.66086 1.554831,0.62116 0.581434,4.7e-4 0.175181,0.58502 -0.09672,0.85248 -0.299324,0.34811 -0.61787,0.70559 -0.713534,1.06 -0.0061,0.40917 0.684738,0.45908 1.168557,0.25594 0.493578,0.0503 1.19351,-0.10051 1.588888,-0.52956 0.237252,-0.32129 1.031361,-0.55734 0.779515,-0.0708 -0.05085,0.40481 0.594813,0.52155 0.398575,0.94892 -0.197431,0.31668 -0.721313,0.45964 -1.103326,0.58559 -0.471786,0.12406 -0.915808,0.31849 -1.311841,0.55279 -0.443277,0.24237 -0.884068,0.51907 -1.089475,0.8486 -0.532521,-0.0775 -0.78698,-0.43297 -1.325098,-0.52239 -1.015615,-0.25181 -2.232224,-0.28418 -3.358673,0.0314 z" />
        <path
           id="path227"
           style="fill:#ff2a2a;fill-opacity:1;stroke:#ff2a2a;stroke-width:0.264583px;stroke-linecap:butt;stroke-linejoin:miter;stroke-opacity:1"
           d="m 88.976472,252.04451 c 0.761226,-0.15993 1.542957,-0.27108 2.328625,-0.47048 0.242298,-0.0847 0.0065,-0.29873 -0.02164,-0.42701 -0.17466,-0.311 -0.339308,-0.6369 -0.481985,-0.98401 -0.09558,-0.19993 -0.221411,-0.40107 -0.438747,-0.51158 -0.227197,0.0765 -0.31569,0.31013 -0.440765,0.47441 -0.39127,0.63882 -0.699154,1.27002 -0.934028,1.87791 l -0.0118,0.0407 z" />
        <path
           id="path233"
           style="fill:#ff2a2a;fill-opacity:1;stroke:#ff2a2a;stroke-width:0.264583px;stroke-linecap:butt;stroke-linejoin:miter;stroke-opacity:1"
           d="m 94.776558,248.75692 c 0.415747,0.0744 -0.318712,0.55504 -0.509159,0.72398 -0.431358,0.3424 -0.879705,0.64874 -1.252475,1.00578 0.266101,0.21958 0.786188,0.12694 1.165152,0.19111 0.769988,0.044 1.612757,0.0572 2.154677,0.41972 0.03054,0.17814 -0.199108,-0.24083 -0.241143,-0.33167 -0.34225,-0.68217 -0.551375,-1.52963 -1.317075,-2.00899 z" />
        <path
           id="path240"
           style="fill:#ff2a2a;fill-opacity:1;stroke:#ff2a2a;stroke-width:0.264583px;stroke-linecap:butt;stroke-linejoin:miter;stroke-opacity:1"
           d="m 97.510845,251.31939 c 0.486916,0.19113 0.43798,0.72574 0.597379,1.08996 0.198795,0.81053 0.239136,1.61869 0.397768,2.33375 0.597901,-0.30841 0.611552,-0.83189 1.235152,-1.1945 0.383046,-0.38766 1.245356,-0.77789 1.373686,-1.20202 -0.5448,-0.0849 -1.16077,-0.0914 -1.662386,-0.24611 -0.708308,-0.18333 -1.301873,-0.49859 -1.94162,-0.78104 z" />
      </g>
    </g>
    <g
       id="g530"
       transform="translate(17.131794,16.424074)">
      <g
         id="g434">
        <path
           id="path158"
           style="fill:#cc00ff;fill-opacity:1;stroke:#cc00ff;stroke-width:0.264583px;stroke-linecap:butt;stroke-linejoin:miter;stroke-opacity:1"
           d="m 118.78792,213.52527 c 0.8736,0.1057 2.47104,0.0141 0.91911,-0.20634 -0.39966,-0.20561 1.81362,0.0512 2.19173,0.23187 1.75326,0.18484 -1.32487,0.31068 -1.38763,0.57513 -1.52296,0.31858 2.11337,0.50921 1.85201,0.0545 1.30506,-0.21649 3.18482,-0.14593 4.69873,-0.24124 1.4234,-0.0617 3.64154,0.18546 2.83742,0.66913 0.75144,0.50839 3.41693,0.52704 3.64259,1.13225 2.61874,0.14986 1.14172,0.9369 -0.2404,0.95793 -0.74767,0.12394 -1.43117,0.61876 0.28116,0.42117 1.29549,-0.22683 3.60255,-0.37185 4.77491,0.63158 0.70333,0.32495 2.89485,1.3066 0.35406,0.54744 -1.78339,-0.65311 -1.45182,-0.22764 -0.21878,0.25762 -1.07292,0.45438 4.52111,1.23686 2.29092,1.58046 -1.37687,0.19354 -4.67976,-0.5259 -2.99448,0.78081 2.75142,2.26871 -3.80129,0.86529 -6.02758,-0.24945 0.42485,0.51286 6.12558,2.16297 2.09846,1.70883 -3.92374,-1.1829 -0.8335,2.07565 1.47435,2.35967 0.75929,1.69728 2.43007,3.66861 7.037,5.26903 -1.22654,2.24845 -8.79448,-1.93276 -12.34534,-2.53245 -4.6032,-1.06499 -9.00693,-2.20225 -13.1723,-2.09996 -3.96341,0.53115 -8.09903,1.07782 -11.90837,0.40459 -4.76119,-0.59911 -8.423681,4.99965 -14.654615,5.92224 -3.860851,0.41913 -10.527226,-1.65058 -15.94244,3.30254 -3.647513,0.10207 -1.05824,-2.12184 3.190994,-3.83117 -6.999237,1.42331 -9.176205,0.0768 -12.625083,-0.53769 -2.549483,-0.13488 9.990994,-4.32185 5.474337,-3.5725 -4.020777,2.01769 -11.68539,2.96172 -6.155163,0.62414 2.876402,-0.59665 8.63613,-2.14035 4.361436,-1.71178 -6.713855,1.4429 -1.825059,-1.78591 2.172174,-1.97 0.827665,-1.61984 2.2087,0.2961 5.756016,-1.30892 1.07299,0.17807 2.901808,0.94875 2.6773,-0.27608 -0.949164,-1.1609 4.940806,-1.17863 5.755268,-1.07569 4.785855,-1.39836 1.51876,-1.59978 -0.59353,-1.57928 -0.02422,-0.68062 4.149539,-0.78918 4.110601,-1.55899 1.982832,-0.66911 -3.058839,0.21899 0.322832,-0.60107 1.459835,-0.15457 3.357097,-0.4068 3.75147,-0.8791 1.914861,0.014 3.214817,0.42785 5.505721,0.35497 1.491142,0.0735 -1.663545,1.9423 1.550542,0.6141 1.57679,0.12288 5.02109,-0.37414 5.19486,0.54607 0.19888,-0.47059 2.26718,-0.62278 0.38772,-0.76926 -1.72545,-0.0547 -1.19505,-0.64806 0.59524,-0.62557 2.17073,-6.3e-4 4.2277,-0.53893 5.17678,-1.11961 -0.77835,-0.28011 -2.35058,0.3156 -2.78014,-0.10099 -1.21982,0.17835 -3.42698,0.12903 -1.97581,-0.41601 1.07642,-0.32863 3.91734,0.29749 2.92162,-0.41282 0.12938,-0.31099 1.35446,0.31809 1.72688,-0.18419 -0.73253,-0.20707 0.95918,-0.25504 -0.0216,-0.38001 0.11478,-0.23853 1.63738,-0.17051 1.18929,-0.48035 0.89452,-0.36366 1.58964,0.25497 2.29216,-0.15741 0.63105,-0.10784 1.77169,0.35334 1.3289,-0.0923 0.8809,-0.13648 1.0867,0.63773 1.13713,0.066 0.74404,-0.32665 1.32532,0.50069 0.61265,0.64516 1.34127,-0.0406 0.94786,-0.39867 0.8714,-0.61652 l 0.25185,-0.0411 0.27547,-0.0294 z" />
        <path
           id="path163"
           style="fill:#cc00ff;fill-opacity:1;stroke:#cc00ff;stroke-width:0.264583px;stroke-linecap:butt;stroke-linejoin:miter;stroke-opacity:1"
           d="m 89.101408,216.79946 c -0.03679,0.14154 -0.365575,0.34105 -0.953248,0.50849 -0.344314,0.0853 -0.72801,0.1328 -1.07498,0.22779 -0.08953,0.0481 0.328376,-0.0657 0.415347,-0.0783 0.337858,-0.0695 0.67811,-0.16503 1.010229,-0.20785 0.661852,-0.0854 1.314331,-0.12798 1.98113,-0.27692 0.444257,-0.10359 0.7566,-0.26152 0.729768,-0.35929 -0.04959,-0.0666 -0.408471,-0.036 -0.691742,-0.003 -0.461392,0.0523 -0.950415,0.14014 -1.416504,0.18883 z" />
        <path
           id="path169"
           style="fill:#cc00ff;fill-opacity:1;stroke:#cc00ff;stroke-width:0.264583px;stroke-linecap:butt;stroke-linejoin:miter;stroke-opacity:1"
           d="m 83.308108,218.35127 c -0.286828,0.16153 0.08804,0.20509 0.495241,0.1855 0.615159,-0.0115 1.410124,-0.11402 1.947849,-0.0907 0.288513,0.0553 -0.07159,0.26344 -0.429652,0.42219 -0.661517,0.28611 -1.617908,0.59037 -2.611833,0.79226 -0.524451,0.11429 -0.82575,0.0257 -0.383857,-0.14303 0.462514,-0.18159 1.196171,-0.33221 1.489856,-0.51491 0.187229,-0.16087 -0.369156,-0.13018 -0.776455,-0.0987 -0.471272,0.0427 -0.591501,-0.072 -0.152814,-0.23398 0.316043,-0.12605 0.301023,-0.21554 0.421678,-0.31862 z" />
        <path
           id="path176"
           style="fill:#cc00ff;fill-opacity:1;stroke:#cc00ff;stroke-width:0.264583px;stroke-linecap:butt;stroke-linejoin:miter;stroke-opacity:1"
           d="m 73.228474,222.017 c -0.152449,0.12194 -0.438665,0.27342 -0.430483,0.36632 0.106436,0.0627 0.516331,0.0153 0.88424,-0.0336 0.258965,-0.0384 0.562999,-0.0912 0.84763,-0.17892 0.246405,-0.0849 0.208919,-0.13989 0.13683,-0.16575 -0.132404,-0.048 -0.349214,-0.0684 -0.587857,-0.0781 -0.207284,0.008 -0.504461,0.0611 -0.732295,0.0779 -0.03848,0.004 -0.07851,0.008 -0.11804,0.0121 z" />
        <path
           id="path202"
           style="fill:#cc00ff;fill-opacity:1;stroke:#cc00ff;stroke-width:0.264583px;stroke-linecap:butt;stroke-linejoin:miter;stroke-opacity:1"
           d="m 60.689308,230.96074 c -1.061969,0.28482 -2.341882,0.76788 -3.335068,0.95701 -0.416849,0.12402 0.08412,0.10267 -0.127555,0.22461 -0.105008,0.26697 0.252788,0.41346 1.255959,0.19025 0.716381,-0.20007 1.484177,-0.49893 2.189483,-0.76681 0.600823,-0.23714 1.244441,-0.50251 1.633337,-0.74162 0.294526,-0.21561 -0.214868,-0.15138 -0.613858,-0.0755 -0.312978,0.0569 -0.661078,0.13672 -1.004469,0.21304 z" />
        <path
           id="path209"
           style="fill:#cc00ff;fill-opacity:1;stroke:#cc00ff;stroke-width:0.264583px;stroke-linecap:butt;stroke-linejoin:miter;stroke-opacity:1"
           d="m 48.41489,234.90749 c 0.567052,0.13667 0.621887,0.48124 0.856479,0.75864 -0.08811,0.36816 0.2022,0.63127 1.320972,0.49215 0.812956,-0.10248 1.870417,-0.74478 2.077211,-0.98867 0.419091,-0.34341 0.634312,-0.62843 0.39053,-0.73872 -0.38848,-0.26068 -0.890962,-0.47511 -1.741495,-0.53488 -0.268152,-0.0254 -0.855822,-0.0213 -1.659966,0.39184 -0.427132,0.20582 -0.808254,0.40839 -1.243507,0.61955 z" />
      </g>
      <g
         id="g518">
        <path
           id="path248"
           style="fill:#666666;fill-opacity:1;stroke:#666666;stroke-width:0.264583px;stroke-linecap:butt;stroke-linejoin:miter;stroke-opacity:1"
           d="m 129.91972,216.26643 c 0.26334,0.25978 0.16495,0.51112 0.49259,0.79592 0.53269,0.0785 1.02528,0.0605 1.54306,0.0955 0.61161,0.0282 1.22481,0.007 1.89988,0.1452 0.53036,0.14715 0.73918,0.0379 0.48009,-0.1253 -0.30455,-0.26446 -0.43666,-0.50882 -0.6473,-0.74878 -0.0824,-0.1257 -0.28932,-0.29608 -0.77184,-0.28257 -0.34102,-0.003 -0.75298,-0.0682 -1.06005,-0.0505 -0.0408,0.12753 0.4238,0.30231 0.4181,0.44642 -0.0541,0.10472 -0.56869,0.0294 -0.83246,0.0494 -0.51491,-0.0624 -0.2629,-0.23235 -0.35513,-0.33755 0.051,-0.11505 -0.32685,-0.21983 -0.67813,-0.21666 -0.33629,-0.0587 -0.74809,-0.0401 -0.57969,0.0951 0.0536,0.0446 0.0673,0.0899 0.0905,0.1339 z" />
        <path
           id="path255"
           style="fill:#0066ff;stroke:#0066ff;stroke-width:0.264583px;stroke-linecap:butt;stroke-linejoin:miter;stroke-opacity:1"
           d="m 132.68413,216.10621 c -0.21529,-0.12689 -0.38384,-0.25284 -0.48177,-0.37307 -0.14013,-0.0725 0.006,-0.10404 0.22869,-0.0721 0.25616,0.0158 0.48774,-0.007 0.76429,0.0397 0.1463,0.0475 0.16357,0.10453 0.19114,0.15288 -0.007,0.0768 -0.30772,0.0946 -0.58215,0.0469 -0.27325,-0.0189 -0.19303,0.0866 -0.15792,0.14632 0.0117,0.0196 0.0246,0.0395 0.0377,0.0594 z" />
      </g>
    </g>
    <g
       id="g514"
       transform="matrix(1.3189973,0,0,1.3189973,-14.859981,-58.249332)">
      <path
         id="path55"
         style="fill:#0000ff;stroke:#0000ff;stroke-width:0.264583px;stroke-linecap:butt;stroke-linejoin:miter;stroke-opacity:1"
         d="m 148.5695,223.74767 c -0.56042,0.074 -1.08527,0.5247 -1.12292,1.10938 -0.0374,0.39072 -0.0294,0.82439 -0.30678,1.13788 -0.46807,0.61733 -1.05013,1.17374 -1.34784,1.90255 -0.0787,0.19123 -0.16181,0.68007 0.18034,0.59722 0.32027,-0.0459 0.6409,-0.0895 0.96119,-0.13473 0.41838,-0.0626 0.7961,-0.31431 1.00765,-0.68172 0.24617,-0.41538 0.52615,-0.81748 0.90715,-1.12149 0.37712,-0.35884 0.7882,-0.68434 1.2529,-0.92296 0.11385,-0.057 0.33397,-0.14337 0.0933,-0.22991 -0.36695,-0.25307 -0.84621,-0.40572 -1.06724,-0.82129 -0.14098,-0.2709 0.0694,-0.52812 0.23817,-0.72388 0.2036,-0.23027 -0.0268,-0.61316 -0.30581,-0.6317 -0.26058,0.0218 -0.40832,0.30439 -0.49011,0.52065 z" />
      <path
         id="path325"
         style="fill:#666666;fill-opacity:1;stroke:#666666;stroke-width:0.264583px;stroke-linecap:butt;stroke-linejoin:miter;stroke-opacity:1"
         d="m 146.81306,224.22585 c -0.24629,0.75782 -0.32171,1.56925 -0.26275,2.36107 0.10977,0.34277 0.52673,0.2971 0.80943,0.35725 0.46866,0.11321 0.91161,0.3234 1.39441,0.37894 0.29259,0.10881 0.80639,0.21036 0.82234,-0.24436 0.14905,-0.70748 0.3432,-1.4064 0.45398,-2.12231 -0.25134,-0.26929 -0.64898,-0.27386 -0.97127,-0.40931 -0.46091,-0.14046 -0.36204,0.41322 -0.42066,0.69055 0.0112,0.41642 -0.36857,0.45853 -0.68271,0.33085 -0.24289,-0.33618 0.25174,-0.85809 0.10704,-1.26475 -0.26565,-0.19245 -0.67333,-0.27567 -0.98481,-0.21076 -0.0882,0.0443 -0.16958,0.10384 -0.265,0.13283 z" />
      <path
         id="path332"
         style="fill:#ff2a2a;fill-opacity:1;stroke:#ff2a2a;stroke-width:0.264583px;stroke-linecap:butt;stroke-linejoin:miter;stroke-opacity:1"
         d="m 149.69699,223.19433 c -0.16015,0.52694 -0.45238,1.01664 -0.85361,1.39504 -0.078,0.0715 -0.19228,0.1223 -0.22537,0.23 0.0361,0.0458 0.15807,-2.3e-4 0.22834,0.005 0.20406,-0.0197 0.41558,-0.0305 0.61216,0.0389 0.1529,0.0399 0.30978,0.0796 0.44418,0.16611 0.01,0.0761 0.14103,0.20722 0.14122,0.0557 0.009,-0.3352 -0.0731,-0.66324 -0.13005,-0.99122 -0.0609,-0.30246 -0.12616,-0.6049 -0.21687,-0.89983 z" />
      <path
         id="path339"
         style="fill:#ff2a2a;fill-opacity:1;stroke:#ff2a2a;stroke-width:0.264583px;stroke-linecap:butt;stroke-linejoin:miter;stroke-opacity:1"
         d="m 147.7793,222.78841 c -0.21631,0.31262 -0.49578,0.5759 -0.74448,0.86246 -0.21928,0.2394 -0.43914,0.47834 -0.65277,0.72283 0.12662,0.16333 0.38902,0.0645 0.57612,0.0806 0.28162,-0.0319 0.56611,-0.0246 0.84242,0.0418 0.15982,-0.008 0.42055,0.1343 0.51697,0.0259 -0.0181,-0.21282 -0.12727,-0.40861 -0.17088,-0.61815 -0.11638,-0.37376 -0.23889,-0.74561 -0.36738,-1.11538 z" />
    </g>
    <g
       id="g590"
       transform="matrix(1.3189973,0,0,1.3189973,-50.309417,-60.755616)">
      <g
         id="g420"
         transform="translate(18.813098,-6.3793472)">
        <path
           id="path50"
           style="fill:#00d455;stroke:#00d455;stroke-width:0.264583px;stroke-linecap:butt;stroke-linejoin:miter;stroke-opacity:1"
           d="m 142.74849,199.40486 c -0.8578,1.7895 -3.74266,0.45678 -4.4346,2.21114 0.18045,0.31076 1.37548,0.31027 0.22668,1.0815 1.41534,0.55417 -1.92681,1.87542 0.42684,1.70326 0.033,0.91125 -2.89511,2.81065 -0.46808,1.78821 -1.90059,1.68018 0.0968,1.35385 -1.11271,3.17753 3.72642,-0.7401 2.42413,-4.48662 5.13981,-5.94846 2.71099,-1.29863 -2.33443,2.35133 -0.83471,3.10286 -0.15001,2.51671 2.2176,-0.68103 1.88105,-1.40343 0.14132,0.95843 1.39794,2.84692 1.8753,0.6692 -1.25244,-0.48231 -0.48295,-3.89417 0.79756,-3.42275 -0.63085,1.3901 -0.45134,2.43207 1.4606,1.98862 0.83431,0.56723 2.87365,1.12718 0.29052,1.07472 -1.72358,0.3735 0.25573,1.50384 -1.86255,2.1356 -1.40735,1.80861 4.34488,0.73023 2.57247,3.36569 1.45033,0.90926 -2.54064,2.25766 -1.35508,3.93193 -0.64599,1.6071 -2.57221,4.96031 -2.23537,5.54295 -2.62035,-1.12187 -0.0911,3.26506 1.64365,2.71061 0.66316,0.77554 1.63539,6.01538 1.93139,2.02544 -1.23617,-1.16864 -1.30725,-4.30958 1.06442,-2.58076 1.77178,0.0534 5.92209,1.78472 3.49282,-1.25355 -1.77445,-2.53874 2.74299,-0.15727 3.68281,-0.43966 0.14254,-2.24726 1.73225,0.45333 2.50441,-1.54579 0.92143,-1.79026 3.3006,-2.42605 2.42415,-4.14447 1.70296,-0.62189 5.54472,-2.02035 2.94936,0.29959 -1.51402,0.8304 1.72124,1.02262 -1.07944,1.72657 -1.36229,2.17028 0.82968,4.24323 -0.51396,6.7025 0.98478,2.79074 5.98298,-0.43997 4.29942,3.69516 1.73938,1.00086 2.22742,-4.2058 2.55501,-0.73416 0.18606,2.09778 0.81035,3.8102 1.5194,0.75718 0.37725,-2.77934 3.94557,-2.2161 2.41171,0.0892 -1.29888,0.74039 2.54376,3.08752 -0.42271,4.1424 -2.27464,3.37058 3.6837,2.76065 1.43223,5.78354 1.21577,6.42281 4.91946,-1.08959 7.63023,-1.27789 3.52806,0.31038 6.64598,-1.13234 8.28263,-4.12122 1.40847,-2.32633 2.02067,-5.13753 3.80173,-7.03004 0.88249,-2.71116 3.95277,-3.09115 5.50587,-4.50549 -2.0159,-1.71896 -2.2416,-4.37252 -5.13567,-4.45066 -1.56019,-1.92037 -4.1975,-3.62816 -6.4023,-3.05923 -1.63864,0.27798 -3.25501,0.962 -4.55632,-0.39266 -2.67376,-0.42295 -3.5826,-3.81378 -5.97293,-4.93555 -0.86289,-0.95008 -0.50943,-2.30059 -2.22689,-2.9688 -0.70464,-2.71247 -4.84435,-1.44365 -5.61789,-3.79964 -2.17028,0.35328 -5.11184,-2.09059 -6.62937,-0.4681 -0.43654,2.39373 -4.36377,0.94648 -6.53903,1.7427 0.51096,-1.18856 3.99268,-0.95943 4.32753,-2.67574 0.58343,-0.64403 4.44877,-1.31708 2.18369,-2.01726 -1.41212,0.41382 -1.797,0.23603 -1.52675,-0.71654 -1.10689,-0.35561 -2.8707,1.99877 -2.31032,0.074 2.7804,-0.96799 4.6788,-2.58564 4.68256,-4.66152 0.40173,-0.76158 0.0359,-1.4897 0.66871,-2.14664 -1.3102,-1.18502 -0.66126,-2.25536 0.10295,-3.15022 -0.0788,-1.56383 -2.93999,-1.48096 -4.35413,-0.78964 -1.74227,-0.0475 -3.32827,-0.0798 -4.69793,0.51325 -2.28832,-0.77925 -4.61171,0.75936 -2.56026,1.88832 1.09568,1.45794 -1.26827,2.76038 -2.34065,4.11578 -2.69765,1.60286 -4.68206,3.77526 -7.0649,5.96361 -0.33456,0.3794 -1.00899,0.4232 -1.51296,0.63679 z" />
        <path
           id="path60"
           style="fill:#00d455;stroke:#00d455;stroke-width:0.264583px;stroke-linecap:butt;stroke-linejoin:miter;stroke-opacity:1"
           d="m 129.59279,210.36643 c 0.38986,-0.42087 0.20791,-0.97123 -0.41879,-0.94992 -0.42811,0.0255 -0.80393,0.33269 -1.0242,0.61115 -0.29821,0.35703 -0.60102,0.72638 -0.78819,1.106 -0.13023,0.39973 0.045,0.81278 0.53876,0.90154 0.4385,0.0505 0.94838,-0.23591 1.31516,-0.49847 0.227,-0.13371 0.36049,-0.37722 0.55458,-0.49001 -0.0696,0.41087 -0.32539,0.89366 -0.0722,1.22818 0.20774,0.21663 -0.15159,0.49569 -0.4906,0.63225 -0.23012,0.10976 -0.7851,0.39623 -0.4812,0.5246 0.41434,0.0593 0.89453,0.11643 1.37604,-0.11118 0.94588,-0.39775 1.8676,-0.83289 2.72929,-1.32194 0.33443,-0.13518 0.35392,-0.42452 0.19609,-0.56547 -0.25062,-0.23767 -0.72661,-0.35635 -0.74176,-0.72353 -0.0578,-0.6875 0.0165,-1.40269 -0.1682,-2.0354 -0.0171,-0.19681 -0.35594,-0.26218 -0.62333,-0.14897 -0.61274,0.40897 -0.78023,1.0042 -1.39809,1.42974 -0.17456,0.13193 -0.35694,0.26296 -0.50333,0.41143 z" />
        <path
           id="path65"
           style="fill:#00d455;stroke:#00d455;stroke-width:0.264583px;stroke-linecap:butt;stroke-linejoin:miter;stroke-opacity:1"
           d="m 137.19552,211.98767 c -0.5091,0.8878 -0.13973,1.70746 -0.30741,2.5945 -0.30034,0.60155 -0.96935,1.1354 -1.23789,1.76469 0.59706,0.43592 1.67091,0.53266 2.58015,0.012 0.43568,-0.23194 1.01511,-0.66395 0.70542,-1.00748 -0.27182,-0.43609 -0.7073,-0.8045 -0.76381,-1.32946 0.032,-0.55231 0.84218,-0.95664 1.03367,-1.48525 0.40811,-0.69393 0.80392,-1.38154 0.9926,-2.07156 0.10728,-0.37405 0.26849,-0.74653 0.37434,-1.11101 -0.12963,-0.34621 -0.91301,-0.21243 -1.35628,-0.0897 -0.77642,0.50233 -0.95525,1.26379 -1.3539,1.91801 -0.16517,0.28113 -0.37687,0.56348 -0.66689,0.80528 z" />
        <path
           id="path75"
           style="fill:#00d455;stroke:#00d455;stroke-width:0.264583px;stroke-linecap:butt;stroke-linejoin:miter;stroke-opacity:1"
           d="m 141.9006,210.12368 c -0.27108,0.14784 -0.62954,0.25933 -0.76298,0.51549 -0.13318,0.18735 -0.31386,0.43514 -0.14753,0.59284 0.17654,0.17054 0.54166,0.22787 0.5631,0.4931 -0.0108,0.27465 -0.29469,0.5453 -0.30315,0.82336 0.134,0.26385 0.36278,0.52544 0.7645,0.55671 0.55233,0.0469 1.10497,0.11049 1.6849,0.0602 0.29906,0.006 0.41344,-0.28504 0.44327,-0.468 0.0699,-0.42984 -0.0482,-0.88818 -0.48132,-1.09076 -0.2618,-0.0958 -0.59664,-0.11395 -0.78428,-0.29137 -0.0845,-0.20528 0.15744,-0.42747 0.34647,-0.59613 0.2301,-0.18029 0.38739,-0.45947 0.23789,-0.64692 -0.16771,-0.26144 -0.46958,-0.46284 -0.85073,-0.53465 -0.26062,-0.0477 -0.56689,0.12388 -0.63609,0.33928 -0.0381,0.0816 -0.0595,0.16468 -0.074,0.24685 z" />
        <path
           id="path138"
           style="fill:#00d455;stroke:#00d455;stroke-width:0.264583px;stroke-linecap:butt;stroke-linejoin:miter;stroke-opacity:1"
           d="m 134.79819,206.3112 c -0.52849,0.12105 -1.08316,0.56123 -0.98405,0.92762 0.0934,0.34836 0.71142,0.16616 1.03051,0.22922 -0.15108,0.33134 -0.77049,0.45918 -1.06291,0.74966 -0.36329,0.39371 -0.17761,0.7902 -0.11574,1.14966 0.0254,0.24196 0.41994,0.40312 0.75695,0.16787 0.39206,-0.31079 0.48867,-0.70686 0.64562,-1.05781 0.22912,-0.62043 0.42915,-1.2528 0.95616,-1.8205 0.36652,-0.42672 0.73008,-0.87299 0.79305,-1.32335 0.13989,-0.247 0.0998,-0.57806 -0.36546,-0.47078 -0.50895,0.0277 -0.86221,0.4093 -1.09324,0.71352 -0.18547,0.24322 -0.33837,0.49747 -0.56095,0.7349 z" />
      </g>
      <g
         id="g484"
         transform="translate(19.84433,-4.6064599)">
        <path
           style="fill:#666666;stroke:#666666;stroke-width:0.264583px;stroke-linecap:butt;stroke-linejoin:miter;stroke-opacity:1"
           d="m 159.27554,201.22925 c 0.51873,0.35781 1.06254,0.70016 1.55608,1.08763 0.0328,0.0257 0.0572,0.0569 0.0836,0.0865 0.0206,0.0231 0.0496,0.0443 0.0917,0.0396 0.0827,-0.009 0.15822,-0.0394 0.23837,-0.0564 0.24081,-0.0512 0.46439,-0.13927 0.68468,-0.22659 0.24479,-0.097 0.48902,-0.1973 0.75204,-0.25689 0.19237,-0.0436 0.39712,-0.0655 0.59468,-0.0383 0.12497,0.0172 0.25013,0.0425 0.37746,0.0397 0.0446,-0.001 0.0981,0.002 0.13071,-0.0235 0.0317,-0.0245 0.0523,-0.0568 0.0672,-0.0891 0.0472,-0.10222 0.0171,-0.21409 0.0551,-0.31706 0.0459,-0.12461 0.11251,-0.24333 0.18107,-0.36022 0.0462,-0.0787 0.0889,-0.15849 0.13864,-0.23543 0.0498,-0.0771 0.10816,-0.1504 0.16242,-0.22517 0.0688,-0.0948 0.13987,-0.18918 0.1863,-0.29131 0.0205,-0.0451 0.0368,-0.0923 0.0356,-0.14099 -7.7e-4,-0.0307 -0.0309,-0.054 -0.0609,-0.0721 -0.0742,-0.0448 -0.15656,-0.081 -0.23996,-0.11448 -0.0894,-0.0359 -0.1785,-0.0739 -0.27473,-0.0974 -0.0354,-0.009 -0.0712,-0.0165 -0.10529,-0.028 -0.1296,-0.0436 -0.23323,-0.11926 -0.35417,-0.17353 -0.0316,-0.0142 -0.0776,-0.0583 -0.099,-0.0362 -0.0221,0.0229 -0.0287,0.0534 -0.0383,0.0809 -0.0519,0.14832 -0.0969,0.29865 -0.1456,0.44894 -0.0578,0.17839 -0.11231,0.35867 -0.18678,0.53543 -0.0241,0.0572 -0.0401,0.11846 -0.0833,0.16917 -0.0105,0.0124 -0.0226,0.045 -0.0389,0.0346 -0.0315,-0.02 -0.039,-0.0545 -0.0496,-0.0833 -0.0216,-0.0586 -0.0331,-0.11901 -0.0528,-0.1778 -0.0829,-0.24828 -0.16975,-0.49428 -0.24719,-0.74046 -0.0294,-0.0936 -0.0508,-0.18983 -0.10326,-0.27729 -0.0164,-0.0274 -0.022,-0.0693 -0.0623,-0.0786 -0.15959,-0.0369 -0.33,-0.0364 -0.49464,-0.0208 -0.29166,0.0277 -0.57366,0.0998 -0.86782,0.12355 -0.0731,0.006 -0.14677,0.008 -0.2201,0.005 -0.0517,-0.002 -0.0945,0.0279 -0.10969,0.0637 -0.0211,0.0496 -0.0185,0.10266 -0.0111,0.15352 0.0168,0.11618 0.0568,0.22973 0.10128,0.34182 0.0771,0.19432 0.16515,0.38713 0.26863,0.5759 0.0164,0.0299 0.0253,0.0622 0.0452,0.091 0.0466,0.0676 0.11555,0.12487 0.16108,0.19303 0.009,0.0129 0.0277,0.0466 -0.003,0.0455 -0.0458,-0.002 -0.0905,-0.0117 -0.13412,-0.0217 -0.1326,-0.0304 -0.25206,-0.0875 -0.35178,-0.15917 -0.15066,-0.10826 -0.26198,-0.24181 -0.39203,-0.36254 -0.10305,-0.0957 -0.21623,-0.19125 -0.36465,-0.24487 -0.0385,-0.0139 -0.07,-0.0352 -0.10116,-0.0568 -0.0279,-0.0194 -0.0554,-0.0497 -0.0962,-0.0477 -0.0429,0.002 -0.0737,0.0298 -0.0978,0.0537 -0.063,0.0622 -0.11002,0.13245 -0.15385,0.20303 -0.0733,0.11805 -0.13453,0.2403 -0.19475,0.36313 -0.0373,0.076 -0.089,0.14773 -0.12939,0.22324 -0.0168,0.0313 -0.0325,0.063 -0.0476,0.0948 z"
           id="path346" />
        <path
           id="path350"
           style="fill:#ff2a2a;fill-opacity:1;stroke:#ff2a2a;stroke-width:0.264583px;stroke-linecap:butt;stroke-linejoin:miter;stroke-opacity:1"
           d="m 160.85437,198.62337 c -0.44967,0.21893 -0.48646,0.65456 -0.76109,0.97136 -0.26509,0.10022 -0.29855,0.35437 0.065,0.28065 0.90086,-0.0225 1.78542,-0.14287 2.66568,-0.21987 0.10852,0.002 0.50891,0.0543 0.23815,-0.0711 -0.28001,-0.12495 -0.51748,-0.29614 -0.79115,-0.42818 -0.30623,-0.14068 -0.51396,-0.39371 -0.87855,-0.45842 -0.12401,-0.10937 -0.26119,-0.3333 -0.45528,-0.12388 l -0.0407,0.0253 z" />
      </g>
      <g
         id="g489"
         transform="translate(19.84433,-4.6064599)">
        <path
           id="path357"
           style="fill:#666666;stroke:#666666;stroke-width:0.264583px;stroke-linecap:butt;stroke-linejoin:miter;stroke-opacity:1"
           d="m 150.04303,203.11381 c 0.22087,0.53908 0.0765,1.15903 0.2311,1.72919 0.28651,0.14566 0.67457,-0.0738 1.00457,-0.0491 0.55654,-0.0723 1.11879,-0.11844 1.65786,-0.067 0.31131,-0.0115 0.9137,0.0807 0.77806,-0.31425 0.0354,-0.59448 -0.0391,-1.17763 0.0176,-1.75381 0.20596,-0.34758 -0.21817,-0.49091 -0.60857,-0.44244 -0.37509,-0.006 -1.06417,-0.0497 -1.14839,0.34508 -0.0459,0.35877 0.19887,0.6891 0.0877,1.05843 -0.22721,0.15723 -0.74701,0.30207 -0.85039,0.0292 -0.14233,-0.36938 0.08,-0.82881 -0.23075,-1.14417 -0.3596,-0.0916 -0.81647,0.0227 -1.15224,0.18323 -0.11661,0.17162 0.11603,0.30563 0.21344,0.42567 z" />
        <path
           id="path364"
           style="fill:#ff2a2a;stroke:#ff2a2a;stroke-width:0.264583px;stroke-linecap:butt;stroke-linejoin:miter;stroke-opacity:1"
           d="m 152.57465,201.43553 c 0.0183,0.10745 -0.1085,0.19917 -0.16825,0.29534 -0.15678,0.19388 -0.33976,0.38004 -0.47211,0.58574 0.0319,0.0861 0.2096,0.0172 0.30604,0.0156 0.34103,-0.0501 0.68137,-0.109 1.01234,-0.19268 0.14551,-0.0388 0.30056,-0.10221 0.45116,-0.0806 0.0642,0.012 0.25689,0.13748 0.1355,0.0397 -0.20119,-0.15271 -0.46563,-0.25252 -0.64723,-0.41933 -0.16403,-0.12784 -0.39817,-0.18097 -0.61747,-0.24384 z" />
        <path
           id="path370"
           style="fill:#ff2a2a;fill-opacity:1;stroke:#ff2a2a;stroke-width:0.264583px;stroke-linecap:butt;stroke-linejoin:miter;stroke-opacity:1"
           d="m 150.10248,201.82409 c -0.27036,0.23401 -0.51967,0.48467 -0.82226,0.70445 -0.0197,0.17362 0.33924,0.0325 0.46202,0.11977 0.18181,0.0582 0.38947,0.0203 0.58789,0.0103 0.36031,-0.0152 0.69918,0.0571 1.05566,0.0542 0.004,-0.16355 -0.20635,-0.26999 -0.31058,-0.3988 -0.17297,-0.15135 -0.33815,-0.31329 -0.5521,-0.43197 -0.12761,-0.0456 -0.28187,-0.0356 -0.42063,-0.0579 z" />
      </g>
    </g>
    <g
       id="g413"
       style="fill:#ff0066;stroke:#ff0066"
       transform="matrix(1.3189973,0,0,1.3189973,-25.182226,-52.538732)">
      <path
         id="path91"
         style="fill:#ff0066;stroke:#ff0066;stroke-width:0.264583px;stroke-linecap:butt;stroke-linejoin:miter;stroke-opacity:1"
         d="m 131.68362,182.69777 c 0.55744,0.12594 1.124,0.19222 1.70719,0.12897 0.33256,0.0115 0.8515,-0.0484 0.62207,-0.38021 -0.10507,-0.54144 -0.95161,-0.72015 -1.09181,-1.29478 -0.0434,-0.56625 0.758,-0.2847 1.10005,-0.19963 -0.14984,-0.0339 0.47196,0.12693 0.56413,0.24426 0.73393,0.52931 0.49863,1.43953 0.8379,2.05209 0.19006,0.28789 0.45702,0.53593 0.79043,0.69745 0.50382,0.15534 1.10349,-0.25585 1.63508,-0.28465 0.43849,-0.046 0.86528,-0.0586 1.30001,-0.15759 0.18907,0.21099 0.0664,0.60362 -0.18581,0.8845 -0.28808,0.31369 -0.66889,0.63621 -0.68825,0.96943 -0.0412,0.14511 -0.12306,0.63894 -0.38632,0.47181 -0.18566,-0.28408 -0.0582,-0.69467 -0.21099,-1.0141 -0.1036,-0.0668 -0.2303,-0.40822 -0.39041,-0.2682 -0.10941,0.22899 -0.0564,0.64765 -0.50889,0.68613 -0.38674,0.0635 -0.50522,-0.22143 -0.79535,-0.28375 -0.30882,0.13627 -0.39372,0.55237 -0.8224,0.46337 -0.39341,-0.005 -0.76026,-0.0799 -1.06986,-0.22607 -0.23178,-0.0425 -0.82172,-0.0524 -0.33218,-0.30628 0.62484,-0.2547 -0.0236,-0.55359 -0.38277,-0.59727 -0.43938,-0.21917 -0.89935,0.0441 -1.02131,0.419 -0.19864,0.44909 -0.95939,0.36473 -1.24356,0.10223 -0.29424,-0.15334 -0.62645,-0.62411 -0.0126,-0.7527 0.44997,-0.098 1.1471,-0.21507 0.82441,-0.64314 -0.19464,-0.20934 -0.33272,-0.41863 -0.2388,-0.71088 z" />
      <path
         id="path81"
         style="fill:#ff0066;stroke:#ff0066;stroke-width:0.264583px;stroke-linecap:butt;stroke-linejoin:miter;stroke-opacity:1"
         d="m 142.21482,157.87429 c 1.03676,-1.92951 3.47323,-2.49864 2.59498,-6.03104 1.82517,-2.13509 2.2683,-0.11911 2.43237,2.38747 0.5573,1.56687 1.57765,-4.12329 1.63375,0.0461 -0.50156,1.74212 -1.88065,5.36251 -0.0691,2.10965 0.30181,-3.51545 3.78659,-5.94221 2.48345,-1.12286 -1.49675,3.50336 0.83533,1.53617 0.87722,-0.90373 1.3678,-2.35008 2.54349,0.44863 3.85111,-3.2061 1.95703,-2.05288 2.28039,4.03863 4.59705,-1.28425 2.18157,-4.92384 2.28492,2.77063 3.75918,-3.00913 1.93234,-2.84925 2.60135,-0.0749 3.85734,-0.91656 -1.81942,3.89047 -3.62994,7.61805 -3.7346,9.84723 -1.87489,2.63924 -3.87678,5.30595 -5.56906,6.65044 -1.51314,0.13856 -2.11725,3.94696 -3.78513,4.37254 -1.30508,0.87732 -2.24782,2.64132 -2.83304,3.72229 -0.63441,0.13867 -2.78789,1.52542 -1.15279,1.21545 0.92991,-0.006 2.19279,-0.42611 3.12441,-1.51373 -0.44673,1.89994 -2.49431,3.05007 -3.48368,3.71774 0.0518,0.41886 0.74433,0.68402 -0.25207,1.47201 -1.02024,0.93654 -1.34674,2.13367 -1.97201,3.0867 -0.0313,0.50472 -0.87962,1.87926 -0.003,0.5802 0.88798,-1.36558 2.21515,-2.64012 3.11795,-4.23629 0.98293,-0.20261 1.82173,-1.2338 2.80752,-2.17338 0.37985,0.5535 0.0726,1.81426 0.25099,2.50945 0.1231,0.86115 -0.34021,2.0973 -1.33958,3.15879 -1.52052,1.82187 -2.98352,3.50294 -4.57413,4.91426 -1.52031,1.48478 -2.72991,2.97461 -4.30549,4.18362 -0.71031,0.58431 -2.05298,1.15463 -2.10201,0.51289 -0.95978,0.16243 0.10791,-0.49435 0.38114,-0.77655 -0.5007,0.16057 -0.97386,0.2611 -0.27166,-0.27069 0.21301,-0.41184 1.19215,-1.2025 0.83143,-1.4065 -0.979,0.7855 -1.43918,1.67796 -2.26499,2.44521 -0.51838,0.78224 -1.48015,0.4919 -2.23354,0.73965 -0.50637,-0.16623 0.96066,-1.04974 0.55994,-0.99235 -0.69093,0.30048 -2.33994,1.46911 -2.27259,0.61156 0.80118,-0.58675 2.14078,-0.94859 2.68196,-1.69949 -0.10657,-0.45177 -1.5167,0.38827 -0.98379,-0.48021 -0.009,-0.63617 2.25688,-1.05928 0.99039,-1.20924 -1.68511,0.23558 0.52032,-1.42983 1.26029,-1.12198 0.97608,-0.55802 -0.55388,-0.80062 -1.15836,-0.57557 -0.0518,-0.46637 2.03933,-1.70486 0.42676,-0.84525 -1.03695,1.20123 -0.38218,-0.6012 -0.45685,-0.92077 -0.46093,0.1562 -1.37558,1.63732 -1.75423,0.83973 0.63112,-0.95817 -2.78246,-1.86033 -0.32394,-2.34237 0.60899,0.33401 2.94065,0.0176 1.21003,-0.2342 -0.95612,0.0734 -2.14625,-0.71078 -0.48016,-1.31942 1.00131,-0.57409 -1.67346,-0.56376 -1.34418,-1.63629 -0.26487,-2.68234 2.24104,1.36382 2.1995,-0.73342 -0.78058,-0.58349 -0.813,-2.16619 0.57358,-1.41091 1.05742,1.0587 1.28411,-0.38164 1.5439,-1.20685 1.53985,0.24857 1.56563,-1.54915 0.0163,-1.10913 -1.07295,0.27408 -3.73934,-1.11927 -1.1668,-1.67186 1.13457,-0.0622 2.27014,-1.01183 0.91786,-1.89116 -2.16815,0.42701 -2.06436,-3.39118 0.25798,-3.03297 0.93086,-0.017 3.67623,0.77897 3.39872,-0.78173 -1.56848,0.14126 -4.32382,-1.82116 -1.52701,-4.03695 1.92941,-1.57276 -1.19729,-1.40754 -1.22287,-3.02101 z" />
      <path
         id="path86"
         style="fill:#ff0066;stroke:#ff0066;stroke-width:0.264583px;stroke-linecap:butt;stroke-linejoin:miter;stroke-opacity:1"
         d="m 120.87559,169.95095 c 1.06665,-0.27698 2.11453,1.18662 2.6981,1.9374 0.91481,1.02515 -1.45106,0.60844 -0.44365,1.64487 -0.17517,0.69281 -1.07797,1.06558 -1.60191,0.0276 -0.46119,-0.68397 -1.42765,-1.80761 -2.39003,-1.40616 -1.88178,-0.55844 0.0489,1.36528 0.3451,1.96176 -0.0831,0.67303 -0.45132,1.68095 1.0687,1.89329 0.70496,0.28431 2.3866,0.36335 2.1622,1.07318 -0.29171,0.35537 -1.61805,0.67075 -0.26525,0.95207 0.83671,0.4439 2.12518,0.0294 2.57571,0.78306 0.15924,0.77669 -0.3317,1.45922 -0.83191,2.02709 -0.21429,0.29074 -1.22001,0.30076 -0.37324,0.68147 0.78505,0.36704 1.83029,0.60177 2.63788,0.34794 0.72296,-0.35245 0.38304,-1.08339 0.52217,-1.64012 0.0125,-0.54882 0.83659,-0.66407 1.11666,-1.0835 0.22995,-0.66547 -0.7092,-1.22946 -1.18946,-1.81471 -0.40828,-0.48037 -1.68929,-1.29024 -0.46107,-1.5269 0.42614,-0.30117 1.42887,-0.53096 1.48965,0.24545 -0.1202,0.78009 0.80768,1.37031 1.48388,0.77615 0.64375,-0.47375 1.26943,-1.10093 1.41129,-1.89886 -0.1934,-0.90267 -1.52063,-0.73868 -2.29542,-0.79494 -0.66207,0.22241 -1.4061,-0.46689 -0.7328,-0.89776 0.63731,-0.6445 1.7105,-0.75582 2.33684,-1.41751 -0.0726,-0.86943 1.1892,-0.82595 1.13282,-1.57149 -0.5387,-0.68601 -1.55038,-0.81635 -2.06758,-1.63758 0.0667,-1.05329 0.62097,-2.04537 0.13721,-3.3543 -0.36755,-1.42483 -1.31649,-2.85232 -1.60288,-4.5145 -0.86188,-2.54416 -2.17872,-0.27838 -2.0157,1.03166 -0.1965,1.36861 0.0229,3.00602 -0.94697,3.72244 -0.7422,0.54501 -1.65779,1.40935 -0.63641,2.62642 0.64274,1.19181 -1.75496,0.13566 -2.31525,0.54892 -0.87288,-0.01 -1.11209,0.52993 -0.94837,1.27799 z" />
      <path
         id="path96"
         style="fill:#ff0066;stroke:#ff0066;stroke-width:0.264583px;stroke-linecap:butt;stroke-linejoin:miter;stroke-opacity:1"
         d="m 122.43565,184.81821 c -0.1724,0.18065 -0.33202,0.42167 -0.1052,0.61093 0.26538,0.18336 0.73659,0.15362 1.07935,0.0925 0.26737,-0.0525 0.50253,-0.20343 0.80277,-0.14768 0.46355,0.0507 0.89342,0.22902 1.36594,0.1646 0.20547,-0.0295 0.4502,-0.15356 0.35413,-0.29259 -0.0995,-0.16756 -0.37935,-0.26355 -0.49873,-0.42864 0.0185,-0.18005 0.34468,-0.25614 0.58303,-0.30216 0.26911,-0.046 0.56151,-0.1403 0.63658,-0.32659 0.10743,-0.14725 -0.13483,-0.24272 -0.33616,-0.2403 -0.16528,-0.024 -0.50079,0.0101 -0.5015,-0.14214 0.15602,-0.21372 0.51694,-0.33792 0.64687,-0.56544 -0.0116,-0.16536 -0.35463,-0.12111 -0.53193,-0.12168 -0.35681,0.033 -0.72169,0.0296 -1.0913,0.0199 -0.34763,-4e-4 -0.73831,0.0819 -0.91431,0.28067 -0.15232,0.23459 0.001,0.50439 -0.16379,0.73253 -0.16346,0.27716 -0.58472,0.44603 -1.01011,0.56395 -0.10636,0.0325 -0.21406,0.0652 -0.31574,0.10204 z" />
      <path
         id="path101"
         style="fill:#ff0066;stroke:#ff0066;stroke-width:0.264583px;stroke-linecap:butt;stroke-linejoin:miter;stroke-opacity:1"
         d="m 125.85812,186.85863 c 0.117,0.63609 0.89204,1.08137 0.92623,1.66846 0.0381,0.27118 0.0384,0.56032 0.33504,0.75059 0.17186,0.12214 0.38151,0.23543 0.65816,0.27724 0.28433,0.0253 0.42286,-0.17013 0.4194,-0.29451 0.0504,-0.27186 -0.2405,-0.46977 -0.51185,-0.65411 -0.19976,-0.1501 -0.42202,-0.35054 -0.27146,-0.58112 0.12144,-0.14423 0.42271,-0.29767 0.2726,-0.45283 -0.14867,-0.22531 -0.63341,-0.22298 -1.00499,-0.27818 -0.25499,0.006 -0.49986,-0.12751 -0.15202,-0.23099 0.25967,-0.0665 0.84077,-0.23349 0.29682,-0.29377 -0.28512,-0.0631 -0.70559,-0.17833 -0.92606,0.059 l -0.0419,0.0301 z" />
      <path
         id="path107"
         style="fill:#ff0066;stroke:#ff0066;stroke-width:0.264583px;stroke-linecap:butt;stroke-linejoin:miter;stroke-opacity:1"
         d="m 135.04055,187.09212 c 0.0314,0.12448 0.0568,0.26222 0.21301,0.32217 0.21488,0.09 0.55908,0.0546 0.84399,-0.0713 0.13633,-0.0542 0.23165,-0.17483 0.15905,-0.24115 -0.084,-0.12388 -0.25514,-0.2201 -0.23022,-0.39268 -0.004,-0.0766 0.17213,-0.14425 0.14762,-0.21023 -0.12441,0.0106 -0.25755,0.0304 -0.38774,0.0639 -0.31729,0.11663 -0.54274,0.33352 -0.74574,0.52939 z" />
      <path
         id="path113"
         style="fill:#ff0066;stroke:#ff0066;stroke-width:0.264583px;stroke-linecap:butt;stroke-linejoin:miter;stroke-opacity:1"
         d="m 125.07252,186.1428 c -0.0513,0.1165 -0.0179,0.25903 0.16849,0.31622 0.23819,0.075 0.53886,0.0393 0.78804,-0.0207 0.19241,-0.0511 0.40423,-0.13335 0.45774,-0.26251 0.038,-0.10219 -0.11721,-0.16975 -0.2578,-0.19528 -0.24455,-0.0447 -0.52207,-0.055 -0.783,-0.006 -0.14547,0.0367 -0.25074,0.11133 -0.37342,0.16836 z" />
      <path
         id="path119"
         style="fill:#ff0066;stroke:#ff0066;stroke-width:0.264583px;stroke-linecap:butt;stroke-linejoin:miter;stroke-opacity:1"
         d="m 127.74307,190.19479 c -0.0957,0.0896 -0.2394,0.18476 -0.2189,0.27936 0.014,0.13463 0.23343,0.23634 0.50638,0.19231 0.14741,-0.0233 0.27924,-0.10063 0.31075,-0.17964 0.0639,-0.13498 -0.0386,-0.24666 -0.11671,-0.35438 -0.0819,-0.0911 -0.16912,-0.18932 -0.3333,-0.24363 -0.0894,-0.0291 -0.18641,0.0457 -0.24322,0.0878 -0.0922,0.0541 -0.11948,0.12105 -0.0177,0.15053 0.0375,0.0228 0.0757,0.0451 0.11263,0.0677 z" />
      <path
         id="path125"
         style="fill:#ff0066;stroke:#ff0066;stroke-width:0.264583px;stroke-linecap:butt;stroke-linejoin:miter;stroke-opacity:1"
         d="m 136.40565,182.01051 c -0.0555,0.26739 -0.0631,0.53364 0.04,0.7562 0.0492,0.12665 0.0993,0.25423 0.18898,0.35726 0.12491,0.0658 0.13028,-0.12486 0.16134,-0.18947 0.0767,-0.29326 0.12617,-0.59371 0.1199,-0.88982 -0.0127,-0.10221 -0.002,-0.22953 -0.10081,-0.29437 -0.14181,-0.0363 -0.25604,0.12777 -0.35089,0.20896 -0.0188,0.0176 -0.0387,0.0343 -0.0584,0.0512 z" />
      <path
         id="path131"
         style="fill:#ff0066;stroke:#ff0066;stroke-width:0.264583px;stroke-linecap:butt;stroke-linejoin:miter;stroke-opacity:1"
         d="m 135.21522,189.66108 c -0.10462,0.13694 -0.19407,0.27467 -0.3313,0.40682 -0.0706,0.0915 -0.0488,0.20808 0.116,0.18903 0.21273,-0.0321 0.38414,-0.17419 0.51462,-0.28845 0.166,-0.15821 0.32507,-0.3266 0.3997,-0.49225 0.0565,-0.0866 -0.0212,-0.1684 -0.18133,-0.0916 -0.1895,0.0717 -0.35455,0.17764 -0.51783,0.27655 z" />
      <path
         id="path144"
         style="fill:#ff0066;stroke:#ff0066;stroke-width:0.264583px;stroke-linecap:butt;stroke-linejoin:miter;stroke-opacity:1"
         d="m 137.50157,189.32073 c -0.0946,0.2453 0.32109,0.2218 0.58397,0.21519 0.16798,0.0359 0.4811,9.7e-4 0.60337,0.007 -0.12685,0.22062 -0.50324,0.42515 -0.57918,0.6346 0.0808,0.18328 0.48857,-0.14294 0.72091,-0.20006 5.7e-4,0.12176 -0.47019,0.34106 -0.6687,0.49111 -0.17318,0.11742 -0.66273,0.41113 -0.51,0.44889 0.53972,-0.0853 1.08439,-0.39684 1.56376,-0.6762 0.24559,-0.17112 0.3567,-0.53821 0.72415,-0.53624 0.4484,-0.0537 0.39405,-0.37846 0.26129,-0.4734 -0.22572,-0.13666 0.53959,-0.43654 0.31121,-0.52531 -0.60262,0.002 -1.42913,0.39563 -2.00077,0.28368 -0.14385,-0.13839 -0.62543,-0.1371 -0.84362,0.16458 -0.0546,0.0556 -0.10493,0.11197 -0.16639,0.16591 z" />
      <path
         id="path151"
         style="fill:#ff0066;stroke:#ff0066;stroke-width:0.264583px;stroke-linecap:butt;stroke-linejoin:miter;stroke-opacity:1"
         d="m 133.42302,191.57953 c -0.0885,0.10974 0.0461,0.17567 0.21591,0.15359 0.16,-0.008 0.38774,-0.0914 0.44504,-0.1994 0.067,-0.10831 0.0487,-0.22211 0.2245,-0.33007 0.14478,-0.10142 0.35825,-0.19712 0.41481,-0.31669 -0.01,-0.0894 -0.23792,-0.0135 -0.35843,0.0279 -0.17932,0.0579 -0.37071,0.13849 -0.47609,0.24946 -0.10891,0.1057 -0.28814,0.19416 -0.37478,0.30329 -0.0345,0.0371 -0.0648,0.0774 -0.0909,0.11194 z" />
    </g>
  </g>
</svg>
