<?xml version="1.0" encoding="UTF-8" standalone="no"?>
<svg
   xmlns:dc="http://purl.org/dc/elements/1.1/"
   xmlns:cc="http://creativecommons.org/ns#"
   xmlns:rdf="http://www.w3.org/1999/02/22-rdf-syntax-ns#"
   xmlns:svg="http://www.w3.org/2000/svg"
   xmlns="http://www.w3.org/2000/svg"
   xmlns:sodipodi="http://sodipodi.sourceforge.net/DTD/sodipodi-0.dtd"
   xmlns:inkscape="http://www.inkscape.org/namespaces/inkscape"
   width="1200"
   height="600"
   viewBox="0 0 317.5 158.75"
   version="1.1"
   id="svg8"
   inkscape:version="1.0.1 (3bc2e813f5, 2020-09-07)"
   sodipodi:docname="pd-cardiff.svg">
  <sodipodi:namedview
     id="base"
     pagecolor="#ffffff"
     bordercolor="#666666"
     borderopacity="1.0"
     inkscape:pageopacity="0.0"
     inkscape:pageshadow="2"
     inkscape:zoom="1.4"
     inkscape:cx="628.22643"
     inkscape:cy="306.09327"
     inkscape:document-units="mm"
     inkscape:current-layer="layer1"
     showgrid="false"
     units="px"
     inkscape:window-width="1920"
     inkscape:window-height="1061"
     inkscape:window-x="0"
     inkscape:window-y="19"
     inkscape:window-maximized="0"
     inkscape:document-rotation="0"
     inkscape:snap-global="false" />
  <metadata
     id="metadata5">
    <rdf:RDF>
      <cc:Work
         rdf:about="">
        <dc:format>image/svg+xml</dc:format>
        <dc:type
           rdf:resource="http://purl.org/dc/dcmitype/StillImage" />
        <dc:title />
      </cc:Work>
    </rdf:RDF>
  </metadata>
  <g
     inkscape:label="Layer 1"
     inkscape:groupmode="layer"
     id="layer1"
     transform="translate(0,-138.25001)">
    <path
       id="path27"
       style="fill:#6b3a0b;fill-opacity:1;stroke:#432522;stroke-width:0.323417px;stroke-linecap:butt;stroke-linejoin:miter;stroke-opacity:1"
       d="m 179.50926,241.95701 c 0.93323,8.74792 0.19357,17.59826 1.43407,26.32775 0.95736,7.77696 -0.53497,15.56957 -0.73529,23.32515 2.60626,0.0122 6.11141,-0.34588 9.07583,-0.39349 5.29302,-0.0535 10.50517,-1.288 15.81257,-0.96136 4.31959,0.11258 8.6866,-0.3441 12.95443,0.27834 1.00891,-1.96736 0.17373,-5.09989 0.63451,-7.5384 0.58796,-8.91154 1.15246,-17.84268 0.88449,-26.77416 -0.0244,-2.94592 -0.94174,-5.79724 -1.15195,-8.69909 1.33943,-4.28324 -3.2893,-3.58947 -5.99619,-3.48894 -7.97205,0.27131 -15.809,-1.63546 -23.77959,-1.5278 -3.07822,0.24684 -6.07028,-0.67168 -9.13288,-0.548 z" />
    <path
       id="path41"
       style="fill:#803300;fill-opacity:1;stroke:#803300;stroke-width:0.323417px;stroke-linecap:butt;stroke-linejoin:miter;stroke-opacity:1"
       d="m 219.71713,245.43151 c 3.6904,0.2591 7.40136,0.0799 11.08443,0.4627 1.8465,-0.72305 4.50278,-0.62106 3.56036,2.12865 -0.12064,3.37488 0.23106,6.74275 -0.18212,10.09855 0.0199,4.43898 0.50638,8.88171 -0.0719,13.31152 -0.28375,5.00598 1.19119,10.01208 0.22429,15.00684 -0.64729,2.39116 3.64974,3.35295 -0.39405,2.88522 -3.70496,1.12303 -10.95053,1.80964 -14.69556,2.46343 -2.76674,-0.2838 -3.75532,0.14766 -6.50282,0.53776 -0.40659,-2.27315 1.09071,-5.13825 0.26594,-7.69031 -0.26548,-3.81572 0.0796,-7.65433 -0.24106,-11.47317 0.17655,-4.4623 0.43933,-8.9674 -0.27011,-13.40915 -0.38022,-4.36523 0.54004,-8.80439 -0.42798,-13.10832 -0.28166,-3.1931 4.0351,-1.59599 6.03408,-1.96101 0.64017,0.0187 1.26813,0.13449 1.61643,0.74729 z"
       sodipodi:nodetypes="sccccccccccccccs" />
    <path
       id="path60"
       style="fill:#803300;fill-opacity:1;stroke:#803300;stroke-width:0.323417px;stroke-linecap:butt;stroke-linejoin:miter;stroke-opacity:1"
       d="m 158.3746,240.46146 c 0.62724,7.11589 -1.73089,14.13415 -0.89276,21.2628 0.38433,6.02938 0.35797,12.07577 0.0633,18.09843 0.72836,4.54318 -1.05885,10.01113 0.60637,14.00675 4.08366,0.0982 8.16583,0.18473 12.29719,0.18572 4.66052,-0.18514 9.41021,9e-4 13.97884,-1.07834 1.78243,-2.92131 -0.0907,-6.54224 1.08317,-9.69581 0.10574,-5.60084 -0.68454,-11.18719 -0.24373,-16.78955 -0.13034,-4.62402 0.0192,-9.28687 0.0512,-13.88127 -0.8486,-3.41993 1.8758,-10.62462 -3.41249,-10.75419 -5.35932,0.0825 -10.69571,-0.16561 -16.00947,-0.88813 -2.56993,0.14991 -4.99317,0.17081 -7.5217,-0.46641 z" />
    <path
       id="path67"
       style="fill:#555459;fill-opacity:1;stroke:#555459;stroke-width:0.323417px;stroke-linecap:butt;stroke-linejoin:miter;stroke-opacity:1"
       d="m 170.17762,232.63854 c 1.73708,2.03795 2.753,4.68823 5.02489,6.24657 1.59995,2.19675 3.5677,4.62494 6.62953,3.94162 10.07208,0.16622 20.08749,1.49187 30.04317,2.8994 4.30251,1.01776 -1.42182,-2.90375 -1.36857,-4.95957 -1.30346,-2.79728 -3.80417,-4.7375 -5.421,-7.29827 -2.77424,-1.90867 -6.35935,-0.38235 -9.45896,-0.47012 -4.88399,0.30173 -9.68306,-0.79992 -14.50048,-1.33461 -3.40259,0.1281 -6.8472,0.34168 -10.19346,-0.32269 -0.65039,0.0243 -1.1029,0.73072 -0.75512,1.29767 z" />
    <path
       id="path74"
       style="fill:#7d7b7b;fill-opacity:1;stroke:#7d7b7b;stroke-width:0.323417px;stroke-linecap:butt;stroke-linejoin:miter;stroke-opacity:1"
       d="m 211.91432,245.8493 c 3.93492,0.0384 7.83877,0.68788 11.78379,0.50972 3.45019,0.0865 6.99127,0.0375 10.34628,0.77991 -0.10867,-2.12157 -3.66714,-2.97026 -4.64028,-5.14507 -1.7667,-2.42333 -3.60583,-4.8064 -5.36326,-7.22289 -0.85983,-3.1677 -4.11593,-3.78111 -6.9705,-3.26112 -3.64836,0.0889 -7.26795,-0.46483 -10.92992,-0.17524 -2.81658,0.37628 -5.61401,-1.25628 -8.35335,-0.52964 -0.59359,1.70515 2.59499,3.41378 3.79047,4.87856 2.63728,2.31759 4.63346,5.26678 7.50178,7.3419 1.0286,0.8586 1.98983,1.78324 2.83499,2.82387 z" />
    <path
       id="path88"
       style="fill:#555459;fill-opacity:1;stroke:#555459;stroke-width:0.323417px;stroke-linecap:butt;stroke-linejoin:miter;stroke-opacity:1"
       d="m 145.82589,228.26691 c 0.65721,-1.67207 2.50625,-2.55234 3.01083,-4.31441 0.67069,-1.6447 1.71788,-3.08824 2.84561,-4.44307 0.76145,-1.06424 0.87835,-2.50764 1.85082,-3.43638 2.04485,-0.30486 4.13372,0.16773 6.17723,-0.22756 1.02365,-0.28158 2.54399,-0.0468 1.95306,1.33635 -0.7991,2.43541 -1.04618,4.99726 -1.19162,7.54284 -0.16605,1.60043 -0.27116,3.20835 -0.3032,4.81582 -0.74756,0.45275 -1.77649,-0.85475 -2.74111,-0.831 -2.18934,-0.75386 -4.53063,-0.80225 -6.81268,-0.5663 -1.26378,-0.0325 -2.45513,0.56923 -3.70551,0.49673 -0.39267,-0.0763 -0.65826,-0.39941 -1.08343,-0.37302 z" />
    <path
       id="path94"
       style="fill:#555459;fill-opacity:1;stroke:#555459;stroke-width:0.323417px;stroke-linecap:butt;stroke-linejoin:miter;stroke-opacity:1"
       d="m 158.60895,216.5517 c 1.14107,0.8597 2.61249,0.24412 3.89435,0.4087 0.79945,0.51067 0.94956,1.60018 1.43477,2.38389 0.26962,0.7602 0.0292,1.63841 0.50907,2.34207 0.48481,0.771 0.97475,1.60456 1.81438,2.02928 0.61248,0.79399 1.20769,1.58586 1.95947,2.24963 0.66909,1.07551 1.19066,2.24504 1.99567,3.23611 0.30797,0.48163 -0.89834,-0.28827 -1.20941,-0.32679 -1.73968,-0.63164 -3.60373,-1.01729 -5.45752,-0.77169 -1.04858,-0.1919 -2.3814,0.59396 -3.22661,-0.0527 -0.43888,-0.95078 -0.45517,-2.04591 -0.51707,-3.0774 -0.0606,-1.9839 0.21248,-4.0654 -0.63016,-5.93149 -0.29259,-0.79963 -0.59047,-1.6253 -0.56694,-2.48966 z" />
    <path
       id="path104"
       style="fill:#b8664a;fill-opacity:1;stroke:#b8664a;stroke-width:0.323417px;stroke-linecap:butt;stroke-linejoin:miter;stroke-opacity:1"
       d="m 170.62504,221.67112 c 2.06697,0.42801 4.18596,0.18264 6.2767,0.24722 0.64566,-0.0744 1.45112,0.2007 1.17088,0.99761 -0.22027,1.02903 -0.33881,2.07318 -0.4387,3.12019 -0.0994,0.88592 -0.16367,1.77864 -0.38296,2.64345 -0.056,0.99509 0.35048,1.96094 0.3102,2.96073 -0.39315,0.53327 -1.16312,0.11906 -1.7047,0.11356 -1.58252,-0.29717 -3.19663,-0.0857 -4.79407,-0.10317 -0.41234,-0.45461 -0.13681,-1.12865 -0.10354,-1.67015 0.24434,-1.30169 0.81877,-2.5792 0.59578,-3.9297 -0.15761,-1.42458 -0.38509,-2.85966 -0.85995,-4.21626 l -0.034,-0.0823 -0.0357,-0.0813 z" />
    <path
       id="path110"
       style="fill:#9e5035;fill-opacity:1;stroke:#9e5035;stroke-width:0.323417px;stroke-linecap:butt;stroke-linejoin:miter;stroke-opacity:1"
       d="m 169.85805,224.50885 c -0.027,0.55589 0.0427,1.38897 0.80077,1.33506 1.17415,0.11527 2.37166,-0.21068 3.52766,0.13611 0.95739,0.23567 1.93956,0.45042 2.92975,0.31446 0.71213,-0.14957 1.50223,0.63977 2.09633,0.0681 0.45836,-0.53417 0.29246,-1.65667 -0.53388,-1.68041 -1.58844,-0.14656 -3.18948,0.007 -4.77823,-0.15503 -1.34058,-0.0518 -2.71825,-0.35821 -4.0424,-0.0182 z" />
    <path
       id="path117"
       style="fill:#b8664a;fill-opacity:1;stroke:#b8664a;stroke-width:0.323417px;stroke-linecap:butt;stroke-linejoin:miter;stroke-opacity:1"
       d="m 218.0928,228.11352 c -0.14506,0.90097 -0.27401,1.81689 -0.35339,2.71937 0.29788,0.89235 1.56849,0.45637 2.27385,0.90501 1.15034,0.2954 2.60261,0.79311 2.83012,2.135 0.10793,0.88333 0.61915,1.64598 0.93261,2.42183 0.98883,-2.01025 0.4556,-4.30814 0.74431,-6.44921 0.0776,-0.66826 0.3433,-1.69287 -0.64954,-1.79231 -1.68449,-0.62797 -3.52888,-1.02215 -5.32381,-0.7281 -0.36547,0.0728 -0.50813,0.45679 -0.45415,0.78841 z" />
    <path
       id="path138"
       style="fill:#8ba3c7;fill-opacity:1;stroke:#8ba3c7;stroke-width:0.323417px;stroke-linecap:butt;stroke-linejoin:miter;stroke-opacity:1"
       d="m 155.11437,217.01613 c 0.6774,-0.19551 1.81704,0.33926 2.05356,-0.62936 0.22373,-0.70665 -0.76415,-0.89584 -0.83897,-1.56771 -0.36769,-0.89603 -0.58625,-1.89026 -0.35268,-2.8503 0.12934,-0.86323 0.37417,-1.82327 -0.0708,-2.63587 -0.38459,-0.60535 -1.18799,-0.2705 -1.2506,0.37805 -0.36328,1.06168 -0.27798,2.2365 -0.78735,3.25667 -0.44783,0.73003 0.76461,0.98791 0.5956,1.61363 -0.5416,0.38726 -1.32357,0.66569 -1.50364,1.3787 0.12729,0.64321 0.91368,0.37715 1.36589,0.48137 0.33183,0.0874 0.54301,0.36051 0.7889,0.57482 z" />
    <path
       id="path61"
       style="fill:#b8664a;fill-opacity:1;stroke:#b8664a;stroke-width:0.323417px;stroke-linecap:butt;stroke-linejoin:miter;stroke-opacity:1"
       d="m 198.42819,218.10479 c 1.1319,-0.35309 2.34496,-0.0793 3.49735,0.035 1.01577,-0.0231 0.88738,1.13494 0.89891,1.85059 -0.14051,1.34094 0.0572,2.67093 0.30835,3.98617 0.38214,2.23615 0.92388,4.47816 0.72438,6.76297 -0.0803,1.90491 0.0548,3.82717 0.58638,5.66415 -0.0738,0.65195 -0.95613,-0.98382 -1.34519,-1.29793 -1.02929,-0.9754 -2.49274,-1.52502 -3.84468,-1.95589 -0.97083,0.0243 -2.09157,-0.73016 -1.75945,-1.81667 0.0358,-2.44637 0.65519,-4.88262 0.25095,-7.32918 -0.21679,-1.96786 -0.45902,-4.15035 0.683,-5.89922 z" />
    <path
       id="path72"
       style="fill:#9e5035;fill-opacity:1;stroke:#9e5035;stroke-width:0.323417px;stroke-linecap:butt;stroke-linejoin:miter;stroke-opacity:1"
       d="m 199.66388,221.38351 c 1.14262,-0.11454 2.31703,-0.19288 3.44743,0.0467 0.37604,0.26145 1.09352,0.20597 0.90439,-0.41064 -0.11795,-0.51217 -0.0669,-1.11686 -0.44144,-1.52943 -0.55002,-0.29239 -1.2335,0.0324 -1.82971,0.0418 -0.87911,0.15664 -1.7735,0.13197 -2.65206,-0.01 -0.59914,-0.0705 -1.21856,-0.1204 -1.80782,0.0422 -0.39709,0.35548 -0.1409,0.93551 -0.11001,1.38566 -0.009,0.57858 0.54444,0.98055 1.09737,0.83904 0.47941,-0.0732 0.93163,-0.26143 1.39191,-0.40574 z" />
    <path
       id="path79"
       style="fill:#84422a;fill-opacity:1;stroke:#84422a;stroke-width:0.323417px;stroke-linecap:butt;stroke-linejoin:miter;stroke-opacity:1"
       d="m 133.49022,243.51008 c 2.90625,-0.20242 8.47472,-1.59308 6.77157,3.35823 0.46418,13.45607 0.99657,26.91736 1.13607,40.38146 1.68558,5.14931 -2.83939,6.77167 -6.97431,5.22221 -6.03569,-1.20276 -12.23455,-0.72306 -18.30439,-1.69988 -6.39944,-0.28345 -13.01547,0.68296 -19.146701,-1.68737 -5.656988,-0.30326 -4.972024,-5.73078 -5.856991,-9.72895 -1.56839,-6.59289 -1.394179,-13.49408 0.398576,-20.03219 1.528443,-4.28562 -2.310145,-10.32777 1.282528,-13.55122 6.515735,-2.12592 13.485928,-1.91716 20.161078,-0.81671 5.39581,0.66809 10.56476,-1.62687 15.96992,-1.12328 1.52493,-0.0176 3.05532,-0.0736 4.56265,-0.3223 z" />
    <path
       id="path717"
       style="fill:#5fbcd3;fill-opacity:1;stroke:#5fbcd3;stroke-width:0.323417px;stroke-linecap:butt;stroke-linejoin:miter;stroke-opacity:1"
       d="m 136.6675,270.53805 c -0.30377,0.63429 -0.1804,1.35045 -0.18696,2.02588 -0.0898,0.26713 -0.0761,0.5542 0.29875,0.47541 0.57079,0.0509 1.1465,0.0517 1.7185,0.0155 0.26389,-0.2244 0.19127,-0.62031 0.2285,-0.92881 0.001,-0.66595 -0.13307,-1.32117 -0.20028,-1.98138 -0.26067,0.0778 -0.57126,0.20447 -0.86314,0.27677 -0.3233,0.0874 -0.65993,0.14293 -0.99537,0.11649 z" />
    <path
       id="path90"
       style="fill:#803300;fill-opacity:1;stroke:#803300;stroke-width:0.323417px;stroke-linecap:butt;stroke-linejoin:miter;stroke-opacity:1"
       d="m 125.4369,180.52412 c 4.12977,4.25617 12.62697,1.75386 15.71197,4.7998 -0.97665,7.89038 0.47907,15.95695 -0.17287,23.95251 0.70774,5.31881 -1.57355,10.81085 0.33294,15.92155 0.46935,6.60472 0.61211,13.8351 -3.71016,19.32938 -4.82507,6.25846 -1.94519,14.47166 -2.49429,21.67196 -0.14354,7.62231 1.64568,15.15617 1.45112,22.75308 -0.36989,3.10542 -10.07809,2.7685 -7.32262,-2.33895 -0.56161,-8.53955 0.71988,-17.15523 -1.18617,-25.60263 -0.12856,-7.55353 -1.72585,-14.99115 -1.95864,-22.50594 0.41559,-7.48684 -1.30907,-14.88331 -1.03867,-22.3878 0.12162,-8.825 -1.60263,-17.63176 -0.28867,-26.42329 0.3571,-3.04996 0.49934,-6.11006 0.67606,-9.16967 z" />
    <path
       id="path724"
       style="fill:#5fbcd3;fill-opacity:1;stroke:#5fbcd3;stroke-width:0.323417px;stroke-linecap:butt;stroke-linejoin:miter;stroke-opacity:1"
       d="m 136.49707,274.92886 c -0.13124,0.25092 -0.31507,0.49739 -0.2662,0.79831 -0.021,0.40581 -0.13156,0.82148 -0.0128,1.22223 0.21049,0.16744 0.49893,0.0315 0.74283,0.0641 0.51384,-0.0211 1.02617,-0.0722 1.54051,-0.0827 0.10818,-0.25212 -0.0177,-0.52738 -0.002,-0.79013 -0.0197,-0.34923 -0.0604,-0.70341 -0.0413,-1.05096 0.14588,-0.2611 -0.011,-0.519 -0.27081,-0.61654 -0.47044,-0.27439 -1.04737,-0.30176 -1.5724,-0.20897 -0.33298,0.0587 -0.26423,0.41662 -0.13145,0.62881 l 0.0145,0.0359 z" />
    <path
       id="path731"
       style="fill:#5fbcd3;fill-opacity:1;stroke:#5fbcd3;stroke-width:0.323417px;stroke-linecap:butt;stroke-linejoin:miter;stroke-opacity:1"
       d="m 136.47576,278.38972 c -0.39416,1.11723 -0.0898,2.32649 -0.37123,3.46407 -0.14958,0.45 0.17738,0.89686 0.65869,0.82045 0.52166,0.004 1.05214,0.0144 1.55992,0.13517 0.1428,-0.28127 0.0917,-0.63594 0.11662,-0.94997 0.014,-1.04058 0.016,-2.08606 -0.0789,-3.12196 -0.0857,-0.37684 -0.56003,-0.27052 -0.84582,-0.28498 -0.34593,0.0172 -0.70709,0.0627 -1.03932,-0.0628 z" />
    <path
       id="path96"
       style="fill:#b8664a;fill-opacity:1;stroke:#b8664a;stroke-width:0.323417px;stroke-linecap:butt;stroke-linejoin:miter;stroke-opacity:1"
       d="m 135.76987,242.49387 c 3.01049,-0.21619 6.01112,-0.6296 9.00831,-0.91983 4.26694,-1.1941 8.63332,-1.94929 13.07076,-2.02613 4.03718,-1.47667 3.2795,3.01197 3.37423,5.49471 0.75544,8.44787 0.49729,16.92991 0.66196,25.39773 -0.23651,5.70742 -0.0994,11.41967 -0.44948,17.1238 0.0758,2.94929 1.52257,7.48175 -3.18778,6.52095 -2.95727,0.71979 -6.10489,0.48255 -9.08641,0.0308 -2.58474,-0.2056 -5.09043,-1.03628 -7.71404,-0.77134 -2.37985,-0.25087 -5.85473,0.002 -4.57104,-3.46996 0.59044,-3.75293 1.5478,-7.49496 1.08826,-11.32712 -0.13727,-6.73168 -0.32224,-13.48261 -1.11074,-20.17441 -0.0251,-3.97774 0.34552,-7.97598 -0.32934,-11.92145 -0.0269,-1.33606 0.10255,-2.82344 -0.75469,-3.9577 z" />
    <path
       id="path102"
       style="fill:#7d7b7b;fill-opacity:1;stroke:#7d7b7b;stroke-width:0.323417px;stroke-linecap:butt;stroke-linejoin:miter;stroke-opacity:1"
       d="m 140.0309,231.71819 c -0.86452,2.97076 -1.04202,6.2028 -2.75233,8.87268 -0.48051,1.00865 -1.44585,2.22737 -1.85452,2.96116 1.63763,-0.0632 3.28811,-0.17275 4.91806,0.10831 1.17949,-0.077 2.92388,0.93227 3.61532,-0.38224 0.99062,-1.88827 1.36285,-4.05939 2.5931,-5.83698 0.76614,-1.23763 0.80653,-2.76172 1.44525,-4.05488 0.13308,-0.75426 1.39088,-2.55934 -0.1346,-1.86576 -1.76739,0.51619 -3.58668,1.07518 -5.44976,0.78016 -0.81579,-0.0758 -1.63032,-0.2455 -2.38052,-0.5825 z" />
    <path
       id="path113"
       style="fill:#9c979b;fill-opacity:1;stroke:#9c979b;stroke-width:0.323417px;stroke-linecap:butt;stroke-linejoin:miter;stroke-opacity:1"
       d="m 148.33989,226.29201 c -1.97983,2.69774 -3.74709,5.55255 -5.88031,8.13641 -1.16946,2.94513 -3.02777,5.89573 -5.97729,7.30589 -1.45365,0.50092 -2.07741,2.61544 0.0257,1.88271 3.03918,-0.32562 6.09432,-0.59884 9.14341,-0.24493 3.92066,0.0219 7.83797,-0.5201 11.75211,-0.0988 1.89086,0.16991 6.07679,-0.72419 2.80025,-2.50643 -1.81236,-1.18226 -1.98957,-3.47403 -3.01701,-5.25153 -0.81504,-2.35371 -1.68339,-4.66587 -2.07243,-7.15243 -0.82098,-1.79257 -1.48828,-3.72571 -2.67716,-5.32045 -1.81822,0.39405 -3.52367,1.35743 -4.09729,3.24948 z" />
    <path
       id="path120"
       style="fill:#7d7b7b;fill-opacity:1;stroke:#7d7b7b;stroke-width:0.323417px;stroke-linecap:butt;stroke-linejoin:miter;stroke-opacity:1"
       d="m 154.17748,229.47486 c -0.33039,2.70847 1.10575,5.25034 2.05698,7.69181 1.80127,1.6166 2.15382,5.02839 4.71377,5.47809 3.9028,-0.49337 7.86547,-0.22697 11.78673,0.0938 3.59518,0.37614 7.14881,1.15013 10.78426,0.88463 3.46307,0.16582 -1.40707,-2.41841 -2.04726,-3.75595 -1.6894,-2.53917 -4.70459,-3.96009 -6.06604,-6.78088 -1.62198,-1.75665 -4.0059,-2.63573 -5.32788,-4.71505 -2.34082,-2.31127 -5.03798,-4.68148 -8.52284,-4.74987 -3.09215,-0.33829 -6.19887,-0.43393 -9.2942,-0.60035 -1.33566,1.44157 2.41943,4.29598 1.91648,6.45378 z" />
    <path
       id="path132"
       style="fill:#b8664a;fill-opacity:1;stroke:#b8664a;stroke-width:0.323417px;stroke-linecap:butt;stroke-linejoin:miter;stroke-opacity:1"
       d="m 156.69149,219.00595 c -0.23589,1.68285 -0.47214,3.36643 -0.63375,5.05839 1.77446,0.28831 2.87665,1.92302 3.92479,3.2226 1.1307,1.21861 1.41715,2.96286 2.55351,4.15812 0.89594,1.14337 2.58104,0.34729 2.62853,-0.97711 0.12601,-1.94706 -1.29382,-3.59391 -1.29044,-5.53811 -0.0331,-1.69391 -0.7977,-3.28167 -0.73267,-4.99224 0.004,-2.30941 -0.74584,-4.58911 -0.41244,-6.90886 -0.0189,-0.86333 0.42955,-2.42424 -0.84169,-2.51081 -1.20483,-0.11527 -2.42559,0.0314 -3.6158,-0.25689 -1.65868,-0.2456 -0.79959,2.14482 -1.00475,3.17377 0.0208,1.72471 0.15254,3.5235 -0.52245,5.15303 l -0.039,0.20606 -0.0138,0.21208 z" />
    <path
       id="path139"
       style="fill:#9e5035;fill-opacity:1;stroke:#9e5035;stroke-width:0.323417px;stroke-linecap:butt;stroke-linejoin:miter;stroke-opacity:1"
       d="m 156.13756,212.12255 c 0.28165,0.54592 -0.28016,1.07754 -0.26729,1.64017 0.0731,0.64714 0.91893,0.56076 1.40396,0.67673 1.75409,0.12919 3.53332,0.067 5.26399,-0.24656 0.39979,-0.30687 0.43504,-0.95205 1.05448,-0.99127 0.77827,-0.58884 -0.35906,-1.14166 -0.94016,-1.07586 -0.97876,-0.13501 -1.97712,0.32972 -2.93201,-0.0431 -1.16691,-0.26513 -2.45801,-0.52017 -3.58297,0.04 z" />
    <path
       id="path146"
       style="fill:#b8664a;fill-opacity:1;stroke:#b8664a;stroke-width:0.323417px;stroke-linecap:butt;stroke-linejoin:miter;stroke-opacity:1"
       d="m 96.206294,223.68436 c 1.453427,-0.50118 3.192813,-0.53212 4.638076,-0.53489 -0.10415,1.14176 -0.67844,2.31862 -0.42244,3.56606 0.11808,1.46887 0.62396,2.88196 0.58797,4.37088 0.0307,1.99924 -0.002,4.00729 -0.13437,6.00054 -0.11319,1.43656 -1.840956,1.46886 -2.930644,1.40162 -0.83089,-0.34158 -2.04862,0.46019 -2.613401,-0.0412 0.129448,-1.09967 0.426262,-2.19007 0.368188,-3.3162 -0.01491,-1.6976 0.07236,-3.39219 0.254569,-5.078 -0.107568,-1.88254 -0.132858,-3.77159 0.15326,-5.6419 0.03093,-0.24256 0.06405,-0.48488 0.09877,-0.72688 z" />
    <path
       id="path160"
       style="fill:#9c979b;fill-opacity:1;stroke:#9c979b;stroke-width:0.323417px;stroke-linecap:butt;stroke-linejoin:miter;stroke-opacity:1"
       d="m 107.0506,225.50588 c -2.93454,3.2541 -5.19385,7.0739 -8.377504,10.10191 -2.357462,2.66711 -5.071915,4.98169 -7.365057,7.7065 -0.566089,1.04818 -3.416127,2.07608 -2.736664,3.14609 3.763278,0.10256 7.564535,0.15083 11.304772,-0.43656 2.229163,-0.53242 5.057663,1.17629 6.865303,-0.57014 1.52248,-2.49282 0.44404,-5.50144 0.36033,-8.21597 -0.31687,-3.15228 0.14215,-6.29412 0.38232,-9.42986 0.0226,-0.78767 -0.0984,-1.58371 -0.4335,-2.30197 z" />
    <path
       id="path153"
       style="fill:#9e5035;fill-opacity:1;stroke:#9e5035;stroke-width:0.323417px;stroke-linecap:butt;stroke-linejoin:miter;stroke-opacity:1"
       d="m 94.778854,225.21827 c -0.293624,0.63108 -0.658401,1.61068 -0.04902,2.15092 0.525188,0.21802 1.12021,0.17828 1.678317,0.24004 1.155219,0.0545 2.314973,-0.0515 3.440427,-0.30833 0.885832,-0.11588 1.811772,0.15624 2.670972,-0.1669 0.23131,-0.51044 0.52631,-1.11916 0.33257,-1.67822 -0.40969,-0.68846 -1.2681,-0.95268 -2.02052,-1.06058 -1.134937,-0.10805 -2.236311,0.28068 -3.363966,0.33788 -0.908656,0.0876 -1.79729,0.29762 -2.688735,0.48519 z" />
    <path
       id="path167"
       style="fill:#b8664a;fill-opacity:1;stroke:#b8664a;stroke-width:0.323417px;stroke-linecap:butt;stroke-linejoin:miter;stroke-opacity:1"
       d="m 83.48715,240.49981 c 3.730959,0.14227 8.452191,-0.29373 11.548743,-0.0461 0.162073,3.31621 -0.321054,6.63486 -0.03777,9.96302 0.132504,5.66319 1.147017,11.28866 0.499225,16.96003 -0.530004,5.3821 0.356148,10.79662 -0.682995,16.13643 -1.049888,2.76256 2.47586,7.49139 -2.294217,6.76412 -3.398427,-0.8831 -10.031778,1.51974 -11.004217,-2.95371 0.481244,-3.50855 -0.117836,-6.98751 -0.03545,-10.5075 0.510019,-9.00294 0.178979,-18.01975 0.11038,-27.03079 0.539404,-3.02106 -2.373634,-8.09502 1.896252,-9.28551 z" />
    <path
       id="path174"
       style="fill:#9c979b;fill-opacity:1;stroke:#9c979b;stroke-width:0.323417px;stroke-linecap:butt;stroke-linejoin:miter;stroke-opacity:1"
       d="m 87.215542,224.93066 c 1.174716,-0.17938 3.447749,-1.25697 3.837133,0.46768 0.506523,2.65755 0.293856,5.40811 1.039987,8.028 0.448827,2.70294 0.879503,5.43862 1.534555,8.08396 -1.277834,0.80947 -2.950614,-0.41965 -4.413478,-0.27109 -2.741455,0.0336 -5.43541,0.7522 -8.184163,0.74738 0.348753,-1.60973 1.47499,-2.92367 2.156384,-4.40196 1.059117,-1.90317 1.379901,-4.08135 2.164732,-6.09351 0.36534,-1.62319 0.448277,-3.37404 1.436913,-4.78934 0.270643,-0.54646 0.493651,-1.15081 0.427937,-1.77112 z" />
    <path
       id="path181"
       style="fill:#555459;fill-opacity:1;stroke:#555459;stroke-width:0.323417px;stroke-linecap:butt;stroke-linejoin:miter;stroke-opacity:1"
       d="m 89.686941,224.48967 c 1.120149,-0.81357 2.507018,0.11735 2.578991,1.40205 0.394347,1.63234 1.170095,3.16361 1.397516,4.83051 0.08043,2.33612 0.836781,4.56615 1.176366,6.86734 0.156597,0.99957 1.663807,2.73173 0.324097,3.31522 -0.961083,-0.18515 -2.252608,1.10452 -2.485493,-0.34453 -0.366097,-2.93385 -1.21344,-5.77662 -1.830305,-8.6634 -0.391206,-1.94743 -0.882094,-3.88187 -0.956426,-5.87698 -0.05122,-0.51212 -0.11258,-1.02366 -0.204746,-1.53021 z" />
    <path
       id="path188"
       style="fill:#8ba3c7;fill-opacity:1;stroke:#8ba3c7;stroke-width:0.323417px;stroke-linecap:butt;stroke-linejoin:miter;stroke-opacity:1"
       d="m 89.239531,217.98974 c -0.460941,0.8012 0.143445,1.88554 -0.484655,2.5952 -0.396033,0.3346 -1.632698,0.55886 -1.098733,1.26923 0.529613,0.21024 1.133277,0.82367 0.378505,1.21739 -0.502868,0.42433 -1.329003,0.61273 -1.502725,1.32209 0.150436,0.35383 -0.621694,0.93924 0.107201,0.78894 1.103587,-0.0757 2.159354,-0.62668 3.274663,-0.4986 0.609861,0.0983 1.469586,0.65938 1.957872,0.0868 0.165532,-0.78776 -0.628295,-1.28664 -1.179275,-1.67258 -0.694829,-0.49157 -0.882364,-1.46403 -0.693117,-2.2529 0.286277,-0.81058 0.880847,-1.62007 0.693679,-2.51699 -0.263676,-0.53384 -0.975507,-0.42323 -1.453366,-0.33856 z" />
    <path
       id="path199"
       style="fill:#b8664a;fill-opacity:1;stroke:#b8664a;stroke-width:0.323417px;stroke-linecap:butt;stroke-linejoin:miter;stroke-opacity:1"
       d="m 121.19718,181.54033 c 2.85291,0.26689 7.71556,-2.52866 6.09947,2.74219 -0.068,9.21549 0.10268,18.40886 0.18881,27.60962 -0.74608,4.75437 -0.59279,9.41581 4.26868,11.65168 0.71688,6.61419 0.62494,13.48724 -0.28627,20.14494 0.12408,9.17403 -2.25832,18.20494 -1.12555,27.37354 -0.31411,6.41604 1.75354,13.75713 -0.32559,19.54483 -6.11815,3.49191 -12.71736,0.37779 -19.19906,0.71629 -8.287,2.31117 -3.65341,-7.93851 -4.84898,-12.65809 0.47163,-10.07943 1.29285,-20.19915 -0.092,-30.24584 -0.0133,-7.03856 0.22974,-14.0536 0.24838,-21.09256 -0.59492,-8.74788 0.4055,-17.52671 -0.0972,-26.29281 0.62614,-5.60818 -0.51102,-11.21706 -0.57669,-16.79385 2.44388,-4.85901 11.63441,1.85973 15.74605,-2.69994 z" />
    <path
       id="path205"
       style="fill:#9c979b;fill-opacity:1;stroke:#9c979b;stroke-width:0.323417px;stroke-linecap:butt;stroke-linejoin:miter;stroke-opacity:1"
       d="m 121.19718,158.23136 c 1.39886,-0.32557 2.80265,-0.0177 2.45524,1.76984 0.16993,3.32799 -0.95502,6.8913 0.63861,10.01824 0.96552,3.25456 1.33871,6.66411 2.49691,9.86273 0.20931,1.31091 -2.13538,-0.22499 -3.07384,0.0665 -1.75227,-0.0399 -3.46785,0.47736 -5.21263,0.56974 -2.51465,0.80473 -5.0732,1.57954 -7.73743,1.64757 -0.97043,0.1789 -1.98534,0.0127 -0.75563,-0.8465 1.69034,-2.31093 3.89584,-4.42083 4.64891,-7.29304 0.83589,-2.66454 1.57979,-5.42285 3.19813,-7.74178 0.85578,-2.05985 1.83383,-4.07495 2.41785,-6.23481 0.21953,-0.64514 0.50107,-1.27906 0.92388,-1.81849 z" />
    <path
       id="path211"
       style="fill:#555459;fill-opacity:1;stroke:#555459;stroke-width:0.323417px;stroke-linecap:butt;stroke-linejoin:miter;stroke-opacity:1"
       d="m 122.75246,159.78444 c -0.70534,3.58064 0.93196,7.02441 1.3815,10.52893 0.29387,1.67107 1.14584,3.17375 1.29018,4.87616 0.27509,1.54574 0.54688,3.09401 0.9319,4.61705 0.93835,0.88439 2.36222,0.61922 3.53656,0.85709 1.87118,0.20517 3.79496,-0.009 5.63318,0.41294 0.79468,0.19058 2.23605,1.35791 1.2451,0.004 -0.7233,-2.12845 -2.47588,-3.66043 -3.6094,-5.56007 -1.5535,-2.23552 -2.22175,-4.93595 -3.38638,-7.35108 -1.08509,-1.49959 -1.45035,-3.3673 -2.41017,-4.94159 -0.65946,-1.50786 -1.53778,-2.90698 -1.95297,-4.5052 -0.49698,-1.57377 -2.60669,-1.10251 -2.58043,0.49466 -0.041,0.18665 -0.0698,0.37633 -0.0791,0.56734 z" />
    <path
       id="path217"
       style="fill:#8ba3c7;fill-opacity:1;stroke:#8ba3c7;stroke-width:0.323417px;stroke-linecap:butt;stroke-linejoin:miter;stroke-opacity:1"
       d="m 123.22117,140.7065 c -0.8226,0.38551 -3.45474,1.11801 -1.84676,2.1672 1.47752,1.11367 0.9781,3.19587 0.85927,4.76994 -0.45716,3.35246 0.0667,6.87401 -1.17226,10.09909 -1.57958,1.11859 -0.34373,2.65165 1.17346,2.8674 1.18189,0.67058 2.87344,0.78003 3.59944,-0.59742 1.01661,-1.36413 -0.83893,-1.87471 -1.63171,-2.55124 -0.575,-1.30382 -0.44288,-2.92025 -0.0535,-4.2789 0.68316,-1.62116 -0.45852,-3.25244 -0.35118,-4.90988 0.1176,-1.444 -0.74715,-3.52934 0.76145,-4.45498 2.01298,-1.1376 -0.44633,-2.31791 -1.33811,-3.11121 z" />
    <path
       id="path224"
       style="fill:#803300;fill-opacity:1;stroke:#803300;stroke-width:0.323417px;stroke-linecap:butt;stroke-linejoin:miter;stroke-opacity:1"
       d="m 125.37298,173.91554 c 0.0325,2.54881 -0.32483,5.08719 -0.86849,7.5688 0.34167,1.32447 2.32707,0.77757 3.34351,1.44978 2.17301,0.95925 4.62424,0.37542 6.87171,1.01928 1.60143,0.35979 3.3379,0.14259 4.81607,0.96939 0.6519,-0.0487 1.35819,1.32466 1.59644,0.85275 -0.30613,-1.31726 -0.46131,-2.65696 -0.4019,-4.0101 -0.06,-1.7879 0.1677,-3.5613 0.40178,-5.32741 0.28821,-1.63407 -1.76544,-1.07075 -2.41036,-1.9233 -1.00687,0.5243 -0.65977,1.90187 -0.80825,2.84041 0.001,0.55305 -0.045,1.79659 -0.4931,0.74369 -0.37317,-1.44533 -1.86935,-0.63467 -1.79049,0.55329 0.0952,0.89367 -0.77108,1.26115 -1.16257,0.34445 -0.0147,-0.72049 -0.45653,-2.75865 -1.45592,-1.78035 -0.55883,0.87726 -1.57202,2.4241 -2.72061,1.80082 -0.25413,-0.66201 0.14683,-1.95379 -1.08728,-1.49184 -1.61247,0.2924 -0.3015,-1.68341 -0.0428,-2.45045 0.72208,-1.22796 -0.66606,-2.02186 -1.77289,-1.90859 -0.73947,-5e-4 -1.40492,0.37024 -2.01481,0.74938 z" />
    <path
       id="path230"
       style="fill:#b8664a;fill-opacity:1;stroke:#b8664a;stroke-width:0.323417px;stroke-linecap:butt;stroke-linejoin:miter;stroke-opacity:1"
       d="m 106.6884,185.22809 c -0.81784,0.21801 -1.50624,0.072 -1.29825,-0.92842 -0.33047,-1.63797 0.32928,-3.24077 0.20515,-4.88432 0.0669,-1.42104 -0.47731,-3.19681 0.6941,-4.31437 1.2532,0.0821 0.52762,2.67028 1.70671,2.49259 0.55865,-0.89303 0.71981,-2.63684 1.9471,-2.71727 0.75094,0.7458 0.80433,2.03523 0.94802,3.05423 -0.24634,1.27097 0.9454,1.78993 1.39047,0.45576 0.39094,-1.09493 1.37574,-1.69829 1.78436,-0.26209 0.18639,1.06035 1.12648,1.03305 1.37089,0.01 0.52523,-1.70179 2.22353,-0.50502 2.51058,0.60363 0.31605,-0.76523 0.97717,-2.1185 1.93154,-1.0879 0.62692,1.15204 1.65542,0.75186 1.75406,-0.46529 0.44237,-1.07179 -0.23784,-2.02649 -0.39021,-3.04007 0.45504,-0.8577 1.99847,-0.84924 2.82419,-0.4343 0.65029,0.71242 2.10359,0.15753 1.50304,1.44099 -0.23104,1.75052 0.0776,3.5072 0.24199,5.23956 0.18617,1.73799 -1.7936,1.21638 -2.8698,1.704 -1.53572,0.33231 -3.09613,0.63436 -4.50365,1.36435 -1.56216,0.4411 -3.29674,-0.0626 -4.77252,0.75221 -1.80491,0.63724 -3.75702,0.60373 -5.60393,1.07176 -0.45598,0.0584 -0.92682,0.0648 -1.37384,-0.0544 z" />
    <path
       id="path256"
       style="fill:#9e5035;fill-opacity:1;stroke:#9e5035;stroke-width:0.323417px;stroke-linecap:butt;stroke-linejoin:miter;stroke-opacity:1"
       d="m 184.02593,247.52807 c 0.98191,1.89984 3.62159,0.37477 5.26588,1.23985 3.26921,0.62059 6.5608,1.30924 9.90771,1.1203 3.84912,0.28169 7.66667,0.95802 11.53858,0.93185 1.31018,0.27736 5.04234,0.92055 4.10854,-1.3732 -2.60897,-0.84272 -5.47953,-0.14619 -8.1733,-0.65949 -3.13638,-0.22791 -6.36851,0.24216 -9.40341,-0.78963 -2.83716,-0.21641 -5.75512,0.59036 -8.52653,-0.40181 -1.51534,-0.34594 -3.26897,-0.94639 -4.71747,-0.0678 z" />
    <path
       id="path263"
       style="fill:#a05a2c;fill-opacity:1;stroke:#a05a2c;stroke-width:0.323417px;stroke-linecap:butt;stroke-linejoin:miter;stroke-opacity:1"
       d="m 159.82334,245.87912 c -1.84322,0.32253 -0.75522,2.13811 0.65006,1.63579 2.92967,0.80019 5.96276,0.39134 8.93874,0.19834 4.03873,0.16945 8.12522,1.46353 12.13976,0.41134 1.72948,-0.34299 3.43999,1.08278 5.10117,0.29558 0.172,-2.06417 -3.08113,-1.56583 -4.50735,-1.62045 -3.99716,-0.0122 -8.01156,0.0227 -11.98324,-0.4834 -3.09331,0.0496 -6.14756,-0.67204 -9.22635,-0.6925 -0.37875,0.0436 -0.75396,0.12605 -1.11279,0.2553 z" />
    <path
       id="path270"
       style="fill:#a05a2c;fill-opacity:1;stroke:#a05a2c;stroke-width:0.323417px;stroke-linecap:butt;stroke-linejoin:miter;stroke-opacity:1"
       d="m 136.36642,246.16673 c -1.85633,0.0931 -2.31629,3.4272 -4e-4,2.81594 2.10316,-0.53793 4.1765,-1.40512 6.40016,-1.23215 2.41465,0.10342 4.84094,0.24146 7.23445,-0.16731 2.59134,-0.17895 5.45297,-0.61271 7.80653,0.73909 1.96563,0.86587 3.28416,-2.86691 0.77322,-2.45975 -2.29605,-0.009 -4.5888,0.22276 -6.88459,0.0535 -2.89345,-0.0331 -5.76515,0.41209 -8.59825,0.9279 -2.00342,-0.0138 -4.01998,0.0929 -6.0148,-0.0208 -0.33642,-0.0691 -0.61675,-0.32755 -0.71632,-0.65649 z" />
    <path
       id="path277"
       style="fill:#9e5035;fill-opacity:1;stroke:#9e5035;stroke-width:0.323417px;stroke-linecap:butt;stroke-linejoin:miter;stroke-opacity:1"
       d="m 106.07056,247.01037 c -2.07095,0.24059 0.0221,2.27976 1.29579,1.61886 2.33431,0.0817 4.67173,-0.74618 6.97053,-0.0383 2.56194,0.49997 5.15144,0.11527 7.71063,-0.0984 4.43225,-0.17161 8.88807,0.16886 13.30474,0.0927 2.29073,-0.68113 0.56787,-3.09284 -1.26342,-2.08812 -4.73166,0.81279 -9.5769,0.97084 -14.34388,0.38946 -3.03646,0.11136 -5.98953,1.10536 -9.053,0.86991 -1.63675,0.20406 -3.04997,-0.67681 -4.62139,-0.74612 z" />
    <path
       id="path284"
       style="fill:#9e5035;fill-opacity:1;stroke:#9e5035;stroke-width:0.323417px;stroke-linecap:butt;stroke-linejoin:miter;stroke-opacity:1"
       d="m 80.802706,248.92776 c -1.305949,0.30624 -0.802946,1.92843 0.451602,1.72644 2.054939,0.23738 3.998937,-0.73501 6.043902,-0.76214 1.568207,-0.0317 3.0657,-0.58796 4.622893,-0.66899 1.202525,0.0535 2.155601,1.08762 3.389174,0.99345 0.944422,-1.2119 -1.332523,-1.73675 -2.221059,-1.46682 -2.704919,0.16664 -5.467045,-0.15511 -8.113767,0.56667 -1.146088,0.25679 -2.409425,0.53367 -3.487513,-0.10903 -0.225868,-0.0991 -0.451639,-0.19962 -0.685232,-0.27956 z" />
    <path
       id="path291"
       style="fill:#9e5035;fill-opacity:1;stroke:#9e5035;stroke-width:0.323417px;stroke-linecap:butt;stroke-linejoin:miter;stroke-opacity:1"
       d="m 94.757549,249.04279 c -0.562935,0.36175 -1.447291,1.22998 -0.26287,1.44572 1.681838,0.41225 3.244813,-0.78808 4.93742,-0.54147 1.464141,-0.042 2.873991,0.4346 4.327691,0.51498 1.03161,-0.0502 2.15792,-0.0744 3.05088,-0.6579 0.18227,-1.01865 -1.29313,-0.8187 -1.9474,-0.85641 -1.82241,0.009 -3.65098,0.0981 -5.438481,0.47387 -1.510022,0.27869 -2.994839,-0.27176 -4.496623,-0.36033 z" />
    <path
       id="path298"
       style="fill:#9e5035;fill-opacity:1;stroke:#9e5035;stroke-width:0.323417px;stroke-linecap:butt;stroke-linejoin:miter;stroke-opacity:1"
       d="m 109.30894,270.07648 c -1.14122,0.0947 -0.30665,1.25499 0.46847,0.99176 1.95122,0.45361 3.96894,0.70029 5.96355,0.37939 1.93436,-0.23929 3.95143,-0.59864 5.85268,0.0255 1.04781,0.5498 2.00155,-1.01764 0.74241,-1.42544 -1.83808,-0.91728 -3.9431,-0.32334 -5.88359,-0.76408 -1.33608,-0.2262 -2.72146,-0.19514 -4.01164,0.24589 -1.03526,0.23098 -2.09777,0.3102 -3.13188,0.54694 z" />
    <path
       id="path305"
       style="fill:#803300;fill-opacity:1;stroke:#803300;stroke-width:0.323417px;stroke-linecap:butt;stroke-linejoin:miter;stroke-opacity:1"
       d="m 111.24771,292.22223 c -0.77086,-1.92646 0.3506,-3.99397 -0.13337,-5.97618 -0.37602,-2.28574 -0.39925,-4.6443 -0.0925,-6.9411 -0.011,-1.24835 0.98314,-1.9947 1.89454,-2.65939 0.69937,-0.93505 1.74051,-1.46766 2.88823,-1.63136 1.67057,-0.4565 3.89927,0.14588 4.38608,2.00269 1.03755,2.5946 1.027,5.44323 1.72505,8.11505 0.19089,1.88891 -0.39864,3.74174 -0.29878,5.63267 0.23803,2.03339 -1.9399,1.99341 -3.27554,1.43178 -2.36052,-0.19876 -4.72984,0.15047 -7.09368,0.0258 z" />
    <path
       id="path312"
       style="fill:#ececec;fill-opacity:1;stroke:#ececec;stroke-width:0.323417px;stroke-linecap:butt;stroke-linejoin:miter;stroke-opacity:1"
       d="m 113.03733,237.97951 c -2.00255,1.63529 -3.361,3.95031 -5.51842,5.4093 -0.43521,0.86179 1.37341,-0.13628 1.89772,0.043 1.48564,-0.0819 2.95494,-0.29917 4.4068,-0.60738 1.63998,-0.18045 3.1285,0.73437 4.76275,0.70959 1.77293,0.0256 3.60719,0.228 5.33327,-0.25953 0.64628,-0.21843 1.44135,-0.91093 0.32132,-1.06627 -1.56202,-0.82331 -2.43859,-2.43344 -3.79689,-3.51133 -0.8788,-1.1882 -2.35784,-1.46207 -3.726,-1.06346 -1.20665,0.38436 -2.51477,-0.22658 -3.68055,0.34606 z" />
    <path
       id="path319"
       style="fill:#9e5035;fill-opacity:1;stroke:#9e5035;stroke-width:0.323417px;stroke-linecap:butt;stroke-linejoin:miter;stroke-opacity:1"
       d="m 105.28227,231.19197 c -1.28623,0.97263 0.33246,1.94888 1.31673,1.28303 3.81842,-0.60574 7.65869,0.0626 11.47688,0.23025 2.81912,-0.002 5.64802,-0.29696 8.45906,-0.0191 1.62991,0.14864 1.92441,-1.98199 0.0725,-1.89171 -2.1797,-0.37396 -4.40029,-0.009 -6.59824,-0.0805 -3.26875,0.19795 -6.55143,0.52509 -9.81614,0.0774 -1.64894,-0.0964 -3.42307,-0.41559 -4.91075,0.40078 z" />
    <path
       id="path330"
       style="fill:#84422a;fill-opacity:1;stroke:#84422a;stroke-width:0.323417px;stroke-linecap:butt;stroke-linejoin:miter;stroke-opacity:1"
       d="m 111.97208,201.22331 c 0.94039,-1.87678 3.16064,-2.61292 5.10546,-2.87878 1.23454,-0.11918 3.09514,0.0707 3.33854,1.57818 0.38853,2.13793 1.70062,4.10882 1.54635,6.34098 -0.29265,1.44863 -0.59951,2.90381 -0.73244,4.36902 -0.56357,1.19144 -2.03126,0.62412 -3.03843,0.53922 -1.87898,-0.43221 -3.8154,-0.56952 -5.73225,-0.33376 -1.78544,0.21779 -0.8406,-2.46332 -0.78736,-3.56141 0.33833,-1.24318 0.10427,-2.51423 0.0546,-3.77019 0.0122,-0.76667 0.11209,-1.52924 0.24551,-2.28326 z" />
    <path
       id="path337"
       style="fill:#ececec;stroke:#f2f2f2;stroke-width:0.323417px;stroke-linecap:butt;stroke-linejoin:miter;stroke-opacity:1"
       d="m 114.86957,202.43125 c -0.45901,1.15955 -0.64117,2.51318 -0.22423,3.70386 0.70419,0.55782 0.79094,1.60307 1.6629,1.97413 0.78542,0.34943 1.67696,0.35806 2.52027,0.40154 0.74115,-0.13182 1.05015,-0.94629 1.35958,-1.5417 0.51087,-1.26573 1.01058,-2.58747 0.92065,-3.97817 0.006,-0.75861 -0.19153,-1.53545 -0.78138,-2.05647 -0.54407,-0.61674 -1.33152,-1.02206 -2.16738,-0.8597 -0.76097,0.0661 -1.59214,0.0298 -2.27688,0.40518 -0.55024,0.51589 -0.58263,1.35036 -1.01353,1.95133 z" />
    <path
       id="path344"
       style="fill:#6b3a0b;fill-opacity:1;stroke:#6b3a0b;stroke-width:0.323417px;stroke-linecap:butt;stroke-linejoin:miter;stroke-opacity:1"
       d="m 129.25052,201.64514 c 0.13965,-1.00326 0.88576,-1.64431 1.8017,-1.94602 1.04816,-0.62072 2.908,-0.71998 3.32392,0.70371 0.51726,1.92297 0.44701,3.94929 0.87728,5.89324 0.26869,1.06384 0.45398,2.12635 0.44612,3.22636 0.24504,0.83212 0.39065,2.04674 -0.66453,2.38119 -0.92317,0.0585 -1.76782,-0.49212 -2.65918,-0.68251 -0.88976,-0.2996 -1.82782,-0.18795 -2.73638,-0.0787 -0.95499,-0.3424 0.2501,-1.73783 0.0172,-2.53722 0.19656,-1.80991 -0.49925,-3.5511 -0.44598,-5.35765 -0.01,-0.53438 0.005,-1.06919 0.0399,-1.60242 z" />
    <path
       id="path351"
       style="fill:#ececec;fill-opacity:1;stroke:#ececec;stroke-width:0.323417px;stroke-linecap:butt;stroke-linejoin:miter;stroke-opacity:1"
       d="m 132.63803,200.05371 c 0.92182,0.30074 1.50297,1.2449 1.51993,2.19129 0.0878,1.15418 0.056,2.4283 -0.626,3.4144 -0.50005,0.69884 -1.30399,1.16916 -2.13836,1.33199 -0.8094,-0.0224 -1.4303,-0.7901 -1.64314,-1.52239 -0.12919,-0.79196 -0.48067,-1.59588 -0.29407,-2.40579 0.38877,-1.47706 1.62865,-2.80138 3.18164,-3.0095 z" />
    <path
       id="path358"
       style="fill:#b8664a;fill-opacity:1;stroke:#b8664a;stroke-width:0.323417px;stroke-linecap:butt;stroke-linejoin:miter;stroke-opacity:1"
       d="m 129.93228,213.24529 c -0.14615,-1.84452 1.90249,-3.45563 3.65974,-2.81901 0.96069,0.27536 2.07528,0.72748 3.00395,0.10806 0.63823,-0.50562 1.33728,-0.14053 1.1902,0.67142 0.13376,1.23375 0.21928,2.49763 0.75854,3.63807 0.35061,0.67653 0.3213,1.55982 -0.66305,1.31951 -1.20665,-0.004 -2.44564,0.0852 -3.51737,0.70016 -0.91801,0.32873 -1.6725,0.9406 -2.47456,1.47099 -0.60186,0.28671 -2.10163,0.90136 -1.88085,-0.34341 0.0308,-1.28746 0.15929,-2.58879 -0.12187,-3.85925 -0.0262,-0.29539 -0.0241,-0.59674 0.0452,-0.8865 z" />
    <path
       id="path365"
       style="fill:#803300;fill-opacity:1;stroke:#803300;stroke-width:0.323417px;stroke-linecap:butt;stroke-linejoin:miter;stroke-opacity:1"
       d="m 110.3955,212.95768 c 2.61418,0.28782 5.21235,-0.30493 7.79744,-0.6069 1.02378,-0.0266 2.1077,-0.80297 3.01428,-0.6638 0.42297,0.96421 0.24119,2.11223 0.50329,3.14116 0.1664,1.14366 0.18965,2.47896 -0.88643,3.18688 -0.46724,0.77859 -1.24615,1.13482 -2.14103,1.20112 -2.28571,0.43704 -4.62261,0.077 -6.92708,0.11942 -0.82121,-0.43549 -0.98677,-1.50792 -1.51481,-2.23109 -0.46876,-0.99326 -0.84257,-2.11893 -0.68022,-3.2244 0.14443,-0.40512 0.50118,-0.677 0.83456,-0.92239 z" />
    <path
       id="path372"
       style="fill:#9e5035;fill-opacity:1;stroke:#9e5035;stroke-width:0.323417px;stroke-linecap:butt;stroke-linejoin:miter;stroke-opacity:1"
       d="m 104.55791,184.69548 c -1.51288,0.19199 -3.4008,1.8598 -3.09846,3.39837 1.2205,1.52454 3.49603,0.87481 5.1661,0.77424 2.64118,-0.33966 5.29405,-0.57192 7.86577,-1.309 4.00437,-1.09552 8.18187,-0.70973 12.27859,-0.72516 1.8648,-0.25512 2.49441,-3.46013 0.42514,-3.91974 -3.13771,-0.92192 -6.11055,1.07983 -9.21299,1.21075 -2.66447,0.57481 -5.4143,0.92588 -8.1188,0.39461 -1.75919,-0.19871 -3.58723,-0.36259 -5.30535,0.17593 z" />
    <path
       id="path379"
       style="fill:#6f3433;fill-opacity:1;stroke:#6f3433;stroke-width:0.323417px;stroke-linecap:butt;stroke-linejoin:miter;stroke-opacity:1"
       d="m 127.03479,183.77514 c -0.92181,0.85793 -0.69509,2.40292 0.79399,2.26129 1.64928,0.0983 3.25915,0.41749 4.88621,0.66415 2.32484,0.16754 4.68466,-0.0754 6.97501,0.46062 1.67543,0.20507 3.39292,-0.006 5.0433,0.40966 0.23486,-1.33207 -1.47045,-1.83402 -2.27064,-2.5639 -1.38781,-0.9425 -3.08156,-0.94603 -4.6882,-0.94406 -1.57204,-0.0847 -3.17934,-0.15914 -4.69389,0.34517 -1.87767,0.38509 -3.6841,-0.39014 -5.53908,-0.52621 -0.17026,-0.0285 -0.34104,-0.063 -0.5067,-0.10671 z" />
    <path
       id="path386"
       style="fill:#9e5035;fill-opacity:1;stroke:#9e5035;stroke-width:0.323417px;stroke-linecap:butt;stroke-linejoin:miter;stroke-opacity:1"
       d="m 105.64855,193.62131 c -0.56708,0.30727 -1.10664,1.0472 -0.83129,1.69802 0.47342,0.44074 1.22743,0.23233 1.82093,0.41565 0.9247,0.17604 1.86931,0.0913 2.77794,-0.12976 1.53893,-0.40089 3.12261,0.15343 4.67237,-0.1 0.57108,-0.20201 1.00556,-0.71322 1.30495,-1.21262 -0.0153,-0.71957 -0.94535,-0.70891 -1.46028,-0.86232 -1.74665,-0.42237 -3.55264,-0.0359 -5.31532,-0.30795 -0.78849,-0.0617 -1.61275,-0.20369 -2.38297,0.0346 -0.22567,0.11331 -0.3909,0.31031 -0.58633,0.46435 z" />
    <path
       id="path392"
       style="fill:#9e5035;fill-opacity:1;stroke:#9e5035;stroke-width:0.323417px;stroke-linecap:butt;stroke-linejoin:miter;stroke-opacity:1"
       d="m 117.94159,192.8352 c -0.17795,0.61072 -1.36077,1.40034 -0.37179,1.90854 0.8417,0.27629 1.75907,0.063 2.61381,-0.0593 1.29678,-0.25901 2.55472,-0.72309 3.88262,-0.79574 0.75038,-0.18265 1.52537,-0.7797 2.23757,-0.11112 0.65788,0.63967 1.66244,0.19695 2.06022,-0.50899 0.48277,-0.76035 -0.60537,-1.22769 -1.18348,-1.41079 -1.97437,-0.22791 -3.86036,0.68537 -5.83507,0.57606 -1.15916,-0.04 -2.26002,0.33217 -3.40388,0.40128 z" />
    <path
       id="path399"
       style="fill:#6f3433;fill-opacity:1;stroke:#6f3433;stroke-width:0.323417px;stroke-linecap:butt;stroke-linejoin:miter;stroke-opacity:1"
       d="m 126.3358,192.39419 c 0.0298,0.42706 -0.10231,1.04085 0.45253,1.18934 0.86344,0.36346 1.81901,0.49066 2.74922,0.3805 0.77106,-0.0543 1.59335,-0.12652 2.3163,0.20528 0.46381,-0.0707 0.25246,-0.79571 0.095,-1.08257 -0.29549,-0.47581 -0.89654,-0.53761 -1.37871,-0.71818 -0.96824,-0.29038 -1.97809,-0.40648 -2.98264,-0.47209 -0.396,-0.16376 -0.81036,-0.0424 -1.0499,0.31189 -0.0672,0.062 -0.13471,0.12369 -0.20177,0.18583 z" />
    <path
       id="path406"
       style="fill:#6f3433;fill-opacity:1;stroke:#6f3433;stroke-width:0.323417px;stroke-linecap:butt;stroke-linejoin:miter;stroke-opacity:1"
       d="m 136.47703,193.35288 c -0.29475,0.31644 -0.84828,0.70923 -0.46022,1.18365 0.30591,0.57491 1.01357,0.53171 1.56856,0.54062 1.06621,0.0287 2.15239,-0.13402 3.20426,0.0836 0.44276,0.21967 0.97951,1.02246 1.46831,0.43768 0.24089,-0.36916 0.81317,-0.82335 0.42239,-1.28075 -0.55446,-0.58718 -1.35349,-0.84535 -2.06988,-1.17857 -0.48288,-0.26048 -1.0236,-0.32708 -1.56599,-0.28695 -0.89844,-0.062 -1.68965,0.43 -2.56743,0.50076 z" />
    <path
       id="path413"
       style="fill:#5fbcd3;fill-opacity:1;stroke:#5fbcd3;stroke-width:0.323417px;stroke-linecap:butt;stroke-linejoin:miter;stroke-opacity:1"
       d="m 112.63662,221.4617 c 0.005,0.46544 -0.90085,1.37473 -0.0722,1.44975 0.48528,-0.14512 0.97193,-0.27717 1.44828,-0.45012 0.56392,-0.16674 0.63227,0.93525 1.25533,0.54801 0.40562,-0.28714 0.70226,-1.02923 1.31268,-0.75073 0.4828,0.25379 0.78235,1.09562 1.44409,0.7791 0.69147,-0.18331 1.32648,-0.53178 1.97644,-0.81166 0.32682,-0.51129 -0.37117,-0.96561 -0.70517,-1.27641 -0.60184,-0.41155 -1.15743,0.26248 -1.68901,0.4729 -1.04571,0.35869 -1.93734,-0.71895 -2.98607,-0.49305 -0.68157,0.0991 -1.30035,0.44382 -1.98429,0.53221 z" />
    <path
       id="path420"
       style="fill:#5fbcd3;fill-opacity:1;stroke:#5fbcd3;stroke-width:0.323417px;stroke-linecap:butt;stroke-linejoin:miter;stroke-opacity:1"
       d="m 112.87098,225.35398 c 0.2716,0.5245 0.80802,0.2886 1.17662,0.12275 0.46156,0.232 0.92731,0.60004 1.48225,0.33577 0.63074,-0.26892 1.3037,-0.12351 1.96001,-0.0832 0.64921,-0.0837 1.09622,0.50471 1.74917,0.39031 0.59178,0.10097 1.0467,-0.40982 0.97442,-0.9836 0.0741,-0.42447 -0.004,-0.88109 -0.38821,-0.387 -0.56111,0.31849 -0.84935,-0.36927 -1.25278,-0.58876 -0.61339,-0.32289 -1.00214,0.36958 -1.40369,0.69972 -0.5904,0.51252 -1.42855,0.22444 -2.01643,-0.13725 -0.54128,-0.2416 -1.11194,-0.67298 -1.73413,-0.5071 -0.43861,0.18422 -0.49964,0.72673 -0.54723,1.13845 z" />
    <path
       id="path427"
       style="fill:#5fbcd3;fill-opacity:1;stroke:#5fbcd3;stroke-width:0.323417px;stroke-linecap:butt;stroke-linejoin:miter;stroke-opacity:1"
       d="m 113.02012,228.49848 c -0.23904,0.35863 -0.39711,0.95781 0.24125,0.91742 0.53473,0.066 1.10275,0.0883 1.57914,-0.20946 0.72709,-0.38606 1.57182,-0.1437 2.34005,-0.0463 0.44155,0.28547 0.98722,0.61288 1.46347,0.17207 0.49846,-0.33563 1.32682,-0.78191 1.21149,-1.47935 -0.29177,-0.58797 -1.11112,-0.50583 -1.57744,-0.1864 -0.5038,0.45609 -1.15975,0.34785 -1.76768,0.22401 -0.96959,-0.15306 -1.98164,-0.467 -2.95602,-0.19209 -0.40146,0.10121 -0.46793,0.44975 -0.53426,0.8001 z" />
    <path
       id="path434"
       style="fill:#6f3433;fill-opacity:1;stroke:#6f3433;stroke-width:0.323417px;stroke-linecap:butt;stroke-linejoin:miter;stroke-opacity:1"
       d="m 131.12945,222.78469 c -0.39823,0.4435 -0.92468,1.49658 -0.0178,1.68516 1.19006,0.12819 2.35352,-0.31994 3.52547,-0.46943 1.47983,-0.24355 3.0618,-0.44883 4.48362,0.16401 0.84016,0.28364 1.94882,0.64634 2.66426,-0.0933 0.87804,-0.59589 0.50011,-1.8625 -0.58534,-1.80159 -1.75074,-0.21276 -3.51813,0.004 -5.27687,-0.0623 -1.60976,0.006 -3.25253,0.0655 -4.7933,0.57745 z" />
    <path
       id="path441"
       style="fill:#6f3433;fill-opacity:1;stroke:#6f3433;stroke-width:0.323417px;stroke-linecap:butt;stroke-linejoin:miter;stroke-opacity:1"
       d="m 133.17476,227.17549 c -0.78686,-0.14449 -1.32305,0.55287 -1.80074,1.053 -0.64249,0.89263 0.79109,1.32629 1.46939,1.15393 1.98349,-0.0796 3.90642,-1.2816 5.90685,-0.65674 0.87987,0.20433 1.80306,0.53309 2.70831,0.32486 0.55502,-0.261 1.06479,-1.39282 0.32931,-1.69631 -1.33457,-0.46528 -2.80681,-0.55818 -4.17909,-0.20268 -1.47809,0.0776 -2.97882,-0.41855 -4.43403,0.024 z" />
    <path
       id="path448"
       style="fill:#5fbcd3;fill-opacity:1;stroke:#5fbcd3;stroke-width:0.323417px;stroke-linecap:butt;stroke-linejoin:miter;stroke-opacity:1"
       d="m 83.959948,253.17518 c 0.120525,0.53361 -0.121381,1.05486 -0.233447,1.56845 -0.08007,0.33298 -0.199526,0.69256 -0.110746,1.03156 0.262771,0.2614 0.650542,-0.0853 0.938995,-0.15402 0.384617,-0.19024 0.782887,-0.42655 1.23015,-0.33014 0.373383,0.0804 0.859493,-0.089 0.806601,-0.54543 -0.02628,-0.39546 -0.108913,-0.78645 -0.164115,-1.17918 -0.07359,-0.37104 -0.249166,-0.83318 -0.681895,-0.88387 -0.626779,-0.0435 -1.212267,0.28861 -1.785531,0.49263 z" />
    <path
       id="path455"
       style="fill:#5fbcd3;fill-opacity:1;stroke:#5fbcd3;stroke-width:0.323417px;stroke-linecap:butt;stroke-linejoin:miter;stroke-opacity:1"
       d="m 84.023865,256.97159 c -0.109768,0.50567 -0.112824,1.05902 -0.420101,1.49806 -0.220906,0.33464 0.221052,0.42308 0.461723,0.45403 0.327862,0.0616 0.657033,0.16583 0.990958,0.16428 0.418121,-0.0768 0.707003,-0.51095 1.159094,-0.46572 0.29014,0.0443 0.653292,-0.0419 0.597259,-0.41049 0.05867,-0.45017 -0.116003,-0.96449 -0.549355,-1.16801 -0.63789,-0.3314 -1.395181,-0.2521 -2.074974,-0.11234 -0.05513,0.0125 -0.109891,0.0259 -0.164604,0.0402 z" />
    <path
       id="path462"
       style="fill:#5fbcd3;fill-opacity:1;stroke:#5fbcd3;stroke-width:0.323417px;stroke-linecap:butt;stroke-linejoin:miter;stroke-opacity:1"
       d="m 84.173006,260.69132 c -0.398063,1.10454 -0.199881,2.29632 -0.313267,3.44157 -0.01944,0.5468 -0.011,1.10612 0.156792,1.6321 0.356454,0.24643 0.820426,0.13246 1.226886,0.15917 0.365622,0.005 0.890248,-0.0804 0.808276,-0.56841 -0.03655,-1.68844 -0.15161,-3.37976 -0.373835,-5.0536 -0.260217,-0.55183 -0.889649,0.0782 -1.259145,0.22899 -0.08275,0.0521 -0.164615,0.10573 -0.245707,0.16018 z" />
    <path
       id="path469"
       style="fill:#5fbcd3;fill-opacity:1;stroke:#5fbcd3;stroke-width:0.323417px;stroke-linecap:butt;stroke-linejoin:miter;stroke-opacity:1"
       d="m 83.903952,272.11313 c -0.195138,0.39797 -0.155717,0.85996 -0.0995,1.28514 0.130426,0.16469 0.176522,0.36344 0.269091,0.54129 0.248715,0.21274 0.605633,0.14189 0.904745,0.11882 0.229193,-0.0171 0.455734,-0.099 0.684682,-0.0863 0.198329,0.11759 0.591905,0.19295 0.538537,-0.16264 5.87e-4,-0.45233 -0.12792,-0.89314 -0.241698,-1.32698 -0.05855,-0.27428 -0.377441,-0.30478 -0.606439,-0.32779 -0.307388,-0.0135 -0.646337,-0.0356 -0.910917,0.14743 -0.223228,0.12558 -0.393589,-0.0443 -0.538488,-0.18899 z" />
    <path
       id="path476"
       style="fill:#5fbcd3;fill-opacity:1;stroke:#5fbcd3;stroke-width:0.323417px;stroke-linecap:butt;stroke-linejoin:miter;stroke-opacity:1"
       d="m 83.999822,275.66028 c -0.260841,0.3988 -0.252235,0.89944 -0.170838,1.35071 -0.02408,0.27709 0.02909,0.60991 0.337776,0.70184 0.550369,0.25769 1.153752,0.0139 1.727248,0.0348 0.360121,0.0652 0.745996,-0.12187 0.656507,-0.53913 0.02958,-0.50637 0.05647,-1.02594 -0.07212,-1.52216 -0.175886,-0.26704 -0.534821,-0.2955 -0.818507,-0.3685 -0.436421,-0.0482 -0.866155,0.13235 -1.208722,0.39011 -0.150228,0.10928 -0.312632,0.0418 -0.451345,-0.0477 z" />
    <path
       id="path483"
       style="fill:#5fbcd3;fill-opacity:1;stroke:#5fbcd3;stroke-width:0.323417px;stroke-linecap:butt;stroke-linejoin:miter;stroke-opacity:1"
       d="m 84.223526,279.42795 c -0.123727,0.94097 0.05806,1.89091 -0.05427,2.83317 0.04853,0.394 -0.20268,1.08027 0.256354,1.26259 0.443095,0.0145 0.873782,0.12241 1.313613,0.17801 0.265461,-0.14139 0.1631,-0.60123 0.203072,-0.87732 -0.02567,-0.81237 -0.270069,-1.61957 -0.121137,-2.43401 0.04902,-0.47688 0.114536,-0.95195 0.159152,-1.42932 -0.344462,-0.11393 -0.672654,0.12672 -1.007301,0.17851 -0.280019,0.035 -0.542252,0.0819 -0.749467,0.28837 z" />
    <path
       id="path490"
       style="fill:#5fbcd3;fill-opacity:1;stroke:#5fbcd3;stroke-width:0.323417px;stroke-linecap:butt;stroke-linejoin:miter;stroke-opacity:1"
       d="m 89.943943,253.80214 c -0.197754,0.24498 -0.216139,0.57871 -0.279983,0.87568 -0.05122,0.22622 -0.04743,0.58696 0.274091,0.55954 0.451822,0.017 0.89312,-0.11209 1.336679,-0.16247 0.188488,0.0972 0.476416,0.20331 0.55351,-0.0913 0.134472,-0.46719 0.141721,-0.96374 0.125256,-1.44695 0.0073,-0.26178 -0.115513,-0.50435 -0.277904,-0.70255 -0.295971,-0.20502 -0.643123,0.12658 -0.965606,0.11013 -0.272306,0.0519 -0.622318,-0.10268 -0.839177,0.10806 -0.102434,0.23629 0.02982,0.51411 0.0731,0.74997 z" />
    <path
       id="path497"
       style="fill:#5fbcd3;fill-opacity:1;stroke:#5fbcd3;stroke-width:0.323417px;stroke-linecap:butt;stroke-linejoin:miter;stroke-opacity:1"
       d="m 89.805461,257.0521 c -0.25974,0.60174 -0.110868,1.27968 -0.295506,1.90012 -0.02054,0.25168 -0.218424,0.69541 0.164004,0.74898 0.452018,0.0407 0.90274,-0.0901 1.356677,-0.0356 0.386719,0.10097 0.880212,-0.0132 0.976314,-0.45833 0.137455,-0.52338 0.317692,-1.04536 0.315651,-1.59294 0.03325,-0.31768 0.206824,-0.81579 -0.161303,-0.99426 -0.81836,-0.19718 -1.545166,0.47866 -2.355837,0.43203 z" />
    <path
       id="path504"
       style="fill:#5fbcd3;fill-opacity:1;stroke:#5fbcd3;stroke-width:0.323417px;stroke-linecap:butt;stroke-linejoin:miter;stroke-opacity:1"
       d="m 89.933296,261.53877 c -0.0209,1.06791 -0.09045,2.13488 -0.186704,3.19774 -0.02054,0.43457 0.476049,0.41103 0.782141,0.42116 0.348447,0.011 0.697261,-0.006 1.04561,0.01 0.389665,0.24343 0.541092,-0.35183 0.581051,-0.62846 0.108912,-0.59097 -0.09754,-1.17517 -0.114169,-1.76563 -0.05574,-0.57437 -0.133727,-1.16267 -0.399444,-1.68309 0.0253,-0.42114 -0.466503,-0.42984 -0.749431,-0.31521 -0.339854,0.13128 -0.97294,0.11417 -0.927908,0.61942 l -0.011,0.0743 -0.02053,0.0694 z" />
    <path
       id="path515"
       style="fill:#5fbcd3;fill-opacity:1;stroke:#5fbcd3;stroke-width:0.323417px;stroke-linecap:butt;stroke-linejoin:miter;stroke-opacity:1"
       d="m 89.47524,271.97892 c -0.09253,0.62729 -0.405275,1.24453 -0.285508,1.88798 0.155815,0.3165 0.57302,0.26555 0.866582,0.25737 0.607124,-0.0409 1.199738,-0.28085 1.813499,-0.17423 0.335135,0.0567 0.789879,0.0568 0.714117,-0.40802 0.0024,-0.62102 0.06087,-1.28697 -0.228399,-1.86002 -0.227359,-0.30154 -0.665308,-0.25039 -0.997497,-0.22315 -0.649246,0.0884 -1.242789,0.39306 -1.882794,0.52007 z" />
    <path
       style="fill:#5fbcd3;fill-opacity:1;stroke:#5fbcd3;stroke-width:0.323417px;stroke-linecap:butt;stroke-linejoin:miter;stroke-opacity:1"
       d="m 89.858719,275.31516 c -0.09736,0.43408 -0.152711,0.87716 -0.171572,1.32165 -0.01605,0.37832 -0.07847,0.75406 -0.08406,1.1326 -4.7e-4,0.0318 -0.0305,0.0864 0,0.0958 0.04175,0.0128 0.08653,0.006 0.129001,8.5e-4 0.128845,-0.016 0.256074,-0.0428 0.382703,-0.071 0.34169,-0.0761 0.680506,-0.16438 1.019575,-0.25125 0.236702,-0.0606 0.472832,-0.12369 0.710798,-0.17924 0.06807,-0.0159 0.136609,-0.0297 0.20579,-0.04 0.144844,-0.0217 0.290969,-0.0379 0.433364,-0.0727 0.04159,-0.0102 0.08445,-0.019 0.122316,-0.0395 0.0343,-0.0186 0.0422,-0.0616 0.04889,-0.0965 0.0163,-0.085 0.01231,-0.17225 0.0047,-0.2579 -0.01608,-0.18161 -0.05666,-0.35996 -0.07702,-0.54099 -0.0047,-0.0421 -0.01287,-0.0847 -0.0077,-0.12676 0.0071,-0.0579 0.02117,-0.11463 0.03327,-0.17159 0.01851,-0.0871 0.03308,-0.17496 0.05038,-0.26239 0.01063,-0.0537 -0.01,-0.10598 -0.02487,-0.15661 -0.04371,-0.1484 -0.109199,-0.29334 -0.211552,-0.41097 -0.07878,-0.0905 -0.180921,-0.15954 -0.292792,-0.20256 -0.144423,-0.0555 -0.300478,-0.0723 -0.454171,-0.0741 -0.24697,-0.003 -0.492544,0.0273 -0.738111,0.0492 -0.154199,0.0137 -0.309194,0.0225 -0.46182,0.0497 -0.125718,0.0224 -0.248297,0.0636 -0.360493,0.12498 -0.09174,0.0502 -0.176786,0.11214 -0.256636,0.17938 z"
       id="path526" />
    <path
       id="path530"
       style="fill:#5fbcd3;fill-opacity:1;stroke:#5fbcd3;stroke-width:0.323417px;stroke-linecap:butt;stroke-linejoin:miter;stroke-opacity:1"
       d="m 89.730897,279.77307 c -0.256366,1.50159 0.0049,3.05699 -0.388809,4.54144 0.147502,0.47812 0.773646,0.0867 1.110346,0.0518 0.500203,-0.14537 1.039167,-0.46438 1.559173,-0.21079 0.680416,0.32576 0.415322,-0.73503 0.494336,-1.12018 -0.08715,-0.63201 0.324758,-1.17332 0.331285,-1.78699 -0.05953,-0.6062 -0.07787,-1.23396 -0.328706,-1.80018 -0.32785,-0.26436 -0.767852,-0.0633 -1.142396,-0.0498 -0.552949,0.0865 -1.098477,0.21745 -1.635229,0.37463 z" />
    <path
       id="path537"
       style="fill:#5fbcd3;fill-opacity:1;stroke:#5fbcd3;stroke-width:0.323417px;stroke-linecap:butt;stroke-linejoin:miter;stroke-opacity:1"
       d="m 97.294209,253.82132 c -0.123165,0.22367 -0.287988,0.436 -0.256671,0.70881 -0.04828,0.30224 -0.05391,0.66592 0.208339,0.87624 0.355867,0.30882 0.841218,0.46184 1.308406,0.45838 0.339328,0.0192 0.61447,-0.25101 0.61623,-0.58672 0.06258,-0.50806 0.349816,-1.02274 0.158663,-1.53516 -0.156402,-0.32336 -0.559317,-0.34504 -0.871558,-0.30646 -0.410604,0.0326 -0.821844,0.14935 -1.163409,0.38491 z" />
    <path
       id="path544"
       style="fill:#5fbcd3;fill-opacity:1;stroke:#5fbcd3;stroke-width:0.323417px;stroke-linecap:butt;stroke-linejoin:miter;stroke-opacity:1"
       d="m 100.94804,253.5433 c -0.0905,0.48597 -0.34657,0.98206 -0.19387,1.48104 0.16452,0.19002 0.45179,0.0675 0.66596,0.067 0.32084,-0.0656 0.69772,0.0557 0.96856,-0.17777 0.26669,-0.25723 0.40336,-0.63034 0.38222,-0.9989 -0.0202,-0.25087 0.16157,-0.61917 -0.0891,-0.78794 -0.36992,-0.13462 -0.7734,-0.16509 -1.16505,-0.16419 -0.20464,0.0322 -0.52906,-0.0252 -0.6093,0.22346 -0.0379,0.12139 0.0142,0.24042 0.0406,0.35737 z" />
    <path
       id="path551"
       style="fill:#5fbcd3;fill-opacity:1;stroke:#5fbcd3;stroke-width:0.323417px;stroke-linecap:butt;stroke-linejoin:miter;stroke-opacity:1"
       d="m 104.17575,253.53371 c -0.16064,0.31796 -0.41542,0.61711 -0.40022,0.99389 -0.01,0.2023 -0.10634,0.50448 0.1697,0.57094 0.45314,0.17537 0.95668,0.29922 1.44111,0.19034 0.26105,-0.0742 0.34916,-0.35951 0.36235,-0.6018 0.0122,-0.33995 0.0451,-0.68758 -0.0326,-1.02198 -0.0594,-0.32896 -0.42954,-0.44616 -0.71984,-0.36501 -0.28231,0.0431 -0.55114,0.14255 -0.82048,0.23362 z" />
    <path
       id="path558"
       style="fill:#5fbcd3;fill-opacity:1;stroke:#5fbcd3;stroke-width:0.323417px;stroke-linecap:butt;stroke-linejoin:miter;stroke-opacity:1"
       d="m 97.592478,257.28218 c -0.192082,0.71279 -0.14606,1.45816 -0.120525,2.18759 0.11698,0.38561 0.600254,0.33046 0.918716,0.3292 0.519016,-0.033 1.054839,-0.14733 1.5033,-0.41377 0.261511,-0.31487 0.08618,-0.75713 0.177361,-1.12673 0.0359,-0.33958 0.0451,-0.86341 -0.391923,-0.92853 -0.383761,-0.10207 -0.749492,-0.28613 -1.157309,-0.27876 -0.322912,-0.011 -0.655089,0.0551 -0.92962,0.231 z" />
    <path
       id="path570"
       style="fill:#5fbcd3;fill-opacity:1;stroke:#5fbcd3;stroke-width:0.323417px;stroke-linecap:butt;stroke-linejoin:miter;stroke-opacity:1"
       d="m 97.688348,261.673 c -0.410078,0.98426 0.148774,2.03724 -0.09327,3.04332 -0.172207,0.40959 0.174993,0.73592 0.581234,0.64078 0.399383,-0.0535 0.787483,0.0528 1.178346,0.11466 0.27689,-0.21278 0.0852,-0.62618 0.163931,-0.92739 0.02041,-1.10089 0.03924,-2.20679 -0.07102,-3.3035 -0.0073,-0.39514 -0.455844,-0.38924 -0.74409,-0.37093 -0.423646,0.0317 -0.848063,0.0799 -1.271453,0.0889 -0.284835,0.20502 0.147392,0.52409 0.256293,0.71421 z" />
    <path
       id="path577"
       style="fill:#5fbcd3;fill-opacity:1;stroke:#5fbcd3;stroke-width:0.323417px;stroke-linecap:butt;stroke-linejoin:miter;stroke-opacity:1"
       d="m 97.081151,272.64041 c -0.07799,0.31418 -0.111968,0.63482 -0.101456,0.95771 0.0098,0.28096 -0.149042,0.74566 0.193452,0.87684 0.725668,0.16536 1.476688,-0.01 2.207869,0.0936 0.2637,-0.13879 0.120647,-0.5433 0.18498,-0.79213 0.0187,-0.5217 0.03252,-1.05756 -0.102678,-1.56517 -0.197229,-0.22496 -0.554868,-0.11148 -0.819033,-0.15653 -0.3621,-0.0204 -0.716427,0.0358 -1.061194,0.13856 -0.226651,0.1017 -0.703898,-0.2706 -0.71578,0.11673 0.04266,0.12729 0.152392,0.21444 0.213914,0.33032 z" />
    <path
       id="path584"
       style="fill:#5fbcd3;fill-opacity:1;stroke:#5fbcd3;stroke-width:0.323417px;stroke-linecap:butt;stroke-linejoin:miter;stroke-opacity:1"
       d="m 97.198339,275.84244 c 0.01394,0.74392 -0.322655,1.45451 -0.254911,2.20121 0.361343,0.23898 0.823689,0.28005 1.246676,0.24918 0.352151,-0.0298 0.704998,-0.10366 1.059398,-0.0617 0.307889,-0.1006 0.136905,-0.51205 0.190542,-0.7515 -0.0061,-0.65977 -0.04083,-1.32042 -0.01442,-1.97952 -0.04376,-0.39621 -0.471441,-0.0872 -0.688863,-0.0255 -0.332397,0.1537 -0.686137,0.26439 -1.054936,0.26912 -0.163724,0.0167 -0.328877,0.0406 -0.483482,0.0988 z" />
    <path
       id="path591"
       style="fill:#5fbcd3;fill-opacity:1;stroke:#5fbcd3;stroke-width:0.323417px;stroke-linecap:butt;stroke-linejoin:miter;stroke-opacity:1"
       d="m 97.475303,279.90729 c -0.403759,1.19024 -0.451639,2.46728 -0.426019,3.71328 0.01931,0.4352 0.54982,0.46405 0.880371,0.44828 0.328645,0.0361 0.831855,0.0788 0.898865,-0.35757 0.155313,-0.86738 0.240292,-1.756 0.195138,-2.63813 -0.09767,-0.50421 -0.222152,-1.05069 -0.0011,-1.5362 -0.203866,-0.3604 -0.755152,-0.22844 -1.102168,-0.36852 -0.303953,-0.0753 -0.948921,-0.20025 -0.65229,0.29922 0.06197,0.14964 0.149959,0.28907 0.207252,0.43964 z" />
    <path
       id="path598"
       style="fill:#5fbcd3;fill-opacity:1;stroke:#5fbcd3;stroke-width:0.323417px;stroke-linecap:butt;stroke-linejoin:miter;stroke-opacity:1"
       d="m 110.22641,251.97211 c -0.27028,0.33117 -0.26073,0.78156 -0.34689,1.17988 -0.0526,0.36003 -0.0823,0.73106 -0.005,1.08989 0.13523,0.22887 0.43589,0.1154 0.64423,0.0876 0.20138,-0.0213 0.47621,0.16738 0.6127,-0.0604 0.24174,-0.48679 0.14581,-1.05807 0.34239,-1.55972 0.0991,-0.25309 0.15933,-0.62425 -0.12437,-0.782 -0.23473,-0.13977 -0.51903,-0.15308 -0.78323,-0.17856 -0.14011,0.026 -0.22478,0.15286 -0.33983,0.22329 z" />
    <path
       id="path609"
       style="fill:#5fbcd3;fill-opacity:1;stroke:#5fbcd3;stroke-width:0.323417px;stroke-linecap:butt;stroke-linejoin:miter;stroke-opacity:1"
       d="m 110.024,256.28621 c 0.005,0.56123 0.0306,1.13258 -0.10891,1.68074 0.13363,0.20538 0.43847,0.0901 0.64934,0.11331 0.25745,0.005 0.51667,0.0447 0.77307,0.004 0.16311,-0.33438 0.13367,-0.73905 0.19064,-1.10544 0.0339,-0.45359 0.0435,-0.91774 -0.0557,-1.36355 -0.11588,-0.3114 -0.4861,-0.21204 -0.73947,-0.22116 -0.32358,-0.002 -0.6438,-0.0601 -0.96617,-0.0677 -0.23281,0.0963 0.0248,0.464 0.0716,0.65734 0.0528,0.10634 0.11821,0.20587 0.18572,0.30333 z" />
    <path
       id="path616"
       style="fill:#5fbcd3;fill-opacity:1;stroke:#5fbcd3;stroke-width:0.323417px;stroke-linecap:butt;stroke-linejoin:miter;stroke-opacity:1"
       d="m 110.04532,260.3223 c -0.18938,1.12725 -0.0479,2.27749 -0.18064,3.4084 -0.22013,0.40559 -0.009,0.85551 0.46773,0.90408 0.41116,-0.0367 0.88304,0.61909 1.18842,0.2402 0.0707,-0.40688 0.007,-0.82703 0.0334,-1.23986 -0.009,-1.03821 -0.022,-2.07803 0.0724,-3.11306 0.0463,-0.51805 -0.14353,-1.12049 -0.7555,-1.13088 -0.38005,-0.11686 -1.2249,-0.25176 -0.98489,0.41533 0.0458,0.17399 0.10659,0.3438 0.15908,0.51579 z" />
    <path
       id="path623"
       style="fill:#5fbcd3;fill-opacity:1;stroke:#5fbcd3;stroke-width:0.323417px;stroke-linecap:butt;stroke-linejoin:miter;stroke-opacity:1"
       d="m 113.13455,251.94335 c -0.19651,0.59148 -0.36292,1.21317 -0.3285,1.8407 0.0614,0.29168 0.39152,0.33387 0.63751,0.29691 0.37996,-0.0315 0.77335,-0.18862 1.14561,-0.0279 0.34994,0.18447 0.50677,-0.20247 0.46263,-0.48876 -0.004,-0.40317 -0.0227,-0.80688 0.0314,-1.20793 0.0262,-0.31011 0.0579,-0.61981 0.0752,-0.93061 -0.36926,0.005 -0.7319,0.0958 -1.0995,0.12846 -0.35313,0.0361 -0.68686,0.10268 -0.92435,0.38907 z" />
    <path
       id="path630"
       style="fill:#5fbcd3;fill-opacity:1;stroke:#5fbcd3;stroke-width:0.323417px;stroke-linecap:butt;stroke-linejoin:miter;stroke-opacity:1"
       d="m 113.17716,255.70142 c 0.0757,0.39102 -0.10207,0.76906 -0.19151,1.14335 -0.0722,0.24419 -0.14732,0.48995 -0.17183,0.74454 0.21173,0.0851 0.44647,0.009 0.66778,0.0308 0.49061,-0.0238 0.98009,0.0605 1.46978,0.0324 0.26994,0.006 0.19751,-0.31432 0.16681,-0.48654 -0.0632,-0.41878 0.0636,-0.83228 0.0831,-1.24909 0.0907,-0.25389 -0.0179,-0.5372 -0.32758,-0.47418 -0.47538,-0.001 -0.9639,-0.0298 -1.4276,0.0887 -0.0964,0.0455 -0.17692,0.1171 -0.26902,0.16995 z" />
    <path
       id="path637"
       style="fill:#5fbcd3;fill-opacity:1;stroke:#5fbcd3;stroke-width:0.323417px;stroke-linecap:butt;stroke-linejoin:miter;stroke-opacity:1"
       d="m 113.32629,259.63205 c -0.459,0.85262 -0.32355,1.8535 -0.26391,2.77834 0.0496,0.53013 0.007,1.06256 -0.1028,1.58237 -0.0337,0.25394 -0.20002,0.75319 0.23138,0.61724 0.59539,-0.049 1.19768,0.0451 1.79326,-0.0322 0.13101,-0.39862 -0.0439,-0.82872 -0.0562,-1.23897 -0.12269,-1.13352 -0.21733,-2.28285 -0.0938,-3.4199 0.12955,-0.32135 -0.092,-0.60083 -0.42701,-0.5699 -0.34273,-0.0544 -0.69358,-0.11222 -1.04034,-0.0681 -0.10708,0.0819 -0.0127,0.24146 -0.0406,0.35114 z" />
    <path
       id="path643"
       style="fill:#5fbcd3;fill-opacity:1;stroke:#5fbcd3;stroke-width:0.323417px;stroke-linecap:butt;stroke-linejoin:miter;stroke-opacity:1"
       d="m 116.42619,251.6174 c -0.15424,0.42606 -0.0548,0.88845 -0.14145,1.32682 2.3e-4,0.32617 -0.15538,0.78265 0.14891,1.01181 0.48175,0.20804 1.01928,0.26427 1.54027,0.28078 0.29331,-0.0273 0.64994,0.0397 0.884,-0.17681 0.18465,-0.22758 0.0944,-0.55052 0.051,-0.81334 -0.1127,-0.39518 -0.21268,-0.79389 -0.24485,-1.20459 0.0163,-0.31536 -0.20261,-0.61145 -0.53614,-0.57957 -0.57116,-0.0318 -1.13477,0.11184 -1.7017,0.1549 z" />
    <path
       id="path650"
       style="fill:#5fbcd3;fill-opacity:1;stroke:#5fbcd3;stroke-width:0.323417px;stroke-linecap:butt;stroke-linejoin:miter;stroke-opacity:1"
       d="m 116.35162,255.97944 c -0.0203,0.36935 0.0612,0.73502 0.0708,1.10373 -0.0158,0.38938 0.27692,0.74382 0.68779,0.68925 0.44597,5e-5 0.89863,0.0145 1.32117,0.17412 0.2129,0.12627 0.56951,0.0956 0.43228,-0.22709 -0.10293,-0.38259 -0.1121,-0.77947 -0.0758,-1.17235 -0.0138,-0.25673 0.0914,-0.58086 -0.1593,-0.75145 -0.23367,-0.25933 -0.61142,-0.18584 -0.92203,-0.22388 -0.48183,-0.0127 -0.96832,-0.0247 -1.44739,0.0292 -0.25536,0.0711 0.0292,0.27313 0.0925,0.37841 z" />
    <path
       id="path657"
       style="fill:#5fbcd3;fill-opacity:1;stroke:#5fbcd3;stroke-width:0.323417px;stroke-linecap:butt;stroke-linejoin:miter;stroke-opacity:1"
       d="m 116.62859,259.35403 c -0.15011,1.27034 -0.06,2.55809 -0.23585,3.82563 -0.0676,0.39542 -0.18055,1.02549 0.39666,1.06556 0.66434,0.21249 1.35478,0.33456 2.0125,0.56893 0.25814,-0.34646 0.0963,-0.81244 0.0579,-1.20352 -0.19349,-0.98475 -0.16541,-1.99849 0.0277,-2.98052 0.0729,-0.49132 0.10085,-1.14771 -0.43349,-1.39521 -0.48635,-0.20933 -1.09621,-0.32593 -1.58944,-0.0742 -0.0886,0.0509 -0.1688,0.11661 -0.23618,0.19329 z" />
    <path
       id="path664"
       style="fill:#5fbcd3;fill-opacity:1;stroke:#5fbcd3;stroke-width:0.323417px;stroke-linecap:butt;stroke-linejoin:miter;stroke-opacity:1"
       d="m 121.20919,251.95294 c -0.12576,0.72969 -0.20883,1.47346 -0.19755,2.21244 0.16732,0.24509 0.5242,0.11881 0.77741,0.15942 0.39941,-0.002 0.8046,0.004 1.19077,0.11649 0.33744,0.0557 0.4969,-0.29279 0.4867,-0.57587 0.0334,-0.40241 0.0219,-0.81521 0.16752,-1.19888 0.0584,-0.32378 0.3066,-0.78346 -0.0238,-1.0296 -0.4085,-0.21504 -0.89449,-0.0979 -1.325,-0.0205 -0.36725,0.0821 -0.72413,0.20441 -1.076,0.33653 z" />
    <path
       id="path671"
       style="fill:#5fbcd3;fill-opacity:1;stroke:#5fbcd3;stroke-width:0.323417px;stroke-linecap:butt;stroke-linejoin:miter;stroke-opacity:1"
       d="m 121.36898,256.38208 c -0.13873,0.51402 -0.27189,1.0367 -0.31855,1.567 0.14675,0.27135 0.52841,0.063 0.77721,0.0936 0.32074,-0.0242 0.65175,-0.0424 0.96308,0.0548 0.16799,0.26863 0.27137,-0.26394 0.35512,-0.37234 0.0961,-0.38441 0.0787,-0.78667 0.1215,-1.17932 0.0187,-0.26253 0.0368,-0.5251 0.0565,-0.78756 -0.4874,-0.21826 -1.01632,-0.3293 -1.53877,-0.42723 -0.32032,-0.12437 -0.69666,0.0428 -0.60575,0.43327 -0.0175,0.23114 0.0471,0.43442 0.18977,0.61787 z" />
    <path
       id="path678"
       style="fill:#5fbcd3;fill-opacity:1;stroke:#5fbcd3;stroke-width:0.323417px;stroke-linecap:butt;stroke-linejoin:miter;stroke-opacity:1"
       d="m 121.33702,259.73751 c 0.01,1.2087 0.062,2.42792 -0.16789,3.62186 0.006,0.38269 -0.27196,1.02462 0.23664,1.17406 0.52406,0.13076 1.08219,0.39458 1.62182,0.18295 0.32387,-0.18332 0.89541,-0.0363 0.79753,-0.63577 0.0554,-0.73225 -0.23904,-1.44781 -0.12799,-2.18158 0.0293,-0.74816 0.0868,-1.49579 0.078,-2.24499 -0.24253,-0.35447 -0.75052,-0.23596 -1.11906,-0.29999 -0.46284,-0.005 -1.00975,-0.0302 -1.31906,0.38346 z" />
    <path
       id="path689"
       style="fill:#30292c;fill-opacity:1;stroke:#30292c;stroke-width:0.323417px;stroke-linecap:butt;stroke-linejoin:miter;stroke-opacity:1"
       d="m 113.7737,287.76961 c 0.10928,-1.46275 -0.25708,-2.91162 -0.28244,-4.37196 -0.0793,-1.2196 -0.25961,-2.48768 0.002,-3.685 0.40057,-0.94285 1.34473,-1.46795 2.04331,-2.16796 1.04548,-0.52133 2.36523,-0.6168 3.48536,-0.24387 1.61382,0.61731 1.31829,2.7641 1.41511,4.17718 -0.0254,3.21407 0.0421,6.42763 -0.0293,9.64069 -0.5303,0.67351 -1.91036,0.83264 -2.81794,1.1984 -1.19624,0.1149 -2.59396,0.38895 -3.67216,-0.12163 -0.5279,-1.32202 0.0777,-2.81062 -0.11234,-4.19802 l -0.0322,-0.22784 z" />
    <path
       id="path696"
       style="fill:#5fbcd3;fill-opacity:1;stroke:#5fbcd3;stroke-width:0.323417px;stroke-linecap:butt;stroke-linejoin:miter;stroke-opacity:1"
       d="m 138.61853,251.70302 c -0.0416,0.71494 -0.23182,1.41656 -0.22631,2.13453 0.13366,0.26343 0.51554,0.1387 0.75261,0.16188 0.34346,-0.0692 0.67762,0.0815 1.01451,0.048 0.34762,-0.14969 0.0741,-0.63192 0.14219,-0.92413 -0.0122,-0.57989 -0.0922,-1.15533 -0.1236,-1.73312 -0.004,-0.36313 -0.40615,-0.31729 -0.65654,-0.26244 -0.35524,0.0381 -0.71958,0.0765 -1.05897,0.18531 -0.14168,0.13137 0.11478,0.27216 0.15611,0.38997 z" />
    <path
       id="path703"
       style="fill:#5fbcd3;fill-opacity:1;stroke:#5fbcd3;stroke-width:0.323417px;stroke-linecap:butt;stroke-linejoin:miter;stroke-opacity:1"
       d="m 139.26312,255.7684 c -0.0257,0.53158 -0.18229,1.04602 -0.27215,1.56851 -0.16924,0.29025 0.17095,0.40035 0.40274,0.41594 0.32804,0.0142 0.65764,0.0256 0.97458,0.12266 0.22867,0.0456 0.70302,0.26168 0.62737,-0.16642 0.011,-0.55368 -0.12861,-1.10121 -0.11026,-1.65388 -0.007,-0.26185 0.26509,-0.71167 -0.0383,-0.84865 -0.3089,-0.0267 -0.61844,-0.049 -0.92818,-0.0792 -0.25646,-0.007 -0.7353,-0.17486 -0.66288,0.25403 0.01,0.12937 0.0167,0.25812 0.007,0.38697 z" />
    <path
       id="path710"
       style="fill:#5fbcd3;fill-opacity:1;stroke:#5fbcd3;stroke-width:0.323417px;stroke-linecap:butt;stroke-linejoin:miter;stroke-opacity:1"
       d="m 138.88308,259.3872 c 0.57299,0.0471 1.1525,0.12396 1.72557,0.0361 0.57651,-0.3307 0.16478,0.454 0.1458,0.72534 -0.20335,1.18689 -0.2894,2.39581 -0.28476,3.59964 -0.0753,0.36897 0.22182,0.93935 -0.0207,1.16914 -0.50518,0.063 -0.97891,-0.22473 -1.4869,-0.20002 -0.61585,0.051 -0.43824,-0.66798 -0.41062,-1.06054 0.10622,-0.82139 0.15553,-1.65009 0.10206,-2.47767 -0.006,-0.60239 -8.3e-4,-1.22548 0.22959,-1.79195 z" />
    <path
       id="path746"
       style="fill:#5fbcd3;fill-opacity:1;stroke:#5fbcd3;stroke-width:0.323417px;stroke-linecap:butt;stroke-linejoin:miter;stroke-opacity:1"
       d="m 143.90371,251.60781 c -0.19123,0.84358 0.0212,1.70625 -0.0389,2.55786 0.13652,-0.0141 0.34411,-0.11686 0.52247,-0.1242 0.27187,-0.0318 0.53308,-0.1253 0.8058,-0.14471 0.20013,-0.0572 0.60875,0.13911 0.65187,-0.15316 0.0298,-0.47236 -0.16688,-0.91513 -0.22288,-1.37769 -0.0365,-0.39543 -0.0211,-0.79639 -0.0973,-1.18768 -0.15683,-0.14353 -0.40584,0.0406 -0.58992,0.0818 -0.18316,0.10146 -0.38809,0.0994 -0.58949,0.0764 -0.19018,-0.009 -0.30562,0.16799 -0.44164,0.27135 z" />
    <path
       id="path752"
       style="fill:#5fbcd3;fill-opacity:1;stroke:#5fbcd3;stroke-width:0.323417px;stroke-linecap:butt;stroke-linejoin:miter;stroke-opacity:1"
       d="m 147.69602,251.23392 c -0.14665,0.68616 -0.004,1.38819 -0.0373,2.07955 -0.18128,0.30608 0.0424,0.58947 0.38014,0.57339 0.50152,0.0665 1.00333,-0.0666 1.50621,-0.0231 0.40143,0.0374 0.61012,-0.35111 0.56093,-0.7076 0.0227,-0.73964 -0.24614,-1.4428 -0.35135,-2.16656 -0.0599,-0.4079 -0.55963,-0.31138 -0.81773,-0.16128 -0.36174,0.17811 -0.71075,0.46791 -1.14125,0.40411 1.8e-4,0.0332 -0.0998,-0.0319 -0.0996,0.001 z" />
    <path
       id="path759"
       style="fill:#5fbcd3;fill-opacity:1;stroke:#5fbcd3;stroke-width:0.323417px;stroke-linecap:butt;stroke-linejoin:miter;stroke-opacity:1"
       d="m 143.96763,255.4905 c -0.0974,0.28206 -0.18836,0.57099 -0.14925,0.87324 -0.0122,0.49691 -0.007,0.99944 -0.0587,1.49207 -0.076,0.29106 0.42167,0.14254 0.5885,0.23833 0.49534,0.0684 0.99451,0.15674 1.49359,0.16428 0.26555,-0.16695 0.0963,-0.56568 0.12339,-0.82487 -0.0579,-0.61481 0.0649,-1.24434 -0.0961,-1.84855 -0.21623,-0.29461 -0.62174,-0.31716 -0.95172,-0.38541 -0.35121,-0.0771 -0.71601,0.005 -0.94974,0.29098 z" />
    <path
       id="path766"
       style="fill:#5fbcd3;fill-opacity:1;stroke:#5fbcd3;stroke-width:0.323417px;stroke-linecap:butt;stroke-linejoin:miter;stroke-opacity:1"
       d="m 147.53623,255.60555 c 0.0797,0.70504 -0.14245,1.41222 -0.0328,2.11677 0.15535,0.21688 0.4572,0.11441 0.68223,0.12853 0.42631,-0.0339 0.86131,-0.0771 1.28015,0.0373 0.27416,0.0125 0.91442,0.22081 0.89682,-0.21093 -0.16867,-0.78388 -0.34382,-1.57048 -0.46104,-2.36467 -0.2021,-0.31661 -0.67824,-0.0799 -0.99986,-0.15672 -0.38605,-0.002 -0.77453,0.004 -1.15571,0.071 -0.15155,0.0626 -0.16067,0.24555 -0.20983,0.37869 z" />
    <path
       id="path773"
       style="fill:#5fbcd3;stroke:#5fbcd3;stroke-width:0.323417px;stroke-linecap:butt;stroke-linejoin:miter;stroke-opacity:1"
       d="m 143.82913,260.14015 c -0.34552,0.68371 -0.0747,1.45624 -0.0726,2.17904 0.052,0.60836 0.0611,1.22294 0.005,1.82894 0.18095,0.36859 0.69805,0.19215 1.03198,0.26563 0.3337,0.0161 0.85526,0.0484 0.78327,-0.43657 -0.0556,-1.03916 0.1705,-2.07907 0.0207,-3.11612 -0.0317,-0.43241 -0.0345,-0.87051 0.0439,-1.29841 -0.36426,-0.17408 -0.81106,0.0369 -1.21496,-0.0254 -0.31479,-0.0141 -0.99224,-0.0494 -0.65504,0.45496 l 0.0351,0.0768 0.0233,0.0711 z" />
    <path
       id="path780"
       style="fill:#5fbcd3;fill-opacity:1;stroke:#5fbcd3;stroke-width:0.323417px;stroke-linecap:butt;stroke-linejoin:miter;stroke-opacity:1"
       d="m 147.64275,260.6962 c 0.0423,1.20985 -0.005,2.42019 -0.0257,3.62996 0.61421,0.0967 1.17114,-0.44735 1.78609,-0.22568 0.46903,0.0893 0.3259,-0.73187 0.33708,-1.04934 -0.0671,-0.91632 -0.30269,-1.81872 -0.25602,-2.74279 -0.0627,-0.3473 0.1541,-0.99772 -0.35874,-1.04066 -0.50026,-0.0176 -0.9955,-0.14937 -1.49926,-0.092 -0.22951,0.31058 -0.043,0.72656 -0.0483,1.07755 0.0207,0.14779 0.044,0.29537 0.0648,0.44301 z" />
    <path
       id="path787"
       style="fill:#5fbcd3;fill-opacity:1;stroke:#5fbcd3;stroke-width:0.323417px;stroke-linecap:butt;stroke-linejoin:miter;stroke-opacity:1"
       d="m 154.07689,251.02301 c -0.22071,0.49538 -0.13379,1.05304 -0.11796,1.57702 0.0177,0.34829 0.34647,0.53311 0.66219,0.54955 0.34558,0.0428 0.68269,0.12572 1.00866,0.24763 0.25793,0.12113 0.58776,0.007 0.60703,-0.30641 0.14409,-0.80618 0.0601,-1.6423 -0.131,-2.43359 -0.12396,-0.37012 -0.61567,-0.18721 -0.91372,-0.25294 -0.38937,2.7e-4 -0.78856,-0.014 -1.17067,0.0526 -0.17433,0.1465 0.0386,0.39549 0.0554,0.56618 z" />
    <path
       id="path794"
       style="fill:#5fbcd3;fill-opacity:1;stroke:#5fbcd3;stroke-width:0.323417px;stroke-linecap:butt;stroke-linejoin:miter;stroke-opacity:1"
       d="m 153.97037,255.10702 c -0.052,0.5861 -0.0718,1.17933 -0.23051,1.74948 -0.0487,0.23106 -0.13659,0.68501 0.23429,0.65015 0.38699,-0.0506 0.77581,0.004 1.16527,-0.011 0.31752,-0.0199 0.66654,0.013 0.95889,-0.11148 0.15131,-0.26861 0.0963,-0.60632 0.0791,-0.90423 -0.0311,-0.37246 -0.14277,-0.75034 -0.0857,-1.12268 0.15626,-0.31035 -0.17157,-0.43631 -0.42937,-0.38124 -0.33808,0.0185 -0.68277,0.0774 -1.01528,-0.0189 -0.24016,-0.0483 -0.4792,0.007 -0.67664,0.15032 z" />
    <path
       id="path801"
       style="fill:#5fbcd3;fill-opacity:1;stroke:#5fbcd3;stroke-width:0.323417px;stroke-linecap:butt;stroke-linejoin:miter;stroke-opacity:1"
       d="m 154.14081,259.35403 c -0.0549,1.20205 -0.26144,2.40029 -0.15744,3.60631 0.0678,0.45268 -0.0565,1.21633 0.54161,1.32721 0.45667,0.0614 0.93364,-0.0551 1.37288,0.13324 0.58737,0.28361 0.36025,-0.58502 0.33622,-0.9021 -0.16537,-0.92518 -0.36327,-1.8643 -0.22416,-2.80766 -0.0433,-0.45456 0.47712,-0.94344 0.1935,-1.33696 -0.54196,4.1e-4 -1.09582,-0.0228 -1.63695,-0.0994 -0.14504,6.4e-4 -0.29054,0.0262 -0.42566,0.0793 z" />
    <path
       id="path808"
       style="fill:#5fbcd3;fill-opacity:1;stroke:#5fbcd3;stroke-width:0.323417px;stroke-linecap:butt;stroke-linejoin:miter;stroke-opacity:1"
       d="m 143.70131,271.5294 c -0.0185,0.54699 0.0262,1.10052 -0.0909,1.63925 -0.11185,0.27614 -0.0777,0.68801 0.32364,0.62569 0.57333,0.0757 1.15281,0.0533 1.72939,0.068 0.24022,0.15149 0.44735,0.004 0.37321,-0.27172 -0.0133,-0.49725 -0.22279,-0.98576 -0.10744,-1.48554 0.0419,-0.34471 0.10475,-0.68702 0.12964,-1.03368 -0.25643,-0.14141 -0.53014,0.11136 -0.80421,0.0787 -0.52823,0.0665 -1.08211,0.10684 -1.55327,0.37934 z" />
    <path
       id="path815"
       style="fill:#5fbcd3;fill-opacity:1;stroke:#5fbcd3;stroke-width:0.323417px;stroke-linecap:butt;stroke-linejoin:miter;stroke-opacity:1"
       d="m 148.0369,271.15551 c -0.31409,0.68221 -0.0423,1.46615 -0.31403,2.16059 -0.12449,0.24013 0.0374,0.48948 0.30495,0.48283 0.58529,0.0997 1.18439,-0.0252 1.77043,0.0612 0.26612,0.17659 0.38528,-0.0466 0.27468,-0.28308 0.0225,-0.66345 0.005,-1.33386 -0.0716,-1.99569 -0.11943,-0.25583 -0.45983,-0.18119 -0.68718,-0.18772 -0.38081,0.0215 -0.82276,0.13133 -1.13977,-0.14724 -0.045,-0.0315 -0.0901,-0.0633 -0.13749,-0.091 z" />
    <path
       id="path822"
       style="fill:#5fbcd3;fill-opacity:1;stroke:#5fbcd3;stroke-width:0.323417px;stroke-linecap:butt;stroke-linejoin:miter;stroke-opacity:1"
       d="m 143.48826,276.13111 c 0.0155,0.36589 -0.12334,0.75423 0.0476,1.10144 0.21229,0.17917 0.50158,0.2188 0.74805,0.33508 0.4286,0.15002 0.88938,0.32245 1.34826,0.2367 0.28738,-0.1503 0.24421,-0.52679 0.25583,-0.80135 -0.0243,-0.40748 -0.001,-0.81697 -0.0427,-1.223 5.3e-4,-0.34057 -0.30635,-0.54784 -0.62464,-0.53618 -0.38961,-0.0285 -0.78839,0.004 -1.16351,-0.12826 -0.23356,-0.0765 -0.58198,-0.0449 -0.6159,0.2581 -0.0535,0.25006 -0.0411,0.51665 0.0471,0.75747 z" />
    <path
       id="path829"
       style="fill:#5fbcd3;fill-opacity:1;stroke:#5fbcd3;stroke-width:0.323417px;stroke-linecap:butt;stroke-linejoin:miter;stroke-opacity:1"
       d="m 147.69602,275.86268 c -0.0632,0.59581 -0.0763,1.19523 -0.10109,1.79343 0.22439,0.21818 0.57631,0.10194 0.8571,0.13958 0.33828,-0.0407 0.72526,0.12163 1.03147,-0.0532 0.22432,-0.21267 0.12231,-0.54458 0.15526,-0.81675 0.005,-0.43149 0.0375,-0.90377 -0.18687,-1.29044 -0.2631,-0.34629 -0.7242,-0.47496 -1.1385,-0.51049 -0.25104,0.0273 -0.78795,-0.004 -0.78215,0.33171 0.0603,0.13259 0.11136,0.27036 0.16478,0.40612 z" />
    <path
       id="path836"
       style="fill:#5fbcd3;fill-opacity:1;stroke:#5fbcd3;stroke-width:0.323417px;stroke-linecap:butt;stroke-linejoin:miter;stroke-opacity:1"
       d="m 165.30469,251.15723 c -0.0775,0.7163 -0.0418,1.44308 0.002,2.15821 0.19429,0.23382 0.54013,0.28439 0.81651,0.39249 0.47532,0.11759 0.97209,0.13736 1.45659,0.16046 0.26289,-0.20703 0.13189,-0.6237 0.20341,-0.91782 0.0313,-0.56943 0.072,-1.14664 0.001,-1.71338 -0.10597,-0.26807 -0.37864,-0.5328 -0.69019,-0.45365 -0.60076,0.10414 -1.16763,0.41325 -1.78998,0.37369 z" />
    <path
       id="path843"
       style="fill:#5fbcd3;fill-opacity:1;stroke:#5fbcd3;stroke-width:0.323417px;stroke-linecap:butt;stroke-linejoin:miter;stroke-opacity:1"
       d="m 169.41657,251.01341 c -0.14035,0.75474 -0.15912,1.52825 -0.17334,2.29143 0.0918,0.45999 0.6508,0.27824 0.97663,0.27419 0.36664,-0.11502 0.8859,0.166 1.12598,-0.23265 0.14986,-0.41472 -0.002,-0.87948 -0.0647,-1.30287 -0.1539,-0.29102 -0.0757,-0.64218 -0.22495,-0.92324 -0.37093,-0.2132 -0.82819,-0.10353 -1.23635,-0.0933 -0.13442,0.006 -0.26994,0.005 -0.40326,-0.0137 z" />
    <path
       id="path851"
       style="fill:#5fbcd3;fill-opacity:1;stroke:#5fbcd3;stroke-width:0.323417px;stroke-linecap:butt;stroke-linejoin:miter;stroke-opacity:1"
       d="m 165.3899,256.16158 c -0.0721,0.26281 -0.30928,0.64218 -0.0216,0.8509 0.30195,0.15194 0.65621,0.10256 0.98219,0.15711 0.26855,0.027 0.53076,0.0974 0.7828,0.19032 0.24933,-0.004 0.2534,-0.33023 0.26794,-0.51541 0.0122,-0.43792 0.045,-0.87671 0.0242,-1.31444 -0.009,-0.30346 -0.19241,-0.62101 -0.50915,-0.67741 -0.40131,-0.0823 -0.80935,0.0318 -1.21316,0.0339 -0.21741,0.0257 -0.72774,-0.0284 -0.49969,0.32125 0.14352,0.29146 0.12889,0.63937 0.18649,0.95376 z" />
    <path
       id="path858"
       style="fill:#5fbcd3;fill-opacity:1;stroke:#5fbcd3;stroke-width:0.323417px;stroke-linecap:butt;stroke-linejoin:miter;stroke-opacity:1"
       d="m 169.26743,255.21249 c -0.0988,0.53465 -0.0754,1.08266 -0.15792,1.61964 -0.10377,0.46962 0.42828,0.53641 0.7663,0.49271 0.52305,-0.0328 1.05556,-0.23991 1.57536,-0.0722 0.47286,-0.0654 0.21047,-0.71388 0.32555,-1.03895 -0.0486,-0.40699 0.27143,-1.09806 -0.28488,-1.23493 -0.48061,-0.0724 -0.97281,-0.0512 -1.45832,-0.0618 -0.30784,-0.01 -0.57071,0.0439 -0.76609,0.29557 z" />
    <path
       id="path866"
       style="fill:#5fbcd3;fill-opacity:1;stroke:#5fbcd3;stroke-width:0.323417px;stroke-linecap:butt;stroke-linejoin:miter;stroke-opacity:1"
       d="m 165.65622,259.2294 c -0.53589,0.81471 -0.20155,1.81998 -0.2684,2.72444 -0.011,0.68859 0.10757,1.38828 -0.032,2.06295 0.12979,0.72302 1.13396,0.29128 1.64032,0.27553 0.71192,-0.0572 0.98271,-0.76335 0.90488,-1.38697 0.0418,-1.30307 -0.27256,-2.59979 -0.12431,-3.90267 -0.46259,0.0122 -0.89142,0.26331 -1.36783,0.22103 -0.25063,0.0128 -0.50202,0.011 -0.75266,0.006 z" />
    <path
       id="path878"
       style="fill:#5fbcd3;fill-opacity:1;stroke:#5fbcd3;stroke-width:0.323417px;stroke-linecap:butt;stroke-linejoin:miter;stroke-opacity:1"
       d="m 169.67223,259.55535 c 0.0939,1.18777 -0.28832,2.34226 -0.33946,3.52279 0.0278,0.43143 -0.24154,1.14864 0.2784,1.35484 0.3988,0.0649 0.8001,0.11808 1.18919,0.23483 0.57286,0.18447 0.63723,-0.492 0.60983,-0.89435 0.0318,-1.36341 -0.0319,-2.72862 -0.0544,-4.09081 -0.23956,-0.41524 -0.82481,-0.1228 -1.19316,-0.0971 -0.16482,0.0237 -0.32598,-0.0271 -0.49044,-0.0303 z" />
    <path
       id="path885"
       style="fill:#5fbcd3;fill-opacity:1;stroke:#5fbcd3;stroke-width:0.323417px;stroke-linecap:butt;stroke-linejoin:miter;stroke-opacity:1"
       d="m 176.18095,251.86665 c -0.16212,0.36869 -0.21843,0.76503 -0.18064,1.16435 0.034,0.46507 -0.1224,1.19226 0.42515,1.40141 0.62986,0.12701 1.28085,0.0122 1.91771,0.0917 0.37973,0.15628 0.76341,-0.0775 0.59922,-0.51633 -0.0765,-0.63267 -0.22355,-1.26481 -0.1586,-1.90687 0.13596,-0.43124 -0.22113,-0.59486 -0.58378,-0.47807 -0.56765,0.009 -1.13891,-0.011 -1.70213,0.0747 -0.11331,0.0416 -0.20757,0.11967 -0.31693,0.16919 z" />
    <path
       id="path893"
       style="fill:#5fbcd3;fill-opacity:1;stroke:#5fbcd3;stroke-width:0.323417px;stroke-linecap:butt;stroke-linejoin:miter;stroke-opacity:1"
       d="m 180.92132,251.9817 c -0.13788,0.57443 -0.17231,1.1683 -0.21141,1.75584 0.01,0.23388 -0.10133,0.80479 0.30305,0.67507 0.50238,-0.19424 1.0606,-0.16585 1.57425,-0.0334 0.20532,0.0709 0.60532,0.10867 0.52811,-0.22769 -0.005,-0.74939 -0.0282,-1.5015 -0.1204,-2.24531 -0.12517,-0.26033 -0.46469,-0.18086 -0.69482,-0.14971 -0.33971,0.0556 -0.65856,0.22014 -1.00156,0.24585 -0.31276,-0.18001 -0.52379,0.0823 -0.26345,0.34835 0.0257,0.0446 0.0504,0.0902 0.0677,0.13891" />
    <path
       id="path900"
       style="fill:#5fbcd3;fill-opacity:1;stroke:#5fbcd3;stroke-width:0.323417px;stroke-linecap:butt;stroke-linejoin:miter;stroke-opacity:1"
       d="m 176.27682,256.43002 c -0.26689,1.17339 -0.14775,2.38889 0.0207,3.56713 -0.15072,0.51955 0.46573,0.24395 0.74186,0.25076 0.45842,-0.0674 0.92124,-0.0268 1.37075,0.074 0.43527,0.0846 0.41173,-0.44565 0.39934,-0.73309 -0.0331,-0.48883 -0.11258,-0.97851 -0.0406,-1.46798 0.0318,-0.51611 0.0961,-1.04136 -0.0148,-1.5527 -0.24458,-0.5219 -0.92095,-0.50694 -1.40518,-0.41818 -0.36473,0.0623 -0.71765,0.17799 -1.07207,0.28014 z" />
    <path
       id="path907"
       style="fill:#5fbcd3;fill-opacity:1;stroke:#5fbcd3;stroke-width:0.323417px;stroke-linecap:butt;stroke-linejoin:miter;stroke-opacity:1"
       d="m 180.76155,256.57382 c -0.34109,0.49923 -0.16956,1.13412 -0.21425,1.69821 0.0737,0.44966 -0.1519,1.12872 0.34357,1.37911 0.38002,0.11722 0.19629,0.61205 0.66717,0.45245 0.49993,-0.0766 1.12825,0.18104 1.54129,-0.10793 0.20973,-0.4468 0.10818,-0.97022 0.18321,-1.4499 0.0433,-0.67018 -0.0445,-1.36409 -0.38316,-1.95339 -0.17242,-0.51305 -0.73625,-0.75553 -1.24296,-0.63297 -0.39372,0.01 -0.90832,0.1105 -0.89487,0.61437 z" />
    <path
       id="path915"
       style="fill:#5fbcd3;fill-opacity:1;stroke:#5fbcd3;stroke-width:0.323417px;stroke-linecap:butt;stroke-linejoin:miter;stroke-opacity:1"
       d="m 189.48598,253.10336 c -0.26587,0.53761 -0.11087,1.15109 -0.14963,1.72399 -0.0739,0.33678 0.20515,0.61738 0.54162,0.51241 0.42062,-0.0748 0.85229,-0.24428 1.2794,-0.099 0.30289,-0.007 0.73807,0.37214 0.94881,0.0897 0.0535,-0.31098 0.028,-0.63307 0.0269,-0.94872 -0.01,-0.47939 -0.1039,-0.95534 -0.097,-1.43406 0.13751,-0.47856 -0.41128,-0.3796 -0.71555,-0.37066 -0.48026,0.0208 -0.97006,0.009 -1.43963,0.12446 -0.18247,0.15093 -0.0233,0.48211 -0.39481,0.40188 z" />
    <path
       id="path922"
       style="fill:#5fbcd3;fill-opacity:1;stroke:#5fbcd3;stroke-width:0.323417px;stroke-linecap:butt;stroke-linejoin:miter;stroke-opacity:1"
       d="m 189.33684,256.8902 c -0.33543,1.08153 -0.10206,2.22448 -0.17669,3.33382 0.10683,0.48637 -0.21461,1.50633 0.49647,1.55037 0.48877,-0.14629 0.9756,-0.30103 1.49652,-0.24531 0.61396,-0.0271 0.79302,-0.74181 0.78548,-1.24646 -0.0516,-1.01198 -0.19393,-2.01796 -0.2325,-3.03163 0.0554,-0.47577 -0.11367,-0.8786 -0.64886,-0.62674 -0.55569,0.22894 -1.17,0.0397 -1.72042,0.26595 z" />
    <path
       id="path930"
       style="fill:#5fbcd3;fill-opacity:1;stroke:#5fbcd3;stroke-width:0.323417px;stroke-linecap:butt;stroke-linejoin:miter;stroke-opacity:1"
       d="m 195.89882,252.77741 c -0.0766,0.30956 -0.0861,0.62733 -0.1028,0.94317 -0.049,0.38449 -0.17908,0.7726 -0.0951,1.16193 0.22906,0.23542 0.58781,0.0466 0.87224,0.13045 0.40244,0.0247 0.82803,0.01 1.18715,-0.1951 0.30407,-0.0319 0.59344,-0.18747 0.5533,-0.53818 0.0603,-0.44737 0.021,-0.90077 0.0659,-1.34931 -0.011,-0.36108 -0.46407,-0.27981 -0.71681,-0.32673 -0.46033,-0.0277 -0.92004,-0.0645 -1.37976,-0.10085 -0.16223,0.0348 -0.2534,0.18745 -0.38412,0.27467 z" />
    <path
       id="path937"
       style="fill:#5fbcd3;fill-opacity:1;stroke:#5fbcd3;stroke-width:0.323417px;stroke-linecap:butt;stroke-linejoin:miter;stroke-opacity:1"
       d="m 196.0373,257.21615 c -0.23714,0.362 -0.12798,0.78295 -0.0374,1.16951 0.10329,0.94987 -0.0455,1.90323 -0.0696,2.85235 -0.12264,0.47588 0.12308,0.8661 0.64612,0.83479 0.401,-0.004 0.961,0.36267 1.24145,0.0664 0.20958,-0.45828 0.16525,-0.98755 0.17685,-1.48056 -0.0293,-0.73167 -0.0427,-1.4664 0.0676,-2.19248 0.0952,-0.52031 -0.13795,-1.01412 -0.1335,-1.52385 -0.004,-0.58029 -0.84301,-0.21047 -1.21776,-0.36462 -0.32571,-0.0704 -0.80003,-0.13404 -0.6488,0.36361 0.007,0.0916 0.0127,0.18812 -0.0249,0.27483 z" />
    <path
       id="path944"
       style="fill:#5fbcd3;fill-opacity:1;stroke:#5fbcd3;stroke-width:0.323417px;stroke-linecap:butt;stroke-linejoin:miter;stroke-opacity:1"
       d="m 201.68315,253.62106 c -0.0354,0.49124 -0.0439,0.98458 -0.0528,1.47656 -0.0403,0.28596 0.26835,0.31023 0.47386,0.33388 0.50133,0.0517 1.01051,0.1171 1.51313,0.0504 0.19889,-0.17262 0.14194,-0.48733 0.20433,-0.72539 0.0447,-0.45327 0.0533,-0.92668 -0.0918,-1.36314 -0.10317,-0.27758 -0.41885,-0.26942 -0.66273,-0.29588 -0.30856,-0.0332 -0.61959,-0.0495 -0.92983,-0.0345 -0.21019,0.12614 -0.28788,0.38703 -0.45412,0.55809 z" />
    <path
       id="path951"
       style="fill:#5fbcd3;fill-opacity:1;stroke:#5fbcd3;stroke-width:0.323417px;stroke-linecap:butt;stroke-linejoin:miter;stroke-opacity:1"
       d="m 200.91617,257.9831 c -0.43219,0.96092 -0.11136,2.03422 -0.28733,3.0407 0.0238,0.51677 -0.27897,1.25608 0.27442,1.5736 0.43671,0.16831 1.12427,0.62747 1.48231,0.12028 0.22552,-0.53001 0.20988,-1.13102 0.28366,-1.69731 0.073,-0.76386 -0.0963,-1.51517 -0.19256,-2.26606 -0.10475,-0.54099 0.5485,-1.45032 -0.38105,-1.39089 -0.49897,-0.0986 -1.28366,-0.23849 -1.17805,0.5384 l -0.001,0.0813 z" />
    <path
       id="path959"
       style="fill:#5fbcd3;fill-opacity:1;stroke:#5fbcd3;stroke-width:0.323417px;stroke-linecap:butt;stroke-linejoin:miter;stroke-opacity:1"
       d="m 185.92803,252.60485 c -0.0451,0.8912 0.20368,1.76514 0.22662,2.6519 0.17553,0.33086 0.63377,0.27761 0.94628,0.37444 0.43766,0.0897 1.03309,0.0499 1.14939,-0.48069 0.19487,-0.65856 0.10317,-1.37716 -0.1116,-2.0194 -0.21921,-0.48002 -0.82031,-0.47936 -1.27039,-0.48286 -0.31364,-0.002 -0.62959,0.009 -0.94026,-0.0434 z" />
    <path
       id="path967"
       style="fill:#5fbcd3;fill-opacity:1;stroke:#5fbcd3;stroke-width:0.323417px;stroke-linecap:butt;stroke-linejoin:miter;stroke-opacity:1"
       d="m 185.95999,257.06276 c 0.66417,-0.0682 1.24652,-0.46157 1.87203,-0.60495 0.34742,0.30524 0.0618,0.87091 0.11588,1.28308 -0.0271,1.20995 0.21885,2.42033 0.13043,3.62566 -0.2756,0.49528 -0.91297,0.0718 -1.34859,0.18913 -0.65788,0.24974 -0.72776,-0.41244 -0.63358,-0.88676 0.0341,-0.85495 0.20459,-1.72067 0.0736,-2.57132 -0.0919,-0.33586 -0.36741,-0.67574 -0.20987,-1.03484 z" />
    <path
       id="path975"
       style="fill:#5fbcd3;fill-opacity:1;stroke:#5fbcd3;stroke-width:0.323417px;stroke-linecap:butt;stroke-linejoin:miter;stroke-opacity:1"
       d="m 206.59397,253.68817 c -0.11722,0.34415 -0.1945,0.70485 -0.17632,1.06978 -0.10097,0.30365 0.0671,0.57542 0.39273,0.55761 0.34076,0.0535 0.67367,0.14096 1.00059,0.24937 0.26253,0.0631 0.69248,0.1647 0.82941,-0.15011 0.0726,-0.31155 0.0755,-0.63715 0.0895,-0.9562 0.0122,-0.29907 -0.029,-0.62477 -0.25704,-0.84226 -0.20767,-0.16456 -0.4958,-0.16828 -0.74402,-0.23853 -0.25772,-0.0414 -0.52765,-0.0909 -0.78599,-0.0372 -0.16007,0.0628 -0.23741,0.22879 -0.34884,0.34754 z" />
    <path
       id="path986"
       style="fill:#5fbcd3;fill-opacity:1;stroke:#5fbcd3;stroke-width:0.323417px;stroke-linecap:butt;stroke-linejoin:miter;stroke-opacity:1"
       d="m 206.51941,257.19697 c 0.2045,0.92286 -0.14719,1.84928 -0.0796,2.77743 -0.0858,0.50773 -0.23368,1.01565 -0.12723,1.53264 0.0513,0.3475 -0.38832,0.94964 0.16157,1.04074 0.41184,-0.0368 0.74695,0.24588 1.14238,0.27407 0.40627,-0.24762 0.26053,-0.90986 0.33533,-1.33556 0.0229,-1.11042 -0.10218,-2.30171 0.44777,-3.31643 0.21692,-0.5252 -0.41048,-0.69229 -0.779,-0.80799 -0.34787,-0.14635 -0.72362,-0.26577 -1.1013,-0.1649 z" />
    <path
       id="path993"
       style="fill:#5fbcd3;fill-opacity:1;stroke:#5fbcd3;stroke-width:0.323417px;stroke-linecap:butt;stroke-linejoin:miter;stroke-opacity:1"
       d="m 209.94436,254.15319 c -0.0722,0.47649 -0.28659,0.95296 -0.17662,1.44062 0.056,0.22841 0.26465,0.37579 0.48633,0.41859 0.2478,0.0549 0.49851,0.0966 0.7406,0.17474 0.19073,0.0438 0.48776,0.13411 0.58124,-0.10756 0.14266,-0.35122 0.0852,-0.74135 0.17856,-1.1042 0.0394,-0.24956 0.0966,-0.52516 -0.0194,-0.76227 -0.14146,-0.16964 -0.38764,-0.1423 -0.58661,-0.15909 -0.22215,-0.0142 -0.45804,0.0339 -0.66273,-0.0775 -0.17677,-0.0837 -0.33035,0.073 -0.48048,0.14324 -0.0202,0.011 -0.0406,0.0226 -0.0609,0.0335 z" />
    <path
       id="path999"
       style="fill:#5fbcd3;fill-opacity:1;stroke:#5fbcd3;stroke-width:0.323417px;stroke-linecap:butt;stroke-linejoin:miter;stroke-opacity:1"
       d="m 210.12593,257.88373 c -0.0464,1.58525 -0.0512,3.17194 -0.13018,4.75616 0.20779,0.3287 0.67067,0.12338 0.99428,0.18568 0.32102,-0.004 0.77944,-0.011 0.82809,-0.4209 0.28883,-1.21876 -0.0672,-2.47178 0.11637,-3.7005 -0.005,-0.30348 0.18271,-0.80393 -0.22257,-0.91495 -0.36799,-0.0255 -0.72433,-0.096 -1.06163,-0.25163 -0.25604,-0.10243 -0.52964,0.0528 -0.52438,0.34614 z" />
    <path
       id="path1006"
       style="fill:#5fbcd3;fill-opacity:1;stroke:#5fbcd3;stroke-width:0.323417px;stroke-linecap:butt;stroke-linejoin:miter;stroke-opacity:1"
       d="m 224.46999,261.39252 c -0.15509,0.83396 0.0123,1.68001 0.009,2.51799 0.2168,0.35411 0.76351,0.01 1.11125,0.11795 0.43526,0.0698 0.87157,0.41352 1.32002,0.20832 0.36316,-0.27993 0.33176,-0.79338 0.34363,-1.20597 -0.0136,-0.56156 -0.10354,-1.13443 -0.3463,-1.64414 -0.21551,-0.24025 -0.57796,-0.11906 -0.85945,-0.15365 -0.40937,-0.0322 -0.742,0.28278 -1.1496,0.25065 -0.14891,10e-4 -0.28581,-0.0581 -0.42793,-0.0911 z" />
    <path
       id="path1013"
       style="fill:#5fbcd3;fill-opacity:1;stroke:#5fbcd3;stroke-width:0.323417px;stroke-linecap:butt;stroke-linejoin:miter;stroke-opacity:1"
       d="m 224.38477,257.11677 c -0.0175,0.63357 0.009,1.26761 0.0122,1.90123 -0.0741,0.30993 0.21209,0.36743 0.44896,0.31082 0.61741,-0.0186 1.23332,-0.0867 1.84389,-0.17957 0.1658,-0.18265 0.0347,-0.45604 0.0865,-0.67675 0.007,-0.44803 -0.006,-0.89612 -0.0247,-1.34373 -0.18596,-0.1929 -0.48893,-0.0478 -0.72396,-0.0922 -0.54828,0.01 -1.09608,0.0394 -1.64286,0.0801 z" />
    <path
       id="path1020"
       style="fill:#5fbcd3;fill-opacity:1;stroke:#5fbcd3;stroke-width:0.323417px;stroke-linecap:butt;stroke-linejoin:miter;stroke-opacity:1"
       d="m 224.24629,253.64631 c -0.0972,0.45704 -0.196,0.91549 -0.23598,1.38184 0.11576,0.29973 0.51489,0.23138 0.76812,0.32197 0.53427,0.0743 1.08877,0.17667 1.62305,0.057 0.34544,-0.1865 0.23884,-0.69073 0.3624,-1.01925 0.0648,-0.40932 0.15188,-0.82433 0.15202,-1.23747 -0.14779,-0.25492 -0.51043,-0.0948 -0.7479,-0.0977 -0.44413,0.0713 -0.87503,0.21472 -1.32416,0.25653 -0.24779,-0.15096 -0.53171,0.0127 -0.57415,0.28838 l -0.0235,0.0488 z" />
    <path
       id="path1027"
       style="fill:#5fbcd3;fill-opacity:1;stroke:#5fbcd3;stroke-width:0.323417px;stroke-linecap:butt;stroke-linejoin:miter;stroke-opacity:1"
       d="m 230.27449,260.9036 c -0.23693,0.84756 -0.21901,1.73933 -0.3429,2.60389 0.16271,0.38711 0.69877,0.28286 1.04061,0.38801 0.46906,0.0665 0.94841,0.10439 1.41915,0.0318 0.40029,-0.22821 0.36773,-0.75886 0.40223,-1.15931 0.011,-0.53975 0.0577,-1.07924 0.0855,-1.61671 -0.0232,-0.49394 -0.62156,-0.32143 -0.94466,-0.31125 -0.54824,0.066 -1.1124,0.2184 -1.65987,0.0636 z" />
    <path
       id="path1035"
       style="fill:#5fbcd3;fill-opacity:1;stroke:#5fbcd3;stroke-width:0.323417px;stroke-linecap:butt;stroke-linejoin:miter;stroke-opacity:1"
       d="m 230.08388,257.09759 c 0.0285,0.55445 0.0809,1.12087 -0.006,1.66865 0.27928,0.20814 0.70512,0.0211 1.03943,0.10842 0.34519,-0.0397 0.70996,0.16468 1.0349,0.0345 0.19962,-0.31741 0.0856,-0.73302 0.1942,-1.08372 0.14437,-0.28299 0.0667,-0.69016 -0.29612,-0.73605 -0.52309,-0.22133 -1.09481,-0.31306 -1.65861,-0.33854 -0.17613,0.0222 -0.25013,0.20363 -0.30812,0.34683 z" />
    <path
       id="path1043"
       style="fill:#5fbcd3;fill-opacity:1;stroke:#5fbcd3;stroke-width:0.323417px;stroke-linecap:butt;stroke-linejoin:miter;stroke-opacity:1"
       d="m 230.80826,253.12861 c -0.36731,0.34501 -0.38829,0.87086 -0.40733,1.33893 -0.0298,0.38655 -0.13509,0.78708 -0.0593,1.16739 0.25238,0.28605 0.69617,0.0953 1.02654,0.17464 0.44278,-0.0942 1.04801,0.41881 1.35742,-0.0276 0.22466,-0.6797 0.3195,-1.48363 -0.035,-2.13842 -0.29289,-0.41317 -0.8581,-0.29863 -1.2925,-0.37551 -0.2008,-0.0244 -0.40172,-0.0634 -0.58985,-0.1394 z" />
    <path
       id="path1051"
       style="fill:#9e5035;fill-opacity:1;stroke:#9e5035;stroke-width:0.323417px;stroke-linecap:butt;stroke-linejoin:miter;stroke-opacity:1"
       d="m 212.77025,245.28481 c 3.01702,-1.1366 5.74597,0.6008 5.01626,3.94969 0.0814,4.72482 -0.46244,9.44171 -0.16524,14.16738 -0.40662,4.46184 0.56472,8.8551 0.56142,13.29234 -0.28333,3.22498 -0.65301,6.39662 -0.1316,9.61356 -0.56952,2.51382 0.52727,7.94002 -3.6715,6.97313 -4.32112,-1.05229 -2.52932,-6.78957 -2.60669,-10.04877 0.59848,-5.31531 -0.4408,-10.75783 0.53615,-16.01047 1.36768,-3.02417 0.1127,-6.19098 0.15508,-9.31263 0.17427,-4.21944 -0.71448,-8.47247 0.30612,-12.62423 z" />
    <path
       id="path124"
       style="fill:#9c979b;fill-opacity:1;stroke:#9c979b;stroke-width:0.323417px;stroke-linecap:butt;stroke-linejoin:miter;stroke-opacity:1"
       d="m 212.44694,234.0574 c -0.64536,3.51183 -0.2934,7.21735 -1.66262,10.58188 -0.1599,1.19677 1.37798,1.19448 2.18804,1.40977 1.40441,0.29501 2.8587,0.35572 4.24515,0.71462 0.78762,0.711 2.2313,0.60275 1.7568,-0.76322 -0.36567,-1.61256 -0.96668,-3.19552 -0.95988,-4.86711 -0.42162,-1.90344 -1.01806,-3.7811 -1.08982,-5.74518 0.24347,-1.70247 -1.55696,-1.99791 -2.83931,-1.75568 -0.63428,-0.0947 -1.12335,0.0568 -1.63836,0.42492 z" />
    <path
       id="path131"
       style="fill:#8ba3c7;fill-opacity:1;stroke:#8ba3c7;stroke-width:0.323417px;stroke-linecap:butt;stroke-linejoin:miter;stroke-opacity:1"
       d="m 212.57478,234.80517 c 0.62931,-0.62247 1.58524,-0.51316 2.36647,-0.31476 0.64167,-0.15969 1.42252,0.40565 1.92052,0.11576 0.0823,-0.86099 -0.30165,-1.69322 -0.5151,-2.51428 -0.34992,-1.06083 -0.66149,-2.14189 -0.76627,-3.2555 -0.43673,-0.84008 0.006,-1.63527 0.0875,-2.47396 0.0916,-0.4546 -0.11539,-1.7778 -0.62465,-0.85825 -0.51227,1.15539 -1.36515,2.34304 -1.07423,3.67325 0.54585,0.59968 0.0273,1.3384 -0.45952,1.76144 -0.46386,0.6931 -0.98531,1.63639 -0.6153,2.46552 0.60722,0.52641 -0.0439,0.91858 -0.31943,1.40083 z" />
    <path
       id="path249"
       style="fill:#a05a2c;fill-opacity:1;stroke:#a05a2c;stroke-width:0.323417px;stroke-linecap:butt;stroke-linejoin:miter;stroke-opacity:1"
       d="m 235.6056,250.59588 c 1.66559,-0.63947 2.88018,2.53477 0.61775,2.15504 -1.6865,-0.42761 -3.30083,-1.14054 -5.04232,-1.39711 -2.11406,-0.5609 -4.16817,-1.52644 -6.42142,-1.08628 -1.65262,0.33131 -3.3303,0.58113 -5.00037,0.17302 -1.67262,-0.3309 -3.41529,-0.4231 -5.05393,0.12388 -1.10556,0.51894 -2.37706,-0.54329 -0.86552,-1.22117 2.15094,-0.88498 4.44085,0.29766 6.65551,0.21604 2.49882,-0.0529 5.02363,-0.18009 7.47588,0.42913 2.50443,0.2523 5.03882,0.23596 7.52637,0.61354 l 0.10036,-0.006 0.007,-4.6e-4 z" />
    <path
       id="path53"
       style="fill:#9e5035;fill-opacity:1;stroke:#9e5035;stroke-width:0.323417px;stroke-linecap:butt;stroke-linejoin:miter;stroke-opacity:1"
       d="m 193.16583,259.42435 c 2.0293,-0.6253 4.79191,0.0461 4.01507,2.73631 -0.30391,5.39489 0.032,10.80359 -0.15724,16.20499 -0.087,3.57148 -0.001,7.15192 -0.36584,10.7049 0.31434,1.269 0.50655,3.80069 -1.46104,2.23804 -2.29258,-0.66337 -1.54063,-2.81061 -1.31101,-4.65228 0.77632,-3.96344 0.25593,-7.9933 -0.30844,-11.94419 0.0122,-3.564 1.26182,-7.32936 -0.377,-10.72487 -0.47155,-1.47929 -0.24494,-3.05962 -0.0345,-4.5629 z" />
    <path
       id="path47"
       style="fill:#9e5035;fill-opacity:1;stroke:#9e5035;stroke-width:0.323417px;stroke-linecap:butt;stroke-linejoin:miter;stroke-opacity:1"
       d="m 204.58537,261.16918 c 0.98157,-1.16384 2.93699,-0.67089 2.19008,1.04958 -0.34829,2.48471 0.33777,4.94307 0.28096,7.43181 -0.005,2.83536 0.10903,5.66486 0.24162,8.49571 0.0144,2.53135 -0.61734,5.09588 0.12253,7.58832 0.12138,1.59762 0.33573,3.52692 -0.0389,4.95028 -1.1032,-0.632 -3.01303,0.8327 -2.88409,-1.36863 -0.11466,-2.09782 -0.009,-4.2089 0.38392,-6.27118 0.18939,-3.13849 -0.1878,-6.27895 -0.0912,-9.4212 0.0172,-2.58268 -0.14452,-5.17219 -0.61292,-7.71108 -0.0699,-1.59128 0.1516,-3.17792 0.40796,-4.74361 z" />
    <path
       id="path242"
       style="fill:#d26641;fill-opacity:1;stroke:#d26641;stroke-width:0.323417px;stroke-linecap:butt;stroke-linejoin:miter;stroke-opacity:1"
       d="m 101.36214,257.32588 c 1.31181,-1.52067 4.74082,-1.34172 4.88219,1.04113 0.2328,3.30653 0.25788,6.63544 0.59764,9.94155 0.23903,4.33836 -0.80495,8.66768 -0.13708,13.00469 -0.44238,3.03783 1.32338,7.37168 -0.98074,9.58055 -1.82012,-0.0128 -4.55238,1.07545 -5.71759,-0.68866 -0.806674,-3.52949 -0.120891,-7.19926 -0.02139,-10.77844 0.36968,-4.51175 0.32675,-9.03423 -0.02017,-13.54385 -0.0073,-2.43274 -0.169151,-4.99242 0.61448,-7.31373 0.24287,-0.42595 0.54669,-0.81305 0.7826,-1.24324 z" />
    <path
       id="path236"
       style="fill:#d26641;fill-opacity:1;stroke:#d26641;stroke-width:0.323417px;stroke-linecap:butt;stroke-linejoin:miter;stroke-opacity:1"
       d="m 126.92826,256.71232 c 1.80293,-1.26134 5.18288,-2.18217 6.7661,-0.33878 0.88528,2.68594 0.41746,5.58752 0.77472,8.36304 0.004,2.8921 0.26804,5.77061 0.51553,8.64557 0.0597,5.02172 -0.98509,10.06361 -0.0865,15.06364 0.18225,1.56898 0.96314,3.99469 -1.45549,3.96214 -1.90185,-0.0241 -4.51327,0.66266 -5.93858,-0.30485 0.0862,-1.94956 0.65249,-3.85538 0.48504,-5.82548 -0.055,-3.66934 -0.21221,-7.33778 -0.19108,-11.00673 -0.2219,-3.56086 -0.72233,-7.11535 -0.52947,-10.68945 -0.28635,-1.95037 -0.71485,-3.83844 -0.93737,-5.7986 -0.22232,-0.8112 -0.18601,-1.58938 0.59717,-2.0705 z" />
  </g>
</svg>
