<?xml version="1.0" encoding="UTF-8" standalone="no"?>
<svg
   xmlns:dc="http://purl.org/dc/elements/1.1/"
   xmlns:cc="http://creativecommons.org/ns#"
   xmlns:rdf="http://www.w3.org/1999/02/22-rdf-syntax-ns#"
   xmlns:svg="http://www.w3.org/2000/svg"
   xmlns="http://www.w3.org/2000/svg"
   xmlns:sodipodi="http://sodipodi.sourceforge.net/DTD/sodipodi-0.dtd"
   xmlns:inkscape="http://www.inkscape.org/namespaces/inkscape"
   sodipodi:docname="parchment.svg"
   inkscape:version="1.0 (4035a4fb49, 2020-05-01)"
   id="svg8"
   version="1.1"
   viewBox="0 0 317.5 158.75"
   height="600"
   width="1200">
  <defs
     id="defs2">
    <inkscape:path-effect
       lpeversion="1"
       is_visible="true"
       id="path-effect298"
       effect="spiro" />
    <inkscape:path-effect
       simplify_just_coalesce="false"
       simplify_individual_paths="false"
       helper_size="0"
       smooth_angles="360"
       threshold="0.000408163"
       steps="1"
       lpeversion="1"
       is_visible="true"
       id="path-effect296"
       effect="simplify" />
    <inkscape:path-effect
       lpeversion="1"
       is_visible="true"
       id="path-effect284"
       effect="spiro" />
    <inkscape:path-effect
       simplify_just_coalesce="false"
       simplify_individual_paths="false"
       helper_size="0"
       smooth_angles="360"
       threshold="0.000408163"
       steps="1"
       lpeversion="1"
       is_visible="true"
       id="path-effect282"
       effect="simplify" />
    <inkscape:path-effect
       lpeversion="1"
       is_visible="true"
       id="path-effect269"
       effect="spiro" />
    <inkscape:path-effect
       simplify_just_coalesce="false"
       simplify_individual_paths="false"
       helper_size="0"
       smooth_angles="360"
       threshold="0.000408163"
       steps="1"
       lpeversion="1"
       is_visible="true"
       id="path-effect267"
       effect="simplify" />
    <inkscape:path-effect
       lpeversion="1"
       is_visible="true"
       id="path-effect246"
       effect="spiro" />
    <inkscape:path-effect
       simplify_just_coalesce="false"
       simplify_individual_paths="false"
       helper_size="0"
       smooth_angles="360"
       threshold="0.000408163"
       steps="1"
       lpeversion="1"
       is_visible="true"
       id="path-effect244"
       effect="simplify" />
    <inkscape:path-effect
       lpeversion="1"
       is_visible="true"
       id="path-effect97"
       effect="spiro" />
    <inkscape:path-effect
       simplify_just_coalesce="false"
       simplify_individual_paths="false"
       helper_size="0"
       smooth_angles="360"
       threshold="0.000408163"
       steps="1"
       lpeversion="1"
       is_visible="true"
       id="path-effect95"
       effect="simplify" />
    <inkscape:path-effect
       lpeversion="1"
       is_visible="true"
       id="path-effect65"
       effect="spiro" />
    <inkscape:path-effect
       simplify_just_coalesce="false"
       simplify_individual_paths="false"
       helper_size="0"
       smooth_angles="360"
       threshold="0.000408163"
       steps="1"
       lpeversion="1"
       is_visible="true"
       id="path-effect63"
       effect="simplify" />
    <inkscape:path-effect
       lpeversion="1"
       is_visible="true"
       id="path-effect44"
       effect="spiro" />
    <inkscape:path-effect
       simplify_just_coalesce="false"
       simplify_individual_paths="false"
       helper_size="0"
       smooth_angles="360"
       threshold="0.000408163"
       steps="1"
       lpeversion="1"
       is_visible="true"
       id="path-effect42"
       effect="simplify" />
  </defs>
  <sodipodi:namedview
     inkscape:snap-global="false"
     inkscape:document-rotation="0"
     inkscape:window-maximized="1"
     inkscape:window-y="19"
     inkscape:window-x="0"
     inkscape:window-height="1061"
     inkscape:window-width="1920"
     units="px"
     showgrid="false"
     inkscape:current-layer="layer1"
     inkscape:document-units="mm"
     inkscape:cy="304.49418"
     inkscape:cx="605.24332"
     inkscape:zoom="1.4"
     inkscape:pageshadow="2"
     inkscape:pageopacity="0.0"
     borderopacity="1.0"
     bordercolor="#666666"
     pagecolor="#ffffff"
     id="base" />
  <metadata
     id="metadata5">
    <rdf:RDF>
      <cc:Work
         rdf:about="">
        <dc:format>image/svg+xml</dc:format>
        <dc:type
           rdf:resource="http://purl.org/dc/dcmitype/StillImage" />
        <dc:title />
      </cc:Work>
    </rdf:RDF>
  </metadata>
  <g
     transform="translate(0,-138.25001)"
     id="layer1"
     inkscape:groupmode="layer"
     inkscape:label="Layer 1">
    <path
       sodipodi:nodetypes="ccccccccccccccccccccccccccsc"
       d="m 96.155378,169.65912 c 9.697442,-6.21268 21.026162,0.79114 31.483332,0.8533 6.31035,3.43743 16.97717,-0.40192 21.27484,4.3015 -2.15793,2.92036 -0.85703,10.8825 0.87161,3.45294 1.12457,-7.80834 15.92902,-0.35797 23.55525,1.4573 10.16238,1.27006 19.74474,4.62636 29.55637,7.36739 8.29337,2.19509 16.82042,4.82329 24.0255,9.53789 3.17299,4.0407 11.49213,6.3332 13.33256,9.63751 -3.42956,0.56287 -16.94734,4.68119 -7.13935,4.01308 9.75212,-3.883 16.95112,6.4671 23.43702,11.99482 -1.89494,6.55715 -15.1241,5.29892 -19.99703,11.38179 -9.26144,4.52954 -16.3571,12.61439 -21.95689,21.06028 -5.73142,9.30065 -10.26728,19.29858 -12.92052,29.92427 -1.26806,3.65867 -2.72875,12.87817 -5.90143,4.70398 -7.22721,-5.24171 -14.28688,-10.695 -22.05575,-15.25305 -11.1422,-7.08526 -9.93317,-7.57464 -8.83958,-15.56606 -2.03796,-2.52316 -2.3885,12.10677 -6.84807,5.21499 -9.05816,-4.79431 -19.59981,-4.51798 -28.84957,-8.63043 -10.19109,-3.12705 -20.57847,-5.4805 -31.09713,-7.1321 -8.440836,1.53287 -7.462078,-9.01372 -9.116537,-12.10757 0.03119,5.02229 1.084029,13.35683 -6.858977,9.31332 -13.74654,-3.61296 -28.821026,-2.03592 -41.785485,-8.1328 0.329841,-3.79622 8.687798,-13.87227 0.912012,-6.34443 -3.36584,9.15983 -14.144617,1.62609 -8.852588,-5.3283 6.743591,-8.44692 15.313404,-15.26843 21.684123,-24.08168 7.835516,-9.51383 14.28804,-20.65675 25.177783,-27.09036 4.550236,-3.32622 11.311259,-9.03746 16.908507,-4.5476 z"
       style="fill:#decd87;stroke:#decd87;stroke-width:0.264583px;stroke-linecap:butt;stroke-linejoin:miter;stroke-opacity:1"
       id="path61" />
    <path
       id="path35"
       style="fill:#b3b3b3;stroke:#b3b3b3;stroke-width:0.264583px;stroke-linecap:butt;stroke-linejoin:miter;stroke-opacity:1"
       d="m 236.53556,147.12974 c -2.91366,5.81905 -8.75937,9.8558 -10.0903,16.54318 -1.17531,6.63077 0.75072,13.46059 -0.95044,20.08555 -3.17991,7.4054 11.08554,11.1922 9.52206,14.17091 -3.74606,-2.11591 -10.09789,-2.37213 -6.1491,3.59715 2.70972,7.53478 0.22407,16.61682 5.99754,23.03852 3.63995,4.96559 9.67987,6.92548 14.79563,9.89734 -4.46451,-1.97215 -10.95521,-2.06804 -5.95719,3.38683 2.15016,5.72979 -2.7658,15.45319 5.52856,16.90355 5.91794,0.65545 10.3619,5.54464 15.95042,6.98389 6.13018,5.58741 1.53863,-7.0503 3.73552,-10.04375 0.44835,-7.33399 10.92059,-13.88287 2.61402,-20.24418 -2.82131,-3.10422 -4.44765,-15.18072 -5.43764,-5.10398 -3.71454,6.51523 -0.91198,-7.14697 -1.91383,-10.21743 0.15864,-9.08321 -10.15239,-14.68085 -9.53695,-23.94369 1.22409,-5.56196 0.9766,-11.19779 -1.55554,-16.40723 0.032,-8.76723 -9.4247,-1.02272 -10.56721,-0.62804 -0.12369,-5.53885 4.86607,-10.22886 3.81666,-15.47918 -3.83104,-4.68212 -6.42191,-10.47506 -3.71962,-16.43111 -1.66875,-4.70864 -4.50236,2.95849 -6.08259,3.89167 z" />
    <path
       d="m 237.54646,185.57515 c -1.11476,10.44317 4.41939,20.11788 6.54536,30.07575 4.64252,10.3392 10.95346,19.89678 14.75158,30.60856 5.73666,11.11682 13.17726,21.21179 19.90396,31.72581 2.3829,-6.02972 -6.98111,-12.79035 -9.16731,-19.14836 -13.06947,-22.0219 -23.9008,-45.52518 -31.39715,-70.01246 l -0.33726,-1.62091 z"
       style="fill:#4d4d4d;stroke:#4d4d4d;stroke-width:0.264583px;stroke-linecap:butt;stroke-linejoin:miter;stroke-opacity:1"
       id="path40" />
    <path
       sodipodi:nodetypes="cccccccccccccccccccccc"
       d="m 95.552273,143.92022 c -5.354324,-1.30909 -8.742125,4.02501 -11.0862,7.96336 -4.179312,6.07231 -8.297659,12.28507 -13.65481,17.39548 -4.459553,5.1059 -8.463898,10.59437 -11.679652,16.56835 -8.181237,12.97974 -19.427374,23.68583 -27.464767,36.76575 -2.806875,2.48284 -3.347018,10.42 0.873769,10.88164 -3.592997,-4.8777 1.093921,-10.44926 4.681388,-13.72284 3.353308,-4.2892 8.91754,-4.08203 13.41415,-4.67972 2.934454,-2.75739 0,0 6.382355,-10.2996 -1.592441,5.14667 -0.30252,9.66988 -3.631414,11.20436 1.681481,2.00376 7.02957,-0.56574 9.327314,2.64329 5.267623,2.92066 9.613802,7.93865 10.318749,14.08369 2.654037,-2.60631 3.234871,-9.30712 5.22741,-13.3991 2.276817,-6.09517 5.956768,-11.52306 8.643174,-17.43641 2.973851,-5.21106 7.646952,-9.22448 10.356369,-14.63408 3.574652,-6.73219 9.364502,-11.93698 14.602732,-17.34135 5.43734,-4.01141 10.63479,-8.75509 17.14704,-10.89773 1.28807,-5.23801 -5.65447,-9.00458 -9.65191,-11.24158 -4.10037,-2.80925 -12.22839,-6.66341 -13.33817,0.95842 -0.43467,1.61725 0,0 -1.9879,3.95783 -1.87755,-3.21125 0.99559,-11.01669 -5.120341,-10.2107 -1.12579,0.4949 -2.644597,0.18138 -3.359286,1.44094 z"
       style="fill:#c8ab37;stroke:#c8ab37;stroke-width:0.264583px;stroke-linecap:butt;stroke-linejoin:miter;stroke-opacity:1"
       id="path93" />
    <path
       d="m 106.07384,220.77768 c -0.58494,-0.6904 -1.29776,-1.2433 -2.05514,-1.72981 -0.59491,-0.35792 -1.25126,-0.59283 -1.87098,-0.90113 -0.0891,-0.0341 -0.49023,-0.27013 -0.35725,-0.14802 0.49712,-0.20866 1.01227,-0.36431 1.53705,-0.48501 0.11882,-0.0198 0.23705,-0.0436 0.35647,-0.0594 0.12668,-0.0168 0.25391,-0.0302 0.38143,-0.0383 0.13196,-0.008 0.52874,-0.0103 0.39652,-0.0113 -1.72797,-0.0127 -0.27376,0.0438 0.0768,0.0799 0.4324,0.055 0.86339,0.14965 1.26623,0.31907 0.40718,-0.0876 0.83318,-0.11223 1.22155,-0.26269 0.0854,-0.0331 -0.16617,-0.0771 -0.25014,-0.11366 -0.4411,-0.19212 -0.8799,-0.38416 -1.31285,-0.59448 -0.64411,-0.31042 -1.17037,-0.76345 -1.58414,-1.34132 -0.26164,-0.44156 -0.55795,-0.7513 -0.30884,-1.26317 0.4387,-0.43091 1.09891,-0.53875 1.68868,-0.58894 -0.27158,0.003 -0.5454,-0.0256 -0.81476,0.009 -0.12651,0.0164 0.25428,0.0243 0.37981,0.047 0.13655,0.0247 0.2713,0.0591 0.40529,0.0952 0.3879,0.10455 0.76113,0.24504 1.13255,0.39632 0.23509,0.0706 0.46303,0.2235 0.71127,0.25366 0.80465,0.0978 0.31524,-0.0633 0.79974,0.12381 0,0 0.0941,-0.009 0.0941,-0.009 v 0 c -0.12738,-0.26462 -0.0196,0.0541 0.23945,-0.24676 0.0291,-0.0338 -0.069,-0.0576 -0.10827,-0.0789 -0.13133,-0.0713 -0.36478,-0.14837 -0.49327,-0.19497 -1.26924,-0.42394 -2.0816,-0.73606 -3.51211,-0.56771 -0.62004,0.0798 -1.32454,0.19801 -1.74182,0.70719 -0.24655,0.53622 -0.0644,0.91062 0.21497,1.39685 0.40137,0.59427 0.90435,1.0884 1.55389,1.41071 0.32474,0.16766 0.65211,0.32637 0.98416,0.47906 0.0138,0.006 0.50921,0.23272 0.52037,0.23296 0.53202,0.0113 1.06334,-0.0447 1.59502,-0.067 -0.49305,-0.14171 -0.99635,-0.24886 -1.50507,-0.31582 -1.17647,-0.13328 -2.38429,-0.18462 -3.55049,0.0455 -0.54756,0.13111 -1.11433,0.26822 -1.60978,0.54193 -0.13267,0.30898 0.16504,0.26778 0.38882,0.38842 0.68734,0.26453 1.37422,0.53486 2.03145,0.8688 0.81431,0.45475 1.59827,0.97153 2.21152,1.6854 0,0 0.88785,-0.0637 0.88785,-0.0637 z"
       id="path112"
       style="opacity:1;fill:#502d16;stroke:#502d16;stroke-width:0.529167;stroke-linecap:round" />
    <path
       d="m 106.60152,210.56744 c 0.38757,-0.47282 0.61474,-1.04005 0.64325,-1.64934 -0.0315,-0.36031 -0.13061,-0.66189 -0.43926,-0.86573 -0.93108,-0.3508 -1.48792,-0.0761 -1.72321,0.68434 -0.062,0.62945 0.20574,1.19876 0.5107,1.72991 0.36388,0.54211 0.79044,1.06598 1.40176,1.33833 0.12795,0.057 0.26474,0.0916 0.39711,0.1374 0.11216,0.0235 0.22191,0.0682 0.33647,0.0704 0.91544,0.0178 1.38789,0.19631 2.04127,-0.21736 0.12427,-0.0787 0.5151,-0.36483 0.45913,-0.59083 -0.0433,-0.17489 -0.22589,-0.28076 -0.33884,-0.42114 0.0295,-0.13217 0.0591,-0.26435 0.0886,-0.39653 0,0 -0.0945,-0.002 -0.0945,-0.002 v 0 c -0.0295,0.13141 -0.059,0.26283 -0.0885,0.39425 -0.24005,0.11523 -0.4903,0.21129 -0.72016,0.34572 -0.13586,0.0795 -0.24723,0.19487 -0.37085,0.2923 -0.1032,0.074 -0.19973,0.15829 -0.30961,0.22191 -0.1036,0.06 -0.44129,0.1094 -0.32765,0.14706 0.28794,0.0954 0.60566,0.0366 0.90887,0.0456 0.15115,0.004 -0.30169,-0.0214 -0.45254,-0.0321 -0.31778,-0.0976 -0.46545,-0.12081 -0.75182,-0.29703 -0.43131,-0.26543 -0.74651,-0.70292 -1.04941,-1.09571 -0.29282,-0.49231 -0.56639,-1.04806 -0.5044,-1.63665 0.0568,-0.1914 0.11639,-0.34911 0.2731,-0.48345 0.035,-0.03 0.16266,-0.0689 0.11684,-0.074 -0.57664,-0.0645 -1.37904,0.0113 -0.84629,-0.0355 0.35569,0.081 0.65613,0.38522 0.73476,0.7411 0.0327,0.60447 -0.1469,1.15012 -0.56196,1.60235 0,0 0.66713,0.0468 0.66713,0.0468 z"
       id="path114"
       style="opacity:1;fill:#502d16;stroke:#502d16;stroke-width:0.529167;stroke-linecap:round" />
    <path
       d="m 108.21202,203.02869 c -0.22872,0.91291 -0.25048,1.84937 -0.12394,2.77726 0.1504,0.7184 0.62962,2.24591 1.83244,0.87101 0.29339,-0.5025 0.4533,-1.06195 0.85567,-1.49372 0.16756,-0.11698 0.20488,-0.16524 0.41006,-0.21644 0.0856,-0.0214 0.35064,-0.0333 0.26241,-0.0352 -0.34705,-0.008 -0.69555,-0.0134 -1.04122,0.0183 -0.0834,0.008 0.16846,0.0211 0.2451,0.0548 0.089,0.0391 0.16262,0.10674 0.24393,0.16011 0.64634,0.7036 0.59027,1.6923 0.60814,2.58539 -0.0138,0.79082 0.11574,0.81414 0.68997,1.25724 0,0 0.0945,0.001 0.0945,0.001 v 0 c 0.66503,-0.39678 0.91708,-0.40257 0.98657,-1.26211 -0.004,-0.17813 0.007,-0.35704 -0.0106,-0.53437 -0.079,-0.81894 -0.43628,-1.58631 -1.00306,-2.17833 -0.0907,-0.0683 -0.17195,-0.1515 -0.27214,-0.20497 -0.0836,-0.0446 -0.17662,-0.0813 -0.27133,-0.0851 -0.83578,-0.0336 -1.56728,-0.20158 -2.18209,0.35152 -0.35348,0.44955 -0.48842,1.01716 -0.82483,1.47865 -0.41994,0.25706 -0.30942,0.15512 0.93667,0.13086 0.0552,-0.001 -0.11084,-0.0296 -0.15144,-0.067 -0.22306,-0.2055 -0.22941,-0.57898 -0.29028,-0.84659 -0.1159,-0.91085 -0.22955,-1.84345 0.12142,-2.72111 0,0 -1.11595,-0.0415 -1.11595,-0.0415 z"
       id="path118"
       style="opacity:1;fill:#502d16;stroke:#502d16;stroke-width:0.529167;stroke-linecap:round" />
    <path
       d="m 110.42236,198.46243 c 0.15546,0.94258 0.48217,1.5533 1.08084,2.28629 0.397,0.39313 0.80868,0.87712 1.36045,1.05893 0.52093,0.17166 1.62478,0.0498 1.88935,0.045 0.69741,-0.14881 1.25416,-0.55226 1.37344,-1.29348 0.0221,-0.13768 0.0114,-0.27867 0.0171,-0.41801 -0.074,-0.85678 -0.57409,-1.49028 -1.21574,-2.01526 -0.60226,-0.43575 -1.31121,-0.6416 -2.02791,-0.79538 -0.88435,-0.13596 -1.81596,-0.25825 -2.69594,-0.0545 -0.12424,0.0448 -0.29481,0.0924 -0.33877,0.23349 -0.006,0.40664 0.74446,0.16078 0.88959,0.15364 0,0 0.0937,-0.0123 0.0937,-0.0123 v 0 c 1.15374,-0.26626 0.43785,-0.24813 0.47543,-0.0435 0.11895,-0.0204 0.21713,-0.12568 0.34293,-0.12974 0.0913,-0.0158 0.36885,-0.0306 0.27618,-0.0323 -2.99008,-0.0557 -1.23087,-0.0154 -0.93922,0.004 0.0944,0.006 0.1888,0.0139 0.28287,0.0242 0.10032,0.011 0.20012,0.0263 0.30018,0.0394 0.71692,0.12706 1.41838,0.31753 2.02911,0.73183 0.63439,0.48594 1.15812,1.06856 1.26308,1.89325 -0.002,0.12922 0.0119,0.25958 -0.005,0.38768 -0.0901,0.67516 -0.61825,1.01612 -1.23602,1.15997 0.23155,0.0129 0.46275,0.0391 0.69466,0.0386 0.13816,-2.6e-4 -0.27814,-0.008 -0.41261,-0.0392 -0.59243,-0.13954 -1.03472,-0.61803 -1.47214,-1.00243 -0.59279,-0.67877 -0.99519,-1.32138 -1.0951,-2.23698 0,0 -0.93018,0.017 -0.93018,0.017 z"
       id="path120"
       style="opacity:1;fill:#502d16;stroke:#502d16;stroke-width:0.529167;stroke-linecap:round" />
    <path
       d="m 116.75605,199.36977 c -0.49608,-0.70698 -1.13481,-1.30144 -1.79298,-1.85527 -0.83636,-0.74221 -1.83763,-1.25672 -2.81538,-1.78365 -1.0225,-0.51578 -2.06789,-0.98902 -3.13823,-1.39671 -0.70274,-0.30092 -1.43806,-0.49367 -2.19381,-0.59542 -0.63636,-0.0452 -2.30485,-0.14947 -2.23581,0.0671 0.014,0.0439 0.0637,0.0668 0.0929,0.10251 0.0436,0.0532 0.0835,0.10934 0.1252,0.16401 0,0 0.0943,0.006 0.0943,0.006 v 0 c 0.44513,-0.14319 0.23621,-0.10905 0.80008,-0.11013 0.13835,-2.6e-4 0.5533,0.004 0.41499,0.008 -1.36229,0.0351 -1.92193,-0.0386 -1.21239,0.0431 0.83995,0.0924 1.66734,0.27361 2.47699,0.5153 1.11302,0.40016 2.2129,0.83957 3.27484,1.36211 1.05981,0.5136 2.12099,1.03108 3.07457,1.73002 0.7309,0.55016 1.4826,1.09631 2.07115,1.80408 0,0 0.9636,-0.0608 0.9636,-0.0608 z"
       id="path122"
       style="opacity:1;fill:#502d16;stroke:#502d16;stroke-width:0.529167;stroke-linecap:round" />
    <path
       d="m 114.51744,192.63295 c -0.17264,-0.51141 -0.4171,-1.11441 -0.2716,-1.66587 0.029,-0.10979 0.0962,-0.20571 0.14434,-0.30857 0.38062,-0.51074 0.91015,-0.81215 1.53517,-0.89176 0.69461,0.002 -0.28955,-0.002 -0.5053,0.0123 -0.0583,0.004 0.11623,0.0143 0.1732,0.0274 0.19565,0.0448 0.31873,0.13515 0.46934,0.26296 0.36241,0.36249 0.47351,0.84258 0.58033,1.32485 0.1081,0.40928 0.18581,0.82454 0.2752,1.23756 -0.003,0.14991 0.0864,0.28983 0.0852,0.43666 -0.0233,0.0598 0.0359,0.11095 -0.0287,0.13367 1.3499,0.11305 2.84167,0.0155 0.27247,0.0834 -0.0831,0.002 0.1638,0.0298 0.24404,0.0517 0.7364,0.30011 1.2172,0.1501 2.16613,0.13898 0.36852,-0.0561 0.63033,-0.23125 0.83862,-0.53303 0.19517,-0.34732 0.3006,-0.72757 0.33754,-1.12175 -0.007,-0.39945 -0.15362,-0.72638 -0.39264,-1.03768 -0.38036,-0.46764 -0.89954,-0.70214 -1.44809,-0.91153 -0.50613,-0.16735 -1.02149,-0.31272 -1.54417,-0.41919 -0.61591,-0.10914 -0.82845,-0.0241 -1.73,0.23408 -0.0688,0.0197 0.11089,0.0943 0.17727,0.12093 0.15441,0.062 0.46894,0.0812 0.62048,0.0969 0.62816,0.04 1.25579,0.0828 1.8784,0.17712 0.47894,0.10805 0.96067,0.18189 1.45032,0.21855 0.65943,-0.0169 2.00146,0.36464 2.4928,-0.4357 0.0385,-0.0627 0.0816,-0.12891 0.0884,-0.20215 0.006,-0.0674 -0.0344,-0.13089 -0.0516,-0.19633 -0.34978,-0.21237 -0.21337,-0.0977 -0.43152,-0.31569 0,0 -0.0944,-0.004 -0.0944,-0.004 v 0 c -0.39645,0.18497 -0.1638,0.0913 -0.70809,0.2543 -0.0875,0.0547 -0.18018,0.10204 -0.2626,0.16422 -0.22421,0.16917 -0.14009,0.17652 -0.37102,0.33189 -0.46173,0.31063 -1.71964,0.10092 0.94891,0.15668 -0.49555,-0.0138 -0.98433,-0.0784 -1.46574,-0.19911 -0.64475,-0.10399 -1.29728,-0.13878 -1.94863,-0.17717 -0.24115,-0.0188 -0.51192,-0.0818 -0.75407,-0.077 -2.87499,0.0565 -2.06159,-5.3e-4 -1.4505,0.0794 0.56209,0.0826 1.12128,0.1949 1.66132,0.37396 0.51001,0.19069 1.01918,0.39267 1.36861,0.83238 0.20844,0.27685 0.37657,0.56077 0.37,0.92017 -0.0346,0.36374 -0.13201,0.72152 -0.31607,1.03951 -0.18879,0.25803 -0.43431,0.38296 -0.7554,0.40949 2.52068,0.0189 1.36089,0.14588 0.82711,-0.10728 -0.93486,-0.36146 -3.54779,0.001 -0.47517,-0.0113 -0.0731,-0.0137 -0.0823,-0.0803 -0.1426,-0.12445 -0.10502,-0.11714 -0.14699,-0.26197 -0.18918,-0.41115 -0.11468,-0.41461 -0.26304,-0.82048 -0.3625,-1.23993 -0.17322,-0.49193 -0.35164,-0.99772 -0.72038,-1.38062 -0.61786,-0.55652 -1.28842,-0.38946 -2.12688,-0.34715 -0.60323,0.14273 -1.12468,0.45666 -1.46282,0.99034 -0.0421,0.1128 -0.10247,0.22038 -0.12615,0.33841 -0.11516,0.57432 0.1851,1.15323 0.30763,1.6985 0,0 0.82294,-0.0277 0.82294,-0.0277 z"
       id="path124"
       style="opacity:1;fill:#502d16;stroke:#502d16;stroke-width:0.529167;stroke-linecap:round" />
    <path
       d="m 119.97846,185.96135 c 0.0118,-0.67063 -0.0527,-1.32542 -0.3108,-1.94685 -0.0831,-0.22984 -0.19904,-0.44622 -0.3329,-0.6502 -0.36469,0.0478 -0.73868,0.0486 -1.09407,0.14337 -0.0467,0.0124 0.0338,0.0908 0.057,0.1332 0.14397,0.26303 0.39855,0.4668 0.62748,0.64967 0.77418,0.51451 1.67349,0.77064 2.57863,0.93506 0.86308,0.0534 2.30013,0.27755 3.08003,-0.34245 0.0726,-0.0577 0.12505,-0.13686 0.18757,-0.20529 0.0339,-0.089 0.0919,-0.17227 0.10183,-0.26702 0.0853,-0.81658 -0.71242,-1.50876 -1.20832,-2.03208 -0.71836,-0.76959 -1.61033,-1.32427 -2.52419,-1.82852 -0.81804,-0.40293 -0.87204,-0.49236 -2.02055,-0.0713 -0.1024,0.0375 0.20469,0.0754 0.30703,0.11302 1.16081,0.44043 2.31092,0.90755 3.45676,1.38534 1.09139,0.44733 2.15316,0.96399 3.10904,1.6583 0.43975,0.36857 0.92008,0.80192 1.05661,1.38909 0.0205,0.0881 0.011,0.18054 0.0166,0.27081 -0.14858,0.62616 -0.73148,0.97718 -1.26389,1.2592 -0.37719,0.17581 -0.76431,0.3337 -1.17604,0.40306 0.5556,-0.007 1.11156,-0.001 1.6668,-0.0223 0.0502,-0.002 -0.10479,-0.008 -0.14636,-0.036 -0.0697,-0.0473 -0.12731,-0.11292 -0.17516,-0.18227 -0.25528,-0.36995 -0.37717,-0.83427 -0.51569,-1.2543 -0.3683,-1.16478 -0.61076,-2.36627 -0.74955,-3.57893 -0.0916,-0.55843 0.0161,-1.81734 -0.54632,-2.15171 -0.15631,-0.0929 -0.34436,-0.11697 -0.51654,-0.17546 0,0 -0.0945,-0.002 -0.0945,-0.002 v 0 c -0.19244,0.0628 -0.40471,0.0826 -0.5773,0.18836 -0.52446,0.3214 -0.12038,1.69115 -0.0983,2.16519 0.19295,1.2226 0.44045,2.4314 0.8255,3.61013 0.0744,0.22537 0.5137,1.67794 0.79397,1.69163 0.64526,0.0315 1.29204,-0.005 1.93806,-0.007 0.37437,-0.10626 0.73308,-0.26015 1.06247,-0.46904 0.56754,-0.34113 1.08385,-0.76136 1.21679,-1.44708 -0.005,-0.10582 0.004,-0.21314 -0.0139,-0.31746 -0.11072,-0.62941 -0.64096,-1.10728 -1.11209,-1.48465 -0.99017,-0.71341 -2.09013,-1.23206 -3.22196,-1.68269 -1.1494,-0.47002 -2.29976,-0.937 -3.45717,-1.387 -0.79581,-0.34548 -0.24267,-0.15589 -1.99909,-0.0149 -0.0212,0.002 0.0389,0.0173 0.0583,0.0263 0.0464,0.0215 0.0926,0.0434 0.13883,0.0651 0.24654,0.11554 0.21111,0.0988 0.49125,0.2296 0.9626,0.4493 1.88161,0.97563 2.6092,1.7677 0.39983,0.43145 1.19278,1.19445 1.10104,1.8617 -0.0104,0.0755 -0.0603,0.14003 -0.0904,0.21005 -0.19659,0.2055 -0.38848,0.30993 -0.66466,0.39394 -0.10463,0.0318 -0.4272,0.0601 -0.31906,0.0765 0.19448,0.0295 1.73388,0.0444 0.59007,0.008 -0.95129,-0.13971 -1.89755,-0.38193 -2.74206,-0.85515 -0.18504,-0.13241 -0.26693,-0.17903 -0.42468,-0.33444 -0.0657,-0.0647 -0.25635,-0.35433 -0.28144,-0.35705 -0.37078,-0.0402 -0.74556,-0.0227 -1.11834,-0.0341 0.23931,0.10583 0.35657,0.42313 0.53183,0.59607 0.32994,0.59333 0.46635,1.22063 0.40323,1.90249 0,0 0.7895,0.005 0.7895,0.005 z"
       id="path126"
       style="opacity:1;fill:#502d16;stroke:#502d16;stroke-width:0.529167;stroke-linecap:round" />
    <path
       d="m 114.39593,220.73002 c 0.12439,-0.001 0.49755,-0.005 0.37315,-0.004 -0.20324,7.9e-4 -0.41245,-0.0436 -0.60973,0.005 -0.16936,0.042 0.34894,0.008 0.52324,0.0162 0.58232,0.0274 1.15061,0.0996 1.72601,0.18986 0.98801,0.17267 1.92793,0.51701 2.83934,0.92603 0.65008,0.30918 1.24679,0.72352 1.82553,1.14915 0.66159,0.4839 1.22454,1.08268 1.77498,1.68575 0.29587,0.44 0.71103,0.39229 1.17875,0.4985 0.0164,0.004 -0.0224,0.0251 -0.0336,0.0376 0,0 0.0943,0.006 0.0943,0.006 v 0 c 0.1536,-0.23119 -0.29098,0.41813 0.39748,-0.20882 0.18941,-0.17248 -0.1565,-0.38961 -0.20958,-0.44284 -0.5891,-0.58435 -1.15041,-1.20451 -1.81217,-1.70886 -0.62282,-0.43263 -1.25336,-0.85695 -1.95071,-1.16304 -0.94752,-0.41752 -1.92455,-0.77408 -2.95012,-0.94429 -1.42098,-0.21713 -2.85042,-0.27278 -4.28879,-0.21262 0,0 1.12197,0.17022 1.12197,0.17022 z"
       id="path128"
       style="opacity:1;fill:#502d16;stroke:#502d16;stroke-width:0.529167;stroke-linecap:round" />
    <path
       d="m 114.91031,223.038 c -0.0595,-0.96946 -0.063,-1.9419 -0.0363,-2.91255 0.0756,-0.76863 0.23828,-1.62968 0.80802,-2.20304 0.0951,-0.0958 0.21075,-0.16873 0.31613,-0.25309 0.26011,-0.13574 0.41586,-0.24437 0.70843,-0.29382 0.11992,-0.0203 0.48578,-0.0233 0.36463,-0.0127 -0.29187,0.0256 -0.60317,-0.0463 -0.87708,0.0577 -0.11383,0.0432 0.23113,0.083 0.33368,0.14865 0.12737,0.0815 0.23322,0.19259 0.34983,0.28889 0.50121,0.56372 0.92066,1.23704 1.16358,1.95616 0.1056,0.31259 0.16082,0.64023 0.25592,0.95617 0.0361,0.11526 0.0722,0.23054 0.10842,0.34578 0.0491,0.15646 0.11045,0.29905 0.0584,0.31961 -0.0269,0.0106 -0.071,-0.0735 -0.0422,-0.0759 1.44418,-0.12212 1.60191,0.40582 1.34304,-0.21294 -0.14362,-0.62487 -0.14622,-1.33104 0.0508,-1.94806 0.0428,-0.13409 0.11046,-0.25895 0.16569,-0.38843 0.53631,-0.92344 1.19473,-1.15745 2.22393,-1.22565 -0.25814,0.022 -0.55536,-0.0724 -0.7744,0.0659 -0.125,0.0789 0.28255,0.0923 0.41263,0.16254 0.13892,0.075 0.27312,0.163 0.38893,0.2703 0.4101,0.37996 0.56844,0.86721 0.72055,1.38381 0.18398,0.61547 0.19915,1.25184 0.16069,1.88777 -0.0202,0.33408 -0.11196,0.6647 -0.0993,0.99915 0.005,0.12503 0.0519,0.2448 0.0778,0.3672 0.1599,0.1021 0.31981,0.20419 0.47971,0.30628 0,0 0.0944,0.003 0.0944,0.003 v 0 c 0.22344,-0.0919 0.44688,-0.18381 0.67032,-0.27572 0.0938,-0.12324 0.21266,-0.23095 0.2814,-0.36974 0.40945,-0.82657 0.0889,-2.13567 -0.12323,-2.97377 -0.35165,-0.76524 -0.64943,-1.30688 -1.40801,-1.74514 -0.13646,-0.0788 -0.27653,-0.17046 -0.4329,-0.19004 -0.54769,-0.0686 -1.10291,-0.0475 -1.65436,-0.0713 -0.98021,0.11378 -1.80232,0.43759 -2.28025,1.35547 -0.3173,0.77558 -0.48463,1.58721 -0.39573,2.42869 0.14397,0.69749 -0.005,0.31318 1.57334,0.35867 0.0566,0.002 0.0627,-0.29399 0.0142,-0.47985 -0.0311,-0.11911 -0.0811,-0.23249 -0.12168,-0.34874 -0.36511,-0.8859 0.0285,0.0252 -0.46253,-0.95888 -0.35113,-0.70365 -0.66406,-1.42864 -1.21767,-2.0074 -0.11612,-0.10763 -0.21986,-0.2304 -0.34837,-0.32288 -0.55451,-0.39907 -1.2355,-0.24095 -1.90444,-0.24899 -0.11103,-10e-4 -0.22237,0.0189 -0.32979,0.0471 -0.31459,0.0825 -0.41831,0.17208 -0.6986,0.33881 -0.10584,0.093 -0.22219,0.17514 -0.31752,0.27883 -0.55944,0.60857 -0.70155,1.49186 -0.80591,2.27671 -0.0223,0.97373 0.0189,1.94806 0.005,2.92215 0,0 1.20086,-0.007 1.20086,-0.007 z"
       id="path130"
       style="opacity:1;fill:#502d16;stroke:#502d16;stroke-width:0.529167;stroke-linecap:round" />
    <path
       d="m 122.79152,213.06476 c -0.0455,0.83537 0.24205,1.57616 0.74505,2.22763 0.95926,0.80907 2.05449,0.75801 3.2867,0.66844 0.14548,-0.0106 0.2746,-0.0985 0.4119,-0.14773 0.1248,-0.0818 0.26393,-0.14505 0.3744,-0.24535 0.50427,-0.45781 0.76779,-1.20801 0.70255,-1.8756 -0.0186,-0.19009 -0.0755,-0.37447 -0.1132,-0.5617 -0.29278,-0.90024 -0.89161,-1.65623 -1.73611,-2.10181 -0.14813,-0.0782 -0.30889,-0.12959 -0.46334,-0.19438 -0.92761,-0.21866 -2.9074,-0.58525 -3.2224,0.71873 -0.0338,0.13993 -0.0195,0.28725 -0.0292,0.43087 0.1557,0.80232 0.49588,0.73325 1.05777,1.14549 0.0784,0.0575 0.12458,0.14931 0.18687,0.22396 0,0 0.0943,-0.007 0.0943,-0.007 v 0 c -0.0622,-0.0738 -0.19728,-0.12546 -0.18673,-0.22144 0.015,-0.13671 0.17788,-0.21155 0.24738,-0.33024 0.20879,-0.35658 0.17409,-0.39591 0.22394,-0.79145 0.0684,-0.37058 0.13442,-0.69444 0.49257,-0.89871 0.10016,-0.0571 0.4404,-0.0951 0.32663,-0.11386 -0.23968,-0.0395 -2.04332,-0.0779 -0.72816,0.0289 0.15771,0.0558 0.32074,0.0983 0.47312,0.16726 0.85361,0.38644 1.46012,1.09013 1.75686,1.9721 0.0328,0.17658 0.0846,0.35068 0.0984,0.52975 0.0475,0.61421 -0.19259,1.31393 -0.66219,1.73016 -0.0995,0.0882 -0.22503,0.14144 -0.33754,0.21217 -0.5262,0.15778 -0.90376,0.22551 0.57483,0.1552 0.1494,-0.007 -0.2978,-0.0333 -0.44397,-0.065 -0.26323,-0.0571 -0.57768,-0.16639 -0.81582,-0.29516 -0.11973,-0.0647 -0.22758,-0.14938 -0.34137,-0.22407 -0.0974,-0.094 -0.20849,-0.17567 -0.29235,-0.28196 -0.40051,-0.50764 -0.56648,-1.21477 -0.56948,-1.84527 0,0 -1.11138,-0.0104 -1.11138,-0.0104 z"
       id="path132"
       style="opacity:1;fill:#502d16;stroke:#502d16;stroke-width:0.529167;stroke-linecap:round" />
    <path
       d="m 125.31248,206.45083 c 0.10836,0.55078 0.21998,1.11826 0.4985,1.61347 0.19083,0.3393 0.29922,0.43232 0.55206,0.71843 0.26835,0.20092 0.39609,0.32935 0.71289,0.44334 0.7067,0.25427 1.74369,0.23181 2.46832,0.0182 0.13406,-0.0395 0.25829,-0.1069 0.38744,-0.16035 0.66327,-0.34178 1.00567,-1.03701 0.7568,-1.76921 -0.06,-0.17664 -0.16278,-0.33575 -0.24416,-0.50363 -0.22022,-0.34565 -0.33491,-0.58507 -0.65159,-0.85355 -0.77303,-0.65536 -1.9335,-0.44388 -2.83479,-0.36249 -0.12878,0.0116 -0.22856,0.12097 -0.34283,0.18146 -0.4094,0.4494 -0.29221,0.65998 0.12246,1.02432 0,0 0.0945,0.002 0.0945,0.002 v 0 c 0.47293,-0.26103 0.91279,-0.56988 1.37839,-0.84282 0.61538,-0.23061 0.8012,-0.24909 -0.85314,-0.18088 -0.15199,0.006 0.30464,0.0342 0.44879,0.0828 0.53826,0.18145 0.96134,0.57058 1.29995,1.01174 0.082,0.15473 0.18689,0.29935 0.246,0.46419 0.23383,0.65203 -0.0913,1.28558 -0.67306,1.59401 -0.12912,0.0451 -0.25459,0.10239 -0.38736,0.13519 -0.13357,0.033 -0.54348,0.0365 -0.40816,0.0613 0.26995,0.0496 0.55059,0.0463 0.82325,0.0149 0.14244,-0.0164 -0.2864,-0.0273 -0.42583,-0.0607 -0.42932,-0.10292 -0.4734,-0.16443 -0.85113,-0.3821 -0.1094,-0.10368 -0.22991,-0.19677 -0.32821,-0.31103 -0.47772,-0.55531 -0.58518,-1.28486 -0.79618,-1.9607 0,0 -0.99288,0.022 -0.99288,0.022 z"
       id="path134"
       style="opacity:1;fill:#502d16;stroke:#502d16;stroke-width:0.529167;stroke-linecap:round" />
    <path
       d="m 121.0693,200.42778 c 0.92732,-0.14291 1.86646,-0.17216 2.80235,-0.20556 0.10327,-0.004 -0.4123,-0.007 -0.30989,0.007 0.2392,0.0321 0.48164,0.0321 0.72246,0.0482 1.21018,0.0938 2.38716,0.37273 3.52631,0.7822 0.85004,0.29567 1.58666,0.80786 2.32481,1.30778 0.51891,0.35067 1.01232,0.73689 1.53741,1.0783 0.0987,0.0642 0.19142,0.13917 0.29758,0.18995 0.14301,0.0684 0.2972,0.11043 0.4458,0.16564 0.56516,0.17302 0.34003,0.0516 0.70488,0.30322 0,0 0.0944,-0.005 0.0944,-0.005 v 0 c 0.0568,-0.25984 0.005,-0.12968 0.17726,-0.38148 0.006,-0.0708 0.045,-0.14737 0.0166,-0.2125 -0.028,-0.0641 -0.44823,-0.42484 -0.46712,-0.43984 -0.39175,-0.31118 -0.81804,-0.57897 -1.23458,-0.85457 -0.80615,-0.51421 -1.63345,-0.99624 -2.53801,-1.31889 -1.18864,-0.43157 -2.41776,-0.71867 -3.68404,-0.79821 -1.80569,-0.0888 -3.62461,-0.0839 -5.41522,0.19222 0,0 0.99904,0.14116 0.99904,0.14116 z"
       id="path136"
       style="opacity:1;fill:#502d16;stroke:#502d16;stroke-width:0.529167;stroke-linecap:round" />
    <path
       d="m 127.60087,195.86649 c 0.0403,0.70074 -0.0661,1.38925 -0.0649,2.08775 0.0173,0.47433 -0.0301,0.94734 -0.0292,1.42105 0.01,0.41765 0.058,0.83384 0.0947,1.24992 -0.0314,0.19628 0.0147,0.38745 0.0335,0.57906 2.19701,-0.0642 1.31761,0.14235 2.17832,-0.7041 0.32581,-0.28861 0.68238,-0.54043 1.04163,-0.78534 0.28623,-0.22961 0.581,-0.38266 0.94071,-0.45163 0.56677,-0.007 1.57077,-0.0572 -1.01577,0.002 -0.0629,0.001 0.12554,0.0105 0.18756,0.0211 0.15365,0.0262 0.23255,0.0571 0.38162,0.10434 0.37141,0.16026 0.72134,0.35788 1.09488,0.51471 0.27337,0.11566 0.54135,0.23512 0.83253,0.29701 0.6557,0.077 1.71751,0.38111 2.20554,-0.24314 0.14208,-0.32178 0.20913,-0.66676 0.28455,-1.00789 0.15437,-0.51417 -0.2926,-0.283 -0.64051,-0.48682 0,0 -0.0942,-0.007 -0.0942,-0.007 v 0 c -0.088,0.0236 -0.17429,0.0552 -0.26406,0.0709 -0.42813,0.075 -0.62381,-0.0275 -0.68445,0.39062 -0.052,0.31167 -0.10031,0.64358 -0.25766,0.92082 -0.0764,0.0741 -0.13928,0.11331 -0.24728,0.12943 -0.0314,0.005 -0.12679,0.005 -0.0951,0.006 1.65001,0.0194 1.99323,0.0483 1.38788,0.002 -0.29048,-0.0365 -0.55767,-0.13798 -0.82263,-0.26172 -0.3765,-0.15358 -0.74387,-0.31898 -1.09605,-0.52323 -0.86543,-0.33598 -1.82762,-0.26462 -2.73762,-0.14209 -0.35832,0.0991 -0.66143,0.28624 -0.95582,0.51124 -0.35747,0.25849 -0.71517,0.52009 -1.0432,0.8155 -0.1439,0.15512 -0.27232,0.31409 -0.39524,0.48608 -0.38293,0.53585 -0.1143,0.11735 1.44087,0.25166 -0.005,0.006 -0.0118,0.0266 -0.0145,0.0191 -0.0568,-0.15582 0.001,-0.37815 -0.10175,-0.52773 -0.0664,-0.40986 -0.11864,-0.82046 -0.13464,-1.23587 -0.0316,-0.47208 -0.0639,-0.94313 -0.0555,-1.41687 -0.001,-0.1131 -0.004,-0.53506 -0.0151,-0.63636 -0.0132,-0.12338 -0.0527,-0.24316 -0.0639,-0.36675 -0.0323,-0.35868 0.0187,-0.72291 0.0139,-1.08186 0,0 -1.28905,-0.002 -1.28905,-0.002 z"
       id="path142"
       style="opacity:1;fill:#502d16;stroke:#502d16;stroke-width:0.529167;stroke-linecap:round" />
    <path
       d="m 97.256007,224.59195 c -0.01204,0.5589 0.171405,1.05926 0.454049,1.53152 0.302988,0.47864 0.785921,0.76105 1.27791,1.012 0.606507,0.27903 1.187294,0.28309 1.865694,0.23681 0.18254,-0.0125 0.45807,-0.16498 0.61424,-0.2404 0.54571,-0.2979 0.94326,-0.74647 1.26429,-1.26842 0.22645,-0.47845 0.23512,-0.91059 0.11736,-1.41604 -0.17879,-0.55928 -0.57677,-1.00401 -0.95563,-1.43865 -0.38461,-0.44924 -0.86032,-0.73855 -1.41166,-0.9327 -0.20224,-0.058 -0.40991,-0.11608 -0.622567,-0.11453 -0.907957,0.007 -1.218274,-0.228 -1.732421,0.23442 -0.311176,0.38681 -0.407466,0.85126 -0.457057,1.33154 -0.02993,0.58329 0.151188,1.05469 0.49934,1.51393 0.33206,0.23766 0.677524,0.19556 1.030011,0.39308 0,0 0.0664,-0.007 0.0664,-0.007 v 0 c -0.37952,-0.20923 0.009,-0.0555 0.0845,-0.45446 -0.24792,-0.45427 -0.480847,-0.89541 -0.424816,-1.43284 0.04368,-0.44453 0.125716,-0.90103 0.453326,-1.23023 0.445757,-0.29383 0.902674,-0.12316 -0.753261,-0.15723 -0.07301,-0.002 0.146119,-0.003 0.219088,-5.2e-4 0.256483,0.0103 0.265613,0.0211 0.521263,0.0669 0.581127,0.15248 1.101304,0.43493 1.528514,0.86425 0.39707,0.40677 0.77883,0.84759 0.9727,1.39083 0.14971,0.45426 0.19286,0.89956 -0.0281,1.34228 -0.28044,0.51662 -0.67116,0.94137 -1.19474,1.22167 -0.0986,0.0447 -0.19399,0.0974 -0.29588,0.13403 -0.062,0.0223 -1.053854,0.23909 0.2194,0.0906 0.0893,-0.0104 -0.17839,-0.0235 -0.26623,-0.0425 -0.23619,-0.0511 -0.308027,-0.0877 -0.533247,-0.17267 -0.498197,-0.22791 -0.98594,-0.51083 -1.310687,-0.965 -0.281297,-0.45677 -0.476406,-0.94345 -0.447583,-1.49067 0,0 -0.754245,0 -0.754246,0 z"
       id="path158"
       style="opacity:1;fill:#502d16;stroke:#502d16;stroke-width:0.529167;stroke-linecap:round" />
    <path
       d="m 83.920931,234.19433 c 0.496387,-0.43953 1.111022,-0.65792 1.736315,-0.84099 0.74704,-0.21053 1.519322,-0.28754 2.292675,-0.2988 -0.164817,0.004 -0.335743,-0.0313 -0.494451,0.0134 -0.111585,0.0314 0.231357,0.0159 0.346618,0.0283 0.467566,0.0502 0.916135,0.16843 1.367406,0.29601 0.749628,0.22009 1.446382,0.57277 2.113383,0.97358 0.562777,0.34456 1.049772,0.78996 1.519275,1.24926 0.524335,0.54498 1.022509,1.11343 1.502061,1.69791 0.537937,0.64347 1.061907,1.29845 1.565917,1.96883 0.215744,0.39311 0.589246,0.39183 0.984208,0.47425 0,0 0.06669,-0.004 0.06669,-0.004 v 0 c 0.336434,-0.16791 0.568386,-0.18062 0.221073,-0.55422 -0.538808,-0.67276 -1.097539,-1.32813 -1.676307,-1.96698 -0.510445,-0.57475 -1.007169,-1.16351 -1.553782,-1.70461 -0.492842,-0.47571 -1.01468,-0.91795 -1.607706,-1.26626 -0.693137,-0.40919 -1.411105,-0.76835 -2.18879,-0.99051 -1.022876,-0.29697 -1.930429,-0.41722 -3.017125,-0.34773 -0.752653,0.0217 -1.500362,0.11498 -2.224194,0.33103 -0.634449,0.19445 -1.238988,0.43824 -1.752711,0.87147 0,0 0.799447,0.0703 0.799447,0.0703 z"
       id="path160"
       style="opacity:1;fill:#502d16;stroke:#502d16;stroke-width:0.529167;stroke-linecap:round" />
    <path
       d="m 86.032758,235.54418 c -0.174813,-0.68119 -0.217143,-1.38614 -0.256828,-2.08542 -0.0036,-0.57968 0.105936,-1.15059 0.206915,-1.71889 0.09047,-0.54335 0.293272,-1.05984 0.484433,-1.57393 0.213789,-0.58999 0.413811,-1.18756 0.730917,-1.73145 0.43122,-0.63444 0.98035,-1.1657 1.584349,-1.63256 0.714454,-0.52733 1.551051,-0.75301 2.408391,-0.91491 0.553474,-0.0863 1.112946,-0.14892 1.673555,-0.15993 0.121775,-0.002 0.486574,-0.008 0.365377,0.004 -0.228188,0.0227 -0.458243,0.019 -0.687364,0.0285 0.712639,0.11577 1.176115,0.38425 1.680091,0.88938 0.436999,0.48556 0.655664,1.09679 0.842227,1.71068 0.152498,0.53608 0.209634,1.09272 0.264446,1.64555 0.04375,0.47799 0.0816,0.95692 0.104724,1.43639 0.0164,0.45697 0.08782,0.90821 0.156073,1.35952 0.07032,0.48678 0.152789,0.97175 0.209785,1.46037 0.07774,0.3742 0.03933,0.74958 0.01132,1.12582 -0.05539,0.26449 -0.116459,0.527 -0.286689,0.74166 -0.01908,0.0249 -0.05141,0.0439 -0.05724,0.0747 -0.03271,0.17313 0.464966,0.24855 0.4874,0.25503 0,0 0.06658,0.006 0.06658,0.006 v 0 c 0.332722,-0.0196 0.768784,0.0161 1.026583,-0.2407 0.160584,-0.24511 0.216644,-0.53699 0.240702,-0.82596 0.02617,-0.3892 -0.0538,-0.77237 -0.112201,-1.15625 -0.08545,-0.48531 -0.150681,-0.97412 -0.233844,-1.45986 -0.06223,-0.44799 -0.113393,-0.89675 -0.139573,-1.34847 -0.03626,-0.48191 -0.07609,-0.96311 -0.141198,-1.44232 -0.06631,-0.56562 -0.156094,-1.1291 -0.336143,-1.67149 -0.230375,-0.64443 -0.543099,-1.2489 -1.011181,-1.75591 -0.209035,-0.21151 -0.287359,-0.31154 -0.534768,-0.47937 -0.36045,-0.24452 -0.788689,-0.38643 -1.210371,-0.47692 -1.120489,-0.0297 -2.236468,-0.0762 -3.342717,0.14671 -0.850937,0.17421 -1.681702,0.40929 -2.37264,0.9641 -0.603414,0.47849 -1.180386,1.01936 -1.600687,1.66965 -0.286515,0.56023 -0.49698,1.15189 -0.699442,1.74686 -0.185933,0.52163 -0.397417,1.03935 -0.472824,1.59196 -0.07639,0.5762 -0.176752,1.15389 -0.155427,1.73722 0.03393,0.70668 0.173546,1.40098 0.284896,2.09858 0,0 0.822354,-0.0176 0.822354,-0.0176 z"
       id="path162"
       style="opacity:1;fill:#502d16;stroke:#502d16;stroke-width:0.529167;stroke-linecap:round" />
    <path
       d="m 151.26515,236.5247 c -0.34785,0.57016 -0.54166,1.21042 -0.6597,1.8631 -0.14426,0.79142 0.0878,1.56896 0.34122,2.31228 0.31508,0.90465 0.78969,1.73613 1.30158,2.54112 0.65206,0.93854 1.52693,1.67361 2.42473,2.36532 0.7975,0.61457 1.70366,1.0721 2.69194,1.28378 0.19439,0.0416 0.39258,0.063 0.58887,0.0945 0.92236,0.002 1.93932,0.21841 2.74226,-0.33608 0.5358,-0.37001 0.7503,-0.84181 1.01181,-1.40838 0.30122,-1.09043 0.29172,-2.2657 -0.006,-3.35925 -0.0622,-0.22838 -0.15241,-0.44821 -0.22861,-0.67231 -0.23851,-0.5428 -0.43654,-1.1128 -0.72428,-1.63344 -0.12375,-0.22392 -0.2762,-0.46946 -0.52188,-0.58441 -0.15507,-0.0726 -0.33124,-0.0867 -0.49687,-0.13006 -0.0145,-0.017 -0.0291,-0.0339 -0.0437,-0.0509 0,0 -0.0668,0.001 -0.0668,0.001 v 0 c -0.008,0.0189 -0.0166,0.0378 -0.0249,0.0567 -0.10828,0.0581 -0.25017,0.0768 -0.32483,0.17442 -0.1117,0.14605 0.11646,0.52309 0.15409,0.59622 0.27378,0.5321 0.58936,1.04461 0.79057,1.61225 0.1735,0.49247 0.30497,0.81544 0.41506,1.32704 0.18709,0.86944 0.16662,1.7615 -0.10161,2.61145 -0.25141,0.54314 -0.45878,0.99257 -0.98514,1.3302 -0.14976,0.0961 -0.52782,0.053 -0.48382,0.22542 0.0469,0.18374 0.66381,-0.0768 0.56271,0.0836 -0.10996,0.17451 -0.4125,0.004 -0.61875,0.005 -0.20886,-0.0261 -0.41945,-0.0408 -0.62658,-0.0782 -1.0035,-0.18108 -1.91556,-0.63461 -2.72995,-1.23851 -0.88826,-0.67988 -1.74346,-1.41391 -2.39402,-2.33377 -0.52373,-0.79141 -0.97486,-1.62568 -1.30936,-2.51593 -0.24761,-0.73036 -0.47033,-1.48372 -0.33238,-2.26153 0.11675,-0.63818 0.2532,-1.26876 0.59996,-1.82884 0,0 -0.94546,-0.0523 -0.94546,-0.0523 z"
       id="path176"
       style="opacity:1;fill:#502d16;stroke:#502d16;stroke-width:0.529167;stroke-linecap:round" />
    <path
       d="m 162.47174,236.75417 c 0.47508,-0.34881 0.87785,-0.82856 1.12219,-1.36843 0.0559,-0.1235 0.0917,-0.25514 0.13756,-0.3827 0.18611,-0.98268 -0.093,-1.52046 -0.73547,-2.23731 -0.28153,-0.28902 -0.60219,-0.57326 -1.00942,-0.66245 -0.47207,-0.10339 -0.96501,0.0579 -1.44599,0.10482 -0.31804,0.37461 -0.40102,0.86759 -0.26359,1.33883 0.0356,0.12219 0.0939,0.23663 0.14078,0.35494 0.53646,0.99529 1.37883,1.77752 2.2424,2.48806 0.16311,0.092 0.31901,0.1981 0.48931,0.27594 0.76631,0.35026 1.8474,0.28871 2.60281,0.10909 0.32403,-0.077 0.48577,-0.61062 0.58757,-0.84193 -0.0313,-0.71858 0.0229,-0.35931 -0.17029,-1.0766 0,0 -0.0668,-10e-4 -0.0668,-10e-4 v 0 c -0.42467,0.71482 -0.17973,0.37289 -0.74041,1.02175 -0.12617,0.14593 -0.23822,0.30538 -0.37852,0.43778 -0.12238,0.11548 -0.49751,0.16098 -0.4049,0.30147 0.12498,0.1896 0.47233,-7.9e-4 0.67306,0.10535 0.15401,0.0815 -0.35006,0.002 -0.52206,-0.0255 -0.4831,-0.078 -0.60612,-0.18306 -1.03965,-0.40227 -0.17242,-0.11789 -0.35469,-0.22253 -0.51726,-0.35367 -0.16247,-0.13105 -0.30738,-0.28266 -0.45481,-0.43042 -0.49065,-0.49176 -0.95733,-1.02239 -1.27182,-1.64656 -0.0433,-0.11168 -0.0967,-0.21998 -0.12999,-0.33505 -0.12546,-0.43348 -0.0307,-0.89425 0.30305,-1.20402 -0.29861,-0.0234 -0.59841,-0.0347 -0.89582,-0.0702 -0.0656,-0.008 0.13209,-0.0199 0.19782,-0.0131 0.43898,0.0456 0.83495,0.34321 1.17599,0.59192 0.64622,0.67599 0.92499,1.18486 0.75588,2.14084 -0.23598,0.71169 -0.5442,1.24484 -1.15283,1.70267 0,0 0.77122,0.0777 0.77122,0.0777 z"
       id="path178"
       style="opacity:1;fill:#502d16;stroke:#502d16;stroke-width:0.529167;stroke-linecap:round" />
    <path
       d="m 162.79038,226.58203 c 0.93708,0.13654 1.83777,0.41399 2.70988,0.77586 1.00228,0.45918 1.96278,1.0161 2.85808,1.6595 0.61032,0.42302 0.33858,0.46068 1.45128,0.17103 0.07,-0.0182 -0.13507,-0.0522 -0.20031,-0.0834 -0.11054,-0.0529 -0.21772,-0.11261 -0.32659,-0.16892 -0.86366,-0.46638 -1.71443,-0.95451 -2.50296,-1.54037 -0.58662,-0.46131 -1.02396,-0.9213 -1.27258,-1.63225 -0.0876,-0.46554 -0.0685,-0.98583 0.2184,-1.38481 0.0559,-0.0777 0.12716,-0.14301 0.19073,-0.21452 0.30752,-0.28907 0.68181,-0.42254 1.09545,-0.47532 0.10906,-0.0139 0.43901,-0.0207 0.32908,-0.0222 -0.30213,-0.004 -0.60425,0.01 -0.90637,0.0146 0.10788,0.0157 0.21736,0.0228 0.32363,0.0472 0.48059,0.11004 0.9322,0.33114 1.37338,0.5433 0.38392,0.18463 0.76459,0.37595 1.14719,0.56332 0.46276,0.18337 0.90817,0.53243 1.41855,0.58962 0.19453,0.0218 0.39126,-0.0136 0.5869,-0.0205 0,0 0.0662,-0.009 0.0662,-0.009 v 0 c 0.10188,-0.026 0.25548,0.0145 0.30566,-0.0779 0.0384,-0.0707 -0.10381,-0.1259 -0.17056,-0.17086 -0.12884,-0.0868 -0.81346,-0.41306 -0.90386,-0.4571 -0.55906,-0.27448 -1.11342,-0.56138 -1.68392,-0.81178 -0.26973,-0.11839 -0.59288,-0.25448 -0.88227,-0.32784 -0.11438,-0.029 -0.23261,-0.0398 -0.34891,-0.0597 -1.12186,-0.003 -2.01921,-0.21641 -2.83662,0.60053 -0.40945,0.55991 -0.50514,1.02294 -0.3885,1.70837 0.0326,0.0971 0.0566,0.19747 0.0979,0.29119 0.25099,0.57033 0.72547,1.01717 1.1973,1.40384 0.79077,0.57664 1.63237,1.07159 2.48206,1.556 0.0992,0.0593 0.19788,0.11956 0.29761,0.178 0.0592,0.0347 0.11046,0.10064 0.17901,0.10129 1.6436,0.0155 1.36588,0.0103 0.68616,-0.41423 -0.99341,-0.5752 -1.95888,-1.20533 -3.01755,-1.65969 -0.91525,-0.3637 -1.86147,-0.63005 -2.83647,-0.77992 0,0 -0.73692,0.10688 -0.73692,0.10688 z"
       id="path180"
       style="opacity:1;fill:#502d16;stroke:#502d16;stroke-width:0.529167;stroke-linecap:round" />
    <path
       d="m 166.92317,214.84693 c -0.32743,0.66169 -0.46887,1.37775 -0.46,2.11151 0.0574,0.33862 0.14454,0.77463 0.51104,0.91511 0.0794,0.0305 0.16624,0.0451 0.25131,0.0445 0.42283,-0.003 0.84485,-0.0375 1.26727,-0.0563 0.5331,-0.16712 0.83923,-0.62657 1.24081,-0.97277 0.0885,-0.0763 0.18498,-0.14285 0.27747,-0.21427 0.39828,-0.27555 0.84928,-0.47801 1.33208,-0.54365 0.0979,-0.0133 0.39453,-0.025 0.29584,-0.0197 -0.29348,0.0161 -0.58684,0.0344 -0.88025,0.0517 0.18168,0.10273 0.27575,0.12278 0.38094,0.32122 0.17355,0.32739 0.1493,1.09438 0.14667,1.4604 0.008,0.55253 -0.18691,1.25694 0.10698,1.7556 0.074,0.12555 0.19205,0.21927 0.28502,0.33148 0.0579,0.0699 0.1116,0.14306 0.1674,0.21458 0,0 0.0668,5.3e-4 0.0668,5.3e-4 v 0 c 0.13467,-0.14169 0.38246,-0.38941 0.46868,-0.54831 0.18291,-0.33709 0.1304,-0.473 0.1419,-0.84358 0.0111,-0.35822 0.0264,-0.5501 0.0494,-0.90715 0.0273,-0.64471 0.0619,-1.28453 -0.43815,-1.78028 -0.0653,-0.0647 -0.14884,-0.10785 -0.22325,-0.16177 -1.44601,-0.0639 -1.79044,-0.22084 -2.91647,0.57809 -0.48119,0.40772 -0.87346,0.95228 -1.50254,1.13881 0.24355,0.0157 0.48758,0.0253 0.73066,0.0472 0.083,0.007 -0.16854,0.0138 -0.24999,-0.004 -0.38319,-0.0831 -0.55433,-0.46979 -0.63205,-0.80919 -0.0182,-0.70667 0.0635,-1.44268 0.42303,-2.06518 0,0 -0.84064,-0.0447 -0.84064,-0.0447 z"
       id="path182"
       style="opacity:1;fill:#502d16;stroke:#502d16;stroke-width:0.529167;stroke-linecap:round" />
    <path
       d="m 169.75262,211.4736 c 0.71568,0.41884 1.4113,0.87824 2.17415,1.20689 0.74967,0.26536 1.39633,0.22601 2.22879,0.19346 0.19201,-0.008 0.50033,-0.113 0.66465,-0.21293 0.10013,-0.0609 0.18311,-0.1463 0.27467,-0.21946 0.0753,-0.0916 0.16358,-0.17379 0.22581,-0.27467 0.269,-0.43608 0.40632,-1.12612 0.3753,-1.63324 -0.009,-0.15231 -0.0432,-0.30213 -0.0648,-0.4532 -0.20642,-0.79794 -0.58191,-1.53344 -1.17951,-2.10915 -0.10382,-0.10002 -0.21895,-0.1876 -0.32842,-0.2814 -0.57454,-0.45071 -0.90715,-0.46688 -1.6192,-0.49822 0,0 -0.0663,0.009 -0.0663,0.009 v 0 c -0.0473,0.0344 -0.12069,0.0486 -0.14187,0.10309 -0.0558,0.14344 0.54639,0.43636 0.61125,0.49528 0.11607,0.0884 0.23805,0.16964 0.34821,0.26536 0.61401,0.53354 1.00888,1.24746 1.19928,2.03316 0.0956,0.67582 0.12162,1.38987 -0.27312,1.98972 -0.0609,0.0925 -0.14557,0.16707 -0.21836,0.2506 -0.25194,0.18367 -0.25969,0.22416 -0.5666,0.30792 -0.10876,0.0297 -0.44416,0.0365 -0.33333,0.0572 0.2349,0.0438 0.47949,0.043 0.71672,0.0143 0.27168,-0.0329 -1.14003,-0.0653 -0.80466,-0.16299 -0.85714,-0.29831 -1.67538,-0.68881 -2.45386,-1.15662 0,0 -0.76884,0.0764 -0.76884,0.0764 z"
       id="path184"
       style="opacity:1;fill:#502d16;stroke:#502d16;stroke-width:0.529167;stroke-linecap:round" />
    <path
       d="m 174.15708,200.40156 c -0.25332,0.7575 -0.15374,1.45166 0.0656,2.19916 0.0822,0.22634 0.094,0.35384 0.27736,0.51777 0.14068,0.12573 0.28847,0.15921 0.47291,0.15447 1.33132,-0.0342 0.94431,0.0792 1.63843,-0.18985 0.56774,-0.24227 1.09925,-0.56449 1.69553,-0.73321 0.084,-0.006 0.16794,-0.0128 0.25191,-0.0192 -0.31766,0.005 -0.63577,-0.004 -0.95298,0.0137 -0.0624,0.003 0.12464,0.0133 0.18527,0.0284 0.18747,0.0466 0.28307,0.13229 0.3928,0.28357 0.02,0.0759 0.0507,0.1497 0.0599,0.22761 0.0484,0.40793 -0.0557,0.85027 -0.11874,1.24881 -0.10416,0.65814 -0.0856,0.53223 -0.21128,1.19289 -0.0597,0.25855 -0.19562,1.20184 -0.0591,1.45533 0.41147,0.76417 0.34575,-0.0555 0.34283,0.61205 0,0 0.0668,0.001 0.0668,0.001 v 0 c 0.16969,-0.5973 -0.075,0.0198 0.58287,-0.58763 0.1149,-0.1061 0.17931,-0.25702 0.25446,-0.39417 0.25928,-0.47314 0.24001,-0.52633 0.38693,-1.05577 0.18697,-0.91063 0.5041,-1.92575 0.0206,-2.79438 -0.13275,-0.13685 -0.17003,-0.20029 -0.34007,-0.28427 -0.0642,-0.0317 -0.32081,-0.1125 -0.39508,-0.11462 -1.28511,-0.0367 -0.95479,-0.0963 -1.58145,0.0469 -0.55484,0.21843 -1.06868,0.52424 -1.62285,0.745 -0.59953,0.20214 -0.29534,0.0556 0.44473,0.1562 0.0879,0.012 -0.17796,0.0265 -0.26583,0.0141 -0.30682,-0.0431 -0.46664,-0.29148 -0.57419,-0.55311 -0.22679,-0.70259 -0.33209,-1.43528 -0.01,-2.12999 0,0 -1.00786,-0.0407 -1.00786,-0.0407 z"
       id="path186"
       style="opacity:1;fill:#502d16;stroke:#502d16;stroke-width:0.529167;stroke-linecap:round" />
    <path
       d="m 174.49349,262.28808 c -0.27863,-0.41831 -0.60031,-0.79446 -0.97921,-1.12444 -0.41648,-0.352 -0.85486,-0.67385 -1.31033,-0.97291 -0.48899,-0.29163 -0.94427,-0.63344 -1.40197,-0.97068 -0.3764,-0.28732 -0.7493,-0.57963 -1.13777,-0.85062 -0.32211,-0.2177 -0.64475,-0.43438 -0.97975,-0.63178 -0.28765,-0.19609 -0.59991,-0.3454 -0.91485,-0.49093 -0.27091,-0.12828 -0.54546,-0.24858 -0.81541,-0.37889 -0.31452,-0.14041 -0.6212,-0.29742 -0.92917,-0.45144 -0.19822,-0.10038 -0.40117,-0.19098 -0.60484,-0.27963 -0.13012,-0.0519 -0.26435,-0.0923 -0.3961,-0.13959 -0.35229,-0.10684 -0.20978,10e-4 -0.9914,0.13383 0.4593,0.0828 0.91728,0.17208 1.37497,0.26339 0.58261,0.12549 1.17005,0.22629 1.75646,0.33193 0.6408,0.10924 1.28167,0.21664 1.91963,0.34161 0.62941,0.13425 1.26823,0.21381 1.90488,0.30392 0.61888,0.10318 1.23941,0.19613 1.85886,0.29579 0.18921,0.0322 0.37802,0.0677 0.56487,0.11169 0.0594,0.014 0.11699,0.0524 0.17757,0.0448 0.35017,-0.0436 0.69786,-0.1052 1.04679,-0.1578 -0.41212,-0.509 -0.94792,-0.9124 -1.44182,-1.34004 -0.70458,-0.56348 -1.39233,-1.1462 -2.07465,-1.73634 -0.64441,-0.57219 -1.27606,-1.15916 -1.903,-1.75049 -0.5072,-0.52036 -1.0453,-1.00619 -1.61009,-1.46307 -0.24574,-0.17648 -0.45239,-0.40304 -0.69415,-0.58376 -0.30998,-0.22038 -0.36792,-0.0787 -1.02602,0.0943 -0.0776,0.0204 0.15859,0.0247 0.23728,0.0403 0.10589,0.0211 0.21087,0.0466 0.3163,0.0698 0.86221,0.23298 1.71244,0.50957 2.55754,0.798 0.92141,0.31245 1.83262,0.65365 2.7354,1.01617 0.80722,0.36562 1.6182,0.71584 2.4564,1.00417 0.88788,0.287 1.78278,0.55006 2.66439,0.85613 0.3802,0.0885 0.71972,0.31516 1.09636,0.40749 0.32175,0.003 0.1434,0.003 0.53506,-0.003 0,0 0.0667,0.004 0.0667,0.004 v 0 c 0.41707,-0.0927 0.25731,-0.0351 0.49234,-0.13101 -0.0901,-0.0753 -0.22486,-0.10075 -0.33316,-0.13909 -0.26501,-0.0938 -0.52921,-0.19012 -0.79821,-0.27224 -0.90785,-0.28042 -1.81763,-0.55453 -2.72162,-0.8471 -0.8346,-0.29233 -1.64577,-0.63903 -2.45323,-0.99917 -0.90208,-0.37311 -1.82074,-0.70357 -2.74378,-1.02099 -0.83661,-0.28657 -1.67728,-0.56154 -2.52541,-0.81219 -0.24267,-0.0613 -2.26353,-0.52336 -1.66406,0.0357 0.24906,0.19714 0.51713,0.37115 0.76045,0.57625 0.57885,0.44735 1.12528,0.93282 1.6414,1.45166 0.63233,0.58944 1.26893,1.17443 1.91056,1.75373 0.67996,0.59301 1.37863,1.16383 2.07561,1.73662 0.4725,0.4056 0.95502,0.80902 1.36043,1.28373 0.3621,-0.006 0.72433,-0.007 1.08631,-0.0186 0.0306,-0.001 -0.0608,-0.007 -0.0909,-0.0125 -0.24552,-0.0418 -0.488,-0.10166 -0.73508,-0.1349 -0.62357,-0.10069 -1.24979,-0.18472 -1.87175,-0.29566 -0.63783,-0.0926 -1.27935,-0.16392 -1.91045,-0.29817 -0.63791,-0.12516 -1.27725,-0.24142 -1.9194,-0.34301 -0.58501,-0.10679 -1.17128,-0.20748 -1.75318,-0.33045 -0.4445,-0.091 -0.89085,-0.17395 -1.33312,-0.27475 -1.76718,0.20846 -1.412,0.0565 -1.02162,0.14335 0.14734,0.0291 0.29225,0.0697 0.43253,0.12358 0.21691,0.0756 0.42581,0.17065 0.63327,0.26896 0.31358,0.14367 0.62155,0.29893 0.93038,0.45243 0.27548,0.12297 0.54689,0.25514 0.82225,0.3785 0.3183,0.14529 0.63757,0.28846 0.93196,0.47991 0.34837,0.20006 0.70538,0.38709 1.0337,0.61975 0.40533,0.27071 0.81662,0.5321 1.19449,0.84171 0.45787,0.34431 0.92608,0.67515 1.41473,0.97472 0.4694,0.30096 0.93493,0.60895 1.37127,0.95698 0.39329,0.32888 0.77047,0.68282 1.07238,1.09932 0,0 0.65201,-0.0394 0.65201,-0.0394 z"
       id="path212"
       style="opacity:1;fill:#502d16;stroke:#502d16;stroke-width:0.529167;stroke-linecap:round" />
    <path
       d="m 169.78262,245.24556 c 0.71914,0.43133 1.46917,0.80555 2.20786,1.20136 0.69647,0.39956 1.36872,0.84 2.04774,1.26837 0.48549,0.31516 0.96425,0.64008 1.45677,0.94429 0.61221,0.38164 1.22135,0.76819 1.82863,1.15761 0.48651,0.31731 0.96695,0.64381 1.4494,0.96724 0.19658,0.12594 0.37282,0.27785 0.5533,0.42485 0.33033,0.21683 -1.56788,0.67643 1.09055,-0.131 0.0463,-0.014 0.001,-0.0968 0.001,-0.14516 0.006,-0.44717 0.0425,-0.89209 0.10507,-1.3347 0.0727,-0.54849 0.20216,-1.08689 0.34487,-1.62073 0.11857,-0.52213 0.2236,-1.04221 0.39751,-1.54934 0.10091,-0.34549 0.24571,-0.67975 0.33317,-1.02891 0.056,-0.22833 0.12323,-0.45413 0.19256,-0.67881 0.11552,-0.24978 0.22346,-0.50309 0.35686,-0.744 0.10808,-0.19125 0.23646,-0.36918 0.34806,-0.55762 0.1024,-0.13379 -0.24469,-0.0618 -0.2554,-0.061 0,0 -0.68955,-0.0858 -0.68955,-0.0858 v 0 c -0.0776,0.008 -0.30943,-0.0206 -0.34736,0.0856 -0.0816,0.18976 -0.15827,0.38097 -0.267,0.55839 -0.1319,0.2466 -0.2495,0.50001 -0.33844,0.76562 -0.082,0.22494 -0.14545,0.45387 -0.19839,0.68742 -0.0903,0.34171 -0.18862,0.68153 -0.26217,1.02741 -0.12124,0.5157 -0.2009,1.03743 -0.30802,1.5557 -0.12473,0.54131 -0.25302,1.08276 -0.33676,1.6323 -0.0569,0.44694 -0.1155,0.89491 -0.12141,1.34601 -0.002,0.0479 -0.0522,0.13374 -0.005,0.1437 2.56775,0.54556 1.21797,0.19885 0.95695,0.038 -0.22717,-0.13438 -0.45662,-0.26447 -0.67402,-0.41466 -0.49646,-0.32484 -1.00307,-0.63399 -1.49628,-0.9639 -0.60727,-0.38807 -1.21634,-0.77332 -1.82539,-1.15858 -0.49178,-0.31553 -0.98056,-0.63577 -1.47788,-0.94254 -0.70527,-0.434 -1.40786,-0.87338 -2.13856,-1.26401 -0.75638,-0.40204 -1.52749,-0.77607 -2.27566,-1.19262 0,0 -0.65311,0.0695 -0.65311,0.0695 z"
       id="path214"
       style="opacity:1;fill:#502d16;stroke:#502d16;stroke-width:0.529167;stroke-linecap:round" />
    <path
       d="m 175.15475,234.32227 c 0.83803,-0.41305 1.75406,-0.62695 2.65909,-0.83645 1.01398,-0.23764 2.0398,-0.41509 3.06901,-0.57092 0.8062,-0.14246 1.61992,-0.20737 2.43661,-0.2454 0.81917,-0.0263 1.63827,-0.0429 2.4566,-0.0899 0.5857,-0.0402 1.16484,-0.13633 1.73326,-0.28112 0.0282,-0.0145 0.0694,-0.0156 0.0844,-0.0435 0.009,-0.017 -0.0177,-0.0409 -0.0366,-0.0451 -0.14859,-0.0326 -0.30143,-0.0415 -0.45214,-0.0623 0,0 -0.0662,-0.009 -0.0662,-0.009 v 0 c -0.3001,-0.0355 -0.57052,-0.0897 -0.86537,-0.0175 -0.5403,0.14107 -1.09204,0.22665 -1.64905,0.26832 -0.79693,0.058 -1.5959,0.0636 -2.39405,0.0974 -0.81238,0.0408 -1.62128,0.11103 -2.42205,0.26035 -1.00943,0.16124 -2.01418,0.34916 -3.00828,0.58896 -0.89599,0.22555 -1.80568,0.45472 -2.63443,0.87294 0,0 1.08922,0.11298 1.08922,0.11298 z"
       id="path216"
       style="opacity:1;fill:#502d16;stroke:#502d16;stroke-width:0.529167;stroke-linecap:round" />
    <path
       d="m 178.13374,227.96931 c 0.36818,0.54124 0.68478,1.11375 1.01139,1.68029 0.32839,0.50655 0.61658,1.0333 0.88092,1.57548 0.29778,0.57417 0.48674,1.19444 0.68123,1.80876 0.20132,0.63689 0.43573,1.26104 0.62685,1.90125 0.17678,0.56443 0.32146,1.1413 0.54873,1.68795 0.22136,0.52494 0.48908,1.02841 0.71913,1.54938 0.13301,0.19342 0.26607,0.60185 0.44034,0.75653 0.13328,0.1183 0.27761,0.12805 0.44515,0.16978 0.10801,-0.002 0.21602,-0.004 0.32403,-0.006 0,0 0.0661,-0.009 0.0661,-0.009 v 0 c 0.0717,-0.008 0.14347,-0.0157 0.21521,-0.0236 0.0492,-0.0299 0.11022,-0.0459 0.14758,-0.0897 0.0251,-0.0294 0.0352,-0.0758 0.0254,-0.11319 -0.0142,-0.0544 -0.0609,-0.0945 -0.0919,-0.14133 -0.13267,-0.20062 -0.26826,-0.39933 -0.39745,-0.60225 -0.32474,-0.48221 -0.60252,-0.99644 -0.83245,-1.53053 -0.21668,-0.55089 -0.41481,-1.10791 -0.57398,-1.67857 -0.2087,-0.63676 -0.44061,-1.2655 -0.65038,-1.90191 -0.20849,-0.61416 -0.38788,-1.2424 -0.6784,-1.82446 -0.28848,-0.54488 -0.63114,-1.05856 -0.96059,-1.57913 -0.36374,-0.56095 -0.7229,-1.12524 -1.09761,-1.67884 0,0 -0.84941,0.05 -0.84941,0.05 z"
       id="path218"
       style="opacity:1;fill:#502d16;stroke:#502d16;stroke-width:0.529167;stroke-linecap:round" />
    <path
       d="m 182.55287,218.8063 c 0.24273,0.72783 0.56047,1.43289 0.90403,2.11905 0.41058,0.79977 0.78637,1.61611 1.21141,2.40841 0.0645,0.11835 0.13349,0.23433 0.19338,0.35507 0.058,0.11684 0.10214,0.24017 0.15989,0.35712 0.21298,0.43131 0.46887,0.84392 0.70585,1.26222 0.38303,0.69069 0.85991,1.32535 1.35309,1.94044 0.37167,0.42054 0.68845,0.8934 1.0957,1.28138 0.12415,0.0311 0.43752,0.12583 0.58304,0.10635 0.0373,-0.005 0.0568,-0.0495 0.0852,-0.0742 0,0 -0.0666,0.005 -0.0666,0.005 v 0 c 0.25244,0.0607 0.3253,0.0675 0.51997,-0.12104 -0.35721,-0.44993 -0.77515,-0.84626 -1.15973,-1.27203 -0.53358,-0.59977 -1.04904,-1.22471 -1.45979,-1.91643 -0.39585,-0.65727 -0.78811,-1.31601 -1.19531,-1.96604 -0.46417,-0.78069 -0.83215,-1.60994 -1.27352,-2.4033 -0.38667,-0.68513 -0.76479,-1.37344 -1.063,-2.10235 0,0 -0.59363,0.0202 -0.59363,0.0202 z"
       id="path220"
       style="opacity:1;fill:#502d16;stroke:#502d16;stroke-width:0.529167;stroke-linecap:round" />
    <path
       d="m 180.12704,224.5026 c 0.93047,-0.13779 1.84614,-0.36156 2.75239,-0.61045 0.80917,-0.2429 1.63624,-0.40108 2.47198,-0.5157 0.72089,-0.0889 1.43685,-0.21231 2.15103,-0.3436 0.7888,-0.1547 1.57287,-0.33008 2.36395,-0.47297 0.54571,-0.0791 1.08006,-0.21745 1.6212,-0.32017 0.19227,-0.0537 0.47955,-0.039 0.0263,-0.15167 0,0 -0.35859,-0.0487 -0.35859,-0.0487 v 0 c -0.29294,-0.0195 -0.57969,-0.0461 -0.86603,0.0355 -0.51313,0.11491 -1.023,0.24555 -1.54274,0.32915 -0.77253,0.15417 -1.53814,0.34227 -2.31423,0.47908 -0.69901,0.12619 -1.39943,0.24458 -2.10238,0.34692 -0.81031,0.1287 -1.61229,0.29607 -2.39719,0.53859 -0.8851,0.25246 -1.77283,0.5143 -2.69291,0.60368 0,0 0.88721,0.13034 0.88721,0.13034 z"
       id="path222"
       style="opacity:1;fill:#502d16;stroke:#502d16;stroke-width:0.529167;stroke-linecap:round" />
    <path
       d="m 186.5536,210.95283 c 0.44448,0.63198 0.96904,1.20137 1.43796,1.81479 0.50207,0.69121 0.97228,1.40241 1.41389,2.13338 0.40686,0.64682 0.7099,1.34907 1.04446,2.03371 0.27094,0.54076 0.55292,1.07906 0.91369,1.56575 0.29859,0.39099 0.62444,0.7637 1.00366,1.0782 0.35949,0.25654 0.82413,0.30589 1.24663,0.40057 0,0 0.0665,-0.007 0.0665,-0.007 v 0 c 0.088,-0.21953 0.25171,-0.31137 0.0129,-0.50665 -0.36776,-0.34638 -0.73431,-0.69404 -1.09578,-1.04691 -0.38496,-0.47505 -0.7311,-0.98273 -0.99132,-1.5378 -0.35053,-0.68903 -0.71882,-1.37133 -1.10356,-2.0416 -0.47496,-0.73355 -0.97114,-1.45533 -1.51606,-2.13902 -0.5056,-0.60945 -1.02453,-1.20744 -1.54472,-1.80444 0,0 -0.88823,0.0567 -0.88823,0.0567 z"
       id="path224"
       style="opacity:1;fill:#502d16;stroke:#502d16;stroke-width:0.529167;stroke-linecap:round" />
    <path
       d="m 183.13532,215.18379 c 0.91598,0.15484 1.84566,0.1782 2.77232,0.19049 1.36229,0.0306 2.72394,-0.0477 4.07898,-0.18163 0.82155,-0.10221 1.64175,-0.21933 2.45885,-0.3527 0.93071,-0.18058 1.86882,-0.31605 2.80798,-0.44349 0.41027,-0.0534 0.82166,-0.0971 1.23375,-0.13354 0.15004,-0.0133 0.30592,-8e-4 0.44948,-0.0464 0.0104,-0.003 0.004,-0.0215 0.006,-0.0323 -0.13798,-0.0353 -0.27597,-0.0705 -0.41395,-0.10581 0,0 -0.0667,-0.004 -0.0667,-0.004 v 0 c -0.15363,-0.0108 -0.30725,-0.0216 -0.46088,-0.0325 -0.66741,-0.0234 -1.32783,0.0825 -1.98726,0.17652 -0.91092,0.14599 -1.82332,0.28337 -2.72949,0.45743 -0.78553,0.14022 -1.57589,0.25407 -2.36697,0.35805 -0.46446,0.0466 -0.92918,0.088 -1.39478,0.12172 -0.172,0.0125 -0.34402,0.0249 -0.51621,0.0344 -0.18203,0.01 -0.36883,-0.0173 -0.54639,0.024 -0.12906,0.03 0.26493,0.007 0.39739,0.0106 -0.94049,-0.007 -1.88603,-0.0221 -2.81703,-0.16894 0,0 -0.90463,0.12782 -0.90463,0.12782 z"
       id="path226"
       style="opacity:1;fill:#502d16;stroke:#502d16;stroke-width:0.529167;stroke-linecap:round" />
    <path
       d="m 187.62886,205.85594 c 0.85811,0.0271 1.70729,0.14643 2.55422,0.27861 0.98123,0.16602 1.96265,0.33087 2.94359,0.49866 0.96342,0.13951 1.91399,0.34525 2.8599,0.57236 0.79003,0.19737 1.58105,0.39068 2.37075,0.58932 0.88125,0.23789 0.2928,0.17066 1.85192,-0.0517 -0.18838,-0.39223 -0.52691,-0.73877 -0.80756,-1.07288 -0.36125,-0.41571 -0.76084,-0.79554 -1.1401,-1.19445 -0.36862,-0.44575 -0.77301,-0.85091 -1.21984,-1.21736 -0.5214,-0.40794 -1.07823,-0.76726 -1.63359,-1.12653 -0.57861,-0.3411 -1.15848,-0.67843 -1.711,-1.06095 -0.43948,-0.27889 -0.84748,-0.59693 -1.22986,-0.94907 -0.20482,-0.17553 -0.37682,-0.38396 -0.56911,-0.57176 -0.37583,-0.0922 -0.50122,0.007 -0.98283,0.10558 0,0 0.0668,0.002 0.0668,0.002 v 0 c -0.40752,-0.0272 -0.55492,-0.15146 -0.8115,0.0298 0.19862,0.19771 0.41581,0.37697 0.6142,0.57507 0.39238,0.35208 0.79977,0.68856 1.2456,0.97172 0.56562,0.37471 1.14708,0.72289 1.73372,1.06376 0.57459,0.35666 1.14735,0.71694 1.70208,1.10408 0.46817,0.34737 0.88926,0.74495 1.26739,1.18937 0.38097,0.40976 0.79796,0.7842 1.18396,1.18929 0.31328,0.31463 0.63863,0.62691 0.89045,0.99447 2.24527,-0.0657 1.53678,0.0436 0.79361,-0.14746 -0.80809,-0.18401 -1.61512,-0.37291 -2.41694,-0.58288 -0.95575,-0.23175 -1.91658,-0.44063 -2.8915,-0.57615 -0.99505,-0.1698 -1.99033,-0.33797 -2.98765,-0.49404 -0.84977,-0.13335 -1.70204,-0.24627 -2.56207,-0.28695 0,0 -1.11463,0.16829 -1.11463,0.16829 z"
       id="path228"
       style="opacity:1;fill:#502d16;stroke:#502d16;stroke-width:0.529167;stroke-linecap:round" />
    <path
       d="m 193.86005,195.17711 c 0.63695,0.38682 1.26906,0.78041 1.91967,1.14408 0.60904,0.33628 1.23925,0.63083 1.87043,0.92252 0.46907,0.24113 0.94768,0.46029 1.43358,0.66495 0.45155,0.16972 0.88549,0.37993 1.31942,0.58938 0.36073,0.18675 0.72489,0.36534 1.10216,0.51608 0.23271,0.0873 0.46582,0.17501 0.70159,0.25386 0.15768,0.0371 0.32023,0.0104 0.48019,0.006 0.36084,-0.002 0.17337,-0.0179 0.5614,0.0588 0,0 0.0668,-0.002 0.0668,-0.002 v 0 c 0.29159,-0.1464 0.15518,-0.0906 0.40456,-0.17819 0.036,-0.0136 0.27273,-0.0459 0.17515,-0.0982 -0.25286,-0.0778 -0.50686,-0.15198 -0.75721,-0.23786 -0.39864,-0.14533 -0.79773,-0.28664 -1.16969,-0.49492 -0.45017,-0.2136 -0.9076,-0.41548 -1.37314,-0.59311 -0.50579,-0.19438 -1.00647,-0.39566 -1.4851,-0.65174 -0.65796,-0.29947 -1.32509,-0.57982 -1.97274,-0.90112 -0.67305,-0.36011 -1.33971,-0.73379 -1.99457,-1.12588 0,0 -1.28248,0.12765 -1.28248,0.12765 z"
       id="path230"
       style="opacity:1;fill:#502d16;stroke:#502d16;stroke-width:0.529167;stroke-linecap:round" />
    <path
       d="m 204.28805,202.06096 c 0.0403,-0.54705 0.16244,-1.07585 0.30663,-1.60267 0.094,-0.39572 0.20185,-0.78714 0.33107,-1.17277 0.11436,-0.35538 0.27418,-0.6931 0.41326,-1.03901 0.11748,-0.25981 0.22484,-0.52385 0.32989,-0.78887 0.0981,-0.36206 -0.16992,-0.30861 -0.46874,-0.34462 0,0 -0.18189,-0.007 -0.18189,-0.007 v 0 c -0.32583,0.0104 -0.58085,-0.02 -0.73663,0.2983 -0.10908,0.26146 -0.20703,0.52643 -0.30826,0.79091 -0.13537,0.34625 -0.25673,0.69719 -0.37488,1.04967 -0.11736,0.38834 -0.17822,0.78896 -0.25392,1.18704 -0.0856,0.53607 -0.13984,1.07659 -0.21254,1.61439 0,0 1.15601,0.0149 1.15601,0.0149 z"
       id="path232"
       style="opacity:1;fill:#502d16;stroke:#502d16;stroke-width:0.529167;stroke-linecap:round" />
    <path
       d="m 192.80245,196.49037 c 0.31827,-0.36147 0.58846,-0.76151 0.86597,-1.15424 0.22482,-0.27285 0.40065,-0.58023 0.5597,-0.89472 0.16892,-0.30524 0.31885,-0.61954 0.46652,-0.93538 0.10021,-0.23508 0.21976,-0.46112 0.32419,-0.69424 0.046,-0.12163 0.028,-0.12493 -0.0926,-0.17644 0,0 -1.06428,-0.0467 -1.06428,-0.0467 v 0 c -0.13284,0.0341 -0.18897,0.0387 -0.2457,0.16386 -0.10391,0.23057 -0.19979,0.46472 -0.30768,0.69348 -0.14323,0.3136 -0.2968,0.62235 -0.45214,0.93011 -0.15677,0.29875 -0.33115,0.58784 -0.48335,0.88782 -0.21946,0.40806 -0.49218,0.78018 -0.78649,1.13767 0,0 1.21584,0.0888 1.21584,0.0888 z"
       id="path234"
       style="opacity:1;fill:#502d16;stroke:#502d16;stroke-width:0.529167;stroke-linecap:round" />
    <path
       d="m 185.40837,261.35217 c -1.29058,1.79398 -0.76965,4.11869 -0.87785,6.17241 0.37765,2.93003 2.18421,5.58079 4.47849,7.36319 2.03444,1.11575 4.43206,1.09416 6.67716,1.35034 2.85177,0.0412 5.58983,-1.6465 6.87253,-4.18823 2.41809,-4.04401 3.39253,-9.2505 1.59019,-13.71586 -0.73287,-1.86463 -2.32245,-3.32464 -4.2716,-3.82371 -2.37959,-0.92271 -5.21794,-1.66865 -7.58316,-0.29174 -2.07531,0.88158 -4.37864,1.89451 -5.36586,4.07631 -0.53186,1.00169 -1.7608,1.77694 -1.5199,3.05729 z"
       style="fill:#d40000;stroke:#d40000;stroke-width:0.264583px;stroke-linecap:butt;stroke-linejoin:miter;stroke-opacity:1"
       id="path242" />
    <path
       d="m 192.01412,259.11168 c 1.38953,-1.43863 3.45144,-1.99251 5.40114,-2.01112 1.4227,0.42645 3.0954,1.20075 3.26398,2.87949 0.58905,3.75344 -0.53839,7.56299 -2.05468,10.96764 -1.50752,2.70939 -5.59905,3.79306 -8.01926,1.65216 -1.6312,-1.24484 -2.19316,-3.3381 -2.25628,-5.30058 -0.21086,-1.82455 -0.0772,-3.75886 1.05628,-5.28535 0.74922,-1.07246 1.25016,-2.46092 2.60882,-2.90224 z"
       style="fill:#aa0000;stroke:#aa0000;stroke-width:0.264583px;stroke-linecap:butt;stroke-linejoin:miter;stroke-opacity:1"
       id="path265" />
    <path
       d="m 191.98948,263.39303 c -0.24643,1.00298 -0.74028,1.9387 -0.82634,2.98073 -0.15099,0.77833 -0.17714,1.57791 -0.27271,2.3574 0.30005,0.6461 1.29242,0.19418 1.8799,0.226 1.71494,-0.3048 3.44457,-0.61695 5.08569,-1.21554 0.54517,-0.10341 0.84272,-0.62844 0.89204,-1.14349 0.24198,-1.60631 -0.80406,-3.09475 -2.02352,-4.02918 -0.73774,-0.58456 -1.63894,-0.90261 -2.5528,-1.07848 -0.48388,-0.15787 -1.1852,-0.51993 -1.55729,0.0257 -0.36937,0.56296 -0.36819,1.26854 -0.62497,1.87682 z"
       style="fill:#800000;stroke:#800000;stroke-width:0.264583px;stroke-linecap:butt;stroke-linejoin:miter;stroke-opacity:1"
       id="path280" />
    <path
       d="m 191.6199,264.64738 c 0.85879,0.11427 1.79747,-0.0939 2.41382,-0.73435 0.48492,-0.4466 0.80111,-1.0349 1.12677,-1.59587 0.13857,-0.0746 0.18075,-0.49454 0.0572,-0.26017 0.13635,0.34437 -0.11304,0.67387 -0.0896,1.01424 0.0853,0.52422 0.56712,0.84145 0.92623,1.18156 0.54773,0.47904 1.14851,0.90376 1.81004,1.20723 0.22568,0.20758 0.78867,0.20934 0.89944,0.26327 -0.45696,0.17203 -0.90737,0.35908 -1.35395,0.55745 -0.89197,0.366 -1.79227,0.79829 -2.43919,1.53669 -0.26256,0.28351 -0.49188,0.60903 -0.60773,0.9812 -0.11894,-0.17739 1.9e-4,-0.52578 -0.12301,-0.76432 -0.0785,-0.63036 -0.0748,-1.37033 -0.60485,-1.81665 -0.39055,-0.34799 -0.86921,-0.58394 -1.23572,-0.96145 -0.25431,-0.20995 -0.55393,-0.3646 -0.77944,-0.60883 z"
       style="fill:#aa0000;stroke:#aa0000;stroke-width:0.264583px;stroke-linecap:butt;stroke-linejoin:miter;stroke-opacity:1;fill-opacity:1"
       id="path294" />
  </g>
</svg>
