<?xml version="1.0" encoding="UTF-8" standalone="no"?>
<svg
   xmlns:dc="http://purl.org/dc/elements/1.1/"
   xmlns:cc="http://creativecommons.org/ns#"
   xmlns:rdf="http://www.w3.org/1999/02/22-rdf-syntax-ns#"
   xmlns:svg="http://www.w3.org/2000/svg"
   xmlns="http://www.w3.org/2000/svg"
   xmlns:sodipodi="http://sodipodi.sourceforge.net/DTD/sodipodi-0.dtd"
   xmlns:inkscape="http://www.inkscape.org/namespaces/inkscape"
   width="1200"
   height="600"
   viewBox="0 0 317.5 158.75"
   version="1.1"
   id="svg8"
   inkscape:version="1.0 (4035a4fb49, 2020-05-01)"
   sodipodi:docname="bob-ross.svg">
  <defs
     id="defs2" />
  <sodipodi:namedview
     id="base"
     pagecolor="#ffffff"
     bordercolor="#666666"
     borderopacity="1.0"
     inkscape:pageopacity="0.0"
     inkscape:pageshadow="2"
     inkscape:zoom="1.4"
     inkscape:cx="607.52705"
     inkscape:cy="288.22239"
     inkscape:document-units="mm"
     inkscape:current-layer="layer1"
     showgrid="false"
     units="px"
     inkscape:window-width="1920"
     inkscape:window-height="1061"
     inkscape:window-x="0"
     inkscape:window-y="19"
     inkscape:window-maximized="0"
     inkscape:document-rotation="0"
     inkscape:snap-global="false" />
  <metadata
     id="metadata5">
    <rdf:RDF>
      <cc:Work
         rdf:about="">
        <dc:format>image/svg+xml</dc:format>
        <dc:type
           rdf:resource="http://purl.org/dc/dcmitype/StillImage" />
        <dc:title />
      </cc:Work>
    </rdf:RDF>
  </metadata>
  <g
     inkscape:label="Layer 1"
     inkscape:groupmode="layer"
     id="layer1"
     transform="translate(0,-138.25001)">
    <path
       id="path297"
       style="fill:#e5a888;fill-opacity:1;stroke:#e5a888;stroke-width:0.264583px;stroke-linecap:butt;stroke-linejoin:miter;stroke-opacity:1"
       d="m 208.85583,207.5375 c -0.87282,3.06826 0.55204,6.10394 0.77262,9.14344 0.0733,1.90689 -0.52185,3.80622 -0.0622,5.70116 0.24269,1.56984 0.49635,3.69092 -1.13708,4.61556 -1.24533,0.86065 -2.01011,2.2488 -3.4501,2.88474 -1.60967,0.92681 -2.65264,2.4693 -3.59367,4.01834 -1.02146,1.90594 -2.98121,0.43148 -2.51617,-1.28727 -0.0392,-1.20438 -1.70217,-2.14293 -0.10669,-3.1038 1.0468,-1.04593 2.06328,-2.37072 1.92108,-3.94545 0.21798,-2.41369 0.76308,-5.02855 2.59119,-6.76163 1.03482,-1.2719 1.07522,-3.06855 2.12557,-4.35102 0.57052,-1.46227 0.32847,-3.18956 1.36113,-4.48192 0.58336,-0.90273 1.35355,-1.66193 2.09429,-2.43215 z" />
    <path
       id="path190"
       style="fill:#e5a888;fill-opacity:1;stroke:#e5a888;stroke-width:0.264583px;stroke-linecap:butt;stroke-linejoin:miter;stroke-opacity:1"
       d="m 166.65683,230.80762 c 0.7479,2.95627 0.81453,6.0465 2.13392,8.8309 0.76423,2.42525 1.03957,5.02519 2.57106,7.14473 1.20875,2.86491 1.06773,6.12295 2.10027,9.06966 1.41771,2.71894 -0.72195,5.17336 -1.81908,7.5168 -1.77351,2.78281 -3.19916,5.91648 -3.41424,9.26709 -0.49369,2.94056 -1.79053,5.72914 -1.91487,8.73417 3.7166,-0.29713 7.32355,-1.92215 10.39634,-4.06103 3.43619,-1.85225 5.63961,-5.17709 8.64827,-7.56428 2.75906,-2.932 4.90541,-6.29534 7.38227,-9.45826 3.53209,-4.01919 6.80099,-8.39692 8.37429,-13.58191 1.36553,-3.84543 2.318,-8.17535 0.65487,-12.09253 -0.11935,-3.28474 -3.51441,-4.39191 -6.29174,-3.60268 -3.48293,0.88077 -7.10875,1.19197 -10.67417,1.49472 -3.92361,-0.25954 -7.84037,-0.2808 -11.75162,0.13173 -2.09319,-0.13486 -5.03237,-0.0402 -6.39557,-1.82911 z" />
    <path
       id="path198"
       style="fill:#c1ccd2;fill-opacity:1;stroke:#c1ccd2;stroke-width:0.264583px;stroke-linecap:butt;stroke-linejoin:miter;stroke-opacity:1"
       d="m 211.39467,231.11819 c 5.41886,0.46693 9.30383,4.41771 12.62613,8.26368 5.35275,4.41358 8.12049,10.92367 11.40928,16.84848 2.16471,7.80774 3.77232,15.72452 4.95568,23.72858 -2.85197,5.00204 -11.2809,-0.28042 -16.49176,1.04834 -5.87243,0.63922 -12.2219,1.32905 -16.94704,5.27278 -4.5606,2.11816 -9.05179,5.15587 -14.13559,5.55194 -6.76447,-0.39282 -13.54689,-0.1423 -20.16722,1.4246 -5.07581,7.6e-4 -10.07984,1.65614 -15.17084,0.97947 1.66058,-5.07451 5.12344,-10.19285 9.06299,-14.13185 3.96759,-2.6024 5.93752,-6.87366 9.40379,-9.98242 4.33969,-2.38827 4.51927,-7.62169 7.82966,-10.81094 6.71507,-6.67106 13.46627,-13.29454 20.31592,-19.82639 3.72101,-1.90852 4.38234,-5.93043 7.309,-8.36627 z" />
    <path
       id="path212"
       style="fill:#dde4ea;fill-opacity:1;stroke:#dde4ea;stroke-width:0.264583px;stroke-linecap:butt;stroke-linejoin:miter;stroke-opacity:1"
       d="m 170.74857,236.73052 c -2.251,2.38335 -5.21589,4.05555 -7.3125,6.53563 -1.00663,3.13988 -3.16854,6.44264 -1.59996,9.78232 2.08001,4.07782 1.93391,8.69846 2.39699,13.13589 0.26948,5.58458 -1.10699,11.08419 -1.98224,16.56677 -0.50473,2.42117 -1.53558,5.92046 -1.25395,7.65764 1.3165,-4.51533 7.81651,-4.03408 9.4036,-8.29781 0.23144,-4.71114 -1.69634,-9.64307 0.41261,-14.20179 0.46208,-3.36373 3.80329,-5.29687 3.82853,-8.64149 -0.58427,-5.02418 -2.04239,-9.8808 -3.57214,-14.68433 -0.60526,-2.57988 -0.43073,-5.23234 -0.32094,-7.85283 z" />
    <path
       id="path465"
       style="fill:#dde4ea;fill-opacity:1;stroke:#dde4ea;stroke-width:0.264583px;stroke-linecap:butt;stroke-linejoin:miter;stroke-opacity:1"
       d="m 204.43439,228.51739 c 1.91375,-3.11854 5.62183,-5.18212 6.67372,-8.66168 1.30449,4.47673 3.84175,8.59153 4.7985,13.23137 -0.2672,3.84612 -4.52565,5.63743 -5.65809,9.19616 -3.86142,5.07784 -8.61031,9.67958 -10.48854,15.96934 -1.49344,3.9814 -4.57447,7.31713 -5.15823,11.68566 0.60462,5.14371 -5.03805,-1.87658 -6.67597,-3.07801 -2.37179,-1.65045 -5.88178,-9.04296 -6.185,-2.41873 -2.89742,4.8383 -8.46243,7.5568 -10.84006,12.80779 -2.96308,3.09748 -5.53835,6.54416 -8.55304,9.5644 -1.63496,1.48328 -3.68414,4.90594 -1.86532,0.81208 2.60105,-4.19384 6.26668,-8.10584 6.56664,-13.31772 0.27828,-5.30283 9.45622,-4.7868 7.49599,-11.11218 1.43737,-6.2117 8.26586,-8.26606 11.16243,-13.51068 4.46259,-4.93498 8.79795,-9.98687 13.8368,-14.3383 1.78822,-2.07373 3.89594,-4.40126 4.89017,-6.8295 z" />
    <path
       id="path221"
       style="fill:#83989a;fill-opacity:1;stroke:#83989a;stroke-width:0.264583px;stroke-linecap:butt;stroke-linejoin:miter;stroke-opacity:1"
       d="m 110.08751,261.99713 c -1.97746,0.63202 -3.18354,2.59866 -3.78729,4.47223 0.16933,1.57144 -1.21193,2.21168 -2.5828,1.95367 -2.5028,0.0404 -5.037339,-0.17459 -7.399679,-1.05209 -1.21843,-0.49694 -3.15748,0.22912 -3.91205,-1.06115 0.25438,-1.32712 1.65996,-2.14016 1.73219,-3.53987 0.38846,-3.06191 -0.71366,-6.11103 -0.21668,-9.17775 0.27764,-1.62535 -0.16581,-3.46813 0.90151,-4.88277 1.15674,-0.97196 2.62662,-0.22626 3.75633,0.34904 1.694289,0.42753 3.438079,0.0999 5.153279,0.40502 1.4391,0.25741 3.69079,-0.27175 4.53369,1.00524 0.68222,1.50521 0.19419,3.2504 0.76711,4.80524 0.58652,1.31703 1.8219,2.56714 1.36976,4.12342 -0.10974,0.866 -0.23388,1.73045 -0.31537,2.59977 z" />
    <path
       id="path229"
       style="fill:#4f6c68;fill-opacity:1;stroke:#4f6c68;stroke-width:0.264583px;stroke-linecap:butt;stroke-linejoin:miter;stroke-opacity:1"
       d="m 97.245411,248.7316 c 0.69104,-0.45266 1.96223,-0.0885 1.15141,0.79971 -0.76552,1.01081 -0.43344,2.32255 -0.37861,3.48473 0.24668,2.06166 -0.12306,4.12332 -0.45164,6.14954 -0.058,2.25115 -0.34043,4.49828 -0.80721,6.69996 -0.0651,0.58364 -0.62582,2.07051 -1.16985,0.96485 -0.0771,-1.1059 -0.64582,-2.21675 -0.32451,-3.32841 0.29167,-1.09571 -0.10467,-2.26269 0.31438,-3.34281 0.34445,-1.44332 0.20905,-2.94009 -0.0989,-4.37457 -0.1616,-1.69413 0.30769,-3.36197 0.37099,-5.04906 0.0347,-0.93381 0.81394,-1.40621 1.39396,-2.00394 z" />
    <path
       id="path237"
       style="fill:#4f6c68;fill-opacity:1;stroke:#4f6c68;stroke-width:0.264583px;stroke-linecap:butt;stroke-linejoin:miter;stroke-opacity:1"
       d="m 104.6894,249.79639 c -1.44061,0.67549 -1.78594,2.40794 -1.71539,3.85187 -0.007,2.77457 -0.69642,5.49942 -0.59733,8.27947 0.10525,1.63864 -0.62415,3.18769 -0.597,4.82014 -0.49566,0.86436 0.77578,2.03587 1.58578,1.5698 0.73821,-0.92173 0.45523,-2.22442 0.46835,-3.31804 -0.0168,-1.20956 0.24573,-2.40111 0.2446,-3.61401 0.0813,-1.80451 0.74209,-3.53517 0.69755,-5.35418 0.0742,-1.79154 -0.39227,-3.82844 0.76735,-5.37313 0.33091,-0.48253 1.9084,-1.13331 0.74263,-1.5393 -0.5998,0.032 -1.09104,0.39644 -1.59654,0.67738 z" />
    <path
       id="path245"
       style="fill:#998d75;fill-opacity:1;stroke:#998d75;stroke-width:0.264583px;stroke-linecap:butt;stroke-linejoin:miter;stroke-opacity:1"
       d="m 86.572431,245.5816 c 1.49164,1.22248 3.30283,2.16058 5.27922,2.05941 1.0241,0.16654 3.50109,-0.15597 2.75627,1.56946 -0.83831,1.18804 -1.06952,2.69449 -0.51493,4.05743 0.25095,1.35042 0.11393,2.74467 0.28964,4.11347 0.23268,2.21072 -0.27404,4.38858 -0.59759,6.56009 -0.41172,1.1433 -0.84522,3.36228 -2.52432,2.87918 -1.77048,-0.39814 -3.59972,-0.65963 -5.39141,-1.00566 -2.68043,-0.29155 -5.472896,0.74079 -8.066137,-0.31144 -2.124692,0.26889 1.448936,-0.82341 -0.0879,-1.5381 -0.907517,-0.34236 0.611803,-1.15424 -0.06592,-1.59094 0.508338,-0.56087 1.44774,-1.31495 0.200696,-1.67929 -0.768352,-1.03136 1.234978,-1.17924 0.170187,-2.24208 0.389547,-0.68189 0.768661,-1.14109 -0.130263,-1.72616 0.660057,-0.98205 -0.524329,-1.76042 -0.181966,-2.69954 -0.795519,-1.08244 0.32303,-1.07953 1.080214,-1.10517 -0.07039,-1.16861 -0.595624,-2.52276 -0.295254,-3.63648 1.131318,0.062 -0.722735,-1.71239 0.510016,-1.62614 -1.666072,-1.06969 0.635021,-1.96228 1.246501,-2.84568 1.54428,0.25393 3.04317,1.26669 4.68635,0.93503 0.54553,-0.0556 1.09059,-0.1178 1.6366,-0.16739 z" />
    <path
       id="path259"
       style="fill:#f1bc9d;fill-opacity:1;stroke:#f1bc9d;stroke-width:0.264583px;stroke-linecap:butt;stroke-linejoin:miter;stroke-opacity:1"
       d="m 115.92931,261.19853 c -3.16173,-0.49461 -6.10006,2.33344 -8.51458,4.22061 -2.16717,1.56739 0.32856,2.93953 0.53706,4.1016 -2.90811,1.37381 1.59304,2.02788 -0.10747,3.56138 1.52099,3.4983 4.89736,-1.82802 7.59493,-1.52011 2.39102,0.0899 6.60211,-1.56366 7.36294,1.7599 1.8644,3.54577 3.29744,7.3026 4.24329,11.18659 1.57451,3.7837 6.15795,4.92292 8.55457,8.12105 2.04824,3.2865 6.21439,3.26132 9.56906,2.54898 2.9074,-0.74718 6.10199,-1.99112 7.98091,-4.35074 -0.84806,-3.22507 -5.18308,-3.8977 -7.06988,-6.57361 -2.02224,-2.89961 -4.76389,-5.46669 -5.3236,-9.13133 -1.12523,-4.37431 -1.484,-8.92295 -1.17535,-13.42534 0.0511,-4.89392 -5.79553,-5.07204 -8.93272,-7.09407 -2.60196,-1.1199 -5.40057,-2.75449 -8.29503,-2.3861 -2.54039,1.0577 -5.19616,1.71819 -7.78238,2.59025 -1.70231,0.91506 -7.10832,2.66732 -3.1619,4.43944 2.7979,0.82682 5.70631,-0.47629 8.33906,-1.39408 1.96199,-2.16752 6.1193,-0.9247 5.82813,2.18245 -2.34106,2.39917 -6.58356,1.21814 -9.64704,1.16313 z" />
    <path
       id="path267"
       style="fill:#d58055;fill-opacity:1;stroke:#d58055;stroke-width:0.264583px;stroke-linecap:butt;stroke-linejoin:miter;stroke-opacity:1"
       d="m 109.34804,259.73445 c -0.7484,1.50807 0.17412,3.04085 1.92014,2.53333 2.40893,0.11346 4.93302,-0.16131 7.16394,0.95016 1.82269,-0.20541 3.18689,1.3462 4.95665,1.50117 2.90442,0.42858 6.0044,-0.0303 8.70312,1.37472 2.78732,0.91449 5.70812,1.71759 8.6604,1.643 1.92803,0.20431 3.84069,-2.82673 1.61856,-3.77603 -2.22991,-0.42607 -4.55162,-0.38688 -6.7801,-0.88452 -2.4303,-0.85539 -4.74684,-2.19515 -7.38908,-2.30463 -2.9213,-0.30232 -5.7274,-1.20548 -8.60803,-1.70665 -2.53199,-0.39167 -5.24072,-0.2622 -7.56571,-1.45449 -1.63437,-0.55431 -4.00833,-0.22886 -2.67989,2.12394 z" />
    <path
       id="path281"
       style="fill:#e5a888;fill-opacity:1;stroke:#e5a888;stroke-width:0.264583px;stroke-linecap:butt;stroke-linejoin:miter;stroke-opacity:1"
       d="m 117.06317,257.42739 c 0.16293,-2.08898 3.07649,-2.49817 4.33267,-1.09682 1.47682,1.46149 3.20086,2.59208 4.88984,3.78462 2.43869,1.4198 2.82257,4.25013 4.65166,6.159 1.17206,1.25248 1.86847,3.44166 3.75926,3.13966 1.26379,1.50522 1.41206,3.57893 2.32627,5.2902 0.68776,2.46872 1.21711,4.99592 2.58903,7.20229 1.17446,1.76826 -0.40199,3.33455 -1.7496,4.33917 -1.84825,1.21607 -4.39664,1.34524 -6.44356,0.57634 -1.70299,-1.28144 -3.49809,-2.84182 -4.52328,-4.74845 -0.13122,-2.25801 -1.50469,-4.26691 -1.30678,-6.57089 0.21105,-2.27366 0.23654,-4.60264 -0.99588,-6.60035 -0.0854,-2.24348 -2.23568,-2.95852 -3.89454,-3.8558 -1.91958,-1.20971 -3.73825,-3.06605 -3.8508,-5.45856 -0.21768,-0.6986 -0.46357,-1.62019 0.21571,-2.16041 z" />
    <path
       id="path289"
       style="fill:#6e5439;fill-opacity:1;stroke:#6e5439;stroke-width:0.264583px;stroke-linecap:butt;stroke-linejoin:miter;stroke-opacity:1"
       d="m 206.61278,191.98711 c -1.90258,2.04323 -0.45703,4.95911 0.0348,7.28177 1.17781,2.14381 -0.21906,4.38268 0.29914,6.51318 0.99803,1.80498 0.0481,3.81367 0.53309,5.73424 -0.2126,2.41812 -0.24549,4.94877 1.73165,6.69634 0.72418,1.95377 3.34974,3.56712 4.2362,4.00819 -0.31311,-1.73544 0.87358,-1.39027 1.77815,-1.34536 0.86395,-0.57054 0.8214,-2.40955 2.19471,-0.86086 1.2468,1.53225 0.64761,-2.45478 2.1225,-0.5874 1.85363,0.54337 0.47142,-2.48238 2.3717,-2.68782 -0.1786,-1.73574 3.15151,-0.34019 1.87979,-2.41565 1.15424,-0.95466 1.56684,-1.98015 0.60213,-3.06088 0.75197,-1.13678 1.02389,-2.23782 0.48902,-3.29209 0.37529,-1.11843 2.6606,-3.00215 0.48613,-3.07707 -0.41215,-1.93229 0.67696,-3.78681 1.58965,-5.31187 -2.02182,-0.19937 1.86354,-2.74019 -0.22218,-2.59222 0.6614,-1.48251 1.11805,-2.88262 0.38912,-4.30482 1.13987,-1.67532 0.0767,-2.6362 0.68243,-4.23875 -0.63597,-0.0734 -2.19112,0.43186 -1.087,-0.88064 0.92343,-1.05643 -0.6793,-1.01093 0.12725,-2.35571 -0.55112,-3.00013 -5.31419,-1.91943 -7.08678,-0.35697 -2.02401,1.79026 -4.199,4.08946 -7.16933,3.78782 -2.39279,0.3459 -3.57091,2.9377 -5.98218,3.34657 z" />
    <path
       id="path305"
       style="fill:#6e5439;fill-opacity:1;stroke:#6e5439;stroke-width:0.264583px;stroke-linecap:butt;stroke-linejoin:miter;stroke-opacity:1"
       d="m 144.52209,198.24277 c 1.28856,3.87326 5.68373,4.77627 8.59362,7.04141 1.77409,1.58926 5.47419,0.43245 5.52859,3.65606 0.72449,3.35129 1.38763,6.77416 2.71653,9.95541 1.03,2.36521 3.22789,3.98223 3.98904,6.50368 0.86848,2.61946 3.61227,4.9273 3.25645,7.74531 -0.66473,1.83577 -2.64346,1.53525 -3.29568,0.25405 -1.53605,0.24187 -3.53212,-0.35975 -2.30909,-2.24409 -1.98599,2.46602 -0.24949,-2.93496 -1.89321,-1.3544 -0.56999,-2.18 -3.0998,-1.66233 -3.22738,-3.83646 -1.13812,-0.35589 -1.00282,-2.16178 -2.91142,-1.74889 -1.01417,-1.33563 -4.92717,-0.59651 -3.85134,-3.17956 -1.58421,-1.56198 -4.91216,-1.92535 -3.74327,-4.73117 -0.96454,-0.8536 -3.38657,-1.53817 -3.77702,-3.16201 -1.87445,-0.61904 0.45184,-3.21423 -1.64833,-2.43788 -2.40938,-0.91481 1.32647,-2.66017 -1.41506,-3.32167 -1.88794,-1.42495 -0.51048,-3.92695 -2.14293,-5.74665 -0.36266,-1.3717 -1.20949,-2.97752 -0.89102,-4.05779 -1.95522,-2.07653 1.72821,-4.49942 -1.47387,-5.48872 1.8131,-0.57247 4.9782,1.35666 6.16161,3.08802 0.27858,1.34459 0.43713,3.29599 2.33378,3.06535 z" />
    <path
       id="path319"
       style="fill:#f1bc9d;fill-opacity:1;stroke:#f1bc9d;stroke-width:0.264583px;stroke-linecap:butt;stroke-linejoin:miter;stroke-opacity:1"
       d="m 159.08961,177.36842 c -0.36018,7.81726 -2.36858,15.54022 -1.59274,23.40452 1.05791,4.48758 -3.87117,-2.17064 -5.15963,2.47711 -0.22833,4.50531 2.10981,9.09455 5.55892,12.06971 2.16402,3.35169 3.15121,7.55366 5.0271,11.10928 2.85226,4.19551 6.69864,7.66778 10.68465,10.74976 3.78779,1.70395 8.21527,2.3218 12.35254,1.81749 5.1342,-1.27989 9.09736,-5.11746 12.07177,-9.2959 4.12962,-2.65652 4.8151,-7.45566 6.39616,-11.67711 1.95531,-4.02615 2.54493,-8.53307 6.8126,-10.32926 1.77159,-2.42373 5.10211,-8.51147 0.25643,-9.32197 -5.97988,0.86747 -3.50442,-5.50122 -5.10745,-8.87535 -2.92366,-5.07944 -3.02172,-11.77142 -7.70356,-15.78255 -4.52921,-3.07591 -9.97239,-5.12405 -15.52596,-4.29015 -5.90569,0.0367 -12.0638,-0.26939 -17.44157,2.68993 -3.07802,0.72755 -3.95812,3.97807 -6.62926,5.25449 z" />
    <path
       id="path333"
       style="fill:#bf7065;fill-opacity:1;stroke:#bf7065;stroke-width:0.264583px;stroke-linecap:butt;stroke-linejoin:miter;stroke-opacity:1"
       d="m 170.29631,220.0109 c 1.53129,-1.33603 3.62599,-1.41831 5.54882,-1.46679 1.85965,-0.22802 3.72981,-0.24433 5.59746,-0.14147 2.26323,-0.009 4.54567,-0.0237 6.77141,0.43838 1.66958,-0.16798 3.55613,-0.21534 5.07277,-0.47657 0.21455,-0.81765 1.18591,-0.78195 0.45274,-0.0138 -0.99052,1.30801 -2.11749,2.48901 -3.20957,3.71085 -1.13548,1.54126 -2.77536,2.79763 -4.70566,3.10202 -1.67202,0.76309 -3.45147,1.48978 -5.34233,1.39191 -1.44173,-0.0828 -2.85669,-0.41526 -4.07847,-1.20175 -1.1897,-0.56566 -2.45138,-0.98528 -3.45515,-1.881 -1.42119,-0.86395 -2.85683,-1.93898 -3.48946,-3.5294 0.007,-0.39252 0.64461,0.0337 0.83744,0.0676 z" />
    <path
       id="path341"
       style="fill:#130c0f;fill-opacity:1;stroke:#130c0f;stroke-width:0.264583px;stroke-linecap:butt;stroke-linejoin:miter;stroke-opacity:1"
       d="m 171.39319,220.44347 c 2.39569,-1.13403 5.13448,-1.52452 7.7409,-1.00958 1.6237,0.11496 3.27396,-0.0661 4.86848,0.34732 1.8877,0.34936 3.86846,0.52094 5.7215,-0.0964 0.59826,0.0141 1.29823,-0.12509 1.64144,-0.46772 -0.65972,0.81897 -1.52101,1.6386 -2.47042,2.15442 -1.48463,0.70931 -2.76718,1.8696 -4.43338,2.16429 -1.8097,0.51015 -3.73386,0.76555 -5.58411,0.30358 -1.41395,-0.25984 -2.92973,-0.17742 -4.2107,-0.93594 -0.89008,-0.44286 -1.60701,-1.1417 -2.48288,-1.6016 -0.31701,-0.22983 -0.59284,-0.51947 -0.79083,-0.85834 z" />
    <path
       id="path349"
       style="fill:#ffffff;stroke:#ffffff;stroke-width:0.264583px;stroke-linecap:butt;stroke-linejoin:miter;stroke-opacity:1"
       d="m 173.13093,220.11073 c -0.22735,0.79472 0.47556,1.44611 1.20734,1.5627 1.59404,0.57108 3.254,0.93263 4.89604,1.32843 1.27766,0.19356 2.59124,0.30936 3.87707,0.22178 1.95155,-0.64174 4.01251,-1.00088 5.86902,-1.90364 0.3826,-0.32589 1.53009,-1.62956 0.5309,-1.68456 -1.71388,0.40422 -3.49111,0.17835 -5.23166,0.13188 -0.98992,-0.49282 -2.04866,-0.37295 -3.11162,-0.31676 -2.19134,0.0356 -4.41073,-0.44354 -6.58031,-3.6e-4 -0.5034,0.17995 -0.95345,0.48066 -1.45678,0.66053 z" />
    <path
       id="path357"
       style="fill:#8f6245;fill-opacity:1;stroke:#8f6245;stroke-width:0.264583px;stroke-linecap:butt;stroke-linejoin:miter;stroke-opacity:1"
       d="m 166.37713,218.01442 c 1.79325,-0.75296 3.76972,-1.23431 5.26294,-2.5492 2.00319,-0.89989 4.05229,-2.00443 6.32465,-1.83045 1.55228,0.0808 3.1493,0.31258 4.65557,-0.2092 2.50122,-0.52342 5.08483,-0.10368 7.50668,0.59078 1.3578,0.32946 2.79152,0.37329 4.11461,0.80968 1.18863,0.73152 2.15988,1.85634 2.80541,3.0678 0.43354,0.48901 2.13189,1.47748 0.52555,1.07398 -0.59465,-0.15912 0.30083,0.67301 -0.55552,0.26803 -0.46681,-0.30465 -0.87668,-0.0623 -0.42844,0.39292 -0.7786,0.63814 -1.99998,-1.62227 -2.02904,-0.52064 -1.23204,0.61808 -2.4066,-1.00761 -3.41173,-0.57527 -0.20287,1.15483 -2.1075,-0.55914 -2.09282,0.7467 -0.97792,-0.25568 -2.25199,-1.20481 -3.12009,-0.45778 -0.748,-0.0358 -1.79251,-0.54808 -1.78675,0.29404 -1.25351,0.22442 -2.05105,-1.37332 -2.82742,-1.61728 -0.25893,1.74542 -2.21237,0.94228 -3.38428,1.52312 -0.39353,0.2102 -1.37762,1.20836 -0.89816,0.62601 -0.58843,0.66317 -1.41952,0.30399 -1.44251,-0.26245 -0.70864,0.20402 -1.3764,1.10174 -2.05124,0.53917 -0.57503,0.42294 -1.39422,0.79721 -1.83789,0.32588 -0.90176,0.7734 -2.08029,1.18555 -3.00263,1.5605 0.14607,-0.80822 -1.253,0.29014 -0.41235,0.045 -0.25768,0.43212 -1.63742,0.91111 -1.30872,0.0682 -0.38803,-0.17737 -1.59712,0.77546 -1.15097,-0.24026 -1.69214,-0.43351 0.31972,-1.60655 0.2848,-2.63802 0.10171,-0.33979 0.18407,-0.685 0.26035,-1.03126 z" />
    <path
       id="path365"
       style="fill:#8f6245;fill-opacity:1;stroke:#8f6245;stroke-width:0.264583px;stroke-linecap:butt;stroke-linejoin:miter;stroke-opacity:1"
       d="m 167.00567,221.16442 c -0.43463,2.8715 -3.82028,3.57087 -5.87086,4.97088 -1.48452,0.42489 -3.83214,1.59356 -0.92553,1.3434 2.6858,-0.3605 -1.02807,2.2822 1.78663,2.06641 2.01945,0.20536 -0.89127,2.26529 1.53203,2.32039 1.85628,0.6573 -1.60866,1.51998 0.69896,1.95027 2.63614,-0.0837 -0.44487,2.92236 2.2554,1.95982 1.15041,0.47598 -0.14732,2.53553 1.18205,2.61413 0.726,1.73431 2.38183,3.08564 2.93767,4.77408 2.1923,1.07121 4.16384,3.86436 6.8495,4.1015 2.12921,-0.34346 5.02303,-0.28804 6.60538,-1.72901 2.38106,1.78156 4.70014,0.0464 7.25309,-0.0836 0.40835,-1.70613 3.63466,-1.92102 3.0359,-3.86828 1.05212,-0.47293 0.56064,-2.72466 2.53602,-2.16825 0.0644,-1.20162 -0.24731,-2.24928 1.57583,-1.67483 -0.57859,-2.27267 3.36142,-0.30608 1.88011,-2.89515 2.35149,0.0678 0.09,-2.3368 2.35794,-2.10863 1.65182,-0.47121 -0.61682,-2.54587 1.66373,-2.08806 3.69144,-0.35877 -1.62314,-3.08976 -2.56504,-4.04058 -1.68903,-1.7882 -4.2715,-2.37539 -4.55481,-5.27037 0.41339,-1.96994 -3.0258,-4.70262 -2.93008,-1.59467 -0.69864,3.0286 -1.6856,6.55829 -5.53843,6.32537 -2.56947,-0.20216 -4.53219,1.6612 -6.92291,2.01567 -2.36039,-0.0172 -4.81513,-1.72224 -7.05948,-0.28502 -3.60789,0.91087 -3.69479,-3.51151 -5.45936,-5.4481 0.24421,-1.15096 -1.56498,-2.41111 -2.32374,-1.18733 z" />
    <path
       id="path373"
       style="fill:#e5a888;fill-opacity:1;stroke:#e5a888;stroke-width:0.264583px;stroke-linecap:butt;stroke-linejoin:miter;stroke-opacity:1"
       d="m 172.71639,207.67994 c -0.89739,0.56961 -0.8556,1.80295 -0.91479,2.7397 0.17195,1.20137 1.48333,1.4961 2.46787,1.731 1.09448,0.378 2.20255,0.67173 3.31982,0.96182 1.06283,0.42321 1.96649,1.39761 3.21187,1.21806 1.39715,-0.14072 2.6273,-0.87687 3.89575,-1.37986 1.65977,-0.35852 3.72915,-0.57824 4.68565,-2.18029 0.59415,-1.11515 0.22478,-2.43888 -0.67934,-3.25875 -1.17774,-0.88645 -1.86226,-2.02376 -2.41125,-3.37792 -0.5596,-1.52372 -1.00256,-3.09518 -1.65115,-4.5852 -0.58574,-1.17768 -2.1091,-1.75647 -3.35988,-1.47786 -0.92982,0.544 -2.23781,0.14552 -2.94934,1.10173 -1.10142,0.67525 -1.38474,1.86968 -1.56924,3.03052 -0.62689,1.10041 -0.90995,2.34959 -1.58194,3.43103 -0.55193,0.87674 -1.34046,1.83888 -2.40985,2.04881 z" />
    <path
       id="path387"
       style="fill:#e5a888;fill-opacity:1;stroke:#e5a888;stroke-width:0.264583px;stroke-linecap:butt;stroke-linejoin:miter;stroke-opacity:1"
       d="m 172.45757,206.98117 c -1.39869,1.6572 -2.46545,3.56028 -3.83986,5.23604 -0.65941,1.05844 -1.59313,1.95064 -2.01211,3.1501 -0.58852,1.20314 -1.10005,2.46902 -1.27348,3.80353 -0.0116,0.67848 0.24872,0.40109 0.23313,-0.12595 0.37471,-0.65088 0.53935,-1.42683 0.97589,-2.05708 0.30798,-0.53011 0.71722,-1.00078 0.91194,-1.59144 0.49773,-0.66957 0.73046,-1.4959 1.32299,-2.10159 0.60584,-0.60659 1.06238,-1.31674 1.33709,-2.12725 0.56931,-0.69115 0.86828,-1.54253 1.34826,-2.28979 0.37463,-0.50895 0.97025,-0.92633 1.12661,-1.55618 -0.006,-0.12356 -0.0532,-0.24411 -0.13046,-0.34039 z" />
    <path
       id="path395"
       style="fill:#e5a888;fill-opacity:1;stroke:#e5a888;stroke-width:0.264583px;stroke-linecap:butt;stroke-linejoin:miter;stroke-opacity:1"
       d="m 189.63789,207.4692 c 0.476,0.9536 0.48579,2.11829 1.23169,2.93682 0.63405,0.7986 1.32127,1.56164 2.04883,2.27396 0.71903,0.53061 1.58523,0.85269 2.2166,1.50683 0.48741,0.48742 0.89678,1.04855 1.46754,1.44986 0.53859,0.40624 0.7962,1.22024 0.94381,1.72108 0.36897,-0.65274 -0.14485,-1.35594 -0.58578,-1.83624 -0.42599,-0.62414 -0.90455,-1.25517 -1.61123,-1.57243 -0.41813,-0.5607 -0.78708,-1.1539 -1.43461,-1.48884 -0.84084,-0.63797 -1.40471,-1.54229 -2.12327,-2.30171 -0.77423,-0.85748 -1.16398,-2.02612 -2.15358,-2.68933 z" />
    <path
       id="path403"
       style="fill:#6e5439;fill-opacity:1;stroke:#6e5439;stroke-width:0.264583px;stroke-linecap:butt;stroke-linejoin:miter;stroke-opacity:1"
       d="m 186.43353,192.063 c -0.41706,0.39746 -0.99945,1.32653 -0.25329,1.68835 1.0748,0.41326 2.13464,-0.21954 3.1,-0.6379 1.99853,-0.83826 4.19906,-0.94974 6.31126,-1.32207 1.22571,-0.13839 2.58486,0.0234 3.53024,0.88679 0.38362,0.13238 1.1274,1.04474 1.27818,0.46427 -0.5184,-0.57912 -1.06347,-1.15038 -1.77816,-1.4858 -1.06042,-0.73589 -2.36818,-0.85462 -3.58767,-1.15675 -1.44867,-0.31793 -2.93738,-0.0546 -4.40267,-0.20785 -1.34505,0.0472 -2.49439,0.85178 -3.65697,1.43869 -0.18266,0.10687 -0.36317,0.21747 -0.54092,0.33227 z" />
    <path
       id="path411"
       style="fill:#6e5439;fill-opacity:1;stroke:#6e5439;stroke-width:0.264583px;stroke-linecap:butt;stroke-linejoin:miter;stroke-opacity:1"
       d="m 161.57506,195.39047 c 1.24345,-0.0366 2.31512,-0.83783 3.56721,-0.84334 1.36134,-0.11124 2.62905,-0.67877 3.97969,-0.8616 1.28134,-0.16604 2.5177,-0.70236 3.82651,-0.60187 0.30399,-0.19137 0.75263,0.18418 0.23593,0.10557 -0.88186,-0.28722 -1.3221,-1.273 -2.23787,-1.47447 -1.59143,-0.38897 -3.23933,-0.026 -4.79505,0.35769 -0.91272,0.23145 -1.70034,0.7516 -2.50349,1.2172 -0.72971,0.36325 -1.5051,0.70865 -2.02913,1.35666 -0.33878,0.2231 -0.32398,0.49525 -0.0438,0.74416 z" />
    <path
       id="path425"
       style="fill:#f9f9f9;fill-opacity:1;stroke:#f9f9f9;stroke-width:0.264583px;stroke-linecap:butt;stroke-linejoin:miter;stroke-opacity:1"
       d="m 187.55505,197.25386 c 0.73257,-0.46339 1.29156,-1.14687 2.0031,-1.63376 0.59471,-0.29429 1.20746,-0.57052 1.83639,-0.78054 0.97084,-0.1866 1.95844,0.10603 2.87461,0.41054 0.75154,0.26557 1.42727,0.69597 2.1673,0.98759 0.33985,0.0502 0.44052,0.47679 -0.0165,0.35107 -0.50915,0.0635 -0.96366,0.49152 -1.51531,0.39085 -0.90186,-0.0699 -1.71188,0.39229 -2.56307,0.59386 -1.10848,0.20921 -2.244,0.13189 -3.36366,0.23202 -0.43237,-0.0383 -1.03734,0.10575 -1.32771,-0.28388 -0.0411,-0.0857 -0.064,-0.17832 -0.0951,-0.26775 z" />
    <path
       id="path433"
       style="fill:#f9f9f9;stroke:#f9f9f9;stroke-width:0.264583px;stroke-linecap:butt;stroke-linejoin:miter;stroke-opacity:1"
       d="m 165.76539,198.18555 c 0.77213,-1.18176 2.11428,-1.90456 3.50139,-2.05877 0.88618,-0.18508 1.80263,-0.58348 2.70936,-0.26369 0.98863,0.28846 1.76116,1.00201 2.54131,1.63819 0.20062,0.2379 0.67989,0.62821 0.48002,0.9299 -0.59518,0.0262 -1.19954,-0.0422 -1.79563,-0.0905 -1.63387,-0.25419 -3.24073,0.40941 -4.87675,0.22449 -0.8617,-0.0574 -1.71675,-0.19402 -2.5597,-0.37959 z" />
    <path
       id="path441"
       style="fill:#130c0f;fill-opacity:1;stroke:#130c0f;stroke-width:0.264583px;stroke-linecap:butt;stroke-linejoin:miter;stroke-opacity:1"
       d="m 190.22947,195.64558 c -0.41535,0.38676 -0.56151,1.07429 -0.22092,1.55558 0.19947,0.36956 0.59819,0.59589 1.01513,0.59851 0.78097,0.0295 1.55685,-0.23827 2.2122,-0.65109 0.46626,-0.30758 0.92311,-0.78928 0.88367,-1.38907 -0.008,-0.52649 -0.45905,-0.94212 -0.95434,-1.04006 -0.75202,-0.15903 -1.54128,-0.0648 -2.27526,0.14016 -0.2362,0.0734 -0.47015,0.17188 -0.67044,0.31918 -0.108,0.13505 -0.0584,0.32604 0.01,0.46679 z" />
    <path
       id="path449"
       style="fill:#130c0f;fill-opacity:1;stroke:#130c0f;stroke-width:0.264583px;stroke-linecap:butt;stroke-linejoin:miter;stroke-opacity:1"
       d="m 168.62466,197.32041 c -0.16022,0.40381 -0.0667,0.98081 0.36756,1.16845 0.32788,0.0914 0.6671,-0.0249 0.99924,-0.0374 0.55332,-0.0693 1.14777,0.017 1.65665,-0.25817 0.5406,-0.27195 0.99199,-0.84511 0.94243,-1.47357 -0.0587,-0.45848 -0.42829,-0.83477 -0.8443,-1.00073 -0.35979,-0.0868 -0.73717,-0.0562 -1.10516,-0.0722 -0.59178,0.007 -1.2008,0.0244 -1.76371,0.22355 -0.31755,0.11255 -0.34928,0.47935 -0.39912,0.76255 -0.0967,0.18118 -0.202,0.36618 0.0166,0.52126 0.043,0.0556 0.0851,0.11204 0.12979,0.16625 z" />
    <path
       id="path457"
       style="fill:#6e5439;fill-opacity:1;stroke:#6e5439;stroke-width:0.264583px;stroke-linecap:butt;stroke-linejoin:miter;stroke-opacity:1"
       d="m 178.57485,141.67763 c -0.0638,-3.3803 3.61932,-1.8905 3.9898,0.26427 1.9905,-0.60831 3.71091,-1.41411 3.05888,-0.0738 1.52298,-1.98674 0.50782,2.47766 2.37092,-0.0802 1.89429,-1.44841 2.53043,-0.19227 2.31603,0.73451 1.14412,-1.24899 1.76978,-1.62731 2.81143,-0.58403 2.27614,-1.18834 3.12458,1.39549 4.78201,1.406 -0.7886,2.2045 -0.40802,1.2291 0.99673,1.16594 0.44312,1.00942 1.88734,-0.0335 2.68615,0.59843 1.24749,0.0792 1.40494,0.92902 3.02575,-0.0797 -0.077,1.79421 0.0507,0.99499 1.61405,1.27003 0.25333,1.89911 3.28966,2.37521 4.51499,3.02675 2.71583,0.16845 2.45776,1.25645 1.35107,2.20205 2.98258,-0.99754 4.1647,2.02217 5.45784,3.23335 -1.0857,1.07583 2.54187,2.88839 2.04316,3.66584 -1.34445,0.054 2.87241,0.52627 2.17305,1.37755 -2.56455,-0.16507 2.87252,1.25847 0.29444,2.49952 2.72703,-0.10272 1.12294,1.07174 1.37674,1.93399 2.50008,-0.27709 1.26977,1.6278 -0.10437,2.02668 0.41674,1.69484 4.35733,1.15584 1.94521,2.54649 1.39041,1.0956 1.93344,2.36536 1.18058,3.09983 3.73221,0.16501 -0.96072,2.8341 2.11241,3.5776 -1.04703,1.19153 -0.40617,1.77657 -0.0627,3.03206 -2.72939,0.4205 1.27428,1.80081 -0.89914,3.13886 0.44662,1.46658 0.2602,3.22933 0.0934,4.53347 -2.10137,0.29189 1.79726,2.19715 -1.30149,1.71687 1.87283,2.64626 -2.53152,-0.16519 -0.30875,2.19761 -0.027,1.68579 -1.59215,2.56447 -3.18331,1.39729 -0.62635,1.07619 1.4887,2.45022 -0.48607,2.61809 2.2154,2.05566 -0.29796,1.56078 -0.86052,2.75847 1.36249,1.49801 1.66951,2.23626 -0.11964,1.8207 0.50626,1.88857 -2.33934,-0.18157 -0.78367,2.30573 -1.16402,0.25368 -2.57029,-1.54629 -2.10162,0.23559 -1.78669,-1.66643 -0.25872,1.23983 -1.63668,1.53929 -1.13782,0.60564 -1.66048,0.53176 -0.75562,2.1808 -1.29163,-0.65845 -2.12852,0.38879 -3.37525,0.30094 -0.63117,-0.54539 -1.07307,1.18171 -2.25932,-0.63934 -0.46033,2.5354 -0.80263,-2.17905 -1.33055,0.41034 -1.60235,1.77964 -1.1862,-1.44496 -3.31898,0.46918 0.57181,-1.99838 -1.32359,1.65871 -0.50099,-1.27157 1.5132,-1.74259 0.8219,-3.30138 -0.92244,-2.99467 1.10787,-2.16514 -1.16689,-4.15553 0.43559,-5.91482 -2.73912,0.40269 0.12694,-2.84748 -2.17351,-2.78797 0.68273,-1.94184 -1.87675,-2.13922 -0.76836,-4.4236 -1.03499,0.061 -1.50411,1.48249 -0.77642,-0.66817 -0.63404,-1.88121 -0.69472,-3.18668 -1.85413,-1.12731 -0.75834,-0.49364 0.051,-5.02784 -0.84578,-2.1309 -0.28971,1.11157 -1.34909,-1.69855 -2.16885,0.93712 -1.22177,2.12579 -2.17551,-2.62393 -2.0631,0.89866 3.45944,-0.22873 -1.92667,-1.57066 -1.60386,-0.26186 3.47719,-0.19717 -2.81876,-1.34587 -2.21885,-0.74034 -1.76524,-0.25179 -1.88177,-2.52853 -3.65416,-1.18245 0.31816,-3.22752 -2.63039,2.36847 -2.88348,-1.06773 -1.84506,2.7549 -2.41808,-2.44265 -3.58476,0.82095 -1.67527,-1.5496 2.6636,-0.3205 -0.0681,0.48912 -1.6334,-1.19828 -4.10614,-1.53902 -3.71948,-9.6e-4 -2.02942,-1.61789 -1.28991,-0.32479 -0.19511,0.56363 -1.80476,-0.2382 -2.75228,-2.06699 -2.08091,-0.0704 -1.51278,-1.85051 -4.46244,-1.30364 -2.91241,0.48741 -1.31718,-1.15534 -1.75294,-1.51718 -0.61054,-0.3492 -2.28782,0.36858 -2.65806,-2.79957 -2.11787,-0.0153 -1.56711,-0.85127 -4.03246,-2.40101 -2.59025,0.80452 -1.93279,0.71017 -4.68851,-1.71305 -2.07502,0.75474 -0.97557,0.69301 -5.37648,-0.4264 -2.77179,1.58387 3.20449,0.50006 -2.05031,0.19425 0.82137,1.56811 2.71798,0.84132 0.95737,1.39118 -0.71357,0.40058 1.39452,1.47979 -0.72774,1.29157 -1.06283,2.99153 2.16948,0.49108 -2.47762,0.99573 0.43724,1.20543 1.0746,1.03253 -1.01035,1.24005 0.0732,2.19072 -2.01954,-0.1621 -2.21277,0.48365 -0.86999,1.51177 -1.00182,1.85054 -2.33447,2.20317 -0.90037,3.70083 0.55171,0.93072 0.55648,2.7332 0.1465,2.9606 -0.49953,0.0583 1.21872,1.70856 -0.9392,0.75513 -0.1446,0.45902 1.44722,3.72988 0.0126,2.6925 -0.51053,0.21232 -0.96706,0.77684 -0.6026,1.46852 -1.2607,-1.57221 -0.61685,-0.30594 -0.45792,0.76896 -1.53216,-3.54095 -1.90804,3.39378 -2.78412,0.0735 -1.51403,1.58692 -1.92036,-1.68612 -2.98823,0.1598 0.99988,-3.48771 -4.85041,0.85449 -3.90817,-3.13045 -2.85562,0.82963 -1.9252,-3.29016 -4.67184,-2.82149 0.21242,-2.26376 -2.42332,-2.76572 -2.3867,-4.86072 -3.32623,0.60008 -2.1797,-2.00342 -2.57377,-3.67523 -2.71968,-0.43711 0.19532,-2.08047 -1.55257,-3.29739 1.32298,-1.20746 0.10823,-2.79893 0.64916,-4.44361 -1.59695,-1.29219 -0.88673,-4.61477 -1.28115,-6.77096 0.85786,-1.74483 -2.86995,-3.70048 0.35731,-3.83975 -0.59368,-2.12539 -0.35398,-4.58113 0.56393,-5.432 -0.62122,-2.71668 3.39317,-3.29028 2.78956,-6.12867 1.7779,-0.72313 0.85196,-5.04761 3.62386,-4.13863 1.57149,-0.43541 0.70147,-3.36504 3.1723,-2.62785 1.60438,-1.33463 2.78975,-5.27733 4.47188,-5.36607 0.3407,1.81498 0.35107,-4.83706 2.61951,-1.66373 1.56862,0.37943 3.85763,-4.94407 3.783,-3.08283 0.6388,-0.23528 2.07079,-2.67984 3.63914,-1.21125 1.44144,-1.80123 4.64329,-2.15422 6.13277,-3.50414 0.82444,1.95846 0.91083,-3.80932 3.02949,-1.59623 1.99125,0.68177 2.57916,-2.93551 4.29323,-0.99686 1.44727,-2.41769 2.33024,0.36735 4.32488,-0.53403 z" />
    <path
       id="path479"
       style="fill:#e5a888;fill-opacity:1;stroke:#e5a888;stroke-width:0.264583px;stroke-linecap:butt;stroke-linejoin:miter;stroke-opacity:1"
       d="m 164.92485,200.8828 c -0.50349,-0.13003 -0.98151,0.16506 -1.36641,0.45706 -0.65364,0.49575 -1.45283,0.79607 -2.0063,1.41998 -0.10398,0.0547 -0.27489,0.45473 -0.30825,0.25678 0.20893,-0.11751 0.37297,-0.28057 0.3774,-0.54111 0.0393,-0.33281 0.32599,-0.53618 0.54108,-0.76052 0.43481,-0.41026 0.91205,-0.77457 1.40501,-1.11113 0.32148,-0.20757 0.73202,-0.16614 1.08126,-0.0623 0.17258,0.0372 0.20544,0.20798 0.27621,0.34121 z" />
    <path
       id="path487"
       style="fill:#e5a888;fill-opacity:1;stroke:#e5a888;stroke-width:0.264583px;stroke-linecap:butt;stroke-linejoin:miter;stroke-opacity:1"
       d="m 197.22159,200.81221 c 1.04709,-0.12375 2.18622,0.0867 2.97746,0.82629 0.62376,0.52857 1.24152,1.06749 1.93497,1.50469 0.47941,0.33057 0.89262,0.75072 1.21158,1.23751 0.2297,0.14769 0.39601,0.6048 0.56041,0.63007 -0.0931,-0.41259 -0.20323,-0.84387 -0.50176,-1.16591 -0.49114,-0.54366 -1.0596,-1.0138 -1.52299,-1.58442 -0.25199,-0.32118 -0.564,-0.59471 -0.95945,-0.72182 -0.60339,-0.30046 -1.16908,-0.70613 -1.84182,-0.84649 -0.5236,-0.10594 -1.07759,-0.40536 -1.61075,-0.20266 -0.11412,0.08 -0.16685,0.21443 -0.24765,0.32274 z" />
    <path
       id="path495"
       style="fill:#e5a888;fill-opacity:1;stroke:#e5a888;stroke-width:0.264583px;stroke-linecap:butt;stroke-linejoin:miter;stroke-opacity:1"
       d="m 198.60723,198.8907 c 0.67651,0.35015 1.47141,0.33591 2.15381,0.67354 0.41818,0.13271 0.75569,0.40939 1.10438,0.66273 0.60487,0.35436 1.39033,0.42272 1.85825,0.99191 -0.009,0.21659 0.6233,0.26419 0.37,0.38385 -0.24793,-0.17733 -0.34898,-0.50007 -0.59635,-0.68584 -0.62358,-0.51054 -1.31969,-0.92438 -1.98256,-1.38107 -0.5776,-0.36651 -1.19384,-0.78935 -1.91102,-0.75263 -0.33418,0.0119 -0.66265,0.0873 -0.99651,0.10751 z" />
  </g>
</svg>
