<?xml version="1.0" encoding="UTF-8" standalone="no"?>
<svg
   xmlns:dc="http://purl.org/dc/elements/1.1/"
   xmlns:cc="http://creativecommons.org/ns#"
   xmlns:rdf="http://www.w3.org/1999/02/22-rdf-syntax-ns#"
   xmlns:svg="http://www.w3.org/2000/svg"
   xmlns="http://www.w3.org/2000/svg"
   xmlns:sodipodi="http://sodipodi.sourceforge.net/DTD/sodipodi-0.dtd"
   xmlns:inkscape="http://www.inkscape.org/namespaces/inkscape"
   sodipodi:docname="py-chuck-norris.svg"
   inkscape:version="1.0 (4035a4fb49, 2020-05-01)"
   id="svg8"
   version="1.1"
   viewBox="0 0 317.5 158.75"
   height="600"
   width="1200">
  <defs
     id="defs2" />
  <sodipodi:namedview
     inkscape:snap-global="false"
     inkscape:document-rotation="0"
     inkscape:window-maximized="0"
     inkscape:window-y="19"
     inkscape:window-x="0"
     inkscape:window-height="1061"
     inkscape:window-width="1920"
     units="px"
     showgrid="false"
     inkscape:current-layer="layer1"
     inkscape:document-units="mm"
     inkscape:cy="296.91537"
     inkscape:cx="612.86834"
     inkscape:zoom="1.4"
     inkscape:pageshadow="2"
     inkscape:pageopacity="0.0"
     borderopacity="1.0"
     bordercolor="#666666"
     pagecolor="#ffffff"
     id="base" />
  <metadata
     id="metadata5">
    <rdf:RDF>
      <cc:Work
         rdf:about="">
        <dc:format>image/svg+xml</dc:format>
        <dc:type
           rdf:resource="http://purl.org/dc/dcmitype/StillImage" />
        <dc:title></dc:title>
      </cc:Work>
    </rdf:RDF>
  </metadata>
  <g
     transform="translate(0,-138.25001)"
     id="layer1"
     inkscape:groupmode="layer"
     inkscape:label="Layer 1">
    <path
       sodipodi:nodetypes="cccccccccccccccsc"
       d="m 142.18003,202.27392 c 1.9671,13.94465 1.11279,10.81883 0.55576,17.3631 -2.07057,3.758 -4.37684,7.60568 -3.80027,12.10388 -0.20276,7.69718 -3.16419,15.02065 -3.81502,22.68252 -1.56225,6.80719 -2.25775,13.75417 -2.13668,20.72321 -0.87925,5.2987 -3.74464,13.34574 4.22421,14.47907 5.01912,0.41109 9.52343,-3.4541 14.69878,-2.55677 4.69531,-0.96884 11.09641,4.84804 12.31611,-2.36954 2.09194,-5.57457 -1.84769,-11.49144 -0.0948,-17.23029 2.15382,-4.58524 0.62751,-9.9379 3.06906,-14.42605 0.77544,-3.94896 2.57098,-7.48401 4.22941,-11.05459 3.23942,-3.35406 3.11358,-8.02139 2.3821,-12.30491 -1.94487,-7.79223 0.44842,-11.09101 -1.14291,-18.90406 -0.38745,-3.23695 0.50206,-14.62424 -4.32256,-10.42659 -6.74527,4.45746 -15.91806,6.94296 -23.38365,2.67712 -1.63026,-0.79001 0.20706,-0.0439 -1.30095,-1.14205 -0.63381,-0.46155 2.00528,6.68793 -1.47859,0.38595 z"
       style="fill:#d28767;fill-opacity:1;stroke:#d28767;stroke-width:0.264583px;stroke-linecap:butt;stroke-linejoin:miter;stroke-opacity:1"
       id="path158" />
    <path
       d="m 204.76946,225.25879 c 3.19933,0.85019 7.2619,-0.0588 9.47541,3.06516 1.69892,2.8538 3.33851,5.82755 4.63768,8.9033 1.35371,3.5987 2.49214,7.37801 2.12055,11.28397 -0.55843,3.51179 -1.10097,7.0246 -0.77394,10.60604 -0.45287,5.85557 0.88686,11.78587 -0.48827,17.57561 0.0262,3.55486 -1.46168,7.25875 -4.74705,8.95767 -2.72958,0.67981 -5.03946,2.23856 -7.7027,3.14926 -4.13209,0.52227 -3.7696,-6.217 -3.89736,-9.23354 0.46803,-3.86421 -1.12682,-7.51204 -1.54551,-11.30626 -1.59713,-4.92326 -3.37399,-10.10404 -2.32734,-15.35491 0.97876,-5.08931 0.83937,-10.47524 3.27083,-15.18204 0.6087,-3.14491 2.01922,-6.11923 2.01496,-9.40946 0.0672,-1.01696 0.12412,-2.04296 -0.0373,-3.0548 z"
       style="fill:#d28767;fill-opacity:1;stroke:#d28767;stroke-width:0.264583px;stroke-linecap:butt;stroke-linejoin:miter;stroke-opacity:1"
       id="path178" />
    <path
       d="m 110.4133,230.16127 c -3.48472,1.52749 -5.14723,5.46919 -6.43962,8.86405 -2.36007,6.38816 -3.02362,13.6339 -0.72628,20.10804 0.1481,3.40684 1.32084,7.02449 -0.50498,10.2033 -2.25986,4.82917 -5.093611,9.46716 -6.546355,14.62536 -0.699549,3.0377 1.780544,7.28166 5.290715,6.03303 3.91244,-0.38018 7.51235,1.22405 11.01766,2.63231 3.36118,1.0484 5.33894,-2.03877 5.89853,-4.87752 1.82994,-4.64135 -0.0153,-9.79512 -2.49844,-13.81163 -1.04927,-3.26658 -1.165,-6.77316 -2.58218,-9.94343 -2.32587,-6.77389 -0.18262,-14.1565 -2.36622,-20.97941 -1.32475,-4.18475 -0.17153,-8.58046 -0.54283,-12.8541 z"
       style="fill:#d28767;fill-opacity:1;stroke:#d28767;stroke-width:0.264583px;stroke-linecap:butt;stroke-linejoin:miter;stroke-opacity:1"
       id="path192" />
    <path
       d="m 174.99354,173.61642 c 1.95026,0.0868 3.9623,1.14181 4.41843,3.17528 0.75125,1.62994 1.74569,3.12385 2.5025,4.71501 0.48698,2.15017 -1.08807,4.11372 -0.75151,6.28653 0.18946,1.99769 0.68078,3.97739 1.35562,5.84851 -0.28861,1.81853 -1.79199,3.43573 -0.89561,5.32108 -1.29321,1.33678 -1.32379,3.0228 -1.45034,4.77954 -0.38588,1.81289 2.6556,1.08865 2.04423,3.21883 0.0845,1.93974 -2.98565,2.81696 -4.43271,1.53936 -1.07687,-1.16516 -1.59279,-2.69502 -3.05343,-3.53058 -0.9624,-1.65211 -2.42255,-3.09214 -3.23306,-4.71902 -0.38158,-1.54611 1.40822,-2.97067 0.27497,-4.3726 -1.2477,-1.34326 -0.75063,-3.39983 0.4185,-4.6147 1.70474,-1.47088 3.14027,-3.34091 3.4852,-5.63171 1.06664,-2.21149 -0.99274,-3.46191 -1.87328,-5.10386 0.61189,-1.84118 -1.18519,-3.76654 0.66203,-5.20307 0.29005,-0.52659 0.46314,-1.11234 0.52846,-1.7086 z"
       style="fill:#7f491b;fill-opacity:1;stroke:#7f491b;stroke-width:0.264583px;stroke-linecap:butt;stroke-linejoin:miter;stroke-opacity:1"
       id="path200" />
    <path
       d="m 131.14306,177.89777 c 1.97167,-1.00029 4.2431,0.49892 3.29905,2.79326 0.25194,1.91919 1.42713,3.67323 0.68518,5.71677 -0.22892,1.85378 2.20517,2.92926 1.61057,4.86286 0.55432,1.5365 0.3676,3.35064 1.31225,4.66156 1.56715,1.17 1.27992,3.12834 2.11312,4.658 1.03716,1.54504 1.37413,3.41052 2.22895,5.05354 1.38187,1.87648 -0.49744,3.35476 -1.04494,5.0375 0.64543,2.13912 -1.98165,3.92403 -3.45662,1.9671 -1.82411,0.52693 -2.51827,-1.07277 -0.9379,-2.12945 1.90253,-1.04456 1.3414,-3.24135 -0.4713,-4.00057 -0.67539,-1.50696 -1.11323,-3.08187 -2.26957,-4.3189 -0.80277,-1.58446 0.88771,-3.29097 -0.41075,-4.78549 -0.56355,-1.68594 -0.47647,-3.61817 -2.28714,-4.6394 -1.49002,-1.51293 -0.75576,-3.99211 -2.18439,-5.55586 -0.29915,-1.7104 -0.91066,-3.30655 -1.45702,-4.8785 0.2151,-2.03908 3.08618,-1.55859 2.68999,-3.87734 l 0.2235,-0.29742 z"
       style="fill:#c37d49;fill-opacity:1;stroke:#c37d49;stroke-width:0.264583px;stroke-linecap:butt;stroke-linejoin:miter;stroke-opacity:1"
       id="path208" />
    <path
       d="m 145.93243,224.52675 c 0.93809,0.42405 1.37421,1.56014 2.48636,1.73742 1.00158,0.59724 1.80916,1.45373 2.74931,2.12413 0.37928,0.5434 1.51794,1.57711 0.95372,0.24621 -0.29824,-1.26263 -1.02327,-2.43041 -1.11926,-3.75951 0.69954,-1.06487 1.35193,1.33436 1.53303,1.96692 0.4557,1.08754 1.35124,1.9978 2.37661,2.54483 1.36724,0.25702 2.13908,-1.42457 2.97966,-2.25005 0.67326,-1.45422 1.78447,-2.58598 2.67831,-3.88445 0.3578,-0.95884 0.0784,-2.66612 1.455,-2.8536 1.63719,0.51171 -0.36528,2.26963 -0.4214,3.26925 -0.20735,1.27797 -0.97139,2.93316 -1.18789,3.87263 0.97361,-0.53754 1.94266,-1.21768 3.03943,-1.57305 0.8093,-0.22507 2.19498,-1.14442 2.67043,-0.84254 -0.54701,1.13705 -1.97704,1.33219 -2.73207,2.29694 -1.04783,0.99965 -1.78614,2.27462 -3.01378,3.09133 -0.93642,0.78302 -1.46685,2.2749 -2.86946,2.34023 -1.85952,0.0664 -3.83919,-0.14544 -5.34912,-1.33757 -1.29666,-1.07259 -2.87619,-1.69045 -4.23125,-2.65534 -1.18249,-0.78234 -1.01106,-2.37053 -2.03316,-3.25701 -0.27717,-0.319 -0.25423,-0.77169 0.0355,-1.07677 z"
       style="fill:#e89d7d;fill-opacity:1;stroke:#e89d7d;stroke-width:0.264583px;stroke-linecap:butt;stroke-linejoin:miter;stroke-opacity:1"
       id="path216" />
    <path
       d="m 178.1486,212.30383 c 4.61303,-1.76797 7.08972,4.30232 11.44432,4.56955 3.80185,1.66089 7.94707,2.30248 11.72053,3.95022 4.05926,3.03607 10.03958,2.33451 13.40645,6.36711 1.43092,4.62749 -3.06564,-2.02635 -4.12868,2.27355 -1.07448,4.8408 -2.38522,9.82357 -3.45429,14.76755 -1.33469,4.36959 -2.37757,8.79366 -2.4447,13.38896 -0.59178,6.08613 -3.14945,12.1305 -1.13999,18.24467 1.39879,4.72217 1.64592,11.19693 -2.9941,14.22716 -4.48216,1.27584 -9.39978,1.68669 -13.92095,0.3112 -7.61658,-0.92501 -15.32051,-0.59054 -22.80435,1.05781 -4.18222,-0.14458 -11.78763,2.98754 -13.10015,-2.7216 2.22854,-4.99222 0.86091,-10.59044 2.41273,-15.74877 0.94627,-6.43593 2.29292,-12.8172 2.82839,-19.2948 -0.29083,-4.81546 1.47728,-9.54157 2.96787,-14.0373 3.15574,-7.63136 9.78955,-12.81908 15.83276,-18.05966 2.0562,-2.56405 2.80628,-6.12495 3.37416,-9.29565 z"
       style="fill:#98b2c9;fill-opacity:1;stroke:#98b2c9;stroke-width:0.264583px;stroke-linecap:butt;stroke-linejoin:miter;stroke-opacity:1"
       id="path242" />
    <path
       d="m 139.03072,220.9109 c -0.44205,4.16762 3.36158,7.0431 5.14342,10.433 2.97814,4.10466 5.23094,9.30941 3.55909,14.41008 -1.1126,5.86771 -2.2371,11.73541 -3.39746,17.5973 -0.40829,4.66977 -0.61337,9.3518 -1.26802,14.00432 -0.47384,3.96715 -0.81239,8.15 -2.62921,11.73232 -0.82031,5.23185 -6.4118,4.04263 -9.95761,2.90906 -4.49405,-0.91081 -9.67769,1.98853 -13.57443,0.0598 0.49737,-3.92918 2.12856,-8.06622 0.6309,-12.05471 -0.71597,-4.88387 -4.31327,-8.66921 -5.20491,-13.4287 -0.91751,-3.84139 0.69301,-7.8522 -0.9875,-11.58984 -1.10237,-5.43723 -3.60694,-10.40287 -5.07586,-15.71862 -0.66021,-3.76383 -0.42585,-8.64936 3.67487,-10.38275 4.40108,-2.3759 9.22178,-3.85388 13.81708,-5.78317 3.46782,-0.82924 6.53649,-2.4282 9.8627,-3.5612 2.67814,-1.27803 5.82424,-4.26002 5.40694,1.3731 z"
       style="fill:#98b2c9;fill-opacity:1;stroke:#98b2c9;stroke-width:0.264583px;stroke-linecap:butt;stroke-linejoin:miter;stroke-opacity:1"
       id="path250" />
    <path
       sodipodi:nodetypes="cccccccccccccccc"
       d="m 172.60259,211.43869 c -1.9714,1.96065 -1.4076,5.05669 -2.68801,7.26327 -2.46408,1.5138 -4.54373,3.8645 -5.42177,6.66192 -0.83938,1.88922 2.86237,3.07919 0.47884,4.79453 -1.71894,2.17514 -3.45925,4.42506 -4.6055,6.91516 -0.60138,1.78371 1.29091,-1.32409 1.78695,-1.86429 1.52233,-2.08172 4.1099,-3.02176 5.71959,-4.98396 0.92076,-1.6459 0.87011,-4.01294 2.93457,-4.79057 1.81575,-0.72617 2.47292,-3.97903 4.81857,-2.34107 2.06133,1.05895 3.23014,3.27262 4.29491,5.18905 1.10781,2.01421 1.36648,-1.53417 0.27363,-2.16435 -1.14037,-2.3888 -0.36013,-5.20274 0.26252,-7.63795 0.39141,-1.7825 1.13874,-3.64488 0.89381,-5.46975 -0.77539,-2.0089 -2.84064,-3.03178 -3.74196,-4.96107 -1.07311,-1.52485 -3.99556,-7.45802 -5.63103,-6.83168 0.14206,4.01372 0.99916,7.89106 0.62488,10.22076 z"
       style="fill:#547183;fill-opacity:1;stroke:#547183;stroke-width:0.264583px;stroke-linecap:butt;stroke-linejoin:miter;stroke-opacity:1"
       id="path270" />
    <path
       sodipodi:nodetypes="scccccccccccccccss"
       d="m 137.99547,214.76616 c -1.49149,1.3166 -1.77864,3.44397 -3.07316,4.89945 -0.56409,1.21913 -0.84592,2.56514 -1.69533,3.64565 -1.4593,2.15299 -2.48932,4.54691 -3.22062,7.03646 -0.61407,1.13224 -0.84862,3.46434 0.5093,1.47952 1.02187,-1.32163 1.44984,-3.00422 2.60856,-4.24209 0.76571,-1.20284 2.33676,-3.45937 3.82569,-1.86036 1.43482,0.88551 1.4359,2.66353 2.34464,3.88582 1.34347,1.3806 3.58534,1.31608 4.80443,2.91431 0.95865,1.54183 2.70477,2.82328 2.93525,4.66147 -0.79878,-1.78555 -1.35023,-3.71065 -1.74994,-5.66838 -0.50867,-1.50868 -0.93513,-3.20324 -2.19188,-4.28504 -1.51319,-2.90546 -0.29696,-5.07127 -0.16731,-8.12786 0.88117,-1.22822 0.68171,-3.07063 0.83288,-5.54884 -0.31887,-1.25281 -0.46581,-4.09816 -0.36858,-5.5214 -1.55608,-0.11988 -3.77261,3.87336 -4.37664,4.90797 -0.37135,0.58789 -0.79851,1.15499 -1.01727,1.82332 z"
       style="fill:#547183;fill-opacity:1;stroke:#547183;stroke-width:0.264583px;stroke-linecap:butt;stroke-linejoin:miter;stroke-opacity:1"
       id="path278" />
    <path
       d="m 171.50914,254.56359 c 0.59659,1.43846 0.88303,2.9575 1.13299,4.48141 0.63787,1.50315 0.69861,3.29984 0.66514,4.73859 1.77507,-0.27112 3.6514,-0.80255 5.54728,-0.65749 2.66152,0.0948 5.41176,0.59292 7.74712,1.91438 1.17688,1.25634 2.92074,0.8271 4.42126,0.64513 2.80035,-0.39584 5.70923,-0.7806 8.46718,0.0802 1.82982,0.3152 1.29084,-2.30012 1.71658,-3.45467 0.20183,-1.80777 0.40789,-3.63293 0.41322,-5.44653 -0.36944,-1.62079 -2.44845,-1.17647 -3.68939,-1.48789 -3.23521,-0.14933 -6.33725,-1.34082 -9.59551,-1.20714 -2.35145,0.14054 -4.69565,0.45472 -7.05913,0.328 -3.26161,-0.23831 -6.56007,1.00204 -9.76674,0.066 z"
       style="fill:#547183;fill-opacity:1;stroke:#547183;stroke-width:0.264583px;stroke-linecap:butt;stroke-linejoin:miter;stroke-opacity:1"
       id="path286" />
    <path
       d="m 112.64745,258.64529 c 2.62422,-2.03924 5.84976,-3.39365 9.20215,-3.44138 2.84919,-0.24297 5.71864,-0.8734 8.57812,-0.37861 0.85453,-0.30622 1.77885,0.18489 1.03559,1.10644 -0.81877,1.62935 -1.40625,3.38612 -1.425,5.2258 -0.0859,1.47217 -0.0576,2.95915 -0.3409,4.41265 -1.26249,0.41791 -2.6412,-0.1281 -3.94721,-0.17197 -1.42645,-0.33053 -2.87646,-0.17736 -4.11947,0.63111 -1.12781,0.45717 -2.04976,1.23257 -2.92342,2.05735 -1.65734,-0.55123 -3.42082,-1.2231 -5.1674,-1.16105 -1.40329,-0.0965 -0.47819,-2.33547 -0.60652,-3.32173 0.23894,-1.29154 0.055,-2.62349 -0.60012,-3.76821 -0.43652,-0.49661 -0.0454,-0.79725 0.31418,-1.1904 z"
       style="fill:#547183;fill-opacity:1;stroke:#547183;stroke-width:0.264583px;stroke-linecap:butt;stroke-linejoin:miter;stroke-opacity:1"
       id="path294" />
    <path
       sodipodi:nodetypes="cccccccccccccccccc"
       d="m 185.43959,214.89372 c 3.33851,2.94125 0.77093,6.01023 -0.67462,9.40096 -1.70971,5.03836 -2.4724,10.35479 -4.29472,15.35489 -0.62989,3.80024 -3.86532,7.58637 -1.91632,11.44287 3.17129,2.8851 5.8833,6.25434 8.04634,10.01116 1.26688,3.42906 4.41511,5.87368 5.01493,9.62424 1.61232,4.10584 1.62208,9.00626 4.57584,12.47188 2.12509,1.61719 8.88776,3.47201 7.84935,-1.25794 0.74164,-3.17788 1.03244,-7.10878 -2.87945,-8.21409 -1.17251,0.65311 -0.58466,4.80031 -3.47472,2.56474 -2.07953,-2.27226 -1.9109,-5.79769 -3.32731,-8.58757 -0.96043,-3.98049 -4.15476,-6.8215 -6.36881,-10.05027 -1.07257,-3.41404 -4.65992,-7.05361 -3.08761,-10.31432 2.48598,-3.08931 2.38125,-7.2733 4.45263,-10.56823 2.72458,-3.94759 2.74615,-8.62969 2.65347,-13.16512 -0.0164,-2.84328 3.58747,-3.60859 4.86456,-4.56355 -3.39234,-2.6137 -7.25041,-3.28691 -11.23259,-4.30761 -0.17215,0.0675 0.85682,2.51337 -0.20097,0.15796 z"
       style="fill:#763f2e;fill-opacity:1;stroke:#763f2e;stroke-width:0.264583px;stroke-linecap:butt;stroke-linejoin:miter;stroke-opacity:1"
       id="path302" />
    <path
       sodipodi:nodetypes="cccccccccccccccccc"
       d="m 128.17629,219.04837 c -4.9232,0.46936 -9.47523,3.03679 -13.06242,6.30452 -1.88157,2.98736 0.19399,6.5629 -0.80919,9.78739 -0.87126,3.76092 0.71351,7.49152 3.23233,10.24188 1.36558,2.76858 6.14041,7.79796 1.11208,8.71737 -2.23739,2.7892 -3.66462,6.10235 -5.02064,9.38918 -0.75477,3.6417 -0.58576,7.71367 1.43392,10.94208 1.10431,3.01329 1.6358,5.75023 -0.67956,8.00738 -0.48957,3.22557 3.76948,2.24098 4.15631,5.34573 2.95433,2.44471 1.23174,-4.58265 2.95595,-5.85157 2.75605,-4.02037 -3.86219,-6.77829 -4.05536,-10.92016 -0.86118,-3.3369 0.99594,-6.6504 2.08049,-9.72164 1.65369,-1.49904 5.02765,0.18063 5.41485,-3.33445 1.5353,-5.1689 -0.21338,-10.7262 -3.47019,-14.85539 -2.32271,-3.46539 1.71975,-7.24703 0.10067,-11.08293 -0.50443,-3.36838 -0.99714,-7.13931 2.81211,-8.67275 2.09326,-1.43102 7.85318,-2.34656 7.98041,-3.67186 -1.37671,-0.28866 -2.75485,-0.76635 -4.18176,-0.62478 z"
       style="fill:#763f2e;fill-opacity:1;stroke:#763f2e;stroke-width:0.264583px;stroke-linecap:butt;stroke-linejoin:miter;stroke-opacity:1"
       id="path322" />
    <path
       d="m 144.3366,241.03994 c -0.55904,0.22545 -1.1711,0.69816 -1.1294,1.36483 0.12316,0.81551 1.03366,1.22559 1.78296,1.20908 0.74832,-0.01 1.57272,-0.58279 1.56638,-1.38333 -0.12473,-0.64037 -0.83222,-0.89919 -1.38591,-1.05992 -0.27302,-0.0702 -0.55314,-0.10997 -0.83403,-0.13066 z"
       style="fill:#547183;fill-opacity:1;stroke:#547183;stroke-width:0.264583px;stroke-linecap:butt;stroke-linejoin:miter;stroke-opacity:1"
       id="path330" />
    <path
       d="m 138.42086,265.10865 c -0.0325,0.46712 -0.0609,1.0238 0.30635,1.37531 0.36979,0.32733 0.8975,0.26848 1.33419,0.44282 0.38154,0.15215 0.87786,0.18906 1.12408,-0.21049 0.34426,-0.44439 0.63766,-1.0142 0.52982,-1.59244 -0.11364,-0.41817 -0.59554,-0.51415 -0.96731,-0.56043 -0.46555,-0.0492 -0.94576,-0.0589 -1.40535,0.0361 -0.3406,0.1006 -0.62963,0.31573 -0.92178,0.50912 z"
       style="fill:#547183;fill-opacity:1;stroke:#547183;stroke-width:0.264583px;stroke-linecap:butt;stroke-linejoin:miter;stroke-opacity:1"
       id="path347" />
    <path
       d="m 136.1285,288.24568 c -0.89583,0.69127 -0.99024,2.18386 -0.19259,2.98315 0.29883,0.29188 0.74054,0.35584 1.14014,0.3632 0.37192,0.006 0.45054,-0.40402 0.55242,-0.6768 0.22334,-0.34274 0.35398,-0.77459 0.20366,-1.17324 -0.27683,-0.74238 -1.05057,-1.14103 -1.70363,-1.49631 z"
       style="fill:#547183;fill-opacity:1;stroke:#547183;stroke-width:0.264583px;stroke-linecap:butt;stroke-linejoin:miter;stroke-opacity:1"
       id="path356" />
    <path
       d="m 206.82168,255.703 c -0.33939,-0.6853 0.25744,-1.31838 0.56824,-1.88321 0.39851,-0.61157 0.48076,-1.48493 1.20571,-1.83085 0.81423,-0.32398 1.72167,-0.36187 2.58526,-0.26305 0.45821,-0.15724 1.2303,-0.26888 1.12268,0.47962 0.0852,0.69346 0.13387,1.47587 0.68144,1.98145 0.51823,0.38515 0.15316,0.84811 -0.4022,0.76591 -1.37341,0.19664 -2.71914,-0.43465 -4.09351,-0.19508 -0.68405,0.0601 -1.14699,0.56522 -1.66762,0.94521 z"
       style="fill:#2c3252;fill-opacity:1;stroke:#2c3252;stroke-width:0.264583px;stroke-linecap:butt;stroke-linejoin:miter;stroke-opacity:1"
       id="path404" />
    <path
       d="m 232.54086,258.49664 c 0.37273,-0.29758 0.78425,-0.5815 1.00075,-1.02223 0.31181,-0.55581 0.53187,-1.17656 0.98736,-1.63908 0.1875,-0.22138 0.35731,-0.56688 0.16877,-0.83589 -0.1828,-0.12409 -0.0146,-0.54423 0.12242,-0.26569 -0.0238,0.26963 -0.18094,0.51282 -0.22826,0.7811 -0.0896,0.41448 -0.15451,0.8341 -0.23691,1.25022 -0.10337,0.53336 0.0708,1.0655 0.23669,1.56543 -0.0483,0.27053 -0.39799,0.0487 -0.52277,-0.0568 -0.20426,-0.1731 -0.4837,-0.21934 -0.73834,-0.1479 -0.28476,0.0687 -0.54352,0.21656 -0.78971,0.37082 z"
       style="fill:#2c3252;fill-opacity:1;stroke:#2c3252;stroke-width:0.264583px;stroke-linecap:butt;stroke-linejoin:miter;stroke-opacity:1"
       id="path413" />
    <path
       d="m 210.24788,268.92416 c 1.04446,3.50579 -0.19832,7.11208 -1.51728,10.35422 -0.91102,2.00038 -0.28034,4.47091 -1.7585,6.21043 -1.46724,1.1666 -1.00536,4.10663 1.21835,3.40425 2.85779,-0.41153 5.78379,0.53472 8.63641,-0.14939 1.85152,0.34967 3.45025,-0.10891 3.26191,-2.30737 0.77564,-1.90859 2.12549,-3.60984 1.8349,-5.83368 -0.13248,-3.00739 1.0738,-5.86022 1.10312,-8.84329 -0.8277,-1.80441 -2.99995,-1.86062 -4.61067,-2.50417 -2.63112,-0.89311 -5.4879,-1.25275 -8.16824,-0.331 z"
       style="fill:#2c3252;fill-opacity:1;stroke:#2c3252;stroke-width:0.264583px;stroke-linecap:butt;stroke-linejoin:miter;stroke-opacity:1"
       id="path532" />
    <path
       d="m 203.07503,263.44491 c 1.24177,1.26671 2.33048,2.8658 2.13004,4.71662 0.67882,1.81309 2.94665,1.15499 4.42487,1.24408 2.72258,-0.0414 5.40836,0.58214 8.13698,0.52508 2.75917,0.12264 5.24877,1.43637 7.80064,2.32968 1.47968,-0.55366 1.50805,-2.75323 2.8138,-3.72102 0.49881,-1.16553 2.96007,-2.30688 1.79717,-3.54815 -1.74251,-0.30544 -3.48653,-0.65364 -5.26441,-0.65956 -2.91543,-0.29874 -5.84353,-0.67858 -8.77748,-0.40037 -2.09411,0.20481 -4.04688,-0.68087 -6.10128,-0.81516 -2.32332,0.0145 -4.73028,-0.60673 -6.96033,0.3288 z"
       style="fill:#434a64;fill-opacity:1;stroke:#434a64;stroke-width:0.264583px;stroke-linecap:butt;stroke-linejoin:miter;stroke-opacity:1"
       id="path388" />
    <path
       d="m 202.43417,255.94702 c -1.53299,2.02787 -0.61341,4.75426 -1.66128,6.936 -0.57727,2.45471 3.05876,0.45038 4.40251,0.66834 1.86471,0.25739 3.72985,0.36227 5.61047,0.36289 3.10228,0.34082 6.14577,1.21032 9.29266,1.0979 3.89963,0.0608 7.7448,0.92195 11.38038,2.29531 1.60181,1.50743 2.77547,-0.27123 2.49962,-1.93195 0.21331,-2.27262 0.8108,-4.49234 1.79844,-6.54105 -0.68721,-1.5132 -3.65627,-0.89945 -5.1985,-1.67956 -4.36169,-1.17368 -8.96023,-0.68916 -13.32765,-1.85012 -4.31086,-0.73199 -8.8487,-1.21158 -13.12642,-0.0555 -0.57437,0.18692 -1.13385,0.41993 -1.67023,0.69777 z"
       style="fill:#2c3252;fill-opacity:1;stroke:#2c3252;stroke-width:0.264583px;stroke-linecap:butt;stroke-linejoin:miter;stroke-opacity:1"
       id="path365" />
    <path
       d="m 230.87534,261.04032 c 2.82924,0.54695 5.75355,0.44809 8.54846,1.20289 1.37196,0.27931 2.88675,0.15445 4.13542,0.85649 0.38573,0.97357 -0.31619,2.14825 -0.18409,3.22306 -0.12619,1.30051 -1.68288,0.17165 -2.41718,0.0527 -3.18012,-1.01261 -6.39954,-1.98567 -9.73059,-2.33587 -0.83061,-0.0159 -2.4589,-0.35681 -1.82161,-1.51896 0.3435,-0.61267 0.91777,-1.06186 1.46959,-1.48034 z"
       style="fill:#434a64;fill-opacity:1;stroke:#434a64;stroke-width:0.264583px;stroke-linecap:butt;stroke-linejoin:miter;stroke-opacity:1"
       id="path379" />
    <path
       d="m 204.33213,252.46426 c -0.4931,0.92761 -1.15238,1.79299 -1.42363,2.8206 -0.13193,0.30825 -0.004,0.76717 0.38874,0.50453 0.94997,-0.16559 1.88291,-0.60234 2.86651,-0.44304 0.57685,0.0939 1.17773,0.0541 1.71347,-0.19246 0.55255,-0.20468 1.15026,-0.25013 1.73024,-0.17679 0.52699,-0.30582 -0.12433,-1.00904 -0.34244,-1.37735 -0.47734,-0.62785 -0.56399,-1.4457 -0.93943,-2.12195 -0.39373,-0.41501 -1.02753,-0.34826 -1.55114,-0.3898 -0.60654,0.002 -1.23775,0.033 -1.80464,0.26239 -0.35225,0.26029 -0.44634,0.74175 -0.63768,1.11387 z"
       style="fill:#434a64;fill-opacity:1;stroke:#434a64;stroke-width:0.264583px;stroke-linecap:butt;stroke-linejoin:miter;stroke-opacity:1"
       id="path396" />
    <path
       d="m 230.48192,258.61791 c 0.56058,-0.0383 1.10845,0.11342 1.65398,0.21037 0.40099,-0.0267 0.50968,-0.486 0.65722,-0.78181 0.21548,-0.45594 0.37427,-0.94663 0.33875,-1.45738 0.006,-0.45292 0.15076,-0.88581 0.15613,-1.33944 0.0945,-0.16894 0.25988,-0.56762 -0.097,-0.37439 -0.59789,0.26273 -1.02027,0.77723 -1.47953,1.22205 -0.49273,0.52536 -1.00458,1.05827 -1.34336,1.69829 -0.0825,0.27838 0.0576,0.55401 0.11377,0.82231 z"
       style="fill:#434a64;fill-opacity:1;stroke:#434a64;stroke-width:0.264583px;stroke-linecap:butt;stroke-linejoin:miter;stroke-opacity:1"
       id="path421" />
    <path
       d="m 104.91576,272.42431 c 0.35234,-1.46661 0.84884,-2.90017 1.44368,-4.28547 0.0932,-0.56685 0.67995,-0.64451 1.14049,-0.5038 0.41167,0.0763 0.84735,0.12325 1.24542,0.21056 0.34497,0.33922 0.33603,0.87679 0.52596,1.30142 0.24612,0.81479 0.47019,1.6454 0.5194,2.49895 -0.41177,0.44356 -1.07821,0.28064 -1.61582,0.28531 -0.66866,-0.0579 -1.36923,-0.0265 -1.97365,0.29614 -0.40351,0.16514 -0.84839,0.28818 -1.28548,0.19689 z"
       style="fill:#2c3252;fill-opacity:1;stroke:#2c3252;stroke-width:0.264583px;stroke-linecap:butt;stroke-linejoin:miter;stroke-opacity:1"
       id="path470" />
    <path
       d="m 81.826865,265.97379 c -0.01318,-0.25584 -0.123294,-0.54949 0.0239,-0.78228 0.236167,-0.19324 0.451608,-0.40647 0.584788,-0.68877 0.309758,-0.53553 0.603389,-1.08258 0.975022,-1.57851 0.148436,-0.20632 0.220116,-0.47847 0.328363,-0.67266 0.09618,0.18615 -0.01644,0.45871 0.07021,0.67749 0.06056,0.65119 -0.117327,1.29553 -0.08611,1.94764 0.0078,0.6407 0.06871,1.28445 0.159816,1.9159 0.10113,0.0784 0.155594,0.44095 0.0027,0.19383 -0.165688,-0.25958 -0.457804,-0.39597 -0.636519,-0.64734 -0.21562,-0.22917 -0.424284,-0.53635 -0.754937,-0.5897 -0.238686,0.006 -0.442249,0.16111 -0.667221,0.2244 z"
       style="fill:#2c3252;fill-opacity:1;stroke:#2c3252;stroke-width:0.264583px;stroke-linecap:butt;stroke-linejoin:miter;stroke-opacity:1"
       id="path454" />
    <path
       d="m 89.911725,282.94391 c 0.07487,3.0042 -1.32212,5.80008 -1.560432,8.75643 -0.507188,0.69595 -0.247166,1.38087 0.692386,1.15732 2.463312,0.35587 4.956401,1.50504 7.457957,0.70217 0.974808,-0.26673 2.138954,-0.46995 2.477155,-1.58553 0.553947,-1.05112 0.387592,-2.25997 0.650998,-3.3878 -0.09663,-0.99364 -2.43e-4,-2.00547 0.438431,-2.91055 -0.157631,-1.20457 -1.738845,-0.92954 -2.61542,-1.09236 -2.108056,-0.12808 -4.367358,0.16747 -6.317427,-0.80799 -0.430815,-0.24184 -0.826987,-0.53875 -1.223648,-0.83169 z"
       style="fill:#2c3252;fill-opacity:1;stroke:#2c3252;stroke-width:0.264583px;stroke-linecap:butt;stroke-linejoin:miter;stroke-opacity:1"
       id="path497" />
    <path
       d="m 84.883342,275.75657 c 0.382814,1.91756 -1.313688,4.63705 0.449219,5.9573 1.868503,0.68098 3.785325,1.20421 5.459668,2.33375 2.129287,1.13606 4.615971,0.63821 6.899907,1.1664 2.200227,0.28512 4.347074,1.12713 6.582924,1.0177 1.98415,-0.81817 1.68162,-3.42224 3.12944,-4.73614 1.36742,-1.06128 0.71652,-2.79905 -1.06742,-2.61263 -4.15573,-0.77148 -8.442856,0.0889 -12.57944,-0.89274 -2.305991,-0.33781 -4.52402,-1.09955 -6.572396,-2.19794 -0.731318,-0.26552 -1.572548,-0.36694 -2.301902,-0.0357 z"
       style="fill:#434a64;fill-opacity:1;stroke:#434a64;stroke-width:0.264583px;stroke-linecap:butt;stroke-linejoin:miter;stroke-opacity:1"
       id="path488" />
    <path
       d="m 86.756658,267.19386 c 2.098803,-0.19329 3.969641,1.13152 5.927247,1.68234 3.761835,1.23226 7.797815,1.11659 11.627515,2.09085 2.3193,0.17022 4.42632,1.77785 6.67377,1.52573 1.82281,-1.50272 3.59603,0.31611 2.22126,2.09678 -1.38068,1.90631 -0.46209,4.80287 -2.19248,6.41549 -2.57862,-0.0339 -5.17496,-1.22612 -7.84518,-0.98925 -3.302582,-0.0161 -6.549068,-0.90825 -9.861223,-0.8462 -2.18425,-0.73715 -4.364586,-1.48845 -6.583009,-2.09587 -1.5702,-1.65325 -5.258027,-0.69934 -5.588942,-3.23432 0.299721,-2.48709 0.694656,-4.95402 0.578229,-7.47277 0.183858,-4.00978 3.326592,3.26787 5.042813,0.82722 z"
       style="fill:#2c3252;fill-opacity:1;stroke:#2c3252;stroke-width:0.264583px;stroke-linecap:butt;stroke-linejoin:miter;stroke-opacity:1"
       id="path430" />
    <path
       d="m 78.326721,266.61711 c 3.044916,0.13255 5.722382,1.73566 8.581284,2.59833 1.374913,0.26019 0.502826,1.76555 0.647207,2.67141 0.392781,1.40608 -1.07505,0.29485 -1.69313,0.12757 -1.708872,-0.44227 -3.459856,-0.71148 -5.189864,-1.04696 -1.368974,-0.14912 -2.739065,-0.3705 -4.028434,-0.8698 -0.904726,-0.38084 -2.604923,0.19891 -2.819916,-1.10102 0.09459,-1.1373 0.532221,-2.52704 1.712447,-2.95714 0.955054,-0.26206 1.897734,0.31042 2.790406,0.57761 z"
       style="fill:#434a64;fill-opacity:1;stroke:#434a64;stroke-width:0.264583px;stroke-linecap:butt;stroke-linejoin:miter;stroke-opacity:1"
       id="path445" />
    <path
       d="m 85.462004,267.10184 c 0.816897,-1.35631 2.063234,-2.36263 3.255298,-3.37195 0.334351,-0.25257 0.570131,-0.60787 0.845859,-0.8971 0.260469,0.19159 -0.120289,0.64283 -0.02658,0.94991 0.05402,0.79267 0.2516,1.57229 0.22261,2.37141 0.0043,0.73205 -0.02318,1.46937 -0.133782,2.19264 -0.184532,0.4116 -0.626305,0.081 -0.938297,0.0505 -1.017981,-0.29387 -1.984679,-0.73742 -2.958539,-1.14889 -0.09124,-0.0443 -0.180752,-0.0923 -0.266565,-0.14648 z"
       style="fill:#434a64;fill-opacity:1;stroke:#434a64;stroke-width:0.264583px;stroke-linecap:butt;stroke-linejoin:miter;stroke-opacity:1"
       id="path462" />
    <path
       d="m 111.10982,268.10338 c 0.46243,0.41575 1.30481,0.27045 1.6181,0.83567 0.10852,0.48003 0.0211,0.97938 0.30881,1.40369 0.11469,0.62289 -0.27269,1.20844 -0.19422,1.83675 0.22799,0.57078 -0.21853,0.89292 -0.70081,0.57547 -0.94593,-0.22988 -1.9255,-0.0838 -2.8872,-0.13534 -0.37353,-0.082 -1.05256,0.28727 -1.10033,-0.29155 0.0941,-0.59118 0.32057,-1.15748 0.51972,-1.72229 0.28455,-0.75409 0.60865,-1.4972 1.03175,-2.18496 0.39113,-0.33058 0.9522,-0.14264 1.40418,-0.31744 z"
       style="fill:#434a64;fill-opacity:1;stroke:#434a64;stroke-width:0.264583px;stroke-linecap:butt;stroke-linejoin:miter;stroke-opacity:1"
       id="path479" />
    <path
       d="m 85.943239,283.87559 c 1.498431,-0.10261 2.923852,0.58717 4.155319,1.36204 0.33417,0.49799 0.762032,0.91941 1.09867,1.41081 0.368051,0.5886 0.521706,1.77774 -0.395973,1.91148 -0.780043,0.10927 -0.848942,1.10165 -1.571312,1.33229 -1.070047,0.39192 -2.330386,-0.078 -3.017175,-0.96128 -0.488783,-0.63652 -1.302777,-1.10532 -1.495474,-1.91741 -0.0214,-0.7763 0.508602,-1.42086 0.604888,-2.1817 0.09225,-0.39067 0.37118,-0.6632 0.621057,-0.95623 z"
       style="fill:#e89d7d;fill-opacity:1;stroke:#e89d7d;stroke-width:0.264583px;stroke-linecap:butt;stroke-linejoin:miter;stroke-opacity:1"
       id="path506" />
    <path
       d="m 85.575743,289.00617 c 0.873062,0.64259 1.994149,0.60937 2.972417,0.98823 1.119204,0.40483 2.28679,0.71176 3.486588,0.66306 1.122785,0.0114 2.231677,-0.22626 3.353293,-0.21036 0.504098,0.23599 0.775466,-1.27233 0.857118,-0.68725 -0.191488,0.64623 0.583449,1.0776 0.509666,1.73278 0.06136,0.64393 0.332468,1.62597 -0.434114,1.94872 -1.567146,0.48092 -3.198433,0.79196 -4.834772,0.91724 -1.409683,0.14341 -2.810077,-0.19949 -4.082749,-0.79108 -0.797511,-0.39835 -1.657172,-0.62516 -2.497393,-0.90719 -0.893161,-0.24053 -1.293196,-1.30665 -0.798515,-2.07935 0.357315,-0.62946 0.875425,-1.16329 1.468461,-1.5748 z"
       style="fill:#e89d7d;fill-opacity:1;stroke:#e89d7d;stroke-width:0.264583px;stroke-linecap:butt;stroke-linejoin:miter;stroke-opacity:1"
       id="path515" />
    <path
       d="m 96.551279,288.35586 c -0.08035,0.82022 0.767,1.18512 1.331299,1.55461 0.602895,0.51397 0.410849,1.35791 0.199234,2.01044 -0.25773,0.78088 -0.03049,1.6091 -0.374864,2.35773 0.6091,-0.7263 1.634143,-0.2975 2.411662,-0.60471 0.79124,-0.31164 1.77016,-0.46504 2.29807,-1.19604 0.74761,-1.11488 0.30482,-2.50334 0.092,-3.70987 -0.23691,-0.99193 -0.56354,-2.02527 -1.26119,-2.79218 -0.63088,-0.46958 -1.292182,0.17154 -1.84592,0.44877 -0.986011,0.58945 -1.899,1.28946 -2.850325,1.93125 z"
       style="fill:#e89d7d;fill-opacity:1;stroke:#e89d7d;stroke-width:0.264583px;stroke-linecap:butt;stroke-linejoin:miter;stroke-opacity:1"
       id="path523" />
    <path
       d="m 213.45223,279.30586 c -1.32514,0.11509 -1.77516,1.75432 -2.40695,2.72626 -0.45787,0.96968 0.47863,1.90296 1.0085,2.17133 -1.27515,0.72658 -2.63455,2.31349 -1.95917,3.86791 0.34683,1.30206 2.01345,2.05002 1.02633,3.57555 0.0635,2.27988 2.9518,-0.11896 4.26631,0.53105 2.96755,0.21572 5.76672,1.47052 8.7304,1.63559 1.77161,0.0885 2.60205,-1.38137 2.94834,-2.81627 2.11052,-0.29084 0.25622,-2.26336 -0.0975,-3.30566 0.0557,-1.27269 0.14938,-2.62693 0.56229,-3.81834 0.86057,-1.09102 0.68333,-2.51254 1.32217,-3.72626 0.37752,-1.76451 0.13045,-3.7925 -0.94955,-5.27767 -0.9362,-0.90344 -2.2677,-2.19772 -3.68301,-1.62816 -2.16322,1.86632 -5.37486,1.61796 -7.56146,3.42238 -1.08075,1.18076 0.24578,2.56295 1.48594,2.79315 1.46564,0.59728 3.05849,0.39978 4.47713,-0.2162 1.82887,-0.94985 2.5774,2.62586 0.43725,1.85043 -2.11209,-0.18628 -3.75028,-1.87298 -5.9017,-1.91687 -1.23452,-0.12311 -2.47833,-0.0212 -3.7053,0.13178 z"
       style="fill:#e89d7d;fill-opacity:1;stroke:#e89d7d;stroke-width:0.264583px;stroke-linecap:butt;stroke-linejoin:miter;stroke-opacity:1"
       id="path553" />
    <path
       d="m 210.17394,272.76184 c 0.96107,-0.0761 1.46506,0.91203 1.68892,1.69714 0.4664,1.34591 0.78553,2.82991 0.50518,4.24341 -0.57189,0.66984 -1.8762,0.61527 -1.77585,1.83081 -0.22064,1.59939 -0.31577,3.2379 -0.92574,4.75466 -0.55105,1.34142 -0.91919,2.81426 -1.84492,3.95985 -0.86478,0.33026 -0.65216,-1.24047 -0.8298,-1.79762 -0.091,-1.163 -0.26948,-2.32302 -0.68071,-3.41906 -0.3371,-1.25641 -0.66761,-2.58614 -0.30969,-3.8755 0.35618,-1.64059 0.64909,-3.29225 0.87331,-4.95524 0.13949,-1.13998 0.99066,-2.1642 2.15756,-2.31925 0.3757,-0.0767 0.75935,-0.10323 1.14174,-0.1192 z"
       style="fill:#e89d7d;fill-opacity:1;stroke:#e89d7d;stroke-width:0.264583px;stroke-linecap:butt;stroke-linejoin:miter;stroke-opacity:1"
       id="path567" />
    <path
       sodipodi:nodetypes="ccccccccccccccccc"
       d="m 141.37872,160.44857 c 3.72806,-2.40489 8.13105,-3.22712 12.32486,-4.40043 3.28054,-0.6713 6.216,1.37531 8.99638,2.79223 3.27223,2.72382 5.94962,6.23588 8.015,9.95881 1.9345,3.14733 1.50381,6.86802 2.05265,10.3402 0.0555,2.45118 3.51854,-1.06391 3.86394,2.3193 0.87782,3.06907 -0.49046,6.40789 -2.18865,8.95056 -2.86854,1.86005 -1.52846,5.60542 -3.14394,8.12223 -1.39467,2.89375 -3.96397,5.02902 -6.27376,7.17139 -3.1707,2.0715 -6.86655,3.04345 -10.58053,3.46886 -3.02966,1.12816 -6.15154,0.1189 -8.59886,-1.82754 -2.64887,-2.78014 -5.48035,-6.03437 -7.45721,-9.31006 -0.41073,-3.12602 -2.35809,-5.09392 -3.27417,-7.98727 -1.80064,-3.43836 1.36224,-5.25076 -0.39233,-9.00437 0.33358,-3.23485 -0.52503,-6.35402 -0.94394,-9.49186 0.66514,-3.04033 1.15716,-6.63086 3.85032,-8.58961 1.15583,-0.97527 2.51487,-1.65493 3.75024,-2.51244 z"
       style="fill:#e89d7d;fill-opacity:1;stroke:#e89d7d;stroke-width:0.264583px;stroke-linecap:butt;stroke-linejoin:miter;stroke-opacity:1"
       id="path587" />
    <path
       d="m 146.37598,199.38067 c 2.14513,-0.4214 4.11108,-1.48371 6.28462,-1.78739 1.25169,-0.27873 2.52639,-0.4689 3.813,-0.39168 1.44576,0.10237 2.94601,-0.13508 4.34232,0.34652 -0.30647,0.54373 -0.80723,1.13902 -1.41366,1.38157 -1.19857,0.30856 -2.44638,0.18664 -3.66463,0.32777 -0.7189,0.29522 -1.4922,0.42359 -2.2647,0.34623 -0.70948,0.11542 -1.38784,0.36313 -2.11914,0.309 -0.75398,0.14982 -1.43291,-0.1663 -2.15185,-0.29953 -0.83247,-0.0749 -1.71707,0.59903 -2.4967,0.0933 -0.11557,-0.10266 -0.21667,-0.22007 -0.32926,-0.32578 z"
       style="fill:#c55742;fill-opacity:1;stroke:#c55742;stroke-width:0.264583px;stroke-linecap:butt;stroke-linejoin:miter;stroke-opacity:1"
       id="path601" />
    <path
       sodipodi:nodetypes="cccccccccccccccccccccc"
       d="m 135.19027,183.78035 c 0.93634,2.24898 0.48665,5.88764 1.56751,7.88859 0.72033,4.0236 1.9752,7.96716 3.97035,11.54565 1.39502,1.83928 2.39223,3.93616 4.28819,5.34152 1.63801,1.53478 3.07914,3.44993 5.39917,3.96144 1.81747,0.95062 4.0209,1.45494 5.89763,0.31774 3.84311,-1.04973 7.53454,-2.79732 10.92647,-4.89923 2.26996,-2.20609 1.95433,-5.83039 4.03783,-8.18159 1.64593,-2.06407 1.07794,-4.8666 1.61702,-7.29724 0.12218,-2.67318 -0.9542,-5.29627 -0.37953,-7.99602 1.22186,-1.39924 -1.46189,-4.08382 -1.21666,-1.3797 0.45894,2.03091 0.34465,4.58737 -1.70726,5.71812 -2.64737,1.20446 -3.31593,4.1293 -3.70476,6.72826 -0.59994,3.38873 -2.28947,-0.86072 -3.86727,-1.02822 -1.60682,-2.20572 1.9287,2.05771 0.77203,3.26547 -0.12651,2.365 -2.45853,3.60937 -4.61201,2.69918 -2.03779,-0.61858 -4.13771,0.42315 -6.14289,0.71556 -1.70445,1.26993 -3.98559,2.74025 -5.97474,1.04672 -1.7143,-0.3846 -1.21625,-4.4532 -2.88102,-2.09231 -3.3055,0.38529 -2.41405,-3.54633 -3.21682,-5.49718 -1.00569,-2.09491 -2.26206,-4.0502 -3.48519,-5.99658 -0.46294,-1.245 0.45855,-4.94538 -1.28805,-4.86018 z"
       style="fill:#7f491b;fill-opacity:1;stroke:#7f491b;stroke-width:0.264583px;stroke-linecap:butt;stroke-linejoin:miter;stroke-opacity:1"
       id="path609" />
    <path
       d="m 145.13849,195.39646 c 1.34794,0.15875 2.10376,-1.40052 3.44646,-1.36546 1.17302,-0.49499 2.31865,-1.09942 3.6113,-1.23734 1.73689,-0.31021 3.54636,-0.5952 5.25903,0.01 1.70942,0.67843 3.80631,0.13472 5.27165,1.45276 0.87167,0.93843 2.49781,2.7315 1.54578,3.96666 -1.19161,0.70374 -1.93273,-0.77777 -3.03979,-0.85963 -1.2713,-0.1545 -2.5031,-0.53079 -3.79527,-0.54171 -2.27326,-0.33994 -4.51081,0.32731 -6.64836,1.02155 -1.39195,0.39066 -2.87132,0.52755 -4.19888,1.11123 -0.65759,0.79793 -0.77924,2.16728 -1.93673,2.44147 -0.88076,-0.19435 -2.42378,-0.0188 -2.46475,-1.28011 -5e-5,-1.27471 0.62919,-2.54066 1.66441,-3.2962 0.31156,-0.56307 0.70547,-1.11169 1.28515,-1.42326 z"
       style="fill:#7f491b;fill-opacity:1;stroke:#7f491b;stroke-width:0.264583px;stroke-linecap:butt;stroke-linejoin:miter;stroke-opacity:1"
       id="path617" />
    <path
       d="m 155.97288,178.63727 c 0.30328,-0.81445 1.09043,-1.41596 1.95948,-1.47989 0.50052,-0.1097 1.01602,-0.25652 1.52587,-0.11691 0.64363,0.0626 1.31628,-0.10918 1.93882,0.13714 0.37413,0.16853 0.75786,0.34472 1.17236,0.3623 0.34183,0.15638 0.65471,0.4267 0.89525,0.69736 -0.10293,0.47777 -0.61523,0.64113 -1.05015,0.69041 -0.60951,0.14615 -1.14735,0.49914 -1.75477,0.65985 -0.55374,0.18585 -1.14555,0.27604 -1.72249,0.14582 -0.50024,-0.0144 -0.89576,-0.3344 -1.34119,-0.51209 -0.35115,-0.10472 -0.69655,-0.28465 -1.07643,-0.22907 -0.22641,-0.028 -0.3954,-0.20025 -0.54675,-0.35492 z"
       style="fill:#e2cfb7;fill-opacity:1;stroke:#e2cfb7;stroke-width:0.264583px;stroke-linecap:butt;stroke-linejoin:miter;stroke-opacity:1"
       id="path625" />
    <path
       d="m 140.69347,179.90171 c 0.65616,-0.88082 1.67356,-1.45419 2.75614,-1.60929 0.94992,-0.16572 1.98288,-0.1204 2.83286,0.37797 0.28654,0.15315 0.7182,0.24168 0.77312,0.62421 0.002,0.41717 -0.47949,0.55086 -0.80783,0.63525 -0.47289,0.0805 -0.9815,0.11959 -1.36458,0.44286 -0.42028,0.25387 -0.90794,0.37141 -1.38334,0.47451 -0.51201,0.0857 -1.00562,-0.1386 -1.49288,-0.26009 -0.47219,-0.15052 -0.93563,-0.35888 -1.31349,-0.68542 z"
       style="fill:#e2cfb7;fill-opacity:1;stroke:#e2cfb7;stroke-width:0.264583px;stroke-linecap:butt;stroke-linejoin:miter;stroke-opacity:1"
       id="path639" />
    <path
       d="m 158.35199,177.91581 c 0.45048,-0.95901 1.95189,-1.0748 2.7155,-0.46703 0.64058,0.96214 -0.69015,2.02778 -1.62238,1.90101 -0.56599,-0.089 -1.33837,-0.82881 -1.09312,-1.43398 z"
       style="fill:#547183;fill-opacity:1;stroke:#547183;stroke-width:0.264583px;stroke-linecap:butt;stroke-linejoin:miter;stroke-opacity:1"
       id="path653" />
    <path
       d="m 142.54214,179.32495 c 0.0815,1.13411 1.67635,1.7335 2.45836,0.88729 0.85022,-0.81147 -0.0679,-2.38153 -1.17919,-1.78298 -0.49229,0.10592 -1.27373,0.25299 -1.27917,0.89569 z"
       style="fill:#547183;fill-opacity:1;stroke:#547183;stroke-width:0.264583px;stroke-linecap:butt;stroke-linejoin:miter;stroke-opacity:1"
       id="path671" />
    <path
       d="m 155.54152,175.85329 c 1.01488,-0.041 1.75542,-0.83286 2.70783,-1.08171 0.65807,-0.25193 1.37169,-0.16153 2.03932,-0.3652 0.63382,-0.0883 1.28138,-0.0823 1.91882,-0.0405 0.82411,0.23472 1.43446,0.91854 2.14122,1.37683 0.53907,0.32797 0.83837,0.91827 1.36457,1.25482 0.11077,0.30968 0.30208,0.41396 0.0247,0.0827 -0.73783,-0.77988 -1.33588,-1.6775 -2.08404,-2.44981 -0.38248,-0.51554 -0.92857,-0.91355 -1.60156,-0.8898 -1.03594,-0.0715 -2.18767,-0.27457 -3.09367,0.38124 -1.0161,0.58504 -2.18266,0.87304 -3.33725,1.01159 -0.48394,0.0271 -1.22206,-0.98677 -1.42796,-0.17907 -0.064,0.58013 0.42223,1.08169 1.01264,0.94351 0.11254,-0.009 0.22431,-0.025 0.3354,-0.0446 z"
       style="fill:#7f491b;fill-opacity:1;stroke:#7f491b;stroke-width:0.264583px;stroke-linecap:butt;stroke-linejoin:miter;stroke-opacity:1"
       id="path700" />
    <path
       d="m 154.85136,178.13815 c 0.65995,-0.93786 1.79952,-1.36382 2.89304,-1.53161 0.92128,-0.14488 1.84227,-0.30596 2.76985,-0.40175 0.36726,-0.0149 0.70028,0.19017 1.03713,-0.0145 -0.1336,0.21479 -0.70417,-0.10936 -1.01855,-0.16051 -0.4821,-0.1253 -0.98421,-0.0663 -1.46102,0.0495 -0.51636,0.0591 -1.03556,-0.0417 -1.55192,0.0387 -0.82112,0.10896 -1.66927,0.0783 -2.46572,0.32825 -0.41359,0.15168 -0.87007,0.45945 -0.92456,0.92914 0.13,0.30935 0.49383,0.5101 0.72175,0.76272 z"
       style="fill:#d28767;fill-opacity:1;stroke:#d28767;stroke-width:0.264583px;stroke-linecap:butt;stroke-linejoin:miter;stroke-opacity:1"
       id="path708" />
    <path
       d="m 147.64448,175.63145 c -0.0755,0.49788 -0.15201,1.14926 -0.66231,1.38859 -0.55235,0.12133 -1.02307,-0.33575 -1.57384,-0.32518 -0.62451,-0.0335 -1.25106,-0.002 -1.87589,-0.018 -1.23188,0.0637 -2.36656,0.63393 -3.39063,1.28048 -0.35985,0.29334 -0.65093,0.68629 -0.84192,1.10897 -0.16665,0.27104 0.14956,-0.34334 0.0385,-0.47409 0.12159,-0.57976 0.62777,-0.9736 0.98284,-1.41611 0.72511,-0.59246 1.68514,-0.7597 2.56926,-0.98063 0.91015,-0.16971 1.86047,-0.35773 2.7825,-0.17723 0.43453,0.20589 0.88633,-0.0244 1.0692,-0.4515 0.11246,-0.39192 0.74911,-0.73835 0.83425,-0.14781 l 0.0361,0.10557 0.0319,0.10691 z"
       style="fill:#7f491b;fill-opacity:1;stroke:#7f491b;stroke-width:0.264583px;stroke-linecap:butt;stroke-linejoin:miter;stroke-opacity:1"
       id="path716" />
    <path
       d="m 147.94027,177.48375 c -0.0312,0.26784 0.15935,0.6771 -0.13645,0.83634 -0.2676,-0.058 -0.50605,-0.22553 -0.76463,-0.32332 -0.37574,-0.18802 -0.78848,-0.30278 -1.21099,-0.28545 -0.80825,-0.024 -1.62972,-0.10947 -2.4289,0.0522 -0.18939,4.8e-4 -0.50397,0.25719 -0.61482,0.10267 0.26631,0.0135 0.53404,-0.13797 0.79677,-0.23413 0.30795,-0.0413 0.61456,-0.11357 0.88323,-0.27501 0.5878,-0.23139 1.23629,-0.2272 1.85851,-0.22966 0.55303,0.0167 1.1257,0.0845 1.61728,0.35634 z"
       style="fill:#d28767;fill-opacity:1;stroke:#d28767;stroke-width:0.264583px;stroke-linecap:butt;stroke-linejoin:miter;stroke-opacity:1"
       id="path724" />
    <path
       d="m 148.81684,172.03779 c -0.0533,0.46716 0.0887,0.9243 0.24546,1.35787 0.1491,0.49138 0.11286,1.01068 0.0478,1.5124 0.0251,0.22814 -0.0416,0.50092 0.0395,0.69227 0.25947,-0.0767 0.34411,-0.42206 0.42249,-0.66015 0.0729,-0.40681 0.0433,-0.82371 0.0434,-1.23496 -0.0204,-0.3866 -0.0332,-0.77971 0.0765,-1.15561 0.0702,-0.32479 0.14787,-0.72882 -0.12085,-0.98793 -0.1651,-0.14662 -0.57299,-0.50332 -0.66539,-0.12031 -0.0414,0.19667 -0.0488,0.39954 -0.0889,0.59642 z"
       style="fill:#d28767;fill-opacity:1;stroke:#d28767;stroke-width:0.264583px;stroke-linecap:butt;stroke-linejoin:miter;stroke-opacity:1"
       id="path732" />
    <path
       d="m 152.03352,172.25962 c 0.0912,0.67262 0.22911,1.37086 0.0304,2.03823 -0.10711,0.3939 -0.18922,0.81235 -0.0718,1.21446 0.0708,0.29141 0.18328,0.57179 0.24753,0.86317 0.19206,0.12749 0.11001,-0.33985 0.13943,-0.46176 0.0389,-0.29548 -0.0173,-0.59909 0.0348,-0.8907 0.10995,-0.21872 0.26483,-0.42003 0.29386,-0.67156 0.0993,-0.53831 0.0173,-1.11902 -0.24579,-1.60077 -0.11009,-0.18876 -0.25564,-0.35712 -0.42844,-0.49107 z"
       style="fill:#d28767;fill-opacity:1;stroke:#d28767;stroke-width:0.264583px;stroke-linecap:butt;stroke-linejoin:miter;stroke-opacity:1"
       id="path740" />
    <path
       d="m 149.17425,184.74873 c -0.54742,1.22059 -0.0952,2.76004 -1.13922,3.79051 -0.63325,0.71005 -1.79621,2.72822 -0.11492,2.82905 1.09083,-0.27084 2.09296,0.25058 3.06955,0.65761 1.58875,0.45869 2.98474,-0.77034 4.37715,-1.30423 0.96156,-0.2146 2.85517,0.33259 2.81449,-1.18044 0.0561,-1.40373 -0.97291,-2.68509 -2.31468,-3.03243 -1.29751,-0.77719 -1.29907,-2.58211 -1.93508,-3.82871 -0.67087,-1.12366 -1.2891,-2.2995 -1.93996,-3.45478 -0.94621,-1.21928 -1.70251,0.50098 -1.38894,1.41059 0.0528,1.1669 -0.5182,2.20995 -0.95397,3.25508 -0.14658,0.29213 -0.30707,0.57708 -0.47442,0.85775 z"
       style="fill:#d28767;fill-opacity:1;stroke:#d28767;stroke-width:0.264583px;stroke-linecap:butt;stroke-linejoin:miter;stroke-opacity:1"
       id="path748" />
    <path
       sodipodi:nodetypes="scccccccccccccccccccss"
       d="m 139.24633,146.00484 c 2.37917,-2.00605 6.57138,-3.76234 9.78543,-3.56303 2.54749,1.50664 4.48586,2.17524 7.27056,3.36208 2.6291,2.34351 -4.20696,3.4993 -2.17826,6.42129 1.93657,1.66359 2.51515,3.63425 2.34969,6.00802 1.72563,2.62732 4.49825,4.58085 5.47218,7.7043 1.76661,2.13207 1.322,6.3441 -2.2269,5.44345 -0.75683,-0.89549 -1.56022,2.95083 -3.65689,1.79883 -2.22312,-0.61341 -4.93786,0.96543 -6.29093,-1.11659 -1.84029,2.34216 -4.79685,-1.00842 -5.23173,-1.5924 -2.12151,0.42999 -0.72037,-3.90076 -2.98469,-1.25018 -0.98545,1.69138 -3.45558,1.48378 -2.69236,-0.76272 -1.2777,1.93918 -4.28626,3.56518 -3.36121,6.44535 -0.95831,2.31059 -0.24858,4.76711 -0.0489,7.11761 -0.2661,2.51458 -2.73274,3.92227 -4.02275,5.53029 -2.92778,1.78441 -2.96517,-3.36074 -3.88415,-5.30003 -1.29392,-2.55957 -0.76759,-5.46294 -0.11829,-8.30337 0.66662,-3.23338 -1.0727,-6.9135 2.32099,-9.09712 1.46896,-2.21221 0.57102,-5.58282 2.8981,-7.24482 1.83215,-2.56218 1.09672,-3.54966 2.38574,-6.33594 0.6607,-2.52799 1.25167,-2.76695 3.05005,-4.2833 z"
       style="fill:#c37d49;fill-opacity:1;stroke:#c37d49;stroke-width:0.264583px;stroke-linecap:butt;stroke-linejoin:miter;stroke-opacity:1"
       id="path763" />
    <path
       sodipodi:nodetypes="cccccccccccccccccc"
       d="m 150.34559,143.24352 c 0.43206,3.19652 -1.89465,2.95285 -2.68564,5.99002 -1.08039,2.86843 0.61395,6.48402 3.7461,7.06076 4.18266,2.0394 6.68064,6.3213 8.2752,10.50172 0.4356,2.13881 2.8698,4.99826 4.31443,2.51978 2.97967,0.30208 4.9706,2.02185 5.35568,5.1234 0.69073,2.32716 1.41256,4.62859 1.21965,7.14532 0.91134,1.61653 2.46989,-2.24332 3.79121,-1.21092 1.72482,-1.47651 4.10437,-0.22197 5.9479,-0.79598 1.53713,1.30774 3.56731,0.85661 1.91029,-1.29107 -0.0887,-1.79602 1.40956,-3.47319 -0.55531,-5.10779 -1.31809,-2.17991 -0.49373,-5.47183 -2.78371,-7.08453 -1.68704,-1.63798 -1.98808,-3.10712 -1.35859,-5.13945 -0.82296,-2.3366 -2.98533,-3.91646 -3.5789,-6.41393 -1.1857,-2.96871 -4.13724,-4.63385 -5.45864,-7.55723 -2.11079,-1.80699 -2.74707,-2.52687 -5.15998,-4.01406 -2.55498,-2.41537 -7.28568,-2.37994 -10.57622,-1.72749 -0.96262,0.35062 -2.27336,0.99601 -2.40347,2.00145 z"
       style="fill:#7f491b;fill-opacity:1;stroke:#7f491b;stroke-width:0.264583px;stroke-linecap:butt;stroke-linejoin:miter;stroke-opacity:1"
       id="path771" />
    <path
       d="m 190.30754,265.14901 c -1.91226,0.12255 -1.92702,2.83786 -1.58523,4.26545 0.32892,2.01757 2.40815,3.26423 4.35435,3.08987 1.54308,0.20417 3.0316,0.85593 4.62189,0.57324 1.65027,-0.19783 3.28191,0.21633 4.92429,0.14428 1.97003,-0.15331 3.66084,-1.26665 5.47224,-1.91701 1.6373,-0.28711 3.66553,0.0367 4.82333,-1.44635 1.00926,-1.27835 0.91173,-3.62053 -0.72606,-4.35093 -1.98689,-1.15865 -4.32712,-0.56049 -6.4233,-0.10445 -2.07177,0.57807 -4.18239,-0.0255 -6.17678,-0.5927 -2.28612,-0.47962 -4.59357,0.11429 -6.89776,0.0361 -0.8022,0.0286 -1.60826,0.0982 -2.38697,0.30249 z"
       style="fill:#893e17;fill-opacity:1;stroke:#893e17;stroke-width:0.264583px;stroke-linecap:butt;stroke-linejoin:miter;stroke-opacity:1"
       id="path779" />
    <path
       d="m 205.51593,267.50043 c 0.42628,0.46876 -0.62816,0.70387 -0.44938,1.20231 0.26391,0.5511 0.98402,0.59041 1.51882,0.54269 0.89349,-0.12509 1.82343,-0.33252 2.52312,-0.94138 0.34495,-0.38927 0.93365,-0.70706 1.40445,-0.31874 0.35949,0.43733 1.01889,0.0563 0.97267,-0.4609 0.10354,-0.55751 -0.40004,-1.07205 -0.95912,-0.97423 -0.93581,0.067 -1.64174,0.8634 -2.59501,0.87756 -0.52661,0.12008 -0.85323,-0.29805 -1.22528,-0.5586 -0.46547,-0.0803 -0.84979,0.38145 -1.19027,0.63129 z"
       style="fill:#e2cfb7;fill-opacity:1;stroke:#e2cfb7;stroke-width:0.264583px;stroke-linecap:butt;stroke-linejoin:miter;stroke-opacity:1"
       id="path787" />
    <path
       d="m 100.46213,281.80856 c 1.4893,-1.09294 3.51678,-1.26587 4.79588,0.18798 1.90073,-0.12555 3.75645,-1.31085 5.73828,-0.56916 2.04609,0.64768 4.4478,1.00193 6.3165,-0.3326 1.70897,-1.27242 1.91288,-3.97991 4.04373,-4.75793 2.38333,0.39623 1.8829,3.80265 1.90205,5.63658 -0.59262,1.88952 -1.35131,3.85494 -2.45442,5.49603 -1.39563,0.7832 -3.36053,-1.34633 -4.49294,0.63692 -2.46283,1.643 -5.43364,0.50419 -8.06472,0.0964 -2.00361,0.39698 -3.11723,-1.77971 -5.02512,-1.48021 -1.89064,0.34178 -4.188373,-0.7433 -4.701338,-2.6751 -0.207703,-1.27999 1.025336,-1.7771 1.942098,-2.2389 z"
       style="fill:#893e17;fill-opacity:1;stroke:#893e17;stroke-width:0.264583px;stroke-linecap:butt;stroke-linejoin:miter;stroke-opacity:1"
       id="path796" />
    <path
       d="m 101.89176,282.96209 c -0.26876,0.45703 -0.75431,0.99092 -0.57338,1.54652 0.38187,0.33409 0.94744,0.0735 1.3932,0.0451 0.63473,-0.20768 1.0896,0.29243 1.59542,0.55855 0.53433,0.20428 1.13278,0.25368 1.69879,0.18522 0.56041,-0.061 0.89658,-0.62611 1.00465,-1.12898 -0.13335,-0.53306 -0.8303,-0.39744 -1.25263,-0.41059 -0.58673,0.0345 -1.29863,-0.007 -1.64641,-0.56035 -0.27517,-0.40439 -0.81196,-0.31283 -1.23308,-0.3122 -0.32938,0.0185 -0.65713,0.0596 -0.98656,0.0768 z"
       style="fill:#e2cfb7;fill-opacity:1;stroke:#e2cfb7;stroke-width:0.264583px;stroke-linecap:butt;stroke-linejoin:miter;stroke-opacity:1"
       id="path805" />
  </g>
</svg>
