<?xml version="1.0" encoding="UTF-8" standalone="no"?>
<svg
   xmlns:dc="http://purl.org/dc/elements/1.1/"
   xmlns:cc="http://creativecommons.org/ns#"
   xmlns:rdf="http://www.w3.org/1999/02/22-rdf-syntax-ns#"
   xmlns:svg="http://www.w3.org/2000/svg"
   xmlns="http://www.w3.org/2000/svg"
   xmlns:sodipodi="http://sodipodi.sourceforge.net/DTD/sodipodi-0.dtd"
   xmlns:inkscape="http://www.inkscape.org/namespaces/inkscape"
   sodipodi:docname="van-gogh.svg"
   inkscape:version="1.0 (4035a4fb49, 2020-05-01)"
   id="svg8"
   version="1.1"
   viewBox="0 0 317.5 158.75"
   height="600"
   width="1200">
  <defs
     id="defs2">
    <inkscape:path-effect
       lpeversion="1"
       is_visible="true"
       id="path-effect389"
       effect="spiro" />
    <inkscape:path-effect
       simplify_just_coalesce="false"
       simplify_individual_paths="false"
       helper_size="0"
       smooth_angles="360"
       threshold="0.000408163"
       steps="1"
       lpeversion="1"
       is_visible="true"
       id="path-effect387"
       effect="simplify" />
    <inkscape:path-effect
       lpeversion="1"
       is_visible="true"
       id="path-effect383"
       effect="spiro" />
    <inkscape:path-effect
       simplify_just_coalesce="false"
       simplify_individual_paths="false"
       helper_size="0"
       smooth_angles="360"
       threshold="0.000408163"
       steps="1"
       lpeversion="1"
       is_visible="true"
       id="path-effect381"
       effect="simplify" />
    <inkscape:path-effect
       lpeversion="1"
       is_visible="true"
       id="path-effect376"
       effect="spiro" />
    <inkscape:path-effect
       simplify_just_coalesce="false"
       simplify_individual_paths="false"
       helper_size="0"
       smooth_angles="360"
       threshold="0.000408163"
       steps="1"
       lpeversion="1"
       is_visible="true"
       id="path-effect374"
       effect="simplify" />
    <inkscape:path-effect
       lpeversion="1"
       is_visible="true"
       id="path-effect370"
       effect="spiro" />
    <inkscape:path-effect
       simplify_just_coalesce="false"
       simplify_individual_paths="false"
       helper_size="0"
       smooth_angles="360"
       threshold="0.000408163"
       steps="1"
       lpeversion="1"
       is_visible="true"
       id="path-effect368"
       effect="simplify" />
    <inkscape:path-effect
       lpeversion="1"
       is_visible="true"
       id="path-effect362"
       effect="spiro" />
    <inkscape:path-effect
       simplify_just_coalesce="false"
       simplify_individual_paths="false"
       helper_size="0"
       smooth_angles="360"
       threshold="0.000408163"
       steps="1"
       lpeversion="1"
       is_visible="true"
       id="path-effect360"
       effect="simplify" />
    <inkscape:path-effect
       lpeversion="1"
       is_visible="true"
       id="path-effect354"
       effect="spiro" />
    <inkscape:path-effect
       simplify_just_coalesce="false"
       simplify_individual_paths="false"
       helper_size="0"
       smooth_angles="360"
       threshold="0.000408163"
       steps="1"
       lpeversion="1"
       is_visible="true"
       id="path-effect352"
       effect="simplify" />
    <inkscape:path-effect
       lpeversion="1"
       is_visible="true"
       id="path-effect348"
       effect="spiro" />
    <inkscape:path-effect
       simplify_just_coalesce="false"
       simplify_individual_paths="false"
       helper_size="0"
       smooth_angles="360"
       threshold="0.000408163"
       steps="1"
       lpeversion="1"
       is_visible="true"
       id="path-effect346"
       effect="simplify" />
    <inkscape:path-effect
       lpeversion="1"
       is_visible="true"
       id="path-effect340"
       effect="spiro" />
    <inkscape:path-effect
       simplify_just_coalesce="false"
       simplify_individual_paths="false"
       helper_size="0"
       smooth_angles="360"
       threshold="0.000408163"
       steps="1"
       lpeversion="1"
       is_visible="true"
       id="path-effect338"
       effect="simplify" />
    <inkscape:path-effect
       lpeversion="1"
       is_visible="true"
       id="path-effect332"
       effect="spiro" />
    <inkscape:path-effect
       simplify_just_coalesce="false"
       simplify_individual_paths="false"
       helper_size="0"
       smooth_angles="360"
       threshold="0.000408163"
       steps="1"
       lpeversion="1"
       is_visible="true"
       id="path-effect330"
       effect="simplify" />
    <inkscape:path-effect
       lpeversion="1"
       is_visible="true"
       id="path-effect324"
       effect="spiro" />
    <inkscape:path-effect
       simplify_just_coalesce="false"
       simplify_individual_paths="false"
       helper_size="0"
       smooth_angles="360"
       threshold="0.000408163"
       steps="1"
       lpeversion="1"
       is_visible="true"
       id="path-effect322"
       effect="simplify" />
    <inkscape:path-effect
       lpeversion="1"
       is_visible="true"
       id="path-effect318"
       effect="spiro" />
    <inkscape:path-effect
       simplify_just_coalesce="false"
       simplify_individual_paths="false"
       helper_size="0"
       smooth_angles="360"
       threshold="0.000408163"
       steps="1"
       lpeversion="1"
       is_visible="true"
       id="path-effect316"
       effect="simplify" />
    <inkscape:path-effect
       lpeversion="1"
       is_visible="true"
       id="path-effect309"
       effect="spiro" />
    <inkscape:path-effect
       simplify_just_coalesce="false"
       simplify_individual_paths="false"
       helper_size="0"
       smooth_angles="360"
       threshold="0.000408163"
       steps="1"
       lpeversion="1"
       is_visible="true"
       id="path-effect307"
       effect="simplify" />
    <inkscape:path-effect
       lpeversion="1"
       is_visible="true"
       id="path-effect301"
       effect="spiro" />
    <inkscape:path-effect
       simplify_just_coalesce="false"
       simplify_individual_paths="false"
       helper_size="0"
       smooth_angles="360"
       threshold="0.000408163"
       steps="1"
       lpeversion="1"
       is_visible="true"
       id="path-effect299"
       effect="simplify" />
    <inkscape:path-effect
       lpeversion="1"
       is_visible="true"
       id="path-effect292"
       effect="spiro" />
    <inkscape:path-effect
       simplify_just_coalesce="false"
       simplify_individual_paths="false"
       helper_size="0"
       smooth_angles="360"
       threshold="0.000408163"
       steps="1"
       lpeversion="1"
       is_visible="true"
       id="path-effect290"
       effect="simplify" />
    <inkscape:path-effect
       lpeversion="1"
       is_visible="true"
       id="path-effect284"
       effect="spiro" />
    <inkscape:path-effect
       simplify_just_coalesce="false"
       simplify_individual_paths="false"
       helper_size="0"
       smooth_angles="360"
       threshold="0.000408163"
       steps="1"
       lpeversion="1"
       is_visible="true"
       id="path-effect282"
       effect="simplify" />
    <inkscape:path-effect
       lpeversion="1"
       is_visible="true"
       id="path-effect276"
       effect="spiro" />
    <inkscape:path-effect
       simplify_just_coalesce="false"
       simplify_individual_paths="false"
       helper_size="0"
       smooth_angles="360"
       threshold="0.000408163"
       steps="1"
       lpeversion="1"
       is_visible="true"
       id="path-effect274"
       effect="simplify" />
    <inkscape:path-effect
       lpeversion="1"
       is_visible="true"
       id="path-effect268"
       effect="spiro" />
    <inkscape:path-effect
       simplify_just_coalesce="false"
       simplify_individual_paths="false"
       helper_size="0"
       smooth_angles="360"
       threshold="0.000408163"
       steps="1"
       lpeversion="1"
       is_visible="true"
       id="path-effect266"
       effect="simplify" />
    <inkscape:path-effect
       lpeversion="1"
       is_visible="true"
       id="path-effect260"
       effect="spiro" />
    <inkscape:path-effect
       simplify_just_coalesce="false"
       simplify_individual_paths="false"
       helper_size="0"
       smooth_angles="360"
       threshold="0.000408163"
       steps="1"
       lpeversion="1"
       is_visible="true"
       id="path-effect258"
       effect="simplify" />
    <inkscape:path-effect
       lpeversion="1"
       is_visible="true"
       id="path-effect252"
       effect="spiro" />
    <inkscape:path-effect
       simplify_just_coalesce="false"
       simplify_individual_paths="false"
       helper_size="0"
       smooth_angles="360"
       threshold="0.000408163"
       steps="1"
       lpeversion="1"
       is_visible="true"
       id="path-effect250"
       effect="simplify" />
    <inkscape:path-effect
       lpeversion="1"
       is_visible="true"
       id="path-effect244"
       effect="spiro" />
    <inkscape:path-effect
       simplify_just_coalesce="false"
       simplify_individual_paths="false"
       helper_size="0"
       smooth_angles="360"
       threshold="0.000408163"
       steps="1"
       lpeversion="1"
       is_visible="true"
       id="path-effect242"
       effect="simplify" />
    <inkscape:path-effect
       lpeversion="1"
       is_visible="true"
       id="path-effect236"
       effect="spiro" />
    <inkscape:path-effect
       simplify_just_coalesce="false"
       simplify_individual_paths="false"
       helper_size="0"
       smooth_angles="360"
       threshold="0.000408163"
       steps="1"
       lpeversion="1"
       is_visible="true"
       id="path-effect234"
       effect="simplify" />
    <inkscape:path-effect
       lpeversion="1"
       is_visible="true"
       id="path-effect230"
       effect="spiro" />
    <inkscape:path-effect
       simplify_just_coalesce="false"
       simplify_individual_paths="false"
       helper_size="0"
       smooth_angles="360"
       threshold="0.000408163"
       steps="1"
       lpeversion="1"
       is_visible="true"
       id="path-effect228"
       effect="simplify" />
    <inkscape:path-effect
       lpeversion="1"
       is_visible="true"
       id="path-effect224"
       effect="spiro" />
    <inkscape:path-effect
       simplify_just_coalesce="false"
       simplify_individual_paths="false"
       helper_size="0"
       smooth_angles="360"
       threshold="0.000408163"
       steps="1"
       lpeversion="1"
       is_visible="true"
       id="path-effect222"
       effect="simplify" />
    <inkscape:path-effect
       lpeversion="1"
       is_visible="true"
       id="path-effect216"
       effect="spiro" />
    <inkscape:path-effect
       simplify_just_coalesce="false"
       simplify_individual_paths="false"
       helper_size="0"
       smooth_angles="360"
       threshold="0.000408163"
       steps="1"
       lpeversion="1"
       is_visible="true"
       id="path-effect214"
       effect="simplify" />
    <inkscape:path-effect
       lpeversion="1"
       is_visible="true"
       id="path-effect208"
       effect="spiro" />
    <inkscape:path-effect
       simplify_just_coalesce="false"
       simplify_individual_paths="false"
       helper_size="0"
       smooth_angles="360"
       threshold="0.000408163"
       steps="1"
       lpeversion="1"
       is_visible="true"
       id="path-effect206"
       effect="simplify" />
    <inkscape:path-effect
       lpeversion="1"
       is_visible="true"
       id="path-effect200"
       effect="spiro" />
    <inkscape:path-effect
       simplify_just_coalesce="false"
       simplify_individual_paths="false"
       helper_size="0"
       smooth_angles="360"
       threshold="0.000408163"
       steps="1"
       lpeversion="1"
       is_visible="true"
       id="path-effect198"
       effect="simplify" />
    <inkscape:path-effect
       lpeversion="1"
       is_visible="true"
       id="path-effect192"
       effect="spiro" />
    <inkscape:path-effect
       simplify_just_coalesce="false"
       simplify_individual_paths="false"
       helper_size="0"
       smooth_angles="360"
       threshold="0.000408163"
       steps="1"
       lpeversion="1"
       is_visible="true"
       id="path-effect190"
       effect="simplify" />
    <inkscape:path-effect
       lpeversion="1"
       is_visible="true"
       id="path-effect184"
       effect="spiro" />
    <inkscape:path-effect
       simplify_just_coalesce="false"
       simplify_individual_paths="false"
       helper_size="0"
       smooth_angles="360"
       threshold="0.000408163"
       steps="1"
       lpeversion="1"
       is_visible="true"
       id="path-effect182"
       effect="simplify" />
    <inkscape:path-effect
       lpeversion="1"
       is_visible="true"
       id="path-effect176"
       effect="spiro" />
    <inkscape:path-effect
       simplify_just_coalesce="false"
       simplify_individual_paths="false"
       helper_size="0"
       smooth_angles="360"
       threshold="0.000408163"
       steps="1"
       lpeversion="1"
       is_visible="true"
       id="path-effect174"
       effect="simplify" />
    <inkscape:path-effect
       lpeversion="1"
       is_visible="true"
       id="path-effect168"
       effect="spiro" />
    <inkscape:path-effect
       simplify_just_coalesce="false"
       simplify_individual_paths="false"
       helper_size="0"
       smooth_angles="360"
       threshold="0.000408163"
       steps="1"
       lpeversion="1"
       is_visible="true"
       id="path-effect166"
       effect="simplify" />
  </defs>
  <sodipodi:namedview
     inkscape:snap-global="false"
     inkscape:document-rotation="0"
     inkscape:window-maximized="0"
     inkscape:window-y="19"
     inkscape:window-x="0"
     inkscape:window-height="1061"
     inkscape:window-width="1920"
     units="px"
     showgrid="false"
     inkscape:current-layer="layer1"
     inkscape:document-units="mm"
     inkscape:cy="280.61252"
     inkscape:cx="603.14599"
     inkscape:zoom="1.4"
     inkscape:pageshadow="2"
     inkscape:pageopacity="0.0"
     borderopacity="1.0"
     bordercolor="#666666"
     pagecolor="#ffffff"
     id="base" />
  <metadata
     id="metadata5">
    <rdf:RDF>
      <cc:Work
         rdf:about="">
        <dc:format>image/svg+xml</dc:format>
        <dc:type
           rdf:resource="http://purl.org/dc/dcmitype/StillImage" />
        <dc:title></dc:title>
      </cc:Work>
    </rdf:RDF>
  </metadata>
  <g
     transform="translate(0,-138.25001)"
     id="layer1"
     inkscape:groupmode="layer"
     inkscape:label="Layer 1">
    <path
       d="m 177.81656,211.84543 c 4.01822,-0.97981 5.02721,4.13955 2.91743,6.65672 -0.85993,3.42516 -0.60166,7.02594 -0.52893,10.50205 0.78701,3.0858 2.68169,5.85192 2.66643,9.14819 0.21653,3.74863 -0.16536,7.64511 -1.41361,11.1741 -3.54123,5.97764 -10.59577,8.75546 -17.29158,8.96316 -4.09109,0.23247 -8.20456,0.44756 -12.2006,1.40754 -3.80051,0.74662 -4.77849,-3.32402 -7.07295,-5.25924 -3.27991,-4.42514 -4.96485,-9.76452 -7.77207,-14.47855 -2.58769,-3.97507 3.73489,-5.52876 6.61436,-4.53158 4.49383,0.85181 9.07931,-1.03736 13.54817,0.32598 3.96517,0.81701 8.0611,-1.10339 9.92696,-4.70648 2.32612,-3.3196 2.196,-7.61315 4.4225,-10.98349 1.03119,-2.76254 2.05364,-5.62279 4.79172,-7.18808 0.46054,-0.34817 0.92827,-0.68668 1.39217,-1.03032 z"
       style="fill:#f6ce5c;stroke:#f6ce5c;stroke-width:0.264583px;stroke-linecap:butt;stroke-linejoin:miter;stroke-opacity:1;fill-opacity:1"
       id="path164" />
    <path
       sodipodi:nodetypes="ccccccccccccc"
       d="m 133.67031,184.13868 c -4.62772,-0.0621 -9.24733,0.36472 -13.85957,0.67227 -2.03566,0.31779 -4.07674,0.67384 -6.09354,1.06207 -1.6782,0.72872 -2.90593,2.81387 -1.94336,4.56679 0.63083,1.47017 1.77037,2.56032 3.02024,3.52042 1.11764,1.52289 2.79286,2.43401 4.45503,3.23636 1.80064,0.93165 5.12515,3.49822 7.35161,3.1006 1.63787,-0.31739 0.65953,-2.30659 1.09593,-3.74802 0.80611,-1.5992 2.7547,-2.10445 4.31997,-2.66154 1.91689,-0.61929 3.97608,-0.64531 5.89204,-1.21542 1.81673,-0.7454 1.24635,-3.15229 -0.33774,-3.82156 -1.3361,-0.89723 -3.60429,-1.33882 -3.56834,-3.3435 -0.0624,-0.46478 -0.11352,-0.94547 -0.33227,-1.36847 z"
       style="fill:#a34422;fill-opacity:1;stroke:#a34422;stroke-width:0.264583px;stroke-linecap:butt;stroke-linejoin:miter;stroke-opacity:1"
       id="path172" />
    <path
       d="m 137.96003,228.64984 c -3.58823,2.89119 -7.13996,5.77571 -11.59411,7.26872 -9.83521,4.68443 -18.61564,11.29584 -28.048793,16.63405 -4.783066,1.81166 -7.897286,6.12958 -11.363553,9.64332 -3.679138,4.20881 -3.085816,10.05834 -3.667237,15.23294 0.04005,4.5113 1.230917,10.23483 6.251477,11.62814 6.787519,2.24065 13.978226,2.65147 21.015756,3.58014 4.98644,0.55599 9.97404,0.12301 14.91579,-0.58914 5.89121,-0.59136 11.83176,-1.1796 17.73122,-0.97455 3.0989,-0.37358 11.12394,-1.06162 10.63907,-2.3252 -6.62951,-3.53898 -14.6339,-6.44456 -18.4054,-13.51061 -3.18922,-5.94248 -3.47729,-12.89889 -1.91664,-19.34067 1.90523,-5.14936 0.68554,-10.40301 0.51653,-15.65605 -0.11578,-4.36499 2.87648,-7.64818 3.92589,-11.59109 z"
       style="fill:#9398b4;stroke:#9398b4;stroke-width:0.264583px;stroke-linecap:butt;stroke-linejoin:miter;stroke-opacity:1;fill-opacity:1"
       id="path180" />
    <path
       sodipodi:nodetypes="ccccccccccccccc"
       d="m 184.95007,235.08438 c 3.9974,-0.39663 9.84378,4.8888 13.03824,8.30311 5.60324,3.75683 8.86381,9.88802 13.31463,14.80621 3.25538,3.25047 5.33677,7.46831 8.77622,10.54078 3.20594,6.19512 7.96815,12.15174 8.14002,19.45657 -1.04489,5.63901 -8.57529,4.34808 -12.68426,3.29043 -6.24224,-0.59334 -12.51569,1.10163 -18.73816,-0.17724 -6.8965,-0.87914 -13.80022,0.0785 -20.68231,0.39609 -6.3512,-0.28638 -12.80389,-1.10973 -19.0349,0.62819 -4.43788,-0.28245 -12.445,1.05925 -14.48359,-3.09236 3.86855,-2.59168 9.29202,-3.38061 11.83767,-7.84654 3.05359,-4.32089 3.41828,-10.18355 7.71817,-13.72014 3.99303,-3.75591 9.1456,-5.86826 13.78683,-8.57832 5.08651,-4.15802 8.84567,-10.06565 10.25796,-16.4679 z"
       style="fill:#9398b4;stroke:#9398b4;stroke-width:0.264583px;stroke-linecap:butt;stroke-linejoin:miter;stroke-opacity:1;fill-opacity:1"
       id="path188" />
    <path
       d="m 137.29451,242.07065 c 2.88098,4.83135 6.68946,9.74596 12.21773,11.58759 2.43252,0.56743 4.66759,1.64238 7.06013,2.3183 2.18754,1.28301 3.10109,4.03294 3.93452,6.30225 0.50359,2.99995 -1.66716,5.60293 -2.96075,8.12944 -2.16642,3.37839 -3.76981,7.10972 -4.50289,11.05359 -0.86296,1.82539 -2.7841,3.51354 -4.87421,3.60387 -2.46435,0.0349 -5.00843,-0.47438 -6.83797,-2.25832 -3.41379,-2.8552 -3.78226,-7.53511 -5.07164,-11.50808 -1.03195,-3.49319 -1.16051,-7.17298 -0.42752,-10.73992 0.29972,-3.25666 0.40335,-6.5641 0.14536,-9.82742 -0.67936,-2.68483 -0.51493,-5.61031 0.43883,-8.19945 0.20221,-0.27522 0.53157,-0.46501 0.87841,-0.46185 z"
       style="fill:#d4dcd3;stroke:#d4dcd3;stroke-width:0.264583px;stroke-linecap:butt;stroke-linejoin:miter;stroke-opacity:1;fill-opacity:1"
       id="path196" />
    <path
       sodipodi:nodetypes="ccccccccccccccccc"
       d="m 180.06042,228.42801 c -0.87372,-2.66646 -0.0825,-7.20589 3.1922,-3.90471 2.53844,2.71569 3.27819,6.65449 4.0597,10.18622 0.80406,5.95339 1.11161,12.53106 -2.24823,17.81134 -1.80139,3.6516 -4.27707,7.10529 -4.40761,11.35051 -1.03073,3.74511 1.43255,7.50112 0.15775,11.16811 -2.93453,2.42718 -6.86815,0.17726 -8.71916,-2.48736 -2.55174,-1.23079 -7.81321,-6.87565 -8.73934,-1.75092 -0.43086,4.56015 -1.61172,8.97833 -2.63318,13.43387 -1.08407,3.55597 -5.23986,5.62956 -8.79034,4.72771 -2.2621,1.06371 -6.94972,3.94387 -6.38522,-0.95552 -0.11122,-4.34103 0.007,-9.0352 3.07874,-12.42807 2.18491,-4.52289 4.86482,-8.8248 8.46907,-12.36693 3.48974,-5.55269 10.11981,-7.64099 15.22975,-11.29743 3.30483,-2.71606 5.95266,-5.52263 8.05731,-8.97279 2.46474,-3.45189 3.87388,-8.6855 1.82598,-12.63182 -0.68161,-0.66483 -1.39102,-1.30295 -2.14742,-1.88221 z"
       style="fill:#6b7098;stroke:#6b7098;stroke-width:0.264583px;stroke-linecap:butt;stroke-linejoin:miter;stroke-opacity:1;fill-opacity:1"
       id="path212" />
    <path
       sodipodi:nodetypes="cccccccccccccccc"
       d="m 179.83296,227.32644 c 3.26007,3.04185 4.53029,8.67323 2.41906,12.61665 -0.72753,2.92207 -3.12947,4.79811 -4.79759,7.11257 -2.03585,2.63969 -3.81431,5.57332 -6.78624,7.28685 -3.79616,2.09717 -6.58894,5.51884 -9.78427,8.38505 -1.506,1.62805 -4.75276,5.75018 -5.44564,1.18557 -1.85083,-2.78237 -5.13374,-4.17568 -8.40055,-4.415 -2.66449,-1.2641 -8.2246,1.43543 -8.63347,-2.3403 -0.66964,-5.15396 0.0468,-10.48088 -1.73922,-15.46717 1.29295,-0.10816 4.52791,3.09822 6.29149,4.48415 1.7792,2.18059 4.29614,3.60559 6.85499,4.58815 2.78865,1.68728 6.25344,1.30259 9.39264,1.19179 2.74477,-0.45408 5.11632,-2.08379 7.74368,-2.88605 4.35726,-2.03165 9.4026,-3.87695 11.63,-8.52247 1.21473,-2.86288 3.12226,-5.95331 2.51484,-9.14209 -0.47205,-1.145 -1.85729,-2.76688 -1.25972,-4.0777 z"
       style="fill:#ece6df;fill-opacity:1;stroke:#ece6df;stroke-width:0.264583px;stroke-linecap:butt;stroke-linejoin:miter;stroke-opacity:1"
       id="path204" />
    <path
       d="m 129.3649,232.73858 c -0.47827,3.75678 -2.69763,6.93196 -5.18189,9.64769 -2.94266,3.96921 3.57916,4.75908 3.66744,8.47362 1.27959,3.06346 1.7053,6.63051 -0.90068,9.18332 -2.60736,3.36597 -4.17656,7.36837 -6.59135,10.85308 0.0857,3.75113 5.15176,3.88208 7.40296,6.02385 3.8138,1.98422 3.58106,7.25021 7.39541,9.0284 3.43652,1.86952 7.53271,2.83968 9.97174,6.15123 0.72213,1.67831 4.96165,4.83082 3.6511,1.12187 -1.98934,-2.57227 -1.27706,-5.93648 -2.35884,-8.76361 -2.23301,-4.07727 -6.41757,-7.01465 -7.27284,-11.81126 -1.30949,-3.49114 -1.71363,-7.27741 -0.85694,-10.92607 0.0118,-3.82344 -0.23675,-7.64288 -0.0837,-11.46559 -0.57173,-4.09118 -1.76221,-8.00647 -2.60175,-12.05903 0.27415,-3.12577 -3.63339,-5.56403 -1.84662,-8.79509 1.72749,-3.70976 -2.99385,2.7668 -4.39401,3.33759 z"
       style="fill:#6b7098;stroke:#6b7098;stroke-width:0.264583px;stroke-linecap:butt;stroke-linejoin:miter;stroke-opacity:1;fill-opacity:1"
       id="path232" />
    <path
       d="m 182.57697,216.4619 c 1.12963,2.38591 4.17106,2.48776 6.43656,2.0769 2.72116,-0.44797 5.46404,-0.71955 8.20404,-0.99524 2.96573,-0.47455 5.62087,-1.94628 8.44666,-2.87277 1.74676,-0.99076 3.80642,-1.37175 5.42324,-2.57328 1.41772,-1.16254 0.60175,-3.04207 -0.11054,-4.34332 -0.90157,-1.67481 -2.86964,-2.28298 -4.2512,-3.47305 -2.31853,-1.55148 -5.10717,-2.15333 -7.43142,-3.69762 -1.8118,-1.16892 -3.81946,-0.0721 -5.76847,-0.15307 -2.03628,0.45109 -1.85683,2.80273 -1.94534,4.41039 -0.64132,1.7505 -1.11235,3.66173 -2.49378,5.00275 -1.33765,1.84516 -3.33059,3.50644 -5.69742,3.54646 -1.83015,-0.0664 -2.03001,2.07338 -0.81233,3.07185 z"
       style="fill:#e4a900;stroke:#e4a900;stroke-width:0.264583px;stroke-linecap:butt;stroke-linejoin:miter;stroke-opacity:1;fill-opacity:1"
       id="path240" />
    <path
       sodipodi:nodetypes="cccccccccccc"
       d="m 128.28427,199.94469 c -1.50542,0.25564 -2.51859,0.22431 -4.49875,-0.53837 -2.77251,-1.2205 -1.87695,-1.22948 -2.98691,-1.51917 -4.77667,-2.80445 -2.64655,-0.95826 -3.7892,-2.04412 -0.83253,-0.5202 -1.29436,-1.38432 -2.72201,-1.74488 -1.71259,0.80496 -3.24944,2.13193 -4.13543,3.8162 -0.45336,0.58273 1.40453,1.24046 2.45636,1.47237 2.87343,0.95893 5.96452,2.43596 9.04761,2.79788 1.78887,0.42769 2.80958,0.3769 4.46493,0.75303 1.49195,0.20805 3.27915,0.38745 4.48134,-0.70772 1.23997,-1.00668 -0.51052,-1.82147 -1.41675,-2.0189 -0.28774,-0.12992 -0.59139,-0.20867 -0.90119,-0.26632 z"
       style="fill:#e4a900;fill-opacity:1;stroke:#e4a900;stroke-width:0.264583px;stroke-linecap:butt;stroke-linejoin:miter;stroke-opacity:1"
       id="path248" />
    <path
       d="m 126.45419,181.5295 c -4.53118,2.45658 1.84669,7.43328 -0.93096,10.36108 -3.59299,4.07303 3.27917,7.66855 -0.0812,11.63612 -2.79509,3.65535 0.94468,7.19698 2.55164,10.37579 1.57289,5.17028 4.2363,10.01078 5.31582,15.3627 1.66177,3.71304 3.65259,7.31172 5.75379,10.77176 3.4802,4.46767 9.65108,4.95764 14.88208,4.9178 5.27423,-0.93491 9.34059,-5.0087 12.92463,-8.69886 4.25147,-5.97488 10.17034,-10.74166 13.56015,-17.29929 1.60668,-4.42831 0.47737,-9.28492 1.634,-13.84028 -0.34855,-4.78541 4.82263,-6.05726 6.80387,-9.55241 0.61205,-4.2169 -3.66259,-7.90049 -7.79997,-8.07443 -4.52597,-2.26633 -9.59202,-1.74334 -14.29119,-3.01999 -3.68805,-2.18867 -7.96087,-1.63026 -11.95928,-2.60499 -5.03069,-1.21733 -10.24719,-0.87306 -15.30273,-1.94639 -4.17861,0.22726 -8.76868,-1.01971 -12.49503,1.42067 z"
       style="fill:#f1d9a2;stroke:#f1d9a2;stroke-width:0.264583px;stroke-linecap:butt;stroke-linejoin:miter;stroke-opacity:1;fill-opacity:1"
       id="path256" />
    <path
       d="m 125.18183,190.50181 c 2.30088,2.06126 5.12431,-0.87434 7.52291,-1.19861 2.21225,0.45883 4.01255,-1.6044 6.27772,-0.85533 2.66379,0.18743 5.38603,-0.24716 7.91222,0.28522 2.4504,-0.078 4.92396,-0.51427 7.32718,0.55179 2.43553,1.24255 4.93867,1.35736 7.53691,1.69621 2.20559,0.26681 4.24522,1.20274 5.89733,2.03119 -0.25616,2.01437 2.47201,-0.009 2.79955,1.59353 2.03444,-0.84358 2.71286,1.00472 4.16201,1.66976 1.16724,1.78125 3.37102,1.73799 4.74537,2.7451 0.83137,0.86483 2.79536,0.81982 3.51573,2.0023 1.07098,0.20358 1.92496,-1.93892 3.46986,-1.88474 1.73923,-1.41037 5.29746,-1.68465 4.26194,-4.55355 2.23831,-1.60594 -1.90361,-0.48924 -1.49103,-2.57227 0.43712,-2.79671 -2.11965,-4.09423 -4.23527,-4.80777 -0.46035,-0.77876 1.65895,0.27576 0.48405,-1.0248 -2.70986,0.97462 -4.09763,-2.49095 -6.79339,-1.40032 -2.59468,-0.72446 -5.46316,-0.34154 -7.59138,-2.26686 -2.75075,-0.1369 -5.34709,-1.141 -8.03366,-1.6762 -2.97643,-0.38256 -5.92109,-0.32266 -8.66022,-1.751 -2.76862,-0.82828 -5.43037,-1.22259 -8.30453,-0.91074 -2.44558,0.0467 -4.89203,0.3915 -7.32047,-0.10974 -3.3122,0.0725 -6.97407,-0.93612 -9.92006,1.08197 -2.27705,0.45087 -5.9663,0.97275 -5.03351,3.99664 -1.87489,1.70936 1.2198,3.96396 0.52769,6.14289 0.18853,0.49254 0.62121,0.8173 0.94305,1.21533 z"
       style="fill:#cb661a;stroke:#cb661a;stroke-width:0.264583px;stroke-linecap:butt;stroke-linejoin:miter;stroke-opacity:1;fill-opacity:1"
       id="path264" />
    <path
       d="m 183.20442,199.69372 c 0.73925,-2.13512 2.84658,-3.51639 5.00023,-3.88621 1.49736,-0.0569 2.37468,1.39157 3.30106,2.34171 0.65067,1.25247 0.27089,2.75962 0.77195,4.0744 0.11626,2.48824 -1.19777,4.71478 -1.66179,7.10049 -0.89946,2.51462 -4.07367,2.69101 -5.52229,4.73513 -1.11309,1.20119 -1.40328,2.96544 -2.61424,4.07208 -1.07009,0.99299 -2.84277,1.26466 -2.92649,-0.62198 -0.85075,-3.22541 -1.01983,-6.61011 -0.85906,-9.93102 0.0287,-1.3027 0.35916,-2.57379 1.12895,-3.63975 0.32775,-1.18359 0.88921,-2.24379 1.83012,-3.06768 0.34502,-0.58285 0.92103,-0.96011 1.55156,-1.17717 z"
       style="fill:#f1d9a2;stroke:#f1d9a2;stroke-width:0.264583px;stroke-linecap:butt;stroke-linejoin:miter;stroke-opacity:1;fill-opacity:1"
       id="path272" />
    <path
       d="m 190.05419,202.8152 c 0.1783,-1.03786 0.19927,-2.39726 -0.77263,-3.0581 -0.77714,-0.39074 -1.80578,-0.3746 -2.56142,0.0583 -0.95059,0.84895 -1.70107,1.90289 -2.48863,2.90062 -0.70963,0.94568 -1.49571,1.92744 -1.58643,3.15714 -0.17531,1.39725 0.01,2.84397 -0.49075,4.19182 -0.12046,0.5151 -0.91516,1.76021 0.18176,1.58767 0.75733,-0.15136 1.66617,-0.41548 2.06152,-1.1305 -0.0198,-0.7785 -0.0852,-1.58865 0.59447,-2.16425 0.53064,-0.51499 -1.09226,-0.32733 -0.93621,-1.13836 -0.25858,-1.28471 0.15273,-2.62315 0.93649,-3.65045 0.27562,-0.64149 0.63587,-1.20553 1.20157,-1.6372 0.57101,-0.58845 1.28624,-1.04484 2.00978,-1.40634 0.76837,0.0998 0.99746,1.02104 1.4066,1.57415 0.14029,0.24309 0.28226,0.48574 0.44388,0.71547 z"
       style="fill:#f6ce5c;stroke:#f6ce5c;stroke-width:0.264583px;stroke-linecap:butt;stroke-linejoin:miter;stroke-opacity:1;fill-opacity:1"
       id="path280" />
    <path
       d="m 137.43473,227.80277 c 1.22146,-0.88002 2.81675,-0.59272 4.18984,-1.02368 2.46783,-0.33316 5.01885,-0.17708 7.40472,0.54668 1.30376,0.49812 2.5763,1.08925 3.75508,1.83515 0.83389,0.41351 1.56139,1.01948 2.42452,1.37653 0.72581,0.47514 0.1803,1.68117 -0.6302,1.60733 -1.07165,0.24856 -2.19663,0.20938 -3.27807,0.42716 -0.82283,0.16151 -1.49086,0.74781 -2.33721,0.84001 -1.45779,0.26037 -2.94964,-0.0961 -4.29801,-0.64975 -1.15178,-0.11327 -2.35212,0.70191 -3.45037,0.0768 -0.9945,-0.62304 -1.8488,-1.49738 -2.30775,-2.5921 -0.12675,-0.65598 -0.66111,-1.0583 -1.27225,-1.23919 -0.64537,-0.16354 -0.61625,-0.80462 -0.2003,-1.20491 z"
       style="fill:#f39b7f;stroke:#f39b7f;stroke-width:0.264583px;stroke-linecap:butt;stroke-linejoin:miter;stroke-opacity:1;fill-opacity:1"
       id="path288" />
    <path
       d="m 135.98808,174.31227 c -4.06314,-0.21528 -10.64828,-0.97777 -8.26363,-6.55919 0.99845,-3.12938 1.66982,-6.39944 3.07061,-9.37772 0.55976,-3.84328 2.7759,-7.06865 5.49969,-9.73679 3.22405,-3.89678 8.01749,-5.45586 12.60951,-7.07573 5.38551,-1.25555 11.53367,-0.33443 15.65686,3.57662 5.53156,3.89352 13.30932,3.57437 18.14834,8.68554 3.20925,2.8587 6.95445,5.33402 8.62003,9.49979 1.01621,3.21103 7.47476,9.12344 1.80402,10.87055 -4.95839,1.05844 -9.99929,0.70631 -15.00965,0.53733 -8.47467,0.13639 -17.01592,0.30068 -25.37019,-1.34473 -5.00041,-0.38265 -10.05041,-0.19342 -15.03795,0.13183 -0.61524,0.16572 -1.19319,0.44944 -1.72764,0.7925 z"
       style="fill:#efc60b;stroke:#efc60b;stroke-width:0.264583px;stroke-linecap:butt;stroke-linejoin:miter;stroke-opacity:1;fill-opacity:1"
       id="path297" />
    <path
       sodipodi:nodetypes="ccccccccc"
       d="m 152.61884,201.21129 c 0.65726,-1.02042 2.09974,-1.54902 3.04948,-2.16568 1.29381,-0.53652 2.63358,-0.41901 4.03348,-0.45766 0.94198,-0.0268 1.79149,0.44686 2.4161,1.14393 0.52295,0.75613 1.90138,0.92063 2.06067,1.79937 -0.82993,-0.12749 -1.55992,0.42696 -2.18017,0.91856 -0.88818,0.58638 -1.87272,1.10503 -2.96998,1.05464 -1.81058,0.0697 -3.41901,-0.87008 -4.96116,-1.68833 -0.4606,-0.26249 -1.18423,-0.0221 -1.44842,-0.60483 z"
       style="fill:#b5bec4;stroke:#b5bec4;stroke-width:0.264583px;stroke-linecap:butt;stroke-linejoin:miter;stroke-opacity:1;fill-opacity:1"
       id="path305" />
    <path
       d="m 128.01919,199.52538 c 0.0572,-1.06588 0.79344,-2.1211 1.88358,-2.31874 1.26759,-0.32892 2.60429,-0.34166 3.90016,-0.20342 1.22672,0.16869 2.30163,0.83778 3.3574,1.44017 0.3871,0.19766 1.34567,0.85423 0.48592,1.06356 -0.62968,0.27415 -1.15596,0.71028 -1.66013,1.16407 -0.67569,0.4565 -1.4818,0.65714 -2.24315,0.92096 -1.03071,0.21245 -2.09456,0.0439 -3.12271,-0.10576 -0.61976,-0.11108 -1.28725,-0.32491 -1.66148,-0.86237 -0.42128,-0.23028 -0.705,-0.60016 -0.90163,-1.03172 z"
       style="fill:#b5bec4;stroke:#b5bec4;stroke-width:0.264583px;stroke-linecap:butt;stroke-linejoin:miter;stroke-opacity:1;fill-opacity:1"
       id="path320" />
    <path
       d="m 156.36548,198.8377 c -0.25847,0.20353 -0.71938,0.17579 -0.78546,0.58236 -0.22717,0.70612 0.19622,1.40466 0.61051,1.94668 0.41359,0.61089 0.98885,1.13225 1.71056,1.33919 0.66624,0.21433 1.37266,0.37951 2.07559,0.3369 0.55411,-0.0959 1.06513,-0.40055 1.46818,-0.78352 0.44047,-0.53887 0.67929,-1.22821 0.7837,-1.9088 0.0682,-0.56472 -0.41365,-0.97269 -0.78355,-1.32134 -0.51854,-0.46822 -1.22062,-0.64578 -1.90529,-0.63946 -0.75157,0.006 -1.49807,-0.0893 -2.24798,-0.10739 -0.41657,-0.035 -0.69331,0.25008 -0.92626,0.55538 z"
       style="fill:#7c9e68;stroke:#7c9e68;stroke-width:0.264583px;stroke-linecap:butt;stroke-linejoin:miter;stroke-opacity:1;fill-opacity:1"
       id="path328" />
    <path
       d="m 131.2482,196.9965 c -0.79165,0.2692 -1.14735,1.18428 -1.06221,1.96478 0.0361,0.62051 0.39294,1.21681 0.9664,1.48144 0.86524,0.49629 1.89618,0.84795 2.90073,0.66022 0.51657,-0.10202 0.98291,-0.44528 1.18717,-0.9378 0.25476,-0.52097 0.67641,-1.05702 0.53952,-1.67221 -0.10544,-0.52155 -0.46177,-1.05316 -1.01951,-1.14695 -0.40944,-0.0769 -0.82348,-0.13487 -1.21363,-0.28886 -0.5425,-0.18459 -1.1215,-0.16875 -1.68034,-0.0806 -0.20518,0.0207 -0.41207,0.0345 -0.61813,0.02 z"
       style="fill:#7c9e68;stroke:#7c9e68;stroke-width:0.264583px;stroke-linecap:butt;stroke-linejoin:miter;stroke-opacity:1;fill-opacity:1"
       id="path336" />
    <path
       d="m 181.26091,198.58259 c -0.0737,1.30133 2.18099,3.12096 0.45529,3.32926 0.16564,1.0665 2.44519,2.67175 0.22447,2.47979 -0.72561,1.0635 1.99293,3.29701 0.1621,2.59543 0.98692,0.94516 2.19424,2.70046 -0.0122,2.74659 -0.44986,1.4326 1.67384,2.4585 -0.61105,3.32559 0.70604,1.15093 1.08871,2.14946 0.61483,3.23163 1.5805,0.8065 -0.3847,2.20576 1.57235,2.80601 0.25152,1.2444 -2.35888,-0.6001 -0.98255,1.19484 -0.28437,0.72719 -2.35354,0.0186 -0.92488,1.61061 -0.0599,0.7812 -1.87752,0.35773 -0.59434,1.62386 0.71406,1.85272 -2.43768,-0.38716 -1.30904,1.62069 -2.67257,-0.0253 0.65561,1.18427 0.52627,1.98817 -2.01879,0.15898 -2.85177,2.0705 -1.753,2.96065 -2.16057,-0.54495 -0.74625,1.3233 -0.87761,2.01762 -2.0221,-0.24551 -1.3009,1.34847 -1.30607,2.38998 -0.88482,0.28539 -2.68389,-0.33995 -1.68843,0.86094 -1.83189,-0.26078 -1.35897,0.73713 -0.56983,1.4185 -1.05138,0.29196 -2.03346,0.82707 -0.6862,1.42497 -1.19573,0.37961 -2.29669,0.9319 -1.90001,2.12669 -1.69432,0.11128 -2.97945,0.99814 -2.25262,2.47408 -1.38171,0.20485 -2.54956,0.40894 -1.75497,1.74177 -1.83756,-0.49883 -2.95928,0.0343 -2.4923,1.59543 -1.49793,-0.36879 -1.92292,0.37459 -1.79319,1.36978 -1.52426,-0.0419 -2.77929,-0.76327 -2.34127,1.01761 -1.27063,0.21415 -2.4764,-1.12512 -2.31743,0.54735 -1.4968,0.2682 -3.37812,-1.17823 -3.07014,0.98578 -1.20483,-0.24521 -2.41016,-1.81355 -2.43412,-0.12932 -1.00352,-1.05902 -2.0881,-1.00649 -2.08792,0.52743 -1.07388,-0.31917 -1.6711,-1.73098 -2.59149,-0.31786 -1.23293,-1.17525 -2.19447,-0.89218 -2.69712,0.0185 -1.28466,-0.017 -1.73227,-2.53989 -2.59141,-0.67108 -1.6179,-0.0893 -1.73909,-2.39043 -3.22701,-1.65012 -0.29007,-1.65144 -1.10188,-2.93201 -2.75918,-3.17653 0.0397,-1.20223 -0.0948,-3.85438 -1.71353,-2.24691 -0.82706,-0.68921 0.77615,-3.3101 -1.28587,-2.42323 -0.90591,-0.40615 0.26366,-3.3875 -0.79268,-2.46163 0.94579,-1.28928 -0.48342,-2.89355 -0.022,-4.31853 -1.34986,2.1989 -2.11834,-1.43418 0.0424,-1.67048 0.77759,-1.17708 -1.74802,-0.26906 -0.43631,-1.83064 -0.12297,-1.56156 0.36496,0.85303 0.53648,-1.18337 0.52981,-2.69366 3.85218,-1.58364 3.45803,0.80816 0.82749,2.03055 2.34487,4.53872 5.04674,4.31325 3.09386,-0.19614 5.9865,-0.40927 9.05567,0.28041 3.15882,-0.46563 6.3955,-1.0644 9.47121,-2.08878 3.09482,-1.19283 5.081,-4.03618 7.51964,-6.1366 0.83305,-1.86985 1.53422,-3.46721 2.02905,-5.09599 -0.21807,-1.55098 2.4049,-2.27927 1.69952,-4.31401 1.61624,-1.94548 3.54364,-3.82566 4.80998,-5.96739 0.45847,-2.73648 1.28142,-5.5844 2.76342,-8.04389 1.60966,-0.65209 -0.72619,-3.32431 1.88837,-3.70498 z"
       style="fill:#d85f31;stroke:#d85f31;stroke-width:0.264583px;stroke-linecap:butt;stroke-linejoin:miter;stroke-opacity:1;fill-opacity:1"
       id="path372" />
    <path
       d="m 136.65865,220.90993 c -0.73188,1.05227 -2.16948,1.15891 -3.00587,2.12213 -1.5846,0.28072 -1.31394,2.28612 -1.55651,3.48984 0.2288,1.3719 -0.89024,2.75824 -0.76048,3.8994 0.92106,0.16773 1.8686,-1.90148 2.48968,-1.15933 -1.21997,0.71077 0.0338,2.21487 0.72378,0.90342 0.19716,-0.73918 1.08941,-1.75156 0.98439,-0.49858 0.91331,0.0395 1.58629,-1.3838 1.98112,-0.0918 0.91355,-0.0431 1.73775,-1.66286 2.41078,-1.34551 -0.13483,1.19689 1.441,-0.26689 1.60577,0.80023 0.75797,-0.57162 1.82441,-1.02422 2.24487,-0.0165 1.11014,0.3605 2.48879,-0.93999 3.03617,0.60333 0.76213,0.81844 1.86771,-0.9657 2.3731,0.52735 0.76327,1.19197 2.00631,-1.00696 2.36095,0.95673 0.4093,0.72998 1.15344,-0.64737 1.31106,0.62054 0.43747,1.04681 1.53931,-0.39452 2.07422,0.83264 0.83375,0.24408 1.58874,2.22237 2.31433,1.5189 0.27316,-2.00753 2.03234,1.06465 3.09989,0.42538 0.68551,-0.0289 0.56434,-1.64109 1.09428,-0.40298 0.83311,0.46766 -0.18589,-1.33968 0.88746,-0.88199 1.32784,-0.40776 2.1007,-1.85918 3.11293,-2.76814 0.63042,-0.93301 2.00483,-1.77259 2.34879,-2.67281 -0.54133,-0.35678 -2.32426,0.67527 -1.35201,-0.44691 1.46935,-1.3267 -1.53119,-0.26165 -2.13643,-0.72651 -0.19079,-0.64299 1.46092,-2.39565 -0.26772,-1.63241 -0.63457,0.62729 -1.01849,0.16432 -0.66863,-0.44291 -1.1648,-0.12713 -2.40033,0.32037 -3.59953,0.37483 -1.83863,0.47338 -3.91321,0.57474 -5.54306,-0.57034 -1.29579,-0.72573 -2.09559,-2.12233 -3.61116,-2.47226 -2.13109,-0.15186 -4.03062,-1.23385 -5.99064,-1.97236 -1.57286,-0.10692 -3.01071,0.91319 -4.50479,1.31812 -1.18912,0.57431 -2.27704,-0.70927 -3.45674,-0.29153 z"
       style="fill:#cb661a;stroke:#cb661a;stroke-width:0.264583px;stroke-linecap:butt;stroke-linejoin:miter;stroke-opacity:1;fill-opacity:1"
       id="path350" />
    <path
       d="m 137.02838,205.50373 c -0.76584,3.90987 -3.01718,7.53462 -2.66012,11.63812 -0.10072,2.12524 1.36309,4.22286 3.61979,4.26424 2.19377,1.0124 3.95467,-1.25771 6.03102,-1.27734 2.90743,0.28856 4.39387,-2.98543 3.49137,-5.4139 -1.24281,-1.50052 -2.8118,-3.40861 -1.91729,-5.50253 0.85376,-3.31677 2.0273,-6.82379 4.65638,-9.16497 1.40323,-2.14616 4.28288,-2.26155 6.55359,-2.76542 2.44443,0.63884 5.56126,-0.83833 7.35538,1.13437 -0.92975,-1.99673 -5.01018,-2.28317 -7.426,-2.66012 -2.54128,-0.77015 -5.16487,-0.25273 -7.4841,0.81118 -1.17875,1.01603 -2.62079,1.23384 -3.66793,0.10231 -1.37414,0.42537 -2.52624,2.12419 -3.25998,0.0331 -2.48202,-0.46592 -5.04868,-0.45334 -7.29436,-1.87858 -2.11283,-0.10187 -4.30046,-1.38559 -6.35684,-0.22232 -1.36516,0.94828 -3.99135,3.79307 -0.85904,1.85351 2.25602,-1.41233 5.09039,-0.31372 7.43641,0.38865 1.88085,0.29767 4.61792,1.46392 4.25123,3.80097 -0.32688,1.86003 -1.81793,3.14468 -2.46951,4.85876 z"
       style="fill:#f6ce5c;stroke:#f6ce5c;stroke-width:0.264583px;stroke-linecap:butt;stroke-linejoin:miter;stroke-opacity:1;fill-opacity:1"
       id="path358" />
    <path
       sodipodi:nodetypes="cccccccccccccccc"
       d="m 116.42186,195.2428 c -5.6895,-3.29351 -4.66394,-10.64911 2.68782,-9.52444 14.4861,-2.08602 29.41944,-2.04181 43.67795,1.53802 7.66585,1.92986 15.87306,2.17369 23.14901,5.35935 6.39717,2.80371 4.94945,10.39058 7.19335,15.66098 3.9708,4.99195 11.64514,8.29316 17.43163,4.10556 5.01469,-4.40333 10.9516,-9.11309 11.29733,-16.36635 1.68626,-6.99616 -3.08497,-12.87172 -7.97883,-17.16448 -4.48943,-4.31776 -10.27035,-6.79277 -15.66451,-9.71254 -11.99645,-3.67237 -24.80545,-1.61071 -37.15739,-2.10205 -12.91889,0.56883 -25.95715,-0.87275 -38.70582,1.86704 -10.80354,0.56158 -21.36895,2.97016 -31.995344,4.82858 -8.951643,2.90328 -1.378552,12.51828 4.048966,14.77648 6.625998,5.16376 13.943218,10.04548 22.097418,12.30378 6.19229,0.7952 5.64984,-1.64911 -0.0816,-5.56993 z"
       style="fill:#e4a900;fill-opacity:1;stroke:#e4a900;stroke-width:0.264583px;stroke-linecap:butt;stroke-linejoin:miter;stroke-opacity:1"
       id="path385" />
  </g>
</svg>
