<?xml version="1.0" encoding="UTF-8" standalone="no"?>
<svg
   xmlns:dc="http://purl.org/dc/elements/1.1/"
   xmlns:cc="http://creativecommons.org/ns#"
   xmlns:rdf="http://www.w3.org/1999/02/22-rdf-syntax-ns#"
   xmlns:svg="http://www.w3.org/2000/svg"
   xmlns="http://www.w3.org/2000/svg"
   xmlns:sodipodi="http://sodipodi.sourceforge.net/DTD/sodipodi-0.dtd"
   xmlns:inkscape="http://www.inkscape.org/namespaces/inkscape"
   sodipodi:docname="driver.svg"
   inkscape:version="1.0 (4035a4fb49, 2020-05-01)"
   id="svg8"
   version="1.1"
   viewBox="0 0 317.5 158.75"
   height="600"
   width="1200">
  <defs
     id="defs2">
    <inkscape:path-effect
       lpeversion="1"
       is_visible="true"
       id="path-effect1252"
       effect="spiro" />
    <inkscape:path-effect
       simplify_just_coalesce="false"
       simplify_individual_paths="false"
       helper_size="0"
       smooth_angles="360"
       threshold="0.000408163"
       steps="1"
       lpeversion="1"
       is_visible="true"
       id="path-effect1250"
       effect="simplify" />
    <inkscape:path-effect
       lpeversion="1"
       is_visible="true"
       id="path-effect419"
       effect="spiro" />
    <inkscape:path-effect
       simplify_just_coalesce="false"
       simplify_individual_paths="false"
       helper_size="0"
       smooth_angles="360"
       threshold="0.000408163"
       steps="1"
       lpeversion="1"
       is_visible="true"
       id="path-effect417"
       effect="simplify" />
    <inkscape:path-effect
       lpeversion="1"
       is_visible="true"
       id="path-effect411"
       effect="spiro" />
    <inkscape:path-effect
       simplify_just_coalesce="false"
       simplify_individual_paths="false"
       helper_size="0"
       smooth_angles="360"
       threshold="0.000408163"
       steps="1"
       lpeversion="1"
       is_visible="true"
       id="path-effect409"
       effect="simplify" />
    <inkscape:path-effect
       lpeversion="1"
       is_visible="true"
       id="path-effect403"
       effect="spiro" />
    <inkscape:path-effect
       simplify_just_coalesce="false"
       simplify_individual_paths="false"
       helper_size="0"
       smooth_angles="360"
       threshold="0.000408163"
       steps="1"
       lpeversion="1"
       is_visible="true"
       id="path-effect401"
       effect="simplify" />
    <inkscape:path-effect
       lpeversion="1"
       is_visible="true"
       id="path-effect395"
       effect="spiro" />
    <inkscape:path-effect
       simplify_just_coalesce="false"
       simplify_individual_paths="false"
       helper_size="0"
       smooth_angles="360"
       threshold="0.000408163"
       steps="1"
       lpeversion="1"
       is_visible="true"
       id="path-effect393"
       effect="simplify" />
    <inkscape:path-effect
       lpeversion="1"
       is_visible="true"
       id="path-effect387"
       effect="spiro" />
    <inkscape:path-effect
       simplify_just_coalesce="false"
       simplify_individual_paths="false"
       helper_size="0"
       smooth_angles="360"
       threshold="0.000408163"
       steps="1"
       lpeversion="1"
       is_visible="true"
       id="path-effect385"
       effect="simplify" />
    <inkscape:path-effect
       lpeversion="1"
       is_visible="true"
       id="path-effect379"
       effect="spiro" />
    <inkscape:path-effect
       simplify_just_coalesce="false"
       simplify_individual_paths="false"
       helper_size="0"
       smooth_angles="360"
       threshold="0.000408163"
       steps="1"
       lpeversion="1"
       is_visible="true"
       id="path-effect377"
       effect="simplify" />
    <inkscape:path-effect
       lpeversion="1"
       is_visible="true"
       id="path-effect371"
       effect="spiro" />
    <inkscape:path-effect
       simplify_just_coalesce="false"
       simplify_individual_paths="false"
       helper_size="0"
       smooth_angles="360"
       threshold="0.000408163"
       steps="1"
       lpeversion="1"
       is_visible="true"
       id="path-effect369"
       effect="simplify" />
    <inkscape:path-effect
       lpeversion="1"
       is_visible="true"
       id="path-effect363"
       effect="spiro" />
    <inkscape:path-effect
       simplify_just_coalesce="false"
       simplify_individual_paths="false"
       helper_size="0"
       smooth_angles="360"
       threshold="0.000408163"
       steps="1"
       lpeversion="1"
       is_visible="true"
       id="path-effect361"
       effect="simplify" />
    <inkscape:path-effect
       lpeversion="1"
       is_visible="true"
       id="path-effect355"
       effect="spiro" />
    <inkscape:path-effect
       simplify_just_coalesce="false"
       simplify_individual_paths="false"
       helper_size="0"
       smooth_angles="360"
       threshold="0.000408163"
       steps="1"
       lpeversion="1"
       is_visible="true"
       id="path-effect353"
       effect="simplify" />
    <inkscape:path-effect
       lpeversion="1"
       is_visible="true"
       id="path-effect347"
       effect="spiro" />
    <inkscape:path-effect
       simplify_just_coalesce="false"
       simplify_individual_paths="false"
       helper_size="0"
       smooth_angles="360"
       threshold="0.000408163"
       steps="1"
       lpeversion="1"
       is_visible="true"
       id="path-effect345"
       effect="simplify" />
    <inkscape:path-effect
       lpeversion="1"
       is_visible="true"
       id="path-effect341"
       effect="spiro" />
    <inkscape:path-effect
       simplify_just_coalesce="false"
       simplify_individual_paths="false"
       helper_size="0"
       smooth_angles="360"
       threshold="0.000408163"
       steps="1"
       lpeversion="1"
       is_visible="true"
       id="path-effect339"
       effect="simplify" />
    <inkscape:path-effect
       lpeversion="1"
       is_visible="true"
       id="path-effect335"
       effect="spiro" />
    <inkscape:path-effect
       simplify_just_coalesce="false"
       simplify_individual_paths="false"
       helper_size="0"
       smooth_angles="360"
       threshold="0.000408163"
       steps="1"
       lpeversion="1"
       is_visible="true"
       id="path-effect333"
       effect="simplify" />
    <inkscape:path-effect
       lpeversion="1"
       is_visible="true"
       id="path-effect327"
       effect="spiro" />
    <inkscape:path-effect
       simplify_just_coalesce="false"
       simplify_individual_paths="false"
       helper_size="0"
       smooth_angles="360"
       threshold="0.000408163"
       steps="1"
       lpeversion="1"
       is_visible="true"
       id="path-effect325"
       effect="simplify" />
    <inkscape:path-effect
       lpeversion="1"
       is_visible="true"
       id="path-effect321"
       effect="spiro" />
    <inkscape:path-effect
       simplify_just_coalesce="false"
       simplify_individual_paths="false"
       helper_size="0"
       smooth_angles="360"
       threshold="0.000408163"
       steps="1"
       lpeversion="1"
       is_visible="true"
       id="path-effect319"
       effect="simplify" />
    <inkscape:path-effect
       lpeversion="1"
       is_visible="true"
       id="path-effect315"
       effect="spiro" />
    <inkscape:path-effect
       simplify_just_coalesce="false"
       simplify_individual_paths="false"
       helper_size="0"
       smooth_angles="360"
       threshold="0.000408163"
       steps="1"
       lpeversion="1"
       is_visible="true"
       id="path-effect313"
       effect="simplify" />
    <inkscape:path-effect
       lpeversion="1"
       is_visible="true"
       id="path-effect309"
       effect="spiro" />
    <inkscape:path-effect
       simplify_just_coalesce="false"
       simplify_individual_paths="false"
       helper_size="0"
       smooth_angles="360"
       threshold="0.000408163"
       steps="1"
       lpeversion="1"
       is_visible="true"
       id="path-effect307"
       effect="simplify" />
    <inkscape:path-effect
       lpeversion="1"
       is_visible="true"
       id="path-effect303"
       effect="spiro" />
    <inkscape:path-effect
       simplify_just_coalesce="false"
       simplify_individual_paths="false"
       helper_size="0"
       smooth_angles="360"
       threshold="0.000408163"
       steps="1"
       lpeversion="1"
       is_visible="true"
       id="path-effect301"
       effect="simplify" />
    <inkscape:path-effect
       lpeversion="1"
       is_visible="true"
       id="path-effect297"
       effect="spiro" />
    <inkscape:path-effect
       simplify_just_coalesce="false"
       simplify_individual_paths="false"
       helper_size="0"
       smooth_angles="360"
       threshold="0.000408163"
       steps="1"
       lpeversion="1"
       is_visible="true"
       id="path-effect295"
       effect="simplify" />
    <inkscape:path-effect
       lpeversion="1"
       is_visible="true"
       id="path-effect291"
       effect="spiro" />
    <inkscape:path-effect
       simplify_just_coalesce="false"
       simplify_individual_paths="false"
       helper_size="0"
       smooth_angles="360"
       threshold="0.000408163"
       steps="1"
       lpeversion="1"
       is_visible="true"
       id="path-effect289"
       effect="simplify" />
    <inkscape:path-effect
       lpeversion="1"
       is_visible="true"
       id="path-effect285"
       effect="spiro" />
    <inkscape:path-effect
       simplify_just_coalesce="false"
       simplify_individual_paths="false"
       helper_size="0"
       smooth_angles="360"
       threshold="0.000408163"
       steps="1"
       lpeversion="1"
       is_visible="true"
       id="path-effect283"
       effect="simplify" />
    <inkscape:path-effect
       lpeversion="1"
       is_visible="true"
       id="path-effect277"
       effect="spiro" />
    <inkscape:path-effect
       simplify_just_coalesce="false"
       simplify_individual_paths="false"
       helper_size="0"
       smooth_angles="360"
       threshold="0.000408163"
       steps="1"
       lpeversion="1"
       is_visible="true"
       id="path-effect275"
       effect="simplify" />
    <inkscape:path-effect
       lpeversion="1"
       is_visible="true"
       id="path-effect269"
       effect="spiro" />
    <inkscape:path-effect
       simplify_just_coalesce="false"
       simplify_individual_paths="false"
       helper_size="0"
       smooth_angles="360"
       threshold="0.000408163"
       steps="1"
       lpeversion="1"
       is_visible="true"
       id="path-effect267"
       effect="simplify" />
    <inkscape:path-effect
       lpeversion="1"
       is_visible="true"
       id="path-effect261"
       effect="spiro" />
    <inkscape:path-effect
       simplify_just_coalesce="false"
       simplify_individual_paths="false"
       helper_size="0"
       smooth_angles="360"
       threshold="0.000408163"
       steps="1"
       lpeversion="1"
       is_visible="true"
       id="path-effect258"
       effect="simplify" />
    <inkscape:path-effect
       lpeversion="1"
       is_visible="true"
       id="path-effect251"
       effect="spiro" />
    <inkscape:path-effect
       simplify_just_coalesce="false"
       simplify_individual_paths="false"
       helper_size="0"
       smooth_angles="360"
       threshold="0.000408163"
       steps="1"
       lpeversion="1"
       is_visible="true"
       id="path-effect245"
       effect="simplify" />
    <inkscape:path-effect
       lpeversion="1"
       is_visible="true"
       id="path-effect238"
       effect="spiro" />
    <inkscape:path-effect
       simplify_just_coalesce="false"
       simplify_individual_paths="false"
       helper_size="0"
       smooth_angles="360"
       threshold="0.000408163"
       steps="1"
       lpeversion="1"
       is_visible="true"
       id="path-effect236"
       effect="simplify" />
    <inkscape:path-effect
       lpeversion="1"
       is_visible="true"
       id="path-effect229"
       effect="spiro" />
    <inkscape:path-effect
       simplify_just_coalesce="false"
       simplify_individual_paths="false"
       helper_size="0"
       smooth_angles="360"
       threshold="0.000408163"
       steps="1"
       lpeversion="1"
       is_visible="true"
       id="path-effect227"
       effect="simplify" />
    <inkscape:path-effect
       lpeversion="1"
       is_visible="true"
       id="path-effect223"
       effect="spiro" />
    <inkscape:path-effect
       simplify_just_coalesce="false"
       simplify_individual_paths="false"
       helper_size="0"
       smooth_angles="360"
       threshold="0.000408163"
       steps="1"
       lpeversion="1"
       is_visible="true"
       id="path-effect221"
       effect="simplify" />
    <inkscape:path-effect
       lpeversion="1"
       is_visible="true"
       id="path-effect215"
       effect="spiro" />
    <inkscape:path-effect
       simplify_just_coalesce="false"
       simplify_individual_paths="false"
       helper_size="0"
       smooth_angles="360"
       threshold="0.000408163"
       steps="1"
       lpeversion="1"
       is_visible="true"
       id="path-effect213"
       effect="simplify" />
    <inkscape:path-effect
       lpeversion="1"
       is_visible="true"
       id="path-effect207"
       effect="spiro" />
    <inkscape:path-effect
       simplify_just_coalesce="false"
       simplify_individual_paths="false"
       helper_size="0"
       smooth_angles="360"
       threshold="0.000408163"
       steps="1"
       lpeversion="1"
       is_visible="true"
       id="path-effect205"
       effect="simplify" />
    <inkscape:path-effect
       lpeversion="1"
       is_visible="true"
       id="path-effect199"
       effect="spiro" />
    <inkscape:path-effect
       simplify_just_coalesce="false"
       simplify_individual_paths="false"
       helper_size="0"
       smooth_angles="360"
       threshold="0.000408163"
       steps="1"
       lpeversion="1"
       is_visible="true"
       id="path-effect197"
       effect="simplify" />
    <inkscape:path-effect
       lpeversion="1"
       is_visible="true"
       id="path-effect191"
       effect="spiro" />
    <inkscape:path-effect
       simplify_just_coalesce="false"
       simplify_individual_paths="false"
       helper_size="0"
       smooth_angles="360"
       threshold="0.000408163"
       steps="1"
       lpeversion="1"
       is_visible="true"
       id="path-effect189"
       effect="simplify" />
    <inkscape:path-effect
       lpeversion="1"
       is_visible="true"
       id="path-effect185"
       effect="spiro" />
    <inkscape:path-effect
       simplify_just_coalesce="false"
       simplify_individual_paths="false"
       helper_size="0"
       smooth_angles="360"
       threshold="0.000408163"
       steps="1"
       lpeversion="1"
       is_visible="true"
       id="path-effect183"
       effect="simplify" />
    <inkscape:path-effect
       lpeversion="1"
       is_visible="true"
       id="path-effect177"
       effect="spiro" />
    <inkscape:path-effect
       simplify_just_coalesce="false"
       simplify_individual_paths="false"
       helper_size="0"
       smooth_angles="360"
       threshold="0.000408163"
       steps="1"
       lpeversion="1"
       is_visible="true"
       id="path-effect175"
       effect="simplify" />
    <inkscape:path-effect
       lpeversion="1"
       is_visible="true"
       id="path-effect171"
       effect="spiro" />
    <inkscape:path-effect
       simplify_just_coalesce="false"
       simplify_individual_paths="false"
       helper_size="0"
       smooth_angles="360"
       threshold="0.000408163"
       steps="1"
       lpeversion="1"
       is_visible="true"
       id="path-effect169"
       effect="simplify" />
    <inkscape:path-effect
       lpeversion="1"
       is_visible="true"
       id="path-effect163"
       effect="spiro" />
    <inkscape:path-effect
       simplify_just_coalesce="false"
       simplify_individual_paths="false"
       helper_size="0"
       smooth_angles="360"
       threshold="0.000408163"
       steps="1"
       lpeversion="1"
       is_visible="true"
       id="path-effect161"
       effect="simplify" />
    <inkscape:path-effect
       lpeversion="1"
       is_visible="true"
       id="path-effect155"
       effect="spiro" />
    <inkscape:path-effect
       simplify_just_coalesce="false"
       simplify_individual_paths="false"
       helper_size="0"
       smooth_angles="360"
       threshold="0.000408163"
       steps="1"
       lpeversion="1"
       is_visible="true"
       id="path-effect153"
       effect="simplify" />
    <inkscape:path-effect
       lpeversion="1"
       is_visible="true"
       id="path-effect147"
       effect="spiro" />
    <inkscape:path-effect
       simplify_just_coalesce="false"
       simplify_individual_paths="false"
       helper_size="0"
       smooth_angles="360"
       threshold="0.000408163"
       steps="1"
       lpeversion="1"
       is_visible="true"
       id="path-effect145"
       effect="simplify" />
    <inkscape:path-effect
       lpeversion="1"
       is_visible="true"
       id="path-effect139"
       effect="spiro" />
    <inkscape:path-effect
       simplify_just_coalesce="false"
       simplify_individual_paths="false"
       helper_size="0"
       smooth_angles="360"
       threshold="0.000408163"
       steps="1"
       lpeversion="1"
       is_visible="true"
       id="path-effect137"
       effect="simplify" />
    <inkscape:path-effect
       lpeversion="1"
       is_visible="true"
       id="path-effect131"
       effect="spiro" />
    <inkscape:path-effect
       simplify_just_coalesce="false"
       simplify_individual_paths="false"
       helper_size="0"
       smooth_angles="360"
       threshold="0.000408163"
       steps="1"
       lpeversion="1"
       is_visible="true"
       id="path-effect129"
       effect="simplify" />
  </defs>
  <sodipodi:namedview
     inkscape:document-rotation="0"
     inkscape:window-maximized="0"
     inkscape:window-y="19"
     inkscape:window-x="0"
     inkscape:window-height="1061"
     inkscape:window-width="1920"
     units="px"
     showgrid="false"
     inkscape:current-layer="layer1"
     inkscape:document-units="mm"
     inkscape:cy="308.66674"
     inkscape:cx="603.14599"
     inkscape:zoom="1.4"
     inkscape:pageshadow="2"
     inkscape:pageopacity="0.0"
     borderopacity="1.0"
     bordercolor="#666666"
     pagecolor="#ffffff"
     id="base"
     inkscape:snap-global="false" />
  <metadata
     id="metadata5">
    <rdf:RDF>
      <cc:Work
         rdf:about="">
        <dc:format>image/svg+xml</dc:format>
        <dc:type
           rdf:resource="http://purl.org/dc/dcmitype/StillImage" />
        <dc:title />
      </cc:Work>
    </rdf:RDF>
  </metadata>
  <g
     transform="translate(0,-138.25001)"
     id="layer1"
     inkscape:groupmode="layer"
     inkscape:label="Layer 1">
    <path
       sodipodi:nodetypes="ccccccccccccc"
       id="path57"
       style="fill:#afa784;fill-opacity:1;stroke:#afa784;stroke-width:0.264583px;stroke-linecap:butt;stroke-linejoin:miter;stroke-opacity:1"
       d="m 17.031341,230.66019 c 27.814403,2.2935 55.599635,-2.47817 83.462489,-1.29632 24.98285,-1.30335 49.87145,1.6075 74.81012,1.58873 23.57713,-1.71964 47.1974,-1.74901 70.787,-2.79354 19.73354,-1.23268 39.50276,-4.05191 59.25616,-3.69533 0.49563,14.5787 -6.18211,27.81445 -0.87051,41.79035 6.82633,14.986 2.39752,28.36362 -12.1196,16.79742 -14.9901,-4.67718 -29.95831,-9.78544 -44.76646,-15.18669 -29.41279,-7.82042 -59.29644,-15.83848 -90.0292,-14.27356 -21.99822,0.95426 -44.05129,1.4536 -65.920905,-1.38359 -20.06328,0.0647 -40.083874,2.7792 -60.146526,1.04467 -13.791234,2.18444 -28.9925639,-0.25679 -17.823329,-15.1156 -4.4097969,-3.33162 0.745724,-6.03929 3.360761,-7.47654 z" />
    <path
       id="path65"
       style="fill:#657376;stroke:#657376;stroke-width:0.264583px;stroke-linecap:butt;stroke-linejoin:miter;stroke-opacity:1;fill-opacity:1"
       d="m 143.87481,230.99294 c -8.55978,4.03748 -18.36608,4.16611 -27.0891,7.82544 -10.36552,2.82218 -21.093633,4.17654 -31.187544,8.01118 -3.303735,-0.2239 -7.929561,2.50012 -2.157409,3.58111 16.185417,2.58719 32.552563,-0.693 48.825033,0.39395 18.39555,0.30447 36.78685,-1.01703 55.17319,-0.17694 2.81243,0.002 14.01888,3.03352 6.74132,-0.83462 -4.85596,-3.18548 -9.83954,-6.17807 -15.5286,-7.63322 -7.1148,-2.61821 -14.13798,-5.42845 -21.40931,-7.59701 -4.42185,-1.26233 -8.55541,-7.43224 -13.36758,-3.56989 z" />
    <path
       id="path73"
       style="fill:#16502d;stroke:#16502d;stroke-width:0.264583px;stroke-linecap:butt;stroke-linejoin:miter;stroke-opacity:1;fill-opacity:1"
       d="m 115.72571,227.90948 c -0.70052,-0.69236 -1.57558,1.33209 -0.19785,0.0329 -0.28756,1.91546 3.00004,0.26826 4.40787,1.37963 1.96162,0.17513 4.12581,-0.63274 6.02833,0.39773 3.09842,0.74324 6.28922,-0.27777 9.41133,0.29415 2.41071,-0.15804 4.78824,0.14727 7.18758,0.29709 1.92358,0.0986 3.76307,-0.74028 5.68564,-0.073 2.48533,0.15971 5.02074,-0.66217 7.46387,0.14732 1.6594,0.37916 3.28934,-1.95142 0.83225,-2.16135 -2.29512,0.10481 -4.8791,0.41592 -6.29563,-1.86942 -1.52647,-1.79215 -3.80276,-1.25235 -5.65976,-0.44417 -1.99403,-0.0263 -3.03108,1.90033 -4.96989,1.97187 -2.245,-0.6064 -4.55787,-0.79634 -6.68666,0.0663 -1.44892,-2.34869 -4.15317,-0.99202 -6.41021,-0.82813 -1.94958,-0.2264 -3.92522,0.14378 -5.82566,0.22826 -1.67777,0.10238 -3.19305,0.51252 -4.72894,0.3498 l -0.24227,0.21117 z" />
    <path
       id="path81"
       style="fill:#16502d;stroke:#16502d;stroke-width:0.264583px;stroke-linecap:butt;stroke-linejoin:miter;stroke-opacity:1;fill-opacity:1"
       d="m 191.89095,227.73202 c 0.81289,-0.39779 1.66791,-0.87928 2.60829,-0.75744 0.4842,0.0654 1.08941,0.0322 1.39159,0.49671 0.16903,0.33169 0.39801,0.67052 0.7841,0.76633 0.46316,0.023 0.67138,0.57163 0.26223,0.85801 -0.45742,0.51086 -1.12417,0.72616 -1.71646,1.02934 -0.36504,0.28591 -0.84125,0.58953 -1.31904,0.38793 -0.65193,-0.21394 -1.27794,-0.69744 -1.99703,-0.55209 -0.41799,0.0658 -0.70974,0.52548 -1.15338,0.46097 -0.41532,-0.21736 -0.32846,-0.8565 0.0163,-1.10459 0.34082,-0.29555 0.77508,-0.52318 0.94487,-0.96943 0.0924,-0.19374 0.15313,-0.40259 0.17853,-0.61574 z" />
    <path
       id="path95"
       style="fill:#346e4b;stroke:#346e4b;stroke-width:0.264583px;stroke-linecap:butt;stroke-linejoin:miter;stroke-opacity:1;fill-opacity:1"
       d="m 182.47506,232.01337 c -0.91349,0.0179 -0.75726,-1.45559 -1.58146,-1.83442 -0.72547,-0.90864 -0.31531,-2.27125 -1.01679,-3.12373 -1.45013,-0.71511 -0.65262,1.61458 -1.78109,1.8907 -1.38959,0.56726 -1.1381,-1.34043 -1.44571,-2.12052 -0.47464,-1.02935 -2.20858,-1.60656 -2.76665,-0.33746 -0.63876,0.88107 -0.45395,2.67727 -1.8147,2.80305 -1.13994,-0.49241 -2.2487,-0.3634 -3.30311,0.28029 -1.58407,0.68052 -1.01386,-2.07554 -2.56469,-1.60888 -0.93994,0.34713 -2.08776,0.96262 -2.89102,-0.0504 -0.54633,-0.87525 -1.69812,-1.01737 -2.57569,-0.58784 -0.85407,0.82902 1.79035,2.07532 -0.10749,2.3378 -0.86714,1.31364 1.10358,1.88375 2.10057,1.76016 0.92256,0.30399 1.91382,0.75653 2.84655,0.13762 1.57232,-0.50377 3.29275,-0.0725 4.90898,-0.40718 1.59167,-0.29017 3.20688,-0.19992 4.78546,0.10876 1.31234,-0.0433 2.23101,0.87032 3.15113,1.64859 1.04572,0.71891 2.15876,-0.28085 3.1774,-0.56202 0.29115,-0.1157 0.58352,-0.22847 0.87831,-0.33456 z" />
    <path
       id="path103"
       style="fill:#987e68;stroke:#987e68;stroke-width:0.264583px;stroke-linecap:butt;stroke-linejoin:miter;stroke-opacity:1;fill-opacity:1"
       d="m 41.138009,231.10385 c -1.514241,0.0147 -2.745234,-0.96483 -3.916021,-1.79704 -1.502976,-0.94451 -2.97886,-1.98104 -4.646787,-2.61583 -1.882513,-0.61198 -3.87781,-0.11715 -5.770071,0.18076 -1.861384,0.38752 -3.783912,0.5649 -5.575156,1.22932 -0.952877,0.33085 -1.402339,1.32939 -1.431065,2.2762 -0.233146,0.57277 -0.158603,1.28425 0.629612,1.12287 1.686446,0.0445 3.365934,0.19785 5.049204,0.29522 3.232248,0.11042 6.469344,-0.15507 9.698643,0.0947 1.495358,0.0412 3.003144,0.21155 4.492553,0.0267 0.583923,-0.0773 0.999323,-0.5059 1.469088,-0.81295 z" />
    <path
       sodipodi:nodetypes="ccccccccccccsc"
       id="path110"
       style="fill:#100f0a;fill-opacity:1;stroke:#100f0a;stroke-width:0.264583px;stroke-linecap:butt;stroke-linejoin:miter;stroke-opacity:1"
       d="m 13.753031,244.52466 c 16.415443,1.80766 32.921729,0.95632 49.383608,2.19138 19.374154,-0.6806 38.729721,1.50846 58.111031,0.67812 22.9418,1.13048 45.57018,-0.28321 69.42898,1.34619 9.97261,-0.72445 20.20537,10.59329 21.61994,21.78175 2.13388,7.26134 9.44832,19.63585 -0.0568,24.06355 -12.24882,2.275 -24.96292,-0.23626 -37.4004,0.47672 -22.38198,0.52005 -44.76473,-0.16168 -67.14066,0.19726 -12.930004,1.18552 -26.015328,0.15555 -38.927555,0.46329 -13.305177,-1.91955 -26.774005,-0.73205 -40.101828,-0.0549 -11.344896,0.49151 -16.148459,-10.24816 -16.502193,-19.86936 -7.0432893,-8.24024 1.858794,-17.13556 1.164987,-25.96721 -0.02846,-1.77513 0.01679,-3.56934 0.4209,-5.30675 z" />
    <path
       id="path124"
       style="fill:#1a1912;stroke:#100f0a;stroke-width:0.264583px;stroke-linecap:butt;stroke-linejoin:miter;stroke-opacity:1;fill-opacity:1"
       d="m 202.81043,258.07855 c 6.90459,6.79634 8.66103,16.951 8.59406,26.27447 -0.95351,5.49342 0.47922,13.39088 7.92751,10.13048 6.86877,-1.7834 13.7937,0.64866 20.71767,0.90368 11.77693,0.27517 23.55535,-2.01418 35.34169,-0.78547 7.46904,-0.10649 14.95645,1.46646 22.36946,0.36477 5.29191,-0.71495 12.83802,-0.21241 11.18291,-8.10194 2.30058,-7.50238 -3.15332,-14.22361 -10.82213,-13.20432 -8.72326,-1.45198 -17.32103,-3.56593 -26.0618,-4.94864 -10.08706,-1.94614 -20.35609,-2.6932 -30.35562,-5.15199 -7.48743,-1.25125 -14.90772,-2.73697 -22.08635,-5.26638 -5.39945,-1.09534 -10.99494,-1.63598 -16.41288,-2.11951 -2.2369,-0.7997 -8.86514,-6.17057 -3.94064,-1.7869 1.35536,1.03348 2.81535,2.09235 3.54612,3.69175 z" />
    <path
       id="path138"
       style="fill:#44585e;stroke:#44585e;stroke-width:0.264583px;stroke-linecap:butt;stroke-linejoin:miter;stroke-opacity:1;fill-opacity:1"
       d="m 94.182535,170.7657 c 37.425115,-2.04413 75.006685,-0.77272 112.498435,-0.40671 11.83687,0.23275 21.85987,31.17665 32.79042,11.31726 10.00173,-11.33246 21.63268,-21.42625 33.30937,-30.91907 6.87397,-2.51583 26.6561,-13.40135 7.92796,-10.86696 -23.07286,1.25298 -46.40311,-1.61496 -69.50342,0.74558 -28.94604,0.52608 -57.92769,-1.04754 -86.8284,0.45248 -31.640955,-2.09005 -63.284267,1.87192 -94.903139,0.31897 -18.721099,-5.99034 -12.336679,16.80385 -15.155291,26.57324 4.000621,17.34011 27.75424,4.728 40.921153,6.36436 11.884023,-0.644 23.554692,-4.20028 35.491949,-3.88593 l 1.728681,0.1174 1.722282,0.18939 z" />
    <path
       id="path152"
       style="fill:#617d86;stroke:#617d86;stroke-width:0.264583px;stroke-linecap:butt;stroke-linejoin:miter;stroke-opacity:1;fill-opacity:1"
       d="m 215.70183,171.83048 c 1.00711,4.34361 -1.42715,8.56438 -2.64662,12.60787 -2.81686,7.53808 -4.21366,15.51916 -6.9275,23.0991 -2.33215,6.47104 -3.92243,13.1338 -4.94341,19.92682 -1.0574,7.18512 -4.98183,13.3996 -7.18136,20.1991 -1.26696,4.66958 4.83995,5.39331 7.54085,7.80577 1.83799,0.6651 3.61458,3.99237 3.13789,0.01 0.79892,-4.11869 2.14078,-8.02563 4.04098,-11.75873 1.83769,-5.66405 4.92075,-10.75857 6.54163,-16.50417 3.17187,-8.58069 8.80032,-16.05957 11.37576,-24.89039 2.2915,-5.85766 7.28127,-10.05862 9.64423,-15.86981 3.88656,-4.5776 -4.31876,-0.44734 -6.71988,-3.13127 -5.81843,-1.91369 -7.68315,-8.56415 -12.72518,-11.42082 l -0.54365,-0.11755 -0.59374,0.044 z" />
    <path
       id="path172"
       style="fill:#0d1514;stroke:#0d1514;stroke-width:0.264583px;stroke-linecap:butt;stroke-linejoin:miter;stroke-opacity:1;fill-opacity:1"
       d="m 285.35974,147.8505 c 5.6045,-2.20423 9.96069,-7.7466 16.19173,-8.06683 9.24238,3.69822 6.30265,13.37235 -2.47033,14.47937 -6.23768,4.34801 -12.42479,9.25115 -19.26498,12.81435 -11.02881,5.29906 -17.09315,16.47091 -26.40042,23.9213 -5.70744,6.30272 -9.88811,13.78152 -14.05582,21.14226 -5.48895,7.83146 -11.57894,15.26537 -15.85129,23.86504 -1.8971,3.81066 -9.53562,16.94594 -11.32187,7.33646 1.95103,-6.54627 6.294,-12.06328 8.42156,-18.5737 4.26982,-6.99033 6.58532,-14.91169 10.87043,-21.83368 2.76837,-6.08443 5.45127,-12.24226 9.8428,-17.35685 6.00965,-8.49965 14.38298,-14.80255 21.71165,-22.04059 6.14716,-6.2952 12.29309,-13.63904 21.40977,-15.37647 z" />
    <path
       sodipodi:nodetypes="cccccccccccccccc"
       id="path208"
       style="fill:#1a1912;fill-opacity:1;stroke:#1a1912;stroke-width:0.264583px;stroke-linecap:butt;stroke-linejoin:miter;stroke-opacity:1"
       d="m 220.28131,242.66449 c -2.0787,1.07731 -4.4501,0.39328 -6.67364,0.67254 -1.25838,0.13251 -2.50667,-0.0796 -3.74191,-0.25166 -1.39819,-0.0441 -1.67958,1.44733 -2.07708,2.46003 -0.6584,1.61721 -1.50889,3.19882 -1.71849,4.9532 -0.4652,1.36397 -0.96343,2.71956 -1.05104,4.16675 -0.56349,1.17624 0.0407,2.19866 1.36181,1.96251 1.39333,0.49284 2.88351,0.27776 4.30379,0.63876 1.70501,0.28524 3.37533,0.35089 5.08624,0.69371 2.00565,0.19654 3.84613,0.61067 5.79391,1.04273 0.99949,0.32825 2.66326,1.11361 3.37093,0.39421 -0.44247,-1.16428 -1.12548,-2.24901 -2.17898,-2.94511 -1.14032,-0.9683 -1.08613,-2.61361 -1.31544,-3.96934 -0.28148,-1.42258 1.18613,-2.39033 0.92275,-3.79914 -0.44382,-1.75339 -1.10726,-3.49061 -1.06448,-5.33169 -0.0592,-0.47814 -0.50264,-1.0139 -1.01837,-0.6875 z" />
    <path
       id="path192"
       style="fill:#100f0a;stroke:#100f0a;stroke-width:0.264583px;stroke-linecap:butt;stroke-linejoin:miter;stroke-opacity:1;fill-opacity:1"
       d="m 275.0072,146.5417 c 5.58286,-4.42453 11.55466,-9.30911 19.22409,-7.32634 7.64552,-1.68229 8.34165,3.18168 1.49462,5.30085 -8.31342,4.49152 -16.12596,9.88753 -23.97422,15.13813 -5.86307,5.84028 -12.17456,11.14703 -18.62569,16.3406 -4.36472,5.98201 -9.72087,11.27915 -13.3515,17.83128 -6.73449,9.81881 -11.81286,20.65479 -18.11446,30.72959 -2.82348,7.00635 -6.17583,13.76556 -9.33808,20.60801 -2.52801,7.63649 -8.79133,0.51002 -3.91313,-3.9739 3.08864,-8.51443 7.16461,-16.55823 10.48211,-24.97376 3.75678,-6.04398 6.54112,-12.68209 9.3085,-19.2003 4.98543,-5.39561 7.07024,-12.51816 11.49327,-18.3084 4.03159,-8.25079 13.32712,-11.67852 18.5185,-19.04742 4.67328,-5.30655 10.10592,-10.52976 16.79599,-13.11834 z" />
    <path
       id="path200"
       style="fill:#617d86;stroke:#617d86;stroke-width:0.264583px;stroke-linecap:butt;stroke-linejoin:miter;stroke-opacity:1;fill-opacity:1"
       d="m 42.723814,140.0562 c -2.595606,0.0898 -6.901752,-0.20124 -1.919111,4.4797 4.324356,6.26312 10.04838,11.44886 15.967994,16.17996 4.213047,5.75659 11.814263,11.83803 18.094286,4.91228 5.476329,-2.0786 10.354998,6.03627 16.79794,2.85599 11.989357,-0.60965 23.879877,-3.41911 35.928937,-2.0551 11.39735,-0.10773 22.71145,2.33047 34.10826,1.02948 7.88248,-0.79533 16.07577,1.97347 23.72231,-0.53998 4.95542,-7.88958 14.30849,-6.32128 22.32875,-6.46278 6.15039,0.87629 11.96562,-2.02959 15.40899,-7.10467 2.45871,-4.15251 12.22571,-15.45636 1.35517,-14.08911 -7.63933,0.59046 -13.47987,-0.0343 -20.4083,0.51822 -10.87439,-0.56312 -21.74418,-0.1093 -32.61989,-0.0344 -14.71392,-0.86852 -29.41402,0.89803 -44.12982,-0.0113 -12.7307,-0.1036 -25.50376,-0.53593 -38.197693,0.6935 -6.684604,-0.33183 -13.343222,-0.68776 -20.035238,-0.14416 -7.960324,-0.0298 -15.784631,-2.1407 -23.633189,-0.49561 -0.959674,0.0486 -1.968256,0.33254 -2.903651,0.0999 z"
       sodipodi:nodetypes="ccccccccccccccccccc" />
    <path
       id="path216"
       style="fill:#100f0a;stroke:#100f0a;stroke-width:0.264583px;stroke-linecap:butt;stroke-linejoin:miter;stroke-opacity:1;fill-opacity:1"
       d="m 223.4709,248.63295 c 1.45894,-2.3115 2.61497,-4.98012 4.7853,-6.70375 3.79603,-2.54315 8.55764,-1.5127 12.84567,-1.55108 5.74227,-0.0714 11.46562,0.40558 17.19392,0.72981 2.55491,0.22966 5.72588,0.23742 7.15531,2.78846 2.10554,1.96933 2.61606,4.91845 2.64098,7.66997 0.20547,2.12102 -1.32047,4.11039 -3.51598,4.14794 -5.92853,0.74778 -11.9136,0.67717 -17.86992,0.86809 -4.72572,0.41182 -9.47307,0.20356 -14.19001,-0.14725 -2.27123,0.0851 -4.97739,1.06579 -6.73207,-0.96543 -2.06153,-1.96433 -3.16019,-4.14293 -2.3132,-6.83676 z" />
    <path
       sodipodi:nodetypes="sccccccccccccs"
       id="path230"
       style="fill:#07add3;fill-opacity:1;stroke:#07add3;stroke-width:0.264583px;stroke-linecap:butt;stroke-linejoin:miter;stroke-opacity:1"
       d="m 235.56693,241.38609 c 3.87075,-1.23094 7.88704,0.0463 11.83026,-0.0413 3.42374,0.0668 6.83362,0.33345 10.25589,0.43831 1.6828,0.17852 3.79783,0.0565 4.79174,1.73265 1.3945,1.4498 2.89299,2.98902 3.00912,5.1272 0.4933,2.10876 0.28076,5.04905 -2.03429,5.97566 -1.69148,0.58368 -3.53696,0.22583 -5.25953,0.73194 -2.57679,-0.14576 -5.05945,-1.04992 -7.24327,0.38291 -3.33378,9.1e-4 -6.65509,0.38596 -9.99202,0.2066 -1.50036,-0.0216 -3.36618,0.2721 -4.20827,-1.32759 -1.00029,-2.93517 -1.23068,-3.50194 -1.87808,-5.40831 -0.41152,-2.23088 0.2803,-4.45345 0.6223,-6.64124 0.10812,-0.37916 0.2079,-0.78422 0.10615,-1.17687 z" />
    <path
       sodipodi:nodetypes="cccccccccccc"
       id="path245"
       style="fill:#afa784;fill-opacity:1;stroke:#afa784;stroke-width:0.264583px;stroke-linecap:butt;stroke-linejoin:miter;stroke-opacity:1"
       d="m 234.74775,248.98589 c 2.16148,0.96782 4.57433,0.24177 6.83962,0.62334 3.48996,0.13429 6.95827,-0.49755 10.44994,-0.3736 2.71955,-0.21225 5.40879,-0.79771 8.14985,-0.69749 1.65475,0.29696 3.86015,-0.26836 5.42496,0.53584 0.2091,1.7137 0.1145,4.19848 -1.49105,5.22806 -1.54614,1.15823 -3.79111,0.66516 -5.53183,1.16225 -1.839,0.0311 -4.47213,0.10109 -6.70611,0.18129 -3.22135,0.38719 -6.47719,0.50256 -9.71298,0.24251 -1.6549,-0.0856 -3.53387,0.54878 -4.94322,-0.62941 -1.65609,-1.14536 -1.48882,-3.37606 -2.15554,-5.07775 -0.16218,-0.3839 -0.10551,-0.82955 -0.32364,-1.19504 z" />
    <path
       sodipodi:nodetypes="cccccccccccc"
       id="path253"
       style="fill:#657376;fill-opacity:1;stroke:#657376;stroke-width:0.264583px;stroke-linecap:butt;stroke-linejoin:miter;stroke-opacity:1"
       d="m 235.13119,249.26039 c 1.36967,0.81642 3.04384,0.82045 4.44813,1.56748 1.28161,0.39152 2.62026,0.56684 3.85807,1.10187 2.2778,0.71848 4.60742,1.24927 6.90914,1.87888 1.44433,0.50353 2.85122,1.15272 4.29208,1.63843 0.90551,0.37022 -1.21136,0.33624 -1.57088,0.24927 -2.15773,0.30147 -2.49098,0.25094 -3.87429,0.25382 -1.97097,0.17486 -4.25194,0.27691 -6.23229,0.11853 -1.71011,-0.19145 -3.50033,0.22368 -5.1457,-0.39131 -1.13772,-0.56476 -1.99119,-1.75455 -2.11245,-3.0318 -0.35831,-0.98423 -0.50327,-2.04979 -0.80484,-3.02801 -0.32056,-0.34825 -0.25172,-0.95277 0.23303,-0.35716 z" />
    <path
       id="path261"
       style="fill:#16502d;stroke:#16502d;stroke-width:0.264583px;stroke-linecap:butt;stroke-linejoin:miter;stroke-opacity:1;fill-opacity:1"
       d="m 235.03533,249.08 c 1.21614,0.002 1.68241,-1.47113 2.53891,-2.1087 0.51827,-0.94387 1.21302,1.24499 1.79065,-0.34415 0.56351,-1.35931 1.74802,-0.68028 2.12182,0.37462 1.28737,1.25404 3.31878,0.91206 4.94167,0.67403 1.30287,-0.48589 2.60239,-1.15579 4.03767,-0.85582 1.61674,0.0564 3.19363,-0.36088 4.76647,-0.64502 1.11906,-0.10741 0.71192,0.51756 0.23825,0.955 1.13685,0.29807 2.40089,0.12198 3.56355,0.43705 1.3617,0.96715 -1.19662,1.41625 -1.94917,1.56971 -2.34782,0.89375 -4.88921,0.51042 -7.33011,0.52412 -1.7019,0.26217 -3.40634,0.48004 -5.09855,0.79807 -1.756,0.0112 -3.46679,-0.59151 -5.22875,-0.69099 -1.21358,-0.32669 -2.46829,-0.38069 -3.71656,-0.28543 -0.2675,-0.0162 -0.57296,-0.12964 -0.67585,-0.40249 z" />
    <path
       id="path269"
       style="fill:#0d1514;stroke:#0d1514;stroke-width:0.264583px;stroke-linecap:butt;stroke-linejoin:miter;stroke-opacity:1;fill-opacity:1"
       d="m 225.05697,247.23691 c -0.82011,0.56562 -1.80112,0.86316 -2.77623,0.83342 -0.0482,0.7888 -0.13267,1.54489 -0.61727,2.24572 -0.52924,1.32872 -1.00648,2.92824 -0.25057,4.26784 0.33872,0.88172 0.46698,1.92739 1.33601,2.49157 0.85544,0.44138 1.34861,1.30474 1.88857,2.06664 0.56009,1.14277 0.81966,-0.74121 1.53693,-0.85294 1.3823,-0.73344 2.87567,-1.22464 4.3322,-1.78556 1.12525,-0.1409 2.30498,-0.3125 3.29518,-0.7568 1.15515,0.25924 -0.7294,-0.16021 -1.04661,-0.41862 -1.36054,-0.50655 -3.00206,-0.44576 -4.1024,-1.51664 -0.76731,-0.96794 0.0528,-2.31581 -0.6366,-3.33092 -0.33387,-0.96246 -1.44311,-0.80536 -2.09518,-1.35636 -0.65279,-0.45734 -0.4997,-1.2765 -0.86403,-1.88735 z" />
    <path
       d="m 226.52105,267.61778 c 2.04518,0.62171 4.06575,1.32087 6.08364,2.01143 2.4238,0.57694 4.92468,1.00358 7.11803,2.25595 2.06978,0.8338 4.36892,1.81967 5.28971,4.02575 0.98895,1.89993 1.7048,4.66298 -0.15,6.28944 -2.14462,1.95287 -5.28199,1.07306 -7.87062,0.89584 -2.6772,-0.39785 -5.20482,-1.44237 -7.86774,-1.91629 -2.53557,-0.73597 -4.91799,-1.9481 -7.50294,-2.51676 -1.17301,-0.94342 -2.56522,-1.10766 -3.84029,-1.14768 1.39941,-0.47585 4.13583,0.94463 6.05457,0.13574 2.28862,-0.38786 3.03633,-3.28688 2.01343,-5.13388 -0.97081,-1.56125 -1.43123,-3.54004 -3.1369,-4.50961 -1.61545,-1.14372 -3.28549,-2.24051 -5.11317,-3.01245 2.03851,0.85142 4.28657,1.01143 6.41054,1.55273 0.90594,0.0618 2.13933,0.0377 2.51174,1.06979 z"
       style="fill:#100f0a;stroke:#100f0a;stroke-width:0.264583px;stroke-linecap:butt;stroke-linejoin:miter;stroke-opacity:1;fill-opacity:1"
       id="path127" />
    <path
       d="m 228.569,270.02556 c -0.65255,0.96565 0.20049,2.06832 0.46506,3.01969 0.83076,2.23633 1.54099,4.72752 3.47464,6.28684 1.23169,1.29347 2.17016,3.25417 4.14068,3.49565 1.50174,0.14757 2.96685,0.7384 4.49192,0.48036 1.1783,-0.0824 2.83943,-0.12711 3.48025,-1.23152 -0.22335,-0.96988 -0.86748,-1.93907 -1.67932,-2.52353 -1.07243,-0.22373 -2.17918,0.4743 -3.30447,0.20304 -1.97734,-0.18661 -3.91229,-0.87858 -5.4704,-2.12782 -1.03207,-0.8729 -1.48231,-2.26866 -1.86166,-3.51646 -0.004,-1.26802 0.50097,-2.49603 0.31934,-3.77763 -0.12617,-1.23823 -1.71973,-0.97319 -2.51884,-1.62842 -0.82857,-0.4563 -1.18296,0.79434 -1.5372,1.3198 z"
       style="fill:#54757f;stroke:#54757f;stroke-width:0.264583px;stroke-linecap:butt;stroke-linejoin:miter;stroke-opacity:1;fill-opacity:1"
       id="path135" />
    <path
       d="m 187.6315,163.93842 c -0.54464,0.30005 -1.43311,1.58835 -0.30948,1.64497 1.67332,0.15168 3.31835,-0.31747 4.97383,-0.48186 1.76486,-0.27887 3.5526,-0.30668 5.32905,-0.45217 0.85291,-0.13079 1.7647,-0.20357 2.52315,-0.64192 0.77778,-0.54848 1.02712,-1.5608 1.09051,-2.45965 0.16735,-0.62533 -0.11867,-1.10169 -0.72006,-0.59863 -0.87462,-0.0443 -1.50283,0.6217 -2.18866,1.06073 -1.26714,0.87462 -2.77977,1.26493 -4.2817,1.49363 -1.51327,0.33103 -3.05142,0.58881 -4.60545,0.54752 -0.60233,0.036 -1.23617,0.1247 -1.81119,-0.11262 z"
       style="fill:#0d1514;stroke:#0d1514;stroke-width:0.264583px;stroke-linecap:butt;stroke-linejoin:miter;stroke-opacity:1;fill-opacity:1"
       id="path143" />
    <path
       d="m 70.479123,167.45984 c -0.0037,0.50279 0.561861,0.64924 0.967988,0.59895 1.325354,-0.0212 2.59263,-0.5029 3.91687,-0.55501 1.060785,-0.0919 2.153892,-0.0554 3.177926,-0.38131 0.415806,-0.13604 1.243521,-0.69298 0.741704,-1.13706 -0.51347,-0.1551 -1.06399,0.0364 -1.572129,0.15074 -0.685747,0.20982 -1.383225,0.38036 -2.101394,0.42562 -0.691805,0.0806 -1.357814,0.33825 -2.063472,0.30567 -0.731054,-0.008 -1.464068,-0.0177 -2.185405,0.12203 -0.338344,0.0456 -1.071928,-0.14458 -0.882088,0.47037 z"
       style="fill:#0d1514;stroke:#0d1514;stroke-width:0.264583px;stroke-linecap:butt;stroke-linejoin:miter;stroke-opacity:1;fill-opacity:1"
       id="path151" />
    <path
       d="m 61.486676,170.65629 c 3.845492,-0.52861 7.141426,2.30389 10.485461,3.61931 -2.104143,2.1408 -6.075607,1.5739 -8.981514,2.26329 -5.651189,0.35858 -11.355827,-0.0805 -16.970637,0.82097 -5.076756,0.31192 -10.068982,1.42357 -15.171924,1.3754 -4.53235,0.47999 -9.0832,1.09501 -13.65027,1.04484 -2.049352,-0.32091 -3.442091,-5.53244 -0.624294,-4.9966 8.156964,-0.46746 16.19529,-2.04707 24.355341,-2.49382 6.758996,-0.50319 13.500063,-1.76373 20.27521,-1.74782 l 0.161345,0.0653 z"
       style="fill:#617d86;stroke:#617d86;stroke-width:0.264583px;stroke-linecap:butt;stroke-linejoin:miter;stroke-opacity:1;fill-opacity:1"
       id="path159" />
    <path
       d="m 18.351023,170.9114 c 2.704096,-0.50491 5.522423,-0.55323 8.140701,-1.42096 2.015914,-1.08899 4.268963,-1.46719 6.513418,-1.75564 2.549023,-0.42054 5.112333,-1.1142 7.711949,-0.66398 2.196473,0.33612 4.43052,0.24301 6.567263,-0.39104 1.404379,-0.082 3.691093,-0.90839 2.808278,-2.71977 -1.287097,-1.6926 -3.175614,-2.8086 -4.988443,-3.89644 -1.684434,-1.12704 -3.769196,-1.14837 -5.613421,-0.41574 -4.570399,1.20806 -9.35431,0.9573 -14.009518,1.62163 -2.041927,0.19734 -4.088258,0.35874 -6.121725,0.63438 -1.535976,0.47513 -3.232667,1.72132 -2.483557,3.54921 0.460329,1.84005 0.663271,3.73692 1.475055,5.45835 z"
       style="fill:#07add3;stroke:#07add3;stroke-width:0.264583px;stroke-linecap:butt;stroke-linejoin:miter;stroke-opacity:1;fill-opacity:1"
       id="path173" />
    <path
       d="m 77.009486,250.68815 c 7.32903,-0.29958 14.651126,0.52099 21.969167,0.42562 4.469107,-0.55664 8.952247,-0.31842 13.395647,0.31705 6.58656,0.66244 13.20881,0.88099 19.82336,0.73345 2.55601,2.12247 -3.69752,1.7064 -5.161,1.45841 -6.78732,-0.0289 -13.56249,-0.53369 -20.34794,-0.2335 -7.046599,0.0679 -14.116968,0.16065 -21.127781,-0.64366 -3.533037,-0.0811 -7.343852,1.01683 -10.643848,-0.70232 -1.190874,-0.93286 1.771173,-0.89392 2.092395,-1.35505 z"
       style="fill:#0d1514;stroke:#0d1514;stroke-width:0.264583px;stroke-linecap:butt;stroke-linejoin:miter;stroke-opacity:1;fill-opacity:1"
       id="path187" />
    <path
       d="m 51.631146,282.26161 c -12.130017,-3.88582 -24.819572,-5.36924 -37.230866,-8.00953 -3.414575,-0.97229 -8.0008292,-1.44864 -6.2241964,3.49809 0.7031961,5.24992 3.5299384,9.81483 7.3759534,13.34833 3.041868,4.34523 8.504036,5.40626 13.471502,4.86462 6.466879,-0.0563 12.903861,-0.89244 19.366487,-0.17447 6.509151,-0.0377 13.042353,-0.90652 19.540103,0.0734 9.41668,0.54812 18.864617,0.45496 28.278254,0.18937 4.581537,-1.63899 3.061445,-8.56017 2.140595,-12.2955 -4.240071,-3.16742 -10.27715,-0.16703 -15.222878,-1.3563 -5.571664,-0.64688 -11.216915,-0.32445 -16.78455,-0.9211 -4.912785,0.0772 -9.795034,0.77721 -14.710404,0.78305 z"
       style="fill:#0d1514;stroke:#0d1514;stroke-width:0.264583px;stroke-linecap:butt;stroke-linejoin:miter;stroke-opacity:1;fill-opacity:1"
       id="path195" />
    <path
       d="m 51.86531,267.19925 c -0.911154,2.00227 -1.373957,4.16979 -2.003179,6.26812 -0.368022,1.6858 -0.249728,3.45119 0.01645,5.12908 1.581261,0.0437 3.347446,-0.0486 5.011643,0.12183 4.228444,0.5831 8.509119,0.35234 12.75007,0.78066 1.231541,0.0552 2.514676,0.0724 3.667486,0.30662 0.234814,-1.55324 -0.03339,-3.18616 0.10153,-4.76962 0.138556,-1.9534 0.602195,-3.88775 1.237659,-5.73514 0.448415,-1.37006 -1.800131,-0.0341 -2.589998,-0.30578 -2.503392,0.0269 -4.972971,-0.48208 -7.45927,-0.69509 -1.767984,-0.45189 -3.579085,-0.20853 -5.371365,-0.34953 -1.800021,-0.45654 -3.799443,0.50413 -5.361022,-0.75115 z"
       style="fill:#0d1514;stroke:#0d1514;stroke-width:0.264583px;stroke-linecap:butt;stroke-linejoin:miter;stroke-opacity:1;fill-opacity:1"
       id="path203" />
    <path
       d="m 81.93702,269.5174 c 0.0032,2.46515 -0.58531,4.89239 -1.492606,7.17124 0.03344,0.82525 -0.623925,2.10578 -0.466116,2.52298 4.817498,-0.29258 9.611266,0.57813 14.422406,0.74631 2.402657,0.0914 4.74271,0.66802 7.084886,1.14177 0.92379,0.0736 2.39482,0.67999 2.0903,-0.75652 0.6637,-1.44672 0.25302,-3.02224 0.41379,-4.54884 0.18146,-2.01392 -0.50942,-4.28042 0.77538,-6.05958 -1.54958,0.28601 -3.2664,0.25488 -4.933182,0.10616 -3.395518,-0.2424 -6.799731,-0.0137 -10.195167,-0.26337 -2.262852,-0.0465 -4.522962,0.21529 -6.783876,-0.0298 -0.305108,-0.014 -0.61189,-0.0256 -0.915815,-0.0304 z"
       style="fill:#0d1514;stroke:#0d1514;stroke-width:0.264583px;stroke-linecap:butt;stroke-linejoin:miter;stroke-opacity:1;fill-opacity:1"
       id="path211" />
    <path
       d="m 73.026428,275.29611 c 1.084079,-0.60318 1.946891,-1.55619 2.613882,-2.58853 0.38708,-0.48776 0.574127,-1.26868 1.162294,-1.51157 0.715494,0.0647 0.268783,0.95096 0.459954,1.39799 0.262679,0.75889 1.073007,1.12163 1.568643,1.7099 0.398068,0.51291 1.072543,0.86822 1.332128,1.44198 -0.693599,0.0258 -1.435201,-0.22689 -2.148862,-0.31591 -1.039418,-0.0752 -2.059962,0.26874 -3.102001,0.24903 -0.642822,0.004 -1.310496,-0.0795 -1.886038,-0.38289 z"
       style="fill:#c83737;stroke:#c83737;stroke-width:0.264583px;stroke-linecap:butt;stroke-linejoin:miter;stroke-opacity:1"
       id="path225" />
    <path
       d="m 103.50079,274.12129 c 7.03488,-5.0651 13.37403,-11.4958 21.83844,-14.14175 10.4987,-4.11546 22.17682,-4.70358 33.29792,-3.4281 10.70185,1.51274 20.92941,6.04561 29.48904,12.57201 5.82546,5.19449 11.02603,12.07717 11.36651,20.16637 -3.60954,4.27619 -9.82921,0.9835 -14.5704,1.49479 -10.70835,-0.9983 -21.43561,-1.96996 -32.19901,-1.64934 -7.08033,-0.54909 -14.17194,-0.69211 -21.26112,-0.55403 -10.30059,-0.81161 -20.62673,-0.96068 -30.95422,-1.0802 -3.283829,-3.46693 1.39268,-10.16836 2.99284,-13.37975 z"
       style="fill:none;stroke:#000000;stroke-width:0.264583px;stroke-linecap:butt;stroke-linejoin:miter;stroke-opacity:1"
       id="path234" />
    <path
       d="m 142.80353,260.97778 c 0.27592,1.00814 0.80558,1.95055 0.91394,3.00069 -0.37618,0.62403 -0.13721,1.33434 0.65177,1.29602 2.92218,0.3984 5.85073,-0.32668 8.77684,-0.14598 0.60303,0.15164 1.43156,0.41248 1.63908,-0.4326 0.43001,-0.97678 0.77835,-1.99155 1.02824,-3.0292 0.52117,-0.36884 0.98444,-0.969 0.0236,-0.74733 -0.96762,0.13965 -1.92765,0.33855 -2.9103,0.3486 -1.13058,0.0987 -2.2491,0.33673 -3.39045,0.31163 -1.86329,-0.012 -3.73336,-0.0732 -5.58303,-0.30769 -0.39081,-0.0638 -0.77827,-0.15569 -1.14968,-0.29414 z"
       style="fill:#a7f0ff;stroke:#a7f0ff;stroke-width:0.264583px;stroke-linecap:butt;stroke-linejoin:miter;stroke-opacity:1;fill-opacity:1"
       id="path242" />
    <path
       d="m 124.7112,266.87849 c 0.54892,-1.26103 1.89172,-1.93395 2.9014,-2.80668 2.71699,-1.89824 6.40794,-2.39085 9.45179,-0.99153 1.69757,0.68407 3.35812,1.71779 4.20327,3.40836 1.13567,1.97123 1.54929,4.31517 1.39902,6.56598 -0.30597,1.27171 -0.84341,2.72293 -2.13515,3.28968 -0.5098,1.06395 -1.69111,0.62272 -1.38941,-0.49297 -0.71791,-1.42284 2.41675,-0.66077 1.14244,-2.06008 -1.10299,-1.29611 2.12926,-1.64074 0.43362,-2.60834 -1.58152,-0.62254 0.72081,-2.33832 -0.12644,-2.76158 -1.51785,0.27111 -2.54484,1.6309 -4.05742,1.96071 -1.59896,0.62506 -3.20755,1.28081 -4.7194,2.07369 -1.16822,-0.0589 0.0144,-0.7788 0.60577,-0.60577 1.45488,-1.01959 3.15812,-1.71351 4.50477,-2.89896 0.79486,-1.00419 2.3082,-1.6711 2.20586,-3.16409 -0.28016,-0.68367 -1.2755,0.83236 -0.77635,-0.43592 0.62698,-1.72949 -1.3713,-0.19172 -1.83838,0.32325 -1.07477,0.39049 -1.43074,-1.56054 -1.91715,-2.29989 -0.57889,-0.0659 -0.13589,1.78663 -1.26255,1.2265 -0.74047,-0.0193 -1.8633,-0.5819 -1.38255,0.43577 -0.64437,0.48369 -2.40094,-0.14887 -2.07325,1.01071 -0.59559,0.53326 -2.33312,0.30637 -1.73985,1.5117 -1.08269,0.015 -2.1068,1.11439 -1.8714,1.89393 -0.72581,0.10207 -1.44838,1.02266 -0.22382,0.93492 1.85156,-0.13759 -1.1189,2.22064 0.61406,2.41129 1.05503,-0.52824 0.15425,0.84231 1.01023,0.54506 2.07889,-0.49107 -0.1457,2.25531 1.27491,2.42847 1.15075,0.16679 -0.52178,1.79875 -1.25085,1.80489 -1.42028,0.84054 -3.23821,-0.0134 -3.47851,-1.66061 -0.35993,-1.54633 -0.48304,-3.14015 -0.7034,-4.71012 0.0761,-1.11032 0.2858,-2.24232 0.6807,-3.29114 0.17817,-0.34357 0.37459,-0.67582 0.51804,-1.03723 z"
       style="fill:#d8f6fc;stroke:#d8f6fc;stroke-width:0.264583px;stroke-linecap:butt;stroke-linejoin:miter;stroke-opacity:1;fill-opacity:1"
       id="path263" />
    <path
       d="m 156.12629,273.89946 c -0.75909,-1.51875 -0.45805,-3.27195 -0.6784,-4.90219 0.0153,-1.90483 0.81839,-3.77587 2.02156,-5.22676 1.09987,-0.74229 2.34419,-1.26442 3.51379,-1.89397 1.72509,-0.76434 3.66887,-0.36952 5.45446,-0.0738 1.37585,0.32429 2.56322,1.13916 3.78531,1.81729 1.61338,0.96 2.15782,2.88092 2.73282,4.54618 0.62898,2.20667 0.85644,4.70047 -0.1164,6.83947 -0.63472,0.98549 -2.2497,3.21076 -3.35975,1.68441 -1.29542,-0.53982 2.63166,-1.06453 0.7891,-1.70293 0.0192,-0.7622 1.85877,-1.70169 1.06032,-2.46653 -0.77002,-0.0274 -2.00566,-0.30268 -0.87834,-1.06361 0.7452,-0.44516 1.33341,-1.89885 -0.0708,-1.72861 -1.6977,-0.53449 2.12147,-2.0172 0.66964,-2.74281 -1.19744,0.42945 -2.15057,1.39858 -3.28587,1.99175 -1.36691,0.85169 -2.76587,1.65491 -4.21521,2.35859 -1.30065,-0.98025 0.90963,-1.81198 1.63245,-2.22078 1.25167,-0.81873 2.45635,-1.70549 3.78183,-2.40246 0.85342,-0.30566 1.53548,-1.73406 0.0581,-1.46757 -0.65512,0.4559 -1.01174,0.2567 -0.77021,-0.54643 -0.091,-1.8345 -1.53123,0.75886 -2.46728,0.37996 -0.91927,-0.0207 -0.9146,-2.34836 -1.50517,-0.85236 -0.7495,0.50199 -2.58405,-0.39017 -1.5963,0.8996 -0.73364,-0.91052 -1.9427,-2.10614 -2.14556,-0.17186 -0.0948,0.82024 -2.52068,0.59744 -1.093,1.31311 1.16452,0.85209 -2.49522,0.636 -0.80367,1.34271 1.65972,0.93461 -0.82013,1.66426 -1.12766,2.52225 0.69052,0.24892 1.35686,0.69949 0.60154,1.46897 -1.11469,1.49037 1.30302,0.705 1.5136,1.54321 -0.85772,0.71938 -0.062,1.63666 0.81834,1.48437 -0.6855,0.63661 -0.86217,2.5423 -2.15129,1.59283 -0.92524,-0.38932 -2.36357,-1.12824 -2.1679,-2.32198 z"
       style="fill:#d8f6fc;stroke:#d8f6fc;stroke-width:0.264583px;stroke-linecap:butt;stroke-linejoin:miter;stroke-opacity:1;fill-opacity:1"
       id="path273" />
    <path
       d="m 111.16661,274.54277 c 4.26468,-3.72464 8.75046,-7.13673 13.5936,-10.03834 3.94892,-3.59371 8.77054,-5.83598 13.87344,-7.21506 7.97736,-1.91838 16.60299,-1.74255 24.43391,0.73119 8.1345,3.07317 14.45902,9.21283 21.83394,13.61382 2.1371,3.52599 8.62984,6.13353 9.96654,0.43573 0.35057,-5.35977 -5.37137,-8.29484 -9.09628,-11.0094 -6.7946,-3.65246 -13.19977,-8.07507 -20.59695,-10.51845 -10.5456,-3.47321 -21.93236,-1.8284 -32.47029,0.78704 -4.40856,2.05253 -8.78897,4.17109 -13.3814,5.85225 -4.58526,2.53246 -8.22171,6.47249 -12.46547,9.5098 -3.58316,1.73919 -6.45746,8.40438 -0.96884,9.46418 1.8769,0.20356 3.80434,-0.46094 5.2778,-1.61276 z"
       style="fill:#394042;stroke:#394042;stroke-width:0.264583px;stroke-linecap:butt;stroke-linejoin:miter;stroke-opacity:1;fill-opacity:1"
       id="path323" />
    <path
       d="m 103.45149,285.78962 c 15.1476,-3.31232 30.50929,-6.38686 46.09683,-6.22287 7.77828,-0.46944 15.51216,1.00551 23.22023,1.78527 5.62926,1.38281 11.37003,2.33083 16.9645,3.81775 3.68961,1.59055 6.7041,6.30457 6.11119,10.23016 -3.2369,1.88158 -7.46794,0.57412 -11.11262,1.02285 -13.77727,-1.74825 -27.64844,0.76001 -41.45956,-0.50303 -9.96581,-0.0449 -19.93322,0.31504 -29.89295,-0.0488 -4.60826,-1.24055 -15.955736,3.55805 -13.586692,-4.86231 0.748772,-1.82644 1.338032,-4.86798 3.659072,-5.21899 z"
       style="fill:#394042;stroke:#394042;stroke-width:0.264583px;stroke-linecap:butt;stroke-linejoin:miter;stroke-opacity:1;fill-opacity:1"
       id="path343" />
    <path
       d="m 178.51672,260.96927 c 1.27443,2.54537 1.61505,5.81652 4.15504,7.51147 3.15124,0.58273 3.26583,-3.28507 2.70577,-5.40302 1.32163,-2.80019 -5.3082,-3.55812 -1.94463,-5.1976 2.24152,-1.28288 5.26263,-2.4645 6.88276,0.39587 1.84954,1.49513 3.57441,4.02235 6.20245,3.73512 3.06996,-0.89949 3.61695,2.54475 4.92918,4.10726 2.11329,-0.0336 2.95946,2.96173 4.03425,4.1632 0.43389,4.20074 1.3673,8.37207 0.89483,12.61803 0.70765,2.42411 2.82455,4.36127 3.98373,6.65497 0.49053,1.78268 5.36875,5.37857 1.76998,5.68431 -4.67264,-0.0207 -9.32332,1.69783 -13.97384,0.75612 -3.19705,-0.71397 -4.68413,-3.87534 -6.82631,-6.01868 -2.3469,-3.2902 -5.13056,-6.28814 -8.59021,-8.42721 -1.76107,-1.7728 -3.49729,-3.67168 -4.80139,-5.82636 -1.52584,-3.48886 -3.39904,-6.86439 -4.04304,-10.67107 0.0909,-2.3048 -3.35879,-5.82444 -0.13731,-7.12275 2.12597,-0.14426 3.73272,1.32988 4.75874,3.04034 z"
       style="fill:#cc9f8f;stroke:#cc9f8f;stroke-width:0.264583px;stroke-linecap:butt;stroke-linejoin:miter;stroke-opacity:1;fill-opacity:1"
       id="path351" />
    <path
       d="m 102.11731,262.68847 c 3.08028,-2.49178 7.39058,-4.15975 11.23825,-2.50673 0.57399,1.76789 -3.5064,2.58196 -2.86828,5.15244 -0.71849,1.95213 1.04994,7.44217 3.3796,4.59372 0.43662,-2.8118 1.04992,-5.75789 2.96727,-8.00122 2.00842,-1.71956 4.66173,-3.81606 7.46861,-2.61006 1.27102,3.53606 -3.45172,7.16518 -3.37499,11.16682 -0.52802,3.03915 -0.59525,6.36937 -2.74851,8.82183 -2.29012,2.89879 -4.15166,6.69682 -8.02281,7.71461 -3.73001,1.79418 -6.33303,5.19569 -9.20176,8.07412 -1.757516,2.30625 -4.911238,0.79631 -7.307018,0.89389 -3.682345,-0.0835 -7.362448,0.0164 -11.029967,0.25075 -3.138359,-0.24423 -1.030425,-4.44079 -0.09531,-6.09698 0.883695,-2.59427 3.069278,-4.64747 3.645457,-7.30992 0.061,-2.85058 1.805541,-5.11582 2.995242,-7.56014 1.17768,-2.88488 1.542406,-6.29458 4.810593,-7.54047 0.162421,-2.81604 2.863897,-4.5088 5.548118,-3.61782 1.076822,0.11623 1.924022,-0.69983 2.595502,-1.42484 z"
       style="fill:#cc9f8f;stroke:#cc9f8f;stroke-width:0.264583px;stroke-linecap:butt;stroke-linejoin:miter;stroke-opacity:1;fill-opacity:1"
       id="path359" />
    <path
       d="m 22.203411,186.95907 c 4.73029,-0.6043 9.538041,-0.12973 14.249408,-0.93733 6.281843,-0.5605 12.532062,0.3291 18.780774,0.75774 7.541254,-0.004 15.066638,0.21227 22.571174,0.95697 4.137509,0.51386 8.82083,0.27762 12.385023,2.68719 3.103088,3.11077 2.52296,7.90646 2.513068,11.91096 -0.627992,5.14553 -6.712615,4.42059 -10.484747,4.24294 -5.436251,-0.78083 -10.862096,-0.95667 -16.344005,-0.67872 -2.934746,-0.5892 -5.52796,-1.55027 -7.339888,1.20173 -4.350852,0.39138 -6.845911,-3.20498 -11.456102,-2.07494 -4.800857,-0.32214 -9.602235,-0.82797 -14.424895,-0.40428 -4.62637,0.43536 -9.162073,-0.67293 -13.756128,-0.80979 -4.485988,-1.00216 -1.447933,-6.8678 -1.752583,-10.18365 0.145952,-2.60212 -0.05189,-8.19055 4.047505,-6.86521 l 0.519962,0.11585 z"
       style="fill:#100f0a;stroke:#100f0a;stroke-width:0.264583px;stroke-linecap:butt;stroke-linejoin:miter;stroke-opacity:1;fill-opacity:1"
       id="path367" />
    <path
       d="m 18.909249,187.94728 c 3.29255,-1.53904 7.005061,0.80132 10.461076,-0.53973 4.624481,0.51749 9.232767,0.35589 13.871237,0.47222 8.27257,0.18707 16.558119,0.0125 24.806036,0.8758 6.836361,0.84784 14.010701,-0.13825 20.559276,2.39456 1.519138,3.01388 1.630044,6.54501 2.148672,9.81613 0.103806,4.91763 -5.279413,5.05679 -8.822355,4.26731 -5.589817,-0.4699 -11.13346,-1.39068 -16.765232,-1.30398 -8.0466,-0.34778 -16.056819,-1.3923 -24.126541,-1.32244 -7.511755,-0.15641 -15.040627,0.20876 -22.528414,-0.55119 -3.0885,-2.59221 0.507552,-7.31287 -0.223525,-10.82513 0.106657,-1.10901 0.248385,-2.22693 0.61977,-3.28355 z"
       style="fill:#07add3;stroke:#07add3;stroke-width:0.264583px;stroke-linecap:butt;stroke-linejoin:miter;stroke-opacity:1;fill-opacity:1"
       id="path375" />
    <path
       sodipodi:nodetypes="ccccccccccc"
       d="m 17.883813,194.81167 c 7.99393,-0.83075 16.462014,0.54272 24.441322,0.56724 7.449389,-0.36854 14.943545,-0.75543 22.341731,0.48098 6.032249,0.99821 12.135776,1.12752 18.229882,0.90274 3.179458,4.2e-4 9.130281,-0.0152 7.809291,4.79519 0.357106,4.01379 -2.417198,4.23785 -11.920176,4.44832 -4.258676,-1.33968 -8.812689,-0.33416 -13.183547,-1.12687 -5.869548,-0.99371 -11.862841,-0.15956 -17.743411,-1.0873 -6.926505,-0.22273 -13.809899,-1.29218 -20.748727,-0.9327 -2.969678,-0.12674 -9.516635,0.28116 -8.936948,-1.1186 -1.747837,-1.05882 -0.752318,-4.68662 -0.289417,-6.929 z"
       style="fill:#afa784;fill-opacity:1;stroke:#afa784;stroke-width:0.264583px;stroke-linecap:butt;stroke-linejoin:miter;stroke-opacity:1"
       id="path383" />
    <path
       d="m 76.931837,189.31195 c 1.011852,0.98551 2.398129,0.31529 3.430051,-0.0138 -0.07588,0.98789 -1.322769,1.56978 -1.773961,2.48273 -2.207281,2.7487 -4.229871,5.64702 -5.916714,8.74605 -0.883077,1.45655 -1.556484,3.05323 -2.600113,4.40419 -0.846642,0.82834 -2.094046,0.20202 -2.989693,-0.20729 -0.550701,-0.50102 0.80076,-1.59481 1.177255,-2.21482 0.712078,-0.74841 1.106336,-1.74058 1.771333,-2.52576 0.708835,-1.47866 1.47258,-2.95023 2.503476,-4.22769 0.857109,-1.3786 1.515123,-2.87826 2.558413,-4.13758 0.598124,-0.78071 1.233316,-1.53217 1.839953,-2.30604 z"
       style="fill:#a7f0ff;stroke:#a7f0ff;stroke-width:0.264583px;stroke-linecap:butt;stroke-linejoin:miter;stroke-opacity:1;fill-opacity:1"
       id="path399" />
    <path
       d="m 82.718417,189.87664 c 1.011898,-0.28462 2.08953,-0.0836 3.077173,0.1555 -0.0073,0.98243 -1.043195,1.82728 -1.437311,2.75968 -1.409725,2.41321 -2.751528,4.88969 -4.607616,7.00037 -0.859201,0.99052 -1.542106,2.10449 -2.151461,3.25946 -0.84497,0.64728 -0.858418,2.55059 -2.22968,2.17781 -0.653205,-0.46378 -2.304847,0.34455 -2.313484,-0.54839 0.629555,-0.81732 1.125304,-1.74059 1.91644,-2.42336 1.088979,-1.48592 1.8014,-3.21067 2.812106,-4.75111 1.152611,-2.00175 2.698041,-3.7223 4.10545,-5.53876 0.423553,-0.61823 0.818358,-1.32211 0.828383,-2.0912 z"
       style="fill:#a7f0ff;stroke:#a7f0ff;stroke-width:0.264583px;stroke-linecap:butt;stroke-linejoin:miter;stroke-opacity:1;fill-opacity:1"
       id="path407" />
    <path
       d="m 53.419261,205.37797 c -0.930901,0.71547 -1.341962,1.99607 -2.558418,2.36387 -0.709648,0.72874 1.732581,0.24184 2.298386,0.22768 1.841598,-0.48075 3.755484,-0.062 5.627743,-0.25592 1.569629,-0.18879 3.06254,0.9426 4.562244,0.6144 0.82426,-0.25492 0.89902,-0.86433 -0.05665,-0.81173 -1.165101,-0.4714 -2.038746,-1.50304 -3.346681,-1.63741 -1.812178,-0.5004 -3.704236,-0.51391 -5.559185,-0.30851 -0.332443,0.0316 -0.646358,-0.13419 -0.967437,-0.19238 z"
       style="fill:#100f0a;stroke:#100f0a;stroke-width:0.264583px;stroke-linecap:butt;stroke-linejoin:miter;stroke-opacity:1;fill-opacity:1"
       id="path415" />
    <path
       d="m 47.511932,204.00293 c 1.39404,-1.45921 2.32233,-3.30505 2.878235,-5.23142 0.459022,-0.91188 1.175046,-1.68743 1.446604,-2.69401 0.256478,-0.96831 1.062218,-1.74852 2.093522,-1.76342 1.413006,-0.12499 2.896274,0.19955 4.105346,0.9423 1.390958,1.00823 1.834519,2.7791 2.422637,4.30398 0.57415,1.80578 1.482039,3.51327 1.93574,5.34437 -0.971828,0.31065 -2.159091,0.23199 -3.195352,0.0578 -1.419559,-0.39966 -2.892275,-0.71244 -4.374734,-0.52205 -1.762137,0.25637 -3.566164,0.24869 -5.335965,0.0504 -0.673525,-0.0916 -1.335924,-0.26054 -1.976033,-0.48802 z"
       style="fill:#657376;stroke:#657376;stroke-width:0.264583px;stroke-linecap:butt;stroke-linejoin:miter;stroke-opacity:1;fill-opacity:1"
       id="path1248" />
    <path
       d="m 67.920822,188.51197 c 1.396602,0.92623 3.160101,0.42299 4.728035,0.5324 0.728747,0.26076 2.623188,-0.59489 2.54488,0.37376 -1.414986,2.10545 -3.327489,3.87498 -4.547144,6.12986 -1.526459,2.62644 -2.827852,5.42038 -4.837589,7.72853 -0.40327,1.15247 -1.346314,2.06939 -2.628296,1.58536 -1.839982,-0.14985 -3.691451,-0.18897 -5.532053,-0.19073 -1.072832,-0.65863 0.875988,-2.00851 1.279553,-2.86652 1.867173,-2.20076 3.019598,-4.88266 4.737945,-7.18413 1.239992,-1.50825 2.601167,-2.9668 3.346441,-4.80264 0.25237,-0.46715 0.541689,-0.91921 0.908228,-1.30589 z"
       style="fill:#a7f0ff;stroke:#a7f0ff;stroke-width:0.264583px;stroke-linecap:butt;stroke-linejoin:miter;stroke-opacity:1;fill-opacity:1"
       id="path391" />
  </g>
</svg>
