<?xml version="1.0" encoding="UTF-8" standalone="no"?>
<svg
   xmlns:dc="http://purl.org/dc/elements/1.1/"
   xmlns:cc="http://creativecommons.org/ns#"
   xmlns:rdf="http://www.w3.org/1999/02/22-rdf-syntax-ns#"
   xmlns:svg="http://www.w3.org/2000/svg"
   xmlns="http://www.w3.org/2000/svg"
   xmlns:sodipodi="http://sodipodi.sourceforge.net/DTD/sodipodi-0.dtd"
   xmlns:inkscape="http://www.inkscape.org/namespaces/inkscape"
   width="1200"
   height="600"
   viewBox="0 0 317.5 158.75"
   version="1.1"
   id="svg8"
   inkscape:version="1.0.1 (3bc2e813f5, 2020-09-07)"
   sodipodi:docname="skl-labels.svg">
  <defs
     id="defs2" />
  <sodipodi:namedview
     id="base"
     pagecolor="#ffffff"
     bordercolor="#666666"
     borderopacity="1.0"
     inkscape:pageopacity="0.0"
     inkscape:pageshadow="2"
     inkscape:zoom="1.4"
     inkscape:cx="590.00741"
     inkscape:cy="315.57414"
     inkscape:document-units="mm"
     inkscape:current-layer="layer1"
     showgrid="false"
     units="px"
     inkscape:window-width="1920"
     inkscape:window-height="1061"
     inkscape:window-x="0"
     inkscape:window-y="19"
     inkscape:window-maximized="0"
     inkscape:document-rotation="0"
     inkscape:snap-global="false" />
  <metadata
     id="metadata5">
    <rdf:RDF>
      <cc:Work
         rdf:about="">
        <dc:format>image/svg+xml</dc:format>
        <dc:type
           rdf:resource="http://purl.org/dc/dcmitype/StillImage" />
        <dc:title />
      </cc:Work>
    </rdf:RDF>
  </metadata>
  <g
     inkscape:label="Layer 1"
     inkscape:groupmode="layer"
     id="layer1"
     transform="translate(0,-138.25001)">
    <g
       id="g478"
       transform="translate(-53.372184,-37.074901)">
      <path
         id="path356"
         style="fill:#bfa37e;fill-opacity:1;stroke:#bfa37e;stroke-width:0.264583px;stroke-linecap:butt;stroke-linejoin:miter;stroke-opacity:1"
         d="m 175.52123,223.41091 c 3.38392,0.22669 7.14234,-0.25765 8.52397,-3.81281 1.78849,-2.37462 5.11727,-2.90002 7.90609,-2.90443 2.92438,0.606 5.3048,3.19266 6.13843,6.01464 2.16146,2.05499 5.88619,-0.98213 8.12207,1.49444 1.35922,2.74432 0.33065,6.01692 0.9817,8.97355 -0.13673,3.77536 0.48271,7.53795 0.34019,11.30198 0.68728,5.65215 -1.5874,11.21661 -0.87701,16.8934 -0.044,3.26671 0.97128,6.79359 -0.19882,9.94719 -4.10255,2.47867 -8.86597,-0.0882 -13.27674,0.6838 -3.83932,0.39666 -7.75611,0.52235 -11.48944,-0.59904 -3.14984,-0.2773 -8.63004,1.95151 -8.42875,-3.27443 -0.0385,-3.88857 -0.27572,-7.78761 0.23402,-11.65854 -0.24401,-4.51216 -0.27732,-9.04154 -0.61488,-13.5397 -0.92231,-3.33943 0.63927,-6.54274 0.45219,-9.87747 0.0898,-2.72896 -1.47896,-8.61095 3.21379,-6.38458 3.02474,0.68865 7.00606,4.01324 9.65381,0.9236 0.28012,-2.73527 1.82452,3.23522 4.47702,1.18515 2.56397,-0.9931 3.9465,-5.40438 0.79597,-6.56459 -3.21811,-1.74527 -5.45622,2.12425 -4.46351,4.95966 0.37672,3.40576 -2.33125,6.19004 -5.79682,5.40532 -2.69843,-0.57273 -6.95378,0.45742 -8.04728,-2.90668 0.15343,-2.08417 -0.40967,-5.67807 2.354,-6.26046 z" />
      <path
         id="path362"
         style="fill:#eddf8d;fill-opacity:1;stroke:#eddf8d;stroke-width:0.264583px;stroke-linecap:butt;stroke-linejoin:miter;stroke-opacity:1"
         d="m 191.43431,227.48922 c 1.21776,-0.36573 1.46279,-1.90499 1.20758,-2.99045 -0.22689,-1.00361 -1.16714,-1.8671 -2.2401,-1.71973 -1.10712,-0.15277 -2.63724,0.007 -2.85311,1.36729 -0.22449,1.08128 -0.27428,2.38671 0.45382,3.2956 0.64397,0.87244 2.03598,0.2392 2.60359,1.22551 0.58129,1.02966 -0.73981,1.96113 -1.63387,1.32783 -0.6843,-0.47132 -1.80559,-0.40772 -2.11914,-1.3265 -0.67667,-1.50544 -1.41661,-3.26174 -0.76076,-4.90027 0.50659,-0.64079 1.01561,-1.35735 1.71225,-1.78229 1.29594,-0.47491 2.71156,-0.97644 4.09209,-0.5253 1.07808,0.40851 2.1962,1.24547 2.29322,2.48301 0.13829,1.20258 0.1111,2.44281 -0.13115,3.62947 -0.31853,0.80971 -0.95037,1.503 -1.63359,2.03167 -0.94624,0.49263 -2.09282,0.46728 -3.12063,0.29092 -0.9091,-0.24387 -0.92305,-1.70809 0.0881,-1.80715 0.73276,-0.0685 1.42721,-0.15993 2.0417,-0.59961 z" />
      <path
         id="path369"
         style="fill:#406225;fill-opacity:1;stroke:#406225;stroke-width:0.264583px;stroke-linecap:butt;stroke-linejoin:miter;stroke-opacity:1"
         d="m 198.98126,224.36774 c 2.80004,-0.67669 7.98121,-0.10108 6.38462,4.009 -0.0417,3.59921 1.0164,7.21381 0.10828,10.79868 -0.58554,3.58003 0.91616,7.11092 0.78702,10.72065 0.16713,4.35335 -1.2013,8.63021 -0.55908,12.99511 -0.33908,2.74801 1.4864,7.92154 -2.47905,8.47002 -3.53208,-0.33314 -7.06734,-0.41131 -10.5638,0.24494 -5.55882,-0.0656 -11.08019,-1.30671 -16.62244,-1.34446 -2.25368,-2.15521 -0.88329,-6.28165 -1.56393,-9.33878 1.09238,-9.00317 -0.1573,-18.05658 0.26382,-27.08326 0.18165,-2.84396 -2.05369,-8.70438 2.58319,-8.83587 3.03538,1.28084 6.94221,0.37463 7.38675,-3.28093 1.96423,-3.33212 7.31445,-4.86241 9.96832,-1.48927 0.66624,2.2557 3.88148,3.09909 3.44551,-0.19726 -2.69263,-4.46248 -9.454,-5.92779 -13.78078,-2.8697 -2.85788,1.33848 -2.77825,6.11346 -6.74077,5.12687 -3.19884,-0.58084 -6.68787,1.77785 -6.10158,5.29017 0.38978,4.16483 0.56006,8.2975 0.13405,12.47105 -0.23945,3.1952 0.3417,6.28902 0.57611,9.45374 -0.0178,6.24156 0.19417,12.51646 -0.33214,18.73041 -0.16833,4.49157 4.68288,6.08485 8.41405,5.59094 5.49838,0.21157 11.00253,-0.01 16.50211,0.10441 3.59957,-0.89268 8.98049,1.60713 11.15237,-2.40004 1.0434,-3.46741 1.29754,-7.2478 1.20373,-10.87298 -1.42123,-6.12349 0.57145,-12.40282 -0.52285,-18.5659 0.0878,-5.34764 0.5811,-10.74224 -0.14424,-16.06507 -0.0501,-4.06635 -4.42604,-3.33389 -7.17624,-3.50389 -3.61594,1.55684 -3.79207,-7.87819 -6.7727,-3.04453 0.76628,1.48951 1.73098,6.24109 4.44967,4.88595 z" />
      <path
         id="path375"
         style="fill:#885a1d;fill-opacity:1;stroke:#885a1d;stroke-width:0.264583px;stroke-linecap:butt;stroke-linejoin:miter;stroke-opacity:1"
         d="m 195.25136,189.68632 c -0.15115,2.30079 -0.15844,4.6137 -0.73809,6.86399 -0.24969,3.98473 -2.2116,7.55805 -2.75011,11.48846 -0.39125,1.816 -0.71764,3.69566 -1.32738,5.38313 -2.14094,1.31962 -0.87518,3.25071 -0.37107,5.04505 0.32299,1.8831 -0.90866,4.07412 0.4717,5.70781 1.89006,-1.01386 -0.82962,-5.76441 1.48167,-6.90644 1.02594,-1.26105 -1.23262,-2.90049 -0.13466,-4.5622 0.65233,-2.27184 0.97457,-4.69678 2.1257,-6.77784 0.85089,-1.96303 1.3963,-4.00697 1.51059,-6.14697 0.93873,-5.15831 2.29863,-10.47705 1.11496,-15.71291 -0.25019,-2.46827 -2.70806,-3.39887 -4.88509,-2.82238 -2.49279,0.87206 -3.95827,4.03447 -2.72146,6.4661 1.38264,3.003 0.61114,6.36424 0.71505,9.54494 -0.20301,4.33044 0.10864,8.69723 -0.7536,12.97442 0.64838,2.35263 -2.53082,4.50661 -0.9885,6.46544 1.40441,1.54177 0.36287,3.79556 0.49695,5.62412 -0.71386,1.23463 0.75179,3.0834 0.96125,0.92399 -0.70902,-2.80881 0.52529,-5.50227 0.7359,-8.26725 -0.3468,-2.90182 -0.69782,-5.93898 0.36542,-8.73587 0.93542,-4.58698 0.60222,-9.29405 0.11317,-13.9126 0.43558,-2.28361 -0.22244,-4.40568 -1.02911,-6.43803 -0.016,-2.3205 3.21143,-4.33201 4.97111,-2.44032 1.31674,1.68107 1.1482,4.28928 0.6356,6.23536 z" />
      <path
         id="path385"
         style="fill:#406225;fill-opacity:1;stroke:#406225;stroke-width:0.264583px;stroke-linecap:butt;stroke-linejoin:miter;stroke-opacity:1"
         d="m 194.85815,237.19262 c 1.10751,-1.72539 3.2481,-3.41761 5.38754,-2.82848 1.69219,2.23961 -1.00817,4.81842 -2.0209,6.81942 -2.79375,4.4882 -7.68484,6.90015 -11.41661,10.47503 -1.32998,1.77481 -3.43051,4.45752 -5.85222,3.81493 -1.34506,-0.85022 -4.85307,-1.99722 -2.72275,-3.92402 1.32183,-2.50716 3.18348,1.43538 5.01705,-0.45572 1.92692,-1.85334 2.63841,-4.59755 4.60359,-6.41407 1.11118,-1.79659 2.85063,-3.02522 4.1445,-4.6453 0.8424,-1.04922 1.74855,-2.06893 2.8598,-2.84179 z" />
      <path
         id="path392"
         style="fill:#406225;fill-opacity:1;stroke:#406225;stroke-width:0.264583px;stroke-linecap:butt;stroke-linejoin:miter;stroke-opacity:1"
         d="m 180.54859,253.44316 c 0.55486,-0.45555 1.16568,-0.8354 1.77035,-1.21996 0.40993,0.1107 -0.0488,0.77372 -0.0854,1.07605 -0.4652,1.37276 -0.86098,2.76915 -1.37503,4.12519 -0.27158,0.17448 -0.81975,0.12579 -1.00271,-0.065 -0.0882,-0.52923 0.19858,-1.03987 0.26716,-1.56132 0.0685,-0.29675 0.37371,-1.28195 -0.21969,-0.92322 -0.30292,0.28329 -0.51474,0.78305 -0.97629,0.81309 -0.33337,-0.27398 0.28103,-0.64346 0.47627,-0.86038 0.29324,-0.34808 0.47354,-0.7968 0.84996,-1.07897 0.0975,-0.10272 0.19494,-0.20576 0.29537,-0.30548 z" />
      <path
         id="path403"
         style="fill:#406225;fill-opacity:1;stroke:#406225;stroke-width:0.264583px;stroke-linecap:butt;stroke-linejoin:miter;stroke-opacity:1"
         d="m 195.34618,241.47486 c 0.0829,2.084 -0.82101,4.07353 -1.31529,6.05196 -1.36271,2.18664 -1.97462,4.69785 -2.63843,7.1568 -0.3694,1.10859 -0.52788,2.41117 -1.73335,2.95691 -1.71413,1.26462 -0.44244,-1.7648 -0.18996,-2.5814 0.39348,-1.66061 0.15879,-3.38033 0.35087,-5.06252 -0.39749,-1.21609 -0.18941,-3.65175 -2.08028,-3.34723 -1.98875,0.13376 -3.71408,1.36374 -5.57489,1.86632 1.31941,-1.3358 2.6596,-2.68214 4.29741,-3.63497 1.48277,-1.42291 3.20632,-2.48469 5.13524,-3.15588 1.03552,-0.49019 3.30814,-2.29131 3.74868,-0.24999 z" />
      <path
         id="path410"
         style="fill:#406225;fill-opacity:1;stroke:#406225;stroke-width:0.264583px;stroke-linecap:butt;stroke-linejoin:miter;stroke-opacity:1"
         d="m 197.46489,243.37899 c -0.14455,0.23493 -0.33757,0.44711 -0.42429,0.71281 -0.0838,0.30539 0.12225,0.67155 0.44543,0.71482 0.24317,0.0402 0.47671,-0.12427 0.57556,-0.33989 0.14634,-0.30665 0.23651,-0.65431 0.19075,-0.99513 -0.0127,-0.13158 -0.12236,-0.27837 -0.27001,-0.23159 -0.1761,0.0303 -0.34464,0.0948 -0.51744,0.13898 z" />
      <path
         id="path416"
         style="fill:#406225;fill-opacity:1;stroke:#406225;stroke-width:0.264583px;stroke-linecap:butt;stroke-linejoin:miter;stroke-opacity:1"
         d="m 195.61738,245.73188 c -0.0945,0.21371 -0.23309,0.41256 -0.28972,0.64013 0.0206,0.17559 0.24203,0.20282 0.38312,0.18469 0.47421,-0.0601 0.81165,-0.50987 0.88537,-0.95967 0.0323,-0.22011 -0.0135,-0.51088 -0.24041,-0.61014 -0.20489,-0.0754 -0.39054,0.10409 -0.4995,0.25814 -0.10174,0.14992 -0.17731,0.31694 -0.23886,0.48685 z" />
    </g>
    <g
       id="g444"
       transform="translate(-208.19764,-71.12376)">
      <path
         id="path171"
         style="fill:#bfa37e;fill-opacity:1;stroke:#bfa37e;stroke-width:0.264583px;stroke-linecap:butt;stroke-linejoin:miter;stroke-opacity:1"
         d="m 304.07361,285.02586 c 2.79285,-1.72942 4.66524,-4.72238 7.86219,-5.76709 2.67909,-1.4193 5.20701,-2.60638 8.26288,-2.88658 3.76984,-1.11284 6.17621,2.73654 9.43686,3.75072 2.60169,1.60445 5.57073,2.98316 7.727,5.0841 1.62563,3.55711 -0.88607,7.41205 0.32336,11.06757 -0.14504,3.65 0.33881,7.26287 -0.0351,10.90567 -0.18463,6.12541 -0.58047,12.29615 0.16248,18.39316 0.0587,2.83077 -2.50439,4.91036 -5.24254,4.64196 -2.80962,0.12553 -5.58564,-0.21952 -8.40217,-0.0125 -4.42429,-0.45017 -8.88713,0.55711 -13.27122,-0.35342 -2.81581,0.19226 -7.50331,0.79695 -7.1734,-3.45735 -0.1802,-9.08632 -0.3466,-18.17542 -0.26943,-27.26905 0.19968,-3.4503 -0.86603,-7.23764 0.48037,-10.46877 2.18241,-1.91452 5.32196,-2.19959 7.78538,-3.72259 2.48776,-1.62737 5.06578,-0.37012 5.44466,2.56994 2.10324,1.578 5.93156,1.69001 7.0391,-1.20258 1.80019,-2.86957 -1.27192,-5.95794 -4.19766,-5.82983 -3.32785,0.14266 -3.64938,3.8657 -4.627,6.22954 -1.64781,2.63493 -4.77295,3.83394 -7.50992,4.9984 -3.81685,1.82762 -5.3402,-2.59556 -4.08448,-5.52726 l 0.13001,-0.57602 0.15868,-0.56801 z" />
      <path
         id="path177"
         style="fill:#d41920;fill-opacity:1;stroke:#d41920;stroke-width:0.264583px;stroke-linecap:butt;stroke-linejoin:miter;stroke-opacity:1"
         d="m 323.52486,277.51234 c 2.38145,2.0757 5.05217,3.85947 7.48133,5.71912 1.70491,1.93291 5.6455,2.10038 4.63541,5.45099 -0.36023,6.64649 0.42431,13.28954 -0.0267,19.93274 -0.0267,3.71631 0.84574,7.40121 -0.0823,11.08669 -0.87614,3.04159 2.18102,8.36912 -2.69293,8.94418 -3.51274,-0.27035 -7.0809,0.21343 -10.65165,-0.20058 -4.67296,0.0367 -9.32385,-0.26146 -13.99109,-0.22983 -3.9564,0.84886 -4.0248,-3.40432 -3.45472,-6.14996 0.0621,-3.98916 0.3157,-7.95999 0.64403,-11.93284 0.16376,-4.49747 -0.99177,-8.91473 -0.6124,-13.41623 -0.83962,-3.02094 0.19667,-5.96719 0.30655,-8.98119 -0.81655,-3.4018 3.65465,-4.28478 5.52335,-6.12998 3.29629,-1.05571 5.59586,-4.56063 9.34994,-4.08821 3.63589,-0.18649 -2.04745,-3.41916 -3.75343,-2.01846 -2.65325,1.32758 -5.21092,2.96191 -7.78327,4.48272 -2.0339,2.7815 -7.71861,3.65708 -6.34814,8.15949 0.93868,4.02754 -0.33753,8.0611 0.34977,12.10429 0.10046,4.88399 0.79621,9.82814 -0.34238,14.64581 -0.17489,4.49748 0.31128,8.94828 0.52804,13.42419 0.41916,3.8233 4.81531,2.80202 7.48829,2.81966 5.25479,0.82054 10.57348,-0.23823 15.83527,0.43522 3.58741,-0.33576 7.22545,-0.98197 10.74471,-1.41803 3.10129,-2.52697 2.15146,-7.02314 2.14952,-10.52833 -0.23673,-3.51056 -1.03268,-7.02509 -0.20181,-10.52762 0.26552,-2.69964 0.12737,-5.45815 -0.0921,-8.16638 -0.22105,-2.81471 -0.17122,-5.71728 0.0748,-8.51561 0.24613,-2.81311 0.89916,-6.38087 -1.32763,-8.56624 -2.66195,-1.58631 -4.7128,-3.96842 -7.44653,-5.43772 -2.94235,-1.25783 -5.67855,-3.69456 -9.10498,-2.91674 -2.952,-0.69174 -3.70656,2.96776 -0.25354,2.21126 1.01541,-0.0648 2.03489,-0.31328 3.05453,-0.19241 z" />
      <path
         id="path187"
         style="fill:#eddf8d;fill-opacity:1;stroke:#eddf8d;stroke-width:0.264583px;stroke-linecap:butt;stroke-linejoin:miter;stroke-opacity:1"
         d="m 323.66431,285.24546 c -0.30482,0.62161 0.0937,1.58274 -0.70655,1.93048 -0.61562,0.235 -1.21621,0.51487 -1.85307,0.68921 -1.24561,0.30093 -2.77304,0.22802 -3.71835,-0.7382 -0.95133,-1.03346 -0.55026,-2.75141 0.4578,-3.59608 0.72847,-0.68091 1.58139,-1.45368 2.63943,-1.43935 0.72338,0.0676 1.35934,0.44887 1.93593,0.86089 0.80026,0.48276 1.52763,-0.51347 1.32271,-1.26319 -0.0977,-0.94959 -1.15521,-1.2743 -1.96397,-1.34037 -1.51623,-0.3236 -3.2397,-0.25108 -4.49999,0.74967 -0.6642,0.48234 -1.03328,1.2533 -1.12554,2.05635 -0.16246,1.0501 -0.87252,2.12575 -0.36539,3.18763 0.6065,0.96819 1.6335,1.55994 2.36538,2.42322 0.60485,0.71609 1.49677,1.16154 2.44805,1.0408 1.065,0.0759 1.92415,-0.51096 2.66066,-1.19694 0.52006,-0.3959 1.2899,-0.55171 1.52499,-1.23395 0.63737,-1.29017 0.84692,-2.85497 0.22666,-4.19346 -0.26649,-0.6273 -0.52504,-1.35548 -1.21486,-1.63515 -0.55312,-0.24599 -1.36927,-0.91489 -1.90116,-0.37012 -0.29092,0.7387 0.33245,1.44642 0.78249,1.96958 0.58647,0.57083 1.05375,1.24129 0.98478,2.09898 z" />
      <path
         id="path193"
         style="fill:#885a1d;fill-opacity:1;stroke:#885a1d;stroke-width:0.264583px;stroke-linecap:butt;stroke-linejoin:miter;stroke-opacity:1"
         d="m 320.70131,244.93282 c 0.10997,2.54439 0.0197,5.10271 -0.0546,7.64421 -0.41551,3.31527 -0.61152,6.68386 -0.32575,10.00854 -0.40422,3.29918 -0.0179,6.63109 -0.29037,9.92767 -1.67672,2.01971 1.15032,3.68759 0.59797,5.88721 0.10917,1.61964 -1.92,5.69732 0.65149,5.50732 0.61963,-2.13608 1.36323,-4.81156 0.61565,-7.09288 0.39843,-1.34369 1.8959,-2.37189 0.35757,-3.66162 -1.03299,-1.72914 -0.91299,-3.71179 -0.84433,-5.62931 -0.0159,-2.64321 0.95046,-5.17539 0.95716,-7.83011 0.0524,-2.68735 0.29166,-5.38039 0.86639,-8.00076 0.13482,-3.05036 0.39546,-6.32894 -0.93864,-9.16287 -1.33938,-2.48718 -4.8418,-2.4537 -6.6331,-0.46712 -1.49845,1.57031 -2.67342,3.68978 -2.34882,5.92676 0.16097,4.39988 1.3234,8.67482 2.32862,12.93335 0.71089,2.39651 0.59163,4.98863 1.81117,7.24245 1.04947,2.00129 1.33615,4.40174 0.83601,6.6041 -1.29923,1.82486 1.22629,3.97097 0.11435,6.1055 -0.36578,0.88344 -0.57449,4.13802 0.79865,3.22329 -0.16181,-1.96545 -0.36712,-4.07379 0.83548,-5.77758 0.92808,-2.00082 1.1447,-4.3883 -0.013,-6.34134 -0.73409,-2.01102 -1.88608,-3.88229 -2.00114,-6.07613 -0.4524,-2.02527 -1.49428,-3.89502 -1.1005,-6.0497 -0.29084,-3.07976 -2.14261,-5.80223 -2.17538,-8.93015 -0.88493,-2.36346 -0.27463,-4.69646 1.55443,-6.36752 0.54977,-1.68878 3.25507,-3.29387 4.34343,-1.24006 0.22549,0.51091 0.0819,1.08335 0.0573,1.61675 z" />
      <path
         id="path199"
         style="fill:#d41920;fill-opacity:1;stroke:#d41920;stroke-width:0.264583px;stroke-linecap:butt;stroke-linejoin:miter;stroke-opacity:1"
         d="m 309.77304,307.84877 c -1.21351,1.09543 -0.29331,2.88599 -0.24598,4.25584 0.24266,1.47708 0.50629,2.99546 1.28456,4.29939 1.33936,0.21106 2.26476,-1.15247 3.29447,-1.7977 1.04975,-1.23387 2.22319,-2.34794 3.60429,-3.20985 2.21187,-1.50215 4.57608,-2.84802 6.40787,-4.82305 1.33186,-1.11946 3.13934,-1.75803 4.03319,-3.32877 1.16263,-0.8368 2.77134,-2.67278 0.75517,-3.56918 -1.08241,-0.81038 -2.44332,-1.26113 -3.43571,-2.15896 -1.37648,-1.60474 -3.07998,0.39629 -4.2252,1.26522 -1.92108,1.69027 -4.36904,2.66418 -6.20221,4.47115 -1.7614,1.13806 -3.74571,2.11719 -4.89515,3.959 -0.13626,0.20546 -0.26197,0.41795 -0.3753,0.63691 z" />
      <path
         id="path205"
         style="fill:#d41920;fill-opacity:1;stroke:#d41920;stroke-width:0.264583px;stroke-linecap:butt;stroke-linejoin:miter;stroke-opacity:1"
         d="m 310.76652,308.86836 c -0.62641,0.27317 -1.14873,2.16796 -1.82476,1.10537 -0.66048,-1.60082 0.21404,-3.25339 0.25889,-4.88102 0.32524,-2.00039 0.2885,-4.05538 0.74829,-6.03177 0.39442,-1.32779 2.00085,-1.49363 2.87449,-2.38861 0.89552,-0.39269 1.50736,-1.51238 2.61106,-1.30702 2.18121,0.3266 4.09289,1.54376 5.82225,2.84874 0.71945,0.0913 1.96552,0.93603 0.67243,1.18746 -0.92455,0.34402 -1.83556,-0.005 -2.55073,-0.61841 -1.11977,-0.67391 -2.21808,-1.70596 -3.60808,-1.63297 -0.8015,0.4325 -2.10622,0.62261 -2.39186,1.55664 0.12044,1.1192 1.03495,1.94588 1.63295,2.84185 0.46317,0.6626 2.19661,1.88571 0.39819,1.85597 -0.4381,0.32738 -0.93812,0.73818 -1.21118,-0.0834 -0.97089,-0.72369 -0.88283,-2.17714 -1.83315,-2.94269 -0.23676,-0.62292 -1.03702,-1.69532 -1.16982,-0.37753 -0.57575,2.35115 -0.31205,4.81116 -0.851,7.17099 -0.0845,0.61357 -0.10032,1.26667 0.42203,1.69641 z" />
      <path
         id="path211"
         style="fill:#d41920;fill-opacity:1;stroke:#d41920;stroke-width:0.264583px;stroke-linecap:butt;stroke-linejoin:miter;stroke-opacity:1"
         d="m 317.72087,315.07995 c -1.12201,0.5466 -1.6114,2.16764 -0.83796,3.1874 0.53786,0.64933 1.52883,0.62912 2.21939,0.25179 0.9351,-0.47787 1.5231,-1.55285 1.38592,-2.59967 0.012,-0.43048 -0.28352,-0.76409 -0.64985,-0.94462 -0.45046,-0.2704 -0.94969,-0.49726 -1.47513,-0.55275 -0.35041,0.0372 -0.47122,0.41065 -0.64237,0.65785 z" />
      <path
         id="path218"
         style="fill:#d41920;fill-opacity:1;stroke:#d41920;stroke-width:0.264583px;stroke-linecap:butt;stroke-linejoin:miter;stroke-opacity:1"
         d="m 326.22643,308.7115 c -0.39659,0.62221 -0.71438,1.427 -0.39908,2.15006 0.1947,0.45422 0.71979,0.66115 1.18741,0.57229 0.63747,-0.0898 1.27933,-0.5191 1.46454,-1.15681 0.0988,-0.50685 -0.0981,-1.01668 -0.292,-1.47745 -0.19977,-0.38487 -0.45575,-0.80776 -0.88083,-0.96702 -0.43278,-0.15037 -0.78723,0.25139 -0.95273,0.60374 -0.0462,0.0899 -0.0875,0.18245 -0.12731,0.27519 z" />
    </g>
    <path
       id="path156"
       style="fill:#c83737;stroke:#c83737;stroke-width:0.264583px;stroke-linecap:butt;stroke-linejoin:miter;stroke-opacity:1"
       d="m 49.897535,240.33554 c 1.995908,0.60588 -0.03791,4.09227 -0.412521,5.58737 -1.401996,3.88373 -2.731548,7.80873 -3.792353,11.80114 -0.894138,2.57292 0.0972,5.15612 0.08637,7.77681 -0.01192,2.83169 0.953849,5.54733 1.989008,8.1483 1.401402,0.90681 0.531334,3.41826 -0.780286,1.55143 -2.318786,-5.29331 -3.870764,-11.14036 -3.113735,-16.95523 0.164559,-3.38728 1.032055,-6.64399 2.127121,-9.83774 0.661391,-2.58271 1.142964,-5.44508 2.922969,-7.53581 0.282225,-0.25005 0.59133,-0.48248 0.973425,-0.53627 z" />
    <path
       id="path163"
       style="fill:#a02c2c;stroke:#a02c2c;stroke-width:0.264583px;stroke-linecap:butt;stroke-linejoin:miter;stroke-opacity:1"
       d="m 48.137162,259.69188 c -0.903475,-4.76895 -2.132344,-9.54101 -4.529271,-13.79778 -1.11612,-3.43178 1.02298,-7.28827 4.115777,-8.86173 2.752756,-1.86625 5.584817,-4.00641 9.010584,-4.32233 3.391989,-1.32628 7.010955,-1.57936 10.592789,-1.69923 5.64232,-0.72472 11.505175,-0.76698 16.917825,1.2019 3.91999,1.0843 8.20803,0.8855 11.919917,2.63348 2.9761,1.87612 6.092057,4.02336 7.720377,7.23627 1.15629,3.46127 -1.48393,6.55189 -2.38857,9.73417 -2.408917,5.7334 -4.601147,12.13094 -10.029924,15.7491 -3.78811,2.82604 -8.42489,4.27234 -13.111903,4.53442 -3.187322,0.43671 -6.425246,0.28877 -9.557095,-0.42304 -5.229718,-0.67319 -11.1823,10e-4 -15.572883,-3.47288 -2.585612,-2.13411 -3.799166,-5.3668 -4.993839,-8.37436 l -0.08345,-0.12279 z" />
    <path
       id="path174"
       style="fill:#501616;stroke:#501616;stroke-width:0.264583px;stroke-linecap:butt;stroke-linejoin:miter;stroke-opacity:1"
       d="m 51.082736,238.67284 c -0.579948,0.52478 -0.561559,1.37012 -0.507313,2.08688 0.04981,0.67919 0.526666,1.38311 1.25305,1.43093 1.110617,0.0799 2.081375,-0.76722 2.55796,-1.70585 0.397868,-0.82429 0.662574,-1.80868 0.358778,-2.70273 -0.256202,-0.69693 -1.128835,-0.79491 -1.742527,-0.57445 -0.785067,0.25738 -1.321511,0.93562 -1.919948,1.46522 z" />
    <g
       id="g488"
       transform="translate(-71.618926,9.6086483)">
      <path
         id="path304"
         style="fill:#bfa37e;fill-opacity:1;stroke:#bfa37e;stroke-width:0.264583px;stroke-linecap:butt;stroke-linejoin:miter;stroke-opacity:1"
         d="m 149.06335,221.004 c 2.24319,2.88791 6.35662,3.35532 8.91283,6.01006 1.41747,2.56926 0.77725,5.87886 1.00568,8.75775 -0.97418,8.01967 -0.15513,16.10461 0.85564,24.06123 0.18633,3.39301 -0.99492,6.64145 -0.87942,10.03186 -0.18951,3.61325 -4.3648,2.42903 -6.79355,2.92288 -6.94628,0.74036 -13.91025,-0.82069 -20.87632,-0.2464 -3.49897,0.85622 -6.51995,-0.90994 -6.2223,-4.65258 -0.87902,-2.81642 -1.35868,-5.78862 -0.53014,-8.68248 0.50373,-3.54591 1.19168,-7.15011 0.35498,-10.71988 -0.16668,-4.24968 0.50992,-8.49211 0.11529,-12.74086 0.47908,-2.77707 0.0166,-5.7942 1.20525,-8.33759 2.39977,-2.80481 6.14049,-3.95545 8.91222,-6.34054 2.53225,-1.47638 5.43632,-1.94674 8.28324,-2.12318 2.44302,0.61227 1.06236,6.49448 -1.86248,4.75948 -4.1291,0.24353 -4.56081,5.39331 -1.49418,7.46265 2.75667,1.94962 6.6992,-0.80882 6.35892,-4.03062 0.2764,-3.69293 -5.4207,-2.54358 -5.48239,-5.79752 0.67087,-4.84191 5.65299,-0.73307 8.13692,-0.33397 z" />
      <path
         id="path310"
         style="fill:#eddf8d;fill-opacity:1;stroke:#eddf8d;stroke-width:0.264583px;stroke-linecap:butt;stroke-linejoin:miter;stroke-opacity:1"
         d="m 139.05885,227.45088 c -0.28081,0.62272 -0.60232,1.51863 0.0405,2.03469 0.81337,0.6796 1.93836,0.73835 2.93903,0.9014 0.9861,0.12025 1.86091,-0.46389 2.44438,-1.20923 0.63275,-0.72733 1.30408,-1.70232 0.92141,-2.70786 -0.3631,-1.08773 -1.18481,-2.18244 -2.40836,-2.30164 -1.13029,-0.17806 -2.09038,0.52693 -2.97854,1.11247 -0.59268,0.48756 -1.5234,0.24552 -1.7166,-0.52236 -0.32434,-0.84651 0.67838,-1.15009 1.28628,-1.33593 0.55099,-0.401 1.19062,-0.75662 1.90202,-0.67558 1.00388,0.0295 2.14869,0.0563 2.89217,0.8326 0.68401,0.62474 1.33729,1.29274 1.92686,2.00574 0.50348,0.82732 0.46134,1.86849 0.33659,2.79578 -0.27555,1.29133 -0.83584,2.54809 -1.68119,3.56831 -0.50801,0.69977 -1.49721,0.62279 -2.27106,0.63484 -1.24267,-0.0692 -2.33106,-0.71584 -3.40376,-1.27693 -0.82397,-0.32557 -1.75741,-0.7698 -1.98774,-1.71437 -0.52104,-1.61688 0.23011,-3.27015 0.99058,-4.67637 0.21605,-0.66423 0.76259,-1.27317 1.51293,-1.25212 0.82575,-0.0274 1.08061,1.12821 0.60926,1.67165 -0.54014,0.66176 -1.3493,1.15307 -1.35478,2.11491 z" />
      <path
         id="path316"
         style="fill:#d41920;fill-opacity:1;stroke:#d41920;stroke-width:0.264583px;stroke-linecap:butt;stroke-linejoin:miter;stroke-opacity:1"
         d="m 152.37494,224.4392 c 1.6587,2.22012 5.65959,2.47085 5.25766,6.09871 0.56891,4.84709 -0.43706,9.72089 0.0938,14.58023 0.3129,6.97864 -0.16155,13.94842 0.102,20.92508 0.51988,2.84923 -0.81018,6.34421 -4.32675,5.04254 -4.55352,-0.30846 -9.11516,0.70032 -13.69459,0.54833 -3.97122,0.094 -8.07442,0.0778 -11.90715,-0.68111 -2.66831,-2.08162 -1.5765,-6.03556 -1.89066,-9.03236 0.0735,-4.12599 0.34084,-8.25915 0.39807,-12.39041 0.32284,-6.84524 -0.27434,-13.72956 0.40261,-20.56142 1.00938,-3.00978 4.9354,-3.29991 7.10435,-5.25629 2.81144,-2.58706 6.74939,-4.56779 10.59916,-3.19552 2.56686,0.26876 6.38256,5.84073 7.45152,1.29995 -1.45512,-2.87945 -5.37249,-3.56455 -8.2933,-4.07084 -3.16918,0.40039 -6.7841,-0.40862 -9.31337,1.98457 -3.08847,2.76179 -6.95655,4.49751 -9.90796,7.3957 -2.26689,3.69847 -0.26262,8.26615 -1.01503,12.30801 -0.58538,5.92401 0.78803,11.85529 0.0667,17.78122 0.12016,4.9071 0.15946,9.96086 1.16603,14.7335 3.81862,2.94295 9.90965,1.14629 14.65606,1.79035 5.03786,-0.43469 10.13848,1.19997 15.1142,-0.223 3.08955,0.5174 6.48927,-1.35575 5.96881,-4.87294 -0.49413,-2.88542 0.98848,-5.52985 0.76237,-8.39842 -0.49085,-4.70731 -1.28312,-9.40175 -0.97837,-14.15869 0.4149,-6.20342 0.99472,-12.56549 -0.40552,-18.69272 -1.37159,-3.45844 -5.66094,-3.85904 -8.12719,-6.26075 -2.80797,-3.16418 -5.22179,2.7277 -1.25464,2.99971 0.64225,0.17641 1.30447,0.2911 1.97122,0.30657 z" />
      <path
         id="path322"
         style="fill:#885a1d;fill-opacity:1;stroke:#885a1d;stroke-width:0.264583px;stroke-linecap:butt;stroke-linejoin:miter;stroke-opacity:1"
         d="m 142.70161,191.15382 c 0.51711,3.7687 0.27356,7.61417 -0.50393,11.32085 -0.18097,3.55053 -1.00225,7.10816 -0.28841,10.65795 0.38936,2.20782 -0.6712,4.22204 0.26103,6.36929 0.46198,2.47294 -0.7096,5.01488 0.10496,7.45341 1.49813,-1.44992 0.4988,-4.18538 0.94163,-6.18513 -0.33462,-2.05914 1.86161,-3.80089 -0.11772,-5.52582 -0.63887,-2.61332 0.13355,-5.36723 0.46478,-7.99705 0.68034,-5.33251 0.90826,-10.71932 1.1542,-16.08791 -0.17033,-2.20462 0.14338,-4.97996 -1.6532,-6.58922 -1.72331,-0.6699 -3.92599,-0.73426 -5.51991,0.32854 -1.92368,1.25287 -1.35446,3.80761 -1.84317,5.73729 -0.90613,3.48894 -0.22529,7.25002 1.70414,10.28017 1.81426,3.80368 1.70033,8.12671 2.53048,12.18583 0.69677,2.59943 -0.87486,5.08008 0.46022,7.53456 0.40926,1.68325 -1.23577,5.25602 0.6883,5.77042 0.12663,-2.0363 0.0962,-4.21541 0.18453,-6.19174 1.25518,-1.88796 1.17441,-4.28964 -0.17801,-6.09396 -1.21242,-3.22752 -0.8873,-6.78177 -1.84784,-10.08257 -0.34762,-4.06279 -3.36956,-7.51911 -2.89154,-11.71818 0.15098,-1.89525 1.06849,-3.62467 1.76289,-5.36777 1.6519,-2.37607 5.79914,-1.38549 4.62695,1.84975 -0.0652,0.78044 -0.19141,1.57236 -0.0404,2.35129 z" />
      <path
         id="path328"
         style="fill:#d41920;fill-opacity:1;stroke:#d41920;stroke-width:0.264583px;stroke-linecap:butt;stroke-linejoin:miter;stroke-opacity:1"
         d="m 131.5642,252.46459 c 0.67227,2.15369 0.99562,4.43096 2.01561,6.465 1.31924,0.40644 2.16192,-1.21241 3.1867,-1.79227 1.69674,-1.41304 3.19366,-3.04043 4.74892,-4.59603 1.51398,-1.25265 2.90911,-2.63544 4.32786,-3.98862 1.75382,-1.4588 3.86698,-2.37623 5.89975,-3.35576 0.69226,-0.86171 -1.67631,-0.89227 -2.08361,-1.5933 -1.38374,-0.48303 -1.51345,-2.30735 -2.61065,-2.8406 -1.62445,0.82404 -2.95383,2.20928 -4.53255,3.15474 -1.76699,1.39868 -3.63717,2.69346 -5.75662,3.49698 -1.75826,0.98913 -3.31004,2.32837 -4.66775,3.80601 -0.28278,0.36881 -0.2786,0.85747 -0.52766,1.24385 z" />
      <path
         id="path334"
         style="fill:#d41920;fill-opacity:1;stroke:#d41920;stroke-width:0.264583px;stroke-linecap:butt;stroke-linejoin:miter;stroke-opacity:1"
         d="m 132.85398,251.14698 c 0.13927,-1.83243 0.71523,-3.63596 0.62053,-5.47988 -0.22015,-0.92507 1.32536,-0.98608 1.65177,-1.808 0.46758,-0.91814 1.3904,-1.0254 1.40926,0.17532 0.49244,1.31493 0.91156,2.65809 1.33261,3.99802 0.63762,-0.89725 2.3248,-1.04536 2.69828,-1.78217 -0.87263,-0.86999 -1.17987,-2.14077 -2.06333,-3.0108 -0.13009,-0.47242 -1.45099,-1.21388 -0.2986,-1.09409 0.83682,0.12395 1.46391,-1.06906 2.19309,-0.39115 1.2605,0.63877 2.33674,1.8326 3.84553,1.80277 1.38853,-0.43341 -0.28835,-1.29454 -0.90409,-1.54957 -1.24164,-0.49873 -2.23493,-1.52497 -3.55677,-1.82186 -0.83212,-0.0297 -1.39338,0.77774 -2.16913,0.98399 -1.65348,0.81249 -3.2871,1.70968 -4.70453,2.89943 -0.98739,0.66297 -0.96449,1.84604 -1.15324,2.87555 -0.49047,1.50215 -0.88714,3.07971 -0.84277,4.67118 -0.1165,1.28687 1.56082,0.54182 1.79156,-0.24102 l 0.075,-0.11384 z" />
      <path
         id="path340"
         style="fill:#d41920;fill-opacity:1;stroke:#d41920;stroke-width:0.264583px;stroke-linecap:butt;stroke-linejoin:miter;stroke-opacity:1"
         d="m 140.43578,257.86052 c -0.35369,0.54383 -0.76078,1.27801 -0.39476,1.91211 0.48734,0.67946 1.46137,0.73442 2.20782,0.54963 0.70622,-0.12297 0.98399,-0.84037 1.07877,-1.46702 0.11288,-0.52351 0.30089,-1.15524 -0.1862,-1.55725 -0.48164,-0.6087 -1.10706,-1.30539 -1.95686,-1.25921 -0.53862,0.12666 -0.95561,0.68316 -1.02036,1.21619 0.0303,0.22493 0.18535,0.40226 0.27159,0.60555 z" />
      <path
         id="path348"
         style="fill:#d41920;fill-opacity:1;stroke:#d41920;stroke-width:0.264583px;stroke-linecap:butt;stroke-linejoin:miter;stroke-opacity:1"
         d="m 148.10473,251.66461 c -0.23419,0.6366 -0.44824,1.47399 0.0747,2.02815 0.41892,0.32702 0.76067,0.87236 1.33529,0.89965 0.80886,0.0152 1.27562,-0.76991 1.51188,-1.44095 0.2628,-0.7859 0.34244,-1.62188 0.41879,-2.44107 -0.11068,-0.67163 -0.92443,-0.68928 -1.43758,-0.5098 -0.73196,0.15347 -1.40601,0.59204 -1.76949,1.25594 -0.0454,0.0688 -0.0898,0.13836 -0.1336,0.20808 z" />
    </g>
    <path
       id="path185"
       style="fill:#d35f5f;stroke:#d35f5f;stroke-width:0.264583px;stroke-linecap:butt;stroke-linejoin:miter;stroke-opacity:1"
       d="m 97.357893,250.87643 c 3.465497,-0.66272 6.034767,-7.09878 6.800267,-7.61381 -0.2361,5.4206 -2.72444,10.29512 -3.92617,15.50482 -2.988597,7.75697 -3.921727,16.13546 -6.779984,23.94495 0.43102,3.49911 -0.57159,7.1028 -4.06929,8.58219 -6.05797,4.31933 -14.105914,5.7456 -21.234133,3.60571 -3.972231,-0.21492 -7.264783,-2.45711 -10.962959,-3.6156 -3.201864,-1.78837 -6.549205,-5.59205 -4.941642,-9.51622 1.20761,-4.65093 -2.109301,-8.9488 -2.154796,-13.59056 -1.406193,-7.00001 -3.327193,-13.89095 -5.895173,-20.55292 -1.175012,-1.72405 -0.522885,-5.70832 0.614846,-1.80019 3.46333,6.44696 11.15779,8.74037 17.944668,9.5648 5.892911,1.59344 12.02462,1.20052 18.049659,0.97705 5.58464,-0.87849 11.35917,-2.00819 16.017237,-5.44852 0.17878,-0.0136 0.35899,-0.0282 0.53747,-0.0417 z" />
    <path
       id="path191"
       style="fill:#501616;stroke:#501616;stroke-width:0.264583px;stroke-linecap:butt;stroke-linejoin:miter;stroke-opacity:1"
       d="m 93.767426,256.08414 c -0.22246,0.56944 -0.25119,1.41358 0.43871,1.66628 0.57857,0.20075 1.19833,0.47359 1.817117,0.41662 0.739,-0.25146 1.21505,-0.93922 1.66663,-1.53704 0.4436,-0.71407 0.94547,-1.49052 0.92614,-2.36224 -0.12076,-0.70883 -0.70108,-1.31656 -1.3462,-1.60008 -0.78932,-0.27387 -1.45598,0.43101 -2.007797,0.89158 -0.78051,0.61265 -1.56459,1.4579 -1.4946,2.52488 z" />
    <path
       id="path204"
       style="fill:#ff8080;stroke:#ff8080;stroke-width:0.264583px;stroke-linecap:butt;stroke-linejoin:miter;stroke-opacity:1"
       d="m 69.65594,262.74486 c 1.426503,-1.29741 3.721439,-1.76236 5.514994,-1.08211 1.798474,1.09493 1.564078,3.44833 1.942642,5.2458 0.542459,4.5333 0.635547,9.13393 0.247751,13.68375 -0.316216,2.41494 -0.746754,4.95134 -2.145317,6.99594 -1.354538,1.59379 -3.621305,2.52001 -5.698128,2.16663 -1.991723,-0.87515 -2.95635,-3.1209 -3.447445,-5.12047 -0.431152,-2.30174 -1.055389,-4.65006 -0.802731,-7.00601 0.347132,-1.95735 2.987146,-1.40208 2.683284,0.5367 0.05779,2.13476 -0.03152,4.79393 2.042169,6.06763 1.80408,1.1385 2.907142,-1.27129 3.376479,-2.643 0.975629,-2.0758 0.574266,-4.38638 0.648809,-6.59426 -0.04106,-2.99374 -0.08041,-6.05632 -0.920647,-8.94825 -0.58873,-1.80704 -2.763263,-1.15119 -3.008269,0.48576 -0.90593,2.05543 -0.605503,4.39406 -1.504769,6.45563 -0.30259,1.39515 -0.146414,2.8466 -0.476887,4.24448 -0.153529,1.47231 -0.259524,4.49883 -2.492949,3.65746 -0.903755,-1.86104 -0.30623,-4.12798 -0.462617,-6.15631 0.04559,-2.6776 0.267063,-5.49106 1.67342,-7.84248 0.424148,-1.63533 1.253817,-3.35378 2.830211,-4.14689 z" />
    <path
       id="path198"
       style="fill:#c83737;fill-opacity:1;stroke:#c83737;stroke-width:0.264583px;stroke-linecap:butt;stroke-linejoin:miter;stroke-opacity:1"
       d="m 96.991873,255.70767 c 2.95676,1.60722 -0.37093,5.78762 -0.95347,8.27236 -2.160637,5.21622 -5.043457,10.23702 -9.272167,14.06108 -2.47438,3.09977 -5.72936,5.20568 -9.566893,6.30308 -3.767258,2.19603 -8.321996,2.60491 -12.587564,2.401 -4.294666,-0.51559 -8.70658,-1.51942 -12.374245,-3.87725 -2.60685,-2.0579 -4.278935,-5.0392 -5.562036,-8.0477 1.420161,-2.58754 2.798447,3.29241 4.061535,4.03183 2.8698,2.62078 5.780847,5.89929 9.914577,6.2755 3.229103,1.07605 6.71396,1.35811 9.999481,0.33557 3.188874,-0.64901 6.052405,-2.28298 9.017745,-3.57345 3.25969,-2.48696 6.71379,-4.83905 9.14256,-8.20282 1.84488,-2.38276 3.30395,-5.10255 4.77244,-7.72776 1.19566,-2.59814 3.215177,-5.37797 2.610857,-8.30092 -0.53214,-1.02413 -0.669347,-1.8584 0.79718,-1.95052 z" />
    <g
       id="g467"
       transform="rotate(-7.2248863,-552.78242,1662.9965)">
      <path
         id="path36"
         style="fill:#bfa37e;fill-opacity:1;stroke:#bfa37e;stroke-width:0.264583px;stroke-linecap:butt;stroke-linejoin:miter;stroke-opacity:1"
         d="m 207.23567,285.13566 c 3.32436,-3.04841 7.21151,-5.4027 11.0076,-7.79126 2.58961,-0.90975 5.44872,-0.65485 8.16787,-0.9983 2.75154,0.68847 4.20824,3.60006 6.9371,4.38484 2.00399,1.88394 4.52148,3.20201 6.34732,5.16566 1.57821,3.50146 -0.30261,7.32134 0.30631,10.97973 -0.0458,4.41763 0.30644,8.82519 0.41246,13.2411 -0.40705,6.06976 0.72404,12.2863 -0.87328,18.24177 -1.44518,2.64978 -5.05996,2.12083 -7.60173,2.16812 -3.4384,-0.66676 -6.85601,0.67741 -10.25051,-0.0999 -3.08843,-0.4285 -6.22067,0.29002 -9.33267,-0.0935 -2.6138,0.51652 -6.73795,-0.49471 -5.85958,-3.99884 -0.40429,-10.52684 -0.28125,-21.0584 -0.49023,-31.58855 0.53688,-2.73168 -1.25942,-9.36384 3.48225,-7.83936 2.16939,1.93189 4.32616,4.2152 7.57684,3.61974 2.72995,-0.4795 5.59027,0.17353 7.86759,-0.4995 1.19755,-2.31311 3.62672,-5.32072 1.80496,-7.90531 -1.93431,-2.21169 -5.59619,-1.89753 -7.08161,0.66215 -1.55766,2.37541 0.13792,6.11758 3.17923,5.81878 2.31885,0.083 6.63224,-2.71097 5.66808,1.73815 -1.13529,2.97961 -5.08032,3.23361 -7.80703,3.88438 -4.26687,0.15906 -8.85897,0.52879 -12.8458,-1.15445 -1.67681,-2.02379 -2.27889,-5.83057 -0.61468,-7.93553 z" />
      <path
         id="path42"
         style="fill:#eddf8d;fill-opacity:1;stroke:#eddf8d;stroke-width:0.264583px;stroke-linecap:butt;stroke-linejoin:miter;stroke-opacity:1"
         d="m 222.45157,281.90438 c 1.22003,-0.39786 2.36118,0.33884 3.20559,1.12603 0.57225,0.95273 0.28806,2.23667 -0.0494,3.22944 -0.50361,1.00283 -1.68684,1.38231 -2.71946,1.54006 -1.08578,-0.0987 -1.87425,-1.06147 -2.51226,-1.86193 -0.87273,-0.83704 -0.13012,-1.88256 0.1786,-2.76789 -0.10548,-0.94484 -1.70312,-1.4716 -1.84719,-0.22202 -0.86369,1.99866 -0.12916,4.73743 1.95244,5.64573 0.87347,0.53533 1.71508,1.38712 2.83496,1.19093 1.1126,-0.16166 2.18259,-0.58462 3.19747,-1.05189 0.9815,-0.46347 1.02074,-1.62955 1.45933,-2.48812 0.43081,-1.32057 -0.32273,-2.68207 -1.04229,-3.75454 -0.64219,-0.81342 -1.24288,-1.70559 -2.05128,-2.35508 -1.24087,-0.57504 -2.71324,-0.4644 -4.00529,-0.11808 -1.96274,0.57705 -3.21391,3.17259 -2.09145,4.97531 0.3917,0.98191 1.98902,0.56624 1.77826,-0.49509 -0.0589,-1.23228 0.69129,-2.03435 1.712,-2.59286 z" />
      <path
         id="path49"
         style="fill:#d41920;fill-opacity:1;stroke:#d41920;stroke-width:0.264583px;stroke-linecap:butt;stroke-linejoin:miter;stroke-opacity:1"
         d="m 208.75203,284.47686 c 2.70807,-1.33454 4.67564,-3.81713 7.55882,-4.86803 3.06123,-2.25122 7.17181,-2.38125 10.70141,-1.31446 2.22428,2.06003 4.93275,3.41243 7.28923,5.25153 2.89456,1.05914 4.13712,3.89739 4.01222,6.81246 0.14658,4.90006 0.30673,9.80219 0.39471,14.70236 -0.5788,6.95381 0.74881,13.92362 0.23524,20.86175 -0.46923,3.59566 -4.59258,2.83173 -7.15472,2.5368 -4.92796,-0.22094 -9.81102,1.13276 -14.74018,0.46481 -3.21632,-0.34361 -8.86159,1.33033 -10.0122,-2.82554 -0.32849,-3.15444 -0.2355,-6.35741 0.71221,-9.40946 0.49608,-4.11048 -1.31568,-8.17459 -0.48345,-12.3411 0.32994,-3.56624 -0.38789,-7.12416 0.34761,-10.65751 0.50623,-1.99152 0.64086,-8.993 -2.31849,-5.95712 -0.97432,5.28831 1.56069,10.62733 -0.0899,15.86434 -0.51388,3.39403 -0.26919,6.80171 -0.0482,10.18508 0.42228,3.4166 0.30016,6.82284 0.13161,10.23175 0.0465,3.38039 0.87732,7.70567 5.31616,6.84771 3.41519,-0.0591 6.82521,0.14729 10.2134,-0.45178 2.84784,0.30412 5.72932,0.089 8.60386,0.1899 3.18766,0.39182 6.37282,-0.36211 9.4732,-0.55448 2.03048,-2.28565 1.84194,-6.04005 2.36444,-9.01067 -0.0625,-5.78066 0.36878,-11.54908 0.12181,-17.32867 -0.18391,-5.06797 -0.20792,-10.17302 0.0348,-15.22346 0.0685,-3.31655 -2.14493,-5.63173 -4.90321,-7.02732 -2.36673,-2.16022 -5.57584,-2.96945 -7.8722,-5.2 -2.53336,-1.74382 -5.84672,-0.83284 -8.74545,-1.01795 -4.39112,0.17325 -7.52492,3.75183 -10.85499,6.15769 -2.62564,2.08112 -4.64546,5.16112 -4.07175,8.64547 -0.7922,2.03422 1.5068,8.5199 2.72278,3.89426 -0.10877,-3.07395 -0.63199,-6.48602 0.68824,-9.28621 l 0.37301,-0.17218 z" />
      <path
         id="path55"
         style="fill:#885a1d;fill-opacity:1;stroke:#885a1d;stroke-width:0.264583px;stroke-linecap:butt;stroke-linejoin:miter;stroke-opacity:1"
         d="m 220.36004,242.7368 c 2.28235,-1.40949 4.01659,1.95733 3.31363,3.92462 -0.093,3.49799 0.21696,7.01277 -0.41142,10.48151 -0.63011,3.64196 -0.31103,7.32527 -0.0463,10.98192 -0.27749,1.90372 1.08968,4.51137 -1.0143,5.75099 -0.60867,1.87577 1.32825,3.68698 0.73667,5.74766 -0.18542,1.10133 -0.62735,4.7203 1.08313,3.61225 0.6188,-2.30501 -0.79325,-4.92849 0.0291,-6.99712 2.7045,-0.96908 -1.06353,-2.95738 -0.0214,-4.92496 -0.0448,-2.17248 -0.58486,-4.38526 0.047,-6.54326 0.0566,-4.22502 0.62496,-8.42665 1.01067,-12.6283 0.46887,-2.79042 0.98927,-5.85915 -0.5508,-8.42663 -0.33846,-2.468 -3.05435,-3.04881 -5.08005,-2.46619 -2.04925,1.03408 -2.65677,3.82381 -2.7393,5.99393 0.12707,2.90003 0.49554,5.78421 0.87587,8.65525 0.16964,1.98443 -0.64558,4.20139 0.75731,5.92577 1.98379,1.86278 1.53011,4.84771 2.15484,7.29639 0.28395,2.64301 0.43696,5.58897 0.45877,7.94467 1.42285,1.80692 -1.04966,6.47116 1.3206,6.60266 0.36566,-2.76818 -0.16684,-5.60893 0.60158,-8.32895 0.1529,-2.15199 -0.78666,-4.20919 -0.69859,-6.38474 -0.0651,-2.10779 -0.56355,-4.20987 -1.74929,-5.97624 -0.8336,-2.41584 -1.1321,-4.99015 -1.62187,-7.49234 -0.13717,-2.58587 -1.25028,-5.15982 -0.40621,-7.7246 0.62651,-1.713 -0.16659,-4.17065 1.95035,-5.02429 z" />
      <path
         id="path61"
         style="fill:#d41920;fill-opacity:1;stroke:#d41920;stroke-width:0.264583px;stroke-linecap:butt;stroke-linejoin:miter;stroke-opacity:1"
         d="m 214.48631,317.46421 c 4.07289,-2.12576 6.91569,-5.95032 10.8511,-8.2752 2.13871,-0.9197 3.91364,-2.52585 6.12474,-3.29974 1.12439,-0.30098 2.57797,-1.8339 1.13014,-2.72223 -1.14628,-0.55711 -1.7343,-1.71228 -2.72017,-2.42884 -1.25394,-0.19557 -2.54999,0.38845 -3.87783,0.29139 -1.7184,0.54069 -3.15715,1.69354 -4.67647,2.64963 -1.84953,0.99666 -3.30884,2.6414 -5.31752,3.35203 -1.29652,0.94335 -3.60995,1.14693 -3.88019,3.03589 0.0512,1.77221 0.31434,3.57497 0.9442,5.24185 0.32467,0.80234 0.78486,1.56205 1.422,2.15522 z" />
      <path
         id="path67"
         style="fill:#d41920;fill-opacity:1;stroke:#d41920;stroke-width:0.264583px;stroke-linecap:butt;stroke-linejoin:miter;stroke-opacity:1"
         d="m 212.09848,309.98205 c 0.82315,-0.0547 1.49111,-0.52287 1.2014,-1.4247 0.0677,-1.32964 0.60985,-2.61113 0.45249,-3.95731 -0.12646,-1.04826 0.26178,-2.23298 1.39107,-2.5232 0.78532,-0.19156 1.40738,-1.08673 2.01721,-1.26859 -0.0644,0.82601 0.40624,1.55361 0.6224,2.33219 0.27186,0.91949 0.53884,1.93452 1.06213,2.70857 0.36865,-0.58436 1.74957,-0.53904 1.41985,-1.51811 -0.58405,-0.94071 -1.34589,-1.79775 -1.66096,-2.88166 -0.47516,-0.66537 0.0503,-0.97563 0.67652,-0.68922 1.03854,-0.44916 1.68489,0.40273 2.5454,0.77575 0.89627,0.21041 1.86582,0.54294 2.73529,0.58514 -0.058,-0.61962 0.51425,-1.61246 -0.51992,-1.54284 -1.68882,-0.5313 -3.06926,-2.08264 -4.95405,-1.93121 -0.88502,0.16051 -1.5917,0.81214 -2.37801,1.21918 -1.20346,0.8171 -2.91671,0.97469 -3.66229,2.36265 -0.52717,1.09826 0.21936,2.32874 -0.19617,3.45648 -0.20952,1.19263 -0.31406,2.40804 -0.67726,3.56822 -0.0439,0.24046 -0.0667,0.48467 -0.0751,0.72866 z" />
      <path
         id="path73"
         style="fill:#d41920;fill-opacity:1;stroke:#d41920;stroke-width:0.264583px;stroke-linecap:butt;stroke-linejoin:miter;stroke-opacity:1"
         d="m 228.37758,309.54285 c -0.41467,-0.0708 -0.81226,0.25697 -0.84923,0.6703 -0.0869,0.47753 -0.033,0.98007 0.10709,1.44147 0.25515,0.67081 1.04805,1.0156 1.72693,0.83532 0.68215,-0.14098 1.21479,-0.727 1.32977,-1.40822 0.12474,-0.5983 0.0917,-1.29369 -0.3013,-1.78889 -0.38952,-0.45944 -1.09358,-0.39696 -1.54734,-0.0747 -0.16063,0.10027 -0.31196,0.21538 -0.46592,0.32469 z" />
      <path
         id="path80"
         style="fill:#d41920;fill-opacity:1;stroke:#d41920;stroke-width:0.264583px;stroke-linecap:butt;stroke-linejoin:miter;stroke-opacity:1"
         d="m 219.55828,316.19366 c -0.34377,0.36242 -0.66929,0.93982 -0.31024,1.40473 0.34681,0.51931 1.06652,0.4893 1.59472,0.32126 0.53778,-0.1673 0.66624,-0.77866 0.75421,-1.26303 0.0672,-0.6316 0.10061,-1.37808 -0.36629,-1.8739 -0.45527,-0.44549 -1.36015,-0.36598 -1.6155,0.25782 -0.16595,0.36062 -0.13627,0.77483 -0.0569,1.15312 z" />
    </g>
    <path
       id="path223"
       style="fill:#2a7fff;stroke:#2a7fff;stroke-width:0.264583px;stroke-linecap:butt;stroke-linejoin:miter;stroke-opacity:1"
       d="m 161.65393,227.78222 c 0.29802,0.56475 2.05119,-1.2056 1.06704,0.79128 -1.25308,2.39353 -3.0136,4.56037 -3.28768,7.35549 -1.0615,2.55776 -1.47992,5.26166 -1.38191,8.01519 -0.3852,4.40909 -1.478,9.08113 0.54569,13.27661 0.90929,1.27699 1.18784,5.138 -0.8944,2.77829 -0.6812,-2.5401 -1.28795,-5.12272 -1.7862,-7.71568 -0.8693,-4.56441 0.1742,-9.13366 1.3638,-13.52959 0.84852,-3.25033 1.55892,-6.6146 3.07042,-9.61584 0.35682,-0.51871 0.79791,-0.97982 1.30324,-1.35575 z" />
    <path
       id="path210"
       style="fill:#162d50;stroke:#162d50;stroke-width:0.264583px;stroke-linecap:butt;stroke-linejoin:miter;stroke-opacity:1"
       d="m 160.71727,223.9889 c 3.29185,-3.59393 8.61194,-2.74094 12.71656,-4.70093 4.01269,-1.87585 8.41546,-0.33721 12.5934,-1.3088 6.1366,-1.45572 12.04923,1.63307 18.1515,1.77187 4.4044,0.18152 7.81535,3.64509 10.28163,6.97113 2.17621,3.50395 2.16634,8.16725 -0.27505,11.54185 -1.97629,3.18849 -3.1659,6.7607 -4.71153,10.13266 -2.31166,3.03044 -5.8547,4.81393 -8.93173,6.96043 -4.20453,2.35326 -9.20115,1.7246 -13.82047,2.30692 -6.09241,0.61859 -11.96904,-1.34534 -17.6545,-3.25573 -3.90095,-1.27174 -6.96311,-4.60395 -7.52692,-8.70794 -1.09701,-4.33804 -3.41299,-8.22174 -5.04696,-12.3375 -1.56915,-3.86396 1.43927,-7.14778 4.22407,-9.37396 z" />
    <path
       id="path216"
       style="fill:#002255;stroke:#002255;stroke-width:0.264583px;stroke-linecap:butt;stroke-linejoin:miter;stroke-opacity:1"
       d="m 164.02022,225.40863 c -0.42915,0.62947 -0.72153,1.39429 -0.60221,2.16546 0.004,0.66771 0.15927,1.37222 0.65926,1.85072 0.35245,0.43189 1.02767,0.56395 1.45863,0.17274 0.68485,-0.55532 1.01092,-1.42749 1.25817,-2.24663 0.18164,-0.72891 0.31879,-1.51905 0.11163,-2.25634 -0.14965,-0.38515 -0.56216,-0.60108 -0.93063,-0.73344 -0.56617,-0.1408 -0.97746,0.38089 -1.40315,0.65742 -0.17966,0.13585 -0.36127,0.26956 -0.5517,0.39007 z" />
    <g
       id="g457"
       transform="translate(-86.471433,-66.916226)">
      <path
         id="path96"
         style="fill:#bfa37e;fill-opacity:1;stroke:#bfa37e;stroke-width:0.264583px;stroke-linecap:butt;stroke-linejoin:miter;stroke-opacity:1"
         d="m 263.75933,277.71625 c 2.18895,-2.34075 5.51413,-3.5317 8.65713,-3.62606 3.46639,1.20714 6.06109,3.81607 8.26157,6.46648 2.82252,-0.65407 7.11237,0.28494 7.37198,3.82256 0.4451,3.79785 -0.006,7.64099 0.49262,11.44215 -0.3738,6.32925 -0.0787,12.6612 -0.2176,18.99883 0.10571,4.23092 0.095,8.58309 -0.7965,12.71448 -1.57271,3.30365 -5.745,2.22504 -8.67306,2.46168 -3.44365,-0.18147 -6.82063,-1.82016 -10.20435,-0.26513 -3.27732,0.21403 -6.6089,-0.46281 -9.92123,0.12383 -3.82767,1.24648 -4.59451,-3.27079 -3.94394,-5.98752 -1.40392,-4.23449 -0.93237,-8.7962 -1.05661,-13.18671 -0.33363,-4.16056 0.16195,-8.3032 0.11514,-12.48199 0.18381,-4.57724 -0.34079,-9.19549 -0.007,-13.75754 0.36545,-3.45654 4.23339,-4.1887 7.08038,-4.03632 2.61813,-0.71152 5.692,5.7629 6.75716,1.63241 1.24183,-3.18844 -0.51951,3.45075 1.9326,3.31044 2.64244,1.76359 5.7732,-1.35036 4.27298,-4.05084 -1.51007,-3.15869 -5.633,-0.93369 -5.94809,1.84341 -0.21863,3.5707 -5.52116,4.07002 -6.1877,0.48481 -0.34903,-2.26593 1.63056,-3.85603 2.01417,-5.90897 z" />
      <path
         id="path102"
         style="fill:#eddf8d;fill-opacity:1;stroke:#eddf8d;stroke-width:0.264583px;stroke-linecap:butt;stroke-linejoin:miter;stroke-opacity:1"
         d="m 272.29976,280.55539 c 0.66454,0.50905 1.12461,1.3031 1.16493,2.14625 -0.30363,0.78712 -0.46899,1.7903 -1.32332,2.18106 -1.21746,0.6098 -2.82129,-0.0899 -3.27061,-1.35934 -0.13396,-0.4954 -0.34438,-1.04692 -0.15311,-1.55391 0.50028,-0.73016 1.27641,-1.275 2.10928,-1.56187 0.48629,0.0497 0.79577,-0.30183 0.38073,-0.68335 -0.37107,-0.63557 -1.21081,-0.62669 -1.82472,-0.41001 -0.85157,0.31463 -1.75031,0.88913 -1.95039,1.84089 -0.22377,1.08894 -0.0349,2.23528 0.34,3.2704 0.5347,0.47385 0.76969,1.21217 1.4224,1.56365 1.10788,0.71392 2.63968,1.14778 3.85384,0.43765 0.74183,-0.51275 1.47702,-1.13883 1.84487,-1.98085 0.42789,-1.23001 0.2017,-2.59012 -0.20458,-3.79424 -0.33169,-0.70465 -1.06236,-1.19681 -1.81063,-1.36429 -0.76581,-0.0716 -1.53607,-0.23279 -2.29197,-0.28347 -0.69937,0.10563 -1.2395,1.24634 -0.48841,1.63718 0.70265,0.30962 1.48479,0.003 2.20169,-0.0857 z" />
      <path
         id="path112"
         style="fill:#003380;stroke:#003380;stroke-width:0.264583px;stroke-linecap:butt;stroke-linejoin:miter;stroke-opacity:1"
         d="m 271.14941,275.41043 c 4.87924,-1.64086 5.26562,4.91586 8.07424,6.74839 2.71442,-0.14393 8.38825,-1.20175 7.60083,3.26673 -0.26954,3.81218 -0.35323,7.60934 -0.0201,11.40861 0.0333,4.40937 0.0923,8.8093 -0.0609,13.21764 0.62411,3.273 0.62251,6.58474 -0.21231,9.8236 -0.82312,2.59147 1.45339,7.77827 -2.2505,8.16727 -3.82823,-0.50045 -7.53331,0.90454 -11.32323,0.35562 -3.49366,-0.51663 -7.07048,-0.2871 -10.5881,-0.57268 -3.18323,0.55153 -7.99065,0.99271 -6.83267,-3.89815 0.31972,-5.56612 0.0163,-11.14716 0.0586,-16.71929 0.0211,-6.6078 -0.78684,-13.19994 -0.46154,-19.8157 -0.81907,-3.95098 2.13361,-7.45199 6.2967,-5.75591 3.80606,1.89999 4.13915,-3.94524 6.75475,-5.60097 3.43012,-1.40428 -2.66064,-3.36716 -3.80835,-1.07822 -1.8154,2.64908 -3.27117,6.39316 -7.29281,5.44355 -5.11356,-0.0474 -4.3864,6.41963 -4.59213,9.93113 0.0702,4.20397 0.73955,8.38511 0.13178,12.58168 -0.12235,4.52865 1.08325,8.96961 0.77264,13.51547 0.0644,3.95505 -0.417,7.95212 0.042,11.88064 0.88737,3.71969 5.01576,2.99645 7.77045,2.26238 3.63259,-0.42188 7.27143,0.38507 10.89964,-0.21359 4.06606,0.44934 8.12796,-0.20679 12.23252,0.14114 4.19119,1.09793 4.25077,-3.85885 4.9067,-6.64469 0.006,-6.36604 -0.21914,-12.77252 -0.024,-19.14819 -0.33697,-6.46598 0.36333,-12.93335 -0.34349,-19.38612 0.96569,-3.54552 -2.78142,-7.41663 -6.36189,-6.08515 -3.75132,0.97973 -4.26373,-4.34065 -7.89318,-4.80983 -2.15002,-2.05316 -5.56386,-0.86606 -8.05,-0.33134 -2.43257,3.94999 2.99842,2.1964 4.57442,1.31598 z" />
      <path
         id="path118"
         style="fill:#885a1d;fill-opacity:1;stroke:#885a1d;stroke-width:0.264583px;stroke-linecap:butt;stroke-linejoin:miter;stroke-opacity:1"
         d="m 273.32809,240.50941 c 2.45715,-0.71055 2.53972,2.81286 2.58691,4.44463 0.18604,4.31029 -0.46636,8.61701 -1.30315,12.82756 -1.30323,3.52626 -2.16774,7.19699 -2.43801,10.95405 0.29031,2.26794 -3.00453,2.92025 -1.42669,5.14165 0.58186,2.51693 -0.85716,5.85124 1.19127,7.8189 2.26848,-1.29264 0.11791,-5.01089 0.88071,-7.23662 1.24313,-2.19403 0.7648,-4.7442 0.95333,-7.12811 0.63456,-2.53253 1.53971,-4.92082 2.47382,-7.35079 1.16472,-3.41362 1.22504,-7.04781 2.08742,-10.52452 0.42848,-2.42308 -0.46643,-4.81054 -0.59753,-7.22797 -0.57519,-1.90869 -2.16373,-4.094 -4.33794,-4.12743 -1.69906,0.57194 -4.06581,1.30173 -4.20992,3.44397 -0.36634,2.57688 -0.18182,5.19969 -0.63521,7.77198 -0.65667,2.4836 0.71498,4.70032 1.00354,7.09171 0.14597,2.2255 -0.0489,4.4529 0.17189,6.67919 -0.3737,2.28575 1.1331,4.71919 -0.21898,6.86694 -0.27776,1.33883 -2.59179,3.01571 -0.58435,4.05849 -0.73904,2.51308 0.62595,4.81359 0.41012,7.36154 1.92524,2.39731 0.7982,-2.85946 0.81213,-4.07766 -0.54693,-2.243 2.20347,-4.08894 0.8029,-6.24366 -0.82599,-2.36463 -0.0702,-4.80656 0.50764,-7.11632 0.16857,-1.94894 -0.37752,-3.85729 0.1859,-5.78305 0.50568,-3.46016 -2.84014,-6.39355 -1.67837,-9.89079 0.35446,-2.32785 0.19511,-4.92222 1.75136,-6.85828 0.43408,-0.44864 1.00607,-0.7526 1.61121,-0.89541 z" />
      <path
         id="path124"
         style="fill:#003380;fill-opacity:1;stroke:#003380;stroke-width:0.264583px;stroke-linecap:butt;stroke-linejoin:miter;stroke-opacity:1"
         d="m 260.25601,304.20966 c 1.8584,0.42411 1.33307,3.61535 3.031,3.90262 2.3368,-0.0174 4.66275,-0.46139 7.00477,-0.216 1.76193,0.17263 3.52506,0.061 5.28779,0.008 1.00248,0.1071 2.39702,0.72506 3.03371,-0.46792 0.93417,-1.38618 1.88943,-2.83205 3.38945,-3.66833 0.97694,-0.70368 -1.38707,-0.97269 -1.99154,-1.14049 -2.49953,-0.51593 -5.08169,-0.41221 -7.57246,0.0906 -2.03285,0.18124 -4.08032,0.0444 -6.11008,0.29471 -2.72461,0.25601 -5.43986,-0.22017 -8.16423,-0.15181 0.72032,0.41383 1.25529,1.14465 2.09159,1.34902 z" />
      <path
         id="path130"
         style="fill:#003380;fill-opacity:1;stroke:#003380;stroke-width:0.264583px;stroke-linecap:butt;stroke-linejoin:miter;stroke-opacity:1"
         d="m 260.16887,311.29967 c 0.12564,1.79513 2.16835,-0.58569 3.09194,-0.46233 0.85557,0.6264 1.77186,1.61131 2.67141,0.39091 1.39782,-0.70587 3.11092,-0.351 4.23399,0.69345 1.39116,1.01076 2.11202,-1.334 3.54728,-1.05688 1.23164,0.26865 2.20613,1.93 3.53229,0.60496 1.34781,-0.94448 2.60218,0.61749 3.86009,0.79855 1.29727,-0.81637 -0.17625,-2.55137 -1.36326,-2.58641 -1.28543,-0.63704 -2.47108,0.16295 -3.67832,0.46479 -1.44198,-0.3511 -3.04055,-2.28075 -4.4622,-0.53055 -1.28019,1.3799 -2.69693,-0.45691 -4.15427,-0.42447 -1.40166,-0.57652 -2.52247,1.19172 -3.9142,0.52074 -1.18577,-1.13483 -3.36418,0.0874 -3.36475,1.58724 z" />
      <path
         id="path137"
         style="fill:#003380;fill-opacity:1;stroke:#003380;stroke-width:0.264583px;stroke-linecap:butt;stroke-linejoin:miter;stroke-opacity:1"
         d="m 263.16673,303.2842 c 1.68355,0.68371 3.59543,1.3528 5.38784,0.65363 2.2361,-0.64235 4.57772,-0.88711 6.8986,-0.898 0.90145,-0.0868 2.17485,0.43739 2.81746,-0.27298 0.072,-0.72966 0.17438,-1.49508 0.0732,-2.21743 -0.4,-1.0499 -1.60051,-1.42417 -2.15088,-2.3632 -2.71279,-0.65378 -5.51105,0.0746 -8.25795,-0.21603 -1.60908,-0.0861 -3.23234,-0.46947 -4.83759,-0.28283 -0.61832,0.62933 0.0452,1.58074 0.11585,2.32227 0.29508,1.09865 -0.32301,2.18088 -0.0465,3.27457 z" />
      <path
         id="path143"
         style="fill:#003380;fill-opacity:1;stroke:#003380;stroke-width:0.264583px;stroke-linecap:butt;stroke-linejoin:miter;stroke-opacity:1"
         d="m 270.20822,294.42169 c -0.12338,0.96899 0.17286,1.94543 -0.0202,2.91137 -0.0576,0.55386 -0.17041,1.1163 -0.10484,1.67208 0.3041,0.25217 0.69479,-0.23708 1.01021,-0.33495 0.45942,-0.29572 1.01929,-0.19649 1.53057,-0.26606 0.39786,-0.14659 0.17593,-0.68002 0.16381,-0.99671 -0.15622,-0.82746 -0.20833,-1.68881 -0.0605,-2.5206 0.31864,-0.45829 -0.16657,-0.8698 -0.62637,-0.78473 -0.5207,0.0434 -1.05509,0.045 -1.56251,0.17035 -0.11387,0.0408 -0.22309,0.0935 -0.33018,0.14925 z" />
      <path
         id="path150"
         style="fill:#003380;fill-opacity:1;stroke:#003380;stroke-width:0.264583px;stroke-linecap:butt;stroke-linejoin:miter;stroke-opacity:1"
         d="m 267.95982,291.44137 c -0.2624,0.45655 -0.61246,0.94555 -0.51869,1.50147 0.0599,0.31442 0.37611,0.48973 0.6758,0.4975 0.37041,0.0202 0.75957,-0.0882 1.04962,-0.32292 0.304,-0.27343 0.33768,-0.70599 0.40119,-1.08367 0.0869,-0.25237 -0.18786,-0.36677 -0.38804,-0.38649 -0.40467,-0.0801 -0.84012,-0.0166 -1.21988,-0.20589 z" />
      <path
         id="path157"
         style="fill:#003380;fill-opacity:1;stroke:#003380;stroke-width:0.264583px;stroke-linecap:butt;stroke-linejoin:miter;stroke-opacity:1"
         d="m 266.80948,287.88069 c -0.0984,0.27024 -0.23033,0.67224 0.0873,0.85173 0.26805,0.15568 0.5583,0.27399 0.84729,0.3854 0.31369,0.11322 0.69981,0.10355 0.94841,-0.14499 0.36309,-0.31789 0.64906,-0.78029 0.64076,-1.2751 0.0164,-0.34187 -0.32011,-0.45419 -0.59125,-0.51239 -0.26204,-0.11674 -0.54484,-0.21568 -0.8369,-0.17258 -0.3345,0.0469 -0.64343,0.19895 -0.95665,0.31785 -0.18955,0.10806 -0.0872,0.37565 -0.139,0.55008 z" />
      <path
         id="path164"
         style="fill:#003380;fill-opacity:1;stroke:#003380;stroke-width:0.264583px;stroke-linecap:butt;stroke-linejoin:miter;stroke-opacity:1"
         d="m 263.96849,290.24925 c -0.22063,0.44884 -0.1389,1.05143 0.27099,1.36583 0.46664,0.39906 1.18744,0.5436 1.74444,0.25671 0.35319,-0.19675 0.44391,-0.66102 0.28797,-1.0128 -0.22547,-0.49885 -0.60312,-0.93729 -1.07006,-1.22462 -0.26704,-0.15687 -0.66129,-0.25222 -0.89873,0.008 -0.14495,0.18128 -0.22851,0.40274 -0.33461,0.60726 z" />
    </g>
    <path
       id="path231"
       style="fill:#2c5aa0;stroke:#2c5aa0;stroke-width:0.264583px;stroke-linecap:butt;stroke-linejoin:miter;stroke-opacity:1"
       d="m 165.721,239.0069 c 6.82399,3.20314 14.317,5.04411 21.87662,4.24724 6.55284,0.46635 12.54297,-2.45088 18.81989,-3.75461 5.70925,-0.27363 6.92904,-10.04627 9.18412,-10.91119 1.42069,5.82838 -2.17359,13.52108 -3.76645,19.96179 -1.96179,7.58119 -5.6935,14.78957 -5.59369,22.78373 0.28706,6.11257 -7.80641,7.41456 -12.25919,9.65154 -9.0506,1.53502 -19.70112,1.24287 -26.89329,-5.21284 -3.90732,-3.87534 -0.63907,-9.87227 -2.64381,-14.60196 -2.79341,-8.23778 -3.13401,-17.29015 -7.55868,-24.93882 -1.58309,-2.60337 -0.84026,-8.65247 1.41627,-3.23906 1.70643,2.87607 4.97021,4.01287 7.41821,6.01418 z"
       sodipodi:nodetypes="cccccccccccc" />
    <g
       id="g434"
       transform="rotate(9.3610595,905.45298,-673.77974)">
      <path
         id="path229"
         style="fill:#bfa37e;fill-opacity:1;stroke:#bfa37e;stroke-width:0.264583px;stroke-linecap:butt;stroke-linejoin:miter;stroke-opacity:1"
         d="m 356.88481,280.42991 c 3.63722,1.21381 4.54728,-4.05717 7.66836,-4.87139 3.92307,-2.83747 9.25784,-0.95777 11.26677,3.24705 0.78426,4.87722 7.52255,-0.12059 9.33118,4.13819 0.42997,3.31156 0.0444,6.77237 -0.15087,10.12398 -0.24045,3.70557 0.29517,7.40958 0.47987,11.09417 -0.37712,3.64595 -0.43052,7.29292 -0.34211,10.95029 -0.48626,4.35347 0.59006,8.79256 -0.35947,13.09339 -1.30139,3.33869 -4.91866,1.78911 -7.50038,1.84822 -3.93359,0.2874 -7.87961,0.50693 -11.79748,-0.0102 -4.04578,-0.31217 -8.61095,1.28722 -12.32529,-0.69209 -2.77023,-2.9239 -0.65249,-7.13927 -1.20517,-10.65775 -0.88912,-4.37524 0.16341,-8.87356 -0.62683,-13.26239 -0.15573,-4.09602 -0.78134,-8.19502 0.008,-12.25991 0.36316,-3.35764 -0.61993,-6.74976 -0.0418,-10.07191 1.151,-3.26193 4.99348,-2.41576 5.38081,0.65898 2.23445,2.77149 5.96718,1.67595 8.81313,1.11796 1.70635,2.45916 5.91719,1.7101 6.86582,-1.08951 0.97406,-3.46258 -5.08061,-6.05691 -6.55621,-2.6345 -0.73151,2.67588 1.67368,6.9862 -2.89231,6.95301 -3.96633,1.06939 -8.74286,-1.67694 -9.34254,-5.81523 0.0159,-1.99542 2.11697,-1.41462 3.32694,-1.86034 z" />
      <path
         id="path235"
         style="fill:#eddf8d;fill-opacity:1;stroke:#eddf8d;stroke-width:0.264583px;stroke-linecap:butt;stroke-linejoin:miter;stroke-opacity:1"
         d="m 370.21832,281.7632 c 1.14335,0.58831 0.5893,2.09541 0.0194,2.94901 -0.72796,1.14878 -2.2821,0.69831 -3.1016,-0.0855 -0.87963,-0.65681 -1.63665,-1.96849 -0.97616,-3.01723 0.35773,-0.93628 1.44679,-1.22776 2.33571,-0.9249 1.05478,0.41985 1.75699,-1.07666 1.08986,-1.81095 -0.63795,-0.46758 -1.56317,-0.26637 -2.30648,-0.1519 -1.47252,0.32143 -2.38373,1.73753 -2.72371,3.11495 -0.22341,1.03918 0.19646,2.0834 0.58579,3.02897 0.77317,1.40085 2.46281,1.96491 3.96869,2.11726 1.17878,0.12776 2.40359,-0.45891 2.91248,-1.55403 0.57648,-1.08179 0.92429,-2.31505 0.94541,-3.5403 -0.085,-1.83495 -1.66209,-3.72185 -3.61469,-3.50732 -1.0488,-0.0302 -1.96304,1.30117 -1.16054,2.14872 0.43698,0.81448 2.30504,-0.0281 2.02582,1.23321 z" />
      <path
         id="path242"
         style="fill:#003380;fill-opacity:1;stroke:#003380;stroke-width:0.264583px;stroke-linecap:butt;stroke-linejoin:miter;stroke-opacity:1"
         d="m 378.88076,279.41032 c 2.91546,-0.38781 7.71908,-0.31265 7.58342,3.78624 -0.43043,4.01437 0.33496,8.07915 -0.0137,12.09164 0.71863,5.34922 -0.8804,10.74483 0.18758,16.08534 0.45497,4.54993 0.0503,9.13874 0.18211,13.69978 0.42722,3.64492 -1.89991,7.06845 -5.7723,6.92494 -3.09466,-0.26442 -6.17665,-0.97093 -9.33712,-0.5647 -5.98326,0.32329 -11.93615,-0.47996 -17.91781,-0.39608 -4.71724,0.32566 -3.34587,-6.17614 -3.74747,-9.30438 0.23243,-3.39908 -0.10287,-6.76755 -0.10498,-10.15523 1.02852,-5.80984 0.18981,-11.69526 -0.0385,-17.53195 0.1272,-4.22182 0.34156,-8.46476 0.62399,-12.66548 2.35422,-2.98289 7.64435,0.40664 9.29237,-3.74915 2.08559,-4.47455 8.01461,-5.6449 12.30865,-4.05864 2.09667,0.29739 5.89843,6.47965 1.95133,4.15546 -2.14024,-2.18897 -5.85323,-3.07829 -8.68927,-1.86787 -3.47742,1.02494 -3.26589,5.86121 -6.83587,6.1061 -3.17928,-0.64124 -7.02265,0.83238 -6.45114,4.71233 0.6314,3.1332 -0.19517,6.34209 0.42161,9.47348 -0.13815,3.616 -1.17824,7.20769 -0.41988,10.83053 0.39508,4.81873 0.95869,9.64868 0.26533,14.47324 0.94042,2.50555 -0.75648,7.51931 3.18747,7.0526 3.11945,0.66282 6.25566,0.58028 9.40527,0.25959 4.33412,-0.14707 8.67335,0.1831 13.005,-0.0817 3.57442,-0.27288 8.18397,-0.80173 6.27748,-5.56379 -0.52669,-5.89119 0.0615,-11.8324 0.0231,-17.73638 0.16324,-4.10102 -0.82386,-8.13075 -0.46496,-12.24503 -0.81327,-3.37278 1.85579,-9.4935 -2.00847,-10.88502 -3.64094,0.74301 -7.01497,-0.24107 -7.86297,-4.18411 -2.42294,-2.02878 1.06544,-4.97065 1.95268,-1.50077 0.31679,1.5681 1.04685,3.33309 2.99704,2.83901 z" />
      <path
         id="path248"
         style="fill:#885a1d;fill-opacity:1;stroke:#885a1d;stroke-width:0.264583px;stroke-linecap:butt;stroke-linejoin:miter;stroke-opacity:1"
         d="m 372.85016,243.47404 c 1.25653,2.70552 0.80041,5.75701 -0.0271,8.50822 -0.53529,2.54485 -0.44226,5.22492 -1.62705,7.61402 -1.41739,3.29415 -0.81528,7.14319 -2.50845,10.36953 -1.42531,2.57622 0.56027,5.06439 -0.21983,7.90236 -0.26708,1.09578 0.24283,5.50358 1.71057,3.16605 0.73185,-2.31471 -0.80316,-4.55461 -0.61325,-6.8801 2.10005,-0.94304 0.26272,-3.73804 1.27738,-5.50064 0.40201,-1.97109 1.64312,-3.63796 1.92623,-5.65473 0.42546,-2.15136 2.35379,-3.69975 2.19529,-6.02566 0.22579,-3.88166 0.1152,-7.78417 0.38869,-11.66376 -0.13397,-2.12454 -0.95175,-4.29695 -2.42125,-5.83921 -1.64326,-1.4792 -4.71684,-1.1204 -5.49342,1.11953 -1.16286,2.89006 -1.62517,6.07412 -1.10253,9.16811 0.35428,4.55026 0.43592,9.11837 0.79363,13.67314 0.0694,2.60428 0.12209,5.20081 -0.026,7.80677 -1.70728,1.59435 -0.81645,3.7436 -0.51806,5.59232 0.09,1.3185 -0.78033,5.24634 1.08274,4.54083 0.76983,-1.97886 -0.77334,-4.20895 0.49084,-6.11206 1.63556,-1.71661 0.93714,-3.97872 0.19122,-5.92357 -0.64724,-2.43256 0.60335,-4.87854 -0.055,-7.3229 -0.71137,-4.29713 0.19105,-8.74275 -1.07364,-12.9621 -0.16869,-2.92748 -0.2885,-6.33927 1.84726,-8.63563 1.66356,-1.58896 4.31095,-0.45538 3.74612,1.99589 0.0387,0.35046 -0.0438,0.7203 0.0356,1.06359 z" />
      <path
         id="path254"
         style="fill:#003380;fill-opacity:1;stroke:#003380;stroke-width:0.264583px;stroke-linecap:butt;stroke-linejoin:miter;stroke-opacity:1"
         d="m 358.01773,314.79761 c 1.66323,0.27464 1.34754,-2.76707 3.21545,-2.57905 1.50673,-0.0288 2.2625,2.56085 3.8638,1.51123 1.06077,-1.00676 2.47636,-2.83298 4.09699,-1.73899 1.10062,0.74698 1.88521,3.4106 3.51138,1.86157 0.41718,-1.93839 2.50323,-1.62825 3.01117,0.0863 0.7902,1.26323 3.05956,2.06856 3.87971,0.41188 0.40676,-0.90422 2.94805,-3.66262 0.49789,-2.81333 -0.9153,0.93179 -2.64948,2.32161 -3.17785,0.17119 -0.65288,-1.11306 -2.36779,-1.67298 -3.59719,-1.19722 -0.72143,1.31406 -2.39645,2.33857 -3.14796,0.39386 -0.64666,-1.69026 -2.93054,-1.74799 -4.23246,-0.82138 -1.00653,0.83723 -1.80909,3.07399 -3.30735,1.43965 -1.05393,-1.44973 -3.09644,-1.39524 -4.05889,0.13524 -0.56113,0.56834 -2.89888,3.82669 -0.55469,3.13902 z" />
      <path
         id="path261"
         style="fill:#003380;fill-opacity:1;stroke:#003380;stroke-width:0.264583px;stroke-linecap:butt;stroke-linejoin:miter;stroke-opacity:1"
         d="m 354.67128,304.0528 c 2.50382,0.0134 2.80478,3.46578 4.83567,3.82843 1.99017,0.0308 3.80309,-1.25293 5.8247,-0.73929 2.69092,0.40965 5.44682,0.063 8.11087,0.73871 1.52797,-0.65155 3.79054,1.21027 4.70321,-0.54561 0.69492,-1.97611 3.77694,-2.37139 3.79921,-4.4127 -3.08302,0.10757 -6.23346,0.21876 -9.34371,0.0837 -2.7539,0.11897 -5.48568,0.61316 -8.2516,0.46137 -3.29649,0.0544 -6.59603,0.36605 -9.88272,-0.0469 -1.01456,-0.13268 0.11392,0.17269 0.20437,0.63222 z" />
      <path
         id="path268"
         style="fill:#003380;fill-opacity:1;stroke:#003380;stroke-width:0.264583px;stroke-linecap:butt;stroke-linejoin:miter;stroke-opacity:1"
         d="m 359.58636,304.72729 c 0.37337,-1.45196 -1.23516,-3.52226 -0.24873,-4.52478 2.23341,0.30658 4.48687,0.12612 6.71603,-0.14299 2.99091,-0.22963 6.00241,-0.0655 8.98573,-0.34639 1.71114,-0.14116 1.84535,1.85329 2.91975,2.69548 0.45846,0.46989 1.41817,1.42054 0.11772,1.17836 -2.31049,0.18109 -4.61073,0.45592 -6.93308,0.43812 -2.14742,0.0524 -4.25475,0.5072 -6.405,0.53283 -1.34125,0.0109 -2.63374,0.43747 -3.95881,0.51403 -0.417,-0.0177 -0.83847,-0.11866 -1.19361,-0.34466 z" />
      <path
         id="path275"
         style="fill:#003380;fill-opacity:1;stroke:#003380;stroke-width:0.264583px;stroke-linecap:butt;stroke-linejoin:miter;stroke-opacity:1"
         d="m 364.9895,296.5236 c -0.0699,0.87164 0.12367,1.7381 0.0821,2.61063 0.008,0.59007 0.0209,1.18506 0.14472,1.76439 0.33329,0.45859 0.83628,-0.26028 1.28143,-0.14207 0.43604,-0.0383 0.99862,0.43834 1.35202,0.068 0.14843,-0.58784 0.0972,-1.21032 0.0904,-1.81299 -0.0299,-0.78637 -0.0659,-1.5824 0.0945,-2.35744 0.0115,-0.48694 -0.59218,-0.12913 -0.87773,-0.17783 -0.7212,0.0448 -1.44486,0.0706 -2.16736,0.0474 z" />
      <path
         id="path282"
         style="fill:#003380;fill-opacity:1;stroke:#003380;stroke-width:0.264583px;stroke-linecap:butt;stroke-linejoin:miter;stroke-opacity:1"
         d="m 361.66048,293.15114 c -0.21046,0.40059 -0.45105,0.90436 -0.20622,1.34322 0.28522,0.43955 0.85485,0.59002 1.35021,0.59477 0.74855,-0.004 1.54772,-0.52669 1.64407,-1.30733 0.0635,-0.46994 -0.23635,-0.91615 -0.65057,-1.11753 -0.35478,-0.18139 -0.75397,-0.28123 -1.14954,-0.30929 -0.46393,-0.007 -0.46458,0.55484 -0.81006,0.7076 -0.059,0.0301 -0.1196,0.057 -0.17789,0.0886 z" />
      <path
         id="path289"
         style="fill:#003380;fill-opacity:1;stroke:#003380;stroke-width:0.264583px;stroke-linecap:butt;stroke-linejoin:miter;stroke-opacity:1"
         d="m 360.789,289.01007 c -0.49167,0.45672 -0.74918,1.26439 -0.36491,1.86444 0.23305,0.3658 0.72229,0.39179 1.0958,0.26074 0.47476,-0.16779 0.92334,-0.50832 1.12565,-0.97977 0.23196,-0.61886 -0.0531,-1.34946 -0.55095,-1.75248 -0.25867,-0.22878 -0.67952,-0.32788 -0.96065,-0.081 -0.19308,0.17894 -0.2878,0.43705 -0.34494,0.68809 z" />
      <path
         id="path296"
         style="fill:#003380;fill-opacity:1;stroke:#003380;stroke-width:0.264583px;stroke-linecap:butt;stroke-linejoin:miter;stroke-opacity:1"
         d="m 356.74537,291.39432 c -0.30219,0.41397 -0.56839,1.00685 -0.26821,1.49167 0.38152,0.55366 1.17183,0.66547 1.77561,0.46577 0.50204,-0.16939 0.85979,-0.70459 0.74774,-1.23729 -0.12231,-0.79633 -0.93482,-1.43237 -1.73568,-1.34145 -0.29372,0.0809 -0.38428,0.38913 -0.51946,0.6213 z" />
    </g>
    <path
       id="path238"
       style="fill:#002863;fill-opacity:1;stroke:#002255;stroke-width:0.264583px;stroke-linecap:butt;stroke-linejoin:miter;stroke-opacity:1"
       d="m 206.7122,241.64669 c -0.46911,0.89276 -0.45877,1.95652 -0.30906,2.92873 0.15576,0.73353 0.58438,1.5949 1.40546,1.71302 0.77276,0.0787 1.33905,-0.55728 1.69597,-1.16174 0.54238,-0.78913 0.89099,-1.72426 0.86211,-2.6909 0.0125,-0.68276 -0.006,-1.42882 -0.39414,-2.01612 -0.43415,-0.37817 -1.08839,-0.34185 -1.62911,-0.34668 -0.84132,0.11412 -1.15802,0.9926 -1.63123,1.57369 z" />
    <path
       id="path252"
       style="fill:#5599ff;stroke:#5599ff;stroke-width:0.264583px;stroke-linecap:butt;stroke-linejoin:miter;stroke-opacity:1"
       d="m 177.3553,259.48195 c 0.78051,0.98322 2.25552,1.72426 2.91029,0.1666 1.26787,-1.45298 2.35956,-3.09069 3.52972,-4.59072 -0.38833,2.69599 -0.5363,5.42504 -0.97608,8.117 -0.40814,3.10077 -0.44505,6.24419 -0.90816,9.33497 -0.17144,1.25422 -1.45127,3.32845 0.71932,3.08609 1.13882,-0.0465 3.71939,1.46797 3.71299,-0.44109 0.0672,-3.46116 -0.28303,-6.92291 -0.002,-10.38237 0.23519,-3.84651 0.46994,-7.70506 0.15645,-11.55456 -0.37442,-1.13113 0.61532,-3.3631 -0.62295,-3.81117 -1.25528,0.56474 -3.16113,-0.77272 -3.41705,1.30968 -0.76918,2.03331 -1.36729,4.25733 -3.05193,5.75669 -0.5589,0.99669 -3.01895,1.48372 -2.22071,2.80762 l 0.17065,0.20126 z" />
    <path
       id="path245"
       style="fill:#2a7fff;fill-opacity:1;stroke:#2a7fff;stroke-width:0.264583px;stroke-linecap:butt;stroke-linejoin:miter;stroke-opacity:1"
       d="m 209.15244,243.15515 c 1.58914,6.65407 -2.03095,13.22771 -6.73243,17.7022 -3.21766,4.37929 -7.4777,7.88291 -12.26764,10.27359 -4.13279,0.46813 -8.19854,2.40802 -12.37678,1.25163 -3.93404,-1.15487 -8.37549,-1.5052 -11.70765,-4.07038 -2.20882,-3.52452 -5.52286,-6.43385 -6.90876,-10.44585 -4.98057,-0.0706 0.66741,6.10144 2.26486,7.95013 3.89799,5.77776 11.16746,9.24874 18.11444,8.17028 5.59092,0.34532 10.92828,-1.54579 15.97475,-3.72242 3.74883,-2.25347 5.67092,-6.664 9.2312,-9.25058 4.36878,-4.52926 4.63364,-11.22003 6.17049,-16.93428 0.31885,-2.30159 -2.52159,-4.77059 -1.76248,-0.92432 z" />
    <path
       id="path278"
       style="fill:#217844;stroke:#217844;stroke-width:0.264583px;stroke-linecap:butt;stroke-linejoin:miter;stroke-opacity:1"
       d="m 237.82939,230.87263 c 1.0376,1.66819 -2.20538,3.25262 -1.8385,5.35071 -1.56819,4.01467 -2.61891,8.20412 -3.24361,12.4662 -0.0613,2.89463 -0.17904,5.83087 0.19187,8.70101 0.6454,2.50916 0.4979,5.30563 2.15682,7.44801 0.70074,0.85892 1.05903,3.19392 -0.22047,1.28904 -1.60451,-2.79517 -1.95677,-6.10573 -2.61713,-9.22028 -0.72994,-3.41251 -0.073,-6.88073 -0.17011,-10.32787 0.0786,-3.956 1.28626,-7.80589 2.71694,-11.45599 1.02306,-1.37966 1.42581,-3.39818 3.02419,-4.25083 z" />
    <path
       id="path259"
       style="fill:#16502d;stroke:#16502d;stroke-width:0.264583px;stroke-linecap:butt;stroke-linejoin:miter;stroke-opacity:1"
       d="m 233.73975,231.76672 c 5.42137,-6.26387 14.22984,-7.22398 21.83236,-9.01002 6.11147,-1.04481 12.42746,-0.46307 18.41776,0.82377 5.43113,1.5856 11.38158,2.65523 15.24605,7.21146 4.24288,3.04327 1.62396,7.89337 -0.19716,11.47886 -1.96881,4.73629 -2.69857,10.58581 -7.95421,13.00772 -5.53156,3.81047 -12.31217,5.12449 -18.92547,4.48833 -5.25445,-0.19807 -10.65098,-0.24781 -15.41799,-2.81242 -4.86292,-1.75481 -10.07145,-4.5939 -10.4624,-10.4006 0.0379,-4.88868 -5.63091,-8.62933 -3.74123,-13.49239 l 0.48881,-0.6924 z" />
    <path
       id="path270"
       style="fill:#0b2817;stroke:#0b2817;stroke-width:0.264583px;stroke-linecap:butt;stroke-linejoin:miter;stroke-opacity:1"
       d="m 239.91113,228.30015 c -0.4516,0.52582 -0.64082,1.22042 -0.81325,1.87643 -0.0897,0.74215 0.25485,1.53395 0.84866,1.98128 0.92627,0.59007 2.39293,0.24344 2.77643,-0.8402 0.31144,-0.77286 0.33765,-1.64977 0.1831,-2.4592 -0.25597,-0.51712 -0.84266,-0.87208 -1.41079,-0.91729 -0.68347,-0.14976 -0.96065,0.87635 -1.58415,0.35898 z" />
    <path
       id="path285"
       style="fill:#6f916f;stroke:#6f916f;stroke-width:0.264583px;stroke-linecap:butt;stroke-linejoin:miter;stroke-opacity:1"
       d="m 250.90146,246.46437 c 5.57616,2.16708 11.89413,2.02785 17.71419,1.23119 8.3816,-1.74846 17.44011,-4.40262 22.62955,-11.76068 0.13481,2.59817 -2.594,7.2798 -2.54326,10.93285 -0.71038,9.27051 -5.53722,17.58542 -6.53897,26.7802 2.26146,5.88193 -5.49443,8.13724 -9.26531,10.48178 -5.66613,2.79814 -11.98711,1.40454 -17.9817,1.32248 -4.57182,-0.91344 -9.25167,-2.5778 -12.86169,-5.5924 -4.02218,-3.27693 -0.15368,-8.28333 -2.02371,-12.40279 -2.2964,-5.94795 -2.39046,-12.43987 -4.51888,-18.43963 -0.58695,-4.67765 -4.25727,-9.05592 -3.4877,-13.69812 2.5126,5.63281 7.61376,9.71181 13.6866,10.81741 1.65783,0.52964 3.49003,0.91756 5.19088,0.32771 z" />
    <path
       id="path292"
       style="fill:#0b2817;stroke:#0b2817;stroke-width:0.264583px;stroke-linecap:butt;stroke-linejoin:miter;stroke-opacity:1"
       d="m 281.22867,246.96631 c -0.0458,0.70986 -0.20428,1.54673 0.35241,2.11008 0.59693,0.69606 1.75975,1.05821 2.54237,0.46255 0.54301,-0.47162 0.6269,-1.24096 0.79692,-1.89862 0.17406,-1.04648 0.32068,-2.11542 0.24429,-3.17712 -0.0163,-0.62689 -0.70973,-0.89803 -1.22603,-0.65248 -0.98017,0.27315 -1.40971,1.27691 -1.8502,2.09376 -0.22141,0.39964 -0.48764,0.7879 -0.85976,1.06183 z" />
    <path
       id="path309"
       style="fill:#87de87;stroke:#87de87;stroke-width:0.264583px;stroke-linecap:butt;stroke-linejoin:miter;stroke-opacity:1"
       d="m 253.77697,260.75418 c 1.81874,1.80502 2.63751,-1.17864 3.90272,-2.05081 1.44933,-1.19477 3.93186,-1.76615 5.29575,-0.14098 0.97741,1.48084 0.68876,3.50594 0.0292,5.06668 -0.64,1.86247 -0.93585,3.89586 -2.2022,5.48006 -1.3718,2.08004 -3.39339,3.77546 -5.83648,4.41178 -1.1874,0.56222 -3.00309,1.30354 -2.9693,2.82969 -0.60622,2.04014 2.52753,0.6541 3.63514,1.01024 2.37513,0.0668 4.79241,-0.0735 7.13332,0.36412 1.62038,0.45903 3.353,0.40941 4.89011,1.16424 1.36259,0.25429 0.874,-2.32887 1.01374,-3.30023 -1.28003,-0.76261 -2.98641,-0.43323 -4.43458,-0.82881 -1.58238,-0.14224 -3.15721,-0.28089 -4.74673,-0.32378 0.22606,-0.66077 1.99772,-2.06651 2.64143,-3.17188 2.23456,-2.41513 4.27229,-5.44679 4.06428,-8.88628 -0.20448,-1.83676 -0.34475,-3.7221 -0.86381,-5.4932 -0.59024,-1.9571 -2.65193,-2.86881 -4.56384,-2.81828 -1.66655,-0.002 -3.18366,0.78101 -4.77877,1.16322 -1.70575,0.5805 -1.80345,2.60832 -2.61023,3.94346 -0.20336,0.55383 0.0189,1.16227 0.40022,1.58076 z" />
    <path
       id="path303"
       style="fill:#217844;fill-opacity:1;stroke:#217844;stroke-width:0.264583px;stroke-linecap:butt;stroke-linejoin:miter;stroke-opacity:1"
       d="m 284.33112,246.90357 c 1.68955,3.73038 -1.52835,6.89538 -2.82682,10.36824 -1.81634,3.73629 -4.23291,7.16715 -7.00984,10.23331 -2.66649,2.09483 -5.19512,4.35135 -7.81354,6.498 -3.04867,1.84498 -6.76369,2.56446 -10.28382,2.7355 -5.22329,0.48847 -10.34242,-1.4487 -14.76005,-4.06837 -2.73496,-2.19084 -4.92002,-5.15283 -6.62475,-8.12521 -0.31857,2.96203 2.3804,5.45891 4.5582,7.15512 2.05547,1.80757 3.80637,4.09055 6.66991,4.69174 5.49922,1.7486 11.66754,2.75388 17.19141,0.60541 2.81759,-1.02804 5.32404,-2.54239 7.48994,-4.61538 3.18219,-1.20435 5.17808,-3.93827 7.2004,-6.51035 2.10167,-3.00816 4.63588,-5.85223 5.68499,-9.45564 1.34772,-2.98286 3.66374,-7.06983 1.71627,-10.04062 -0.47423,-0.65464 -1.56923,-0.47401 -1.1923,0.52825 z" />
  </g>
</svg>
