<?xml version="1.0" encoding="UTF-8" standalone="no"?>
<svg
   xmlns:dc="http://purl.org/dc/elements/1.1/"
   xmlns:cc="http://creativecommons.org/ns#"
   xmlns:rdf="http://www.w3.org/1999/02/22-rdf-syntax-ns#"
   xmlns:svg="http://www.w3.org/2000/svg"
   xmlns="http://www.w3.org/2000/svg"
   xmlns:sodipodi="http://sodipodi.sourceforge.net/DTD/sodipodi-0.dtd"
   xmlns:inkscape="http://www.inkscape.org/namespaces/inkscape"
   sodipodi:docname="bow-tie.svg"
   inkscape:version="1.0 (4035a4fb49, 2020-05-01)"
   id="svg8"
   version="1.1"
   viewBox="0 0 158.75 79.375"
   height="300"
   width="600">
  <defs
     id="defs2">
    <inkscape:path-effect
       lpeversion="1"
       is_visible="true"
       id="path-effect326"
       effect="spiro" />
    <inkscape:path-effect
       simplify_just_coalesce="false"
       simplify_individual_paths="false"
       helper_size="0"
       smooth_angles="360"
       threshold="0.000408163"
       steps="1"
       lpeversion="1"
       is_visible="true"
       id="path-effect324"
       effect="simplify" />
    <inkscape:path-effect
       lpeversion="1"
       is_visible="true"
       id="path-effect320"
       effect="spiro" />
    <inkscape:path-effect
       simplify_just_coalesce="false"
       simplify_individual_paths="false"
       helper_size="0"
       smooth_angles="360"
       threshold="0.000408163"
       steps="1"
       lpeversion="1"
       is_visible="true"
       id="path-effect318"
       effect="simplify" />
    <inkscape:path-effect
       lpeversion="1"
       is_visible="true"
       id="path-effect312"
       effect="spiro" />
    <inkscape:path-effect
       simplify_just_coalesce="false"
       simplify_individual_paths="false"
       helper_size="0"
       smooth_angles="360"
       threshold="0.000408163"
       steps="1"
       lpeversion="1"
       is_visible="true"
       id="path-effect310"
       effect="simplify" />
    <inkscape:path-effect
       lpeversion="1"
       is_visible="true"
       id="path-effect304"
       effect="spiro" />
    <inkscape:path-effect
       simplify_just_coalesce="false"
       simplify_individual_paths="false"
       helper_size="0"
       smooth_angles="360"
       threshold="0.000408163"
       steps="1"
       lpeversion="1"
       is_visible="true"
       id="path-effect302"
       effect="simplify" />
    <inkscape:path-effect
       lpeversion="1"
       is_visible="true"
       id="path-effect296"
       effect="spiro" />
    <inkscape:path-effect
       simplify_just_coalesce="false"
       simplify_individual_paths="false"
       helper_size="0"
       smooth_angles="360"
       threshold="0.000408163"
       steps="1"
       lpeversion="1"
       is_visible="true"
       id="path-effect294"
       effect="simplify" />
    <inkscape:path-effect
       lpeversion="1"
       is_visible="true"
       id="path-effect290"
       effect="spiro" />
    <inkscape:path-effect
       simplify_just_coalesce="false"
       simplify_individual_paths="false"
       helper_size="0"
       smooth_angles="360"
       threshold="0.000408163"
       steps="1"
       lpeversion="1"
       is_visible="true"
       id="path-effect288"
       effect="simplify" />
    <inkscape:path-effect
       lpeversion="1"
       is_visible="true"
       id="path-effect282"
       effect="spiro" />
    <inkscape:path-effect
       simplify_just_coalesce="false"
       simplify_individual_paths="false"
       helper_size="0"
       smooth_angles="360"
       threshold="0.000408163"
       steps="1"
       lpeversion="1"
       is_visible="true"
       id="path-effect280"
       effect="simplify" />
    <inkscape:path-effect
       lpeversion="1"
       is_visible="true"
       id="path-effect276"
       effect="spiro" />
    <inkscape:path-effect
       simplify_just_coalesce="false"
       simplify_individual_paths="false"
       helper_size="0"
       smooth_angles="360"
       threshold="0.000408163"
       steps="1"
       lpeversion="1"
       is_visible="true"
       id="path-effect274"
       effect="simplify" />
    <inkscape:path-effect
       lpeversion="1"
       is_visible="true"
       id="path-effect268"
       effect="spiro" />
    <inkscape:path-effect
       simplify_just_coalesce="false"
       simplify_individual_paths="false"
       helper_size="0"
       smooth_angles="360"
       threshold="0.000408163"
       steps="1"
       lpeversion="1"
       is_visible="true"
       id="path-effect266"
       effect="simplify" />
    <inkscape:path-effect
       lpeversion="1"
       is_visible="true"
       id="path-effect260"
       effect="spiro" />
    <inkscape:path-effect
       simplify_just_coalesce="false"
       simplify_individual_paths="false"
       helper_size="0"
       smooth_angles="360"
       threshold="0.000408163"
       steps="1"
       lpeversion="1"
       is_visible="true"
       id="path-effect258"
       effect="simplify" />
    <inkscape:path-effect
       lpeversion="1"
       is_visible="true"
       id="path-effect252"
       effect="spiro" />
    <inkscape:path-effect
       simplify_just_coalesce="false"
       simplify_individual_paths="false"
       helper_size="0"
       smooth_angles="360"
       threshold="0.000408163"
       steps="1"
       lpeversion="1"
       is_visible="true"
       id="path-effect250"
       effect="simplify" />
    <inkscape:path-effect
       lpeversion="1"
       is_visible="true"
       id="path-effect246"
       effect="spiro" />
    <inkscape:path-effect
       simplify_just_coalesce="false"
       simplify_individual_paths="false"
       helper_size="0"
       smooth_angles="360"
       threshold="0.000408163"
       steps="1"
       lpeversion="1"
       is_visible="true"
       id="path-effect244"
       effect="simplify" />
    <inkscape:path-effect
       lpeversion="1"
       is_visible="true"
       id="path-effect238"
       effect="spiro" />
    <inkscape:path-effect
       simplify_just_coalesce="false"
       simplify_individual_paths="false"
       helper_size="0"
       smooth_angles="360"
       threshold="0.000408163"
       steps="1"
       lpeversion="1"
       is_visible="true"
       id="path-effect236"
       effect="simplify" />
    <inkscape:path-effect
       lpeversion="1"
       is_visible="true"
       id="path-effect230"
       effect="spiro" />
    <inkscape:path-effect
       simplify_just_coalesce="false"
       simplify_individual_paths="false"
       helper_size="0"
       smooth_angles="360"
       threshold="0.000408163"
       steps="1"
       lpeversion="1"
       is_visible="true"
       id="path-effect228"
       effect="simplify" />
    <inkscape:path-effect
       lpeversion="1"
       is_visible="true"
       id="path-effect224"
       effect="spiro" />
    <inkscape:path-effect
       simplify_just_coalesce="false"
       simplify_individual_paths="false"
       helper_size="0"
       smooth_angles="360"
       threshold="0.000408163"
       steps="1"
       lpeversion="1"
       is_visible="true"
       id="path-effect222"
       effect="simplify" />
    <inkscape:path-effect
       lpeversion="1"
       is_visible="true"
       id="path-effect216"
       effect="spiro" />
    <inkscape:path-effect
       simplify_just_coalesce="false"
       simplify_individual_paths="false"
       helper_size="0"
       smooth_angles="360"
       threshold="0.000408163"
       steps="1"
       lpeversion="1"
       is_visible="true"
       id="path-effect214"
       effect="simplify" />
    <inkscape:path-effect
       lpeversion="1"
       is_visible="true"
       id="path-effect208"
       effect="spiro" />
    <inkscape:path-effect
       simplify_just_coalesce="false"
       simplify_individual_paths="false"
       helper_size="0"
       smooth_angles="360"
       threshold="0.000408163"
       steps="1"
       lpeversion="1"
       is_visible="true"
       id="path-effect206"
       effect="simplify" />
    <inkscape:path-effect
       lpeversion="1"
       is_visible="true"
       id="path-effect202"
       effect="spiro" />
    <inkscape:path-effect
       simplify_just_coalesce="false"
       simplify_individual_paths="false"
       helper_size="0"
       smooth_angles="360"
       threshold="0.000408163"
       steps="1"
       lpeversion="1"
       is_visible="true"
       id="path-effect200"
       effect="simplify" />
    <inkscape:path-effect
       lpeversion="1"
       is_visible="true"
       id="path-effect194"
       effect="spiro" />
    <inkscape:path-effect
       simplify_just_coalesce="false"
       simplify_individual_paths="false"
       helper_size="0"
       smooth_angles="360"
       threshold="0.000408163"
       steps="1"
       lpeversion="1"
       is_visible="true"
       id="path-effect192"
       effect="simplify" />
    <inkscape:path-effect
       lpeversion="1"
       is_visible="true"
       id="path-effect188"
       effect="spiro" />
    <inkscape:path-effect
       simplify_just_coalesce="false"
       simplify_individual_paths="false"
       helper_size="0"
       smooth_angles="360"
       threshold="0.000408163"
       steps="1"
       lpeversion="1"
       is_visible="true"
       id="path-effect186"
       effect="simplify" />
    <inkscape:path-effect
       lpeversion="1"
       is_visible="true"
       id="path-effect180"
       effect="spiro" />
    <inkscape:path-effect
       simplify_just_coalesce="false"
       simplify_individual_paths="false"
       helper_size="0"
       smooth_angles="360"
       threshold="0.000408163"
       steps="1"
       lpeversion="1"
       is_visible="true"
       id="path-effect178"
       effect="simplify" />
    <inkscape:path-effect
       lpeversion="1"
       is_visible="true"
       id="path-effect174"
       effect="spiro" />
    <inkscape:path-effect
       simplify_just_coalesce="false"
       simplify_individual_paths="false"
       helper_size="0"
       smooth_angles="360"
       threshold="0.000408163"
       steps="1"
       lpeversion="1"
       is_visible="true"
       id="path-effect172"
       effect="simplify" />
    <inkscape:path-effect
       lpeversion="1"
       is_visible="true"
       id="path-effect168"
       effect="spiro" />
    <inkscape:path-effect
       simplify_just_coalesce="false"
       simplify_individual_paths="false"
       helper_size="0"
       smooth_angles="360"
       threshold="0.000408163"
       steps="1"
       lpeversion="1"
       is_visible="true"
       id="path-effect166"
       effect="simplify" />
  </defs>
  <sodipodi:namedview
     inkscape:snap-global="false"
     inkscape:document-rotation="0"
     inkscape:window-maximized="0"
     inkscape:window-y="22"
     inkscape:window-x="-1"
     inkscape:window-height="1059"
     inkscape:window-width="1918"
     units="px"
     showgrid="false"
     inkscape:current-layer="layer1"
     inkscape:document-units="mm"
     inkscape:cy="156.28597"
     inkscape:cx="311.25189"
     inkscape:zoom="2.8"
     inkscape:pageshadow="2"
     inkscape:pageopacity="0.0"
     borderopacity="1.0"
     bordercolor="#666666"
     pagecolor="#ffffff"
     id="base" />
  <metadata
     id="metadata5">
    <rdf:RDF>
      <cc:Work
         rdf:about="">
        <dc:format>image/svg+xml</dc:format>
        <dc:type
           rdf:resource="http://purl.org/dc/dcmitype/StillImage" />
        <dc:title></dc:title>
      </cc:Work>
    </rdf:RDF>
  </metadata>
  <g
     transform="translate(0,-217.62501)"
     id="layer1"
     inkscape:groupmode="layer"
     inkscape:label="Layer 1">
    <path
       d="m 58.88914,235.38376 c -2.54526,-1.08733 -5.426582,-1.4587 -7.750234,-3.03301 -2.086666,-1.83862 -3.670458,-4.36648 -6.405715,-5.35757 -2.786513,-1.43155 -5.823201,-2.26089 -8.761054,-3.31593 -3.39732,-0.53046 -6.705777,-1.46933 -10.028537,-2.34245 -3.458941,-0.79919 -6.869533,-1.8569 -10.385142,-2.37931 -1.504523,-1.1705 -4.290002,-1.07352 -3.1103,1.4796 1.252606,2.23503 -0.798727,5.35072 1.74349,6.82192 3.64656,2.1756 8.135367,2.13412 11.827276,4.2237 4.464544,1.51454 9.275879,1.59037 13.72089,3.20997 4.149511,1.16133 8.438276,2.53275 12.786166,2.16816 2.051313,-1.53173 4.792473,0.26405 6.36316,-1.47508 z"
       style="fill:#232f7b;fill-opacity:1;stroke:#232f7b;stroke-width:0.264583px;stroke-linecap:butt;stroke-linejoin:miter;stroke-opacity:1"
       id="path176" />
    <path
       d="m 9.4433563,258.45423 c -0.563301,2.39936 0.368184,4.73454 1.1253447,6.96223 0.957473,4.05331 1.134225,8.23775 1.917339,12.32333 0.170369,2.02127 1.140339,3.89002 1.135398,5.94916 0.733171,2.34097 0.462338,4.83725 0.859728,7.16059 1.281701,1.11369 3.033174,-0.34147 4.395427,-0.78065 1.660288,-0.87225 3.418133,-1.56953 5.06378,-2.44024 -0.581587,-1.70092 -2.612212,-2.9116 -3.619458,-4.52781 -1.639915,-2.06495 -3.582909,-4.04482 -4.133151,-6.7285 -0.925292,-2.78775 -2.107941,-5.47903 -2.767476,-8.35058 -0.868885,-2.24359 -1.284487,-4.61536 -1.9862,-6.90765 -0.421089,-0.99378 -0.816394,-2.34995 -1.9907317,-2.65988 z"
       style="fill:#232f7b;fill-opacity:1;stroke:#232f7b;stroke-width:0.264583px;stroke-linecap:butt;stroke-linejoin:miter;stroke-opacity:1"
       id="path190" />
    <path
       d="m 73.986617,249.35914 c 0.58576,-3.45194 -2.002842,-6.08891 -3.867849,-8.57714 -1.152001,-3.56925 -4.529922,-6.11198 -7.922846,-7.40594 -3.51869,-1.9958 -7.525688,-2.87283 -11.344675,-4.07421 -3.577765,-0.6897 -6.841049,-2.57859 -10.514495,-2.96283 -4.572333,-0.66693 -9.176899,-1.20295 -13.63212,-2.44947 -3.818375,-0.62875 -7.301096,-2.56408 -11.199895,-2.82925 -2.348681,-0.74297 -5.8874617,-1.25966 -4.289655,2.34175 0.485514,4.26793 -0.740057,8.4685 -1.8217647,12.54359 -0.261502,4.1101 -0.685977,8.19979 -1.3400232,12.26869 -0.2679782,3.54292 1.1207362,7.06998 0.7329792,10.60554 -0.08507,4.49355 1.8904467,8.91997 2.5792607,13.3953 1.033597,3.99195 2.012482,8.05141 4.172138,11.62157 1.494041,3.1345 2.150754,6.64327 2.632146,10.03941 -0.08017,4.19984 3.429399,0.83023 5.65503,0.33293 4.160978,-1.63592 8.29357,-3.36837 12.254581,-5.44969 4.245392,-1.16266 8.00723,-3.48962 12.180483,-4.86348 3.301767,-1.46604 6.477897,-3.04018 9.602994,-4.87278 3.358675,-1.76645 6.731533,-3.53853 9.562776,-6.08532 3.210228,-1.7936 4.310152,-5.55957 4.861627,-8.9598 1.244217,-4.12735 3.533123,-8.58241 1.64195,-12.89414 -0.611912,-0.60583 -0.78809,-1.22133 0.05736,-1.72473 z"
       style="fill:#293a8c;fill-opacity:1;stroke:#293a8c;stroke-width:0.264583px;stroke-linecap:butt;stroke-linejoin:miter;stroke-opacity:1"
       id="path204" />
    <path
       d="m 137.32209,225.02423 c 2.65219,-0.49187 5.56163,0.049 7.97793,-1.38458 1.11318,-0.87718 3.01318,-1.1173 2.98953,0.80075 0.24838,2.31247 -0.11919,4.63563 0.0436,6.95389 -0.0586,2.35472 0.22674,4.69504 0.37213,7.0371 -0.0906,3.52159 -0.9585,6.98115 -1.01264,10.50288 -0.53247,1.45705 -2.6755,0.99819 -3.34412,-0.12804 -0.91755,-1.18864 -2.11134,-2.13111 -3.38844,-2.90876 -1.23369,-0.75333 -2.72673,-1.01649 -3.89092,-1.86893 -1.65233,-1.81818 -0.70701,-4.43421 -0.85024,-6.62163 -0.10415,-1.97076 -1.79944,-3.5726 -1.38967,-5.64269 0.27083,-1.78155 1.85632,-3.0335 2.08547,-4.87798 0.17139,-0.61215 0.30762,-1.23422 0.40734,-1.86201 z"
       style="fill:#232f7b;fill-opacity:1;stroke:#232f7b;stroke-width:0.264583px;stroke-linecap:butt;stroke-linejoin:miter;stroke-opacity:1"
       id="path212" />
    <path
       sodipodi:nodetypes="cssssssssssssscsssscsssssssscsccc"
       inkscape:original-d="m 100.89094,275.35779 c 0.46011,0.26531 1.02896,0.16153 1.49126,0.3993 0.43461,0.22352 0.83215,0.57229 1.22013,0.86514 0.7066,0.53334 1.45702,1.06659 2.19376,1.55282 0.83336,0.55001 1.67528,1.08049 2.48954,1.66374 0.4832,0.34611 0.87134,0.82493 1.34336,1.1868 0.89143,0.68341 1.88714,1.2113 2.73604,1.95211 0.90413,0.78903 1.60847,1.7572 2.56349,2.47342 1.13658,0.85238 2.3874,1.55498 3.58642,2.30705 0.50131,0.31445 0.91407,0.77561 1.41731,1.08697 1.35768,0.84002 2.67315,1.71274 4.14103,2.32924 0.33324,0.13996 0.57811,0.45905 0.89969,0.62112 1.28722,0.64875 2.48642,1.51056 3.85755,2.01867 2.37168,0.87889 4.37689,2.7386 7.05786,2.57775 0.23349,-0.014 1.75469,0.15221 1.87451,-0.17143 0.0463,-0.12519 -0.70242,-1.13015 -0.73659,-1.53013 -0.0685,-0.80186 0.53417,-1.75086 0.85039,-2.46233 0.43615,-0.98128 2.59234,-3.10731 2.14445,-4.11497 -0.11,-0.24749 -0.48458,-0.38042 -0.6532,-0.59894 -0.25088,-0.32514 -0.44516,-0.69833 -0.77643,-0.95388 -2.85751,-2.20426 -8.01824,-2.85381 -11.51107,-3.61585 -2.60977,-0.56939 -5.08741,-1.68447 -7.57955,-2.60652 -1.22203,-0.45214 -2.49828,-0.73381 -3.73431,-1.14244 -1.12599,-0.37225 -2.15781,-0.87482 -3.24134,-1.34207 -1.4194,-0.6121 -2.93063,-1.06322 -4.26426,-1.86339 -0.46612,-0.27967 -0.92258,-0.49505 -1.405,-0.74314 -0.46565,-0.23946 -0.84583,-0.66145 -1.33103,-0.88732 -0.47702,-0.22205 -1.06413,-0.37417 -1.56521,-0.5324 -0.659,-0.20809 -1.35306,-0.20787 -2.03354,-0.26619 -0.45794,-0.0393 -0.9073,-0.18856 -1.36802,-0.18856 -0.12093,0 -0.36854,-0.007 -0.44367,0.11091 -0.482941,0.76062 -0.336051,2.02281 0.77643,1.87448 z"
       inkscape:path-effect="#path-effect222;#path-effect224"
       id="path220"
       d="m 100.89094,275.35779 c 0.36575,0.0629 0.72714,0.15114 1.0807,0.26392 0.19167,0.0611 0.38151,0.12968 0.56187,0.21883 0.4653,0.22999 0.85188,0.58845 1.25192,0.91916 0.78248,0.64688 1.63679,1.20098 2.49967,1.73593 0.71477,0.44313 1.4398,0.87624 2.09006,1.40955 0.47063,0.38599 0.89864,0.82172 1.3693,1.20767 0.87985,0.7215 1.89856,1.26086 2.76718,1.99584 0.85692,0.72508 1.55178,1.62712 2.41688,2.34243 1.1179,0.92433 2.47938,1.50438 3.65635,2.35221 0.49091,0.35363 0.94803,0.75268 1.44277,1.10092 1.27005,0.89396 2.75747,1.43273 4.0612,2.27682 0.32001,0.20719 0.62807,0.43222 0.9444,0.64499 1.14472,0.76995 2.3916,1.37523 3.65329,1.93323 0.61741,0.27306 1.23991,0.53564 1.84391,0.83722 1.10221,0.55034 2.15459,1.23506 3.34505,1.55215 0.66792,0.17791 1.36277,0.23474 2.05394,0.24241 0.49193,0.005 0.98401,-0.0136 1.47581,-0.001 0.0664,0.002 0.13404,0.004 0.19774,-0.015 0.0318,-0.009 0.0624,-0.024 0.088,-0.0451 0.0256,-0.0211 0.0462,-0.0488 0.0566,-0.0803 0.0135,-0.0411 0.009,-0.0865 -0.005,-0.12752 -0.0137,-0.041 -0.0362,-0.0785 -0.059,-0.1153 -0.22885,-0.369 -0.51469,-0.71814 -0.6142,-1.14079 -0.0476,-0.20235 -0.0498,-0.41386 -0.0208,-0.61972 0.0721,-0.51311 0.32986,-0.97778 0.55195,-1.44593 0.10786,-0.22736 0.2083,-0.45847 0.3281,-0.67977 0.22391,-0.41361 0.5126,-0.78785 0.79285,-1.16557 0.40631,-0.54763 0.79842,-1.10809 1.12292,-1.70783 0.0768,-0.14191 0.1501,-0.28684 0.19712,-0.4412 0.047,-0.15435 0.0669,-0.3196 0.0354,-0.47785 -0.0295,-0.14823 -0.1035,-0.28562 -0.20117,-0.40097 -0.15744,-0.18593 -0.3714,-0.31361 -0.55449,-0.47434 -0.30994,-0.27209 -0.52579,-0.63341 -0.7974,-0.94377 -0.42831,-0.48942 -0.99161,-0.84619 -1.58702,-1.10785 -0.59541,-0.26165 -1.22577,-0.43329 -1.85465,-0.59909 -2.23825,-0.59012 -4.49255,-1.11856 -6.75656,-1.60046 -0.88385,-0.18813 -1.77002,-0.36937 -2.64033,-0.61258 -2.17742,-0.60848 -4.22872,-1.59683 -6.37125,-2.31861 -1.46245,-0.49267 -2.96585,-0.8606 -4.41507,-1.39092 -1.11107,-0.40658 -2.18507,-0.90672 -3.265,-1.38999 -1.1462,-0.51293 -2.30069,-1.00755 -3.43875,-1.5383 -0.48723,-0.22723 -0.97276,-0.46181 -1.42586,-0.75118 -0.44968,-0.28718 -0.86601,-0.62743 -1.33536,-0.8812 -0.48639,-0.26298 -1.0221,-0.42815 -1.56743,-0.51949 -0.67847,-0.11365 -1.37314,-0.11502 -2.04782,-0.24937 -0.45439,-0.0905 -0.91189,-0.24171 -1.37062,-0.17671 -0.11688,0.0166 -0.23357,0.0479 -0.33389,0.11016 -0.0926,0.0575 -0.168658,0.14005 -0.223002,0.23451 -0.05434,0.0944 -0.08733,0.20051 -0.101551,0.30855 -0.02845,0.21608 0.01743,0.43605 0.09107,0.64118 0.04615,0.12855 0.103667,0.25393 0.182577,0.36541 0.0789,0.11148 0.18009,0.20896 0.3012,0.2721 0.16013,0.0835 0.35262,0.10279 0.52614,0.0528 z"
       style="fill:#232f7b;fill-opacity:1;stroke:#232f7b;stroke-width:0.264583px;stroke-linecap:butt;stroke-linejoin:miter;stroke-opacity:1" />
    <path
       d="m 86.779422,246.79699 c 2.848466,-2.45847 3.147649,-6.57222 5.834205,-9.16946 2.320653,-2.5412 5.047455,-4.85448 8.455223,-5.74283 3.47825,-1.41692 7.14989,-2.29324 10.59809,-3.7785 5.21194,-1.87952 10.66168,-2.87341 16.10636,-3.80481 5.38285,-1.00703 10.61019,-2.93316 16.10596,-3.22474 4.19418,-2.26824 0.2621,4.71194 1.7346,6.68851 0.39869,4.44666 2.25928,8.54997 2.94282,12.94454 1.37598,4.20954 1.11373,8.7051 2.17407,12.979 -0.19043,3.19526 -0.43201,6.28027 -0.60451,9.47042 -1.16005,3.93531 -2.08443,7.90826 -2.89971,11.92149 -1.30935,3.12601 -2.13562,6.39378 -3.06662,9.64373 -2.23737,3.07969 0.6089,7.24738 -1.07057,9.9852 -3.11888,-0.49702 -6.2131,-1.58399 -9.31025,-2.38461 -3.54511,-0.80392 -6.71466,-2.76232 -9.86285,-4.52355 -3.06013,-1.25708 -6.14449,-2.6335 -9.51681,-2.74838 -5.07249,-1.28419 -9.43824,-4.49569 -14.520661,-5.81179 -3.059705,-1.73892 -5.627994,-4.40011 -7.615721,-7.29828 -2.502332,-2.77923 -2.554559,-6.82618 -3.671446,-10.2492 -0.262368,-3.72963 -2.384434,-7.05564 -2.207862,-10.8404 0.01096,-1.33642 -0.513556,-2.89906 0.395682,-4.05634 z"
       style="fill:#293a8c;fill-opacity:1;stroke:#293a8c;stroke-width:0.264583px;stroke-linecap:butt;stroke-linejoin:miter;stroke-opacity:1"
       id="path226" />
    <path
       d="m 89.885189,250.7345 c 2.993032,-3.07578 6.294946,-5.8178 9.14858,-9.02737 2.376941,-1.89382 4.695901,-3.89736 7.294801,-5.48705 4.07025,-3.13674 8.66177,-5.54598 13.50115,-7.24718 4.28728,-2.31987 8.96958,-3.9977 13.7689,-4.91212 1.80102,-0.21197 6.41528,-0.7983 6.68422,-0.69106 -2.5233,0.34518 -3.61675,3.50207 -5.99692,4.4299 -4.19037,2.51597 -8.36279,5.07482 -12.71078,7.29827 -2.7101,1.56078 -5.50249,2.94894 -8.06542,4.76792 -3.20543,2.11933 -6.45724,4.1845 -10.09455,5.48553 -3.482331,1.7575 -6.605417,4.45626 -10.578842,5.06485 -0.931733,0.3211 -1.979032,0.77336 -2.951139,0.31831 z"
       style="fill:#253483;fill-opacity:1;stroke:#253483;stroke-width:0.264583px;stroke-linecap:butt;stroke-linejoin:miter;stroke-opacity:1"
       id="path234" />
    <path
       d="m 88.886905,252.4426 c 3.301955,-0.3778 6.372085,-1.82842 9.609865,-2.51598 5.3519,-1.06776 10.35392,-3.3479 15.72826,-4.31913 3.5921,-0.59555 7.18452,-1.22884 10.73938,-2.03266 4.43236,-0.53396 8.76515,-1.67965 13.11873,-2.56515 2.94786,-0.13103 5.26972,2.31288 5.6404,5.11293 1.17515,3.40157 1.50046,7.39933 -0.0531,10.71631 -2.13362,2.78941 -5.92257,3.21724 -9.10624,4.01309 -6.92314,0.83795 -13.80015,-0.90362 -20.69752,-1.25476 -3.06073,-0.0295 -6.11309,-0.36593 -9.05033,-1.25651 -4.848361,-1.11937 -9.888952,-0.95359 -14.792064,-1.19695 -2.731624,-3.09339 3.331266,-3.44651 5.356292,-3.00006 6.090632,0.55227 12.230382,-0.003 18.304732,0.86427 4.47539,0.46969 9.04234,1.23064 13.51024,0.30006 -1.10677,-2.28706 -5.64112,-0.5402 -8.09048,-1.4958 -5.64473,-0.85088 -11.28568,-1.80999 -17.00948,-1.8405 -3.581803,-0.31621 -7.036196,0.6487 -10.511114,1.21681 -1.637474,-0.0944 -6.558024,0.99123 -2.697531,-0.74599 z"
       style="fill:#253483;fill-opacity:1;stroke:#253483;stroke-width:0.264583px;stroke-linecap:butt;stroke-linejoin:miter;stroke-opacity:1"
       id="path248" />
    <path
       d="m 88.430901,258.8979 c 3.774049,-0.83536 7.691605,-1.00588 11.425308,0.12855 4.452211,0.99441 9.059921,0.77301 13.466131,2.04893 4.27172,0.8712 8.47853,2.58396 12.89591,2.24683 1.4346,-0.44142 6.41063,-0.003 2.88606,1.14941 -4.29866,1.18472 -8.81558,0.5564 -13.17217,0.0713 -2.32955,-0.57228 2.26153,1.87176 3.18272,1.6688 4.97645,1.51467 10.21687,2.78895 15.42408,1.76558 2.80916,-0.51421 5.7457,-0.69537 8.42201,-1.62226 3.45751,1.31969 -0.17628,6.41232 -1.59307,8.48623 -2.41263,2.26306 -6.00911,2.32864 -8.8383,3.90366 -3.17805,1.32221 -6.78909,1.47676 -10.19128,1.37029 -6.07662,-0.57755 -12.3798,-1.80038 -17.51382,-5.26565 -1.49091,-0.65773 -5.832191,-5.40067 -1.84227,-3.99594 3.55088,1.29568 6.9425,3.86083 10.89253,3.47595 2.01719,-1.99391 -2.52825,-4.16681 -3.83083,-5.61777 -3.43582,-3.295 -8.03959,-4.78372 -11.917771,-7.42544 -3.555604,-1.84198 -7.740503,-2.06996 -11.636901,-1.49743 -2.729928,-0.35871 1.446337,-1.75187 1.941663,-0.89106 z"
       style="fill:#253483;fill-opacity:1;stroke:#253483;stroke-width:0.264583px;stroke-linecap:butt;stroke-linejoin:miter;stroke-opacity:1"
       id="path256" />
    <path
       d="m 73.912671,250.69013 c -10.149647,-2.41545 -19.827349,-6.54731 -30.108001,-8.41931 -3.588447,-0.58102 -7.261017,-1.00333 -10.82614,-0.035 -3.764774,1.00687 -7.912095,0.27324 -11.407401,2.09693 0.440055,-2.36203 5.69071,-2.67952 8.215405,-3.72371 3.034693,-0.19856 8.208984,-2.92392 3.073446,-4.93375 -4.736945,-1.64598 -10.393227,-1.79207 -14.907644,0.61621 -3.113426,2.16528 -6.227113,5.20322 -6.214111,9.29179 -0.925397,4.35559 0.53365,8.66866 0.252292,13.04413 0.437004,2.5031 -0.73517,9.71884 3.449684,7.65029 1.325466,-3.72123 2.593685,-7.56453 6.000457,-9.96628 2.43199,-2.3402 4.60306,-5.08337 7.865777,-6.34714 5.144493,-1.91964 10.72811,-2.61068 16.202103,-2.10397 5.249366,0.26452 10.462365,0.86338 15.592553,2.02851 4.716552,-0.023 9.047456,1.97516 13.651048,2.59242 1.502051,0.099 3.731162,1.1445 0.984266,-0.31466 -0.66132,-0.41524 -1.360524,-0.82672 -1.823734,-1.47651 z"
       style="fill:#253483;fill-opacity:1;stroke:#253483;stroke-width:0.264583px;stroke-linecap:butt;stroke-linejoin:miter;stroke-opacity:1"
       id="path264" />
    <path
       d="m 73.505962,253.31884 c -4.400895,0.0383 -8.740987,-1.13328 -13.155205,-0.62828 -5.045149,-0.39345 -10.189579,-0.15277 -15.09769,1.13414 -4.039768,1.02175 -8.113048,1.90255 -12.225198,2.58183 -3.733385,1.01821 -7.674196,1.38862 -11.110001,3.29407 -2.421647,1.3601 -4.785676,8.81501 0.173345,7.7252 2.581115,-2.58001 6.31068,-3.56912 9.603169,-4.94944 4.168075,-1.64031 8.343336,-3.21755 12.657018,-4.44226 6.45807,-2.15577 13.337328,-2.26206 20.046454,-2.99193 4.13104,-0.48429 8.325112,0.31623 12.393349,-0.67876 3.902864,-0.21699 -2.800786,-0.16884 -3.285241,-1.04457 z"
       style="fill:#253483;fill-opacity:1;stroke:#253483;stroke-width:0.264583px;stroke-linecap:butt;stroke-linejoin:miter;stroke-opacity:1"
       id="path278" />
    <path
       d="m 74.159162,256.42447 c -3.186894,0.88718 -6.642596,0.53676 -9.668764,2.09672 -4.922358,2.23397 -9.424626,5.39629 -14.687834,6.85974 -4.67601,1.93777 -9.485369,4.28904 -12.403257,8.61623 -3.092515,2.68165 -4.312472,6.73489 -7.335562,9.3144 -2.667951,1.8152 -6.320574,1.19246 -8.514636,-1.07095 -3.17083,-2.93168 -6.177185,-6.89412 -6.090255,-11.39203 3.063936,2.21796 7.333098,3.10476 10.051718,-0.17651 4.743826,-3.92197 11.191795,-4.35993 16.473653,-7.2466 5.672374,-1.33661 9.926241,-6.7756 16.09768,-6.26053 5.88005,0.013 11.719892,-0.77451 17.501208,-1.78662 4.471756,0.10513 0.05829,1.36838 -1.423951,1.04615 z"
       style="fill:#253483;fill-opacity:1;stroke:#253483;stroke-width:0.264583px;stroke-linecap:butt;stroke-linejoin:miter;stroke-opacity:1"
       id="path292" />
    <path
       d="m 73.986617,257.72219 c -2.143946,0.32227 -4.090479,1.37794 -6.083341,2.17449 -2.283242,1.16857 -4.100024,3.02988 -6.024362,4.68685 -1.370263,1.70004 -2.830137,3.32143 -4.286513,4.95227 -0.889317,1.68978 -2.534469,2.70269 -4.123233,3.64475 -1.608808,1.5095 1.013924,2.43755 2.29754,2.37859 2.203399,0.2491 4.295195,-0.64061 6.184609,-1.66956 1.809588,-0.62065 2.948134,-2.17293 4.026611,-3.65192 1.035022,-1.36468 2.540949,-2.51363 2.722253,-4.34605 0.208855,-2.47503 1.267666,-5.01296 3.474779,-6.34034 1.301569,-0.8216 2.861972,-1.43028 4.324932,-1.39486 -0.295454,-0.64446 -1.846489,-0.19525 -2.513275,-0.43422 z"
       style="fill:#253483;fill-opacity:1;stroke:#253483;stroke-width:0.264583px;stroke-linecap:butt;stroke-linejoin:miter;stroke-opacity:1"
       id="path300" />
    <path
       d="m 81.70174,245.11107 c -1.137379,-0.2914 -2.506036,-0.51174 -3.125231,-1.62947 -1.34709,-1.16536 -3.300078,-0.81681 -4.93621,-1.10674 -1.31793,-0.69221 -3.050723,-0.0433 -2.478382,1.64517 0.222325,1.60084 0.05376,3.20322 -0.307443,4.76783 -0.673066,3.58041 0.195051,7.18599 0.539307,10.74878 0.380698,1.36233 0.423641,2.7977 0.736185,4.15848 0.537134,1.31006 2.140509,1.14643 3.180782,0.60645 1.818381,-0.86784 3.445917,-2.2266 5.510195,-2.48762 1.295487,-0.10118 1.808783,-1.34909 1.886773,-2.47966 0.318873,-2.12414 -0.396833,-4.1897 -0.741042,-6.2558 -0.242411,-2.55779 1.441302,-5.11622 0.335918,-7.62295 -0.102816,-0.22572 -0.344329,-0.39643 -0.600852,-0.34447 z"
       style="fill:#232f7b;fill-opacity:1;stroke:#232f7b;stroke-width:0.264583px;stroke-linecap:butt;stroke-linejoin:miter;stroke-opacity:1"
       id="path308" />
    <path
       d="m 77.942775,244.86706 c 1.302197,2.47108 0.847204,5.36718 1.48091,8.01234 0.432783,2.67733 0.178769,5.46383 -0.865531,7.97301 -0.140175,0.99126 -1.126305,3.26032 0.632297,3.01747 2.127422,-0.30032 4.387851,-0.019 6.198629,1.21197 1.140162,0.6112 3.214559,1.7764 3.940474,0.0424 0.503984,-1.30244 1.121747,-2.57389 1.307628,-3.97489 0.634071,-2.10716 0.539629,-4.32784 0.791737,-6.49445 0.02566,-3.12549 -0.993488,-6.15473 -0.935209,-9.28642 0.07444,-1.69009 -1.366582,-4.93585 -3.310256,-3.00476 -1.700489,0.75399 -3.644804,0.48201 -5.435686,0.27723 -1.504806,-0.27612 -3.016688,-0.5295 -4.415125,-1.17194 -1.201287,-0.86068 -3.345151,1.24773 -1.186223,1.4483 0.961354,0.0258 1.632731,1.0837 1.796355,1.94969 z"
       style="fill:#293a8c;fill-opacity:1;stroke:#293a8c;stroke-width:0.264583px;stroke-linecap:butt;stroke-linejoin:miter;stroke-opacity:1"
       id="path322" />
  </g>
</svg>
