<?xml version="1.0" encoding="UTF-8" standalone="no"?>
<svg
   xmlns:dc="http://purl.org/dc/elements/1.1/"
   xmlns:cc="http://creativecommons.org/ns#"
   xmlns:rdf="http://www.w3.org/1999/02/22-rdf-syntax-ns#"
   xmlns:svg="http://www.w3.org/2000/svg"
   xmlns="http://www.w3.org/2000/svg"
   xmlns:sodipodi="http://sodipodi.sourceforge.net/DTD/sodipodi-0.dtd"
   xmlns:inkscape="http://www.inkscape.org/namespaces/inkscape"
   width="1200"
   height="600"
   viewBox="0 0 317.5 158.75"
   version="1.1"
   id="svg8"
   sodipodi:docname="sl-crane.svg"
   inkscape:version="1.0.1 (3bc2e813f5, 2020-09-07)">
  <sodipodi:namedview
     pagecolor="#ffffff"
     bordercolor="#666666"
     borderopacity="1"
     objecttolerance="10"
     gridtolerance="10"
     guidetolerance="10"
     inkscape:pageopacity="0"
     inkscape:pageshadow="2"
     inkscape:window-width="1920"
     inkscape:window-height="1061"
     id="namedview31"
     showgrid="false"
     inkscape:zoom="1.4"
     inkscape:cx="600"
     inkscape:cy="300"
     inkscape:window-x="0"
     inkscape:window-y="19"
     inkscape:window-maximized="0"
     inkscape:current-layer="svg8"
     inkscape:document-rotation="0" />
  <defs
     id="defs2" />
  <metadata
     id="metadata5">
    <rdf:RDF>
      <cc:Work
         rdf:about="">
        <dc:format>image/svg+xml</dc:format>
        <dc:type
           rdf:resource="http://purl.org/dc/dcmitype/StillImage" />
        <dc:title />
      </cc:Work>
    </rdf:RDF>
  </metadata>
  <path
     id="path168"
     style="fill:#c8beb7;fill-opacity:1;stroke:#c8beb7;stroke-width:0.264583px;stroke-linecap:butt;stroke-linejoin:miter;stroke-opacity:1"
     d="m 188.68831,81.195594 c 0.68622,0.32787 1.61008,-0.5267 2.1388,0.30918 0.82802,1.01249 1.04861,2.35888 1.71532,3.46902 1.25628,2.42573 2.86782,4.64207 4.35825,6.92298 0.69806,0.56428 1.00977,1.39965 1.50408,2.11812 0.64925,0.80432 1.29849,1.72072 2.30039,2.0979 0.63678,0.5357 0.98722,1.11349 1.42732,1.76458 -0.48393,0.6264 -1.67743,-0.88497 -2.05568,0.18963 -0.22556,0.84455 -0.82499,2.265206 -1.81945,1.25316 -0.47324,-0.75112 -1.79398,0.078 -1.83197,-1.06574 -0.17625,-1.26254 0.34894,-2.7054 -0.5049,-3.80788 -0.76748,-1.2494 -1.93824,-2.24604 -2.42293,-3.6606 -0.57184,-1.25822 -1.85768,-2.04615 -2.32158,-3.37315 -0.35785,-0.99878 -0.91613,-1.91718 -1.70891,-2.63074 -0.80054,-0.82717 -1.73432,-1.62248 -2.14699,-2.72594 0.0399,-0.48094 1.06815,-0.49007 1.36825,-0.86052 z" />
  <path
     id="path181"
     style="fill:#b3b3b3;fill-opacity:1;stroke:#b3b3b3;stroke-width:0.264583px;stroke-linecap:butt;stroke-linejoin:miter;stroke-opacity:1"
     d="m 187.80095,77.446644 c 0.50253,-0.10249 1.11371,-0.28579 1.54794,0.0907 0.35807,0.34638 0.4352,0.86807 0.70833,1.27297 0.33745,0.58403 0.71515,1.17913 0.77067,1.86944 0.16509,0.87429 0.75135,1.593 0.97508,2.44794 0.30899,0.32647 -0.32156,0.38422 -0.5444,0.34298 -0.38053,-0.0352 -0.79645,-0.10939 -1.13124,0.13223 -0.44129,0.25462 -0.84029,0.73036 -1.40102,0.6521 -0.43508,-0.14834 -0.71456,-0.55285 -1.00753,-0.88474 -0.80228,-1.02547 -1.50477,-2.13432 -2.06763,-3.30894 -0.10997,-0.30926 -0.27495,-0.5905 -0.4721,-0.85267 -0.1548,-0.27859 -0.47944,-0.59413 -0.35193,-0.93038 0.33929,-0.37902 0.9013,-0.3092 1.36317,-0.32563 0.5887,0.046 1.09733,-0.26706 1.61066,-0.506 z" />
  <path
     id="path158"
     style="fill:#cccccc;stroke:#cccccc;stroke-width:0.264583px;stroke-linecap:butt;stroke-linejoin:miter;stroke-opacity:1"
     d="m 110.62511,46.345864 c -0.42383,3.89747 -0.30954,8.05003 2.19101,11.25877 3.76911,6.37584 11.86952,9.1184 18.94173,7.71084 5.54739,0.0253 12.02876,-3.82917 16.81405,0.44197 2.803,2.82288 6.89961,3.70296 9.97139,5.97087 3.64601,1.83917 7.69101,2.70857 11.36937,4.54654 3.24322,1.71137 6.86262,2.46903 10.48559,2.41972 -3.21191,-1.97105 3.32649,0.25965 4.78247,-0.14205 4.60643,1.26186 9.14612,0.1727 13.75224,-0.072 -0.0538,-1.38704 -4.49514,-1.15066 -0.20368,-1.80579 3.71589,-0.73494 7.7202,-2.50792 11.37534,-0.54963 3.5557,0.86764 7.73904,2.28922 9.50507,5.68619 1.3168,3.94152 2.0011,-3.72659 1.77291,-5.0029 0.0769,-7.96422 -3.03083,-16.41822 -10.04085,-20.7719 -3.04549,-1.63399 -5.25761,-4.25823 -8.04712,-6.22526 -3.4792,-2.46829 -6.09115,-6.00746 -10.0376,-7.80075 -3.53309,-2.42077 -7.81945,-3.26348 -11.46579,-5.49983 -3.72733,-1.711 -7.71995,-2.89132 -11.77383,-3.44522 -6.08181,0.37967 -12.60962,-0.82447 -18.29171,1.83694 -2.75156,1.86663 -5.8862,3.54241 -7.24669,6.75816 -2.28515,3.15478 -5.21884,5.81839 -8.26064,8.28951 -4.15905,3.20653 -9.85589,4.42334 -14.94492,3.20619 -4.08012,-1.98544 -5.33043,-6.15598 -7.29538,-9.80942 -1.76517,-1.29744 -3.87253,1.20736 -3.35296,2.99903 z" />
  <path
     id="path163"
     style="fill:#c8beb7;fill-opacity:1;stroke:#c8beb7;stroke-width:0.264583px;stroke-linecap:butt;stroke-linejoin:miter;stroke-opacity:1"
     d="m 167.12049,79.620574 c 0.006,1.95506 0.61947,3.85552 1.58769,5.54047 0.60928,1.64209 0.56026,3.46638 1.35253,5.05247 0.57643,1.96453 0.46826,4.0649 1.04351,6.03478 0.56761,2.14804 0.9319,4.595896 -0.22338,6.621806 -0.35387,0.96498 -0.61083,2.01034 -0.56732,3.0414 0.78352,0.22278 1.81694,-0.74642 2.28975,0.34387 0.88986,0.16216 1.51506,-0.94812 2.50376,-0.58368 0.94918,-0.14157 2.14353,-1.14908 0.92808,-1.95524 -1.03846,-1.50266 -1.2862,-3.36907 -1.7505,-5.098566 -0.92469,-4.24301 -1.31003,-8.57828 -2.06824,-12.85095 -0.21703,-1.56057 -0.62901,-3.09176 -1.30651,-4.51788 -0.21797,-1.05737 -1.06457,-2.14282 -2.25997,-1.85463 -0.51291,0.0533 -1.01511,0.19127 -1.5294,0.22615 z" />
  <path
     id="path186"
     style="fill:#b3b3b3;stroke:#b3b3b3;stroke-width:0.264583px;stroke-linecap:butt;stroke-linejoin:miter;stroke-opacity:1"
     d="m 161.67308,65.290274 c 2.08268,1.93989 4.99102,2.37009 7.63013,3.06719 1.17771,0.50187 2.48763,0.4059 3.6927,0.75201 1.81855,0.71201 0.76635,2.93601 0.81223,4.36563 -0.61156,4.433 -1.25852,8.86679 -1.5931,13.33126 -0.07,0.80588 0.0243,2.13092 -0.18283,2.6107 -0.24275,-1.01639 -1.5594,-2.81341 -2.5859,-1.61082 -0.62038,1.68545 -0.28775,-1.07596 -1.09946,-1.41444 -1.4564,-1.56819 -1.57282,-3.84977 -2.86496,-5.51264 -1.09194,-1.572 -2.20904,-3.31006 -2.07792,-5.31191 -0.10399,-2.48641 -1.48973,-4.65551 -2.05981,-7.03847 -0.22455,-1.10205 -0.8896,-2.46257 0.32892,-3.23851 z" />
  <path
     id="path192"
     style="fill:#c8beb7;stroke:#c8beb7;stroke-width:0.264583px;stroke-linecap:butt;stroke-linejoin:miter;stroke-opacity:1"
     d="m 197.78378,97.588934 c -2.2523,-0.35833 -0.45057,2.522616 0.27215,3.347066 0.88325,1.2902 1.07518,2.86102 1.73515,4.19774 0.62875,2.24278 1.2839,4.48069 1.60592,6.79218 0.86868,1.76058 1.24405,3.68861 1.69901,5.58768 0.57181,1.62696 0.37526,3.6494 1.26334,5.27125 0.48906,1.86992 1.32309,3.72158 1.22085,5.68814 -0.1868,3.3484 1.22197,6.76982 0.18094,10.05892 -1.05213,1.65885 -1.34651,3.935 -3.23665,4.94264 -1.85632,0.0627 -3.87251,0.28135 -5.81077,0.65441 -1.13551,-0.22199 -4.6644,-0.25049 -3.87428,1.34646 1.92467,1.12903 3.91995,0.0192 5.91973,-0.0929 3.38996,-0.36073 7.12652,-1.81937 8.60594,-5.12965 0.14813,-1.87139 0.79246,-3.6085 1.25191,-5.41999 0.72221,-1.74975 0.41593,-3.57623 -0.42611,-5.2197 -0.82096,-1.68381 -0.29179,-3.58272 -1.1354,-5.23152 -0.79658,-1.95724 -1.15625,-4.08767 -1.20766,-6.18363 0.494,-2.07209 -1.19305,-3.87687 -1.33013,-5.94237 -0.80547,-2.21466 -0.66433,-4.61775 -1.49598,-6.81641 -0.93816,-2.2627 -0.12221,-4.85339 -1.25449,-7.059056 0.29465,-2.73846 -2.61132,-1.73713 -3.98335,-0.79123 z" />
  <path
     id="path197"
     style="fill:#c8beb7;stroke:#c8beb7;stroke-width:0.264583px;stroke-linecap:butt;stroke-linejoin:miter;stroke-opacity:1"
     d="m 206.04119,125.05167 c 1.2542,0.49939 1.71396,1.93501 2.30244,3.03241 0.47815,1.60779 1.93087,2.47127 3.5414,2.56145 1.17221,0.0198 3.22104,1.25119 1.59625,2.30468 -0.80067,0.95114 -2.00366,0.11106 -2.79217,-0.42531 -0.85192,-0.13417 0.24798,1.68359 0.34768,2.33002 0.54259,2.3476 1.89005,4.51727 1.74605,6.99906 -0.0614,1.38097 0.21456,3.17663 -1.14303,4.04109 -1.43228,0.94333 -3.19041,1.0664 -4.76286,1.66516 -1.38969,0.14475 0.50383,-1.38913 1.0909,-1.54337 1.4739,-0.69839 3.08865,-1.9477 2.985,-3.76104 -0.18631,-1.40782 -1.41912,-2.33948 -1.95677,-3.60471 -1.67145,-3.03188 -1.49586,-6.59049 -1.99141,-9.90995 -0.17157,-1.14859 -1.07811,-2.09573 -0.92481,-3.30941 l -0.015,-0.19059 -0.0236,-0.18949 z" />
  <path
     id="path211"
     style="fill:#c8beb7;stroke:#c8beb7;stroke-width:0.264583px;stroke-linecap:butt;stroke-linejoin:miter;stroke-opacity:1"
     d="m 173.0116,103.4231 c -0.73369,1.42706 -3.82807,1.62243 -2.40539,3.90574 0.9403,1.90252 1.7895,3.94181 1.27448,6.1084 -0.28116,3.16178 -1.28679,6.21277 -1.39022,9.39342 -0.56972,1.52523 -1.286,3.0273 -1.40799,4.70121 -0.50292,4.77534 -0.96274,9.61723 -2.47853,14.20099 0.26581,2.21229 -1.29179,3.85069 -3.28743,4.48561 -2.50057,0.97722 -5.26299,0.70971 -7.89163,0.90499 -2.46657,-0.0876 -4.91941,-0.7236 -7.38116,-0.62486 -1.97202,0.8506 -0.0181,3.92599 1.88411,3.05519 1.43327,-0.25278 3.45624,-0.8912 3.43959,1.35673 0.96673,2.08202 3.88062,0.33192 5.47516,-0.0101 3.19567,-1.03509 7.02649,0.39636 9.83467,-1.82876 1.18373,-1.0617 1.80571,-4.33197 3.74675,-2.34776 1.71627,1.54731 2.96095,-1.92356 0.64534,-1.96428 -2.24923,-0.60411 -2.299,-3.03089 -2.22808,-4.91447 -0.0879,-2.63136 0.90959,-5.12996 1.50378,-7.63616 0.0521,-3.49894 0.85592,-6.90554 1.69232,-10.28369 0.43211,-2.01273 -0.11028,-4.10821 0.50448,-6.10818 0.63874,-1.91354 1.4575,-3.76411 1.52319,-5.82626 0.29166,-1.85718 1.3506,-3.72741 0.84089,-5.62325 -1.49336,-0.58436 -2.76389,1.11987 -3.89433,-0.94446 z" />
  <path
     id="path216"
     style="fill:#c4c8b7;fill-opacity:1;stroke:#c4c8b7;stroke-width:0.264583px;stroke-linecap:butt;stroke-linejoin:miter;stroke-opacity:1"
     d="m 147.10555,49.895174 c 1.9773,2.12913 2.17015,5.20309 3.31243,7.77026 1.13251,2.12245 2.12552,4.40481 3.77353,6.18912 2.26209,2.17879 4.71304,4.28732 7.55833,5.65332 2.34974,0.85561 4.7575,1.56626 7.15971,2.23004 3.76321,0.88855 7.58686,1.97602 11.49547,1.46089 2.78618,0.15263 5.25751,-1.22811 7.90617,-1.79704 1.72585,0.16933 3.53721,1.92493 4.59314,-0.37733 1.27265,0.904 2.51148,0.96319 3.61302,0.0403 1.18949,1.34813 1.8958,0.16774 2.33918,-0.91913 1.68847,2.45178 1.75195,-1.68463 2.07411,-2.60541 0.99003,-0.37898 0.16455,-3.03709 0.24575,-4.23667 0.0877,-1.08871 -0.5912,-3.00096 0.32172,-2.65604 -0.63273,-2.11763 -1.60934,-4.06958 -2.47312,-6.12483 -0.53612,-1.65791 -3.1065,-3.32107 -3.44308,-4.19554 0.94984,-0.75525 -1.97067,-2.68867 -2.7454,-3.65837 -1.31662,-1.84644 -3.30589,-3.05361 -5.33312,-3.95967 -1.25391,0.66878 -3.26582,-0.63054 -4.36948,-1.4735 1.0315,-0.13688 1.46317,-0.0635 0.22333,-0.65203 -2.56497,-1.52381 -5.75215,-0.32554 -8.37851,-1.7352 -2.21994,-0.6865 -4.58163,0.0548 -6.80543,0.42601 -1.96544,0.91823 -4.04461,0.94452 -6.16819,1.15409 -3.68024,0.92081 -6.18012,4.1072 -9.51933,5.7439 -1.96397,0.99538 -3.69224,2.32623 -5.38023,3.72279 z" />
  <path
     id="path221"
     style="fill:#a7ac93;fill-opacity:1;stroke:#a7ac93;stroke-width:0.264583px;stroke-linecap:butt;stroke-linejoin:miter;stroke-opacity:1"
     d="m 149.98948,51.270524 c 2.1465,-0.71998 4.22019,-1.67411 6.43721,-2.06927 1.64268,-1.12904 3.68143,-1.28204 5.45428,-0.36513 1.60052,1.08656 2.92366,-0.60248 2.47216,-1.58824 1.46735,0.11762 3.76118,1.55926 4.77158,-0.0297 -0.0852,-1.86741 2.29045,0.6493 3.19651,0.98751 1.32837,0.92024 4.07245,0.66703 3.89634,-1.41862 1.66056,1.40985 3.8256,1.89931 5.70208,2.80321 1.05915,1.03687 2.59425,0.3449 1.82783,-1.17928 0.59463,-2.00948 2.9315,0.92148 4.26378,1.04772 2.139,0.75045 4.4539,0.80033 6.58658,1.57449 1.78092,0.61639 3.17191,-1.00225 1.29034,-2.08198 -1.6101,-1.83862 -3.02674,-3.83464 -4.31092,-5.90921 -1.12732,-1.94901 -3.37738,-1.29828 -5.18586,-1.2978 -1.95255,-0.18099 -1.61406,-3.14502 -3.94395,-2.79219 -2.39965,-0.2597 -4.88298,-6.6e-4 -7.18296,-0.86452 -2.13374,-0.0472 -4.2144,-1.0503 -6.31065,-0.82342 -1.78396,0.93551 -3.42884,2.16179 -5.46044,2.55631 -2.58584,0.75004 -5.58162,0.96352 -7.52026,3.04917 -2.13171,1.8601 -4.7306,3.61029 -5.64173,6.42188 -0.14483,0.65438 -0.16064,1.33186 -0.34192,1.97902 z" />
  <path
     id="path231"
     style="fill:#666666;stroke:#666666;stroke-width:0.264583px;stroke-linecap:butt;stroke-linejoin:miter;stroke-opacity:1"
     d="m 193.6674,41.687404 c 2.90521,0.73014 5.81655,1.56046 8.84429,1.31349 2.93792,0.10825 5.36363,1.85409 8.04492,2.81273 2.55995,1.26713 5.18595,2.56028 7.3099,4.46784 0.892,0.67393 3.00077,1.67551 1.36562,2.40797 2.11822,0.53043 4.17836,1.15007 5.70756,2.83183 2.9901,2.31561 6.07873,4.75203 7.63664,8.31951 0.37776,1.26059 2.02589,2.79081 1.47708,3.99491 -2.02139,-1.45318 -2.10805,-4.64245 -4.24304,-5.81296 0.44508,1.15343 1.24767,4.16836 -0.13891,1.54262 -1.22443,-2.25736 -3.49978,-3.60003 -5.30722,-5.32919 2.82774,3.61131 4.52237,7.9375 6.6342,11.96265 0.80658,2.99172 2.19644,5.8254 2.67916,8.89177 0.5511,4.00354 -0.0639,8.13201 -1.58522,11.86468 -1.28216,1.14675 -0.10057,-2.55562 -0.82741,-3.25855 -0.45808,-2.26911 -0.80263,-6.38668 -1.28591,-7.51472 0.22888,3.79858 0.24847,8.15941 -2.53026,11.10743 -0.7437,0.95684 -2.04477,4.94063 -2.98466,3.62957 0.39948,-4.0963 1.65433,-8.21038 1.05114,-12.33925 -0.98136,-2.40046 -1.08889,2.31652 -1.36429,3.21796 -0.4925,3.27845 -2.16839,6.21702 -3.40305,9.2497 -0.77912,2.20761 -4.09563,2.02587 -3.313,-0.66223 0.43844,-3.2661 1.24642,-6.48739 1.11251,-9.81115 0.13728,-3.3427 1.1062,-6.78247 -0.23849,-10.02424 -1.01647,-2.47741 -1.70827,-5.09628 -2.98537,-7.479 -1.26594,-2.71031 -2.16745,-5.73879 -4.64989,-7.64346 -2.71992,-2.17257 -5.42487,-4.58313 -6.81262,-7.84993 -2.363,-2.42738 -5.79872,-3.48141 -7.95711,-6.20178 -1.3014,-1.35446 -4.45318,-3.23019 -4.61223,-4.64134 0.76839,0.29082 0.45112,0.16488 2.37566,0.95314 z" />
  <path
     id="path241"
     style="fill:#504e42;fill-opacity:1;stroke:#504e42;stroke-width:0.264583px;stroke-linecap:butt;stroke-linejoin:miter;stroke-opacity:1"
     d="m 196.69922,44.482484 c 2.21766,1.04126 4.30117,2.40455 6.677,3.06446 1.64036,0.61791 2.99102,1.77108 4.25079,2.93879 0.50311,1.07054 -0.82653,2.00905 -1.50899,2.23606 1.59585,0.71205 3.42829,1.11739 4.76353,2.312 1.14928,1.19094 1.84727,2.92676 1.65594,4.58496 -0.70997,1.84806 2.57297,1.81679 2.93846,3.55205 1.06045,0.85292 2.3226,3.85316 0.21527,4.00269 0.56763,1.11224 2.32528,2.02617 2.20504,3.74822 0.39744,0.93029 0.46365,2.4804 -0.72843,2.67006 0.45367,1.45313 1.52505,3.06702 0.5761,4.56999 -1.05612,1.13535 -1.27275,2.53515 -2.09153,3.89863 -0.87318,1.48251 -2.03194,2.7985 -3.17581,4.07527 -1.85384,0.85899 -1.33551,-2.44646 -0.75192,-3.41121 0.8305,-1.79128 0.0277,-3.95065 -1.32965,-5.23919 -1.07463,-1.56807 0.55913,-3.64096 -0.86344,-5.18958 -0.46461,-1.29194 -1.97409,-2.94357 -1.48008,-4.20338 0.77866,0.48959 1.93517,0.5489 1.1783,-0.66105 -1.11415,-1.92734 -2.23182,-3.94126 -4.05065,-5.30063 -0.80924,-0.63024 -1.37494,-1.09514 -0.35864,-1.76967 2.05304,-0.97885 -0.0421,-2.58229 -1.2204,-3.25891 -1.17012,-0.60173 -2.07421,-1.56307 -3.1754,-2.25146 -0.70899,-0.6135 2.11999,-0.70041 0.75744,-1.80069 -1.08075,-1.00959 -2.03141,-2.0885 -2.8976,-3.26194 -1.05932,-1.16866 -1.91424,-2.53442 -3.41431,-3.25379 -1.53235,-0.62578 -0.82021,-2.16725 0.6768,-1.9733 0.3828,-0.0427 0.76888,-0.0575 1.15218,-0.0784 z" />
  <path
     id="path246"
     style="fill:#000000;stroke:#000000;stroke-width:0.264583px;stroke-linecap:butt;stroke-linejoin:miter;stroke-opacity:1"
     d="m 213.25432,131.69309 c 0.16279,-0.1192 0.34235,-0.25715 0.55392,-0.25499 0.17276,0.0108 0.25983,0.18431 0.30737,0.32847 0.0974,0.30717 0.13923,0.63051 0.26119,0.93035 0.0776,0.1996 0.13997,0.40566 0.16386,0.61917 0.0183,0.13478 0.0512,0.27162 0.0445,0.40722 -0.0997,-0.12707 -0.15938,-0.28069 -0.2585,-0.40864 -0.0961,-0.158 -0.17216,-0.33512 -0.32317,-0.45099 -0.24226,-0.21028 -0.55027,-0.35424 -0.73232,-0.62725 -0.0928,-0.13062 -0.0687,-0.2956 -0.0333,-0.4409 0.007,-0.0339 0.0125,-0.0681 0.0165,-0.10244 z" />
  <path
     id="path255"
     style="fill:#000000;stroke:#000000;stroke-width:0.264583px;stroke-linecap:butt;stroke-linejoin:miter;stroke-opacity:1"
     d="m 207.22764,146.16759 c 0.20609,-0.004 0.52058,-0.1854 0.65097,0.0445 0.0223,0.29633 -0.21586,0.53222 -0.47075,0.63989 -0.32845,0.15872 -0.73539,0.21311 -0.97282,0.51544 -0.23841,0.32228 -0.35745,0.71528 -0.58091,1.04511 -0.12473,0.0349 0.002,-0.2299 -0.007,-0.32123 -0.0188,-0.19793 0.11918,-0.35799 0.15465,-0.54473 0.15664,-0.38312 0.46481,-0.67623 0.74889,-0.96683 0.15107,-0.14609 0.30962,-0.28465 0.47671,-0.41211 z" />
  <path
     id="path265"
     style="fill:#000000;stroke:#000000;stroke-width:0.264583px;stroke-linecap:butt;stroke-linejoin:miter;stroke-opacity:1"
     d="m 191.72346,144.29312 c 0.14488,-0.31054 0.4741,-0.47253 0.7781,-0.59107 0.36898,-0.13314 0.7818,-0.20318 1.16599,-0.0954 0.2378,0.0628 0.43358,0.2831 0.42229,0.53602 -0.005,0.20502 -0.10908,0.40574 -0.26511,0.53663 -0.1431,0.0701 -0.27925,-0.0794 -0.42075,-0.0997 -0.34536,-0.11589 -0.71243,-0.0815 -1.06978,-0.0912 -0.21628,-0.0128 -0.43027,-0.0729 -0.61074,-0.19532 z" />
  <path
     id="path271"
     style="fill:#000000;stroke:#000000;stroke-width:0.264583px;stroke-linecap:butt;stroke-linejoin:miter;stroke-opacity:1"
     d="m 146.04896,147.37657 c 0.4126,0.11393 0.8063,-0.11185 1.206,-0.17732 0.51281,-0.10639 1.01685,-0.28571 1.54705,-0.27723 0.15543,-0.0225 0.4408,0.01 0.50441,-0.11024 -0.1535,-0.11342 -0.31235,-0.2272 -0.46917,-0.34131 -0.3193,-0.21652 -0.72322,-0.19443 -1.09133,-0.21453 -0.22784,-0.0159 -0.41236,0.14949 -0.6147,0.22837 -0.33062,0.16843 -0.67034,0.32349 -0.98604,0.5182 -0.0995,0.098 -0.0665,0.25064 -0.0962,0.37406 z" />
  <path
     id="path277"
     style="fill:#000000;stroke:#000000;stroke-width:0.264583px;stroke-linecap:butt;stroke-linejoin:miter;stroke-opacity:1"
     d="m 151.13897,148.75193 c -0.44607,0.0827 -0.83853,0.35132 -1.11656,0.70461 -0.21778,0.26353 -0.43999,0.52476 -0.70055,0.74729 -0.054,0.0797 -0.35446,0.22084 -0.11966,0.20993 0.4594,-0.0451 0.8655,-0.29789 1.24555,-0.5423 0.25447,-0.17343 0.49489,-0.37725 0.79164,-0.47647 0.14063,-0.0379 0.38914,-0.15973 0.23606,-0.32874 -0.0982,-0.11862 -0.2175,-0.21739 -0.33648,-0.31432 z" />
  <path
     id="path283"
     style="fill:#000000;stroke:#000000;stroke-width:0.264583px;stroke-linecap:butt;stroke-linejoin:miter;stroke-opacity:1"
     d="m 152.56861,149.77235 c -0.17946,0.0892 -0.41344,0.14004 -0.49631,0.34657 -0.0736,0.16565 -0.13881,0.34269 -0.14989,0.52483 0.008,0.24696 0.30692,0.0817 0.41926,0.005 0.27803,-0.16665 0.52437,-0.38829 0.82515,-0.51525 0.38086,-0.0936 0.77902,-0.10097 1.15588,-0.21098 -0.0539,-0.0812 -0.28645,0.01 -0.34389,-0.14959 -0.137,-0.12473 -0.33172,-0.16503 -0.5103,-0.19192 -0.31014,-0.0347 -0.62992,0.0374 -0.8999,0.19184 z" />
  <path
     id="path293"
     style="fill:#000000;stroke:#000000;stroke-width:0.264583px;stroke-linecap:butt;stroke-linejoin:miter;stroke-opacity:1"
     d="m 173.87762,145.369 c -0.15434,0.0565 -0.35564,0.0448 -0.46878,0.17737 -0.0562,0.14754 0.0564,0.29545 0.14472,0.40448 0.1706,0.18446 0.44518,0.17291 0.67485,0.14921 0.22832,-0.0212 0.4722,-0.0795 0.69241,0.0109 0.12625,0.0691 0.1147,0.23632 0.12778,0.36014 0.005,0.15859 -0.0107,0.31931 0.0223,0.47586 0.0216,-0.31524 0.0448,-0.64744 -0.0717,-0.9489 -0.19085,-0.42564 -0.68579,-0.60565 -1.12158,-0.62908 z" />
  <path
     id="path299"
     style="fill:#cbc69f;fill-opacity:1;stroke:#cbc69f;stroke-width:0.264583px;stroke-linecap:butt;stroke-linejoin:miter;stroke-opacity:1"
     d="m 103.16298,13.951924 c -1.73519,1.19364 -3.428777,2.46237 -4.984621,3.87466 -2.057439,1.25152 -4.120944,2.49431 -6.134847,3.81209 -2.172169,2.04358 -5.115426,3.07306 -7.123248,5.31264 -0.848076,0.51828 -2.607397,2.14898 -0.791491,2.58476 2.126259,0.1965 3.723733,-1.51993 5.673936,-2.04274 1.305034,-0.59529 2.496777,-1.39887 3.888437,-1.79316 2.992555,-1.2542 5.756724,-3.04305 8.913754,-3.8965 1.79245,-0.67401 3.9901,-1.20241 4.95188,-3.02771 0.8618,-1.384 -0.28424,-2.29593 -1.69832,-1.99026 -1.61651,0.12146 -1.48644,-1.88424 -2.22991,-2.6636 l -0.23523,-0.0813 -0.23034,-0.0889 z" />
  <path
     id="path310"
     style="fill:#000000;stroke:#000000;stroke-width:0.264583px;stroke-linecap:butt;stroke-linejoin:miter;stroke-opacity:1"
     d="m 96.121494,20.163524 c -0.367213,-0.011 -0.749264,0.0925 -1.016151,0.35597 -0.181083,0.10598 -0.494662,0.49486 -0.106113,0.54051 0.681753,0.0462 1.310044,-0.28521 1.87578,-0.62649 0.380801,-0.23091 0.777567,-0.43384 1.173439,-0.63601 0.258037,-0.16594 0.483287,-0.41018 0.798821,-0.46295 0.143365,-0.16526 -0.281364,-0.15158 -0.391644,-0.12274 -0.585421,0.12599 -1.057543,0.52097 -1.59822,0.75333 -0.239024,0.0879 -0.491646,0.12894 -0.735912,0.19838 z" />
  <path
     id="path316"
     style="fill:#000000;stroke:#000000;stroke-width:0.264583px;stroke-linecap:butt;stroke-linejoin:miter;stroke-opacity:1"
     d="m 107.50292,8.1167841 c -2.17814,0.65604 -3.74814,2.4628499 -5.50994,3.8068399 -1.93774,1.24846 -2.175612,4.93631 0.59143,5.22365 0.79943,0.55973 3.88929,-0.36665 3.38741,0.29742 -0.67489,0.58481 -2.91902,1.30802 -2.74919,1.92624 1.41988,-0.31525 2.19739,1.10931 0.53724,1.46016 -2.14545,1.74192 2.05069,0.65399 2.99757,0.58779 2.54654,-0.0897 5.4993,-0.36972 7.58201,1.38945 0.98695,1.67156 0.0125,3.81715 -0.0537,5.6526 -0.47073,2.80122 -1.9785,5.25457 -2.86988,7.90608 -0.48369,2.0577 -1.6478,3.90353 -2.02292,6.00864 -1.0045,2.39857 -1.20898,5.06006 -0.59059,7.58489 0.34606,2.02745 1.15709,3.95078 2.21128,5.70194 1.21811,0.94843 2.30473,3.51001 3.44241,3.70374 0.22261,-1.07898 -1.99211,-4.0353 0.48012,-2.54168 0.75208,-0.84176 -2.16128,-4.60284 0.11717,-3.17482 0.73568,0.73711 1.83464,1.24767 1.1726,-0.2811 -0.68298,-1.34032 -0.56182,-2.63094 1.00403,-3.04347 0.62593,-1.99372 -2.24384,-3.81137 -1.6609,-6.15841 -0.056,-1.93811 0.90381,-3.66424 1.31762,-5.5169 0.77965,-1.37881 1.02323,-3.03188 2.0442,-4.27392 0.78443,-1.71803 1.37231,-3.5246 1.9859,-5.3004 1.10668,-2.16023 1.75793,-4.6052 2.55839,-6.94584 0.31097,-2.82128 -0.39903,-5.69129 -1.27008,-8.36778 -0.71879,-2.19257 -2.36844,-4.0061399 -4.253,-5.2932299 -1.3624,-0.9904 -2.9484,-1.8495 -4.69038,-1.58378 -1.96733,-0.0285 -4.25262,-0.35253 -5.75883,1.23189 z" />
  <path
     id="path321"
     style="fill:#cccccc;stroke:#cccccc;stroke-width:0.264583px;stroke-linecap:butt;stroke-linejoin:miter;stroke-opacity:1"
     d="m 109.89075,11.787274 c -0.67657,0.82312 -0.60223,2.20283 -1.58884,2.75244 -1.06216,0.16229 -0.85429,1.58836 -0.18268,2.09644 0.7812,0.89693 1.93896,0.18847 2.90936,0.22097 1.6606,-0.10104 3.43373,0.11884 4.76612,1.20247 1.44191,1.15667 3.02204,2.14137 4.38809,3.39013 0.42496,1.06198 -0.15164,2.23975 0.0705,3.34733 0.036,1.0233 0.36999,2.12845 -0.0654,3.09992 -0.71154,0.90508 -1.4277,1.88367 -1.47875,3.08699 -0.15611,1.2909 0.0723,2.61014 -0.16769,3.88685 0.22037,0.69804 0.71618,-1.06804 0.86393,-1.41996 0.47426,-1.90542 1.41082,-3.65697 1.83848,-5.57548 0.99395,-2.54353 2.6086,-4.98604 2.53741,-7.82002 0.0935,-1.50063 -0.59257,-2.90239 -1.53594,-4.02686 -0.80465,-1.05211 -2.08924,-1.57605 -2.93187,-2.60627 -0.75901,-0.82732 -1.69584,-1.46668 -2.81957,-1.64892 -0.78132,-0.29722 -0.28603,-1.68329 -1.47561,-1.53598 -1.65129,-0.2377499 -3.44388,0.18803 -4.68094,1.33889 -0.14113,0.0855 -0.29235,0.15352 -0.44666,0.21106 z" />
  <path
     id="path326"
     style="fill:#a72018;fill-opacity:1;stroke:#a72018;stroke-width:0.264583px;stroke-linecap:butt;stroke-linejoin:miter;stroke-opacity:1"
     d="m 105.27195,9.1520541 c 0.8744,-0.24284 1.81974,0.11124 2.42403,0.76393 0.52165,0.5050299 1.02602,1.0382499 1.36174,1.6886699 0.19886,0.60073 0.88497,0.52481 1.36917,0.36192 0.53717,-0.16801 1.06377,-0.40321 1.51057,-0.74995 0.24931,-0.43084 0.97141,-0.2953 1.03893,-0.90054 0.27902,-0.5868599 0.011,-1.2498499 -0.47887,-1.6301699 -0.47353,-0.44384 -1.11629,-0.64075 -1.57213,-1.10996 -0.38112,-0.25005 -0.67668,-0.80532 -1.20025,-0.71316 -1.25948,0.23016 -2.46296,0.68772 -3.63083,1.20111 -0.42798,0.20596 -0.79531,0.59201 -0.82236,1.08815 z" />
  <path
     id="path336"
     style="fill:#a72018;fill-opacity:1;stroke:#a72018;stroke-width:0.264583px;stroke-linecap:butt;stroke-linejoin:miter;stroke-opacity:1"
     d="m 106.64887,12.336274 c 0.34119,-0.2912 0.84039,-0.53609 1.28228,-0.32777 0.437,0.24612 0.5349,0.7857 0.62735,1.23539 0.0544,0.2532 0.13729,0.54387 -0.0351,0.77248 -0.16548,0.26397 -0.48458,0.36023 -0.78046,0.36264 -0.39587,0.0338 -0.85829,0.0112 -1.15188,-0.2908 -0.20041,-0.3136 -0.36041,-0.6687 -0.4065,-1.04064 -0.0428,-0.32024 0.2199,-0.55647 0.4643,-0.7113 z" />
</svg>
