<?xml version="1.0" encoding="UTF-8" standalone="no"?>
<svg
   xmlns:dc="http://purl.org/dc/elements/1.1/"
   xmlns:cc="http://creativecommons.org/ns#"
   xmlns:rdf="http://www.w3.org/1999/02/22-rdf-syntax-ns#"
   xmlns:svg="http://www.w3.org/2000/svg"
   xmlns="http://www.w3.org/2000/svg"
   xmlns:sodipodi="http://sodipodi.sourceforge.net/DTD/sodipodi-0.dtd"
   xmlns:inkscape="http://www.inkscape.org/namespaces/inkscape"
   width="1200"
   height="600"
   viewBox="0 0 317.5 158.75"
   version="1.1"
   id="svg8"
   sodipodi:docname="sl-jupiter.svg"
   inkscape:version="1.0.1 (3bc2e813f5, 2020-09-07)">
  <sodipodi:namedview
     pagecolor="#ffffff"
     bordercolor="#666666"
     borderopacity="1"
     objecttolerance="10"
     gridtolerance="10"
     guidetolerance="10"
     inkscape:pageopacity="0"
     inkscape:pageshadow="2"
     inkscape:window-width="1920"
     inkscape:window-height="1061"
     id="namedview26"
     showgrid="false"
     inkscape:zoom="1.4"
     inkscape:cx="600"
     inkscape:cy="300"
     inkscape:window-x="0"
     inkscape:window-y="19"
     inkscape:window-maximized="0"
     inkscape:current-layer="svg8"
     inkscape:document-rotation="0" />
  <defs
     id="defs2" />
  <metadata
     id="metadata5">
    <rdf:RDF>
      <cc:Work
         rdf:about="">
        <dc:format>image/svg+xml</dc:format>
        <dc:type
           rdf:resource="http://purl.org/dc/dcmitype/StillImage" />
        <dc:title />
      </cc:Work>
    </rdf:RDF>
  </metadata>
  <path
     id="path31"
     style="fill:#deaa87;stroke:#deaa87;stroke-width:0.264583px;stroke-linecap:butt;stroke-linejoin:miter;stroke-opacity:1"
     d="m 100.46374,27.545934 c 46.48481,-53.62587 152.09853,3.47724 126.89502,72.27998 C 210.47727,162.98401 103.33434,173.67308 82.984675,107.3566 72.571376,80.708344 76.028935,45.531934 100.46374,27.545934 Z" />
  <path
     id="path47"
     style="fill:#ffe6d5;stroke:#ffe6d5;stroke-width:0.264583px;stroke-linecap:butt;stroke-linejoin:miter;stroke-opacity:1"
     d="m 98.652818,41.765334 c 14.047432,0.44224 28.119372,0.40507 42.122172,-0.71136 12.27084,1.69323 24.64334,0.4564 36.98063,1.1025 12.48181,-0.18606 25.00155,1.30401 37.42943,-0.1369 6.94064,1.38698 10.34199,8.85294 11.71317,15.03964 -7.2373,0.056 -16.62723,0.35042 -24.68078,0.29286 -21.58915,-0.38639 -43.16417,-1.33808 -64.76053,-0.3358 -14.80145,0.18883 -29.58807,-0.91759 -44.393042,-0.16959 -5.486278,-0.0507 -16.567588,1.80431 -10.087299,-6.52655 0.301032,-10.40305 8.622019,-7.78407 15.676249,-8.5548 z" />
  <path
     id="path53"
     style="fill:#d45500;fill-opacity:1;stroke:#d45500;stroke-width:0.264583px;stroke-linecap:butt;stroke-linejoin:miter;stroke-opacity:1"
     d="m 110.60756,47.666054 c 12.56278,0.49561 25.17584,-0.26588 37.68615,1.28692 14.34258,-0.75975 28.6963,-0.6269 43.05913,-0.94286 7.57273,-0.17391 15.15469,0.52418 22.60183,1.58433 3.01569,-1.59147 15.37129,-0.13755 8.28581,2.9175 -7.85024,-1.76089 -15.86046,-0.45966 -23.83979,-0.86854 -24.64808,-0.68735 -49.31853,-0.0962 -73.96098,-0.58374 -13.94311,-1.67956 -28.105512,1.1265 -41.973112,-0.79681 3.716947,-4.31006 12.67179,-1.04328 18.490602,-1.86466 3.21423,0.15607 6.61087,0.63349 9.65036,-0.73214 z" />
  <path
     id="path59"
     style="fill:#ff9955;fill-opacity:1;stroke:#ff9955;stroke-width:0.264583px;stroke-linecap:butt;stroke-linejoin:miter;stroke-opacity:1"
     d="m 229.29222,60.288264 c -2.98135,-7.76939 -12.91332,-3.64436 -19.14816,-4.49219 -14.23189,0.60279 -28.50181,1.08923 -42.68616,-0.50482 -13.17224,-0.10442 -26.25057,2.32131 -39.43693,1.30936 -12.77591,0.28257 -25.52296,-1.35369 -38.29725,-0.14497 -11.155114,-5.96962 -14.557765,10.04164 -10.211545,16.40425 6.219074,1.10772 12.424493,-1.57588 18.722353,-0.56278 16.339462,-0.0983 32.533852,3.29915 48.886002,1.68359 15.4187,-1.00404 30.90832,-0.47371 46.25497,-2.56082 7.98977,0.37744 16.36306,-4.77844 23.90286,-0.28784 5.71836,2.36746 18.14733,3.41229 13.00111,-6.30394 -0.47073,-1.47201 -1.01175,-2.96863 -0.98725,-4.53984 z" />
  <path
     id="path69"
     style="fill:#ffe6d5;stroke:#ffe6d5;stroke-width:0.264583px;stroke-linecap:butt;stroke-linejoin:miter;stroke-opacity:1"
     d="m 80.240057,69.449904 c -7.331525,2.1786 -0.793759,13.35653 -2.805983,18.98425 4.621545,6.09123 15.709194,1.09817 23.157356,2.06541 8.95234,-1.53418 17.89272,0.27069 26.79077,0.91223 20.27483,-0.42881 40.52287,-1.68535 60.81124,-1.10657 14.07368,-0.76182 28.18307,-0.93367 42.24763,-1.9115 2.6295,-5.65054 1.39543,-13.61528 -0.28301,-18.86283 -8.65099,1.81697 -16.29113,-4.67539 -25.14407,-3.06164 -20.77065,5.47821 -42.36482,3.59056 -63.57495,3.48488 -14.17272,0.83486 -28.35856,1.98515 -42.540902,0.65464 -5.92499,-0.88391 -13.333461,1.38692 -18.658081,-1.15887 z" />
  <path
     id="path75"
     style="fill:#ff9955;stroke:#ff9955;stroke-width:0.264583px;stroke-linecap:butt;stroke-linejoin:miter;stroke-opacity:1"
     d="m 81.940833,89.104174 c 13.265625,1.73496 26.630747,-1.86345 39.907447,0.49066 22.97086,1.72031 45.88774,-6.73646 68.72807,-1.49496 12.94373,2.66939 27.49229,-3.22331 39.39868,-0.45146 -0.44285,8.27233 -3.76858,21.011626 -10.74874,24.973466 -14.40225,-3.98207 -29.75013,5.43953 -44.07191,-0.60122 -14.26131,-6.73263 -30.4166,-2.48431 -45.43113,-1.72679 -12.34223,2.62231 -25.0405,3.78414 -36.123442,-3.40603 -9.284766,1.21086 -18.471768,-5.09408 -15.678345,-15.534866 0.829764,-1.6372 2.853187,-1.24248 4.01937,-2.2488 z" />
  <path
     id="path82"
     style="fill:#ffccaa;stroke:#ffccaa;stroke-width:0.264583px;stroke-linecap:butt;stroke-linejoin:miter;stroke-opacity:1"
     d="m 85.564227,104.54363 c 8.475571,1.20487 16.926883,3.50857 25.547123,2.10009 11.88544,-0.34418 23.72487,-2.13622 35.60588,-1.94986 12.66784,1.6512 26.23049,-2.34096 38.09888,3.89548 8.36745,3.69501 17.51814,2.08409 25.97974,0.062 5.42585,-2.25814 16.6167,-1.17396 10.61628,6.72021 -3.00327,6.06397 -8.06747,13.00817 -15.05334,7.41484 -8.48783,-2.07804 -17.28551,-0.39075 -25.89594,-0.25121 -7.71887,1.74876 -15.21914,-0.43227 -22.6272,-2.35584 -8.65453,-2.02798 -17.54831,-1.07064 -26.1488,0.60819 -9.85365,1.36739 -19.76276,0.23382 -29.57964,-0.68958 -5.930902,-0.8324 -14.664559,4.82663 -16.291158,-3.9993 0.226537,-3.77986 -8.51015,-14.77285 -0.389061,-11.65212 z" />
  <path
     id="path88"
     style="fill:#ffe6d5;stroke:#ffe6d5;stroke-width:0.264583px;stroke-linecap:butt;stroke-linejoin:miter;stroke-opacity:1"
     d="m 141.96102,121.35846 c -0.86508,0.45408 -1.63727,1.28558 -1.68386,2.30475 -0.0289,0.69441 0.43036,1.34573 1.06791,1.60231 0.67209,0.30087 1.42629,0.26527 2.14494,0.28498 0.79424,-0.0577 1.42855,-0.72809 1.65946,-1.45862 0.2134,-0.64469 0.0722,-1.4367 -0.48769,-1.86441 -0.7591,-0.60892 -1.78214,-0.68698 -2.70076,-0.86901 z" />
  <path
     id="path94"
     style="fill:#ffe6d5;stroke:#ffe6d5;stroke-width:0.264583px;stroke-linecap:butt;stroke-linejoin:miter;stroke-opacity:1"
     d="m 126.75262,122.91128 c -0.38575,0.15701 -1.04827,0.0993 -1.15194,0.60585 0.0141,0.43203 0.34315,0.81502 0.70115,1.0268 1.06207,0.45909 2.25035,0.28301 3.35149,0.0824 0.28889,-0.11668 0.68782,0.0171 0.89032,-0.24886 0.15001,-0.32459 -0.17543,-0.61817 -0.39012,-0.82099 -0.45501,-0.34217 -0.97933,-0.60253 -1.52585,-0.76181 -0.62307,-0.17652 -1.26171,-0.0184 -1.87505,0.11662 z" />
  <path
     id="path101"
     style="fill:#ffe6d5;stroke:#ffe6d5;stroke-width:0.264583px;stroke-linecap:butt;stroke-linejoin:miter;stroke-opacity:1"
     d="m 111.10054,122.60072 c -0.18083,0.31704 -0.42284,0.66702 -0.34412,1.05006 0.11635,0.34309 0.48351,0.49418 0.78063,0.64733 0.42688,0.19789 0.96337,0.34084 1.39948,0.0928 0.31644,-0.18602 0.4116,-0.63382 0.20975,-0.9375 -0.18097,-0.30388 -0.53553,-0.41903 -0.86086,-0.4905 -0.39653,-0.11562 -0.78409,-0.26111 -1.18488,-0.36218 z" />
  <path
     id="path108"
     style="fill:#aa4400;stroke:#aa4400;stroke-width:0.264583px;stroke-linecap:butt;stroke-linejoin:miter;stroke-opacity:1"
     d="m 227.96119,61.109034 c 4.08704,3.47036 0.24364,3.0465 -2.00388,3.08386 2.3666,3.59169 -5.97761,0.71561 -7.47013,0.0648 -2.02329,-0.72988 -7.85122,-4.10667 -4.33579,-0.10988 -4.58646,-1.47167 -9.62454,-1.77049 -14.40553,-0.62321 -3.20438,-0.21281 -3.35344,0.29167 -0.21147,1.32258 2.11759,1.45244 -5.23762,0.6002 -6.36555,0.79102 -2.69616,-0.16106 -5.94877,-1.85342 -6.34728,0.8356 -2.18533,1.00401 -9.12639,-2.43366 -8.63165,-1.39591 6.54955,2.9502 -4.2993,2.82038 -6.23262,0.56678 -2.45952,-2.21488 -12.52908,-0.50158 -4.87614,0.83143 3.40439,1.58329 -4.58995,-0.004 -5.9362,0.0295 -5.2044,1.00735 -10.3903,-0.95996 -15.3473,-2.36977 -5.08341,1.72978 7.10856,3.49989 0.78383,3.5548 -4.82976,-0.65751 -10.28147,-1.55093 -14.87581,0.31857 -5.40729,0.54918 -11.07043,-0.85658 -15.91939,-2.90741 -2.97124,4.30056 9.51775,2.51308 1.59858,4.06642 -5.00202,1.09266 -8.71379,-4.45283 -14.13759,-2.10413 -5.412652,1.66182 -10.073112,-3.80473 -14.972547,-1.21362 -4.003308,1.05874 5.862795,2.50323 0.489493,3.27898 -3.845562,-0.67272 -7.217692,-3.93547 -11.345087,-3.16705 -0.0032,-5.78074 7.477246,2.42878 9.011252,-2.86627 7.407557,-1.13031 14.508829,2.53282 21.930919,1.83487 2.82502,-0.9398 -6.39232,-3.08559 -8.19972,-3.17018 2.41898,-0.78145 9.49612,-1.1337 13.04075,1.08409 2.93857,-4.7468 7.67321,2.90367 12.18213,2.43942 2.00354,2.1411 10.15038,0.84226 3.74595,-0.64996 -0.84092,-1.66916 6.29813,0.99336 7.93137,1.64508 2.80956,1.19306 8.16669,-1.61503 2.82961,-2.93741 -3.5156,-2.11094 5.45272,-2.29738 6.69082,-0.67199 4.48564,-0.13808 8.63838,1.55081 13.05049,1.99826 3.73106,-0.0686 4.85371,-4.85683 0.16149,-3.06869 0.31918,-3.08102 6.86241,-3.34871 5.81176,0.37292 2.90806,0.4429 7.05888,0.58681 9.38123,1.17044 -0.70042,-2.08545 -4.20708,-2.2764 0.37621,-2.42189 3.19816,0.012 9.37314,4.18675 10.90285,0.69485 -5.71813,-2.87131 4.01377,-2.08992 6.04103,-1.6967 3.45098,-0.32069 7.89004,2.10084 10.61114,1.19059 -5.08517,-4.18702 3.25241,-0.56265 5.31252,0.0681 2.49333,-0.93671 3.8587,-3.71208 6.87913,-0.80031 1.32914,2.38949 9.54932,4.43988 7.12973,0.57239 1.99909,-0.28616 4.31547,3.1338 5.7214,0.35905 z" />
  <path
     id="path114"
     style="fill:#ffe6d5;stroke:#ffe6d5;stroke-width:0.264583px;stroke-linecap:butt;stroke-linejoin:miter;stroke-opacity:1"
     d="m 124.16448,33.624114 c -0.27176,0.15183 -0.70866,0.16894 -0.84382,0.47358 0.10085,0.24703 0.39821,0.32802 0.58519,0.4999 0.31811,0.2453 0.67941,0.4725 1.09511,0.47736 0.74905,0.0584 1.50933,0.0208 2.24704,-0.12358 0.19018,-0.0729 0.53327,-0.0864 0.54368,-0.3436 -0.0832,-0.25115 -0.39848,-0.30504 -0.60822,-0.41866 -0.68674,-0.24628 -1.38047,-0.47451 -2.07364,-0.70162 -0.32083,-0.0717 -0.64226,0.0478 -0.94534,0.13662 z" />
  <path
     id="path120"
     style="fill:#ffccaa;fill-opacity:1;stroke:#ffccaa;stroke-width:0.264583px;stroke-linecap:butt;stroke-linejoin:miter;stroke-opacity:1"
     d="m 107.62504,98.177074 c 8.39367,-1.89788 16.94733,-4.49634 25.62905,-3.74019 -0.36377,0.8573 -5.36641,2.18897 -1.34491,1.96054 2.91314,0.32147 8.3366,-3.57805 9.75452,-1.15199 -1.22333,1.20494 -6.12698,3.23314 -1.68064,3.24241 3.59231,-0.97369 7.57356,-6.28363 11.27407,-3.44512 0.50206,3.6124 -7.79734,1.47082 -4.74337,5.436076 4.26107,0.55623 6.92792,-3.039876 9.29848,-5.763616 1.79013,-0.90612 5.35472,-2.17132 6.55813,-0.66409 -1.99639,0.47043 -3.7283,0.78637 -1.53209,1.71958 -2.57447,0.23022 -5.60211,5.777266 -1.25639,3.7502 1.62407,-2.54903 4.51587,-4.11092 7.43927,-3.54323 -0.45197,-3.8843 8.09518,-4.889 7.9139,-3.31012 -3.34455,-0.35559 -5.06996,2.77268 -0.75784,2.67007 2.51747,0.36452 4.91719,0.36787 5.4355,-2.2819 2.51427,-0.66756 6.59283,-0.54585 8.33045,-0.0539 -2.04903,0.47501 -4.84426,3.3156 -0.81091,2.64469 2.20291,0.002 6.14312,-4.87098 7.2724,-1.99081 -0.83434,1.45655 -5.01338,4.57367 -1.13158,2.58059 1.46565,-2.18157 7.30573,-4.77497 8.13268,-1.57022 -3.62669,2.1101 -8.34307,2.11977 -11.62661,5.23665 -2.00504,1.015896 -4.42565,6.450836 -6.03376,5.176396 0.61057,-2.50635 5.02416,-5.431096 3.93555,-7.550626 -3.45374,1.42281 -7.02993,2.514226 -10.65416,3.519186 -1.80914,3.0355 -9.79865,0.24764 -4.11813,-1.575796 1.79403,0.542496 8.56437,-2.57613 3.6454,-1.82979 -3.62424,1.70928 -8.62027,-1.24929 -10.76655,3.171286 -2.00839,0.76394 -5.66051,0.30818 -2.0404,-1.668576 -1.31941,-1.89072 -7.34147,6.570756 -9.0309,2.112506 1.17364,-2.640866 -4.61149,0.96736 -1.21646,2.29488 -1.32049,2.97168 -5.43106,-2.0563 -8.16741,-0.71797 -1.82688,-1.04788 -7.97505,1.34421 -4.4507,-2.13296 -0.69019,-2.317526 -7.67861,2.94416 -9.24161,0.16348 4.7674,-3.486716 -3.23967,-2.273616 -5.12622,-0.81076 -4.11896,2.51087 -7.6153,-2.520486 -11.77683,-0.651656 -4.03318,1.937596 -8.90703,-0.99723 -12.10188,2.766616 -4.428772,2.75768 -8.071292,-2.706666 -12.596239,-1.1278 -3.935486,1.25383 -8.915685,-1.046146 -11.222105,-2.824906 3.542738,-2.49526 6.999189,3.050266 10.773793,0.0774 5.469489,0.11699 10.955591,2.654836 16.430821,0.54408 0.53874,-0.21062 1.04794,-0.49416 1.60368,-0.66064 z" />
  <path
     id="path126"
     style="fill:#ffccaa;fill-opacity:1;stroke:#ffccaa;stroke-width:0.264583px;stroke-linecap:butt;stroke-linejoin:miter;stroke-opacity:1"
     d="m 209.30193,96.624254 c 1.36022,-0.0906 1.63623,1.56317 2.06454,2.51906 0.3489,1.625336 1.55125,2.910166 3.13349,3.411326 1.66567,0.75438 3.40973,-0.0258 4.87574,-0.84446 1.28424,-0.76277 2.74991,-1.0871 4.23079,-1.13583 1.03394,-0.0771 3.16844,-0.50912 2.93921,1.17376 -0.40556,1.22948 -0.14503,2.45225 0.0353,3.68348 -0.24233,1.37071 -1.8725,1.93529 -2.22114,3.28214 -1.08984,1.41136 -2.25663,-0.74134 -3.25432,-1.18088 -1.75223,-0.93356 -3.63964,0.0517 -5.05319,1.12928 -1.14305,0.92123 -2.64147,0.49695 -3.94626,0.91662 -1.41428,0.43856 -2.86806,0.69759 -4.34898,0.73796 -0.91577,-0.10942 -2.65566,0.81168 -3.12953,0.0666 1.37652,-1.37215 3.54482,-1.75508 4.70485,-3.40262 1.03857,-1.89701 0.7724,-4.25127 0.0599,-6.21984 -0.85739,-0.991756 -0.8548,-2.351936 -0.30216,-3.492076 0.0724,-0.21423 0.14565,-0.42827 0.21176,-0.64451 z" />
  <path
     id="path136"
     style="fill:#d45500;stroke:#d45500;stroke-width:0.264583px;stroke-linecap:butt;stroke-linejoin:miter;stroke-opacity:1"
     d="m 194.9316,98.709474 c -2.39945,1.18649 -4.74862,3.471796 -4.13995,6.398726 -0.14767,2.66952 2.00638,5.19266 4.80192,4.51122 2.95791,-0.34226 6.31323,0.43238 8.87363,-1.45971 1.77361,-1.79951 2.86773,-4.62425 2.17614,-7.11789 -1.27742,-1.709626 -3.76937,-1.787316 -5.68032,-2.338286 -2.00495,-0.22407 -4.04003,0.33091 -6.03142,0.006 z" />
  <path
     id="path145"
     style="fill:#aa4400;stroke:#aa4400;stroke-width:0.264583px;stroke-linecap:butt;stroke-linejoin:miter;stroke-opacity:1"
     d="m 195.84361,103.61195 c -0.52616,0.28816 -1.17152,0.75909 -0.98548,1.45129 0.27236,0.83377 1.2511,1.04337 2.0236,1.1093 0.98542,0.0409 2.12034,0.17187 2.9125,-0.54697 0.32964,-0.25474 0.67775,-0.78181 1.09788,-0.70754 0.50494,-0.41419 1.0295,-0.95959 1.08555,-1.64616 0.0232,-0.79248 -0.94041,-0.91688 -1.5418,-0.85823 -0.99209,-0.0359 -2.03594,-0.0145 -2.91952,0.49892 -0.5399,0.27006 -1.07105,0.58862 -1.67273,0.69939 z" />
  <path
     id="path152"
     style="fill:#000055;fill-opacity:1;stroke:#000055;stroke-width:0.264583px;stroke-linecap:butt;stroke-linejoin:miter;stroke-opacity:1"
     d="m 100.60009,87.573534 c -0.5324,-0.082 -1.140302,0.0747 -1.449352,0.54649 -0.31426,0.42686 -0.59609,1.00042 -0.36552,1.52923 0.2716,0.65477 0.9622,1.0211 1.611752,1.20587 0.62314,0.16381 1.33931,0.16619 1.87859,-0.23266 0.61972,-0.41921 1.19526,-1.0928 1.14209,-1.88534 -0.0552,-0.54367 -0.52159,-0.93583 -1.01514,-1.09576 -0.52363,-0.19361 -1.1,-0.24031 -1.64245,-0.0972 -0.0533,0.0101 -0.10655,0.0201 -0.15997,0.0293 z" />
  <path
     id="path158"
     style="fill:#000055;fill-opacity:1;stroke:#000055;stroke-width:0.264583px;stroke-linecap:butt;stroke-linejoin:miter;stroke-opacity:1"
     d="m 238.33839,74.308014 c -0.44526,0.13828 -0.94908,0.46687 -0.94212,0.98807 0.0266,0.62678 0.54947,1.09759 1.06154,1.38463 0.52407,0.3001 1.24373,0.38596 1.73657,-0.0218 0.4124,-0.31669 0.76393,-0.84461 0.60949,-1.38422 -0.16758,-0.59832 -0.8289,-0.87232 -1.39843,-0.91949 -0.35438,-0.0389 -0.71184,-0.0219 -1.06705,-0.0472 z" />
  <path
     id="path165"
     style="fill:#000055;fill-opacity:1;stroke:#000055;stroke-width:0.264583px;stroke-linecap:butt;stroke-linejoin:miter;stroke-opacity:1"
     d="m 81.595755,123.02219 c -0.368724,-0.0605 -0.778158,-0.0633 -1.095059,0.16368 -0.307259,0.16732 -0.706369,0.36084 -0.743848,0.75141 0.03039,0.4129 0.458463,0.62502 0.794197,0.77123 0.492891,0.19251 1.048489,0.29719 1.571313,0.17823 0.548041,-0.14302 1.014883,-0.74121 0.831331,-1.31539 -0.171929,-0.44208 -0.699088,-0.55668 -1.124407,-0.5543 -0.07787,-7.1e-4 -0.155749,0.001 -0.233527,0.005 z" />
  <path
     id="path172"
     style="fill:#000055;stroke:#000055;stroke-width:0.264583px;stroke-linecap:butt;stroke-linejoin:miter;stroke-opacity:1"
     d="m 163.62744,53.810784 c -0.54176,0.23998 -1.15733,0.62444 -1.2284,1.26961 -0.0265,0.6986 0.57189,1.21483 1.11895,1.54395 0.71622,0.415 1.58247,0.65785 2.40781,0.49533 0.4809,-0.16026 0.41772,-0.80439 0.36224,-1.20608 -0.0415,-0.45312 -0.28193,-0.87987 -0.6809,-1.10996 -0.62006,-0.40776 -1.35225,-0.59872 -1.9797,-0.99285 z" />
</svg>
