<?xml version="1.0" encoding="UTF-8" standalone="no"?>
<svg
   xmlns:dc="http://purl.org/dc/elements/1.1/"
   xmlns:cc="http://creativecommons.org/ns#"
   xmlns:rdf="http://www.w3.org/1999/02/22-rdf-syntax-ns#"
   xmlns:svg="http://www.w3.org/2000/svg"
   xmlns="http://www.w3.org/2000/svg"
   xmlns:sodipodi="http://sodipodi.sourceforge.net/DTD/sodipodi-0.dtd"
   xmlns:inkscape="http://www.inkscape.org/namespaces/inkscape"
   width="1200"
   height="600"
   viewBox="0 0 317.5 158.75"
   version="1.1"
   id="svg8"
   sodipodi:docname="sl-major-oak.svg"
   inkscape:version="1.0.1 (3bc2e813f5, 2020-09-07)">
  <sodipodi:namedview
     pagecolor="#ffffff"
     bordercolor="#666666"
     borderopacity="1"
     objecttolerance="10"
     gridtolerance="10"
     guidetolerance="10"
     inkscape:pageopacity="0"
     inkscape:pageshadow="2"
     inkscape:window-width="1920"
     inkscape:window-height="1061"
     id="namedview35"
     showgrid="false"
     inkscape:zoom="1.4"
     inkscape:cx="600"
     inkscape:cy="300"
     inkscape:window-x="0"
     inkscape:window-y="19"
     inkscape:window-maximized="0"
     inkscape:current-layer="svg8"
     inkscape:document-rotation="0" />
  <defs
     id="defs2" />
  <metadata
     id="metadata5">
    <rdf:RDF>
      <cc:Work
         rdf:about="">
        <dc:format>image/svg+xml</dc:format>
        <dc:type
           rdf:resource="http://purl.org/dc/dcmitype/StillImage" />
        <dc:title />
      </cc:Work>
    </rdf:RDF>
  </metadata>
  <path
     id="path361"
     style="fill:#393c29;fill-opacity:1;stroke:#393c29;stroke-width:0.264583px;stroke-linecap:butt;stroke-linejoin:miter;stroke-opacity:1"
     d="m 39.708384,44.502527 c 4.542797,2.68978 -0.67551,4.04428 -0.767402,5.38115 4.375932,6.11647 -12.14434,1.52502 -11.252289,5.3033 2.841028,1.65733 7.773751,4.20119 1.620776,5.25811 -5.559054,1.39421 -0.306615,4.34213 -0.233041,6.29998 -2.62834,2.05429 -15.32534,2.03418 -8.296349,6.39634 4.482034,-0.36984 8.91599,1.78124 3.99964,5.86543 -6.454856,6.15822 8.459875,1.80689 3.930504,8.08629 -1.956766,3.41933 -8.400852,11.11358 0.177886,7.74637 4.473654,-1.78502 9.077968,-4.63766 11.998677,-7.11419 1.516779,3.41651 6.62882,7.51201 7.38542,9.14231 4.067327,-6.6992 2.784478,-14.60456 2.740371,-21.41677 3.140668,-1.65067 4.886925,-8.19071 6.974338,-8.0176 8.550713,0.4003 -2.251105,9.86256 5.049321,9.5557 4.76792,6.21847 -5.543719,13.20512 -4.453953,20.50321 1.411685,2.38185 6.671628,-0.87613 5.289814,4.829733 2.150062,8.29961 9.847581,-0.40221 6.018124,-5.535313 -1.836942,-5.66887 -0.483181,-17.18319 6.035085,-17.50634 2.782346,5.06131 11.374014,6.43224 15.722802,1.77037 -0.09013,-7.17292 -13.883587,-11.36655 -6.284758,-19.69429 3.207945,-7.31665 7.606882,-1.62969 8.723803,3.3358 1.418699,6.2649 13.272407,1.46674 9.970717,10.14688 7.29329,6.07448 0.10954,12.84519 -4.240611,17.99889 -1.589495,3.48482 -3.894582,13.371853 -5.368342,11.894683 4.951254,-4.15531 14.746733,-5.437523 15.046933,-13.141083 2.35008,-8.17148 13.33139,-4.18159 16.75083,-11.53409 3.88397,-4.25274 1.70614,-9.95084 2.58388,-14.29562 6.82819,-0.72349 2.47597,11.4811 9.05505,13.34166 3.64869,5.42417 -8.28658,12.09057 0.27329,16.4461 3.44419,4.39145 12.06365,-2.33288 15.69892,4.544603 4.27255,3.70454 17.43886,2.94794 10.94395,-4.718673 -7.72725,-2.15714 -12.6315,-10.05264 -9.78023,-17.80714 1.99503,-6.90661 9.69865,-8.99693 14.52705,-3.79792 -1.96006,6.60194 7.54683,10.36803 12.84098,9.54666 4.81543,-3.56106 12.88742,-2.44664 15.83107,-7.79311 -1.70164,-4.87893 -10.85005,-7.10698 -6.59415,-14.18236 4.39125,-6.91982 -1.92236,-11.47657 -4.79454,-16.80246 -2.47278,-3.74068 3.02958,-8.83138 2.08059,-10.76479 -8.69781,0.94773 -16.17835,6.42626 -21.90221,12.79921 -5.09162,4.90694 -7.53683,13.45264 -16.23621,13.17421 -1.30091,3.64095 -4.33709,14.61595 -9.81916,8.33554 -0.75043,-5.82264 5.2568,-10.23189 6.01415,-15.92605 5.26256,-4.56323 14.50483,-8.75754 11.1276,-17.31584 -7.25859,0.90549 -12.16858,-3.71243 -18.41311,-6.27569 -4.07675,-4.06399 -9.42814,-1.68887 -10.67463,2.74275 -5.44756,3.49776 -15.49432,6.80851 -15.00283,-3.16323 0.62802,-6.97913 -6.51134,-8.96377 -7.75365,-1.44758 -3.92381,5.9252 4.03125,11.68692 0.66934,17.09739 -3.31226,6.12887 4.84698,12.34433 3.98665,17.48513 -9.54926,-1.54475 -6.46781,-15.84638 -15.983665,-15.83648 -6.543993,-4.73768 -13.464117,-0.74033 -16.941403,5.49005 -2.037462,3.79991 -7.447589,8.09494 -7.840242,1.33437 -3.844113,-3.6761 -14.322659,-2.78932 -9.337084,-10.21768 -3.57844,-5.41448 -13.968692,-2.03759 -18.421789,1.84915 -0.926911,0.006 -1.956484,-0.23616 -2.675913,0.60293 z" />
  <path
     id="path224"
     style="fill:#393c29;fill-opacity:1;stroke:#393c29;stroke-width:0.264583px;stroke-linecap:butt;stroke-linejoin:miter;stroke-opacity:1"
     d="m 100.28794,141.74255 c -15.760145,-1.80277 -31.649284,0.48719 -47.339345,1.93898 -9.007885,3.98974 -24.455081,-2.06604 -29.660856,4.60605 9.188821,6.96313 21.501311,2.58493 31.993033,5.2624 21.194392,2.07112 42.45552,-1.36208 63.680688,-0.0342 13.93576,0.0282 27.94902,-2.75117 41.76973,0.061 15.5501,1.70238 30.70775,-3.02254 46.22658,-2.98636 9.6022,0.88812 3.66354,-8.40245 -2.8717,-5.83658 -14.11344,0.0896 -28.21098,-0.5608 -42.0413,-3.63847 -10.92107,-2.38805 -22.05107,-2.20889 -33.02011,-0.412 -9.57229,0.51611 -19.13235,1.58616 -28.73672,1.03915 z" />
  <path
     id="path230"
     style="fill:#25241f;fill-opacity:1;stroke:#25241f;stroke-width:0.264583px;stroke-linecap:butt;stroke-linejoin:miter;stroke-opacity:1"
     d="m 73.174103,88.392087 c 5.072983,1.97179 4.571504,8.46281 3.818527,12.840833 -0.731772,5.17795 3.165926,9.68885 2.077724,14.96515 -0.461254,5.53115 5.379818,5.77153 8.139026,8.69077 2.828075,0.61679 6.822977,-0.937 6.869307,3.54363 3.522295,2.80236 3.395457,7.28939 2.745932,11.34922 -1.784779,0.58973 -7.195904,7.49307 -2.266586,5.46729 3.165857,-0.41273 7.780327,1.64237 8.563347,-3.32114 1.36324,-4.88425 -1.268,-10.09469 2.22347,-14.39374 0.13233,-3.48395 3.88075,-10.19503 -2.19669,-9.53581 -4.855919,-1.81306 -9.272311,-4.87249 -13.974941,-7.04187 -4.29761,-5.54142 -4.66125,-12.941833 -5.214258,-19.662073 0.108691,-4.83613 1.095946,-11.89219 -5.873729,-11.50758 -2.528617,-2.90866 -4.18284,-6.82654 -5.319928,-10.55047 -2.251109,-4.17162 -3.217483,-8.94014 -2.118201,-13.61698 -1.946248,-4.34816 -0.7021,-8.91335 3.546908,-11.35632 5.356354,-0.75799 -3.301777,-1.48178 -3.604493,1.19749 -3.818959,1.39866 -4.486954,-6.50122 -9.434704,-4.42048 2.861416,-0.52385 5.547463,4.79713 0.328851,3.69574 -2.403118,0.65551 -4.689144,1.87758 -0.436842,1.17581 5.445644,-0.12647 6.98839,4.37321 6.429997,8.96075 0.23889,3.44526 2.108121,6.35724 0.345543,9.79636 1.525267,4.41384 3.242788,8.93389 5.694651,12.96631 0.659959,3.37279 -4.67501,-2.69795 -5.420428,-3.58413 -5.043195,-2.91056 -10.875114,-4.96117 -16.751957,-3.68391 -4.313846,-0.10823 -8.614184,0.15754 -12.916497,0.27971 -2.165137,-1.49503 4.042118,-4.86977 -0.92131,-5.43736 -4.055428,-1.13774 -5.853364,-5.10316 -5.476024,-8.64165 -5.321947,-1.66139 1.206913,3.18347 -1.867181,5.04029 1.856698,1.95087 8.472881,4.36698 6.201924,7.44609 -4.471327,1.7342 -5.308606,-4.65763 -9.137047,-3.88791 2.72354,2.57197 6.984672,4.87591 6.052307,8.92514 5.537841,-0.0703 11.259812,-1.55933 16.968284,-0.5358 4.439222,0.5025 9.893995,0.52032 10.772946,5.83732 3.117309,0.29548 7.13588,-2.50376 8.812313,1.95886 3.108189,2.9932 0.541877,4.93651 -2.887835,3.72675 -5.199587,0.9942 -10.964247,2.52662 -16.020911,-0.0322 -4.592351,-2.83522 -9.944051,1.52259 -14.499027,-1.29311 -4.450371,-2.28619 -9.301275,2.78029 -13.574188,-1.14566 -2.157247,-1.67002 -2.104527,-6.91125 -5.799015,-4.97082 4.34418,2.01628 1.722605,9.2296 7.640561,8.14746 4.663959,-0.74708 8.587454,3.4455 13.228785,0.62631 4.546549,0.11541 9.023977,1.57154 13.629565,1.37562 4.364484,0.25432 8.758349,0.30381 13.095997,0.59183 4.005421,-0.60445 5.226284,7.87376 6.484669,1.53733 0.202573,-1.5602 1.279847,-0.58831 2.041158,-1.52307 z" />
  <path
     id="path239"
     style="fill:#2e2b24;fill-opacity:1;stroke:#2e2b24;stroke-width:0.264583px;stroke-linecap:butt;stroke-linejoin:miter;stroke-opacity:1"
     d="m 36.003495,55.450107 c 3.282208,2.31222 2.628118,7.11061 5.52394,9.83831 1.848566,3.10921 6.61828,2.90898 7.001956,7.18856 0.211998,2.93249 1.210568,5.78484 1.220153,8.71129 -0.104959,4.12957 -1.39752,8.02288 -2.003073,12.02364 1.037142,4.55951 -4.041789,5.00852 -7.284474,5.02421 -4.098821,1.3268 -5.065198,-3.23857 -7.413376,-4.92618 -2.861894,-1.05207 -6.548002,-0.0723 -8.839314,-2.40705 -1.249114,-2.80313 -0.845447,-6.05642 -0.817542,-9.05644 0.357475,-1.95456 0.637791,-6.20309 -0.807275,-6.77003 -0.266329,1.704 0.113987,7.24092 -2.29448,3.75125 -1.925824,-1.37656 -3.75436,-2.66445 -4.647826,-4.90665 -2.752838,-2.04497 0.05702,2.12499 -0.5405,3.7113 1.829433,2.66317 1.129391,5.35546 -1.491241,6.97971 2.71499,1.09097 7.996473,1.35193 6.785815,5.69244 -0.06513,2.02482 -5.293893,2.12543 -4.709724,3.28322 2.964034,-1.41248 5.937911,-0.77388 8.139235,1.50849 2.809268,0.49148 6.256947,1.68493 5.982217,5.121273 2.316983,2.32302 4.720336,-2.482743 7.120422,0.49899 2.633389,0.64344 4.528805,2.97553 7.255184,3.23895 1.682467,-0.12178 4.354496,1.23517 1.380616,2.22474 -3.337638,0.94003 -6.754448,1.75473 -10.155895,2.42055 2.935355,-0.28102 0.155728,1.94125 0.50337,2.12974 3.646664,0.50263 7.465002,0.59385 10.986875,-0.58364 0.224655,-3.31902 4.077087,-5.30087 6.74002,-2.90085 3.781451,0.48136 6.71969,2.946 9.815233,4.8764 3.699014,1.31578 6.22229,-3.94561 10.20385,-2.30175 1.855245,0.41399 5.408627,4.09062 5.131181,-0.1357 -1.019608,-2.60123 -0.298454,-7.93723 -4.77495,-6.0711 -3.68276,1.98083 -7.969811,1.37219 -11.882362,0.54017 -3.323833,-0.95683 -6.990292,-1.33736 -9.91837,-3.27088 -3.607837,-3.290343 3.356418,-5.564613 2.667378,-9.203573 0.01861,-3.02142 0.706861,-6.04611 -1.094043,-8.85953 -0.756619,-3.41769 -2.28199,-6.66839 -2.722352,-10.13811 1.517005,-2.85942 5.900909,-2.98204 7.600063,-5.84616 2.291961,-1.99054 2.262318,-5.12129 3.834302,-7.53515 1.47379,-1.22765 2.79927,-7.34808 -0.446359,-3.84665 -1.507734,2.47377 -1.364854,5.61837 -3.925221,7.58226 -0.831902,3.20219 -3.760375,5.77444 -7.114444,5.31375 -0.709547,-2.89943 -3.176307,-5.17745 -3.34352,-8.26251 -0.09215,-3.75113 -6.128733,-5.4904 -3.321251,-9.63431 1.045434,-1.572 -0.756777,-4.49594 -0.878613,-1.1372 -3.282873,3.84175 0.626286,7.47904 2.769573,10.6404 0.789805,1.53302 1.653674,5.42528 0.619247,6.08301 -2.971667,-1.75558 -3.567644,-5.59593 -6.469556,-7.4151 -1.431526,-0.47915 -2.903584,-5.13838 -4.384869,-3.17409 z" />
  <path
     id="path248"
     style="fill:#2e2b24;fill-opacity:1;stroke:#2e2b24;stroke-width:0.264583px;stroke-linecap:butt;stroke-linejoin:miter;stroke-opacity:1"
     d="m 120.27823,88.880107 c -0.87627,3.7785 1.40642,7.27249 4.17457,8.79779 -0.003,4.313273 6.59961,-0.76055 7.21253,3.729943 4.14107,-2.047763 4.31181,5.10087 0.21857,4.38025 -3.66032,1.57578 -10.01218,-3.686 -10.7834,2.54015 1.84514,3.8848 -1.07792,6.87489 -1.31431,10.49158 2.30047,4.95868 -0.10584,10.26946 1.01924,15.21625 2.25901,3.18902 -1.24293,7.96876 3.70683,9.52781 2.82532,3.62885 7.59535,1.24156 11.28342,0.9778 1.87837,-0.039 7.31428,1.09783 3.25901,-1.45298 -3.77912,-1.25829 -7.49087,-2.6405 -10.72096,-5.03959 -4.52314,-2.46866 -2.42643,-7.70784 -1.42044,-11.50471 1.928,-3.10021 1.58859,-7.10394 2.95726,-10.06432 3.77493,1.47211 8.30093,0.35777 11.81671,-0.97467 1.66033,-1.93184 1.86983,-4.74154 5.12918,-4.68674 1.82786,-2.23799 3.96751,-4.83319 5.31921,-6.77224 3.3028,-0.55173 8.05891,3.45602 9.89372,-1.4749 1.82122,-0.008 6.65983,3.18634 3.27884,-0.41956 -1.20843,-3.171993 4.47338,-2.876443 2.92303,-5.955453 0.9432,-1.90482 -1.56879,-6.01072 2.49877,-4.25008 2.3851,-1.19433 -2.28176,-4.88817 2.07155,-4.81745 4.195,-0.0834 9.10661,2.7683 12.51513,-0.93812 -0.41949,-2.91038 1.86605,-2.44299 3.10525,-0.80477 3.25096,0.97488 6.18618,-7.31156 1.86504,-4.1232 -2.53295,-0.47132 -6.62359,-0.44733 -6.04313,3.11987 -2.45163,2.19499 -7.41468,2.4545 -4.21082,-1.55952 -2.699,-1.08603 2.97695,-1.75678 2.41531,-4.19504 1.76545,-1.96139 5.6032,0.63665 7.59715,-1.91372 -2.31539,-0.66635 -6.82564,-1.15721 -8.8737,-0.44493 1.31172,3.64502 -2.95828,2.97249 -4.80152,4.76088 0.11858,1.57005 1.74284,2.72609 0.27552,4.43425 -1.22255,1.93262 -6.51347,-0.45089 -2.62357,-2.06872 2.09603,-1.98227 1.38627,-7.67556 5.88662,-6.66079 2.17826,-3.23449 8.21563,3.22435 8.6204,-2.6345 -0.56191,-1.8474 -3.96305,-2.91015 -1.76117,-5.86092 1.51343,-2.48466 -2.10876,-4.90615 -1.75687,-0.99566 0.51888,2.47569 0.0478,3.98333 -2.00336,5.08118 1.74763,3.68258 -4.5764,3.51306 -6.84856,4.10598 -0.52826,-2.11846 3.48116,-4.03893 3.57687,-6.76985 2.41714,-2.72062 0.76361,-6.73633 1.88757,-9.93134 -2.60939,-3.54784 -0.0746,4.71198 -2.26969,5.97946 -2.62719,2.43508 -2.18566,6.39699 -3.76559,9.01674 -2.53526,2.29847 -6.2167,3.86005 -6.05304,7.63326 -4.58731,0.7863 -1.91138,-3.25328 -0.46438,-4.89455 -2.58375,-4.69651 5.93457,-4.87237 4.88687,-9.61061 -2.36813,-3.3048 -5.59763,1.39209 -5.87654,2.11437 -4.03398,-2.27372 -1.8988,-6.15717 -1.51327,-9.50366 -0.68562,-1.45069 -3.62348,-5.70586 -3.07082,-1.53932 -0.91536,3.63784 -0.92626,7.53512 -0.64803,11.19408 1.69744,0.5071 7.09459,-0.0832 4.72212,2.97051 -3.3734,2.06423 0.0123,6.02258 -2.97833,8.16088 -0.0532,1.96789 -2.33859,-3.9234 -4.34118,-1.74301 -3.45366,0.51379 -6.64034,-3.83332 -4.41776,-6.93188 -1.65873,-2.09843 -1.28203,-4.56062 -2.04552,-7.01788 -2.26484,1.89653 0.66651,6.46546 -2.07815,8.61742 1.49119,3.69522 4.1366,6.21827 7.26236,8.18149 1.30658,1.43162 6.02454,0.32761 4.13344,3.90771 -2.31472,1.8829 -6.17976,0.35974 -6.065,4.69697 2.33258,2.30412 5.31827,-0.88197 8.09209,-0.68161 1.62003,-0.14063 3.35442,0.10364 3.64489,-1.90062 -0.86934,3.32968 -5.72054,4.15545 -4.93856,8.42743 -2.13519,1.96667 -5.31719,4.366183 -8.71503,4.399493 -1.62127,-3.244473 4.78328,-3.610813 4.51211,-6.734243 0.94985,-2.47511 5.01247,-5.50769 1.27572,-8.14052 -3.77137,-1.72655 -6.4164,2.00771 -7.22168,4.07266 -1.05247,-3.86346 -8.91193,-2.10244 -6.45195,-7.01025 -3.16764,-1.67544 -1.74976,-4.5451 -1.96692,-7.13664 -1.72905,2.77778 -1.00455,6.16141 0.24614,8.59549 -2.8886,4.63209 5.21199,3.18789 6.13005,6.64668 0.3475,2.43565 -2.09375,3.67943 -2.33528,5.95097 -2.83824,2.33872 -6.0668,4.294743 -9.76486,5.115253 -2.4275,-2.844733 3.36604,-4.554503 3.62378,-7.742753 1.70406,-1.51201 0.98779,-4.07269 2.31272,-5.87481 -1.16183,-3.87105 -6.19578,-6.91814 -2.86086,-11.4749 0.42759,-3.01006 4.23761,-4.6507 3.67904,-8.11772 -1.47895,-1.81838 1.52654,-7.89482 -1.78941,-6.58698 0.26615,3.96237 -0.66632,7.98404 -3.12313,10.73653 0.8616,2.93915 -5.21556,5.08119 -1.12407,8.03809 1.9115,2.64366 -0.0319,6.1878 1.95596,8.96417 -1.45677,2.54159 -6.15049,3.75699 -4.10043,7.05875 -2.9568,4.514813 -7.46691,0.0326 -10.74816,-1.39538 -4.37858,-0.82841 -2.53132,-6.95593 -6.68975,-7.5877 l -0.40538,0.29684 z" />
  <path
     id="path253"
     style="fill:#554d4a;fill-opacity:1;stroke:#554d4a;stroke-width:0.264583px;stroke-linecap:butt;stroke-linejoin:miter;stroke-opacity:1"
     d="m 108.76718,109.37735 c -2.70701,-4.36693 3.57542,-8.82181 -1.36577,-12.753383 -4.17645,-2.1812 -9.041526,1.14137 -13.569975,0.64767 -5.316173,1.4966 -10.523039,-1.37066 -15.064098,-3.8065 -4.516309,-3.939 -3.489614,-11.76753 -9.602052,-14.11787 -3.416347,-3.89348 -5.079345,-10.6444 1.377814,-12.39065 4.330419,-2.89749 1.552928,-11.12678 -4.04378,-10.8011 -3.868021,-2.87765 -9.693189,-2.23289 -12.760205,-5.9097 -0.765802,-2.16918 -4.168243,-2.61932 -2.896949,-5.55457 1.081847,4.61064 6.294176,4.73393 9.739331,6.65387 4.631131,0.32079 9.690377,4.35756 13.198317,-0.54255 2.996235,-1.54671 1.638657,-6.04393 2.336646,-8.48392 -4.314263,-2.59378 0.541716,-10.98661 2.428698,-4.17636 4.591893,3.04739 -1.872753,7.32158 1.368256,11.01766 0.114514,3.963 -11.732908,6.13014 -4.10355,8.96727 3.159847,1.3552 6.144258,-2.4585 9.452651,-2.42695 1.936607,-2.36752 9.043504,-5.27865 9.152677,-5.34632 2.503354,6.43104 -8.346058,3.769 -8.938805,9.35887 -2.684207,2.27916 5.063707,2.41428 6.263551,0.79597 2.306677,-0.83123 6.565272,-5.05034 7.31953,0.11647 -2.074005,4.0692 -7.184004,7.11141 -11.796623,5.51926 -2.358979,-3.06349 -8.551596,-6.73817 -9.964309,-2.17484 -3.777296,0.94003 1.158735,7.65874 -4.689291,7.5023 -3.810452,2.42603 4.237228,4.52382 5.662404,1.70555 3.190605,2.20321 9.866084,0.71641 11.915607,1.35577 -4.993699,2.0206 -10.242671,0.16507 -15.197176,2.31295 -3.84038,2.55952 6.496938,3.60544 3.396847,8.03548 2.862632,3.35601 3.954397,6.78592 8.991886,7.07151 3.102034,2.39698 6.821312,0.29649 9.75238,2.39916 2.578335,-1.90212 9.345858,-0.4175 7.251608,-5.63275 -1.60456,-4.12885 4.46804,-5.41964 3.62552,-9.50159 2.30394,-4.81784 -2.62025,-7.44951 -5.52937,-3.66729 0.57566,-2.6412 5.65342,-7.53075 -0.5257,-6.04626 -2.275336,2.57592 -12.689068,0.72048 -5.648102,-1.41098 3.712182,-0.2612 6.984102,-5.12664 1.649536,-6.07642 -3.303601,-1.85472 -4.990844,-4.84022 -0.119757,-5.00448 2.533373,-5.75585 -5.003416,-3.51479 -8.076556,-5.03007 -3.175193,-0.004 -9.53213,-4.70339 -6.646853,-6.64531 2.667409,5.64162 8.158869,2.04909 12.552722,3.6346 2.840701,1.03983 -5.480911,-3.53393 -4.36488,-6.16208 2.116134,-1.96605 -4.288194,-7.73752 -1.324572,-6.02684 3.16606,3.21881 4.488878,7.42881 7.575966,10.168 3.696706,0.37191 -0.492767,-5.48361 -0.586307,-7.65795 -4.615468,-0.75919 -3.612036,-7.07633 -2.873412,-9.83268 3.211121,-1.94701 7.981165,-4.82836 6.576785,-9.23396 2.56705,2.6668 -0.36688,8.29861 -3.88952,9.56599 -2.31903,2.44995 0.184308,10.51876 2.769349,4.54458 5.388781,-0.99591 2.696931,-6.11602 5.313751,-9.22821 -2.04424,-2.53783 -0.25031,-6.42023 2.98953,-4.35108 -0.93419,3.45803 -0.56074,6.84831 -2.96742,10.01207 2.95046,4.01706 -6.077092,4.93467 -2.05578,8.02919 4.38766,0.1802 2.98142,3.60381 2.30308,6.14693 3.34747,-0.41742 7.16382,-1.64202 9.18776,2.23829 2.42726,1.96946 10.41545,-0.76028 9.3839,2.95075 -5.01559,0.0888 -11.54891,0.56123 -15.06986,-3.95043 -3.33553,0.15392 -3.7034,4.13791 -4.09228,5.71919 -5.254318,1.36861 4.39971,2.25795 5.23295,4.64104 0.70625,-5.10551 5.83555,4.70071 0.76733,4.74206 -1.5045,1.87418 0.71069,5.08503 -2.50428,5.95321 4.05441,1.73714 3.51327,7.2287 7.79149,7.65672 1.61598,4.14744 -1.91608,9.32195 -0.34719,13.66932 4.81177,4.66071 -3.90971,10.10913 1.15655,14.812133 1.08358,4.55887 1.39712,9.46154 -1.38807,12.96364 2.70673,5.06363 -3.88843,5.89519 -4.92242,9.84843 -2.11039,4.62542 -0.83589,9.59004 -1.39619,14.41883 1.20923,7.43357 -7.47141,1.61562 -10.904972,4.88938 -2.116616,-1.48977 5.003362,-5.36636 3.722922,-8.75153 -0.92104,-4.8708 -0.29004,-10.24299 4.2154,-12.92954 -0.0608,-2.90158 -3.50506,-6.32479 1.55414,-7.08811 2.01408,-2.18362 -0.0637,-5.22601 1.24919,-7.35184 z" />
  <path
     id="path262"
     style="fill:#554d4a;fill-opacity:1;stroke:#554d4a;stroke-width:0.264583px;stroke-linecap:butt;stroke-linejoin:miter;stroke-opacity:1"
     d="m 124.09883,119.00482 c 0.11579,-4.86116 -0.51596,-9.82153 0.39713,-14.61565 1.15151,-4.22744 5.85286,-5.342633 8.68662,-8.152653 3.55978,-2.80615 7.06126,-5.68712 10.04214,-9.1181 3.07982,-2.41554 5.13915,-7.05147 9.67317,-6.72268 3.81603,-0.61204 7.99756,2.18178 11.41542,-0.56241 3.53247,-3.75141 7.65357,1.32166 11.53083,-0.39595 2.1152,-2.27877 6.22621,1.46295 7.18356,-1.77715 -3.37362,-2.80972 -6.69482,0.79064 -10.32289,0.52663 -3.75218,-2.07207 -7.16314,-0.67896 -10.91099,0.51352 -2.96524,0.90296 -10.96793,0.64442 -7.9537,-3.87811 3.17775,-3.58001 7.52996,-1.36426 11.27169,-2.58996 3.62826,-2.59745 7.79271,-0.21779 11.6097,-1.17097 1.78165,-1.52499 7.96571,-1.61904 7.69718,-2.59475 -3.96863,0.56278 -7.94433,2.1567 -11.94946,0.81377 -3.61555,0.96908 -7.17672,1.05651 -10.90352,0.38053 -2.05298,0.3881 -6.17465,0.18963 -3.08582,-2.38811 1.08432,-3.92605 4.44679,-5.44306 8.19669,-5.42788 2.21631,-3.31952 7.29223,1.40407 9.72548,-1.99852 1.75687,-3.32814 5.22882,-4.15597 8.1732,-5.75677 -1.59129,-3.12476 -3.89964,2.08809 -6.46315,1.55407 -2.41657,3.91601 -6.84533,3.57548 -10.82161,4.43551 -3.05238,0.42844 -7.17918,1.0275 -8.77439,3.91776 0.74213,-3.51693 5.20931,-6.82213 9.00282,-8.11954 3.08735,-1.4752 2.72356,-6.10664 6.89395,-6.66443 3.94951,-1.3645 8.27832,-0.45249 12.27329,-1.74881 -3.28818,-0.30219 -7.3046,-0.57918 -10.64787,-0.19406 -2.66476,3.96307 -8.77741,2.71366 -10.73448,7.13548 -0.52955,4.0981 -5.72204,6.6072 -9.05212,7.05152 -1.20409,-3.61228 3.95482,-5.95717 2.09078,-9.83957 1.32108,-4.50305 3.46131,-9.21554 1.93451,-13.97581 -1.56826,-3.42897 3.35293,-6.9822 0.20584,-9.71892 0.20909,-1.93923 1.1157,-5.76536 -1.28343,-2.21259 -2.86197,3.44151 0.40888,8.36338 -2.40293,11.5635 -1.2464,3.03194 1.00426,7.08236 -2.83227,9.25755 -3.93911,2.3016 0.25818,7.17545 -3.88089,8.87567 -1.62862,2.24952 2.70796,3.99735 -0.48139,6.13017 0.18591,1.29642 3.54114,7.07428 0.0931,4.21191 -5.73141,-2.54589 -2.43702,-8.20794 -1.08977,-12.0265 -3.62348,-1.41091 -9.56577,4.61486 -10.34933,-2.13301 -0.31766,-0.88254 -3.35234,-5.25483 -3.10995,-4.12968 -0.21929,4.62467 6.1834,4.64526 6.32169,8.64312 -0.38304,2.7786 6.48343,1.73313 4.11349,6.32908 -0.84889,4.24823 7.17797,5.60021 4.34575,9.94399 -3.31971,2.57593 -5.96432,5.61062 -8.16787,9.05957 -3.96161,0.46084 -6.55554,3.34461 -8.56571,6.56436 -1.80535,2.44125 -5.98558,5.49796 -8.67818,4.61572 -0.0814,-2.31514 -3.25523,-6.75093 -4.13709,-2.39738 2.48744,4.14502 -1.78692,8.01502 -0.1506,12.360633 -0.89229,4.32834 2.672,7.37798 2.82281,11.60895 0.15383,1.64712 0.46563,3.26455 1.04854,4.81695 z" />
  <path
     id="path271"
     style="fill:#25241f;fill-opacity:1;stroke:#25241f;stroke-width:0.264583px;stroke-linecap:butt;stroke-linejoin:miter;stroke-opacity:1"
     d="m 114.78152,112.48298 c 0.74107,4.65795 -1.23845,8.89783 -5.26231,11.31838 -2.69222,4.85666 -2.5585,10.98175 -2.30122,16.46135 -0.49044,6.657 7.46718,8.67741 12.7527,7.38449 3.11685,-0.47571 7.30268,0.38187 6.58056,-4.4152 1.65448,-5.83717 -3.69545,-10.70088 -3.61324,-16.58217 -2.13996,-5.96442 -1.31754,-12.41416 -0.92836,-18.599 -0.73734,-6.85794 -1.41348,-13.863863 0.33384,-20.637953 -0.46856,-5.15029 0.97271,-9.96971 3.51654,-14.37939 1.06874,-3.06383 3.7385,-9.03313 2.82851,-10.92193 -1.3797,4.75051 -2.86063,9.11509 -4.10432,13.54761 -2.60823,-0.77629 0.91441,-7.82535 0.88875,-10.78301 2.2139,-3.87195 1.67459,-12.53607 8.41343,-10.74558 4.2055,2.90633 8.77887,2.32205 13.41507,0.95197 1.67261,-0.34245 9.08094,-3.97861 3.69559,-2.00366 -3.85356,2.3377 -8.76233,1.52401 -12.87803,0.65834 -2.59999,-0.92176 -8.04401,-1.02826 -4.14404,-4.71265 1.75379,-4.88806 8.21234,-5.87601 9.80131,-10.95325 0.0167,-2.89801 6.57761,-8.16822 2.16533,-8.67119 -0.74677,4.91162 -3.70795,10.49261 -7.71001,13.20268 -4.2629,0.51716 -4.83772,9.31148 -8.9925,7.87481 2.90991,-3.82682 4.36053,-8.69624 7.94246,-11.89298 1.63711,-4.63428 -4.73762,-9.05685 0.7985,-12.95342 1.77807,-3.54768 1.64906,-7.39686 5.33396,-9.36545 2.37763,-4.97694 -4.26566,1.83317 -5.47091,2.96919 -1.76153,1.5672 -1.34794,9.88095 -3.94901,7.94416 0.0454,-4.17444 -3.68166,-9.32061 1.68376,-11.79987 2.06809,-1.27312 3.7896,-4.9525 0.51111,-1.67348 -2.41664,1.80797 -4.33118,3.2025 -4.72572,6.14106 -3.49052,1.20525 -9.58929,-1.37471 -11.96031,0.60682 4.40921,-0.43699 6.44547,2.88726 10.38672,3.48247 2.0572,2.53485 0.14139,6.51223 3.57192,8.51198 0.85906,1.73633 0.44142,7.52016 -1.30656,2.87952 -0.77444,-4.24631 -9.36068,-3.68647 -5.27616,-8.88656 -0.0586,-2.31131 -5.26188,-4.69289 -1.74307,-1.19935 0.86458,3.17161 -0.94027,6.14747 -4.6807,4.19298 -1.55365,-0.95977 -6.69841,-4.72057 -4.6732,-0.13891 5.47286,0.0346 10.17528,3.2648 14.18763,6.78519 4.35628,1.1583 0.54001,11.08836 -1.36814,5.942 0.74233,-3.4139 -7.80024,-7.3102 -5.40363,-1.43303 0.85345,1.80801 2.84602,7.63791 -0.98764,4.64694 -1.08607,-4.04809 -0.75612,-8.36627 -2.51811,-12.33926 -2.20557,-4.77193 -1.46054,-10.19316 -2.38418,-15.25446 -1.11192,-1.6448 -7.18817,-5.99824 -3.39698,-1.95355 4.10096,3.89362 0.68351,8.83379 2.77435,12.98489 -0.31691,5.16539 1.03881,10.1363 2.05462,15.20546 0.6277,1.7954 4.31538,5.79713 0.1868,3.18644 -5.13182,-2.25409 -4.67368,-7.64394 -6.34372,-12.01203 -3.36074,-1.44132 3.00838,5.16251 0.26452,6.95712 -2.35486,6.01968 10.95162,5.76284 6.48763,11.6867 -2.92913,1.94916 0.3815,6.57425 -3.57352,8.38534 -2.37233,4.12942 -0.0523,9.23626 -1.60856,13.7231 0.79743,4.00883 -2.77672,7.46518 -0.65047,11.82841 1.51621,4.32178 1.99976,8.81033 0.37017,13.207053 -0.97108,3.95386 -0.24758,7.95756 1.00884,11.64088 z" />
  <path
     id="path276"
     style="fill:#2e2b24;fill-opacity:1;stroke:#2e2b24;stroke-width:0.264583px;stroke-linecap:butt;stroke-linejoin:miter;stroke-opacity:1"
     d="m 113.89416,76.923387 c 2.62292,-0.22737 2.45732,-3.05327 2.58264,-5.006 0.0781,-2.44046 1.2479,-4.68343 1.2043,-7.14144 0.1937,-2.60201 2.5549,-4.24846 4.66315,-5.35353 1.745,-1.39659 2.73074,-3.46027 3.37952,-5.55038 0.88306,-1.82568 1.92443,-3.66247 1.89248,-5.75872 0.0538,-2.29022 3.7517,-1.48592 3.89217,-3.99306 0.61864,-2.23994 3.34979,-1.48955 5.0787,-2.13505 1.83716,0.14244 3.31562,1.64655 5.27192,1.35481 1.48812,0.34668 1.64439,-0.9076 0.13032,-1.00056 -2.15037,-1.17742 -4.53129,-1.21165 -6.79737,-2.0897 -2.14464,0.21923 -3.3541,2.81116 -5.82157,2.34901 -2.52493,-0.11334 -3.3019,2.43709 -2.86849,4.50124 0.26353,2.16755 -0.72973,4.38166 -2.35866,5.78292 -0.83746,1.68772 0.72282,4.71821 -1.98992,5.19862 -1.6597,0.45901 -4.69519,1.70055 -4.819,-1.09959 -1.46667,-0.95049 -1.90319,-2.45269 -2.5797,-3.8521 -2.01789,-1.57045 -4.60599,-1.76181 -7.05662,-1.92637 -2.44183,-0.52405 -5.06482,-0.44878 -7.45524,-0.7836 1.64874,-1.08861 3.14432,0.0965 3.87383,1.56989 1.71121,1.23687 3.85362,-1.05496 5.38803,0.39972 1.29526,1.96724 4.609,1.0028 5.08558,3.78372 1.58565,1.50249 1.1139,4.95174 -1.4827,4.74965 -1.76548,-0.42701 -0.0848,-3.6069 -2.17613,-4.08582 -1.746,-0.25751 -3.549,-0.0473 -5.31822,-0.29718 -0.94126,0.031 -3.43345,-0.51792 -3.56967,-0.19617 2.20192,0.2353 5.32182,-0.42211 6.69432,1.70864 0.32528,1.73999 3.45467,2.21373 1.87553,4.30865 -0.72398,2.33386 1.58374,4.33222 1.20234,6.75869 0.32458,1.80426 -0.41696,3.42812 -2.10376,4.12648 -0.84102,1.49188 -0.10608,3.9198 1.63024,4.05821 0.85549,-0.0924 1.69859,-0.27621 2.55198,-0.38098 z" />
  <path
     id="path285"
     style="fill:#4e5a3d;fill-opacity:1;stroke:#4e5a3d;stroke-width:0.264583px;stroke-linecap:butt;stroke-linejoin:miter;stroke-opacity:1"
     d="m 198.14426,58.866307 c -0.72854,1.1414 -4.61323,-0.11936 -1.96794,1.60941 1.11941,2.62019 -3.48264,2.21583 -4.91513,1.27915 -0.77832,0.0561 -2.76131,0.46171 -3.56807,-0.29311 0.95453,-0.48127 2.63959,0.88678 0.70873,0.79394 -1.62372,-0.77285 -4.76834,0.72887 -4.90098,2.01728 0.85682,0.5792 3.84832,0.2816 3.71901,0.96153 -0.91367,0.60292 -3.32066,0.31103 -3.5752,0.86202 3.13039,0.95332 -0.782,2.26296 -1.32088,3.26955 0.3763,2.09142 -2.06996,3.53324 -3.44322,4.72751 1.3545,-0.16075 3.89107,-0.6274 3.83291,0.90851 0.87318,-0.77774 4.4899,-1.36364 3.52269,0.50879 0.84888,0.067 3.14742,0.24271 1.27754,1.23299 -0.86201,0.45904 -2.94557,1.1117 -0.87111,1.50456 0.71811,1.60744 -4.04656,2.42716 -1.30691,3.71027 1.3828,0.94261 -1.61092,3.16556 1.04403,2.22304 1.34478,0.0736 2.07892,0.59086 3.32177,-0.28387 0.0599,1.06394 1.89117,-0.66572 1.40124,1.0774 0.16846,0.92027 2.19456,-1.36837 1.75226,0.80898 0.2049,1.30223 1.82401,-1.19697 2.50429,0.46208 1.18271,1.0747 0.23653,3.12046 0.25923,4.1491 2.20053,-2.01066 -0.0144,2.30832 0.80005,2.9878 1.27511,0.24687 -0.12475,3.79867 1.14629,3.27207 0.82363,-1.52311 2.10253,-1.2803 2.70517,0.28268 1.46681,0.22795 2.54825,-3.94213 3.18999,-1.78691 0.93309,-0.51654 1.16553,-3.68426 2.15302,-1.3374 2.24236,1.26768 0.93332,-3.62468 2.58706,-3.7175 1.78366,1.07398 2.43989,-1.20635 2.05807,-2.03938 1.46062,0.4149 5.71542,0.28117 2.97274,-1.78073 -1.48679,-1.27182 2.27304,0.28458 2.98703,-0.17069 2.53652,-0.47281 -2.83906,-4.09438 0.63025,-3.45609 0.70861,-0.0272 2.5235,0.31767 0.92209,-0.59348 -1.05881,-2.04741 4.31568,-1.17188 2.00311,-3.12537 -1.02395,-1.0947 1.09076,-1.94925 -0.78935,-2.4713 -1.04308,-1.01879 0.44035,-3.31202 -0.26298,-3.75985 -2.37717,1.62927 -2.21883,-1.78469 -1.56321,-3.16898 0.15584,-0.91792 1.2979,-2.05055 -0.30187,-1.41022 -1.92244,-0.51755 0.0865,-4.54014 -0.52219,-4.33659 -0.67239,1.26235 -2.00553,1.21711 -1.44027,-0.39122 -0.14413,-1.21713 1.06531,-2.60888 -0.42805,-2.65965 0.17813,-2.09864 -2.52836,-0.72988 -2.11971,-2.78541 -0.5457,-1.51041 -2.74466,0.89972 -3.60252,-0.97607 -0.50233,-1.41984 -1.98133,-0.79778 -2.34537,-1.16317 -1.08127,-1.98375 -1.57844,-4.572 -3.5674,-5.82336 -2.11173,-1.61411 -0.99767,2.63589 -0.88035,3.77502 0.80965,1.93785 -3.04434,0.45646 -2.1525,2.73914 0.0762,1.30841 -1.95748,-0.50189 -1.13559,1.40062 0.55387,0.62169 -1.00805,-0.13683 -0.51777,0.96691 z" />
  <path
     id="path290"
     style="fill:#6b725c;fill-opacity:1;stroke:#6b725c;stroke-width:0.264583px;stroke-linecap:butt;stroke-linejoin:miter;stroke-opacity:1"
     d="m 163.41389,66.497317 c -1.1131,0.005 -2.43941,3.56026 -0.50399,1.61272 1.47988,-1.12261 1.12058,3.44437 2.34665,1.90766 0.42037,-1.11055 1.89723,-2.60263 2.05086,-0.49412 -0.0845,2.35299 1.53246,0.90796 2.11601,-0.14811 0.52182,1.65426 2.12132,1.7112 2.59521,-0.0762 0.41565,-0.9107 0.98216,-2.51393 1.15254,-0.57725 -0.0468,2.19856 2.16328,2.83427 3.39429,3.72838 1.05986,-1.71523 1.51374,-4.07842 0.69807,-5.9817 -0.1524,-1.23232 -1.03751,-2.81875 -0.88596,-1.71687 0.19214,-0.94672 0.26531,-2.14767 0.27623,-2.96955 0.16124,1.11051 0.4653,3.15611 2.01082,2.55125 0.0685,1.72664 0.93685,2.64247 2.26412,3.44083 0.77178,1.63497 2.41358,1.64195 2.04181,0.42351 0.16512,2.11805 0.8262,-1.5583 0.93714,-2.16866 0.76119,-1.94721 -0.0593,-4.18233 0.55128,-6.03246 -0.0542,1.2782 1.54157,3.16655 2.46994,1.59827 0.85743,1.33828 2.54267,1.7706 2.81258,0.0589 0.22158,0.7692 1.17958,2.98292 1.22264,0.89221 0.11044,-1.14628 0.33663,-1.65133 0.37669,-0.1542 0.37015,-1.53668 -0.21466,-3.80663 -0.7896,-5.41405 0.54711,-0.60856 1.7852,-0.62579 2.4466,-0.5064 0.3888,-0.50687 2.85813,-1.28053 2.37547,-1.35173 -1.06443,-1.34121 0.64277,-2.08026 1.7587,-1.55944 -0.36748,-1.89896 1.97542,-1.67342 1.807,-3.26559 0.54712,-0.73461 0.76517,-1.03963 -0.21172,-0.96964 -1.02459,-1.18253 1.83243,-3.49804 -0.66028,-3.29787 0.21535,2.14144 -1.1648,-1.12762 -1.96825,0.46975 -0.76745,0.85391 -0.86958,2.54601 -1.36976,0.67579 -0.58165,0.075 -0.86661,2.10851 -1.49319,0.53411 -0.36132,-1.57307 -1.71324,-0.48974 -2.28576,-0.3041 -0.0867,-1.31724 -0.35498,-4.51359 -2.08878,-2.24891 -1.13844,1.62865 -3.17114,2.11503 -4.84675,2.95493 0.66472,-1.36623 1.83972,-2.9265 3.06951,-3.84611 -0.79688,1.82757 -1.9167,0.12328 -1.75839,-1.17055 -0.1687,-1.59479 -2.54554,-1.63726 -1.91883,-3.55326 -1.25285,0.23389 -3.11418,0.29603 -2.78676,-1.51747 -0.56489,-0.97688 -1.9727,1.14954 -2.72681,0.9048 -0.61011,1.0079 -0.14175,2.99854 -1.92404,1.72095 -2.73368,-0.53685 1.57272,4.28186 -0.85871,3.1986 -2.40844,-0.72356 0.0444,1.78423 0.69569,2.50977 0.34922,1.56546 -2.8898,0.0244 -3.59603,1.29311 -1.27299,0.65202 0.73799,2.26739 0.46084,1.66151 -1.44587,-0.3052 -2.83767,-0.92349 -4.33887,-0.92714 0.78245,0.12275 3.02181,0.49195 0.97026,0.89463 -0.41002,0.2368 -3.26807,0.38879 -2.42092,0.52256 1.10077,-0.22474 3.38558,0.94444 1.2199,1.26546 -0.84451,0.31355 -1.93781,-0.25459 -0.47488,-0.0845 1.05271,0.62057 -1.94482,0.61422 -2.47397,0.89937 -1.02104,0.0575 -2.23821,0.0131 -0.51066,0.54283 0.99626,0.39423 -1.9698,0.18738 0.006,1.00047 1.41058,0.15214 2.1994,1.55014 0.34612,1.79136 -0.86255,0.37506 -3.60994,0.38631 -3.20809,0.48577 1.67141,0.009 1.96572,1.76712 0.23533,2.04985 -1.70178,0.75194 -3.48753,0.14343 -4.64613,1.92043 -1.56275,0.54776 -0.22042,0.54639 0.49878,0.66238 -1.07075,1.65416 2.05794,0.7585 3.18742,0.86567 1.52459,-0.14492 3.83809,-0.95279 4.72041,-0.32142 0.272,-0.7017 2.30884,-2.11076 1.5527,-0.5281 -1.24434,0.98289 -3.57605,1.44762 -3.35692,2.86233 -0.92995,1.06765 -2.34832,1.92715 -3.43915,0.73837 -0.5777,0.49366 -2.72425,1.65187 -0.69082,1.6662 1.40979,0.51393 3.62927,-0.41022 4.64519,0.37967 -0.35926,0.16745 -0.71964,0.33269 -1.0786,0.50092 z" />
  <path
     id="path295"
     style="fill:#4e5a3d;fill-opacity:1;stroke:#4e5a3d;stroke-width:0.264583px;stroke-linecap:butt;stroke-linejoin:miter;stroke-opacity:1"
     d="m 140.9094,58.511387 c -0.94562,-0.8111 0.37851,-2.8771 0.94533,-2.67819 -0.0798,0.58653 -0.93186,2.86763 0.10188,1.23228 0.9552,-0.95562 1.92731,-3.75274 3.4509,-3.00719 0.81993,1.10922 -0.40711,3.09057 0.10187,3.79743 1.9831,-1.44636 1.10729,2.73084 2.32954,2.50365 0.68854,-0.6057 1.87646,-2.80114 2.21219,-0.7271 0.23841,1.3351 0.48442,2.54591 2.03888,2.56246 1.72549,0.48128 2.21454,2.02092 0.80133,2.30399 1.19455,1.16927 2.96955,0.86333 4.41332,1.26589 -1.16171,0.28401 -2.6968,1.44416 -0.87125,2.16357 1.52189,0.25009 1.76488,1.37215 0.16829,1.77477 -0.86728,0.68419 -4.55367,-0.48202 -2.9946,1.29741 1.08787,0.67071 1.21851,1.88409 -0.3694,1.6198 -1.49744,0.0781 0.28405,2.62224 -1.7723,2.19323 -0.65221,0.31893 -3.19446,-0.37297 -2.77829,-0.0826 0.61249,0.92847 3.45822,1.67249 3.24032,1.51933 -1.48302,0.10801 -3.51776,-0.5186 -4.69163,0.3778 0.92616,1.11816 3.02701,2.69149 2.17988,4.25575 -0.12748,2.06366 -1.0746,-0.13463 -1.93678,-0.23363 0.42805,0.53392 1.83982,2.25842 1.70917,2.06541 -1.65101,-0.91691 -3.35908,-1.78433 -5.03867,-2.60233 0.19643,-0.74007 1.27053,-2.49524 -0.25922,-1.25707 -0.49145,1.65156 -1.57746,-1.32888 -1.6111,0.47553 -0.019,0.93732 -0.089,2.35923 -1.33346,1.77267 -1.03913,1.35196 -1.6136,3.79337 0.73836,4.09285 0.61379,0.69709 -0.70215,1.78992 0.54966,2.43083 0.43011,0.87527 1.75077,1.44059 2.15847,2.00971 -0.87776,-0.19066 -2.96568,-0.92602 -3.31925,-0.58809 1.67402,0.68907 -1.54744,0.50924 -2.04945,0.49116 -0.98975,-0.28704 -2.5584,-0.74054 -1.84251,0.9076 1.43848,2.14677 -1.8411,1.71675 -2.46531,0.42035 -0.79883,-1.44095 -1.5364,-3.21158 -1.50544,-4.82741 1.20155,-1.93711 3.71039,-2.08656 5.50271,-3.19622 0.32069,-0.6398 -2.52293,-0.15798 -1.25016,-0.76502 -1.15172,0.027 -2.18018,-0.68911 -2.16559,-1.67978 -0.9779,-0.70456 -2.07178,0.93862 -3.20483,0.97155 -0.85622,0.3761 -0.85252,2.53967 -1.89853,1.26686 -1.19044,0.71486 -3.43083,2.09424 -3.13067,-0.53343 -0.66258,-2.00332 2.66456,-0.53765 1.78337,-2.50393 -0.79922,-1.27011 1.92464,-0.60162 2.6091,-1.27762 1.70482,-0.42198 3.39379,0.19219 5.08199,-0.55913 0.83318,-0.10384 -1.69862,-0.8449 0.12935,-0.92802 0.79479,-0.4955 1.48195,-3.66648 -0.48753,-2.88767 -1.35363,-0.12105 -2.62899,-0.904 -4.1622,-0.31671 -1.03133,0.105 -2.55923,0.87047 -2.49665,-0.79941 -1.49796,0.97813 -3.14525,-2.16512 -1.23766,-2.66113 1.74235,-0.11805 3.55247,1.97289 5.16971,0.36038 1.84349,0.36722 3.80406,-0.17742 4.1166,-2.21849 0.80833,0.65068 3.09667,0.36621 1.45461,-0.68372 -1.34632,-0.42869 -1.39894,-2.97885 -3.1622,-1.809 -1.46602,-0.11302 -2.72004,-1.34892 -4.33251,-1.20484 -1.47143,-0.32775 -3.29135,0.30329 -4.5061,-0.72917 -0.66149,-1.16609 1.10679,-1.90573 -0.63946,-2.50532 -1.41489,-0.65648 -0.43094,-2.48045 0.84634,-1.73937 -0.72936,-0.77628 -1.49886,-2.64063 0.3414,-1.79022 0.63477,-0.15677 2.94868,1.76016 2.21706,0.6241 1.27739,0.69115 2.56075,1.63865 4.09499,1.49303 2.50884,1.3766 -0.82851,-2.31662 0.17854,-2.18722 0.92167,0.17113 3.14395,2.11081 1.66963,0.15435 -0.6038,-0.73409 -0.95999,-2.12591 0.53055,-1.52545 1.41504,-0.47842 2.6137,0.16206 2.22858,1.78685 -0.0412,1.27188 3.72205,2.71012 2.41883,0.31385 z" />
  <path
     style="fill:#6c6f54;fill-opacity:1;stroke:#6c6f54;stroke-width:0.264583px;stroke-linecap:butt;stroke-linejoin:miter;stroke-opacity:1"
     d="m 144.80394,46.022267 c 0.31174,0.12583 0.47566,0.43888 0.62411,0.71982 0.14497,0.27435 0.31434,0.54644 0.58423,0.72163 0.23791,0.15443 0.55171,0.23445 0.82145,0.10991 0.28273,-0.13054 0.44135,-0.4145 0.60882,-0.66279 0.081,-0.12003 0.17746,0.088 0.22019,0.15522 0.29898,0.47004 0.52726,0.99785 0.92741,1.39254 0.12313,0.12145 0.29639,0.27776 0.47569,0.21011 0.17291,-0.0652 0.2915,-0.22441 0.38017,-0.37928 0.21366,-0.37317 0.31651,-0.79411 0.39588,-1.21064 0.0242,-0.1269 0.15061,-0.21042 0.27965,-0.16664 0.1933,0.0656 0.34901,0.20227 0.54027,0.27741 0.73365,0.28825 1.48089,0.59245 2.27633,0.64667 0.5502,0.0375 1.11565,-0.41697 1.62678,-0.21677 0.10248,0.0401 0.17547,0.13521 0.25062,0.21348 0.42643,0.44417 0.81334,0.92651 1.26306,1.34805 0.161,0.15091 0.39063,0.21707 0.60714,0.21174 0.33014,-0.008 0.59136,-0.23356 0.84149,-0.42232 0.14711,-0.11102 0.3385,-0.23406 0.52672,-0.1586 0.2388,0.0957 0.38805,0.32473 0.51421,0.53611 0.15471,0.2592 0.29939,0.5739 0.20864,0.87859 -0.0918,0.30805 -0.37831,0.49464 -0.64817,0.63387 -0.56319,0.29056 -1.19515,0.45315 -1.70624,0.84029 -0.26027,0.19715 -0.46012,0.49311 -0.47708,0.8273 -0.0231,0.4553 0.17036,0.88311 0.34693,1.29138 0.18035,0.417 0.37045,0.84332 0.38875,1.30892 0.005,0.13762 -0.0584,0.27145 -0.17633,0.34913 -0.15995,0.10539 -0.45831,0.56365 -0.43616,0.37196 0.0199,-0.17236 0.25931,-0.12706 0.38869,-0.11883 0.50385,0.032 0.93482,0.32126 1.35357,0.57701 0.2605,0.1591 0.54287,0.35448 0.86117,0.32205 0.29438,-0.03 0.51183,-0.25731 0.69479,-0.47032 0.12373,-0.14405 0.157,-0.42022 0.3438,-0.45316 0.099,-0.0175 0.19924,0.0885 0.28287,0.14599 0.88528,0.60812 1.73822,1.28299 2.7165,1.73475 0.30484,0.14077 0.62471,0.28177 0.96679,0.29147 0.17281,0.005 0.36918,-0.0917 0.39874,-0.26965 0.0183,-0.11029 0.0409,-0.22048 0.18723,-0.23419 0.32545,-0.0305 0.65084,0.0318 0.97161,0.0798 0.25442,0.0381 0.65506,0.36189 0.76119,0.12766 0.0556,-0.12278 0.0499,-0.27532 0.0264,-0.4091 -0.0824,-0.46962 -0.37466,-0.86395 -0.5555,-1.29654 -0.24275,-0.58068 -0.43388,-1.18682 -0.7422,-1.7367 -0.0552,-0.0984 -0.1175,-0.22532 -0.25661,-0.20989 -0.17626,0.0195 -0.34366,0.1459 -0.5245,0.0852 -0.22852,-0.0767 -0.44169,-0.19558 -0.64636,-0.32131 -0.44621,-0.27411 -0.89237,-0.58639 -1.18711,-1.02572 -0.0734,-0.10944 -0.30693,-0.37071 -0.17569,-0.35404 0.0856,0.0109 0.17274,0.0631 0.18666,-0.0904 0.0334,-0.36812 -0.03,-0.73492 -0.0776,-1.09856 -0.0704,-0.53828 -0.37706,-1.10467 -0.18199,-1.61988 0.052,-0.13721 0.24203,-0.0866 0.35344,-0.071 0.42719,0.0599 0.87207,0.17893 1.29533,0.0593 0.16408,-0.0464 0.21579,-0.23365 0.20741,-0.38563 -0.0213,-0.38564 -0.18012,-0.74554 -0.31277,-1.10321 -0.0728,-0.19643 -0.39787,-0.49456 -0.21167,-0.59276 0.0846,-0.0446 0.2349,-0.0336 0.34589,-0.0473 0.48284,-0.0594 0.98455,-0.1479 1.39538,-0.42122 0.40449,-0.2691 0.65363,-0.71275 0.78868,-1.17144 0.14193,-0.48207 0.14116,-1.00477 0.34028,-1.46655 0.0549,-0.12734 0.21548,-0.10968 0.32657,-0.0811 0.28451,0.0731 0.54042,0.23992 0.83657,0.27355 0.13747,0.0156 0.26945,-0.0628 0.33197,-0.18365 0.0616,-0.11919 0.18813,-0.20333 0.32562,-0.18207 0.23028,0.0356 0.44694,0.12881 0.67039,0.19241 0.28049,0.0798 0.56681,0.17211 0.86221,0.15783 0.16238,-0.008 0.27085,-0.14783 0.35201,-0.27122 0.2485,-0.37783 0.29303,-0.8594 0.21104,-1.29677 -0.0381,-0.20325 -0.16935,-0.36898 -0.24863,-0.55965 -0.0353,-0.0849 -0.22235,-0.323 -0.097,-0.30448 0.24874,0.0368 0.44108,0.21936 0.62427,0.37627 0.22887,0.19604 0.46953,0.3883 0.76402,0.48353 0.60629,0.19605 1.26043,0.14429 1.87355,0.29806 0.23521,0.059 0.40208,0.25003 0.57885,0.40248 0.1795,0.1548 0.39731,0.26797 0.64054,0.28963 0.92651,0.0825 1.86612,0.14499 2.78923,0.009 0.44459,-0.0653 0.91203,-0.15077 1.27993,-0.42241 0.14268,-0.10535 0.30776,-0.23549 0.32903,-0.41461 0.0215,-0.18149 -0.13245,-0.32083 -0.25714,-0.42752 -0.24898,-0.21304 -0.50148,-0.42216 -0.76949,-0.61158 -0.80939,-0.57207 -1.72231,-1.01125 -2.43046,-1.7155 -0.0981,-0.0975 -0.28358,-0.20468 -0.23879,-0.34159 0.041,-0.1254 0.29793,0.16732 0.20709,0.0131 -0.20936,-0.35552 -0.47406,-0.67334 -0.67513,-1.0355 -0.22355,-0.40265 -0.37969,-0.83833 -0.49332,-1.28505 -0.0382,-0.15002 -0.18894,-0.31509 -0.11194,-0.45309 0.0569,-0.10195 0.20298,-0.014 0.28697,0.0166 0.58726,0.21351 1.11488,0.59088 1.73142,0.71564 0.13209,0.0267 0.34968,0.14092 0.40564,0.0165 0.0563,-0.12525 0.0321,-0.27207 0.0273,-0.40587 -0.01,-0.27165 -0.068,-0.54463 -0.0354,-0.81491 0.0142,-0.11757 0.18406,-0.0874 0.27148,-0.0847 0.48126,0.0149 0.92903,0.2123 1.38807,0.33561 0.33084,0.0889 0.6873,0.13487 1.02128,0.0263 0.34446,-0.11202 0.68216,-0.26976 1.05245,-0.27642 0.6096,-0.011 1.22377,0.16678 1.82816,0.0377 0.18195,-0.0389 0.3625,-0.11094 0.48922,-0.25895 0.14409,-0.16829 0.22466,-0.41019 0.43135,-0.50826 0.1855,-0.088 0.38322,0.0274 0.53747,0.12895 0.30933,0.20373 0.58447,0.45456 0.91489,0.6319 0.12314,0.0661 0.28034,0.054 0.3321,-0.10836 0.0708,-0.22212 0.0602,-0.46418 0.1514,-0.68069 0.0586,-0.13909 0.22087,-0.0664 0.32638,-0.0411 0.22798,0.0547 0.45179,0.15956 0.68836,0.15238 0.12816,-0.004 0.11755,-0.17329 0.10691,-0.2624 -0.0431,-0.36112 -0.20385,-0.69356 -0.34674,-1.02381 -0.16022,-0.3703 -0.37011,-0.72683 -0.45172,-1.12395 -0.0232,-0.11285 -0.0496,-0.27243 0.0708,-0.34075 0.29442,-0.16707 0.64519,-0.0987 0.96703,-0.13515 0.39799,-0.0451 0.79977,-0.0425 1.19825,-0.0846 0.44319,-0.0468 0.89635,-0.10222 1.3064,-0.28675 0.20897,-0.094 0.43454,-0.26283 0.44122,-0.51226 0.007,-0.27583 -0.177,-0.50381 -0.35025,-0.69796 -0.44393,-0.49747 -0.96217,-0.92478 -1.50681,-1.30619 -0.41612,-0.29141 -0.83663,-0.59265 -1.3134,-0.77402 -0.10202,-0.0388 -0.31468,-0.13495 -0.33072,0.0433 -0.0168,0.18704 0.10398,0.39585 5.8e-4,0.56327 -0.0704,0.11399 -0.22549,0.0812 -0.33414,0.0547 -0.48028,-0.11712 -0.95956,-0.2883 -1.46034,-0.2728 -0.18185,0.006 -0.36321,0.0726 -0.48755,0.21351 -0.24608,0.27888 -0.29505,0.66184 -0.36656,1.01212 -0.0613,0.3002 -0.17285,0.59883 -0.3938,0.82476 -0.30579,0.31268 -0.70564,0.50745 -1.11285,0.65643 -0.25398,0.0929 -0.52525,0.14442 -0.76581,0.26834 -0.42096,0.21685 -0.67619,0.66056 -1.11338,0.85167 -0.34259,0.14976 -0.72782,0.0567 -1.06053,-0.0771 -0.45794,-0.18418 -0.88479,-0.48598 -1.38703,-0.52778 -0.42439,-0.0353 -0.82778,0.17761 -1.13811,0.45401 -0.24673,0.21975 -0.4283,0.49955 -0.66346,0.73023 -0.095,0.0932 -0.24827,0.14415 -0.3686,0.0657 -0.21222,-0.13836 -0.34083,-0.36768 -0.4602,-0.58355 -0.1796,-0.32479 -0.59501,-0.65072 -0.48056,-1.0035 0.0386,-0.11895 0.13609,-0.21205 0.21719,-0.30551 0.54524,-0.62833 1.12139,-1.22921 1.65218,-1.87071 0.22985,-0.27779 0.34356,-0.62944 0.41642,-0.97679 0.18582,-0.88588 0.0616,-1.81167 0.30271,-2.68793 0.0434,-0.15777 0.0103,-0.48386 0.17219,-0.45907 0.10145,0.0155 0.19203,0.0983 0.28342,0.15137 0.28208,0.16396 0.60544,0.23526 0.9305,0.25862 0.42717,0.0307 0.8654,-0.008 1.26324,-0.17533 0.34886,-0.14668 0.69232,-0.31468 1.00007,-0.53705 0.23867,-0.17245 0.41219,-0.42966 0.47517,-0.71853 0.0921,-0.42249 0.10771,-0.8562 0.13932,-1.28613 0.0194,-0.26322 -0.0811,-0.53112 -0.0159,-0.78933 0.0392,-0.1551 0.20738,-0.0509 0.30278,-0.021 0.51796,0.16221 1.0433,0.34597 1.58821,0.36219 0.17666,0.005 0.39263,0.0338 0.52741,-0.0972 0.11852,-0.11519 0.0453,-0.29427 -0.0221,-0.41586 -0.25989,-0.46895 -0.74903,-0.7563 -1.24559,-0.91775 -0.55414,-0.18017 -1.13635,-0.32917 -1.71554,-0.29549 -0.16594,0.01 -0.32665,0.18228 -0.47969,0.11315 -0.13207,-0.0597 -0.12369,-0.2504 -0.14112,-0.37548 -0.12439,-0.89252 0.26687,-1.77651 0.13055,-2.66429 -0.0328,-0.21335 -0.0619,-0.44712 -0.20356,-0.61819 -0.11257,-0.13595 -0.30305,-0.11876 -0.45917,-0.10322 -0.13768,0.0137 -0.26953,-0.0386 -0.37591,-0.1304 -0.60602,-0.52311 -0.83097,-1.46613 -1.56385,-1.79661 -0.0822,-0.0371 -0.25441,-0.23217 -0.27681,-0.12713 -0.0372,0.17428 -0.0143,0.35504 -0.009,0.53194 0.0108,0.39228 -0.0265,0.78457 -0.10964,1.16923 -0.10018,0.46362 -0.15428,0.9508 -0.3888,1.37227 -0.13745,0.24702 -0.39214,0.42098 -0.67599,0.4531 -0.30403,0.0344 -0.60138,-0.0532 -0.90145,-0.0881 -0.14682,-0.0171 -0.33668,-0.0266 -0.42336,0.11578 -0.10894,0.17893 -0.0628,0.4024 -0.0203,0.59411 0.0843,0.38024 0.17901,0.7608 0.34157,1.11428 0.0543,0.11814 -0.0374,0.21481 -0.16522,0.14584 -0.25108,-0.13546 -0.4458,-0.35247 -0.62725,-0.5675 -0.50601,-0.59965 -0.95569,-1.25378 -1.28682,-1.96515 -0.17019,-0.36562 -0.34947,-0.74784 -0.35987,-1.15647 -0.004,-0.14769 -0.0153,-0.37936 0.13451,-0.41893 0.11326,-0.0299 0.20265,0.0848 0.28103,0.15096 0.094,0.0793 0.17459,0.304 0.28186,0.24056 0.0956,-0.0565 0.1229,-0.18761 0.13374,-0.29162 0.0424,-0.40658 -0.0281,-0.81464 -0.1079,-1.2122 -0.0865,-0.43101 -0.11046,-0.89163 -0.31556,-1.2803 -0.10494,-0.19887 -0.2877,-0.34202 -0.46276,-0.47588 -0.64372,-0.49224 -1.34381,-0.90417 -2.03978,-1.31686 -0.67419,-0.39977 -1.35943,-0.78037 -2.03687,-1.17455 -0.20314,-0.1182 -0.38769,-0.39213 -0.61799,-0.34154 -0.083,0.0182 0.0696,0.14363 0.10318,0.18249 0.10642,0.12306 0.31958,0.22102 0.30258,0.38532 -0.0132,0.12793 -0.19522,0.042 -0.27607,0.018 -0.31107,-0.0926 -0.62575,-0.17535 -0.93095,-0.28561 -0.39927,-0.14425 -0.79728,-0.36283 -1.2268,-0.35111 -0.12092,0.003 -0.39539,-0.0116 -0.36502,0.13073 0.0282,0.13233 0.14607,0.22059 0.24011,0.30825 0.2433,0.2268 0.5212,0.42661 0.70542,0.7094 0.0674,0.10343 0.0816,0.2582 -0.0215,0.34388 -0.19167,0.15931 -0.45094,0.1868 -0.68808,0.22242 -0.7702,0.1157 -1.54865,0.18666 -2.32785,0.18768 -0.3915,5.1e-4 -0.78099,-0.0424 -1.16889,-0.091 -0.15966,-0.02 0.002,0.16053 0.0382,0.22366 0.57679,1.01631 1.20907,2.02291 2.06262,2.83104 0.21949,0.20781 0.42372,0.45463 0.7018,0.57356 0.39497,0.16892 0.82494,0.27302 1.18111,0.52034 0.10719,0.0744 0.23626,0.18598 0.20092,0.33746 -0.055,0.23583 -0.26778,0.39708 -0.49459,0.4542 -0.42623,0.10734 -0.86878,0.052 -1.30262,0.0447 -0.32568,-0.006 -0.68274,-0.0545 -0.97262,0.10977 -0.0948,0.0537 -0.28027,0.15048 -0.19006,0.28007 0.14978,0.21517 0.3618,0.37687 0.56445,0.53906 0.73227,0.58607 1.53894,1.0839 2.21366,1.73715 0.15838,0.15334 0.34126,0.30222 0.42216,0.51189 0.0579,0.15003 -0.0253,0.31978 -0.16725,0.38921 -0.27463,0.13432 -0.5902,0.14018 -0.88893,0.13018 -0.82475,-0.0276 -1.64015,-0.17813 -2.44332,-0.35804 -0.47656,-0.10675 -0.95926,-0.1972 -1.42205,-0.35315 -0.14422,-0.0486 -0.30356,-0.23916 -0.43128,-0.15313 -0.0923,0.0622 0.0312,0.22053 0.0769,0.29797 0.26092,0.4419 0.63118,0.80414 0.98621,1.16962 0.38559,0.39693 0.84147,0.74772 1.11515,1.23142 0.0626,0.11064 0.29136,0.33049 0.17087,0.35744 -0.13509,0.0302 -0.27647,-0.006 -0.40939,-0.0337 -0.52779,-0.10817 -1.0513,-0.23946 -1.56667,-0.39638 -0.85105,-0.25912 -1.69602,-0.58224 -2.59167,-0.6481 -0.48686,-0.0358 -0.96929,0.061 -1.4507,0.11745 -0.36908,0.0433 -0.73725,0.0939 -1.1106,0.10112 -0.12267,0.002 -0.46991,-0.0596 -0.36855,0.0102 0.0652,0.0449 0.17774,0.0933 0.24626,0.16836 0.13504,0.14787 0.26585,0.35934 0.19951,0.56162 -0.0571,0.17401 -0.25911,0.22764 -0.42056,0.25064 -0.41847,0.0596 -0.85361,-0.10382 -1.25945,0.0204 -0.0685,0.021 -0.26807,0.0878 -0.21264,0.129 0.47802,0.35524 0.99258,0.68708 1.3601,1.15984 0.0993,0.12776 0.24395,0.27359 0.21007,0.44192 -0.0273,0.13566 -0.15696,0.21725 -0.26525,0.2852 -0.43653,0.27391 -0.91954,0.46174 -1.3974,0.64954 -0.39801,0.15642 -0.91517,0.13007 -1.20246,0.44672 -0.072,0.0794 0.0561,0.21931 0.10126,0.30576 0.0965,0.18479 0.34267,0.35448 0.28766,0.55633 -0.0361,0.13258 -0.15881,0.22841 -0.26119,0.31355 -0.27892,0.23194 -0.56647,0.46408 -0.89394,0.61863 -0.0954,0.045 -0.40152,0.10529 -0.29796,0.10548 0.37706,7e-4 0.73541,0.1402 1.06941,0.30374 0.39373,0.19278 0.78572,0.39638 1.21482,0.50474 0.91931,0.23215 1.88506,0.21317 2.7978,0.46998 0.96951,0.27278 1.86422,0.75818 2.83016,1.03971 0.51098,0.14893 2.03374,0.28596 1.52738,0.47379 -0.0806,0.0299 -0.21804,-0.0153 -0.31993,-0.0191 -0.11575,-0.004 -0.29393,-0.0692 -0.34941,0.0404 -0.056,0.11057 0.1433,0.15835 0.22333,0.20179 0.92665,0.50296 1.90869,0.90754 2.80044,1.47006 0.14602,0.0921 0.44552,0.11035 0.43478,0.28455 -0.006,0.0937 -0.19034,0.0684 -0.27262,0.0758 -0.45056,0.0409 -1.52034,-0.4026 -1.35465,0.0173 0.0307,0.0779 0.19208,0.11691 0.28012,0.16282 0.47068,0.24544 0.96246,0.46169 1.39062,0.77854 0.0898,0.0665 0.19292,0.14953 0.14909,0.29095 -0.0583,0.1882 -0.24247,0.31587 -0.43867,0.31761 -0.33986,0.003 -0.65654,-0.14394 -0.95772,-0.28534 -0.40696,-0.19107 -0.77812,-0.46435 -1.20764,-0.59989 -0.10692,-0.0337 -0.29121,-0.10745 -0.34467,0.0243 -0.0724,0.17831 -0.0421,0.37851 -0.0227,0.5642 0.0198,0.18946 0.27674,0.54155 0.088,0.56419 -0.15788,0.0189 -0.25582,-0.129 -0.40229,-0.17228 -0.84906,-0.25091 -1.73988,-0.39448 -2.53464,-0.80097 -0.45354,-0.23197 -0.87164,-0.54196 -1.35592,-0.7055 -0.55299,-0.18674 -1.14666,-0.14696 -1.72045,-0.12574 -0.43501,0.0161 -0.879,0.0683 -1.30671,-0.0236 -0.21313,-0.0458 -0.40162,-0.20053 -0.62929,-0.17942 -0.1735,0.0161 -0.13773,0.2199 -0.11803,0.3395 0.0614,0.37266 0.16419,0.73589 0.21727,1.11197 0.0188,0.13327 -0.058,0.2609 -0.2055,0.28061 -0.32415,0.0433 -0.65149,-0.008 -0.97525,-0.0314 -0.40985,-0.0301 -0.82529,-0.076 -1.23502,-0.0107 -0.17835,0.0284 -0.34106,0.14712 -0.40108,0.32184 -0.10085,0.29357 -0.0328,0.61372 0.0591,0.89917 0.21389,0.66448 0.55777,1.28145 0.95644,1.85074 0.26738,0.38181 0.54762,0.7618 0.89714,1.07347 0.25321,0.22579 0.61652,0.2525 0.93974,0.21907 0.4621,-0.0478 0.91842,-0.20153 1.38994,-0.13452 0.2686,0.0382 0.46056,0.24632 0.6554,0.41529 0.12766,0.11071 0.26187,0.24789 0.44688,0.24225 0.17669,-0.005 0.35114,-0.0504 0.53084,-0.006 0.50057,0.12401 0.98853,0.3076 1.42999,0.57648 0.50391,0.30692 1.00395,0.62421 1.46552,0.99279 0.0748,0.0598 0.18624,0.11847 0.0864,0.22945 -0.17483,0.19435 -0.45636,0.21309 -0.701,0.22319 -0.29869,0.0123 -0.60442,-0.0262 -0.89731,0.0553 -0.15633,0.0435 -0.24051,0.19307 -0.28151,0.34205 -0.0673,0.24456 -0.0409,0.51969 -0.17497,0.74151 -0.0767,0.12691 -0.2375,0.14491 -0.36934,0.16698 -0.63145,0.10569 -1.26882,-0.0216 -1.90421,0.0137 -0.56002,0.0311 -1.12479,0.04 -1.6772,0.13942 -0.18951,0.0341 -0.38695,0.0447 -0.56716,0.11216 -0.1156,0.0433 -0.22799,0.17779 -0.35797,0.11072 -0.36965,-0.19074 -0.61612,-0.54414 -0.97965,-0.74929 -0.90131,-0.50863 -1.71346,-1.48836 -2.75256,-1.44016 -0.1274,0.006 -0.14713,0.18039 -0.18258,0.27779 -0.0676,0.18572 -0.10273,0.41336 -0.2719,0.53321 -0.11162,0.0791 -0.24901,0.0143 -0.36291,-0.0216 -0.61317,-0.19331 -1.2034,-0.49558 -1.84933,-0.55446 -0.2228,-0.0203 -0.48686,-0.0212 -0.65136,0.15559 -0.23407,0.25158 -0.39177,0.56816 -0.49155,0.89324 -0.0578,0.18835 -0.16316,0.39855 -0.0894,0.58638 0.11406,0.29063 0.26982,0.56049 0.41733,0.83721 0.0559,0.1049 -0.0315,0.19158 -0.0899,0.26848 -0.14619,0.19273 -0.31712,0.36482 -0.47078,0.55129 z"
     id="path300" />
  <path
     id="path304"
     style="fill:#6b725c;fill-opacity:1;stroke:#6b725c;stroke-width:0.264583px;stroke-linecap:butt;stroke-linejoin:miter;stroke-opacity:1"
     d="m 135.24014,8.5771166 c 1.28727,-1.0857 2.47597,-2.45617 3.15507,-3.94106 1.66896,2.09547 4.70824,-1.01901 6.07872,0.77516 0.8518,1.723 -2.93351,1.17717 -0.86656,2.97531 0.46403,0.78943 3.4296,2.2491104 0.9151,1.9593904 -1.38232,-0.4146904 -4.08424,0.17163 -2.36379,1.90619 0.68265,0.94166 -0.59604,1.59177 1.23487,1.69238 1.96251,-0.20643 3.11299,-2.27018 4.84886,-2.98629 0.68671,0.98576 2.47398,1.09101 1.38037,2.66955 -1.2245,1.99296 4.01164,2.61867 1.54605,4.26994 0.31494,1.19781 4.59429,2.56888 1.91052,3.24145 -0.0394,1.04941 3.98736,3.01341 0.8805,3.47253 -1.40275,0.90206 3.63865,2.47837 1.41089,3.61616 -1.01351,0.50099 -4.15819,-0.045 -2.37704,1.77265 0.28204,1.89117 -2.6426,1.91985 -3.18045,2.82887 0.55265,0.51669 2.91747,0.76221 1.02483,1.34104 -1.29423,0.0271 -3.59911,-0.38795 -2.64206,1.66377 -1.10917,0.0853 -3.20864,1.06522 -1.14323,1.8795 0.77699,0.78558 2.14175,3.0049 2.09709,3.40766 -2.73876,-0.8231 1.423,2.15896 -0.26755,3.0553 -1.69617,0.0179 2.84001,2.55234 -0.0985,2.38151 -1.88739,0.49552 -3.92113,1.25531 -5.94375,0.54639 -1.60772,-0.92353 -0.6405,0.37476 -0.65402,1.11491 -1.09525,0.53764 -3.3096,-0.43627 -3.84965,0.096 0.81204,1.43763 -4.46884,-1.65388 -2.40513,0.41573 1.49241,1.91812 4.26736,0.88074 5.80504,2.32538 0.84823,0.70585 1.4208,1.499 -0.17455,1.30245 -2.26809,0.1794 -4.59087,0.62656 -6.8469,0.22909 -0.59731,-0.47738 -1.84163,-0.84219 -0.79713,-0.85699 -1.31324,-1.54737 -3.18811,-2.01671 -5.10116,-1.2386 -1.56641,0.99967 -3.07993,-1.53631 -0.86936,-1.64402 1.66152,-0.61561 4.29977,0.005 4.93158,-2.10925 0.86166,-0.98246 2.37844,-2.06073 0.49004,-2.85802 1.08144,-1.64184 -3.32624,-0.79479 -3.71744,-2.24295 -0.006,-1.2016 -3.6227,-1.85204 -2.85582,-2.73063 1.30364,0.35779 0.95073,-2.00001 2.50056,-1.1936 1.74392,0.43146 3.16402,-1.98465 4.66669,-0.24938 1.80686,-0.21291 3.90384,-0.26344 5.63058,-1.37763 -1.8845,-1.22759 0.64858,-1.43934 1.24931,-1.99424 -2.19973,-1.36247 -4.35378,-2.43888 -7.00809,-2.2266 -1.73644,0.74609 -3.4293,1.35408 -5.19401,0.71122 -1.31428,0.82032 -3.54941,-0.42176 -2.90025,-1.70244 1.26468,0.12189 2.17502,-1.15881 3.61072,-0.50085 2.25944,-0.005 1.28528,-2.44197 2.81338,-3.6138 0.62077,-0.77473 0.0494,-2.61041 1.62541,-1.56228 1.72841,0.0602 3.34941,-0.57375 4.82253,0.74175 1.10664,0.21077 3.71963,0.21637 1.79599,-1.337 -1.00869,-0.79994 -2.2844,-3.88354 -3.60391,-2.85235 -1.24052,0.64972 -2.68983,-1.95154 -3.35132,-2.99096 -1.7675,-0.57913 -3.65515,-1.44501 -4.9822,-2.58409 -1.68015,-0.2554 -3.19979,-2.0146 -2.96565,-3.75122 -1.64624,-0.50474 -2.60019,-2.5736504 -0.29568,-2.9826404 1.9675,-0.61506 3.3844,2.3843904 5.40148,1.0966604 1.58757,-0.45411 3.87261,2.4395 4.9083,0.35453 -0.21543,-0.77623 -0.55021,-1.4841804 -0.27924,-2.3155704 z" />
  <path
     id="path309"
     style="fill:#6c6f54;fill-opacity:1;stroke:#6c6f54;stroke-width:0.264583px;stroke-linecap:butt;stroke-linejoin:miter;stroke-opacity:1"
     d="m 104.52756,14.766217 c 1.26865,0.1217 2.33187,1.03221 3.24725,-0.42853 1.38634,0.9033 3.49052,1.92504 4.40753,-0.21894 1.15714,-0.74582 0.3513,-3.70119 1.79616,-2.1981 1.29348,0.12992 2.22956,-1.66808 2.79943,-1.9302804 0.2428,2.1259304 3.86302,0.3904304 3.9502,0.9652204 -0.79505,0.96841 -2.61943,2.80725 -0.20058,3.08474 0.93606,0.3173 1.91407,1.93378 1.04007,2.61363 1.90098,0.5553 1.77754,2.19619 0.27407,2.51846 1.48477,0.6108 3.42385,3.19149 0.84137,3.74595 -1.10497,0.0791 -3.15055,-0.37596 -1.61586,1.19538 1.49633,2.18077 -4.1742,-0.30384 -2.09921,2.455 0.23921,1.28955 2.76117,1.0947 1.29076,2.42382 1.29711,0.2541 2.23946,0.91887 2.40332,2.32728 2.15179,0.177 0.59509,2.47774 2.1897,3.41412 1.71251,2.4351 -1.92169,1.52712 -2.9222,0.56204 -1.95897,-1.77422 -4.56345,-2.67294 -7.17315,-2.82938 -1.4413,-0.15413 -4.54,-2.30073 -4.11413,0.42029 -0.5098,1.13533 3.20282,1.65103 0.88874,2.72259 -1.49471,0.66767 1.72207,0.91096 2.40377,1.17904 1.32447,0.57458 2.11164,1.882 3.74194,1.85102 -0.15519,1.42956 1.97453,1.67237 3.05055,2.31335 1.01946,-0.3783 0.61711,2.12082 2.1567,1.97585 1.45615,1.49212 -1.64869,1.71865 -2.59523,2.72644 -1.20067,0.20943 -2.228,0.49421 -1.89013,1.94464 -0.14329,1.55135 2.57987,0.593 3.63487,1.04947 1.10652,0.15318 2.2668,1.18501 1.18007,2.16453 1.1617,0.5305 1.94099,1.95923 2.5951,2.61826 1.64168,-0.46073 0.93939,1.9063 1.53893,2.81966 -1.27764,0.70318 -3.2272,-0.74057 -4.12611,0.96626 -2.06,-0.40699 -1.33807,-3.90676 -3.65722,-3.75877 -2.44874,0.35724 -1.47202,-2.72888 -2.79541,-3.6676 -2.16518,-0.30563 -0.43297,-3.33005 -2.64879,-3.54877 -1.78082,-0.40379 -1.58271,-3.37791 -3.76937,-2.92817 -0.95464,-0.40385 -0.55416,-1.95025 -1.76603,-0.86736 -1.12312,0.0321 -2.64703,3.03955 -2.50968,0.57861 -0.72652,-1.90985 -1.17514,-4.37809 -0.51162,-6.27593 1.86456,-0.81656 4.27294,-0.97982 5.01966,-3.2651 2.02914,-1.44131 -0.56545,-3.10824 -0.28302,-5.03029 -1.26978,-0.0144 -3.23894,2.06911 -3.16022,-0.54274 -0.066,-1.74118 -2.5197,-1.09139 -2.34748,-3.12756 -0.80219,-1.98689 -3.50643,2.005 -4.03351,-0.78332 -1.366163,0.0517 -2.693853,0.022 -3.257439,-1.26759 -1.837568,-0.7231 -2.786446,-4.24736 0.107804,-3.66343 1.042676,-0.0887 2.296638,0.37585 3.091645,0.61817 -0.877893,-1.50047 0.31057,-2.34087 1.5849,-1.44039 -1.2399,-1.31345 -1.96079,-4.64767 0.97245,-3.76564 0.43608,0.0326 0.85089,0.1733 1.2694,0.28407 z" />
  <path
     id="path314"
     style="fill:#4e5a3d;fill-opacity:1;stroke:#4e5a3d;stroke-width:0.264583px;stroke-linecap:butt;stroke-linejoin:miter;stroke-opacity:1"
     d="m 88.57969,30.006037 c -0.559319,-1.65135 0.578321,-1.64054 1.77002,-1.47984 1.302845,-0.31347 2.440743,-4.77294 3.118135,-1.81893 0.27685,2.14761 2.27508,2.10537 3.514988,0.98949 1.091025,1.00235 1.634694,3.1627 3.372567,2.19886 1.40115,1.15791 3.33213,1.5717 4.76865,1.79307 0.18847,1.08105 1.67768,1.27544 2.11826,1.55728 -1.95773,0.11747 -4.16924,0.7423 -5.37811,2.39059 0.52257,1.52076 0.35974,2.95526 -0.66116,4.30361 0.0913,1.31132 1.50672,2.42925 0.54565,3.82121 1.53771,0.91251 2.40833,2.25051 2.17497,4.00536 2.06491,0.19366 3.86887,1.63672 5.96687,1.43984 1.36588,-0.19783 0.3937,2.0488 1.97111,1.35243 1.31749,1.10039 0.40255,3.68093 -1.67411,3.5417 -2.48181,-0.84014 -1.27013,2.32405 -1.58457,3.75017 1.28429,0.93191 0.14836,3.35113 2.30064,3.87754 1.5969,0.66756 0.80055,2.50574 2.76453,2.74876 1.59248,0.41213 1.60281,2.18822 -0.2475,1.51493 -0.87839,0.0743 -2.92879,-0.72394 -3.08841,-0.58819 0.74765,0.77132 -3.1645,0.29799 -1.16632,1.41052 0.50411,0.85498 4.07811,1.94717 1.34276,1.61465 -2.08857,-0.22411 -4.23066,-0.52175 -6.28607,0.0872 -1.78878,-0.35919 -1.90057,2.23176 -3.8881,2.10923 -0.366437,-0.26161 1.95167,-1.73203 0.3277,-0.78366 -1.839299,1.33832 -4.592416,-0.19426 -3.161821,-2.45543 0.479319,-1.64009 2.732471,-2.36933 0.859492,-3.98039 -0.44587,-1.55353 -1.678255,-1.90192 -2.990688,-1.58263 -0.431258,-1.48753 -1.589249,-1.93969 -2.415315,-0.58266 -1.166415,-1.02998 -2.576211,0.95305 -3.893166,1.09031 -1.664888,1.0433 -1.594481,-1.18731 -2.080655,-1.72445 -2.529669,-0.36181 0.773241,-2.83051 2.19037,-2.57659 1.803514,-0.51119 0.878305,-4.19742 -1.19733,-2.68294 -1.735362,1.25316 -2.811957,-0.47843 -3.31235,-1.89337 -1.273124,1.02921 -4.564591,2.60896 -3.098924,-0.41131 0.402305,-0.68603 1.02133,-1.87951 -0.209466,-0.76511 -2.859875,1.65226 -2.92792,-2.84505 -2.88299,-4.60131 -0.351878,-2.27002 0.463117,-4.74261 3.160043,-4.2144 -0.429753,-0.0913 -2.143105,-1.01056 -0.268416,-0.7801 0.929661,0.0677 3.910095,-0.69307 1.367066,-0.95027 -0.836709,-0.10672 -2.993119,-1.46284 -0.910894,-1.45085 0.95229,-0.38679 4.835529,-0.53716 1.938448,-1.33248 -1.579639,-0.99399 -3.886952,-0.98472 -4.705934,-2.82931 -2.129928,-0.82837 -1.284486,-3.70665 -0.04318,-4.01553 -1.951524,-1.07082 -0.569437,-3.79713 1.345254,-2.2669 1.793332,0.30885 2.489796,2.28107 3.600614,3.0232 1.49234,-0.39309 2.838379,2.7335 3.912406,1.29673 0.629023,-0.35158 1.963798,0.46339 0.864328,-0.71449 -0.547538,-0.53179 -0.936715,-2.47536 -0.629083,-2.64966 -0.666609,1.11067 0.358908,-0.71389 0.479687,-0.78588 z" />
  <path
     id="path319"
     style="fill:#6b725c;fill-opacity:1;stroke:#6b725c;stroke-width:0.264583px;stroke-linecap:butt;stroke-linejoin:miter;stroke-opacity:1"
     d="m 100.31259,62.615267 c -0.0972,-1.61486 0.67213,-2.32147 1.98827,-1.64851 1.03124,-2.08767 4.36961,-2.13941 4.10235,0.6509 -0.20877,1.44902 0.24169,1.81802 1.11497,0.57093 1.52552,-1.57397 3.62193,0.50418 4.66883,1.62626 -0.9345,0.21309 -2.5945,-0.42204 -0.97135,0.83168 1.17778,1.21617 3.10397,2.02591 4.3595,2.62807 -1.77072,0.45094 -4.96259,-0.2162 -5.743,1.57658 0.66583,0.836 1.78036,1.30297 0.0272,1.52004 0.0984,1.36759 4.22302,1.71467 1.93203,3.58296 -1.81309,1.16409 2.35082,0.54923 2.69692,1.80004 1.22668,1.44114 3.72087,-0.0529 4.23404,2.36524 0.56129,1.65739 2.42014,0.84104 3.19704,2.20072 1.54767,-0.0625 4.37981,-0.0862 2.39916,0.84063 2.55609,0.25404 -1.16001,2.64674 0.86194,3.58787 -0.92231,0.99223 -3.01658,2.48026 -2.82284,3.46453 0.76951,0.80628 4.04229,1.72451 2.91311,2.82449 -1.41203,0.32002 -4.57081,-3.0478 -3.89777,-0.016 0.008,1.52323 1.0574,3.78081 -1.40388,3.36787 -2.18726,-0.23061 1.3069,3.54288 -1.58934,2.51415 -0.89884,-0.12928 -4.46774,-2.32142 -2.76393,-0.0339 0.92139,1.40917 1.53895,3.315823 -0.0883,2.63482 0.80254,2.517723 3.77732,3.951293 3.72774,6.818093 0.11261,2.80652 -3.71354,2.08883 -3.55745,-0.45709 -0.20444,-2.14901 -0.81863,-3.17798 -2.78395,-4.0046 -1.93643,-1.07234 -2.58186,-3.287113 -3.65105,-4.922153 -2.55255,0.84498 -2.62123,-2.15799 -3.41795,-3.70459 -1.07234,-1.08953 -2.92648,0.50155 -3.55253,-1.60711 -0.99308,-0.1563 -1.9858,1.11389 -1.68028,-0.84153 -0.0672,-1.45381 1.5387,-5.25617 -1.293662,-3.26883 -1.24334,1.21427 -1.164631,-2.26247 -1.679347,0.21177 -1.573402,2.4597 -4.993777,3.10294 -6.466703,5.70018 -1.700908,1.63604 -3.458328,0.29724 -3.745555,-1.63903 -0.829192,0.67467 -1.525194,1.7656 -2.420644,0.0929 -1.343048,-1.71352 -0.437635,-3.2187 0.521103,-4.66685 -0.0021,-2.41448 2.245555,1.5736 3.417717,-0.38351 1.586547,-1.15729 1.626542,-3.42739 1.788907,-5.09688 1.639381,1.44292 2.740366,-0.59232 2.249485,-1.46904 2.038821,0.29867 3.99909,-0.59867 6.089141,-0.67442 1.007078,-0.18082 2.335128,-0.77696 0.585171,-0.98059 -1.903536,-0.50926 -0.273993,-0.99028 0.589777,-1.33365 -1.259846,-1.68546 -3.515304,-2.29247 -5.556457,-2.06119 -2.306897,0.6307 -2.589442,-1.028 -1.781893,-1.69449 -2.499351,0.23139 -2.62804,-3.28312 -2.081954,-5.00811 1.434245,-1.79107 3.325963,-0.35996 4.777876,-0.13406 0.712517,-0.41691 1.775566,-1.32388 0.664783,-1.88191 2.2109,-0.5738 1.862169,-3.04964 3.756225,-3.76032 l 0.2863,-0.12174 z" />
  <path
     id="path324"
     style="fill:#6c6f54;fill-opacity:1;stroke:#6c6f54;stroke-width:0.264583px;stroke-linecap:butt;stroke-linejoin:miter;stroke-opacity:1"
     d="m 66.617485,31.935977 c 1.493297,-0.7851 2.032959,-1.24731 3.815055,-2.16062 -1.6249,1.27541 -0.682802,2.12873 1.083915,2.41051 3.285292,0.74643 -2.985948,2.39179 0.34163,2.5614 1.491693,0.0193 4.397199,1.04243 4.609444,2.37318 -2.574294,1.20467 -4.924057,2.39247 -7.42573,3.76963 -1.883911,-0.24495 -1.56242,2.09421 -0.513293,2.36764 -3.754593,1.86245 1.805274,2.78692 3.403149,3.09153 0.796867,0.94181 2.668693,2.21507 0.329488,3.0628 -1.736619,1.90888 -2.598839,4.38317 -5.424491,4.9048 -2.039596,0.0125 -0.514631,2.95614 -2.882358,3.14532 0.313332,1.35772 4.216276,-0.47268 5.55352,1.03571 2.048708,-0.48364 4.72445,0.43004 5.524146,2.31517 -1.035078,0.95655 -2.125049,1.48576 -0.328091,2.30371 1.31082,2.17676 -4.355555,2.52654 -1.454276,4.51255 0.07727,1.26281 3.272607,1.92231 0.569221,2.25553 -2.246279,0.79645 -4.613816,0.90865 -6.924258,1.30675 -1.043856,0.69824 -5.22188,0.70508 -4.402438,1.51226 1.483312,2.02642 3.952626,1.71768 5.861305,3.00136 0.777069,1.65096 3.793981,-0.68409 5.420697,-0.10263 1.327455,0.8743 3.015866,0.35081 4.341353,1.10749 -0.532624,0.92777 -1.108639,1.26788 -0.799229,2.01839 -1.007227,0.88867 -4.934988,1.48724 -2.025045,2.70667 1.854752,1.16144 -0.829716,2.88431 1.150522,3.8433 0.233258,1.86691 -2.478933,3.44452 -0.83738,4.50075 -2.30487,1.64687 -3.432916,4.80698 -1.627407,7.00181 -0.289199,1.39101 -2.740875,3.04555 0.135701,2.60415 1.27815,0.10622 3.340409,0.12904 1.008248,1.102703 -0.836227,0.61412 2.057938,1.84777 -0.297751,1.61387 -2.512046,-1.19573 -5.375708,-1.35094 -7.89038,-2.487413 -1.292326,-1.64968 0.366181,-4.00743 0.347975,-5.91772 1.329647,-1.74504 1.259809,-3.54039 -1.022117,-4.35046 -1.321421,-1.51828 -0.10521,-3.88207 -2.320172,-4.40696 -0.182439,-2.11292 -0.703964,-4.33633 -3.327675,-3.84317 -1.929468,-0.47966 -2.496714,-2.93905 -4.95091,-2.08615 -2.014438,-0.31835 -2.599633,-2.93359 -4.897193,-2.97233 -0.719372,-1.88258 -0.566066,-4.06689 1.914899,-3.68263 2.710014,0.54269 5.10817,-4.62097 1.101011,-2.98006 -3.568881,2.03407 -3.401747,-3.22843 -3.318779,-5.43346 -0.509042,-2.11934 3.088148,-0.7787 3.494239,-2.79615 2.022543,-0.49709 5.520475,2.03541 4.812655,-1.72572 1.173835,-2.44193 -1.581382,-2.91955 -3.342957,-3.20132 0.260281,-1.63624 0.435076,-4.41388 0.628915,-5.36361 2.541209,0.32794 4.602787,-1.21356 6.930898,-1.72326 -1.477395,-1.77467 -5.132825,-3.01675 -7.945472,-2.81858 -1.980068,0.82171 -3.072584,-1.23153 -4.944215,0.39787 -2.221507,0.86576 -2.173731,-2.85497 -2.216707,-4.05921 2.165551,0.1464 4.371209,-0.43199 6.3359,-0.78448 3.710636,1.32948 1.126447,-3.07893 -0.22131,-4.19965 -0.95273,-0.86928 -1.919516,-2.65851 0.216933,-1.76375 3.36112,0.58208 1.822305,-2.93125 2.021292,-4.64078 1.510878,-0.0457 3.546848,0.10461 4.535081,-0.73479 -0.568204,1.72854 -0.156391,5.67997 2.324495,3.91804 2.161025,0.0668 2.051828,-1.82429 3.527947,-2.50999 z" />
  <path
     style="fill:#4e5a3d;fill-opacity:1;stroke:#4e5a3d;stroke-width:0.264583px;stroke-linecap:butt;stroke-linejoin:miter;stroke-opacity:1"
     d="m 89.614949,100.96992 c 0.148591,-0.1813 0.352402,-0.30723 0.554619,-0.41962 0.588215,-0.32691 1.219951,-0.571603 1.864698,-0.759903 0.59908,-0.17496 1.214078,-0.33144 1.840546,-0.33697 0.28447,-0.003 0.589035,0.005 0.839908,0.1525 0.13079,0.0767 0.260265,0.20625 0.259162,0.36513 -0.0011,0.165283 -0.135329,0.287743 -0.257661,0.379693 -0.214855,0.16149 -0.459518,0.27464 -0.686454,0.4174 -0.05872,0.0369 -0.136582,0.13122 -0.05319,0.18388 0.295427,0.18657 0.621768,0.31628 0.930548,0.4784 0.294058,0.15439 0.579724,0.35484 0.75094,0.64643 0.08187,0.13943 0.176515,0.29056 0.171794,0.45237 -0.0056,0.19358 -0.05408,0.3828 -0.08851,0.57264 -0.03747,0.20663 -0.06753,0.41445 -0.09895,0.62279 -0.01276,0.0846 0.0824,0.1146 0.145417,0.13345 0.279643,0.0836 0.569788,0.124 0.856251,0.17681 0.502067,0.0926 1.013578,0.17033 1.488569,0.36257 0.179279,0.0726 0.379103,0.14197 0.498419,0.29796 0.09856,0.12885 0.08268,0.29955 0.10878,0.45116 0.05833,0.33887 -0.01227,0.69561 -0.192747,0.98919 -0.18915,0.30769 -0.440074,0.62236 -0.781619,0.72534 -0.08567,0.0258 -0.06384,0.10941 -0.05524,0.1771 0.05624,0.44305 0.217744,0.86266 0.346101,1.28789 0.115709,0.38333 0.230221,0.77868 0.209342,1.18326 -0.01038,0.20119 -0.06714,0.40234 -0.188391,0.5665 -0.231258,0.3131 -0.556396,0.54148 -0.886663,0.7386 -0.717493,0.42824 -1.492781,0.75026 -2.277059,1.0329 -0.859823,0.30986 -1.738059,0.56617 -2.622159,0.79878 -0.132761,0.0349 -0.268717,0.0521 -0.406244,0.0572 -0.193911,0.007 -0.387213,0.0168 -0.582042,0.0241 -0.09209,0.003 -0.06756,0.0841 -0.01,0.13418 0.360346,0.3135 0.742806,0.60751 1.05671,0.96821 0.0649,0.0746 0.180144,0.13882 0.177684,0.23946 -0.0022,0.0887 -0.135153,0.0595 -0.191592,0.0445 -0.258959,-0.0692 -0.499519,-0.19246 -0.73634,-0.31507 -0.702402,-0.36366 -1.381205,-0.77002 -2.060134,-1.17496 -0.267821,-0.15974 -0.575826,-0.22674 -0.878006,-0.28728 -0.284475,-0.057 -0.567803,-0.13351 -0.824965,-0.27291 -0.467929,-0.25365 -0.883861,-0.59041 -1.283913,-0.93765 -0.339866,-0.295 -0.660812,-0.61975 -1.044881,-0.85556 -0.08091,-0.0497 -0.169268,-0.16751 -0.258074,-0.12645 -0.05384,0.0249 -0.08636,0.0852 -0.117744,0.13435 -0.184211,0.28834 -0.269913,0.62434 -0.36333,0.94975 -0.101091,0.35214 -0.1879,0.71571 -0.375762,1.0342 -0.110374,0.18712 -0.283985,0.34198 -0.49924,0.39922 -0.205221,0.0546 -0.423887,-0.012 -0.591492,-0.1351 -0.272018,-0.19972 -0.461824,-0.48616 -0.643297,-0.76547 -0.179603,-0.27643 -0.338441,-0.5673 -0.542969,-0.82717 -0.09637,-0.12245 -0.233316,-0.20933 -0.385024,-0.2453 -0.290211,-0.0688 -0.592213,-0.031 -0.882895,0.014 -0.431117,0.0669 -0.853068,0.19492 -1.289008,0.22595 -0.153018,0.0109 -0.316932,0.016 -0.453293,-0.068 -0.226675,-0.1396 -0.374104,-0.36965 -0.527112,-0.58099 -0.104191,-0.14391 -0.200947,-0.29612 -0.333173,-0.41802 -0.07567,-0.0698 -0.17966,-0.0333 -0.267119,-0.0165 -0.593845,0.11429 -1.130675,0.41296 -1.638282,0.72987 -0.611794,0.38195 -1.191046,0.82061 -1.842654,1.13555 -0.451312,0.21813 -0.94921,0.3078 -1.412369,0.49495 -0.444725,0.1797 -0.817334,0.49242 -1.160763,0.81996 -0.421666,0.40216 -0.717352,1.02217 -1.276099,1.19583 -0.08359,0.026 -0.08894,-0.10405 -0.09353,-0.15913 -0.02707,-0.32539 -0.0096,-0.653 -0.03952,-0.97828 -0.02151,-0.23366 -0.02557,-0.48896 -0.158535,-0.68666 -0.04628,-0.0688 -0.121475,-0.21239 -0.208968,-0.15927 -0.08368,0.0508 -0.137746,0.13425 -0.226492,0.18316 -0.152075,0.0838 -0.331203,0.0958 -0.500792,0.0719 -0.252135,-0.0355 -0.493906,-0.1207 -0.732522,-0.20615 -0.575506,-0.20609 -1.145131,-0.43329 -1.68921,-0.71258 -0.221516,-0.11371 -0.437299,-0.24184 -0.621722,-0.41223 -0.200022,-0.1848 -0.376939,-0.42126 -0.40331,-0.70092 -0.02909,-0.30851 0.08789,-0.60276 0.134611,-0.90358 0.02758,-0.17756 0.07615,-0.37007 0.01132,-0.53828 -0.04811,-0.12481 -0.150616,-0.21703 -0.239367,-0.31314 -0.225247,-0.24393 -0.403263,-0.53568 -0.488135,-0.85913 -0.118273,-0.45075 -0.05748,-0.9246 0.04774,-1.37169 0.174083,-0.73974 0.477851,-1.44992 0.568081,-2.20769 0.02734,-0.22964 0.04509,-0.46516 0.0031,-0.69386 -0.03395,-0.18473 -0.165382,-0.34129 -0.335187,-0.41942 -0.35097,-0.16149 -0.749564,-0.12966 -1.1157,-0.23598 -0.161582,-0.0469 -0.294754,-0.15444 -0.424051,-0.25714 -0.218176,-0.1733 -0.405261,-0.38033 -0.609657,-0.56918 -0.210162,-0.19418 -0.431201,-0.387 -0.707,-0.48691 -0.09618,-0.0348 -0.400601,-0.0223 -0.300634,-0.0169 0.139022,0.007 0.280918,-0.006 0.419737,-0.022 0.767351,-0.0901 1.51208,-0.30774 2.273207,-0.4339 0.417538,-0.0692 0.846942,-0.14116 1.26802,-0.0714 0.09284,0.0154 0.205608,0.005 0.273569,0.0708 0.06435,0.062 0.06928,0.15994 0.08234,0.24309 0.0283,0.18015 0.0117,0.37484 0.09381,0.53978 0.03996,0.0803 0.113819,0.13717 0.181644,0.19296 0.292213,0.24036 0.666117,0.37298 0.924346,0.65409 0.254107,0.27662 0.368542,0.65423 0.639918,0.91727 0.118181,0.11455 0.280361,0.17024 0.444618,0.17908 0.397971,0.0214 0.781936,-0.11844 1.135662,-0.28797 0.424726,-0.20356 0.83223,-0.4722 1.303025,-0.55173 0.112297,-0.019 0.232616,-0.0609 0.341263,-0.0255 0.122919,0.0401 0.211904,0.14254 0.298198,0.23318 0.261003,0.27414 0.521273,0.56574 0.868532,0.73318 0.239106,0.11529 0.523962,0.13872 0.773369,0.0456 0.284229,-0.10606 0.571621,-0.24276 0.775591,-0.47488 0.143784,-0.16363 0.204166,-0.38781 0.184268,-0.60297 -0.03085,-0.3336 -0.174852,-0.64141 -0.294382,-0.95006 -0.09513,-0.24564 -0.209947,-0.49162 -0.23517,-0.75504 -0.03611,-0.37708 0.135073,-0.74465 0.08013,-1.12092 -0.04847,-0.331923 -0.640557,-1.013653 -0.313351,-0.949843 0.103119,0.0201 0.191483,0.0839 0.279237,0.13866 0.178256,0.11134 0.331469,0.26398 0.520481,0.35528 0.255825,0.12357 0.528368,0.20711 0.791008,0.31467 0.168318,0.0689 0.335824,0.149753 0.465767,0.281303 0.291119,0.29472 0.45572,0.68405 0.709824,1.00725 0.109678,0.1395 0.222094,0.2925 0.383518,0.36969 0.190076,0.0909 0.420359,0.0154 0.604962,0.11833 0.1208,0.0674 0.134533,0.21923 0.13681,0.34368 0.0037,0.20331 -0.03214,0.41685 0.04933,0.61068 0.04068,0.0968 0.133373,0.152 0.218351,0.20671 0.274617,0.1768 0.519313,0.41493 0.843041,0.50413 0.308849,0.0851 0.645247,0.0265 0.920697,-0.13282 0.391358,-0.22643 0.683335,-0.58968 0.910811,-0.97311 0.282023,-0.47537 0.478198,-0.99807 0.61424,-1.53401 0.0087,-0.0344 0.02529,-0.17017 0.03436,-0.0675 0.03748,0.42389 0.04794,0.85856 0.184111,1.26421 0.04447,0.13248 0.08961,0.28597 0.214726,0.36107 0.0831,0.0499 0.184662,0.0222 0.271298,-2.8e-4 0.303893,-0.079 0.54098,-0.30163 0.752087,-0.52275 0.268611,-0.28135 0.505535,-0.60436 0.839117,-0.81343 0.181002,-0.11344 0.399509,-0.19886 0.613574,-0.16194 0.225419,0.0389 0.402139,0.19645 0.577943,0.33053 0.145794,0.11119 0.308314,0.21219 0.49577,0.2334 0.434171,0.0491 0.871195,0.0678 1.307642,0.0827 0.340237,0.0116 0.680653,0.01 1.021218,0.0108 0.30909,6.6e-4 0.619335,0.0207 0.927913,-0.0177 0.130445,-0.0162 0.236271,-0.0988 0.331219,-0.18503 0.124906,-0.11347 0.229341,-0.25798 0.385721,-0.33114 0.0747,-0.0349 0.157256,0.002 0.210311,0.0605 0.122382,0.13423 0.113779,0.32903 0.09524,0.49767 -0.0211,0.19192 -0.0689,0.38254 -0.05825,0.57676"
     id="path337" />
  <path
     id="path341"
     style="fill:#6b725c;fill-opacity:1;stroke:#6b725c;stroke-width:0.264583px;stroke-linecap:butt;stroke-linejoin:miter;stroke-opacity:1"
     d="m 43.644669,78.498397 c 0.630539,-0.68839 2.412759,-1.73692 1.856333,0.0686 -0.931465,2.33503 2.827155,1.20357 4.067768,1.21183 1.564236,-0.43118 4.424742,0.287 3.034164,2.37212 1.20825,0.59441 3.174273,0.47526 3.860654,2.02374 0.524642,1.45419 1.851197,2.23384 3.081402,3.02045 0.922069,0.5382 3.241729,2.24831 0.871758,2.33855 -2.558373,0.18655 -5.193507,1.31201 -7.728683,0.45311 -1.864315,-1.28476 -3.669179,0.91491 -5.421569,1.37072 -0.912446,-0.0708 -2.158188,1.13186 -0.533082,1.11093 1.707892,0.3873 3.435249,0.73562 4.815206,1.78492 1.460187,0.56677 4.725895,-0.38489 4.971283,1.53728 -1.217815,1.61589 1.951162,-0.0669 1.676154,1.85079 0.571908,1.73531 -0.868102,3.132633 -0.661524,4.805493 -0.02423,1.21958 -1.996041,2.72486 0.05191,2.66615 -0.830124,1.62052 -1.802385,3.29001 -3.257122,4.44149 -1.696981,0.88402 -2.449783,-1.28846 -3.467736,-2.19482 -0.803138,-1.97792 -3.449433,-1.98176 -5.264268,-1.91805 -1.677959,0.26436 -3.203132,-0.60946 -4.114508,-1.98335 -1.454235,-1.23821 -2.354013,1.91522 -1.77454,3.04711 0.23468,1.74428 2.226188,1.94047 3.107955,3.12526 -0.472659,1.13637 -2.072513,1.80392 -3.011917,2.49905 -1.719374,-1.03837 -3.155258,0.83928 -4.890486,0.65118 -1.286182,0.14944 -0.936674,-2.24273 -2.588192,-1.83759 -1.035586,-0.54116 -3.479526,1.00447 -3.350128,-0.72744 0.06875,-1.69991 3.239866,-1.30232 3.348166,-2.19675 -2.494091,-0.54108 -0.676195,-2.74204 0.476961,-3.6458 0.492555,-0.69667 2.797075,-2.60097 0.603243,-2.15636 -1.828196,0.21624 -2.117711,-1.632 -0.108345,-1.44496 1.414845,-0.0378 1.999689,-0.941563 0.37178,-1.433443 -1.890029,-1.19295 -4.279145,-1.77404 -5.656648,-3.66159 0.150681,-1.64169 1.550653,-3.24337 2.435065,-4.63123 1.290228,-1.49698 2.664997,0.96348 4.139767,1.03357 1.555775,0.41727 2.993155,1.31712 4.622952,1.4002 -0.653193,-0.93396 0.889483,1.09724 1.550586,1.18578 0.659918,0.64275 2.519998,1.16583 1.665489,-0.41898 -0.484035,-1.61042 -1.954559,-2.81477 -2.683337,-4.07323 0.04644,-0.75206 2.33425,-0.94243 0.621633,-1.1511 -1.890104,-0.47362 -1.745242,-2.95207 -0.743895,-4.17671 -1.528716,-0.39943 -2.450524,-1.3828 -3.012998,-2.77562 -0.737725,-0.45891 -3.042079,-2.02167 -0.869641,-1.62076 1.361878,0.0503 2.790944,0.43534 4.118745,0.0425 -0.130739,-0.73007 -3.090954,-1.73539 -1.762759,-2.33564 1.826857,0.3642 3.743089,-0.19986 5.552407,0.34267 z" />
  <path
     id="path346"
     style="fill:#6c6f54;fill-opacity:1;stroke:#6c6f54;stroke-width:0.264583px;stroke-linecap:butt;stroke-linejoin:miter;stroke-opacity:1"
     d="m 27.67215,46.177547 c 0.190263,-1.39008 1.373822,-2.00403 2.073368,-0.58453 1.299376,-0.13027 2.722874,-0.7019 3.871081,0.35387 0.958072,0.97269 2.840079,0.374 3.341233,1.8403 0.04416,0.97542 1.823915,0.98514 0.505538,1.74996 -1.086399,0.81586 -2.430782,2.13039 -3.884962,1.57976 -0.994695,-0.60954 -2.903955,-0.87201 -3.135979,0.66313 -0.162537,1.50173 2.673846,1.10493 2.096864,2.78029 0.27417,1.31073 2.541591,0.81837 3.629615,1.12901 0.872717,-0.24007 2.109208,-0.6485 2.881458,-0.33243 0.827575,1.33623 -0.152798,3.19095 -1.686629,3.37257 -1.282141,-0.26989 -2.411487,1.17824 -3.701487,0.40122 -1.156499,0.38479 -2.433935,-0.17222 -3.570541,0.35143 0.591061,0.9567 1.706428,1.97384 2.84035,2.34123 1.024446,-0.0544 1.871767,0.002 2.434152,0.80913 1.255056,0.27847 1.974802,1.80063 0.232878,2.02249 -1.027057,0.37796 -2.177491,0.54096 -3.057304,1.23144 -0.03999,0.65611 1.964603,1.11757 0.528494,1.49853 -1.18785,0.95522 -3.053871,0.88372 -4.088158,1.81374 0.211393,0.65541 1.532138,1.28289 1.55441,1.57005 -1.154321,-0.32508 -2.544491,-1.12959 -2.247618,-2.53601 0.214639,-1.40298 -0.6126,-2.70447 -1.502812,-3.70786 -1.051553,-1.11855 -2.806604,-0.37485 -3.976959,-1.06568 -0.478206,-1.08376 -3.528271,-0.65572 -2.060571,-2.31097 0.991765,-1.13434 2.380369,-1.83475 3.4502,-2.8726 -1.108599,0.2105 -2.464185,-0.58298 -2.358058,-1.85719 0.271879,-1.57532 -1.473529,-1.4382 -2.5205,-1.2458 -1.307386,0.32443 -2.625527,0.0469 -3.932528,0.0736 -1.915909,0.43101 0.02654,-2.07653 -0.153854,-2.96395 -0.681131,-0.56511 -2.87575,-0.89619 -1.557499,-2.10892 0.979069,-0.92924 2.258617,-1.78573 3.662029,-1.67783 1.372903,0.37133 1.61584,2.484 3.231097,2.34553 0.964731,-0.81357 2.195191,-0.52653 2.801887,0.35449 -0.903599,-1.38265 -2.413808,-2.74229 -2.151375,-4.54254 -0.100809,-0.87271 1.728697,-2.19239 1.888681,-1.32201 1.481738,-0.77272 2.214437,1.12117 3.421942,1.44893 0.67107,0.0648 1.900539,0.65357 1.141557,-0.6024 z" />
  <path
     id="path351"
     style="fill:#4e5a3d;fill-opacity:1;stroke:#4e5a3d;stroke-width:0.264583px;stroke-linecap:butt;stroke-linejoin:miter;stroke-opacity:1"
     d="m 46.134208,53.143057 c -0.747626,0.35832 -1.464777,0.79788 -2.284565,0.97376 -0.433846,0.24811 -1.59128,0.18444 -1.310826,0.9186 0.22868,0.87601 0.06407,1.94578 -0.741642,2.47617 -0.329625,0.28487 -0.848558,0.48489 -1.064606,0.82797 0.686633,-0.008 1.348854,0.51865 1.168835,1.26346 -0.163087,0.64292 -0.399453,1.26926 -0.567555,1.9077 0.515485,0.27682 1.168337,0.17157 1.734352,0.32543 1.114474,0.1897 2.288781,0.0525 3.295125,-0.4769 0.947636,-0.51212 2.039601,-0.26416 3.057154,-0.2073 0.603604,0.0241 1.280187,-0.0439 1.761037,-0.43976 0.438354,-0.65661 0.476957,-1.48447 0.667409,-2.23199 0.165888,-0.57909 0.170603,-1.17058 -0.217227,-1.66433 -0.363426,-0.79552 0.118378,-1.61158 0.496864,-2.29963 0.10351,-0.59613 -0.158753,-1.20435 -0.187085,-1.80695 -0.188905,-0.63255 0.286972,-1.17562 0.326736,-1.78962 0.05913,-0.68106 -0.801144,-0.61754 -1.246342,-0.50518 -1.075988,0.26057 -2.148411,0.77158 -2.818833,1.68416 -0.421147,0.49932 -0.946887,1.06157 -1.662401,1.01215 -0.135756,0.006 -0.272061,0.0106 -0.40643,0.0323 z" />
  <path
     id="path356"
     style="fill:#4e5a3d;fill-opacity:1;stroke:#4e5a3d;stroke-width:0.264583px;stroke-linecap:butt;stroke-linejoin:miter;stroke-opacity:1"
     d="m 10.713675,62.016317 c 0.932804,-0.96692 3.410926,-1.92829 4.216053,-0.85677 -0.147064,1.24302 -1.23588,3.19043 0.614933,3.66954 1.319247,0.45864 3.068907,-0.145 4.077122,1.01336 0.07065,1.35443 -0.421584,3.08672 1.622967,3.04045 1.80127,0.36945 3.447656,1.25187 5.267147,1.55854 1.788129,0.56207 1.321771,2.77893 0.457628,3.95466 -0.49654,1.46588 -1.529419,2.638 -3.062183,3.05252 -1.057414,0.1907 -1.983715,0.45446 -2.292312,1.54084 -1.101225,0.47989 -2.32455,0.80988 -1.957692,2.35525 0.229898,1.17633 -1.045186,3.2976 -0.286185,3.93066 1.385015,-0.91852 2.567492,-2.13421 3.972064,-3.03465 1.40609,-0.14513 2.490195,-1.39036 3.925678,-1.4783 -0.08684,0.92424 -0.279975,1.72 0.351447,2.39791 -0.316321,1.59052 -1.756038,2.78424 -1.69582,4.48965 -0.639388,1.82098 -2.697959,2.56614 -4.067098,3.76233 -1.186542,0.64559 -1.956391,1.9085 -0.400838,2.66803 1.5738,0.72235 0.162606,2.34189 -0.08077,3.02454 0.551262,0.061 2.102075,0.80048 0.598682,0.77733 -1.867862,0.67904 -3.794933,1.26581 -5.540255,2.227973 -1.03851,1.71234 -1.704884,-1.140363 -1.713572,-2.060323 -0.583288,-1.77451 0.275779,-3.51437 1.146615,-5.0205 1.110369,-1.64121 1.786556,-3.79818 3.714371,-4.67843 0.574137,-0.53318 2.790228,-1.15962 2.278351,-1.85705 -1.353304,-0.17661 -2.722895,1.31998 -3.773079,-0.11624 -1.851754,-0.20891 -3.71811,0.38586 -5.564458,0.22703 -1.017397,-1.66471 2.427256,-2.15932 1.012027,-3.7358 0.683234,-1.10186 0.710705,-2.11222 -0.172657,-3.08466 -0.213388,-1.14698 -0.08561,-2.42604 -0.493091,-3.35093 0.273296,-1.19833 3.256446,-2.11616 1.372662,-3.12911 -1.520304,-1.23798 -1.363673,-3.55776 -2.896175,-4.83706 -0.846895,-1.12659 -1.3939706,-2.47939 -1.8377658,-3.79782 -0.099671,-1.02862 0.5738348,-1.91882 1.2061998,-2.65297 z" />
  <path
     id="path367"
     style="fill:#66a96f;fill-opacity:1;stroke:#66a96f;stroke-width:0.264583px;stroke-linecap:butt;stroke-linejoin:miter;stroke-opacity:1"
     d="m 272.85724,92.838157 c -2.57129,2.14798 -5.4239,3.9754 -7.67603,6.48386 -2.07405,2.142153 -3.52528,4.817563 -4.77186,7.500463 -0.88238,2.57546 -1.18177,5.31278 -1.56293,7.99358 -0.19128,2.52822 0.97249,4.84607 1.49271,7.26276 0.66101,2.21764 2.58724,3.9023 4.91046,4.15566 2.46969,0.41338 5.69784,0.55465 7.33201,-1.71541 1.14446,-1.12613 0.57438,-2.97468 -1.19989,-2.25397 -1.84534,-0.20448 -3.74651,-0.0518 -5.55277,-0.47087 -2.3324,-0.66886 -2.20038,-3.65202 -1.06144,-5.31724 1.36947,-2.35306 1.81917,-5.11759 3.33715,-7.40435 1.83571,-3.37117 3.34362,-6.92625 4.54713,-10.563433 0.23577,-1.83427 1.31486,-4.0247 0.55954,-5.71312 z" />
  <path
     id="path373"
     style="fill:#91bc92;fill-opacity:1;stroke:#91bc92;stroke-width:0.264583px;stroke-linecap:butt;stroke-linejoin:miter;stroke-opacity:1"
     d="m 282.21685,42.784607 c -2.68973,1.07994 -1.96921,5.70594 -3.37727,8.14723 -1.57558,4.4282 -1.90335,9.13446 -2.41372,13.76451 -0.59431,3.61086 -2.15502,6.97517 -2.66725,10.60227 -1.39456,4.25679 -1.23569,8.81038 -2.66877,13.05427 -0.59225,2.92234 -1.58354,5.71842 -2.85501,8.41236 -0.85741,3.01566 -1.88947,6.038133 -3.72893,8.614883 -1.53197,3.51487 -1.9135,7.47764 -1.75479,11.2877 0.52432,2.54798 2.84766,5.12734 5.53114,5.34432 2.17071,-0.91723 1.18159,-4.44611 2.22175,-6.36664 1.62362,-6.42024 3.23657,-12.85543 5.13406,-19.208073 0.74116,-3.58952 1.53301,-7.17343 2.99285,-10.55489 1.54843,-4.72454 2.22643,-9.68258 3.17653,-14.54401 1.01213,-2.95927 1.5701,-6.07414 1.89371,-9.17277 0.24728,-3.87377 0.62127,-7.80096 -0.4333,-11.60648 -0.60547,-2.5536 0.055,-5.3393 -1.051,-7.77468 z" />
  <path
     id="path382"
     style="fill:#509c5b;fill-opacity:1;stroke:#509c5b;stroke-width:0.264583px;stroke-linecap:butt;stroke-linejoin:miter;stroke-opacity:1"
     d="m 284.62211,46.408037 c 0.20175,-1.90019 -2.32034,-6.14779 -3.63992,-3.00772 -0.39964,4.39023 -1.21715,8.75141 -2.62786,12.93022 -0.53102,2.89812 -0.86713,5.79958 -0.96483,8.74847 -0.36448,5.76998 -1.6711,11.40854 -2.63842,17.09294 -0.96295,4.03996 -2.5204,7.90695 -3.29073,12.00167 -1.9179,6.755303 -2.63541,13.862433 -5.57985,20.304893 -0.95552,2.49519 -3.44102,7.37308 0.90848,7.92628 3.23366,1.82974 7.15477,0.88211 9.88864,-1.40453 2.8565,-1.17879 5.25272,-3.14165 7.97049,-4.62322 3.74867,-2.21408 6.40395,-5.67507 9.22339,-8.88556 2.11939,-2.32892 4.70837,-4.23187 6.61571,-6.74249 1.19865,-3.364083 -1.26323,-6.657503 -2.23908,-9.819863 -1.37581,-3.11876 -2.13267,-6.44507 -3.2351,-9.64923 -1.13754,-3.29537 -2.37196,-6.55583 -3.61801,-9.81573 -1.05866,-5.8888 -3.68251,-11.32515 -5.0826,-17.11892 -0.75896,-2.56374 -1.9817,-5.21837 -1.69031,-7.93721 z" />
  <path
     id="path396"
     style="fill:#cccccc;stroke:#cccccc;stroke-width:0.264583px;stroke-linecap:butt;stroke-linejoin:miter;stroke-opacity:1"
     d="m 293.82486,47.255067 c 1.45697,0.76015 1.07954,2.49304 1.48827,3.83215 0.38273,2.63683 -0.21943,5.30343 0.17951,7.9457 0.0717,1.86835 0.60296,3.66894 0.77161,5.52332 0.63354,2.42231 0.50011,4.98918 0.64561,7.43542 1.02081,-0.75887 0.0273,1.53684 0.16366,2.37335 -0.4886,3.61243 0.72806,7.15917 1.17527,10.70415 0.58578,3.16979 0.48646,6.44157 -0.26252,9.57826 -0.56104,1.46153 0.13429,5.530203 -0.0943,5.506533 -1.23417,-1.638203 -2.17056,-3.568213 -2.21601,-5.657053 -0.42416,-2.92661 -1.9628,-5.53824 -2.50786,-8.44041 -0.75031,-2.07711 -1.35211,-4.24981 -0.99326,-6.48678 0.0333,-0.82839 -0.0998,-2.60398 0.73573,-0.91478 0.16651,0.61763 2.1726,2.67023 1.75487,2.14311 0.96043,0.99762 -0.90639,-1.6042 -1.14349,-2.12278 -0.80485,-1.51105 -1.36013,-3.34362 -0.78149,-5.03001 0.36952,-2.63965 -0.41492,-5.29531 0.13024,-7.91704 0.16801,-3.31553 0.10255,-6.80165 -1.15932,-9.88881 0.8566,0.012 1.93224,2.09655 1.5097,-0.0787 -0.29665,-2.16479 -0.92324,-4.34388 -0.73127,-6.53967 0.26161,-0.47938 0.35785,-3.5766 1.33504,-1.96601 z" />
  <path
     id="path401"
     style="fill:#1a1a1a;stroke:#1a1a1a;stroke-width:0.264583px;stroke-linecap:butt;stroke-linejoin:miter;stroke-opacity:1"
     d="m 294.05145,55.286227 c 0.44107,4.54485 -0.17651,9.144 0.62998,13.66355 0.53558,6.61617 -0.19337,13.35503 1.44485,19.85631 0.27083,2.61546 0.53979,5.22029 0.99853,7.81606 0.19328,0.98467 0.57392,5.059393 0.92668,2.18156 -0.43751,-3.85208 -0.27228,-7.75963 -0.92916,-11.59519 -1.08219,-7.16538 -0.98276,-14.45086 -2.06988,-21.61886 0.004,-2.43316 -0.27835,-4.85623 -0.79325,-7.23116 -0.0799,-1.02316 0.0102,-2.06223 -0.20775,-3.07227 z" />
  <path
     id="path407"
     style="fill:#66a96f;fill-opacity:1;stroke:#66a96f;stroke-width:0.264583px;stroke-linecap:butt;stroke-linejoin:miter;stroke-opacity:1"
     d="m 298.5662,93.171837 c -0.27273,1.46579 2.26629,-0.36271 0.77868,0.9796 -1.56694,2.65903 -4.52354,3.90703 -6.50676,6.161213 -2.82801,2.70799 -5.46308,5.61179 -7.74894,8.79388 -1.94795,2.38421 -3.99228,4.69039 -6.06648,6.9602 -1.72733,1.63579 -3.5464,3.18373 -5.05878,5.02599 -1.71601,2.16755 -4.44069,1.35355 -6.63953,1.74029 -2.25321,1.51493 0.59305,4.58757 2.66342,3.93642 2.35756,-0.68255 4.12258,-2.66502 6.5227,-3.36153 4.0874,-1.69954 8.29803,-3.13421 12.29784,-5.03004 2.92286,-1.72565 6.29063,-2.50627 9.21138,-4.24724 3.1236,-1.62468 6.57522,-2.87367 8.91692,-5.64494 2.4241,-2.11612 0.008,-5.01027 -0.37393,-7.42523 -0.89771,-2.630993 -2.18956,-5.112643 -2.99285,-7.777793 -0.55619,-2.22297 -2.54684,-3.72036 -4.61747,-4.06517 -0.18345,1.30809 -0.24886,2.63822 -0.3862,3.95435 z" />
</svg>
