<?xml version="1.0" encoding="UTF-8" standalone="no"?>
<svg
   xmlns:dc="http://purl.org/dc/elements/1.1/"
   xmlns:cc="http://creativecommons.org/ns#"
   xmlns:rdf="http://www.w3.org/1999/02/22-rdf-syntax-ns#"
   xmlns:svg="http://www.w3.org/2000/svg"
   xmlns="http://www.w3.org/2000/svg"
   xmlns:sodipodi="http://sodipodi.sourceforge.net/DTD/sodipodi-0.dtd"
   xmlns:inkscape="http://www.inkscape.org/namespaces/inkscape"
   width="1200"
   height="600"
   viewBox="0 0 317.5 158.75"
   version="1.1"
   id="svg8"
   inkscape:version="1.0 (4035a4fb49, 2020-05-01)"
   sodipodi:docname="stew.svg">
  <defs
     id="defs2">
    <inkscape:path-effect
       lpeversion="1"
       is_visible="true"
       id="path-effect475"
       effect="spiro" />
    <inkscape:path-effect
       simplify_just_coalesce="false"
       simplify_individual_paths="false"
       helper_size="0"
       smooth_angles="360"
       threshold="0.000408163"
       steps="1"
       lpeversion="1"
       is_visible="true"
       id="path-effect473"
       effect="simplify" />
    <inkscape:path-effect
       lpeversion="1"
       is_visible="true"
       id="path-effect469"
       effect="spiro" />
    <inkscape:path-effect
       simplify_just_coalesce="false"
       simplify_individual_paths="false"
       helper_size="0"
       smooth_angles="360"
       threshold="0.000408163"
       steps="1"
       lpeversion="1"
       is_visible="true"
       id="path-effect467"
       effect="simplify" />
    <inkscape:path-effect
       lpeversion="1"
       is_visible="true"
       id="path-effect459"
       effect="spiro" />
    <inkscape:path-effect
       simplify_just_coalesce="false"
       simplify_individual_paths="false"
       helper_size="0"
       smooth_angles="360"
       threshold="0.000408163"
       steps="1"
       lpeversion="1"
       is_visible="true"
       id="path-effect457"
       effect="simplify" />
    <inkscape:path-effect
       lpeversion="1"
       is_visible="true"
       id="path-effect453"
       effect="spiro" />
    <inkscape:path-effect
       simplify_just_coalesce="false"
       simplify_individual_paths="false"
       helper_size="0"
       smooth_angles="360"
       threshold="0.000408163"
       steps="1"
       lpeversion="1"
       is_visible="true"
       id="path-effect451"
       effect="simplify" />
    <inkscape:path-effect
       lpeversion="1"
       is_visible="true"
       id="path-effect447"
       effect="spiro" />
    <inkscape:path-effect
       simplify_just_coalesce="false"
       simplify_individual_paths="false"
       helper_size="0"
       smooth_angles="360"
       threshold="0.000408163"
       steps="1"
       lpeversion="1"
       is_visible="true"
       id="path-effect445"
       effect="simplify" />
    <inkscape:path-effect
       lpeversion="1"
       is_visible="true"
       id="path-effect441"
       effect="spiro" />
    <inkscape:path-effect
       simplify_just_coalesce="false"
       simplify_individual_paths="false"
       helper_size="0"
       smooth_angles="360"
       threshold="0.000408163"
       steps="1"
       lpeversion="1"
       is_visible="true"
       id="path-effect439"
       effect="simplify" />
    <inkscape:path-effect
       lpeversion="1"
       is_visible="true"
       id="path-effect430"
       effect="spiro" />
    <inkscape:path-effect
       simplify_just_coalesce="false"
       simplify_individual_paths="false"
       helper_size="0"
       smooth_angles="360"
       threshold="0.000408163"
       steps="1"
       lpeversion="1"
       is_visible="true"
       id="path-effect428"
       effect="simplify" />
    <inkscape:path-effect
       lpeversion="1"
       is_visible="true"
       id="path-effect424"
       effect="spiro" />
    <inkscape:path-effect
       simplify_just_coalesce="false"
       simplify_individual_paths="false"
       helper_size="0"
       smooth_angles="360"
       threshold="0.000408163"
       steps="1"
       lpeversion="1"
       is_visible="true"
       id="path-effect422"
       effect="simplify" />
    <inkscape:path-effect
       lpeversion="1"
       is_visible="true"
       id="path-effect412"
       effect="spiro" />
    <inkscape:path-effect
       simplify_just_coalesce="false"
       simplify_individual_paths="false"
       helper_size="0"
       smooth_angles="360"
       threshold="0.000408163"
       steps="1"
       lpeversion="1"
       is_visible="true"
       id="path-effect410"
       effect="simplify" />
    <inkscape:path-effect
       lpeversion="1"
       is_visible="true"
       id="path-effect406"
       effect="spiro" />
    <inkscape:path-effect
       simplify_just_coalesce="false"
       simplify_individual_paths="false"
       helper_size="0"
       smooth_angles="360"
       threshold="0.000408163"
       steps="1"
       lpeversion="1"
       is_visible="true"
       id="path-effect404"
       effect="simplify" />
    <inkscape:path-effect
       lpeversion="1"
       is_visible="true"
       id="path-effect400"
       effect="spiro" />
    <inkscape:path-effect
       simplify_just_coalesce="false"
       simplify_individual_paths="false"
       helper_size="0"
       smooth_angles="360"
       threshold="0.000408163"
       steps="1"
       lpeversion="1"
       is_visible="true"
       id="path-effect398"
       effect="simplify" />
    <inkscape:path-effect
       lpeversion="1"
       is_visible="true"
       id="path-effect394"
       effect="spiro" />
    <inkscape:path-effect
       simplify_just_coalesce="false"
       simplify_individual_paths="false"
       helper_size="0"
       smooth_angles="360"
       threshold="0.000408163"
       steps="1"
       lpeversion="1"
       is_visible="true"
       id="path-effect392"
       effect="simplify" />
    <inkscape:path-effect
       lpeversion="1"
       is_visible="true"
       id="path-effect388"
       effect="spiro" />
    <inkscape:path-effect
       simplify_just_coalesce="false"
       simplify_individual_paths="false"
       helper_size="0"
       smooth_angles="360"
       threshold="0.000408163"
       steps="1"
       lpeversion="1"
       is_visible="true"
       id="path-effect386"
       effect="simplify" />
    <inkscape:path-effect
       lpeversion="1"
       is_visible="true"
       id="path-effect379"
       effect="spiro" />
    <inkscape:path-effect
       simplify_just_coalesce="false"
       simplify_individual_paths="false"
       helper_size="0"
       smooth_angles="360"
       threshold="0.000408163"
       steps="1"
       lpeversion="1"
       is_visible="true"
       id="path-effect377"
       effect="simplify" />
    <inkscape:path-effect
       lpeversion="1"
       is_visible="true"
       id="path-effect373"
       effect="spiro" />
    <inkscape:path-effect
       simplify_just_coalesce="false"
       simplify_individual_paths="false"
       helper_size="0"
       smooth_angles="360"
       threshold="0.000408163"
       steps="1"
       lpeversion="1"
       is_visible="true"
       id="path-effect371"
       effect="simplify" />
    <inkscape:path-effect
       lpeversion="1"
       is_visible="true"
       id="path-effect367"
       effect="spiro" />
    <inkscape:path-effect
       simplify_just_coalesce="false"
       simplify_individual_paths="false"
       helper_size="0"
       smooth_angles="360"
       threshold="0.000408163"
       steps="1"
       lpeversion="1"
       is_visible="true"
       id="path-effect365"
       effect="simplify" />
    <inkscape:path-effect
       lpeversion="1"
       is_visible="true"
       id="path-effect361"
       effect="spiro" />
    <inkscape:path-effect
       simplify_just_coalesce="false"
       simplify_individual_paths="false"
       helper_size="0"
       smooth_angles="360"
       threshold="0.000408163"
       steps="1"
       lpeversion="1"
       is_visible="true"
       id="path-effect359"
       effect="simplify" />
    <inkscape:path-effect
       lpeversion="1"
       is_visible="true"
       id="path-effect355"
       effect="spiro" />
    <inkscape:path-effect
       simplify_just_coalesce="false"
       simplify_individual_paths="false"
       helper_size="0"
       smooth_angles="360"
       threshold="0.000408163"
       steps="1"
       lpeversion="1"
       is_visible="true"
       id="path-effect353"
       effect="simplify" />
    <inkscape:path-effect
       lpeversion="1"
       is_visible="true"
       id="path-effect349"
       effect="spiro" />
    <inkscape:path-effect
       simplify_just_coalesce="false"
       simplify_individual_paths="false"
       helper_size="0"
       smooth_angles="360"
       threshold="0.000408163"
       steps="1"
       lpeversion="1"
       is_visible="true"
       id="path-effect347"
       effect="simplify" />
    <inkscape:path-effect
       lpeversion="1"
       is_visible="true"
       id="path-effect343"
       effect="spiro" />
    <inkscape:path-effect
       simplify_just_coalesce="false"
       simplify_individual_paths="false"
       helper_size="0"
       smooth_angles="360"
       threshold="0.000408163"
       steps="1"
       lpeversion="1"
       is_visible="true"
       id="path-effect341"
       effect="simplify" />
    <inkscape:path-effect
       lpeversion="1"
       is_visible="true"
       id="path-effect332"
       effect="spiro" />
    <inkscape:path-effect
       simplify_just_coalesce="false"
       simplify_individual_paths="false"
       helper_size="0"
       smooth_angles="360"
       threshold="0.000408163"
       steps="1"
       lpeversion="1"
       is_visible="true"
       id="path-effect330"
       effect="simplify" />
    <inkscape:path-effect
       lpeversion="1"
       is_visible="true"
       id="path-effect324"
       effect="spiro" />
    <inkscape:path-effect
       simplify_just_coalesce="false"
       simplify_individual_paths="false"
       helper_size="0"
       smooth_angles="360"
       threshold="0.000408163"
       steps="1"
       lpeversion="1"
       is_visible="true"
       id="path-effect322"
       effect="simplify" />
    <inkscape:path-effect
       lpeversion="1"
       is_visible="true"
       id="path-effect316"
       effect="spiro" />
    <inkscape:path-effect
       simplify_just_coalesce="false"
       simplify_individual_paths="false"
       helper_size="0"
       smooth_angles="360"
       threshold="0.000408163"
       steps="1"
       lpeversion="1"
       is_visible="true"
       id="path-effect314"
       effect="simplify" />
    <inkscape:path-effect
       lpeversion="1"
       is_visible="true"
       id="path-effect308"
       effect="spiro" />
    <inkscape:path-effect
       simplify_just_coalesce="false"
       simplify_individual_paths="false"
       helper_size="0"
       smooth_angles="360"
       threshold="0.000408163"
       steps="1"
       lpeversion="1"
       is_visible="true"
       id="path-effect306"
       effect="simplify" />
    <inkscape:path-effect
       lpeversion="1"
       is_visible="true"
       id="path-effect302"
       effect="spiro" />
    <inkscape:path-effect
       simplify_just_coalesce="false"
       simplify_individual_paths="false"
       helper_size="0"
       smooth_angles="360"
       threshold="0.000408163"
       steps="1"
       lpeversion="1"
       is_visible="true"
       id="path-effect300"
       effect="simplify" />
    <inkscape:path-effect
       lpeversion="1"
       is_visible="true"
       id="path-effect294"
       effect="spiro" />
    <inkscape:path-effect
       simplify_just_coalesce="false"
       simplify_individual_paths="false"
       helper_size="0"
       smooth_angles="360"
       threshold="0.000408163"
       steps="1"
       lpeversion="1"
       is_visible="true"
       id="path-effect292"
       effect="simplify" />
    <inkscape:path-effect
       lpeversion="1"
       is_visible="true"
       id="path-effect286"
       effect="spiro" />
    <inkscape:path-effect
       simplify_just_coalesce="false"
       simplify_individual_paths="false"
       helper_size="0"
       smooth_angles="360"
       threshold="0.000408163"
       steps="1"
       lpeversion="1"
       is_visible="true"
       id="path-effect284"
       effect="simplify" />
    <inkscape:path-effect
       lpeversion="1"
       is_visible="true"
       id="path-effect278"
       effect="spiro" />
    <inkscape:path-effect
       simplify_just_coalesce="false"
       simplify_individual_paths="false"
       helper_size="0"
       smooth_angles="360"
       threshold="0.000408163"
       steps="1"
       lpeversion="1"
       is_visible="true"
       id="path-effect276"
       effect="simplify" />
    <inkscape:path-effect
       lpeversion="1"
       is_visible="true"
       id="path-effect270"
       effect="spiro" />
    <inkscape:path-effect
       simplify_just_coalesce="false"
       simplify_individual_paths="false"
       helper_size="0"
       smooth_angles="360"
       threshold="0.000408163"
       steps="1"
       lpeversion="1"
       is_visible="true"
       id="path-effect268"
       effect="simplify" />
    <inkscape:path-effect
       lpeversion="1"
       is_visible="true"
       id="path-effect262"
       effect="spiro" />
    <inkscape:path-effect
       simplify_just_coalesce="false"
       simplify_individual_paths="false"
       helper_size="0"
       smooth_angles="360"
       threshold="0.000408163"
       steps="1"
       lpeversion="1"
       is_visible="true"
       id="path-effect260"
       effect="simplify" />
    <inkscape:path-effect
       lpeversion="1"
       is_visible="true"
       id="path-effect254"
       effect="spiro" />
    <inkscape:path-effect
       simplify_just_coalesce="false"
       simplify_individual_paths="false"
       helper_size="0"
       smooth_angles="360"
       threshold="0.000408163"
       steps="1"
       lpeversion="1"
       is_visible="true"
       id="path-effect252"
       effect="simplify" />
    <inkscape:path-effect
       lpeversion="1"
       is_visible="true"
       id="path-effect246"
       effect="spiro" />
    <inkscape:path-effect
       simplify_just_coalesce="false"
       simplify_individual_paths="false"
       helper_size="0"
       smooth_angles="360"
       threshold="0.000408163"
       steps="1"
       lpeversion="1"
       is_visible="true"
       id="path-effect244"
       effect="simplify" />
    <inkscape:path-effect
       lpeversion="1"
       is_visible="true"
       id="path-effect238"
       effect="spiro" />
    <inkscape:path-effect
       simplify_just_coalesce="false"
       simplify_individual_paths="false"
       helper_size="0"
       smooth_angles="360"
       threshold="0.000408163"
       steps="1"
       lpeversion="1"
       is_visible="true"
       id="path-effect236"
       effect="simplify" />
    <inkscape:path-effect
       lpeversion="1"
       is_visible="true"
       id="path-effect230"
       effect="spiro" />
    <inkscape:path-effect
       simplify_just_coalesce="false"
       simplify_individual_paths="false"
       helper_size="0"
       smooth_angles="360"
       threshold="0.000408163"
       steps="1"
       lpeversion="1"
       is_visible="true"
       id="path-effect228"
       effect="simplify" />
    <inkscape:path-effect
       lpeversion="1"
       is_visible="true"
       id="path-effect222"
       effect="spiro" />
    <inkscape:path-effect
       simplify_just_coalesce="false"
       simplify_individual_paths="false"
       helper_size="0"
       smooth_angles="360"
       threshold="0.000408163"
       steps="1"
       lpeversion="1"
       is_visible="true"
       id="path-effect220"
       effect="simplify" />
    <inkscape:path-effect
       lpeversion="1"
       is_visible="true"
       id="path-effect214"
       effect="spiro" />
    <inkscape:path-effect
       simplify_just_coalesce="false"
       simplify_individual_paths="false"
       helper_size="0"
       smooth_angles="360"
       threshold="0.000408163"
       steps="1"
       lpeversion="1"
       is_visible="true"
       id="path-effect212"
       effect="simplify" />
    <inkscape:path-effect
       lpeversion="1"
       is_visible="true"
       id="path-effect206"
       effect="spiro" />
    <inkscape:path-effect
       simplify_just_coalesce="false"
       simplify_individual_paths="false"
       helper_size="0"
       smooth_angles="360"
       threshold="0.000408163"
       steps="1"
       lpeversion="1"
       is_visible="true"
       id="path-effect204"
       effect="simplify" />
    <inkscape:path-effect
       lpeversion="1"
       is_visible="true"
       id="path-effect198"
       effect="spiro" />
    <inkscape:path-effect
       simplify_just_coalesce="false"
       simplify_individual_paths="false"
       helper_size="0"
       smooth_angles="360"
       threshold="0.000408163"
       steps="1"
       lpeversion="1"
       is_visible="true"
       id="path-effect196"
       effect="simplify" />
    <inkscape:path-effect
       lpeversion="1"
       is_visible="true"
       id="path-effect190"
       effect="spiro" />
    <inkscape:path-effect
       simplify_just_coalesce="false"
       simplify_individual_paths="false"
       helper_size="0"
       smooth_angles="360"
       threshold="0.000408163"
       steps="1"
       lpeversion="1"
       is_visible="true"
       id="path-effect188"
       effect="simplify" />
    <inkscape:path-effect
       lpeversion="1"
       is_visible="true"
       id="path-effect182"
       effect="spiro" />
    <inkscape:path-effect
       simplify_just_coalesce="false"
       simplify_individual_paths="false"
       helper_size="0"
       smooth_angles="360"
       threshold="0.000408163"
       steps="1"
       lpeversion="1"
       is_visible="true"
       id="path-effect180"
       effect="simplify" />
    <inkscape:path-effect
       lpeversion="1"
       is_visible="true"
       id="path-effect176"
       effect="spiro" />
    <inkscape:path-effect
       simplify_just_coalesce="false"
       simplify_individual_paths="false"
       helper_size="0"
       smooth_angles="360"
       threshold="0.000408163"
       steps="1"
       lpeversion="1"
       is_visible="true"
       id="path-effect174"
       effect="simplify" />
    <inkscape:path-effect
       lpeversion="1"
       is_visible="true"
       id="path-effect168"
       effect="spiro" />
    <inkscape:path-effect
       simplify_just_coalesce="false"
       simplify_individual_paths="false"
       helper_size="0"
       smooth_angles="360"
       threshold="0.000408163"
       steps="1"
       lpeversion="1"
       is_visible="true"
       id="path-effect166"
       effect="simplify" />
    <inkscape:path-effect
       lpeversion="1"
       is_visible="true"
       id="path-effect160"
       effect="spiro" />
    <inkscape:path-effect
       simplify_just_coalesce="false"
       simplify_individual_paths="false"
       helper_size="0"
       smooth_angles="360"
       threshold="0.000408163"
       steps="1"
       lpeversion="1"
       is_visible="true"
       id="path-effect158"
       effect="simplify" />
    <inkscape:path-effect
       lpeversion="1"
       is_visible="true"
       id="path-effect152"
       effect="spiro" />
    <inkscape:path-effect
       simplify_just_coalesce="false"
       simplify_individual_paths="false"
       helper_size="0"
       smooth_angles="360"
       threshold="0.000408163"
       steps="1"
       lpeversion="1"
       is_visible="true"
       id="path-effect150"
       effect="simplify" />
    <inkscape:path-effect
       lpeversion="1"
       is_visible="true"
       id="path-effect146"
       effect="spiro" />
    <inkscape:path-effect
       simplify_just_coalesce="false"
       simplify_individual_paths="false"
       helper_size="0"
       smooth_angles="360"
       threshold="0.000408163"
       steps="1"
       lpeversion="1"
       is_visible="true"
       id="path-effect144"
       effect="simplify" />
    <inkscape:path-effect
       lpeversion="1"
       is_visible="true"
       id="path-effect138"
       effect="spiro" />
    <inkscape:path-effect
       simplify_just_coalesce="false"
       simplify_individual_paths="false"
       helper_size="0"
       smooth_angles="360"
       threshold="0.000408163"
       steps="1"
       lpeversion="1"
       is_visible="true"
       id="path-effect136"
       effect="simplify" />
    <inkscape:path-effect
       lpeversion="1"
       is_visible="true"
       id="path-effect130"
       effect="spiro" />
    <inkscape:path-effect
       simplify_just_coalesce="false"
       simplify_individual_paths="false"
       helper_size="0"
       smooth_angles="360"
       threshold="0.000408163"
       steps="1"
       lpeversion="1"
       is_visible="true"
       id="path-effect128"
       effect="simplify" />
    <inkscape:path-effect
       lpeversion="1"
       is_visible="true"
       id="path-effect122"
       effect="spiro" />
    <inkscape:path-effect
       simplify_just_coalesce="false"
       simplify_individual_paths="false"
       helper_size="0"
       smooth_angles="360"
       threshold="0.000408163"
       steps="1"
       lpeversion="1"
       is_visible="true"
       id="path-effect120"
       effect="simplify" />
    <inkscape:path-effect
       lpeversion="1"
       is_visible="true"
       id="path-effect114"
       effect="spiro" />
    <inkscape:path-effect
       simplify_just_coalesce="false"
       simplify_individual_paths="false"
       helper_size="0"
       smooth_angles="360"
       threshold="0.000408163"
       steps="1"
       lpeversion="1"
       is_visible="true"
       id="path-effect112"
       effect="simplify" />
    <inkscape:path-effect
       lpeversion="1"
       is_visible="true"
       id="path-effect108"
       effect="spiro" />
    <inkscape:path-effect
       simplify_just_coalesce="false"
       simplify_individual_paths="false"
       helper_size="0"
       smooth_angles="360"
       threshold="0.000408163"
       steps="1"
       lpeversion="1"
       is_visible="true"
       id="path-effect106"
       effect="simplify" />
    <inkscape:path-effect
       lpeversion="1"
       is_visible="true"
       id="path-effect100"
       effect="spiro" />
    <inkscape:path-effect
       simplify_just_coalesce="false"
       simplify_individual_paths="false"
       helper_size="0"
       smooth_angles="360"
       threshold="0.000408163"
       steps="1"
       lpeversion="1"
       is_visible="true"
       id="path-effect98"
       effect="simplify" />
    <inkscape:path-effect
       lpeversion="1"
       is_visible="true"
       id="path-effect92"
       effect="spiro" />
    <inkscape:path-effect
       simplify_just_coalesce="false"
       simplify_individual_paths="false"
       helper_size="0"
       smooth_angles="360"
       threshold="0.000408163"
       steps="1"
       lpeversion="1"
       is_visible="true"
       id="path-effect90"
       effect="simplify" />
    <inkscape:path-effect
       lpeversion="1"
       is_visible="true"
       id="path-effect84"
       effect="spiro" />
    <inkscape:path-effect
       simplify_just_coalesce="false"
       simplify_individual_paths="false"
       helper_size="0"
       smooth_angles="360"
       threshold="0.000408163"
       steps="1"
       lpeversion="1"
       is_visible="true"
       id="path-effect82"
       effect="simplify" />
    <inkscape:path-effect
       lpeversion="1"
       is_visible="true"
       id="path-effect75"
       effect="spiro" />
    <inkscape:path-effect
       simplify_just_coalesce="false"
       simplify_individual_paths="false"
       helper_size="0"
       smooth_angles="360"
       threshold="0.000408163"
       steps="1"
       lpeversion="1"
       is_visible="true"
       id="path-effect73"
       effect="simplify" />
    <inkscape:path-effect
       lpeversion="1"
       is_visible="true"
       id="path-effect64"
       effect="spiro" />
    <inkscape:path-effect
       simplify_just_coalesce="false"
       simplify_individual_paths="false"
       helper_size="0"
       smooth_angles="360"
       threshold="0.000408163"
       steps="1"
       lpeversion="1"
       is_visible="true"
       id="path-effect62"
       effect="simplify" />
    <inkscape:path-effect
       lpeversion="1"
       is_visible="true"
       id="path-effect54"
       effect="spiro" />
    <inkscape:path-effect
       simplify_just_coalesce="false"
       simplify_individual_paths="false"
       helper_size="0"
       smooth_angles="360"
       threshold="0.000408163"
       steps="1"
       lpeversion="1"
       is_visible="true"
       id="path-effect52"
       effect="simplify" />
    <inkscape:path-effect
       lpeversion="1"
       is_visible="true"
       id="path-effect44"
       effect="spiro" />
    <inkscape:path-effect
       simplify_just_coalesce="false"
       simplify_individual_paths="false"
       helper_size="0"
       smooth_angles="360"
       threshold="0.000408163"
       steps="1"
       lpeversion="1"
       is_visible="true"
       id="path-effect42"
       effect="simplify" />
    <inkscape:path-effect
       lpeversion="1"
       is_visible="true"
       id="path-effect31"
       effect="spiro" />
    <inkscape:path-effect
       simplify_just_coalesce="false"
       simplify_individual_paths="false"
       helper_size="0"
       smooth_angles="360"
       threshold="0.000408163"
       steps="1"
       lpeversion="1"
       is_visible="true"
       id="path-effect29"
       effect="simplify" />
  </defs>
  <sodipodi:namedview
     inkscape:snap-global="false"
     id="base"
     pagecolor="#ffffff"
     bordercolor="#666666"
     borderopacity="1.0"
     inkscape:pageopacity="0.0"
     inkscape:pageshadow="2"
     inkscape:zoom="1.4"
     inkscape:cx="598.95134"
     inkscape:cy="303.8649"
     inkscape:document-units="mm"
     inkscape:current-layer="layer1"
     showgrid="false"
     units="px"
     inkscape:window-width="1920"
     inkscape:window-height="1061"
     inkscape:window-x="0"
     inkscape:window-y="19"
     inkscape:window-maximized="0"
     inkscape:document-rotation="0" />
  <metadata
     id="metadata5">
    <rdf:RDF>
      <cc:Work
         rdf:about="">
        <dc:format>image/svg+xml</dc:format>
        <dc:type
           rdf:resource="http://purl.org/dc/dcmitype/StillImage" />
        <dc:title />
      </cc:Work>
    </rdf:RDF>
  </metadata>
  <g
     inkscape:label="Layer 1"
     inkscape:groupmode="layer"
     id="layer1"
     transform="translate(0,-138.25001)">
    <path
       d="m 75.079759,210.85871 c -8.509197,-18.30083 -0.882953,-40.05503 14.971742,-51.56806 15.398169,-11.64044 35.740689,-11.90925 54.037139,-15.18993 24.96383,-2.84703 50.60667,2.64908 73.0577,13.51762 20.97643,11.96714 33.64711,44.4533 15.09748,63.76524 0.98235,-14.83775 -11.52869,-26.34432 -20.1054,-36.99442 -21.96459,-20.90611 -55.14452,-24.85959 -83.38619,-16.42386 -16.98666,1.25213 -29.324589,12.69948 -40.650202,24.10568 -5.696905,5.11955 -11.213748,11.11331 -13.022269,18.78773 z"
       style="fill:#c1a782;stroke:#c1a782;stroke-width:0.264583px;stroke-linecap:butt;stroke-linejoin:miter;stroke-opacity:1;fill-opacity:1"
       id="path27" />
    <path
       d="m 238.52071,216.55423 c -3.0759,8.69331 -11.11362,13.97451 -16.68463,20.91178 -4.51743,4.02381 -11.36943,5.21 -14.57209,10.70486 -2.0891,4.32978 -2.24765,9.27257 -2.73509,13.97955 -0.29952,4.12092 -0.99454,8.25434 -2.43788,12.11732 -0.21621,2.53242 -1.83824,4.87824 -1.56918,7.43268 2.16304,0.10636 4.08516,-2.37128 6.31689,-3.02172 6.79538,-3.82379 12.37181,-9.64173 16.21651,-16.39523 3.3805,-4.93647 7.52411,-9.61484 8.92767,-15.59346 2.74966,-9.26489 3.96131,-18.90754 6.51086,-28.21635 0.0866,-0.63983 0.0556,-1.27685 0.0269,-1.91943 z"
       style="fill:#e8e3c6;stroke:#e8e3c6;stroke-width:0.264583px;stroke-linecap:butt;stroke-linejoin:miter;stroke-opacity:1;fill-opacity:1"
       id="path426" />
    <path
       sodipodi:nodetypes="ccccccccccccccccccccc"
       d="m 71.554958,200.477 c -1.001391,-4.66718 -3.754573,-9.29358 -8.355492,-11.1216 -4.346381,-3.01761 -9.77706,-6.74318 -11.662374,-12.02207 -1.614355,-4.31923 -0.965312,-9.45297 1.935347,-13.08186 2.987907,-1.70264 6.394252,-1.14064 3.159539,4.34973 -0.718446,2.4543 -0.101009,5.55621 1.147526,7.67509 1.665714,3.17981 4.701127,4.41249 9.278187,4.20316 4.83967,-0.0675 7.049677,-3.60687 8.785712,-6.83164 2.199742,-2.84744 5.169124,-5.5376 5.26037,-9.4907 -0.336565,-2.89262 -1.851031,-6.06157 -4.800329,-7.06311 -3.084389,-1.20131 -6.442059,-0.37255 -9.402182,0.74607 -3.642311,1.01832 -6.259121,4.02569 -8.233814,7.09488 -3.796904,7.42561 -3.214463,4.69984 -5.83858,4.53809 -2.741604,-1.54393 0.648151,-4.97342 1.558264,-6.80523 2.49395,-3.72887 6.116616,-6.66058 10.315241,-8.24211 5.206382,-2.77263 11.43344,-2.99497 17.079564,-1.60801 5.32834,0.1876 10.688636,1.26733 16.006175,0.35771 -2.833067,3.84861 -8.044718,4.56847 -11.354466,7.87724 -4.983436,4.29735 -7.186798,10.68876 -10.438845,16.2149 -1.743343,5.03974 -3.008202,10.23869 -4.9578,15.20805 -0.520257,2.6573 -0.198696,5.41273 0.517957,8.00141 z"
       style="fill:#e8e3c6;stroke:#e8e3c6;stroke-width:0.264583px;stroke-linecap:butt;stroke-linejoin:miter;stroke-opacity:1;fill-opacity:1"
       id="path40" />
    <path
       sodipodi:nodetypes="cccccccc"
       d="m 50.592421,172.65536 c 0.03285,4.07236 1.633223,6.36986 2.465494,9.53414 1.850558,3.7111 5.886757,5.53962 8.341911,8.78089 3.026413,3.15748 7.427729,5.25241 8.432795,9.94397 0.484958,1.66995 1.256165,4.98347 1.572479,1.37958 0.399021,-3.16093 -1.209574,-5.57928 -2.448262,-8.33776 -2.712606,-5.12957 -8.225046,-8.43182 -12.817536,-11.62839 -2.94921,-2.5865 -6.024174,-6.15553 -5.491023,-10.34962"
       style="fill:#c1a782;fill-opacity:1;stroke:#c1a782;stroke-width:0.264583px;stroke-linecap:butt;stroke-linejoin:miter;stroke-opacity:1"
       id="path50" />
    <path
       sodipodi:nodetypes="ccccccccc"
       d="m 57.456288,175.53616 c -0.491136,-3.70058 0.829342,-6.83658 3.610913,-9.35814 2.051971,-2.74357 4.620456,-5.96172 8.417939,-5.78271 4.091452,-0.17939 8.023297,2.52177 10.865887,5.24744 1.108563,1.84392 0.921483,-3.80866 0.264598,-5.36725 -1.836453,-3.31639 -5.944602,-4.72963 -9.545149,-3.93108 -5.329416,0.86558 -10.336495,3.97594 -13.049858,8.70836 -1.932621,2.84428 -2.255536,5.06866 -1.309835,8.32323 0.107233,0.57719 0.209363,1.82703 0.745505,2.16015 z"
       style="fill:#c1a782;stroke:#c1a782;stroke-width:0.264583px;stroke-linecap:butt;stroke-linejoin:miter;stroke-opacity:1;fill-opacity:1"
       id="path60" />
    <path
       d="m 95.851505,175.54634 c -13.265777,-1.21043 -11.206042,17.61796 -19.06313,24.53153 -5.217223,13.50805 7.531471,24.19685 15.637795,33.06074 14.53233,13.96077 35.40215,16.6381 54.14154,21.19242 17.38744,1.62209 35.10306,-1.70897 51.66363,-6.86235 10.36281,-4.38503 18.71409,-12.48892 29.11102,-17.03489 13.52008,-11.91477 11.69568,-34.90251 -2.60947,-45.41127 -9.91048,-8.24371 -15.28773,-21.80149 -29.42259,-24.13638 -13.52153,-5.29982 -28.95701,-11.91232 -43.29351,-5.37433 -12.3929,0.37342 -24.287,3.55098 -36.15143,6.72517 -7.71283,3.15275 -11.98177,10.43309 -20.013855,13.30936 z"
       style="fill:#62250b;stroke:#62250b;stroke-width:0.264583px;stroke-linecap:butt;stroke-linejoin:miter;stroke-opacity:1;fill-opacity:1"
       id="path71" />
    <path
       d="m 188.85197,241.82959 c 2.29273,1.27603 4.04199,5.59783 1.32321,7.20234 -4.22308,2.81036 -9.42762,2.78474 -14.25203,3.6527 -4.83836,-0.20248 -9.35817,1.59652 -14.00949,2.59222 -5.39545,0.75711 -10.71078,-1.20051 -16.11206,-0.66689 -3.11836,-0.11944 -5.48645,-2.3891 -7.59188,-4.40322 -2.3665,-2.84283 1.39103,-5.20757 2.6887,-7.48795 1.29665,-3.40286 4.07852,-6.18211 4.80882,-9.71574 -0.32293,-3.15667 2.08333,-5.49814 4.95805,-6.29118 2.90978,-1.02681 6.67328,-1.55856 8.7594,1.2628 2.90391,1.82341 2.73177,-3.98703 5.9471,-3.81109 3.84297,-0.975 7.8431,-2.89933 11.85059,-1.41202 2.51831,1.11786 6.28884,0.87867 7.38649,3.92864 1.21416,2.64325 -4.80264,3.69377 -3.9085,4.73058 3.09184,-0.68947 7.0829,-1.05741 8.31603,2.69647 2.17399,2.60602 -0.037,4.94031 -1.07447,6.9663 0.0977,0.42386 0.48574,0.74097 0.91004,0.75604 z"
       style="fill:#e0ad55;stroke:#e0ad55;stroke-width:0.264583px;stroke-linecap:butt;stroke-linejoin:miter;stroke-opacity:1;fill-opacity:1"
       id="path80" />
    <path
       d="m 223.16331,208.66578 c 3.46741,-0.11381 6.4159,-3.58639 5.37283,-7.03203 -0.38106,-2.64325 2.27346,-4.85229 1.30898,-7.42879 -0.84005,-3.60809 -5.8724,-0.005 -5.62118,-4.16048 -0.59063,-3.15139 -4.48147,-2.0047 -6.74411,-2.51342 -2.6677,-1.08886 -6.42978,-0.13298 -8.17008,-2.97841 -4.12995,-3.24603 -7.12648,4.11942 -11.48872,2.16899 -2.85059,0.19314 -5.23823,2.65114 -6.55634,4.99332 -0.1542,2.83677 -1.34593,5.35726 -3.19573,7.49645 -3.21248,3.29879 0.85859,6.41236 1.6577,9.69324 2.13245,2.37561 5.06006,4.65678 4.34715,8.28563 -0.43239,3.61201 2.94677,5.6639 6.06029,6.19602 2.94565,1.84504 7.79545,-2.29704 9.18554,1.71878 2.50984,-0.73051 3.70005,-4.98723 7.0957,-2.92111 3.09197,0.38496 4.63601,3.33536 7.26471,4.50591 2.73759,1.44871 5.32822,-0.56822 6.53821,-3.02294 1.35245,-4.05554 -1.50236,-8.17438 -0.49711,-12.2967 -0.85166,-2.70055 -4.65593,-0.64346 -6.34039,-2.55563 l -0.15386,-0.1053 z"
       style="fill:#e0ad55;stroke:#e0ad55;stroke-width:0.264583px;stroke-linecap:butt;stroke-linejoin:miter;stroke-opacity:1;fill-opacity:1"
       id="path88" />
    <path
       d="m 150.9419,153.78468 c -2.34916,1.51416 1.00476,6.15557 -2.79248,5.06207 -2.55397,-1.54199 -5.91589,-2.85427 -7.39595,0.86757 -2.2299,3.1642 -4.15011,6.58382 -5.54511,10.18936 0.20191,1.9788 -0.86954,5.10318 -0.45961,6.21202 3.3524,-0.27093 -1.7089,3.71912 1.84695,4.5326 2.2332,1.25698 4.83104,1.90461 6.85784,3.4957 1.72975,1.20073 -2.51855,4.91011 0.90988,3.92693 2.74657,-1.10589 5.85443,-0.98993 8.76463,-1.15526 3.77243,0.68464 7.5601,0.52855 11.36517,0.62289 2.66174,-0.5768 6.17069,1.00386 8.04238,-1.47758 1.03184,-1.83425 -3.03225,-3.18067 0.33194,-4.18312 3.44584,0.0977 7.47921,-0.47243 9.18863,-4.10561 1.69894,-3.15125 2.1544,-7.54135 -0.40478,-10.38517 -2.02643,-1.56174 -3.7933,-3.3114 -4.29743,-5.90458 -1.5916,-2.6554 -4.12422,-4.76766 -7.21225,-5.38497 -3.34647,-1.56824 -7.17126,-2.26449 -10.80357,-1.3172 -2.65733,-0.51851 -5.19665,-1.91667 -7.96254,-1.01712 l -0.43403,0.0215 z"
       style="fill:#e0ad55;stroke:#e0ad55;stroke-width:0.264583px;stroke-linecap:butt;stroke-linejoin:miter;stroke-opacity:1;fill-opacity:1"
       id="path96" />
    <path
       d="m 95.802205,188.52349 c 3.296261,-1.71021 7.339055,-2.58088 10.538905,-0.19645 3.07673,0.62074 6.09616,1.34762 8.96104,2.65814 2.95427,0.61702 6.12017,1.51974 7.6265,4.40917 -0.13688,2.38665 -1.48355,4.82588 1.50107,6.48552 1.12627,2.99181 1.78949,6.28424 2.90555,9.32167 -0.30739,3.75782 -4.38942,5.55123 -6.78726,8.03041 -4.93193,1.27561 0.16207,4.96528 2.82385,5.39493 3.25146,2.67543 -3.36201,3.66637 -5.20523,4.47413 -1.05313,3.89118 -4.08779,7.84247 -8.79487,7.08877 -3.23934,-0.89217 -6.79516,-0.17319 -9.813755,-1.90528 -4.143875,-0.4514 -4.762068,-4.20895 -5.460707,-7.41519 -2.170614,-2.60664 -5.723056,-3.42353 -8.508988,-5.24026 -3.586096,-1.46049 -8.021671,-3.65614 -8.195407,-8.09359 1.570324,-3.06396 -1.343826,-4.87943 -2.545663,-7.26157 4.161565,-1.38471 0.317263,-4.05191 -0.911786,-5.83428 1.772693,-4.31992 7.235844,-3.17871 10.756239,-3.62509 3.04973,-2.32386 3.810924,-7.70124 8.276254,-7.96922 0.948154,0.003 1.950052,0.1112 2.834258,-0.32181 z"
       style="fill:#e0ad55;stroke:#e0ad55;stroke-width:0.264583px;stroke-linecap:butt;stroke-linejoin:miter;stroke-opacity:1;fill-opacity:1"
       id="path110" />
    <path
       d="m 186.51032,168.11499 c 3.512,0.31946 6.4205,2.79629 9.98604,2.88688 2.90597,0.34059 6.12405,0.0742 8.66633,1.75767 1.67602,1.25432 2.23309,3.38008 3.29363,5.09635 0.33832,1.36867 0.45487,2.78371 0.92604,4.12349 0.76784,1.75721 -1.16639,2.55422 -2.59055,2.10267 -1.75866,-0.24267 -2.88544,1.31614 -4.22268,2.12847 -2.70312,0.65868 -5.5781,1.11181 -8.3603,0.6078 -1.86612,-0.54539 -1.88802,-2.76451 -2.7211,-4.17995 -0.95721,-2.0927 -2.96846,-3.46126 -3.82893,-5.61464 -1.15894,-2.41976 -1.95067,-4.98436 -2.5998,-7.58083 -0.75903,-0.97105 0.75268,-3.06139 1.45132,-1.32791 z"
       style="fill:#a1412c;stroke:#a1412c;stroke-width:0.264583px;stroke-linecap:butt;stroke-linejoin:miter;stroke-opacity:1;fill-opacity:1"
       id="path118" />
    <path
       d="m 175.71409,197.64076 c 0.93233,1.7622 1.94638,3.47463 3.06171,5.11982 0.72283,1.71041 1.28199,3.72409 0.74663,5.55773 -0.56616,1.75409 -2.66281,1.02896 -3.92048,1.84801 -1.65029,0.72387 -3.16514,1.8645 -4.99768,2.08847 -1.95365,0.9427 -2.04665,3.41593 -1.72239,5.28764 0.28129,1.41477 0.0755,3.83164 1.89936,4.142 1.6025,0.13663 2.41235,-1.36613 3.42214,-2.25506 1.47858,-0.52941 3.07013,0.12634 4.53566,0.42761 1.76639,0.48881 2.27232,3.00153 4.27002,2.98777 1.81492,-0.37502 2.26536,-2.49829 3.21382,-3.82444 1.27225,-1.26725 1.24008,-2.91697 2.44807,-4.12402 0.94703,-1.50935 2.42071,-2.62732 3.16817,-4.31082 1.24704,-0.97004 1.43047,-2.78878 -0.44921,-3.07999 -1.71942,-0.75171 -3.49475,-1.36224 -5.22801,-2.08568 -1.75903,-0.78961 -2.56775,-2.67434 -3.29666,-4.32366 -1.58965,-2.20058 -4.52919,-3.23914 -7.15115,-3.45538 z"
       style="fill:#a1412c;stroke:#a1412c;stroke-width:0.264583px;stroke-linecap:butt;stroke-linejoin:miter;stroke-opacity:1;fill-opacity:1"
       id="path126" />
    <path
       d="m 194.44729,240.72043 c 0.13013,-1.16693 1.48144,-1.36851 2.37465,-1.68924 1.42944,-0.55967 2.99537,-0.50225 4.44834,-0.0768 1.08868,0.46418 1.89944,-0.50335 2.50224,-1.271 0.91342,-1.0243 2.38313,-2.12357 3.79283,-1.38367 1.15598,0.61938 1.44167,2.07366 2.4799,2.81684 0.6781,1.0524 -0.35038,2.30648 -1.38301,2.60522 -1.72144,0.50633 -2.31526,2.35221 -3.39975,3.58483 -0.96165,0.97951 -2.61894,0.62233 -3.5915,1.59759 -1.06719,0.71597 -2.41779,0.71015 -3.64554,0.88565 -1.71443,0.1188 -3.23098,-0.90284 -4.55464,-1.86586 -0.93999,-0.64727 -1.70763,-2.11479 -0.81373,-3.10271 0.4964,-0.79992 2.36389,-0.82354 1.79021,-2.10082 z"
       style="fill:#a1412c;stroke:#a1412c;stroke-width:0.264583px;stroke-linecap:butt;stroke-linejoin:miter;stroke-opacity:1;fill-opacity:1"
       id="path134" />
    <path
       d="m 132.03615,189.52173 c 1.1109,-2.50861 4.25129,-3.56653 6.77342,-2.84498 1.50647,1.43185 2.36207,3.50693 4.15731,4.71296 2.13515,1.25686 3.63398,3.19958 5.14268,5.11663 2.02708,1.72239 3.21129,4.18492 4.20671,6.58969 -0.33988,1.56356 -2.85462,0.21759 -4.13146,0.69654 -2.05779,0.14373 -4.17567,-0.13315 -5.95899,-1.23709 -2.45865,-1.31086 -5.34266,-1.347 -8.05978,-1.33229 -3.44155,0.0972 -5.58574,3.05783 -7.86366,5.20586 -0.60624,1.18632 -4.06545,1.83416 -2.87257,-0.26288 0.71735,-1.80646 1.77376,-3.44302 3.2327,-4.73966 1.56664,-1.54645 2.81497,-3.73567 2.18501,-5.99508 -0.51044,-1.87952 0.0941,-3.75016 1.01456,-5.38899 0.20821,-0.84481 2.61245,-2.54227 2.17407,-0.52071 z"
       style="fill:#a1412c;stroke:#a1412c;stroke-width:0.264583px;stroke-linecap:butt;stroke-linejoin:miter;stroke-opacity:1;fill-opacity:1"
       id="path148" />
    <path
       d="m 102.80251,177.09917 c 1.56179,-0.8362 2.55513,-2.86424 4.3479,-3.08607 1.68756,0.47058 3.12924,1.62391 4.56435,2.59661 2.5299,2.16152 4.50763,5.05964 7.66128,6.41513 1.08002,0.78503 3.14994,3.10272 1.23448,3.98875 -2.07134,0.3492 -3.49876,2.05589 -5.49609,2.62339 -2.34022,0.69503 -4.9177,0.21429 -7.15369,-0.65147 -1.85638,-0.3895 -3.7913,-0.57023 -5.51331,-1.43946 -2.645935,-0.6913 -5.254506,0.33577 -7.65866,1.34573 -2.182286,0.86187 -5.028455,0.56801 -6.620492,-1.26463 -1.451871,-1.89878 0.196685,-4.34259 1.876317,-5.44582 1.616859,-1.67878 4.160415,-1.16438 5.944674,-2.43564 1.267525,-1.11222 2.91803,-1.69033 4.390691,-2.47419 0.77419,-0.26441 1.619,-0.34107 2.42255,-0.17233 z"
       style="fill:#a1412c;stroke:#a1412c;stroke-width:0.264583px;stroke-linecap:butt;stroke-linejoin:miter;stroke-opacity:1;fill-opacity:1"
       id="path156" />
    <path
       d="m 105.71108,239.47818 c 2.27032,-0.69095 4.49945,-1.69031 6.23144,-3.35212 1.21116,-1.12522 2.94894,-1.75298 4.55326,-1.12862 2.42651,0.72599 4.55354,2.19904 6.97529,2.92628 1.2216,0.85501 -0.494,2.45 -0.38147,3.65528 -0.52227,1.99484 -0.15966,4.21765 -1.18792,6.06442 -1.10067,0.22201 -2.17606,-0.62915 -3.3027,-0.73032 -2.4072,-0.58452 -5.12004,-0.82246 -7.00086,-2.61124 -1.81214,-1.31212 -3.92362,-2.08639 -5.95069,-2.98489 -0.76665,-0.35455 -2.01606,-0.9374 -0.58889,-1.36076 0.2113,-0.1673 0.41594,-0.34629 0.65254,-0.47803 z"
       style="fill:#f15524;stroke:#f15524;stroke-width:0.264583px;stroke-linecap:butt;stroke-linejoin:miter;stroke-opacity:1;fill-opacity:1"
       id="path164" />
    <path
       d="m 117.61653,179.62804 c 1.98909,-1.24124 4.00111,-2.51291 6.20346,-3.33255 1.52784,-0.18608 3.05887,0.14462 4.5829,0.18986 0.84477,-0.3703 1.69608,-0.29013 1.11289,0.79927 -0.12516,1.68027 0.8381,3.48153 -0.0498,5.0806 -0.66192,1.1775 -2.04067,2.31925 -1.55605,3.8169 0.0934,0.98243 2.18102,1.09459 1.82768,0.1484 -1.37607,-0.0656 -2.7642,0.0945 -4.14193,0.21321 -2.12539,0.0359 -4.23917,-0.48307 -6.37064,-0.25127 -1.18263,0.0273 -2.53112,0.75367 -3.59265,-0.0828 -0.7404,-1.00286 -1.45497,-2.09194 -2.57621,-2.72358 -0.50106,-0.45621 -1.99213,-1.34586 -1.35324,-1.92649 1.22523,0.1555 2.15685,-1.01331 3.39723,-1.15649 0.84143,-0.24719 1.54871,-1.39392 2.51638,-0.7751 z"
       style="fill:#f15524;stroke:#f15524;stroke-width:0.264583px;stroke-linecap:butt;stroke-linejoin:miter;stroke-opacity:1;fill-opacity:1"
       id="path178" />
    <path
       d="m 128.36346,204.67282 c 2.3267,-0.36693 4.66086,0.20009 6.85624,0.93878 1.41347,0.41595 2.90479,0.74254 4.3816,0.50989 0.47144,0.53909 0.28259,1.44125 0.72889,2.08151 0.4698,1.26271 1.35763,2.34377 1.69984,3.65333 -0.0452,0.90871 -1.34232,0.41712 -1.94569,0.48911 -2.49316,-0.18076 -5.01071,-0.34973 -7.4932,0.0495 -1.17945,0.15225 -2.34838,0.42415 -3.45648,0.85032 -1.12971,-0.0188 -0.66739,-1.60906 -0.83738,-2.37868 -0.0365,-1.32656 0.13388,-2.64406 0.27135,-3.95728 0.0147,-0.75135 -0.16912,-1.48778 -0.20517,-2.23646 z"
       style="fill:#f15524;stroke:#f15524;stroke-width:0.264583px;stroke-linecap:butt;stroke-linejoin:miter;stroke-opacity:1;fill-opacity:1"
       id="path186" />
    <path
       d="m 131.29669,232.4683 c 1.58881,-0.44996 3.5398,-0.99908 4.94222,0.2118 0.80568,0.80049 1.86055,1.18557 2.97895,1.23484 0.89199,0.1515 2.5972,0.16121 1.53244,1.43766 -0.96543,1.27317 -0.37302,2.58864 0.28713,3.78792 0.31161,1.25687 -1.25171,1.3944 -2.08083,1.68666 -1.6229,0.82549 -2.01812,2.75046 -2.65989,4.29065 -0.57346,1.17193 -2.01697,1.24701 -3.14236,1.03896 -2.61415,-0.38128 -4.93445,-1.73676 -7.45247,-2.45922 -0.91814,-0.34495 -1.94493,-0.65522 -2.63256,-1.38265 0.0211,-1.49349 2.29094,-2.05168 3.25178,-3.09539 1.28232,-0.99374 1.08222,-2.9141 0.15721,-4.07973 -0.42,-0.64033 -1.39643,-2.64718 0.13481,-2.13933 1.57538,0.0439 3.16242,-0.11059 4.68357,-0.53217 z"
       style="fill:#e0ad55;stroke:#e0ad55;stroke-width:0.264583px;stroke-linecap:butt;stroke-linejoin:miter;stroke-opacity:1;fill-opacity:1"
       id="path194" />
    <path
       d="m 166.74187,191.62913 c 2.52281,-1.33283 5.47714,-0.54512 8.06182,0.15661 2.14728,0.67085 4.33561,1.24248 6.42394,2.08235 1.22053,0.46215 2.12367,1.60507 2.15901,2.92479 0.29987,1.35186 -1.16037,2.09417 -2.31877,1.79998 -1.81262,-0.2019 -3.64517,-1.5473 -5.47214,-0.67559 -0.8911,0.60845 -1.04296,2.24409 -2.40889,2.09713 -2.15873,0.0311 -3.85707,-1.57081 -5.91481,-1.98162 -1.1077,-0.34714 -2.53671,-0.51393 -3.02492,-1.74753 -0.54813,-1.05388 -0.72649,-2.54256 0.43938,-3.26349 0.66262,-0.49551 1.39501,-0.89177 2.05538,-1.39263 z"
       style="fill:#f15524;stroke:#f15524;stroke-width:0.264583px;stroke-linecap:butt;stroke-linejoin:miter;stroke-opacity:1;fill-opacity:1"
       id="path202" />
    <path
       d="m 191.95775,226.30139 c 0.53617,-1.33932 2.09738,-1.63951 3.3696,-1.81772 1.99261,-0.30154 4.21205,-0.54523 6.00115,0.59667 2.06302,1.21534 2.98747,3.88856 2.36351,6.15979 -0.13476,0.88442 -0.16553,1.83957 -0.003,2.69062 -0.97428,0.0215 -2.00636,-0.34414 -3.01244,-0.42264 -2.19222,-0.46328 -4.44165,-0.75321 -6.67831,-0.74303 -0.79433,0.35098 -1.19175,-0.26726 -1.19451,-0.99113 -0.35014,-1.06387 -0.93386,-2.03821 -1.20951,-3.12929 -0.39318,-0.69798 -0.42466,-1.60336 0.2168,-2.16837 l 0.0734,-0.0876 z"
       style="fill:#f15524;stroke:#f15524;stroke-width:0.264583px;stroke-linecap:butt;stroke-linejoin:miter;stroke-opacity:1;fill-opacity:1"
       id="path210" />
    <path
       d="m 210.27191,225.39187 c -0.35384,2.67871 -1.00783,5.31801 -1.1964,8.01603 -0.37018,0.62099 -0.60914,1.42464 0.47405,1.02045 2.56207,0.37193 5.27892,0.0332 7.73827,1.01981 0.8469,0.31824 1.41693,-0.52844 1.8701,-1.0947 0.71736,-1.04624 1.5157,-2.02811 2.38282,-2.95391 0.54343,-0.78961 1.39755,-1.58312 1.59699,-2.46362 -0.73353,-0.33542 -1.38637,0.71395 -2.19854,0.42209 -1.15939,-0.16788 -2.27639,-0.54924 -3.43981,-0.70338 -2.15755,-0.50762 -4.10086,-1.62183 -6.18325,-2.34423 -0.42371,-0.20118 -0.81707,-0.49953 -1.04423,-0.91854 z"
       style="fill:#f15524;stroke:#f15524;stroke-width:0.264583px;stroke-linecap:butt;stroke-linejoin:miter;stroke-opacity:1;fill-opacity:1"
       id="path218" />
    <path
       d="m 151.68137,199.85907 c 0.0778,-2.04836 -0.16346,-4.08904 -0.49133,-6.10613 -0.18502,-0.81163 0.2526,-1.61057 0.98373,-1.97403 1.5094,-0.8509 3.31294,-0.70375 4.98308,-0.75473 0.94529,0.0387 1.9305,-7.5e-4 2.83702,0.29771 0.86632,0.48352 0.82055,1.65229 0.92204,2.51615 0.0316,1.17499 0.0727,2.40245 0.68784,3.4439 0.11915,0.63372 1.10511,1.55196 0.33325,2.0334 -0.77836,0.28056 -1.5685,0.53383 -2.40257,0.58492 -2.50255,0.24732 -4.97919,0.81182 -7.50202,0.81174 -0.36376,-0.10819 -0.28229,-0.56692 -0.35104,-0.85293 z"
       style="fill:#f15524;stroke:#f15524;stroke-width:0.264583px;stroke-linecap:butt;stroke-linejoin:miter;stroke-opacity:1;fill-opacity:1"
       id="path226" />
    <path
       d="m 146.1107,205.20521 c 2.67045,-0.29144 5.27448,-1.02658 7.94687,-1.28693 1.1409,-0.10616 2.26271,0.14848 3.37886,0.32174 0.68883,0.23357 1.70915,-1.05487 1.48281,0.25693 -0.40376,1.45921 -0.42092,2.99264 -0.10728,4.47187 0.25043,1.66924 0.55358,3.33254 0.76412,5.00572 0.61447,0.85903 0.28575,1.6188 -0.78734,1.5747 -1.76732,0.31953 -3.54455,0.60621 -5.34559,0.64742 -2.09807,0.0234 -4.1891,0.33115 -6.19082,0.96657 -0.65528,-0.67312 -0.25852,-1.73082 -0.4065,-2.5698 0.0226,-2.13844 0.1888,-4.34322 -0.56835,-6.39045 -0.20225,-0.97275 -0.85158,-2.07411 -0.16679,-2.99777 z"
       style="fill:#f15524;stroke:#f15524;stroke-width:0.264583px;stroke-linecap:butt;stroke-linejoin:miter;stroke-opacity:1;fill-opacity:1"
       id="path234" />
    <path
       d="m 121.04272,166.14069 c 1.58223,-0.5484 2.99635,0.78599 4.55036,0.75975 0.79008,-0.33717 0.70363,-1.51262 1.48052,-1.92603 1.22817,-0.64746 2.62102,-0.88281 3.87371,-1.4787 0.99128,-0.18642 2.35284,-1.11237 3.19886,-0.72787 -0.0595,1.16252 -0.69126,2.27667 -0.48699,3.46907 0.0139,1.07405 1.18053,1.55109 1.38345,2.53268 0.12002,1.16822 -1.03625,0.76602 -1.6269,0.37244 -1.29374,-0.1765 -2.8607,-0.38674 -3.83316,0.70675 -0.82076,0.88551 -1.80864,1.60323 -2.95648,1.9984 -1.62446,0.60446 -3.43979,1.06879 -5.1377,0.46334 -0.94964,-0.0873 -2.20958,-0.3288 -1.67984,-1.56368 0.0181,-1.2405 0.22627,-2.50182 0.9064,-3.56269 0.15147,-0.33233 0.27573,-0.68059 0.32777,-1.04346 z"
       style="fill:#a1412c;stroke:#a1412c;stroke-width:0.264583px;stroke-linecap:butt;stroke-linejoin:miter;stroke-opacity:1;fill-opacity:1"
       id="path242" />
    <path
       d="m 178.05574,221.88694 c 1.03252,-0.78643 2.38744,-0.87157 3.52475,-1.44921 1.76838,-0.71565 3.54366,-1.48637 5.42859,-1.83108 0.88132,-0.0838 1.81543,0.1519 2.65086,-0.2328 0.77808,-0.70827 1.00395,0.75615 0.35744,1.09059 -0.73868,0.5723 -1.2627,1.36541 -1.48134,2.27748 -0.22883,0.41471 -0.19011,1.04431 -0.41097,1.33189 -0.61953,-0.38221 -1.0135,-1.10766 -1.72475,-1.38374 -0.54521,-0.1831 -1.24099,-0.94647 -1.74447,-0.37346 -0.43403,0.64815 -1.0872,1.03738 -1.70182,1.48637 -0.5463,0.32996 -0.71164,1.42803 -1.53082,1.05843 -0.95478,-0.49132 -1.41107,-1.72849 -2.54593,-1.92942 -0.26843,-0.0627 -0.54798,-0.0778 -0.82154,-0.0451 z"
       style="fill:#90983a;stroke:#90983a;stroke-width:0.264583px;stroke-linecap:butt;stroke-linejoin:miter;stroke-opacity:1;fill-opacity:1"
       id="path250" />
    <path
       d="m 134.15596,216.36333 c 2.23809,0.78147 3.69693,2.82814 4.75914,4.84289 0.40918,0.7082 0.64872,1.49172 0.98747,2.22982 0.0712,0.31629 0.94623,0.67259 0.50921,0.90604 -0.6415,-0.25631 -1.405,-0.24414 -1.98806,-0.67806 -1.02103,-0.59824 -2.14852,-0.96885 -3.28967,-1.25806 -0.79566,-0.23943 -1.79831,-0.54714 -2.50613,0.0618 -0.5199,0.44942 -0.70575,1.38424 -1.51638,1.41569 -0.71138,0.0208 -0.68638,-0.95708 -0.0262,-1.00726 0.13693,-0.18205 0.52728,-0.37042 0.12053,-0.14509 0.66835,-0.44819 1.40471,-0.79214 2.09266,-1.20941 0.63585,-0.35975 1.31935,0.19405 1.95519,-0.0634 0.79109,-0.67688 -0.75696,-1.07383 -1.10828,-1.57832 -0.92672,-0.76333 -1.96947,-1.40223 -3.11955,-1.75837 -0.74076,-0.5559 0.5651,-0.0655 0.85189,-0.30286 0.7688,-0.15592 1.48172,-0.57238 2.26543,-0.61342 0.2097,-0.23462 0.0286,-0.57161 0.0127,-0.84202 z"
       style="fill:#90983a;stroke:#90983a;stroke-width:0.264583px;stroke-linecap:butt;stroke-linejoin:miter;stroke-opacity:1;fill-opacity:1"
       id="path258" />
    <path
       d="m 112.58813,207.26824 c 2.37662,-0.60461 4.70869,-1.36835 7.02779,-2.16167 0.53115,0.0583 1.32358,-0.1396 1.63997,-0.19484 -0.49203,0.80241 -1.60037,1.15786 -1.95514,2.05398 0.51691,0.71801 1.71587,0.33919 2.51304,0.43902 0.82219,-0.11935 1.73022,0.39757 2.46295,-0.15723 0.36832,-0.47778 1.08744,0.0309 0.34477,0.30979 -1.84183,0.68306 -3.51541,1.77386 -5.04428,3.0013 -1.1654,0.90546 -2.32061,1.83382 -3.49674,2.71852 0.0785,-0.48937 -0.11324,-1.31671 -0.0121,-1.93481 0.0356,-0.92159 0.90914,-2.55957 -0.25766,-2.98238 -1.06952,-0.20615 -2.36423,-0.0895 -3.14447,-1.00318 l -0.0782,-0.0885 z"
       style="fill:#90983a;stroke:#90983a;stroke-width:0.264583px;stroke-linecap:butt;stroke-linejoin:miter;stroke-opacity:1;fill-opacity:1"
       id="path266" />
    <path
       d="m 163.14313,171.04317 c -0.45945,0.87311 -0.55761,1.85049 -0.38002,2.80951 0.0377,0.87323 0.0362,1.77262 0.36365,2.59742 0.57715,0.59003 2.24767,-0.54324 1.87759,0.80036 -0.63437,0.6122 -1.50574,-0.16949 -2.24498,0.013 -1.40181,0.36187 -2.14419,1.79285 -3.46922,2.31296 -0.48591,0.45003 -1.80216,0.10821 -1.88504,0.6242 0.59092,-0.42312 1.36574,-1.05729 1.86689,-1.71752 0.57969,-0.98725 1.37841,-1.88316 1.64382,-3.02528 0.71257,-1.07994 -0.93824,-0.77271 -1.55057,-0.98029 -1.52436,-0.248 -3.08782,-0.35292 -4.55626,-0.86138 -0.42044,-0.9065 1.09702,-1.28813 1.59822,-1.88323 1.10492,-0.94083 2.22735,-2.0043 2.74002,-3.39443 0.0979,-0.33694 0.0126,-1.48149 0.19714,-0.58737 0.0797,0.83545 0.1489,1.68321 0.13573,2.53877 0.12303,0.68324 -0.16475,1.72502 0.40009,2.15039 0.83726,-0.0417 1.50941,-0.767 2.13399,-1.25212 0.26719,-0.51171 0.72404,-0.29728 1.12895,-0.14504 z"
       style="fill:#90983a;stroke:#90983a;stroke-width:0.264583px;stroke-linecap:butt;stroke-linejoin:miter;stroke-opacity:1;fill-opacity:1"
       id="path274" />
    <path
       d="m 114.95444,176.76642 c 1.09961,-0.92611 2.52528,-1.31018 3.82138,-1.87301 0.44466,-0.13475 1.42772,-0.55954 1.60056,-0.2164 -0.98595,0.37826 -1.66962,1.19114 -2.53756,1.79273 -2.03558,1.50766 -4.05178,3.0416 -6.12042,4.50238 -0.48741,0.20761 -0.69809,1.12552 0.0768,0.76458 0.75251,-0.0613 1.50296,0.15679 2.25798,0.007 0.95267,-0.0661 1.92056,-0.17683 2.80944,-0.54721 0.57026,0.20392 1.63565,-0.99547 1.36839,0.0413 -0.27882,0.73037 -0.58458,1.45592 -0.90409,2.16997 -0.58695,0.84132 -1.81974,0.60514 -2.71048,0.78557 -1.73702,0.21217 -3.3923,-0.4525 -5.07526,-0.73366 -0.66148,-0.19524 -1.65408,0.4545 -2.02947,0.29781 1.09667,-0.35794 1.11189,-1.64643 1.59184,-2.50533 0.59651,-0.71787 1.12525,-1.57336 1.92547,-2.06997 1.07835,-0.66413 -0.56183,-0.83137 -0.99849,-1.16676 -0.22166,-0.49113 -0.77134,-1.13229 -0.54759,-1.65859 1.11469,0.90347 2.63297,0.58119 3.9362,0.4277 0.50882,-0.0597 1.0262,-0.093 1.53527,-0.0178 z"
       style="fill:#90983a;stroke:#90983a;stroke-width:0.264583px;stroke-linecap:butt;stroke-linejoin:miter;stroke-opacity:1;fill-opacity:1"
       id="path282" />
    <path
       d="m 196.86289,191.18547 c 1.64336,0.49952 3.4041,0.47464 5.07595,0.13669 0.3311,0.36348 -1.0219,0.355 -1.1755,0.87899 -0.73261,0.84294 -1.1353,1.91967 -1.91646,2.73012 -0.84321,0.93054 1.00358,0.36376 1.53262,0.42081 0.37882,-0.18375 2.00359,-0.18314 0.94377,0.0979 -0.68029,0.55091 -1.43405,0.99647 -2.28453,1.24462 -1.40042,0.51425 -2.90011,0.55764 -4.36775,0.66516 -0.4128,0.0509 -1.50557,0.5003 -0.86348,0.33347 -0.71834,0.26208 -1.45707,0.40515 -2.23221,0.41782 -0.26876,0.17616 -0.90195,0.25023 -0.31543,0.0507 1.12981,-0.21103 1.33826,-1.56925 2.22683,-2.13709 0.56728,-0.43444 1.0743,-1.32585 1.49461,-1.56517 -2.28334,-0.51368 -4.64036,-0.69718 -6.88706,-1.37511 -0.53996,0.0989 -1.21805,-0.52298 -0.33448,-0.34459 0.90689,-0.16029 1.78924,-0.45342 2.71288,-0.54015 1.73066,-0.24138 3.44109,-0.59687 5.13722,-1.01139 1.03393,-0.0922 -0.24493,-1.22558 -0.54209,-1.66584 -0.68776,-0.80212 0.53942,-0.77617 0.80573,-0.13452 0.54295,0.43061 1.39582,0.97692 0.98938,1.79757 z"
       style="fill:#90983a;stroke:#90983a;stroke-width:0.264583px;stroke-linecap:butt;stroke-linejoin:miter;stroke-opacity:1;fill-opacity:1"
       id="path290" />
    <path
       d="m 209.82823,223.12919 c 0.32678,-1.86342 0.99287,-3.65323 1.71909,-5.38787 -0.0641,-0.49584 0.18096,-2.14539 0.68009,-1.1328 -0.60734,0.94868 -1.53303,1.90633 -1.11088,3.18839 0.29539,0.86904 0.39084,2.21479 0.4787,2.83695 0.82943,-1.07452 1.07249,-2.48268 1.86522,-3.58971 0.63295,-1.31901 1.93118,-2.00038 2.99971,-2.88169 0.18259,0.62175 -0.48881,1.62991 -0.66586,2.39733 -0.37159,0.86525 -0.30611,1.82082 -0.53915,2.70555 0.36176,0.72703 1.66722,-0.25313 2.4055,-0.0422 1.37544,-0.0155 2.77887,-0.0815 4.13547,0.18178 0.68347,0.20435 -1.01232,0.34935 -1.32684,0.56084 -1.24423,0.33317 -2.36463,0.98191 -3.49761,1.54601 -1.43515,0.60946 0.25469,1.93614 0.48518,2.86876 0.28138,0.46617 1.3368,1.59029 0.11115,0.96128 -2.6033,-0.58354 -5.34537,-1.64357 -8.01903,-0.8019 -1.14699,0.38195 -1.87232,1.39887 -2.73503,2.15287 0.63799,0.44235 0.46118,-1.35915 1.10458,-1.61891 0.64218,-1.02393 1.87353,-1.7404 2.03185,-3.01677 0.0329,-0.31313 -0.006,-0.63466 -0.12214,-0.92792 z"
       style="fill:#90983a;stroke:#90983a;stroke-width:0.264583px;stroke-linecap:butt;stroke-linejoin:miter;stroke-opacity:1;fill-opacity:1"
       id="path304" />
    <path
       d="m 170.90754,239.54472 c 0.50965,-0.40767 1.50171,-0.705 1.61167,0.24189 0.21011,0.80105 0.0701,1.64976 -0.1723,2.42616 0.14503,0.86153 1.17662,-0.0377 1.69146,-0.0977 0.98287,-0.17657 1.94402,-0.46225 2.83337,-0.91981 0.61312,-0.19077 1.29033,-0.36781 1.87823,-0.43624 -0.0239,0.95179 -0.74556,1.72803 -0.94457,2.6492 -0.29384,0.69611 -0.29307,1.96686 -1.31346,1.93718 -1.67383,0.0121 -3.28743,-0.82312 -4.96553,-0.49221 -0.66172,0.0883 -0.94937,-0.97998 -1.76239,-0.62488 -1.39379,0.14493 -2.32472,1.32081 -3.56396,1.83803 -0.51267,0.27985 0.0132,0.35682 -0.0425,-0.12003 0.36149,-0.64143 1.22358,-0.70353 1.65523,-1.2934 0.67835,-0.69354 1.22733,-1.52652 2.04947,-2.06748 0.39676,-0.78225 -0.79703,-1.19911 -1.28214,-1.63494 -0.31882,-0.13278 -1.29616,-0.55584 -0.37232,-0.54632 0.92667,0.0602 1.81901,-0.27132 2.57845,-0.78911 l 0.12123,-0.0704 z"
       style="fill:#90983a;stroke:#90983a;stroke-width:0.264583px;stroke-linecap:butt;stroke-linejoin:miter;stroke-opacity:1;fill-opacity:1"
       id="path312" />
    <path
       d="m 164.00584,215.54256 c -1.53756,0.71569 -2.39214,2.24726 -3.42129,3.5069 -0.21883,0.54633 -1.39768,0.745 -1.18686,1.269 0.65809,-0.11623 1.25751,-0.64116 2.00111,-0.48313 0.63733,0.035 1.25156,0.22414 1.87983,0.31871 0.26423,-0.20631 1.09136,-0.42738 0.51759,0.0758 -1.03215,0.73313 -2.33596,1.21078 -3.00417,2.35288 -0.48344,0.19626 -1.19014,0.78631 -0.27424,0.90503 0.69098,-0.10191 1.26022,-0.60312 1.97819,-0.63169 1.01109,-0.12137 2.03726,-0.26578 2.94408,-0.76364 1.25391,-0.63817 2.63197,-1.34115 3.29474,-2.65187 0.15169,-0.64004 1.1243,-1.89234 -0.0273,-2.04668 -1.23335,-0.34639 -2.53624,-0.026 -3.78298,-0.22286 -0.25231,-0.52664 0.71618,-0.9791 0.81466,-1.58705 0.35718,-0.66994 0.71466,-1.41129 1.36284,-1.83327 -0.41762,-0.47139 -1.05688,0.57992 -1.65094,0.53121 -0.65307,0.18156 -1.16108,0.65103 -1.44527,1.26069 z"
       style="fill:#90983a;stroke:#90983a;stroke-width:0.264583px;stroke-linecap:butt;stroke-linejoin:miter;stroke-opacity:1;fill-opacity:1"
       id="path320" />
    <path
       sodipodi:nodetypes="ccccccccccccccccccccccc"
       d="m 242.85521,184.59735 c -2.1129,3.61909 5.71781,9.24993 7.2781,10.98212 4.35145,2.95101 10.08096,4.5945 14.8653,8.71607 3.83991,5.07099 2.62349,12.18531 -0.38836,17.34054 -1.33062,3.34393 -3.58102,7.32336 -7.62062,7.52529 -3.22734,-0.4797 -1.31668,-4.32074 -0.17229,-5.98695 1.89036,-3.16013 3.92679,-6.39173 4.27827,-10.14779 0.78444,-4.46791 -3.42078,-9.25193 -8.05072,-8.25629 -4.23021,0.0986 -9.04413,1.74922 -10.90368,5.87225 -0.71002,3.82054 -2.08064,7.46062 -3.84819,10.90063 -1.58892,3.34934 0.94943,7.00447 4.57239,6.90407 4.12397,0.63792 6.92019,0.28636 11.31367,-3.19245 5.30309,-4.11212 5.07684,-8.06283 8.14915,-10.79446 3.43116,-0.67184 3.5693,4.08291 2.90765,6.37306 -1.28341,3.85644 -3.34311,7.60632 -6.40022,10.32554 -5.284,3.8056 -12.13429,1.89629 -18.08189,3.41195 -4.55004,0.92953 -9.26999,0.9126 -13.7245,2.36571 -4.37244,1.09114 -8.17471,3.61058 -12.3528,5.1715 -1.69708,-0.098 2.69188,-2.51719 3.60969,-3.61454 4.33163,-3.43446 7.79551,-7.9679 12.7021,-10.65959 5.46269,-4.21015 6.15996,-11.61493 9.85147,-17.06722 -2.26495,-7.12637 -0.66207,-8.13236 0.22243,-17.06182 -0.8834,-8.71653 4.15196,-6.33402 1.79305,-9.10762 z"
       style="fill:#e8e3c6;fill-opacity:1;stroke:#e8e3c6;stroke-width:0.264583px;stroke-linecap:butt;stroke-linejoin:miter;stroke-opacity:1"
       id="path328" />
    <path
       sodipodi:nodetypes="cccccccc"
       d="m 246.52054,210.62889 c -3.93759,1.69464 -7.85213,12.09344 -8.54054,12.57979 0.46714,-3.18707 4.46939,-12.33961 5.63546,-15.35183 2.40543,-4.08123 6.58951,-5.06239 10.7779,-4.19049 3.4575,0.72744 6.89009,3.55031 6.68835,7.36556 -0.38176,4.12135 0.27398,1.76743 -1.06068,0.29924 -2.47302,-3.13231 -6.79832,-2.1798 -10.18866,-1.59305 -1.33118,0.29032 -1.45729,0.45368 -3.31183,0.89078 z"
       style="fill:#c1a782;fill-opacity:1;stroke:#c1a782;stroke-width:0.264583px;stroke-linecap:butt;stroke-linejoin:miter;stroke-opacity:1"
       id="path408" />
    <path
       d="m 73.175592,209.69964 c 12.444657,29.51737 45.480608,43.43467 75.597848,46.24028 24.04647,1.75146 48.98277,-4.45904 69.38131,-17.24646 4.09489,-3.76266 -5.85206,12.44472 -1.90975,17.63122 5.85979,17.85427 -15.09735,28.00051 -28.92002,32.24368 -34.66173,11.52057 -79.17213,3.36424 -100.468046,-28.28474 -9.800438,-16.91705 -12.447417,-36.75263 -16.460484,-55.58536 -0.851792,-9.08244 1.557718,-1.99422 2.100113,2.43647 z"
       style="fill:#e8e3c6;stroke:#e8e3c6;stroke-width:0.264583px;stroke-linecap:butt;stroke-linejoin:miter;stroke-opacity:1;fill-opacity:1"
       id="path455" />
    <path
       sodipodi:nodetypes="cccccccccccc"
       d="m 219.03519,247.49061 c 2.62313,-3.33497 6.86651,-4.71548 10.49838,-6.62715 6.04946,-2.15074 12.60663,-1.47179 18.82079,-2.82649 5.07415,-0.45179 8.97581,-4.0385 12.14461,-7.71733 3.81622,-3.65871 6.85464,-8.32538 7.44313,-13.67714 0.59165,-2.25861 -0.2099,-5.37519 -0.70191,-7.72328 -0.396,5.18478 -2.56674,10.15589 -4.90386,14.75014 -2.17707,2.33623 -4.76376,4.29442 -6.8831,6.69411 -5.8885,4.2099 -13.44844,2.69572 -20.1952,3.59509 -5.25111,0.34396 -10.5753,1.75171 -14.76256,5.0743 -1.68484,1.73431 -8.36636,3.35055 -3.78856,5.42326 0.89623,0.91564 1.5235,2.0451 2.32828,3.03449 z"
       style="fill:#c1a782;fill-opacity:1;stroke:#c1a782;stroke-width:0.264583px;stroke-linecap:butt;stroke-linejoin:miter;stroke-opacity:1"
       id="path375" />
    <path
       sodipodi:nodetypes="cccccccccccccccccccccc"
       d="m 92.648258,154.5622 c 20.863962,-9.35332 43.609312,-14.65837 66.519362,-14.45948 19.90559,-0.61067 39.35002,5.4928 57.55651,12.96242 9.50586,5.27928 19.54719,13.05739 24.69203,22.66538 3.46414,8.81952 1.92353,16.88878 2.01155,26.30226 -1.26849,11.41131 -10.88929,24.83496 -13.83115,29.78396 -15.9989,11.95076 -26.83104,17.97551 -41.27745,23.61671 -19.53608,5.4625 -40.55447,5.09836 -60.16854,0.26374 -17.88251,-5.07081 -36.13314,-13.13477 -47.928106,-28.02824 -4.184398,-5.88961 1.771614,-5.65237 5.044255,-2.16627 10.169233,6.26688 18.651561,15.782 30.652251,18.62785 19.05883,8.88486 40.94451,11.37458 61.50047,6.9357 18.33867,-2.53966 34.43561,-11.35396 48.24981,-23.57891 7.56793,-10.68364 11.24066,-19.30184 13.14583,-37.16564 -3.35547,-14.55667 -11.32066,-28.58345 -25.5994,-34.46237 -27.73045,-12.15409 -59.25587,-14.65468 -88.74568,-8.13925 -17.59794,2.50234 -36.584064,9.95062 -45.365196,26.46491 -6.410156,10.56163 -8.942708,24.31171 -3.288496,35.73774 2.540521,8.69331 11.617394,17.25799 13.919028,22.24503 -6.688881,3.60541 -12.888424,-9.81481 -15.722405,-16.24683 -4.433216,-12.00149 -5.264032,-25.30483 -2.358148,-37.76459 6.761209,-8.02714 10.649396,-19.3002 21.017371,-23.58323"
       style="fill:#797770;fill-opacity:1;stroke:#000000;stroke-width:0.264583px;stroke-linecap:butt;stroke-linejoin:miter;stroke-opacity:0"
       id="path471" />
  </g>
</svg>
