<?xml version="1.0" encoding="UTF-8" standalone="no"?>
<svg
   xmlns:dc="http://purl.org/dc/elements/1.1/"
   xmlns:cc="http://creativecommons.org/ns#"
   xmlns:rdf="http://www.w3.org/1999/02/22-rdf-syntax-ns#"
   xmlns:svg="http://www.w3.org/2000/svg"
   xmlns="http://www.w3.org/2000/svg"
   xmlns:sodipodi="http://sodipodi.sourceforge.net/DTD/sodipodi-0.dtd"
   xmlns:inkscape="http://www.inkscape.org/namespaces/inkscape"
   width="1200"
   height="600"
   viewBox="0 0 317.5 158.75"
   version="1.1"
   id="svg8"
   sodipodi:docname="sl-stallone.svg"
   inkscape:version="1.0.1 (3bc2e813f5, 2020-09-07)">
  <sodipodi:namedview
     pagecolor="#ffffff"
     bordercolor="#666666"
     borderopacity="1"
     objecttolerance="10"
     gridtolerance="10"
     guidetolerance="10"
     inkscape:pageopacity="0"
     inkscape:pageshadow="2"
     inkscape:window-width="1920"
     inkscape:window-height="1061"
     id="namedview87"
     showgrid="false"
     inkscape:zoom="1.4"
     inkscape:cx="600"
     inkscape:cy="303.49706"
     inkscape:window-x="0"
     inkscape:window-y="19"
     inkscape:window-maximized="0"
     inkscape:current-layer="svg8"
     inkscape:document-rotation="0"
     inkscape:snap-global="false" />
  <defs
     id="defs2" />
  <metadata
     id="metadata5">
    <rdf:RDF>
      <cc:Work
         rdf:about="">
        <dc:format>image/svg+xml</dc:format>
        <dc:type
           rdf:resource="http://purl.org/dc/dcmitype/StillImage" />
        <dc:title></dc:title>
      </cc:Work>
    </rdf:RDF>
  </metadata>
  <path
     id="path224"
     style="fill:#ec956a;fill-opacity:1;stroke:#ec956a;stroke-width:0.264583px;stroke-linecap:butt;stroke-linejoin:miter;stroke-opacity:1"
     d="m 216.79961,81.50335 c 1.2196,5.36433 4.17208,10.10141 7.08507,14.68329 2.40565,5.57819 2.38847,11.96926 0.68669,17.74025 -0.36904,4.00102 -2.99483,7.69428 -2.24725,11.8137 2.59345,2.57745 6.94352,1.26748 10.31917,1.82291 4.71476,0.10992 9.44537,-1.00055 14.12537,0.0555 6.27203,0.30831 12.40487,1.95779 18.71403,1.82629 3.37619,-0.31073 7.77813,2.3067 10.50941,-0.33813 2.34637,-2.71594 3.80079,-6.72367 2.38019,-10.20556 -1.13631,-4.56859 -0.44402,-9.6147 2.44026,-13.41226 2.44972,-4.05169 4.16182,-8.52303 6.8874,-12.42372 2.16899,-3.33771 2.09243,-7.46756 2.39532,-11.29175 0.20091,-2.58614 -0.6961,-5.22182 -2.89184,-6.74286 -3.19802,-2.57019 -7.33103,-3.93247 -11.37333,-4.26412 -3.79119,0.0922 -7.56233,0.69737 -11.35961,0.35589 -7.08071,0.88522 -14.16343,2.05682 -21.32451,2.10008 -6.6755,0.0592 -13.35562,0.70385 -19.91856,1.9016 -3.80825,0.25079 -4.2839,4.09955 -6.42781,6.37893 z" />
  <path
     id="path229"
     style="fill:#ec956a;fill-opacity:1;stroke:#ec956a;stroke-width:0.264583px;stroke-linecap:butt;stroke-linejoin:miter;stroke-opacity:1"
     d="m 242.82889,44.43531 c -4.52304,4.05908 -10.85018,4.70034 -15.94891,7.55202 -3.63145,2.49155 -9.26717,3.35521 -10.41073,8.3035 0.35159,4.87311 -0.10684,9.90822 0.5976,14.80144 0.67186,5.08636 5.30774,8.12004 10.15147,8.39383 5.72389,1.14899 11.54138,2.23307 17.38539,1.32871 7.37706,-0.81987 14.88676,-0.59125 22.09651,-2.50751 7.7727,-3.40464 17.02558,-3.82771 23.50994,-9.79555 2.97304,-3.32762 0.4123,-7.75962 -2.71438,-9.85562 -3.55818,-3.47275 -8.19591,-5.29685 -12.17307,-8.18039 -3.93847,-1.55617 -7.59282,-3.69918 -11.17752,-5.9565 -5.619,-3.51687 -12.48829,-2.26609 -18.72234,-3.23572 -0.86235,-0.27244 -1.58672,-1.30971 -2.59396,-0.84821 z" />
  <path
     id="path235"
     style="fill:#ce7e5b;fill-opacity:1;stroke:#ce7e5b;stroke-width:0.264583px;stroke-linecap:butt;stroke-linejoin:miter;stroke-opacity:1"
     d="m 228.63112,57.43463 c -6.68433,-2.97558 -17.56412,-4.32375 -21.00798,3.94057 -2.7493,6.30027 -1.28841,12.99302 0.33844,19.32312 -2.35195,6.8877 -4.32748,14.30744 -7.33916,21.13381 -3.02439,9.68161 -1.00939,20.03532 -3.03744,29.90646 -3.03844,7.91591 7.20606,10.9701 9.21979,2.65977 3.62972,-5.30946 6.40372,-11.31748 9.50535,-17.03356 3.66067,-6.96975 1.19223,-15.10553 3.95512,-22.21863 1.33165,-3.51069 -0.34343,-14.90532 2.14155,-6.39274 2.91694,6.67155 9.79237,15.71406 16.61597,6.87803 4.50627,-6.51338 9.00372,-3.11631 12.02207,2.15184 5.2563,3.13084 13.46987,4.23294 17.44944,-1.51798 3.94412,-2.79957 6.79665,-10.25505 10.91322,-10.4754 2.47217,5.64488 5.41819,11.55079 7.99328,16.89456 0.15416,8.40116 9.63042,14.02677 6.84659,22.9261 -1.27051,7.9623 4.20023,14.34447 6.74109,21.3568 5.90615,6.95145 11.31397,-5.19591 10.82265,-10.8215 1.04699,-7.06263 -1.23698,-13.96646 -1.05075,-21.01962 -2.64207,-6.61614 -6.06647,-13.01617 -6.64275,-20.43348 0.29891,-6.56399 -6.20915,-10.9988 -5.58101,-17.41812 -0.31659,-6.94983 -5.10878,-13.02248 -10.31055,-17.21435 -6.04263,-3.31125 -12.78303,0.14839 -19.0318,0.89808 -7.56616,1.82104 -15.32409,3.356 -21.86592,7.85507 -5.30175,-2.51159 -8.22266,-8.66971 -14.49053,-9.55275 -1.45804,-0.4549 -2.97273,-0.88382 -4.20667,-1.82608 z" />
  <path
     id="path245"
     style="fill:#582607;fill-opacity:1;stroke:#582607;stroke-width:0.264583px;stroke-linecap:butt;stroke-linejoin:miter;stroke-opacity:1"
     d="m 264.66786,94.7245 c 0.25427,-0.0545 0.51158,-0.12703 0.77227,-0.12344 0.0843,0.14358 -0.21335,0.21722 -0.29856,0.30989 -0.30425,0.19682 -0.63586,0.36073 -0.90175,0.61028 -0.15332,0.12018 0.003,0.28058 0.11201,0.36017 0.37787,0.28852 0.87668,0.34621 1.33856,0.34304 0.26332,0.0135 0.46448,-0.19022 0.59397,-0.39651 0.15999,-0.26019 0.30362,-0.58396 0.20118,-0.8913 -0.0823,-0.21551 -0.34198,-0.24988 -0.54228,-0.27011 -0.37462,-0.0241 -0.73676,0.14002 -1.11229,0.0841 -0.0548,-0.006 -0.10935,-0.0146 -0.16311,-0.0261 z" />
  <path
     id="path251"
     style="fill:#582607;fill-opacity:1;stroke:#582607;stroke-width:0.264583px;stroke-linecap:butt;stroke-linejoin:miter;stroke-opacity:1"
     d="m 224.85982,91.46358 c 0.37842,0.17608 0.78354,0.40084 0.96557,0.79669 0.10105,0.23862 0.021,0.5309 -0.18617,0.68651 -0.22883,0.19878 -0.63456,0.23826 -0.83592,-0.0195 -0.20978,-0.28347 -0.15826,-0.66491 -0.0893,-0.9876 0.0375,-0.16186 0.0889,-0.32014 0.14579,-0.47612 z" />
  <path
     id="path258"
     style="fill:#ce7e5b;fill-opacity:1;stroke:#ce7e5b;stroke-width:0.264583px;stroke-linecap:butt;stroke-linejoin:miter;stroke-opacity:1"
     d="m 237.92376,37.09269 c -0.8068,3.75325 -0.0667,7.59233 0.5641,11.30696 0.2318,1.64832 -1.04723,3.77833 1.01696,4.71146 1.61829,1.0545 1.92847,3.10956 3.06357,4.58746 0.61911,1.37834 1.79558,2.36532 3.23092,2.81288 3.18805,0.71969 6.44736,-0.45354 9.31723,-1.78884 1.80417,-0.2034 2.41652,-2.1191 2.96385,-3.56006 0.40749,-1.57208 0.88498,-3.11353 1.41697,-4.63824 0.0989,-1.38215 0.6472,-3.45325 -1.27476,-3.71855 -2.46236,-1.26667 -5.08305,-2.28202 -7.31796,-3.95567 -2.32021,-1.57834 -4.88682,-2.75772 -7.2792,-4.1971 -0.95402,-1.29584 -2.31258,-2.15573 -3.97233,-1.90598 -0.59063,-0.0129 -1.20719,0.0479 -1.72935,0.34568 z" />
  <path
     id="path264"
     style="fill:#ec956a;fill-opacity:1;stroke:#ec956a;stroke-width:0.264583px;stroke-linecap:butt;stroke-linejoin:miter;stroke-opacity:1"
     d="m 236.8392,15.81905 c -2.12945,1.65871 -1.93809,4.65371 -2.27987,7.07014 -0.62484,2.51157 0.63646,4.81877 0.73206,7.26118 -0.27302,2.29765 -0.47496,4.73309 0.95644,6.7365 0.87893,2.11763 2.90445,2.47482 4.61794,1.39675 0.53831,1.33295 0.16848,2.99125 0.91275,4.33985 0.65388,1.44357 1.29174,2.98133 2.34166,4.171 2.25159,1.76019 4.9694,2.86317 6.95864,4.97082 1.59519,1.56735 3.38835,3.26576 5.78683,3.25232 1.80932,-0.13916 5.07086,0.11413 5.30151,-2.33425 -0.70692,-1.81647 0.77553,-3.67484 0.82295,-5.59417 0.41113,-1.90839 0.32347,-3.88852 0.68724,-5.79204 1.16334,-1.94607 1.90059,-4.01069 1.6423,-6.29929 -0.0255,-2.3705 1.99644,-4.45925 1.28749,-6.82464 -0.92462,-1.9615 -0.19659,-4.10937 -0.71817,-6.15164 -0.72081,-3.78082 -2.92758,-7.25611 -5.91923,-9.6445 -2.9412,-2.21244 -6.99817,-2.61507 -10.3477,-1.12359 -2.39828,0.96844 -4.80804,1.99146 -7.40512,2.25886 -1.96091,0.36427 -3.69553,1.29335 -5.37772,2.3067 z" />
  <path
     id="path274"
     style="fill:#cccccc;stroke:#cccccc;stroke-width:0.264583px;stroke-linecap:butt;stroke-linejoin:miter;stroke-opacity:1"
     d="m 224.16964,128.48725 c 4.3183,2.86781 9.84507,2.2422 14.75734,1.86229 6.2931,-0.50375 12.52379,1.43163 18.83987,1.17697 5.66501,0.19118 11.37559,0.01 17.00984,0.5244 3.69527,0.76946 3.50487,4.67741 4.65098,7.28618 1.18386,3.44018 -0.96902,7.04396 1.08248,10.38156 -1.59264,1.52908 -7.44178,2.49298 -9.84241,-0.0635 -3.40431,-1.22062 -5.35877,3.78204 -8.9865,2.72956 -4.65707,-0.60363 -9.23522,-0.0636 -13.83007,0.50356 -4.9265,-0.0282 -9.25296,-3.22499 -14.15221,-3.18955 -3.85985,0.81854 -7.76134,1.15313 -11.65378,1.22859 -2.61946,1.45297 -6.13532,1.93666 -5.2938,-2.16957 -0.78105,-2.70152 -2.0627,-5.39824 0.33786,-7.85391 1.50262,-2.95474 2.14252,-6.53215 4.98999,-8.63256 1.45819,-0.80713 0.42664,-3.15886 2.09041,-3.78404 z" />
  <path
     id="path280"
     style="fill:#800000;fill-opacity:1;stroke:#800000;stroke-width:0.264583px;stroke-linecap:butt;stroke-linejoin:miter;stroke-opacity:1"
     d="m 225.42674,130.59464 c 0.99191,0.0639 2.57217,-0.12607 2.83524,1.15509 0.0262,1.19921 -0.73724,2.2439 -1.19639,3.30959 -0.79632,1.49777 -1.58769,3.05499 -1.73525,4.77264 -0.64713,2.16953 -2.70063,3.76464 -2.82213,6.13022 -0.11662,1.76846 0.47949,3.56626 -0.0273,5.30692 -0.69299,0.57379 -1.95436,0.6837 -2.69711,0.51624 0.0373,-1.17297 0.90449,-2.28748 0.40099,-3.4985 -0.7055,-2.34321 -0.21924,-4.84896 0.44277,-7.14242 0.4624,-1.27499 1.20732,-2.42786 2.10665,-3.4263 0.63575,-1.28446 1.39822,-2.59714 1.45924,-4.06155 0.21387,-1.08901 0.73966,-2.07973 1.23329,-3.06193 z" />
  <path
     id="path286"
     style="fill:#800000;fill-opacity:1;stroke:#800000;stroke-width:0.264583px;stroke-linecap:butt;stroke-linejoin:miter;stroke-opacity:1"
     d="m 232.27915,131.23796 c 0.49,1.65169 3.44942,0.10713 3.3889,1.96198 -0.46058,1.6579 -1.85374,2.85934 -2.66958,4.34932 -1.08523,1.55139 -0.81,3.51191 -1.23077,5.27341 -0.3197,1.93219 -0.6775,3.88109 -1.58083,5.63946 -0.6636,1.25865 -0.0887,4.02078 -2.33766,3.27675 -2.1055,-0.35166 -0.0561,-2.5113 0.0416,-3.7017 0.77979,-2.1347 0.85186,-4.47016 1.91618,-6.50418 0.51658,-2.04601 1.96418,-3.80896 1.75871,-6.00313 0.31711,-1.37049 -0.1621,-2.97272 0.36605,-4.14279 l 0.15443,-0.0794 z" />
  <path
     id="path293"
     style="fill:#800000;fill-opacity:1;stroke:#800000;stroke-width:0.264583px;stroke-linecap:butt;stroke-linejoin:miter;stroke-opacity:1"
     d="m 239.79708,133.21227 c 1.23336,0.20876 2.99481,-0.57894 3.83698,0.62551 0.23556,1.16397 -0.43276,2.28024 -0.75183,3.36778 -0.76283,2.32059 -0.0555,4.80222 -0.50369,7.17392 -0.22838,2.13055 -1.05704,4.15589 -1.13001,6.30672 0.0664,1.34427 -1.30593,1.58545 -2.34874,1.38924 -1.00548,-0.27768 -2.91006,0.0768 -3.14164,-1.17868 0.0342,-1.40057 1.15744,-2.45698 1.40577,-3.81109 0.68703,-2.50424 0.42154,-5.20944 1.38408,-7.6446 0.65939,-1.17128 1.39731,-2.35673 1.50798,-3.73551 0.0991,-0.83642 0.022,-1.69741 -0.2589,-2.49329 z" />
  <path
     id="path299"
     style="fill:#800000;fill-opacity:1;stroke:#800000;stroke-width:0.264583px;stroke-linecap:butt;stroke-linejoin:miter;stroke-opacity:1"
     d="m 247.70939,132.94606 c 1.57763,0.0436 3.21857,-0.74817 4.74683,-0.13627 0.65992,0.85969 0.0683,2.06566 0.18771,3.06593 -0.1732,2.3322 0.0996,4.69294 0.90506,6.89384 0.74253,2.55942 0.45584,5.28303 1.09606,7.86611 0.36483,0.99919 0.28544,2.53358 -1.15214,2.36841 -1.32499,0.19792 -2.68721,-0.0229 -3.99766,0.29828 -1.07671,-0.51959 0.0191,-2.15637 -0.35266,-3.12382 -0.11143,-4.11839 -0.5619,-8.21843 -0.631,-12.33842 0.0201,-1.50039 -0.71432,-2.85563 -0.89761,-4.30725 0.002,-0.19885 0.0315,-0.39817 0.0954,-0.58681 z" />
  <path
     id="path305"
     style="fill:#800000;fill-opacity:1;stroke:#800000;stroke-width:0.264583px;stroke-linecap:butt;stroke-linejoin:miter;stroke-opacity:1"
     d="m 257.54431,133.63374 c 0.54338,2.84407 1.37371,5.66647 1.33444,8.58717 0.20835,1.69356 0.69897,3.34965 0.68816,5.0694 0.10361,1.71071 0.0359,3.46852 0.50764,5.128 0.86826,0.67719 2.11646,-0.15829 3.14714,0.0791 1.1171,-0.0741 3.28654,0.18062 3.01035,-1.53337 -0.23187,-1.50358 -1.18254,-2.79556 -1.39488,-4.31329 -0.85802,-3.58565 -1.94878,-7.13346 -2.33239,-10.81374 0.006,-1.154 -0.85518,-1.94319 -1.98852,-1.8909 -0.98337,-0.16606 -1.97912,-0.22839 -2.97194,-0.3124 z" />
  <path
     id="path311"
     style="fill:#800000;fill-opacity:1;stroke:#800000;stroke-width:0.264583px;stroke-linecap:butt;stroke-linejoin:miter;stroke-opacity:1"
     d="m 267.6504,133.83339 c 1.39318,-0.046 2.91419,-0.34854 4.20269,0.33118 0.91341,0.79288 0.97054,2.11826 1.26907,3.21449 0.35397,2.05108 0.75143,4.10653 1.57319,6.03072 0.94959,2.40481 1.65667,4.89679 2.22898,7.41476 0.46363,1.00671 -0.17659,2.02017 -1.28838,1.61585 -1.42062,-0.0848 -2.85771,-0.2809 -4.19949,-0.77844 -0.53825,-0.83123 2.1e-4,-1.90377 -0.11201,-2.84972 0.0511,-2.34293 -1.10671,-4.45964 -1.57345,-6.70955 -0.53222,-2.19657 -1.12064,-4.37793 -1.9015,-6.50044 -0.18606,-0.56731 -0.28509,-1.17338 -0.1991,-1.76885 z" />
  <path
     id="path317"
     style="fill:#800000;fill-opacity:1;stroke:#800000;stroke-width:0.264583px;stroke-linecap:butt;stroke-linejoin:miter;stroke-opacity:1"
     d="m 275.88315,134.94255 c -0.18904,1.75575 0.96282,3.25483 1.13362,4.9628 0.47552,2.24159 0.49756,4.67438 1.71822,6.67842 0.47216,1.13929 0.78918,2.3231 1.25257,3.4676 0.77005,1.07572 1.05505,-1.18641 1.1117,-1.82768 0.45171,-3.03677 0.5583,-6.25599 -0.6743,-9.13627 -0.36415,-1.12128 -0.67275,-2.28639 -1.61775,-3.07608 -0.76497,-0.76085 0.0591,-2.68222 -1.66586,-2.1991 -0.62483,0.18251 -1.7643,0.14612 -1.2582,1.13031 z" />
  <path
     id="path328"
     style="fill:#36485f;fill-opacity:1;stroke:#36485f;stroke-width:0.264583px;stroke-linecap:butt;stroke-linejoin:miter;stroke-opacity:1"
     d="m 236.49412,122.67527 c -4.34606,-0.86671 -10.43562,0.11004 -13.28359,-3.67921 -2.28579,-0.27715 -1.98181,5.82975 -1.62216,8.1072 -1.56449,4.79223 3.68213,5.60169 7.25505,5.10141 4.65616,-0.25232 9.29752,-0.13728 13.58979,1.8342 4.53532,0.0544 8.98976,1.02343 13.52482,0.91972 7.57707,-0.49078 15.16137,0.46555 22.74338,-0.0148 0.44653,-3.0132 -3.33538,-5.91624 0.28883,-8.51859 0.076,-4.84977 -6.08656,-1.49632 -9.10041,-2.45468 -6.10621,-0.44523 -12.08747,1.09478 -18.17926,0.93483 -4.91411,-0.001 -9.86823,-0.48037 -14.62407,-1.69765 z" />
  <path
     id="path335"
     style="fill:#800000;fill-opacity:1;stroke:#800000;stroke-width:0.264583px;stroke-linecap:butt;stroke-linejoin:miter;stroke-opacity:1"
     d="m 299.00385,145.08024 c 1.76113,-2.15959 4.75799,-2.78954 7.41256,-2.42824 1.75137,0.23226 3.55955,0.61636 5.06796,1.57406 1.1782,0.80601 1.15692,2.38439 1.26972,3.6576 0.0454,2.08551 -0.1973,4.16627 -0.11125,6.25232 0.31157,1.40082 -1.33629,2.49358 -2.41245,1.47903 -1.43484,-0.78945 -3.12503,-0.86644 -4.72288,-1.01305 -1.68207,-0.0776 -3.3797,-0.0628 -5.0532,0.0849 -1.0803,0.60573 -1.86128,-0.30899 -1.92661,-1.36035 -0.55984,-2.34821 -0.37172,-4.8304 0.13346,-7.17052 0.0928,-0.36492 0.20533,-0.72509 0.34269,-1.07579 z" />
  <path
     id="path341"
     style="fill:#800000;fill-opacity:1;stroke:#800000;stroke-width:0.264583px;stroke-linecap:butt;stroke-linejoin:miter;stroke-opacity:1"
     d="m 194.73881,131.39324 c 1.72534,0.0578 3.37107,0.79847 4.66001,1.91653 1.13092,0.43598 2.35118,0.57801 3.50284,0.95965 1.40776,0.42635 2.87512,0.51816 4.33484,0.55282 1.29106,-0.1011 2.03946,1.3034 1.42859,2.38876 -0.68635,1.62746 -1.5866,3.14639 -2.42665,4.69603 -0.71916,1.43671 -0.39047,3.38441 -1.81417,4.44246 -1.35914,0.89757 -3.09982,0.62704 -4.64627,0.71216 -2.21036,-0.0255 -4.48418,-0.16366 -6.56675,-0.95311 -1.20675,-0.80011 -0.33485,-2.39264 -0.38309,-3.56266 0.23881,-1.60545 0.47712,-3.21902 0.70472,-4.82081 0.50086,-1.10337 0.64181,-2.3029 0.61864,-3.50388 -0.0143,-0.9834 0.18198,-1.93653 0.58729,-2.82795 z" />
  <path
     id="path355"
     style="fill:#ce7e5b;fill-opacity:1;stroke:#ce7e5b;stroke-width:0.264583px;stroke-linecap:butt;stroke-linejoin:miter;stroke-opacity:1"
     d="m 260.54367,34.17397 c 0.72613,0.0719 1.11826,0.76372 1.68464,1.12073 0.4308,0.54052 0.5823,1.2524 0.73551,1.91268 0.0213,0.68898 0.23499,1.33063 0.87945,1.66773 0.5264,0.68913 0.82453,1.67918 0.46095,2.50929 -0.32085,0.43242 -0.94697,0.24252 -1.3969,0.19633 -0.59234,-0.14014 -1.18537,-0.29184 -1.78787,-0.1489 -0.81732,-8.9e-4 -1.6105,0.55323 -2.42989,0.2266 -0.61213,-0.28537 -0.96761,-0.98001 -1.01376,-1.63246 0.15547,-0.47284 0.54858,-0.90555 1.01336,-1.09499 0.49066,-0.24737 1.35047,0.0849 1.48656,-0.64704 0.14451,-0.72888 0.23311,-1.49318 0.0411,-2.22246 -0.0136,-0.58953 0.14639,-1.1715 0.27642,-1.74269 -0.003,-0.0521 0.0505,-0.0937 0.0505,-0.14482 z" />
  <path
     id="path365"
     style="fill:#681c02;fill-opacity:1;stroke:#681c02;stroke-width:0.264583px;stroke-linecap:butt;stroke-linejoin:miter;stroke-opacity:1"
     d="m 254.56629,47.36185 c 0.41438,0.44663 1.54372,0.58983 2.17999,0.76467 1.0847,1.18738 2.40563,0.63487 3.72395,-0.23714 0.4313,-0.2799 0.82564,-0.67471 0.90753,-1.20443 0.0825,-0.41486 0.46945,-0.8056 0.2977,-1.24616 -0.31815,-0.36063 -0.84448,-0.006 -1.21254,0.0952 -0.81926,0.34879 -1.64964,0.77174 -2.56476,0.74559 -0.53377,0.0312 -1.06736,-0.0619 -1.5634,-0.25593 -0.45941,-0.0468 -0.60199,0.22416 -1.00918,0.42102 -0.37078,0.1912 -0.92059,0.50706 -0.75929,0.91723 z" />
  <path
     id="path375"
     style="fill:#d1916b;fill-opacity:1;stroke:#d1916b;stroke-width:0.264583px;stroke-linecap:butt;stroke-linejoin:miter;stroke-opacity:1"
     d="m 255.26074,46.58581 c 0.68025,-0.003 1.30954,0.31407 1.99189,0.28353 0.9627,-0.006 1.93596,-0.0158 2.88463,-0.19353 0.64517,-0.0816 1.08998,-0.6197 1.40546,-1.13783 0.18833,-0.38708 0.0354,-0.99042 -0.49532,-0.70079 -0.85534,0.0964 -1.72756,0.20581 -2.58569,0.073 -0.79893,-0.0456 -1.63634,0.0765 -2.33926,0.46748 -0.23832,0.40373 -0.53992,0.76871 -0.83026,1.14279 l -0.0314,0.0654 z" />
  <path
     id="path382"
     style="fill:#c3654e;fill-opacity:1;stroke:#c3654e;stroke-width:0.264583px;stroke-linecap:butt;stroke-linejoin:miter;stroke-opacity:1"
     d="m 258.16932,45.22155 c 0.61815,-0.27851 1.29578,-0.18339 1.93247,-0.0654 0.50021,0.004 1.03052,-0.32948 1.51073,-0.10902 0.3629,0.3342 0.0573,0.86787 0.0585,1.28544 0.0269,0.57161 -0.51751,0.75339 -0.83112,1.12035 -0.26185,0.53702 -0.78128,0.91154 -1.33176,1.12334 -0.57749,0.29247 -1.27612,0.33783 -1.89239,0.15379 -0.54458,-0.37785 -1.22573,-0.42441 -1.80524,-0.72246 -0.34962,-0.30401 -0.83867,-0.383 -1.19211,-0.667 -0.22561,-0.5192 0.4493,-0.63034 0.75704,-0.83731 0.33649,-0.30464 0.53558,-0.72887 0.87441,-1.03905 0.27807,-0.30116 1.03692,0.0811 1.10762,-0.19965 -0.27653,-0.24971 -0.55942,-0.78574 -0.95654,-0.3345 -0.44892,0.25804 -0.74155,0.66447 -0.96532,1.1124 -0.27921,0.40704 -0.92699,0.50387 -1.01873,1.04009 0.0138,0.48595 0.53442,0.66821 0.93075,0.75617 0.38783,0.21495 0.67007,0.59036 0.8372,0.98577 0.34344,0.34168 0.85693,0.41788 1.26947,0.6606 0.54464,0.18659 1.10887,-0.0622 1.66431,-0.0712 0.94118,-0.2277 1.86214,-0.73515 2.42622,-1.54185 0.3022,-0.77343 0.12911,-1.63324 0.40841,-2.41132 0.12724,-0.44349 -0.0923,-0.92364 -0.4409,-1.19381 -0.55414,-0.22956 -1.16261,0.0108 -1.71584,0.12576 -0.64458,0.22404 -1.32469,0.3191 -1.99475,0.15727 -0.47934,-0.0629 -1.22012,0.18685 -1.26086,0.71847 0.53622,0.0902 1.08944,-0.0132 1.6284,-0.0469 z" />
  <path
     id="path388"
     style="fill:#cccccc;fill-opacity:1;stroke:#cccccc;stroke-width:0.264583px;stroke-linecap:butt;stroke-linejoin:miter;stroke-opacity:1"
     d="m 262.2138,32.28597 c 0.1065,-0.16264 0.23519,-0.33527 0.44713,-0.34822 0.60845,-0.16268 1.24622,-0.32616 1.8782,-0.22005 0.22896,0.14892 0.49588,0.28494 0.62559,0.54085 0.22132,0.39202 0.11584,0.95544 -0.28854,1.18602 -0.28451,0.16784 -0.59334,0.29192 -0.88565,0.44426 -0.39702,0.12421 -0.78647,-0.12373 -1.0787,-0.37 -0.20231,-0.16318 -0.3636,-0.374 -0.57015,-0.53011 -0.17975,-0.0656 -0.40183,-0.20838 -0.32317,-0.43314 0.0372,-0.10719 0.12547,-0.18398 0.19529,-0.26961 z" />
  <path
     id="path394"
     style="fill:#cccccc;fill-opacity:1;stroke:#cccccc;stroke-width:0.264583px;stroke-linecap:butt;stroke-linejoin:miter;stroke-opacity:1"
     d="m 252.66247,33.94867 c 0.34739,0.0403 0.71037,-0.0496 0.97559,-0.28317 0.31321,-0.18051 0.67385,-0.25579 0.99626,-0.41922 0.51312,-0.22675 1.01777,-0.47972 1.55762,-0.63871 0.27103,0.0922 0.29546,0.43132 0.41072,0.6574 0.14325,0.35796 0.28389,0.81581 0.0128,1.15107 -0.46689,0.4919 -1.21119,0.62355 -1.85675,0.48859 -0.47725,-0.0914 -0.90743,-0.33043 -1.32571,-0.56707 -0.29263,-0.0387 -0.53632,-0.22401 -0.77048,-0.38889 z" />
  <path
     id="path400"
     style="fill:#4d4d4d;stroke:#4d4d4d;stroke-width:0.264583px;stroke-linecap:butt;stroke-linejoin:miter;stroke-opacity:1"
     d="m 255.42504,33.0781 c -0.23277,0.24242 -0.3875,0.58112 -0.34364,0.92153 0.0295,0.22087 0.3004,0.33532 0.49103,0.2379 0.3037,-0.15452 0.49097,-0.45603 0.66208,-0.73839 0.0756,-0.13922 0.16175,-0.27787 0.2042,-0.43097 0.002,-0.15753 -0.1665,-0.22896 -0.29504,-0.26468 -0.14862,-0.0371 -0.31959,-0.0626 -0.46136,0.01 -0.10786,0.0647 -0.16779,0.18044 -0.25727,0.26497 z" />
  <path
     id="path406"
     style="fill:#4d4d4d;stroke:#4d4d4d;stroke-width:0.264583px;stroke-linecap:butt;stroke-linejoin:miter;stroke-opacity:1"
     d="m 263.97418,31.85461 c -0.11311,0.20791 -0.2174,0.42502 -0.25557,0.66065 -0.0723,0.21939 -0.18935,0.46414 -0.0767,0.69154 0.0683,0.17306 0.2793,0.20154 0.43516,0.14258 0.2835,-0.10312 0.5001,-0.33837 0.66095,-0.58603 0.10067,-0.16139 0.14288,-0.36915 0.0538,-0.54521 -0.0445,-0.15736 -0.15113,-0.30295 -0.32647,-0.31795 -0.14121,-0.0409 -0.27653,-0.14932 -0.42769,-0.0651 -0.0211,0.007 -0.0422,0.0135 -0.0635,0.0195 z" />
  <path
     id="path425"
     style="fill:#1a1a1a;stroke:#1a1a1a;stroke-width:0.264583px;stroke-linecap:butt;stroke-linejoin:miter;stroke-opacity:1"
     d="m 261.90976,31.33543 c 0.38933,-0.21247 0.84659,-0.18159 1.26858,-0.27378 0.122,-0.28725 0.31181,-0.52053 0.58022,-0.68009 0.57839,-0.52265 1.08765,-1.25097 1.91548,-1.36909 0.37679,0.0272 0.78982,-0.19889 1.13633,-0.009 0.13371,0.15508 0.22106,0.32161 -0.0648,0.38413 -0.36975,0.0789 -0.61991,0.4035 -0.98376,0.4878 -0.35828,0.0396 -0.74559,0.0622 -1.02535,0.31838 -0.29972,0.30338 -0.21111,0.85341 -0.60682,1.08927 -0.4545,0.25221 -0.9222,0.49082 -1.41012,0.66951 -0.36832,-0.0283 -0.65318,0.20553 -0.96587,0.30704 -0.30634,-0.19107 0.0122,-0.59611 0.11784,-0.83696 l 0.0199,-0.0432 z" />
  <path
     id="path431"
     style="fill:#1a1a1a;stroke:#1a1a1a;stroke-width:0.264583px;stroke-linecap:butt;stroke-linejoin:miter;stroke-opacity:1"
     d="m 257.77027,30.91191 c 0.43664,-0.0213 0.98651,-0.1594 1.32682,0.19545 0.24968,0.36892 -0.002,0.84587 -0.47558,0.75082 -0.40315,0.12011 -0.84617,0.49125 -1.26813,0.21434 -0.29217,-0.18594 -0.63905,-0.0641 -0.90462,0.10578 -0.35372,0.21557 -0.79582,0.0875 -1.06612,-0.20077 -0.28561,-0.33111 -0.74788,-0.29247 -1.11739,-0.14925 -0.4521,0.16021 -0.92351,0.36248 -1.41327,0.25599 -0.26026,-0.079 -0.74799,0.0959 -0.88263,-0.0966 0.27828,-0.23398 0.6914,-0.17496 0.97223,-0.42069 0.43367,-0.29714 0.88149,-0.69706 1.45102,-0.61159 0.51083,0.0707 1.00385,0.29761 1.5291,0.16203 0.46428,-0.0311 0.95026,0.11492 1.39505,-0.0888 0.15015,-0.0427 0.30116,-0.0826 0.45352,-0.11667 z" />
  <path
     id="path437"
     style="fill:#800000;stroke:#800000;stroke-width:0.264583px;stroke-linecap:butt;stroke-linejoin:miter;stroke-opacity:1"
     d="m 249.94594,26.12808 c 0.66373,0.70333 1.60371,1.68754 1.07411,2.72296 -0.52537,0.79338 -0.74738,1.80828 -1.59995,2.33827 -0.75887,0.46028 -1.13884,1.44372 -0.70474,2.25142 0.23394,0.32416 -0.14264,1.57833 0.20627,1.32609 -0.0106,-0.83477 0.39856,-1.70825 1.3794,-1.50042 0.56278,0.0429 1.60554,-0.0934 1.86114,0.18639 -0.44288,0.64981 -2.01139,0.91938 -1.4592,1.90417 0.76914,0.11408 1.71353,0.99655 0.88986,1.71203 0.71016,0.41243 1.55501,0.0256 2.30514,-0.0776 0.53575,-0.22502 1.66268,-0.33246 0.92067,0.49472 -0.57568,0.58745 -1.34937,0.86198 -2.05765,1.23314 -0.54073,0.32539 -0.46551,1.88642 -1.28793,1.44331 -0.61213,-0.69219 -1.797,-0.26087 -2.17784,0.48069 -1.15378,0.92623 -1.04202,-1.01538 -1.17536,-1.70841 -0.5269,-0.77902 -1.13474,-1.5554 -0.85087,-2.59658 0.095,-1.29084 -1.12286,-2.44611 -0.60007,-3.73129 0.59059,-0.923 1.78741,-1.66147 1.4789,-2.93107 -0.1418,-1.04408 0.11603,-2.25564 1.06629,-2.848 0.27074,-0.20217 0.54605,-0.4288 0.73183,-0.69986 z" />
  <path
     id="path443"
     style="fill:#1a1a1a;stroke:#1a1a1a;stroke-width:0.264583px;stroke-linecap:butt;stroke-linejoin:miter;stroke-opacity:1"
     d="m 235.37449,7.82911 c -0.74746,-2.36827 3.26708,-1.31871 3.9346,-3.21069 1.34617,-0.69069 2.76034,-1.00826 3.56212,-2.50599 1.37931,-0.53466 2.68443,-0.82102 4.1204,-0.86771 1.48417,-2.04854 4.13163,0.51711 5.94983,-0.62642 1.77405,0.3023 3.83523,0.44574 5.2868,1.69923 1.92882,0.73618 3.34944,2.09984 4.69824,3.35109 1.49626,0.25243 2.91406,0.92691 2.76942,2.52893 1.47214,0.58251 1.50615,1.59571 1.58568,2.90867 1.43378,1.21699 3.83658,2.33136 2.41506,4.5876 -0.55015,1.67245 0.25801,3.40852 0.081,5.06648 1.99714,1.61001 -0.53639,3.96934 -1.38452,5.4365 -1.5154,0.99126 -3.57471,-2.1604 -4.10272,-1.45614 0.88022,1.49416 -0.84772,1.08684 -1.14234,2.30545 -1.79308,-0.22771 -4.14106,-1.17169 -4.63986,-3.09134 -0.76779,-1.16015 0.77453,3.05705 -1.20957,2.00095 -0.81804,-0.84289 -1.9311,-1.90142 -2.51225,-2.62374 0.7295,1.74468 0.12477,3.13382 -1.64345,1.64708 -0.77686,1.01156 -3.31936,-1.03712 -1.92364,1.24674 0.6489,0.61401 1.18133,1.78904 -0.15981,1.0188 -1.2062,0.21545 -2.53972,-1.51895 -2.57269,0.20194 -3.14348,0.11211 2.53118,1.38986 0.38687,2.42899 -1.56086,0.0939 -1.17129,0.96687 -0.65092,1.23812 -1.48612,0.27664 -1.05652,2.26337 -2.7932,2.10786 -0.79206,1.5022 -0.80915,3.27039 -1.58834,4.81261 -1.17798,-0.0998 -0.6092,-3.26893 -2.16656,-3.93226 -0.7321,-0.80587 -3.56642,-3.29401 -3.65993,-1.14962 -0.18059,1.07813 -1.74252,-1.1323 -1.43803,0.52316 -2.8336,-1.58624 -0.57468,2.91032 0.45825,3.73492 0.95205,1.90335 0.58393,4.23963 0.99517,6.23845 -0.79072,1.8198 -2.00762,-1.81846 -3.09014,-2.15667 -0.49713,-2.07662 -2.64029,-2.84801 -3.22244,-4.96542 -1.33341,-2.03442 0.57756,-4.705 -0.94746,-6.70059 -1.08732,-1.66262 -0.53408,-3.72926 -1.0769,-5.55989 0.74662,-2.07794 1.02489,-4.40471 0.42703,-6.59906 -0.26931,-1.84582 2.27653,-2.7117 1.56175,-4.83525 0.16247,-2.09805 3.44819,-1.59067 3.70455,-3.92579 0.21051,-0.27156 0.0994,-0.59891 -0.012,-0.87699 z" />
  <path
     id="path448"
     style="fill:#ce7e5b;fill-opacity:1;stroke:#ce7e5b;stroke-width:0.264583px;stroke-linecap:butt;stroke-linejoin:miter;stroke-opacity:1"
     d="m 237.5706,33.94605 c 0.26905,0.22642 0.66995,0.13879 0.9421,0.36264 0.2466,0.15575 0.51298,0.30235 0.69385,0.53696 0.0657,0.21865 -0.21114,0.28904 -0.34439,0.39209 -0.22779,0.14936 -0.39607,0.38669 -0.43398,0.65886 -0.0783,0.21621 0.10815,0.36272 0.27459,0.45276 0.22766,0.15613 0.46428,0.3221 0.73773,0.38144 0.19725,-0.0263 0.21241,-0.27676 0.24463,-0.43293 0.0383,-0.36556 0.0707,-0.73499 0.20343,-1.0817 0.0703,-0.23649 0.26702,-0.57013 -0.041,-0.72009 -0.3785,-0.28509 -0.65316,-0.73613 -1.12942,-0.87453 -0.41012,-0.0948 -0.80477,0.12815 -1.14759,0.3245 z" />
  <path
     id="path454"
     style="fill:#ce7e5b;fill-opacity:1;stroke:#ce7e5b;stroke-width:0.264583px;stroke-linecap:butt;stroke-linejoin:miter;stroke-opacity:1"
     d="m 256.44667,39.53021 c -1.46028,0.75935 -2.3654,2.29113 -2.7518,3.84826 -0.21419,0.9242 -0.20926,1.90317 -0.61993,2.77573 -0.13361,0.49202 0.19491,-0.25111 0.22122,-0.41308 0.22591,-0.68718 0.45504,-1.3737 0.74695,-2.0359 0.23824,-0.71256 0.75001,-1.28087 1.15141,-1.90386 0.45651,-0.68606 0.95848,-1.36588 1.22753,-2.15188 l 0.0138,-0.0593 z" />
  <path
     id="path460"
     style="fill:#ce7e5b;fill-opacity:1;stroke:#ce7e5b;stroke-width:0.264583px;stroke-linecap:butt;stroke-linejoin:miter;stroke-opacity:1"
     d="m 260.00228,51.84361 c 0.2557,0.58946 0.31035,1.26363 0.1556,1.88668 -0.0552,0.18901 -0.20438,0.34899 -0.20644,0.55328 0.11347,-0.0984 0.19709,-0.22806 0.28714,-0.34722 0.18932,-0.30204 0.34115,-0.62565 0.52578,-0.93054 0.12188,-0.22855 0.26068,-0.47441 0.24452,-0.74163 -0.0273,-0.22269 -0.25799,-0.31889 -0.45014,-0.36198 -0.18218,-0.0412 -0.37107,-0.0515 -0.55646,-0.0586 z" />
  <path
     id="path466"
     style="fill:#800000;fill-opacity:1;stroke:#800000;stroke-width:0.264583px;stroke-linecap:butt;stroke-linejoin:miter;stroke-opacity:1"
     d="m 193.68611,143.64786 c -1.19178,1.50377 -1.66515,3.51496 -3.20077,4.75587 -1.29749,2.02501 2.14604,1.96906 3.16785,1.02898 1.3336,-0.9584 2.21945,0.1382 2.86263,1.1957 1.18843,0.73277 2.4706,-0.96429 3.69899,-0.21577 1.06706,1.25005 2.83144,1.07022 4.29997,0.93363 1.51894,-0.24023 3.01678,-1.086 4.58109,-0.65272 -1.22034,-0.54738 -2.03741,-1.78507 -2.72199,-2.87269 -0.58896,-1.91616 -2.56379,-1.99014 -4.179,-1.52649 -1.80877,0.12652 -3.75023,-0.14793 -5.17116,-1.36623 -0.9597,-0.7344 -2.1138,-1.25734 -3.33761,-1.28028 z" />
  <path
     id="path473"
     style="fill:#800000;fill-opacity:1;stroke:#800000;stroke-width:0.264583px;stroke-linecap:butt;stroke-linejoin:miter;stroke-opacity:1"
     d="m 299.88367,153.90641 c -0.28943,0.72904 -0.3568,1.70206 -1.27146,1.93941 -0.39665,0.34958 -1.77397,0.51067 -1.47744,1.05996 0.87143,0.38743 1.89564,-0.18483 2.74029,0.33907 1.03709,-0.31405 1.87759,1.06781 2.90163,0.49939 0.68515,-0.406 1.49711,-0.12528 2.22058,0.006 0.92992,0.60968 2.0188,0.51148 3.08159,0.46934 1.66055,-0.0926 2.56136,0.16431 4.23023,0.0975 0.71351,-0.62423 -0.34732,-0.37516 -0.51397,-1.05624 -0.70019,-0.71081 -0.35039,-2.13834 -1.43941,-2.46293 -0.99823,-0.26645 -2.05173,-0.27109 -3.03654,-0.61362 -1.55603,-0.51136 -3.19858,-0.76332 -4.83575,-0.59033 -0.8708,0.065 -1.73565,0.18941 -2.59975,0.31222 z" />
  <path
     id="path479"
     style="fill:#fc9c69;fill-opacity:1;stroke:#fc9c69;stroke-width:0.264583px;stroke-linecap:butt;stroke-linejoin:miter;stroke-opacity:1"
     d="m 108.08537,104.73261 c -0.90054,9.06583 -4.31719,17.84105 -3.60338,27.06561 -0.026,5.18594 -1.23756,10.33324 -2.67736,15.29424 -1.16721,4.71876 -6.573257,7.19342 -11.096557,6.41278 -11.256813,-1.80145 -22.666469,-2.13175 -34.039601,-2.61892 -3.718085,-1.85228 -10.143589,1.81483 -11.91305,-1.61954 -0.394223,-5.18528 -2.334557,-10.13199 -2.413549,-15.38628 -1.053748,-9.94077 2.002124,-20.19686 -1.421002,-29.86245 -3.628976,-5.03746 2.530234,-7.79221 6.737967,-8.63778 5.495381,-0.58686 11.083845,-0.41927 16.617882,-0.66882 8.292607,-0.35904 15.916633,3.37185 23.964266,4.70461 5.361877,1.42577 11.289237,1.52769 15.920214,4.90128 1.1928,0.63525 2.62915,0.92968 3.92417,0.41527 z" />
  <path
     id="path485"
     style="fill:#fc9c69;fill-opacity:1;stroke:#fc9c69;stroke-width:0.264583px;stroke-linecap:butt;stroke-linejoin:miter;stroke-opacity:1"
     d="m 64.875756,61.60857 c -2.660563,2.42965 -6.478088,2.84748 -9.399194,4.90847 -4.30557,2.50199 -8.602922,5.08329 -13.163742,7.05995 -2.140099,0.73133 -4.786545,3.28596 -0.754493,3.09232 4.901991,0.74753 10.163603,0.12115 14.52862,2.97873 4.276165,1.89173 8.095765,6.62368 13.232422,5.20443 3.670955,-1.95867 7.515537,-3.6838 11.689112,-4.31956 5.993586,-2.02038 12.543442,-1.1549 18.491192,-3.35748 3.975147,-0.62094 8.007927,-0.94698 11.916447,-1.79931 1.51265,-2.3312 -4.90815,-2.26089 -6.43368,-3.95645 -4.10985,-2.32327 -8.105527,-4.87435 -11.842577,-7.73866 -3.34942,-1.29817 -6.870632,-2.26418 -9.679825,-4.64643 -3.796806,-3.0534 -8.891873,-1.09868 -12.603221,1.04534 -1.717919,0.91021 -4.14791,3.88706 -5.981061,1.52865 z" />
  <path
     id="path491"
     style="fill:#1a1a1a;fill-opacity:1;stroke:#1a1a1a;stroke-width:0.264583px;stroke-linecap:butt;stroke-linejoin:miter;stroke-opacity:1"
     d="m 81.316602,18.32925 c 3.495742,1.50187 6.295719,4.30932 7.909111,7.73899 1.59577,2.11933 -2.529968,3.92001 -0.55405,5.95076 0.83667,1.72212 -1.840714,3.45656 0.26663,5.09596 1.46306,1.98379 3.26569,3.78922 5.76696,4.09322 -0.81098,0.92411 -3.68684,2.34955 -0.73585,2.88959 1.44575,-0.0658 2.89196,1.39487 0.6808,1.57986 -1.86895,0.95298 -3.73392,3.21858 -2.76845,5.44765 -2.83412,1.13763 -3.0864,3.98341 -1.58764,6.34616 0.97251,2.19212 2.17163,6.39812 -1.793685,5.76517 -1.55386,0.32813 -2.139112,0.68314 -1.945342,-1.26821 -0.965427,-2.29169 -4.076789,-2.06244 -5.515142,-3.88991 -0.988004,-2.3845 1.730645,-4.87565 0.290328,-7.20846 -1.020754,-3.37561 0.512594,-6.87113 -0.23268,-10.29475 -0.290877,-2.9779 0.937827,-5.88742 -0.02036,-8.85244 -0.287708,-2.66814 0.314326,-5.36075 -0.181419,-8.03133 -0.705848,-1.93739 0.904969,-3.52124 0.420789,-5.36226 z" />
  <path
     id="path497"
     style="fill:#1a1a1a;fill-opacity:1;stroke:#1a1a1a;stroke-width:0.264583px;stroke-linecap:butt;stroke-linejoin:miter;stroke-opacity:1"
     d="m 53.142864,25.3613 c 1.669889,2.15022 1.253023,5.00986 2.113148,7.41225 0.551184,2.15543 1.096717,4.43745 0.959357,6.633 -1.009202,2.16537 -1.432327,4.63153 -0.669898,6.95069 0.731654,2.34917 1.457503,4.71797 1.4941,7.19893 0.717603,3.85463 6.43472,5.924403 4.193665,9.555173 -1.280931,1.82296 -8.060044,4.209387 -9.54003,5.829497 -1.246213,0.945 -3.135623,3.07355 -3.294634,-0.0723 0.323252,-2.72903 -0.538502,-5.33436 -1.589273,-7.79195 0.532586,-2.18438 0.989798,-4.29294 0.283809,-6.52019 -0.10979,-2.1213 1.167319,-4.05583 0.431624,-6.19394 -0.518395,-2.12919 -2.276212,-3.73006 -2.66432,-5.93287 0.178586,-2.35108 -2.009381,-4.16522 -1.583025,-6.49034 1.028512,-1.73435 -1.995812,-5.4355 0.999746,-5.69206 2.611455,1.05453 3.742915,-1.06257 5.115267,-2.74695 1.138649,-0.89478 2.492382,-1.44268 3.750466,-2.13898 z"
     sodipodi:nodetypes="ccccccccccccccccc" />
  <path
     id="path503"
     style="fill:#dc783c;fill-opacity:1;stroke:#dc783c;stroke-width:0.264583px;stroke-linecap:butt;stroke-linejoin:miter;stroke-opacity:1"
     d="m 58.590275,42.46451 c -1.619971,-0.0442 -4.007081,-2.53476 -3.587509,0.63825 -0.498567,2.62771 0.172165,5.17606 0.753765,7.72177 1.111868,6.03151 1.183151,12.47842 4.359427,17.9179 1.28079,2.06538 2.313886,4.39061 2.28492,6.86761 1.794309,-0.15415 2.058526,-3.44328 4.404888,-3.40292 2.611357,-0.68978 0.573168,4.65924 3.386826,2.56833 2.426476,-1.26799 4.553615,-2.99643 6.281049,-5.1199 2.011038,-2.30826 4.270239,-4.62819 5.280213,-7.5701 1.214687,-3.75253 -0.801381,-7.61719 0.248511,-11.3797 0.157481,-2.56662 1.214463,-5.83855 -0.663298,-7.9475 -2.318467,-0.63245 -4.85228,0.007 -7.245009,-0.56041 -4.882499,-0.25992 -9.769364,0.24039 -14.653212,0.11989 -0.286495,0.0286 -0.571625,0.0756 -0.850571,0.14678 z" />
  <path
     id="path509"
     style="fill:#711302;fill-opacity:1;stroke:#711302;stroke-width:0.264583px;stroke-linecap:butt;stroke-linejoin:miter;stroke-opacity:1"
     d="m 82.163686,58.40825 c 1.557004,-0.30637 -0.181405,1.957 -0.457863,2.62042 -1.347549,1.65462 -3.211669,2.74487 -4.927085,3.97204 -1.356439,0.91928 -3.016707,1.11953 -4.495332,1.77176 -2.109134,0.48883 -3.818282,1.98919 -5.911814,2.49376 -1.54146,-0.18486 -2.87963,-1.14756 -4.461031,-1.26468 -1.633659,-0.68151 -3.072534,-0.986875 -4.664683,-1.750345 -0.663982,-0.41027 0.589102,-1.138051 0.589102,-1.138051 1.55171,0.56252 1.529865,0.413306 2.912077,1.421156 1.277921,1.09036 3.048068,1.03588 4.587596,1.52228 1.599377,0.36831 3.29818,0.0977 4.673581,-0.80775 1.653165,-0.65371 3.040456,-1.75702 4.488356,-2.75323 1.324026,-0.568 2.535997,-1.35069 3.622776,-2.30039 1.410463,-0.84006 2.606471,-2.00303 3.548162,-3.33229 0.15639,-0.16104 0.323598,-0.31125 0.496158,-0.45468 z"
     sodipodi:nodetypes="ccccccccccccccc" />
  <path
     id="path515"
     style="fill:#2ca02c;stroke:#2ca02c;stroke-width:0.264583px;stroke-linecap:butt;stroke-linejoin:miter;stroke-opacity:1"
     d="m 66.48696,67.76954 c 0.444875,-0.31537 1.293533,-0.22997 1.263987,0.45762 0.155816,0.82349 0.06921,1.74393 0.526817,2.47589 0.543162,0.56808 0.536566,1.38148 0.71909,2.09719 0.138866,0.95162 -0.107423,2.06416 -0.898278,2.67547 -0.865786,0.36824 -1.687298,-0.28101 -2.474398,-0.56219 -0.856589,-0.39714 -0.953492,-1.52041 -0.684154,-2.31913 0.192821,-0.75361 0.798978,-1.32522 0.900343,-2.11139 0.162575,-0.61387 0.566686,-1.17027 0.488694,-1.83704 0.01482,-0.29661 0.03763,-0.60069 0.157899,-0.87642 z" />
  <path
     id="path526"
     style="fill:#dc783c;fill-opacity:1;stroke:#dc783c;stroke-width:0.264583px;stroke-linecap:butt;stroke-linejoin:miter;stroke-opacity:1"
     d="m 77.094246,74.24514 c 4.968864,-0.80892 10.215994,1.53609 14.955767,-1.04043 4.58723,-1.03767 9.220637,-3.79903 13.985857,-2.60728 4.32114,1.65278 9.58904,2.68519 11.95446,7.15563 5.2678,5.37366 7.24121,13.02767 7.65796,20.34509 -2.61851,3.95323 -2.86328,8.74714 -0.21746,12.86006 0.36569,5.13835 2.24803,10.42575 0.15038,15.43393 -2.31324,5.68152 1.13692,11.89116 -0.805,17.75315 -1.28022,4.53558 -2.89141,9.92045 -6.49181,12.83934 -5.87888,0.24357 -12.06145,-2.00081 -18.09761,-2.47691 -5.809817,-1.27024 -11.658285,-3.26489 -15.278837,-8.34486 -3.671035,-5.34567 -2.323366,-12.31701 -4.855844,-18.12363 0.543223,-2.52452 2.280555,-11.44577 5.667323,-8.05317 -1.639167,6.19091 1.218685,12.50657 6.854681,15.5475 4.61972,3.64536 12.845637,2.04499 15.697437,-2.23965 -3.6585,-5.35474 -7.13256,-10.99799 -8.554267,-17.50425 -2.48149,-6.8492 0.675337,-13.97757 -0.82332,-20.89836 -2.85781,2.82251 -3.79341,11.07722 -6.53922,15.67167 -2.60208,5.87668 -10.648274,4.50898 -15.913288,4.31242 -6.372485,0.46478 -12.422389,-4.59412 -18.302116,-1.04328 -5.872045,0.90552 -12.275938,2.90015 -18.048269,0.72424 -3.738598,-2.23044 -3.328266,-10.11733 -5.265449,-11.04219 1.058438,6.008 1.620402,10.8413 -1.420747,15.60246 -2.449635,3.793 -1.931302,9.36231 -5.707746,11.84689 -5.282185,3.60327 -4.964056,5.18066 -3.555093,9.45082 2.157799,6.16285 1.641412,0.74007 4.30038,-3.48726 3.51503,-1.50485 6.821947,6.95731 4.279278,9.93256 -1.26256,6.23674 -2.356941,-4.73601 -3.454685,1.59127 -2.15416,5.94515 -4.130742,2.19379 -8.511776,0.83934 -4.08993,-3.83938 -2.306861,5.20696 -7.417608,2.62375 -4.2120451,-2.4323 -3.3586051,-4.85676 -5.5507621,-9.12878 -0.152592,-4.76956 -5.665405,-11.76054 -1.482062,-15.2891 2.891733,-5.38781 4.8375651,-11.15445 7.8002521,-16.51053 5.576303,-4.27537 6.958281,-11.10073 6.372132,-18.50052 0.281148,-6.13592 5.946818,-9.6339 9.308724,-14.11635 4.220519,-4.32395 10.298688,-7.56033 16.438202,-5.25698 6.05285,2.12081 13.046647,3.13596 17.569527,8.01439 4.614006,-1.68503 8.28561,-6.19477 13.300609,-6.88098 z" />
  <path
     id="path533"
     style="fill:#711302;fill-opacity:1;stroke:#711302;stroke-width:0.264583px;stroke-linecap:butt;stroke-linejoin:miter;stroke-opacity:1"
     d="m 38.124257,107.74169 c 0.456193,-0.14086 0.968672,0.0366 1.272148,0.39722 0.447469,0.50402 0.635754,1.22565 0.51565,1.88598 -0.06437,0.28956 -0.203354,0.60644 -0.484063,0.74164 -0.362265,0.11257 -0.745254,-0.044 -1.060526,-0.22048 -0.244639,-0.15445 -0.506773,-0.38092 -0.501347,-0.69663 -0.01066,-0.43107 -7.71e-4,-0.86393 0.0305,-1.29378 0.04194,-0.27983 0.14881,-0.54367 0.227643,-0.81395 z" />
  <path
     id="path571"
     style="fill:#fc9c69;fill-opacity:1;stroke:#fc9c69;stroke-width:0.264583px;stroke-linecap:butt;stroke-linejoin:miter;stroke-opacity:1"
     d="m 82.619886,16.60312 c 0.435698,3.65913 1.339987,7.28047 1.165817,10.99224 0.302047,3.25075 0.409992,6.51734 0.04408,9.7682 -0.0586,2.9561 -0.07282,5.91783 0.107125,8.86198 0.23912,2.10526 -0.88989,3.92998 -2.576713,5.09644 -1.465867,1.38836 -2.704735,3.01076 -4.468065,4.06052 -1.407077,0.9699 -3.296061,1.81352 -4.974621,1.02803 -1.773936,0.014 -3.819053,0.55546 -5.269384,-0.84248 -1.572945,-1.35012 -3.142454,-2.68971 -4.804406,-3.92213 -1.603358,-0.89118 -2.498544,-2.5447 -3.931443,-3.65007 -1.635158,-1.0332 -2.761947,-2.77939 -2.715035,-4.74542 -0.03394,-2.46784 -0.164868,-4.92836 -0.361657,-7.38766 -0.151644,-4.9976 0.163812,-9.99932 -0.06466,-14.99267 0.225034,-1.95214 2.470194,-2.47667 3.64139,-3.74591 2.497073,-2.26034 5.912772,-2.98675 8.804179,-4.5941 3.585067,-1.58987 7.809368,-2.14481 11.547487,-0.75945 1.779346,1.11362 2.47023,3.46462 3.855904,4.83248 z" />
  <path
     id="path576"
     style="fill:#800000;fill-opacity:1;stroke:#800000;stroke-width:0.264583px;stroke-linecap:butt;stroke-linejoin:miter;stroke-opacity:1"
     d="m 59.104791,18.15594 c 1.530323,-0.43733 3.123935,-0.63932 4.628189,-1.16475 2.691468,-0.46838 5.433124,-0.52993 8.136466,-0.91105 3.68524,-0.38313 7.167718,1.17349 10.548075,2.40471 1.262913,0.28306 1.443347,1.72576 1.423828,2.81105 0.233846,2.19721 0.18774,4.41996 0.06358,6.62572 -0.5431,-1.17403 -0.971929,-2.61795 -2.289135,-3.13785 -1.425432,-0.77059 -3.015629,-1.2456 -4.641595,-1.24305 -2.170083,-0.26469 -4.35169,-0.71347 -6.543886,-0.40748 -1.817223,0.0891 -3.598102,0.52789 -5.424573,0.44303 -2.5492,0.0731 -5.18266,0.20864 -7.566845,1.18939 -1.159885,0.81917 -2.065282,2.07019 -2.358269,3.49182 -0.04162,0.87174 -0.968601,2.62506 -1.034662,0.84036 -0.490381,-1.50384 -0.9129,-3.08882 -0.58251,-4.67652 0.375428,-1.30494 0.120332,-3.03417 1.463245,-3.81718 1.425155,-0.76255 2.758959,-1.67475 4.178097,-2.4482 z" />
  <path
     id="path582"
     style="fill:#faa485;fill-opacity:1;stroke:#faa485;stroke-width:0.264583px;stroke-linecap:butt;stroke-linejoin:miter;stroke-opacity:1"
     d="m 68.50803,45.37678 c 0.811153,-0.19146 1.529119,-0.77803 2.396016,-0.70033 0.591687,0.046 1.183536,0.0872 1.777315,0.0523 0.745019,-0.003 1.534657,-0.0403 2.227941,0.27185 0.365665,0.24286 0.69362,0.64924 0.653834,1.11066 -0.299201,0.28766 -0.823484,0.22512 -1.224923,0.24646 -0.478825,-0.0286 -0.955645,0.009 -1.427678,0.0862 -0.633422,0.0501 -1.276766,0.0852 -1.88028,0.30229 -0.644988,0.16912 -1.263575,-0.14504 -1.809542,-0.45334 -0.339993,-0.14314 -0.920846,-0.26696 -0.617423,-0.76756 l -0.04804,-0.074 -0.04722,-0.0745 z" />
  <path
     id="path588"
     style="fill:#d87e5e;fill-opacity:1;stroke:#d87e5e;stroke-width:0.264583px;stroke-linecap:butt;stroke-linejoin:miter;stroke-opacity:1"
     d="m 67.386504,45.31577 c 0.664984,-0.48436 1.4506,-0.76243 2.231953,-0.98434 0.536183,-0.14565 1.099137,-0.21992 1.642705,-0.3123 0.697728,0.19995 1.389934,0.0986 2.080224,-0.074 0.807458,-0.17872 1.730734,0.18495 2.111666,0.93707 0.146676,0.45025 0.643286,0.81254 0.698533,1.23681 -0.534931,-0.0405 -0.777934,-0.68517 -1.231713,-0.92362 -0.596115,-0.4779 -1.406482,-0.35134 -2.091158,-0.59143 -0.496097,-0.0794 -0.982821,0.12253 -1.48227,0.0896 -1.04314,0.0293 -2.012311,0.45916 -2.963102,0.83858 -0.49019,0.0931 -0.962727,0.27078 -1.397726,0.50812 -0.191821,-0.17564 0.11049,-0.7668 0.400888,-0.72454 z" />
  <path
     id="path594"
     style="fill:#ba5134;fill-opacity:1;stroke:#ba5134;stroke-width:0.264583px;stroke-linecap:butt;stroke-linejoin:miter;stroke-opacity:1"
     d="m 67.40499,46.24747 c 0.594074,0.004 1.294551,-0.26411 1.811833,0.13023 0.47747,0.41966 1.137078,0.48071 1.741435,0.54582 0.595039,0.0387 1.087602,-0.37306 1.669827,-0.42998 0.732604,-0.13945 1.48136,-0.12353 2.221041,-0.10555 0.39926,-0.084 1.390031,-0.11393 0.935868,0.52877 -0.504053,0.53914 -1.311914,0.53405 -1.938992,0.85947 -0.596649,0.1918 -1.235915,0.17354 -1.840468,0.33732 -0.931754,0.1748 -1.936465,0.0425 -2.726326,-0.50738 -0.454303,-0.27752 -0.864409,-0.64905 -1.406523,-0.74179 -0.304847,-0.049 -1.094396,-0.002 -0.710367,-0.50651 0.07651,-0.0446 0.160331,-0.0779 0.242672,-0.1104 z" />
  <path
     id="path604"
     style="fill:#cccccc;fill-opacity:1;stroke:#cccccc;stroke-width:0.264583px;stroke-linecap:butt;stroke-linejoin:miter;stroke-opacity:1"
     d="m 75.444145,30.26659 c 0.09002,-0.59349 0.08574,-0.75863 0.560424,-1.04757 0.292271,-0.14923 0.631937,-0.33552 0.959579,-0.17424 0.478712,0.20129 0.940996,0.45909 1.463996,0.53047 0.878907,0.13656 1.611201,0.67316 2.396326,1.04963 0.376241,0.27133 0.119494,0.76955 -0.09534,1.05912 -0.355767,0.47069 -0.934349,0.67987 -1.470738,0.86854 -0.486923,0.17033 -0.997007,0.0483 -1.490717,-0.009 -0.592423,-0.15254 -0.76219,-0.38464 -1.345044,-0.56685 -0.467743,-0.21794 -0.83168,-0.74802 -1.055386,-1.25239 -0.01859,-0.088 0.119913,-0.38263 0.08709,-0.46805 z" />
  <path
     id="path610"
     style="fill:#cccccc;fill-opacity:1;stroke:#cccccc;stroke-width:0.264583px;stroke-linecap:butt;stroke-linejoin:miter;stroke-opacity:1"
     d="m 62.056734,30.98749 c 0.877053,0.3181 1.67261,0.94748 2.645841,0.93163 0.537177,-0.01 1.08273,-0.1234 1.567521,-0.35589 0.302122,-0.20528 0.502604,-0.5239 0.79909,-0.73857 0.606962,-0.51015 0.572531,-1.44649 0.227185,-2.09739 -0.100762,-0.35447 -0.447738,-0.59471 -0.81507,-0.46654 -0.834396,0.12396 -1.608301,0.49556 -2.442955,0.62388 -0.619395,0.0932 -1.205372,0.33673 -1.716839,0.69661 -0.28303,0.19253 -0.545573,0.41774 -0.765519,0.68075 -0.07086,0.27752 0.172005,0.75479 0.500746,0.72552 z" />
  <path
     id="path616"
     style="fill:#4d4d4d;fill-opacity:1;stroke:#4d4d4d;stroke-width:0.264583px;stroke-linecap:butt;stroke-linejoin:miter;stroke-opacity:1"
     d="m 77.16827,29.28004 c -0.201432,0.24391 -0.234551,0.58943 -0.132308,0.88248 0.0833,0.3184 0.197263,0.66308 0.473041,0.86639 0.263066,0.15303 0.583928,0.0792 0.858297,-0.003 0.17442,-0.0375 0.27618,-0.17257 0.347207,-0.32631 0.142817,-0.17738 0.384101,-0.33234 0.366778,-0.58837 -0.01068,-0.17086 -0.117287,-0.35149 -0.301582,-0.37284 -0.246573,-0.0492 -0.538921,0.0156 -0.73986,-0.17309 -0.200749,-0.15475 -0.405105,-0.31065 -0.636277,-0.418 -0.101603,-0.0206 -0.156517,0.0924 -0.235296,0.13312 z" />
  <path
     id="path622"
     style="fill:#4d4d4d;fill-opacity:1;stroke:#4d4d4d;stroke-width:0.264583px;stroke-linecap:butt;stroke-linejoin:miter;stroke-opacity:1"
     d="m 63.987284,29.04693 c -0.214799,0.1889 -0.280193,0.50878 -0.183565,0.77416 0.03982,0.2232 0.196094,0.39253 0.373505,0.52111 0.205512,0.17958 0.502575,0.18283 0.75615,0.13037 0.281686,-0.0609 0.405537,-0.34555 0.552109,-0.5612 0.10802,-0.18007 0.30782,-0.29196 0.371846,-0.50041 0.07368,-0.2273 0.158603,-0.48863 0.05331,-0.71977 -0.107671,-0.15497 -0.323163,-0.10899 -0.484447,-0.10942 -0.303065,0.031 -0.537831,0.27009 -0.845214,0.28852 -0.210554,0.009 -0.436536,0.0128 -0.593699,0.17664 z" />
  <path
     id="path628"
     style="fill:#1a1a1a;fill-opacity:1;stroke:#1a1a1a;stroke-width:0.264583px;stroke-linecap:butt;stroke-linejoin:miter;stroke-opacity:1"
     d="m 75.186349,26.5406 c -0.337065,0.27746 -0.421085,0.76792 -0.822242,0.98778 -0.227987,0.46724 0.337352,0.75883 0.730991,0.75593 0.675343,0.0586 1.346832,-0.0974 2.019149,-0.12946 1.005082,-0.22579 2.00956,-0.79037 3.067631,-0.55511 0.478286,0.13978 0.838395,0.51694 1.312954,0.67612 0.50143,0.28009 0.893719,0.72725 1.420984,0.96832 0.154902,0.15064 0.644544,0.42718 0.272617,0.0618 -0.375913,-0.46737 -0.785699,-0.9214 -1.335621,-1.18645 -0.515316,-0.21054 -0.659371,-0.81715 -1.151854,-1.04958 -0.846341,-0.42062 -1.813999,-0.15932 -2.716071,-0.20618 -0.710466,0.0328 -1.37558,-0.28259 -2.084895,-0.25328 -0.238839,-0.008 -0.479905,-0.0179 -0.713643,-0.0699 z" />
  <path
     id="path634"
     style="fill:#1a1a1a;fill-opacity:1;stroke:#1a1a1a;stroke-width:0.264583px;stroke-linecap:butt;stroke-linejoin:miter;stroke-opacity:1"
     d="m 66.192762,25.96022 c 0.790928,0.11239 1.70709,-0.0538 2.366108,0.49339 0.243388,0.4655 0.775965,0.96106 0.611652,1.52609 -0.443144,0.433 -1.12752,0.0632 -1.586256,-0.17713 -0.650519,-0.11443 -1.339255,-0.0577 -1.905233,-0.46945 -0.880695,-0.38981 -1.844169,-0.5287 -2.783759,-0.68685 -0.93527,0.008 -1.63039,0.73769 -2.435231,1.11319 -0.792737,0.33693 -1.617735,0.66654 -2.484671,0.73023 0.510576,-0.0392 0.964865,-0.28792 1.335995,-0.62816 0.598942,-0.32431 1.03407,-0.85103 1.653493,-1.13757 0.54355,-0.33239 1.191865,-0.44772 1.772265,-0.70767 0.821458,-0.22975 1.685475,-0.0966 2.522952,-0.20789 0.316006,-0.009 0.642073,0.018 0.932685,0.15182 z" />
  <path
     id="path156"
     style="fill:#dc783c;fill-opacity:1;stroke:#dc783c;stroke-width:0.264583px;stroke-linecap:butt;stroke-linejoin:miter;stroke-opacity:1"
     d="m 73.27316,25.86191 c 0.164872,2.3952 0.193033,4.83007 0.773402,7.17126 0.235627,0.95494 0.694612,1.83665 0.920651,2.78765 0.371473,0.89223 0.684582,1.88236 0.533159,2.85596 -0.272535,1.04054 -1.571866,1.0424 -2.441392,0.98347 -1.060395,-0.12834 -2.125029,-0.16463 -3.189548,-0.0818 -0.90061,0.0952 -2.135805,-0.31563 -2.040464,-1.42078 0.03094,-0.98845 0.551976,-1.91389 1.295567,-2.54823 0.439671,-0.7366 0.670863,-1.5806 1.16623,-2.28293 0.920635,-2.25522 -0.07097,-4.67247 0.148003,-6.99844 0.02488,-0.34436 -0.019,-1.23164 0.25624,-0.43201 0.05294,0.67099 0.355263,1.51734 0.971546,1.71045 0.170868,-0.54148 0.01,-1.7894 0.311229,-1.89668 0.06264,0.38517 0.388788,1.47967 0.631449,0.54987 0.0612,-0.30406 0.349293,-0.54481 0.663928,-0.39777 z" />
  <path
     id="path162"
     style="fill:#1a1a1a;fill-opacity:1;stroke:#1a1a1a;stroke-width:0.264583px;stroke-linecap:butt;stroke-linejoin:miter;stroke-opacity:1"
     d="m 54.254815,9.3523 c 0.764278,-1.76804 3.052619,-1.72824 4.3711,-2.91414 2.214191,-1.19574 4.985381,0.93239 6.678041,-1.20723 2.007698,-0.8218 3.47864,1.8984 5.318717,0.17046 1.824174,-1.10348 3.975409,-1.23015 6.043663,-1.39379 2.549159,-0.34006 -1.567518,1.60402 0.484062,1.81616 2.75875,0.17651 5.312832,1.78465 6.815102,4.08196 1.407817,1.10781 2.067002,2.91474 1.732144,4.46843 1.694871,1.77814 0.750508,4.28413 1.608753,6.25461 0.686936,2.11497 2.258586,3.71767 3.182976,5.6715 0.36285,1.40002 0.17575,3.13034 0.40483,4.28773 -1.94798,-0.90169 -2.251793,-3.59877 -4.35307,-4.22502 -1.602813,-0.24605 -3.31281,-1.89615 -3.344611,-3.46562 -0.662746,-1.49829 -0.3631,-4.60629 -2.195715,-4.86071 -1.354015,1.0542 1.339106,4.52152 -1.023474,3.4095 -1.406144,-1.51512 -0.865814,-4.09619 -3.289558,-4.85271 -0.76842,-0.33531 -2.935964,-1.99854 -1.282897,-0.55246 1.215185,1.75649 2.270227,3.67094 3.199775,5.55012 0.483434,1.19134 -0.679611,3.7146 -1.334672,1.41688 -1.418836,-2.31284 -2.551233,-4.93252 -4.666206,-6.70825 -2.016313,-1.19418 0.05361,1.79531 0.194233,2.59836 0.128505,0.69163 1.495037,4.04147 -0.03876,2.17867 -1.262701,-1.9073 -2.817651,-3.57686 -4.872079,-4.59863 -1.784054,-1.29538 0.425019,1.38407 0.446942,2.13123 0.421682,1.27956 1.741084,4.91929 -0.411628,4.80566 -1.26082,-1.51978 -1.636379,-3.57511 -2.609337,-5.28503 -0.203242,-0.92689 -2.102009,-2.33655 -1.245734,-0.51371 0.338386,1.58505 2.592242,4.56178 0.371268,5.43496 -1.236926,-0.52509 -4.540197,0.0907 -3.091844,-2.11513 0.800152,-1.34907 -2.055769,-3.87225 -2.018204,-1.30525 -0.65479,1.80212 1.837112,3.83342 1.091885,5.16839 -1.25807,-0.01 -3.264418,-3.57497 -3.281584,-0.90483 -0.199378,2.15128 -0.08441,4.32997 -0.377953,6.46945 -0.65607,1.16166 -2.480249,-3.35515 -2.248489,-0.71772 1.072876,0.50791 1.444139,3.99907 -0.144117,2.40595 -0.67635,-2.08458 -3.03331,-3.55389 -5.000608,-2.06695 -1.255029,1.35242 -4.936772,1.36679 -3.595235,-1.20723 1.460323,-1.85255 1.502251,-4.16374 0.964218,-6.36752 -0.08761,-1.98936 -0.456526,-4.01244 -0.008,-5.97615 0.862625,-2.04424 2.567314,-3.68644 4.382592,-4.87799 1.196992,-0.50984 2.291782,-1.21167 3.143465,-2.20395 z" />
  <path
     id="path168"
     style="fill:#800000;fill-opacity:1;stroke:#800000;stroke-width:0.264583px;stroke-linecap:butt;stroke-linejoin:miter;stroke-opacity:1"
     d="m 43.535713,39.15543 c 1.624487,-1.30273 2.626783,-1.3051 2.965307,0.9929 4.356987,0.1007 2.736993,5.53674 2.747131,8.39695 0.605123,4.15991 -0.740916,8.21142 -1.352247,12.26952 -1.839557,5.74883 -2.410523,11.82809 -4.606409,17.48171 -1.813611,4.59768 -1.101389,10.08997 2.344443,13.74292 1.870582,1.39494 3.300626,3.8835 -0.159058,4.21025 -4.248699,2.94947 -2.965114,-5.65241 -4.26916,-6.73871 -0.697667,3.41349 -3.602034,5.83288 -4.509837,9.20055 -1.243157,2.40407 -1.756928,7.36992 -2.131335,8.52886 -0.53142,-3.39194 -0.651256,-6.89209 -0.411022,-10.31524 0.519186,-4.23285 2.835715,-7.91182 5.066167,-11.41988 2.049227,-3.85963 2.488631,-8.19886 2.669456,-12.47972 0.720535,-6.17784 1.555515,-12.35068 1.358143,-18.58927 -0.707389,-4.28049 1.023292,-8.17551 2.583598,-11.94338 -0.426852,-0.90408 -2.8713,1.58782 -2.463282,-1.3865 -0.113929,-0.65079 -0.04682,-1.32806 0.168105,-1.95096 z" />
  <path
     id="path178"
     style="fill:#000000;stroke:#000000;stroke-width:0.264583px;stroke-linecap:butt;stroke-linejoin:miter;stroke-opacity:1"
     d="m 40.152473,116.38015 c -1.381111,-4.36956 -6.624896,-1.5639 -4.835245,2.12285 0.389313,3.45178 -3.841235,4.12564 -5.364262,6.42554 1.404043,3.10339 -0.737117,5.09096 -3.444522,6.35359 -0.674837,2.66046 -4.7174,3.691 -4.761334,6.01687 0.834949,2.59488 0.908383,6.45167 4.034883,7.35621 2.611251,0.96286 5.322386,-0.0893 6.27642,-2.77207 1.736311,-2.1292 4.751552,-2.59018 6.875791,-4.34303 3.51613,-1.17466 7.566124,-0.87186 10.726538,-3.10027 4.015368,-1.14868 6.392344,-5.09536 10.422055,-6.25933 3.453738,-1.03127 6.507906,-3.01948 9.767466,-4.50664 3.262972,-1.12106 2.440037,-4.40941 -0.633756,-4.99005 -3.747852,-0.79751 -3.526216,-4.85684 -4.372001,-7.76233 -0.10361,-3.21998 -5.689969,-3.91594 -4.378577,-0.0307 -2.63639,-0.99443 -0.753252,-4.92044 -4.353773,-4.15218 -3.417233,-1.99916 -3.796009,4.69874 -6.794556,2.39333 -1.227651,2.24141 -1.690967,5.38359 -5.004584,5.04692 -0.923096,1.03552 -4.388934,1.92793 -3.968818,3.09532" />
  <path
     id="path196"
     style="fill:#000000;stroke:#000000;stroke-width:0.264583px;stroke-linecap:butt;stroke-linejoin:miter;stroke-opacity:1"
     d="m 61.590673,112.28614 c 2.989373,-1.23549 5.683115,-3.07544 8.616584,-4.43428 3.991688,-2.66992 7.952219,-5.39614 11.969546,-8.03413 4.865173,-2.27493 8.43249,-6.47825 13.14025,-8.99088 2.32261,-0.77552 4.34911,-2.2642 6.710017,-2.9032 2.74397,-0.8916 3.3615,3.9832 0.6698,4.18203 -2.51654,0.23121 -3.939307,2.72917 -6.102607,3.76899 -2.34114,1.07443 -4.34692,2.66274 -6.49677,4.03912 -2.829774,1.78447 -5.928215,3.06808 -8.774263,4.8234 -3.324542,2.29242 -6.494218,4.80816 -9.747443,7.1911 -2.361725,1.86927 -5.220879,2.7962 -7.865807,4.1348 -2.111836,0.90294 -1.83835,-2.62812 -2.119307,-3.77695 z" />
  <path
     id="path202"
     style="fill:#000000;stroke:#000000;stroke-width:0.264583px;stroke-linecap:butt;stroke-linejoin:miter;stroke-opacity:1"
     d="m 64.605971,117.79188 c 4.310184,-1.8113 8.40552,-4.18559 11.896939,-7.31106 3.040882,-2.2912 6.540885,-3.83469 9.97896,-5.40715 3.857513,-2.16336 7.382913,-4.93358 11.388453,-6.81359 2.09065,-0.8273 4.621127,2.19948 2.1163,3.55459 -3.36242,1.99661 -6.48379,4.40071 -9.79263,6.49872 -3.482859,2.59415 -7.57383,4.1879 -11.045091,6.79558 -4.363569,2.75909 -9.105439,4.95595 -14.076435,6.36047 -1.266902,-0.77046 -0.564347,-2.52694 -0.466496,-3.67756 z" />
  <path
     id="path208"
     style="fill:#1a1a1a;stroke:#1a1a1a;stroke-width:0.264583px;stroke-linecap:butt;stroke-linejoin:miter;stroke-opacity:1"
     d="m 82.802303,97.16498 c -1.515266,0.6382 -1.615841,2.55274 -1.665446,3.96965 -0.128742,1.39712 1.255343,2.13438 1.608409,3.3536 0.02289,1.054 -0.846887,2.05634 -0.208739,3.16464 0.638642,1.23417 0.397239,2.84244 1.381876,3.8947 1.216888,1.13087 2.74233,0.32063 3.922679,-0.35716 1.480891,-1.06017 3.182591,-1.7281 4.813181,-2.52379 1.20291,-0.47899 2.0889,-1.47321 3.23985,-2.02379 1.34508,-1.22021 -1.48992,-1.37702 -2.11183,-2.10875 -1.16781,-0.94569 -1.55113,-2.93308 -0.54335,-4.13729 0.81383,-0.87386 0.33469,-1.90424 -0.78162,-2.08104 -1.19375,-1.0368 -1.70712,-2.78583 -1.51514,-4.32974 1.00059,-1.28738 -0.90328,-1.56036 -1.68801,-0.80074 -1.261979,0.63079 -1.799538,2.03431 -2.837813,2.89345 -0.989133,0.91938 -3.03683,-0.16319 -3.665245,0.81974 l 0.0512,0.26652 z" />
  <path
     id="path220"
     style="fill:#000000;stroke:#000000;stroke-width:0.264583px;stroke-linecap:butt;stroke-linejoin:miter;stroke-opacity:1"
     d="m 94.549733,75.2989 c -0.33591,2.98778 -0.87779,5.94838 -1.21511,8.93596 -0.45827,2.7571 -1.40069,5.42049 -1.67116,8.21083 -0.25101,0.71397 -0.30648,1.86742 0.54099,0.91132 0.97837,-0.50431 1.73565,-1.4014 2.87164,-1.58157 0.95312,-0.275 2.64576,-0.30595 2.28571,-1.74305 -0.26573,-2.6182 0.15917,-5.23689 0.12476,-7.85933 0.0301,-2.26889 -0.0274,-4.55329 -0.26406,-6.80243 0.32345,-1.68651 -1.45356,-0.60771 -2.2189,-0.25211 -0.14924,0.0651 -0.30015,0.12658 -0.45387,0.18038 z" />
  <path
     id="path214"
     style="fill:#1a1a1a;stroke:#1a1a1a;stroke-width:0.264583px;stroke-linecap:butt;stroke-linejoin:miter;stroke-opacity:1"
     d="m 93.312263,73.5264 c -0.12316,0.54766 -0.85705,0.79719 -0.77442,1.42175 -0.007,0.69688 0.10177,1.48255 0.6298,1.98577 0.48587,0.40342 1.14357,0.1561 1.64875,-0.0698 0.87684,-0.41279 1.6323,-1.02797 2.40644,-1.60027 0.37983,-0.26486 0.95512,-0.40827 1.06192,-0.92305 0.0241,-0.55534 -0.10934,-1.11433 -0.30824,-1.62925 -0.19667,-0.43812 -0.6715,-0.63095 -1.12412,-0.65693 -0.51241,-0.0471 -1.0265,-0.0861 -1.53428,-0.16528 -0.54443,0.0209 -0.83749,0.55065 -1.15242,0.92146 -0.22752,0.29892 -0.50268,0.56706 -0.85343,0.71562 z" />
  <path
     id="path230"
     style="fill:#1a1a1a;fill-opacity:1;stroke:#1a1a1a;stroke-width:0.264583px;stroke-linecap:butt;stroke-linejoin:miter;stroke-opacity:1"
     d="m 41.477107,135.72081 c 0.823111,0.5446 1.851417,0.52288 2.729372,0.88201 0.979894,0.53045 0.89978,1.78403 0.184375,2.49813 -0.460373,0.67527 -0.867116,1.7631 0.352465,1.74126 0.2287,0.92759 1.334057,1.30122 1.608459,2.29594 0.0373,0.93108 -0.203828,1.95544 0.382161,2.77498 -0.09999,0.87303 0.175135,1.32883 0.916939,0.66111 0.903879,-0.52828 2.210913,0.68705 2.187274,-0.82628 1.429206,-0.45988 3.0267,0.18022 4.445103,0.56542 1.134355,0.64973 2.461058,1.20472 3.754986,0.55579 0.62307,-0.56844 2.39229,-0.47642 2.133266,-1.60423 -1.143157,-1.27931 -2.76838,-1.98791 -4.284104,-2.72387 -0.903561,-0.43753 -2.261076,-0.46529 -2.597129,-1.60176 -0.150885,-1.09469 -1.147334,-1.5977 -1.96381,-2.1668 -0.67081,-0.7084 -1.649802,-1.40519 -1.686643,-2.46759 0.577018,-1.29272 -0.830451,-2.44178 -2.028415,-1.69387 -1.926744,1.01722 -4.224539,0.0404 -6.134299,1.10976 z" />
  <path
     id="path236"
     style="fill:#dc783c;fill-opacity:1;stroke:#dc783c;stroke-width:0.264583px;stroke-linecap:butt;stroke-linejoin:miter;stroke-opacity:1"
     d="m 56.307629,119.29096 c 0.473225,-0.93759 1.794818,-1.07219 2.518009,-0.35474 0.612681,0.23516 0.886022,2.26781 1.115736,0.79763 0.05447,-1.50074 1.768019,-1.06438 2.596906,-0.49803 1.071812,0.67792 2.022852,1.60256 3.291783,1.90602 1.40611,0.56318 2.688538,1.46672 4.202681,1.73481 0.210077,1.81949 0.152508,3.66376 0.326448,5.48244 -0.203316,2.2287 -1.342156,4.36264 -1.030658,6.63147 0.635186,0.83207 -1.047888,1.47637 -1.484399,2.1043 -0.643947,0.71662 -1.437613,1.35945 -2.364785,1.60922 -1.68912,0.13733 -3.24284,0.87651 -4.926594,1.05339 -2.469165,0.30121 -5.067752,0.45651 -7.464033,-0.33313 -0.982142,-0.38412 -1.49319,-1.39394 -2.139205,-2.16729 -0.61103,-0.77811 -0.859784,-1.73783 -1.1292,-2.66304 -0.277944,-0.83026 -1.033036,-2.19512 0.03079,-2.73873 0.670539,-0.19892 2.188869,0.53998 1.776357,-0.79681 -0.264123,-0.99219 -0.838032,-2.03873 -0.345751,-3.06188 0.444558,-1.1889 1.608133,-2.30963 2.960911,-2.12641 0.942747,1.18597 0.27869,3.09069 1.57131,4.07421 0.786849,0.43544 1.714334,1.22487 2.655466,0.79358 0.196561,-1.07624 -1.203327,-1.75263 -1.520413,-2.75539 -1.094666,-1.91893 -1.669435,-4.18838 -1.229939,-6.38573 0.126479,-0.78401 0.330888,-1.55666 0.58858,-2.30589 z" />
  <path
     id="path246"
     style="fill:#1a1a1a;fill-opacity:1;stroke:#1a1a1a;stroke-width:0.264583px;stroke-linecap:butt;stroke-linejoin:miter;stroke-opacity:1"
     d="m 66.496552,119.28107 c -2.932168,0.41066 0.07502,3.40899 0.43473,4.93354 1.279426,1.22221 3.239699,2.16195 2.588672,4.38817 0.280817,2.85033 -0.843706,5.54808 -0.920036,8.36253 0.52735,1.81604 -1.195217,4.22543 -0.06309,5.61865 2.820757,0.57024 4.938697,-1.98875 7.559115,-2.51768 2.066223,-0.70879 4.245013,-1.05115 6.333144,-1.59637 1.913751,0.43479 3.360367,-0.94012 2.530053,-2.89363 -0.165175,-2.5503 -1.213995,-4.87124 -2.148757,-7.19296 -0.263927,-1.70276 -1.212616,-3.68032 -0.129182,-5.2713 1.142647,-1.20002 3.559059,-1.33194 3.935532,-3.20617 -1.10564,-1.35398 -3.940022,0.53267 -4.192279,-1.13742 0.271953,-1.96955 -0.304579,-3.82684 -0.744605,-5.71963 -0.105203,-1.94743 -2.229811,0.83237 -3.246788,1.09959 -2.319911,1.15308 -4.924315,1.69303 -7.074369,3.20653 -1.409685,1.24628 -3.41421,0.9555 -4.86214,1.92615 z" />
  <path
     id="path252"
     style="fill:#a5a375;fill-opacity:1;stroke:#a5a375;stroke-width:0.264583px;stroke-linecap:butt;stroke-linejoin:miter;stroke-opacity:1"
     d="m 75.342501,135.53258 c -0.184985,0.59718 -0.08616,1.49891 -0.275355,1.94139 0.527865,-0.13384 1.087191,-0.0455 1.633975,-0.1089 2.203023,-0.14241 4.417581,-0.12993 6.610871,0.14322 1.039173,0.12465 2.082896,0.26133 3.08061,0.58709 0.757227,0.28386 0.619665,-0.82171 0.525277,-1.26982 0.08303,-0.74964 -0.770925,-0.77724 -1.296775,-0.69357 -1.157281,0.10064 -2.314917,0.26281 -3.479059,0.16623 -0.925884,-0.0512 -1.853695,-0.009 -2.778024,0.004 -1.129061,-0.16854 -2.256029,-0.5505 -3.411076,-0.36425 -0.256343,0.0361 -0.412574,-0.28707 -0.610444,-0.40547 z" />
  <path
     id="path259"
     style="fill:#a5a375;fill-opacity:1;stroke:#a5a375;stroke-width:0.264583px;stroke-linecap:butt;stroke-linejoin:miter;stroke-opacity:1"
     d="m 76.614853,139.34424 c -0.356632,0.90919 -0.915774,1.76655 -1.033753,2.75055 0.343357,0.45261 1.078393,-0.0741 1.572152,-0.0534 1.609757,-0.31884 3.192282,-0.80162 4.839225,-0.89729 1.155244,-0.14165 2.305054,-0.32343 3.462886,-0.44796 0.423114,-0.18778 1.202971,0.0746 1.364106,0.0246 -0.276676,-0.42815 -0.187124,-1.25156 -0.838333,-1.31308 -0.835633,-0.12481 -1.643994,-0.4464 -2.503394,-0.38282 -1.210118,0.0704 -2.395196,0.43512 -3.61685,0.37213 -0.802063,0.0635 -1.60428,-0.0204 -2.381838,-0.22016 -0.312098,-0.0809 -0.59091,0.0302 -0.864201,0.16742 z" />
  <path
     id="path265"
     style="fill:#a5a375;fill-opacity:1;stroke:#a5a375;stroke-width:0.264583px;stroke-linecap:butt;stroke-linejoin:miter;stroke-opacity:1"
     d="m 77.050584,143.86177 c -0.793785,0.40654 -1.963421,0.49015 -2.432785,1.29558 -0.09736,0.68714 0.531465,1.31507 1.218578,1.25568 2.299851,0.043 4.450144,-0.85906 6.648869,-1.39244 1.496179,-0.36753 3.061664,-0.34724 4.55394,-0.72232 0.669356,-0.39281 0.670998,-1.3209 0.744253,-2.00086 -0.372892,-0.45636 -1.172571,-0.0829 -1.726848,-0.13446 -1.781278,0.1511 -3.518435,0.60744 -5.282351,0.86013 -1.294185,0.0266 -2.412733,0.94901 -3.723656,0.83869 z" />
  <path
     id="path271"
     style="fill:#a5a375;fill-opacity:1;stroke:#a5a375;stroke-width:0.264583px;stroke-linecap:butt;stroke-linejoin:miter;stroke-opacity:1"
     d="m 79.142118,147.1558 c -1.091494,0.80657 -2.21626,1.57453 -3.415189,2.21379 0.238297,0.67256 1.41329,0.43514 2.052753,0.4673 2.009663,-0.1846 4.005234,-0.59456 5.925451,-1.21683 0.630889,-0.34 1.319697,-0.52983 2.017268,-0.6761 0.88604,-0.26632 1.800029,-0.49066 2.729636,-0.43968 0.742146,-0.16552 0.497886,-1.01037 0.290436,-1.5062 -0.292313,-0.87853 -1.395359,-0.57955 -2.045727,-0.35229 -1.086425,0.35536 -2.250933,0.26098 -3.377745,0.3372 -1.117592,0.0512 -2.316818,-0.12744 -3.344615,0.41663 -0.293175,0.23468 -0.526023,0.53681 -0.832268,0.75618 z" />
  <path
     id="path277"
     style="fill:#000000;stroke:#000000;stroke-width:0.264583px;stroke-linecap:butt;stroke-linejoin:miter;stroke-opacity:1"
     d="m 79.368697,135.54827 c 1.012667,0.0652 2.072441,-1.00999 3.019365,-0.30972 0.54415,0.74738 0.443302,1.75401 0.698249,2.61157 0.375083,1.00999 1.050857,1.89015 1.372281,2.93537 0.578718,1.33435 0.952866,2.75444 1.641951,4.04221 0.388025,0.98585 0.752893,1.98183 1.202284,2.94106 0.17366,1.02646 -1.318868,1.00678 -2.007053,1.32536 -0.926596,0.22962 -1.887362,0.3664 -2.835046,0.40233 -0.713714,-0.42846 -0.481504,-1.45839 -0.718394,-2.16133 -0.199292,-1.41767 -0.473612,-2.82238 -0.860049,-4.20015 -0.199321,-1.15973 -0.649526,-2.25228 -0.807251,-3.42142 -0.331143,-1.36341 -0.923903,-2.73344 -0.706337,-4.16528 z" />
  <path
     id="path283"
     style="fill:#a5a375;fill-opacity:1;stroke:#a5a375;stroke-width:0.264583px;stroke-linecap:butt;stroke-linejoin:miter;stroke-opacity:1"
     d="m 98.035623,137.58743 c 1.55204,0.11385 3.019437,0.68047 4.500617,1.11247 1.30098,0.51079 2.42415,1.3938 3.73754,1.87247 0.32673,0.15091 0.7328,0.8748 0.94802,0.70831 -0.11584,-0.78675 -0.56955,-1.49299 -1.09919,-2.0752 -1.27168,-1.37156 -2.88699,-2.3819 -4.61646,-3.07426 -0.73916,-0.26308 -1.37018,-1.0227 -2.221187,-0.82468 -0.90418,0.31286 -1.1851,1.43067 -1.24934,2.28089 z" />
  <path
     id="path289"
     style="fill:#a5a375;fill-opacity:1;stroke:#a5a375;stroke-width:0.264583px;stroke-linecap:butt;stroke-linejoin:miter;stroke-opacity:1"
     d="m 99.290553,139.6109 c 0.11335,-0.76658 0.837527,-1.30051 1.587917,-1.33019 0.75572,-0.0916 1.62994,-0.0376 2.16794,0.57451 0.5933,0.63239 1.01581,1.41711 1.707,1.96002 0.85631,0.733 1.80627,1.39722 2.41031,2.37282 0.15606,0.32867 0.89353,0.95154 0.46667,1.16354 -0.916,-0.19225 -1.58889,-0.91937 -2.23334,-1.54983 -0.69419,-0.70059 -1.41312,-1.46431 -2.3994,-1.72699 -0.90319,-0.32402 -1.84371,-0.52449 -2.79171,-0.65741 -0.476007,-0.068 -0.737697,-0.39257 -0.915387,-0.80647 z" />
  <path
     id="path295"
     style="fill:#a5a375;fill-opacity:1;stroke:#a5a375;stroke-width:0.264583px;stroke-linecap:butt;stroke-linejoin:miter;stroke-opacity:1"
     d="m 103.35161,140.64616 c -0.56955,-0.12415 -1.20271,0.14162 -1.44139,0.68927 -0.20976,0.45375 -0.61216,0.92695 -0.38565,1.45345 0.18432,0.57731 0.83204,0.67382 1.3498,0.74477 0.47019,0.0474 0.92328,0.27511 1.16307,0.69591 0.53257,0.74663 0.82436,1.65205 1.48489,2.30874 0.31169,0.30478 0.69709,0.72885 1.18168,0.57536 0.39692,0.0439 0.73769,-0.0474 0.61383,-0.54006 -0.21693,-1.05102 -0.86646,-1.94167 -1.43912,-2.82686 -0.20272,-0.31151 -0.43363,-0.60771 -0.54565,-0.96503 -0.1992,-0.34805 -0.5445,-0.57205 -0.64148,-0.98074 -0.21268,-0.45557 -0.45614,-0.89832 -0.74964,-1.30719 -0.20514,-0.12858 -0.4128,0.0661 -0.59034,0.15238 z" />
  <path
     id="path301"
     style="fill:#a5a375;fill-opacity:1;stroke:#a5a375;stroke-width:0.264583px;stroke-linecap:butt;stroke-linejoin:miter;stroke-opacity:1"
     d="m 103.05532,143.51668 c -0.59895,-0.14908 -1.16478,0.24578 -1.36944,0.79963 -0.24948,0.46885 -0.60068,1.24168 -0.0623,1.63661 0.57481,0.3489 1.43489,0.17826 1.83136,0.81813 0.30204,0.66501 0.49015,1.3774 0.83583,2.02484 0.43017,0.90522 0.90164,1.84133 1.67231,2.50414 0.55956,0.11382 0.63873,-0.69259 0.60964,-1.09556 -0.097,-0.98769 -0.80622,-1.75039 -1.20372,-2.62508 -0.72686,-1.3767 -1.28504,-2.8702 -2.31369,-4.06271 z" />
  <path
     id="path307"
     style="fill:#a5a375;fill-opacity:1;stroke:#a5a375;stroke-width:0.264583px;stroke-linecap:butt;stroke-linejoin:miter;stroke-opacity:1"
     d="m 101.10321,147.72049 c 0.58904,-0.23269 0.86869,-1.04334 1.58606,-0.98707 0.65608,0.0884 0.90823,0.80051 1.10232,1.34073 0.40098,1.19508 0.3974,2.49268 0.90801,3.65608 0.25869,0.7847 0.5918,1.58506 0.54784,2.42588 -0.16449,0.52034 -0.69478,-0.15937 -0.98994,-0.27352 -0.37509,-0.28233 -0.78232,-0.52674 -1.14826,-0.81658 -0.47751,-0.54443 -0.33181,-1.34779 -0.71397,-1.94213 -0.47457,-0.95182 -1.10439,-1.84033 -1.40928,-2.86748 -0.0567,-0.18733 0.0773,-0.35946 0.11722,-0.53591 z" />
  <path
     id="path313"
     style="fill:#a5a375;fill-opacity:1;stroke:#a5a375;stroke-width:0.264583px;stroke-linecap:butt;stroke-linejoin:miter;stroke-opacity:1"
     d="m 100.04001,149.11653 c -0.577027,0.17607 -1.083407,0.68931 -1.080487,1.32012 -0.007,0.43354 0.0428,0.89636 0.25218,1.28149 0.3955,0.47733 1.163337,0.58303 1.387477,1.21633 0.0936,0.38929 0.0383,0.8424 0.3476,1.15065 0.26431,0.33781 0.72101,0.75401 1.1788,0.56408 0.37565,-0.26506 0.36456,-0.78182 0.38868,-1.19487 -0.0164,-0.67773 0.27257,-1.37171 0.0101,-2.03319 -0.33575,-0.80668 -0.87344,-1.54255 -1.56798,-2.07468 -0.27682,-0.16661 -0.60536,-0.18272 -0.91635,-0.22993 z" />
  <path
     id="path319"
     style="fill:#000000;stroke:#000000;stroke-width:0.264583px;stroke-linecap:butt;stroke-linejoin:miter;stroke-opacity:1"
     d="m 102.79387,136.12864 c 1.50067,0.61697 1.72329,2.40733 2.0997,3.78477 0.52576,2.56741 0.72981,5.19962 0.74919,7.81782 -0.0592,1.3223 -0.0555,2.831 -1.07119,3.82693 -0.98673,0.95284 -2.09699,1.90851 -3.45986,2.24095 -0.44812,-0.13518 -1.300577,0.52558 -0.47104,0.0176 1.43545,-0.95257 2.38329,-2.42517 3.42461,-3.75562 0.79066,-1.3291 0.92611,-2.93162 1.05863,-4.44187 0.0672,-0.96159 0.015,-1.92069 -0.20654,-2.85701 -0.0367,-1.02621 -0.29904,-2.01469 -0.71837,-2.95002 -0.37795,-0.90761 -0.45132,-2.07045 -1.36662,-2.6363 -0.26011,-0.28929 -0.19245,-0.72522 -0.0385,-1.04721 z" />
  <path
     id="path325"
     style="fill:#a5a375;fill-opacity:1;stroke:#a5a375;stroke-width:0.264583px;stroke-linecap:butt;stroke-linejoin:miter;stroke-opacity:1"
     d="m 95.334073,136.20707 c 0.1834,0.42048 0.51334,0.8203 0.9859,0.90945 0.40563,0.0975 0.83983,0.18322 1.25197,0.0803 0.29675,-0.0613 0.38694,-0.36228 0.42196,-0.62252 0.083,-0.20977 0.28211,-0.3471 0.39696,-0.54117 0.15355,-0.18611 0.26093,-0.4191 0.44762,-0.57203 0.21741,-0.0588 0.71599,-0.14123 0.40427,-0.44595 -0.30525,-0.29861 -0.70119,-0.48903 -1.08455,-0.66823 -0.51779,-0.23682 -1.15644,-0.18596 -1.60867,0.16964 -0.56648,0.42183 -0.91436,1.06752 -1.21546,1.69047 z" />
  <path
     id="path331"
     style="fill:#dc783c;fill-opacity:1;stroke:#dc783c;stroke-width:0.264583px;stroke-linecap:butt;stroke-linejoin:miter;stroke-opacity:1"
     d="m 71.350933,53.45879 c -0.02101,0.34779 -0.05879,0.7446 -0.346014,0.98361 -0.07972,0.0825 -0.34024,0.16852 -0.162973,0.28889 0.157614,0.10576 0.295983,0.23715 0.452854,0.34531 0.102067,0.068 0.23397,0.23449 0.321884,0.057 0.06521,-0.14024 0.166219,-0.25856 0.238269,-0.39316 -0.0044,-0.16776 -0.163175,-0.30028 -0.229957,-0.45433 -0.105058,-0.1771 -0.231935,-0.3444 -0.322576,-0.52812 -0.01624,-0.10291 0.03844,-0.19872 0.04851,-0.29917 z" />
</svg>
