<?xml version="1.0" encoding="UTF-8" standalone="no"?>
<svg
   xmlns:dc="http://purl.org/dc/elements/1.1/"
   xmlns:cc="http://creativecommons.org/ns#"
   xmlns:rdf="http://www.w3.org/1999/02/22-rdf-syntax-ns#"
   xmlns:svg="http://www.w3.org/2000/svg"
   xmlns="http://www.w3.org/2000/svg"
   xmlns:sodipodi="http://sodipodi.sourceforge.net/DTD/sodipodi-0.dtd"
   xmlns:inkscape="http://www.inkscape.org/namespaces/inkscape"
   sodipodi:docname="tony-blair.svg"
   inkscape:version="1.0 (4035a4fb49, 2020-05-01)"
   id="svg8"
   version="1.1"
   viewBox="0 0 317.5 158.75"
   height="600"
   width="1200">
  <defs
     id="defs2">
    <inkscape:path-effect
       lpeversion="1"
       is_visible="true"
       id="path-effect626"
       effect="spiro" />
    <inkscape:path-effect
       simplify_just_coalesce="false"
       simplify_individual_paths="false"
       helper_size="0"
       smooth_angles="360"
       threshold="0.000408163"
       steps="1"
       lpeversion="1"
       is_visible="true"
       id="path-effect624"
       effect="simplify" />
    <inkscape:path-effect
       lpeversion="1"
       is_visible="true"
       id="path-effect620"
       effect="spiro" />
    <inkscape:path-effect
       simplify_just_coalesce="false"
       simplify_individual_paths="false"
       helper_size="0"
       smooth_angles="360"
       threshold="0.000408163"
       steps="1"
       lpeversion="1"
       is_visible="true"
       id="path-effect618"
       effect="simplify" />
    <inkscape:path-effect
       lpeversion="1"
       is_visible="true"
       id="path-effect612"
       effect="spiro" />
    <inkscape:path-effect
       simplify_just_coalesce="false"
       simplify_individual_paths="false"
       helper_size="0"
       smooth_angles="360"
       threshold="0.000408163"
       steps="1"
       lpeversion="1"
       is_visible="true"
       id="path-effect610"
       effect="simplify" />
    <inkscape:path-effect
       lpeversion="1"
       is_visible="true"
       id="path-effect604"
       effect="spiro" />
    <inkscape:path-effect
       simplify_just_coalesce="false"
       simplify_individual_paths="false"
       helper_size="0"
       smooth_angles="360"
       threshold="0.000408163"
       steps="1"
       lpeversion="1"
       is_visible="true"
       id="path-effect602"
       effect="simplify" />
    <inkscape:path-effect
       lpeversion="1"
       is_visible="true"
       id="path-effect598"
       effect="spiro" />
    <inkscape:path-effect
       simplify_just_coalesce="false"
       simplify_individual_paths="false"
       helper_size="0"
       smooth_angles="360"
       threshold="0.000408163"
       steps="1"
       lpeversion="1"
       is_visible="true"
       id="path-effect596"
       effect="simplify" />
    <inkscape:path-effect
       lpeversion="1"
       is_visible="true"
       id="path-effect590"
       effect="spiro" />
    <inkscape:path-effect
       simplify_just_coalesce="false"
       simplify_individual_paths="false"
       helper_size="0"
       smooth_angles="360"
       threshold="0.000408163"
       steps="1"
       lpeversion="1"
       is_visible="true"
       id="path-effect588"
       effect="simplify" />
    <inkscape:path-effect
       lpeversion="1"
       is_visible="true"
       id="path-effect584"
       effect="spiro" />
    <inkscape:path-effect
       simplify_just_coalesce="false"
       simplify_individual_paths="false"
       helper_size="0"
       smooth_angles="360"
       threshold="0.000408163"
       steps="1"
       lpeversion="1"
       is_visible="true"
       id="path-effect582"
       effect="simplify" />
    <inkscape:path-effect
       lpeversion="1"
       is_visible="true"
       id="path-effect578"
       effect="spiro" />
    <inkscape:path-effect
       simplify_just_coalesce="false"
       simplify_individual_paths="false"
       helper_size="0"
       smooth_angles="360"
       threshold="0.000408163"
       steps="1"
       lpeversion="1"
       is_visible="true"
       id="path-effect576"
       effect="simplify" />
    <inkscape:path-effect
       lpeversion="1"
       is_visible="true"
       id="path-effect570"
       effect="spiro" />
    <inkscape:path-effect
       simplify_just_coalesce="false"
       simplify_individual_paths="false"
       helper_size="0"
       smooth_angles="360"
       threshold="0.000408163"
       steps="1"
       lpeversion="1"
       is_visible="true"
       id="path-effect568"
       effect="simplify" />
    <inkscape:path-effect
       lpeversion="1"
       is_visible="true"
       id="path-effect562"
       effect="spiro" />
    <inkscape:path-effect
       simplify_just_coalesce="false"
       simplify_individual_paths="false"
       helper_size="0"
       smooth_angles="360"
       threshold="0.000408163"
       steps="1"
       lpeversion="1"
       is_visible="true"
       id="path-effect560"
       effect="simplify" />
    <inkscape:path-effect
       lpeversion="1"
       is_visible="true"
       id="path-effect554"
       effect="spiro" />
    <inkscape:path-effect
       simplify_just_coalesce="false"
       simplify_individual_paths="false"
       helper_size="0"
       smooth_angles="360"
       threshold="0.000408163"
       steps="1"
       lpeversion="1"
       is_visible="true"
       id="path-effect552"
       effect="simplify" />
    <inkscape:path-effect
       lpeversion="1"
       is_visible="true"
       id="path-effect546"
       effect="spiro" />
    <inkscape:path-effect
       simplify_just_coalesce="false"
       simplify_individual_paths="false"
       helper_size="0"
       smooth_angles="360"
       threshold="0.000408163"
       steps="1"
       lpeversion="1"
       is_visible="true"
       id="path-effect544"
       effect="simplify" />
    <inkscape:path-effect
       lpeversion="1"
       is_visible="true"
       id="path-effect540"
       effect="spiro" />
    <inkscape:path-effect
       simplify_just_coalesce="false"
       simplify_individual_paths="false"
       helper_size="0"
       smooth_angles="360"
       threshold="0.000408163"
       steps="1"
       lpeversion="1"
       is_visible="true"
       id="path-effect538"
       effect="simplify" />
    <inkscape:path-effect
       lpeversion="1"
       is_visible="true"
       id="path-effect532"
       effect="spiro" />
    <inkscape:path-effect
       simplify_just_coalesce="false"
       simplify_individual_paths="false"
       helper_size="0"
       smooth_angles="360"
       threshold="0.000408163"
       steps="1"
       lpeversion="1"
       is_visible="true"
       id="path-effect530"
       effect="simplify" />
    <inkscape:path-effect
       lpeversion="1"
       is_visible="true"
       id="path-effect524"
       effect="spiro" />
    <inkscape:path-effect
       simplify_just_coalesce="false"
       simplify_individual_paths="false"
       helper_size="0"
       smooth_angles="360"
       threshold="0.000408163"
       steps="1"
       lpeversion="1"
       is_visible="true"
       id="path-effect522"
       effect="simplify" />
    <inkscape:path-effect
       lpeversion="1"
       is_visible="true"
       id="path-effect516"
       effect="spiro" />
    <inkscape:path-effect
       simplify_just_coalesce="false"
       simplify_individual_paths="false"
       helper_size="0"
       smooth_angles="360"
       threshold="0.000408163"
       steps="1"
       lpeversion="1"
       is_visible="true"
       id="path-effect514"
       effect="simplify" />
    <inkscape:path-effect
       lpeversion="1"
       is_visible="true"
       id="path-effect508"
       effect="spiro" />
    <inkscape:path-effect
       simplify_just_coalesce="false"
       simplify_individual_paths="false"
       helper_size="0"
       smooth_angles="360"
       threshold="0.000408163"
       steps="1"
       lpeversion="1"
       is_visible="true"
       id="path-effect506"
       effect="simplify" />
    <inkscape:path-effect
       lpeversion="1"
       is_visible="true"
       id="path-effect500"
       effect="spiro" />
    <inkscape:path-effect
       simplify_just_coalesce="false"
       simplify_individual_paths="false"
       helper_size="0"
       smooth_angles="360"
       threshold="0.000408163"
       steps="1"
       lpeversion="1"
       is_visible="true"
       id="path-effect498"
       effect="simplify" />
    <inkscape:path-effect
       lpeversion="1"
       is_visible="true"
       id="path-effect492"
       effect="spiro" />
    <inkscape:path-effect
       simplify_just_coalesce="false"
       simplify_individual_paths="false"
       helper_size="0"
       smooth_angles="360"
       threshold="0.000408163"
       steps="1"
       lpeversion="1"
       is_visible="true"
       id="path-effect490"
       effect="simplify" />
    <inkscape:path-effect
       lpeversion="1"
       is_visible="true"
       id="path-effect486"
       effect="spiro" />
    <inkscape:path-effect
       simplify_just_coalesce="false"
       simplify_individual_paths="false"
       helper_size="0"
       smooth_angles="360"
       threshold="0.000408163"
       steps="1"
       lpeversion="1"
       is_visible="true"
       id="path-effect484"
       effect="simplify" />
    <inkscape:path-effect
       lpeversion="1"
       is_visible="true"
       id="path-effect478"
       effect="spiro" />
    <inkscape:path-effect
       simplify_just_coalesce="false"
       simplify_individual_paths="false"
       helper_size="0"
       smooth_angles="360"
       threshold="0.000408163"
       steps="1"
       lpeversion="1"
       is_visible="true"
       id="path-effect476"
       effect="simplify" />
    <inkscape:path-effect
       lpeversion="1"
       is_visible="true"
       id="path-effect470"
       effect="spiro" />
    <inkscape:path-effect
       simplify_just_coalesce="false"
       simplify_individual_paths="false"
       helper_size="0"
       smooth_angles="360"
       threshold="0.000408163"
       steps="1"
       lpeversion="1"
       is_visible="true"
       id="path-effect468"
       effect="simplify" />
    <inkscape:path-effect
       lpeversion="1"
       is_visible="true"
       id="path-effect462"
       effect="spiro" />
    <inkscape:path-effect
       simplify_just_coalesce="false"
       simplify_individual_paths="false"
       helper_size="0"
       smooth_angles="360"
       threshold="0.000408163"
       steps="1"
       lpeversion="1"
       is_visible="true"
       id="path-effect460"
       effect="simplify" />
    <inkscape:path-effect
       lpeversion="1"
       is_visible="true"
       id="path-effect454"
       effect="spiro" />
    <inkscape:path-effect
       simplify_just_coalesce="false"
       simplify_individual_paths="false"
       helper_size="0"
       smooth_angles="360"
       threshold="0.000408163"
       steps="1"
       lpeversion="1"
       is_visible="true"
       id="path-effect452"
       effect="simplify" />
    <inkscape:path-effect
       lpeversion="1"
       is_visible="true"
       id="path-effect446"
       effect="spiro" />
    <inkscape:path-effect
       simplify_just_coalesce="false"
       simplify_individual_paths="false"
       helper_size="0"
       smooth_angles="360"
       threshold="0.000408163"
       steps="1"
       lpeversion="1"
       is_visible="true"
       id="path-effect444"
       effect="simplify" />
    <inkscape:path-effect
       lpeversion="1"
       is_visible="true"
       id="path-effect438"
       effect="spiro" />
    <inkscape:path-effect
       simplify_just_coalesce="false"
       simplify_individual_paths="false"
       helper_size="0"
       smooth_angles="360"
       threshold="0.000408163"
       steps="1"
       lpeversion="1"
       is_visible="true"
       id="path-effect436"
       effect="simplify" />
    <inkscape:path-effect
       lpeversion="1"
       is_visible="true"
       id="path-effect430"
       effect="spiro" />
    <inkscape:path-effect
       simplify_just_coalesce="false"
       simplify_individual_paths="false"
       helper_size="0"
       smooth_angles="360"
       threshold="0.000408163"
       steps="1"
       lpeversion="1"
       is_visible="true"
       id="path-effect428"
       effect="simplify" />
    <inkscape:path-effect
       lpeversion="1"
       is_visible="true"
       id="path-effect422"
       effect="spiro" />
    <inkscape:path-effect
       simplify_just_coalesce="false"
       simplify_individual_paths="false"
       helper_size="0"
       smooth_angles="360"
       threshold="0.000408163"
       steps="1"
       lpeversion="1"
       is_visible="true"
       id="path-effect420"
       effect="simplify" />
    <inkscape:path-effect
       lpeversion="1"
       is_visible="true"
       id="path-effect414"
       effect="spiro" />
    <inkscape:path-effect
       simplify_just_coalesce="false"
       simplify_individual_paths="false"
       helper_size="0"
       smooth_angles="360"
       threshold="0.000408163"
       steps="1"
       lpeversion="1"
       is_visible="true"
       id="path-effect412"
       effect="simplify" />
    <inkscape:path-effect
       lpeversion="1"
       is_visible="true"
       id="path-effect406"
       effect="spiro" />
    <inkscape:path-effect
       simplify_just_coalesce="false"
       simplify_individual_paths="false"
       helper_size="0"
       smooth_angles="360"
       threshold="0.000408163"
       steps="1"
       lpeversion="1"
       is_visible="true"
       id="path-effect404"
       effect="simplify" />
    <inkscape:path-effect
       lpeversion="1"
       is_visible="true"
       id="path-effect398"
       effect="spiro" />
    <inkscape:path-effect
       simplify_just_coalesce="false"
       simplify_individual_paths="false"
       helper_size="0"
       smooth_angles="360"
       threshold="0.000408163"
       steps="1"
       lpeversion="1"
       is_visible="true"
       id="path-effect396"
       effect="simplify" />
    <inkscape:path-effect
       lpeversion="1"
       is_visible="true"
       id="path-effect390"
       effect="spiro" />
    <inkscape:path-effect
       simplify_just_coalesce="false"
       simplify_individual_paths="false"
       helper_size="0"
       smooth_angles="360"
       threshold="0.000408163"
       steps="1"
       lpeversion="1"
       is_visible="true"
       id="path-effect388"
       effect="simplify" />
    <inkscape:path-effect
       lpeversion="1"
       is_visible="true"
       id="path-effect382"
       effect="spiro" />
    <inkscape:path-effect
       simplify_just_coalesce="false"
       simplify_individual_paths="false"
       helper_size="0"
       smooth_angles="360"
       threshold="0.000408163"
       steps="1"
       lpeversion="1"
       is_visible="true"
       id="path-effect380"
       effect="simplify" />
    <inkscape:path-effect
       lpeversion="1"
       is_visible="true"
       id="path-effect374"
       effect="spiro" />
    <inkscape:path-effect
       simplify_just_coalesce="false"
       simplify_individual_paths="false"
       helper_size="0"
       smooth_angles="360"
       threshold="0.000408163"
       steps="1"
       lpeversion="1"
       is_visible="true"
       id="path-effect372"
       effect="simplify" />
    <inkscape:path-effect
       lpeversion="1"
       is_visible="true"
       id="path-effect366"
       effect="spiro" />
    <inkscape:path-effect
       simplify_just_coalesce="false"
       simplify_individual_paths="false"
       helper_size="0"
       smooth_angles="360"
       threshold="0.000408163"
       steps="1"
       lpeversion="1"
       is_visible="true"
       id="path-effect364"
       effect="simplify" />
    <inkscape:path-effect
       lpeversion="1"
       is_visible="true"
       id="path-effect360"
       effect="spiro" />
    <inkscape:path-effect
       simplify_just_coalesce="false"
       simplify_individual_paths="false"
       helper_size="0"
       smooth_angles="360"
       threshold="0.000408163"
       steps="1"
       lpeversion="1"
       is_visible="true"
       id="path-effect358"
       effect="simplify" />
    <inkscape:path-effect
       lpeversion="1"
       is_visible="true"
       id="path-effect352"
       effect="spiro" />
    <inkscape:path-effect
       simplify_just_coalesce="false"
       simplify_individual_paths="false"
       helper_size="0"
       smooth_angles="360"
       threshold="0.000408163"
       steps="1"
       lpeversion="1"
       is_visible="true"
       id="path-effect350"
       effect="simplify" />
    <inkscape:path-effect
       lpeversion="1"
       is_visible="true"
       id="path-effect344"
       effect="spiro" />
    <inkscape:path-effect
       simplify_just_coalesce="false"
       simplify_individual_paths="false"
       helper_size="0"
       smooth_angles="360"
       threshold="0.000408163"
       steps="1"
       lpeversion="1"
       is_visible="true"
       id="path-effect342"
       effect="simplify" />
    <inkscape:path-effect
       lpeversion="1"
       is_visible="true"
       id="path-effect338"
       effect="spiro" />
    <inkscape:path-effect
       simplify_just_coalesce="false"
       simplify_individual_paths="false"
       helper_size="0"
       smooth_angles="360"
       threshold="0.000408163"
       steps="1"
       lpeversion="1"
       is_visible="true"
       id="path-effect336"
       effect="simplify" />
    <inkscape:path-effect
       lpeversion="1"
       is_visible="true"
       id="path-effect330"
       effect="spiro" />
    <inkscape:path-effect
       simplify_just_coalesce="false"
       simplify_individual_paths="false"
       helper_size="0"
       smooth_angles="360"
       threshold="0.000408163"
       steps="1"
       lpeversion="1"
       is_visible="true"
       id="path-effect328"
       effect="simplify" />
    <inkscape:path-effect
       lpeversion="1"
       is_visible="true"
       id="path-effect322"
       effect="spiro" />
    <inkscape:path-effect
       simplify_just_coalesce="false"
       simplify_individual_paths="false"
       helper_size="0"
       smooth_angles="360"
       threshold="0.000408163"
       steps="1"
       lpeversion="1"
       is_visible="true"
       id="path-effect320"
       effect="simplify" />
    <inkscape:path-effect
       lpeversion="1"
       is_visible="true"
       id="path-effect314"
       effect="spiro" />
    <inkscape:path-effect
       simplify_just_coalesce="false"
       simplify_individual_paths="false"
       helper_size="0"
       smooth_angles="360"
       threshold="0.000408163"
       steps="1"
       lpeversion="1"
       is_visible="true"
       id="path-effect312"
       effect="simplify" />
    <inkscape:path-effect
       lpeversion="1"
       is_visible="true"
       id="path-effect306"
       effect="spiro" />
    <inkscape:path-effect
       simplify_just_coalesce="false"
       simplify_individual_paths="false"
       helper_size="0"
       smooth_angles="360"
       threshold="0.000408163"
       steps="1"
       lpeversion="1"
       is_visible="true"
       id="path-effect304"
       effect="simplify" />
    <inkscape:path-effect
       lpeversion="1"
       is_visible="true"
       id="path-effect298"
       effect="spiro" />
    <inkscape:path-effect
       simplify_just_coalesce="false"
       simplify_individual_paths="false"
       helper_size="0"
       smooth_angles="360"
       threshold="0.000408163"
       steps="1"
       lpeversion="1"
       is_visible="true"
       id="path-effect296"
       effect="simplify" />
    <inkscape:path-effect
       lpeversion="1"
       is_visible="true"
       id="path-effect290"
       effect="spiro" />
    <inkscape:path-effect
       simplify_just_coalesce="false"
       simplify_individual_paths="false"
       helper_size="0"
       smooth_angles="360"
       threshold="0.000408163"
       steps="1"
       lpeversion="1"
       is_visible="true"
       id="path-effect288"
       effect="simplify" />
    <inkscape:path-effect
       lpeversion="1"
       is_visible="true"
       id="path-effect282"
       effect="spiro" />
    <inkscape:path-effect
       simplify_just_coalesce="false"
       simplify_individual_paths="false"
       helper_size="0"
       smooth_angles="360"
       threshold="0.000408163"
       steps="1"
       lpeversion="1"
       is_visible="true"
       id="path-effect280"
       effect="simplify" />
    <inkscape:path-effect
       lpeversion="1"
       is_visible="true"
       id="path-effect274"
       effect="spiro" />
    <inkscape:path-effect
       simplify_just_coalesce="false"
       simplify_individual_paths="false"
       helper_size="0"
       smooth_angles="360"
       threshold="0.000408163"
       steps="1"
       lpeversion="1"
       is_visible="true"
       id="path-effect272"
       effect="simplify" />
    <inkscape:path-effect
       lpeversion="1"
       is_visible="true"
       id="path-effect266"
       effect="spiro" />
    <inkscape:path-effect
       simplify_just_coalesce="false"
       simplify_individual_paths="false"
       helper_size="0"
       smooth_angles="360"
       threshold="0.000408163"
       steps="1"
       lpeversion="1"
       is_visible="true"
       id="path-effect264"
       effect="simplify" />
    <inkscape:path-effect
       lpeversion="1"
       is_visible="true"
       id="path-effect253"
       effect="spiro" />
    <inkscape:path-effect
       simplify_just_coalesce="false"
       simplify_individual_paths="false"
       helper_size="0"
       smooth_angles="360"
       threshold="0.000408163"
       steps="1"
       lpeversion="1"
       is_visible="true"
       id="path-effect251"
       effect="simplify" />
  </defs>
  <sodipodi:namedview
     inkscape:snap-global="false"
     inkscape:document-rotation="0"
     inkscape:window-maximized="0"
     inkscape:window-y="25"
     inkscape:window-x="11"
     inkscape:window-height="1049"
     inkscape:window-width="1900"
     units="px"
     showgrid="false"
     inkscape:current-layer="layer1"
     inkscape:document-units="mm"
     inkscape:cy="360.09486"
     inkscape:cx="367.69233"
     inkscape:zoom="1.979899"
     inkscape:pageshadow="2"
     inkscape:pageopacity="0.0"
     borderopacity="1.0"
     bordercolor="#666666"
     pagecolor="#ffffff"
     id="base" />
  <metadata
     id="metadata5">
    <rdf:RDF>
      <cc:Work
         rdf:about="">
        <dc:format>image/svg+xml</dc:format>
        <dc:type
           rdf:resource="http://purl.org/dc/dcmitype/StillImage" />
        <dc:title></dc:title>
      </cc:Work>
    </rdf:RDF>
  </metadata>
  <g
     transform="translate(0,-138.25001)"
     id="layer1"
     inkscape:groupmode="layer"
     inkscape:label="Layer 1">
    <path
       d="m 178.29287,217.19674 c 1.90391,-0.2387 3.79174,-0.90751 5.72898,-0.70064 1.35189,0.50021 0.14296,2.37004 1.07708,3.30797 0.418,1.13043 -0.67816,2.31997 0.0601,3.40951 0.84384,1.3372 -0.81098,2.83743 0.0794,4.1636 0.79794,1.11199 1.24412,2.43003 1.88891,3.63294 0.56378,1.32104 1.40504,2.92954 0.57287,4.32087 -0.58634,0.8532 -1.0037,1.83532 -0.91817,2.88971 0.0129,1.3374 0.14281,2.93536 -1.03272,3.86919 -0.93315,0.82229 -2.14119,1.42698 -3.4132,1.31731 -0.91786,0.0929 -1.81686,1.1728 -2.73644,0.48703 -0.93206,-0.83225 -0.95556,-2.25281 -1.90593,-3.0744 -0.55258,-1.44941 0.79413,-2.72284 0.73858,-4.16142 0.17681,-2.99054 -0.19712,-6.03549 -1.28918,-8.83499 -0.44393,-1.63393 -0.92343,-3.37492 -0.41635,-5.0553 0.40134,-1.89023 1.13446,-3.69046 1.56602,-5.57138 z"
       style="fill:#846c57;stroke:#846c57;stroke-width:0.264583px;stroke-linecap:butt;stroke-linejoin:miter;stroke-opacity:1;fill-opacity:1"
       id="path249" />
    <path
       d="m 123.64615,224.6281 c -1.25656,-1.16775 -3.26625,-0.28778 -2.73556,1.53696 0.0901,1.73178 -0.66203,4.05698 0.99873,5.2409 1.43884,1.09852 1.8944,2.94725 2.84112,4.41002 1.16342,1.18689 0.0349,3.20943 1.3693,4.32897 1.28818,0.78415 1.94258,1.93056 1.70708,3.39961 0.89948,2.3719 3.79867,3.21405 4.69447,5.56986 0.11311,1.24651 1.38299,2.47827 2.63341,2.28415 1.15585,-1.22024 0.33186,-3.03967 -0.0357,-4.44409 -0.0648,-1.47922 -0.19773,-2.93769 -0.30377,-4.41862 0.6703,-1.5398 0.11141,-3.02142 -1.17172,-4.03156 -1.05085,-1.75007 -1.59779,-3.98391 -3.63215,-4.90158 -2.10995,-1.38764 -2.71888,-3.97028 -4.12475,-5.93024 -0.67201,-1.06796 -1.45231,-2.06103 -2.24046,-3.04438 z"
       style="fill:#846c57;stroke:#846c57;stroke-width:0.264583px;stroke-linecap:butt;stroke-linejoin:miter;stroke-opacity:1;fill-opacity:1"
       id="path262" />
    <path
       d="m 123.69545,230.88375 c 0.7466,5.72194 6.59336,8.64437 7.92652,14.04921 2.0353,5.00979 -0.0461,10.99685 2.86857,15.57239 3.39417,4.16983 7.90593,7.204 11.50563,11.16775 4.50524,3.3037 10.54574,0.63375 14.72972,-1.96512 3.27085,-2.59465 6.76853,-4.93917 9.53422,-8.12977 4.24074,-2.58688 6.90207,-7.023 11.00502,-9.81817 4.06578,-2.26042 0.86312,-5.7773 0.7652,-8.98398 -0.20122,-3.53607 -1.43823,-6.93315 -1.11533,-10.53507 -0.49871,-3.29022 -1.27002,-6.55175 -1.85936,-9.83814 -2.14294,0.49757 -4.87585,4.60728 -7.79454,5.87801 -7.63053,4.72656 -16.93491,4.29287 -25.49482,5.54592 -6.20597,2.22654 -13.29492,0.96899 -18.60458,-2.83539 -0.8691,-0.49829 -2.90571,-1.47246 -3.46625,-0.10764 z"
       style="fill:#efb87f;stroke:#efb87f;stroke-width:0.264583px;stroke-linecap:butt;stroke-linejoin:miter;stroke-opacity:1;fill-opacity:1"
       id="path270" />
    <path
       d="m 119.06145,211.78405 c -1.43503,-1.03442 -1.84817,-3.01754 -3.48924,-3.8529 -1.89372,-1.01546 -4.43054,-1.70689 -6.35717,-0.39147 -1.2579,0.85972 -0.85019,2.61047 -1.17547,3.9119 -0.25597,1.48364 0.56127,2.90655 0.23388,4.39446 -0.33888,2.04835 1.24346,3.62368 2.48695,5.01854 1.27762,1.24945 2.29181,2.71346 3.28017,4.18892 1.21523,1.15774 1.62399,2.82493 2.71429,4.05704 1.22819,1.50873 3.86659,1.77548 5.24031,0.34171 0.70906,-1.23758 -0.0687,-2.67696 -0.0523,-3.99711 -0.45328,-1.47194 -0.79304,-2.97253 -0.68911,-4.5234 -0.0501,-2.07971 -0.0646,-4.31628 -1.22414,-6.1257 -0.5155,-0.95067 -0.401,-2.09409 -0.9682,-3.02199 z"
       style="fill:#fbd6a8;stroke:#fbd6a8;stroke-width:0.264583px;stroke-linecap:butt;stroke-linejoin:miter;stroke-opacity:1;fill-opacity:1"
       id="path286" />
    <path
       d="m 111.14914,216.86399 c 0.36912,-1.11232 1.08384,-2.32216 2.345,-2.52662 0.72534,-0.12629 1.87286,-0.26365 2.14444,0.63751 0.44233,1.4525 -0.87133,2.73765 -0.60358,4.19552 0.17624,1.37228 0.83019,2.76535 1.99033,3.56403 0.62862,0.29143 1.34923,-0.0174 1.88277,-0.37133 0.48964,-0.48029 0.26883,-1.29169 0.0588,-1.85891 -0.3694,-0.57667 -0.68382,-1.2063 -0.71002,-1.90674 -0.10633,-1.16033 -0.074,-2.33577 -0.26944,-3.48572 -0.32433,-0.71991 -0.75442,-1.41061 -1.1566,-2.07562 -0.55548,-0.43835 -1.19935,-0.78295 -1.86066,-1.03274 -1.05542,-0.35959 -2.36384,0.0226 -2.87854,1.06029 -0.41564,0.71544 -0.19213,1.58461 -0.53039,2.32927 -0.15978,0.48323 -0.35154,0.96207 -0.41214,1.47106 z"
       style="fill:#efb87f;stroke:#efb87f;stroke-width:0.264583px;stroke-linecap:butt;stroke-linejoin:miter;stroke-opacity:1;fill-opacity:1"
       id="path302" />
    <path
       d="m 121.08267,167.01847 c -2.91494,5.66467 -6.7375,11.03169 -6.88824,17.66552 -1.55968,4.85169 -1.11901,9.95613 0.4089,14.76221 1.90129,6.76342 1.91998,13.92281 4.11964,20.59638 0.69395,4.73708 3.1546,8.93605 5.32517,13.03966 4.15208,4.14794 10.44021,4.57172 15.47771,7.22037 4.6287,2.0749 9.7909,0.79423 14.69615,1.35363 5.58954,0.17571 10.77917,-2.59192 15.60329,-5.08587 3.97838,-3.28199 7.79045,-7.0839 10.14186,-11.62528 0.0616,-6.37406 2.17322,-12.78648 0.42764,-19.10044 -1.6833,-5.8138 -0.029,-11.96788 -1.8961,-17.80385 -2.27566,-5.03652 -1.5564,-11.29225 -5.18405,-15.67307 -4.78489,-4.65368 -6.75557,-12.58233 -13.92048,-14.47862 -6.97981,-2.29198 -14.42752,-1.49088 -21.37349,0.50636 -5.72496,1.28762 -12.41344,2.41439 -15.70784,7.89859 -0.29062,0.34461 -0.70794,0.81532 -1.23016,0.72441 z"
       style="fill:#fbd6a8;stroke:#fbd6a8;stroke-width:0.264583px;stroke-linecap:butt;stroke-linejoin:miter;stroke-opacity:1;fill-opacity:1"
       id="path310" />
    <path
       sodipodi:nodetypes="cccccccccccccccccccccccccccccccccc"
       d="m 141.76312,163.89064 c 3.24431,2.23519 7.34253,-1.8846 9.76935,-4.09832 2.75388,-4.12954 8.59719,-1.50619 10.89447,1.80838 2.34032,2.58782 3.64977,5.82802 6.42714,8.08151 1.87438,2.99432 5.2355,6.12314 4.55581,9.91811 -1.099,3.59903 3.01893,5.90787 2.72672,9.53352 0.0207,4.16473 2.88727,7.8924 1.98376,12.12326 0.76234,4.80159 2.06255,0.48524 5.91643,-2.75023 1.86728,-2.65908 4.85343,0.076 4.74661,-1.6945 0.15501,-2.98453 0.0275,-4.4156 0.12338,-7.39042 -1.63854,-3.43196 -1.1959,-7.60588 -4.0546,-10.46568 -0.32608,-3.92785 -4.27226,-6.57795 -3.62444,-10.68994 -0.62087,-1.98457 -4.25112,-3.0645 -1.08673,-4.97805 -1.03091,-2.45569 -5.61813,-0.95491 -5.64611,-4.74768 -1.40384,-4.21272 -5.32697,-6.75207 -7.39655,-10.57086 -2.22826,-3.59395 -6.74701,-0.91674 -9.72956,-2.97681 -1.5232,-2.11431 -6.82795,2.27381 -5.28753,-1.3527 2.35426,-1.60992 -3.87337,-1.05109 -4.74568,-0.80178 -3.5939,1.02969 -7.71918,-0.95718 -10.91166,1.7744 -2.67558,2.60556 -5.46474,4.89053 -9.31193,5.31795 -3.50427,0.85282 -5.70181,3.84592 -8.6387,5.6414 -2.23356,3.12686 -6.19955,4.97917 -7.11836,8.93057 -2.29678,1.07947 -1.04404,3.07116 0.50962,0.79747 2.16737,-3.32966 -1.61524,3.71459 -0.58593,5.06445 0.53137,3.31307 -0.4043,6.32742 -1.16467,9.50296 -0.19527,3.86902 -3.29431,7.71675 -1.03776,11.48032 0.57948,4.04221 0.38428,8.18616 1.63342,12.11924 -0.54202,4.06863 4.21265,5.18566 6.57525,6.10252 0.87875,-4.28556 -1.50596,-8.5535 -0.48132,-12.85518 0.81614,-4.54241 -1.99951,-9.0914 -0.233,-13.56764 0.1871,-3.54787 1.21993,-6.91497 2.67722,-10.13632 2.88375,-2.92271 4.46634,-7.33997 8.2117,-9.4645 2.19781,-2.02219 6.11327,-5.18454 8.70344,-2.17105 1.08695,2.43906 3.00809,4.00695 5.60021,2.5156 z"
       style="fill:#846c57;fill-opacity:1;stroke:#846c57;stroke-width:0.264583px;stroke-linecap:butt;stroke-linejoin:miter;stroke-opacity:1"
       id="path318" />
    <path
       sodipodi:nodetypes="ccccccccccccc"
       d="m 178.76119,205.50623 c 0.8752,-2.78952 2.25656,-5.59345 4.61936,-7.40875 1.16956,-0.53615 2.43785,-1.82183 3.73422,-1.68633 2.22356,0.22037 3.01349,1.60507 3.41498,2.65017 0.45913,1.73908 0.26668,3.11149 0.83045,4.82417 0.60989,1.91103 -0.25175,5.3985 -1.14708,7.06345 -0.91128,1.71092 -1.17895,4.22331 -2.66941,5.62883 -2.14205,2.16979 -1.94121,3.71589 -3.3889,4.9321 -0.90155,0.98256 -1.12781,0.22275 -2.19195,-0.17581 -1.59531,-0.542 -1.50394,-3.11836 -1.91594,-4.36709 -0.19697,-1.30264 0.54691,-2.64106 -0.1959,-3.91359 -0.48126,-1.38046 -0.45945,-2.91117 -1.19416,-4.21194 -0.37774,-1.08474 -0.10437,-2.24693 0.10433,-3.33521 z"
       style="fill:#fbd6a8;fill-opacity:1;stroke:#fbd6a8;stroke-width:0.264583px;stroke-linecap:butt;stroke-linejoin:miter;stroke-opacity:1"
       id="path278" />
    <path
       sodipodi:nodetypes="scccccccccccccss"
       d="m 182.33528,205.92771 c 0.73705,-0.74048 2.7147,-0.50264 3.24903,0.46391 0.79851,1.26327 0.37347,2.70707 0.17017,4.10279 -0.1725,0.80914 -0.77442,1.62415 -1.37527,2.22564 -0.61357,0.31044 -1.98953,0.88929 -2.03868,-0.22416 -0.27156,-0.9831 -0.17624,-2.1053 -0.82186,-2.9548 -0.62341,-1.00862 -0.36048,-2.24759 -0.002,-3.29859 0.15785,-0.35377 1.24018,-0.0978 0.69908,-0.78172 -0.7119,-0.83985 -0.15607,-1.97991 0.0895,-2.90066 0.41092,-0.77457 1.0768,-1.38611 1.70154,-1.99161 0.60319,-0.52208 1.48344,-1.06861 2.27313,-0.59672 0.39225,0.21067 2.04559,1.48703 1.84255,1.71091 -0.69723,-0.27567 -2.11557,-1.04267 -2.63896,-0.32052 -0.66978,0.616 -0.69572,1.89753 -1.55048,2.3597 -0.76171,0.53469 -1.00881,1.51693 -1.59773,2.20583 z"
       style="fill:#efb87f;fill-opacity:1;stroke:#efb87f;stroke-width:0.264583px;stroke-linecap:butt;stroke-linejoin:miter;stroke-opacity:1"
       id="path294" />
    <path
       sodipodi:nodetypes="ccccccccccccccccccccc"
       d="m 140.6111,189.79516 c 0.89152,2.46866 0.44273,4.67819 -1.12569,6.56447 -0.88522,0.91191 -2.25482,2.40839 -3.17623,3.26015 -0.58226,0.32305 1.27331,0.21005 2.26068,-0.76883 1.742,-0.73319 -0.36068,2.34271 -1.23575,3.40553 -0.99089,1.27671 -2.16203,2.74209 -2.77527,3.72839 0.45483,0.044 2.4751,-2.77302 3.02237,-0.97875 -0.36211,1.5537 0.83529,2.88367 2.38281,2.02881 1.09749,-0.55233 2.22774,-0.79118 3.01095,0.37685 2.25733,-0.19977 4.22416,-1.86077 6.56549,-1.78585 2.06886,2.8e-4 4.35676,0.42475 6.16285,-0.86629 1.42755,-0.95124 -0.026,-2.49143 -0.85522,-3.24301 0.76465,-0.37539 2.46733,1.14979 2.59275,0.62369 -1.13606,-0.93279 -3.07784,-3.22776 -4.35979,-4.01582 -1.52675,-1.24837 -2.17361,-2.99599 -2.61784,-4.8083 0.94382,0.074 -0.21369,-1.5908 -0.50352,-2.10016 -1.1515,-0.99488 -0.67992,-2.13688 -2.02065,-2.8929 -1.41319,-0.94893 -2.17752,2.20924 -3.14955,0.37076 -1.37387,-1.19645 -3.23215,-0.75788 -3.89537,0.94996 l -0.28302,0.15165 z"
       style="fill:#efb87f;fill-opacity:1;stroke:#efb87f;stroke-width:0.264583px;stroke-linecap:butt;stroke-linejoin:miter;stroke-opacity:1"
       id="path326" />
    <path
       d="m 147.51316,202.95559 c -0.29925,0.37108 -0.27039,1.00786 0.16727,1.26279 0.5862,0.39168 1.32036,0.441 2.00584,0.45088 0.66412,-0.009 1.35164,-0.089 1.94877,-0.39791 0.31496,-0.13141 0.39285,-0.54571 0.14533,-0.78123 -0.39718,-0.47356 -1.04384,-0.56379 -1.60089,-0.74008 -0.5979,-0.14954 -1.21419,-0.29193 -1.8338,-0.25697 -0.32124,0.0513 -0.60092,0.24296 -0.83252,0.46252 z"
       style="fill:#846c57;stroke:#846c57;stroke-width:0.264583px;stroke-linecap:butt;stroke-linejoin:miter;stroke-opacity:1;fill-opacity:1"
       id="path340" />
    <path
       d="m 141.56973,203.45754 c 0.20252,-0.0439 0.32765,-0.23644 0.51764,-0.2943 0.38575,-0.0182 0.83388,0.0612 1.07179,0.39742 0.22451,0.32274 0.13111,0.76924 -0.11335,1.05303 -0.14486,0.17233 -0.21445,0.42997 -0.44781,0.50643 -0.3343,0.0966 -0.67552,0.17121 -1.00525,0.28515 -0.22129,0.0555 -0.44495,0.15697 -0.67676,0.1309 -0.2943,-0.0519 -0.39685,-0.39609 -0.35279,-0.65599 0.0483,-0.45054 0.31709,-0.84193 0.65018,-1.1355 0.11127,-0.10467 0.22999,-0.20149 0.35635,-0.28714 z"
       style="fill:#846c57;stroke:#846c57;stroke-width:0.264583px;stroke-linecap:butt;stroke-linejoin:miter;stroke-opacity:1;fill-opacity:1"
       id="path348" />
    <path
       d="m 151.9751,190.72063 c 1.17973,-0.64163 2.12896,-1.61772 3.24642,-2.34997 0.48286,-0.6184 1.25045,-0.77229 1.99129,-0.82359 1.07284,-0.0602 2.22401,-0.68116 3.25044,-0.10791 0.94365,0.63455 1.56704,1.64226 2.55394,2.22475 0.55903,0.43897 1.0269,0.95003 1.63987,1.29386 -0.14651,0.61401 -1.17813,-0.14468 -1.67614,-0.0979 -0.74877,-0.17499 -1.41145,0.38997 -2.14837,0.43308 -0.82134,0.14039 -1.62014,0.513 -2.46874,0.35209 -0.75708,-0.11298 -1.5236,-0.14244 -2.27902,-0.003 -1.04265,0.097 -2.10157,0.25784 -3.14564,0.12643 -0.34111,-0.39323 -0.89969,-0.39698 -1.23417,-0.62068 -0.0264,-0.17492 0.0769,-0.40342 0.27012,-0.42761 z"
       style="fill:#e6e6e6;stroke:#e6e6e6;stroke-width:0.264583px;stroke-linecap:butt;stroke-linejoin:miter;stroke-opacity:1;fill-opacity:1"
       id="path362" />
    <path
       d="m 125.51722,195.61461 c 0.27172,-0.78422 1.09195,-1.18333 1.40762,-1.94297 0.60787,-0.52488 1.39535,-0.84209 1.93489,-1.4871 0.9437,-0.78296 2.21034,-1.21253 3.43106,-0.94962 0.95159,0.0865 1.94386,0.1945 2.76504,0.72557 0.6572,0.20621 1.34307,0.32073 1.95686,0.65131 0.36189,0.22408 1.89887,0.5236 0.88183,0.91979 -0.65925,0.21995 -1.32197,0.4419 -2.0231,0.50485 -1.44674,0.14834 -2.88813,0.36029 -4.28539,0.77484 -1.15425,0.26275 -2.37404,0.0404 -3.50864,0.43203 -0.86337,-0.006 -1.86393,1.10451 -2.56017,0.3713 z"
       style="fill:#e6e6e6;stroke:#e6e6e6;stroke-width:0.264583px;stroke-linecap:butt;stroke-linejoin:miter;stroke-opacity:1;fill-opacity:1"
       id="path370" />
    <path
       d="m 159.92292,205.10455 c 0.74154,0.53764 1.47787,1.16067 1.85647,2.01683 0.78713,0.96953 2.07303,1.32111 2.93418,2.21588 1.06268,0.98186 1.88146,2.21143 2.36701,3.57482 0.3273,0.6856 0.42671,1.46325 0.59555,2.16739 0.42181,0.46526 -0.32915,0.66331 -0.29487,0.10126 0.11378,-0.711 -0.39288,-1.21426 -0.65732,-1.81601 -0.29668,-0.83969 -0.70364,-1.65754 -1.39425,-2.2452 -0.93348,-0.89017 -2.14583,-1.47072 -2.89545,-2.55132 -0.44356,-0.54322 -1.11178,-0.87615 -1.41808,-1.53566 -0.36803,-0.64104 -0.6333,-1.34174 -1.09324,-1.92799 z"
       style="fill:#efb87f;stroke:#efb87f;stroke-width:0.264583px;stroke-linecap:butt;stroke-linejoin:miter;stroke-opacity:1;fill-opacity:1"
       id="path378" />
    <path
       d="m 132.50642,209.19856 c -0.98901,1.25366 -1.43707,2.80731 -2.08518,4.24261 -0.40621,0.97446 -0.68475,2.02536 -0.59776,3.08911 -0.0726,0.65826 -0.0127,1.30906 0.10585,1.95494 0.0988,0.42066 -0.0721,1.03848 0.13969,1.33082 0.22555,-0.7078 -0.0567,-1.46031 0.0388,-2.18735 0.12237,-1.23858 0.3475,-2.47237 0.68529,-3.67035 0.26117,-0.76277 0.77865,-1.41091 1.00303,-2.19148 0.25797,-0.84961 0.49898,-1.7064 0.71029,-2.5683 z"
       style="fill:#efb87f;stroke:#efb87f;stroke-width:0.264583px;stroke-linecap:butt;stroke-linejoin:miter;stroke-opacity:1;fill-opacity:1"
       id="path386" />
    <path
       d="m 149.51776,184.06983 c -0.84975,0.54107 -0.98375,1.72594 -0.62649,2.58717 1.12871,0.38255 1.92932,-1.26225 3.1561,-1.34025 0.64992,-0.28118 0.59005,-1.40174 1.65289,-1.22747 1.12819,-0.30948 2.35076,-0.74205 3.30239,-1.33418 0.31536,-0.58315 1.64886,-0.55405 1.24738,-0.2818 0.98081,-0.10629 1.99276,-0.0572 2.94958,-0.23719 0.67146,-0.41569 1.16091,0.23658 0.5855,0.6705 0.65522,0.38034 1.69187,0.53769 2.33877,1.1739 0.61056,0.81586 1.94889,0.48807 2.49726,1.41997 0.86411,0.38468 1.71653,0.98294 2.67898,1.20605 0.65128,0.32905 -0.16069,-0.9885 -0.54517,-1.19784 -0.59834,-0.52514 -0.33282,-1.13585 -1.30134,-1.06659 -0.20061,-0.50379 0.0265,-1.25765 -0.78075,-1.52887 -1.14331,-0.69471 -1.69231,-1.98241 -3.10966,-2.17162 -0.75381,0.0832 -1.33914,-0.69139 -2.20821,-0.45791 -1.02403,0.0988 -1.76382,-0.78945 -2.79051,-0.20747 0.24304,-0.57527 0.3915,-1.05366 -0.47613,-0.66131 -1.22329,0.3291 -2.35363,0.92965 -3.54114,1.30298 -0.40212,0.19236 -1.16784,0.41491 -1.14826,-0.23075 -0.92255,0.63599 -1.26704,1.93141 -2.21717,2.61624 -0.42641,0.58743 -1.25514,0.3782 -1.66402,0.96644 z"
       style="fill:#846c57;stroke:#846c57;stroke-width:0.264583px;stroke-linecap:butt;stroke-linejoin:miter;stroke-opacity:1;fill-opacity:1"
       id="path394" />
    <path
       d="m 139.61785,185.74821 c 0.13808,0.92406 -1.05049,2.01699 -1.84971,1.25539 -0.83758,-0.80665 -2.10326,-0.78298 -3.18799,-0.69997 -0.35568,0.0993 -1.28347,0.86947 -0.94665,-0.0358 -0.89095,-0.23083 -1.72389,0.2405 -2.55165,0.29638 -1.0092,-0.46305 -1.67941,0.43994 -2.55528,0.56085 -1.15075,-0.37895 -1.87784,0.72539 -2.90256,0.99473 -0.96663,0.40318 -1.22518,1.50112 -1.97694,2.14572 0.29242,1.04742 -1.41612,1.83351 -2.31343,2.21066 -0.55598,0.17422 -1.44615,0.58546 -0.94864,-0.28607 -0.21394,0.0214 0.43298,-0.80195 -0.32258,-0.63965 0.342,-1.29495 1.46124,-2.20994 2.48529,-2.98537 -1.6658,0.0627 0.43136,-1.36673 0.98428,-1.64673 1.17601,-0.79632 2.15102,-1.81095 3.53076,-2.21686 0.82281,-0.1724 1.99275,-0.96954 2.35484,-0.83968 1.07723,0.45705 1.65306,-0.54255 2.72024,-0.22421 0.48696,-0.10979 0.0636,-0.58675 0.49936,-0.0425 0.56123,0.32567 0.52008,-0.62905 1.1111,0.0535 0.72992,0.50254 0.80256,-1.17126 1.75793,-0.39716 1.11548,0.23554 2.1444,0.71388 2.99844,1.24557 0.80849,-0.006 0.95104,0.6274 1.11319,1.2512 z"
       style="fill:#846c57;stroke:#846c57;stroke-width:0.264583px;stroke-linecap:butt;stroke-linejoin:miter;stroke-opacity:1;fill-opacity:1"
       id="path410" />
    <path
       d="m 152.07989,187.95992 c 1.7826,-1.56894 4.19461,-2.50591 6.58411,-2.21792 1.19488,0.0937 2.44795,0.13851 3.54759,0.65691 0.54592,0.47875 0.93891,1.11803 1.54316,1.5409 0.50066,0.34123 1.04459,0.5948 1.41282,1.08404 -0.36025,-0.80377 -0.70166,-1.71289 -1.44984,-2.23569 -0.79219,-0.21052 -1.13666,-1.14161 -1.97203,-1.27088 -1.72126,-0.53059 -3.54056,-0.21742 -5.30817,-0.32319 -1.16319,-0.038 -2.47255,0.2813 -3.14747,1.31129 -0.33775,0.54064 -0.84481,0.93714 -1.21017,1.45454 z"
       style="fill:#efb87f;stroke:#efb87f;stroke-width:0.264583px;stroke-linecap:butt;stroke-linejoin:miter;stroke-opacity:1;fill-opacity:1"
       id="path418" />
    <path
       d="m 136.95115,191.03434 c -0.89884,0.27064 -1.52841,-0.60722 -2.3659,-0.73653 -1.12755,-0.29851 -2.30009,-0.49333 -3.46653,-0.4912 -1.40755,0.0696 -2.30662,1.27152 -3.46464,1.902 -1.35265,0.65948 -2.08613,2.02957 -2.6905,3.33483 -0.39104,0.74525 -0.62407,1.62565 -1.32913,2.15132 -0.1072,0.38687 -0.75464,1.00224 -0.29587,0.26159 -0.01,-1.08587 1.05417,-1.72011 1.25529,-2.76949 0.26741,-1.11908 0.6284,-2.37854 1.7274,-2.95893 1.59495,-1.09994 3.16176,-2.60817 5.22317,-2.62273 1.33955,0.0116 2.57961,0.5966 3.87778,0.84794 0.60903,0.17432 1.22816,0.49465 1.52893,1.0812 z"
       style="fill:#efb87f;stroke:#efb87f;stroke-width:0.264583px;stroke-linecap:butt;stroke-linejoin:miter;stroke-opacity:1;fill-opacity:1"
       id="path426" />
    <path
       d="m 156.71612,188.25795 c -0.34755,0.28827 -0.68756,0.74549 -0.51229,1.21917 0.16348,0.42114 0.33183,0.84205 0.50173,1.25961 0.22803,0.42769 0.75869,0.48484 1.1828,0.58471 0.67726,0.13661 1.36427,-4.5e-4 2.0334,-0.11548 0.67804,-0.10362 1.21987,-0.72981 1.2138,-1.4179 0.0342,-0.81423 -0.32616,-1.62103 -0.87822,-2.20732 -0.35493,-0.3374 -0.88192,-0.39413 -1.34022,-0.27573 -0.55835,0.11655 -1.09887,0.32539 -1.67252,0.36019 -0.29556,0.0585 -0.44574,0.32898 -0.52848,0.59275 z"
       style="fill:#216778;stroke:#216778;stroke-width:0.264583px;stroke-linecap:butt;stroke-linejoin:miter;stroke-opacity:1"
       id="path434" />
    <path
       d="m 129.68307,192.16372 c -0.13992,0.45213 0.18536,0.86946 0.19109,1.31903 0.0876,0.55753 0.41627,1.18532 1.01952,1.29462 0.44441,0.0714 0.78419,-0.29531 1.21182,-0.33447 0.73624,-0.13373 1.51716,0.0837 2.23007,-0.19008 0.3027,-0.10677 0.46392,-0.39927 0.4829,-0.70606 0.0797,-0.41491 0.11878,-0.85612 -0.0138,-1.26399 -0.32415,-0.15096 -0.63635,-0.32579 -0.8499,-0.64987 -0.33732,-0.40044 -0.89614,-0.3983 -1.37535,-0.41733 -0.6731,0.006 -1.34411,0.11365 -2.00124,0.24594 -0.36049,0.14294 -0.60725,0.45721 -0.89515,0.70221 z"
       style="fill:#216778;stroke:#216778;stroke-width:0.264583px;stroke-linecap:butt;stroke-linejoin:miter;stroke-opacity:1;fill-opacity:1"
       id="path442" />
    <path
       d="m 135.31277,221.08844 c 1.76101,-0.23285 2.24442,-2.40634 3.93635,-2.79608 1.25487,-0.37129 2.37741,-1.20942 3.74729,-1.08047 1.5846,0.0334 3.2321,0.28407 4.73757,-0.36938 2.36181,-0.599 4.79269,0.16929 7.18114,-0.23194 1.59256,-0.32803 3.14184,0.34621 4.72449,0.1789 1.11246,-0.32998 3.55616,-1.18049 3.61562,0.67353 -0.67475,0.99573 -1.56433,1.86576 -2.29033,2.7854 -0.98412,1.34561 -2.59234,0.80844 -3.9677,0.68395 -1.91025,-0.0822 -3.81615,0.12748 -5.726,-0.0611 -1.76977,-0.038 -3.52104,0.32964 -5.15821,0.99275 -1.35214,0.11162 -2.34275,1.31838 -3.74327,1.3017 -1.43981,0.006 -1.45145,2.20349 -3.16485,1.33408 -1.39179,-0.33918 -2.91235,-0.6114 -3.81664,-1.85991 -0.42874,-0.46401 -1.31846,-1.37132 -0.0755,-1.55147 z"
       style="fill:#6b250b;stroke:#6b250b;stroke-width:0.264583px;stroke-linecap:butt;stroke-linejoin:miter;stroke-opacity:1;fill-opacity:1"
       id="path450" />
    <path
       d="m 160.56803,216.35131 c -0.29514,1.00914 0.81159,2.53166 -0.59426,3.04133 -0.88506,0.21344 -1.42858,-0.60822 -2.29871,-0.0529 -0.60814,0.20869 -1.22973,-1.56043 -1.27201,-0.2152 -1.21645,-0.0512 -2.24753,-1.59718 -3.53958,-0.65983 -0.82976,0.73682 -2.082,0.22967 -3.04531,0.80447 -1.27073,-0.0836 -2.49092,0.61408 -3.76857,0.60468 -0.95856,-0.29117 -1.89995,0.24701 -2.90239,0.38576 -0.71383,0.78089 -1.79375,1.2477 -2.63003,1.9773 -1.10441,0.3933 -2.08643,-0.85982 -2.41733,-1.75603 -0.25648,-1.02152 0.22256,-2.02186 1.37903,-1.7351 0.5998,-0.16676 0.50369,-0.95864 1.25313,-0.5613 -0.0535,-1.77258 2.33598,-0.34291 2.69107,-1.96275 0.7966,-0.59766 2.34214,1.05974 2.69495,-0.65933 1.03136,-0.74651 1.87639,0.80745 2.86126,-0.18835 0.98802,-0.24217 2.42718,-0.83995 2.91552,0.46806 0.8314,0.84604 1.03757,-1.69239 2.18921,-0.58922 0.77598,1.03664 1.93252,0.74291 2.98433,0.47156 0.9218,0.45068 1.9233,0.38002 2.9022,0.41724 0.20709,0.0435 0.4093,0.11259 0.59749,0.20964 z"
       style="fill:#e6e6e6;stroke:#e6e6e6;stroke-width:0.264583px;stroke-linecap:butt;stroke-linejoin:miter;stroke-opacity:1"
       id="path458" />
    <path
       d="m 139.70499,223.81777 c 0.9296,0.56274 2.04563,-0.0107 2.24786,-1.00456 0.54171,0.0633 1.69626,0.55923 1.29766,-0.52187 -0.12612,-1.10416 1.12794,-1.18738 1.73434,-0.55159 0.68935,-0.51875 1.03959,-1.59608 2.23332,-1.12815 0.56443,-0.20166 1.00486,-0.32552 1.56758,-0.0236 0.38665,-1.04494 1.75698,-0.91456 2.39128,-0.2661 0.5248,-1.09404 2.0136,-0.91299 2.55656,-0.33594 0.88536,-1.32204 1.78283,0.24427 2.69716,0.39871 0.86223,-0.8116 1.78282,0.71792 2.75863,-0.10882 1.11276,0.0498 1.12898,1.5592 -0.0785,1.44318 -0.98369,0.54907 -2.06379,0.36716 -3.11768,0.32251 -1.11867,-0.0208 -1.77035,0.95156 -2.79868,0.34236 -0.38777,0.93016 -1.49895,1.00717 -2.26317,0.59422 -0.66491,0.41988 -1.47613,1.0527 -2.14125,0.52783 -0.77741,0.89689 -1.90424,0.12804 -2.92037,0.72133 -0.62648,0.96851 -1.76683,-0.0174 -2.6435,0.2616 -0.8335,0.35482 -1.62665,1.04356 -2.57447,0.47639 -0.52601,-0.12547 -1.20883,-0.49082 -0.94673,-1.14755 z"
       style="fill:#e6e6e6;stroke:#e6e6e6;stroke-width:0.264583px;stroke-linecap:butt;stroke-linejoin:miter;stroke-opacity:1;fill-opacity:1"
       id="path466" />
    <path
       d="m 135.5045,219.15908 c 0.90421,-1.02262 1.83452,-1.97003 3.05404,-2.60624 1.4854,-0.62811 2.48606,-2.08419 4.08676,-2.46276 1.23554,0.006 2.45093,-0.4326 3.66556,-0.42688 1.53276,0.0625 2.94586,-0.93202 4.51575,-0.51168 1.7234,-0.01 3.35124,0.55348 5.02799,0.8289 1.57598,-0.0822 2.62922,1.29364 4.16899,1.28883 0.7568,0.12209 2.75659,0.88084 2.29312,1.60806 -1.37531,0.32351 -2.63993,-0.77571 -4.03687,-0.49869 -1.77724,0.006 -3.31784,-1.08872 -5.09423,-1.03963 -1.41115,-0.0902 -2.81139,0.0553 -4.21998,-0.13786 -1.30702,-0.11368 -2.46217,0.54576 -3.56036,1.15647 -2.27485,0.33927 -4.27374,1.58004 -6.4493,2.25511 -1.39454,0.389 -2.39975,1.85627 -3.50832,2.34148 -0.61899,-0.35998 -0.59142,-1.47704 0.0568,-1.79511 z"
       style="fill:#f89281;stroke:#f89281;stroke-width:0.264583px;stroke-linecap:butt;stroke-linejoin:miter;stroke-opacity:1;fill-opacity:1"
       id="path474" />
    <path
       d="m 156.87299,224.00601 c 1.7634,-0.27654 3.77769,-0.86728 4.65152,-2.57929 0.92668,-0.76817 1.84586,-2.14005 1.51779,-3.31642 -0.9002,0.47258 -1.29283,2.00825 -2.37291,2.61918 -1.47275,1.00533 -3.26932,1.59043 -5.07121,1.43629 -1.73142,-0.27373 -3.23956,1.04909 -4.97794,0.82747 -1.98356,0.1474 -3.77362,1.23283 -5.7883,1.24055 -2.83863,0.34294 -5.80519,0.29584 -8.48996,-0.76295 -1.23207,0.19525 0.74964,1.7956 1.36843,2.20159 1.77915,1.45523 4.20651,1.2059 6.28549,0.69997 2.16229,-0.37392 4.39751,-0.14201 6.51096,-0.81501 1.53107,-0.17551 3.05767,-0.41605 4.46916,-1.08721 0.59281,-0.32232 1.24783,-0.34276 1.89697,-0.46417 z"
       style="fill:#f89281;stroke:#f89281;stroke-width:0.264583px;stroke-linecap:butt;stroke-linejoin:miter;stroke-opacity:1;fill-opacity:1"
       id="path488" />
    <path
       d="m 128.00066,272.58109 c -0.92398,2.57788 0.44885,5.24112 0.0946,7.87479 0.0385,3.28755 0.53095,6.57494 0.23226,9.85912 0.27037,2.22627 2.58207,3.67015 4.69415,3.70459 2.54877,-1.29189 5.08109,2.00357 7.56739,0.46763 1.56051,-1.53489 3.58317,-2.15736 5.63624,-1.27982 2.34251,0.33208 4.76652,0.45918 6.92801,1.51868 2.89004,0.75779 5.4843,-1.45554 8.35903,-1.30105 2.36857,-0.41033 4.64047,0.61232 6.96125,0.87923 2.42064,-0.46684 4.14299,-2.98576 3.74484,-5.41603 -0.72524,-2.85449 1.5495,-4.60548 2.99995,-6.61912 1.02443,-2.33975 -0.80673,-4.90332 -2.52347,-6.39613 -2.61121,-1.00796 -4.12081,-3.37193 -5.26348,-5.83061 -0.49301,-2.26393 -2.95385,-5.61147 -5.35001,-3.20906 -2.85581,2.90962 -7.02205,4.14093 -10.98174,4.53576 -2.40492,-0.58433 -4.95857,-1.5507 -6.81106,-3.20894 -1.36697,-2.18947 -4.59307,-2.99009 -6.38643,-0.83336 -1.6896,2.05907 -4.48217,2.21617 -6.57643,3.67538 -1.05088,0.65459 -2.13186,1.22847 -3.32514,1.57894 z"
       style="fill:#d3e5e6;stroke:#d3e5e6;stroke-width:0.264583px;stroke-linecap:butt;stroke-linejoin:miter;stroke-opacity:1;fill-opacity:1"
       id="path496" />
    <path
       sodipodi:nodetypes="cccccccccccc"
       d="m 139.09269,271.9156 c 0.85813,1.44204 2.76783,1.10915 4.18703,1.23576 1.6826,-0.0765 3.3331,0.21375 4.98175,0.42448 3.74258,-0.39453 7.78009,0.24804 11.2116,-1.64318 1.37963,-0.99412 2.69953,-2.17684 3.6937,-3.54885 0.54515,-1.24078 -0.59843,-2.1961 -1.33685,-3.01392 -0.63299,-0.84019 -2.0119,-2.48246 -2.83509,-0.92329 -0.71624,1.62024 -2.66408,1.97583 -4.25701,1.8236 -3.61572,2.91378 -5.57254,1.10884 -8.43882,1.14275 -2.05509,0.14588 -3.87958,-0.9818 -5.77984,-1.5766 -1.27227,1.12635 -1.06184,2.83407 -0.90453,4.33845 0.0604,0.65625 -0.14999,1.21324 -0.52194,1.7408 z"
       style="fill:#c75a54;fill-opacity:1;stroke:#c75a54;stroke-width:0.264583px;stroke-linecap:butt;stroke-linejoin:miter;stroke-opacity:1"
       id="path504" />
    <path
       sodipodi:nodetypes="ccccccccccccccc"
       d="m 143.50485,271.87124 c 0.59751,1.99659 0.74922,4.10237 0.86395,6.17196 -0.005,1.37447 -0.25715,2.83327 -1.02437,3.96068 0.61409,-0.80507 2.08973,-1.26028 3.2227,-1.1319 1.49047,-0.0375 3.19166,0.4449 3.81266,1.92744 1.11834,0.84482 1.06232,-1.69876 1.66961,-2.34819 0.89315,-1.54342 2.25376,-2.75805 3.42953,-4.08621 0.74907,-0.88653 1.66543,-1.56735 2.6076,-2.22802 1.24617,-1.19155 1.92763,-2.88909 3.34618,-3.93368 1.65425,-0.74085 -0.76747,-1.71545 -0.98615,-2.79835 -0.85126,-0.93548 -1.21822,-3.51092 -2.89114,-2.14437 -2.00445,0.4779 -4.55866,3.53278 -6.68679,3.27137 -1.7524,-0.19199 -2.67871,-1.26441 -4.32636,-0.94173 -1.48918,-0.002 -3.5733,0.69688 -3.24313,2.5626 0.0361,0.57654 0.17258,1.14162 0.20571,1.7184 z"
       style="fill:#972a2b;fill-opacity:1;stroke:#972a2b;stroke-width:0.264583px;stroke-linecap:butt;stroke-linejoin:miter;stroke-opacity:1"
       id="path512" />
    <path
       d="m 145.50141,279.92372 c -1.74264,0.68988 -3.55183,1.85769 -4.02475,3.79598 -0.74549,2.26362 -1.52104,4.70586 -3.46598,6.24521 -1.11891,0.91846 -1.76646,2.21362 -2.20131,3.56192 -0.95376,1.36902 0.64605,1.72466 1.70528,1.49643 1.68044,-0.12397 3.46196,-0.50096 5.05126,0.27509 1.55881,0.57933 3.08742,-0.37612 4.66516,-0.26422 1.90979,-0.006 3.79793,0.47526 5.71171,0.30651 0.97181,-1.00996 -0.30793,-2.46991 -0.55628,-3.58827 -0.99934,-2.24898 -0.27252,-4.8242 -1.20309,-7.09981 -0.5326,-1.15008 0.17256,-2.71719 -0.80593,-3.61672 -1.07822,-0.48672 -2.39491,-0.28113 -3.40134,-1.00522 -0.44646,-0.25819 -0.99188,-0.23318 -1.47473,-0.1069 z"
       style="fill:#c75a54;stroke:#c75a54;stroke-width:0.264583px;stroke-linecap:butt;stroke-linejoin:miter;stroke-opacity:1;fill-opacity:1"
       id="path520" />
    <path
       sodipodi:nodetypes="ccccccccccccccccc"
       d="m 153.46301,267.41242 c 1.93647,-2.36116 5.18509,-1.30314 6.25475,1.29224 2.27194,2.74832 4.86515,5.30015 6.27331,8.63519 1.90192,2.76381 4.72584,4.75012 6.78978,7.39307 1.9206,-1.82908 2.04454,-4.75166 3.2087,-7.0284 1.56678,-2.6268 3.83548,-4.81283 5.00196,-7.69986 2.43251,-5.11012 3.41879,-10.75017 5.68173,-15.92641 1.36234,-3.83571 -0.84887,-7.93911 -3.58563,-10.46225 -0.52967,-2.30612 -1.43982,-3.18458 -0.9676,-0.79816 0.4814,3.34362 -1.57289,4.85389 -3.40499,6.49828 -2.34489,2.13593 -4.96265,3.90785 -7.38103,5.95938 -1.90673,1.15697 -3.75646,2.48082 -5.47442,3.85222 -2.4624,1.58976 -5.53497,1.97128 -7.86016,3.84536 -1.67981,1.37832 -5.6911,1.64979 -5.28854,4.3109 l 0.36478,0.1281 0.38736,3.1e-4 z"
       style="fill:#eefcfc;fill-opacity:1;stroke:#eefcfc;stroke-width:0.264583px;stroke-linecap:butt;stroke-linejoin:miter;stroke-opacity:1"
       id="path542" />
    <path
       sodipodi:nodetypes="cccccccccccccc"
       d="m 129.35635,268.92088 c 0.60642,-2.72373 1.4201,-5.42088 1.40269,-8.23979 0.50964,-3.06632 0.63845,-6.21158 1.64402,-9.16405 0.01,-1.49739 0.95748,3.26552 1.75528,4.38792 2.05827,2.78002 4.86347,5.03156 7.81146,6.83392 2.93901,1.11645 6.30009,1.45397 8.36327,4.15048 1.18961,0.78334 1.69386,2.27494 -0.16978,1.23242 -1.90246,-1.24689 -5.10431,-1.6283 -6.40262,0.66183 -2.34177,4.83529 -5.25699,9.38397 -7.52432,14.26598 -1.5946,3.23658 -3.78198,6.16103 -6.35823,8.67537 -1.17767,-4.26369 -1.12847,-8.73995 -1.92537,-13.07556 -0.45444,-3.04324 1.04885,-5.87516 1.13783,-8.87754 l 0.11208,-0.43173 z"
       style="fill:#eefcfc;fill-opacity:1;stroke:#eefcfc;stroke-width:0.264583px;stroke-linecap:butt;stroke-linejoin:miter;stroke-opacity:1"
       id="path550" />
    <path
       d="m 189.82022,258.02895 c 3.63041,2.44932 8.35431,0.3959 12.25297,2.27021 3.41772,1.30019 6.99335,1.67211 10.53542,2.18352 3.37645,1.67182 7.48398,1.33578 10.32126,4.1214 3.40456,3.70255 8.58292,3.19085 13.1417,3.56365 4.6602,1.77422 9.81536,0.38188 14.42438,2.15907 0.95823,1.30725 -5.33163,1.07028 -5.02614,4.29677 -3.40381,4.20341 -6.16127,8.83902 -7.85078,13.9746 -2.041,4.88267 -7.60867,5.26846 -11.89651,3.43882 -5.54759,-1.13795 -10.83166,2.0873 -16.44817,1.42078 -4.665,-0.30524 -9.65193,1.39322 -13.9354,-1.23619 -3.67362,-2.66182 -8.41956,-2.38465 -12.5104,-0.94403 -3.83921,0.44479 -9.95149,2.73964 -12.48419,-0.24796 2.43795,-3.81669 7.85076,-5.23132 9.66208,-9.83985 1.77838,-4.07859 3.27854,-8.27197 5.39274,-12.21611 2.7295,-3.73016 1.43145,-8.81313 4.08552,-12.50424 0.11184,-0.14681 0.22368,-0.29363 0.33552,-0.44044 z"
       style="fill:#3d383c;stroke:#3d383c;stroke-width:0.264583px;stroke-linecap:butt;stroke-linejoin:miter;stroke-opacity:1;fill-opacity:1"
       id="path558" />
    <path
       d="m 235.49471,291.08185 c -0.32566,1.35724 -1.49077,4.0174 1.00739,3.44209 2.78886,-0.14486 5.62937,-1.14548 8.38257,-0.17564 1.55066,0.0689 3.05277,-1.24658 4.74921,-0.99168 2.35146,-0.29359 4.69315,0.002 7.01859,0.31588 2.39593,-0.13034 4.41363,1.27027 6.75664,1.22995 1.84388,0.22412 0.11544,-1.77207 -0.85792,-1.97268 -0.37166,-0.50436 2.34358,-0.99807 1.46733,-2.40977 -0.11607,-1.85362 -1.83607,-2.94211 -2.41919,-4.48091 -0.20658,-1.698 -1.05928,-3.2019 -1.24586,-4.8954 -0.50323,-1.91773 -1.77859,-3.51988 -2.32853,-5.44503 -0.97494,-1.59489 -2.65306,-2.80348 -4.37249,-3.50894 -1.75314,-0.75771 -3.10571,0.90315 -4.7559,1.001 -2.74178,-0.2643 -4.61705,2.18595 -6.30979,3.94573 -1.3799,1.70723 -2.48556,3.62384 -3.61384,5.49816 -0.31551,1.49999 -0.72915,3.00331 -1.72009,4.23242 -0.88304,1.26581 -1.72103,2.62144 -1.75812,4.21482 z"
       style="fill:#141215;stroke:#141215;stroke-width:0.264583px;stroke-linecap:butt;stroke-linejoin:miter;stroke-opacity:1;fill-opacity:1"
       id="path566" />
    <path
       d="m 129.13451,264.83918 c -7.56474,1.77631 -14.35714,5.69052 -21.49985,8.604 -4.38612,1.97869 -8.87005,3.76982 -13.535389,4.97023 -4.33587,1.47341 -8.274133,4.45549 -13.05222,4.23379 -3.773198,0.34975 -7.878232,1.83989 -10.677447,4.05208 0.977106,2.88499 -2.470265,6.83171 0.114353,8.83441 3.534964,-0.34448 7.120087,-0.98176 10.72936,-0.37761 4.292687,0.18155 8.416111,-1.84758 12.756957,-0.9551 3.949638,0.72837 8.005416,0.57811 11.861866,-0.52427 2.86243,-1.12409 5.85415,-1.18294 8.7946,-0.31004 3.4079,-0.0411 7.24666,1.63803 10.32845,-0.17804 2.05101,-2.40877 0.19906,-5.89858 1.35318,-8.68536 1.63764,-3.12977 -1.12714,-6.78802 1.05638,-9.79276 1.52732,-2.44565 3.7108,-5.28081 2.32512,-8.3061 -0.19939,-0.51633 -0.41613,-1.02799 -0.55536,-1.56523 z"
       style="fill:#3d383c;stroke:#3d383c;stroke-width:0.264583px;stroke-linecap:butt;stroke-linejoin:miter;stroke-opacity:1;fill-opacity:1"
       id="path586" />
    <path
       d="m 71.036949,290.99311 c -0.08292,-0.95805 0.347838,-1.85852 0.410263,-2.80469 0.119135,-0.81749 0.41185,-1.64279 0.279378,-2.47335 -0.308358,-0.56607 -1.093861,-0.33487 -1.575186,-0.14818 -1.079158,0.45885 -1.649182,1.54554 -2.204842,2.50857 -0.432151,0.76594 -0.974713,1.46732 -1.639828,2.04499 -0.673171,0.6688 -1.426398,1.28901 -1.929938,2.10256 -0.356708,0.69727 -0.472058,1.4823 -0.685758,2.228 -0.116341,0.52658 0.360091,0.94943 0.866917,0.90134 0.701195,0.0316 1.39801,-0.16111 2.098957,-0.0531 0.995734,0.0485 2.173654,-0.0289 2.83909,-0.87943 0.696466,-0.90047 0.879531,-2.05993 1.379094,-3.06302 0.05299,-0.12164 0.107096,-0.24283 0.161853,-0.36365 z"
       style="fill:#141215;stroke:#141215;stroke-width:0.264583px;stroke-linecap:butt;stroke-linejoin:miter;stroke-opacity:1;fill-opacity:1"
       id="path600" />
    <path
       d="m 176.95346,266.81349 c 3.58859,-3.42893 5.61283,-8.08244 6.94973,-12.77074 1.59355,-2.73175 1.08756,-5.81166 0.79207,-8.73472 2.02273,1.67572 2.7698,4.96553 4.93555,6.76342 2.14838,2.0251 5.24114,3.2399 6.73504,5.81345 1.69612,4.53566 2.72197,9.39522 5.54205,13.43783 1.65403,2.41319 2.75614,5.16506 4.22792,7.63152 -1.3911,2.8704 -6.61097,1.43655 -9.3808,3.15831 -2.82046,0.26641 -7.19035,2.6073 -2.52153,4.2964 2.35209,1.56636 4.7665,3.43449 5.74704,6.20671 2.64737,3.27098 -2.61678,2.84815 -4.66635,2.61599 -4.32158,-0.29971 -8.63019,-0.0603 -12.94968,0.17675 -4.03311,-0.30398 -8.08698,-0.43637 -12.12224,-0.6954 -2.39821,0.69772 -5.70256,1.95074 -3.76904,-1.64519 0.54608,-3.72758 3.264,-6.6495 3.86229,-10.30532 1.93417,-3.57076 3.74105,-7.21842 4.39325,-11.27301 0.46074,-1.67061 1.29785,-3.22169 2.2247,-4.676 z"
       style="fill:#141215;stroke:#141215;stroke-width:0.264583px;stroke-linecap:butt;stroke-linejoin:miter;stroke-opacity:1;fill-opacity:1"
       id="path608" />
    <path
       d="m 131.47616,285.93536 c 0.53419,-5.07174 0.0601,-10.17484 -0.3473,-15.2252 0.48186,-2.04537 0.62127,-4.12574 0.0615,-6.17799 -0.69717,-2.27654 0.42711,-5.03494 0.28862,-6.9443 -1.86006,1.52412 -2.49245,4.08649 -3.59071,6.16821 -1.28052,2.87642 -3.4246,5.45074 -6.38688,6.67534 -2.14917,1.85343 -3.76005,4.24863 -5.95738,6.05233 -1.30319,2.01704 -3.62539,2.80007 -5.19131,4.52454 -1.46019,2.39949 -5.87291,2.90337 -6.66574,4.75709 2.94394,1.9622 5.71665,4.14809 8.34311,6.51907 -0.25458,1.45867 -4.94743,3.25769 -1.59685,3.10498 2.12744,0.38459 4.2094,-0.82882 6.259,0.25217 3.70881,1.27662 6.73733,-2.78678 10.4778,-1.98694 1.56548,-0.33605 3.78825,1.63718 4.31736,1.10216 0.60638,-2.94186 -1.56958,-5.99389 -0.0112,-8.82146 z"
       style="fill:#141215;stroke:#141215;stroke-width:0.264583px;stroke-linecap:butt;stroke-linejoin:miter;stroke-opacity:1;fill-opacity:1"
       id="path622" />
  </g>
</svg>
