<?xml version="1.0" encoding="UTF-8" standalone="no"?>
<svg
   xmlns:dc="http://purl.org/dc/elements/1.1/"
   xmlns:cc="http://creativecommons.org/ns#"
   xmlns:rdf="http://www.w3.org/1999/02/22-rdf-syntax-ns#"
   xmlns:svg="http://www.w3.org/2000/svg"
   xmlns="http://www.w3.org/2000/svg"
   xmlns:sodipodi="http://sodipodi.sourceforge.net/DTD/sodipodi-0.dtd"
   xmlns:inkscape="http://www.inkscape.org/namespaces/inkscape"
   width="1200"
   height="600"
   viewBox="0 0 317.5 158.75"
   version="1.1"
   id="svg8"
   inkscape:version="1.0 (4035a4fb49, 2020-05-01)"
   sodipodi:docname="wine.svg">
  <defs
     id="defs2" />
  <sodipodi:namedview
     id="base"
     pagecolor="#ffffff"
     bordercolor="#666666"
     borderopacity="1.0"
     inkscape:pageopacity="0.0"
     inkscape:pageshadow="2"
     inkscape:zoom="1.4"
     inkscape:cx="585.29741"
     inkscape:cy="299.03293"
     inkscape:document-units="mm"
     inkscape:current-layer="layer1"
     showgrid="false"
     units="px"
     inkscape:window-width="1920"
     inkscape:window-height="1061"
     inkscape:window-x="0"
     inkscape:window-y="19"
     inkscape:window-maximized="0"
     inkscape:document-rotation="0"
     inkscape:snap-global="false" />
  <metadata
     id="metadata5">
    <rdf:RDF>
      <cc:Work
         rdf:about="">
        <dc:format>image/svg+xml</dc:format>
        <dc:type
           rdf:resource="http://purl.org/dc/dcmitype/StillImage" />
        <dc:title />
      </cc:Work>
    </rdf:RDF>
  </metadata>
  <g
     inkscape:label="Layer 1"
     inkscape:groupmode="layer"
     id="layer1"
     transform="translate(0,-138.25001)">
    <path
       id="path674"
       style="fill:#7b2e42;stroke:#7b2e42;stroke-width:0.264583px;stroke-linecap:butt;stroke-linejoin:miter;stroke-opacity:1;fill-opacity:1"
       d="m 59.661919,277.30374 c -0.869014,0.92695 -0.785379,2.41622 -0.418344,3.53968 0.865167,1.31992 2.595798,0.66936 3.881526,0.75188 1.379908,-0.0737 2.827188,0.14582 4.136819,-0.29728 1.13486,-0.81919 0.615984,-2.4834 1.233185,-3.61032 1.237685,-1.08798 0.508302,-2.58959 0.489434,-3.95241 0.460561,-1.42984 -0.574885,-2.7198 -0.746755,-4.08716 -0.666751,-1.37588 -2.611741,-1.92402 -3.818413,-0.89114 -1.506432,1.30035 -2.645589,3.0485 -3.242672,4.95215 -0.316121,1.24757 -1.799575,2.26653 -1.51478,3.5946 z" />
    <path
       id="path198"
       style="fill:#7b4022;fill-opacity:1;stroke:#7b4022;stroke-width:0.264583px;stroke-linecap:butt;stroke-linejoin:miter;stroke-opacity:1"
       d="m 40.637517,280.10115 c -7.670684,-1.40362 -19.219962,10.8656 -4.921659,7.70332 21.6482,-0.62169 42.996853,5.02917 64.713662,2.68189 20.71756,-0.18615 41.4307,2.81463 62.20724,2.16959 17.81399,3.42967 35.74993,-0.48628 53.58588,-0.11988 19.44355,1.00797 38.96131,0.17821 58.41182,1.97912 7.89658,2.63952 25.81996,-4.28121 9.64546,-8.44015 -11.42026,-4.98594 -25.37246,-2.62183 -38.04713,-3.87246 -16.47683,0.84161 -32.80878,-1.15449 -49.2222,-1.20667 -25.18455,1.97881 -50.29384,-3.43962 -75.4337,-0.87303 -16.51567,-1.62136 -33.059108,-3.0507 -49.636751,-1.07622 -10.311186,1.32682 -21.818344,-0.92279 -31.302622,1.05449 z" />
    <path
       sodipodi:nodetypes="ccccccccccc"
       d="m 243.83494,294.70573 c 15.63582,-0.15866 32.16419,1.98905 47.2132,0.18817 5.69448,-9.53338 -19.10951,-2.40842 -26.10274,-6.78055 -11.05346,2.69597 -22.48689,-1.46738 -34.0821,0.25505 -25.77591,0.10019 -51.56191,-1.09768 -77.26498,-1.28862 -23.25744,-2.25387 -46.63351,1.59553 -69.892968,-0.99871 -16.481355,-0.93194 -32.985651,1.41605 -49.361791,-0.49544 -15.413147,0.253 -7.876621,10.82496 3.041701,10.00842 40.60667,-1.60235 81.262918,0.32868 121.879408,0.14954 15.29196,0.92497 30.57281,-0.54475 45.78071,-0.75117 12.93626,0.56839 25.85929,-0.32058 38.78956,-0.28669 z"
       style="fill:#341306;fill-opacity:1;stroke:#341306;stroke-width:0.264583px;stroke-linecap:butt;stroke-linejoin:miter;stroke-opacity:1"
       id="path32" />
    <path
       d="m 155.43778,161.10132 c 11.25021,-11.55597 27.43092,-17.9783 42.88065,-21.4031 20.84262,-0.8867 45.03007,-0.48618 61.63273,13.87969 13.487,12.18804 26.41405,26.82592 27.75894,45.85557 7.73703,42.14309 -29.23925,84.7793 -71.79288,84.58477 -15.74284,0.77145 -32.69021,-1.21066 -44.03868,-13.42944 13.48533,3.43832 44.59485,-1.69954 60.72174,-15.03734 17.46906,-11.14858 22.99211,-32.19475 20.90829,-51.71482 0.1295,-19.24748 -15.9391,-31.95834 -28.77676,-43.82655 -20.17848,-15.36015 -48.97426,-12.4413 -69.29403,1.09122 z"
       style="fill:#8b3e14;fill-opacity:1;stroke:#8b3e14;stroke-width:0.264583px;stroke-linecap:butt;stroke-linejoin:miter;stroke-opacity:1"
       id="path132" />
    <path
       d="m 239.74158,143.14822 c 10.59086,6.64915 23.51212,12.48117 29.75653,23.97993 5.71755,8.78529 13.32873,17.20455 14.28096,28.13519 3.22731,18.3669 1.18909,38.20521 -8.73057,54.3092 -4.09503,6.91944 -9.23818,13.2008 -15.098,18.69892 9.52378,-6.99303 16.16366,-17.11986 22.11064,-27.1475 7.67871,-13.66582 11.71646,-30.4081 6.52591,-45.66554 -2.89212,-10.83795 -7.58512,-21.36247 -15.12968,-29.77092 -8.00564,-10.80264 -15.81247,-16.5627 -28.29424,-21.28519 -0.85894,0.0293 -5.32876,-2.13907 -5.42155,-1.25409 z"
       style="fill:#211314;fill-opacity:1;stroke:#211314;stroke-width:0.264583px;stroke-linecap:butt;stroke-linejoin:miter;stroke-opacity:1"
       id="path184"
       sodipodi:nodetypes="cccccccccc" />
    <path
       d="m 182.35143,144.15839 c 25.60805,-11.55501 56.94079,-1.80283 76.91988,17.95073 15.30146,14.60673 23.83531,36.86946 19.44431,57.8934 -3.79399,29.63835 -24.82889,58.07506 -54.86358,62.73553 -3.61874,0.43723 -20.67652,2.84082 -21.39266,1.26813 12.90895,-3.68309 28.92946,-5.64154 37.22032,-12.96207 27.72419,-17.18192 41.41206,-55.20265 29.78485,-86.14541 -10.62963,-26.42234 -38.91653,-43.03437 -66.89304,-43.21607 -7.27307,-0.16367 -10.68737,0.12674 -17.76955,1.78664 z"
       style="fill:#211314;fill-opacity:1;stroke:#211314;stroke-width:0.264583px;stroke-linecap:butt;stroke-linejoin:miter;stroke-opacity:1"
       id="path207"
       sodipodi:nodetypes="cccccccccc" />
    <path
       d="m 138.94763,177.89396 c 9.21534,-21.84577 33.24951,-35.10835 56.65836,-33.0541 39.05013,0.91568 75.89567,39.52886 67.29397,79.32738 -3.32852,25.72389 -24.95237,47.43337 -49.89308,53.06124 -18.21877,3.03674 -38.09568,1.31364 -52.92837,-10.77249 -14.47892,-14.01219 -13.56808,-17.37466 -1.44013,-6.73092 19.49591,9.45476 44.15949,13.81687 63.64,1.90521 14.35321,-8.04331 27.12851,-21.46153 28.79521,-38.47809 5.42938,-19.34618 0.14801,-44.16502 -18.11697,-54.94066 -10.08344,-10.10477 -23.49208,-15.88251 -37.71536,-16.35298 -22.03009,-2.57678 -44.04923,7.60954 -56.29363,26.03541 z"
       style="fill:#211314;fill-opacity:1;stroke:#211314;stroke-width:0.264583px;stroke-linecap:butt;stroke-linejoin:miter;stroke-opacity:1"
       id="path239"
       sodipodi:nodetypes="ccccccccccc" />
    <path
       d="m 136.13766,200.65387 c -1.63449,-23.2431 19.95745,-40.25529 40.78595,-44.95059 18.27417,-6.26222 39.68557,-2.42041 52.80384,12.41327 17.80626,13.34559 22.87309,36.29976 18.339,57.12833 -5.2706,19.41433 -22.86053,35.02559 -42.06569,40.1561 -19.77575,5.35439 -42.69693,0.91087 -55.89375,-15.66501 -12.9502,-9.75131 -15.17521,-25.81799 -16.14732,-40.87315 0.092,-2.84775 0.70512,-5.7388 2.17797,-8.20895 z"
       style="fill:#8b3e14;fill-opacity:1;stroke:#8b3e14;stroke-width:0.264583px;stroke-linecap:butt;stroke-linejoin:miter;stroke-opacity:1"
       id="path261" />
    <path
       d="m 166.85024,160.96822 c 10.16246,-5.5947 20.47784,-8.06937 31.80376,-6.13558 1.42934,0.45986 8.42161,2.43182 4.51462,1.52415 -12.41603,-2.48094 -26.61909,2.50407 -37.48305,8.57104 -10.60304,5.94033 -18.67527,15.73557 -22.97275,26.84732 -2.33933,9.0279 -3.0261,17.45011 -1.92654,26.03651 2.09503,8.24728 4.23582,16.72028 9.39299,23.67511 6.41517,8.6574 12.99971,13.57619 22.85125,17.5654 1.99912,0.82444 8.20442,3.72104 3.84083,2.07695 -11.77861,-4.17152 -22.49765,-10.20337 -30.29562,-20.30336 -4.55123,-5.70414 -9.04827,-11.97044 -9.74098,-19.46952 -0.55512,-4.7546 -1.425,-9.47355 -2.308,-14.15574 -0.23405,-8.46475 5.03484,-15.61365 8.05403,-23.17327 3.06396,-6.61492 7.5575,-12.74293 13.90831,-16.525 3.28677,-2.41378 6.47513,-5.1271 10.36115,-6.53401 z"
       style="fill:#773310;fill-opacity:1;stroke:#773310;stroke-width:0.264583px;stroke-linecap:butt;stroke-linejoin:miter;stroke-opacity:1"
       id="path374"
       sodipodi:nodetypes="ccccccccccccccc" />
    <path
       d="m 137.32081,225.76519 c 12.18761,31.47599 54.09733,48.52006 83.90967,31.30821 19.15522,-10.93703 31.88604,-34.49203 25.58848,-56.44453 -4.60514,-24.27383 -26.33834,-43.77379 -51.01229,-45.55354 -31.3342,-3.67968 -62.59018,25.34982 -59.27613,57.11933 3.27415,5.4925 3.56468,23.29861 -5.83837,14.36444 -4.02437,-8.38714 -1.61364,-18.23003 -0.34804,-27.0358 3.15558,-18.62737 14.71455,-36.24188 32.49273,-43.73796 26.51723,-12.5048 60.98627,-3.16882 78.91975,19.64863 8.99102,10.8302 13.05499,24.72222 11.26104,38.82133 -0.71571,19.97848 -11.23785,39.83465 -29.22243,49.31063 -22.13526,12.57944 -51.48652,9.67559 -70.98129,-6.62014 -8.62249,-7.48659 -18.37794,-15.60653 -21.27967,-27.14631 -2.83751,-6.37156 4.25002,-14.9108 5.78655,-4.03429 z"
       style="fill:#3c1d12;fill-opacity:1;stroke:#3c1d12;stroke-width:0.264583px;stroke-linecap:butt;stroke-linejoin:miter;stroke-opacity:1"
       id="path437"
       sodipodi:nodetypes="cccccccccccccc" />
    <path
       d="m 178.97753,240.65008 c -7.16689,4.2803 3.39556,15.42566 7.92408,8.03661 3.86349,-4.75712 -2.98851,-13.02625 -7.92408,-8.03661 z"
       style="fill:#211314;fill-opacity:1;stroke:#211314;stroke-width:0.264583px;stroke-linecap:butt;stroke-linejoin:miter;stroke-opacity:1"
       id="path455" />
    <path
       d="m 113.48527,180.10242 c 4.2775,-2.15484 7.1041,2.68608 6.76048,6.43983 0.15874,3.78833 -0.10202,8.29912 3.67228,10.56994 4.08975,2.25334 4.77915,6.80523 5.16983,10.99048 1.51452,12.37901 -0.5924,24.83986 0.34301,37.24473 -0.11161,9.08981 0.19997,18.2195 -0.001,27.28399 -1.08523,4.50387 1.14964,9.99013 -2.34061,13.74432 -3.20401,1.91909 -7.4024,1.26008 -11.04715,1.48073 -3.99399,-0.27073 -7.96826,0.47983 -11.94378,0.31705 -3.94478,-0.27766 -8.493138,-3.21999 -7.928808,-7.65114 -0.26367,-8.31371 0.13998,-16.65371 -0.24433,-24.9537 0.5644,-5.60425 -1.49271,-11.34434 0.45027,-16.82944 1.03933,-6.17948 -1.42592,-12.31203 -0.59061,-18.51914 0.18582,-6.23421 0.34672,-12.48331 1.13273,-18.67735 2.56055,-4.58656 9.273188,-6.18148 9.927158,-11.92047 -0.8467,-3.76749 -0.88173,-10.36432 4.55747,-10.06896 0.71818,0.0709 1.41743,0.27608 2.08327,0.54913 z"
       style="fill:#110708;fill-opacity:1;stroke:#110708;stroke-width:0.264583px;stroke-linecap:butt;stroke-linejoin:miter;stroke-opacity:1"
       id="path490" />
    <path
       d="m 112.779,158.06152 c 1.75179,-0.54764 3.57877,-0.083 5.32884,-0.0796 1.76322,0.40151 1.17669,2.56748 1.25038,3.87809 -0.17471,2.38158 -0.37238,4.7804 0.0311,7.15071 0.21292,3.20716 0.53435,6.41222 0.63221,9.62421 -0.0206,1.56198 -0.18689,3.12232 -0.10675,4.68509 -1.35286,0.72265 -3.07957,0.33352 -4.54757,0.14591 -2.11243,-0.53668 -4.35116,-0.5501 -6.49276,-0.18238 -1.39328,0.0749 -2.87354,0.43111 -2.53021,-1.54155 -0.0149,-1.73591 0.17875,-3.47364 -0.0468,-5.20451 -0.0977,-2.04271 0.72091,-4.0386 0.30755,-6.0773 -0.16545,-2.27183 0.4151,-4.5208 0.52218,-6.78766 0.18637,-1.63277 0.12474,-3.28655 0.35074,-4.91217 1.37605,-1.22553 3.35465,-0.18733 4.96527,-0.76469 l 0.33579,0.0658 z"
       style="fill:#a00708;fill-opacity:1;stroke:#a00708;stroke-width:0.264583px;stroke-linecap:butt;stroke-linejoin:miter;stroke-opacity:1"
       id="path501" />
    <path
       d="m 115.6506,159.75854 c 0.64692,-0.83785 2.22772,-0.64705 1.74521,0.65623 0.12008,3.0555 -0.0566,6.11287 0.0593,9.16961 0.0761,3.41606 -0.24255,6.83698 0.12398,10.2456 0.10719,1.05851 0.71809,3.45649 -1.1581,2.9403 -1.38441,0.13888 -1.90072,-0.98358 -1.68435,-2.20042 0.0235,-3.64467 0.31887,-7.28205 0.39864,-10.92469 -0.10164,-1.90857 -0.23305,-3.84071 0.22812,-5.7195 0.12529,-1.38341 -0.42201,-2.87304 0.28719,-4.16713 z"
       style="fill:#f7f9fa;fill-opacity:1;stroke:#f7f9fa;stroke-width:0.264583px;stroke-linecap:butt;stroke-linejoin:miter;stroke-opacity:1"
       id="path509" />
    <path
       d="m 106.35795,162.90854 c -0.008,-0.68692 -0.40707,-1.59445 0.1638,-2.12804 0.70065,-0.3121 1.49967,0.006 2.23905,-0.16146 1.34114,-0.15636 2.68942,-0.24725 4.03858,-0.15168 1.44567,0.0789 2.8807,-0.30985 4.32136,-0.0751 0.8825,0.2267 1.80253,-0.13444 2.6658,0.12194 0.93109,0.55423 0.70567,1.83138 0.53114,2.72647 -0.26339,0.65845 -0.11161,1.43139 -0.40274,2.05486 -0.76325,0.21717 -1.556,-0.28417 -2.35535,-0.22837 -2.73664,-0.24338 -5.49374,-0.1972 -8.23408,-0.0561 -0.9892,0.10553 -1.95701,0.34503 -2.92157,0.58029 -1.00654,-0.23676 -0.26475,-1.44461 -0.23005,-2.11205 0.02,-0.19912 0.0466,-0.41369 0.18406,-0.57083 z"
       style="fill:#650f0f;fill-opacity:1;stroke:#650f0f;stroke-width:0.264583px;stroke-linecap:butt;stroke-linejoin:miter;stroke-opacity:1"
       id="path517" />
    <path
       d="m 115.74919,161.13389 c 0.19169,0.52044 0.0968,1.09714 -0.1258,1.59153 -0.14801,0.3775 -0.26634,0.85691 0.0122,1.20549 0.17491,0.24631 0.48494,0.203 0.74618,0.19769 0.32262,0.0103 0.64564,-0.0188 0.96752,-0.007 0.22767,-0.0585 0.42145,0.41932 0.55569,0.11489 -0.0554,-0.18 -0.0818,-0.37676 -0.0221,-0.56356 0.19387,-0.59372 0.0908,-1.22458 0.0506,-1.83328 -0.0376,-0.28872 -0.0469,-0.66389 -0.33888,-0.8194 -0.4263,-0.19538 -0.86266,0.0657 -1.28246,0.14763 -0.18653,0.0377 -0.38376,0.0358 -0.56297,-0.0335 z"
       style="fill:#f7f9fa;fill-opacity:1;stroke:#f7f9fa;stroke-width:0.264583px;stroke-linecap:butt;stroke-linejoin:miter;stroke-opacity:1"
       id="path525" />
    <path
       d="m 115.47805,184.91053 c 0.48025,-0.30907 1.4272,-0.55781 1.65377,0.16939 0.18823,0.80551 -0.14426,1.62109 -0.10472,2.43608 -0.0341,1.65556 0.22091,3.33148 -0.0866,4.97194 -0.13708,0.76809 -1.47894,0.76996 -1.5622,-0.0236 -0.0803,-0.76959 0.15878,-1.53146 0.10554,-2.30472 -0.10614,-1.45343 0.0283,-2.91352 -0.10296,-4.36619 -0.007,-0.29643 0.006,-0.59852 0.0972,-0.88294 z"
       style="fill:#f7f9fa;fill-opacity:1;stroke:#f7f9fa;stroke-width:0.264583px;stroke-linecap:butt;stroke-linejoin:miter;stroke-opacity:1"
       id="path533" />
    <path
       d="m 119.29425,217.846 c -0.3479,-3.2406 -2.06623,-12.72365 3.46751,-10.30587 2.22543,4.34759 0.14052,9.61865 0.75664,14.33412 0.67481,7.82839 1.65476,15.64757 1.22989,23.53114 -0.2182,5.83979 0.1088,11.67746 0.49665,17.48144 -2.4262,5.98612 2.19611,12.69687 -1.14663,17.96238 -5.59666,4.93075 -6.29275,-4.68051 -5.7301,-8.4573 -0.33117,-7.97325 1.74861,-15.85216 0.94893,-23.8497 -0.74047,-7.61666 -0.96886,-15.25052 -0.20232,-22.87379 0.11446,-2.60584 0.1737,-5.21408 0.17943,-7.82242 z"
       style="fill:#f7f9fa;fill-opacity:1;stroke:#f7f9fa;stroke-width:0.264583px;stroke-linecap:butt;stroke-linejoin:miter;stroke-opacity:1"
       id="path548" />
    <path
       d="m 142.85884,202.94618 c 5.32181,0.0813 10.64723,0.0622 15.96493,-0.18051 3.79462,2.03003 3.37408,6.97812 3.9752,10.62222 0.52423,5.44977 1.18239,11.20784 -1.16406,16.35448 -1.4697,5.88827 -3.72209,11.95781 -8.54405,15.93212 -2.18772,1.98262 -4.68126,4.06251 -4.87427,7.25465 -0.67016,4.9589 0.94746,9.88423 0.48332,14.85779 0.11267,4.36145 0.2026,8.77336 0.63441,13.093 1.99043,3.97569 7.2445,3.39491 10.93562,4.16723 3.96718,1.57904 0.65931,4.09597 -2.1395,2.9509 -5.06813,-0.11511 -10.09587,0.78 -15.16651,0.41658 -3.5423,0.056 -7.09971,-0.43386 -10.59342,-0.50454 -1.5685,-2.90744 4.35615,-1.9278 6.04541,-2.83223 3.60229,-0.61719 5.43284,-4.21594 5.56261,-7.56903 0.16769,-3.64943 -0.0126,-7.31017 0.48962,-10.94008 0.15506,-4.46543 0.0722,-8.9658 -0.0982,-13.41366 -1.33528,-4.71843 -6.37647,-6.83488 -8.61427,-11.00476 -2.67838,-3.29271 -5.34336,-6.79469 -5.98157,-11.12021 -1.68834,-6.30535 -1.99271,-13.11346 0.31787,-19.30887 1.50812,-3.24184 1.02216,-9.54471 6.07307,-8.76539 2.24192,0.0813 4.45989,0.29313 6.69378,-0.01 z"
       style="fill:#b7c4c8;stroke:#b7c4c8;stroke-width:0.264583px;stroke-linecap:butt;stroke-linejoin:miter;stroke-opacity:1"
       id="path566" />
    <path
       d="m 145.10519,220.42959 c 3.12251,-0.0215 6.24087,0.76714 9.35588,0.20102 1.93118,0.0504 3.8392,-0.14802 5.73859,-0.26864 2.67211,-1.1797 2.98995,1.6612 1.90179,3.42989 -0.56091,1.92533 -0.48367,3.97816 -1.49214,5.78139 -1.08178,3.0126 -1.64342,6.23774 -3.19217,9.06288 -1.3518,1.58899 -2.26006,3.4978 -3.49619,5.16547 -1.22908,2.06032 -4.00295,1.55234 -6.01135,1.61809 -2.54774,-0.35819 -5.41759,0.62293 -7.65405,-0.97618 -2.00124,-1.15014 -2.85385,-3.48232 -4.7244,-4.79543 -1.43932,-1.30789 -2.60012,-2.89805 -3.1363,-4.78354 -1.38884,-2.72601 -2.41586,-5.62428 -2.78162,-8.67607 -0.18638,-1.81773 -1.49359,-4.81184 0.36915,-5.87042 2.57971,-0.4374 5.18723,0.41261 7.79938,0.17828 2.44501,0.0809 4.88158,-0.28553 7.32343,-0.0667 z"
       style="fill:#a00708;fill-opacity:1;stroke:#a00708;stroke-width:0.264583px;stroke-linecap:butt;stroke-linejoin:miter;stroke-opacity:1"
       id="path589" />
    <path
       d="m 146.55183,218.99434 c 4.47985,0.26078 8.98186,-0.005 13.45237,0.15749 1.54964,-0.61923 3.79902,1.43594 1.0674,1.49854 -1.98501,0.037 -3.87562,0.70973 -5.88072,0.55066 -2.51577,-0.11433 -5.02707,0.12951 -7.53206,0.17115 -2.52464,-0.66973 -5.02246,0.27584 -7.55558,-0.11036 -2.94198,-0.36494 -5.89061,-0.2308 -8.84424,-0.36848 -2.01439,0.0297 -1.87878,-1.58466 0.0242,-1.57686 2.46837,-0.25685 4.90863,0.38124 7.35961,-0.0447 2.50771,-0.27818 5.08463,-0.81028 7.59919,-0.36497 l 0.30983,0.0875 z"
       style="fill:#650f0f;fill-opacity:1;stroke:#650f0f;stroke-width:0.264583px;stroke-linecap:butt;stroke-linejoin:miter;stroke-opacity:1"
       id="path615" />
    <path
       d="m 152.77414,207.02603 c 2.43827,-1.02414 2.51395,2.64323 2.6897,4.21116 0.25663,3.62926 0.94361,7.22442 0.85746,10.87685 0.15055,3.08821 -0.86941,6.03396 -1.80348,8.9248 0.21701,1.86834 -2.22895,2.91187 -3.54028,1.82046 0.54886,-1.72745 1.59851,-3.41011 1.59593,-5.35485 0.32822,-2.23344 1.12133,-4.39074 0.93244,-6.68728 0.27082,-2.20409 0.16658,-4.40847 -0.12962,-6.60549 -0.31374,-1.84135 -0.1196,-3.74248 -0.44568,-5.57773 -0.17012,-0.50864 -0.40532,-1.08198 -0.15647,-1.60792 z"
       style="fill:#f7f9fa;fill-opacity:1;stroke:#f7f9fa;stroke-width:0.264583px;stroke-linecap:butt;stroke-linejoin:miter;stroke-opacity:1"
       id="path636" />
    <path
       d="m 78.402861,260.41521 c -0.198285,-1.33916 0.402274,-2.85799 1.640249,-3.49294 0.737692,-0.30441 1.530032,-0.4939 2.323902,-0.56115 0.76724,-0.0398 1.26547,0.65243 1.61547,1.23893 0.51597,0.97142 0.8162,2.10211 0.68585,3.20514 -0.0708,0.6682 -0.54938,1.21378 -1.14419,1.49063 -0.79106,0.3526 -1.52313,0.90398 -2.415615,0.96148 -0.786536,0.092 -1.644216,-0.1908 -2.090222,-0.87513 -0.37926,-0.57243 -0.719143,-1.26091 -0.615444,-1.96696 z"
       style="fill:#550507;fill-opacity:1;stroke:#550507;stroke-width:0.264583px;stroke-linecap:butt;stroke-linejoin:miter;stroke-opacity:1"
       id="path645" />
    <path
       d="m 85.095052,261.8793 c 0.2729,-1.11255 1.71691,-1.22151 2.59488,-0.80368 0.88136,0.58983 1.76812,1.18333 2.8013,1.49403 1.55142,0.64979 3.00537,2.21751 2.70665,4.01299 -0.27538,1.04757 -0.22133,2.4353 -1.22764,3.08757 -1.10374,0.64029 -2.45808,0.17963 -3.33942,-0.62375 -0.64852,-0.55592 -1.38422,-1.01378 -2.22504,-1.2058 -0.95712,-0.27679 -1.61712,-1.09095 -1.87604,-2.0272 -0.45762,-1.23731 -0.44373,-2.73202 0.45575,-3.77793 z"
       style="fill:#7b2e42;fill-opacity:1;stroke:#7b2e42;stroke-width:0.264583px;stroke-linecap:butt;stroke-linejoin:miter;stroke-opacity:1"
       id="path653" />
    <path
       id="path230"
       style="fill:#550507;fill-opacity:1;stroke:#550507;stroke-width:0.264583px;stroke-linecap:butt;stroke-linejoin:miter;stroke-opacity:1"
       d="m 73.957845,265.5218 c 1.154587,0.10749 1.993015,1.08019 2.411606,2.09392 0.429927,1.00902 0.621149,2.09659 0.899011,3.15217 0.14244,0.65796 0.04098,1.50852 -0.629963,1.84076 -0.796695,0.37392 -1.786286,0.34199 -2.524913,-0.15689 -0.767141,-0.49698 -1.4185,-1.22626 -1.660615,-2.12381 -0.298235,-0.80618 -0.945345,-1.572 -0.762116,-2.48535 0.142242,-0.79867 0.713274,-1.45395 1.415056,-1.83043 0.276958,-0.17527 0.561487,-0.33852 0.851934,-0.49037 z" />
    <path
       id="path238"
       style="fill:#2e0908;fill-opacity:1;stroke:#2e0908;stroke-width:0.264583px;stroke-linecap:butt;stroke-linejoin:miter;stroke-opacity:1"
       d="m 76.250198,264.63448 c -0.111213,-0.75637 0.287158,-1.46064 0.754626,-2.02056 0.270534,-0.46865 0.831024,-0.55802 1.325788,-0.53412 0.538482,0.0331 1.185299,-0.14454 1.584857,0.33275 0.804487,0.75507 1.524473,1.74922 1.496243,2.90214 -0.0154,0.73769 -0.206209,1.48005 -0.546721,2.13163 -0.463309,0.50986 -0.903566,1.05883 -1.469734,1.46018 -0.554855,0.41417 -1.374843,0.47963 -1.929115,0.0286 -0.729079,-0.53501 -1.089101,-1.44181 -1.094133,-2.32924 -0.02278,-0.65859 -0.0274,-1.31757 -0.121811,-1.97138 z" />
    <path
       id="path246"
       style="fill:#781018;fill-opacity:1;stroke:#781018;stroke-width:0.264583px;stroke-linecap:butt;stroke-linejoin:miter;stroke-opacity:1"
       d="m 67.16706,271.65545 c -0.424909,-0.30898 -0.328615,-0.91319 -0.07502,-1.30003 0.374677,-0.74374 0.888597,-1.40767 1.261051,-2.15192 0.319007,-0.31387 0.783785,-0.48084 1.208469,-0.6113 1.177991,-0.0576 2.289199,0.76692 2.709455,1.8488 0.328219,0.79759 0.539792,1.67512 0.466918,2.54068 -0.110084,0.69024 -0.609215,1.25448 -1.142802,1.67285 -0.926902,0.67418 -2.149671,0.58821 -3.227905,0.45886 -0.59445,-0.0415 -1.278294,-0.34263 -1.389453,-0.99373 -0.121961,-0.50713 0.23047,-0.962 0.189288,-1.46421 z" />
    <path
       id="path254"
       style="fill:#550507;fill-opacity:1;stroke:#550507;stroke-width:0.264583px;stroke-linecap:butt;stroke-linejoin:miter;stroke-opacity:1"
       d="m 62.582357,274.91637 c 0.534195,-0.16534 1.126328,-0.31022 1.674946,-0.13404 0.491922,0.23057 0.866668,0.64689 1.244329,1.02651 0.506879,0.54519 0.819489,1.29911 0.696269,2.04915 -0.09466,0.68967 -0.405317,1.46561 -1.09425,1.7477 -0.768777,0.30508 -1.640387,-0.0434 -2.242842,-0.54365 -0.567872,-0.50146 -1.042799,-1.16 -1.212753,-1.90803 -0.07801,-0.39322 0.0415,-0.79145 -0.02683,-1.18706 -0.09493,-0.34182 0.124061,-0.63323 0.439543,-0.74155 0.172783,-0.10478 0.35146,-0.19978 0.521593,-0.30903 z" />
    <path
       id="path262"
       style="fill:#c38b55;fill-opacity:1;stroke:#c38b55;stroke-width:0.264583px;stroke-linecap:butt;stroke-linejoin:miter;stroke-opacity:1"
       d="m 78.887638,253.21016 c -0.595338,-1.71243 2.064093,-0.9582 1.180608,0.55044 -0.169628,1.54895 -0.983864,3.30679 0.237003,4.65225 1.128083,1.80991 3.455463,1.17132 5.220613,1.25226 1.00004,-0.22854 3.97778,0.9087 2.06486,1.79202 -1.22052,-0.17474 -2.35085,-1.05328 -3.67158,-0.81311 -1.77429,-0.79517 -2.28214,1.93358 -1.17149,2.89468 1.37084,1.22997 2.27338,2.82993 2.67941,4.60108 0.92862,1.42703 -0.98486,1.31479 -1.0837,0.0847 -0.37075,-1.47682 -0.95271,-3.00653 -2.31955,-3.83725 -1.49607,-0.95729 -0.51357,-2.91154 -1.268715,-4.22274 -0.828633,-0.4159 -1.478242,-3.38392 -1.646523,-1.20072 -0.02844,1.80211 -1.853937,2.91282 -1.841514,4.72002 0.245083,1.69951 -1.243855,3.36958 -0.276211,5.01365 0.426516,1.26186 0.757669,3.23198 -0.439486,4.07552 0.229893,-1.38627 0.111832,-2.83553 -0.476387,-4.14367 -0.361152,-1.07235 -0.148512,-2.72791 -0.313707,-3.46322 -0.866891,1.10478 -2.870474,1.25622 -2.842026,2.99165 0.460492,1.53786 -1.929028,2.23474 -1.369566,3.68299 -0.197372,0.66677 0.05384,1.90571 -0.343503,0.5988 -1.170946,-1.25363 -3.225987,-1.5932 -4.879322,-1.39153 -0.544182,0.19349 -1.235003,0.9491 -0.563154,-0.0243 0.740639,-0.61878 -1.326387,-2.24005 0.33674,-1.52861 1.366369,0.8124 3.992039,1.23727 4.55857,-0.72551 0.139757,-1.46409 -0.607287,-3.47449 1.583661,-3.72102 1.594395,-1.27411 3.447391,-2.44598 4.240824,-4.4223 0.718145,-1.46483 1.083358,-3.07394 1.761999,-4.54066 0.768876,-0.88382 0.569441,-1.85304 0.642146,-2.87548 z" />
    <path
       id="path270"
       style="fill:#781018;fill-opacity:1;stroke:#781018;stroke-width:0.264583px;stroke-linecap:butt;stroke-linejoin:miter;stroke-opacity:1"
       d="m 85.049872,283.4347 c -0.63429,0.40688 -1.04028,1.34626 -0.53962,2.00717 0.63648,0.88984 1.72742,1.29019 2.73643,1.59072 0.73803,0.18019 1.53473,0.3395 2.28219,0.13375 0.77556,-0.31287 1.19376,-1.10476 1.56992,-1.80294 0.36701,-0.71356 0.35291,-1.65071 -0.21469,-2.25823 -0.50907,-0.5494 -1.06144,-1.06548 -1.65437,-1.52394 -0.53647,-0.3656 -1.17192,-0.68204 -1.83552,-0.64735 -0.46175,0.0865 -0.74366,0.51597 -1.14595,0.73367 -0.36765,0.40078 -0.50419,0.96677 -0.72036,1.45416 -2.9e-4,0.32735 -0.15665,0.5427 -0.47803,0.31299 z" />
    <path
       id="path279"
       style="fill:#7b2e42;fill-opacity:1;stroke:#7b2e42;stroke-width:0.264583px;stroke-linecap:butt;stroke-linejoin:miter;stroke-opacity:1"
       d="m 91.384652,279.8743 c -0.48921,0.9449 -1.645,1.35098 -2.01627,2.38351 -0.36857,0.85894 -0.11874,1.87792 0.51641,2.54309 0.41469,0.67909 1.1315,1.04099 1.86744,1.265 0.75158,0.29017 1.42434,0.7618 2.22015,0.94395 0.84906,0.20817 1.76486,0.42277 2.63011,0.19616 1.20235,-0.43383 2.00283,-1.77864 1.87753,-3.03817 -0.25337,-1.26797 -1.08508,-2.47017 -2.30478,-2.97531 -0.87704,-0.48027 -1.80008,-0.86974 -2.72173,-1.24867 -0.53079,-0.38846 -1.26511,-0.68059 -1.85174,-0.22496 -0.0758,0.0467 -0.14848,0.0987 -0.21712,0.1554 z" />
    <path
       id="path293"
       style="fill:#781018;fill-opacity:1;stroke:#781018;stroke-width:0.264583px;stroke-linecap:butt;stroke-linejoin:miter;stroke-opacity:1"
       d="m 94.527392,278.8206 c -0.91283,0.80595 -0.8271,2.3172 -0.0289,3.17298 0.72833,0.87521 1.90711,1.2179 3.01328,1.15669 0.86845,-0.002 1.72788,0.12896 2.573778,0.31162 1.37308,0.18494 2.60993,-0.87194 3.05276,-2.10978 0.3442,-0.91205 -0.26281,-1.81236 -0.77489,-2.52592 -0.88058,-1.21356 -2.33061,-1.88184 -3.796468,-2.03192 -0.79777,-0.0871 -1.69305,-0.19253 -2.41548,0.23115 -0.67398,0.46881 -0.98435,1.28689 -1.62413,1.79518 z" />
    <path
       id="path301"
       style="fill:#c38b55;fill-opacity:1;stroke:#c38b55;stroke-width:0.264583px;stroke-linecap:butt;stroke-linejoin:miter;stroke-opacity:1"
       d="m 81.525072,280.75053 c -0.0189,1.00982 1.17845,1.50144 2.03622,1.24856 0.91595,-0.21791 2.01107,-0.18594 2.67284,-0.96401 0.51956,-0.5288 1.09883,-0.98357 1.65439,-1.47386 1.1296,-0.29725 2.03843,-1.24612 3.24018,-1.30256 0.56885,0.1029 1.6889,0.87465 1.43637,1.3636 -0.69172,-0.45162 -1.65172,-0.28343 -2.40767,-0.12804 -0.25852,0.35591 -1.79326,0.80719 -0.67733,0.65761 0.94907,0.14142 1.4449,2.26948 0.086,1.38689 -0.28107,-0.58111 -2.07082,-0.98419 -1.3352,0.0324 0.6228,0.54086 0.76673,1.4825 -0.10263,1.86524 -0.52352,0.18676 -0.861,0.88079 -1.26063,0.95066 0.39738,-0.73941 -1.7766,-1.60944 -0.86789,-0.4736 0.5222,0.96401 -0.0845,-1.04618 -0.75087,-0.29108 -1.31215,0.30711 -0.45225,-1.28026 0.42272,-1.13089 0.70719,-0.32365 1.71088,0.99201 1.86172,-0.22054 -0.18999,-1.19477 -1.38502,-0.0133 -2.03523,0.002 -0.90109,-0.0316 -2.14437,0.68871 -1.24532,1.61674 -0.0925,0.75172 0.46087,1.41279 0.36226,2.18656 -0.0545,0.65797 -1.02511,2.0121 -1.19471,0.66132 -0.42666,-0.87218 0.37325,-1.88451 -0.2413,-2.63605 -0.41237,-0.32866 -0.78744,-1.32125 -1.18336,-0.3602 -0.56759,0.68315 -0.18326,1.61189 -0.52587,2.36848 0.2298,0.75844 -0.887426,0.82892 -0.70636,0.0378 0.02514,-0.55304 -0.488968,-1.08532 -0.752957,-0.34578 -0.27462,0.58764 -1.471067,1.01745 -1.054896,-0.0276 0.423767,-0.7966 -0.417876,-1.16135 -0.737122,-1.64502 0.722486,-0.79859 1.362273,0.56141 2.079629,0.36485 0.525813,-0.35391 1.302486,-1.28752 0.608103,-1.8148 -0.686704,-0.17955 -1.37439,-1.33155 -0.381449,-1.57886 0.285773,-0.10202 1.239572,0.23532 1.000352,-0.34945 z" />
    <path
       id="path315"
       style="fill:#781018;fill-opacity:1;stroke:#781018;stroke-width:0.264583px;stroke-linecap:butt;stroke-linejoin:miter;stroke-opacity:1"
       d="m 53.610143,270.04716 c 0.863401,1.38076 1.979897,2.9378 3.717114,3.17025 1.086186,0.11259 1.698495,-0.90961 2.034581,-1.78267 0.382604,-0.93671 1.137853,-1.75014 1.101473,-2.8209 0.217007,-1.13402 -0.611451,-1.98184 -1.352679,-2.70195 -0.492254,-0.74025 -1.002445,-1.51104 -1.811651,-1.94579 -0.755259,-0.40811 -1.576081,-0.84822 -2.448083,-0.86441 -1.127686,0.20758 -1.967265,1.33267 -1.915569,2.47173 -0.02117,1.50547 0.05071,3.07835 0.674814,4.47374 z" />
    <path
       id="path324"
       style="fill:#2e0908;fill-opacity:1;stroke:#2e0908;stroke-width:0.264583px;stroke-linecap:butt;stroke-linejoin:miter;stroke-opacity:1"
       d="m 58.059276,277.9 c -1.070077,0.33655 -1.605765,1.43811 -2.028443,2.3893 -0.346232,0.87647 -0.609263,1.85872 -0.407756,2.79774 0.24634,0.4852 0.476126,0.98977 0.801196,1.42681 0.718346,0.80806 1.827131,1.24765 2.899232,1.23374 0.815383,-0.0186 1.456043,-0.59631 2.023048,-1.11622 0.451057,-0.55967 0.5476,-1.3235 0.587863,-2.02061 0.03327,-1.12518 -0.572528,-2.12689 -1.084346,-3.08518 -0.453347,-0.7248 -0.934589,-1.4943 -1.667739,-1.96333 -0.419851,-0.24092 -0.795373,0.11216 -1.123055,0.33775 z" />
    <path
       id="path333"
       style="fill:#781018;fill-opacity:1;stroke:#781018;stroke-width:0.264583px;stroke-linecap:butt;stroke-linejoin:miter;stroke-opacity:1"
       d="m 50.98503,276.13644 c 0.389081,-0.76131 1.57652,-0.54601 2.281937,-0.37115 0.756528,0.32519 0.826686,1.2643 1.174531,1.91741 0.705468,1.74119 0.796373,3.73489 0.266956,5.53487 -0.376,1.16361 -1.245325,2.09368 -2.140601,2.88925 -1.072445,0.67912 -2.428378,0.5453 -3.622517,0.3461 -1.072576,-0.23308 -2.305216,-0.68487 -2.699687,-1.81952 -0.307757,-0.6603 -0.28828,-1.39928 -0.04849,-2.07523 0.749894,-2.4133 2.392252,-4.41457 4.001727,-6.3109 0.232359,-0.16206 0.527627,-0.0566 0.786142,-0.11083 z" />
    <path
       id="path341"
       style="fill:#7b2e42;fill-opacity:1;stroke:#7b2e42;stroke-width:0.264583px;stroke-linecap:butt;stroke-linejoin:miter;stroke-opacity:1"
       d="m 53.178788,277.21232 c -0.106732,0.878 0.350596,1.86027 1.236779,2.13229 1.087189,0.41587 2.310898,0.60722 3.455772,0.33666 1.301119,-0.36723 2.414262,-1.18941 3.452858,-2.02695 0.513976,-0.44487 0.9802,-1.211 0.571658,-1.8752 -0.401154,-0.66748 -1.087488,-1.09759 -1.516018,-1.74887 -0.461693,-0.72007 -1.165265,-1.22544 -1.944369,-1.5564 -0.762249,-0.47922 -1.643438,0.0704 -2.211773,0.60039 -0.654629,0.57151 -1.649276,0.72284 -2.059984,1.56396 -0.408045,0.78709 -0.84755,1.59431 -0.978569,2.48138 z" />
    <path
       id="path357"
       style="fill:#550507;fill-opacity:1;stroke:#550507;stroke-width:0.264583px;stroke-linecap:butt;stroke-linejoin:miter;stroke-opacity:1"
       d="m 63.260207,265.63272 c 0.956419,-0.48415 2.215826,-0.52747 3.084161,0.16644 0.563047,0.28296 1.146671,0.691 1.269853,1.35507 0.164893,0.72893 0.458842,1.50444 0.210761,2.24758 -0.273402,0.44329 -0.820626,0.0961 -1.136731,-0.10775 -0.470302,-0.28244 -0.918098,0.14171 -1.129608,0.53974 -0.314125,0.59714 -1.076703,0.77864 -1.680921,0.55279 -0.585313,-0.23114 -1.182943,-0.44638 -1.817334,-0.48935 -0.721037,-0.0692 -1.544036,-0.14528 -2.012422,-0.77688 -0.380561,-0.41233 -0.475851,-1.15121 0.01269,-1.52182 0.591492,-0.49547 1.254666,-0.8986 1.829041,-1.41598 0.394777,-0.3002 0.860984,-0.55566 1.370508,-0.54984 z" />
    <path
       id="path365"
       style="fill:#2e0908;fill-opacity:1;stroke:#2e0908;stroke-width:0.264583px;stroke-linecap:butt;stroke-linejoin:miter;stroke-opacity:1"
       d="m 64.320112,267.85103 c 1.140505,0.60291 2.099447,1.82855 1.966718,3.17242 -0.140809,0.62623 -0.627038,1.1025 -0.747776,1.73849 -0.274482,0.68094 -0.711436,1.30348 -1.230723,1.81872 -0.678023,0.45674 -1.566319,0.41397 -2.345554,0.58939 -1.017203,0.0727 -2.24494,0.0251 -2.920325,-0.86194 -0.683137,-0.92779 -1.275314,-2.13154 -0.946344,-3.30699 0.250759,-0.98218 1.04348,-1.73138 1.952319,-2.12753 0.728743,-0.40977 1.309526,-1.0731 2.123305,-1.34327 0.694657,-0.2988 1.623027,-0.29873 2.14838,0.32071 z" />
    <path
       id="path373"
       style="fill:#550507;fill-opacity:1;stroke:#550507;stroke-width:0.264583px;stroke-linecap:butt;stroke-linejoin:miter;stroke-opacity:1"
       d="m 68.473459,272.54277 c -1.03093,0.55602 -1.644671,1.67331 -1.898438,2.78378 -0.135555,0.60273 -0.01918,1.26169 0.384707,1.74139 0.431682,0.56952 0.854759,1.28915 1.622111,1.41752 0.688545,0.18151 1.421149,0.003 1.987662,-0.41431 0.810647,-0.5289 1.449912,-1.30717 1.875097,-2.17106 0.289358,-0.67476 0.196127,-1.48985 -0.264212,-2.06671 -0.426974,-0.72375 -0.855286,-1.59624 -1.74671,-1.81747 -0.674612,-0.19574 -1.309199,0.21545 -1.896272,0.49187 l -0.06394,0.035 z" />
    <path
       id="path381"
       style="fill:#2e0908;fill-opacity:1;stroke:#2e0908;stroke-width:0.264583px;stroke-linecap:butt;stroke-linejoin:miter;stroke-opacity:1"
       d="m 84.828032,268.87146 c 0.77414,-0.59129 1.73625,-1.24451 2.75838,-0.99193 1.17057,0.39269 1.73816,1.61364 2.26555,2.63078 0.48356,1.10451 1.09706,2.15173 1.51318,3.28458 0.26552,0.83318 0.47241,1.91475 -0.20091,2.61272 -0.56217,0.50442 -1.35991,0.73455 -2.10567,0.72544 -0.83293,-0.0838 -1.29486,-0.9327 -2.08288,-1.14921 -1.13831,-0.45292 -2.04919,-1.33745 -2.81368,-2.27175 -0.59207,-0.78333 -0.66611,-1.81086 -0.76086,-2.75262 -0.0978,-0.85376 0.43066,-1.64864 1.2044,-1.98086 l 0.111,-0.0553 0.11149,-0.0518 z" />
    <path
       id="path390"
       style="fill:#550507;fill-opacity:1;stroke:#550507;stroke-width:0.264583px;stroke-linecap:butt;stroke-linejoin:miter;stroke-opacity:1"
       d="m 79.380618,264.78976 c 1.070198,-0.35858 2.287514,-0.6868 3.384734,-0.26251 1.24855,0.59882 1.67499,2.04563 1.97605,3.28795 0.14816,0.75719 0.45165,1.46735 0.68284,2.19765 0.23924,0.78846 -0.20568,1.56502 -0.85885,1.99192 -0.87433,0.6559 -1.87344,1.11968 -2.81913,1.659 -1.131278,0.54313 -2.453736,0.26213 -3.54175,-0.24641 -0.852221,-0.38842 -1.295718,-1.33972 -1.227202,-2.24807 0.07758,-1.49727 0.689437,-2.89552 0.966894,-4.35735 0.323797,-0.62349 0.439087,-1.44981 0.980493,-1.90067 0.144293,-0.0651 0.300835,-0.0953 0.455921,-0.12151 z" />
    <path
       id="path398"
       style="fill:#550507;fill-opacity:1;stroke:#550507;stroke-width:0.264583px;stroke-linecap:butt;stroke-linejoin:miter;stroke-opacity:1"
       d="m 75.06705,277.88891 c -0.59175,1.17245 -1.756399,2.00652 -2.082279,3.32082 -0.183149,0.94532 0.539368,1.75412 1.231119,2.29204 1.030808,0.76502 2.363411,1.38034 3.664604,0.99859 1.288753,-0.3339 2.471739,-1.39513 2.614909,-2.7683 0.104332,-0.63794 0.132643,-1.34237 -0.274074,-1.88924 -0.536448,-0.7325 -1.21515,-1.39558 -2.030154,-1.81013 -0.991885,-0.51423 -2.086942,0.0784 -3.124125,-0.14378 z" />
    <path
       id="path406"
       style="fill:#550507;fill-opacity:1;stroke:#550507;stroke-width:0.264583px;stroke-linecap:butt;stroke-linejoin:miter;stroke-opacity:1"
       d="m 64.504976,278.12183 c -0.871098,-0.2646 -1.663253,0.34809 -2.318775,0.83364 -0.747348,0.5742 -1.802674,0.79239 -2.288207,1.66434 -0.533533,1.1345 0.05259,2.5087 1.007069,3.22445 0.601489,0.5213 1.357944,0.87653 2.161605,0.90167 0.843145,0.15121 1.836385,0.0581 2.420554,-0.64149 1.092003,-1.05387 2.122081,-2.41814 2.080234,-4.00938 -0.04432,-0.87529 -0.656859,-1.69164 -1.514604,-1.91769 -0.532482,-0.38211 -1.042823,0.22283 -1.547876,-0.0556 z" />
    <path
       id="path414"
       style="fill:#781018;fill-opacity:1;stroke:#781018;stroke-width:0.264583px;stroke-linecap:butt;stroke-linejoin:miter;stroke-opacity:1"
       d="m 64.492657,284.41075 c -0.543976,0.0427 -1.021914,0.3649 -1.292072,0.83383 -0.447789,0.62655 -0.659397,1.38339 -1.097421,2.01348 -0.288898,0.59287 -0.351223,1.2815 -0.317494,1.93338 0.05779,0.72032 0.591286,1.26499 1.022494,1.79869 0.4796,0.5781 1.347181,0.68578 1.986876,0.32126 0.623995,-0.32784 1.209584,-0.77297 1.544495,-1.40863 0.580264,-0.78126 1.29689,-1.48031 1.692398,-2.38733 0.316805,-0.79225 0.561802,-1.61668 0.785584,-2.43914 0.03885,-0.7629 -0.748606,-1.21741 -1.364763,-1.45937 -0.653362,-0.26511 -1.42102,-0.0403 -1.852518,0.5086 -0.284484,0.32548 -0.698987,0.59199 -1.107579,0.28523 z" />
    <path
       id="path422"
       style="fill:#2e0908;fill-opacity:1;stroke:#2e0908;stroke-width:0.264583px;stroke-linecap:butt;stroke-linejoin:miter;stroke-opacity:1"
       d="m 68.929463,276.73538 c -1.389132,0.21061 -2.877399,0.80736 -3.548224,2.1297 -0.446289,0.85001 -0.829073,1.77829 -0.877046,2.7461 -0.05106,0.96908 0.657993,1.69398 1.338164,2.27458 0.651247,0.63531 1.468081,1.14355 2.400832,1.17738 1.002002,0.0409 2.042762,-0.0359 2.986105,-0.39647 0.731854,-0.2808 1.267171,-0.86782 1.87723,-1.32813 0.649756,-0.29635 1.043851,-0.91837 1.178957,-1.60307 0.305387,-1.0734 -0.02074,-2.30336 -0.906837,-3.00811 -1.121369,-0.9334 -2.603965,-1.20419 -3.90944,-1.78373 -0.179911,-0.0694 -0.35981,-0.13888 -0.539741,-0.20825 z" />
    <path
       id="path430"
       style="fill:#781018;fill-opacity:1;stroke:#781018;stroke-width:0.264583px;stroke-linecap:butt;stroke-linejoin:miter;stroke-opacity:1"
       d="m 78.81369,280.06285 c 1.30836,1.17834 3.204572,1.12541 4.849802,1.03331 1.58556,-0.14619 3.29316,-0.4883 4.51078,-1.58651 0.8916,-0.81054 0.97958,-2.13664 0.81305,-3.25432 -0.19958,-0.78812 -0.42077,-1.62491 -0.995,-2.23339 -0.24592,-0.67708 -1.09828,-0.57206 -1.67165,-0.53041 -1.72672,0.0697 -3.3998,-0.66486 -5.129994,-0.39425 -0.916241,0.13683 -2.013037,0.26633 -2.525738,1.15339 -0.271172,0.58433 -0.751674,1.05697 -0.929007,1.68484 -0.314419,1.20171 0.439888,2.29403 0.78688,3.39465 0.09556,0.24478 0.192524,0.48902 0.290877,0.73269 z" />
    <path
       id="path438"
       style="fill:#7b2e42;fill-opacity:1;stroke:#7b2e42;stroke-width:0.264583px;stroke-linecap:butt;stroke-linejoin:miter;stroke-opacity:1"
       d="m 70.075638,275.26021 c -0.436512,1.17929 0.402532,2.49771 1.493059,2.9622 1.062408,0.39253 2.230444,0.33072 3.341699,0.26307 1.204084,-0.13519 2.57611,-0.46436 3.284778,-1.54268 0.443609,-0.81111 0.344324,-1.78218 0.321247,-2.67358 -0.0099,-0.84774 -0.23048,-1.89189 -1.092187,-2.25879 -0.656129,-0.15295 -1.337492,-0.17566 -1.968647,-0.43522 -1.179149,-0.29886 -2.491748,-0.53353 -3.652774,-0.047 -1.399777,0.62325 -2.017756,2.28765 -1.727175,3.73199 z" />
    <path
       id="path446"
       style="fill:#7b2e42;fill-opacity:1;stroke:#7b2e42;stroke-width:0.264583px;stroke-linecap:butt;stroke-linejoin:miter;stroke-opacity:1"
       d="m 66.785007,287.54967 c -0.422123,0.86018 -0.491221,1.96746 0.126303,2.75477 0.360816,0.83199 0.887311,1.66376 1.803973,1.94814 1.848,0.76076 3.953233,0.0912 5.483003,-1.05762 0.588965,-0.59056 0.971902,-1.36298 1.409542,-2.06951 0.872473,-1.44209 0.939662,-3.43554 -0.115955,-4.80198 -0.461153,-0.53054 -1.146155,-0.79255 -1.695193,-1.21237 -1.040337,-0.3942 -1.925562,0.52603 -2.88804,0.74136 -0.894195,0.21352 -1.855491,0.34899 -2.567073,0.98989 -0.808867,0.67141 -1.481932,1.63223 -1.55656,2.70732 z" />
    <path
       id="path454"
       style="fill:#781018;fill-opacity:1;stroke:#781018;stroke-width:0.264583px;stroke-linecap:butt;stroke-linejoin:miter;stroke-opacity:1"
       d="m 75.190295,288.4259 c -0.124144,0.70286 0.372906,1.31054 0.626364,1.92702 0.639912,1.08222 1.733345,1.98686 3.00599,2.15339 0.96485,0.053 1.897314,-0.28928 2.799553,-0.5858 0.70814,-0.20353 1.00756,-0.9032 1.0891,-1.57313 0.23964,-1.10135 0.32605,-2.32218 -0.24816,-3.3399 -0.39497,-0.75168 -1.00699,-1.54822 -1.931111,-1.59258 -0.868292,0.0308 -1.791341,-0.25516 -2.615404,0.12939 -0.648568,0.34968 -1.22814,0.82075 -1.727512,1.36101 -0.507132,0.1913 -0.650977,0.74337 -0.808663,1.20021 -0.05328,0.11235 -0.115898,0.22054 -0.190157,0.32039 z" />
    <path
       id="path462"
       style="fill:#7b2e42;fill-opacity:1;stroke:#7b2e42;stroke-width:0.264583px;stroke-linecap:butt;stroke-linejoin:miter;stroke-opacity:1"
       d="m 82.523362,287.93787 c 0.43035,-0.9742 1.53592,-1.34485 2.47799,-1.63335 0.88649,-0.25153 1.8809,-0.10237 2.6034,0.48931 1.49846,1.10118 2.44049,2.79018 3.00021,4.53321 0.41012,0.8293 0.0319,1.8796 -0.74663,2.33812 -0.87073,0.46876 -1.84245,-0.0678 -2.62403,-0.476 -1.03378,-0.62399 -2.26072,-0.84346 -3.24662,-1.55898 -0.66574,-0.4786 -1.36742,-1.03373 -1.68359,-1.81349 -0.19998,-0.63011 0.12607,-1.25976 0.21927,-1.87882 z" />
    <path
       id="path470"
       style="fill:#2e0908;fill-opacity:1;stroke:#2e0908;stroke-width:0.264583px;stroke-linecap:butt;stroke-linejoin:miter;stroke-opacity:1"
       d="m 266.5899,265.92674 c 1.17636,-1.39056 2.15969,1.24311 3.43342,0.16457 1.16842,-0.86761 1.9727,0.3339 2.36397,1.31055 0.76745,0.55304 2.42456,0.89546 1.89946,2.24102 -1.20763,1.05847 0.35181,2.10374 0.65772,3.1483 0.42454,1.0689 -0.3442,2.02259 -0.94148,2.81782 -0.40836,0.97167 0.14803,3.21494 -1.65351,2.45661 -0.90384,0.66599 -1.41788,1.95874 -2.75667,1.78793 -0.79798,0.54616 -1.95762,0.40186 -1.63751,-0.82491 -0.27272,-1.37259 -1.57226,0.96605 -2.54851,0.62668 -1.28682,-0.076 -2.10374,-1.61335 -3.48606,-1.28003 -1.55745,0.16154 -3.38541,1.43795 -4.82579,0.29454 -1.25223,-1.03892 -0.90429,-2.65026 0.45618,-3.35378 0.78314,-0.58949 2.04393,-1.61364 1.24088,-2.67356 -0.80469,-1.03148 -0.0177,-2.34946 0.90365,-2.96148 0.23692,-0.9186 -0.98574,-2.42449 0.73111,-2.60277 1.55353,0.24968 1.12376,-1.7582 1.93415,-2.48889 0.83968,-0.77759 2.12773,-0.19133 2.7559,0.57506 0.41896,0.36756 0.91213,0.67999 1.47309,0.76234 z" />
    <path
       id="path478"
       style="fill:#550507;fill-opacity:1;stroke:#550507;stroke-width:0.264583px;stroke-linecap:butt;stroke-linejoin:miter;stroke-opacity:1"
       d="m 259.55262,262.17778 c -0.66679,0.40007 -0.84616,1.10794 -0.87648,1.8571 -0.1543,1.19581 0.19487,2.661 1.38807,3.2017 0.72744,0.28445 1.52994,0.25121 2.29536,0.36099 1.27189,0.10744 2.64323,0.13363 3.79344,-0.49807 0.87938,-0.5353 1.03395,-1.60706 1.35613,-2.49666 0.2817,-0.8368 0.42043,-1.77678 0.0203,-2.60325 -0.20886,-0.61232 -0.60208,-1.30913 -1.34745,-1.27713 -0.8143,0.098 -1.55899,-0.3886 -2.37327,-0.28652 -0.97808,-0.0174 -2.01452,-0.43001 -2.95423,0.002 -0.6094,0.42443 -0.78468,1.22774 -1.30183,1.74023 z" />
    <path
       id="path487"
       style="fill:#781018;fill-opacity:1;stroke:#781018;stroke-width:0.264583px;stroke-linecap:butt;stroke-linejoin:miter;stroke-opacity:1"
       d="m 270.21329,260.7137 c -0.51089,1.1067 -0.24572,2.35474 -0.47724,3.51338 -0.13539,0.64153 -0.70553,1.26273 -0.41734,1.9431 0.4327,0.52438 1.22846,0.37311 1.83781,0.44183 1.08533,0.0719 2.20382,-0.1755 3.08261,-0.83814 0.83079,-0.61262 1.72765,-1.30895 1.98405,-2.36519 0.28834,-1.14643 0.32994,-2.35291 0.22433,-3.52672 -0.0795,-0.81788 -0.58234,-1.59211 -1.36978,-1.88266 -0.8103,-0.28766 -1.73449,-0.63966 -2.57874,-0.28549 -0.85853,0.52586 -1.4684,1.36724 -2.04704,2.1736 -0.14514,0.24983 -0.24527,0.53429 -0.23866,0.82629 z" />
    <path
       id="path495"
       style="fill:#550507;fill-opacity:1;stroke:#550507;stroke-width:0.264583px;stroke-linecap:butt;stroke-linejoin:miter;stroke-opacity:1"
       d="m 276.30159,267.70139 c 0.13972,-0.64538 0.6275,-1.13568 0.80964,-1.76529 0.38438,-0.75573 0.79593,-1.54863 1.47057,-2.0881 0.5077,-0.40482 1.29774,-0.60651 1.84026,-0.15045 0.76247,0.562 0.79629,1.5919 0.7973,2.4536 0.0127,0.77826 0.1434,1.56874 -0.0916,2.33039 -0.2878,1.07349 -0.76181,2.08544 -1.14375,3.12612 -0.23982,0.6774 -1.02507,0.96024 -1.68363,0.79255 -1.07429,-0.23898 -1.72226,-1.30354 -2.00516,-2.29374 -0.20846,-0.78241 -0.18711,-1.62185 0.006,-2.40508 z" />
    <path
       id="path503"
       style="fill:#781018;fill-opacity:1;stroke:#781018;stroke-width:0.264583px;stroke-linecap:butt;stroke-linejoin:miter;stroke-opacity:1"
       d="m 273.93529,274.10123 c -0.57591,0.3271 -1.18639,1.09635 -0.77616,1.76085 0.44284,0.53698 1.14459,0.75058 1.71965,1.11422 0.81996,0.42671 1.54957,1.02909 2.44814,1.29291 0.71442,0.2085 1.47729,0.47914 2.22539,0.3042 0.8499,-0.24131 1.15119,-1.22448 1.19495,-2.01445 0.0109,-0.87311 -0.14478,-1.77094 -0.52987,-2.55939 -0.49469,-0.93002 -1.54822,-1.371 -2.51137,-1.64466 -0.56776,-0.15158 -1.18577,-0.24596 -1.73747,0.019 -0.49405,0.14692 -1.0244,0.24667 -1.32561,0.7237 -0.28923,0.29191 -0.52383,0.6368 -0.70765,1.00361 z" />
    <path
       id="path512"
       style="fill:#781018;fill-opacity:1;stroke:#781018;stroke-width:0.264583px;stroke-linecap:butt;stroke-linejoin:miter;stroke-opacity:1"
       d="m 257.54374,263.98571 c 0.98954,0.17064 2.12165,0.5741 2.50768,1.59609 0.27686,0.70826 0.4555,1.45272 0.80026,2.13493 0.51628,1.13265 0.78757,2.49962 0.20181,3.66098 -0.36898,0.81442 -1.18425,1.32816 -2.05148,1.45851 -0.56691,0.1331 -1.25249,0.13159 -1.65693,-0.35333 -0.42786,-0.462 -0.75609,-1.01422 -1.2622,-1.40202 -0.68743,-0.75754 -0.98794,-1.77106 -1.29551,-2.7244 -0.21205,-0.88044 -0.34851,-1.84967 -0.0417,-2.72114 0.35561,-0.55227 0.83597,-1.10927 1.49206,-1.29114 0.43297,-0.1278 0.89311,-0.16583 1.30596,-0.35848 z" />
    <path
       id="path520"
       style="fill:#2e0908;fill-opacity:1;stroke:#2e0908;stroke-width:0.264583px;stroke-linecap:butt;stroke-linejoin:miter;stroke-opacity:1"
       d="m 242.40928,274.97746 c -0.93787,0.58184 -1.15442,1.8022 -1.12583,2.82264 0.0734,0.79884 0.40834,1.60176 0.97492,2.17584 0.94177,0.80119 2.32506,0.63908 3.39424,0.20364 1.0356,-0.43332 2.11727,-1.11904 2.43917,-2.26542 0.24451,-0.79997 0.39942,-1.63351 0.46235,-2.46674 0.0293,-0.76122 -0.65091,-1.26538 -1.18695,-1.68861 -0.86875,-0.63119 -2.20119,-0.91264 -3.08509,-0.159 -0.5817,0.50627 -1.0369,1.27744 -1.87281,1.37765 z" />
    <path
       id="path528"
       style="fill:#550507;fill-opacity:1;stroke:#550507;stroke-width:0.264583px;stroke-linecap:butt;stroke-linejoin:miter;stroke-opacity:1"
       d="m 251.01176,279.70247 c -0.90813,0.842 -1.7711,1.73572 -2.54416,2.7042 -0.36943,1.17779 -0.30585,2.5111 0.19099,3.64386 0.36016,0.86948 1.18592,1.41434 2.05708,1.68077 1.02277,0.31998 2.17439,0.79206 3.20504,0.23824 0.93128,-0.32173 1.48288,-1.19166 1.84776,-2.05505 0.57209,-1.22716 0.70421,-2.82455 -0.22158,-3.92046 -0.53099,-0.68396 -1.13817,-1.34405 -1.96214,-1.66862 -0.51584,-0.19905 -0.97609,-0.52856 -1.49471,-0.70768 -0.36141,-0.0639 -0.72097,0.0449 -1.07828,0.0847 z" />
    <path
       id="path542"
       style="fill:#2e0908;fill-opacity:1;stroke:#2e0908;stroke-width:0.264583px;stroke-linecap:butt;stroke-linejoin:miter;stroke-opacity:1"
       d="m 254.98025,285.81393 c 0.006,1.47939 0.75677,3.09232 2.17341,3.6935 1.37405,0.47532 2.80725,-0.1118 4.10191,-0.5694 0.74956,-0.3326 1.58509,-0.62171 2.13859,-1.25328 0.46983,-0.67318 0.36869,-1.5529 0.33726,-2.32971 -0.067,-0.79217 -0.32854,-1.57847 -0.88463,-2.16343 -0.65971,-0.7282 -1.3384,-1.48039 -2.19579,-1.97608 -0.77717,-0.29718 -1.63289,-0.0559 -2.42714,0.0545 -1.07436,0.51148 -1.76721,1.55548 -2.38509,2.5316 -0.35916,0.63234 -0.70068,1.29795 -0.85852,2.01233 z" />
    <path
       id="path551"
       style="fill:#2e0908;fill-opacity:1;stroke:#2e0908;stroke-width:0.264583px;stroke-linecap:butt;stroke-linejoin:miter;stroke-opacity:1"
       d="m 268.83296,285.43682 c 0.70498,1.42961 2.07371,2.54967 3.67404,2.77387 1.20156,0.2237 2.47644,0.29497 3.66037,-0.0488 0.72243,-0.25548 0.95474,-1.02895 1.02615,-1.71608 0.13694,-0.89963 0.2895,-1.83562 0.1135,-2.73746 -0.26387,-0.79561 -0.86855,-1.43258 -1.48907,-1.96954 -0.86945,-0.54705 -1.95239,-0.59781 -2.95052,-0.57929 -0.75461,-0.0436 -1.10409,0.62273 -1.4563,1.15849 -0.37285,0.505 -0.80233,0.9581 -1.2479,1.39874 -0.18489,0.55397 -0.73153,0.82349 -1.12579,1.20595 -0.11624,0.14623 -0.1962,0.32581 -0.20448,0.5141 z" />
    <path
       id="path559"
       style="fill:#550507;fill-opacity:1;stroke:#550507;stroke-width:0.264583px;stroke-linecap:butt;stroke-linejoin:miter;stroke-opacity:1"
       d="m 276.94246,282.87466 c -0.19063,1.27612 0.68426,2.51393 1.84435,2.98459 0.65276,0.2793 1.43404,0.42061 2.09365,0.0825 0.68401,-0.29928 1.5111,-0.6195 1.73698,-1.41292 0.38736,-0.87681 0.71652,-1.89575 0.33256,-2.83309 -0.48277,-1.22564 -1.89276,-1.80793 -3.14129,-1.72518 -0.60197,0.033 -1.2608,0.13786 -1.66583,0.63506 -0.57168,0.64909 -0.94551,1.44858 -1.20042,2.26902 z" />
    <path
       id="path567"
       style="fill:#c38b55;fill-opacity:1;stroke:#c38b55;stroke-width:0.264583px;stroke-linecap:butt;stroke-linejoin:miter;stroke-opacity:1"
       d="m 260.07025,270.90685 c 1.33946,-1.23062 3.29127,-0.89966 4.95453,-1.04453 1.40773,-0.14965 2.83407,0.043 4.21545,-0.0794 1.40536,-0.44821 0.49694,1.86389 0.78439,2.691 0.35799,1.43816 0.0818,3.16371 -1.22268,4.04529 -0.59902,0.20335 -1.31264,1.07956 -0.21815,0.57208 0.59653,-0.31842 2.81827,-1.37626 2.11068,0.15351 -0.83218,0.9495 0.92764,2.46831 1.0893,0.79478 0.77033,-0.98902 0.43913,-2.23145 0.26075,-3.35048 0.23486,-1.50153 1.93036,0.005 2.65724,-0.58537 -0.57063,-1.09046 -2.25572,-0.82072 -3.06314,-1.73412 -0.38818,-0.70185 -1.15134,-2.27677 0.22868,-2.33765 0.73569,0.22617 1.84503,-0.41731 0.80014,-0.99271 -0.81491,-0.42041 -2.41747,0.2935 -2.36309,-1.17171 0.0344,-0.48382 -0.26647,-2.59084 -0.47424,-1.15953 0.0487,1.05841 -0.8775,1.83352 -1.88944,1.84543 -1.07223,0.0161 -2.13349,-0.0734 -3.195,0.14281 -1.49075,0.10616 -2.77147,1.04147 -4.27721,1.11093 -0.72527,0.26347 -2.06079,0.94956 -1.4515,1.87316 0.44506,0.74476 1.44248,1.67704 0.85571,2.58045 -0.73825,0.69885 -1.91214,0.41886 -2.67165,1.1121 -0.62549,0.38304 -0.64038,0.64783 0.10415,0.32434 1.17472,-0.337 0.68426,1.60019 1.93399,1.75196 0.29822,0.21431 1.33562,1.4323 1.07789,0.52093 -0.81217,-0.3766 -1.88246,-1.44545 -1.01613,-2.30485 0.62737,-0.4984 2.16125,-1.33517 1.66347,0.14656 0.3754,1.05129 1.52489,-1.17862 0.85619,-1.64956 0.66191,-0.6822 0.89725,-1.48226 -0.32095,-1.53436 -0.72418,-0.26612 -1.57034,-0.84442 -1.42938,-1.72109 z" />
    <path
       id="path575"
       style="fill:#550507;fill-opacity:1;stroke:#550507;stroke-width:0.264583px;stroke-linecap:butt;stroke-linejoin:miter;stroke-opacity:1"
       d="m 265.02468,269.74224 c -0.38059,1.11781 -1.12784,2.09845 -1.34389,3.27259 0.0609,0.49016 0.32381,0.92689 0.39318,1.41581 0.23816,0.51131 0.84,0.63883 1.24938,0.97221 0.72251,0.50736 1.65353,0.90446 2.53181,0.56281 0.88087,-0.33356 1.5688,-1.00914 2.30144,-1.57731 0.60295,-0.50285 0.97908,-1.2513 0.98255,-2.0404 0.0159,-0.70247 0.001,-1.40838 -0.03,-2.10888 -0.0902,-0.78562 -0.73625,-1.33545 -1.43551,-1.60287 -0.57124,-0.25589 -1.23774,-0.29383 -1.81948,-0.0498 -0.53783,0.11597 -1.13079,0.0181 -1.60043,0.3719 -0.42141,0.24291 -0.79437,0.56302 -1.22902,0.78397 z" />
    <path
       id="path584"
       style="fill:#781018;fill-opacity:1;stroke:#781018;stroke-width:0.264583px;stroke-linecap:butt;stroke-linejoin:miter;stroke-opacity:1"
       d="m 260.32907,275.79824 c 0.84132,-0.89442 1.90317,-1.67078 3.15736,-1.80685 0.79399,-0.15456 1.69223,-0.11313 2.33307,0.43859 0.63979,0.53165 1.2715,1.11115 1.70154,1.83133 0.38959,0.72421 0.54763,1.60475 0.35624,2.41022 -0.12802,0.52183 -0.58389,0.98215 -1.15231,0.93378 -1.31781,-0.026 -2.57165,-0.52199 -3.88767,-0.57949 -0.88368,-0.0962 -1.78563,-0.15201 -2.63585,-0.42683 -0.56961,-0.27154 -0.80826,-1.10571 -0.38577,-1.59973 0.24559,-0.37433 0.2445,-0.83775 0.51339,-1.20102 z" />
    <path
       id="path592"
       style="fill:#7b2e42;fill-opacity:1;stroke:#7b2e42;stroke-width:0.264583px;stroke-linecap:butt;stroke-linejoin:miter;stroke-opacity:1"
       d="m 272.7398,271.67217 c 0.0445,-1.57237 0.87942,-2.97232 1.65038,-4.29357 0.59216,-0.88739 1.31927,-1.77628 2.32917,-2.19273 0.7603,-0.32751 1.41561,0.25825 1.86132,0.80844 0.89686,0.99015 1.02462,2.43872 0.89379,3.71292 -0.0942,1.18092 -0.64976,2.28033 -1.39519,3.17835 -0.77521,0.53515 -1.60714,1.0833 -2.55944,1.21954 -0.72712,0.12455 -1.4334,-0.25158 -1.87006,-0.82068 -0.32294,-0.50772 -1.27258,-0.8856 -0.90997,-1.61227 z" />
    <path
       id="path600"
       style="fill:#7b2e42;fill-opacity:1;stroke:#7b2e42;stroke-width:0.264583px;stroke-linecap:butt;stroke-linejoin:miter;stroke-opacity:1"
       d="m 265.24653,281.96515 c 0.0486,-0.69947 0.71445,-1.14534 0.89052,-1.81096 0.57559,-0.80463 1.54829,-1.24905 2.49472,-1.44378 0.89303,-0.20273 1.37206,0.73492 1.53974,1.45704 0.35543,1.1058 1.12575,2.10826 1.06836,3.32094 0.003,0.89376 -0.14682,1.80738 -0.52,2.62225 -0.3823,0.47823 -0.92694,0.80582 -1.41493,1.16559 -0.59052,0.27221 -1.21161,0.48642 -1.83505,0.66699 -0.93098,0.19032 -1.66512,-0.58799 -2.17347,-1.25945 -0.42578,-0.52853 -0.84027,-1.12413 -0.83133,-1.83411 -0.0562,-1.0239 0.39575,-1.96566 0.78144,-2.88451 z" />
    <path
       id="path608"
       style="fill:#7b2e42;fill-opacity:1;stroke:#7b2e42;stroke-width:0.264583px;stroke-linecap:butt;stroke-linejoin:miter;stroke-opacity:1"
       d="m 272.65354,282.34226 c 1.30643,0.19208 2.6214,0.33641 3.93494,0.46319 0.91804,0.019 1.94524,-0.13914 2.61852,-0.81558 0.5564,-0.73533 0.15917,-1.686 -0.15638,-2.43318 -0.19828,-1.06308 -1.0077,-1.83222 -1.67398,-2.62646 -0.58983,-0.66526 -1.4031,-1.19079 -2.31948,-1.1872 -1.34673,-0.11233 -2.89108,0.10123 -3.79668,1.21534 -0.43283,0.5493 -1.16074,0.9161 -1.25168,1.67374 -0.1079,0.73998 -0.15504,1.67655 0.53378,2.16452 0.64101,0.59491 1.36785,1.08834 2.11096,1.54563 z" />
    <path
       id="path616"
       style="fill:#550507;fill-opacity:1;stroke:#550507;stroke-width:0.264583px;stroke-linecap:butt;stroke-linejoin:miter;stroke-opacity:1"
       d="m 259.76214,284.006 c 1.27255,1.04289 2.93751,1.70723 4.59665,1.56769 0.64825,-0.18816 1.18546,-0.63466 1.73146,-1.01519 1.09855,-0.85553 1.39301,-2.39819 1.05121,-3.69443 -0.14478,-0.70496 -0.56783,-1.30086 -1.17335,-1.68681 -0.99472,-0.70939 -1.91455,-1.64248 -3.13599,-1.94194 -1.27064,-0.224 -2.61888,0.0657 -3.73237,0.69779 -0.67077,0.35661 -0.5452,1.13123 -0.42598,1.74534 0.0588,0.77056 -0.62658,1.41094 -0.35059,2.20825 0.11653,0.884 0.55127,1.79221 1.43896,2.1193 z" />
    <path
       id="path624"
       style="fill:#2e0908;fill-opacity:1;stroke:#2e0908;stroke-width:0.264583px;stroke-linecap:butt;stroke-linejoin:miter;stroke-opacity:1"
       d="m 244.47979,263.70842 c -0.19212,1.05957 0.0776,2.2534 0.84929,3.02804 0.54953,0.39158 1.17998,0.65937 1.7805,0.96248 1.24907,0.47246 2.62869,0.50534 3.94215,0.36172 0.78487,-0.1351 1.49121,-0.75756 1.71566,-1.52125 0.17121,-1.18118 -0.42345,-2.2854 -0.92809,-3.30987 -0.36197,-0.7014 -0.95719,-1.30758 -1.73784,-1.51479 -1.23381,-0.41022 -2.53509,-0.71161 -3.84146,-0.66726 -0.98161,0.0707 -1.53957,1.06501 -1.80232,1.90661 -0.0558,0.24777 -0.0511,0.51118 0.0221,0.75432 z" />
    <path
       id="path633"
       style="fill:#550507;fill-opacity:1;stroke:#550507;stroke-width:0.264583px;stroke-linecap:butt;stroke-linejoin:miter;stroke-opacity:1"
       d="m 250.08744,263.9968 c 0.6921,-0.31897 1.51901,-0.63969 2.2671,-0.3218 0.43299,0.25685 0.85531,0.53008 1.30301,0.76229 0.72291,0.40892 1.23338,1.12115 1.43625,1.92236 0.23737,0.85275 0.28011,1.88056 -0.27501,2.62229 -0.42468,0.55986 -1.16725,0.71118 -1.83256,0.65247 -0.8583,-0.0665 -1.70743,-0.22285 -2.55848,-0.34821 -0.77172,-0.12278 -1.64023,-0.50306 -1.86914,-1.32209 -0.22618,-0.84318 0.009,-1.72407 0.23111,-2.54254 0.15457,-0.56041 0.56577,-1.00751 1.08093,-1.26364 0.0753,-0.0494 0.14887,-0.10184 0.21679,-0.16113 z" />
    <path
       id="path641"
       style="fill:#7b2e42;fill-opacity:1;stroke:#7b2e42;stroke-width:0.264583px;stroke-linecap:butt;stroke-linejoin:miter;stroke-opacity:1"
       d="m 246.78446,266.27058 c 0.57495,0.15246 1.24585,0.0777 1.67518,0.58074 0.56456,0.40883 1.09518,0.94825 1.18177,1.67235 0.15042,0.72076 0.57527,1.45818 0.23916,2.19523 -0.3931,0.86588 -1.21071,1.42893 -1.78738,2.16537 -0.63068,0.78808 -1.22908,1.69251 -2.22906,2.03855 -0.76366,0.44274 -1.68825,0.63156 -2.55652,0.46062 -0.74059,-0.26154 -1.17721,-0.99373 -1.58092,-1.6242 -0.57699,-1.00573 -1.06998,-2.3143 -0.46813,-3.41851 0.52693,-0.85715 1.32801,-1.4845 2.10919,-2.09368 0.42295,-0.49413 0.7184,-1.11532 1.31261,-1.44043 0.61046,-0.40922 1.36454,-0.67147 2.1041,-0.53604 z" />
    <path
       id="path649"
       style="fill:#550507;fill-opacity:1;stroke:#550507;stroke-width:0.264583px;stroke-linecap:butt;stroke-linejoin:miter;stroke-opacity:1"
       d="m 246.71054,280.34578 c 0.0303,0.64776 0.77878,0.79561 1.29941,0.80951 0.88101,0.10946 1.55298,-0.58026 2.26364,-0.97787 0.56369,-0.24722 0.89394,-0.76701 1.35396,-1.13778 0.83742,-0.48595 1.62668,-1.13818 2.15792,-1.9559 0.3945,-0.75979 0.49616,-1.76411 0.0358,-2.51383 -0.59588,-0.57914 -1.41037,-0.91656 -1.80816,-1.69541 -0.48181,-0.71773 -1.37386,-0.8173 -2.15949,-0.90131 -0.79277,-0.0193 -1.59316,-0.62039 -2.37133,-0.23861 -0.98469,0.86906 -1.49571,2.22202 -1.51032,3.52166 0.0163,1.69692 0.60809,3.31748 0.73444,5.00044 z" />
    <path
       id="path657"
       style="fill:#7b2e42;fill-opacity:1;stroke:#7b2e42;stroke-width:0.264583px;stroke-linecap:butt;stroke-linejoin:miter;stroke-opacity:1"
       d="m 252.0347,267.87885 c 0.87981,-0.66179 2.17641,-0.91773 3.12347,-0.23939 1.51855,0.90595 2.5418,2.39719 3.85973,3.54251 1.07151,1.19215 1.29404,3.2133 0.24751,4.48667 -0.83602,0.8075 -2.03227,1.10252 -3.15248,1.25759 -1.01714,0.13177 -2.05233,-0.23163 -2.77209,-0.95953 -0.73287,-0.68539 -1.47882,-1.35621 -2.23662,-2.01253 -0.59314,-0.61301 -1.12031,-1.44212 -1.03835,-2.3242 0.30513,-1.19516 0.76358,-2.37876 1.59999,-3.30832 0.1211,-0.14913 0.24471,-0.29619 0.36884,-0.4428 z" />
    <path
       id="path665"
       style="fill:#781018;fill-opacity:1;stroke:#781018;stroke-width:0.264583px;stroke-linecap:butt;stroke-linejoin:miter;stroke-opacity:1"
       d="m 253.00834,283.41815 c 1.24992,0.13796 2.60662,0.8115 3.8113,0.15071 1.13248,-0.71907 1.76444,-1.99522 2.27828,-3.18852 0.42339,-0.92948 0.3335,-2.11757 -0.50702,-2.78553 -0.68037,-0.61434 -1.3227,-1.44348 -2.31332,-1.49535 -1.94906,-0.18143 -3.72939,0.9358 -5.22383,2.05918 -0.72823,0.56448 -1.63537,1.28106 -1.46638,2.32307 0.33367,0.88571 0.65825,1.8971 1.48866,2.45115 0.53913,0.42355 1.25806,0.59354 1.93231,0.48529 z" />
  </g>
</svg>
