<?xml version="1.0" encoding="UTF-8" standalone="no"?>
<svg
   xmlns:dc="http://purl.org/dc/elements/1.1/"
   xmlns:cc="http://creativecommons.org/ns#"
   xmlns:rdf="http://www.w3.org/1999/02/22-rdf-syntax-ns#"
   xmlns:svg="http://www.w3.org/2000/svg"
   xmlns="http://www.w3.org/2000/svg"
   xmlns:sodipodi="http://sodipodi.sourceforge.net/DTD/sodipodi-0.dtd"
   xmlns:inkscape="http://www.inkscape.org/namespaces/inkscape"
   sodipodi:docname="andromeda.svg"
   inkscape:version="1.0 (4035a4fb49, 2020-05-01)"
   id="svg8"
   version="1.1"
   viewBox="0 0 317.5 158.75"
   height="600"
   width="1200">
  <defs
     id="defs2">
    <inkscape:path-effect
       lpeversion="1"
       is_visible="true"
       id="path-effect677"
       effect="spiro" />
    <inkscape:path-effect
       simplify_just_coalesce="false"
       simplify_individual_paths="false"
       helper_size="0"
       smooth_angles="360"
       threshold="0.000408163"
       steps="1"
       lpeversion="1"
       is_visible="true"
       id="path-effect675"
       effect="simplify" />
    <inkscape:path-effect
       lpeversion="1"
       is_visible="true"
       id="path-effect668"
       effect="spiro" />
    <inkscape:path-effect
       simplify_just_coalesce="false"
       simplify_individual_paths="false"
       helper_size="0"
       smooth_angles="360"
       threshold="0.000408163"
       steps="1"
       lpeversion="1"
       is_visible="true"
       id="path-effect666"
       effect="simplify" />
    <inkscape:path-effect
       lpeversion="1"
       is_visible="true"
       id="path-effect657"
       effect="spiro" />
    <inkscape:path-effect
       simplify_just_coalesce="false"
       simplify_individual_paths="false"
       helper_size="0"
       smooth_angles="360"
       threshold="0.000408163"
       steps="1"
       lpeversion="1"
       is_visible="true"
       id="path-effect655"
       effect="simplify" />
    <inkscape:path-effect
       lpeversion="1"
       is_visible="true"
       id="path-effect651"
       effect="spiro" />
    <inkscape:path-effect
       simplify_just_coalesce="false"
       simplify_individual_paths="false"
       helper_size="0"
       smooth_angles="360"
       threshold="0.000408163"
       steps="1"
       lpeversion="1"
       is_visible="true"
       id="path-effect649"
       effect="simplify" />
  </defs>
  <sodipodi:namedview
     inkscape:snap-global="false"
     inkscape:document-rotation="0"
     inkscape:window-maximized="0"
     inkscape:window-y="19"
     inkscape:window-x="0"
     inkscape:window-height="1061"
     inkscape:window-width="1920"
     units="px"
     showgrid="false"
     inkscape:current-layer="layer1"
     inkscape:document-units="mm"
     inkscape:cy="305.49"
     inkscape:cx="603.14599"
     inkscape:zoom="1.4"
     inkscape:pageshadow="2"
     inkscape:pageopacity="0.0"
     borderopacity="1.0"
     bordercolor="#666666"
     pagecolor="#ffffff"
     id="base" />
  <metadata
     id="metadata5">
    <rdf:RDF>
      <cc:Work
         rdf:about="">
        <dc:format>image/svg+xml</dc:format>
        <dc:type
           rdf:resource="http://purl.org/dc/dcmitype/StillImage" />
        <dc:title></dc:title>
      </cc:Work>
    </rdf:RDF>
  </metadata>
  <g
     transform="translate(0,-138.25001)"
     id="layer1"
     inkscape:groupmode="layer"
     inkscape:label="Layer 1">
    <path
       d="m 156.90664,144.5091 c -17.38848,0.76322 -34.49681,-4.45062 -51.8943,-3.02471 -17.026547,-6.92677 -32.904004,5.59109 -48.754789,9.94707 -7.603261,6.21201 -28.415044,-1.16766 -28.268682,11.40761 16.262146,7.325 -6.663949,12.50038 -12.308237,17.7814 -9.4539293,9.02705 -2.429857,24.07431 9.39965,26.4525 7.964732,2.82051 21.51653,9.3534 15.048413,19.74906 -3.364109,8.70491 -19.88874,20.27078 -7.974278,28.29397 9.850692,0.51358 28.234429,7.84348 16.862745,19.66378 -6.304417,2.90506 -23.078778,8.95432 -9.598627,15.50538 10.195885,4.02029 21.161013,2.12101 31.403148,-0.31848 31.147887,-5.18485 62.921357,-8.93567 94.446457,-5.17575 13.13638,-0.0635 28.28982,2.16742 39.04708,-7.1107 -12.50699,-12.04027 14.30317,-9.67653 16.02129,0.0296 15.92427,11.40246 36.30707,10.51079 54.63161,14.35967 11.15373,0.39727 26.34096,0.36234 32.55184,-10.65209 5.56972,-12.91512 -20.97167,-17.88384 -6.03566,-28.7256 11.73791,-7.18032 9.67166,-20.47589 -1.66694,-26.56551 -1.08429,-10.72955 19.98903,-10.26778 14.35837,-23.84561 -4.93224,-11.61596 -18.81992,-14.02924 -28.77443,-19.77076 -4.19319,-11.52676 9.65089,-18.14684 13.20132,-27.73306 1.62388,-13.88797 -17.00289,-11.88486 -26.25343,-11.92886 -29.46913,1.37551 -58.95496,13.0886 -88.43042,5.09843 -8.84785,-1.91365 -17.8473,-5.28945 -27.01213,-3.43734 z"
       style="fill:#000055;stroke:#000055;stroke-width:0.264583px;stroke-linecap:butt;stroke-linejoin:miter;stroke-opacity:1"
       id="path653" />
    <path
       d="m 93.568069,163.30075 c -12.142673,-5.02372 -32.017835,-0.58445 -20.512313,15.23185 -4.272348,17.15882 12.917618,21.53119 23.859646,29.4072 11.890278,6.93205 24.469198,12.48064 36.666468,18.93103 13.89861,2.83734 21.35408,16.9162 34.96564,20.64387 24.25735,7.08365 48.44937,16.50883 73.84143,18.10221 13.31128,1.89109 19.27892,-20.11897 6.23066,-24.31207 -17.80063,-1.34959 -22.72255,-22.36895 -40.49919,-24.13646 -12.0208,-5.61655 -20.89072,-16.86447 -34.51886,-19.77463 -15.48367,-7.19183 -29.8757,-17.18619 -45.43549,-24.29423 -11.51572,-3.33582 -23.42767,-5.32071 -34.597991,-9.79877 z"
       style="fill:#0000aa;stroke:#0000aa;stroke-width:0.264583px;stroke-linecap:butt;stroke-linejoin:miter;stroke-opacity:1"
       id="path664" />
    <path
       inkscape:original-d="m 147.57537,200.55788 c -4.35709,-0.49526 -9.51089,-2.11128 -13.83897,-0.62744 -2.0931,0.7176 -3.18625,2.88783 -4.18306,4.64301 -0.69192,1.21833 -1.92841,3.01565 -1.39436,4.51752 0.68961,1.93935 5.00936,3.52594 6.72775,4.89399 1.50242,1.19612 2.5389,2.80615 3.93907,4.1097 2.09452,1.95 4.85398,3.4607 7.32037,4.86262 2.59345,1.47414 4.32505,3.8266 6.72775,5.52142 1.92749,1.35961 3.99694,2.20641 6.2746,2.79207 2.82114,0.72541 5.65521,1.44037 8.43585,2.32152 1.67603,0.53111 3.35002,1.17086 5.08939,1.44309 2.79803,0.43794 5.311,0.0821 8.08725,-0.25097 4.60763,-0.55285 5.84988,0.8763 8.88903,-4.04695 0.85729,-1.38876 1.94134,-2.92073 1.22005,-4.70577 -0.60727,-1.50285 -6.97023,-6.10144 -8.33127,-7.49783 -0.9894,-1.01508 -1.4455,-2.19961 -2.23096,-3.3254 -1.29496,-1.85604 -2.62684,-3.71477 -4.28765,-5.27045 -3.93637,-3.68717 -9.7343,-4.87566 -14.71045,-6.36845 -1.98406,-0.5952 -4.08104,-1.77149 -6.10029,-2.10191 -1.22583,-0.20058 -2.44432,-0.0868 -3.66018,-0.25097 -1.49166,-0.20135 -2.4871,-0.99332 -3.97392,-0.6588 z"
       inkscape:path-effect="#path-effect675;#path-effect677"
       id="path673"
       d="m 147.57537,200.55788 c -2.72487,-0.57469 -5.48745,-0.97051 -8.26407,-1.18406 -1.86323,-0.1433 -3.80459,-0.19228 -5.52414,0.53937 -0.86471,0.36792 -1.64613,0.92682 -2.2831,1.61774 -0.97016,1.05233 -1.58469,2.37348 -2.28727,3.62047 -0.44238,0.78517 -0.93266,1.5686 -1.10631,2.45293 -0.11847,0.60329 -0.0778,1.24981 0.19319,1.80167 0.30737,0.62592 0.87758,1.07883 1.45846,1.46462 1.43751,0.95471 3.04897,1.63267 4.44953,2.64081 0.91977,0.66206 1.73574,1.45767 2.5076,2.28744 0.82182,0.88348 1.59937,1.8107 2.48137,2.63411 1.62939,1.52114 3.5773,2.65358 5.5336,3.72207 0.63785,0.34838 1.27946,0.69194 1.88849,1.08855 1.56541,1.01943 2.88345,2.36703 4.27371,3.6148 0.87893,0.78885 1.79442,1.5436 2.79926,2.16416 1.69693,1.04797 3.60923,1.69009 5.51895,2.26521 3.19283,0.96153 6.43258,1.76097 9.62742,2.71578 1.4358,0.42911 2.86986,0.89126 4.35312,1.10484 1.82836,0.26327 3.69101,0.14258 5.52444,-0.0827 0.98734,-0.1213 1.97216,-0.27286 2.96519,-0.33143 1.00368,-0.0592 2.01285,-0.0232 3.01287,-0.12727 0.73917,-0.0769 1.48288,-0.23495 2.13239,-0.5961 0.8672,-0.48219 1.50271,-1.28764 2.07297,-2.09964 0.45868,-0.65312 0.89128,-1.32474 1.29058,-2.01576 0.42071,-0.72808 0.81143,-1.50028 0.8985,-2.33665 0.0567,-0.54513 -0.0226,-1.11087 -0.27408,-1.59787 -0.23937,-0.46362 -0.62035,-0.83605 -0.99956,-1.19445 -1.14229,-1.07961 -2.32938,-2.11225 -3.56504,-3.08361 -1.11567,-0.87704 -2.27463,-1.70738 -3.28464,-2.70427 -0.47131,-0.46518 -0.90868,-0.96549 -1.29629,-1.50241 -0.55127,-0.76363 -0.99851,-1.59606 -1.48617,-2.4018 -1.16233,-1.92047 -2.56852,-3.7051 -4.25873,-5.18241 -1.78905,-1.5637 -3.88,-2.76707 -6.096,-3.62449 -2.84451,-1.10061 -5.88182,-1.63578 -8.73152,-2.72287 -1.73438,-0.66162 -3.40657,-1.5296 -5.22551,-1.90013 -0.83127,-0.16934 -1.68038,-0.23166 -2.52752,-0.27685 -0.88473,-0.0472 -1.77751,-0.0771 -2.638,-0.28811 -0.80748,-0.19802 -1.59001,-0.55548 -2.42138,-0.56308 -0.23957,-0.002 -0.4794,0.0252 -0.71231,0.0814 z"
       style="fill:#2a2aff;stroke:#2a2aff;stroke-width:0.264583px;stroke-linecap:butt;stroke-linejoin:miter;stroke-opacity:1" />
    <path
       d="m 160.7954,216.69233 c -1.4979,-0.64061 -2.30013,-2.2161 -3.67046,-3.01481 -0.79719,-0.38549 -0.74887,0.46436 -0.0486,0.54977 1.80048,0.89834 4.28731,0.89597 5.71138,-0.68717 0.66898,-0.50482 0.31756,-1.71512 -0.51722,-0.95261 -1.07363,0.63025 -1.60145,1.79948 -2.40424,2.69813 -0.48793,0.51173 -1.13795,2.04157 0.12428,1.89227 1.07741,-0.22364 1.88149,-1.09907 2.93784,-1.41674 1.17193,-0.48847 2.39902,-0.82665 3.62863,-1.13449 -1.76149,0.35485 -3.75074,0.56955 -5.04163,1.96451 0.19273,0.72266 1.39174,0.9837 1.81822,1.73275 0.91447,0.93413 1.73186,2.13138 3.02662,2.5447 1.2248,0.0147 -0.40057,-0.78366 -0.73341,-1.05393 -1.49751,-0.96871 -3.03786,-1.88914 -4.392,-3.05614 -0.85566,-0.54322 -2.07294,0.10017 -2.06878,1.12666 -0.11879,0.96573 0.6876,1.74739 0.53057,2.71784 -0.008,0.87964 -0.30515,1.85983 0.13906,2.66885 0.75188,0.52891 1.17077,-0.39654 0.5797,-0.8815 -1.03608,-2.1792 -2.94084,-4.15125 -5.39857,-4.57369 -1.1732,1.7e-4 0.62047,0.0341 0.97581,0.005 1.14588,-0.029 2.28682,-0.26126 3.42761,-0.0312 0.99789,0.28788 1.38763,-0.62957 2.37413,-0.50477 0.84944,-0.59725 -1.26489,-0.34948 -1.69783,-0.39813 -2.33374,0.0151 -4.67291,0.0455 -6.99428,0.30911 0.32548,0.86714 2.1993,-0.35161 1.26697,-0.54313 0.38464,0.12866 1.33725,0.20946 1.89376,0.48208 1.76733,0.65712 3.37963,1.83013 5.30724,1.98075 0.51229,-0.9954 -0.96323,-1.37887 -1.40656,-2.03706 -0.46372,-0.72092 -0.6029,-2.34647 -1.80827,-2.00832 -1.02307,0.53433 -0.12367,1.58809 0.44201,2.08824 1.29832,1.57008 1.98166,3.5341 3.07064,5.24118 0.95051,0.67255 1.46355,-1.47701 0.48346,-0.92005 0.76344,0.64488 0.6979,-0.84666 -0.0415,-0.94921 -0.67892,-0.5009 -1.26904,-1.13459 -1.57604,-1.93176 -0.62694,-1.07775 -0.8683,-2.4138 -1.75765,-3.31926 -0.84128,-0.60486 -1.61545,0.52226 -0.74205,1.11237 0.80197,0.9684 1.28971,2.37891 2.60837,2.76634 0.48045,0.19607 1.65082,-0.43167 0.59512,-0.56501 -2.41252,-0.87935 -4.76618,-2.02203 -7.31797,-2.437 -1.20627,0.11604 -0.80635,1.53634 0.26808,1.47578 0.94633,0.37956 1.73451,-0.33745 2.63014,-0.44945 0.91058,-0.15283 1.84322,-0.13866 2.757,-0.0215 -0.86694,0.10049 -1.76582,0.0223 -2.63752,0.20079 -1.15435,0.15286 -2.31308,0.35577 -3.48211,0.29717 2.10522,1.03897 4.21944,2.39669 5.35686,4.52401 0.0989,0.81098 1.08816,2.08798 1.84484,1.13346 0.46952,-1.03664 -0.20202,-2.13308 -0.21925,-3.19221 0.22791,-0.9835 0.0843,-2.02836 -0.16775,-2.99095 -0.85053,-0.35333 -0.12999,0.44807 0.35075,0.46513 1.92183,0.9364 3.49201,2.42642 5.20026,3.6683 1.08768,0.33599 1.30382,-0.96792 0.37297,-1.35684 -0.82017,-0.84514 -1.84532,-1.44362 -2.77847,-2.14486 -0.85138,-0.79796 -0.0793,-2.0961 0.98087,-2.09312 0.68542,0.16843 2.11823,-0.77227 1.01691,-1.21687 -0.93251,-0.0394 -1.68525,0.63681 -2.56071,0.86303 -1.06419,0.40104 -2.14595,0.77765 -3.13644,1.34481 0.41867,-0.20523 1.05404,-1.22272 1.52129,-1.74663 0.61503,-0.79432 1.19747,-1.61774 1.68059,-2.49993 -1.44382,0.40022 -2.16525,2.12207 -3.7265,2.24143 -1.13523,-0.0343 -1.68536,-1.59429 -2.90152,-1.31046 -1.13713,0.17823 -0.28338,1.04656 0.32839,1.27804 1.10038,1.00291 2.29882,2.46894 3.97698,2.06653 z"
       style="opacity:1;fill:#7fff2a;stroke:#7fff2a;stroke-width:0.264999;stroke-linecap:round;stroke-opacity:0"
       id="path304" />
    <path
       d="m 149.53779,208.02442 c 1.51961,-3.98926 6.79135,-3.69601 10.12905,-2.50173 2.05283,0.60366 5.40277,2.66108 6.55928,2.59141 -2.45492,-1.73937 -5.46213,-2.68444 -8.37737,-3.32396 -3.03883,-0.37338 -8.20416,-0.67585 -9.05525,3.02191 l 0.15469,0.11557 0.5896,0.0968 z"
       style="opacity:1;fill:#7fff2a;stroke:#7fff2a;stroke-width:0.264999;stroke-linecap:round;stroke-opacity:1;fill-opacity:1"
       id="path318" />
    <path
       d="m 173.13648,213.37209 c 2.99135,2.24271 6.45764,3.76805 10.08513,4.63555 3.54082,1.01435 6.9979,2.33315 10.2465,4.07376 1.36232,0.50654 1.28149,-0.36837 0.0624,-0.5968 -3.99809,-1.73323 -8.1603,-3.02665 -12.35397,-4.19073 -2.59786,-0.85371 -5.15027,-2.06784 -7.19649,-3.90365 -0.26616,-0.15116 -0.56495,-0.0202 -0.84357,-0.0181 z"
       style="opacity:1;fill:#7fff2a;stroke:#7fff2a;stroke-width:0.264999;stroke-linecap:round;stroke-opacity:1;fill-opacity:1"
       id="path328" />
    <path
       d="m 194.40449,227.60107 c 1.77376,1.41842 1.79904,4.08744 0.83115,5.98174 -0.52644,1.166 -1.33616,2.1793 -2.22886,3.08569 1.08756,0.48586 2.29999,0.30608 2.59969,-0.9839 1.01544,-1.91327 1.98979,-4.2589 1.04064,-6.38941 -0.46368,-0.80782 -1.05347,-2.19513 -2.24262,-1.69412 z"
       style="opacity:1;fill:#ddff55;stroke:#ddff55;stroke-width:0.264999;stroke-linecap:round;stroke-opacity:0"
       id="path333" />
    <path
       d="m 198.28594,237.99703 c 1.21856,-0.7964 2.62687,-1.67648 2.9746,-3.20034 0.33919,-1.32655 0.0359,-2.79125 -0.71024,-3.92344 -0.36197,-0.3307 -1.1663,-1.48446 -1.43865,-0.57668 -0.19064,0.87423 0.29638,1.69091 0.3984,2.54649 0.27035,1.27657 -0.0207,2.68885 -0.93642,3.64905 -0.36211,0.55081 -1.24885,1.1115 -1.54071,1.37545 0.41768,0.0432 0.83533,0.0865 1.25302,0.12947 z"
       style="opacity:1;fill:#ddff55;stroke:#ddff55;stroke-width:0.264999;stroke-linecap:round;stroke-opacity:0"
       id="path340" />
    <path
       d="m 168.89828,215.27147 c 3.01781,0.25469 6.03901,2.08668 7.0851,5.02586 0.32102,0.70729 0.44955,2.66589 1.6149,1.94883 0.46021,-0.82122 -0.40528,-1.68543 -0.62894,-2.48001 -0.95698,-2.11862 -3.00357,-3.55472 -5.18379,-4.2152 -0.90519,-0.38684 -1.9253,-0.54623 -2.88727,-0.27948 z"
       style="opacity:1;fill:#7fff2a;stroke:#7fff2a;stroke-width:0.264999;stroke-linecap:round;stroke-opacity:1;fill-opacity:1"
       id="path345" />
    <path
       d="m 171.09995,219.81382 c 0.67747,1.74053 1.06892,3.81303 0.2421,5.56699 -0.98256,1.74979 -3.17927,2.07969 -5.0042,2.13807 -0.84028,-0.0109 -0.36732,0.003 0.0412,-0.0789 -0.7588,-0.013 -2.12491,-0.0511 -2.50806,0.005 0.8809,0.53978 2.03201,0.15477 3.02841,0.31838 1.78624,0.0146 3.83835,-0.10025 5.15939,-1.4611 1.06462,-1.52973 0.54361,-3.50294 0.27632,-5.20041 -0.25355,-1.00659 0.2978,-1.50068 -1.2352,-1.28769 z"
       style="opacity:1;fill:#ccff00;stroke:#ccff00;stroke-width:0.264999;stroke-linecap:round;stroke-opacity:0"
       id="path351" />
    <path
       d="m 137.22259,212.34844 c 5.17424,3.17347 8.71243,8.63026 14.55122,10.80235 7.38256,3.39736 15.45289,5.49373 23.57008,5.94601 2.23399,0.16677 8.46149,-0.3446 3.10005,-0.34942 -7.36671,0.5697 -14.52048,-1.97661 -21.48964,-4.00652 -6.4693,-2.21447 -11.81374,-6.59512 -16.72226,-11.20758 -0.86742,-0.65604 -1.89949,-1.16909 -3.00945,-1.18484 z"
       style="opacity:1;fill:#ccff00;stroke:#ccff00;stroke-width:0.264999;stroke-linecap:round;stroke-opacity:0"
       id="path357" />
    <path
       d="m 180.36228,219.49244 c 1.28308,1.04838 1.81548,2.74976 1.8197,4.36122 0.0673,0.60845 -0.13535,1.3276 0.34491,1.81394 0.30883,0.0585 0.41682,0.87345 0.55683,0.26431 0.45549,-0.32804 0.72022,-0.82357 0.57441,-1.40052 -0.19416,-1.54159 -0.48593,-3.1806 -1.54016,-4.39131 -0.24382,-0.51019 -0.66688,-0.94241 -1.26778,-0.68471 -0.16263,0.0124 -0.32532,0.0248 -0.48791,0.0371 z"
       style="opacity:1;fill:#d4ff2a;stroke:#d4ff2a;stroke-width:0.264999;stroke-linecap:round;stroke-opacity:0"
       id="path363" />
    <path
       d="m 184.77386,219.90589 c 0.92634,0.96182 1.56096,2.17561 2.05763,3.4027 0.56083,1.59587 0.44354,3.3531 -0.13757,4.92517 -0.28119,0.61834 -0.79406,2.04599 0.44235,1.78191 0.82335,-0.21937 0.87831,-1.12368 1.09893,-1.79786 0.41973,-1.55549 0.76993,-3.33777 -0.12253,-4.80357 -0.54576,-1.01457 -1.0601,-2.04911 -1.78098,-2.95514 -0.28966,-0.84617 -0.85394,-0.57945 -1.55783,-0.55321 z"
       style="opacity:1;fill:#ddff55;stroke:#ddff55;stroke-width:0.264999;stroke-linecap:round;stroke-opacity:0"
       id="path368" />
    <path
       d="m 104.41076,190.06394 c -2.33988,-2.83576 -5.324694,-6.69853 -3.81103,-10.5468 1.54248,-2.68299 4.92287,-2.41092 7.51093,-1.84452 4.29135,0.65908 8.21879,2.64852 11.80214,5.00448 3.8365,1.74532 8.03056,2.61398 12.16149,3.27921 1.77977,-0.71551 -3.0884,-0.68584 -3.88275,-1.19243 -4.21563,-0.8319 -8.11626,-2.69399 -11.72299,-4.97571 -4.40229,-2.11916 -9.46643,-3.13764 -14.32532,-2.56238 -3.77332,0.54202 -4.452629,5.16569 -2.625247,7.93304 1.311197,1.64651 2.213277,5.50502 4.892777,4.90511 z"
       style="opacity:1;fill:#ddff55;stroke:#ddff55;stroke-width:0.264999;stroke-linecap:round;stroke-opacity:0"
       id="path373" />
    <path
       d="m 106.25203,189.64924 c -2.34879,-1.98183 -3.81783,-5.92633 -2.10789,-8.67539 1.67316,-1.65591 3.94919,-0.76654 5.86549,-0.16388 5.17998,1.89151 10.54559,3.25473 15.88681,4.60123 3.08515,0.39789 -1.22286,-0.95319 -2.20897,-1.07013 -4.85404,-1.16367 -9.61492,-2.66186 -14.35095,-4.21982 -2.62579,-0.87358 -7.12768,-0.72567 -7.30872,2.89555 -0.10575,2.35405 0.98651,4.69872 2.5512,6.40446 0.46592,0.3917 1.12212,0.44113 1.67303,0.22798 z"
       style="opacity:1;fill:#ddff55;stroke:#ddff55;stroke-width:0.264999;stroke-linecap:round;stroke-opacity:0"
       id="path379" />
    <path
       d="m 126.66954,191.71984 c -2.38772,-0.0128 -4.78375,-0.30168 -7.16646,-0.0482 -0.52256,0.002 -1.30183,0.72329 -0.73938,1.16686 0.56877,0.007 1.30717,0.23029 1.75442,-0.24809 0.24716,-0.53405 0.86432,-0.65475 1.39309,-0.67372 0.25047,-0.0255 0.85046,-0.052 0.2777,-0.0452 -0.43932,-0.002 -0.87862,-0.004 -1.31794,-0.005 1.44692,0.002 2.89552,0.12494 4.34079,0.0778 0.48562,-0.0764 0.97195,-0.15065 1.45778,-0.22428 z"
       style="opacity:1;fill:#ddff55;stroke:#ddff55;stroke-width:0.264999;stroke-linecap:round;stroke-opacity:0"
       id="path385" />
    <path
       d="m 122.71061,194.59497 c 1.0339,-0.99146 2.54545,-1.23192 3.92494,-1.17361 -0.57526,0.007 -0.65805,0.0432 -0.002,0.0808 2.39442,0.25327 4.894,0.70102 6.88597,2.13683 0.50699,0.58465 2.36178,0.19485 1.0505,-0.38071 -2.14088,-1.0199 -4.43171,-1.80797 -6.82015,-1.92071 -1.93551,-0.19604 -4.07959,-0.25777 -5.73525,0.93258 -0.62197,0.43154 0.50478,0.22491 0.69631,0.32478 z"
       style="opacity:1;fill:#ccff00;stroke:#ccff00;stroke-width:0.264999;stroke-linecap:round;stroke-opacity:1;fill-opacity:1"
       id="path390" />
    <path
       d="m 110.03604,188.39849 c 2.17086,12.36422 11.07379,22.51648 22.2114,27.85668 20.99122,14.97913 45.95631,21.98255 69.5702,31.51213 6.79103,3.39394 23.68454,-1.87849 22.50511,-4.62412 -9.41387,7.35143 -22.06988,5.67967 -31.91572,0.2555 -19.06733,-7.25934 -38.8356,-13.48774 -55.73099,-25.24783 -9.80034,-5.15975 -20.17801,-11.6466 -23.44424,-22.9554 -0.97737,-2.30441 -1.88093,-4.65549 -3.19576,-6.79696 z"
       style="opacity:1;fill:#d4ff2a;stroke:#ffcc00;stroke-width:0.264999;stroke-linecap:round;stroke-opacity:0"
       id="path395" />
    <path
       d="m 108.4184,190.31211 c 5.73498,9.688 9.70175,22.24094 21.62746,25.98288 9.06527,3.2273 15.28381,10.881 23.92351,14.7114 13.04921,5.80296 26.59803,10.43718 39.31391,16.99488 10.18639,4.62382 24.41246,7.14956 32.65793,-2.33101 -2.13962,-1.07926 -9.86873,8.76583 -16.36803,6.37557 -15.81518,-1.95132 -29.03457,-11.84217 -44.0001,-16.58552 -11.86834,-2.962 -20.47158,-11.67533 -30.86054,-17.31874 -9.21799,-3.59405 -17.53764,-9.88838 -20.86293,-19.53283 -1.45257,-2.9585 -2.76448,-6.20032 -5.43121,-8.29663 z"
       style="opacity:1;fill:#d4ff2a;stroke:#ffcc00;stroke-width:0.264999;stroke-linecap:round;stroke-opacity:0"
       id="path401" />
    <path
       d="m 221.21555,233.0378 c 3.2529,1.94393 5.7346,4.95132 7.81449,8.06603 1.72846,2.78518 2.25667,6.34693 0.95788,9.41266 -0.33563,1.37134 -1.78175,2.85295 -1.3244,4.15716 1.8307,-0.93412 2.26505,-3.12012 2.82069,-4.91308 0.96718,-3.59403 -0.57242,-7.31247 -2.83132,-10.08875 -1.97929,-2.40777 -3.97205,-4.87341 -6.50068,-6.73292 -0.31222,0.0329 -0.62448,0.0665 -0.93666,0.0989 z"
       style="opacity:1;fill:#7fff2a;stroke:#ffcc00;stroke-width:0.264999;stroke-linecap:round;stroke-opacity:0"
       id="path406" />
    <path
       d="m 224.31487,239.35617 c 1.34546,1.67794 1.74951,4.02431 1.29353,6.09194 -0.99398,2.08925 -3.2188,3.14271 -5.09601,4.29368 -2.09789,1.16283 -4.30144,2.16638 -6.62749,2.77589 -0.54896,0.45058 -2.88502,0.86646 -1.03446,0.61612 4.02249,-0.61143 7.72236,-2.50376 11.17119,-4.58562 1.36613,-0.90895 2.96964,-2.07924 2.8969,-3.91834 -0.0206,-1.66388 -0.41783,-3.33922 -1.08231,-4.85707 -0.30072,-0.63705 -0.96425,-0.44076 -1.52135,-0.4166 z"
       style="opacity:1;fill:#e5ff80;stroke:#d4ff2a;stroke-width:0.264999;stroke-linecap:round;stroke-opacity:0"
       id="path413" />
    <path
       d="m 224.37799,248.39255 c -4.27317,4.90742 -11.46639,4.09841 -17.29498,3.44019 -11.12378,-1.42164 -21.53031,-5.93166 -31.43776,-10.97731 -1.87184,-1.08492 -5.43649,-1.48436 -1.68493,0.18095 8.45912,4.0099 16.99012,8.13303 26.2368,9.99684 6.65975,1.38722 13.63222,2.19442 20.36407,0.91339 0.87356,0.0879 7.0618,-3.26476 3.8168,-3.55406 z"
       style="opacity:1;fill:#d4ff2a;stroke:#ffcc00;stroke-width:0.264999;stroke-linecap:round;stroke-opacity:0"
       id="path418" />
    <path
       d="m 137.82308,199.78876 c 2.46313,-0.9897 5.12696,0.17435 7.58347,-0.17362 -0.85489,-1.26112 -3.20426,-2.58885 -5.0045,-2.75361 -1.46663,0.2607 1.82859,0.32952 2.46839,0.50462 7.542,0.92848 15.2656,3.00648 21.25136,7.88765 0.81827,0.87075 3.27458,0.0321 1.08361,-0.58988 -6.1064,-3.50545 -12.71897,-6.4362 -19.78494,-7.24296 -1.84132,0.088 -5.19853,-1.6743 -6.21804,-0.47011 1.94611,0.66394 3.56707,1.98739 5.45181,2.73583 1.51957,0.0939 1.30857,-0.26183 -0.0753,-0.22056 -2.5452,-0.18447 -5.15149,-0.42694 -7.65668,0.20669 l 0.45042,0.0578 0.4504,0.0579 z"
       style="opacity:1;fill:#d4ff2a;stroke:#d4ff2a;stroke-width:0.264999;stroke-linecap:round;stroke-opacity:0"
       id="path425" />
    <path
       d="m 144.98114,192.59381 c 11.71944,4.06142 21.87361,11.42383 33.19562,16.34144 6.95826,2.39922 14.08491,4.56521 20.19549,8.84204 5.63147,3.95301 12.17581,6.88981 16.36605,12.54816 1.77205,2.44928 5.78948,3.40666 1.96775,-0.0668 -8.02924,-7.30739 -17.18991,-13.577 -27.15503,-17.90935 -7.89094,-2.57557 -15.80908,-5.27869 -22.80947,-9.84908 -6.79677,-3.47931 -13.52271,-7.25624 -20.64424,-9.98777 z"
       style="opacity:1;fill:#d4ff2a;stroke:#ffcc00;stroke-width:0.264999;stroke-linecap:round;stroke-opacity:0"
       id="path430" />
    <path
       d="m 152.84134,194.32044 c 8.91046,3.98196 18.31138,6.72876 27.27961,10.57773 7.73926,2.47064 15.17883,5.72773 22.15438,9.90217 6.34363,3.13471 12.4717,7.36161 15.31821,14.1051 1.14178,3.2429 8.32692,5.9855 2.89614,1.57237 -4.01096,-5.67553 -8.19525,-11.46153 -14.73826,-14.40076 -8.82417,-5.52795 -18.47628,-9.46945 -28.33878,-12.70287 -7.42418,-3.01877 -15.11521,-5.47218 -22.48491,-8.53426 -0.59984,-0.37518 -1.35873,-0.72012 -2.08639,-0.51948 z"
       style="opacity:1;fill:#d4ff2a;stroke:#ffcc00;stroke-width:0.264999;stroke-linecap:round;stroke-opacity:0"
       id="path435" />
    <path
       d="m 148.85343,192.42635 c 3.76538,1.11269 7.26846,2.93908 10.8794,4.44974 3.50382,1.63523 6.60229,3.96322 9.69144,6.24979 1.2053,0.53636 3.16282,2.30374 4.23099,1.31866 -1.8259,-0.71874 -3.62476,-1.69328 -5.19697,-2.93063 -3.54371,-2.73642 -7.72006,-4.45571 -11.76241,-6.30814 -2.35242,-0.96704 -4.6612,-2.08796 -7.08782,-2.84531 -0.25206,-0.035 -0.51291,-0.016 -0.75463,0.0659 z"
       style="opacity:1;fill:#d4ff2a;stroke:#ffcc00;stroke-width:0.264999;stroke-linecap:round;stroke-opacity:0"
       id="path440" />
    <path
       d="m 181.38252,207.94635 c 7.56979,1.09826 13.62775,6.30355 20.77216,8.67261 8.43821,3.7422 14.81239,10.60782 21.3933,16.85041 6.64364,7.03131 9.41744,17.71462 6.82379,27.05152 4.22956,-0.37483 2.09668,-8.60881 1.97135,-11.9481 -1.41069,-8.13108 -6.35778,-15.23261 -12.82731,-20.20021 -5.31674,-5.2097 -11.12016,-10.12969 -18.18963,-12.75974 -6.31795,-2.45119 -11.98446,-6.92179 -18.82636,-7.75163 z"
       style="opacity:1;fill:#7fff2a;stroke:#ffcc00;stroke-width:0.264999;stroke-linecap:round;stroke-opacity:0"
       id="path447" />
    <path
       d="m 240.04383,240.6584 c 3.61733,2.86996 6.04148,6.88925 9.02369,10.34867 1.75056,2.67611 2.61078,6.22771 1.28974,9.26298 -1.81075,2.25245 -4.95183,2.47627 -7.5929,2.97852 -1.27339,0.30146 -4.43739,-0.20653 -4.46485,-0.23372 4.10487,1.05269 8.55748,0.30775 12.36856,-1.40118 2.43143,-1.73603 1.75512,-5.11135 0.92874,-7.52826 -1.50416,-3.98579 -4.82881,-6.8205 -7.35693,-10.13586 -1.31356,-1.06428 -2.20912,-3.74906 -4.19605,-3.29115 z"
       style="opacity:1;fill:#7fff2a;stroke:#ffcc00;stroke-width:0.264999;stroke-linecap:round;stroke-opacity:0"
       id="path452" />
    <path
       d="m 98.413971,168.61674 c -6.508777,-0.96227 -13.163073,-2.63142 -19.738269,-1.47292 -5.671128,1.29193 -5.966221,8.34289 -4.61714,12.90037 1.343564,5.88098 5.47061,10.59896 10.525248,13.67701 6.220435,4.17251 11.609851,9.4563 17.96893,13.45148 3.18472,1.73109 7.42083,5.87704 10.22514,5.81199 -9.27545,-4.59675 -16.843955,-11.78281 -25.081531,-17.91104 -5.127134,-3.2705 -10.327536,-7.30097 -11.985136,-13.47869 -1.577175,-4.71127 -1.532857,-11.81648 3.787579,-14.08843 5.645853,-1.42013 11.389775,0.53617 16.99401,1.21381 0.641618,0.0253 1.286481,-0.003 1.921169,-0.10358 z"
       style="opacity:1;fill:#7fff2a;stroke:#ffcc00;stroke-width:0.264999;stroke-linecap:round;stroke-opacity:0"
       id="path458" />
    <path
       d="m 83.545658,164.8208 c -2.136108,-0.58562 -4.373974,-0.58938 -6.569998,-0.72588 -1.300119,0.005 -2.648815,-0.17846 -3.909525,0.20547 -1.413242,0.4953 -1.748561,2.1353 -1.886508,3.44833 -0.613423,1.23906 1.36916,2.25626 1.752141,0.79961 -0.120193,-1.30299 0.12012,-2.88177 1.251887,-3.7078 0.338474,-0.35771 1.628295,-0.46473 1.517294,-0.49921 -0.549161,-0.0216 -0.725991,-0.0104 -0.08161,-5.5e-4 1.857493,0.0817 3.729448,0.17697 5.561756,0.4877 0.788726,0.30441 1.564085,0.0812 2.364566,-0.008 z"
       style="opacity:1;fill:#7fff2a;stroke:#ffcc00;stroke-width:0.264999;stroke-linecap:round;stroke-opacity:0"
       id="path463" />
    <path
       d="m 87.315102,175.63214 c -1.150775,0.18817 -1.709887,1.40322 -1.648574,2.47072 -0.122498,2.39964 1.1788,4.54511 2.664038,6.31887 1.645205,2.09315 3.446513,4.12032 5.651017,5.63646 -0.159025,-0.28379 -1.739167,-1.33487 -2.303935,-1.99501 -1.812952,-1.84383 -3.63377,-3.76701 -4.845879,-6.07278 -0.801733,-1.57946 -1.144387,-3.53533 -0.437634,-5.20084 0.05737,-0.59934 2.37101,-1.20919 0.920967,-1.15742 z"
       style="opacity:1;fill:#7fff2a;stroke:#ffcc00;stroke-width:0.264999;stroke-linecap:round;stroke-opacity:0"
       id="path468" />
    <path
       d="m 163.14002,151.35845 c 1.16995,1.36462 3.46741,1.86281 5.03191,0.92213 1.31907,-1.83599 -1.86815,-0.22597 -2.18454,0.74173 -0.5456,1.38952 -3.45138,1.71637 -2.74685,3.36838 1.46601,-0.61554 3.58791,-3.25188 4.99324,-0.80462 0.26332,1.47695 2.27445,0.13756 0.61248,-0.27663 -1.08841,-0.73639 -2.29925,-2.84418 -3.75694,-2.01408 1.05661,1.35529 3.04921,3.85102 4.76585,2.99548 0.002,-1.91695 -2.91485,-2.65549 -4.53072,-2.20651 -1.38185,-0.27947 -3.1936,2.70716 -0.96908,1.95499 1.4128,-1.4653 3.10841,-2.90787 4.30849,-4.42714 -1.59346,1.11273 -3.83671,1.27637 -5.27357,-0.25093 -0.0832,-6.3e-4 -0.16739,-0.003 -0.25027,-0.003 z"
       style="opacity:1;fill:#80ffe6;stroke:#ffcc00;stroke-width:0.264999;stroke-linecap:round;stroke-opacity:0"
       id="path473" />
    <path
       d="m 142.04443,264.41083 c 0.33665,1.37583 0.7096,2.84119 1.7277,3.88495 0.35583,0.26834 0.46875,0.31153 -0.002,0.48566 -0.50277,0.60658 -0.68129,1.52364 -0.90532,2.21096 0.66,0.14463 1.7778,-0.0135 1.20906,-0.92276 -0.21638,-0.68815 0.11363,-1.45267 -0.17973,-2.11895 -0.62967,-0.62735 -1.48183,-1.1923 -2.33889,-1.36409 -0.25891,0.54794 -1.13865,0.0824 -1.6574,0.24328 1.10473,0.008 2.013,0.81663 3.10651,0.8246 0.47505,0.23029 1.54996,-0.28487 0.56225,-0.52666 -0.97125,-0.48017 -2.05182,-0.68681 -3.13324,-0.61764 -0.34327,-0.10824 -1.57562,0.0541 -0.76518,0.41564 1.01621,0.38063 2.29053,0.6941 2.84268,1.71385 0.56485,0.68827 -0.16229,2.05822 0.71033,2.37166 0.47988,0.0112 1.43447,0.21068 0.98553,-0.59619 -0.11248,-0.83329 0.61947,-1.39818 1.15065,-1.92742 -1.32033,0.004 -2.18701,-1.292 -2.47741,-2.44882 -0.36625,-0.63668 0.3266,-1.99821 -0.83579,-1.62807 z"
       style="opacity:1;fill:#80ffe6;stroke:#80ffe6;stroke-width:0.264999;stroke-linecap:round;stroke-opacity:1;fill-opacity:1"
       id="path486" />
    <path
       d="m 231.51649,182.61684 c 0.29154,1.13531 -0.24186,2.27765 -0.83808,3.21681 0.10175,0.49495 0.82322,0.016 1.19652,0.0649 0.54963,-0.11518 0.63295,-0.80657 1.02356,-1.14384 0.36642,-0.45515 0.78193,-0.87021 1.23307,-1.24131 0.38333,0.008 0.45983,-0.43792 0.028,-0.33532 -0.57034,-0.0363 -1.14092,0.0183 -1.71148,0.0155 0.71305,0.0394 1.42502,0.13123 2.14035,0.10318 -0.67092,-0.19942 -1.3912,-0.21989 -2.06909,-0.0399 -0.41839,-0.009 -1.0502,0.23864 -0.36267,0.47035 0.39694,0.0756 0.78948,0.39175 1.16011,0.37328 0.4275,-0.33671 0.17774,-1.02826 -0.40218,-0.78136 -0.35674,0.0324 -1.08448,0.0129 -1.21091,0.0561 0.88592,0.15379 1.7887,0.0444 2.68267,0.0701 0.38489,0.0155 -0.47077,0.0377 -0.62575,-0.0163 -0.34425,0.073 -0.88639,-0.33184 -0.89362,0.11791 -0.32068,0.44146 -0.7449,0.79853 -1.09498,1.21816 -0.19631,0.36718 -0.82951,0.62265 -0.83144,1.00468 0.36555,0.18408 1.05377,0.59814 1.19459,-0.0471 0.16403,-1.03384 0.25518,-2.0803 0.39703,-3.11839 -0.33855,0.004 -0.67712,0.008 -1.01565,0.0126 z"
       style="opacity:1;fill:#80ffe6;stroke:#80ffe6;stroke-width:0.264999;stroke-linecap:round;stroke-opacity:1;fill-opacity:1"
       id="path492" />
    <path
       d="m 236.07386,179.11362 c 0.94078,0.57703 1.85058,1.22066 2.61512,2.02094 0.40489,0.32048 1.13045,0.5362 1.51017,0.0744 0.20907,-0.40001 0.10088,-0.87637 0.22525,-1.30293 0.0956,-0.51696 0.23795,-1.02839 0.46314,-1.50476 -0.14924,-0.367 -0.68191,0.002 -0.98686,-0.0297 -0.53855,-0.0254 -0.86706,0.34852 -1.15913,0.75127 -0.68263,0.7461 -1.32692,1.53426 -2.02986,2.25688 -0.18228,0.297 0.14232,0.5838 0.18775,0.84674 0.30308,-0.2871 0.73438,-0.34131 1.0895,-0.54412 0.33814,-0.28666 0.50443,-0.72035 0.80983,-1.04006 0.51232,-0.66554 1.04305,-1.3293 1.70216,-1.85696 0.57474,-0.28002 -0.41837,-0.32971 -0.6543,-0.34028 -0.53862,-0.20879 -0.14276,0.46591 -0.36199,0.77157 -0.097,0.58457 -0.24127,1.16792 -0.5011,1.70367 -0.16338,0.1119 -0.38561,0.29095 -0.02,0.19237 0.37993,-0.0331 0.76153,-0.0355 1.14242,-0.0491 -0.74111,-0.29952 -1.40185,-0.76942 -2.05109,-1.22989 -0.36336,-0.22945 -0.66161,-0.61706 -1.01403,-0.80896 -0.32232,0.0296 -0.64487,0.059 -0.96702,0.089 z"
       style="opacity:1;fill:#80ffe6;stroke:#80ffe6;stroke-width:0.264999;stroke-linecap:round;stroke-opacity:1;fill-opacity:1"
       id="path498" />
    <path
       d="m 254.69593,149.50893 c -0.97903,0.81291 -2.0283,1.53594 -3.07616,2.25492 -0.24846,0.0596 -0.38746,0.0544 -0.0475,0.0731 0.57751,0.0251 1.15688,-0.004 1.73011,-0.0769 -0.23612,-0.45125 -0.23879,-0.99547 -0.47095,-1.44008 -0.4135,-0.0455 -0.8613,-0.009 -1.28244,0.0552 -0.51078,0.0628 0.34208,0.34623 0.4408,0.58204 0.48604,0.5118 0.98297,1.0296 1.34253,1.63854 0.28046,0.33607 0.76173,0.23738 1.14643,0.24206 0.43587,0.0204 0.69224,-0.27416 0.23801,-0.52677 -0.49623,-0.44815 -0.92396,-0.97064 -1.35341,-1.4831 -0.22453,-0.33528 -0.46777,-0.72479 -0.94366,-0.60135 -0.42217,-0.0232 -0.84582,-0.008 -1.26873,-0.0223 -0.006,0.51624 0.25681,1.00038 0.23957,1.51237 0.35983,0.2878 0.89104,0.26275 1.32144,0.41894 0.31678,0.0941 0.76168,0.12808 0.7092,-0.33511 0.40699,-0.43703 0.88298,-0.86745 1.35578,-1.26046 0.32614,-0.32974 1.11378,-0.71304 1.22598,-0.89941 -0.43557,-0.0438 -0.87182,-0.0893 -1.30698,-0.13163 z"
       style="opacity:1;fill:#80ffe6;stroke:#80ffe6;stroke-width:0.264999;stroke-linecap:round;stroke-opacity:1;fill-opacity:1"
       id="path503" />
    <path
       d="m 251.33435,156.96723 c 0.63837,0.36178 1.2432,0.78641 1.77767,1.28991 0.27851,0.21796 0.64942,0.17312 0.96012,0.0608 0.22551,-0.12109 0.81538,-0.0612 0.56173,-0.43634 -0.13096,-0.2651 -0.007,-0.55759 -0.006,-0.83604 0.11821,-0.24626 0.0978,-0.69364 -0.29091,-0.53677 -0.36368,0.01 -0.72873,0.0112 -1.08985,0.0605 -0.57836,0.46862 -1.20242,0.87737 -1.82508,1.28219 -0.14679,0.30258 0.27495,0.6976 0.56073,0.41657 0.42196,-0.10609 0.92141,-0.13604 1.22236,-0.49739 0.34682,-0.33369 0.66657,-0.70669 1.08434,-0.95562 0.40025,-0.12085 -0.16725,-0.15521 -0.31143,-0.14237 -0.15499,-0.009 -0.56951,0.0199 -0.56025,-0.0144 0.34706,0.0917 0.0721,0.56243 0.0655,0.8078 0.0352,0.23753 -0.45076,0.70738 0.0295,0.64886 0.39468,7e-4 0.78978,-0.0299 1.18521,-0.0287 -0.29867,0.0176 -0.52603,-0.23374 -0.79617,-0.32629 -0.47107,-0.25188 -0.92371,-0.54576 -1.31453,-0.91196 -0.41759,0.0401 -0.83562,0.078 -1.25296,0.11929 z"
       style="opacity:1;fill:#80ffe6;stroke:#80ffe6;stroke-width:0.264999;stroke-linecap:round;stroke-opacity:1;fill-opacity:1"
       id="path508" />
    <path
       d="m 261.66504,146.763 c -0.77761,0.50425 -1.65121,0.83445 -2.45833,1.28194 -0.0437,0.20529 0.4393,0.009 0.59895,0.0173 0.3765,-0.0634 0.75021,-0.14194 1.12416,-0.21868 0.12411,-0.26791 0.13987,-0.57274 0.27917,-0.83677 0.14544,-0.35144 0.24627,-0.74878 0.10621,-1.11823 0.0568,-0.25866 -0.11249,-0.48206 -0.36631,-0.27696 -0.28922,0.14003 -0.80116,0.21959 -0.95813,0.38035 0.45766,0.37526 0.86318,0.81039 1.24999,1.25685 0.25394,0.44024 0.79233,0.53389 1.24975,0.61571 0.41446,0.007 0.53818,-0.53473 0.1099,-0.65208 -0.40311,-0.31388 -0.73289,-0.71055 -1.05623,-1.10307 -0.0976,-0.35936 -0.49123,-0.28405 -0.77212,-0.36085 -0.32251,-0.0231 -0.70787,-0.24826 -0.99067,-0.13908 0.0574,0.36493 0.0942,0.73458 0.17841,1.10347 0.0858,0.38201 -0.0968,0.72983 -0.31738,1.0171 0.2409,0.23104 0.6496,0.38573 0.99612,0.4507 0.33601,-0.0289 0.56421,-0.32901 0.85888,-0.46578 0.48542,-0.3072 0.97933,-0.61648 1.53004,-0.79307 -0.45413,-0.053 -0.90831,-0.10563 -1.36241,-0.15884 z"
       style="opacity:1;fill:#80ffe6;stroke:#80ffe6;stroke-width:0.264999;stroke-linecap:round;stroke-opacity:1;fill-opacity:1"
       id="path513" />
    <path
       d="m 276.25013,147.94332 c 0.6839,0.41627 1.28459,0.96542 1.76045,1.60764 0.34893,0.2498 0.77677,4.6e-4 1.15003,-0.0536 0.31965,-0.0459 0.64831,-0.0734 0.55866,-0.4849 0.0397,-0.43104 0.18657,-0.84846 0.35024,-1.24644 0.13846,-0.26074 0.35648,-0.3275 0.10019,-0.59309 -0.37624,-0.35099 -0.93291,-0.14611 -1.35324,0.009 -1.03075,0.40609 -1.91304,1.09421 -2.87207,1.63361 -0.23232,0.20392 0.34948,0.18327 0.28647,0.46569 0.14377,0.14742 0.42137,-0.19698 0.43582,-0.0428 0.37952,-0.0349 0.77397,-0.11197 1.11039,-0.29459 0.3557,-0.29882 0.73134,-0.56247 1.13333,-0.79449 0.36257,-0.23774 0.73283,-0.48557 1.15957,-0.59012 -0.50702,-0.13411 -1.04229,-0.0517 -1.55465,0.0157 0.30268,-0.38156 0.18238,0.46323 0.0337,0.61566 -0.14394,0.35368 -0.26774,0.70964 -0.47823,1.02893 0.26373,0.13504 0.74402,0.0789 1.09038,0.15013 0.22926,0.0141 0.74811,0.0934 0.79457,0.0502 -0.37712,-0.11917 -0.74319,-0.27181 -1.05083,-0.52651 -0.45597,-0.32092 -0.89413,-0.67078 -1.28103,-1.07342 -0.45787,0.0413 -0.91598,0.0808 -1.3737,0.12305 z"
       style="opacity:1;fill:#80ffe6;stroke:#80ffe6;stroke-width:0.264999;stroke-linecap:round;stroke-opacity:1;fill-opacity:1"
       id="path518" />
    <path
       d="m 245.57786,196.4564 c -0.41369,1.10656 -1.22909,1.98834 -1.99232,2.86487 -0.39724,0.21705 -0.0866,0.42427 0.21481,0.27471 0.38051,-0.0962 1.05483,0.0279 1.25192,-0.16705 -0.2781,-0.86503 -0.25514,-1.78799 -0.40688,-2.6745 -0.37996,-0.12231 -0.84111,0.0195 -1.25435,0.0194 -0.28782,0.16676 0.52973,0.38482 0.64848,0.61841 0.54517,0.46932 1.08839,0.9508 1.50803,1.53877 0.31214,0.43305 0.89516,0.16504 1.30455,0.39101 0.24458,-0.18876 0.76581,-0.36341 0.19786,-0.64035 -0.77452,-0.60864 -1.52259,-1.26152 -2.1581,-2.01659 -0.43091,-0.15015 -0.90436,-0.0829 -1.33504,-0.24043 -0.66862,-0.14059 -0.56414,0.57274 -0.42255,0.9789 0.12948,0.67026 0.28634,1.35831 0.1699,2.04262 0.37131,0.21661 0.82999,0.10173 1.22274,0.26469 0.67678,0.26684 0.70908,-0.60017 1.00051,-0.98664 0.4048,-0.75641 0.80562,-1.52013 1.31992,-2.21002 -0.42315,-0.0193 -0.84638,-0.0379 -1.26948,-0.0578 z"
       style="opacity:1;fill:#80ffe6;stroke:#80ffe6;stroke-width:0.264999;stroke-linecap:round;stroke-opacity:1;fill-opacity:1"
       id="path523" />
    <path
       d="m 259.03418,199.87208 c 0.41799,0.40401 0.49173,1.36722 1.23922,1.27478 0.55161,-0.12455 1.19207,-0.008 1.66789,-0.35232 0.2588,-0.41049 1.0713,-0.69903 0.85385,-1.26163 -0.52575,-0.27014 -1.25531,-0.10574 -1.85662,-0.12017 -0.60119,0.2024 -1.14403,0.55751 -1.70272,0.8576 -0.28787,0.21916 -1.03422,0.43317 -0.44827,0.76693 0.25603,0.29985 0.8086,-0.21977 1.22259,-0.10006 0.77786,-0.29283 1.34653,-0.98604 2.16587,-1.20013 0.6351,-0.16078 -0.48478,-0.14757 -0.72705,-0.1377 -0.3999,-0.11531 0.015,0.46025 -0.35004,0.59769 -0.19788,0.2156 -0.91495,0.71199 -0.25229,0.6663 0.27096,-0.0304 0.87079,0.2207 0.32452,-0.0252 -0.42177,-0.2638 -0.33856,-1.08328 -0.94538,-1.05085 -0.39755,0.0687 -0.78977,0.0727 -1.19157,0.0847 z"
       style="opacity:1;fill:#80ffe6;stroke:#80ffe6;stroke-width:0.264999;stroke-linecap:round;stroke-opacity:1;fill-opacity:1"
       id="path529" />
    <path
       d="m 296.83376,194.55905 c -0.30481,0.20936 -1.44505,0.0647 -1.04911,0.64355 0.63305,0.44075 1.42151,0.61205 2.03958,1.08349 -0.10248,0.24787 -0.87028,0.22739 -0.70157,0.38817 0.91621,-0.13381 1.82447,-0.33713 2.72402,-0.54519 0.067,-0.46017 -0.40669,-0.88958 -0.45893,-1.379 -0.29363,-0.45334 -0.96581,-0.17776 -1.42123,-0.37413 -0.43158,-0.13801 -1.03502,-0.0548 -1.16451,0.4532 0.0491,0.31212 0.55111,0.39363 0.55182,0.56595 0.37578,-0.32929 0.92875,-0.0866 1.34441,-0.33837 0.21022,-0.11411 0.78058,-0.38354 0.77047,-0.33974 -0.82466,0.09 -1.65543,0.0655 -2.48336,0.0654 0.15315,0.45257 0.32345,0.90899 0.52097,1.33587 0.42453,0.22016 0.94281,0.073 1.40697,0.15811 0.57023,0.03 1.14163,0.0446 1.71254,0.0279 -0.51227,-0.22117 -1.1107,-0.0301 -1.61651,-0.30676 -0.66872,-0.27265 -1.34341,-0.55817 -1.96235,-0.92859 0.0982,-0.21523 0.99319,-0.16552 0.91188,-0.37336 -0.37504,-0.0454 -0.75022,-0.09 -1.12509,-0.13651 z"
       style="opacity:1;fill:#80ffe6;stroke:#80ffe6;stroke-width:0.264999;stroke-linecap:round;stroke-opacity:1;fill-opacity:1"
       id="path536" />
    <path
       d="m 311.24583,207.67259 c -0.20455,0.64349 -0.46616,1.28458 -0.89975,1.81031 -0.25524,0.09 -0.38532,0.53265 0.021,0.32698 0.36924,-0.14975 1.0487,-0.20678 1.2084,-0.45777 -0.25609,-0.47162 -0.23767,-1.03751 -0.49908,-1.50922 0.0859,0.27902 -0.50012,-0.0534 -0.7279,0.028 -0.24677,-0.0124 -0.95962,0.054 -0.3824,0.20103 0.55363,0.23224 0.96299,0.69309 1.46749,0.99813 0.44029,0.171 0.93691,0.12529 1.39097,0.0438 0.47411,-0.24054 -0.34549,-0.44705 -0.50086,-0.62758 -0.68367,-0.45137 -1.36342,-0.99507 -2.19311,-1.13053 -0.45692,-0.102 -0.92745,0.40552 -0.60802,0.82002 0.2083,0.34839 0.48576,0.65659 0.59298,1.05741 0.12039,0.43564 0.68143,0.34743 1.01642,0.53022 0.27454,0.19284 0.78148,0.15163 0.57688,-0.28966 0.0171,-0.43081 0.2286,-0.82847 0.39437,-1.21878 0.0769,-0.2399 0.50045,-0.64495 0.001,-0.54676 -0.28623,-0.0121 -0.57268,-0.0242 -0.85879,-0.0356 z"
       style="opacity:1;fill:#80ffe6;stroke:#80ffe6;stroke-width:0.264999;stroke-linecap:round;stroke-opacity:1;fill-opacity:1"
       id="path542" />
    <path
       d="m 296.83919,241.46301 c -0.34747,0.83828 -1.02236,1.4716 -1.6117,2.13944 -0.19099,0.12997 -0.67279,0.54083 -0.15334,0.44351 0.46121,-0.0626 0.92619,-0.0914 1.39023,-0.12675 0.08,-0.57704 0.3575,-1.1 0.4922,-1.66298 -0.10399,-0.0865 -0.52566,0.0125 -0.74995,-0.007 -0.28297,0.0113 -0.56597,0.0252 -0.84797,0.0519 0.49964,0.0328 0.7666,0.57024 1.2596,0.6336 0.38478,0.076 0.7958,0.18176 1.15287,-0.0317 0.40289,-0.25096 -0.21728,-0.4626 -0.36336,-0.66541 -0.23045,-0.28194 -0.60468,-0.22043 -0.92247,-0.25146 -0.38424,0.0327 -0.92795,-0.3247 -1.20752,0.0471 -0.21908,0.5987 -0.15883,1.26443 -0.38645,1.86303 0.51086,0.069 1.00282,0.2495 1.51511,0.30069 0.33285,-0.0552 0.46561,-0.41463 0.66241,-0.64629 0.43857,-0.64642 0.67498,-1.4189 1.19896,-2.00909 -0.47619,-0.0262 -0.9525,-0.0516 -1.42862,-0.0782 z"
       style="opacity:1;fill:#80ffe6;stroke:#80ffe6;stroke-width:0.264999;stroke-linecap:round;stroke-opacity:1;fill-opacity:1"
       id="path548" />
    <path
       d="m 272.74014,281.63195 c 0.14823,0.16609 0.62511,0.53948 0.20688,0.66467 -0.26386,0.0575 -0.76124,0.0741 -0.88339,0.0862 0.64797,-0.0182 1.29625,-0.0162 1.9444,-0.0195 -0.146,0.1835 0.16355,0.33547 0.20724,0.0837 0.47037,-0.54931 1.12582,-0.89918 1.59842,-1.44624 -0.29441,-0.13432 -0.63152,-0.11058 -0.93804,-0.20857 -0.38827,-0.0795 -0.84186,-0.23431 -1.18706,0.0498 -0.2944,0.26662 -0.71978,0.48578 -0.8036,0.90631 -0.0771,0.39746 0.27639,0.77912 0.62261,0.44498 0.50487,-0.23051 1.00993,-0.47062 1.46481,-0.79332 0.15579,-0.14501 0.63993,-0.28374 0.64126,-0.3019 -0.62921,-0.0785 -1.25151,-0.20219 -1.8733,-0.32466 -0.0117,0.13718 0.28963,0.27876 0.0506,0.45111 -0.33263,0.57938 -0.90723,1.05617 -1.58855,1.12679 -0.26189,0.18971 0.0699,0.40238 0.27783,0.30072 0.73096,0.005 1.47828,0.0741 2.19598,-0.0923 0.36506,-0.11553 0.3447,-0.53823 0.1139,-0.77328 -0.12524,-0.37972 -0.52605,-0.25652 -0.82384,-0.23936 -0.40866,0.0282 -0.8179,0.057 -1.22619,0.0849 z"
       style="opacity:1;fill:#80ffe6;stroke:#80ffe6;stroke-width:0.264999;stroke-linecap:round;stroke-opacity:1;fill-opacity:1"
       id="path553" />
    <path
       d="m 299.44967,279.23461 c 0.10097,0.31787 0.0363,0.14811 0.20566,0.5047 0,0 0.11308,0.008 0.11308,0.008 v 0 c 0.76073,-0.28654 0.39124,-0.15991 1.10684,-0.38486 0,0 -1.42558,-0.12809 -1.42558,-0.12809 z"
       id="path558"
       style="opacity:1;fill:#ffcc00;stroke:#ffcc00;stroke-width:0.264999;stroke-linecap:round;stroke-opacity:0" />
    <path
       d="m 299.35649,279.21118 c 0.26504,0.77177 0.33061,1.59049 0.43172,2.39417 0.14855,0.32268 0.55083,0.13723 0.80676,0.0913 0.50178,-0.12349 1.0132,-0.20989 1.52286,-0.28313 0.27594,-0.24462 0.38358,-0.64827 0.54867,-0.97144 0.10605,-0.36255 -0.18817,-0.69483 -0.544,-0.71872 -0.45063,-0.0668 -0.91135,-0.0315 -1.3635,0.002 -0.19986,0.0438 -0.492,0.0148 -0.49624,0.0984 -0.44605,0.16472 0.34193,0.22605 0.22603,0.53799 -0.10605,0.25885 -0.22502,0.54301 -0.44236,0.73287 -0.24742,0.25418 0.45024,0.13325 0.59126,0.22806 0.58253,0.0899 1.16311,0.19307 1.73968,0.31565 -0.20685,-0.21278 -0.47818,-0.38172 -0.54568,-0.69602 -0.22992,-0.55762 -0.36692,-1.15659 -0.37545,-1.76079 -0.69989,0.01 -1.39997,0.0201 -2.09975,0.0298 z"
       style="opacity:1;fill:#80ffe6;stroke:#80ffe6;stroke-width:0.264999;stroke-linecap:round;stroke-opacity:1;fill-opacity:1"
       id="path562" />
    <path
       d="m 49.331535,286.51788 c 0.663708,-1.98061 2.104453,-3.57348 3.623723,-4.95368 -1.25096,-0.58784 -2.297148,0.40851 -2.69166,1.496 -0.294458,0.46055 -1.774204,0.87117 -1.60776,0.8748 0.666228,0.0878 1.101382,-0.12407 0.240844,-0.32193 -0.672196,-0.45369 -2.549075,-0.60926 -2.533329,0.1455 1.987894,0.99525 4.028461,1.88089 5.987803,2.93357 0.56168,0.30853 2.694739,-0.14989 1.156088,-0.60189 -1.870959,-0.6669 -3.737164,-1.44966 -5.313522,-2.68205 -0.646437,-0.19333 -3.0433,0.10124 -1.364091,0.51214 1.400655,0.42399 3.050557,0.64643 4.389559,-0.0403 0.764099,-0.48863 2.528084,-2.48884 0.689297,-2.59586 -1.196817,0.0699 -1.45262,1.40461 -2.101399,2.16884 -0.702893,1.00901 -1.440936,1.99289 -2.150839,2.99692 0.558426,0.0224 1.11691,0.0465 1.675286,0.0679 z"
       style="opacity:1;fill:#80ffe6;stroke:#80ffe6;stroke-width:0.264999;stroke-linecap:round;stroke-opacity:1;fill-opacity:1"
       id="path567" />
    <path
       d="m 89.981698,269.30935 c 0.406009,-0.54821 0.958319,-0.96559 1.529463,-1.32841 0.269707,0.035 0.479374,-0.39296 0.08137,-0.32688 -0.773096,-0.005 -1.547438,-0.0445 -2.319172,0.0127 0.615551,-0.005 1.231083,0.006 1.846501,0.0178 -0.514834,-0.091 -1.047409,-0.24978 -1.566914,-0.0948 -0.381573,0.0992 -0.765424,0.18712 -1.152205,0.26171 -0.242122,0.10148 0.240864,0.34573 0.306738,0.50753 0.440833,0.47479 0.846161,0.98242 1.250335,1.48667 0.2642,0.13484 0.578473,0.008 0.862682,0.0799 0.313913,0.0236 0.606879,-0.1092 0.910899,-0.15805 0.06525,-0.30127 -0.45508,-0.55504 -0.608584,-0.82997 -0.330271,-0.36516 -0.653323,-0.74082 -0.912706,-1.16082 -0.751936,0.01 -1.503956,0.004 -2.255898,-0.002 0.476416,0.11635 0.96117,0.19369 1.452721,0.18277 0.751373,0.0106 1.510771,0.0165 2.257138,-0.0236 -0.599525,-0.0308 -1.203352,-0.0201 -1.804693,-0.0276 0.116914,-0.32938 0.03164,0.11785 -0.123113,0.17594 -0.387365,0.39037 -0.801734,0.75241 -1.213405,1.11673 0.486266,0.0368 0.972673,0.0736 1.458848,0.11037 z"
       style="opacity:1;fill:#80ffe6;stroke:#80ffe6;stroke-width:0.264999;stroke-linecap:round;stroke-opacity:1;fill-opacity:1"
       id="path577" />
    <path
       d="m 86.800215,272.77586 c 0.529816,0.34728 0.890175,0.89275 1.40221,1.25879 0.539837,0.28534 1.153344,0.0724 1.712578,-0.009 0.399202,-0.0117 0.438379,-0.48755 0.576806,-0.76449 0.04385,-0.42328 0.605004,-0.62502 0.564051,-1.02242 -0.323826,-0.18839 -0.773284,0.002 -1.150879,-0.0565 -0.408583,0.006 -0.817439,0.0183 -1.224601,0.0547 -0.417751,0.42347 -0.867682,0.81802 -1.276503,1.24796 0.107731,0.18251 0.636965,0.0623 0.733417,0.40311 0.1127,0.11689 0.481501,-0.19822 0.726925,-0.14378 0.422102,-0.006 0.830403,0.0202 1.104247,-0.36492 0.365744,-0.3516 0.697704,-0.7542 1.156952,-0.9887 -0.291747,-0.0549 -0.789094,0.0565 -1.156992,0.0451 -0.351007,-0.0132 -0.921785,0.0882 -1.135777,-0.0169 0.371043,-0.0571 0.183472,0.58272 0.07185,0.79066 -0.04394,0.2414 -0.318836,0.41017 -0.394346,0.57586 0.518786,0.0516 1.045059,-2.5e-4 1.566957,0.0234 -0.433246,0.1045 -0.739942,-0.32697 -1.074693,-0.52585 -0.344163,-0.17857 -0.514318,-0.74224 -0.952609,-0.61038 -0.416488,0.0345 -0.833279,0.0696 -1.249593,0.10361 z"
       style="opacity:1;fill:#80ffe6;stroke:#80ffe6;stroke-width:0.264999;stroke-linecap:round;stroke-opacity:1;fill-opacity:1"
       id="path582" />
    <path
       d="m 68.964248,222.50592 c 0.71334,0.37301 1.428484,0.7743 1.999142,1.35154 0.195178,0.14573 0.436447,0.0153 0.64116,-0.0351 0.27709,-0.0777 0.552135,-0.16414 0.829676,-0.241 0.149102,-0.23037 0.08839,-0.51872 0.157129,-0.7726 -0.07808,-0.28126 0.153475,-0.50936 0.197303,-0.77251 -0.08333,-0.32453 -0.233088,-0.70958 -0.588243,-0.81026 -0.344682,-0.0638 -0.670629,0.14094 -0.925686,0.35331 -0.592968,0.48504 -1.037241,1.11499 -1.491285,1.72433 -0.175025,0.16936 -0.38862,0.37882 -0.359009,0.64396 0.04382,0.19913 0.252748,0.29029 0.417369,0.37408 0.147433,0.0677 0.321295,0.0677 0.466458,-0.005 0.469348,-0.115 0.954431,-0.32815 1.220655,-0.75309 0.316502,-0.44016 0.628185,-0.89975 1.071274,-1.22403 -0.05136,-0.13123 -0.320315,-0.0479 -0.457097,-0.0697 -0.4519,-0.0197 -0.902319,0.055 -1.340867,0.15858 -0.13249,-0.2203 0.284683,-0.35767 0.269375,-0.0657 0.09167,0.3033 0.01568,0.62064 -0.02874,0.92508 -0.188816,0.21226 0.141513,0.29563 0.305424,0.28651 0.203707,0.0254 0.398053,0.0957 0.602149,0.12413 0.240372,0.0461 0.482058,0.0864 0.725523,0.11221 0.106825,-0.11683 -0.205439,-0.14923 -0.285546,-0.19812 -0.814277,-0.33925 -1.568933,-0.8006 -2.340841,-1.22378 -0.361773,0.039 -0.723571,0.0779 -1.085321,0.11704 z"
       style="opacity:1;fill:#80ffe6;stroke:#80ffe6;stroke-width:0.264999;stroke-linecap:round;stroke-opacity:1;fill-opacity:1"
       id="path587" />
    <path
       d="m 84.417986,228.00053 c 0.556656,-0.70294 1.338978,-1.17288 2.113341,-1.59977 0.140761,-0.21541 1.010712,-0.17048 0.571391,-0.50882 -0.571864,-0.12016 -1.16414,-0.0605 -1.739755,-0.16593 -0.862725,-0.0909 -1.729352,-0.27922 -2.599324,-0.1928 -0.573561,0.39147 0.289452,0.83471 0.495046,1.18467 0.397096,0.40698 1.032123,0.47514 1.571155,0.45106 0.711005,-0.18919 0.09652,-0.78416 -0.207142,-1.0549 -0.265456,-0.37539 -0.896353,-0.0851 -1.32638,-0.18867 -0.268859,-0.012 -0.739915,-3.5e-4 -0.208666,0.0297 0.712478,0.0615 1.423914,0.14259 2.139135,0.16524 0.244154,-0.10487 -0.334985,0.40005 -0.458432,0.46328 -0.562078,0.45847 -1.145844,0.88976 -1.740551,1.30482 0.463217,0.0375 0.927909,0.0735 1.390182,0.11216 z"
       style="opacity:1;fill:#80ffe6;stroke:#80ffe6;stroke-width:0.264999;stroke-linecap:round;stroke-opacity:1;fill-opacity:1"
       id="path592" />
    <path
       d="m 75.241842,243.85311 c 0.508756,-0.56388 1.135784,-1.00842 1.774911,-1.40732 0.297772,0.0266 0.755992,-0.39796 0.25286,-0.46668 -0.928857,-0.0229 -1.858599,0.038 -2.788233,0.045 -0.311307,-0.003 0.365286,-0.009 0.503896,-0.0129 0.411791,-0.007 0.823606,-0.0117 1.235439,-0.0147 -0.81535,0.0123 -1.665117,-0.14297 -2.445171,0.17314 -0.265949,0.0293 -0.681241,0.22578 -0.228444,0.36952 0.419391,0.22868 0.791746,0.5759 1.286328,0.63003 0.336438,0.0311 0.692289,0.1297 1.021301,0.0508 0.367142,-0.0376 0.581037,-0.44243 0.104353,-0.47718 -0.251026,-0.16979 -0.506061,-0.32541 -0.746791,-0.50926 -0.360148,-0.1236 -0.765623,-0.0262 -1.14456,-0.0764 -0.455281,-0.0133 -0.91108,-0.0206 -1.366339,-0.003 0.204932,0.16143 0.760018,0.095 1.097146,0.14596 1.132591,0.057 2.267491,0.0348 3.39994,-0.014 -0.580821,-0.006 -1.16303,0.0423 -1.742705,-0.0127 0.25794,-0.36685 -0.0083,0.22663 -0.16272,0.28588 -0.465111,0.41818 -0.967172,0.7921 -1.463312,1.17227 0.470658,0.0407 0.941729,0.0784 1.412101,0.12094 z"
       style="opacity:1;fill:#80ffe6;stroke:#80ffe6;stroke-width:0.264999;stroke-linecap:round;stroke-opacity:1;fill-opacity:1"
       id="path598" />
    <path
       d="m 25.534285,190.57025 c 0.231868,-0.29636 0.488771,-0.57481 0.784644,-0.80819 0.164776,-0.19306 -0.03869,-0.26972 -0.21215,-0.21401 -0.587865,0.008 -1.177636,-0.01 -1.763295,0.0525 -0.322855,0.40068 -0.686165,0.77344 -0.968487,1.20428 -0.106052,0.14038 -0.496711,0.36486 -0.236957,0.53114 0.387819,0.1442 0.807332,0.18532 1.218782,0.16239 0.281877,-0.005 0.625277,-0.007 0.815182,-0.24919 0.09971,-0.23431 0.230583,-0.44383 0.39323,-0.63922 0.213877,-0.29429 0.418908,-0.61486 0.726856,-0.81792 -0.140621,-0.051 -0.344246,-0.0337 -0.509859,-0.0505 -0.451186,-0.0186 -0.902934,-0.0112 -1.35422,-0.0259 0.0264,-0.13427 0.08996,-0.12656 0.0059,-0.002 -0.175656,0.27659 -0.418824,0.50122 -0.667509,0.71101 0.589293,0.0484 1.178642,0.0967 1.767902,0.14513 z"
       style="opacity:1;fill:#80ffe6;stroke:#80ffe6;stroke-width:0.264999;stroke-linecap:round;stroke-opacity:1;fill-opacity:1"
       id="path603" />
    <path
       d="m 42.088665,181.89966 c -0.379226,0.65623 -0.859944,1.26323 -1.433901,1.75807 -0.153468,0.0622 -0.368066,0.26509 -0.05452,0.17781 0.619914,-0.10527 1.242384,-0.19464 1.862767,-0.29703 -0.396883,-0.26942 -0.469241,-0.78049 -0.729389,-1.15337 -0.287851,0.14906 -0.624393,0.0319 -0.932297,0.0901 -0.423245,0.0147 -0.847158,0.0292 -1.270478,0.009 0.59821,-0.0596 1.138662,0.25533 1.629495,0.55365 0.382706,0.19257 0.82346,-0.12087 1.206811,0.0833 0.251718,0.0375 -0.176436,-0.15555 0.111593,-0.11988 0.171586,-0.0136 0.819147,-0.0593 0.373584,-0.19854 -0.400488,-0.11708 -0.756082,-0.33652 -1.121326,-0.53153 -0.609021,-0.006 -1.217456,0.0263 -1.826113,0.0414 -0.06552,0.44075 0.364638,0.72698 0.47717,1.12171 0.122773,0.36046 0.50976,0.35211 0.814508,0.42184 0.439338,0.10187 0.940998,0.26299 1.365093,0.0316 0.285681,-0.22223 0.422087,-0.57557 0.605148,-0.87798 0.165647,-0.34096 0.262453,-0.71463 0.46809,-1.03602 -0.515398,-0.0246 -1.030927,-0.0492 -1.54624,-0.0739 z"
       style="opacity:1;fill:#80ffe6;stroke:#80ffe6;stroke-width:0.264999;stroke-linecap:round;stroke-opacity:1;fill-opacity:1"
       id="path607" />
    <path
       d="m 29.123134,189.78558 c 0.829858,0.071 1.641296,0.26114 2.445228,0.4698 0.462544,0.0939 0.997132,0.20345 1.424743,-0.0556 0.350336,-0.24881 0.25541,-0.69496 0.305596,-1.05188 0.07914,-0.44729 -0.543366,-0.19635 -0.804059,-0.28136 -0.596111,-0.0184 -1.193889,-0.14359 -1.789083,-0.0724 -0.475986,0.12193 -0.861188,0.45733 -1.274128,0.70933 -0.196645,0.33892 0.518746,0.23334 0.726479,0.30833 0.543556,0.0486 1.100345,0.1608 1.64211,0.0551 0.461393,-0.14906 0.806159,-0.5919 1.317011,-0.60099 -0.862836,-0.0184 -1.725742,-0.0333 -2.588617,-0.0497 0.444262,-0.16998 0.122763,0.6536 0.525484,0.49914 0.887903,0.0317 1.775524,0.0803 2.664226,0.0816 -0.319847,-0.10775 -0.677086,-0.0818 -1.011409,-0.14221 -0.467273,-0.0532 -0.934074,-0.1113 -1.398941,-0.18275 -0.728249,0.10421 -1.45621,0.21086 -2.18464,0.31354 z"
       style="opacity:1;fill:#80ffe6;stroke:#80ffe6;stroke-width:0.264999;stroke-linecap:round;stroke-opacity:1;fill-opacity:1"
       id="path612" />
    <path
       d="m 64.618501,179.54894 c 0.677895,0.20077 1.298858,0.54677 1.908485,0.89638 0.527683,0.18906 1.068706,-0.0847 1.596524,-0.14604 0.394938,-0.0441 0.798942,-0.0678 0.795597,-0.56048 0.05749,-0.45021 0.464239,-0.89055 0.376323,-1.31013 -0.305439,-0.1918 -0.701811,-0.0497 -1.042281,-0.0473 -0.495713,0.0587 -0.986363,0.15516 -1.483393,0.20342 -0.611611,0.78928 -1.130955,1.64602 -1.733352,2.44129 -0.115291,0.50033 0.540402,0.38864 0.8428,0.49336 0.413812,0.0262 0.843144,0.008 1.244237,-0.10362 0.524556,-0.26474 0.631394,-0.94035 0.989182,-1.36994 0.29185,-0.44304 0.600946,-0.89654 1.032477,-1.21155 -0.268835,-0.15593 -0.675582,-0.10442 -1.001219,-0.15829 -0.432035,-0.0309 -0.865036,-0.0476 -1.296575,-0.0855 0.09848,0.3791 -0.08152,0.76771 -0.191855,1.12334 -0.120689,0.17267 -0.271431,0.41479 0.06499,0.34901 0.755876,0.0611 1.508242,0.16748 2.266682,0.19494 -0.249835,-0.25247 -0.748455,-0.3161 -1.096912,-0.49241 -0.386517,-0.14849 -0.772341,-0.29965 -1.148962,-0.47203 -0.707548,0.0853 -1.415407,0.16948 -2.12275,0.25546 z"
       style="opacity:1;fill:#80ffe6;stroke:#80ffe6;stroke-width:0.264999;stroke-linecap:round;stroke-opacity:1;fill-opacity:1"
       id="path617" />
    <path
       d="m 89.152922,144.35523 c 0.340358,-0.56241 1.039358,-0.87749 1.404662,-1.3223 -0.301854,-0.45149 -0.997869,-0.12738 -1.467171,-0.22596 -0.73835,-0.002 -1.476765,6.6e-4 -2.214974,0.0163 0.711613,0.005 1.423261,0.0241 2.134895,0.0108 -0.742025,-0.0529 -1.487304,-0.023 -2.229157,-0.0794 -0.24628,-0.15656 -0.837414,0.15932 -1.22292,0.17462 -0.410025,0.0845 -0.820412,0.16725 -1.230168,0.25305 1.114886,0.0939 2.179351,0.45759 3.26875,0.68058 0.540842,0.04 1.085332,0.0547 1.46294,0.46318 0.133231,-0.12219 -0.190801,-0.46957 0.200945,-0.35286 0.555556,-0.48173 -0.332272,-0.67067 -0.703562,-0.76714 -0.534715,-0.13413 -1.068643,-0.30493 -1.612551,-0.38174 -1.12014,0.0945 -2.240594,0.20419 -3.359226,0.3218 2.04639,0.12872 4.097369,0.0261 6.145619,0.0755 -0.716824,6.3e-4 -1.433656,0.004 -2.150474,-5.7e-4 0.214365,-0.006 0.391901,-0.33416 0.242269,0.0704 -0.110447,0.35862 -0.667456,0.64399 -0.708481,0.88154 0.633343,0.11225 1.284317,0.0974 1.923606,0.17364 l 0.11499,0.009 z"
       style="opacity:1;fill:#80ffe6;stroke:#ffcc00;stroke-width:0.264999;stroke-linecap:round;stroke-opacity:0"
       id="path622" />
    <path
       d="m 106.92923,145.55423 c 1.30286,0.18514 2.57068,0.55631 3.8021,1.01253 0.52492,0.15493 1.13603,0.34083 1.65256,0.0713 0.43793,-0.3294 0.1652,-0.88226 0.10455,-1.30656 0.12958,-0.49457 -0.17164,-0.9646 -0.7131,-0.82729 -0.79195,0.0235 -1.66388,-0.24125 -2.37425,0.23227 -0.77882,0.43099 -1.50328,0.95617 -2.27971,1.38808 -0.44269,0.46397 0.60903,0.36495 0.79578,0.45018 0.37026,-0.0346 0.7417,0.11387 1.11339,0.006 0.55576,-0.0816 0.90136,-0.57139 1.35646,-0.85001 0.47928,-0.35183 1.00479,-0.65563 1.57055,-0.83556 -0.68708,-0.0795 -1.38986,-0.005 -2.08229,-0.0463 0.43791,-0.0387 0.62614,0.56881 0.62355,0.92363 -0.17642,0.39963 0.052,0.36646 0.38344,0.34979 0.55215,0.009 1.10425,0.0315 1.65655,0.0219 -0.49337,-0.0228 -0.95762,-0.12516 -1.43365,-0.23638 -0.85023,-0.16299 -1.69106,-0.37036 -2.53095,-0.57916 -0.54828,0.0752 -1.09699,0.15053 -1.64498,0.22576 z"
       style="opacity:1;fill:#80ffe6;stroke:#ffcc00;stroke-width:0.264999;stroke-linecap:round;stroke-opacity:0"
       id="path627" />
    <path
       d="m 144.47296,184.00542 c 0.64958,-0.058 1.30046,-0.10226 1.95126,-0.14466 0.92963,-0.0657 2.40283,0.23938 -1.59133,-0.29986 -0.39565,0.003 -0.78514,0.0298 -1.17361,0.10643 -0.36591,0.09 -0.74026,0.17612 -1.08256,0.33832 -0.77454,0.29401 -0.8271,0.30117 2.12927,0.0442 0.0644,-0.006 -0.002,-0.12939 0.002,-0.19386 0.005,-0.0719 0.0552,-0.43965 0.0627,-0.49551 0.0695,-0.38784 0.16469,-0.76994 0.23704,-1.15704 -0.0114,0.0156 0.0229,-0.11891 -0.0164,-0.11696 -2.32119,0.115 -2.11685,-0.53436 -2.03516,0.41943 0.0267,0.3122 0.0329,0.5188 0.0478,0.83861 0.015,0.81771 -0.002,1.63813 -0.15929,2.44267 -0.007,0.0536 -0.031,0.10744 -0.0217,0.16068 0.0483,0.27604 0.689,0.18432 1.04994,0.19133 0,0 0.11327,-0.005 0.11327,-0.005 v 0 c 0.35783,-0.004 0.98945,0.0905 1.03846,-0.18582 0.009,-0.0532 -0.0142,-0.10708 -0.0213,-0.16063 -0.15482,-0.80459 -0.16857,-1.62482 -0.14682,-2.442 0.0185,-0.32422 0.0258,-0.5222 0.058,-0.83772 0.009,-0.0911 0.1241,-0.25287 0.0347,-0.27243 -0.0438,-0.01 -1.92376,-0.80365 -2.10718,-0.0654 -0.0479,0.38495 -0.0934,0.77067 -0.16946,1.15142 -0.0409,0.16783 -0.0783,0.33648 -0.11923,0.50429 -0.0171,0.07 -0.12499,0.19328 -0.0547,0.20901 1.55793,0.34871 1.59112,0.61068 2.30732,0.23622 0.31558,-0.1103 0.62372,-0.24599 0.9544,-0.30794 0.39599,-0.0603 0.79109,-0.0673 1.18927,-0.0963 -0.67364,-0.1093 -1.34728,-0.21859 -2.02092,-0.32789 0.10032,0.0693 -0.0853,0.0662 -0.12751,0.0808 -0.63268,0.0856 -1.2706,0.12919 -1.90879,0.14322 0,0 1.58029,0.24274 1.58029,0.24274 z"
       id="path634"
       style="opacity:1;fill:#80ffe6;stroke:#ffcc00;stroke-width:0.264999;stroke-linecap:round;stroke-opacity:0" />
    <path
       d="m 97.453123,156.57773 c 0.689524,-0.25024 1.414473,-0.43786 2.152793,-0.4299 -0.545223,0.0129 -1.091424,0.043 -1.636473,0.0311 0.102774,-0.0686 0.664127,-0.11278 0.945142,-0.16418 0.266875,-0.0645 0.906177,-0.0712 0.929534,-0.18096 -0.437016,-0.19819 -0.680916,-0.62393 -0.830259,-1.05458 -0.220303,-0.32218 -0.609981,-0.0779 -0.916411,-0.10122 -0.463027,0.0373 -0.928886,0.0778 -1.379751,0.19544 0.06539,0.3641 0.228539,0.70407 0.264623,1.07543 0.0825,0.46587 0.103575,0.93979 0.176287,1.40703 0.206064,0.38696 0.70833,0.41166 1.093342,0.46179 0.305818,-0.0658 0.784635,-0.10564 0.869259,-0.46676 -0.0071,-0.40228 -0.183298,-0.78142 -0.23296,-1.18022 -0.07214,-0.40603 -0.1206,-0.83158 -0.05739,-1.23564 -0.247434,-0.19301 -0.628626,-0.0648 -0.930738,-0.1167 -0.410133,-0.002 -0.820227,0.0157 -1.230344,0.006 0.287733,0.42051 0.636416,0.79275 0.983819,1.16365 0.343205,0.24203 0.852887,-0.0215 1.264809,0.0113 0.330045,-0.0356 0.918944,-0.0709 1.087762,-0.1076 -0.564669,-0.0508 -1.151372,0.0124 -1.693278,-0.18036 -0.332468,-0.045 -0.500329,0.31204 -0.813515,0.35276 -0.386047,0.14362 -0.781751,0.25879 -1.175805,0.37791 0.376399,0.0456 0.753743,0.0889 1.129551,0.13582 z"
       style="opacity:1;fill:#80ffe6;stroke:#ffcc00;stroke-width:0.264999;stroke-linecap:round;stroke-opacity:0"
       id="path636" />
    <path
       d="m 160.038,156.28544 c 0.0737,0.85176 0.0716,1.78662 -0.43937,2.50641 -0.56301,0.2681 0.45477,-0.006 0.65234,0.0823 0.3865,-0.009 1.20486,0.0128 1.32634,0.005 -0.8155,-0.0772 -1.56087,-0.44104 -2.32953,-0.69445 0.30666,0.35217 1.02715,-0.0562 1.49729,-9.3e-4 0.78239,-0.0824 1.56627,-0.15442 2.34474,-0.26967 -0.62736,-0.24604 -1.34442,-0.28124 -2.01875,-0.31056 -1.131,0.0996 -2.24784,0.339 -3.3866,0.37222 -0.42833,-0.10982 -1.35819,0.20312 -0.66816,0.61765 1.16278,0.40953 2.38886,0.88302 3.64511,0.68528 0.40893,-0.0919 1.35347,0.17452 1.17699,-0.52628 -0.32858,-0.50498 -0.44632,-1.10152 -0.36589,-1.6989 0.2676,-0.62607 -0.15216,-0.91896 -0.76167,-0.77185 -0.22356,0.016 -0.44995,0.0394 -0.67284,0.004 z"
       style="opacity:1;fill:#80ffe6;stroke:#ffcc00;stroke-width:0.264999;stroke-linecap:round;stroke-opacity:0"
       id="path641" />
    <path
       d="m 202.58909,233.65913 c 0.71,2.29384 -0.75486,4.77542 -2.88348,5.69807 -3.58133,1.80625 -7.68972,1.07278 -11.52613,0.86144 -3.20942,-0.28621 -6.44708,-0.47835 -9.60191,-1.14842 3.74568,0.85137 7.61019,0.94265 11.42167,1.30663 3.51922,0.19919 7.33129,0.61813 10.54075,-1.17629 1.53962,-0.75174 2.7656,-2.26474 2.72707,-4.03977 -0.18397,-0.46599 0.16436,-1.80225 -0.67797,-1.50166 z"
       style="opacity:1;fill:#80ffe6;fill-opacity:1;stroke:#80ffe6;stroke-width:0.264999;stroke-linecap:round;stroke-opacity:1"
       id="path1522" />
    <path
       d="m 198.23849,232.641 c -0.43561,3.14048 -3.53473,5.10511 -6.53069,5.20456 -9.12062,1.15298 -18.16622,-1.46517 -26.72496,-4.3545 9.02271,3.14865 18.67489,5.78052 28.29245,4.26511 2.40386,-0.25245 4.79002,-1.72249 5.33879,-4.21313 0.11776,-0.39536 0.34665,-1.10397 -0.37559,-0.90204 z"
       style="opacity:1;fill:#80ffe6;fill-opacity:1;stroke:#80ffe6;stroke-width:0.264999;stroke-linecap:round;stroke-opacity:1"
       id="path1526" />
    <path
       d="m 108.03145,197.28541 c -3.03603,-2.34789 -4.98046,-5.79158 -6.59233,-9.20695 -0.73236,-1.71156 -1.487268,-3.5295 -1.41764,-5.42067 0.45226,-1.68804 2.39633,-2.13929 3.85903,-2.5897 1.7808,-0.40874 3.61728,-0.21336 5.42449,-0.19347 -2.98473,-0.20111 -6.12725,-0.17581 -8.84826,1.22634 -1.699955,0.78668 -1.306666,2.86449 -0.635343,4.22461 1.509063,4.40751 4.044283,8.41005 7.113293,11.89157 0.32575,0.22324 0.73832,0.0788 1.09676,0.0683 z"
       style="opacity:1;fill:#80ffe6;fill-opacity:1;stroke:#80ffe6;stroke-width:0.264999;stroke-linecap:round;stroke-opacity:1"
       id="path1531" />
    <path
       d="m 114.17359,199.14157 c -2.53401,-3.16981 -4.81761,-6.54136 -6.97637,-9.97359 -1.39201,-2.38379 -2.2554,-5.63921 -0.49965,-8.07113 1.37399,-1.86987 3.87709,-1.95118 5.97059,-1.66499 1.13553,0.0869 -1.36749,-0.19823 -1.89337,-0.15419 -1.85114,-0.002 -4.1389,0.3092 -5.02626,2.18974 -1.35512,2.58224 -0.36082,5.59285 1.03975,7.92452 1.99224,3.22532 4.39342,6.22387 5.91387,9.72228 0.45912,0.25802 0.98427,-0.0257 1.47144,0.0274 z"
       style="opacity:1;fill:#80ffe6;fill-opacity:1;stroke:#80ffe6;stroke-width:0.264999;stroke-linecap:round;stroke-opacity:1"
       id="path1536" />
    <path
       d="m 102.4029,209.30572 c 10.06043,5.59706 20.45099,11.0416 31.8691,13.21593 3.83779,0.86421 7.70791,1.57721 11.58727,2.22666 -10.79372,-1.86727 -21.70676,-4.10283 -31.50158,-9.21372 -4.08833,-1.8661 -7.91627,-4.32579 -11.95479,-6.22887 z"
       style="opacity:1;fill:#80ffe6;fill-opacity:1;stroke:#80ffe6;stroke-width:0.264999;stroke-linecap:round;stroke-opacity:1"
       id="path1541" />
    <path
       d="m 79.22443,182.16248 c 7.951487,8.28027 13.998107,19.45923 25.58718,23.20459 15.80813,7.36769 29.225,19.02008 45.54682,25.41976 3.07731,1.43866 15.91194,6.64613 6.91408,2.98348 -15.21145,-5.98722 -29.18416,-14.53844 -42.75725,-23.52116 -10.30592,-5.08361 -21.646395,-9.74452 -28.079911,-19.87069 -2.233866,-2.87838 -4.468558,-5.79416 -7.210919,-8.21598 z"
       style="opacity:1;fill:#80ffe6;fill-opacity:1;stroke:#80ffe6;stroke-width:0.264999;stroke-linecap:round;stroke-opacity:1"
       id="path1546" />
  </g>
</svg>
