<?xml version="1.0" encoding="UTF-8" standalone="no"?>
<svg
   xmlns:dc="http://purl.org/dc/elements/1.1/"
   xmlns:cc="http://creativecommons.org/ns#"
   xmlns:rdf="http://www.w3.org/1999/02/22-rdf-syntax-ns#"
   xmlns:svg="http://www.w3.org/2000/svg"
   xmlns="http://www.w3.org/2000/svg"
   xmlns:sodipodi="http://sodipodi.sourceforge.net/DTD/sodipodi-0.dtd"
   xmlns:inkscape="http://www.inkscape.org/namespaces/inkscape"
   width="1200"
   height="600"
   viewBox="0 0 317.5 158.75"
   version="1.1"
   id="svg8"
   sodipodi:docname="ul-godel.svg"
   inkscape:version="1.0.1 (3bc2e813f5, 2020-09-07)">
  <sodipodi:namedview
     pagecolor="#ffffff"
     bordercolor="#666666"
     borderopacity="1"
     objecttolerance="10"
     gridtolerance="10"
     guidetolerance="10"
     inkscape:pageopacity="0"
     inkscape:pageshadow="2"
     inkscape:window-width="1920"
     inkscape:window-height="1061"
     id="namedview40"
     showgrid="false"
     inkscape:zoom="1.4"
     inkscape:cx="600"
     inkscape:cy="300"
     inkscape:window-x="0"
     inkscape:window-y="19"
     inkscape:window-maximized="0"
     inkscape:current-layer="svg8"
     inkscape:document-rotation="0" />
  <defs
     id="defs2" />
  <metadata
     id="metadata5">
    <rdf:RDF>
      <cc:Work
         rdf:about="">
        <dc:format>image/svg+xml</dc:format>
        <dc:type
           rdf:resource="http://purl.org/dc/dcmitype/StillImage" />
        <dc:title />
      </cc:Work>
    </rdf:RDF>
  </metadata>
  <path
     id="path20"
     style="fill:#e9c6af;fill-opacity:1;stroke:#e9c6af;stroke-width:0.264583px;stroke-linecap:butt;stroke-linejoin:miter;stroke-opacity:1"
     d="m 173.59516,88.35762 c 4.45023,-1.90265 9.66761,-6.08634 13.58726,-6.78358 -1.78744,3.65674 -2.50337,7.67479 -3.75334,11.52402 -1.70688,4.74867 -2.10987,9.84499 -3.80932,14.60278 -1.39658,6.73469 -5.81624,12.64564 -11.98698,15.74839 -4.72208,2.62067 -9.88976,4.34629 -14.48923,7.19831 -4.47714,1.911 -8.82335,5.21234 -13.88065,5.01372 -4.87919,-0.70917 -7.11533,-6.07492 -8.95328,-10.03522 -1.69175,-5.06631 1.7993,-10.09924 0.59983,-15.25065 -0.99255,-4.29894 -1.50782,-8.64396 -2.09721,-12.9902 -0.67102,-3.56859 -3.13527,-11.48693 3.17502,-9.73632 5.37075,1.71563 9.91053,5.75452 15.7296,6.15652 5.97597,1.05865 12.58242,1.2672 17.80632,-2.3246 2.45169,-1.20609 5.2106,-3.91319 8.07198,-3.12317 z" />
  <path
     id="path26"
     style="fill:#ffe6d5;stroke:#ffe6d5;stroke-width:0.264583px;stroke-linecap:butt;stroke-linejoin:miter;stroke-opacity:1"
     d="m 141.35433,14.86486 c 11.81688,1.69043 23.89235,2.89889 34.98592,7.55703 5.0073,3.03758 8.08668,8.51884 10.99654,13.46976 5.24976,10.75666 0.27177,22.64279 1.18954,33.9424 0.72568,6.26752 -0.21327,12.9899 -5.04246,17.49395 -5.20532,6.57799 -11.99324,11.6092 -18.39966,16.89779 -5.34879,2.05224 -7.5012,9.04492 -13.55817,9.59073 -5.95424,1.18166 -13.51292,3.47073 -18.2116,-1.83694 -6.1208,-5.73582 -12.89164,-12.93214 -11.97581,-22.01572 -0.24924,-8.63602 -2.43361,-17.04061 -3.66136,-25.53498 -0.80019,-11.00095 -5.00638,-22.81718 0.32517,-33.31919 3.65715,-6.47806 9.66522,-11.78246 16.78991,-14.11912 2.5888,-1.2103 5.04883,-2.28364 7.79427,-2.63591" />
  <path
     id="path36"
     style="fill:#ffe6d5;fill-opacity:1;stroke:#ffe6d5;stroke-width:0.264583px;stroke-linecap:butt;stroke-linejoin:miter;stroke-opacity:1"
     d="m 112.63832,74.49316 c 0.4569,-2.69467 -1.28808,-5.14982 -1.10905,-7.83997 -0.16036,-1.48019 0.0285,-3.36478 1.59751,-4.02525 1.64905,-0.85792 4.02914,-0.1345 4.56164,1.75117 0.61683,1.9048 1.05209,3.86515 1.61268,5.78838 0.68536,2.87673 1.01626,5.82294 1.76144,8.68534 0.42691,2.73057 0.0549,5.52356 0.51447,8.25809 0.11479,0.84255 0.81571,3.83626 -0.79749,2.78757 -1.18303,-0.92992 -2.19686,-2.06047 -2.79129,-3.45913 -1.18022,-2.27091 -2.20494,-4.63821 -2.89229,-7.10128 -0.68603,-1.68259 -2.02974,-3.04932 -2.45762,-4.84492 z" />
  <path
     id="path42"
     style="fill:#e9c6af;fill-opacity:1;stroke:#e9c6af;stroke-width:0.264583px;stroke-linecap:butt;stroke-linejoin:miter;stroke-opacity:1"
     d="m 116.3603,72.56322 c -0.74774,0.19122 -1.19506,0.95797 -1.23802,1.69282 -0.11386,1.2107 0.24545,2.4348 0.83716,3.48397 0.21569,0.37494 0.52263,0.68805 0.90382,0.89305 0.35526,0.25268 0.67692,0.54916 1.00794,0.83185 0.23869,-0.32289 0.14096,-0.75591 0.16531,-1.13079 -0.0453,-1.84195 -0.3404,-3.66532 -0.59785,-5.48572 -0.11981,-0.45379 -0.65686,-0.39331 -1.00683,-0.29366 l -0.0715,0.008 z" />
  <path
     id="path64"
     style="fill:#241f1c;fill-opacity:1;stroke:#241f1c;stroke-width:0.264583px;stroke-linecap:butt;stroke-linejoin:miter;stroke-opacity:1"
     d="m 128.53689,16.10712 c -0.37465,1.88836 0.24587,4.17981 -1.15779,5.7213 -1.46528,1.18456 -2.34089,3.0091 -4.10944,3.87272 -1.59084,1.19805 -3.42548,2.38608 -3.97403,4.42903 -1.04075,1.57812 -1.71414,3.34155 -2.38551,5.0963 -1.07327,1.57683 -1.45813,3.55685 -1.21601,5.44079 -0.0219,2.39304 -0.59282,4.90177 0.35112,7.20005 0.51711,2.26073 0.59019,4.60166 0.38074,6.90619 0.11302,2.11924 1.01172,4.15498 0.78434,6.3179 0.2674,2.49389 -2.8355,0.65206 -2.20125,-1.04745 0.1424,-1.88919 -0.14319,-3.79206 -1.10203,-5.4518 -1.08513,-2.17726 -1.13147,-4.67097 -2.03463,-6.89784 0.005,-3.12707 -1.21591,-6.32165 -0.19438,-9.40466 1.021,-2.67448 3.60359,-4.49614 4.14486,-7.38956 0.54851,-2.46501 3.04576,-4.02141 3.22425,-6.62582 0.37493,-2.64489 3.50506,-3.79462 3.87725,-6.46192 1.29096,-1.32642 1.75903,-3.5425 3.81761,-3.97686 1.29126,-0.24337 2.523,1.01227 1.7949,2.27163 z" />
  <path
     id="path69"
     style="fill:#241f1c;stroke:#241f1c;stroke-width:0.264583px;stroke-linecap:butt;stroke-linejoin:miter;stroke-opacity:1"
     d="m 166.32372,18.32543 c 1.92774,1.38373 2.98176,3.86905 5.42411,4.54305 2.7347,1.30382 5.90244,2.45303 7.59809,5.11918 1.22863,2.24683 1.4736,4.95218 3.06864,7.01171 0.62832,2.59525 3.39147,4.35396 3.09595,7.24206 0.18567,5.30197 -1.90626,10.42721 -1.40227,15.74591 0.0289,1.68275 -0.31964,5.29745 0.96091,5.65263 1.34905,-2.09035 4.37305,-3.07177 6.22586,-1.04561 2.547,1.88376 1.06843,-2.11457 1.06269,-3.39353 -0.21482,-1.89371 -0.065,-3.9354 1.01362,-5.56608 0.0726,-2.97239 3.24765,-5.12637 2.57585,-8.18109 -0.48934,-3.09841 -1.702,-6.02798 -2.23563,-9.119 -1.08872,-3.68259 -3.62585,-7.03095 -3.37836,-11.03072 -0.24207,-2.53425 -2.43013,-4.22773 -3.86658,-6.12458 -2.38818,-1.7168 -4.70346,-3.66287 -7.59874,-4.43841 -2.46598,-0.80461 -4.93454,-1.91708 -7.59441,-1.60892 -2.05491,0.19977 -4.17941,0.30617 -6.13394,0.98277 -2.3557,0.65057 -1.99058,3.55671 0.33809,3.84521 l 0.42543,0.17795 z" />
  <path
     id="path76"
     style="fill:#000000;stroke:#000000;stroke-width:0.264583px;stroke-linecap:butt;stroke-linejoin:miter;stroke-opacity:1"
     d="m 172.09157,59.74136 c -0.30418,0.80642 -0.93989,2.25541 0.13944,2.71069 1.17438,0.27215 2.42353,-0.16014 3.3463,-0.89461 2.01125,-0.91875 4.29052,-0.72885 6.39381,-1.29666 1.49905,-0.83162 3.2792,-0.84832 4.91991,-1.22771 1.35428,-0.42233 2.96963,-0.31629 3.55408,1.20263 0.68136,0.98621 0.66928,2.2311 1.18803,3.27307 0.91385,0.92005 1.63832,-1.08223 1.24137,-1.85118 -0.18418,-1.17983 -1.59539,-1.56976 -1.90966,-2.69922 -0.3573,-1.49709 -1.61721,-2.70601 -3.24687,-2.37151 -1.80199,0.11727 -3.5122,0.70976 -5.19096,1.32857 -0.97365,0.0967 -1.90304,0.51447 -2.89941,0.43162 -1.27725,0.2578 -2.53817,0.6866 -3.85872,0.4921 -1.27531,0.0394 -2.48087,0.5061 -3.67732,0.90221 z" />
  <path
     id="path82"
     style="fill:#000000;stroke:#000000;stroke-width:0.264583px;stroke-linecap:butt;stroke-linejoin:miter;stroke-opacity:1"
     d="m 115.22646,58.16636 c 0.0668,0.43995 -0.51209,0.49583 -0.82321,0.54628 -0.40721,0.061 -0.87009,0.0143 -1.20128,0.30063 -0.40839,0.25147 -0.94796,0.51456 -0.97697,1.06192 -0.0816,0.84217 0.009,1.76042 0.49529,2.47701 0.20095,0.4232 0.7061,0.38816 1.08408,0.26535 0.64223,-0.12355 1.27158,-0.49939 1.94193,-0.31323 0.41282,0.0882 0.8294,0.28633 1.25882,0.18245 0.20498,-0.41303 -0.17887,-0.93258 0.19113,-1.29926 0.24816,-0.35147 -0.0861,-0.62991 -0.37235,-0.78588 -0.34348,-0.26503 -0.2045,-0.76465 -0.4659,-1.08385 -0.34462,-0.47642 -0.64684,-0.9975 -1.13154,-1.35142 z" />
  <path
     id="path88"
     style="fill:#484537;fill-opacity:1;stroke:#484537;stroke-width:0.264583px;stroke-linecap:butt;stroke-linejoin:miter;stroke-opacity:1"
     d="m 149.58708,51.60015 c -0.62126,0.36689 -0.77184,1.10449 -1.15839,1.64734 -0.51075,0.42809 -0.11687,0.90433 0.45738,0.591 0.93021,-0.28266 1.83561,-0.65173 2.80795,-0.77518 1.48134,-0.29754 2.9958,-0.25425 4.49614,-0.2133 0.94377,0.0448 1.76045,-0.42293 2.58154,-0.80626 0.86177,-0.31419 1.81822,-0.54968 2.43615,-1.28171 0.36387,-0.24447 1.41963,-0.9134 0.45886,-1.08429 -1.31243,-0.0925 -2.63566,-0.10709 -3.95002,-0.0603 -1.15128,0.22374 -2.21092,0.80705 -3.39264,0.91254 -1.2493,0.14034 -2.499,0.27807 -3.74462,0.43641 -0.41212,0.0641 -0.68861,0.38113 -0.99235,0.63374 z" />
  <path
     id="path94"
     style="fill:#484537;fill-opacity:1;stroke:#484537;stroke-width:0.264583px;stroke-linecap:butt;stroke-linejoin:miter;stroke-opacity:1"
     d="m 125.7762,50.93465 c -0.60381,0.59801 -1.34016,1.09585 -1.76729,1.84702 0.0399,0.67896 1.02395,0.32367 1.45217,0.31659 0.84595,-0.17486 1.69237,0.0637 2.54037,0.005 0.76063,-0.0696 1.38852,-0.56379 2.11879,-0.74963 0.45718,-0.32642 1.02504,-0.45455 1.57299,-0.31581 1.00895,0.12318 1.99325,0.39461 3.00275,0.51426 0.005,-0.52166 -0.39554,-0.92905 -0.60924,-1.37822 -0.25148,-0.50842 -0.6586,-0.94122 -1.23081,-1.07051 -1.643,-0.51089 -3.31041,0.20315 -4.96666,0.21062 -0.59176,-0.0434 -1.2863,-0.13998 -1.74095,0.33874 -0.12432,0.0935 -0.24735,0.18871 -0.37212,0.28162 z" />
  <path
     id="path100"
     style="fill:#e9c6af;fill-opacity:1;stroke:#e9c6af;stroke-width:0.264583px;stroke-linecap:butt;stroke-linejoin:miter;stroke-opacity:1"
     d="m 154.56617,56.45826 c 1.64129,-1.62944 4.09403,-1.84249 6.28649,-1.75296 1.08579,0.0518 2.19632,-0.0412 3.26136,0.19945 0.40804,0.15381 1.8288,0.56414 0.7096,0.46599 -2.24326,0.0176 -4.52677,-0.0946 -6.72597,0.42111 -1.26685,0.46051 -2.11876,1.57065 -3.08931,2.44511 -0.25962,0.29628 -0.56995,1.01832 -0.60318,0.22461 -0.0941,-0.67303 0.1128,-1.33611 0.16101,-2.00331 z" />
  <path
     id="path107"
     style="fill:#e9c6af;fill-opacity:1;stroke:#e9c6af;stroke-width:0.264583px;stroke-linecap:butt;stroke-linejoin:miter;stroke-opacity:1"
     d="m 125.33252,56.34735 c 1.19377,-1.2279 3.05058,-1.36645 4.66541,-1.27253 1.38066,0.13198 2.77474,0.41989 4.03725,1.00102 0.56984,0.42722 1.5266,0.86842 1.66899,1.53348 -0.90786,-0.0259 -1.63124,-0.7466 -2.5062,-0.95518 -1.8032,-0.58617 -3.76516,-0.96616 -5.64963,-0.57559 -0.71767,0.19031 -1.46744,0.43074 -2.21582,0.2688 z" />
  <path
     id="path118"
     style="fill:#ececec;stroke:#ececec;stroke-width:0.264583px;stroke-linecap:butt;stroke-linejoin:miter;stroke-opacity:1"
     d="m 155.25634,59.87446 c 0.39767,-0.90455 1.32803,-1.37938 2.24785,-1.58185 0.77809,-0.19776 1.41793,-0.83673 2.27424,-0.61376 1.02875,0.10025 2.03382,0.34086 3.04273,0.55428 0.61689,-0.23799 1.07532,0.48448 1.7011,0.38248 0.75235,0.13976 1.19693,0.84697 1.91759,1.07216 0.41559,0.24672 1.88448,0.7377 0.85377,1.1092 -0.71062,0.15016 -1.44165,0.24468 -2.05285,0.67787 -0.82441,0.31322 -1.74691,0.25555 -2.60156,0.49618 -2.3646,0.31549 -4.9085,0.28087 -7.05938,-0.87264 -0.4754,-0.2669 -0.38326,-0.77786 -0.32349,-1.22392 z" />
  <path
     id="path124"
     style="fill:#000000;stroke:#000000;stroke-width:0.264583px;stroke-linecap:butt;stroke-linejoin:miter;stroke-opacity:1"
     d="m 158.78114,57.90016 c -0.57576,0.33823 -0.76051,0.9962 -0.29575,1.5155 0.25877,0.69262 0.72995,1.40693 1.51751,1.52971 0.79573,0.22403 1.68278,0.34399 2.44275,-0.0653 0.75791,-0.25956 1.17339,-1.18993 0.65951,-1.86673 -0.65846,-0.94964 -1.68492,-1.65817 -2.80247,-1.95359 -0.56061,-0.224 -1.29798,-0.072 -1.444,0.59139 -0.0301,0.0816 -0.0553,0.16493 -0.0776,0.24898 z" />
  <path
     id="path132"
     style="fill:#ececec;stroke:#ececec;stroke-width:0.264583px;stroke-linecap:butt;stroke-linejoin:miter;stroke-opacity:1"
     d="m 124.42051,60.36249 c 1.35478,-1.64064 3.58557,-2.13648 5.6231,-2.0749 1.05197,0.0204 2.10637,-0.0864 3.1544,-0.0577 1.11157,0.29554 1.96795,1.1545 2.9164,1.75984 0.87634,0.90996 -0.61448,1.4063 -1.30787,1.62678 -0.85534,0.48488 -1.81274,0.73471 -2.79069,0.81219 -1.62659,0.0757 -3.22795,1.13571 -4.84376,0.4548 -1.19188,-0.4619 -2.09956,-1.45012 -2.75158,-2.52099 z" />
  <path
     id="path139"
     style="fill:#000000;stroke:#000000;stroke-width:0.264583px;stroke-linecap:butt;stroke-linejoin:miter;stroke-opacity:1"
     d="m 128.70942,58.09981 c -0.58489,0.7806 -0.55567,1.99368 0.19961,2.65679 0.63263,0.59776 1.6266,0.90074 2.45839,0.5798 0.55988,-0.26328 1.03362,-0.68183 1.61573,-0.90362 0.66594,-0.34114 1.09726,-1.31603 0.58478,-1.9537 -0.6733,-0.68882 -1.70589,-0.78578 -2.61748,-0.82065 -0.76232,-0.003 -1.55766,0.0807 -2.24103,0.44138 z" />
  <path
     id="path146"
     style="fill:#e9c6af;fill-opacity:1;stroke:#e9c6af;stroke-width:0.264583px;stroke-linecap:butt;stroke-linejoin:miter;stroke-opacity:1"
     d="m 140.61487,58.74312 c -1.57972,0.79823 -1.73041,2.80359 -2.40573,4.24744 -1.24907,2.88134 -1.80564,5.97546 -2.5144,9.01664 -0.23574,1.58485 -0.62465,3.14206 -0.93826,4.70751 -0.10815,1.22426 0.65297,2.4684 1.71006,3.03721 1.67512,0.14511 2.85211,1.92666 4.5562,1.51188 1.72901,-0.544 3.49707,-1.03428 5.32863,-0.7711 2.05255,0.24181 4.04598,-1.19344 4.60418,-3.15031 0.76116,-1.35252 -0.18133,-2.7667 -1.05102,-3.77712 -1.06184,-2.08635 -0.59387,-4.51244 -1.00774,-6.74973 -0.14596,-1.20559 0.2449,-2.54057 -0.56084,-3.58716 -0.58308,-1.96711 -1.81267,-4.08222 -4.00219,-4.47249 -1.29118,-0.56311 -2.42546,-0.72605 -3.71889,-0.0128 z" />
  <path
     id="path152"
     style="fill:#e9c6af;fill-opacity:1;stroke:#e9c6af;stroke-width:0.264583px;stroke-linecap:butt;stroke-linejoin:miter;stroke-opacity:1"
     d="m 132.20446,91.56761 c 1.52733,0.4244 3.22805,-0.0556 3.9409,-1.55246 1.09665,-1.07132 2.78867,-1.65185 4.29413,-1.33673 1.40249,1.14601 3.16217,1.23395 4.67998,0.18096 2.08712,-0.88552 4.17932,0.46223 5.86793,1.57868 1.19475,0.97067 4.07825,1.35479 4.74871,1.3611 -2.16667,0.0488 -3.47598,1.92432 -5.02167,3.14057 -1.99692,1.4215 -4.53146,1.44584 -6.85606,1.08801 -3.24559,-0.24755 -7.01945,0.004 -9.52789,-2.46195 -0.64183,-0.75269 -1.84086,-0.97866 -2.12603,-1.99818 z" />
  <path
     id="path159"
     style="fill:#e9c6af;fill-opacity:1;stroke:#e9c6af;stroke-width:0.264583px;stroke-linecap:butt;stroke-linejoin:miter;stroke-opacity:1"
     d="m 140.07645,99.77966 c 0.15313,0.69461 0.81091,1.03306 1.30914,1.43447 0.23009,0.54487 0.55115,1.05089 1.16154,1.2172 0.47986,0.2715 1.06229,0.25086 1.53381,-0.0241 0.75655,-0.39071 1.44353,-0.93217 1.99658,-1.57805 0.45426,-0.51597 -0.34915,-0.73093 -0.73781,-0.80634 -1.28552,-0.32119 -2.60497,-0.56383 -3.93361,-0.58561 -0.46154,0.0289 -0.88828,0.2238 -1.32965,0.34242 z" />
  <path
     id="path166"
     style="fill:#ffe6d5;fill-opacity:1;stroke:#ffe6d5;stroke-width:0.264583px;stroke-linecap:butt;stroke-linejoin:miter;stroke-opacity:1"
     d="m 186.01822,64.66602 c 2.08024,-1.64862 4.09837,-3.52215 6.6822,-4.33322 1.46695,-0.87909 3.47866,-1.46389 4.98367,-0.35545 1.37381,1.88769 1.42092,4.37884 2.23436,6.52042 0.6002,2.37891 -0.43801,4.73331 -1.44544,6.83952 -0.53822,2.95398 0.27625,6.30501 -1.6639,8.87902 -0.76922,1.33107 -2.13285,2.27914 -2.52449,3.80094 -0.69055,1.57831 -2.62339,3.00544 -4.33497,2.07822 -1.38891,-1.06194 -3.75957,-1.46243 -4.00196,-3.51501 -0.58487,-1.56668 -0.27615,-3.18821 0.3682,-4.66811 0.60499,-2.57524 0.36658,-5.30633 -0.39053,-7.82068 0.002,-1.30701 0.18922,-2.61175 -0.08,-3.92324 0.098,-1.16217 0.4339,-2.32573 0.17286,-3.50241 z" />
  <path
     id="path176"
     style="fill:#e9c6af;fill-opacity:1;stroke:#e9c6af;stroke-width:0.264583px;stroke-linecap:butt;stroke-linejoin:miter;stroke-opacity:1"
     d="m 189.96205,73.2509 c 0.26763,-1.02091 0.74487,-2.03993 1.54736,-2.74651 0.42354,-0.40177 1.13951,-0.26957 1.35695,0.28192 0.65842,1.30747 1.01556,2.76036 1.16078,4.21288 0.14576,0.39087 -0.0525,1.35259 -0.51804,0.66864 -0.56869,-0.62742 -0.8974,-1.46415 -1.5629,-1.99969 -0.46935,-0.15903 -0.78089,0.3557 -0.90312,0.73418 -0.2102,0.5413 -0.28044,1.14072 -0.60205,1.63543 -0.5525,0.30474 -0.66647,-0.60041 -0.67556,-0.97417 0.003,-0.61475 0.25392,-1.19168 0.19658,-1.81268 z" />
  <path
     id="path183"
     style="fill:#484537;stroke:#484537;stroke-width:0.264583px;stroke-linecap:butt;stroke-linejoin:miter;stroke-opacity:1"
     d="m 136.99182,20.9911 c 2.65345,-0.71661 6.61635,-1.1964 9.06058,0.70897 4.81222,2.22413 10.19182,1.39927 15.27632,0.94962 3.48478,-0.27804 6.72858,-1.63726 10.09872,-2.40007 4.07608,-0.55641 8.11653,1.20748 11.49216,3.33786 1.88766,1.22169 4.27675,1.79897 6.50072,1.67687 0.87874,-2.65001 -1.77123,-4.88694 -3.04402,-7.02026 -2.55193,-3.31872 -6.21905,-5.94952 -10.4802,-6.35951 -4.17475,-0.6847 -9.05177,-0.93292 -11.94568,-4.4655996 -2.3286,-1.80533 -6.58782,-3.28533 -9.49522,-2.86061 -3.04013,1.34499 -5.47132,2.91199 -7.85721,5.40121 -3.05171,2.7260296 -6.13188,5.5430996 -8.26079,9.0824096 -0.25191,0.76216 -1.37421,1.15751 -1.34538,1.94911 z" />
  <path
     id="path189"
     style="fill:#4d4d4d;stroke:#4d4d4d;stroke-width:0.264583px;stroke-linecap:butt;stroke-linejoin:miter;stroke-opacity:1"
     d="m 124.46981,14.62084 c -0.43862,2.28843 1.00637,4.35687 1.38064,6.54851 1.26053,2.02399 3.93341,0.8854 5.85483,0.8294 2.64584,-0.45695 5.2923,-1.016 7.98706,-1.02001 2.06459,-0.16472 2.02756,-2.55101 3.32954,-3.63896 1.64953,-1.3011 2.23234,-3.39946 3.74464,-4.82 1.53955,-2.12647 2.9526,-4.3804896 5.1292,-5.9489196 1.2667,-1.32995 4.62803,-1.67888 5.28677,-1.99625 -2.18617,-0.0973 -4.37633,0.0967 -6.56561,-0.0121 -3.22224,-0.066 -5.98683,1.7964 -8.57864,3.47723 -0.42246,-2.08302 0.95316,-4.35394 3.10445,-4.70941 1.99689,-0.6048 4.16557,-0.92076 5.87489,0.10306 -1.74241,-2.23395 -4.87745,-1.53074 -7.23487,-0.9667 -2.234,0.49079 -4.41696,1.70407 -6.49948,0.24468 -2.09648,-0.028 -3.74796,1.75051 -5.45805,2.782 -3.07921,1.79768 -5.59965,4.7910396 -6.3443,8.3157696 -0.21202,0.40439 -0.64975,0.57966 -1.01107,0.8117 z" />
  <path
     id="path199"
     style="fill:#000000;stroke:#000000;stroke-width:0.264583px;stroke-linecap:butt;stroke-linejoin:miter;stroke-opacity:1"
     d="m 113.82147,60.29594 c -0.0113,2.24598 2.47718,1.64907 3.56254,2.51048 0.36221,1.77985 0.79568,3.62858 2.1811,4.92729 1.50867,2.00099 3.70876,3.6621 6.18067,4.18954 2.40702,0.20688 4.92189,0.20274 7.25912,-0.46627 2.26836,-0.85497 4.83526,-2.29046 5.16899,-4.95454 0.41525,-1.81527 0.54794,-4.06411 2.23921,-5.19818 0.99284,-1.98549 3.14318,-1.39202 4.80339,-1.76515 0.5711,-1.4078 0.4466,-3.59616 -0.83918,-4.6079 -1.7124,-0.7354 -3.95461,-0.13509 -5.16465,1.23413 -0.99188,-0.89327 -2.07289,-2.57851 -3.34395,-3.57057 -1.50131,-1.39303 -3.37441,-2.7377 -5.53997,-2.39385 -1.98772,-0.21334 -4.12445,-0.59446 -5.92154,0.57354 -2.15348,1.29413 -5.08136,1.92245 -6.08228,4.52109 -0.49007,0.83366 -0.59365,4.33982 0.81634,2.29303 1.61642,-2.59813 4.08193,-4.84452 7.08516,-5.63356 2.48346,-0.25638 5.04423,-0.0359 6.97552,1.74307 2.24143,1.36848 3.602,3.89111 3.27248,6.52667 -0.12707,2.4797 0.48001,5.57832 -1.78243,7.31805 -1.93701,1.10959 -4.08565,2.1167 -6.34933,2.09549 -2.81691,-0.66224 -6.20693,-0.7629 -8.02934,-3.3687 -1.37019,-2.54365 -1.4238,-5.68306 -0.71032,-8.44237 0.93456,-1.23227 3.84827,-4.83681 0.55293,-4.82566 -2.13063,1.36291 -2.01464,4.20788 -2.85391,6.31457 -0.96186,0.84926 -2.70395,-0.28667 -3.48055,0.9798 z" />
  <path
     id="path205"
     style="fill:#000000;stroke:#000000;stroke-width:0.264583px;stroke-linecap:butt;stroke-linejoin:miter;stroke-opacity:1"
     d="m 169.94711,59.05368 c 2.00974,-0.99959 5.51464,1.27931 3.64759,3.38954 -2.66592,-0.49843 -4.82166,0.69878 -5.43479,3.50808 -0.961,3.14698 -4.0834,4.53513 -6.90645,5.60258 -2.74179,0.81814 -5.90546,0.33444 -8.42476,-0.95588 -2.27033,-2.35484 -4.84621,-4.69967 -5.92281,-7.91517 -0.62538,-2.7906 -2.86686,-3.59609 -5.34861,-3.07853 -2.19834,-1.35726 -0.83372,-4.87311 1.64389,-4.79612 2.37632,1.12406 4.71449,0.56881 6.05285,-1.75055 2.31645,-2.19888 5.46615,-3.63551 8.71025,-3.07977 2.39044,0.0557 5.00092,0.15446 6.83407,1.92939 1.17868,1.14931 4.6415,4.99741 1.91677,5.57869 -2.53789,-0.9195 -2.99109,-4.24065 -5.65472,-5.02498 -2.36398,-0.96594 -4.94304,0.053 -7.33542,0.4309 -2.39998,1.34178 -4.85569,3.46442 -4.79354,6.46135 -0.52815,3.76506 2.06663,7.77064 5.87352,8.4757 2.41305,1.05126 4.98148,0.24779 7.47441,0.19143 3.02225,-0.90243 3.85938,-4.55672 4.04745,-7.32825 0.21105,-2.27159 -3.98762,-5.59595 0.16812,-6.32994 2.28927,0.53065 2.33103,3.08575 3.45218,4.69153 z" />
  <path
     id="path216"
     style="fill:#f2f2f2;stroke:#f2f2f2;stroke-width:0.264583px;stroke-linecap:butt;stroke-linejoin:miter;stroke-opacity:1"
     d="m 129.35031,126.24643 c 2.68509,-1.21905 5.00201,1.11898 7.31204,1.99361 2.44971,0.64294 4.74855,1.78269 7.29985,1.99806 2.44595,0.48405 4.96581,0.5388 7.41174,0.0782 2.71223,-0.085 5.61271,-0.3593 8.14509,0.78325 2.65345,1.69113 5.81537,3.20086 6.98698,6.3585 1.29817,2.30682 1.02548,5.14626 -0.5078,7.26111 -1.65612,2.52839 -3.85744,4.65282 -5.42632,7.24525 -2.19348,2.87132 -6.28793,3.22741 -9.54837,2.33314 -2.87914,-1.13626 -5.47217,2.08632 -8.34543,0.86851 -2.1442,-0.95612 -4.40729,-1.62811 -6.77557,-1.36749 -3.21872,0.1387 -6.5773,1.12117 -9.67713,-0.23128 -2.04496,-0.70535 -4.06888,0.60587 -6.15612,0.31709 -2.17688,0.10641 -4.95698,-1.38542 -4.03104,-3.94028 0.64031,-2.09522 2.10106,-3.81191 2.95122,-5.82602 0.7614,-1.75406 2.12247,-3.18439 2.61309,-5.04745 1.29174,-2.51755 1.61353,-5.44087 3.20048,-7.809 1.08678,-1.72692 3.60172,-1.97009 4.20235,-4.11923 0.12964,-0.29277 0.24217,-0.59283 0.34494,-0.89597 z" />
  <path
     id="path222"
     style="fill:#afc6e9;stroke:#afc6e9;stroke-width:0.264583px;stroke-linecap:butt;stroke-linejoin:miter;stroke-opacity:1"
     d="m 136.94217,131.81441 c -1.1836,2.1262 -2.05207,4.43335 -2.43987,6.83959 -0.41828,0.79709 -0.16796,1.46672 0.75937,1.49467 1.25806,0.42328 2.64375,0.69367 3.692,1.55114 0.72619,0.31684 0.55102,1.55164 1.17221,1.6948 0.29655,-0.94628 0.5363,-2.00858 1.38994,-2.63747 1.00363,-1.04373 2.48392,-1.30655 3.63675,-2.11369 0.65301,-0.67386 1.23798,-1.4539 1.71036,-2.26877 0.42689,-1.02172 -0.55318,-1.79435 -1.37161,-2.17323 -1.65548,-0.95893 -2.53573,-3.08243 -4.5701,-3.40211 -0.95595,0.0332 -1.74488,-1.08107 -2.65297,-0.64438 -0.55856,0.43496 -1.0024,1.03347 -1.32608,1.65945 z" />
  <path
     id="path232"
     style="fill:#87aade;stroke:#87aade;stroke-width:0.264583px;stroke-linecap:butt;stroke-linejoin:miter;stroke-opacity:1"
     d="m 136.79428,139.68942 c 2.03616,-0.22973 4.40451,0.62441 5.16505,2.67801 0.84257,2.0276 0.79109,4.35171 0.28852,6.45579 -0.61197,1.80674 -1.89581,3.42239 -1.87132,5.40943 0.0687,1.31421 -0.92881,2.35143 -2.2568,2.26359 -3.44518,0.43225 -6.93207,0.33983 -10.39729,0.35529 -1.20763,-0.23794 -2.98017,0.24834 -3.75522,-0.89848 -0.42085,-1.51056 0.8249,-2.82047 1.42637,-4.07875 0.373,-1.22459 1.37742,-2.0011 2.33753,-2.7402 1.1174,-0.92451 1.2317,-2.34594 1.84921,-3.55885 0.70467,-1.01964 1.392,-2.05821 2.19134,-3.01202 0.39089,-1.15041 1.5049,-1.85825 1.95001,-2.95957 0.91489,-0.66316 2.10468,-0.1851 3.0726,0.0858 z" />
  <path
     id="path238"
     style="fill:#ececec;fill-opacity:1;stroke:#ececec;stroke-width:0.264583px;stroke-linecap:butt;stroke-linejoin:miter;stroke-opacity:1"
     d="m 130.28189,112.69911 c 1.2006,1.48349 -0.0722,3.19542 0.16698,4.66233 1.05671,1.91197 2.03667,3.89238 3.46322,5.57445 1.22768,1.02255 2.11241,2.4284 3.65195,3.04032 1.40116,0.73251 3.5611,1.0372 3.83572,2.91857 -0.5104,2.08184 -3.05416,2.91792 -3.9218,4.88016 -1.36884,2.08037 -2.91065,4.06562 -3.84955,6.39057 -0.67283,1.26916 -1.36944,2.5006 -2.09014,3.74552 -0.29276,1.33192 -1.67818,-1.5603 -2.62341,-1.98139 -2.37452,-2.15229 -2.56298,-5.62065 -2.318,-8.60073 0.19902,-2.64864 -0.13708,-5.35684 0.7159,-7.92322 0.57337,-2.92269 1.25277,-5.90225 0.80827,-8.89316 -0.0619,-1.1729 1.41043,-2.84797 2.16086,-3.81342 z" />
  <path
     id="path244"
     style="fill:#ececec;stroke:#ececec;stroke-width:0.264583px;stroke-linecap:butt;stroke-linejoin:miter;stroke-opacity:1"
     d="m 143.40019,128.19856 c -2.48309,2.44363 -0.76705,5.65245 1.17987,7.68894 2.8011,3.51081 5.0163,7.43114 6.81166,11.54052 2.93108,0.40097 5.31975,-2.45656 8.32107,-2.81026 5.42636,-1.49214 10.90809,-3.89269 14.47178,-8.43269 2.88722,-2.54365 5.43598,-5.49174 7.81279,-8.49894 1.01219,-2.19725 1.67569,-4.54177 2.62425,-6.76804 0.82927,-2.82686 -0.10488,-5.75553 -0.13135,-8.63216 -0.31574,-2.07083 -0.96161,-7.44771 -3.77446,-5.72784 -2.38448,2.34014 -4.41393,5.12557 -7.43595,6.73897 -2.60339,1.94427 -5.47087,3.49811 -8.23911,5.1642 -3.33834,1.40854 -6.69005,2.85266 -9.5795,5.06575 -2.60067,1.32368 -5.36629,2.25958 -7.6915,4.09586 -1.32487,0.81771 -2.88591,0.77591 -4.36955,0.57569 z" />
  <path
     id="path254"
     style="fill:#6c5d53;fill-opacity:1;stroke:#6c5d53;stroke-width:0.264583px;stroke-linecap:butt;stroke-linejoin:miter;stroke-opacity:1"
     d="m 84.316674,152.13417 c 1.400908,-3.25952 3.524469,-6.1352 6.218127,-8.43815 3.867548,-3.35098 6.872922,-7.76013 11.444199,-10.23706 2.92055,-1.31899 6.08838,-2.00163 9.12436,-3.02353 3.1487,-0.93023 6.32254,-1.83091 9.51396,-2.51163 3.87247,-2.12223 3.13081,3.62703 2.92503,5.95644 -0.93907,4.37794 -3.88292,7.93458 -6.00353,11.78712 -0.23233,2.4054 1.47612,4.92844 0.25068,7.22642 -1.92855,1.72871 -4.80671,1.78184 -7.21654,2.44188 -2.75325,0.38124 -5.4564,-0.70226 -8.22392,-0.31742 -2.445747,0.21046 -4.90397,0.27762 -7.350224,0.29179 -2.2455,0.82727 -4.555906,1.09208 -6.786539,0.13542 -1.789965,-0.0895 -4.941834,1.321 -4.354789,-1.86434 0.06253,-0.50366 0.193578,-1.00937 0.459186,-1.44694 z" />
  <path
     id="path260"
     style="fill:#6c5d53;stroke:#6c5d53;stroke-width:0.264583px;stroke-linecap:butt;stroke-linejoin:miter;stroke-opacity:1"
     d="m 185.37736,128.3982 c -0.19466,-2.57343 1.72897,-4.94666 3.55243,-6.61373 2.78878,-2.28526 6.75131,-1.01039 9.65097,0.38823 2.83082,1.50575 5.69347,2.98331 8.80375,3.80708 5.14389,1.89333 10.27245,4.24938 14.13145,8.25685 4.478,3.93668 8.71297,8.2623 11.80083,13.39978 1.57986,3.10812 -1.82214,5.35519 -4.5697,5.44614 -2.98895,0.26289 -5.99243,1.49838 -8.66513,-0.21444 -4.26147,-0.7348 -8.22824,2.08416 -12.5161,1.41015 -7.52018,-0.46348 -14.96244,-1.93246 -22.51902,-1.8563 -4.37338,-0.062 -8.68708,0.79204 -12.89932,1.87732 -2.73364,0.61748 -5.41349,-1.98624 -4.79519,-4.73244 0.59685,-3.43218 4.43503,-4.518 6.35574,-7.07643 3.33912,-3.23062 6.2123,-7.0191 7.9252,-11.35946 0.83963,-1.31538 2.05432,-2.70491 3.74409,-2.73275 z" />
  <path
     id="path268"
     style="fill:#483e37;stroke:#483e37;stroke-width:0.264583px;stroke-linecap:butt;stroke-linejoin:miter;stroke-opacity:1"
     d="m 180.27502,104.41822 c 0.83196,3.35906 0.31064,6.88662 0.23768,10.30777 -0.28152,4.25777 -2.02121,8.21662 -4.3005,11.7559 -3.46603,6.1257 -7.29977,12.29936 -13.08462,16.51159 -3.57121,2.34041 -6.27923,5.71491 -8.19405,9.49679 -3.03505,3.53786 3.34809,1.87624 5.31338,2.2425 4.05089,0.0154 8.08447,-0.48038 12.1204,-0.021 4.72389,0.18374 9.43551,-0.80194 14.12962,0.0448 2.13946,-0.67511 6.95141,3.43565 6.0547,-0.6519 -2.46924,-3.29969 -2.3713,-7.69318 -4.47536,-11.19248 -2.26542,-3.79527 -0.94444,-8.17425 -1.16141,-12.30343 -0.12797,-4.22324 3.05101,-7.99522 7.16589,-8.75744 1.49745,-0.38329 3.73667,-0.53806 1.31555,-2.11972 -2.37988,-2.90188 -4.7695,-5.70358 -7.53401,-8.25197 -2.28809,-2.46891 -2.68504,-6.42973 -5.75795,-8.18095 -0.76061,-0.20006 -2.29592,-0.0576 -1.82932,1.11948 z" />
  <path
     id="path274"
     style="fill:#483e37;fill-opacity:1;stroke:#483e37;stroke-width:0.264583px;stroke-linecap:butt;stroke-linejoin:miter;stroke-opacity:1"
     d="m 128.11269,119.93614 c 1.4687,3.01149 -1.47714,6.76178 -0.29048,10.00487 0.13081,2.89856 1.14231,5.78873 0.72691,8.68143 -2.22963,4.67277 -4.72045,9.24768 -6.72386,14.0369 -0.0948,1.74864 -0.086,4.58539 -2.67609,3.48754 -4.84802,-0.34845 -9.68821,0.24048 -14.52821,0.32079 -2.08254,-0.45835 -5.771094,0.15359 -6.82618,-1.41529 2.7983,-2.71539 5.69861,-5.33372 8.90737,-7.56203 3.97999,-3.02704 6.51694,-7.4234 9.84929,-11.07148 2.27571,-2.88626 2.73445,-6.82304 5.28951,-9.54158 1.58268,-2.43195 3.23423,-5.98504 6.27174,-6.94115 z" />
</svg>
