<?xml version="1.0" encoding="UTF-8" standalone="no"?>
<svg
   xmlns:dc="http://purl.org/dc/elements/1.1/"
   xmlns:cc="http://creativecommons.org/ns#"
   xmlns:rdf="http://www.w3.org/1999/02/22-rdf-syntax-ns#"
   xmlns:svg="http://www.w3.org/2000/svg"
   xmlns="http://www.w3.org/2000/svg"
   xmlns:sodipodi="http://sodipodi.sourceforge.net/DTD/sodipodi-0.dtd"
   xmlns:inkscape="http://www.inkscape.org/namespaces/inkscape"
   width="1200"
   height="600"
   viewBox="0 0 317.5 158.75"
   version="1.1"
   id="svg8"
   sodipodi:docname="ul-hilbert.svg"
   inkscape:version="1.0.1 (3bc2e813f5, 2020-09-07)">
  <sodipodi:namedview
     pagecolor="#ffffff"
     bordercolor="#666666"
     borderopacity="1"
     objecttolerance="10"
     gridtolerance="10"
     guidetolerance="10"
     inkscape:pageopacity="0"
     inkscape:pageshadow="2"
     inkscape:window-width="1920"
     inkscape:window-height="1061"
     id="namedview36"
     showgrid="false"
     inkscape:zoom="1.4"
     inkscape:cx="600"
     inkscape:cy="300"
     inkscape:window-x="0"
     inkscape:window-y="19"
     inkscape:window-maximized="0"
     inkscape:current-layer="svg8" />
  <defs
     id="defs2" />
  <metadata
     id="metadata5">
    <rdf:RDF>
      <cc:Work
         rdf:about="">
        <dc:format>image/svg+xml</dc:format>
        <dc:type
           rdf:resource="http://purl.org/dc/dcmitype/StillImage" />
        <dc:title></dc:title>
      </cc:Work>
    </rdf:RDF>
  </metadata>
  <path
     id="path12"
     style="fill:#deaa87;fill-opacity:1;stroke:#deaa87;stroke-width:0.264583px;stroke-linecap:butt;stroke-linejoin:miter;stroke-opacity:1"
     d="m 141.98671,72.5836 c -0.69957,7.17256 -0.38375,14.41771 -1.34481,21.56588 -0.10611,3.44933 1.62424,6.58133 2.70004,9.76836 1.0924,3.14732 3.57498,5.62473 6.60233,6.95244 2.95879,1.44879 6.1448,2.39618 9.41477,2.77249 2.89281,0.56517 5.86174,1.41567 8.80279,0.63608 3.84704,-0.31297 7.50793,-1.948 10.30386,-4.61051 1.82026,-1.36764 1.61742,-3.88709 2.47568,-5.79554 1.13365,-1.78516 1.76326,-3.89111 3.13073,-5.56196 1.14454,-1.64435 3.24724,-3.85622 1.9081,-5.83128 -2.74854,-0.91569 -4.28847,2.21481 -6.67153,2.86477 -2.60946,0.57083 -5.31463,0.82545 -7.98671,0.81034 -2.76597,-0.26089 -5.17681,-1.84858 -7.89953,-2.33626 -3.60957,-1.11675 -6.78118,-3.27421 -9.9668,-5.24015 -2.40963,-2.04715 -2.70825,-5.46591 -4.21102,-8.09038 -0.60529,-2.40318 -2.05114,-4.50542 -4.18598,-5.79355 -1.04532,-0.66422 -1.86175,-1.73372 -3.07192,-2.11073 z" />
  <path
     id="path29"
     style="fill:#786721;stroke:#786721;stroke-width:0.264583px;stroke-linecap:butt;stroke-linejoin:miter;stroke-opacity:1"
     d="m 148.51868,43.16874 c -9.54907,-1.77347 -19.76846,-3.66405 -29.14468,-0.32421 -2.52141,5.45274 3.47626,11.14737 7.37194,14.53214 5.83759,4.36637 12.17851,8.00369 19.17521,10.16071 12.3324,4.51545 25.76028,4.92715 38.19477,9.17309 9.93968,2.68805 20.71097,4.84741 30.72038,1.24831 4.429,-1.28842 6.61752,-8.25849 3.01413,-11.40115 -8.62703,-4.13484 -16.69162,-9.38312 -24.7708,-14.47287 -8.14715,-2.9631 -16.59107,-5.12633 -24.90986,-7.58933 -5.58747,-0.90462 -11.13534,-2.5942 -16.81266,-2.69538 -1.12293,0.006 -2.21282,0.36349 -2.83843,1.36869 z" />
  <path
     id="path35"
     style="fill:#e9c6af;fill-opacity:1;stroke:#e9c6af;stroke-width:0.264583px;stroke-linecap:butt;stroke-linejoin:miter;stroke-opacity:1"
     d="m 140.03944,44.0117 c -4.99101,1.04966 -3.00307,7.70522 -3.34201,11.37163 0.33465,6.51969 0.0397,13.44087 3.67266,19.18842 2.55315,4.52007 2.56172,10.08818 5.88356,14.24767 3.33417,4.85976 8.42119,7.99332 12.56719,12.06946 6.04662,4.97047 15.04262,3.14833 20.6007,-1.6636 3.96845,-1.91516 7.89791,-4.81618 8.78741,-9.41636 2.03252,-8.16741 5.35659,-15.90178 7.97333,-23.87621 0.41169,-3.57772 1.52397,-7.47185 0.2539,-10.97508 -4.64514,-6.40052 -13.16456,-6.97388 -19.99172,-9.80368 -8.23248,-2.91313 -16.6621,-6.83517 -25.62636,-5.46029 -3.36783,1.52168 -8.53259,2.01037 -10.8047,4.18523 l 0.026,0.13281 z" />
  <path
     id="path41"
     style="fill:#deaa87;fill-opacity:1;stroke:#deaa87;stroke-width:0.264583px;stroke-linecap:butt;stroke-linejoin:miter;stroke-opacity:1"
     d="m 192.88678,55.3251 c 2.59718,2.22009 5.03989,0.29853 3.73843,9.12129 0.61801,4.00984 -3.28188,2.22875 -4.1083,-0.31355 -2.03622,-4.22302 -6.81646,-5.73036 -10.978,-6.98613 -3.99186,-0.84183 -7.8358,-2.48468 -11.98583,-2.46973 -6.52102,-0.75036 -13.17615,-2.04535 -19.68627,-0.46861 -4.26049,0.27379 -8.57129,1.21993 -12.81087,0.29251 -1.18036,-3.4239 -1.64478,-9.71097 2.66629,-11.16118 5.03234,-1.85999 10.5158,-1.29641 15.76176,-1.20722 4.69196,0.64641 9.32373,1.7798 13.87941,3.04729 6.01266,2.24786 11.943,4.83674 18.30854,5.94504 2.55319,0.26942 4.44496,1.71623 5.21484,4.20029 z" />
  <path
     id="path47"
     style="fill:#deaa87;stroke:#deaa87;stroke-width:0.264583px;stroke-linecap:butt;stroke-linejoin:miter;stroke-opacity:1"
     d="m 167.9764,68.7728 c -1.10472,1.26263 -1.789,3.04954 -3.48246,3.65895 -0.76817,0.50955 -1.57523,1.17129 -1.5853,2.17585 -0.13496,1.04174 -0.70738,2.15381 -0.0138,3.13375 0.64589,0.79991 1.1412,1.73151 2.04832,2.29246 1.53603,1.08775 3.43358,1.60425 5.28374,1.85562 2.02093,0.2953 4.10372,-0.16175 5.84365,-1.2179 0.9086,-0.23724 2.18233,-0.86336 1.67404,-2.02003 -0.57802,-1.65121 -2.10085,-2.9804 -2.00532,-4.84595 -0.12704,-1.82123 -1.39428,-3.37355 -1.32714,-5.23219 -0.0864,-1.2788 -1.43173,-1.88449 -2.57907,-1.71818 -1.48815,0.1058 -3.08923,0.50742 -3.85663,1.91762 z" />
  <path
     id="path61"
     style="fill:#ececec;fill-opacity:1;stroke:#ececec;stroke-width:0.264583px;stroke-linecap:butt;stroke-linejoin:miter;stroke-opacity:1"
     d="m 152.68435,62.33498 c 1.75294,-1.01385 3.77475,-1.50333 5.78075,-1.66842 1.05071,-0.10375 2.07539,0.23019 2.9796,0.74324 0.96706,0.49609 1.82619,1.17297 2.66278,1.85708 0.5654,0.46326 0.17082,1.28366 -0.46286,1.42198 -1.27477,0.49776 -2.61708,0.9307 -4.00588,0.81511 -1.53674,-0.0928 -3.00898,-0.58223 -4.50336,-0.91258 -1.04326,-0.24572 -1.97202,-0.96784 -2.3468,-1.98852 -0.0373,-0.0883 -0.0719,-0.17768 -0.10423,-0.26789 z" />
  <path
     id="path67"
     style="fill:#afc6e9;fill-opacity:1;stroke:#afc6e9;stroke-width:0.264583px;stroke-linecap:butt;stroke-linejoin:miter;stroke-opacity:1"
     d="m 155.91337,61.62512 c -0.002,0.74477 0.58869,1.29464 0.79546,1.97819 0.0871,0.40963 0.45749,0.60843 0.84183,0.65568 0.88964,0.15726 1.69646,-0.45261 2.20234,-1.12573 0.30084,-0.43291 0.59097,-0.96731 0.49997,-1.51013 -0.16121,-0.51502 -0.72324,-0.72101 -1.16042,-0.94778 -0.92801,-0.44937 -2.04816,-0.0727 -2.76787,0.59612 -0.13913,0.11551 -0.27467,0.23524 -0.41131,0.35365 z" />
  <path
     id="path74"
     style="fill:#ececec;stroke:#ececec;stroke-width:0.264583px;stroke-linecap:butt;stroke-linejoin:miter;stroke-opacity:1"
     d="m 178.41785,67.23745 c 1.17024,0.24188 1.9208,1.40635 3.13737,1.5257 1.23497,0.27853 2.49907,0.55162 3.77115,0.38171 0.8956,-0.10357 1.86913,-0.37766 2.4761,-1.07583 0.15554,-0.46696 0.0265,-0.97722 -0.0731,-1.44276 -0.23035,-0.58731 -0.80864,-0.925 -1.22589,-1.36906 -0.42176,-0.35855 -0.83138,-0.76597 -1.33481,-1.00141 -1.08528,-0.25651 -2.21821,-0.097 -3.31316,0.0202 -0.84858,0.14544 -1.79709,0.27716 -2.39643,0.96456 -0.38251,0.48144 -1.25274,0.7491 -1.20695,1.45028 0.0447,0.18534 0.11859,0.36201 0.16576,0.54664 z" />
  <path
     id="path80"
     style="fill:#afc6e9;stroke:#afc6e9;stroke-width:0.264583px;stroke-linecap:butt;stroke-linejoin:miter;stroke-opacity:1"
     d="m 180.7595,66.2614 c 0.0497,0.5311 0.2532,1.12344 0.78023,1.35271 0.44333,0.27732 0.99091,0.55143 1.51655,0.32911 0.79251,-0.33143 1.17903,-1.2332 1.22434,-2.04625 0.0386,-0.58914 -0.17816,-1.28662 -0.77288,-1.52004 -0.68986,-0.27251 -1.51121,-0.26144 -2.17783,0.0735 -0.51941,0.25187 -0.80117,0.86143 -0.67193,1.42239 0.0221,0.1322 0.0568,0.26261 0.10152,0.38862 z" />
  <path
     id="path95"
     style="fill:#deaa87;fill-opacity:1;stroke:#deaa87;stroke-width:0.264583px;stroke-linecap:butt;stroke-linejoin:miter;stroke-opacity:1"
     d="m 158.52615,87.04701 c 4.01094,-1.31781 8.48259,-1.54569 12.46547,3.8e-4 1.44962,0.39935 3.18957,0.31598 4.2227,1.61015 1.31765,0.84401 2.73349,1.75002 3.44891,3.18346 -1.26968,0.33941 -3.45363,-0.99133 -5.1301,-0.73146 -2.69297,0.17848 -5.56056,0.29911 -8.0306,-0.98528 -1.33547,-0.62165 -2.85551,-0.66355 -4.11689,-1.44151 -1.00493,-0.47898 -2.39909,-0.39244 -2.85949,-1.63574 z" />
  <path
     id="path102"
     style="fill:#e9c6af;stroke:#e9c6af;stroke-width:0.264583px;stroke-linecap:butt;stroke-linejoin:miter;stroke-opacity:1"
     d="m 188.69647,85.78256 c -0.0487,0.96698 1.06865,2.17912 2.01095,1.47769 1.01355,-0.92432 1.00954,-2.49468 2.02416,-3.43472 0.78426,-0.6139 1.07099,-1.59048 1.69171,-2.33321 0.87752,-1.03994 2.14822,-1.82642 2.65442,-3.13291 0.1228,-0.9535 0.0184,-1.92091 0.0559,-2.88382 -0.20568,-1.33814 -0.56595,-2.65052 -0.72857,-4.0002 -0.30888,-0.92527 -0.63558,-2.23194 -1.60427,-2.64413 -1.05616,0.54879 -0.85001,2.04426 -1.28626,3.02335 -0.99352,3.0479 -2.66091,5.80978 -3.99734,8.70942 -0.66959,1.33103 -1.54882,2.70828 -1.48959,4.2477 0.10961,0.38956 0.42273,0.66692 0.66885,0.97083 z" />
  <path
     id="path108"
     style="fill:#deaa87;fill-opacity:1;stroke:#deaa87;stroke-width:0.264583px;stroke-linecap:butt;stroke-linejoin:miter;stroke-opacity:1"
     d="m 197.4715,76.62092 c -0.35589,0.50491 -1.26158,1.0308 -1.63225,0.24562 -0.39827,-0.38658 -0.25823,-2.1379 -1.03794,-1.43628 -0.58456,1.13427 -0.76144,2.49762 -1.70508,3.42719 -0.51098,0.96103 -0.54636,-0.78367 -0.65526,-1.18495 -0.1442,-1.17649 0.14968,-2.38037 0.7929,-3.37183 0.26439,-0.83562 0.17312,-1.75591 0.4597,-2.60302 0.15852,-0.96049 0.60407,-1.87414 1.23977,-2.59704 0.97795,-0.1805 1.10814,1.18961 1.38281,1.83916 0.4404,1.64703 0.48529,3.37587 1.0118,5.00393 0.054,0.22436 0.10359,0.44994 0.14355,0.67722 z" />
  <path
     id="path119"
     style="fill:#e9c6af;fill-opacity:1;stroke:#e9c6af;stroke-width:0.264583px;stroke-linecap:butt;stroke-linejoin:miter;stroke-opacity:1"
     d="m 138.46191,61.35892 c -1.95451,-1.48297 -3.64009,-3.57599 -6.11489,-4.17377 -1.45666,0.0737 -1.63381,1.83866 -2.17229,2.86355 -0.87572,2.73579 -0.11453,5.66997 0.66349,8.33673 0.61729,1.82146 1.17617,3.716 2.4224,5.22513 1.17339,1.74238 1.172,4.02409 2.44139,5.72424 1.32646,1.33616 2.94765,0.32517 4.01093,-0.75248 0.6399,-0.92828 2.70443,-0.55029 1.87708,-2.14626 -0.27,-1.44043 -1.2253,-2.60816 -1.50942,-4.04658 -0.55151,-2.00222 -0.81764,-4.06723 -1.33158,-6.07712 -0.37296,-1.63576 0.12785,-3.32639 -0.28711,-4.95344 z" />
  <path
     id="path125"
     style="fill:#deaa87;fill-opacity:1;stroke:#deaa87;stroke-width:0.264583px;stroke-linecap:butt;stroke-linejoin:miter;stroke-opacity:1"
     d="m 130.96864,59.22934 c 0.3493,-1.17544 1.52173,-2.79449 2.90872,-2.13732 0.97477,0.63488 1.47861,1.7808 2.53941,2.30705 1.25348,1.0989 1.11645,2.88494 1.55913,4.34978 0.65643,0.97896 0.63555,2.23224 0.0486,3.24386 -0.74734,1.06244 0.15114,2.57964 -0.0931,3.49901 -0.96801,0.30302 -2.11614,-0.18573 -2.14945,-1.30812 -0.10117,-0.9729 -0.58839,-2.14123 0.0143,-3.02084 0.96337,-0.62182 1.29094,-1.7516 0.84605,-2.82104 -0.51328,-1.83372 -1.29199,-3.95095 -3.18527,-4.74889 -0.86782,-0.28084 -1.81906,0.0673 -2.48846,0.63651 z" />
  <path
     id="path132"
     style="fill:#ececec;stroke:#ececec;stroke-width:0.264583px;stroke-linecap:butt;stroke-linejoin:miter;stroke-opacity:1"
     d="m 146.59606,88.48891 c 0.4037,1.44157 -0.75485,3.16112 0.45261,4.38891 0.82851,0.44001 0.98444,1.95097 1.93817,0.7839 1.22688,0.55354 0.20184,3.47856 2.12753,3.06758 1.19303,-0.31752 1.40851,1.35419 1.7975,1.76112 0.48372,-1.92345 0.18678,1.28651 1.22915,1.14921 0.74767,0.62323 1.8934,0.3523 1.9196,1.73949 0.86701,1.03336 1.05186,2.4094 2.25982,2.57492 0.79341,-0.29135 1.60088,0.0825 2.54368,-0.0417 0.71029,1.36264 0.32407,3.1914 1.86721,4.19078 1.31184,1.48252 2.04721,-1.63252 2.99204,-1.63591 -0.10125,1.41974 1.37599,1.52592 2.1853,0.74199 0.45819,0.65122 1.32291,-0.3261 1.39461,0.6357 1.0692,-0.81392 2.32134,-1.31628 3.18681,-2.35205 0.8416,0.66747 1.48983,-0.8774 2.24249,-0.94742 0.74311,-1.11636 2.04655,-1.13365 2.91607,-1.40696 0.97748,-0.33199 1.5721,-3.0446 2.41099,-2.26284 0.11419,-0.58224 0.76729,-2.14513 1.07803,-1.17767 0.2965,-0.88635 1.78156,-1.71571 2.19948,-1.93574 0.17248,1.11436 1.34193,-1.54696 1.20632,-2.14904 0.16549,-0.96736 -0.78481,-0.17664 -0.80752,-1.36326 -0.31501,-0.61455 -0.90556,0.63886 -0.96991,-0.50348 -0.93709,-0.38123 -0.37392,-2.4959 -1.49481,-3.39024 0.017,-1.11005 -0.54785,-1.98441 -1.13718,-0.83665 0.16582,-1.42949 -1.17865,-1.09395 -1.11547,0.18297 -0.443,1.30686 0.74808,3.82526 -1.24323,3.94013 0.0947,1.47583 -2.99375,1.8585 -3.17111,1.68683 0.0434,-0.68338 -1.0798,1.41332 -1.38175,-0.0125 -0.54947,-1.78203 -2.16874,1.03967 -2.42048,-0.79924 -0.28456,-1.16748 -0.70437,-2.35272 -2.06097,-1.78786 -0.92875,-0.68376 0.90361,-3.06816 -0.85864,-2.08649 -0.9184,0.14512 -1.53922,-1.07822 -2.31647,0.0293 -0.28568,1.44798 -1.48487,2.45545 -2.67635,3.19975 -0.86645,-0.57885 -1.90362,0.61518 -2.16877,-0.86761 -0.94602,-0.7608 -0.58244,-2.45067 -1.20857,-3.01589 -1.73682,0.80095 -1.81073,-1.79238 -3.19614,-1.98897 -0.64611,-1.29201 1.04754,-3.03671 -0.0388,-4.01579 -2.05139,-0.40296 -2.19888,2.77296 -3.09027,4.048 -0.50786,1.40434 -0.16944,-0.0524 -0.69388,-0.21778 -1.35978,0.0602 -2.58386,1.94604 -3.70525,0.316 -1.22586,-1.48626 -0.81899,0.78683 -2.19185,0.3586 z" />
  <path
     id="path138"
     style="fill:#cccccc;fill-opacity:1;stroke:#cccccc;stroke-width:0.264583px;stroke-linecap:butt;stroke-linejoin:miter;stroke-opacity:1"
     d="m 154.53302,82.566 c -0.97912,1.25047 -1.77409,3.34144 -2.2069,4.47305 0.75717,-0.0346 2.25495,-1.66392 1.32448,0.0129 0.64757,-0.25838 3.12419,-2.26639 2.11999,-0.32463 -0.35424,1.1363 1.34739,-1.21516 0.93872,0.45829 -0.15069,0.9133 1.98296,-1.4357 2.70358,0.1266 0.54383,0.80274 1.4673,-1.4687 1.41739,0.38821 0.58477,0.81011 1.5865,-2.06255 2.19842,-0.28628 0.7065,-0.91874 1.05564,-0.58879 1.57693,0.13855 0.51554,-0.45442 1.09885,-1.08158 1.37858,-0.10514 1.14012,-0.85744 1.52484,0.96782 2.80771,0.30311 0.74037,0.7154 0.71879,0.73678 1.42418,0.12102 0.55473,1.3084 0.88022,1.66658 1.67664,0.37822 0.81759,0.505 1.18292,2.50961 1.91604,0.76729 0.60575,-0.11533 0.90825,1.07555 1.87451,0.77998 0.49764,0.5315 0.9194,1.49579 1.51298,0.31164 0.68997,-0.61632 1.03178,1.89221 1.62021,0.53909 0.8109,0.58454 2.29065,1.66782 3.12741,1.36212 -0.40182,-0.73788 -1.00409,-1.97183 0.12597,-0.71525 1.37918,1.04329 -0.92689,-1.59444 -1.16257,-2.05305 -1.11752,-1.57013 -2.99231,-2.37914 -3.96461,-4.07706 -0.45063,-0.87619 -1.68121,-1.73158 -2.39382,-1.59795 -0.006,1.71722 -1.66441,-1.29866 -2.58675,-1.12883 -1.8691,0.0218 -3.17465,-1.2919 -5.07664,-1.14062 -1.49384,0.32003 -3.23462,-0.60618 -4.67103,0.12659 -0.85939,0.85554 -1.21914,-0.51801 -1.9672,0.37968 -1.5107,0.0975 -3.09502,0.0162 -4.58429,0.537 -0.36327,0.13526 -0.73725,0.241 -1.12993,0.22547 z" />
  <path
     id="path148"
     style="fill:#999999;stroke:#999999;stroke-width:0.264583px;stroke-linecap:butt;stroke-linejoin:miter;stroke-opacity:1"
     d="m 151.69839,61.40329 c -0.57216,1.04881 -1.30175,2.01378 -2.47111,2.14843 -0.94699,1.60925 1.75836,1.43879 1.1596,3.04939 0.28777,1.37424 1.39056,2.43466 2.06997,3.65886 2.25726,1.74679 5.24619,1.73686 7.96223,1.6274 2.04776,-0.0922 3.80891,-1.24341 5.27709,-2.58495 1.12701,-0.76953 1.65736,-1.99934 2.3758,-3.09876 1.15468,-1.2931 1.6722,-3.61725 0.30254,-4.94265 -0.45724,-0.56597 -1.95861,-1.3241 -1.87083,-1.5881 1.66121,-0.72537 3.50941,-0.21306 5.24288,-0.13718 0.95556,0.0244 2.70503,1.58179 2.26129,-0.343 -0.75404,-1.3052 -2.54475,-1.03593 -3.8197,-1.45642 -1.53265,-0.18552 -3.31043,-0.34406 -4.64065,0.56887 -1.77171,0.82573 -3.66831,-0.14762 -5.41137,-0.58074 -1.73296,-0.59069 -3.60879,0.16115 -5.32373,0.55822 -1.04972,0.26058 -2.77851,2.82268 -0.86123,2.66608 1.65933,-0.43984 2.93372,-1.98795 4.77334,-1.8007 1.4606,-0.0145 3.01052,-0.007 4.23371,0.9186 1.19277,0.74376 2.42199,1.48615 3.44711,2.45025 0.63677,1.18773 -0.50882,2.39183 -0.49673,3.62004 -0.47931,2.23076 -2.7302,3.42723 -4.73442,4.04401 -1.82126,0.56458 -3.80872,0.11339 -5.33876,-0.98632 -1.79983,-0.55317 -3.87683,-1.82698 -3.78759,-3.96502 -0.24082,-1.59521 0.78019,-2.89005 2.02795,-3.74688 0.73694,-0.99524 2.59996,-1.10397 2.98727,-2.15408 -0.86425,-1.51762 -3.17349,-0.97123 -3.8049,0.47336 -0.30426,0.70095 -0.87402,1.27004 -1.55976,1.60129 z" />
  <path
     id="path154"
     style="fill:#999999;fill-opacity:1;stroke:#999999;stroke-width:0.264583px;stroke-linecap:butt;stroke-linejoin:miter;stroke-opacity:1"
     d="m 189.75637,71.2526 c 0.56521,0.51662 2.0373,1.28791 0.37815,1.58773 -1.21588,-0.0786 -2.49152,-0.45937 -3.55814,0.39841 -1.11372,0.68773 -2.25253,1.46447 -3.57623,1.64289 -2.03617,-0.0406 -4.25546,-0.428 -5.83035,-1.8208 -1.88758,-1.85508 -1.9266,-4.6663 -2.38569,-7.10482 0.094,-1.07288 -0.42012,-2.41284 0.5959,-3.20252 0.47838,-0.68423 2.64904,-1.09053 0.99148,-1.63431 -1.45009,-1.08599 -3.32751,-1.29413 -5.07187,-1.52657 -0.81708,-1.64259 2.26281,-1.71099 3.11223,-0.77865 1.34187,0.78342 3.18577,0.61912 4.2904,1.81294 0.73398,1.27939 1.97848,2.4699 3.58023,2.20291 1.61021,-0.30375 3.25027,-0.26356 4.71063,0.55021 1.54146,0.57423 2.8656,2.00686 3.16238,3.62727 0.49909,1.03734 -0.59236,2.65418 -1.32251,1.03056 -0.85358,-1.26268 -1.19238,-3.17828 -2.85635,-3.63204 -1.80393,-0.61913 -3.68634,-0.034 -5.44029,0.42383 -1.07754,0.72293 -2.282,0.83097 -3.51627,0.97154 -1.64034,0.63381 -0.89176,2.76173 -0.28544,3.90853 0.24916,1.51674 1.46961,2.44931 2.94263,2.65612 1.8733,0.74413 4.18248,1.37471 5.9865,0.10696 1.30634,-0.847 2.41046,-2.02542 3.22546,-3.33598 0.37042,-1.06486 -1.73749,-2.58788 0.14119,-3.02954 1.82769,-0.1166 0.69989,2.29142 0.66561,3.36807 -0.11377,0.59642 -0.047,1.18772 0.0603,1.77726 z" />
  <path
     id="path160"
     style="fill:#b7c4c8;stroke:#b7c4c8;stroke-width:0.264583px;stroke-linecap:butt;stroke-linejoin:miter;stroke-opacity:1"
     d="m 169.69213,117.01643 c 3.25705,-1.97592 6.77343,-3.51419 9.77873,-5.87582 3.30213,-2.55535 7.92622,-0.44998 7.72193,3.90475 2.13134,4.62854 1.78454,9.86592 0.47213,14.66472 -0.80994,2.92481 0.006,5.99942 -0.98147,8.90472 -0.9844,2.55559 0.61049,6.10642 -2.05283,7.89557 -2.60851,1.91795 -4.82941,5.13702 -8.50079,4.86998 -5.94592,-0.18435 -9.81002,-5.71937 -15.51646,-6.76505 -3.10719,-1.29273 -8.23305,-1.64344 -8.42087,-5.95387 -0.3783,-7.52878 -5.06096,-14.00731 -10.2414,-19.134 -1.99069,-1.84495 -2.84665,-6.48927 0.67822,-7.07705 3.97345,0.0837 6.88631,3.39983 10.70055,4.18672 4.88052,1.20316 9.91926,0.0555 14.83652,-0.11176 0.53329,0.0666 1.05446,0.23207 1.52574,0.49109 z" />
  <path
     id="path170"
     style="fill:#5fbcd3;stroke:#5fbcd3;stroke-width:0.264583px;stroke-linecap:butt;stroke-linejoin:miter;stroke-opacity:1"
     d="m 184.77727,112.40234 c -0.8801,2.07741 -0.52585,4.48544 -1.70082,6.48413 -1.35962,3.35932 -4.36299,5.60478 -6.98961,7.92695 -2.15038,1.43213 -4.86437,0.32096 -6.52021,-1.34316 -1.92689,-1.57993 -4.91652,-1.49397 -7.02843,-0.33655 -2.61797,1.70403 0.84051,3.89265 2.32738,4.8993 1.64306,2.06915 3.27277,4.16596 5.11487,6.06786 1.19738,2.14723 3.0145,4.08704 3.34674,6.59901 0.72985,2.86297 -1.11252,6.82904 -1.43838,8.58955 2.72093,-0.58842 5.47143,-1.03109 8.17683,-1.70287 4.39087,-0.80058 8.92652,-0.45488 13.23613,0.5813 0.28803,-1.7956 -2.21852,-3.58467 -2.5633,-5.59356 -2.03182,-3.99069 -3.12617,-8.38322 -3.45867,-12.84156 -0.10086,-3.09855 -0.32507,-6.18032 -1.01602,-9.21275 -0.0325,-2.41803 -0.63211,-4.76345 -0.8132,-7.16703 0.0752,-1.02032 -0.14717,-2.06746 -0.67331,-2.95062 z" />
  <path
     id="path176"
     style="fill:#87cdde;stroke:#87cdde;stroke-width:0.264583px;stroke-linecap:butt;stroke-linejoin:miter;stroke-opacity:1"
     d="m 143.02197,114.42101 c 2.57561,1.3046 5.56579,1.57906 8.0746,3.08939 3.23264,1.96607 6.92764,3.20944 9.69601,5.87113 2.36477,1.74319 5.05519,3.06165 7.07037,5.26721 2.75847,2.0094 3.87039,5.36229 6.06326,7.86843 2.04562,2.66299 3.55354,5.68141 5.02535,8.66886 0.7831,1.84906 3.1414,4.54228 1.454,6.2959 -4.49534,1.79335 -9.22945,-1.41906 -11.71472,-5.06083 -2.83754,-2.48489 -6.48076,-4.24707 -8.23712,-7.76823 -2.78275,-4.70187 -6.29673,-8.90613 -9.06662,-13.61457 -1.53445,-2.65855 -3.85763,-4.65458 -6.1541,-6.61986 -0.94331,-1.10193 -2.41933,-2.42152 -2.21103,-3.99743 z" />
  <path
     id="path182"
     style="fill:#afdde9;stroke:#afdde9;stroke-width:0.264583px;stroke-linecap:butt;stroke-linejoin:miter;stroke-opacity:1"
     d="m 139.84225,93.9016 c 3.1087,-0.6744 2.62699,3.63491 3.88124,5.3622 2.1833,3.45029 6.04184,5.23903 9.01942,7.88295 4.30049,2.54954 9.10119,4.37443 14.10085,4.8975 2.90202,0.49676 5.18252,-1.79926 7.40547,-3.26742 2.31131,-1.78013 5.51191,-2.73365 6.67144,-5.67174 1.69926,-3.54322 1.94313,2.7787 1.85654,4.31749 0.0321,2.95079 1.29716,6.36989 -1.60571,8.42685 -2.16821,1.85925 -4.72073,3.30593 -7.24731,4.59986 -2.51874,1.51923 -5.23901,3.0219 -8.19668,3.42705 -5.98311,0.51154 -12.40612,-1.8638 -16.0435,-6.76973 -2.73038,-2.10074 -5.50382,-4.22185 -7.53043,-7.06702 -2.34078,-2.45831 -4.02347,-5.44874 -4.19925,-8.90735 -0.65576,-2.69717 2.22246,-4.51581 1.88792,-7.23064 z" />
  <path
     id="path188"
     style="fill:#002255;fill-opacity:1;stroke:#002255;stroke-width:0.264583px;stroke-linecap:butt;stroke-linejoin:miter;stroke-opacity:1"
     d="m 134.27159,101.97626 c -3.43246,3.3799 -8.37104,4.59517 -12.12723,7.58717 -6.42916,3.31551 -13.47926,5.14562 -19.93133,8.43008 -3.38055,2.94982 -11.032719,1.16295 -11.46612,6.54842 2.284743,5.27153 5.694604,10.22835 5.895729,16.18757 0.951206,4.8017 -1.675473,13.32461 5.175921,14.34366 8.90046,0.81654 17.89892,0.79268 26.82797,0.41573 11.21597,-0.96834 22.51754,-1.41421 33.52337,-3.94088 2.78914,-0.32851 10.90089,0.62216 6.67263,-4.02435 -3.94978,-5.10733 -11.28481,-6.26002 -14.73912,-11.95169 -3.26681,-5.27184 -4.14041,-11.79601 -9.02205,-16.09138 -3.99741,-5.25991 -8.44604,-10.51878 -10.06053,-16.99698 l -0.74924,-0.50738 z" />
  <path
     id="path194"
     style="fill:#002255;stroke:#002255;stroke-width:0.264583px;stroke-linecap:butt;stroke-linejoin:miter;stroke-opacity:1"
     d="m 186.57665,115.44143 c -1.09055,-2.12587 -0.70569,-7.28661 2.43424,-4.37415 1.97669,2.67729 4.88436,4.32036 7.82901,5.73025 3.31364,2.67415 7.8791,2.15778 11.53631,4.10655 4.92398,2.01247 10.48785,3.61332 14.02873,7.82199 1.80155,2.8014 3.7016,5.83361 3.34526,9.32225 -0.23739,3.59791 -1.12843,7.17465 -2.38048,10.54572 -1.46544,3.78014 -6.0884,3.70779 -9.46406,3.5 -4.76051,-0.28758 -9.53172,-1.35762 -14.30227,-0.52253 -3.40228,0.0793 -7.07951,1.44736 -10.34805,0.17564 -2.0388,-1.67058 -2.44936,-4.51551 -3.45333,-6.84449 -1.10216,-3.26183 -0.76231,-6.81117 0.56559,-9.95117 1.33571,-4.35615 1.84221,-9.11381 0.8786,-13.59511 -0.58331,-1.88878 -1.61772,-3.95149 -0.66955,-5.91495 z" />
  <path
     id="path200"
     style="fill:#00112b;fill-opacity:1;stroke:#00112b;stroke-width:0.264583px;stroke-linecap:butt;stroke-linejoin:miter;stroke-opacity:1"
     d="m 91.617217,123.45563 c 2.634566,-0.0531 4.18648,2.57424 5.276728,4.61902 1.3301,2.78288 2.404241,5.68626 3.954155,8.36198 1.60104,3.06953 1.59367,6.59626 2.63654,9.8444 0.53235,2.27302 1.15951,4.53962 1.4546,6.85498 -0.80787,1.81606 -3.14641,1.39023 -4.75978,1.46291 -3.423181,-0.12933 -6.843671,-0.40213 -10.270396,-0.23327 -2.364757,-0.0401 -5.151506,-0.34713 -6.699222,-2.34983 -1.112522,-2.63324 0.03147,-5.52142 0.740979,-8.11369 0.652815,-1.97513 0.858435,-4.0554 0.715702,-6.12276 0.543218,-3.46714 0.758693,-6.99939 1.635459,-10.40872 0.553205,-1.8005 1.875638,-3.57608 3.677337,-4.24324 0.562901,-0.0977 1.147382,0.0482 1.637898,0.32822 z" />
  <path
     id="path206"
     style="fill:#00112b;fill-opacity:1;stroke:#00112b;stroke-width:0.264583px;stroke-linecap:butt;stroke-linejoin:miter;stroke-opacity:1"
     d="m 221.82333,132.71679 c 0.0892,-1.91879 -1.33751,-4.76462 -0.49781,-6.04721 1.74696,0.84623 2.69417,2.83045 3.54954,4.5189 1.62383,2.99378 4.92038,5.08375 5.32623,8.70262 0.7344,1.90334 1.93463,3.60726 2.31805,5.64968 0.72839,2.47081 1.72614,4.89316 2.22605,7.41279 -1.25517,1.25461 -3.6159,0.0153 -5.31189,0.60314 -2.4201,0.28098 -4.73512,1.07518 -7.09093,1.65592 -2.07487,-0.5143 -1.61055,-3.21469 -1.47404,-4.82928 0.49803,-3.17103 1.39381,-6.33101 1.04263,-9.57076 -0.0598,-2.51772 1.83013,-5.16444 0.41331,-7.55173 l -0.22921,-0.28816 z" />
  <path
     id="path213"
     style="fill:#00112b;stroke:#00112b;stroke-width:0.264583px;stroke-linecap:butt;stroke-linejoin:miter;stroke-opacity:1"
     d="m 182.04125,105.70303 c 1.19451,4.23664 0.67144,8.72592 1.72519,12.99411 0.40743,4.25779 0.19962,8.54968 0.32419,12.82158 0.057,4.21577 -0.38207,8.407 -0.88671,12.57766 0.21774,2.77036 -1.29439,5.68104 -0.8074,8.23245 2.933,-0.56036 5.89358,-0.21179 8.80817,0.21644 3.20565,0.34173 5.80779,-1.96849 7.68793,-4.27468 1.66851,-2.55981 0.60317,-5.80603 -0.94873,-8.15166 -0.75959,-2.06291 -1.90233,-3.92113 -3.19939,-5.69152 0.55504,-2.57285 5.51602,0.99118 6.52344,-2.09084 -0.36198,-2.22074 -2.21409,-4.09416 -3.08117,-6.25275 -1.64295,-3.39072 -4.65548,-5.90514 -5.92411,-9.49985 -1.07272,-2.79602 -2.75991,-5.36989 -5.30022,-7.03485 -3.09853,-1.26701 -1.78147,-5.55974 -4.26109,-6.79737 -0.6735,0.64234 -1.24707,2.08911 -0.6601,2.95128 z" />
  <path
     id="path223"
     style="fill:#00112b;stroke:#00112b;stroke-width:0.264583px;stroke-linecap:butt;stroke-linejoin:miter;stroke-opacity:1"
     d="m 137.89498,92.43751 c 1.68188,-1.88698 4.63541,-2.10751 2.81174,0.98801 -1.73073,2.99733 -2.26799,6.67274 -0.4826,9.77683 2.88119,7.42283 6.948,14.40023 12.53934,20.1202 5.16392,6.88016 11.7096,12.58851 16.83803,19.48708 1.81891,3.36583 3.9803,6.60528 5.26691,10.23226 -4.63411,-1.39079 -10.05971,0.0886 -14.05783,-3.29836 -5.17586,-3.04045 -11.35519,-4.17356 -15.99621,-8.17195 -5.29728,-1.69712 -2.47422,-6.64244 -0.82219,-10.03108 2.17599,-5.19479 -5.50781,-2.26914 -8.36381,-3.63206 -2.63509,-1.45469 -9.2492,0.30602 -8.77816,-3.52459 0.81317,-4.11821 2.77391,-7.89694 3.4967,-12.00021 0.0792,-4.23618 1.74539,-8.13258 3.04294,-12.09192 1.59112,-2.57699 3.07291,-5.17459 4.50514,-7.85421 z" />
  <path
     id="path229"
     style="fill:#d3bc5f;stroke:#d3bc5f;stroke-width:0.264583px;stroke-linecap:butt;stroke-linejoin:miter;stroke-opacity:1"
     d="m 146.05378,30.56871 c -1.94471,4.79556 -6.0606,8.82888 -11.44309,9.1463 -5.12523,1.88139 -11.97294,-0.39719 -15.93042,3.18165 5.704,0.23645 13.0562,0.65173 19.26887,2.85926 6.94154,1.19925 13.69303,3.27656 20.62645,4.48391 6.90541,0.62387 13.80922,1.36291 20.73709,1.49484 6.54981,1.58977 13.55466,3.42731 18.21132,8.66536 5.21689,5.40175 12.94949,7.17195 20.0879,8.40796 4.4136,-1.56027 -5.74531,-6.9845 -8.22063,-9.29744 -4.21826,-4.77477 -11.11057,-7.65005 -12.46452,-14.51905 -2.40513,-7.47958 5.5548,-13.45725 3.64701,-20.9384 0.0737,-6.61901 -5.18607,-11.19144 -10.25615,-14.50994 -5.14989,-3.54798 -11.37735,-5.26202 -17.43315,-6.53279 -7.85831,0.74859 -17.26216,0.83201 -23.07227,6.88742 -3.49724,5.3125 -5.97511,12.16002 -5.26955,18.4776 l 0.60027,1.13132 z" />
  <path
     id="path239"
     style="fill:#483e37;stroke:#483e37;stroke-width:0.264583px;stroke-linecap:butt;stroke-linejoin:miter;stroke-opacity:1"
     d="m 157.14581,21.29616 c 6.32767,-0.77822 12.60879,0.6828 18.68841,2.2633 3.77039,0.36667 7.54657,0.84755 11.09855,2.26889 3.0626,1.05471 7.08251,1.98083 8.16067,5.5084 1.58286,2.09106 4.19508,4.10731 3.08194,7.11362 -0.8821,2.78329 -0.95449,5.75005 -1.02648,8.55546 -4.49796,-3.00997 -9.14148,-6.2028 -14.55243,-7.2701 -5.55914,-1.76999 -11.00686,-4.25291 -16.94535,-4.36358 -5.27979,-0.56149 -10.63375,-0.17481 -15.76887,1.14077 -2.87954,-0.10303 -6.12407,2.13837 -8.70864,0.66542 -1.06564,-3.54851 3.2644,-6.25189 3.1445,-9.85971 1.14696,-3.42706 5.57284,-3.15463 8.1333,-5.0267 1.49489,-0.30479 3.1878,-2.23813 4.6944,-0.99577 z" />
</svg>
