<?xml version="1.0" encoding="UTF-8" standalone="no"?>
<svg
   xmlns:dc="http://purl.org/dc/elements/1.1/"
   xmlns:cc="http://creativecommons.org/ns#"
   xmlns:rdf="http://www.w3.org/1999/02/22-rdf-syntax-ns#"
   xmlns:svg="http://www.w3.org/2000/svg"
   xmlns="http://www.w3.org/2000/svg"
   xmlns:sodipodi="http://sodipodi.sourceforge.net/DTD/sodipodi-0.dtd"
   xmlns:inkscape="http://www.inkscape.org/namespaces/inkscape"
   width="1200"
   height="600"
   viewBox="0 0 317.5 158.75"
   version="1.1"
   id="svg8"
   sodipodi:docname="ul-moon.svg"
   inkscape:version="1.0.1 (3bc2e813f5, 2020-09-07)">
  <sodipodi:namedview
     pagecolor="#ffffff"
     bordercolor="#666666"
     borderopacity="1"
     objecttolerance="10"
     gridtolerance="10"
     guidetolerance="10"
     inkscape:pageopacity="0"
     inkscape:pageshadow="2"
     inkscape:window-width="1920"
     inkscape:window-height="1061"
     id="namedview26"
     showgrid="false"
     inkscape:zoom="1.4"
     inkscape:cx="600"
     inkscape:cy="300"
     inkscape:window-x="0"
     inkscape:window-y="19"
     inkscape:window-maximized="0"
     inkscape:current-layer="svg8" />
  <defs
     id="defs2" />
  <metadata
     id="metadata5">
    <rdf:RDF>
      <cc:Work
         rdf:about="">
        <dc:format>image/svg+xml</dc:format>
        <dc:type
           rdf:resource="http://purl.org/dc/dcmitype/StillImage" />
        <dc:title></dc:title>
      </cc:Work>
    </rdf:RDF>
  </metadata>
  <path
     id="path8"
     style="fill:#92b0d7;fill-opacity:1;stroke:#92b0d7;stroke-width:0.264583px;stroke-linecap:butt;stroke-linejoin:miter;stroke-opacity:1"
     d="m 79.020228,12.79161 c -13.730224,3.18249 -3.753785,17.77082 -3.486276,25.26768 -6.292037,8.10203 -18.324512,18.03557 -6.98144,27.96815 8.205355,8.2981 1.772609,17.31941 -3.585303,24.49502 -4.875795,10.5385 11.261378,19.86874 1.436881,29.18609 -5.90147,5.28515 -3.216118,11.66211 1.824052,15.80686 2.293483,6.89371 -14.953271,13.56346 -2.133731,13.74975 21.687053,2.82964 43.179699,-3.29547 64.803009,-3.67923 8.90178,0.21543 16.96911,5.71029 26.22069,4.46001 9.11222,0.26758 24.13538,-1.45959 29.41569,-2.38031 21.47075,-2.40924 43.46978,0.24111 65.07245,-1.88657 4.16943,-0.55887 10.29702,0.2079 9.56582,-5.61593 4.64996,1.80106 17.54868,1.48965 11.44215,-6.36664 -6.8688,-3.37305 -20.4264,-13.88536 -7.32606,-18.82589 11.3498,-8.35925 -0.2533,-21.4826 0.66586,-31.93078 4.57278,-10.11576 6.25427,-20.82788 -0.33925,-30.51435 -4.92986,-11.64789 6.88292,-21.19205 5.20746,-32.78903 C 270.27941,9.35632 258.35658,7.48635 250.19724,8.91555 c -10.76387,1.68078 -21.50056,4.76879 -32.49768,3.03498 -17.74705,-1.33012 -35.54125,-0.90362 -53.28956,-0.1926 -20.84002,-0.4984 -41.66692,0.14601 -62.50147,-0.21724 -7.616216,-0.73865 -15.897835,2.6954 -22.888302,1.25092 z" />
  <path
     id="path14"
     style="fill:#f5f3dd;fill-opacity:1;stroke:#f5f3dd;stroke-width:0.264583px;stroke-linecap:butt;stroke-linejoin:miter;stroke-opacity:1"
     d="m 107.21862,72.75265 c -27.58452,12.29494 -14.875462,58.87921 14.5754,58.20057 29.53001,3.18515 45.39206,-41.96386 18.63951,-56.49491 -9.76009,-6.26704 -22.87733,-7.03133 -33.21491,-1.70566 z" />
  <path
     id="path31"
     style="fill:#ddd1bb;fill-opacity:1;stroke:#ddd1bb;stroke-width:0.264583px;stroke-linecap:butt;stroke-linejoin:miter;stroke-opacity:1"
     d="m 118.16275,71.08892 c 5.06662,-0.45154 -4.68704,3.71331 0.19413,3.30589 2.40743,-0.67243 5.27418,0.41606 5.19006,2.90937 2.3443,0.8366 8.85363,-0.38877 6.86911,4.00077 -1.61561,0.31885 -6.30432,4.02565 -2.14749,3.60337 3.02935,-0.1668 6.53365,0.17088 8.99997,2.00896 1.71762,2.21353 2.54536,5.80092 0.45842,8.04661 -1.50207,3.12022 4.38815,2.81574 4.72098,5.86043 -0.88492,3.50948 4.02905,4.80465 2.61034,8.33555 -0.17851,2.8469 -4.94682,8.14305 -6.90405,4.61563 -0.16181,-2.87797 3.94871,-6.45972 2.09571,-8.54776 -2.4652,2.70805 -9.28721,2.31082 -9.46063,-1.80215 -0.83452,-2.94624 2.82089,-5.05063 1.69197,-7.5114 -3.47845,-1.23136 -4.51999,-4.459 -2.6795,-7.63733 -4.49833,-0.47328 -2.7452,4.9147 -1.69238,7.36571 -1.09504,3.01931 -6.235,2.93147 -6.67842,-0.6422 -1.05869,-1.92743 -3.17684,-6.42161 -5.37504,-5.42389 -2.42937,2.3015 -2.29973,5.67522 -0.28988,7.99244 -0.0603,3.12961 -5.08732,4.27853 -2.86008,7.8958 1.65054,3.09474 -1.64847,5.87192 -4.58167,5.95291 -4.11329,0.77592 -3.5375,-4.52851 -2.09132,-6.76774 -0.0176,-3.9744 -2.13214,1.88061 -3.53224,2.3513 -3.130223,2.58504 -6.010955,-2.27737 -3.90792,-4.78412 3.59263,-1.62861 3.4869,-6.08575 -0.111782,-7.7775 -2.639463,-3.1519 -1.895498,-7.82281 -0.417725,-11.3393 2.055687,-2.78708 5.087237,-4.62184 7.504797,-7.05894 2.85138,-1.76621 5.95008,-3.11127 8.83238,-4.83386 1.0985,-0.49208 2.47254,-0.81623 3.56226,-0.11855 z" />
  <path
     id="path37"
     style="fill:#26284f;fill-opacity:1;stroke:#26284f;stroke-width:0.264583px;stroke-linecap:butt;stroke-linejoin:miter;stroke-opacity:1"
     d="m 69.259241,131.03803 c 4.947622,0.55125 10.473125,-1.08722 14.674767,2.44121 4.332757,0.58903 8.792288,-1.79422 13.068447,0.31627 3.822545,3.02856 -9.611305,4.11109 -3.654822,6.53158 3.660289,-0.93675 7.157407,-3.0334 11.113577,-2.26134 3.71967,-0.0599 7.66677,2.6315 3.00751,3.98793 3.69274,-0.68571 7.1074,1.83006 10.75931,1.01056 2.31665,-0.15735 8.77291,1.84208 3.20126,1.9996 -1.38239,2.00331 4.45487,2.36855 5.10748,3.85259 2.57661,0.33933 8.86731,3.23865 3.2195,4.81143 -4.25865,1.15216 -8.73176,-0.62841 -11.80732,-3.51106 -3.62452,-2.62779 -7.69844,-1.66948 -11.67873,-0.71685 -4.8722,0.17517 -9.461144,0.91195 -14.281365,0.38507 -4.725856,1.75943 -9.705689,3.90562 -14.846452,2.67893 -5.614997,-0.56838 -11.555667,1.96206 -16.932949,-0.28902 -0.684046,-3.38609 -2.295939,-6.11826 -6.254654,-5.81051 -4.970341,-0.34326 -0.388913,-4.45636 2.275986,-2.42419 3.63437,0.77008 1.836247,-2.64484 -0.88073,-1.96435 -1.730249,-1.40382 -0.448535,-5.33576 -4.299889,-4.96158 -3.109827,0.28479 -4.080884,-1.71512 -0.855359,-2.80559 3.377789,-1.25441 7.128133,0.20347 10.370284,-1.73594 2.710886,-0.8107 5.498602,2.31543 7.229209,-1.31193 l 0.652158,-0.26767 0.812782,0.0448 z" />
  <path
     id="path43"
     style="fill:#26284f;fill-opacity:1;stroke:#26284f;stroke-width:0.264583px;stroke-linecap:butt;stroke-linejoin:miter;stroke-opacity:1"
     d="m 162.75269,136.70666 c -2.03327,0.15637 -4.74215,0.30835 -6.0277,1.98968 1.479,1.2461 1.3788,2.84224 -0.89696,2.92609 -1.39626,-0.0295 -2.65356,1.19955 -0.57724,1.45948 5.38091,0.97547 10.9682,-0.88232 16.2762,0.79703 1.81321,0.50839 7.2747,1.97459 5.92529,-1.55263 -0.32849,-1.38031 -5.03754,-1.53167 -1.97508,-1.59221 2.85223,-0.30035 5.85467,-1.11202 8.61828,0.079 2.72116,0.40911 5.53945,0.90188 8.27766,0.40839 2.03717,0.18423 5.4524,-4.10112 2.41715,-4.46092 -3.36817,-0.0283 2.13752,-1.736 1.28603,-3.63977 -0.69721,-1.95137 -3.48614,-1.3706 -5.12711,-1.161 -1.84617,0.80989 -3.25574,2.94198 -5.52321,2.50635 -1.82755,-0.17552 -4.47133,2.59255 -5.61834,1.05033 0.0323,-1.3611 4.27799,-2.80757 1.25806,-2.73313 -3.06018,0.44604 -6.03309,1.34108 -8.87447,2.54809 -1.37181,0.62414 -1.87696,-0.78961 -2.10333,-1.49825 -2.49362,-0.5476 -3.27782,3.1555 -5.73285,2.7169 -0.53623,0.007 -1.08311,10e-4 -1.60238,0.15659 z" />
  <path
     id="path49"
     style="fill:#26284f;fill-opacity:1;stroke:#26284f;stroke-width:0.264583px;stroke-linecap:butt;stroke-linejoin:miter;stroke-opacity:1"
     d="m 89.471375,106.60413 c -0.949566,0.74655 -1.975122,1.40458 -2.831167,2.26371 0.875803,0.79151 2.205399,0.51371 3.264536,0.32121 1.348744,-0.32484 2.756081,-0.65658 4.135524,-0.29847 1.258539,0.25917 2.537338,0.48538 3.826884,0.36447 1.579484,-0.0228 3.170838,0.8714 4.724068,0.26736 1.26874,-0.62706 -0.59714,-1.37094 -1.13805,-1.79449 -0.8151,-0.58058 -1.741353,-0.99999 -2.750175,-1.07326 -2.473976,-0.25954 -4.949196,0.14334 -7.415138,0.2821 -0.616322,-0.0503 -1.193546,-0.33257 -1.816482,-0.33263 z" />
  <path
     id="path55"
     style="fill:#26284f;fill-opacity:1;stroke:#26284f;stroke-width:0.264583px;stroke-linecap:butt;stroke-linejoin:miter;stroke-opacity:1"
     d="m 122.20518,106.93688 c -0.53361,0.0376 -1.20123,0.3326 -1.08511,0.98166 -0.008,0.56406 0.75917,0.97721 0.45823,1.54375 -0.56875,0.71017 -1.40129,1.16802 -2.22157,1.53292 -0.59982,-0.0759 -0.37604,0.47012 0.0767,0.49204 0.80791,0.35837 1.69189,0.44257 2.56554,0.42443 1.87973,0.0536 3.76647,0.006 5.64044,0.17268 0.35026,0.0141 1.2873,0.25137 1.25526,-0.0179 -0.34672,-0.40448 -0.68122,-0.89037 -1.24974,-0.97775 -0.91325,-0.28094 -1.91021,-0.29402 -2.77138,-0.73336 -0.44152,-0.46724 0.25526,-1.05914 0.0205,-1.58384 -0.44326,-1.10704 -1.68196,-1.44609 -2.68883,-1.83464 z" />
  <path
     id="path61"
     style="fill:#26284f;fill-opacity:1;stroke:#26284f;stroke-width:0.264583px;stroke-linecap:butt;stroke-linejoin:miter;stroke-opacity:1"
     d="m 132.40984,110.92984 c 1.96634,0.0423 3.8856,0.51437 5.78284,0.98869 1.35006,0.23248 2.70901,0.41352 4.04392,0.72719 0.43581,0.0955 1.66816,0.3643 1.14048,-0.44437 -0.46782,-0.69207 -0.97213,-1.49872 -1.86023,-1.66781 -0.99342,-0.32247 -2.22601,-0.26158 -2.94392,-1.13972 -0.46636,-0.60881 -1.15093,-1.14145 -1.95839,-1.07388 -1.17611,0.0857 -2.09642,0.92371 -3.17012,1.31734 -0.55401,0.15069 -1.07524,0.58879 -1.03613,1.21069 z" />
  <path
     id="path67"
     style="fill:#26284f;fill-opacity:1;stroke:#26284f;stroke-width:0.264583px;stroke-linecap:butt;stroke-linejoin:miter;stroke-opacity:1"
     d="m 144.51247,107.42491 c -0.7184,0.43199 -1.76833,1.77878 -0.37782,2.10522 1.36469,0.35623 2.7865,0.13405 4.17213,0.30181 0.0874,1.01883 -1.93997,1.59795 -1.31714,2.52767 1.762,1.05046 3.88301,0.55734 5.8188,0.59204 2.15674,0.0145 4.28344,0.46985 6.44336,0.45836 0.72619,-0.0822 2.42479,0.47203 2.11629,-0.81775 -0.44308,-1.0309 -1.61049,-1.51684 -2.60193,-1.87026 -1.57263,-0.49823 -3.17877,-0.89838 -4.8338,-0.97527 -0.71594,-0.26623 -2.68878,0.19972 -2.39958,-0.96145 0.10805,-1.14103 -1.75407,-1.0964 -2.57579,-1.28146 -1.22238,-0.1669 -2.43897,-0.41485 -3.6749,-0.45805 -0.26006,0.11915 -0.51303,0.25287 -0.76962,0.37914 z" />
  <path
     id="path73"
     style="fill:#26284f;fill-opacity:1;stroke:#26284f;stroke-width:0.264583px;stroke-linecap:butt;stroke-linejoin:miter;stroke-opacity:1"
     d="m 149.73804,102.07876 c -4.08089,-0.11857 -3.42653,3.76293 0.31102,2.68964 2.54136,-0.0186 6.57218,-0.74248 5.03304,1.85073 2.75494,1.01874 6.67487,-0.76235 8.57862,2.02871 1.21962,3.32579 8.31731,3.42743 4.59372,-0.75558 2.46669,-0.88905 5.83228,-0.66566 8.65635,-0.91222 3.46941,-0.20239 6.86085,0.61543 10.19989,1.35522 2.11414,-0.17125 4.03725,0.78258 0.82003,1.2318 -3.34628,1.68597 5.24125,1.12086 6.91933,1.5919 1.51348,0.17079 3.6284,-0.45369 1.94798,0.79945 3.36077,0.77721 8.56699,1.24373 10.9964,0.17971 -1.0358,-1.24179 -6.30952,-2.54118 -2.08204,-1.90454 4.49697,0.0825 8.93625,-0.87994 13.40886,-1.13241 1.07466,-2.20627 -5.01824,-1.36532 -6.90408,-2.17561 -4.85631,-0.0153 -9.78751,0.21555 -14.50652,-1.23341 -5.46882,-1.59912 -11.27161,-0.47119 -16.80328,-1.78141 -3.73198,0.0554 -7.50998,-0.0138 -10.6822,-2.2646 -1.76195,-0.47309 -1.78635,-0.19699 -1.39268,1.09615 -3.22529,1.37288 -6.80077,0.47149 -10.17678,0.27679 -3.33342,-0.0918 -3.31228,-0.52225 -7.05945,-0.66869 -0.62515,-0.0458 -1.2504,-0.11557 -1.85821,-0.27163 z" />
  <path
     id="path79"
     style="fill:#26284f;fill-opacity:1;stroke:#26284f;stroke-width:0.264583px;stroke-linecap:butt;stroke-linejoin:miter;stroke-opacity:1"
     d="m 147.05131,83.15655 c 2.25957,0.12309 4.54129,0.24897 6.75701,0.66223 0.65476,0.92111 -0.12025,2.75532 1.75812,2.91734 1.58016,0.40824 3.63198,0.77558 4.97496,-0.33303 1.15473,-0.39444 2.34625,0.43623 3.50935,0.57254 1.89071,0.48775 3.95682,0.96446 5.86496,0.33592 1.59657,-0.91746 -0.0728,-2.23592 -1.24958,-2.41892 -1.22703,-0.61345 -2.53755,-0.2237 -3.79929,-0.0546 -0.4526,-0.3539 1.20759,-2.32968 -0.51199,-2.29408 -1.12474,-0.22181 -1.80181,-1.52082 -3.02293,-1.3643 -1.5364,0.0321 -0.63285,-2.26904 -2.40977,-2.01163 -2.25492,-0.19347 -3.27237,2.49438 -5.39976,2.68215 -1.56997,-0.25878 -3.14742,-0.79278 -4.7539,-0.40707 -1.06564,0.42931 -2.77982,0.29508 -3.36799,1.23047 0.0795,0.81222 1.11727,0.4724 1.65081,0.483 z" />
  <path
     id="path85"
     style="fill:#26284f;fill-opacity:1;stroke:#26284f;stroke-width:0.264583px;stroke-linecap:butt;stroke-linejoin:miter;stroke-opacity:1"
     d="m 123.58551,85.68542 c 1.65463,0.33522 3.31771,1.06955 5.03252,0.75767 0.9121,-0.22168 1.19919,-1.20332 1.68457,-1.8845 -0.56882,-0.12522 -1.17342,0.0327 -1.75192,0.067 -0.95022,0.1382 -1.88253,0.46907 -2.84875,0.45271 -0.66807,-0.16738 -1.21227,-0.65189 -1.90676,-0.75661 -1.10096,-0.29526 -2.27638,-0.54793 -3.40959,-0.2982 -0.76562,0.18851 -0.55478,1.25507 -1.24968,1.54344 -0.3432,0.15399 -1.04841,0.77865 -0.26996,0.7227 1.5781,-0.089 3.32949,0.38161 4.71957,-0.6042 z" />
  <path
     id="path91"
     style="fill:#26284f;fill-opacity:1;stroke:#26284f;stroke-width:0.264583px;stroke-linecap:butt;stroke-linejoin:miter;stroke-opacity:1"
     d="m 174.48559,82.97908 c -0.64512,0.40333 -1.53613,1.16829 -1.10392,2.0079 0.72183,0.96062 2.09431,0.85207 3.15812,0.72722 1.80414,-0.34514 3.64362,-0.45562 5.47724,-0.34967 2.59125,0.0973 5.15203,0.60528 7.74356,0.6601 1.06149,0.0347 0.18983,-1.37265 -0.44889,-1.45714 -1.61794,-0.70705 -3.41398,-0.21025 -5.10109,-0.33118 -0.5648,-0.54225 -0.72883,-1.60651 -1.81132,-1.36081 -2.31296,-0.20097 -4.64017,-0.40873 -6.96479,-0.31369 -0.34664,0.06 -0.63325,0.27817 -0.94891,0.41727 z" />
  <path
     id="path97"
     style="fill:#26284f;fill-opacity:1;stroke:#26284f;stroke-width:0.264583px;stroke-linecap:butt;stroke-linejoin:miter;stroke-opacity:1"
     d="m 196.20132,79.56287 c -0.99631,0.24855 -1.88055,0.8073 -2.80552,1.2371 -0.66498,0.33695 -1.32408,0.68691 -1.96084,1.07505 0.29794,0.57581 1.29539,0.24293 1.44516,0.96757 0.21794,0.51525 -0.75006,1.3979 -0.02,1.53769 2.13206,0.0341 4.2557,-0.30788 6.38951,-0.18257 0.88063,0.0121 1.75955,0.14772 2.63433,0.1793 0.38147,-0.50616 0.0332,-1.28432 -0.15586,-1.83968 -0.38441,-0.56605 -1.10676,-0.75701 -1.7103,-1.00543 -0.75609,-0.29386 -1.58166,-0.40254 -2.30191,-0.7811 -0.55466,-0.3293 -0.95242,-0.86759 -1.5146,-1.18793 z" />
  <path
     id="path103"
     style="fill:#26284f;fill-opacity:1;stroke:#26284f;stroke-width:0.264583px;stroke-linecap:butt;stroke-linejoin:miter;stroke-opacity:1"
     d="m 205.54326,78.43154 c -1.27982,1.59963 3.63685,3.21392 0.15865,4.00543 -3.00379,1.20247 2.52617,1.45865 3.27187,2.37595 -2.29776,2.48163 3.15989,1.53301 4.54508,1.56793 4.9536,0.0991 9.9309,-0.30433 14.86274,0.34233 2.97154,0.13374 5.89483,-0.91223 8.84857,-0.67203 2.16038,1.81939 4.96117,1.82755 7.64091,1.60171 1.82311,0.73343 5.09974,-1.64014 1.96188,-2.38299 -1.3038,-0.61034 -5.67002,-0.85595 -2.90382,-2.4948 1.67628,-2.06976 -1.98804,-3.22407 -1.71172,-5.46438 0.0959,-2.51543 -2.9115,-1.92273 -4.49024,-2.52531 -1.2255,-0.9419 -2.79586,-2.88469 -3.98748,-0.6814 -1.427,1.32201 -5.96364,4.78148 -6.41796,1.30919 -1.47352,-1.32734 -4.58344,-0.84637 -5.64454,0.99684 -1.42568,2.1831 -3.81204,-0.0948 -5.62322,-0.0272 -1.76776,1.53029 -3.72223,1.21223 -5.82489,0.73491 -1.78105,0.23605 -5.03014,0.0881 -5.00675,2.62262" />
  <path
     id="path109"
     style="fill:#26284f;fill-opacity:1;stroke:#26284f;stroke-width:0.264583px;stroke-linecap:butt;stroke-linejoin:miter;stroke-opacity:1"
     d="m 202.21565,88.65797 c -1.99343,0.0244 3.91068,2.41791 5.4645,1.36533 4.0191,-0.0885 -1.84507,3.91706 2.83508,4.06621 6.95748,0.40415 14.03138,3.09378 20.93994,0.67693 4.3152,-0.72135 8.59845,1.61425 12.92174,0.11235 5.37706,0.5627 10.65206,1.86459 16.05812,2.3254 3.31119,0.15144 10.27161,1.8259 11.01719,-2.07172 -3.04509,-1.65882 -8.52949,0.54031 -8.8136,-4.3427 -3.80517,-1.19933 -8.72065,0.0444 -11.20346,-3.04923 -5.29745,1.47192 -10.75419,1.14666 -16.18771,1.87089 -5.10054,-0.69555 -10.05906,-3.25868 -15.36924,-1.92005 -5.59408,1.27886 -11.50193,-1.53109 -16.96978,0.30279 l -0.69278,0.66376 z" />
  <path
     id="path120"
     style="fill:#26284f;fill-opacity:1;stroke:#26284f;stroke-width:0.264583px;stroke-linecap:butt;stroke-linejoin:miter;stroke-opacity:1"
     d="m 91.298156,92.94474 c -2.93495,-0.14318 -8.21239,-0.62 -9.69627,0.11981 1.84063,1.17554 5.77146,0.30491 6.50995,1.46066 -3.1241,1.37934 -6.68277,0.52444 -10.00305,0.53516 -2.93172,-0.0792 -5.86564,0.18816 -8.75249,-0.49011 -4.69326,-0.28667 -9.42021,0.18733 -14.11628,-0.25611 2.95345,2.04753 7.06239,1.77928 10.56355,2.36031 5.80375,0.43904 11.61722,0.78273 17.43558,0.5808 1.26198,-0.008 3.69765,0.1704 1.08525,0.60884 -2.52091,1.23596 3.8175,-0.073 4.33658,1.39699 -2.20972,0.20997 -2.37414,2.2738 0.11519,1.9796 3.28141,0.11067 7.63171,1.46852 10.05323,-1.42645 1.737294,-2.57437 -5.11588,0.10514 -5.15774,-3.02602 3.46374,-0.64009 7.287004,-0.0323 10.869714,0.28771 1.43269,0.37793 6.76615,0.61883 2.92382,-0.97586 -1.63242,0.16238 -3.59398,-0.9105 -0.90287,-0.89485 2.18802,-0.66449 7.2597,2.25228 7.01824,-1.19525 -2.66143,-1.33368 -5.75337,0.53153 -8.54819,-0.40729 -2.89498,-0.58809 -5.949424,-0.49777 -8.675884,-1.69898 -1.74256,-0.28344 -3.51733,0.25127 -5.05833,1.04104 z" />
  <path
     id="path126"
     style="fill:#26284f;fill-opacity:1;stroke:#26284f;stroke-width:0.264583px;stroke-linecap:butt;stroke-linejoin:miter;stroke-opacity:1"
     d="m 214.63185,102.20557 c -1.24723,-0.39548 -5.30639,0.96486 -2.38352,1.55056 2.57697,0.34509 5.2468,0.26852 7.7568,-0.47115 0.71582,0.8273 -2.35151,2.39179 0.0792,2.53521 1.38822,0.0409 5.72323,-0.15772 3.89318,-2.10587 -1.85948,-2.7339 3.35358,-2.5603 4.96429,-2.82222 2.49013,-0.24831 5.05561,-0.0608 7.16414,1.42018 1.73604,1.28639 3.83855,0.10302 5.72377,0.60296 -0.52387,1.01622 -3.30348,1.95036 -0.70483,2.0891 2.89985,0.40793 5.73745,-0.49858 8.56286,-0.94135 2.51958,-0.59101 1.22884,-3.41847 -1.00395,-2.70658 -2.30879,0.76754 -2.43703,-2.33062 -4.72657,-1.89293 -2.22022,0.30218 -4.15811,-0.89347 -6.33549,-0.87403 -2.6859,-0.31656 0.84794,-0.60781 0.20783,-1.52034 -3.8444,-0.92146 -7.90241,-0.61828 -11.76483,0.0493 -1.38855,0.71319 -3.10579,0.83883 -4.15033,1.74837 0.62961,1.87189 -2.71558,1.80967 -2.65146,3.28073 -1.52502,-0.19208 -3.15356,-0.58208 -4.63107,0.058 z" />
  <path
     id="path132"
     style="fill:#26284f;fill-opacity:1;stroke:#26284f;stroke-width:0.264583px;stroke-linecap:butt;stroke-linejoin:miter;stroke-opacity:1"
     d="m 257.89762,72.61955 c -1.15337,0.0914 -2.34047,0.38029 -3.35141,0.9297 -0.15774,0.96274 1.3641,0.85668 1.84696,1.50527 0.77017,0.85347 -0.59783,1.63171 -1.26462,1.98301 0.92177,0.59334 2.0823,0.57315 3.13563,0.72134 1.24851,0.0591 2.4754,0.33179 3.60926,0.86256 0.89369,0.48629 2.71381,0.51536 2.75833,-0.80552 0.1037,-0.62481 1.53523,-0.58526 2.22048,-0.68729 1.06383,-0.079 2.14729,-0.0198 3.19612,-0.21923 1.11301,-0.26582 0.92511,-1.93506 -0.0174,-2.30328 -1.30527,-0.55229 -2.74912,-0.20465 -4.10785,-0.45032 -0.31455,-0.91615 -1.28093,-1.24379 -2.11811,-1.48978 -0.71174,-0.14225 -0.58034,-0.68264 -0.0451,-0.93674 -0.16251,-0.85271 -1.54376,-0.93029 -2.30157,-0.92555 -1.36713,0.12863 -2.54731,0.94599 -3.56063,1.81583 z" />
  <path
     id="path146"
     style="fill:#26284f;fill-opacity:1;stroke:#26284f;stroke-width:0.264583px;stroke-linecap:butt;stroke-linejoin:miter;stroke-opacity:1"
     d="m 55.381887,33.4663 c 6.104568,3.66836 14.70558,-0.32477 19.809024,5.92079 5.786324,2.97747 12.475472,7.49996 19.210179,5.41582 5.203961,-2.84508 10.81601,2.10231 15.8711,-0.61504 2.38409,-5.08522 -11.258229,-6.75443 -6.70288,-11.3625 8.01702,-0.56809 15.8528,-4.94887 24.04374,-2.76781 -0.80394,5.149 9.44944,2.06829 13.23831,2.27268 6.48159,-0.11789 11.7843,-3.19961 18.85884,-2.39058 3.34467,0.19676 5.24232,2.04325 6.58506,-1.35468 6.53878,-1.32334 11.89602,-0.62227 17.2665,2.00143 5.27059,0.78195 0.17994,3.18995 0.65486,4.81348 2.94918,1.65501 11.80254,1.89337 10.33163,-1.7094 5.48922,-4.53479 11.14666,2.50153 17.05042,-0.44873 6.53662,-3.49616 -10.99914,-5.8277 -1.83746,-7.86799 -1.61451,-8.10115 -10.76004,-2.90736 -16.16388,-4.88952 -3.8158,-4.48649 -9.9955,-3.49085 -15.41661,-5.0102 -2.88342,-1.28763 5.80874,-1.44789 7.6993,-1.34613 4.37652,0.86408 11.88701,-3.56785 3.88454,-4.44607 -6.39402,-1.30414 -12.92231,0.89017 -19.18608,-1.6265 C 163.56931,6.64461 156.38879,9.21432 149.41385,6.81978 145.64978,5.93262 146.47528,6.38426 148.98725,5.20631 142.33778,3.62086 135.3562,6.05878 128.5551,5.95464 121.77016,6.72346 114.94848,5.58919 108.19306,6.00314 103.12668,7.61194 97.985027,7.7619 92.722957,7.39188 87.437993,7.36898 82.152403,7.58081 76.868157,7.41858 71.911823,2.11142 65.713815,5.82452 61.451578,9.06375 c -0.667082,7.872 -10.777412,7.29574 -16.827516,10.44132 -5.089407,2.95089 5.624148,3.1486 8.101655,3.23556 8.423387,2.56066 -9.810006,6.33843 -4.014216,10.01974 2.193331,0.4358 4.493643,-0.0639 6.670386,0.70594 z" />
</svg>
