<?xml version="1.0" encoding="UTF-8" standalone="no"?>
<svg
   xmlns:dc="http://purl.org/dc/elements/1.1/"
   xmlns:cc="http://creativecommons.org/ns#"
   xmlns:rdf="http://www.w3.org/1999/02/22-rdf-syntax-ns#"
   xmlns:svg="http://www.w3.org/2000/svg"
   xmlns="http://www.w3.org/2000/svg"
   xmlns:sodipodi="http://sodipodi.sourceforge.net/DTD/sodipodi-0.dtd"
   xmlns:inkscape="http://www.inkscape.org/namespaces/inkscape"
   width="1200"
   height="600"
   viewBox="0 0 317.5 158.75"
   version="1.1"
   id="svg8"
   sodipodi:docname="ul-write.svg"
   inkscape:version="1.0.1 (3bc2e813f5, 2020-09-07)">
  <sodipodi:namedview
     pagecolor="#ffffff"
     bordercolor="#666666"
     borderopacity="1"
     objecttolerance="10"
     gridtolerance="10"
     guidetolerance="10"
     inkscape:pageopacity="0"
     inkscape:pageshadow="2"
     inkscape:window-width="1920"
     inkscape:window-height="1061"
     id="namedview34"
     showgrid="false"
     inkscape:zoom="1.4"
     inkscape:cx="600"
     inkscape:cy="300"
     inkscape:window-x="0"
     inkscape:window-y="19"
     inkscape:window-maximized="0"
     inkscape:current-layer="svg8" />
  <defs
     id="defs2" />
  <metadata
     id="metadata5">
    <rdf:RDF>
      <cc:Work
         rdf:about="">
        <dc:format>image/svg+xml</dc:format>
        <dc:type
           rdf:resource="http://purl.org/dc/dcmitype/StillImage" />
        <dc:title></dc:title>
      </cc:Work>
    </rdf:RDF>
  </metadata>
  <path
     id="path8"
     style="fill:#decd87;stroke:#decd87;stroke-width:0.264583px;stroke-linecap:butt;stroke-linejoin:miter;stroke-opacity:1"
     d="m 145.05156,21.21051 c -20.30338,3.14643 -40.42091,-2.64371 -60.774824,-1.49285 -11.21638,3.01494 -22.72802,-3.56291 -33.332351,-0.46798 4.329181,19.0402 -3.549523,37.89509 -3.152949,57.01664 -1.518146,13.85215 -5.836326,27.67234 -3.287071,41.71851 2.155992,9.49985 -4.849029,24.00268 0.254379,30.08629 23.969672,2.07646 48.129842,-0.0604 72.122406,2.14694 27.8921,1.23918 55.7747,2.59319 83.69411,3.18418 11.62478,0.08 23.38089,1.97638 34.90163,0.60886 4.16399,-9.83991 -1.12064,-23.94987 1.22402,-35.49343 0.40633,-11.00399 4.78446,-21.70143 3.79562,-32.88691 -0.12595,-16.50588 0.55092,-33.11991 -3.31162,-49.31968 1.39742,-20.53973 -25.76958,-10.10328 -38.74539,-14.90229 -17.46308,-3.60661 -35.87844,-3.63067 -53.38796,-0.19828 z" />
  <path
     id="path14"
     style="fill:#e9ddaf;stroke:#e9ddaf;stroke-width:0.264583px;stroke-linecap:butt;stroke-linejoin:miter;stroke-opacity:1"
     d="m 93.978956,7.05766 c -10.25334,17.98561 -17.62217,37.52452 -23.74231,57.2442 -5.97482,16.23148 -12.82642,32.10558 -20.13364,47.75483 8.0039,9.77696 22.44835,7.69691 33.72836,10.12482 30.121904,3.23951 58.556414,14.309 88.084724,20.44184 18.774,4.36261 37.71967,8.07502 56.10208,13.8465 16.10852,2.70375 13.77987,-21.13132 19.65252,-31.10379 3.50797,-11.29793 10.07334,-21.42618 13.77268,-32.54772 4.20492,-17.41068 5.05875,-35.37843 6.90422,-53.13747 C 256.61752,33.55818 242.52856,36.2589 230.25656,31.38191 210.90662,27.55136 191.23384,25.13725 172.73661,17.94827 153.13348,12.03389 132.61306,10.2253 112.81608,5.26601 108.25016,3.81403 92.285536,-2.0466 93.978956,7.05766 Z" />
  <path
     id="path68"
     style="fill:#c8c4b7;stroke:#c8c4b7;stroke-width:0.264583px;stroke-linecap:butt;stroke-linejoin:miter;stroke-opacity:1"
     d="m 120.69841,99.62793 c 7.22507,5.83059 17.28368,5.86398 26.13761,5.90555 8.81632,0.84842 17.09535,5.93094 26.23882,2.99747 18.20739,-3.61096 37.75113,-2.76265 54.6107,5.54151 6.45371,4.41565 12.73729,0.0137 19.05881,-1.65996 5.88274,-0.70392 15.73676,-2.95564 13.04519,-11.02153 -3.72395,-6.50253 -4.79011,-17.6108 -14.67726,-17.24054 -7.81167,1.21506 -15.38089,0.73545 -22.71723,-2.26579 -11.49915,-2.39317 -23.41009,-1.25011 -34.8517,-4.06832 -11.73693,-1.48903 -23.65009,-1.64568 -35.14359,-4.77938 -9.71649,-2.26159 -19.782,-2.98032 -29.70125,-2.42999 -7.1625,3.30909 -12.81433,12.55878 -8.72252,20.24305 1.00827,3.61069 3.09866,7.28706 6.72242,8.77793 z" />
  <path
     id="path20"
     style="fill:#bc736e;fill-opacity:1;stroke:#bc736e;stroke-width:0.264583px;stroke-linecap:butt;stroke-linejoin:miter;stroke-opacity:1"
     d="m 115.22633,87.36065 c 0.21383,3.28512 2.24041,6.1087 4.43642,8.41998 0.95769,1.48111 2.94028,2.00883 3.66176,3.70196 0.69986,1.30451 2.3262,1.27502 3.59901,1.1476 1.98326,-0.17375 4.00364,-1.06184 5.12231,-2.7679 1.02926,-0.8653 1.43087,-2.27937 0.80407,-3.50166 -0.6216,-1.51037 -1.62526,-2.86609 -1.91148,-4.50625 -0.88389,-3.08862 -2.5195,-6.17523 -5.27625,-7.96377 -1.32679,-0.84728 -3.13928,-0.8381 -4.3649,0.20412 -1.55987,1.04295 -2.91665,2.33124 -4.15653,3.73371 -0.54957,0.70045 -0.8999,1.39102 -1.91441,1.53221 z" />
  <path
     id="path34"
     style="fill:#ba8d8f;fill-opacity:1;stroke:#ba8d8f;stroke-width:0.264583px;stroke-linecap:butt;stroke-linejoin:miter;stroke-opacity:1"
     d="m 118.62789,92.26313 c 1.02901,0.66191 1.80635,1.64312 2.84763,2.28989 0.87448,0.75114 1.29801,1.88692 2.1824,2.63201 0.60698,0.53209 1.19843,1.16187 1.26758,2.00924 0.0919,0.5909 0.64766,1.88142 -0.41541,1.70325 -0.66225,-0.10075 -1.26441,-0.57454 -1.57136,-1.16218 -0.19144,-0.77493 -0.63489,-1.45388 -1.20312,-2.0066 -0.43532,-0.43746 -0.63597,-1.08551 -1.22073,-1.36806 -0.63588,-0.36654 -1.39478,-0.65347 -1.73275,-1.36063 -0.30658,-0.56331 -0.77167,-1.05972 -0.96629,-1.67327 -0.0972,-0.54464 0.4337,-0.81716 0.81205,-1.06365 z" />
  <path
     id="path40"
     style="fill:#bc736e;fill-opacity:1;stroke:#bc736e;stroke-width:0.264583px;stroke-linecap:butt;stroke-linejoin:miter;stroke-opacity:1"
     d="m 130.63193,92.57369 c 1.18757,1.15701 2.60973,2.03759 3.82665,3.16089 1.40465,1.05877 2.79855,2.17012 4.3592,2.98667 1.80069,0.54721 3.48654,-0.85865 4.31267,-2.34785 1.11683,-1.87428 1.37124,-4.54853 -0.21005,-6.24472 -1.5959,-1.25702 -3.14432,-2.58613 -4.91677,-3.59776 -1.2138,-0.70931 -2.52664,-1.3739 -3.94208,-1.51224 -1.03429,0.0348 -1.62317,1.0084 -2.19553,1.73504 -1.17759,1.72503 -0.86708,3.87212 -1.23409,5.81997 z" />
  <path
     id="path46"
     style="fill:#bc736e;fill-opacity:1;stroke:#bc736e;stroke-width:0.264583px;stroke-linecap:butt;stroke-linejoin:miter;stroke-opacity:1"
     d="m 144.0163,88.35889 c -0.72218,1.22543 -1.03858,2.70531 -0.89012,4.11685 0.2652,1.22258 1.31951,2.04805 2.20648,2.83996 1.1308,0.85374 2.45089,1.77633 3.94838,1.54251 0.85192,-0.0583 1.83692,-0.11789 2.27827,-0.98173 0.54049,-0.66197 0.60813,-1.57347 0.88302,-2.36204 0.40191,-1.76081 0.6696,-3.73011 -0.15979,-5.41066 -0.87281,-1.41226 -2.47177,-2.17119 -4.00331,-2.65509 -0.94673,-0.26749 -2.14069,-0.49775 -2.90287,0.30546 -0.651,0.6033 -0.38162,1.52197 -0.57782,2.27953 -0.0781,0.3953 -0.48862,0.29998 -0.78224,0.32521 z" />
  <path
     id="path52"
     style="fill:#ba8d8f;fill-opacity:1;stroke:#ba8d8f;stroke-width:0.264583px;stroke-linecap:butt;stroke-linejoin:miter;stroke-opacity:1"
     d="m 132.89964,89.60115 c 1.38544,1.30047 3.59225,1.29522 4.80484,2.82933 0.38748,0.50065 0.34811,1.16828 0.62583,1.71989 0.46618,1.10094 0.44076,2.31396 0.35935,3.48308 0.006,0.52177 0.45683,1.71808 -0.36692,1.6767 -1.25384,-0.0289 -2.17761,-0.99614 -2.93934,-1.88234 -0.83056,-0.88008 -1.92301,-1.56255 -2.42501,-2.71023 -0.58006,-1.07962 -1.07925,-2.20585 -1.44222,-3.37754 -0.003,-0.74021 0.002,-1.58276 0.44262,-2.20375 0.367,-0.14833 0.66755,0.29449 0.94085,0.46486 z" />
  <path
     id="path62"
     style="fill:#ba8d8f;fill-opacity:1;stroke:#ba8d8f;stroke-width:0.264583px;stroke-linecap:butt;stroke-linejoin:miter;stroke-opacity:1"
     d="m 146.18542,88.6029 c 1.21386,1.75163 3.28006,2.76425 4.24295,4.71273 0.43825,0.87147 0.8375,1.99593 0.24132,2.89322 -0.61632,1.04472 -2.16557,1.485 -3.14879,0.68582 -0.84481,-0.66555 -1.57366,-1.51487 -2.58508,-1.94342 -0.37108,-0.49233 -0.67029,-1.10444 -0.81127,-1.72024 -0.0275,-1.4321 0.0988,-2.87653 0.3983,-4.27901 0.26732,-0.65383 1.13154,-0.55039 1.66257,-0.3491 z" />
  <path
     id="path92"
     style="fill:#bc736e;fill-opacity:1;stroke:#bc736e;stroke-width:0.264583px;stroke-linecap:butt;stroke-linejoin:miter;stroke-opacity:1"
     d="m 132.6285,43.57112 c 1.23601,-0.24784 2.75792,-0.46272 3.82308,0.34714 0.88031,1.20497 -0.0197,2.7008 -0.0169,4.02207 -0.2963,1.68621 0.61647,3.22088 2.01995,4.08808 1.34082,1.03455 0.0822,2.54946 -0.85105,3.32335 -1.41228,1.37983 -2.01266,3.40603 -3.61747,4.61629 -0.69701,1.07744 -1.97664,1.26293 -2.87974,2.07731 -1.07013,0.90513 -2.43272,1.22419 -3.71065,1.70487 -1.69097,0.18776 -1.36476,-2.36401 -1.8078,-3.50797 -0.217,-2.39403 -2.90876,-3.85737 -2.6974,-6.35743 0.39909,-1.58399 1.87463,-2.55906 2.72953,-3.88719 1.61733,-2.04176 3.39052,-4.04971 5.61131,-5.43088 0.54401,-0.23144 1.95407,0.0379 1.39717,-0.99564 z" />
  <path
     id="path98"
     style="fill:#7d4b40;fill-opacity:1;stroke:#7d4b40;stroke-width:0.264583px;stroke-linecap:butt;stroke-linejoin:miter;stroke-opacity:1"
     d="m 137.58293,54.15248 c -1.43712,1.05548 -2.17595,2.83292 -3.77922,3.7059 -0.78542,0.96736 -1.60369,1.89171 -2.5137,2.74525 -0.80504,0.89697 -1.77875,1.68299 -2.99492,1.90108 -1.48267,0.56501 -1.0441,2.57844 -1.54956,3.82409 -0.31011,1.61404 -7.69198,6.43519 -8.07494,8.02415 0.50819,1.88629 9.51681,3.7132 10.5512,3.24289 2.88408,-1.38925 6.20697,-7.2693 9.12384,-6.41692 1.2052,0.25536 2.79859,0.95516 3.78206,-0.13927 0.88157,-1.26402 1.33434,-2.78912 2.34942,-3.981 0.51759,-1.30437 3.29361,-2.35023 1.89304,-3.83242 -1.1426,-1.0163 -2.8234,-1.52281 -3.47868,-2.99996 -1.18491,-0.85672 -2.45362,-1.64058 -3.41092,-2.78453 -0.92238,-0.93706 -0.36496,-2.47561 -1.7235,-3.10079 l -0.17408,-0.18847 z" />
  <path
     id="path104"
     style="fill:#bc736e;fill-opacity:1;stroke:#bc736e;stroke-width:0.264583px;stroke-linecap:butt;stroke-linejoin:miter;stroke-opacity:1"
     d="m 116.87781,50.69191 c -2.14425,0.43728 -3.61368,2.34139 -4.76979,4.05745 -2.02572,3.76036 -1.10613,8.14471 -1.53939,12.21378 0.0541,2.46657 0.45736,4.93109 0.13921,7.40383 -0.26874,2.70288 -0.38418,5.84428 1.5809,7.98999 0.55144,1.17296 1.46182,3.91251 3.10937,2.5662 1.44642,-1.44271 2.6143,-3.13876 4.19616,-4.4565 1.60602,-1.90451 0.88374,-4.54822 0.80343,-6.80551 -0.35004,-4.99241 0.34462,-10.04679 -0.60116,-15.00252 0.18853,-2.63409 -1.87021,-4.7235 -2.03983,-7.28852 -0.0786,-0.40709 -0.45752,-0.71534 -0.8789,-0.6782 z" />
  <path
     id="path118"
     style="fill:#e9afaf;fill-opacity:1;stroke:#e9afaf;stroke-width:0.264583px;stroke-linecap:butt;stroke-linejoin:miter;stroke-opacity:1"
     d="m 138.98793,32.65701 c 5.14926,1.27976 10.76333,-0.48892 15.70587,1.69216 2.71386,1.9653 5.41552,3.92338 8.67707,4.8627 3.68668,1.6795 7.74921,3.56712 9.89387,7.16927 0.5374,2.93475 0.97514,5.84733 2.67458,8.38715 1.34438,3.46136 -3.14721,4.97181 -5.01329,7.02115 -4.16788,2.78894 -7.56222,6.87498 -12.48384,8.40306 -2.85667,0.8945 -5.64384,2.20056 -8.71416,1.99171 -2.8376,-0.27172 -5.47923,2.64639 -8.23472,0.90538 -1.8087,-2.25521 1.09941,-5.1757 0.71712,-7.86349 0.5534,-2.75516 -1.557,-4.59769 -3.05711,-6.55367 -1.53319,-2.76875 -1.80376,-5.89043 -3.09746,-8.78884 -0.70094,-2.5546 -1.75418,-5.34247 -0.0403,-7.78067 2.95843,-2.80436 1.86508,-5.98436 2.97241,-9.44591 z" />
  <path
     id="path124"
     style="fill:#dbab9f;fill-opacity:1;stroke:#dbab9f;stroke-width:0.264583px;stroke-linecap:butt;stroke-linejoin:miter;stroke-opacity:1"
     d="m 268.32094,48.93944 c -8.39222,1.22792 -16.94876,0.003 -25.2875,1.23208 -8.03007,1.9654 -16.27154,3.49649 -24.54178,2.24253 -7.84261,-0.3603 -15.35304,-2.96859 -21.97752,-7.11776 -7.7252,-4.28706 -15.64279,-8.14212 -23.29711,-12.56608 -7.22512,-3.50753 -14.13017,-8.58174 -22.39304,-9.12699 -10.16858,4.89757 -21.31213,6.76591 -32.27441,8.97805 -4.21565,1.27895 -14.05821,1.06869 -11.06553,7.92955 3.86343,6.7392 6.57906,14.17345 7.64109,21.90584 2.38493,6.61429 -6.34809,14.09403 -2.24078,19.42735 7.64903,0.56032 11.97935,-7.17015 15.71749,-12.62268 1.82572,-6.53586 0.69736,-13.67773 -0.89428,-20.11604 -0.45111,-2.23194 5.37989,1.3844 6.75358,-2.1663 4.26264,-3.73428 1.3731,5.60891 6.66554,3.16233 6.61257,-2.82 14.92459,-7.41326 21.51804,-1.99463 6.34004,5.63558 0.81092,14.91991 -5.40851,17.94652 -6.24864,3.65822 -12.85279,3.66282 -19.76886,3.53382 -4.5806,5.38601 -14.70763,6.35329 -15.63161,14.51441 -0.0178,8.61237 9.84806,10.00898 16.23833,7.79302 8.08812,-1.43513 15.94428,-4.21115 24.2702,-4.0688 7.46943,-0.76841 13.06661,5.38832 20.35886,5.74698 8.82135,1.27009 17.1611,-2.86828 25.89463,-3.2811 17.6497,-1.01054 35.07594,-4.92525 52.80723,-4.86648 8.57713,0.94002 8.0427,-7.83566 6.9486,-13.65052 -0.57924,-7.41327 -0.31026,-14.95353 0.20239,-22.2908 l -0.14063,-0.32514 -0.0948,-0.21918 z" />
  <path
     id="path136"
     style="fill:#ba8d8f;fill-opacity:1;stroke:#ba8d8f;stroke-width:0.264583px;stroke-linecap:butt;stroke-linejoin:miter;stroke-opacity:1"
     d="m 114.93054,67.86167 c 0.49998,2.44916 0.24651,4.97686 0.70036,7.43333 0.23789,1.65437 0.33375,3.50037 -0.67078,4.93878 -0.36683,0.70331 -0.82742,1.39576 -1.59173,1.71312 -0.64044,0.35804 -1.6441,0.47743 -2.01887,-0.31114 -0.69056,-1.48226 -0.0307,-3.12635 0.50157,-4.54807 0.61727,-1.41943 0.97285,-2.92886 1.20598,-4.45454 0.25905,-1.44893 0.52413,-2.91939 1.14825,-4.264 -0.17283,-0.4713 0.44745,-0.44418 0.72522,-0.50748 z" />
  <g
     id="g166"
     transform="translate(-45.820504,-138.17782)">
    <path
       id="path74"
       style="fill:#00002b;stroke:#00002b;stroke-width:0.264583px;stroke-linecap:butt;stroke-linejoin:miter;stroke-opacity:1"
       d="m 155.55013,229.7089 c 5.70425,4.49041 10.14236,-4.44738 13.92952,-7.74024 7.33364,-6.89409 16.86077,-10.92769 23.90992,-18.173 7.85255,-7.00763 17.8787,-11.05177 25.17169,-18.75749 8.48031,-8.71407 20.11051,-14.1312 26.86716,-24.51043 4.40764,-2.06183 4.90753,-9.57892 -1.29161,-6.46117 -5.52067,2.35057 -8.64431,7.99621 -14.13818,10.46718 -10.45825,5.55538 -18.53648,14.44205 -28.06377,21.30558 -7.61463,7.0124 -15.45203,13.76134 -22.90689,20.96527 -6.67917,6.54831 -14.77434,11.44032 -21.08505,18.37252 -1.09319,1.38673 -4.80337,2.40782 -2.39279,4.53178 z" />
    <path
       id="path86"
       style="fill:#d4b49c;fill-opacity:1;stroke:#d4b49c;stroke-width:0.264583px;stroke-linecap:butt;stroke-linejoin:miter;stroke-opacity:1"
       d="m 148.18009,235.83145 c -0.10869,0.31498 -0.48657,0.33618 -0.76456,0.38584 -0.33745,0.0531 -0.56124,0.33711 -0.77173,0.57925 -0.28142,0.47523 -0.73584,0.82667 -0.97976,1.32711 -0.17022,0.29385 0.22422,0.39826 0.43448,0.28498 0.62518,-0.17789 1.19077,-0.51401 1.75434,-0.82961 0.52534,-0.3151 1.05058,-0.63856 1.52712,-1.02432 0.21358,-0.19367 -0.1444,-0.3799 -0.30851,-0.44127 -0.28459,-0.12892 -0.58961,-0.20493 -0.89138,-0.28198 z" />
    <path
       id="path80"
       style="fill:#d99e66;fill-opacity:1;stroke:#d99e66;stroke-width:0.264583px;stroke-linecap:butt;stroke-linejoin:miter;stroke-opacity:1"
       d="m 156.16635,226.95819 c 0.54519,1.16595 1.67977,1.90274 2.30497,3.01525 0.73679,0.28036 1.5338,0.92432 0.89083,1.75852 -0.6394,0.69927 -1.56744,1.06058 -2.35892,1.56156 -1.66453,0.89966 -3.37101,1.73828 -4.89034,2.87744 -0.81076,0.52138 -1.68753,1.15135 -2.70742,0.97619 -0.73467,-0.0464 -1.79997,-0.30653 -1.76242,-1.23646 0.0813,-0.97835 1.01804,-1.55443 1.71238,-2.11982 0.61748,-0.32007 0.84852,-0.93797 1.31116,-1.38949 0.60762,-0.30955 0.97624,-0.87145 1.41966,-1.36406 0.93976,-1.05523 1.5743,-2.37274 2.66962,-3.29668 0.58753,-0.1298 0.66722,-1.06667 1.41048,-0.78245 z" />
    <path
       id="path142"
       style="fill:#d4b49c;fill-opacity:1;stroke:#d4b49c;stroke-width:0.264583px;stroke-linecap:butt;stroke-linejoin:miter;stroke-opacity:1"
       d="m 242.38837,154.92952 c -0.001,1.51059 0.76809,2.88685 1.62208,4.0827 0.50772,0.64053 1.21486,1.35386 2.10936,1.22054 0.80484,-0.12798 1.24536,-0.8804 1.72721,-1.44847 0.42349,-0.27677 0.85807,-0.6651 0.78385,-1.22974 -0.0482,-0.56901 -0.26728,-1.19543 -0.7341,-1.55263 -0.47806,-0.19883 -0.72655,-0.65491 -1.03321,-1.04335 -0.52338,-0.64675 -1.1024,-1.36205 -1.93297,-1.60046 -0.58889,-0.17991 -0.95968,0.33847 -1.35238,0.66141 -0.43798,0.25692 -0.9024,0.4612 -1.18984,0.91 z" />
    <path
       id="path148"
       style="fill:#d99e66;fill-opacity:1;stroke:#d99e66;stroke-width:0.264583px;stroke-linecap:butt;stroke-linejoin:miter;stroke-opacity:1"
       d="m 201.00279,186.25212 c -1.0208,0.63983 -1.50996,1.96965 -1.14106,3.11876 0.31864,1.23123 1.1507,2.29686 2.23409,2.95261 0.97556,0.68728 1.72285,1.6556 2.74105,2.29265 0.6,0.45542 1.40004,0.32295 2.10501,0.3528 0.53819,0.0966 0.99688,-0.46257 0.40346,-0.8058 -1.06909,-1.07968 -2.83406,-1.12868 -3.75,-2.39789 -0.73834,-1.01389 -1.38648,-2.12299 -1.75842,-3.32654 -0.25171,-0.51544 0.0429,-1.11418 -0.27243,-1.59277 -0.15455,-0.22748 -0.38564,-0.38453 -0.5617,-0.59382 z" />
    <path
       id="path154"
       style="fill:#d99e66;fill-opacity:1;stroke:#d99e66;stroke-width:0.264583px;stroke-linecap:butt;stroke-linejoin:miter;stroke-opacity:1"
       d="m 243.96589,158.78938 c 1.73053,0.87951 3.39648,3.55027 1.31411,4.99551 -2.16687,1.81654 -4.56089,3.33211 -6.60713,5.30057 -4.84749,3.76795 -10.43719,6.66353 -14.49685,11.3709 -2.55872,2.11862 -5.16824,4.23529 -7.15937,6.91874 -1.82045,0.83935 -2.02848,3.84115 -3.71037,3.96943 -2.67261,-1.42437 -0.29829,-4.44047 0.32141,-6.41024 1.17347,-2.25675 3.0109,-4.08432 4.72517,-5.93568 3.20263,-2.72089 7.35134,-3.90463 10.84347,-6.18703 3.02857,-1.73809 5.54403,-4.2334 7.64074,-6.98768 2.17926,-1.77722 3.48746,-4.34644 5.45888,-6.28032 0.4997,-0.35876 1.07302,-0.60966 1.66994,-0.7542 z" />
  </g>
  <path
     id="path168"
     style="fill:#dbab9f;fill-opacity:1;stroke:#dbab9f;stroke-width:0.264583px;stroke-linecap:butt;stroke-linejoin:miter;stroke-opacity:1"
     d="m 145.89421,70.39926 c -1.55642,0.12677 -3.05618,-1.22264 -4.55386,-0.43268 -2.94049,1.0374 -5.93091,2.04446 -8.51484,3.84242 -2.37424,1.63676 -5.19187,2.4774 -7.59121,4.0483 -1.45183,1.42961 -3.07424,2.8447 -4.08978,4.61401 -0.72077,2.35347 1.00396,4.492 1.97338,6.49785 0.70735,1.56274 2.73866,2.81894 4.39006,1.84959 2.59212,-1.07289 4.97394,-2.55118 7.21952,-4.22366 1.91745,-1.20201 3.6393,-2.69633 5.42266,-4.08626 1.65651,-1.74905 3.35019,-3.47089 4.95695,-5.261 1.31113,-1.76687 2.66542,-4.38762 1.28157,-6.47012 l -0.23468,-0.20496 z" />
  <path
     id="path130"
     style="fill:#ba8d8f;fill-opacity:1;stroke:#ba8d8f;stroke-width:0.264583px;stroke-linecap:butt;stroke-linejoin:miter;stroke-opacity:1"
     d="m 124.83943,79.86275 c 1.51157,-0.0811 3.0756,-1.00539 4.55711,-0.29818 1.02011,0.70278 1.44344,1.94614 2.00168,3.00189 0.6997,1.60968 1.8559,3.16833 1.68841,5.01213 -0.0659,1.20684 -1.14442,1.94198 -1.75768,2.87782 -0.68537,0.74486 -1.72551,0.27629 -2.58556,0.43712 -1.30562,0.23465 -2.76252,0.74184 -4.02086,0.0905 -0.89084,-0.6443 -1.71265,-1.42229 -2.34936,-2.32197 -0.86394,-1.25834 -1.02814,-2.81406 -1.03302,-4.29895 -0.12128,-0.94841 -0.079,-1.9692 0.6807,-2.65383 0.66671,-0.97183 1.88193,-1.23082 2.81858,-1.84653 z" />
  <path
     id="path174"
     style="fill:#000000;stroke:#000000;stroke-width:0.264583px;stroke-linecap:butt;stroke-linejoin:miter;stroke-opacity:1"
     d="m 70.134136,100.47465 c 1.56302,1.52773 3.78384,0.16627 5.63186,0.15278 3.26296,-0.26834 6.52574,0.31952 9.74162,0.77521 3.90254,0.91101 7.25153,3.21332 10.97528,4.58794 0.821559,0.54891 3.223939,1.84765 1.400769,0.0879 -2.021189,-1.80535 -5.008629,-2.14202 -6.787059,-4.27909 -1.96778,-1.61376 -4.61037,-1.72805 -6.96789,-2.39269 -3.02642,-0.60371 -6.12995,-0.48618 -9.19564,-0.66955 -1.74109,0.002 -3.54114,0.46989 -4.79894,1.73753 z" />
  <path
     id="path181"
     style="fill:#000000;stroke:#000000;stroke-width:0.264583px;stroke-linecap:butt;stroke-linejoin:miter;stroke-opacity:1"
     d="m 68.581256,105.17747 c 0.51473,2.31293 2.3302,0.99646 2.26598,-0.69667 0.71656,-1.92934 1.54925,-3.81617 2.70551,-5.52508 0.69674,-1.9541 1.75245,-3.77901 2.92094,-5.50707 0.81859,-0.92909 2.86684,-4.02704 3.79857,-2.0695 -0.15539,1.33646 0.27608,4.44058 2.19633,2.93803 1.25185,-1.69756 2.49719,-3.54948 4.62019,-4.31358 1.26316,-0.79663 3.82204,-1.48746 4.32844,0.51224 1.05678,2.55044 3.00595,4.59358 4.24551,7.05284 0.82425,1.26006 2.700309,4.21498 4.168169,3.35939 -0.4833,-1.77126 -2.42941,-2.44361 -3.340269,-3.94841 -1.03114,-1.51066 -2.25307,-2.92356 -3.06808,-4.56053 -0.55722,-2.02214 -1.5212,-4.39215 -3.8183,-4.88072 -2.42619,-0.59788 -3.76305,1.94388 -5.54817,3.02811 -0.94715,1.32851 -2.59725,1.48336 -2.69299,-0.49538 -0.82951,-2.06412 -2.91356,-0.58455 -3.85822,0.53703 -1.67127,1.63323 -3.25241,3.37161 -4.90312,5.01472 -1.50951,2.68861 -3.53851,5.34848 -3.59493,8.56652 -0.0656,0.35522 -0.20065,0.70245 -0.42556,0.98806 z" />
  <path
     id="path191"
     style="fill:#003380;stroke:#003380;stroke-width:0.264583px;stroke-linecap:butt;stroke-linejoin:miter;stroke-opacity:1"
     d="m 231.27693,47.85059 c -3.90703,-0.28744 -4.54183,5.42825 -0.35373,5.54712 3.3302,1.68235 2.8699,5.80984 2.81942,8.92288 -0.34613,5.71247 -1.63588,11.50221 -0.22486,17.1762 0.8869,3.44908 -1.19896,6.3231 -2.61994,8.89794 1.25407,3.89026 6.36894,3.33539 9.62148,3.25381 3.94216,-1.14096 7.19631,0.36183 9.71362,3.27945 3.37244,-0.82023 6.84457,-2.22765 10.52392,-0.90009 4.20131,0.46538 8.48629,0.32628 12.61953,-0.58931 2.5477,-2.66662 0.64381,-6.59963 -0.33971,-9.54009 -1.67084,-3.37803 0.12661,-6.96046 -0.64323,-10.39995 -1.21296,-4.55574 -0.57151,-9.35377 -1.16176,-14.00579 -0.51594,-3.47241 0.14703,-6.93163 0.70339,-10.3501 -1.35628,-3.29417 -5.68749,-1.61311 -8.34484,-1.52814 -4.16487,-0.26002 -8.36422,-0.97572 -12.47475,0.19184 -3.68455,1.26365 -7.19094,-0.22181 -10.75962,-1.02711 -3.27107,-0.94771 -6.00505,0.3238 -9.07892,1.07134 z" />
  <path
     id="path197"
     style="fill:#002255;stroke:#002255;stroke-width:0.264583px;stroke-linecap:butt;stroke-linejoin:miter;stroke-opacity:1"
     d="m 204.95185,48.84882 c 2.27983,2.18239 2.85276,5.46891 4.1013,8.25083 0.86798,3.20771 1.70561,6.49507 1.65705,9.83705 -0.30262,4.13764 -0.72782,8.26216 -0.73776,12.41754 -0.38209,3.78865 -2.19116,7.27476 -2.49344,11.07739 -0.69074,1.63053 2.83139,-0.12094 3.87457,0.58187 4.14541,0.10299 8.307,-0.21668 12.41476,-0.71488 2.77892,-0.59105 5.63103,-0.89966 8.30233,-1.87262 1.81493,-1.43918 2.40792,-3.911 3.35562,-5.9473 0.43172,-2.66085 -0.34927,-5.40231 -0.21134,-8.10305 -0.22086,-4.06377 -0.74772,-8.14996 0.0176,-12.19102 0.19475,-2.55096 0.86392,-5.2854 -0.0657,-7.74537 -1.811,-2.97318 -5.64567,-3.64607 -8.8669,-3.39499 -3.42015,-0.2033 -6.89394,-0.81233 -10.29123,0.03 -2.85077,-0.20895 -5.74093,-0.81194 -8.45248,-1.62588 -0.78985,-0.39745 -1.68984,-0.93704 -2.60433,-0.59956 z" />
</svg>
