<?xml version="1.0" encoding="UTF-8" standalone="no"?>
<svg
   xmlns:dc="http://purl.org/dc/elements/1.1/"
   xmlns:cc="http://creativecommons.org/ns#"
   xmlns:rdf="http://www.w3.org/1999/02/22-rdf-syntax-ns#"
   xmlns:svg="http://www.w3.org/2000/svg"
   xmlns="http://www.w3.org/2000/svg"
   xmlns:sodipodi="http://sodipodi.sourceforge.net/DTD/sodipodi-0.dtd"
   xmlns:inkscape="http://www.inkscape.org/namespaces/inkscape"
   width="1200"
   height="600"
   viewBox="0 0 317.5 158.75"
   version="1.1"
   id="svg8"
   inkscape:version="1.0.1 (3bc2e813f5, 2020-09-07)"
   sodipodi:docname="reg-quick-brown-fox.svg">
  <defs
     id="defs2" />
  <sodipodi:namedview
     id="base"
     pagecolor="#ffffff"
     bordercolor="#666666"
     borderopacity="1.0"
     inkscape:pageopacity="0.0"
     inkscape:pageshadow="2"
     inkscape:zoom="1.4"
     inkscape:cx="603.14599"
     inkscape:cy="318.76187"
     inkscape:document-units="mm"
     inkscape:current-layer="layer1"
     showgrid="false"
     units="px"
     inkscape:window-width="1920"
     inkscape:window-height="1061"
     inkscape:window-x="0"
     inkscape:window-y="19"
     inkscape:window-maximized="0"
     inkscape:document-rotation="0"
     inkscape:snap-global="false" />
  <metadata
     id="metadata5">
    <rdf:RDF>
      <cc:Work
         rdf:about="">
        <dc:format>image/svg+xml</dc:format>
        <dc:type
           rdf:resource="http://purl.org/dc/dcmitype/StillImage" />
        <dc:title></dc:title>
      </cc:Work>
    </rdf:RDF>
  </metadata>
  <g
     inkscape:label="Layer 1"
     inkscape:groupmode="layer"
     id="layer1"
     transform="translate(0,-138.25001)">
    <path
       id="path74"
       style="fill:#000000;stroke:#000000;stroke-width:1;stroke-linecap:round"
       d="m 83.40768,222.81728 c -14.859308,15.36662 -31.358397,29.05199 -47.095919,43.47642 -7.390908,6.13412 -14.862001,12.1739 -22.118213,18.46839 10.822483,-6.69443 19.370895,-16.37755 29.531776,-23.9884 11.623266,-11.07944 23.703605,-21.63676 35.726947,-32.26246 1.607564,-1.66369 3.213172,-3.45015 3.955409,-5.69395 z" />
    <path
       id="path76"
       style="fill:#000000;stroke:#000000;stroke-width:1;stroke-linecap:round"
       d="m 16.904076,272.89939 c -1.417746,5.87395 -4.882739,11.0567 -9.0531021,15.34635 1.9696168,2.00339 4.8306261,-0.4274 7.2011331,-0.28622 3.815503,-0.75627 7.727779,-1.24159 11.618435,-0.88485 0.215934,-1.61099 -3.908909,-0.32298 -5.28949,-0.51762 -4.076378,0.32284 -8.049011,1.51443 -12.1378715,1.66918 2.3843635,-3.32998 4.9380905,-6.6857 6.6624455,-10.45824 -0.02007,-1.29447 3.073021,-4.26799 0.99845,-4.8686 z" />
    <path
       id="path96"
       style="fill:#000000;stroke:#000000;stroke-width:1;stroke-linecap:round"
       d="m 70.87366,228.83009 c 40.53017,-3.2185 81.18619,-9.24886 121.8467,-4.05256 32.03822,1.91194 64.12602,3.64371 96.23381,3.09082 -68.18515,1.18675 -136.70682,-11.24685 -204.565322,0.1112 -4.492501,0.44666 -8.999843,0.77534 -13.515188,0.85054 z" />
    <path
       id="path98"
       style="fill:#000000;stroke:#000000;stroke-width:1;stroke-linecap:round"
       d="m 280.06558,219.95259 c 4.49385,3.50106 9.61326,6.33177 15.2182,7.53741 0.95234,0.86221 4.4352,0.43565 1.678,0.45996 -2.9055,1.13054 -5.81509,2.23822 -8.77477,3.24055 -1.47117,0.71865 -5.44152,1.6398 -5.37331,2.88088 4.33807,-1.43896 8.36536,-3.77117 12.87268,-4.7427 1.41461,-0.21257 6.19344,-1.02059 2.80564,-2.1972 -5.65652,0.29361 -11.0015,-2.3988 -15.50147,-5.61409 -0.82956,-0.64798 -1.64798,-2.4007 -2.92497,-1.56481 z" />
    <path
       id="path100"
       style="fill:#000000;stroke:#000000;stroke-width:1;stroke-linecap:round"
       d="m 74.764243,217.82347 c 2.909648,10.90673 8.230698,20.97978 14.575402,30.23068 4.244766,8.42053 6.509114,17.83115 12.002615,25.60953 0.40183,3.46829 6.93076,9.7914 2.26307,3.02397 -7.603177,-11.70786 -10.915414,-25.61542 -18.981406,-37.04694 -4.077557,-6.32242 -7.1692,-13.25139 -8.95404,-20.54822 z" />
    <path
       id="path102"
       style="fill:#000000;stroke:#000000;stroke-width:1;stroke-linecap:round"
       d="m 94.678167,277.13014 c 4.262532,2.92239 8.601723,5.76179 13.069043,8.34614 0.86312,1.67702 4.59541,3.58507 3.93753,0.24225 -1.23417,-3.12693 -1.18507,-6.53895 -1.87906,-9.7995 -0.20462,-1.6502 -0.39923,-1.38865 -0.35813,0.086 0.005,3.52648 1.12237,7.05067 0.39865,10.56843 2.35326,-0.52721 -1.61822,-0.75644 -2.27129,-1.53382 -4.01006,-2.06164 -7.921391,-4.40676 -11.426721,-7.25303 -0.446214,-0.30555 -0.819692,-1.1098 -1.470022,-0.65644 z" />
    <path
       id="path104"
       style="fill:#000000;stroke:#000000;stroke-width:1;stroke-linecap:round"
       d="m 79.546393,240.30243 c -1.531857,-14.6149 0.316335,-29.37058 -1.695998,-43.97079 -1.116856,-15.47123 0.458134,-31.00275 2.793741,-46.23689 -3.462337,-7.99907 -1.442412,10.63726 -3.081546,13.94239 -3.404857,21.14876 0.844823,42.44785 0.178555,63.69634 0.54242,4.17712 -0.765889,8.85167 1.805248,12.56895 z" />
    <path
       id="path106"
       style="fill:#000000;stroke:#000000;stroke-width:1;stroke-linecap:round"
       d="m 71.697339,157.94027 c 2.369016,-5.18199 5.509546,-9.99317 8.314643,-14.91616 0.666854,-1.95819 -0.987216,-0.34019 0.392167,0.48417 2.509395,3.30049 3.870759,7.31792 6.455107,10.56708 -0.737122,-3.64423 -3.728381,-6.26783 -4.772878,-9.79954 -0.380019,-2.17875 -3.40471,-3.66356 -3.798819,-0.66262 -1.732792,4.03247 -4.153753,7.73512 -6.22435,11.60189 -0.166812,0.88187 -2.412002,2.7488 -0.36587,2.72518 z" />
    <path
       id="path114"
       style="fill:#000000;stroke:#000000;stroke-width:1;stroke-linecap:round"
       d="m 56.901302,239.53706 c 44.430828,-22.8284 86.388938,-50.17513 127.943648,-77.78647 7.2878,-5.05829 16.07464,-13.19558 3.42607,-3.03507 -39.8395,28.64695 -82.16188,53.78919 -124.975728,77.69232 l -3.18372,1.59031 z" />
    <path
       id="path116"
       style="fill:#000000;stroke:#000000;stroke-width:1;stroke-linecap:round"
       d="m 183.47163,155.52661 c 5.49139,-2.46692 11.26711,-4.24562 16.76778,-6.68294 1.47748,-0.1157 3.33606,-1.76443 1.01032,-0.39996 -1.72939,2.5341 -3.42059,5.09637 -4.97767,7.75917 -0.5016,1.54834 -3.66226,4.82397 -2.12586,5.69576 1.29719,-2.21722 1.69045,-4.8669 3.20789,-6.99687 1.50109,-2.50869 3.39209,-4.77205 5.51262,-6.77952 -2.55528,-1.55276 -4.54897,2.50642 -7.25008,2.49641 -4.15106,1.75162 -8.41405,3.24178 -12.76285,4.42171 l 0.30906,0.24295 z" />
    <path
       id="path118"
       style="fill:#000000;stroke:#000000;stroke-width:1;stroke-linecap:round"
       d="m 29.91359,286.5995 c 1.724482,2.6089 2.559931,5.68354 3.079527,8.73579 1.103772,1.1105 1.055965,-1.15713 0.479818,-1.68525 -0.748062,-2.36267 -1.555149,-4.71952 -2.583328,-6.97106 -0.221938,-0.32165 -0.694851,-0.31683 -0.976017,-0.0795 z" />
    <path
       id="path120"
       style="fill:#000000;stroke:#000000;stroke-width:1;stroke-linecap:round"
       d="m 28.832902,287.92172 c 1.60048,-2.02661 3.8312,-3.39748 6.004893,-4.72029 0.545348,-0.33275 0.822034,-1.25201 -0.08321,-0.64006 -1.793268,0.84674 -3.229342,2.26124 -4.866259,3.35588 -0.472845,0.5312 -2.058305,1.1848 -1.776736,1.65299 0.240443,0.11715 0.48089,0.23429 0.721316,0.35148 z" />
    <path
       id="path122"
       style="fill:#000000;stroke:#000000;stroke-width:1;stroke-linecap:round"
       d="m 32.541397,290.57535 c 1.519867,-1.25791 3.191958,-2.32431 4.861928,-3.35965 0.763404,-1.03527 -0.707269,-0.69692 -1.119618,-0.18921 -1.07584,0.79758 -2.15827,1.587 -3.34696,2.21227 -0.543724,0.29458 -1.851047,0.89272 -0.611966,1.19192 l 0.117206,0.0626 0.09941,0.0821 z" />
    <path
       id="path124"
       style="fill:#000000;stroke:#000000;stroke-width:1;stroke-linecap:round"
       d="m 41.851939,279.48256 c -0.875013,2.25073 -1.562976,4.78783 -0.804796,7.17078 0.462226,1.39297 1.423586,2.77873 2.92744,3.14131 1.063833,0.32851 2.284159,-0.0975 2.88088,-1.04399 1.237489,-1.80613 1.053312,-4.19382 0.363418,-6.17235 -0.03448,-1.54304 -1.547147,-2.66374 -3.007821,-2.70393 -0.525831,-0.0663 -1.445111,-0.23729 -1.35281,0.59425 0.153503,0.71481 0.794788,0.63832 1.222933,0.70773 0.772456,-0.0929 1.311546,0.50125 1.675425,1.10392 1.306708,1.90237 1.34036,4.69232 -0.140921,6.5071 -0.675595,0.69141 -1.779399,0.53236 -2.494287,-0.007 -1.477532,-1.00175 -1.967485,-2.91546 -1.929603,-4.61053 0.0515,-1.54966 0.55968,-3.06602 1.357017,-4.38804 0.0604,-0.29806 -0.526537,-0.15924 -0.696875,-0.29935 z" />
    <path
       id="path126"
       style="fill:#000000;stroke:#000000;stroke-width:1;stroke-linecap:round"
       d="m 47.580999,277.20772 c 3.958855,1.61082 7.897894,3.28363 11.855099,4.88941 1.014788,0.36638 1.595762,-0.52426 0.377744,-0.76749 -3.815202,-1.36482 -7.732585,-2.56353 -11.277756,-4.5748 -0.398454,-0.11652 -0.671432,0.25545 -0.955087,0.45288 z" />
    <path
       id="path128"
       style="fill:#000000;stroke:#000000;stroke-width:1;stroke-linecap:round"
       d="m 54.908211,274.75031 c -0.999908,3.3657 -1.808242,6.78404 -2.600065,10.20345 -0.156493,0.65769 0.699806,1.20529 0.849745,0.34047 0.747092,-1.53983 0.572565,-3.31087 1.109876,-4.91128 0.406255,-1.84453 0.897119,-3.67333 1.542204,-5.44965 -0.300606,-0.0609 -0.601121,-0.12225 -0.90176,-0.18299 z" />
    <path
       id="path130"
       style="fill:#000000;stroke:#000000;stroke-width:1;stroke-linecap:round"
       d="m 44.703491,145.4378 c 1.546314,2.82835 2.778494,5.85102 3.487282,8.99745 0.66997,1.13629 1.697583,-0.47862 0.808049,-1.15081 -1.047652,-2.63456 -2.268155,-5.19621 -3.333501,-7.82321 -0.231834,-0.30823 -0.67863,-0.17019 -0.96183,-0.0234 z" />
    <path
       id="path132"
       style="fill:#000000;stroke:#000000;stroke-width:1;stroke-linecap:round"
       d="m 45.676023,146.04277 c 0.647222,-1.60392 2.919135,-1.35207 3.741521,-0.0374 1.717353,1.94556 1.226839,4.88823 0.04836,6.97211 -0.636962,0.55942 -0.48872,2.80182 0.431869,1.42374 1.280506,-2.00481 1.905212,-4.60346 1.031607,-6.89651 -0.605189,-1.70182 -2.213268,-3.59866 -4.220728,-3.09894 -0.699573,0.0332 -2.689385,1.48814 -1.032632,1.63695 z" />
    <path
       id="path134"
       style="fill:#000000;stroke:#000000;stroke-width:1;stroke-linecap:round"
       d="m 55.10594,143.41179 c -1.967924,1.45133 -2.715787,4.60076 -1.022497,6.5399 1.122575,1.51725 3.337342,1.87264 4.927897,0.91373 1.393952,-0.69407 2.40024,-2.30145 1.961125,-3.87429 -0.253317,-1.64552 -1.079093,-3.57698 -2.825014,-4.04752 -0.579949,-0.18466 -1.694594,0.40838 -0.552738,0.63813 1.647387,1.11619 2.990767,3.3942 1.979577,5.34003 -0.786825,1.56607 -3.132919,2.44598 -4.493026,1.06855 -1.625587,-1.43459 -1.49097,-4.35225 0.308975,-5.57424 0.70771,-0.49722 0.200603,-0.71001 -0.284299,-1.00429 z" />
    <path
       id="path136"
       style="fill:#000000;stroke:#000000;stroke-width:1;stroke-linecap:round"
       d="m 67.943261,141.14263 c -2.130822,1.26299 -4.287872,3.51402 -3.742942,6.20258 0.14274,1.78152 2.06416,3.22787 3.760597,2.37737 1.700604,-0.69462 0.167142,-2.57031 1.426228,-3.23707 -1.385656,0.20644 -0.244874,2.76734 -0.751174,3.92367 -0.169002,0.95164 -0.563712,3.39588 0.738807,3.18842 0.901623,-1.53617 0.157021,-3.40632 0.568382,-5.0644 0.813906,-1.71378 -0.780018,-4.14474 -2.340968,-2.16115 -1.127891,0.76705 0.457635,3.30858 -1.659237,2.46586 -1.335907,-0.89127 -1.244276,-2.92964 -0.535202,-4.21338 0.657146,-1.30008 1.893816,-2.20434 3.228674,-2.68661 0.04736,-0.34933 -0.548641,-0.52856 -0.693165,-0.79529 z" />
    <path
       id="path138"
       style="fill:#000000;stroke:#000000;stroke-width:1;stroke-linecap:round"
       d="m 218.43809,146.62824 c -4.03019,-0.6226 -7.45665,4.68419 -4.95856,8.00851 1.37172,2.02488 5.70071,1.40043 5.21448,-1.44355 -0.50488,-1.26167 0.99648,0.95422 0.20887,1.63448 -0.3045,1.98078 -0.65833,3.97465 -0.7541,5.98785 1.04598,1.34338 1.27969,-1.69968 1.23674,-2.53963 -0.0247,-2.03993 1.37283,-4.45218 0.21374,-6.27139 -1.45027,-1.07967 -3.40215,0.30808 -2.35298,1.91742 -0.90127,2.05539 -3.90867,0.55823 -3.70539,-1.39776 -0.19729,-2.42718 1.67974,-4.84028 4.15504,-5.01653 0.33012,-0.22413 0.40008,-0.6672 0.74216,-0.8794 z" />
    <path
       id="path140"
       style="fill:#000000;stroke:#000000;stroke-width:1;stroke-linecap:round"
       d="m 223.86078,147.1673 c 0.12199,2.70234 -0.19656,5.40403 -0.37202,8.09247 0.39248,1.36679 1.58689,-0.26517 1.07845,-1.07915 -0.0953,-1.28099 0.0586,-2.57291 0.0266,-3.86084 -0.0653,-1.02819 0.20781,-2.23109 0.0513,-3.14541 -0.26032,-0.0519 -0.5257,0.0616 -0.78429,-0.007 z" />
    <path
       id="path142"
       style="fill:#000000;stroke:#000000;stroke-width:1;stroke-linecap:round"
       d="m 224.28763,146.40029 c 1.15622,-0.66809 3.61828,-0.69731 3.58064,1.10311 -0.28674,1.33697 -1.6543,2.25006 -2.9324,2.49659 -1.38487,0.17663 0.70939,0.62629 0.0115,1.05372 1.97856,0.36859 2.41849,2.5975 2.9461,4.20825 0.79118,1.24069 1.6788,-0.32548 0.78299,-1.06504 -0.58878,-1.5231 -1.10005,-3.42358 -2.84747,-3.97845 -0.95931,-1.08989 -2.66092,0.72746 -1.01384,0.94911 1.33398,-0.43435 2.51017,-1.38151 3.42276,-2.43399 1.28542,-1.25471 0.36658,-3.42314 -1.42508,-3.37085 -0.86322,0.0547 -2.80049,-0.10742 -2.91976,0.75518 0.13212,0.0932 0.27327,0.17445 0.39454,0.28237 z" />
    <path
       id="path144"
       style="fill:#000000;stroke:#000000;stroke-width:1;stroke-linecap:round"
       d="m 233.32436,156.46311 c 1.89829,-2.7867 3.02472,-5.98807 4.38795,-9.04788 1.40753,-1.03267 -1.4023,-1.87117 -0.58823,-0.30465 1.16431,2.90053 1.82075,6.01557 3.34144,8.76466 1.66215,0.87137 1.73275,-1.52963 0.63614,-2.18347 -1.27772,-2.39556 -2.16201,-4.99053 -2.70896,-7.64677 -1.90133,-1.15584 -2.14582,1.66496 -2.33954,2.87511 -0.80125,2.5969 -2.19209,4.98562 -3.90301,7.0867 0.35067,0.24847 0.79101,0.28178 1.17421,0.4563 z" />
    <path
       id="path146"
       style="fill:#000000;stroke:#000000;stroke-width:1;stroke-linecap:round"
       d="m 234.99536,153.27126 c 1.45648,0.22533 2.93511,0.0981 4.39421,-0.0302 0.53409,-1.57237 -1.84734,-1.66009 -2.83199,-1.2514 -0.65304,0.22854 -1.14237,0.75387 -1.56222,1.2816 z" />
    <path
       id="path148"
       style="fill:#000000;stroke:#000000;stroke-width:1;stroke-linecap:round"
       d="m 246.44596,145.94709 c 0.92071,1.65831 1.94458,4.58014 4.42102,3.57309 1.31132,-0.64075 2.99076,-2.01047 3.45464,-3.07802 -1.49522,-1.44537 -3.03945,0.68097 -3.85056,1.81683 -1.95711,2.39295 -3.59129,5.02836 -5.11951,7.70958 0.29427,1.85826 2.68724,0.39831 2.49118,-0.97427 1.2372,-2.75158 2.96893,-5.29256 5.15196,-7.38105 2.05058,-0.89269 -0.76922,-2.08961 -1.31045,-0.44852 -1.00213,1.42823 -2.57802,1.69379 -3.15552,-0.18645 -0.25074,-1.02529 -1.0804,-1.66253 -2.08276,-1.03119 z" />
    <path
       id="path150"
       style="fill:#000000;stroke:#000000;stroke-width:1;stroke-linecap:round"
       d="m 256.58151,240.66589 c -0.41525,3.06393 -1.20563,6.05828 -1.79918,9.08898 -0.84444,0.83971 0.75172,2.61565 1.0268,0.90826 0.33482,-1.69815 0.41073,-3.43679 0.68929,-5.1464 0.19715,-1.52276 0.42718,-3.04915 0.87349,-4.52187 -0.0279,-0.37938 -0.52599,-0.3232 -0.7904,-0.32897 z" />
    <path
       id="path152"
       style="fill:#000000;stroke:#000000;stroke-width:1;stroke-linecap:round"
       d="m 254.73967,240.47153 c 1.45215,-1.19121 5.48577,-1.96119 5.57038,0.63213 -0.67977,1.12269 -3.64302,2.49297 -1.12519,3.48423 2.40844,0.50525 1.66601,3.2782 0.33346,4.5364 -0.65185,0.89489 -2.73755,1.91322 -2.31056,2.74871 2.92633,-1.9e-4 5.18589,-2.9365 5.07122,-5.72482 0.44499,-1.7183 -2.25196,-2.00641 -2.23317,-2.912 1.5636,-1.01718 2.42431,-3.92779 -0.10326,-4.30635 -1.93375,-0.43559 -4.12685,-0.1061 -5.76794,1.0058 -0.17485,0.3276 0.37415,0.45443 0.56506,0.5359 z" />
    <path
       id="path154"
       style="fill:#000000;stroke:#000000;stroke-width:1;stroke-linecap:round"
       d="m 266.3018,239.85367 c 0.19699,3.47544 0.0118,6.96741 -0.47038,10.41313 -1.04955,0.9449 0.94187,2.79524 1.12109,0.91047 0.31533,-3.1088 0.69336,-6.23024 0.4524,-9.36228 -0.20225,-0.79595 0.34768,-2.47555 -1.10311,-1.96132 z" />
    <path
       id="path156"
       style="fill:#000000;stroke:#000000;stroke-width:1;stroke-linecap:round"
       d="m 266.21015,240.5109 c 1.7034,-1.61786 4.84095,0.77414 3.66008,2.84814 -0.51216,1.29185 -4.51657,2.04097 -2.12252,3.4444 1.76348,0.81747 2.44742,2.63331 3.31568,4.21792 1.0353,1.97085 2.82265,-0.31906 1.14783,-1.36563 -1.11453,-1.40731 -2.00891,-3.02262 -3.48147,-4.11449 -0.81861,0.90063 0.55907,0.6038 0.78078,-0.15671 1.70168,-1.18805 2.57667,-3.87591 0.59583,-5.26774 -1.03243,-1.02477 -4.21392,-1.49941 -4.48228,0.13635 l 0.22332,0.14601 z" />
    <path
       id="path158"
       style="fill:#000000;stroke:#000000;stroke-width:1;stroke-linecap:round"
       d="m 278.46054,240.4086 c -3.10813,1.62006 -4.76191,5.72609 -3.39823,8.99863 1.15259,2.22968 4.36296,3.23049 6.47568,1.77123 1.30234,-1.05505 1.94658,-2.71237 2.30069,-4.30759 0.34158,-1.69806 0.25305,-3.48039 -0.14614,-5.15121 -0.48819,-0.85745 -1.63766,-1.35607 -2.59283,-1.08272 -0.87961,0.40056 -0.16429,1.14396 0.4397,1.35763 1.18577,1.08614 1.11338,2.86233 0.92917,4.32523 -0.24737,1.73487 -1.13509,3.58331 -2.81613,4.31656 -1.50555,0.4497 -3.05599,-0.71261 -3.63657,-2.05788 -0.58016,-1.24492 -0.29268,-2.67242 0.10831,-3.92524 0.54891,-1.51163 1.61313,-2.82428 2.95981,-3.69926 -0.0706,-0.2995 -0.39779,-0.3942 -0.62346,-0.54538 z" />
    <path
       id="path160"
       style="fill:#000000;stroke:#000000;stroke-width:1;stroke-linecap:round"
       d="m 286.6005,239.65732 c 1.69591,4.00493 2.68157,8.29642 3.02432,12.62785 2.09883,1.35081 2.67877,-2.0507 2.58321,-3.51315 0.36249,-2.52092 0.87998,-5.0758 2.11093,-7.33279 -2.56892,-1.08368 -0.837,2.22379 -0.42954,3.34257 1.15679,1.81337 0.24275,6.69448 3.31649,6.12567 1.7574,-0.82664 1.11951,-3.05934 1.82456,-4.55684 0.50675,-1.81103 1.19409,-3.57303 2.06926,-5.23819 -0.32938,-2.38331 -2.93362,0.25888 -2.71299,1.65537 -0.43419,2.11766 -2.2,4.86703 -1.92087,6.59012 1.74428,0.47849 -0.81307,-1.5904 -0.57217,-2.65145 -1.30615,-1.77143 0.017,-5.59586 -2.50417,-6.04147 -2.15211,0.4614 -1.00327,3.36722 -1.87305,4.93839 -0.44678,2.00893 -0.97959,4.00121 -1.66379,5.94315 2.56485,0.40714 -0.33205,-2.71202 -0.0196,-3.98113 -0.55865,-2.61464 -1.00535,-5.32325 -1.97948,-7.78677 -0.31371,-0.37482 -0.86315,-0.31089 -1.25307,-0.12133 z" />
    <path
       id="path162"
       style="fill:#000000;stroke:#000000;stroke-width:1;stroke-linecap:round"
       d="m 303.22961,252.62779 c 1.24349,-3.42753 1.80883,-7.08249 3.34329,-10.40729 -2.8154,-0.37871 -0.37686,2.4511 -0.23337,3.83172 0.80004,2.23822 1.57669,4.50664 2.27928,6.76224 1.21868,1.69638 3.38183,0.0699 3.05035,-1.69601 0.16169,-3.05826 0.79052,-6.06298 1.38841,-9.05949 -0.61726,-2.51616 -2.9059,0.39501 -2.25304,1.85273 -0.23706,2.55186 -0.37872,5.22497 -1.44179,7.57847 0.66522,0.8632 1.94084,0.35282 0.64537,-0.40779 -1.21405,-1.97676 -2.0757,-4.19487 -2.6399,-6.42788 0.28558,-1.46305 -1.26863,-4.90743 -2.62543,-2.65305 -0.2715,2.37298 -0.62157,4.74606 -1.57289,6.95958 -0.12089,1.43782 -2.82553,3.883 0.0597,3.66677 z" />
    <path
       id="path164"
       style="fill:#000000;stroke:#000000;stroke-width:1;stroke-linecap:round"
       d="m 127.38856,273.78737 c -1.92171,1.2407 -3.17996,3.92614 -2.08372,6.0942 1.14209,2.13783 3.75243,2.98853 6.05199,2.77802 2.81947,-0.24096 5.76751,-1.7338 6.91966,-4.44405 0.96758,-2.06079 -0.0653,-4.63489 -2.01104,-5.70131 -1.46602,-0.82863 -3.3285,-0.81946 -4.80872,-0.0342 -0.99349,0.44166 -1.65626,1.47965 -1.93817,2.48788 0.0564,1.37187 1.17029,-0.37909 1.66902,-0.64466 1.12221,-0.97667 2.82716,-1.7835 4.25191,-0.95491 1.98097,1.09179 2.31305,4.08425 0.75221,5.67162 -1.77629,2.09255 -4.78043,3.37375 -7.48183,2.49684 -1.54825,-0.49188 -2.95331,-1.87962 -2.86005,-3.60397 0.002,-1.29162 0.71549,-2.57235 1.87571,-3.16914 0.52752,-0.33006 0.21382,-0.97262 -0.33697,-0.97635 z" />
    <path
       id="path166"
       style="fill:#000000;stroke:#000000;stroke-width:1;stroke-linecap:round"
       d="m 129.90532,278.43157 c 0.40197,2.71355 -1.41283,5.0341 -2.86323,7.12707 -0.41015,0.60482 -1.35923,2.39256 -1.05507,2.42137 1.1794,-1.05168 2.37002,-2.11358 3.11866,-3.53165 1.14064,-1.75793 2.32585,-3.75919 2.10751,-5.9334 -0.31504,-0.40869 -0.89453,0.0122 -1.30787,-0.0834 z" />
    <path
       id="path168"
       style="fill:#000000;stroke:#000000;stroke-width:1;stroke-linecap:round"
       d="m 142.092,273.6907 c 0.0691,3.10944 0.6314,6.62899 3.12237,8.75437 1.85462,1.1228 3.84671,-0.59218 4.10435,-2.46909 0.70409,-1.88572 1.14403,-3.854 1.62089,-5.80546 -0.13344,-1.74584 -1.67879,-0.98031 -1.73944,0.30857 -0.31126,2.14758 -0.67544,4.44673 -2.09175,6.17922 -0.12814,0.31953 -1.15952,0.61043 -0.38492,0.77573 -1.99502,-0.17641 -2.85477,-2.38754 -3.33122,-4.05912 -0.68049,-1.13085 0.24033,-2.75609 -0.40752,-3.6049 -0.29541,-0.0535 -0.60028,-0.003 -0.89276,-0.0793 z" />
    <path
       id="path170"
       style="fill:#000000;stroke:#000000;stroke-width:1;stroke-linecap:round"
       d="m 154.25018,272.17694 c 0.68253,3.24723 0.75886,6.59073 1.33776,9.84823 0.19096,1.2496 1.70349,0.74102 1.30643,-0.39746 -0.5205,-3.08636 -1.10105,-6.17661 -1.38392,-9.30071 -0.25678,-0.50135 -0.86121,-0.0408 -1.26027,-0.15006 z" />
    <path
       id="path172"
       style="fill:#000000;stroke:#000000;stroke-width:1;stroke-linecap:round"
       d="m 152.95937,269.16021 c 0.82217,-0.95366 3.39963,-1.65325 2.34229,-3.26051 -1.36271,0.0401 -3.23907,1.08015 -3.56919,2.33508 0.25439,0.48327 0.90032,0.51372 1.2269,0.92543 z" />
    <path
       id="path174"
       style="fill:#000000;stroke:#000000;stroke-width:1;stroke-linecap:round"
       d="m 165.41747,271.69107 c -3.21438,1.75893 -4.98546,6.10946 -3.17867,9.45934 0.81679,1.64447 2.7295,3.13183 4.62872,2.57056 -0.9126,-1.03095 -2.75587,-1.47761 -3.44926,-2.92509 -1.6818,-2.67759 -0.61848,-6.56137 2.12927,-8.07523 0.78362,-0.49375 0.43661,-0.63903 -0.13006,-1.02958 z" />
    <path
       id="path176"
       style="fill:#000000;stroke:#000000;stroke-width:1;stroke-linecap:round"
       d="m 171.2001,270.49761 c 0.86491,4.21518 1.26169,8.51921 1.92918,12.75652 1.62106,1.72487 1.41058,-1.9062 0.9822,-2.86856 -0.61956,-3.22038 -1.46625,-6.42101 -1.67387,-9.70076 -0.22931,-0.50047 -0.83993,-0.17083 -1.23751,-0.1872 z" />
    <path
       id="path178"
       style="fill:#000000;stroke:#000000;stroke-width:1;stroke-linecap:round"
       d="m 180.20215,270.00279 c -2.13367,2.32888 -4.52835,4.46613 -7.30712,5.99672 -0.13306,1.95785 2.67571,2.03302 3.39586,3.65483 1.20753,0.95475 2.71168,4.01332 4.34464,2.87461 -0.43556,-1.7739 -2.3257,-2.67266 -3.36649,-4.07845 -0.51305,-0.62707 -2.25846,-2.4505 -2.36096,-1.95968 1.86227,-2.19945 4.13369,-3.99011 6.19704,-5.98842 -0.18088,-0.35041 -0.62603,-0.28378 -0.90297,-0.49961 z" />
    <path
       id="path417"
       style="fill:#000000;stroke:#000000;stroke-width:1;stroke-linecap:round"
       d="m 95.748445,272.88581 c 1.756235,-0.80087 3.579226,-1.44757 5.361335,-2.1852 0.73548,-0.41148 2.8536,-0.52509 2.6739,-1.32949 -1.50395,-0.12095 -2.77205,0.80886 -4.147802,1.25089 -1.475781,0.58419 -2.947652,1.18425 -4.46284,1.66073 -0.202194,0.34236 0.468042,0.36934 0.575407,0.60307 z" />
    <path
       id="path419"
       style="fill:#000000;stroke:#000000;stroke-width:1;stroke-linecap:round"
       d="m 91.092148,258.64875 c 1.58966,-0.98084 3.409416,-1.47908 5.109346,-2.21243 0.652383,-0.31018 0.880982,-0.69876 0.71828,-0.68053 -1.688702,-0.0597 -3.154237,0.93438 -4.714342,1.42735 -0.712635,0.32526 -2.840244,0.71809 -1.205568,1.37064 l 0.09228,0.095 z" />
    <path
       id="path421"
       style="fill:#000000;stroke:#000000;stroke-width:1;stroke-linecap:round"
       d="m 21.96484,272.39158 c 3.014679,1.58751 5.250175,4.25096 7.743991,6.48076 1.089281,0.57703 1.018842,-0.66152 0.170647,-0.91412 -2.350022,-1.90135 -4.671314,-3.86812 -6.991021,-5.78631 -0.312052,-0.16111 -0.721848,-0.0751 -0.923617,0.21967 z" />
    <path
       id="path423"
       style="fill:#000000;stroke:#000000;stroke-width:1;stroke-linecap:round"
       d="m 41.13776,258.20458 c 1.753537,1.02694 2.996134,2.67451 4.46618,4.03758 0.729296,0.54539 0.913827,-0.39026 0.270445,-0.68371 -1.334399,-1.26311 -2.785268,-2.40304 -4.054265,-3.73504 -0.227451,0.12706 -0.454925,0.25408 -0.68236,0.38117 z" />
    <path
       id="path425"
       style="fill:#000000;stroke:#000000;stroke-width:1;stroke-linecap:round"
       d="m 269.80316,224.06597 c -0.13037,2.66915 -0.55532,5.31191 -1.00082,7.94331 0.53623,1.21352 1.92718,-0.0889 1.42826,-1.0309 0.13336,-2.23731 0.30074,-4.47809 0.69155,-6.68745 -0.25325,-0.38678 -0.76672,-0.0794 -1.11899,-0.22496 z" />
    <path
       id="path427"
       style="fill:#000000;stroke:#000000;stroke-width:1;stroke-linecap:round"
       d="m 233.85015,222.46213 c -0.0991,1.76591 -0.26606,3.52977 -0.26312,5.29993 0.27658,0.22663 0.34389,1.53724 0.59477,0.62881 0.54094,-0.88253 0.26267,-1.95478 0.34346,-2.92892 0.0105,-0.98567 0.0366,-1.97416 0.17258,-2.95178 -0.28255,-0.0161 -0.56524,-0.0313 -0.84769,-0.048 z" />
    <path
       id="path429"
       style="fill:#000000;stroke:#000000;stroke-width:1;stroke-linecap:round"
       d="m 191.10143,220.3411 c 0.14796,2.54729 -0.30148,5.082 -0.75942,7.57153 -0.2712,0.93141 0.91148,1.17785 0.92377,0.1496 0.1889,-1.13757 0.16059,-2.30148 0.29457,-3.44863 0.11107,-1.34613 0.0868,-2.71655 0.32182,-4.04024 -0.0706,-0.35326 -0.52538,-0.26152 -0.78074,-0.23226 z" />
    <path
       id="path431"
       style="fill:#000000;stroke:#000000;stroke-width:1;stroke-linecap:round"
       d="m 75.010247,160.82213 c 2.248274,0.10467 4.423227,1.01032 6.68957,0.78211 0.602864,0.29419 2.415069,0.0179 1.289192,-0.75204 -1.064381,-0.27337 -2.187825,0.13026 -3.28884,-0.0779 -1.346287,-0.0912 -2.682641,-0.31456 -3.989391,-0.6497 -0.233493,0.23253 -0.467163,0.46488 -0.700531,0.69754 z" />
    <path
       id="path433"
       style="fill:#000000;stroke:#000000;stroke-width:1;stroke-linecap:round"
       d="m 74.609255,173.92288 c 1.961659,-0.63525 4.039533,-0.74311 6.085356,-0.80897 0.661273,0.39308 1.41502,-0.676 0.360528,-0.72006 -1.197484,-0.19528 -2.389356,0.19909 -3.577035,0.32321 -1.163718,0.19211 -2.327742,0.39462 -3.504191,0.49205 0.0015,0.3713 0.486621,0.42838 0.635342,0.71377 z" />
    <path
       id="path435"
       style="fill:#000000;stroke:#000000;stroke-width:1;stroke-linecap:round"
       d="m 179.79493,160.01438 c 1.10414,1.56027 1.9231,3.29889 2.8531,4.9617 0.25359,0.61644 0.86068,1.97051 1.52711,1.61576 0.30392,-1.11783 -0.76336,-1.90169 -1.17454,-2.82944 -0.76186,-1.2527 -1.51889,-2.52729 -1.9813,-3.92648 -0.39626,-0.31584 -0.81306,0.19414 -1.22437,0.17846 z" />
    <path
       id="path437"
       style="fill:#000000;stroke:#000000;stroke-width:1;stroke-linecap:round"
       d="m 49.691943,250.3235 c 1.352641,0.99104 2.297682,2.40027 3.410203,3.63065 -0.07749,1.02739 1.904208,1.46965 1.647243,0.2782 -0.494413,-0.67256 -1.231263,-1.12684 -1.774198,-1.76518 -0.810714,-0.83935 -1.524511,-1.77521 -2.4183,-2.532 -0.332267,0.0135 -0.55818,0.30112 -0.864948,0.38833 z" />
    <path
       id="path439"
       style="fill:#000000;stroke:#000000;stroke-width:1;stroke-linecap:round"
       d="m 149.92411,179.52405 c 1.04897,1.522 1.71112,3.25891 2.53035,4.90534 -0.083,0.68431 1.29228,2.01203 1.32735,0.76502 -0.37449,-1.00335 -1.11251,-1.82195 -1.48505,-2.83118 -0.46797,-0.9825 -0.95609,-1.95617 -1.37895,-2.9594 -0.30213,-0.32487 -0.66679,0.10094 -0.9937,0.12022 z" />
    <path
       id="path441"
       style="fill:#000000;stroke:#000000;stroke-width:1;stroke-linecap:round"
       d="m 140.23549,186.09993 c 0.95781,1.44867 1.52137,3.10817 2.3847,4.609 -0.20371,1.00881 1.86569,1.35563 1.12668,0.12343 -0.53796,-0.8372 -1.08836,-1.66734 -1.47054,-2.59248 -0.3632,-0.79987 -0.67392,-1.62196 -0.99293,-2.44004 -0.3493,0.10003 -0.6986,0.20007 -1.04791,0.30009 z" />
    <circle
       id="path524"
       style="fill:#003380;stroke:#003380;stroke-width:0.264583"
       cx="58.915802"
       cy="253.22929"
       r="0.79374999" />
    <circle
       id="path534"
       style="fill:#003380;stroke:#003380;stroke-width:0.264583;fill-opacity:1;stroke-opacity:1"
       cx="67.990997"
       cy="251.34756"
       r="0.79374999" />
    <circle
       id="path538"
       style="fill:#003380;stroke:#003380;stroke-width:0.264583;fill-opacity:1;stroke-opacity:1"
       cx="77.598701"
       cy="249.19357"
       r="0.79374999" />
    <circle
       id="path540"
       style="fill:#003380;stroke:#003380;stroke-width:0.264583;fill-opacity:1;stroke-opacity:1"
       cx="86.045906"
       cy="247.99934"
       r="0.79374999" />
    <circle
       id="path542"
       style="fill:#003380;stroke:#003380;stroke-width:0.264583;fill-opacity:1;stroke-opacity:1"
       cx="95.608345"
       cy="246.92323"
       r="0.79374999" />
    <circle
       id="path546"
       style="fill:#003380;stroke:#003380;stroke-width:0.264583;fill-opacity:1;stroke-opacity:1"
       cx="99.043282"
       cy="252.55096"
       r="0.79374999" />
    <circle
       id="path548"
       style="fill:#003380;stroke:#003380;stroke-width:0.264583;fill-opacity:1;stroke-opacity:1"
       cx="229.61803"
       cy="232.41795"
       r="0.79374999" />
    <circle
       id="path550"
       style="fill:#003380;stroke:#003380;stroke-width:0.264583;fill-opacity:1;stroke-opacity:1"
       cx="219.3172"
       cy="234.82057"
       r="0.79374999" />
    <circle
       id="path552"
       style="fill:#003380;stroke:#003380;stroke-width:0.264583;fill-opacity:1;stroke-opacity:1"
       cx="207.20909"
       cy="236.8862"
       r="0.79374999" />
    <circle
       id="path554"
       style="fill:#003380;stroke:#003380;stroke-width:0.264583;fill-opacity:1;stroke-opacity:1"
       cx="196.03868"
       cy="238.31657"
       r="0.79374999" />
    <circle
       id="path556"
       style="fill:#003380;stroke:#003380;stroke-width:0.264583;fill-opacity:1;stroke-opacity:1"
       cx="182.60802"
       cy="239.83687"
       r="0.79374999" />
    <circle
       id="path558"
       style="fill:#003380;stroke:#003380;stroke-width:0.264583;fill-opacity:1;stroke-opacity:1"
       cx="166.97488"
       cy="241.99756"
       r="0.79374999" />
    <circle
       id="path560"
       style="fill:#003380;stroke:#003380;stroke-width:0.264583;fill-opacity:1;stroke-opacity:1"
       cx="154.81804"
       cy="242.92935"
       r="0.79374999" />
    <circle
       id="path562"
       style="fill:#003380;stroke:#003380;stroke-width:0.264583;fill-opacity:1;stroke-opacity:1"
       cx="142.59932"
       cy="243.83945"
       r="0.79374999" />
    <circle
       id="path564"
       style="fill:#003380;stroke:#003380;stroke-width:0.264583;fill-opacity:1;stroke-opacity:1"
       cx="129.52425"
       cy="244.37845"
       r="0.79374999" />
    <circle
       id="path566"
       style="fill:#003380;stroke:#003380;stroke-width:0.264583;fill-opacity:1;stroke-opacity:1"
       cx="116.28263"
       cy="245.26064"
       r="0.79374999" />
    <circle
       id="path568"
       style="fill:#003380;stroke:#003380;stroke-width:0.264583;fill-opacity:1;stroke-opacity:1"
       cx="107.04513"
       cy="245.83492"
       r="0.79374999" />
    <path
       id="path570"
       style="fill:#003380;fill-opacity:1;stroke:#003380;stroke-width:1;stroke-linecap:round;stroke-opacity:1"
       d="m 99.271422,244.1406 c -0.778484,1.16237 -1.948114,2.69458 -1.17199,4.12723 0.863914,1.06532 2.510508,1.27903 3.775748,0.94531 1.63879,-0.64525 2.62187,-2.44451 2.74154,-4.13769 0.16866,-1.57408 -1.65785,-3.00727 -3.0197,-1.90443 -0.69763,0.64466 -2.44914,1.91819 -1.30011,2.86147 1.11179,0.40006 1.42581,-1.12667 2.06789,-1.69246 0.98849,-0.45634 0.8023,1.68875 0.39614,2.26153 -0.45761,1.16104 -2.04491,2.16933 -3.165611,1.27203 -1.006055,-1.07478 0.486121,-2.11969 0.805601,-3.09636 -0.10432,-0.5062 -0.825224,-0.33273 -1.129508,-0.63663 z" />
    <path
       id="path593"
       style="fill:#003380;fill-opacity:1;stroke:#003380;stroke-width:1;stroke-linecap:round;stroke-opacity:1"
       d="m 111.31895,249.92656 c -1.28792,1.09354 -2.66887,2.51228 -2.59145,4.33124 0.12564,1.3865 1.72664,2.07438 2.95722,1.72993 1.14469,-0.23776 1.9361,-1.19629 2.38982,-2.21763 0.4403,-0.89994 0.74084,-2.13348 0.0481,-2.98061 -0.37952,-0.76735 -1.96551,-0.23813 -0.99672,0.39708 0.7595,0.41203 0.6838,1.37582 0.46231,2.08191 -0.3671,1.1072 -1.35922,2.09793 -2.55106,2.21143 -1.20079,-0.0488 -1.93693,-1.53338 -1.37629,-2.56023 0.23007,-0.88675 0.99261,-1.42323 1.67741,-1.94727 0.3261,-0.26573 0.53861,-0.89977 -0.0193,-1.04585 z" />
    <path
       id="path595"
       style="fill:#003380;fill-opacity:1;stroke:#003380;stroke-width:1;stroke-linecap:round;stroke-opacity:1"
       d="m 110.84302,253.90223 c 0.18951,1.42335 -1.82277,2.16135 -1.59625,3.48367 1.07949,-0.64357 2.19916,-1.71391 2.19165,-3.0581 -0.0256,-0.41889 -0.23098,-0.54163 -0.5954,-0.42557 z" />
    <path
       id="path597"
       style="fill:#003380;fill-opacity:1;stroke:#003380;stroke-width:1;stroke-linecap:round;stroke-opacity:1"
       d="m 116.60606,250.26595 c -0.29517,1.21717 -0.61096,2.53815 -0.1526,3.7568 0.22048,0.4681 0.36425,1.02053 0.83373,1.31037 0.48233,0.36414 1.23341,0.29553 1.58932,-0.21541 0.87431,-1.13041 1.17674,-2.56162 1.5217,-3.916 0.0149,-0.48948 -0.62495,-0.48528 -0.8365,-0.14223 -0.33573,0.41116 -0.0487,0.96185 -0.27085,1.43009 -0.19132,0.87908 -0.57778,1.80136 -1.36596,2.29989 -0.12934,-0.0159 -0.58193,-0.38823 -0.67197,-0.67827 -0.40542,-0.92599 -0.43842,-1.98002 -0.16886,-2.9486 0.0855,-0.33188 0.43373,-0.95523 -0.20014,-0.84774 -0.0938,0.002 -0.19431,0.001 -0.27787,-0.0489 z" />
    <path
       id="path599"
       style="fill:#003380;fill-opacity:1;stroke:#003380;stroke-width:1;stroke-linecap:round;stroke-opacity:1"
       d="m 123.98678,250.57354 c -0.0297,1.29183 -0.21526,2.57302 -0.29315,3.86178 -0.24617,0.38601 1.9e-4,1.00594 0.45311,1.09216 0.38641,-0.0488 0.41607,-0.52425 0.42413,-0.82943 0.0268,-0.68494 -0.009,-1.37132 0.0417,-2.05541 0.0118,-0.67445 0.0404,-1.3545 0.19601,-2.01351 -0.27391,-0.0185 -0.54797,-0.0372 -0.82179,-0.0556 z" />
    <path
       id="path601"
       style="fill:#003380;fill-opacity:1;stroke:#003380;stroke-width:1;stroke-linecap:round;stroke-opacity:1"
       d="m 124.40007,248.56773 c 0.50809,0.0648 1.50813,-0.75872 0.62706,-0.9881 -0.41833,-0.10537 -1.37535,-0.25615 -1.48147,0.226 0.28199,0.25715 0.58216,0.49168 0.85441,0.7621 z" />
    <path
       id="path603"
       style="fill:#003380;fill-opacity:1;stroke:#003380;stroke-width:1;stroke-linecap:round;stroke-opacity:1"
       d="m 130.43569,250.3487 c -1.3579,0.61397 -2.35457,2.10143 -2.185,3.61405 0.0534,0.54463 0.29493,1.09897 0.78146,1.39011 0.79537,0.53347 1.8261,0.42017 2.68481,0.11616 0.50474,-0.17934 0.98832,-0.41936 1.45395,-0.68005 0.35779,-0.26428 0.57591,-0.76258 0.43203,-1.19687 -0.21765,-0.37074 -0.72995,-0.15274 -0.98384,0.0681 -0.66956,0.49661 -1.3612,1.08672 -2.22805,1.15508 -0.56143,0.0127 -1.09965,-0.44897 -1.11714,-1.02176 -0.15293,-1.1116 0.56806,-2.25488 1.617,-2.63381 0.36413,-0.28165 -0.13726,-0.66332 -0.40687,-0.78345 l -0.0483,-0.0276 z" />
    <path
       id="path605"
       style="fill:#003380;fill-opacity:1;stroke:#003380;stroke-width:1;stroke-linecap:round;stroke-opacity:1"
       d="m 136.43393,249.1842 c 0.34075,2.03704 0.1637,4.13043 -0.2948,6.13444 0.0127,0.41218 0.53707,0.65004 0.84116,0.35106 0.43851,-0.27857 0.28808,-0.82032 0.41299,-1.24143 0.25036,-1.43521 0.23266,-2.90445 0.0826,-4.34952 0.17945,-0.43877 -0.16931,-0.98664 -0.65648,-0.96198 -0.13134,-0.004 -0.26295,0.0206 -0.38546,0.0674 z" />
    <path
       id="path607"
       style="fill:#003380;fill-opacity:1;stroke:#003380;stroke-width:1;stroke-linecap:round;stroke-opacity:1"
       d="m 139.5657,249.48771 c -0.62874,0.89042 -3.0476,1.26169 -1.91156,2.72104 0.76017,0.72061 0.94979,1.98649 1.84793,2.47918 1.49288,0.0653 0.13054,-1.4783 -0.23499,-2.05874 -0.73549,-0.68112 -0.78009,-1.69983 0.29691,-2.04752 0.62297,-0.34005 0.93882,-0.85681 0.002,-1.09396 z" />
    <path
       id="path609"
       style="fill:#003380;fill-opacity:1;stroke:#003380;stroke-width:1;stroke-linecap:round;stroke-opacity:1"
       d="m 148.79215,249.57352 c 0.0174,1.31077 -0.1951,2.61811 -0.17289,3.92505 0.009,0.61085 0.46872,0.93388 0.5631,0.13994 0.40187,-1.16491 0.20133,-2.42919 0.4932,-3.61722 0.0476,-0.50614 -0.5506,-0.4535 -0.88341,-0.44777 z" />
    <path
       id="path611"
       style="fill:#003380;fill-opacity:1;stroke:#003380;stroke-width:1;stroke-linecap:round;stroke-opacity:1"
       d="m 149.47209,248.88897 c 0.53596,-0.91426 2.13198,-0.4965 1.73986,0.65785 -0.2245,0.67991 -1.77101,1.77118 -0.32833,2.04367 1.61888,0.001 0.85402,1.8707 -0.16186,2.2509 -0.50472,0.25001 -2.18525,1.07012 -0.94672,1.45584 1.02151,0.13682 1.82149,-0.68696 2.48422,-1.35045 0.64988,-0.70244 1.04379,-2.01868 0.13971,-2.6872 -0.18973,-0.4643 -1.24794,-0.38457 -1.04266,-0.26502 0.67583,-0.73807 1.20386,-2.16687 0.23509,-2.88751 -0.70581,-0.57557 -2.50402,-0.25226 -2.52593,0.61711 0.12414,0.0806 0.26614,0.12389 0.40662,0.16481 z" />
    <path
       id="path613"
       style="fill:#003380;fill-opacity:1;stroke:#003380;stroke-width:1;stroke-linecap:round;stroke-opacity:1"
       d="m 155.00197,248.79261 c 0.2749,1.67173 -0.0107,3.36851 0.048,5.04413 0.14365,0.90415 1.04871,0.50301 0.91297,-0.26329 0.19965,-1.41779 0.0548,-2.85102 0.086,-4.2724 -0.0167,-0.73006 -0.54875,-0.52323 -1.04703,-0.50844 z" />
    <path
       id="path615"
       style="fill:#003380;fill-opacity:1;stroke:#003380;stroke-width:1;stroke-linecap:round;stroke-opacity:1"
       d="m 155.99933,248.46148 c 1.20231,-1.27285 2.6102,1.38635 1.08041,1.95559 -1.47757,0.94308 -0.18842,2.15285 0.545,3.045 0.53995,1.29089 2.13351,0.16679 0.97008,-0.70278 -0.9908,-0.66324 -1.05595,-1.73308 -0.15684,-2.49833 0.86996,-1.39964 -0.4674,-3.38849 -2.08745,-2.76598 -0.56485,0.0751 -1.36814,0.70315 -0.3512,0.9665 z" />
    <path
       id="path617"
       style="fill:#003380;fill-opacity:1;stroke:#003380;stroke-width:1;stroke-linecap:round;stroke-opacity:1"
       d="m 163.25875,247.71726 c -2.30492,0.63357 -3.73941,3.84331 -2.00375,5.74184 1.1864,1.34511 3.6966,1.29385 4.57455,-0.37647 1.08414,-1.20787 0.84781,-4.66776 -1.27876,-3.99946 0.40865,0.94276 1.46898,2.34657 0.36832,3.52636 -1.1027,2.08057 -3.99324,0.43805 -3.56342,-1.58187 -0.10766,-1.54567 1.87161,-2.13217 2.30283,-2.96224 -0.13845,-0.10903 -0.30763,-0.18923 -0.39977,-0.34816 z" />
    <path
       id="path619"
       style="fill:#003380;fill-opacity:1;stroke:#003380;stroke-width:1;stroke-linecap:round;stroke-opacity:1"
       d="m 168.55258,248.12147 c 0.6483,1.70437 -0.0887,4.40304 1.42295,5.45365 1.52552,-0.42268 1.13656,-2.48235 2.00639,-3.53943 0.69022,-0.71909 -0.50374,-1.13598 -0.0111,-0.22981 0.38854,1.06648 0.86639,3.71641 2.47316,2.65516 0.43035,-1.33385 1.1083,-2.61598 1.39771,-3.97601 -0.92899,-1.65887 -1.95663,1.46657 -2.22056,2.33133 -0.4993,0.88024 0.66586,1.45489 -0.0858,0.34808 -0.52113,-0.91629 -0.56125,-3.28301 -2.24696,-2.27017 -0.23115,1.35116 -1.28798,2.54656 -1.36903,3.91914 0.83786,-0.59871 -0.67653,-1.99897 -0.36048,-2.99142 -0.0212,-0.66378 0.17313,-2.21565 -1.00622,-1.70052 z" />
    <path
       id="path621"
       style="fill:#003380;fill-opacity:1;stroke:#003380;stroke-width:1;stroke-linecap:round;stroke-opacity:1"
       d="m 177.99026,253.40505 c 0.69316,-1.72002 1.19159,-3.52077 2.01197,-5.18744 0.76356,-0.6191 -1.19904,-0.49943 -0.62472,0.0606 0.60023,1.33982 1.08614,2.73066 1.58752,4.11063 0.11725,0.63788 0.49509,1.47926 1.29424,1.12404 0.62616,-0.15796 0.89483,-0.78475 1.01011,-1.35901 0.43509,-1.46269 0.73373,-2.99117 1.50454,-4.32718 0.21032,-0.72638 -0.89532,-1.2656 -1.34091,-0.65541 -0.40896,0.66136 -0.40984,1.47988 -0.65033,2.20647 -0.24744,0.99949 -0.64072,1.95305 -1.06168,2.88912 -0.24209,0.40707 0.91296,0.0601 0.7088,0.20831 -0.57947,-0.47435 -0.74374,-1.26179 -1.0433,-1.91731 -0.39943,-0.95253 -0.70695,-1.94086 -0.9077,-2.95369 -0.1441,-0.77495 -1.50248,-0.78232 -1.5791,0.0301 -0.25521,1.90277 -1.12672,3.64304 -1.89861,5.37792 0.0255,0.50393 0.72194,0.17319 0.98917,0.39293 z" />
    <path
       id="path623"
       style="fill:#003380;fill-opacity:1;stroke:#003380;stroke-width:1;stroke-linecap:round;stroke-opacity:1"
       d="m 193.60262,246.841 c -0.093,1.99665 -0.32587,3.99095 -0.77508,5.94025 0.17915,1.0535 1.72339,0.44312 1.41636,-0.50596 0.26923,-1.75556 0.16519,-3.57473 0.6987,-5.28433 -0.44665,-0.05 -0.89338,-0.0998 -1.33998,-0.14996 z" />
    <path
       id="path625"
       style="fill:#003380;fill-opacity:1;stroke:#003380;stroke-width:1;stroke-linecap:round;stroke-opacity:1"
       d="m 194.70976,247.31018 c 0.77697,-0.423 1.64872,-0.62372 2.44382,-1.00612 0.64797,0.12219 1.53771,-0.82525 0.55857,-1.10122 -0.9211,-0.25252 -1.72928,0.45768 -2.58693,0.67558 -0.45508,0.22601 -1.30188,0.38662 -1.50155,0.68584 0.32858,0.29519 0.73633,0.47963 1.08609,0.74592 z" />
    <path
       id="path627"
       style="fill:#003380;fill-opacity:1;stroke:#003380;stroke-width:1;stroke-linecap:round;stroke-opacity:1"
       d="m 193.88687,249.7564 c 1.28052,0.11211 2.53727,-0.2474 3.80859,-0.32221 0.87463,-0.38925 0.089,-1.04895 -0.56841,-0.92953 -0.89142,-0.11878 -1.78107,0.12733 -2.67368,0.0585 0.76007,0.0343 -0.25184,0.80602 -0.49684,1.0779 l -0.0697,0.11532 z" />
    <path
       id="path629"
       style="fill:#003380;fill-opacity:1;stroke:#003380;stroke-width:1;stroke-linecap:round;stroke-opacity:1"
       d="m 202.95614,245.68081 c -1.58641,1.25309 -2.75394,3.25423 -2.51814,5.32566 0.0717,0.54822 0.18884,1.20171 0.76827,1.42958 0.91378,0.46299 1.96469,0.0112 2.75394,-0.49738 1.36832,-0.922 2.45834,-2.53357 2.25865,-4.2416 -0.052,-0.53868 -0.2932,-1.11028 -0.83817,-1.3066 -0.49354,-0.21913 -1.22736,-0.1946 -1.53376,0.30723 -0.15247,0.51908 0.42809,0.74768 0.71838,1.03668 0.4705,0.76171 0.0851,1.73023 -0.46217,2.34273 -0.47333,0.52662 -0.99,1.02566 -1.56772,1.4366 -0.41207,0.25959 -0.94685,-0.0204 -1.06711,-0.46821 -0.33001,-0.77435 -0.24614,-1.68127 0.10911,-2.43029 0.11833,-0.4422 0.31778,-0.8606 0.67874,-1.15682 0.39904,-0.39602 0.90409,-0.72145 1.15672,-1.23859 0.0729,-0.28123 -0.22684,-0.47411 -0.45674,-0.53899 z" />
    <path
       id="path631"
       style="fill:#003380;fill-opacity:1;stroke:#003380;stroke-width:1;stroke-linecap:round;stroke-opacity:1"
       d="m 207.67064,245.64691 c 1.14442,1.85234 2.5007,3.56148 3.85001,5.26606 0.93108,0.85277 1.97135,-0.66792 0.83954,-1.28169 -1.15387,-1.35524 -2.49273,-2.60444 -3.25871,-4.23966 -0.49901,-0.21547 -0.94274,0.24327 -1.43084,0.25529 z" />
    <path
       id="path633"
       style="fill:#003380;fill-opacity:1;stroke:#003380;stroke-width:1;stroke-linecap:round;stroke-opacity:1"
       d="m 211.2894,244.67389 c -1.03858,1.53771 -2.35447,2.87768 -3.27947,4.4938 -1.16399,0.39148 -0.7005,3.14536 0.42984,1.5052 1.27835,-1.84714 2.24125,-3.98455 3.90415,-5.51194 -0.23744,-0.32167 -0.75586,-0.23774 -1.05452,-0.48706 z" />
    <circle
       id="path635"
       style="fill:#4400aa;stroke:#4400aa;stroke-width:0.264583;fill-opacity:1;stroke-opacity:1"
       cx="41.109142"
       cy="253.04219"
       r="0.79374999" />
    <circle
       id="path637"
       style="fill:#4400aa;stroke:#4400aa;stroke-width:0.264583"
       cx="41.295769"
       cy="244.4684"
       r="0.79374999" />
    <circle
       id="path639"
       style="fill:#4400aa;stroke:#4400aa;stroke-width:0.264583"
       cx="41.295769"
       cy="234.34753"
       r="0.79374999" />
    <circle
       id="path643"
       style="fill:#4400aa;stroke:#4400aa;stroke-width:0.264583"
       cx="41.673225"
       cy="223.78085"
       r="0.79374999" />
    <circle
       id="path645"
       style="fill:#4400aa;stroke:#4400aa;stroke-width:0.264583"
       cx="42.189274"
       cy="212.44965"
       r="0.79374999" />
    <circle
       id="path649"
       style="fill:#4400aa;stroke:#4400aa;stroke-width:0.264583;fill-opacity:1;stroke-opacity:1"
       cx="136.03943"
       cy="184.92572"
       r="0.79374999" />
    <circle
       id="path655"
       style="fill:#4400aa;stroke:#4400aa;stroke-width:0.264583;fill-opacity:1;stroke-opacity:1"
       cx="123.72343"
       cy="185.50357"
       r="0.79374999" />
    <circle
       id="path657"
       style="fill:#4400aa;stroke:#4400aa;stroke-width:0.264583;fill-opacity:1;stroke-opacity:1"
       cx="110.19617"
       cy="185.04156"
       r="0.79374999" />
    <circle
       id="path659"
       style="fill:#4400aa;stroke:#4400aa;stroke-width:0.264583;fill-opacity:1;stroke-opacity:1"
       cx="96.28891"
       cy="185.72374"
       r="0.79374999" />
    <circle
       id="path661"
       style="fill:#4400aa;stroke:#4400aa;stroke-width:0.264583;fill-opacity:1;stroke-opacity:1"
       cx="85.104614"
       cy="185.04692"
       r="0.79374999" />
    <circle
       id="path663"
       style="fill:#4400aa;stroke:#4400aa;stroke-width:0.264583;fill-opacity:1;stroke-opacity:1"
       cx="74.435287"
       cy="185.04692"
       r="0.79374999" />
    <circle
       id="path665"
       style="fill:#4400aa;stroke:#4400aa;stroke-width:0.264583;fill-opacity:1;stroke-opacity:1"
       cx="61.805645"
       cy="184.98207"
       r="0.79374999" />
    <circle
       id="path667"
       style="fill:#4400aa;stroke:#4400aa;stroke-width:0.264583;fill-opacity:1;stroke-opacity:1"
       cx="50.223518"
       cy="184.40486"
       r="0.79374999" />
    <circle
       id="path669"
       style="fill:#4400aa;stroke:#4400aa;stroke-width:0.264583"
       cx="41.197929"
       cy="201.9308"
       r="0.79374999" />
    <circle
       id="path671"
       style="fill:#4400aa;stroke:#4400aa;stroke-width:0.264583"
       cx="42.142868"
       cy="192.18411"
       r="0.79374999" />
    <path
       id="path673"
       style="fill:#4400aa;fill-opacity:1;stroke:#4400aa;stroke-width:1;stroke-linecap:round;stroke-opacity:1"
       d="m 40.525398,182.35081 c -1.493973,1.30982 -2.934475,3.3905 -2.145091,5.44812 1.090069,2.35424 4.646409,2.4548 6.240289,0.57737 1.405441,-1.57155 1.674207,-4.03726 0.821212,-5.92974 -0.665494,-1.2111 -2.280712,-0.91404 -3.222048,-0.23192 -1.330366,0.5039 -0.689088,2.53094 0.58593,1.39913 0.2943,-0.36563 1.927304,-0.77136 0.741285,-0.74874 1.258144,0.59011 1.188373,2.41561 0.773025,3.57086 -0.426386,1.49595 -2.239834,2.96258 -3.769783,2.03087 -1.604996,-0.75455 -1.204116,-2.87659 -0.391214,-4.06764 0.595484,-0.50062 2.024254,-1.48643 0.544008,-1.91648 l -0.177613,-0.13187 z" />
    <path
       id="path675"
       style="fill:#4400aa;fill-opacity:1;stroke:#4400aa;stroke-width:1;stroke-linecap:round;stroke-opacity:1"
       d="m 9.6326997,176.55971 c -1.8141112,0.391 -3.7120222,1.82638 -3.7024539,3.83681 0.3624274,2.01933 2.81014,2.764 4.5954602,2.67604 1.691957,0.0409 1.773036,-3.49729 0.469147,-2.91355 0.480541,0.71038 2.062772,-0.4025 1.063092,0.81499 -0.08272,1.58583 -0.632306,3.1181 -0.709231,4.69224 -0.09966,0.86553 0.664241,2.096 0.89705,0.55198 0.66032,-1.56598 0.520519,-3.32877 1.107611,-4.92236 0.741468,-1.76674 -0.910876,-2.35993 -2.299171,-1.87571 -1.472528,-0.20592 -1.7140531,1.20571 -0.551791,1.81708 -0.207242,1.85788 -2.8909265,0.83794 -3.2315678,-0.46888 -0.5117789,-1.61482 1.1717606,-2.86446 2.5935728,-3.09455 1.374676,-0.17862 0.1090596,-0.54185 -0.2317183,-1.11409 z" />
    <path
       id="path677"
       style="fill:#4400aa;fill-opacity:1;stroke:#4400aa;stroke-width:1;stroke-linecap:round;stroke-opacity:1"
       d="m 15.85356,176.75618 c 0.351466,1.66102 0.305352,3.36953 0.245881,5.05337 -0.0377,0.76044 0.892915,1.42368 1.057286,0.33651 0.22208,-0.92287 -0.09817,-1.86326 -0.08419,-2.79718 -0.05614,-0.84567 -0.121818,-1.69072 -0.198186,-2.53481 -0.263313,-0.33697 -0.687673,0.0255 -1.020788,-0.0579 z" />
    <path
       id="path679"
       style="fill:#4400aa;fill-opacity:1;stroke:#4400aa;stroke-width:1;stroke-linecap:round;stroke-opacity:1"
       d="m 16.327011,176.07088 c 0.571923,-1.12031 2.465801,-0.73881 2.069076,0.65894 -0.069,1.02177 -1.620088,2.10408 -0.496567,3.00305 1.007926,0.44484 1.091271,1.82206 2.201726,2.06743 1.167619,-0.20211 -0.03036,-1.5758 -0.550614,-1.96566 -0.376273,-0.60132 -1.488612,-0.76318 -0.779076,-1.5923 0.35229,-0.95984 0.946102,-2.45346 -0.138677,-3.152 -0.915369,-0.44252 -2.033054,-0.035 -2.672953,0.68089 -0.06376,0.20385 0.238438,0.26105 0.367085,0.29965 z" />
    <path
       id="path681"
       style="fill:#4400aa;fill-opacity:1;stroke:#4400aa;stroke-width:1;stroke-linecap:round;stroke-opacity:1"
       d="m 23.151678,182.12239 c 0.752298,-2.53802 1.456591,-5.10176 2.519085,-7.53266 -1.232702,-0.59395 -0.623111,1.16652 -0.319901,1.73294 0.627102,1.93958 0.988739,3.95405 1.447826,5.93165 0.781391,0.9869 1.647181,-0.65646 0.772795,-1.25338 -0.688407,-1.7693 -1.192012,-3.60683 -1.561739,-5.46781 0.418693,-1.4181 -1.875551,-2.08198 -1.547123,-0.27505 -0.351207,2.22786 -1.149979,4.37377 -2.197644,6.36044 -0.108433,0.49368 0.585053,0.43144 0.886701,0.50387 z" />
    <path
       id="path683"
       style="fill:#4400aa;fill-opacity:1;stroke:#4400aa;stroke-width:1;stroke-linecap:round;stroke-opacity:1"
       d="m 24.374679,179.72723 c 0.623832,-0.099 2.572542,0.34698 1.999477,-0.75484 -0.71544,-0.35706 -1.684013,0.0332 -1.999477,0.75484 z" />
    <path
       id="path685"
       style="fill:#4400aa;fill-opacity:1;stroke:#4400aa;stroke-width:1;stroke-linecap:round;stroke-opacity:1"
       d="m 29.522401,174.51521 c 1.19941,0.94189 1.445384,3.4466 3.315914,3.2421 1.429167,-0.53406 1.936453,-2.15101 2.942825,-3.17991 1.086052,-1.3067 -1.323559,-0.94262 -1.364679,0.14212 -1.00844,2.21667 -2.324548,4.29753 -3.278903,6.53368 -0.244699,0.75447 0.247765,1.68759 0.722877,0.5594 0.842617,-1.08388 1.125535,-2.47759 1.858261,-3.63281 0.642478,-1.25253 1.292079,-2.50812 2.102964,-3.66218 0.38744,-1.23223 -1.591211,-0.86133 -1.201965,0.22543 -0.470509,0.90139 -1.314687,2.20345 -2.401196,2.1707 -1.17038,-0.47417 -1.090371,-2.60563 -2.46141,-2.50778 l -0.234688,0.10927 z" />
    <path
       id="path687"
       style="fill:#4400aa;fill-opacity:1;stroke:#4400aa;stroke-width:1;stroke-linecap:round;stroke-opacity:1"
       d="m 11.782359,193.90298 c 0.381356,2.04159 0.318258,4.1461 0.137693,6.20136 -0.270912,1.16659 1.252892,1.38696 1.297913,0.19484 0.134658,-1.60933 -0.02522,-3.22681 -0.207127,-4.8284 -0.179953,-0.68698 0.356611,-1.96429 -0.781247,-1.58278 -0.149079,0.005 -0.298202,0.01 -0.447232,0.015 z" />
    <path
       id="path689"
       style="fill:#4400aa;fill-opacity:1;stroke:#4400aa;stroke-width:1;stroke-linecap:round;stroke-opacity:1"
       d="m 12.523849,193.8256 c 1.410502,-1.01237 2.910881,-1.94588 4.578793,-2.46726 0.467471,-0.91146 -1.176743,-0.48138 -1.503468,-0.0745 -1.219821,0.73422 -2.423176,1.50404 -3.713289,2.11196 0.212657,0.14325 0.42528,0.28655 0.637964,0.42976 z" />
    <path
       id="path691"
       style="fill:#4400aa;fill-opacity:1;stroke:#4400aa;stroke-width:1;stroke-linecap:round;stroke-opacity:1"
       d="m 14.032063,197.06641 c 0.905784,-0.22962 1.880505,-0.48487 2.501528,-1.23774 0.269459,-0.46354 -0.813609,0.0142 -1.061088,-0.056 -0.67559,0.22317 -1.652717,0.0635 -2.144512,0.52656 0.126619,0.3394 0.543656,0.45011 0.704072,0.76722 z" />
    <path
       id="path693"
       style="fill:#4400aa;fill-opacity:1;stroke:#4400aa;stroke-width:1;stroke-linecap:round;stroke-opacity:1"
       d="m 20.83032,192.82393 c -1.063299,1.67628 -1.880446,3.81789 -1.138747,5.77846 0.587404,1.12871 2.180822,0.96638 2.996961,0.19164 1.257394,-1.12625 1.808977,-2.87009 1.93432,-4.50619 0.04452,-1.33449 -1.483833,-2.03397 -2.6201,-1.62085 -0.79288,0.0659 -0.851124,1.1235 0.05729,0.79992 1.347474,-0.0946 1.573644,1.3723 1.252614,2.36257 -0.316781,1.16413 -1.004964,2.35773 -2.206619,2.76578 -0.787776,-0.0845 -0.918299,-1.60567 -0.73154,-2.44593 0.151392,-1.04068 0.580118,-2.03339 1.197262,-2.88201 0.0022,-0.40231 -0.539178,-0.23742 -0.741443,-0.44339 z" />
    <path
       id="path695"
       style="fill:#4400aa;fill-opacity:1;stroke:#4400aa;stroke-width:1;stroke-linecap:round;stroke-opacity:1"
       d="m 27.593366,192.26924 c 1.137281,1.82215 1.95138,3.821 3.047529,5.6663 0.429998,0.49822 1.453149,0.61921 0.923186,-0.30341 -0.515731,-1.01457 -1.205575,-1.93101 -1.689007,-2.96608 -0.423795,-0.81526 -0.806556,-1.65377 -1.106335,-2.52302 -0.380711,-0.27652 -0.779203,0.1386 -1.175373,0.12621 z" />
    <path
       id="path697"
       style="fill:#4400aa;fill-opacity:1;stroke:#4400aa;stroke-width:1;stroke-linecap:round;stroke-opacity:1"
       d="m 30.678897,191.80418 c -1.301857,2.38244 -2.657615,4.74719 -4.293778,6.91928 -0.205798,1.58295 1.811107,0.41733 1.821276,-0.5551 1.08741,-1.91226 2.16335,-3.83292 3.176044,-5.78442 0.243002,-0.54396 -0.398504,-0.46448 -0.703542,-0.57976 z" />
    <path
       id="path699"
       style="fill:#d40055;fill-opacity:1;stroke:#d40055;stroke-width:1;stroke-linecap:round;stroke-opacity:1"
       d="m 25.028207,271.13299 c -2.095966,2.09637 -2.274482,7.19477 1.542774,7.28481 3.423501,0.24637 6.498279,-4.21365 4.244418,-7.11591 -0.787282,-2.43271 -6.372807,-0.92827 -4.353837,0.99308 2.947808,-1.7572 4.86068,2.48097 2.222697,4.178 -2.901338,2.3676 -5.058514,-1.78991 -2.759756,-3.89142 0.397627,-0.74789 -0.118128,-1.40966 -0.896296,-1.44856 z" />
    <path
       id="path701"
       style="fill:#d40055;fill-opacity:1;stroke:#d40055;stroke-width:1;stroke-linecap:round;stroke-opacity:1"
       d="m 15.965904,262.19552 c 0.807078,1.43871 0.697219,3.13593 0.904002,4.71446 0.258611,1.09836 1.807772,0.6304 1.432395,-0.427 -0.212723,-1.55154 -0.477175,-3.09767 -0.809095,-4.62886 -0.509098,0.11381 -1.018219,0.22752 -1.527302,0.3414 z" />
    <path
       id="path703"
       style="fill:#d40055;fill-opacity:1;stroke:#d40055;stroke-width:1;stroke-linecap:round;stroke-opacity:1"
       d="m 16.234764,261.84236 c 1.490458,-1.18686 3.433846,-1.82415 4.617791,-3.37205 0.362717,-0.74607 -1.20549,0.11009 -1.54976,0.19922 -1.136997,0.56155 -2.146987,1.34088 -3.247966,1.96564 -0.204424,0.0762 -1.157773,0.77341 -0.28355,0.93029 0.154494,0.0923 0.309028,0.18454 0.463485,0.2769 z" />
    <path
       id="path705"
       style="fill:#d40055;fill-opacity:1;stroke:#d40055;stroke-width:1;stroke-linecap:round;stroke-opacity:1"
       d="m 18.375296,264.43587 c 0.701368,-0.49783 1.527876,-0.81945 2.145541,-1.43247 0.137377,-0.44013 0.265405,-1.23358 -0.454307,-0.83235 -0.688209,-0.01 -1.272006,0.32626 -1.80555,0.72285 -0.313585,0.26089 -1.059539,0.43889 -1.116166,0.72476 0.366673,0.33448 0.837585,0.51921 1.230482,0.81721 z" />
    <path
       id="path707"
       style="fill:#d40055;fill-opacity:1;stroke:#d40055;stroke-width:1;stroke-linecap:round;stroke-opacity:1"
       d="m 23.551782,259.57909 c -0.968238,1.48433 -1.78905,3.67805 -0.423946,5.18653 1.118941,1.12459 2.895332,0.5144 3.76486,-0.60227 1.200928,-1.27007 1.712893,-3.51994 0.453015,-4.90945 -0.592194,-0.89822 -2.954808,-0.22453 -2.149152,0.40963 0.981979,-0.3606 -0.272013,0.87098 0.729005,0.88803 1.243746,1.24636 -0.08849,3.99233 -1.727016,3.6995 -1.013059,-0.83703 -0.726028,-2.39644 0.02153,-3.3131 0.623548,-0.86353 0.226176,-1.16712 -0.668299,-1.35887 z" />
    <path
       id="path709"
       style="fill:#d40055;fill-opacity:1;stroke:#d40055;stroke-width:1;stroke-linecap:round;stroke-opacity:1"
       d="m 30.907508,257.02392 c 1.275817,1.49787 2.679641,2.87862 4.034246,4.3037 1.163137,0.66093 1.495002,-1.26485 0.273402,-1.38834 -1.179053,-0.91043 -2.170166,-2.03692 -3.076797,-3.21231 -0.44436,-0.20865 -0.807531,0.26366 -1.230851,0.29695 z" />
    <path
       id="path711"
       style="fill:#d40055;fill-opacity:1;stroke:#d40055;stroke-width:1;stroke-linecap:round;stroke-opacity:1"
       d="m 33.894294,255.75582 c -1.145883,2.00468 -2.440779,3.93145 -3.389717,6.0429 0.0087,0.86535 1.161404,0.89055 1.517163,0.22731 0.600863,-0.60268 0.518066,-1.51579 0.931182,-2.21827 0.553626,-1.24759 1.23176,-2.44791 2.035533,-3.5474 -0.01576,-0.39619 -0.810943,-0.29782 -1.094161,-0.50454 z" />
    <circle
       id="path743"
       style="fill:#2c89a0;stroke:#2c89a0;stroke-width:0.264583"
       cx="91.478432"
       cy="172.23947"
       r="0.79374999" />
    <circle
       id="path745"
       style="fill:#2c89a0;stroke:#2c89a0;stroke-width:0.264583"
       cx="106.45673"
       cy="171.14447"
       r="0.79374999" />
    <circle
       id="path747"
       style="fill:#2c89a0;stroke:#2c89a0;stroke-width:0.264583"
       cx="122.42125"
       cy="170.41985"
       r="0.79374999" />
    <circle
       id="path749"
       style="fill:#2c89a0;stroke:#2c89a0;stroke-width:0.264583"
       cx="138.76019"
       cy="169.35779"
       r="0.79374999" />
    <circle
       id="path751"
       style="fill:#2c89a0;stroke:#2c89a0;stroke-width:0.264583"
       cx="150.14641"
       cy="174.66692"
       r="0.79374999" />
    <circle
       id="path753"
       style="fill:#782144;stroke:#782144;stroke-width:0.264583"
       cx="164.27782"
       cy="169.00386"
       r="0.79374999" />
    <circle
       id="path755"
       style="fill:#782144;stroke:#782144;stroke-width:0.264583"
       cx="178.39038"
       cy="169.24486"
       r="0.79374999" />
    <circle
       id="path757"
       style="fill:#782144;stroke:#782144;stroke-width:0.264583"
       cx="195.41296"
       cy="169.62685"
       r="0.79374999" />
    <circle
       id="path759"
       style="fill:#782144;stroke:#782144;stroke-width:0.264583"
       cx="234.47325"
       cy="216.22131"
       r="0.79374999" />
    <circle
       id="path761"
       style="fill:#782144;stroke:#782144;stroke-width:0.264583"
       cx="233.8028"
       cy="205.08269"
       r="0.79374999" />
    <circle
       id="path763"
       style="fill:#782144;stroke:#782144;stroke-width:0.264583"
       cx="234.18077"
       cy="191.4823"
       r="0.79374999" />
    <circle
       id="path765"
       style="fill:#782144;stroke:#782144;stroke-width:0.264583"
       cx="233.22479"
       cy="180.49805"
       r="0.79374999" />
    <circle
       id="path767"
       style="fill:#782144;stroke:#782144;stroke-width:0.264583"
       cx="210.52646"
       cy="170.5555"
       r="0.79374999" />
    <circle
       id="path769"
       style="fill:#782144;stroke:#782144;stroke-width:0.264583"
       cx="224.85518"
       cy="170.35301"
       r="0.79374999" />
    <path
       id="path771"
       style="fill:#2c89a0;fill-opacity:1;stroke:#2c89a0;stroke-width:1;stroke-linecap:round;stroke-opacity:1"
       d="m 148.65138,166.20053 c -0.95871,0.91988 -2.24023,1.54826 -2.90412,2.74387 -0.31515,0.57235 -0.26727,1.34688 0.1556,1.84776 1.01244,0.9114 2.46581,0.97497 3.75492,0.87256 1.12801,-0.11393 2.31724,-0.13163 3.3281,-0.71286 1.10069,-0.57316 1.96352,-1.69121 2.00854,-2.96033 0.39452,-1.00657 -0.10709,-2.27283 -1.12372,-2.67627 -0.64297,-0.28427 -1.39387,-0.12087 -1.95618,0.26663 -0.75832,0.4215 -1.54367,0.8837 -2.06381,1.59565 -0.38846,0.4165 0.17655,1.01062 0.63285,0.8161 0.90234,-0.30442 1.45868,-1.18723 2.34372,-1.51976 0.53347,-0.18596 0.91229,0.38963 0.88616,0.86228 0.11221,1.49247 -1.02787,2.94686 -2.48747,3.24232 -1.05224,0.29943 -2.19801,0.48679 -3.27097,0.18628 -0.56936,-0.14683 -1.03689,-0.66876 -1.00249,-1.2759 0.0321,-0.68092 0.68671,-1.07979 1.20825,-1.39881 0.44836,-0.296 1.04231,-0.51996 1.23392,-1.0672 0.17187,-0.5202 -0.43465,-0.58851 -0.7433,-0.82232 z" />
    <path
       id="path773"
       style="fill:#782144;fill-opacity:1;stroke:#782144;stroke-width:1;stroke-linecap:round;stroke-opacity:1"
       d="m 231.57669,169.64882 c -2.50451,0.73744 -3.6341,5.28041 -0.4846,5.86359 2.69812,0.23006 4.92,-2.22939 5.88599,-4.51452 1.25262,-2.4153 -2.00075,-4.4791 -3.81756,-2.74047 -1.49769,0.97021 0.31567,2.24108 1.16088,0.97705 2.92074,0.15052 0.24417,3.91682 -1.19431,4.65451 -1.85713,1.99632 -3.85985,-0.94263 -2.05851,-2.52498 0.22664,-0.72573 2.02709,-1.26301 0.50811,-1.71518 z" />
    <path
       id="path775"
       style="fill:#2c89a0;fill-opacity:1;stroke:#2c89a0;stroke-width:1;stroke-linecap:round;stroke-opacity:1"
       d="m 140.80349,147.00917 c -1.57717,0.72299 -3.09053,2.23915 -2.95194,4.09595 0.10862,1.35497 1.61632,2.14138 2.8569,1.83253 0.9124,-0.21392 2.12921,-0.64557 2.25126,-1.72548 0.0984,-0.53448 -0.35599,-0.90225 -0.615,-0.35977 -0.61182,-0.10565 -1.12392,0.19176 -0.76426,0.85011 0.10705,1.06961 -0.3743,2.36544 0.45846,3.24145 0.68417,0.49317 0.7985,-0.99011 0.89299,-1.48875 -0.0552,-1.05241 0.24244,-2.112 0.0733,-3.15592 -0.14467,-0.83678 -1.39668,-1.12408 -1.85422,-0.40402 -0.49739,0.61835 0.44806,1.71014 -0.6521,1.92772 -0.70146,0.41675 -1.40598,-0.36045 -1.28272,-1.07347 0.0911,-1.11699 0.92203,-2.07513 1.93666,-2.49609 0.65885,-0.16502 0.71231,-0.70919 0.0416,-0.94172 -0.13806,-0.0893 -0.28342,-0.17516 -0.39098,-0.30254 z" />
    <path
       id="path777"
       style="fill:#2c89a0;fill-opacity:1;stroke:#2c89a0;stroke-width:1;stroke-linecap:round;stroke-opacity:1"
       d="m 145.46412,147.98813 c 0.15421,1.44685 -0.0435,2.89926 -0.14146,4.33809 0.0926,0.68989 0.87501,0.93959 1.1631,0.19579 0.33498,-0.77907 0.21563,-1.74341 0.27202,-2.59932 -0.0801,-0.59617 0.30414,-1.62884 -0.19218,-1.94984 -0.36716,0.005 -0.73433,0.0101 -1.10148,0.0153 z" />
    <path
       id="path779"
       style="fill:#2c89a0;fill-opacity:1;stroke:#2c89a0;stroke-width:1;stroke-linecap:round;stroke-opacity:1"
       d="m 146.29731,147.19399 c 0.73578,-0.42558 2.34705,-0.47649 2.36846,0.65295 -0.005,1.09081 -1.37436,1.42234 -1.54372,2.35331 0.24853,1.07212 1.567,1.2578 2.06668,2.18726 0.54914,0.97327 2.12464,0.20391 0.98873,-0.61671 -0.56533,-0.7358 -2.26413,-1.29426 -1.19912,-2.29037 0.48762,-0.8327 1.25897,-2.42753 -0.0592,-2.89852 -0.91419,-0.23879 -2.07998,-0.34385 -2.87325,0.23523 -0.20897,0.24809 0.1901,0.21998 0.25144,0.37685 z" />
    <path
       id="path781"
       style="fill:#2c89a0;fill-opacity:1;stroke:#2c89a0;stroke-width:1;stroke-linecap:round;stroke-opacity:1"
       d="m 152.66356,152.73227 c 0.65405,-1.80557 1.3628,-3.60929 2.39458,-5.23767 -0.36469,-0.0424 -0.85941,0.31548 -0.38183,0.59918 0.24691,0.44896 0.36736,0.95722 0.54934,1.43509 0.23225,0.67661 0.38856,1.37879 0.56963,2.06717 0.16345,0.40999 0.81897,0.63003 1.05024,0.16051 0.22436,-0.44489 -0.22491,-0.77608 -0.36626,-1.15462 -0.40593,-0.96424 -0.73919,-1.96892 -0.84833,-3.01441 -0.0944,-0.55444 -0.76082,-0.90951 -1.26244,-0.62413 -0.62506,0.2581 -0.54634,0.96878 -0.73198,1.49423 -0.45111,1.37953 -1.11125,2.67647 -1.75193,3.9747 0.10982,0.34879 0.54665,0.13394 0.77898,0.29995 z" />
    <path
       id="path783"
       style="fill:#2c89a0;fill-opacity:1;stroke:#2c89a0;stroke-width:1;stroke-linecap:round;stroke-opacity:1"
       d="m 154.14955,151.60041 c 0.95975,0.40912 1.88783,-1.4719 0.43066,-1.24062 -0.69023,-0.0459 -1.38157,0.97766 -0.43066,1.24062 z" />
    <path
       id="path785"
       style="fill:#2c89a0;fill-opacity:1;stroke:#2c89a0;stroke-width:1;stroke-linecap:round;stroke-opacity:1"
       d="m 159.05055,147.47207 c 0.47977,0.95996 1.53043,1.93441 2.63997,1.24366 0.5704,-0.56042 1.69055,-1.35916 1.63846,-2.09776 -1.00716,-0.82099 -1.5972,0.0945 -1.81162,1.06912 -0.7083,1.47484 -1.41608,2.95481 -2.14157,4.41984 -0.2268,0.63382 -0.11845,2.0323 0.62712,0.99438 1.00402,-0.77354 1.15411,-2.1123 1.72989,-3.16938 0.47671,-1.05207 1.00616,-2.1009 1.71573,-3.00679 -0.12482,-1.27691 -1.89523,-0.66772 -1.9235,0.41928 -0.20626,0.29059 -0.81101,0.60472 -0.38743,0.6633 -0.70234,-0.0199 -1.02513,-1.3272 -1.84949,-0.60062 l -0.23752,0.065 z" />
    <path
       id="path787"
       style="fill:#2c89a0;fill-opacity:1;stroke:#2c89a0;stroke-width:1;stroke-linecap:round;stroke-opacity:1"
       d="m 142.29339,158.18278 c -0.0608,1.52679 0.0713,3.05157 0.1091,4.57711 0.22007,0.43444 0.76612,1.48521 0.94593,0.48915 0.46382,-0.64805 0.1089,-1.40467 0.12937,-2.12082 -0.0514,-0.92474 -0.0676,-1.85145 -0.0476,-2.77741 -0.28237,-0.35949 -0.78057,-0.008 -1.13682,-0.16803 z" />
    <path
       id="path789"
       style="fill:#2c89a0;fill-opacity:1;stroke:#2c89a0;stroke-width:1;stroke-linecap:round;stroke-opacity:1"
       d="m 142.92631,157.5628 c 1.48508,-0.53483 3.13931,1.02943 2.70566,2.54838 -0.26024,1.49965 -1.33192,2.65034 -2.07706,3.92362 -0.11139,1.35632 1.68238,-0.12465 1.84566,-0.79848 0.89154,-1.40961 1.74079,-3.22894 0.9998,-4.88046 -0.61859,-1.21935 -2.12478,-1.72872 -3.40968,-1.46365 -0.6575,-0.0801 -0.55901,0.4843 -0.0644,0.67059 z" />
    <path
       id="path791"
       style="fill:#2c89a0;fill-opacity:1;stroke:#2c89a0;stroke-width:1;stroke-linecap:round;stroke-opacity:1"
       d="m 151.12349,156.89462 c -1.73946,1.06939 -3.34947,2.98362 -2.98493,5.15633 0.2437,1.43087 1.99253,1.80558 3.11153,1.14197 1.44809,-0.83833 2.26268,-2.42091 2.93205,-3.89664 0.64009,-1.01754 0.0812,-2.75072 -1.32175,-2.43729 -0.71678,0.15512 -1.25698,0.72128 -0.27356,0.97607 0.88804,0.94488 0.13103,2.22565 -0.41508,3.13492 -0.57604,0.72108 -1.47581,1.82572 -2.3777,1.60687 -0.9896,-0.62233 -0.51755,-2.11787 -0.0455,-2.97146 0.51103,-0.87406 1.35043,-1.53075 2.26326,-1.92463 -0.0605,-0.40208 -0.67127,-0.47205 -0.88829,-0.78614 z" />
    <path
       id="path793"
       style="fill:#2c89a0;fill-opacity:1;stroke:#2c89a0;stroke-width:1;stroke-linecap:round;stroke-opacity:1"
       d="m 158.19315,155.73403 c -1.39364,1.36359 -2.25952,3.47743 -1.66628,5.40567 0.53521,0.97133 1.97782,0.88184 2.7444,0.24046 1.06108,-0.40473 1.25025,-2.09443 -0.2197,-1.56046 -1.04118,0.38033 0.0988,1.70915 -0.20707,2.53559 -0.009,0.89995 1.13354,2.0522 1.52644,0.66995 0.10099,-1.07441 0.11511,-2.33414 -0.31026,-3.36872 -0.8258,-0.52728 -1.82506,-0.10063 -1.88277,0.83683 -0.65256,0.34265 0.22475,0.64628 -0.4933,0.32329 -0.67157,-0.79913 -0.28151,-2.04322 0.12962,-2.88763 0.14981,-0.92913 2.44829,-1.55542 0.37892,-2.19498 z" />
    <path
       id="path795"
       style="fill:#782144;fill-opacity:1;stroke:#782144;stroke-width:1;stroke-linecap:round;stroke-opacity:1"
       d="m 242.55542,174.48815 c 0.27373,1.7555 0.0616,3.53736 -0.0302,5.29251 0.0545,0.3744 0.33425,1.76582 0.58276,0.77066 0.7282,-0.94944 0.43063,-2.21534 0.52016,-3.32046 -0.0361,-0.90859 0.36337,-1.8148 0.1412,-2.7138 -0.40462,-0.01 -0.80927,-0.0195 -1.21388,-0.0289 z" />
    <path
       id="path797"
       style="fill:#782144;fill-opacity:1;stroke:#782144;stroke-width:1;stroke-linecap:round;stroke-opacity:1"
       d="m 244.4498,173.81578 c 1.62405,-0.54024 3.29889,2.14891 1.22623,2.68896 -1.17012,0.29823 -1.78033,2.01272 -0.007,1.73201 2.202,0.39323 0.67847,2.79764 -0.79023,3.05848 -0.94999,0.11972 -2.85367,2.1567 -0.82339,1.75879 1.74676,-0.55589 3.90073,-1.76146 4.31744,-3.65878 0.30567,-1.30452 -2.42556,-2.55421 -2.55621,-1.72302 1.90125,-0.4966 2.75655,-3.79708 0.35792,-4.30933 -0.38155,-0.18298 -3.19653,-0.49361 -1.72493,0.45289 z" />
    <path
       id="path799"
       style="fill:#782144;fill-opacity:1;stroke:#782144;stroke-width:1;stroke-linecap:round;stroke-opacity:1"
       d="m 251.9308,175.18572 c 0.1109,1.95444 -0.45726,3.89116 -0.29938,5.83996 0.21985,0.97486 1.11793,0.47177 1.10434,-0.30453 0.25968,-1.09187 0.1772,-2.2275 0.28649,-3.33773 -0.0963,-0.67636 0.27237,-1.74511 -0.003,-2.1639 -0.36296,-0.0113 -0.72596,-0.0228 -1.0889,-0.0338 z" />
    <path
       id="path801"
       style="fill:#782144;fill-opacity:1;stroke:#782144;stroke-width:1;stroke-linecap:round;stroke-opacity:1"
       d="m 252.72451,175.32253 c 0.31508,-0.53844 1.78624,-1.52731 1.67554,-0.61923 0.88306,0.90485 -0.21027,1.92008 -0.98837,2.42205 -0.64306,1.09009 0.99876,1.79113 1.38581,2.68035 0.24864,0.73566 2.04535,1.70072 1.74298,0.317 -0.41332,-0.8866 -1.25525,-1.49379 -1.74243,-2.33336 0.42541,-0.84763 1.38343,-1.81071 1.03998,-2.99175 -0.15127,-1.27407 -1.75754,-1.60253 -2.70035,-0.985 -0.54421,0.36939 -1.75707,1.32938 -0.41316,1.50994 z" />
    <path
       id="path803"
       style="fill:#782144;fill-opacity:1;stroke:#782144;stroke-width:1;stroke-linecap:round;stroke-opacity:1"
       d="m 262.0845,173.94851 c -2.12713,1.49244 -3.38778,4.52273 -2.34144,6.99437 1.48328,1.97816 4.33119,0.54658 5.26206,-1.26781 1.17494,-1.0264 1.18208,-4.82408 -0.95996,-3.97816 -0.96582,1.0838 0.87899,2.52613 -0.41882,3.72549 -0.68459,1.77857 -3.58373,1.85312 -3.33912,-0.39278 0.035,-1.7736 0.95099,-3.62328 2.60038,-4.40807 -0.0101,-0.44019 -0.61043,-0.36408 -0.8031,-0.67304 z" />
    <path
       id="path805"
       style="fill:#782144;fill-opacity:1;stroke:#782144;stroke-width:1;stroke-linecap:round;stroke-opacity:1"
       d="m 268.26694,174.57527 c 0.25394,2.47165 1.12384,4.84819 1.21401,7.34123 1.06161,1.4717 2.54455,-0.39044 2.38963,-1.64728 0.20038,-1.23172 1.60741,-3.1494 1.42175,-3.7988 -1.80547,0.17827 0.53966,1.86226 0.5797,2.85294 0.15171,1.34588 1.2202,2.78129 2.64369,1.72463 0.86717,-1.1264 1.14773,-2.86847 1.11565,-4.31402 -0.53833,-2.07787 -2.1578,0.40417 -2.12488,1.49832 -0.11349,0.80865 -1.22651,2.21262 0.46882,1.80313 0.59397,0.28972 -0.99138,-0.88826 -0.96561,-1.46741 -0.76721,-1.05244 -0.72112,-4.0984 -2.66997,-3.08133 -1.33346,1.14082 -1.03651,3.25914 -1.93252,4.71254 -0.31288,0.67081 -0.98746,1.40506 0.21729,1.23158 0.88296,-0.29862 -0.53827,-1.76955 -0.47479,-2.60704 -0.40924,-1.37126 -0.71732,-2.81158 -0.54736,-4.24854 -0.44513,3e-5 -0.89031,-8e-5 -1.33541,5e-5 z" />
    <path
       id="path807"
       style="fill:#782144;fill-opacity:1;stroke:#782144;stroke-width:1;stroke-linecap:round;stroke-opacity:1"
       d="m 280.54077,181.28789 c 0.70004,-2.1656 1.26461,-4.3758 2.07182,-6.50604 0.33841,-0.0362 -0.6172,0.4549 -0.87328,0.0835 -1.0994,-0.22944 0.24392,0.87772 0.2178,1.3992 0.6757,1.55927 1.24958,3.16036 1.78623,4.77208 -0.10631,1.01463 1.06895,1.11835 1.78272,0.96407 0.99596,-0.24619 1.09286,-1.47298 1.56407,-2.21696 0.73464,-1.67585 1.37764,-3.40162 2.0826,-5.08253 0.19033,-1.1288 -1.1458,-1.42362 -1.6349,-0.4676 -0.5011,0.95559 -0.64593,2.07343 -1.11677,3.05547 -0.44832,1.10871 -0.99532,2.18322 -1.69493,3.15568 -0.88135,0.426 1.45935,0.0846 0.78106,0.37819 -0.78576,-0.82679 -1.14503,-1.98329 -1.61208,-3.01668 -0.42212,-1.11447 -0.72647,-2.27027 -0.96497,-3.43687 -0.48874,-0.67272 -2.05744,-0.98882 -2.00221,0.21162 -0.10132,2.17896 -0.95969,4.21276 -1.6071,6.26856 0.0443,0.54198 0.89286,0.23644 1.21994,0.43827 z" />
    <path
       id="path809"
       style="fill:#782144;fill-opacity:1;stroke:#782144;stroke-width:1;stroke-linecap:round;stroke-opacity:1"
       d="m 252.97383,188.38034 c -0.0728,1.66151 -0.41133,3.30011 -0.52511,4.95573 -0.0902,0.68774 0.57065,2.21077 1.19423,1.05135 0.77667,-0.9597 0.50877,-2.26185 0.7216,-3.3938 -0.12208,-0.81027 0.51157,-2.03077 -0.13272,-2.54421 -0.41309,-0.10415 -0.84546,0.0407 -1.258,-0.0691 z" />
    <path
       id="path811"
       style="fill:#782144;fill-opacity:1;stroke:#782144;stroke-width:1;stroke-linecap:round;stroke-opacity:1"
       d="m 253.68877,188.27734 c 1.44629,-0.15705 3.70403,0.20844 3.83516,1.99854 -0.16724,1.71512 -1.71675,2.84349 -2.95388,3.85455 -0.46004,0.28608 -1.69869,1.70671 -1.0112,1.84905 1.33858,-0.35941 2.44684,-1.16919 3.37497,-2.18808 1.23617,-1.07817 2.54365,-2.76824 1.88685,-4.49855 -0.69427,-1.48209 -2.55704,-1.62524 -3.99165,-1.75046 -0.6865,0.0919 -2.56626,-0.35605 -1.14025,0.73495 z" />
    <path
       id="path813"
       style="fill:#782144;fill-opacity:1;stroke:#782144;stroke-width:1;stroke-linecap:round;stroke-opacity:1"
       d="m 262.88769,188.43927 c -1.93495,1.15087 -3.22582,3.85212 -1.98016,5.93827 1.00667,1.56842 3.30684,1.30756 4.59291,0.24426 1.20494,-0.9754 2.56113,-2.11587 2.87257,-3.71331 0.0766,-1.6269 -1.89358,-2.3228 -3.23913,-1.98379 -0.91871,-0.0853 -1.7181,1.39045 -0.38748,1.02765 1.10666,0.002 2.33698,0.86047 1.31833,1.94024 -0.50251,1.08459 -2.10909,1.71625 -2.66348,2.25962 0.4105,0.20197 -1.18603,-0.0605 -1.19044,-0.70145 -0.74596,-1.40871 0.15568,-3.03934 1.36988,-3.84358 1.02319,-0.50846 -0.35056,-0.74099 -0.693,-1.16791 z" />
    <path
       id="path815"
       style="fill:#782144;fill-opacity:1;stroke:#782144;stroke-width:1;stroke-linecap:round;stroke-opacity:1"
       d="m 273.3277,187.72116 c -1.54068,1.25789 -3.03919,3.21261 -2.42383,5.31795 0.49258,1.67354 3.31639,1.78165 3.79986,0.051 0.24534,-0.74332 -0.75188,-0.56747 0.0304,-0.33742 1.07021,-0.46966 -0.64407,0.17162 -0.25058,0.86915 0.35291,0.94574 -0.60461,2.67147 0.81166,2.90801 1.2684,-0.36834 0.80569,-2.16755 1.04941,-3.18941 0.46683,-1.38389 -1.01397,-2.44833 -2.23118,-1.7609 -0.68344,0.0707 -1.64341,0.57537 -1.2908,1.41629 -0.8141,0.0464 1.01297,0.35463 -0.13897,-0.0567 -0.94951,-1.0326 -0.32225,-2.70881 0.60804,-3.53305 0.83037,-0.42697 1.63068,-1.10138 0.32242,-1.50392 l -0.14323,-0.0905 z" />
  </g>
</svg>
