<?xml version="1.0" encoding="UTF-8" standalone="no"?>
<svg
   xmlns:dc="http://purl.org/dc/elements/1.1/"
   xmlns:cc="http://creativecommons.org/ns#"
   xmlns:rdf="http://www.w3.org/1999/02/22-rdf-syntax-ns#"
   xmlns:svg="http://www.w3.org/2000/svg"
   xmlns="http://www.w3.org/2000/svg"
   xmlns:sodipodi="http://sodipodi.sourceforge.net/DTD/sodipodi-0.dtd"
   xmlns:inkscape="http://www.inkscape.org/namespaces/inkscape"
   width="1200"
   height="600"
   viewBox="0 0 317.5 158.75"
   version="1.1"
   id="svg8"
   sodipodi:docname="ul-gosset.svg"
   inkscape:version="1.0.1 (3bc2e813f5, 2020-09-07)">
  <sodipodi:namedview
     pagecolor="#ffffff"
     bordercolor="#666666"
     borderopacity="1"
     objecttolerance="10"
     gridtolerance="10"
     guidetolerance="10"
     inkscape:pageopacity="0"
     inkscape:pageshadow="2"
     inkscape:window-width="1920"
     inkscape:window-height="1061"
     id="namedview45"
     showgrid="false"
     inkscape:zoom="1.4"
     inkscape:cx="600"
     inkscape:cy="300"
     inkscape:window-x="0"
     inkscape:window-y="19"
     inkscape:window-maximized="0"
     inkscape:current-layer="svg8" />
  <defs
     id="defs2" />
  <metadata
     id="metadata5">
    <rdf:RDF>
      <cc:Work
         rdf:about="">
        <dc:format>image/svg+xml</dc:format>
        <dc:type
           rdf:resource="http://purl.org/dc/dcmitype/StillImage" />
        <dc:title></dc:title>
      </cc:Work>
    </rdf:RDF>
  </metadata>
  <path
     id="path8"
     style="fill:#e9c6af;fill-opacity:1;stroke:#e9c6af;stroke-width:0.264583px;stroke-linecap:butt;stroke-linejoin:miter;stroke-opacity:1"
     d="m 142.17257,65.64083 c 0.52846,3.38869 1.32088,6.89603 0.10964,10.24224 -1.32038,6.00488 -1.11496,12.19076 -1.32565,18.28623 0.86274,4.53479 3.93358,8.47109 7.40899,11.37952 3.60234,2.40749 7.48794,4.51275 11.52249,6.0757 4.21732,1.35931 8.73127,0.90141 12.67352,-1.04205 3.46366,-1.00355 4.61443,-4.46103 6.17981,-7.27601 1.35273,-2.76967 3.04388,-5.41665 3.99397,-8.35514 0.24198,-4.05962 1.30451,-8.02442 1.51437,-12.10841 0.34908,-3.99631 1.39135,-7.8554 2.54736,-11.67175 0.776,-3.60532 1.07009,-7.31164 1.63368,-10.95999 -0.77295,-3.37303 -3.63904,2.98705 -4.48638,4.46681 -2.57541,5.06163 -6.81523,9.16742 -11.99674,11.51011 -3.74362,2.22451 -7.99992,3.81248 -12.42607,3.26489 -4.25686,-0.45217 -8.54373,-1.49328 -12.40174,-3.35148 -3.57583,-2.08474 -1.6921,-6.93269 -3.72064,-9.88538 -0.31928,-0.33578 -0.76953,-0.53075 -1.22661,-0.57529 z" />
  <path
     id="path14"
     style="fill:#f4e3d7;stroke:#f4e3d7;stroke-width:0.264583px;stroke-linecap:butt;stroke-linejoin:miter;stroke-opacity:1"
     d="m 152.05679,11.41369 c -4.922,3.61588 -11.61613,5.85764 -13.73745,12.19169 -3.67394,7.76079 -3.08395,16.70517 -2.35857,25.04117 1.09953,6.10881 1.76557,12.29933 3.0609,18.36556 1.14753,5.72339 4.67717,10.48691 6.92345,15.79004 2.66595,4.80231 8.0979,10.46376 14.09361,7.83619 6.05208,-2.93663 11.90372,-6.41491 17.43488,-10.23778 5.88194,-4.71445 8.27029,-12.05633 12.20096,-18.22499 2.1642,-4.23383 3.71254,-8.75187 6.08358,-12.91269 4.09004,-8.44472 2.46813,-18.40606 -1.10333,-26.73711 -2.57376,-6.76733 -10.4485,-8.40248 -16.17438,-11.56584 -5.91135,-3.20289 -12.71844,-2.26159 -19.05752,-1.28822 -2.50942,0.17076 -5.21562,0.26248 -7.36613,1.74198 z" />
  <path
     id="path28"
     style="fill:#6c5d53;stroke:#6c5d53;stroke-width:0.264583px;stroke-linecap:butt;stroke-linejoin:miter;stroke-opacity:1"
     d="m 193.56561,25.76619 c -0.95584,-1.55979 -2.82486,-3.34298 -4.68923,-2.94077 -0.67328,1.98809 -0.27379,4.1527 -0.24473,6.21615 0.0932,3.09707 0.62901,6.21966 -0.012,9.29709 -0.38989,2.61009 -0.0536,5.24114 -0.0978,7.85921 -0.5156,1.53683 0.10594,2.64449 1.81763,2.12389 1.37128,0.20305 2.50007,1.23813 3.43745,2.22743 1.50487,1.8647 2.51461,-1.21224 2.8494,-2.44872 0.4331,-1.87818 1.00947,-3.69729 1.40988,-5.58181 0.55832,-3.73114 -0.0743,-7.49622 -0.28843,-11.22623 -0.43437,-2.16988 -1.73156,-4.31633 -3.72693,-5.36183 l -0.22453,-0.0902 -0.23086,-0.0743 z" />
  <path
     id="path34"
     style="fill:#241f1c;stroke:#241f1c;stroke-width:0.264583px;stroke-linecap:butt;stroke-linejoin:miter;stroke-opacity:1"
     d="m 192.87545,17.15913 c -3.72302,2.18328 -7.75766,-0.66668 -10.87353,-2.65582 -5.2069,-3.25403 -11.72998,-3.41072 -17.58647,-2.20099 -3.87946,-0.0142 -7.78817,-0.0772 -11.48786,1.26112 -3.03902,1.12129 -6.39331,1.7667 -8.72359,4.20747 -2.42486,1.39445 -4.25092,3.51861 -5.4877,6.01952 -1.20997,1.20561 -2.47455,6.35637 -2.56321,2.33799 0.57199,-3.03645 2.07978,-5.86671 3.46602,-8.61062 2.17423,-3.44821 5.10556,-6.5146 8.98316,-8.00001 4.58597,-1.78417 8.78534,-5.17288 13.91845,-5.01669 4.13047,-0.16513 8.3541,0.24951 12.37793,1.12278 3.10131,0.91079 5.3705,3.21762 7.8678,5.10772 2.85784,1.78611 6.52031,1.93374 9.07684,4.3099 0.7201,0.4668 1.3039,1.21038 1.03216,2.11763 z" />
  <path
     id="path40"
     style="fill:#483e37;stroke:#483e37;stroke-width:0.264583px;stroke-linecap:butt;stroke-linejoin:miter;stroke-opacity:1"
     d="m 185.72724,15.62849 c -0.25219,3.00915 0.58527,5.98583 0.5982,8.97189 -0.1504,1.88161 2.49032,1.07453 3.49231,2.11224 0.94919,0.7883 1.74959,2.19782 3.13653,1.21655 0.9038,0.21291 1.11443,1.6372 2.14456,1.85051 1.32486,0.69031 2.36561,1.78606 3.42782,2.81178 0.80629,-1.6991 -0.26948,-3.46676 -0.61481,-5.13948 0.62262,0.20798 1.85426,1.58321 1.69432,0.11254 0.0566,-1.67023 -0.53041,-3.25434 -1.29909,-4.70122 -0.44819,-1.40324 -0.63849,-3.30681 -2.27835,-3.83559 -1.08747,-0.12564 -1.34138,-0.85697 -0.59735,-1.55606 -0.78114,-0.85421 -0.0105,-1.3455 0.63372,-1.74629 -1.11846,-0.14905 -2.23653,-0.46809 -3.11589,-1.2138 -0.92218,-0.85002 -2.17409,-0.61568 -3.25411,-0.91357 -0.63779,-0.48829 -1.85024,-1.19873 -1.43875,0.21296 0.44616,1.07687 -0.38813,1.26633 -1.23178,0.93734 -0.65513,-0.11296 -1.04315,0.38173 -1.29733,0.8802 z" />
  <path
     id="path46"
     style="fill:#f4e3d7;fill-opacity:1;stroke:#f4e3d7;stroke-width:0.264583px;stroke-linecap:butt;stroke-linejoin:miter;stroke-opacity:1"
     d="m 137.21812,45.97504 c -0.75311,-0.27447 -1.53753,-2.19656 -2.27171,-0.76958 -0.71276,2.40498 0.55434,4.86416 0.14327,7.30096 -0.17737,1.591 -0.85408,3.13141 -0.61342,4.7592 0.15193,1.66204 0.50079,3.33632 1.18299,4.86263 0.43978,0.67278 1.43083,1.55181 2.24294,1.00343 0.83605,-0.83301 0.5976,-2.13653 0.54262,-3.20217 -0.19576,-1.98609 -0.32807,-3.97715 -0.5856,-5.95768 -0.28293,-1.87708 0.0244,-3.79148 -0.29907,-5.65948 -0.24508,-0.75489 -0.49449,-1.53182 -0.34202,-2.33731 z" />
  <path
     id="path52"
     style="fill:#e9c6af;fill-opacity:1;stroke:#e9c6af;stroke-width:0.264583px;stroke-linecap:butt;stroke-linejoin:miter;stroke-opacity:1"
     d="m 136.42936,53.09583 c -0.2163,0.33634 -0.39396,0.70843 -0.42607,1.11236 -0.0688,0.54009 -0.0947,1.09433 0.006,1.63193 0.0291,0.18284 0.16905,0.4547 0.39351,0.34456 0.25099,-0.10899 0.26479,-0.42941 0.23378,-0.66444 -0.0579,-0.54931 -0.30383,-1.05318 -0.43287,-1.58498 -0.0372,-0.3 0.15001,-0.56174 0.22574,-0.83943 z" />
  <path
     id="path149"
     style="fill:#cccccc;stroke:#cccccc;stroke-width:0.264583px;stroke-linecap:butt;stroke-linejoin:miter;stroke-opacity:1"
     d="m 176.7304,45.81975 c -0.61772,1.73958 1.72986,0.9897 2.66216,0.9665 2.43149,-0.0997 4.87791,0.39194 7.30494,0.0148 1.42387,-0.0777 2.8759,-0.27043 4.28843,-0.0234 1.50094,0.51599 2.69238,1.6083 4.04991,2.37705 0.52397,-0.74666 -0.83662,-1.6008 -1.55048,-1.7985 -1.10612,-0.61046 -2.18693,-1.39413 -3.50445,-1.44217 -2.2414,-0.20547 -4.47777,0.39207 -6.72048,0.0988 -1.95579,-0.12817 -3.92768,-0.66215 -5.88224,-0.25003 -0.21499,0.0279 -0.43116,0.0501 -0.64779,0.057 z" />
  <path
     id="path155"
     style="fill:#f4e3d7;stroke:#f4e3d7;stroke-width:0.264583px;stroke-linecap:butt;stroke-linejoin:miter;stroke-opacity:1"
     d="m 192.25921,48.70356 c 1.47691,-1.03208 3.34703,-1.57567 5.14204,-1.26209 1.14412,-0.20969 1.59438,1.1582 2.16627,1.87318 0.7423,2.06811 -1.04046,3.93207 -0.96112,5.99233 -0.0745,1.89782 -0.26288,3.87378 -1.30182,5.51933 -0.49146,1.06718 -0.6721,2.37033 -1.72498,3.06985 -0.81691,0.70543 -1.43375,1.65389 -2.55262,1.92512 -1.19514,0.49986 -2.59983,1.34196 -3.8816,0.62843 -0.54869,-0.82662 -1.54872,-1.52083 -1.55851,-2.56514 0.39866,-2.30543 2.37381,-3.82809 3.4527,-5.78796 0.35687,-1.08408 1.1843,-1.93646 1.5394,-3.00525 0.23047,-0.89143 0.89005,-1.79573 0.26792,-2.67954 -0.39087,-0.94126 -1.00324,-1.84734 -1.08986,-2.87806 -0.002,-0.37301 0.3093,-0.56249 0.50218,-0.8302 z" />
  <path
     id="path62"
     style="fill:#e9c6af;stroke:#e9c6af;stroke-width:0.264583px;stroke-linecap:butt;stroke-linejoin:miter;stroke-opacity:1"
     d="m 191.27327,58.57507 c 0.21312,-0.68483 0.47837,-1.39575 1.00078,-1.90692 0.2975,-0.31286 0.79369,-0.11144 0.90121,0.27625 0.31233,0.82036 0.19363,1.70946 0.24413,2.56551 0.17916,-0.22396 0.30033,-0.56731 0.4502,-0.84109 0.44696,-0.9742 0.82195,-2.01367 0.86442,-3.0942 0.0207,-0.44875 -0.14386,-0.90155 -0.48678,-1.20043 -0.41998,-0.38932 -0.75524,-0.90038 -1.28573,-1.14935 -0.48715,-0.18552 -0.93902,0.25416 -1.10198,0.67909 -0.47919,1.20859 -0.12787,2.54656 -0.46216,3.78472 -0.0617,0.29197 -0.11993,0.58697 -0.12409,0.88642 z" />
  <path
     id="path74"
     style="fill:#e9c6af;stroke:#e9c6af;stroke-width:0.264583px;stroke-linecap:butt;stroke-linejoin:miter;stroke-opacity:1"
     d="m 149.78908,68.51311 c -0.77943,0.0435 -2.10667,0.86027 -1.94322,1.56913 1.19436,0.87648 2.62256,1.44646 3.72233,2.45371 0.57389,0.99679 1.62775,1.41956 2.74547,1.31373 2.38976,0.23629 4.79264,0.26666 7.18961,0.26095 1.33372,0.21418 2.57088,-0.37481 3.5688,-1.21291 0.72766,-0.84518 2.35733,-0.7246 2.91008,-1.30064 -0.87068,-0.89497 -1.78591,-1.81765 -3.01886,-2.1948 -2.32146,-0.96134 -4.93553,-1.35415 -7.39942,-0.74349 -2.27157,0.42533 -4.44705,-0.76992 -6.71619,-0.57817 -0.37352,0.0618 -0.65842,0.60211 -1.0586,0.43249 z" />
  <path
     id="path80"
     style="fill:#241f1c;fill-opacity:1;stroke:#241f1c;stroke-width:0.264583px;stroke-linecap:butt;stroke-linejoin:miter;stroke-opacity:1"
     d="m 144.64663,64.43047 c -1.23715,1.48227 -1.55732,3.4842 -2.64013,5.07291 -0.52398,0.9323 -1.49377,1.96258 0.18822,1.17229 2.21344,-0.38879 4.37471,-1.88667 6.35262,-0.72778 1.71214,-0.006 3.38893,-0.23274 5.07258,-0.53828 1.87282,-0.14053 3.59984,1.05991 5.4839,0.72072 1.78728,0.26612 3.23164,2.36799 5.1512,1.50291 1.45751,-1.27738 3.49002,-0.5608 5.13737,-0.0329 1.42822,-0.13459 2.56267,2.63356 3.38669,2.07352 -0.12584,-1.603 -1.03844,-2.96669 -2.18383,-4.02183 -1.1485,-1.83355 -1.30249,-4.4934 -3.39612,-5.59367 -1.97539,-0.78278 -4.16493,-0.63478 -6.17006,-1.2996 -2.05297,-2.00237 -5.19787,-1.29396 -7.65888,-0.60661 -1.61986,1.04123 -3.57227,1.30726 -5.3389,1.99742 -1.10977,0.34141 -2.26674,0.0643 -3.38466,0.28093 z" />
  <path
     id="path68"
     style="fill:#e9c6af;fill-opacity:1;stroke:#e9c6af;stroke-width:0.264583px;stroke-linecap:butt;stroke-linejoin:miter;stroke-opacity:1"
     d="m 156.52847,41.82679 c -1.35535,1.20944 -0.95412,3.18255 -1.66336,4.70497 -0.96523,2.18695 -1.484,4.53485 -2.51713,6.69454 -0.79278,1.95003 -1.94101,3.83189 -2.1761,5.95454 0.1248,1.25164 1.74306,1.42492 2.43693,2.34202 0.93499,0.5392 1.51615,2.19423 2.85241,1.64335 1.38402,-0.52115 2.52463,-1.57014 4.02412,-1.82255 1.30177,-0.58545 3.51595,-0.56089 3.81858,-2.2816 0.49127,-2.67546 -2.09988,-4.58715 -2.19218,-7.17415 -0.42908,-3.00022 -0.61906,-6.03696 -0.49153,-9.06458 0.0646,-1.10376 -0.84011,-2.37953 -2.01008,-2.34894 -0.81864,0.19372 -1.71412,0.52083 -2.08166,1.3524 z" />
  <path
     id="path90"
     style="fill:#f9f9f9;stroke:#f9f9f9;stroke-width:0.264583px;stroke-linecap:butt;stroke-linejoin:miter;stroke-opacity:1"
     d="m 164.48556,44.97679 c 0.3031,-0.80786 1.04303,-1.33614 1.82247,-1.63349 0.66635,-0.36651 1.38868,-0.75332 2.17789,-0.62185 1.04758,0.13354 2.03282,0.57317 3.09268,0.64758 1.19779,0.13018 2.51072,0.34935 3.38507,1.25314 0.35392,0.50852 -0.0437,1.27253 -0.60662,1.44048 -1.15525,0.46704 -2.44061,0.33869 -3.65344,0.25524 -1.07203,-0.12313 -2.14794,-0.21277 -3.22605,-0.23855 -1.0772,-0.12827 -1.96102,-0.82726 -2.992,-1.10255 z" />
  <path
     id="path104"
     style="fill:#f9f9f9;fill-opacity:1;stroke:#f9f9f9;stroke-width:0.264583px;stroke-linecap:butt;stroke-linejoin:miter;stroke-opacity:1"
     d="m 143.87334,43.49053 c 0.72292,-0.85214 1.73554,-1.54203 2.88243,-1.58386 0.41431,-0.0789 0.77406,-0.34278 1.21006,-0.34138 1.17985,-0.0637 2.38317,0.2832 3.36957,0.9283 0.63733,0.41892 1.21013,1.15244 1.00449,1.9583 -0.0562,0.54615 -0.58753,0.75192 -1.05906,0.80506 -1.83705,0.25742 -3.70958,0.12154 -5.53551,-0.15834 -0.58425,-0.12811 -1.21781,-0.21972 -1.71596,-0.57092 -0.34168,-0.25986 -0.1831,-0.68608 -0.15602,-1.03716 z" />
  <path
     id="path118"
     style="fill:#786721;stroke:#786721;stroke-width:0.264583px;stroke-linecap:butt;stroke-linejoin:miter;stroke-opacity:1"
     d="m 168.27581,44.51095 c 0.14405,0.47981 0.24052,1.06296 0.70653,1.34256 0.43117,0.21633 0.94027,0.16434 1.40131,0.0969 0.66626,-0.14204 1.32909,-0.42143 1.82638,-0.89721 0.3002,-0.27959 0.43051,-0.75546 0.19836,-1.11944 -0.1572,-0.35067 -0.5603,-0.3774 -0.85507,-0.54665 -0.36287,-0.24517 -0.56738,-0.69997 -0.98753,-0.86225 -0.41274,-0.1116 -0.85242,-0.0906 -1.27185,-0.0324 -0.44335,0.0768 -0.8517,0.39041 -0.96112,0.83964 -0.11716,0.38122 -0.0962,0.7872 -0.057,1.17884 z" />
  <path
     id="path124"
     style="fill:#786721;fill-opacity:1;stroke:#786721;stroke-width:0.264583px;stroke-linecap:butt;stroke-linejoin:miter;stroke-opacity:1"
     d="m 146.88051,42.98031 c 0.18888,0.68363 0.53759,1.47533 1.29064,1.66964 0.48297,0.12498 1.02505,0.13804 1.48672,-0.0642 0.25206,-0.24315 0.29077,-0.63726 0.58971,-0.85174 0.32174,-0.32984 0.71296,-0.8053 0.47984,-1.28568 -0.25987,-0.42102 -0.81326,-0.49839 -1.12139,-0.88398 -0.39835,-0.38737 -1.00435,-0.64212 -1.54401,-0.40002 -0.46666,0.17965 -0.81914,0.55144 -1.24581,0.80135 -0.45549,0.19583 -0.167,0.5847 -0.002,0.88046 0.0229,0.0444 0.0453,0.089 0.0667,0.13416 z" />
  <path
     id="path131"
     style="fill:#483e37;fill-opacity:1;stroke:#483e37;stroke-width:0.264583px;stroke-linecap:butt;stroke-linejoin:miter;stroke-opacity:1"
     d="m 162.06427,36.45847 c 0.65979,0.29659 -0.38661,1.70134 0.9905,0.73324 2.21991,-1.34576 4.72689,-0.7762 7.04047,-0.18092 1.10811,0.0653 3.67146,1.27107 3.77758,0.88056 -1.58572,-1.34991 -3.7397,-1.66965 -5.63294,-2.40555 -2.06503,-0.54886 -4.4699,-0.45525 -6.17561,0.97267 z" />
  <path
     id="path142"
     style="fill:#483e37;fill-opacity:1;stroke:#483e37;stroke-width:0.264583px;stroke-linecap:butt;stroke-linejoin:miter;stroke-opacity:1"
     d="m 152.82316,36.48361 c -1.03879,-0.72828 -2.02512,-1.70353 -3.36124,-1.80134 -1.49841,-0.23835 -3.05972,-0.41313 -4.55715,-0.0951 -0.91365,0.28046 -1.64817,0.93292 -2.30313,1.6034 0.73857,0.12334 1.60794,-0.45169 2.42202,-0.52816 0.76503,-0.22839 1.47007,-0.75307 2.31117,-0.51146 0.83444,0.0198 1.74596,-0.16596 2.48301,0.34795 0.89736,0.27111 1.4626,1.16702 2.21527,1.53099 0.32782,-0.0653 0.54159,-0.34929 0.79005,-0.54624 z" />
  <path
     id="path161"
     style="fill:#cccccc;fill-opacity:1;stroke:#cccccc;stroke-width:0.264583px;stroke-linecap:butt;stroke-linejoin:miter;stroke-opacity:1"
     d="m 135.12297,43.37961 c -0.20199,0.42469 -0.27374,0.95091 -0.0209,1.37153 0.15204,0.26642 0.256,0.65533 0.61692,0.68841 0.92815,0.0885 1.8104,-0.31308 2.7232,-0.39509 0.42608,-0.0176 0.86297,0.011 1.25679,0.18788 0.19667,0.0449 0.80594,0.31638 0.58579,-0.0761 -0.29209,-0.39682 -0.54563,-0.82915 -0.90764,-1.16936 -0.68914,-0.26643 -1.40264,0.0614 -2.06249,0.25989 -0.50739,0.16328 -1.13705,0.20823 -1.5539,-0.18553 -0.23613,-0.2044 -0.41342,-0.46556 -0.63772,-0.6816 z" />
  <path
     id="path171"
     style="fill:#cccccc;fill-opacity:1;stroke:#cccccc;stroke-width:0.264583px;stroke-linecap:butt;stroke-linejoin:miter;stroke-opacity:1"
     d="m 141.77818,40.91728 c 1.3444,-1.46242 3.32666,-2.57619 5.36894,-2.12649 1.47425,0.38842 3.24053,0.35347 4.3658,1.51423 0.95337,1.03953 1.67242,2.26441 2.09664,3.58578 0.98538,-0.10154 1.60548,-1.39724 2.62396,-1.69959 1.42439,-0.9714 3.16228,-0.44501 4.64793,0.0829 1.09528,0.87288 -0.48391,2.16728 -1.33946,1.14851 -1.38862,-0.69348 -2.98682,-0.38605 -4.20377,0.49399 -1.40893,0.9113 -1.92703,2.56612 -2.72895,3.94135 -1.18053,1.28929 -2.72345,2.20119 -4.28014,2.95326 -1.20769,0.27936 -2.46916,0.49237 -3.70843,0.41766 -1.45804,-0.47103 -2.97762,-1.30291 -3.64185,-2.76025 -0.7712,-1.27359 -1.53073,-2.63049 -1.66359,-4.14249 0.6034,-1.61581 1.53788,0.0974 1.27111,1.04607 -0.0315,1.69722 1.32139,3.00344 2.60495,3.91684 1.72423,1.15393 3.94476,0.71976 5.80176,0.16998 1.29462,-0.46649 2.79533,-1.2077 3.01865,-2.72788 0.1563,-1.33084 1.17433,-2.70381 0.27142,-3.98774 -0.93363,-1.61096 -2.82796,-2.38778 -4.5699,-2.77859 -1.53749,-0.40851 -3.17275,0.0563 -4.34481,1.11624 -1.18401,0.97076 -2.39897,2.19686 -2.78164,3.68792 0.2958,1.20873 -0.74898,2.45851 -1.36336,0.82136 0.0924,-1.52079 1.06668,-2.81684 1.55623,-4.23276 0.17438,-0.38952 0.64204,-0.39363 0.99851,-0.44027 z" />
  <path
     id="path189"
     style="fill:#cccccc;fill-opacity:1;stroke:#cccccc;stroke-width:0.264583px;stroke-linecap:butt;stroke-linejoin:miter;stroke-opacity:1"
     d="m 174.85706,48.1268 c -1.17577,0.11384 -0.85925,1.75225 -1.78601,2.25213 -1.6247,1.66714 -4.19866,1.75322 -6.3112,1.13311 -1.35988,-0.3065 -2.84892,-0.77376 -3.51823,-2.12476 -0.73277,-1.33585 -0.94837,-2.90481 -0.89554,-4.40346 -0.61774,-1.14685 -2.18801,-1.1048 -3.17971,-1.82104 -1.44287,-0.89644 0.95535,-1.6335 1.52685,-0.61411 0.62792,0.68087 1.5965,0.75434 1.72679,-0.33781 0.58577,-1.31884 2.1026,-1.56374 3.27251,-2.1265 1.4184,-0.61208 3.09125,-0.50217 4.61268,-0.38012 1.63476,0.17377 3.10246,1.05358 4.16425,2.26959 0.57576,0.81467 0.4027,1.91154 0.68913,2.83838 0.31009,1.36877 2.57114,-0.0734 2.72801,1.60764 -0.37326,1.03477 -2.10393,0.19863 -2.98466,0.0523 -1.375,-1.29953 -0.5839,-3.71765 -2.19606,-4.86695 -1.10085,-0.54844 -2.2921,-1.10571 -3.5626,-1.05032 -1.18481,0.0739 -2.34569,0.37849 -3.42364,0.86223 -1.09452,0.15603 -2.54281,0.48475 -2.57839,1.86175 -0.58927,2.61866 0.64747,5.53972 2.91891,6.95506 1.09588,0.2364 2.28924,0.19954 3.4239,0.18648 1.49129,-0.3854 3.20787,-0.92701 3.83984,-2.49144 0.3902,-1.125 0.27083,-2.43864 0.96774,-3.45054 1.2224,-0.34787 1.06187,1.63233 0.77913,2.37696 -0.0743,0.42309 -0.21269,0.8384 -0.2137,1.27141 z" />
  <path
     id="path195"
     style="fill:#d7eef4;stroke:#d7eef4;stroke-width:0.264583px;stroke-linecap:butt;stroke-linejoin:miter;stroke-opacity:1"
     d="m 141.45775,104.69383 c 1.88569,3.8565 1.85255,8.19588 2.46965,12.33581 0.90225,3.55786 0.787,7.32 2.26186,10.74853 2.18744,6.13935 6.40641,11.41225 11.32724,15.59478 2.39833,2.01123 5.28902,-0.38673 6.96018,-2.19128 2.91945,-3.05415 5.57539,-6.39467 9.0361,-8.87413 2.09745,-2.52251 4.54916,-4.64968 6.984,-6.82386 3.87275,-3.90494 7.7979,-8.70191 7.63945,-14.52143 0.10218,-2.60159 0.45602,-6.08281 -2.4619,-7.34196 -3.77274,-1.859 -7.78816,0.0174 -11.48355,1.02985 -2.99935,0.0898 -5.80174,1.17924 -8.73864,1.45545 -3.13953,0.45535 -5.91048,-1.00425 -8.8771,-1.65985 -3.24644,-0.63209 -6.30621,-1.96851 -9.63201,-2.24941 -1.91005,-0.58516 -6.1131,-0.55008 -5.48528,2.4975 z" />
  <path
     id="path201"
     style="fill:#5aa02c;stroke:#5aa02c;stroke-width:0.264583px;stroke-linecap:butt;stroke-linejoin:miter;stroke-opacity:1"
     d="m 158.8599,113.32307 c -1.09339,2.67823 -4.059,4.11815 -4.9015,6.94712 -0.81493,2.64845 -1.27592,5.41138 -2.04358,8.08244 -0.84103,3.19374 -1.15948,6.50467 -0.88593,9.79608 0.37871,1.73233 -0.61749,4.37676 0.14573,5.49647 1.56595,-0.0334 3.10169,-0.45784 4.68303,-0.3549 2.75181,0.0513 5.5458,-0.25713 8.24218,0.41784 1.89296,0.32752 3.80886,0.28053 5.69161,0.55204 1.4812,-1.64185 0.49833,-4.53361 1.20487,-6.64837 0.0585,-4.35715 -0.45778,-8.80132 -2.00857,-12.89264 -0.6556,-2.2059 -3.07125,-2.80914 -4.39636,-4.46001 -1.26687,-1.89718 -2.32583,-3.98285 -2.52064,-6.29279 -0.18035,-2.13297 -2.02334,-1.12194 -3.21084,-0.64328 z" />
  <path
     id="path207"
     style="fill:#447821;fill-opacity:1;stroke:#447821;stroke-width:0.264583px;stroke-linecap:butt;stroke-linejoin:miter;stroke-opacity:1"
     d="m 158.29297,115.91849 c -0.58205,0.81247 -0.39592,1.86233 -0.55109,2.79331 -0.0983,0.91986 -0.24136,1.84295 -0.21726,2.76931 0.24282,0.15283 0.36354,-0.57365 0.5037,-0.76815 0.45308,-1.17762 0.79399,-2.39472 1.19052,-3.59207 0.33263,-1.10485 0.6938,-2.21673 0.80717,-3.36974 0.0682,-0.68224 -0.55198,-0.0344 -0.71934,0.22638 -0.35238,0.46013 -0.80895,0.89284 -0.89564,1.49234 -0.0383,0.1498 -0.0756,0.29995 -0.11806,0.44862 z" />
  <path
     id="path213"
     style="fill:#447821;stroke:#447821;stroke-width:0.264583px;stroke-linecap:butt;stroke-linejoin:miter;stroke-opacity:1"
     d="m 157.28236,107.4889 c -0.615,1.75037 -0.24971,3.63482 -0.52671,5.43918 -0.0744,0.8481 -0.14305,1.724 0.0679,2.55649 0.54319,0.11802 1.14736,-0.33086 1.72465,-0.42981 1.07835,-0.31753 2.20667,-0.8698 3.34887,-0.54984 0.56806,0.0594 -0.2407,1.38241 0.36469,0.59921 1.19424,-1.62165 1.53298,-3.65027 2.25913,-5.4852 0.46454,-1.08861 1.15299,-2.27361 0.80935,-3.49246 -0.23638,-0.8512 -1.17308,-0.4182 -1.68122,-0.1058 -0.90461,0.45169 -1.96132,0.33175 -2.94174,0.37384 -0.99872,-0.006 -1.99886,-0.057 -2.99658,0.0112 -0.47563,0.10594 -0.42041,0.71542 -0.42829,1.08322 z" />
  <path
     id="path229"
     style="fill:#214478;stroke:#214478;stroke-width:0.264583px;stroke-linecap:butt;stroke-linejoin:miter;stroke-opacity:1"
     d="m 145.47552,109.10827 c -0.19,3.43178 1.1688,6.76182 0.70644,10.21435 0.0817,3.28688 1.62314,6.25644 3.06022,9.1196 1.77937,2.62985 2.99806,5.57965 5.08615,8.00077 1.36093,2.20811 3.42891,3.82608 4.90524,5.92466 0.92959,2.12567 2.29176,6.6255 -1.62478,6.05669 -1.62478,1.11439 -2.71349,2.37555 -4.93146,1.62181 -2.82354,-0.6169 -5.88477,1.19937 -8.52059,-0.36193 -2.02273,-1.87691 -1.15479,-5.0001 -1.89393,-7.41799 -0.4301,-3.04099 -2.1436,-5.74984 -2.34371,-8.85477 -0.91284,-5.4477 -0.27777,-11.01639 -1.30655,-16.44803 -0.20255,-4.34073 0.0912,-8.76883 -1.02765,-13.01799 2.55994,-0.77069 4.43877,2.69686 6.43812,4.03647 0.4628,0.40182 0.94281,0.78546 1.4525,1.12636 z" />
  <path
     id="path239"
     style="fill:#162d50;stroke:#162d50;stroke-width:0.264583px;stroke-linecap:butt;stroke-linejoin:miter;stroke-opacity:1"
     d="m 146.92981,108.73115 c -0.39916,3.1306 1.375,6.08018 0.97034,9.21861 0.21775,2.19451 1.45288,4.14689 1.55283,6.37816 0.49291,2.91288 2.22997,5.3826 3.50652,7.98068 1.01721,1.88093 2.91648,3.00102 3.92893,4.86859 1.56577,1.99161 2.66465,4.42513 2.3504,7.01529 -0.52897,1.70059 1.26303,4.25592 -0.26655,5.36186 -0.76717,-2.56696 -2.04645,-5.20447 -1.65511,-7.97401 -0.94837,-2.0026 -3.45307,-2.65904 -4.47327,-4.6786 -1.2538,-2.05346 -2.34103,-4.20226 -3.79716,-6.13218 -2.6716,-4.32757 -4.45988,-9.26748 -4.59727,-14.38554 -0.003,-2.30537 -0.88007,-4.53272 -0.71928,-6.83091 -0.007,-2.18339 2.41937,-3.48984 3.19962,-0.82195 z" />
  <path
     id="path223"
     style="fill:#214478;stroke:#214478;stroke-width:0.264583px;stroke-linecap:butt;stroke-linejoin:miter;stroke-opacity:1"
     d="m 187.47731,99.72481 c -0.47235,3.25484 -2.5808,5.9792 -4.17104,8.77013 -2.7102,4.25274 -7.14434,6.87677 -10.39064,10.63098 -2.88228,1.69938 -3.58714,4.98082 -5.09609,7.68418 -1.98543,2.9293 -3.11015,6.42523 -5.70876,8.94013 -1.8134,2.3507 -4.98141,3.84282 -5.36938,7.0772 -1.02624,2.88003 0.075,6.02525 3.5903,4.65111 3.0824,-0.95364 5.46537,2.20842 8.63181,0.48093 2.81469,-0.65337 5.53579,-1.59084 8.31898,-2.33108 2.46219,-0.21055 5.61306,0.69582 7.31857,-1.70367 2.33989,-2.75791 2.07325,-6.58408 3.05914,-9.88315 0.90665,-3.72223 0.83064,-7.55886 0.46141,-11.3409 -0.0918,-5.4074 1.0389,-10.784 0.51877,-16.18629 0.0742,-2.32651 0.046,-4.71855 -1.16307,-6.78957 z" />
  <path
     id="path249"
     style="fill:#162d50;stroke:#162d50;stroke-width:0.264583px;stroke-linecap:butt;stroke-linejoin:miter;stroke-opacity:1"
     d="m 187.32944,98.48254 c 3.66821,0.99636 0.56894,5.68648 -0.52848,7.90519 -1.88102,3.07061 -4.40353,5.67715 -6.60038,8.52825 -3.06437,2.68089 -5.91855,5.59126 -9.01025,8.21714 -1.95103,2.82249 -2.64355,6.33533 -4.83887,8.98403 -2.01993,3.37775 -4.58183,6.46323 -7.61325,9.01091 -1.81557,2.3293 -1.07528,5.51657 -1.58897,8.21841 -0.002,4.7452 -5.36719,1.26689 -3.19548,-1.84361 0.60626,-3.08982 0.83891,-6.52753 3.17294,-8.91187 2.57843,-4.83931 5.31212,-9.70959 9.30751,-13.53496 2.33126,-3.21666 4.90519,-6.23191 7.90402,-8.84358 2.34598,-2.29971 2.99597,-5.8333 5.70118,-7.82781 1.47105,-2.25569 3.11264,-4.37164 4.67392,-6.55001 0.73074,-1.21372 1.45686,-2.49098 2.61611,-3.35209 z" />
  <path
     id="path255"
     style="fill:#afdde9;stroke:#afdde9;stroke-width:0.264583px;stroke-linecap:butt;stroke-linejoin:miter;stroke-opacity:1"
     d="m 140.79223,86.304 c -0.78218,2.86485 1.78776,5.03366 3.42462,7.00014 2.14434,2.42119 5.14372,3.76737 7.61973,5.77491 1.70391,1.86434 3.61731,3.60512 6.02646,4.47538 1.00778,1.48348 2.96713,0.98589 4.1085,1.80824 -1.12959,1.64284 -3.65925,1.83197 -4.5184,3.80953 -1.33904,2.07637 -3.26918,3.60198 -5.23596,5.02117 -1.96231,1.37326 -4.38844,2.81669 -6.86606,2.21495 -2.48311,-1.27894 -3.06407,-4.42576 -4.89767,-6.37702 -2.09835,-2.95021 -3.62619,-6.38814 -4.27761,-9.96108 -0.45979,-3.05195 0.508,-6.15122 2.28,-8.63268 0.99252,-1.62058 1.3858,-3.497 2.33639,-5.13354 z" />
  <path
     id="path261"
     style="fill:#afdde9;stroke:#afdde9;stroke-width:0.264583px;stroke-linecap:butt;stroke-linejoin:miter;stroke-opacity:1"
     d="m 184.6427,87.65717 c -0.88997,2.65802 -2.7894,4.95934 -5.22074,6.33818 -1.70592,1.5939 -3.6697,2.82695 -5.82998,3.70723 -3.36486,1.50239 -6.38838,3.65799 -8.97744,6.27091 -0.5679,0.9878 -3.8285,1.3748 -1.65367,2.5241 2.68134,1.48368 3.18778,4.85036 5.47831,6.72504 1.50289,1.25632 2.87088,3.32929 5.0108,3.32518 2.11922,0.0892 3.06045,-2.05235 4.38494,-3.30074 2.41799,-2.35615 3.49277,-5.69602 5.73778,-8.18712 1.00209,-1.7388 2.75708,-2.98291 3.29068,-4.98186 1.21158,-1.99076 0.37886,-4.11652 -0.50026,-6.01923 -0.6989,-2.10416 -0.64505,-4.41253 -1.72042,-6.40169 z" />
  <path
     id="path267"
     style="fill:#d7eef4;fill-opacity:1;stroke:#d7eef4;stroke-width:0.264583px;stroke-linecap:butt;stroke-linejoin:miter;stroke-opacity:1"
     d="m 158.04648,143.24814 c -0.14815,0.44232 -0.26788,0.94558 -0.0509,1.38747 0.14996,0.42054 0.24414,0.94342 0.68425,1.16255 0.53366,0.28111 1.15027,0.38228 1.74869,0.38476 0.29992,-0.009 0.64163,-0.0783 0.79576,-0.36888 0.17323,-0.34637 0.38277,-0.69346 0.43434,-1.08384 0.0898,-0.89694 -0.49984,-1.73184 -1.2377,-2.18627 -0.52392,-0.31836 -1.25614,-0.45947 -1.78395,-0.0746 -0.25635,0.20712 -0.3875,0.52621 -0.59048,0.77883 z" />
  <path
     id="path273"
     style="fill:#162d50;fill-opacity:1;stroke:#162d50;stroke-width:0.264583px;stroke-linecap:butt;stroke-linejoin:miter;stroke-opacity:1"
     d="m 188.83301,93.26951 c 0.95974,2.02894 5.74586,4.3146 9.15747,5.31149 6.84815,2.82226 13.64998,5.84059 20.87615,7.57134 4.01601,1.28102 8.06247,2.46351 12.09686,3.61509 5.02698,2.01604 5.93979,8.35094 4.56616,13.00769 -1.46513,8.62854 -3.82567,17.11792 -6.78709,25.3344 -3.3106,1.82548 -7.59441,-0.0975 -11.32802,0.37702 -7.08602,-0.71885 -14.363,-1.97528 -21.34993,0.12019 -3.90029,0.85201 -8.0276,1.65454 -11.95887,0.52017 -0.22649,-3.51701 0.93471,-6.9776 0.82485,-10.51609 0.36252,-7.55387 0.9725,-15.08332 1.83422,-22.59652 0.42819,-5.29591 0.0221,-10.62038 1.13929,-15.85684 0.24788,-2.29942 0.9029,-4.5731 0.92891,-6.88794 z" />
  <path
     id="path283"
     style="fill:#162d50;fill-opacity:1;stroke:#162d50;stroke-width:0.264583px;stroke-linecap:butt;stroke-linejoin:miter;stroke-opacity:1"
     d="m 134.33419,95.84275 c -4.58532,4.0388 -11.03669,3.76141 -16.35317,6.22572 -5.21899,1.94257 -10.26592,4.39235 -15.86868,5.054 -4.359566,1.17305 -8.962016,2.23821 -12.885164,4.46767 -2.460893,3.48564 -1.671489,8.23486 -1.694533,12.29437 0.604118,5.96601 0.263596,11.94617 -0.33639,17.8888 -0.620189,4.32292 4.000151,5.58483 7.375791,4.95885 3.90664,-0.016 6.804856,4.6541 10.995546,2.08766 4.69179,-2.24023 9.38319,-0.0326 14.13793,0.0881 4.31333,-0.11551 8.50415,-2.82944 12.81267,-1.0693 3.37743,1.23037 7.28625,2.45991 10.74242,0.81281 2.67278,-3.20325 -0.97755,-7.07365 -1.21797,-10.55643 -0.59239,-4.80672 0.10037,-9.75845 -1.3918,-14.4615 -1.12786,-5.81709 -2.55781,-11.56861 -4.72596,-17.09054 -1.42362,-3.45756 0.31352,-7.4169 -1.59069,-10.70016 z" />
  <path
     id="path289"
     style="fill:#00112b;fill-opacity:1;stroke:#00112b;stroke-width:0.264583px;stroke-linecap:butt;stroke-linejoin:miter;stroke-opacity:1"
     d="m 220.09647,150.72486 c 1.19571,-2.41354 1.28554,-5.24873 2.8595,-7.51119 1.73844,-3.085 1.96575,-6.70312 3.49822,-9.87772 1.03603,-2.4346 1.56009,-5.02251 2.69292,-7.41246 0.98431,-3.17286 2.72934,-6.0835 3.04663,-9.45121 0.43978,-2.0936 0.26321,-5.4865 3.15309,-5.74446 2.13558,0.84387 1.18114,4.07323 2.45655,5.76097 0.7255,2.41637 1.27728,4.87597 1.50407,7.38139 0.52741,3.0859 0.27898,6.31287 1.6039,9.23827 1.23848,2.75106 2.00529,5.73462 3.83987,8.1909 1.96582,3.29455 3.57173,6.85081 4.33076,10.62758 -2.58285,1.63682 -5.43198,-1.67924 -8.20061,-1.76526 -3.52018,-1.08519 -7.28705,-0.7018 -10.65364,0.69811 -2.76778,1.11024 -5.90583,1.30467 -8.67103,0.0636 -0.47167,-0.14085 -0.96539,-0.23649 -1.46023,-0.1985 z" />
  <path
     id="path295"
     style="fill:#00112b;fill-opacity:1;stroke:#00112b;stroke-width:0.264583px;stroke-linecap:butt;stroke-linejoin:miter;stroke-opacity:1"
     d="m 90.457998,115.98505 c -0.50034,-1.8926 1.387086,-5.91512 -2.272999,-5.23596 -2.966035,0.2372 -4.105704,3.16709 -5.066032,5.5256 -1.093036,2.46578 -1.720648,5.09123 -2.825981,7.55876 -0.812971,3.04542 -2.587029,5.69267 -3.766856,8.60494 -2.005208,3.68618 -3.039864,7.77702 -4.809185,11.56765 -0.864995,2.37777 -2.582087,4.41565 -3.302255,6.78713 1.319399,2.06606 4.742448,0.56095 6.886857,0.45489 3.402399,-0.64534 6.863387,-1.94488 10.33756,-0.9438 3.352209,0.40007 6.865497,1.12261 10.181647,0.1702 2.55024,-1.33927 0.81343,-4.55195 0.26693,-6.55833 -0.86331,-3.00592 -3.02744,-5.52307 -3.48003,-8.68826 -1.14755,-4.72095 -1.1545,-9.62405 -2.068278,-14.38375 -0.142489,-1.61547 -0.124346,-3.2396 -0.08138,-4.85907 z" />
  <path
     id="path305"
     style="fill:#00112b;fill-opacity:1;stroke:#00112b;stroke-width:0.264583px;stroke-linecap:butt;stroke-linejoin:miter;stroke-opacity:1"
     d="m 138.42592,86.61457 c 3.11929,-2.82806 2.47654,2.30076 1.02944,3.81743 -0.9455,5.50797 0.42797,11.12448 -0.36077,16.66949 -0.5226,5.07328 1.39342,9.8578 2.50897,14.69557 1.11454,8.144 2.86832,16.20349 3.75484,24.38964 1.44574,3.27057 1.36426,8.08823 -3.50506,5.76826 -4.1433,-1.42138 -8.43981,-1.18721 -12.49442,0.3604 -3.72996,0.99244 -7.5845,0.27843 -11.32998,1.08708 -4.85071,0.0385 -3.82645,-6.65249 -5.79473,-9.74381 -2.3876,-5.02219 -3.42222,-10.61764 -5.26061,-15.78576 3.46714,-2.12802 8.00272,-2.64069 12.11818,-2.86274 1.79991,-0.48536 6.37685,0.18436 6.64586,-1.27436 -4.14008,-0.98677 -8.24768,-2.34837 -12.24641,-3.6619 -5.51548,0.55706 2.42181,-4.10217 3.29643,-6.15907 4.84438,-4.85038 8.6867,-10.543 12.53186,-16.18413 3.04994,-2.22058 5.63952,-5.17591 6.74268,-8.84501 0.48179,-1.00418 1.28153,-1.90658 2.36372,-2.27109 z" />
  <path
     id="path315"
     style="fill:#00112b;stroke:#00112b;stroke-width:0.264583px;stroke-linecap:butt;stroke-linejoin:miter;stroke-opacity:1"
     d="m 182.10384,132.51149 c 1.05531,-4.87322 1.11853,-9.90518 2.06359,-14.80784 0.83959,-5.68225 1.26035,-11.42959 0.91904,-17.15725 1.49499,-4.68981 -2.00847,-9.14738 -1.13359,-13.48414 3.08866,0.44524 3.5975,5.58333 7.08794,6.44737 4.81228,1.79207 6.3009,7.07117 7.39999,11.56009 1.33973,4.35028 3.87869,8.24311 5.02099,12.66574 2.85626,3.70325 -2.85948,-0.77402 -4.43919,1.1632 -1.6616,0.71645 -6.08353,1.47114 -1.802,1.54058 5.69971,1.66047 11.61706,3.05511 16.70074,6.23907 3.20945,2.56765 0.23465,6.34058 -0.0825,9.45803 -1.25362,5.09685 -4.94069,9.29962 -5.42968,14.64881 -2.79433,1.74338 -7.78127,-0.51602 -11.48716,0.55878 -4.73819,0.46549 -9.42453,1.5621 -13.975,2.9395 -2.69363,-0.15318 0.0504,-5.72684 -0.95132,-8.20814 0.0243,-3.77005 1.03389,-7.54262 -0.0399,-11.27033 -0.073,-0.76465 -0.0579,-1.54827 0.148,-2.29347 z" />
</svg>
