<?xml version="1.0" encoding="UTF-8" standalone="no"?>
<svg
   xmlns:dc="http://purl.org/dc/elements/1.1/"
   xmlns:cc="http://creativecommons.org/ns#"
   xmlns:rdf="http://www.w3.org/1999/02/22-rdf-syntax-ns#"
   xmlns:svg="http://www.w3.org/2000/svg"
   xmlns="http://www.w3.org/2000/svg"
   xmlns:sodipodi="http://sodipodi.sourceforge.net/DTD/sodipodi-0.dtd"
   xmlns:inkscape="http://www.inkscape.org/namespaces/inkscape"
   width="1200"
   height="600"
   viewBox="0 0 317.5 158.75"
   version="1.1"
   id="svg8"
   sodipodi:docname="ul-orange-man-bad.svg"
   inkscape:version="1.0.1 (3bc2e813f5, 2020-09-07)">
  <sodipodi:namedview
     pagecolor="#ffffff"
     bordercolor="#666666"
     borderopacity="1"
     objecttolerance="10"
     gridtolerance="10"
     guidetolerance="10"
     inkscape:pageopacity="0"
     inkscape:pageshadow="2"
     inkscape:window-width="1920"
     inkscape:window-height="1061"
     id="namedview50"
     showgrid="false"
     inkscape:zoom="1.4"
     inkscape:cx="600"
     inkscape:cy="300"
     inkscape:window-x="0"
     inkscape:window-y="19"
     inkscape:window-maximized="0"
     inkscape:current-layer="svg8" />
  <defs
     id="defs2" />
  <metadata
     id="metadata5">
    <rdf:RDF>
      <cc:Work
         rdf:about="">
        <dc:format>image/svg+xml</dc:format>
        <dc:type
           rdf:resource="http://purl.org/dc/dcmitype/StillImage" />
        <dc:title></dc:title>
      </cc:Work>
    </rdf:RDF>
  </metadata>
  <path
     id="path16"
     style="fill:#ffdd55;fill-opacity:1;stroke:#ffdd55;stroke-width:0.264583px;stroke-linecap:butt;stroke-linejoin:miter;stroke-opacity:1"
     d="m 173.89176,45.31365 c -1.93527,2.41666 -2.37811,5.69633 -4.42921,8.02767 -1.52625,1.03279 -2.73506,2.64338 -3.56674,4.28713 -1.13539,2.06394 -2.85646,3.7791 -4.6308,5.29678 -1.71384,1.40344 -2.44956,3.65332 -3.17374,5.67491 -0.46289,1.7538 -1.02182,3.59367 -0.76051,5.42246 1.14159,1.40225 1.654,3.16636 2.88179,4.54499 0.74234,1.54321 1.84429,2.81812 2.85879,4.15995 1.63183,1.17011 2.04762,3.56653 3.94965,4.39365 1.51971,-0.44101 2.07297,-2.35758 2.96953,-3.55258 1.63907,-2.79267 2.89872,-5.85265 5.20191,-8.19842 1.69133,-1.84875 3.50037,-3.69785 4.3304,-6.1243 1.11964,-2.97621 1.88593,-6.36367 0.91,-9.48343 -1.03854,-2.53692 -2.75309,-4.75846 -3.49891,-7.42565 -0.60472,-1.27097 -0.71325,-2.69269 -1.17279,-4.00051 -0.99043,-0.79729 -1.13373,-2.05255 -1.86937,-3.02265 z" />
  <path
     id="path21"
     style="fill:#ff7f2a;fill-opacity:1;stroke:#ff7f2a;stroke-width:0.264583px;stroke-linecap:butt;stroke-linejoin:miter;stroke-opacity:1"
     d="m 169.46255,53.34132 c -3.77423,6.97785 -3.10859,15.19532 -4.99124,22.71583 -0.67452,5.57891 -2.97477,10.91474 -2.94932,16.56857 0.64362,4.38803 3.98903,7.74638 5.87489,11.66513 2.48985,3.60729 5.07625,7.20245 8.03493,10.43069 2.75785,2.09094 5.25125,4.52733 8.51058,5.7939 2.16837,1.44809 5.61157,2.59758 4.67228,-1.49083 -0.0598,-4.57107 1.2522,-9.13783 0.36008,-13.72376 -0.63936,-7.47754 0.41854,-15.12831 -1.71827,-22.45334 -1.05907,-4.38659 -1.78321,-8.93988 -4.28268,-12.79467 -2.11097,-4.31193 -4.56984,-8.73396 -8.78332,-11.31801 -1.79946,-1.60042 -2.74086,-3.97996 -4.72793,-5.39351 z" />
  <path
     id="path47"
     style="fill:#f9f2ec;fill-opacity:1;stroke:#f9f2ec;stroke-width:0.264583px;stroke-linecap:butt;stroke-linejoin:miter;stroke-opacity:1"
     d="m 160.38414,150.35084 c 3.4402,-3.73445 8.00696,0.9409 12.05728,0.32328 5.55847,0.11339 10.83535,-1.90746 16.35251,-2.25676 3.71125,-1.30762 7.38389,0.0248 10.89398,1.26475 6.00786,1.70366 12.28831,1.03885 18.42352,1.5037 5.03992,1.68187 2.84956,-3.99813 2.03955,-6.65741 -1.78733,-4.65527 -3.22727,-9.64726 -6.63992,-13.41142 -2.66146,-1.97759 -6.53113,-1.2951 -9.5521,-0.52017 -4.62703,2.54677 -10.16712,1.4627 -14.72046,-0.67479 -4.60499,-1.53195 -9.32179,-2.68714 -13.6985,-4.84632 -4.76664,-1.67801 -8.32032,-5.77628 -13.38468,-6.80884 -3.27178,-1.80181 -7.76091,0.29233 -7.12903,4.38168 0.41921,5.29822 3.57588,9.86877 4.50397,15.0642 1.56504,3.83319 0.73883,8.13158 0.99344,12.14637 z" />
  <path
     id="path31"
     style="fill:#526fbf;fill-opacity:1;stroke:#526fbf;stroke-width:0.264583px;stroke-linecap:butt;stroke-linejoin:miter;stroke-opacity:1"
     d="m 194.72012,135.73216 c -0.31612,3.11401 -1.90737,5.95298 -2.06741,9.09693 -0.16693,1.33158 -0.89817,2.51601 -0.92779,3.87634 -0.3097,0.96886 -0.34067,3.73104 1.23222,2.45889 0.58921,-1.17164 1.88655,-0.82331 1.97364,0.45335 0.0378,1.07008 1.2885,2.16823 2.14327,1.08683 1.2364,-1.07405 3.08788,-0.95669 4.41051,-0.10557 0.94404,0.41902 3.03565,2.35668 3.33946,0.40952 -0.12597,-1.50527 -0.78383,-3.01196 -0.29892,-4.52663 0.36728,-1.49573 0.1033,-3.00868 -0.3379,-4.44948 -0.30851,-1.40775 0.17191,-2.94038 -0.59813,-4.24413 -0.65307,-0.94601 -0.52857,-2.19191 -1.1802,-3.11956 -1.23198,-1.1727 -3.02174,-0.54616 -4.51807,-0.52302 -1.16721,0.40286 -1.72331,-1.74172 -2.79777,-0.72666 l -0.18957,0.15357 -0.18365,0.15962 z" />
  <path
     id="path37"
     style="fill:#16248d;fill-opacity:1;stroke:#16248d;stroke-width:0.264583px;stroke-linecap:butt;stroke-linejoin:miter;stroke-opacity:1"
     d="m 200.51263,137.26279 c 0.16378,1.16486 -0.35045,2.28763 -0.85536,3.30508 -0.44638,0.7775 -0.93445,1.63023 -0.78296,2.5637 0.10418,0.73998 0.36943,1.44648 0.55035,2.16803 0.52143,1.06631 2.0564,1.55614 3.04881,0.83835 0.85863,-0.61665 0.9087,-1.83241 0.61793,-2.7615 -0.483,-1.63694 -1.55425,-3.00424 -2.2417,-4.54886 -0.18103,-0.50488 -0.22294,-1.04393 -0.33707,-1.5648 z" />
  <path
     id="path61"
     style="fill:#334899;fill-opacity:1;stroke:#334899;stroke-width:0.264583px;stroke-linecap:butt;stroke-linejoin:miter;stroke-opacity:1"
     d="m 183.03652,127.56876 c 1.3369,1.6466 3.30707,2.65458 4.52702,4.42154 0.98122,1.3679 1.94735,2.72859 2.92998,4.09417 0.98847,1.31172 2.01821,3.17338 3.26644,3.92479 1.24534,-0.82722 2.64166,-1.36466 4.15866,-1.20611 1.88871,-0.59706 3.6765,0.81362 5.43397,0.55572 0.76657,-1.27047 0.85603,-3.13172 2.40368,-3.8249 0.58715,-0.14976 1.50414,-1.20393 1.09104,-0.96762 1.38384,-1.02917 1.03433,-2.93654 0.78669,-4.4067 -0.47804,-1.81538 -1.32654,-3.74702 -2.94793,-4.80439 -1.59938,-0.77825 -3.42086,-0.93519 -5.02172,-1.72993 -1.70605,-0.80035 -3.61152,-0.72675 -5.4425,-0.88562 -1.7576,0.0479 -3.01123,1.48665 -4.4638,2.29624 -1.41693,0.94086 -2.96696,1.86012 -4.7389,1.72558 -0.72254,0.0422 -1.49444,0.23088 -1.98263,0.80723 z" />
  <path
     id="path67"
     style="fill:#d1c7bd;fill-opacity:1;stroke:#d1c7bd;stroke-width:0.264583px;stroke-linecap:butt;stroke-linejoin:miter;stroke-opacity:1"
     d="m 161.00037,86.70739 c 2.6287,-0.16363 1.44063,4.86251 3.88541,6.1412 2.81142,2.88964 4.84625,6.34358 7.59535,9.28624 3.30599,4.18572 8.12392,6.71561 12.41566,9.72787 3.30995,1.38836 6.16038,3.49591 8.63163,6.11318 2.28558,1.70069 4.22675,5.57166 0.008,5.98412 -4.03117,2.51924 -7.12223,6.32525 -11.52383,8.32325 -4.78355,3.00307 -8.68429,7.27156 -13.6415,9.99594 -2.16911,-4.10408 -4.29763,-8.24946 -6.87108,-12.13958 -3.39387,-5.21114 -5.64521,-11.02748 -8.77731,-16.38614 -0.51746,-3.40182 -5.02971,-7.04905 -3.19453,-10.10032 4.56483,-3.35664 7.1946,-8.47578 9.82537,-13.34543 0.71825,-1.0677 2.08217,-2.15174 1.64673,-3.60033 z" />
  <path
     id="path73"
     style="fill:#d1c7bd;fill-opacity:1;stroke:#d1c7bd;stroke-width:0.264583px;stroke-linecap:butt;stroke-linejoin:miter;stroke-opacity:1"
     d="m 199.45271,121.40184 c 0.95158,4.14205 2.97115,7.93816 5.48969,11.33167 1.26552,1.72236 2.10349,3.68934 2.87382,5.66075 1.74325,3.36558 2.7726,7.02527 4.08345,10.56625 0.42801,1.63258 1.5359,3.0346 1.72941,4.74564 0.54959,1.7829 1.34645,0.49448 0.95168,-0.68431 -0.15413,-3.82509 -0.593,-7.71437 -1.91954,-11.32014 -1.96584,-3.67974 -1.33956,-7.96989 -0.83028,-11.92167 0.64477,-2.68351 0.95272,-5.44607 1.75351,-8.07286 -0.0372,-1.4521 -2.67068,0.2206 -3.80315,-0.009 -2.32972,0.16593 -4.61463,-0.55668 -6.94641,-0.60917 -0.765,0.27112 -3.97411,-1.502 -3.38218,0.31315 z" />
  <path
     id="path83"
     style="fill:#ffdd55;fill-opacity:1;stroke:#ffdd55;stroke-width:0.264583px;stroke-linecap:butt;stroke-linejoin:miter;stroke-opacity:1"
     d="m 247.34562,46.11224 c 0.30649,5.62049 -0.3296,11.29511 -1.41419,16.7894 -0.85285,2.61809 -2.07655,5.07881 -3.13051,7.59249 -0.31633,3.21211 -2.60815,5.89142 -2.65376,9.11845 0.61939,3.66017 -0.26144,7.3507 -1.32577,10.8399 2.38175,-1.53256 2.85487,-4.97114 4.37051,-7.31357 0.96484,-3.37895 1.43716,-7.22786 4.04142,-9.79486 0.63087,0.65473 0.22866,3.57504 1.4088,1.0615 2.01035,-2.82912 3.57007,-6.01927 3.75507,-9.53071 1.2667,-3.84683 1.7631,3.93373 3.32221,0.14243 0.95606,-3.28046 1.67825,-6.81644 1.39881,-10.22196 -1.09523,-3.07366 1.14086,-5.9188 0.40492,-8.95685 -0.76316,-3.56796 -2.33598,-6.9199 -4.86097,-9.58717 -0.86675,-2.38537 -4.03323,-5.38349 -4.7391,-1.19728 0.006,2.96824 0.66749,5.9141 -0.42912,8.84361 -0.13454,0.73694 0.028,1.4844 -0.14832,2.21462 z" />
  <path
     id="path97"
     style="fill:#ff9955;stroke:#ff9955;stroke-width:0.264583px;stroke-linecap:butt;stroke-linejoin:miter;stroke-opacity:1"
     d="m 194.07924,21.1562 c -7.85566,4.82697 -12.73302,13.34899 -14.25858,22.34249 -3.36282,8.94901 -8.75186,17.54893 -8.30718,27.51847 -0.004,9.28803 -2.55192,18.73853 0.0479,27.94243 0.878,7.08784 8.77173,9.37239 12.14795,14.95291 5.3732,6.16102 12.08658,13.49958 21.12814,12.28503 6.44092,0.0128 13.58865,-2.94553 15.56108,-9.59222 3.42321,-8.70528 11.16028,-14.43517 15.95932,-22.20044 1.08508,-5.50951 3.64876,-10.56925 6.5923,-15.28473 0.56173,-5.80738 1.34751,-11.6511 5.14103,-16.31426 6.84447,-6.45382 5.2555,-16.90104 2.52561,-24.93365 -1.62475,-6.74819 -6.29169,-12.17418 -11.58517,-16.39544 -7.063,-6.55381 -17.37953,-10.73507 -26.94535,-7.90883 -7.07652,-0.0972 -12.36504,4.49463 -18.00707,7.58824 z" />
  <path
     id="path103"
     style="fill:#ff9955;fill-opacity:1;stroke:#ff9955;stroke-width:0.264583px;stroke-linecap:butt;stroke-linejoin:miter;stroke-opacity:1"
     d="m 180.96602,44.38196 c 0.56384,-2.34829 -1.34829,-4.33101 -3.29248,-5.29539 -1.80583,-1.34301 -4.29369,-1.59641 -6.02521,0.0284 -1.62434,0.80773 -2.90027,2.19949 -3.58534,3.86995 -1.00563,1.69198 -1.34985,3.65298 -2.12572,5.44588 -0.98219,3.57764 -0.24774,7.32001 10e-4,10.94782 0.5848,2.75002 1.47382,5.76745 3.80462,7.54842 1.42852,0.75523 3.32841,0.24138 4.75501,-0.2869 1.72042,-1.72302 1.45555,-4.39003 2.62506,-6.41636 1.34878,-2.72751 3.16699,-5.29591 3.61292,-8.37984 0.41794,-2.07751 0.42074,-4.21415 0.095,-6.30199 -0.0131,-0.3901 0.0202,-0.78528 0.13482,-1.16001 z" />
  <path
     id="path109"
     style="fill:#ff7f2a;fill-opacity:1;stroke:#ff7f2a;stroke-width:0.264583px;stroke-linecap:butt;stroke-linejoin:miter;stroke-opacity:1"
     d="m 171.30362,42.20801 c 0.30292,-0.65192 0.83935,-1.13741 1.56113,-1.26863 0.82502,-0.27709 1.78083,-0.7316 2.5762,-0.13086 0.70558,0.35299 0.93288,1.16093 1.51122,1.65346 0.61675,0.80423 0.55716,1.90749 0.56803,2.87118 -0.007,1.17637 -0.26492,2.38896 0.14346,3.52827 0.27759,1.04345 -0.23069,2.09596 -0.17321,3.15192 0.093,-0.70693 -0.23485,-1.69973 -1.13154,-1.2988 -0.91891,0.36014 -1.36652,1.33867 -1.92967,2.08422 -0.17117,0.29821 -0.7022,0.99493 -0.61004,0.2279 0.4084,-1.07694 0.81599,-2.18188 1.55951,-3.0825 0.63333,-0.83936 1.16733,-1.90292 0.84398,-2.97627 -0.26424,-1.45282 -0.47635,-3.01494 -1.39021,-4.22392 -0.69927,-0.93987 -1.97505,-0.82656 -2.91687,-0.37175 -1.01291,-0.67735 -0.75785,1.08691 -1.37493,1.47176 -0.22019,0.12091 0.24828,-0.72262 0.3032,-0.99202 0.13875,-0.22463 0.31029,-0.42662 0.45974,-0.64396 z" />
  <path
     id="path115"
     style="fill:#ffdd55;stroke:#ffdd55;stroke-width:0.264583px;stroke-linecap:butt;stroke-linejoin:miter;stroke-opacity:1"
     d="m 215.37593,17.62908 c -2.50045,2.34296 -5.67821,3.63287 -8.71741,5.02687 -3.03153,1.37884 -6.36054,2.45217 -8.4259,5.27104 -2.66949,3.16083 -4.12986,7.23618 -7.41542,9.90835 -2.57938,2.47695 -5.65539,4.97141 -9.45186,4.79957 -3.32698,0.42924 -6.86689,-1.4348 -9.94333,0.54731 -2.46945,1.37346 -4.32203,3.62865 -6.67757,5.20222 -2.21972,2.3433 1.58605,-4.20539 1.96754,-5.37467 2.48017,-3.77631 4.22274,-8.01303 6.95182,-11.6253 4.81616,-5.61426 9.96828,-10.94868 14.49625,-16.78904 2.86989,-3.94387 8.31254,-3.76978 12.65197,-3.28143 5.03854,1.28156 10.06358,2.85962 14.54691,5.55885 0.20861,0.2241 -0.0857,0.51022 0.017,0.75623 z" />
  <path
     id="path121"
     style="fill:#ffe680;stroke:#ffe680;stroke-width:0.264583px;stroke-linecap:butt;stroke-linejoin:miter;stroke-opacity:1"
     d="m 187.67053,12.26076 c -2.20804,1.67829 -9.27729,8.44225 -2.54229,6.21179 4.94209,-1.33241 10.11123,-4.28274 15.27969,-2.02187 5.33279,1.81421 10.54146,3.99772 15.93037,5.66209 7.77816,3.78885 16.1051,6.67216 23.13696,11.81085 3.91456,3.15088 6.6175,7.54601 10.84629,10.35441 4.3751,3.08582 9.00428,6.51576 10.49699,11.94809 1.9779,6.06889 8.30655,1.27561 6.56089,-3.49399 -0.4277,-5.0005 -1.12171,-10.66775 -5.6098,-13.78352 C 257.45445,35.10884 253.79789,30.65883 250.77892,25.7593 246.71676,21.12482 244.08313,14.93174 238.14319,12.28118 231.77958,9.01469 224.61691,7.90352 217.90644,5.57313 210.89192,4.84773 203.604,2.34735 196.63722,4.61324 c -3.38176,1.93502 -7.33395,3.87691 -8.96669,7.64752 z" />
  <path
     id="path127"
     style="fill:#161c2a;fill-opacity:1;stroke:#161c2a;stroke-width:0.264583px;stroke-linecap:butt;stroke-linejoin:miter;stroke-opacity:1"
     d="m 217.66828,140.16879 c -0.62491,-1.62493 -1.8564,-4.58703 -0.0577,-5.65473 2.1368,0.033 3.20573,2.413 5.19571,2.96463 3.05899,1.6246 6.41049,2.66642 9.31809,4.56925 2.86436,1.02949 5.70344,2.27408 7.97418,4.35411 2.35764,1.36845 4.29681,3.50195 6.96717,4.26213 2.18169,0.90544 5.52128,1.04592 6.40794,3.48021 -1.26003,1.2494 -3.90204,-0.37675 -5.67111,-0.26399 -5.84839,-0.88782 -11.74949,-1.75352 -17.68171,-1.31908 -2.85398,-0.0263 -5.98521,0.8136 -8.635,-0.59232 -2.00276,-1.70892 -1.86446,-4.71193 -2.63953,-7.05059 0.0403,-1.66578 -1.6918,-3.16404 -1.17804,-4.74962 z" />
  <path
     id="path133"
     style="fill:#0b0d1a;fill-opacity:1;stroke:#0b0d1a;stroke-width:0.264583px;stroke-linecap:butt;stroke-linejoin:miter;stroke-opacity:1"
     d="m 211.85113,126.99199 c -0.12576,-1.26332 1.16323,-3.08806 1.83425,-1.03102 0.97127,1.90621 1.98439,3.79401 2.97124,5.68664 0.6419,1.95853 2.1213,3.42829 2.57368,5.46295 0.91699,3.11978 2.29627,6.07862 4.03918,8.82083 0.96311,2.14502 2.65417,3.78467 3.90999,5.71243 0.49969,0.98644 2.99138,2.07605 0.74442,2.11461 -2.30526,0.64736 -4.74635,0.53932 -7.03525,1.29239 -1.90179,0.2782 -1.11276,-2.73448 -2.12381,-3.84709 -0.84848,-2.32408 -1.71473,-4.63388 -2.31888,-7.03707 -1.47292,-3.21958 -1.61598,-7.02678 -3.83251,-9.90199 -1.28741,-1.63786 -1.94795,-3.8342 -1.21063,-5.85677 0.12701,-0.47873 0.28178,-0.94962 0.44832,-1.41591 z" />
  <path
     id="path139"
     style="fill:#161c2a;fill-opacity:1;stroke:#161c2a;stroke-width:0.264583px;stroke-linecap:butt;stroke-linejoin:miter;stroke-opacity:1"
     d="m 143.42567,105.40779 c -8.53823,2.94935 -17.61678,3.65885 -26.5821,3.17345 -10.56391,0.46384 -21.101457,1.51269 -31.582831,2.85804 -5.394359,1.64348 -11.769614,-4.48681 -16.024784,0.31822 -3.60278,5.22714 -8.34067,9.78462 -10.095139,16.10528 -0.757207,4.33947 -7.349583,15.5664 1.49108,13.70056 6.283373,-1.82123 12.028622,0.73879 17.525844,3.52436 14.953222,5.36351 30.48639,-1.28699 45.74451,-0.38464 10.62086,1.46342 21.18107,3.53061 31.87481,4.41406 8.58624,3.04721 8.35405,-7.03591 5.51072,-12.01758 -3.10009,-7.93102 -3.30689,-17.33898 -9.69795,-23.65534 -2.22337,-3.0753 -4.22813,-6.93178 -8.16416,-8.03641 z" />
  <path
     id="path145"
     style="fill:#0b0d1a;fill-opacity:1;stroke:#0b0d1a;stroke-width:0.264583px;stroke-linecap:butt;stroke-linejoin:miter;stroke-opacity:1"
     d="m 157.05654,94.40495 c -3.64955,-1.89355 -7.41339,2.23635 -9.52808,4.86532 -2.3592,1.69758 -3.82366,5.16977 -7.12562,5.12387 -3.3873,0.211 -5.91749,2.86896 -6.13826,6.22683 -1.37185,5.77826 -2.51502,12.00419 -6.57215,16.57599 -1.97732,3.44183 4.09308,5.22607 5.70485,7.96273 1.5745,1.49165 7.97945,4.10741 2.90519,5.14262 -3.13378,0.72469 -5.27357,3.03798 -7.55053,5.07528 -3.13034,3.2089 3.1421,6.97218 6.39756,5.68326 5.91837,-0.0731 11.78535,-1.14556 17.70588,-0.51695 4.55258,0.34102 9.24199,-1.28213 13.63355,0.58583 3.53793,0.38686 -1.18169,-4.28714 -0.86947,-6.11498 -0.79066,-4.4486 -1.43144,-8.92667 -2.94707,-13.20993 -1.56514,-4.36091 -1.68646,-9.13602 -3.9665,-13.23614 -1.72276,-4.25962 -3.76697,-8.43889 -4.64164,-12.97924 -2.63722,-3.63225 0.52716,-5.84457 2.66715,-8.42248 0.36901,-0.83529 0.95388,-1.91874 0.32514,-2.76201 z" />
  <path
     id="path151"
     style="fill:#ff9955;fill-opacity:1;stroke:#ff9955;stroke-width:0.264583px;stroke-linecap:butt;stroke-linejoin:miter;stroke-opacity:1"
     d="m 80.915945,107.89231 c 6.361081,-3.63018 9.383264,-11.19975 10.937234,-18.01214 1.449983,-10.02757 2.363659,-20.21063 1.04958,-30.31889 3.244829,-9.22716 13.022161,-14.14985 16.239391,-23.43784 3.5092,-5.0181 8.32577,-9.68378 8.22798,-16.29034 1.88986,-8.90825 9.70372,0.52871 7.21476,5.74818 -1.64765,6.24759 -5.0971,11.97678 -6.36782,18.40235 -1.21422,3.9541 -2.98564,10.93076 2.88703,6.24556 4.2251,-2.85178 11.83079,-1.66803 11.59044,4.56475 1.02101,4.8018 6.98247,8.45477 3.62145,13.97997 -4.24589,4.30819 3.60042,10.45261 -1.16376,14.86252 -2.41905,2.37795 -10.22369,7.62667 -10.86759,1.62889 -1.11557,7.01331 -2.36518,14.12928 -5.72382,20.51362 -1.34781,6.43572 -9.13346,7.61075 -11.68923,13.01836 -0.31173,6.33488 -5.17618,14.08063 -11.998496,8.94274 -6.318865,-5.06869 -12.367331,-11.70706 -13.957149,-19.84773 z" />
  <path
     id="path157"
     style="fill:#ff7f2a;fill-opacity:1;stroke:#ff7f2a;stroke-width:0.264583px;stroke-linecap:butt;stroke-linejoin:miter;stroke-opacity:1"
     d="m 95.557418,59.37777 c 0.108913,2.08804 2.549436,-0.58189 3.613654,0.29159 1.354108,1.12466 1.792378,2.99098 2.996398,4.24023 1.51367,0.31761 2.57796,1.16356 3.3298,2.54955 1.41688,0.1712 2.69365,0.71567 3.14684,2.26787 0.81904,1.32283 2.56767,1.41882 3.57342,2.50562 0.46597,0.96706 0.76726,3.74099 -0.8815,3.41727 -1.69697,-0.3921 -2.05434,-2.11941 -2.66997,-3.48746 -0.80834,-1.89929 -2.92429,-2.3308 -4.5916,-3.14551 -1.73003,-0.79401 -1.68292,-3.40826 -3.70847,-3.77861 -1.674314,-0.12298 -1.786821,-2.48325 -3.344544,-2.31684 -1.0784,0.38726 -3.747831,1.34478 -2.837918,-0.87714 0.354742,-0.6888 1.152665,-0.87414 1.37389,-1.66657 z" />
  <path
     id="path164"
     style="fill:#ff7f2a;fill-opacity:1;stroke:#ff7f2a;stroke-width:0.264583px;stroke-linecap:butt;stroke-linejoin:miter;stroke-opacity:1"
     d="m 118.23444,18.13929 c 0.43534,-0.13871 0.97069,-0.3041 1.37451,0.002 0.3455,0.31537 0.39683,0.81261 0.57588,1.2234 0.16132,0.37654 -0.0719,0.73276 -0.31328,1.00672 -0.46167,0.56999 -0.98005,1.09755 -1.54925,1.56029 -0.31971,-0.0722 -0.39043,-0.46461 -0.50492,-0.72446 -0.12784,-0.50803 -0.15509,-1.07148 0.0383,-1.56524 0.18409,-0.33781 0.31205,-0.70115 0.32848,-1.08767 0.0162,-0.13838 0.0307,-0.277 0.0503,-0.41497 z" />
  <path
     id="path171"
     style="fill:#d1c7bd;fill-opacity:1;stroke:#d1c7bd;stroke-width:0.264583px;stroke-linecap:butt;stroke-linejoin:miter;stroke-opacity:1"
     d="m 108.42417,116.85429 c 0.97955,2.75944 0.52493,5.88263 -0.89494,8.40664 -0.44483,1.13857 -1.28967,2.04213 -1.76469,3.14652 -0.30656,0.90135 -0.61934,1.83344 -1.15333,2.62469 -1.11605,0.85255 -2.54441,-0.20998 -3.35018,-1.03453 -1.309337,-1.15225 -2.470963,-2.45555 -3.514489,-3.85077 -0.657356,-0.69451 -1.958736,-1.78688 -0.241183,-1.8699 1.709581,-0.2166 3.470572,-0.29762 5.070612,-1.00974 1.00347,-0.45746 2.30374,-0.3842 3.03673,-1.31851 1.19475,-1.4098 0.84043,-3.69456 2.44911,-4.80239 0.12067,-0.0975 0.24265,-0.19335 0.36236,-0.29201 z" />
  <path
     id="path177"
     style="fill:#f9f2ec;fill-opacity:1;stroke:#f9f2ec;stroke-width:0.264583px;stroke-linecap:butt;stroke-linejoin:miter;stroke-opacity:1"
     d="m 83.997066,102.27997 c 3.715742,-0.25927 0.364707,3.93735 1.291343,5.80324 0.431867,2.94375 2.84027,4.87267 5.208386,6.3413 5.363666,4.60711 9.098916,11.05504 15.485815,14.45493 3.24296,1.18622 5.44183,4.93066 1.83046,7.1627 -2.6735,3.56795 -3.68047,8.01285 -5.30896,12.09481 -2.628314,-1.36129 -4.809566,-3.54588 -6.920265,-5.62069 -2.856363,-3.35425 -5.858204,-6.56799 -8.986063,-9.66946 -2.658905,-2.57658 -4.476786,-5.80796 -6.636355,-8.76741 -1.83427,-2.27208 -4.039531,-4.43379 -4.834435,-7.33319 0.966745,-2.91186 2.992956,-5.34591 4.12048,-8.20015 1.35788,-2.31143 2.274901,-4.85001 4.749594,-6.26608 z" />
  <path
     id="path183"
     style="fill:#0b0d1a;fill-opacity:1;stroke:#0b0d1a;stroke-width:0.264583px;stroke-linecap:butt;stroke-linejoin:miter;stroke-opacity:1"
     d="m 103.74087,140.52371 c 1.68015,-1.37341 4.95582,-7.92792 4.87525,-2.74111 0.58871,3.62913 3.34469,8.10348 0.34223,11.38998 -2.97584,3.39193 -7.93291,3.74766 -12.152536,3.70116 -5.321513,-0.6949 -10.158206,-3.53363 -15.604561,-3.62123 -4.55373,-1.31096 -8.806508,0.64675 -13.240119,1.20941 -6.204227,0.63536 -12.002927,-2.5273 -18.139452,-2.75043 -0.09121,-2.65464 1.953532,-5.99332 2.941798,-8.84831 2.831441,-3.88217 6.757924,-6.73551 10.173177,-10.07154 3.794975,-2.89745 7.235819,-6.33651 9.388741,-10.64915 2.720503,-2.9695 3.545299,-7.16265 5.614883,-10.42128 2.194103,2.32546 3.457772,6.45455 5.344148,9.45659 2.037806,5.19407 7.265405,8.48073 8.648294,13.98697 1.214122,3.11678 3.667296,8.16532 6.979803,5.36788 0.953281,2.0247 1.323904,6.868 4.828344,3.99106 z" />
  <path
     id="path189"
     style="fill:#ff7f2a;fill-opacity:1;stroke:#ff7f2a;stroke-width:0.264583px;stroke-linecap:butt;stroke-linejoin:miter;stroke-opacity:1"
     d="m 126.73833,78.36654 c 0.0232,0.44103 0.56074,0.53842 0.90185,0.6318 0.90806,0.20835 1.84868,0.18685 2.76215,0.36232 0.38361,0.30107 -0.40723,0.39956 -0.50789,0.68516 -0.67417,0.76295 -1.34036,1.55058 -1.84057,2.44113 -0.21975,0.49953 -0.41456,1.08019 -0.94198,1.33772 -0.44443,0.16698 -0.74447,0.56114 -1.10713,0.80486 -0.26245,-0.49243 0.15558,-1.11205 0.31686,-1.60902 0.13162,-0.40899 0.49941,-0.81879 0.32871,-1.26511 -0.26984,-0.43655 -0.73371,-0.86511 -0.52052,-1.43296 0.13464,-0.67285 0.53523,-1.26755 0.60852,-1.9559 z" />
  <path
     id="path195"
     style="fill:#ff7f2a;stroke:#ff7f2a;stroke-width:0.264583px;stroke-linecap:butt;stroke-linejoin:miter;stroke-opacity:1"
     d="m 202.95286,91.36586 c 1.80313,-1.16464 4.04744,-1.9796 6.19206,-1.37157 0.97708,0.1504 1.97588,0.28874 2.85234,0.77687 0.78671,0.24158 1.59644,0.60171 2.00875,1.35978 0.49361,0.75264 0.77321,1.64477 1.40284,2.30614 0.14553,0.72971 0.84546,0.8524 0.96239,0.0757 0.40987,-1.37924 -0.52938,-2.69561 -1.48887,-3.59076 -0.97377,-0.97362 -2.27698,-1.52482 -3.62126,-1.74497 -1.29333,-0.24415 -2.55445,-0.62619 -3.8348,-0.91866 -0.97064,-0.20486 -2.01606,0.0562 -2.71744,0.77381 -0.73624,0.64921 -1.293,1.47487 -1.75601,2.33369 z" />
  <path
     id="path69"
     style="fill:#2c0000;fill-opacity:1;stroke:#2c0000;stroke-width:0.264583px;stroke-linecap:butt;stroke-linejoin:miter;stroke-opacity:1"
     d="m 210.50462,77.77663 c 0.93915,-0.22066 2.142,-0.20895 3.03996,-0.58403 1.69411,-0.49375 3.15544,-1.25431 4.57498,-0.26523 0.9021,0.48072 1.86175,0.73213 2.80457,1.10653 1.12361,0.314 2.43907,0.57849 3.07768,1.67053 0.76571,1.28608 1.08429,2.89092 0.75969,4.36018 -0.22113,0.97662 -1.44324,-0.018 -2.11026,0.36001 -0.87859,0.21063 -1.80765,-0.0676 -2.43285,-0.71709 -0.96217,-0.84802 -1.77178,-1.95671 -3.03698,-2.37486 -1.94646,-1.12523 -4.43004,-0.87686 -6.25076,-2.26114 -0.70899,-0.62701 -0.318,-0.47058 -0.42603,-1.2949 z" />
  <path
     id="path79"
     style="fill:#2c0000;fill-opacity:1;stroke:#2c0000;stroke-width:0.264583px;stroke-linecap:butt;stroke-linejoin:miter;stroke-opacity:1"
     d="m 222.11963,85.29191 c 0.26204,0.0386 0.54382,-0.0725 0.67662,-0.30887 0.13793,-0.22275 0.34553,-0.40454 0.60102,-0.4749 0.27751,0.0225 0.25137,0.42925 0.32749,0.63872 0.0686,0.39665 0.12466,0.80571 0.0721,1.20729 -0.056,0.29606 -0.37881,0.41171 -0.63905,0.46506 -0.24213,0.06 -0.50646,0.0511 -0.73038,0.17027 -0.13418,0.0697 -0.29906,0.27025 -0.41858,0.24716 -0.0507,-0.20461 -0.008,-0.42106 -0.003,-0.63023 0.0177,-0.37662 0.0455,-0.75233 0.096,-1.12615 0.007,-0.0627 0.0128,-0.12552 0.0179,-0.18835 z" />
  <path
     id="path86"
     style="fill:#ebe0cf;fill-opacity:1;stroke:#ebe0cf;stroke-width:0.264583px;stroke-linecap:butt;stroke-linejoin:miter;stroke-opacity:1"
     d="m 209.90388,78.01075 c 1.00317,-0.38003 2.26368,-1.18136 3.29176,-0.51434 0.31565,0.42453 0.0104,1.68808 0.83148,0.99331 0.75459,-0.40428 1.64449,-0.98665 2.53454,-0.70007 0.76748,0.34862 0.37284,1.72547 1.37273,1.80452 0.85759,0.0943 2.11046,-0.71152 2.64546,0.31817 0.0935,0.7743 0.23911,1.65545 1.20311,1.38212 0.92177,0.26184 -0.0249,1.75957 1.17289,1.45671 0.96147,0.31747 0.49898,1.60929 0.12437,2.25403 -0.42692,0.66207 -0.92157,2.00659 -1.85531,1.74485 -0.90288,-0.77437 -1.63142,-1.82286 -2.74861,-2.31361 -1.07954,-0.29666 -1.79911,-1.24507 -2.82807,-1.65691 -1.83746,-1.01689 -3.54603,-2.41816 -5.67724,-2.75511 -0.69198,-0.10882 -2.5195,-0.61142 -1.3064,-1.37647 0.40706,-0.22375 0.82812,-0.42144 1.23929,-0.6372 z" />
  <path
     id="path92"
     style="fill:#934333;fill-opacity:1;stroke:#934333;stroke-width:0.264583px;stroke-linecap:butt;stroke-linejoin:miter;stroke-opacity:1"
     d="m 207.72333,77.27685 c 1.48946,-0.41171 3.58892,-0.0346 4.9839,-0.67476 1.49244,-0.0284 3.39161,-0.93738 4.80403,-0.27081 1.19776,1.06856 1.71712,0.71373 3.21667,1.25675 1.54275,0.58125 3.62731,0.38293 4.62918,1.92676 0.34794,1.39765 0.7477,2.83006 1.03052,4.20173 -0.37945,1.48227 -2.28804,2.05994 -2.35299,3.66008 -1.16473,-0.98244 -0.85138,-2.61435 0.0495,-3.66823 0.54712,-1.18833 0.99317,-3.52567 -0.76776,-3.84019 -1.65856,-0.0823 -3.18403,-0.62489 -4.53027,-1.59189 -1.14976,-0.9612 -2.04661,-0.93427 -3.65211,-0.57834 -2.51133,0.41352 -5.29712,0.37852 -7.63707,1.35003 -1.05211,0.0911 -0.0188,-1.43832 0.2264,-1.77113 z" />
  <path
     id="path104"
     style="fill:#ff7f2a;fill-opacity:1;stroke:#ff7f2a;stroke-width:0.264583px;stroke-linecap:butt;stroke-linejoin:miter;stroke-opacity:1"
     d="m 208.72048,79.23218 c 2.03463,0.75315 4.08351,1.62283 5.84198,2.89374 1.14803,0.95144 2.81536,0.90062 3.9664,1.87999 1.04273,0.94536 2.06449,1.99375 3.57018,2.09066 1.11499,-0.0493 2.05771,1.40249 0.54853,1.63659 -1.53384,0.52833 -2.25714,-1.19642 -3.1417,-2.07061 -1.16859,-1.05752 -2.57101,-1.83753 -4.10966,-2.21432 -1.34036,-0.51935 -2.76679,-0.89723 -3.75412,-2.01235 -1.06552,-0.8602 -2.46641,-0.52651 -3.67191,-0.90531 -1.01654,-0.28737 -0.89597,-1.15707 0.16616,-1.12476 0.195,-0.0569 0.38969,-0.11488 0.58414,-0.17363 z" />
  <path
     id="path111"
     style="fill:#ff7f2a;fill-opacity:1;stroke:#ff7f2a;stroke-width:0.264583px;stroke-linecap:butt;stroke-linejoin:miter;stroke-opacity:1"
     d="m 219.96064,58.22337 c -1.09211,1.13378 -2.1291,2.44881 -3.58493,3.11411 -1.94541,0.58842 -3.29365,2.24553 -5.11325,3.08709 -1.25122,0.84582 -2.81993,1.11382 -3.92587,2.19189 -1.4812,1.29332 -2.54799,2.97301 -3.64796,4.58176 -0.38656,0.55762 -0.33174,1.00879 0.30479,0.39294 1.06075,-1.08827 1.80476,-2.48995 3.18304,-3.25637 1.76045,-1.25459 3.71034,-2.2017 5.5775,-3.28066 1.092,-1.0486 2.2875,-2.03344 3.66533,-2.66632 1.44074,-1.12936 2.52473,-2.66019 3.54135,-4.16444 z" />
  <path
     id="path117"
     style="fill:#ff7f2a;fill-opacity:1;stroke:#ff7f2a;stroke-width:0.264583px;stroke-linecap:butt;stroke-linejoin:miter;stroke-opacity:1"
     d="m 230.68292,72.08784 c -0.12019,1.75643 0.53958,3.45865 0.42938,5.21777 -0.0103,1.89492 -0.5136,3.73633 -0.76725,5.60422 -0.19463,1.19162 -0.45842,2.3749 -0.74973,3.54138 0.61215,-0.53137 0.48972,-1.83159 0.86806,-2.64501 0.49737,-1.34717 0.36447,-2.83914 0.96438,-4.15721 0.6736,-1.79734 0.87219,-3.71653 1.03352,-5.61406 -0.0311,-0.74729 0.99177,-2.3166 -0.17133,-2.48311 -0.56476,0.0577 -1.0827,0.33783 -1.60703,0.53602 z" />
  <path
     id="path123"
     style="fill:#ff7f2a;fill-opacity:1;stroke:#ff7f2a;stroke-width:0.264583px;stroke-linecap:butt;stroke-linejoin:miter;stroke-opacity:1"
     d="m 237.6093,46.88779 c -0.56237,1.6715 -1.50033,3.16627 -2.46925,4.61788 -0.79865,2.18955 -2.23537,4.34571 -1.76608,6.78241 0.069,2.96747 -0.25641,5.92909 -0.77645,8.84536 0.043,1.67723 0.34676,3.90658 -1.57646,4.72184 -2.33194,1.1397 -4.70774,-0.36618 -6.92917,-1.02127 -1.89308,-0.84391 -3.08227,-2.6705 -4.90648,-3.64013 -1.93372,-0.51398 -3.47859,-2.64427 -1.46807,-4.18038 2.05444,-1.93907 4.09077,-3.96533 5.49853,-6.438 1.54367,-1.64324 3.23529,-3.31296 3.52412,-5.66616 0.33345,-1.59745 1.43063,-2.77618 3.0197,-3.13218 1.40289,-0.51202 2.87835,-3.00337 3.66108,-2.94055 -0.3588,1.27013 -1.94709,2.99003 -1.82538,3.87932 1.4557,-1.22037 3.76861,1.07301 4.82786,-0.97737 0.36012,-0.33229 0.86247,-0.47356 1.18605,-0.85077 z" />
  <path
     id="path134"
     style="fill:#e3dedb;fill-opacity:1;stroke:#e3dedb;stroke-width:0.264583px;stroke-linecap:butt;stroke-linejoin:miter;stroke-opacity:1"
     d="m 207.43898,43.62686 c 1.49479,-0.34899 2.94097,-0.98474 4.50139,-0.97694 1.36177,-0.1179 2.94933,-0.36051 4.06848,0.62562 0.75106,0.6568 1.32864,1.48583 2.01014,2.20706 0.70293,1.04942 1.33877,2.16311 1.78031,3.34775 0.25288,0.60207 0.40864,1.6649 -0.45668,0.91865 -0.51873,-0.49467 -1.13704,-0.85829 -1.8289,-1.05079 -2.15551,-1.03824 -3.96148,-2.71904 -6.23875,-3.52346 -0.84092,-0.40846 -1.77619,-0.47949 -2.67224,-0.65916 -0.47127,-0.17385 -0.79805,-0.56592 -1.16375,-0.88873 z" />
  <path
     id="path140"
     style="fill:#5fbcd3;fill-opacity:1;stroke:#5fbcd3;stroke-width:0.264583px;stroke-linecap:butt;stroke-linejoin:miter;stroke-opacity:1"
     d="m 212.56595,43.67123 c -0.32447,0.77896 -0.25617,1.75609 0.34888,2.3838 0.79637,0.8872 1.95819,1.28792 3.01334,1.77369 0.43831,0.29242 0.85817,-0.12582 1.20013,-0.37056 0.40502,-0.33808 1.12304,-0.37968 1.23012,-0.99875 0.12126,-0.73176 -0.27655,-1.42065 -0.63626,-2.02978 -0.57505,-0.89646 -1.3789,-1.71856 -2.41099,-2.05759 -0.73581,-0.24187 -1.56531,-0.0157 -2.10972,0.52486 -0.24613,0.22742 -0.45368,0.49365 -0.6355,0.77433 z" />
  <path
     id="path146"
     style="fill:#e3dedb;fill-opacity:1;stroke:#e3dedb;stroke-width:0.264583px;stroke-linecap:butt;stroke-linejoin:miter;stroke-opacity:1"
     d="m 235.24298,58.48958 c 1.61027,-0.0432 3.22237,-0.17542 4.83318,-0.0718 0.89075,0.0864 1.83469,0.27236 2.55912,0.82749 0.26847,0.43199 0.53814,0.86609 0.90457,1.23487 0.22781,0.45269 0.49285,0.88524 0.81736,1.27855 0.25307,0.53932 0.0287,1.14118 0.0643,1.69778 -0.59213,0.19476 -1.06678,-0.58287 -1.53671,-0.87226 -0.86118,-0.68038 -1.84594,-1.18668 -2.81204,-1.70145 -0.80489,-0.38154 -1.61106,-0.80776 -2.48831,-0.9914 -0.68624,-0.1029 -1.52859,-0.13527 -1.9286,-0.80219 -0.14267,-0.19639 -0.26731,-0.40537 -0.4129,-0.59963 z" />
  <path
     id="path152"
     style="fill:#5fbcd3;stroke:#5fbcd3;stroke-width:0.264583px;stroke-linecap:butt;stroke-linejoin:miter;stroke-opacity:1"
     d="m 238.39805,58.9776 c 0.2048,0.39714 0.21276,0.89903 0.53397,1.23057 0.62629,0.43239 1.33441,0.72773 2.01949,1.05234 0.38737,0.16503 0.78133,0.33739 1.19548,0.41649 0.32094,-0.0547 0.41963,-0.42402 0.53968,-0.67806 0.20808,-0.57155 0.33372,-1.20252 0.22056,-1.8076 -0.0859,-0.39666 -0.50545,-0.55496 -0.80455,-0.76587 -0.51912,-0.32233 -1.13146,-0.44928 -1.73713,-0.43401 -0.6599,0.0151 -1.35363,-0.0589 -1.97389,0.21455 -0.16559,0.22737 0.028,0.51994 0.006,0.77159 z" />
  <path
     id="path162"
     style="fill:#ff7f2a;fill-opacity:1;stroke:#ff7f2a;stroke-width:0.264583px;stroke-linecap:butt;stroke-linejoin:miter;stroke-opacity:1"
     d="m 207.66082,42.49552 c 1.43833,0.0891 2.44383,-1.23469 3.83757,-1.36543 2.31056,-0.51384 5.07487,0.0801 6.48512,2.11039 0.7932,1.21117 0.85382,2.78238 1.85787,3.87809 0.53601,0.79749 1.08424,1.6279 1.9136,2.13919 -0.57455,-0.83733 -0.99531,-1.77064 -1.55859,-2.62137 -0.76503,-1.52346 -0.98887,-3.27025 -1.84051,-4.75055 -1.07928,-1.41714 -3.0001,-1.73276 -4.66836,-1.85041 -1.57213,-0.11229 -3.20591,0.24655 -4.45399,1.24458 -0.54117,0.38279 -1.05443,0.8028 -1.57271,1.21551 z" />
  <path
     id="path168"
     style="fill:#ff7f2a;fill-opacity:1;stroke:#ff7f2a;stroke-width:0.264583px;stroke-linecap:butt;stroke-linejoin:miter;stroke-opacity:1"
     d="m 235.07044,57.38042 c 0.91644,0.60764 2.09642,0.43603 3.06151,0.0462 1.09081,-0.40465 2.34014,-0.82823 3.46503,-0.29208 0.73623,0.30944 1.36605,0.80998 2.03306,1.23899 0.58427,0.58839 0.43826,1.62663 1.18476,2.09604 0.33393,0.20038 0.56385,1.13056 0.63479,1.05535 -0.10413,-0.92036 -0.26044,-1.86409 -0.79044,-2.64842 -0.56378,-0.82042 -1.03281,-1.8065 -1.98683,-2.24111 -1.37592,-0.64247 -3.00038,-0.58784 -4.43287,-0.17172 -0.78551,0.6073 -1.74456,1.10399 -2.76833,0.98983 -0.13515,-0.0142 -0.26925,-0.0385 -0.40068,-0.0731 z" />
  <path
     id="path174"
     style="fill:#ffe680;fill-opacity:1;stroke:#ffe680;stroke-width:0.264583px;stroke-linecap:butt;stroke-linejoin:miter;stroke-opacity:1"
     d="m 213.89701,37.59305 c 2.70645,0.41754 4.99424,2.1001 7.0733,3.77688 0.70747,0.78985 1.55836,1.41809 2.48803,1.92342 0.76368,0.57223 1.54058,1.11624 2.40331,1.53118 0.96804,0.96908 1.39487,-0.6681 1.49923,-1.40605 0.25312,-1.02889 0.15759,-2.14444 0.57654,-3.12225 -0.24328,0.43101 -0.8767,1.40655 -1.44473,0.9777 -0.74326,-0.43779 -0.81768,-1.95897 -1.40504,-2.12841 -0.30076,0.20923 -0.22355,1.66699 -0.49477,1.2146 -0.26908,-0.91851 -0.58658,-1.8676 -1.1416,-2.65558 -0.61596,0.35504 -1.14747,-0.77649 -1.59468,-1.22547 -0.2799,-0.30204 -0.74742,-1.47669 -1.05709,-1.198 0.0382,0.39086 0.26651,1.35774 -0.20572,0.56415 -0.50177,-0.55428 -1.04835,-1.10645 -1.31189,-1.82169 -0.16391,0.48203 0.99097,1.72347 0.19347,1.68965 -1.37247,-0.30212 -2.49703,-1.28751 -3.83737,-1.6595 0.0956,0.7991 0.83869,1.40606 1.19173,2.12755 -0.47403,7.6e-4 -1.5019,-0.91342 -2.11578,-1.31874 -0.52985,-0.37479 -1.18122,-0.84342 -1.52039,-1.31866 0.29794,0.30294 1.2587,0.85374 0.31584,0.45281 -1.41718,-0.65399 -3.03369,-0.77742 -4.57615,-0.74073 -0.25397,0.32928 1.90229,0.68114 0.69022,0.87588 -1.08319,-0.01 -2.02855,0.5581 -2.96481,1.0309 -0.53959,0.12696 -1.17496,0.81947 -0.22164,0.64301 0.338,-0.0368 2.05358,-0.35989 1.03861,0.19212 -0.9654,0.64363 -2.22469,0.76761 -3.07545,1.58482 -0.1078,0.6514 1.2473,-0.13277 1.677,-0.14024 0.86877,-0.25476 -0.45095,0.94196 -0.72382,1.08073 -0.23,0.22037 -1.33644,0.85934 -0.42404,0.36805 2.29064,-0.88494 4.63422,-1.63188 6.98521,-2.33439 0.84833,-0.23438 1.45177,0.51596 1.98248,1.03626 z" />
  <path
     id="path180"
     style="fill:#ffe680;fill-opacity:1;stroke:#ffe680;stroke-width:0.264583px;stroke-linecap:butt;stroke-linejoin:miter;stroke-opacity:1"
     d="m 238.69383,50.99167 c -0.19399,0.59019 -0.0427,1.28947 0.71979,1.25039 0.56122,0.25844 1.12733,0.4667 1.76348,0.40287 1.52275,0.0983 3.1412,0.16985 4.48929,0.96168 0.57693,0.46805 1.17418,0.95621 1.58384,1.58457 0.62367,1.14069 0.95337,2.48115 1.92815,3.39895 0.40531,0.48633 0.74552,1.0346 1.10273,1.54686 0.3426,-0.51397 -0.0725,-1.18507 -0.0188,-1.76053 0.13978,-0.83966 1.23444,0.0706 1.73848,0.1098 0.27545,-0.0396 -0.72431,-0.23775 -0.62741,-0.60342 -0.0263,-0.36386 -0.72721,-0.97123 -0.15606,-0.37186 0.21357,0.20829 0.95925,0.97646 0.7256,0.19837 -0.19133,-0.91971 -0.63553,-1.78615 -0.75809,-2.71393 0.69243,0.0279 1.13944,0.85812 1.83473,0.87863 0.16537,-0.49973 -0.24822,-1.03635 -0.55726,-1.41914 -0.44388,-0.54652 -1.11784,-0.86355 -1.53509,-1.42429 0.16156,-0.15109 1.09109,0.27119 0.36108,0.0793 -1.13313,-0.27322 -2.09814,-1.0104 -3.23491,-1.25378 0.827,-0.14239 1.69233,0.10497 2.52928,-0.0335 -0.41758,-0.0957 -1.03791,-0.10207 -1.46638,-0.39488 -0.6131,-0.31993 -1.29274,-0.58249 -1.78288,-1.08232 0.4213,-0.41152 1.19801,0.1166 1.70938,-0.2153 -0.37916,-0.1515 -1.33774,0.0198 -1.89696,-0.25721 -0.69358,-0.1594 -1.36827,-0.40413 -2.07054,-0.52237 -0.386,-0.0267 0.55236,-0.43089 0.72467,-0.46675 0.38031,-0.0191 1.22596,-0.84584 0.37591,-0.68562 -1.51256,-0.009 -2.90554,0.68365 -4.2513,1.29169 -0.55943,0.18768 0.43838,-0.4092 0.57309,-0.50846 0.18642,-0.14937 -0.70945,0.17141 -0.93488,0.22095 -1.12545,0.28926 -2.06799,0.96796 -2.86891,1.78939 z" />
  <path
     id="path185"
     style="fill:#ff7f2a;fill-opacity:1;stroke:#ff7f2a;stroke-width:0.264583px;stroke-linecap:butt;stroke-linejoin:miter;stroke-opacity:1"
     d="m 235.902,62.24917 c -0.055,0.44419 0.32947,0.73445 0.67779,0.91134 0.3195,0.32485 0.73276,0.5347 1.19387,0.54854 0.75903,0.0725 1.62596,-0.0281 2.23794,0.52548 0.45642,0.41918 0.95995,0.78211 1.52686,1.03682 0.63315,0.31204 1.3043,0.55566 2.00481,0.65906 -0.78285,-0.0397 -1.25626,-0.75065 -1.87319,-1.12751 -0.51412,-0.14453 -1.04983,-0.33272 -1.26721,-0.87162 -0.24516,-0.44725 -0.79066,-0.41618 -1.22224,-0.51049 -0.38878,-0.10717 -0.72768,-0.38337 -1.1562,-0.33756 -0.50933,0.002 -1.08351,0.0356 -1.48242,-0.34548 -0.21192,-0.16456 -0.40823,-0.35108 -0.64001,-0.48858 z" />
  <path
     style="fill:#ff7f2a;fill-opacity:1;stroke:#ff7f2a;stroke-width:0.264583px;stroke-linecap:butt;stroke-linejoin:miter;stroke-opacity:1"
     d="m 204.20218,46.61843 c 0.56585,0.0341 1.13679,0.0587 1.69019,0.19186 0.40357,0.0971 0.7965,0.25935 1.12768,0.51235 0.31301,0.23912 0.58358,0.52691 0.86635,0.79966 0.28094,0.27098 0.57806,0.53473 0.92957,0.71047 0.80404,0.40198 1.59601,0.83486 2.44063,1.14854 0.22774,0.0846 0.46092,0.15309 0.69426,0.22046 1.11856,0.32296 2.19424,0.77208 3.29074,1.15976 0.57294,0.20257 1.14543,0.41382 1.74221,0.53845 0.1811,0.0378 0.36548,0.0552 0.54953,0.071 0.13047,0.0112 0.2614,0.0228 0.38946,0.05 0.0318,0.007 0.12595,0.0206 0.10347,0.0209 -0.22444,0.003 -0.4415,-0.0727 -0.64002,-0.17209 -0.23458,-0.11745 -0.44712,-0.27446 -0.68274,-0.38961 -0.28701,-0.14026 -0.60146,-0.20728 -0.90913,-0.28539 -0.24454,-0.0621 -0.48772,-0.13581 -0.71394,-0.25005 -0.43907,-0.22174 -0.84104,-0.51452 -1.29804,-0.70077 -0.20577,-0.0839 -0.41786,-0.15133 -0.63038,-0.21568 -0.94676,-0.2867 -1.92868,-0.45005 -2.85953,-0.79059 -0.39318,-0.14384 -0.77185,-0.32624 -1.13083,-0.54215 -0.33229,-0.19986 -0.671,-0.39156 -0.98271,-0.6227 -0.23962,-0.17768 -0.4413,-0.39981 -0.63666,-0.6237 -0.10272,-0.11772 -0.19667,-0.24337 -0.30536,-0.3556 -0.12915,-0.13335 -0.29592,-0.21961 -0.45412,-0.31267 -0.10319,-0.0607 -0.19931,-0.1323 -0.3041,-0.19065 -0.25549,-0.14227 -0.54492,-0.22039 -0.83699,-0.23196 -0.37852,-0.015 -0.75204,0.0691 -1.11491,0.16798 -0.10852,0.0296 -0.21664,0.0608 -0.32463,0.0921 z"
     id="path191" />
</svg>
