<?xml version="1.0" encoding="UTF-8" standalone="no"?>
<svg
   xmlns:dc="http://purl.org/dc/elements/1.1/"
   xmlns:cc="http://creativecommons.org/ns#"
   xmlns:rdf="http://www.w3.org/1999/02/22-rdf-syntax-ns#"
   xmlns:svg="http://www.w3.org/2000/svg"
   xmlns="http://www.w3.org/2000/svg"
   xmlns:sodipodi="http://sodipodi.sourceforge.net/DTD/sodipodi-0.dtd"
   xmlns:inkscape="http://www.inkscape.org/namespaces/inkscape"
   width="600"
   height="300"
   viewBox="0 0 158.75 79.375"
   version="1.1"
   id="svg8"
   inkscape:version="1.0.1 (3bc2e813f5, 2020-09-07)"
   sodipodi:docname="da-cosinus.svg">
  <defs
     id="defs2" />
  <sodipodi:namedview
     id="base"
     pagecolor="#ffffff"
     bordercolor="#666666"
     borderopacity="1.0"
     inkscape:pageopacity="0.0"
     inkscape:pageshadow="2"
     inkscape:zoom="2.8"
     inkscape:cx="303.41036"
     inkscape:cy="154.76521"
     inkscape:document-units="mm"
     inkscape:current-layer="layer1"
     showgrid="false"
     units="px"
     inkscape:window-width="1920"
     inkscape:window-height="1061"
     inkscape:window-x="0"
     inkscape:window-y="19"
     inkscape:window-maximized="0"
     inkscape:document-rotation="0"
     inkscape:snap-global="false" />
  <metadata
     id="metadata5">
    <rdf:RDF>
      <cc:Work
         rdf:about="">
        <dc:format>image/svg+xml</dc:format>
        <dc:type
           rdf:resource="http://purl.org/dc/dcmitype/StillImage" />
        <dc:title />
      </cc:Work>
    </rdf:RDF>
  </metadata>
  <g
     inkscape:label="Layer 1"
     inkscape:groupmode="layer"
     id="layer1"
     transform="translate(0,-138.25001)">
    <path
       id="path74"
       style="fill:#000000;stroke:#000000;stroke-width:0.530602;stroke-linecap:round"
       d="m 14.470338,194.10122 c 16.389739,-3.48872 33.214023,-0.61586 49.774331,-1.5363 24.900719,1.62827 49.875771,1.23278 74.810291,1.80835 4.05713,0.49726 12.75163,-1.3868 3.32486,-0.56195 -15.45353,0.77677 -30.99331,-0.44982 -46.48581,-0.17882 -17.070533,-0.0636 -34.080688,-1.7017 -51.156641,-0.99188 -10.087489,-0.63546 -20.335469,-0.67568 -30.267031,1.4606 z" />
    <path
       id="path76"
       style="fill:#000000;stroke:#000000;stroke-width:0.530602;stroke-linecap:round"
       d="m 142.58039,190.28317 c 2.60246,1.16591 5.3907,1.8634 8.17195,2.4529 1.1566,0.23386 2.35624,0.32921 3.4745,0.70883 0.14008,-0.43077 -1.21967,0.50522 -1.68887,0.79047 -2.08335,1.19161 -4.21182,2.34578 -6.51145,3.06524 -0.70705,0.81601 1.03094,0.6099 1.35493,0.13663 2.51607,-1.30129 4.98292,-2.72505 7.61209,-3.78282 0.66056,-0.90769 -1.1582,-0.59177 -1.68332,-0.72255 -2.91872,-0.3793 -5.8334,-0.96837 -8.60052,-1.98533 -0.72652,-0.0424 -1.47796,-1.17577 -2.12931,-0.66337 z" />
    <path
       id="path78"
       style="fill:#000000;stroke:#000000;stroke-width:0.530602;stroke-linecap:round"
       d="m 19.909941,143.79969 c 1.825745,8.61251 1.122346,17.50893 2.56559,26.18226 1.245009,10.68179 0.55837,21.44917 1.291006,32.16349 0.249031,2.49142 -0.102874,8.08167 0.312695,8.6322 0.743132,-4.89347 -0.462835,-9.85257 -0.351232,-14.78109 -0.558662,-10.37441 -0.01321,-20.80126 -1.541068,-31.11179 -1.093703,-6.98022 -0.156265,-14.2979 -2.276991,-21.08507 z" />
    <path
       id="path80"
       style="fill:#000000;stroke:#000000;stroke-width:0.530602;stroke-linecap:round"
       d="m 16.4588,147.88732 c 1.383942,-2.23896 1.757046,-4.89926 2.787044,-7.29055 -0.826988,0.069 0.766307,0.43743 0.944736,0.93448 1.62995,1.77858 3.063186,3.73603 4.407993,5.73677 0.242417,0.43707 1.095136,1.55217 1.101225,1.42783 -0.768828,-1.82585 -2.177598,-3.26503 -3.304712,-4.86699 -0.870697,-1.09249 -1.666595,-2.25623 -2.584334,-3.30388 -0.569033,-0.68632 -1.514577,-0.24857 -1.267127,0.64855 -0.214767,2.13038 -1.000481,4.18619 -2.023307,6.0446 -0.159648,0.17679 -0.620998,0.67577 -0.06152,0.66919 z" />
    <path
       id="path82"
       style="fill:#000000;stroke:#000000;stroke-width:0.530602;stroke-linecap:round"
       d="m 28.232125,187.90216 c -3.636121,3.0031 -6.066416,7.13727 -9.348017,10.48872 -3.500367,3.90637 -7.007273,7.8156 -10.3500033,11.85454 -1.2155148,0.63097 -2.0796217,2.86546 -0.4609884,0.98682 5.0689887,-6.96334 11.3830897,-12.90066 16.6763177,-19.68791 0.522661,-1.34037 3.93396,-2.89912 3.482691,-3.64217 z" />
    <path
       id="path84"
       style="fill:#000000;stroke:#000000;stroke-width:0.530602;stroke-linecap:round"
       d="m 6.2258826,207.23454 c -0.2845925,2.75199 -1.057906,5.52174 -2.6754996,7.80001 -0.7674766,0.66434 0.825756,0.95062 1.0321486,0.25548 2.4175098,-1.4813 5.178776,-2.46831 8.0177924,-2.67088 0.32484,-0.51497 -1.128644,-0.21323 -1.470314,-0.10872 -2.6265445,0.64215 -5.012151,1.9653 -7.5637282,2.82584 0.7423627,-0.16224 0.6970526,-1.41853 1.1657873,-2.01587 0.6562891,-1.56714 1.1072485,-3.21269 1.4310367,-4.8772 0.085074,-0.3482 0.5826038,-1.00438 0.062777,-1.20866 z" />
    <path
       id="path32"
       style="fill:#aa0044;stroke:#aa0044;stroke-width:0.761349;stroke-linecap:round"
       d="m 33.903867,157.51714 c 16.095277,2.15962 29.936523,11.63183 45.662303,15.18906 13.162256,4.02071 26.12411,8.67767 38.91805,13.74452 -4.10272,-3.12474 -13.67997,-4.85106 -19.721186,-7.61311 -14.270187,-5.46167 -29.423143,-8.33974 -43.273635,-14.91378 -6.879675,-2.74079 -14.194674,-6.20026 -21.482543,-6.50845 z" />
    <path
       id="path34"
       style="fill:#aa0044;stroke:#aa0044;stroke-width:0.761349;stroke-linecap:round"
       d="m 116.05549,180.90684 c 2.99084,2.07565 6.32977,3.93921 8.47843,6.95056 -2.05264,0.15663 -4.21315,0.87094 -6.35997,1.1247 -2.4367,0.38058 -4.88725,0.66308 -7.32751,1.01875 3.27431,0.32025 6.54809,-0.48262 9.79425,-0.85722 1.61933,-0.66202 4.52119,0.47798 5.31504,-1.19408 -0.93831,-1.51414 -2.81598,-2.07882 -4.1059,-3.25542 -1.77309,-1.29454 -3.52171,-2.64118 -5.05528,-4.21868 l -0.36946,0.21586 z" />
    <path
       id="path36"
       style="fill:#0044aa;stroke:#0044aa;stroke-width:0.761349;stroke-linecap:round"
       d="m 32.99833,157.75566 c 1.515372,6.26479 3.862388,12.31419 7.120429,17.87721 3.086464,6.69672 6.913931,13.00498 10.238946,19.57559 1.503901,1.90295 1.257986,5.87605 3.266485,6.58627 -0.89533,-3.8789 -3.432954,-7.66008 -5.267011,-11.34202 -4.448208,-7.77443 -8.610016,-15.73083 -12.091824,-23.98609 -1.514771,-2.52228 -1.503425,-7.02811 -3.267025,-8.71096 z" />
    <path
       id="path38"
       style="fill:#0044aa;stroke:#0044aa;stroke-width:0.761349;stroke-linecap:round"
       d="m 48.642518,200.58042 c 1.999247,2.19005 3.904417,4.47495 6.050394,6.52442 0.657772,0.73462 1.965715,0.99165 2.60399,0.0964 0.427185,-0.96738 0.557034,-2.05162 0.749551,-3.08879 0.138563,-1.35841 0.787012,-2.70326 0.418946,-4.07809 -0.190092,-0.51123 -0.398787,0.67446 -0.527302,0.9059 -0.324696,1.50693 -0.342572,3.09967 -1.000084,4.52315 -0.133281,0.62465 -0.846425,1.04258 -0.882297,1.58879 -1.853053,-0.44569 -3.098926,-2.02229 -4.340308,-3.35382 -0.892861,-1.03579 -1.67165,-2.1728 -2.287615,-3.39464 -0.261771,0.0922 -0.523416,0.18476 -0.785275,0.27671 z" />
    <path
       id="path40"
       style="fill:#0044aa;fill-opacity:1;stroke:#0044aa;stroke-width:0.761349;stroke-linecap:round;stroke-opacity:1"
       d="m 84.443708,176.9912 c -0.387847,0.60219 -0.794097,1.20159 -1.256759,1.74391 -0.09164,0.17704 -0.187524,0.67203 -0.12959,0.66914 0.305263,-0.27899 0.708078,-0.45999 0.882628,-0.86202 0.314803,-0.46615 0.661213,-0.91003 1.018441,-1.34421 -0.171589,-0.0689 -0.343122,-0.13794 -0.51472,-0.20682 z" />
    <path
       id="path42"
       style="fill:#0044aa;fill-opacity:1;stroke:#0044aa;stroke-width:0.761349;stroke-linecap:round;stroke-opacity:1"
       d="m 79.195811,184.12119 c -0.511091,0.82231 -1.34094,1.36076 -1.981612,2.0691 -0.06587,0.25036 -0.462072,0.7677 -0.01801,0.39527 0.454156,-0.12923 0.80815,-0.4199 1.114185,-0.76866 0.447684,-0.43759 0.79218,-0.96704 1.189062,-1.44314 0.0861,-0.18201 -0.186758,-0.2323 -0.303626,-0.25257 z" />
    <path
       id="path44"
       style="fill:#0044aa;fill-opacity:1;stroke:#0044aa;stroke-width:0.761349;stroke-linecap:round;stroke-opacity:1"
       d="m 72.88419,192.02599 c -0.567288,0.71291 -1.16462,1.40149 -1.779297,2.07382 -0.07037,0.39256 -0.442209,0.6157 -0.632833,0.93979 0.172097,-0.0463 0.419954,-0.39833 0.64763,-0.5297 0.306045,-0.24142 0.651957,-0.43129 0.916092,-0.72277 0.44977,-0.43991 0.883327,-0.90043 1.387094,-1.28029 0.181585,-0.27832 -0.256573,-0.3526 -0.439325,-0.41675 -0.03593,-0.0164 -0.07031,-0.0371 -0.09936,-0.0641 z" />
    <path
       id="path46"
       style="fill:#0044aa;fill-opacity:1;stroke:#0044aa;stroke-width:0.761349;stroke-linecap:round;stroke-opacity:1"
       d="m 67.233991,200.25285 c -0.52362,0.4856 -1.088578,0.93814 -1.487692,1.53891 -0.232034,0.35022 -0.907424,0.95008 -0.644746,1.2787 0.473265,-0.13261 0.700511,-0.66308 1.017936,-1.00609 0.402591,-0.55343 0.854785,-1.08027 1.418562,-1.47529 0.214396,-0.20357 -0.219133,-0.23074 -0.30406,-0.33623 z" />
    <path
       id="path48"
       style="fill:#0044aa;fill-opacity:1;stroke:#0044aa;stroke-width:0.761349;stroke-linecap:round;stroke-opacity:1"
       d="m 60.742356,207.2393 c -0.583312,0.40996 -1.233941,0.71858 -1.791579,1.16599 -0.04921,0.22699 -0.400348,0.79459 0.08527,0.51538 0.61127,-0.0389 1.10577,-0.37018 1.600671,-0.69396 0.232644,-0.18421 0.750725,-0.33121 0.833094,-0.49078 -0.242482,-0.16554 -0.484904,-0.33118 -0.727452,-0.49663 z" />
    <path
       id="path50"
       style="fill:#0044aa;fill-opacity:1;stroke:#0044aa;stroke-width:0.761349;stroke-linecap:round;stroke-opacity:1"
       d="m 83.56045,183.50979 c 1.751579,0.5557 3.483422,1.30309 4.908668,2.48034 0.693329,0.56456 1.637682,0.13757 1.864608,-0.67599 0.949157,-2.02696 2.161226,-3.96811 3.841215,-5.47209 0.250608,-1.03234 -1.516004,-0.75942 -1.595617,0.0975 -1.293384,1.63077 -2.335624,3.44674 -3.613546,5.08351 -0.647079,0.11033 1.385405,0.32652 0.413553,0.12629 -1.515516,-0.99948 -3.343008,-1.37044 -4.875692,-2.3379 -0.314406,0.23275 -0.628745,0.46586 -0.943189,0.69838 z" />
    <path
       id="path52"
       style="fill:#0044aa;fill-opacity:1;stroke:#0044aa;stroke-width:0.761349;stroke-linecap:round;stroke-opacity:1"
       d="m 87.263091,179.82993 c -0.24018,1.23881 2.341821,1.84689 1.739902,0.28773 -0.344446,-0.57993 -1.220621,-0.68349 -1.739902,-0.28773 z" />
    <path
       id="path54"
       style="fill:#000000;stroke:#000000;stroke-width:0.761349;stroke-linecap:round"
       d="m 45.088361,177.25606 c 3.948601,-0.83018 7.373497,-3.62464 9.12092,-7.24168 0.723448,-0.50505 0.917603,-2.20629 -0.351677,-1.62616 -0.801582,0.64046 -0.993349,1.74516 -1.568202,2.56346 -1.462558,2.57391 -3.996606,4.54973 -6.862159,5.29976 -0.487554,0.17782 -1.638981,0.0183 -0.75956,0.59436 0.140229,0.13675 0.280456,0.2735 0.420678,0.41026 z" />
    <path
       id="path56"
       style="fill:#000000;stroke:#000000;stroke-width:0.761349;stroke-linecap:round"
       d="m 58.666906,173.64463 c -1.3027,0.60496 -2.380904,1.75819 -2.694977,3.18341 -0.471405,1.47825 -0.455393,3.34037 0.747807,4.47464 1.034993,0.99956 2.907747,1.33879 4.008268,0.26007 1.346998,-1.27489 2.150649,-3.24138 1.678018,-5.08731 -0.205774,-0.87727 -0.56754,-1.75727 -1.174307,-2.42919 -0.400522,-0.31015 -1.463249,-0.55914 -1.527581,0.149 0.02756,0.36599 1.198095,0.51899 0.377733,0.61091 -0.309924,-0.17134 0.634119,0.13221 0.675785,0.42996 0.584481,1.0497 0.879865,2.2998 0.605311,3.49026 -0.241398,1.01962 -0.846826,2.01033 -1.762643,2.54738 -0.26864,0.1396 -0.553387,0.1409 -0.415895,0.24509 -1.105172,0.14358 -2.151623,-0.69281 -2.539051,-1.68853 -0.477794,-1.2025 -0.161174,-2.55962 0.359875,-3.69475 0.437194,-0.90461 1.179428,-1.68755 2.128645,-2.04856 0.109173,-0.1813 -0.383116,-0.2876 -0.466988,-0.44238 z" />
    <path
       id="path58"
       style="fill:#000000;stroke:#000000;stroke-width:0.761349;stroke-linecap:round"
       d="m 57.169522,178.25577 c 1.42798,-0.12969 2.869809,-0.098 4.294819,-0.23138 0.492723,0.14094 0.845655,-0.32473 0.293368,-0.58285 -0.357307,-0.54785 -0.983912,-0.74354 -1.566112,-0.44279 -0.973911,0.16339 -1.967747,0.16612 -2.950432,0.21647 -0.380917,-0.066 -1.213596,0.0615 -0.589009,0.50096 0.175786,0.17637 0.373183,0.33417 0.517366,0.53959 z" />
    <path
       id="path60"
       style="fill:#0044aa;stroke:#0044aa;stroke-width:0.761349;stroke-linecap:round"
       d="m 27.832839,189.2918 c 1.271001,1.36742 2.086435,3.09687 2.788703,4.78726 1.379419,0.56265 1.148407,-1.33099 1.30098,-2.14487 0.273386,-1.7763 0.637919,-3.56676 1.428623,-5.1939 0.110923,-1.27843 -1.534141,-0.52853 -1.27283,0.44119 -0.522963,2.06419 -0.808104,4.19891 -1.404965,6.23481 0.406803,-0.13994 1.167269,0.25308 0.516025,-0.30169 -0.958335,-1.25832 -1.690994,-2.67225 -2.508578,-4.02372 -0.299353,-0.16573 -0.557622,0.18244 -0.847958,0.20092 z" />
    <path
       id="path62"
       style="fill:#0044aa;stroke:#0044aa;stroke-width:0.761349;stroke-linecap:round"
       d="m 34.742937,192.39041 c 0.424391,1.59243 0.419967,3.25207 0.467618,4.88672 0.140827,0.66676 1.375833,0.55086 1.289074,-0.18546 -0.09103,-0.75257 -0.296635,-1.48577 -0.34906,-2.24724 -0.110373,-0.76467 -0.231272,-1.52848 -0.300049,-2.29837 -0.167672,-0.499 -0.763899,-0.0785 -1.107583,-0.15565 z" />
    <path
       id="path64"
       style="fill:#aa0044;stroke:#aa0044;stroke-width:0.761349;stroke-linecap:round"
       d="m 133.90039,184.07966 c 1.00827,0.89044 0.9338,2.73138 2.20573,3.25261 1.32178,-0.0289 1.41162,-1.66117 1.99622,-2.52965 0.70866,-1.36101 1.50632,-2.67312 2.32122,-3.97249 0.16129,-1.48526 -1.72854,-0.45431 -1.71084,0.51012 -0.91068,1.6624 -1.93363,3.26051 -2.84771,4.92083 1.35504,0.41239 -0.59392,-1.33545 -0.61616,-2.0407 -0.26728,-0.76695 -0.79511,-0.2533 -1.34846,-0.14072 z" />
    <path
       id="path66"
       style="fill:#aa0044;stroke:#aa0044;stroke-width:0.761349;stroke-linecap:round"
       d="m 141.37487,186.42559 c 1.20673,-0.36681 1.10642,1.60414 0.52817,2.21284 -0.6406,1.13096 -1.70802,1.97355 -2.8856,2.49402 0.6128,0.99228 1.68621,0.96135 2.70178,0.92059 0.9969,-0.008 2.00787,0.148 2.99115,0.12763 0.72725,-0.12495 1.65694,-1.58851 0.27234,-1.25151 -1.9493,0.2293 -3.90933,-0.041 -5.86348,0.0289 0.59891,1.33552 1.85965,0.34996 2.43767,-0.44125 0.98474,-0.98493 1.94968,-2.25727 1.87032,-3.72051 -0.16269,-1.28108 -2.1465,-1.74376 -2.87288,-0.84624 0.22057,0.23486 0.56981,0.28044 0.82053,0.47551 z" />
    <path
       id="path68"
       style="fill:#782167;stroke:#782167;stroke-width:0.761349;stroke-linecap:round"
       d="m 37.001019,152.46142 c 0.696921,-1.07123 1.617602,-1.96943 2.540799,-2.84345 0.464563,-0.76925 -0.852276,-0.73279 -1.032905,-0.13325 -0.808811,0.87501 -1.587897,1.77697 -2.385952,2.66182 0.29269,0.10495 0.585365,0.20994 0.878058,0.31488 z" />
    <path
       id="path70"
       style="fill:#782167;stroke:#782167;stroke-width:0.761349;stroke-linecap:round"
       d="m 38.449976,151.63427 c 6.039053,1.52623 11.300053,5.11502 17.31012,6.75626 8.878953,3.15657 17.448948,7.12655 26.482257,9.85597 1.766271,0.2071 6.50845,3.42728 6.393622,1.10636 -9.5294,-2.54353 -18.801129,-5.98858 -27.984659,-9.582 -7.176514,-2.37872 -14.101795,-5.43374 -21.001857,-8.50592 -0.417595,-0.14277 -0.968796,-0.0332 -1.199483,0.36933 z" />
    <path
       id="path72"
       style="fill:#782167;stroke:#782167;stroke-width:0.761349;stroke-linecap:round"
       d="m 90.617591,167.61716 c -0.500799,1.65993 -1.790155,2.8836 -2.886624,4.16355 -0.232202,0.29431 -0.494624,0.57553 -0.678441,0.90046 -0.147652,0.45401 0.415077,0.71945 0.790258,0.62451 0.487592,-0.0665 0.5815,-0.62226 0.876325,-0.93253 0.767566,-1.04635 1.63809,-2.03173 2.201968,-3.2118 0.216114,-0.40172 0.433496,-0.80313 0.62738,-1.21621 -0.158087,-0.36367 -0.645968,-0.15368 -0.930866,-0.32798 z" />
    <path
       id="path75"
       style="fill:#782167;stroke:#782167;stroke-width:0.761349;stroke-linecap:round"
       d="m 69.428198,143.7249 c 0.322377,2.38401 0.335807,4.79719 0.467872,7.19424 -0.127634,0.65346 -0.174538,2.44275 0.813758,1.97474 0.509514,-1.07993 -0.118055,-2.26825 -0.02394,-3.40363 -0.078,-1.65454 -0.32207,-3.30684 -0.327512,-4.96036 0.253674,-0.70593 -0.343726,-0.98051 -0.930174,-0.80499 z" />
    <path
       id="path77"
       style="fill:#782167;stroke:#782167;stroke-width:0.761349;stroke-linecap:round"
       d="m 72.940593,142.98411 c 0.404931,3.16513 0.710641,6.35493 0.651489,9.54933 0.79676,1.10437 1.709783,-0.6496 1.091948,-1.36891 -0.257539,-2.66506 -0.763839,-5.32172 -0.816553,-7.99582 -0.180917,-0.32342 -0.62957,-0.23906 -0.926884,-0.1846 z" />
    <path
       id="path79"
       style="fill:#782167;stroke:#782167;stroke-width:0.761349;stroke-linecap:round"
       d="m 78.456328,145.92915 c 0.691243,1.54224 1.183448,3.16199 1.777279,4.74201 -0.180191,1.29366 1.773475,1.45349 1.875774,0.15722 0.811462,-1.92601 1.447464,-3.92308 2.317193,-5.82455 0.608025,-1.45664 -1.584653,-1.15146 -1.457173,0.11389 -0.356226,1.85074 -1.043049,3.6499 -1.974217,5.28966 -0.584733,0.698 0.0061,0.22421 0.535008,0.50229 -0.974525,-1.09999 -1.361804,-2.59932 -1.847806,-3.96202 -0.01225,-0.69031 -0.404013,-1.51692 -1.226058,-1.0185 z" />
    <path
       id="path81"
       style="fill:#782167;stroke:#782167;stroke-width:0.761349;stroke-linecap:round"
       d="m 85.241329,149.78006 c 0.209833,1.25877 -0.07751,2.53574 0.02291,3.7949 0.146999,0.6217 1.013099,0.65422 1.130247,-0.006 0.113609,-0.64627 -0.0018,-1.31141 -0.01838,-1.96406 -0.03896,-0.61064 -0.08693,-1.22086 -0.155169,-1.82899 -0.317994,-0.12662 -0.653929,0.0319 -0.979598,0.004 z" />
    <path
       id="path83"
       style="fill:#782167;stroke:#782167;stroke-width:0.761349;stroke-linecap:round"
       d="m 89.860312,142.17207 c 0.537378,2.70164 0.50439,5.46848 0.553211,8.21005 -0.353201,1.06162 1.539211,1.18075 1.081323,-2.8e-4 -0.125364,-1.61583 -0.348964,-3.2227 -0.43727,-4.84305 -0.05386,-1.02201 -0.224133,-2.05018 -0.16088,-3.06567 -0.119878,-0.44843 -0.695481,-0.37367 -1.036384,-0.30105 z" />
    <path
       id="path85"
       style="fill:#782167;stroke:#782167;stroke-width:0.761349;stroke-linecap:round"
       d="m 94.192702,141.68806 c 0.119533,2.60899 -0.148861,5.22452 0.05797,7.83015 -0.392933,0.73422 0.348762,2.65042 0.946107,1.26214 -0.066,-1.09254 -0.25771,-2.18339 -0.206043,-3.2921 -0.02148,-1.877 0.102216,-3.75109 0.181955,-5.62534 -0.165251,-0.38046 -0.682318,-0.0623 -0.979989,-0.17485 z" />
    <path
       id="path87"
       style="fill:#782167;stroke:#782167;stroke-width:0.761349;stroke-linecap:round"
       d="m 104.61091,145.39983 c -1.12128,0.34431 -2.37636,1.02117 -2.48995,2.32874 -0.27288,1.35856 0.17768,3.09723 1.53723,3.69425 1.49622,0.55884 3.08301,-0.20452 4.28188,-1.07401 0.95721,-0.87232 -0.42635,-1.69674 -1.08364,-0.75153 -0.48226,0.6859 -2.19964,1.06918 -2.19585,1.09192 -1.37318,-0.0777 -1.87453,-1.81152 -1.50761,-2.93816 0.20771,-1.05268 1.34047,-1.39431 2.05816,-1.83075 -0.13885,-0.23216 -0.42844,-0.31653 -0.60022,-0.52046 z" />
    <path
       id="path89"
       style="fill:#782167;stroke:#782167;stroke-width:0.761349;stroke-linecap:round"
       d="m 113.80966,145.07599 c -1.51977,0.37564 -2.91848,1.63437 -3.06943,3.25143 -0.11843,1.2636 0.82358,2.49405 2.06233,2.74155 1.42298,0.33728 3.12187,0.0517 4.06927,-1.14614 0.70859,-0.96365 0.79841,-2.39895 0.13485,-3.40773 -0.51414,-0.65518 -1.6654,-0.8371 -2.22485,-0.14642 -0.23411,0.59265 0.51561,0.60951 0.89674,0.63489 0.67958,0.12865 0.67142,1.0109 0.59458,1.54694 -0.19345,1.06476 -1.16974,1.89626 -2.24928,1.93186 -0.98784,0.0973 -2.13331,-0.5071 -2.26203,-1.56647 -0.20732,-1.42097 0.91645,-2.79132 2.28181,-3.08494 0.50859,-0.24997 -0.0148,-0.55588 -0.23399,-0.75497 z" />
    <path
       id="path91"
       style="fill:#782167;stroke:#782167;stroke-width:0.761349;stroke-linecap:round"
       d="m 123.42262,145.19412 c -0.90651,-0.10958 -1.93512,0.21029 -2.4333,1.01855 -0.26913,0.39983 -0.25327,0.97035 0.0738,1.33378 0.46011,0.5638 1.21793,0.67381 1.84492,0.96478 0.26918,0.12026 0.51161,0.43718 0.34346,0.7342 -0.3402,0.55727 -1.00862,0.77612 -1.61424,0.90467 -0.25362,0.0629 -0.56029,2.4e-4 -0.74312,0.23866 -0.1934,0.20441 -0.32025,0.58792 -0.0918,0.81033 0.2483,0.1529 0.56178,0.10203 0.84166,0.12429 1.37943,-0.0284 2.69743,-0.96265 3.16615,-2.26279 0.0878,-0.53078 -0.34594,-0.9738 -0.78652,-1.19104 -0.52528,-0.29203 -1.21722,-0.2837 -1.62967,-0.76635 -0.25513,-0.32973 0.0239,-0.66034 0.27736,-0.86118 0.1427,-0.24852 0.16217,-0.61391 0.47436,-0.72352 0.12521,-0.0723 0.22763,-0.18777 0.2769,-0.32438 z" />
    <path
       id="path93"
       style="fill:#782167;stroke:#782167;stroke-width:0.761349;stroke-linecap:round"
       d="m 133.58859,140.45496 c -2.8467,-0.39295 -5.06415,2.40332 -5.20807,5.03786 -0.71565,2.21098 0.49361,5.41167 3.25125,4.9081 3.00177,-0.24127 5.30268,-3.13587 5.2759,-6.07393 0.76375,-1.80227 -1.74844,-5.14132 -3.13126,-3.14335 2.36575,1.22061 2.27239,4.0965 0.86536,6.08022 -0.99769,1.81203 -4.5453,3.43878 -5.3441,0.62506 -0.35532,-2.28613 0.31184,-5.16272 2.49776,-6.34698 0.65628,-0.25832 1.4269,-0.39631 1.79316,-1.08698 z" />
    <path
       id="path95"
       style="fill:#782167;stroke:#782167;stroke-width:0.761349;stroke-linecap:round"
       d="m 130.59539,146.09121 c 1.41637,-0.21214 2.89745,0.38906 4.27097,-0.11042 0.87287,-0.30905 0.71627,-1.60707 -0.32677,-1.18446 -1.49849,0.12947 -3.00341,0.0926 -4.50392,0.0941 -0.91274,0.0424 0.47515,0.88058 0.55972,1.2008 z" />
  </g>
</svg>
