<?xml version="1.0" encoding="UTF-8" standalone="no"?>
<svg
   xmlns:dc="http://purl.org/dc/elements/1.1/"
   xmlns:cc="http://creativecommons.org/ns#"
   xmlns:rdf="http://www.w3.org/1999/02/22-rdf-syntax-ns#"
   xmlns:svg="http://www.w3.org/2000/svg"
   xmlns="http://www.w3.org/2000/svg"
   xmlns:sodipodi="http://sodipodi.sourceforge.net/DTD/sodipodi-0.dtd"
   xmlns:inkscape="http://www.inkscape.org/namespaces/inkscape"
   sodipodi:docname="da-std-sample.svg"
   inkscape:version="1.0.1 (3bc2e813f5, 2020-09-07)"
   id="svg8"
   version="1.1"
   viewBox="0 0 317.5 158.75"
   height="600"
   width="1200">
  <defs
     id="defs2" />
  <sodipodi:namedview
     inkscape:document-rotation="0"
     inkscape:window-maximized="1"
     inkscape:window-y="19"
     inkscape:window-x="0"
     inkscape:window-height="1061"
     inkscape:window-width="1920"
     units="px"
     showgrid="false"
     inkscape:current-layer="layer1"
     inkscape:document-units="mm"
     inkscape:cy="304.82888"
     inkscape:cx="598.95134"
     inkscape:zoom="1.4"
     inkscape:pageshadow="2"
     inkscape:pageopacity="0.0"
     borderopacity="1.0"
     bordercolor="#666666"
     pagecolor="#ffffff"
     id="base"
     inkscape:snap-global="false" />
  <metadata
     id="metadata5">
    <rdf:RDF>
      <cc:Work
         rdf:about="">
        <dc:format>image/svg+xml</dc:format>
        <dc:type
           rdf:resource="http://purl.org/dc/dcmitype/StillImage" />
        <dc:title />
      </cc:Work>
    </rdf:RDF>
  </metadata>
  <g
     transform="translate(0,-217.62501)"
     id="layer1"
     inkscape:groupmode="layer"
     inkscape:label="Layer 1">
    <path
       id="path192"
       style="opacity:1;fill:#000000;stroke:#000000;stroke-width:0.529998;stroke-linecap:round"
       d="m 9.9950497,353.27043 c 55.0419933,2.66673 110.1243303,-1.58448 165.1322803,-3.62538 37.52466,-0.0917 75.15284,0.43711 112.47657,3.99048 -14.89867,-2.47073 -35.56299,-3.03932 -52.72937,-3.56675 -47.373,-2.31395 -94.67097,0.7012 -141.978051,2.81417 -26.784582,0.94087 -53.643444,1.25741 -80.351362,-0.27457 z" />
    <path
       id="path194"
       style="opacity:1;fill:#000000;stroke:#000000;stroke-width:0.529998;stroke-linecap:round"
       d="m 280.88507,345.33407 c 3.0563,1.65361 5.5035,4.37021 8.96082,5.28288 6.07253,2.09164 12.60024,1.60783 18.8924,2.28598 -1.54063,-0.7318 -5.05619,1.25903 -7.31735,1.72021 -5.34447,1.80096 -11.25764,2.9665 -15.37783,7.13852 -1.3541,0.83663 -4.34327,4.36841 -1.14684,4.39674 2.77902,-1.11936 3.91778,-4.24619 6.41857,-5.78774 5.08171,-3.69243 11.52036,-4.431 17.28956,-6.56829 1.34643,-0.56318 5.90238,-0.77932 2.37208,-1.51445 -5.38131,-0.15781 -10.82756,-0.22605 -16.12749,-1.31867 -3.88741,-0.75091 -7.42512,-2.62627 -10.51215,-5.05639 -1.05562,-0.90728 -2.16485,-0.83538 -3.45177,-0.57879 z" />
    <path
       id="path196"
       style="opacity:1;fill:#000000;stroke:#000000;stroke-width:0.529998;stroke-linecap:round"
       d="m 286.66215,327.96637 c 0.85367,-0.90088 3.42957,-1.203 3.698,-1.30307 -1.44348,0.0671 0.97515,1.14821 0.28239,2.11018 -0.53309,2.41938 -2.33045,4.34111 -4.13678,5.93789 -0.63529,0.6184 -2.84626,1.62553 -1.44865,2.46248 1.68565,-0.55957 3.26786,-1.52005 4.41719,-2.9332 1.68218,-1.70922 3.46873,-3.88062 3.21801,-6.43145 -0.57596,-1.83463 -2.8929,-1.62282 -4.39381,-1.3477 -1.04559,0.11809 -3.23141,0.79066 -3.29303,1.36455 0.55222,0.0468 1.10445,0.0936 1.65668,0.14032 z" />
    <path
       id="path198"
       style="opacity:1;fill:#000000;stroke:#000000;stroke-width:0.529998;stroke-linecap:round"
       d="m 295.43541,334.25429 c 0.52335,-0.079 2.33299,0.0753 0.77933,-0.1964 -1.76864,-0.45785 -3.56511,-2.17834 -3.01379,-4.14693 0.40169,-1.52755 1.55938,-2.78064 2.81698,-3.6638 1.46753,-0.82037 -0.29875,-1.56731 -1.18417,-1.05803 -1.76348,0.40301 -2.94633,1.92539 -3.962,3.31134 -0.92906,1.30867 -1.14006,3.29049 0.11379,4.47278 1.41943,1.53607 3.63447,1.78925 5.61033,1.6809 0.75419,0.0153 1.19002,-0.10623 0.15002,-0.19871 -0.43682,-0.0671 -0.87482,-0.12704 -1.31049,-0.20115 z" />
    <path
       id="path200"
       style="opacity:0.2;fill:#00aad4;stroke:#00aad4;stroke-width:0.529166px;stroke-linecap:butt;stroke-linejoin:miter;stroke-opacity:1"
       d="m 107.35231,337.97981 c -1.62952,-1.06088 -4.10094,-2.81996 -3.17253,-5.05605 1.09557,-1.85698 3.54814,-2.1864 5.50704,-2.06335 2.4265,0.0874 3.19904,2.83969 1.71047,4.52267 -0.7019,2.0017 -2.64311,1.82542 -4.04498,2.59673 z" />
    <path
       id="path206"
       style="opacity:1;fill:#44aa00;stroke:#44aa00;stroke-width:0.529166px;stroke-linecap:butt;stroke-linejoin:miter;stroke-opacity:1"
       d="m 133.84234,319.05759 c -1.68623,0.0414 -4.25736,1.44763 -3.08142,3.42045 1.04009,1.69699 3.20814,2.89198 5.20215,2.60494 1.97444,-0.46525 2.42758,-2.95705 1.62635,-4.5667 -0.59934,-1.32376 -2.3997,-2.4637 -3.74708,-1.45869 z" />
    <path
       id="path212"
       style="opacity:0.2;fill:#00aad4;stroke:#00aad4;stroke-width:0.529166px;stroke-linecap:butt;stroke-linejoin:miter;stroke-opacity:1"
       d="m 116.97399,305.01565 c -1.30323,0.80553 -3.93491,2.54758 -2.27136,4.18018 1.51886,0.96618 3.47749,0.8584 5.19693,0.65024 1.84649,0.0614 3.81067,-1.98606 1.86002,-3.42647 -1.11533,-1.01743 -2.54891,-1.93638 -4.12556,-1.49081 -0.2199,0.0297 -0.43954,0.0616 -0.66003,0.0869 z" />
    <path
       id="path218"
       style="opacity:0.2;fill:#00aad4;stroke:#00aad4;stroke-width:0.529166px;stroke-linecap:butt;stroke-linejoin:miter;stroke-opacity:1"
       d="m 158.83519,323.41527 c -0.89432,-1.40211 -2.14648,-3.33507 -0.9733,-4.92979 1.67226,-1.51863 4.17817,-0.66396 6.01002,0.10633 1.88138,0.61743 2.75774,3.41879 0.62992,4.32219 -1.45192,1.06826 -3.42718,1.65367 -5.07894,0.66469 l -0.29111,-0.091 z" />
    <path
       id="path224"
       style="opacity:1;fill:#44aa00;stroke:#44aa00;stroke-width:0.529166px;stroke-linecap:butt;stroke-linejoin:miter;stroke-opacity:1"
       d="m 182.32363,295.86077 c -1.96854,0.21219 -4.62965,2.62251 -2.43108,4.35201 1.78456,1.48257 4.32028,2.25895 6.61336,1.86157 2.40152,-0.419 2.71169,-3.72902 1.01928,-5.11001 -1.49442,-1.36236 -3.58553,-0.0471 -5.20156,-1.10357 z" />
    <path
       id="path230"
       style="opacity:0.2;fill:#00aad4;stroke:#00aad4;stroke-width:0.529166px;stroke-linecap:butt;stroke-linejoin:miter;stroke-opacity:1"
       d="m 146.30646,281.49763 c -1.37437,0.76683 -3.09644,3.14138 -1.1468,4.23704 2.05012,1.10983 4.55621,0.81745 6.7246,0.26183 2.5716,-0.35005 2.43449,-3.45691 0.3071,-4.39996 -1.59348,-1.04618 -4.04616,-1.83718 -5.65518,-0.42383 l -0.12238,0.15353 z" />
    <path
       id="path236"
       style="opacity:1;fill:#44aa00;stroke:#44aa00;stroke-width:0.529166px;stroke-linecap:butt;stroke-linejoin:miter;stroke-opacity:1"
       d="m 74.544556,301.42197 c -2.006415,-0.0365 -5.228694,0.6637 -4.956311,3.26466 0.492558,3.07173 4.639539,5.32644 7.280601,3.30374 1.816568,-1.47203 2.619822,-4.7155 0.523678,-6.30912 -0.763955,-0.65911 -1.999852,-0.91597 -2.847968,-0.25928 z" />
    <path
       id="path242"
       style="opacity:1;fill:#44aa00;stroke:#44aa00;stroke-width:0.529166px;stroke-linecap:butt;stroke-linejoin:miter;stroke-opacity:1"
       d="m 149.92788,299.69855 c -1.88103,0.085 -4.29285,2.50552 -2.24293,4.05523 1.85072,1.63715 4.56159,2.35987 6.96304,1.81199 2.19592,-0.9757 1.87525,-4.24439 0.18173,-5.53331 -1.39422,-0.95217 -3.38259,-1.04401 -4.90184,-0.33391 z" />
    <path
       id="path248"
       style="opacity:1;fill:#44aa00;stroke:#44aa00;stroke-width:0.529166px;stroke-linecap:butt;stroke-linejoin:miter;stroke-opacity:1"
       d="m 116.00409,274.78003 c -2.05725,-0.0982 -5.15385,1.13235 -4.40133,3.69314 0.64388,2.39442 2.82628,4.04128 4.98311,5.01531 2.12615,0.88766 4.05898,-1.06518 3.69221,-3.18142 0.0709,-2.18059 -0.77626,-4.9309 -3.10856,-5.57626 -0.38572,-0.0706 -0.7869,-0.0524 -1.16543,0.0492 z" />
    <path
       id="path254"
       style="opacity:0.2;fill:#00aad4;stroke:#00aad4;stroke-width:0.529166px;stroke-linecap:butt;stroke-linejoin:miter;stroke-opacity:1"
       d="m 141.57334,237.80251 c -2.08887,0.15483 -4.51123,2.28272 -3.18336,4.46409 1.16225,2.26885 3.75394,3.75252 6.27187,3.76033 2.6939,-0.24253 4.0311,-3.7793 2.22413,-5.77642 -1.24484,-1.53361 -3.26992,-2.7701 -5.31264,-2.448 z" />
    <path
       id="path260"
       style="opacity:0.2;fill:#00aad4;stroke:#00aad4;stroke-width:0.529166px;stroke-linecap:butt;stroke-linejoin:miter;stroke-opacity:1"
       d="m 30.891277,270.23247 c -0.811594,1.34304 -1.733841,2.98134 -1.127092,4.5805 0.761935,1.39579 2.575714,1.48423 3.969097,1.29659 1.780436,-0.22378 3.656882,-0.8975 4.795649,-2.34687 0.612349,-0.97132 -0.03644,-2.13072 -0.967683,-2.59524 -1.242059,-0.79654 -2.690309,-1.32385 -4.154729,-1.47645 -0.86568,0.01 -1.699797,0.27705 -2.515242,0.54147 z" />
    <path
       id="path266"
       style="opacity:1;fill:#44aa00;stroke:#44aa00;stroke-width:0.529166px;stroke-linecap:butt;stroke-linejoin:miter;stroke-opacity:1"
       d="m 224.23765,266.90501 c -1.82606,-0.34359 -5.11459,0.052 -4.72574,2.59131 0.43774,2.14614 2.46676,3.91225 4.62379,4.16012 2.26112,0.18916 3.58145,-2.19164 3.71298,-4.15625 0.30375,-1.86803 -1.90829,-3.7761 -3.61103,-2.59518 z" />
    <path
       id="path272"
       style="opacity:0.2;fill:#00aad4;stroke:#00aad4;stroke-width:0.529166px;stroke-linecap:butt;stroke-linejoin:miter;stroke-opacity:1"
       d="m 260.07721,303.24099 c -2.01213,0.23406 -4.61133,2.47721 -2.93616,4.51634 1.5517,2.09735 4.95894,3.13473 7.12154,1.38683 1.75255,-1.54722 1.77873,-4.74223 -0.30519,-6.0216 -0.91173,-1.13244 -3.97325,-2.40917 -3.88019,0.11843 z" />
    <path
       id="path284"
       style="opacity:1;fill:#44aa00;stroke:#44aa00;stroke-width:0.529166px;stroke-linecap:butt;stroke-linejoin:miter;stroke-opacity:1"
       d="m 162.63992,258.65287 c -1.49155,0.0885 -3.77349,1.05342 -3.11258,2.91687 0.60659,1.64008 2.29894,2.65896 3.91679,3.07002 2.05396,0.28086 2.86635,-2.05513 2.29375,-3.68402 -0.2101,-1.40672 -1.58404,-2.8724 -3.09796,-2.30287 z" />
    <path
       id="path318"
       style="opacity:1;fill:#000000;stroke:#000000;stroke-width:0.529998;stroke-linecap:round"
       d="m 11.722833,344.74187 c 0.273562,4.49482 0.71963,9.01363 0.123545,13.50307 0.306692,1.7011 -1.409848,5.33429 1.474015,4.80673 2.744546,-0.22243 0.865426,-3.95546 1.583506,-5.76234 0.247264,-3.32065 0.342752,-6.69275 -0.347465,-9.9645 0.343833,-1.55282 -0.206374,-3.36846 -2.143265,-2.58656 l -0.345181,0.002 -0.345156,0.002 z" />
    <path
       id="path320"
       style="opacity:1;fill:#00aad4;fill-opacity:1;stroke:#00aad4;stroke-width:0.529998;stroke-linecap:round;stroke-opacity:1"
       d="m 143.0556,344.57575 c -0.44478,3.74851 -0.33233,7.54592 -0.91985,11.27992 -1.04029,1.36023 0.84623,3.43044 1.92913,1.69904 0.3693,-1.63146 0.31182,-3.34651 0.59509,-5.01201 0.15875,-2.49857 0.19044,-5.0075 0.30633,-7.50534 -0.20142,-0.89558 -1.31951,-0.30414 -1.9107,-0.46161 z" />
    <path
       id="path322"
       style="opacity:1;fill:#00aad4;fill-opacity:1;stroke:#00aad4;stroke-width:0.529998;stroke-linecap:round;stroke-opacity:1"
       d="m 111.18953,372.26661 c 4.51049,-0.81866 7.79197,-4.82704 8.89222,-9.10867 0.77085,-0.94685 1.61674,-4.49389 -0.53746,-2.80179 -0.98155,2.24405 -0.58872,5.02582 0.0142,7.29079 2.21289,2.77903 4.99702,-0.63428 5.37658,-3.03798 0.0114,-1.4581 2.49338,-4.17972 0.76625,-4.86621 -2.17541,1.61736 -0.54482,4.92347 -0.85874,7.35812 0.25945,2.42808 0.65374,4.96245 1.9141,7.08757 1.63018,1.95147 2.13647,-0.38781 1.13883,-1.66762 -1.45721,-3.82031 -1.85268,-8.02292 -1.23755,-12.05837 -2.14495,-2.23445 -2.59333,1.886 -2.96399,3.35307 -0.26529,1.32966 -2.6036,4.20038 -2.08803,4.31129 -1.74331,-1.92222 -0.98686,-4.58047 -0.68138,-6.90199 -0.42037,-3.22992 -2.55728,0.76778 -2.35736,2.33713 -1.28312,3.75572 -3.86506,7.55687 -7.9873,8.44378 -0.64595,0.25446 0.82605,0.33788 0.60961,0.26088 z" />
    <path
       id="path324"
       style="opacity:1;fill:#00aad4;fill-opacity:1;stroke:#00aad4;stroke-width:0.529998;stroke-linecap:round;stroke-opacity:1"
       d="m 131.41304,361.47399 c 2.3275,2.83131 2.69991,6.78974 1.97927,10.27341 -1.56974,1.54552 0.42977,4.27331 2.04086,2.23967 0.44933,-1.87019 0.0626,-3.87811 0.25607,-5.81025 -0.10763,-2.44801 -0.79073,-5.06592 -2.69407,-6.7428 -0.5219,-0.21672 -1.05101,0.0905 -1.58213,0.04 z" />
    <path
       id="path326"
       style="opacity:1;fill:#00aad4;fill-opacity:1;stroke:#00aad4;stroke-width:0.529998;stroke-linecap:round;stroke-opacity:1"
       d="m 134.00161,375.26045 c 1.35509,-1.93188 3.76133,-2.57392 5.94817,-3.01544 0.64421,-0.24914 1.71886,-0.0651 2.13315,-0.43653 -1.01763,-0.26443 -2.15992,-0.19181 -3.22188,-0.1 -1.80445,0.31393 -3.66492,0.78016 -5.18346,1.84394 -1.01175,0.56661 -1.98592,2.0585 -0.10657,1.6545 l 0.2414,0.0107 z" />
    <path
       id="path328"
       style="opacity:1;fill:#00aad4;fill-opacity:1;stroke:#00aad4;stroke-width:0.529998;stroke-linecap:round;stroke-opacity:1"
       d="m 134.96684,368.93145 c 1.56582,-1.82399 4.07986,-2.19507 6.30104,-2.65897 0.66333,0.0298 0.96425,-0.31753 0.18385,-0.46038 -1.3266,-0.0228 -2.65935,0.1236 -3.93019,0.53238 -1.47551,0.40116 -2.89852,1.05383 -3.99183,2.14938 -0.3887,0.64362 1.15317,0.25282 1.43713,0.43759 z" />
    <path
       id="path330"
       style="opacity:1;fill:#00aad4;fill-opacity:1;stroke:#00aad4;stroke-width:0.529998;stroke-linecap:round;stroke-opacity:1"
       d="m 133.37987,364.02849 c 1.64442,-0.16237 3.32843,-0.60325 4.63913,-1.65439 1.07664,-0.19926 1.05794,-2.05268 -0.1962,-1.75573 -0.92997,0.22891 -1.94192,0.40405 -2.68435,1.05285 -1.07427,0.97756 -2.34046,1.7735 -3.78059,2.06597 0.67402,0.097 1.34793,0.19475 2.02201,0.2913 z" />
    <path
       id="path332"
       style="opacity:1;fill:#00aad4;fill-opacity:1;stroke:#00aad4;stroke-width:0.529998;stroke-linecap:round;stroke-opacity:1"
       d="m 146.33833,372.77567 c 2.76623,-3.10382 4.09576,-7.1343 5.36301,-10.99768 1.55039,-2.22769 -3.15529,-2.35661 -2.25175,-0.082 0.45795,2.95802 1.35825,5.8766 2.92232,8.4491 0.77032,1.23252 3.84884,0.81572 1.99048,-0.79237 -1.75326,-2.34845 -2.29116,-5.37508 -2.27436,-8.24505 -0.37319,-2.06006 -3.64337,-0.9941 -3.04317,1.0034 -0.93633,3.68582 -2.53598,7.23433 -4.79229,10.31183 0.54753,0.60441 1.42303,0.0812 2.08576,0.35281 z" />
    <path
       id="path334"
       style="opacity:1;fill:#00aad4;fill-opacity:1;stroke:#00aad4;stroke-width:0.529998;stroke-linecap:round;stroke-opacity:1"
       d="m 149.17272,369.68295 c 0.96059,-0.20898 2.02007,-0.31817 2.7854,-1.00015 -0.19476,-0.4111 0.87158,-1.07592 0.18944,-0.7325 -0.92997,0.31004 -1.93238,0.29176 -2.85233,0.64789 -0.8891,0.27593 -1.7703,0.60416 -2.69796,0.72679 0.85848,0.11932 1.71696,0.23867 2.57545,0.35797 z" />
    <path
       id="path336"
       style="opacity:1;fill:#00aad4;fill-opacity:1;stroke:#00aad4;stroke-width:0.529998;stroke-linecap:round;stroke-opacity:1"
       d="m 159.65331,371.99093 c 1.46332,-3.61736 2.25578,-7.46533 3.50073,-11.15136 0.29899,-0.11048 -1.40935,-0.1749 -1.92843,-0.32072 -1.72778,-0.12342 0.0798,2.0899 -0.005,3.00331 0.73133,2.51521 1.46772,5.09018 2.94559,7.28674 1.19682,0.7739 2.74428,0.14286 4.04631,0.0758 1.21739,-0.80467 1.47084,-2.40206 2.10252,-3.63366 0.61746,-1.52217 1.16558,-3.0735 1.61251,-4.65454 0.19718,-1.35624 -1.1235,-2.8571 -2.28797,-1.56633 -1.05876,0.83966 -1.56557,2.11818 -1.82111,3.40834 -0.68283,1.89469 -1.0848,3.93622 -2.23905,5.62386 -1.14123,1.05001 2.17635,0.39838 1.95071,0.68524 -1.4515,-0.28696 -1.83519,-2.00511 -2.31182,-3.1925 -0.73421,-2.25695 -1.41437,-4.53718 -1.86981,-6.86874 -0.9238,-0.35894 -2.94639,-0.85647 -3.23348,0.33724 -0.70787,3.50444 -1.7563,6.93468 -2.76304,10.36052 -0.0982,1.09408 1.67273,0.34315 2.30157,0.60685 z" />
    <path
       id="path338"
       style="opacity:1;fill:#000000;fill-opacity:1;stroke:#000000;stroke-width:0.529998;stroke-linecap:round;stroke-opacity:1"
       d="m 18.980327,363.73611 c -1.390731,1.85261 -2.051898,4.79121 -0.357615,6.66502 1.595879,1.29289 3.899177,0.84146 5.759195,0.51995 2.314196,-1.1664 3.15725,-4.14721 2.808698,-6.56937 -0.205388,-1.91823 -1.215462,-4.23769 -3.498986,-4.10718 -1.822743,-0.3483 -4.107282,0.2277 -4.634235,2.24683 -1.025332,1.95078 2.628295,2.88209 2.782054,0.84354 -0.279346,-1.21105 1.522898,-2.36548 1.743164,-2.55867 -0.509915,-0.0394 -2.433327,-0.14627 -0.909791,0.32766 1.766695,1.36797 1.803106,3.96341 1.479583,5.98281 -0.11363,1.67782 -1.903969,3.33317 -2.98725,3.64454 0.743268,0.0197 2.367912,0.10701 0.740876,-0.24269 -1.764671,-1.08888 -1.687816,-3.66184 -0.765457,-5.29117 1.225158,-2.04243 -1.000964,-1.16366 -2.160236,-1.46127 z" />
    <path
       id="path340"
       style="opacity:0.2;fill:#ff2a2a;fill-opacity:1;stroke:#ff2a2a;stroke-width:0.529998;stroke-linecap:round;stroke-opacity:1"
       d="m 40.154089,246.17967 c 0.116994,1.82949 0.38492,3.64836 0.80758,5.43043 0.120601,0.51023 0.02462,1.60584 0.209951,1.75144 0.238703,-0.73147 -0.23787,-1.49443 -0.0076,-2.25006 0.141326,-1.28402 0.354197,-2.56602 0.30716,-3.8608 0.250056,-0.73198 -0.188048,-1.39523 -0.987105,-1.07499 l -0.165197,0.001 -0.164786,0.002 z" />
    <path
       id="path342"
       style="opacity:0.2;fill:#ff2a2a;fill-opacity:1;stroke:#ff2a2a;stroke-width:0.529998;stroke-linecap:round;stroke-opacity:1"
       d="m 40.052949,261.87807 c 0.0098,2.27428 0.06149,4.54947 0.217664,6.81884 0.38897,-0.68474 -0.08462,-1.50709 0.119753,-2.25009 0.02508,-1.35122 0.09276,-2.70131 0.110708,-4.05269 0.176808,-0.33399 -0.06743,-0.69259 -0.448125,-0.51606 z" />
    <path
       id="path344"
       style="opacity:0.2;fill:#ff2a2a;fill-opacity:1;stroke:#ff2a2a;stroke-width:0.529998;stroke-linecap:round;stroke-opacity:1"
       d="m 40.352459,278.71389 c 0.02107,1.00494 0.07451,2.01244 0.277462,2.99828 0.101874,0.47248 -0.0062,1.28055 0.173468,1.5477 0.270358,-0.4646 -0.109238,-1.05085 0.07879,-1.56739 0.06663,-0.83603 0.248578,-1.66045 0.271434,-2.50037 0.30741,-0.62979 -0.452611,-0.474 -0.801152,-0.47822 z" />
    <path
       id="path346"
       style="opacity:0.2;fill:#ff2a2a;fill-opacity:1;stroke:#ff2a2a;stroke-width:0.529998;stroke-linecap:round;stroke-opacity:1"
       d="m 40.949659,294.99567 c 0.01614,0.73752 0.269018,1.45167 0.230009,2.19364 0.106656,0.34861 -0.118507,0.93445 0.199408,1.13043 0.148298,-0.40672 -0.06391,-0.94569 -0.03261,-1.40628 -0.0465,-0.56051 0.05002,-1.11463 0.147058,-1.66335 0.05028,-0.41386 -0.30988,-0.2223 -0.543861,-0.25444 z" />
    <path
       id="path348"
       style="opacity:0.2;fill:#ff2a2a;fill-opacity:1;stroke:#ff2a2a;stroke-width:0.529998;stroke-linecap:round;stroke-opacity:1"
       d="m 41.126135,308.13997 c 0.0344,1.99826 0.0992,3.99674 0.06402,5.99548 0.456099,-0.49063 0.02782,-1.25352 0.250071,-1.84981 0.09907,-1.38096 0.283816,-2.75866 0.266383,-4.14567 -0.193491,0 -0.386983,0 -0.580474,0 z" />
    <path
       id="path350"
       style="opacity:0.2;fill:#ff2a2a;fill-opacity:1;stroke:#ff2a2a;stroke-width:0.529998;stroke-linecap:round;stroke-opacity:1"
       d="m 40.904769,322.27775 c -0.105489,1.19256 0.445931,2.33729 0.317675,3.53112 0.240617,0.43485 0.192003,-0.33903 0.175963,-0.53022 -0.01263,-1.03062 0.485391,-1.97431 0.549388,-2.99348 -0.347544,-0.002 -0.696195,-0.002 -1.043026,-0.007 z" />
    <path
       id="path352"
       style="opacity:0.2;fill:#ff2a2a;fill-opacity:1;stroke:#ff2a2a;stroke-width:0.529998;stroke-linecap:round;stroke-opacity:1"
       d="m 41.325885,334.96932 c 0.103511,0.63659 0.351108,1.25255 0.335259,1.90569 0.08173,0.26304 0.301942,-0.0349 0.169257,-0.17989 -0.09399,-0.57787 0.04201,-1.15649 0.125979,-1.72656 -0.210152,3.3e-4 -0.42041,7e-5 -0.630495,7.6e-4 z" />
    <path
       id="path354"
       style="opacity:0.2;fill:#ff2a2a;fill-opacity:1;stroke:#ff2a2a;stroke-width:0.529998;stroke-linecap:round;stroke-opacity:1"
       d="m 41.005357,344.49571 c 0.118211,1.35151 0.183326,2.7363 0.692097,4.01125 -0.0323,0.19222 0.07896,0.96586 0.228946,0.6198 -0.144952,-0.64946 -0.04294,-1.30632 0.0991,-1.94382 0.111488,-0.86057 0.01262,-1.72966 0.0701,-2.59306 -0.31923,-0.24105 -0.739727,-0.0115 -1.090245,-0.0942 z" />
    <path
       id="path356"
       style="opacity:0.2;fill:#ff2a2a;fill-opacity:1;stroke:#ff2a2a;stroke-width:0.529998;stroke-linecap:round;stroke-opacity:1"
       d="m 257.12241,332.98964 c -0.16221,0.80291 -0.10433,1.63285 -0.0633,2.44392 0.10926,0.6792 0.43576,1.29296 0.69377,1.92282 0.52581,-0.22595 0.3538,-0.96889 0.66025,-1.3859 0.29396,-0.74646 0.1976,-1.55397 0.33868,-2.32702 0.19405,-0.75808 -0.64107,-0.68255 -1.12247,-0.6387 -0.16894,-10e-4 -0.33893,-0.008 -0.50689,-0.0151 z" />
    <path
       id="path358"
       style="opacity:0.2;fill:#ff2a2a;fill-opacity:1;stroke:#ff2a2a;stroke-width:0.529998;stroke-linecap:round;stroke-opacity:1"
       d="m 257.36987,344.46059 c -0.0981,0.73026 -0.24722,1.57448 0.25539,2.1979 0.32864,0.26059 0.46533,0.53202 0.49009,0.93485 0.27047,0.0157 -0.0653,-0.6309 0.2107,-0.81774 0.4227,-0.35857 0.71548,-0.84648 0.62685,-1.42887 0.0745,-0.43807 0.0409,-1.09818 -0.58377,-0.87651 -0.33315,0.006 -0.66612,-0.0139 -0.99926,-0.01 z" />
    <path
       id="path360"
       style="opacity:0.2;fill:#ff2a2a;fill-opacity:1;stroke:#ff2a2a;stroke-width:0.529998;stroke-linecap:round;stroke-opacity:1"
       d="m 256.61585,315.63927 c 0.0466,0.91836 0.0855,1.84627 0.31682,2.73955 0.002,0.23778 -0.0623,0.93061 0.17907,0.83961 0.0363,-0.4963 -0.09,-1.00047 0.0785,-1.48604 0.12147,-0.69129 0.14116,-1.39453 0.21789,-2.0911 -0.26408,-7.2e-4 -0.52818,-8.9e-4 -0.79225,-0.002 z" />
    <path
       id="path362"
       style="opacity:0.2;fill:#ff2a2a;fill-opacity:1;stroke:#ff2a2a;stroke-width:0.529998;stroke-linecap:round;stroke-opacity:1"
       d="m 257.20917,297.45613 c -0.28069,0.78183 -0.12303,1.62342 -0.12763,2.43241 0.0509,0.69494 0.49886,1.30009 0.36396,2.01899 -0.0167,0.37859 0.1903,0.5255 0.17456,0.0582 -0.0942,-0.60689 0.0903,-1.16445 0.31227,-1.71566 0.16879,-0.72112 0.10584,-1.47072 0.21041,-2.1996 0.0247,-0.57302 -0.46206,-0.71653 -0.93357,-0.59433 z" />
    <path
       id="path364"
       style="opacity:0.2;fill:#ff2a2a;fill-opacity:1;stroke:#ff2a2a;stroke-width:0.529998;stroke-linecap:round;stroke-opacity:1"
       d="m 257.43185,275.34511 c 0.0285,1.79072 0.5228,3.53978 0.46325,5.3346 0.0938,0.47996 -0.14723,1.50414 0.22867,1.64359 0.0763,-0.73472 -0.0896,-1.48674 -0.078,-2.23197 -0.0998,-1.41698 0.23656,-2.80563 0.3194,-4.21291 0.21382,-0.72944 -0.50812,-0.53728 -0.93336,-0.53331 z" />
    <path
       id="path366"
       style="opacity:0.2;fill:#ff2a2a;fill-opacity:1;stroke:#ff2a2a;stroke-width:0.529998;stroke-linecap:round;stroke-opacity:1"
       d="m 256.97717,258.55031 c 0.0573,1.02432 -0.21262,2.08696 0.18319,3.07327 0.0831,0.36942 -0.10754,1.30866 0.14117,1.32128 0.0903,-0.6465 -0.0262,-1.33138 0.32529,-1.92176 0.25777,-0.77602 0.22046,-1.60577 0.36913,-2.40259 -0.30636,-0.19283 -0.68742,0.008 -1.01878,-0.0702 z" />
    <path
       id="path368"
       style="opacity:0.2;fill:#ff2a2a;fill-opacity:1;stroke:#ff2a2a;stroke-width:0.529998;stroke-linecap:round;stroke-opacity:1"
       d="m 256.98777,239.48319 c -0.0722,0.76485 -0.037,1.55281 0.23814,2.27747 0.1136,0.3121 0.0478,0.93239 0.32657,1.04186 0.23417,-0.40363 -0.007,-0.93069 0.2222,-1.36376 0.17575,-0.54034 0.18465,-1.10528 0.2628,-1.65965 0.0594,-0.46397 -0.55676,-0.24283 -0.83051,-0.28797 -0.0731,-9e-5 -0.14636,-0.002 -0.2192,-0.008 z" />
    <path
       id="path372"
       style="opacity:0.2;fill:#ff2a2a;fill-opacity:1;stroke:#ff2a2a;stroke-width:0.529998;stroke-linecap:round;stroke-opacity:1"
       d="m 146.85803,344.53833 c 2.35863,-7.18597 12.47703,-9.90552 18.3984,-8.3941 8.45977,2.64919 17.19206,10.87256 26.40898,6.04656 3.90629,-0.63311 11.09906,-7.29463 8.56175,-8.92241 5.30573,6.15691 13.96805,11.20492 22.68855,10.52872 8.38276,1.60708 13.17893,-5.47829 20.09541,-8.21414 4.55895,-0.75656 -0.003,-0.6592 4.34329,0.89646 2.45794,1.08212 7.75793,12.04326 7.88468,5.11397 -3.29126,-7.16868 -12.90523,-9.21388 -19.10951,-4.60504 -4.75506,4.18494 -10.58441,7.74957 -17.19137,5.88963 -7.95748,-0.50578 -12.13124,-9.37194 -19.60198,-10.14392 -2.64264,4.65511 -11.6422,10.7502 -13.70341,10.23588 -9.74886,-1.52826 -18.10142,-10.7091 -28.5353,-7.19948 -3.59837,-0.1199 -14.37805,5.95962 -10.23949,8.76787 z" />
    <path
       id="path374"
       style="opacity:0.2;fill:#ff2a2a;fill-opacity:1;stroke:#ff2a2a;stroke-width:0.529998;stroke-linecap:round;stroke-opacity:1"
       d="m 184.19245,317.60657 c 0.43985,-1.50584 3.10654,-2.79903 3.54572,-2.99834 -1.34088,-0.0471 0.85658,1.26242 0.18352,2.187 -0.2279,3.64467 -1.9516,7.12249 -4.72603,9.50434 -0.54576,0.73681 -3.25327,1.89884 -1.06007,1.54174 0.84009,0.25188 3.82576,-0.65776 2.91999,-1.17514 -0.86856,-0.0876 -1.75018,0.27413 -0.40447,0.55725 1.87755,1.28638 4.15178,2.23133 6.43876,1.58935 0.69213,-0.44128 -1.33404,-0.19084 0.28454,-0.32359 -1.90649,-0.14616 -4.05598,-2.03909 -6.23219,-2.25364 -1.37649,-0.65327 -5.08359,1.30853 -2.13637,1.83754 1.82279,0.4056 2.75071,-1.4921 3.85146,-2.54965 1.97632,-2.12485 3.235,-4.88113 3.32878,-7.80006 0.58459,-2.04611 -0.80841,-4.09089 -3.06247,-3.46865 -1.87831,0.0442 -3.65069,1.19705 -4.55599,2.82264 -0.58585,0.99892 1.25944,0.19971 1.62482,0.52921 z" />
    <path
       id="path376"
       style="opacity:0.2;fill:#ff2a2a;fill-opacity:1;stroke:#ff2a2a;stroke-width:0.529998;stroke-linecap:round;stroke-opacity:1"
       d="m 203.60777,317.64939 c -1.53864,-0.061 -3.27178,-0.28419 -4.5919,0.69048 -0.7781,0.64456 -0.64444,1.88511 0.0413,2.54485 0.78356,0.91193 2.01534,1.57679 2.25653,2.84645 0.13674,1.39337 -1.00966,2.49868 -2.12658,3.12659 -0.35976,0.32586 -1.67063,0.33312 -1.11964,1.05962 1.10313,0.19691 2.28399,0.19859 3.35906,-0.16037 1.17264,-0.52591 2.45143,-1.38263 2.63283,-2.76263 0.13168,-1.25777 -0.79627,-2.28307 -1.68207,-3.04291 -0.63225,-0.60065 -1.44699,-1.07936 -1.83523,-1.88736 -0.29143,-0.64806 -0.0153,-1.50797 0.68281,-1.75398 0.28503,-0.19218 1.06711,-0.26162 1.14524,-0.38814 -0.35625,0.002 -1.09825,0.0186 -0.31936,-0.0395 0.52151,-0.0607 1.03506,-0.17614 1.55703,-0.23313 z" />
    <path
       id="path378"
       style="opacity:0.2;fill:#ff2a2a;fill-opacity:1;stroke:#ff2a2a;stroke-width:0.529998;stroke-linecap:round;stroke-opacity:1"
       d="m 210.69323,317.85865 c 0.27927,2.85119 -0.12381,5.70067 -0.269,8.54634 0.51449,0.90107 1.79242,0.98612 2.52299,0.31359 0.58604,-0.98241 0.1365,-2.23496 0.21715,-3.32505 -0.10028,-1.78441 -0.30917,-3.56019 -0.44728,-5.34166 -0.57175,-0.512 -1.36321,-0.0428 -2.02386,-0.19322 z" />
    <path
       id="path380"
       style="opacity:0.2;fill:#ff2a2a;fill-opacity:1;stroke:#ff2a2a;stroke-width:0.529998;stroke-linecap:round;stroke-opacity:1"
       d="m 210.70945,318.71417 c 2.08729,-0.27568 4.11128,-0.87904 6.17895,-1.25943 -0.43939,-0.9045 -1.73816,-0.35049 -2.55066,-0.54886 -1.39685,0.077 -2.69769,0.66781 -4.07087,0.89285 -0.58711,0.17222 -2.0365,0.41317 -2.06565,0.58583 0.83608,0.10989 1.67229,0.2187 2.50823,0.32961 z" />
    <path
       id="path382"
       style="opacity:0.2;fill:#ff2a2a;fill-opacity:1;stroke:#ff2a2a;stroke-width:0.529998;stroke-linecap:round;stroke-opacity:1"
       d="m 221.15649,317.00979 c -5.2e-4,3.07488 -0.23416,6.14789 -0.65683,9.19295 0.50711,0.92246 2.00743,0.86588 2.73224,0.27826 0.52208,-0.89313 0.25657,-2.00846 0.31648,-3.00004 -0.0785,-1.36027 -0.094,-2.74495 -0.26855,-4.08698 -0.10913,-0.94895 0.15049,-2.90061 -1.4313,-2.37891 -0.22883,0.0307 -0.46507,0.0502 -0.69204,-0.005 z" />
    <path
       id="path384"
       style="opacity:0.2;fill:#ff2a2a;fill-opacity:1;stroke:#ff2a2a;stroke-width:0.529998;stroke-linecap:round;stroke-opacity:1"
       d="m 222.74009,317.87569 c 0.50674,-0.51029 2.38999,-0.60269 2.19267,-0.60958 -1.62156,0.0251 1.11499,0.38943 1.20861,1.10268 1.31837,1.34895 0.70898,3.33892 -0.3143,4.64952 -0.92301,1.29736 -2.25125,2.31395 -3.76575,2.81709 -1.01624,1.22262 1.78081,0.69277 2.37289,0.61687 2.0797,-0.57707 3.83654,-2.21932 4.76965,-4.14485 0.85854,-1.65182 0.22662,-3.79512 -1.38033,-4.73251 -1.59041,-1.01602 -3.57049,-0.68413 -5.34702,-0.56285 -0.8767,0.0848 -2.54098,0.84475 -0.74691,0.7702 0.33695,0.0297 0.67437,0.0549 1.01049,0.0934 z" />
    <path
       id="path386"
       style="opacity:0.2;fill:#ff2a2a;fill-opacity:1;stroke:#ff2a2a;stroke-width:0.529998;stroke-linecap:round;stroke-opacity:1"
       d="m 200.09069,345.85197 c 0.29654,2.26422 0.25927,4.55913 0.26008,6.8378 -0.0683,1.01202 -0.60321,2.84706 1.08229,2.47351 1.16355,0.27194 1.80498,-0.61923 1.40641,-1.69754 -0.098,-1.68447 -0.15601,-3.38265 -0.26436,-5.07014 -0.35569,-0.80474 -0.0712,-2.0175 -0.84099,-2.52962 -0.53746,-0.15503 -1.09739,0.0241 -1.64343,-0.014 z" />
    <path
       id="path511"
       style="opacity:1;fill:#44aa00;stroke:#44aa00;stroke-width:0.529998;stroke-linecap:round"
       d="m 81.357749,343.85575 c 0.200578,1.56405 0.308609,3.13795 0.484443,4.7047 0.259321,0.45516 0.492518,0.96218 0.917167,1.28632 0.268778,-0.12293 0.319174,-0.55115 0.497407,-0.80102 0.209451,-0.42193 0.310805,-0.91804 0.148665,-1.37359 -0.159981,-1.28471 -0.400318,-2.55791 -0.640352,-3.82985 -0.469101,0.004 -0.93829,0.01 -1.40733,0.0134 z" />
    <path
       id="path513"
       style="opacity:1;fill:#44aa00;stroke:#44aa00;stroke-width:0.529998;stroke-linecap:round"
       d="m 81.684561,330.17833 c -8.81e-4,1.12839 0.0054,2.30241 0.484806,3.34622 -0.01429,0.34319 0.501059,0.9674 0.514729,0.27443 0.125421,-0.77647 0.226319,-1.5638 0.120421,-2.34961 -0.03983,-0.42168 -0.09127,-0.84401 -0.08012,-1.26838 -0.346508,-1.2e-4 -0.693902,-0.001 -1.03984,-0.003 z" />
    <path
       id="path515"
       style="opacity:1;fill:#44aa00;stroke:#44aa00;stroke-width:0.529998;stroke-linecap:round"
       d="m 82.008115,314.97169 c -0.19592,1.28881 -0.257488,2.68203 0.343103,3.87961 -0.03131,0.20873 0.15278,0.93247 0.215122,0.38296 -0.132069,-0.65671 0.354492,-1.23166 0.366342,-1.88356 0.112569,-0.78223 0.08992,-1.57606 0.186172,-2.35989 -0.370246,-0.006 -0.740503,-0.0145 -1.110739,-0.0191 z" />
    <path
       id="path517"
       style="opacity:1;fill:#44aa00;stroke:#44aa00;stroke-width:0.529998;stroke-linecap:round"
       d="m 82.609401,297.43271 c 0.07775,1.09215 0.06376,2.20986 0.40228,3.26334 -0.06835,0.39797 0.468345,0.34378 0.317289,-0.0402 0.108447,-1.07171 0.219921,-2.14602 0.213701,-3.22457 -0.310946,0.001 -0.623083,-0.004 -0.93327,0.001 z" />
    <path
       id="path519"
       style="opacity:1;fill:#44aa00;stroke:#44aa00;stroke-width:0.529998;stroke-linecap:round"
       d="m 82.279889,280.71289 c -0.05813,0.96645 -0.167982,1.95303 -0.0014,2.91201 0.169785,0.7888 0.430676,1.56873 0.435989,2.38328 0.398987,0.49941 -0.0031,-0.82154 0.169202,-1.1108 0.177942,-0.81226 0.533737,-1.59278 0.500577,-2.44171 -0.0979,-0.59133 0.434409,-1.88651 -0.559787,-1.75306 -0.180593,0.0166 -0.364475,0.0543 -0.544568,0.0103 z" />
    <path
       id="path521"
       style="opacity:1;fill:#44aa00;stroke:#44aa00;stroke-width:0.529998;stroke-linecap:round"
       d="m 81.497993,265.17971 c 0.09279,0.97965 0.138455,1.98428 0.532171,2.90185 0.168342,0.20723 0.106489,0.93763 0.373041,0.81053 -0.152578,-0.58964 0.05835,-1.18141 0.147093,-1.77154 0.0586,-0.62382 0.06878,-1.25097 0.05704,-1.87721 -0.349121,-0.17687 -0.742005,-0.006 -1.109342,-0.0636 z" />
    <path
       id="path523"
       style="opacity:1;fill:#44aa00;stroke:#44aa00;stroke-width:0.529998;stroke-linecap:round"
       d="m 81.622341,248.96383 c 0.05755,1.16885 0.05222,2.36696 0.457541,3.48124 -0.06612,0.36967 0.422019,1.12383 0.390974,0.36101 -0.06297,-0.64942 0.212282,-1.26258 0.259616,-1.90488 0.08871,-0.64251 0.142889,-1.28902 0.203945,-1.93455 -0.437304,-5.2e-4 -0.87507,-0.001 -1.312076,-0.003 z" />
    <path
       id="path525"
       style="opacity:1;fill:#44aa00;stroke:#44aa00;stroke-width:0.529998;stroke-linecap:round"
       d="m 82.137619,239.08937 c 0.219516,0.36108 0.421714,0.7411 0.481074,1.16493 0.188471,0.45118 0.379466,-0.17771 0.35298,-0.39303 -0.01791,-0.28715 0.409636,-0.55252 0.316492,-0.75808 -0.382526,-0.0204 -0.767316,-0.002 -1.150546,-0.0138 z" />
    <path
       id="path527"
       style="opacity:1;fill:#44aa00;stroke:#44aa00;stroke-width:0.529998;stroke-linecap:round"
       d="m 217.17355,296.70361 c -0.008,0.91724 -0.10975,1.83513 -0.11345,2.74965 -0.05,0.55995 0.54799,0.91996 0.47047,1.41486 -0.18351,0.44713 0.25828,0.5328 0.17932,0.0512 0.0357,-0.63045 0.71737,-1.01587 0.70979,-1.7248 0.025,-0.82796 0.0988,-1.6554 0.20874,-2.47759 -0.48495,-0.004 -0.96998,-0.0102 -1.45487,-0.0134 z" />
    <path
       id="path529"
       style="opacity:1;fill:#44aa00;stroke:#44aa00;stroke-width:0.529998;stroke-linecap:round"
       d="m 217.03319,312.26235 c 0.18121,1.34608 0.19775,2.70985 0.41592,4.05153 0.39339,0.44241 0.33817,1.09039 0.63555,1.57907 0.005,-0.27664 0.0373,-0.66507 0.17259,-0.96193 0.18028,-0.45964 0.36433,-0.94022 0.30013,-1.44374 -0.0241,-1.03748 -0.10901,-2.07212 -0.18277,-3.10688 -0.39289,-0.30659 -0.90285,-0.0258 -1.34142,-0.11805 z" />
    <path
       id="path531"
       style="opacity:1;fill:#44aa00;stroke:#44aa00;stroke-width:0.529998;stroke-linecap:round"
       d="m 216.89783,327.90415 c 0.0432,1.58874 0.0606,3.19753 0.46355,4.7448 -0.0483,0.38752 0.18593,1.70384 0.37626,0.73953 0.18157,-1.21749 0.59861,-2.39096 0.67086,-3.62757 -0.0999,-0.60313 0.44433,-1.40456 -0.14839,-1.83179 -0.43303,-0.15774 -0.9077,0.0418 -1.36228,-0.025 z" />
    <path
       id="path533"
       style="opacity:1;fill:#44aa00;stroke:#44aa00;stroke-width:0.529998;stroke-linecap:round"
       d="m 217.63229,342.18125 c -0.17523,0.81434 -0.009,1.64754 -0.0636,2.4699 0.11648,0.42788 0.47625,1.29477 0.97116,1.11304 0.38116,-0.39194 0.65549,-0.91808 0.63046,-1.47592 -0.0246,-0.63061 0.15267,-1.26716 0.0452,-1.89062 -0.21941,-0.47522 -0.84395,-0.094 -1.24914,-0.21522 -0.11128,-0.002 -0.22335,-0.004 -0.3341,-0.001 z" />
    <path
       id="path535"
       style="opacity:1;fill:#44aa00;stroke:#44aa00;stroke-width:0.529998;stroke-linecap:round"
       d="m 216.84313,281.69305 c -0.17748,1.21361 -0.25725,2.50924 0.2435,3.66098 0.0939,0.58399 0.66849,0.003 0.66602,-0.33273 0.48348,-1.0317 0.61632,-2.18359 0.658,-3.31007 -0.5225,-0.006 -1.04506,-0.0118 -1.56752,-0.0182 z" />
    <path
       id="path537"
       style="opacity:1;fill:#44aa00;stroke:#44aa00;stroke-width:0.529998;stroke-linecap:round"
       d="m 216.44901,266.16895 c -0.22972,1.3644 -0.25702,2.75819 -0.13719,4.13505 0.28385,0.39942 0.44597,1.42278 0.65384,1.48278 -0.0587,-0.87095 0.63283,-1.5451 0.51418,-2.44544 0.0375,-1.00567 0.1203,-2.01205 0.0683,-3.01892 -0.27945,-0.3448 -0.74136,-0.0551 -1.09913,-0.15347 z" />
    <path
       id="path539"
       style="opacity:1;fill:#44aa00;stroke:#44aa00;stroke-width:0.529998;stroke-linecap:round"
       d="m 216.29923,251.71691 c -0.002,0.86416 -0.0153,1.73486 0.035,2.59481 0.0245,0.36256 0.2708,0.82733 0.44526,0.93918 -0.0842,0.25794 0.28141,0.69254 0.21833,0.18139 0.1001,-0.56373 0.62971,-1.00287 0.48075,-1.62538 0.0125,-0.69683 0.0722,-1.39269 0.0567,-2.08998 -0.412,-1e-5 -0.82401,3e-5 -1.23601,-2e-5 z" />
    <path
       id="path541"
       style="opacity:1;fill:#44aa00;stroke:#44aa00;stroke-width:0.529998;stroke-linecap:round"
       d="m 216.05595,237.66801 c 0.0277,0.92759 -0.16744,1.92477 0.32667,2.77148 0.27938,0.31551 0.28663,0.90015 0.4085,1.14367 0.0463,-0.47368 0.18834,-0.91914 0.48961,-1.32803 0.28231,-0.62728 0.3436,-1.33144 0.29337,-2.01096 0.21623,-0.82191 -0.84143,-0.56052 -1.31002,-0.5765 -9e-5,0.0694 -0.20832,-0.0693 -0.20813,3.4e-4 z" />
    <path
       id="path543"
       style="opacity:1;fill:#44aa00;stroke:#44aa00;stroke-width:0.529998;stroke-linecap:round"
       d="m 216.00025,229.39701 c -0.0754,0.37508 0.14338,0.68073 0.34194,0.96612 0.23279,0.29993 0.15338,0.80503 0.42136,1.0301 0.27658,-0.18219 0.16911,-0.63806 0.3736,-0.89872 0.0996,-0.34498 0.50436,-0.53249 0.48356,-0.91276 -0.13596,-0.36679 -0.68605,-0.10726 -0.99056,-0.17889 -0.20993,-0.006 -0.41993,-0.006 -0.6299,-0.006 z" />
    <path
       id="path549"
       style="opacity:1;fill:#44aa00;stroke:#44aa00;stroke-width:0.529998;stroke-linecap:round"
       d="m 180.55496,345.38043 c 0.24732,2.8809 -0.006,5.77084 0.0256,8.65588 -0.54761,1.35501 1.83062,2.13164 2.35388,0.87564 0.20672,-1.23813 -0.0444,-2.52263 0.0395,-3.78363 -0.0499,-1.84428 -0.048,-3.71945 -0.39831,-5.53035 -0.48663,-0.62732 -1.38522,-0.0365 -2.02066,-0.21754 z" />
    <path
       id="path551"
       style="opacity:1;fill:#44aa00;stroke:#44aa00;stroke-width:0.529998;stroke-linecap:round"
       d="m 146.68205,340.57727 c 2.06115,-4.91239 10.25426,-8.47616 13.37323,-7.62206 5.20838,2.66735 10.08707,8.35672 16.81959,5.996 3.40954,-0.26381 9.36392,-6.31963 5.81807,-8.20126 -3.52707,4.32758 4.53875,8.5576 8.4996,7.96547 5.55959,0.048 9.60764,-4.58534 15.09298,-4.93229 2.02484,-0.36847 -0.72948,-0.0481 2.52109,0.32604 4.09465,0.42537 4.04279,11.92349 7.82203,7.44644 -0.35007,-6.62674 -7.19876,-10.15877 -13.13831,-8.2265 -4.43121,0.47727 -9.89187,4.60824 -12.9055,4.92215 1.83985,-0.0511 -4.52228,-1.05568 -5.305,-3.22644 -0.75281,-1.75277 -1.99064,-6.66468 -4.22493,-3.38132 0.13227,4.1428 -5.91389,8.12426 -9.14628,6.81689 -5.00058,-1.32306 -8.34482,-7.50076 -14.2209,-6.24183 -5.21296,0.89321 -10.63165,3.39043 -13.20658,8.26011 l 1.10041,0.0503 z" />
    <path
       id="path567"
       style="opacity:1;fill:#44aa00;stroke:#44aa00;stroke-width:0.529998;stroke-linecap:round"
       d="m 171.5516,315.50527 c 0.12568,-0.67715 1.80528,-0.99255 0.4428,-0.65014 0.87379,2.33071 0.47908,4.89439 -0.62486,7.07338 -1.06435,2.29747 -2.74846,4.34532 -4.93294,5.65452 1.34305,0.61093 3.358,-1.07077 3.82271,-0.94401 -1.96945,0.0577 1.48133,0.40683 1.9348,0.6644 1.18503,0.34879 3.9309,0.44678 3.73164,-0.13224 -0.49096,-0.25029 -3.2912,-0.61402 -4.66547,-0.82208 -1.61013,-0.0225 -4.01828,-0.49729 -4.97122,1.07994 1.43433,1.85983 4.17958,-0.45116 5.10006,-2.00006 2.21237,-2.69096 3.94686,-6.33626 2.99656,-9.872 -0.69579,-1.47679 -3.13561,-1.55703 -4.1807,-0.44742 -0.0732,0.57951 1.0054,0.35446 1.34662,0.39571 z" />
    <path
       id="path569"
       style="opacity:1;fill:#44aa00;stroke:#44aa00;stroke-width:0.529998;stroke-linecap:round"
       d="m 184.82501,315.31769 c -2.04337,0.0616 -3.85978,2.88882 -1.78472,4.25075 1.74102,1.2506 2.47851,3.6131 1.08282,5.41001 -0.34976,1.51083 -2.5817,2.00056 -2.65992,3.36814 1.27213,1.04871 3.15094,-0.008 4.24747,-0.85593 1.71856,-1.56331 2.73535,-4.29169 1.36348,-6.39913 -0.80286,-1.2444 -3.23314,-2.22893 -2.23234,-4.05716 0.28562,-0.84022 2.50574,-1.10467 2.08596,-1.4138 -0.70087,-0.10132 -1.40246,-0.19764 -2.10275,-0.30288 z" />
    <path
       id="path571"
       style="opacity:1;fill:#44aa00;stroke:#44aa00;stroke-width:0.529998;stroke-linecap:round"
       d="m 191.98974,316.90194 c 0.73699,3.03146 0.42243,6.18461 0.80605,9.25252 0.33319,1.4461 2.55321,1.41223 2.59254,-0.18389 0.082,-1.40295 -0.1499,-2.81064 -0.23291,-4.21342 -0.18425,-1.61298 -0.42275,-3.27369 -1.02837,-4.77391 -0.64106,-0.39215 -1.43736,0.0691 -2.13731,-0.0813 z" />
    <path
       id="path573"
       style="opacity:1;fill:#44aa00;stroke:#44aa00;stroke-width:0.529998;stroke-linecap:round"
       d="m 191.13098,318.16645 c 2.22819,-0.64663 4.30468,-1.74428 6.26486,-2.96381 0.91954,-1.01997 -0.62391,-1.07096 -1.3017,-0.78353 -2.44794,0.52455 -4.52591,2.01151 -6.76663,3.04773 -1.02256,0.79976 1.46583,0.45887 1.80347,0.69961 z" />
    <path
       id="path575"
       style="opacity:1;fill:#44aa00;stroke:#44aa00;stroke-width:0.529998;stroke-linecap:round"
       d="m 201.00573,314.72755 c 0.1163,2.53702 -0.11457,5.10026 0.20197,7.62063 0.20389,0.63281 0.49317,2.48829 1.18718,2.11077 0.39837,-0.83309 0.6505,-1.75936 0.74452,-2.67637 0.0395,-2.27913 -0.18269,-4.5581 -0.4,-6.82524 -0.13783,-0.51897 -1.27131,-0.10487 -1.73367,-0.22979 z" />
    <path
       id="path577"
       style="opacity:1;fill:#44aa00;stroke:#44aa00;stroke-width:0.529998;stroke-linecap:round"
       d="m 201.62149,314.65763 c 0.33271,-0.071 1.90551,-0.44895 0.73944,-0.30205 2.58261,0.64135 3.52989,3.7374 2.98972,6.10024 -0.40355,2.18942 -1.69292,4.1993 -3.56506,5.41551 -1.52264,1.80693 2.05278,1.05004 2.85238,0.43171 2.24111,-1.60539 3.9154,-4.42087 3.52868,-7.23896 -0.52075,-2.35239 -2.1495,-5.10119 -4.8696,-5.05951 -0.74368,0.0632 -2.66372,-0.0779 -2.72271,0.52126 0.3434,0.0812 0.69769,0.0933 1.04715,0.1318 z" />
    <path
       id="path581"
       style="opacity:1;fill:#44aa00;stroke:#44aa00;stroke-width:0.529998;stroke-linecap:round"
       d="m 209.10883,326.42821 c -0.60732,0.0829 -1.54979,0.26007 -1.60673,1.00296 0.0429,0.86138 0.93636,1.32002 1.17555,2.09695 0.0621,0.63557 -0.78146,0.70303 -1.21671,0.91132 -0.64314,0.20326 -1.3091,0.33561 -1.97592,0.42219 0.7166,0.0628 1.445,-0.0129 2.15371,0.13574 -0.39118,0.13656 -1.04659,-0.0408 -1.28139,0.0595 0.0435,0.14042 -0.64205,0.14954 -0.16817,0.20588 1.50744,0.1608 3.13549,0.31109 4.54068,-0.37848 0.64203,-0.26313 0.81637,-1.08946 0.26375,-1.54531 -0.4152,-0.51191 -0.88932,-0.98743 -1.22648,-1.5556 -0.29,-0.65847 0.65867,-0.82731 1.11085,-0.92193 0.25103,-0.0274 0.85583,-0.0719 0.29496,-0.1217 -0.68804,-0.10358 -1.37649,-0.20599 -2.0641,-0.31152 z" />
    <path
       id="path585"
       style="opacity:0.2;fill:#ff2a2a;fill-opacity:1;stroke:#ff2a2a;stroke-width:0.529998;stroke-linecap:round;stroke-opacity:1"
       d="m 229.32289,329.21453 c 0.5509,-1.58635 1.2397,-3.12669 1.89076,-4.6698 0.19459,-0.6442 2.10614,-0.50792 0.78296,-0.46746 -0.40796,0.10796 -2.24708,-0.19898 -1.23677,0.24843 0.68237,0.74747 -0.36976,1.38557 -0.7011,1.85765 0.77032,0.41278 1.34839,0.336 2.30966,0.29728 1.25738,-0.19232 1.29099,-2.38479 0.0672,-2.68146 -1.06585,-9.8e-4 -2.24854,-0.26135 -3.24955,0.14833 -0.78188,0.56016 -0.90397,1.59786 -1.27959,2.42481 -0.30378,0.92156 -0.52385,1.87656 -0.95372,2.75168 0.79003,0.0303 1.58022,0.0598 2.37015,0.0905 z" />
    <path
       id="path587"
       style="opacity:1;fill:#ff2a2a;fill-opacity:1;stroke:#ff2a2a;stroke-width:0.529998;stroke-linecap:round;stroke-opacity:1"
       d="m 106.86406,223.32997 c -1.7757,0.34678 -3.65912,3.07136 -0.85826,3.5264 1.6807,0.33574 4.74655,1.25184 3.83931,3.5387 -1.47585,2.27515 -4.31608,3.02653 -6.70273,3.97135 -1.32311,0.88846 1.60789,0.73619 2.21668,0.71963 2.19094,-0.10438 4.25018,-1.14973 5.97533,-2.44128 1.77608,-1.32555 1.72435,-4.27811 -0.48706,-5.12959 -1.02203,-0.88201 -5.11747,-0.68964 -3.32559,-2.67529 0.57893,-0.42707 2.70227,-1.30899 0.80074,-1.35633 -0.49519,0.005 -0.97414,-0.0697 -1.45842,-0.15359 z" />
    <path
       id="path589"
       style="opacity:1;fill:#ff2a2a;fill-opacity:1;stroke:#ff2a2a;stroke-width:0.529998;stroke-linecap:round;stroke-opacity:1"
       d="m 116.87148,224.06603 c 1.40935,2.49378 1.28372,5.57182 0.35602,8.2085 -0.75005,1.24541 1.12659,2.04368 1.97728,1.24476 1.01856,-0.59568 0.86404,-1.9647 1.03357,-2.97292 0.11304,-2.11213 -0.28381,-4.27431 -1.23128,-6.16941 -0.49891,-0.70526 -1.43722,-0.31807 -2.13559,-0.31093 z" />
    <path
       id="path591"
       style="opacity:1;fill:#ff2a2a;fill-opacity:1;stroke:#ff2a2a;stroke-width:0.529998;stroke-linecap:round;stroke-opacity:1"
       d="m 113.19752,224.93343 c 2.48361,0.17608 5.02239,0.12768 7.42326,-0.59904 0.90858,-0.23967 1.79826,-0.54426 2.68365,-0.85745 0.11964,-0.59627 -0.6305,-0.79154 -1.08702,-0.72906 -0.968,0.0637 -1.95942,0.0721 -2.87524,0.43678 -1.58339,0.66553 -3.25158,1.17095 -4.96757,1.33346 0.81651,0.0255 1.63312,0.14075 2.45044,0.0699 -1.22267,-0.17556 -2.42142,0.21682 -3.62752,0.34541 z" />
    <path
       id="path593"
       style="opacity:1;fill:#ff2a2a;fill-opacity:1;stroke:#ff2a2a;stroke-width:0.529998;stroke-linecap:round;stroke-opacity:1"
       d="m 124.78345,223.92087 c 0.47586,2.83415 0.0951,5.7112 -0.21747,8.54051 -0.69393,1.08394 0.60312,2.13785 1.66081,1.76276 1.62485,0.0867 1.41429,-1.65905 1.2661,-2.75766 -0.11542,-2.39835 -0.19174,-4.80215 -0.41617,-7.19265 -0.38112,-0.90515 -1.60504,-0.11277 -2.29327,-0.35296 z" />
    <path
       id="path595"
       style="opacity:1;fill:#ff2a2a;fill-opacity:1;stroke:#ff2a2a;stroke-width:0.529998;stroke-linecap:round;stroke-opacity:1"
       d="m 125.65776,223.34721 c 0.59074,0.0358 0.6883,-0.22229 0.0263,-0.0296 1.69553,0.17033 3.87289,0.44024 4.6133,2.23289 0.6026,2.29082 -1.16652,4.28844 -2.63314,5.82198 -1.62076,1.4676 1.04516,1.98285 2.04512,1.14363 2.16669,-0.89395 3.36819,-3.26414 3.63791,-5.48742 0.11982,-1.63746 -1.12192,-3.04737 -2.68259,-3.37755 -2.12882,-0.62825 -4.43214,-0.91493 -6.62831,-0.5533 0.51489,0.15319 1.09018,0.14365 1.62141,0.24937 z" />
    <path
       id="path597"
       style="opacity:1;fill:#ff2a2a;fill-opacity:1;stroke:#ff2a2a;stroke-width:0.529998;stroke-linecap:round;stroke-opacity:1"
       d="m 134.69594,232.43245 c -0.46584,2.04766 -0.8289,4.15146 -1.75805,6.05433 -0.91367,1.20994 1.53101,0.47633 2.14923,0.64362 0.84488,-0.36057 -0.0388,-1.7941 0.37205,-2.61299 0.2189,-1.60118 0.78176,-3.26712 1.92904,-4.42766 0.56817,-0.3931 0.97745,-0.0902 0.11651,-0.15038 -0.62977,-0.1549 -1.59368,0.001 -1.14425,0.82223 -0.70692,1.01704 -0.13049,2.10632 1.15666,1.7156 1.25951,0.25191 2.71651,-1.07612 1.82571,-2.29624 -1.06182,-1.20687 -2.96359,-0.88663 -4.31854,-0.43517 -1.23643,0.66312 -1.5712,2.1855 -2.01923,3.40829 -0.36357,1.26996 -0.53091,2.58661 -0.62647,3.90123 0.94778,0.36913 2.14612,0.31076 3.08223,0.11922 0.16227,-0.98369 0.14813,-1.99799 0.50417,-2.97347 0.27863,-1.23864 0.54113,-2.48094 0.78359,-3.72718 -0.68421,-0.0138 -1.3685,-0.0271 -2.05265,-0.0414 z" />
    <path
       id="path599"
       style="opacity:1;fill:#00aad4;fill-opacity:1;stroke:#00aad4;stroke-width:0.529998;stroke-linecap:round;stroke-opacity:1"
       d="m 144.95204,223.28197 c 1.7573,1.71316 4.11199,2.65169 6.51813,2.97602 1.7158,0.30276 3.45143,0.46957 5.17413,0.72576 -1.11933,-0.0118 -1.96216,1.23822 -3.06637,1.61799 -2.64504,1.53422 -5.38938,2.92844 -7.82261,4.79718 -1.59414,1.036 1.18323,0.97824 1.93417,1.05522 1.16606,0.24987 1.91345,-0.72337 2.75423,-1.32923 2.97023,-2.37642 6.54139,-3.81576 9.6386,-5.99957 -0.31829,-1.30225 -2.44414,-0.46313 -3.46813,-0.93224 -3.26952,-0.36267 -6.72939,-0.94867 -9.33708,-3.1155 -0.77497,0.0682 -1.55045,0.13566 -2.32507,0.20437 z" />
    <path
       id="path601"
       style="opacity:1;fill:#44aa00;fill-opacity:1;stroke:#44aa00;stroke-width:0.529998;stroke-linecap:round;stroke-opacity:1"
       d="m 174.11996,223.89785 c -1.95406,-0.38065 -4.29144,-0.53278 -5.86154,0.92662 -1.01839,1.35132 0.76379,2.50354 1.77682,3.09417 1.36366,1.22025 0.18283,3.12053 -1.16682,3.73246 -0.77661,0.25621 -2.62661,1.26796 -0.83692,1.37345 2.02566,0.33435 4.52913,-0.20555 5.51266,-2.19782 0.75345,-1.37591 -0.26061,-2.86817 -1.4735,-3.55614 -1.40938,-0.42528 -1.89987,-2.3665 -0.20864,-2.76551 1.77683,-0.47641 -2.53101,-0.24567 -0.53596,-0.27915 0.9383,-0.0435 1.85973,-0.24347 2.7939,-0.32808 z" />
    <path
       id="path603"
       style="opacity:1;fill:#44aa00;fill-opacity:1;stroke:#44aa00;stroke-width:0.529998;stroke-linecap:round;stroke-opacity:1"
       d="m 179.57873,224.60055 c -0.44555,2.28857 -0.81584,4.59217 -1.09328,6.90728 0.34982,0.63959 1.24217,1.38678 1.94772,0.84458 0.92185,-0.28322 1.16927,-1.21498 1.06838,-2.07373 0.10019,-1.44583 0.16733,-2.89632 0.27475,-4.33899 0.22447,-0.72841 0.11905,-1.59658 -0.83638,-1.3125 -0.45373,-0.009 -0.90746,-0.0176 -1.36119,-0.0266 z" />
    <path
       id="path605"
       style="opacity:1;fill:#44aa00;fill-opacity:1;stroke:#44aa00;stroke-width:0.529998;stroke-linecap:round;stroke-opacity:1"
       d="m 175.78483,224.03527 c 1.9707,0.27336 3.96628,0.0391 5.94753,0.0792 1.38988,-0.0284 2.78327,-0.073 4.16173,-0.26578 -0.52206,-0.83686 -2.03278,-0.3485 -2.96176,-0.49561 -1.50822,0.0766 -3.01321,0.31254 -4.51968,0.33491 0.50701,0.0425 2.16556,-0.004 0.81145,0.0237 -1.15434,-0.003 -2.30687,0.0956 -3.43927,0.32359 z" />
    <path
       id="path607"
       style="opacity:1;fill:#44aa00;fill-opacity:1;stroke:#44aa00;stroke-width:0.529998;stroke-linecap:round;stroke-opacity:1"
       d="m 188.3092,223.87669 c 0.14783,2.33026 -0.3967,4.64597 -0.27885,6.97194 -0.0179,1.04165 1.30477,2.06055 2.09611,1.06184 1.00577,-1.19096 0.47506,-2.86153 0.49051,-4.26987 -0.1142,-1.22441 -0.10379,-2.76371 -0.49028,-3.77804 -0.60582,0.005 -1.21169,0.0111 -1.81749,0.0141 z" />
    <path
       id="path609"
       style="opacity:1;fill:#44aa00;fill-opacity:1;stroke:#44aa00;stroke-width:0.529998;stroke-linecap:round;stroke-opacity:1"
       d="m 189.97282,224.63429 c 0.79623,-0.39548 3.10534,-0.70874 3.09224,-0.68019 -0.8573,-0.12771 -1.12406,0.2398 -0.21742,0.48565 1.6645,1.30012 1.22332,3.87797 -0.038,5.3009 -0.42737,1.22221 -3.23897,1.77526 -2.22938,3.10822 1.45918,0.32619 3.09963,-0.27341 4.23199,-1.21563 1.30687,-1.14642 2.58014,-2.71029 2.32638,-4.5687 -0.11191,-1.69959 -1.36007,-3.43999 -3.19158,-3.46612 -1.73036,0.005 -3.56788,-0.23384 -5.21508,0.40802 -1.03071,0.89348 0.88936,0.38878 1.2408,0.62785 z" />
    <path
       id="path611"
       style="opacity:1;fill:#44aa00;fill-opacity:1;stroke:#44aa00;stroke-width:0.529998;stroke-linecap:round;stroke-opacity:1"
       d="m 200.09867,230.14659 c -0.82869,0.3919 -2.52616,0.76362 -2.0833,2.00868 0.57178,0.64926 1.22875,1.73756 0.30294,2.40942 -0.9213,0.36429 -0.71698,1.54788 0.31005,1.45527 1.32399,-0.001 2.88368,0.0308 3.86204,-1.02492 0.85355,-0.71423 0.18143,-1.81903 -0.66672,-2.16748 -0.84895,-0.22602 -1.38576,-1.63107 -0.22147,-1.80719 0.37572,-0.1908 1.78645,-0.56396 0.62903,-0.59681 -0.71085,-0.0924 -1.4217,-0.18478 -2.13257,-0.27697 z" />
  </g>
</svg>
