<?xml version="1.0" encoding="UTF-8" standalone="no"?>
<svg
   xmlns:dc="http://purl.org/dc/elements/1.1/"
   xmlns:cc="http://creativecommons.org/ns#"
   xmlns:rdf="http://www.w3.org/1999/02/22-rdf-syntax-ns#"
   xmlns:svg="http://www.w3.org/2000/svg"
   xmlns="http://www.w3.org/2000/svg"
   xmlns:sodipodi="http://sodipodi.sourceforge.net/DTD/sodipodi-0.dtd"
   xmlns:inkscape="http://www.inkscape.org/namespaces/inkscape"
   width="1200"
   height="600"
   viewBox="0 0 317.5 158.75"
   version="1.1"
   id="svg8"
   inkscape:version="1.0.1 (3bc2e813f5, 2020-09-07)"
   sodipodi:docname="da-weibull.svg">
  <defs
     id="defs2" />
  <sodipodi:namedview
     id="base"
     pagecolor="#ffffff"
     bordercolor="#666666"
     borderopacity="1.0"
     inkscape:pageopacity="0.0"
     inkscape:pageshadow="2"
     inkscape:zoom="1.4"
     inkscape:cx="601.04866"
     inkscape:cy="299.03422"
     inkscape:document-units="mm"
     inkscape:current-layer="layer1"
     showgrid="false"
     units="px"
     inkscape:window-width="1920"
     inkscape:window-height="1061"
     inkscape:window-x="0"
     inkscape:window-y="19"
     inkscape:window-maximized="1"
     inkscape:document-rotation="0"
     inkscape:snap-global="false" />
  <metadata
     id="metadata5">
    <rdf:RDF>
      <cc:Work
         rdf:about="">
        <dc:format>image/svg+xml</dc:format>
        <dc:type
           rdf:resource="http://purl.org/dc/dcmitype/StillImage" />
        <dc:title />
      </cc:Work>
    </rdf:RDF>
  </metadata>
  <g
     inkscape:label="Layer 1"
     inkscape:groupmode="layer"
     id="layer1"
     transform="translate(0,-138.25001)">
    <path
       d="m 217.85119,211.69169 c 0.10003,-1.50802 1.63934,-2.33298 2.9834,-2.52216 1.62153,-0.29454 3.37934,-0.33995 4.76188,-1.35409 1.53706,-0.81268 3.3246,-0.48411 4.98722,-0.46045 1.1971,0.11601 2.7312,0.18331 3.28302,1.46743 0.59984,1.23938 -0.55327,2.37081 -0.58142,3.60753 -0.0841,1.05476 0.58533,2.27814 -0.20459,3.19973 -1.23264,1.19493 -3.00966,2.18556 -4.77454,1.73823 -1.86406,-0.44445 -3.35592,-1.72286 -5.02928,-2.5866 -0.65489,-0.77765 -1.6773,-0.96008 -2.5715,-1.31072 -1.14136,-0.37175 -1.52215,-1.90164 -2.85419,-1.7789 z"
       style="fill:#4c6f34;stroke:#4c6f34;stroke-width:0.264583px;stroke-linecap:butt;stroke-linejoin:miter;stroke-opacity:1;fill-opacity:1"
       id="path1053" />
    <path
       d="m 254.43023,232.32202 c -0.15882,2.00143 1.21878,4.33778 3.39377,4.38674 1.4599,-0.0574 2.55445,-1.22144 3.92909,-1.54715 1.23419,-0.0376 1.00702,1.57752 1.60645,2.27145 0.77658,0.50897 1.8349,0.0246 2.61203,-0.30138 2.99221,-1.75259 5.12335,-4.76172 6.26298,-7.99515 0.25749,-1.45835 -1.19441,-2.48619 -2.40897,-2.88592 -1.84001,-0.53734 -2.84908,1.78275 -4.60228,1.75724 -1.41675,0.0514 -2.90419,-1.08774 -4.24958,-0.19447 -1.68428,0.93623 -2.96377,2.54661 -4.85288,3.11341 -0.58498,0.57091 -2.23249,0.16921 -1.69061,1.39523 z"
       style="fill:#729020;stroke:#729020;stroke-width:0.264583px;stroke-linecap:butt;stroke-linejoin:miter;stroke-opacity:1;fill-opacity:1"
       id="path1061" />
    <path
       id="path401"
       style="fill:#ac9d93;stroke:#ac9d93;stroke-width:0.264583px;stroke-linecap:butt;stroke-linejoin:miter;stroke-opacity:1;fill-opacity:1"
       d="m 269.43629,208.5871 c -5.23705,-0.392 -9.65254,-3.752 -14.83602,-4.49534 -4.94533,-1.25049 -9.96681,-2.68616 -14.39462,-5.18006 -3.55351,-0.079 -6.41033,2.66078 -9.8089,3.43116 -5.36632,1.76467 -10.63141,3.83167 -15.91697,5.78796 -4.68733,0.0608 -9.25873,2.97055 -13.60941,2.54239 -1.51385,-1.29925 -3.92057,-0.53671 -0.93566,0.17241 4.8799,0.49183 9.7447,1.45788 14.68181,0.90858 4.17444,-0.0114 8.23371,-1.88444 12.39927,-0.96787 2.00753,1.22392 6.25589,-4.29603 3.66557,-0.417 -1.68144,2.53345 -6.67604,2.86968 -6.76955,5.97598 3.69818,1.95133 10.03175,-4.41487 11.20508,2.08342 1.40079,3.01034 5.30684,3.16567 8.16575,3.74968 4.41376,0.85537 0.42739,-6.5686 4.89428,-7.05856 5.00278,-1.82782 10.44478,-1.85305 15.57045,-3.25495 2.00292,-0.70411 7.56581,0.66342 5.68892,-3.2778 z" />
    <path
       id="path377"
       style="fill:#ac9d93;stroke:#ac9d93;stroke-width:0.264583px;stroke-linecap:butt;stroke-linejoin:miter;stroke-opacity:1;fill-opacity:1"
       d="m 296.3283,216.3512 c -2.03036,-5.07496 -5.26483,-10.45321 -11.10715,-11.51052 -5.38886,-1.23675 -10.52255,-5.50666 -16.22854,-3.79671 -5.16534,2.20229 -10.00746,5.10556 -15.21163,7.26133 -4.21321,2.63236 -8.99459,3.9947 -13.41347,6.18372 -3.70951,3.36172 -8.40986,5.00163 -13.00765,6.76116 -4.16336,0.41935 -6.16252,5.18708 -0.81715,5.46547 5.88068,2.06638 12.05881,0.36426 18.00815,-0.0545 1.93885,2.8669 -7.03486,9.96004 -0.18433,10.01444 6.23222,-0.7312 11.7034,-3.90159 17.04744,-6.89952 5.25522,-2.12776 8.45482,3.82044 13.18828,4.79685 5.27182,2.0197 9.63815,6.01808 15.36346,6.91101 5.1349,-1.03684 0.30483,-8.7576 -0.8556,-12.2832 -1.2308,-7.49764 8.68369,0.17421 11.94516,1.5906 2.55222,2.36085 13.37789,3.36566 8.26809,-1.94123 -3.50523,-1.93465 -6.47534,-4.61181 -8.51682,-8.0789 -1.1502,-1.77203 -2.52694,-3.49143 -4.47824,-4.42002 z" />
    <path
       id="path409"
       style="fill:#c8beb7;stroke:#c8beb7;stroke-width:0.264583px;stroke-linecap:butt;stroke-linejoin:miter;stroke-opacity:1;fill-opacity:1"
       d="m 240.25194,201.55504 c -1.55057,-0.1286 -2.90185,0.79563 -4.31854,1.26764 -1.04775,0.47426 -2.04468,1.1909 -3.23296,1.23654 -0.14297,1.07888 1.33557,1.35861 2.10147,1.70378 1.18279,0.33249 2.42747,0.35839 3.58649,0.80162 1.83042,0.42336 3.74422,0.24773 5.59386,0.0317 1.35132,-0.2326 2.74142,-0.45237 4.09939,-0.13925 0.85961,-0.10325 1.55611,0.47661 2.31984,0.62467 0.25461,-0.56941 -1.0787,-1.03239 -1.58117,-1.38888 -1.12296,-0.59977 -2.31098,-1.04705 -3.50766,-1.47002 -1.59037,-0.78399 -2.71457,-2.51701 -4.59488,-2.69412 -0.15562,-0.008 -0.31216,7e-4 -0.46584,0.0263 z" />
    <path
       id="path393"
       style="fill:#c8beb7;stroke:#c8beb7;stroke-width:0.264583px;stroke-linecap:butt;stroke-linejoin:miter;stroke-opacity:1;fill-opacity:1"
       d="m 269.23912,203.26314 c 2.56092,-0.95663 4.77152,1.35039 7.24676,1.63856 3.34601,0.8766 5.78271,3.46413 8.87183,4.87274 2.26235,1.05413 3.97745,2.90638 5.22007,5.03709 1.51299,2.39967 3.83014,4.06062 5.81521,6.02597 1.50168,0.39116 2.92897,2.4046 0.61111,2.85916 -2.10376,0.46955 -3.81861,-1.16497 -5.67515,-1.84394 -1.7385,-0.37552 -4.73523,-0.64519 -4.80165,1.87723 -1.71954,0.66999 -3.64015,-1.51648 -5.57513,-1.70467 -2.13542,-0.86346 -3.6476,-2.80758 -5.91837,-3.43703 -4.28249,-1.68641 -8.94132,-1.35461 -13.44453,-1.3654 -1.85262,-1.44298 0.4501,-3.64171 2.04939,-4.04706 2.43721,-2.23777 -2.50484,-2.67121 -1.80087,-5.0163 1.27766,-2.51671 4.44663,-2.92939 6.66282,-4.3107 l 0.37932,-0.27517 z" />
    <path
       id="path686"
       style="fill:#4c6f34;stroke:#4c6f34;stroke-width:0.264583px;stroke-linecap:butt;stroke-linejoin:miter;stroke-opacity:1;fill-opacity:1"
       d="m 229.41392,204.93698 c -0.77388,-1.38978 -2.65621,-2.36949 -4.04351,-1.19546 -2.01168,1.32052 -4.53198,1.0617 -6.65148,2.10253 -1.71064,1.03826 -3.88495,0.84185 -5.61251,1.86067 -1.14048,1.46262 0.84273,2.6614 2.20284,2.33739 2.27849,-0.0194 4.51788,-0.55106 6.7978,-0.57963 1.59335,-0.2417 3.16385,-0.58134 4.77725,-0.64419 1.57923,-0.19677 2.94572,-0.97139 3.98723,-2.1178 1.10221,0.5629 1.99719,1.99696 2.79816,3.06333 -0.46452,2.35118 2.59625,2.91824 2.48139,5.28405 0.21302,1.68093 1.4048,3.41627 3.31045,3.04709 1.32474,-0.12165 3.82838,0.775 2.99579,-1.56321 0.17016,-1.87887 -1.14958,-3.16317 -2.49836,-4.20972 -1.07389,-1.43241 -3.00172,-1.75216 -4.04374,-3.21452 -0.8103,-1.52398 -2.29727,-2.25686 -3.81255,-2.89984 -0.78202,-0.54421 -1.58163,-1.86387 -2.68876,-1.27069 z" />
    <path
       sodipodi:nodetypes="ccccccccccccccc"
       id="path417"
       style="fill:#ac9d93;stroke:#ac9d93;stroke-width:0.264583px;stroke-linecap:butt;stroke-linejoin:miter;stroke-opacity:1"
       d="m 229.6036,218.01494 c -7.47295,-7.2967 -15.38871,-14.24767 -23.33133,-20.96743 -8.87305,-4.76434 -19.23331,-5.57607 -28.24601,-10.10373 -9.25005,-3.90474 -16.73168,-10.9192 -25.79599,-15.24109 -6.81143,-6.42193 -11.28301,3.91844 -16.96097,6.27157 -9.40579,6.16719 -22.23518,4.65203 -30.62586,12.67349 -2.58639,2.99469 -10.209981,4.90983 -10.463257,7.67731 6.153747,3.74741 15.758317,-4.10742 19.500727,3.96442 1.29139,4.78592 3.08421,17.3715 9.68282,12.21317 4.73393,-5.72301 11.28198,-8.5154 18.46399,-10.41895 7.64745,-1.30382 14.22061,2.79164 21.38736,4.60799 6.97799,2.62396 13.42048,6.90839 20.84239,8.23437 1.42403,-2.93615 -12.32629,-11.19227 -4.00389,-10.3785 9.37338,4.76379 18.37344,12.81934 29.67784,11.03935 6.69059,-0.86122 13.22497,-0.0442 19.87218,0.42803 z" />
    <path
       id="path433"
       style="fill:#b5a58a;stroke:#b5a58a;stroke-width:0.264583px;stroke-linecap:butt;stroke-linejoin:miter;stroke-opacity:1;fill-opacity:1"
       d="m 18.490955,154.39787 c 9.254253,-6.54206 21.169795,-6.04731 31.002643,-0.42129 11.963952,4.63373 20.226959,14.76601 30.381837,22.14676 12.259351,11.76174 27.468465,19.82425 41.494075,29.20082 9.56812,4.11933 18.80306,9.0429 28.98318,11.35963 10.77036,3.35019 17.19895,13.34666 26.68864,18.91042 4.12792,2.20879 10.53257,8.22638 0.99383,7.12421 -6.30728,1.52629 -25.35025,-3.62576 -21.6499,7.50577 -2.34191,4.23202 -10.46668,-5.50831 -16.2401,-4.76667 -15.3159,-5.12526 -31.78402,-6.91343 -47.668268,-3.42774 -15.567375,0.81151 -31.190847,0.55716 -46.757806,-0.0937 C 35.128238,240.90964 22.077339,245.5201 13.490004,237.36195 9.495412,229.57347 11.861709,219.75943 9.6917609,210.73957 8.595502,197.81224 4.519873,184.01066 11.296992,171.87651 c 2.751829,-5.75691 3.851677,-12.51581 7.459546,-17.68242"
       sodipodi:nodetypes="ccccccccccccccc" />
    <path
       id="path425"
       style="fill:#c8beb7;stroke:#c8beb7;stroke-width:0.264583px;stroke-linecap:butt;stroke-linejoin:miter;stroke-opacity:1"
       d="m 148.58253,172.73913 c 2.96816,1.88314 5.30613,4.6005 8.31278,6.45221 4.59387,3.11515 9.30348,6.23982 14.52563,8.19335 3.99352,1.2815 8.34802,1.40315 12.0611,3.51457 1.54136,0.51433 6.18152,1.9202 2.8382,3.46361 -2.17105,1.82716 -5.19538,1.39929 -7.64556,0.47047 -2.18547,-0.032 -5.16665,-1.71291 -6.88435,0.0478 -1.76396,1.96611 3.55506,4.8501 0.9941,5.22176 -3.3825,-0.73399 -6.6405,-1.97968 -9.89641,-3.1295 -2.45019,-1.03367 -3.25669,-3.89014 -5.43821,-5.29998 -2.62975,-2.0696 -6.17181,-2.70915 -8.49757,-5.23817 -1.89478,-1.92703 -3.33149,-4.55825 -3.43325,-7.28881 0.44183,-2.12013 2.38431,-3.59621 2.87259,-5.74611 l 0.10072,-0.32722 z" />
    <path
       id="path714"
       style="fill:#5c891c;stroke:#5c891c;stroke-width:0.264583px;stroke-linecap:butt;stroke-linejoin:miter;stroke-opacity:1;fill-opacity:1"
       d="m 300.40424,237.61276 c -3.80863,-0.38965 -5.3782,-3.88375 -2.98262,-6.59454 -1.49004,-4.28692 2.8406,-13.21013 -5.22514,-12.21532 -1.70042,1.01853 -4.84614,2.58431 -5.67653,3.52706 5.33033,2.65761 -4.51787,3.48199 -0.21255,6.47088 2.91747,5.24088 -0.54483,9.66292 -6.13444,9.7246 -0.68178,-3.07069 -6.15893,-8.7102 -8.21089,-3.04809 0.52998,4.47476 -2.71786,-4.5466 -3.21963,-5.75036 0.82902,-2.9644 -2.63873,-10.24887 -5.11442,-5.31325 1.40285,2.65246 -0.53667,6.15609 -1.13618,8.83829 -2.60646,2.49843 -5.6381,-0.26885 -8.39532,2.53643 -1.9671,-2.61584 -4.45942,-4.82959 -5.96291,-7.33977 -3.85241,0.10501 -5.72179,-0.44502 -6.81204,-3.9818 -1.90142,-2.73283 -8.2413,-1.07854 -5.1329,-5.92061 -0.43618,-2.69707 -4.72232,-2.71528 -3.20061,-6.49022 -6.74397,-4.00163 -8.38595,5.10941 -8.24008,9.82303 -3.7855,2.16433 -8.64061,-3.08922 -13.39076,-0.76868 -3.68947,0.20937 -2.17747,-4.66221 -5.72456,-5.40282 -1.64236,-5.33222 -9.46513,-3.97915 -9.30076,-10.41282 -2.52521,-2.72484 -6.50309,-5.47391 -8.00631,-0.18027 -0.5956,2.01021 -2.82058,10.30278 -5.05601,7.30169 -4.38228,0.20116 -4.37143,-3.91376 -1.92905,-5.72271 -2.10148,-1.97787 -4.52999,-3.98772 -4.5815,-4.75486 -3.77295,3.28166 -1.50675,8.25891 -7.41542,9.33337 -1.50368,0.64909 -7.83861,-2.46487 -5.21902,-0.69631 1.11692,-3.57806 -4.19508,-4.04364 -4.38817,-6.52824 -3.96469,2.47833 -6.12063,-2.06578 -6.54497,-4.83728 -6.16294,-1.4526 -1.24386,8.67327 -8.01626,7.14879 -2.3873,-1.44063 -10.02226,1.21365 -4.19001,2.3713 2.09056,2.0422 9.23097,-1.93411 5.18954,2.7377 -0.45131,2.92694 -8.0697,4.14121 -2.30351,5.19928 3.284,4.44834 7.39659,6.59687 12.72897,8.14294 5.50355,0.64547 10.00734,4.22092 15.35876,5.06796 6.5438,-0.58759 12.93285,-0.0553 19.08858,2.21419 8.10327,0.52356 16.25405,1.12764 24.0742,3.42202 6.12966,-0.74823 9.45951,5.02791 14.77296,6.63206 7.51352,1.92477 15.52429,1.30036 22.81695,4.29783 5.70992,2.24546 11.76962,1.82919 17.67612,0.92311 6.43725,0.10784 12.69929,-3.74523 19.07215,-1.84599 5.14315,5.03948 13.91036,-1.54135 10.94434,-7.90859 z" />
    <path
       id="path700"
       style="fill:#4c6f34;stroke:#4c6f34;stroke-width:0.264583px;stroke-linecap:butt;stroke-linejoin:miter;stroke-opacity:1;fill-opacity:1"
       d="m 127.88627,205.15881 c 0.10409,-5.84998 5.19353,3.4083 6.76863,-3.93927 2.85432,-4.19624 6.21657,-8.76217 3.69404,-0.9094 0.2367,9.39416 10.54794,-5.85406 7.90007,2.70255 5.36716,-0.0303 10.22145,3.02703 13.14703,-4.71057 -4.99612,0.67604 0.39131,14.28239 4.0868,6.96811 0.9303,8.58192 11.65558,-4.74268 9.10929,5.29308 1.91556,-3.87388 4.12647,-9.94188 7.00234,-5.15754 2.66362,-11.37506 4.12631,9.19161 11.22732,2.43883 1.94302,2.8649 3.42266,-1.39087 5.96877,2.9777 2.04799,-4.26607 6.37943,-5.64535 9.19346,-2.89897 9.44757,-10.49558 -4.25928,11.06686 5.26172,7.82903 4.20075,-5.33319 0.22862,3.72802 5.57765,-0.8131 3.7058,4.33261 7.79789,-5.55428 7.06182,2.87977 3.70912,-2.19527 9.80589,-9.27491 7.33656,-1.00848 -2.14929,9.44018 7.90811,-6.36828 7.51548,4.67739 -2.50963,5.43718 6.8467,-7.16245 8.48233,-0.0136 7.01548,-10.99497 -2.89497,8.47479 5.67007,8.76244 2.63524,-5.15578 6.10697,-10.44703 4.32537,-1.07986 1.35595,4.14442 4.07612,6.6299 1.94346,7.83448 8.70778,3.15799 11.71184,-13.24788 14.60076,-11.88999 -0.0782,7.23191 12.22086,13.3219 14.25817,5.68128 1.66461,3.10018 6.31376,-3.7809 10.37154,-2.3539 2.97589,-1.13027 8.19198,-6.75036 10.25523,-0.55745 6.17675,-9.54149 4.79304,9.30365 5.05182,8.16501 4.43396,6.09657 -3.65792,9.36603 -7.0774,4.20386 -2.06597,5.91042 -4.0262,10.16446 -6.22451,5.46822 -1.73733,6.84397 -6.53526,-4.81568 -9.87778,1.73808 -3.06754,-5.17021 -6.38594,-6.24295 -9.55974,-0.34409 -9.84857,-0.35989 -19.55276,-4.6941 -28.4578,-3.03675 -8.26273,-2.10528 -16.93059,-1.80579 -25.17024,-3.18005 -6.79255,-7.45514 -17.93854,-6.89133 -26.17517,-7.7433 -7.43013,-8.65637 -19.46797,-2.261 -27.78322,-10.03507 -8.10087,-0.55822 -15.45604,-3.21604 -22.92812,-6.42613 -8.43767,-0.99118 -24.36037,2.27588 -22.55575,-11.52232 z" />
    <path
       d="m 288.69224,246.43049 c -0.74042,-2.77181 1.98614,-7.23735 0.32856,-8.99755 -1.74031,3.00449 -3.38467,6.5289 -6.3756,8.65485 -2.37123,-0.83385 -0.9932,-5.79504 -3.03752,-7.75843 -3.06879,0.63571 -2.99532,6.48818 -6.9242,6.96194 -6.02247,2.7381 1.14498,-6.79572 -3.39093,-6.6841 -4.3219,0.46328 -4.38103,7.27457 -9.20396,7.11982 -3.83805,-0.51852 -0.85094,-8.60772 -5.34864,-6.4021 -2.98874,0.29559 -5.42017,4.42218 -7.95396,3.50661 -0.0773,-2.03535 0.66167,-8.27268 -2.85819,-4.85755 -2.5765,1.70921 -5.92102,2.29844 -8.00792,4.67298 -0.66615,-2.97419 -4.08642,-4.72435 -6.03419,-7.19277 -3.62417,-0.77872 -4.27579,8.50836 -7.28124,4.06714 -0.21501,-2.53631 3.64953,-8.32355 -1.5812,-7.18761 -2.06161,0.49378 -5.08596,2.85052 -3.93597,-1.03109 0.64148,-2.26406 -0.0595,-3.74754 -1.88104,-1.26916 -2.02214,1.7899 -7.40633,4.29213 -6.04608,-0.72239 1.17509,-2.74657 0.81029,-10.09353 -2.87802,-5.16636 0.64324,2.62173 -4.02746,5.64296 -4.95312,5.60648 0.21353,-2.18373 1.29197,-6.56729 -1.25547,-7.20026 -0.76037,2.47329 -4.15819,4.26134 -1.32403,6.92805 -0.16475,3.22625 -6.24061,5.83826 -2.73,9.58347 2.65214,2.09384 5.15137,4.37727 7.72933,6.55343 3.44952,2.13429 7.87931,2.60664 11.57238,0.77588 3.50664,-1.72805 7.43454,-1.13135 10.97158,0.13838 6.18523,1.6759 12.27345,3.7841 18.68401,4.47895 4.96093,1.07526 10.01282,1.32325 15.07331,1.23777 4.74961,0.34684 9.60666,0.4015 14.14987,-1.23824 6.08019,-1.39877 12.37655,-0.68635 18.44376,0.30482 3.55357,-1.01014 4.17788,-5.76184 6.72813,-8.24279 -0.14394,-1.62637 3.29579,-6.31451 -0.12258,-3.73766 -3.35244,0.92205 -2.2499,5.70596 -5.8588,5.53926 -1.12244,1.9625 -3.04425,0.81206 -4.69827,1.55823 z"
       style="fill:#5c891c;stroke:#5c891c;stroke-width:0.264583px;stroke-linecap:butt;stroke-linejoin:miter;stroke-opacity:1;fill-opacity:1"
       id="path1069" />
    <path
       id="path736"
       style="fill:#a0a709;stroke:#a0a709;stroke-width:0.264583px;stroke-linecap:butt;stroke-linejoin:miter;stroke-opacity:1;fill-opacity:1"
       d="m 315.11965,252.34237 c -17.70688,-10.51373 -38.66047,-11.51819 -58.66036,-10.66866 -21.29296,-1.4772 -42.2509,-6.4966 -63.72417,-6.13915 -49.13429,-2.31903 -98.366524,-0.18245 -147.484091,1.25808 -11.269737,2.62423 -33.526348,5.86431 -34.542192,16.59897 3.113906,6.34771 -8.0546591,17.68131 7.04024,17.08651 -2.973632,5.81205 -14.0310947,16.9186 2.134854,17.19426 13.406105,0.51726 26.657186,-3.06458 40.135307,-1.68858 23.222123,-1.11224 46.381842,0.21541 69.480012,2.5524 35.36374,0.65332 70.70878,-3.06409 106.10924,-2.21655 18.04685,0.45222 36.2976,-3.10751 53.97688,1.58791 9.29816,2.7527 28.91997,1.75986 13.57842,-10.41711 -8.25152,-8.98912 17.50904,-5.08386 5.50566,-16.35501 -2.80466,-6.21643 9.97538,-1.88295 6.4502,-8.79307 z" />
    <path
       id="path678"
       style="fill:#729020;stroke:#729020;stroke-width:0.264583px;stroke-linecap:butt;stroke-linejoin:miter;stroke-opacity:1;fill-opacity:1"
       d="m 112.89837,186.39187 c 1.72556,0.10405 0.9577,-2.82972 1.99147,-2.61289 -0.19766,0.52829 -1.12889,2.76644 0.19662,1.7218 0.99039,-1.02145 2.56287,-2.8605 3.53217,-3.04864 -1.0617,1.22068 -1.69717,3.8536 -0.91519,4.91903 1.55446,-0.59867 4.83597,-1.41966 4.11321,-3.6836 1.55419,-1.18725 -1.04803,3.20048 0.59406,2.58254 2.01278,-1.8593 0.35912,3.76845 2.53938,1.47884 0.95211,-0.31142 1.86167,-1.92754 2.44384,-1.991 -0.90765,1.42688 -1.41704,3.12804 -1.60583,4.81205 0.40343,1.21118 1.86129,0.11579 2.2411,1.41014 0.67832,-0.61098 2.84622,-1.24385 2.1975,0.4049 1.77048,-0.63537 2.73089,1.48548 3.92328,2.30467 -0.38406,1.86211 -0.41451,4.17792 -2.1636,5.41032 -2.05324,1.16776 -4.6311,0.96573 -6.87921,0.60061 -1.01616,0.0472 -1.8598,0.1067 -2.51322,-1.00791 -1.4196,-0.76112 -3.04279,0.17398 -3.81753,1.44138 -0.8384,0.95331 -1.35459,3.08178 -2.90445,1.60097 -1.93436,-0.43785 -3.56347,-1.54777 -4.98104,-2.90162 -1.89423,-1.48485 -2.23264,-4.19787 -1.60919,-6.25428 -1.12451,-0.82007 -2.92141,-0.94307 -2.8049,-2.74934 -1.1052,-0.9077 -0.83304,-2.6287 -0.14299,-2.88295 0.0199,-1.67197 1.11912,-0.55202 1.79583,-0.25795 0.71457,-0.70761 1.41762,-1.58226 2.39054,-0.94194 0.81492,-0.75758 1.40423,-0.78528 2.37815,-0.35513 z" />
    <path
       id="path483"
       style="fill:#4c6f34;stroke:#4c6f34;stroke-width:0.264583px;stroke-linecap:butt;stroke-linejoin:miter;stroke-opacity:1;fill-opacity:1"
       d="m 19.274164,148.93662 c -3.094955,-3.00631 0.111425,-8.4485 0.63754,-1.78978 4.219742,7.9088 1.610193,-6.98106 5.230181,-4.56057 -0.511149,6.88667 5.565103,7.75627 5.466525,0.0296 -1.129101,4.53289 4.540695,6.65784 6.358142,1.46142 3.5999,-3.09732 -1.354863,6.40898 3.934631,3.26803 3.885401,-4.75344 1.120685,2.55596 4.847098,0.55702 0.858675,-5.37985 1.75067,6.19621 4.96024,-0.3356 1.307731,-2.2087 3.69295,-11.25947 2.469987,-3.66385 -0.266026,5.95092 5.244448,7.40079 4.282147,12.68624 3.988527,3.22229 3.151318,-10.51735 5.484241,-2.30763 3.480725,2.85566 -0.920413,11.89141 4.368983,5.35916 2.985769,-1.18151 3.497383,13.58828 5.871305,5.44195 3.422813,-4.85191 2.811982,11.33037 8.220879,6.73808 3.117266,0.25799 2.483877,-5.33021 2.795515,-0.002 -1.514868,5.89727 6.115439,10.63077 8.544384,7.59321 -0.0639,3.22274 2.65965,15.27488 4.363819,6.27509 1.931173,-8.44352 0.252249,7.20714 5.243539,1.89807 0.38902,-2.91845 2.84384,0.0688 4.63185,-2.91334 -3.50458,4.84699 1.88024,12.40371 6.72723,8.2714 -1.11644,6.74566 5.67361,2.71931 6.61075,-1.1518 -2.00955,7.25103 7.29581,10.42348 8.02275,16.43301 9.05053,-1.79633 3.39892,12.46958 -2.6134,6.07005 -5.74819,0.27926 -12.92143,1.27448 -13.99894,-6.43368 -3.24721,-2.02146 -8.97222,2.82146 -12.941976,-2.07763 C 93.384792,202.20848 88.440771,198.04542 83.2821,194.16111 74.795428,191.2408 66.104044,186.37112 62.495415,177.638 c -2.581294,-6.07804 -8.950834,-8.19285 -14.636564,-10.26004 -7.028313,-2.15897 -10.979771,-12.408 -19.457587,-8.99459 -8.373561,3.5266 -6.524113,13.56641 -11.965453,19.85371 0.0501,5.80079 -10.8006166,15.8279 -10.3657185,5.04832 1.12694,-3.62406 -3.5693618,-16.73749 1.2642224,-8.78098 3.1941651,8.9085 0.5399421,-4.42645 -0.3112891,-7.54672 0.5775292,-9.39102 5.1818032,9.78976 4.5187902,0.095 -0.206498,-3.80913 -3.8431405,-14.58534 1.46305,-7.26283 0.212357,-2.88169 -2.102064,-15.48178 1.293111,-7.7448 1.890102,3.6347 -2.282007,-12.79767 3.018989,-5.30782 1.000199,0.94009 -0.484593,4.44622 1.957198,2.19933 z" />
    <path
       id="path491"
       style="fill:#5c891c;stroke:#5c891c;stroke-width:0.264583px;stroke-linecap:butt;stroke-linejoin:miter;stroke-opacity:1;fill-opacity:1"
       d="m 130.34982,212.61235 c 2.49727,-4.26037 0.7287,-14.05714 -2.40466,-5.41118 -3.48568,-0.0814 -7.30831,-1.13655 -11.3643,-0.57338 2.11303,-3.89629 -0.45691,-20.28803 -2.69237,-8.71498 -8.20413,9.1054 -4.09174,-9.84383 -6.78278,-7.72289 -2.84072,7.51469 -8.197506,-0.70682 -6.79734,-3.68226 -2.714934,7.59691 -4.903123,3.79281 -4.156769,-1.76239 -4.000951,8.62489 -9.954797,-1.98987 -6.949934,-7.11089 -3.001043,-3.26176 -6.861072,8.87865 -7.837465,-0.82045 0.594282,-5.17198 -1.339979,-9.91882 -4.369963,-3.62311 -6.237877,6.46971 -8.812305,-2.88168 -5.071849,-7.32041 0.96217,-7.58404 -8.273098,6.63491 -8.643198,-2.28594 0.837306,-5.83689 -2.678502,-4.70508 -5.382191,-1.49775 -5.269772,-4.03447 3.008506,-12.35814 -0.781721,-15.29074 -1.364875,3.62255 -7.290294,14.16369 -6.363372,4.22813 0.397294,-10.28957 -8.165146,14.52693 -9.619281,1.50829 2.60365,-4.12972 -1.415553,-10.23473 -3.537154,-3.40395 -3.773563,8.44256 -1.144619,-2.09457 -3.442674,-4.92086 -4.100857,2.23693 -3.868363,15.1839 -7.01358,5.33965 -0.398797,-11.6834 -2.877132,12.06081 -4.959869,0.66262 -0.191409,-9.86341 -0.90291,3.85404 -3.800583,4.9802 1.287735,-4.48848 -8.068005,-11.78217 -5.132014,-3.09586 0.08651,3.14665 5.603052,13.24637 1.793314,12.09148 -4.464761,-2.49834 -2.805141,-13.85604 -4.911869,-4.25058 -2.0897027,3.7154 6.818841,14.40614 0.605769,13.03066 -4.1653328,-7.42 -3.6152731,7.21737 -2.8906466,10.2328 -7.35716516,-2.19773 0.6334663,8.49831 -0.7980529,11.793 2.632867,9.67341 4.1251795,-3.64513 5.9002275,-6.62833 7.686089,-3.87583 3.870565,-16.37502 12.554906,-19.95436 5.39672,-6.50696 18.721841,-6.01882 20.224207,3.4603 6.136232,3.16315 11.392232,7.73066 17.061395,11.85731 7.035767,3.28437 11.377944,10.79394 19.381651,13.2333 5.959518,3.76018 7.701339,11.40587 13.84944,14.72197 6.553146,1.88747 12.315026,5.64006 19.367836,5.81104 5.06437,1.63682 10.31614,-0.93354 15.33675,2.2673 1.40451,-8.36577 6.78013,5.5287 11.50787,-0.98965 4.60069,-0.10284 8.84282,-14.61483 1.61289,-6.97074 -4.38535,4.06525 -1.52449,-12.01449 -5.1614,-3.15385 -3.5302,0.852 -5.70019,1.02603 -8.33122,3.9665 z" />
    <path
       id="path511"
       style="fill:#4c6f34;stroke:#4c6f34;stroke-width:0.264583px;stroke-linecap:butt;stroke-linejoin:miter;stroke-opacity:1;fill-opacity:1"
       d="m 137.00504,225.67823 c 5.15096,-7.59711 12.199,3.97292 18.83329,1.65485 7.14806,1.47336 10.35512,-4.88129 9.44218,-11.06121 0.65703,-5.56343 -3.2718,-3.16579 -2.90286,0.95176 -4.5355,7.25458 -0.95274,-8.05205 -6.14534,-3.19682 -0.77631,6.11227 -3.12213,-3.7369 -6.26032,-0.645 -0.28019,-2.0122 4.03905,-8.92941 -0.15717,-4.15398 -0.74708,3.65218 -5.49966,4.20048 -4.07456,-0.30441 -4.26007,-4.18498 -6.96003,12.25467 -10.10395,4.10717 -0.62434,-8.70562 -6.33412,11.1963 -8.71488,1.56774 -4.63975,-1.59359 -3.05468,-7.27282 -3.78687,-11.13995 1.42746,-2.88449 -0.0481,-8.87575 -2.24321,-3.07241 -0.93138,5.38883 -5.61917,13.55502 -10.47553,12.71731 3.2219,-5.07843 1.01907,-12.4757 -5.72158,-9.96479 -4.722944,-2.34745 2.57114,-13.86888 -2.68234,-12.16029 -1.71717,2.59612 -2.822096,12.11416 -6.361185,5.42387 0.209428,-3.52429 0.240385,-9.45736 -0.0059,-11.33195 -4.583036,-0.32324 -6.408485,10.06716 -9.575601,7.57135 2.151098,-3.48317 1.238533,-7.35098 -2.896501,-7.83076 -2.759001,-3.21785 2.523839,-11.21881 1.620419,-11.25951 -2.40748,3.82778 -5.168397,11.1952 -8.619044,11.97293 -2.557276,-2.80099 2.077251,-12.92457 -3.245739,-11.21735 -1.773732,7.73809 -8.816882,1.03262 -6.175554,-3.89934 2.373557,-6.68348 -5.363026,-6.25285 -6.262522,-0.67678 -3.56102,-2.44426 0.56097,-14.39168 -5.885786,-8.81354 -6.999051,2.33279 0.97926,-15.21886 -5.171008,-7.1979 -1.132898,4.45629 -6.610287,5.52826 -5.724663,-0.37095 -0.279543,-8.34579 -1.455259,5.48381 -5.721538,0.24466 -2.396783,-1.64082 -2.398338,-7.0362 -3.287358,-1.75823 -2.880837,4.84446 -6.681964,-6.31985 -5.829548,0.28267 -2.830436,7.10854 -10.097132,-6.77311 -9.617197,2.11522 2.303934,3.00888 -0.98915,3.84283 -1.041092,4.97789 0.455656,3.70806 -7.46112,-2.98305 -4.303532,2.6316 1.08882,5.06522 -2.593906,10.17269 -0.8207,15.10898 -0.544197,-4.87754 -5.9562613,-5.50121 -3.9504777,-0.1185 4.2348597,4.07974 -3.8893378,5.3012 -4.737931,6.37073 5.8320087,3.49999 -1.6221622,12.01395 1.9710992,14.93904 -5.1128595,-6.44 -0.1856072,4.47174 -1.6921255,7.07405 2.5189609,2.14073 5.534322,2.90941 1.2121545,3.80719 0.8247527,3.08861 -0.4083592,3.10107 -1.6617845,2.54195 1.2330685,5.14054 9.054717,4.53582 8.826601,-0.95006 2.288749,-6.12617 -3.008543,-13.16843 2.634997,-18.45398 1.247553,-7.32242 5.086382,-14.57986 12.414416,-17.29428 7.530109,-2.43997 17.072541,-1.50912 21.905137,5.52087 4.340563,7.14629 14.30631,7.12479 17.501148,15.24431 3.662923,4.58625 8.670169,7.4804 13.013591,11.47911 4.023646,2.75864 8.496194,4.74978 12.729278,7.14966 4.271877,5.31899 11.031371,8.81446 17.117791,11.29477 6.51441,-1.22343 12.62253,0.17317 18.96065,0.96116 2.57591,-0.0721 5.12706,-0.46828 7.67269,-0.83885 z" />
    <path
       id="path519"
       style="fill:#5c891c;stroke:#5c891c;stroke-width:0.264583px;stroke-linecap:butt;stroke-linejoin:miter;stroke-opacity:1;fill-opacity:1"
       d="m 131.16324,232.31099 c 5.25971,5.63323 15.12684,-1.02199 19.44559,6.70715 10.40913,2.19012 14.1818,-6.67808 10.4206,-15.23585 -0.21816,-3.90874 1.74858,-11.28431 -2.69229,-3.84303 -5.23011,12.67512 -4.68687,-11.34414 -11.5213,-2.95676 -1.11528,5.01404 -2.9658,15.97273 -5.93346,5.46734 -0.35479,-3.90752 -4.1796,-14.964 -3.28828,-5.16871 0.0458,7.47101 -13.23757,8.35308 -14.77672,9.69144 3.6021,-6.01834 5.65794,-15.87103 -0.71905,-18.4354 -2.33468,3.68219 -11.39489,13.6604 -13.11572,7.11698 2.78985,-3.61972 8.28872,-18.25472 0.41897,-9.81304 -3.14162,2.50011 -4.90388,11.02963 -5.1225,2.75288 1.03462,-6.36369 1.30954,-10.57424 1.41914,-17.13946 -6.280767,-0.3196 -9.43107,22.62848 -13.865619,8.78628 -0.312838,-4.05425 -1.464404,-12.77349 -2.844621,-14.09051 -2.480493,3.60211 -5.054988,17.98737 -8.00528,6.95588 0.194459,-4.34987 -1.252533,-20.13427 -4.962834,-9.3954 -1.194092,6.19756 -6.341568,5.73685 -3.876668,-0.21302 -2.309966,-4.54867 -0.376866,-12.4752 -2.428724,-14.76189 -4.692282,2.85931 -2.537558,20.21064 -8.658734,10.79958 -0.257083,-3.96041 -0.157833,-19.7043 -4.986852,-14.63669 -0.612415,3.07771 1.473323,12.70338 -1.995169,4.89916 -3.452999,-4.53429 1.757361,-18.87187 -7.933038,-13.63397 -3.360284,2.94899 1.819754,14.46419 -3.111409,5.60941 0.412008,-4.0204 -1.803557,-16.52079 -5.543095,-11.02009 1.068802,4.05722 4.081613,18.32599 -3.365059,12.52206 -0.621467,-4.77043 -3.904524,-10.70255 -6.15647,-13.07054 -3.923151,2.66224 2.862112,16.30327 -1.296365,12.85276 -2.13748,-2.23711 -11.936819,-11.64649 -4.101894,-7.08325 3.873617,5.3441 1.17175,11.92265 -5.950446,10.29642 5.307092,0.94557 7.399326,6.06301 0.315045,3.02402 -7.8700566,-0.173 2.618086,7.8523 -5.768215,8.00271 3.767579,0.16366 7.262175,2.48985 1.065532,3.22195 -8.9787108,-2.48135 8.616062,4.99416 -0.681867,5.474 -6.091253,0.1623 -5.5509337,5.49963 0.216346,5.40089 -1.00974,5.05243 0.837862,8.33667 -3.1557779,11.65418 7.6416179,0.6698 -3.0942216,5.52274 -1.4217618,8.74117 -5.466793,5.90327 11.9674697,2.33826 3.1764437,7.41856 -4.6916347,6.35222 2.119333,8.82397 5.536381,4.95922 5.531697,2.65822 -1.351288,-12.05462 3.494754,-16.02531 2.307904,-7.81564 -3.041823,-18.45272 5.021806,-25.01064 -1.306739,-8.22034 10.754972,-13.42051 14.920703,-5.48445 3.612949,6.89936 7.729915,13.97677 15.825729,16.14479 7.75137,3.86099 16.069136,7.72269 20.518563,15.61759 5.812012,7.09101 12.159525,14.70132 20.83726,18.29115 8.579606,0.86806 16.985646,2.84154 25.397136,4.32281 3.07877,0.0419 6.21271,-0.42948 9.24922,0.28763 z" />
    <path
       id="path527"
       style="fill:#4c6f34;stroke:#4c6f34;stroke-width:0.264583px;stroke-linecap:butt;stroke-linejoin:miter;stroke-opacity:1;fill-opacity:1"
       d="m 15.830821,233.44232 c -2.847766,1.95177 -14.96252874,-1.75727 -8.0826787,-3.91336 5.2085557,1.19986 6.3073477,-1.51391 3.5002267,-4.29787 4.270123,-5.81186 -12.14417537,-3.84825 -4.8943821,-9.76859 6.7618081,-0.33824 10.1050871,-5.63398 3.9837761,-10.37362 4.468397,-2.8954 2.508909,-8.64989 1.874689,-11.8341 5.168661,0.47731 8.296043,-2.41435 5.148177,-7.1462 -0.986063,-2.6736 -3.284171,-7.67904 0.64755,-5.85643 0.890471,-3.77305 -2.332578,-13.93509 3.890726,-6.88448 3.043895,5.44776 -0.954434,-6.35797 2.211649,-8.00191 0.544117,-5.98773 10.02596,-3.98328 7.614865,-10.74498 6.460708,1.69834 0.700288,15.23588 7.399016,14.25064 2.540846,-4.1126 9.227862,-9.38601 9.370495,-1.0826 2.741324,2.73178 -0.393517,12.25137 2.323147,11.85868 2.054735,-1.72251 7.226936,-12.62099 5.177783,-4.06354 -2.535917,3.19598 1.081914,9.1458 2.471163,3.50511 3.700484,-4.71909 -3.576635,8.52074 2.075418,3.5796 -0.498944,-3.86963 3.68983,-13.7967 6.862975,-6.97204 -5.791996,3.05986 0.674402,14.35567 3.066207,10.14963 -1.880361,2.691 -3.113266,10.74601 2.451702,5.37633 1.384654,-3.0786 7.005193,-4.78943 2.379056,-1.25402 -4.324605,4.88227 1.687739,13.60501 6.170103,5.90378 0.317315,-4.17662 6.001555,-3.19521 1.754585,-0.58844 -7.913721,3.95323 3.588513,9.97405 -1.841483,15.43307 -0.09959,9.069 9.744964,-1.4774 10.242832,-5.90487 1.813242,-2.43842 5.213726,-6.02212 -0.296818,-4.01827 1.685304,3.1004 12.5849,-0.0737 7.249403,6.07207 1.286182,3.77464 -7.119386,9.32195 -1.123831,12.20014 4.756638,-2.81444 5.431218,-13.84158 9.740058,-14.15421 -0.7474,4.45746 -2.50805,14.25275 2.84711,15.51056 6.59211,-1.07073 3.63697,-13.80341 9.11786,-13.3288 -2.48651,2.30702 -4.47411,7.35794 1.22454,5.94551 2.33715,2.98766 -7.21975,10.53103 0.94331,11.36206 4.1384,1.16565 6.6523,-4.57014 7.06058,-2.04007 3.14063,-2.4321 5.15376,-9.51829 3.10796,-2.16629 0.20127,9.05207 13.39376,6.74994 14.05785,-0.59468 -4.94619,3.38777 1.26934,11.11153 4.90275,4.32454 3.83834,3.46913 9.64488,-1.55647 11.69123,2.97393 4.91377,-4.95236 16.6764,0.89823 15.99004,-9.69703 -0.10482,-6.77237 3.45097,-1.42655 1.43053,2.21143 0.22669,4.42633 -0.18433,9.40509 1.20212,12.63424 -6.20287,2.35789 0.69764,4.81955 2.6987,0.0278 1.62136,-2.86508 7.61236,-5.33656 3.48554,-0.53674 -0.77787,3.43634 1.06323,7.40297 -3.01077,10.39962 -2.87679,5.41242 -4.3506,2.94586 -5.66144,-1.68988 -5.36862,5.25788 -12.35395,-2.64614 -18.82199,-0.062 -4.96318,-2.04961 -9.65773,-6.1267 -15.93292,-3.41799 -8.64197,0.47423 -17.52724,0.54956 -26.03171,-1.24056 -7.88547,-2.61263 -14.54557,-10.39089 -23.538483,-6.13635 -9.683716,1.35722 -17.119129,-5.91573 -22.739188,-12.72294 -5.426866,-4.89525 -5.583248,-13.17816 -10.311477,-18.67382 -6.257191,-8.14032 -13.315195,-16.79856 -23.487476,-19.93082 -7.912236,-0.38691 -10.553057,9.20697 -11.131214,15.49402 -4.723042,6.91199 1.743043,15.64822 -2.935649,22.56078 -2.44479,5.88298 -2.591612,12.58349 -7.524212,17.324 z" />
    <path
       id="path670"
       style="fill:#729020;stroke:#729020;stroke-width:0.264583px;stroke-linecap:butt;stroke-linejoin:miter;stroke-opacity:1;fill-opacity:1"
       d="m 117.45842,239.25431 c -0.41726,1.60075 1.24854,2.76082 2.5091,3.34257 1.72336,0.64712 3.61442,0.37118 5.38546,0.17777 0.65026,-0.14061 1.78312,-1.64107 2.10511,-0.91195 -0.16725,1.3375 -0.62032,2.81596 -0.23668,4.11292 1.02368,1.09847 2.80608,0.91881 4.08432,0.40468 1.95605,-0.87701 3.41722,-2.55926 4.66165,-4.25338 0.985,-1.59855 1.30502,-3.48267 1.87167,-5.24244 0.51992,-1.61383 -1.97754,-1.99367 -1.33516,-3.67702 0.18443,-1.47214 1.51246,-2.82222 0.88097,-4.35704 -1.16677,-1.59184 -2.46848,-3.2023 -4.20844,-4.2052 -1.65503,0.20924 -1.39206,2.36077 -1.73452,3.58292 -0.24405,1.06342 0.15362,2.45377 -1.20081,2.73198 -0.48375,0.692 -1.08173,0.7825 -1.27466,-0.15614 -0.49617,-1.80734 -0.57997,-3.69877 -0.58953,-5.56624 -0.0349,-1.54254 -0.10167,-3.09094 -0.37175,-4.61295 -0.67293,-0.38942 -2.26134,-1.43798 -2.03748,0.16928 -0.21447,2.16379 -0.47826,4.37459 0.0888,6.51137 0.30966,1.49393 0.93938,3.15984 0.22797,4.62732 -1.04644,1.26468 -2.88935,1.42086 -4.00648,2.6486 -1.33732,0.83139 -2.78155,1.64448 -3.55655,3.08369 -0.37436,0.5633 -0.74993,1.14087 -1.26298,1.58926 z" />
    <path
       id="path172"
       style="fill:#d5ccbc;stroke:#d5ccbc;stroke-width:0.264583px;stroke-linecap:butt;stroke-linejoin:miter;stroke-opacity:1;fill-opacity:1"
       d="m 196.63214,247.34537 c 0.86416,1.41066 0.61547,3.21034 1.57543,4.57285 0.69871,1.41871 1.45969,2.80546 2.21962,4.1912 0.7823,0.79045 1.60161,1.81528 0.92535,2.94921 -0.58776,1.56118 -1.33607,3.15092 -1.14488,4.86645 0.18906,1.58763 -0.7804,2.99548 -0.73377,4.57256 0.02,1.27232 -0.31209,2.49513 -0.72125,3.68597 -0.18786,1.21988 -0.0222,2.61551 -1.28635,3.29782 -0.45754,0.98862 -1.32076,1.86376 -2.49597,1.73403 -0.95903,-0.0285 -2.03223,0.19726 -2.89933,-0.29755 -0.52523,-1.07084 1.09147,-1.70949 1.65209,-2.43285 1.73031,-2.44482 2.54553,-5.45043 2.78452,-8.40887 0.15665,-1.46322 -0.19658,-2.93879 -0.99855,-4.17447 -0.99522,-1.55878 -1.57412,-3.41371 -1.31144,-5.27093 0.2429,-2.23527 1.27082,-4.30426 1.42372,-6.5572 0.16598,-0.96108 0.51052,-1.891 1.01081,-2.72822 z" />
    <path
       id="path179"
       style="fill:#d5ccbc;stroke:#d5ccbc;stroke-width:0.264583px;stroke-linecap:butt;stroke-linejoin:miter;stroke-opacity:1;fill-opacity:1"
       d="m 193.40313,243.59642 c -0.003,2.12429 1.01421,4.84898 -0.75734,6.5063 -1.99523,0.8614 -4.03259,1.58278 -5.93555,2.6457 -3.7541,1.01273 -7.56416,2.74371 -11.5436,1.91869 -1.98523,-0.55688 -3.74105,-1.86685 -5.84791,-2.12732 -2.00784,-1.00255 -4.43902,-1.3461 -6.09257,-2.93316 -1.81199,-2.35194 -1.17055,-5.5561 -1.84751,-8.29038 -0.78971,-2.11374 -1.38126,-4.16865 -1.1443,-6.50069 -0.50347,-2.65677 -2.87448,-4.28151 -4.80664,-5.89573 -1.82507,-0.89142 -1.77041,-1.89397 0.31487,-1.61006 4.2623,-0.0359 6.39892,4.64849 10.37097,5.50836 3.10435,1.09477 6.32685,-0.0518 9.3285,-0.88581 3.41457,-0.3669 6.37598,2.16396 7.85552,5.0429 2.07326,2.86669 5.38953,4.45187 8.27461,6.34943 0.56678,0.26425 1.21109,0.37532 1.83095,0.27177 z" />
    <path
       id="path251"
       style="fill:#ff8080;stroke:#ff8080;stroke-width:0.264583px;stroke-linecap:butt;stroke-linejoin:miter;stroke-opacity:1"
       d="m 189.90297,248.89819 c -0.8179,0.12546 -1.0762,1.04634 -1.73592,1.42894 -0.44469,0.32676 -0.68187,0.82463 -1.17986,1.06864 -0.22137,0.57234 0.50764,0.77768 0.79127,1.12574 0.33804,0.57676 -0.26304,1.10087 -0.4288,1.62534 -0.1,0.47654 0.39855,0.81485 0.3659,1.28228 0.51336,-0.28364 0.57118,-1.14986 0.90913,-1.66101 0.11991,-0.42404 0.71429,-1.26696 0.95971,-0.46029 0.13185,0.76816 -0.30362,1.5094 -0.25052,2.27238 0.16345,0.38366 0.50689,1.06356 0.95527,0.99353 0.21873,-0.39934 0.29063,-0.87857 0.30734,-1.33293 -0.008,-0.67037 0.022,-1.48441 0.66212,-1.87999 0.57593,-0.32894 1.2978,-0.57208 1.55121,-1.25203 0.52621,-1.27229 -0.17633,-3.01819 -1.57064,-3.34845 -0.44444,-0.0921 -0.91854,-0.0361 -1.33621,0.13785 z" />
    <path
       id="path158"
       style="fill:#ece8ed;fill-opacity:1;stroke:#ece8ed;stroke-width:0.264583px;stroke-linecap:butt;stroke-linejoin:miter;stroke-opacity:1"
       d="m 201.95632,242.97529 c -1.20488,2.26267 -2.28079,4.58076 -3.16562,6.98193 -1.46824,2.4802 -2.85197,5.21115 -2.71454,8.14782 0.936,2.86092 -1.97206,4.48625 -2.90806,6.85767 -1.57746,2.38897 -3.69428,4.54415 -4.12802,7.51732 -0.48139,2.30305 -1.17986,5.75813 -3.91286,6.24662 -0.80057,0.55934 -3.83761,-1.39104 -2.02426,-0.24158 1.5744,0.36284 -3.30296,-0.96508 -0.64719,-1.52279 2.05791,-2.27844 3.34523,-5.14387 5.36386,-7.4691 2.25076,-2.36881 2.58655,-5.65549 2.45446,-8.75945 0.27721,-2.16791 1.18657,-4.24298 1.06954,-6.47586 -0.14676,-1.81008 0.29187,-3.85091 -0.60664,-5.46183 -0.17657,-2.73339 -2.06378,-0.21548 -3.37308,-0.46172 -0.1249,-2.80939 -3.92781,-2.89799 -4.19214,-5.51418 -0.20169,-3.07997 -2.1945,-5.50635 -3.75858,-8.0071 -1.64849,-2.9162 -2.26742,-6.25625 -3.68475,-9.26674 -0.59565,-1.94683 -1.86858,-6.08939 1.41199,-6.06101 2.36251,-0.1172 4.32327,1.22206 6.39787,2.13265 4.35114,2.44354 9.52513,1.70601 14.21309,2.86123 2.33062,1.01875 4.1365,3.33278 4.13546,5.92858 0.56366,3.54707 0.13226,7.13598 0.1961,10.70746 -0.0226,0.62114 -0.0612,1.2419 -0.12663,1.86008 z"
       sodipodi:nodetypes="cccccccccccccccccccccc" />
    <path
       id="path203"
       style="fill:#d5ccbc;stroke:#d5ccbc;stroke-width:0.264583px;stroke-linecap:butt;stroke-linejoin:miter;stroke-opacity:1;fill-opacity:1"
       d="m 149.23223,253.57883 c -0.70418,2.4026 0.44148,4.93834 -0.28957,7.32637 -0.9535,1.90778 -1.20138,4.06344 -2.05114,6.01453 -0.44857,1.2778 -1.33545,2.34916 -2.22559,3.34051 -1.53863,0.77587 0.62866,2.01237 1.58407,1.73131 1.20954,-0.42275 3.19157,-1.16024 2.60434,-2.73915 -0.11691,-1.22103 1.8795,0.3436 1.38563,-1.12673 0.0172,-1.30979 0.6589,-2.52327 0.59192,-3.85195 0.23091,-2.29903 1.65268,-4.23036 2.10725,-6.47448 0.21861,-1.73606 1.36313,-3.18977 1.5566,-4.92667 -0.49814,-1.08417 -1.9055,0.0514 -2.65072,0.34865 -0.79061,0.45542 -1.73173,0.70046 -2.61279,0.35761 z" />
    <path
       id="path187"
       style="fill:#d5ccbc;stroke:#d5ccbc;stroke-width:0.264583px;stroke-linecap:butt;stroke-linejoin:miter;stroke-opacity:1;fill-opacity:1"
       d="m 159.83127,246.7686 c 0.0269,1.32748 0.32073,2.70105 0.0135,4.00557 -0.52671,0.75358 -1.09417,1.55097 -1.89273,2.03643 -1.25477,0.41537 -1.47658,1.93232 -2.6401,2.44191 -1.48367,0.86339 -3.24627,1.69916 -4.99545,1.27196 -1.00455,-0.35873 -1.70679,-1.70733 -2.90615,-1.3613 -0.76232,0.40653 -1.97551,0.1142 -1.72511,-0.9537 0.29193,-1.39496 1.12969,-2.64497 2.14092,-3.62137 0.60275,-0.86506 1.33673,-1.72986 1.40835,-2.82816 0.26817,-1.23249 0.9672,-2.42597 2.01254,-3.15106 1.60704,-0.92269 3.4989,-0.2952 5.15911,0.12861 1.03063,0.33814 2.38784,0.35988 3.00615,1.36565 0.13158,0.22712 0.26582,0.45196 0.41902,0.66546 z" />
    <path
       sodipodi:nodetypes="scccccccccccccccs"
       id="path195"
       style="fill:#ece8ed;fill-opacity:1;stroke:#ece8ed;stroke-width:0.264583px;stroke-linecap:butt;stroke-linejoin:miter;stroke-opacity:1"
       d="m 163.43001,237.47387 c -0.46476,2.54305 0.88702,4.96923 2.49395,6.8878 1.51811,2.82832 -0.51144,5.72525 -1.25351,8.44455 -0.59502,2.38147 -0.68873,4.95314 -0.0356,7.3192 -0.26032,2.05584 -1.67832,3.94878 -1.03309,6.1041 0.20211,1.9735 2.22806,3.82669 1.15903,5.81974 -1.57278,1.4305 -0.38647,3.83955 -1.9508,5.14244 -1.29271,0.4522 -4.46939,0.94126 -4.68788,-0.83989 1.24681,-0.96863 2.99065,-2.261 2.36605,-4.1375 -0.65111,-1.78401 -0.066,-3.57354 0.42219,-5.28566 0.39917,-2.0584 -1.52787,-3.34495 -2.01521,-5.15017 -0.74711,-2.389 0.59027,-4.86248 -0.21163,-7.26331 -0.67743,-1.83414 -1.23399,-3.74041 -2.1172,-5.49152 -1.26093,-1.38374 -2.10329,-4.11783 -0.24675,-5.34434 1.99615,-0.35286 3.03333,-1.95039 3.095,-3.85968 0.76397,-1.63499 3.4041,-5.22778 4.69976,-6.09017 z" />
    <path
       id="path211"
       style="fill:#ece8ed;stroke:#ece8ed;stroke-width:0.264583px;stroke-linecap:butt;stroke-linejoin:miter;stroke-opacity:1;fill-opacity:1"
       d="m 146.10181,223.69813 c 0.48409,-2.49124 3.20888,-3.38872 5.14155,-4.54038 1.61152,-1.11513 3.52237,-0.63361 5.29898,-0.3817 3.00426,0.46144 5.9847,-0.20062 8.94646,-0.6098 2.05848,-0.35619 2.78267,2.01503 3.13034,3.58058 0.96501,3.0394 1.30315,6.36472 3.05745,9.09095 1.05962,1.64243 3.0979,2.59782 3.44944,4.66289 0.55837,2.21621 -2.16001,3.42614 -3.97191,3.49751 -4.61867,0.0306 -8.82061,-2.20424 -13.19649,-3.37484 -2.23756,-0.60974 -4.74897,-1.59795 -5.58122,-3.98082 -0.57431,-1.50367 -1.51619,-2.80074 -1.92233,-4.36473 -0.82779,-1.72904 -2.57744,-2.95771 -4.35227,-3.57966 z" />
    <path
       id="path219"
       style="fill:#27200b;stroke:#27200b;stroke-width:0.264583px;stroke-linecap:butt;stroke-linejoin:miter;stroke-opacity:1;fill-opacity:1"
       d="m 163.23283,220.81432 c 0.1617,-2.5511 3.18389,-3.44769 5.33619,-3.17223 2.52031,0.5059 5.21972,0.5756 7.57223,1.64275 1.90544,1.05339 2.03926,3.71005 1.21818,5.51161 -0.77951,1.77832 1.12744,3.11188 1.70237,4.62705 1.1177,1.21129 2.1431,2.83437 1.00322,4.41127 -0.81718,1.74386 -0.56555,3.78358 0.99597,5.021 1.8259,1.36104 0.68949,3.07951 0.15817,4.70019 1.17953,1.89961 2.52023,4.72118 0.60369,6.65833 -0.91794,1.66119 -3.10487,1.26762 -4.68089,1.62213 -2.19944,0.0877 -3.16124,-2.23339 -3.84122,-3.93193 -0.39045,-1.74142 -1.6268,-5.26733 0.99132,-5.62351 1.94408,-1.01813 0.25803,-3.6951 -0.78315,-4.85541 -0.78934,-1.55335 -2.59333,-1.94707 -3.66219,-3.19333 -1.75838,-2.07423 -3.1592,-5.16097 -1.98849,-7.80605 0.0663,-2.11037 -2.42574,-2.52661 -3.64113,-3.74303 -0.51441,-0.49676 -0.9008,-1.15051 -0.98427,-1.86884 z" />
    <path
       id="path227"
       style="fill:#27200b;stroke:#27200b;stroke-width:0.264583px;stroke-linecap:butt;stroke-linejoin:miter;stroke-opacity:1;fill-opacity:1"
       d="m 190.42061,239.31507 c -0.11193,1.29293 -1.62527,1.55633 -2.65177,1.77482 -1.75287,0.24045 -3.58671,-1.0047 -3.8679,-2.78356 -0.69099,-2.73612 -0.53951,-5.61893 -1.39904,-8.32323 -0.55575,-1.57915 0.0131,-3.22843 1.01441,-4.46684 0.88947,-0.97778 2.51298,-1.17505 3.51202,-0.24818 1.13933,1.05354 2.39042,-0.0833 3.07129,-1.04961 1.52036,-1.17953 4.09048,-0.82913 5.14088,0.83836 1.12107,1.56173 1.50902,3.67123 3.18789,4.80233 1.23993,0.97707 1.37581,2.65826 1.49286,4.11376 0.0293,1.13196 -0.2115,2.29596 -0.83442,3.25446 -1.07108,0.7668 -1.83793,2.50835 -3.40371,1.48337 -1.10525,-0.44855 -2.47561,-1.65464 -3.61614,-0.64696 -0.49511,0.47358 -0.93043,1.10752 -1.64637,1.25128 z" />
    <path
       id="path235"
       style="fill:#27200b;stroke:#27200b;stroke-width:0.264583px;stroke-linecap:butt;stroke-linejoin:miter;stroke-opacity:1;fill-opacity:1"
       d="m 198.9738,227.13652 c -0.45907,-0.79039 -2.57766,-2.41356 -1.09829,-2.94819 1.28631,0.63912 2.53632,1.40702 4.08616,1.21763 1.6477,-0.13626 2.93481,0.94115 4.40849,1.45432 1.6921,0.84196 2.53917,2.76266 3.01131,4.49071 0.16165,2.54915 -1.5718,4.85949 -1.07612,7.436 -0.006,1.68615 0.21244,3.46219 1.46229,4.71542 1.50206,1.35847 -1.34457,0.1208 -1.69936,-0.64212 -0.86115,-0.97411 -1.64075,-2.00682 -1.91086,-3.30366 -0.63467,-1.46014 -0.0894,-3.0001 0.75624,-4.23348 0.66432,-1.32699 0.69604,-2.97378 0.17471,-4.35037 -0.20956,-1.18375 -3.45904,-2.12807 -2.24794,-0.25617 1.03432,1.29102 3.20992,2.51687 2.23234,4.46611 -0.57128,1.54239 -1.68847,2.85218 -1.91839,4.52246 -0.48249,1.61441 -1.39346,3.01819 -2.25672,4.43873 -1.10838,1.50282 -1.39305,3.74635 -3.23007,4.60845 -0.3954,0.51702 -1.34338,2.05294 -0.78359,0.52517 0.70778,-1.72322 0.57839,-3.645 1.17099,-5.40928 0.54826,-2.10125 0.6966,-4.29739 0.35046,-6.44337 0.0942,-1.7385 -0.27524,-3.74655 0.60583,-5.30174 1.45704,-1.04848 0.10199,-2.49296 -1.11635,-2.92901 -0.72433,-0.42211 -0.81466,-1.31009 -0.92113,-2.05761 z" />
    <path
       id="path243"
       style="fill:#27200b;stroke:#27200b;stroke-width:0.264583px;stroke-linecap:butt;stroke-linejoin:miter;stroke-opacity:1;fill-opacity:1"
       d="m 150.63721,221.85693 c -2.50768,-1.29171 -4.34918,1.26063 -5.92978,2.73341 -2.1457,1.94281 -2.98942,4.81904 -4.77457,7.04932 -1.21103,2.72637 -2.92385,5.16545 -4.88784,7.41159 -2.44702,4.06066 -5.6666,7.67311 -9.62221,10.3298 -0.89467,2.54767 -0.93773,5.28822 1.34523,7.0484 1.97567,1.80998 4.1536,3.29298 5.30962,5.70257 3.16268,1.96576 3.5499,-2.8146 5.16975,-4.36734 2.27541,-1.04268 4.63052,-4.69155 7.35915,-2.62943 2.21891,1.22329 4.78799,-0.3368 5.55209,-2.54845 2.06648,-1.91539 4.25588,-3.41272 5.32004,-5.96817 2.66217,0.35726 3.84088,4.76342 7.37143,3.68054 1.70015,-0.75394 -0.63521,-3.96566 2.41772,-2.76684 1.27064,-2.8111 -3.38062,-3.90884 -3.37885,-6.6306 -0.16022,-2.69119 0.99581,-5.56112 -0.77249,-7.98633 -1.58673,-2.10513 -1.72401,-5.0329 -3.40388,-6.94123 -2.72271,-1.11734 -6.02088,-0.36943 -7.07541,-4.11724 z" />
    <path
       id="path347"
       style="fill:#999999;stroke:#999999;stroke-width:0.264583px;stroke-linecap:butt;stroke-linejoin:miter;stroke-opacity:1;fill-opacity:1"
       d="m 134.49683,263.39164 c 0.25166,0.17052 0.65026,0.21711 0.7159,0.57314 0.13927,0.46745 0.11527,0.96449 0.23915,1.43597 0.11512,0.63279 -0.0228,1.27935 0.0793,1.91146 -0.0381,0.22159 0.46753,0.62212 0.0851,0.6581 -0.28573,-0.10278 -0.62034,-0.0238 -0.89959,-0.17542 -0.46638,-0.18806 -0.94335,-0.40257 -1.45854,-0.37572 -0.35812,-0.048 -0.81224,0.0847 -1.0989,-0.18063 -0.18952,-0.32944 0.006,-0.71351 0.11778,-1.03553 0.17915,-0.44313 0.492,-0.81963 0.87116,-1.10615 0.27424,-0.27362 0.39262,-0.66506 0.69706,-0.9141 0.25653,-0.23325 0.36182,-0.58839 0.65159,-0.79112 z" />
    <path
       id="path273"
       style="fill:#19150a;stroke:#19150a;stroke-width:0.264583px;stroke-linecap:butt;stroke-linejoin:miter;stroke-opacity:1;fill-opacity:1"
       d="m 122.26627,251.73762 c -0.41041,1.33969 -0.48016,2.82248 -1.43159,3.93729 -0.84281,1.25845 -0.51012,2.75441 -0.34428,4.1417 0.27548,3.28302 -1.56759,6.19645 -1.96266,9.38225 -0.79745,1.37374 -0.73625,3.16281 1.12431,3.5086 1.2826,1.00924 2.92973,1.19904 4.49579,0.89796 2.03199,0.51839 1.52076,-2.2634 2.6441,-3.01866 0.86563,-1.3353 2.33224,-1.90643 3.5403,-2.84884 1.27082,-1.25398 2.88003,-2.19379 3.85841,-3.70995 0.83202,-1.05409 1.9752,-2.36624 1.12139,-3.77356 -1.44099,-1.46964 -2.71872,-3.25661 -2.86392,-5.3957 -0.15981,-2.08215 -1.75292,-3.62695 -3.26042,-4.88285 -0.76009,-1.05411 -1.91179,-1.99901 -3.14139,-2.10143 -1.75052,0.79632 -1.78261,3.42137 -3.78004,3.86319 z" />
    <path
       id="path333"
       style="fill:#999999;stroke:#999999;stroke-width:0.264583px;stroke-linecap:butt;stroke-linejoin:miter;stroke-opacity:1"
       d="m 127.75164,246.8117 c 0.50578,0.34387 0.84614,0.88464 1.52791,0.59662 0.63672,0.45474 0.74692,1.62614 1.80074,1.36124 0.96044,0.2245 0.44899,1.48919 1.29039,1.83433 0.92436,0.3103 1.40456,0.97612 1.46879,1.92614 0.23423,0.89434 1.39155,1.30794 1.36694,2.28937 -0.22897,0.74464 -0.19766,1.5937 0.35516,2.18712 -0.0589,0.93831 0.42558,1.67403 0.41744,2.58289 0.53763,0.56429 0.72055,1.46333 0.18633,2.13021 -0.48824,0.83085 -0.14028,-0.86751 -0.30151,-1.16686 -0.68822,-0.61516 -1.03353,-1.42638 -1.60921,-2.19628 0.0236,-0.76908 -0.45462,-1.43256 -0.54272,-2.16963 0.39235,-0.93017 -0.51305,-1.4413 -0.6595,-2.24247 0.0923,-0.80173 -0.78486,-1.20016 -0.72223,-1.99849 -0.20875,-0.72827 -0.55764,-1.64257 -1.28593,-1.76359 0.0648,-0.79302 -0.54,-0.83876 -1.10433,-0.72943 -0.28046,-0.84875 -0.96904,-1.16389 -1.77733,-1.3562 -0.23774,-0.1383 -0.94897,-0.0295 -0.72478,-0.62904 -0.64426,0.0544 0.0833,-0.81327 0.31384,-0.65593 z" />
    <path
       id="path259"
       style="fill:#d5ccbc;stroke:#d5ccbc;stroke-width:0.264583px;stroke-linecap:butt;stroke-linejoin:miter;stroke-opacity:1;fill-opacity:1"
       d="m 130.12929,251.3827 c 2.59747,-0.33557 5.2236,-0.10786 7.80279,0.26771 1.03605,0.13761 2.08438,0.11579 3.12307,0.18992 0.71397,0.0413 1.25983,0.82851 0.95238,1.49826 -0.37846,0.80748 -1.25962,1.20481 -1.99442,1.62732 -1.30783,0.62209 -2.68364,1.0975 -4.06431,1.52935 -1.86823,0.53226 -4.0201,-0.0655 -5.34966,-1.47376 -0.32667,-0.46526 -0.96249,-1.25927 -0.42756,-1.76869 0.46047,-0.33812 1.28962,-0.0621 1.59962,-0.44134 -0.49184,-0.50532 -1.42387,-0.5984 -1.64191,-1.42877 z" />
    <path
       id="path325"
       style="fill:#d5ccbc;stroke:#d5ccbc;stroke-width:0.264583px;stroke-linecap:butt;stroke-linejoin:miter;stroke-opacity:1;fill-opacity:1"
       d="m 122.47924,250.17631 c -0.3207,0.34336 -0.62424,0.7791 -1.09585,0.91181 -0.66887,0.13057 -1.35844,0.10501 -2.03653,0.0812 -0.43469,-0.033 -0.87902,-0.14777 -1.24776,-0.3834 -0.23916,-0.13861 -0.23359,-0.42643 0.096,-0.349 0.42314,-0.16461 0.78898,-0.48982 1.27651,-0.45329 0.44979,-0.019 0.85476,-0.21628 1.23077,-0.44709 0.42644,-0.24136 0.86648,-0.46036 1.28412,-0.71297 0.33557,-0.078 0.5787,-0.29603 0.8457,-0.4956 0.2523,-0.19742 0.68679,-0.2036 0.82443,0.13175 0.107,0.42891 -0.14743,0.85794 -0.41226,1.17917 -0.20292,0.24034 -0.44966,0.4659 -0.76515,0.53747 z" />
    <path
       id="path281"
       style="fill:#ece8ed;stroke:#ece8ed;stroke-width:0.264583px;stroke-linecap:butt;stroke-linejoin:miter;stroke-opacity:1;fill-opacity:1"
       d="m 122.75925,248.96474 c -0.23341,-0.73015 0.13826,-1.55743 0.79241,-1.92906 0.25966,-0.45629 0.74746,-0.54609 1.1826,-0.27943 0.59326,0.24109 1.19816,0.56915 1.58811,1.08726 0.17781,0.5309 -0.37614,0.91301 -0.7156,1.2181 -0.6107,0.38381 -0.71249,1.10535 -0.76293,1.76179 -0.0756,0.59649 -0.42318,1.10597 -0.53309,1.69537 -0.13311,0.59072 -0.89718,0.62993 -1.09791,1.18258 -0.37633,0.58699 -0.46668,1.32123 -0.78942,1.90813 -0.45482,-0.005 -0.63639,-0.73812 -0.85876,-1.11282 -0.34284,-0.88126 -0.35004,-1.88501 -0.0938,-2.78937 0.11183,-0.42593 0.51722,-0.75387 0.42909,-1.22807 -0.0602,-0.66622 -0.0317,-1.33959 0.0854,-1.99839 0.32328,0.0125 0.51858,0.32715 0.77389,0.48391 z" />
    <path
       id="path295"
       style="fill:#000000;stroke:#000000;stroke-width:0.264583px;stroke-linecap:butt;stroke-linejoin:miter;stroke-opacity:1"
       d="m 117.75586,270.51302 c 0.29027,0.16041 0.63813,0.0235 0.85935,-0.19051 0.29178,-0.20769 0.65677,-0.26511 1.0052,-0.29147 0.19127,0.17239 0.40303,0.31587 0.63513,0.45094 0.25025,0.20699 0.37752,0.52753 0.39451,0.84623 0.0606,0.35478 0.4684,0.47601 0.56855,0.80995 0.1289,0.30433 0.0429,0.6699 -0.20135,0.89113 -0.19324,0.18113 -0.36021,0.43545 -0.63008,0.50193 -0.27744,0.0436 -0.47273,-0.20671 -0.6864,-0.33974 -0.59295,-0.46167 -1.30136,-0.8257 -1.68715,-1.49995 -0.11978,-0.24845 -0.39185,-0.43206 -0.41861,-0.71548 0.009,-0.16489 0.086,-0.31909 0.16085,-0.46303 z" />
    <path
       id="path303"
       style="fill:#b5a58a;stroke:#b5a58a;stroke-width:0.264583px;stroke-linecap:butt;stroke-linejoin:miter;stroke-opacity:1;fill-opacity:1"
       d="m 124.14375,258.97607 c 0.15103,-0.31553 0.37304,-0.62556 0.71301,-0.75224 0.21712,-0.11444 0.44588,-0.21955 0.69524,-0.23039 0.24975,-0.0303 0.50724,-0.10069 0.75723,-0.0436 0.24788,0.11096 0.2675,0.42198 0.26337,0.65858 -0.0121,0.2611 -0.0687,0.52688 -0.19321,0.7579 -0.12563,0.17529 -0.35534,0.20413 -0.53556,0.29819 -0.29272,0.13387 -0.63428,0.19217 -0.94237,0.075 -0.35043,-0.12233 -0.64003,-0.41071 -0.75771,-0.76346 z" />
    <path
       id="path317"
       style="fill:#d5ccbc;stroke:#d5ccbc;stroke-width:0.264583px;stroke-linecap:butt;stroke-linejoin:miter;stroke-opacity:1;fill-opacity:1"
       d="m 121.18075,251.05472 c 0.88785,-0.0553 1.70935,-0.43111 2.56185,-0.65134 0.41732,-0.13125 0.87394,-0.28657 1.09732,-0.69672 0.18621,-0.36233 0.56841,-0.51239 0.92218,-0.65873 0.37114,-0.20179 0.82393,-0.37759 1.24042,-0.20491 0.46419,0.47629 0.46492,1.25247 0.17688,1.82175 -0.14923,0.51957 -0.62486,0.83329 -1.09989,1.0272 -1.08703,0.45335 -2.3691,0.49105 -3.44412,-0.0178 -0.48358,-0.21004 -1.00189,-0.34294 -1.45464,-0.61943 z" />
    <path
       id="path355"
       style="fill:#d5ccbc;stroke:#d5ccbc;stroke-width:0.264583px;stroke-linecap:butt;stroke-linejoin:miter;stroke-opacity:1;fill-opacity:1"
       d="m 208.09327,238.53741 c -0.0214,0.72367 0.32847,1.41853 0.54492,2.11045 0.45661,1.21992 1.47094,2.14432 2.63684,2.68023 0.85572,0.40568 1.90475,0.69796 2.81332,0.30435 0.46033,-0.32002 0.9933,-0.56184 1.35429,-0.99566 0.48222,-0.23177 0.41851,0.84047 0.26659,1.16126 -0.30199,0.60784 -0.71843,1.20208 -1.28246,1.58775 -0.82305,0.4358 -1.68275,-0.0873 -2.51721,-0.18406 -0.81323,-0.0989 -1.61168,-0.33242 -2.3006,-0.78654 -0.65214,-0.42133 -1.35497,-0.83767 -1.81125,-1.48002 -0.25804,-0.58647 -0.60634,-1.21654 -0.57556,-1.86919 0.13523,-0.68123 0.55706,-1.2525 0.75839,-1.9078 0.0445,-0.20567 0.0913,-0.41114 0.11273,-0.62077 z" />
    <path
       id="path369"
       style="fill:#19150a;stroke:#19150a;stroke-width:0.264583px;stroke-linecap:butt;stroke-linejoin:miter;stroke-opacity:1;fill-opacity:1"
       d="m 214.89075,243.80001 c 0.18234,-0.47491 0.44708,-1.07175 0.15003,-1.54933 -0.34674,-0.30901 -0.8586,-0.26794 -1.28901,-0.35715 -0.41086,-0.17125 -0.65449,0.32063 -0.87115,0.36496 0.11541,-0.34843 0.61063,-0.67626 1.00639,-0.73225 0.41323,0.2604 0.39005,-0.1897 -0.0175,-0.19759 -0.24398,-0.18247 -1.01055,-0.21461 -0.49794,-0.56764 0.0742,-0.33187 -0.60982,-0.41903 -0.88878,-0.56021 -0.70569,0.01 0.31199,-0.52571 0.56783,-0.65812 0.2759,-0.11812 1.24649,0.01 0.71101,-0.4412 -0.26399,-0.15481 -0.50965,-0.52732 -0.0139,-0.3604 0.30222,0.11453 0.82859,0.22305 0.53958,-0.26973 -0.29833,-0.45387 0.0838,-0.55268 0.36033,-0.21989 0.29539,0.16076 0.83239,1.02893 0.96378,0.3695 -0.11413,-0.44248 0.006,-0.9409 -0.11809,-1.35621 0.37577,0.20005 0.34424,0.94488 0.52578,1.37024 0.0977,0.26159 0.11685,1.13866 0.33242,0.99644 0.17826,-0.75714 0.61559,-1.49539 0.43436,-2.29884 -0.0766,-0.22922 -0.0601,-1.18572 0.24176,-0.8946 -0.0172,0.30035 0.3354,1.06851 0.37543,0.96622 0.0921,-0.46236 0.4806,-0.90058 0.60028,-1.29795 -0.21627,0.37151 0.26443,1.04612 0.0676,1.55009 -0.10167,1.27445 -0.18418,2.55383 -0.23187,3.82976 0.0342,0.50974 0.63631,0.819 0.56821,1.33733 -0.20893,0.75163 -1.04128,0.95354 -1.64809,1.27781 -0.43933,0.35317 -0.96328,0.0161 -1.34355,-0.24345 -0.16415,-0.0692 -0.35068,-0.097 -0.52493,-0.0578 z" />
    <path
       id="path535"
       style="fill:#5c891c;stroke:#5c891c;stroke-width:0.264583px;stroke-linecap:butt;stroke-linejoin:miter;stroke-opacity:1;fill-opacity:1"
       d="m 12.330671,238.74409 c -2.040102,-0.93978 -4.3590496,-1.88494 -5.5413585,-3.91127 -1.2580714,-1.91156 1.6544763,-2.41477 2.2244206,-3.91764 1.1856509,-1.49109 1.7424339,-3.44954 1.3055429,-5.3228 -0.5870658,-3.07493 -2.0668766,-5.87571 -3.4660045,-8.63831 -0.5296788,-2.01633 0.9716515,-3.77046 1.9050408,-5.41306 0.7469767,-1.4838 2.6955767,-1.32755 3.6938477,-2.48883 0.761951,-1.40747 -0.455094,-2.88707 -0.818779,-4.23577 0.261515,-1.81142 2.686968,-2.1954 4.055649,-3.06127 1.831606,-0.75402 3.762204,-1.68891 5.789337,-1.51211 1.880094,0.47119 1.501779,2.91758 0.647093,4.16117 -0.974233,1.86787 -2.56064,3.93527 -1.697734,6.14684 0.912441,2.51995 4.413345,2.60028 5.251192,5.16387 0.810341,2.59892 -0.564183,5.27796 -1.990433,7.39132 -1.064735,1.61494 -3.02696,3.15708 -2.514637,5.31911 0.391211,1.32205 1.590431,2.70967 0.654665,4.09592 -0.759909,1.78612 -2.554767,2.83535 -4.403584,3.16761 -1.994592,0.33227 -2.770203,2.77946 -4.539806,3.18846 -0.189694,-0.0191 -0.376796,-0.064 -0.554452,-0.13324 z" />
    <path
       id="path542"
       style="fill:#729020;stroke:#729020;stroke-width:0.264583px;stroke-linecap:butt;stroke-linejoin:miter;stroke-opacity:1;fill-opacity:1"
       d="m 20.588069,214.38701 c -2.390561,-2.26532 -4.498694,-5.52029 -3.800332,-8.96253 0.419285,-2.18523 0.81714,-4.4954 -0.03336,-6.63965 -1.5752,-3.74354 -2.245859,-8.05376 -0.878997,-11.96521 0.701166,-2.30791 2.343363,-4.12414 4.023821,-5.77995 1.505845,-0.98624 0.190046,-2.73882 1.186184,-3.88366 1.08603,-1.07014 2.106771,-2.2567 3.201651,-3.2732 1.48027,0.68344 0.0065,3.17221 1.481203,4.13488 1.64399,1.70962 4.585109,2.18301 5.318866,4.68871 0.330492,1.97705 -1.324837,3.51446 -2.189106,5.12632 -0.646475,1.27336 -1.798555,2.73613 -1.142919,4.21382 1.261101,1.75187 3.808161,1.77173 5.187357,3.42584 1.456256,1.53911 0.520788,3.81355 -0.454136,5.34696 -1.001651,1.71098 -2.386254,3.15412 -3.518041,4.76418 -0.689397,1.85692 1.98703,2.34474 2.462019,3.83852 -0.0047,1.31931 -1.325743,2.22241 -2.308951,2.92198 -1.621593,1.05478 -3.662661,1.29587 -5.512335,0.76966 -1.295811,-0.44593 -1.631129,0.9732 -2.195782,1.50118 -0.290544,0.0138 -0.584668,-0.0672 -0.827147,-0.22785 z" />
    <path
       id="path549"
       style="fill:#5c891c;stroke:#5c891c;stroke-width:0.264583px;stroke-linecap:butt;stroke-linejoin:miter;stroke-opacity:1;fill-opacity:1"
       d="m 27.563717,166.36049 c 1.428767,0.73154 1.127153,2.6039 1.449747,3.92965 0.192263,2.41152 -1.209029,4.51356 -2.346511,6.50372 0.356607,1.58437 2.97757,2.12554 2.3927,4.24861 -0.35854,2.71768 -2.767959,4.61112 -3.283023,7.26935 0.234375,2.26295 2.362206,3.79153 4.30872,4.61728 2.373018,0.90728 5.033018,0.13424 6.944108,-1.42351 1.571304,-0.65168 2.785652,-2.13554 1.14907,-3.5367 -1.160484,-2.14768 0.128833,-4.54471 0.832513,-6.62726 1.024311,-3.05522 -0.30368,-6.38871 0.875911,-9.42927 0.479511,-1.9275 -0.946174,-3.52908 -2.062195,-4.90426 -0.752446,-1.42957 -1.565573,-4.09851 -3.268906,-1.93134 -2.1684,1.14355 -0.816175,-3.10416 -2.008142,-4.2092 -1.814696,-1.28372 -3.354943,1.62494 -3.545408,3.18273 0.444387,1.53826 -0.523805,3.75764 -1.831403,3.87834 -0.362961,-0.52977 -0.108527,-1.23219 0.392819,-1.56814 z" />
    <path
       id="path557"
       style="fill:#4c6f34;stroke:#4c6f34;stroke-width:0.264583px;stroke-linecap:butt;stroke-linejoin:miter;stroke-opacity:1;fill-opacity:1"
       d="m 34.194284,210.17221 c -1.063553,-2.75219 -5.098092,-3.86641 -4.700157,-7.25615 0.366487,-2.8373 2.238016,-5.53942 1.381093,-8.48341 -0.612701,-2.56967 -1.825556,-5.30822 -0.637817,-7.91372 0.754763,-1.99981 1.481288,-4.49862 3.811894,-5.12596 1.705262,-0.86503 4.756242,-1.3487 4.673183,1.45096 0.290951,3.41759 0.02082,6.88687 -0.865768,10.19459 0.217368,2.48652 3.148539,2.99117 4.740774,4.39285 2.45601,1.79467 3.716281,4.94751 3.134515,7.93949 -0.487059,2.99736 -1.846517,6.21344 -0.301958,9.13609 0.80783,2.67897 -0.982016,5.26136 -2.791831,7.05519 -1.858661,1.64273 -4.230001,-8e-4 -5.625763,-1.42447 -1.890088,-0.96588 -1.361265,-3.40383 -2.716629,-4.73936 -1.682475,-1.04244 -2.478828,-3.28641 -1.385763,-5.03604 0.03686,-0.34567 0.454513,-1.52552 0.594059,-0.50063" />
    <path
       id="path565"
       style="fill:#5c891c;stroke:#5c891c;stroke-width:0.264583px;stroke-linecap:butt;stroke-linejoin:miter;stroke-opacity:1;fill-opacity:1"
       d="m 35.919711,233.04303 c -0.539555,-2.23541 2.354509,-3.56326 1.840447,-5.82442 -0.462667,-2.60286 -2.735001,-4.70263 -2.38232,-7.49502 0.295077,-2.56967 1.934978,-4.99518 1.268459,-7.66236 -0.729972,-2.30557 -1.799088,-4.49504 -2.566603,-6.7887 -0.74135,-1.9833 -2.679487,-3.10741 -4.604749,-3.64154 -1.475539,1.37442 -0.169126,4.12554 -1.606673,5.70345 -1.079857,1.0353 -3.131372,1.8061 -2.69873,3.6775 -0.130479,1.98269 2.345692,3.35671 2.087243,5.00031 -1.626879,0.45298 -2.000067,2.25699 -2.210427,3.72821 0.181094,2.40282 1.819234,4.40603 3.342577,6.15177 1.479971,1.29242 2.849693,3.57517 1.661944,5.47751 -1.21326,1.03407 -1.410694,3.19818 0.670385,3.04488 1.728401,-0.0511 2.364457,-1.77891 2.839201,-3.09511 1.749978,-1.28549 0.05887,3.622 2.359246,1.72352 z" />
    <path
       id="path573"
       style="fill:#729020;stroke:#729020;stroke-width:0.264583px;stroke-linecap:butt;stroke-linejoin:miter;stroke-opacity:1;fill-opacity:1"
       d="m 34.687264,190.62885 c -0.382332,-1.57078 1.279313,-2.51717 2.030311,-3.66359 1.578214,-1.75495 3.248157,-3.80234 3.062745,-6.32028 -0.0335,-3.14257 -1.284249,-6.27288 -0.437569,-9.40792 0.08858,-1.5119 0.612408,-3.86686 2.573442,-3.5732 0.554392,1.94545 0.603057,4.14562 1.558655,6.00427 0.872437,1.30475 3.085624,2.35377 2.093937,4.24125 -0.953913,1.56943 -0.36162,3.72042 1.698722,3.8227 2.023265,0.18987 3.144653,1.86788 4.103102,3.44332 0.946228,1.36938 3.048647,1.86495 3.254605,3.7379 0.254361,1.5618 -1.072883,2.55847 -2.158016,3.39107 -0.931152,0.85362 -1.468321,2.67944 -1.359902,3.47233 -1.780255,-1.23732 -3.667671,-3.25436 -6.063689,-2.59048 -1.602291,0.6599 -2.368164,2.85324 -4.373392,2.676 -1.860835,-0.0774 -4.667849,-0.82217 -5.005373,-2.93468 -0.0078,-0.91523 -0.369555,-1.67763 -0.977578,-2.29869 z" />
    <path
       id="path581"
       style="fill:#5c891c;stroke:#5c891c;stroke-width:0.264583px;stroke-linecap:butt;stroke-linejoin:miter;stroke-opacity:1;fill-opacity:1"
       d="m 49.673819,201.83134 c -1.836849,-0.87542 -1.56459,-3.35962 -2.633381,-4.87145 -0.788851,-1.89058 -1.070163,-4.85362 1.18168,-5.84194 1.711942,-0.63902 2.83702,-2.20104 3.232763,-3.94537 0.630976,-2.6888 0.315919,-5.48572 0.211135,-8.21317 0.0594,-1.66355 -1.491159,-5.13166 0.706703,-5.5739 1.174751,0.94539 2.788537,0.27585 4.054471,0.26466 1.186633,1.00604 1.434652,2.69884 2.123014,4.03753 0.651704,2.22261 2.6132,3.92575 2.579818,6.36174 0.04243,2.74793 -1.625087,5.09367 -2.709668,7.51065 -0.550677,1.27188 -1.850882,2.78969 -0.65535,4.10702 1.177571,1.05554 1.30782,2.93521 0.0017,3.95872 -1.294486,1.20365 -2.989481,1.7849 -4.513172,2.62257 -0.947219,1.53274 -2.865074,1.07006 -3.579747,-0.41706 z" />
    <path
       id="path589"
       style="fill:#4c6f34;stroke:#4c6f34;stroke-width:0.264583px;stroke-linecap:butt;stroke-linejoin:miter;stroke-opacity:1;fill-opacity:1"
       d="m 57.241048,208.61939 c -2.297737,-0.6366 -3.996503,-2.54037 -5.295164,-4.41528 -0.03683,-2.07645 2.235764,-3.08683 3.347269,-4.56452 1.639193,-2.14876 2.32459,-4.90763 2.575247,-7.56462 0.492377,-1.45394 -1.408413,-3.401 0.331457,-4.36186 1.325563,-0.67839 1.964225,-3.27849 3.022013,-3.47788 -0.101149,2.48648 2.49242,3.95868 4.60278,4.54048 1.355478,0.66801 3.945099,0.25161 4.054741,2.30029 0.203491,2.77703 -1.431938,5.7748 0.132699,8.37101 1.068506,1.34967 2.201593,2.83171 2.047824,4.66342 0.169292,2.13183 -1.781421,3.39722 -3.2371,4.56201 -1.720941,1.49133 -3.997644,2.17996 -6.252239,1.7837 -1.520715,-0.12381 -3.239207,-0.21937 -4.194299,-1.60812 -0.236913,-0.42855 -0.740678,-0.45072 -1.135228,-0.22863 z" />
    <path
       id="path597"
       style="fill:#5c891c;stroke:#5c891c;stroke-width:0.264583px;stroke-linecap:butt;stroke-linejoin:miter;stroke-opacity:1;fill-opacity:1"
       d="m 45.828587,233.42014 c -1.37732,-2.23216 -0.933004,-5.08463 -2.343123,-7.33192 -0.588895,-2.69394 -2.634303,-4.42511 -4.343566,-6.29252 -1.034699,-2.85802 1.492955,-5.33807 2.95035,-7.52485 2.440383,-2.27266 2.553138,-5.93798 0.150909,-8.28568 -2.692267,-3.18849 -4.527597,-7.30066 -4.066237,-11.54561 -0.365606,-2.45384 0.895532,-4.97162 3.629924,-3.77671 3.118414,0.70245 6.53442,1.26107 9.54777,-0.15346 2.719449,1.49029 0.316744,5.82205 0.388468,8.43444 -0.638937,2.71735 1.075283,5.28553 3.943684,5.08589 2.701129,1.20005 0.789408,4.45416 0.262503,6.44299 -1.032649,3.26015 3.901737,3.26834 4.222669,5.92896 -0.171681,3.03837 -2.526165,5.36422 -4.136403,7.77369 -2.019713,2.65704 -3.957404,5.45395 -4.972658,8.66639 -1.042486,1.8746 -3.45875,1.85959 -5.23429,2.57839 z" />
    <path
       id="path605"
       style="fill:#729020;stroke:#729020;stroke-width:0.264583px;stroke-linecap:butt;stroke-linejoin:miter;stroke-opacity:1;fill-opacity:1"
       d="m 61.061634,232.75465 c -2.33477,-0.35092 -2.86346,-3.09512 -4.433108,-4.49422 -2.146309,-2.52196 -4.581743,-5.54709 -4.056071,-9.07581 0.282957,-2.92198 4.139379,-2.52529 4.956824,-4.53402 -0.722286,-2.45355 -2.117181,-4.70939 -3.403072,-6.93101 -1.106941,-2.29886 3.115218,-2.45185 4.016321,-4.18776 2.674313,-1.18769 6.157019,-0.9407 7.96011,-3.67708 1.372984,-1.67129 3.210055,-3.59889 3.262604,-5.56112 0.243135,3.57904 4.383041,4.50824 6.410015,6.8593 1.875253,1.68197 1.459687,4.37545 -0.223477,5.97813 -1.918479,2.72056 -4.496295,5.04724 -5.616662,8.26697 -0.634965,2.19717 -4.499349,2.3769 -3.782061,4.9046 0.770581,2.01208 3.275888,2.64898 3.879926,4.72162 -0.104084,2.55825 -1.671964,5.11081 -3.833258,6.49042 -1.4136,0.47258 -3.963431,3.05318 -5.138091,1.23998 z" />
    <path
       id="path613"
       style="fill:#4c6f34;stroke:#4c6f34;stroke-width:0.264583px;stroke-linecap:butt;stroke-linejoin:miter;stroke-opacity:1;fill-opacity:1"
       d="m 18.41896,245.93143 c -3.564287,-2.06502 -6.731506,-4.74873 -10.1245357,-7.05029 -1.617253,-0.48912 -1.3021313,-0.73787 0.1500234,-0.60794 2.4694343,0.30898 4.8132373,1.16942 7.0546523,2.20741 3.331223,0.92025 0.531523,-2.58303 0.223254,-4.1874 -0.165259,-0.94329 -2.955854,-2.49237 -0.624891,-1.4631 1.437081,0.87707 6.549301,3.71711 4.77286,0.0511 -0.749081,-3.66909 -0.235011,-7.84466 -2.500178,-11.1099 -0.877895,-1.42472 -0.598468,-2.10172 0.583582,-0.61188 1.341197,1.61082 4.288038,4.2215 5.907866,1.5081 1.627419,-3.20048 -0.443518,-6.66931 -0.408522,-9.9802 0.923448,-0.41581 4.168427,-1.65604 3.697003,-0.97418 -1.075866,1.8633 -1.342839,5.27747 1.320787,5.86576 2.919976,-0.27015 4.135931,2.25707 2.534712,4.58633 -0.895947,1.93564 -2.478816,6.53991 1.363604,5.47887 2.536277,-0.69659 3.301905,-3.64438 5.457607,-4.90266 1.776411,-2.65932 -0.76741,1.8182 -1.143599,2.79533 -1.517798,2.02474 -1.895862,5.46606 1.247461,6.09358 2.603826,-0.0912 2.827785,2.56805 0.518599,3.36404 -2.567527,0.0213 -3.030317,2.78914 -0.249737,2.60599 1.416211,0.43076 5.827017,0.13442 4.05132,2.56336 -2.896539,1.82477 -4.702321,4.8134 -7.162543,7.11795 -1.804594,0.003 -3.136227,-4.42961 -5.537308,-1.84701 -2.510843,2.65665 -6.524312,1.46868 -9.153634,-0.33098 -0.76746,-0.13765 -1.540506,-0.49757 -1.978383,-1.1723 z" />
    <path
       id="path622"
       style="fill:#729020;stroke:#729020;stroke-width:0.264583px;stroke-linecap:butt;stroke-linejoin:miter;stroke-opacity:1;fill-opacity:1"
       d="m 48.564622,247.48426 c -3.132528,0.62684 -6.350011,0.98369 -9.542022,0.67694 -3.141935,0.33661 2.072254,-1.47697 1.681021,-2.90839 -0.984745,-4.35721 -6.055096,-6.77889 -6.231528,-11.45744 -0.360352,-2.44055 1.852199,-3.1806 3.603609,-3.71067 1.34504,-2.35718 -1.30341,-4.2574 -2.668714,-5.82572 -1.808882,-2.04185 -2.368531,-5.47018 -0.749606,-7.76753 1.891032,-0.39752 4.746464,1.88997 7.196183,0.96024 1.260621,-0.38644 2.671868,-2.7688 2.642511,-0.001 0.634579,3.05006 0.123488,6.29259 1.205079,9.27146 2.08029,2.17871 4.342085,-1.53934 4.612024,-3.47572 0.230479,-2.62906 2.308091,-4.6392 3.870593,-6.03068 -0.886216,0.33522 -2.242235,3.65607 -0.655976,4.7014 1.469946,1.11602 4.651152,-0.6091 5.16703,0.89501 -0.141164,1.65751 -2.686925,5.47732 0.533561,5.25362 2.420903,-0.84313 4.192015,-2.55003 5.716995,-4.43927 0.393331,2.05188 -2.809479,4.72378 -0.41063,6.06218 1.569177,-0.0478 3.844156,-0.0935 1.626331,1.53162 -2.714599,1.87598 -6.130744,3.39385 -7.484016,6.61546 1.591984,2.06876 4.881307,1.2011 7.202406,1.63922 1.607863,1.56969 -2.142501,3.04993 -3.401622,3.87289 -2.399568,1.33222 -6.150711,1.92706 -6.732466,5.09011 -1.438701,1.98283 -4.093153,-0.42167 -5.697071,-1.24835 -0.52009,-0.35524 -1.107902,-0.19767 -1.483692,0.29464 z" />
    <path
       id="path630"
       style="fill:#4c6f34;stroke:#4c6f34;stroke-width:0.264583px;stroke-linecap:butt;stroke-linejoin:miter;stroke-opacity:1;fill-opacity:1"
       d="m 70.57613,247.63954 c -2.118093,-1.43204 -4.792314,-0.47471 -7.147419,-1.02647 -1.818509,-0.26551 -4.727284,0.0483 -5.063268,-2.37711 -0.134152,-2.30649 -2.018147,-3.95766 -2.204145,-6.24864 -0.495905,-2.86759 1.404953,-5.29041 3.239107,-7.24799 1.93727,-2.44966 3.089233,-6.05789 1.483875,-8.96769 -1.727227,-1.24334 -1.149486,-3.80765 0.04079,-5.21392 0.387311,-3.13879 3.536856,-2.73155 5.924646,-2.97505 1.330622,0.32266 3.831009,-2.04131 4.368892,-0.5564 -0.699449,1.95036 -0.537624,4.01076 -1.342272,5.97789 0.0219,2.55459 3.430124,2.02084 5.171965,2.49837 2.338038,-0.0527 2.455789,2.83926 1.239925,4.21959 -1.100045,2.19539 1.013736,4.07395 3.169532,3.82465 2.744843,-0.19009 2.350009,2.73277 1.234783,4.2797 -1.127556,2.11218 -3.409815,3.73421 -3.628457,6.24365 0.491711,1.71957 0.924174,3.73844 -0.537698,5.15107 -1.608132,1.23069 -3.561616,1.92453 -5.159755,3.10915 -0.525696,0.14698 -0.570597,-0.41756 -0.790498,-0.6908 z" />
    <path
       id="path638"
       style="fill:#729020;stroke:#729020;stroke-width:0.264583px;stroke-linecap:butt;stroke-linejoin:miter;stroke-opacity:1;fill-opacity:1"
       d="m 81.766753,236.30395 c -0.966195,2.0054 -4.444746,0.12879 -5.241766,-1.51045 -1.384378,-1.93521 0.581476,-3.82418 0.564077,-5.80133 -0.373229,-1.88717 -2.271998,-2.91803 -3.450303,-4.29925 -1.846872,-1.73496 -2.394119,-4.4804 -1.653435,-6.85992 -0.112497,-2.40066 -0.518219,-5.24024 1.554201,-6.98892 1.205466,-2.4821 3.419166,0.39957 5.308962,-0.56015 2.146722,-0.48431 3.507557,-2.52471 5.644381,-2.96671 0.914646,-0.60482 2.648654,-1.18577 0.807643,-0.17654 -0.897617,1.5141 -2.00418,4.55744 0.451019,5.25864 2.834918,0.97124 5.917172,1.26102 8.615354,2.60636 1.928157,2.13206 -0.815818,4.99902 -1.976309,6.90084 -1.426118,2.32649 -3.671068,4.07384 -4.975793,6.45883 -0.54039,1.97785 3.612613,2.32977 1.827054,4.2422 -1.590645,1.15477 -3.177358,2.35384 -4.885004,3.33398 -0.843575,0.0849 -1.819324,1.05587 -2.590081,0.36242 z" />
    <path
       id="path654"
       style="fill:#5c891c;stroke:#5c891c;stroke-width:0.264583px;stroke-linecap:butt;stroke-linejoin:miter;stroke-opacity:1;fill-opacity:1"
       d="m 103.03879,241.80537 c -1.02927,0.88772 -3.844866,1.9282 -4.053125,-0.12871 0.19763,-1.55392 0.703268,-3.29437 -0.484933,-4.61605 -1.360879,-1.8859 -3.733219,-3.45081 -3.576574,-6.05413 0.08357,-2.04857 2.111832,-2.87798 3.469451,-4.00024 1.887941,-1.55194 1.571972,-4.42383 0.222222,-6.22501 -0.941634,-1.77592 -2.464846,-3.50903 -2.372413,-5.63235 1.121739,-2.95019 4.878672,-4.26207 7.689692,-2.93717 2.65066,0.84947 4.48339,3.51888 4.03383,6.31683 0.10311,1.94088 -1.29895,3.69079 -0.91614,5.61086 1.56481,2.81214 5.50546,2.93051 7.25063,5.57268 0.96101,2.01856 -0.1598,4.39577 -1.44326,6.01148 -1.2242,1.72683 -3.37334,2.16739 -5.02293,3.28003 -1.0208,1.23761 -1.78398,3.68157 -3.41893,3.82211 -0.31397,-0.5016 -0.53848,-1.62795 -1.37752,-1.02033 z" />
    <path
       id="path646"
       style="fill:#4c6f34;stroke:#4c6f34;stroke-width:0.264583px;stroke-linecap:butt;stroke-linejoin:miter;stroke-opacity:1;fill-opacity:1"
       d="m 85.192959,246.13109 c -1.248785,-1.64625 -3.54205,-1.03109 -5.319244,-1.26152 -2.067104,0.48237 -3.860717,-0.99174 -4.127832,-3.04602 -0.301823,-1.92192 -0.805648,-4.08398 -2.19476,-5.28098 1.934112,0.52192 3.29653,-1.33426 4.955054,-1.92904 0.924834,-0.99435 2.487314,-1.90065 2.146501,0.11111 0.272593,1.84162 2.44807,3.32153 4.121426,2.09098 2.168062,-1.5632 3.413534,-4.20255 3.980211,-6.75704 -0.04098,-2.33822 1.92122,-3.74697 3.150285,-5.6544 0.640243,-0.69498 1.887488,-3.53281 2.77,-2.3481 -0.456483,2.07546 2.3577,3.54205 4.075106,3.86798 2.100454,-0.15613 -1.23819,2.21925 -0.962632,3.42377 -1.40893,1.4815 -0.61051,3.65214 1.600414,3.17933 1.469112,0.30541 4.509702,-1.82342 4.627852,0.63086 -0.27997,1.96571 -1.87075,3.45527 -3.24962,4.77104 -2.413365,1.9074 -4.740152,4.02062 -6.169886,6.79396 -0.606354,1.91646 -2.462185,2.80509 -4.38421,2.63249 -1.821867,0.37384 -2.960963,-1.88956 -4.732198,-1.35949 z" />
    <path
       id="path662"
       style="fill:#5c891c;stroke:#5c891c;stroke-width:0.264583px;stroke-linecap:butt;stroke-linejoin:miter;stroke-opacity:1;fill-opacity:1"
       d="m 115.4865,244.51171 c -1.54367,-0.25398 -3.69481,-0.53557 -4.23512,-2.26122 -0.13007,-2.13848 2.45643,-3.54731 1.88755,-5.78918 -0.66639,-1.72864 -2.38439,-2.84594 -3.07538,-4.59666 -0.89772,-1.63114 -1.53249,-3.92392 0.002,-5.39905 1.6244,-2.0451 3.22307,-4.16722 4.04735,-6.67926 0.94181,-2.26354 2.91471,-3.81975 4.08892,-5.93185 0.68185,-0.55223 1.864,-1.87877 0.56153,-0.5174 -0.90597,1.59374 1.89673,2.09345 2.7562,3.00862 1.92588,1.09893 2.23003,3.99364 0.57257,5.47057 -1.31642,1.50303 -2.86671,2.79886 -4.06414,4.40368 -0.25755,1.70909 1.77864,2.55962 2.50557,3.91171 1.26292,1.07455 2.62118,2.53376 2.10129,4.33726 -0.23285,3.01194 -2.46102,5.24433 -4.18997,7.53212 -0.59324,1.12769 -1.40852,3.47512 -2.87197,3.1138 l -0.11367,-0.3125 z" />
    <path
       id="path722"
       style="fill:#4c6f34;stroke:#4c6f34;stroke-width:0.264583px;stroke-linecap:butt;stroke-linejoin:miter;stroke-opacity:1;fill-opacity:1"
       d="m 313.09865,274.84164 c -1.3273,-0.69929 -3.22049,-0.68429 -4.04769,-2.10079 -0.49736,-1.47432 0.88534,-2.57401 1.52327,-3.73913 0.96435,-1.72155 1.99317,-3.76003 1.36096,-5.77005 -0.54338,-1.59438 -1.89781,-2.85044 -3.4891,-3.35507 -1.04546,-0.56296 -2.22259,0.043 -2.90219,0.88564 -1.25751,1.39589 -2.11008,3.4239 -4.11062,3.90196 -1.53982,0.37328 -3.44432,-0.0331 -4.59746,1.31838 -1.06795,0.91993 -0.99547,2.55845 0.28062,3.23993 1.05227,0.87294 1.16607,2.40833 0.68019,3.61072 -0.32155,1.04713 -0.8116,2.77095 0.51606,3.31222 1.40483,0.2834 2.79609,-0.34364 4.14644,-0.66498 1.07567,-0.23833 2.12891,-0.81455 3.24531,-0.71033 1.28843,0.48203 2.69438,1.7895 4.0465,0.60478 1.01566,-1.46254 2.05867,1.19281 3.07888,-0.0438 0.11273,-0.14914 0.19957,-0.3163 0.26883,-0.48944 z" />
  </g>
</svg>
