<?xml version="1.0" encoding="UTF-8" standalone="no"?>
<svg
   xmlns:dc="http://purl.org/dc/elements/1.1/"
   xmlns:cc="http://creativecommons.org/ns#"
   xmlns:rdf="http://www.w3.org/1999/02/22-rdf-syntax-ns#"
   xmlns:svg="http://www.w3.org/2000/svg"
   xmlns="http://www.w3.org/2000/svg"
   xmlns:sodipodi="http://sodipodi.sourceforge.net/DTD/sodipodi-0.dtd"
   xmlns:inkscape="http://www.inkscape.org/namespaces/inkscape"
   sodipodi:docname="py-ctrl-enter.svg"
   inkscape:version="1.0 (4035a4fb49, 2020-05-01)"
   id="svg8"
   version="1.1"
   viewBox="0 0 317.5 158.75"
   height="600"
   width="1200">
  <defs
     id="defs2" />
  <sodipodi:namedview
     inkscape:document-rotation="0"
     inkscape:snap-global="false"
     inkscape:window-maximized="0"
     inkscape:window-y="19"
     inkscape:window-x="0"
     inkscape:window-height="1061"
     inkscape:window-width="1920"
     units="px"
     showgrid="false"
     inkscape:current-layer="layer1"
     inkscape:document-units="mm"
     inkscape:cy="282.84333"
     inkscape:cx="596.85401"
     inkscape:zoom="1.4"
     inkscape:pageshadow="2"
     inkscape:pageopacity="0.0"
     borderopacity="1.0"
     bordercolor="#666666"
     pagecolor="#ffffff"
     id="base" />
  <metadata
     id="metadata5">
    <rdf:RDF>
      <cc:Work
         rdf:about="">
        <dc:format>image/svg+xml</dc:format>
        <dc:type
           rdf:resource="http://purl.org/dc/dcmitype/StillImage" />
        <dc:title />
      </cc:Work>
    </rdf:RDF>
  </metadata>
  <g
     transform="translate(0,-138.25001)"
     id="layer1"
     inkscape:groupmode="layer"
     inkscape:label="Layer 1">
    <rect
       style="opacity:1;fill:#b3b3b3;fill-opacity:1;stroke:#b3b3b3;stroke-width:0.52916664;stroke-linecap:round;stroke-miterlimit:4;stroke-dasharray:none;stroke-opacity:1"
       id="rect2385"
       width="130.24792"
       height="60.03735"
       x="172.28741"
       y="225.66431" />
    <path
       d="m 207.25021,151.76996 c 31.76171,0 63.52343,0 95.28514,0 0,44.6439 0,89.2878 0,133.9317 -31.76171,0 -63.52343,0 -95.28514,0 0,-44.6439 0,-89.2878 0,-133.9317 z"
       style="opacity:1;fill:#b3b3b3;fill-opacity:1;stroke:#b3b3b3;stroke-width:0.529167;stroke-linecap:round;stroke-miterlimit:4;stroke-dasharray:none;stroke-opacity:1"
       id="rect2387" />
    <path
       d="m 9.2657948,223.98643 c 40.6437822,0 81.2875632,0 121.9313452,0 0,19.01956 0,38.03912 0,57.05868 -40.643782,0 -81.287563,0 -121.9313452,0 0,-19.01956 0,-38.03912 0,-57.05868 z"
       style="opacity:1;fill:#b3b3b3;fill-opacity:1;stroke:#b3b3b3;stroke-width:0.529167;stroke-linecap:round;stroke-miterlimit:4;stroke-dasharray:none;stroke-opacity:1"
       id="rect2383" />
    <path
       d="m 203.89159,151.06212 c 19.35324,-0.8011 38.71908,0.0837 58.07319,-0.39912 10.16797,0.20204 20.60017,3.18045 30.58363,-0.25869 4.68919,-3.084 13.31919,-5.18 13.01036,3.3638 -0.28113,8.56056 1.18447,17.26194 -0.14982,25.84698 -1.85392,14.26616 -0.65261,28.76204 -1.37358,43.1198 -0.58661,18.05224 2.38449,36.14626 0.89549,54.16219 0.96531,7.26733 -5.2328,10.97764 -11.69745,9.85383 -15.61879,0.10162 -30.68758,-5.9925 -46.37271,-4.71409 -21.52125,-0.38699 -42.95287,2.53264 -64.45693,2.53206 -5.65109,0.30467 -14.19525,1.63573 -16.75251,-4.85426 0.1323,-5.63041 3.24385,-10.84118 3.48248,-16.56792 0.82929,-8.82868 3.0643,-17.45084 3.2284,-26.33128 0.78787,-10.44648 14.23334,-9.30071 21.79192,-11.27918 5.90573,-1.44918 11.28058,0.5977 11.25924,-7.34131 0.55731,-7.86282 -3.2373,-15.5476 -1.1151,-23.42408 2.02582,-12.17584 5.37648,-24.70394 1.93145,-36.97363 -2.14678,-5.18875 4.10744,-6.63082 3.02787,-0.55707 1.32386,9.44757 1.7036,19.07664 -0.64465,28.4026 -2.04042,9.42544 -2.91035,19.24419 -0.41484,28.66897 0.6675,4.11637 -0.27652,10.98188 -5.834,10.53218 2.37299,0.22857 -6.68173,0.58846 -8.87196,1.4724 -5.92779,2.42191 -15.82137,0.87758 -17.83786,8.31569 -1.93607,7.16863 -0.5001,14.81606 -2.8891,21.91218 -1.12581,7.97104 -2.60098,15.89076 -4.3423,23.74964 4.51112,7.66082 14.90483,2.06268 22.03679,3.5467 25.80949,-0.70296 51.72707,-4.14497 77.4996,-1.21932 10.01842,1.45852 20.32056,5.30831 30.43515,2.79551 6.3765,-4.45106 3.38123,-13.62409 4.20409,-20.26881 -0.87634,-20.74775 -1.96281,-41.5167 -0.93955,-62.28066 -0.1642,-9.82203 0.0371,-19.68492 1.48835,-29.39421 0.12673,-8.24179 0.20778,-16.62644 -1.94716,-24.65104 1.60434,-3.81939 3.29541,0.61982 -1.11961,0.25648 -11.56497,5.02741 -24.42271,3.68299 -36.54554,2.10584 -13.68549,0.0713 -27.37749,0.13207 -41.0671,-0.0826 -6.1896,-0.27383 -12.42186,0.99075 -18.57624,-0.0396 z"
       style="opacity:1;fill:#000000;fill-opacity:1;stroke:#000000;stroke-width:0.529167;stroke-linecap:round;stroke-miterlimit:4;stroke-dasharray:none;stroke-opacity:1"
       id="path2317" />
    <path
       d="m 176.42831,232.03043 c 5.92838,0.37436 12.72886,2.68476 11.00299,9.99467 1.24155,8.3977 3.61571,17.13486 1.01439,25.52159 0.39943,6.21818 -5.12568,10.38597 -10.17979,12.68205 -1.18334,2.00175 -9.32075,4.88932 -4.92278,1.10006 6.31788,-3.2472 13.24598,-7.62951 12.67982,-15.74066 2.82101,-10.09846 -2.08861,-20.04924 -1.80816,-30.1675 -0.90753,-1.74882 -13.11531,-2.47877 -7.78647,-3.39021 z"
       style="opacity:1;fill:#000000;fill-opacity:1;stroke:#000000;stroke-width:0.529167;stroke-linecap:round;stroke-miterlimit:4;stroke-dasharray:none;stroke-opacity:1"
       id="path2319" />
    <path
       d="m 185.91336,274.28365 c 15.9031,-2.79645 32.10574,-3.42937 47.99933,-6.26581 8.46793,-0.33743 16.95138,2.09267 25.37273,0.27674 14.09018,-0.88038 27.84619,4.96691 38.76378,13.55638 3.08981,4.88902 -5.0601,1.20859 -5.19236,-1.55807 -10.37985,-7.13715 -22.96251,-12.89643 -35.83264,-10.95029 -7.289,0.48909 -14.60331,-0.42814 -21.84111,-0.71951 -15.56884,2.5499 -31.33271,3.611 -46.92895,5.96202 l -1.17557,-0.10847 z"
       style="opacity:1;fill:#000000;fill-opacity:1;stroke:#000000;stroke-width:0.529167;stroke-linecap:round;stroke-miterlimit:4;stroke-dasharray:none;stroke-opacity:1"
       id="path2321" />
    <path
       d="m 289.6159,273.94452 c 0.29046,-12.30136 0.51317,-24.62071 -1.5263,-36.80933 -1.81686,-12.82398 -2.71317,-26.28444 2.17726,-38.57846 2.80273,-11.69363 0.40355,-23.8021 2.04692,-35.6164 2.70225,-3.41047 5.38522,-13.16939 9.18981,-11.26671 -2.73961,6.37865 -8.61899,11.68528 -6.99166,19.37178 0.10516,12.26134 0.47864,24.81695 -3.9739,36.4763 -3.60082,17.65259 2.54565,35.30778 2.15746,53.04426 -0.49844,3.4217 1.31349,12.72158 -3.07959,13.37856 z"
       style="opacity:1;fill:#000000;fill-opacity:1;stroke:#000000;stroke-width:0.529167;stroke-linecap:round;stroke-miterlimit:4;stroke-dasharray:none;stroke-opacity:1"
       id="path2323" />
    <path
       d="m 285.85911,162.24407 c -14.71785,1.3963 -29.52029,1.37403 -44.27506,0.65245 -4.65722,-0.35319 -9.305,0.0741 -13.95418,-0.034 -4.60227,-0.21892 -8.75702,-2.44735 -12.57708,-4.78617 -2.18416,-1.35444 -1.88527,-3.85403 0.64964,-2.05872 3.54508,2.90285 7.71126,4.89218 12.00148,6.46259 7.35794,-0.55578 14.77502,-0.16299 22.13783,0.29464 1.93252,0.0143 8.71638,-0.0378 12.40695,0.16833 8.66062,0.14671 17.2674,-1.29134 25.92923,-1.0397 -0.77289,0.11355 -1.54643,0.22776 -2.31881,0.34056 z"
       style="opacity:1;fill:#000000;fill-opacity:1;stroke:#000000;stroke-width:0.529167;stroke-linecap:round;stroke-miterlimit:4;stroke-dasharray:none;stroke-opacity:1"
       id="path2325" />
    <path
       d="m 224.80969,165.65222 c 0.003,0.76789 -0.0149,1.53573 -0.0236,2.30357 -0.007,0.80141 -0.0108,1.60285 -0.0129,2.40429 0.0361,0.8785 0.15913,1.75119 0.28655,2.62043 0.16988,0.98957 0.19163,1.99362 0.27287,2.99172 0.10532,1.00615 0.12147,2.01828 0.19465,3.02644 0.0703,0.99661 0.25438,1.97971 0.38671,2.96878 0.1129,0.98363 0.14355,1.97303 0.22643,2.95922 0.081,0.93169 0.11244,1.86616 0.13226,2.8008 0.0244,0.84177 -0.007,1.68433 0.0343,2.52543 0.0723,1.0093 0.11346,2.02028 0.13825,3.03175 0.0202,0.9457 0.0248,1.89168 0.0287,2.83757 0.0114,0.76061 -0.0819,1.5177 -0.13238,2.27578 -0.0427,0.72424 -0.14068,1.4433 -0.19068,2.16731 -0.0343,0.71018 -0.13505,1.41456 -0.18675,2.12361 -0.0641,0.64745 -0.18667,1.28559 -0.29163,1.92691 -0.0963,0.66015 -0.14189,1.32872 -0.11297,1.99526 0.0573,0.71898 0.11199,1.4379 0.13968,2.15869 0.0313,0.61667 -0.0599,1.23103 -0.10775,1.84488 -0.039,0.47872 -0.0195,0.95819 -0.10029,1.43248 -0.0597,0.26161 -0.1007,0.52571 -0.12049,0.79317 -0.009,0.19183 -0.0109,0.38397 -0.01,0.57599 -0.0213,0.31698 0.0229,0.62518 0.0988,0.93245 0.0979,0.44462 0.2326,0.88026 0.32837,1.32503 0.0726,0.51068 0.13404,1.0221 0.21087,1.53264 0.0649,0.48945 0.0916,0.98254 0.10597,1.47568 0.008,0.35729 0.008,0.71468 0.0114,1.07202 2.7e-4,0.25843 -2e-5,0.51684 -0.002,0.77527 -0.005,0.3891 -0.005,0.77821 -0.005,1.16734 -1.2e-4,0.35672 0.003,0.71341 0.003,1.07014 0.022,0.2698 -0.006,0.52374 -0.0826,0.78191 -0.0734,0.25298 -0.0868,0.51748 -0.0987,0.77907 -0.0409,0.38798 0.0129,0.76578 0.0738,1.14753 0.0511,0.34461 0.0854,0.69217 0.10363,1.0401 0.011,0.19214 0.009,0.38466 0.0114,0.57702 -0.0121,0.14596 -0.01,0.24849 0.0833,0.36198 0.15132,0.15214 0.10092,-0.0692 0.0671,0.37484 -0.97951,0.54478 -2.2903,0.16543 -3.3686,-0.0454 -0.40525,-0.18782 -0.84049,-0.29863 -1.25464,-0.46272 -0.44362,-0.15163 -0.86737,-0.35265 -1.30218,-0.52823 -0.63845,-0.30397 -1.3087,-0.53585 -1.94777,-0.83534 -0.62464,-0.31615 -1.25935,-0.61352 -1.90363,-0.88724 -0.50914,-0.18537 -1.03998,-0.29068 -1.57629,-0.36126 -0.40276,-0.0106 -0.78861,-0.11042 -1.17648,-0.20948 -0.12938,-0.0467 -0.26173,-0.0561 -0.39773,-0.0454 -1.46044,0.0212 3.57716,0.007 2.31684,0.004 0,0 -2.78326,-0.44028 -2.78326,-0.44028 v 0 c 1.08675,-0.006 2.1751,-0.0439 3.26042,0.009 0.1348,0.0241 0.26331,0.0659 0.3959,0.0995 0.37979,0.0912 0.76341,0.14533 1.15181,0.18634 0.54099,0.0915 1.08114,0.21229 1.58518,0.43488 0.63343,0.28851 1.26316,0.58442 1.88828,0.89056 0.65399,0.27764 1.31319,0.54277 1.96511,0.82565 0.43159,0.18332 0.86636,0.35894 1.30848,0.51555 0.41739,0.13969 0.82394,0.31831 1.25342,0.41516 0.89848,0.15532 3.33592,0.012 -2.29502,0.0306 -0.0261,9e-5 0.0928,0.002 0.0725,0.0297 0.014,0.46382 0.0293,0.32012 -0.0816,0.15058 -0.0766,-0.16528 -0.0993,-0.33243 -0.0857,-0.51362 0.003,-0.18773 0.001,-0.37549 -0.004,-0.56316 -0.0145,-0.33779 -0.0369,-0.6755 -0.0928,-1.00941 -0.063,-0.39992 -0.11128,-0.79731 -0.0824,-1.20338 0.0107,-0.28427 0.0295,-0.57053 0.0956,-0.84808 0.0684,-0.23401 0.11597,-0.45265 0.0885,-0.70117 -2.6e-4,-0.35673 0.003,-0.71342 0.003,-1.07014 2.7e-4,-0.38919 -1.8e-4,-0.77837 -0.004,-1.16755 -0.001,-0.25853 -8e-4,-0.51703 7.9e-4,-0.77556 0.005,-0.35472 0.006,-0.70952 -2.6e-4,-1.06423 -0.0109,-0.48178 -0.0313,-0.96415 -0.0995,-1.44179 -0.0735,-0.50391 -0.13512,-1.00895 -0.21458,-1.51153 -0.10478,-0.44151 -0.22555,-0.87897 -0.3279,-1.32117 -0.0772,-0.32859 -0.13558,-0.6597 -0.11988,-0.99872 0.001,-0.19839 0.001,-0.39688 0.016,-0.59487 0.0172,-0.27846 0.0563,-0.55511 0.12851,-0.82508 0.0915,-0.4638 0.0758,-0.93423 0.112,-1.40463 0.0526,-0.60236 0.14289,-1.20542 0.1178,-1.81107 -0.0279,-0.72027 -0.0769,-1.43904 -0.13762,-2.15728 -0.0301,-0.68559 0.01,-1.37374 0.10687,-2.05326 0.10618,-0.63302 0.22597,-1.26342 0.29319,-1.90239 0.0568,-0.70807 0.1573,-1.41177 0.19283,-2.12122 0.0487,-0.72394 0.14435,-1.44303 0.18742,-2.16701 0.0506,-0.75206 0.15238,-1.50206 0.14321,-2.25684 0.002,-0.94371 0.003,-1.88748 -0.0158,-2.83105 -0.0252,-1.00929 -0.0666,-2.01792 -0.14935,-3.02437 -0.0451,-0.84396 -0.0163,-1.68947 -0.0336,-2.53434 -0.0158,-0.92862 -0.0462,-1.85737 -0.12834,-2.78285 -0.0827,-0.9815 -0.10335,-1.96695 -0.22115,-2.94545 -0.13494,-0.99449 -0.32115,-1.9833 -0.38901,-2.98583 -0.0725,-1.00748 -0.0844,-2.01916 -0.19251,-3.02444 -0.0773,-0.99236 -0.10795,-1.98989 -0.27825,-2.97302 -0.13169,-0.88258 -0.25862,-1.7691 -0.29453,-2.66153 5.3e-4,-0.80239 0.001,-1.60479 0.0121,-2.40712 0.009,-0.75616 0.0338,-1.51369 -0.004,-2.26925 0,0 2.80632,-0.031 2.80632,-0.031 z"
       id="path2327"
       style="opacity:1;fill:#000000;fill-opacity:1;stroke:#000000;stroke-width:0.52916664;stroke-linecap:round;stroke-miterlimit:4;stroke-dasharray:none;stroke-opacity:1" />
    <path
       d="m 222.11632,232.23976 c -3.54468,1.57952 -7.63014,0.75687 -11.21489,2.30315 -5.62423,1.43729 -11.3494,2.91113 -17.18488,2.93839 -2.61555,-0.40694 2.73199,0.0576 -0.48869,-0.0121 -4.32356,-0.33173 2.56276,-1.12808 1.77781,-0.37888 -2.15741,-0.18779 3.14216,-0.57944 3.95831,-0.83419 5.94925,-0.85224 11.60195,-3.25555 17.62498,-3.61668 1.81046,-0.35193 3.68707,-0.88953 5.52736,-0.39966 z"
       style="opacity:1;fill:#000000;fill-opacity:1;stroke:#000000;stroke-width:0.529167;stroke-linecap:round;stroke-miterlimit:4;stroke-dasharray:none;stroke-opacity:1"
       id="path2329" />
    <path
       d="m 248.59046,232.52675 c 0.58245,5.46811 0.0599,10.97362 0.38507,16.45321 -0.75698,2.5163 -2.68454,4.84451 -5.36557,5.35275 -3.53033,0.86869 -7.19708,0.37815 -10.78792,0.35529 -5.16554,-0.21415 -10.36449,-0.6266 -15.51552,0.0315 -0.95044,0.89087 -3.84456,-0.76295 -1.84116,-1.34593 2.5932,-0.60778 5.28576,-0.30934 7.91446,-0.64464 5.95219,-0.15756 11.90845,-0.27761 17.86355,-0.3345 1.37839,-0.005 2.75686,-2e-5 4.13512,0.0205 -1.38391,-1.43099 -0.48041,-3.52376 -0.12225,-5.18792 0.50714,-1.85939 1.27098,-3.76806 0.90767,-5.72775 0.66509,-2.78519 -0.96115,-5.59304 -0.16872,-8.3622 0.43118,-0.99671 1.74512,-0.89988 2.59527,-0.61031 z"
       style="opacity:1;fill:#000000;fill-opacity:1;stroke:#000000;stroke-width:0.529167;stroke-linecap:round;stroke-miterlimit:4;stroke-dasharray:none;stroke-opacity:1"
       id="path2331" />
    <path
       d="m 221.78864,249.63146 c -1.96289,1.71681 -4.32223,2.92597 -6.77436,3.77902 0.45487,0.7002 1.5077,0.70643 2.21597,1.12457 3.44591,1.18787 7.06477,1.72709 10.59691,2.58676 -1.37783,0.14787 -2.82068,0.62559 -4.16629,0.0494 -3.7382,-0.89375 -7.60198,-1.46878 -11.11387,-3.10677 -1.31612,-0.35656 0.11544,-1.5103 0.9038,-1.46093 1.92005,-0.64501 3.71408,-1.69134 5.275,-2.98235 0.80986,-0.4905 2.1001,0.072 3.06284,0.0103 z"
       style="opacity:1;fill:#000000;fill-opacity:1;stroke:#000000;stroke-width:0.529167;stroke-linecap:round;stroke-miterlimit:4;stroke-dasharray:none;stroke-opacity:1"
       id="path2333" />
    <path
       d="m 234.63707,188.51978 c 0.43436,4.35091 -0.34898,8.71313 -0.62835,13.03347 -0.58627,0.58997 -3.00076,0.10456 -0.97117,0.0275 1.67012,-0.31782 3.85982,-1.00148 5.31751,-0.31196 -2.25453,0.86806 -4.77411,1.12597 -7.18086,0.86235 0.25561,-4.07347 0.92283,-8.13796 0.77429,-12.22642 -0.65621,-2.17754 1.54932,-1.13797 2.68858,-1.38492 z"
       style="opacity:1;fill:#000000;fill-opacity:1;stroke:#000000;stroke-width:0.529167;stroke-linecap:round;stroke-miterlimit:4;stroke-dasharray:none;stroke-opacity:1"
       id="path2335" />
    <path
       d="m 231.22319,195.74063 c 1.78053,-0.37696 3.67268,-0.48669 5.30999,-1.33164 0.93575,-0.11646 2.03748,-0.006 2.89352,0.19761 -0.99584,0.71899 -2.27682,0.92508 -3.46208,1.16522 -1.06177,0.1763 -2.11828,0.47594 -3.18761,0.18017 -0.51794,-0.0705 -1.03587,-0.14094 -1.55382,-0.21136 z"
       style="opacity:1;fill:#000000;fill-opacity:1;stroke:#000000;stroke-width:0.529167;stroke-linecap:round;stroke-miterlimit:4;stroke-dasharray:none;stroke-opacity:1"
       id="path2337" />
    <path
       d="m 231.36999,189.63512 c 1.95824,-1.1017 4.10019,-1.90311 6.29159,-2.37283 0.6036,-0.0108 2.08985,0.26723 2.13169,0.28943 -0.68339,0.0222 -2.17361,0.0243 -2.3461,0.056 0.64713,0.0724 2.20203,-0.0175 2.31764,0.15892 -1.79503,0.4766 -3.60193,1.03394 -5.21276,1.96628 -1.0367,0.37394 -2.1256,-0.0674 -3.18206,-0.0978 z"
       style="opacity:1;fill:#000000;fill-opacity:1;stroke:#000000;stroke-width:0.529167;stroke-linecap:round;stroke-miterlimit:4;stroke-dasharray:none;stroke-opacity:1"
       id="path2339" />
    <path
       d="m 245.54002,189.95961 c 0.36527,3.71884 -0.54014,7.41308 -0.38028,11.13258 -1.60956,0.20802 -3.33005,-0.55798 -2.44375,-2.39909 0.38066,-2.56347 0.52845,-5.16675 0.33937,-7.7464 0.0794,-1.78475 2.7107,-1.11722 3.24659,0.0669 0.6242,2.20081 1.61335,4.31508 2.77364,6.28789 0.91076,0.75155 1.60051,1.78059 -0.10574,1.55337 -2.06697,0.25412 0.0371,-2.11566 -0.32776,-3.21678 0.17042,-1.72695 0.10617,-3.47288 0.37547,-5.19074 1.63114,-0.39956 3.51918,0.2975 2.54955,2.24875 -0.12558,2.09596 -0.0683,4.26727 -0.86732,6.24894 -1.49842,0.69496 -3.5319,0.12456 -4.29828,-1.38547 -1.25825,-1.9378 -1.98926,-4.15002 -2.92555,-6.2441 -0.44669,-1.30926 1.89635,-0.82093 2.48482,-0.56042 -0.16728,2.04083 0.002,4.1579 -0.25417,6.22129 -0.42663,1.3086 0.32803,3.55547 -1.41946,3.97478 -1.70618,0.85262 -2.41783,-0.73366 -1.85893,-2.18071 0.10172,-2.92234 0.6705,-5.85256 0.30863,-8.7825 0.93439,-0.009 1.86884,-0.0181 2.80317,-0.0283 z"
       style="opacity:1;fill:#000000;fill-opacity:1;stroke:#000000;stroke-width:0.529167;stroke-linecap:round;stroke-miterlimit:4;stroke-dasharray:none;stroke-opacity:1"
       id="path2341" />
    <path
       d="m 258.80512,190.04722 c -0.0258,2.97389 1.14961,5.8209 1.04706,8.80006 0.68407,1.51594 -0.63616,2.24061 -1.98203,1.81759 -1.43438,-0.65637 -0.41196,-2.5186 -0.87351,-3.73162 -0.18396,-2.019 -0.72266,-3.98781 -1.00741,-5.9846 -0.01,-1.66779 1.8652,-0.68316 2.81589,-0.90143 z"
       style="opacity:1;fill:#000000;fill-opacity:1;stroke:#000000;stroke-width:0.529167;stroke-linecap:round;stroke-miterlimit:4;stroke-dasharray:none;stroke-opacity:1"
       id="path2343" />
    <path
       d="m 253.38024,190.11891 c 1.77829,-0.37352 3.59124,-0.55757 5.36376,-0.96096 0.681,0.17805 2.3229,0.15556 2.42772,0.45253 -1.67002,0.35778 -3.36922,0.55288 -5.04454,0.88212 -0.91565,-0.12456 -1.83129,-0.24915 -2.74694,-0.37369 z"
       style="opacity:1;fill:#000000;fill-opacity:1;stroke:#000000;stroke-width:0.529167;stroke-linecap:round;stroke-miterlimit:4;stroke-dasharray:none;stroke-opacity:1"
       id="path2345" />
    <path
       d="m 267.686,188.93589 c 0.0106,3.38189 0.51448,6.81412 -0.23802,10.15459 0.97592,1.51738 -2.4897,2.47464 -1.88211,1.70093 1.79237,-0.19165 4.863,-2.40391 6.00933,-0.7341 -1.76327,0.74835 -3.69252,1.25411 -5.61114,1.475 -2.76586,-0.0874 -0.91442,-3.26451 -0.89837,-4.8801 0.15161,-2.41952 -0.007,-4.84353 -0.18932,-7.25807 0.52345,-1.15124 1.93833,-0.10387 2.80963,-0.45825 z"
       style="opacity:1;fill:#000000;fill-opacity:1;stroke:#000000;stroke-width:0.529167;stroke-linecap:round;stroke-miterlimit:4;stroke-dasharray:none;stroke-opacity:1"
       id="path2347" />
    <path
       d="m 266.04098,195.08186 c 0.93233,-0.24468 1.78693,-0.69144 2.47413,-1.32266 0.69386,-0.0914 1.39481,0.095 2.09526,0.0226 1.06452,-0.0229 -0.0859,1.02385 -0.53043,1.15426 -0.86569,0.54909 -1.89425,0.49513 -2.85667,0.29486 -0.39214,-0.0658 -0.78812,-0.1001 -1.18229,-0.14908 z"
       style="opacity:1;fill:#000000;fill-opacity:1;stroke:#000000;stroke-width:0.529167;stroke-linecap:round;stroke-miterlimit:4;stroke-dasharray:none;stroke-opacity:1"
       id="path2349" />
    <path
       d="m 264.88126,188.84232 c 1.1656,-0.56533 2.3223,-1.15167 3.51787,-1.65229 0.7639,0.1724 2.15567,0.0817 2.52831,0.41284 -1.0968,0.49207 -2.195,0.98414 -3.25652,1.54957 -0.92989,-0.10337 -1.85977,-0.20675 -2.78966,-0.31012 z"
       style="opacity:1;fill:#000000;fill-opacity:1;stroke:#000000;stroke-width:0.529167;stroke-linecap:round;stroke-miterlimit:4;stroke-dasharray:none;stroke-opacity:1"
       id="path2351" />
    <path
       d="m 280.16028,188.72317 c -0.0451,3.78593 -0.0416,7.57227 -0.0171,11.35834 -2.3336,1.50291 -3.54723,-1.50935 -2.96661,-3.36479 -0.34439,-2.96957 -1.30123,-6.15485 0.0438,-9.01706 1.56476,-1.86185 4.6776,-1.76739 6.49565,-0.35732 1.73995,1.85728 -0.8483,3.06514 -1.67869,4.25307 0.13685,2.45647 3.37546,3.5756 3.61135,5.88092 -2.49415,1.31548 -3.93783,-1.99699 -5.22291,-3.55409 -2.29576,-1.5198 -0.88793,-4.18422 1.17431,-4.80553 0.12126,-1.00981 -2.44122,-2.78259 -0.442,-2.11211 -2.79145,1.42098 -1.76364,5.18575 -1.50079,7.70208 0.0457,1.78908 1.75007,6.13746 -1.4861,5.66019 -1.92771,-1.43869 -0.16313,-4.20031 -0.77843,-6.20409 0.36122,-1.89531 -1.31218,-6.3586 2.05588,-5.38493 l 0.36211,0.007 0.34959,-0.0613 z"
       style="opacity:1;fill:#000000;fill-opacity:1;stroke:#000000;stroke-width:0.529167;stroke-linecap:round;stroke-miterlimit:4;stroke-dasharray:none;stroke-opacity:1"
       id="path2353" />
    <path
       d="m 12.78715,226.11327 c 1.573579,11.75127 0.919792,23.64095 -0.42746,35.37003 -0.429552,6.39391 -1.117433,12.88501 -0.93224,19.23623 -2.3765564,1.86049 -2.7304646,-0.20832 0.289693,0.0661 9.152289,-1.13301 18.411802,-0.82532 27.597568,-1.4485 6.150546,0.0598 12.270661,0.87489 18.424511,0.81992 0.143936,-0.23672 6.879254,-0.55709 9.508581,-0.5525 11.326096,-0.39924 22.655813,-1.3886 34.001967,-0.78427 9.91642,0.27409 19.73473,1.78822 29.53134,3.15632 -4.67889,-0.92877 0.1557,-8.51056 -0.78291,-12.31527 0.51013,-12.24319 -2.09139,-24.46433 -0.47178,-36.6903 1.0971,-3.61435 -0.97461,-11.7847 3.75548,-11.88839 -5.23436,2.10931 -11.08413,0.88658 -16.52005,2.25095 -12.21217,2.06013 -24.649001,2.74951 -37.024914,2.64933 -11.177194,-0.17521 -22.190968,-2.71836 -33.392563,-2.45212 1.641861,0.30385 -5.406214,0.68776 -6.941962,0.80331 -5.795167,-0.005 -11.580451,0.089 -17.356036,0.5102 -0.546269,-0.54439 -7.594159,1.70212 -11.08375,0.67071 4.679968,-0.73166 7.793771,-1.16632 10.974088,-1.19903 5.538438,-0.52549 11.16619,-0.47275 16.673633,-0.44983 18.747191,-2.95256 37.438959,3.64018 56.219848,1.21498 7.910716,-0.61088 15.832656,-1.31501 23.637046,-2.78897 4.67466,1.4507 12.06228,-3.75906 14.91562,0.0626 -1.23407,10.68845 -2.21458,21.46794 -1.05063,32.21664 0.64555,8.52137 0.94554,17.24621 -0.8588,25.62921 -3.08587,4.9305 -10.04125,0.1425 -14.80561,0.64518 -15.05221,-2.41552 -30.321844,-1.75978 -45.469773,-0.86616 -8.677152,0.31729 -17.350126,1.06657 -26.028765,0.1805 -8.78329,-0.58101 -17.565679,0.18446 -26.338767,0.61033 -2.604782,0.17305 -9.4247325,0.94792 -8.434845,1.04305 -4.8783088,-0.98138 -0.353162,-7.73511 -1.4771729,-11.3279 0.5451594,-12.07595 2.8777039,-24.09338 1.7528319,-36.20683 0.674702,-2.65447 -2.6213271,-9.32989 2.115821,-8.16546 z"
       style="opacity:1;fill:#000000;fill-opacity:1;stroke:#000000;stroke-width:0.529167;stroke-linecap:round;stroke-miterlimit:4;stroke-dasharray:none;stroke-opacity:1"
       id="path2355" />
    <path
       d="m 17.619833,229.20153 c 1.8927,2.66466 7.934843,2.36508 6.356446,6.92568 -0.25705,4.924 1.065239,9.78133 1.578145,14.66841 1.35701,6.83069 1.174047,14.0712 -1.42921,20.59157 -0.923651,3.80041 -4.813164,5.43668 -7.00687,8.35283 -0.865893,1.91607 -6.485927,0.41162 -1.946895,0.65148 1.904503,0.60425 -3.795271,0.5363 -0.832273,-1.12845 2.331086,-2.22844 5.219063,-4.10579 6.670753,-7.07198 2.751725,-6.64071 3.255107,-14.0487 1.827375,-21.07552 -0.621231,-5.00633 -1.79279,-9.9988 -1.681954,-15.06115 1.498576,-4.02792 -3.99955,-3.83427 -5.769073,-6.0912 -1.065332,-1.20556 1.868309,-0.41691 2.233556,-0.76167 z"
       style="opacity:1;fill:#000000;fill-opacity:1;stroke:#000000;stroke-width:0.529167;stroke-linecap:round;stroke-miterlimit:4;stroke-dasharray:none;stroke-opacity:1"
       id="path2357" />
    <path
       d="m 24.139549,274.28365 c 14.545092,0.003 29.08098,-1.18836 43.477287,-3.38121 11.174678,-1.37188 22.288293,-3.52038 33.518304,-4.20783 9.85805,-1.2387 15.53581,7.08438 22.06577,12.46838 9.03129,2.82492 -3.74717,2.04136 -5.49032,-1.75929 -3.92118,-4.37279 -7.92766,-9.47002 -14.3523,-9.80296 -5.181215,-1.2959 -11.632963,1.24681 -18.389084,1.66528 -20.161378,2.55662 -40.447273,6.47586 -60.829657,5.01763 z"
       style="opacity:1;fill:#000000;fill-opacity:1;stroke:#000000;stroke-width:0.529167;stroke-linecap:round;stroke-miterlimit:4;stroke-dasharray:none;stroke-opacity:1"
       id="path2359" />
    <path
       d="m 114.9909,269.21982 c -0.55818,-4.25642 1.03287,-8.44446 0.62169,-12.71172 -0.0729,-6.80265 -1.98955,-13.69557 -0.27914,-20.44715 1.60759,-3.24995 4.86869,-5.25885 6.59439,-8.443 0.83457,-2.12718 5.97701,-2.1655 2.83855,0.29372 -2.04695,3.29426 -5.80658,5.53223 -6.90279,9.3452 -1.49925,7.88179 1.26088,15.76733 0.42909,23.67964 -0.79913,2.6537 0.10369,6.41776 -1.38909,8.39037 -0.64121,-0.0525 -1.26047,-0.18205 -1.9127,-0.10706 z"
       style="opacity:1;fill:#000000;fill-opacity:1;stroke:#000000;stroke-width:0.529167;stroke-linecap:round;stroke-miterlimit:4;stroke-dasharray:none;stroke-opacity:1"
       id="path2361" />
    <path
       d="m 30.126712,233.84744 c 9.757312,-1.55588 19.638403,-1.05328 29.422695,-0.10142 9.257619,0.11793 18.287663,0.75437 27.428888,0.86851 1.519777,-0.23267 8.644348,-0.74073 12.337184,-0.97897 2.920491,0.0282 8.380971,-0.73139 9.721301,0.28634 -2.16683,0.60086 -4.97462,-0.32048 -4.72513,0.0198 -10.151321,0.77705 -20.31851,1.46782 -30.497233,0.83797 -5.540764,-0.254 -9.112258,-0.57211 -14.487311,-0.53435 -5.370599,-0.17069 -10.720908,-0.69068 -16.077836,-1.08191 2.346281,0.24953 -7.521742,0.50718 -9.827165,0.93987 -0.745778,0.21227 -9.068942,0.40543 -3.295393,-0.2558 z"
       style="opacity:1;fill:#000000;fill-opacity:1;stroke:#000000;stroke-width:0.529167;stroke-linecap:round;stroke-miterlimit:4;stroke-dasharray:none;stroke-opacity:1"
       id="path2363" />
    <path
       d="m 48.433749,246.96351 c -1.525413,0.12137 -2.697821,1.21279 -3.412122,2.48934 -1.493486,1.98433 -3.42121,4.15797 -3.13404,6.819 0.564159,1.8204 2.219537,3.09189 3.809193,4.00856 1.004355,0.69686 3.757293,0.72698 3.885189,0.80347 -0.596684,-0.0415 -3.205225,0.0816 -1.460775,-0.24127 1.721414,-0.21768 2.12196,-2.17317 3.094426,-2.96625 1.145013,-0.25427 3.199581,-0.18162 1.932043,1.39336 -1.119001,2.16964 -3.859131,2.49503 -6.03848,2.24788 -1.831479,-0.15286 -3.767467,-0.37944 -5.229525,-1.61336 -1.410971,-1.16872 -3.137537,-2.64947 -2.814778,-4.69471 0.376115,-2.98875 2.689459,-5.11472 4.302314,-7.48135 1.051725,-1.20675 2.729435,-1.24966 4.167075,-0.88771 0.299788,0.0413 0.599454,0.0836 0.89948,0.12304 z"
       style="opacity:1;fill:#000000;fill-opacity:1;stroke:#000000;stroke-width:0.529167;stroke-linecap:round;stroke-miterlimit:4;stroke-dasharray:none;stroke-opacity:1"
       id="path2365" />
    <path
       d="m 63.22333,245.24037 c 0.119154,1.58064 0.446697,3.14979 0.363667,4.74067 0.144389,2.3889 0.272159,4.77742 0.518401,7.1585 0.08493,1.08691 -0.04904,2.17691 0.202934,3.24795 -0.0788,0.9932 -1.732575,0.49048 -2.517958,0.58414 -0.69539,-0.70473 -0.331043,-2.20422 -0.449439,-3.22677 -0.133979,-2.14058 -0.389157,-4.27492 -0.472629,-6.41681 -0.119113,-1.84159 -0.07951,-3.69311 -0.39624,-5.51885 -0.114219,-1.11607 1.919097,-0.30338 2.751261,-0.56885 z"
       style="opacity:1;fill:#000000;fill-opacity:1;stroke:#000000;stroke-width:0.529167;stroke-linecap:round;stroke-miterlimit:4;stroke-dasharray:none;stroke-opacity:1"
       id="path2367" />
    <path
       d="m 56.637245,252.52691 c 2.981814,-0.87006 5.796706,-2.21347 8.611313,-3.50528 0.748826,-0.55206 1.67576,-0.12797 2.515313,-0.31993 0.446458,-0.29568 1.530093,0.10861 0.741849,0.49683 -0.828125,-0.0113 -1.662431,0.0289 -2.493293,0.0416 -0.147384,-0.98483 1.350009,0.0659 1.900257,-0.15732 0.565298,0.0157 0.838176,9.5e-4 0.169249,0.19903 -1.369284,0.72323 -2.83039,1.25035 -4.236081,1.90153 -1.444262,0.62558 -2.903716,1.22368 -4.408511,1.68932 -0.938424,-0.0712 -1.865791,-0.23891 -2.800096,-0.34577 z"
       style="opacity:1;fill:#000000;fill-opacity:1;stroke:#000000;stroke-width:0.529167;stroke-linecap:round;stroke-miterlimit:4;stroke-dasharray:none;stroke-opacity:1"
       id="path2369" />
    <path
       d="m 76.476138,252.57159 c 0.34339,1.91058 0.792502,3.81105 1.054821,5.73077 0.135923,0.6825 0.222049,1.86083 -0.847827,1.49859 -0.755702,0.2539 -2.255674,0.52979 -1.925684,-0.78562 -0.102133,-2.33349 0.854322,-4.76556 2.695592,-6.24018 1.420446,-0.86379 3.168196,-0.71136 4.761777,-0.77783 0.5854,0.11261 1.921216,-0.27518 1.9906,0.42287 -0.888394,0.11633 -1.803104,0.0813 -2.701981,0.14043 -0.218417,-0.33244 1.107021,-0.009 1.435151,-0.12939 0.517777,-0.006 1.655479,-0.017 0.528461,0.0173 -1.444423,0.062 -3.131739,0.12436 -4.120139,1.34703 -1.351341,1.54789 -1.978107,3.67459 -1.757076,5.71208 -0.367205,1.12332 -1.757728,0.0439 -2.581423,0.28085 -0.578345,-0.63187 -0.0906,-1.87025 -0.449401,-2.73074 -0.280898,-1.34981 -0.493482,-2.71278 -0.805406,-4.0547 0.02491,-0.78045 1.426943,-0.21793 2.043153,-0.41654 0.226458,-0.005 0.452972,-0.01 0.679382,-0.015 z"
       style="opacity:1;fill:#000000;fill-opacity:1;stroke:#000000;stroke-width:0.529167;stroke-linecap:round;stroke-miterlimit:4;stroke-dasharray:none;stroke-opacity:1"
       id="path2371" />
    <path
       d="m 95.374946,241.79927 c 0.940131,4.28061 0.671847,8.70957 1.422372,13.02073 -0.353297,1.69526 2.202595,5.17359 -0.666402,5.27329 -2.356238,-0.0664 -1.416105,-2.97485 -2.038937,-4.51672 -0.628737,-4.10027 -0.672767,-8.26074 -1.224884,-12.36536 -1.0559,-2.29921 1.192925,-1.05332 2.507851,-1.41194 z"
       style="opacity:1;fill:#000000;fill-opacity:1;stroke:#000000;stroke-width:0.529167;stroke-linecap:round;stroke-miterlimit:4;stroke-dasharray:none;stroke-opacity:1"
       id="path2373" />
    <path
       d="m 144.72282,251.31758 c 4.9547,1.44087 10.19096,0.70866 15.16473,-0.23143 -3.42312,2.73711 -8.25788,1.27393 -12.29225,1.44208 -1.39666,0.0184 -7.19569,-0.85622 -2.87248,-1.21065 z"
       style="opacity:1;fill:#000000;fill-opacity:1;stroke:#000000;stroke-width:0.529167;stroke-linecap:round;stroke-miterlimit:4;stroke-dasharray:none;stroke-opacity:1"
       id="path2375" />
    <path
       d="m 151.31246,244.30683 c 1.00047,3.94683 1.89213,7.97546 1.78922,12.06969 0.70776,1.74933 -0.27513,4.55205 -2.45042,3.0894 -0.72121,-1.77434 0.001,-3.8882 -0.40512,-5.79917 -0.21722,-3.00884 -0.74957,-5.99909 -1.64533,-8.88134 0.42404,-1.15564 1.90141,-0.0853 2.71165,-0.47858 z"
       style="opacity:1;fill:#000000;fill-opacity:1;stroke:#000000;stroke-width:0.529167;stroke-linecap:round;stroke-miterlimit:4;stroke-dasharray:none;stroke-opacity:1"
       id="path2377" />
    <path
       d="m 71.517914,167.17966 c -0.21607,9.18374 -0.154026,18.42842 -1.702964,27.51322 -4.447213,-0.40064 2.802598,-4.07703 4.231462,-4.87773 7.032606,-3.40353 14.874841,-4.8546 22.582075,-5.63312 2.375555,1.2188 -5.74671,-1.1984 -7.033815,-2.46169 -4.066521,-2.31896 -8.155815,-4.69009 -12.17223,-7.03575 -2.259629,-2.29267 -7.041189,-5.79967 -6.67232,-8.31423 4.418645,0.44721 5.685101,5.95716 9.29273,7.98821 4.814918,2.75 9.587297,5.60421 14.522223,8.14885 2.373933,1.00128 4.043311,1.61571 3.311996,1.83764 0.919145,0.72185 -5.125035,0.74156 -6.807568,1.38458 -5.714903,1.15356 -11.548267,2.63947 -16.612025,5.55376 -1.953356,2.96777 -8.756676,6.15459 -7.020846,-0.1026 1.33192,-7.74921 0.918862,-15.64302 1.327969,-23.46814 0.458284,-1.12937 1.877968,-0.43858 2.753313,-0.533 z"
       style="opacity:1;fill:#000000;fill-opacity:1;stroke:#000000;stroke-width:0.529167;stroke-linecap:round;stroke-miterlimit:4;stroke-dasharray:none;stroke-opacity:1"
       id="path2379" />
    <path
       d="m 70.764931,171.63344 c 3.012227,-3.99097 5.313138,4.63409 0.739918,2.28125 0.457376,-4.05596 5.925927,0.52752 1.649228,1.86302 -4.011116,1.23939 1.844274,-4.8351 2.950609,-1.04712 0.776166,3.53069 -6.678761,4.91806 -2.357317,1.38487 1.783244,-2.59791 5.93677,-1.05789 2.733616,1.59018 -1.128829,2.06013 -3.11605,7.36134 -5.369143,6.01065 1.674428,-3.14043 5.081885,-6.73974 8.587642,-7.18195 1.886037,3.8216 -3.823895,8.04781 -5.355505,11.84706 -0.160814,2.51328 -5.838194,5.7725 -3.605991,1.44237 3.857243,-3.91078 7.403843,-8.25673 11.602792,-11.88191 5.68777,-1.6379 0.837721,5.35744 -0.628112,7.47551 -4.407645,2.13004 3.448536,-3.89361 4.944088,-4.96601 3.216681,-3.44726 5.977501,0.68049 3.120191,3.57017 -0.796568,3.36659 -5.112026,1.95335 -2.807702,-1.10315 -0.158265,-1.94626 4.713409,-5.46248 2.588897,-2.12732 -3.205931,1.92265 -5.633477,5.21476 -9.199521,6.42659 -3.860092,-1.35467 1.628978,-5.55992 1.912653,-8.31953 1.346248,-2.47693 5.044154,-1.64887 1.694299,0.40772 -3.518118,3.54161 -7.546809,6.73248 -10.101739,11.09391 -3.038312,3.21717 -4.903497,-1.35542 -1.725698,-3.08778 3.471321,-2.70039 3.213168,-9.30181 7.4122,-10.3756 -1.872347,2.52923 -4.737566,6.73085 -8.376555,7.38238 -0.722245,-2.2389 2.650813,-8.79087 6.097867,-9.3794 0.666955,3.68493 -8.218879,5.93894 -4.680244,0.75488 1.148218,-2.79695 4.909803,-1.06097 1.371395,0.28243 -4.522855,2.46801 -3.412504,-4.7439 0.355226,-3.14935 0.865092,2.90162 -5.452924,2.10705 -2.584084,-1.04276 1.866798,-1.83841 2.691973,1.04395 -0.184038,-0.10868 l -0.784972,-0.0425 z"
       style="opacity:1;fill:#000000;fill-opacity:1;stroke:#000000;stroke-width:0.529167;stroke-linecap:round;stroke-miterlimit:4;stroke-dasharray:none;stroke-opacity:1"
       id="path2381" />
  </g>
</svg>
