<?xml version="1.0" encoding="UTF-8" standalone="no"?>
<svg
   xmlns:dc="http://purl.org/dc/elements/1.1/"
   xmlns:cc="http://creativecommons.org/ns#"
   xmlns:rdf="http://www.w3.org/1999/02/22-rdf-syntax-ns#"
   xmlns:svg="http://www.w3.org/2000/svg"
   xmlns="http://www.w3.org/2000/svg"
   xmlns:sodipodi="http://sodipodi.sourceforge.net/DTD/sodipodi-0.dtd"
   xmlns:inkscape="http://www.inkscape.org/namespaces/inkscape"
   inkscape:version="1.0 (4035a4fb49, 2020-05-01)"
   sodipodi:docname="py-cats.svg"
   width="1200"
   height="600"
   viewBox="0 0 317.5 158.75"
   version="1.1"
   id="svg8">
  <sodipodi:namedview
     inkscape:current-layer="svg8"
     inkscape:window-maximized="0"
     inkscape:window-y="19"
     inkscape:window-x="0"
     inkscape:cy="314.60451"
     inkscape:cx="605.24145"
     inkscape:zoom="1.4142136"
     showgrid="false"
     id="namedview66"
     inkscape:window-height="1061"
     inkscape:window-width="1920"
     inkscape:pageshadow="2"
     inkscape:pageopacity="0"
     guidetolerance="10"
     gridtolerance="10"
     objecttolerance="10"
     borderopacity="1"
     bordercolor="#666666"
     pagecolor="#ffffff" />
  <defs
     id="defs2" />
  <metadata
     id="metadata5">
    <rdf:RDF>
      <cc:Work
         rdf:about="">
        <dc:format>image/svg+xml</dc:format>
        <dc:type
           rdf:resource="http://purl.org/dc/dcmitype/StillImage" />
        <dc:title></dc:title>
      </cc:Work>
    </rdf:RDF>
  </metadata>
  <path
     d="m 279.42394,76.22728 c 1.58504,1.188114 1.48366,3.472418 2.91339,4.800214 0.84231,0.908579 1.50966,2.416047 1.6353,3.402765 -0.54091,-0.44005 -1.46354,-1.691809 -0.92796,-0.05612 0.28518,0.75622 1.18705,2.620795 0.71695,2.97797 -0.66913,-1.265702 -1.2737,-0.08925 -0.74638,0.762599 -0.011,1.003299 0.34663,2.181312 -0.77004,1.439064 -0.40844,0.7665 -0.11514,3.106659 -0.83504,3.133355 -0.57664,-0.952604 -0.22953,1.674238 -0.84227,1.997627 -0.45544,0.517794 -0.89779,-1.366915 -1.03728,0.24064 -0.0156,0.85631 -1.35297,2.82076 -1.23887,1.350395 -0.50072,0.32382 -1.03783,2.856301 -1.52519,2.017127 -0.42002,-1.017803 -1.23604,2.045339 -1.88283,1.552682 -0.16963,-1.281284 -1.18482,1.640217 -1.81476,1.653537 -0.4627,-1.634181 -1.68321,1.14363 -2.38965,0.54502 -0.0365,-1.04395 -1.68026,1.4112 -1.49248,-0.22101 -0.99353,0.41167 -2.04299,0.82314 -3.18476,0.63952 -0.69789,0.38417 -1.96611,1.4185 -1.74669,0.0162 -1.22081,-0.3659 -2.34417,1.32205 -3.18841,0.92328 0.33136,-1.08417 -1.84788,-0.21375 -2.48806,-0.26928 -0.94848,0.45253 -1.07367,0.29288 -1.33125,-0.28716 -0.90614,-0.22887 -2.94573,1.14919 -3.22919,0.22227 0.39111,-1.27349 -3.44466,0.76468 -2.54562,-1.48087 -0.7106,-0.73641 -2.59875,1.49885 -2.87079,0.41408 1.34542,-1.40944 -0.86824,0.44438 -1.6811,0.12291 -1.06957,-0.0804 0.82837,-1.49449 -0.8815,-1.09543 -1.99759,-0.20758 0.67998,-1.54224 0.18111,-1.685331 -1.02058,0.192271 -2.984,-0.466407 -1.17406,-1.358387 1.73566,-0.858255 3.30225,-2.319463 5.44719,-1.748858 2.56386,0.400184 5.1126,-0.09737 7.6401,-0.486089 2.97938,-0.240773 6.23387,-0.446871 8.59717,-2.515405 1.41113,-1.319822 3.08561,-2.271758 4.75755,-3.209575 1.90394,-0.934269 1.32306,-3.260772 2.28875,-4.746923 0.90642,-0.983796 2.49312,-1.773718 2.17178,-3.381463 -0.643,-1.80562 0.31351,-3.521063 1.22338,-5.026922 0.64573,-0.873696 1.17914,-1.279164 2.25151,-0.642427 z"
     style="fill:#b29e86;stroke:#b29e86;stroke-width:0.264583px;stroke-linecap:butt;stroke-linejoin:miter;stroke-opacity:1;fill-opacity:1"
     id="path804" />
  <path
     d="m 4.3749904,104.39689 c 1.5447978,-1.31622 2.7448648,2.02815 3.5348253,3.12365 1.0312444,2.30584 1.3937898,5.55548 4.1432873,6.48169 4.414272,1.14541 9.19087,1.54341 13.61612,0.20689 2.342056,-0.33664 4.618196,-0.98131 6.690771,-2.14366 2.293805,-0.92488 4.213485,-2.94835 6.765865,-3.10108 2.823053,-0.11627 3.364488,3.58184 2.21466,5.53196 -1.587524,3.03901 -5.279012,4.36231 -8.557024,4.1369 -3.160998,-0.0379 -6.300569,0.38336 -9.36626,1.12539 -2.8862,0.38467 -5.82323,0.19681 -8.698147,0.67746 -2.676016,-0.23808 -4.608541,-2.39142 -6.7541065,-3.78911 -2.0745514,-1.24948 -2.2254912,-3.84895 -3.3393361,-5.7821 -0.3407428,-1.97944 -0.9750859,-4.14757 -0.4397872,-6.09669 z"
     style="fill:#1f1614;stroke:#1f1614;stroke-width:0.264583px;stroke-linecap:butt;stroke-linejoin:miter;stroke-opacity:1;fill-opacity:1"
     id="path391" />
  <path
     d="m 77.096442,108.20376 c -0.06891,-1.63226 1.832011,-2.32068 3.039094,-2.91057 2.096671,-0.54572 4.061923,-1.43023 5.710494,-2.85316 2.165271,-1.51116 4.027528,-3.389638 5.750698,-5.374864 0.876677,-1.148603 3.149488,-1.82049 3.362166,0.193832 0.745942,3.343702 -1.044702,6.469202 -2.487731,9.348872 -1.036622,1.78429 -0.977248,3.94723 -2.021811,5.7231 -0.767265,2.41911 -1.464898,5.09194 -3.63766,6.66254 -1.772835,1.70468 -4.188691,0.81119 -6.051128,-0.18073 -2.079557,-0.79363 -4.266424,-1.79518 -6.549341,-1.38485 -1.523824,-0.0842 -1.897075,-2.10349 -1.322101,-3.25333 0.289079,-1.56242 1.744187,-2.14206 2.96245,-2.81083 1.424068,-0.72831 0.836495,-2.06107 1.24487,-3.16001 z"
     style="fill:#f8f8fd;stroke:#f8f8fd;stroke-width:0.264583px;stroke-linecap:butt;stroke-linejoin:miter;stroke-opacity:1;fill-opacity:1"
     id="path419" />
  <path
     d="m 75.233479,72.857052 c 1.432428,-3.059821 4.858529,-4.18185 7.207971,-6.357934 2.071373,-1.951589 4.841761,-0.91717 7.152661,-0.110412 2.563829,1.207857 5.007449,3.140323 5.794895,5.988596 1.611657,3.467618 1.923575,7.347163 2.394032,11.089542 0.09057,4.327654 -0.250095,8.816634 -1.971405,12.832558 -0.449138,2.606564 -1.964722,4.806108 -3.930325,6.511828 -1.678977,2.2332 -4.754369,2.0462 -6.621352,3.93824 -2.205928,2.31223 -4.333893,4.804 -7.340489,6.10871 -3.196366,1.77339 -3.670312,-3.47353 -2.395451,-5.43624 0.782228,-3.24596 1.684998,-6.47785 2.353137,-9.755606 0.737187,-4.588587 -0.846887,-9.171777 -3.443251,-12.918605 -1.900568,-3.038936 -4.084721,-8.1555 -0.352992,-10.716767 0.421407,-0.350021 0.854125,-0.70616 1.152569,-1.17391 z"
     style="fill:#1f1614;stroke:#1f1614;stroke-width:0.264583px;stroke-linecap:butt;stroke-linejoin:miter;stroke-opacity:1;fill-opacity:1"
     id="path427" />
  <path
     d="m 20.418421,84.573538 c -2.387383,6.220891 -2.661888,13.372563 0.31672,19.437712 0.686824,4.21528 5.412344,6.51435 5.507174,11.07089 -0.05261,4.68567 4.555377,7.58597 8.847322,6.82187 4.344861,-1.34248 8.507512,-3.87322 13.242728,-3.54497 7.531991,-0.65854 15.138524,-0.55614 22.551829,1.04625 3.79565,1.15394 7.146952,-1.83402 7.301893,-5.59984 1.149413,-4.63027 2.503109,-9.2511 3.928625,-13.830622 C 84.67423,93.176348 84.431307,85.06769 80.013035,79.069251 77.233273,73.91845 71.318971,72.233054 66.315637,70.059638 58.942396,66.963475 50.978172,69.213502 43.373028,69.747004 37.744785,69.914794 32.003179,67.172461 26.470075,69.25738 c -4.404521,2.88998 -4.035001,8.911953 -5.606103,13.367189 l -0.242039,0.969112 z"
     style="fill:#e0e5eb;stroke:#e0e5eb;stroke-width:0.264583px;stroke-linecap:butt;stroke-linejoin:miter;stroke-opacity:1;fill-opacity:1"
     id="path411" />
  <path
     d="m 31.179796,61.258912 c -3.290564,-1.186786 -7.328857,-2.341106 -10.445409,-0.09991 -2.402236,1.400142 -4.82258,3.337503 -5.11358,6.31645 -0.730195,4.119433 -2.028393,8.134067 -2.757603,12.240345 0.21401,2.374698 1.197874,4.63211 1.063443,7.059185 0.04275,2.33801 0.732524,4.574439 0.919917,6.896003 0.355192,2.163476 2.051848,3.617642 3.676898,4.893642 0.550072,1.284005 1.670052,2.28309 2.430309,0.384746 1.813526,-1.600119 2.081426,-4.031505 1.868169,-6.311024 -0.548084,-2.695853 0.301194,-5.217608 1.848185,-7.378493 1.161169,-3.003934 0.76437,-6.251428 0.976193,-9.385152 0.308194,-2.759289 2.125958,-5.158726 4.535561,-6.474358 2.024551,-1.945507 3.831667,-5.805165 1.25457,-8.015353 z"
     style="fill:#1f1614;stroke:#1f1614;stroke-width:0.264583px;stroke-linecap:butt;stroke-linejoin:miter;stroke-opacity:1;fill-opacity:1"
     id="path435" />
  <path
     d="m 28.352469,75.460714 c 2.002104,3.900136 3.757876,8.072262 7.04799,11.089166 2.421508,3.287829 6.060485,5.23734 8.941548,8.056032 2.181983,1.782176 4.365877,4.131368 7.471721,3.91343 3.549654,-0.02768 7.493158,-0.770221 9.496607,-4.044431 3.398521,-2.711566 6.62033,-5.570922 9.571027,-8.756794 3.014249,-2.054022 4.182125,-5.478589 5.108597,-8.816704 0.927939,-2.968864 -0.220569,-6.688023 -3.249231,-7.950457 -3.022218,-1.731315 -6.331378,-2.828011 -9.479765,-4.2914 -3.136897,-1.959106 -4.273614,-6.374349 -8.237075,-7.176927 -4.012846,-0.653112 -6.361256,3.48729 -9.510979,5.150003 -2.866175,1.021029 -5.794589,1.998838 -8.733314,2.858298 -2.846839,0.965775 -6.743686,1.731251 -8.163887,4.61029 -0.04195,1.695302 -1.241712,3.808851 -0.263239,5.359494 z"
     style="fill:#fbf7f9;stroke:#fbf7f9;stroke-width:0.264583px;stroke-linecap:butt;stroke-linejoin:miter;stroke-opacity:1;fill-opacity:1"
     id="path443" />
  <path
     d="m 53.294303,46.485098 c 3.345897,0.130463 6.763002,2.302295 10.006935,0.34932 3.331916,-1.226581 5.28791,-4.25504 7.58819,-6.723296 2.602692,-1.630218 5.444722,-4.34035 8.668096,-3.729338 2.706746,1.150281 2.560068,4.595521 2.799193,7.075502 0.0073,3.601749 -1.292245,7.03889 -1.380326,10.626193 -0.419961,4.051311 -2.737112,7.630626 -2.872502,11.734271 -0.135429,2.705173 -0.84198,5.3115 -1.545177,7.903131 -0.249687,2.826246 -0.469319,6.596249 -3.794757,7.490262 -2.365471,1.060298 -6.032274,-0.307532 -4.950697,-3.353532 -1.265674,-2.517842 -5.088582,-1.629821 -7.048218,-0.233869 -2.800962,0.464087 -1.72479,-4.371396 -1.541102,-6.094704 0.09723,-3.726465 0.01575,-7.518302 -2.050654,-10.652875 -0.921935,-0.628583 -0.570376,3.792707 -1.646656,1.044571 -0.08598,-1.596874 -1.590775,-2.854361 -1.961926,-0.574976 0.01331,1.722833 -0.645646,2.941078 -1.601802,0.947359 -2.44645,-2.018788 -1.558656,2.956104 -2.407304,4.252337 -2.074409,3.908073 -0.274953,6.134417 -1.099478,9.065212 -1.960745,1.533632 -4.990581,-1.844145 -7.130445,0.70328 -2.141428,1.922318 -3.850546,4.998107 -7.182923,4.856844 -3.610232,0.57652 -5.70645,-2.899527 -6.737811,-5.814395 -1.413562,-3.921155 -1.100595,-8.206125 -0.342937,-12.230023 -1.011148,-2.176156 0.951678,-4.621439 -0.591323,-6.763868 -1.276954,-2.726467 -1.493417,-5.694372 -1.719769,-8.638697 -0.467973,-3.238582 -0.534683,-6.61789 0.714118,-9.701488 0.241033,-2.9551 2.596676,-5.852412 5.79229,-4.703523 3.499117,0.797908 5.76907,3.938376 7.343713,6.93457 2.142674,2.083615 3.952692,4.540871 6.081978,6.559851 2.205491,0.999767 4.121538,-1.250965 6.422411,-0.728388 0.744202,0.01553 1.493282,0.127124 2.188883,0.400269 z"
     style="fill:#0b0f13;fill-opacity:1;stroke:#0b0f13;stroke-width:0.264583px;stroke-linecap:butt;stroke-linejoin:miter;stroke-opacity:1"
     id="path457" />
  <path
     d="m 63.595411,51.88967 c 1.20146,-1.763672 2.925317,-3.147828 3.732455,-5.173376 1.107231,-1.258872 2.366173,-2.375986 3.312451,-3.774088 1.527031,-1.724059 3.440064,-3.041666 5.129877,-4.588782 1.244422,-0.940365 3.48196,-1.131748 4.353077,0.404549 0.869593,1.858038 0.73994,4.015628 0.844331,6.023952 -0.05448,1.929049 0.03577,3.888181 -0.234414,5.796859 -0.627183,1.139134 -0.772776,2.430082 -1.27988,3.591796 -0.987854,1.040088 -1.770986,2.314594 -1.449615,3.823464 0.348766,2.016921 -0.0088,4.395477 -1.758829,5.68457 -2.180197,0.01771 -2.559671,-2.702781 -1.673888,-4.23061 1.219416,-1.07977 0.192304,-2.607399 -1.095828,-1.394342 -0.623638,0.803453 -2.449864,1.528029 -1.584301,-0.127795 -0.08276,-0.668076 1.764933,-2.634592 0.605052,-2.138145 -0.799764,0.650445 -2.51738,0.783126 -3.40619,0.907843 0.498792,-0.813019 0.958484,-1.769416 -0.478206,-1.507403 -0.903456,-0.013 -2.57828,-0.167968 -1.266967,-1.217632 1.481906,-1.441915 -1.734314,-1.792031 -2.672294,-1.670579 C 64.30639,52.18273 63.939207,52.06352 63.595411,51.88967 Z"
     style="fill:#c3b5b5;stroke:#c3b5b5;stroke-width:0.264583px;stroke-linecap:butt;stroke-linejoin:miter;stroke-opacity:1;fill-opacity:1"
     id="path465" />
  <path
     d="m 28.615473,35.380072 c 1.826686,-0.899316 3.531036,0.631974 4.944171,1.609574 1.134935,1.059679 2.515927,1.905738 3.328548,3.255398 1.160567,2.334812 3.102752,4.130723 4.433889,6.348518 0.665669,1.279852 0.974997,2.724011 1.238732,4.130709 -0.191373,1.972023 -2.158141,-0.906233 -3.177578,-0.679616 -1.258244,0.99273 -1.603631,2.83389 -2.182351,4.269059 -0.931475,0.359125 -2.216718,0.378252 -2.440688,1.782694 -0.870012,0.521949 0.375721,2.870728 -0.873519,1.370258 -1.562794,-0.515591 -1.519638,2.299143 -2.739445,2.888084 -0.657381,0.05494 -1.532984,-0.528459 -1.91458,0.518623 C 27.873199,59.428808 28.524615,57.280264 27.507988,55.65 25.664826,50.477029 24.831946,44.82771 25.721415,39.379507 c 0.72928,-1.420876 1.623624,-3.033854 2.894058,-3.999435 z"
     style="fill:#c3b5b5;stroke:#c3b5b5;stroke-width:0.264583px;stroke-linecap:butt;stroke-linejoin:miter;stroke-opacity:1;fill-opacity:1"
     id="path473" />
  <path
     d="m 61.516352,68.714156 c 1.291188,-0.669819 2.533675,-1.525982 4.001909,-1.751644 0.795595,-0.205536 1.547896,-0.788237 2.403477,-0.613191 0.697676,0.298229 0.69369,1.193932 0.647053,1.838118 -0.10268,0.925289 -0.547594,1.76903 -0.644588,2.696642 -0.103984,0.832416 -0.494961,1.597736 -1.074817,2.19939 -0.700429,0.769068 -1.644027,1.481532 -2.741563,1.395937 -0.761535,-0.05716 -1.537156,-0.109204 -2.275272,-0.312442 -1.193693,-0.389131 -1.921138,-1.538862 -2.339392,-2.656915 -0.228206,-0.646062 -0.24022,-1.481272 0.367489,-1.93006 0.480531,-0.408485 1.104755,-0.579039 1.655704,-0.865835 z"
     style="fill:#d0dfcc;stroke:#d0dfcc;stroke-width:0.264583px;stroke-linecap:butt;stroke-linejoin:miter;stroke-opacity:1;fill-opacity:1"
     id="path481" />
  <path
     d="m 64.677908,67.472832 c 0.07545,0.544517 0.360842,1.044648 0.359949,1.602382 0.04648,0.574755 -0.144752,1.128835 -0.340742,1.6597 -0.08258,0.138703 -0.122823,0.510041 -0.321628,0.435215 -0.114665,-0.335876 -0.357015,-0.605111 -0.495342,-0.930326 -0.250976,-0.528116 -0.415922,-1.113883 -0.382278,-1.702377 0.06636,-0.387278 0.45846,-0.602363 0.562056,-0.97477 0.09225,-0.287858 0.41648,-0.117204 0.617985,-0.08982 z"
     style="fill:#0b0f13;stroke:#0b0f13;stroke-width:0.264583px;stroke-linecap:butt;stroke-linejoin:miter;stroke-opacity:1;fill-opacity:1"
     id="path489" />
  <path
     d="m 42.376518,65.310969 c 1.643879,0.550584 3.10598,1.70583 3.989524,3.197014 0.326302,0.830769 0.474743,1.762674 0.357409,2.650869 -0.157412,0.865816 -0.780128,1.610557 -1.59005,1.943032 -0.465121,0.499309 -1.074268,0.733096 -1.73699,0.837046 -0.661673,0.266206 -1.337786,0.03044 -2.009199,-0.02387 -0.850955,-0.05137 -1.474576,-0.736478 -2.063762,-1.27871 -0.904438,-0.952325 -1.68744,-2.137571 -1.709287,-3.495484 -0.108678,-1.098047 0.113423,-2.231766 -0.195651,-3.304517 -0.35031,-0.808422 1.022858,-0.748135 1.540568,-0.786412 1.144335,-0.01316 2.284159,0.116151 3.417438,0.261027 z"
     style="fill:#d0dfcc;stroke:#d0dfcc;stroke-width:0.264583px;stroke-linecap:butt;stroke-linejoin:miter;stroke-opacity:1;fill-opacity:1"
     id="path497" />
  <path
     d="m 43.275392,66.524401 c -0.06442,0.746105 -0.03836,1.495503 -0.04881,2.243026 -0.0105,0.32139 -0.103158,0.65352 -0.341448,0.882103 -0.18966,0.156914 -0.356615,0.559425 -0.626706,0.494191 -0.113471,-0.192087 -0.157202,-0.423303 -0.215907,-0.638694 -0.110102,-0.570693 0.0098,-1.150151 0.04794,-1.72176 0.05963,-0.507685 0.116502,-1.038231 0.402573,-1.477305 0.07834,-0.243575 0.439055,-0.611076 0.612183,-0.241046 0.08464,0.141307 0.124899,0.302723 0.170177,0.459485 z"
     style="fill:#0b0f13;stroke:#0b0f13;stroke-width:0.264583px;stroke-linecap:butt;stroke-linejoin:miter;stroke-opacity:1;fill-opacity:1"
     id="path517" />
  <path
     d="m 52.341629,89.077487 c 0.0102,0.926781 0.519808,2.001057 1.530132,2.142228 0.631004,0.393616 1.302762,0.123025 1.964853,0.02127 0.770601,-0.180061 0.686754,0.836208 0.718534,1.324802 0.03593,1.008961 -0.451587,1.93174 -0.988272,2.750514 -0.196398,0.610299 -0.605103,1.101222 -1.20288,1.345078 -0.827452,0.494043 -1.818817,0.66367 -2.765134,0.486516 -1.115321,-0.136863 -2.276919,-0.318511 -3.254205,-0.903491 -0.570358,-0.454515 -0.651993,-1.237424 -0.869244,-1.888615 -0.232821,-0.822911 -0.220872,-1.704882 -0.613443,-2.481176 -0.301881,-0.43968 -0.184837,-1.253818 0.470317,-0.826267 1.089057,0.479277 2.399453,0.631642 3.526001,0.175853 0.594907,-0.385918 0.936457,-0.999853 1.199119,-1.646662 0.0876,-0.170598 0.181243,-0.338219 0.284222,-0.50005 z"
     style="fill:#a2544f;stroke:#a2544f;stroke-width:0.264583px;stroke-linecap:butt;stroke-linejoin:miter;stroke-opacity:1;fill-opacity:1"
     id="path547" />
  <path
     d="m 52.574097,83.819285 c 0.673356,0.562594 1.588731,0.168035 2.329293,-0.01758 0.636677,-0.167344 1.540564,-0.517796 2.01865,0.135923 0.44545,0.686771 0.192542,1.614177 -0.225833,2.253044 -0.386608,0.425384 -1.058758,0.470145 -1.40471,0.95959 -0.60985,0.605849 -1.053901,1.481536 -1.927947,1.740709 -0.691301,0.0871 -1.484184,0.05214 -2.083021,-0.337353 -0.518492,-0.462436 -1.144255,-0.880001 -1.319917,-1.598417 -0.222955,-0.657895 -0.816326,-1.089251 -1.090569,-1.724127 -0.302527,-0.624445 -0.634748,-1.374386 -0.351624,-2.063261 0.437084,-0.276278 0.967016,-0.484364 1.48825,-0.456467 0.913334,0.19968 1.69402,0.790409 2.567428,1.107939 z"
     style="fill:#c39a94;stroke:#c39a94;stroke-width:0.264583px;stroke-linecap:butt;stroke-linejoin:miter;stroke-opacity:1;fill-opacity:1"
     id="path533" />
  <path
     d="m 48.281195,96.176755 c 0.219285,-0.245411 0.13749,-0.591828 0.202515,-0.888648 0.0647,-0.395796 0.06695,-0.797846 0.109809,-1.196101 0.0093,-0.160006 0.01685,-0.537679 -0.01604,-0.565158 0.03213,0.167639 0.0114,0.342628 0.07329,0.505688 0.193803,0.735568 0.282327,1.497249 0.521037,2.221104 0.04876,0.139528 0.280669,0.430601 0.07998,0.4964 -0.151904,-0.110452 -0.339998,-0.144536 -0.496582,-0.249808 -0.162852,-0.100648 -0.310417,-0.224021 -0.474016,-0.323477 z"
     style="fill:#fafcf9;stroke:#fafcf9;stroke-width:0.264583px;stroke-linecap:butt;stroke-linejoin:miter;stroke-opacity:1;fill-opacity:1"
     id="path555" />
  <path
     d="m 53.348987,96.902028 c 0.136822,-0.815895 0.164106,-1.6437 0.223726,-2.467231 0.01124,-0.130072 0.04206,-0.379714 0.0682,-0.431012 0.0036,0.55904 0.170741,1.101377 0.393691,1.609135 0.113553,0.277646 0.200865,0.566252 0.331935,0.836157 0.07159,0.233716 -0.245813,0.207403 -0.388405,0.182983 -0.208584,0.01362 -0.38985,0.142535 -0.571729,0.235448 l -0.02879,0.01712 -0.02862,0.0174 z"
     style="fill:#fcfdfa;stroke:#fcfdfa;stroke-width:0.264583px;stroke-linecap:butt;stroke-linejoin:miter;stroke-opacity:1;fill-opacity:1"
     id="path563" />
  <path
     d="m 51.892191,90.960399 c 0.569894,0.292732 1.402796,0.761819 1.912143,0.107667 0.359239,-0.657327 0.839117,-1.198222 1.361204,-1.716587 0.329496,-0.53253 0.645968,-1.078688 1.148698,-1.460241 0.626439,-0.505711 1.167286,-1.13207 1.910152,-1.486494 1.012384,-0.560381 2.239875,-0.710054 3.364174,-0.473273 0.920178,0.270922 0.992533,1.399436 0.92149,2.197234 -0.195992,1.641503 -0.73343,3.217127 -1.10027,4.824316 -0.31848,1.216401 -1.152615,2.445674 -2.477044,2.660425 -1.058752,0.188099 -2.130691,-0.05986 -3.179663,-0.196234 -0.798578,-0.322865 -1.592199,-0.648968 -2.429737,-0.835782 -0.575651,-0.442995 -1.393842,-0.613896 -1.723127,-1.321134 -0.375652,-0.647343 -0.38252,-1.495088 0.116612,-2.080512 0.05514,-0.0757 0.113853,-0.148806 0.175368,-0.219385 z"
     style="fill:#da9bc5;stroke:#da9bc5;stroke-width:0.264583px;stroke-linecap:butt;stroke-linejoin:miter;stroke-opacity:1;fill-opacity:1"
     id="path571" />
  <path
     d="m 22.88062,133.46193 c -3.243648,0.3044 -8.774088,1.29646 -9.443623,4.69776 3.105136,3.17109 7.486298,4.63422 11.713807,5.2364 7.870987,0.46061 16.188913,3.48088 24.058899,3.97651 7.86525,-0.35651 18.701708,-1.13651 26.427282,-1.96398 5.79705,0.70151 11.120989,-2.5687 16.800042,-3.01206 4.052419,-1.01996 6.336214,-2.98436 9.936573,-5.25619 5.2452,-3.97016 -2.18931,-5.88534 -5.662285,-5.23116 -6.972338,0.55126 -13.973319,1.89629 -20.965815,0.70118 -12.622272,0.15843 -25.197731,-2.45366 -37.82157,-0.92972 -4.957814,0.77146 -10.383405,-0.26934 -15.04331,1.78126 z"
     style="fill:#a2b0ca;fill-opacity:1;stroke:#a2b0ca;stroke-width:0.264583px;stroke-linecap:butt;stroke-linejoin:miter;stroke-opacity:1"
     id="path585" />
  <path
     d="m 53.411038,111.3901 c -4.864826,0.16471 -9.95428,1.45258 -14.791284,1.92979 -4.185865,1.18109 -8.877309,1.54595 -12.91531,3.08992 -3.089049,3.35416 -3.080376,8.86471 -4.698745,13.18271 -0.71322,3.70392 -1.856953,9.4894 3.405421,9.2473 6.239669,2.46504 10.448403,3.08663 16.603137,2.94186 9.595089,1.34867 21.966897,0.38919 31.574498,0.68895 4.934443,-0.0588 9.314781,-2.96594 14.131983,-3.65051 3.561521,-1.86692 9.308181,-2.42596 11.145762,-5.9664 -1.385035,-3.23707 -2.687179,-6.34338 -3.118114,-9.87552 -1.290373,-3.07331 -1.204192,-7.81729 -5.436181,-8.30872 -4.152658,-1.04255 -7.59655,-2.67175 -11.94815,-2.43055 -5.899397,-0.99866 -8.985178,-2.3259 -15.486501,-0.84478 -1.337908,0.0841 -7.131137,0.2494 -8.466516,-0.004 z"
     style="fill:#d0dbeb;fill-opacity:1;stroke:#d0dbeb;stroke-width:0.264583px;stroke-linecap:butt;stroke-linejoin:miter;stroke-opacity:1"
     id="path605" />
  <path
     d="m 87.347551,115.81867 c -2.647608,-1.14075 -5.665847,-2.16209 -8.526123,-2.50357 -7.423599,-1.22106 -15.051776,-1.57751 -22.047447,-0.85374 -5.143902,0.54487 -10.329579,1.29111 -15.507963,1.36138 -3.476579,0.97686 -9.757622,1.53235 -12.875471,3.31852 2.295857,2.14286 8.980377,5.48055 11.92452,6.18006 5.589104,0.73919 11.455108,-0.1681 17.057735,0.43568 5.834156,0.0514 11.197922,-0.0106 17.127405,-1.05072 5.182091,-0.51207 7.086518,-1.97114 9.021362,-4.09936 1.290408,-0.23283 3.439423,-1.56483 3.825982,-2.78825 z"
     style="fill:#a2b0ca;fill-opacity:1;stroke:#a2b0ca;stroke-width:0.264583px;stroke-linecap:butt;stroke-linejoin:miter;stroke-opacity:1"
     id="path613" />
  <path
     d="m 169.8921,132.11505 c -1.58224,1.49018 -0.85274,3.93148 -1.37866,5.84125 0.28005,2.28072 0.68024,4.54022 0.53058,6.85345 0.18786,4.70485 0.4493,4.8854 2.43156,5.68774 1.76115,1.18735 3.77412,1.57303 5.64983,2.56998 3.25618,0.78715 4.88859,0.97325 7.6825,1.1956 3.07336,0.0359 6.29699,0.10856 9.14681,-1.10344 3.65328,-0.90351 6.88736,-3.1364 6.97141,-7.19258 0.30974,-4.17507 -0.29652,-8.39228 0.41178,-12.54249 -0.49,-2.53519 -2.44315,-4.42194 -4.69436,-5.51225 -2.15069,-1.95332 -5.12559,-2.27067 -7.89909,-2.51249 -3.62437,-0.51744 -7.35014,-0.1 -10.77222,1.19691 -3.01608,0.5368 -5.74566,2.11703 -7.23257,4.84794 -0.24715,0.26352 -0.52942,0.49706 -0.84757,0.67038 z"
     style="fill:#9aa49b;fill-opacity:1;stroke:#9aa49b;stroke-width:0.264583px;stroke-linecap:butt;stroke-linejoin:miter;stroke-opacity:1"
     id="path621" />
  <path
     d="m 181.42058,125.11278 c -1.08754,0.55346 -2.40214,0.22788 -3.45401,0.87239 -1.23583,0.54879 -2.6695,0.63537 -3.77171,1.48758 -1.0653,0.69918 -2.51342,0.8872 -3.21799,2.05586 -0.63784,1.07832 -1.20238,2.20998 -1.70647,3.35586 -0.11745,0.63311 0.31608,1.30562 0.84008,1.61278 0.89547,0.22999 1.43014,-0.71001 2.12551,-1.07605 0.59664,-0.31109 1.20975,-0.59416 1.72497,-1.03992 0.46569,-0.41981 0.95692,-0.83933 1.37298,-1.31692 0.42245,-0.80669 1.34733,-1.09918 1.94125,-1.74708 0.81251,-0.67503 1.37121,-1.57343 1.99438,-2.40931 0.57236,-0.6468 1.18992,-1.28136 1.84733,-1.82793 0.10393,-0.0123 0.20023,0.0379 0.30368,0.0327 z"
     style="fill:#979b7f;fill-opacity:1;stroke:#979b7f;stroke-width:0.264583px;stroke-linecap:butt;stroke-linejoin:miter;stroke-opacity:1"
     id="path649" />
  <path
     d="m 199.72148,136.11917 c 1.77301,-1.80701 2.42146,-4.29659 0.63996,-6.40765 -1.62814,-2.14089 -1.63815,-1.66926 -4.44028,-3.29007 -1.48736,-0.33759 -4.54931,-1.53408 -6.11988,-1.55974 -3.03307,0.44339 -6.43358,-0.83416 -9.38667,0.17717 -2.54555,0.98269 -3.84593,1.13461 -6.72209,2.53299 -1.61887,1.09772 -3.82773,1.23535 -5.21759,3.7821 -0.64319,1.75032 -0.20804,4.0989 1.08922,5.40666 0.86843,-1.13787 -0.69524,-3.866 0.43481,-5.45964 0.69296,-1.63812 2.6132,-2.15267 4.23672,-2.77981 1.76693,-1.22681 3.45339,-1.4811 5.44428,-2.17677 2.28072,-0.32939 4.68857,-0.85137 6.99783,-0.46809 2.71118,-0.10784 5.60737,0.59222 8.1085,1.60641 1.58622,0.9542 2.99626,1.16998 4.1986,2.60205 0.80801,1.44785 1.18443,3.23388 0.37136,4.78712 -0.27047,0.39038 -0.59102,1.76003 0.36523,1.24727 z"
     style="fill:#b9b087;fill-opacity:1;stroke:#b9b087;stroke-width:0.264583px;stroke-linecap:butt;stroke-linejoin:miter;stroke-opacity:1"
     id="path629" />
  <path
     d="m 172.48075,133.56523 c 1.78204,-0.82501 2.84917,-3.03067 4.30258,-4.2821 0.91966,-1.08485 1.92141,-2.0864 2.9498,-3.05818 1.48964,-1.12648 3.07443,-2.14126 4.71947,-3.04243 0.90084,-0.80726 1.78882,-1.62278 2.84749,-2.22133 1.11859,-0.54625 1.72039,-1.65006 2.63902,-2.41779 0.96576,-0.70304 1.8151,-1.57813 2.99115,-1.9369 0.50269,-0.43373 1.92812,-0.41771 0.8506,0.3929 -1.22044,0.75276 -0.79936,2.57571 -1.89401,3.39544 -1.3519,0.57808 -2.99548,0.24538 -4.16894,1.28226 -1.41342,0.90742 -2.30155,2.3782 -3.52188,3.53162 -1.30697,0.94499 -2.2687,2.2739 -3.72135,3.0466 -1.15884,0.88276 -2.3496,1.78158 -3.78888,2.14499 -1.16184,0.70992 -2.11931,1.71049 -3.26084,2.454 -0.26667,0.21897 -0.60594,0.90205 -0.94421,0.71092 z"
     style="fill:#787660;fill-opacity:1;stroke:#787660;stroke-width:0.264583px;stroke-linecap:butt;stroke-linejoin:miter;stroke-opacity:1"
     id="path657" />
  <path
     d="m 188.40122,115.47725 c 1.33553,0.41844 2.93441,0.97297 3.45079,2.41214 0.18549,1.35669 -1.62224,1.18458 -2.50596,1.35202 -0.46056,0.17752 -2.29584,-0.18256 -1.18458,-0.61565 0.74876,0.12178 2.15596,-0.01 1.77237,-1.09541 -0.73806,-0.42823 -2.21121,-0.65786 -2.59503,0.31477 -0.2024,1.08687 1.93736,0.44928 1.43144,1.42843 -0.83652,0.23858 -1.71883,-0.16392 -2.56216,-0.26956 -1.27836,-0.31241 -2.59478,-0.26099 -3.89602,-0.32686 -1.02586,-0.0932 -1.83851,-0.89375 -2.6211,-1.377 0.56708,-0.93593 1.62389,0.27146 2.41041,0.2295 1.312,0.32104 2.62843,-0.17312 3.84148,-0.63021 0.99061,-0.34054 0.54173,-1.61207 -0.3658,-1.67482 -1.08089,-0.2095 -2.17933,-0.5328 -3.28306,-0.28485 -0.81033,0.10927 -1.96272,0.6513 -1.87027,1.61208 0.15005,0.65032 1.8595,1.25155 0.53256,1.68998 -0.9953,-0.40073 -2.06061,-1.3679 -2.05546,-2.53308 0.1173,-0.93568 1.18768,-1.25283 1.90496,-1.62261 1.17757,-0.26548 2.36171,0.21209 3.55293,0.10568 1.1173,-0.004 2.01868,0.7462 3.12812,0.80058 0.3384,0.081 0.67351,0.22588 0.91438,0.48487 z"
     style="fill:#979b7f;fill-opacity:1;stroke:#979b7f;stroke-width:0.264583px;stroke-linecap:butt;stroke-linejoin:miter;stroke-opacity:1"
     id="path677" />
  <path
     d="m 184.08352,128.7224 c 1.79882,0.39768 3.41568,-0.92978 5.07672,-0.93434 0.91921,0.81162 2.12584,0.52012 3.02987,0.72618 -0.18094,2.43146 2.7978,0.29365 3.60679,2.15729 1.27685,0.1537 2.82143,-0.0362 3.58991,1.27538 0.94509,1.18129 0.17845,2.64005 0.0355,3.93857 -0.58,1.26742 -2.21579,0.42584 -3.50846,0.97693 -1.22281,0.71842 -1.78633,0.71461 -3.08514,1.31651 -2.73199,0.35201 -5.19417,0.5814 -7.96991,0.57959 -1.49437,0.37334 -2.67942,0.4786 -4.14929,0.16994 -2.18287,-0.71237 -3.61087,0.31634 -5.59017,-1.00473 -1.51483,-0.58387 -5.07267,-1.2597 -3.21721,-2.21262 0.0764,-1.79301 2.37612,-1.27644 2.92539,-2.59456 1.40845,-1.08459 3.0935,-1.90863 4.69102,-2.59065 1.42333,0.0838 1.74885,-2.61648 3.48645,-1.49504 0.37844,-0.0195 0.73007,-0.17468 1.07857,-0.30845 z"
     style="fill:#c7a075;fill-opacity:1;stroke:#c7a075;stroke-width:0.264583px;stroke-linecap:butt;stroke-linejoin:miter;stroke-opacity:1"
     id="path698" />
  <path
     d="m 169.45375,134.69899 c 0.57346,1.83502 2.58543,1.9906 4.2703,2.78998 2.20292,1.35268 4.63772,0.93407 7.16299,1.22992 1.99302,-0.0498 4.0952,0.40664 6.09436,-0.011 2.12171,-0.18183 3.40181,-0.34532 5.50599,-0.63214 1.85792,-0.54369 2.97422,-0.62553 4.63732,-1.58848 1.28808,-0.34099 4.16697,-3.20669 3.85997,-1.75745 -1.14343,2.17095 -2.05222,2.47825 -3.89923,3.20983 -1.60243,0.83159 -2.96398,1.1313 -4.72167,1.60187 -2.72897,0.86652 -5.52522,0.46538 -8.32492,0.77177 -2.81524,0.0217 -4.76809,0.0186 -7.52373,-0.52976 -2.01725,-0.6244 -2.10834,-0.75243 -5.17632,-1.58301 -1.8229,-0.87935 -4.03819,-3.9797 -2.15179,-3.71474 z"
     style="fill:#b9b087;fill-opacity:1;stroke:#b9b087;stroke-width:0.264583px;stroke-linecap:butt;stroke-linejoin:miter;stroke-opacity:1"
     id="path706" />
  <path
     d="m 217.68873,65.811955 c -7.70641,0.09854 -15.47302,1.705299 -23.12375,0.138253 -5.33552,-0.798077 -10.63956,0.74116 -15.96518,0.995593 -4.67676,-0.07325 -6.78153,5.216548 -11.13529,6.07795 -2.91019,2.242388 -5.49177,-1.115493 -4.86983,-4.058303 1.22613,-3.722859 4.42762,3.020629 6.90887,-0.52027 3.19984,-1.846106 6.17761,-4.186398 9.68296,-5.426338 3.66363,-0.693703 7.476,0.375121 11.11553,-0.716079 5.43546,-0.477672 10.60122,-2.301232 15.88099,-3.564099 3.90295,-1.268963 8.13153,-1.537177 12.19151,-1.328176 2.56283,0.701981 6.54012,2.806519 5.70512,5.945207 -1.4032,2.00968 -4.18111,2.157357 -6.39093,2.456262 z"
     style="fill:#decab0;stroke:#decab0;stroke-width:0.264583px;stroke-linecap:butt;stroke-linejoin:miter;stroke-opacity:1;fill-opacity:1"
     id="path1851" />
  <path
     d="m 234.47087,52.163953 c -0.40573,-1.201903 -4.42959,-1.104893 -2.43317,-2.52521 1.9029,2.040331 -2.28422,1.508347 -3.04532,0.419419 1.13539,0.634869 1.69275,2.762834 0.10261,1.025624 -0.77308,-0.823659 -3.44473,-0.750624 -1.61849,0.330421 -1.25493,0.991085 -3.85523,-1.060652 -2.19024,1.094365 -0.70811,1.02434 -2.62666,-1.238174 -2.36932,0.182261 -1.09538,-0.43953 -4.98551,-0.135356 -2.27646,0.689536 3.00404,1.180634 -1.31169,1.988125 -2.51268,1.246868 -2.14202,-0.213823 1.33623,1.644326 -1.14378,1.310382 -1.32612,-0.05729 -4.26268,-1.356355 -2.85299,1.14252 -1.2736,0.534271 -3.15387,0.813985 -2.96611,2.093061 -0.55535,0.230699 -3.10668,0.286536 -1.75669,1.182404 -0.87844,-0.04116 -4.16486,-0.07306 -1.87938,0.997471 1.19125,0.126162 -2.7087,0.273796 -3.44728,0.511699 -1.40288,0.662223 1.66935,0.233633 0.42582,1.01859 -0.64469,-0.579109 -3.38726,-1.496888 -1.91814,-0.110135 0.90937,0.990565 -2.50654,0.508554 -3.06625,-0.01139 -2.90963,0.265806 2.75365,2.82153 0.12054,2.045949 -1.07682,-0.028 -4.11282,0.38053 -1.84445,1.091528 -0.84778,0.792809 -3.31015,0.369655 -1.70454,1.846753 -0.91867,0.619503 -2.3353,-0.07732 -2.15333,1.115504 -1.32014,0.07592 -2.36224,0.807415 -1.03029,1.555504 -1.02728,0.656517 -2.18115,1.206097 -1.75962,1.687095 -2.78268,0.02405 -5.52269,0.378338 -8.19133,1.158178 -3.26137,0.433153 -6.96727,-0.09573 -9.72358,2.06203 -0.85631,2.475811 3.08726,3.767778 5.04395,3.471805 2.50981,-0.253226 4.83727,-1.373567 7.38669,-1.443141 3.00665,-0.205301 6.05436,-0.387417 8.65471,-2.08797 2.38426,-1.459409 5.16969,-0.704003 7.56575,0.242934 2.17258,0.891956 4.90737,1.161099 6.7458,-0.602051 1.95868,-1.996561 3.89779,-3.995021 6.09485,-5.740518 2.39157,-2.28116 5.79702,-2.746106 8.56991,-4.404187 2.23389,-1.260802 4.77838,-2.223729 6.23975,-4.459171 1.38366,-2.22793 4.02773,-3.458831 5.0044,-5.927543 0.24326,-0.712394 0.26022,-1.522427 -0.0713,-2.210587 z"
     style="fill:#b29e86;stroke:#b29e86;stroke-width:0.264583px;stroke-linecap:butt;stroke-linejoin:miter;stroke-opacity:1;fill-opacity:1"
     id="path714" />
  <path
     d="m 179.2613,73.545556 c -1.8949,0.09924 -3.7928,-0.06808 -5.67812,-0.193364 -1.0173,0.232252 -1.95998,0.721509 -2.89587,1.172479 -0.90304,0.2931 -0.5219,1.347605 -0.70277,2.036219 -0.45301,0.660245 -0.28828,1.542651 0.54368,1.745732 0.75582,0.416681 0.22846,1.246223 0.10938,1.85209 0.0166,0.902467 1.08886,1.413043 1.8709,1.542279 1.90298,0.01078 3.60053,-1.059725 5.47746,-1.249573 1.0837,-0.217472 2.28253,-0.280687 3.19235,-0.969606 0.87912,-0.66792 0.94762,-1.834573 0.8932,-2.838477 -0.28601,-0.64836 -1.2925,-0.349056 -1.58882,-1.032754 -0.34505,-0.729182 -0.40787,-1.650875 -1.22138,-2.065025 z"
     style="fill:#c7c8cc;stroke:#c7c8cc;stroke-width:0.264583px;stroke-linecap:butt;stroke-linejoin:miter;stroke-opacity:1;fill-opacity:1"
     id="path730" />
  <path
     d="m 245.10074,54.294222 c -0.43354,-0.249458 -3.61533,-1.131839 -1.85732,-0.477896 -1.37209,0.452675 -4.30234,-2.477505 -2.26545,-0.359855 0.89129,1.89411 -3.78408,-3.096114 -2.5078,-0.374008 2.16506,1.513819 -1.25048,0.591099 -1.04683,-0.298757 1.44566,2.4612 -1.51522,-1.092133 -1.4651,0.581833 -1.07527,-0.654944 -2.66139,-1.311282 -2.61973,-0.113619 -1.75861,-0.604202 -2.8427,0.695841 -2.31373,1.687221 -1.0549,0.128618 -3.38605,0.05731 -2.05827,1.653825 -0.68859,0.522287 -3.27113,-0.04446 -2.25581,1.447001 -0.92243,0.821375 -4.79019,-0.528925 -3.15167,1.645843 -0.95644,1.546166 -5.46729,0.09478 -3.92627,2.211724 -1.04891,1.190539 -4.79896,0.122566 -3.28346,2.290243 -0.9974,0.84751 -4.2582,0.06086 -2.4316,1.618966 -1.58108,0.939544 -3.79328,-0.230142 -4.54556,1.754074 -1.11563,0.468094 -3.21526,0.568586 -3.05017,0.932272 -1.02861,0.752686 -4.37543,-0.637666 -2.3441,0.762213 -0.86492,0.941527 -3.72268,0.673377 -2.51503,2.071816 -1.45775,0.371638 -5.83284,-1.217339 -3.34197,1.561259 -0.77202,1.171936 -4.22141,-0.991225 -2.95902,0.43041 2.03396,0.447995 -2.96005,0.831793 -3.90295,1.274576 -3.42218,0.992143 -7.06482,-0.386819 -10.47935,0.793186 -1.26059,2.379688 0.14685,5.105954 2.96491,4.55127 1.91696,1.580109 2.84068,5.487616 6.10182,3.94524 2.67261,-0.334111 5.4825,0.246815 8.04564,-0.789267 1.41029,-1.933517 5.18188,-3.309887 6.21112,-1.405818 -2.92332,0.527752 0.65088,1.161157 0.69056,0.258757 -1.38573,0.640969 -1.25412,2.158873 0.25742,0.858543 1.32578,-1.242665 -0.51243,1.381113 1.04227,0.04949 1.42506,0.327749 -2.09614,1.05427 -0.005,1.444203 1.18117,-0.567438 0.8964,0.791905 1.89099,0.506719 0.85093,1.979293 3.73466,-0.396438 5.2459,-0.668586 -0.0129,0.462168 0.57247,1.196101 -0.70587,1.679161 1.2194,-0.482341 1.8495,-0.596236 1.84454,0.80973 3.21238,0.297325 5.67285,-2.053945 8.24194,-3.52932 2.23975,-2.288913 3.94899,-4.871261 5.46241,-7.614968 2.23378,-2.371259 5.16516,-4.233221 5.94753,-7.624613 1.4997,-3.193099 5.63252,-3.337083 8.02953,-5.617661 2.5186,-1.211327 2.34109,-3.848679 3.24476,-5.955727 0.77578,-0.415218 -0.76034,-1.319502 -0.18928,-1.989484 z"
     style="fill:#decab0;stroke:#decab0;stroke-width:0.264583px;stroke-linecap:butt;stroke-linejoin:miter;stroke-opacity:1;fill-opacity:1"
     id="path722" />
  <path
     d="m 187.45836,79.088204 c -1.28258,-0.307911 -2.94386,-0.626216 -3.42368,-2.050231 -0.2723,-0.806216 -1.37157,-0.715352 -1.22905,-1.730703 -0.91702,-0.432015 -2.0323,-0.255931 -3.02352,-0.167171 -1.44299,0.279791 -2.92096,0.189709 -4.36719,0.411768 -1.12286,0.03297 -1.30245,1.246463 -0.83049,2.048999 0.73923,1.098805 -1.2178,1.255472 -1.03708,2.205949 0.53672,0.85698 -0.0536,1.795268 0.3056,2.609327 0.58865,0.935307 1.80277,0.391053 2.56625,0.998149 0.52366,0.505541 1.89959,-0.113135 1.22145,1.027777 0.69924,0.778501 2.02382,0.82243 3.02814,0.691192 2.14788,-0.346764 4.32064,-0.675307 6.50164,-0.487119 1.29799,0.03954 2.88195,-0.208476 3.57935,-1.436406 0.35429,-0.986268 -1.47911,-0.804699 -0.64704,-1.719284 -0.52054,-0.696099 -1.56633,-1.303307 -1.86359,-2.323427 -0.21123,-0.195158 -0.53088,-0.165796 -0.78079,-0.07882 z"
     style="fill:#f3f4f9;stroke:#f3f4f9;stroke-width:0.264583px;stroke-linecap:butt;stroke-linejoin:miter;stroke-opacity:1;fill-opacity:1"
     id="path744" />
  <path
     d="m 260.26748,57.824951 c -1.51329,-1.369385 -3.50593,-2.086916 -4.94165,-3.562336 -0.55537,-0.80241 -1.81765,-1.304026 -2.18147,-1.985258 0.34873,0.06071 1.11143,1.030157 0.11286,0.69642 -1.07175,0.04105 -1.86672,-1.190464 -2.69441,-1.271349 0.23997,0.419622 0.47182,1.382215 -0.27343,0.631228 -0.47605,-0.561874 -1.98395,-1.280618 -1.20096,0.01371 0.72251,1.288441 -1.32314,0.07589 -1.91149,-0.0057 -0.65121,-0.479432 -1.56805,-0.311827 -0.94692,0.625201 -0.21165,0.615937 1.27826,1.655671 0.009,1.256657 -0.63878,-0.05747 -1.63388,-1.238037 -1.91315,-0.720942 0.88868,1.217768 -1.89485,-0.352924 -2.07782,0.67191 0.45523,0.723708 2.21383,1.599602 0.80922,2.384084 -1.25131,0.53831 -2.71232,1.083933 -3.20868,2.492763 -0.74054,1.187026 0.50484,2.199863 1.6302,2.21539 1.91503,0.225711 3.97398,0.388405 5.78839,-0.382262 1.11818,-0.787221 2.63921,-1.264804 3.8022,-0.273803 0.97783,0.761896 2.36193,0.627727 3.26095,-0.185497 1.15317,-0.965048 2.12896,-2.358256 3.74858,-2.526954 0.7216,-0.129913 1.45938,-0.116296 2.18835,-0.07325 z"
     style="fill:#c4ac90;stroke:#c4ac90;stroke-width:0.264583px;stroke-linecap:butt;stroke-linejoin:miter;stroke-opacity:1;fill-opacity:1"
     id="path752" />
  <path
     d="m 239.38033,65.695117 c -1.52947,-0.569914 -5.39419,-1.127414 -5.37888,-1.8957 1.14893,1.355401 -3.76629,-0.8842 -2.12246,1.236535 -1.36346,0.23752 -2.26556,-0.323767 -1.66943,1.171926 -1.28645,0.412273 -2.20045,-0.01224 -1.25451,1.412621 -0.58206,1.369585 -3.20787,0.133716 -2.06736,2.306862 -1.97647,-0.188984 -1.3878,0.559136 -0.48449,1.633349 -1.55865,0.131332 -3.2446,0.743997 -3.08438,2.45274 -1.30931,0.466629 -1.94867,1.427514 -1.20222,1.913634 -1.14641,0.317827 -1.97921,0.389152 -1.5077,1.177203 -1.26868,0.459358 -1.44088,1.357436 -1.04209,2.100366 -0.87468,0.55667 -3.1285,1.421604 -1.37756,2.178017 -0.99254,1.041958 -2.45203,1.235827 -1.74343,2.401537 -1.11716,0.516849 -1.29207,1.072595 -0.15432,1.706462 -1.27214,0.203916 -2.41725,0.930923 -1.972,2.201442 -0.93597,0.552721 -2.18574,0.704369 -1.45514,1.639892 -1.17656,0.71824 -2.34583,1.254349 -1.50815,2.390886 -1.07424,0.908257 -1.86547,1.311241 -0.72696,2.308265 -1.15923,1.634939 -0.63501,3.026242 -1.54969,4.838921 1.20779,1.011462 2.33986,1.957965 3.78769,1.779345 0.0989,1.81379 0.62271,1.65679 1.52079,0.76522 -0.65555,2.26686 2.5442,-2.001257 2.01841,-0.89617 0.95384,-2.539651 3.08277,-4.415596 5.55882,-5.532889 1.4803,-0.925923 1.91061,-2.854312 3.48245,-3.509808 1.38615,-2.305209 4.5426,-3.306326 4.91345,-6.208288 -0.58656,-2.059991 4.19014,-0.401955 2.00093,-1.035661 0.48287,-0.999161 1.44399,0.236352 0.38655,-0.847674 -0.004,-2.244162 0.66574,-4.022522 1.62061,-6.656141 1.10729,-2.148337 1.14472,-4.509938 2.57632,-6.446453 1.73864,-0.36743 2.99976,-2.88194 2.43475,-4.586439 z"
     style="fill:#b29e86;stroke:#b29e86;stroke-width:0.264583px;stroke-linecap:butt;stroke-linejoin:miter;stroke-opacity:1;fill-opacity:1"
     id="path760" />
  <path
     d="m 232.27535,78.310776 c -1.33195,0.562379 -2.7794,1.845957 -1.57623,3.258693 0.93864,2.096501 -3.61075,1.984512 -1.76396,3.863699 -0.59982,0.735474 -1.54983,1.773061 0.12048,1.872858 1.70233,0.280198 3.56295,0.802014 4.44102,2.436196 0.59086,1.808516 2.66514,1.22243 3.95953,2.082561 1.29494,1.676174 4.04385,0.312185 4.79265,2.51274 0.81221,1.670212 2.9762,0.691209 3.94418,1.982029 0.84879,0.980009 1.55399,2.599417 3.01747,2.584529 1.91189,-0.509932 1.5109,-2.592429 0.42873,-3.752388 -1.03527,-1.001526 -1.89546,-1.963268 -2.30954,-3.345202 -1.61716,-0.766312 -1.18233,-3.093149 -3.01844,-3.465454 -1.8121,-0.556477 -3.82969,-1.817404 -4.19094,-3.820962 0.1748,-1.711215 0.0302,-3.405619 -1.04853,-4.830415 -0.9711,-1.390273 -0.99913,-3.603916 -2.64197,-4.406451 -1.65139,-0.742766 -2.36256,1.133262 -3.06683,2.217867 -0.27289,0.383417 -0.68277,0.599244 -1.08762,0.8097 z"
     style="fill:#b29e86;stroke:#b29e86;stroke-width:0.264583px;stroke-linecap:butt;stroke-linejoin:miter;stroke-opacity:1;fill-opacity:1"
     id="path1843" />
  <path
     d="m 235.82083,67.488037 c -0.70777,-1.275394 -5.52782,-1.964601 -2.3939,-0.580315 1.86871,1.427171 -0.94263,1.794446 -1.57139,1.624527 1.11689,0.275381 3.41777,0.656716 1.35696,1.76318 -1.62582,0.292441 -1.9616,0.911523 -0.0657,0.814408 3.71086,0.225116 -4.52858,2.823454 -0.88011,2.459559 1.91954,0.04905 0.99466,1.488601 0.46616,2.245746 0.87491,0.464569 2.59305,-0.09559 1.20983,1.375425 2.58273,0.446927 0.18174,1.808357 -0.49371,2.505419 1.52728,-0.188791 3.28666,0.69057 1.0709,1.57152 -0.75905,1.143072 3.23374,0.6664 1.38462,2.281264 -1.69879,1.706486 -0.28957,2.812278 1.20819,2.419624 -0.83508,1.516556 1.60876,-0.309708 0.0144,1.564296 0.43245,1.170774 2.51528,-1.667459 1.32087,0.176216 -0.41017,2.084815 2.35966,0.04657 2.06332,2.280782 -0.0358,3.286664 3.57788,-1.715956 3.49676,2.053404 -0.0355,2.974793 3.68058,1.285239 3.88889,3.9809 0.62,1.58689 1.432,3.19122 2.70199,1.25498 1.44269,0.499132 3.23803,0.09596 4.6063,0.605278 1.7063,-1.470206 1.9314,1.150563 3.40977,0.903439 0.36229,3.069101 2.40741,-1.833975 2.7039,0.826907 1.35425,0.136328 2.3672,-2.137505 2.35687,0.278772 0.81596,0.321992 1.27952,-1.777025 2.68769,-1.449195 -0.28374,-1.245658 -0.11106,-2.501851 1.08727,-1.708892 0.92012,-1.426159 0.0744,-3.693349 0.7022,-4.614422 0.89191,-1.75768 3.41817,-9.672348 2.26106,-10.815456 -2.32811,-1.039284 -1.18214,-3.114124 -4.72053,-3.687039 -3.78081,0.340418 -5.33909,-2.732839 -6.9328,-6.279316 -0.80751,-2.164265 -2.47012,-5.773246 -9.76847,-7.481591 -1.30582,-3.016984 -7.698,5.03417 -10.78085,4.634824 -0.79605,-0.09345 -1.63813,-1.991545 -2.3905,-1.004244 z"
     style="fill:#c4ac90;stroke:#c4ac90;stroke-width:0.264583px;stroke-linecap:butt;stroke-linejoin:miter;stroke-opacity:1;fill-opacity:1"
     id="path768" />
  <path
     d="m 242.02342,75.792146 c 0.86195,0.620398 0.45389,1.400576 -0.45471,1.220115 0.13247,0.862221 0.28763,1.997721 -1.00779,1.67497 -0.68593,0.279018 1.37511,1.468917 -0.29747,1.343916 -2.22006,-0.164244 0.89356,1.776114 -0.71173,2.583984 0.76756,1.627787 1.91929,2.743967 3.5772,3.717875 1.40777,0.486912 2.2047,1.72518 3.28114,2.656113 1.66304,1.132106 2.03393,3.439885 3.84952,4.434932 1.74512,1.046868 3.92371,1.270857 5.42099,2.752801 0.86818,0.333827 2.27062,0.159489 2.95498,-0.162614 0.21603,-0.914362 0.73185,0.08398 1.11864,-0.727914 1.65424,-7.01e-4 2.862,-1.398036 2.00828,-2.965868 -1.4923,-0.892745 -3.35195,-1.551035 -4.09478,-3.274667 -0.68065,-1.835345 0.74274,-3.553665 0.71478,-5.396414 0.0528,-1.824573 -2.28551,-1.700959 -3.26601,-2.725404 -1.20739,-1.187698 -2.29622,-3.278338 -4.32027,-2.799187 -1.68089,0.637182 -3.12129,-0.300838 -4.27294,-1.441411 -1.3728,-1.195544 -2.97834,-0.970557 -4.49983,-0.891227 z"
     style="fill:#decab0;stroke:#decab0;stroke-width:0.264583px;stroke-linecap:butt;stroke-linejoin:miter;stroke-opacity:1;fill-opacity:1"
     id="path776" />
  <path
     d="m 276.89778,61.401102 c -2.97618,-2.003144 -4.7803,-5.68032 -8.19277,-6.773369 -0.78741,-2.44554 -1.56213,-0.117225 -2.92015,-1.87972 -1.3371,0.525187 -3.2017,-0.786402 -4.46019,-0.853245 -2.00293,-0.937589 -5.56115,-1.173742 -7.42829,-0.502853 0.21511,0.736077 -2.56537,-0.07955 -1.98278,1.992709 -2.50238,-1.462238 -1.55413,1.96667 -3.94996,1.647024 -0.13492,0.822378 -2.59921,-0.304283 -0.88688,1.095321 -1.68284,0.907563 -0.56545,2.362894 -3.38158,2.246506 0.57035,1.703735 -2.196,0.72695 -2.26017,1.295635 -1.57176,-0.833944 -0.41026,2.704731 -2.50484,0.835124 -0.41459,0.333873 0.16728,1.842861 -1.59418,1.364067 2.07089,0.998131 -3.36356,-0.09935 0.18087,1.664864 0.49414,1.375791 -4.56341,0.950224 -0.97466,1.080776 1.45692,0.622145 -2.38435,0.794512 -2.75445,1.301493 -2.78296,1.012978 1.76785,0.844582 -0.36318,1.614204 0.75823,0.508469 1.04184,0.787164 0.4416,1.888483 2.13273,0.245029 5.29873,2.452031 5.66891,0.516318 1.43184,-0.509337 0.60552,-2.547763 2.98157,-1.752598 -0.87346,-1.355928 2.30387,-0.0044 0.9676,-1.785197 3.54958,-0.327661 7.45294,0.904384 9.52773,4.048086 2.03823,3.183081 -0.5927,6.35217 -2.16076,9.031069 2.18752,1.11613 3.6096,4.913272 6.38944,5.404881 3.30006,-1.382544 6.66568,-5.547731 10.53168,-3.110381 4.02529,2.431453 0.89979,6.464579 0.23169,9.65248 -1.45442,2.069553 -0.15887,6.203119 -0.28335,7.24603 0.40407,-1.60078 1.76846,-3.148244 1.30435,-0.393415 -0.0518,-1.706249 1.43302,-2.622671 1.73825,-0.305614 0.34593,-1.284618 1.2134,-2.300885 1.87311,-1.068387 0.75265,-3.264045 1.5102,2.638433 2.29687,-0.902331 0.6279,-3.247078 1.5632,1.416009 1.95854,-1.592591 0.33973,-1.275606 0.21988,-2.644639 1.21818,-1.249964 -1.80482,-1.609399 -0.19173,-3.790969 0.90375,-1.757417 -0.62875,-1.640397 -0.036,-4.317227 0.81372,-1.46963 0.0996,-0.802167 0.23478,-4.490229 1.1401,-1.97797 0.23386,-1.690796 -0.34937,-3.397505 0.56458,-4.495279 1.03138,1.359134 -1.92445,-4.035081 0.69134,-1.557261 2.37442,-2.321763 -1.50103,-7.382942 0.48533,-9.888952 -0.65022,-2.037201 4.69263,-0.395571 1.28062,-2.914205 0.76689,-1.285161 0.19661,-0.818517 -0.71622,-1.824383 0.35854,-2.278055 -3.82323,-3.650006 -5.70715,-5.788767 l -0.31804,-0.09074 -0.3502,0.0092 z"
     style="fill:#decab0;stroke:#decab0;stroke-width:0.264583px;stroke-linecap:butt;stroke-linejoin:miter;stroke-opacity:1;fill-opacity:1"
     id="path796" />
  <path
     d="m 218.81188,87.399216 c 0.56563,0.02701 1.63084,-0.031 1.97848,-0.656055 -0.781,0.482215 2.16414,-0.05033 1.55985,-0.586445 1.69925,0.570244 3.09504,-1.089174 4.85014,-1.379748 1.81236,0.67609 4.04206,0.446956 5.47014,1.955954 1.42404,1.296396 2.86698,1.131185 3.8573,1.984859 1.61693,1.500625 4.03762,1.199491 5.90566,2.131679 1.47492,1.029319 2.18653,4.147422 -0.23463,4.463171 -2.31632,0.612405 -4.86748,0.127126 -7.05954,1.183946 -1.22206,1.081159 -1.49533,3.13258 -3.35726,3.47724 -1.18284,0.945843 -4.32135,0.131173 -4.11943,2.123813 1.42598,2.19975 -1.90585,2.08667 -3.13133,3.04969 -1.20159,0.1373 -2.33593,-1.01981 -3.24791,-1.14364 -0.73595,-1.32452 -1.57966,0.89398 -1.91876,-0.64825 -1.85566,-0.18069 -4.40965,-0.36032 -6.20058,-1.9545 -1.42924,-0.69204 -3.08461,-2.961088 -4.13986,-2.473462 0.21892,-2.834527 3.44457,-4.305413 4.32453,-6.974788 2.00603,-1.303677 3.22834,-3.598509 5.4632,-4.553464 z"
     style="fill:#decab0;stroke:#decab0;stroke-width:0.264583px;stroke-linecap:butt;stroke-linejoin:miter;stroke-opacity:1;fill-opacity:1"
     id="path813" />
  <path
     d="m 272.32591,68.165633 c 2.33469,-0.02602 4.67645,-0.164151 7.006,-0.06132 1.62479,-0.173397 3.23707,0.22151 4.86449,0.100627 1.84113,-0.01946 3.63134,0.448707 5.39935,0.872492 1.2981,0.595991 3.05895,1.426655 3.03898,3.095104 -0.0376,2.055663 -1.6473,3.645257 -3.36716,4.537759 -1.18593,1.076735 -2.34714,2.180512 -3.8124,2.878263 -1.58576,0.735556 -2.33469,2.514271 -3.96334,3.130042 -1.14312,0.05512 -2.57638,2.431578 -3.27162,0.993209 0.0647,-0.624708 1.28476,-1.720347 -0.098,-1.296235 -1.7442,0.164601 0.4933,-1.961161 -1.33221,-1.862221 -1.81499,0.0471 0.66671,-2.136182 -1.29468,-1.937218 -1.2737,-0.192565 0.25017,-2.268229 -1.33462,-2.193988 -1.03921,-0.889249 -0.0934,-2.86535 -1.81837,-3.365054 -1.01384,-0.736874 -1.81607,-2.072591 -1.67653,-3.3575 0.19703,-0.819845 1.1195,-1.014922 1.66015,-1.533958 z"
     style="fill:#decab0;stroke:#decab0;stroke-width:0.264583px;stroke-linecap:butt;stroke-linejoin:miter;stroke-opacity:1;fill-opacity:1"
     id="path821" />
  <path
     d="m 249.20314,58.625551 c 0.8322,-1.030219 0.91458,-2.459903 1.77663,-3.482804 0.70014,-1.399623 1.06374,-2.980106 2.04772,-4.22753 0.45855,-1.389206 1.59594,-2.37132 2.31116,-3.6208 0.8459,-1.417246 1.96472,-2.625938 3.25177,-3.669151 1.09434,-0.874993 2.64853,-0.804861 3.98361,-0.802291 1.57574,0.06844 2.18243,1.667756 2.18117,3.023685 0.10752,1.564751 0.86325,3.001901 0.7982,4.587608 0.30597,1.755679 0.86541,3.468864 1.00582,5.263925 0.57932,1.908349 0.12691,3.931238 -0.5491,5.742401 -0.68695,0.525223 -1.67144,-0.984239 -2.13414,0.200884 -1.21062,-0.02063 -1.96494,1.587117 -3.17927,0.619342 -0.85347,0.33856 -1.7156,0.33882 -2.34384,-0.324126 -1.04873,0.385997 -2.13235,0.784999 -2.88233,-0.358894 -1.07641,-0.729588 -2.07847,1.128631 -2.94123,-0.351564 -0.83249,-0.03543 -1.87537,0.217157 -2.23755,-0.919305 -0.52094,-0.530846 -0.53542,-1.154791 -1.08862,-1.68138 z"
     style="fill:#decab0;stroke:#decab0;stroke-width:0.264583px;stroke-linecap:butt;stroke-linejoin:miter;stroke-opacity:1;fill-opacity:1"
     id="path829" />
  <path
     d="m 259.69517,43.841214 c 1.17155,0.171236 2.55642,-0.273578 3.56781,0.476216 0.64767,0.830515 0.33415,1.99108 0.88202,2.881154 0.36404,1.246861 0.48142,2.5461 0.86628,3.793295 0.34148,1.795188 0.15186,3.641266 0.16633,5.458317 -0.15563,1.35035 -0.4087,2.818905 -1.29674,3.890342 -0.82469,0.527043 -0.86144,-1.494276 -1.89361,-0.578001 -1.32039,0.723721 -0.98692,-1.570264 -1.6665,-1.907386 -0.97206,1.392941 -0.42525,-1.371725 -1.49446,-1.382116 -0.94892,0.256677 -1.66424,2.250406 -2.70247,0.95699 -0.98316,-0.783675 -1.94108,0.353829 -2.67126,0.932551 -0.61004,0.519985 -1.20043,1.677186 -1.81765,0.480245 -0.8862,-0.920023 0.14459,-1.882432 0.35717,-2.812697 0.11552,-1.29526 1.01786,-2.313994 1.39932,-3.525032 0.45707,-0.895975 1.20975,-1.606426 1.47805,-2.605533 0.62121,-0.815309 1.13734,-1.692213 1.55152,-2.646491 0.49944,-1.200517 1.3347,-2.250811 2.45794,-2.925805 0.2649,-0.173692 0.53826,-0.334473 0.81625,-0.486049 z"
     style="fill:#6b3e35;stroke:#6b3e35;stroke-width:0.264583px;stroke-linecap:butt;stroke-linejoin:miter;stroke-opacity:1;fill-opacity:1"
     id="path837" />
  <path
     d="m 273.34876,70.355388 c 1.40593,-0.992047 3.24606,-0.406388 4.78521,-1.032886 1.83453,-0.455881 3.68291,0.212026 5.53611,0.05039 1.16456,0.0015 2.35092,-0.209351 3.47722,0.178546 1.62105,0.263477 3.21955,0.851179 4.53042,1.854788 0.66877,0.82876 0.0295,1.952863 -0.4506,2.713043 -0.67994,0.854059 -1.81061,1.18736 -2.41932,2.121029 -0.58933,0.999543 -1.49418,1.654469 -2.55317,2.091755 -0.72067,0.768481 -1.60449,1.261151 -2.55028,1.708756 -0.69757,0.896667 -2.06623,1.752455 -3.14824,1.014132 -0.81824,-1.476742 1.64405,-1.89766 1.1923,-3.171227 -1.26244,-0.781165 1.27991,-2.272783 -0.48001,-2.759741 -1.17672,-0.780813 -2.2372,-2.159073 -3.80562,-2.025048 -0.86691,-0.102531 -2.02426,-0.467551 -2.7321,-0.361554 0.99978,-1.294477 -1.114,-1.156168 -1.38192,-2.381987 z"
     style="fill:#6b3e35;stroke:#6b3e35;stroke-width:0.264583px;stroke-linecap:butt;stroke-linejoin:miter;stroke-opacity:1;fill-opacity:1"
     id="path845" />
  <path
     d="m 259.98241,83.420306 c 1.38258,-1.735917 3.72405,-2.805351 5.94001,-2.295589 0.86747,0.136001 1.7065,0.516631 2.28209,1.196555 0.50433,0.55173 1.20427,0.88511 1.63263,1.509073 0.19859,0.248663 0.86958,0.517288 0.16801,0.439113 -0.78116,0.20183 -1.43409,0.813983 -1.93925,1.436693 -0.77253,0.921994 -2.09671,0.874965 -3.17781,0.708417 -0.59517,-0.02807 -1.15283,-0.250821 -1.54441,-0.712612 -0.63613,-0.429221 -1.29335,-0.845707 -1.81637,-1.420003 -0.42365,-0.416994 -0.94455,-0.775234 -1.5449,-0.861647 z"
     style="fill:#d0dfcc;stroke:#d0dfcc;stroke-width:0.264583px;stroke-linecap:butt;stroke-linejoin:miter;stroke-opacity:1;fill-opacity:1"
     id="path883" />
  <path
     d="m 248.56353,66.624702 c 1.04164,0.31962 1.86457,1.057592 2.66847,1.75611 0.68743,0.388212 1.09445,1.055948 1.6653,1.563754 0.61166,0.592995 0.77305,1.45327 1.05325,2.223128 0.10577,0.637375 0.10601,1.325595 -0.24977,1.888655 -0.21387,0.800739 -0.54055,1.522392 -1.15016,2.095363 -0.28812,0.11391 -0.78959,0.666953 -0.96052,0.49504 0.63298,-0.711127 -0.33427,-1.211727 -0.91653,-1.444575 -1.11992,-0.638015 -2.35525,-1.328582 -2.8805,-2.579379 -0.60894,-1.388486 -0.19374,-3.13484 0.92153,-4.142155 0.65638,-0.159201 0.87336,-0.973719 0.33584,-1.404582 -0.11465,-0.191398 -0.27115,-0.373825 -0.48691,-0.451359 z"
     style="fill:#d0dfcc;stroke:#000000;stroke-width:0.264583px;stroke-linecap:butt;stroke-linejoin:miter;stroke-opacity:0;fill-opacity:1"
     id="path891" />
  <path
     d="m 265.7357,81.053338 c -0.29561,0.508044 -0.71655,0.927892 -1.16803,1.297794 -0.28575,0.320032 -0.29994,0.775393 -0.38187,1.175474 -0.0592,0.367921 -0.0995,0.747608 -0.0237,1.116303 0.21327,0.07837 0.49614,-0.0087 0.68719,-0.143696 0.65699,-0.458897 1.27904,-1.057317 1.52402,-1.841394 0.0878,-0.292553 0.0462,-0.606188 -0.0747,-0.882562 -0.0846,-0.254014 -0.16112,-0.510879 -0.25606,-0.761355 -0.0625,-0.130114 -0.27922,-0.102126 -0.30685,0.03944 z"
     style="fill:#121413;stroke:#121413;stroke-width:0.264583px;stroke-linecap:butt;stroke-linejoin:miter;stroke-opacity:1;fill-opacity:1"
     id="path905" />
  <path
     d="m 252.2018,69.346714 c -0.3886,0.556084 -0.97142,0.943949 -1.32734,1.526012 -0.28249,0.342164 -0.48502,0.744874 -0.5814,1.178678 -0.082,0.39885 -0.23451,0.838733 -0.0563,1.232051 0.17239,0.233481 0.51807,0.101769 0.65023,-0.107529 0.25372,-0.299074 0.65727,-0.419075 0.88327,-0.746177 0.43753,-0.55999 0.61675,-1.27274 0.64731,-1.972215 -0.0313,-0.311338 0.20287,-0.641375 0.046,-0.930839 -0.0611,-0.0892 -0.15606,-0.155869 -0.26175,-0.179981 z"
     style="fill:#121413;stroke:#121413;stroke-width:0.264583px;stroke-linecap:butt;stroke-linejoin:miter;stroke-opacity:1;fill-opacity:1"
     id="path913" />
  <path
     d="m 249.3635,84.909521 c 0.39872,0.287237 0.37667,0.832477 0.62984,1.210397 0.32958,0.355835 0.85431,0.362675 1.28919,0.506868 0.50328,0.113295 1.01443,0.376901 1.22563,0.876287 0.19485,0.347443 0.28913,0.776136 0.0806,1.141192 -0.14208,0.426245 -0.62973,0.54586 -1.02138,0.414659 -0.39573,-0.114098 -0.8141,-0.17846 -1.21951,-0.07082 -0.58611,0.08534 -1.23899,0.25749 -1.79078,-0.04341 -0.46165,-0.288271 -0.49832,-0.865023 -0.52215,-1.352084 -0.10872,-0.892279 -0.50975,-1.746437 -0.46636,-2.655207 0.0634,-0.699242 1.01642,-1.115499 1.58201,-0.71781 0.19108,0.168945 0.25293,0.445308 0.21292,0.689933 z"
     style="fill:#6b3e35;stroke:#6b3e35;stroke-width:0.264583px;stroke-linecap:butt;stroke-linejoin:miter;stroke-opacity:1;fill-opacity:1"
     id="path933" />
  <path
     d="m 276.24627,102.31044 c 8.17228,-1.48897 16.52894,0.36265 24.48351,2.20589 4.65593,1.57289 9.32083,4.67178 9.33266,10.12232 0.20639,4.93179 4.44548,9.91738 1.75318,14.72965 -3.63938,3.18634 -9.13532,2.5005 -13.45298,4.42984 -5.97253,1.56854 -12.16169,-0.89761 -18.22135,0.11696 -6.67023,-1.67414 -12.72512,2.89807 -19.52476,2.38076 -12.40433,2.05531 -25.12973,1.00992 -37.47743,-0.95206 -5.57209,-1.23383 -13.91547,-2.92829 -13.74589,-10.21076 0.64407,-4.78552 2.49316,-9.37451 3.36827,-14.16423 1.27689,-6.04038 8.46039,-5.94165 13.30927,-6.52684 8.46577,-1.43683 17.12121,0.74481 25.54861,-1.04041 5.98335,-0.17815 11.90854,1.70955 17.85684,0.3052 2.23845,-0.4333 4.70294,-0.35576 6.77007,-1.39632 z"
     style="fill:#ff5501;stroke:#ff5501;stroke-width:0.264583px;stroke-linecap:butt;stroke-linejoin:miter;stroke-opacity:1;fill-opacity:1"
     id="path941" />
  <path
     d="m 295.21562,130.98648 c 5.91811,-1.16562 12.04918,-1.55194 17.60139,-4.0645 6.68473,2.60375 -4.36671,6.57088 -7.29695,7.63048 -9.66366,1.79933 -19.58981,1.84417 -29.37061,1.23506 -6.9632,1.94205 -13.88168,4.34198 -21.20438,4.39666 -10.73677,0.22429 -21.65225,0.42354 -32.05462,-2.68839 -6.05322,-0.0855 -11.8183,-2.18593 -16.87824,-5.21212 -1.25628,-2.65151 4.21382,-10.68327 6.13339,-4.69802 4.86052,3.50239 11.08434,4.38681 16.79765,5.77126 13.36108,1.1478 26.99765,1.89896 40.30077,-0.41937 6.23277,-5.18582 13.61325,-0.43984 20.67578,-1.28841 1.80649,0.11627 3.52051,-1.08282 5.29582,-0.66265 z"
     style="fill:#fa1900;stroke:#fa1900;stroke-width:0.264583px;stroke-linecap:butt;stroke-linejoin:miter;stroke-opacity:1;fill-opacity:1"
     id="path961" />
  <path
     d="m 271.16299,105.01625 c 8.27968,-2.76636 17.07108,-1.11046 25.32841,0.81869 2.44646,0.14442 10.7367,2.22131 7.04501,5.45958 -7.26296,2.52897 -15.16703,2.30467 -22.69617,1.42933 -4.63101,-1.29119 -9.41791,-3.13552 -13.68829,0.22853 -8.02668,2.64034 -16.6829,1.90898 -25.01296,1.80192 -8.64948,-0.50901 -17.58869,-0.13552 -25.76269,-3.51857 -1.49727,-4.57286 6.55965,-4.05638 9.48804,-4.94657 5.94211,-0.53531 11.91298,-1.60161 17.84533,-0.28571 6.66602,0.7566 13.3817,1.24286 20.09045,1.39945 2.48412,-0.66774 5.22999,-0.78992 7.36287,-2.38665 z"
     style="fill:#fa1900;stroke:#fa1900;stroke-width:0.264583px;stroke-linecap:butt;stroke-linejoin:miter;stroke-opacity:1;fill-opacity:1"
     id="path969" />
  <path
     d="m 265.6323,112.43588 c -0.0816,1.99477 -3.24827,1.00598 -4.60707,1.71018 -3.04097,0.52843 -6.1299,0.94005 -9.21999,0.79426 -2.02832,0.21118 -4.04863,-0.22413 -6.08296,-0.0514 -4.12306,0.0769 -8.21959,-0.56318 -12.34443,-0.48139 -4.31485,-0.12819 -8.58667,-0.90015 -12.80982,-1.75797 -1.36535,-0.37742 -2.90681,-0.76809 -3.95922,-1.67107 -0.30811,-1.52913 0.79958,-2.33841 1.70182,-3.18818 0.19297,-2.04082 2.78745,0.0264 3.41621,-0.83017 0.15601,-1.01423 1.5816,0.27419 1.92171,-0.8253 1.06716,1.01 3.03671,1.89038 3.57223,-0.0484 0.83337,0.3805 1.47037,-1.3241 2.29174,-0.0226 1.2226,1.07367 2.7335,-0.50448 3.97452,-0.8336 0.3343,-1.21574 1.2646,0.66863 1.93356,-0.45867 0.93282,-0.20896 1.74194,0.27372 2.40826,-0.15996 0.96221,1.03813 2.54549,2.68624 3.37501,0.61817 1.32883,0.11953 2.62991,-0.69348 3.54559,0.74076 1.45184,1.69219 2.55445,-0.79208 3.89173,-1.29436 1.12715,0.007 2.00925,-0.89444 2.83043,0.49602 0.75178,0.97911 2.01131,0.84011 2.45619,-0.12477 1.58195,-0.1856 2.38188,2.75743 4.11667,1.7198 1.04229,0.21974 1.87152,-1.11069 2.98816,-0.27034 1.58237,-1.17189 2.85562,1.05923 4.5689,1.25246 0.63802,0.70507 -0.15343,1.68718 -0.78928,2.11095 -0.25788,1.04625 2.59109,2.14546 0.82004,2.57561 z"
     style="fill:#feb67e;stroke:#feb67e;stroke-width:0.264583px;stroke-linecap:butt;stroke-linejoin:miter;stroke-opacity:1;fill-opacity:1"
     id="path989" />
  <path
     d="m 228.0592,94.880013 c 0.34509,-1.642118 2.50383,-0.493626 3.27724,-1.674199 0.84208,-1.07396 2.14664,-1.665349 3.50996,-1.600353 1.73095,0.160589 2.97194,-1.34811 4.65797,-1.439709 1.76315,-0.34032 2.97781,1.227314 4.53893,1.656277 1.75198,0.571509 1.52402,2.543288 2.56369,3.690484 1.43374,0.591711 2.18764,2.234113 1.49204,3.675984 -0.19893,1.695643 -1.03895,3.009773 -1.22978,4.717073 -0.51696,1.82758 -2.46944,1.68422 -3.63602,0.56824 -1.42399,-1.28631 -2.61984,1.36636 -4.25864,0.92375 -1.66328,0.009 -2.68062,-1.66008 -4.23006,-1.91659 -1.20696,0.4289 -2.35532,2.26167 -3.61553,0.56274 -0.69976,-1.54815 -2.14519,-0.78079 -3.34896,-0.6007 -1.59368,-1.17489 -2.7848,0.27882 -3.96727,1.14586 -2.14506,0.4389 -1.01608,-1.69305 -0.11023,-2.44627 0.66284,-1.4145 1.65144,-2.658097 2.0758,-4.17709 0.65025,-1.073682 1.24435,-2.328083 2.28086,-3.085497 z"
     style="fill:#f3f4f9;stroke:#f3f4f9;stroke-width:0.264583px;stroke-linecap:butt;stroke-linejoin:miter;stroke-opacity:1;fill-opacity:1"
     id="path997" />
  <path
     d="m 108.78268,130.43416 c -1.02971,2.30494 -1.34692,4.90646 -0.57231,7.33464 0.37967,2.46939 -0.31825,5.40939 1.81125,7.23816 1.58312,1.96509 4.01992,2.91195 6.18983,4.07487 3.82729,1.89265 8.16851,1.58231 12.28427,2.15291 2.69088,0.18332 5.49194,0.52842 8.04682,-0.56441 2.90192,-0.81465 5.92442,-1.15605 8.77822,-2.11471 2.84594,-0.94601 4.57639,-3.49194 6.43823,-5.65889 1.21622,-2.33043 0.0961,-5.14876 0.93403,-7.6619 0.57802,-1.38467 -1.38534,-4.91342 -1.56635,-4.37112 0.76008,2.97123 -1.48367,5.84982 -3.90449,7.2984 -2.08831,1.06797 -4.39904,1.55618 -6.58329,2.39891 -4.56953,0.8793 -9.25059,1.95443 -13.90981,1.07503 -4.48734,-0.35382 -8.98174,-0.86687 -13.27584,-2.24747 -3.09708,-0.37934 -5.6012,-3.09361 -5.24966,-6.28855 -0.0632,-0.91437 0.0234,-1.89984 0.5791,-2.66587 z"
     style="fill:#9aa49b;stroke:#9aa49b;stroke-width:0.264583px;stroke-linecap:butt;stroke-linejoin:miter;stroke-opacity:1;fill-opacity:1"
     id="path1859" />
  <path
     d="m 130.23169,125.37122 c -3.90457,-0.9537 -7.83357,0.20163 -11.71665,0.63473 -3.0054,0.97129 -6.35661,1.68598 -8.66474,4.00221 -1.42078,1.55179 -1.72552,3.774 -0.84854,5.67717 1.07811,2.60746 4.05213,3.25542 6.42121,4.15738 2.89432,1.20048 5.99992,1.55674 9.09824,1.27585 3.32392,0.26728 6.69013,0.91568 9.98249,-0.009 2.56765,-0.66572 5.27797,-0.19123 7.7893,-1.15318 2.8257,-0.61173 6.11285,-1.59452 7.24003,-4.58677 1.49448,-1.8536 0.85868,-4.49125 -1.35584,-5.45412 -2.81676,-1.8481 -6.32953,-1.32846 -9.4065,-2.43268 -2.81479,-0.83084 -5.66722,-1.5095 -8.539,-2.11208 z"
     style="fill:#feb67e;stroke:#feb67e;stroke-width:0.264583px;stroke-linecap:butt;stroke-linejoin:miter;stroke-opacity:1;fill-opacity:1"
     id="path1867" />
  <path
     d="m 146.95386,137.57526 c -2.73111,0.0847 0.25497,3.09218 1.50349,1.23956 1.88346,-1.8319 4.36433,-3.69076 4.32153,-6.60004 0.007,-2.39321 -2.44003,-3.53285 -4.36655,-4.22955 -3.65476,-1.14704 -7.46115,-1.77303 -11.23801,-2.35935 -1.54463,-0.75547 -3.13041,-1.26792 -4.86786,-1.24195 -2.95619,-0.49794 -6.01659,-1.24688 -8.97776,-0.33489 -1.19354,0.62674 -4.75859,-0.26468 -3.14824,2.04042 2.18733,0.70466 4.62221,-0.91895 6.95526,-0.63068 3.50015,0.27035 7.04196,0.54801 10.38262,1.70925 2.2223,0.30275 4.32942,1.07655 6.52978,1.45527 2.33644,0.073 4.18925,1.5457 5.41724,3.42393 1.37412,1.74585 0.46113,4.80482 -1.83609,5.17615 -0.23737,0.0907 -0.47117,0.19844 -0.67541,0.35188 z"
     style="fill:#b9b087;stroke:#b9b087;stroke-width:0.264583px;stroke-linecap:butt;stroke-linejoin:miter;stroke-opacity:1;fill-opacity:1"
     id="path1875" />
  <path
     d="m 135.46996,105.53789 c -1.7124,1.21118 -3.98115,1.11268 -5.76508,2.22093 -2.15173,1.10269 -4.21865,3.16259 -4.03948,5.77028 -0.27198,1.85244 -1.54695,3.7002 -0.78918,5.68481 0.5826,1.9475 0.88172,4.40076 2.89871,5.40597 1.91926,1.42849 4.41671,1.56202 6.36913,2.93378 1.96954,0.93376 4.21491,1.12693 6.15126,2.1851 2.52736,1.21394 5.1418,2.21996 7.70356,3.34062 3.13146,1.04806 3.85502,-3.23576 5.05139,-5.18384 1.53474,-2.79992 3.40804,-5.43403 4.31052,-8.53496 1.58397,-2.11076 1.36938,-4.83531 0.88425,-7.26717 -0.0274,-2.99618 -2.13637,-5.71701 -4.99591,-6.57207 -2.31739,-1.04081 -4.88683,-0.33295 -7.26,-0.0311 -1.77612,-0.55042 -3.73247,-2.63553 -5.43157,-0.65919 -1.3639,0.90422 -3.70463,1.87712 -5.0876,0.70688 z"
     style="fill:#979b7f;stroke:#979b7f;stroke-width:0.264583px;stroke-linecap:butt;stroke-linejoin:miter;stroke-opacity:1;fill-opacity:1"
     id="path1889" />
  <path
     d="m 123.28866,123.86488 c -4.05105,0.17863 -8.10237,1.09001 -11.78593,2.7816 -2.17374,1.33621 -4.33841,3.6228 -4.23372,6.35069 0.38549,2.55052 0.37875,4.52904 4.32283,6.15777 2.94,1.03422 5.93292,1.91734 8.8556,3.00897 4.3657,1.34943 8.97575,0.13919 13.42985,0.62942 2.15579,-0.45808 4.36994,-0.56211 6.50966,-1.04483 5.76557,-1.55008 5.09823,-1.42829 7.33642,-2.41846 1.33989,-0.23883 3.38923,-3.06674 0.52816,-2.71478 -1.58904,1.22795 -3.47459,1.57448 -5.50117,2.056 -3.33794,0.61276 -5.97666,0.85194 -9.18783,2.00754 -2.29705,0.20196 -5.04996,0.0917 -7.33628,-0.11693 -2.58731,-0.6335 -5.94039,-0.67028 -8.52276,-1.3664 -3.03821,-0.72998 -6.07217,-0.59043 -8.04739,-3.25447 -1.87975,-1.79698 -0.28143,-4.51876 1.15146,-6.03598 2.20161,-2.10323 5.61143,-1.60087 8.05789,-3.29982 2.15948,-0.78371 4.64792,-0.58273 6.63122,-1.85377 -0.41244,-0.36881 -1.5638,-0.68067 -2.20801,-0.88655 z"
     style="fill:#b9b087;fill-opacity:1;stroke:#b9b087;stroke-width:0.264583px;stroke-linecap:butt;stroke-linejoin:miter;stroke-opacity:1"
     id="path1897" />
  <path
     d="m 138.95697,105.30078 c 1.72986,0.44274 3.51969,0.74817 5.15316,1.49155 0.66747,0.31 0.93113,1.26605 1.78074,1.18317 1.70592,-0.0695 2.97413,-1.52888 4.67804,-1.63183 0.90146,-0.17022 1.81263,-0.30596 2.71338,-0.46023 1.16935,-0.28938 0.14029,-1.4047 -0.5939,-1.45694 -0.99433,-0.22646 -2.04216,-0.16445 -2.97723,0.25861 -0.91136,0.25788 -1.88057,0.16091 -2.80049,0.41576 -1.22201,0.27284 -2.17233,-0.7318 -3.28825,-1.011 -0.74694,-0.17403 -1.35327,-0.70063 -2.09335,-0.86395 -0.72276,-0.11925 -1.20472,0.53515 -1.76826,0.86094 -0.44692,0.28855 -0.67467,0.70737 -0.80384,1.21392 z"
     style="fill:#787660;stroke:#787660;stroke-width:0.264583px;stroke-linecap:butt;stroke-linejoin:miter;stroke-opacity:1;fill-opacity:1"
     id="path1913" />
</svg>
