<?xml version="1.0" encoding="UTF-8" standalone="no"?>
<svg
   xmlns:dc="http://purl.org/dc/elements/1.1/"
   xmlns:cc="http://creativecommons.org/ns#"
   xmlns:rdf="http://www.w3.org/1999/02/22-rdf-syntax-ns#"
   xmlns:svg="http://www.w3.org/2000/svg"
   xmlns="http://www.w3.org/2000/svg"
   xmlns:sodipodi="http://sodipodi.sourceforge.net/DTD/sodipodi-0.dtd"
   xmlns:inkscape="http://www.inkscape.org/namespaces/inkscape"
   width="1200"
   height="600"
   viewBox="0 0 317.5 158.75"
   version="1.1"
   id="svg8"
   sodipodi:docname="py-global-state.svg"
   inkscape:version="1.0 (4035a4fb49, 2020-05-01)">
  <sodipodi:namedview
     inkscape:snap-global="false"
     inkscape:document-rotation="0"
     pagecolor="#ffffff"
     bordercolor="#666666"
     borderopacity="1"
     objecttolerance="10"
     gridtolerance="10"
     guidetolerance="10"
     inkscape:pageopacity="0"
     inkscape:pageshadow="2"
     inkscape:window-width="1920"
     inkscape:window-height="1061"
     id="namedview90"
     showgrid="false"
     inkscape:zoom="1.41"
     inkscape:cx="712.18157"
     inkscape:cy="296.25475"
     inkscape:window-x="0"
     inkscape:window-y="19"
     inkscape:window-maximized="0"
     inkscape:current-layer="svg8" />
  <defs
     id="defs90" />
  <metadata
     id="metadata5">
    <rdf:RDF>
      <cc:Work
         rdf:about="">
        <dc:format>image/svg+xml</dc:format>
        <dc:type
           rdf:resource="http://purl.org/dc/dcmitype/StillImage" />
        <dc:title />
      </cc:Work>
    </rdf:RDF>
  </metadata>
  <path
     d="m 238.23365,84.623111 c -1.06734,0.7995 -1.84098,1.92351 -2.42274,3.1106 -0.99588,2.0321 -1.53212,4.26668 -2.67499,6.23115 -0.13956,0.23989 -0.29131,0.47008 -0.4117,0.72191 -1.29883,2.717 -2.49357,5.514089 -3.12537,8.470349 -0.13216,0.61839 -0.18372,1.25168 -0.31757,1.86973 -1.28471,5.93218 -0.90312,12.0399 -0.59726,18.09615 0.13261,2.62574 0.48312,5.24806 0.32655,7.88316 -0.0313,0.52695 -0.12181,1.04778 -0.17326,1.57257 -0.13216,1.34814 0.17959,2.70039 0.68183,3.94615 0.57922,1.43671 1.2401,2.85535 2.13293,4.11613 2.10219,2.96855 4.99175,5.40992 8.33479,6.84252 0.33715,0.14448 0.6668,0.31751 1.02141,0.41164 2.25136,0.59764 4.60234,0.66185 6.91783,0.57034 1.15995,-0.0458 2.31508,-0.21332 3.47564,-0.21285 1.8935,7.7e-4 3.76091,0.48744 5.65867,0.36066 1.03807,-0.0693 2.06266,-0.39259 2.93009,-0.97679 1.74135,-1.17276 3.64546,-2.11699 5.2334,-3.50788 0.9471,-0.82957 1.83324,-1.83585 2.15556,-3.06583 0.0679,-0.25911 0.22857,-0.52995 0.17362,-0.7931 -0.44632,-2.13751 -0.53017,-4.38209 -0.002,-6.51303 0.28178,-1.13666 1.01056,-2.09982 1.39457,-3.20739 0.78798,-2.27271 1.18944,-4.67536 2.19485,-6.87266 0.51666,-1.12915 1.3068,-2.09806 2.13538,-3.02977 1.85194,-2.08244 3.11635,-4.6391 3.86061,-7.31343 0.90376,-3.24746 2.27791,-6.94866 0.89137,-10.00918 -0.21398,-0.47232 -0.54887,-0.94761 -1.06322,-1.11497 -0.5191,-0.16891 -1.07669,-0.002 -1.54597,0.23198 -0.90072,0.44954 -1.66688,1.11465 -2.45175,1.73498 -0.55031,0.43494 -1.16677,0.77816 -1.71974,1.21649 -2.43162,1.9275 -5.43755,3.06502 -8.5083,3.42306 -1.47576,0.17207 -2.96643,-0.13697 -4.44681,-0.0111 -1.54469,0.13129 -3.10138,-0.19149 -4.52332,-0.79065 -1.94008,-0.81748 -3.62327,-2.10785 -5.32559,-3.32516 -0.65518,-0.46851 -1.27235,-0.99057 -1.8282,-1.57458 -1.47406,-1.54873 -2.53356,-3.427899 -3.51324,-5.312789 -0.52366,-1.00751 -1.19008,-1.95295 -1.56964,-3.02324 -0.77987,-2.19907 -1.04654,-4.52876 -1.4399,-6.81624 -0.1653,-0.96125 -0.46214,-1.8958 -0.62781,-2.857 -0.0578,-0.33512 -0.27794,-0.69642 -0.63356,-0.76048 -0.23571,-0.0425 -0.45503,0.10268 -0.59725,0.2786 z"
     id="path1825"
     style="fill:#ffeeaa;fill-opacity:1;stroke:#ffeeaa;stroke-width:0.264583px;stroke-linecap:butt;stroke-linejoin:miter;stroke-opacity:1" />
  <path
     d="m 280.29649,81.287621 c -0.1245,0.15356 -0.20529,0.3366 -0.27199,0.52119 -0.0701,0.194 -0.0251,0.45281 -0.17656,0.59248 -0.0341,0.0315 -0.0747,0.0638 -0.0964,0.109 -0.0439,0.0914 -0.0363,0.19627 -0.0284,0.2944 0.0105,0.1305 0.0326,0.26501 -0.004,0.39366 -0.0228,0.081 -0.12552,0.11441 -0.14954,0.19467 -0.0566,0.18914 -0.0483,0.38955 -0.0304,0.58389 0.0204,0.22117 0.0561,0.4445 0.0251,0.66643 -0.009,0.0676 -0.003,0.14809 -0.0489,0.19862 -0.0924,0.1015 -0.14765,0.23312 -0.16537,0.36871 -0.0282,0.21607 0.0167,0.43195 0.0299,0.64735 0.005,0.0825 0.006,0.16551 -0.008,0.24749 -0.045,0.25468 -0.18974,0.47926 -0.23081,0.73501 -0.0183,0.11415 0.008,0.22847 0.0194,0.34346 0.017,0.16467 -0.0156,0.33109 0.009,0.49513 0.01,0.0638 0.034,0.13465 0.0947,0.16647 0.066,0.0347 0.14932,0.0354 0.21362,0.004 0.0488,-0.0235 0.1002,-0.003 0.15082,0.003 0.26348,0.0321 0.53439,-0.005 0.78027,-0.1053 0.095,-0.0387 0.29831,-0.0411 0.27336,-0.14057 -0.0129,-0.0515 0.01,-0.10639 0.0523,-0.1378 0.0727,-0.054 0.16321,-0.0723 0.24654,-0.10359 0.0507,-0.019 0.0855,-0.0894 0.14152,-0.082 0.0618,0.008 0.12341,-0.0121 0.17911,-0.0366 0.0609,-0.0268 0.11489,-0.0661 0.16835,-0.10682 0.0246,-0.0187 0.0252,-0.0579 -0.01,-0.0677 -0.0406,-0.0113 -0.15065,0.0276 -0.125,-0.005 0.0904,-0.11569 0.22207,-0.18645 0.34168,-0.26713 0.10142,-0.0684 0.20089,-0.15118 0.2503,-0.2665 0.0279,-0.0651 0.027,-0.13716 0.0348,-0.2072 0.009,-0.0792 0.0635,-0.14454 0.1277,-0.18817 0.12231,-0.0831 0.27204,-0.11388 0.39315,-0.19894 0.0513,-0.036 0.0907,-0.0926 0.0939,-0.1569 0.003,-0.0579 -0.0647,-0.11426 -0.0403,-0.16589 0.0436,-0.0923 0.13466,-0.14823 0.2226,-0.19282 0.10253,-0.052 0.21496,-0.0889 0.30403,-0.16411 0.0538,-0.0454 0.077,-0.11453 0.0872,-0.18452 0.005,-0.0362 -0.0127,-0.0685 0.0138,-0.10328 0.12171,-0.16043 0.18051,-0.35584 0.27487,-0.53156 0.0549,-0.1022 0.12065,-0.22944 0.23704,-0.2508 0.0283,-0.005 -0.004,-0.0321 0.01,-0.0541 0.0222,-0.0364 0.0649,-0.0512 0.10093,-0.0698 0.0517,-0.0266 0.0949,-0.0687 0.11761,-0.12638 0.0117,-0.0298 -0.0174,-0.0726 0.002,-0.092 0.14569,-0.14723 0.31868,-0.26968 0.43665,-0.44277 0.0742,-0.10881 0.11456,-0.24143 0.10563,-0.37321 -0.002,-0.0332 -0.004,-0.0609 0.0141,-0.0934 0.1122,-0.19709 0.19709,-0.41278 0.34733,-0.58575 0.065,-0.0749 0.19289,-0.0929 0.23135,-0.18456 0.10256,-0.24437 0.0999,-0.51679 0.18934,-0.76497 0.0285,-0.0791 0.11836,-0.13562 0.12169,-0.21991 0.0208,-0.52624 0.50004,-1.7275 -0.005,-1.57888 -0.0503,0.0148 -0.10451,-0.002 -0.1439,-0.0362 -0.0603,-0.0524 -0.0936,-0.13213 -0.16384,-0.17354 -0.0499,-0.0294 -0.10454,0.005 -0.15749,0.0163 -0.0159,0.003 -0.0312,0.0378 -0.0447,0.0115 -0.0559,-0.10902 -0.15966,-0.18095 -0.25899,-0.24698 -0.11767,-0.0782 -0.24128,-0.15808 -0.31846,-0.28013 -0.0452,-0.0715 0.004,-0.26154 -0.0768,-0.23878 -0.0494,0.0138 -0.0984,-0.0126 -0.13155,-0.0493 -0.0458,-0.0507 -0.0727,-0.12022 -0.13322,-0.15615 -0.0476,-0.0282 -0.10921,-0.0146 -0.14942,0.0171 -0.0285,0.0225 -0.0658,-7.1e-4 -0.0989,-0.005 -0.14259,-0.0178 -0.29384,8.6e-4 -0.42006,0.0728 -0.0806,0.0459 -0.14522,0.12497 -0.15923,0.21872 -0.0114,0.076 0.11514,0.21957 0.0394,0.22222 -0.0654,0.002 -0.12244,0.0415 -0.16333,0.0915 -0.0339,0.0414 -0.0506,0.0968 -0.0929,0.13046 -0.0289,0.023 -0.0686,0.006 -0.098,0.0349 -0.0528,0.0521 -0.0537,0.13474 -0.1018,0.18977 -0.0294,0.0336 -0.0785,0.0202 -0.11443,0.004 -0.01,-0.004 -0.0238,-0.0186 -0.0125,6.6e-4 0.021,0.0357 0.033,0.0868 1.6e-4,0.11937 -0.0558,0.0553 -0.1442,0.0582 -0.19982,0.11368 -0.0327,0.0327 -0.026,0.0873 1.6e-4,0.11938 0.0163,0.02 -0.0112,0.005 -0.0212,0.003 -0.0527,-0.0128 -0.10322,0.0177 -0.13789,0.056 -0.0502,0.0554 -0.0777,0.12855 -0.13266,0.17978 -0.0188,0.0175 -0.0668,-0.006 -0.0715,0.0205 -0.0223,0.12515 -0.10196,0.2296 -0.18261,0.32398 -0.084,0.0982 -0.18276,0.18508 -0.25152,0.29529 -0.0164,0.0264 -0.011,0.0957 -0.0399,0.084 -0.10524,-0.0424 -0.22673,-0.0534 -0.33414,-0.0112 -0.11565,0.0454 -0.15469,0.19346 -0.26375,0.24798 -0.20551,0.10274 -0.41104,0.20554 -0.61653,0.30823 z"
     id="path1829"
     style="fill:#fec39c;fill-opacity:1;stroke:#fec39c;stroke-width:0.264583px;stroke-linecap:butt;stroke-linejoin:miter;stroke-opacity:1" />
  <path
     d="m 239.16909,24.380561 c 6.37821,-3.722648 13.97162,-3.823173 21.09564,-4.779126 7.87339,-0.67894 15.9251,0.420184 23.20559,3.545545 2.80028,1.083349 6.19248,1.773502 7.97842,4.410984 1.13676,2.847718 -2.15784,5.043251 -2.48234,7.805191 -1.09227,3.613804 -1.83351,7.338918 -2.52659,11.040637 -0.48254,5.164001 0.81675,10.295321 0.48054,15.46056 -1.83973,3.866369 -6.56776,4.712763 -10.42357,4.932854 -9.07939,-0.115282 -18.09062,-1.536704 -26.9971,-3.200282 -3.58603,-0.732378 -7.17623,-1.570611 -10.56088,-2.991791 -1.37125,-2.278033 1.28391,-4.045375 2.23558,-5.867405 1.13053,-1.972008 -0.11265,-4.19909 0.45945,-6.335766 0.40181,-6.540438 0.80662,-13.389341 -1.74971,-19.582488 -0.41429,-1.442762 -0.7209,-2.931661 -0.71503,-4.438913 z"
     style="fill:#ffeeaa;stroke:#ffeeaa;stroke-width:0.264583px;stroke-linecap:butt;stroke-linejoin:miter;stroke-opacity:1"
     id="path1652" />
  <path
     d="m 240.6658,61.237021 c -0.97065,0.81686 -1.6538,1.92416 -2.1204,3.0936 -0.92573,2.32015 -1.31955,4.78984 -2.04078,7.17933 -0.0845,0.27989 -0.27089,0.52953 -0.30362,0.82106 -0.16488,1.46856 0.11998,2.94176 0.50988,4.35333 0.50091,1.81347 1.18336,3.59452 1.36885,5.4795 0.0743,0.75544 0.0139,1.51485 -0.063,2.27083 -0.25034,2.46035 0.0951,4.95591 0.8404,7.30649 0.94717,2.98715 2.4835,5.74433 4.14339,8.387549 0.89681,1.42809 1.92766,2.77193 2.77393,4.23006 1.04874,1.80699 2.29082,3.52437 3.83878,4.93703 1.18599,1.08233 2.58335,1.98539 4.15638,2.37718 1.16005,0.28893 2.34492,-0.0518 3.53878,-0.0969 1.58195,-0.0597 3.12617,-0.54278 4.52006,-1.28101 1.92346,-1.0187 3.57966,-2.44988 5.24977,-3.82723 0.80774,-0.66615 1.67821,-1.25339 2.47877,-1.92893 2.08462,-1.75908 4.51895,-3.06378 6.51768,-4.930449 1.08247,-1.01095 1.98979,-2.22913 2.53299,-3.61722 0.14575,-0.37245 0.22928,-0.76509 0.35028,-1.14549 1.39118,-4.37347 2.6321,-8.81985 3.20823,-13.38302 0.1589,-1.25855 0.0611,-2.54836 0.31391,-3.79155 0.40242,-1.97888 0.6673,-4.0095 0.4907,-6.02994 -0.13172,-1.50696 -0.54371,-3.02131 -1.40401,-4.28254 -0.48217,-0.70688 -1.04611,-1.41432 -1.81171,-1.79554 -2.43433,-1.21213 -5.09885,-1.87503 -7.7711,-2.31196 -3.38148,-0.5529 -6.82097,-0.7075 -10.18336,-1.37408 -3.22591,-0.63952 -6.37148,-1.68607 -9.65004,-2.0523 -1.97593,-0.22072 -3.98381,-0.0677 -5.92306,0.41316 -0.29032,0.072 -0.56385,0.20111 -0.8567,0.26201 -1.55463,0.32332 -3.1219,0.59909 -4.70497,0.73699 z"
     id="path1709"
     style="fill:#fec39c;fill-opacity:1;stroke:#fec39c;stroke-width:0.264583px;stroke-linecap:butt;stroke-linejoin:miter;stroke-opacity:1" />
  <path
     d="m 278.64481,65.727151 c -0.89946,-0.730494 -1.27662,0.559862 -0.91358,1.043052 -1.23498,2.048427 -0.43357,4.722244 1.23214,6.274751 1.16644,1.087672 0.36811,2.741616 1.14743,3.960648 0.85496,1.535039 2.73794,1.499507 4.23666,1.813392 1.57516,0.424792 2.13151,2.555619 1.05199,3.754318 -0.93088,1.146528 -2.38387,2.115824 -3.37742,2.943543 1.60852,-0.09568 2.74635,-1.436524 4.12678,-2.047809 -1.51872,0.953893 -1.69501,4.147392 0.67289,3.681895 1.03763,-0.280822 2.2174,-2.738234 2.01221,-2.738852 -0.67583,1.927181 1.16283,3.717911 2.96075,3.993129 -0.4235,-1.409358 -1.51861,-3.519674 -0.37643,-5.097724 1.55858,-2.32e-4 3.24795,0.781164 4.72782,-0.164839 1.53254,-0.653594 1.36456,-2.857786 -0.27894,-3.219595 -1.40434,-0.774686 -2.5619,-1.954353 -4.05235,-2.589566 -1.08463,-1.573568 1.1168,-2.565805 2.02628,-3.471693 0.68096,-1.565387 -1.89042,-1.847867 -2.9534,-2.101291 -1.48859,0.782912 -3.55372,-0.81099 -1.74034,-2.023189 0.65219,-0.76368 2.89008,-1.446358 0.97742,-2.021572 -1.43173,-0.625169 -3.0358,-0.746577 -4.49735,-0.131679 -1.92193,0.721212 -2.95079,-1.466324 -4.57954,-1.97451 -0.92555,-0.704841 -1.54407,0.02401 -2.40302,0.117591 z"
     style="fill:#fff6d5;fill-opacity:1;stroke:#fff6d5;stroke-width:0.264583px;stroke-linecap:butt;stroke-linejoin:miter;stroke-opacity:1"
     id="path1763" />
  <path
     d="m 242.19182,43.050177 c 7.60571,-2.83745 15.90375,-1.796553 23.72008,-0.5518 5.17535,1.660409 10.90488,1.176324 15.82965,3.685427 2.25859,0.314996 4.85787,1.91543 4.73151,4.480088 -0.81214,3.085218 -0.3236,6.291336 0.21307,9.37963 0.3842,2.790467 -2.15167,5.775843 -5.06691,5.188514 -4.80264,-0.07102 -9.62732,-0.282094 -14.41529,-0.785571 -4.83206,-0.525615 -9.71733,-0.748464 -14.44228,-1.980959 -4.17837,-0.975034 -8.40115,-1.965958 -12.71408,-1.979976 -2.78154,-0.07488 -1.98203,-3.634587 0.2926,-3.864687 3.10291,-3.389996 3.02631,-8.305967 2.81192,-12.608853 -0.17863,-0.435443 -0.57293,-0.725056 -0.96027,-0.961813 z"
     style="fill:#0044aa;fill-opacity:1;stroke:#0044aa;stroke-width:0.264583px;stroke-linecap:butt;stroke-linejoin:miter;stroke-opacity:1"
     id="path1670" />
  <path
     d="m 265.36151,43.276511 c -2.83089,0.268279 -3.78808,3.387005 -5.40018,5.256513 -1.51316,1.728816 -3.62914,0.248844 -5.40157,-0.0057 -3.02825,-0.290755 -0.62393,3.604496 0.46126,4.639706 2.29936,1.767541 0.38805,4.23764 -1.39603,5.461964 -1.83634,0.729607 -2.08835,4.77453 0.24291,2.391944 1.87253,-1.427733 4.28708,-1.664212 6.48008,-2.309567 3.19033,-0.916074 4.62203,2.451396 5.64497,4.779795 0.74548,2.215883 3.75025,1.951924 3.19649,-0.603229 0.52646,-1.991776 -0.72463,-3.833481 -0.45361,-5.748517 1.54231,-2.264917 4.68342,-2.083981 6.71195,-3.677665 -0.0337,-2.316017 -3.20504,-1.735342 -4.58895,-2.873741 -2.07078,-0.682492 -3.92513,-2.47508 -3.77935,-4.794636 0.001,-1.038669 -0.2955,-2.74249 -1.71797,-2.516913 z"
     style="fill:#ffeeaa;fill-opacity:1;stroke:#ffeeaa;stroke-width:0.264583px;stroke-linecap:butt;stroke-linejoin:miter;stroke-opacity:1"
     id="path1685" />
  <path
     d="m 285.56707,48.702081 c -1.11494,1.366441 -2.44495,2.585541 -3.19641,4.215977 -0.59614,1.203393 -2.1238,0.811791 -3.19227,0.745599 -0.76786,-0.297657 -1.49758,0.183959 -0.54273,0.758541 1.17997,1.546723 2.25017,3.273218 2.61387,5.213053 -0.70623,1.393824 -2.01254,2.390241 -2.56642,3.879074 -0.26018,0.432507 -1.28343,1.371271 -0.28324,0.617545 0.93149,-0.757952 2.26022,-0.771278 3.20782,-1.520619 1.14792,-0.434179 2.45316,-0.797089 3.10438,-1.945204 0.44695,-1.724404 0.14156,-3.552661 0.63909,-5.275236 0.46553,-1.788055 0.8976,-3.600904 0.99193,-5.451894 0.50672,-0.501479 -0.31268,-1.584818 -0.51028,-1.232633 0.34768,0.03727 0.6958,-0.04226 1.0437,-0.0045"
     style="fill:#ffeeaa;fill-opacity:1;stroke:#ffeeaa;stroke-width:0.264583px;stroke-linecap:butt;stroke-linejoin:miter;stroke-opacity:1"
     id="path1693" />
  <path
     d="m 242.16251,44.211961 c 0.43459,0.677654 -0.14955,1.582686 0.22506,2.350949 0.005,0.949019 0.23015,2.884535 1.48809,1.60949 1.0508,-0.781472 2.43815,-0.668457 3.65761,-0.495751 0.84294,0.71786 -1.01523,1.454844 -1.3966,2.067331 -0.52894,0.750778 -0.93089,1.557667 -1.43161,2.327164 -0.91922,1.457108 -1.52155,3.144302 -1.42544,4.889116 -0.0681,0.72362 0.51237,2.428791 -0.5217,1.161074 -0.74857,-0.7019 -1.20614,-1.61164 -1.93852,-2.342907 -0.27739,-0.875308 -1.55031,-1.503983 -0.52119,-2.403817 0.7185,-1.320008 0.5352,-2.849384 0.8857,-4.267126 0.28322,-1.217548 0.77252,-2.381367 0.62037,-3.658622 -0.008,-0.455003 0.34325,-0.79323 0.35823,-1.236901 z"
     style="fill:#ffeeaa;fill-opacity:1;stroke:#ffeeaa;stroke-width:0.264583px;stroke-linecap:butt;stroke-linejoin:miter;stroke-opacity:1"
     id="path1697" />
  <path
     d="m 264.98733,76.017031 c 0.63227,1.24349 2.13758,1.434031 3.23966,2.068953 1.0768,0.404298 2.24244,0.426663 3.34001,0.759147 1.44903,0.116482 2.95015,-0.701473 3.66868,-1.952833 0.44205,-1.314749 -0.80099,-2.511785 -2.02793,-2.706622 -1.77349,-0.51496 -3.67055,-0.900624 -5.48817,-0.35584 -1.16146,0.217805 -2.08419,0.940591 -2.58394,2.010518 z"
     style="fill:#f2f2f2;fill-opacity:1;stroke:#f2f2f2;stroke-width:0.264583px;stroke-linecap:butt;stroke-linejoin:miter;stroke-opacity:1"
     id="path1732" />
  <path
     style="fill:#000000;fill-opacity:1;stroke:#000000;stroke-width:0.529167;stroke-linecap:round;stroke-miterlimit:4;stroke-dasharray:none;stroke-opacity:1"
     id="path1742"
     d="m 268.16438,74.739601 a 1.3984642,1.3984642 0 0 1 1.97577,-0.0364 1.3984642,1.3984642 0 0 1 0.0396,1.97571 1.3984642,1.3984642 0 0 1 -1.97564,0.0428 1.3984642,1.3984642 0 0 1 -0.0461,-1.97557 l 1.01244,0.96471 z" />
  <path
     d="m 262.36809,73.959061 c -0.31918,1.573358 1.38347,2.536477 2.74723,2.11136 0.94374,-0.243519 1.80498,-0.726814 2.70794,-1.089357 0.84328,-0.677906 1.93994,-0.839509 2.91401,-1.220372 0.85871,-0.755264 1.81461,0.233657 2.68674,0.501184 0.7913,0.603534 1.60019,1.192584 2.36771,1.831595 0.88574,-0.230554 -0.91749,-2.349776 0.46307,-1.706032 0.60698,0.648911 1.68303,0.599776 2.46013,0.984865 0.35422,0.286007 1.16242,0.815641 0.60907,0.03089 -0.48753,-0.532945 -1.14895,-1.811365 -1.1827,-2.178647 0.76156,0.04228 1.90602,0.437291 2.45288,0.219506 -1.08893,-1.353027 -2.91354,-1.622547 -4.42008,-2.286336 -1.1714,-0.70442 -2.54075,-0.832428 -3.88045,-0.752628 -1.24499,-0.09651 -2.52163,0.03357 -3.64247,0.62103 -0.84444,0.233831 -1.56033,0.767482 -2.40516,0.975108 -0.78707,0.553416 -1.73759,1.108188 -2.65147,1.640914 -0.39301,0.245167 -1.67156,0.42221 -0.66667,-0.02169 0.18877,-0.07134 0.38813,-0.120064 0.56332,-0.223525"
     style="fill:#fff6d5;fill-opacity:1;stroke:#fff6d5;stroke-width:0.264583px;stroke-linecap:butt;stroke-linejoin:miter;stroke-opacity:1"
     id="path1713" />
  <path
     d="m 254.51037,75.081581 c -0.0935,0.784074 -1.32924,0.298097 -1.79577,0.730723 -1.11105,0.255106 -2.23639,0.222239 -3.36647,0.188923 -1.39478,0.03499 -2.93821,0.14892 -4.10975,-0.748299 -0.69472,-0.767547 0.14285,-2.019589 1.01393,-2.223155 0.99863,-0.291797 2.07264,-0.590955 3.08674,-0.185795 1.15446,-0.04246 2.3965,-0.09512 3.36184,0.657246 0.56665,0.559706 1.61143,0.746704 1.80948,1.580357 z"
     style="fill:#f2f2f2;stroke:#f2f2f2;stroke-width:0.264583px;stroke-linecap:butt;stroke-linejoin:miter;stroke-opacity:1"
     id="path1736" />
  <path
     d="m 248.91588,73.152091 a 1.3984642,1.3984642 0 0 1 1.97577,-0.0364 1.3984642,1.3984642 0 0 1 0.0396,1.97571 1.3984642,1.3984642 0 0 1 -1.97564,0.0428 1.3984642,1.3984642 0 0 1 -0.0461,-1.97557 l 1.01244,0.96471 z"
     id="path1740"
     style="fill:#000000;fill-opacity:1;stroke:#000000;stroke-width:0.529167;stroke-linecap:round;stroke-miterlimit:4;stroke-dasharray:none;stroke-opacity:1" />
  <path
     d="m 255.44581,74.333231 c 0.75734,-0.04709 2.04847,0.276855 2.25309,-0.753515 -0.0198,-0.937321 -0.70576,-1.627103 -1.27569,-2.244119 -0.41,-0.675493 -1.05986,-1.015969 -1.78477,-1.383463 -1.24879,-0.640926 -2.66127,-0.800083 -3.98958,-1.208074 -0.8864,0.08223 -1.75258,-0.136283 -2.62435,-0.226481 -1.19254,-0.04129 -2.02809,0.922631 -2.99309,1.464438 -0.86465,0.553769 -1.65527,1.173052 -2.45651,1.815441 -0.28381,0.30686 -1.3022,0.93223 -0.95399,1.2015 0.97919,-0.148932 1.72503,-1.177129 2.77279,-1.097407 -0.82455,0.23037 -1.26895,1.058049 -1.5946,1.774409 -0.55681,0.290289 -0.77432,1.467643 0.0774,0.877368 0.72189,-0.508343 1.44845,-1.034036 2.14575,-1.55906 1.16593,-0.581284 -0.99269,0.446339 -0.0364,0.627978 1.22263,0.0412 2.21251,-0.861861 3.42244,-0.933556 1.55721,-0.27245 3.08842,0.19072 4.58473,0.558898 0.74436,0.225793 1.78224,-0.130853 2.19984,0.7123 0.10248,0.110813 0.18699,0.237736 0.25295,0.373343 z"
     style="fill:#fff6d5;fill-opacity:1;stroke:#fff6d5;stroke-width:0.264583px;stroke-linecap:butt;stroke-linejoin:miter;stroke-opacity:1"
     id="path1721" />
  <path
     d="m 257.31669,75.642851 c -0.9856,2.880916 -1.78972,5.822674 -2.52616,8.773467 -0.57666,1.329607 -1.51062,2.477505 -2.47354,3.540332 -0.80007,0.650113 0.39783,1.210574 0.82591,1.631542 0.41722,0.655533 0.95777,1.240478 1.25225,1.987389 0.38722,0.852258 0.51169,1.84414 1.06808,2.605808 0.62838,0.655921 1.61349,0.293667 2.15939,-0.281477 0.53515,-0.548064 1.31277,-0.773805 1.85347,-1.335203 0.8356,-0.786382 1.82125,-1.384198 2.89572,-1.782318 0.86984,-0.186116 1.18959,-1.239153 0.34235,-1.713385 -0.72875,-0.734619 -1.27154,-1.782935 -1.06878,-2.841043 -0.18563,-1.7965 -0.35404,-3.599749 -0.42092,-5.403526 0.0948,-1.118657 0.69862,-2.179656 0.49044,-3.323694 -0.0204,-0.891476 0.775,-1.783882 0.2446,-2.645933 -0.59443,-0.617024 -1.61405,-0.586167 -2.39777,-0.394694 -0.7663,0.169783 -1.3861,0.660206 -2.01422,1.093291 -0.0769,0.02981 -0.15388,0.05964 -0.23082,0.08944 z"
     style="fill:#ffb380;fill-opacity:1;stroke:#ffb380;stroke-width:0.264583px;stroke-linecap:butt;stroke-linejoin:miter;stroke-opacity:1"
     id="path1744" />
  <path
     d="m 247.80923,96.850021 c 1.63549,0.02436 3.27083,-0.037 4.90384,-0.122116 0.89556,-0.47115 1.78255,0.251419 2.40931,0.835724 0.72729,0.678132 1.70179,0.242839 2.45325,-0.134124 0.94911,-0.516371 1.93671,0.103259 2.91042,0.173799 0.99157,0.17518 2.01001,0.147305 3.00348,0.215543 0.64979,0.230579 2.09223,0.236248 1.87491,1.214855 -0.57551,0.603871 -1.48476,0.734736 -2.17526,1.193178 -1.86258,1.13069 -4.00249,1.91131 -6.20948,1.79864 -2.02243,-0.0483 -3.78094,-1.17051 -5.48546,-2.135896 -1.23984,-0.758548 -2.3762,-1.703731 -3.26308,-2.854308 -0.11959,-0.09913 -0.26617,-0.169269 -0.42193,-0.185295 z"
     style="fill:#de8787;stroke:#de8787;stroke-width:0.264583px;stroke-linecap:butt;stroke-linejoin:miter;stroke-opacity:1"
     id="path1751" />
  <path
     d="m 241.78834,73.397781 c 0.0654,1.660217 -0.62139,3.248697 -1.16208,4.781191 -0.78619,0.993159 -1.5474,2.140558 -2.72908,2.68901 -2.27719,0.869575 -4.85541,0.746453 -7.15583,0.0255 -1.87302,-1.298536 -3.69738,-3.136273 -4.00631,-5.491012 -0.31275,-1.198453 1.08284,-2.017608 1.51573,-0.61323 0.77736,0.973832 1.60216,2.97981 3.11055,2.325077 -1.26038,-1.060494 -1.44988,-3.017596 -1.69583,-4.559478 0.59297,-0.465288 2.24236,0.798497 2.8058,-0.614387 0.85533,-0.8666 2.52081,-2.276576 2.96683,-2.788469 -1.4033,0.581814 -2.5913,1.696429 -4.11298,1.954469 -1.51992,0.157745 -2.70832,-1.035911 -3.36615,-2.272839 -1.16374,-1.259023 -1.84647,-2.828327 -1.94403,-4.533372 -0.43357,-1.353273 0.006,-2.760928 0.68712,-3.912313 0.74616,-0.983757 2.08793,-0.989684 1.55577,0.519605 -0.23542,1.224075 -0.16998,3.312933 1.53243,3.274246 1.46062,-0.01174 2.00124,-1.621396 3.03015,-2.387108 0.44409,-0.791341 1.14247,-0.19299 0.31882,0.164409 -0.80576,-0.371565 -1.81838,-1.287353 -1.92109,-2.251328 0.95053,1.15405 2.43602,1.50445 3.77003,1.785275 0.81323,0.08954 2.25078,-1.344108 1.53189,0.225101 -0.41029,2.046101 2.23424,2.100305 3.61342,1.887783 1.34149,-0.655075 3.45344,-0.631657 2.72835,1.420164 -0.48911,2.41349 0.37651,4.954629 -0.58729,7.299451 -0.15659,0.349269 -0.2081,0.795662 -0.48622,1.072255 z"
     style="fill:#fff6d5;fill-opacity:1;stroke:#fff6d5;stroke-width:0.264583px;stroke-linecap:butt;stroke-linejoin:miter;stroke-opacity:1"
     id="path1759" />
  <path
     d="m 229.44048,52.443851 c -5.44353,-0.553021 -6.75561,8.232585 -1.06682,9.005688 5.25925,3.564395 11.6306,1.947645 17.42902,3.301376 7.46789,1.890888 15.01188,2.735788 22.50108,4.494548 6.93989,0.524796 14.38136,-2.684832 20.56086,2.206812 4.70895,4.744305 11.72272,1.271957 13.40317,-4.455036 2.49301,-6.364503 -6.83279,-8.935635 -11.34683,-6.581089 -10.88163,3.795996 -22.85961,4.552122 -33.93947,1.103014 -6.93305,-2.265476 -14.18471,-3.497251 -21.01507,-6.032822 -2.20834,-0.942333 -4.34173,-2.04741 -6.52594,-3.042491 z"
     style="fill:#ffeeaa;fill-opacity:1;stroke:#ffeeaa;stroke-width:0.264583px;stroke-linecap:butt;stroke-linejoin:miter;stroke-opacity:1"
     id="path1678" />
  <path
     d="m 218.02807,94.164631 c 4.81909,1.987837 9.1113,-1.593634 12.99385,-3.677933 5.36278,0.500165 4.55975,7.565316 1.44743,10.369972 -1.71805,5.25838 -1.3187,10.90214 -0.14276,16.22974 0.95255,4.17163 -1.86614,7.59099 -2.61845,11.48639 -1.38738,5.31612 -0.76156,10.83706 0.0555,16.16488 0.081,3.6887 1.64588,9.56711 -3.01906,11.03927 -3.85977,0.33294 -7.62802,1.89758 -11.51854,1.43897 -4.59908,-0.5983 -8.5427,-4.1191 -13.2287,-3.87549 -3.03102,-2.30061 -5.85939,-5.29742 -8.4306,-8.16108 -1.06625,-3.79032 -3.95152,-6.38777 -6.16604,-9.47717 -3.33535,-4.01281 -5.28406,-9.10104 -4.85182,-14.37421 -1.123,-5.56684 4.48332,-8.28545 6.14377,-12.81234 1.15892,-4.71621 4.62979,-12.271162 10.58965,-10.275765 5.49088,1.57605 9.20662,-5.712486 15.22551,-4.658247 1.19482,-0.0056 2.39345,0.181824 3.52027,0.583013 z"
     style="fill:#0044aa;fill-opacity:1;stroke:#0044aa;stroke-width:0.264583px;stroke-linecap:butt;stroke-linejoin:miter;stroke-opacity:1"
     id="path1785" />
  <path
     d="m 234.67896,83.500581 c 0.41266,-0.58293 0.93658,-1.09702 1.56042,-1.44975 0.47144,-0.26656 1.02139,-0.43037 1.56663,-0.35842 0.38397,0.0507 0.80611,0.16919 1.03844,0.47675 0.42044,0.55657 0.66458,1.2278 0.799,1.90663 0.17003,0.85869 0.19074,1.75132 0.0284,2.61234 -0.0362,0.19182 -0.1452,0.37315 -0.14011,0.56831 0.0374,1.43316 -0.22509,2.85444 -0.57516,4.23848 -0.16574,0.65527 -0.59619,1.28214 -0.53624,1.95531 0.0815,0.9152 -0.0692,1.83879 -0.3601,2.70691 -0.36366,1.08515 -0.94215,2.07836 -1.46347,3.09226 -0.63276,1.230639 -0.97909,2.580349 -1.28676,3.921989 -0.3388,1.47741 -0.74472,2.93652 -1.24246,4.37579 -0.0638,0.18457 -0.11489,0.37397 -0.17294,0.56073 -0.47862,1.53992 -0.99437,3.08955 -1.8111,4.47971 -0.50551,0.86043 -1.20493,1.59811 -2.0077,2.18791 -0.60947,0.44778 -1.22114,0.97533 -1.95998,1.13237 -1.43093,0.30414 -2.90195,0.43096 -4.36314,0.35109 -0.66319,-0.0363 -1.32665,-0.10839 -1.97441,-0.2556 -0.75194,-0.17089 -1.48157,-0.5139 -2.02726,-1.06942 -0.43181,-0.43959 -0.70933,-1.02133 -0.7954,-1.63122 -0.0438,-0.31043 0.0412,-0.62742 -0.004,-0.93735 -0.0726,-0.50001 0.0355,-1.01153 0.24745,-1.46632 0.41086,-0.88154 1.12023,-1.58658 1.5042,-2.48342 0.19843,-0.46348 0.26729,-0.98316 0.17654,-1.48126 -0.0243,-0.13321 -0.0531,-0.25035 -0.0107,-0.39176 0.39769,-1.32479 0.5123,-2.70922 0.76082,-4.06473 0.12617,-0.68818 0.11684,-1.46774 0.53891,-2.02694 0.54515,-0.722269 0.96847,-1.524919 1.43161,-2.299759 0.5165,-0.86411 1.10319,-1.69554 1.84168,-2.3903 0.11163,-0.10502 0.24256,-0.18815 0.35071,-0.29624 1.06796,-1.06739 1.94187,-2.31933 2.62989,-3.66133 0.14717,-0.28706 0.23014,-0.61046 0.41797,-0.87272 0.58192,-0.81252 0.94746,-1.74979 1.35191,-2.65669 0.35838,-0.80359 0.74786,-1.6121 1.34092,-2.27244 0.34342,-0.38238 0.96298,-0.47904 1.22338,-0.92291 0.23337,-0.3978 0.53261,-0.76174 0.90688,-1.03541 0.31095,-0.22737 0.66065,-0.39492 1.015,-0.54259 z"
     id="path1789"
     style="fill:#003380;stroke:#003380;stroke-width:0.264583px;stroke-linecap:butt;stroke-linejoin:miter;stroke-opacity:1" />
  <path
     d="m 209.60908,109.88008 c 2.0723,1.88923 5.52948,2.42027 8.25081,3.61633 3.66162,1.58223 6.92576,-1.46478 10.22939,-2.57076 3.65495,-1.44426 7.26061,2.81969 6.38423,6.34434 -0.49414,3.43408 -0.66917,6.91158 -0.0218,10.33815 0.70498,5.37994 2.60363,10.67659 1.87373,16.16073 0.0279,2.73559 -3.08347,3.62368 -5.3015,3.74737 -3.07039,0.13253 -6.10091,1.06708 -9.16613,0.8631 -2.60408,-0.90588 -5.97432,-1.38543 -7.42887,-4.02804 -0.53775,-3.75835 -3.15433,-6.76851 -3.90531,-10.46029 -1.34312,-3.15571 -2.16701,-6.47121 -2.71008,-9.84407 -0.96779,-3.90404 -2.14866,-7.81121 -2.07651,-11.87414 0.0693,-1.43726 -1.81807,-6.05533 0.98518,-3.84184 0.76158,0.88215 1.89203,1.05417 2.8869,1.54912 z"
     style="fill:#003380;fill-opacity:1;stroke:#003380;stroke-width:0.264583px;stroke-linecap:butt;stroke-linejoin:miter;stroke-opacity:1"
     id="path1797" />
  <path
     d="m 272.65796,105.95121 c 3.06163,-3.86033 1.96969,-9.445218 4.68549,-13.330742 4.80965,-3.967759 6.40762,4.06165 10.79872,3.553146 4.05672,0.752106 8.58365,0.05327 12.27117,2.180418 1.61134,2.589398 3.27647,7.150168 6.48099,3.296668 4.22564,-0.17744 5.64852,5.56857 5.14663,8.95229 -1.00935,3.16193 -2.21244,5.42184 -0.24343,8.21887 -0.72147,2.86515 3.27185,5.51497 0.50132,8.77813 -2.09096,2.87272 -2.84218,8.05334 1.57756,9.10508 0.56797,3.78686 -0.2791,11.89209 -5.98971,11.19432 -6.27407,-0.93088 -12.8845,-2.49291 -19.03972,-0.0972 -4.94304,2.1774 -9.07317,-1.98815 -13.84368,-1.65915 -4.35847,0.462 -8.24461,2.67046 -12.56303,3.42011 -4.4143,2.10229 -11.05235,-0.11467 -9.51082,-5.93006 -0.39275,-4.18214 0.22423,-8.32865 2.1769,-12.06662 1.16373,-3.67753 5.7169,-6.1917 3.79981,-10.53598 -2.31457,-4.1021 -1.4251,-9.2511 3.27298,-11.12292 3.26504,-1.89526 6.81418,-3.10116 10.47882,-3.95635 z"
     style="fill:#0044aa;fill-opacity:1;stroke:#0044aa;stroke-width:0.264583px;stroke-linecap:butt;stroke-linejoin:miter;stroke-opacity:1"
     id="path1819" />
  <path
     d="m 232.4339,102.39653 c -3.38325,1.80043 0.018,5.6305 0.4628,8.1877 1.22497,3.49593 0.1159,7.01624 -0.79843,10.30163 2.45058,2.593 6.90072,-0.61854 9.85709,-1.47658 2.41802,-0.56629 4.6358,-3.1958 7.24622,-1.83962 2.54844,1.59862 5.57661,2.97451 8.40028,1.09164 3.75753,-1.30144 8.28216,-1.92467 11.65106,0.69345 3.40141,3.66557 3.66544,-2.9673 5.77032,-4.88457 1.73196,-2.99328 4.66253,-4.96364 7.84023,-6.17021 1.67163,-0.8858 5.77726,-4.34186 2.80773,-5.5193 -3.9196,-0.33824 -7.13563,2.74365 -11.03854,2.81523 -2.83257,0.36652 -5.67603,-0.3199 -8.21314,-1.52672 -2.83676,-0.90797 -4.49591,2.34665 -7.13798,2.2958 -5.02759,-0.36142 -8.15715,-5.18696 -12.95809,-6.25864 -2.77089,-0.986363 -6.01787,-1.435247 -8.43391,0.65021 -1.63897,1.23131 -3.48178,1.52529 -5.45564,1.63998 z"
     style="fill:#c52c1f;fill-opacity:1;stroke:#c52c1f;stroke-width:0.264583px;stroke-linecap:butt;stroke-linejoin:miter;stroke-opacity:1"
     id="path1838" />
  <path
     d="m 275.27719,95.100071 c 1.00011,-0.646367 4.38123,-3.660868 2.52543,-0.733406 -1.66919,2.15051 -2.36016,4.777198 -3.06656,7.349495 -0.54187,2.2655 -2.55965,3.05126 -4.32506,3.80525 -1.37519,1.53665 -3.71339,1.74513 -5.49313,2.70837 -2.56139,1.0205 -3.2959,3.89448 -4.95964,5.83146 -2.7679,2.26135 0.47488,5.41982 -1.68446,8.14221 -1.22013,2.35857 -3.11474,4.79958 -2.35978,7.63376 0.63622,3.20674 0.15626,6.81632 -2.0145,9.37157 -0.53799,1.36515 -3.80968,4.91598 -3.98589,1.75938 -0.001,-2.8109 -1.09942,2.52106 -1.5318,-0.0151 0.1689,-1.89512 -0.78352,-3.01116 -1.56053,-0.7652 -2.33265,1.03545 -0.56082,-2.82517 -0.37854,-4.01577 0.61213,-2.9644 1.99807,-5.65236 3.21248,-8.39198 0.68419,-1.3015 -0.6153,-2.64221 -0.60054,-0.54941 -0.35416,1.58863 -1.91339,5.82318 -3.72795,4.29824 1.00535,-2.41109 2.35174,-4.73492 2.43024,-7.46452 0.22691,-1.30456 -0.12569,-5.92627 -0.95555,-2.62655 0.0324,1.09961 -3.01833,3.33585 -1.70519,1.20091 2.0908,-2.49994 1.86196,-5.68906 1.15412,-8.52197 1.05761,-1.8867 2.41818,-3.81668 1.93105,-6.12927 -0.18518,-1.40334 -0.56326,-1.8205 -1.52082,-0.88099 -2.08181,-0.94067 -0.85793,-4.93536 -2.73683,-5.13889 -2.53446,0.69398 -4.63417,-3.32472 -2.97433,-5.261075 1.19541,-1.427743 -1.43194,-3.836642 -1.25817,-5.861862 -0.32331,-1.389732 -0.0369,-4.270599 0.91536,-4.542852 0.44402,1.124963 0.86678,5.14683 2.34158,3.711284 1.10403,-0.588521 1.14741,3.673071 2.53129,4.576303 1.05796,1.499765 3.53987,1.211043 2.61178,3.462743 0.33696,3.250279 4.21434,2.633729 5.15069,5.395129 2.09378,2.54987 3.87157,-1.26387 6.1074,-1.28697 2.15766,0.26628 4.18462,-0.17967 6.34291,-0.69988 1.1703,-1.21428 2.41538,-5.174386 3.36438,-4.677851 0.3355,2.906074 3.98287,1.383783 4.47199,-0.608005 0.52748,-0.440335 1.13067,-0.779276 1.74857,-1.074583 z"
     style="fill:#fff6d5;fill-opacity:1;stroke:#fff6d5;stroke-width:0.264583px;stroke-linecap:butt;stroke-linejoin:miter;stroke-opacity:1"
     id="path1767" />
  <path
     d="m 263.30354,108.38336 c 2.69011,-1.51615 6.16449,-4.3103 9.15995,-1.81032 3.80816,3.2276 5.10109,8.31862 6.27346,12.96094 1.50037,2.76989 1.88735,5.95342 3.74538,8.54071 2.02761,1.88229 4.01184,4.44277 3.29482,7.40653 -0.74983,4.58928 -2.08635,9.10893 -3.84899,13.40191 -1.02319,2.37634 -3.54818,6.72311 -6.45547,4.19717 -1.29568,-3.33994 -3.29987,-6.45742 -3.85311,-10.0529 -1.33454,-3.13703 -5.4502,-3.07479 -7.39521,-5.62816 -2.65269,-2.39107 -7.15773,-0.16941 -9.33262,-3.28192 -1.04249,-2.8296 -1.14189,-6.25495 -2.73342,-8.67695 -0.63105,-2.482 -2.61903,-4.43868 -1.66809,-7.1825 -1.78524,-2.55891 -1.63305,-5.46694 1.11059,-7.2831 1.8168,-2.4803 5.06473,-2.39043 7.40985,-0.7977 1.57686,0.67104 3.87035,0.0338 4.29286,-1.79371 z"
     style="fill:#fec39c;fill-opacity:1;stroke:#fec39c;stroke-width:0.264583px;stroke-linecap:butt;stroke-linejoin:miter;stroke-opacity:1"
     id="path1844" />
  <path
     d="m 274.52885,114.37021 c -1.29191,1.16586 -2.5942,2.53335 -4.41796,2.74429 -1.11771,0.56582 -2.88075,1.6405 -3.60976,-0.0478 -0.84293,-1.34862 0.48135,-2.64365 0.34038,-4.03559 0.26502,-1.47949 -1.15685,-1.75258 -1.53477,-0.32384 -0.55008,1.40864 -2.04714,2.29676 -3.55137,2.07981 -1.07182,0.006 -2.4296,-1.69348 -3.1976,-0.23041 -0.85686,1.53617 -2.62399,2.05877 -4.06077,2.8683 -1.07202,0.43219 -2.89924,1.86982 -3.63435,0.26312 -0.64926,-1.50243 0.89677,-2.3989 2.05101,-2.88774 1.74455,-0.98977 3.65392,-1.65374 5.40968,-2.60651 1.65428,-1.24258 4.06572,-0.5703 5.64586,-1.99699 1.43011,-1.25871 2.77928,-2.84807 4.81728,-3.01595 1.39955,-0.22271 2.58669,0.96747 3.98083,1.19951 1.10206,0.86323 1.02926,2.62111 1.58498,3.86261 0.19409,0.67601 0.77773,1.488 0.17656,2.12724 z"
     style="fill:#ffb380;fill-opacity:1;stroke:#ffb380;stroke-width:0.264583px;stroke-linecap:butt;stroke-linejoin:miter;stroke-opacity:1"
     id="path1850" />
  <path
     d="m 284.07038,125.03037 c 2.23514,4.41963 1.26292,9.56972 -0.34495,14.01822 -0.94324,3.02085 -2.18754,6.02512 -4.31359,8.40772 -1.94202,1.71717 1.51171,3.77045 1.04182,4.6357 -2.08647,-0.63508 -3.76623,-3.08702 -6.14961,-2.4212 -2.01941,-1.05894 -1.10579,-4.25621 -2.50808,-5.98237 -0.65989,-2.33726 -4.50974,-3.73566 -4.51878,-0.32785 0.48934,2.31459 -1.43671,4.79825 -0.18306,6.79844 3.1869,0.28071 4.68141,3.52805 7.19346,5.2014 1.33539,2.27643 3.68956,2.45181 5.91587,1.86393 2.44785,0.72836 5.03842,1.2358 7.40919,-0.0652 3.13004,-1.31532 6.27713,-3.5347 7.4904,-6.82098 0.70397,-3.61441 -0.72972,-7.17571 -1.26318,-10.72323 -0.3697,-2.10715 -1.22884,-4.08296 -1.42564,-6.21127 -0.58542,-2.98711 -3.29234,-4.57391 -5.32757,-6.509 -0.8787,-0.7959 -1.85725,-1.5397 -3.01628,-1.8643 z"
     style="fill:#ffeeaa;fill-opacity:1;stroke:#ffeeaa;stroke-width:0.264583px;stroke-linecap:butt;stroke-linejoin:miter;stroke-opacity:1"
     id="path1864" />
  <path
     d="m 290.90326,130.38706 c 1.00646,2.02197 2.08539,4.05241 2.34282,6.33534 0.26743,2.52882 0.3197,5.07563 0.62899,7.60138 0.36514,2.02723 -0.7685,3.81958 -1.02851,5.75509 0.75185,2.33335 3.90582,0.26367 5.6801,0.95283 2.3324,0.78914 4.94614,0.18775 7.18671,1.36327 2.47119,0.92829 5.02943,1.59117 7.40116,2.76958 0.94543,0.0114 3.22069,1.83456 3.02389,0.15724 -1.59257,-1.68043 -3.3401,-3.25604 -5.28215,-4.55178 -2.24176,-2.16345 -4.4587,-4.44158 -5.91221,-7.22878 -1.69236,-2.56225 -2.97863,-5.5879 -5.69054,-7.27208 -2.29532,-1.7652 -3.77088,-4.64014 -6.68299,-5.54272 -0.54654,-0.15543 -1.11736,-0.19556 -1.66727,-0.33937 z"
     style="fill:#003380;fill-opacity:1;stroke:#003380;stroke-width:0.264583px;stroke-linecap:butt;stroke-linejoin:miter;stroke-opacity:1"
     id="path1870" />
  <path
     d="M 73.479901,66.192511 C 65.820028,67.49789 59.827216,60.300595 58.432662,53.427354 c -1.404029,-6.399372 0.982847,-13.05974 4.393103,-18.411831 4.90229,-5.48925 12.225393,-8.508398 19.43709,-9.462136 8.53658,-0.478278 17.434986,-1.855162 25.671985,1.288561 7.84702,2.040883 14.64857,7.119254 19.40492,13.602889 2.96848,4.93301 1.77406,11.156603 0.525,16.448636 -2.32358,6.546029 -9.7388,10.653459 -16.52959,9.225354 -5.49373,-0.799324 -11.0833,-1.115415 -16.539146,0.0673 -6.291183,0.540257 -12.636142,0.70645 -18.936685,0.714848 -0.82178,-0.116564 -1.634795,-0.337592 -2.379438,-0.708464 z"
     style="fill:#165016;stroke:#165016;stroke-width:0.264583px;stroke-linecap:butt;stroke-linejoin:miter;stroke-opacity:1"
     id="path2009" />
  <path
     d="m 72.731545,52.722131 c -4.185524,3.603406 -2.203807,9.604403 -2.36751,14.370212 -0.34568,5.715845 1.758594,11.105179 1.884573,16.768348 -0.117969,4.926736 2.573002,9.114193 3.755567,13.720861 -0.166047,3.371258 -0.309291,7.412098 3.708029,8.703718 4.786373,1.64662 8.647692,6.94425 14.191357,5.42265 5.074832,-1.86043 8.265029,-6.67999 13.063309,-9.07468 4.703,-2.38059 5.08082,-8.327763 6.76243,-12.755681 1.6946,-5.451023 1.16862,-11.294078 2.59484,-16.812258 1.00235,-7.350412 0.10743,-15.099095 -3.0503,-21.825702 -2.76176,-4.507451 -8.67895,-4.75042 -13.28283,-6.068115 -4.869095,-1.481159 -10.519695,-1.46436 -14.723556,1.749458 -3.998459,2.300761 -8.28395,4.036355 -12.535909,5.801189 z"
     style="fill:#fec39c;fill-opacity:1;stroke:#fec39c;stroke-width:0.264583px;stroke-linecap:butt;stroke-linejoin:miter;stroke-opacity:1"
     id="path1895" />
  <path
     d="m 108.0913,51.973771 c 0.5311,0.646926 0.10642,1.722436 0.94242,2.212106 0.51969,0.725705 0.65649,1.69504 1.34766,2.29688 0.57771,0.715643 0.87121,1.606824 1.40291,2.353849 0.66976,1.170941 1.2959,2.365725 1.98759,3.523933 0.28475,0.647276 0.68182,1.258779 0.74336,1.981356 0.0957,0.706483 0.35784,1.375257 0.4181,2.089017 0.0129,0.754701 0.73368,0.84582 1.30588,0.868504 0.77939,0.203062 1.56139,-0.438911 1.5778,-1.226645 0.10926,-0.697356 0.10003,-1.438621 -0.19159,-2.093197 -0.14177,-1.392117 0.50795,-2.696929 0.60747,-4.064599 -0.0645,-0.735107 -1.10393,-1.028681 -0.96744,-1.828265 -0.0665,-0.931274 -0.55113,-1.790198 -0.97004,-2.613293 -0.29778,-0.585028 -0.59862,-1.177179 -1.10676,-1.611435 -0.6022,-0.543929 -1.2182,-1.143119 -1.99689,-1.416371 -0.78288,-0.24324 -1.62435,0.06835 -2.39324,-0.21611 -0.79392,-0.137225 -1.62343,-0.01588 -2.39913,-0.252695 -0.10272,0.0038 -0.20562,-2.16e-4 -0.3081,-0.003 z"
     style="fill:#333333;fill-opacity:1;stroke:#333333;stroke-width:0.264583px;stroke-linecap:butt;stroke-linejoin:miter;stroke-opacity:1"
     id="path1901" />
  <path
     d="m 79.653827,53.470481 c -0.833708,1.323073 -1.398397,2.769537 -2.089419,4.153104 -1.579896,2.204711 -2.725705,4.657342 -3.847893,7.114247 -0.651749,1.725865 -0.622188,3.806428 -2.068873,5.156879 -1.507364,0.601113 -3.199306,-0.719857 -3.731872,-2.08313 -0.144732,-1.442406 0.591574,-2.826594 0.444179,-4.289969 -0.161645,-1.442184 -0.05043,-2.797542 0.361047,-4.183812 0.253168,-2.017549 1.324539,-4.268035 3.49631,-4.725804 1.910897,-1.101003 4.126366,-1.348218 6.281701,-1.476504 0.404029,0.01653 0.81103,0.115986 1.15482,0.334989 z"
     style="fill:#333333;stroke:#333333;stroke-width:0.264583px;stroke-linecap:butt;stroke-linejoin:miter;stroke-opacity:1"
     id="path1905" />
  <path
     d="m 98.736874,63.760361 c 0.845223,-0.480976 1.480056,-1.289816 2.355756,-1.663667 0.88217,-0.52581 1.92566,-0.726993 2.92162,-0.923911 0.98131,0.07073 1.92856,-0.353625 2.8916,-0.140552 0.97438,0.308688 1.91698,0.8325 2.46969,1.725125 0.25838,0.364971 1.12072,1.84314 1.29346,1.008603 -0.28358,-0.838342 -0.032,-1.717282 -0.24535,-2.555776 -0.3301,-0.936707 -0.71216,-1.87112 -1.20556,-2.732236 -0.56612,-0.725894 -1.54616,-0.916172 -2.3647,-1.243262 -0.9917,-0.172378 -2.03091,-0.419715 -3.01656,-0.0527 -1.0709,0.169563 -2.06517,0.611057 -3.1284,0.799912 -1.060965,0.221874 -1.274798,1.422642 -1.302542,2.335484 -0.22176,1.009935 -0.15356,2.069681 -0.462952,3.059963 -0.04323,0.140174 -0.126106,0.262095 -0.206062,0.383017 z"
     style="fill:#333333;fill-opacity:1;stroke:#333333;stroke-width:0.264583px;stroke-linecap:butt;stroke-linejoin:miter;stroke-opacity:1"
     id="path1915" />
  <path
     d="m 92.375855,62.824911 c -0.07315,-0.769472 -1.354802,-0.02604 -1.823172,-0.666201 -1.278419,-0.67363 -2.699615,-1.090598 -4.154468,-1.024971 -1.000036,-0.05411 -1.925956,0.483966 -2.933915,0.471341 -1.453599,0.302391 -2.773651,1.172347 -4.274905,1.23098 -0.846096,-0.407114 -2.300256,-1.588316 -1.0654,-2.48567 0.828699,-1.073683 1.893938,-1.925059 3.078347,-2.571595 0.888649,-0.66539 1.695159,-1.354534 2.617911,-1.952788 1.045393,-0.890301 2.525586,-0.772388 3.779025,-1.150159 1.245636,0.365634 2.207359,1.390162 3.330666,2.191709 0.759743,0.848999 1.5077,1.833792 1.763118,2.962919 0.06747,0.986307 0.255254,2.118976 -0.317207,2.994435 z"
     style="fill:#333333;fill-opacity:1;stroke:#333333;stroke-width:0.264583px;stroke-linecap:butt;stroke-linejoin:miter;stroke-opacity:1"
     id="path1919" />
  <path
     d="m 90.692056,74.424421 c -0.946745,-0.05084 -0.708414,1.144067 -0.884893,1.749507 0.02794,0.691913 -1.151172,1.809074 -0.003,2.098241 0.955018,0.243492 1.903503,0.579637 2.756203,1.072497 0.529306,0.508659 1.078302,0.960405 1.655426,1.395353 0.783907,0.389077 1.672989,0.181279 2.508225,0.251751 0.722425,0.0068 1.429458,-0.253384 1.969312,-0.733554 0.679343,-0.437273 1.442711,-0.860859 1.780991,-1.636018 0.47779,-0.620903 -0.15453,-1.288361 -0.679747,-1.612679 -0.739208,-0.375524 -0.902543,-1.24115 -1.040533,-1.983547 -0.344759,-0.844707 -0.348556,-1.746299 -0.424714,-2.639821 -0.283638,-1.226598 -0.268913,-2.506156 -0.642064,-3.717151 -0.134698,-0.718837 -0.321908,-1.397801 -0.580505,-2.078004 -0.183708,-0.605129 -0.341864,-1.556063 -1.139578,-1.54874 -0.802324,-0.02391 -1.66548,0.183824 -2.298218,0.689167 -0.660653,0.60452 -0.912533,1.435845 -1.097779,2.285296 -0.346572,1.527405 -0.377535,3.103699 -0.638689,4.64556 -0.249177,0.602773 -0.251146,1.899129 -1.146612,1.797729 l -0.09386,-0.03559 z"
     style="fill:#ffb380;fill-opacity:1;stroke:#ffb380;stroke-width:0.264583px;stroke-linecap:butt;stroke-linejoin:miter;stroke-opacity:1"
     id="path1927" />
  <path
     d="m 92.18877,89.204411 c 0.929378,-0.898615 2.310844,-1.142357 3.513232,-1.459166 1.126359,-0.157617 2.713251,0.0064 3.184487,1.214496 0.216878,1.002811 -0.485854,2.040948 -1.409403,2.406593 -0.962319,0.225897 -0.99783,1.547907 0.148465,1.412635 1.359068,0.342054 2.868309,0.912578 3.626589,2.168597 0.5102,0.977549 0.57603,2.140403 0.50218,3.219935 -0.19256,1.479919 -1.970497,1.295745 -3.072746,1.309926 -1.150989,0.247996 -2.324748,0.165901 -3.49138,0.23862 -2.157105,0.588173 -4.464192,1.266163 -6.705533,0.734053 -1.12717,-0.35484 -2.11303,-1.239531 -2.606504,-2.30724 -0.294327,-1.329063 0.748602,-2.637113 1.67786,-3.487024 1.184682,-0.872042 2.540314,-1.506427 3.773596,-2.273786 0.580683,-0.954715 -1.082791,-1.73945 -0.414524,-2.685809 0.280253,-0.436528 0.816913,-0.539625 1.273681,-0.49183 z"
     style="fill:#ffb380;fill-opacity:1;stroke:#ffb380;stroke-width:0.264583px;stroke-linecap:butt;stroke-linejoin:miter;stroke-opacity:1"
     id="path1933" />
  <path
     d="m 83.769778,92.197831 c -0.187078,-1.591617 1.808008,-2.399022 2.808534,-3.376675 2.271821,-1.404418 4.997156,-1.926225 7.625198,-2.060163 1.433193,0.140341 2.811042,-0.193039 4.234498,-0.315471 1.473552,-0.08689 2.896522,0.492813 4.312192,0.852068 1.75636,0.576164 3.72345,0.987267 4.98345,2.450854 0.96113,0.820888 2.08641,1.51348 2.76741,2.61547 -0.80921,-1.981588 -1.63824,-3.967943 -2.95582,-5.674842 -0.89464,-1.505175 -1.76425,-3.359157 -3.63304,-3.80292 -1.45993,-0.246543 -2.12029,-1.984019 -3.69741,-1.94335 -1.371157,-0.06682 -2.332291,1.601151 -3.765571,1.04278 -1.915108,-0.04976 -3.721529,-0.680068 -5.51238,-1.290516 -1.74427,-0.568887 -2.289087,1.464815 -3.309142,2.370819 -1.210296,1.124088 -2.42546,2.315842 -3.490849,3.60054 -1.146954,1.636528 -2.57668,3.38437 -2.255066,5.526264 -0.383022,1.813114 1.468411,1.001847 1.887996,0.0051 z"
     style="fill:#333333;fill-opacity:1;stroke:#333333;stroke-width:0.264583px;stroke-linecap:butt;stroke-linejoin:miter;stroke-opacity:1"
     id="path1942" />
  <path
     d="m 99.298135,65.257071 c -0.333111,-0.851474 0.796715,-0.822661 1.331155,-0.897226 0.64893,-0.267443 1.26951,-0.660218 2.01329,-0.644705 1.23981,-0.104929 2.45532,0.256118 3.69243,0.219277 1.02322,0.07673 2.16447,0.743211 2.29699,1.840741 0.0202,0.679408 0.71403,0.993092 1.02891,1.511869 0.0943,0.719741 -0.89918,0.147178 -1.28105,0.480385 -0.66476,0.335297 -1.33952,0.791321 -2.1238,0.68 -1.16554,-0.07139 -2.25661,-0.610848 -3.43429,-0.587623 -1.4458,-0.140519 -2.870598,-1.013034 -3.410697,-2.401173 -0.0362,-0.06798 -0.07396,-0.13512 -0.112938,-0.201545 z"
     style="fill:#f2f2f2;fill-opacity:1;stroke:#f2f2f2;stroke-width:0.264583px;stroke-linecap:butt;stroke-linejoin:miter;stroke-opacity:1"
     id="path1948" />
  <path
     d="m 91.627501,65.257071 c -0.976097,0.557283 -1.93849,1.467758 -3.160031,1.097967 -0.920798,0.02672 -1.825916,0.217117 -2.739846,0.292292 -0.880803,0.262104 -1.783481,0.02112 -2.674693,0.231017 -0.805282,-0.154901 -1.929442,-0.361765 -2.359699,-1.102395 0.558553,-1.305119 1.63129,-2.477533 3.000578,-2.953731 0.745416,-0.46893 1.624384,-0.244359 2.429008,-0.481146 0.909124,-0.05383 1.665463,0.661592 2.581174,0.766307 0.969792,0.491515 1.904048,1.10699 2.727362,1.815628 l 0.111386,0.158809 0.08476,0.175228 z"
     style="fill:#f2f2f2;fill-opacity:1;stroke:#f2f2f2;stroke-width:0.264583px;stroke-linecap:butt;stroke-linejoin:miter;stroke-opacity:1"
     id="path1952" />
  <path
     d="m 103.31643,64.826591 c 0.4909,-0.536124 1.41182,-0.568538 1.94153,-0.07092 0.51431,0.449797 0.61762,1.290068 0.21262,1.844481 -0.38496,0.56465 -1.20544,0.769591 -1.80537,0.434712 -0.60617,-0.314432 -0.91481,-1.106264 -0.64592,-1.741735 0.072,-0.192911 0.2711,-0.621543 0.46045,-0.298325 0.28092,0.267678 0.56184,0.535354 0.84276,0.803033 -0.33536,-0.323748 -0.67071,-0.647502 -1.00607,-0.97125 z"
     style="fill:#000000;fill-opacity:1;stroke:#000000;stroke-width:0.529167;stroke-linecap:round;stroke-miterlimit:4;stroke-dasharray:none;stroke-opacity:1"
     id="path1972" />
  <path
     d="m 85.355889,63.891151 c 0.490901,-0.536127 1.411818,-0.568536 1.941532,-0.07092 0.514308,0.449798 0.617606,1.290072 0.212606,1.844481 -0.384959,0.564649 -1.205445,0.769591 -1.805373,0.434712 -0.606175,-0.314436 -0.914765,-1.106267 -0.645906,-1.74174 0.0648,-0.12843 0.216666,-0.570452 0.386294,-0.368997 0.305646,0.291237 0.611293,0.582473 0.916939,0.87371 -0.335364,-0.32375 -0.670728,-0.6475 -1.006092,-0.97125 z"
     style="fill:#000000;fill-opacity:1;stroke:#000000;stroke-width:0.529167;stroke-linecap:round;stroke-miterlimit:4;stroke-dasharray:none;stroke-opacity:1"
     id="path1974" />
  <path
     d="m 115.38777,68.811751 c -0.12111,-0.779631 0.34068,-1.588784 0.86813,-2.117702 0.6589,-0.939773 1.98618,-0.976327 2.58715,0.03541 0.57525,0.744254 0.85455,1.710847 0.87443,2.649964 -0.11073,1.403646 0.55956,2.885831 -0.15044,4.218941 -0.17278,1.156366 -0.66544,2.228084 -0.87912,3.340691 -0.38904,1.252138 -0.65189,2.592969 -0.41266,3.901287 0.28122,0.845139 0.008,1.788207 -0.3743,2.563949 -0.6715,0.951296 -1.97578,0.353037 -2.2395,-0.626964 -0.32987,-1.209383 -1.27341,-2.229563 -1.24238,-3.5317 0.0875,-1.438516 -0.002,-2.885333 0.0324,-4.326137 -0.18507,-1.058835 -0.43231,-2.100298 -0.43254,-3.181129 -0.36758,-0.867977 0.3622,-1.619058 0.42386,-2.457312 0.0566,-0.458263 0.57543,-0.536814 0.94495,-0.469298 z"
     style="fill:#fec39c;fill-opacity:1;stroke:#fec39c;stroke-width:0.264583px;stroke-linecap:butt;stroke-linejoin:miter;stroke-opacity:1"
     id="path1976" />
  <path
     d="m 69.363949,67.502131 c 1.851377,0.275634 3.471847,1.901255 3.365247,3.842759 0.236708,1.789511 -0.851855,3.557555 -0.200809,5.326889 0.328701,2.033992 0.999618,4.036509 0.970865,6.11039 -0.187538,1.2459 -0.917589,2.369646 -1.210217,3.622863 -1.128203,1.665454 -2.96505,-0.475396 -3.553821,-1.62247 -0.921698,-1.378014 -1.349321,-2.975421 -1.880851,-4.523436 -0.506028,-1.706137 -0.701115,-3.472708 -0.711296,-5.243413 -0.283981,-1.284484 0.159235,-2.484417 0.592073,-3.673869 0.389793,-1.32724 0.981928,-2.632811 2.143975,-3.465423 0.160477,-0.126176 0.304743,-0.275007 0.484834,-0.37429 z"
     style="fill:#fec39c;fill-opacity:1;stroke:#fec39c;stroke-width:0.264583px;stroke-linecap:butt;stroke-linejoin:miter;stroke-opacity:1"
     id="path1980" />
  <path
     d="m 67.867241,63.947451 c 3.637347,-5.135214 9.065922,-9.114108 15.324891,-10.257819 4.413224,-1.414798 9.10595,-1.963755 13.694982,-1.141911 3.496436,0.620491 7.050886,0.104319 10.547296,0.519657 3.70068,0.675907 7.05779,2.830693 9.6203,5.479128 0.80459,0.994825 1.42105,4.33595 0.85113,1.406616 -0.6169,-3.320513 -0.105,-6.87445 -1.40803,-10.035086 -1.467,-2.658107 -4.43319,-3.97079 -6.85278,-5.619115 -4.55379,-2.710388 -9.843792,-4.147311 -15.154367,-3.747221 -3.756164,-0.218788 -7.413934,0.600371 -10.933261,1.850465 -3.385274,0.970575 -7.283771,0.908509 -9.98358,3.498767 -2.562457,1.664826 -4.036951,4.392461 -5.501295,6.972099 -1.098272,3.57433 -1.617208,7.486744 -0.205286,11.07442 z"
     style="fill:#338000;stroke:#338000;stroke-width:0.264583px;stroke-linecap:butt;stroke-linejoin:miter;stroke-opacity:1"
     id="path2028" />
  <path
     d="m 67.680152,58.708961 c 4.197159,-1.840106 7.976429,-4.5543 12.275682,-6.146135 4.725213,-1.505399 9.762389,-1.012749 14.588651,-1.991655 4.034215,0.241125 7.948905,1.455391 11.999375,1.658527 3.84593,0.342633 7.30681,2.250895 10.66976,4.001596 1.26337,0.652963 2.14867,3.884027 2.90689,0.940038 0.21149,-3.168332 -3.56956,-3.325048 -5.35277,-5.045269 -2.30973,-1.492493 -5.16045,-1.550039 -7.68236,-2.532897 -4.47675,-1.036016 -9.118734,-0.914649 -13.672414,-1.165629 -3.171804,0.207331 -6.368348,0.189876 -9.460328,1.042272 -4.530424,0.508248 -9.139975,1.605527 -12.977123,4.167597 -2.145244,0.437485 -5.224669,1.309795 -3.438254,4.157484 0.548879,0.24053 0.302247,0.617715 0.142891,0.914071 z"
     style="fill:#d4aa00;stroke:#d4aa00;stroke-width:0.264583px;stroke-linecap:butt;stroke-linejoin:miter;stroke-opacity:1"
     id="path2051" />
  <path
     d="m 117.81991,57.025161 c -1.34799,0.03468 -0.85226,2.567095 -2.56325,2.230384 -2.12777,0.831912 -4.44379,0.05831 -6.57548,-0.38743 -2.39888,-0.557568 -4.66336,-1.577517 -7.02634,-2.226665 -2.060156,-0.318736 -4.167184,-0.177748 -6.235465,-0.172339 -2.399822,0.52491 -4.859933,0.742411 -7.301443,0.839785 -1.81485,0.462888 -3.686083,0.758089 -5.460988,1.343037 -1.595164,1.008426 -3.330815,1.957996 -5.276073,1.945576 -1.797897,0.336515 -4.064178,-0.03345 -4.618818,-2.086808 -0.661718,-2.001499 1.488956,-3.060477 2.85537,-3.936388 1.972686,-0.878037 3.937092,-2.222791 6.133609,-2.36878 4.936508,-0.216512 9.828216,-1.690056 14.789492,-1.000331 2.490026,0.01686 4.999136,-0.05293 7.455446,0.401529 2.06101,0.03203 4.20364,-0.189595 6.15546,0.622448 2.41395,0.558152 5.0673,1.240884 6.74285,3.192048 0.35684,0.505712 0.61411,1.07111 0.92563,1.603934 z"
     style="fill:#000000;stroke:#000000;stroke-width:0.264583px;stroke-linecap:butt;stroke-linejoin:miter;stroke-opacity:1"
     id="path2045" />
  <path
     d="m 91.814589,41.309711 c 0.902977,1.20935 -2.320892,0.883917 -1.619551,2.529663 -0.347623,3.18141 3.239285,5.263976 6.070566,4.919126 2.561048,-0.245735 4.776456,-3.633583 3.037311,-5.858479 -1.040825,-1.830855 -3.108228,-2.700018 -5.161895,-2.563327 -0.859325,-0.112709 -2.097902,-0.08875 -2.326431,0.973017 z"
     style="fill:#d4aa00;fill-opacity:1;stroke:#d4aa00;stroke-width:0.264583px;stroke-linecap:butt;stroke-linejoin:miter;stroke-opacity:1"
     id="path2057" />
  <path
     d="m 93.124209,42.806431 c -0.565061,0.722558 -0.822337,1.765102 -0.0057,2.419466 0.708596,0.547681 1.593197,1.143735 2.507951,1.13495 1.180781,-0.284882 2.021352,-1.834914 1.33635,-2.91167 -0.702622,-0.529812 -1.199706,-1.575713 -2.230329,-1.448603 -0.642223,-0.07399 -1.440833,0.06046 -1.608266,0.805857 z"
     style="fill:#ff0000;stroke:#ff0000;stroke-width:0.264583px;stroke-linecap:butt;stroke-linejoin:miter;stroke-opacity:1"
     id="path2068" />
  <path
     d="m 91.066231,112.02923 c 7.920441,2.91017 13.310999,-6.87747 21.089279,-5.85565 7.52424,0.75626 13.34326,6.39053 20.64696,7.9348 4.4975,0.72942 16.23753,5.46627 9.51345,10.46257 -5.52054,0.84487 -11.03726,4.56629 -7.90665,10.79966 1.88205,5.76356 -1.01413,13.85876 -8.15435,13.03303 -7.49886,-0.17158 -15.01026,-1.72447 -22.49005,-0.42581 -12.890184,0.45267 -25.684214,-2.48368 -38.554915,-1.70183 -5.808734,1.57254 -11.856937,0.98617 -14.964556,-4.86021 -6.751941,-5.46642 -7.824944,8.22625 -14.222279,9.06047 -6.313691,2.29996 -12.24303,-2.87217 -18.58553,-1.88894 -4.494912,-6.35776 -10.093256,-11.86523 -14.8180315,-18.02889 -2.2001874,-7.79516 10.1627975,-3.37974 14.2075635,-6.12123 4.712023,-5.25102 10.915023,-9.16055 18.407441,-8.57471 8.256727,-1.31141 16.748134,-6.20108 25.162943,-2.76422 5.462019,-2.01554 11.732852,-9.77611 17.426191,-5.06561 3.927855,2.5135 8.525998,4.2025 13.242534,3.99657 z"
     style="fill:#338000;fill-opacity:1;stroke:#338000;stroke-width:0.264583px;stroke-linecap:butt;stroke-linejoin:miter;stroke-opacity:1"
     id="path2074" />
  <path
     d="m 91.066234,111.46797 c 1.671409,0.71103 2.302744,2.60753 3.453731,3.88707 1.602267,2.56773 2.361095,5.85647 5.099676,7.54719 1.558029,1.03188 3.902789,1.71323 5.364869,0.14648 2.43854,-2.03335 4.19477,-4.72383 6.50171,-6.88242 2.0614,-1.76412 4.00541,-3.81191 6.44778,-5.01291 -0.7979,-1.53426 -2.49302,-2.58487 -3.32259,-4.19241 -0.77194,-1.76972 -1.9275,-3.40542 -2.34617,-5.31272 -0.51589,-0.99457 0.36633,-4.689645 -1.57997,-2.751308 -1.88428,1.976608 -4.51569,3.060628 -6.28985,5.157348 -1.35264,1.24695 -2.88368,2.24765 -4.22119,3.5034 -1.988376,1.36047 -4.130387,2.51667 -6.368902,3.4044 -0.938957,-0.059 -1.911371,0.85846 -2.739094,0.50588 z"
     style="fill:#165016;fill-opacity:1;stroke:#165016;stroke-width:0.264583px;stroke-linecap:butt;stroke-linejoin:miter;stroke-opacity:1"
     id="path2081" />
  <path
     d="m 74.041167,105.29404 c 0.339795,-1.53876 0.771206,-3.36198 1.357477,-4.64674 1.361171,1.30004 2.902387,2.46637 4.625735,3.31377 1.911495,1.01408 4.026181,1.66852 5.797651,2.91598 1.466564,0.72092 2.580923,2.00354 4.090212,2.6711 1.920776,0.38221 2.932814,3.42344 0.49383,3.88577 -1.71822,0.40612 -1.657091,2.58361 -2.866071,3.57797 -2.121147,2.47119 -4.196524,5.05467 -6.840805,6.98424 -2.191327,1.57799 -5.346578,0.55031 -6.704982,-1.62114 -0.313908,-1.85486 -1.31868,-3.44342 -2.611434,-4.76256 -1.497278,-1.82574 -3.243023,-3.81252 -3.16127,-6.32476 0.417568,-1.56075 2.164249,-2.24061 3.216985,-3.35181 0.854154,-0.86272 2.290387,-1.36651 2.602672,-2.64182 z"
     style="fill:#165016;fill-opacity:1;stroke:#165016;stroke-width:0.264583px;stroke-linecap:butt;stroke-linejoin:miter;stroke-opacity:1"
     id="path2089" />
  <path
     d="m 33.442924,118.39024 c 2.073893,-0.35224 4.114948,-0.8681 6.070585,-1.6432 1.399371,-0.19489 2.674634,-0.92621 4.107767,-0.87994 1.756395,-0.0567 3.589742,-0.24918 5.072158,-1.28525 1.874785,-0.85051 3.718856,-1.81193 5.748527,-2.2387 1.301003,-0.46231 2.55191,-1.08599 3.948351,-1.23179 1.683143,-0.55642 3.472624,-0.46978 5.198233,-0.83877 2.00094,-0.4287 3.886493,-1.26864 5.836493,-1.85316 1.095719,-0.97788 2.979155,-0.39771 3.882442,-1.61099 -1.206739,-1.02265 -2.817334,-2.26581 -4.494317,-1.52912 -1.486504,0.67633 -2.354333,2.27889 -4.006491,2.67535 -1.342874,0.54256 -2.837042,0.53621 -4.088935,1.31855 -1.704047,0.83716 -3.649399,0.88703 -5.391929,1.62849 -2.046613,0.68886 -4.139563,1.28144 -6.268701,1.64456 -1.462116,0.37601 -3.055676,0.40903 -4.436309,1.08842 -1.670348,0.49817 -3.432055,0.67503 -5.076208,1.29469 -1.529821,0.62811 -3.136344,0.99968 -4.782136,1.11419 -1.106435,-0.0339 -3.163928,1.78179 -1.31953,2.34667 z"
     style="fill:#165016;fill-opacity:1;stroke:#165016;stroke-width:0.264583px;stroke-linecap:butt;stroke-linejoin:miter;stroke-opacity:1"
     id="path2093" />
  <path
     d="m 113.89105,107.16493 c 0.15149,0.95641 1.7638,0.42448 2.42157,1.18622 4.06589,1.66325 7.87513,3.87344 11.88139,5.66153 1.62935,0.51227 3.00627,1.60082 4.65872,2.09523 2.21572,0.82942 4.37207,1.8099 6.50515,2.82405 1.37677,0.90637 2.70408,2.1543 4.40691,2.37514 1.98546,-0.0527 1.81434,-2.70043 0.0655,-3.10443 -2.22184,-1.37928 -4.61513,-2.46314 -6.91462,-3.69791 -1.71784,-0.54894 -3.25377,-1.463 -4.58704,-2.66385 -2.02706,-1.27835 -4.34239,-1.99804 -6.45319,-3.11915 -2.08279,-0.83747 -4.45308,-0.86187 -6.21408,-2.4246 -1.27966,-1.18827 -3.15395,-0.93892 -4.61998,-0.28537 -0.53905,0.12692 -1.45942,0.39019 -1.15028,1.15314 z"
     style="fill:#165016;fill-opacity:1;stroke:#165016;stroke-width:0.264583px;stroke-linecap:butt;stroke-linejoin:miter;stroke-opacity:1"
     id="path2097" />
  <path
     d="m 108.2784,133.35734 c 2.21018,0.0867 4.41297,0.42638 6.61375,0.49857 1.64332,-0.17684 3.24659,-0.0164 4.86081,0.27717 1.49101,0.21597 2.94736,0.53712 4.44458,0.72809 3.50056,0.8385 6.92278,2.088 10.09917,3.78596 0.87531,1.56073 2.63273,2.10366 3.87674,3.08743 -1.29258,1.02771 -0.4315,3.20289 -1.00852,4.679 -0.32486,2.35693 -3.13995,0.94014 -4.67571,0.84097 -2.4617,-0.60186 -5.06781,-0.33925 -7.42017,0.56478 -1.96041,0.4863 -2.03435,-2.48892 -3.65358,-3.15943 -3.07846,-2.27509 -6.86648,-3.16798 -10.56922,-3.82633 -1.45943,-0.47494 -3.09279,-0.83151 -4.24701,-1.89259 -1.32408,-1.38356 0.52206,-2.65665 0.86469,-3.99541 0.208,-0.5574 0.41967,-1.13156 0.81447,-1.58821 z"
     style="fill:#165016;fill-opacity:1;stroke:#165016;stroke-width:0.264583px;stroke-linecap:butt;stroke-linejoin:miter;stroke-opacity:1"
     id="path2101" />
  <path
     d="m 57.951542,130.36392 c 2.074232,0.24758 4.205014,-0.62741 6.188364,0.43192 2.754306,0.55299 5.675329,-0.86656 8.278256,0.59292 2.014549,0.29673 5.00441,0.95036 3.470198,3.65116 -0.834498,1.99152 -1.790998,4.75474 -4.39666,4.76653 -2.317495,0.16575 -4.674224,0.24245 -6.915559,-0.45308 -2.763067,-0.17907 -4.902252,1.80388 -6.775637,3.54756 -2.004893,2.0117 -3.949928,-1.03052 -6.090992,-1.18904 -2.804376,-0.32864 -5.573291,0.82092 -8.376392,0.3886 -2.10413,-1.75401 -0.346574,-4.74133 0.594967,-6.68291 1.175597,-2.62483 4.0878,-3.13864 6.54264,-3.87923 2.362142,-0.43316 5.186358,-2.39085 7.480815,-1.17443 z"
     style="fill:#165016;fill-opacity:1;stroke:#165016;stroke-width:0.264583px;stroke-linecap:butt;stroke-linejoin:miter;stroke-opacity:1"
     id="path2117" />
  <path
     d="m 94.995095,116.55146 c 1.096002,-0.86763 1.964695,-1.95934 3.079324,-2.80087 0.728404,-0.86349 1.613789,-1.60386 2.236541,-2.58061 1.25379,-1.40567 2.20229,-3.1839 3.91011,-4.09499 1.21917,-0.99747 2.63586,-1.71068 3.9568,-2.55723 1.4774,-0.43745 1.76569,1.60194 2.30163,2.55117 0.54601,1.04361 1.05219,2.11707 1.66546,3.11737 0.54966,1.29258 -0.59593,2.11587 -1.65887,2.48963 -1.18812,0.90863 -1.98136,2.20884 -2.91985,3.33487 -0.8434,1.4784 -2.20519,2.54133 -3.16871,3.93224 -0.68885,0.95499 -1.74627,1.57976 -2.252,2.66589 -0.65424,0.75007 -2.160725,1.7792 -2.982911,0.6942 -0.951105,-1.3894 -1.78508,-2.86351 -2.66882,-4.29803 -0.512789,-0.81233 -0.644524,-1.90136 -1.498704,-2.45364 z"
     style="fill:#ff0000;fill-opacity:1;stroke:#ff0000;stroke-width:0.264583px;stroke-linecap:butt;stroke-linejoin:miter;stroke-opacity:1"
     id="path2139" />
  <path
     d="m 73.292813,110.71961 c 0.87645,-0.85775 1.492953,-1.90585 2.263961,-2.8235 0.618113,-1.12771 1.877752,-1.39913 2.45507,-2.53358 1.509446,-0.86424 1.799053,1.612 2.663644,2.43961 0.966328,0.89115 1.756521,1.92639 2.464278,3.03885 0.815195,0.80634 1.858847,1.29337 2.560482,2.21747 1.039526,0.68272 1.396325,1.86641 1.825513,2.95746 0.976799,1.37344 -0.993559,1.80505 -1.442528,2.88419 -0.465112,1.30236 -1.549547,2.17641 -2.244614,3.34668 -0.637204,0.9115 -2.311933,2.27458 -2.845624,0.56103 -1.126152,-1.54908 -1.878075,-3.3217 -2.864856,-4.95189 -0.643844,-1.0675 -1.483354,-1.94448 -2.190199,-2.96782 -0.851427,-0.90207 -1.218034,-2.17194 -2.154891,-3.01987 -0.252851,-0.33363 -0.464563,-0.72235 -0.490236,-1.14863 z"
     style="fill:#ff0000;fill-opacity:1;stroke:#ff0000;stroke-width:0.264583px;stroke-linecap:butt;stroke-linejoin:miter;stroke-opacity:1"
     id="path2143" />
  <path
     d="m 107.15585,105.85531 c -1.45276,0.43465 -1.003,2.36253 0.0229,3.02224 0.78092,0.9684 2.05069,1.27597 3.2218,1.44244 1.11878,0.0164 1.82855,-1.47058 1.47816,-2.43915 -0.80277,-0.72359 -1.68237,-1.35792 -2.28152,-2.3322 -0.78307,-0.6436 -1.72038,-0.15824 -2.44137,0.30667 z"
     style="fill:#d5a800;fill-opacity:1;stroke:#d4aa00;stroke-width:0.264583px;stroke-linecap:butt;stroke-linejoin:miter;stroke-opacity:1"
     id="path962" />
  <path
     d="m 75.350783,106.97784 c -0.569339,0.75488 -1.534723,1.40309 -1.322513,2.48634 -0.239314,0.7956 -0.09133,2.00265 0.950288,2.05918 1.143621,0.0456 1.795895,-1.04344 2.547086,-1.72278 0.749123,-0.73361 1.658007,-1.72003 1.324423,-2.8593 -0.376734,-0.87235 -1.450701,-0.42498 -2.160176,-0.40412 -0.475162,0.0443 -0.890759,0.30163 -1.339108,0.44068 z"
     style="fill:#d4aa00;fill-opacity:1;stroke:#d4aa00;stroke-width:0.264583px;stroke-linecap:butt;stroke-linejoin:miter;stroke-opacity:1"
     id="path966" />
  <path
     d="m 88.821166,117.82899 c -1.660536,1.13149 -0.157728,3.54367 1.319911,4.09175 1.516981,1.19619 3.91925,1.21617 4.676955,-0.8234 1.423254,-1.54041 -0.172308,-3.31933 -1.788841,-3.7289 -1.463582,-0.69045 -3.028081,-0.90189 -4.208025,0.46055 z"
     style="fill:#d4aa00;fill-opacity:1;stroke:#d4aa00;stroke-width:0.264583px;stroke-linecap:butt;stroke-linejoin:miter;stroke-opacity:1"
     id="path970" />
  <path
     d="m 89.008255,133.54443 c -1.012553,1.10741 -0.649198,3.21417 0.954062,3.51976 1.861013,0.61969 4.052183,-0.15506 5.26268,-1.64921 0.288645,-1.56876 -1.768302,-2.44629 -3.083573,-2.45328 -1.109082,-0.18222 -2.132602,0.19463 -3.133169,0.58273 z"
     style="fill:#d4aa00;fill-opacity:1;stroke:#d4aa00;stroke-width:0.264583px;stroke-linecap:butt;stroke-linejoin:miter;stroke-opacity:1"
     id="path974" />
  <path
     d="m 122.12295,127.55759 c -0.88004,-0.23511 -0.40101,1.6763 -1.55366,0.92095 -0.59671,-0.1424 -2.08889,-0.0253 -0.68432,0.24397 1.05911,0.48664 2.58942,1.31154 2.4991,2.64086 -0.46263,0.64219 -1.4164,2.90199 0.0995,1.79303 0.88977,-0.95293 2.11574,-0.91676 2.79432,0.23172 0.52769,0.44381 1.94857,1.79781 2.20846,1.37718 -0.69891,-0.8128 -2.02414,-1.97259 -2.01358,-2.85676 0.70199,-0.29741 3.04354,-1.02808 1.14459,-1.44123 -1.03725,-0.57734 -2.13683,-1.40579 -2.66461,-2.51186 0.11516,-1.31251 -0.90088,-0.83795 -1.29164,-0.12752 -0.20871,0.006 -0.39975,-0.12694 -0.53812,-0.27034 z"
     style="fill:#d4aa00;fill-opacity:1;stroke:#d4aa00;stroke-width:0.264583px;stroke-linecap:butt;stroke-linejoin:miter;stroke-opacity:1"
     id="path990" />
  <path
     d="m 120.06498,122.31911 c 0.29249,-0.2846 1.09824,-0.0231 0.7823,0.4306 -0.23621,0.41952 0.0301,1.05313 -0.44297,1.44013 -0.15664,0.26431 -0.75671,0.52195 -0.15739,0.59282 0.65737,0.17846 1.16104,0.63259 1.72219,0.98534 0.5975,0.38058 1.20051,0.85063 1.45524,1.53715 0.49822,0.25097 0.77328,-0.45983 1.18529,-0.62167 0.50013,-0.25098 1.04006,0.0698 1.51571,0.23386 0.46065,0.19324 0.92303,0.41048 1.42512,0.46722 0.10576,0.23163 -0.38761,-0.29005 -0.46391,-0.38984 -0.22005,-0.3513 -0.84983,-0.48059 -0.83705,-0.92769 0.33615,-0.46197 1.0311,-0.14018 1.43181,-0.51267 -0.22667,-0.17278 -0.89961,-0.24167 -1.27661,-0.44206 -0.65917,-0.26259 -1.247,-0.68096 -1.93883,-0.86647 -0.58884,-0.20174 -1.17138,-0.41946 -1.75549,-0.6316 -0.56388,-0.36527 -1.0443,-0.82048 -1.52271,-1.30432 -0.3545,-0.33238 -0.74155,-0.0574 -1.1227,0.009 z"
     style="fill:#ff0000;fill-opacity:1;stroke:#ff0000;stroke-width:0.264583px;stroke-linecap:butt;stroke-linejoin:miter;stroke-opacity:1"
     id="path996" />
  <path
     d="m 25.362175,98.303331 c 0.945211,-0.391065 1.555141,-1.27693 2.364528,-1.867144 0.87375,-0.805488 1.929881,-1.437664 2.607137,-2.437564 0.99064,-0.81393 1.534957,-2.022239 2.401915,-2.952893 0.920905,-1.357387 1.846694,-2.85667 3.331469,-3.65489 0.881397,-0.12157 1.853315,-1.02326 2.698119,-0.356605 0.76168,0.568313 0.334802,1.611705 0.455803,2.407772 0.02228,1.377852 -0.565874,2.654794 -1.270849,3.802189 -0.730348,1.324535 -1.777901,2.448933 -2.411055,3.827981 -0.567172,0.659685 -1.036684,1.357863 -1.398131,2.155156 -0.628128,0.524098 -1.025336,1.385347 -1.841654,1.657017 -0.953865,0.009 -1.910191,0.21294 -2.848488,0.0743 -1.059956,-0.0766 -2.13273,-0.36372 -2.987446,-1.014399 -0.537624,-0.431709 -0.808776,-1.037314 -1.101348,-1.64095 z"
     style="fill:#338000;fill-opacity:1;stroke:#338000;stroke-width:0.264583px;stroke-linecap:butt;stroke-linejoin:miter;stroke-opacity:1"
     id="path1033" />
  <path
     d="m 20.751104,62.199931 c 0.349102,-4.70953 0.801442,-9.41375 1.45806,-14.08933 0.396858,-2.82591 1.799866,-5.37292 3.386628,-7.74788 0.714395,-1.06926 1.19967,-2.26669 1.772982,-3.41252 0.512958,-1.02521 1.072544,-2.05651 1.902823,-2.86397 0.593757,-0.57744 1.373165,-0.96878 2.203352,-1.05076 0.387456,-0.0383 0.943759,0.3715 1.16265,0.0502 0.933391,-1.3703 1.717569,-2.85627 2.842236,-4.08452 0.468381,-0.51152 1.000592,-1.01065 1.67094,-1.23521 0.374764,-0.12554 0.877196,0.29666 1.161775,0.0205 0.570689,-0.5538 1.252318,-1.05406 2.053363,-1.19585 0.596125,-0.10552 1.218483,0.0784 1.694698,0.44475 0.67697,0.52086 1.123077,1.28894 1.398569,2.08522 0.164618,0.47581 -0.164612,1.27383 0.296977,1.47718 0.788571,0.3474 1.450758,0.97494 1.821354,1.75632 0.476205,1.00405 0.519206,2.16041 0.341767,3.24101 -0.200079,1.21848 -0.751604,2.33882 -1.320079,3.43572 -0.894695,1.72636 -1.324808,3.65364 -1.512529,5.5784 -0.168077,1.72334 0.02652,3.46749 -0.165515,5.18633 -0.282366,2.52741 -0.602341,5.07523 -0.386131,7.62141 0.154263,1.81667 0.651472,3.61711 1.571148,5.20353 0.120987,0.2087 0.254252,0.40349 0.466894,0.53904 0.263586,0.16802 0.611705,0.21204 0.895893,0.0661 0.408352,-0.20967 0.678051,-0.60584 0.898575,-0.99362 0.583145,-1.02543 0.928417,-2.15957 1.411937,-3.23121 0.07867,-0.17435 0.178352,-0.33524 0.248362,-0.51488 0.622,-1.596 1.644017,-3.06347 3.033357,-4.08094 0.812352,-0.59492 1.749906,-1.06837 2.752973,-1.18721 0.879679,-0.10422 1.811829,0.0803 2.532922,0.61534 0.829239,0.61527 1.288465,1.62887 1.374746,2.64352 0.108239,1.27288 -0.936259,2.24602 -1.287994,3.47675 -0.424422,1.48506 -1.253938,2.80895 -2.127604,4.06738 -0.903416,1.30128 -1.932872,2.5474 -2.54099,4.01886 -0.859063,2.07867 -1.607809,4.2232 -2.804775,6.14054 -0.368023,0.58951 -0.875527,1.08205 -1.236541,1.67619 -1.564232,2.57432 -3.733678,4.74813 -6.187785,6.47773 -0.666053,0.46942 -1.330594,0.95025 -2.05428,1.32496 -1.105767,0.57255 -2.032859,1.452 -2.735454,2.47521 -1.021596,1.48778 -1.610772,3.20816 -2.349226,4.84148 -0.176801,0.39105 -0.350923,0.7841 -0.588878,1.14415 -0.916525,1.38678 -2.277828,2.50804 -3.873148,3.01454 -1.126229,0.35757 -2.375156,0.33822 -3.476969,-0.10477 -0.510478,-0.20524 -0.913337,-0.60936 -1.411178,-0.84233 -2.961284,-1.38577 -5.364063,-3.88035 -6.712847,-6.85268 -0.441959,-0.97395 -0.643138,-2.0326 -0.97758,-3.0486 -0.440483,-1.33814 -0.451133,-2.78794 -0.17423,-4.1612 0.329503,-1.63412 0.978067,-3.18917 1.772369,-4.64587 0.706234,-1.29519 1.003929,-2.77832 1.027901,-4.24465 0.01465,-0.89613 -0.239372,-1.78205 -0.202241,-2.6768 0.0892,-2.14947 0.660212,-4.2374 0.970723,-6.35753 z"
     id="path1007"
     style="fill:#fec39c;fill-opacity:1;stroke:#fec39c;stroke-width:0.264583px;stroke-linecap:butt;stroke-linejoin:miter;stroke-opacity:1" />
  <path
     d="m 10.383733,88.485891 c 1.704728,-2.621081 4.238369,-4.71387 5.359935,-7.67995 1.537743,-0.977616 2.414091,-7.407524 2.894469,-2.953828 0.779356,5.509861 4.213118,10.771275 9.525875,12.825168 3.007024,1.464225 6.732139,2.921224 9.977714,1.432729 1.902163,-1.031537 0.594916,-4.506711 0.541252,-5.160479 3.303858,2.545642 -0.305693,6.514055 -0.429765,9.69459 -0.914738,3.808949 -2.998371,7.174509 -4.413656,10.776819 -0.792096,3.63416 -2.232024,7.03599 -4.064345,10.24239 -1.050807,3.52599 -1.422355,7.60453 -4.604986,10.0013 -3.535813,2.35457 -0.995416,6.31835 -1.884314,9.65638 -0.370205,4.55077 -1.755829,8.9219 -2.844553,13.33167 -0.406633,2.72228 -1.90699,5.09885 -4.943404,3.5935 -3.318181,-0.67576 -6.4826534,-1.98523 -9.8993557,-2.13253 -3.2449832,0.14879 -4.0909005,-3.12135 -2.1052818,-5.30702 1.6210424,-2.89321 3.7279054,-6.4631 1.8502487,-9.75128 -1.7769954,-2.99434 -4.65585148,-5.95479 -3.8578544,-9.75213 0.5953682,-3.33548 2.2783062,-6.31986 3.4005591,-9.47032 1.3190842,-3.33849 -1.6315161,-5.82963 -2.2442015,-8.83724 -1.1902783,-6.49919 1.6257913,-13.215692 5.9528592,-18.005876 0.7337941,-0.739676 1.0633021,-1.763352 1.7888044,-2.503893 z"
     style="fill:#165016;fill-opacity:1;stroke:#165016;stroke-width:0.264583px;stroke-linecap:butt;stroke-linejoin:miter;stroke-opacity:1"
     id="path1027" />
  <path
     d="m 141.07654,8.3741309 c -2.95812,0.27493 -5.15327,2.9135301 -5.83916,5.6597001 -0.52523,1.89595 -1.03581,3.98937 -0.20447,5.88226 0.71341,2.23914 2.65229,3.71356 4.33029,5.22014 0.54815,0.37542 1.28728,0.44093 1.83663,0.74334 -0.58652,0.006 -1.95565,0.0241 -2.01473,-0.0397 1.76405,-0.20397 3.69403,-0.89238 4.69832,-2.45096 0.68027,-1.2033 0.58656,-3.01297 -0.55055,-3.913 -0.47673,-0.45677 -2.31633,-0.38921 -2.08318,-0.4588 0.9555,0.0861 2.82566,-0.0909 3.20295,-0.0305 -0.53188,-0.0895 -2.12631,0.1272 -2.00184,-0.13854 1.50804,-0.0622 2.26083,-1.62043 3.61718,-2.0227 0.89051,-0.20525 2.45013,-0.15845 2.0651,1.17542 -0.20619,1.07598 -0.61744,2.10814 -0.71022,3.20369 -0.85853,4.06836 -1.81639,8.18455 -1.62788,12.37181 -0.50522,-0.2778 -2.40142,-0.42762 -2.15594,-0.4597 0.43713,0.0485 1.92358,-0.0117 1.76471,0.0566 -0.80562,-0.0191 -2.78501,0.92054 -2.44756,-0.64048 0.0905,-1.8853 0.22216,-3.7912 0.56302,-5.65857 0.46265,-2.8737 1.20575,-5.69303 1.69847,-8.55975 -0.2697,-1.44569 1.37724,-1.83393 2.42722,-1.33152 0.85912,0.6607 -0.9716,1.55435 -1.54366,1.91814 -0.99675,0.54165 -2.16781,0.51799 -3.24209,0.56388 -0.56643,0.33679 -2.82656,-0.45221 -1.35873,-0.82141 1.57475,-0.0803 3.37008,-0.29583 4.72183,0.69164 1.07761,1.08673 1.05204,2.87506 0.48641,4.20177 -1.24908,1.88023 -3.60621,2.71884 -5.77507,2.85616 -1.9498,0.1293 -4.11125,-0.38365 -5.38113,-1.97291 -2.20222,-1.71998 -3.89604,-4.37737 -3.74132,-7.25199 0.15823,-1.50775 0.5878,-2.98314 1.03133,-4.42439 0.94567,-2.26663 2.83675,-4.4156301 5.39618,-4.7287301 0.95761,0.009 1.89003,0.25558 2.83789,0.35905 z"
     style="fill:#338000;fill-opacity:1;stroke:#338000;stroke-width:0.529167;stroke-linecap:round;stroke-miterlimit:4;stroke-dasharray:none;stroke-opacity:1"
     id="path1041" />
  <path
     d="m 154.6202,7.7594209 c 0.95631,3.3784001 0.84646,6.9591401 0.46633,10.4152701 -0.34114,2.20523 -0.83843,4.39643 -1.64345,6.48181 -0.80913,0.55869 0.26399,2.59473 -1.27055,1.6951 -1.50432,0.18786 -2.41917,-1.34154 -1.08444,-2.3291 0.94211,-1.77486 2.99487,-2.69818 4.95297,-2.65052 2.13211,-0.14205 4.51409,0.0823 6.1669,1.56959 0.51879,0.23867 1.8191,0.65369 0.49527,0.50756 -1.41577,0.12712 2.6375,0.38418 0.83862,0.42948 -1.52656,0.24368 -3.10311,-0.0436 -4.4207,-0.86511 -0.99207,-0.68644 -2.09447,-1.18231 -3.32512,-1.17261 0.57668,0.0736 3.06223,-0.0567 1.42084,0.0743 -1.75506,0.2216 -3.20297,1.53783 -3.83363,3.15289 -0.4783,1.19534 -2.1658,1.27693 -3.08592,0.57016 0.15391,-1.08746 0.86234,-2.00536 1.05527,-3.09163 1.25343,-4.0858 1.48713,-8.4327 0.99607,-12.6621101 -0.55547,-1.01048 -0.40853,-2.74165 1.18086,-2.11719 0.36264,0.0277 0.72927,0.044 1.09068,-0.008 z"
     style="fill:#338000;fill-opacity:1;stroke:#338000;stroke-width:0.529167;stroke-linecap:round;stroke-miterlimit:4;stroke-dasharray:none;stroke-opacity:1"
     id="path1043" />
  <path
     d="m 170.85337,9.5349409 c -1.81776,1.2786701 -3.60661,3.0475801 -3.77906,5.3911501 -0.6024,2.63778 -1.07505,5.73283 0.69263,8.04753 0.47606,1.0539 2.59981,1.45057 2.88285,1.56392 -0.64618,0.09 -1.66667,-0.0856 -0.46972,-0.27258 3.77491,-1.37232 7.09027,-4.69586 7.50758,-8.82627 0.26742,-2.45724 -0.31492,-4.9354 -1.03392,-7.2607701 -0.32443,-0.84234 -1.94113,-1.51759 -2.1082,-1.7097 0.66425,-0.0852 1.79595,0.0427 0.56325,0.44225 -1.52905,1.08837 -1.64764,3.1035201 -1.95158,4.7907701 -0.47062,1.15547 -2.56916,0.68343 -2.77631,-0.47561 0.2163,-1.2924701 0.58326,-2.6380101 1.26095,-3.7856601 0.76957,-1.43144 2.48071,-1.60423 3.92257,-1.41825 1.75876,-0.15026 3.50492,0.832 3.96559,2.59303 0.74791,1.9998301 0.92746,4.1732201 0.96696,6.2905701 -0.19487,3.73776 -2.64396,7.06019 -5.83208,8.884 -1.42592,0.90756 -3.13252,1.39467 -4.82154,1.2109 -2.169,0.19575 -4.66846,-0.75989 -5.4363,-2.95716 -1.21667,-2.85164 -0.38543,-6.01953 0.35822,-8.87875 0.55984,-1.78824 2.07262,-3.16239 3.77654,-3.8583201 0.77716,0.002 1.53545,0.21288 2.31157,0.22895 z"
     style="fill:#338000;fill-opacity:1;stroke:#338000;stroke-width:0.529167;stroke-linecap:round;stroke-miterlimit:4;stroke-dasharray:none;stroke-opacity:1"
     id="path1045" />
  <path
     d="m 189.00043,4.0480109 c -0.0668,5.22512 -0.26626,10.4604301 -0.82357,15.6564501 -0.30889,1.87703 -0.53431,3.92655 -1.67911,5.4941 -0.80899,0.59117 -2.61412,1.08988 -3.13269,0.006 0.6919,-1.03784 1.67951,-1.95205 2.02652,-3.23007 1.22736,-3.3275 0.70237,-6.9246 0.86261,-10.38858 0.29391,-1.7687301 -0.56484,-3.4542101 -0.26994,-5.2082301 0.40713,-1.66196 2.1873,-2.40368 3.65355,-2.91261 1.9469,-0.55011 4.02525,-0.49928 6.01597,-0.32553 1.52865,0.57036 1.5011,2.61194 0.7788,3.81078 -1.26279,1.9499 -2.7931,3.9707101 -5.00882,4.8745701 -0.6347,-0.26299 -2.60203,0.22262 -2.47108,-0.19225 2.19526,-0.56576 4.60777,-0.85397 6.8152,-0.16199 1.80647,0.49572 2.22852,2.75892 1.78947,4.3499 -0.48812,2.42474 -2.89345,3.72268 -5.08001,4.34113 -1.19599,0.36333 -2.4322,0.63248 -3.52376,1.25405 -0.82082,0.62818 -3.9334,0.27181 -1.96434,-0.76081 2.383,-0.91983 5.35617,-1.08286 7.01523,-3.27922 0.76479,-0.94346 0.96145,-2.18941 0.90573,-3.35645 0.12146,-1.33333 -1.35677,-2.01134 -2.33422,-2.45629 0.68693,-0.0429 1.71982,0.052 0.33143,0.0964 -1.41803,0.0921 -3.62087,1.46225 -4.56344,0.48164 0.74571,-1.31218 2.53271,-1.43578 3.34463,-2.7143401 1.09658,-1.37794 2.48581,-2.80669 2.50352,-4.681 -0.0629,-0.6485 -1.89284,-1.48971 -0.34344,-1.26268 0.6455,0.0559 1.68319,-0.0271 0.4811,0.0359 -1.98111,0.15178 -4.30137,0.69687 -5.37313,2.5398 -0.705,1.45797 0.30851,3.02371 0.11217,4.5555001 -0.21706,3.3151 0.24163,6.68686 -0.46642,9.96249 -0.40952,1.57627 -0.97536,3.23085 -2.15181,4.40091 -0.64178,0.67153 -2.99083,1.21053 -2.97536,-0.007 0.88084,-0.76822 1.54553,-1.85353 1.52625,-3.04866 1.13927,-5.06191 0.9039,-10.28505 1.24819,-15.4294201 -0.32617,-1.24644 0.0554,-3.22369 1.81217,-2.46976 0.30855,0.0521 0.62829,0.0953 0.9386,0.0259 z"
     style="fill:#338000;fill-opacity:1;stroke:#338000;stroke-width:0.529167;stroke-linecap:round;stroke-miterlimit:4;stroke-dasharray:none;stroke-opacity:1"
     id="path1047" />
  <path
     d="m 198.38219,24.724851 c 3.37232,-2.31861 5.06712,-6.18611 6.95832,-9.66468 0.91427,-2.90718 2.04343,-5.8077901 2.19625,-8.8841901 -0.34113,-1.21913 -0.15818,-2.76604 0.84766,-3.62663 1.10431,-0.6631 2.18181,0.67245 2.38263,1.67006 0.68673,2.0203 0.93956,4.17351 1.83011,6.1273601 1.02928,2.84705 2.22979,5.70177 4.18651,8.04857 -0.54632,1.33616 -2.24587,0.8262 -2.9885,-0.0276 -1.05433,-0.84114 -1.3515,-2.17588 -1.99894,-3.28699 -1.75811,-3.45361 -2.82734,-7.1964301 -3.898,-10.9049101 -0.1308,-1.0935 1.08188,-2.14455 2.09457,-1.52108 1.11607,0.64463 0.37247,1.94274 0.37981,2.91568 -0.32448,3.35195 -1.22486,6.6301101 -2.36269,9.7877401 -1.62101,3.018 -3.17077,6.16409 -5.57774,8.64679 -1.0883,1.00479 -2.681,1.14154 -4.04999,0.7199 z"
     style="fill:#338000;fill-opacity:1;stroke:#338000;stroke-width:0.529167;stroke-linecap:round;stroke-miterlimit:4;stroke-dasharray:none;stroke-opacity:1"
     id="path1049" />
  <path
     d="m 207.56112,14.106731 c 1.67095,-0.0122 -1.25485,0.027 -0.95385,-0.0309 1.68102,-0.12318 3.36373,-0.34085 4.98826,-0.80292 0.70463,0.18287 2.23479,0.0969 2.45448,0.432 -2.95929,0.84477 -6.06893,0.88205 -9.1213,0.82428 0.87356,-0.15074 1.75631,-0.27702 2.63241,-0.42242 z"
     style="fill:#338000;fill-opacity:1;stroke:#338000;stroke-width:0.529167;stroke-linecap:round;stroke-miterlimit:4;stroke-dasharray:none;stroke-opacity:1"
     id="path1051" />
  <path
     d="m 224.75505,1.0631409 c 0.73734,6.08374 -1.78334,11.8627101 -3.07669,17.6856701 -0.13059,1.25636 -0.8656,3.13255 -2.46449,2.68314 -1.64318,-0.81893 0.78157,-1.95532 1.71687,-1.88711 2.68353,-0.45929 5.42994,-0.66184 8.15043,-0.51403 1.86101,0.16011 3.72001,0.48125 5.51714,0.98029 1.68824,0.666 -0.4054,1.29382 -1.26704,0.88256 -1.75187,-0.42627 -3.43464,-1.15527 -5.25995,-1.23667 -0.74289,0.002 -1.22224,-0.36386 -0.18178,-0.25001 1.08664,0.0733 -1.20116,0.13301 -1.59112,0.18553 -2.05695,0.11856 -4.1798,0.4822 -5.90518,1.68062 -1.18688,0.64031 -2.61236,-0.75694 -1.77404,-1.93118 0.66478,-1.18581 0.67512,-2.59057 1.12026,-3.86202 1.03842,-3.9627 2.36652,-7.9440101 2.39372,-12.0751801 -0.40373,-1.10389 0.061,-2.93343002 1.59085,-2.38494 0.3405,0.0473 0.68783,0.10066 1.03102,0.0433 z"
     style="fill:#338000;fill-opacity:1;stroke:#338000;stroke-width:0.529167;stroke-linecap:round;stroke-miterlimit:4;stroke-dasharray:none;stroke-opacity:1"
     id="path1053" />
  <path
     d="m 142.20237,45.433301 c -2.46637,0.54812 -5.19194,2.81819 -4.51429,5.59492 0.98287,2.27518 4.17175,1.55094 6.1232,2.32658 2.35851,0.3271 4.25033,2.25912 4.57908,4.60527 0.3376,2.55074 0.31818,5.89521 -2.14934,7.41143 -3.24559,1.68755 -6.90969,3.15452 -10.64114,2.54725 0.74784,-0.74511 4.2003,-0.12994 1.58464,-0.32713 -1.76982,0.0162 1.56181,-0.34968 2.16466,-0.71834 1.75376,-0.61327 3.55164,-1.29364 5.0404,-2.41604 1.6587,-1.90005 1.60009,-4.75799 1.0694,-7.08226 -0.62757,-2.68785 -3.44092,-3.71414 -5.90011,-3.94528 -2.1216,-0.18738 -5.31255,-0.923 -4.73018,-3.73976 0.32236,-2.37225 2.55878,-4.23713 4.85931,-4.57635 0.83711,0.11441 1.67617,0.21376 2.51437,0.31971 z"
     style="fill:#0044aa;fill-opacity:1;stroke:#0044aa;stroke-width:0.529167;stroke-linecap:round;stroke-miterlimit:4;stroke-dasharray:none;stroke-opacity:1"
     id="path1055" />
  <path
     d="m 156.53511,46.617451 c 0.99133,1.93868 1.67616,4.05794 1.69002,6.25189 0.28535,3.25212 1.05683,6.4961 0.66934,9.77461 0.34771,1.36241 -0.91189,1.45138 -1.857,1.04279 -2.11024,0.002 1.54561,-0.20911 1.41067,-0.2931 -0.97193,-0.0517 -2.92769,1.01053 -2.31195,-0.75377 0.29067,-2.53524 -0.0774,-5.06576 -0.43464,-7.57375 -0.30364,-2.42403 -0.22846,-4.98586 -1.40123,-7.20889 -0.49175,-0.59639 -0.60851,-1.47303 0.41332,-1.15523 0.60713,-0.0281 1.21456,-0.0564 1.82147,-0.0846 z"
     style="fill:#0044aa;fill-opacity:1;stroke:#0044aa;stroke-width:0.529167;stroke-linecap:round;stroke-miterlimit:4;stroke-dasharray:none;stroke-opacity:1"
     id="path1057" />
  <path
     d="m 151.75331,48.870971 c 0.32372,0.33136 2.0598,0.46583 0.86607,0.47264 -0.40247,-0.007 -1.6032,0.0783 -1.47618,-0.0301 3.161,-0.5467 5.61337,-2.76784 8.13387,-4.57663 0.99845,-0.50011 1.4595,-1.89906 2.68237,-1.94954 0.6376,0.13495 1.52793,-0.094 1.98584,0.39844 -0.42872,0.60531 -1.10705,1.03658 -1.63642,1.57724 -1.19277,1.01884 -2.52845,1.85023 -3.78779,2.78222 -1.92219,1.36523 -4.19543,2.43683 -6.6097,2.28311 -0.83951,-0.11014 -1.99296,-0.0571 -2.57238,-0.64228 0.73907,-0.24764 1.62611,-0.1379 2.41432,-0.31509 z"
     style="fill:#0044aa;fill-opacity:1;stroke:#0044aa;stroke-width:0.529167;stroke-linecap:round;stroke-miterlimit:4;stroke-dasharray:none;stroke-opacity:1"
     id="path1059" />
  <path
     d="m 163.69898,61.961701 c 2.51777,-4.58791 4.26895,-9.55128 5.95759,-14.49007 0.85374,-1.31697 -0.0604,-3.87437 1.77721,-4.29444 1.76005,-0.52735 2.45698,1.0222 2.8629,2.40979 1.36849,3.88508 4.15702,7.12951 5.16,11.16605 0.57079,0.97216 0.68711,2.23848 -0.78069,1.84493 -2.69723,0.27719 -1.83255,-3.49707 -3.19083,-5.0058 -1.3106,-2.73152 -3.05102,-5.25815 -4.04386,-8.13522 -0.78183,-0.91708 -1.12612,-2.78769 0.7198,-2.1309 2.22958,0.0738 0.25567,2.92242 0.2353,4.25854 -1.5592,4.6884 -3.3515,9.31912 -5.46497,13.77849 -0.75586,1.25318 -2.10951,0.55868 -3.23245,0.59863 z"
     style="fill:#0044aa;fill-opacity:1;stroke:#0044aa;stroke-width:0.529167;stroke-linecap:round;stroke-miterlimit:4;stroke-dasharray:none;stroke-opacity:1"
     id="path1061" />
  <path
     d="m 166.98103,53.200591 c 1.62582,-0.15135 3.26081,-0.13184 4.89156,-0.10754 -0.51818,0.0222 -2.59039,0.0441 -1.09124,-0.033 1.61548,-0.16283 3.20042,-0.74251 4.49394,-1.7324 0.61569,0.26984 2.58327,-0.22019 2.30654,0.60415 -2.16497,1.5459 -4.92539,1.75034 -7.49704,1.59828 -0.54491,-0.002 -1.39855,0.008 -0.39991,0.004 0.50023,0.008 2.27385,-0.0319 0.9129,0.0242 -1.22281,0.0766 -2.41693,-0.17202 -3.61675,-0.35745 z"
     style="fill:#0044aa;fill-opacity:1;stroke:#0044aa;stroke-width:0.529167;stroke-linecap:round;stroke-miterlimit:4;stroke-dasharray:none;stroke-opacity:1"
     id="path1063" />
  <path
     d="m 189.0862,41.435371 c 0.79327,2.17537 1.33203,4.4493 1.34629,6.77465 0.16626,3.32762 0.001,6.6669 -0.40373,9.97231 0.23554,1.51261 -2.09082,1.02391 -2.88973,0.73055 0.14936,-1.15205 0.3578,-2.34225 0.43246,-3.52405 0.23691,-3.29332 0.29102,-6.6253 -0.13949,-9.90405 -0.22592,-1.35051 -0.6116,-2.67201 -1.11656,-3.94396 0.92358,-0.0352 1.84717,-0.0703 2.77076,-0.10545 z"
     style="fill:#0044aa;fill-opacity:1;stroke:#0044aa;stroke-width:0.529167;stroke-linecap:round;stroke-miterlimit:4;stroke-dasharray:none;stroke-opacity:1"
     id="path1065" />
  <path
     d="m 182.63887,44.265101 c 0.31804,0.0441 1.21376,0.0875 0.37484,0.0718 -0.46656,0.0137 -1.37148,-0.008 -0.42272,-0.0156 2.88877,-0.0662 5.73123,-1.03027 8.08134,-2.70797 0.9258,-0.60211 1.82181,-1.24812 2.72717,-1.88011 0.82429,-0.0805 2.35895,-0.0873 2.71292,0.32126 -2.82046,1.91531 -5.69682,4.13595 -9.1984,4.51972 -2.29921,0.24807 -4.62501,0.31308 -6.9298,0.0973 0.87929,-0.16963 1.7715,-0.26473 2.65465,-0.40639 z"
     style="fill:#0044aa;fill-opacity:1;stroke:#0044aa;stroke-width:0.529167;stroke-linecap:round;stroke-miterlimit:4;stroke-dasharray:none;stroke-opacity:1"
     id="path1067" />
  <path
     d="m 202.93197,39.911001 c 2.2442,4.82977 1.2594,10.30005 0.993,15.41268 0.54787,2.04545 -3.68906,1.0094 -1.00796,0.0674 3.40231,-2.27285 8.11194,-2.78996 11.72804,-0.70899 -1.28397,1.056 -5.59551,-0.4912 -5.04438,-0.79446 -0.92507,0.2102 -4.07152,1.73815 -5.55518,2.95593 -2.62649,2.07404 -3.89366,-1.46861 -2.71393,-3.48592 0.42749,-3.73871 0.36407,-7.54986 -0.29027,-11.26231 -1.42805,-1.66278 0.35203,-2.58166 1.89068,-2.18436 z"
     style="fill:#0044aa;fill-opacity:1;stroke:#0044aa;stroke-width:0.529167;stroke-linecap:round;stroke-miterlimit:4;stroke-dasharray:none;stroke-opacity:1"
     id="path1069" />
  <path
     d="m 202.78163,40.411481 c 0.54909,0.1843 2.55864,0.24923 0.96782,0.24717 -0.57758,0.003 -2.13825,0.0475 -0.70148,-0.0554 2.33713,-0.33882 4.25961,-1.87112 5.9358,-3.43349 0.77645,-0.35066 2.62193,-0.30094 2.80747,0.12113 -1.16543,1.23367 -2.55602,2.29109 -4.06128,3.07665 -2.35773,1.06937 -5.04859,0.86217 -7.53489,0.45313 0.84147,-0.25025 1.72815,-0.2501 2.58656,-0.4092 z"
     style="fill:#0044aa;fill-opacity:1;stroke:#0044aa;stroke-width:0.529167;stroke-linecap:round;stroke-miterlimit:4;stroke-dasharray:none;stroke-opacity:1"
     id="path1071" />
  <path
     d="m 201.98769,48.877951 c 2.15531,-0.65668 4.6611,-0.70958 6.34032,-2.41311 0.927,-0.79222 2.20041,-0.73637 3.32733,-0.69988 0.87249,0.6284 -1.13666,1.12763 -1.47061,1.63585 -1.1828,0.99255 -2.72443,1.17 -4.16786,1.51473 -1.1103,0.4139 -2.25624,0.21534 -3.38959,0.0447 -0.21319,-0.0274 -0.42639,-0.0549 -0.63959,-0.0823 z"
     style="fill:#0044aa;fill-opacity:1;stroke:#0044aa;stroke-width:0.529167;stroke-linecap:round;stroke-miterlimit:4;stroke-dasharray:none;stroke-opacity:1"
     id="path1073" />
</svg>
