<?xml version="1.0" encoding="UTF-8" standalone="no"?>
<svg
   xmlns:dc="http://purl.org/dc/elements/1.1/"
   xmlns:cc="http://creativecommons.org/ns#"
   xmlns:rdf="http://www.w3.org/1999/02/22-rdf-syntax-ns#"
   xmlns:svg="http://www.w3.org/2000/svg"
   xmlns="http://www.w3.org/2000/svg"
   xmlns:sodipodi="http://sodipodi.sourceforge.net/DTD/sodipodi-0.dtd"
   xmlns:inkscape="http://www.inkscape.org/namespaces/inkscape"
   inkscape:version="1.0 (4035a4fb49, 2020-05-01)"
   sodipodi:docname="py-magic.svg"
   width="600"
   height="300"
   viewBox="0 0 158.75 79.375"
   version="1.1"
   id="svg8">
  <sodipodi:namedview
     inkscape:current-layer="svg8"
     inkscape:window-maximized="0"
     inkscape:window-y="19"
     inkscape:window-x="0"
     inkscape:cy="149.51726"
     inkscape:cx="302.62072"
     inkscape:zoom="2.8284271"
     showgrid="false"
     id="namedview34"
     inkscape:window-height="1061"
     inkscape:window-width="1920"
     inkscape:pageshadow="2"
     inkscape:pageopacity="0"
     guidetolerance="10"
     gridtolerance="10"
     objecttolerance="10"
     borderopacity="1"
     bordercolor="#666666"
     pagecolor="#ffffff" />
  <defs
     id="defs2" />
  <metadata
     id="metadata5">
    <rdf:RDF>
      <cc:Work
         rdf:about="">
        <dc:format>image/svg+xml</dc:format>
        <dc:type
           rdf:resource="http://purl.org/dc/dcmitype/StillImage" />
        <dc:title></dc:title>
      </cc:Work>
    </rdf:RDF>
  </metadata>
  <g
     id="layer1"
     transform="translate(0,-217.62501)">
    <path
       id="path3057"
       style="fill:#ffff00;stroke:#ffff00;stroke-width:0.264583px;stroke-linecap:butt;stroke-linejoin:miter;stroke-opacity:1"
       d="m 47.585738,222.91957 c -0.01819,0.63463 0.121156,1.40314 -0.44289,1.85855 -0.564073,0.48031 -0.934544,1.13781 -1.602006,1.54517 -0.904678,0.41498 0.596768,0.0126 0.940155,0.30141 0.677527,0.31851 1.447131,0.601 1.903607,1.21793 0.491732,0.50164 0.677131,1.18398 0.97255,1.80036 0.419624,-0.72225 0.355848,-1.63202 0.926187,-2.27604 0.427251,-0.47325 0.939841,-0.87745 1.465781,-1.23707 0.286449,-0.0757 0.779186,-0.40883 0.175903,-0.27008 -0.74506,0.019 -1.815645,-0.30871 -2.27803,-0.56057 -0.647839,-0.1827 -1.031911,-0.7582 -1.339274,-1.2604 -0.442186,-0.30453 -0.704645,-0.54759 -0.721983,-1.11926 z" />
    <path
       style="opacity:1;fill:#ffffff;fill-opacity:1;stroke:#ffffff;stroke-width:0.52916664;stroke-linecap:round;stroke-miterlimit:4;stroke-dasharray:none;stroke-opacity:1"
       id="path3049"
       d="m 33.665345,235.97575 c -0.286605,0.0328 -0.573792,0.0592 -0.861748,0.0764 0.154128,-0.56012 -1.505683,0.36351 -1.810115,-0.17633 -0.07435,-0.16257 -0.01646,-0.34517 0.06299,-0.49341 0.154602,-0.21491 0.387173,-0.32474 0.63363,-0.39887 0.577458,-0.0958 1.244595,-0.0316 1.779783,-0.007 0.101129,0.005 0.178856,0.12918 0.224872,0.20118 0.104743,0.24647 0.0047,0.47207 -0.135609,0.67906 -0.22238,0.2564 -0.537501,0.36041 -0.857578,0.43421 -0.586473,0.11092 -1.137058,0.0489 -1.764181,0.0425 -0.08674,-9e-4 -0.135644,-0.0276 -0.177104,-0.0964 -0.0019,-0.0314 -0.01045,-0.0632 -0.0055,-0.0943 0.02818,-0.17839 0.326387,-0.39413 0.453255,-0.50572 0.262247,-0.22188 0.561112,-0.39388 0.870217,-0.54105 0.558483,-0.25635 0.269843,-0.17764 1.578872,0.0879 0.03707,0.008 -0.02013,0.13665 -0.06128,0.24232 -0.206436,0.33865 -0.571555,0.50536 -0.923165,0.65384 -0.686012,0.25565 -1.517121,0.3508 -2.217521,0.15163 -0.198062,-0.19872 0.07097,-0.40332 0.232019,-0.50246 0.301328,-0.16478 0.629253,-0.27295 0.959537,-0.36267 0.123016,-0.0415 0.255096,-0.0493 0.377968,-0.0889 0,0 1.398897,0.1716 1.398897,0.1716 v 0 c -0.03891,0.0158 -0.07458,0.0401 -0.114998,0.0516 -0.0886,0.0252 -0.190236,0.0141 -0.277053,0.05 -0.327763,0.0771 -0.654439,0.17277 -0.954516,0.32775 -0.05789,0.0275 -0.148569,0.0658 -0.20329,0.10659 -0.02143,0.016 -0.0411,0.0617 -0.0775,0.0555 -0.01707,-0.003 0.140612,-0.0473 0.0518,-0.004 0.495583,0.0374 0.229468,0.0152 -1.211299,0.0155 -0.0406,1e-5 0.08106,-0.005 0.121417,-0.01 0.183954,-0.0204 0.366273,-0.0537 0.537728,-0.12641 0.32887,-0.1298 0.673603,-0.26279 0.899563,-0.54944 0.01492,-0.0276 0.03411,-0.0532 0.04475,-0.0827 0.008,-0.0222 -0.01323,-0.0692 0.01037,-0.0701 0.461381,-0.0169 0.923248,0.0202 1.384938,0.0191 0.01349,-3e-5 -0.02024,-0.0217 -0.03373,-0.0224 -0.04617,-0.002 -0.0847,0.0527 -0.13063,0.0466 -0.311682,0.12812 -0.612902,0.28493 -0.87527,0.49877 -0.170472,0.14562 -0.09098,0.0732 -0.24337,0.22005 -0.0516,0.0497 -0.09718,0.10677 -0.15527,0.14876 -0.03635,0.0263 -0.03043,0.008 -0.03007,-0.0101 0.03559,-0.009 0.292563,0.002 0.156024,0.003 -2.301832,0.0251 -1.499116,0.0472 -1.004376,-0.0184 0.304032,-0.0519 0.605985,-0.12291 0.844042,-0.33237 0.113612,-0.13834 0.236659,-0.31908 0.129111,-0.49481 -0.04871,-0.0439 -0.05118,-0.0548 -0.117666,-0.0763 -0.02951,-0.01 -0.121943,-0.0188 -0.09094,-0.0196 2.280849,-0.0527 1.48857,-0.003 0.992241,-0.009 -0.229452,0.0457 -0.45243,0.1207 -0.617112,0.29604 -0.06663,0.0765 -0.133567,0.22032 -0.05757,0.3119 0.410977,0.19426 1.710714,-0.0882 -0.980935,0.0641 0.286454,-0.0122 0.572595,-0.0326 0.857123,-0.0687 0,0 1.388314,0.20417 1.388314,0.20417 z" />
    <path
       style="fill:#ffffff;stroke:#ffffff;stroke-width:0.26458332px;stroke-linecap:butt;stroke-linejoin:miter;stroke-opacity:1"
       d="m 73.327381,255.32813 c 0.06299,0.15749 0.04163,0.38846 0.188986,0.47247 0.08299,0.0473 0.107366,0.128 0.08769,0.22603 -0.02043,0.10181 0.109079,0.11424 0.109648,0.22773 5.04e-4,0.10052 -0.09024,0.24167 -0.0083,0.30221 0.07446,0.055 0.100948,0.12335 0.0999,0.22332 -0.0028,0.26675 0.05008,0.53905 -0.0043,0.80021 -0.01122,0.0539 -0.09992,-0.0394 -0.102136,0.0688 -0.0022,0.10817 0.09517,0.26304 0.0066,0.32509 -0.03939,0.0276 -0.105295,-0.0387 -0.08614,0.0507 0.02188,0.10203 -0.170933,-0.006 -0.113618,0.0984 0.03265,0.0595 0.05118,0.11879 -0.0627,0.12814 -0.06501,0.005 0.03487,0.13201 -0.06827,0.10077 -0.10697,-0.0324 -0.0019,0.10262 -0.09449,0.14171 -0.09622,0.0406 7.38e-4,0.15949 -0.108345,0.19939 -0.07643,0.028 0.03,0.15678 -0.09408,0.12748 -0.08831,-0.0208 0.03112,0.12039 -0.08106,0.0984 -0.117536,-0.023 -0.0045,0.13072 -0.04039,0.18001 -0.05148,0.0707 -0.253261,-0.0541 -0.203259,0.0292 0.06465,0.10763 -0.100173,0.11614 -0.08099,0.23103 0.01433,0.0858 -0.135459,-0.0285 -0.100571,0.0795 0.03398,0.10516 -0.138657,-0.009 -0.128403,0.10276 0.004,0.0439 0.07799,0.0419 -0.003,0.0397 -0.07577,-0.002 -0.152565,-0.026 -0.226785,-0.0101 -0.06561,0.014 0.03816,0.1032 -0.06112,0.1054 -0.151911,0.003 -0.318613,-0.0627 -0.456009,0.002 -0.07206,0.0337 -0.03217,-0.0399 -0.06409,-0.0881 -0.04796,-0.0725 -0.249806,0.0538 -0.200738,-0.0306 0.0394,-0.0678 -0.02029,-0.0368 -0.07699,-0.0703 -0.04138,-0.0245 -0.186986,-0.11098 -0.149835,-0.0983 0.09582,0.0326 0.114214,-0.13408 0.03456,-0.0993 -0.07232,0.0316 -0.0088,-0.0443 -0.07946,-0.0795 -0.04105,-0.0204 -0.22804,-0.0675 -0.130516,-0.0839 0.0888,-0.0149 0.06552,-0.16294 -0.01151,-0.12712 -0.0693,0.0322 -0.06456,0.0261 -0.143804,-0.0708 -0.05922,-0.0724 -0.132849,-0.24685 -0.215626,-0.20305 -0.07174,0.038 -0.02161,-0.0397 -0.06549,-0.0821 -0.03933,-0.0381 -0.129799,0.0276 -0.147218,-0.0568 -0.0202,-0.0979 -0.148449,0.0238 -0.137819,-0.10793 0.0069,-0.0854 -0.07963,-0.0296 -0.14803,-0.0589 -0.03786,-0.0162 -0.162361,-0.0693 -0.05227,-0.0691 0.121659,1.8e-4 -7.67e-4,-0.0375 -0.07755,-0.0893 -0.03838,-0.0258 0.03449,-0.13498 -0.05679,-0.1 -0.106534,0.0408 0.0053,-0.15688 -0.09947,-0.10854 -0.08654,0.0399 -0.145796,-0.005 -0.217392,-0.0715 -0.06015,-0.0561 -0.256243,0.0541 -0.209119,-0.03 0.04015,-0.0717 -0.02505,-0.0318 -0.07868,-0.068 -0.03838,-0.0258 0.03449,-0.13498 -0.05679,-0.1 -0.106535,0.0408 0.0049,-0.15782 -0.09947,-0.10858 -0.08985,0.0424 -0.187605,0.0119 -0.23126,-0.0804 -0.04364,-0.0923 -0.134358,-0.10217 -0.231261,-0.0804 -0.11225,0.0252 0.01915,-0.11993 -0.110311,-0.10822 -0.08724,0.008 -0.115635,-0.029 -0.214397,-0.0913 -0.06334,-0.04 -0.130981,-0.0121 -0.190681,-0.0922 -0.02786,-0.0374 0.01566,-0.16216 -0.07381,-0.11244 -0.09335,0.0519 -0.141089,-0.0395 -0.218974,-0.0824 -0.05805,-0.032 -0.228662,0.0636 -0.192902,-0.0338 0.04447,-0.12114 -0.112039,-0.0285 -0.165991,-0.0497 -0.05607,-0.022 0.0375,-0.11552 -0.07717,-0.10516 -0.08724,0.008 -0.113751,-0.0321 -0.214396,-0.0913 -0.06326,-0.0373 -0.110478,-0.0335 -0.188983,-0.0945 -0.0671,-0.0521 -0.123054,-0.1454 -0.227765,-0.10146 -0.105012,0.0441 -0.164611,-0.0409 -0.2557,-0.091 -0.05806,-0.0319 -0.230292,0.063 -0.192903,-0.0338 0.04433,-0.11484 -0.131238,-0.0647 -0.191474,-0.0595 -0.0906,0.008 -0.167892,0.002 -0.251111,-0.0753 -0.0918,-0.0852 -0.277607,0.0799 -0.323221,-0.0296 -0.04507,-0.10814 -0.158436,-0.0802 -0.254456,-0.0837 -0.08898,-0.003 -0.189023,0.0254 -0.261843,-0.0627 -0.06421,-0.0777 -0.178458,-0.0443 -0.263489,-0.0314 -0.08552,0.013 -0.174604,0.004 -0.245315,-0.0512 -0.07103,-0.0555 -0.164625,-0.0667 -0.248451,-0.0466 -0.08697,0.0208 -0.123916,-0.0446 -0.210722,-0.0842 -0.07101,-0.0324 -0.157889,-0.0264 -0.230583,-0.004 -0.07456,0.0228 -0.02032,-0.0501 -0.06128,-0.0897 -0.03933,-0.0381 -0.106574,0.0192 -0.147218,-0.0568 -0.04644,-0.0869 -0.156106,-0.0636 -0.231099,-0.0445 -0.06059,0.0154 -0.06529,0.008 -0.09336,-0.0763 -0.03082,-0.0926 -0.238103,0.0478 -0.200738,-0.0306 0.03059,-0.0641 -4.66e-4,-0.0966 -0.08197,-0.095 -0.06003,0.001 -0.231828,0.063 -0.199943,-0.0238 0.04447,-0.1211 -0.110653,-0.0324 -0.165987,-0.0497 -0.06269,-0.0196 0.03802,-0.11103 -0.06625,-0.11096 -0.07868,5e-5 -0.189093,0.0691 -0.236311,0.006 -0.05501,-0.074 -0.122977,-0.11315 -0.226029,-0.0877 -0.100852,0.0249 -0.110794,-0.0615 -0.223747,-0.0974 -0.07589,-0.0241 -0.156596,-0.002 -0.211673,-0.0985 -0.04727,-0.083 -0.128839,-0.11112 -0.226028,-0.0877 -0.100692,0.0243 -0.120242,-0.15311 -0.221645,-0.10628 -0.09394,0.0434 -0.182292,-0.0208 -0.224052,-0.1035 -0.03625,-0.0718 -0.131144,-0.0251 -0.17872,-0.0805 -0.0566,-0.066 -0.108665,-0.0855 -0.225515,-0.0803 -0.102231,0.005 -0.16724,4.9e-4 -0.237645,-0.10287 -0.02621,-0.0385 0.01365,-0.16319 -0.07692,-0.10814 -0.07064,0.0429 -0.04108,-0.005 -0.115881,-0.0771 -0.03933,-0.0381 -0.110356,0.0211 -0.147218,-0.0568 -0.0461,-0.0974 -0.166951,0.008 -0.225445,-0.0429 -0.0646,-0.0558 -0.114665,-0.11884 -0.224568,-0.0939 -0.109493,0.0249 -0.163833,-0.0954 -0.218484,-0.16512 -0.06111,-0.078 -0.155526,0.003 -0.229192,-0.0288 -0.09267,-0.0398 -0.123928,-0.23534 -0.225392,-0.1893 -0.08326,0.0378 -0.01474,-0.0963 -0.05809,-0.0942 -0.07721,0.004 -0.149532,-0.0271 -0.227137,-0.0598 -0.09694,-0.0408 -0.150012,-0.13206 -0.217371,-0.20621 -0.04083,-0.045 -0.127754,0.0385 -0.118532,-0.0782 0.007,-0.0881 -0.107224,0.0101 -0.145661,-0.0811 -0.04058,-0.0962 -0.150979,-0.003 -0.199327,-0.10835 -0.03357,-0.0734 -0.172679,0.0228 -0.134531,-0.10298 0.01654,-0.0545 -0.13802,0.0251 -0.09136,-0.0722 0.0374,-0.0779 -0.08681,-0.14659 -0.09409,-0.0203 -0.0046,0.0804 -0.05498,-0.0662 -0.07762,-0.0871 -0.0459,-0.0425 0.03819,-0.1364 -0.07537,-0.1285 -0.116303,0.008 -0.127027,-0.2211 -0.225391,-0.18931 -0.07478,0.0242 -0.01929,-0.0435 -0.09449,-0.0945 -0.07784,-0.0528 -0.07732,-0.18074 -0.163383,-0.19971 -0.09095,-0.02 -0.203918,0.0679 -0.272551,-0.0331 -0.04958,-0.0729 -0.105408,-0.11761 -0.214524,-0.14175 -0.116767,-0.0258 -0.09071,-0.15605 -0.132849,-0.23595 -0.04815,-0.0913 -0.141392,-0.0254 -0.211063,-0.085 -0.08926,-0.0764 -0.134406,-0.30418 -0.245285,-0.25259 -0.05648,0.0263 -0.05051,0.004 -0.08045,-0.0678 -0.03629,-0.0865 -0.114746,-0.24854 -0.20278,-0.216 -0.08226,0.0304 -0.144459,-0.0373 -0.193135,-0.0962 -0.0554,-0.067 -0.104781,-0.2305 -0.184848,-0.18729 -0.108566,0.0586 -0.128434,-0.11117 -0.227444,-0.088 -0.101922,0.0239 0.0058,-0.0999 -0.09913,-0.13368 -0.08969,-0.0289 -0.178924,-0.0707 -0.227305,-0.15647 -0.04085,-0.0724 -0.12701,-0.0425 -0.191067,-0.0909 -0.07884,-0.0595 -0.127229,-0.1558 -0.212417,-0.20809 -0.07637,-0.0469 -0.192352,-0.15644 -0.255263,-0.0917 -0.02455,0.0253 0.06812,0.0988 6.44e-4,0.0503 -0.08094,-0.0582 -0.186481,-0.0923 -0.243337,-0.17495 -0.05074,-0.0737 -0.122121,-0.18736 -0.222451,-0.14442 -0.102878,0.044 -0.14828,-0.0649 -0.223639,-0.10634 -0.07768,-0.0427 -0.163245,-0.0691 -0.22224,-0.14574 -0.06833,-0.0888 -0.207297,0.036 -0.266384,-0.0592 -0.06396,-0.10306 -0.187218,-0.13918 -0.293573,-0.18036 -0.100329,-0.0389 -0.180978,-0.10903 -0.254877,-0.18819 -0.05617,-0.0602 -0.101919,-0.20547 -0.179794,-0.17231 -0.106779,0.0455 -0.139275,-0.0856 -0.224007,-0.11679 -0.08738,-0.0322 -0.129048,-0.14238 -0.223487,-0.15448 -0.0735,-0.009 -0.140252,-0.0187 -0.201635,-0.0882 -0.06325,-0.0717 -0.109188,-0.24673 -0.20132,-0.2075 -0.106779,0.0455 -0.140028,-0.0836 -0.223998,-0.11679 -0.09041,-0.0358 -0.180298,-0.0801 -0.237474,-0.16323 -0.114388,-0.16635 -0.347465,-0.16233 -0.485879,-0.29335 -0.09931,-0.094 -0.183055,-0.21349 -0.320504,-0.25833 -0.08093,-0.0264 -0.174194,0.004 -0.221216,-0.0996 -0.03977,-0.0874 -0.130201,-0.12336 -0.225013,-0.10119 -0.110911,0.0259 -0.155193,-0.1 -0.219505,-0.16266 -0.06261,-0.061 -0.137577,-0.0303 -0.224823,-0.079 -0.09936,-0.0554 0.121663,-0.0135 0.08352,-0.0368 -0.07231,-0.0441 -0.159369,-0.0823 -0.245474,-0.0927 -0.08499,-0.0102 -0.13977,-0.0344 -0.222049,-0.10124 -0.07197,-0.0585 -0.07592,-0.18126 -0.161301,-0.20329 -0.08659,-0.0223 -0.177176,0.052 -0.261016,-0.0242 -0.117888,-0.10709 -0.172919,-0.35722 -0.331555,-0.34308 -0.08157,0.007 -0.158611,-0.0255 -0.239088,-0.0487 -0.03911,-0.0113 -0.190735,-0.0871 -0.07847,-0.0487 0.05228,0.0179 0.07764,0.0168 0.03013,-0.0424 -0.06645,-0.0827 -0.167335,-0.0176 -0.235412,-0.0921 -0.100926,-0.11038 -0.202648,-0.22082 -0.311786,-0.32375 -0.0602,-0.0568 -0.255108,-0.0511 -0.211066,-0.12687 0.0394,-0.0677 -0.01915,-0.0388 -0.07699,-0.0703 -0.08974,-0.0489 -0.187756,-0.13375 -0.210269,-0.227 -0.02541,-0.10525 -0.140641,-0.0505 -0.218269,-0.0522 -0.06859,-0.002 -0.109528,-0.0321 -0.134645,-0.13956 -0.01342,-0.0574 -0.03006,-0.13548 -0.134182,-0.13848 -0.07905,-0.002 -0.288382,-0.12676 -0.220993,-0.10742 0.06006,0.0172 0.129417,-1.4e-4 0.07303,-0.0772 -0.04057,-0.0555 -0.116692,0.0191 -0.158092,-0.0645 -0.04672,-0.0943 -0.133003,-0.0296 -0.218664,-0.11299 -0.04589,-0.0446 0.02856,-0.16956 -0.07434,-0.13175 -0.09079,0.0334 -0.149464,-0.0225 -0.226722,-0.086 -0.06616,-0.0544 -0.122933,-0.15079 -0.194565,-0.18028 -0.08386,-0.0345 -0.184463,-0.0721 -0.22961,-0.15226 -0.0504,-0.0894 -0.135452,-0.059 -0.226882,-0.0843 -0.09467,-0.0262 -0.141201,-0.11944 -0.221917,-0.16379 -0.07768,-0.0427 -0.163715,-0.0687 -0.22224,-0.14574 -0.0679,-0.0894 -0.228838,0.0463 -0.26565,-0.0604 -0.03783,-0.10965 -0.136417,-0.0642 -0.223047,-0.0971 -0.08936,-0.0339 -0.179306,-0.085 -0.219929,-0.1726 -0.03967,-0.0855 -0.158327,-0.0247 -0.19438,-0.0864 -0.0399,-0.0683 -0.117529,-0.0319 -0.175116,-0.0855 -0.05214,-0.0485 -0.09165,-0.0613 -0.177994,-0.091 -0.09893,-0.0341 -0.122075,-0.23362 -0.222669,-0.19643 -0.110219,0.0408 -0.169053,-0.085 -0.220597,-0.15619 -0.06114,-0.0844 -0.220164,0.0552 -0.229192,-0.0288 -0.0046,-0.0431 0.03327,-0.0977 -0.05809,-0.0942 -0.111345,0.004 -0.125264,-0.20123 -0.225391,-0.18931 -0.04781,0.006 -0.09763,0.0286 -0.09057,-0.0607 0.007,-0.0881 -0.129202,0.0165 -0.145651,-0.0811 -0.01673,-0.0992 -0.161409,0.018 -0.139536,-0.0976 0.01893,-0.10004 -0.12461,-0.0289 -0.179844,-0.0412 -0.106506,-0.0237 -0.121577,-0.23343 -0.223028,-0.19593 -0.110215,0.0407 -0.166403,-0.087 -0.220591,-0.15619 -0.06112,-0.078 -0.17051,0.0258 -0.229188,-0.0288 -0.05214,-0.0485 -0.101456,-0.0412 -0.177997,-0.091 -0.06394,-0.0416 -0.109147,-0.0501 -0.199973,-0.098 -0.0857,-0.0452 -0.178281,-0.079 -0.245846,-0.15687 -0.05838,-0.0673 -0.149352,-0.0184 -0.226627,-0.0794 -0.06561,-0.0518 -0.14629,-0.0555 -0.226718,-0.0388 -0.10031,0.0209 -0.111948,-0.0592 -0.223057,-0.099 -0.07661,-0.0274 -0.110161,-0.12856 -0.222684,-0.0993 -0.0834,0.0217 -0.160248,-0.03 -0.238265,-0.0514 -0.04026,-0.011 -0.177183,-0.0824 -0.06829,-0.0452 0.05227,0.0179 0.08598,0.009 0.03013,-0.0424 -0.05462,-0.0502 -0.195594,0.0138 -0.185035,-0.0492 0.0096,-0.0575 -2.38e-4,-0.15061 -0.08098,-0.0987 -0.06179,0.0398 -0.0464,0.006 -0.09926,-0.0728 -0.04572,-0.0685 -0.172015,0.0413 -0.212297,-0.0249 -0.04094,-0.0672 -0.115458,-0.0323 -0.174431,-0.0872 -0.05214,-0.0485 -0.09661,-0.0496 -0.177994,-0.091 -0.09554,-0.0487 -0.147022,-0.15485 -0.226652,-0.22342 -0.06506,-0.056 -0.115859,-0.16176 -0.221961,-0.15554 -0.07605,0.004 -0.111218,-0.0784 -0.158564,-0.1262 -0.07705,-0.0778 -0.14007,-0.1703 -0.226092,-0.238 -0.07694,-0.0606 -0.180342,0.0271 -0.259151,-0.0408 -0.0671,-0.0578 -0.100383,-0.13749 -0.218795,-0.16052 -0.105358,-0.0205 -0.127903,-0.24002 -0.222915,-0.19609 -0.05978,0.0276 -0.04876,0.003 -0.07699,-0.0703 -0.02319,-0.0601 -0.09655,-0.006 -0.159317,-0.0634 -0.08317,-0.0766 -0.125239,-0.28551 -0.235924,-0.24459 -0.08226,0.0304 -0.144455,-0.0373 -0.193125,-0.0962 -0.0554,-0.067 -0.09961,-0.2191 -0.184847,-0.18729 -0.107462,0.0401 -0.16941,-0.0719 -0.220545,-0.14479 -0.05779,-0.0823 -0.172835,-6.7e-4 -0.223999,-0.10939 -0.03948,-0.0839 -0.122512,-0.15091 -0.223242,-0.11096 -0.08654,0.0343 -0.02225,-0.098 -0.07717,-0.10387 -0.04315,-0.005 -0.08548,0.0329 -0.09418,-0.0581 -0.0093,-0.0973 -0.09649,-0.21042 -0.189303,-0.22541 -0.04959,-0.008 -0.06959,0.0656 -0.06201,-0.0266 0.0068,-0.0828 -0.130765,-0.0171 -0.126971,-0.0679 0.0049,-0.065 -0.01213,-0.11445 -0.06625,-0.16885 -0.07083,-0.0712 -0.117103,-0.21807 -0.217229,-0.20914 -0.04572,0.004 -0.09755,0.0287 -0.09419,-0.0581 0.0043,-0.11134 -0.219786,-0.12928 -0.1893,-0.2254 0.01905,-0.0601 -0.05687,-0.2113 -0.08436,-0.13644 -0.01615,0.044 0.01468,0.14256 -0.04808,0.0564 -0.04556,-0.0626 0.01099,-0.18014 -0.05654,-0.20345 -0.03914,-0.0135 -0.100063,0.0375 -0.100002,-0.0472 5.7e-5,-0.0787 0.05298,-0.17295 0.0055,-0.23631 -0.02729,-0.0364 -0.108355,-0.17687 -0.09538,-0.1386 0.03244,0.0957 -0.133717,0.11433 -0.09909,0.0345 0.02333,-0.0537 0.01386,-0.0982 -0.06502,-0.089 -0.111349,0.013 -0.01646,-0.16333 0.03128,-0.18418 0.04343,-0.019 0.09374,0.0346 0.151507,-0.01 0.03129,-0.024 0.158937,-0.0988 0.120809,-0.0863 -0.09671,0.0317 -0.113944,-0.0649 -0.03514,-0.10061 0.05551,-0.0252 0.22089,0.0722 0.180016,-0.0404 -0.03984,-0.10974 0.094,0.0217 0.0847,-0.11036 -0.0059,-0.0843 0.125891,0.0318 0.104281,-0.0786 -0.02301,-0.11755 0.131643,-0.003 0.180016,-0.0404 0.03709,-0.0285 -0.0337,-0.13827 0.05622,-0.10136 0.105646,0.0434 -0.02877,-0.10236 0.107922,-0.0906 0.08596,0.007 -0.0057,-0.0854 0.07894,-0.13652 0.08641,-0.0522 0.0011,0.1709 0.08731,0.0525 0.04557,-0.0626 -0.01474,-0.19872 0.05654,-0.20345 0.04519,-0.003 0.111883,0.0311 0.09057,-0.0607 -0.02058,-0.0887 0.125766,0.0277 0.101481,-0.0789 -0.02571,-0.11287 0.166638,-0.1302 0.177664,-0.22407 0.0079,-0.0672 -2.37e-4,-0.0432 0.0932,-0.10339 0.03939,-0.0254 -0.03607,-0.12839 0.05458,-0.10307 0.09781,0.0273 0.111748,-0.0997 0.232672,-0.0969 0.418673,0.01 0.840727,-0.0464 1.25628,0.005 0.03692,0.005 0.06985,-0.0553 0.04542,0.0168 -0.02647,0.0781 0.07981,0.039 0.12148,0.0777 0.05214,0.0485 0.109972,0.0301 0.177997,0.091 0.06547,0.0587 0.118225,0.11958 0.229957,0.0858 0.08472,-0.0256 0.02618,0.0791 0.06452,0.10662 0.06845,0.0492 0.192577,-0.069 0.225887,0.0334 0.03681,0.11314 0.168822,0.0105 0.209679,0.1222 0.02795,0.0765 0.153883,-0.0306 0.127484,0.0941 -0.01975,0.0933 0.09372,-0.0296 0.09005,0.0845 -0.0035,0.10912 0.134534,0.008 0.186424,0.0396 0.06289,0.0386 0.103432,0.0448 0.188915,0.0952 0.06326,0.0373 0.09503,0.0621 0.188987,0.0945 0.09893,0.0341 0.122072,0.23362 0.22267,0.19643 0.108667,-0.0402 0.158605,0.0903 0.225363,0.14959 0.07923,0.0704 0.123358,0.25301 0.22442,0.22444 0.10246,-0.029 0.180581,0.0505 0.220383,0.13552 0.04761,0.10168 0.17458,0.004 0.215183,0.11457 0.02795,0.0764 0.12212,-0.0333 0.127474,0.0941 0.0045,0.10813 0.18111,-0.0383 0.192905,0.0338 0.0077,0.047 -0.03194,0.11124 0.05753,0.0938 0.100263,-0.0195 -0.01979,0.003 0.0179,0.0733 0.049,0.092 0.248539,-0.0505 0.213528,0.0314 -0.02401,0.0562 -0.01095,0.0549 0.06549,0.0821 0.0777,0.0277 0.115078,0.1361 0.229827,0.0879 0.07575,-0.0318 0.0236,0.0552 0.06999,0.0967 0.05776,0.0516 0.245103,-0.0466 0.204912,0.0248 -0.04595,0.0816 0.03859,0.033 0.08575,0.0769 0.05213,0.0485 0.0993,0.0447 0.177987,0.091 0.06326,0.0373 0.103347,0.0441 0.18899,0.0945 0.06326,0.0373 0.11495,0.0282 0.18898,0.0945 0.06547,0.0587 0.118231,0.11957 0.229966,0.0858 0.08472,-0.0256 0.02618,0.0791 0.06451,0.10662 0.06845,0.0492 0.185674,-0.0665 0.225889,0.0334 0.04099,0.10178 0.147669,0.0352 0.224593,0.0542 0.10777,0.0266 0.134023,0.24861 0.23366,0.1999 0.111201,-0.0544 0.146083,0.16797 0.24387,0.0994 0.105929,-0.0742 0.190769,0.0598 0.242445,0.13633 0.0583,0.0863 0.169274,0.004 0.226257,0.11052 0.04451,0.0828 0.206035,0.0283 0.209677,0.12221 0.0018,0.0468 -0.0247,0.13058 0.05676,0.10299 0.08711,-0.0295 0.186327,-0.01 0.228531,0.0816 0.03567,0.0772 0.111206,0.0662 0.18718,0.0989 0.09266,0.0398 0.12063,0.22726 0.225391,0.18931 0.117941,-0.0427 0.02563,0.0869 0.100993,0.14458 0.05661,0.0434 0.19706,0.19226 0.16879,0.16776 -0.07434,-0.0644 0.0016,-0.059 0.05925,-0.0353 0.1069,0.0439 0.163157,0.29585 0.25842,0.21018 0.07664,-0.0689 0.129532,0.052 0.131775,0.12067 0.0014,0.0418 -0.04245,0.0458 0.01707,0.0263 0.08293,-0.0272 0.02524,0.11801 0.07775,0.1215 0.04519,0.003 0.08662,-0.0335 0.09057,0.0607 0.0045,0.10813 0.185097,-0.0389 0.192905,0.0338 0.0046,0.0431 -0.03325,0.0982 0.05809,0.0942 0.08839,-0.004 0.162066,-0.008 0.225382,0.0948 0.04324,0.0703 0.12932,0.0356 0.18899,0.0945 0.05221,0.0515 0.103838,0.0374 0.179688,0.0887 0.03883,0.0262 -0.03515,0.13181 0.05434,0.10339 0.09692,-0.0308 0.121144,0.0254 0.227441,0.088 0.06326,0.0373 0.103352,0.0441 0.18899,0.0945 0.06326,0.0373 0.10334,0.0441 0.188987,0.0945 0.06326,0.0373 0.09478,0.0628 0.188983,0.0945 0.09916,0.0334 0.128537,0.24552 0.223499,0.19527 0.07174,-0.038 0.02161,0.0397 0.06549,0.0821 0.03933,0.0381 0.111785,-0.0218 0.147219,0.0568 0.04701,0.10424 0.185498,-0.0272 0.227397,0.0402 0.02525,0.0406 -0.0138,0.1643 0.07647,0.10939 0.07063,-0.043 0.03258,0.0146 0.115881,0.0771 0.04465,0.0335 0.09482,0.0221 0.166904,0.0448 0.05032,0.0159 0.09526,0.0785 0.0069,0.0577 -0.0435,-0.0102 -0.09585,-0.006 -0.02287,0.0164 0.08896,0.0278 0.176765,0.10628 0.267343,0.0846 0.08339,-0.0199 0.146657,-0.002 0.222707,0.0692 0.0529,0.0495 0.117423,-6.5e-4 0.178055,0.0815 0.05258,0.0712 0.151603,5.3e-4 0.205202,0.10023 0.04451,0.0828 0.22206,0.0291 0.209675,0.12216 -0.0073,0.0548 -0.0028,0.15155 0.07717,0.10387 0.09349,-0.0557 0.141673,0.0865 0.218161,0.0849 0.07535,-0.002 0.18956,-0.042 0.225295,0.0453 0.05761,0.14077 0.221502,-0.0431 0.272226,0.0828 0.04099,0.10178 0.150152,0.027 0.224593,0.0542 0.0736,0.0268 0.109244,0.0421 0.199974,0.098 0.03719,0.0229 0.176784,0.0924 0.130512,0.0972 -0.03732,0.004 -0.168282,-0.016 -0.06857,0.0156 0.08511,0.027 0.175495,0.11983 0.255946,0.0819 0.105898,-0.0499 0.122613,0.13492 0.223857,0.0971 0.09521,-0.0356 0.133414,0.11062 0.225202,0.0897 0.07671,-0.0175 0.10155,0.0565 0.175126,0.0855 0.05759,0.0227 0.118528,-0.007 0.165946,0.0701 0.05361,0.0869 0.167757,-0.0207 0.225895,0.0334 0.05214,0.0485 0.09988,0.0437 0.177994,0.091 0.04223,0.0256 0.140605,0.13791 0.128194,0.12716 -0.07434,-0.0644 0.0078,-0.0704 0.05925,-0.0353 0.06442,0.0439 0.107944,0.0566 0.201532,0.10066 0.08934,0.042 0.330423,0.0282 0.289117,0.12621 -0.05103,0.12104 0.0896,0.0497 0.160399,0.0966 0.06645,0.044 0.142097,0.0791 0.225466,0.0554 0.109155,-0.0311 0.161064,0.0903 0.215974,0.15845 0.06011,0.0746 0.155432,0.0156 0.231653,0.0328 0.106436,0.0239 0.126264,0.2444 0.222991,0.19602 0.106146,-0.0531 0.123211,0.13323 0.224569,0.0953 0.09521,-0.0356 0.133415,0.11062 0.225203,0.0897 0.07671,-0.0175 0.10155,0.0565 0.175126,0.0855 0.05759,0.0227 0.118112,-0.007 0.165944,0.0701 0.04658,0.0746 0.130881,3.1e-4 0.18899,0.0945 0.0536,0.0869 0.169352,-0.0224 0.225889,0.0334 0.0522,0.0515 0.128162,0.013 0.179681,0.0887 0.02621,0.0385 -0.01364,0.16319 0.07693,0.10814 0.07064,-0.0429 0.05134,-0.005 0.115877,0.0771 0.05622,0.0712 0.185291,-0.0603 0.220438,0.0299 0.04138,0.10621 0.143282,0.0496 0.228364,0.06 0.07682,0.009 -0.03462,0.1193 0.08724,0.10829 0.08723,-0.008 0.115643,0.029 0.214399,0.0914 0.06334,0.04 0.107923,0.0362 0.190681,0.0922 0.03883,0.0262 -0.03515,0.13183 0.05434,0.1034 0.09692,-0.0308 0.121144,0.0253 0.227441,0.088 0.06326,0.0373 0.09759,0.0555 0.18899,0.0945 0.134887,0.0576 0.175741,0.35888 0.305468,0.29042 0.107861,-0.0569 0.12917,0.11128 0.225233,0.091 0.09593,-0.0202 0.124711,0.0196 0.226935,0.0887 0.03882,0.0262 -0.0376,0.12244 0.05434,0.1034 0.0714,-0.0148 0.258613,0.1081 0.200629,0.0915 -0.06005,-0.0172 -0.124797,-0.003 -0.07303,0.0772 0.03266,0.0506 0.102042,-0.0394 0.10693,0.0779 0.0043,0.10374 0.144392,-0.0113 0.192905,0.0338 0.05213,0.0485 0.094,0.0551 0.177987,0.091 0.134887,0.0576 0.175741,0.35888 0.305468,0.29042 0.107861,-0.0569 0.1276,0.10128 0.225242,0.091 0.07098,-0.007 0.256732,0.11127 0.198412,0.0945 -0.06006,-0.0172 -0.129426,1.4e-4 -0.07303,0.0772 0.04057,0.0555 0.116947,-0.0192 0.158101,0.0645 0.0463,0.0941 0.155491,0.0101 0.215538,0.11403 0.04531,0.0784 0.137917,0.0554 0.209677,0.12221 0.05214,0.0485 0.09929,0.0447 0.177994,0.091 0.06326,0.0373 0.103344,0.0441 0.188983,0.0945 0.06326,0.0373 0.104935,0.0415 0.188987,0.0945 0.06335,0.04 0.107935,0.0362 0.190677,0.0922 0.03882,0.0262 -0.03514,0.13183 0.05434,0.1034 0.09693,-0.0308 0.127677,0.0154 0.227449,0.088 0.06372,0.0463 0.103931,0.0716 0.199983,0.098 0.0787,0.0216 0.145681,0.12659 0.224588,0.0952 0.101696,-0.0405 0.112693,0.0483 0.225192,0.0898 0.07656,0.0283 0.111521,0.13272 0.224098,0.0959 0.106777,-0.035 0.171728,0.0781 0.219116,0.15086 0.05626,0.0864 0.163532,-0.005 0.230139,0.0364 0.06266,0.0391 0.104987,0.0425 0.188783,0.0954 0.06335,0.04 0.139443,0.006 0.190677,0.0922 0.02481,0.0415 -0.03079,0.0955 0.07956,0.0992 0.088,0.003 0.159093,0.13678 0.237467,0.0967 0.07181,-0.0368 0.02181,0.0423 0.06477,0.0839 0.03933,0.0381 0.109179,-0.0206 0.147228,0.0568 0.0463,0.0941 0.152968,0.0116 0.215537,0.11403 0.04648,0.0761 0.119118,0.15276 0.222108,0.1196 0.09221,-0.0297 0.157814,0.0605 0.207835,0.12314 0.0488,0.0611 0.10714,0.21955 0.168948,0.16608 0.06936,-0.06 0.196316,0.0994 0.07587,0.0913 -0.119813,-0.008 0.04494,0.0757 0.0841,0.0856 0.06095,0.0154 0.184118,-0.0127 0.159901,0.0821 -0.01176,0.0461 -0.154873,-0.009 -0.07848,0.0498 0.07114,0.055 0.192892,0.004 0.234059,0.0745 0.04739,0.0807 0.205632,0.12959 0.171698,0.22998 -0.0347,0.10267 0.104627,-0.0301 0.09366,0.10572 -0.0069,0.0854 0.07962,0.0296 0.14802,0.0589 0.03786,0.0163 0.162338,0.0714 0.05228,0.0691 -0.12067,-0.003 -0.0032,0.0449 0.07586,0.0916 0.04138,0.0245 0.186986,0.11098 0.149836,0.0984 -0.09582,-0.0326 -0.114322,0.13383 -0.03456,0.0993 0.05309,-0.023 0.09347,-0.0153 0.08808,0.0641 -0.0036,0.0527 0.07987,0.0238 0.140972,0.05 0.03786,0.0162 0.162362,0.0693 0.05228,0.0691 -0.121655,-1.8e-4 -2.63e-4,0.0391 0.07756,0.0893 0.03939,0.0254 -0.03558,0.1301 0.05458,0.10307 0.09716,-0.0291 0.125677,0.0157 0.229142,0.0856 0.03883,0.0262 -0.03515,0.13183 0.05434,0.1034 0.09692,-0.0308 0.132432,0.009 0.227448,0.088 0.06519,0.054 0.119825,0.13496 0.224774,0.093 0.10579,-0.0423 0.111365,0.10397 0.226433,0.0934 0.07388,-0.007 0.120521,0.0934 0.0053,0.10002 -0.08045,0.005 0.06429,0.057 0.08708,0.0777 0.07105,0.0647 0.192587,-0.05 0.23717,0.0263 0.0399,0.0683 0.130392,0.0208 0.175116,0.0855 0.05911,0.0855 0.151444,0.13682 0.255701,0.091 0.103964,-0.0457 0.148492,0.132 0.227765,0.10146 0.09735,-0.0375 0.274309,0.17592 0.207697,0.1275 -0.0694,-0.0505 -0.02648,-0.0876 0.04067,-0.0481 0.07524,0.0442 0.110776,0.10827 0.224947,0.10589 0.07535,-0.002 0.209605,-0.0477 0.225294,0.0453 0.01709,0.10136 0.123522,-0.022 0.136911,0.1101 0.0073,0.0717 0.136586,0.0441 0.196454,0.0336 0.08661,-0.0152 0.166648,0.0203 0.231824,0.0729 0.06846,0.0553 0.170259,-0.0352 0.226345,0.0173 0.06479,0.0607 0.118348,0.12037 0.229724,0.0868 0.08472,-0.0256 0.02196,0.0863 0.06451,0.10666 0.07729,0.0371 0.162511,-0.007 0.243826,-0.0135 0.09532,-0.007 -0.02942,0.11694 0.09774,0.1077 0.08836,-0.006 0.116621,0.15079 0.225393,0.0948 0.106502,-0.0548 0.141045,0.12894 0.22354,0.10116 0.06308,-0.0212 0.112073,-0.0543 0.148176,0.0668 0.01923,0.0645 0.111433,-0.0184 0.148002,0.0683 0.04059,0.0962 0.138335,0.009 0.199334,0.10835 0.0536,0.0869 0.178519,-0.0303 0.22589,0.0334 0.05501,0.074 0.120516,0.0993 0.226028,0.0877 0.11083,-0.0122 0.145964,0.12136 0.218707,0.17788 0.05689,0.0442 0.145138,-0.0158 0.179821,0.079 0.02795,0.0764 0.156773,-0.03 0.127474,0.0941 -0.02086,0.0883 0.141803,-0.0247 0.09841,0.0811 -0.04336,0.10567 0.101386,-0.0288 0.09057,0.10793 -0.007,0.0881 0.126088,-0.0159 0.145651,0.0811 0.01984,0.0983 0.135345,-0.0213 0.141432,0.10534 0.0049,0.10164 0.109066,0.27976 0.189293,0.22541 0.05935,-0.0402 0.200464,0.0917 0.123832,0.0908 -0.05046,-6e-4 -0.116009,-0.0186 -0.04379,0.0415 0.0655,0.0546 0.179756,0.001 0.217306,0.0656 0.03991,0.0683 0.119121,0.0303 0.175126,0.0855 0.0522,0.0515 0.103847,0.0374 0.179681,0.0887 0.03882,0.0262 -0.03514,0.13183 0.05433,0.1034 0.09692,-0.0308 0.121154,0.0253 0.227451,0.088 0.06326,0.0373 0.104935,0.0414 0.188987,0.0945 0.06335,0.04 0.120353,0.0212 0.190677,0.0921 0.03433,0.0346 -0.03459,0.11032 0.06688,0.11358 0.07527,0.002 0.26428,-0.0806 0.231382,-0.004 -0.02401,0.0562 -0.0139,0.0653 0.06549,0.0821 0.07596,0.0161 0.104974,0.0443 0.201512,0.0938 0.06301,0.0324 0.106842,0.0204 0.18323,0.0881 0.05385,0.0477 0.06307,0.13717 0.07625,0.20726 0.01131,0.0601 0.02012,0.12157 0.03504,0.18047 z"
       id="path3051" />
    <path
       id="path3025"
       style="fill:#ffff00;stroke:#ffff00;stroke-width:0.264583px;stroke-linecap:butt;stroke-linejoin:miter;stroke-opacity:1"
       d="m 23.11178,260.24472 c -0.01818,0.63463 0.121156,1.40314 -0.44289,1.85855 -0.564073,0.48031 -0.934544,1.13781 -1.602006,1.54517 -0.904678,0.41498 0.596768,0.0126 0.940155,0.30141 0.677527,0.31851 1.447131,0.601 1.903607,1.21793 0.491732,0.50164 0.677131,1.18398 0.97255,1.80036 0.419624,-0.72225 0.355848,-1.63202 0.926187,-2.27604 0.427251,-0.47325 0.939841,-0.87745 1.465781,-1.23707 0.286449,-0.0757 0.779186,-0.40883 0.175903,-0.27008 -0.745048,0.0189 -1.815659,-0.30865 -2.27803,-0.56057 -0.647839,-0.1827 -1.031911,-0.7582 -1.339274,-1.2604 -0.442186,-0.30453 -0.704645,-0.54759 -0.721983,-1.11926 z" />
    <path
       id="path3021"
       style="fill:#ffff00;stroke:#ffff00;stroke-width:0.264583px;stroke-linecap:butt;stroke-linejoin:miter;stroke-opacity:1"
       d="m 23.206274,242.95231 c -0.01818,0.63463 0.121156,1.40314 -0.44289,1.85856 -0.564073,0.4803 -0.934544,1.1378 -1.602006,1.54516 -0.904678,0.41498 0.596768,0.0126 0.940155,0.30141 0.677527,0.31851 1.447131,0.601 1.903607,1.21793 0.491732,0.50164 0.677131,1.18398 0.97255,1.80036 0.419624,-0.72225 0.355848,-1.63202 0.926187,-2.27604 0.427251,-0.47325 0.939841,-0.87745 1.465781,-1.23707 0.286449,-0.0757 0.779186,-0.40883 0.175903,-0.27008 -0.745048,0.0189 -1.815659,-0.30865 -2.27803,-0.56057 -0.647839,-0.1827 -1.031911,-0.7582 -1.339274,-1.2604 -0.442183,-0.30453 -0.704645,-0.54759 -0.721983,-1.11926 z" />
    <path
       id="path3017"
       style="fill:#ffff00;stroke:#ffff00;stroke-width:0.264583px;stroke-linecap:butt;stroke-linejoin:miter;stroke-opacity:1"
       d="m 12.15047,226.88832 c -0.01819,0.63463 0.121156,1.40314 -0.44289,1.85855 -0.564073,0.48031 -0.934544,1.13781 -1.602006,1.54517 -0.9046779,0.41498 0.596768,0.0126 0.940155,0.30141 0.677527,0.31851 1.447131,0.601 1.903607,1.21793 0.491732,0.50164 0.677131,1.18398 0.97255,1.80036 0.419624,-0.72225 0.355848,-1.63202 0.926187,-2.27604 0.427251,-0.47325 0.939841,-0.87745 1.465781,-1.23707 0.286449,-0.0757 0.779186,-0.40883 0.175903,-0.27008 -0.74506,0.019 -1.815645,-0.30871 -2.27803,-0.56057 -0.647839,-0.1827 -1.031911,-0.7582 -1.339274,-1.2604 -0.442186,-0.30453 -0.704645,-0.54759 -0.721983,-1.11926 z" />
    <path
       id="path2991"
       style="opacity:1;fill:#000000;fill-opacity:1;stroke:#000000;stroke-width:0.529167;stroke-linecap:round;stroke-miterlimit:4;stroke-dasharray:none;stroke-opacity:1"
       d="m 32.873873,234.21872 c -0.848649,0.25944 -2.175892,1.17302 -1.398969,2.14877 0.283815,0.4149 2.020234,0.62837 0.86809,0.46723 1.372619,-0.21245 2.708083,-0.99109 3.409673,-2.21552 -0.07265,-0.4662 -1.091641,-0.47849 -0.158578,-0.46465 0.421609,0.0317 -0.8818,0.0951 -1.115259,0.22226 -0.722239,0.18306 -2.00931,1.2271 -2.485689,0.36352 0.905701,-0.65734 2.100122,-0.77577 3.193399,-0.80996 0.631545,0.0974 1.603499,-0.17005 1.915734,0.53562 -0.0072,0.90096 -0.962282,1.39574 -1.594053,1.88057 -1.412113,0.85557 -3.20724,1.00044 -4.772531,0.54113 -1.224255,-0.33084 -1.093023,-1.97636 -0.04157,-2.4428 0.6513,-0.51991 1.429394,-0.32182 2.179751,-0.22617 z" />
    <path
       id="path2997"
       style="opacity:1;fill:#000000;fill-opacity:1;stroke:#000000;stroke-width:0.529167;stroke-linecap:round;stroke-miterlimit:4;stroke-dasharray:none;stroke-opacity:1"
       d="m 36.884887,234.14712 c 9.598652,6.19512 20.227643,10.47482 29.946044,16.4441 13.386297,6.29531 25.684984,14.58762 39.321799,20.38997 7.37855,3.137 14.97995,5.86284 21.64789,10.48398 3.12166,2.65916 15.30988,5.11571 10.57476,9.20294 0.16106,-6.2252 -12.96911,-7.63088 -17.87741,-12.58952 -8.45208,-4.27335 -17.56921,-7.07083 -25.837308,-11.77177 -11.425386,-5.94325 -22.567039,-12.36438 -34.02144,-18.25284 -7.950828,-5.04241 -17.253649,-7.93503 -24.668353,-13.81348 l 0.476399,-0.0487 0.437619,-0.0447 z" />
    <path
       id="path2999"
       style="opacity:1;fill:#000000;fill-opacity:1;stroke:#000000;stroke-width:0.529167;stroke-linecap:round;stroke-miterlimit:4;stroke-dasharray:none;stroke-opacity:1"
       d="m 140.71323,288.24152 c 1.21004,1.27408 1.00934,3.41006 -0.13256,4.66403 -0.98756,1.20699 -2.65632,1.56061 -4.14246,1.57852 -0.69991,-0.55256 1.644,-0.25728 0.2691,-0.32642 -0.3344,-0.0784 1.00323,-0.17296 1.24465,-0.43352 1.50553,-0.66564 2.50789,-2.47385 2.0841,-4.08778 -0.23101,-0.59563 -0.97696,-1.62916 0.22459,-1.35626 0.15145,1.1e-4 0.30435,-0.005 0.45258,-0.0386 z" />
    <path
       id="path3003"
       style="opacity:1;fill:#000000;fill-opacity:1;stroke:#000000;stroke-width:0.529167;stroke-linecap:round;stroke-miterlimit:4;stroke-dasharray:none;stroke-opacity:1"
       d="m 33.010308,237.24745 c 6.417919,4.23787 13.521305,7.34094 19.7558,11.87625 7.10565,4.26414 14.786781,7.56602 21.549953,12.38736 7.922335,4.20713 15.393611,9.20072 23.324065,13.39418 4.706474,2.89024 9.849194,4.94134 14.342704,8.17947 6.7075,3.96041 13.52452,7.93164 20.69235,10.93324 1.65701,0.38145 6.38484,0.27778 3.73653,0.20507 2.64448,0.0403 -2.06406,0.5412 -1.6076,0.31722 -4.9565,0.28691 -8.7822,-2.79544 -12.94827,-4.91164 -8.0079,-4.15889 -15.37604,-9.45107 -23.513672,-13.33823 -5.395034,-3.29005 -11.041527,-6.12963 -16.334038,-9.56778 -5.607523,-3.17532 -11.343054,-6.18742 -16.617705,-9.87803 -8.843163,-4.18798 -17.043119,-9.58422 -25.376438,-14.64251 -1.822834,-1.3344 -7.545668,-2.39534 -7.003679,-4.9546 z" />
    <path
       id="path3005"
       style="opacity:1;fill:#000000;fill-opacity:1;stroke:#000000;stroke-width:0.529167;stroke-linecap:round;stroke-miterlimit:4;stroke-dasharray:none;stroke-opacity:1"
       d="m 75.301969,255.19705 c 0.382377,0.76968 0.544992,1.66491 0.400674,2.51385 -0.06809,0.49416 -0.254313,0.96792 -0.621971,1.31797 -0.509255,0.62723 -1.316052,0.90352 -2.067827,1.12177 -0.412146,-0.0303 -1.197125,-0.16065 -1.364891,-0.21002 0.653444,-0.12341 1.290853,-0.39788 1.823182,-0.79852 0.372203,-0.35688 0.743719,-0.7888 0.792726,-1.32543 0.176653,-0.74186 0.05882,-1.53172 -0.210309,-2.23728 -0.352087,-0.55534 0.606997,-0.26699 0.903282,-0.36631 0.115036,-0.005 0.230184,-0.0108 0.345134,-0.016 z" />
    <path
       id="path3009"
       style="opacity:1;fill:#000000;fill-opacity:1;stroke:#000000;stroke-width:0.529167;stroke-linecap:round;stroke-miterlimit:4;stroke-dasharray:none;stroke-opacity:1"
       d="m 20.931481,247.39554 c 1.036543,-0.67182 2.619089,-0.71734 3.431715,0.3333 0.281804,0.46635 0.962489,1.34656 0.671794,1.77089 -0.845526,-0.0166 -0.114037,-0.93006 -0.09982,-1.41121 0.387582,-1.16107 1.176937,-2.30169 2.356048,-2.74729 0.336471,-0.16007 1.116041,0.0171 0.349029,0.17448 -0.893045,0.29031 -1.893038,0.13646 -2.759147,-0.1822 -0.737286,-0.29589 -1.403861,-0.82737 -1.75442,-1.55171 -0.01813,-0.56578 0.840022,-0.509 0.623665,0.0725 0.118102,0.91443 0.28717,1.96763 -0.326411,2.75004 -0.257348,0.43773 -0.849068,1.56428 -1.379555,0.99789 0.543652,-0.7347 1.251863,-1.51318 1.177217,-2.49838 0.05172,-0.44873 -0.452854,-1.59396 0.383264,-1.4027 0.450178,0.32346 0.664025,0.90311 1.177697,1.17125 0.580983,0.39311 1.272823,0.59758 1.966633,0.66474 -0.665406,0.12313 0.64766,-0.27566 0.900571,-0.27901 0.80025,0.0643 -0.564628,0.48011 -0.743681,0.76336 -0.882967,0.81321 -1.416262,1.96892 -1.577754,3.15247 -0.324666,0.6592 -1.05355,0.25267 -1.032682,-0.36098 -0.284403,-0.8663 -0.996903,-1.70704 -1.960613,-1.7692 0.404049,-0.0758 0.624486,-0.0152 0.08825,0.0593 -0.492114,0.17881 -0.951212,0.46527 -1.491805,0.29247 z" />
    <path
       id="path3011"
       style="opacity:1;fill:#000000;fill-opacity:1;stroke:#000000;stroke-width:0.529167;stroke-linecap:round;stroke-miterlimit:4;stroke-dasharray:none;stroke-opacity:1"
       d="m 20.188503,264.05713 c 1.60157,-0.18786 2.622495,-1.67207 3.139633,-3.07264 -0.01973,-0.86442 0.869392,-1.1641 1.201286,-0.28814 0.543281,0.71812 1.31347,1.39188 2.25709,1.43371 -0.891186,0.0378 0.93263,-0.23222 1.118627,-0.54471 0.43798,-0.3206 1.250633,-0.0228 0.444906,0.34777 -0.727242,0.69162 -1.276924,1.61083 -1.554142,2.58278 -0.179393,0.6923 -0.186481,1.43551 0.153358,2.06359 -0.92355,0.23854 -1.401457,-0.82034 -2.095589,-1.21481 -0.704694,-0.58284 -1.494695,-1.12649 -2.41262,-1.28905 0.416981,-0.009 0.706801,0.002 0.176094,0.17623 -0.236867,0.43082 -1.748443,0.32391 -0.939164,0.27467 -0.542543,-0.0434 -0.51429,-0.1153 0.0039,-0.0853 0.553383,-0.0545 0.100594,0.11389 -0.05181,-0.0687 0.884837,-0.7655 2.136064,-0.32097 2.983944,0.26848 0.836694,0.55541 1.584472,1.2618 2.339713,1.90015 -1.042276,0.40455 -1.00537,-1.09012 -0.867951,-1.74297 0.244665,-1.23993 0.959812,-2.39895 1.935823,-3.20008 0.237602,-0.41221 1.275002,-0.45783 0.547237,0.0737 -1.256188,0.77707 -3.103642,0.84117 -4.150951,-0.32724 -0.304657,-0.30336 -1.311259,-1.25297 -0.370171,-1.23014 0.381524,0.61247 -0.46163,1.53326 -0.715743,2.20306 -0.634976,1.04698 -1.829043,2.09062 -3.143461,1.73963 z" />
    <path
       id="path3013"
       style="opacity:1;fill:#000000;fill-opacity:1;stroke:#000000;stroke-width:0.529167;stroke-linecap:round;stroke-miterlimit:4;stroke-dasharray:none;stroke-opacity:1"
       d="m 12.811921,227.73948 c 0.192027,1.16097 -0.238587,2.31636 -0.817107,3.30418 -0.299369,0.51827 -0.802245,0.85379 -1.306338,1.14399 -0.167007,0.23505 -0.7807784,0.0879 -0.8015426,0.0616 1.1631116,-0.60224 2.4694796,-0.94046 3.7821176,-0.88332 0.521734,-0.0868 1.456373,0.448 1.360632,0.89248 -0.921265,0.14343 -0.723355,-1.18643 -0.786369,-1.7824 0.107557,-0.94058 0.539259,-1.79609 0.92076,-2.64891 0.259154,0.0673 0.80709,0.0568 0.300876,0.31022 -0.873807,0.4828 -1.945603,0.34577 -2.872312,0.11034 -0.321557,-0.14544 -0.942659,-0.16936 -1.083849,-0.43448 0.604965,-0.024 1.164438,0.1678 1.730883,0.35685 0.319043,0.075 1.053304,0.20355 0.55861,0.16277 0.671996,0.0985 1.127974,-0.47539 1.731299,-0.60384 0.617445,0.22285 -0.313963,1.04327 -0.3239,1.52031 -0.361238,0.88052 -0.424952,1.88715 -0.08823,2.78561 -0.174739,0.56933 -0.950392,0.0113 -1.154909,-0.34445 -0.08265,-0.1679 -0.880624,-0.2192 -0.346948,-0.21359 -1.241945,-0.004 -2.389867,0.52496 -3.500086,1.02057 -0.5327337,0.14282 -0.3368278,-0.4521 0.04802,-0.45875 0.62766,-0.32132 1.149764,-0.8294 1.429458,-1.48145 0.317031,-0.66312 0.590498,-1.38224 0.616524,-2.12059 -0.122444,-0.54392 -0.03989,-0.8501 0.602418,-0.69716 z" />
    <path
       id="path3029"
       style="opacity:1;fill:#000000;fill-opacity:1;stroke:#000000;stroke-width:0.529167;stroke-linecap:round;stroke-miterlimit:4;stroke-dasharray:none;stroke-opacity:1"
       d="m 49.052114,223.5014 c -0.220561,0.74786 -0.658103,1.42141 -1.300774,1.87107 -0.538316,0.58956 -1.184041,1.05201 -1.885663,1.42663 -0.308067,0.24871 -0.672721,0.0692 -0.987658,0.10613 0.835778,-0.20161 1.69882,-0.38581 2.562664,-0.3501 0.932029,0.10905 1.684083,0.82088 2.03179,1.66502 0.231758,0.32743 0.729602,1.14932 -0.06859,0.95247 -0.361298,-0.56036 -0.38777,-1.54414 -0.07888,-2.20418 0.334829,-0.34126 0.598332,-1.19749 1.208898,-0.88499 -0.725158,0.17541 -1.319068,-0.41536 -1.659012,-0.98863 -0.162466,-0.41756 -1.12546,-1.06332 -0.62698,-1.44999 0.316774,0.0464 0.623241,-0.0249 0.542428,0.33048 0.299145,0.57012 0.734184,1.05831 1.118037,1.57224 0.124537,0.36484 1.239457,0.50794 0.419572,0.43651 -0.667843,0.007 0.742556,-0.22944 0.246146,0.29959 -0.574557,0.50109 -0.987383,1.29183 -0.755868,2.06175 0.241004,0.42653 0.01716,1.15441 -0.538333,0.71635 -0.405758,-0.55656 -0.586839,-1.28514 -1.110899,-1.77536 -0.244415,-0.35145 -1.161468,-0.59653 -1.186107,-0.62798 0.332222,-0.006 0.52176,0.006 0.09144,0.0376 -0.680749,0.0715 -1.33795,0.25165 -2.000648,0.40571 -0.673017,-0.24281 0.639039,-0.52706 0.857324,-0.80165 0.661571,-0.36737 1.108767,-0.99728 1.706036,-1.44778 0.570286,-0.31159 0.419425,-1.4468 1.151242,-1.36086 0.0875,0.009 0.175949,0.0206 0.263836,0.01 z" />
    <path
       style="fill:none;stroke:#000000;stroke-width:0.26458332px;stroke-linecap:butt;stroke-linejoin:miter;stroke-opacity:1"
       d="m 76.445683,256.17858 c -0.06299,-0.12599 -0.125994,-0.25198 -0.188986,-0.37798"
       id="path3031" />
    <path
       id="path3035"
       style="fill:#000000;stroke:#000000;stroke-width:0.264583px;stroke-linecap:butt;stroke-linejoin:miter;stroke-opacity:1"
       d="m 74.898492,254.27189 c 1.899641,3.76433 -2.406797,11.71337 4.497626,11.65029 8.498044,1.01777 14.731863,7.52677 22.395482,10.66875 5.45215,3.74556 10.16905,8.63932 16.48185,11.00645 5.54246,2.68115 11.30428,4.91169 16.69091,7.91082 6.09548,0.25891 4.66197,-8.78822 -0.58281,-9.16187 -6.02756,-1.31296 -10.93085,-5.14193 -16.47199,-7.64454 -6.78807,-3.49212 -14.37649,-5.20306 -20.673251,-9.6754 -7.585668,-4.70638 -14.584477,-10.31119 -22.337817,-14.7545 z" />
    <path
       id="path3061"
       style="opacity:1;fill:#ffff00;fill-opacity:1;stroke:#ffd42a;stroke-width:0.529167;stroke-linecap:round;stroke-miterlimit:4;stroke-dasharray:none;stroke-opacity:1"
       d="m 33.709475,227.28037 c -0.446961,0.63071 -0.942724,1.34397 -1.741777,1.53253 -0.131795,-0.16541 -0.366234,-0.059 -0.587001,-0.055 0.605146,-0.0976 1.238844,-0.22275 1.84257,-0.0565 0.199784,0.19671 0.697871,0.18446 0.72186,0.4767 -0.218463,0.13837 -0.776251,-0.0289 -0.627772,-0.39667 0.05044,-0.55218 0.501351,-0.97394 0.998198,-1.1568 0.0074,0.22677 0.590111,-0.007 0.48844,0.0786 -0.714956,0.0785 -1.510637,0.11924 -2.143602,-0.27735 -0.228429,-0.1332 -0.166263,-0.35985 0.107435,-0.28532 0.428487,-0.1016 0.615425,0.41365 1.033684,0.42415 0.191968,0.0513 0.632387,0.0761 0.196714,0.0713 -0.375799,0.008 0.322682,-0.0409 0.449553,-0.0562 0.265075,-0.0922 0.826406,0.0589 0.296577,0.22324 -0.491371,0.19365 -0.834208,0.71679 -0.777591,1.24874 -0.28522,0.11379 -0.663627,0.0822 -0.946295,-0.0464 -0.162486,-0.0975 -0.81848,-0.33177 -0.274099,-0.26994 0.140426,-0.002 0.536571,-0.011 0.157969,-0.004 -0.492305,0.0312 -0.974282,0.15333 -1.462312,0.21047 -0.288343,-0.002 -0.210143,-0.31129 0.0502,-0.26341 0.664946,-0.20037 1.10778,-0.77874 1.484557,-1.32638 0.185598,-0.23211 0.486956,-0.0398 0.732697,-0.0714 z" />
    <path
       id="path3063"
       style="opacity:1;fill:#ffff00;fill-opacity:1;stroke:#ffd42a;stroke-width:0.529167;stroke-linecap:round;stroke-miterlimit:4;stroke-dasharray:none;stroke-opacity:1"
       d="m 13.08414,247.96483 c 0.02493,1.15642 -0.366107,2.30924 -1.103674,3.20213 -0.198499,0.33421 -0.525734,0.63941 -0.926985,0.39827 0.760641,-0.12639 1.537386,-0.13918 2.291707,-0.30635 0.169418,-0.0781 0.434472,-0.0894 0.120631,-0.2301 -0.259931,-0.31652 -0.857013,-0.55609 -0.769407,-1.02807 0.177996,-0.39426 0.04566,-0.81216 0.0048,-1.21956 -0.0617,-0.3601 -0.266144,-1.1218 0.37137,-0.93617 0.549173,0.33838 -0.999458,0.25782 -0.293018,0.0213 0.513953,-0.2559 0.549607,0.32262 0.532803,0.66948 0.03868,0.42205 0.194917,0.86779 0.09065,1.28238 -0.209061,0.37727 0.160261,0.69118 0.420298,0.90668 0.328915,0.14532 0.6805,0.60662 0.10048,0.63477 -0.894681,0.20107 -1.825795,0.18386 -2.718294,0.38868 -0.615458,-0.0359 0.110775,-0.51285 0.224823,-0.74978 0.677265,-0.85445 1.041565,-1.94284 0.998919,-3.03369 0.218297,-1e-5 0.436618,-1e-5 0.654898,0 z" />
    <path
       id="path3065"
       style="opacity:1;fill:#ffff00;fill-opacity:1;stroke:#ffd42a;stroke-width:0.529167;stroke-linecap:round;stroke-miterlimit:4;stroke-dasharray:none;stroke-opacity:1"
       d="m 16.597729,237.97678 c 0.666839,-0.0117 1.439686,-0.14379 1.98572,0.33915 0.224686,0.17945 0.60802,0.8057 0.0685,0.67009 -0.560613,0.11909 -0.294897,-0.64804 -0.34501,-0.96512 0.073,-0.36415 0.05203,-0.84272 0.355235,-1.09839 0.20906,0.0552 0.745169,0.15807 0.279538,0.31309 -0.401104,0.0999 -0.843447,0.16563 -1.249045,0.0657 -0.464576,-0.14359 -0.536819,-0.67192 -0.691474,-1.0622 -0.263113,-0.34524 0.265569,-0.27872 0.475897,-0.20981 0.01882,0.30233 -0.127678,0.61816 -0.20716,0.91631 -0.136006,0.2169 -0.132119,0.69971 -0.420651,0.71024 -0.2855,0.0542 -0.72472,0.0873 -0.409738,-0.28832 0.204603,-0.41142 0.309892,-0.86256 0.403759,-1.30774 0.244061,-0.178 0.807842,-0.2478 0.824328,0.17292 0.124699,0.39242 0.246737,0.9172 0.718802,1.00433 -0.164966,-0.02 -0.804015,0.008 -0.336094,-0.0247 0.382304,-0.12469 0.759294,-0.23075 1.165819,-0.23642 0.02619,0.0995 -0.233924,0.49828 -0.212635,0.74888 -0.09451,0.3957 -0.0334,0.8011 -0.03144,1.20198 -0.272819,0.13158 -0.742087,0.11323 -0.797682,-0.25729 -0.198655,-0.38588 -0.648654,-0.57634 -1.064865,-0.59733 0.209563,-0.0225 0.673044,-2.2e-4 0.217344,0.002 -0.245271,-0.0119 -0.487066,-0.0666 -0.729149,-0.0975 z" />
    <path
       id="path3067"
       style="opacity:1;fill:#ffff00;fill-opacity:1;stroke:#ffd42a;stroke-width:0.529167;stroke-linecap:round;stroke-miterlimit:4;stroke-dasharray:none;stroke-opacity:1"
       d="m 20.846728,222.25673 c -0.267028,0.22463 -0.531782,0.46305 -0.853621,0.6071 -0.166344,-0.005 -0.525748,-0.007 -0.566997,-0.0849 0.413081,-0.0388 0.861212,-0.0508 1.224228,0.18368 0.257701,0.13562 0.618098,0.0249 0.81623,0.27717 -0.134693,0.0746 -0.398582,0.032 -0.581082,0.0285 -0.212274,-0.0992 -0.231386,-0.38066 -0.320231,-0.57464 -0.07149,-0.20062 -0.226052,-0.59231 0.137825,-0.57902 0.188798,0.042 0.474378,0.0494 0.600883,0.12752 -0.16958,0.21792 -0.544101,0.0802 -0.795652,0.10561 -0.140251,0.007 -0.629994,-0.19851 -0.303086,-0.2396 0.233625,0.002 0.479958,-0.0613 0.688194,0.0788 0.117807,0.0778 0.426378,0.0689 0.127594,0.0635 -0.113639,-0.008 -0.449976,0.004 -0.412532,0.001 0.104578,0.0461 -0.179999,0.0877 0.04136,0.0905 0.147748,0.0425 0.421139,0.0338 0.480414,-0.0297 0.04723,0.29582 0.150239,0.58775 0.307234,0.84402 -0.09548,0.18969 -0.420767,0.1113 -0.607905,0.13223 -0.240405,-0.18054 -0.5513,-0.0992 -0.806112,-0.24462 -0.09136,-0.0628 -0.42055,-0.15645 -0.373885,-0.16562 0.200213,-0.005 0.565749,-0.0188 0.663327,-0.01 -0.318264,0.0199 -0.636873,-0.0102 -0.952801,-0.047 -0.01447,-0.1026 0.326348,-0.14916 0.41437,-0.27694 0.233123,-0.17434 0.425791,-0.43592 0.746753,-0.31439 0.108322,0.009 0.217845,0.0195 0.325496,0.0264 z" />
    <path
       id="path3069"
       style="opacity:1;fill:#ffff00;fill-opacity:1;stroke:#ffd42a;stroke-width:0.529167;stroke-linecap:round;stroke-miterlimit:4;stroke-dasharray:none;stroke-opacity:1"
       d="m 5.0894556,229.63996 c -0.2636702,0.37718 -0.4963673,0.78276 -0.8161893,1.11564 -0.1535115,0.0807 -0.1585512,-0.0177 -0.00325,0.0565 0.2356197,0.121 0.5023071,0.17123 0.7269857,0.31315 -0.1602407,0.0115 -0.5284039,0.0152 -0.6902919,-0.0844 -0.041909,-0.27182 -0.1365093,-0.52885 -0.2365124,-0.78387 -0.1479694,-0.35218 0.333023,-0.30629 0.54267,-0.29426 0.3425831,-0.0158 0.6796127,0.054 1.0066676,0.14667 0.1592889,0.20662 -0.3621589,0.1279 -0.5102853,0.15192 -0.1482441,0.0102 -0.529062,-0.051 -0.509224,-0.0981 0.2910462,-0.0339 0.5981106,-0.12561 0.8815263,-0.005 -0.1688728,-0.004 -0.5428972,0.005 -0.5758637,-0.0286 0.2771058,0.1131 -0.1702457,0.019 -0.2568737,-0.01 -0.1387804,-0.0286 -0.428219,-0.0656 -0.1330039,-0.0571 0.1208593,0.0164 0.5205745,-0.0409 0.2159993,0.0165 -0.047962,0.29226 0.2175488,0.57718 0.2162042,0.88867 0.067878,0.3406 -0.3886549,0.3321 -0.5925905,0.2206 -0.26408,-0.11625 -0.5428914,-0.20095 -0.8001859,-0.33048 -0.2449227,-0.18625 0.2678514,-0.18037 0.2880068,-0.39234 0.1983347,-0.28645 0.4100138,-0.56389 0.5926708,-0.86122 0.2177755,0.0118 0.4361262,0.0252 0.6535425,0.036 z" />
    <path
       id="path3071"
       style="opacity:1;fill:#ffff00;fill-opacity:1;stroke:#ffd42a;stroke-width:0.529167;stroke-linecap:round;stroke-miterlimit:4;stroke-dasharray:none;stroke-opacity:1"
       d="m 10.865233,260.91439 c -0.211556,0.45959 -0.39458,0.94164 -0.71155,1.34225 0.04953,-0.11557 0.485238,0.0286 0.172964,-0.0282 -0.15543,0.001 -0.5137132,0.003 -0.15836,-0.0156 0.249989,-0.0541 0.684436,0.0299 0.819564,-0.0837 -0.196295,-0.58964 -0.373525,-1.18889 -0.58435,-1.77128 -0.16776,-0.36215 0.352006,-0.11121 0.544204,-0.1247 0.111871,0.17711 0.02107,0.49971 0.08479,0.7332 0.03573,0.26834 0.05147,0.53912 0.08592,0.8057 -0.1686,0.0337 -0.509714,0.14761 -0.660915,-0.0143 -0.0413,-0.4746 -0.103901,-0.95142 -0.124878,-1.42738 0.103808,-0.19308 0.423724,-0.20114 0.619831,-0.22348 0.184669,0.2449 0.192549,0.61041 0.325397,0.89912 0.119839,0.36822 0.247523,0.7355 0.371635,1.10042 -0.0044,0.35025 -0.509087,0.0962 -0.734992,0.19802 -0.453743,0.033 -0.9148691,0.0769 -1.3653489,-0.0113 -0.077631,-0.22159 0.2743801,-0.39973 0.3135858,-0.6407 0.2144651,-0.23569 0.1656701,-0.83538 0.5853331,-0.76391 0.137808,0.0188 0.28844,0.0255 0.417168,0.0258 z" />
    <path
       id="path3073"
       style="opacity:1;fill:#ffff00;fill-opacity:1;stroke:#ffd42a;stroke-width:0.529167;stroke-linecap:round;stroke-miterlimit:4;stroke-dasharray:none;stroke-opacity:1"
       d="m 25.665924,276.21283 c -0.495317,0.47557 -0.890319,1.04771 -1.413784,1.49516 0.25641,0.009 0.503534,0.16653 0.772147,0.1655 0.144116,0.0141 0.382292,0.005 0.111626,0.007 -0.134441,0.003 -0.429614,-0.003 -0.135277,-0.0118 0.330472,0.0528 0.452064,-0.28698 0.232348,-0.51081 -0.218693,-0.4126 -0.518137,-0.78608 -0.675865,-1.22843 -0.145964,-0.26055 0.07013,-0.31391 0.270056,-0.22201 0.230781,0.0318 0.492799,0.0529 0.567157,0.3243 0.243537,0.34228 0.468255,0.70131 0.707109,1.04532 -0.04019,0.1804 -0.387564,0.0347 -0.548208,0.0693 -0.311563,-0.11146 -0.298188,-0.54151 -0.448654,-0.79591 -0.169535,-0.26298 0.310776,-0.13243 0.474043,-0.17566 0.2891,0.0849 0.248672,0.52379 0.419051,0.748 0.142341,0.26527 -0.411563,0.16338 -0.561808,0.18953 -0.149871,-0.20422 -0.267654,-0.44621 -0.424293,-0.65376 -0.13975,-0.21439 -0.30711,-0.41881 -0.432328,-0.63745 0.215039,-0.0493 0.666131,-0.33033 0.639046,0.0983 0.149732,0.42554 0.446343,0.7802 0.648687,1.18102 0.200592,0.221 0.21903,0.63718 -0.155958,0.66246 -0.657494,0.0782 -1.339355,0.0555 -1.971574,-0.15212 -0.361185,-0.14049 0.179857,-0.39436 0.289962,-0.55474 0.319568,-0.36079 0.633567,-0.72818 0.96486,-1.07889 0.224644,-0.0306 0.447525,0.033 0.671657,0.0358 z" />
    <path
       id="path3075"
       style="opacity:1;fill:#ffff00;fill-opacity:1;stroke:#ffd42a;stroke-width:0.529167;stroke-linecap:round;stroke-miterlimit:4;stroke-dasharray:none;stroke-opacity:1"
       d="m 36.898876,261.37085 c -0.374214,0.21173 -0.749434,0.4453 -1.126272,0.63759 -0.08375,-0.046 -0.704433,-0.0164 -0.237729,-0.0278 0.833908,0.0287 1.662427,0.13965 2.494258,0.19501 -0.313473,-0.0112 -0.710638,0.16993 -0.940342,-0.13887 -0.656326,-0.66986 -0.903361,-1.65445 -0.839254,-2.57063 0.0087,-0.43115 0.441847,-0.28441 0.559642,0.001 0.229164,0.3373 0.420193,0.74283 0.391859,1.15838 -0.04196,0.43109 -0.437543,0.63714 -0.723432,0.89191 -0.170519,0.29338 -0.708726,0.14316 -0.81968,0.0649 0.230291,-0.20977 0.503983,-0.36856 0.719545,-0.5903 0.268509,-0.33305 0.196814,-0.81519 -0.03691,-1.14439 -0.206051,-0.3476 0.431029,-0.33383 0.564414,-0.15891 -0.03942,0.89583 0.272067,1.88245 1.016504,2.43728 -0.260754,0.17234 -0.701185,0.15246 -1.033064,0.1109 -0.497092,-0.0799 -1.004296,-0.0622 -1.500408,-0.14757 0.161717,0.006 0.769377,-0.004 0.323058,-0.003 -0.248721,0.0866 -0.8656,-0.0243 -0.393171,-0.26666 0.335516,-0.12929 0.615501,-0.3622 0.939673,-0.51495 0.213742,0.0222 0.427718,0.0424 0.641311,0.0659 z" />
    <path
       id="path3077"
       style="opacity:1;fill:#ffff00;fill-opacity:1;stroke:#ffd42a;stroke-width:0.529167;stroke-linecap:round;stroke-miterlimit:4;stroke-dasharray:none;stroke-opacity:1"
       d="m 57.793757,231.72403 c -0.503549,0.50297 -0.931619,1.08181 -1.459694,1.55815 -0.298388,0.0539 0.138351,0.0598 0.229894,0.17024 0.183983,0.0799 0.563826,0.2168 0.614329,0.28973 -0.222431,-0.0167 -0.68535,0.0905 -0.539375,-0.27875 0.03777,-0.47212 -0.123874,-0.94322 -0.04421,-1.41637 7.51e-4,-0.2116 0.06522,-0.55514 0.355569,-0.49149 0.339235,-0.0156 0.417436,0.35832 0.359574,0.61977 0.04464,0.31871 0.04987,0.65037 0.160871,0.9546 0.05066,0.17935 0.340214,0.39886 -0.02549,0.3592 -0.294111,0.0866 -0.523341,-0.10338 -0.408034,-0.41063 0.0037,-0.27183 0.101454,-0.59051 0.373607,-0.70417 0.170147,-0.16775 0.587835,-0.20084 0.612968,0.10045 -0.175738,0.21262 -0.511836,0.0612 -0.764114,0.0981 -0.148463,-0.0269 -0.678836,-0.25347 -0.270759,-0.24663 0.291285,-0.13398 0.563165,0.007 0.818288,0.13808 -0.130267,0.0205 -0.519623,-0.009 -0.472981,0.0209 0.217878,0.0123 0.679257,0.0421 0.744393,0.0229 -0.29283,-0.0361 -0.385403,0.3363 -0.395919,0.56188 0.0882,0.26981 -0.05376,0.52554 -0.357654,0.44077 -0.334859,0.10429 -0.506478,-0.22879 -0.556391,-0.50331 -0.07508,-0.39705 -0.128396,-0.80323 -0.119987,-1.20811 0.08308,-0.2446 0.4916,-0.30321 0.645429,-0.10862 -0.0022,0.28687 -0.109556,0.57642 -0.0614,0.8712 0.02408,0.39782 0.142879,0.81777 9.19e-4,1.20453 -0.157735,0.31537 -0.540166,0.12052 -0.766919,0.005 -0.267949,-0.13658 -0.545427,-0.24552 -0.822663,-0.35931 -0.248738,-0.17535 0.252688,-0.26324 0.323148,-0.45975 0.423053,-0.39527 0.76481,-0.86657 1.174592,-1.27453 0.217233,0.0154 0.435315,0.032 0.652008,0.0466 z" />
    <path
       id="path3079"
       style="opacity:1;fill:#ffff00;fill-opacity:1;stroke:#ffd42a;stroke-width:0.529167;stroke-linecap:round;stroke-miterlimit:4;stroke-dasharray:none;stroke-opacity:1"
       d="m 55.643771,223.02537 c -0.311084,0.41289 -0.505279,0.9421 -0.948607,1.23628 -0.172186,0.0626 -0.627768,-0.0133 -0.635981,-0.0806 0.74307,-0.0349 1.505992,0.0212 2.197764,0.31334 0.275895,0.0285 0.592501,0.71565 0.183096,0.65406 -0.309925,-0.02 -0.47481,-0.21329 -0.417879,-0.52444 0.02614,-0.35454 -0.351854,-0.93735 0.09362,-1.11793 0.209443,-1.6e-4 0.684831,-0.0309 0.676248,0.24286 -0.296367,0.25603 -0.754143,0.18943 -1.118296,0.13932 -0.471761,-0.11351 -0.72132,-0.60609 -0.794811,-1.04946 -0.177772,-0.32959 0.210735,-0.53864 0.472117,-0.34981 0.415644,0.0482 -0.237363,0.0553 -0.370311,0.0789 -0.07369,0.0162 0.303632,-0.0113 0.424624,-0.0108 0.232779,0.0321 0.07058,0.4798 0.243955,0.65946 0.06635,0.2997 0.488622,0.55229 0.635946,0.5829 -0.139743,0.006 -0.614573,0.0185 -0.516275,0.0181 0.306699,-0.0191 0.441067,-0.2598 0.763033,-0.18721 0.233565,-0.0634 -0.09531,0.21984 0.04704,0.37023 0.038,0.35354 0.194281,0.73342 0.0797,1.07913 -0.204777,0.1631 -0.641453,0.0903 -0.741202,-0.17309 -0.02409,-0.34004 -0.449153,-0.34732 -0.691816,-0.46131 -0.282091,-0.1074 -0.940092,-0.16411 -1.017483,-0.16056 0.144288,-0.002 0.668953,0.009 0.275864,-0.0186 -0.17498,-0.0501 -0.730219,-0.0232 -0.314644,-0.14567 0.355569,-0.30895 0.55464,-0.75123 0.820967,-1.13206 0.217566,0.0124 0.436856,0.0241 0.653334,0.0369 z" />
    <path
       id="path3081"
       style="opacity:1;fill:#ffff00;fill-opacity:1;stroke:#ffd42a;stroke-width:0.529167;stroke-linecap:round;stroke-miterlimit:4;stroke-dasharray:none;stroke-opacity:1"
       d="m 6.5068663,282.55662 c -0.2933775,0.47163 -0.6225605,0.9266 -0.9527074,1.36769 0.3174731,-0.0221 -0.7070854,0.0705 -0.2735809,-0.0539 0.3671324,-0.0998 0.8875394,-0.15776 1.0223218,-0.5774 0.06954,-0.25926 0.050841,-0.70338 0.4397179,-0.65739 0.4031241,0.0402 0.8086112,0.14515 1.1411159,0.38708 0.3666681,0.14622 0.059178,0.58127 -0.2546959,0.44218 -0.4307967,-0.0322 -0.9202913,-0.11833 -1.2173647,-0.46064 -0.2876538,-0.3372 -0.5256707,-0.71585 -0.6973224,-1.12382 0.118833,0.0108 0.5975685,-0.0701 0.7314356,0.14237 0.372842,0.62131 0.6785299,1.28205 1.0944592,1.87751 0.033748,0.19156 0.3233602,0.40757 0.2880909,0.52855 -0.3155492,0.0606 -0.777653,0.10407 -0.8502085,-0.31978 -0.2534689,-0.43079 -0.5256201,-0.85004 -0.7541487,-1.29536 -0.1605809,-0.28521 -0.3250014,-0.56854 -0.4709267,-0.86168 0.29093,-0.0569 0.6793278,-0.30337 0.728997,0.13617 0.1700737,0.3663 0.4104104,0.70431 0.7042379,0.98054 0.1341785,0.16966 0.5376974,0.16093 0.5985846,0.26643 -0.1547574,0.01 -0.6645963,0.0276 -0.5883605,0.0318 0.4741343,-0.10224 -0.1488116,-0.40675 -0.3405654,-0.47622 -0.1030687,-0.0581 -0.5395673,-0.1121 -0.2058485,-0.0985 0.1861508,0.036 0.5977093,-0.12258 0.3815764,0.17025 -0.030857,0.3514 -0.1644595,0.72225 -0.540785,0.83057 -0.4985555,0.20521 -1.0482276,0.25694 -1.5823776,0.21354 -0.038964,-0.30481 0.3111493,-0.4561 0.4279342,-0.70415 0.2336572,-0.23152 0.3047178,-0.65654 0.6184612,-0.77762 0.1828281,-0.005 0.378747,0.0406 0.5519596,0.0318 z" />
  </g>
</svg>
