<?xml version="1.0" encoding="UTF-8" standalone="no"?>
<svg
   xmlns:dc="http://purl.org/dc/elements/1.1/"
   xmlns:cc="http://creativecommons.org/ns#"
   xmlns:rdf="http://www.w3.org/1999/02/22-rdf-syntax-ns#"
   xmlns:svg="http://www.w3.org/2000/svg"
   xmlns="http://www.w3.org/2000/svg"
   xmlns:sodipodi="http://sodipodi.sourceforge.net/DTD/sodipodi-0.dtd"
   xmlns:inkscape="http://www.inkscape.org/namespaces/inkscape"
   width="1200"
   height="600"
   viewBox="0 0 317.5 158.75"
   version="1.1"
   id="svg8"
   inkscape:version="1.0 (4035a4fb49, 2020-05-01)"
   sodipodi:docname="py-python-anaconda.svg">
  <sodipodi:namedview
     id="base"
     pagecolor="#ffffff"
     bordercolor="#666666"
     borderopacity="1.0"
     inkscape:pageopacity="0.0"
     inkscape:pageshadow="2"
     inkscape:zoom="1.3063128"
     inkscape:cx="600.93237"
     inkscape:cy="293.37941"
     inkscape:document-units="mm"
     inkscape:current-layer="layer1"
     showgrid="false"
     units="px"
     inkscape:window-width="1920"
     inkscape:window-height="1061"
     inkscape:window-x="0"
     inkscape:window-y="19"
     inkscape:window-maximized="0"
     inkscape:snap-page="true"
     inkscape:document-rotation="0"
     inkscape:snap-global="false" />
  <metadata
     id="metadata5">
    <rdf:RDF>
      <cc:Work
         rdf:about="">
        <dc:format>image/svg+xml</dc:format>
        <dc:type
           rdf:resource="http://purl.org/dc/dcmitype/StillImage" />
        <dc:title />
      </cc:Work>
    </rdf:RDF>
  </metadata>
  <g
     inkscape:label="Layer 1"
     inkscape:groupmode="layer"
     id="layer1"
     transform="translate(0,-138.25001)">
    <path
       style="opacity:1;fill:#3771c8;fill-opacity:1;stroke:#3771c8;stroke-width:0.529167;stroke-linecap:round;stroke-miterlimit:4;stroke-dasharray:none;stroke-opacity:1"
       id="path8182"
       d="m 216.71339,176.35741 c -0.69978,0.0905 -1.39118,0.23775 -2.04651,0.50098 -0.57906,0.25617 -1.12766,0.57113 -1.6025,0.99092 -0.29088,0.2559 -0.4421,0.60399 -0.55143,0.96726 -0.11941,0.45115 -0.0687,0.91693 0.0147,1.3696 0.0869,0.51003 0.3033,0.97842 0.62696,1.37934 0.30392,0.38772 0.70806,0.62475 1.13409,0.84978 0.50336,0.23512 1.02771,0.36691 1.57617,0.43918 0.97227,0.0782 2.59627,0.11611 -1.88041,0.0237 -0.10104,-0.002 0.2016,-0.0161 0.30169,-0.03 0.24457,-0.0341 0.32874,-0.0621 0.56505,-0.12185 0.58234,-0.17463 1.10481,-0.48902 1.59786,-0.83728 0.46533,-0.31198 0.87535,-0.68403 1.20549,-1.1358 0.32949,-0.45027 0.46439,-0.97124 0.58762,-1.50419 0.1687,-0.65645 0.1829,-1.32284 0.13492,-1.99403 -0.0455,-0.46175 -0.27862,-0.8021 -0.64691,-1.06655 -0.46426,-0.22307 -0.98948,-0.29052 -1.49726,-0.3452 -1.27847,0.0245 0.51537,-0.0125 2.05331,0.0158 0.11425,0.002 -0.22829,0.0137 -0.3416,0.0285 -0.32575,0.0425 -0.63952,0.13088 -0.95307,0.22504 -0.1664,0.0884 -0.58034,0.1366 -0.64603,0.3666 -0.0216,0.0757 -0.0141,0.1568 -0.0212,0.2352 0,0 -2.7941,-0.0138 -2.7941,-0.0138 v 0 c 0.0143,-0.6363 0.10407,-0.70439 0.69151,-0.93638 1.52731,-0.55084 3.15404,-0.47293 4.77139,-0.32206 0.53169,0.0787 1.09631,0.16263 1.53213,0.50156 0.37143,0.35465 0.60973,0.77149 0.64535,1.29493 0.0327,0.69635 0.0291,1.39009 -0.13786,2.07247 -0.12491,0.56709 -0.25088,1.12597 -0.58618,1.61438 -0.33867,0.49369 -0.71319,0.89195 -1.2168,1.22584 -0.49611,0.37391 -1.02307,0.71144 -1.60655,0.93323 -1.44872,0.48422 -3.0239,0.34151 -4.52661,0.16402 -0.55482,-0.10261 -1.09047,-0.27022 -1.59194,-0.53359 -0.44361,-0.24904 -0.83789,-0.5584 -1.14333,-0.97087 -0.31284,-0.45631 -0.54702,-0.95722 -0.63136,-1.50871 -0.0846,-0.49437 -0.14311,-0.99998 -0.0218,-1.49368 0.10313,-0.41182 0.26751,-0.81796 0.56621,-1.12782 0.13696,-0.12335 0.2621,-0.26081 0.40901,-0.37214 0.37334,-0.28291 0.80764,-0.48388 1.21735,-0.70569 0.64852,-0.30351 1.3323,-0.46223 2.03601,-0.58687 0,0 2.77662,0.40833 2.77662,0.40833 z" />
    <path
       id="path11568"
       style="opacity:1;fill:#00aa44;fill-opacity:1;stroke:#00aa44;stroke-width:0.529167;stroke-linecap:round;stroke-miterlimit:4;stroke-dasharray:none;stroke-opacity:1"
       d="m 6.7493136,286.74109 c 1.9959214,-0.33328 2.7257258,-2.40012 3.4432514,-4.01122 1.139022,-2.34137 1.866402,-4.86894 2.09573,-7.4588 0.39414,-1.35524 -0.168196,-4.23696 1.956925,-3.90872 2.232111,-0.27512 2.248557,2.67577 3.533939,3.89719 1.692844,2.67379 3.635965,5.1919 5.228621,7.92379 0.750119,1.48653 1.220466,3.09013 1.713464,4.67438 -0.128901,1.06303 -3.571472,-0.28209 -2.047003,0.0615 0.752189,-0.0877 2.538877,-0.20883 0.785016,-0.13225 -1.8053,0.57695 -1.859239,-0.7678 -2.238906,-2.13186 -1.051252,-3.17715 -3.322319,-5.71796 -5.060373,-8.52211 -1.209103,-1.77322 -2.416364,-3.56276 -3.324918,-5.51352 1.431643,-0.68256 3.652463,-0.0323 2.50511,1.85836 -0.484594,2.91608 -0.618248,5.95897 -2.027667,8.62999 -0.902155,1.67452 -1.294585,3.98046 -3.234761,4.79043 -1.0719918,0.42299 -2.2224018,-0.14482 -3.3284284,-0.15717 z" />
    <path
       id="path11570"
       style="opacity:1;fill:#00aa44;fill-opacity:1;stroke:#00aa44;stroke-width:0.529167;stroke-linecap:round;stroke-miterlimit:4;stroke-dasharray:none;stroke-opacity:1"
       d="m 12.068681,281.65289 c 2.458663,-0.33926 4.8573,-1.05416 7.13636,-2.03022 0.286109,0.33689 0.778078,0.17353 1.150845,0.12384 0.362409,-0.0785 0.728435,-0.0322 1.092093,-0.0924 0.260545,-0.0738 0.769885,0.0924 0.384131,0.36963 -0.320492,0.15552 -0.69233,0.23127 -1.021885,0.38643 -1.894738,0.76872 -3.889674,1.26975 -5.899308,1.63005 -0.955635,-0.0625 -1.893189,-0.27053 -2.842236,-0.3873 z" />
    <path
       id="path11572"
       style="opacity:1;fill:#00aa44;fill-opacity:1;stroke:#00aa44;stroke-width:0.529167;stroke-linecap:round;stroke-miterlimit:4;stroke-dasharray:none;stroke-opacity:1"
       d="m 25.412084,285.82661 c -0.364667,-4.26703 0.398505,-8.55799 -0.08982,-12.8187 -0.03587,-0.99231 1.791565,-0.49065 2.54078,-0.61346 1.019256,0.62493 1.277015,1.95778 1.955934,2.88356 1.392311,2.6985 2.783689,5.42413 4.734474,7.77264 0.321331,0.74567 2.448974,2.29773 0.446841,1.87103 -0.852298,0.22991 -2.017949,0.0481 -1.571226,-1.07886 -0.154273,-3.38558 -0.241396,-6.77825 -0.223651,-10.1638 -0.201592,-0.95613 -0.08138,-2.01027 1.132654,-1.72227 0.896338,-0.21564 2.008903,-0.1164 1.634329,1.10131 -0.105046,3.86357 0.08004,7.72823 0.291138,11.58235 -0.299657,1.43146 -2.46658,1.39426 -3.196008,0.32232 -1.923995,-2.54714 -3.829164,-5.13886 -5.19525,-8.04125 -0.814795,-1.5652 -1.647088,-3.13587 -2.738307,-4.53013 0.990031,0.24107 2.721178,-0.48921 3.055558,0.70717 0.207058,3.67424 -0.129717,7.35732 -0.105906,11.03305 0.34581,1.34668 0.02235,2.00928 -1.445383,1.68234 -0.408714,0.004 -0.817487,0.008 -1.226157,0.0127 z" />
    <path
       id="path11574"
       style="opacity:1;fill:#00aa44;fill-opacity:1;stroke:#00aa44;stroke-width:0.529167;stroke-linecap:round;stroke-miterlimit:4;stroke-dasharray:none;stroke-opacity:1"
       d="m 39.229109,286.96917 c -0.03997,-2.27158 1.827434,-3.8591 2.462225,-5.92282 0.91801,-2.45621 1.13329,-5.11834 1.351047,-7.69173 0.833677,-0.16252 2.051686,0.20374 2.76927,0.59025 0.140346,1.42239 0.568225,2.77951 1.020995,4.14333 0.799229,2.36791 1.813296,4.67775 2.841632,6.93896 -0.349126,1.12872 -1.987732,0.5524 -2.798157,0.35583 0.675683,-0.15283 2.105964,-0.21175 2.291238,-0.37511 -1.073381,-0.0625 -2.647066,0.49649 -2.799795,-1.04292 -1.341575,-3.24774 -2.798644,-6.50119 -3.372259,-9.99306 0.724614,-0.48853 2.108571,-0.85694 2.815143,-0.48801 -0.03686,1.39921 -0.30529,2.81554 -0.482115,4.21759 -0.364116,2.39497 -1.194217,4.71904 -2.55008,6.73414 -0.81565,0.94765 -0.282737,3.01506 -2.039338,2.55345 -0.502652,-0.0156 -1.007708,-0.0751 -1.509806,-0.0199 z" />
    <path
       id="path11576"
       style="opacity:1;fill:#00aa44;fill-opacity:1;stroke:#00aa44;stroke-width:0.529167;stroke-linecap:round;stroke-miterlimit:4;stroke-dasharray:none;stroke-opacity:1"
       d="m 40.929721,282.57114 c 0.721723,-0.40016 1.425213,-0.90627 2.264573,-1.01488 0.910833,0.11843 1.819694,0.25134 2.729739,0.37557 -0.820106,0.0414 -1.517016,0.52272 -2.203365,0.92269 -0.930311,-0.0945 -1.860616,-0.18907 -2.790947,-0.28338 z" />
    <path
       id="path11578"
       style="opacity:1;fill:#00aa44;fill-opacity:1;stroke:#00aa44;stroke-width:0.529167;stroke-linecap:round;stroke-miterlimit:4;stroke-dasharray:none;stroke-opacity:1"
       d="m 58.640567,276.11369 c -2.071316,0.73953 -3.219654,2.8355 -3.714605,4.86207 -0.426524,1.50579 -0.571665,3.40434 0.746069,4.52972 1.15125,0.91257 2.692977,1.18406 4.129546,1.233 -0.638909,-0.0246 -2.030587,0.0385 -2.169403,-0.005 0.869729,-0.27237 1.627044,-0.90262 2.603315,-0.54632 0.588196,-0.0611 1.927696,0.0867 0.835929,0.66611 -1.231543,0.65541 -2.663773,0.24118 -3.991346,0.29614 -1.851302,-0.0884 -4.080477,-0.64966 -4.913118,-2.49578 -0.757294,-2.03234 0.03396,-4.22268 0.854182,-6.10532 0.615815,-1.20531 1.613899,-2.24211 2.867838,-2.78011 0.917161,0.11541 1.834622,0.22985 2.751593,0.34588 z" />
    <path
       id="path11580"
       style="opacity:1;fill:#00aa44;fill-opacity:1;stroke:#00aa44;stroke-width:0.529167;stroke-linecap:round;stroke-miterlimit:4;stroke-dasharray:none;stroke-opacity:1"
       d="m 66.818591,278.43489 c -0.506385,-0.22392 -1.627133,-0.20332 -0.47352,-0.19119 0.598309,0.0487 2.585906,-0.20011 1.100187,0.19269 -1.197828,0.60615 -1.048058,2.15045 -1.018935,3.27831 0.163287,1.85855 0.910304,3.83648 2.477482,4.94648 0.356083,0.46483 2.395661,0.39625 1.043127,0.38393 -0.563042,-0.004 -2.434737,0.0662 -1.039595,-0.29802 1.841057,-0.85667 2.448091,-3.06567 2.411129,-4.94161 0.02364,-1.49979 -0.969422,-2.73686 -2.087248,-3.62436 -0.653733,-0.68181 -2.221198,-1.36009 -2.721603,-1.32048 0.664616,0.076 2.096451,-0.0112 2.261738,0.12086 -0.646395,0.59931 -1.130364,1.51769 -2.18514,1.01679 -1.040029,0.31802 -1.801544,-0.38916 -0.808328,-1.1765 0.890625,-0.63791 2.10046,-0.18231 3.129615,-0.32858 1.663856,0.0381 2.952757,1.30133 4.041984,2.42618 1.443554,1.52606 1.313216,3.86804 0.682126,5.72316 -0.518289,1.57851 -1.956042,2.86791 -3.666877,2.90359 -1.279673,-0.021 -2.738201,0.15183 -3.836395,-0.63965 -1.720367,-1.38295 -2.484768,-3.68756 -2.503913,-5.84128 0.0063,-1.09509 0.05789,-2.46644 1.186143,-3.02398 1.431656,-0.61169 3.092304,-0.38357 4.564238,-0.0202 0.355759,0.15979 -1.116356,0.18045 -1.51255,0.28302 -0.347866,0.0437 -0.695873,0.0872 -1.043665,0.13086 z" />
    <path
       id="path11582"
       style="opacity:1;fill:#00aa44;fill-opacity:1;stroke:#00aa44;stroke-width:0.529167;stroke-linecap:round;stroke-miterlimit:4;stroke-dasharray:none;stroke-opacity:1"
       d="m 75.350152,287.12158 c 0.315003,-3.70271 0.434873,-7.42173 0.368117,-11.13712 1.164928,0.11846 2.845734,-0.88692 3.409263,0.723 1.886318,2.93518 3.468896,6.19987 6.208396,8.45904 0.571729,0.30557 0.849678,0.48788 -0.0099,0.38291 -0.682372,-0.13665 -2.479016,0.4988 -1.545892,-0.5925 0.157937,-3.60004 0.448308,-7.19425 0.603905,-10.79589 1.092791,0.14043 3.375717,-0.59847 2.71499,1.31589 -0.239408,3.2135 -0.459153,6.43677 -0.510462,9.65479 -0.196913,1.38985 -1.96622,1.46143 -2.967515,0.92064 -1.98786,-0.99334 -3.180301,-2.99446 -4.450127,-4.73464 -1.143802,-1.6741 -2.046954,-3.52117 -3.338824,-5.08562 0.539351,-0.20495 1.882537,-0.0224 2.686016,0.04 -0.03913,3.52221 -0.123058,7.05106 -0.361021,10.56257 -0.46218,0.77076 -1.993994,0.0692 -2.806922,0.2869 z" />
    <path
       id="path11584"
       style="opacity:1;fill:#00aa44;fill-opacity:1;stroke:#00aa44;stroke-width:0.529167;stroke-linecap:round;stroke-miterlimit:4;stroke-dasharray:none;stroke-opacity:1"
       d="m 93.627955,276.0594 c 0.104077,2.80152 0.746482,5.54373 1.117346,8.31461 -0.794991,0.11033 -1.598664,-0.0593 -2.397945,0.006 -0.83439,-0.10573 -0.397723,-1.35114 -0.671675,-1.96003 -0.307802,-2.11629 -0.718491,-4.22263 -0.851196,-6.36038 0.934487,-2.2e-4 1.869,4.4e-4 2.80347,-3.3e-4 z" />
    <path
       id="path11586"
       style="opacity:1;fill:#00aa44;fill-opacity:1;stroke:#00aa44;stroke-width:0.529167;stroke-linecap:round;stroke-miterlimit:4;stroke-dasharray:none;stroke-opacity:1"
       d="m 89.096949,276.69903 c 2.250414,-1.78185 5.394389,-2.20851 8.130582,-1.52571 1.698527,0.72863 2.17197,2.84348 2.052027,4.51991 -0.166537,2.57607 -2.114782,4.52066 -4.053111,5.99707 -0.716232,0.99336 -2.040478,0.33631 -3.0316,0.36929 -0.924559,-0.14076 0.799176,-0.82877 1.027807,-1.2293 1.811435,-1.35922 3.412453,-3.37464 3.32197,-5.75555 -0.03547,-1.44617 -0.655811,-3.25898 -2.254245,-3.58299 -0.510688,-0.063 -1.154626,-0.13347 -0.204959,-0.10718 0.436804,0.0322 2.512738,-0.0324 1.152587,0.10038 -1.481376,0.0217 -2.578057,1.33242 -3.969544,1.39111 -0.725794,-0.0358 -1.445046,-0.15093 -2.171514,-0.17703 z" />
    <path
       id="path11588"
       style="opacity:1;fill:#00aa44;fill-opacity:1;stroke:#00aa44;stroke-width:0.529167;stroke-linecap:round;stroke-miterlimit:4;stroke-dasharray:none;stroke-opacity:1"
       d="m 100.79114,285.94193 c 2.69131,-3.35349 4.48791,-7.7136 3.88019,-12.06681 0.0251,-1.20996 1.80377,-0.76161 2.61996,-0.72739 0.68244,0.81098 0.70329,2.06603 1.25967,3.01641 1.21988,2.80033 2.71608,5.55541 4.83824,7.77497 0.92715,0.46875 0.45453,0.12292 -0.2799,0.3353 -0.70264,0.10931 -3.01544,0.2539 -1.1602,0.12706 0.59618,-0.008 2.54677,-0.25437 0.99736,0.008 -1.12002,0.79558 -2.26467,0.19899 -2.86908,-0.88239 -2.39519,-2.90987 -4.01025,-6.37599 -5.32888,-9.87299 0.26257,-0.79674 1.72451,-0.51404 2.4653,-0.85078 0.56247,1.0441 0.25713,2.52422 0.29787,3.73273 -0.24751,3.48819 -1.77472,6.81516 -3.93713,9.53022 -0.93011,0.0396 -1.85514,-0.0968 -2.7834,-0.12418 z" />
    <path
       id="path11590"
       style="opacity:1;fill:#00aa44;fill-opacity:1;stroke:#00aa44;stroke-width:0.529167;stroke-linecap:round;stroke-miterlimit:4;stroke-dasharray:none;stroke-opacity:1"
       d="m 103.32117,281.25133 c 1.35647,-0.6389 2.71133,-1.31759 4.15165,-1.74344 0.66617,-0.0901 1.32887,0.11359 1.9935,0.15589 0.28857,0.0592 1.01603,0.0719 1.0185,0.1613 -1.53137,0.33884 -2.96161,1.00757 -4.34627,1.72894 -0.94145,-0.0546 -1.87835,-0.20996 -2.81738,-0.30269 z" />
    <path
       id="path11600"
       style="opacity:1;fill:#666666;fill-opacity:1;stroke:#666666;stroke-width:0.529167;stroke-linecap:round;stroke-miterlimit:4;stroke-dasharray:none;stroke-opacity:1"
       d="m 165.16448,151.79756 c 0.81499,-2.74385 3.88438,-3.97692 6.54297,-3.86905 2.63764,-0.20026 5.62003,1.13957 6.35123,3.86832 0.47164,1.9508 -0.31061,3.94495 -1.02272,5.74336 -1.06022,2.14024 -3.12732,3.82998 -5.45107,4.40534 -0.64982,0.27247 -2.7353,-0.17198 -2.70546,-0.26476 0.77715,0.0446 2.92272,0.0623 1.02509,-9.5e-4 -1.06475,0.0542 -1.45908,-0.13 -0.2158,-0.3199 2.89218,-0.94669 4.94451,-3.626 5.4752,-6.57558 0.68612,-2.00588 0.005,-4.36669 -1.87734,-5.44992 -0.52111,-0.70402 -3.93442,-1.02132 -1.64555,-0.97817 0.93845,0.0596 1.88865,0.0181 0.36626,0.18185 -2.13991,0.17602 -3.15777,2.22972 -4.51469,3.35094 -0.77798,0.11976 -1.55025,-0.21297 -2.32812,-0.0915 z" />
    <path
       id="path11598"
       style="opacity:1;fill:#666666;fill-opacity:1;stroke:#666666;stroke-width:0.529167;stroke-linecap:round;stroke-miterlimit:4;stroke-dasharray:none;stroke-opacity:1"
       d="m 168.7468,148.00421 c 1.22405,2.71849 0.78148,5.76233 0.83675,8.64847 -0.13949,3.17893 -1.19288,6.21343 -1.89181,9.29301 -0.68602,2.34536 -1.808,4.56047 -2.22963,6.98193 -0.85613,-0.23022 -1.79818,0.27685 -2.61177,-0.12952 -0.24023,-0.82434 0.33221,-1.72079 0.51011,-2.54951 0.79245,-2.2935 1.72863,-4.54889 2.18954,-6.94191 0.70613,-2.77433 1.44087,-5.60238 1.25065,-8.49175 -0.0109,-2.21223 0.20116,-4.56004 -0.82429,-6.60335 0.90162,-0.25424 1.85187,-0.0924 2.77045,-0.20737 z" />
    <path
       id="path11602"
       style="opacity:1;fill:#666666;fill-opacity:1;stroke:#666666;stroke-width:0.529167;stroke-linecap:round;stroke-miterlimit:4;stroke-dasharray:none;stroke-opacity:1"
       d="m 185.26597,149.4303 c -0.17971,2.94273 -1.23982,6.2453 0.61731,8.88889 0.27413,1.04749 2.62693,1.82865 2.4978,1.63864 -0.67603,-4.3e-4 -2.6229,0.0323 -0.8315,-0.29845 2.14669,-0.4669 3.61752,-2.47463 3.85512,-4.59747 1.24695,-2.00853 -0.58722,-5.22885 1.13548,-6.62717 2.02149,-0.43101 2.62434,1.07091 2.39104,2.81162 0.10004,3.61547 -0.57828,7.19652 -1.05129,10.76749 -0.61011,3.10106 -1.1851,6.33618 -2.88096,9.05872 -2.05723,1.44174 -4.70971,1.00416 -7.06289,0.97033 -1.60729,-0.16976 -3.09625,-3.17392 -0.40446,-2.39587 1.66789,-0.35651 1.43458,1.99672 3.24367,2.01841 -0.74955,-0.0247 -3.00367,0.0545 -1.06296,-0.0454 1.70899,0.007 3.22039,-1.06522 3.55409,-2.77229 2.01759,-5.39209 2.48702,-11.20245 2.97639,-16.88821 -0.27405,-1.40087 -0.86898,-4.16595 1.4626,-3.4735 1.83922,0.21371 0.56356,2.91513 0.96901,4.30078 -0.39272,2.04716 -0.63227,4.35746 -2.12482,5.9472 -2.09131,1.82076 -5.22684,2.09839 -7.79231,1.31299 -2.68592,-1.5274 -3.06032,-5.07456 -2.57141,-7.84051 0.32876,-1.26724 -0.32325,-3.44978 1.67702,-2.79193 0.46767,0.005 0.93562,0.0102 1.40307,0.0158 z" />
    <path
       id="path11604"
       style="opacity:1;fill:#666666;fill-opacity:1;stroke:#666666;stroke-width:0.529167;stroke-linecap:round;stroke-miterlimit:4;stroke-dasharray:none;stroke-opacity:1"
       d="m 206.49994,140.69065 c 0.65281,2.67336 0.31382,5.45344 0.0455,8.15601 -0.46756,3.43097 -1.06785,6.84324 -1.51861,10.27556 -0.0463,1.30739 -2.67374,-0.16579 -2.5526,0.18502 0.64242,-0.0137 2.23655,0.0259 2.30126,-0.0268 -0.91715,-0.14639 -3.19732,1.12497 -2.48596,-0.66984 0.50428,-4.00745 1.34646,-7.9724 1.68127,-12.00043 0.0593,-1.84389 0.29616,-3.73727 -0.21801,-5.53817 0.41457,-0.74515 1.99271,-0.15047 2.74718,-0.38134 z" />
    <path
       id="path11606"
       style="opacity:1;fill:#666666;fill-opacity:1;stroke:#666666;stroke-width:0.529167;stroke-linecap:round;stroke-miterlimit:4;stroke-dasharray:none;stroke-opacity:1"
       d="m 203.37439,144.54552 c 0.61661,0.91596 1.68445,1.48822 2.79175,1.43407 0.43618,0.0288 0.93409,0.0935 0.19224,0.0635 -0.63821,-0.005 -1.89207,0.003 -2.14738,0.0158 1.24468,-0.0879 2.46129,-0.46294 3.6206,-0.89598 0.68208,-0.57355 1.53296,-0.23308 2.3186,-0.19852 0.43787,0.0743 1.4828,-0.0255 0.61117,0.43403 -0.77722,0.50823 -1.74797,0.59169 -2.62091,0.87836 -1.80841,0.51056 -3.70246,0.24024 -5.53065,0.002 -0.72051,-0.16174 -1.95113,-1.10205 -1.83657,-1.54854 0.86705,-0.0616 1.73413,-0.12298 2.60115,-0.18472 z" />
    <path
       id="path11608"
       style="opacity:1;fill:#666666;fill-opacity:1;stroke:#666666;stroke-width:0.529167;stroke-linecap:round;stroke-miterlimit:4;stroke-dasharray:none;stroke-opacity:1"
       d="m 220.44053,141.47728 c 0.12428,2.14012 -0.16714,4.257 -0.68768,6.32608 -0.82129,4.07812 -1.94179,8.10396 -2.48532,12.22912 0.19608,1.39388 -2.00675,0.27758 -2.73081,0.21427 0.23951,-1.76698 0.67286,-3.63908 1.3236,-5.35497 1.08076,-2.4037 3.40629,-4.21821 6.05688,-4.47814 1.90096,-0.17281 4.20505,-0.58786 5.73453,0.83498 1.0627,1.56995 0.39061,3.61252 0.0269,5.31753 -0.71032,1.2611 0.3773,4.11969 -1.88756,3.41411 -2.76374,-0.0945 3.20042,0.21907 0.57102,0.46216 -2.47432,1.04107 -2.0831,-2.0479 -1.58053,-3.49885 0.30237,-1.71137 1.12542,-3.65288 0.22374,-5.30862 -0.2333,-0.77984 -3.05686,-0.94154 -1.1816,-0.88592 0.7603,0.008 2.30145,-0.0141 0.65725,0.0857 -3.24475,0.27676 -5.87923,2.97035 -6.47826,6.10427 -0.56156,1.1653 0.0135,3.23238 -1.58132,3.58599 -1.10613,0.27772 -2.50891,0.67621 -1.96785,-0.99396 0.61116,-2.48994 0.88081,-5.05453 1.57153,-7.53176 0.59998,-2.89507 1.44787,-5.76529 1.64009,-8.72497 -0.43678,-1.30176 0.2681,-2.25895 1.63819,-1.77406 0.38286,0.0642 0.75463,-0.0489 1.13725,-0.023 z" />
    <path
       id="path11618"
       style="opacity:1;fill:#666666;fill-opacity:1;stroke:#666666;stroke-width:0.529167;stroke-linecap:round;stroke-miterlimit:4;stroke-dasharray:none;stroke-opacity:1"
       d="m 241.5821,153.62072 c -2.00437,0.72665 -3.93858,2.40685 -4.08593,4.65391 -0.0748,1.82959 1.69435,2.97205 3.30695,3.25732 0.56927,0.15046 2.06915,0.34725 0.69225,0.30781 -0.49298,0.0381 -2.79876,0.0576 -1.30542,-0.0569 2.17221,-0.0834 3.96596,-1.87874 4.33077,-3.97449 0.4552,-1.27784 0.32975,-2.70092 -0.39743,-3.85546 -0.62159,-1.48363 -2.02112,-2.81089 -3.73132,-2.6299 -0.98718,-0.009 0.92539,-0.003 1.29329,-0.005 1.43979,0.0456 -1.24827,-0.19163 -1.53701,0.50444 -1.00047,0.66958 -0.59064,2.55065 -2.01177,2.29504 -1.02419,0.50755 -2.4939,-0.0669 -1.55225,-1.30035 0.52501,-1.26104 1.69493,-2.19188 3.11878,-1.95504 1.74453,0.17774 3.63976,-0.35531 5.25643,0.49984 1.4461,1.02596 2.28335,2.75043 2.63866,4.44481 -0.002,1.39841 -0.39323,2.82622 -1.04072,4.06062 -0.97844,1.61802 -2.89341,2.56698 -4.77454,2.36824 -2.11701,0.0851 -4.48392,-0.0859 -6.13163,-1.56887 -1.18765,-1.15503 -1.2301,-3.06193 -0.37721,-4.4205 0.77051,-1.35187 2.02938,-2.46147 3.53674,-2.88488 0.93138,-0.0824 1.84024,0.23379 2.77136,0.25926 z" />
    <path
       id="path11620"
       style="opacity:1;fill:#666666;fill-opacity:1;stroke:#666666;stroke-width:0.529167;stroke-linecap:round;stroke-miterlimit:4;stroke-dasharray:none;stroke-opacity:1"
       d="m 257.64841,158.87971 c -0.40041,1.32137 0.29816,3.40491 -0.91312,4.18484 -0.95044,-0.0773 -2.6787,0.66171 -2.25643,-1.00592 -0.005,-2.03418 0.0204,-4.12012 0.71973,-6.05781 0.26982,-1.50945 1.422,-2.63504 2.6585,-3.44299 1.27528,-0.50744 2.63028,-1.28846 4.05516,-1.02171 1.36002,0.45243 3.1855,0.20985 4.10866,1.51482 0.82439,1.07067 1.25823,2.36338 1.37216,3.69865 0.2849,1.53828 0.6698,3.12189 0.3072,4.68011 0.14467,1.03077 0.0323,1.64476 -1.12028,1.3938 -0.99139,0.20717 -2.16584,-0.0504 -1.69454,-1.30274 0.41008,-2.08384 -0.23848,-4.15347 -0.56742,-6.20061 -0.44519,-1.14259 -1.01633,-2.5522 -2.36825,-2.81059 -0.63166,-0.18965 -2.65762,-0.45857 -0.965,-0.38419 0.57896,0.043 2.38926,-0.0959 0.94809,0.27624 -1.38884,0.25671 -2.47175,1.21928 -3.34935,2.26819 -0.60417,1.08233 -0.84067,2.35893 -1.1297,3.5609 -0.17868,1.55776 -0.17451,3.12845 -0.15287,4.69778 -0.65943,0.71362 -2.62121,0.39039 -2.79086,-0.47271 0.25244,-1.13859 -0.0187,-2.60824 0.54844,-3.52775 0.83426,-0.19853 1.73199,-0.005 2.58988,-0.0483 z" />
    <path
       id="path1243"
       style="fill:#64bd4f;fill-opacity:1;stroke:#64bd4f;stroke-width:0.264583px;stroke-linecap:butt;stroke-linejoin:miter;stroke-opacity:1"
       d="m 83.891258,170.76135 c 5.919496,2.2014 11.017548,6.17266 16.008257,9.94158 5.767365,4.95962 7.665375,12.50508 9.736915,19.48484 2.62613,8.1315 1.03408,17.09349 -1.58716,25.01845 -1.76576,4.20005 -9.117355,13.01275 -1.79486,15.22666 5.78585,0.0409 10.79202,-3.54028 15.28193,-6.79164 4.87177,-5.57267 8.33026,-12.78966 7.94331,-20.36389 -0.13079,-6.14663 1.2426,-12.56963 -1.60428,-18.33982 -1.84689,-4.29375 -3.26294,-8.83212 -5.31719,-12.99679 -2.70338,-3.53993 -5.71499,-6.8536 -7.63078,-10.91054 -3.33725,-4.20735 -7.72659,-7.48532 -12.03981,-10.6315 -5.969975,-3.58565 -12.582651,-6.39694 -19.462282,-7.56845 -6.516069,0.053 -13.37651,1.3565 -18.765601,5.22606 -1.782815,5.29066 4.949139,7.56722 8.897775,8.47434 3.435475,1.41587 6.530178,3.86547 10.333776,4.2307 z" />
    <path
       id="path1251"
       style="fill:#43b02a;fill-opacity:1;stroke:#43b02a;stroke-width:0.264583px;stroke-linecap:butt;stroke-linejoin:miter;stroke-opacity:1"
       d="m 110.7835,218.11935 c -3.16696,11.57769 -11.827255,21.69763 -22.477329,27.12339 -12.503949,5.08028 -27.420775,6.16586 -39.454001,-0.80905 -6.378478,-5.15928 -16.161071,-1.14038 -12.551725,7.61076 2.195451,9.0757 12.112435,12.28308 19.921711,14.93697 8.578749,1.1268 17.546516,1.19723 26.040277,-0.47717 11.895879,-4.34912 24.123307,-9.58943 32.601527,-19.40339 6.14128,-6.25977 11.86979,-13.40554 13.11855,-22.39032 1.15399,-6.33571 1.43018,-15.68349 -5.70654,-18.5819 -6.52822,-1.51764 -10.89855,6.9456 -11.49247,11.99071 z" />
    <path
       id="path1266"
       style="fill:#2ca02c;stroke:#2ca02c;stroke-width:0.264583px;stroke-linecap:butt;stroke-linejoin:miter;stroke-opacity:1"
       d="m 21.468504,193.2992 c -5.199897,6.68789 -10.853093,14.50001 -8.991707,23.51362 1.44656,10.2691 6.635007,19.47891 11.326024,28.54876 5.195497,7.18393 13.707924,10.92962 20.620268,16.22086 6.315667,4.2061 15.579054,6.03638 22.236958,1.7085 4.085791,-5.68282 -4.983075,-10.81525 -7.961355,-15.43378 -5.038025,-2.7976 -10.560573,-4.9598 -14.964529,-8.83553 -10.032408,-4.34507 -13.537045,-16.14927 -12.802105,-26.27051 0.55578,-6.72034 4.134107,-13.45341 1.441461,-20.19754 -1.458971,-7.90783 -9.944634,-7.00883 -10.905015,0.74562 z" />
    <path
       id="path1275"
       style="fill:#00aa44;fill-opacity:1;stroke:#00aa44;stroke-width:0.264583px;stroke-linecap:butt;stroke-linejoin:miter;stroke-opacity:1"
       d="m 79.136241,160.37208 c -6.866952,-8.99439 -17.81825,-13.13444 -28.142655,-7.12253 -16.661281,3.99768 -29.591202,17.40315 -36.496659,32.60576 -4.304916,12.47175 -7.6665326,27.75172 1.02662,39.24305 7.480164,14.69546 16.847732,-2.91364 15.585701,-12.10816 1.556461,-11.67551 2.600917,-25.48876 13.424301,-32.61174 9.545118,-9.05534 22.782813,-10.66904 34.832104,-14.21406 3.254682,-0.01 2.969045,-6.14065 -0.229412,-5.79232 z" />
    <path
       id="path1292"
       style="fill:#00aa00;stroke:#00aa00;stroke-width:0.264583px;stroke-linecap:butt;stroke-linejoin:miter;stroke-opacity:1"
       d="m 42.707562,165.86389 c -5.724237,-3.38052 0.16011,-9.94474 4.371047,-11.54207 5.804247,-4.34996 13.252657,-4.02093 20.01986,-5.47406 9.014323,-1.50061 18.685919,1.37338 25.244699,7.76582 5.001276,3.34124 11.074552,7.81538 17.308542,4.73243 6.70657,-3.22563 15.92684,-6.94604 22.04802,-0.4494 4.87186,3.5883 11.48001,7.34486 11.25874,14.30643 0.16018,7.2539 -7.57935,12.37889 -13.42635,7.3706 -7.6623,1.78419 -14.9886,5.24885 -22.89173,5.82685 -7.344855,-1.04752 -14.72082,-4.36601 -19.904968,-9.77453 -3.88942,-3.7006 -7.763027,-7.89535 -13.221018,-9.20568 -7.255855,-2.39067 -16.077146,-2.68391 -22.117968,2.69783 -4.527857,2.52312 -8.148023,-2.22397 -8.688874,-6.25422 z" />
    <path
       id="path1300"
       style="fill:#aaffaa;fill-opacity:1;stroke:#aaffaa;stroke-width:0.264583px;stroke-linecap:butt;stroke-linejoin:miter;stroke-opacity:1"
       d="m 50.738256,151.45679 c 3.976177,0.97842 7.265255,3.58152 11.031477,5.08375 1.741008,0.92707 4.481862,3.18806 3.285281,5.3205 -1.557868,2.23568 -4.149544,3.72034 -5.052745,6.40475 -0.449211,1.42254 -3.481759,3.37573 -1.792556,4.60133 1.752083,-0.12535 3.531684,-0.48193 5.231853,-0.97863 1.462006,-0.78091 3.254268,-0.95188 4.49649,-2.10247 0.922227,-1.69666 1.996232,-3.36755 3.554749,-4.57489 1.568426,-1.36424 3.91066,-2.52478 4.070675,-4.85377 -1.009189,-1.35524 -2.950712,-1.75338 -3.512568,-3.55667 -1.693567,-2.49671 -4.386153,-3.96347 -6.942225,-5.41102 -1.909156,-1.76151 -4.380775,-3.33189 -7.101607,-2.84688 -2.632711,0.28279 -5.109904,1.41828 -7.268824,2.914 z" />
    <path
       id="path1308"
       style="fill:#aaffaa;fill-opacity:1;stroke:#aaffaa;stroke-width:0.264583px;stroke-linecap:butt;stroke-linejoin:miter;stroke-opacity:1"
       d="m 53.696927,151.59943 c 6.126169,-0.84215 4.038008,5.06178 1.111726,7.41228 -1.680787,5.03342 -4.052707,9.7916 -5.204637,15.00261 -0.786576,5.83886 -6.583703,7.61321 -11.63457,6.47768 -5.544497,0.24684 -10.743584,2.84564 -16.086091,3.95113 -4.482487,-0.78851 -7.148728,2.90366 -3.352811,6.18724 1.0759,4.35741 2.73159,8.54243 6.164997,11.59904 2.729491,3.012 9.198114,4.01034 7.314137,9.4164 -1.4962,5.88242 -5.300717,10.73587 -8.386527,15.82721 -1.971437,3.59843 -5.437927,11.37228 1.47988,11.45362 6.405157,0.70194 12.841905,0.9851 19.298528,0.63754 3.856901,-0.42228 9.401918,5.46801 2.84162,5.42606 -4.509567,-0.25801 -8.994703,-0.7867 -13.502974,-1.16736 -4.928127,-0.87449 -11.39898,0.96568 -14.202451,-4.55669 -4.603067,-4.48419 -0.61998,-9.51136 1.27206,-14.10461 1.720051,-4.16028 3.470027,-8.31972 6.091217,-11.93948 1.269628,-5.2693 -5.215437,-7.33897 -7.070747,-11.68316 -3.171566,-4.9011 -8.471283,-11.07362 -6.065597,-16.97477 1.94857,-5.29499 7.211317,-6.48673 12.131444,-7.2581 5.176187,-1.56729 10.800774,-0.67099 16.047911,-0.67987 4.343247,-3.25984 2.700177,-9.88816 5.766757,-14.22607 1.013991,-4.1771 3.773977,-7.23277 5.986128,-10.8007 z" />
    <path
       id="path1316"
       style="fill:#aaffaa;fill-opacity:1;stroke:#aaffaa;stroke-width:0.264583px;stroke-linecap:butt;stroke-linejoin:miter;stroke-opacity:1"
       d="m 62.123861,166.74353 c 2.833741,4.89872 -4.668977,6.98446 -6.895561,3.04002 -4.920154,-2.88319 -10.413151,-4.25262 -16.123608,-4.05681 -7.169594,-2.46438 -1.889807,7.22102 -4.483297,11.10931 -0.47428,5.52776 3.787131,11.00452 1.01717,16.36974 -0.80161,6.04541 -7.562563,7.34016 -11.319074,11.31801 -2.535816,2.8352 -12.07953,5.43582 -8.543544,9.7815 4.644547,3.70114 8.952854,8.18379 14.935331,9.66311 5.608967,1.95258 6.626837,8.70183 6.443397,13.8887 -0.007,6.26374 0.31607,13.09614 -0.16335,19.00234 -6.544557,-0.43488 -4.716367,-9.57249 -5.031977,-14.40575 -0.53675,-5.31818 5.349987,-12.47238 -2.42803,-13.65247 -5.159027,-3.67284 -11.395344,-5.66308 -16.195091,-9.81814 -3.152756,-3.41092 -4.4613858,-10.41605 0.44463,-12.8971 6.468527,-3.64121 10.047744,-11.01555 17.063881,-13.79069 3.450617,-4.29242 -1.43375,-9.63026 -0.55653,-14.49985 1.2077,-5.8046 -2.604886,-14.11436 3.040811,-17.96626 5.713323,-3.2306 11.41795,1.3764 16.912427,2.79204 3.905031,1.55804 7.61825,3.49894 11.882415,4.1223 z" />
    <path
       id="path1324"
       style="fill:#aaffaa;stroke:#aaffaa;stroke-width:0.264583px;stroke-linecap:butt;stroke-linejoin:miter;stroke-opacity:1"
       d="m 119.34252,166.93372 c -2.40965,1.30143 -0.83986,4.7861 1.52894,4.94568 2.04127,1.05188 4.92148,-0.22458 4.87164,-2.67353 0.5674,-3.43734 -4.71278,-5.23936 -6.40058,-2.27215 z" />
    <path
       id="path1339"
       style="fill:#00aa00;fill-opacity:1;stroke:#00aa00;stroke-width:0.264583px;stroke-linecap:butt;stroke-linejoin:miter;stroke-opacity:1"
       d="m 133.0528,183.50427 c 1.79563,1.49896 3.35694,3.27241 5.35531,4.51592 2.11398,1.76378 3.94547,3.82972 5.96881,5.69145 0.33888,1.3277 1.94247,1.72232 1.14447,0.0161 -0.67254,-2.06244 -1.84247,-4.14428 -3.58868,-5.45842 -1.62928,-1.39458 2.68801,-1.22056 3.61955,-0.97884 0.84822,0.004 4.21818,1.35232 2.17069,-0.12918 -2.35847,-1.46004 -5.19008,-0.51518 -7.74099,-0.75373 -2.45502,-0.48004 -3.78554,-3.86939 -6.55578,-2.96647 z" />
    <path
       d="m 157.3426,247.41054 c -10.45203,-3.90366 -14.66911,14.15591 -6.29891,19.56137 7.28172,7.30762 18.48339,7.06945 27.98769,8.88224 13.57472,0.18698 27.07257,1.96225 40.65665,2.09916 11.28708,0.91131 22.46399,-0.90224 33.51715,-2.89475 10.10238,-0.21218 19.51895,-4.25855 29.55347,-4.72662 7.63692,-1.78984 15.41495,-4.47365 22.14719,-8.57052 5.2947,-6.32777 8.61093,-15.11789 8.68626,-23.44318 -0.79216,-10.77047 -14.10824,-9.63113 -21.88874,-9.0041 -8.32105,1.63015 -10.11567,11.13076 -14.94344,16.83182 -8.18995,11.49934 -23.22288,14.53709 -36.03268,18.13101 -18.21514,4.32259 -37.24207,4.42692 -55.65336,1.39653 -10.30064,-1.59642 -22.30543,-0.71902 -30.08059,-9.0017 -4.44254,-4.45534 1.72251,-5.61165 2.34931,-9.26126 z"
       style="fill:#3771c8;fill-opacity:1;stroke:#3771c8;stroke-width:0.264583px;stroke-linecap:butt;stroke-linejoin:miter;stroke-opacity:1"
       id="path162" />
    <path
       d="m 170.71362,234.01839 c -7.87911,-2.97548 -16.17612,3.30204 -20.32167,9.58922 -3.60176,6.66415 0.003,14.64956 6.76951,17.49032 14.37842,8.87794 31.77716,8.53993 47.84896,11.62254 8.8007,-1.03301 17.75716,-1.3469 26.67077,-1.35881 21.01157,-0.67483 42.49312,-2.59336 62.05196,-10.81345 7.57749,-2.55344 12.23878,-10.6537 12.38334,-18.33503 -2.09945,-8.5853 -12.25575,-10.26011 -19.58297,-12.02374 -7.63979,-2.57321 -11.50759,4.18796 -6.42029,9.96955 0.0188,9.05796 -11.72501,11.40884 -18.83902,13.05989 -9.85586,1.70963 -19.65887,3.73316 -29.69951,3.98729 -12.31334,1.50315 -24.71493,2.34707 -37.09512,1.44335 -10.55601,0.92122 -21.83732,-1.39334 -30.20004,-8.11897 -9.06939,-8.06421 5.35301,-9.25769 7.48497,-14.71383 0.48461,-1.13075 -0.49913,-1.32671 -1.05089,-1.79833 z"
       style="fill:#5f8dd3;fill-opacity:1;stroke:#5f8dd3;stroke-width:0.264583px;stroke-linecap:butt;stroke-linejoin:miter;stroke-opacity:1"
       id="path82" />
    <path
       d="m 170.6872,222.77323 c -6.87626,2.35163 -14.39648,6.48765 -17.2506,13.50395 -2.5674,9.56894 4.68071,19.74752 13.87562,22.36936 9.81645,4.85313 21.07533,4.62714 31.67487,6.22069 8.47493,-0.66298 16.89582,-1.77313 25.38117,-2.24045 9.21262,-1.26983 18.68477,-0.32506 27.6215,-3.4345 7.86531,-3.14314 16.95622,-2.39783 24.26849,-6.89695 5.28401,-3.65744 13.0222,-6.19352 13.42057,-13.79404 1.87088,-7.78195 -5.18987,-17.3296 -13.52725,-15.22108 -4.48014,3.86941 -0.58019,12.38965 -6.75855,15.65086 -11.99168,8.29639 -27.14117,9.30006 -41.1641,11.12003 -13.18536,1.00798 -26.66385,0.88108 -39.3163,-3.40845 -7.67371,-2.77334 -17.95353,-3.30291 -21.6408,-11.87403 -1.72408,-4.80416 12.8656,-9.60883 3.76746,-12.47433 z"
       style="fill:#4682b3;fill-opacity:1;stroke:#4682b3;stroke-width:0.264583px;stroke-linecap:butt;stroke-linejoin:miter;stroke-opacity:1"
       id="path96" />
    <path
       d="m 247.24785,208.24074 c 3.40732,-3.4993 9.12823,-3.96013 12.53836,-0.18852 3.27046,3.42777 5.36433,8.51484 4.92908,13.28309 -0.91066,4.26073 -3.30918,8.18183 -7.07635,10.49668 -4.87654,4.38857 -11.08804,6.86937 -17.54198,7.71052 -6.59785,0.80754 -13.13292,2.60827 -19.83125,1.78176 -8.30487,-0.30851 -16.87542,-1.11181 -24.32622,-5.1101 -4.70538,-0.31387 -6.47361,-4.47404 -8.0493,-8.27068 -2.35042,-4.1163 1.15907,-8.66965 5.41271,-9.27673 4.51442,-2.05964 8.95676,-4.43136 13.91011,-5.33773 9.28687,-1.72488 18.62537,-4.76448 28.16976,-3.25779 3.91729,0.27416 8.83976,1.45599 11.86508,-1.8305 z"
       style="fill:#5f8dd3;stroke:#5f8dd3;stroke-width:0.264583px;stroke-linecap:butt;stroke-linejoin:miter;stroke-opacity:1"
       id="path124" />
    <path
       id="path4260"
       style="fill:#4682b3;fill-opacity:1;stroke:#4682b3;stroke-width:0.264583px;stroke-linecap:butt;stroke-linejoin:miter;stroke-opacity:1"
       d="m 204.39496,190.66585 c 0.66921,-4.68841 -0.11304,-9.78412 1.95496,-14.13351 4.23787,-6.2742 12.7033,-5.17255 19.2635,-6.01938 8.49754,-0.39809 18.34762,-1.51147 25.46507,4.13257 5.99932,5.97422 4.66361,15.00941 5.11006,22.68934 -1.27299,7.62565 1.8372,16.92571 -4.39746,23.02656 -5.11921,5.22006 -12.60872,1.78123 -18.89378,2.65572 -9.20032,0.0813 -20.03649,-2.26683 -27.41277,4.81627 -5.8353,4.57827 -4.58215,12.5108 -4.81787,19.01099 0.29238,6.33782 -6.95818,5.61036 -11.15318,4.69181 -4.78651,-1.00325 -8.17937,-5.66519 -10.15006,-9.86171 -2.01759,-8.14983 -4.19487,-16.6865 -2.41267,-25.10568 1.47237,-5.39422 2.00923,-11.83007 6.74032,-15.47152 3.87988,-3.22604 9.44607,-2.44119 14.12555,-3.63431 9.0999,-0.64409 18.19258,1.35617 27.28488,0.34365 3.0912,1.66201 8.87481,-1.38746 3.94334,-3.69831 -5.55496,0.87553 -11.21833,0.50771 -16.92886,0.78015 -3.04767,-0.0175 -9.6216,1.05163 -7.72103,-4.22264 z" />
    <path
       d="m 190.3941,210.86241 c -6.16078,-4.06829 -14.79336,-1.95342 -19.35663,3.54844 -4.54483,3.5172 -8.94272,8.76369 -7.44296,14.91143 0.95042,8.12747 7.07906,14.77681 14.49418,17.77249 9.90686,4.66405 20.80991,8.77306 31.94906,7.03582 9.55313,-0.4805 19.15348,-1.12406 28.45583,-3.49222 5.689,-0.38822 11.26687,-1.55315 16.83494,-2.77098 3.86034,-0.59322 7.68549,-1.0662 11.37828,-2.4047 4.83828,-1.122 9.27276,-3.67892 12.30713,-7.66502 5.04939,-4.17716 6.53247,-10.94978 4.81773,-17.09938 -2.27563,-8.77965 -9.44909,-16.0523 -17.88527,-19.1217 -4.88116,-0.66956 -11.77888,-3.04865 -15.54933,1.05488 -1.9632,7.21025 7.92499,6.00636 10.99192,10.18341 4.00041,4.09526 -0.37192,9.21063 -3.15132,12.5236 -4.31904,5.0339 -10.52589,8.4151 -17.19217,8.80521 -13.74286,1.95383 -27.91968,3.0175 -41.61605,0.22664 -5.35811,-1.62424 -11.90838,-5.43175 -11.45862,-11.87995 -0.66242,-4.9658 9.29038,-4.05744 4.92621,-9.32115 -0.73638,-0.86823 -1.62169,-1.59328 -2.50322,-2.30678"
       style="fill:#3771c8;fill-opacity:1;stroke:#3771c8;stroke-width:0.264583px;stroke-linecap:butt;stroke-linejoin:miter;stroke-opacity:1"
       id="path116" />
    <path
       id="path4268"
       style="fill:#ffffff;stroke:#ffffff;stroke-width:0.264583px;stroke-linecap:butt;stroke-linejoin:miter;stroke-opacity:1"
       d="m 212.24072,179.84864 c -5.91503,4.07399 4.49266,12.35022 7.16923,5.76494 2.36453,-4.03055 -3.77955,-10.42248 -7.16923,-5.76494 z" />
    <path
       d="m 184.23238,204.28908 c -4.84974,1.3752 -7.3581,7.16095 -5.96294,11.8232 0.84254,4.11339 2.68184,8.15318 5.91456,10.93342 1.56063,1.44266 3.51389,2.32928 5.48061,3.04661 1.14699,0.97845 3.06464,0.99744 3.80209,-0.49846 1.37526,-2.26555 1.11079,-4.99667 1.39129,-7.51363 0.67887,-3.37133 3.35131,-6.32009 2.8505,-9.90336 -0.13565,-1.96054 -2.05607,-2.65039 -3.69432,-2.98583 -2.72254,-0.82517 -5.58479,-1.68904 -7.69094,-3.70404 -0.7718,-0.24523 -1.36676,-0.8218 -2.05904,-1.21516"
       style="fill:#4682b3;fill-opacity:1;stroke:#4682b3;stroke-width:0.264583px;stroke-linecap:butt;stroke-linejoin:miter;stroke-opacity:1"
       id="path138" />
    <path
       d="m 255.15838,192.31688 c 1.00964,1.91497 1.19367,4.14658 1.17016,6.27417 -0.18315,2.62064 -0.34822,5.25126 -0.20177,7.87815 -0.21851,2.05486 0.11046,4.2961 -0.97449,6.1563 -0.79236,1.12435 -2.37608,0.93415 -3.50175,0.50572 -0.98776,-0.26711 -1.78433,-1.0067 -2.15446,-1.95706 -0.82839,-2.19515 -1.8354,-4.43665 -1.77088,-6.83443 0.0286,-1.41391 0.69568,-2.71205 1.43366,-3.88148 0.94474,-1.37507 2.18545,-2.67548 2.39084,-4.40734 0.31108,-1.54624 -0.15913,-3.18612 0.3818,-4.68885 0.47327,-0.95888 1.80778,-0.74857 2.48838,-0.14847 0.3509,0.27901 0.63829,0.66032 0.73851,1.10329 z"
       style="fill:#4682b3;fill-opacity:1;stroke:#4682b3;stroke-width:0.264583px;stroke-linecap:butt;stroke-linejoin:miter;stroke-opacity:1"
       id="path152" />
  </g>
</svg>
