<?xml version="1.0" encoding="UTF-8" standalone="no"?>
<svg
   xmlns:dc="http://purl.org/dc/elements/1.1/"
   xmlns:cc="http://creativecommons.org/ns#"
   xmlns:rdf="http://www.w3.org/1999/02/22-rdf-syntax-ns#"
   xmlns:svg="http://www.w3.org/2000/svg"
   xmlns="http://www.w3.org/2000/svg"
   xmlns:sodipodi="http://sodipodi.sourceforge.net/DTD/sodipodi-0.dtd"
   xmlns:inkscape="http://www.inkscape.org/namespaces/inkscape"
   sodipodi:docname="plt-inches.svg"
   inkscape:version="1.0.1 (3bc2e813f5, 2020-09-07)"
   id="svg8"
   version="1.1"
   viewBox="0 0 317.5 158.75"
   height="600"
   width="1200">
  <defs
     id="defs101" />
  <sodipodi:namedview
     inkscape:snap-global="false"
     inkscape:document-rotation="0"
     inkscape:window-maximized="0"
     inkscape:window-y="19"
     inkscape:window-x="0"
     inkscape:window-height="1061"
     inkscape:window-width="1920"
     units="px"
     showgrid="false"
     inkscape:current-layer="layer1"
     inkscape:document-units="mm"
     inkscape:cy="296.09897"
     inkscape:cx="601.04866"
     inkscape:zoom="1.4"
     inkscape:pageshadow="2"
     inkscape:pageopacity="0.0"
     borderopacity="1.0"
     bordercolor="#666666"
     pagecolor="#ffffff"
     id="base" />
  <metadata
     id="metadata5">
    <rdf:RDF>
      <cc:Work
         rdf:about="">
        <dc:format>image/svg+xml</dc:format>
        <dc:type
           rdf:resource="http://purl.org/dc/dcmitype/StillImage" />
        <dc:title></dc:title>
      </cc:Work>
    </rdf:RDF>
  </metadata>
  <g
     transform="translate(0,-138.25001)"
     id="layer1"
     inkscape:groupmode="layer"
     inkscape:label="Layer 1">
    <path
       d="m 7.9257717,152.8404 c 2.0547949,5.61393 -1.3146546,11.18817 -4.0405178,15.87251 0.6929441,4.02605 -2.5500307,7.42974 -0.3587141,10.87209 1.9112404,4.45305 4.0212859,8.86683 5.1329311,13.60758 3.7389091,1.39883 5.1336151,7.07717 9.0104721,5.93371 5.791173,0.58754 10.149291,5.62129 16.11628,5.66187 6.609734,-1.16375 6.478765,7.7808 11.825162,8.27386 5.401748,-4.47768 8.288631,5.66992 11.989012,8.41944 2.0926,3.19126 4.786358,0.0186 2.124801,-2.0687 -0.515912,-5.34836 7.121541,-9.36774 11.707553,-7.39535 2.604639,1.76819 7.698845,2.27298 6.797634,-2.37502 4.423624,-1.42713 11.501103,-4.53679 14.507499,0.66829 1.889777,3.94942 2.647804,9.85698 7.636526,11.04901 5.96805,-1.17679 -2.226797,-7.11282 -2.200829,-10.52628 -2.373855,-5.09778 -1.42508,-11.32507 4.089979,-13.80089 4.77484,-2.88408 2.86663,-8.14771 3.66575,-12.42902 2.79728,-4.20584 0.99343,-12.77936 8.05488,-13.82067 1.67755,-2.30777 -3.51192,-5.41386 0.84158,-7.49322 3.75562,-2.26001 1.61757,-11.96929 -2.53387,-8.05058 -0.85884,4.12473 -1.96048,9.28793 -7.30702,8.4438 -2.47531,2.04211 -5.026002,5.62438 -7.529383,6.1612 0.165132,4.65426 -9.880279,8.20164 -7.946566,1.3742 -0.368071,-5.908 -6.256946,-8.5279 -10.905151,-10.68714 -4.954816,-2.50145 -10.697504,1.48068 -15.194733,-2.76228 -3.767095,-2.22958 -7.906144,0.41663 -11.927463,0.0128 -5.437951,-0.1047 -10.893364,0.40852 -16.246411,-0.71494 -6.634761,-0.19173 -12.658337,-2.95582 -18.659884,-5.45297 -3.639367,-2.41011 -5.865674,3.0171 -8.6495173,1.22673 z"
       style="fill:#0066ff;stroke:#0066ff;stroke-width:0.264583px;stroke-linecap:butt;stroke-linejoin:miter;stroke-opacity:1"
       id="path370" />
    <path
       d="m 221.65675,216.01501 c -7.19343,-0.44982 -2.51249,7.43407 -6.00219,10.84191 0.98489,1.47271 0.30003,3.54338 0.94045,5.15834 2.73005,-1.5967 4.34631,0.0989 5.48826,2.11739 1.75732,-2.29537 3.6906,-3.63316 6.6138,-2.02487 4.81908,0.59367 5.08747,-4.17214 4.74228,-7.18292 3.10966,-2.00455 6.61609,-3.79917 5.7915,-7.7811 3.47702,0.31885 6.82562,1.11119 9.02474,-2.52657 5.05407,-1.30219 6.85213,4.98488 11.70412,5.52266 3.91341,0.89282 4.37919,6.9186 -0.33524,6.3368 -2.12809,0.64985 -3.37963,2.79453 0.20488,3.00867 2.76022,0.90706 3.22732,-1.078 3.37523,-2.80844 3.07214,-0.85796 3.29261,-4.69057 1.40584,-6.51345 0.909,-0.17765 4.25499,2.83804 2.82756,-0.61464 -2.44234,-1.67895 -5.09974,-1.21151 -6.79779,-3.56825 -2.72549,0.66772 -9.41184,-5.61478 -4.27891,-4.92189 2.03602,1.97669 3.46884,3.73972 6.8026,2.8591 3.32564,0.92486 5.32114,3.33695 6.81073,5.90823 3.22751,0.32523 2.93331,3.8163 5.3206,4.96357 1.57775,4.31918 5.66798,0.55022 3.13815,-2.38017 1.2043,1.30391 5.03493,0.67418 5.70065,0.29009 -2.44391,-2.13486 -10.97228,-2.00204 -9.10225,-6.25242 0.91285,1.82995 5.07565,3.6199 3.76342,0.0865 -3.16761,-3.17329 3.90918,-0.30237 4.46886,-3.45361 4.15941,-1.15935 0.94122,-3.81929 -1.14754,-4.83213 2.72577,-3.47333 -1.66244,-8.36558 3.42631,-10.58462 2.94284,-1.03569 -1.1964,2.8163 2.38121,1.23653 1.66384,5.34378 2.17007,-3.26203 5.77543,-2.26103 -0.39089,-1.80612 -5.57985,2.27703 -4.42199,-1.57099 1.37575,-3.10286 4.9397,-3.07933 5.31748,0.53164 4.12853,2.10623 7.85696,-2.27159 11.95665,-2.5538 3.20917,0.16867 7.35767,-3.12831 2.42219,-4.73222 -3.72083,-1.88432 -2.85802,-5.77023 -0.60954,-8.22958 1.56635,-5.21631 -9.58615,-6.49607 -6.4678,-10.52977 5.23848,0.0687 9.64813,-7.45408 4.18136,-10.53883 -3.06257,-2.34309 -7.9357,1.13867 -8.87913,-4.35482 -2.10987,-3.38137 -3.41227,-10.378 -8.85153,-8.36346 -2.41909,-0.89034 -1.62008,-5.67111 -5.67912,-4.8971 -4.0784,-1.42431 -9.79924,0.12083 -10.01559,5.13351 0.52893,2.80667 -4.27517,1.5169 -1.43483,4.63541 -0.32286,2.10248 -3.99218,2.66611 -0.54289,4.30619 1.1114,5.59225 -7.58218,2.91852 -7.61534,-0.78 2.30552,-0.31492 9.12649,0.16348 6.23259,-4.21047 -3.36119,-5.08979 -9.50526,2.61572 -12.23144,-1.62334 -3.88562,-2.65584 -9.29725,3.69321 -10.30381,7.45995 -2.46943,4.36293 -0.603,10.76466 -5.25427,13.69885 -4.27007,2.28376 -4.07642,10.25109 0.85081,11.20565 2.43961,-0.33983 4.4242,-4.30401 6.15223,-0.10492 -0.55568,4.67326 6.37941,8.49756 6.74491,2.11444 -2.28267,-2.10378 -1.93856,-4.49475 0.87838,-6.08412 -0.97032,-2.84382 -7.74884,-5.61667 -2.17927,-8.93151 0.312,-2.26001 0.19158,-9.00946 3.89656,-7.16713 0.58341,3.68086 -4.74587,7.42005 -0.43444,10.60146 0.34538,5.75708 5.83157,0.51187 7.78902,-1.14818 5.0335,1.83456 -7.68874,3.98213 -2.53089,6.43302 2.94471,2.96959 -0.71657,3.89064 -2.59291,1.41587 -3.07358,2.55994 4.54963,6.12287 0.11354,7.75138 0.30155,3.79126 -4.9424,1.66792 -2.5066,-0.12131 -2.27039,0.49478 -4.10897,6.94832 -7.83607,4.07065 -2.89156,1.80633 -1.88292,-1.94956 -0.50089,-2.56986 -3.52986,-0.0349 -1.2235,-4.87146 -3.343,-5.07643 0.29561,2.43719 -0.75231,2.53925 -2.6643,3.36661 0.0824,2.64015 4.62585,2.96486 1.47689,5.25376 3.68554,0.49007 -0.95722,4.29343 -2.0268,1.6144 -3.24674,0.12906 -1.62882,3.50719 -3.47348,4.64562 1.64485,2.93145 -4.09843,0.37185 -3.26422,3.67556 -1.22611,4.06669 -5.39601,0.22906 -6.2046,0.85563 3.68392,2.31299 0.10147,3.99666 -2.34523,2.25506 -4.91759,2.40037 3.44497,2.01391 4.05204,4.64828 1.35789,3.72163 -0.29814,12.15444 -5.73661,8.71206 -1.04161,-1.15707 -2.5748,-2.0329 -4.16076,-1.42083 z"
       style="fill:#ff2a2a;stroke:#ff2a2a;stroke-width:0.264583px;stroke-linecap:butt;stroke-linejoin:miter;stroke-opacity:1"
       id="path378" />
    <path
       d="m 108.77289,244.27064 c 2.05134,-0.0614 5.61892,-0.69375 5.14441,2.54262 -1.41584,1.97369 -2.06823,4.32138 -3.15282,6.49242 -1.1e-4,0.92005 -3.17396,2.03437 -1.12553,1.69899 2.82031,-1.58209 3.58437,2.52768 4.39957,4.34787 0.56999,2.56387 2.24539,4.88372 5.05055,5.08095 1.19411,0.55084 2.75696,1.74306 0.99874,2.7585 -1.30064,1.14084 3.00479,3.82312 0.19365,2.90351 0.38139,0.96298 3.15763,2.50158 0.66998,3.44833 -0.93726,1.84527 2.39579,2.33937 2.26328,0.18712 2.10754,-1.2695 4.87925,0.60046 4.42782,3.06782 0.5556,2.60345 -2.20614,3.48372 -3.57509,4.99724 -0.18233,1.20336 -2.7444,1.38705 -0.40343,1.26475 1.1051,0.36473 3.37761,-1.69828 2.99827,0.64259 -1.35861,2.43896 -4.24641,4.31586 -7.09751,3.86106 -1.95672,-1.39581 -2.91757,1.88226 -4.88928,0.3932 -1.98559,-0.76554 -3.23033,2.21567 -5.12257,0.17967 -2.49454,-1.03959 -2.44913,1.7551 -2.57496,3.22269 -2.10866,0.68562 -3.37601,-3.12191 -5.32172,-0.9999 -1.21636,0.319 0.13332,3.3467 -1.15318,1.83159 0.20023,-2.03921 -2.031104,-0.7335 -2.541594,-0.47994 0.12604,-2.34991 3.082604,-2.61043 4.027724,-4.47144 1.80345,-0.0404 1.55838,-3.38861 3.55684,-1.97263 1.37852,-0.92053 5.06053,-1.43195 4.66842,-3.35571 -0.82703,2.11688 -2.96236,0.95235 -4.23157,10e-4 -1.38349,1.7123 -1.58729,-1.70923 -3.17227,-0.20253 -1.61093,1.04353 -2.43493,-0.0349 -1.51773,-1.111 -2.402034,-0.21934 0.86911,-2.92508 2.11318,-2.49484 2.04775,0.0941 3.31017,-4.57727 0.63016,-3.74394 -0.93106,2.12094 -2.97575,-0.44057 -0.83572,-1.14384 1.05465,0.0355 2.5089,-1.37302 0.59429,-0.80859 -2.29558,-0.57987 1.75104,-2.7062 2.45217,-0.76988 1.66396,0.74434 2.20562,-2.26019 3.53954,-0.91583 -1.72492,-1.28584 -0.85122,-3.88851 -0.13392,-5.2031 -2.64251,0.86913 -1.58932,-2.7346 -0.89646,-4.01912 -1.02265,-1.1013 -1.73448,2.55095 -3.10293,0.46581 -1.717,-1.32892 -0.42029,0.67471 0.14826,1.22029 -0.7063,0.33237 -2.15419,-2.6902 -3.03215,-0.76487 0.94706,1.03048 0.94314,1.17811 -0.0899,0.13142 -2.18468,-1.86695 1.51108,-3.76335 0.49681,-5.77076 -0.1227,-1.34552 -2.25215,-1.68987 -1.25367,-0.0159 -0.47059,1.79515 -1.63511,-1.07714 -1.03356,-1.89575 -0.958044,-0.6108 -2.009514,2.00397 -1.931734,-0.17559 -0.13448,-1.11947 2.992934,-3.1253 0.37578,-2.76314 -0.72054,0.94597 -0.31666,0.21794 -1.02861,-0.0739 0.20686,-1.41192 2.309214,-3.19219 0.037,-4.27639 -1.80868,-0.62245 -2.01041,-2.81271 -0.29257,-2.95097 -0.70083,-0.88561 -2.95623,-2.64914 -0.50225,-2.97858 0.7935,-0.21201 1.61165,-2.25144 1.73799,-0.29297 -0.73989,1.77534 0.817964,3.91467 1.999934,1.48478 1.52119,-0.52679 -0.62861,-2.66514 1.66096,-2.62333 0.84567,-0.66555 0.62957,-1.98398 2.23648,-1.43996 1.76505,1.38025 2.89564,-0.96212 4.35791,-1.02115 1.12469,2.41535 -2.8579,3.60243 -2.4598,5.65416 0.96561,0.81126 -2.13111,2.07996 0.0382,1.6114 0.50265,-0.33248 0.96068,-0.97945 1.65458,-0.75457 z"
       style="fill:#37c871;stroke:#37c871;stroke-width:0.264583px;stroke-linecap:butt;stroke-linejoin:miter;stroke-opacity:1"
       id="path386" />
    <path
       d="m 95.018776,244.5812 c 0.0792,1.18248 -0.20012,2.36724 -0.69383,3.43733 -0.16165,0.29682 -0.37449,0.56241 -0.55949,0.84483 -0.0502,0.0796 -0.31504,0.327 -0.12158,0.35289 0.19303,-0.1998 0.4569,-0.31694 0.63983,-0.53012 0.37704,-0.42348 0.72944,-0.86859 1.09629,-1.30102 0.45946,-0.56469 0.9153,-1.14127 1.2584,-1.78581 0.14787,-0.22351 -0.0592,-0.44918 -0.13834,-0.65602 -0.14982,-0.29021 -0.32339,-0.57811 -0.56043,-0.80508 -0.175,-0.14978 -0.40975,-0.0283 -0.53651,0.12194 -0.11813,0.11829 -0.24654,0.22635 -0.38434,0.32106 z"
       style="fill:#37c871;stroke:#37c871;stroke-width:0.264583px;stroke-linecap:butt;stroke-linejoin:miter;stroke-opacity:1"
       id="path392" />
    <path
       d="m 103.8924,264.74568 c -0.25105,0.82513 -0.6882,1.58738 -1.24787,2.24174 -0.14377,0.19117 -0.32756,0.37873 -0.36263,0.62484 -0.004,0.18789 0.21106,0.26302 0.36536,0.28004 0.35769,0.0422 0.73772,0.0502 1.07611,-0.09 0.35591,-0.15065 0.54853,-0.50845 0.7195,-0.83332 0.19097,-0.39615 0.34992,-0.82565 0.34574,-1.27101 -4.9e-4,-0.24196 -0.1325,-0.46731 -0.33358,-0.59826 -0.17912,-0.13071 -0.36764,-0.24851 -0.56263,-0.35403 z"
       style="fill:#37c871;stroke:#37c871;stroke-width:0.264583px;stroke-linecap:butt;stroke-linejoin:miter;stroke-opacity:1"
       id="path398" />
    <path
       d="m 98.839366,259.90976 c 0.12279,0.97673 0.46458,1.83911 1.205454,2.41316 -0.304084,0.65171 -0.915944,1.44203 0.0771,1.88613 0.4834,0.95176 -0.860354,2.19451 -1.814184,1.92555 -1.53805,0.0455 -0.51734,1.75806 -0.10747,2.50713 0.19398,1.17377 -0.28072,2.37556 0.0479,3.5496 0.19687,1.13927 0.59289,2.39116 0.0875,3.49652 -0.59778,0.47606 -1.4202,1.45571 -0.83112,2.1432 -0.88341,0.24441 -1.8449,-0.50646 -2.74989,-0.70452 -1.34643,-0.40698 -0.34934,2.41836 -1.94369,1.99775 -1.12646,-0.0403 -1.24456,2.11736 -2.60871,1.35835 -0.30624,-1.03867 -1.14984,-0.70156 -1.363,0.20553 -0.62277,1.24824 -2.2086,1.29097 -3.42366,1.29628 -0.73485,-0.27126 -1.5312,-0.54975 -2.19749,-0.83379 -0.23484,-0.63006 1.74307,-1.02025 0.5926,-1.31437 -0.54742,0.13619 -2.31527,0.72175 -1.20041,-0.34144 0.12044,-0.53133 1.69284,-1.1036 1.0688,-1.48151 -0.66184,0.44828 -2.3081,1.40731 -2.56995,0.10304 0.14249,-1.2406 1.81719,-0.5961 2.55662,-1.22099 0.52923,-0.98333 -1.29855,0.29881 -1.7159,-0.30832 0.0385,-1.29766 2.20662,-0.85132 2.57076,-2.15507 0.63461,-0.74756 1.80547,0.11157 2.27182,-0.83684 0.0412,0.8325 -2.68249,1.31453 -2.06582,-0.1645 0.13442,-0.91598 1.30222,-1.37402 1.30246,-2.24798 0.19713,-0.51836 2.33094,-0.15557 1.10955,-0.85748 -1.09216,0.40537 -2.88219,0.24647 -3.03778,-1.20115 0.15414,-0.93437 1.47575,-1.57291 1.46266,-2.60734 -0.62412,-0.25252 -1.38085,-0.2319 -1.14647,-1.19428 -0.17759,-1.02245 1.17218,-1.97853 2.09753,-1.70622 0.62423,0.66749 1.5441,2.11523 2.1991,0.60752 0.62307,-0.61357 1.72758,-0.581 1.97995,-1.52576 0.68582,-0.46352 -0.76978,0.10414 -1.02564,-0.33639 -1.41957,-0.48437 0.0649,-1.14419 0.66252,-1.47321 0.11369,-1.00941 0.35426,-2.10878 1.6006,-2.23067 0.85332,0.10697 0.34432,-2.00048 0.574,-0.93147 0.72495,0.1896 0.25595,2.0739 1.19752,1.09308 0.19177,-0.62381 0.77049,-1.65398 1.32862,-0.65976 0.48102,0.98148 1.48677,1.66144 2.36685,0.74705 0.61661,0.0528 1.0325,0.59977 1.44131,1.00317 z"
       style="fill:#37c871;stroke:#37c871;stroke-width:0.264583px;stroke-linecap:butt;stroke-linejoin:miter;stroke-opacity:1"
       id="path404" />
    <path
       id="path410"
       style="fill:#ececec;fill-opacity:1;stroke:#ececec;stroke-width:0.264583px;stroke-linecap:butt;stroke-linejoin:miter;stroke-opacity:1"
       d="m 65.630958,170.58973 c 1.760102,-0.77349 3.900983,-1.04327 5.656121,-0.11169 0.907252,0.49867 1.796457,1.3726 1.800999,2.47478 0.03276,0.76447 -0.577605,1.62897 -1.40914,1.5253 -0.440296,-0.11227 -0.863901,-0.32447 -1.336583,-0.2769 -1.730242,0.0721 -3.558431,-0.002 -5.116244,-0.8422 -0.434289,-0.20463 -0.947075,-0.5755 -0.763425,-1.12969 0.182309,-0.66467 0.771353,-1.10736 1.168272,-1.6396 z" />
    <path
       d="m 45.574601,169.68771 c 2.626869,-1.36814 6.314641,-1.99199 8.684177,0.18773 1.398314,1.42352 -0.262803,3.63691 -1.955705,2.26852 -2.180241,-0.50478 -5.001841,0.28488 -6.621351,-1.63447 -0.12636,-0.25136 -0.169046,-0.5462 -0.107121,-0.82178 z"
       style="fill:#ececec;fill-opacity:1;stroke:#ececec;stroke-width:0.264583px;stroke-linecap:butt;stroke-linejoin:miter;stroke-opacity:1"
       id="path416" />
    <path
       id="path458"
       style="fill:#ececec;fill-opacity:1;stroke:#ececec;stroke-width:0.264583px;stroke-linecap:butt;stroke-linejoin:miter;stroke-opacity:1"
       d="m 63.584508,194.22857 c -2.819064,-1.48369 -5.957194,-2.65447 -9.193045,-2.44099 -0.579344,0.0545 -1.187835,0.18817 -1.714323,-0.15197 -0.653637,-0.29739 -0.878663,-1.13211 -0.583138,-1.75927 0.323848,-0.79434 1.088735,-1.38242 1.932137,-1.51982 1.967027,-1.27598 4.15306,-2.43504 6.544826,-2.53251 0.810046,-0.0257 1.628112,0.0986 2.383888,0.39528 1.903053,1.51823 3.119977,4.02602 2.783011,6.47846 -0.03998,0.63805 -0.377717,1.29778 -1.017373,1.50677 -0.361408,0.13587 -0.769202,0.14503 -1.135983,0.024 z" />
    <path
       id="path422"
       style="fill:#ff2a2a;fill-opacity:1;stroke:#ff2a2a;stroke-width:0.264583px;stroke-linecap:butt;stroke-linejoin:miter;stroke-opacity:1"
       d="m 49.485898,193.46056 c 0.307581,-3.23642 2.745903,-5.92964 5.618131,-7.24871 1.40238,-0.8871 2.674745,-2.33733 4.524246,-2.02751 1.393423,0.013 1.918628,1.98563 3.431358,1.59691 1.390091,-0.63639 2.782642,0.84604 2.633145,2.22151 0.08504,1.94072 0.989315,4.05442 0.08557,5.88784 -0.747776,1.11647 -0.220571,3.7027 -1.192657,4.03747 -0.21805,-2.21134 -0.152387,-4.45298 -0.4137,-6.65597 -0.410523,-1.75703 -1.974042,-3.19599 -3.817438,-3.24959 -2.068125,-0.4209 -4.277678,-0.0226 -5.879093,1.41965 -1.550664,1.07951 -2.439449,2.88246 -4.023676,3.89785 -0.300737,0.13079 -0.641284,0.19058 -0.965882,0.12055 z" />
    <path
       id="path464"
       style="fill:#e6e6e6;stroke:#e6e6e6;stroke-width:0.264583px;stroke-linecap:butt;stroke-linejoin:miter;stroke-opacity:1"
       d="m 60.208193,197.05423 c 1.533797,1.64156 3.169671,3.36299 3.769302,5.59208 -0.362462,1.87318 -2.709316,2.03704 -4.252333,2.134 -2.058195,-0.11371 -4.446214,0.3507 -6.088676,-1.19395 -1.389035,-1.17255 -2.871097,-2.56852 -3.17648,-4.44686 0.484726,-0.80422 1.901885,1.04967 2.93905,0.96041 2.173978,0.48538 4.410133,1.02588 6.650182,0.68508 -0.5926,-1.35248 -3.084656,-0.76696 -3.058339,-2.64087 0.398402,-1.24902 2.947958,-1.9728 3.533242,-0.50698 0.205823,0.52136 0.251577,1.08917 0.448169,1.61321" />
    <path
       id="path446"
       style="fill:#ff2a2a;stroke:#ff2a2a;stroke-width:0.264583px;stroke-linecap:butt;stroke-linejoin:miter;stroke-opacity:1"
       d="m 64.71895,201.15811 c -0.634042,1.5339 0.0071,3.43365 -1.328113,4.70956 -0.590675,1.2444 -1.94028,1.64093 -3.215811,1.59542 -2.342353,0.1973 -4.597387,-0.58773 -6.795302,-1.27435 -1.362772,-0.43892 -2.148219,-1.6706 -2.811176,-2.84447 -1.113027,-0.90702 -1.838265,-2.14232 -2.313969,-3.49108 -0.274643,-0.76707 -1.06626,-2.85811 0.128582,-2.76988 1.096992,1.4772 2.0255,3.19258 3.71272,4.09446 2.835074,1.53965 6.139636,2.35419 9.362105,1.849 1.479601,0.0655 1.73246,-1.581 2.286719,-2.49085 0.243838,-0.41435 1.463672,-0.55547 0.974245,0.62219 z" />
    <path
       id="path470"
       style="fill:#000000;stroke:#000000;stroke-width:0.264583px;stroke-linecap:butt;stroke-linejoin:miter;stroke-opacity:1"
       d="m 68.391639,171.03339 c -0.640668,0.3222 -0.76656,1.2046 -0.419123,1.78717 0.280944,0.59703 0.932685,1.15673 1.629769,0.98718 0.620855,-0.20672 1.035762,-0.89068 1.000451,-1.53234 -0.153843,-0.96639 -1.32832,-1.49715 -2.211097,-1.24201 z" />
    <path
       id="path482"
       style="fill:#000000;stroke:#000000;stroke-width:0.264583px;stroke-linecap:butt;stroke-linejoin:miter;stroke-opacity:1"
       d="m 50.430444,169.1553 c -0.266161,0.5345 -0.688645,1.1314 -0.436454,1.75174 0.268354,0.73446 1.232778,1.26144 1.94945,0.82955 0.692359,-0.50517 0.804329,-1.59624 0.336162,-2.28764 -0.321072,-0.49351 -0.980185,-0.65206 -1.516605,-0.44985 -0.116384,0.039 -0.228261,0.0915 -0.332553,0.1562 z" />
    <path
       id="path720"
       style="fill:#ececec;fill-opacity:1;stroke:#ececec;stroke-width:0.264583px;stroke-linecap:butt;stroke-linejoin:miter;stroke-opacity:1"
       d="m 281.70098,175.40177 c 2.31082,-1.15558 5.62873,-0.99374 7.20994,1.27743 1.16669,1.95367 -1.44676,3.18484 -2.99174,2.35944 -1.79618,-0.0493 -3.80102,-0.0671 -5.23718,-1.31101 -0.51254,-0.91932 0.50597,-1.69954 1.01898,-2.32586 z" />
    <path
       id="path722"
       style="fill:#ececec;fill-opacity:1;stroke:#ececec;stroke-width:0.264583px;stroke-linecap:butt;stroke-linejoin:miter;stroke-opacity:1"
       d="m 264.46873,174.88813 c 2.30474,-1.28792 5.28087,-1.75014 7.69709,-0.49351 0.76865,0.37799 1.60061,1.00198 1.3518,1.9769 -0.0892,0.89413 -1.08516,1.18841 -1.84612,1.20858 -1.23451,0.0487 -2.43436,-0.28944 -3.6341,-0.51307 -1.18067,-0.0564 -2.58881,-0.22492 -3.29916,-1.29659 -0.15843,-0.26701 -0.25179,-0.57233 -0.26951,-0.88231 z" />
    <path
       id="path724"
       style="fill:#ececec;fill-opacity:1;stroke:#ececec;stroke-width:0.264583px;stroke-linecap:butt;stroke-linejoin:miter;stroke-opacity:1"
       d="m 275.66989,192.16923 c -1.78669,-0.6413 -3.35452,-1.91132 -5.30742,-2.04907 -2.00893,-0.40482 -4.06387,-0.51866 -6.10389,-0.57499 -1.0924,-0.38987 -0.60672,-1.96951 0.34863,-2.22882 1.88845,-1.03907 3.48902,-2.71255 5.69576,-3.08376 1.17792,-0.10551 2.33097,-0.42359 3.50185,-0.54274 1.83874,0.19201 2.87069,2.01164 3.47783,3.5658 0.50048,1.38173 0.84576,2.95673 0.44669,4.39253 -0.46059,0.66293 -1.3709,0.48058 -2.05945,0.52105 z" />
    <path
       id="path728"
       style="fill:#e6e6e6;stroke:#e6e6e6;stroke-width:0.264583px;stroke-linecap:butt;stroke-linejoin:miter;stroke-opacity:1"
       d="m 271.89641,194.85691 c 1.5313,1.64349 3.17296,3.36128 3.7693,5.59208 -0.0894,1.32751 -1.6226,1.7437 -2.70178,1.98645 -1.88229,0.34874 -3.79949,0.0338 -5.69352,0.0273 -1.54488,-0.30684 -2.45056,-1.74269 -3.66533,-2.60631 -0.73176,-0.91181 -1.64074,-2.46158 -1.44237,-3.44918 0.96693,0.60049 1.89919,1.39406 3.15017,1.51215 2.08818,0.5348 4.26265,0.98497 6.42457,0.66827 -0.0202,-1.08356 -1.61812,-0.60693 -2.17143,-1.33621 -0.93917,-0.40292 -1.34193,-1.87436 -0.12147,-2.20248 0.8589,-0.2993 2.25639,-0.87482 2.72907,0.2852 0.2691,0.54402 0.23537,1.1688 0.48691,1.71885" />
    <path
       id="path732"
       style="fill:#000000;stroke:#000000;stroke-width:0.264583px;stroke-linecap:butt;stroke-linejoin:miter;stroke-opacity:1"
       d="m 283.67497,175.23136 c -0.42131,0.22301 -0.67235,0.71635 -0.59841,1.18876 0.0808,0.65021 0.51392,1.26064 1.1142,1.5305 0.38343,0.18034 0.86545,0.0946 1.15641,-0.21538 0.34714,-0.35285 0.62853,-0.84694 0.52293,-1.35786 -0.13387,-0.59387 -0.68719,-1.00168 -1.253,-1.14735 -0.30679,-0.0809 -0.63711,-0.0947 -0.94213,0.001 z" />
    <path
       id="path734"
       style="fill:#000000;stroke:#000000;stroke-width:0.264583px;stroke-linecap:butt;stroke-linejoin:miter;stroke-opacity:1"
       d="m 268.29561,174.09379 c -0.23864,0.50295 -0.63569,1.02695 -0.4797,1.6152 0.19077,0.73541 1.02285,1.28594 1.77135,1.08091 0.58825,-0.21266 0.84138,-0.89539 0.83723,-1.47568 0.009,-0.6322 -0.38678,-1.33133 -1.05252,-1.43515 -0.36865,-0.0667 -0.75948,0.0178 -1.07636,0.21472 z" />
    <path
       id="path756"
       style="fill:#000000;stroke:#000000;stroke-width:0.264583px;stroke-linecap:butt;stroke-linejoin:miter;stroke-opacity:1"
       d="m 271.08782,187.76852 c 1.79211,-0.16875 3.03251,1.37793 4.1302,2.55289 1.30127,1.31183 2.55189,2.85189 4.41955,3.34708 2.46308,0.79866 5.27596,0.0453 7.2198,-1.59667 1.21744,-1.08111 1.98769,-2.84435 1.49417,-4.45284 -0.91134,-0.58181 -0.62096,1.46587 -1.48936,1.74672 -0.99629,0.96841 -2.74051,1.12487 -3.7448,0.0798 -1.30459,-1.07648 -1.52807,-2.84226 -1.83434,-4.39246 -0.53505,-1.6561 -2.11794,-2.99615 -3.9046,-2.9417 -1.63178,-0.26459 -3.65072,-0.26095 -4.76956,1.16493 -1.38239,0.98429 -2.07808,-1.33942 -3.39722,-1.3812 -1.53767,-0.49 -3.5381,-0.79537 -4.74361,0.55425 -0.76375,0.97588 -1.33598,2.23654 -2.60823,2.65119 -1.01304,0.34032 -2.54481,0.20744 -2.93694,-0.95673 -0.19397,-0.52368 -0.49735,-1.64501 -0.42329,-0.46682 -0.0253,1.52531 -0.011,3.40238 1.33368,4.4016 1.26822,0.68451 2.24688,2.16558 3.8376,2.05365 2.3739,-1.06743 4.84021,-1.94099 7.41695,-2.36372 z" />
    <path
       id="path775"
       style="fill:#ececec;fill-opacity:1;stroke:#ececec;stroke-width:0.264583px;stroke-linecap:butt;stroke-linejoin:miter;stroke-opacity:1"
       d="m 111.46309,267.3124 c 2.02866,-0.91641 4.69291,-1.09782 6.46614,0.45333 0.8397,0.67643 1.35486,1.97626 0.67485,2.93601 -0.65889,0.93812 -1.67855,0.17711 -2.54069,0.21463 -1.86966,0.10976 -3.8668,-0.0636 -5.47866,-1.10325 -0.71917,-0.62297 -0.0174,-1.55813 0.4991,-2.05263 0.13025,-0.14604 0.26032,-0.29255 0.37926,-0.44809 z" />
    <path
       d="m 87.803626,267.22068 c 2.69846,-1.49299 6.5326,-1.92718 8.91354,0.38823 1.25819,2.09827 -1.97786,3.14008 -3.31609,1.91469 -1.84778,-0.2418 -5.33996,0.25598 -5.59745,-2.30292 z"
       style="fill:#ececec;fill-opacity:1;stroke:#ececec;stroke-width:0.264583px;stroke-linecap:butt;stroke-linejoin:miter;stroke-opacity:1"
       id="path777" />
    <path
       id="path779"
       style="fill:#000000;stroke:#000000;stroke-width:0.264583px;stroke-linecap:butt;stroke-linejoin:miter;stroke-opacity:1"
       d="m 114.22377,267.75606 c -0.50503,0.25945 -0.73019,0.89987 -0.55196,1.43014 0.17306,0.64619 0.69106,1.25257 1.36928,1.37514 0.41591,0.0614 0.81282,-0.17727 1.04109,-0.51395 0.34137,-0.41064 0.50027,-1.03207 0.19291,-1.50753 -0.40645,-0.66359 -1.30823,-0.9983 -2.05132,-0.7838 z" />
    <path
       id="path781"
       style="fill:#000000;stroke:#000000;stroke-width:0.264583px;stroke-linecap:butt;stroke-linejoin:miter;stroke-opacity:1"
       d="m 92.659466,266.68827 c -0.495853,0.69849 -0.80406,1.81829 0.03276,2.40188 0.619712,0.57385 1.732451,0.36614 1.979649,-0.47415 0.357194,-0.82896 -0.05648,-2.05247 -1.04328,-2.16081 -0.337528,-0.038 -0.682151,0.0558 -0.969132,0.23308 z" />
    <path
       id="path798"
       style="fill:#000000;stroke:#000000;stroke-width:0.264583px;stroke-linecap:butt;stroke-linejoin:miter;stroke-opacity:1"
       d="m 110.87,284.88021 c 1.56464,0.065 3.30154,-0.0132 4.55431,-1.07455 0.67786,-0.35279 1.51997,-1.07947 1.05915,-1.91946 -0.18922,-0.45987 -1.22814,-1.39338 -0.25727,-1.56836 1.02693,-0.007 1.88968,0.7835 2.41398,1.60584 0.57378,0.94216 0.97813,2.06945 0.75679,3.18268 0.29555,0.27328 0.12628,1.06082 0.0447,0.30473 -0.0709,-0.75063 -0.89275,-1.62464 -1.64968,-1.06539 -0.68731,0.6309 -1.5479,0.88629 -2.43707,1.08258 -1.15293,0.28006 -2.38777,0.54155 -3.56152,0.26954 -0.38585,-0.16334 -0.70478,-0.46327 -0.92338,-0.81761 z" />
    <path
       id="path835"
       style="opacity:1;fill:#0066ff;fill-opacity:1;stroke:#0066ff;stroke-width:0.529167;stroke-linecap:round;stroke-opacity:1"
       d="m 125.31205,157.97954 c 2.09234,0.89048 4.49487,0.34478 6.36958,-0.80785 0.51742,-0.36183 2.02026,-0.90382 1.69461,-1.44296 -0.89859,0.0282 -1.47425,0.95913 -2.30014,1.26743 -1.09845,0.61623 -2.28767,1.18764 -3.55092,1.31124 -0.743,-0.072 -1.45198,-0.5243 -2.21313,-0.32786 z" />
    <path
       id="path837"
       style="opacity:1;fill:#0066ff;fill-opacity:1;stroke:#0066ff;stroke-width:0.529167;stroke-linecap:round;stroke-opacity:1"
       d="m 128.60355,158.38581 c 0.55922,3.04894 1.09547,6.1197 1.29383,9.2144 0.21991,1.10758 -0.57613,2.71219 -1.02954,3.03987 1.78312,0.34781 1.8147,-1.98039 1.73,-3.18314 -0.15537,-2.83369 -0.85443,-5.60216 -1.26197,-8.40199 -0.0568,-0.34497 -0.28975,-0.84106 -0.73232,-0.66914 z" />
    <path
       id="path839"
       style="opacity:1;fill:#0066ff;fill-opacity:1;stroke:#0066ff;stroke-width:0.529167;stroke-linecap:round;stroke-opacity:1"
       d="m 127.18243,172.30863 c 1.78125,-1.48774 4.17369,-1.71387 6.34347,-2.23295 -0.27301,-0.3263 -1.2553,0.0871 -1.7864,0.0912 -1.78402,0.30677 -3.57086,0.82795 -5.08772,1.84498 -0.48116,0.41115 0.36274,0.21385 0.53065,0.29679 z" />
    <path
       id="path841"
       style="opacity:1;fill:#0066ff;fill-opacity:1;stroke:#0066ff;stroke-width:0.529167;stroke-linecap:round;stroke-opacity:1"
       d="m 137.1901,170.78576 c 1.53213,-3.12764 1.41403,-6.70013 1.69461,-10.08839 0.0871,-1.66368 0.14043,-3.33253 0.0411,-4.99696 -0.80975,-0.98307 -1.23625,0.68344 -0.68699,1.27313 0.6501,3.06215 1.78069,5.98706 3.01182,8.85444 0.43659,0.84486 0.79747,3.29349 2.07376,1.9604 0.40935,-1.39295 -0.17761,-2.92687 -0.1645,-4.37525 -0.21715,-1.91936 -0.212,-3.86054 0.0801,-5.76941 -0.0295,-0.48594 0.0262,-1.8164 0.0626,-1.71495 -0.45417,1.06892 -1.20484,2.03916 -1.19273,3.26095 -0.36349,2.90359 0.5361,5.80101 0.22146,8.69897 0.94858,0.59956 0.87002,-0.24543 0.36467,-0.8003 -0.83119,-1.90676 -1.66938,-3.8146 -2.41925,-5.75351 -0.65464,-1.86929 -1.1602,-3.79579 -1.4273,-5.7601 -1.56479,-0.67046 -0.51727,1.64247 -0.71949,2.4626 0.0721,3.52836 -0.16674,7.08278 -0.87732,10.54242 0.13381,0.66728 -1.40055,2.52975 -0.0625,2.20596 z" />
    <path
       id="path843"
       style="opacity:1;fill:#0066ff;fill-opacity:1;stroke:#0066ff;stroke-width:0.529167;stroke-linecap:round;stroke-opacity:1"
       d="m 152.2771,155.05673 c -2.11189,0.74525 -3.17434,2.99617 -3.60412,5.04945 -0.34744,1.7701 -0.32542,3.72492 0.5313,5.35027 0.5299,0.97783 1.71299,1.03612 2.69154,0.97999 0.52398,-0.0287 1.57021,-0.0905 1.71524,-0.51604 -0.90642,0.0951 -1.83488,0.68744 -2.71282,0.10524 -1.35889,-0.76855 -1.58571,-2.50097 -1.61816,-3.91754 0.0522,-2.32501 0.77758,-4.85027 2.66383,-6.34651 0.37981,-0.35183 1.78212,-0.66511 0.54221,-0.6769 l -0.20897,-0.028 z" />
    <path
       id="path845"
       style="opacity:1;fill:#0066ff;fill-opacity:1;stroke:#0066ff;stroke-width:0.529167;stroke-linecap:round;stroke-opacity:1"
       d="m 157.52883,153.49921 c 1.25109,2.34591 2.14119,4.94048 2.1706,7.62147 0.10708,1.3103 -0.0149,2.62647 -0.10037,3.93002 0.17759,0.75428 1.0744,0.41455 0.98571,-0.28677 0.31149,-1.42693 0.11532,-2.90007 0.0239,-4.34071 -0.23883,-2.21364 -0.97287,-4.34936 -1.97276,-6.3279 -0.14776,-0.48461 -0.60406,-0.82343 -1.10707,-0.59611 z" />
    <path
       id="path847"
       style="opacity:1;fill:#0066ff;fill-opacity:1;stroke:#0066ff;stroke-width:0.529167;stroke-linecap:round;stroke-opacity:1"
       d="m 160.05353,161.03604 c 1.37845,-1.26091 2.24246,-2.96067 3.49065,-4.33341 0.43506,-0.64173 1.78256,-1.35736 1.41726,-2.09549 -1.41238,0.31136 -2.19475,1.68735 -3.04985,2.72728 -0.84127,1.07888 -1.45382,2.32649 -2.43286,3.29454 -0.59245,0.63197 0.28396,0.24719 0.5748,0.40708 z" />
    <path
       id="path849"
       style="opacity:1;fill:#0066ff;fill-opacity:1;stroke:#0066ff;stroke-width:0.529167;stroke-linecap:round;stroke-opacity:1"
       d="m 164.50133,150.45732 c -0.34388,3.63481 -0.23112,7.33876 0.57181,10.90692 0.0541,0.50841 0.86292,0.92476 0.76333,0.12004 -0.27017,-2.69944 -0.62005,-5.40133 -0.63057,-8.12026 -0.0213,-0.79817 0.005,-1.59304 0.0635,-2.38869 0.10697,-0.66676 -0.30253,-0.49739 -0.76809,-0.51801 z" />
    <path
       id="path851"
       style="opacity:1;fill:#0066ff;fill-opacity:1;stroke:#0066ff;stroke-width:0.529167;stroke-linecap:round;stroke-opacity:1"
       d="m 169.64629,150.21835 c -4.4e-4,3.60797 -0.12291,7.24068 0.43964,10.81823 1.09828,1.12394 2.62153,-0.14634 3.7983,-0.4154 1.24289,-1.26244 -1.30321,-0.12957 -1.85468,0.15286 -1.86758,0.9211 -1.32256,-2.21975 -1.57524,-3.31238 -0.26623,-2.40479 -0.0752,-4.83111 -0.0845,-7.24514 -0.24115,3.9e-4 -0.48307,0.001 -0.72357,0.002 z" />
    <path
       id="path853"
       style="opacity:1;fill:#0066ff;fill-opacity:1;stroke:#0066ff;stroke-width:0.529167;stroke-linecap:round;stroke-opacity:1"
       d="m 171.41464,156.4021 c 0.75316,-0.24521 1.49938,-0.5433 2.1534,-0.99723 0.10367,-0.21121 0.60794,-0.47267 0.11279,-0.25735 -0.99947,0.28238 -1.99104,0.59107 -2.96756,0.94593 -0.23744,0.0848 -0.66025,0.18843 -0.16684,0.19675 0.2894,0.0373 0.57878,0.0748 0.86821,0.1119 z" />
    <path
       id="path855"
       style="opacity:1;fill:#0066ff;fill-opacity:1;stroke:#0066ff;stroke-width:0.529167;stroke-linecap:round;stroke-opacity:1"
       d="m 169.81369,152.82295 c 1.60245,-0.88576 2.95447,-2.13844 4.41482,-3.22761 0.41095,-0.18785 0.6874,-1.20023 -0.006,-0.78704 -1.20621,0.39809 -2.1158,1.32371 -3.11035,2.06905 -0.77123,0.6176 -1.53643,1.2428 -2.31656,1.8492 0.33926,0.0321 0.67852,0.0643 1.01778,0.0964 z" />
    <path
       id="path863"
       style="opacity:1;fill:#0066ff;fill-opacity:1;stroke:#0066ff;stroke-width:0.529167;stroke-linecap:round;stroke-opacity:1"
       d="m 183.7979,147.85605 c -1.35512,-0.12843 -2.97308,-0.0406 -3.86946,1.13906 -0.47707,0.92387 0.52357,1.68839 1.20727,2.13545 1.12262,0.79846 2.50883,1.65076 2.73858,3.13129 0.076,1.61555 -1.4017,2.63686 -2.55459,3.50469 -0.73105,0.5801 -1.61718,0.95995 -2.30905,1.5753 -0.36058,0.53247 1.21242,-0.0538 1.53035,-0.19405 1.53496,-0.89283 3.14577,-1.91692 4.01323,-3.52466 0.69317,-1.25917 -0.10756,-2.72702 -1.14532,-3.51338 -0.87755,-0.77437 -2.03908,-1.26942 -2.68721,-2.27533 -0.24149,-0.95976 0.93392,-1.62797 1.73692,-1.71966 0.64724,-0.15111 -0.15808,-0.12973 0.53434,-0.14874 0.271,-0.0183 0.53929,-0.0558 0.80494,-0.10997 z" />
    <path
       id="path865"
       style="opacity:1;fill:#0066ff;fill-opacity:1;stroke:#0066ff;stroke-width:0.529167;stroke-linecap:round;stroke-opacity:1"
       d="m 192.47262,154.03434 c 0.33062,-3.42926 0.3371,-6.87805 0.34923,-10.31991 0.90854,-1.29832 -1.80024,-2.19096 -1.57742,-0.46838 0.09,3.20934 -0.0119,6.4252 0.0405,9.63911 -0.19723,1.13172 0.18044,1.2708 1.18764,1.14918 z" />
    <path
       id="path867"
       style="opacity:1;fill:#0066ff;fill-opacity:1;stroke:#0066ff;stroke-width:0.529167;stroke-linecap:round;stroke-opacity:1"
       d="m 190.9206,158.08063 c -0.67509,1.85897 2.38105,2.23644 3.18455,0.9076 0.92919,-1.28974 -0.84831,-2.12355 -1.86714,-1.38595 -0.90109,-0.0875 -1.7633,1.60813 -0.38592,1.08292 0.50333,-0.22515 2.11606,-1.50607 1.21931,-0.17226 -0.60213,1.24759 -1.48539,0.65607 -1.58028,-0.42001 -0.16335,-0.12879 -0.3971,-0.10677 -0.57052,-0.0123 z" />
    <path
       id="path869"
       style="opacity:1;fill:#0066ff;fill-opacity:1;stroke:#0066ff;stroke-width:0.529167;stroke-linecap:round;stroke-opacity:1"
       d="m 111.34102,196.99131 c 3.4868,0.58121 6.80143,-1.22448 9.11423,-3.70861 3.33576,-3.02125 6.17231,-6.64945 8.01324,-10.77238 -0.16583,-2.51007 -2.26233,1.55268 -2.4836,2.40359 -2.58803,4.57773 -6.24187,8.68138 -10.78585,11.36739 -1.22147,0.50622 -2.55627,0.59663 -3.85802,0.71001 z" />
    <path
       id="path871"
       style="opacity:1;fill:#ff2a2a;fill-opacity:1;stroke:#ff2a2a;stroke-width:0.529167;stroke-linecap:round;stroke-opacity:1"
       d="m 154.01275,198.32147 c 2.32534,-3.49303 3.47347,-7.68086 3.63204,-11.85142 0.7395,-0.53253 -0.44512,-2.53477 -0.51266,-1.03 0.43523,1.52411 0.56032,3.28253 1.33314,4.63139 1.13827,0.81097 1.85839,-0.55882 2.02307,-1.51874 1.12228,-3.12538 2.18041,-6.27484 3.28482,-9.40533 -0.46708,-0.99448 -1.4004,0.96312 -1.06128,1.63033 -0.0104,2.02556 -0.23796,4.0557 -0.11765,6.08709 0.10054,2.89664 0.50856,5.79299 1.34988,8.57072 -0.4409,1.16327 1.8836,0.84261 0.90518,-0.1195 -1.3947,-5.01453 -1.74598,-10.30035 -1.16132,-15.46665 1.0261,-1.00356 -1.66044,-1.54147 -1.10915,-0.1175 -0.79424,3.13355 -1.93476,6.17368 -3.16362,9.16071 -0.1883,0.4668 -0.92301,1.49022 -0.0215,1.07775 -1.20359,-1.33835 -0.66084,-3.31327 -1.54188,-4.78873 -1.16123,-1.16205 -1.27594,1.34186 -1.09005,2.13294 -0.12697,3.89382 -1.47749,7.71865 -3.62061,10.95571 0.29055,0.0169 0.58109,0.0349 0.87162,0.0512 z" />
    <path
       id="path873"
       style="opacity:1;fill:#ff2a2a;fill-opacity:1;stroke:#ff2a2a;stroke-width:0.529167;stroke-linecap:round;stroke-opacity:1"
       d="m 169.37526,180.7368 c 1.98135,3.72195 1.95025,8.08921 1.61543,12.1819 -0.78229,0.86717 0.44829,3.07947 0.48123,2.46595 1.11668,-0.43037 0.21528,-2.56333 0.57992,-3.72652 0.0935,-3.66314 -0.0975,-7.46136 -1.64549,-10.84386 -0.303,-0.24901 -0.68946,-0.0487 -1.03109,-0.0775 z" />
    <path
       id="path875"
       style="opacity:1;fill:#ff2a2a;fill-opacity:1;stroke:#ff2a2a;stroke-width:0.529167;stroke-linecap:round;stroke-opacity:1"
       d="m 171.22647,195.5758 c 2.00722,-1.74775 4.4826,-2.92477 7.0892,-3.43167 1.06495,-0.59157 -0.83157,-0.16269 -1.20016,-0.0983 -2.3953,0.54541 -4.78641,1.55882 -6.55534,3.30472 -0.36454,0.32785 0.56526,0.132 0.6663,0.22529 z" />
    <path
       id="path877"
       style="opacity:1;fill:#ff2a2a;fill-opacity:1;stroke:#ff2a2a;stroke-width:0.529167;stroke-linecap:round;stroke-opacity:1"
       d="m 172.49142,188.65354 c 1.14277,-1.40148 2.68065,-2.39072 4.18014,-3.36135 0.40267,-0.23498 0.71316,-0.83389 -0.008,-0.49447 -2.03327,0.55235 -3.7605,1.90818 -5.15025,3.451 -0.46707,0.60555 0.72061,0.272 0.97807,0.40482 z" />
    <path
       id="path879"
       style="opacity:1;fill:#ff2a2a;fill-opacity:1;stroke:#ff2a2a;stroke-width:0.529167;stroke-linecap:round;stroke-opacity:1"
       d="m 169.60266,182.12546 c 0.97422,-1.00222 2.02543,-1.92696 3.00061,-2.92767 0.27897,-0.25863 0.94218,-0.50197 1.0777,-0.6102 -0.73921,0.32753 -1.47798,0.65993 -2.21594,0.99226 -1.18292,0.55423 -2.22304,1.41287 -2.99215,2.46868 0.37659,0.0255 0.75321,0.0517 1.12978,0.0769 z" />
    <path
       id="path881"
       style="opacity:1;fill:#ff2a2a;fill-opacity:1;stroke:#ff2a2a;stroke-width:0.529167;stroke-linecap:round;stroke-opacity:1"
       d="m 183.98132,176.46463 c 2.04808,3.56035 2.52534,7.85669 2.1331,11.88782 0.16204,1.05074 -1.23308,3.53469 0.33057,3.57859 1.23275,-1.63873 0.96009,-3.95361 1.08659,-5.90552 -0.0887,-3.2948 -0.92766,-6.58859 -2.42569,-9.51386 -0.33194,-0.24265 -0.7534,-0.003 -1.12457,-0.047 z" />
    <path
       id="path883"
       style="opacity:1;fill:#ff2a2a;fill-opacity:1;stroke:#ff2a2a;stroke-width:0.529167;stroke-linecap:round;stroke-opacity:1"
       d="m 180.9602,181.07872 c 3.50055,-1.35052 6.32909,-4.01995 8.67565,-6.86813 0.41026,-0.72028 1.42259,-2.46929 0.0634,-1.16583 -2.33679,1.62769 -3.95342,4.04177 -6.26931,5.69887 -0.84331,0.83894 -3.00055,1.80452 -3.21578,2.25408 0.24866,0.0271 0.4973,0.0545 0.74602,0.081 z" />
    <path
       id="path885"
       style="opacity:1;fill:#ff2a2a;fill-opacity:1;stroke:#ff2a2a;stroke-width:0.529167;stroke-linecap:round;stroke-opacity:1"
       d="m 192.69144,174.34884 c 1.52146,2.76873 1.81015,5.98746 1.9702,9.08483 0.0125,0.93338 0.16152,1.87208 0.0936,2.80163 -0.23017,0.92805 0.0891,2.15065 1.07699,2.48777 0.77991,0.23722 1.40136,-0.44408 2.09497,-0.66641 1.01444,-0.44138 2.14103,-0.79979 2.91017,-1.63123 0.27492,-0.46261 -0.2166,-0.56603 -0.46709,-0.2137 -1.40871,0.76297 -3.01942,1.14504 -4.321,2.10061 -0.5373,0.49412 -0.0877,-0.78167 -0.22686,-1.0819 -0.0448,-1.76671 -0.37981,-3.51351 -0.39725,-5.28161 -0.24507,-2.49464 -0.56328,-5.03227 -1.5772,-7.34912 -0.2595,-0.3459 -0.77655,-0.4475 -1.15652,-0.25087 z" />
    <path
       id="path887"
       style="opacity:1;fill:#ff2a2a;fill-opacity:1;stroke:#ff2a2a;stroke-width:0.529167;stroke-linecap:round;stroke-opacity:1"
       d="m 196.05718,181.76923 c 0.57139,-0.38855 1.28035,-0.62077 1.69198,-1.20772 0.18621,-0.1358 0.081,-0.47685 -0.15462,-0.44725 -0.31083,0.0712 -0.55784,0.29511 -0.86421,0.37961 -0.56945,0.24841 -1.09632,0.58121 -1.61697,0.91738 -0.15958,-0.002 -0.38553,0.29171 -0.0987,0.25554 0.34882,0.0143 0.69497,0.0717 1.04253,0.10244 z" />
    <path
       id="path889"
       style="opacity:1;fill:#ff2a2a;fill-opacity:1;stroke:#ff2a2a;stroke-width:0.529167;stroke-linecap:round;stroke-opacity:1"
       d="m 195.08692,175.28484 c 0.69802,-0.72709 1.55142,-1.37617 1.91833,-2.34975 -0.10199,-0.30921 -0.0114,-0.91795 -0.30974,-0.37141 -0.71619,0.40451 -1.39068,0.85552 -1.94303,1.47835 -0.27612,0.35215 -0.94036,0.7774 -0.97722,1.0848 0.41602,0.17812 0.88108,0.0561 1.31166,0.15801 z" />
    <path
       id="path891"
       style="opacity:1;fill:#ff2a2a;fill-opacity:1;stroke:#ff2a2a;stroke-width:0.529167;stroke-linecap:round;stroke-opacity:1"
       d="m 202.85784,172.2457 c 2.1175,2.62001 2.871,6.01343 3.53611,9.23929 0.029,0.77691 0.25122,2.6107 1.25021,1.52587 -0.76921,-1.11672 -1.06029,-2.53296 -1.39839,-3.84917 -0.54261,-2.35568 -0.95916,-4.98294 0.14903,-7.24259 0.19715,-0.60038 1.86949,-1.28058 1.56746,-1.18812 0.38695,0.62805 0.70113,1.49305 -0.0677,2.16661 -0.88346,0.74125 -0.97388,1.9717 -0.31854,2.88951 1.00718,1.56642 2.58756,2.76364 4.32248,3.41756 0.45001,0.20385 2.00087,0.22965 0.71548,-0.16909 -1.59953,-1.1468 -3.48383,-2.28913 -4.19315,-4.22751 -0.53922,-1.36484 1.50131,-2.10105 1.07246,-3.4778 -0.32425,-1.00469 -1.55261,-0.89471 -2.38175,-0.76021 -1.69329,0.31699 -2.32604,2.24782 -2.35918,3.76534 -0.17197,3.0499 0.73735,6.01562 1.63002,8.89419 1.30412,0.7349 1.79431,-0.73578 1.13005,-1.6997 -0.79336,-3.15393 -1.5044,-6.44245 -3.40966,-9.14847 -0.32593,-0.36129 -0.83667,-0.12237 -1.2449,-0.13571 z" />
    <path
       id="path893"
       style="opacity:1;fill:#ff2a2a;fill-opacity:1;stroke:#ff2a2a;stroke-width:0.529167;stroke-linecap:round;stroke-opacity:1"
       d="m 216.81483,167.45624 c -0.87232,0.59108 -1.15076,1.92293 -0.30349,2.66643 1.08229,1.3527 3.00973,1.84594 3.81953,3.43571 0.37918,1.23335 -0.59599,2.34862 -1.46021,3.09936 -0.48519,0.19994 -1.28982,1.39934 -0.78419,1.56017 0.72507,-0.26386 1.46906,-0.58817 2.03212,-1.15212 0.82943,-0.84268 1.93049,-1.75545 1.83423,-3.06055 -0.21981,-1.20033 -1.46621,-1.79609 -2.35694,-2.46858 -0.97708,-0.66985 -2.07391,-1.36217 -2.5643,-2.4875 -0.28118,-0.66267 1.21918,-1.68165 -0.0189,-1.57304 l -0.19781,-0.0199 z" />
    <path
       id="path895"
       style="opacity:1;fill:#ff2a2a;fill-opacity:1;stroke:#ff2a2a;stroke-width:0.529167;stroke-linecap:round;stroke-opacity:1"
       d="m 229.70715,152.24829 c 0.0842,5.6217 -0.37788,11.23916 -1.11398,16.80545 1.0691,2.2632 1.54899,-1.50266 1.53527,-2.46372 0.45962,-4.76602 0.58932,-9.55475 0.55488,-14.34165 -0.32539,-5e-5 -0.65078,1.1e-4 -0.97617,-8e-5 z" />
    <path
       id="path897"
       style="opacity:1;fill:#ff2a2a;fill-opacity:1;stroke:#ff2a2a;stroke-width:0.529167;stroke-linecap:round;stroke-opacity:1"
       d="m 229.40198,178.1101 c -0.39499,-0.51414 0.57284,-1.42122 0.21662,-1.65043 -0.37107,0.49791 -0.48465,1.17403 -1.07818,1.47105 0.12116,0.61978 1.26367,0.30207 1.67579,0.0438 0.8879,-0.41021 0.67741,-1.80097 -0.37142,-1.73947 -0.94705,-0.20205 -1.74346,1.01023 -1.1646,1.77448 0.19025,0.18783 0.48463,0.17009 0.72179,0.10053 z" />
    <path
       id="path899"
       style="opacity:1;fill:#ff2a2a;fill-opacity:1;stroke:#ff2a2a;stroke-width:0.529167;stroke-linecap:round;stroke-opacity:1"
       d="m 192.81308,199.0112 c 2.01277,4.11516 5.16821,8.41781 10.03335,9.10942 3.85559,0.79948 7.8953,0.47251 11.64799,-0.66905 -0.37979,-0.71123 -3.8859,0.8537 -5.39167,0.73747 -4.61961,0.62523 -9.76388,-0.86162 -12.48936,-4.84963 -1.42652,-1.23015 -1.51396,-4.40457 -3.80031,-4.32821 z" />
    <path
       id="path955"
       style="opacity:1;fill:#37c871;fill-opacity:1;stroke:#37c871;stroke-width:0.529167;stroke-linecap:round;stroke-opacity:1"
       d="m 148.5443,253.55791 c 0.92195,0.88028 1.5554,2.09108 1.63851,3.37266 0.24744,0.52735 0.94575,0.23914 1.23104,-0.10094 0.36097,-0.45285 0.55964,-1.01455 0.93429,-1.46208 0.50818,-0.70537 1.09104,-1.35494 1.71806,-1.95635 -0.671,-0.16985 -1.34565,0.23957 -1.73368,0.76685 -1.61645,1.447 -2.79959,3.36179 -3.40879,5.44144 -0.29411,0.35989 0.31561,1.40192 0.64285,0.70953 0.53655,-0.68296 0.55359,-1.6056 0.95559,-2.35834 0.73179,-1.74874 2.01669,-3.21106 3.47498,-4.39717 -0.35097,-0.38931 -0.96136,-0.18324 -1.24377,0.18352 -0.90981,0.92877 -1.65387,2.00856 -2.32816,3.1161 0.11162,0.55256 1.09064,0.31656 0.7267,-0.25082 -0.18955,-0.58432 -0.3211,-1.19504 -0.63839,-1.7318 -0.25191,-0.43053 -0.50239,-0.88562 -0.8702,-1.22488 -0.3221,-0.21048 -0.7398,-0.20693 -1.09903,-0.10772 z" />
    <path
       id="path957"
       style="opacity:1;fill:#37c871;fill-opacity:1;stroke:#37c871;stroke-width:0.529167;stroke-linecap:round;stroke-opacity:1"
       d="m 155.97546,259.2315 c 0.95934,-2.08309 2.11059,-4.09295 2.77207,-6.30039 -1.15843,-0.12121 0.0445,1.46205 0.0494,2.13435 0.38493,1.15777 0.91864,2.32254 1.83491,3.15599 1.12979,0.31594 0.29179,-0.90784 -0.0882,-1.27432 -0.78952,-1.15811 -1.09099,-2.54955 -1.5048,-3.858 -0.94357,-0.92282 -1.52841,0.70661 -1.63869,1.45186 -0.59855,1.52559 -1.39061,2.96337 -2.13324,4.42114 -0.14196,0.49176 0.48338,0.19646 0.70853,0.26937 z" />
    <path
       id="path959"
       style="opacity:1;fill:#37c871;fill-opacity:1;stroke:#37c871;stroke-width:0.529167;stroke-linecap:round;stroke-opacity:1"
       d="m 157.90824,256.99274 c 0.29424,-0.0427 0.94854,-0.11574 0.98254,-0.32355 -0.63705,0.0443 -1.27868,0.0795 -1.90832,0.18377 0.29608,0.0606 0.62023,0.0893 0.92578,0.13978 z" />
    <path
       id="path961"
       style="opacity:1;fill:#37c871;fill-opacity:1;stroke:#37c871;stroke-width:0.529167;stroke-linecap:round;stroke-opacity:1"
       d="m 164.57033,252.28005 c 0.64618,1.64314 1.20163,3.32626 1.57489,5.05356 -0.0861,0.471 0.75753,0.19177 0.27118,-0.10712 -0.58538,-1.27806 -0.60965,-2.7893 -0.17635,-4.11733 0.14983,-0.50401 0.40013,-1.06512 0.98321,-1.15207 0.33641,0.0607 -0.3982,0.12194 0.0304,0.34596 0.44564,0.55199 -0.0978,1.32186 -0.61479,1.61887 -0.59228,0.23934 -0.40346,0.81983 0.0211,1.1134 0.58589,0.65202 1.19233,1.42869 2.09743,1.61298 0.23435,-0.15263 -0.30589,-0.72385 -0.48558,-0.97923 -0.36703,-0.43309 -0.79172,-0.81668 -1.12539,-1.27795 0.41053,-0.42621 0.87875,-0.87529 0.94904,-1.5052 0.11021,-0.57252 -0.4432,-1.03948 -0.9905,-0.95631 -0.51837,-0.11338 -1.05941,0.1572 -1.21151,0.68372 -0.61915,1.52326 -0.68119,3.33456 0.0538,4.82876 0.312,0.45654 1.08834,0.13478 0.75805,-0.40697 -0.26115,-0.85358 -0.55157,-1.698 -0.80853,-2.55321 -0.25145,-0.76185 -0.53707,-1.51669 -0.92762,-2.2194 -0.13295,0.006 -0.26595,0.0115 -0.39887,0.0175 z" />
    <path
       id="path963"
       style="opacity:1;fill:#37c871;fill-opacity:1;stroke:#37c871;stroke-width:0.529167;stroke-linecap:round;stroke-opacity:1"
       d="m 172.38553,250.49386 c 0.51141,1.69397 0.487,3.49839 1.01535,5.18838 1.51372,-0.0258 0.32224,-2.1404 0.2893,-3.04541 -0.15411,-0.75734 -0.0353,-2.52291 -1.30465,-2.14297 z" />
    <path
       id="path965"
       style="opacity:1;fill:#37c871;fill-opacity:1;stroke:#37c871;stroke-width:0.529167;stroke-linecap:round;stroke-opacity:1"
       d="m 172.86557,249.79658 c 1.37932,0.16454 2.33656,1.54589 2.31515,2.88198 0.0161,1.06552 -0.40762,2.06775 -0.81199,3.03233 0.12184,0.23253 0.006,0.71492 0.39486,0.39818 0.55223,-0.19698 0.86497,-0.72131 1.02649,-1.25416 0.56113,-1.43058 0.4455,-3.25508 -0.70844,-4.36627 -0.45291,-0.42092 -1.0464,-0.76034 -1.67358,-0.77425 -0.18083,0.0274 -0.36171,0.0546 -0.54249,0.0822 z" />
    <path
       id="path967"
       style="opacity:1;fill:#37c871;fill-opacity:1;stroke:#37c871;stroke-width:0.529167;stroke-linecap:round;stroke-opacity:1"
       d="m 181.53132,248.71159 c -0.6065,0.52158 -1.27889,1.24766 -1.10408,2.11641 0.18147,0.93526 1.10819,1.58266 1.11129,2.56639 -0.006,0.4985 -0.45476,0.96181 -0.22882,1.463 0.4798,-0.06 1.10584,-0.33752 1.36833,-0.80053 0.27969,-0.50343 0.15217,-1.14024 -0.24571,-1.54149 -0.43384,-0.4875 -0.96713,-0.9303 -1.14268,-1.58774 -0.25388,-0.80313 0.3476,-1.52345 0.92622,-2.00236 0.4988,-0.26077 -0.57094,-0.13591 -0.68455,-0.21368 z" />
    <path
       id="path969"
       style="opacity:1;fill:#37c871;fill-opacity:1;stroke:#37c871;stroke-width:0.529167;stroke-linecap:round;stroke-opacity:1"
       d="m 143.26623,272.52276 c 0.0559,1.73769 0.18406,3.47536 0.45099,5.19423 0.40218,0.146 1.1055,-0.0432 1.01089,-0.57644 -0.15108,-0.41475 -0.27235,-0.83468 -0.35186,-1.27062 -0.37579,-1.6809 -0.68586,-3.4627 -0.23552,-5.15987 0.1071,-0.49398 0.57282,-1.0092 0.85584,-1.24542 -0.40078,0.3134 0.38031,0.72833 0.21671,1.15674 -0.0905,0.41942 -0.10882,0.86589 -0.26858,1.27563 -0.13017,0.46442 -0.418,0.8992 -0.22213,1.36099 0.0507,0.53931 0.54465,-0.25718 0.75081,-0.39305 0.48185,-0.70953 0.6234,-1.61883 0.53845,-2.46248 -0.0589,-0.48309 -0.35845,-1.01114 -0.90445,-1.02116 -0.68905,-0.19743 -1.3154,0.26936 -1.57706,0.88541 -0.70287,1.28048 -0.48465,2.78501 -0.29435,4.16694 0.15093,1.00684 0.35842,2.0054 0.46696,3.0184 0.24091,0.22519 0.79322,0.44025 0.997,0.0887 -0.0166,-0.4218 -0.22201,-0.82009 -0.22517,-1.25421 -0.18246,-1.24701 -0.23665,-2.50801 -0.27542,-3.76631 -0.31088,6.9e-4 -0.62308,-3.7e-4 -0.93311,0.003 z" />
    <path
       id="path971"
       style="opacity:1;fill:#37c871;fill-opacity:1;stroke:#37c871;stroke-width:0.529167;stroke-linecap:round;stroke-opacity:1"
       d="m 150.06366,270.18908 c 0.0719,1.39319 0.0779,2.79509 0.27268,4.17794 0.14778,0.60183 0.81496,0.76019 1.35365,0.7093 0.74301,0.018 1.5331,-0.007 2.2013,-0.35752 0.27083,-0.18223 0.14627,-0.48546 -0.15133,-0.26754 -0.56267,0.19762 -1.16779,0.31396 -1.73128,0.40809 -0.16209,0.1526 0.62021,0.0653 0.16668,0.089 -0.49629,0.021 -1.03099,-0.30454 -1.0578,-0.8385 -0.15314,-0.96628 -0.21499,-1.94581 -0.28504,-2.92118 -0.091,-0.42254 0.20657,-1.21657 -0.49316,-0.99949 -0.0919,-1.3e-4 -0.18434,4e-4 -0.2757,-8e-5 z" />
    <path
       id="path973"
       style="opacity:1;fill:#37c871;fill-opacity:1;stroke:#37c871;stroke-width:0.529167;stroke-linecap:round;stroke-opacity:1"
       d="m 151.74799,272.4762 c -0.0859,-0.20562 0.0407,-0.3894 0.22832,-0.46105 0.0453,-0.10969 -0.1571,0.0901 -0.19764,0.11503 -0.17172,0.15049 -0.39945,0.1806 -0.61131,0.23668 -0.16915,0.086 0.15347,0.0547 0.21822,0.076 0.12077,0.0112 0.24171,0.0233 0.36241,0.0333 z" />
    <path
       id="path975"
       style="opacity:1;fill:#37c871;fill-opacity:1;stroke:#37c871;stroke-width:0.529167;stroke-linecap:round;stroke-opacity:1"
       d="m 151.70127,269.82313 c 0.12248,-0.26591 0.18172,-0.61796 0.50909,-0.70893 0.28975,-0.22534 -0.16723,0.0706 -0.26698,0.11975 -0.42833,0.20739 -0.91723,0.25723 -1.33355,0.49302 0.3638,0.0321 0.72774,0.0639 1.09144,0.0962 z" />
    <path
       id="path977"
       style="opacity:1;fill:#37c871;fill-opacity:1;stroke:#37c871;stroke-width:0.529167;stroke-linecap:round;stroke-opacity:1"
       d="m 157.01246,268.41985 c 0.18994,1.73751 0.37832,3.48024 0.37126,5.23043 0.46524,0.25464 1.05268,-0.19454 0.68134,-0.68407 -0.40477,-1.67581 -0.18339,-3.56896 0.87217,-4.96753 0.13379,-0.37692 0.82713,-0.40716 0.87501,-0.63028 -0.77936,-0.0785 0.16264,0.38108 -0.094,0.72879 -0.0908,0.68421 -1.08283,1.04765 -0.78809,1.7954 0.30952,0.70674 0.87058,1.27193 1.34743,1.86929 0.34774,0.32074 0.91582,0.88264 1.36353,0.74954 -0.14844,-0.7723 -0.8814,-1.20154 -1.24786,-1.8555 -0.40282,-0.42693 -0.86516,-1.1548 -0.26889,-1.62916 0.35881,-0.42944 0.69241,-1.16597 0.20855,-1.62787 -0.41993,-0.32114 -1.01116,-0.11148 -1.47796,-0.006 -0.69108,0.41875 -1.08194,1.19949 -1.36543,1.93215 -0.50043,1.33098 -0.41243,2.79273 -0.14896,4.16466 0.33988,0.39448 1.28979,0.3301 0.89221,-0.35778 -0.23169,-1.56612 -0.35708,-3.14558 -0.54324,-4.71748 -0.22558,0.002 -0.45209,0.004 -0.67704,0.006 z" />
    <path
       id="path979"
       style="opacity:1;fill:#37c871;fill-opacity:1;stroke:#37c871;stroke-width:0.529167;stroke-linecap:round;stroke-opacity:1"
       d="m 166.29072,264.4997 c 0.11105,2.31571 0.14849,4.63842 0.37951,6.94575 0.0482,0.26272 0.19483,0.64257 0.52383,0.60274 0.34974,-0.0851 0.66266,-0.38845 0.63951,-0.77044 0.007,-0.42944 -0.0803,-0.86315 0.0205,-1.287 0.0255,-0.50253 -0.1638,-1.08975 0.1985,-1.51397 0.52885,-0.37598 1.2228,-0.33227 1.82474,-0.51774 0.40727,-0.0511 0.6149,-0.44354 0.70515,-0.80292 0.0893,-0.37222 0.16565,-0.74893 0.29919,-1.10761 0.12303,-0.52121 0.36809,-1.05385 0.24498,-1.59798 -0.31226,0.0462 -0.72449,0.074 -0.86669,0.40699 -0.0297,0.28872 0.0976,0.57047 0.0921,0.86551 0.0907,0.75706 0.17605,1.51748 0.31833,2.26616 0.18619,0.65469 0.62502,1.19628 0.86214,1.82964 0.10826,-0.14973 -0.23097,-0.63133 -0.0192,-0.88014 0.1659,-0.83182 0.007,-1.67398 -0.10979,-2.49972 -0.0728,-0.59735 -0.13394,-1.19628 -0.17394,-1.79678 -0.30605,-0.013 -0.63675,-0.24533 -0.92463,-0.0655 -0.10682,0.26996 -0.10228,0.58229 -0.17603,0.87251 -0.10661,0.72123 -0.12176,1.54251 -0.66433,2.0967 -0.61246,0.56141 -1.61161,0.24779 -2.19275,0.86378 -0.35396,0.66183 -0.0306,1.42084 -0.16429,2.12159 0.10187,0.40932 -0.26866,0.80224 -0.11725,1.20271 0.228,0.29374 0.90678,0.19476 0.58672,-0.25548 -0.33194,-2.31502 -0.25071,-4.66473 -0.53805,-6.98409 -0.24935,0.002 -0.49941,0.005 -0.74832,0.005 z" />
    <path
       id="path981"
       style="opacity:1;fill:#37c871;fill-opacity:1;stroke:#37c871;stroke-width:0.529167;stroke-linecap:round;stroke-opacity:1"
       d="m 175.7462,264.15646 c -0.24835,1.9279 -0.39611,3.86732 -0.65339,5.79416 0.97393,0.58617 1.16086,-0.83736 0.97332,-1.48209 0.037,-1.17178 0.14691,-2.34265 0.36022,-3.49597 0.52294,-0.39293 -0.29014,0.06 0.34622,0.22966 1.34799,0.91425 2.05578,2.45167 3.27844,3.49129 0.91681,-0.25457 -0.29711,-1.4154 -0.63211,-1.8818 -0.67341,-0.78106 -1.40428,-1.59097 -2.3141,-2.0773 -0.69906,-0.29271 -1.73128,-0.13555 -1.63686,0.83608 -0.13616,1.4352 -0.17678,2.87794 -0.29953,4.31464 0.87724,0.72531 1.26819,-0.63939 1.0448,-1.29884 0.10682,-1.47624 0.29334,-2.94573 0.38419,-4.42325 -0.28362,-0.002 -0.56828,-0.006 -0.8512,-0.007 z" />
    <path
       id="path983"
       style="opacity:1;fill:#37c871;fill-opacity:1;stroke:#37c871;stroke-width:0.529167;stroke-linecap:round;stroke-opacity:1"
       d="m 177.27647,267.69592 c -0.0404,-0.0826 0.0311,-0.16374 0.0951,-0.20841 0.0972,-0.0706 0.2094,-0.11638 0.32157,-0.1573 -0.074,0.0319 -0.14373,0.0815 -0.22373,0.10399 -0.21312,0.0767 -0.44163,0.0961 -0.65602,0.1676 -0.0241,0.009 -0.0799,0.0291 -0.0211,0.0341 0.15827,0.042 0.32528,0.0224 0.48419,0.06 z" />
    <path
       id="path985"
       style="opacity:1;fill:#37c871;fill-opacity:1;stroke:#37c871;stroke-width:0.529167;stroke-linecap:round;stroke-opacity:1"
       d="m 182.69225,262.86708 c 0.58658,1.81585 1.19704,3.63484 1.51245,5.52202 1.16512,0.59902 0.68753,-0.98632 0.427,-1.56336 -0.45384,-1.58032 -0.93322,-3.38191 -0.0215,-4.90313 0.16393,-0.59982 1.27403,-1.5923 1.44011,-1.54217 -0.41005,0.62978 0.2205,1.91911 -0.48616,2.6741 -0.34431,0.52934 -0.10565,1.68295 0.54892,0.77255 0.68102,-0.88719 1.2461,-2.38172 0.53132,-3.3693 -0.91894,-0.63542 -2.1717,-0.0741 -2.62261,0.87159 -0.88772,1.31993 -0.90836,3.01342 -0.46436,4.49447 0.3631,0.87462 0.13355,3.22848 1.5652,2.69821 -0.028,-0.98279 -0.50494,-2.03535 -0.72825,-3.04759 -0.43134,-0.81419 -0.37941,-2.45636 -1.31466,-2.6226 l -0.19372,0.008 -0.19371,0.007 z" />
    <path
       id="path989"
       style="opacity:1;fill:#37c871;fill-opacity:1;stroke:#37c871;stroke-width:0.529167;stroke-linecap:round;stroke-opacity:1"
       d="m 193.03908,259.14352 c -0.52398,0.63574 -1.15585,1.2424 -1.37105,2.06506 0.0481,0.97791 1.12214,1.34418 1.67059,2.00676 0.56783,0.55462 0.39957,1.4183 0.01,2.01929 -0.40808,0.72988 -1.11624,1.22041 -1.63299,1.85302 -0.24562,0.81122 0.88584,0.0942 1.24653,-0.002 0.92963,-0.51325 1.76691,-1.42522 1.87965,-2.51997 0.0908,-0.86367 -0.55022,-1.5456 -1.20284,-2.00665 -0.46302,-0.37437 -1.15564,-0.82568 -0.98138,-1.51857 0.3602,-0.6728 0.89177,-1.24039 1.37461,-1.82827 -0.33101,-0.0229 -0.66208,-0.0448 -0.99304,-0.0684 z" />
    <path
       id="path991"
       style="opacity:1;fill:#37c871;fill-opacity:1;stroke:#37c871;stroke-width:0.529167;stroke-linecap:round;stroke-opacity:1"
       d="m 154.66956,282.96865 c -1.45481,1.03002 -2.70996,2.60172 -2.79277,4.44683 -0.0505,0.89226 0.24928,1.97234 1.1632,2.32232 0.82568,0.31151 1.79726,0.30542 2.60314,-0.0616 0.6795,-0.40405 1.21829,-1.14514 1.21174,-1.9584 -0.32285,-0.23176 0.25456,-1.07813 -0.45561,-0.76658 -0.44179,0.32669 -0.19393,0.94676 -0.17626,1.40156 0.10951,0.96135 0.18279,2.0101 0.81766,2.79187 0.68085,0.42016 0.52974,-0.64331 0.43616,-1.01802 -0.0735,-0.93977 -0.0965,-1.89187 -0.29089,-2.816 -0.10015,-0.71906 -1.40646,-0.73601 -1.45889,0.004 0.0856,0.55585 0.12345,1.17143 -0.2689,1.62962 -0.18195,0.40385 -0.72336,0.49213 -0.9537,0.73995 0.28758,0.15411 0.33066,0.14418 -0.0218,0.1121 -0.87808,-0.0967 -1.65187,-0.87428 -1.63084,-1.77868 -0.16306,-1.76255 0.87573,-3.40881 2.18517,-4.49968 0.21387,-0.1635 0.92204,-0.51911 0.24496,-0.49753 -0.20438,-0.007 -0.41421,0.009 -0.61239,-0.0515 z" />
    <path
       id="path993"
       style="opacity:1;fill:#37c871;fill-opacity:1;stroke:#37c871;stroke-width:0.529167;stroke-linecap:round;stroke-opacity:1"
       d="m 160.20902,282.9256 c 0.0353,1.69563 0.10919,3.39168 0.17964,5.08526 -0.0211,0.57368 0.56562,0.61966 0.9977,0.58229 0.58842,0.0342 1.1843,-0.0505 1.71615,-0.30971 0.33927,0.0411 1.04773,-0.52806 0.34466,-0.50978 -0.53737,0.15733 -1.08235,0.24719 -1.60518,0.46596 -0.22728,0.10136 -1.15383,0.18548 -0.46615,0.23102 0.28544,-0.0289 0.33323,0.0165 0.0679,-0.12485 -0.26136,-0.38088 -0.15892,-0.88443 -0.22234,-1.32093 -0.0836,-1.34718 -0.18924,-2.69395 -0.20687,-4.04418 -0.24377,-0.13989 -0.54168,-0.0102 -0.80556,-0.0551 z" />
    <path
       id="path995"
       style="opacity:1;fill:#37c871;fill-opacity:1;stroke:#37c871;stroke-width:0.529167;stroke-linecap:round;stroke-opacity:1"
       d="m 161.92197,285.56143 c 0.34921,-0.25103 0.93301,-0.48223 0.72309,-0.99423 -0.16589,0.15714 -0.59188,0.1879 -0.8603,0.29729 -0.24745,0.16498 -0.73453,0.36225 -0.77435,0.59178 0.29099,0.11267 0.61503,0.0186 0.91156,0.10516 z" />
    <path
       id="path1001"
       style="opacity:1;fill:#37c871;fill-opacity:1;stroke:#37c871;stroke-width:0.529167;stroke-linecap:round;stroke-opacity:1"
       d="m 161.06833,282.52392 c 0.55369,-0.39555 1.28569,-0.56112 1.70884,-1.12076 -0.63478,-0.43276 -1.35701,0.10308 -1.88975,0.45764 -0.27819,0.11713 -1.17359,0.57708 -0.41931,0.61405 0.20016,0.0131 0.40392,-5.3e-4 0.60022,0.0491 z" />
    <path
       id="path1003"
       style="opacity:1;fill:#37c871;fill-opacity:1;stroke:#37c871;stroke-width:0.529167;stroke-linecap:round;stroke-opacity:1"
       d="m 167.15972,287.7266 c 0.33529,-1.81554 0.67806,-3.63832 0.75776,-5.48688 0.27971,-0.46568 -0.4724,-0.75256 -0.77587,-0.43949 -0.21538,0.43434 0.29278,0.82399 0.33103,1.26655 0.52176,1.59337 0.97929,3.27551 2.064,4.59385 0.58747,0.70278 1.92867,0.28974 2.01126,-0.62829 0.42638,-1.69148 0.67718,-3.42679 0.72261,-5.17134 -0.0209,-0.36611 -0.4051,-0.96913 -0.80393,-0.6414 -0.35787,0.43472 -0.34584,1.04513 -0.40978,1.57958 -0.14748,1.50352 -0.22127,3.04192 -0.74108,4.47453 -0.23454,0.12675 -0.31982,0.54962 0.0877,0.48378 0.52283,-0.0354 -0.32254,-0.37866 -0.36718,-0.62415 -0.9021,-1.38409 -1.36581,-2.99745 -1.79467,-4.57831 -0.004,-0.52814 -0.37731,-1.00495 -0.91519,-1.07757 -0.62383,0.0587 -0.34541,0.83335 -0.42558,1.24844 -0.0666,1.61177 -0.27277,3.2164 -0.58861,4.79785 0.0651,0.43519 0.59589,0.0768 0.84757,0.20285 z" />
    <path
       id="path1005"
       style="opacity:1;fill:#37c871;fill-opacity:1;stroke:#37c871;stroke-width:0.529167;stroke-linecap:round;stroke-opacity:1"
       d="m 177.70542,280.82488 c -0.1675,2.07848 0.10477,4.19301 0.70647,6.17997 0.44101,0.81705 1.34619,0.15861 0.93494,-0.58183 -0.3574,-1.8463 -0.66023,-3.70965 -0.704,-5.59389 -0.3124,-0.002 -0.62542,-0.002 -0.93741,-0.004 z" />
    <path
       id="path1007"
       style="opacity:1;fill:#37c871;fill-opacity:1;stroke:#37c871;stroke-width:0.529167;stroke-linecap:round;stroke-opacity:1"
       d="m 175.63152,281.74004 c 1.89864,-0.76861 3.73852,-1.70728 5.46337,-2.80884 0.81908,-0.63762 -0.78944,-0.0336 -1.13052,0.0806 -1.77719,0.68367 -3.35912,1.77318 -5.09215,2.5511 -0.12845,0.21027 0.62735,0.0874 0.7593,0.17711 z" />
    <path
       id="path1009"
       style="opacity:1;fill:#37c871;fill-opacity:1;stroke:#37c871;stroke-width:0.529167;stroke-linecap:round;stroke-opacity:1"
       d="m 184.69996,278.71732 c 0.13472,2.29008 0.0932,4.59116 -0.14286,6.87314 0.69707,0.0716 1.34531,-0.0619 1.80816,-0.61108 0.61192,-0.55266 1.73547,-0.0895 2.14413,-0.79195 0.20475,-0.12431 -0.57512,0.2186 -0.80004,0.12931 -1.03094,0.0513 -2.22758,0.12296 -2.97075,0.93964 -0.17539,0.41817 1.15324,0.5009 0.97048,-0.0997 0.0374,-2.1467 0.11053,-4.30028 -0.0564,-6.44525 -0.31754,0.002 -0.63534,0.004 -0.9527,0.006 z" />
    <path
       id="path1011"
       style="opacity:1;fill:#37c871;fill-opacity:1;stroke:#37c871;stroke-width:0.529167;stroke-linecap:round;stroke-opacity:1"
       d="m 190.54755,278.68987 c 0.49824,1.51832 0.73519,3.10842 0.91541,4.69082 0.25577,0.6916 1.14698,0.29552 1.70585,0.38549 0.73818,-0.0201 1.49382,-0.0771 2.20873,-0.2191 0.10703,-0.5913 -0.76871,-0.0262 -1.11522,-0.16168 -0.53977,0.0125 -1.07637,0.11271 -1.60817,0.17877 0.27473,0.0328 1.1653,-0.006 0.43936,0.0271 -0.64223,0.13846 -0.56692,-0.67628 -0.72811,-1.07643 -0.2964,-1.2221 -0.50539,-2.46838 -0.8691,-3.67199 -0.17601,-0.38809 -0.63997,-0.0852 -0.94875,-0.15301 z" />
    <path
       id="path1013"
       style="opacity:1;fill:#37c871;fill-opacity:1;stroke:#37c871;stroke-width:0.529167;stroke-linecap:round;stroke-opacity:1"
       d="m 193.29794,281.14507 c 0.18357,-0.20141 0.54316,-0.70323 0.26813,-0.86988 -0.32842,0.0863 -0.60353,0.31222 -0.92567,0.42523 -0.17792,0.0992 -0.56344,0.24142 -0.60758,0.32528 0.42169,0.0399 0.84351,0.0786 1.26512,0.11937 z" />
    <path
       id="path1015"
       style="opacity:1;fill:#37c871;fill-opacity:1;stroke:#37c871;stroke-width:0.529167;stroke-linecap:round;stroke-opacity:1"
       d="m 191.9766,278.51612 c 0.52702,-0.48681 1.41062,-0.70337 1.61692,-1.44463 0.068,-0.27423 -0.78603,0.12529 -1.06047,0.14069 -0.71393,0.20356 -1.37212,0.57977 -1.943,1.04546 0.0771,0.3136 0.87579,0.1249 1.23977,0.24499 l 0.0734,0.007 0.0734,0.007 z" />
    <path
       id="path1017"
       style="opacity:1;fill:#37c871;fill-opacity:1;stroke:#37c871;stroke-width:0.529167;stroke-linecap:round;stroke-opacity:1"
       d="m 198.03528,277.84724 c -0.17612,1.73129 -0.33538,3.46429 -0.52277,5.19443 0.68528,0.17873 1.3075,-0.24386 1.0305,-0.98731 -0.0177,-1.45719 -0.0332,-2.9264 -0.12818,-4.37429 0.3511,-0.65138 -1.29575,-0.16649 -0.37305,0.194 0.68248,0.64852 1.00534,1.83179 1.99905,2.05172 0.88135,0.22728 1.47023,-0.52705 1.78513,-1.23615 0.56475,-0.95395 1.06008,-1.94938 1.61381,-2.90776 -0.75159,-0.27849 -1.06431,0.40089 -0.75407,1.01284 0.2622,1.32498 0.033,2.86189 0.95819,3.9738 0.58876,0.3211 0.47365,-1.05373 0.52714,-1.46101 -0.0557,-1.01056 -0.2711,-2.00478 -0.38185,-3.00916 -0.10344,-0.98729 -1.59045,-0.94691 -1.69678,0.0422 -0.57198,1.07729 -1.1105,2.18481 -1.86981,3.14696 -0.80803,0.37108 1.07258,0.41624 0.22771,0.0861 -0.53286,-0.51182 -0.95565,-1.13295 -1.39501,-1.72584 -0.2767,-0.53441 -1.10809,-1.14047 -1.55953,-0.45329 -0.22004,0.82074 0.081,1.7242 0.0414,2.57728 0.0473,0.98906 0.0638,1.98249 -0.029,2.96951 0.45481,0.15454 1.2533,0.2029 0.96582,-0.51346 0.076,-1.52435 0.11548,-3.0518 0.27088,-4.57098 -0.2364,-0.003 -0.47393,-0.005 -0.70956,-0.01 z" />
    <path
       id="path1019"
       style="opacity:1;fill:#37c871;fill-opacity:1;stroke:#37c871;stroke-width:0.529167;stroke-linecap:round;stroke-opacity:1"
       d="m 207.38015,274.91305 c 0.14844,1.63149 0.2184,3.2696 0.31765,4.90402 0.0151,0.54817 -0.13789,1.4635 0.67043,1.44594 0.97571,0.029 1.82562,-0.56942 2.61578,-1.07071 0.54726,-0.35737 -0.2374,-0.61779 -0.53707,-0.336 -0.82436,0.23773 -1.51446,0.79032 -2.3403,1.02157 0.18826,0.13907 0.98856,0.10714 0.80822,0.0739 -0.29555,-0.45231 -0.1879,-1.07942 -0.29089,-1.60885 -0.13584,-1.47743 -0.21869,-2.95901 -0.33602,-4.43791 -0.30258,0.003 -0.60532,0.005 -0.9078,0.008 z" />
    <path
       id="path1021"
       style="opacity:1;fill:#37c871;fill-opacity:1;stroke:#37c871;stroke-width:0.529167;stroke-linecap:round;stroke-opacity:1"
       d="m 209.8845,277.90175 c 0.16399,-0.33785 0.22637,-0.71965 0.29576,-1.08445 -0.0451,-0.23185 0.20901,-0.64913 0.23903,-0.66181 -0.31923,0.17774 -0.6352,0.3605 -0.97354,0.49989 -0.39403,0.21599 -0.72056,0.53439 -1.03769,0.8466 -0.2677,0.32465 0.15304,0.4471 0.41806,0.35539 0.35312,0.005 0.70536,0.0419 1.05838,0.0444 z" />
    <path
       id="path1023"
       style="opacity:1;fill:#37c871;fill-opacity:1;stroke:#37c871;stroke-width:0.529167;stroke-linecap:round;stroke-opacity:1"
       d="m 208.76542,275.01334 c 0.44467,-0.32329 2.0431,-0.62014 1.27837,-1.3121 -0.98974,-0.0482 -1.89172,0.5948 -2.74548,0.9962 0.0176,0.39405 1.11577,0.15442 1.46711,0.3159 z" />
    <path
       id="path1025"
       style="opacity:1;fill:#37c871;fill-opacity:1;stroke:#37c871;stroke-width:0.529167;stroke-linecap:round;stroke-opacity:1"
       d="m 214.72758,273.51633 c 0.25222,2.04374 0.18114,4.10826 0.0974,6.16034 0.77967,0.61617 1.62914,-0.33632 1.15474,-1.1266 -0.13138,-1.31643 -0.24196,-2.64226 -0.15161,-3.96537 0.62173,-0.99915 -1.65781,-0.33975 -0.5768,0.29981 0.67766,1.25808 1.33315,2.536 2.1758,3.69457 0.74667,0.50058 2.27455,0.41275 2.18422,-0.77764 0.12306,-1.14725 0.33344,-2.38678 -0.21748,-3.45932 -0.23066,-0.42466 0.15998,-1.27209 -0.24497,-0.41947 -0.71778,0.8548 -0.99964,1.91383 -0.9768,3.01314 0.0645,0.70282 -0.73542,1.9647 0.49838,1.72512 0.53505,-0.23125 -0.69924,-0.75321 -0.74713,-1.21042 -0.74987,-1.07187 -1.2319,-2.30522 -1.88652,-3.42582 -0.8498,-1.05051 -1.70852,0.37151 -1.47961,1.26764 0.0544,1.45749 0.12676,2.91749 0.25029,4.37072 0.70411,0.54271 1.6921,-0.0338 1.26097,-0.91395 -0.0424,-1.68496 -0.0169,-3.37158 -0.10163,-5.05543 -0.31503,-0.38092 -0.83142,-0.11591 -1.23925,-0.17732 z" />
    <path
       id="path1027"
       style="opacity:1;fill:#37c871;fill-opacity:1;stroke:#37c871;stroke-width:0.529167;stroke-linecap:round;stroke-opacity:1"
       d="m 226.27756,267.11776 c 0.15205,-0.65027 1.6564,-1.32976 1.38493,-1.52029 -0.86134,0.28687 0.80369,1.24298 0.34131,1.97147 0.0607,1.26715 -1.02695,2.05905 -2.03734,2.56132 -1.32507,0.7321 -1.94895,2.60101 -1.23385,3.94811 0.71028,1.18318 1.51349,0.021 1.09218,-0.89683 -0.36508,-1.25154 0.44875,-2.53664 1.59095,-3.0379 0.9476,-0.46217 2.02409,-1.14353 2.03481,-2.33336 0.24413,-1.48999 -1.25901,-3.05805 -2.74142,-2.34447 -0.82751,0.10508 -2.42856,1.92603 -0.69965,1.63979 l 0.26807,0.0122 z" />
    <path
       id="path1031"
       style="opacity:1;fill:#37c871;fill-opacity:1;stroke:#37c871;stroke-width:0.529167;stroke-linecap:round;stroke-opacity:1"
       d="m 225.28415,279.04452 c 0.54422,0.55365 1.07733,-0.95025 0.51562,-0.16366 0.41081,0.69471 1.30184,-0.65905 0.21092,-0.42157 -0.27686,-0.0151 -1.68853,0.37617 -0.72654,0.58523 z" />
    <path
       id="path1033"
       style="opacity:1;fill:#37c871;fill-opacity:1;stroke:#37c871;stroke-width:0.529167;stroke-linecap:round;stroke-opacity:1"
       d="m 141.58538,263.32659 c 0.16454,-0.64984 0.88326,-1.1904 1.04566,-1.69556 -0.49186,-0.28816 -1.31514,-0.30907 -1.72509,0.11409 -0.24836,0.46402 -0.78578,0.96062 -0.74443,1.47788 0.42888,0.18006 0.96489,0.0357 1.42386,0.10359 z" />
    <path
       id="path1035"
       style="opacity:1;fill:#37c871;fill-opacity:1;stroke:#37c871;stroke-width:0.529167;stroke-linecap:round;stroke-opacity:1"
       d="m 134.98081,264.07922 c 0.073,-0.63814 0.61559,-1.30874 0.39163,-1.92288 -0.34215,-0.154 -1.04258,-0.10638 -1.20985,0.22379 0.17309,0.18368 0.8926,0.13733 0.86369,-0.0583 -0.42539,-0.27237 -1.21503,-0.25042 -1.17536,0.43063 0.0272,0.41209 -0.56425,1.13776 -0.0378,1.31228 0.38934,0.0317 0.77809,-0.0424 1.16771,0.0145 z" />
    <path
       id="path1037"
       style="opacity:1;fill:#37c871;fill-opacity:1;stroke:#37c871;stroke-width:0.529167;stroke-linecap:round;stroke-opacity:1"
       d="m 127.66803,264.27456 c -0.0211,-0.21906 0.29369,-0.70328 -0.15906,-0.60025 -0.33376,0.0825 -0.77457,-0.19712 -1.01968,0.099 -0.0822,0.17522 -0.47992,0.56772 -0.0482,0.52171 0.30792,-0.0459 0.61621,0.0359 0.92231,0.0733 0.32321,-0.12098 0.31874,-0.66726 -0.0863,-0.64602 -0.32663,-0.0363 -0.75944,0.0295 -0.93218,0.3414 -0.12592,0.42064 0.44095,0.1479 0.65868,0.2356 0.27939,0.0619 0.62921,0.10945 0.69165,-0.26289 0.27235,-0.28996 -0.1194,-0.4741 -0.38786,-0.37553 -0.23409,0.0657 -0.6344,-0.2362 -0.7457,0.0707 -0.12653,0.2055 -0.17173,0.67295 0.21682,0.52075 0.29652,0.007 0.59311,0.0149 0.88954,0.0222 z" />
  </g>
</svg>
