<?xml version="1.0" encoding="UTF-8" standalone="no"?>
<svg
   xmlns:dc="http://purl.org/dc/elements/1.1/"
   xmlns:cc="http://creativecommons.org/ns#"
   xmlns:rdf="http://www.w3.org/1999/02/22-rdf-syntax-ns#"
   xmlns:svg="http://www.w3.org/2000/svg"
   xmlns="http://www.w3.org/2000/svg"
   xmlns:sodipodi="http://sodipodi.sourceforge.net/DTD/sodipodi-0.dtd"
   xmlns:inkscape="http://www.inkscape.org/namespaces/inkscape"
   width="1200"
   height="600"
   viewBox="0 0 317.5 158.75"
   version="1.1"
   id="svg8"
   inkscape:version="1.0.1 (3bc2e813f5, 2020-09-07)"
   sodipodi:docname="plt-table.svg">
  <sodipodi:namedview
     id="base"
     pagecolor="#ffffff"
     bordercolor="#666666"
     borderopacity="1.0"
     inkscape:pageopacity="0.0"
     inkscape:pageshadow="2"
     inkscape:zoom="1.4"
     inkscape:cx="598.95134"
     inkscape:cy="300.96578"
     inkscape:document-units="mm"
     inkscape:current-layer="layer1"
     showgrid="false"
     units="px"
     inkscape:window-width="1920"
     inkscape:window-height="1061"
     inkscape:window-x="0"
     inkscape:window-y="19"
     inkscape:window-maximized="0"
     inkscape:document-rotation="0"
     inkscape:snap-global="false" />
  <metadata
     id="metadata5">
    <rdf:RDF>
      <cc:Work
         rdf:about="">
        <dc:format>image/svg+xml</dc:format>
        <dc:type
           rdf:resource="http://purl.org/dc/dcmitype/StillImage" />
        <dc:title />
      </cc:Work>
    </rdf:RDF>
  </metadata>
  <g
     inkscape:label="Layer 1"
     inkscape:groupmode="layer"
     id="layer1"
     transform="translate(0,-138.25001)">
    <path
       id="path166"
       style="fill:#473c32;fill-opacity:1;stroke:#473c32;stroke-width:0.264583px;stroke-linecap:butt;stroke-linejoin:miter;stroke-opacity:1"
       d="m 53.72595,161.91725 c -13.874263,-8.7e-4 -4.207971,11.22273 0.621268,13.86794 -7.013903,2.33639 -14.292782,7.74441 -2.904066,9.96316 6.08982,8.97934 -14.198235,12.51791 -16.977758,21.49757 -8.222126,7.26737 7.512376,14.7809 -2.636275,23.19302 -3.509641,7.81796 8.23271,16.59862 -0.695313,25.78307 4.140002,9.51611 -4.917771,25.11118 0.841038,32.76895 14.074038,2.39851 28.234544,6.57551 42.418126,2.762 21.848629,0.46557 43.6925,1.45348 65.56805,1.65051 18.87116,0.0697 37.67531,3.87655 56.37804,0.0957 17.87566,0.76947 35.64334,-1.25637 53.51999,-1.66852 11.34839,-0.0322 31.12585,-1.09577 16.55653,-13.44425 -0.44984,-8.65076 -13.28686,-18.54534 2.34278,-23.07925 -4.41421,-8.56969 -30.28804,-17.92868 -10.79295,-28.30354 12.30137,-2.25617 13.25251,-12.00629 13.24804,-22.49803 18.15481,-5.65934 8.73599,-22.159 -3.4399,-28.07269 -3.166,-13.07215 -13.28346,-21.08562 -26.01825,-23.62745 -12.14638,-7.65356 -25.92133,-1.89286 -38.99734,-4.1646 -16.03648,-4.11422 -31.92758,1.75993 -48.09438,0.7407 -28.58969,-1.62027 -57.280561,-1.09678 -85.851055,-2.02067 -12.73033,0.57649 0.639786,13.44025 -12.570742,12.93927 l -2.51583,1.61715 z" />
    <path
       id="path174"
       style="fill:#d7e3f4;stroke:#d7e3f4;stroke-width:0.264583px;stroke-linecap:butt;stroke-linejoin:miter;stroke-opacity:1"
       d="m 73.864142,173.85178 c 19.499447,1.88476 39.099768,-1.61448 58.624818,0.48973 13.87616,0.0626 27.70396,1.03342 41.59302,0.87821 17.44287,-0.82585 34.99484,-0.75527 52.4626,-0.0345 13.28558,-0.92062 6.29759,14.74053 8.43256,22.33919 -0.29301,12.4804 1.38312,24.86393 -0.22827,37.29895 -0.75287,13.84868 0.39405,27.82723 -1.67949,41.58696 2.29177,15.8646 -18.81466,8.42438 -28.28507,10.72667 -21.59838,-1.44324 -43.30294,-0.6919 -64.9361,-1.15559 -15.54455,-0.13752 -31.06156,-0.72473 -46.590221,0.0901 -9.039641,-1.79428 -29.11311,3.98125 -26.243158,-11.33915 0.615338,-13.93888 0.500833,-27.93797 1.172331,-41.86765 -1.94563,-14.11421 0.201911,-28.26346 -0.478455,-42.44729 0.805169,-4.59487 -3.009364,-19.32213 6.155435,-16.5657 z" />
    <g
       id="g670"
       transform="translate(-5.3018865,3.2997109)">
      <path
         id="path228"
         style="fill:#000000;stroke:#000000;stroke-width:0.264583px;stroke-linecap:butt;stroke-linejoin:miter;stroke-opacity:1"
         d="m 78.518426,234.07532 c 0.262709,-0.63219 0.970507,-0.84271 1.541458,-1.10195 0.380219,-0.15033 0.78419,-0.3744 1.205348,-0.28674 0.394026,0.12646 0.452673,0.62021 0.402177,0.97323 0.01281,0.27692 -0.244303,0.61019 -0.128131,0.83379 0.358537,0.24813 0.830878,0.28017 1.154635,0.5887 0.399345,0.27401 0.923696,0.45436 1.131131,0.92957 0.05774,0.43247 -0.347096,0.71146 -0.661877,0.91962 -0.367569,0.24285 -0.725502,0.51344 -0.968492,0.88877 -0.182834,0.2241 -0.313595,0.63285 -0.674344,0.56738 -0.436763,-0.12088 -0.661498,-0.63322 -1.127657,-0.68815 -0.585427,-0.20711 -1.257948,-0.34837 -1.845467,-0.0701 -0.421293,0.12271 -0.908846,-0.0551 -1.159263,-0.41377 -0.173993,-0.64341 0.05771,-1.30193 0.242123,-1.91553 0.139118,-0.37659 0.219753,-0.82261 0.55204,-1.08282 0.106465,-0.06 0.225577,-0.0915 0.336319,-0.14201 z" />
      <path
         id="path220"
         style="fill:#0066ff;stroke:#0066ff;stroke-width:0.264583px;stroke-linecap:butt;stroke-linejoin:miter;stroke-opacity:1"
         d="m 86.184249,236.70402 c 2.543131,2.21253 4.836388,4.69452 7.518136,6.75847 2.960985,3.14947 7.241165,4.47288 10.190885,7.63757 5.84665,6.15228 12.84984,11.0177 19.34871,16.40891 3.20209,2.13351 5.84068,4.97346 7.65403,8.3675 1.18534,1.37188 5.02185,5.94627 1.24256,5.14958 -2.43029,-2.05445 -5.29631,-3.54972 -7.98975,-5.22074 -3.82869,-1.89151 -7.5336,-4.22998 -10.08274,-7.73266 -2.51811,-2.1177 -5.20969,-4.04795 -7.57979,-6.38632 -4.23935,-3.45969 -8.385022,-7.02558 -12.670515,-10.42862 -2.704841,-3.35765 -6.253552,-5.79483 -9.422825,-8.66709 -1.988301,-1.82349 -4.679983,-3.99277 -1.615714,-6.27686 1.031722,-0.84918 2.407342,-0.10459 3.407013,0.39026 z" />
      <path
         id="path237"
         style="fill:#333333;stroke:#333333;stroke-width:0.264583px;stroke-linecap:butt;stroke-linejoin:miter;stroke-opacity:1"
         d="m 131.89572,280.04989 c 0.53954,0.33223 0.89312,0.87484 1.3657,1.28178 0.34343,0.26977 0.76996,0.39161 1.17718,0.52181 0.33318,0.20048 0.718,0.34703 0.96407,0.66031 0.1423,0.0128 -0.21965,-0.34327 -0.14095,-0.50989 -0.0517,-0.77195 -0.62538,-1.39015 -1.25714,-1.77645 -0.36969,-0.22631 -0.61079,-0.65306 -1.03831,-0.77575 -0.44214,-0.0743 -0.85589,0.23367 -1.07055,0.59819 z" />
      <path
         id="path246"
         style="fill:#6f8a91;fill-opacity:1;stroke:#6f8a91;stroke-width:0.264583px;stroke-linecap:butt;stroke-linejoin:miter;stroke-opacity:1"
         d="m 90.091108,245.9544 c -0.180469,0.50222 -0.742015,0.83142 -1.201976,1.02222 -0.603453,-0.11945 -1.572659,0.16403 -1.199556,0.9611 0.360055,0.65426 1.068406,0.97811 1.673906,1.35971 0.627897,0.40393 1.005138,-0.40093 0.38634,-0.73506 -0.514104,-0.67448 0.728784,-0.92865 0.814266,-1.53033 0.0942,-0.40276 1.36e-4,-0.97188 -0.47298,-1.07764 z" />
      <path
         id="path58"
         style="fill:#6f8a91;stroke:#6f8a91;stroke-width:0.264583px;stroke-linecap:butt;stroke-linejoin:miter;stroke-opacity:1"
         d="m 83.879573,237.16454 c 0.967188,-0.87913 2.327242,-2.61507 3.730635,-1.50631 1.203632,1.21164 2.189509,2.63919 3.676435,3.55782 1.790356,1.54434 3.496076,3.19372 5.152683,4.87835 1.056756,1.62601 2.33156,3.08926 3.955704,4.16665 1.15381,0.69503 2.95405,2.74046 4.10745,1.84503 -1.69699,-1.08325 -3.81803,-1.73501 -5.072694,-3.4517 -1.602063,-1.41436 -2.055993,-3.73617 -3.87291,-4.95931 -1.972921,-1.91641 -3.758928,-4.05036 -6.031397,-5.63983 -1.075324,-1.05265 -2.896804,-3.39897 -4.350364,-1.60649 -0.718172,0.70488 -1.462192,1.64068 -1.295542,2.71579 z" />
    </g>
    <g
       id="g675"
       transform="rotate(-15,-14.626671,354.39117)">
      <path
         id="path79"
         style="fill:#1a1a1a;stroke:#1a1a1a;stroke-width:0.264583px;stroke-linecap:butt;stroke-linejoin:miter;stroke-opacity:1"
         d="m 80.551964,252.57813 c 3.263563,-3.78998 5.403464,2.8076 6.003188,5.3656 2.927725,5.17424 4.301168,10.95666 5.975788,16.60573 0.812624,5.51984 4.816334,9.82358 6.007892,15.2365 1.258771,4.18687 2.970088,8.32361 2.630618,12.79233 -0.33937,1.76285 2.36936,6.052 -0.49311,2.89695 -3.839322,-2.10374 -5.561924,-6.18137 -6.453945,-10.25586 -1.509691,-5.84848 -4.463345,-11.21667 -6.137248,-17.0302 -1.408882,-3.27197 -2.551174,-6.5893 -3.709845,-9.95481 -1.74582,-3.9613 -3.173781,-8.09197 -3.567418,-12.4105 -0.190406,-0.96207 -1.280959,-2.44059 -0.25592,-3.24574 z" />
      <path
         id="path88"
         style="fill:#000000;stroke:#000000;stroke-width:0.264583px;stroke-linecap:butt;stroke-linejoin:miter;stroke-opacity:1"
         d="m 83.694706,251.64644 c 1.607861,-0.18177 3.538692,0.36832 3.986009,2.12548 0.941427,2.36799 0.985463,5.01026 2.189502,7.29246 1.103043,2.8279 2.064145,5.71503 2.714418,8.68342 0.295418,0.82455 0.866006,2.66989 -0.542971,1.41424 -1.147903,-1.26054 -0.893272,-3.13979 -1.586639,-4.63994 -0.248854,-1.60967 -1.375349,-2.96007 -1.432453,-4.60251 -0.53667,-1.58959 -0.70711,-3.33162 -1.544239,-4.79079 -0.12004,-0.96776 -0.734399,-1.76106 -1.702498,-1.35405 -1.215651,-0.89507 1.649926,-2.38452 -0.530752,-2.79749 -0.640082,-0.16215 -2.043555,-0.31736 -1.550377,-1.33082 z" />
      <path
         id="path115"
         style="fill:#b3b3b3;stroke:#b3b3b3;stroke-width:0.264583px;stroke-linecap:butt;stroke-linejoin:miter;stroke-opacity:1"
         d="m 83.990491,259.31071 c 1.191073,2.05538 1.083364,4.5649 2.14802,6.68528 1.004808,2.19747 1.949054,4.4183 2.787804,6.68286 1.260879,2.8211 2.178757,5.77687 2.751289,8.81282 1.063306,3.0487 2.365333,6.03216 3.228134,9.15365 0.36133,0.49029 1.194162,2.35883 0.385908,0.87645 -1.250263,-1.93158 -2.75875,-3.73685 -2.970288,-6.14447 -0.52674,-2.53172 -2.265508,-4.61956 -2.668843,-7.17903 -0.712152,-2.35877 -2.168048,-4.39927 -2.961379,-6.73298 -0.901711,-1.93867 -0.525588,-4.2369 -1.572031,-6.13163 -0.202432,-1.84122 -1.192359,-3.55009 -0.947211,-5.4371 l -0.05994,-0.29849 z" />
    </g>
    <g
       id="g848"
       transform="translate(-29.795983,12.942334)">
      <path
         id="path200"
         style="fill:#65646f;fill-opacity:1;stroke:#65646f;stroke-width:0.264583px;stroke-linecap:butt;stroke-linejoin:miter;stroke-opacity:1"
         d="m 222.4545,159.92353 c 5.43087,4.90493 11.32844,9.18287 16.07005,14.80798 6.50704,4.42858 12.14829,9.96955 18.91163,14.02528 4.8328,3.45537 8.79718,7.92592 13.48139,11.51948 8.12357,4.48525 15.35359,10.65579 20.52873,18.39113 6.30202,5.35186 14.21746,8.67161 19.68373,15.02489 4.92714,2.98916 9.86667,8.92411 2.21151,12.06354 -2.77563,6.38299 -8.90444,8.65123 -13.65377,2.5193 -5.81087,-3.53309 -9.02695,-9.42955 -14.36144,-13.45956 -4.21918,-4.10269 -10.25562,-5.96659 -13.65654,-10.9665 -4.68729,-3.91049 -8.83768,-8.46414 -13.74803,-12.11436 -5.48793,-2.79335 -8.69094,-8.21457 -13.92651,-11.25353 -4.48259,-4.47776 -9.32898,-8.65326 -15.08162,-11.55294 -5.78658,-4.70874 -11.86333,-9.34644 -16.49768,-15.2728 -4.5201,-4.6832 -11.65172,-5.73783 -15.70693,-11.14735 -5.54272,-4.74561 -10.33639,-10.42429 -16.85202,-13.92719 -4.22131,-3.94913 -13.17909,-7.10802 -12.97589,-13.27525 4.97623,-2.39755 8.76008,-11.45686 15.02837,-6.91363 7.34476,3.17351 12.28389,10.2693 19.26294,14.3627 5.7069,3.66045 9.71628,9.07674 14.70192,13.51061 2.11519,1.36094 4.54959,2.15356 6.58016,3.6582 z" />
      <path
         id="path677"
         style="fill:#000000;fill-opacity:1;stroke:#000000;stroke-width:0.264999;stroke-linecap:round;stroke-opacity:1"
         d="m 309.05526,233.47106 c -1.21176,1.48482 -2.80414,2.58895 -4.10543,3.98689 -0.51159,0.20007 -0.5413,1.00911 0.11404,0.97668 0.59573,0.0641 0.7638,-0.60702 1.11699,-0.94202 0.93501,-1.11865 2.01401,-2.10954 3.10155,-3.07504 0.24043,-0.19034 0.92853,-0.53044 0.299,-0.67796 -0.17539,-0.0895 -0.35078,-0.17902 -0.52615,-0.26855 z" />
      <path
         id="path681"
         style="fill:#000000;fill-opacity:1;stroke:#000000;stroke-width:0.264999;stroke-linecap:round;stroke-opacity:1"
         d="m 295.37501,223.59728 c -0.90696,0.80835 -1.94118,1.47455 -2.74958,2.3913 -0.4051,0.43517 -0.83428,0.89926 -1.02506,1.46973 0.1472,0.54662 0.85496,0.1447 0.98509,-0.2281 0.60415,-0.78952 1.16722,-1.63059 1.96721,-2.24048 0.4411,-0.38724 0.89639,-0.77149 1.42791,-1.02961 -0.20186,-0.12094 -0.40369,-0.24193 -0.60557,-0.36284 z" />
      <path
         id="path683"
         style="fill:#000000;fill-opacity:1;stroke:#000000;stroke-width:0.264999;stroke-linecap:round;stroke-opacity:1"
         d="m 283.41121,213.54351 c -0.86827,0.97024 -1.83881,1.84863 -2.63023,2.88694 -0.33354,0.40678 -0.7219,0.7716 -1.03333,1.19383 -0.16059,0.62686 0.5904,0.48403 0.8671,0.19925 0.7786,-0.84872 1.39,-1.8395 2.17349,-2.68703 0.39468,-0.45471 0.80403,-0.90658 1.3013,-1.25197 -0.22611,-0.11368 -0.45223,-0.22733 -0.67833,-0.34102 z" />
      <path
         id="path687"
         style="fill:#000000;fill-opacity:1;stroke:#000000;stroke-width:0.264999;stroke-linecap:round;stroke-opacity:1"
         d="m 270.82586,204.63116 c -0.84073,0.98994 -1.84049,1.82898 -2.84323,2.64729 -0.38716,0.18503 -0.74729,0.47452 -0.98125,0.79806 0.31992,-0.10286 0.71307,-0.0605 0.95487,-0.33845 0.71757,-0.59253 1.45551,-1.16442 2.0868,-1.85254 0.35499,-0.37735 0.75206,-0.72032 1.1414,-1.05327 -0.0533,-0.12292 -0.25613,-0.11365 -0.35859,-0.20109 z" />
      <path
         id="path689"
         style="fill:#000000;fill-opacity:1;stroke:#000000;stroke-width:0.264999;stroke-linecap:round;stroke-opacity:1"
         d="m 257.57655,193.51951 c -1.17548,1.17373 -2.54699,2.15357 -3.56516,3.47966 -0.31624,0.45476 -0.79607,0.82574 -1.00546,1.33527 0.10075,0.58759 0.88573,0.33604 1.03795,-0.10177 0.65617,-1.04856 1.51978,-1.95186 2.38549,-2.82946 0.54333,-0.55029 1.14896,-1.04184 1.71998,-1.55581 -0.12987,-0.18226 -0.40631,-0.18651 -0.5728,-0.32789 z" />
      <path
         id="path693"
         style="fill:#000000;fill-opacity:1;stroke:#000000;stroke-width:0.264999;stroke-linecap:round;stroke-opacity:1"
         d="m 245.2612,183.99618 c -0.98417,1.28095 -2.18929,2.36874 -3.34675,3.48597 -0.31232,0.0655 -0.90833,0.76982 -0.29786,0.72999 0.42187,-0.0729 0.64006,-0.48002 0.96007,-0.72062 0.87805,-0.80554 1.63726,-1.72575 2.4181,-2.62194 0.16761,-0.24697 0.64933,-0.51118 0.67532,-0.69113 -0.13631,-0.0607 -0.27261,-0.12147 -0.40888,-0.18227 z" />
      <path
         id="path695"
         style="fill:#000000;fill-opacity:1;stroke:#000000;stroke-width:0.264999;stroke-linecap:round;stroke-opacity:1"
         d="m 234.12646,175.37598 c -1.04486,0.94846 -2.31466,1.65273 -3.18891,2.78332 -0.24797,0.49313 -0.97011,0.77134 -1.01493,1.31281 0.33876,0.45935 0.78306,-0.12961 0.97461,-0.43154 0.64963,-0.66742 1.16522,-1.46617 1.91353,-2.03759 0.57252,-0.49302 1.17565,-0.95954 1.84868,-1.30819 -0.17763,-0.10633 -0.35553,-0.21219 -0.53298,-0.31881 z" />
      <path
         id="path699"
         style="fill:#000000;fill-opacity:1;stroke:#000000;stroke-width:0.264999;stroke-linecap:round;stroke-opacity:1"
         d="m 222.51542,164.62004 c -0.99417,1.46474 -2.46675,2.49213 -3.73998,3.69139 -0.56968,0.30382 0.094,0.88594 0.47905,0.49132 0.52016,-0.58271 1.09455,-1.11975 1.63787,-1.68279 0.74544,-0.68972 1.39091,-1.48065 2.15534,-2.14936 0.28825,-0.13605 -0.45196,-0.2564 -0.53228,-0.35056 z" />
      <path
         id="path701"
         style="fill:#000000;fill-opacity:1;stroke:#000000;stroke-width:0.264999;stroke-linecap:round;stroke-opacity:1"
         d="m 301.78117,228.33949 c -0.28747,0.48703 -0.81862,0.78782 -1.20401,1.1567 -0.26951,0.12919 -0.46787,0.40599 -0.31343,0.70331 0.0656,0.25021 0.45753,-0.0166 0.67504,0.007 0.30318,-0.10511 0.4752,-0.40641 0.69751,-0.62088 0.21635,-0.22125 0.36749,-0.49976 0.57401,-0.72423 0.2892,-0.18453 0.0746,-0.39202 -0.18376,-0.41919 -0.0818,-0.0343 -0.16358,-0.0687 -0.24536,-0.10301 z" />
      <path
         id="path705"
         style="fill:#000000;fill-opacity:1;stroke:#000000;stroke-width:0.264999;stroke-linecap:round;stroke-opacity:1"
         d="m 289.69417,219.18941 c -0.40295,0.48576 -0.92332,0.85347 -1.35537,1.31076 -0.12414,0.17337 -0.33809,0.7443 0.047,0.44395 0.35172,-0.0976 0.63729,-0.3181 0.85479,-0.60669 0.29187,-0.32246 0.58616,-0.64685 0.93107,-0.91417 -0.15919,-0.0779 -0.31829,-0.15599 -0.4775,-0.23385 z" />
      <path
         id="path707"
         style="fill:#000000;fill-opacity:1;stroke:#000000;stroke-width:0.264999;stroke-linecap:round;stroke-opacity:1"
         d="m 277.02128,208.95836 c -0.39713,0.42164 -0.80153,0.83671 -1.22181,1.23538 -0.10957,0.23635 -0.0547,0.52526 -0.21365,0.74251 0.25631,-0.23209 0.59782,-0.30771 0.86843,-0.50311 0.29793,-0.32633 0.56716,-0.68505 0.93857,-0.93512 0.29124,-0.14652 0.20115,-0.30752 -0.0708,-0.3841 -0.10024,-0.0519 -0.20049,-0.10372 -0.30074,-0.15556 z" />
      <path
         id="path709"
         style="fill:#000000;fill-opacity:1;stroke:#000000;stroke-width:0.264999;stroke-linecap:round;stroke-opacity:1"
         d="m 263.80024,198.83235 c -0.31218,0.68331 -0.89613,1.18605 -1.28723,1.81682 -0.15038,0.4182 0.39889,0.49507 0.58714,0.18444 0.32672,-0.33949 0.54159,-0.76938 0.81765,-1.14931 0.0827,-0.22503 0.49772,-0.53132 0.40636,-0.67284 -0.17464,-0.0597 -0.34927,-0.11943 -0.52392,-0.17911 z" />
      <path
         id="path713"
         style="fill:#000000;fill-opacity:1;stroke:#000000;stroke-width:0.264999;stroke-linecap:round;stroke-opacity:1"
         d="m 250.78571,188.62644 c -0.41327,0.52511 -0.95911,0.9264 -1.37729,1.44712 -0.0409,0.18091 -0.26479,0.6533 0.0927,0.38106 0.37379,-0.13396 0.62275,-0.44518 0.87551,-0.73294 0.27952,-0.30847 0.56804,-0.61226 0.9,-0.86528 -0.16365,-0.0766 -0.32721,-0.15342 -0.49089,-0.22996 z" />
      <path
         id="path715"
         style="fill:#000000;fill-opacity:1;stroke:#000000;stroke-width:0.264999;stroke-linecap:round;stroke-opacity:1"
         d="m 239.26545,179.75939 c -0.3338,0.40549 -0.83981,0.65409 -1.10982,1.11161 -0.0145,0.16797 -0.32114,0.47308 -0.005,0.26199 0.30199,-0.1403 0.64386,-0.23487 0.90872,-0.466 0.24333,-0.19966 0.52361,-0.36383 0.75674,-0.56738 -0.0681,-0.19536 -0.39493,-0.2001 -0.55079,-0.34022 z" />
      <path
         id="path717"
         style="fill:#000000;fill-opacity:1;stroke:#000000;stroke-width:0.264999;stroke-linecap:round;stroke-opacity:1"
         d="m 227.92152,170.02531 c -0.2768,0.47042 -0.64496,0.87647 -0.97117,1.31165 0.002,0.1821 -0.0369,0.5413 -0.0778,0.59541 0.18972,-0.23022 0.50519,-0.26009 0.69152,-0.47575 0.27906,-0.36452 0.57085,-0.71768 0.88729,-1.05027 0.21593,-0.25483 -0.33832,-0.24471 -0.49179,-0.36664 z" />
      <path
         id="path721"
         style="fill:#000000;fill-opacity:1;stroke:#000000;stroke-width:0.264999;stroke-linecap:round;stroke-opacity:1"
         d="m 210.5201,156.25618 c -0.49476,0.81199 -1.24054,1.42427 -1.91802,2.0765 -0.5314,0.45864 -1.09142,0.89496 -1.56184,1.41502 -0.23523,0.57217 0.69105,0.44775 0.81053,0.029 0.6743,-0.70061 1.46,-1.29089 2.07611,-2.04909 0.38074,-0.42286 0.7634,-0.84406 1.15485,-1.25705 -0.1872,-0.0715 -0.37439,-0.14303 -0.56163,-0.21442 z" />
      <path
         id="path723"
         style="fill:#000000;fill-opacity:1;stroke:#000000;stroke-width:0.264999;stroke-linecap:round;stroke-opacity:1"
         d="m 197.54629,145.54093 c -0.85452,0.89364 -1.93635,1.54764 -2.71508,2.51872 -0.26385,0.3269 -0.57621,0.60981 -0.87689,0.89852 -0.34701,0.37307 0.19864,0.68799 0.50132,0.38502 0.28564,-0.23854 0.49224,-0.56032 0.76484,-0.81605 0.45242,-0.47408 0.84425,-1.00296 1.33977,-1.43586 0.43864,-0.43513 0.84258,-0.91056 1.35023,-1.27004 0.0634,-0.18333 -0.27894,-0.17165 -0.36419,-0.28031 z" />
      <path
         id="path729"
         style="fill:#000000;fill-opacity:1;stroke:#000000;stroke-width:0.264999;stroke-linecap:round;stroke-opacity:1"
         d="m 184.81635,135.60084 c -0.98948,0.94673 -2.0244,1.84514 -3.04778,2.75484 -0.26977,0.31564 -0.81031,0.51312 -0.91425,0.89284 -0.0139,0.52172 0.67939,0.28812 0.94888,0.12928 0.48505,-0.45071 0.98828,-0.89187 1.437,-1.3847 0.55253,-0.56107 1.1472,-1.079 1.74175,-1.59468 0.17405,-0.21099 0.84604,-0.38607 0.28968,-0.54233 -0.15176,-0.0851 -0.30353,-0.17015 -0.45528,-0.25525 z" />
      <path
         id="path735"
         style="fill:#000000;fill-opacity:1;stroke:#000000;stroke-width:0.264999;stroke-linecap:round;stroke-opacity:1"
         d="m 215.67282,160.68388 c -0.30655,0.54474 -0.7221,1.01528 -1.09544,1.51342 0.004,0.1788 -0.12318,0.73533 0.16006,0.43016 0.3377,-0.0893 0.54264,-0.3552 0.71323,-0.64045 0.24459,-0.34952 0.49213,-0.70087 0.79724,-1.00115 -0.0608,-0.22517 -0.41618,-0.17825 -0.57509,-0.30198 z" />
      <path
         id="path739"
         style="fill:#000000;fill-opacity:1;stroke:#000000;stroke-width:0.264999;stroke-linecap:round;stroke-opacity:1"
         d="m 203.99075,150.59214 c -0.34942,0.52 -0.88945,0.8717 -1.25451,1.37875 -0.024,0.11593 -0.20745,0.58362 0.0461,0.33135 0.5339,-0.17033 0.83304,-0.6825 1.23385,-1.03775 0.10041,-0.16354 0.51282,-0.33433 0.4365,-0.44568 -0.154,-0.0755 -0.30799,-0.15107 -0.46194,-0.22667 z" />
      <path
         id="path741"
         style="fill:#000000;fill-opacity:1;stroke:#000000;stroke-width:0.264999;stroke-linecap:round;stroke-opacity:1"
         d="m 191.59173,140.67113 c -0.27841,0.3435 -0.62813,0.62439 -0.92998,0.94127 -0.089,0.14001 -0.2082,0.58169 0.1044,0.42012 0.36477,-0.0826 0.67435,-0.30672 0.90639,-0.59458 0.11964,-0.18193 0.44851,-0.37139 0.49605,-0.48359 -0.19225,-0.0944 -0.385,-0.18837 -0.57686,-0.28322 z" />
    </g>
    <g
       id="g992"
       style="fill:#5599ff;stroke:#5599ff"
       transform="translate(-8.5362005,-0.58017418)">
      <circle
         id="path350"
         style="fill:#5599ff;stroke:#5599ff;stroke-width:0.264583"
         cx="116.56535"
         cy="198.86194"
         r="0.39687499" />
      <circle
         id="path356"
         style="fill:#5599ff;stroke:#5599ff;stroke-width:0.264583"
         cx="116.56535"
         cy="190.37689"
         r="0.39687499" />
      <circle
         id="path358"
         style="fill:#5599ff;stroke:#5599ff;stroke-width:0.264583"
         cx="116.35583"
         cy="209.15492"
         r="0.39687499" />
      <circle
         id="path360"
         style="fill:#5599ff;stroke:#5599ff;stroke-width:0.264583"
         cx="116.31885"
         cy="220.42397"
         r="0.39687499" />
      <circle
         id="path362"
         style="fill:#5599ff;stroke:#5599ff;stroke-width:0.264583"
         cx="116.20793"
         cy="231.44899"
         r="0.39687499" />
      <circle
         id="path364"
         style="fill:#5599ff;stroke:#5599ff;stroke-width:0.264583"
         cx="116.18328"
         cy="242.15236"
         r="0.39687499" />
      <circle
         id="path366"
         style="fill:#5599ff;stroke:#5599ff;stroke-width:0.264583"
         cx="107.56848"
         cy="242.35201"
         r="0.39687499" />
      <circle
         id="path368"
         style="fill:#5599ff;stroke:#5599ff;stroke-width:0.264583"
         cx="107.19875"
         cy="231.91484"
         r="0.39687499" />
      <circle
         id="path370"
         style="fill:#5599ff;stroke:#5599ff;stroke-width:0.264583"
         cx="107.01388"
         cy="220.6347"
         r="0.39687499" />
      <circle
         id="path372"
         style="fill:#5599ff;stroke:#5599ff;stroke-width:0.264583"
         cx="106.79205"
         cy="209.78716"
         r="0.39687499" />
      <circle
         id="path374"
         style="fill:#5599ff;stroke:#5599ff;stroke-width:0.264583"
         cx="106.86599"
         cy="199.08377"
         r="0.39687499" />
      <circle
         id="path376"
         style="fill:#5599ff;stroke:#5599ff;stroke-width:0.264583"
         cx="106.85366"
         cy="190.26598"
         r="0.39687499" />
      <circle
         id="path378"
         style="fill:#5599ff;stroke:#5599ff;stroke-width:0.264583"
         cx="106.74274"
         cy="181.88075"
         r="0.39687499" />
      <circle
         id="path380"
         style="fill:#5599ff;stroke:#5599ff;stroke-width:0.264583"
         cx="116.75021"
         cy="181.95839"
         r="0.39687499" />
      <circle
         id="path382"
         style="fill:#5599ff;stroke:#5599ff;stroke-width:0.264583"
         cx="97.20359"
         cy="182.11366"
         r="0.39687499" />
      <circle
         id="path384"
         style="fill:#5599ff;stroke:#5599ff;stroke-width:0.264583"
         cx="96.747589"
         cy="190.55435"
         r="0.39687499" />
      <circle
         id="path386"
         style="fill:#5599ff;stroke:#5599ff;stroke-width:0.264583"
         cx="96.969437"
         cy="198.46265"
         r="0.39687499" />
      <circle
         id="path388"
         style="fill:#5599ff;stroke:#5599ff;stroke-width:0.264583"
         cx="96.981758"
         cy="209.16602"
         r="0.39687499" />
      <circle
         id="path390"
         style="fill:#5599ff;stroke:#5599ff;stroke-width:0.264583"
         cx="97.105003"
         cy="220.16885"
         r="0.39687499" />
      <circle
         id="path392"
         style="fill:#5599ff;stroke:#5599ff;stroke-width:0.264583"
         cx="97.351494"
         cy="231.9481"
         r="0.39687499" />
      <circle
         id="path394"
         style="fill:#5599ff;stroke:#5599ff;stroke-width:0.264583"
         cx="89.463829"
         cy="231.72627"
         r="0.39687499" />
      <circle
         id="path396"
         style="fill:#5599ff;stroke:#5599ff;stroke-width:0.264583"
         cx="89.192688"
         cy="220.29086"
         r="0.39687499" />
      <circle
         id="path398"
         style="fill:#5599ff;stroke:#5599ff;stroke-width:0.264583"
         cx="89.057129"
         cy="209.74278"
         r="0.39687499" />
      <circle
         id="path400"
         style="fill:#5599ff;stroke:#5599ff;stroke-width:0.264583"
         cx="88.884575"
         cy="198.89522"
         r="0.39687499" />
      <circle
         id="path402"
         style="fill:#5599ff;stroke:#5599ff;stroke-width:0.264583"
         cx="89.057129"
         cy="190.09961"
         r="0.39687499" />
      <circle
         id="path404"
         style="fill:#5599ff;stroke:#5599ff;stroke-width:0.264583"
         cx="88.835281"
         cy="181.73656"
         r="0.39687499" />
      <circle
         id="path406"
         style="fill:#5599ff;stroke:#5599ff;stroke-width:0.264583"
         cx="81.218758"
         cy="181.73656"
         r="0.39687499" />
      <circle
         id="path408"
         style="fill:#5599ff;stroke:#5599ff;stroke-width:0.264583"
         cx="81.268051"
         cy="190.19943"
         r="0.39687499" />
      <circle
         id="path410"
         style="fill:#5599ff;stroke:#5599ff;stroke-width:0.264583"
         cx="81.25573"
         cy="198.82867"
         r="0.39687499" />
      <circle
         id="path412"
         style="fill:#5599ff;stroke:#5599ff;stroke-width:0.264583"
         cx="80.972267"
         cy="209.73169"
         r="0.39687499" />
      <circle
         id="path414"
         style="fill:#5599ff;stroke:#5599ff;stroke-width:0.264583"
         cx="81.218758"
         cy="220.80109"
         r="0.39687499" />
      <circle
         id="path416"
         style="fill:#5599ff;stroke:#5599ff;stroke-width:0.264583"
         cx="81.120163"
         cy="231.49336"
         r="0.39687499" />
      <circle
         id="path422"
         style="fill:#5599ff;stroke:#5599ff;stroke-width:0.264583"
         cx="123.38078"
         cy="250.76312"
         r="0.39687499" />
      <circle
         id="path424"
         style="fill:#5599ff;stroke:#5599ff;stroke-width:0.264583"
         cx="115.72728"
         cy="250.56348"
         r="0.39687499" />
      <circle
         id="path426"
         style="fill:#5599ff;stroke:#5599ff;stroke-width:0.264583"
         cx="116.19561"
         cy="258.84888"
         r="0.39687499" />
      <circle
         id="path428"
         style="fill:#5599ff;stroke:#5599ff;stroke-width:0.264583"
         cx="123.7998"
         cy="259.08179"
         r="0.39687499" />
      <circle
         id="path430"
         style="fill:#5599ff;stroke:#5599ff;stroke-width:0.264583"
         cx="133.70869"
         cy="250.50801"
         r="0.39687499" />
      <circle
         id="path432"
         style="fill:#5599ff;stroke:#5599ff;stroke-width:0.264583"
         cx="133.9182"
         cy="259.24817"
         r="0.39687499" />
      <circle
         id="path434"
         style="fill:#5599ff;stroke:#5599ff;stroke-width:0.264583"
         cx="145.25671"
         cy="250.26399"
         r="0.39687499" />
      <circle
         id="path436"
         style="fill:#5599ff;stroke:#5599ff;stroke-width:0.264583"
         cx="145.01024"
         cy="258.81561"
         r="0.39687499" />
      <circle
         id="path438"
         style="fill:#5599ff;stroke:#5599ff;stroke-width:0.264583"
         cx="155.90506"
         cy="249.94234"
         r="0.39687499" />
      <circle
         id="path440"
         style="fill:#5599ff;stroke:#5599ff;stroke-width:0.264583"
         cx="155.95436"
         cy="258.24994"
         r="0.39687499" />
      <circle
         id="path442"
         style="fill:#5599ff;stroke:#5599ff;stroke-width:0.264583"
         cx="166.71362"
         cy="258.11682"
         r="0.39687499" />
      <circle
         id="path446"
         style="fill:#5599ff;stroke:#5599ff;stroke-width:0.264583"
         cx="166.54109"
         cy="249.2103"
         r="0.39687499" />
      <circle
         id="path448"
         style="fill:#5599ff;stroke:#5599ff;stroke-width:0.264583"
         cx="177.62077"
         cy="249.26575"
         r="0.39687499" />
      <circle
         id="path450"
         style="fill:#5599ff;stroke:#5599ff;stroke-width:0.264583"
         cx="177.39894"
         cy="257.72864"
         r="0.39687499" />
      <circle
         id="path454"
         style="fill:#5599ff;stroke:#5599ff;stroke-width:0.264583"
         cx="188.60188"
         cy="249.02959"
         r="0.39687499" />
      <circle
         id="path456"
         style="fill:#5599ff;stroke:#5599ff;stroke-width:0.264583"
         cx="188.46632"
         cy="258.21344"
         r="0.39687499" />
      <circle
         id="path458"
         style="fill:#5599ff;stroke:#5599ff;stroke-width:0.264583"
         cx="144.97325"
         cy="267.40048"
         r="0.39687499" />
      <circle
         id="path460"
         style="fill:#5599ff;stroke:#5599ff;stroke-width:0.264583"
         cx="133.88123"
         cy="267.25629"
         r="0.39687499" />
      <circle
         id="path462"
         style="fill:#5599ff;stroke:#5599ff;stroke-width:0.264583"
         cx="155.65857"
         cy="267.77759"
         r="0.39687499" />
      <circle
         id="path464"
         style="fill:#5599ff;stroke:#5599ff;stroke-width:0.264583"
         cx="166.63968"
         cy="267.06772"
         r="0.39687499" />
      <circle
         id="path466"
         style="fill:#5599ff;stroke:#5599ff;stroke-width:0.264583"
         cx="177.63312"
         cy="266.99008"
         r="0.39687499" />
      <circle
         id="path468"
         style="fill:#5599ff;stroke:#5599ff;stroke-width:0.264583"
         cx="188.55258"
         cy="267.49707"
         r="0.39687499" />
      <circle
         id="path470"
         style="fill:#5599ff;stroke:#5599ff;stroke-width:0.264583"
         cx="198.90033"
         cy="249.49614"
         r="0.39687499" />
      <circle
         id="path472"
         style="fill:#5599ff;stroke:#5599ff;stroke-width:0.264583"
         cx="198.67097"
         cy="258.26889"
         r="0.39687499" />
      <circle
         id="path474"
         style="fill:#5599ff;stroke:#5599ff;stroke-width:0.264583"
         cx="198.59703"
         cy="267.49707"
         r="0.39687499" />
      <circle
         id="path476"
         style="fill:#5599ff;stroke:#5599ff;stroke-width:0.264583"
         cx="144.96094"
         cy="276.68414"
         r="0.39687499" />
      <circle
         id="path478"
         style="fill:#5599ff;stroke:#5599ff;stroke-width:0.264583"
         cx="133.9182"
         cy="276.7063"
         r="0.39687499" />
      <circle
         id="path480"
         style="fill:#5599ff;stroke:#5599ff;stroke-width:0.264583"
         cx="155.8804"
         cy="276.73959"
         r="0.39687499" />
      <circle
         id="path482"
         style="fill:#5599ff;stroke:#5599ff;stroke-width:0.264583"
         cx="166.67667"
         cy="276.12955"
         r="0.39687499" />
      <circle
         id="path484"
         style="fill:#5599ff;stroke:#5599ff;stroke-width:0.264583"
         cx="177.54683"
         cy="276.41794"
         r="0.39687499" />
      <circle
         id="path486"
         style="fill:#5599ff;stroke:#5599ff;stroke-width:0.264583"
         cx="188.62653"
         cy="276.69202"
         r="0.39687499" />
      <circle
         id="path488"
         style="fill:#5599ff;stroke:#5599ff;stroke-width:0.264583"
         cx="198.75668"
         cy="276.76669"
         r="0.39687499" />
      <circle
         id="path490"
         style="fill:#5599ff;stroke:#5599ff;stroke-width:0.264583"
         cx="115.92447"
         cy="275.84116"
         r="0.39687499" />
      <circle
         id="path492"
         style="fill:#5599ff;stroke:#5599ff;stroke-width:0.264583"
         cx="107.24805"
         cy="275.7746"
         r="0.39687499" />
      <circle
         id="path494"
         style="fill:#5599ff;stroke:#5599ff;stroke-width:0.264583"
         cx="97.7089"
         cy="275.35315"
         r="0.39687499" />
      <circle
         id="path496"
         style="fill:#5599ff;stroke:#5599ff;stroke-width:0.264583"
         cx="97.733551"
         cy="267.30066"
         r="0.39687499" />
      <circle
         id="path498"
         style="fill:#5599ff;stroke:#5599ff;stroke-width:0.264583"
         cx="97.770523"
         cy="259.49219"
         r="0.39687499" />
      <circle
         id="path500"
         style="fill:#5599ff;stroke:#5599ff;stroke-width:0.264583"
         cx="80.885994"
         cy="250.78529"
         r="0.39687499" />
      <circle
         id="path502"
         style="fill:#5599ff;stroke:#5599ff;stroke-width:0.264583"
         cx="81.711731"
         cy="275.5528"
         r="0.39687499" />
      <circle
         id="path525"
         style="fill:#5599ff;stroke:#5599ff;stroke-width:0.264583"
         cx="123.43166"
         cy="181.67645"
         r="0.39687499" />
      <circle
         id="path527"
         style="fill:#5599ff;stroke:#5599ff;stroke-width:0.264583"
         cx="134.19092"
         cy="181.8761"
         r="0.39687499" />
      <circle
         id="path529"
         style="fill:#5599ff;stroke:#5599ff;stroke-width:0.264583"
         cx="133.59935"
         cy="190.23914"
         r="0.39687499" />
      <circle
         id="path531"
         style="fill:#5599ff;stroke:#5599ff;stroke-width:0.264583"
         cx="133.79654"
         cy="198.51346"
         r="0.39687499" />
      <circle
         id="path533"
         style="fill:#5599ff;stroke:#5599ff;stroke-width:0.264583"
         cx="133.53773"
         cy="209.59393"
         r="0.39687499" />
      <circle
         id="path535"
         style="fill:#5599ff;stroke:#5599ff;stroke-width:0.264583"
         cx="133.73491"
         cy="220.95171"
         r="0.39687499" />
      <circle
         id="path537"
         style="fill:#5599ff;stroke:#5599ff;stroke-width:0.264583"
         cx="133.7226"
         cy="231.81036"
         r="0.39687499" />
      <circle
         id="path539"
         style="fill:#5599ff;stroke:#5599ff;stroke-width:0.264583"
         cx="144.77765"
         cy="231.98782"
         r="0.39687499" />
      <circle
         id="path541"
         style="fill:#5599ff;stroke:#5599ff;stroke-width:0.264583"
         cx="144.81462"
         cy="221.14026"
         r="0.39687499" />
      <circle
         id="path543"
         style="fill:#5599ff;stroke:#5599ff;stroke-width:0.264583"
         cx="144.76532"
         cy="209.69376"
         r="0.39687499" />
      <circle
         id="path545"
         style="fill:#5599ff;stroke:#5599ff;stroke-width:0.264583"
         cx="144.93785"
         cy="198.74638"
         r="0.39687499" />
      <circle
         id="path547"
         style="fill:#5599ff;stroke:#5599ff;stroke-width:0.264583"
         cx="145.0118"
         cy="190.57188"
         r="0.39687499" />
      <circle
         id="path549"
         style="fill:#5599ff;stroke:#5599ff;stroke-width:0.264583"
         cx="144.9502"
         cy="181.85391"
         r="0.39687499" />
      <circle
         id="path551"
         style="fill:#5599ff;stroke:#5599ff;stroke-width:0.264583"
         cx="156.00523"
         cy="231.98782"
         r="0.39687499" />
      <circle
         id="path555"
         style="fill:#5599ff;stroke:#5599ff;stroke-width:0.264583"
         cx="156.16545"
         cy="221.29555"
         r="0.39687499" />
      <circle
         id="path557"
         style="fill:#5599ff;stroke:#5599ff;stroke-width:0.264583"
         cx="156.06686"
         cy="209.81577"
         r="0.39687499" />
      <circle
         id="path559"
         style="fill:#5599ff;stroke:#5599ff;stroke-width:0.264583"
         cx="155.98059"
         cy="198.60219"
         r="0.39687499" />
      <circle
         id="path561"
         style="fill:#5599ff;stroke:#5599ff;stroke-width:0.264583"
         cx="156.04222"
         cy="190.5497"
         r="0.39687499" />
      <circle
         id="path563"
         style="fill:#5599ff;stroke:#5599ff;stroke-width:0.264583"
         cx="156.07918"
         cy="182.2643"
         r="0.39687499" />
      <circle
         id="path565"
         style="fill:#5599ff;stroke:#5599ff;stroke-width:0.264583"
         cx="166.48103"
         cy="232.16528"
         r="0.39687499" />
      <circle
         id="path567"
         style="fill:#5599ff;stroke:#5599ff;stroke-width:0.264583"
         cx="166.70288"
         cy="221.19572"
         r="0.39687499" />
      <circle
         id="path569"
         style="fill:#5599ff;stroke:#5599ff;stroke-width:0.264583"
         cx="166.60428"
         cy="209.97105"
         r="0.39687499" />
      <circle
         id="path571"
         style="fill:#5599ff;stroke:#5599ff;stroke-width:0.264583"
         cx="166.75217"
         cy="199.01257"
         r="0.39687499" />
      <circle
         id="path573"
         style="fill:#5599ff;stroke:#5599ff;stroke-width:0.264583"
         cx="166.8631"
         cy="190.57188"
         r="0.39687499" />
      <circle
         id="path575"
         style="fill:#5599ff;stroke:#5599ff;stroke-width:0.264583"
         cx="166.7645"
         cy="182.61923"
         r="0.39687499" />
      <circle
         id="path577"
         style="fill:#5599ff;stroke:#5599ff;stroke-width:0.264583"
         cx="177.61003"
         cy="232.42039"
         r="0.39687499" />
      <circle
         id="path579"
         style="fill:#5599ff;stroke:#5599ff;stroke-width:0.264583"
         cx="177.79489"
         cy="221.2179"
         r="0.39687499" />
      <circle
         id="path581"
         style="fill:#5599ff;stroke:#5599ff;stroke-width:0.264583"
         cx="177.59772"
         cy="210.45908"
         r="0.39687499" />
      <circle
         id="path583"
         style="fill:#5599ff;stroke:#5599ff;stroke-width:0.264583"
         cx="177.84419"
         cy="199.30096"
         r="0.39687499" />
      <circle
         id="path585"
         style="fill:#5599ff;stroke:#5599ff;stroke-width:0.264583"
         cx="178.06604"
         cy="190.66063"
         r="0.39687499" />
      <circle
         id="path587"
         style="fill:#5599ff;stroke:#5599ff;stroke-width:0.264583"
         cx="177.77025"
         cy="182.64142"
         r="0.39687499" />
      <circle
         id="path589"
         style="fill:#5599ff;stroke:#5599ff;stroke-width:0.264583"
         cx="188.39395"
         cy="232.28731"
         r="0.39687499" />
      <circle
         id="path591"
         style="fill:#5599ff;stroke:#5599ff;stroke-width:0.264583"
         cx="188.64044"
         cy="221.40646"
         r="0.39687499" />
      <circle
         id="path593"
         style="fill:#5599ff;stroke:#5599ff;stroke-width:0.264583"
         cx="188.62811"
         cy="210.20398"
         r="0.39687499" />
      <circle
         id="path595"
         style="fill:#5599ff;stroke:#5599ff;stroke-width:0.264583"
         cx="188.86227"
         cy="199.22331"
         r="0.39687499" />
      <circle
         id="path597"
         style="fill:#5599ff;stroke:#5599ff;stroke-width:0.264583"
         cx="188.88693"
         cy="190.92682"
         r="0.39687499" />
      <circle
         id="path599"
         style="fill:#5599ff;stroke:#5599ff;stroke-width:0.264583"
         cx="208.37192"
         cy="267.61273"
         r="0.39687499" />
      <circle
         id="path601"
         style="fill:#5599ff;stroke:#5599ff;stroke-width:0.264583"
         cx="208.1131"
         cy="258.08505"
         r="0.39687499" />
      <circle
         id="path603"
         style="fill:#5599ff;stroke:#5599ff;stroke-width:0.264583"
         cx="208.49516"
         cy="249.82184"
         r="0.39687499" />
      <circle
         id="path605"
         style="fill:#5599ff;stroke:#5599ff;stroke-width:0.264583"
         cx="208.59375"
         cy="242.02446"
         r="0.39687499" />
      <circle
         id="path607"
         style="fill:#5599ff;stroke:#5599ff;stroke-width:0.264583"
         cx="208.69237"
         cy="232.44135"
         r="0.39687499" />
      <circle
         id="path609"
         style="fill:#5599ff;stroke:#5599ff;stroke-width:0.264583"
         cx="208.57881"
         cy="221.10634"
         r="0.39687499" />
      <circle
         id="path611"
         style="fill:#5599ff;stroke:#5599ff;stroke-width:0.264583"
         cx="208.50749"
         cy="211.01242"
         r="0.39687499" />
      <circle
         id="path613"
         style="fill:#5599ff;stroke:#5599ff;stroke-width:0.264583"
         cx="199.49831"
         cy="210.55766"
         r="0.39687499" />
      <circle
         id="path615"
         style="fill:#5599ff;stroke:#5599ff;stroke-width:0.264583"
         cx="199.72014"
         cy="221.15013"
         r="0.39687499" />
      <circle
         id="path617"
         style="fill:#5599ff;stroke:#5599ff;stroke-width:0.264583"
         cx="198.70955"
         cy="232.04205"
         r="0.39687499" />
      <circle
         id="path619"
         style="fill:#5599ff;stroke:#5599ff;stroke-width:0.264583"
         cx="198.54932"
         cy="241.56972"
         r="0.39687499" />
      <circle
         id="path627"
         style="fill:#5599ff;stroke:#5599ff;stroke-width:0.264583"
         cx="218.51495"
         cy="267.85675"
         r="0.39687499" />
      <circle
         id="path629"
         style="fill:#5599ff;stroke:#5599ff;stroke-width:0.264583"
         cx="218.24384"
         cy="258.09616"
         r="0.39687499" />
      <circle
         id="path631"
         style="fill:#5599ff;stroke:#5599ff;stroke-width:0.264583"
         cx="218.5273"
         cy="250.04367"
         r="0.39687499" />
      <circle
         id="path635"
         style="fill:#5599ff;stroke:#5599ff;stroke-width:0.264583"
         cx="218.60124"
         cy="241.90247"
         r="0.39687499" />
      <circle
         id="path637"
         style="fill:#5599ff;stroke:#5599ff;stroke-width:0.264583"
         cx="218.82101"
         cy="232.21736"
         r="0.39687499" />
      <circle
         id="path639"
         style="fill:#5599ff;stroke:#5599ff;stroke-width:0.264583"
         cx="218.14256"
         cy="221.17542"
         r="0.39687499" />
      <circle
         id="path641"
         style="fill:#5599ff;stroke:#5599ff;stroke-width:0.264583"
         cx="229.55769"
         cy="267.72363"
         r="0.39687499" />
      <circle
         id="path643"
         style="fill:#5599ff;stroke:#5599ff;stroke-width:0.264583"
         cx="229.2619"
         cy="258.25143"
         r="0.39687499" />
      <circle
         id="path645"
         style="fill:#5599ff;stroke:#5599ff;stroke-width:0.264583"
         cx="229.12634"
         cy="250.45406"
         r="0.39687499" />
      <circle
         id="path647"
         style="fill:#5599ff;stroke:#5599ff;stroke-width:0.264583"
         cx="228.97844"
         cy="241.72499"
         r="0.39687499" />
      <circle
         id="path649"
         style="fill:#5599ff;stroke:#5599ff;stroke-width:0.264583"
         cx="228.41151"
         cy="232.15297"
         r="0.39687499" />
      <circle
         id="path651"
         style="fill:#5599ff;stroke:#5599ff;stroke-width:0.264583"
         cx="228.2513"
         cy="221.84889"
         r="0.39687499" />
      <circle
         id="path659"
         style="fill:#5599ff;stroke:#5599ff;stroke-width:0.264583"
         cx="218.66286"
         cy="182.90637"
         r="0.39687499" />
      <circle
         id="path661"
         style="fill:#5599ff;stroke:#5599ff;stroke-width:0.264583"
         cx="229.74257"
         cy="182.97293"
         r="0.39687499" />
      <circle
         id="path663"
         style="fill:#5599ff;stroke:#5599ff;stroke-width:0.264583"
         cx="229.3605"
         cy="191.19179"
         r="0.39687499" />
      <circle
         id="path850"
         style="fill:#5599ff;stroke:#5599ff;stroke-width:0.264583"
         cx="207.82607"
         cy="276.77997"
         r="0.39687499" />
      <circle
         id="path852"
         style="fill:#5599ff;stroke:#5599ff;stroke-width:0.264583"
         cx="218.45155"
         cy="277.07321"
         r="0.39687499" />
      <circle
         id="path854"
         style="fill:#5599ff;stroke:#5599ff;stroke-width:0.264583"
         cx="229.43567"
         cy="277.22958"
         r="0.39687499" />
    </g>
    <g
       id="g523"
       transform="translate(-8.7024459,-2.2708603)">
      <path
         id="path171"
         style="fill:#000000;stroke:#000000;stroke-width:0.264999;stroke-linecap:round"
         d="m 122.83302,186.04667 c 0.57109,6.6654 -0.70937,13.29428 -0.63791,19.96731 -0.48078,11.96353 -0.22135,23.93242 0.44386,35.88241 -0.90168,1.91115 1.1594,5.34885 0.9597,1.54337 -1.00729,-12.9346 -1.28701,-25.92092 -0.68225,-38.88525 0.01,-5.19463 0.69007,-10.36085 0.71984,-15.5419 -0.13156,-0.94941 -0.23602,-2.26767 -0.80324,-2.96594 z" />
      <path
         id="path173"
         style="fill:#000000;stroke:#000000;stroke-width:0.264999;stroke-linecap:round"
         d="m 119.38697,242.53839 c 8.14178,0.63341 16.26639,-0.96551 24.42682,-0.51305 15.38089,0.23357 30.76476,-0.45258 46.13789,0.0397 2.10052,0.41315 10.83816,0.5755 4.69416,-0.41 -17.02728,-0.60924 -34.07754,0.22633 -51.11626,-0.0661 -8.05707,-0.0674 -16.16007,0.59971 -24.14261,0.94945 z" />
      <path
         id="path175"
         style="fill:#000000;stroke:#000000;stroke-width:0.264999;stroke-linecap:round"
         d="m 120.54819,199.38896 c 1.28992,-0.0804 2.5741,-0.32481 3.87056,-0.24588 0.31646,-0.12308 1.15265,0.15534 1.08844,-0.33041 -0.23649,-0.29466 -0.59761,-0.5962 -1.00501,-0.47738 -0.53993,0.11307 -1.0974,0.0217 -1.64134,0.11937 -0.93973,0.1112 -1.87778,0.27053 -2.8264,0.27746 0.0908,0.27481 0.3664,0.41938 0.51375,0.65684 z" />
      <path
         id="path177"
         style="fill:#000000;stroke:#000000;stroke-width:0.264999;stroke-linecap:round"
         d="m 120.08897,231.71549 c 0.87922,-0.12398 1.76995,-0.0677 2.63228,0.13534 0.52049,-0.001 1.20317,0.2397 1.62748,-0.12004 -0.0394,-0.62309 -0.96048,-0.22365 -1.38879,-0.3659 -0.77227,-0.13263 -1.55909,-0.17996 -2.33554,-0.0673 -0.30252,-0.01 -1.19051,-0.12167 -0.60871,0.31671 l 0.0733,0.1012 z" />
      <path
         id="path179"
         style="fill:#000000;stroke:#000000;stroke-width:0.264999;stroke-linecap:round"
         d="m 119.91679,220.73458 c 1.49061,-0.11194 2.97522,0.19245 4.46821,0.13565 0.48918,0.0605 2.09791,-0.003 1.04274,-0.54437 -0.8328,0.007 -1.67001,0.0967 -2.50578,0.009 -1.10763,-0.0616 -2.22231,-0.16146 -3.32903,-0.0316 -0.0421,0.20879 0.2615,0.26236 0.32386,0.43137 z" />
      <path
         id="path181"
         style="fill:#000000;stroke:#000000;stroke-width:0.264999;stroke-linecap:round"
         d="m 119.45054,209.15959 c 1.49212,0.0173 2.894,0.66384 4.38933,0.63952 0.32409,0.0801 1.58213,0.0167 0.83911,-0.43145 -0.59104,-0.10974 -1.22248,0.0247 -1.83084,-0.0934 -0.9686,-0.16817 -1.93888,-0.41792 -2.9169,-0.47065 -0.20238,0.0408 -0.37928,0.17766 -0.4807,0.35595 z" />
      <path
         id="path183"
         style="fill:#000000;stroke:#000000;stroke-width:0.264999;stroke-linecap:round"
         d="m 133.71744,240.42645 c 0.0759,0.84819 0.0768,1.70166 0.15565,2.54939 0.11528,0.42163 -0.2689,1.234 0.3145,1.34787 0.53493,-0.13987 0.24244,-0.79272 0.29373,-1.18363 -0.0166,-0.64345 -0.0868,-1.28527 -0.20344,-1.91716 0.0594,-0.4242 0.10807,-0.98253 -0.49341,-0.79632 l -0.0667,-1.5e-4 z" />
      <path
         id="path185"
         style="fill:#000000;stroke:#000000;stroke-width:0.264999;stroke-linecap:round"
         d="m 144.73623,239.95272 c 0.17308,1.48989 0.0741,2.99756 0.01,4.48841 0.17138,0.60741 0.95324,0.0755 0.65279,-0.40701 -0.004,-1.33373 -0.0652,-2.67244 -0.0947,-4.00204 -0.12309,-0.19536 -0.38983,-0.0273 -0.56773,-0.0794 z" />
      <path
         id="path187"
         style="fill:#000000;stroke:#000000;stroke-width:0.264999;stroke-linecap:round"
         d="m 155.99856,239.88874 c -0.007,0.92458 -0.13093,1.8518 0.002,2.77341 0.11518,0.41066 -0.14671,1.26021 0.44711,1.30691 0.42093,-0.42721 -0.0453,-1.18967 0.0233,-1.74606 -0.0617,-0.74238 -0.11626,-1.51184 0.0373,-2.23958 -0.11019,-0.1564 -0.35427,-0.0386 -0.51011,-0.0947 z" />
      <path
         id="path189"
         style="fill:#000000;stroke:#000000;stroke-width:0.264999;stroke-linecap:round"
         d="m 166.21399,239.94684 c 0.0995,0.90165 -0.0526,1.81345 0.0863,2.71268 0.10298,0.59862 -0.21084,1.31083 0.1538,1.82754 0.44999,0.57812 0.74375,-0.50291 0.62287,-0.88578 0.0133,-0.78305 -0.1011,-1.55898 -0.20583,-2.33407 -0.16389,-0.40487 0.16158,-1.12472 -0.16314,-1.31907 -0.16456,-0.0161 -0.3296,0.0182 -0.49403,-0.001 z" />
      <path
         id="path191"
         style="fill:#000000;stroke:#000000;stroke-width:0.264999;stroke-linecap:round"
         d="m 177.33951,239.62888 c 0.25078,1.36316 0.21639,2.76287 0.0503,4.13389 0.13136,0.61915 0.98446,0.21511 0.75507,-0.32797 0.0223,-0.77568 0.0968,-1.55699 -0.0679,-2.32374 -0.0848,-0.46869 -0.13199,-0.9471 -0.1358,-1.41859 -0.13671,-0.19176 -0.40816,-0.0348 -0.60169,-0.0636 z" />
      <path
         id="path193"
         style="fill:#000000;stroke:#000000;stroke-width:0.264999;stroke-linecap:round"
         d="m 187.75465,240.12829 c 0.29097,1.18052 0.22847,2.40843 0.29692,3.61166 -0.21331,0.42195 0.01,1.50151 0.57961,0.88332 0.10641,-0.63371 -0.0546,-1.29569 -0.0165,-1.94487 -0.0434,-0.87616 -0.15084,-1.74727 -0.2477,-2.61864 -0.20408,0.0229 -0.40833,0.045 -0.6123,0.0685 z" />
      <path
         id="path195"
         style="fill:#1a1a1a;stroke:#1a1a1a;stroke-width:0.264999;stroke-linecap:round"
         d="m 133.11216,233.81996 c 0.0361,0.56174 0.42662,1.22109 1.05301,1.2098 0.65546,-0.0739 0.95296,-0.81359 0.93031,-1.3954 -0.0461,-0.62512 -0.83811,-0.72947 -1.27238,-0.45223 -0.35013,0.17083 -0.24364,0.82934 0.18723,0.61967 0.19251,0.0311 0.63996,-0.0351 0.23113,-0.051 -0.0618,-0.31574 0.46769,0.19939 0.22173,0.40568 -0.15216,0.35386 -0.50154,0.57734 -0.60748,0.0835 0.019,-0.42622 -0.43388,-0.45175 -0.74355,-0.42007 z" />
      <path
         id="path197"
         style="fill:#1a1a1a;stroke:#1a1a1a;stroke-width:0.264999;stroke-linecap:round"
         d="m 143.31219,224.50497 c 0.36844,0.55412 0.81467,1.21458 1.5504,1.24476 0.63798,0.11408 1.20362,-0.47009 1.13366,-1.10075 0.0856,-0.62886 -0.70172,-1.35733 -1.20428,-0.74016 -0.25574,0.35121 -0.85764,1.17096 -0.1483,1.35777 0.48081,-0.046 0.40493,-0.71778 0.70632,-1.00633 -0.42048,-0.12348 0.26921,0.50352 -0.0929,0.71785 -0.42505,0.66796 -0.96761,-0.1988 -1.26737,-0.53656 -0.19888,-0.20745 -0.45075,0.0715 -0.67752,0.0634 z" />
      <path
         id="path199"
         style="fill:#1a1a1a;stroke:#1a1a1a;stroke-width:0.264999;stroke-linecap:round"
         d="m 155.38927,218.49378 c 0.38679,0.41618 1.18132,0.77915 1.6024,0.21518 0.43571,-0.38649 0.45769,-1.20063 -0.17846,-1.39316 -0.53262,-0.20803 -1.29433,-0.21522 -1.6198,0.34205 -0.26809,0.38499 -0.27159,1.10551 0.25097,1.27164 0.37569,0.19323 0.80282,-0.15363 0.48119,-0.49802 -0.0354,-0.25806 0.33218,-0.56267 0.16424,-0.53735 0.53018,-0.15988 0.51964,0.7905 0.0725,0.65409 -0.23804,-0.11867 -0.54743,-0.31553 -0.773,-0.0544 z" />
      <path
         id="path201"
         style="fill:#1a1a1a;stroke:#1a1a1a;stroke-width:0.264999;stroke-linecap:round"
         d="m 166.19143,233.6986 c -0.41363,0.51232 -0.39106,1.25697 -0.12082,1.82988 0.48709,0.4343 1.30886,0.24077 1.59866,-0.33179 0.33115,-0.4694 0.48091,-1.41439 -0.18603,-1.65846 -0.51171,-0.20592 -0.99011,0.41941 -0.45161,0.73978 0.32494,0.36862 -0.2967,0.71328 -0.34699,0.87928 0.30505,0.11437 -0.23468,-0.29794 -0.0663,-0.52319 0.11609,-0.36954 0.33186,-0.82649 -0.25253,-0.84809 l -0.10006,-0.0381 -0.0743,-0.0494 z" />
      <path
         id="path203"
         style="fill:#1a1a1a;stroke:#1a1a1a;stroke-width:0.264999;stroke-linecap:round"
         d="m 177.44358,228.67059 c -0.65027,0.17438 -1.01681,1.0647 -0.38155,1.4989 0.63624,0.49574 1.77111,0.22999 1.98596,-0.59381 0.18029,-0.52752 0.0202,-1.2197 -0.51291,-1.4762 -0.46278,-0.0125 -1.27617,-0.27694 -1.43466,0.33364 -0.0285,0.44856 0.99519,0.38988 0.91602,0.31863 -0.62603,-0.0641 0.31798,0.0269 0.17895,0.40613 0.0421,0.31487 -0.4376,0.62613 -0.24685,0.64046 -0.54685,-0.0144 -0.269,-0.51389 0.0806,-0.61027 -0.009,-0.26134 -0.44959,-0.30746 -0.58554,-0.51748 z" />
      <path
         id="path205"
         style="fill:#1a1a1a;stroke:#1a1a1a;stroke-width:0.264999;stroke-linecap:round"
         d="m 188.27194,217.419 c -0.67883,0.0365 -1.11278,0.83861 -0.77084,1.42736 0.36683,0.632 1.41004,0.56337 1.75484,-0.0618 0.34024,-0.45053 0.41971,-1.23888 -0.11529,-1.57519 -0.52194,-0.29012 -1.02569,0.42072 -0.60787,0.83449 -0.0262,0.29479 -0.44704,0.72292 -0.11178,0.56765 -0.5248,-0.37381 0.51126,-0.42388 0.35581,-0.64242 -0.1693,-0.18243 -0.3375,-0.36593 -0.50487,-0.55009 z" />
      <path
         id="path209"
         style="fill:#333333;stroke:#333333;stroke-width:0.264999;stroke-linecap:round"
         d="m 125.796,239.80717 c 4.63653,-3.58448 9.19925,-7.2456 13.61249,-11.10369 4.9774,-4.03563 10.22976,-8.13282 16.44004,-10.01422 3.87962,0.12082 5.17619,4.5011 6.73859,7.34646 1.99417,2.84595 2.29619,6.794 5.25135,8.90916 3.89486,2.28783 7.79949,-1.31919 9.7561,-4.48712 3.4705,-5.54219 10.74967,-7.50451 13.31516,-13.72531 0.90045,-1.58054 3.77495,-8.61872 1.02131,-3.68847 -1.94398,3.47592 -3.55825,7.3976 -7.05696,9.63356 -3.87065,2.7712 -6.99435,6.29546 -9.8458,10.04392 -2.16847,3.1736 -7.52086,3.38199 -8.93143,-0.56859 -1.60177,-3.8479 -3.67245,-7.49056 -5.7613,-11.09284 -1.56153,-3.36944 -5.82031,-3.23589 -8.48581,-1.3668 -8.86497,4.54562 -15.63074,12.07939 -23.53037,17.97222 -0.73948,0.75568 -2.24815,1.02154 -2.52337,2.14172 z" />
    </g>
  </g>
</svg>
