<?xml version="1.0" encoding="UTF-8" standalone="no"?>
<svg
   xmlns:dc="http://purl.org/dc/elements/1.1/"
   xmlns:cc="http://creativecommons.org/ns#"
   xmlns:rdf="http://www.w3.org/1999/02/22-rdf-syntax-ns#"
   xmlns:svg="http://www.w3.org/2000/svg"
   xmlns="http://www.w3.org/2000/svg"
   xmlns:sodipodi="http://sodipodi.sourceforge.net/DTD/sodipodi-0.dtd"
   xmlns:inkscape="http://www.inkscape.org/namespaces/inkscape"
   width="2048"
   height="2048"
   viewBox="0 0 541.86666 541.86668"
   version="1.1"
   id="svg8"
   sodipodi:docname="cover-some.svg"
   inkscape:version="1.0.1 (3bc2e813f5, 2020-09-07)">
  <sodipodi:namedview
     pagecolor="#ffffff"
     bordercolor="#666666"
     borderopacity="1"
     objecttolerance="10"
     gridtolerance="10"
     guidetolerance="10"
     inkscape:pageopacity="0"
     inkscape:pageshadow="2"
     inkscape:window-width="1920"
     inkscape:window-height="1061"
     id="namedview31"
     showgrid="false"
     inkscape:zoom="0.35"
     inkscape:cx="1024"
     inkscape:cy="1024"
     inkscape:window-x="0"
     inkscape:window-y="19"
     inkscape:window-maximized="0"
     inkscape:current-layer="svg8" />
  <defs
     id="defs2" />
  <metadata
     id="metadata5">
    <rdf:RDF>
      <cc:Work
         rdf:about="">
        <dc:format>image/svg+xml</dc:format>
        <dc:type
           rdf:resource="http://purl.org/dc/dcmitype/StillImage" />
        <dc:title></dc:title>
      </cc:Work>
    </rdf:RDF>
  </metadata>
  <path
     id="path1225"
     d="m 113.53575,79.76981 c -3.10687,2.43992 -3.35391,10.55233 -5.42603,15.13086 -1.95838,2.96931 -5.38407,14.35378 -9.193236,7.4414 -4.350031,-4.72343 -1.644309,-14.41044 -7.146851,-17.08422 -4.707972,0.16002 -1.495142,7.20286 -3.007569,10.604 -1.046612,7.16869 -3.542565,14.66136 -3.65869,22.47925 -0.706845,7.67566 8.42264,2.16915 3.038573,-1.0542 0.502023,-7.72532 3.281161,-15.79442 4.061769,-23.59546 1.853359,4.85935 2.152081,10.75189 6.511229,14.10766 5.737165,4.35739 8.633385,-5.27817 11.038085,-9.11572 -1.04533,5.39815 -1.74364,11.48026 -1.79834,16.86719 -0.87254,4.36853 3.52353,12.73463 8.03052,8.61963 -0.0789,-1.29618 -1.55574,-1.27362 -2.41846,-1.70532 -5.06073,-6.54327 -1.34686,-16.28066 -0.5271,-23.84351 -0.69767,-6.08799 5.04082,-14.27915 0.4961,-18.85156 z m 153.39372,7.24865 c -0.49355,0.0223 -1.1267,0.65289 -1.91201,2.17713 0.14412,9.39705 -5.12042,17.66772 -3.48041,26.85107 0.75209,7.06632 10.94592,8.15715 15.99901,3.31763 3.09295,-2.26575 7.45945,-4.1334 10.35648,-6.92309 0.32869,3.68623 2.06055,7.13576 6.19032,6.89208 5.12419,1.97625 12.43143,-13.1134 5.82909,-8.35194 -0.81354,5.25235 -10.0298,6.70503 -8.5576,-0.39171 -1.06609,-5.85955 7.78483,-3.12904 11.22413,-5.48803 2.11378,-5.23019 -7.23421,-0.77111 -10.13892,-1.67432 -1.01089,-7.88234 11.54137,-4.46866 15.78198,-7.00733 -3.01821,-2.73837 -10.84906,-1.49643 -15.19288,-0.15503 -5.31313,1.21469 -4.19746,6.57639 -4.71289,10.94507 -0.13653,0.51139 -0.24583,1.06514 -0.32711,1.64228 -1.43438,0.77404 -2.83125,2.75581 -4.22042,3.28765 -5.23123,2.15945 -10.22437,8.58625 -16.61914,6.01514 -5.97896,-5.72924 -0.054,-14.26943 0.27906,-21.11499 1.24423,-2.4232 1.26402,-10.10115 -0.49869,-10.02161 z m -85.43198,4.99349 c -0.62998,0.0506 -1.05614,0.99514 -0.86507,3.38481 2.69756,8.75429 -11.06243,8.05731 -7.34839,-0.71313 -5.18349,-7.54114 -0.48697,9.67674 -5.95312,9.45678 -5.94937,1.31682 -2.92883,5.73823 1.20923,2.57349 0.72451,1.47887 1.49458,13.00567 6.41821,7.53442 -9.34334,-5.09378 8.20998,-17.3196 6.10815,-5.79809 -0.0789,3.6546 2.50975,12.82995 4.65088,5.55005 -1.13637,-4.09974 -2.70259,-9.78436 1.11621,-12.34034 -0.86357,-1.57843 -2.89309,-0.79553 -2.51147,-3.22461 0.70263,-2.59668 -1.36154,-6.28708 -2.69596,-6.42183 -0.0437,-0.004 -0.0867,-0.004 -0.12867,-0.002 z m -51.67643,0.34313 c -0.4632,0.0169 -0.98287,0.16541 -1.56787,0.46819 -2.76815,7.53206 -6.52565,15.37674 -11.84424,21.146 -2.56518,6.0353 4.36241,2.06479 5.45703,-1.42627 3.66021,-0.26019 7.71357,-1.02387 11.19312,-1.33325 1.07335,4.36921 6.2311,5.65774 9.0227,2.6665 l -0.40307,-0.5271 c -6.81497,-0.58231 0.90186,-4.15038 -5.73608,-4.89892 -2.42281,-4.11534 -1.64402,-16.25872 -6.12159,-16.09515 z m 189.07371,0 c -0.46318,0.0169 -0.98279,0.16541 -1.56786,0.46819 -2.76755,7.53206 -6.52563,15.37674 -11.84424,21.146 -2.56516,6.0353 4.3624,2.06479 5.45704,-1.42627 3.66019,-0.26019 7.71358,-1.02387 11.19311,-1.33325 1.07337,4.36921 6.2311,5.65774 9.02272,2.6665 l -0.40309,-0.5271 c -6.81496,-0.58231 0.90135,-4.15038 -5.73606,-4.89892 -2.42282,-4.11534 -1.64405,-16.25872 -6.12162,-16.09515 z m 116.22651,0.48318 c -4.7658,-0.052 -8.89619,6.96782 -11.09286,10.74405 -3.41326,5.60854 3.26871,12.44464 9.17773,10.94507 6.05179,-2.89801 16.18287,8.44626 10.13891,-3.22461 -4.82592,-5.1338 -0.73527,-10.72309 5.82912,-10.51099 2.87051,-1.23948 5.44401,0.0565 7.59642,-1.79834 -0.52911,-1.06406 0.90334,-2.85441 -2.35646,-1.89136 -7.94342,0.84932 -16.01319,3.87025 -23.13035,6.20117 -1.82472,7.88314 11.38275,-4.9565 7.78246,5.92212 0.92747,4.78245 -13.9822,3.95568 -12.55737,-2.79052 0.42834,-7.60657 8.45871,-8.49651 11.31713,-12.77442 -0.91789,-0.56017 -1.82218,-0.81253 -2.70473,-0.82217 z m -85.60099,1.29398 c -3.35385,0.0347 -7.03931,0.74578 -9.29036,1.51257 -3.14754,0.47214 -9.05349,1.52096 -9.70484,5.36401 1.90442,2.46038 6.29465,-3.02458 4.65087,2.54248 -1.38681,4.01537 1.08784,18.51027 5.27101,11.84424 -3.55958,-3.96735 -2.04984,-10.57713 -1.64333,-15.56494 5.10437,-2.71308 20.68602,-4.11994 10.72803,3.81372 -10.31933,3.36698 -6.56926,14.79538 3.37963,10.82104 3.05618,-0.95518 6.61157,-1.06407 10.01128,-1.40818 -0.53073,4.92341 0.20619,9.01074 4.92323,5.68699 -1.76405,-1.66479 -1.89344,-3.89465 -1.51154,-6.16706 1.56843,-0.30947 3.0456,-0.76448 4.35528,-1.49035 2.78982,3.91204 6.57106,9.02274 10.89184,5.89008 6.0207,-5.72606 -1.40681,-15.26201 2.63552,-21.20801 l -0.43411,-0.43408 c -7.78954,-4.42829 -1.95527,7.59793 -2.91454,11.53418 2.76172,13.4179 -9.45769,3.4474 -10.20093,-3.90674 -0.003,-8.57638 -6.91041,-9.53946 -5.55006,0.37207 -0.50742,1.38053 -1.25206,4.0349 -1.76525,6.82336 -3.47316,0.37028 -7.05048,1.18653 -10.31668,1.23816 -11.92025,2.97262 -1.89617,-6.23633 2.32542,-8.92968 4.41931,-6.57116 -0.25069,-8.39176 -5.84047,-8.33386 z m -131.1465,0.23823 c -3.4008,0.0966 0.62645,9.17725 -0.18294,12.49846 2.76173,13.4179 -9.45768,3.4474 -10.20093,-3.90674 -0.001,-8.57638 -6.91101,-9.53946 -5.55004,0.37207 -1.59538,4.33544 -5.53011,21.22921 2.72851,15.40991 -3.14082,-2.96413 -1.09974,-7.71967 -0.21704,-11.31714 2.63263,1.4967 7.73711,14.05619 13.95264,9.54981 6.02069,-5.72606 -1.40683,-15.26201 2.6355,-21.20801 l -0.43408,-0.43408 c -1.21713,-0.69192 -2.10184,-0.98218 -2.73162,-0.96428 z m 198.4995,0 c -3.4008,0.0966 0.62645,9.17725 -0.18293,12.49846 2.76174,13.4179 -9.45769,3.4474 -10.20094,-3.90674 -0.003,-8.57638 -6.91099,-9.53946 -5.55003,0.37207 -1.59538,4.33544 -5.53011,21.22921 2.72852,15.40991 -3.14082,-2.96413 -1.09974,-7.71967 -0.21704,-11.31714 2.63263,1.4967 7.73711,14.05619 13.95262,9.54981 6.0207,-5.72606 -1.40682,-15.26201 2.63551,-21.20801 l -0.43407,-0.43408 c -1.21714,-0.69192 -2.10185,-0.98218 -2.73164,-0.96428 z m -177.31372,0.41599 c -3.17287,8e-4 -6.71935,0.72393 -9.16274,1.47846 -5.31313,1.21469 -4.19744,6.57639 -4.71289,10.94507 -1.22668,4.59518 -0.40797,12.48765 5.76709,12.12329 5.12418,1.97625 12.43142,-13.1134 5.8291,-8.35194 -0.81354,5.25235 -10.02982,6.70503 -8.55762,-0.39171 -1.06609,-5.85955 7.78485,-3.12904 11.22412,-5.48803 2.11378,-5.23019 -7.2336,-0.77111 -10.13891,-1.67432 -1.01087,-7.88234 11.54139,-4.46866 15.78198,-7.00733 -1.32047,-1.19803 -3.56234,-1.63418 -6.03013,-1.63349 z m -82.87039,0.53899 c -3.43396,-0.0871 -7.43258,1.68465 -9.96683,3.23391 -6.45599,2.83782 -4.89186,13.46911 2.01538,14.78979 5.47465,0.76859 13.90896,2.16057 17.67334,-2.79052 -4.37318,0.38616 -8.68801,2.51388 -13.36353,1.02319 -4.97616,0.36787 -9.87105,-6.24852 -5.11596,-9.98389 5.84565,-6.94941 10.90029,2.61036 13.89062,-3.65869 -1.21557,-1.84019 -3.07264,-2.56155 -5.13302,-2.61379 z m 36.33318,1.46812 c -0.41945,-0.0223 -0.76373,1.02789 -0.8971,3.75016 -1.53197,3.53593 -1.21271,15.57514 4.71289,11.34815 -0.97842,-0.24705 -0.33283,-3.12129 -1.67431,-2.13941 1.05198,-3.17399 -0.88311,-12.89209 -2.14148,-12.9589 z m 198.49951,0 c -0.41945,-0.0223 -0.76372,1.02789 -0.8971,3.75016 -1.53204,3.53593 -1.21277,15.57514 4.71289,11.34815 -0.97848,-0.24705 -0.33282,-3.12129 -1.67431,-2.13941 1.05198,-3.17399 -0.88313,-12.89209 -2.14148,-12.9589 z m -262.48165,2.21279 c 1.51209,-0.0766 2.42186,6.13761 3.33675,9.90896 -3.77736,0.72514 -12.17514,1.94291 -5.8291,-5.08497 0.99315,-3.45465 1.80504,-4.78916 2.49235,-4.82399 z m 189.07374,0 c 1.51207,-0.0766 2.42184,6.13761 3.33674,9.90896 -3.77735,0.72514 -12.17514,1.94291 -5.82911,-5.08497 0.99316,-3.45465 1.80504,-4.78916 2.49237,-4.82399 z m 49.51479,8.42067 c 0.69514,0.39519 1.56763,1.56853 2.58175,2.98845 -1.05265,-0.27286 -2.15043,-0.40125 -3.27575,-0.4315 0.2422,-0.88673 0.49675,-1.75297 0.694,-2.55695 z"
     style="fill:#2ad4ff;fill-opacity:1;stroke:none;stroke-opacity:1" />
  <path
     id="text1110"
     d="m 258.51977,20.58272 c -0.39899,-0.046 -1.12864,1.35826 -2.35075,5.14387 -3.60201,6.39972 -1.27145,22.54798 8.61963,18.01441 9.60768,-11.82701 4.38933,3.19387 4.40282,9.95288 -2.46636,11.48646 12.05968,6.69894 3.81373,3.13159 -2.34616,-10.2498 2.9101,-20.35015 3.47266,-30.44775 -2.77842,-9.98134 -4.11557,2.52365 -4.7439,5.51904 -2.06939,7.48253 -15.59258,13.31427 -13.95264,1.92236 0.61621,-3.5287 1.7581,-13.11879 0.73845,-13.2364 z m -139.18218,2.93574 c -0.49356,0.0223 -1.12673,0.65289 -1.91204,2.17713 0.14412,9.39705 -5.1204,17.66772 -3.48041,26.85107 0.75216,7.06632 10.94594,8.15715 15.99901,3.31763 3.09295,-2.2658 7.45948,-4.1334 10.35648,-6.92309 0.32872,3.68623 2.06055,7.13576 6.19032,6.89208 5.12419,1.97625 12.43142,-13.1134 5.82912,-8.35194 -0.81357,5.25235 -10.02983,6.70503 -8.55763,-0.39171 -1.06609,-5.85955 7.78486,-3.12899 11.22412,-5.48803 2.11379,-5.23018 -7.2336,-0.77111 -10.13891,-1.67432 -1.01089,-7.88234 11.54137,-4.4686 15.78197,-7.00732 -3.0182,-2.73838 -10.84905,-1.49644 -15.19287,-0.15503 -5.31313,1.21468 -4.19746,6.57633 -4.71289,10.94506 -0.13648,0.51124 -0.24583,1.06481 -0.32711,1.64176 -1.4346,0.77382 -2.83107,2.75625 -4.22042,3.28818 -5.23124,2.15944 -10.22437,8.58624 -16.61914,6.01513 -5.979,-5.72924 -0.054,-14.26943 0.27906,-21.11499 1.24425,-2.42325 1.26396,-10.10115 -0.49866,-10.02161 z m 51.96477,5.33662 c -0.46321,0.0169 -0.98229,0.16536 -1.56734,0.46819 -2.76815,7.53206 -6.52566,15.37674 -11.84426,21.146 -2.56518,6.0353 4.36243,2.06485 5.45703,-1.42627 3.6602,-0.26019 7.71359,-1.02387 11.19312,-1.33325 1.07336,4.36921 6.23113,5.65774 9.02272,2.6665 l -0.40307,-0.5271 c -6.81498,-0.58231 0.90191,-4.15038 -5.73609,-4.89892 -2.42281,-4.1154 -1.64454,-16.25872 -6.12211,-16.09515 z m 123.47929,1.46452 c -3.96218,-0.0889 -8.87634,3.97993 -11.67889,6.60011 -6.04255,3.77395 -5.36922,16.94807 3.84474,14.47973 8.47138,-0.82839 12.79583,-8.98853 12.83642,-16.71215 -1.11236,-3.13391 -2.92685,-4.32115 -5.00227,-4.36769 z m 78.65153,0 c -3.96217,-0.0889 -8.87635,3.97993 -11.67887,6.60011 -6.04255,3.77395 -5.36922,16.94807 3.84471,14.47973 8.47141,-0.82839 12.79583,-8.98853 12.83642,-16.71215 -1.11236,-3.13391 -2.92685,-4.32115 -5.00226,-4.36769 z m -171.5048,0.31264 c -3.35385,0.0347 -7.03873,0.74578 -9.29036,1.51257 -3.14751,0.47214 -9.05352,1.52091 -9.70484,5.36401 1.90439,2.46038 6.29465,-3.02458 4.65087,2.54248 -1.38681,4.01537 1.08784,18.51027 5.271,11.84424 -3.55954,-3.9674 -2.0498,-10.57713 -1.64332,-15.56494 5.10436,-2.71308 20.68602,-4.11994 10.72803,3.81372 -10.31933,3.36698 -6.56926,14.79538 3.37966,10.82104 3.05599,-0.95513 6.61119,-1.06411 10.01074,-1.40818 -0.53072,4.92341 0.20672,9.01079 4.92374,5.68699 -1.76403,-1.66479 -1.89344,-3.89464 -1.51154,-6.16706 1.56856,-0.30949 3.04552,-0.76438 4.35528,-1.49035 2.78982,3.91204 6.57106,9.02273 10.89184,5.89008 6.0207,-5.72606 -1.40682,-15.26201 2.63551,-21.20801 l -0.4341,-0.43408 c -7.78957,-4.42829 -1.95527,7.59793 -2.91454,11.53418 2.76175,13.4179 -9.45769,3.4474 -10.20093,-3.90674 -0.003,-8.57638 -6.911,-9.53946 -5.55003,0.37207 -0.50803,1.38053 -1.25259,4.0349 -1.76581,6.82336 -3.47313,0.37029 -7.04995,1.18653 -10.31615,1.23816 -11.92022,2.97262 -1.89672,-6.23633 2.32545,-8.92968 4.4193,-6.57116 -0.25072,-8.39176 -5.8405,-8.33386 z m 147.29386,0.14831 c -1.80189,-0.003 -4.76067,1.34939 -5.97948,2.98896 -5.35,2.90224 -8.03836,12.36567 0.72451,12.51397 8.3988,-0.30786 10.36921,6.41402 -0.31006,5.55005 -2.4738,6.32832 12.2419,2.28307 11.99927,-3.10059 -0.82121,-6.07182 -8.28429,-4.64794 -12.49537,-5.79809 -4.50053,-2.64513 3.06345,-8.35158 6.13916,-8.24756 2.20138,-2.84627 1.51188,-3.90409 -0.078,-3.90674 z m 56.91849,0.031 c -0.43961,-0.001 -0.9421,0.0776 -1.51567,0.24805 -1.10294,5.41489 -9.9687,17.81227 -13.70459,8.21655 1.13226,-7.00189 -6.80284,-12.29582 -7.4104,-2.79052 -0.93387,5.46982 -3.00289,12.47847 -0.093,16.9602 5.70219,0.66765 1.09855,-4.15868 1.92236,-7.4414 1.15347,-8.10048 1.0732,-9.91939 4.68188,-0.58911 6.13135,3.50961 12.22917,-3.13509 15.03783,-8.03052 -1.95784,3.31602 -0.45659,20.62722 6.66626,11.34814 -1.78719,-0.89623 -4.81087,0.63017 -3.7827,-2.79053 -0.21894,-3.91578 3.38534,-15.1146 -1.80197,-15.13086 z m 21.55838,0.47491 c -3.17288,8e-4 -6.71936,0.72393 -9.16276,1.47847 -5.31312,1.21468 -4.19745,6.57633 -4.71289,10.94506 -1.22669,4.59518 -0.40796,12.48765 5.7671,12.12329 5.12418,1.97625 12.43142,-13.1134 5.82911,-8.35194 -0.81356,5.25235 -10.02982,6.70503 -8.55763,-0.39171 -1.06608,-5.85955 7.78486,-3.12899 11.22413,-5.48803 2.11378,-5.23018 -7.2336,-0.77111 -10.13891,-1.67432 -1.0109,-7.88234 11.54136,-4.4686 15.78197,-7.00732 -1.32046,-1.19804 -3.56232,-1.63419 -6.03012,-1.6335 z M 306.8176,34.34829 c -0.50686,0.0173 -1.25261,1.06729 -2.17609,3.81165 -4.78859,4.14015 -1.03717,18.07122 5.64306,11.00708 5.70563,-10.64964 5.9296,4.582 12.27833,-1.55029 -2.53722,-1.38221 -3.31866,-3.08378 -3.00757,-6.3562 0.78936,-11.18676 -6.42027,-4.37832 -7.31739,2.29443 -2.03846,3.42176 -8.18637,5.92379 -6.20118,-1.36425 1.8541,-2.91909 1.89593,-7.88035 0.78084,-7.84242 z m -13.67874,0.4284 c 1.20456,-2.7e-4 2.39575,0.46497 3.54449,1.5229 -0.43352,2.41821 -0.66861,5.39967 -2.32545,7.3794 -5.50783,9.65653 -18.06038,1.4675 -7.22437,-5.61206 1.95231,-1.99623 3.99769,-3.28973 6.00533,-3.29024 z m 78.65152,0 c 1.20457,-2.7e-4 2.39575,0.46497 3.54449,1.5229 -0.43352,2.41821 -0.6686,5.39967 -2.32545,7.3794 -5.50783,9.65653 -18.06035,1.4675 -7.22437,-5.61206 1.95231,-1.99623 3.9977,-3.28973 6.00533,-3.29024 z m -201.26886,0.72967 c 1.5121,-0.0766 2.42237,6.13761 3.33727,9.90896 -3.77735,0.72514 -12.17512,1.94291 -5.82909,-5.08497 0.99314,-3.45465 1.80451,-4.78916 2.49182,-4.82399 z m 49.51534,8.42067 c 0.69509,0.39519 1.56652,1.56856 2.58123,2.98845 -1.05307,-0.27277 -2.15011,-0.40125 -3.27526,-0.4315 0.2422,-0.88673 0.49676,-1.75297 0.69403,-2.55695 z m -10.3043,104.02466 c -6.37305,1.39089 -9.33836,8.17916 -12.1543,13.42554 -3.94718,8.40291 -11.51167,23.16395 0.4031,28.43237 7.70953,1.0455 15.45444,-6.21402 17.67334,-12.92944 0.2726,-5.48688 3.2221,-6.32695 8.71263,-7.81348 0.75136,-0.39874 1.6711,-0.59218 2.65514,-0.70796 -0.65029,5.13179 1.74162,16.60735 5.55109,10.53682 -2.50002,-2.78644 -2.49846,-6.87517 -2.13579,-10.79107 2.36955,-0.18935 4.52083,-0.65395 5.2157,-2.91352 -1.26132,-1.42856 -2.96598,-1.5313 -4.78835,-1.15652 0.0228,-0.23662 0.0464,-0.4737 0.0651,-0.70383 5.10436,-2.71308 20.68602,-4.11994 10.72803,3.81372 -10.31933,3.36698 -6.56926,14.79537 3.37963,10.82104 3.13259,-0.97907 6.78981,-1.06894 10.26604,-1.43454 0.45628,3.45541 2.21716,6.53309 6.12574,6.30246 5.12419,1.97625 12.43142,-13.11341 5.82909,-8.35194 -0.72766,4.6978 -8.17623,6.35465 -8.68783,1.57458 1.76144,-0.35622 3.40587,-0.89927 4.82243,-1.81126 -1.49913,-0.55186 -3.10507,-0.75784 -4.76663,-0.76636 -0.34126,-5.04993 7.98631,-2.60481 11.29853,-4.87671 2.11381,-5.23018 -7.2336,-0.7711 -10.13892,-1.67431 -1.01086,-7.88234 11.54139,-4.4686 15.782,-7.00733 -3.0182,-2.73837 -10.84908,-1.49643 -15.19287,-0.15503 -5.31315,1.21469 -4.19746,6.57633 -4.71289,10.94507 -0.23921,0.89612 -0.39929,1.91845 -0.45837,2.97966 -3.38709,0.38262 -6.86176,1.15584 -10.04229,1.20613 -11.92022,2.97262 -1.89674,-6.23633 2.32545,-8.92968 7.07086,-10.51385 -9.12651,-8.86605 -15.13086,-6.82129 -3.1475,0.47214 -9.05351,1.5209 -9.70483,5.36401 1.55805,2.01292 4.77787,-1.28879 4.99814,0.49093 -1.41997,0.49595 -2.80366,0.98766 -3.99564,1.09037 -6.8149,4.54476 -27.00543,1.25693 -25.92088,10.20093 5.73127,-0.24278 11.8128,-3.27979 17.23924,-4.12378 -1.08243,5.71385 -7.39507,13.58002 -14.63476,14.3247 -9.41877,-2.7956 -4.01254,-14.17347 -1.61229,-20.46386 -0.47353,-8.96179 15.04931,-10.60697 11.00706,-18.07642 z m 144.92139,0 c -6.37304,1.39089 -9.33836,8.17916 -12.1543,13.42554 -3.94718,8.40291 -11.51167,23.16395 0.4031,28.43237 7.70951,1.0455 15.45444,-6.21402 17.67332,-12.92944 0.24937,-5.01917 2.76439,-6.15291 7.38973,-7.44709 -1.15387,4.95578 1.14197,10.66502 7.48276,8.96637 8.4714,-0.82839 12.79581,-8.98853 12.83642,-16.71215 -3.23601,-9.11682 -12.41063,-1.76023 -16.68116,2.23242 -0.83111,0.51908 -1.53458,1.21665 -2.10685,2.02623 -0.31689,0.0675 -0.62534,0.11867 -0.92138,0.14418 -6.8149,4.54476 -27.00547,1.25693 -25.92089,10.20093 5.73127,-0.24278 11.81277,-3.27979 17.23924,-4.12378 -1.08243,5.71385 -7.3951,13.58002 -14.63476,14.3247 -9.41877,-2.7956 -4.01257,-14.17347 -1.61229,-20.46386 -0.47353,-8.96179 15.04929,-10.60697 11.00706,-18.07642 z m 88.84573,3.18327 c -0.76073,-0.0258 -1.36289,0.37812 -1.26452,1.46761 0.96954,6.94783 -1.79684,13.58652 -3.50364,20.30884 -4.4473,6.06781 6.72598,7.15465 3.1936,2.60449 0.7175,-7.26654 4.48898,-14.30232 4.18579,-21.85913 0.36454,-1.24269 -1.34332,-2.47886 -2.61123,-2.52181 z m -157.25859,4.72012 c -0.46321,0.0169 -0.98229,0.16535 -1.56737,0.46819 -2.76815,7.53206 -6.52563,15.37673 -11.84423,21.146 -2.56519,6.0353 4.3624,2.06485 5.45703,-1.42627 3.6602,-0.2602 7.71359,-1.02387 11.19312,-1.33325 1.07334,4.36921 6.2311,5.65774 9.02272,2.6665 l -0.4031,-0.5271 c -6.81497,-0.58232 0.90192,-4.15039 -5.73608,-4.89893 -2.42282,-4.11538 -1.64452,-16.25871 -6.12209,-16.09514 z m 138.25408,0.96945 c -2.64338,-0.0253 -5.30088,0.44123 -7.42641,1.11105 -11.2336,4.16374 3.26014,2.54472 -0.27905,10.01489 -0.84307,4.80165 -0.63479,9.21353 4.15477,11.16211 6.70211,-1.43432 13.31749,-7.93758 14.7278,-14.75879 -1.13663,-5.64019 -6.13066,-7.48095 -11.17711,-7.52926 z m -288.34985,0.49506 c -3.96216,-0.0889 -8.87632,3.97994 -11.67887,6.60012 -6.04255,3.77395 -5.36921,16.94808 3.84474,14.47973 8.47141,-0.82839 12.79581,-8.98853 12.83642,-16.71215 -1.11238,-3.13391 -2.92687,-4.32115 -5.00229,-4.3677 z m 270.22642,0 c -3.96216,-0.0889 -8.87635,3.97994 -11.6789,6.60012 -6.04252,3.77395 -5.36921,16.94808 3.84474,14.47973 8.47141,-0.82839 12.79584,-8.98853 12.83642,-16.71215 -1.11236,-3.13391 -2.92684,-4.32115 -5.00226,-4.3677 z m -243.8518,0.31265 c -3.35386,0.0347 -7.03874,0.74578 -9.29037,1.51257 -3.14751,0.47214 -9.05351,1.5209 -9.70483,5.36401 1.90441,2.46039 6.29464,-3.02458 4.65087,2.54248 -1.38682,4.01537 1.08783,18.51027 5.271,11.84424 -3.55957,-3.96741 -2.04981,-10.57713 -1.64333,-15.56494 5.10437,-2.71308 20.68603,-4.11994 10.72804,3.81372 -10.31933,3.36698 -6.56926,14.79537 3.37963,10.82104 5.81683,-1.81801 13.4484,-0.56152 18.35546,-3.7207 -5.47094,-2.01394 -12.35503,0.55819 -18.23143,0.65112 -11.92022,2.97262 -1.89674,-6.23633 2.32545,-8.92968 4.41928,-6.57116 -0.25072,-8.39176 -5.84049,-8.33386 z m -47.46789,0.0388 c -7.02418,-0.0405 -14.07475,1.37001 -19.286663,6.37273 3.294089,3.10982 -0.418571,9.12553 1.457272,14.23169 3.795261,8.48832 3.923741,-0.94422 5.208981,-2.44946 3.03606,-4.9943 15.23814,-3.86162 15.4719,-8.80567 -4.34546,0.18365 -8.36773,1.92953 -12.24729,3.59668 -8.096644,5.94424 -5.770692,-10.18293 1.1472,-9.05371 4.59124,-1.74057 11.44998,1.04451 15.19288,-1.95336 -0.16134,-0.94764 -0.69995,-1.94249 -2.10841,-1.70533 -1.5952,-0.13756 -3.2149,-0.22424 -4.83587,-0.23357 z m 207.68654,0.48162 c -5.89968,2.34005 -12.58673,2.60164 -19.28564,3.28662 -5.7096,-1.93488 -10.59349,5.77908 -2.85255,3.59668 6.66853,-1.28326 0.99951,9.79107 4.99194,13.02246 3.359,3.367 8.09083,-6.0465 2.72852,-4.2478 -0.50617,-4.4785 -3.51057,-12.13729 4.37184,-9.76685 4.47773,-2.04236 10.47351,1.11958 12.03026,-4.34082 -1.47008,0.53284 -0.60724,-1.56706 -1.98437,-1.55029 z m 102.41441,1.83296 c 3.36428,-0.0397 6.71335,1.30061 7.63572,4.8333 l -0.27906,0.74414 -0.15502,0.80615 c -2.79649,4.07396 -6.63062,8.76337 -11.0381,9.08472 -4.12226,-2.99118 0.25223,-10.61191 -1.1162,-14.38672 1.42402,-0.66123 3.19043,-1.06079 4.95266,-1.08159 z m -290.65045,1.79111 c 1.20457,-2.7e-4 2.39575,0.46497 3.54446,1.5229 -0.43352,2.41821 -0.66857,5.39967 -2.32542,7.3794 -5.50786,9.65653 -18.06035,1.4675 -7.22437,-5.61206 1.95231,-1.99623 3.9977,-3.28973 6.00533,-3.29024 z m 247.13737,0 c 1.20456,-2.7e-4 2.39575,0.46497 3.54446,1.5229 -0.43352,2.41821 -0.66858,5.39967 -2.32542,7.3794 -4.66474,8.17837 -14.3804,3.5561 -10.66345,-2.35128 3.351,-0.3456 7.37708,0.12226 8.37935,-3.13676 -0.99388,-1.12564 -2.26348,-1.42713 -3.64836,-1.32188 1.55268,-1.29792 3.14449,-2.09198 4.71342,-2.09238 z m 23.08902,0 c 1.20457,-2.7e-4 2.39575,0.46497 3.54449,1.5229 -0.43355,2.41821 -0.6686,5.39967 -2.32545,7.3794 -5.50783,9.65653 -18.06035,1.4675 -7.22437,-5.61206 1.95231,-1.99623 3.9977,-3.28973 6.00533,-3.29024 z m -119.26869,0.72967 c 1.51209,-0.0766 2.42237,6.13761 3.33727,9.90896 -3.77738,0.72514 -12.17515,1.94291 -5.82911,-5.08497 0.99316,-3.45465 1.80453,-4.78916 2.49184,-4.82399 z m 156.25453,23.11073 c -2.50844,-0.0945 -3.28107,7.90536 2.41176,2.45618 -0.87067,-1.76852 -1.70937,-2.42972 -2.41176,-2.45618 z"
     style="fill:#ffbc2b;stroke:none;fill-opacity:1" />
  <path
     d="m 134.68873,523.83679 c -2.46123,1.75486 -3.726,-2.78496 -3.11299,-4.81211 -0.27431,-1.55107 1.48458,-7.87982 -0.29766,-3.64629 -0.73795,3.46392 -4.67242,2.6113 -5.12216,-0.48369 -0.58114,-1.92156 -1.0624,-4.16796 -1.35186,-1.0914 -0.0905,3.00148 -2.27703,6.41271 -0.42168,8.69404 -2.39819,2.45387 -2.31679,-2.54685 -1.78594,-3.91914 0.8023,-3.36687 1.3275,-6.67845 1.5503,-10.0583 2.60531,-1.20214 1.95385,3.10191 2.90214,4.55166 0.42384,4.51078 3.3317,2.88794 3.96875,-0.0124 1.36099,-2.03262 1.26374,-5.7239 2.69131,-6.98251 1.77619,1.94567 -0.48372,5.46361 -0.24804,7.9499 -0.4064,3.20542 -2.09983,7.9786 1.22783,9.81025 z m 3.36103,-4.91133 c -2.37026,1.6908 -2.49797,-3.12488 -1.88515,-4.53925 0.28291,-4.56319 1.6517,2.56073 1.41386,3.59667 0.37403,0.0951 0.0563,0.82925 0.47129,0.94258 z m 10.49239,-0.5333 c -2.1508,2.16672 -6.97318,2.02667 -9.11573,-0.27285 -2.17208,-4.12771 4.39594,-7.25003 7.20577,-4.99814 -0.76003,2.9963 -3.0011,-1.12758 -5.30821,1.53789 -2.84035,2.41707 1.48326,5.15941 4.00596,4.27881 1.20392,0.0489 2.0463,-0.57847 3.21221,-0.54571 z m 7.63984,-3.55947 c -2.13614,1.20965 0.18866,4.30176 -0.85576,5.8167 -1.52417,0.95136 -1.27017,-3.27691 -1.45108,-4.39043 -5.30724,-3.2884 -1.20862,4.69621 -3.88193,4.08037 -1.40053,-1.27597 0.0235,-4.65356 -2.49287,-2.95176 -1.82711,-1.4226 4.85735,-2.15189 2.07119,-5.43222 1.99904,-3.13578 0.13095,4.80112 2.6665,2.77812 2.91149,0.57241 0.70373,-6.86229 2.92696,-2.25723 -0.29229,0.98802 0.15785,1.94937 1.01699,2.35645 z m 10.02109,4.88652 c -1.18765,1.28895 -3.17444,0.52808 -3.7083,-1.0666 -1.93919,0.55312 -4.87632,-0.32129 -5.68027,2.28203 -3.06708,-0.0406 1.51066,-3.31594 1.76113,-4.99814 1.5748,-1.22445 1.0481,-5.74564 3.48506,-4.83692 1.23334,2.07951 0.32697,6.49519 3.07578,6.89571 -1.33025,1.63019 -0.16853,0.61484 1.0666,1.72392 z m -3.88193,-1.98437 c -0.5323,-2.19424 -1.06041,-6.45594 -2.33164,-2.03399 -2.53842,2.81116 0.82069,2.32405 2.33164,2.03399 z m 10.54199,-0.29766 c -1.06287,1.94055 -6.28342,4.18379 -6.53604,0.24805 1.01423,-1.55042 -1.03463,-6.33386 1.83555,-5.3082 0.89616,1.90452 -1.68268,5.3441 0.68213,6.13916 1.14842,0.0129 2.84286,-1.56408 4.01836,-1.07901 z m 22.91953,-2.59209 c -0.88192,1.79623 -3.8501,0.93015 -5.49424,1.87276 -2.41032,0.23356 -2.1436,1.4795 -2.55488,3.42304 -1.5914,4.92361 -10.82389,7.20529 -9.525,-0.63252 1.56383,-4.10638 2.71194,-9.76897 7.10654,-11.55898 1.83271,2.89845 -4.47182,3.65941 -4.30361,7.23057 -2.04888,2.6825 -2.47435,10.23494 2.71611,7.429 1.51358,-0.57015 4.67503,-4.29023 3.28663,-5.04775 -1.95553,0.84934 -4.29685,1.48238 -6.39961,1.72392 -0.43383,-3.5776 7.64239,-2.26247 10.36836,-4.08037 1.44868,-0.11115 3.61697,-1.70595 4.7997,-0.35967 z m 10.5668,3.62149 c -2.6384,1.26614 -6.32904,1.15314 -9.27696,1.67431 -4.72078,-0.77245 0.045,-4.24409 1.81075,-5.71748 0.87455,-2.18353 -5.0512,-1.20569 -5.54385,0.19844 -1.40985,2.33692 1.39085,5.03532 0.14883,6.66006 -2.78606,-1.11609 -0.98252,-5.17602 -1.78594,-6.83369 -1.27824,1.3177 -2.62431,-0.91378 -0.42168,-1.19063 2.541,-1.11133 5.82261,-1.62469 8.80566,-1.21543 3.22327,3.04341 -8.57797,8.20005 -0.0744,6.57324 2.01888,-0.0266 4.50826,-1.01975 6.3376,-0.14882 z m 4.34082,-5.02295 c 0.31853,3.94765 -3.74125,8.20296 -7.60264,6.23838 -2.36418,-3.57958 2.2081,-7.06196 5.2834,-8.01192 1.17104,-0.0589 1.95154,0.72035 2.31924,1.77354 z m -1.24023,0.64492 c -2.03925,-1.99275 -5.37244,1.49653 -5.56866,3.99355 2.38041,2.5886 5.81227,-1.45846 5.56866,-3.99355 z m 11.39775,4.30361 c -2.1508,2.16672 -6.97318,2.02667 -9.11572,-0.27285 -2.17209,-4.12771 4.39594,-7.25003 7.20576,-4.99814 -0.76003,2.9963 -3.0011,-1.12758 -5.30821,1.53789 -2.84035,2.41707 1.48326,5.15941 4.00596,4.27881 1.20392,0.0489 2.0463,-0.57847 3.21221,-0.54571 z m 7.63984,-3.55947 c -2.13614,1.20965 0.18866,4.30176 -0.85576,5.8167 -1.52417,0.95136 -1.27016,-3.27691 -1.45108,-4.39043 -5.30724,-3.2884 -1.20862,4.69621 -3.88193,4.08037 -1.40053,-1.27597 0.0235,-4.65356 -2.49287,-2.95176 -1.8271,-1.4226 4.85735,-2.15189 2.07119,-5.43222 1.99904,-3.13578 0.13095,4.80112 2.66651,2.77812 2.91148,0.57241 0.70372,-6.86229 2.92695,-2.25723 -0.29229,0.98802 0.15785,1.94937 1.01699,2.35645 z m 12.72481,4.2292 c -2.84915,3.71163 -3.44965,-3.21284 -2.66651,-4.53926 -0.98306,2.54448 -5.83514,5.78461 -6.84609,1.50068 -0.77661,-3.00941 -0.68945,1.14612 -1.0542,2.29444 1.36031,1.58382 -0.62266,4.27291 -1.31465,1.46347 -0.0532,-2.58485 0.31265,-5.35024 1.25264,-7.75146 3.31613,-1.05826 1.03734,6.13566 4.56406,4.41523 1.90506,-1.76098 4.89332,-8.04212 4.96094,-1.57509 -0.29393,1.45836 -1.41697,4.5676 1.10381,4.19199 z m 9.64902,0.65732 c -1.18766,1.28895 -3.17445,0.52808 -3.70831,-1.0666 -1.93918,0.55312 -4.87632,-0.32129 -5.68027,2.28203 -3.06708,-0.0406 1.51067,-3.31594 1.76113,-4.99814 1.5748,-1.22445 1.0481,-5.74564 3.48506,-4.83692 1.23335,2.07951 0.32697,6.49519 3.07578,6.89571 -1.33024,1.63019 -0.16853,0.61484 1.06661,1.72392 z m -3.88194,-1.98437 c -0.5323,-2.19424 -1.06041,-6.45594 -2.33164,-2.03399 -2.53841,2.81116 0.8207,2.32405 2.33164,2.03399 z m 10.542,-0.29766 c -1.06287,1.94055 -6.28342,4.18379 -6.53604,0.24805 1.01423,-1.55042 -1.03463,-6.33386 1.83555,-5.3082 0.89616,1.90452 -1.68268,5.3441 0.68213,6.13916 1.14842,0.0129 2.84286,-1.56408 4.01836,-1.07901 z m 14.3495,2.28203 c -1.18765,1.28895 -3.17444,0.52808 -3.7083,-1.0666 -1.93918,0.55312 -4.87632,-0.32129 -5.68027,2.28203 -3.06708,-0.0406 1.51066,-3.31594 1.76113,-4.99814 1.5748,-1.22445 1.0481,-5.74564 3.48506,-4.83692 1.23334,2.07951 0.32697,6.49519 3.07578,6.89571 -1.33025,1.63019 -0.16853,0.61484 1.0666,1.72392 z m -3.88193,-1.98437 c -0.5323,-2.19424 -1.06041,-6.45594 -2.33164,-2.03399 -2.53842,2.81116 0.82069,2.32405 2.33164,2.03399 z m 11.94346,-5.2586 c -1.65215,2.52881 1.7501,7.15233 -1.77354,8.9917 -2.76562,0.61808 -4.22924,-5.98654 -5.17177,-3.39824 -0.40647,1.20514 -0.23787,2.87923 0.26045,3.89434 -3.73033,1.10404 -1.04855,-4.96786 -0.85577,-7.16856 -0.0538,-4.79267 2.15608,-0.86161 2.46807,1.42627 0.92701,3.58391 4.8141,4.96848 3.81992,0.33487 0.0533,-1.51373 -2.0267,-6.56387 1.25264,-4.08038 z m 9.57462,2.03399 c -0.63395,2.71398 -3.31968,5.59116 -6.13916,5.89111 -2.68021,-1.44315 -0.90142,-4.40454 -1.46348,-6.95771 -4.18353,0.78935 0.97072,-2.74764 2.75332,-1.88516 2.08219,-0.41717 4.39041,0.8044 4.84932,2.95176 z m -1.15342,0.18603 c -0.44631,-2.51309 -6.16928,-2.8328 -4.94854,0.17364 -1.27963,2.33975 0.25538,5.95928 2.44327,3.11298 0.96039,-0.9582 2.23756,-1.8581 2.50527,-3.28662 z m 20.09178,5.22139 c -2.91047,2.12567 -8.25224,4.29081 -11.80703,2.19522 -3.15555,-2.63619 0.1995,-7.40061 1.42627,-10.26915 0.68796,-2.61569 6.45313,-5.50238 5.34541,-0.73173 -1.25541,3.10422 -3.6639,1.5194 -1.31465,-0.81856 -1.13546,-0.20005 -2.91232,1.9077 -3.44785,3.38584 -1.63551,2.29197 -3.70889,7.73365 0.80616,8.09873 3.00357,0.10847 5.89616,-1.86036 8.66923,-2.1456 l 0.31006,0.24804 z m 5.97794,-6.47402 c 0.31853,3.94765 -3.74125,8.20296 -7.60264,6.23838 -2.36418,-3.57958 2.2081,-7.06196 5.2834,-8.01192 1.17104,-0.0589 1.95154,0.72035 2.31924,1.77354 z m -1.24023,0.64492 c -2.03925,-1.99275 -5.37244,1.49653 -5.56866,3.99355 2.38041,2.5886 5.81227,-1.45846 5.56866,-3.99355 z m 8.65684,4.97334 c 0.23484,2.78833 -6.99304,3.13756 -4.30362,1.20303 6.19868,-0.75861 0.10886,-2.12285 -2.09599,-2.71612 -1.97705,-2.46196 1.83329,-5.34348 4.2168,-5.8291 0.88145,2.42247 -3.69713,1.89511 -3.42305,4.53926 1.48316,1.50068 5.20761,-0.16091 5.60586,2.80293 z m 12.66278,0 c -2.84915,3.71163 -3.44964,-3.21284 -2.6665,-4.53926 -0.98306,2.54448 -5.83514,5.78461 -6.84609,1.50068 -0.77661,-3.00941 -0.68945,1.14612 -1.0542,2.29444 1.36031,1.58382 -0.62266,4.27291 -1.31465,1.46347 -0.0532,-2.58485 0.31265,-5.35024 1.25264,-7.75146 3.31612,-1.05826 1.03734,6.13566 4.56406,4.41523 1.90506,-1.76098 4.89332,-8.04212 4.96094,-1.57509 -0.29394,1.45836 -1.41698,4.5676 1.1038,4.19199 z m 3.10059,-0.13643 c -2.37026,1.6908 -2.49797,-3.12488 -1.88515,-4.53925 0.28291,-4.56319 1.65171,2.56073 1.41386,3.59667 0.37403,0.0951 0.0563,0.82925 0.47129,0.94258 z m 9.35136,-6.44922 c -1.65215,2.52881 1.7501,7.15233 -1.77353,8.9917 -2.76563,0.61808 -4.22925,-5.98654 -5.17178,-3.39824 -0.40647,1.20514 -0.23787,2.87923 0.26045,3.89434 -3.73033,1.10404 -1.04855,-4.96786 -0.85576,-7.16856 -0.0538,-4.79267 2.15607,-0.86161 2.46806,1.42627 0.92701,3.58391 4.81411,4.96848 3.81993,0.33487 0.0533,-1.51373 -2.0267,-6.56387 1.25263,-4.08038 z m 16.47032,7.68946 c -1.00433,2.4249 -5.88607,3.96275 -7.35459,1.5875 0.82322,-1.81576 4.21572,1.8915 5.84151,-1.67432 -2.71371,-3.06268 -8.90673,-2.09749 -9.56221,-6.98252 1.16992,-3.83394 6.66273,-6.25463 10.30635,-4.73769 -0.26438,2.50841 -3.88623,0.18244 -5.60586,1.63711 -2.12391,0.62637 -5.21789,3.35923 -2.03399,5.17177 2.37,2.23084 7.30214,1.64682 8.40879,4.99815 z m 11.34814,-7.51582 c -0.95029,2.48187 -4.54031,0.94494 -6.75928,1.92236 -0.0155,0.69004 -0.74687,4.37299 1.20303,3.78272 0.28243,2.39649 -3.13234,2.37964 -2.69131,-0.18604 0.131,-2.01553 0.0965,-4.33336 -2.34404,-3.175 -2.66834,-1.62504 3.66258,-1.79475 4.94853,-1.92236 1.91529,0.23451 4.34521,-1.56124 5.64307,-0.42168 z m 7.13135,7.06933 c -1.18765,1.28895 -3.17444,0.52808 -3.7083,-1.0666 -1.93918,0.55312 -4.87632,-0.32129 -5.68027,2.28203 -3.06708,-0.0406 1.51066,-3.31594 1.76113,-4.99814 1.5748,-1.22445 1.0481,-5.74564 3.48506,-4.83692 1.23334,2.07951 0.32697,6.49519 3.07578,6.89571 -1.33025,1.63019 -0.16853,0.61484 1.0666,1.72392 z m -3.88193,-1.98437 c -0.5323,-2.19424 -1.06041,-6.45594 -2.33164,-2.03399 -2.53842,2.81116 0.82069,2.32405 2.33164,2.03399 z m 15.71377,1.32705 c -2.84915,3.71163 -3.44964,-3.21284 -2.6665,-4.53926 -0.98307,2.54448 -5.83514,5.78461 -6.8461,1.50068 -0.7766,-3.00941 -0.68945,1.14612 -1.0542,2.29444 1.36032,1.58382 -0.62266,4.27291 -1.31464,1.46347 -0.0532,-2.58485 0.31265,-5.35024 1.25263,-7.75146 3.31613,-1.05826 1.03735,6.13566 4.56407,4.41523 1.90505,-1.76098 4.89332,-8.04212 4.96093,-1.57509 -0.29393,1.45836 -1.41697,4.5676 1.10381,4.19199 z m 9.64901,0.65732 c -1.18765,1.28895 -3.17444,0.52808 -3.7083,-1.0666 -1.93918,0.55312 -4.87632,-0.32129 -5.68027,2.28203 -3.06708,-0.0406 1.51066,-3.31594 1.76113,-4.99814 1.5748,-1.22445 1.0481,-5.74564 3.48506,-4.83692 1.23334,2.07951 0.32697,6.49519 3.07578,6.89571 -1.33025,1.63019 -0.16853,0.61484 1.0666,1.72392 z m -3.88193,-1.98437 c -0.5323,-2.19424 -1.06041,-6.45594 -2.33164,-2.03399 -2.53842,2.81116 0.82069,2.32405 2.33164,2.03399 z m 13.84103,-5.08496 c -0.95029,2.48187 -4.54031,0.94494 -6.75927,1.92236 -0.0155,0.69004 -0.74688,4.37299 1.20302,3.78272 0.28244,2.39649 -3.13233,2.37964 -2.69131,-0.18604 0.131,-2.01553 0.0965,-4.33336 -2.34404,-3.175 -2.66833,-1.62504 3.66258,-1.79475 4.94854,-1.92236 1.91528,0.23451 4.3452,-1.56124 5.64306,-0.42168 z m 6.12674,0.0868 c -1.69624,1.0155 -6.71715,-0.35 -6.3128,2.80293 1.09398,0.28898 5.22443,-1.30553 3.91914,0.66973 -1.47146,0.88795 -5.14131,-0.0296 -4.29121,2.50527 0.10405,3.61318 3.41421,0.50785 4.08037,-0.66972 1.68918,2.00685 -4.23499,6.12146 -5.2958,2.30683 -0.52619,-2.26089 0.0454,-4.852 0.47129,-6.99492 1.91557,-1.13909 5.64803,-1.90971 7.42901,-0.62012 z"
     id="text1118"
     style="fill:#000000;stroke:none" />
  <path
     id="path126"
     style="fill:#000000;stroke:#000000;stroke-width:1.70465;stroke-linecap:round"
     d="m 80.859771,371.95972 c 33.628929,-4.69364 63.936839,-22.119 97.670909,-26.60405 72.36917,-17.41817 145.09221,-33.83559 216.50013,-54.65018 17.40222,-8.7608 -22.61406,1.72593 -29.89083,4.80174 -75.06544,22.26634 -152.01351,37.63755 -227.81793,57.01707 -16.94985,7.41503 -47.342849,14.9312 -56.462279,19.43542 z" />
  <path
     id="path75"
     style="fill:#80ffe6;fill-opacity:1;stroke:#80ffe6;stroke-width:0.45102px;stroke-linecap:butt;stroke-linejoin:miter;stroke-opacity:1"
     d="m 146.68907,409.5653 c 9.19508,12.37253 21.75732,38.45902 38.43901,18.72936 10.17873,-23.73287 43.47053,-25.36872 52.36467,0.34325 8.56276,17.73159 29.49648,16.72844 45.88517,14.12407 15.24463,-3.36659 26.40492,-15.91995 41.31109,-20.59117 18.68246,-5.79984 22.38681,22.5689 37.98808,26.55332 14.7349,0.23964 32.93652,-0.39505 44.39787,-10.44153 0.9141,-14.61085 -2.02791,-30.9099 -8.70985,-44.37711 -12.47856,-23.20088 -23.90778,-46.88568 -35.44472,-70.57988 -7.00096,-18.8988 -23.47818,-31.12552 -38.12362,-43.57997 -14.8307,-16.07267 -34.64329,-28.53973 -57.05279,-29.30189 -16.33996,-3.18544 -33.59586,-4.01959 -49.03531,3.34039 -23.80958,7.60408 -46.41719,22.67517 -56.89002,46.12626 -17.77094,30.11696 -21.9517,66.66104 -17.30593,100.84969 0.55493,2.97357 1.26721,5.91947 2.17635,8.80521 z" />
  <path
     id="path91"
     style="fill:#ffffff;fill-opacity:1;stroke:#ffffff;stroke-width:0.45102px;stroke-linecap:butt;stroke-linejoin:miter;stroke-opacity:1"
     d="m 202.6646,334.37575 c -0.34659,-7.22795 -0.71793,-14.62994 1.54876,-21.60663 1.05055,-6.91338 4.70818,-14.24593 11.84445,-16.46357 5.81069,-2.30783 13.16116,0.79058 14.55811,7.11524 4.61744,12.68074 5.086,26.51134 3.61905,39.79921 -1.33859,6.24035 -4.44727,14.00095 -11.6581,14.95632 -5.32204,0.93801 -11.48101,-0.61502 -14.23877,-5.63031 -3.34064,-5.47261 -4.47333,-11.97255 -5.6735,-18.17026 z" />
  <path
     id="path98"
     style="fill:#ffffff;fill-opacity:1;stroke:#ffffff;stroke-width:0.45102px;stroke-linecap:butt;stroke-linejoin:miter;stroke-opacity:1"
     d="m 260.30393,327.47714 c -1.03685,-7.76256 1.32,-15.41033 3.53245,-22.75836 3.08995,-4.99246 8.3504,-10.93482 14.88609,-9.26105 6.27565,0.73596 8.44604,7.26912 9.79707,12.50231 1.96091,6.62061 4.52081,13.22324 4.02562,20.27028 0.34017,7.20107 0.78544,14.81076 -2.81174,21.3729 -2.28586,6.47802 -8.701,12.0801 -15.92323,10.32109 -7.1376,-1.12793 -10.29111,-8.34067 -11.0471,-14.75661 -1.1084,-5.23487 -2.86946,-10.37658 -2.42532,-15.81235 -0.005,-0.62615 -0.0136,-1.25232 -0.0339,-1.87821 z" />
  <path
     id="path109"
     style="fill:#000000;fill-opacity:1;stroke:#000000;stroke-width:0.45102px;stroke-linecap:butt;stroke-linejoin:miter;stroke-opacity:1"
     d="m 209.43871,306.72784 c -2.85832,0.66732 -3.07554,4.09289 -2.88811,6.48744 -0.0324,4.80792 2.12807,10.00788 6.71889,12.09621 3.3112,1.66278 7.97942,1.92233 10.71533,-0.92574 2.2594,-2.96917 2.58107,-6.8487 3.55297,-10.34137 0.68438,-4.12365 -1.71617,-8.42448 -5.21333,-10.55862 -4.37547,-2.24739 -9.69969,-0.0702 -12.88575,3.24208 z" />
  <path
     id="path117"
     style="fill:#000000;fill-opacity:1;stroke:#000000;stroke-width:0.45102px;stroke-linecap:butt;stroke-linejoin:miter;stroke-opacity:1"
     d="m 267.61284,306.72784 c -2.73877,4.13128 -4.17059,9.73832 -1.98399,14.40101 1.91159,2.17414 3.70856,4.99997 6.81396,5.44986 3.3818,0.29064 7.41996,0.49934 9.93742,-2.23147 1.70417,-2.13631 1.66014,-5.05725 2.09739,-7.63405 0.41906,-4.09132 -0.6375,-8.68597 -4.12863,-11.22032 -3.2625,-2.75779 -8.24029,-4.12744 -12.10644,-1.79396 -1.28063,0.46657 -2.18448,2.2453 -0.62971,3.02893 z" />
  <path
     id="path128"
     style="fill:#000000;stroke:#000000;stroke-width:1.70465;stroke-linecap:round"
     d="m 393.24973,282.99187 c 8.47316,0.86967 16.88977,-0.86886 25.23024,-2.07771 3.57113,0.30827 -0.43003,-1.89722 -1.73441,-2.24067 -1.84233,0.72275 -2.8991,2.91411 -4.50692,4.18673 -3.69307,3.7673 -7.68388,7.27924 -11.87927,10.44342 -2.16445,2.84957 2.11808,4.28387 3.84908,2.11105 4.43546,-4.38319 9.11697,-8.55347 13.47847,-13.00259 1.98211,-0.73295 3.32559,-2.42002 0.7849,-3.55064 -2.17526,-1.92684 -4.31762,1.16206 -6.70784,1.12873 -4.80772,1.11603 -9.81438,1.76395 -14.7438,1.27139 -1.78618,-0.89833 -2.63238,0.67458 -3.77045,1.73029 z" />
  <path
     id="path130"
     style="fill:#000000;stroke:#000000;stroke-width:1.70465;stroke-linecap:round"
     d="m 76.214001,345.96997 c 32.608989,3.05009 59.887489,23.33408 90.506469,33.20405 38.6195,16.4876 80.02463,24.99183 119.40769,39.50571 37.77275,11.06077 75.06055,23.45383 111.4374,38.54986 2.67394,-9.93467 -30.85809,-11.46997 -40.65917,-18.94684 -71.07622,-24.19748 -144.49076,-41.81306 -213.70361,-71.15498 -21.06099,-8.85355 -43.529879,-24.80262 -66.988779,-21.1578 z" />
  <path
     id="path132"
     style="fill:#000000;stroke:#000000;stroke-width:1.70465;stroke-linecap:round"
     d="m 400.9364,446.96819 c 3.6016,4.11144 6.46585,8.79636 9.55151,13.29034 1.19148,1.875 2.36511,3.76337 3.65441,5.5736 -0.42808,0.0856 1.07716,-3.85314 -1.45429,-2.77594 -0.81966,0.15461 -3.84803,0.11097 -1.55903,0.10449 2.86869,0.0102 -1.49612,-0.18127 -2.28083,-0.15052 -4.79019,0.0409 -9.5865,-0.0637 -14.3305,-0.77822 -2.85903,-0.21973 -5.76758,-0.38288 -8.61239,-0.032 -2.32524,0.79693 1.08536,2.96077 1.95068,3.82814 0.63839,0.91262 3.68455,0.7897 3.15983,0.62121 -0.79287,-0.0278 -2.55245,-0.0619 -0.7077,-9e-4 8.3328,0.26931 16.64886,1.29379 24.99304,1.06668 2.30395,0.35047 4.40324,-0.73179 4.17843,-3.31796 1.05003,-1.731 -1.64411,-0.15478 -2.14644,-1.8904 -2.90296,-3.3648 -5.03566,-7.30812 -7.92542,-10.69051 -1.54548,-1.98168 -3.09189,-4.00325 -4.1226,-6.31143 -1.44955,0.48785 -2.89928,0.97526 -4.3487,1.4634 z" />
  <path
     id="path142"
     style="fill:#ffbc2b;fill-opacity:1;stroke:#ffbc2b;stroke-width:1.70465;stroke-linecap:round;stroke-opacity:1"
     d="m 273.27499,229.36119 c 13.5561,13.93093 27.14955,27.82235 39.66354,42.71137 19.31499,21.25994 43.52915,37.51324 61.43515,60.14228 4.07586,3.42028 11.34498,17.72516 14.81388,13.11993 -18.09694,-20.68138 -36.47434,-41.45025 -58.45577,-58.16016 -20.26278,-17.83531 -36.79509,-39.32207 -55.63432,-58.56128 -0.6075,0.24929 -1.21498,0.49858 -1.82248,0.74786 z" />
  <path
     id="path146"
     style="fill:#ffbc2b;fill-opacity:1;stroke:#ffbc2b;stroke-width:1.70465;stroke-linecap:round;stroke-opacity:1"
     d="m 372.42871,346.24906 c 5.17597,1.4993 10.00095,3.98142 15.15755,5.54817 3.98898,1.43016 7.95778,3.02697 11.66627,5.04986 2.12646,0.15666 6.45068,-1.21294 3.88681,-3.79026 -4.69329,-5.12197 -8.1429,-11.2575 -10.78486,-17.65257 -1.15583,-2.73179 -5.43916,-2.43116 -3.42209,0.91299 1.40807,2.99012 2.71944,6.01961 4.07521,9.03429 1.59059,3.33809 3.80168,6.3509 5.61391,9.53441 1.0866,-0.18791 3.94533,-0.62921 4.2739,-1.16948 -8.29535,-2.12792 -16.64898,-4.35598 -24.49082,-7.87254 -2.1408,-1.47411 -4.20369,-1.97712 -5.97588,0.40513 z" />
  <path
     id="path150"
     style="fill:#ffbc2b;fill-opacity:1;stroke:#ffbc2b;stroke-width:1.70465;stroke-linecap:round;stroke-opacity:1"
     d="m 319.4613,211.04237 c 0.25959,14.02094 0.27602,28.05554 1.0637,42.0668 0.35184,8.71864 0.57938,17.45855 0.0433,26.1748 6.98644,1.62516 2.70774,-8.04657 3.59752,-11.94514 -0.61274,-16.32646 -1.08827,-32.65619 -1.73946,-48.98134 -0.94381,-2.26063 1.75548,-8.58621 -2.96497,-7.31513 z" />
  <path
     id="path152"
     style="fill:#ffbc2b;fill-opacity:1;stroke:#ffbc2b;stroke-width:1.70465;stroke-linecap:round;stroke-opacity:1"
     d="m 322.51337,279.71368 c 8.48577,8.68421 18.86738,15.21442 29.58519,20.76796 6.94421,4.49987 13.46304,9.64656 20.63726,13.8145 2.21204,2.93516 10.7847,4.91722 8.43437,-0.78598 -6.02071,-2.24967 -11.76279,-5.78105 -17.02366,-9.59014 -5.56127,-4.09001 -11.49151,-7.57884 -17.73327,-10.50916 -6.63951,-3.58882 -13.03131,-7.65249 -19.00073,-12.27554 -0.83757,-2.0131 -3.1078,-2.87884 -4.89916,-1.42164 z" />
  <path
     id="path156"
     style="fill:#ffbc2b;fill-opacity:1;stroke:#ffbc2b;stroke-width:1.70465;stroke-linecap:round;stroke-opacity:1"
     d="m 328.17466,280.52334 c 10.98109,-3.24803 22.02443,-6.35153 32.79071,-10.26087 6.60263,-2.63569 13.15696,-5.45421 20.16189,-6.86255 3.26851,-0.46451 9.23836,-2.79004 3.27967,-4.90457 -4.66923,-0.017 -8.7232,2.99119 -13.19581,4.10842 -8.12642,2.98894 -15.7166,7.29272 -24.09734,9.61297 -6.89933,2.20272 -13.64461,4.93486 -20.78753,6.29573 0.10228,1.02647 1.35927,1.23128 1.84841,2.01087 z" />
  <path
     id="path158"
     style="fill:#ffbc2b;fill-opacity:1;stroke:#ffbc2b;stroke-width:1.70465;stroke-linecap:round;stroke-opacity:1"
     d="m 326.47293,264.49153 c 5.22474,-1.81095 10.20116,-4.59014 15.77915,-5.18284 -0.36085,0.63934 -4.65775,-2.79403 -4.1353,0.56696 -0.94469,4.43327 -2.14224,8.8068 -3.32883,13.17987 0.12444,1.59845 1.42311,4.16737 2.80583,1.99771 2.01989,-1.26633 1.66679,-3.92789 2.361,-5.91832 0.81978,-3.52255 1.85861,-7.03187 3.29646,-10.33456 -0.43383,-1.44537 -2.36129,-3.55281 -3.97429,-2.84957 -3.1315,2.92546 -7.42639,3.9672 -11.34121,5.4306 -1.17627,0.7179 -5.27513,0.60251 -2.63289,2.09619 0.39007,0.33793 0.78013,0.67589 1.17008,1.01396 z" />
  <path
     id="path162"
     style="fill:#ffbc2b;fill-opacity:1;stroke:#ffbc2b;stroke-width:1.70465;stroke-linecap:round;stroke-opacity:1"
     d="m 331.11729,271.47672 c 3.19696,-2.20459 -4.82957,-4.0844 -2.38485,-0.95933 0.8266,0.21162 1.73992,0.34061 2.38485,0.95933 z" />
  <path
     id="path164"
     style="fill:#ffbc2b;fill-opacity:1;stroke:#ffbc2b;stroke-width:1.70465;stroke-linecap:round;stroke-opacity:1"
     d="m 340.36918,279.25644 c 3.45938,1.53297 6.36912,4.10856 9.97579,5.35134 0.89642,0.10825 3.53472,2.015 2.3931,-0.0627 -0.43024,-2.34666 -2.21836,0.95853 -3.40963,1.30972 -1.50004,1.05107 -3.12787,1.90961 -4.80782,2.63458 -2.78438,0.4721 -0.0254,3.28493 1.61606,3.35747 1.95417,0.42614 3.4959,-1.26944 5.11368,-2.0706 2.1793,-1.36491 4.41748,-2.68993 6.30875,-4.45132 0.95128,-1.64616 -0.0136,-3.98734 -2.14676,-3.52318 -3.95534,-0.61577 -7.50333,-2.65846 -10.75118,-4.88562 -1.59326,-0.32792 -2.83787,1.81489 -4.29199,2.34038 z" />
  <path
     id="path166"
     style="fill:#ffbc2b;fill-opacity:1;stroke:#ffbc2b;stroke-width:1.70465;stroke-linecap:round;stroke-opacity:1"
     d="m 339.22029,285.12993 c 4.64575,-1.62116 -4.7279,-5.84294 -1.76458,-1.41323 0.59879,0.45192 1.41812,0.68426 1.76458,1.41323 z" />
  <path
     id="path168"
     style="fill:#ffbc2b;fill-opacity:1;stroke:#ffbc2b;stroke-width:1.70465;stroke-linecap:round;stroke-opacity:1"
     d="m 403.85311,332.47134 c 4.78733,-1.1221 9.7437,-1.03049 14.62698,-1.27042 0.98437,-0.0465 3.11988,0.4084 1.78504,-1.06486 -1.27053,-0.93953 -1.99304,-2.64955 -3.54926,-3.11752 -1.85266,-0.0469 -3.66991,0.61217 -5.54182,0.64042 -3.70213,0.25643 -7.37327,0.86959 -11.08433,0.99351 1.25444,1.27297 2.50906,2.54582 3.76339,3.81887 z" />
  <path
     id="path180"
     style="fill:#ffbc2b;fill-opacity:1;stroke:#ffbc2b;stroke-width:1.70465;stroke-linecap:round;stroke-opacity:1"
     d="m 419.80856,315.45469 c 4.71678,6.51911 7.34178,14.21469 10.13541,21.67929 0.61844,2.2221 0.70309,5.81952 3.58156,6.23741 2.96841,0.0607 4.72045,-2.7724 6.11161,-4.98039 3.65882,-4.98724 7.84114,-9.57478 12.08996,-14.06283 3.32344,-3.45431 6.77262,-6.78586 10.29423,-10.03728 2.80946,-1.05362 0.29947,-4.30022 -1.76707,-4.41724 -2.6348,-0.91436 -5.29042,0.59495 -7.96511,0.55712 -7.09833,0.71123 -14.24088,0.97731 -21.37255,0.80535 2.42561,-0.0503 -2.20117,0.0153 -2.98659,-0.26523 -1.59428,-0.342 -5.67638,-1.02311 -4.68619,1.79477 0.81897,0.87735 3.98572,1.85904 2.22462,3.36381 -1.08469,0.0951 -2.3099,-0.47585 -0.51085,-0.39822 12.92371,-0.14268 25.8476,-0.68931 38.71862,-1.89432 -1.48508,-1.24913 -4.04074,-3.75661 -5.82695,-1.72911 -1.09621,1.7841 -2.30964,3.44536 -3.83699,4.88383 -6.9768,7.73467 -14.08292,15.35266 -21.29476,22.86811 0.3233,1.56123 4.96767,0.86959 2.68783,-0.97133 -1.80392,-3.45584 -3.40046,-7.01881 -5.24079,-10.45955 -2.22751,-4.39829 -4.59874,-8.76778 -6.23138,-13.42529 -1.03503,-1.44263 -2.86122,0.37729 -4.12461,0.4511 z" />
  <path
     id="path184"
     style="fill:#ffbc2b;fill-opacity:1;stroke:#ffbc2b;stroke-width:1.70465;stroke-linecap:round;stroke-opacity:1"
     d="m 429.2717,321.62722 c 2.10309,2.0228 3.5136,4.65556 4.48646,7.38115 0.0924,2.21539 3.4704,1.60694 4.49206,0.46549 0.007,-2.25035 -2.15411,-3.99895 -2.9617,-6.07779 -1.05265,-1.43591 -1.67188,-4.34992 -3.78815,-2.6471 -0.74291,0.29267 -1.48583,0.58538 -2.22867,0.87825 z" />
  <path
     id="path186"
     style="fill:#2ad4ff;fill-opacity:1;stroke:#2ad4ff;stroke-width:1.70465;stroke-linecap:round;stroke-opacity:1"
     d="m 142.08481,408.95055 c 12.13301,-7.03464 5.30456,-23.90949 9.07538,-35.2757 3.71056,-22.09375 9.12851,-44.05753 17.14516,-64.99811 10.55027,-26.41608 31.07251,-51.77504 60.21725,-57.66481 26.17888,-5.53027 53.78931,4.96586 72.21884,23.78044 23.88071,20.48811 44.74451,45.61053 55.20714,75.64663 12.77937,27.2074 26.86809,53.90616 36.82582,82.33635 12.17877,-8.76175 -7.31384,-22.13299 -8.52707,-33.00482 -13.26201,-29.25846 -26.01955,-58.91284 -42.40695,-86.59332 -10.1864,-15.25853 -23.5353,-28.1561 -36.85068,-40.67375 -19.90282,-18.21318 -47.31992,-31.6423 -74.82198,-25.53741 -28.9014,5.63585 -53.14152,27.79369 -63.09914,55.2731 -12.82444,29.06862 -19.53133,60.55432 -21.95163,92.14973 -2.6225,3.84242 -0.0177,12.28933 -3.03214,14.56167 z" />
  <path
     id="path188"
     style="fill:#2ad4ff;fill-opacity:1;stroke:#2ad4ff;stroke-width:1.70465;stroke-linecap:round;stroke-opacity:1"
     d="m 227.83706,252.02541 c 20.0394,-3.54909 38.73898,9.85361 52.63091,22.73735 17.96483,21.82447 19.17805,51.42425 29.0699,76.93448 9.80418,31.88593 11.34042,65.46333 17.33668,98.02218 8.75741,14.87702 1.89819,-13.81207 -0.0583,-20.0529 -2.72518,-34.96135 -9.48897,-69.65928 -21.29119,-102.75043 -4.96726,-24.22134 -12.26141,-50.9453 -34.57102,-64.97971 -9.61186,-6.33022 -38.11267,-21.8291 -43.11695,-9.91097 z" />
</svg>
