<?xml version="1.0" encoding="UTF-8" standalone="no"?>
<!-- Created with Inkscape (http://www.inkscape.org/) -->

<svg
   xmlns:dc="http://purl.org/dc/elements/1.1/"
   xmlns:cc="http://creativecommons.org/ns#"
   xmlns:rdf="http://www.w3.org/1999/02/22-rdf-syntax-ns#"
   xmlns:svg="http://www.w3.org/2000/svg"
   xmlns="http://www.w3.org/2000/svg"
   xmlns:sodipodi="http://sodipodi.sourceforge.net/DTD/sodipodi-0.dtd"
   xmlns:inkscape="http://www.inkscape.org/namespaces/inkscape"
   width="2048"
   height="2048"
   viewBox="0 0 541.86666 541.86668"
   version="1.1"
   id="svg8"
   inkscape:version="0.92.4 5da689c313, 2019-01-14"
   sodipodi:docname="cover-some.svg">
  <defs
     id="defs2" />
  <sodipodi:namedview
     id="base"
     pagecolor="#ffffff"
     bordercolor="#666666"
     borderopacity="1.0"
     inkscape:pageopacity="0.0"
     inkscape:pageshadow="2"
     inkscape:zoom="0.35000001"
     inkscape:cx="1849.5871"
     inkscape:cy="1166.3917"
     inkscape:document-units="mm"
     inkscape:current-layer="layer1"
     showgrid="false"
     units="px"
     inkscape:window-width="1920"
     inkscape:window-height="1061"
     inkscape:window-x="0"
     inkscape:window-y="19"
     inkscape:window-maximized="0"
     inkscape:snap-global="true"
     showguides="true"
     inkscape:guide-bbox="true"
     inkscape:snap-object-midpoints="true"
     inkscape:snap-center="true"
     inkscape:snap-bbox="true"
     inkscape:snap-bbox-midpoints="true"
     inkscape:snap-page="true" />
  <metadata
     id="metadata5">
    <rdf:RDF>
      <cc:Work
         rdf:about="">
        <dc:format>image/svg+xml</dc:format>
        <dc:type
           rdf:resource="http://purl.org/dc/dcmitype/StillImage" />
        <dc:title></dc:title>
      </cc:Work>
    </rdf:RDF>
  </metadata>
  <g
     inkscape:groupmode="layer"
     id="layer2"
     inkscape:label="background"
     sodipodi:insensitive="true">
    <rect
       style="opacity:1;fill:#dcf3f7;fill-opacity:1;stroke:none;stroke-width:1.85208333;stroke-linecap:round;stroke-miterlimit:4;stroke-dasharray:none;stroke-opacity:1"
       id="rect1416"
       width="541.86664"
       height="541.86664"
       x="0"
       y="0" />
  </g>
  <g
     inkscape:label="cover"
     inkscape:groupmode="layer"
     id="layer1"
     transform="translate(0,244.86668)">
    <path
       style="fill:none;stroke:#000000;stroke-width:2.3812499;stroke-linecap:round;stroke-linejoin:miter;stroke-miterlimit:4;stroke-dasharray:none;stroke-opacity:1"
       d="M 115.06459,125.92812 392.49913,50.332748"
       id="path815"
       inkscape:connector-curvature="0" />
    <path
       style="fill:#80ffe6;stroke:none;stroke-width:0.79374999;stroke-linecap:butt;stroke-linejoin:miter;stroke-miterlimit:4;stroke-dasharray:none;stroke-opacity:1"
       d="m 173.42049,161.48717 c -5.92987,-33.50624 -1.93094,-70.142802 15.4005,-100.203702 13.46238,-23.800692 39.63814,-38.161452 66.47277,-40.432872 26.1965,-3.96445 52.5195,7.13193 71.359,25.020335 31.60443,29.775757 50.84999,69.990109 65.37802,110.303989 2.48681,8.59205 3.24651,16.02755 1.69736,25.88256 -1.98971,12.65764 -11.12182,9.97641 -15.50163,11.75985 -1.78909,1.93852 -7.37325,0.72911 -11.00206,1.06908 -7.05356,0.009 -12.27037,-1.06841 -16.40682,-7.09639 -4.35528,-4.64564 -6.96846,-9.86016 -10.00885,-14.81971 -2.16432,-7.18672 -6.90609,-7.7928 -12.2944,-3.74177 -5.41937,3.06299 -10.75799,7.83415 -16.57071,9.6217 -6.33925,5.31408 -16.33955,6.58549 -23.91395,9.55916 -4.24146,0.552 -13.46685,1.99957 -19.70666,0.61936 -6.99856,-0.66585 -12.75772,-5.00859 -16.78231,-11.2476 -3.59002,-5.40563 -6.48853,-12.44677 -12.29439,-15.50163 -3.91363,-2.86574 -8.75673,-3.66496 -13.79148,-3.20723 -7.45054,-0.18964 -11.54432,8.23728 -17.21179,12.29439 -6.24541,4.62072 -8.50329,8.12118 -15.54054,8.55263 -6.68838,1.26878 -10.13183,-4.53432 -12.77649,-9.63128 -1.8838,-3.13151 -5.85973,-5.15162 -6.50557,-8.80087 z"
       id="path823"
       inkscape:connector-curvature="0"
       sodipodi:nodetypes="sccccsccccccccccccccs" />
    <path
       style="fill:none;stroke:#000000;stroke-width:2.3812499;stroke-linecap:round;stroke-linejoin:miter;stroke-miterlimit:4;stroke-dasharray:none;stroke-opacity:1"
       d="m 113.55269,104.0054 274.41072,97.5181"
       id="path817"
       inkscape:connector-curvature="0"
       sodipodi:nodetypes="cc" />
    <path
       style="fill:none;stroke:#2ad4ff;stroke-width:0.79374999;stroke-linecap:butt;stroke-linejoin:miter;stroke-miterlimit:4;stroke-dasharray:none;stroke-opacity:1"
       d="m 171.76102,159.94612 c 0,0 -1.51191,-142.875285 88.44643,-139.095522 89.95834,3.779761 131.5357,154.970522 131.5357,154.970522"
       id="path819"
       inkscape:connector-curvature="0" />
    <path
       style="fill:none;stroke:#2ad4ff;stroke-width:0.79374999;stroke-linecap:butt;stroke-linejoin:miter;stroke-miterlimit:4;stroke-dasharray:none;stroke-opacity:1"
       d="m 255.29376,20.850596 c 0,0 36.85784,-5.905157 58.20833,81.264894 20.15079,82.27215 18.89881,95.62824 18.89881,95.62824"
       id="path821"
       inkscape:connector-curvature="0"
       sodipodi:nodetypes="csc" />
    <ellipse
       ry="28.159225"
       rx="14.363095"
       cy="87.941376"
       cx="285.53186"
       id="ellipse853"
       style="opacity:1;fill:#ffffff;fill-opacity:1;stroke:none;stroke-width:0.26458332;stroke-linecap:round;stroke-miterlimit:4;stroke-dasharray:none" />
    <ellipse
       ry="11.150297"
       rx="9.6383924"
       cy="77.358032"
       cx="283.07501"
       id="ellipse855"
       style="opacity:1;fill:#000000;fill-opacity:1;stroke:none;stroke-width:0.26458332;stroke-linecap:round;stroke-miterlimit:4;stroke-dasharray:none" />
    <ellipse
       style="opacity:1;fill:#ffffff;fill-opacity:1;stroke:none;stroke-width:0.26458332;stroke-linecap:round;stroke-miterlimit:4;stroke-dasharray:none"
       id="ellipse861"
       cx="236.39494"
       cy="88.697327"
       rx="14.363095"
       ry="28.159225" />
    <ellipse
       style="opacity:1;fill:#000000;fill-opacity:1;stroke:none;stroke-width:0.26458332;stroke-linecap:round;stroke-miterlimit:4;stroke-dasharray:none"
       id="ellipse863"
       cx="233.9381"
       cy="78.113983"
       rx="9.6383924"
       ry="11.150297" />
    <path
       style="fill:none;stroke:#000000;stroke-width:1.85208333;stroke-linecap:round;stroke-linejoin:miter;stroke-miterlimit:4;stroke-dasharray:none;stroke-opacity:1"
       d="M 383.4277,45.041078 404.97235,44.663102 391.3652,58.270253"
       id="path867"
       inkscape:connector-curvature="0"
       sodipodi:nodetypes="ccc" />
    <path
       sodipodi:nodetypes="ccc"
       inkscape:connector-curvature="0"
       id="path869"
       d="m 386.82949,190.94017 16.63096,16.63095 h -23.43453"
       style="fill:none;stroke:#000000;stroke-width:1.85208333;stroke-linecap:round;stroke-linejoin:miter;stroke-miterlimit:4;stroke-dasharray:none;stroke-opacity:1" />
    <path
       style="fill:none;stroke:#ffbc2b;stroke-width:0.79374999;stroke-linecap:round;stroke-linejoin:miter;stroke-miterlimit:4;stroke-dasharray:none;stroke-opacity:1"
       d="m 323.32948,-16.191058 2.26785,63.499993 54.80655,-15.497025"
       id="path871"
       inkscape:connector-curvature="0" />
    <path
       style="fill:none;stroke:#ffbc2b;stroke-width:0.79374999;stroke-linecap:round;stroke-linejoin:miter;stroke-miterlimit:4;stroke-dasharray:none;stroke-opacity:1"
       d="m 325.59733,47.308932 41.19941,37.419657"
       id="path873"
       inkscape:connector-curvature="0" />
    <path
       style="fill:none;stroke:#ffbc2b;stroke-width:0.79374999;stroke-linecap:round;stroke-linejoin:miter;stroke-miterlimit:4;stroke-dasharray:none;stroke-opacity:1"
       d="m 325.25129,39.264195 7.21627,-1.737253 0.13364,7.617187 4.2763,3.207236 -7.61717,2.138157"
       id="path875"
       inkscape:connector-curvature="0" />
    <ellipse
       style="opacity:1;fill:#ffbc2b;fill-opacity:1;stroke:#ffbc2b;stroke-width:0.79374999;stroke-linecap:round;stroke-miterlimit:4;stroke-dasharray:none;stroke-opacity:1"
       id="path877"
       cx="328.97546"
       cy="42.347984"
       rx="0.5433408"
       ry="0.51971728" />
    <ellipse
       ry="0.51971728"
       rx="0.5433408"
       cy="47.73415"
       cx="330.95984"
       id="ellipse879"
       style="opacity:1;fill:#ffbc2b;fill-opacity:1;stroke:#ffbc2b;stroke-width:0.79374999;stroke-linecap:round;stroke-miterlimit:4;stroke-dasharray:none;stroke-opacity:1" />
    <path
       id="path1225"
       style="font-style:normal;font-variant:normal;font-weight:normal;font-stretch:normal;font-size:31.75px;line-height:2;font-family:'Rock Salt';-inkscape-font-specification:'Rock Salt';text-align:center;letter-spacing:1.32291663px;word-spacing:0px;text-anchor:middle;fill:#3dd200;fill-opacity:1;stroke:#3dd200;stroke-width:0.26458332;stroke-opacity:1"
       d="m 113.53575,-165.09687 c -3.10687,2.43992 -3.35391,10.55233 -5.42603,15.13086 -1.95838,2.96931 -5.38407,14.35378 -9.193237,7.4414 -4.350031,-4.72343 -1.644309,-14.41044 -7.146851,-17.08422 -4.707972,0.16002 -1.495142,7.20286 -3.007569,10.604 -1.046612,7.16869 -3.542565,14.66136 -3.65869,22.47925 -0.706845,7.67566 8.42264,2.16915 3.038573,-1.0542 0.502023,-7.72532 3.281161,-15.79442 4.061769,-23.59546 1.853359,4.85935 2.152081,10.75189 6.511229,14.10766 5.737166,4.35739 8.633386,-5.27817 11.038086,-9.11572 -1.04533,5.39815 -1.74364,11.48026 -1.79834,16.86719 -0.87254,4.36853 3.52353,12.73463 8.03052,8.61963 -0.0789,-1.29618 -1.55574,-1.27362 -2.41846,-1.70532 -5.06073,-6.54327 -1.34686,-16.28066 -0.5271,-23.84351 -0.69767,-6.08799 5.04082,-14.27915 0.4961,-18.85156 z m 153.39372,7.24865 c -0.49355,0.0223 -1.1267,0.65289 -1.91201,2.17713 0.14412,9.39705 -5.12042,17.66772 -3.48041,26.85107 0.75209,7.06632 10.94592,8.15715 15.99901,3.31763 3.09295,-2.26575 7.45945,-4.1334 10.35648,-6.92309 0.32869,3.68623 2.06055,7.13576 6.19032,6.89208 5.12419,1.97625 12.43143,-13.1134 5.82909,-8.35194 -0.81354,5.25235 -10.0298,6.70503 -8.5576,-0.39171 -1.06609,-5.85955 7.78483,-3.12904 11.22413,-5.48803 2.11378,-5.23019 -7.23421,-0.77111 -10.13892,-1.67432 -1.01089,-7.88234 11.54137,-4.46866 15.78198,-7.00733 -3.01821,-2.73837 -10.84906,-1.49643 -15.19288,-0.15503 -5.31313,1.21469 -4.19746,6.57639 -4.71289,10.94507 -0.13653,0.51139 -0.24583,1.06514 -0.32711,1.64228 -1.43438,0.77404 -2.83125,2.75581 -4.22042,3.28765 -5.23123,2.15945 -10.22437,8.58625 -16.61914,6.01514 -5.97896,-5.72924 -0.054,-14.26943 0.27906,-21.11499 1.24423,-2.4232 1.26402,-10.10115 -0.49869,-10.02161 z m -85.43198,4.99349 c -0.62998,0.0506 -1.05614,0.99514 -0.86507,3.38481 2.69756,8.75429 -11.06243,8.05731 -7.34839,-0.71313 -5.18349,-7.54114 -0.48697,9.67674 -5.95312,9.45678 -5.94937,1.31682 -2.92883,5.73823 1.20923,2.57349 0.72451,1.47887 1.49458,13.00567 6.41821,7.53442 -9.34334,-5.09378 8.20998,-17.3196 6.10815,-5.79809 -0.0789,3.6546 2.50975,12.82995 4.65088,5.55005 -1.13637,-4.09974 -2.70259,-9.78436 1.11621,-12.34034 -0.86357,-1.57843 -2.89309,-0.79553 -2.51147,-3.22461 0.70263,-2.59668 -1.36154,-6.28708 -2.69596,-6.42183 -0.0437,-0.004 -0.0867,-0.004 -0.12867,-0.002 z m -51.67643,0.34313 c -0.4632,0.0169 -0.98287,0.16541 -1.56787,0.46819 -2.76815,7.53206 -6.52565,15.37674 -11.84424,21.146 -2.56518,6.0353 4.36241,2.06479 5.45703,-1.42627 3.66021,-0.26019 7.71357,-1.02387 11.19312,-1.33325 1.07335,4.36921 6.2311,5.65774 9.0227,2.6665 l -0.40307,-0.5271 c -6.81497,-0.58231 0.90186,-4.15038 -5.73608,-4.89892 -2.42281,-4.11534 -1.64402,-16.25872 -6.12159,-16.09515 z m 189.07371,0 c -0.46318,0.0169 -0.98279,0.16541 -1.56786,0.46819 -2.76755,7.53206 -6.52563,15.37674 -11.84424,21.146 -2.56516,6.0353 4.3624,2.06479 5.45704,-1.42627 3.66019,-0.26019 7.71358,-1.02387 11.19311,-1.33325 1.07337,4.36921 6.2311,5.65774 9.02272,2.6665 l -0.40309,-0.5271 c -6.81496,-0.58231 0.90135,-4.15038 -5.73606,-4.89892 -2.42282,-4.11534 -1.64405,-16.25872 -6.12162,-16.09515 z m 116.22651,0.48318 c -4.7658,-0.052 -8.89619,6.96782 -11.09286,10.74405 -3.41326,5.60854 3.26871,12.44464 9.17773,10.94507 6.05179,-2.89801 16.18287,8.44626 10.13891,-3.22461 -4.82592,-5.1338 -0.73527,-10.72309 5.82912,-10.51099 2.87051,-1.23948 5.44401,0.0565 7.59642,-1.79834 -0.52911,-1.06406 0.90334,-2.85441 -2.35646,-1.89136 -7.94342,0.84932 -16.01319,3.87025 -23.13035,6.20117 -1.82472,7.88314 11.38275,-4.9565 7.78246,5.92212 0.92747,4.78245 -13.9822,3.95568 -12.55737,-2.79052 0.42834,-7.60657 8.45871,-8.49651 11.31713,-12.77442 -0.91789,-0.56017 -1.82218,-0.81253 -2.70473,-0.82217 z m -85.60099,1.29398 c -3.35385,0.0347 -7.03931,0.74578 -9.29036,1.51257 -3.14754,0.47214 -9.05349,1.52096 -9.70484,5.36401 1.90442,2.46038 6.29465,-3.02458 4.65087,2.54248 -1.38681,4.01537 1.08784,18.51027 5.27101,11.84424 -3.55958,-3.96735 -2.04984,-10.57713 -1.64333,-15.56494 5.10437,-2.71308 20.68602,-4.11994 10.72803,3.81372 -10.31933,3.36698 -6.56926,14.79538 3.37963,10.82104 3.05618,-0.95518 6.61157,-1.06407 10.01128,-1.40818 -0.53073,4.92341 0.20619,9.01074 4.92323,5.68699 -1.76405,-1.66479 -1.89344,-3.89465 -1.51154,-6.16706 1.56843,-0.30947 3.0456,-0.76448 4.35528,-1.49035 2.78982,3.91204 6.57106,9.02274 10.89184,5.89008 6.0207,-5.72606 -1.40681,-15.26201 2.63552,-21.20801 l -0.43411,-0.43408 c -7.78954,-4.42829 -1.95527,7.59793 -2.91454,11.53418 2.76172,13.4179 -9.45769,3.4474 -10.20093,-3.90674 -0.003,-8.57638 -6.91041,-9.53946 -5.55006,0.37207 -0.50742,1.38053 -1.25206,4.0349 -1.76525,6.82336 -3.47316,0.37028 -7.05048,1.18653 -10.31668,1.23816 -11.92025,2.97262 -1.89617,-6.23633 2.32542,-8.92968 4.41931,-6.57116 -0.25069,-8.39176 -5.84047,-8.33386 z m -131.1465,0.23823 c -3.4008,0.0966 0.62645,9.17725 -0.18294,12.49846 2.76173,13.4179 -9.45768,3.4474 -10.20093,-3.90674 -0.001,-8.57638 -6.91101,-9.53946 -5.55004,0.37207 -1.59538,4.33544 -5.53011,21.22921 2.72851,15.40991 -3.14082,-2.96413 -1.09974,-7.71967 -0.21704,-11.31714 2.63263,1.4967 7.73711,14.05619 13.95264,9.54981 6.02069,-5.72606 -1.40683,-15.26201 2.6355,-21.20801 l -0.43408,-0.43408 c -1.21713,-0.69192 -2.10184,-0.98218 -2.73162,-0.96428 z m 198.4995,0 c -3.4008,0.0966 0.62645,9.17725 -0.18293,12.49846 2.76174,13.4179 -9.45769,3.4474 -10.20094,-3.90674 -0.003,-8.57638 -6.91099,-9.53946 -5.55003,0.37207 -1.59538,4.33544 -5.53011,21.22921 2.72852,15.40991 -3.14082,-2.96413 -1.09974,-7.71967 -0.21704,-11.31714 2.63263,1.4967 7.73711,14.05619 13.95262,9.54981 6.0207,-5.72606 -1.40682,-15.26201 2.63551,-21.20801 l -0.43407,-0.43408 c -1.21714,-0.69192 -2.10185,-0.98218 -2.73164,-0.96428 z m -177.31372,0.41599 c -3.17287,8e-4 -6.71935,0.72393 -9.16274,1.47846 -5.31313,1.21469 -4.19744,6.57639 -4.71289,10.94507 -1.22668,4.59518 -0.40797,12.48765 5.76709,12.12329 5.12418,1.97625 12.43142,-13.1134 5.8291,-8.35194 -0.81354,5.25235 -10.02982,6.70503 -8.55762,-0.39171 -1.06609,-5.85955 7.78485,-3.12904 11.22412,-5.48803 2.11378,-5.23019 -7.2336,-0.77111 -10.13891,-1.67432 -1.01087,-7.88234 11.54139,-4.46866 15.78198,-7.00733 -1.32047,-1.19803 -3.56234,-1.63418 -6.03013,-1.63349 z m -82.87039,0.53899 c -3.43396,-0.0871 -7.43258,1.68465 -9.96683,3.23391 -6.45599,2.83782 -4.89186,13.46911 2.01538,14.78979 5.47465,0.76859 13.90896,2.16057 17.67334,-2.79052 -4.37318,0.38616 -8.68801,2.51388 -13.36353,1.02319 -4.97616,0.36787 -9.87105,-6.24852 -5.11596,-9.98389 5.84565,-6.94941 10.90029,2.61036 13.89062,-3.65869 -1.21557,-1.84019 -3.07264,-2.56155 -5.13302,-2.61379 z m 36.33318,1.46812 c -0.41945,-0.0223 -0.76373,1.02789 -0.8971,3.75016 -1.53197,3.53593 -1.21271,15.57514 4.71289,11.34815 -0.97842,-0.24705 -0.33283,-3.12129 -1.67431,-2.13941 1.05198,-3.17399 -0.88311,-12.89209 -2.14148,-12.9589 z m 198.49951,0 c -0.41945,-0.0223 -0.76372,1.02789 -0.8971,3.75016 -1.53204,3.53593 -1.21277,15.57514 4.71289,11.34815 -0.97848,-0.24705 -0.33282,-3.12129 -1.67431,-2.13941 1.05198,-3.17399 -0.88313,-12.89209 -2.14148,-12.9589 z m -262.48165,2.21279 c 1.51209,-0.0766 2.42186,6.13761 3.33675,9.90896 -3.77736,0.72514 -12.17514,1.94291 -5.8291,-5.08497 0.99315,-3.45465 1.80504,-4.78916 2.49235,-4.82399 z m 189.07374,0 c 1.51207,-0.0766 2.42184,6.13761 3.33674,9.90896 -3.77735,0.72514 -12.17514,1.94291 -5.82911,-5.08497 0.99316,-3.45465 1.80504,-4.78916 2.49237,-4.82399 z m 49.51479,8.42067 c 0.69514,0.39519 1.56763,1.56853 2.58175,2.98845 -1.05265,-0.27286 -2.15043,-0.40125 -3.27575,-0.4315 0.2422,-0.88673 0.49675,-1.75297 0.694,-2.55695 z"
       inkscape:connector-curvature="0" />
    <path
       id="text1110"
       style="font-style:normal;font-variant:normal;font-weight:normal;font-stretch:normal;font-size:31.75px;line-height:2;font-family:'Rock Salt';-inkscape-font-specification:'Rock Salt';text-align:center;letter-spacing:1.32291663px;word-spacing:0px;text-anchor:middle;fill:#ffbc2b;fill-opacity:1;stroke:#ffbc2b;stroke-width:0.26458332;stroke-opacity:1"
       d="m 258.51977,-224.28396 c -0.39899,-0.046 -1.12864,1.35826 -2.35075,5.14387 -3.60201,6.39972 -1.27145,22.54798 8.61963,18.01441 9.60768,-11.82701 4.38933,3.19387 4.40282,9.95288 -2.46636,11.48646 12.05968,6.69894 3.81373,3.13159 -2.34616,-10.2498 2.9101,-20.35015 3.47266,-30.44775 -2.77842,-9.98134 -4.11557,2.52365 -4.7439,5.51904 -2.06939,7.48253 -15.59258,13.31427 -13.95264,1.92236 0.61621,-3.5287 1.7581,-13.11879 0.73845,-13.2364 z m -139.18218,2.93574 c -0.49356,0.0223 -1.12673,0.65289 -1.91204,2.17713 0.14412,9.39705 -5.1204,17.66772 -3.48041,26.85107 0.75216,7.06632 10.94594,8.15715 15.99901,3.31763 3.09295,-2.2658 7.45948,-4.1334 10.35648,-6.92309 0.32872,3.68623 2.06055,7.13576 6.19032,6.89208 5.12419,1.97625 12.43142,-13.1134 5.82912,-8.35194 -0.81357,5.25235 -10.02983,6.70503 -8.55763,-0.39171 -1.06609,-5.85955 7.78486,-3.12899 11.22412,-5.48803 2.11379,-5.23018 -7.2336,-0.77111 -10.13891,-1.67432 -1.01089,-7.88234 11.54137,-4.4686 15.78197,-7.00732 -3.0182,-2.73838 -10.84905,-1.49644 -15.19287,-0.15503 -5.31313,1.21468 -4.19746,6.57633 -4.71289,10.94506 -0.13648,0.51124 -0.24583,1.06481 -0.32711,1.64176 -1.4346,0.77382 -2.83107,2.75625 -4.22042,3.28818 -5.23124,2.15944 -10.22437,8.58624 -16.61914,6.01513 -5.979,-5.72924 -0.054,-14.26943 0.27906,-21.11499 1.24425,-2.42325 1.26396,-10.10115 -0.49866,-10.02161 z m 51.96477,5.33662 c -0.46321,0.0169 -0.98229,0.16536 -1.56734,0.46819 -2.76815,7.53206 -6.52566,15.37674 -11.84426,21.146 -2.56518,6.0353 4.36243,2.06485 5.45703,-1.42627 3.6602,-0.26019 7.71359,-1.02387 11.19312,-1.33325 1.07336,4.36921 6.23113,5.65774 9.02272,2.6665 l -0.40307,-0.5271 c -6.81498,-0.58231 0.90191,-4.15038 -5.73609,-4.89892 -2.42281,-4.1154 -1.64454,-16.25872 -6.12211,-16.09515 z m 123.47929,1.46452 c -3.96218,-0.0889 -8.87634,3.97993 -11.67889,6.60011 -6.04255,3.77395 -5.36922,16.94807 3.84474,14.47973 8.47138,-0.82839 12.79583,-8.98853 12.83642,-16.71215 -1.11236,-3.13391 -2.92685,-4.32115 -5.00227,-4.36769 z m 78.65153,0 c -3.96217,-0.0889 -8.87635,3.97993 -11.67887,6.60011 -6.04255,3.77395 -5.36922,16.94807 3.84471,14.47973 8.47141,-0.82839 12.79583,-8.98853 12.83642,-16.71215 -1.11236,-3.13391 -2.92685,-4.32115 -5.00226,-4.36769 z m -171.5048,0.31264 c -3.35385,0.0347 -7.03873,0.74578 -9.29036,1.51257 -3.14751,0.47214 -9.05352,1.52091 -9.70484,5.36401 1.90439,2.46038 6.29465,-3.02458 4.65087,2.54248 -1.38681,4.01537 1.08784,18.51027 5.271,11.84424 -3.55954,-3.9674 -2.0498,-10.57713 -1.64332,-15.56494 5.10436,-2.71308 20.68602,-4.11994 10.72803,3.81372 -10.31933,3.36698 -6.56926,14.79538 3.37966,10.82104 3.05599,-0.95513 6.61119,-1.06411 10.01074,-1.40818 -0.53072,4.92341 0.20672,9.01079 4.92374,5.68699 -1.76403,-1.66479 -1.89344,-3.89464 -1.51154,-6.16706 1.56856,-0.30949 3.04552,-0.76438 4.35528,-1.49035 2.78982,3.91204 6.57106,9.02273 10.89184,5.89008 6.0207,-5.72606 -1.40682,-15.26201 2.63551,-21.20801 l -0.4341,-0.43408 c -7.78957,-4.42829 -1.95527,7.59793 -2.91454,11.53418 2.76175,13.4179 -9.45769,3.4474 -10.20093,-3.90674 -0.003,-8.57638 -6.911,-9.53946 -5.55003,0.37207 -0.50803,1.38053 -1.25259,4.0349 -1.76581,6.82336 -3.47313,0.37029 -7.04995,1.18653 -10.31615,1.23816 -11.92022,2.97262 -1.89672,-6.23633 2.32545,-8.92968 4.4193,-6.57116 -0.25072,-8.39176 -5.8405,-8.33386 z m 147.29386,0.14831 c -1.80189,-0.003 -4.76067,1.34939 -5.97948,2.98896 -5.35,2.90224 -8.03836,12.36567 0.72451,12.51397 8.3988,-0.30786 10.36921,6.41402 -0.31006,5.55005 -2.4738,6.32832 12.2419,2.28307 11.99927,-3.10059 -0.82121,-6.07182 -8.28429,-4.64794 -12.49537,-5.79809 -4.50053,-2.64513 3.06345,-8.35158 6.13916,-8.24756 2.20138,-2.84627 1.51188,-3.90409 -0.078,-3.90674 z m 56.91849,0.031 c -0.43961,-0.001 -0.9421,0.0776 -1.51567,0.24805 -1.10294,5.41489 -9.9687,17.81227 -13.70459,8.21655 1.13226,-7.00189 -6.80284,-12.29582 -7.4104,-2.79052 -0.93387,5.46982 -3.00289,12.47847 -0.093,16.9602 5.70219,0.66765 1.09855,-4.15868 1.92236,-7.4414 1.15347,-8.10048 1.0732,-9.91939 4.68188,-0.58911 6.13135,3.50961 12.22917,-3.13509 15.03783,-8.03052 -1.95784,3.31602 -0.45659,20.62722 6.66626,11.34814 -1.78719,-0.89623 -4.81087,0.63017 -3.7827,-2.79053 -0.21894,-3.91578 3.38534,-15.1146 -1.80197,-15.13086 z m 21.55838,0.47491 c -3.17288,8e-4 -6.71936,0.72393 -9.16276,1.47847 -5.31312,1.21468 -4.19745,6.57633 -4.71289,10.94506 -1.22669,4.59518 -0.40796,12.48765 5.7671,12.12329 5.12418,1.97625 12.43142,-13.1134 5.82911,-8.35194 -0.81356,5.25235 -10.02982,6.70503 -8.55763,-0.39171 -1.06608,-5.85955 7.78486,-3.12899 11.22413,-5.48803 2.11378,-5.23018 -7.2336,-0.77111 -10.13891,-1.67432 -1.0109,-7.88234 11.54136,-4.4686 15.78197,-7.00732 -1.32046,-1.19804 -3.56232,-1.63419 -6.03012,-1.6335 z m -120.88151,3.06183 c -0.50686,0.0173 -1.25261,1.06729 -2.17609,3.81165 -4.78859,4.14015 -1.03717,18.07122 5.64306,11.00708 5.70563,-10.64964 5.9296,4.582 12.27833,-1.55029 -2.53722,-1.38221 -3.31866,-3.08378 -3.00757,-6.3562 0.78936,-11.18676 -6.42027,-4.37832 -7.31739,2.29443 -2.03846,3.42176 -8.18637,5.92379 -6.20118,-1.36425 1.8541,-2.91909 1.89593,-7.88035 0.78084,-7.84242 z m -13.67874,0.4284 c 1.20456,-2.7e-4 2.39575,0.46497 3.54449,1.5229 -0.43352,2.41821 -0.66861,5.39967 -2.32545,7.3794 -5.50783,9.65653 -18.06038,1.4675 -7.22437,-5.61206 1.95231,-1.99623 3.99769,-3.28973 6.00533,-3.29024 z m 78.65152,0 c 1.20457,-2.7e-4 2.39575,0.46497 3.54449,1.5229 -0.43352,2.41821 -0.6686,5.39967 -2.32545,7.3794 -5.50783,9.65653 -18.06035,1.4675 -7.22437,-5.61206 1.95231,-1.99623 3.9977,-3.28973 6.00533,-3.29024 z m -201.26886,0.72967 c 1.5121,-0.0766 2.42237,6.13761 3.33727,9.90896 -3.77735,0.72514 -12.17512,1.94291 -5.82909,-5.08497 0.99314,-3.45465 1.80451,-4.78916 2.49182,-4.82399 z m 49.51534,8.42067 c 0.69509,0.39519 1.56652,1.56856 2.58123,2.98845 -1.05307,-0.27277 -2.15011,-0.40125 -3.27526,-0.4315 0.2422,-0.88673 0.49676,-1.75297 0.69403,-2.55695 z m -10.3043,104.024661 c -6.37305,1.390891 -9.33836,8.179157 -12.1543,13.425537 -3.94718,8.402908 -11.51167,23.163951 0.4031,28.432371 7.70953,1.045504 15.45444,-6.214015 17.67334,-12.929441 0.2726,-5.486874 3.2221,-6.326944 8.71263,-7.813477 0.75136,-0.398737 1.6711,-0.592179 2.65514,-0.707966 -0.65029,5.131792 1.74162,16.607353 5.55109,10.536822 -2.50002,-2.786441 -2.49846,-6.875169 -2.13579,-10.791071 2.36955,-0.189344 4.52083,-0.653942 5.2157,-2.913518 -1.26132,-1.428559 -2.96598,-1.531297 -4.78835,-1.156517 0.0228,-0.236625 0.0464,-0.473697 0.0651,-0.703834 5.10436,-2.713077 20.68602,-4.119941 10.72803,3.81372 -10.31933,3.366984 -6.56926,14.795375 3.37963,10.821045 3.13259,-0.979069 6.78981,-1.068943 10.26604,-1.434539 0.45628,3.455406 2.21716,6.533084 6.12574,6.30246 5.12419,1.976244 12.43142,-13.113409 5.82909,-8.351946 -0.72766,4.697799 -8.17623,6.354654 -8.68783,1.57458 1.76144,-0.356216 3.40587,-0.899271 4.82243,-1.811258 -1.49913,-0.55186 -3.10507,-0.75784 -4.76663,-0.76636 -0.34126,-5.049925 7.98631,-2.604804 11.29853,-4.876705 2.11381,-5.230182 -7.2336,-0.771101 -10.13892,-1.674317 -1.01086,-7.882335 11.54139,-4.468601 15.782,-7.007323 -3.0182,-2.738377 -10.84908,-1.496431 -15.19287,-0.15503 -5.31315,1.214686 -4.19746,6.576327 -4.71289,10.945066 -0.23921,0.896117 -0.39929,1.918446 -0.45837,2.979663 -3.38709,0.382612 -6.86176,1.155833 -10.04229,1.20613 -11.92022,2.972617 -1.89674,-6.236332 2.32545,-8.929687 7.07086,-10.513843 -9.12651,-8.866045 -15.13086,-6.821289 -3.1475,0.472141 -9.05351,1.520904 -9.70483,5.364011 1.55805,2.012918 4.77787,-1.288793 4.99814,0.490927 -1.41997,0.495958 -2.80366,0.98766 -3.99564,1.090374 -6.8149,4.544758 -27.00543,1.256932 -25.92088,10.200928 5.73127,-0.242776 11.8128,-3.279788 17.23924,-4.12378 -1.08243,5.713852 -7.39507,13.580026 -14.63476,14.324706 -9.41877,-2.795606 -4.01254,-14.173478 -1.61229,-20.463867 -0.47353,-8.961789 15.04931,-10.606968 11.00706,-18.076415 z m 144.92139,0 c -6.37304,1.390891 -9.33836,8.179157 -12.1543,13.425537 -3.94718,8.402908 -11.51167,23.163951 0.4031,28.432371 7.70951,1.045504 15.45444,-6.214015 17.67332,-12.929441 0.24937,-5.01917 2.76439,-6.152904 7.38973,-7.447092 -1.15387,4.955781 1.14197,10.665026 7.48276,8.966377 8.4714,-0.828389 12.79581,-8.988531 12.83642,-16.712157 -3.23601,-9.116817 -12.41063,-1.760223 -16.68116,2.232422 -0.83111,0.519078 -1.53458,1.216654 -2.10685,2.026234 -0.31689,0.06746 -0.62534,0.118666 -0.92138,0.144177 -6.8149,4.544758 -27.00547,1.256932 -25.92089,10.200928 5.73127,-0.242776 11.81277,-3.279788 17.23924,-4.12378 -1.08243,5.713852 -7.3951,13.580026 -14.63476,14.324706 -9.41877,-2.795606 -4.01257,-14.173478 -1.61229,-20.463867 -0.47353,-8.961789 15.04929,-10.606968 11.00706,-18.076415 z m 88.84573,3.183268 c -0.76073,-0.02577 -1.36289,0.378116 -1.26452,1.467609 0.96954,6.947837 -1.79684,13.586524 -3.50364,20.30884 -4.4473,6.067811 6.72598,7.154651 3.1936,2.604492 0.7175,-7.26654 4.48898,-14.302316 4.18579,-21.859131 0.36454,-1.242687 -1.34332,-2.478858 -2.61123,-2.52181 z m -157.25859,4.720124 c -0.46321,0.01693 -0.98229,0.165352 -1.56737,0.468188 -2.76815,7.532061 -6.52563,15.376734 -11.84423,21.145998 -2.56519,6.035296 4.3624,2.064848 5.45703,-1.426269 3.6602,-0.260196 7.71359,-1.023868 11.19312,-1.333254 1.07334,4.369216 6.2311,5.657742 9.02272,2.666506 l -0.4031,-0.527101 c -6.81497,-0.582318 0.90192,-4.150386 -5.73608,-4.898927 -2.42282,-4.115387 -1.64452,-16.258714 -6.12209,-16.095141 z m 138.25408,0.969452 c -2.64338,-0.02529 -5.30088,0.441222 -7.42641,1.111044 -11.2336,4.16374 3.26014,2.544717 -0.27905,10.014892 -0.84307,4.801645 -0.63479,9.213529 4.15477,11.162109 6.70211,-1.43432 13.31749,-7.937582 14.7278,-14.758789 -1.13663,-5.640194 -6.13066,-7.480946 -11.17711,-7.529256 z m -288.34985,0.495059 c -3.96216,-0.08886 -8.87632,3.97994 -11.67887,6.600114 -6.04255,3.773955 -5.36921,16.948081 3.84474,14.479735 8.47141,-0.828389 12.79581,-8.988531 12.83642,-16.712157 -1.11238,-3.133905 -2.92687,-4.321143 -5.00229,-4.367692 z m 270.22642,0 c -3.96216,-0.08886 -8.87635,3.97994 -11.6789,6.600114 -6.04252,3.773955 -5.36921,16.948081 3.84474,14.479735 8.47141,-0.828389 12.79584,-8.988531 12.83642,-16.712157 -1.11236,-3.133905 -2.92684,-4.321143 -5.00226,-4.367692 z m -243.8518,0.312643 c -3.35386,0.03474 -7.03874,0.745786 -9.29037,1.51257 -3.14751,0.472141 -9.05351,1.520904 -9.70483,5.364011 1.90441,2.460392 6.29464,-3.024579 4.65087,2.542482 -1.38682,4.015372 1.08783,18.510266 5.271,11.844237 -3.55957,-3.967403 -2.04981,-10.577126 -1.64333,-15.56494 5.10437,-2.713077 20.68603,-4.119941 10.72804,3.81372 -10.31933,3.366984 -6.56926,14.795375 3.37963,10.821045 5.81683,-1.81801 13.4484,-0.56152 18.35546,-3.720703 -5.47094,-2.013934 -12.35503,0.558194 -18.23143,0.651124 -11.92022,2.972617 -1.89674,-6.236332 2.32545,-8.929687 4.41928,-6.571152 -0.25072,-8.391753 -5.84049,-8.333859 z m -47.46789,0.03876 c -7.02418,-0.04048 -14.07475,1.370016 -19.286664,6.372736 3.294089,3.109817 -0.418571,9.125529 1.457272,14.231691 3.795262,8.488318 3.923742,-0.944226 5.208982,-2.449465 3.03606,-4.994298 15.23814,-3.861617 15.4719,-8.805664 -4.34546,0.183642 -8.36773,1.929525 -12.24729,3.59668 -8.096645,5.944238 -5.770693,-10.182934 1.1472,-9.053711 4.59124,-1.740572 11.44998,1.044506 15.19288,-1.953368 -0.16134,-0.94764 -0.69995,-1.942484 -2.10841,-1.705322 -1.5952,-0.137562 -3.2149,-0.224242 -4.83587,-0.233577 z m 207.68654,0.481624 c -5.89968,2.340049 -12.58673,2.601643 -19.28564,3.28662 -5.7096,-1.934885 -10.59349,5.779079 -2.85255,3.596679 6.66853,-1.283255 0.99951,9.791068 4.99194,13.022461 3.359,3.366995 8.09083,-6.046501 2.72852,-4.2478 -0.50617,-4.478502 -3.51057,-12.137295 4.37184,-9.766848 4.47773,-2.042364 10.47351,1.119582 12.03026,-4.34082 -1.47008,0.532841 -0.60724,-1.567064 -1.98437,-1.550292 z m 102.41441,1.832962 c 3.36428,-0.03971 6.71335,1.300612 7.63572,4.833297 l -0.27906,0.744141 -0.15502,0.806153 c -2.79649,4.073954 -6.63062,8.763363 -11.0381,9.084715 -4.12226,-2.991181 0.25223,-10.611911 -1.1162,-14.386718 1.42402,-0.661226 3.19043,-1.060786 4.95266,-1.081588 z m -290.65045,1.791105 c 1.20457,-2.65e-4 2.39575,0.464968 3.54446,1.522904 -0.43352,2.418205 -0.66857,5.399665 -2.32542,7.379396 -5.50786,9.65653 -18.06035,1.467504 -7.22437,-5.612061 1.95231,-1.996223 3.9977,-3.289723 6.00533,-3.290239 z m 247.13737,0 c 1.20456,-2.65e-4 2.39575,0.464968 3.54446,1.522904 -0.43352,2.418205 -0.66858,5.399665 -2.32542,7.379396 -4.66474,8.178371 -14.3804,3.556101 -10.66345,-2.351278 3.351,-0.345601 7.37708,0.122259 8.37935,-3.13676 -0.99388,-1.125638 -2.26348,-1.427125 -3.64836,-1.321882 1.55268,-1.297919 3.14449,-2.091975 4.71342,-2.09238 z m 23.08902,0 c 1.20457,-2.65e-4 2.39575,0.464968 3.54449,1.522904 -0.43355,2.418205 -0.6686,5.399665 -2.32545,7.379396 -5.50783,9.65653 -18.06035,1.467504 -7.22437,-5.612061 1.95231,-1.996223 3.9977,-3.289723 6.00533,-3.290239 z m -119.26869,0.729673 c 1.51209,-0.07663 2.42237,6.137608 3.33727,9.908955 -3.77738,0.725149 -12.17515,1.942918 -5.82911,-5.084961 0.99316,-3.454651 1.80453,-4.789164 2.49184,-4.823994 z m 156.25453,23.110732 c -2.50844,-0.09448 -3.28107,7.905353 2.41176,2.45618 -0.87067,-1.768525 -1.70937,-2.429724 -2.41176,-2.45618 z"
       inkscape:connector-curvature="0"
       sodipodi:nodetypes="scccccccscccccccccccccccccccccccccccscccsscccssccccccccccccccccccccsccccccccccccccccccccccccccccccccccccccccccccccccccccccccccccccccccccccccccccccccccccccccccccccccccccccccccsccccscccccccccccccccscccsscccssccccccccccsccccccccccccccccccscccccscccccccccccccccccccccscs" />
    <path
       style="font-style:normal;font-variant:normal;font-weight:normal;font-stretch:normal;font-size:12.69999981px;line-height:1.25;font-family:'Rock Salt';-inkscape-font-specification:'Rock Salt';text-align:center;letter-spacing:0px;word-spacing:0px;text-anchor:middle;fill:#000000;fill-opacity:1;stroke:#000000;stroke-width:0.26458332;stroke-opacity:1"
       d="m 134.68873,278.97011 c -2.46123,1.75486 -3.726,-2.78496 -3.11299,-4.81211 -0.27431,-1.55107 1.48458,-7.87982 -0.29766,-3.64629 -0.73795,3.46392 -4.67242,2.6113 -5.12216,-0.48369 -0.58114,-1.92156 -1.0624,-4.16796 -1.35186,-1.0914 -0.0905,3.00148 -2.27703,6.41271 -0.42168,8.69404 -2.39819,2.45387 -2.31679,-2.54685 -1.78594,-3.91914 0.8023,-3.36687 1.3275,-6.67845 1.5503,-10.0583 2.60531,-1.20214 1.95385,3.10191 2.90214,4.55166 0.42384,4.51078 3.3317,2.88794 3.96875,-0.0124 1.36099,-2.03262 1.26374,-5.7239 2.69131,-6.98251 1.77619,1.94567 -0.48372,5.46361 -0.24804,7.9499 -0.4064,3.20542 -2.09983,7.9786 1.22783,9.81025 z m 3.36103,-4.91133 c -2.37026,1.6908 -2.49797,-3.12488 -1.88515,-4.53925 0.28291,-4.56319 1.6517,2.56073 1.41386,3.59667 0.37403,0.0951 0.0563,0.82925 0.47129,0.94258 z m 10.49239,-0.5333 c -2.1508,2.16672 -6.97318,2.02667 -9.11573,-0.27285 -2.17208,-4.12771 4.39594,-7.25003 7.20577,-4.99814 -0.76003,2.9963 -3.0011,-1.12758 -5.30821,1.53789 -2.84035,2.41707 1.48326,5.15941 4.00596,4.27881 1.20392,0.0489 2.0463,-0.57847 3.21221,-0.54571 z m 7.63984,-3.55947 c -2.13614,1.20965 0.18866,4.30176 -0.85576,5.8167 -1.52417,0.95136 -1.27017,-3.27691 -1.45108,-4.39043 -5.30724,-3.2884 -1.20862,4.69621 -3.88193,4.08037 -1.40053,-1.27597 0.0235,-4.65356 -2.49287,-2.95176 -1.82711,-1.4226 4.85735,-2.15189 2.07119,-5.43222 1.99904,-3.13578 0.13095,4.80112 2.6665,2.77812 2.91149,0.57241 0.70373,-6.86229 2.92696,-2.25723 -0.29229,0.98802 0.15785,1.94937 1.01699,2.35645 z m 10.02109,4.88652 c -1.18765,1.28895 -3.17444,0.52808 -3.7083,-1.0666 -1.93919,0.55312 -4.87632,-0.32129 -5.68027,2.28203 -3.06708,-0.0406 1.51066,-3.31594 1.76113,-4.99814 1.5748,-1.22445 1.0481,-5.74564 3.48506,-4.83692 1.23334,2.07951 0.32697,6.49519 3.07578,6.89571 -1.33025,1.63019 -0.16853,0.61484 1.0666,1.72392 z m -3.88193,-1.98437 c -0.5323,-2.19424 -1.06041,-6.45594 -2.33164,-2.03399 -2.53842,2.81116 0.82069,2.32405 2.33164,2.03399 z m 10.54199,-0.29766 c -1.06287,1.94055 -6.28342,4.18379 -6.53604,0.24805 1.01423,-1.55042 -1.03463,-6.33386 1.83555,-5.3082 0.89616,1.90452 -1.68268,5.3441 0.68213,6.13916 1.14842,0.0129 2.84286,-1.56408 4.01836,-1.07901 z m 22.91953,-2.59209 c -0.88192,1.79623 -3.8501,0.93015 -5.49424,1.87276 -2.41032,0.23356 -2.1436,1.4795 -2.55488,3.42304 -1.5914,4.92361 -10.82389,7.20529 -9.525,-0.63252 1.56383,-4.10638 2.71194,-9.76897 7.10654,-11.55898 1.83271,2.89845 -4.47182,3.65941 -4.30361,7.23057 -2.04888,2.6825 -2.47435,10.23494 2.71611,7.429 1.51358,-0.57015 4.67503,-4.29023 3.28663,-5.04775 -1.95553,0.84934 -4.29685,1.48238 -6.39961,1.72392 -0.43383,-3.5776 7.64239,-2.26247 10.36836,-4.08037 1.44868,-0.11115 3.61697,-1.70595 4.7997,-0.35967 z m 10.5668,3.62149 c -2.6384,1.26614 -6.32904,1.15314 -9.27696,1.67431 -4.72078,-0.77245 0.045,-4.24409 1.81075,-5.71748 0.87455,-2.18353 -5.0512,-1.20569 -5.54385,0.19844 -1.40985,2.33692 1.39085,5.03532 0.14883,6.66006 -2.78606,-1.11609 -0.98252,-5.17602 -1.78594,-6.83369 -1.27824,1.3177 -2.62431,-0.91378 -0.42168,-1.19063 2.541,-1.11133 5.82261,-1.62469 8.80566,-1.21543 3.22327,3.04341 -8.57797,8.20005 -0.0744,6.57324 2.01888,-0.0266 4.50826,-1.01975 6.3376,-0.14882 z m 4.34082,-5.02295 c 0.31853,3.94765 -3.74125,8.20296 -7.60264,6.23838 -2.36418,-3.57958 2.2081,-7.06196 5.2834,-8.01192 1.17104,-0.0589 1.95154,0.72035 2.31924,1.77354 z m -1.24023,0.64492 c -2.03925,-1.99275 -5.37244,1.49653 -5.56866,3.99355 2.38041,2.5886 5.81227,-1.45846 5.56866,-3.99355 z m 11.39775,4.30361 c -2.1508,2.16672 -6.97318,2.02667 -9.11572,-0.27285 -2.17209,-4.12771 4.39594,-7.25003 7.20576,-4.99814 -0.76003,2.9963 -3.0011,-1.12758 -5.30821,1.53789 -2.84035,2.41707 1.48326,5.15941 4.00596,4.27881 1.20392,0.0489 2.0463,-0.57847 3.21221,-0.54571 z m 7.63984,-3.55947 c -2.13614,1.20965 0.18866,4.30176 -0.85576,5.8167 -1.52417,0.95136 -1.27016,-3.27691 -1.45108,-4.39043 -5.30724,-3.2884 -1.20862,4.69621 -3.88193,4.08037 -1.40053,-1.27597 0.0235,-4.65356 -2.49287,-2.95176 -1.8271,-1.4226 4.85735,-2.15189 2.07119,-5.43222 1.99904,-3.13578 0.13095,4.80112 2.66651,2.77812 2.91148,0.57241 0.70372,-6.86229 2.92695,-2.25723 -0.29229,0.98802 0.15785,1.94937 1.01699,2.35645 z m 12.72481,4.2292 c -2.84915,3.71163 -3.44965,-3.21284 -2.66651,-4.53926 -0.98306,2.54448 -5.83514,5.78461 -6.84609,1.50068 -0.77661,-3.00941 -0.68945,1.14612 -1.0542,2.29444 1.36031,1.58382 -0.62266,4.27291 -1.31465,1.46347 -0.0532,-2.58485 0.31265,-5.35024 1.25264,-7.75146 3.31613,-1.05826 1.03734,6.13566 4.56406,4.41523 1.90506,-1.76098 4.89332,-8.04212 4.96094,-1.57509 -0.29393,1.45836 -1.41697,4.5676 1.10381,4.19199 z m 9.64902,0.65732 c -1.18766,1.28895 -3.17445,0.52808 -3.70831,-1.0666 -1.93918,0.55312 -4.87632,-0.32129 -5.68027,2.28203 -3.06708,-0.0406 1.51067,-3.31594 1.76113,-4.99814 1.5748,-1.22445 1.0481,-5.74564 3.48506,-4.83692 1.23335,2.07951 0.32697,6.49519 3.07578,6.89571 -1.33024,1.63019 -0.16853,0.61484 1.06661,1.72392 z m -3.88194,-1.98437 c -0.5323,-2.19424 -1.06041,-6.45594 -2.33164,-2.03399 -2.53841,2.81116 0.8207,2.32405 2.33164,2.03399 z m 10.542,-0.29766 c -1.06287,1.94055 -6.28342,4.18379 -6.53604,0.24805 1.01423,-1.55042 -1.03463,-6.33386 1.83555,-5.3082 0.89616,1.90452 -1.68268,5.3441 0.68213,6.13916 1.14842,0.0129 2.84286,-1.56408 4.01836,-1.07901 z m 14.3495,2.28203 c -1.18765,1.28895 -3.17444,0.52808 -3.7083,-1.0666 -1.93918,0.55312 -4.87632,-0.32129 -5.68027,2.28203 -3.06708,-0.0406 1.51066,-3.31594 1.76113,-4.99814 1.5748,-1.22445 1.0481,-5.74564 3.48506,-4.83692 1.23334,2.07951 0.32697,6.49519 3.07578,6.89571 -1.33025,1.63019 -0.16853,0.61484 1.0666,1.72392 z m -3.88193,-1.98437 c -0.5323,-2.19424 -1.06041,-6.45594 -2.33164,-2.03399 -2.53842,2.81116 0.82069,2.32405 2.33164,2.03399 z m 11.94346,-5.2586 c -1.65215,2.52881 1.7501,7.15233 -1.77354,8.9917 -2.76562,0.61808 -4.22924,-5.98654 -5.17177,-3.39824 -0.40647,1.20514 -0.23787,2.87923 0.26045,3.89434 -3.73033,1.10404 -1.04855,-4.96786 -0.85577,-7.16856 -0.0538,-4.79267 2.15608,-0.86161 2.46807,1.42627 0.92701,3.58391 4.8141,4.96848 3.81992,0.33487 0.0533,-1.51373 -2.0267,-6.56387 1.25264,-4.08038 z m 9.57462,2.03399 c -0.63395,2.71398 -3.31968,5.59116 -6.13916,5.89111 -2.68021,-1.44315 -0.90142,-4.40454 -1.46348,-6.95771 -4.18353,0.78935 0.97072,-2.74764 2.75332,-1.88516 2.08219,-0.41717 4.39041,0.8044 4.84932,2.95176 z m -1.15342,0.18603 c -0.44631,-2.51309 -6.16928,-2.8328 -4.94854,0.17364 -1.27963,2.33975 0.25538,5.95928 2.44327,3.11298 0.96039,-0.9582 2.23756,-1.8581 2.50527,-3.28662 z m 20.09178,5.22139 c -2.91047,2.12567 -8.25224,4.29081 -11.80703,2.19522 -3.15555,-2.63619 0.1995,-7.40061 1.42627,-10.26915 0.68796,-2.61569 6.45313,-5.50238 5.34541,-0.73173 -1.25541,3.10422 -3.6639,1.5194 -1.31465,-0.81856 -1.13546,-0.20005 -2.91232,1.9077 -3.44785,3.38584 -1.63551,2.29197 -3.70889,7.73365 0.80616,8.09873 3.00357,0.10847 5.89616,-1.86036 8.66923,-2.1456 l 0.31006,0.24804 z m 5.97794,-6.47402 c 0.31853,3.94765 -3.74125,8.20296 -7.60264,6.23838 -2.36418,-3.57958 2.2081,-7.06196 5.2834,-8.01192 1.17104,-0.0589 1.95154,0.72035 2.31924,1.77354 z m -1.24023,0.64492 c -2.03925,-1.99275 -5.37244,1.49653 -5.56866,3.99355 2.38041,2.5886 5.81227,-1.45846 5.56866,-3.99355 z m 8.65684,4.97334 c 0.23484,2.78833 -6.99304,3.13756 -4.30362,1.20303 6.19868,-0.75861 0.10886,-2.12285 -2.09599,-2.71612 -1.97705,-2.46196 1.83329,-5.34348 4.2168,-5.8291 0.88145,2.42247 -3.69713,1.89511 -3.42305,4.53926 1.48316,1.50068 5.20761,-0.16091 5.60586,2.80293 z m 12.66278,0 c -2.84915,3.71163 -3.44964,-3.21284 -2.6665,-4.53926 -0.98306,2.54448 -5.83514,5.78461 -6.84609,1.50068 -0.77661,-3.00941 -0.68945,1.14612 -1.0542,2.29444 1.36031,1.58382 -0.62266,4.27291 -1.31465,1.46347 -0.0532,-2.58485 0.31265,-5.35024 1.25264,-7.75146 3.31612,-1.05826 1.03734,6.13566 4.56406,4.41523 1.90506,-1.76098 4.89332,-8.04212 4.96094,-1.57509 -0.29394,1.45836 -1.41698,4.5676 1.1038,4.19199 z m 3.10059,-0.13643 c -2.37026,1.6908 -2.49797,-3.12488 -1.88515,-4.53925 0.28291,-4.56319 1.65171,2.56073 1.41386,3.59667 0.37403,0.0951 0.0563,0.82925 0.47129,0.94258 z m 9.35136,-6.44922 c -1.65215,2.52881 1.7501,7.15233 -1.77353,8.9917 -2.76563,0.61808 -4.22925,-5.98654 -5.17178,-3.39824 -0.40647,1.20514 -0.23787,2.87923 0.26045,3.89434 -3.73033,1.10404 -1.04855,-4.96786 -0.85576,-7.16856 -0.0538,-4.79267 2.15607,-0.86161 2.46806,1.42627 0.92701,3.58391 4.81411,4.96848 3.81993,0.33487 0.0533,-1.51373 -2.0267,-6.56387 1.25263,-4.08038 z m 16.47032,7.68946 c -1.00433,2.4249 -5.88607,3.96275 -7.35459,1.5875 0.82322,-1.81576 4.21572,1.8915 5.84151,-1.67432 -2.71371,-3.06268 -8.90673,-2.09749 -9.56221,-6.98252 1.16992,-3.83394 6.66273,-6.25463 10.30635,-4.73769 -0.26438,2.50841 -3.88623,0.18244 -5.60586,1.63711 -2.12391,0.62637 -5.21789,3.35923 -2.03399,5.17177 2.37,2.23084 7.30214,1.64682 8.40879,4.99815 z m 11.34814,-7.51582 c -0.95029,2.48187 -4.54031,0.94494 -6.75928,1.92236 -0.0155,0.69004 -0.74687,4.37299 1.20303,3.78272 0.28243,2.39649 -3.13234,2.37964 -2.69131,-0.18604 0.131,-2.01553 0.0965,-4.33336 -2.34404,-3.175 -2.66834,-1.62504 3.66258,-1.79475 4.94853,-1.92236 1.91529,0.23451 4.34521,-1.56124 5.64307,-0.42168 z m 7.13135,7.06933 c -1.18765,1.28895 -3.17444,0.52808 -3.7083,-1.0666 -1.93918,0.55312 -4.87632,-0.32129 -5.68027,2.28203 -3.06708,-0.0406 1.51066,-3.31594 1.76113,-4.99814 1.5748,-1.22445 1.0481,-5.74564 3.48506,-4.83692 1.23334,2.07951 0.32697,6.49519 3.07578,6.89571 -1.33025,1.63019 -0.16853,0.61484 1.0666,1.72392 z m -3.88193,-1.98437 c -0.5323,-2.19424 -1.06041,-6.45594 -2.33164,-2.03399 -2.53842,2.81116 0.82069,2.32405 2.33164,2.03399 z m 15.71377,1.32705 c -2.84915,3.71163 -3.44964,-3.21284 -2.6665,-4.53926 -0.98307,2.54448 -5.83514,5.78461 -6.8461,1.50068 -0.7766,-3.00941 -0.68945,1.14612 -1.0542,2.29444 1.36032,1.58382 -0.62266,4.27291 -1.31464,1.46347 -0.0532,-2.58485 0.31265,-5.35024 1.25263,-7.75146 3.31613,-1.05826 1.03735,6.13566 4.56407,4.41523 1.90505,-1.76098 4.89332,-8.04212 4.96093,-1.57509 -0.29393,1.45836 -1.41697,4.5676 1.10381,4.19199 z m 9.64901,0.65732 c -1.18765,1.28895 -3.17444,0.52808 -3.7083,-1.0666 -1.93918,0.55312 -4.87632,-0.32129 -5.68027,2.28203 -3.06708,-0.0406 1.51066,-3.31594 1.76113,-4.99814 1.5748,-1.22445 1.0481,-5.74564 3.48506,-4.83692 1.23334,2.07951 0.32697,6.49519 3.07578,6.89571 -1.33025,1.63019 -0.16853,0.61484 1.0666,1.72392 z m -3.88193,-1.98437 c -0.5323,-2.19424 -1.06041,-6.45594 -2.33164,-2.03399 -2.53842,2.81116 0.82069,2.32405 2.33164,2.03399 z m 13.84103,-5.08496 c -0.95029,2.48187 -4.54031,0.94494 -6.75927,1.92236 -0.0155,0.69004 -0.74688,4.37299 1.20302,3.78272 0.28244,2.39649 -3.13233,2.37964 -2.69131,-0.18604 0.131,-2.01553 0.0965,-4.33336 -2.34404,-3.175 -2.66833,-1.62504 3.66258,-1.79475 4.94854,-1.92236 1.91528,0.23451 4.3452,-1.56124 5.64306,-0.42168 z m 6.12674,0.0868 c -1.69624,1.0155 -6.71715,-0.35 -6.3128,2.80293 1.09398,0.28898 5.22443,-1.30553 3.91914,0.66973 -1.47146,0.88795 -5.14131,-0.0296 -4.29121,2.50527 0.10405,3.61318 3.41421,0.50785 4.08037,-0.66972 1.68918,2.00685 -4.23499,6.12146 -5.2958,2.30683 -0.52619,-2.26089 0.0454,-4.852 0.47129,-6.99492 1.91557,-1.13909 5.64803,-1.90971 7.42901,-0.62012 z"
       id="text1118"
       inkscape:connector-curvature="0" />
    <path
       style="fill:none;stroke:#ffbc2b;stroke-width:1.85208333;stroke-linecap:round;stroke-linejoin:miter;stroke-miterlimit:4;stroke-dasharray:none;stroke-opacity:1"
       d="M 281.15182,1.9344283 379.507,103.22958"
       id="path1120"
       inkscape:connector-curvature="0" />
    <path
       style="fill:none;stroke:#ffbc2b;stroke-width:1.85208333;stroke-linecap:round;stroke-linejoin:miter;stroke-miterlimit:4;stroke-dasharray:none;stroke-opacity:1"
       d="m 378.97784,93.06796 8.5526,17.37252 -19.77792,-7.48353"
       id="path1122"
       inkscape:connector-curvature="0" />
    <path
       style="fill:none;stroke:#ffbc2b;stroke-width:1.85208333;stroke-linecap:round;stroke-linejoin:miter;stroke-miterlimit:4;stroke-dasharray:none;stroke-opacity:1"
       d="m 399.62866,78.398062 28.25278,-0.739727 -13.90357,23.787455 z"
       id="path1124"
       inkscape:connector-curvature="0"
       sodipodi:nodetypes="cccc" />
    <path
       style="fill:none;stroke:#ffbc2b;stroke-width:1.85208333;stroke-linecap:round;stroke-linejoin:miter;stroke-miterlimit:4;stroke-dasharray:none;stroke-opacity:1"
       d="m 405.53929,81.837047 7.93751,13.60712"
       id="path1126"
       inkscape:connector-curvature="0"
       sodipodi:nodetypes="cc" />
    <path
       style="fill:none;stroke:#ffbc2b;stroke-width:1.85208333;stroke-linecap:round;stroke-linejoin:miter;stroke-miterlimit:4;stroke-dasharray:none;stroke-opacity:1"
       d="m 392.02665,90.530496 8.12648,-1.6e-5"
       id="path1128"
       inkscape:connector-curvature="0"
       sodipodi:nodetypes="cc" />
  </g>
</svg>
