<?xml version="1.0" encoding="UTF-8" standalone="no"?>
<!-- Created with Inkscape (http://www.inkscape.org/) -->

<svg
   xmlns:dc="http://purl.org/dc/elements/1.1/"
   xmlns:cc="http://creativecommons.org/ns#"
   xmlns:rdf="http://www.w3.org/1999/02/22-rdf-syntax-ns#"
   xmlns:svg="http://www.w3.org/2000/svg"
   xmlns="http://www.w3.org/2000/svg"
   xmlns:sodipodi="http://sodipodi.sourceforge.net/DTD/sodipodi-0.dtd"
   xmlns:inkscape="http://www.inkscape.org/namespaces/inkscape"
   width="16"
   height="16"
   viewBox="0 0 4.2333332 4.2333335"
   version="1.1"
   id="svg852"
   inkscape:version="0.92.4 5da689c313, 2019-01-14"
   sodipodi:docname="grad-16x16.svg">
  <defs
     id="defs846" />
  <sodipodi:namedview
     id="base"
     pagecolor="#ffffff"
     bordercolor="#666666"
     borderopacity="1.0"
     inkscape:pageopacity="0.0"
     inkscape:pageshadow="2"
     inkscape:zoom="22.627417"
     inkscape:cx="17.33498"
     inkscape:cy="7.5711141"
     inkscape:document-units="mm"
     inkscape:current-layer="layer1"
     showgrid="false"
     units="px"
     inkscape:window-width="1920"
     inkscape:window-height="1061"
     inkscape:window-x="0"
     inkscape:window-y="19"
     inkscape:window-maximized="0"
     inkscape:snap-page="true" />
  <metadata
     id="metadata849">
    <rdf:RDF>
      <cc:Work
         rdf:about="">
        <dc:format>image/svg+xml</dc:format>
        <dc:type
           rdf:resource="http://purl.org/dc/dcmitype/StillImage" />
        <dc:title></dc:title>
      </cc:Work>
    </rdf:RDF>
  </metadata>
  <g
     inkscape:label="Layer 1"
     inkscape:groupmode="layer"
     id="layer1"
     transform="translate(0,-292.76665)">
    <path
       style="fill:#87de87;fill-opacity:0.97693918;stroke:none;stroke-width:0.26458332;stroke-linecap:round;stroke-linejoin:miter;stroke-miterlimit:4;stroke-dasharray:none;stroke-opacity:1"
       d="M 0,292.76665 H 4.2333333 L 2.149102,296.99998 Z"
       id="path1124"
       inkscape:connector-curvature="0"
       sodipodi:nodetypes="cccc" />
    <path
       style="fill:none;stroke:#008000;stroke-width:0.13229167;stroke-linecap:round;stroke-linejoin:miter;stroke-miterlimit:4;stroke-dasharray:none;stroke-opacity:1"
       d="m 0.51206598,293.03168 1.69371822,3.22665"
       id="path1126"
       inkscape:connector-curvature="0"
       sodipodi:nodetypes="cc" />
    <path
       style="font-style:normal;font-variant:normal;font-weight:normal;font-stretch:normal;font-size:1.76388884px;line-height:1.25;font-family:'Rock Salt';-inkscape-font-specification:'Rock Salt';letter-spacing:0px;word-spacing:0px;fill:#000000;fill-opacity:1;stroke:none;stroke-width:0.26458332"
       d="m 1.8333257,295.77581 c -0.060916,0.11057 -0.2457041,0.0609 -0.3081718,-0.0252 -0.095502,-0.0888 -0.1033231,-0.23431 -0.1346306,-0.35655 -0.013866,-0.14121 0.00468,-0.27168 0.010443,-0.41751 0.017177,-0.15272 0.035342,-0.2998 0.060182,-0.45313 0.00773,-0.0895 0.040965,-0.23186 -0.023768,-0.0804 -0.046708,0.10283 -0.084794,0.1854 -0.1465763,0.26564 -0.057625,0.12619 -0.1773894,0.26316 -0.32047462,0.21624 -0.13695865,-0.052 -0.22943653,-0.16797 -0.2880961,-0.30285 -0.0232003,-0.0886 -0.059539,-0.16833 -0.0856968,-0.26043 -0.0310352,-0.0661 -0.0546813,-0.2623 -0.0908644,-0.25655 -0.0196521,0.11547 -0.0247056,0.21222 -0.0495233,0.3177 -0.0292662,0.16113 -0.0519445,0.31257 -0.0895725,0.46768 -0.040051,0.14243 -0.046413,0.29588 -0.0956014,0.42719 -0.0166206,0.1565 0.16936278,0.15446 0.11336517,0.29875 -0.0813532,0.13195 -0.23405637,0.10128 -0.24729326,-0.046 -0.0254612,-0.11497 -0.03891376,-0.2277 -0.0120578,-0.34924 0.0144948,-0.12813 0.0612762,-0.25414 0.0667487,-0.38585 0.0583679,-0.0954 0.0376492,-0.25201 0.0792372,-0.36691 0.0138925,-0.0761 0.0427171,-0.19888 0.0546909,-0.31006 0.0172264,-0.0937 0.008215,-0.18427 0.0262689,-0.27733 0.008375,-0.10756 -0.0416846,-0.29345 0.11541069,-0.25321 0.22719365,-0.0586 0.16362032,0.26847 0.2273763,0.40652 0.0395257,0.15737 0.0787109,0.28447 0.144694,0.43753 0.0478615,0.10607 0.13807613,0.27297 0.24589372,0.21101 0.090697,-0.0961 0.1448973,-0.21812 0.2062751,-0.33762 0.1048946,-0.15544 0.125872,-0.33714 0.207567,-0.50384 0.019251,-0.14076 0.080917,-0.28976 0.110243,-0.42031 -0.02028,-0.0966 0.073125,-0.17837 0.1343587,-0.0654 0.1260861,0.0831 0.018513,0.30567 0.0099,0.43882 -0.054473,0.14765 -0.037823,0.31077 -0.071736,0.46495 -0.012078,0.10352 -0.020036,0.20122 -0.051857,0.30546 -0.011224,0.14039 -0.035502,0.26859 -0.062012,0.40652 -0.00142,0.15232 -0.02073,0.29688 0.00603,0.447 0.038718,0.12013 0.060413,0.27193 0.212304,0.29498 0.025456,0.009 0.049419,0.0331 0.046939,0.0625 z m 2.289727,-0.84061 c -0.022645,0.1519 -0.199605,0.20565 -0.2997233,0.31523 -0.1029759,0.0503 -0.1853608,0.1286 -0.2738851,0.1912 -0.165393,0.0563 -0.2860182,0.2127 -0.4703632,0.2193 -0.1572622,0.0464 -0.3376178,-0.0145 -0.4270842,-0.0901 -0.08006,-0.0886 -0.1326887,-0.17797 -0.1421102,-0.28551 -0.033523,-0.14176 -0.012438,-0.30626 0.024977,-0.43451 0.00823,-0.14807 0.087378,-0.27949 0.096463,-0.43408 0.036671,-0.15725 0.066032,-0.32217 0.08096,-0.48748 -0.00265,-0.10704 -0.00632,-0.27084 0.1498617,-0.22394 0.095019,0.10247 0.029499,0.23705 0.022393,0.3592 -0.00614,0.10066 -0.033092,0.18979 -0.049875,0.28633 -0.038603,0.15294 -0.051519,0.30772 -0.1033237,0.45507 -0.035016,0.15768 -0.064906,0.32536 -0.017333,0.48587 0.062762,0.20546 0.3139179,0.2277 0.4808168,0.14633 0.1053498,-0.0627 0.2155014,-0.12776 0.3287807,-0.1825 0.074443,-0.0812 0.2036802,-0.1147 0.2997233,-0.19637 0.088569,-0.0449 0.2099813,-0.23497 0.2997233,-0.12403 z"
       id="text1439"
       inkscape:connector-curvature="0" />
  </g>
</svg>
