<?xml version="1.0" encoding="UTF-8" standalone="no"?>
<!-- Created with Inkscape (http://www.inkscape.org/) -->

<svg
   xmlns:dc="http://purl.org/dc/elements/1.1/"
   xmlns:cc="http://creativecommons.org/ns#"
   xmlns:rdf="http://www.w3.org/1999/02/22-rdf-syntax-ns#"
   xmlns:svg="http://www.w3.org/2000/svg"
   xmlns="http://www.w3.org/2000/svg"
   xmlns:sodipodi="http://sodipodi.sourceforge.net/DTD/sodipodi-0.dtd"
   xmlns:inkscape="http://www.inkscape.org/namespaces/inkscape"
   width="2048"
   height="2048"
   viewBox="0 0 541.86665 541.86668"
   version="1.1"
   id="svg852"
   inkscape:version="0.92.4 5da689c313, 2019-01-14"
   sodipodi:docname="jupyter-logo.svg">
  <defs
     id="defs846">
    <filter
       inkscape:collect="always"
       style="color-interpolation-filters:sRGB"
       id="filter1411"
       x="-0.020056064"
       width="1.0401121"
       y="-0.13138823"
       height="1.2627765">
      <feGaussianBlur
         inkscape:collect="always"
         stdDeviation="4.1125375"
         id="feGaussianBlur1413" />
    </filter>
  </defs>
  <sodipodi:namedview
     id="base"
     pagecolor="#ffffff"
     bordercolor="#666666"
     borderopacity="1.0"
     inkscape:pageopacity="0.0"
     inkscape:pageshadow="2"
     inkscape:zoom="0.24748737"
     inkscape:cx="767.15177"
     inkscape:cy="920.37519"
     inkscape:document-units="px"
     inkscape:current-layer="layer1"
     showgrid="false"
     units="px"
     inkscape:window-width="1920"
     inkscape:window-height="1061"
     inkscape:window-x="0"
     inkscape:window-y="19"
     inkscape:window-maximized="0"
     inkscape:snap-global="true"
     showguides="false"
     inkscape:snap-page="true" />
  <metadata
     id="metadata849">
    <rdf:RDF>
      <cc:Work
         rdf:about="">
        <dc:format>image/svg+xml</dc:format>
        <dc:type
           rdf:resource="http://purl.org/dc/dcmitype/StillImage" />
        <dc:title></dc:title>
      </cc:Work>
    </rdf:RDF>
  </metadata>
  <g
     inkscape:groupmode="layer"
     id="layer2"
     inkscape:label="background"
     sodipodi:insensitive="true">
    <rect
       style="opacity:1;fill:#ffffff;fill-opacity:0.98039216;stroke:none;stroke-width:15.875;stroke-linecap:round;stroke-miterlimit:4;stroke-dasharray:none;stroke-opacity:1"
       id="rect1446"
       width="541.86664"
       height="541.86664"
       x="0"
       y="0" />
  </g>
  <g
     inkscape:label="logo"
     inkscape:groupmode="layer"
     id="layer1"
     transform="translate(0,244.86667)">
    <path
       style="fill:#ff6600;fill-opacity:1;stroke:none;stroke-width:0.26458332px;stroke-linecap:butt;stroke-linejoin:miter;stroke-opacity:1"
       d="m 63.499999,-53.761911 c 11.52152,-65.155919 68.319351,-117.821519 133.386431,-127.579169 46.95396,-8.27219 95.9077,-8.84652 142.8319,-0.50098 44.61826,12.31799 85.04599,41.27695 112.0088,78.58035 13.27442,17.497911 31.85827,75.434286 -4.93613,43.625029 -33.79902,-24.749439 -75.75967,-36.351182 -116.8646,-41.961539 -82.39548,-8.4898 -165.38842,10.369587 -242.744244,37.457133 -8.018541,3.165512 -15.927996,6.610952 -23.682157,10.379176 z"
       id="path856"
       inkscape:connector-curvature="0" />
    <path
       style="fill:#ff6600;stroke:none;stroke-width:0.26458332px;stroke-linecap:butt;stroke-linejoin:miter;stroke-opacity:1"
       d="m 80.130952,41.488088 c 13.49958,34.985905 51.153998,52.954317 86.252708,58.068248 71.59434,13.147334 146.51015,21.116064 217.86861,2.210554 22.73793,-5.549785 45.4475,-14.449568 61.62189,-32.083797 8.53666,-5.236062 20.62341,-33.455514 29.08434,-17.07908 3.03994,17.042039 -8.20355,31.497165 -12.50955,47.253819 C 445.04591,149.8191 399.11053,184.819 350.38283,201.55304 294.78444,218.83722 233.83966,229.94351 176.80001,212.7371 132.12126,200.98481 99.358328,162.21942 85.442965,119.42323 77.919267,97.90579 76.035979,74.97274 74.59154,52.438864 c 0.280632,-4.197022 2.077951,-8.409195 5.539412,-10.950776 z"
       id="path860"
       inkscape:connector-curvature="0" />
    <ellipse
       style="opacity:1;fill:#80e5ff;fill-opacity:0.97693918;stroke:none;stroke-width:0.13229166;stroke-linecap:round;stroke-miterlimit:4;stroke-dasharray:none;stroke-opacity:1"
       id="path867"
       cx="63.5"
       cy="227.07439"
       rx="27.214285"
       ry="28.348215" />
    <ellipse
       ry="20.03274"
       rx="18.898809"
       cy="-160.72919"
       cx="67.279755"
       id="ellipse869"
       style="opacity:1;fill:#80e4ff;fill-opacity:0.98039216;stroke:none;stroke-width:0.13229166;stroke-linecap:round;stroke-miterlimit:4;stroke-dasharray:none;stroke-opacity:1" />
    <ellipse
       style="opacity:1;fill:#80e4ff;fill-opacity:0.98039216;stroke:none;stroke-width:0.13229166;stroke-linecap:round;stroke-miterlimit:4;stroke-dasharray:none;stroke-opacity:1"
       id="ellipse871"
       cx="437.69641"
       cy="-190.21132"
       rx="18.898809"
       ry="20.03274" />
    <g
       id="g1417"
       transform="translate(3.0238095,1.5119048)">
      <path
         inkscape:connector-curvature="0"
         id="text875"
         d="m 128.31954,-13.728252 c -5.32775,11.4945274 -28.378319,-12.631282 -25.25885,4.655523 -2.13239,13.2125696 2.94299,28.352024 -5.161022,39.69982 C 87.001761,37.435466 73.063293,31.320226 64.058332,23.244923 56.867097,16.090974 50.996166,8.6426006 49.661711,-1.9749205 48.916522,-16.488321 68.582454,-10.580105 73.549808,-3.8876722 66.893538,0.23055422 51.944613,-4.6263912 62.137941,7.5959033 68.84924,16.078163 77.948479,26.297507 90.028914,23.699828 95.915162,12.716855 92.158736,-0.66921445 92.366591,-12.8708 93.662507,-24.282744 53.718072,-13.769708 70.19116,-31.346965 c 15.632022,2.676706 32.05288,3.674939 46.88105,9.361979 6.1432,1.656386 9.94272,0.754252 11.24733,8.256734 z m 36.47337,56.411637 c -10.92928,13.205629 -22.50005,-4.71386 -17.86196,-16.335736 -9.80859,6.227635 -21.58741,19.781902 -34.25393,14.86399 -12.59668,-11.170852 -0.37307,-30.346963 7.13474,-41.3008125 1.53821,-10.3133305 18.62637,-8.4441487 8.39711,2.0872581 -5.4029,6.8842369 -18.17368,29.0039204 -4.64046,28.9904894 10.38764,-2.509016 18.06169,-10.103404 24.03935,-19.459667 3.52164,-16.9418642 21.79223,-8.7271981 13.33453,6.826103 -2.51721,10.129662 -4.87311,18.522276 3.85062,24.328375 z m 77.00965,-28.904989 c -2.24944,12.649535 -15.70777,18.225691 -26.73776,22.627561 -6.75641,4.072095 -37.44139,14.446099 -26.15437,0.606353 13.62159,-5.44729 30.45699,-7.748225 40.43009,-19.016565 -1.80099,-11.4503979 -22.03265,-8.2694924 -31.44875,-7.474051 -16.62731,-1.6242106 -16.91747,15.429452 -17.94469,27.377728 -2.56902,10.476928 -0.29108,18.536935 8.64841,19.804982 -4.29159,14.8447 -25.93126,2.515693 -19.80759,-12.868659 0.89175,-10.963822 6.3805,-22.308573 -2.34597,-28.705237 4.07685,-13.3501625 20.87446,-11.8928693 31.87652,-14.4360027 10.26871,-1.83265028 20.5556,-3.3307982 30.26544,0.9024512 5.30003,2.2346021 12.09518,5.1081065 13.21867,11.1814395 z M 288.38861,0.0982364 c -3.69942,12.2339516 -10.17745,24.4084466 -13.02042,37.3730606 -5.51353,11.289862 1.10966,20.083385 7.09827,26.399912 -9.33959,9.047933 -21.96112,-9.486733 -18.17089,-19.650623 4.45952,-13.298578 -1.19971,-12.939023 -10.81043,-8.521703 -16.15801,1.926568 -21.3362,-14.287028 -19.41316,-27.3851961 1.63199,-17.2214866 18.65033,-3.6065444 12.37756,7.8450831 -0.58426,14.29663 14.61575,7.413888 20.21469,2.258438 9.40716,-4.91927 6.89321,-32.347339 20.76711,-24.9487454 -0.77689,2.0393685 -0.82171,4.7207812 0.95727,6.6297738 z m 75.5944,-4.0787415 C 361.78847,9.92417 350.76286,5.0656395 340.08669,10.011396 c -8.35066,4.588548 -32.63054,-0.1073194 -24.43034,14.23869 0.97103,10.391033 1.50829,22.186857 11.58632,19.953012 3.9367,9.516573 -12.77553,21.30623 -16.61596,8.780423 -9.32311,-7.489347 0.60218,-36.435228 -14.06821,-32.966525 -7.1993,5.075975 -24.92158,-0.09181 -11.23104,-7.544519 17.21645,-5.5757093 35.12869,-7.2749406 52.51504,-12.50607985 8.29564,-0.53514071 19.64621,-12.31132615 25.86318,-3.91595125 z m 38.65977,-9.9104549 c -11.44702,7.7928221 -28.68345,8.1661048 -40.53023,18.0001222 -10.52414,11.0070168 4.2866,15.3405268 12.90493,8.5095448 6.30961,-6.2819278 26.26872,-5.2136824 13.52547,3.398974 -8.42975,5.753121 -17.69459,8.568875 -26.34321,12.447192 -3.04306,7.487237 4.32955,32.28199 16.14321,20.274713 10.76399,-0.745408 7.93339,-28.748964 18.72144,-16.279742 -1.71159,14.235555 -11.73087,30.291064 -26.8933,30.729501 -12.97224,-0.700271 -17.16002,-15.570648 -18.93648,-26.51953 0.47361,-11.12729 -4.07164,-23.56048 -2.03089,-34.1187294 6.98103,-2.82005512 12.03267,-12.9207066 21.32202,-12.6587936 9.08719,-2.183161 25.54902,-9.909087 32.11704,-3.783252 z m 114.74424,3.3992 c -7.23358,12.1778922 -27.65069,14.9876084 -38.66301,24.397367 -11.39231,5.549047 -23.38642,16.798699 -37.46128,11.347332 -13.1466,-12.882836 7.24204,-28.1559852 11.55567,-41.188019 9.04239,-20.322076 -16.00121,-6.542047 -24.7607,-1.536888 -11.1271,4.900183 -16.62412,13.3740869 -9.4991,25.1655436 2.42267,10.3046884 7.87577,22.5536434 17.02685,27.1129514 -1.9523,21.588865 -25.00984,-8.760734 -24.88488,-20.221928 -1.78761,-9.0952729 -4.96899,-21.5904308 -12.13562,-8.8853184 -15.67938,-0.6237056 -0.0755,-14.2878074 4.34607,-19.2335336 11.94932,-7.526126 26.21397,-16.46934 40.77896,-22.749759 14.63611,-8.957089 26.9209,4.137868 20.31542,19.142114 -3.95895,11.1314534 -14.63478,21.1285462 -14.98521,32.564059 11.70917,3.757468 24.27874,-11.8162002 35.82376,-13.6164342 10.20251,-4.2618212 21.6561,-13.9631998 32.54307,-12.2974868 z"
         style="font-style:normal;font-variant:normal;font-weight:normal;font-stretch:normal;font-size:95.25px;line-height:1.25;font-family:'Rock Salt';-inkscape-font-specification:'Rock Salt';letter-spacing:0px;word-spacing:0px;fill:#333333;fill-opacity:1;stroke:none;stroke-width:0.26458332" />
      <path
         sodipodi:nodetypes="cc"
         inkscape:connector-curvature="0"
         id="path896"
         d="M 49.661711,-2.7308729 C 211.22221,69.28766 420.27034,44.386138 541.78669,-35.236826"
         style="fill:none;stroke:#ffffff;stroke-width:15.875;stroke-linecap:round;stroke-linejoin:miter;stroke-miterlimit:4;stroke-dasharray:none;stroke-opacity:1;filter:url(#filter1411)" />
    </g>
  </g>
</svg>
