<?xml version="1.0" encoding="UTF-8" standalone="no"?>
<svg
   xmlns:dc="http://purl.org/dc/elements/1.1/"
   xmlns:cc="http://creativecommons.org/ns#"
   xmlns:rdf="http://www.w3.org/1999/02/22-rdf-syntax-ns#"
   xmlns:svg="http://www.w3.org/2000/svg"
   xmlns="http://www.w3.org/2000/svg"
   xmlns:sodipodi="http://sodipodi.sourceforge.net/DTD/sodipodi-0.dtd"
   xmlns:inkscape="http://www.inkscape.org/namespaces/inkscape"
   width="600"
   height="300"
   viewBox="0 0 158.75 79.375"
   version="1.1"
   id="svg8"
   inkscape:version="1.0 (4035a4fb49, 2020-05-01)"
   sodipodi:docname="bell.svg">
  <defs
     id="defs2" />
  <sodipodi:namedview
     id="base"
     pagecolor="#ffffff"
     bordercolor="#666666"
     borderopacity="1.0"
     inkscape:pageopacity="0.0"
     inkscape:pageshadow="2"
     inkscape:zoom="2.8"
     inkscape:cx="308.46793"
     inkscape:cy="151.89111"
     inkscape:document-units="mm"
     inkscape:current-layer="layer1"
     showgrid="false"
     units="px"
     inkscape:window-width="1920"
     inkscape:window-height="1061"
     inkscape:window-x="0"
     inkscape:window-y="19"
     inkscape:window-maximized="1"
     inkscape:document-rotation="0"
     inkscape:snap-global="false" />
  <metadata
     id="metadata5">
    <rdf:RDF>
      <cc:Work
         rdf:about="">
        <dc:format>image/svg+xml</dc:format>
        <dc:type
           rdf:resource="http://purl.org/dc/dcmitype/StillImage" />
        <dc:title />
      </cc:Work>
    </rdf:RDF>
  </metadata>
  <g
     inkscape:label="Layer 1"
     inkscape:groupmode="layer"
     id="layer1"
     transform="translate(0,-217.62501)">
    <path
       id="path222"
       style="fill:#d3bc5f;stroke:#d3bc5f;stroke-width:0.264583px;stroke-linecap:butt;stroke-linejoin:miter;stroke-opacity:1"
       d="m 55.213136,273.62525 c -3.009689,3.22481 1.07745,6.27325 4.160601,6.93745 3.820064,0.85414 7.805614,0.79515 11.643137,1.51314 6.219375,0.82118 12.536848,0.23334 18.75727,0.96424 3.574878,1.03713 6.983924,-1.4155 10.394246,0.0129 3.03729,-0.96734 6.39898,-1.4804 9.60188,-2.00948 2.84325,-0.81422 6.77217,-1.03723 8.48544,-3.60741 0.64317,-3.60548 -3.46928,-3.96835 -5.94776,-4.68893 -5.07,-1.65468 -10.4009,-2.22734 -15.601349,-3.34293 -5.568693,-0.8782 -11.189917,-1.67947 -16.836737,-1.05062 -5.289321,0.46405 -10.529338,1.51374 -15.745846,2.49939 -2.664633,0.76213 -6.252481,2.16947 -8.910882,2.77225"
       sodipodi:nodetypes="cccccccccccc" />
    <path
       id="path230"
       style="fill:#c8ab37;stroke:#c8ab37;stroke-width:0.264583px;stroke-linecap:butt;stroke-linejoin:miter;stroke-opacity:1"
       d="m 62.607803,270.14739 c -2.430431,1.07661 -2.916843,5.32598 0.275165,5.66506 3.663861,0.50169 7.193104,1.73896 10.871438,2.12835 4.400186,0.36476 8.794967,1.19584 13.224516,0.71037 5.182518,-0.10887 10.438672,0.30072 15.526638,-0.87462 2.64376,-0.20407 5.41541,-0.5544 7.50246,-2.36484 3.45111,-1.36092 0.60099,-4.82984 -1.96793,-5.07527 -4.62887,-1.17864 -9.409612,-1.73591 -14.086535,-2.71597 C 86.66606,266.6446 79.203233,266.175 71.96635,267.799 c -2.992631,0.6753 -6.014754,1.20123 -9.029833,1.7648 l -0.238592,0.24761 z" />
    <path
       id="path238"
       style="fill:#786721;stroke:#786721;stroke-width:0.264583px;stroke-linecap:butt;stroke-linejoin:miter;stroke-opacity:1"
       d="m 83.055375,268.67677 c 0.529245,2.86431 0.03547,5.78074 -0.156898,8.65154 -1.081955,0.97766 -1.863591,3.72719 -1.294066,5.797 0.303097,1.53127 2.03678,2.75868 1.372472,4.45221 -0.454879,1.97347 -0.475832,4.01985 -0.496543,6.03058 -0.17509,1.28311 0.240932,2.85605 1.889137,2.52197 1.452468,-0.14656 3.005586,0.51419 4.370543,-0.2238 0.6554,-1.27092 -0.322792,-2.64343 -0.0987,-3.98476 -0.0011,-2.1309 0.02498,-4.27863 -0.376945,-6.37642 0.276825,-1.25558 1.618421,-2.03385 1.620061,-3.4199 -0.09317,-3.01436 -1.497092,-3.26233 -1.565281,-5.12547 0.280435,-3.23713 0.259551,-6.56741 -0.57329,-9.72223 -0.638008,-1.35357 -2.931603,-1.77026 -3.930905,-0.59566 -0.368411,0.61572 -0.411648,1.36825 -0.759585,1.99494 z"
       sodipodi:nodetypes="cccccccccccccc" />
    <path
       id="path246"
       style="fill:#d3bc5f;fill-opacity:1;stroke:#d3bc5f;stroke-width:0.264583px;stroke-linecap:butt;stroke-linejoin:miter;stroke-opacity:1"
       d="m 75.955201,219.02634 c -1.379579,1.14264 -0.948644,3.10892 -0.561681,4.6118 0.601133,1.55214 0.0235,3.00954 -0.666585,4.39134 -0.461855,1.06018 -0.472114,3.32738 1.263364,2.77494 1.17833,-0.4734 1.792615,-1.82942 3.094967,-2.17185 3.11888,-1.25827 6.521803,-0.41409 9.738205,-0.10237 1.753101,0.28043 3.609197,0.64218 5.069439,1.69133 0.55947,0.89251 2.70079,1.27335 2.456585,-0.28104 -0.822428,-1.3199 -0.961268,-2.8741 -0.158752,-4.27162 0.707266,-1.25806 0.08755,-2.89385 -1.361089,-3.17808 -1.875871,-0.43505 -3.6288,-1.86327 -5.634162,-1.42828 -1.435103,1.56423 1.649377,2.31992 2.795377,2.58665 1.592286,0.12425 2.54367,2.06462 1.259086,3.19261 -1.323048,1.21622 -3.175162,0.3228 -4.601916,-0.19307 -1.37475,-0.50301 -2.846421,-0.64048 -4.292305,-0.78453 -1.715471,-0.0985 -3.843655,0.0141 -4.988054,-1.52037 -0.893911,-1.04576 -0.242792,-2.93533 1.253249,-2.79873 2.178362,0.0308 4.199813,1.03932 6.364072,1.19535 1.586625,0.30941 3.343178,1.45959 4.931368,0.66045 1.294213,-1.26301 -0.954578,-2.15429 -1.962511,-2.48881 -2.462646,-0.70436 -5.074398,-0.64916 -7.532424,-1.40033 -1.908282,-0.43727 -3.867678,-1.0147 -5.838629,-0.80469 -0.226512,0.0659 -0.44322,0.17099 -0.627604,0.3193 z" />
    <path
       id="path294"
       style="fill:#d3bc5f;stroke:#d3bc5f;stroke-width:0.264583px;stroke-linecap:butt;stroke-linejoin:miter;stroke-opacity:1;fill-opacity:1"
       d="m 78.136633,227.24519 c 3.591077,-1.38356 7.530275,-2.27841 11.392877,-1.94801 3.305574,0.35237 6.242133,2.07885 8.818583,4.0603 3.193467,1.41482 4.660977,4.78424 4.018797,8.10009 0.002,3.94553 0.70103,7.83084 1.51312,11.6701 0.39403,3.56215 1.0399,7.15469 2.81341,10.31721 1.46739,3.46885 3.20763,7.19115 6.72692,9.00243 3.17848,1.37359 3.62357,4.84471 4.63104,7.71869 -2.18213,-1.71477 -5.83972,-2.23495 -8.63154,-3.5271 -4.52868,-0.43234 -9.0825,-0.64241 -13.583945,-1.366 -4.343507,-0.50506 -8.715953,-0.26834 -13.078694,-0.38731 -5.178679,0.13354 -10.341536,0.61026 -15.512171,0.90337 -3.447851,0.28106 -6.679327,1.57812 -10.07283,2.15641 -1.541268,-0.28417 -3.649433,3.93991 -2.828336,0.65718 0.612871,-4.42852 4.688981,-6.79156 7.537953,-9.72375 3.298398,-4.03221 5.154681,-9.13049 5.776998,-14.26803 1.215794,-4.24298 1.570962,-8.68184 1.471996,-13.06451 0.39079,-3.44727 2.131853,-6.74528 5.201221,-8.48895 1.05868,-0.88516 2.258146,-2.27412 3.804601,-1.81212 z" />
    <path
       id="path308"
       style="fill:#a0892c;stroke:#a0892c;stroke-width:0.264583px;stroke-linecap:butt;stroke-linejoin:miter;stroke-opacity:1"
       d="m 66.428386,266.15443 c 3.088539,-0.87356 6.33529,-1.11464 9.488564,-1.60079 2.92484,-0.52084 5.870496,-0.46556 8.8176,-0.29657 6.49504,0.16035 13.0544,0.20271 19.45008,1.46444 3.08694,0.85288 6.35805,1.1051 9.28518,2.47645 2.48383,1.15568 3.41046,3.36093 4.203,6.09957 0.93004,1.92707 1.03809,4.02696 -0.10005,2.26625 -1.65478,-2.20197 -4.92845,-1.95818 -7.23929,-3.21112 -2.39164,-1.04145 -5.00753,-0.74791 -7.53041,-1.1028 -2.66614,-0.0962 -5.273075,-0.65736 -7.88695,-1.11024 -4.712196,-0.11867 -9.427586,-0.0633 -14.139766,0.11609 -2.578648,-0.10599 -5.155321,-0.17545 -7.712295,0.27564 -3.261591,0.16426 -6.53148,0.54523 -9.688774,1.38041 -3.1825,0.26955 -6.359129,1.10057 -9.126321,2.72768 -0.374084,2.12673 -0.127949,-2.62089 0.54125,-3.18594 2.063921,-4.05643 2.676909,-3.17543 4.657499,-4.40022 2.134637,-0.94625 4.456977,-1.37991 6.732562,-1.7752 l 0.248119,-0.12362 z"
       sodipodi:nodetypes="ccccccccccccccccccc" />
    <path
       id="path340"
       style="fill:#a0892c;stroke:#a0892c;stroke-width:0.264583px;stroke-linecap:butt;stroke-linejoin:miter;stroke-opacity:1;fill-opacity:1"
       d="m 99.075911,231.72619 c 1.496709,0.93799 3.763139,1.91303 3.588599,4.06743 0.10894,1.203 -0.18639,1.32512 -0.87506,0.54631 -1.4085,-1.7186 -3.582382,-2.34776 -5.641379,-2.87887 -2.746895,-0.74236 -5.547562,-1.33787 -8.36596,-1.73919 -2.69611,-0.33043 -5.336619,0.61452 -8.040442,0.44418 -3.203983,0.70083 -6.390411,1.85696 -9.049538,3.79788 -1.143844,0.73845 -2.110931,1.89901 -1.496619,-0.36517 0.514969,-1.57321 2.656805,-2.32666 4.184445,-3.41735 4.683459,-1.7684 9.637288,-3.38403 14.7133,-2.84235 3.587791,0.06 7.158664,0.83476 10.46804,2.20369 l 0.25943,0.0857 z"
       sodipodi:nodetypes="ccccccccccccc" />
    <path
       id="path362"
       style="fill:#a0892c;stroke:#a0892c;stroke-width:0.264583px;stroke-linecap:butt;stroke-linejoin:miter;stroke-opacity:1;fill-opacity:1"
       d="m 69.373937,256.80423 c -1.713554,0.48638 -2.852951,1.42994 -3.878617,1.56063 0.807992,-2.90099 1.220847,-2.63613 3.483632,-3.63823 1.897134,-0.92715 3.99348,-1.27845 6.0115,-1.84743 1.613424,-0.34632 3.276129,-0.18201 4.900062,-0.48389 4.5008,-0.54214 9.043787,-0.32191 13.563726,-0.39236 1.748707,0.25043 3.449884,0.77134 5.180109,1.11009 1.930191,0.64868 3.727431,1.69422 5.757551,2.02949 1.24007,0.30895 1.52603,2.50996 2.33736,3.92719 -1.40139,0.23582 -2.23606,-1.27214 -3.60863,-1.43955 -1.80689,-0.54727 -3.627347,-1.06754 -5.345763,-1.85358 -1.901512,-0.6848 -3.931656,-0.83797 -5.935975,-0.75755 -3.802613,-0.0332 -7.612177,-0.59926 -11.410763,-0.2677 -2.102516,0.32421 -4.18456,0.92541 -6.333145,0.77942 -1.612142,0.16082 -3.243326,0.63945 -4.721047,1.27347 z"
       sodipodi:nodetypes="ccccccccccccccc" />
    <path
       id="path382"
       style="fill:#a0892c;stroke:#a0892c;stroke-width:0.264583px;stroke-linecap:butt;stroke-linejoin:miter;stroke-opacity:1;fill-opacity:1"
       d="m 66.453035,258.73417 c 3.237033,-0.18366 6.195111,-1.75489 9.406971,-2.15527 4.720281,-0.79194 9.64154,-0.53505 14.406902,-0.73068 4.379051,0.21402 8.240279,1.95173 12.556022,2.69701 4.77251,1.30018 4.59783,1.78721 5.58631,4.26641 -4.23625,-2.74365 -9.994847,-2.43733 -14.592343,-4.20272 -5.538451,-0.87058 -11.16833,-0.0947 -16.731966,0.0787 -4.245417,0.61308 -9.133962,1.34178 -13.100573,3.06253 0.805682,-1.62837 0.592609,-2.81253 2.468677,-3.01596 z"
       sodipodi:nodetypes="cccccccccc" />
    <path
       style="opacity:0.6;fill:#d3bc5f;fill-opacity:1;stroke:#d3bc5f;stroke-width:0.264999;stroke-linecap:round;stroke-opacity:1"
       id="path391"
       d="m 67.357992,256.97372 c 0.283789,-0.25495 0.513852,-0.56175 0.744201,-0.86389 0.103635,-0.15825 0.236559,-0.29653 0.337709,-0.45651 0.04078,-0.0645 0.05542,-0.13033 0.119079,-0.17524 -0.07822,0.0149 -0.164828,0.006 -0.234657,0.0447 -0.02381,0.013 0.0049,0.0542 0.0047,0.0813 -2.65e-4,0.0425 -0.0031,0.0849 -0.0066,0.12721 -0.01288,0.15617 -0.03553,0.312 -0.05448,0.46752 -0.0095,0.10328 -0.03141,0.24411 0.03556,0.3375 0.0158,0.022 0.03793,0.0453 0.06475,0.0491 0.28561,0.0406 0.249608,0.0339 0.435925,-0.0614 0.05142,-0.0375 0.104537,-0.0728 0.154268,-0.1126 0.208291,-0.16648 0.399579,-0.35573 0.597204,-0.53433 0.181319,-0.16387 0.245118,-0.21847 0.42432,-0.3752 0.115959,-0.10721 0.239504,-0.20559 0.358643,-0.30911 0.0065,-0.006 0.02744,-0.0171 0.01887,-0.0174 -0.283726,-0.0105 -0.211889,-0.0447 -0.348697,0.0798 -0.117875,0.10316 -0.233124,0.20987 -0.344609,0.31994 -0.05249,0.0518 -0.118163,0.11278 -0.151792,0.18172 -0.01016,0.0208 -0.01095,0.045 -0.01643,0.0675 0.01569,0.0156 0.02514,0.0438 0.04705,0.0469 0.311071,0.0439 0.494308,-0.03 0.776819,-0.1333 0.259631,-0.0949 0.371658,-0.14578 0.631074,-0.25474 0.520483,-0.23355 1.041133,-0.46673 1.563497,-0.69604 0.01939,-0.008 0.127489,-0.0566 0.16315,-0.063 0.01003,-0.002 0.04045,0.004 0.03027,0.004 -0.293555,0.009 -0.192942,-0.0513 -0.3224,0.10086 -0.04221,0.0566 -0.22538,0.28839 -0.207856,0.35653 0.0043,0.0168 0.02463,0.0243 0.03693,0.0365 0.09627,-0.004 0.193659,0.004 0.288822,-0.0115 0.04252,-0.007 0.282662,-0.12792 0.302003,-0.13763 0.174676,-0.0877 0.347631,-0.17655 0.52523,-0.25832 0.03502,-0.0182 0.07008,-0.0363 0.105042,-0.0547 0.01992,-0.0105 0.03953,-0.0215 0.05961,-0.0317 0.0047,-0.002 0.02,-0.006 0.01474,-0.006 -0.11852,-0.001 -0.313417,-0.0684 -0.250332,0.0678 0.02077,0.006 0.04078,0.0163 0.06232,0.0192 0.03548,0.005 0.07153,0.004 0.10732,0.004 0.108289,-5.3e-4 0.216604,-0.002 0.324816,-0.006 0.268481,-0.0103 0.535966,-0.046 0.80232,-0.0786 0.817956,-0.11119 1.619729,-0.30804 2.417839,-0.5143 0.366964,-0.0944 0.731544,-0.19708 1.091615,-0.31506 0.240792,-0.0739 0.240025,-0.0968 0.363141,-0.3054 -0.0046,-0.004 0.129445,-0.21733 0.07718,-0.21344 -0.337656,0.0251 -0.270354,-0.0252 -0.389631,0.13965 -0.247155,0.37062 -0.491267,0.74482 -0.698762,1.13934 0.02965,0.0761 -0.138554,0.15449 -0.116324,0.24082 0.0061,0.0238 0.04367,0.03 0.06811,0.0279 0.130239,-0.0114 0.262292,-0.0263 0.386334,-0.0676 0.07201,-0.024 0.127326,-0.0826 0.190646,-0.1245 0.07263,-0.048 0.144791,-0.0967 0.217186,-0.14505 0.210735,-0.11697 0.394028,-0.32881 0.641016,-0.37537 0.02606,-0.005 0.10495,-0.006 0.07955,0.002 -0.05495,0.0166 -0.11352,0.017 -0.170281,0.0255 0.04613,0.03 0.105167,0.0726 0.158393,0.0876 0.04181,0.0118 0.08554,0.0199 0.128979,0.019 0.136827,-0.003 0.27422,-0.01 0.409408,-0.0311 0.09168,-0.0145 0.390298,-0.12875 0.470763,-0.15819 0.08282,-0.0344 0.166031,-0.0678 0.24846,-0.10307 0.139673,-0.0598 0.275052,-0.12948 0.415792,-0.1867 0.04617,-0.0188 0.09328,-0.0358 0.141579,-0.0481 0.02572,-0.007 0.10568,-0.009 0.07918,-0.008 -0.0675,0.003 -0.134837,0.009 -0.202255,0.0136 0.02916,0.12131 0.05828,0.13389 0.197953,0.12751 0.395139,-0.018 0.34776,-0.0209 0.685818,-0.0972 0.892032,-0.22818 1.782726,-0.46019 2.683079,-0.65374 0.34212,-0.0619 0.682376,-0.14599 1.029279,-0.17891 0.03799,-0.004 0.15243,-0.005 0.11429,-0.007 -0.07368,-0.002 -0.147402,0.002 -0.221104,0.003 0.0048,0.002 0.0094,0.005 0.01442,0.005 0.0047,-2.5e-4 -0.009,-0.006 -0.01328,-0.005 -0.01415,0.006 -0.02529,0.0173 -0.03798,0.0259 -0.08936,0.0604 -0.180718,0.11756 -0.271804,0.17532 -0.251018,0.16263 -0.503105,0.3242 -0.74477,0.50058 -0.0091,0.0102 -0.08143,0.0865 -0.08717,0.10899 -0.03716,0.1452 0.413951,0.13822 0.435533,0.1398 0.706459,0.0211 1.410737,-0.0509 2.112907,-0.11749 1.194287,-0.1133 0.111514,-0.015 1.315617,-0.12243 0.57146,-0.0434 1.143341,-0.0943 1.716458,-0.1104 0.05873,-0.002 -0.129408,0.0297 -0.176163,-0.006 -0.04067,0.008 -0.296732,0.0633 -0.262471,0.13337 0.01146,0.0235 0.03954,0.0341 0.05932,0.0512 0.04312,0.009 0.08542,0.0241 0.12935,0.0283 0.06339,0.006 0.127418,0.005 0.191021,0.002 0.454168,-0.0223 0.387644,-0.0186 0.777668,-0.0968 0.953413,-0.19104 -0.246657,0.0461 0.689949,-0.13835 0.101121,-0.0171 0.201568,-0.0389 0.303366,-0.0514 0.02537,-0.003 0.05134,5.3e-4 0.07658,0.005 0.237776,0.0387 0.326316,0.0899 0.514101,0.22404 0.03498,0.0147 0.06832,0.0342 0.104926,0.0443 0.03989,0.0109 0.08138,0.0182 0.122735,0.0182 0.116941,-1.4e-4 0.234262,-0.004 0.350319,-0.0188 0.0579,-0.007 0.113221,-0.0284 0.169005,-0.0455 0.10786,-0.033 0.262657,-0.0915 0.368126,-0.13026 0.121205,-0.0427 0.185277,-0.0714 0.309432,-0.0933 0.03529,-0.006 0.142677,-0.0134 0.107096,-0.009 -0.211214,0.025 -0.125357,-0.0262 -0.193411,0.11541 -0.02508,0.0687 -0.117826,0.14147 -0.127428,0.21506 -0.01656,0.12686 0.147431,0.15696 0.226727,0.18444 0.07478,0.0123 0.149158,0.0274 0.224348,0.037 0.398563,0.0505 0.803235,0.06 1.204018,0.0762 0.410011,0.0166 0.748194,0.0285 1.158534,0.0434 0.76087,0.0215 1.522031,0.0721 2.27581,0.18027 0.07529,0.0133 0.123852,0.0199 0.194064,0.0382 0.01347,0.003 0.02683,0.008 0.03974,0.0127 0.0032,0.001 0.0092,0.01 0.0082,0.006 -0.01363,-0.046 -0.01524,-0.0328 -0.06167,-0.0361 0.06928,-8e-4 0.138814,0.004 0.207844,-0.002 0.04042,-0.003 -0.08107,-0.003 -0.121598,-0.005 -0.04074,-0.002 -0.08146,-0.004 -0.1222,-0.006 -0.208489,-0.0106 -0.269052,-0.003 -0.508251,0.0182 0.0029,0.0208 -0.0016,0.0441 0.0086,0.0625 0.06358,0.11597 0.280117,0.22749 0.382918,0.28279 0.226769,0.12197 0.311441,0.15261 0.555202,0.25922 0.646107,0.2721 1.326608,0.44575 2.000968,0.63096 0.22124,0.0585 0.44093,0.12414 0.66529,0.16979 0.21693,0.0294 0.43976,0.0131 0.65719,0.0107 0.0491,-5.3e-4 0.10091,-0.0173 0.14733,-10e-4 0.0363,0.0125 -0.11718,-0.0257 -0.11458,0.0126 0.003,0.042 0.079,0.0295 0.11843,0.0442 0.0327,0.0252 0.0692,0.046 0.098,0.0755 0.15022,0.15405 0.23671,0.48641 0.30919,0.6907 0.0176,0.0314 0.0249,0.0715 0.0529,0.0942 0.0291,0.0238 0.0693,0.0353 0.10683,0.036 0.1376,0.003 0.27596,-0.006 0.41204,-0.0261 0.0557,-0.008 0.10585,-0.0388 0.1581,-0.0599 0.10569,-0.0428 0.20958,-0.0899 0.31446,-0.13462 0.0469,-0.009 0.17394,0.006 0.14059,-0.0283 -0.0361,-0.0371 -0.11736,-0.022 -0.15468,0.0139 -0.0236,0.0227 0.0571,0.0346 0.0782,0.0597 0.0823,0.0979 0.11193,0.2498 0.14997,0.36776 0.0689,0.1783 0.16442,0.37106 0.33704,0.47246 0.11726,0.0689 0.2289,0.0865 0.35881,0.11915 0.22267,0.0541 0.45244,0.0535 0.67833,0.0817 0.12246,0.0222 0.23678,0.0725 0.35142,0.11886 0.0786,0.0233 0.16634,0.0149 0.24828,0.0198 0,0 0.0235,-0.003 0.0235,-0.003 v 0 c 0.0153,-0.008 0.03,-0.0177 0.0458,-0.025 0.0548,-0.0252 0.0685,-0.01 0.0215,-0.0332 -0.12378,-0.0456 -0.24837,-0.0913 -0.3764,-0.12339 -0.24049,-0.0338 -0.48729,-0.0142 -0.72536,-0.072 -0.11766,-0.0278 -0.24703,-0.0501 -0.35577,-0.10781 -0.1766,-0.0937 -0.27923,-0.27801 -0.35041,-0.45561 -0.0355,-0.12377 -0.0611,-0.27665 -0.13859,-0.38346 -0.13127,-0.18093 -0.3942,-0.10146 -0.5787,-0.0512 -0.11012,0.0433 -0.21875,0.0905 -0.32973,0.13159 -0.27594,0.10214 -0.16626,0.018 -0.0332,0.0813 0.0596,0.0283 -0.29057,-0.0342 -0.16857,-0.10351 -0.0658,-0.14276 -0.0595,-0.12049 -0.11469,-0.27821 -0.0677,-0.19327 -0.11661,-0.39199 -0.30107,-0.50873 -0.23918,-0.0979 -0.0934,-0.0548 -0.51367,-0.0655 -0.0508,-0.001 -0.10195,-0.005 -0.15247,10e-4 -0.0369,0.004 0.14791,-0.002 0.11122,0.003 -0.0656,0.01 -0.171,-0.005 -0.23808,-0.012 -0.22961,-0.0446 -0.45217,-0.12005 -0.68161,-0.1662 -0.69482,-0.16175 -1.388867,-0.33973 -2.046566,-0.62124 -0.194183,-0.0875 -0.356764,-0.15559 -0.541935,-0.25797 -0.119621,-0.0661 -0.298276,-0.15928 -0.358688,-0.29357 -0.07126,-0.005 -0.142555,-0.0102 -0.213762,-0.0161 -0.02712,-0.002 0.05434,0.003 0.0815,0.005 0.240628,0.016 0.48097,0.036 0.722648,0.0258 0.0275,-0.002 0.07953,0.009 0.06528,-0.0464 -0.0024,-0.009 -0.01744,-0.007 -0.02655,-0.01 -0.09146,-0.0243 -0.186968,-0.032 -0.279853,-0.0479 -0.798155,-0.0883 -1.600946,-0.13725 -2.403379,-0.16275 -0.438796,-0.016 -0.710838,-0.0248 -1.147858,-0.045 -0.382947,-0.0177 -0.770181,-0.0305 -1.150654,-0.0822 -0.06974,-0.009 -0.138669,-0.0241 -0.208003,-0.0362 -0.05525,-0.0177 -0.227443,-0.046 -0.214574,-0.15046 0.01048,-0.085 0.112162,-0.13954 0.143542,-0.2141 0.02193,-0.0423 0.0778,-0.12566 0.03214,-0.13927 -0.227267,-0.0677 -0.447853,0.0256 -0.658233,0.0938 -0.100775,0.0349 -0.276839,0.0977 -0.380344,0.12695 -0.05758,0.0163 -0.120597,0.0162 -0.174493,0.0422 -0.0159,0.008 0.06748,0.0168 0.04985,0.018 -0.09372,0.006 -0.141888,-0.0215 -0.225912,-0.0527 -0.106828,-0.0731 -0.21064,-0.15467 -0.336812,-0.19291 -0.302281,-0.0916 -0.627615,-0.049 -0.930823,0.0121 -0.231783,0.0457 -0.463039,0.0942 -0.695293,0.13741 -0.112538,0.0209 -0.226615,0.0339 -0.338341,0.0588 -0.02066,0.005 -0.03536,0.0266 -0.05636,0.0292 -0.131739,0.0165 -0.179811,5.3e-4 -0.297908,-0.0207 -0.01757,-0.007 -0.03989,-0.007 -0.05271,-0.0207 -0.01474,-0.0159 0.02148,-0.0386 0.05971,-0.0528 0.08042,-0.0299 0.170326,-0.0278 0.243888,-0.0762 -0.0097,-0.15067 0.01037,-0.0482 -0.337249,-0.0418 -0.533014,0.01 -1.062482,0.10567 -1.594543,0.12967 -0.648018,0.0571 -1.295583,0.12261 -1.944108,0.17375 -0.185592,0.0146 -0.371406,0.0264 -0.557162,0.0387 -0.09494,0.006 -0.189791,0.0154 -0.28492,0.0174 -0.107005,0.002 -0.214034,-0.003 -0.32105,-0.005 -0.135522,-0.0109 -0.212154,-0.007 -0.331642,-0.0427 -0.04774,-0.0144 -0.09378,-0.0467 -0.03957,-0.0944 0.02527,-0.0222 0.05684,-0.0361 0.08527,-0.0542 0.246467,-0.1714 0.490657,-0.34639 0.750065,-0.49825 0.0534,-0.0322 0.301077,-0.16497 0.333409,-0.21333 0.0085,-0.0128 0.01474,-0.0301 0.01072,-0.0449 -0.0028,-0.0101 -0.01815,-0.0105 -0.02723,-0.0158 -0.111312,5.3e-4 -0.222684,-0.002 -0.333933,0.001 -0.0725,0.002 -0.143229,0.0232 -0.214455,0.0369 -0.271045,0.0522 -0.540925,0.11044 -0.810877,0.16794 -0.905203,0.20323 -1.801058,0.44445 -2.705549,0.65058 -0.09919,0.02 -0.200438,0.0315 -0.297572,0.0599 -0.0096,0.003 0.0024,0.0266 -0.0072,0.029 -0.01392,0.003 -0.146823,0.0226 -0.172913,-0.0248 -0.01537,-0.028 0.0356,-0.0666 0.0056,-0.0956 -0.08765,-0.007 -0.175043,-0.0193 -0.262959,-0.021 -0.05015,-0.001 -0.153556,0.0539 -0.182224,0.0667 -0.223192,0.0994 -0.446545,0.19863 -0.674449,0.28698 -0.08233,0.0289 -0.163722,0.0606 -0.246981,0.0867 -0.07878,0.0247 -0.163711,0.0313 -0.238831,0.0655 -0.01312,0.006 0.04674,0.026 0.03254,0.0285 -0.104846,0.0182 -0.204787,-0.0409 -0.284099,-0.0992 -1.19e-4,-1e-5 -0.277701,-0.0553 -0.365373,-0.0288 -0.08034,0.0243 -0.160137,0.0835 -0.228121,0.12632 -0.272423,0.17159 -0.105892,0.0648 -0.398394,0.25518 -0.07585,0.0478 -0.150638,0.0973 -0.227531,0.14335 -0.06937,0.0416 -0.172696,0.0484 -0.211143,0.11954 -0.02045,0.0378 0.093,0.0197 0.116388,0.0558 0.01281,0.0198 -0.05437,0.0378 -0.06817,0.0187 -0.04864,-0.0673 0.12641,-0.19307 0.07914,-0.23632 0.233688,-0.3868 0.459637,-0.78014 0.744975,-1.13242 0.02482,-0.0275 0.105182,-0.0617 0.07448,-0.0825 -0.240549,-0.16234 -0.2373,-0.035 -0.244954,-0.0175 -0.01802,0.0412 -0.05128,0.10275 -0.07128,0.14094 -0.07887,0.15339 -0.144944,0.22979 -0.30788,0.29135 -0.331115,0.12406 -0.670718,0.22376 -1.009584,0.3241 -0.79653,0.21954 -1.601956,0.40888 -2.422953,0.51145 -0.331724,0.0396 -0.671587,0.0905 -0.955974,0.0716 -0.0064,-0.003 -0.02096,-0.003 -0.01921,-0.0105 0.0029,-0.0117 0.03865,-0.0189 0.02751,-0.0235 -0.222332,-0.0927 -0.145476,-0.0737 -0.247877,-0.008 -0.03055,0.0196 -0.06254,0.037 -0.0938,0.0554 -0.15665,0.0961 -0.316852,0.18291 -0.482839,0.26214 -0.05808,0.0277 -0.116189,0.0556 -0.17582,0.0798 -0.04726,0.0192 -0.117131,0.007 -0.144524,0.0502 -0.01839,0.0289 0.06738,0.012 0.101066,0.018 -0.01503,-0.004 -0.038,0.002 -0.04513,-0.0115 -0.02664,-0.0515 0.196996,-0.30123 0.234001,-0.34507 0.01802,-0.0194 0.03622,-0.0386 0.05405,-0.0581 0.01386,-0.0152 0.0592,-0.0364 0.04106,-0.0461 -0.171387,-0.0921 -0.238032,-0.0474 -0.376708,0.024 -0.506641,0.24088 -1.014987,0.47841 -1.530769,0.69923 -0.25723,0.10572 -0.384645,0.16279 -0.644236,0.25181 -0.08961,0.0307 -0.179729,0.0604 -0.271251,0.0848 -0.06901,0.0184 -0.144425,0.0149 -0.209777,0.0438 -0.0149,0.007 0.203131,0.019 0.04584,-0.0169 7.93e-4,-0.0195 -0.0053,-0.0406 0.0026,-0.0584 0.02548,-0.0573 0.118428,-0.14021 0.156943,-0.17735 0.114568,-0.11046 0.232519,-0.21747 0.356428,-0.31742 0.133885,-0.0999 0.148397,-0.0744 -0.101782,-0.11307 -0.0047,-8e-4 7.4e-5,0.0103 -0.0028,0.0141 -0.01677,0.022 -0.03601,0.0421 -0.05516,0.0621 -0.03464,0.0361 -0.06977,0.0719 -0.106137,0.10625 -0.05156,0.0488 -0.105037,0.0955 -0.157555,0.1432 -0.214317,0.19488 -0.429418,0.38863 -0.64752,0.57928 -0.120684,0.1055 -0.260522,0.23082 -0.390919,0.32645 -0.05274,0.0387 -0.10917,0.072 -0.163753,0.10806 -0.04507,0.0185 -0.122838,0.008 -0.135215,0.0555 -0.01005,0.0383 0.08439,0.0275 0.118647,0.008 0.02249,-0.0131 -0.05099,-0.0177 -0.06903,-0.0364 -0.08333,-0.0866 -0.04127,-0.22437 -0.0302,-0.32585 0.02498,-0.19912 0.06204,-0.39795 0.08186,-0.59755 0.0029,-0.029 0.02884,-0.0729 0.0035,-0.0872 -0.07747,-0.0438 -0.173752,-0.0389 -0.260627,-0.0583 -0.04165,0.0622 -0.08938,0.11824 -0.132221,0.17934 -0.104177,0.14859 -0.179845,0.31625 -0.294664,0.45794 -0.227401,0.30998 -0.468455,0.61619 -0.772501,0.85543 0,0 0.248211,0.0226 0.248211,0.0226 z" />
    <path
       style="opacity:0.6;fill:#d3bc5f;fill-opacity:1;stroke:#d3bc5f;stroke-width:0.264999;stroke-linecap:round;stroke-opacity:1"
       id="path393"
       d="m 67.244322,259.92096 c 0.08301,-0.23544 0.201435,-0.45752 0.341275,-0.66376 0.04704,-0.0684 0.08328,-0.14326 0.129392,-0.21217 0.0072,-0.0108 0.01434,-0.0217 0.02304,-0.0313 0.0035,-0.004 0.01828,-0.01 0.01312,-0.009 -0.05514,0.0109 -0.10945,0.0256 -0.164176,0.0384 -0.171006,0.22845 -0.309219,0.47767 -0.446188,0.72732 -0.08488,0.14969 -0.18224,0.29075 -0.215702,0.46259 -0.04258,0.21869 0.02834,0.0313 -0.04914,0.20837 0,0 0.0236,10e-4 0.0236,10e-4 v 0 c 0.06852,-0.15623 0.0016,-0.0357 0.162859,-0.20219 0.11724,-0.12115 0.136887,-0.15431 0.22025,-0.30023 0.02971,-0.052 0.0562,-0.10578 0.08431,-0.15867 0.119724,-0.24363 0.220834,-0.49697 0.361341,-0.72966 -0.0336,-0.018 -0.06592,-0.0387 -0.100798,-0.054 -0.0031,-10e-4 0.0021,0.007 0.0011,0.0101 -0.0032,0.011 -0.0082,0.0215 -0.0131,0.0318 -0.0339,0.0724 -0.07758,0.13965 -0.108876,0.21333 -0.09616,0.22782 -0.226864,0.43827 -0.325369,0.66522 0,0 0.06309,0.002 0.06309,0.002 z" />
    <path
       style="opacity:0.6;fill:#d3bc5f;fill-opacity:1;stroke:#d3bc5f;stroke-width:0.264999;stroke-linecap:round;stroke-opacity:1"
       id="path395"
       d="m 69.249101,259.65199 c 0.103608,-0.0676 0.20464,-0.14471 0.318619,-0.1946 0.01045,-0.005 0.04488,-0.009 0.03361,-0.007 -0.05734,0.009 -0.114572,0.0197 -0.17186,0.0295 0.0011,0.0217 -0.03083,0.0787 -0.02718,0.0998 0.0013,0.007 0.007,0.0172 0.01421,0.0166 0.229701,-0.0182 0.192741,-0.0152 0.35669,-0.0973 0.209891,-0.087 0.428114,-0.17096 0.656918,-0.18984 0.03124,-0.003 0.123939,-0.007 0.09401,0.002 -0.04757,0.0148 -0.09917,0.01 -0.148749,0.0149 0.02437,0.0291 -0.05208,0.0334 -0.03565,0.0328 0.05723,-0.002 0.115271,8e-4 0.171566,-0.01 0.01159,-0.002 -0.02109,-0.0106 -0.03115,-0.0167 -0.01143,-0.007 -0.02214,-0.015 -0.03321,-0.0225 -0.0047,-0.008 -0.01635,-0.0144 -0.01397,-0.0231 0.0044,-0.0159 0.09937,-0.0627 0.101264,-0.0636 0.190661,-0.0901 0.394483,-0.15493 0.59259,-0.22572 0.28988,-0.0953 0.579482,-0.19223 0.871521,-0.28081 0.212304,-0.0644 0.270127,-0.0645 0.454441,-0.15579 0.04424,-0.0219 0.08453,-0.051 0.126801,-0.0765 0.02574,-0.0247 0.05653,-0.0451 0.07726,-0.0741 0.05941,-0.0832 0.0584,-0.20707 0.05982,-0.30481 -0.09737,-0.004 -0.194951,-0.0206 -0.292108,-0.0129 -0.01172,0.001 -0.104738,0.0918 -0.115523,0.10299 -0.08468,0.088 -0.161901,0.18223 -0.23654,0.27868 -0.01611,0.0298 -0.04293,0.056 -0.04834,0.0895 -0.03266,0.20195 0.336992,0.25029 0.455179,0.25329 0.177795,0.004 0.355613,-0.008 0.533421,-0.0121 0.332364,-0.0301 0.663038,-0.0759 0.99346,-0.12205 0.177022,-0.0247 0.354986,-0.0448 0.527987,-0.0904 -0.0104,-0.009 -0.0208,-0.0187 -0.0312,-0.028 0,0 -0.02342,-0.003 -0.02342,-0.003 v 0 c -0.05481,2e-4 -0.109619,5.3e-4 -0.16443,5.3e-4 -0.50699,0.0682 -1.008108,0.18434 -1.520855,0.20927 -0.0255,0.004 -0.05076,0.0129 -0.07651,0.0115 -0.0804,-0.004 -0.481986,-0.0492 -0.457853,-0.20695 0.0049,-0.0324 0.03294,-0.0566 0.04942,-0.085 0.08429,-0.0926 0.165981,-0.18821 0.257717,-0.27369 0.02193,-0.0205 0.04386,-0.0412 0.06836,-0.0585 0.01564,-0.0111 0.06991,-0.0216 0.05127,-0.026 -0.07495,-0.0177 -0.153633,-0.0108 -0.230449,-0.0163 0.0081,0.007 0.02061,0.0112 0.02432,0.0213 0.0054,0.0148 0.0024,0.0316 7.94e-4,0.0473 -0.01058,0.11308 -0.07173,0.20312 -0.158592,0.27341 -0.40318,0.26305 -0.878996,0.36951 -1.329801,0.52251 -0.196106,0.065 -0.297259,0.0963 -0.482679,0.16506 -0.0435,0.0161 -0.251915,0.0756 -0.265978,0.15035 -0.0021,0.0107 0.0098,0.0194 0.01466,0.0291 0.0088,0.0118 0.03252,0.0482 0.04979,0.0502 0.09082,0.0105 0.262414,0.0527 0.271602,-0.0383 0.0011,-0.0114 -0.0057,-0.0222 -0.0085,-0.0333 -0.06242,-0.006 -0.203507,-0.0293 -0.289346,-0.0158 -0.224356,0.0352 -0.441068,0.1169 -0.65329,0.19385 -0.04966,0.0197 -0.131586,0.009 -0.148961,0.0593 -0.01326,0.0386 0.08139,0.012 0.119311,0.027 0.0063,0.002 -0.0081,0.0178 -0.01408,0.0146 -0.01106,-0.006 0.0093,-0.0312 0.01516,-0.0591 0.003,-0.0145 0.0021,-0.0295 0.0033,-0.0443 -0.05739,-0.0168 -0.113483,-0.0389 -0.172154,-0.0504 -0.02244,-0.004 -0.09936,0.0992 -0.108088,0.10775 -0.0053,0.005 -0.12705,0.10035 -0.137416,0.10847 0,0 0.06289,0.006 0.06289,0.006 z" />
    <path
       style="opacity:0.6;fill:#d3bc5f;fill-opacity:1;stroke:#d3bc5f;stroke-width:0.264999;stroke-linecap:round;stroke-opacity:1"
       id="path397"
       d="m 79.178554,258.10137 c 0.262945,-0.15998 0.506717,-0.39053 0.81412,-0.46401 0.03012,-0.007 0.06189,-0.003 0.09283,-0.004 -0.04561,0.011 -0.09726,0.008 -0.136821,0.0328 -0.02458,0.0156 -0.02387,0.0533 -0.03823,0.0786 -0.02093,0.0369 -0.04465,0.0722 -0.06756,0.10793 -0.05991,0.0934 -0.124769,0.17915 -0.194836,0.26494 -0.0029,0.009 -0.01768,0.0271 -0.0086,0.026 0.09423,-0.0107 0.190928,-0.021 0.278802,-0.0567 0.06387,-0.0259 0.110701,-0.0822 0.16569,-0.12372 0.06476,-0.0489 0.128288,-0.0995 0.19354,-0.14777 0.218554,-0.16172 0.164388,-0.12212 0.389564,-0.25496 0.04802,-0.0238 0.09393,-0.0524 0.144047,-0.0714 0.02143,-0.008 0.09106,-0.0103 0.06818,-0.009 -0.08964,0.005 -0.18388,-0.01 -0.268589,0.0202 -0.01011,0.004 0.0049,0.25436 0.006,0.28407 0,0 0.02363,2.6e-4 0.02363,2.6e-4 v 0 c 0.06084,-0.16323 0.0021,-0.0556 0.154723,-0.19951 0.02793,-0.0263 0.108672,-0.0619 0.0779,-0.0848 -0.188923,-0.14082 -0.286205,-0.0617 -0.414734,0.0397 -0.178769,0.14371 -0.36503,0.27372 -0.552096,0.40636 -0.05704,0.0404 -0.14179,0.0586 -0.170291,0.12248 -0.01273,0.0285 0.116486,0.11572 0.07357,0.058 0.07047,-0.13887 0.189452,-0.24081 0.266602,-0.37526 0.01688,-0.0294 0.06361,-0.0696 0.03976,-0.0937 -0.04322,-0.0437 -0.118973,-0.0311 -0.178457,-0.0467 -0.02103,0.004 -0.04343,0.004 -0.06312,0.0122 -0.05842,0.0251 -0.222652,0.13584 -0.260781,0.15928 -0.166907,0.10259 -0.33814,0.19849 -0.498092,0.31216 0,0 0.0633,0.006 0.0633,0.006 z" />
    <path
       style="opacity:0.6;fill:#d3bc5f;fill-opacity:1;stroke:#d3bc5f;stroke-width:0.264999;stroke-linecap:round;stroke-opacity:1"
       id="path399"
       d="m 86.647881,257.08574 c 0.186048,0.23256 0.347099,0.30868 0.635051,0.36455 0.168272,0.0272 0.331975,0.0216 0.503581,0.0199 0.05614,-5.2e-4 0.0511,-0.0146 0.0204,-0.0521 -0.148683,-0.0348 -0.315913,-0.0913 -0.44644,-0.17121 -0.0092,-0.008 -0.02061,-0.0137 -0.02744,-0.0236 -0.008,-0.0116 0.02765,-0.006 0.04173,-0.007 0.02212,-0.002 0.04416,-0.004 0.06631,-0.006 0.05902,-0.004 0.117649,-0.004 0.176749,-0.006 0.210815,-0.004 -0.200266,-0.0196 0.09969,-0.006 0,0 0.02339,-0.003 0.02339,-0.003 v 0 c -0.110358,-0.0444 -0.234074,-0.0122 -0.349925,-0.0257 -0.03812,7.9e-4 -0.412795,-0.013 -0.264475,0.10179 0.127829,0.0746 0.257681,0.15368 0.404554,0.1843 0.01061,-0.008 0.04278,-0.0251 0.02953,-0.0279 -0.0096,-0.002 -0.0392,0.002 -0.02937,0.003 0.06125,0.002 0.12256,5.3e-4 0.183808,0.002 0.07856,0.002 -0.332205,10e-5 -0.235585,-0.01 -0.259214,-0.0426 -0.511585,-0.1254 -0.671737,-0.34772 0,0 -0.1598,0.0107 -0.1598,0.0107 z" />
    <path
       style="opacity:0.6;fill:#d3bc5f;fill-opacity:1;stroke:#d3bc5f;stroke-width:0.264999;stroke-linecap:round;stroke-opacity:1"
       id="path401"
       d="m 91.305302,257.47764 c 0.13906,0.12958 0.236583,0.33269 0.428469,0.39349 0.03531,0.0112 0.07308,0.0122 0.109622,0.0183 0.90687,-0.0121 0.0086,0.0168 0.367742,-0.0204 0.02966,-0.003 0.115165,-0.0165 0.08945,-0.001 -0.0345,0.0203 -0.09047,-0.01 -0.118586,0.0186 -0.01704,0.0172 0.04187,0.0248 0.06087,0.0399 0.0204,0.0162 0.03794,0.0357 0.05691,0.0535 0.05409,0.0461 0.0954,0.12097 0.167905,0.14294 0.02855,0.009 0.05923,0.0104 0.08904,0.009 0.307205,-0.0125 0.245472,-0.004 0.452154,-0.0608 0.09525,-0.0268 0.187106,-0.0589 0.283586,-0.0805 0,0 -0.02336,-0.003 -0.02336,-0.003 v 0 c -0.150394,0.008 -0.300431,0.0176 -0.446315,0.0592 -0.420333,0.0981 -0.03028,-0.0153 -0.05558,0.0532 -0.03198,0.0867 -0.24525,-0.10318 -0.264927,-0.13597 -0.150419,-0.15192 -0.225759,-0.14411 -0.459534,-0.11817 -0.03175,0.004 -0.07213,-0.009 -0.09495,0.013 -0.0182,0.0178 0.05085,0.004 0.07628,0.005 -0.03675,-0.004 -0.07438,-0.004 -0.110265,-0.0134 -0.207005,-0.0527 -0.315098,-0.23626 -0.448247,-0.38563 0,0 -0.16026,0.0132 -0.16026,0.0132 z" />
    <path
       style="opacity:0.6;fill:#d3bc5f;fill-opacity:1;stroke:#d3bc5f;stroke-width:0.264999;stroke-linecap:round;stroke-opacity:1"
       id="path403"
       d="m 95.872071,257.04474 c -0.04442,0.37812 -0.01381,0.75919 0.01381,1.13744 0.02286,0.25218 0.04254,0.50457 0.05786,0.75731 -0.0057,0.12639 0.04791,0.0956 0.168299,0.11436 0,0 0.02363,-2.7e-4 0.02363,-2.7e-4 v 0 c 0.123084,-0.0245 0.170577,0.005 0.133882,-0.1181 -0.04743,-0.25074 -0.08781,-0.50274 -0.120454,-0.75585 -0.0468,-0.37695 -0.08676,-0.75476 -0.09983,-1.13461 0,0 -0.1772,-2.4e-4 -0.1772,-2.4e-4 z" />
    <path
       style="opacity:0.6;fill:#d3bc5f;fill-opacity:1;stroke:#d3bc5f;stroke-width:0.264999;stroke-linecap:round;stroke-opacity:1"
       id="path409"
       d="m 100.00709,258.82559 c 0.0296,0.20841 0.0824,0.41262 0.11686,0.62006 -0.0136,0.13357 0.15361,0.0726 0.17531,0.13623 0,0 0.0236,-8e-4 0.0236,-8e-4 v 0 c -0.002,-0.006 -0.011,-0.0145 -0.006,-0.0174 0.0862,-0.0463 0.14467,-0.005 0.0966,-0.12571 -0.0752,-0.19966 -0.11147,-0.41142 -0.1664,-0.61706 0,0 -0.24039,0.005 -0.24039,0.005 z" />
    <path
       style="opacity:0.6;fill:#d3bc5f;fill-opacity:1;stroke:#d3bc5f;stroke-width:0.264999;stroke-linecap:round;stroke-opacity:1"
       id="path415"
       d="m 101.89345,259.49461 c 0.18364,0.004 0.36537,0.0329 0.54504,0.0693 0.14118,0.0336 0.27877,0.0806 0.41544,0.12905 0.0417,0.0172 0.0838,0.0347 0.12221,0.0585 0.0523,0.0232 0.11512,0.004 0.17021,0.0116 0.0202,0.003 0.0389,0.0127 0.0583,0.019 0,0 0.0236,-10e-4 0.0236,-10e-4 v 0 c 0.0107,-0.009 0.0194,-0.0215 0.032,-0.0279 7.9e-4,-5.3e-4 0.11946,-0.0211 0.0911,-0.0404 -0.044,-0.0252 -0.0889,-0.0481 -0.13721,-0.0645 -0.14981,-0.0506 -0.3032,-0.0915 -0.45691,-0.12827 -0.18618,-0.0369 -0.37368,-0.0681 -0.56394,-0.0716 0,0 -0.29981,0.0464 -0.29981,0.0464 z" />
    <path
       style="opacity:0.6;fill:#d3bc5f;fill-opacity:1;stroke:#d3bc5f;stroke-width:0.264999;stroke-linecap:round;stroke-opacity:1"
       id="path417"
       d="m 104.39391,260.16233 c 0.26097,0.09 0.51607,0.19916 0.76399,0.3206 0.16055,0.0857 0.32586,0.16717 0.47166,0.27724 0.042,0.0354 0.0879,0.037 0.14036,0.0422 0,0 0.23044,-0.0217 0.23044,-0.0217 v 0 c 0.047,-0.0226 0.0411,-0.0291 -0.002,-0.0573 -0.16951,-0.0967 -0.33652,-0.19849 -0.51542,-0.2775 -0.25761,-0.11436 -0.51572,-0.22882 -0.78188,-0.32207 0,0 -0.30705,0.0385 -0.30705,0.0385 z" />
  </g>
</svg>
