<?xml version="1.0" encoding="UTF-8" standalone="no"?>
<svg
   xmlns:dc="http://purl.org/dc/elements/1.1/"
   xmlns:cc="http://creativecommons.org/ns#"
   xmlns:rdf="http://www.w3.org/1999/02/22-rdf-syntax-ns#"
   xmlns:svg="http://www.w3.org/2000/svg"
   xmlns="http://www.w3.org/2000/svg"
   xmlns:sodipodi="http://sodipodi.sourceforge.net/DTD/sodipodi-0.dtd"
   xmlns:inkscape="http://www.inkscape.org/namespaces/inkscape"
   width="1200"
   height="600"
   viewBox="0 0 317.5 158.75"
   version="1.1"
   id="svg8"
   sodipodi:docname="da-christmas.svg"
   inkscape:version="1.0.1 (3bc2e813f5, 2020-09-07)">
  <sodipodi:namedview
     pagecolor="#ffffff"
     bordercolor="#666666"
     borderopacity="1"
     objecttolerance="10"
     gridtolerance="10"
     guidetolerance="10"
     inkscape:pageopacity="0"
     inkscape:pageshadow="2"
     inkscape:window-width="1920"
     inkscape:window-height="1061"
     id="namedview52"
     showgrid="false"
     inkscape:zoom="1.41"
     inkscape:cx="599.29335"
     inkscape:cy="298.91163"
     inkscape:window-x="0"
     inkscape:window-y="19"
     inkscape:window-maximized="0"
     inkscape:current-layer="svg8"
     inkscape:document-rotation="0" />
  <defs
     id="defs2" />
  <metadata
     id="metadata5">
    <rdf:RDF>
      <cc:Work
         rdf:about="">
        <dc:format>image/svg+xml</dc:format>
        <dc:type
           rdf:resource="http://purl.org/dc/dcmitype/StillImage" />
        <dc:title></dc:title>
      </cc:Work>
    </rdf:RDF>
  </metadata>
  <g
     id="layer1"
     transform="translate(0,-138.25001)">
    <path
       id="path27"
       style="fill:#2d5016;fill-opacity:1;stroke:#2d5016;stroke-width:0.264583px;stroke-linecap:butt;stroke-linejoin:miter;stroke-opacity:1"
       d="m 153.17973,160.4364 c -1.1896,-1.47236 -0.18129,-6.50042 1.90079,-4.22893 0.14081,1.50992 -0.29442,5.20331 2.18389,4.48607 -1.1294,-1.85744 1.47753,-3.6306 1.27241,-0.90832 -0.41409,1.78222 0.79394,3.34787 2.54961,2.09374 0.97973,0.81463 -2.81059,4.5202 0.49121,3.70328 0.77588,-0.4954 2.82871,-3.42828 2.20801,-0.78049 1.10209,1.49924 -3.13717,4.65415 -0.17741,3.4192 1.29546,-0.475 3.66563,-0.41509 1.96141,1.46082 -0.98646,1.95702 -3.92457,4.04818 -4.64637,5.2695 1.77728,-0.99803 3.68616,-1.62843 5.23249,-2.71954 1.91536,1.97512 -1.55988,3.03869 -2.50837,3.95195 1.1395,0.13714 4.73789,-2.3247 4.09166,-0.0714 -1.36963,1.41142 -5.99843,2.53769 -4.53832,4.76679 2.30831,0.5477 4.34744,-3.12539 6.24891,-1.71696 -0.37759,2.32505 -2.5988,3.84561 -4.41617,5.08052 -0.95528,0.33651 -2.29388,1.28151 -0.46932,0.75274 1.33104,-1.25777 5.39228,-2.02223 3.87109,0.92617 -0.93465,0.79935 -4.08783,2.78519 -0.86292,2.22316 1.97048,0.0202 4.80319,-1.82031 6.22593,-0.62038 0.047,2.28214 -4.14002,1.15654 -3.99267,3.03777 1.27907,-0.47606 4.72639,1.4551 1.459,0.98503 -3.06342,0.66562 1.05607,1.43236 2.1695,0.79934 2.43984,-0.62022 1.27873,1.7051 -0.45107,1.32145 -1.44685,-0.57995 -5.09932,1.48856 -1.81957,1.29799 0.896,-0.40285 3.80804,-0.63925 1.50153,0.33714 -1.06241,0.27339 -2.7229,0.99701 -0.54876,0.77986 1.46048,0.20852 3.8029,-0.93747 4.70306,0.34729 -1.91016,0.73677 -6.04168,-0.25452 -6.04943,2.49795 1.16423,0.18207 4.75955,-1.98118 2.35033,0.35951 -0.83978,0.41664 -3.48341,2.56901 -0.90633,1.82477 1.48849,-0.44566 4.39885,-3.9385 5.05214,-1.53147 -1.52012,1.78975 -5.77384,1.57614 -5.41187,4.65007 1.48967,0.032 4.62501,-2.48787 3.79972,0.63271 -1.90314,1.60628 -4.05097,4.07513 -6.64399,4.02469 -2.92011,-1.73777 -5.52715,1.5687 -8.46346,0.009 -2.8095,-1.67099 -5.60222,0.80383 -8.50445,0.16005 -3.11364,-0.98933 -6.09379,-2.43215 -9.20852,-3.46514 -2.93088,0.39333 -6.24497,-0.16996 -8.30697,-2.44744 1.42019,-1.07772 3.88599,2.14275 4.82098,1.04981 -0.40077,-1.07321 -3.28571,-3.07325 -0.56929,-2.93863 1.59576,0.35356 1.74211,-0.20204 0.59077,-0.97856 0.87192,-0.34148 4.88688,-1.17313 2.1107,-1.58182 -1.0458,0.1595 -4.27961,0.11431 -3.71313,-0.84672 1.54329,0.31775 4.84134,-2.01927 1.86958,-2.58601 -1.49551,0.2723 -4.16388,-1.62513 -1.28471,-2.00882 1.92913,-0.18692 2.00965,-1.57483 0.0355,-1.1013 -1.02004,0.26886 -4.17971,-0.21546 -1.46521,-0.75239 1.40818,0.61524 5.19426,-1.47064 1.84577,-1.63714 -2.36578,-0.4775 -1.14154,-3.12944 0.64738,-1.51369 1.05565,0.71204 3.80513,0.41348 1.77154,-1.0396 1.10027,-0.38821 4.24764,0.48924 1.91176,-1.37943 -0.8045,-1.1256 2.48744,-0.3083 0.22045,-0.66277 -1.50106,0.14751 -5.0504,-1.89438 -3.43278,-3.0712 1.97121,-0.22879 4.92122,3.14125 6.06949,1.31198 -0.42853,-1.31778 -2.60549,-2.91987 -2.36367,-3.83636 1.04793,0.98998 4.73831,1.51818 2.22134,-0.42683 -0.34601,-0.75582 -2.734,-3.36204 -0.50567,-2.25573 0.88559,1.38781 3.63381,0.73223 1.67596,-0.74905 -1.31243,-0.57176 -5.24979,-0.1654 -4.30075,-2.27987 1.65943,-1.56891 4.89629,2.20099 5.42374,0.50252 -0.95327,-1.34618 -2.2291,-4.76685 0.25287,-2.54911 2.54786,0.41736 -0.69117,-2.80131 -1.46076,-3.47678 -0.91317,-0.77423 -1.01277,-1.6026 -0.0191,-0.33759 0.56904,0.96112 1.95371,1.60278 1.11181,-0.12482 0.34638,-1.21833 -3.18045,-4.31834 -0.44013,-3.46782 0.74574,0.58686 2.36715,1.21761 1.16385,-0.29861 -0.10382,-1.03705 -3.46133,-3.05263 -0.81257,-2.85032 0.91778,0.65197 3.94425,2.68811 4.06674,1.33196 -1.35325,-0.81173 -1.41678,-3.46896 0.55704,-1.79307 0.60227,0.4155 1.35543,0.77047 0.65379,-0.36059 z" />
    <path
       id="path33"
       style="fill:#2d5016;fill-opacity:1;stroke:#2d5016;stroke-width:0.264583px;stroke-linecap:butt;stroke-linejoin:miter;stroke-opacity:1"
       d="m 166.02183,206.74742 c 4.28729,-0.83789 8.36444,2.06477 12.73903,0.9643 3.15903,-0.44212 4.10339,0.87735 0.38372,0.96003 -4.9268,1.81894 6.08322,1.95252 0.12105,3.85983 -5.07405,0.52939 5.78899,1.26969 0.55986,3.16353 -3.83253,1.69618 -0.65806,0.28318 -0.17757,1.46034 -2.57696,0.56143 -5.45638,2.9272 -1.00207,2.91864 7.32173,-2.22174 -5.7465,5.14803 0.75746,3.77626 4.23688,-2.30732 2.38297,1.1955 1.25744,2.55891 1.48706,-1.12566 6.68427,-3.60994 4.18601,0.35115 -1.48542,0.86231 -8.89774,3.74277 -3.71685,3.61053 1.53274,-0.84938 7.63773,-3.51416 5.11293,-0.82057 5.54565,-2.43252 0.16178,3.69084 -2.56578,2.39905 -2.38794,0.2444 -5.91505,2.22483 -1.54799,1.02331 2.67921,0.13783 5.71228,3.47981 1.07754,2.30799 -4.27424,2.38609 2.84139,2.06404 4.18907,0.11435 4.75151,-3.2709 1.75959,3.57739 -1.66542,2.93128 -6.2528,2.61358 7.21903,-1.96693 2.43532,1.39375 -2.12289,0.27566 -6.34516,2.59197 -1.7147,1.7295 2.27681,-0.99658 5.09964,-0.18245 1.34115,0.96978 -2.95512,0.34276 -3.94344,2.56152 -0.31629,1.12779 1.54816,-1.61076 6.6243,-0.12816 2.40237,0.81518 -3.07668,0.37166 -7.39326,7.61236 -1.46739,5.3713 3.16475,0.43862 9.63333,-6.2486 5.65269,-0.2703 -0.004,2.46705 -6.94028,1.97809 -1.83319,1.85052 3.03426,-0.41928 4.87181,3.26112 0.81236,1.93747 -2.92314,-0.54427 -5.40302,1.09057 -1.93337,2.54593 5.10418,0.35352 -0.43542,4.65305 0.18796,5.74502 1.97879,-1.1333 5.28098,-1.86095 2.58828,1.24638 -4.07684,2.53051 -8.89613,-1.08196 -13.26953,1.40266 -4.25195,-1.94137 -8.43989,-4.68854 -13.56751,-3.05847 -4.3414,-0.47618 -8.76402,-3.65871 -12.84173,-0.41632 -5.79581,2.43564 -10.25496,-4.01943 -15.89585,-3.85024 -5.06112,-1.73296 -9.98984,-0.11211 -14.97917,-0.11938 -6.11045,-2.27967 6.66342,-1.88216 0.31516,-3.34584 -2.78702,-0.16174 -5.64462,-3.64923 -1.05026,-2.18678 2.81083,1.76449 9.48186,-4.7639 4.05328,-2.2357 -2.69667,-0.84509 1.8089,-3.18841 -2.24503,-2.12242 -4.23234,-0.22761 -1.06721,-3.61666 1.76684,-2.36048 3.18025,-0.28141 -3.75636,-4.61895 1.23114,-4.0846 5.11434,0.69499 0.71589,-2.60436 -0.86651,-3.78087 1.71963,-0.90354 9.1745,1.53934 4.3142,-1.09163 -3.99338,-1.38526 -1.69588,-5.03234 1.44738,-2.76544 3.23198,0.35711 -5.70453,-3.83409 0.0583,-3.45069 -2.24109,0.59128 -8.74445,-1.03601 -3.22568,-1.93144 2.97161,0.78741 3.43235,-0.88211 0.38992,-1.36365 3.15316,0.92167 0.28765,-3.12265 3.37129,-0.83548 4.11249,1.35893 3.14576,-2.08492 0.35817,-2.9984 1.46839,-0.82874 4.07175,-1.23489 0.5645,-1.94086 -2.74621,0.37199 -6.00501,-2.48803 -1.23311,-1.40654 2.65533,1.37018 5.64803,-1.00117 1.65778,-2.07352 -5.20756,-3.64656 6.11571,0.96768 1.89843,-2.50448 -0.9531,-1.67017 -8.33885,-0.49822 -4.82405,-3.25792 2.03479,0.49028 7.14997,2.50267 3.25966,-1.01447 1.35284,-0.50794 4.97474,-0.56851 1.48013,-2.14 -5.03989,-1.63436 -0.24645,-1.37931 1.51352,-2.47231 2.77753,0.0507 7.91729,-3.05993 11.20228,-0.2217 4.55631,1.63662 9.58639,1.86003 14.37923,1.71447 0.95539,-0.0803 1.91374,-0.15719 2.87357,-0.12875 z" />
    <path
       id="path47"
       style="fill:#2d5016;stroke:#2d5016;stroke-width:0.264583px;stroke-linecap:butt;stroke-linejoin:miter;stroke-opacity:1"
       d="m 185.67937,262.12395 c 3.84392,-0.0904 7.42474,3.61769 11.05606,2.05996 -0.90603,2.31539 -1.78234,2.74433 1.24601,1.50085 4.25098,-3.89068 1.45204,2.95779 -1.07885,3.57242 2.55519,-0.244 4.92606,1.32495 0.78019,1.85051 -8.12213,2.1175 10.28262,0.69068 2.22088,3.73729 -1.44133,0.81149 5.49061,0.35696 1.30237,3.10847 -3.81626,3.20472 5.17009,-1.52946 1.62185,2.5159 -3.31318,0.44749 5.70019,1.75782 2.24889,3.64936 -3.15257,-2.06127 2.08043,4.68807 -1.98548,0.80195 -4.1147,-4.11203 -8.90608,-1.04713 -12.72592,1.17937 -3.71828,1.81663 8.67181,-0.0682 1.83733,2.24931 -3.6153,0.60841 -7.46345,-2.57084 -10.43945,0.89513 -3.32338,-1.42706 3.12627,-2.6169 -1.92614,-1.87469 -3.61519,0.6484 -3.93839,-2.10865 -0.45974,-2.12322 1.42527,-3.53812 -7.20761,-1.53259 -4.70721,2.64139 0.66515,2.62079 6.2936,-1.05892 2.49379,2.46131 -4.13959,2.19035 -7.6076,-2.01624 -11.79795,-0.62125 -4.7654,-1.83546 -1.01219,-0.91094 1.4018,-1.49827 -1.89137,-0.16815 -6.07559,-3.27616 -1.61771,-1.7642 6.75875,0.0693 -6.32863,-3.99788 -6.15201,0.84209 -0.62329,1.70425 -3.92303,4.02196 -0.002,1.98772 4.5138,-0.23597 -2.54687,3.29619 -2.8006,3.35713 5.51412,2.9378 -3.70844,-0.27273 -4.52996,0.24634 -2.47365,1.9611 -9.994,-1.44039 -3.68298,-1.42215 0.88219,0.2819 -6.83126,-5.35544 -2.07446,-3.45005 2.51354,1.13624 4.41728,0.71622 1.35522,-1.48343 -1.07975,-1.88226 7.10009,1.10634 2.64473,-2.27045 -3.17837,-1.66412 -8.35269,2.56262 -7.80545,4.84253 4.77193,-0.2005 -3.70623,2.69802 -4.86725,0.26819 -1.94392,-0.0796 -8.17042,1.3249 -7.29528,-0.33028 3.26975,0.004 5.98751,-1.2924 1.40461,-2.01025 -3.97582,-0.38646 5.34638,-3.11822 0.81954,-2.26651 -3.53584,0.46873 -7.23267,1.52764 -5.57893,5.83239 -0.12586,3.52036 -2.2103,5.80991 -2.84148,1.90844 -1.22975,1.67168 -5.03522,3.03103 -1.86127,0.21503 4.38887,-3.90968 -2.90084,-2.5634 -2.07374,-3.00257 2.93054,-0.59287 5.60433,-2.76966 0.80843,-1.9039 -2.57652,0.84871 -6.23638,-0.80741 -1.6811,-1.70232 5.65414,-1.25924 -8.62152,0.66203 -2.94317,-1.7317 4.19425,0.0621 -2.65803,-3.28834 2.02063,-2.94977 2.59795,-3.36986 -10.61289,-6.53238 -3.38912,-6.16814 3.29464,0.42158 -2.22363,-1.9151 1.69755,-1.40613 4.57399,-1.54966 2.17782,-2.94063 -1.07479,-2.17829 -3.65821,-2.3301 8.33783,-2.41782 1.93003,-5.23135 -3.24618,-1.62131 6.21903,-0.10212 1.41581,-2.71989 0.91278,-2.0843 4.6836,-0.52081 2.73207,-4.26408 1.69639,-0.42944 6.70133,-0.0329 1.80794,-0.6048 -5.20257,-2.71697 3.32258,0.16919 4.65676,-2.82436 3.8019,-2.5667 8.44658,0.0494 12.69433,-0.88676 4.86303,-0.19975 9.37858,2.6531 14.3275,1.83044 6.63855,-1.02961 12.56594,3.51713 19.2317,3.03202 4.09067,-0.21668 7.80618,1.02667 11.63569,2.10327 z" />
    <path
       id="path57"
       style="fill:#5aa02c;stroke:#5aa02c;stroke-width:0.264583px;stroke-linecap:butt;stroke-linejoin:miter;stroke-opacity:1"
       d="m 154.25196,166.42585 c 3.2274,0.0834 2.90624,6.16712 6.98729,4.24654 1.84959,-0.2281 5.45353,-1.86735 6.34371,-1.19058 -2.37026,2.78538 -6.49405,2.44162 -8.09913,5.00922 -3.24467,1.79198 3.50436,1.37848 4.74099,1.11344 1.90428,-0.45413 4.40246,-1.17197 1.53557,0.54686 -2.38932,0.88486 -4.389,1.3683 -5.0193,3.57191 -3.77684,2.01487 1.84814,1.60916 1.61027,3.09186 -2.49953,1.0738 -3.24858,4.40118 0.24133,3.4391 0.3506,1.78185 -3.15556,3.24836 0.0841,2.6654 1.34086,1.47981 1.67402,3.91353 4.50621,2.25848 1.93853,-0.13286 5.84673,-0.9314 6.67397,-0.0718 -1.40923,2.37482 -5.49862,1.92165 -6.73427,3.16982 3.13814,1.62106 -5.21526,2.23512 -0.74996,3.93598 2.82974,1.18355 5.92601,0.0328 8.80845,0.0413 -1.89462,1.57568 0.85532,1.7805 1.09781,2.92944 3.04655,-0.82881 3.40555,1.36088 0.36053,1.77503 -1.76407,0.25213 -5.91943,-0.90123 -3.39854,1.75735 -1.54561,1.03365 -7.24151,-0.22943 -5.01606,3.01367 1.46491,0.23708 2.39415,1.25479 2.48522,1.97779 1.78119,0.23733 9.06421,-0.79861 5.98113,1.97725 -2.94416,-0.26797 -4.17679,2.73635 -1.41736,3.6664 -0.39738,3.47125 -4.77087,1.62279 -6.79895,3.37934 -3.06349,0.97979 -5.79906,-1.37715 -8.87064,-1.0611 -3.05708,-0.73693 -6.05752,-0.80156 -9.15489,-0.12142 -2.80657,-0.89731 -5.78553,-1.69046 -8.57493,-2.7991 -2.47804,-0.48137 -3.53616,-3.47528 -0.13069,-3.32922 3.55095,-1.43927 -5.37353,-3.48891 -1.03706,-4.77984 2.59031,0.97807 3.1893,-1.75367 0.44362,-1.96122 -1.4253,-1.07439 -5.16099,-3.47309 -4.30767,-4.76373 2.19285,1.20892 3.25699,-1.3429 5.81332,0.42625 2.43043,0.17657 2.68136,-1.68974 1.29126,-3.12675 1.40741,0.0289 4.63335,-1.44254 1.52672,-2.26077 -3.24337,-0.10456 -2.08036,-4.86472 0.74072,-2.57939 5.76591,0.70202 -3.59947,-5.27203 1.49848,-5.56339 2.39804,0.66402 2.18666,-0.17731 0.5285,-1.54266 0.44554,-1.72157 3.50637,-3.2668 0.27544,-4.55295 -1.77791,0.17985 -4.8758,0.22101 -2.42646,-1.96873 -1.55866,-0.19177 -3.21544,-1.51649 -0.32683,-1.89577 0.70529,-0.89955 -3.14599,-4.25154 0.0444,-3.76971 3.18645,2.57404 7.04563,-0.0944 3.6466,-3.27382 -1.02084,-2.04627 3.73279,2.40962 2.43954,-0.74913 -1.8844,-2.26389 0.35679,-3.41929 2.25902,-2.25693 l 0.0987,-0.3744 z" />
    <path
       id="path194"
       style="fill:#ff2a2a;stroke:#ff2a2a;stroke-width:0.264583px;stroke-linecap:butt;stroke-linejoin:miter;stroke-opacity:1"
       d="m 129.63999,240.89097 c -0.43114,0.1305 -0.93484,0.1198 -1.24041,0.5102 -0.57137,0.52192 -1.09713,1.16817 -1.28219,1.93203 -0.12123,0.98065 0.62511,1.73585 1.19049,2.44036 0.36404,0.44443 0.90903,0.71636 1.48641,0.70863 0.72153,0.0919 1.54317,0.087 2.10468,-0.44877 0.42313,-0.34371 1.00396,-0.62679 1.06118,-1.23734 0.12849,-0.74353 0.19121,-1.59348 -0.35489,-2.19832 -0.58892,-0.67474 -1.45449,-1.01864 -2.09584,-1.63751 -0.25378,-0.16851 -0.59249,-0.19926 -0.86943,-0.0693 z" />
    <path
       id="path38"
       style="fill:#5aa02c;fill-opacity:1;stroke:#5aa02c;stroke-width:0.264583px;stroke-linecap:butt;stroke-linejoin:miter;stroke-opacity:1"
       d="m 171.91293,215.12155 c 3.01516,-0.693 5.30574,3.41214 7.70538,3.63335 -2.6311,1.42992 -7.491,2.04266 -5.19779,5.23192 -1.77203,0.9944 -4.76904,2.88089 -0.86747,2.44764 3.22722,-0.57362 2.94917,1.57662 1.56444,2.5915 3.06422,-0.85235 4.91883,0.96563 1.28945,2.30962 -4.7532,3.52111 4.89966,3.05458 7.24844,2.3786 2.12655,-0.57286 5.426,0.52594 1.3937,1.20064 -3.19584,-1.36393 -9.48344,4.38643 -3.35365,4.1439 -1.18599,1.79398 -7.01759,3.58944 -1.83141,3.38518 2.90146,0.45198 1.75727,4.07318 5.51606,3.01543 2.12635,0.11162 3.94397,0.3449 2.2498,1.94243 4.6388,-0.0602 1.56235,1.43969 1.16298,2.70776 3.92096,-0.26916 4.24825,6.05634 -0.42478,5.17822 -3.85713,1.427 4.89451,2.12321 -0.40648,3.98622 -2.86843,1.63723 3.83566,5.00694 -1.43001,6.11478 -3.58218,-0.27396 2.30271,2.12003 -1.39092,3.42211 6.17918,2.22372 -3.3809,3.87501 -5.83287,2.06293 -4.88393,-1.63791 -10.13589,-2.21584 -15.28663,-2.5009 -4.44146,0.96641 -8.97915,-0.85069 -13.40935,0.54753 -6.31881,-1.2642 -13.16592,0.46232 -19.0887,-2.67164 -3.41906,-1.97568 -7.76292,-2.26578 -10.7706,-4.67591 0.44799,-1.57716 8.7317,1.55996 5.69222,-2.9224 3.45335,-0.31523 2.42819,-1.63994 0.15585,-3.01865 1.93728,-2.74692 4.92387,-4.82038 8.04051,-5.86742 -1.31544,-1.49307 -4.3276,-4.97677 0.0797,-3.64 2.63364,0.42949 -5.52701,-5.08695 -0.63014,-3.93373 3.53514,1.68839 0.82289,-0.24755 0.89621,-1.85227 2.50941,0.59788 6.64122,-1.44739 1.93284,-2.4495 -2.07927,1.11874 -9.39533,-1.52614 -6.16335,-3.53373 3.1538,0.96616 -0.64964,-4.68736 3.43958,-2.97214 4.00537,0.66704 3.92671,-0.68995 1.09839,-2.53734 1.58864,-1.1656 9.79855,-0.23457 5.32535,-3.8497 -4.15359,-2.91456 8.4832,1.21736 1.72542,-2.46692 -3.20536,-0.31212 -5.02006,-3.10316 -0.90147,-3.55597 1.20413,-1.24285 -4.9361,-1.69007 -1.36084,-2.89574 3.69784,0.9201 3.16153,-1.64473 0.25123,-2.662 -1.52096,-5.66751 6.90077,-0.41117 9.72851,0.11322 6.65079,0.25834 13.26404,1.45677 19.92148,1.77937 l 0.97579,-0.0568 0.95314,-0.12955 z" />
    <path
       id="path246"
       style="fill:#ff2a2a;fill-opacity:1;stroke:#ff2a2a;stroke-width:0.264583px;stroke-linecap:butt;stroke-linejoin:miter;stroke-opacity:1"
       d="m 191.87858,277.12591 c -1.08639,0.54478 -1.50639,1.93138 -1.26348,3.06223 0.21911,0.41372 0.32314,0.91133 0.69459,1.22317 0.69556,0.58774 1.83066,0.55662 2.47338,-0.0988 0.34199,-0.19618 0.71925,-0.42053 0.81147,-0.84415 0.43928,-1.07448 0.64214,-2.33019 0.21733,-3.44015 -0.2935,-0.68315 -1.17748,-1.05295 -1.84004,-0.66884 -0.47893,0.0932 -0.80673,0.3723 -1.09325,0.76653 z" />
    <path
       id="path44"
       style="fill:#5aa02c;fill-opacity:1;stroke:#5aa02c;stroke-width:0.264583px;stroke-linecap:butt;stroke-linejoin:miter;stroke-opacity:1"
       d="m 182.9803,266.61603 c 2.21321,2.57743 9.09406,-3.24119 7.58867,2.356 1.32784,1.28282 1.34796,1.5791 1.47267,3.39758 4.80137,-0.17132 0.31722,2.85303 -1.11203,3.91698 5.01612,-1.10145 0.25136,2.5263 0.32336,3.32119 4.63399,2.06698 -4.23049,3.4716 -3.34426,6.97031 -2.15613,0.72074 -7.13271,-0.61004 -7.1764,-1.42612 1.86596,-4.32384 -5.93967,-4.33827 -7.82586,-1.88773 -1.0644,2.10639 1.12066,5.59128 -2.88807,4.01116 -2.03394,-3.23785 -6.29933,-3.00324 -9.39662,-4.77391 -1.85153,-0.12755 -3.63248,6.44068 -4.61117,2.56464 -0.23463,-3.35741 -3.4382,-3.3927 -6.07116,-3.6174 0.56005,-1.96661 -3.32575,-5.25107 -3.62335,-1.41041 -2.18922,3.25277 -5.93463,2.87853 -9.18076,3.24878 -3.62933,-2.16722 -8.77534,-2.14529 -11.28422,1.75029 2.48363,-4.4508 -3.99793,0.0927 -3.88239,-2.68947 5.84949,-1.6042 -7.17065,-3.38375 -0.4967,-5.0141 1.84151,-2.60711 -8.8331,-3.62736 -3.98997,-5.48637 2.46251,0.0503 4.83981,-0.066 3.37151,-2.52314 1.57508,-1.13835 4.28893,-0.87207 1.77704,-2.77832 -1.75104,-1.85937 -5.02282,-8.28107 0.1635,-5.10465 4.04241,0.65541 8.85038,1.9329 12.42517,-0.90081 5.67288,-0.54629 11.03276,2.21996 16.48766,3.38504 7.55929,1.95124 15.46153,1.51211 23.0787,2.9808 2.70061,0.049 5.73449,1.41094 8.19468,-0.29034 z" />
    <path
       id="path125"
       style="fill:#ff2a2a;fill-opacity:1;stroke:#ff2a2a;stroke-width:0.264583px;stroke-linecap:butt;stroke-linejoin:miter;stroke-opacity:1"
       d="m 162.87909,196.20672 c -0.58479,0.0555 -0.6759,0.74366 -0.6511,1.21228 -0.0352,1.01379 0.5419,1.99056 1.433,2.47015 0.86821,0.52429 1.91532,0.69364 2.91612,0.60223 0.92976,-0.60314 1.72643,-1.56883 1.7532,-2.7232 0.0206,-0.59769 -0.0143,-1.28067 -0.52964,-1.68256 -0.66039,-0.53283 -1.43751,-0.9432 -2.20881,-1.27057 -0.90743,-0.18851 -2.09266,-0.12634 -2.65488,0.72182 -0.12098,0.20438 -0.14437,0.44807 -0.0579,0.66985 z" />
    <path
       id="path156"
       style="fill:#ff2a2a;fill-opacity:1;stroke:#ff2a2a;stroke-width:0.264583px;stroke-linecap:butt;stroke-linejoin:miter;stroke-opacity:1"
       d="m 165.83697,215.29162 c -0.59199,0.22006 -1.04993,0.75454 -0.94512,1.41654 0.0425,1.75401 2.14853,2.98227 3.72243,2.26629 0.88005,-0.35517 1.42768,-1.31021 1.34887,-2.24746 0.0577,-0.7794 0.42607,-1.66193 -0.0974,-2.36398 -0.28057,-0.51046 -0.77815,-0.99928 -1.40739,-0.91838 -0.98822,0.0292 -1.6915,0.81536 -2.2979,1.5013 -0.10632,0.11664 -0.21329,0.23274 -0.32353,0.34569 z" />
    <path
       id="path54"
       style="fill:#8dd35f;fill-opacity:1;stroke:#8dd35f;stroke-width:0.264583px;stroke-linecap:butt;stroke-linejoin:miter;stroke-opacity:1"
       d="m 169.94102,223.04956 c -3.21868,4.03675 7.32244,0.55922 3.69144,3.96006 -1.03337,0.88435 -2.76029,1.78556 -1.37594,2.93015 -2.18092,0.67226 -5.17613,0.97382 -5.05314,3.45611 -3.24712,0.47362 -5.49285,-3.58738 -8.77122,-2.15491 -3.23333,-0.72765 -5.99188,-2.1817 -9.39821,-0.86783 -2.12945,0.388 -8.09545,0.26866 -4.30706,-2.68264 1.7986,-1.92003 -4.72843,-3.6242 -1.07116,-5.15029 2.77717,0.62573 1.43203,-1.55973 1.68988,-2.52097 2.67988,-0.21957 4.76529,-2.12132 3.60913,-4.27441 4.49409,0.0668 1.04105,-4.89661 -1.761,-4.18803 -2.94488,-2.56935 1.20947,-4.30823 3.43289,-4.04202 -0.0371,-2.46378 -6.47564,-1.84886 -3.17284,-4.11046 2.3282,0.31873 3.38117,-1.08338 0.72762,-1.84476 -2.26132,-2.78096 5.14139,0.54033 3.43616,-3.10058 -3.68223,-1.40362 0.38002,-3.89237 2.24319,-1.89523 -0.79335,-1.39847 -3.78708,-4.7069 -0.18185,-4.33404 -2.21678,-0.35524 -4.51646,-3.30875 -0.92909,-3.19107 1.09084,-1.88308 -3.39467,-3.10462 0.34173,-3.2601 3.64315,-1.90851 -3.91945,-3.89366 0.36488,-4.90464 3.21794,-1.73259 -2.73977,-2.58528 0.19056,-4.54347 2.09809,-1.34024 -1.81539,-4.50048 1.97309,-4.27959 2.98807,0.53241 0.154,3.52235 2.2188,4.75856 -3.50186,1.33165 3.14058,2.04934 -0.31615,3.89571 -0.54015,3.13396 0.27969,7.32677 0.93518,9.39622 2.61407,0.85218 -1.3618,3.53596 1.90816,3.48169 2.13749,-0.0376 3.23567,1.93675 1.69259,3.24713 2.41149,-2.19097 8.23086,1.05452 3.70272,2.9797 -2.78341,-0.19362 -4.64578,1.21767 -1.90224,2.73015 -0.66251,1.52514 -5.7695,3.65434 -1.3938,2.72133 2.22817,-1.20329 4.92036,0.28431 1.81842,2.06543 -3.99148,2.28173 3.80847,0.99348 1.2883,4.05399 5.46482,0.46436 -5.75482,4.98801 0.16524,6.44263 -0.99639,2.85692 4.11026,-0.84851 2.58487,2.55453 -1.76981,0.30995 -2.49348,2.30141 -0.0257,1.2799 1.05411,-0.46431 2.99369,0.0772 1.64457,1.39175 z" />
    <path
       id="path187"
       style="fill:#ff2a2a;fill-opacity:1;stroke:#ff2a2a;stroke-width:0.264583px;stroke-linecap:butt;stroke-linejoin:miter;stroke-opacity:1"
       d="m 174.9201,233.67036 c -0.90217,0.27542 -1.46675,1.27206 -1.27045,2.19084 0.19297,1.3815 1.04947,2.6275 2.14887,3.45677 0.99247,0.75654 2.45061,0.41343 3.28482,-0.41568 0.6688,-0.77512 1.0158,-1.88191 0.80037,-2.89559 -0.28145,-0.7716 -0.59756,-1.68382 -1.48556,-1.92446 -1.08928,-0.46291 -2.31292,-0.55851 -3.47805,-0.41188 z" />
    <path
       id="path239"
       style="fill:#ff2a2a;fill-opacity:1;stroke:#ff2a2a;stroke-width:0.264583px;stroke-linecap:butt;stroke-linejoin:miter;stroke-opacity:1"
       d="m 141.0771,281.44053 c -0.87599,0.40465 -1.55605,1.24544 -1.66026,2.21772 -0.21736,0.72861 -0.0341,1.52513 0.46233,2.09757 0.52946,0.68705 1.07702,1.48187 1.99016,1.6591 1.1565,0.32379 2.47712,-0.20947 3.04013,-1.28243 0.46989,-0.80368 0.86816,-1.80089 0.49387,-2.72201 -0.0871,-0.56906 -0.33538,-1.18306 -0.93705,-1.36737 -0.64643,-0.15494 -1.01775,-0.76666 -1.64405,-0.92856 -0.59706,-0.12517 -1.21118,0.0664 -1.74513,0.32598 z" />
    <path
       id="path60"
       style="fill:#8dd35f;fill-opacity:1;stroke:#8dd35f;stroke-width:0.264583px;stroke-linecap:butt;stroke-linejoin:miter;stroke-opacity:1"
       d="m 165.0482,227.21876 c 3.02373,0.001 4.91626,3.13723 2.95613,5.0422 1.84079,1.09381 6.45593,0.24354 3.11975,3.35164 -1.85585,3.57126 6.51403,0.75141 2.16006,3.99984 -3.72763,1.02056 -5.59497,4.46928 -0.48647,4.54118 3.98828,-0.40676 -1.08986,1.80763 1.72284,2.99205 -1.26702,1.77527 -5.80911,-1.99405 -3.54968,2.01553 -1.42875,0.82468 -5.21639,-2.94081 -3.02725,0.68919 0.86344,5.41393 8.90521,0.19336 9.60091,3.65412 -2.54164,0.60839 -3.36515,2.67625 0.008,1.86574 3.60464,-0.38343 -0.7726,2.48048 1.55367,3.69345 -1.89207,-0.18401 -4.46316,1.99756 -1.12902,2.19051 1.89241,0.17858 5.2945,2.12473 2.71759,3.97117 2.17914,0.95756 11.38484,0.39063 6.55132,3.67032 -2.60898,0.69811 -7.04265,-1.95952 -6.88222,1.30914 -3.39848,-0.0987 -6.82293,2.4003 -1.72921,2.62305 2.59701,1.54962 9.82004,-0.34344 8.43017,4.10098 -3.48697,0.21637 3.03357,4.43053 -1.37696,3.31546 -3.9236,-1.76518 -7.93563,-3.28843 -12.39834,-2.77967 -3.42898,0.51528 -9.59465,0.53028 -5.03229,3.96075 -2.18754,1.09534 -5.04703,0.1531 -5.66218,-1.39584 -2.25506,0.40554 -6.72541,-1.84859 -3.26418,-3.07307 -1.98215,1.02376 -7.31198,-1.98889 -3.18125,-2.60515 2.74128,0.29785 2.6035,-3.06568 2.35278,-4.15677 -2.0128,-0.35211 -6.74727,0.39015 -3.21092,2.50608 -1.98739,1.34363 -6.2726,-1.43591 -5.07256,1.82881 -2.39996,1.42821 -6.09489,0.64262 -8.26793,1.45497 3.4679,-2.10201 1.67537,-3.48664 -1.23709,-1.98872 -3.58505,0.71162 -7.7174,-0.48538 -10.02135,-3.39714 -0.70717,-2.31433 5.6374,10e-4 1.87883,-2.15314 -1.91565,-0.77815 -9.07375,-1.46519 -5.51281,-3.93208 2.34859,1.05154 7.28063,-1.0615 3.42915,-3.23112 -1.67839,0.40337 -6.94487,-1.07361 -2.87208,-2.03014 3.97601,0.70103 8.92939,-0.29144 5.43001,-4.45126 3.34451,1.02395 3.39975,-2.26237 6.38612,-2.11372 0.66031,-2.01836 1.30225,-2.53397 3.31028,-3.82241 -2.96024,0.0155 -2.3955,-2.51429 -1.41805,-3.742 -5.47372,-2.98583 7.33383,-0.39487 2.51681,-5.25555 -3.00068,-2.19886 4.50401,-3.15909 -0.35261,-4.59087 -2.71845,0.0994 -4.50824,-2.36264 -0.89373,-2.2001 3.12789,0.72576 4.22057,-1.43682 3.79353,-3.9945 4.24037,-2.59972 9.1213,-3.29281 14.00694,-2.11969 1.53978,-0.13327 3.21506,0.73985 4.65369,0.25676 z" />
    <path
       id="path70"
       style="fill:#ffeeaa;stroke:#ffeeaa;stroke-width:0.264583px;stroke-linecap:butt;stroke-linejoin:miter;stroke-opacity:1"
       d="m 152.05821,145.10168 c 0.64226,-0.84787 1.2225,-1.76022 1.91908,-2.5464 0.52361,-0.56328 1.64283,-2.99353 2.12288,-1.22999 0.61564,1.2258 1.35315,2.42239 1.68773,3.78392 0.55414,1.22539 2.12233,0.65414 3.1535,0.98131 1.07141,0.44126 2.75713,0.46053 3.3993,1.27967 -0.74208,0.86283 -1.81562,1.45147 -2.65606,2.24914 -0.78658,0.78605 -1.89443,1.2557 -2.55929,2.13132 -0.18998,1.18166 0.38342,2.35875 0.25576,3.5674 -0.037,0.81385 0.56563,2.90423 -0.8234,1.76394 -1.25006,-0.99041 -3.0001,-1.19438 -4.07192,-2.41829 -1.60368,-0.66727 -2.90713,1.22843 -4.27088,1.8574 -0.55395,0.38198 -2.34363,1.82681 -1.84436,0.22471 0.34338,-1.53284 0.64525,-3.09082 1.11709,-4.58501 1.02807,-1.16553 0.13274,-2.41258 -0.96368,-3.08472 -1.34229,-1.03235 -2.30286,-2.45006 -3.54593,-3.5808 2.06764,-0.0608 4.12471,-0.25 6.18561,-0.41282 0.29826,-0.007 0.59704,-0.002 0.89457,0.0192 z" />
    <path
       id="path76"
       style="fill:#ffe680;stroke:#ffe680;stroke-width:0.264583px;stroke-linecap:butt;stroke-linejoin:miter;stroke-opacity:1"
       d="m 152.84697,146.14429 c 1.32947,-0.94411 1.84008,-2.6808 2.54052,-3.93463 0.35074,1.20767 0.65301,2.4754 1.43024,3.51847 0.66722,1.55869 2.67073,1.38484 4.08441,1.68581 0.92994,-0.18329 1.23594,0.50691 0.3762,0.93227 -0.9581,0.81127 -2.29044,1.23237 -2.88714,2.42365 -1.25497,0.60502 -0.62872,2.15491 -0.53126,3.20101 0.3728,0.75853 0.0982,2.09756 -0.94403,1.24359 -1.45661,-0.27129 -2.06275,-2.52598 -3.60919,-2.0272 -1.10372,0.49699 -1.94808,1.5853 -3.16698,1.79174 -0.31762,-1.43689 0.78065,-3.21728 1.28669,-4.65846 0.59585,-1.15528 -1.42801,-2.03996 -1.99552,-2.98385 -0.63191,-0.41846 -1.49245,-1.06374 -0.18246,-0.89356 1.19626,-0.11862 2.38891,-0.46287 3.59852,-0.29884 z" />
    <path
       id="path87"
       style="fill:#ffd42a;stroke:#ffd42a;stroke-width:0.264583px;stroke-linecap:butt;stroke-linejoin:miter;stroke-opacity:1"
       d="m 153.63574,147.29781 c 0.88637,-0.46691 1.19713,-1.52329 1.72297,-2.30822 0.44875,0.66053 0.16689,1.84063 0.80756,2.49704 0.86715,0.52756 2.44001,0.50991 3.08172,0.71113 -0.93025,0.78035 -2.015,1.34846 -2.96316,2.10859 -0.27407,0.83836 0.16902,1.69462 0.3093,2.52061 0.12363,0.4098 0.21781,1.41087 -0.24329,0.63032 -0.42656,-0.5935 -0.71987,-1.26754 -1.26891,-1.76713 -0.30938,-0.73812 -1.02441,-1.21882 -1.71108,-0.54956 -0.60747,0.23878 -1.08588,0.79291 -1.68265,0.97841 0.28559,-1.02527 1.0245,-2.01312 1.03474,-3.05978 -0.53569,-0.67194 -1.37546,-1.05526 -1.89078,-1.76351 0.50038,-0.35117 1.64852,-0.30203 2.36397,-0.19122 0.15464,0.0454 0.29064,0.13404 0.43961,0.19332 z" />
    <path
       id="path98"
       style="fill:#ffdd55;stroke:#ffdd55;stroke-width:0.264583px;stroke-linecap:butt;stroke-linejoin:miter;stroke-opacity:1"
       d="m 148.7306,166.12638 c 0.44428,0.0344 1.09311,0.43546 1.4033,0.24599 0.005,-0.56855 -0.28168,-1.10782 -0.18034,-1.68352 0.0302,-0.69729 0.17331,-1.44508 -0.15028,-2.09653 -0.0445,-0.50803 -0.92222,-0.23674 -0.68617,-0.84332 0.23072,-0.53813 0.71665,-0.89255 1.15845,-1.24681 0.24308,-0.32926 -0.09,-0.695 -0.1616,-1.02636 -0.0578,-0.24458 -0.5042,-0.87176 -0.6641,-0.42632 0.0382,0.436 -0.0985,0.88371 -0.53452,1.0717 -0.41786,0.1831 -0.7412,0.6521 -0.62305,1.11346 0.24221,0.43 0.73311,0.79623 0.56411,1.35933 -0.13236,0.49213 -0.13045,0.99338 -0.0143,1.48697 0.091,0.55584 0.0474,1.1219 -0.0835,1.66701 -0.018,0.12527 -0.0289,0.25192 -0.028,0.3784 z" />
    <path
       id="path104"
       style="fill:#ffdd55;fill-opacity:1;stroke:#ffdd55;stroke-width:0.264583px;stroke-linecap:butt;stroke-linejoin:miter;stroke-opacity:1"
       d="m 161.70827,179.23661 c 0.50005,-0.0617 0.9719,0.29206 1.4717,0.16621 0.3493,-0.23835 0.27033,-0.74428 0.18275,-1.10479 -0.17501,-0.52093 -0.22723,-1.07044 -0.17986,-1.61718 0.054,-0.4503 -0.0406,-0.90451 -0.0293,-1.34532 -0.35136,-0.4931 0.11279,-0.82877 0.5462,-0.98965 0.57874,-0.31905 0.807,-1.1792 0.43056,-1.72513 -0.34561,-0.3189 -0.78287,-0.56234 -1.19591,-0.76752 0.19853,0.27758 0.58147,0.5479 0.50385,0.9311 -0.34926,0.62974 -1.21856,0.77513 -1.49808,1.46597 -0.3313,0.60761 0.55573,0.81218 0.5809,1.3383 0.0325,0.97217 0.01,1.95634 -0.17138,2.91308 -0.12518,0.31156 -0.43176,0.48737 -0.64142,0.73493 z" />
    <path
       id="path110"
       style="fill:#ff2a2a;fill-opacity:1;stroke:#ff2a2a;stroke-width:0.264583px;stroke-linecap:butt;stroke-linejoin:miter;stroke-opacity:1"
       d="m 142.34653,177.81689 c -0.52975,0.76647 -0.33743,1.75224 -0.2857,2.62091 0.13209,0.95488 0.81439,1.93799 1.84733,2.00605 0.60517,0.20381 1.2625,-0.0209 1.56702,-0.59098 0.54165,-0.68434 0.73291,-1.56234 0.72337,-2.4188 0.0562,-0.86019 -0.16749,-1.89551 -1.02529,-2.29361 -0.8154,-0.43731 -1.89018,-0.28126 -2.52918,0.39535 -0.10255,0.09 -0.20116,0.18454 -0.29755,0.28108 z" />
    <path
       id="path118"
       style="fill:#ffdd55;fill-opacity:1;stroke:#ffdd55;stroke-width:0.264583px;stroke-linecap:butt;stroke-linejoin:miter;stroke-opacity:1"
       d="m 141.225,198.23648 c 0.76269,-0.16328 1.8677,0.0926 2.42461,-0.1807 -0.20045,-1.34921 -0.31913,-2.72412 -0.10651,-4.08029 0.27349,-0.61941 -0.13309,-1.05282 -0.77291,-1.00394 -0.37644,-0.48094 0.75989,-1.0279 0.68399,-1.70499 0.12699,-1.22136 -0.71224,-2.58498 -2.00964,-2.68575 -1.01205,-0.28677 0.30821,0.42309 0.37331,0.83865 0.2535,0.86662 -1.1418,0.68246 -1.53208,1.2294 -0.51293,0.43798 -0.0526,1.22434 0.52903,1.2958 0.6397,0.28295 0.81735,1.16768 0.48418,1.73643 -0.42338,0.4474 -1.15847,0.77618 -0.93589,1.54224 0.21881,0.96311 0.17679,2.03265 0.77775,2.86642 l 0.0841,0.14667 z" />
    <path
       id="path132"
       style="fill:#ffffff;stroke:#ffffff;stroke-width:0.264583px;stroke-linecap:butt;stroke-linejoin:miter;stroke-opacity:1"
       d="m 151.22014,197.34916 c 0.2109,1.26842 1.36073,2.10425 2.4748,2.56076 0.4403,0.24875 1.49764,-0.27938 0.8402,0.46965 -0.75461,0.61982 -0.63291,1.65953 -0.2827,2.46335 -0.0424,0.49876 1.11849,0.74489 0.87011,0.928 -1.12087,-0.35102 -2.42551,-0.019 -3.17282,0.90532 -0.27722,0.29074 -0.63167,1.09431 -0.69151,1.17608 0.16519,-0.90645 -0.75962,-1.73297 -1.55225,-2.0443 -0.50408,-0.16774 -1.16726,-0.35185 -1.59164,0.0848 1.12149,-0.34665 1.21851,-1.88951 0.58518,-2.71901 -0.24625,-0.52558 -1.16253,-1.06604 -1.33304,-1.27516 0.93632,0.2959 2.21372,0.54895 2.91704,-0.33625 0.37857,-0.67578 0.90348,-1.435 0.93663,-2.21324 z" />
    <path
       id="path139"
       style="fill:#ff2a2a;fill-opacity:1;stroke:#ff2a2a;stroke-width:0.264583px;stroke-linecap:butt;stroke-linejoin:miter;stroke-opacity:1"
       d="m 154.60937,180.42341 c -0.77063,0.63259 -1.75002,1.13888 -2.15194,2.10407 -0.16717,0.68315 0.31855,1.28838 0.58794,1.87512 0.47947,0.75342 1.31619,1.22024 2.1519,1.4778 0.7923,0.24338 1.75018,0.0571 2.29245,-0.59519 0.33591,-0.63265 0.51423,-1.36044 0.54228,-2.07543 -0.0186,-0.99191 -0.64798,-1.85602 -1.36258,-2.49173 -0.57263,-0.50279 -1.36393,-0.47842 -2.06005,-0.29464 z" />
    <path
       id="path150"
       style="fill:#ff2a2a;fill-opacity:1;stroke:#ff2a2a;stroke-width:0.264583px;stroke-linecap:butt;stroke-linejoin:miter;stroke-opacity:1"
       d="m 140.22671,212.13052 c -0.37403,0.18555 -0.89436,0.0687 -1.14279,0.4837 -0.8724,0.95779 -1.22623,2.45488 -0.64745,3.6486 0.34007,0.68034 1.06898,1.09692 1.81755,1.134 0.47469,0.0198 0.96813,0.0522 1.42783,-0.0854 0.58412,-0.19064 0.78213,-0.82902 0.89269,-1.36979 0.23482,-0.84414 0.16372,-1.72863 0.0961,-2.58971 -0.1321,-0.61973 -0.79562,-0.86074 -1.34022,-1.00037 -0.36394,-0.0925 -0.73608,-0.14616 -1.1037,-0.22107 z" />
    <path
       id="path163"
       style="fill:#ffdd55;fill-opacity:1;stroke:#ffdd55;stroke-width:0.264583px;stroke-linecap:butt;stroke-linejoin:miter;stroke-opacity:1"
       d="m 159.78565,208.75869 c 0.65907,0.0759 1.51615,0.50195 2.07296,0.20869 -0.068,-0.54928 -0.36352,-1.057 -0.3053,-1.63747 -0.0272,-0.8358 -0.0325,-1.67843 -0.0169,-2.51102 0.27022,-0.44657 0.17477,-1.07795 -0.49068,-0.85453 -0.38672,0.0423 -0.57972,-0.25093 -0.13239,-0.38391 0.68628,-0.60679 0.94829,-1.76134 0.45171,-2.5567 -0.1935,-0.53561 -1.75391,-0.81585 -1.33395,0.0177 0.61577,0.44169 0.38929,1.12133 -0.35803,1.14979 -0.67062,0.18765 -0.47219,1.00311 0.01,1.21167 -0.21433,0.44488 -1.22899,0.2784 -0.9814,1.04159 0.11132,0.64548 0.4455,1.23189 0.4892,1.89584 0.16552,0.68 -0.10128,1.45224 0.35561,2.05093 0.0764,0.12461 0.15926,0.24514 0.23925,0.36742 z" />
    <path
       id="path170"
       style="fill:#ffffff;stroke:#ffffff;stroke-width:0.264583px;stroke-linecap:butt;stroke-linejoin:miter;stroke-opacity:1"
       d="m 155.7802,229.25591 c -0.50133,0.4804 -0.72272,1.24092 -1.35911,1.57396 -0.71158,0.27187 -1.47723,0.021 -2.19857,-0.013 1.11772,0.59866 1.68448,2.13421 1.05253,3.27701 -0.12815,0.24646 -0.73599,1.0569 -0.10895,0.70696 0.55008,-0.22519 1.25937,-0.1444 1.69956,0.26839 0.37514,0.32413 0.53963,1.2316 0.88545,1.28605 -0.003,-0.65948 0.45227,-1.19223 1.0512,-1.42863 0.63725,-0.28611 1.36419,-0.28252 2.03492,-0.13265 -0.62227,0.01 -0.72428,-0.76317 -0.94909,-1.20541 -0.18443,-0.58647 -0.30193,-1.23846 -0.13924,-1.84058 0.0953,-0.27175 1.04533,-0.84646 0.34495,-0.6529 -0.72304,0.1338 -1.27579,-0.45721 -1.71881,-0.9375 -0.23483,-0.27415 -0.43627,-0.57735 -0.59484,-0.90166 z" />
    <path
       id="path176"
       style="fill:#ffffff;stroke:#ffffff;stroke-width:0.264583px;stroke-linecap:butt;stroke-linejoin:miter;stroke-opacity:1"
       d="m 178.35863,219.34005 c -0.5457,0.5229 -0.51192,1.49292 -1.27548,1.81658 -0.32665,0.20648 -1.06915,0.30166 -1.19975,0.38926 0.56045,-0.0597 1.22446,0.18324 1.20341,0.85534 0.0494,0.68114 0.064,1.38349 -0.0752,2.05517 -0.002,0.3027 -0.73701,1.07458 -0.1524,0.51755 0.5707,-0.62953 1.59067,-0.62909 2.27764,-0.19409 0.40187,0.15411 1.11121,0.72101 0.91721,-0.11027 -0.0554,-0.62879 -0.35969,-1.40353 0.157,-1.92043 0.22953,-0.3867 1.20228,-0.2796 1.13233,-0.66081 -0.5054,-0.0756 -0.94649,-0.31757 -1.32552,-0.66062 -0.71861,-0.56118 -1.09314,-1.39881 -1.65926,-2.08768 z" />
    <path
       id="path201"
       style="fill:#ffdd55;fill-opacity:1;stroke:#ffdd55;stroke-width:0.264583px;stroke-linecap:butt;stroke-linejoin:miter;stroke-opacity:1"
       d="m 134.15075,230.26525 c 0.52194,-0.18251 1.24885,0.31119 1.6296,-0.0935 0.0835,-0.57367 -0.0588,-1.1598 0.0637,-1.73371 0.0953,-0.78626 0.25684,-1.57943 0.16086,-2.37382 -0.28596,-0.31325 -0.96233,-0.0493 -1.18335,-0.24928 0.35171,-0.37855 0.87222,-0.64177 0.98733,-1.19144 0.16886,-0.54605 0.48008,-1.24252 0.13125,-1.7708 -0.41624,-0.35546 -0.94111,-0.55723 -1.41672,-0.82131 -0.58383,-0.2936 0.13757,0.31916 0.23123,0.56597 0.4127,0.58094 -0.40749,0.67432 -0.78531,0.78105 -0.81701,0.44198 -0.89869,1.77336 -0.12863,2.29356 0.26789,0.0765 0.52144,0.37744 0.0511,0.35442 -0.92371,-0.12328 -0.69097,0.93459 -0.4232,1.44774 0.26658,0.91973 0.26254,1.91503 0.68213,2.79111 z" />
    <path
       style="fill:#ff2a2a;stroke:#ff2a2a;stroke-width:0.264583px;stroke-linecap:butt;stroke-linejoin:miter;stroke-opacity:1"
       d="m 148.97709,251.08043 c -0.0732,0.3956 -0.13932,0.79533 -0.13761,1.19879 0.001,0.28525 0.0377,0.57343 0.13965,0.84135 0.10907,0.28672 0.2652,0.55352 0.44192,0.80334 0.24743,0.34978 0.53369,0.67312 0.85748,0.95384 0.23081,0.20011 0.48075,0.38159 0.75703,0.51408 0.21026,0.10083 0.43973,0.15624 0.67055,0.18276 0.38385,0.0441 0.77461,0.0109 1.14945,-0.0799 0.27783,-0.0673 0.547,-0.17005 0.79868,-0.30586 0.2514,-0.13566 0.48527,-0.309 0.67063,-0.52775 0.14586,-0.17213 0.26256,-0.36957 0.33983,-0.58153 0.0918,-0.25179 0.12439,-0.5204 0.13873,-0.78659 0.009,-0.15876 0.0145,-0.31769 0.0169,-0.47665 0.006,-0.39003 -0.0713,-0.78108 -0.22681,-1.13913 -0.17695,-0.40747 -0.45287,-0.76673 -0.77812,-1.06713 -0.26708,-0.24667 -0.55964,-0.46994 -0.88319,-0.63501 -0.10294,-0.0525 -0.21838,-0.0727 -0.33164,-0.0893 -0.12246,-0.018 -0.2471,-0.0223 -0.36794,-0.0498 -0.19127,-0.0436 -0.3643,-0.14567 -0.55856,-0.17932 -0.0906,-0.0157 -0.183,-0.005 -0.27327,0.007 -0.31884,0.0423 -0.62115,0.16689 -0.89857,0.32616 -0.40852,0.23453 -0.77036,0.53844 -1.1455,0.82095 -0.12396,0.0933 -0.24957,0.1847 -0.37961,0.26944 z"
       id="path207" />
    <path
       id="path211"
       style="fill:#ffdd55;fill-opacity:1;stroke:#ffdd55;stroke-width:0.264583px;stroke-linecap:butt;stroke-linejoin:miter;stroke-opacity:1"
       d="m 162.91607,244.72496 c 0.64592,-0.34192 1.47488,0.56359 1.98595,-0.0616 0.1324,-0.68141 -0.2364,-1.36434 -0.19746,-2.06406 -0.0885,-0.97799 0.07,-1.95489 0.17129,-2.92081 -0.1626,-0.60364 -1.84942,0.0686 -0.87865,-0.69937 0.97249,-0.51832 1.07011,-1.9056 0.45039,-2.73816 -0.34463,-0.63205 -1.35893,-1.54581 -1.74303,-1.56177 0.24296,0.61228 1.13226,1.58343 0.3281,2.08633 -0.74571,0.10856 -1.85472,0.51498 -1.45215,1.4837 0.0478,0.65083 1.60551,0.36786 0.91139,1.01753 -1.11061,-0.18142 -0.55723,1.08171 -0.40432,1.66276 0.40903,1.23841 0.52182,2.53517 0.82849,3.79542 z" />
    <path
       id="path218"
       style="fill:#ffffff;stroke:#ffffff;stroke-width:0.264583px;stroke-linecap:butt;stroke-linejoin:miter;stroke-opacity:1"
       d="m 184.08951,255.90973 c -0.49561,0.71634 -1.1595,1.42165 -2.00403,1.69342 -0.48789,-0.0348 -1.49904,-0.0581 -0.80015,0.59566 0.47784,0.9202 0.25191,2.10254 -0.444,2.85038 -0.30893,0.63721 0.886,0.14177 1.16229,0.56408 0.65982,0.27055 1.26714,1.10312 1.45284,1.48746 0.44994,-0.9587 1.52463,-1.33885 2.41715,-1.76181 0.4791,-0.209 1.47697,0.17472 0.9561,-0.65973 -0.34209,-0.78434 -0.39623,-1.75075 0.17201,-2.44479 0.43135,-0.62068 -0.98516,-0.32162 -1.22716,-0.86978 -0.59155,-0.4499 -1.09694,-1.00085 -1.68505,-1.45489 z" />
    <path
       id="path225"
       style="fill:#ff2a2a;fill-opacity:1;stroke:#ff2a2a;stroke-width:0.264583px;stroke-linecap:butt;stroke-linejoin:miter;stroke-opacity:1"
       d="m 184.52087,245.33623 c -0.76584,-0.0514 -1.11469,0.8196 -1.14656,1.45814 -0.0676,0.80727 0.30987,1.5998 0.83393,2.19146 0.63434,0.52506 1.44426,0.86279 2.26414,0.95035 1.00849,0.0714 1.9552,-0.58706 2.50402,-1.38418 0.24168,-0.67862 0.64529,-1.41738 0.47263,-2.14863 -0.50603,-1.29809 -1.85897,-2.39412 -3.30525,-2.21081 -0.55752,0.13763 -1.06921,0.49019 -1.47802,0.88365 -0.0534,0.0839 -0.0931,0.17523 -0.14489,0.26002 z" />
    <path
       id="path232"
       style="fill:#ffdd55;fill-opacity:1;stroke:#ffdd55;stroke-width:0.264583px;stroke-linecap:butt;stroke-linejoin:miter;stroke-opacity:1"
       d="m 183.55956,236.34096 c 0.5562,-0.14365 1.68791,0.77508 1.72305,-0.24567 0.0963,-1.0817 -0.0109,-2.16755 0.0322,-3.25081 0.34914,-0.54212 -0.47053,-0.83318 -0.66204,-0.90529 0.42392,-0.40206 1.07236,-0.63761 1.16445,-1.29981 0.30183,-1.20645 -0.61365,-2.3971 -1.70513,-2.81537 0.0538,0.38917 0.99928,1.40956 -0.0497,1.4875 -0.5739,0.21534 -1.28372,0.92228 -0.96283,1.56105 0.32453,0.18973 1.2576,0.93965 0.34273,0.92107 -0.60654,0.20017 -0.1881,1.25617 -0.27639,1.78902 0.0779,0.92648 0.27505,1.83713 0.39367,2.75831 z" />
    <path
       id="path253"
       style="fill:#ff2a2a;fill-opacity:1;stroke:#ff2a2a;stroke-width:0.264583px;stroke-linecap:butt;stroke-linejoin:miter;stroke-opacity:1"
       d="m 196.74674,269.87203 c -0.4579,0.58511 -0.62309,1.44964 -0.13674,2.07099 0.60194,1.05887 1.83454,1.77603 3.06464,1.56209 0.67739,-0.10933 1.3673,-0.33955 1.91867,-0.74808 0.5663,-0.69396 0.40601,-1.65678 0.44422,-2.48905 0.0652,-0.77379 -0.39773,-1.41113 -0.79394,-2.02556 -0.72717,-1.10307 -2.59842,-1.38927 -3.44329,-0.27473 -0.44651,0.58019 -0.60184,1.32756 -1.05356,1.90434 z" />
    <path
       id="path260"
       style="fill:#ff2a2a;stroke:#ff2a2a;stroke-width:0.264583px;stroke-linecap:butt;stroke-linejoin:miter;stroke-opacity:1"
       d="m 114.1851,279.17785 c -1.21754,0.34463 -2.46913,1.28122 -2.55728,2.6375 -0.0578,0.91232 0.51614,1.75261 1.29143,2.19045 0.87522,0.55924 1.99843,0.92552 3.02408,0.60345 0.68172,-0.22741 1.1288,-0.9216 1.08775,-1.63503 0.002,-1.5587 -1.06159,-2.97378 -2.41426,-3.66962 -0.14113,-0.0514 -0.28808,-0.0836 -0.43172,-0.12675 z" />
    <path
       id="path267"
       style="fill:#ff2a2a;stroke:#ff2a2a;stroke-width:0.264583px;stroke-linecap:butt;stroke-linejoin:miter;stroke-opacity:1"
       d="m 123.90911,264.20423 c -1.04659,0.47721 -1.39243,1.77242 -1.27078,2.8315 0.14309,0.67827 0.65448,1.20532 1.14384,1.66247 0.50331,0.36631 1.17385,0.31546 1.76563,0.30948 0.94975,-0.024 1.72848,-0.68697 2.21127,-1.45889 0.41834,-0.57483 0.77007,-1.27512 0.57475,-2.00435 -0.18371,-0.64781 -0.74584,-1.09814 -1.24857,-1.5076 -0.82142,-0.65425 -2.05265,-0.68957 -2.89484,-0.0511 -0.0978,0.0674 -0.19172,0.14049 -0.2813,0.2185 z" />
    <path
       id="path274"
       style="fill:#ffdd55;fill-opacity:1;stroke:#ffdd55;stroke-width:0.264583px;stroke-linecap:butt;stroke-linejoin:miter;stroke-opacity:1"
       d="m 129.51675,284.21343 c 0.59386,-0.16201 1.48738,0.56522 1.84785,-0.0252 -0.0273,-0.76741 -0.21101,-1.53121 -0.0328,-2.30835 -0.005,-0.7995 0.0724,-1.59957 -0.006,-2.3707 -0.22062,-0.36466 -1.34126,-0.15923 -0.55413,-0.69559 0.8197,-0.82383 0.88343,-2.32789 -0.0451,-3.09301 -0.29329,-0.25277 -1.07021,-0.50747 -1.27715,-0.31008 0.51269,0.42288 0.85118,1.59695 -0.13905,1.61911 -0.54822,0.049 -1.56149,0.32531 -1.10231,1.0677 0.10798,0.50573 1.14482,0.63562 1.01264,1.04417 -0.48763,0.13786 -1.60568,0.14907 -0.99198,0.90361 0.45553,1.05242 0.36338,2.29786 0.9918,3.29293 0.13797,0.27568 0.2665,0.56511 0.29587,0.87542 z" />
    <path
       id="path281"
       style="fill:#ffdd55;fill-opacity:1;stroke:#ffdd55;stroke-width:0.264583px;stroke-linecap:butt;stroke-linejoin:miter;stroke-opacity:1"
       d="m 173.95879,280.80832 c 0.47104,-0.0219 1.35503,0.65147 1.41757,-0.20554 0.008,-0.90225 -0.0979,-1.80564 -0.0752,-2.71074 -0.0363,-0.60828 0.15763,-1.21837 0.14788,-1.80813 -0.25793,-0.23732 -0.79885,-0.25957 -0.2836,-0.56832 0.61995,-0.81714 0.40953,-2.07375 -0.41065,-2.67642 -0.23132,-0.32523 -1.16115,-0.48738 -0.66127,0.11439 0.56162,0.50156 0.0695,1.17624 -0.58714,1.08281 -0.69613,-0.0139 -0.9189,0.91252 -0.24475,1.161 0.62918,0.14607 0.62573,0.67601 -0.0566,0.55595 -0.61925,0.10664 -0.682,0.83352 -0.50654,1.31956 0.22817,0.55049 0.47457,1.08899 0.55466,1.68701 0.21573,0.56008 0.47207,1.09978 0.55549,1.70439 0.0367,0.11985 0.0847,0.23696 0.15014,0.34404 z" />
    <path
       id="path288"
       style="fill:#ffffff;stroke:#ffffff;stroke-width:0.264583px;stroke-linecap:butt;stroke-linejoin:miter;stroke-opacity:1"
       d="m 143.85715,258.76794 c 0.61592,0.88935 1.70988,1.34618 2.76854,1.37367 -0.0883,0.6693 -0.88695,1.06088 -0.79108,1.81361 -0.024,0.80582 0.389,1.57427 1.0403,2.03714 0.60123,0.64489 -0.7408,0.25447 -1.09607,0.41764 -0.84034,0.0617 -1.50492,0.68337 -1.81892,1.43282 -0.37563,0.85661 -0.71391,-0.30495 -1.16247,-0.55445 -0.44746,-0.60638 -1.24454,-0.84159 -1.96657,-0.70513 -0.47497,-0.4163 0.33287,-1.22438 0.14941,-1.83176 0.11588,-0.65833 -0.12691,-1.35161 -0.41563,-1.87683 0.92,-0.27071 1.66318,-0.93928 2.35455,-1.59091 0.25617,-0.2606 0.52699,-0.57993 0.93794,-0.5158 z" />
    <path
       id="path295"
       style="fill:#ff2a2a;fill-opacity:1;stroke:#ff2a2a;stroke-width:0.264583px;stroke-linecap:butt;stroke-linejoin:miter;stroke-opacity:1"
       d="m 162.86677,269.01797 c -0.97939,0.22446 -1.32204,1.48546 -1.17353,2.35962 0.41268,1.14721 1.38035,2.12681 2.47871,2.63636 0.9742,0.38886 2.20834,-0.13395 2.65479,-1.06144 0.28885,-0.97368 0.29864,-2.06137 0.005,-3.03847 -0.50392,-1.55364 -2.66926,-2.39074 -4.00304,-1.36483 -0.12626,0.13506 -0.0667,0.34216 0.0383,0.46876 z" />
    <path
       id="path304"
       style="fill:#ffdd55;fill-opacity:1;stroke:#ffdd55;stroke-width:0.264583px;stroke-linecap:butt;stroke-linejoin:miter;stroke-opacity:1"
       d="m 154.68332,287.49653 c 0.61223,-0.48108 1.54008,0.37028 2.02618,-0.24596 0.12951,-0.61937 -0.0797,-1.26213 -0.0109,-1.89653 -0.0272,-0.8316 -0.0438,-1.68041 0.18921,-2.48676 0.0858,-0.81606 -1.49762,-0.16936 -0.71739,-0.86803 0.5389,-0.5449 0.43287,-1.40069 0.28263,-2.0835 -0.22409,-0.81782 -0.86846,-1.60786 -1.72766,-1.7708 -0.11858,0.39178 0.59218,0.85306 0.60537,1.35369 0.17152,0.69556 -0.70764,0.79916 -1.17913,0.9434 -0.75862,0.17394 -0.62577,1.28008 0.12849,1.33512 0.38949,0.0669 0.77703,0.21367 0.16654,0.2522 -1.04244,0.018 -0.63197,1.05428 -0.38954,1.65758 0.35749,1.23474 0.6873,2.51399 0.6262,3.80959 z" />
    <path
       id="path311"
       style="fill:#ffcc00;fill-opacity:1;stroke:#ffcc00;stroke-width:0.264583px;stroke-linecap:butt;stroke-linejoin:miter;stroke-opacity:1"
       d="m 162.23651,161.5609 c 1.08393,-0.6376 2.80519,-0.21466 2.80133,1.2616 0.36238,2.97713 -1.37179,5.8154 -3.70722,7.53508 -1.92344,1.76991 -4.67803,1.66248 -6.97777,2.60817 -3.49893,1.08067 -7.15824,1.9725 -10.84412,1.74057 -1.97954,-0.0868 -0.9677,-2.22583 0.46147,-2.32157 0.89079,-0.14189 1.02808,-1.81704 1.78332,-0.62582 0.4642,-0.66588 1.15379,-2.00241 1.81582,-0.69868 0.79691,-0.2053 1.75793,-0.95409 1.92851,0.43563 1.18489,0.43987 0.88463,-2.92877 2.42056,-1.31571 1.28431,0.32322 1.83615,-1.4629 2.94391,-1.54996 0.50446,0.89136 1.31313,-0.46644 2.26957,-0.12528 0.72248,0.0426 1.51357,-0.47079 1.2882,-0.89349 0.59268,-0.16463 1.65822,-0.89518 0.39124,-0.79228 -0.74619,0.10916 -1.49586,-0.65597 -0.34828,-0.61456 0.83808,0.0595 1.54313,-0.79274 0.36618,-0.93039 -1.57881,-1.02205 0.87628,-1.87512 1.73239,-2.28268 0.77496,0.0446 1.77242,0.18378 1.42536,-0.98163 l 0.0726,-0.24222 0.17688,-0.20671 z" />
    <path
       id="path317"
       style="fill:#ffcc00;fill-opacity:1;stroke:#ffcc00;stroke-width:0.264583px;stroke-linecap:butt;stroke-linejoin:miter;stroke-opacity:1"
       d="m 170.5432,185.03066 c 3.34873,-0.87476 3.34289,3.27045 1.61106,5.0213 -1.11841,2.48174 -3.88087,2.32464 -6.03754,3.19722 -2.29532,1.10023 -3.18796,4.77491 -6.37429,3.93029 -2.44413,-0.13242 -4.8686,-0.33745 -7.2729,-0.81284 -3.27772,-0.41325 -5.34865,2.68978 -7.74685,4.36275 -2.65039,1.82342 -4.76179,4.3454 -7.4884,6.04273 -1.97652,1.46424 -6.21168,-2.58142 -2.59767,-3.02028 2.27745,1.90938 -0.62415,-4.42131 1.42514,-1.49824 -0.0436,-1.66962 1.81042,0.48521 2.67625,-1.15845 0.96895,-1.83393 3.3234,-1.76184 3.72902,-3.47937 1.14793,-0.1618 -0.81766,-1.80934 1.08023,-0.84465 1.179,0.94407 1.3886,0.30421 1.06998,-0.81207 1.90248,-1.14082 3.73578,-2.35807 5.60231,-2.74632 1.81056,0.26266 2.89982,-1.71882 4.93642,-0.97686 1.33114,0.39752 2.08194,-1.29309 3.16913,-0.52145 0.20294,-2.06677 2.01276,2.17467 1.35301,-0.58917 0.72718,0.49097 3.16614,1.3976 2.88775,-0.71762 0.28408,1.50131 0.9207,-2.16771 1.69527,-0.25425 1.26382,0.65795 -0.22344,-1.94045 1.59167,-0.98994 0.6372,0.0365 2.86125,-1.55897 1.32133,-1.34498 1.10298,-0.42842 2.65896,0.13474 0.90823,-0.79526 -0.95474,-1.7212 2.10201,-0.75886 2.46085,-1.99254 z" />
    <path
       id="path323"
       style="fill:#ffcc00;fill-opacity:1;stroke:#ffcc00;stroke-width:0.264583px;stroke-linecap:butt;stroke-linejoin:miter;stroke-opacity:1"
       d="m 179.31822,204.70712 c 3.98151,-0.64564 2.29191,5.27819 -1.19112,3.95304 -3.00527,1.29247 -6.35172,1.89562 -9.13141,3.60586 -3.51412,2.7108 -5.14148,6.99085 -8.40021,9.95019 -4.27115,4.64768 -11.21073,6.78897 -13.54972,13.08102 -1.16678,3.2123 -4.79758,4.07209 -7.84784,3.7303 -4.74687,0.0161 -9.9519,-0.29765 -13.94191,-3.06807 1.01728,-0.77086 2.64931,-3.87629 3.28241,-1.70997 0.33639,-1.59316 1.25108,1.63539 1.67938,-0.65397 0.81463,-1.55671 1.48125,2.09582 3.00189,0.19225 0.99346,0.0583 0.66622,2.2551 1.53284,0.49952 0.93064,3.27481 2.36912,-3.97788 3.29583,-0.32139 0.98254,-0.88847 1.52401,-2.38087 3.18533,-2.00949 -4.99903,0.0898 5.89333,-4.36722 1.55748,-2.36038 -0.4748,-1.52086 2.91036,-2.23984 1.47728,-2.49642 1.51095,-1.57205 3.79824,-4.24061 4.50455,-4.60585 -2.95496,-0.95803 0.9174,-0.1675 1.23702,0.7562 -2.36573,-2.29072 0.89918,-4.38593 2.33717,-1.66819 -1.04362,-1.58876 -0.88659,-4.5538 1.41762,-2.22515 1.1304,0.63362 -0.91119,-3.27061 1.62809,-1.32875 1.89296,1.37134 -0.63924,-3.34492 2.46012,-1.45891 2.50552,1.19078 -0.99875,-3.02727 2.31456,-2.07894 2.60838,0.91689 -1.24239,-0.47196 1.15721,-1.44369 1.49949,-1.02972 2.90923,1.18101 1.99674,-1.0762 1.37105,-1.55681 2.53403,-1.70833 2.59466,-3.7473 1.02623,-2.084 4.04659,0.008 3.05321,-2.2318 1.12655,-1.80935 3.20115,-3.03904 4.23247,-0.95363 -1.81161,-2.7163 3.83558,1.56836 2.27013,-1.28968 0.92639,1.73267 3.14927,-0.86939 3.84622,0.9594 z" />
    <path
       id="path333"
       style="fill:#ffcc00;fill-opacity:1;stroke:#ffcc00;stroke-width:0.264583px;stroke-linecap:butt;stroke-linejoin:miter;stroke-opacity:1"
       d="m 129.89709,232.79098 c -4.42631,2.59354 0.008,6.88003 3.66635,6.65998 3.13134,1.60743 6.05236,3.54387 9.35829,4.82381 5.7341,2.23302 12.67075,1.96943 17.28844,6.62352 2.89379,2.24564 5.72852,4.55953 8.12649,7.33561 3.74289,2.59143 6.60965,6.32666 10.87609,8.13853 5.00383,3.01023 11.20088,5.5516 17.0316,3.39353 3.56773,-1.10774 7.83242,-6.52826 3.18672,-9.02518 -3.22133,-0.85649 -2.43462,4.5758 -2.89493,2.18198 0.24913,3.2254 -1.61493,2.87039 -2.79354,1.10509 -0.40749,2.64641 -2.41689,5.55388 -4.49823,2.2407 -0.42165,1.62716 -0.87861,-1.64696 -2.49628,0.64721 -1.8533,0.15339 -1.79868,-3.41286 -3.11226,-1.96676 0.46969,-2.91427 -2.88002,0.0486 -2.89276,-2.87077 -2.07842,0.16463 -2.91657,-0.75803 -3.13578,-2.44619 -3.5653,1.08845 1.66748,-3.59507 -2.05446,-2.10932 -0.18957,-1.29021 1.63421,-4.03942 -0.73968,-2.15142 0.74736,-3.04916 -0.70905,-2.22015 -2.91055,-2.08889 0.40492,-2.78087 -2.98655,-1.35178 -2.10015,-4.15209 0.68497,-1.24302 -2.90449,3.22805 -1.94673,-0.45904 -1.43398,0.31042 -3.05843,-1.2985 -2.94842,-0.48181 -3.36588,1.49943 -3.54307,-4.35251 -6.68723,-3.16926 -0.5014,-3.78112 -4.20063,-2.54854 -7.17288,-4.40996 -1.80293,-0.0824 -2.14023,-0.80509 -3.65125,-0.0667 0.77135,-3.47679 -3.69365,0.51466 -3.76555,-2.31696 -1.76915,1.45874 -4.22134,-1.50697 -5.89103,-0.72891 -3.99898,0.0893 -4.01513,-6.25924 -7.84227,-4.7067 z" />
    <path
       id="path339"
       style="fill:#ffcc00;stroke:#ffcc00;stroke-width:0.264583px;stroke-linecap:butt;stroke-linejoin:miter;stroke-opacity:1"
       d="m 197.21335,260.78611 c 2.95049,4.32817 -1.60829,10.76651 -6.69861,9.90621 -5.01612,-0.58305 -9.79842,-2.45659 -14.86574,-2.85028 -5.47529,-0.97322 -11.55551,-2.53207 -16.58926,0.82504 -4.77968,3.23334 -10.09842,5.31535 -15.32513,7.65359 -4.01455,2.29971 -8.7493,0.97725 -12.47096,-1.21861 -4.59523,-1.45322 -8.89665,2.47769 -13.61405,2.18808 -4.19889,1.61058 -7.6655,-3.65054 -4.92995,-5.2588 0.30752,-2.72872 1.70916,3.71681 1.37432,-0.71009 -0.23074,-1.62022 1.89892,2.31251 1.10203,-0.79362 0.35026,-2.74602 2.81718,0.49177 2.1141,-0.87551 0.49129,1.71913 0.47119,4.67975 1.06651,1.06058 1.50558,-0.35472 2.93616,1.91035 3.82234,-0.5335 2.24764,1.79367 2.92907,-0.11818 4.59408,-1.04212 1.40688,1.45902 2.90961,2.48349 3.47471,-0.16145 1.69057,1.15668 2.19859,1.8874 2.83815,-0.86891 0.54367,1.1908 2.36192,5.71006 2.97076,2.30895 0.61496,2.25452 1.25134,2.19042 2.64135,1.12845 -0.26911,3.23019 1.66961,-2.13498 3.17107,1.21742 0.48096,-2.99483 2.16061,-1.52164 3.62241,-3.83579 1.94259,0.26386 0.43598,2.54891 2.18889,-0.0332 1.05981,1.14085 4.43028,-2.22798 5.92614,-2.80033 1.84676,-2.75209 3.03532,1.40435 4.00799,-1.52257 2.18406,-0.0566 4.0532,-3.47013 5.27219,-0.0617 0.70271,-4.06265 3.96118,-0.43807 5.83068,-2.39866 1.73264,0.43186 4.08027,1.58243 5.56311,0.27377 2.17895,2.58859 3.63666,-0.13271 5.63573,1.9586 2.89228,0.0574 6.34662,3.68667 8.30197,0.77731 2.72751,3.24064 5.90695,-4.34583 8.97517,-4.33285 z" />
  </g>
</svg>
