<?xml version="1.0" encoding="UTF-8" standalone="no"?>
<svg
   xmlns:dc="http://purl.org/dc/elements/1.1/"
   xmlns:cc="http://creativecommons.org/ns#"
   xmlns:rdf="http://www.w3.org/1999/02/22-rdf-syntax-ns#"
   xmlns:svg="http://www.w3.org/2000/svg"
   xmlns="http://www.w3.org/2000/svg"
   xmlns:sodipodi="http://sodipodi.sourceforge.net/DTD/sodipodi-0.dtd"
   xmlns:inkscape="http://www.inkscape.org/namespaces/inkscape"
   sodipodi:docname="da-std-full.svg"
   inkscape:version="1.0.1 (3bc2e813f5, 2020-09-07)"
   id="svg8"
   version="1.1"
   viewBox="0 0 317.5 158.75"
   height="600"
   width="1200">
  <defs
     id="defs2" />
  <sodipodi:namedview
     inkscape:document-rotation="0"
     inkscape:window-maximized="1"
     inkscape:window-y="19"
     inkscape:window-x="0"
     inkscape:window-height="1061"
     inkscape:window-width="1920"
     units="px"
     showgrid="false"
     inkscape:current-layer="layer1"
     inkscape:document-units="mm"
     inkscape:cy="307.02346"
     inkscape:cx="605.24332"
     inkscape:zoom="1.4"
     inkscape:pageshadow="2"
     inkscape:pageopacity="0.0"
     borderopacity="1.0"
     bordercolor="#666666"
     pagecolor="#ffffff"
     id="base" />
  <metadata
     id="metadata5">
    <rdf:RDF>
      <cc:Work
         rdf:about="">
        <dc:format>image/svg+xml</dc:format>
        <dc:type
           rdf:resource="http://purl.org/dc/dcmitype/StillImage" />
        <dc:title />
      </cc:Work>
    </rdf:RDF>
  </metadata>
  <g
     transform="translate(0,-217.62501)"
     id="layer1"
     inkscape:groupmode="layer"
     inkscape:label="Layer 1">
    <path
       id="path192"
       style="opacity:1;fill:#000000;stroke:#000000;stroke-width:0.529998;stroke-linecap:round"
       d="m 9.9950497,349.51806 c 55.0419933,2.66673 110.1243303,-1.58448 165.1322803,-3.62538 37.52466,-0.0917 75.15284,0.43711 112.47657,3.99048 -14.89867,-2.47073 -35.56299,-3.03932 -52.72937,-3.56675 -47.373,-2.31395 -94.67097,0.7012 -141.978051,2.81417 -26.784582,0.94087 -53.643444,1.25741 -80.351362,-0.27457 z" />
    <path
       id="path194"
       style="opacity:1;fill:#000000;stroke:#000000;stroke-width:0.529998;stroke-linecap:round"
       d="m 280.88507,341.5817 c 3.0563,1.65361 5.5035,4.37022 8.96082,5.28287 6.07253,2.09163 12.60024,1.60788 18.8924,2.28599 -1.54063,-0.7318 -5.05619,1.25903 -7.31735,1.72021 -5.34447,1.80096 -11.25764,2.9665 -15.37783,7.13852 -1.3541,0.83663 -4.34327,4.36841 -1.14684,4.39674 2.77902,-1.11936 3.91778,-4.24619 6.41857,-5.78774 5.08171,-3.69243 11.52036,-4.431 17.28956,-6.56829 1.34643,-0.56318 5.90238,-0.77932 2.37208,-1.51445 -5.38131,-0.15781 -10.82756,-0.22605 -16.12749,-1.31867 -3.88741,-0.75091 -7.42512,-2.62627 -10.51215,-5.05639 -1.05562,-0.90728 -2.16485,-0.83538 -3.45177,-0.57879 z" />
    <path
       id="path196"
       style="opacity:1;fill:#000000;stroke:#000000;stroke-width:0.529998;stroke-linecap:round"
       d="m 286.66215,324.214 c 0.85367,-0.90085 3.42957,-1.20307 3.69799,-1.30303 -1.44347,0.0671 0.97517,1.14819 0.28241,2.11016 -0.5331,2.41937 -2.33046,4.3411 -4.13679,5.93787 -0.63529,0.6184 -2.84626,1.62553 -1.44865,2.46248 1.68565,-0.55957 3.26786,-1.52005 4.41719,-2.9332 1.68218,-1.70922 3.46873,-3.88062 3.21801,-6.43145 -0.57596,-1.83463 -2.8929,-1.62282 -4.39381,-1.3477 -1.04559,0.11809 -3.23141,0.79066 -3.29303,1.36455 0.55222,0.0468 1.10445,0.0936 1.65668,0.14032 z" />
    <path
       id="path198"
       style="opacity:1;fill:#000000;stroke:#000000;stroke-width:0.529998;stroke-linecap:round"
       d="m 295.43541,330.50192 c 0.52341,-0.0788 2.33297,0.0752 0.77933,-0.1964 -1.76864,-0.45785 -3.56511,-2.17834 -3.01379,-4.14693 0.40169,-1.52755 1.55938,-2.78064 2.81698,-3.6638 1.46754,-0.82038 -0.29875,-1.56731 -1.18417,-1.05804 -1.76349,0.40299 -2.94631,1.92541 -3.96199,3.31134 -0.92906,1.30868 -1.14007,3.2905 0.11378,4.47279 1.41943,1.53607 3.63447,1.78925 5.61033,1.6809 0.75419,0.0153 1.19002,-0.10623 0.15002,-0.19871 -0.43682,-0.0671 -0.87482,-0.12704 -1.31049,-0.20115 z" />
    <path
       id="path200"
       style="fill:#00aad4;stroke:#00aad4;stroke-width:0.529166px;stroke-linecap:butt;stroke-linejoin:miter;stroke-opacity:1"
       d="m 107.35231,334.22744 c -1.62952,-1.06088 -4.10094,-2.81996 -3.17253,-5.05605 1.09557,-1.85698 3.54814,-2.1864 5.50704,-2.06335 2.4265,0.0874 3.19904,2.83969 1.71047,4.52267 -0.7019,2.0017 -2.64311,1.82542 -4.04498,2.59673 z" />
    <path
       id="path206"
       style="fill:#00aad4;stroke:#00aad4;stroke-width:0.529166px;stroke-linecap:butt;stroke-linejoin:miter;stroke-opacity:1"
       d="m 133.84234,315.30522 c -1.68623,0.0414 -4.25736,1.44763 -3.08142,3.42045 1.04009,1.69699 3.20814,2.89198 5.20215,2.60494 1.97443,-0.46525 2.42757,-2.95705 1.62636,-4.5667 -0.59935,-1.32379 -2.39968,-2.46365 -3.74709,-1.45869 z" />
    <path
       id="path212"
       style="fill:#00aad4;stroke:#00aad4;stroke-width:0.529166px;stroke-linecap:butt;stroke-linejoin:miter;stroke-opacity:1"
       d="m 116.97399,301.26328 c -1.30323,0.80553 -3.93491,2.54758 -2.27136,4.18018 1.51886,0.96618 3.47749,0.8584 5.19693,0.65024 1.84649,0.0614 3.81067,-1.98606 1.86002,-3.42647 -1.11534,-1.01743 -2.5489,-1.93642 -4.12556,-1.49081 -0.21991,0.0297 -0.43954,0.0616 -0.66003,0.0869 z" />
    <path
       id="path218"
       style="fill:#00aad4;stroke:#00aad4;stroke-width:0.529166px;stroke-linecap:butt;stroke-linejoin:miter;stroke-opacity:1"
       d="m 158.83519,319.6629 c -0.89432,-1.40211 -2.14648,-3.33507 -0.9733,-4.92979 1.67226,-1.51863 4.17817,-0.66396 6.01003,0.10632 1.88137,0.61744 2.75773,3.4188 0.62991,4.3222 -1.45192,1.06826 -3.42718,1.65367 -5.07894,0.66469 l -0.29111,-0.091 z" />
    <path
       id="path224"
       style="fill:#00aad4;stroke:#00aad4;stroke-width:0.529166px;stroke-linecap:butt;stroke-linejoin:miter;stroke-opacity:1"
       d="m 182.32363,292.1084 c -1.96854,0.21219 -4.62965,2.62251 -2.43108,4.35201 1.78456,1.48257 4.32028,2.25895 6.61336,1.86157 2.40152,-0.419 2.71169,-3.72902 1.01928,-5.11 -1.49442,-1.36236 -3.58554,-0.0472 -5.20156,-1.10358 z" />
    <path
       id="path230"
       style="fill:#00aad4;stroke:#00aad4;stroke-width:0.529166px;stroke-linecap:butt;stroke-linejoin:miter;stroke-opacity:1"
       d="m 146.30646,277.74526 c -1.37437,0.76683 -3.09644,3.14138 -1.1468,4.23704 2.05012,1.10983 4.55621,0.81745 6.7246,0.26183 2.5716,-0.35005 2.43449,-3.45691 0.3071,-4.39996 -1.59348,-1.04618 -4.04616,-1.83718 -5.65518,-0.42383 l -0.12238,0.15353 z" />
    <path
       id="path236"
       style="fill:#00aad4;stroke:#00aad4;stroke-width:0.529166px;stroke-linecap:butt;stroke-linejoin:miter;stroke-opacity:1"
       d="m 74.544556,297.6696 c -2.00644,-0.0366 -5.22869,0.66372 -4.956311,3.26466 0.492558,3.07173 4.639539,5.32644 7.280601,3.30374 1.816568,-1.47203 2.619822,-4.7155 0.523678,-6.30912 -0.763955,-0.65911 -1.999852,-0.91597 -2.847968,-0.25928 z" />
    <path
       id="path242"
       style="fill:#00aad4;stroke:#00aad4;stroke-width:0.529166px;stroke-linecap:butt;stroke-linejoin:miter;stroke-opacity:1"
       d="m 149.92788,295.94618 c -1.88103,0.085 -4.29285,2.50552 -2.24293,4.05523 1.85072,1.63715 4.56159,2.35987 6.96304,1.81199 2.19592,-0.9757 1.87525,-4.24439 0.18173,-5.53331 -1.39422,-0.95217 -3.38259,-1.04401 -4.90184,-0.33391 z" />
    <path
       id="path248"
       style="fill:#00aad4;stroke:#00aad4;stroke-width:0.529166px;stroke-linecap:butt;stroke-linejoin:miter;stroke-opacity:1"
       d="m 116.00409,271.02766 c -2.05725,-0.0982 -5.15385,1.13235 -4.40133,3.69314 0.64388,2.39442 2.82628,4.04128 4.98311,5.01531 2.12615,0.88766 4.05898,-1.06518 3.69221,-3.18142 0.0709,-2.18059 -0.77626,-4.9309 -3.10856,-5.57626 -0.38572,-0.0706 -0.7869,-0.0524 -1.16543,0.0492 z" />
    <path
       id="path254"
       style="fill:#00aad4;stroke:#00aad4;stroke-width:0.529166px;stroke-linecap:butt;stroke-linejoin:miter;stroke-opacity:1"
       d="m 141.57334,234.05014 c -2.08887,0.15483 -4.51123,2.28272 -3.18336,4.46409 1.16225,2.26885 3.75394,3.75252 6.27187,3.76033 2.6939,-0.24253 4.0311,-3.7793 2.22413,-5.77642 -1.24484,-1.53361 -3.26992,-2.7701 -5.31264,-2.448 z" />
    <path
       id="path260"
       style="fill:#00aad4;stroke:#00aad4;stroke-width:0.529166px;stroke-linecap:butt;stroke-linejoin:miter;stroke-opacity:1"
       d="m 30.891277,266.4801 c -1.480454,1.65399 -2.156766,5.40713 0.803136,5.82752 2.331553,0.35473 5.11015,-0.33281 6.710623,-2.10457 1.119144,-2.6214 -2.245526,-3.81646 -4.23769,-4.14107 -1.101897,-0.17678 -2.261684,-0.0632 -3.276069,0.41812 z" />
    <path
       id="path266"
       style="fill:#00aad4;stroke:#00aad4;stroke-width:0.529166px;stroke-linecap:butt;stroke-linejoin:miter;stroke-opacity:1"
       d="m 224.23765,263.15264 c -1.82606,-0.34359 -5.11459,0.052 -4.72574,2.59131 0.43774,2.14614 2.46676,3.91225 4.62379,4.16012 2.26112,0.18916 3.58145,-2.19164 3.71298,-4.15625 0.30375,-1.86803 -1.90829,-3.7761 -3.61103,-2.59518 z" />
    <path
       id="path272"
       style="fill:#00aad4;stroke:#00aad4;stroke-width:0.529166px;stroke-linecap:butt;stroke-linejoin:miter;stroke-opacity:1"
       d="m 260.07721,299.48862 c -2.01213,0.23406 -4.61133,2.47721 -2.93616,4.51634 1.5517,2.09735 4.95894,3.13473 7.12154,1.38683 1.75255,-1.54722 1.77873,-4.74223 -0.30518,-6.0216 -0.91174,-1.13243 -3.97328,-2.4092 -3.8802,0.11843 z" />
    <path
       id="path284"
       style="fill:#00aad4;stroke:#00aad4;stroke-width:0.529166px;stroke-linecap:butt;stroke-linejoin:miter;stroke-opacity:1"
       d="m 162.63992,254.9005 c -1.49155,0.0885 -3.77349,1.05342 -3.11258,2.91687 0.60659,1.64008 2.29894,2.65896 3.91679,3.07002 2.05396,0.28086 2.86635,-2.05513 2.29375,-3.68402 -0.2101,-1.40672 -1.58404,-2.8724 -3.09796,-2.30287 z" />
    <path
       id="path318"
       style="opacity:1;fill:#000000;stroke:#000000;stroke-width:0.529998;stroke-linecap:round"
       d="m 11.722833,340.9895 c 0.273562,4.49482 0.71963,9.01363 0.123545,13.50307 0.306692,1.7011 -1.409848,5.33429 1.474015,4.80673 2.744546,-0.22243 0.865426,-3.95546 1.583506,-5.76234 0.247264,-3.32065 0.342752,-6.69275 -0.347465,-9.9645 0.343833,-1.55282 -0.206374,-3.36846 -2.143265,-2.58656 l -0.345181,0.002 -0.345156,0.002 z" />
    <path
       d="m 143.0556,340.82338 c -0.14056,0.9407 -0.15478,1.89542 -0.23089,2.84294 -0.0729,0.8395 -0.1293,1.68026 -0.17974,2.52136 -0.057,0.8099 -0.0976,1.6204 -0.10676,2.43226 -0.063,1.00442 -0.18232,2.0044 -0.33387,2.99904 -0.10988,0.748 -0.23179,1.49454 -0.33856,2.24298 -0.009,0.0604 -0.0401,0.1218 -0.0264,0.1814 0.0761,0.32996 0.93979,0.28342 0.99983,0.29254 0.0543,0.008 0.10306,0.0382 0.15458,0.0572 0,0 0.1879,-0.0202 0.1879,-0.0202 v 0 c -0.0142,-0.016 -0.0644,-0.0468 -0.0427,-0.0502 0.15724,-0.0252 0.84814,0.0566 0.98007,-0.25798 0.0232,-0.0554 0.005,-0.12 0.008,-0.18 0.044,-0.7482 0.11454,-1.49282 0.21434,-2.236 0.12812,-1.00432 0.28596,-2.00738 0.33604,-3.01952 0.0607,-0.80854 0.0465,-1.6188 0.0948,-2.42816 0.055,-0.84068 0.0892,-1.68266 0.10258,-2.52506 0.013,-0.94612 0.069,-1.89124 0.0661,-2.83708 0,0 -1.88506,-0.016 -1.88506,-0.016 z"
       id="path320"
       style="opacity:1;fill:#00aad4;fill-opacity:1;stroke:#00aad4;stroke-width:0.529998;stroke-linecap:round;stroke-opacity:1" />
    <path
       id="path322"
       style="opacity:1;fill:#00aad4;fill-opacity:1;stroke:#00aad4;stroke-width:0.529998;stroke-linecap:round;stroke-opacity:1"
       d="m 111.18953,368.51424 c 4.51049,-0.81866 7.79197,-4.82704 8.89222,-9.10867 0.77085,-0.94685 1.61674,-4.49389 -0.53746,-2.80179 -0.98155,2.24405 -0.58872,5.02582 0.0142,7.29079 2.21289,2.77903 4.99702,-0.63428 5.37658,-3.03798 0.0114,-1.45808 2.49335,-4.1797 0.76627,-4.86618 -2.17543,1.61734 -0.54485,4.92345 -0.85876,7.35809 0.25945,2.42808 0.65374,4.96245 1.9141,7.08757 1.63018,1.95147 2.13647,-0.38781 1.13883,-1.66762 -1.45721,-3.82031 -1.85268,-8.02292 -1.23755,-12.05837 -2.14495,-2.23445 -2.59333,1.886 -2.96399,3.35307 -0.26529,1.32966 -2.6036,4.20038 -2.08803,4.31129 -1.74331,-1.92222 -0.98686,-4.58047 -0.68138,-6.90199 -0.42037,-3.22992 -2.55728,0.76778 -2.35736,2.33713 -1.28312,3.75572 -3.86506,7.55687 -7.9873,8.44378 -0.64595,0.25446 0.82605,0.33788 0.60961,0.26088 z" />
    <path
       id="path324"
       style="opacity:1;fill:#00aad4;fill-opacity:1;stroke:#00aad4;stroke-width:0.529998;stroke-linecap:round;stroke-opacity:1"
       d="m 131.41304,357.72162 c 2.29248,2.88277 2.87275,6.97393 1.81912,10.44781 -1.05446,1.33338 0.19699,3.74586 1.8649,2.41484 1.21019,-1.31312 0.17659,-3.18716 0.55787,-4.74745 0.19525,-2.78583 -0.38512,-5.89977 -2.42709,-7.94498 -0.47614,-0.46262 -1.23215,-0.21396 -1.8148,-0.17022 z" />
    <path
       id="path326"
       style="opacity:1;fill:#00aad4;fill-opacity:1;stroke:#00aad4;stroke-width:0.529998;stroke-linecap:round;stroke-opacity:1"
       d="m 134.00161,371.50808 c 1.35509,-1.93186 3.76132,-2.57394 5.94817,-3.01543 0.6442,-0.24912 1.71884,-0.0652 2.13313,-0.43656 -1.01764,-0.26439 -2.1599,-0.1918 -3.22186,-0.1 -1.80445,0.31393 -3.66492,0.78016 -5.18346,1.84394 -1.01175,0.56661 -1.98592,2.05852 -0.10657,1.65446 l 0.2414,0.0107 z" />
    <path
       id="path328"
       style="opacity:1;fill:#00aad4;fill-opacity:1;stroke:#00aad4;stroke-width:0.529998;stroke-linecap:round;stroke-opacity:1"
       d="m 134.96684,365.17908 c 1.56582,-1.82399 4.07986,-2.19507 6.30104,-2.65897 0.66333,0.0298 0.96425,-0.31753 0.18385,-0.46038 -1.3266,-0.0228 -2.65935,0.1236 -3.93019,0.53238 -1.47551,0.40116 -2.89852,1.05383 -3.99183,2.14938 -0.3887,0.64362 1.15317,0.25282 1.43713,0.43759 z" />
    <path
       id="path330"
       style="opacity:1;fill:#00aad4;fill-opacity:1;stroke:#00aad4;stroke-width:0.529998;stroke-linecap:round;stroke-opacity:1"
       d="m 133.37987,360.27612 c 1.64442,-0.16237 3.32843,-0.60325 4.63913,-1.65439 1.07664,-0.19926 1.05794,-2.05268 -0.1962,-1.75573 -0.92997,0.22891 -1.94192,0.40405 -2.68435,1.05285 -1.07427,0.97756 -2.34046,1.7735 -3.78059,2.06597 0.67402,0.097 1.34793,0.19475 2.02201,0.2913 z" />
    <path
       id="path332"
       style="opacity:1;fill:#00aad4;fill-opacity:1;stroke:#00aad4;stroke-width:0.529998;stroke-linecap:round;stroke-opacity:1"
       d="m 146.33833,369.0233 c 2.76623,-3.10382 4.09576,-7.1343 5.36301,-10.99768 1.55039,-2.22769 -3.15529,-2.35661 -2.25175,-0.082 0.45795,2.95802 1.35825,5.8766 2.92232,8.4491 0.77032,1.23252 3.84884,0.81572 1.99048,-0.79237 -1.75326,-2.34845 -2.29116,-5.37508 -2.27436,-8.24505 -0.37319,-2.06006 -3.64337,-0.9941 -3.04317,1.0034 -0.93633,3.68582 -2.53598,7.23433 -4.79229,10.31183 0.54753,0.60441 1.42303,0.0812 2.08576,0.35281 z" />
    <path
       id="path334"
       style="opacity:1;fill:#00aad4;fill-opacity:1;stroke:#00aad4;stroke-width:0.529998;stroke-linecap:round;stroke-opacity:1"
       d="m 149.17272,365.93058 c 0.96059,-0.20898 2.02007,-0.31817 2.7854,-1.00015 -0.19476,-0.4111 0.87158,-1.07592 0.18944,-0.73251 -0.92997,0.31005 -1.93237,0.29183 -2.85234,0.64792 -0.8891,0.2759 -1.7703,0.60412 -2.69795,0.72677 0.85848,0.11932 1.71696,0.23867 2.57545,0.35797 z" />
    <path
       id="path336"
       style="opacity:1;fill:#00aad4;fill-opacity:1;stroke:#00aad4;stroke-width:0.529998;stroke-linecap:round;stroke-opacity:1"
       d="m 159.65331,368.23856 c 1.46332,-3.61736 2.25578,-7.46533 3.50073,-11.15136 0.29899,-0.11048 -1.40935,-0.1749 -1.92843,-0.32072 -1.72778,-0.12342 0.0798,2.0899 -0.005,3.00331 0.73133,2.51521 1.46772,5.09018 2.94559,7.28674 1.19682,0.7739 2.74428,0.14286 4.04631,0.0757 1.21739,-0.80467 1.47084,-2.40206 2.10252,-3.63366 0.61746,-1.52217 1.16558,-3.0735 1.61251,-4.65454 0.19718,-1.35624 -1.1235,-2.8571 -2.28797,-1.56633 -1.05876,0.83966 -1.56557,2.11818 -1.82111,3.40834 -0.68283,1.89469 -1.0848,3.93622 -2.23905,5.62386 -1.14123,1.05001 2.17635,0.39838 1.95071,0.68524 -1.4515,-0.28696 -1.83519,-2.00511 -2.31182,-3.1925 -0.73421,-2.25695 -1.41437,-4.53718 -1.86981,-6.86874 -0.9238,-0.35894 -2.94639,-0.85647 -3.23348,0.33724 -0.70787,3.50444 -1.7563,6.93468 -2.76304,10.36052 -0.0982,1.09408 1.67273,0.34315 2.30157,0.60685 z" />
    <path
       id="path338"
       style="opacity:1;fill:#000000;fill-opacity:1;stroke:#000000;stroke-width:0.529998;stroke-linecap:round;stroke-opacity:1"
       d="m 18.980327,359.98374 c -1.39073,1.85261 -2.0519,4.79121 -0.357613,6.66502 1.595879,1.29289 3.899175,0.84147 5.759193,0.51995 2.314196,-1.1664 3.15725,-4.14721 2.808698,-6.56937 -0.205388,-1.91823 -1.215462,-4.23769 -3.498986,-4.10718 -1.822743,-0.3483 -4.107282,0.2277 -4.634235,2.24683 -1.025331,1.95078 2.628292,2.88209 2.782054,0.84355 -0.279344,-1.21103 1.522874,-2.36553 1.743161,-2.55864 -0.509937,-0.0394 -2.433328,-0.14627 -0.909788,0.32772 1.766695,1.36797 1.803106,3.96341 1.479583,5.98281 -0.113632,1.67782 -1.903965,3.33317 -2.987251,3.64455 0.743254,0.0197 2.367917,0.10711 0.740876,-0.24257 -1.764677,-1.08889 -1.687813,-3.66187 -0.765456,-5.2912 1.225176,-2.0426 -1.000965,-1.16347 -2.160236,-1.46147 z" />
    <path
       id="path340"
       style="opacity:1;fill:#ff2a2a;fill-opacity:1;stroke:#ff2a2a;stroke-width:0.529998;stroke-linecap:round;stroke-opacity:1"
       d="m 40.154089,242.4273 c 0.116994,1.82949 0.38492,3.64836 0.80758,5.43043 0.120601,0.51023 0.02462,1.60584 0.209951,1.75144 0.238703,-0.73147 -0.23787,-1.49443 -0.0076,-2.25006 0.141326,-1.28402 0.354197,-2.56602 0.30716,-3.8608 0.250056,-0.73198 -0.188048,-1.39523 -0.987105,-1.07499 l -0.165197,0.001 -0.164786,0.002 z" />
    <path
       id="path342"
       style="opacity:1;fill:#ff2a2a;fill-opacity:1;stroke:#ff2a2a;stroke-width:0.529998;stroke-linecap:round;stroke-opacity:1"
       d="m 40.052949,258.1257 c 0.0098,2.27428 0.06149,4.54947 0.217664,6.81884 0.38897,-0.68474 -0.08462,-1.50709 0.119753,-2.25009 0.02508,-1.35122 0.09276,-2.70131 0.110708,-4.05269 0.176808,-0.33399 -0.06743,-0.69259 -0.448125,-0.51606 z" />
    <path
       id="path344"
       style="opacity:1;fill:#ff2a2a;fill-opacity:1;stroke:#ff2a2a;stroke-width:0.529998;stroke-linecap:round;stroke-opacity:1"
       d="m 40.352459,274.96152 c 0.02107,1.00494 0.07451,2.01244 0.277462,2.99828 0.101874,0.47248 -0.0062,1.28055 0.173468,1.5477 0.270358,-0.4646 -0.109238,-1.05085 0.07879,-1.56739 0.06663,-0.83603 0.248578,-1.66045 0.271434,-2.50037 0.30741,-0.62979 -0.452611,-0.474 -0.801152,-0.47822 z" />
    <path
       id="path346"
       style="opacity:1;fill:#ff2a2a;fill-opacity:1;stroke:#ff2a2a;stroke-width:0.529998;stroke-linecap:round;stroke-opacity:1"
       d="m 40.949659,291.2433 c 0.01614,0.73752 0.269018,1.45167 0.230009,2.19364 0.106656,0.34861 -0.118507,0.93445 0.199408,1.13043 0.148298,-0.40672 -0.06391,-0.94569 -0.03261,-1.40628 -0.0465,-0.56051 0.05003,-1.11463 0.147058,-1.66335 0.05028,-0.41386 -0.30988,-0.2223 -0.54386,-0.25444 z" />
    <path
       id="path348"
       style="opacity:1;fill:#ff2a2a;fill-opacity:1;stroke:#ff2a2a;stroke-width:0.529998;stroke-linecap:round;stroke-opacity:1"
       d="m 41.126135,304.3876 c 0.0344,1.99826 0.0992,3.99674 0.06402,5.99548 0.456099,-0.49063 0.02782,-1.25352 0.250071,-1.84981 0.09907,-1.38096 0.283816,-2.75866 0.266383,-4.14567 -0.193491,0 -0.386983,0 -0.580474,0 z" />
    <path
       id="path350"
       style="opacity:1;fill:#ff2a2a;fill-opacity:1;stroke:#ff2a2a;stroke-width:0.529998;stroke-linecap:round;stroke-opacity:1"
       d="m 40.904769,318.52538 c -0.105489,1.19256 0.445931,2.33729 0.317675,3.53112 0.240617,0.43485 0.192003,-0.33903 0.175963,-0.53022 -0.01263,-1.03062 0.485391,-1.97431 0.549388,-2.99348 -0.347544,-0.002 -0.696195,-0.002 -1.043026,-0.007 z" />
    <path
       id="path352"
       style="opacity:1;fill:#ff2a2a;fill-opacity:1;stroke:#ff2a2a;stroke-width:0.529998;stroke-linecap:round;stroke-opacity:1"
       d="m 41.325885,330.15861 c 0.103511,0.63659 0.351108,1.25255 0.335259,1.90569 0.08173,0.26304 0.301942,-0.0349 0.169257,-0.17989 -0.09399,-0.57787 0.04201,-1.15649 0.125979,-1.72656 -0.210152,3.3e-4 -0.42041,7e-5 -0.630495,7.6e-4 z" />
    <path
       id="path354"
       style="opacity:1;fill:#ff2a2a;fill-opacity:1;stroke:#ff2a2a;stroke-width:0.529998;stroke-linecap:round;stroke-opacity:1"
       d="m 41.005357,340.74334 c 0.118213,1.35151 0.183326,2.73631 0.6921,4.01126 -0.03229,0.19221 0.07895,0.96586 0.228939,0.61985 -0.144935,-0.64948 -0.04295,-1.30636 0.09911,-1.94388 0.111488,-0.86057 0.01262,-1.72966 0.0701,-2.59306 -0.319232,-0.24105 -0.739723,-0.0115 -1.090248,-0.0942 z" />
    <path
       id="path356"
       style="opacity:1;fill:#ff2a2a;fill-opacity:1;stroke:#ff2a2a;stroke-width:0.529998;stroke-linecap:round;stroke-opacity:1"
       d="m 257.12241,328.7081 c -0.16221,0.80291 -0.10433,1.63285 -0.0633,2.44392 0.10926,0.6792 0.43576,1.29296 0.69377,1.92282 0.52581,-0.22595 0.3538,-0.96889 0.66025,-1.3859 0.29396,-0.74646 0.1976,-1.55397 0.33868,-2.32702 0.19405,-0.75808 -0.64107,-0.68255 -1.12247,-0.6387 -0.16894,-0.001 -0.33893,-0.008 -0.50689,-0.0151 z" />
    <path
       id="path358"
       style="opacity:1;fill:#ff2a2a;fill-opacity:1;stroke:#ff2a2a;stroke-width:0.529998;stroke-linecap:round;stroke-opacity:1"
       d="m 257.00357,341.56055 c -0.11173,0.74442 -0.23547,1.61151 0.2815,2.24065 0.29542,0.20632 0.43632,0.51249 0.48557,0.84172 0.20363,-0.0839 -0.047,-0.56798 0.18301,-0.76381 0.24262,-0.31877 0.70001,-0.59035 0.60684,-1.05415 -0.0387,-0.39637 0.22133,-0.90046 -0.11473,-1.21728 -0.30266,-0.13152 -0.64145,0.0184 -0.96016,-0.0433 -0.16034,-0.005 -0.32325,-0.008 -0.48203,-0.004 z" />
    <path
       id="path360"
       style="opacity:1;fill:#ff2a2a;fill-opacity:1;stroke:#ff2a2a;stroke-width:0.529998;stroke-linecap:round;stroke-opacity:1"
       d="m 256.61585,311.8869 c 0.0466,0.91836 0.0855,1.84627 0.31682,2.73955 0.002,0.23778 -0.0623,0.93061 0.17907,0.83961 0.0363,-0.4963 -0.09,-1.00047 0.0785,-1.48604 0.12147,-0.69129 0.14116,-1.39453 0.21789,-2.0911 -0.26408,-7.2e-4 -0.52818,-8.9e-4 -0.79225,-0.002 z" />
    <path
       id="path362"
       style="opacity:1;fill:#ff2a2a;fill-opacity:1;stroke:#ff2a2a;stroke-width:0.529998;stroke-linecap:round;stroke-opacity:1"
       d="m 257.20917,293.70376 c -0.28069,0.78183 -0.12303,1.62342 -0.12763,2.43241 0.0509,0.69494 0.49886,1.30009 0.36396,2.01899 -0.0167,0.3786 0.1903,0.52551 0.17456,0.0582 -0.0942,-0.60689 0.0903,-1.16445 0.31227,-1.71566 0.16879,-0.72112 0.10584,-1.47072 0.21041,-2.1996 0.0247,-0.57302 -0.46206,-0.71653 -0.93357,-0.59433 z" />
    <path
       id="path364"
       style="opacity:1;fill:#ff2a2a;fill-opacity:1;stroke:#ff2a2a;stroke-width:0.529998;stroke-linecap:round;stroke-opacity:1"
       d="m 257.43185,271.59274 c 0.0285,1.79072 0.5228,3.53978 0.46325,5.3346 0.0938,0.47996 -0.14723,1.50414 0.22867,1.64359 0.0763,-0.73472 -0.0896,-1.48674 -0.078,-2.23197 -0.0998,-1.41698 0.23656,-2.80563 0.3194,-4.21291 0.21382,-0.72944 -0.50812,-0.53728 -0.93336,-0.53331 z" />
    <path
       id="path366"
       style="opacity:1;fill:#ff2a2a;fill-opacity:1;stroke:#ff2a2a;stroke-width:0.529998;stroke-linecap:round;stroke-opacity:1"
       d="m 256.97717,254.79794 c 0.0573,1.02432 -0.21262,2.08696 0.18319,3.07327 0.0831,0.36942 -0.10754,1.30866 0.14117,1.32128 0.0903,-0.6465 -0.0262,-1.33138 0.32529,-1.92176 0.25777,-0.77602 0.22046,-1.60577 0.36913,-2.40259 -0.30636,-0.19283 -0.68742,0.008 -1.01878,-0.0702 z" />
    <path
       id="path368"
       style="opacity:1;fill:#ff2a2a;fill-opacity:1;stroke:#ff2a2a;stroke-width:0.529998;stroke-linecap:round;stroke-opacity:1"
       d="m 256.98777,235.73082 c -0.0722,0.76485 -0.037,1.55281 0.23814,2.27747 0.1136,0.3121 0.0478,0.93239 0.32657,1.04186 0.23417,-0.40363 -0.007,-0.93069 0.2222,-1.36376 0.17575,-0.54034 0.18465,-1.10528 0.2628,-1.65966 0.0594,-0.46397 -0.55684,-0.24279 -0.8306,-0.28803 -0.0731,-9e-5 -0.1463,-0.002 -0.21911,-0.008 z" />
    <path
       id="path372"
       style="opacity:1;fill:#ff2a2a;fill-opacity:1;stroke:#ff2a2a;stroke-width:0.529998;stroke-linecap:round;stroke-opacity:1"
       d="m 146.85803,340.78596 c 2.35863,-7.18597 12.47703,-9.90552 18.3984,-8.3941 8.45977,2.64919 17.19206,10.87256 26.40898,6.04656 3.90629,-0.63311 11.09905,-7.29463 8.56175,-8.92241 5.30573,6.15691 13.96805,11.20492 22.68855,10.52872 8.38276,1.60708 13.17893,-5.47829 20.09541,-8.21414 4.55895,-0.75656 -0.003,-0.6592 4.34329,0.89646 2.45794,1.08212 7.75793,12.04326 7.88468,5.11397 -3.29126,-7.16868 -12.90523,-9.21388 -19.10951,-4.60504 -4.75506,4.18494 -10.58441,7.74957 -17.19137,5.88963 -7.95748,-0.50578 -12.13124,-9.37194 -19.60198,-10.14392 -2.64264,4.65511 -11.6422,10.7502 -13.70341,10.23588 -9.74886,-1.52826 -18.10142,-10.7091 -28.5353,-7.19948 -3.59837,-0.1199 -14.37805,5.95962 -10.23949,8.76787 z" />
    <path
       id="path374"
       style="opacity:1;fill:#ff2a2a;fill-opacity:1;stroke:#ff2a2a;stroke-width:0.529998;stroke-linecap:round;stroke-opacity:1"
       d="m 184.19245,313.8542 c 0.43985,-1.50584 3.10654,-2.79903 3.54572,-2.99834 -1.34088,-0.0472 0.85658,1.26245 0.18352,2.187 -0.2279,3.64467 -1.9516,7.12249 -4.72603,9.50434 -0.54576,0.73681 -3.25327,1.89884 -1.06007,1.54174 0.84009,0.25189 3.82575,-0.65777 2.92,-1.17512 -0.86855,-0.0876 -1.7502,0.27411 -0.40448,0.55723 1.87754,1.28639 4.15177,2.2313 6.43875,1.58936 0.69212,-0.44123 -1.334,-0.1908 0.28455,-0.32356 -1.9065,-0.14617 -4.05597,-2.03909 -6.23219,-2.25364 -1.37649,-0.65327 -5.08359,1.30855 -2.13637,1.83755 1.82279,0.40559 2.75071,-1.49211 3.85146,-2.54966 1.97632,-2.12485 3.235,-4.88113 3.32878,-7.80006 0.58459,-2.04611 -0.80841,-4.09089 -3.06247,-3.46865 -1.87831,0.0442 -3.65069,1.19705 -4.55599,2.82265 -0.58582,0.99894 1.25946,0.19966 1.62482,0.52916 z" />
    <path
       id="path376"
       style="opacity:1;fill:#ff2a2a;fill-opacity:1;stroke:#ff2a2a;stroke-width:0.529998;stroke-linecap:round;stroke-opacity:1"
       d="m 203.60777,313.89702 c -1.60342,-0.0618 -3.45479,-0.31514 -4.75657,0.85023 -1.04585,1.32734 0.39141,2.78687 1.43809,3.55361 1.35267,1.01307 1.30666,3.02475 -0.0278,4.03082 -0.3565,0.86852 -2.83938,0.8948 -1.97067,1.87215 2.04682,0.39644 4.49901,-0.28927 5.55246,-2.22186 0.76652,-1.58989 -0.59096,-3.13362 -1.77041,-4.06062 -1.0626,-0.57742 -2.46741,-2.40335 -1.00027,-3.28487 0.40391,-0.22906 1.85815,-0.52159 0.63546,-0.46548 0.63656,-0.067 1.26453,-0.19404 1.8997,-0.27398 z" />
    <path
       id="path378"
       style="opacity:1;fill:#ff2a2a;fill-opacity:1;stroke:#ff2a2a;stroke-width:0.529998;stroke-linecap:round;stroke-opacity:1"
       d="m 210.69323,314.10628 c 0.27927,2.85119 -0.12381,5.70067 -0.269,8.54634 0.51449,0.90107 1.79242,0.98612 2.52299,0.31359 0.58604,-0.98241 0.1365,-2.23496 0.21715,-3.32505 -0.10028,-1.78441 -0.30917,-3.56019 -0.44728,-5.34166 -0.57175,-0.512 -1.36321,-0.0428 -2.02386,-0.19322 z" />
    <path
       id="path380"
       style="opacity:1;fill:#ff2a2a;fill-opacity:1;stroke:#ff2a2a;stroke-width:0.529998;stroke-linecap:round;stroke-opacity:1"
       d="m 210.70945,314.9618 c 2.08729,-0.27568 4.11128,-0.87904 6.17895,-1.25943 -0.43939,-0.90448 -1.73815,-0.35053 -2.55065,-0.54885 -1.39685,0.077 -2.69771,0.66777 -4.07088,0.89284 -0.58711,0.17222 -2.0365,0.41317 -2.06565,0.58583 0.83608,0.10989 1.67229,0.2187 2.50823,0.32961 z" />
    <path
       id="path382"
       style="opacity:1;fill:#ff2a2a;fill-opacity:1;stroke:#ff2a2a;stroke-width:0.529998;stroke-linecap:round;stroke-opacity:1"
       d="m 221.15649,313.25742 c -5.2e-4,3.07488 -0.23416,6.14789 -0.65683,9.19295 0.50711,0.92246 2.00743,0.86588 2.73224,0.27826 0.52208,-0.89313 0.25657,-2.00846 0.31648,-3.00004 -0.0785,-1.36027 -0.094,-2.74495 -0.26855,-4.08698 -0.10913,-0.94895 0.15049,-2.90061 -1.4313,-2.37891 -0.22883,0.0307 -0.46507,0.0502 -0.69204,-0.005 z" />
    <path
       id="path384"
       style="opacity:1;fill:#ff2a2a;fill-opacity:1;stroke:#ff2a2a;stroke-width:0.529998;stroke-linecap:round;stroke-opacity:1"
       d="m 222.74009,314.12332 c 0.50674,-0.51029 2.38999,-0.60269 2.19267,-0.60958 -1.62156,0.0251 1.11499,0.38943 1.20861,1.10268 1.31837,1.34895 0.70898,3.33892 -0.3143,4.64952 -0.92301,1.29736 -2.25125,2.31395 -3.76575,2.81709 -1.01624,1.22262 1.78081,0.69277 2.37289,0.61687 2.0797,-0.57707 3.83654,-2.21932 4.76965,-4.14484 0.85854,-1.65182 0.22662,-3.79513 -1.38033,-4.73252 -1.59041,-1.01602 -3.57049,-0.68412 -5.34702,-0.5628 -0.87669,0.0848 -2.54098,0.84468 -0.74691,0.77015 0.33695,0.0297 0.67437,0.0549 1.01049,0.0934 z" />
    <path
       id="path386"
       style="opacity:1;fill:#ff2a2a;fill-opacity:1;stroke:#ff2a2a;stroke-width:0.529998;stroke-linecap:round;stroke-opacity:1"
       d="m 200.09069,342.0996 c 0.29654,2.26422 0.25927,4.55913 0.26008,6.8378 -0.0683,1.01202 -0.60321,2.84706 1.08229,2.47351 1.16355,0.27194 1.80498,-0.61923 1.40641,-1.69754 -0.098,-1.68447 -0.15601,-3.38265 -0.26436,-5.07014 -0.35569,-0.80474 -0.0712,-2.0175 -0.84099,-2.52962 -0.53746,-0.15503 -1.09739,0.0241 -1.64343,-0.014 z" />
  </g>
</svg>
