<?xml version="1.0" encoding="UTF-8" standalone="no"?>
<svg
   xmlns:dc="http://purl.org/dc/elements/1.1/"
   xmlns:cc="http://creativecommons.org/ns#"
   xmlns:rdf="http://www.w3.org/1999/02/22-rdf-syntax-ns#"
   xmlns:svg="http://www.w3.org/2000/svg"
   xmlns="http://www.w3.org/2000/svg"
   xmlns:sodipodi="http://sodipodi.sourceforge.net/DTD/sodipodi-0.dtd"
   xmlns:inkscape="http://www.inkscape.org/namespaces/inkscape"
   width="1200"
   height="600"
   viewBox="0 0 317.5 158.75"
   version="1.1"
   id="svg8"
   inkscape:version="1.0.1 (3bc2e813f5, 2020-09-07)"
   sodipodi:docname="skl-pi-area.svg">
  <defs
     id="defs2" />
  <sodipodi:namedview
     id="base"
     pagecolor="#ffffff"
     bordercolor="#666666"
     borderopacity="1.0"
     inkscape:pageopacity="0.0"
     inkscape:pageshadow="2"
     inkscape:zoom="1.4"
     inkscape:cx="596.23648"
     inkscape:cy="292.17437"
     inkscape:document-units="mm"
     inkscape:current-layer="layer1"
     showgrid="false"
     units="px"
     inkscape:window-width="1920"
     inkscape:window-height="1061"
     inkscape:window-x="0"
     inkscape:window-y="19"
     inkscape:window-maximized="0"
     inkscape:document-rotation="0"
     inkscape:snap-global="false" />
  <metadata
     id="metadata5">
    <rdf:RDF>
      <cc:Work
         rdf:about="">
        <dc:format>image/svg+xml</dc:format>
        <dc:type
           rdf:resource="http://purl.org/dc/dcmitype/StillImage" />
        <dc:title />
      </cc:Work>
    </rdf:RDF>
  </metadata>
  <g
     inkscape:label="Layer 1"
     inkscape:groupmode="layer"
     id="layer1"
     transform="translate(0,-138.25001)">
    <path
       id="path262"
       style="fill:#0044aa;fill-opacity:1;stroke:#0044aa;stroke-width:0.264583px;stroke-linecap:butt;stroke-linejoin:miter;stroke-opacity:1"
       d="m 233.5323,158.23073 c 16.65133,0.62503 33.3057,-0.88632 49.95852,-0.10195 5.04168,0.74081 15.29118,-2.24498 14.18759,6.03851 -0.81476,5.80346 1.35946,11.48834 0.77918,17.33222 -0.46382,7.63424 0.49191,15.33975 -1.33125,22.84846 -1.81665,5.39099 4.23588,15.82098 -5.7125,13.56176 -5.36403,0.0208 -10.7321,1.27564 -16.17153,0.45061 -11.36124,-1.41433 -22.81335,-1.04099 -34.21229,-1.89019 -8.41873,3.30081 -8.02985,-7.20474 -7.5719,-12.50173 -0.43886,-8.81462 -1.87438,-17.56368 -1.07417,-26.41153 0.60215,-6.4093 -0.1125,-13.02982 1.14835,-19.32616 z" />
    <path
       id="path306"
       style="fill:#d40000;fill-opacity:1;stroke:#d40000;stroke-width:0.264583px;stroke-linecap:butt;stroke-linejoin:miter;stroke-opacity:1"
       d="m 233.63089,159.29552 c 10.65707,-0.74196 21.58492,0.0519 31.80742,3.21613 6.0432,3.04702 11.63866,7.07063 16.82022,11.38631 4.81232,5.10476 8.0312,11.61865 10.34232,18.15275 1.09898,7.7077 3.2151,15.49896 2.50229,23.31562 -1.67526,6.5631 -9.47666,0.67714 -14.08907,2.15016 -15.20366,-0.15771 -30.43029,-0.59899 -45.63152,0.0379 -5.32931,-3.1387 -0.83101,-10.36625 -2.74326,-15.24992 -1.0904,-11.9443 -0.14747,-23.90619 1.12116,-35.78782 0.12993,-2.40552 0.13178,-4.8239 -0.12956,-7.22117 z" />
    <path
       id="path92"
       style="fill:#000000;stroke:#000000;stroke-width:0.264999;stroke-linecap:round"
       d="m 12.017684,150.69656 c -0.399611,10.45804 0.587831,20.93903 -0.420532,31.38093 -0.530165,6.33457 -0.977937,12.70913 -0.188279,19.04221 -0.782368,1.95323 0.991042,4.59403 2.078287,1.89703 -0.422716,-3.17514 -1.081621,-6.32716 -1.048194,-9.56557 -0.179404,-9.72232 1.639677,-19.39142 0.89973,-29.12182 -0.150471,-4.42451 -0.318269,-8.8613 0.01898,-13.2817 -0.09177,-0.67325 -1.001921,-0.27541 -1.339996,-0.35108 z" />
    <path
       id="path94"
       style="fill:#000000;stroke:#000000;stroke-width:0.264999;stroke-linecap:round"
       d="m 9.4803949,153.99012 c 1.6206721,-1.93763 3.6455631,-3.72012 4.3290461,-6.2465 0.308469,-0.76283 0.480792,-1.58606 0.498652,-2.40386 -0.431806,-0.25489 -1.162723,0.19499 -1.674159,0.30238 -0.124158,0.84299 0.230456,1.79054 0.293607,2.6716 0.241434,1.45964 0.393754,2.95162 0.798452,4.37278 0.339801,0.44541 0.65758,1.29857 1.121982,1.40526 0.348453,-0.7052 0.413429,-1.58202 0.167685,-2.34329 -0.477878,-1.98674 -0.824802,-4.03772 -0.708085,-6.08844 -0.571499,-0.0617 -1.617926,-0.83356 -1.841867,-0.0959 0.07188,0.69151 -0.0854,1.35769 -0.09803,2.04774 -0.161994,1.22273 -0.869179,2.30199 -1.583825,3.27954 -0.8296572,1.08262 -1.8166917,2.02879 -2.7759379,2.99379 0.4908239,0.035 0.9816692,0.0697 1.4724788,0.1049 z" />
    <path
       id="path96"
       style="fill:#000000;stroke:#000000;stroke-width:0.264999;stroke-linecap:round"
       d="m 9.4104663,198.82689 c 5.6324527,-0.54869 11.2646687,-1.29892 16.9350847,-1.24252 2.515929,0.0646 7.201552,0.12361 10.583253,0.20339 9.52907,0.0885 19.031758,0.8594 28.517612,1.63824 1.78265,0.26282 5.396291,-0.61999 1.638315,-0.46311 -8.709681,-0.53071 -17.393938,-1.46288 -26.132086,-1.44812 -11.046593,-0.44101 -22.127661,-0.43785 -33.1123852,0.93211 -2.0951212,-0.0106 1.3867771,0.28373 1.5702065,0.38001 z" />
    <path
       id="path98"
       style="fill:#000000;stroke:#000000;stroke-width:0.264999;stroke-linecap:round"
       d="m 66.613169,195.85646 c 1.970637,1.29591 4.233729,2.01805 6.390118,2.93136 -1.159793,0.23248 -1.986164,1.19803 -3.010153,1.73205 -1.414041,0.95413 -2.801746,1.94652 -4.18374,2.94628 -0.517342,0.24095 -0.799953,1.80761 -0.284586,1.41072 0.291501,0.51112 1.383538,-0.24906 1.938326,-0.39934 1.010858,-0.4919 1.938968,-1.11566 2.79407,-1.84351 1.462739,-1.09565 2.88961,-2.26171 4.440991,-3.22416 0.803596,-0.0659 1.507576,-1.11203 0.260919,-1.10013 -2.029948,-0.45105 -3.986754,-1.25796 -5.772618,-2.31989 -0.667196,-0.63144 -1.625655,-0.10685 -2.443436,-0.14604 l -0.129891,0.0126 z" />
    <path
       id="path100"
       style="fill:#000000;stroke:#000000;stroke-width:0.264999;stroke-linecap:round"
       d="m 9.1394123,159.94712 c 1.4895107,0.52186 3.0645707,0.82027 4.6467607,0.73916 1.274673,-0.001 2.555785,-0.10003 3.807935,-0.31339 -0.379546,-0.38237 -1.430799,-0.29006 -2.077748,-0.353 -0.857201,0.16618 -1.720319,0.32023 -2.595569,0.33863 0.398333,2.9e-4 1.366567,0.01 1.381438,0.0103 -1.197189,-0.0185 -2.377161,-0.27675 -3.517609,-0.62711 -0.548387,0.0685 -1.0968801,0.13693 -1.6452077,0.20546 z" />
    <path
       id="path102"
       style="fill:#000000;stroke:#000000;stroke-width:0.264999;stroke-linecap:round"
       d="m 5.1191091,159.89161 c 0.5211649,-1.13207 1.0454268,-2.26808 1.507596,-3.42309 -0.2199679,-0.53796 -1.162487,0.0147 -1.6796455,-0.0684 -0.63167,0.2455 -0.2510699,1.2179 -0.4071476,1.78837 -0.094046,1.72729 -0.066995,3.46997 -0.3093767,5.18372 0.038652,0.7596 -0.7999643,1.48854 -1.3391307,1.25878 0.7644948,-0.01 2.0380681,0.024 2.4860547,-0.0223 -0.8555225,0.0578 0.1352101,0.3453 0.4737151,0.12468 0.630299,-0.20221 1.43036,-0.16445 1.9820198,-0.39399 -0.7849411,-0.11978 -1.5215503,-0.29857 -2.3280849,-0.31225 -0.7737037,-8.2e-4 -1.4994295,0.31856 -2.2703328,0.37218 -0.963469,-0.11521 -0.5755154,1.26589 0.1869563,0.89138 0.7156269,-0.51813 2.0262546,0.21164 2.4575174,-0.73385 0.4120134,-1.29765 0.032216,-2.66659 0.1690315,-3.99539 0.036576,-1.36944 0.1460093,-2.74708 0.492864,-4.07668 -0.6536098,0.0583 -1.8705921,-0.7469 -2.0438069,0.24586 -0.241135,0.93465 -0.4647367,1.90246 -1.0298797,2.70345 -0.2848416,0.7262 1.1677061,0.27158 1.65165,0.45701 z" />
    <path
       id="path104"
       style="fill:#000000;stroke:#000000;stroke-width:0.264999;stroke-linecap:round"
       d="m 62.392877,196.02873 c -0.129907,0.80179 -0.393646,1.57692 -0.475471,2.38836 -0.101521,0.99056 -0.294089,1.97156 -0.348833,2.96592 -0.09479,0.62088 0.545812,0.92534 1.015457,1.147 0.52539,0.0384 0.980088,-0.36108 1.427923,-0.59598 0.434557,-1.08722 0.247169,-2.28175 0.374833,-3.41938 0.01518,-0.79337 -0.01277,-1.5905 -0.05823,-2.38061 -0.275098,-0.22679 -0.6949,-0.0258 -1.035361,-0.0985 -0.299948,-0.002 -0.60115,-0.006 -0.900316,-0.007 z" />
    <path
       id="path108"
       style="fill:#d40000;fill-opacity:1;stroke:#d40000;stroke-width:0.264999;stroke-linecap:round;stroke-opacity:1"
       d="m 16.983661,160.49483 c 3.456247,0.85163 10.084671,1.64591 14.649318,3.12789 6.75662,2.86389 14.183022,5.25323 19.285033,10.78565 4.453345,5.5645 5.726591,12.84186 7.357271,19.59634 -0.301448,2.11956 -0.7363,7.03517 2.705677,4.41574 2.211136,-3.71214 -0.642816,-7.99929 -1.339896,-11.79965 -1.732138,-6.58106 -4.670195,-13.59852 -11.105976,-16.82129 -5.700524,-3.12836 -11.743011,-5.76403 -18.002274,-7.5279 -4.750752,-0.76268 -9.498584,-1.97725 -14.307697,-2.08424 -1.123866,0.27166 0.681874,0.1839 0.758544,0.30746 z" />
    <path
       id="path110"
       style="fill:#d40000;fill-opacity:1;stroke:#d40000;stroke-width:0.264999;stroke-linecap:round;stroke-opacity:1"
       d="m 18.92387,188.30353 c 1.668029,-2.54468 2.656804,-5.46816 3.101518,-8.46592 0.03743,-1.26306 1.59229,-4.21699 -0.761789,-3.5049 -0.961821,0.82668 0.544463,2.3807 0.339719,3.57689 0.472447,2.61188 0.709409,5.30261 1.614749,7.80943 0.920626,1.37975 2.657504,-0.20996 1.536809,-1.39746 -1.032011,-3.14394 -1.240064,-6.46758 -1.787607,-9.71154 -1.178073,-1.29145 -3.214127,-0.147 -2.659044,1.54598 -0.416477,3.3566 -1.199694,6.77056 -3.077706,9.63501 -0.232848,0.96319 1.284901,0.20399 1.693351,0.51251 z" />
    <path
       id="path112"
       style="fill:#d40000;fill-opacity:1;stroke:#d40000;stroke-width:0.264999;stroke-linecap:round;stroke-opacity:1"
       d="m 21.800888,184.68242 c 1.116138,-0.0747 2.190247,-0.42077 3.235523,-0.7989 -0.792481,-0.47681 -1.772496,-0.39814 -2.660154,-0.41956 -0.910839,0.19605 -1.743581,0.68603 -2.68703,0.75784 -0.597319,0.14303 0.728963,0.20945 0.936552,0.2784 0.392235,0.0572 0.784977,0.11172 1.175109,0.18222 z" />
    <path
       id="path114"
       style="fill:#d40000;fill-opacity:1;stroke:#d40000;stroke-width:0.264999;stroke-linecap:round;stroke-opacity:1"
       d="m 28.039361,180.70577 c 1.499877,0.24551 3.026129,0.0807 4.535099,0.11339 0.232744,-0.18136 -0.482165,-0.20267 -0.653783,-0.23569 -0.391546,-0.0331 -0.782922,-0.0675 -1.174953,-0.0952 0.481664,-0.004 1.294663,0.003 1.570658,-0.01 -0.661323,0.008 -1.326384,-0.031 -1.980971,-0.0908 -0.765208,0.10611 -1.531551,0.2114 -2.29605,0.318 z" />
    <path
       id="path116"
       style="fill:#d40000;fill-opacity:1;stroke:#d40000;stroke-width:0.264999;stroke-linecap:round;stroke-opacity:1"
       d="m 29.497194,184.83004 c 1.15061,-0.42089 2.361641,-0.65835 3.495996,-1.12627 0.207259,-0.84275 -1.079481,-0.23972 -1.53287,-0.36953 -1.548412,0.11595 -2.996178,0.71732 -4.468192,1.16217 0.829886,0.14223 1.671436,0.21432 2.505066,0.33363 z" />
    <path
       id="path118"
       style="fill:#d40000;fill-opacity:1;stroke:#d40000;stroke-width:0.264999;stroke-linecap:round;stroke-opacity:1"
       d="m 35.291985,175.67557 c 2.588126,0.18103 5.130306,0.95585 7.74512,0.71501 0.779317,-0.0987 2.090019,-0.0247 2.507968,-0.49119 -0.715192,-0.63767 -1.872666,-0.30326 -2.731855,-0.16392 -0.498754,0.15978 -2.399634,0.32441 -0.964756,0.27225 0.532448,-4.1e-4 1.078418,-0.0149 0.222203,-0.0368 -2.195623,-0.13337 -4.400172,-0.86788 -6.595293,-0.32405 l -0.183387,0.0287 z" />
    <path
       id="path120"
       style="fill:#d40000;fill-opacity:1;stroke:#d40000;stroke-width:0.264999;stroke-linecap:round;stroke-opacity:1"
       d="m 38.788535,176.28902 c -0.122729,1.06042 -0.490851,2.07375 -1.092239,2.95539 -0.405286,0.67377 -0.893531,1.31326 -1.526516,1.78872 0.211512,0.84403 1.321292,0.64749 1.971823,0.59922 0.930019,0.0758 1.742876,-0.49773 2.107393,-1.33151 0.501921,-0.91637 0.542278,-1.98955 0.550359,-3.00197 0.301407,-0.68856 -0.240462,-1.29823 -0.955989,-1.00458 -0.351497,-0.002 -0.704128,-0.009 -1.054831,-0.005 z" />
    <path
       id="path122"
       style="fill:#d40000;fill-opacity:1;stroke:#d40000;stroke-width:0.264999;stroke-linecap:round;stroke-opacity:1"
       d="m 42.704601,175.9022 c -0.0536,1.44161 -0.388794,3.009 0.338214,4.3411 0.394394,0.4309 1.213952,0.78201 1.697156,0.68473 0.280349,-0.37058 0.191579,-0.90644 -0.184547,-1.26657 -0.631031,-1.12849 -0.630615,-2.50027 -0.396397,-3.74158 -0.484801,-0.006 -0.969657,-0.0118 -1.454426,-0.0177 z" />
    <path
       id="path124"
       style="fill:#d40000;fill-opacity:1;stroke:#d40000;stroke-width:0.264999;stroke-linecap:round;stroke-opacity:1"
       d="m 37.542221,185.27032 c 3.584266,-0.72093 7.238951,-1.01299 10.887355,-1.15499 -1.956422,-0.55833 -4.336193,-0.49013 -6.5816,-0.24735 -2.303562,0.2118 -4.588541,0.58612 -6.861865,1.00804 0.821011,0.31144 1.715336,0.18181 2.55611,0.3943 z" />
    <path
       id="path126"
       style="fill:#d40000;fill-opacity:1;stroke:#d40000;stroke-width:0.264999;stroke-linecap:round;stroke-opacity:1"
       d="m 39.286709,189.23562 c -0.953105,1.06119 -2.124091,1.88771 -3.219343,2.79073 0.351664,1.20406 2.039464,0.34227 2.952052,0.62524 2.392851,-0.0516 4.770262,-0.35914 7.159742,-0.4723 -1.780966,-0.57043 -3.662155,-0.42857 -5.485145,-0.1864 -0.816736,0.13233 -2.747339,0.16672 -2.820513,0.19292 0.585159,0.002 2.627277,0.0338 1.185081,-0.0319 0.809975,-0.80735 2.604928,-1.77971 2.550677,-2.76632 -0.775313,-0.0314 -1.549112,-0.091 -2.322551,-0.15198 z" />
    <path
       id="path128"
       style="fill:#d40000;fill-opacity:1;stroke:#d40000;stroke-width:0.264999;stroke-linecap:round;stroke-opacity:1"
       d="m 43.606352,189.51124 c -0.08696,2.26246 -0.482024,4.49972 -0.58569,6.761 -0.313038,0.75215 0.459217,1.05629 1.030964,0.85384 0.657412,0.0409 1.946058,0.268 1.542489,-0.78735 -0.275618,-1.74051 0.08358,-3.49432 0.135558,-5.24021 -0.0098,-0.73736 0.371231,-1.9456 -0.778654,-1.58902 -0.448116,4.2e-4 -0.897162,0.002 -1.344667,0.002 z" />
    <path
       id="path130"
       style="fill:#000000;stroke:#000000;stroke-width:0.264999;stroke-linecap:round"
       d="m 62.627671,208.03635 c 0.762509,-0.98287 1.39112,-2.05238 1.798585,-3.22693 0.563667,-1.26923 -1.374335,-0.47373 -2.025689,-0.92408 -1.216456,-0.36077 -0.648747,1.16653 -0.582608,1.82865 0.227276,2.28697 0.600741,4.56769 0.610581,6.87252 -0.572241,1.03873 -2.038859,0.5155 -2.946592,0.94686 -0.533287,1.12372 1.599483,0.7957 2.283703,0.69849 2.904556,-0.36568 5.650029,-1.46151 8.516561,-2.01464 -0.905349,-0.17554 -1.842746,-0.005 -2.719054,-0.36755 -1.157192,-0.33727 -2.19649,0.4993 -3.305295,0.70158 -1.59857,0.49319 -3.231882,0.92287 -4.907002,1.03772 1.039265,0.33192 2.41921,-0.17805 3.255819,0.11927 0.03543,0.82244 1.371892,-0.0887 1.940445,-0.0172 1.18324,-0.14873 0.86895,-1.36169 0.580847,-2.1385 -0.230458,-2.27053 -0.591665,-4.54736 -0.615081,-6.83038 0.287963,-1.53266 -1.485992,-0.31361 -2.313995,-0.58843 -1.060427,0.079 -0.02016,1.62988 -0.789289,2.30114 -0.400246,0.74301 -1.457013,1.72022 0.04966,1.5123 0.389471,0.0296 0.779036,0.0591 1.168409,0.0891 z" />
    <path
       id="path132"
       style="fill:#d40000;fill-opacity:1;stroke:#d40000;stroke-width:0.264999;stroke-linecap:round;stroke-opacity:1"
       d="m 25.327276,188.06788 c -1.409622,0.38617 -2.088729,2.44922 -0.993914,3.50024 1.044043,0.62654 2.319694,0.51425 3.485592,0.55883 0.576706,0.0383 0.884261,-0.51478 0.07975,-0.39706 -0.472749,0.0151 -1.060707,-0.2922 -0.23924,-0.28727 0.112104,-0.43024 -1.117454,-0.86355 -0.417931,-1.48921 0.573588,-0.50173 1.094799,-1.90587 -0.156142,-1.80401 -0.586529,0.034 -1.198615,0.1752 -1.758115,-0.0815 z" />
    <path
       id="path134"
       style="fill:#000000;fill-opacity:1;stroke:#000000;stroke-width:0.264999;stroke-linecap:round;stroke-opacity:1"
       d="m 12.394041,226.49446 c 1.656614,10.07979 2.369456,20.45126 0.274347,30.52416 -0.999323,8.77118 -1.701156,17.63627 -1.047341,26.44231 0.03902,3.33275 3.540256,2.7124 2.552475,-0.41795 -1.364863,-5.18327 -0.328512,-10.58712 -0.301405,-15.87296 0.197955,-6.91364 1.62492,-13.71493 2.129823,-20.58538 0.233119,-6.631 -0.699433,-13.25757 -1.701361,-19.7671 -0.422224,-0.60241 -1.308821,-0.27979 -1.906538,-0.32308 z" />
    <path
       id="path136"
       style="fill:#000000;fill-opacity:1;stroke:#000000;stroke-width:0.264999;stroke-linecap:round;stroke-opacity:1"
       d="m 9.7882664,281.86332 c 5.8874316,-0.39001 11.6824046,-1.43728 17.5025766,-2.2882 4.745758,-0.4569 9.518108,-0.43509 14.27981,-0.54188 2.038476,0.34542 8.686544,0.87818 12.524005,1.02794 6.940634,0.13471 13.860755,1.17406 20.801272,0.86893 -2.752229,-0.68733 -3.224295,0.0422 -1.956916,-0.32732 -10.527619,-0.51182 -21.060303,-1.15367 -31.568959,-1.89073 -8.6908,-0.18337 -17.403118,0.33075 -25.934742,2.03303 -1.5792,0.495 -7.8311039,0.31897 -7.0663676,0.93247 0.4748342,0.0489 0.9467014,0.12016 1.419321,0.18576 z" />
    <path
       id="path138"
       style="fill:#000000;fill-opacity:1;stroke:#000000;stroke-width:0.264999;stroke-linecap:round;stroke-opacity:1"
       d="m 72.946667,276.74938 c 2.129717,1.90957 4.748408,3.16112 7.39053,4.19088 0.477838,0.25916 -0.365257,-0.19986 -0.500488,0.2435 -2.003774,1.17594 -4.04317,2.29896 -5.985104,3.57334 -1.19185,0.55321 0.01342,1.85298 0.896493,1.17301 1.702825,-0.15226 2.849943,-1.54525 4.269917,-2.32339 1.405312,-0.82099 2.818196,-1.63278 4.282283,-2.34604 0.248262,-0.83997 -1.374509,-0.43562 -1.89015,-0.84595 -2.198834,-0.63069 -4.341084,-1.5985 -6.084787,-3.1027 -0.475687,-0.93303 -1.556105,-0.61941 -2.378694,-0.56265 z" />
    <path
       id="path140"
       style="fill:#000000;fill-opacity:1;stroke:#000000;stroke-width:0.264999;stroke-linecap:round;stroke-opacity:1"
       d="m 9.971744,231.25712 c 1.650157,-2.80185 3.232716,-5.68863 4.072643,-8.84971 0.661302,-0.9465 1.502128,-3.61539 -0.665138,-2.66082 -1.276848,1.11691 0.40397,3.16399 0.348713,4.71073 0.517235,2.13049 1.082691,4.30246 2.172259,6.21709 0.771055,1.21508 2.845729,0.33636 1.598507,-0.97423 -1.488921,-2.85945 -2.304333,-6.10801 -2.447814,-9.29631 -0.89763,-1.8956 -3.184288,-0.59222 -2.739356,1.22558 -0.387606,3.04745 -1.815701,5.86283 -3.3456384,8.48737 -1.0187404,1.04103 -0.3641418,1.19771 0.7952999,1.12851 l 0.2105245,0.0118 z" />
    <path
       id="path142"
       style="fill:#000000;fill-opacity:1;stroke:#000000;stroke-width:0.264999;stroke-linecap:round;stroke-opacity:1"
       d="m 12.348655,236.28944 c 0.738526,-0.13174 2.819268,-0.0994 2.627153,-0.13393 0.05511,0.16799 2.634831,0.15059 3.650825,0.14066 0.810523,0.005 1.718939,-0.0704 1.195686,-0.35121 1.672389,-0.19614 -1.83326,-0.13626 -2.365286,-0.18104 -2.603125,-0.051 -5.211505,-0.0774 -7.8094795,0.12358 0.9004025,0.13364 1.8005375,0.27004 2.7011015,0.40194 z" />
    <path
       id="path144"
       style="fill:#000000;fill-opacity:1;stroke:#000000;stroke-width:0.264999;stroke-linecap:round;stroke-opacity:1"
       d="m 5.2036847,236.38874 c 0.6454448,-1.15734 1.10972,-2.40528 1.710767,-3.58372 0.1362852,-0.85342 -1.2305064,-0.24148 -1.728794,-0.43704 -1.385754,-0.21643 -0.7428639,1.60076 -0.9987348,2.44388 -0.142395,1.51479 -0.086863,3.06053 -0.4149078,4.55087 0.082208,0.81866 -1.2717353,0.78415 -1.2969149,0.98144 1.344743,0.1558 2.7068928,0.4158 4.0567379,0.1622 1.4272603,-0.14239 2.8848673,-0.0278 4.2992779,-0.19787 -0.579028,-0.12453 -2.0383572,-0.17536 -2.078607,-0.10028 -0.3129433,-0.87477 -1.3812265,-0.35793 -2.0718142,-0.37494 -1.3691204,0.26317 -2.7706587,0.22163 -4.1463305,0.42651 0.5786514,0.46882 1.5811492,0.3102 2.3406078,0.42096 0.854621,0.15551 1.6553423,-0.51114 1.4405791,-1.40632 -0.056975,-2.20235 -0.1027228,-4.46914 0.555395,-6.59342 -0.3576385,-0.55205 -1.3252396,-0.0985 -1.91808,-0.33756 -1.2210787,-0.0366 -0.515987,1.7276 -1.0861839,2.4542 0.018868,0.51514 -1.0110607,1.18862 -0.6270723,1.49266 0.6528283,-0.0218 1.3101474,0.0737 1.9640747,0.0984 z" />
    <path
       id="path146"
       style="fill:#000000;fill-opacity:1;stroke:#000000;stroke-width:0.264999;stroke-linecap:round;stroke-opacity:1"
       d="m 67.936796,276.32481 c -0.226927,2.61607 -0.550598,5.2341 -0.546479,7.86158 0.108181,1.12699 1.815652,1.52116 2.439141,0.57516 0.4944,-0.94482 -0.05351,-2.04848 0.08566,-3.06447 -0.05717,-1.75538 -0.09386,-3.52655 0.204287,-5.26433 -0.71531,-0.1803 -1.457646,-0.032 -2.18261,-0.10794 z" />
    <path
       id="path148"
       style="fill:#000000;fill-opacity:1;stroke:#000000;stroke-width:0.264999;stroke-linecap:round;stroke-opacity:1"
       d="m 68.750547,290.58056 c 1.643339,-0.46415 2.50167,-2.07237 3.515499,-3.30525 0.280761,-0.48111 1.106054,-1.54057 0.0067,-1.2078 -0.944294,-0.15315 -2.223692,0.0649 -1.781753,1.29748 -0.02061,1.86174 0.02292,3.72452 -0.01453,5.58498 0.0022,1.46755 -1.354764,2.42304 -2.617892,2.83418 -0.897989,0.46093 0.810734,0.26113 1.128469,0.386 0.958378,0.0978 1.936928,0.23098 2.7873,-0.30746 0.787641,-0.30146 1.608385,-0.50358 2.429253,-0.69101 0.255439,-0.38608 -0.962792,-0.4047 -1.271732,-0.4299 -0.980483,-0.15008 -1.968504,-0.0707 -2.887202,0.31345 -0.843905,0.26449 -1.685357,0.54418 -2.491877,0.90954 0.755012,0.34716 1.639401,0.14548 2.43141,0.39513 0.930558,0.19691 1.641126,-0.49277 2.044912,-1.24636 0.694975,-0.83026 0.909123,-1.92728 0.806465,-2.98324 -0.134273,-1.89865 -0.254231,-3.83819 0.135759,-5.71506 -0.624004,-0.54147 -1.695979,-0.47725 -2.480988,-0.42775 -0.662606,0.86398 -0.728076,2.13968 -1.533931,2.95577 -0.440266,0.69187 -1.761148,1.25887 -2.109742,1.34583 0.634629,0.0972 1.269335,0.19445 1.903927,0.29147 z" />
    <path
       id="path170"
       style="fill:#0044aa;fill-opacity:1;stroke:#0044aa;stroke-width:0.264999;stroke-linecap:round;stroke-opacity:1"
       d="m 105.66049,263.08618 c 0.12612,1.67352 0.12367,3.35331 0.0993,5.03037 0.86738,0.58953 2.08863,0.0689 3.01172,-0.0665 0.69873,-1.19806 0.35932,-2.77002 0.91309,-4.07309 0.17895,-1.02301 0.8512,-2.198 1.46216,-2.7279 -0.64961,0.16134 -2.64641,-0.30584 -1.26137,0.60457 0.71792,1.20593 0.78126,2.70504 0.7771,4.07219 -0.47629,1.34068 0.63098,2.06593 1.82988,1.80475 1.49072,0.28013 1.30745,-1.30916 1.09938,-2.26939 -0.17999,-1.52588 -0.14808,-3.36268 -1.42606,-4.43411 -1.70277,-1.08936 -4.50921,-0.40848 -5.04792,1.68976 -0.61977,1.58757 -0.88368,3.29203 -1.17617,4.94677 0.50472,0.67636 2.2597,0.79567 2.7526,-0.0422 -0.14613,-1.26836 -0.30766,-2.58824 -0.19894,-3.89621 -0.045,-1.21759 -1.837,-0.37806 -2.65633,-0.6384 l -0.17838,-4.7e-4 z" />
    <path
       id="path174"
       style="fill:#0044aa;fill-opacity:1;stroke:#0044aa;stroke-width:0.264999;stroke-linecap:round;stroke-opacity:1"
       d="m 119.77864,273.15711 c -0.80678,-3.59412 -0.69302,-7.3009 -1.06919,-10.94048 -1.07469,-1.37026 1.14996,-2.85584 1.24801,-2.5408 -1.12965,-0.0829 -1.13768,0.27095 -0.10897,0.53935 1.57565,1.27712 0.36992,3.54249 -1.0753,4.32087 -0.83904,2.41715 2.95957,0.91937 3.54868,-0.29785 1.49771,-1.4356 1.32305,-4.37623 -0.9824,-4.81462 -1.76394,-0.10682 -3.82276,-0.56887 -5.41154,0.42717 -1.26288,1.32687 -0.0559,3.2817 -0.27019,4.88271 0.1,2.36463 0.25545,4.76065 0.9781,7.03018 -0.11789,1.81353 1.98094,1.49751 3.1428,1.39347 z" />
    <path
       id="path176"
       style="fill:#0044aa;fill-opacity:1;stroke:#0044aa;stroke-width:0.264999;stroke-linecap:round;stroke-opacity:1"
       d="m 127.64509,268.45107 c 0.16302,-2.98836 -4.27101,-0.13489 -1.33262,0.94597 2.78335,1.00448 2.99924,-4.22916 0.0778,-3.40911 -2.48026,-0.12109 -1.71607,3.91984 0.53293,2.5496 l 0.35954,-0.0555 0.36239,-0.031 z" />
    <path
       id="path178"
       style="fill:#0044aa;fill-opacity:1;stroke:#0044aa;stroke-width:0.264999;stroke-linecap:round;stroke-opacity:1"
       d="m 130.63769,259.89903 c 0.26779,2.05978 0.38917,4.14419 0.31683,6.21972 -0.12363,0.5771 -1.93487,0.84097 -0.58431,0.58971 1.08875,-0.29857 2.69336,-0.14433 3.47383,-0.63516 -0.27386,-1.81977 0.57635,-3.60405 1.60196,-5.04633 0.57126,-0.35675 1.44358,-1.36032 0.18531,-1.27761 -1.26049,-0.35656 -2.47999,0.3131 -3.11072,1.40693 -1.03554,1.38509 -1.65692,3.0677 -1.81062,4.78778 0.52251,0.81329 1.67764,0.40727 2.44483,0.81761 1.48861,-0.11025 -0.11282,-1.70575 0.22851,-2.6176 -0.13961,-1.41939 -0.32368,-2.83712 -0.37418,-4.26505 -0.79048,0.007 -1.58096,0.0133 -2.37144,0.02 z" />
    <path
       id="path180"
       style="fill:#0044aa;fill-opacity:1;stroke:#0044aa;stroke-width:0.264999;stroke-linecap:round;stroke-opacity:1"
       d="m 139.54238,259.92016 c 1.74502,0.40467 2.09509,2.76821 1.43479,4.1788 0.0811,0.68837 2.38934,0.0504 2.3671,0.21335 -1.99905,-0.18812 -4.09473,-0.39056 -6.03555,0.2301 -1.65494,0.55742 -1.59553,3.24122 0.41392,2.97131 2.00448,-0.0742 4.14123,0.12997 5.94239,-0.946 1.39316,-0.26691 1.46907,-2.62436 0.01,-2.76143 -0.96812,-0.0153 -3.1607,-0.488 -2.07226,1.23432 0.50951,1.08019 1.12692,2.71392 2.6209,2.34901 0.90583,-6.9e-4 2.28013,-0.35504 0.99508,-1.15297 -0.69733,-1.06895 -0.96445,-3.04075 -2.6753,-2.67395 -1.82218,-0.10253 -0.4734,1.90387 -1.70711,2.49012 -0.53374,0.5091 -2.19391,0.74531 -2.26694,0.96023 0.74274,-0.11402 2.5702,0.21556 0.88383,-0.0718 -1.25853,-1.11241 0.80324,-2.21951 1.8089,-2.29608 -0.58786,0.0131 -2.96358,-0.10392 -1.2678,0.1028 1.22394,0.1867 2.75518,0.40606 3.82088,-0.26101 0.21626,-1.39047 -0.0378,-3.14633 -1.17204,-4.12386 -0.86851,-0.83148 -2.0414,-0.69656 -3.10035,-0.44292 z" />
    <path
       id="path182"
       style="fill:#0044aa;fill-opacity:1;stroke:#0044aa;stroke-width:0.264999;stroke-linecap:round;stroke-opacity:1"
       d="m 147.05732,260.666 c 0.23869,1.96583 0.57807,3.95206 0.33848,5.93537 0.51501,1.44018 2.37019,0.16823 3.35746,-0.01 0.4385,-1.16774 0.15205,-2.55541 0.85954,-3.69794 0.13666,-1.08563 1.79432,-2.13347 1.82153,-2.70595 -0.63233,0.096 -2.59846,-0.18735 -1.24113,0.71058 0.7743,1.18533 0.90375,2.62727 1.20354,3.95469 0.58384,1.06968 2.68488,1.36737 3.28753,0.24831 0.0488,-1.39181 -0.69767,-2.71511 -1.17086,-4.00628 -0.52709,-1.73339 -2.45566,-1.3118 -3.84657,-1.23777 -1.57535,-0.0387 -2.41574,1.59063 -3.11396,2.76652 -0.48182,1.18713 -1.1826,2.8521 -0.94298,3.93271 0.93227,-0.0288 2.69362,0.4382 3.11871,-0.37364 -0.45841,-1.33329 -0.49324,-2.76082 -0.83117,-4.13397 0.14457,-1.69575 -1.52877,-1.55915 -2.67168,-1.35193 l -0.16848,-0.0307 z" />
    <path
       id="path184"
       style="fill:#0044aa;fill-opacity:1;stroke:#0044aa;stroke-width:0.264999;stroke-linecap:round;stroke-opacity:1"
       d="m 159.48002,260.3029 c -1.25427,1.78246 -1.19989,5.52731 1.68059,5.44537 2.10977,0.34401 5.1484,0.005 5.73762,-2.47691 0.75402,-3.0516 -2.84343,-6.14751 -5.68892,-4.59745 -1.54677,0.296 -2.63407,4.01092 -0.26625,3.10498 1.6636,-1.44489 3.78278,-2.00194 5.84471,-2.45508 1.92384,-1.26248 1.34807,-3.82429 1.47983,-5.77185 0.33385,-1.87898 -0.21317,-4.413 -2.65671,-3.25526 -2.24517,0.91049 -1.01907,4.01368 -1.44165,5.9243 -0.0906,3.30206 0.0177,6.60905 -0.18131,9.90839 1.78094,0.36356 4.43052,0.25189 3.49098,-2.31315 -0.0312,-3.49005 -0.19562,-6.99141 0.0387,-10.47745 0.95171,-1.81785 -0.45083,-3.55178 -2.40152,-2.42265 -0.66182,1.23893 0.14549,3.05117 -0.16979,4.53525 0.0363,1.61524 -0.58343,3.75248 -2.55894,3.72013 -0.81811,0.0251 -2.6429,0.70618 -0.7136,0.73716 1.17402,0.68083 3.78348,-1.08576 1.36595,-0.75002 -1.05295,-0.18313 -1.78207,0.1606 -0.4642,0.74467 1.78221,1.47663 1.34071,4.68391 -1.09689,5.15991 -0.77992,0.274 3.56328,0.36728 1.05327,-0.20726 -2.04126,-1.08731 1.19043,-4.84795 -1.69382,-4.48995 -0.45296,-0.003 -0.90913,0.0104 -1.35803,-0.0631 z" />
    <path
       id="path186"
       style="fill:#0044aa;fill-opacity:1;stroke:#0044aa;stroke-width:0.264999;stroke-linecap:round;stroke-opacity:1"
       d="m 171.50878,260.43747 c -1.73415,0.74016 -2.74951,3.20755 -1.42669,4.75441 1.07086,1.01881 2.66575,0.47687 3.98434,0.59558 1.6,0.13063 3.32097,-0.34948 4.33557,-1.66008 0.82339,-0.92878 0.65063,-2.28777 -0.0199,-3.24737 -0.61255,-1.23135 -1.94201,-1.82263 -3.27703,-1.68335 -0.97623,0.0256 -1.96172,0.0945 -2.92326,0.23679 -0.7085,0.92992 1.24587,1.2629 1.81865,0.70452 0.5823,-0.0101 2.31167,-0.36103 0.83462,-0.33322 -0.54073,0.0474 -2.84541,-0.0963 -1.26662,0.029 1.67623,0.60633 2.2706,3.28327 0.6797,4.33282 -0.29395,0.51738 -2.2236,0.90235 -1.89178,1.04235 0.95693,-0.002 1.91375,0.0374 2.87079,0.042 -1.59928,0.23245 -2.62178,-1.86543 -1.57861,-3.05177 0.1546,-0.63544 1.65143,-1.23413 1.3803,-1.36644 -1.17335,-0.13176 -2.34676,-0.26338 -3.52007,-0.39527 z" />
    <path
       id="path188"
       style="fill:#0044aa;fill-opacity:1;stroke:#0044aa;stroke-width:0.264999;stroke-linecap:round;stroke-opacity:1"
       d="m 180.26375,260.19571 c 0.22679,2.10779 0.49901,4.27633 -0.0261,6.36316 1.0559,0.0501 2.63761,-0.13085 3.30328,-0.64791 0.0796,-1.81204 0.36819,-3.83497 1.89324,-5.02013 -0.59223,-0.28478 -2.85732,-0.2414 -1.68953,1.03359 0.4398,1.01232 0.36494,2.81091 0.0997,3.3585 1.25257,-0.50605 3.84142,0.0606 3.52684,-1.96739 -0.0403,-0.90655 1.40167,-2.33614 1.19138,-2.57583 -1.21267,-0.17003 -2.2977,0.004 -1.05905,1.12106 0.53769,1.10887 0.61625,2.34453 0.86461,3.52694 0.49286,1.35417 2.95247,1.49601 3.43577,0.0555 -0.20701,-1.6776 -0.65636,-3.47811 -1.84062,-4.742 -1.0399,-0.65604 -2.49618,-0.66026 -3.67672,-0.4163 -1.45976,0.82557 -1.77565,2.64966 -2.15708,4.14126 0.87722,0.27966 3.10119,0.89847 3.05462,-0.41889 -0.2586,-1.35379 -0.29193,-3.23878 -1.63425,-3.97088 -1.90154,-0.52645 -3.88013,0.86415 -4.42995,2.68225 -0.24063,1.16461 -1.52775,2.99971 0.0559,3.64601 0.85959,0.0118 3.13058,0.94375 2.50952,-0.80848 -0.51883,-1.70095 0.38961,-4.27729 -0.9874,-5.40688 -0.81055,-0.1093 -1.62416,0.15539 -2.43421,0.0465 z" />
    <path
       id="path190"
       style="fill:#0044aa;fill-opacity:1;stroke:#0044aa;stroke-width:0.264999;stroke-linecap:round;stroke-opacity:1"
       d="m 197.07217,267.47196 c 1.51861,-3.12559 -4.98417,-0.90028 -1.9796,0.83359 3.04611,1.62588 4.66385,-3.92941 0.85063,-3.49927 -2.246,-0.11466 -2.89352,3.79068 -0.1185,2.74217 0.41034,-0.0702 0.83047,-0.14272 1.24747,-0.0765 z" />
    <path
       id="path192"
       style="fill:#0044aa;fill-opacity:1;stroke:#0044aa;stroke-width:0.264999;stroke-linecap:round;stroke-opacity:1"
       d="m 201.23273,260.33611 c 0.25947,1.68206 0.16967,3.39007 0.0912,5.08249 -0.50195,0.78149 0.0266,1.79772 0.98816,1.33728 0.91304,0.12166 2.70887,0.78481 2.38308,-0.84038 -0.003,-2.22384 1.74496,-3.95363 3.51553,-5.05017 0.51165,-0.31346 1.17512,-0.70211 0.12686,-0.73144 -1.32792,-0.26214 -2.89648,-0.42307 -3.97772,0.56639 -1.87739,1.39337 -3.15621,3.6127 -3.29393,5.95918 0.56766,0.94376 1.7528,-0.10332 2.60851,0.15879 1.02172,0.29349 1.28527,-0.50123 0.93221,-1.32084 -0.13729,-1.67787 -0.087,-3.36393 -0.19679,-5.04321 -0.95452,-0.37475 -1.99853,0.0201 -2.99185,-0.12007 l -0.18528,0.002 z" />
    <path
       id="path198"
       style="fill:#0044aa;fill-opacity:1;stroke:#0044aa;stroke-width:0.264999;stroke-linecap:round;stroke-opacity:1"
       d="m 213.13443,261.38005 c 0.42803,-0.33154 1.81168,-0.46729 0.54012,-0.41036 -0.48561,0.054 -2.06729,-0.20498 -0.89454,0.38436 0.82256,1.05791 0.65373,2.53001 0.67881,3.79329 -0.17797,1.01966 -0.25781,2.75313 1.26005,2.01304 0.50919,-0.3105 2.52672,-0.23517 1.2537,-0.98901 -1.05121,-0.55836 -2.20682,-1.09067 -3.42316,-0.94308 -1.13931,-0.1702 -3.10949,-0.61809 -3.43848,0.93303 -0.20592,1.52499 1.36885,1.95935 2.56426,1.83303 1.14738,0.074 2.39284,0.0836 3.39514,-0.56452 -1.39283,-0.78921 -3.07334,-0.37089 -4.52103,0.0315 0.51161,0.0206 2.53138,-0.0542 2.72446,0.0403 -1.2951,0.001 -1.25377,-2.01412 0.10621,-1.86369 0.42027,-0.12101 1.27878,0.14423 0.33806,0.14442 -1.0618,0.0623 -2.76078,-0.0704 -3.47442,-0.0601 1.25015,-0.007 2.25668,0.7681 3.31733,1.3074 0.98558,0.0608 2.14366,0.57483 3.07464,0.11452 0.15956,-0.94376 -0.21327,-2.15319 -0.0616,-3.22035 0.006,-1.31417 -0.37538,-3.31656 -2.00147,-3.3924 -1.29679,-0.0253 -2.66088,-0.179 -3.89693,0.30616 -0.76777,0.4105 1.34032,0.32784 2.4588,0.54244 z" />
    <path
       id="path200"
       style="fill:#0044aa;fill-opacity:1;stroke:#0044aa;stroke-width:0.264999;stroke-linecap:round;stroke-opacity:1"
       d="m 217.73115,261.92541 c 0.23471,1.69104 0.38853,3.39706 0.36979,5.10566 -0.30881,1.50677 1.90978,0.65645 2.74039,0.77491 0.80015,-0.97647 0.33937,-2.51629 0.98726,-3.63884 0.024,-0.91534 1.51544,-2.06126 1.55797,-2.2787 -0.58568,0.0231 -2.54824,-0.13425 -1.10097,0.59466 0.96865,0.97396 0.72394,2.82347 2.15204,3.4023 0.85437,0.55997 2.09146,-0.35781 1.74718,-1.32935 -0.41883,-1.28094 -0.98216,-2.85779 -2.46962,-3.17288 -1.41828,-0.032 -3.33819,-0.187 -4.10432,1.30507 -0.92144,1.51474 -0.95535,3.34806 -1.58269,4.97413 0.87203,-0.16643 2.53049,0.55965 2.87483,-0.22892 -0.383,-1.30177 -0.31299,-2.68596 -0.50174,-4.01715 0.24145,-0.94857 -0.23756,-1.93542 -1.33631,-1.50114 -0.44459,0.003 -0.88932,0.007 -1.33381,0.0103 z" />
    <path
       id="path204"
       style="fill:#0044aa;fill-opacity:1;stroke:#0044aa;stroke-width:0.264999;stroke-linecap:round;stroke-opacity:1"
       d="m 232.50828,262.62647 c -1.9085,-0.087 -4.52729,-0.43549 -5.46085,1.71574 -1.03527,2.22002 1.40621,3.73999 3.38387,3.24009 1.91522,0.40308 4.27882,-0.96839 3.89104,-3.1384 0.0377,-1.81424 -2.3656,-2.27168 -3.38698,-1.50401 1.78028,0.82793 3.56293,-0.57935 3.29218,-2.49758 -0.0968,-1.53225 0.79626,-3.77879 -0.31205,-4.84751 -1.73864,-0.368 -2.46477,1.26055 -2.02688,2.73056 0.0839,2.61715 0.2194,5.27683 1.0374,7.78581 0.87083,0.91357 3.70959,0.41416 2.28494,-1.15964 -0.63846,-2.31775 -0.8021,-4.7553 -0.8857,-7.15214 0.41457,-1.44825 -0.25365,-2.40088 -1.80903,-2.15482 -1.43995,0.43833 -0.31961,2.36891 -0.65607,3.4766 -0.0415,1.30678 -0.28011,2.67173 -1.07104,3.74801 0.66387,0.20584 2.8856,0.21747 0.99495,0.2098 -1.34515,-0.12009 0.61103,1.38159 -0.27644,2.14214 -0.0276,1.02047 -2.06476,1.68395 -2.02276,1.891 0.57139,-0.10739 2.63959,0.15898 1.04306,-0.29193 -1.60766,-1.01176 -0.2984,-3.42222 1.27964,-3.66516 1.03442,-0.15276 -3.33794,0.10517 -1.19855,-0.24316 0.6365,-0.0742 1.26606,-0.18985 1.89927,-0.2854 z" />
    <path
       id="path206"
       style="fill:#0044aa;fill-opacity:1;stroke:#0044aa;stroke-width:0.264999;stroke-linecap:round;stroke-opacity:1"
       d="m 240.59772,255.26902 c -1.9184,2.30362 -3.59211,5.20329 -3.32689,8.30198 0.18477,1.56031 1.29747,3.10673 2.94177,3.29169 1.06584,0.5259 3.0103,-0.58428 1.26247,-1.40391 -1.31754,-1.45653 -0.93227,-3.67066 -0.34642,-5.3737 0.54982,-1.52438 1.38885,-2.92873 2.4043,-4.1795 0.0445,-0.95486 -2.22611,-0.29912 -2.93523,-0.63656 z" />
    <path
       id="path208"
       style="fill:#0044aa;fill-opacity:1;stroke:#0044aa;stroke-width:0.264999;stroke-linecap:round;stroke-opacity:1"
       d="m 248.32454,255.37703 c 1.58581,2.81507 2.81971,6.43522 1.22059,9.51214 -0.46607,1.09106 -2.62047,2.409 -0.29929,2.48505 1.43755,0.28807 2.93211,-0.11593 3.53871,-1.58174 1.63156,-2.49004 1.08067,-5.66828 -0.0479,-8.23821 -0.33622,-1.38428 -1.15676,-2.85673 -2.83691,-2.2614 -0.52239,0.0654 -1.05042,0.0371 -1.5752,0.0842 z" />
    <path
       id="path210"
       style="fill:#0044aa;fill-opacity:1;stroke:#0044aa;stroke-width:0.264999;stroke-linecap:round;stroke-opacity:1"
       d="m 25.697756,236.40682 c 1.559536,-0.003 3.168228,0.16105 4.674005,-0.34587 -0.03505,-0.53262 -1.222115,-0.20701 -1.669441,-0.44003 -0.941287,-0.19434 -1.899036,-0.14128 -2.811067,0.14756 -1.027127,0.18284 -2.074402,0.12815 -3.111815,0.17619 0.972775,0.15403 1.945525,0.30823 2.918318,0.46215 z" />
    <path
       id="path212"
       style="fill:#0044aa;fill-opacity:1;stroke:#0044aa;stroke-width:0.264999;stroke-linecap:round;stroke-opacity:1"
       d="m 37.346927,236.65001 c 1.838203,-0.59869 3.779605,-0.72524 5.6889,-0.93409 -0.900055,-0.18117 -1.826275,-0.19892 -2.710996,-0.4625 -1.851367,-0.22308 -3.645399,0.44928 -5.44232,0.78164 -1.225482,0.28907 0.553054,0.33793 0.967409,0.42362 0.499091,0.0631 0.998338,0.12497 1.497007,0.19133 z" />
    <path
       id="path214"
       style="fill:#0044aa;fill-opacity:1;stroke:#0044aa;stroke-width:0.264999;stroke-linecap:round;stroke-opacity:1"
       d="m 50.131908,236.73352 c 2.131193,0.0141 4.260487,-0.0914 6.389586,-0.17016 -0.810947,-0.57164 -1.933276,-0.3049 -2.872509,-0.52431 -1.629261,-0.004 -3.245658,0.29311 -4.878883,0.22824 -0.557152,-0.0129 -1.904855,0.0115 -0.63634,0.14922 0.666079,0.10542 1.332281,0.2106 1.998146,0.31701 z" />
    <path
       id="path216"
       style="fill:#0044aa;fill-opacity:1;stroke:#0044aa;stroke-width:0.264999;stroke-linecap:round;stroke-opacity:1"
       d="m 61.777556,236.7009 c 2.156984,0.0936 4.347822,0.3233 6.48098,-0.13388 0.281607,-0.0672 0.589604,-0.0785 0.85091,-0.20158 -0.241472,-0.0522 -0.500718,-0.0157 -0.749482,-0.03 -1.33926,-0.006 -2.679222,0.008 -4.018024,-0.009 -0.86004,0.0867 -1.708173,0.26005 -2.564384,0.3746 z" />
    <path
       id="path218"
       style="fill:#0044aa;fill-opacity:1;stroke:#0044aa;stroke-width:0.264999;stroke-linecap:round;stroke-opacity:1"
       d="m 67.511546,240.76935 c -5.75e-4,1.82747 -0.268112,3.65489 -0.156273,5.48023 0.357459,0.58666 1.202284,0.99407 1.800945,1.13075 0.488688,-0.51039 1.506517,-0.50624 1.495467,-1.38666 0.05069,-1.59534 -0.143849,-3.19432 -0.0084,-4.79092 0.176376,-0.78548 -1.048867,-0.26881 -1.551794,-0.42345 -0.526628,-0.003 -1.053425,-0.007 -1.579946,-0.01 z" />
    <path
       id="path220"
       style="fill:#0044aa;fill-opacity:1;stroke:#0044aa;stroke-width:0.264999;stroke-linecap:round;stroke-opacity:1"
       d="m 67.743686,254.80591 c -0.04781,0.90768 -0.232788,1.80614 -0.213466,2.71759 0.24489,0.39969 0.60453,0.84634 1.082885,0.93397 0.503453,-0.12218 1.017814,-0.4603 1.274245,-0.91822 0.28664,-0.79539 0.107895,-1.66546 0.252199,-2.48795 0.08892,-0.43991 -0.712871,-0.13019 -1.028145,-0.23039 -0.455895,-0.005 -0.911869,-0.0103 -1.367718,-0.015 z" />
    <path
       id="path222"
       style="fill:#0044aa;fill-opacity:1;stroke:#0044aa;stroke-width:0.264999;stroke-linecap:round;stroke-opacity:1"
       d="m 67.274714,266.07804 c 0.152332,1.60078 0.144781,3.25991 0.64318,4.79562 0.35495,0.37605 0.96203,1.17572 1.277282,1.12757 0.651538,-0.74375 1.134897,-1.65376 0.82984,-2.65742 -0.07421,-1.0379 -0.189671,-2.0728 -0.343784,-3.10185 -0.731926,-0.44947 -1.612986,-0.003 -2.406518,-0.16392 z" />
    <path
       id="path234"
       style="fill:#0044aa;fill-opacity:1;stroke:#0044aa;stroke-width:0.264999;stroke-linecap:round;stroke-opacity:1"
       d="m 22.995066,266.39402 c 1.290386,-4.53725 2.947798,-9.04375 3.254744,-13.78597 -3.137932,0.15933 -0.07237,3.08452 0.217842,4.62846 1.236974,2.69152 2.288591,5.53975 4.1043,7.90798 1.138131,1.14475 2.462663,-0.60644 1.095854,-1.40991 -2.214368,-3.41607 -3.544873,-7.29123 -5.362179,-10.91367 -1.445915,-0.61137 -2.649381,0.1109 -2.244759,1.68491 -0.519586,3.92099 -1.938385,7.67969 -2.935238,11.46295 0.209181,0.88292 1.251008,0.26346 1.869436,0.42525 z" />
    <path
       id="path236"
       style="fill:#0044aa;fill-opacity:1;stroke:#0044aa;stroke-width:0.264999;stroke-linecap:round;stroke-opacity:1"
       d="m 23.465225,262.01595 c 2.147832,0.17293 4.306352,0.25461 6.459939,0.15125 0.623318,-0.27874 -0.970044,-0.28394 -1.232609,-0.3955 -0.605947,-0.0546 -1.217415,-0.054 -1.822514,0.0112 0.704535,0.004 2.110515,-0.002 2.374091,0.004 -1.437618,0.037 -2.881356,-0.0519 -4.314976,0.009 -0.487951,0.0733 -0.9758,0.14733 -1.463931,0.21945 z" />
    <path
       id="path238"
       style="fill:#0044aa;fill-opacity:1;stroke:#0044aa;stroke-width:0.264999;stroke-linecap:round;stroke-opacity:1"
       d="m 34.288409,263.84758 c -1.262296,0.0768 -2.167292,1.82981 -0.924295,2.62448 0.861737,0.62251 2.562537,1.63238 1.579831,2.85545 -0.637658,0.74447 -1.679936,0.92563 -2.414733,1.49918 0.442361,0.82735 1.810532,0.39979 2.622613,0.39918 1.213827,-0.19906 2.512685,-0.95124 2.924628,-2.16852 0.213889,-1.32912 -1.049285,-2.22271 -2.051492,-2.81734 -0.951972,-0.46649 -0.400192,-1.69269 0.492915,-1.79938 1.041815,-0.40436 -0.926607,-0.3221 -1.2533,-0.46214 -0.325382,-0.0436 -0.650832,-0.0873 -0.976167,-0.13091 z" />
    <path
       id="path240"
       style="fill:#0044aa;fill-opacity:1;stroke:#0044aa;stroke-width:0.264999;stroke-linecap:round;stroke-opacity:1"
       d="m 38.556445,257.79561 c 0.834155,-0.11794 1.675815,-0.16689 2.515889,-0.22143 -0.231022,-0.089 -0.928205,-0.36321 -0.839697,-0.0722 0.431548,-0.25297 -0.646939,-0.19432 -0.878463,-0.2544 -1.114749,-0.13909 -2.224333,0.0791 -3.331251,0.18574 0.844487,0.12077 1.689144,0.24139 2.533522,0.36226 z" />
    <path
       id="path242"
       style="fill:#0044aa;fill-opacity:1;stroke:#0044aa;stroke-width:0.264999;stroke-linecap:round;stroke-opacity:1"
       d="m 38.067255,260.97516 c 0.967185,-0.171 1.941722,-0.31033 2.894264,-0.55442 -0.326018,-0.474 -0.994953,-0.3368 -1.4906,-0.43797 -0.922781,-0.087 -1.837832,0.0882 -2.722567,0.3339 -0.37781,0.10392 -1.210004,0.20442 -1.308907,0.28819 0.875936,0.12343 1.751878,0.24683 2.62781,0.3703 z" />
    <path
       id="path244"
       style="fill:#0044aa;fill-opacity:1;stroke:#0044aa;stroke-width:0.264999;stroke-linecap:round;stroke-opacity:1"
       d="m 49.453043,256.54406 c 1.22648,-1.64283 1.971142,-3.58741 2.745636,-5.46967 0.731075,-1.4654 -1.4243,-0.77779 -2.230647,-0.73537 -0.571152,1.12438 -0.14497,2.62346 -0.33407,3.90181 -0.02799,2.26448 0.143664,4.55818 -0.251338,6.79823 -0.34723,1.33052 -1.70794,1.93689 -2.944361,2.16329 -1.147492,0.23156 -0.18096,1.06612 0.560613,0.75528 2.13635,0.12273 4.136865,-0.7392 6.218481,-1.05811 0.51061,-0.15308 2.293059,-0.23049 0.98827,-0.60153 -1.438369,-0.2684 -2.944028,-0.25418 -4.335348,0.24581 -1.219812,0.33623 -2.462,0.58814 -3.705004,0.82332 0.811462,0.39066 2.638748,-0.72744 2.708259,0.30386 1.117797,-0.0352 2.398532,-0.96775 2.797051,-2.09948 0.485424,-1.63384 0.237513,-3.37136 0.266795,-5.0532 -0.01612,-1.93888 -0.08686,-3.92453 0.390084,-5.81409 -0.466232,-0.71937 -1.853165,-0.37954 -2.564145,-0.28496 -0.226285,1.13477 -0.240845,2.3264 -0.695611,3.42784 -0.144381,0.95656 -1.315481,1.84585 -1.289173,2.59412 0.558464,-0.005 1.116286,0.0686 1.674508,0.10285 z" />
    <path
       id="path246"
       style="fill:#000000;fill-opacity:1;stroke:#000000;stroke-width:0.264999;stroke-linecap:round;stroke-opacity:1"
       d="m 232.30017,147.8955 c 0.39827,15.97826 1.09583,32.02777 -0.84444,47.9382 -0.39076,9.26739 1.46818,18.5322 0.35534,27.7847 5.01458,0.56923 1.85908,-7.54753 2.44462,-10.73004 -0.95687,-8.13189 -1.05719,-16.32336 -0.14781,-24.46529 1.30631,-13.21428 0.2472,-26.47776 0.39463,-39.71401 0.76343,-1.69354 -1.64485,-0.37441 -2.20234,-0.81356 z" />
    <path
       id="path248"
       style="fill:#000000;fill-opacity:1;stroke:#000000;stroke-width:0.264999;stroke-linecap:round;stroke-opacity:1"
       d="m 229.9525,218.51019 c 9.45831,-2.03145 19.16269,-2.91929 28.80936,-1.9469 15.39257,1.12496 30.82434,3.01997 46.27864,1.84686 -3.33422,0.5015 5.90159,-0.61537 -0.1588,-0.44738 -11.2539,0.76253 -22.53112,0.25738 -33.74271,-0.90325 -13.55007,-1.31005 -27.329,-2.08724 -40.75248,0.73338 -1.06536,0.42148 -4.83532,0.40055 -0.43401,0.71729 z" />
    <path
       id="path250"
       style="fill:#000000;fill-opacity:1;stroke:#000000;stroke-width:0.264999;stroke-linecap:round;stroke-opacity:1"
       d="m 299.47441,214.82168 c 2.89615,1.10775 5.77054,2.29942 8.76322,3.12324 0.28198,0.20609 1.20737,0.27298 0.36332,0.25494 -2.17525,0.94502 -4.29858,2.02267 -6.3977,3.1342 -0.60623,1.17007 1.34436,0.92886 1.98264,0.7455 1.5811,-0.31991 2.80244,-1.46735 4.24057,-2.12885 1.12091,-0.59891 2.27776,-1.14155 3.49198,-1.52374 0.39377,-0.90914 -1.54057,-0.54125 -2.09721,-0.94571 -2.82176,-0.73063 -5.54475,-1.78906 -8.22934,-2.91391 -0.70584,0.0847 -1.41164,0.1697 -2.11748,0.25433 z" />
    <path
       id="path252"
       style="fill:#000000;fill-opacity:1;stroke:#000000;stroke-width:0.264999;stroke-linecap:round;stroke-opacity:1"
       d="m 230.63137,150.05114 c 1.67913,-1.8088 3.13917,-3.81279 4.31278,-5.98467 0.2549,-0.60406 1.45384,-1.76338 0.10737,-1.48218 -0.84464,-0.0917 -2.01197,0.13517 -1.45409,1.21462 0.38736,2.91891 1.06388,5.80706 2.11506,8.56022 0.47563,0.75864 1.73309,1.0279 2.3913,0.37582 0.14813,-0.88663 -0.73613,-1.57558 -0.94192,-2.42076 -0.98783,-2.32343 -1.40481,-4.87663 -1.28703,-7.39179 -0.64643,-0.49626 -2.25184,-1.32097 -2.6541,-0.10928 -0.65298,2.72278 -2.51207,4.95925 -4.37348,6.95826 0.40057,0.38021 1.24727,0.11461 1.78411,0.27976 z" />
    <path
       id="path332"
       style="fill:#d40000;fill-opacity:1;stroke:#d40000;stroke-width:0.264999;stroke-linecap:round;stroke-opacity:1"
       d="m 155.74324,169.31104 c -0.51454,2.00618 -1.45824,3.87872 -2.59554,5.60084 -0.49857,-0.0716 -0.81105,0.67052 -0.18304,0.72637 0.47595,-0.05 0.95745,-0.0275 1.44044,-0.01 3.09753,0.076 6.19505,-0.0403 9.29104,-0.12725 -2.08849,-0.62912 -4.28287,-0.25507 -6.41976,-0.23145 -0.24499,0.005 -0.98161,-0.0139 -0.92719,0.009 0.29591,0.003 0.8367,-0.0151 0.99059,0.002 -0.70113,0.0673 -1.41914,-0.20121 -2.10801,-0.008 -0.13969,0.36069 0.1696,-0.3547 0.21782,-0.49872 0.56015,-1.26029 1.1939,-2.4913 1.61835,-3.80793 0.092,-0.48714 0.52503,-1.10784 0.36881,-1.52141 -0.5244,-0.29484 -1.13893,-5.7e-4 -1.69351,-0.13384 z" />
    <path
       id="path334"
       style="fill:#d40000;fill-opacity:1;stroke:#d40000;stroke-width:0.264999;stroke-linecap:round;stroke-opacity:1"
       d="m 159.16671,173.04342 c 0.0333,3.11883 -0.45893,6.22998 -0.22555,9.34886 -0.39009,1.22106 1.44673,1.38358 2.21105,1.0125 0.65675,-1.09699 -0.0985,-2.53604 0.15113,-3.7786 2.1e-4,-2.09285 0.24519,-4.20317 0.0267,-6.28549 -0.41822,-0.78836 -1.50795,-0.0693 -2.16332,-0.29727 z" />
    <path
       id="path336"
       style="fill:#d40000;fill-opacity:1;stroke:#d40000;stroke-width:0.264999;stroke-linecap:round;stroke-opacity:1"
       d="m 168.41365,181.96324 c 2.08164,-3.30735 3.82766,-6.87362 4.73879,-10.69012 -1.1152,-0.47192 -1.80401,0.52871 -1.11814,1.44397 0.52245,2.47326 1.25203,4.92438 2.25703,7.23556 0.45983,1.31025 2.75009,0.88739 1.73574,-0.54908 -1.00417,-1.53005 -1.55831,-3.29404 -2.08898,-5.03484 -0.55242,-1.04425 -0.042,-2.77742 -1.24621,-3.31056 -1.75715,-0.47301 -1.43461,1.76966 -1.9506,2.7786 -1.00408,2.82384 -2.36487,5.52458 -4.01076,8.02874 0.56103,0.0326 1.12215,0.0651 1.68313,0.0977 z" />
    <path
       id="path338"
       style="fill:#d40000;fill-opacity:1;stroke:#d40000;stroke-width:0.264999;stroke-linecap:round;stroke-opacity:1"
       d="m 168.76921,177.74299 c 2.11758,0.1482 4.28271,0.47175 6.37692,-0.0427 -0.33292,-0.238 -1.23381,-0.0436 -1.78216,-0.1478 -0.90405,-0.0126 -1.81368,-0.16358 -2.71338,-0.0898 -0.62711,0.0935 -1.25423,0.1872 -1.88138,0.28034 z" />
    <path
       id="path340"
       style="fill:#d40000;fill-opacity:1;stroke:#d40000;stroke-width:0.264999;stroke-linecap:round;stroke-opacity:1"
       d="m 181.64043,179.98956 c -1.19495,-0.10513 -2.43518,-0.21441 -3.59815,0.15189 -0.68119,0.20932 -1.29883,0.70961 -1.51417,1.40661 -0.16107,0.48935 -0.21457,1.03522 -0.0117,1.52159 0.3465,0.87125 1.10245,1.58248 2.00079,1.85757 0.54552,0.17237 1.19897,0.0625 1.58612,-0.3816 0.12421,-0.11331 0.20479,-0.22989 -0.0142,-0.26069 -0.59039,-0.2508 -0.97601,-0.86429 -0.9949,-1.49879 -0.0429,-0.90938 0.44584,-1.87905 1.2981,-2.25715 0.23051,-0.0807 -0.29529,-0.0535 -0.40838,-0.0937 -0.13876,0.003 -0.606,-0.10013 -0.23976,-0.16591 0.6134,-0.11546 1.24509,-0.1179 1.85301,-0.26281 z" />
    <path
       id="path342"
       style="fill:#000000;fill-opacity:1;stroke:#000000;stroke-width:0.264999;stroke-linecap:round;stroke-opacity:1"
       d="m 152.62462,188.58851 c 10.87802,0.35338 21.80696,1.03369 32.66931,-0.077 -1.48938,0.18748 0.59723,-0.17975 0.0154,-0.46483 -4.19558,-0.0917 -8.36008,0.55946 -12.54861,0.67657 -2.46206,0.0563 -6.93892,-0.13196 -10.1407,-0.26978 -4.09797,-0.17354 -8.20087,-0.34044 -12.30292,-0.22043 0.76917,0.11845 1.5385,0.23726 2.30753,0.35547 z" />
    <path
       id="path344"
       style="fill:#0044aa;fill-opacity:1;stroke:#0044aa;stroke-width:0.264999;stroke-linecap:round;stroke-opacity:1"
       d="m 161.73741,204.0493 c 2.87117,-2.98967 5.1807,-6.50781 6.91516,-10.26474 0.29048,-1.76975 -3.02804,-1.81172 -2.00839,0.15652 0.47302,2.53954 0.2847,5.22563 1.32453,7.64077 -0.2441,1.51225 2.65312,3.39936 2.92939,1.54323 -1.75255,-2.7632 -1.93611,-6.12796 -2.02735,-9.30519 -1.16919,-1.8821 -3.40299,0.0347 -3.31684,1.72518 -1.51569,2.87619 -3.52613,5.46228 -5.29283,8.18746 0.13969,0.65361 1.07397,0.0465 1.47633,0.31677 z" />
    <path
       id="path346"
       style="fill:#0044aa;fill-opacity:1;stroke:#0044aa;stroke-width:0.264999;stroke-linecap:round;stroke-opacity:1"
       d="m 165.99892,200.08525 c 1.38463,-0.0576 2.76868,-0.12898 4.15187,-0.2145 -0.69366,-0.28104 -1.47022,-0.26825 -2.20018,-0.40867 -1.29628,-0.13715 -2.58786,0.12549 -3.88356,0.16907 -0.24538,0.0281 -1.05465,0.0345 -0.37253,0.0993 0.7684,0.11642 1.53621,0.23721 2.3044,0.35476 z" />
    <path
       id="path348"
       style="fill:#0044aa;fill-opacity:1;stroke:#0044aa;stroke-width:0.264999;stroke-linecap:round;stroke-opacity:1"
       d="m 174.40412,200.77409 c -0.8662,0.17227 -1.70394,1.24105 -0.85229,1.97125 0.50122,0.49464 1.67072,1.35925 0.7777,2.0359 -0.59665,0.44103 -1.37883,0.49417 -2.02088,0.81444 0.53552,0.21304 1.18818,0.23091 1.77273,0.34157 0.93643,0.0891 2.09538,0.28663 2.77874,-0.53537 0.76233,-0.80577 0.21045,-1.99141 -0.63917,-2.46928 -0.72416,-0.34719 -1.09326,-1.36727 -0.11601,-1.65283 1.01564,-0.32002 -0.60635,-0.32175 -0.93443,-0.40713 -0.25546,-0.0329 -0.51093,-0.0657 -0.76639,-0.0985 z" />
    <path
       id="path350"
       style="fill:#000000;fill-opacity:1;stroke:#000000;stroke-width:0.264999;stroke-linecap:round;stroke-opacity:1"
       d="m 145.46433,186.04544 c 0.89513,-0.17027 3.04157,-0.086 2.00507,-0.30028 2.06123,-0.69245 -1.52386,-0.62605 -2.27303,-0.50555 -0.73352,0.0556 -4.14553,0.2386 -1.71488,0.53366 0.65918,0.099 1.3332,0.11788 1.98284,0.27217 z" />
    <path
       id="path352"
       style="fill:#000000;fill-opacity:1;stroke:#000000;stroke-width:0.264999;stroke-linecap:round;stroke-opacity:1"
       d="m 144.48178,190.45394 c 1.14782,0.007 4.3713,0.79567 4.04199,-0.34748 -1.67699,-0.27081 -4.9594,-0.35224 -5.77246,0.10373 0.57522,0.0923 1.16596,0.0874 1.73047,0.24375 z" />
    <path
       id="path354"
       style="fill:#d40000;fill-opacity:1;stroke:#d40000;stroke-width:0.264999;stroke-linecap:round;stroke-opacity:1"
       d="m 126.53123,186.911 c -0.23262,-0.67214 1.93692,-1.7345 0.53129,-1.69062 -0.0832,0.96623 1.54543,1.44387 2.19134,2.15034 1.59375,0.76994 3.51132,0.76134 5.18773,0.28518 0.89244,-0.38372 3.09824,-1.19938 1.94715,-2.40479 -1.43779,-0.67984 -2.91524,0.67495 -4.03596,1.48119 -0.53262,0.31245 -1.30021,0.71518 -0.18775,0.70416 0.67202,-0.0727 1.98733,0.0508 0.52875,-0.11929 -1.85305,-0.42183 -3.19534,-1.91633 -4.91057,-2.61114 -1.28916,-0.40736 -3.51974,0.91192 -3.04119,2.14418 0.58393,0.21403 1.20507,-0.15394 1.78921,0.0608 z" />
    <path
       id="path356"
       style="fill:#d40000;fill-opacity:1;stroke:#d40000;stroke-width:0.264999;stroke-linecap:round;stroke-opacity:1"
       d="m 128.61609,186.9138 c -0.24675,2.12083 -1.19842,4.24804 -2.99752,5.49019 -0.91271,0.78307 0.99922,0.90086 1.56263,0.83137 1.12552,0.24001 2.14644,-0.54113 2.59834,-1.52248 0.87221,-1.4045 1.01458,-3.09263 1.31316,-4.67209 -0.6621,-0.24018 -1.58361,-0.0364 -2.34825,-0.12491 l -0.12836,-0.002 z" />
    <path
       id="path358"
       style="fill:#d40000;fill-opacity:1;stroke:#d40000;stroke-width:0.264999;stroke-linecap:round;stroke-opacity:1"
       d="m 132.66561,187.26628 c -0.54867,1.55273 -0.80908,3.35311 -0.0224,4.87434 0.20853,0.84824 1.0368,1.28288 1.86474,1.15944 0.61076,0.13565 1.95338,-0.17454 1.1892,-0.96572 -0.53534,-0.57689 -0.7797,-1.35303 -0.93902,-2.10962 -0.14789,-0.94292 0.006,-1.91992 0.37372,-2.79629 -0.80701,-0.1945 -1.6474,-0.0684 -2.46619,-0.16215 z" />
  </g>
</svg>
