<?xml version="1.0" encoding="UTF-8" standalone="no"?>
<svg
   xmlns:dc="http://purl.org/dc/elements/1.1/"
   xmlns:cc="http://creativecommons.org/ns#"
   xmlns:rdf="http://www.w3.org/1999/02/22-rdf-syntax-ns#"
   xmlns:svg="http://www.w3.org/2000/svg"
   xmlns="http://www.w3.org/2000/svg"
   xmlns:sodipodi="http://sodipodi.sourceforge.net/DTD/sodipodi-0.dtd"
   xmlns:inkscape="http://www.inkscape.org/namespaces/inkscape"
   width="1200"
   height="600"
   viewBox="0 0 317.5 158.75"
   version="1.1"
   id="svg8"
   inkscape:version="1.0.1 (3bc2e813f5, 2020-09-07)"
   sodipodi:docname="skl-pi-euclid.svg">
  <defs
     id="defs2" />
  <sodipodi:namedview
     id="base"
     pagecolor="#ffffff"
     bordercolor="#666666"
     borderopacity="1.0"
     inkscape:pageopacity="0.0"
     inkscape:pageshadow="2"
     inkscape:zoom="1.4"
     inkscape:cx="607.52705"
     inkscape:cy="296.85749"
     inkscape:document-units="mm"
     inkscape:current-layer="layer1"
     showgrid="false"
     units="px"
     inkscape:window-width="1920"
     inkscape:window-height="1061"
     inkscape:window-x="0"
     inkscape:window-y="19"
     inkscape:window-maximized="0"
     inkscape:document-rotation="0"
     inkscape:snap-global="false" />
  <metadata
     id="metadata5">
    <rdf:RDF>
      <cc:Work
         rdf:about="">
        <dc:format>image/svg+xml</dc:format>
        <dc:type
           rdf:resource="http://purl.org/dc/dcmitype/StillImage" />
        <dc:title />
      </cc:Work>
    </rdf:RDF>
  </metadata>
  <g
     inkscape:label="Layer 1"
     inkscape:groupmode="layer"
     id="layer1"
     transform="translate(0,-138.25001)">
    <path
       id="path132"
       style="fill:#008000;stroke:#008000;stroke-width:0.264999;stroke-linecap:round"
       d="m 18.855635,204.41776 c 11.438246,0.88874 22.900471,-1.36096 34.331288,0.21482 22.820223,0.14351 45.688523,0.11124 68.470307,-1.33789 5.52861,-1.34527 18.24971,0.13233 19.74943,-1.14397 -16.78125,-0.58115 -33.41387,2.33908 -50.191427,1.90813 -17.02161,0.21971 -34.066325,0.77447 -51.042994,-0.66582 -7.09742,0.82723 -14.178243,0.84265 -21.316604,1.02473 z" />
    <path
       id="path136"
       style="fill:#0044aa;stroke:#0044aa;stroke-width:0.264999;stroke-linecap:round"
       d="m 19.738045,204.54365 c 0.97376,-11.75076 4.299938,-25.25116 15.401981,-31.39227 12.8401,-9.86426 28.9172,-15.69496 45.202792,-13.81053 11.805211,1.17608 23.881522,2.27987 35.191842,5.89501 9.16416,6.00157 21.32838,12.79812 22.50057,24.865 -0.67419,6.18956 4.7352,18.68924 3.50516,5.81511 -0.82633,-16.84108 -16.2277,-29.11721 -31.37356,-33.39295 -21.346459,-2.42012 -45.297818,-8.84804 -64.957855,3.20367 -10.01135,5.64232 -22.252681,11.20554 -24.603278,23.81305 -0.166132,4.38553 -5.225204,12.12362 -0.867652,15.00391 z" />
    <path
       id="path138"
       style="fill:#008000;fill-opacity:1;stroke:#008000;stroke-width:0.264999;stroke-linecap:round;stroke-opacity:1"
       d="m 76.139256,201.23951 c -0.135274,1.89582 -0.333377,3.78633 -0.496863,5.67977 -0.474945,0.79712 0.437451,1.42596 1.175623,1.20356 0.728821,0.15205 1.638121,-0.29747 1.231244,-1.13664 -0.149656,-1.68733 -0.127306,-3.39122 -0.02554,-5.08039 0.281678,-1.05483 -0.995866,-0.54021 -1.550049,-0.66301 -0.111468,-0.001 -0.223243,-0.002 -0.334412,-0.003 z" />
    <path
       id="path140"
       style="fill:#008000;stroke:#008000;stroke-width:0.264999;stroke-linecap:round"
       d="m 76.472221,213.32575 c 0.0028,1.99094 -0.405911,3.95051 -0.557823,5.92911 0.0816,0.85874 1.275193,0.66944 1.898566,0.68025 0.684816,0.0427 1.275119,-0.41632 1.023443,-1.13483 -0.07862,-1.64683 0.02807,-3.29475 -0.0472,-4.9417 0.201836,-0.85641 -0.863029,-0.42843 -1.340817,-0.5317 -0.325366,-9.3e-4 -0.650954,-7.7e-4 -0.976171,-0.001 z" />
    <path
       id="path142"
       style="fill:#008000;stroke:#008000;stroke-width:0.264999;stroke-linecap:round"
       d="m 76.991918,216.32926 c 7.292737,0.93223 14.580506,-1.12705 21.89563,-0.31157 14.533742,0.34983 29.100962,0.26662 43.595552,-0.97443 -4.11456,0.26093 2.37212,-0.44213 -1.28351,-0.44611 -8.92868,0.60074 -17.86583,1.24881 -26.82618,1.15516 -10.94239,0.32299 -21.942202,-1.12811 -32.83232,0.45946 -1.50129,-0.13716 -3.066733,-0.20852 -4.549172,0.11749 z" />
    <path
       id="path144"
       style="fill:#008000;stroke:#008000;stroke-width:0.264999;stroke-linecap:round"
       d="m 141.54943,209.63487 c 0.29782,2.96857 0.19437,5.96192 4.3e-4,8.93389 0.41365,0.73904 1.42474,0.60238 2.11667,0.44548 0.76856,-0.44298 0.35993,-1.43043 0.39252,-2.13666 -0.10457,-2.3629 -0.17744,-4.74892 -0.51429,-7.08307 -0.48757,-0.42731 -1.21994,-0.057 -1.8167,-0.16218 -0.0594,0.001 -0.11982,9.8e-4 -0.17863,0.003 z" />
    <path
       id="path150"
       style="fill:#008000;stroke:#008000;stroke-width:0.264999;stroke-linecap:round"
       d="m 109.6998,222.97473 c 1.11988,-0.6386 1.77867,-1.82853 2.18651,-3.01135 0.54077,-0.51454 -0.0273,-1.15024 -0.58701,-0.71677 -1.21375,-0.0352 -0.65989,1.15534 -0.57501,1.89638 0.24551,1.36885 0.39481,2.76284 0.37216,4.1514 -0.19188,1.00492 -1.56874,0.6381 -2.32,0.90826 -0.3455,-0.006 -1.277,0.21857 -0.36563,0.24517 1.31093,0.19609 2.63615,0.49158 3.96056,0.22301 1.58393,-0.17885 3.1713,-0.36957 4.75353,-0.53744 -0.76749,-0.1444 -1.5605,-0.0843 -2.30353,-0.35488 -1.17393,-0.27985 -2.33279,0.19627 -3.50233,0.27141 -1.29653,0.16682 -2.60047,0.28704 -3.90796,0.3133 1.25558,0.19362 2.5263,0.38604 3.79498,0.41463 0.68877,-0.27383 2.43368,-0.10146 2.11176,-1.22139 -0.47388,-0.79744 -0.37977,-1.74826 -0.62954,-2.61903 -0.23766,-1.13497 -0.51728,-2.26679 -0.60881,-3.42595 -0.56899,-0.21794 -1.89499,-0.77011 -1.58117,0.30665 -0.0419,1.04134 -0.66729,2.01339 -1.44129,2.67673 -0.35112,0.25086 -0.84643,0.39578 -0.13008,0.39285 0.25763,0.0289 0.51526,0.0579 0.77286,0.087 z" />
    <path
       id="path152"
       style="fill:#0044aa;stroke:#0044aa;stroke-width:0.264999;stroke-linecap:round"
       d="m 63.833504,147.67799 c 4.317427,1.58568 8.966245,0.21367 13.039443,-1.42006 -2.391764,-0.20662 0.982897,1.38397 1.764153,1.33489 2.566374,-0.10824 -0.882909,-1.68143 -1.815413,-1.669 -2.551273,-0.31135 -4.774647,1.37319 -7.22739,1.77541 -0.41711,0.1153 -2.52165,0.35605 -1.113514,0.32106 -1.580545,-0.11447 -3.049656,-0.84536 -4.647279,-0.3423 z" />
    <path
       id="path154"
       style="fill:#0044aa;stroke:#0044aa;stroke-width:0.264999;stroke-linecap:round"
       d="m 67.827445,148.10073 c 0.442535,1.71626 0.442173,3.65098 -0.524948,5.19665 -0.145343,0.55196 -1.24469,1.29137 -0.401017,1.70424 0.69613,0.12896 1.440679,0.12929 2.131014,-0.0369 0.629531,-0.25646 0.816933,-1.00143 1.053759,-1.57573 0.346946,-1.08105 0.238813,-2.23782 0.193629,-3.35364 -0.08648,-0.63538 -0.123371,-1.3332 -0.415883,-1.89775 -0.603476,-0.24027 -1.29481,0.0224 -1.936127,-0.04 l -0.100427,0.003 z" />
    <path
       id="path156"
       style="fill:#0044aa;stroke:#0044aa;stroke-width:0.264999;stroke-linecap:round"
       d="m 71.882709,147.00095 c -1.110296,2.11938 -1.481568,4.69291 -0.772295,6.99858 0.128766,0.79199 0.725355,1.26786 1.524971,1.17564 0.537716,0.0483 1.644021,0.0813 1.711497,-0.55439 -0.866295,-1.05683 -0.868555,-2.53963 -0.809606,-3.84249 0.07712,-1.22112 0.419918,-2.43577 1.049605,-3.48886 -0.659951,-0.41507 -1.537633,-0.0842 -2.287069,-0.26723 -0.139035,-0.007 -0.278099,-0.0141 -0.417103,-0.0212 z" />
    <path
       id="path158"
       style="fill:#008000;fill-opacity:1;stroke:#008000;stroke-width:0.264999;stroke-linecap:round;stroke-opacity:1"
       d="m 79.556109,203.74403 c 3.826378,-5.25942 9.47608,-8.82298 13.392649,-14.02252 5.399309,-7.09889 11.183722,-13.98029 18.212012,-19.53941 2.21439,-0.75145 6.56029,-6.82423 1.68961,-3.91904 -2.09317,2.48433 -4.59391,4.49424 -7.11584,6.51292 -5.922405,5.51611 -10.74074,12.04407 -15.845657,18.28486 -3.789578,4.44696 -8.761151,7.78306 -12.15297,12.57646 0.606742,0.0354 1.21342,0.0719 1.820196,0.10673 z" />
    <path
       id="path160"
       style="fill:#008000;fill-opacity:1;stroke:#008000;stroke-width:0.264999;stroke-linecap:round;stroke-opacity:1"
       d="m 110.4836,164.64443 c 2.30694,1.28864 4.35884,3.00677 6.6885,4.24297 0.56225,0.26007 2.57762,-0.0221 1.34085,-0.61411 -1.95706,-1.17361 -3.88562,-2.40934 -5.80701,-3.6278 -0.72014,-0.36187 -1.47748,-0.0399 -2.22234,-0.001 z" />
    <path
       id="path162"
       style="fill:#008000;fill-opacity:1;stroke:#008000;stroke-width:0.264999;stroke-linecap:round;stroke-opacity:1"
       d="m 75.894699,201.50695 c 2.038762,0.88688 3.418142,2.70366 5.08654,4.09571 0.385005,0.58467 1.165721,0.64648 1.782962,0.47569 0.416771,0.10658 0.914378,-0.2181 0.361863,-0.55109 -0.643455,-0.47509 -1.350317,-0.85996 -1.874001,-1.47734 -1.082976,-0.98396 -2.113217,-2.10041 -3.489957,-2.67476 -0.62586,-0.12508 -1.243188,0.12855 -1.867407,0.13179 z" />
    <path
       id="path164"
       style="fill:#008000;fill-opacity:1;stroke:#008000;stroke-width:0.264999;stroke-linecap:round;stroke-opacity:1"
       d="m 100.75101,192.38544 c 0.90611,-1.64477 1.73841,-3.35357 2.18961,-5.18525 -0.47197,-0.99344 -2.35404,-0.48459 -2.65524,0.34912 -0.0813,1.01002 0.10008,2.02378 0.0546,3.03975 0.0129,1.26437 0.10656,2.54306 -0.0297,3.79909 -0.23558,0.66394 -2.275085,0.10416 -1.557009,0.95332 1.252829,0.13378 2.520379,0.0187 3.779299,0.0929 0.69983,-0.0301 2.49169,0.0803 2.498,-0.0663 -0.44064,-0.16422 -1.78869,0.12761 -0.8223,-0.22271 -0.44571,-0.29361 -1.86337,-0.076 -1.80322,-0.18227 0.67079,0.003 2.54608,-0.002 2.426,0.0107 -1.05341,0.15739 -3.02629,-0.3367 -3.511,0.22653 0.99052,0.53478 2.12719,-0.62831 1.59727,-1.64767 -0.17949,-2.07094 -0.31511,-4.16135 -0.11302,-6.2356 -0.73828,-0.23674 -2.52632,-0.75783 -2.61126,0.25633 -0.0653,1.62239 -0.877448,3.06697 -1.652157,4.44831 0.573218,0.61718 1.499067,0.14663 2.210167,0.36375 z" />
    <path
       id="path166"
       style="fill:#008000;fill-opacity:1;stroke:#008000;stroke-width:0.264999;stroke-linecap:round;stroke-opacity:1"
       d="m 21.868014,191.02308 c 7.463635,4.78806 16.501239,5.74344 24.703933,8.71494 8.218709,2.02279 16.781542,2.24873 24.930059,4.63356 2.127695,0.75417 6.966233,-0.10672 2.263251,-0.58229 -7.005131,-1.58585 -14.108894,-2.64194 -21.216267,-3.60847 -6.231619,-1.49228 -12.274942,-3.67391 -18.517376,-5.13967 -3.456138,-0.99175 -6.895345,-2.2289 -9.902897,-4.23845 -0.753574,0.0734 -1.507121,0.14707 -2.260703,0.22038 z" />
    <path
       id="path168"
       style="fill:#008000;fill-opacity:1;stroke:#008000;stroke-width:0.264999;stroke-linecap:round;stroke-opacity:1"
       d="m 73.802644,201.63104 c -0.448575,1.96725 -1.621964,3.65098 -2.701672,5.31397 0.14602,0.91786 1.483875,0.44374 2.13766,0.60812 1.237047,0.22291 1.677046,-1.04409 2.08648,-1.93455 0.575239,-1.21241 1.057468,-2.48661 1.239224,-3.82279 -0.799479,-0.31238 -1.748283,-0.0551 -2.609661,-0.16282 l -0.152031,-0.002 z" />
    <path
       id="path170"
       style="fill:#008000;fill-opacity:1;stroke:#008000;stroke-width:0.264999;stroke-linecap:round;stroke-opacity:1"
       d="m 23.340854,189.59784 c -0.963948,1.27209 -1.705968,2.69 -2.527725,4.05345 0.575616,0.4403 1.333675,0.27197 1.999324,0.30096 0.865429,-0.0432 0.894409,-1.02444 1.237474,-1.60787 0.412297,-0.8901 0.870171,-1.77074 1.49708,-2.53102 -0.716283,-0.18671 -1.475328,-0.11223 -2.206153,-0.21552 z" />
    <path
       id="path172"
       style="fill:#008000;fill-opacity:1;stroke:#008000;stroke-width:0.264999;stroke-linecap:round;stroke-opacity:1"
       d="m 41.871706,192.42227 c 0.723538,-0.74926 1.359677,-1.57748 2.025131,-2.37654 0.06786,-0.55692 -0.935596,-0.16256 -1.315308,-0.27396 -0.941505,-0.17189 -0.429806,1.07985 -0.660833,1.64764 -0.139059,1.03244 -0.334237,2.09719 -0.841671,3.01569 -0.377101,0.67034 -1.266614,0.36967 -1.753238,0.66789 0.212273,0.60355 1.053982,0.30734 1.546542,0.43416 0.955237,-0.003 1.932298,0.26465 2.863756,-0.0547 0.431357,-0.2659 1.208398,0.22565 1.25138,-0.24103 0.261022,-0.10088 1.479019,-0.0892 0.669214,-0.0808 -1.168282,0.0152 -2.338879,-0.0106 -3.501578,-0.13258 -0.367291,0.71948 0.939956,0.41086 1.164315,0.0595 0.37245,-0.59739 0.270306,-1.35438 0.430457,-2.02091 0.119197,-1.02577 0.115233,-2.06378 0.28401,-3.08413 -0.359233,-0.45435 -1.113419,-0.15925 -1.643062,-0.31682 -0.645607,0.003 -0.690522,0.82262 -1.078916,1.19427 -0.369889,0.52115 -0.802223,0.99907 -1.292138,1.40997 0.617317,0.0507 1.234601,0.10214 1.851939,0.15237 z" />
    <path
       id="path174"
       style="fill:#008000;fill-opacity:1;stroke:#008000;stroke-width:0.264999;stroke-linecap:round;stroke-opacity:1"
       d="m 116.67164,170.79737 c 0.0632,1.04371 -0.0504,2.08634 -0.14196,3.12477 -0.17479,0.58501 0.60306,0.37759 0.90425,0.37883 0.50085,0.011 0.99073,0.0731 1.4801,-0.0304 0.28108,-0.42442 -0.0131,-1.04073 0.0941,-1.54416 -0.0245,-0.64469 -0.0408,-1.29001 -0.0429,-1.93527 -0.76444,0.002 -1.52956,0.004 -2.29357,0.006 z" />
    <path
       id="path176"
       style="fill:#008000;fill-opacity:1;stroke:#008000;stroke-width:0.264999;stroke-linecap:round;stroke-opacity:1"
       d="m 116.91701,180.28066 c 0.0404,1.68904 -0.13281,3.37852 -0.0213,5.06661 0.71416,0.62944 1.8713,0.69311 2.37506,-0.20064 -0.13109,-0.82915 -0.3357,-1.68216 -0.41622,-2.53627 -0.17666,-0.7344 0.0186,-1.7814 -0.21266,-2.32966 -0.57496,-2e-5 -1.14992,6e-5 -1.72488,-4e-5 z" />
    <path
       id="path178"
       style="fill:#008000;fill-opacity:1;stroke:#008000;stroke-width:0.264999;stroke-linecap:round;stroke-opacity:1"
       d="m 117.27942,191.55689 c 0.0681,1.15431 -0.25454,2.28306 -0.29067,3.43221 0.48028,0.90739 1.82569,1.12578 2.34818,0.13061 0.3607,-0.95413 -0.23267,-1.96206 -0.0672,-2.95243 0.14049,-1.17244 -1.36329,-0.39986 -1.99028,-0.61039 z" />
    <path
       id="path180"
       style="fill:#008000;fill-opacity:1;stroke:#008000;stroke-width:0.264999;stroke-linecap:round;stroke-opacity:1"
       d="m 117.29817,199.20649 c 3e-5,0.70622 -0.11003,1.43354 0.0632,2.12497 0.23665,0.45567 0.8146,0.43008 1.25436,0.45354 0.38601,-0.0597 0.93317,0.0227 1.12204,-0.41146 0.16001,-0.39193 -0.0476,-0.80398 -0.0714,-1.20442 -0.051,-0.32584 -0.10211,-0.6517 -0.16028,-0.97636 -0.73592,0.004 -1.47209,0.007 -2.20785,0.0137 z" />
    <path
       id="path182"
       style="fill:#008000;fill-opacity:1;stroke:#008000;stroke-width:0.264999;stroke-linecap:round;stroke-opacity:1"
       d="m 75.662506,160.02002 c 0.148014,0.55914 -0.337218,1.4844 0.47333,1.68303 0.412983,0.48432 0.92986,0.28731 1.343705,-0.0665 0.588562,-0.27778 0.159148,-0.94243 0.202832,-1.42263 -0.33433,-0.47783 -1.11334,-0.0554 -1.626299,-0.1975 -0.131192,-6.7e-4 -0.262466,-1.9e-4 -0.393568,0.004 z" />
    <path
       id="path184"
       style="fill:#008000;fill-opacity:1;stroke:#008000;stroke-width:0.264999;stroke-linecap:round;stroke-opacity:1"
       d="m 75.824656,168.24947 c -0.09747,1.261 -0.113221,2.5332 -0.04479,3.79407 0.211104,0.40336 0.743174,0.80008 1.195732,0.74342 0.391123,-0.18552 0.898074,-0.50136 0.803687,-1.00654 -0.149357,-1.14975 -0.12345,-2.31138 -0.176864,-3.46744 -0.452203,-0.15127 -0.935271,-0.005 -1.400628,-0.0624 -0.125699,-5.2e-4 -0.251548,-0.001 -0.377137,-0.001 z" />
    <path
       id="path186"
       style="fill:#008000;fill-opacity:1;stroke:#008000;stroke-width:0.264999;stroke-linecap:round;stroke-opacity:1"
       d="m 76.159658,178.52025 c 0.01574,1.19084 -0.0737,2.39091 0.01113,3.57592 0.221692,0.38964 0.737186,0.81602 1.200043,0.6513 0.649222,-0.15175 0.853955,-0.84237 0.682054,-1.42483 -0.12664,-0.92444 -0.173256,-1.86115 -0.134228,-2.79358 -0.586276,-0.003 -1.173026,-0.006 -1.758999,-0.009 z" />
    <path
       id="path188"
       style="fill:#008000;fill-opacity:1;stroke:#008000;stroke-width:0.264999;stroke-linecap:round;stroke-opacity:1"
       d="m 76.687983,188.36263 c -0.03197,0.87581 -0.156012,1.74614 -0.167013,2.62299 0.282091,0.36366 0.822297,0.79888 1.248015,0.38152 0.532632,-0.19825 0.519949,-0.7626 0.461036,-1.22977 -0.01551,-0.58834 -0.0045,-1.17742 0.03456,-1.76468 -0.525521,-0.003 -1.051149,-0.007 -1.576598,-0.0101 z" />
    <path
       id="path190"
       style="fill:#008000;fill-opacity:1;stroke:#008000;stroke-width:0.264999;stroke-linecap:round;stroke-opacity:1"
       d="m 76.360297,197.02452 c -0.226885,0.61362 -0.144083,1.41117 0.586036,1.58894 0.382662,0.32954 0.768984,-0.21558 1.166374,-0.3364 0.335626,-0.25087 0.707261,-1.06125 0.122531,-1.23099 -0.558415,-0.008 -1.125875,0.003 -1.689257,-0.0185 l -0.09284,-0.002 -0.09284,-0.002 z" />
    <path
       id="path192"
       style="fill:#008000;fill-opacity:1;stroke:#008000;stroke-width:0.264999;stroke-linecap:round;stroke-opacity:1"
       d="m 78.276571,164.84448 c 1.826847,0.4612 3.72687,0.64543 5.604342,0.45516 0.668159,-0.003 2.015156,0.0802 2.048749,-0.79803 -0.896148,-0.28401 -1.749878,0.35215 -2.64481,0.38691 -0.745684,0.0737 -1.495194,0.0963 -2.243932,0.11526 0.602697,-8.7e-4 1.757686,-0.004 2.01458,0.008 -1.138994,0.0329 -2.244818,-0.39434 -3.375926,-0.35913 -0.467568,0.064 -0.935945,0.12896 -1.403003,0.1922 z" />
    <path
       id="path194"
       style="fill:#008000;fill-opacity:1;stroke:#008000;stroke-width:0.264999;stroke-linecap:round;stroke-opacity:1"
       d="m 91.234076,165.20363 c 1.866878,-0.17396 3.739583,-0.28449 5.613826,-0.33547 -1.260922,-0.25178 -2.561432,-0.48424 -3.842439,-0.23415 -1.031299,0.0959 -2.067798,0.17301 -3.084038,0.38228 0.437557,0.0624 0.875085,0.125 1.312651,0.18734 z" />
    <path
       id="path196"
       style="fill:#008000;fill-opacity:1;stroke:#008000;stroke-width:0.264999;stroke-linecap:round;stroke-opacity:1"
       d="m 100.8869,164.83423 c 2.82186,0.25274 5.65773,0.17906 8.4871,0.19345 -1.13919,-0.3126 -2.32899,-0.45589 -3.50766,-0.45499 0.90265,0.005 1.80543,0.007 2.70815,0.007 -1.90997,0.0311 -3.82433,-0.0184 -5.73096,-0.0359 -0.65207,0.0968 -1.30537,0.19416 -1.95663,0.29062 z" />
    <path
       id="path198"
       style="fill:#000000;fill-opacity:1;stroke:#000000;stroke-width:0.264999;stroke-linecap:round;stroke-opacity:1"
       d="m 165.57462,220.31727 c 22.28981,1.64123 44.67452,0.72741 67.00286,0.83493 14.6134,-0.66172 29.21601,-1.78454 43.83735,-0.57001 9.45623,0.16174 18.15326,-2.01628 26.50146,-0.51885 9.24628,-0.53984 -7.42747,-1.81864 -10.03415,-1.17666 -9.88555,0.97224 -19.69374,1.09146 -29.62031,0.63367 -19.51039,0.01 -38.95321,1.94656 -58.47774,1.34612 -12.58617,0.10419 -25.18108,-0.19364 -37.72994,-0.73869 l -1.47953,0.18948 z" />
    <path
       id="path200"
       style="fill:#000000;fill-opacity:1;stroke:#000000;stroke-width:0.264999;stroke-linecap:round;stroke-opacity:1"
       d="m 301.38997,215.92994 c 2.37723,1.40473 4.8599,2.73655 7.58354,3.31638 0.18632,0.31783 1.41985,0.0122 0.54233,0.17172 -2.48038,1.18968 -5.07226,2.15084 -7.49786,3.45767 -0.68127,0.53343 0.16933,1.44544 0.82968,0.96892 1.28176,-0.0447 2.51958,-0.43361 3.66457,-0.99938 2.3344,-1.15859 4.71189,-2.23587 7.14503,-3.17184 0.40609,-0.8926 -0.96067,-0.80245 -1.49809,-0.84527 -2.74943,-0.49587 -5.37655,-1.60535 -7.67224,-3.19436 -1.03233,0.0986 -2.06463,0.19751 -3.09696,0.29616 z" />
    <path
       id="path202"
       style="fill:#000000;fill-opacity:1;stroke:#000000;stroke-width:0.264999;stroke-linecap:round;stroke-opacity:1"
       d="m 230.79999,155.26195 c -1.69221,8.33662 2.05074,16.82691 -0.56403,25.15929 0.50679,9.3832 2.89743,18.64022 1.40534,28.09761 -0.26145,11.05608 0.0119,22.10778 -1.39959,33.10268 0.70899,11.37612 2.57236,22.75202 1.51895,34.21867 0.86607,9.27863 3.94059,-4.15856 2.23689,-7.86482 0.95694,-12.18073 -3.29697,-24.3995 -0.91124,-36.59268 0.60878,-11.369 0.13356,-22.80206 0.74457,-34.14837 -2.27399,-9.60051 -1.76432,-19.30766 -1.40148,-28.90833 -0.39926,-4.36384 -0.43714,-8.81914 -1.62941,-13.06405 z" />
    <path
       id="path204"
       style="fill:#000000;fill-opacity:1;stroke:#000000;stroke-width:0.264999;stroke-linecap:round;stroke-opacity:1"
       d="m 228.55233,160.32967 c 0.96725,-2.45035 2.3543,-4.70325 3.62824,-6.99931 0.37871,-0.75608 1.86342,-1.95932 0.94194,-2.69926 -0.62318,0.18203 -1.96859,0.081 -1.87585,1.0034 0.21252,1.19499 0.16399,2.4186 0.26977,3.62884 0.11118,1.60568 0.22217,3.24271 0.71558,4.78135 0.30295,0.54877 1.33914,1.28629 1.75775,0.48849 0.38308,-0.7252 -0.20631,-1.44374 -0.24984,-2.17792 -0.42631,-2.22808 -0.31588,-4.50658 -0.33189,-6.76205 0.0926,-0.89067 -1.29883,-0.80013 -1.89212,-0.98807 -0.76394,0.46021 -0.55633,1.53646 -0.85459,2.27063 -0.34857,1.29409 -1.20805,2.3673 -1.80227,3.55301 -0.67065,1.18181 -1.29406,2.39271 -1.86477,3.62413 0.009,0.51174 1.18148,0.11733 1.55805,0.27676 z" />
    <path
       id="path208"
       style="fill:#0044aa;fill-opacity:1;stroke:#0044aa;stroke-width:0.264999;stroke-linecap:round;stroke-opacity:1"
       d="m 231.49468,166.373 c 15.6502,-2.66939 32.28349,2.95376 43.38314,14.23746 11.42844,9.25044 15.81269,24.85028 14.2243,39.08338 -0.76605,11.57616 -3.85435,23.28504 -9.95825,33.17453 -10.14176,9.92423 -24.88481,12.55263 -38.52153,13.3133 -11.03332,-0.82136 -23.00089,-0.88371 -32.35048,-7.66118 -7.03075,-3.94745 -15.54949,-8.75874 -16.65005,-17.60903 -1.08632,-18.15517 -3.46781,-37.20343 3.27941,-54.59812 3.52027,-7.59768 10.50027,-13.63007 18.69662,-15.56664 4.8123,-2.88421 13.6932,-2.7774 16.9993,-3.80592 -12.63523,0.11895 -26.46936,3.51546 -34.85195,13.63013 -8.73817,12.69933 -8.45827,28.86357 -7.88377,43.62638 0.51223,8.04779 -0.32538,16.69045 3.50724,24.07179 3.84913,5.31535 10.27837,7.75135 15.40534,11.6034 6.02359,3.83541 13.08343,5.48435 20.13291,5.92352 18.3386,2.32274 38.29078,0.35989 53.75087,-10.57897 8.67712,-10.17652 10.96524,-23.98182 12.25884,-36.87496 0.76731,-13.34577 -2.81019,-28.08688 -13.58893,-36.84436 -11.54076,-12.52967 -29.48966,-18.36369 -46.24054,-15.6982 -0.19168,0.0347 -3.3796,0.19936 -1.59247,0.57349 z" />
    <path
       id="path210"
       style="fill:#008000;fill-opacity:1;stroke:#008000;stroke-width:0.264999;stroke-linecap:round;stroke-opacity:1"
       d="m 292.34934,214.28904 c -0.0971,2.44477 -0.34869,4.87984 -0.61423,7.31104 0.70115,1.85449 3.62357,1.28082 3.33778,-0.78751 -0.0459,-1.80742 -0.11211,-3.60842 0.14085,-5.40607 0.11848,-1.89467 -1.78933,-0.89214 -2.8644,-1.11746 z" />
    <path
       id="path212"
       style="fill:#008000;fill-opacity:1;stroke:#008000;stroke-width:0.264999;stroke-linecap:round;stroke-opacity:1"
       d="m 294.74242,230.00729 c 1.02535,-0.94127 1.92846,-2.00468 2.80612,-3.0821 -0.89554,0.0977 -2.11934,-0.3058 -2.80282,0.19949 -0.13818,2.03231 -0.15882,4.07114 -0.27925,6.10309 0.0154,0.84073 -0.3703,1.55803 -1.14632,1.90736 -0.45521,0.86369 1.17559,1.12425 1.7904,1.19366 1.06916,-0.0369 2.19545,0.0182 3.18907,-0.43017 -0.25003,-0.34226 -1.51619,-0.76284 -1.47692,-0.44483 0.68568,-0.45208 0.27203,-1.45548 0.39081,-2.14624 -0.0917,-2.14623 -0.0849,-4.31842 0.39132,-6.42438 -0.94304,0.0816 -1.97749,-0.50741 -2.84641,-0.1268 -0.56136,0.61915 -0.93352,1.39711 -1.56936,1.96221 -0.2221,0.4035 -1.37113,0.89079 -1.15877,1.00623 0.90404,0.0942 1.80812,0.18825 2.71213,0.28248 z" />
    <path
       id="path214"
       style="fill:#008000;fill-opacity:1;stroke:#008000;stroke-width:0.264999;stroke-linecap:round;stroke-opacity:1"
       d="m 229.40491,268.7655 c 3.40719,-0.3088 6.8389,-0.15268 10.24393,-0.49435 -3.18765,-0.93763 -6.49652,-0.1789 -9.74214,-0.19358 -1.03017,0.0476 -3.10454,0.1 -3.4679,0.26725 0.9887,0.14023 1.97743,0.28026 2.96611,0.42068 z" />
    <path
       id="path216"
       style="fill:#008000;fill-opacity:1;stroke:#008000;stroke-width:0.264999;stroke-linecap:round;stroke-opacity:1"
       d="m 212.01965,269.80563 c 1.16341,0.1629 2.30332,0.8194 3.49916,0.4638 0.70782,-0.15462 1.41114,-0.32962 2.14025,-0.33556 0.76391,-0.1448 -0.52872,-0.22291 -0.80627,-0.27943 -0.91089,-0.0705 -1.81804,-0.37118 -2.73154,-0.15597 -0.69679,0.12854 -1.40142,0.20014 -2.1016,0.30716 z" />
    <path
       id="path218"
       style="fill:#008000;fill-opacity:1;stroke:#008000;stroke-width:0.264999;stroke-linecap:round;stroke-opacity:1"
       d="m 221.9175,268.67235 c 0.65059,-0.95192 1.37878,-1.84945 2.14496,-2.70625 0.1702,-0.43602 -0.92474,-0.0152 -1.22929,-0.15353 -0.75853,-0.043 -1.59946,-0.001 -1.2197,0.95096 0.0619,1.41707 0.34708,2.81394 0.41448,4.22766 0.1116,0.96559 -1.00558,0.93042 -1.65891,1.03091 -0.71652,-0.21783 -1.33779,0.82473 -0.34725,0.76807 1.47682,0.0954 2.95265,0.31627 4.43337,0.28055 1.03198,-0.0684 2.09243,-0.13049 3.07708,-0.45639 -0.50705,-0.28548 -1.50178,-0.1108 -2.19532,-0.2463 -0.75843,-0.0637 -1.51591,-0.14044 -2.27586,-0.18451 -0.5746,0.80495 1.21954,0.36355 1.4331,-0.11039 0.57268,-0.95574 -0.10189,-2.09425 -0.18976,-3.10308 -0.15245,-0.99212 -0.19551,-2.00961 -0.0248,-3.00262 -0.68148,-0.32456 -1.44998,-0.4363 -2.15659,-0.67577 -0.97227,0.154 -0.99832,1.393 -1.60549,1.98569 -0.19176,0.4234 -1.16913,1.0235 -0.98853,1.20648 0.79614,0.0628 1.59253,0.12589 2.38853,0.18852 z" />
    <path
       id="path220"
       style="fill:#008000;fill-opacity:1;stroke:#008000;stroke-width:0.264999;stroke-linecap:round;stroke-opacity:1"
       d="m 186.03361,216.40022 c -9e-5,2.23871 -0.15611,4.47412 -0.36361,6.70216 -0.58516,1.38522 1.54097,1.95399 2.43441,1.21982 0.77697,-0.85046 0.10783,-2.11729 0.3528,-3.14461 0.0328,-1.58817 -0.0617,-3.18036 0.0814,-4.76514 -0.83499,-0.004 -1.67007,-0.008 -2.50501,-0.0122 z" />
    <path
       id="path222"
       style="fill:#008000;fill-opacity:1;stroke:#008000;stroke-width:0.264999;stroke-linecap:round;stroke-opacity:1"
       d="m 176.47995,229.43696 c -0.61089,-0.0155 -1.22346,-0.0661 -1.83398,-0.0219 -0.24545,0.0402 0.0996,0.13686 0.19101,0.14977 0.24562,0.0633 0.5032,0.0368 0.75437,0.0598 0.97573,0.0439 1.99284,0.0827 2.91612,-0.29041 0.0763,-0.0291 0.18912,-0.0634 0.0494,-0.097 -0.7198,-0.30871 -1.5196,-0.33155 -2.29105,-0.34291 -0.80064,-0.004 -1.60053,0.0487 -2.40119,0.0372 0.81918,0.38791 1.75685,0.2742 2.61533,0.50561 z" />
    <path
       id="path224"
       style="fill:#008000;fill-opacity:1;stroke:#008000;stroke-width:0.264999;stroke-linecap:round;stroke-opacity:1"
       d="m 183.55953,226.97134 c 0.25389,-0.81278 0.95365,-1.80829 0.918,-2.51313 -0.93331,-0.0174 -1.87089,-0.0767 -2.80157,0.0212 -0.0125,2.22595 0.13626,4.45973 -0.049,6.68008 0.20192,0.69656 -0.76498,1.31465 -1.03388,1.17731 0.96078,-0.009 1.92178,-0.018 2.88246,0.004 -0.39051,0.0741 -1.26371,-0.31813 -1.3293,0.0178 0.63448,0.34315 1.37737,-0.0938 2.06036,-0.0301 0.38136,0.0143 1.38894,-0.14603 0.54148,-0.33062 -1.20669,-0.24485 -2.45617,-0.33217 -3.68652,-0.2455 -0.71617,0.12865 -1.47849,0.0576 -2.16081,0.32218 -0.45816,0.92303 1.26813,0.70026 1.83571,0.73376 0.98672,-0.0133 1.99798,0.0753 2.96753,-0.12569 0.75666,-0.34338 0.66903,-1.27662 0.66263,-1.96583 0.002,-2.03944 -0.25857,-4.11277 0.21589,-6.12169 -0.67269,-0.32187 -1.47011,-0.24741 -2.15726,-0.55554 -1.08647,-0.22834 -0.87731,1.40921 -1.37344,2.02744 -0.1743,0.34513 -0.62475,0.97074 0.13029,0.79259 0.79245,0.0371 1.58518,0.0748 2.37742,0.11191 z" />
    <path
       id="path226"
       style="fill:#008000;fill-opacity:1;stroke:#008000;stroke-width:0.264999;stroke-linecap:round;stroke-opacity:1"
       d="m 228.9793,165.11593 c 2.0222,-0.199 4.05527,-0.25996 6.08636,-0.26698 -0.96268,0.0193 -2.71914,-0.0216 -3.19505,0.0172 1.49468,0.0811 2.96565,-0.25069 4.4365,-0.45991 -3.10963,-0.16241 -6.23429,-0.0384 -9.33528,0.23119 -1.59417,0.0825 0.7623,0.25125 1.32224,0.37873 0.22835,0.0335 0.45723,0.0664 0.68523,0.0998 z" />
    <path
       id="path228"
       style="fill:#008000;fill-opacity:1;stroke:#008000;stroke-width:0.264999;stroke-linecap:round;stroke-opacity:1"
       d="m 218.10596,159.7486 c 0.90344,-0.64278 1.58327,-1.54763 2.23227,-2.43038 0.42371,-0.64564 -0.17777,-0.93937 -0.75872,-0.71529 -0.78866,0.0747 -2.01694,-0.13748 -1.91988,1.00368 -0.5698,2.17942 -0.68685,4.46951 -1.48037,6.58931 0.12955,0.57714 -1.19714,0.72481 -0.88989,0.62036 0.69762,-0.0476 2.05301,0.0642 2.33845,-0.0701 -0.85592,0.0227 0.4238,0.37279 0.37121,0.2098 -0.782,4.9e-4 -1.56422,-0.0142 -2.34606,0.009 1.36108,0.0517 2.72725,0.18428 4.0812,-0.0382 0.46049,-0.0426 1.57797,-0.1866 1.61427,-0.38448 -2.28201,0.0362 -4.57006,-0.25301 -6.84731,0.0121 -0.55272,0.89301 1.04742,0.71392 1.54936,0.69572 0.83984,-0.11833 2.1193,0.41053 2.58143,-0.54906 0.29453,-1.0439 0.2129,-2.15807 0.43994,-3.21981 0.23799,-1.37179 0.52838,-2.76141 1.05053,-4.04897 0.70253,-0.93041 -1.01017,-0.50606 -1.49862,-0.53903 -0.54067,-0.14674 -0.88679,-0.10879 -0.95553,0.53968 -0.21521,0.94329 -1.01452,1.61881 -1.82078,2.07756 0.75274,0.0796 1.50622,0.15695 2.2585,0.23782 z" />
    <path
       id="path240"
       style="fill:#0044aa;fill-opacity:1;stroke:#0044aa;stroke-width:0.264999;stroke-linecap:round;stroke-opacity:1"
       d="m 13.508394,234.79392 c 0.819871,3.21249 -0.03267,6.6544 -1.678526,9.46365 -0.974315,1.21961 0.420596,2.77978 1.578289,1.56769 1.307744,-1.05611 1.231417,-2.92032 1.503219,-4.43464 0.463917,-1.99478 0.549747,-4.06428 0.331367,-6.0986 -0.183073,-0.86609 -1.144477,-0.46646 -1.734349,-0.4981 z" />
    <path
       id="path242"
       style="fill:#0044aa;fill-opacity:1;stroke:#0044aa;stroke-width:0.264999;stroke-linecap:round;stroke-opacity:1"
       d="m 13.335049,235.84299 c 1.53938,-0.74244 3.161844,-1.50234 4.9094,-1.47722 -0.39964,0.0151 -1.386218,0.003 -1.380358,0.003 1.419703,0.041 2.187409,2.03174 1.15942,3.0214 -0.353365,0.79161 -2.022804,0.93139 -1.792732,1.80317 0.970398,0.43918 2.211822,0.10254 3.120783,-0.37832 1.159616,-0.6371 1.38493,-2.1283 1.078469,-3.30482 -0.292856,-1.07789 -1.480209,-1.58789 -2.520488,-1.47196 -1.497512,0.019 -3.042034,0.052 -4.419736,0.71588 -0.568233,0.27796 -1.720469,0.68043 -1.917911,0.88891 0.587677,0.0666 1.175746,0.1335 1.763153,0.19997 z" />
    <path
       id="path244"
       style="fill:#0044aa;fill-opacity:1;stroke:#0044aa;stroke-width:0.264999;stroke-linecap:round;stroke-opacity:1"
       d="m 25.514833,240.6901 c 0.235909,-0.0462 0.98474,-0.0482 0.89181,-0.0356 -0.431752,0.005 -1.219342,0.0148 -1.429824,0.0166 0.738603,-0.005 1.484213,0.1322 2.215069,-0.0352 0.297014,0.0129 1.129551,-0.0612 1.029987,-0.22773 -1.557624,-0.0763 -3.121285,-0.11417 -4.679735,-0.013 0.657558,0.0983 1.315267,0.19593 1.972693,0.29494 z" />
    <path
       id="path246"
       style="fill:#0044aa;fill-opacity:1;stroke:#0044aa;stroke-width:0.264999;stroke-linecap:round;stroke-opacity:1"
       d="m 25.478578,243.36994 c 1.140205,-0.17628 3.298683,0.0845 3.820559,-0.2145 -1.853775,-0.45027 -3.789586,-0.35901 -5.663185,-0.0903 0.599392,0.18149 1.233764,0.17154 1.842626,0.30481 z" />
    <path
       id="path248"
       style="fill:#0044aa;fill-opacity:1;stroke:#0044aa;stroke-width:0.264999;stroke-linecap:round;stroke-opacity:1"
       d="m 35.420503,236.61745 c 0.268567,-0.89293 2.483449,-1.32364 2.225399,-1.52801 -1.420393,0.0427 0.925739,1.29787 0.378915,2.21779 -0.17871,3.48179 -2.362522,6.5165 -4.784749,8.87529 -0.831393,0.59342 -1.502678,1.3534 -0.0071,1.11734 1.237602,-0.19932 2.769513,-1.95216 3.556901,-1.42843 -1.883565,0.0468 1.213574,0.40842 1.681666,0.40591 0.774729,0.33383 2.680958,-0.52264 0.916603,-0.46458 -1.714143,0.11956 1.902688,3.4e-4 0.160893,-0.069 -2.141317,-0.19887 -4.398242,-0.53265 -6.490717,0.084 -1.501903,0.50569 -1.14809,2.25636 0.515995,1.69111 1.695708,-0.34531 2.605942,-2.04275 3.623073,-3.28477 1.522104,-2.21397 3.203962,-4.73593 2.916959,-7.54875 -0.126473,-2.07363 -2.579298,-2.26486 -4.137371,-1.80158 -0.883274,-0.035 -3.711505,1.77216 -1.483317,1.65702 0.30884,0.0269 0.617375,0.0582 0.926873,0.0767 z" />
    <path
       id="path250"
       style="fill:#0044aa;fill-opacity:1;stroke:#0044aa;stroke-width:0.264999;stroke-linecap:round;stroke-opacity:1"
       d="m 43.655016,240.84695 c 1.192591,0.65083 2.603024,0.52414 3.912788,0.504 1.753395,-0.13774 3.372601,-0.93968 4.853046,-1.83955 -0.154905,-1.02744 -1.581571,-0.5723 -2.306457,-0.52569 -1.317262,0.43898 -2.313642,1.583 -3.723753,1.80856 -0.447506,0.0886 -1.120573,0.20463 -0.233708,0.18656 0.413915,-0.024 1.518406,0.0234 0.522519,-0.0649 -1.011769,-0.28615 -1.99984,-0.27937 -3.024435,-0.069 z" />
    <path
       id="path252"
       style="fill:#0044aa;fill-opacity:1;stroke:#0044aa;stroke-width:0.264999;stroke-linecap:round;stroke-opacity:1"
       d="m 45.42372,241.24249 c 0.299927,1.42019 -0.06406,2.85804 -0.361221,4.24218 0.07622,0.6322 0.848079,1.06323 1.441898,0.96748 0.666503,-0.18286 1.473625,-0.57585 1.56657,-1.34562 0.115163,-0.85045 0.210506,-1.7297 -0.06798,-2.56183 -0.269136,-0.51073 -0.111511,-1.61609 -0.943003,-1.34763 -0.545409,0.0153 -1.09089,0.0307 -1.636268,0.0454 z" />
    <path
       id="path254"
       style="fill:#0044aa;fill-opacity:1;stroke:#0044aa;stroke-width:0.264999;stroke-linecap:round;stroke-opacity:1"
       d="m 48.380067,240.01229 c 0.09979,1.51744 0.310707,3.05695 0.93296,4.45801 0.379549,0.53178 1.344678,0.68262 1.835741,0.58679 0.691384,-0.34489 0.05813,-1.02092 -0.222864,-1.4588 -0.438608,-1.1016 -0.844317,-2.23557 -0.989292,-3.41694 -0.370764,-0.4376 -1.03999,-0.0427 -1.538668,-0.16923 l -0.01788,1.8e-4 z" />
    <path
       id="path256"
       style="fill:#0044aa;fill-opacity:1;stroke:#0044aa;stroke-width:0.264999;stroke-linecap:round;stroke-opacity:1"
       d="m 56.345531,238.24388 c 0.263061,1.95248 0.359403,3.92429 0.35915,5.89339 -0.365345,0.46935 -0.261341,1.49859 0.469409,1.48923 0.466221,-0.12861 0.943008,-0.0579 1.415071,-0.0869 0.561012,-0.0984 1.065314,-0.61064 0.989802,-1.20622 0.0986,-0.96145 0.658876,-1.79973 1.197437,-2.57256 0.287736,-0.42608 1.024719,-0.9467 0.480252,-1.47354 -0.465539,-0.33786 -1.072095,0.0451 -1.546751,0.1979 -1.11269,0.475 -1.837999,1.50967 -2.322857,2.5765 -0.274931,0.58757 -0.498558,1.19703 -0.732545,1.80154 0.10501,0.56339 0.811503,0.64879 1.270634,0.51418 0.37087,-0.0944 1.003365,0.0867 1.209319,-0.1608 -0.16471,-0.89902 -0.689764,-1.71575 -0.669613,-2.65102 -0.123668,-1.12885 -0.370112,-2.24871 -0.438088,-3.38025 0.07914,-0.50511 -0.302331,-1.08388 -0.858684,-0.9922 -0.27505,-0.002 -0.548619,0.0324 -0.822536,0.0507 z" />
    <path
       id="path258"
       style="fill:#0044aa;fill-opacity:1;stroke:#0044aa;stroke-width:0.264999;stroke-linecap:round;stroke-opacity:1"
       d="m 11.540028,275.37985 c 2.977801,-3.11518 3.251818,-7.63932 4.66063,-11.51105 0.998912,-1.38636 -1.141619,-3.50882 -1.50806,-1.59935 1.542935,3.72111 2.65149,7.82159 5.514213,10.79596 1.748155,1.29322 1.88486,-1.13822 0.523096,-1.86714 -2.016635,-2.68328 -3.0095,-5.95372 -3.985613,-9.1114 -1.215335,-1.62379 -3.334994,-0.11428 -2.683582,1.65615 -0.334999,3.19546 -1.449638,6.25458 -2.622265,9.21485 -0.542453,1.03159 -2.4440279,2.72468 0.101581,2.42198 z" />
    <path
       id="path260"
       style="fill:#0044aa;fill-opacity:1;stroke:#0044aa;stroke-width:0.264999;stroke-linecap:round;stroke-opacity:1"
       d="m 15.801712,270.09045 c 1.240091,-0.14123 2.483754,-0.25629 3.717787,-0.44603 -0.462858,-0.4789 -1.250863,-0.2402 -1.852236,-0.32809 -1.32569,0.0458 -2.630825,0.34453 -3.947629,0.45214 0.685311,0.13057 1.390593,0.20727 2.082078,0.32198 z" />
    <path
       id="path262"
       style="fill:#0044aa;fill-opacity:1;stroke:#0044aa;stroke-width:0.264999;stroke-linecap:round;stroke-opacity:1"
       d="m 22.641536,265.11883 c 2.130246,0.38949 4.302756,0.74984 6.473639,0.52908 -0.584526,-0.83168 -1.831266,-0.21133 -2.673385,-0.58927 -1.14543,-0.28877 -2.311756,-0.21014 -3.458438,0.0133 l -0.170909,0.0235 z" />
    <path
       id="path264"
       style="fill:#0044aa;fill-opacity:1;stroke:#0044aa;stroke-width:0.264999;stroke-linecap:round;stroke-opacity:1"
       d="m 22.994969,268.07377 c 2.047474,0.097 4.097445,-0.0159 6.139557,-0.1648 -0.808088,-0.73063 -2.016951,-0.28024 -2.998046,-0.46727 -0.769269,0.0136 -2.173126,0.0667 -2.542373,0.19961 0.470567,0.11582 1.827789,-0.11113 1.756525,0.0627 -0.7852,0.12336 -1.570339,0.24749 -2.355663,0.36981 z" />
    <path
       id="path266"
       style="fill:#0044aa;fill-opacity:1;stroke:#0044aa;stroke-width:0.264999;stroke-linecap:round;stroke-opacity:1"
       d="m 32.299629,264.41183 c 2.529644,0.11112 5.102382,0.30571 7.606891,-0.1411 0.69435,0.0207 2.637082,-1.03263 1.140562,-1.35274 -1.16973,-0.25833 -2.29561,0.1679 -3.270535,0.77356 -0.822835,0.34723 -1.7246,0.40368 -2.606367,0.41845 0.6005,0.0122 2.235359,0.0118 0.74173,-0.0406 -1.213979,-0.0684 -2.42164,0.13018 -3.612281,0.34243 z" />
    <path
       id="path268"
       style="fill:#0044aa;fill-opacity:1;stroke:#0044aa;stroke-width:0.264999;stroke-linecap:round;stroke-opacity:1"
       d="m 34.763098,264.5945 c -0.02447,1.48236 -0.120178,2.98845 -0.598169,4.40316 -0.584912,0.53169 0.145137,1.70966 0.849137,1.43914 0.866883,-0.10369 1.552969,-0.7644 1.585334,-1.65439 0.278034,-1.30922 0.299668,-2.69252 -8.85e-4,-3.99604 -0.45066,-0.50819 -1.25156,-0.0215 -1.835417,-0.19187 z" />
    <path
       id="path270"
       style="fill:#0044aa;fill-opacity:1;stroke:#0044aa;stroke-width:0.264999;stroke-linecap:round;stroke-opacity:1"
       d="m 37.608337,264.61954 c 0.16306,1.41399 0.269763,2.90668 1.036241,4.14879 0.537395,0.42806 1.921484,1.19155 2.17831,0.15152 -0.17955,-0.92404 -0.971257,-1.62696 -1.127905,-2.591 -0.270219,-0.73229 -0.148503,-2.08233 -1.311286,-1.72751 -0.256904,0.0254 -0.51844,0.0662 -0.77536,0.0182 z" />
    <path
       id="path272"
       style="fill:#0044aa;fill-opacity:1;stroke:#0044aa;stroke-width:0.264999;stroke-linecap:round;stroke-opacity:1"
       d="m 48.028886,267.89048 c -0.100592,-1.54253 0.368666,-3.14339 1.391214,-4.31724 0.354534,-0.28312 1.40939,-0.39018 0.388319,-0.33414 -0.703344,0.0337 -2.085764,0.0505 -2.363735,0.10643 0.723273,0.40455 1.392909,0.82153 2.245535,0.77807 0.561613,0.0443 2.295527,-0.12109 1.425718,-0.94629 -1.18386,-0.89648 -2.845545,-0.7269 -4.167954,-0.26494 -1.278634,0.68321 -1.669016,2.23235 -1.921036,3.54648 -0.508876,0.87196 0.02853,1.78841 1.050555,1.43161 0.650455,-0.02 1.301514,0.0104 1.951384,2e-5 z" />
    <path
       id="path274"
       style="fill:#0044aa;fill-opacity:1;stroke:#0044aa;stroke-width:0.264999;stroke-linecap:round;stroke-opacity:1"
       d="m 44.332987,261.30597 c 0.09391,1.07446 -0.0909,2.15076 -0.0071,3.22573 0.0068,0.98341 -0.0066,1.96738 -0.06341,2.94934 0.185051,0.47609 0.732312,0.60448 1.184319,0.68482 0.311669,0.0641 0.617553,0.16908 0.867742,-0.0854 0.200747,-0.10231 0.522454,-0.34209 0.691288,-0.10487 0.254711,-0.13914 0.449583,-0.42346 0.468998,-0.71657 -0.09542,-0.49633 -0.107424,-1.01033 -0.156857,-1.51518 -0.114792,-1.42556 -0.221433,-2.87451 -0.678292,-4.23853 -0.179531,-0.32048 -0.595756,-0.26859 -0.906566,-0.23626 -0.272837,0.0383 -0.549046,0.0594 -0.822416,0.0266 -0.192549,0.004 -0.385306,0.007 -0.577726,0.0103 z" />
    <path
       id="path276"
       style="fill:#0044aa;fill-opacity:1;stroke:#0044aa;stroke-width:0.264999;stroke-linecap:round;stroke-opacity:1"
       d="m 50.10613,256.05045 c -0.525823,0.0227 -1.690052,-0.10024 -0.577536,0.35063 1.551893,1.52238 -2.428297,2.94603 -0.809231,3.99866 1.421361,0.41019 2.95598,0.36686 4.42665,0.3525 0.895607,0.081 1.547539,-0.59529 0.266456,-0.59557 -0.778086,0.0131 -3.359231,0.1104 -1.924015,-1.09756 1.251961,-1.11879 0.745034,-3.56796 -1.138927,-3.39893 -0.768216,0.002 -2.407212,0.21691 -0.779635,0.30814 0.178961,0.0259 0.357748,0.0531 0.536238,0.0821 z" />
    <path
       id="path278"
       style="fill:#0044aa;fill-opacity:1;stroke:#0044aa;stroke-width:0.264999;stroke-linecap:round;stroke-opacity:1"
       d="m 71.227118,251.09365 c 0.05191,1.46107 -0.08417,2.92758 -0.38905,4.35702 -0.356552,0.84851 1.042643,0.21905 1.472945,0.47353 0.960225,0.30391 1.544363,-0.41472 1.414892,-1.30248 0.265832,-1.27053 1.190709,-2.32157 2.326379,-2.90258 -0.419373,-0.6063 -1.741177,-0.43227 -2.497528,-0.4069 -0.856883,0.15872 -1.456949,0.91672 -1.928195,1.59945 -0.51454,0.77386 -0.779636,1.67981 -0.960658,2.58275 0.423661,0.74438 1.449092,0.16103 2.130963,0.38561 0.76001,0.24298 0.741004,-0.31315 0.541323,-0.83924 -0.08747,-1.02599 -0.0181,-2.06143 -9.25e-4,-3.08635 0.277181,-0.63605 -0.12049,-1.08817 -0.773939,-0.85341 -0.445403,-0.002 -0.890809,-0.004 -1.336207,-0.007 z" />
    <path
       id="path280"
       style="fill:#0044aa;fill-opacity:1;stroke:#0044aa;stroke-width:0.264999;stroke-linecap:round;stroke-opacity:1"
       d="m 79.800399,251.98836 c 0.681375,-0.15557 1.890256,-0.0721 2.259071,-0.21973 -0.710998,-0.25084 -1.482946,-0.2554 -2.220754,-0.38834 -0.98506,-0.0838 -1.975478,0.0203 -2.946189,0.18915 0.969145,0.14065 1.938671,0.27866 2.907872,0.41892 z" />
    <path
       id="path282"
       style="fill:#0044aa;fill-opacity:1;stroke:#0044aa;stroke-width:0.264999;stroke-linecap:round;stroke-opacity:1"
       d="m 76.519934,254.7881 c 1.867645,0.16719 3.742766,0.036 5.612826,-0.004 -0.651653,-0.28511 -2.319554,-0.31601 -0.712638,-0.46267 -1.008068,-0.19226 -2.327499,0.0864 -3.436915,0.23438 -0.487617,0.0783 -0.974661,0.16064 -1.463273,0.23229 z" />
    <path
       id="path284"
       style="fill:#0044aa;fill-opacity:1;stroke:#0044aa;stroke-width:0.264999;stroke-linecap:round;stroke-opacity:1"
       d="m 87.654425,253.2261 c 0.903215,-1.89344 1.566254,-3.90053 1.977515,-5.95742 -0.960758,0.19072 -3.283319,-0.6971 -2.949297,1.00607 0.186652,2.43594 0.424956,4.88901 0.381998,7.3263 -0.474821,1.21516 -2.016749,1.02055 -3.043349,1.31108 1.728904,0.32808 3.509862,0.71341 5.275244,0.37641 0.871604,-0.22526 2.233426,0.10132 2.791377,-0.50847 -1.17998,-0.35791 -2.474372,-0.24041 -3.702907,-0.26666 -1.461383,0.037 -2.916964,0.18219 -4.370901,0.32554 1.501793,0.28756 3.095728,0.88594 4.584666,0.21389 1.356325,-0.47011 1.431569,-2.04864 1.260527,-3.24538 -0.139986,-2.12092 -0.320482,-4.25286 -0.240889,-6.37363 -0.837793,-0.41527 -2.256141,-0.40696 -3.109325,-0.0516 -0.147886,1.70387 -0.631206,3.42316 -1.443357,4.94649 -1.059326,1.17792 1.177667,0.65253 1.829247,0.85093 0.253151,0.0155 0.506302,0.0309 0.759451,0.0464 z" />
    <path
       id="path286"
       style="fill:#0044aa;fill-opacity:1;stroke:#0044aa;stroke-width:0.264999;stroke-linecap:round;stroke-opacity:1"
       d="m 70.429537,250.41437 c 0.01878,1.1958 -0.09048,2.38913 -0.08391,3.58479 0.196727,0.5759 0.92741,0.47789 1.408176,0.58351 0.552549,-0.0677 1.346124,0.057 1.677207,-0.47942 0.164514,-0.56519 -0.05555,-1.15142 -0.04486,-1.72769 -0.04712,-0.65249 -0.0881,-1.30677 -0.06851,-1.96126 -0.962685,5e-5 -1.925508,-9e-5 -2.888107,7e-5 z" />
    <path
       id="path288"
       style="fill:#0044aa;fill-opacity:1;stroke:#0044aa;stroke-width:0.264999;stroke-linecap:round;stroke-opacity:1"
       d="m 105.49158,234.86664 c 0.61803,4.16422 0.19992,8.41395 -0.6827,12.50828 0.50459,1.93367 3.56805,0.66016 2.8503,-1.17832 0.16271,-3.28103 0.20494,-6.57473 -0.0621,-9.85158 0.47329,-1.34071 -1.11545,-1.79971 -2.1055,-1.47838 z" />
    <path
       id="path290"
       style="fill:#0044aa;fill-opacity:1;stroke:#0044aa;stroke-width:0.264999;stroke-linecap:round;stroke-opacity:1"
       d="m 106.9927,236.07525 c 1.14633,-0.8849 3.65034,-1.25089 4.37546,-1.16758 -0.4934,0.0238 -2.06616,-0.0856 -0.76043,0.22832 1.42144,0.71843 0.97978,2.55877 0.2134,3.60291 -0.38976,1.28032 -2.28156,1.62404 -2.30825,2.847 1.04917,0.56597 2.59066,0.21699 3.43389,-0.65205 1.12235,-1.22774 2.33069,-2.70693 2.33139,-4.44981 -0.16733,-1.77826 -2.16854,-2.11326 -3.61385,-2.00999 -2.11005,-0.006 -4.33125,0.1432 -6.13723,1.36027 0.82185,0.0802 1.64392,0.16087 2.46562,0.24093 z" />
    <path
       id="path292"
       style="fill:#0044aa;fill-opacity:1;stroke:#0044aa;stroke-width:0.264999;stroke-linecap:round;stroke-opacity:1"
       d="m 119.03351,241.84034 c 1.26734,-0.41786 2.55931,-0.77317 3.87929,-0.97904 -0.73728,-0.64879 -1.82651,-0.35663 -2.72223,-0.44364 -1.33256,0.11916 -2.60374,0.57211 -3.84595,1.04374 0.86594,0.27876 1.79989,0.21124 2.68889,0.37894 z" />
    <path
       id="path294"
       style="fill:#0044aa;fill-opacity:1;stroke:#0044aa;stroke-width:0.264999;stroke-linecap:round;stroke-opacity:1"
       d="m 119.62847,244.92607 c 1.02016,-0.004 2.04522,-0.0156 3.05547,-0.17288 -0.59969,-0.55397 -1.50904,-0.24985 -2.23937,-0.45906 -1.37138,-0.11501 -2.74045,0.0983 -4.11178,0.0984 1.0918,0.21056 2.19929,0.34664 3.29568,0.53358 z" />
    <path
       id="path296"
       style="fill:#0044aa;fill-opacity:1;stroke:#0044aa;stroke-width:0.264999;stroke-linecap:round;stroke-opacity:1"
       d="m 131.05765,236.71791 c 0.56206,-0.61899 3.58422,-0.76452 1.35827,-0.78715 -1.43223,-0.18474 1.11387,0.92675 0.51506,1.88843 -0.24251,2.9187 -2.43573,5.1717 -4.40262,7.14341 -0.78437,0.76441 -3.53929,2.5209 -0.84865,2.39697 1.54855,0.17288 2.89148,-0.88161 4.45619,-0.70992 1.34387,0.023 -2.89026,-0.01 -0.63687,0.24714 1.52541,0.27466 4.545,1.0679 5.15053,-0.0396 -2.71336,-0.9172 -5.63497,-0.69567 -8.44694,-0.58697 -0.85407,-0.001 -2.70316,0.85786 -0.91296,1.19026 1.60418,0.74477 2.66276,-1.1279 3.63979,-2.06517 1.99762,-2.17104 4.51621,-4.36884 4.832,-7.48612 0.30195,-2.26379 -2.37609,-2.84794 -4.08572,-2.38707 -0.69507,0.15281 -3.18859,0.20587 -2.58877,1.0518 0.66039,-0.0169 1.31304,0.089 1.97069,0.144 z" />
    <path
       id="path298"
       style="fill:#0044aa;fill-opacity:1;stroke:#0044aa;stroke-width:0.264999;stroke-linecap:round;stroke-opacity:1"
       d="m 140.4538,241.50838 c 2.01173,0.90747 4.28384,0.60432 6.41218,0.43818 0.80622,-0.16333 2.12167,-0.26273 2.51517,-0.84862 -0.5865,-0.61072 -1.57079,-0.29725 -2.3295,-0.4774 -1.34204,3.5e-4 -2.62939,0.58953 -3.89382,0.84903 0.73118,0.0137 2.36779,0.0107 2.51663,0.0426 -1.07682,-0.0448 -2.12459,-0.55724 -3.21204,-0.25584 -0.66955,0.0839 -1.33922,0.16761 -2.00862,0.25209 z" />
    <path
       id="path300"
       style="fill:#0044aa;fill-opacity:1;stroke:#0044aa;stroke-width:0.264999;stroke-linecap:round;stroke-opacity:1"
       d="m 142.36453,242.10547 c -0.21427,1.44969 -0.35192,3.00932 0.25595,4.38589 0.44646,0.66795 1.35889,0.54579 2.05258,0.63915 0.39314,-0.085 1.23207,-0.55037 0.72956,-1.17607 -0.35358,-1.23804 -0.43608,-2.5393 -0.36343,-3.82037 -0.89155,-0.01 -1.7831,-0.0195 -2.67466,-0.0286 z" />
    <path
       id="path302"
       style="fill:#0044aa;fill-opacity:1;stroke:#0044aa;stroke-width:0.264999;stroke-linecap:round;stroke-opacity:1"
       d="m 145.58203,241.94928 c -0.0602,1.50054 0.76238,3.22798 2.32185,3.60201 0.82726,0.18224 1.70113,0.1472 2.52397,-0.0173 0.61135,-0.73053 -0.83056,-0.87569 -1.10241,-1.4444 -0.56542,-0.60667 -0.94097,-1.37067 -1.16216,-2.16511 -0.86041,0.008 -1.72089,0.0165 -2.58125,0.0248 z" />
    <path
       id="path304"
       style="fill:#0044aa;fill-opacity:1;stroke:#0044aa;stroke-width:0.264999;stroke-linecap:round;stroke-opacity:1"
       d="m 104.92119,257.32058 c -0.29732,4.31406 -2.2546,8.27058 -4.26143,12.02093 0.17796,1.20557 2.81587,0.95456 3.10597,-0.33351 1.69772,-3.63448 2.92084,-7.54395 3.06574,-11.57666 -0.60436,-0.31036 -1.28051,0.045 -1.91028,-0.11076 z" />
    <path
       id="path306"
       style="fill:#0044aa;fill-opacity:1;stroke:#0044aa;stroke-width:0.264999;stroke-linecap:round;stroke-opacity:1"
       d="m 105.30475,257.24545 c 1.48082,2.43962 2.55422,5.09443 3.95004,7.57795 0.43697,0.7958 1.17653,1.35364 1.93795,1.79687 1.39152,0.12166 1.01246,-1.76058 0.43655,-2.462 -1.30229,-2.48501 -3.03701,-4.70422 -4.62556,-7.00727 -0.56632,0.0314 -1.13273,0.0632 -1.69898,0.0944 z" />
    <path
       id="path308"
       style="fill:#0044aa;fill-opacity:1;stroke:#0044aa;stroke-width:0.264999;stroke-linecap:round;stroke-opacity:1"
       d="m 105.75802,263.86199 c 1.88702,-0.25535 3.72935,-0.78544 5.57596,-1.22223 1.51546,-0.7246 -1.62575,-0.66086 -2.2146,-0.4862 -1.99979,0.3285 -3.94321,0.93485 -5.94391,1.25929 0.45234,0.26256 1.83533,0.27496 2.58255,0.44914 z" />
    <path
       id="path310"
       style="fill:#0044aa;fill-opacity:1;stroke:#0044aa;stroke-width:0.264999;stroke-linecap:round;stroke-opacity:1"
       d="m 120.27903,262.51257 c 0.84223,-0.0805 1.69647,0.0465 2.53313,-0.1006 0.2727,-0.025 -0.12177,-0.16582 -0.2212,-0.20607 -0.64016,-0.20866 -1.32648,-0.0757 -1.97962,-0.20594 -1.1355,-0.0693 -2.27671,-0.0672 -3.41005,0.0369 1.02435,0.16853 2.05211,0.31562 3.07774,0.47576 z" />
    <path
       id="path312"
       style="fill:#0044aa;fill-opacity:1;stroke:#0044aa;stroke-width:0.264999;stroke-linecap:round;stroke-opacity:1"
       d="m 120.57537,266.01833 c 0.91995,-0.15733 1.84866,-0.25448 2.77215,-0.38763 -0.1089,-0.72509 -1.30266,-0.34244 -1.85432,-0.52185 -1.58786,-0.0953 -3.19243,0.0356 -4.7451,0.35838 1.27717,0.17376 2.55136,0.36882 3.82727,0.5511 z" />
    <path
       id="path314"
       style="fill:#0044aa;fill-opacity:1;stroke:#0044aa;stroke-width:0.264999;stroke-linecap:round;stroke-opacity:1"
       d="m 130.92929,260.79839 c 3.68956,0.81616 7.54079,0.78214 11.26129,0.22446 0.85741,-0.79404 -1.46727,-0.76271 -2.0308,-0.75525 -1.39733,0.008 -2.76585,0.32766 -4.15232,0.45818 0.72043,0.0499 2.2443,0.0195 2.45542,0.0438 -1.70093,0.0587 -3.38645,-0.37783 -5.07837,-0.31427 -0.8196,0.10567 -1.63608,0.23436 -2.45522,0.34305 z" />
    <path
       id="path316"
       style="fill:#0044aa;fill-opacity:1;stroke:#0044aa;stroke-width:0.264999;stroke-linecap:round;stroke-opacity:1"
       d="m 133.48585,261.08806 c -0.56428,1.54593 -0.85959,3.311 -2.09179,4.49658 -0.73404,0.64906 0.0542,1.91349 0.93983,1.50116 0.72177,-0.37397 1.63572,-0.28769 2.19894,-0.9594 0.97236,-0.95028 1.06865,-2.36824 1.20848,-3.63821 0.20545,-0.67211 0.46226,-1.52838 -0.58186,-1.36081 -0.5646,0.0622 -1.11257,-0.007 -1.6736,-0.0393 z" />
    <path
       id="path318"
       style="fill:#0044aa;fill-opacity:1;stroke:#0044aa;stroke-width:0.264999;stroke-linecap:round;stroke-opacity:1"
       d="m 136.78324,261.615 c 0.003,1.70176 0.16851,3.69817 1.64329,4.80795 0.78758,0.64831 1.8296,0.50457 2.76983,0.601 0.74007,0.23014 1.33061,-0.7047 0.38235,-0.88608 -1.55638,-0.91662 -2.26301,-2.79045 -2.2514,-4.52975 -0.84799,0.002 -1.69628,0.005 -2.54407,0.007 z" />
    <path
       id="path328"
       style="fill:#0044aa;fill-opacity:1;stroke:#0044aa;stroke-width:0.264999;stroke-linecap:round;stroke-opacity:1"
       d="m 71.895252,241.0526 c 3.386381,0.30946 6.781201,-0.0685 10.151733,-0.38835 -1.163936,-0.0437 -1.78216,0.049 -0.257429,0.14546 1.485394,0.17874 4.502372,0.6375 5.054916,0.11619 -1.102338,-0.24791 -0.986277,-0.1326 -0.258164,-0.25762 -3.914863,-0.63671 -7.901427,-0.50186 -11.814216,0.0778 2.195848,-0.0145 -1.496009,-0.1195 -2.092023,0.1825 l -0.392487,0.0638 -0.39233,0.0602 z" />
    <path
       id="path330"
       style="fill:#0044aa;fill-opacity:1;stroke:#0044aa;stroke-width:0.264999;stroke-linecap:round;stroke-opacity:1"
       d="m 84.826405,238.1154 c 1.502504,0.90696 3.218201,1.42558 4.739778,2.26547 -0.696343,0.49953 -1.379681,1.06948 -2.154512,1.49247 -0.789864,0.47657 -1.59681,0.92657 -2.359052,1.44743 -0.415096,0.0886 -0.946933,0.70369 -0.158373,0.79763 0.544867,0.21884 1.083757,0.38447 1.667995,0.20676 0.72843,-0.0262 1.516001,0.0206 2.109886,-0.49538 0.832922,-0.62208 1.662319,-1.25517 2.388132,-2.00668 0.368528,-0.60954 1.661211,-0.90496 1.26704,-1.73895 -0.649721,-0.29025 -1.37468,-0.46148 -2.0324,-0.76496 -0.964614,-0.39177 -1.916331,-0.81719 -2.810616,-1.34952 -0.712555,-0.21745 -1.462401,0.11529 -2.197793,0.10133 -0.15336,0.0148 -0.306721,0.0296 -0.460085,0.0444 z" />
    <path
       id="path332"
       style="fill:#0044aa;fill-opacity:1;stroke:#0044aa;stroke-width:0.264999;stroke-linecap:round;stroke-opacity:1"
       d="m 74.640156,266.07227 c 4.254042,-0.095 8.514227,-0.14381 12.758243,-0.46025 0.514689,-0.0611 1.737921,-0.27685 0.569347,-0.30345 -1.350443,-0.38079 -2.71283,-0.18432 -4.064169,0.0483 -3.522993,0.22781 -7.056,0.28507 -10.585136,0.37289 -0.544823,-0.0225 -0.925539,0.0331 -0.130444,0.12202 0.485525,0.064 0.967995,0.14775 1.452159,0.2205 z" />
    <path
       id="path334"
       style="fill:#0044aa;fill-opacity:1;stroke:#0044aa;stroke-width:0.264999;stroke-linecap:round;stroke-opacity:1"
       d="m 85.399646,262.1005 c 1.839949,0.86731 3.714497,1.67955 5.446618,2.75455 -0.421348,0.44272 -1.195797,1.10561 -1.832687,1.57028 -1.011196,0.81562 -2.013501,1.64458 -3.0665,2.40743 0.557321,0.64324 1.454447,1.0623 2.299555,0.62765 0.861179,-0.15835 1.802291,-0.17078 2.390134,-0.9482 0.783236,-0.6165 1.454144,-1.35677 2.106715,-2.10678 -0.484375,0.44417 0.378462,-0.59842 0.589885,-0.70702 0.877443,-0.93116 -0.654095,-1.28114 -1.283212,-1.61101 -1.496506,-0.69323 -2.96825,-1.45453 -4.456723,-2.1532 -0.732521,-0.11498 -1.456274,0.16735 -2.193785,0.1663 z" />
  </g>
</svg>
