<?xml version="1.0" encoding="UTF-8" standalone="no"?>
<svg
   xmlns:dc="http://purl.org/dc/elements/1.1/"
   xmlns:cc="http://creativecommons.org/ns#"
   xmlns:rdf="http://www.w3.org/1999/02/22-rdf-syntax-ns#"
   xmlns:svg="http://www.w3.org/2000/svg"
   xmlns="http://www.w3.org/2000/svg"
   xmlns:sodipodi="http://sodipodi.sourceforge.net/DTD/sodipodi-0.dtd"
   xmlns:inkscape="http://www.inkscape.org/namespaces/inkscape"
   width="1200"
   height="300"
   id="svg2"
   sodipodi:version="0.32"
   inkscape:version="1.0.1 (3bc2e813f5, 2020-09-07)"
   sodipodi:docname="np-1d-array.svg"
   version="1.0">
  <defs
     id="defs40" />
  <sodipodi:namedview
     id="base"
     pagecolor="#ffffff"
     bordercolor="#666666"
     borderopacity="1.0"
     inkscape:pageopacity="0.0"
     inkscape:pageshadow="2"
     inkscape:zoom="1.41"
     inkscape:cx="598.95139"
     inkscape:cy="110.62"
     inkscape:document-units="mm"
     inkscape:current-layer="layer1"
     inkscape:window-width="1920"
     inkscape:window-height="1061"
     inkscape:window-x="0"
     inkscape:window-y="19"
     width="12.8cm"
     height="9.6cm"
     units="cm"
     showgrid="false"
     grid_units="mm"
     inkscape:object-paths="false"
     inkscape:grid-points="true"
     inkscape:grid-bbox="true"
     inkscape:guide-points="true"
     showguides="false"
     inkscape:guide-bbox="true"
     inkscape:window-maximized="0"
     inkscape:snap-text-baseline="false"
     inkscape:snap-object-midpoints="true"
     inkscape:snap-grids="true"
     inkscape:snap-center="true"
     inkscape:snap-to-guides="false"
     fit-margin-top="0"
     fit-margin-left="0"
     fit-margin-right="0"
     fit-margin-bottom="0"
     inkscape:snap-page="true"
     inkscape:document-rotation="0"
     inkscape:snap-global="false">
    <inkscape:grid
       id="GridFromPre046Settings"
       type="xygrid"
       originx="-112.88582"
       originy="-135.563"
       spacingx="2mm"
       spacingy="2mm"
       color="#3f3fff"
       empcolor="#3f3fff"
       opacity="0.15"
       empopacity="0.38"
       empspacing="5" />
  </sodipodi:namedview>
  <metadata
     id="metadata7">
    <rdf:RDF>
      <cc:Work
         rdf:about="">
        <dc:format>image/svg+xml</dc:format>
        <dc:type
           rdf:resource="http://purl.org/dc/dcmitype/StillImage" />
        <dc:title />
      </cc:Work>
    </rdf:RDF>
  </metadata>
  <g
     inkscape:label="Layer 1"
     inkscape:groupmode="layer"
     id="layer1"
     transform="translate(-112.88582,51.40553)">
    <path
       id="path38"
       style="fill:#ffaaaa;fill-opacity:1;stroke:#ffaaaa;stroke-width:1px;stroke-linecap:butt;stroke-linejoin:miter;stroke-opacity:1"
       d="m 438.30453,129.72756 c 10.35405,9.83756 11.13612,25.18785 9.79156,38.51292 -0.46925,14.12297 -1.99563,28.37007 -7.03232,41.66282 -1.67056,6.52562 1.79261,13.59481 -2.09182,19.60909 -1.03776,8.00668 10.64757,-0.20106 14.99907,1.0026 9.48962,-1.20265 19.06915,-3.25585 28.60946,-1.14367 15.69754,2.85696 31.69811,1.61981 47.51479,0.74884 7.23393,4.07252 14.24655,-3.75131 7.73171,-9.59964 -7.24471,-5.23143 -8.43505,-14.29753 -6.8638,-22.53931 1.09249,-11.33936 -2.93266,-23.15394 1.80726,-34.10442 2.76571,-9.92769 1.48084,-20.4543 3.90534,-30.44223 -1.54148,-8.39945 -12.35867,-4.62565 -18.14642,-4.00556 -10.7868,0.37286 -21.5804,0.31343 -32.36079,1.0043 -12.98123,0.48445 -25.94692,-1.88601 -38.88209,-0.012 -3.00474,0.15003 -6.05247,0.0475 -8.98195,-0.69377 z" />
    <path
       id="path64"
       style="fill:#ffaaaa;fill-opacity:1;stroke:#ffaaaa;stroke-width:1px;stroke-linecap:butt;stroke-linejoin:miter;stroke-opacity:1"
       d="m 545.12791,131.42271 c -0.79138,14.46792 2.06037,29.61744 -3.96706,43.35379 -2.7278,9.26207 -1.76973,19.10986 -4.37587,28.38853 -0.97738,6.56351 7.20294,8.69344 8.75538,14.4264 1.44193,5.71736 -2.88367,17.11963 7.57421,12.87034 10.64415,-2.2416 21.41141,0.50675 32.13889,0.41664 7.33478,0.0826 14.59963,0.84745 21.7824,2.3147 10.73226,2.74078 7.34889,-9.9056 10.97875,-15.95467 3.10717,-13.23421 -0.98403,-27.398 4.48062,-40.21728 3.3,-8.04595 4.27957,-16.76278 3.17844,-25.3746 -1.29316,-7.07818 0.32833,-18.04732 -8.39409,-20.64816 -7.40856,-1.32733 -14.93895,1.25652 -22.45914,0.82226 -12.4895,0.49963 -25.05599,-0.5999 -37.45028,1.37131 -4.30259,0.74721 -8.048,-1.90564 -12.24225,-1.76926 z" />
    <path
       id="path72"
       style="fill:#ffaaaa;fill-opacity:1;stroke:#ffaaaa;stroke-width:1px;stroke-linecap:butt;stroke-linejoin:miter;stroke-opacity:1"
       d="m 636.72613,134.2514 c 6.69665,-0.83266 13.33156,-3.24114 20.00175,-0.74126 12.20418,0.84592 24.20288,-2.56161 36.4099,-2.43249 8.35339,-0.12885 16.66531,-1.33859 24.86736,-2.55085 7.4871,5.24439 -2.967,15.31306 -0.55858,23.13924 0.39136,13.95116 3.15126,27.74106 3.0568,41.73522 0.24081,10.00703 1.0424,20.01264 2.80477,29.86299 0.61016,7.72154 -7.67681,10.12774 -13.66069,7.56826 -16.2694,-2.64627 -32.64826,0.59882 -48.98524,-0.36587 -9.17383,-0.25604 -18.39797,0.13077 -27.40154,1.99897 -9.8853,-0.28915 -6.67314,-11.18093 -5.32364,-17.35339 3.32784,-13.78249 2.35885,-28.02791 3.96099,-42.02383 0.72687,-10.77763 2.39423,-22.88373 -4.54862,-32.13504 -2.1273,-4.99161 5.38867,-9.67919 9.37674,-6.70195 z" />
    <path
       id="path80"
       style="fill:#ffaaaa;fill-opacity:1;stroke:#ffaaaa;stroke-width:1px;stroke-linecap:butt;stroke-linejoin:miter;stroke-opacity:1"
       d="m 736.00036,131.81314 c -9.0149,7.93288 -12.94486,21.48596 -8.7176,32.85464 1.66462,13.05727 -0.97888,26.25192 0.76408,39.32866 0.33484,8.20509 -5.83653,27.77087 7.32254,27.07438 7.55988,-4.99455 16.0212,-1.48724 24.24543,-1.39148 8.90354,-1.7375 17.9317,-1.93245 27.03168,-2.11605 7.02651,-4.50793 16.57903,5.20395 21.0084,0.0832 -2.06755,-9.61739 -2.7558,-19.30429 0.0363,-28.87991 2.40138,-9.7904 5.47014,-19.8548 3.56214,-30.07855 -0.43425,-8.22539 -6.33748,-14.49621 -8.26228,-22.16745 -0.36954,-7.70788 -1.39862,-21.1012 -12.69435,-17.19296 -11.12013,3.28781 -22.87413,1.44288 -34.3207,1.79726 -6.66325,-0.0545 -13.3407,0.0128 -19.97567,0.68821 z" />
    <path
       id="path89"
       style="fill:#ffaaaa;fill-opacity:1;stroke:#ffaaaa;stroke-width:1px;stroke-linecap:butt;stroke-linejoin:miter;stroke-opacity:1"
       d="m 809.70531,131.5847 c -0.32354,9.32627 9.24229,15.49755 8.82923,25.00148 1.23934,13.87917 -2.12811,27.6485 -2.12142,41.52625 0.62565,9.83577 -7.4659,25.94413 3.58225,31.64116 8.97124,0.81471 18.04559,-0.96744 27.07969,-0.0603 12.05083,0.96845 24.06109,-0.3557 36.08379,-0.68847 6.35773,1.03821 18.59612,2.34436 13.63659,-8.06571 -3.08659,-9.11699 -2.63952,-19.05276 -4.26474,-28.54437 0.5418,-10.47706 4.93781,-20.45898 4.8772,-31.05318 2.12845,-8.17929 0.6142,-16.79488 -0.68501,-24.90742 -7.05905,-9.41465 -20.78268,-5.64264 -30.97689,-5.61199 -12.57477,0.91857 -25.36339,3.73376 -37.90704,1.83915 -5.69648,-0.98414 -13.369,-6.96086 -18.13365,-1.07657 z" />
    <path
       id="path98"
       style="fill:#ffaaaa;fill-opacity:1;stroke:#ffaaaa;stroke-width:1px;stroke-linecap:butt;stroke-linejoin:miter;stroke-opacity:1"
       d="m 904.86301,132.04982 c 5.15413,15.10421 -0.40296,30.77715 -4.40789,45.39452 -2.16735,13.9996 3.11379,28.00794 0.61194,42.00492 -0.2017,9.12725 9.70856,12.4121 16.78931,8.4744 10.52752,-1.00216 20.99044,2.41453 31.53937,0.60726 7.90029,-1.041 15.86793,-0.52676 23.68908,0.48169 9.56633,-1.20437 5.95311,-11.53619 5.94335,-17.93669 0.44044,-13.51326 1.81997,-26.9784 2.71509,-40.43978 -0.38355,-8.27753 -2.56457,-16.59833 -0.49851,-24.86206 1.18163,-8.22417 -8.17022,-10.81769 -14.55056,-10.97928 -13.77411,-2.81413 -27.90479,-3.72611 -41.88671,-2.03883 -6.64951,0.34362 -13.34904,0.29372 -19.94447,-0.70615 z" />
    <path
       id="path932"
       style="fill:#ff0000;fill-opacity:1;stroke:#ff0000;stroke-width:1.00157;stroke-linecap:round;stroke-opacity:1"
       d="m 436.91288,80.07732 c 4.68238,9.670615 5.51138,21.02469 2.56695,31.33236 1.13515,1.99346 4.36842,1.92023 6.26816,1.39527 1.1857,-1.92015 0.28822,-4.44856 0.62706,-6.61655 0.0969,-7.38681 -2.31287,-14.451584 -4.61988,-21.367612 -1.11236,-2.010952 -0.0932,-6.57581 -3.49263,-4.958618 -0.44989,0.0717 -0.89978,0.14341 -1.34966,0.21515 z" />
    <path
       id="path934"
       style="fill:#ff0000;fill-opacity:1;stroke:#ff0000;stroke-width:1.00157;stroke-linecap:round;stroke-opacity:1"
       d="m 450.26849,101.00331 c 77.79076,-12.756131 156.92401,-3.827391 235.284,-3.987738 83.85769,2.518508 167.56093,11.746098 251.49693,5.600278 12.91478,3.56573 62.69276,-1.13393 22.17333,-4.40992 -65.59941,2.66216 -131.34751,6.08066 -196.82484,-0.322806 C 659.37647,95.262121 555.81904,88.193478 453.04875,97.025121 l -2.76482,1.570039 z" />
    <path
       id="path936"
       style="fill:#ff0000;fill-opacity:1;stroke:#ff0000;stroke-width:1.00157;stroke-linecap:round;stroke-opacity:1"
       d="m 981.30874,83.25803 c 0.75171,7.399989 1.68204,14.8332 1.47148,22.28174 -0.31266,5.53257 -1.28477,11.08279 -3.35343,16.23165 -1.13989,3.17475 3.13241,3.69927 5.30664,3.41865 3.47241,-1.46518 2.05643,-6.53037 3.29958,-9.50257 1.79707,-7.6487 1.12961,-15.60188 -0.53414,-23.204895 -0.9135,-2.882098 -0.13404,-7.396361 -1.38523,-9.38909 -1.60163,0.05484 -3.20327,0.109677 -4.8049,0.164515 z" />
    <path
       id="path938"
       style="fill:#000000;fill-opacity:1;stroke:#000000;stroke-width:1.00157;stroke-linecap:round;stroke-opacity:1"
       d="m 521.40113,-29.233341 c -9.14751,-0.882301 -19.4581,6.788529 -18.40934,16.542853 0.95908,6.6745164 7.87154,9.106387 13.0444,11.4272175 1.7707,5.204996 -5.56399,6.9486778 -8.74091,9.3339673 -2.95293,1.531987 -11.03992,3.5766042 -5.54605,7.2926672 4.51974,2.402176 8.86366,-1.92778 12.60748,-3.988725 4.0279,-2.9111332 8.75893,-6.713039 8.85088,-12.1321202 -1.11171,-5.3670174 -8.01639,-4.1186779 -11.52058,-7.0128435 -4.87102,-2.6808003 -4.73842,-9.5365613 -0.84521,-13.0297753 1.31909,-2.737903 7.6001,-3.604458 7.55858,-4.397643 -0.48584,-1.71883 2.67421,-2.47717 3.00075,-4.035598 z" />
    <path
       id="path940"
       style="fill:#000000;fill-opacity:1;stroke:#000000;stroke-width:1.00157;stroke-linecap:round;stroke-opacity:1"
       d="m 532.84253,-25.016966 c 3.08796,6.46972 4.24874,13.77561 4.05111,20.9046358 -0.19745,3.5227933 -0.87691,7.0409021 -1.90879,10.3862083 0.19069,2.6796377 5.1545,2.9829147 5.42675,0.1642741 1.34866,-7.6949744 1.06737,-15.759734 -1.54157,-23.1719562 -0.92966,-2.995718 -1.9677,-5.957015 -2.86355,-8.963349 -1.05465,0.226728 -2.1093,0.453463 -3.16395,0.680187 z" />
    <path
       id="path942"
       style="fill:#000000;fill-opacity:1;stroke:#000000;stroke-width:1.00157;stroke-linecap:round;stroke-opacity:1"
       d="m 540.83983,-5.8151622 c 4.3629,-3.8260722 10.2949,-5.5694628 16.03063,-5.5276158 1.44851,0.421604 -3.27325,0.202114 -1.01666,0.513808 2.39292,0.770351 4.96076,0.08231 7.06952,-1.145873 2.9275,-1.536644 -0.54262,-3.753457 -2.53808,-3.445474 -8.03217,-1.16774 -15.98899,1.895893 -22.86794,5.7932538 -1.19723,0.5795814 -2.31532,1.2118097 -0.46363,1.7376366 1.26206,0.6914216 2.52411,1.3828452 3.78616,2.0742644 z" />
    <path
       id="path944"
       style="fill:#000000;fill-opacity:1;stroke:#000000;stroke-width:1.00157;stroke-linecap:round;stroke-opacity:1"
       d="m 565.34371,-31.023903 c -2.96605,5.123685 -5.22107,10.719492 -5.78262,16.659547 -0.79128,7.3943706 0.28194,15.1200333 3.59555,21.8155929 1.12708,1.1755969 5.52956,1.4866339 5.02546,0.3981404 2.80545,-2.7316198 -1.416,-5.5173385 -1.56217,-8.6235806 -2.65718,-8.3866014 -2.04586,-18.1093237 2.69253,-25.6482387 1.15149,-1.252516 2.53921,-3.090689 -0.1374,-3.207456 -1.2639,-0.493666 -2.55197,-0.934937 -3.83135,-1.394005 z" />
    <path
       id="path946"
       style="fill:#000000;fill-opacity:1;stroke:#000000;stroke-width:1.00157;stroke-linecap:round;stroke-opacity:1"
       d="m 580.3537,7.1413278 c 3.65802,-3.9826679 7.25799,-8.1450698 9.2942,-13.2302228 3.12274,-6.77335 5.75631,-13.823745 7.7519,-20.987438 -1.5335,-1.651325 -7.53478,-0.712245 -5.3339,2.811204 0.70899,8.745184 3.6212,17.1905851 7.28769,25.1041368 1.23713,2.635032 3.75621,6.1575185 6.90106,3.650244 4.01589,-2.8608431 -3.15359,-4.8306801 -3.32204,-8.2889358 -3.4975,-7.281051 -6.58054,-15.329815 -5.33962,-23.549842 -2.08862,-1.68661 -7.15087,-3.234229 -6.43833,1.100911 -0.5479,4.613898 -2.44664,8.955402 -3.86436,13.354424 -2.58864,6.5385939 -5.58685,13.5459514 -11.52832,17.7298688 1.53057,0.7685608 3.06118,1.5370353 4.59172,2.30565 z" />
    <path
       id="path948"
       style="fill:#000000;fill-opacity:1;stroke:#000000;stroke-width:1.00157;stroke-linecap:round;stroke-opacity:1"
       d="m 592.00142,-2.9485312 c 3.84669,-0.5627507 7.54241,-1.8377979 11.2358,-2.9967272 1.15682,-1.0176292 -0.33483,-2.4773116 -1.12095,-3.2298151 -1.55812,-0.9147355 -3.36677,-1.8853365 -5.23193,-1.5156705 -3.10559,1.3364256 -6.3708,2.4450827 -9.77166,2.6766788 1.62958,1.688502 3.25913,3.3770919 4.88874,5.065534 z" />
    <path
       id="path950"
       style="fill:#000000;fill-opacity:1;stroke:#000000;stroke-width:1.00157;stroke-linecap:round;stroke-opacity:1"
       d="m 623.90911,3.0415208 c -0.87615,-7.4386735 0.78253,-14.9229358 -0.20501,-22.3626298 -0.44202,-3.137398 1.34454,-5.96874 3.82317,-7.727709 0.9537,-1.801929 7.54075,-1.212249 2.93768,-1.194611 -0.34835,0.06182 4.08286,1.035257 3.94617,3.135834 1.04187,4.040237 -3.12241,6.966477 -6.26998,8.527037 -3.94225,0.447109 -3.97192,5.465911 0.0392,5.416312 4.47746,0.449763 8.3192,-2.834133 10.87927,-6.166638 2.87296,-3.849212 3.2458,-9.825671 -0.45607,-13.284277 -4.01711,-3.714658 -10.45955,-3.620862 -15.12568,-1.271768 -3.99704,2.671979 -7.61692,7.340373 -6.69135,12.422767 0.56323,5.392668 1.04241,10.8073551 0.65499,16.2310524 0.32005,2.3744116 -1.8871,7.5319716 2.48553,6.3331117 1.32926,-0.2943044 2.64376,0.030346 3.98204,-0.058481 z" />
    <path
       id="path952"
       style="fill:#000000;fill-opacity:1;stroke:#000000;stroke-width:1.00157;stroke-linecap:round;stroke-opacity:1"
       d="m 652.09375,-26.776506 c 2.37748,5.967437 1.78246,12.574861 1.23296,18.8274234 -0.39086,3.2579396 -1.13634,6.5388566 -2.77087,9.4151786 1.95324,1.1313771 4.42718,1.038693 6.5754,1.3995484 2.49472,-1.2030573 4.92591,-2.592228 7.78332,-2.8417805 2.87408,-1.1928878 6.51721,0.5203174 8.94929,-1.3790576 -0.44961,-2.3948832 -3.21212,-4.5549107 -6.05568,-4.4550442 -2.71151,0.6030993 -5.48671,0.9371739 -8.15556,1.7168966 -2.65875,0.9112807 -5.07754,2.3780935 -7.68105,3.4213621 1.6608,0.5402003 5.08053,4.86617 5.30632,1.3688157 0.36928,-4.7813176 1.30697,-9.5234017 1.13532,-14.3433735 -0.0419,-4.53169 -0.48974,-9.120561 -1.38678,-13.528591 -1.50175,-0.808205 -3.30625,0.533166 -4.93267,0.398622 z" />
    <path
       id="path954"
       style="fill:#000000;fill-opacity:1;stroke:#000000;stroke-width:1.00157;stroke-linecap:round;stroke-opacity:1"
       d="m 658.92846,-9.8408372 c 3.53913,-2.0461478 7.75465,-2.1057488 11.53889,-3.4656968 1.819,-1.989974 -1.58944,-3.718988 -3.37494,-3.472302 -3.74117,-0.04682 -7.13802,1.809214 -10.63001,2.894629 -3.24995,0.977595 0.74175,2.671384 1.98317,3.639629 l 0.24585,0.19637 z" />
    <path
       id="path956"
       style="fill:#000000;fill-opacity:1;stroke:#000000;stroke-width:1.00157;stroke-linecap:round;stroke-opacity:1"
       d="m 655.92363,-20.50302 c 5.65184,-1.94756 10.55598,-5.607723 16.30101,-7.32362 1.56638,-0.728014 0.3594,-3.060584 -0.51779,-3.723367 -1.16352,-0.310509 -2.21043,-1.027494 -3.42926,-1.085239 -2.80607,-0.03547 -5.00769,1.976936 -7.38791,3.166237 -3.27802,1.81953 -6.66762,3.444024 -10.16687,4.792877 1.73361,1.391034 3.46721,2.782078 5.20082,4.173112 z" />
    <path
       id="path958"
       style="fill:#000000;fill-opacity:1;stroke:#000000;stroke-width:1.00157;stroke-linecap:round;stroke-opacity:1"
       d="m 702.49512,-12.114574 c 4.74887,-1.892553 9.88126,-2.498114 14.90992,-3.198578 2.06679,-0.217025 4.14162,-0.353511 6.2049,-0.604615 1.54369,-1.717921 -1.34686,-3.658632 -2.93776,-4.402722 -2.25828,-0.97846 -4.63572,0.208081 -6.92804,0.422764 -4.94,0.835485 -9.86499,1.828873 -14.69033,3.160981 -2.9975,0.147681 0.46234,1.899816 1.26679,2.791277 0.72484,0.610298 1.44968,1.220596 2.17452,1.830893 z" />
    <path
       id="path960"
       style="fill:#000000;fill-opacity:1;stroke:#000000;stroke-width:1.00157;stroke-linecap:round;stroke-opacity:1"
       d="m 701.04539,-4.3257352 c 8.6777,0.2422829 17.32491,-1.8678513 25.9935,-0.7317835 -4.39085,0.620356 3.67458,-7.2853923 -2.48203,-5.6975323 -6.63999,0.7576167 -15.94828,1.4539518 -20.86644,2.9135107 0.14466,1.6844678 -2.14367,2.0950194 -2.64503,3.5158051 z" />
    <path
       id="path962"
       style="fill:#000000;fill-opacity:1;stroke:#000000;stroke-width:1.00157;stroke-linecap:round;stroke-opacity:1"
       d="m 765.9778,-33.839974 c -4.40658,3.279008 -8.81459,7.06335 -10.61648,12.439859 -1.98316,5.43075 -3.22205,11.5638464 -0.95587,17.1221361 2.34552,6.7935032 8.4371,12.6622027 15.80213,13.2090277 2.53961,-0.31523 6.21457,-2.0455109 4.73597,-4.6875211 -5.16732,-0.1210729 -11.10415,-1.784824 -13.66502,-6.7290085 -4.87091,-8.0879162 -1.97911,-18.9786912 4.50314,-25.3018512 0.68275,-1.728465 6.27568,-2.944524 3.14142,-4.206771 -0.98176,-0.61529 -1.96353,-1.230581 -2.94529,-1.845871 z" />
    <path
       id="path964"
       style="fill:#000000;fill-opacity:1;stroke:#000000;stroke-width:1.00157;stroke-linecap:round;stroke-opacity:1"
       d="m 797.40695,-33.499963 c -6.44808,5.296746 -11.80284,12.330326 -13.75918,20.547587 -1.35076,6.0845833 2.24804,13.7097301 8.83588,14.6614082 7.38479,1.7698882 16.48197,0.9000898 21.44374,-5.5040954 2.84354,-3.5455795 2.37573,-9.4556208 -1.73324,-11.8176028 -4.14971,-2.6042 -9.33486,-2.323572 -14.01761,-1.99752 -4.30728,0.686028 -7.93684,3.586306 -10.67222,6.831984 -1.59668,3.2375773 3.51457,4.5830504 5.68245,2.8182037 2.12377,-2.0808257 4.41825,-4.1696517 7.4721,-4.6980837 2.20186,-0.417323 1.57616,-0.113398 -0.25386,-0.306711 3.02218,-0.105938 8.0957,-0.05105 8.47576,3.8879625 -0.37482,4.8280936 -7.27237,7.0024509 -9.59653,7.5171249 -2.27699,0.3133148 -8.85592,-0.734969 -9.76315,-5.0358112 -2.12082,-5.4976332 0.24621,-11.5202882 3.01943,-16.3306382 2.15368,-3.434061 5.15614,-6.368196 8.7523,-8.264744 -1.29529,-0.769688 -2.59059,-1.539361 -3.88587,-2.309064 z" />
    <path
       id="path966"
       style="fill:#000000;fill-opacity:1;stroke:#000000;stroke-width:1.00157;stroke-linecap:round;stroke-opacity:1"
       d="m 832.33642,-1.6634132 c -0.3634,3.014246 -2.89805,5.0275435 -4.61237,7.3204801 -1.95367,2.3636069 -4.18703,4.4704481 -6.49726,6.4732731 -1.3972,1.117893 -1.73636,3.753177 0.1608,4.535291 2.56799,0.705852 5.34793,-0.483492 6.97201,-2.527942 3.24786,-4.010056 7.18441,-7.8115667 8.55262,-12.9544641 0.91242,-1.0324631 0.97407,-2.3554509 -0.62363,-2.2062628 -1.31739,-0.2134584 -2.63478,-0.4269168 -3.95217,-0.6403753 z" />
    <path
       id="path968"
       style="fill:#000000;fill-opacity:1;stroke:#000000;stroke-width:1.00157;stroke-linecap:round;stroke-opacity:1"
       d="m 853.75952,-34.471469 c 7.00228,6.826553 8.7933,17.805366 6.10222,26.959849 -1.7469,5.2147241 -5.82593,9.0969129 -9.7957,12.6841225 -3.00778,2.9678433 1.8642,5.9982065 4.44938,3.5610873 2.55492,-1.8756921 4.53635,-4.4728965 6.72605,-6.7682816 4.26578,-4.7735343 5.65807,-11.4387924 5.69696,-17.6743132 -0.54191,-7.270594 -2.7148,-14.680309 -7.42351,-20.375718 -1.88741,-1.157676 -3.89146,1.386608 -5.7554,1.613254 z" />
    <path
       id="path970"
       style="fill:#ff0000;fill-opacity:1;stroke:#ff0000;stroke-width:1.00157;stroke-linecap:round;stroke-opacity:1"
       d="m 790.34688,21.401681 c -5.10117,16.022808 -22.54895,24.531768 -38.5481,24.071367 -17.38489,0.557754 -36.82708,-2.248535 -51.67712,8.943448 -9.40745,8.23579 -15.64667,20.061728 -18.38256,32.176873 3.11409,5.921788 9.99305,-1.830232 8.42465,-6.947993 4.28488,-12.837509 13.1038,-25.5954 27.12819,-28.631176 19.51175,-4.840223 41.0509,2.494278 59.51251,-7.418584 8.16149,-4.121139 15.47089,-11.403003 17.02668,-20.680215 -0.10326,-1.653226 -2.38686,-1.682937 -3.48425,-1.51372 z" />
    <path
       id="path972"
       style="fill:#000000;fill-opacity:1;stroke:#000000;stroke-width:1.00157;stroke-linecap:round;stroke-opacity:1"
       d="m 478.39469,153.20507 c -4.91667,10.26913 -10.84524,21.0261 -9.39649,32.83877 0.56431,8.76963 3.34574,19.26971 12.12564,23.14013 8.23011,3.49319 16.64632,-1.84003 22.78139,-7.00465 8.26127,-8.20266 8.32801,-21.02531 6.56158,-31.76994 -1.51708,-7.24143 -4.31412,-14.43257 -8.93136,-20.25468 -4.32429,-4.29183 -10.18281,-1.17239 -13.35079,2.76293 -5.10034,1.85204 -6.21805,9.5148 0.76889,7.69506 3.52157,-0.82302 6.11776,-5.91186 8.33759,-6.59034 -2.06373,0.8476 -4.96247,-0.86466 -1.24558,0.4274 4.42582,4.31762 6.61276,10.53703 7.85785,16.48459 1.08004,7.28879 1.58613,15.1534 -1.19064,22.12535 -2.95173,6.34475 -9.10656,10.94627 -15.88208,12.4728 6.00573,0.2972 -4.04462,0.23927 -4.67745,-2.29036 -7.52934,-7.48695 -8.43719,-19.42417 -6.04704,-29.30037 1.67083,-6.65842 4.6674,-12.85719 7.42012,-19.11078 -1.71055,-0.54193 -3.42101,-1.08422 -5.13163,-1.62591 z" />
    <path
       id="path974"
       style="fill:#000000;fill-opacity:1;stroke:#000000;stroke-width:1.00157;stroke-linecap:round;stroke-opacity:1"
       d="m 572.06061,169.57228 c 4.22807,-4.05879 8.71245,-8.43541 9.94858,-14.40734 1.17989,-2.9836 3.65603,-11.07783 -2.24328,-7.35584 -1.96569,3.48275 0.32191,8.42819 -0.35747,12.58621 -0.0976,13.90182 -0.91224,27.79142 -1.63821,41.67025 -1.05822,2.94523 -0.43679,6.19279 3.39053,4.86757 6.33622,1.50447 2.19907,-6.3934 3.38716,-9.66251 0.36888,-14.68688 0.24633,-29.37819 -0.51927,-44.05179 1.44679,-3.71448 -2.5085,-9.26288 -5.61167,-5.29092 0.62764,7.68104 -3.76402,15.54655 -10.29433,19.57361 1.31268,0.6902 2.62513,1.38085 3.93796,2.07076 z" />
    <path
       id="path976"
       style="fill:#000000;fill-opacity:1;stroke:#000000;stroke-width:1.00157;stroke-linecap:round;stroke-opacity:1"
       d="m 666.87091,164.0432 c 0.39434,-3.24485 3.49641,-6.71147 6.70369,-6.94413 2.56934,1.35738 3.98796,4.33814 4.5835,7.07814 0.93463,6.55744 -2.53991,12.76613 -6.40914,17.7924 -4.76185,5.98942 -10.36402,11.23622 -15.48212,16.91157 -1.83363,1.93266 -3.71841,3.82658 -5.78712,5.50996 -1.51656,3.40829 3.38134,4.6434 5.8889,4.69916 3.25222,-0.0376 5.73779,-2.52311 8.85366,-3.15257 6.70032,-1.93171 13.75601,-1.88032 20.66315,-2.10073 2.86614,0.48855 6.17192,1.65365 9.18326,-0.49018 1.50065,-1.34437 5.64366,-0.80473 4.78702,-4.17686 -1.83345,-2.09753 -5.40994,0.35857 -7.97661,-0.43514 -12.37815,0.12491 -25.17601,-0.0733 -36.88395,4.54333 -3.50858,-1.09071 -3.44696,3.94317 -0.4495,4.41284 3.73732,2.16966 4.98515,-2.92351 6.70181,-5.03588 7.52119,-9.59063 17.53713,-17.66424 21.84989,-29.41391 2.58321,-6.46186 0.56081,-14.88815 -5.61761,-18.53305 -3.27873,-1.87054 -7.94851,-1.88382 -10.56345,1.148 -1.86904,1.98042 -3.2076,4.4755 -4.14567,6.99221 0.7169,1.02433 2.91016,0.64221 4.10029,1.19484 z" />
    <path
       id="path978"
       style="fill:#000000;fill-opacity:1;stroke:#000000;stroke-width:1.00157;stroke-linecap:round;stroke-opacity:1"
       d="m 761.16787,156.02408 c 1.59005,-1.5076 6.25256,-2.26659 5.47136,-0.98722 6.06047,1.78111 4.38964,10.70837 -0.87168,12.56169 -1.52848,1.515 -10.08539,2.06272 -4.89279,0.65182 3.80318,-0.42874 3.65271,5.17915 4.51445,5.72524 1.51811,-0.2702 4.29808,-0.42788 1.25004,-0.29964 3.93479,0.0934 11.22058,1.98769 10.0432,7.02383 -2.89579,3.20086 -7.2028,4.83796 -10.69132,7.37009 -6.75056,4.09437 -13.82018,7.69573 -20.46722,11.93304 0.1705,3.159 6.08813,6.85694 9.37667,4.87142 8.30513,-6.90246 17.93193,-11.95745 26.7786,-18.10193 4.67356,-3.45312 4.6146,-11.0442 -0.41259,-14.19177 -6.63643,-4.73038 -15.719,-5.44179 -23.3782,-3.04824 -5.27919,3.24041 2.2436,8.4516 6.00098,5.62515 6.24873,-1.84722 13.08555,-6.78218 12.67368,-14.03567 0.0757,-4.91488 -3.4914,-10.10295 -8.7496,-10.13997 -2.84891,-0.43585 -11.55111,0.13702 -8.87191,4.10226 0.7617,0.30293 1.53917,0.46778 2.22633,0.9399 z" />
    <path
       id="path982"
       style="fill:#000000;fill-opacity:1;stroke:#000000;stroke-width:1.00157;stroke-linecap:round;stroke-opacity:1"
       d="m 849.67461,148.08141 c -2.83077,7.96069 -7.26629,15.27822 -12.02847,22.20119 -4.44704,2.75626 -2.39356,8.93713 2.95412,7.81533 7.67689,0.68867 15.40483,0.87457 23.11729,0.77686 2.53252,-0.027 7.07606,0.43753 10.40563,0.68295 4.08619,0.24248 8.27641,0.54581 12.31106,0.0308 1.62367,-3.13237 -4.77903,-5.88756 -6.08241,-5.02856 2.56297,0.0595 -3.58582,0.009 -4.81178,-0.14057 -4.61003,-0.33647 -12.61317,-0.24281 -15.13013,-0.29324 -1.78714,0.0883 -8.31624,0.2317 -11.7557,-0.0899 -2.72859,0.30121 -9.23416,-3.01699 -6.69257,1.84096 4.48026,-8.53561 8.03387,-17.61557 12.49997,-26.14699 -0.60896,-1.4237 -3.47549,-0.85527 -4.78701,-1.6488 z" />
    <path
       id="path984"
       style="fill:#000000;fill-opacity:1;stroke:#000000;stroke-width:1.00157;stroke-linecap:round;stroke-opacity:1"
       d="m 862.56225,158.5892 c -1.05017,9.94944 -0.80362,19.94965 -0.45015,29.92722 0.23629,7.1023 0.0401,14.23628 -0.73679,21.2882 1.26479,3.70469 8.1296,2.107 7.04712,-2.0793 -0.20921,-7.83937 0.0576,-15.69507 -0.39573,-23.53839 -0.11397,-7.46651 -1.16751,-14.97819 -0.2336,-22.41926 2.15701,-4.31502 -2.65036,-2.20344 -5.23085,-3.17847 z" />
    <path
       id="path988"
       style="fill:#000000;fill-opacity:1;stroke:#000000;stroke-width:1.00157;stroke-linecap:round;stroke-opacity:1"
       d="m 950.1166,148.45299 c -3.54861,0.45256 -10.6587,0.90016 -12.06311,0.55228 5.14617,-0.0297 -4.02609,-0.45832 -5.59417,-0.44002 -5.64582,0.25268 -3.50448,7.15517 -3.99644,10.86759 0.14103,3.96618 -2.08711,11.00238 3.19636,12.25262 3.37477,-0.2714 10.21814,-0.25583 11.41992,-0.29394 -2.1837,-0.22535 7.22126,0.83716 7.49818,4.38782 4.07467,7.32388 2.24188,16.93018 -3.73027,22.67183 -4.15735,4.57351 -10.16659,6.56883 -15.65141,8.89669 -3.51542,5.68785 7.18422,4.13428 10.00492,2.33628 9.25671,-4.13984 18.15388,-12.47736 18.60353,-23.19833 0.18078,-6.3148 -1.56082,-13.28085 -6.38274,-17.62182 -5.09088,-3.5423 -11.57226,-2.47809 -17.39921,-2.71519 2.89378,0.43142 2.31708,-0.91466 0.15889,0.0679 0.83379,3.22603 -0.4275,-4.6649 -0.27423,-6.25368 -1.09085,-2.51536 2.80716,-8.67969 -1.16711,-5.21033 -2.9429,0.28321 -4.42384,-0.25228 -0.51962,0.16855 6.63994,0.36964 13.36108,-0.62142 19.79209,-1.86523 -0.48063,-1.97701 -2.8979,-2.88728 -3.89558,-4.60302 z" />
  </g>
</svg>
