<?xml version="1.0" encoding="UTF-8" standalone="no"?>
<svg
   xmlns:dc="http://purl.org/dc/elements/1.1/"
   xmlns:cc="http://creativecommons.org/ns#"
   xmlns:rdf="http://www.w3.org/1999/02/22-rdf-syntax-ns#"
   xmlns:svg="http://www.w3.org/2000/svg"
   xmlns="http://www.w3.org/2000/svg"
   xmlns:sodipodi="http://sodipodi.sourceforge.net/DTD/sodipodi-0.dtd"
   xmlns:inkscape="http://www.inkscape.org/namespaces/inkscape"
   width="1200"
   height="600"
   id="svg2"
   sodipodi:version="0.32"
   inkscape:version="1.0.1 (3bc2e813f5, 2020-09-07)"
   sodipodi:docname="np-2d-array.svg"
   version="1.0">
  <defs
     id="defs80" />
  <sodipodi:namedview
     id="base"
     pagecolor="#ffffff"
     bordercolor="#666666"
     borderopacity="1.0"
     inkscape:pageopacity="0.0"
     inkscape:pageshadow="2"
     inkscape:zoom="1.4142136"
     inkscape:cx="620.65259"
     inkscape:cy="294.13314"
     inkscape:document-units="mm"
     inkscape:current-layer="layer1"
     inkscape:window-width="1920"
     inkscape:window-height="1061"
     inkscape:window-x="0"
     inkscape:window-y="19"
     width="12.8cm"
     height="9.6cm"
     units="cm"
     showgrid="false"
     grid_units="mm"
     inkscape:object-paths="true"
     inkscape:grid-points="true"
     inkscape:grid-bbox="true"
     inkscape:guide-points="true"
     showguides="false"
     inkscape:guide-bbox="true"
     inkscape:window-maximized="0"
     inkscape:snap-text-baseline="true"
     inkscape:snap-object-midpoints="false"
     inkscape:snap-grids="true"
     inkscape:snap-center="false"
     inkscape:snap-to-guides="false"
     inkscape:snap-midpoints="true"
     inkscape:snap-smooth-nodes="true"
     inkscape:document-rotation="0"
     inkscape:snap-global="false">
    <inkscape:grid
       id="GridFromPre046Settings"
       type="xygrid"
       originx="0px"
       originy="0px"
       spacingx="2mm"
       spacingy="2mm"
       color="#3f3fff"
       empcolor="#3f3fff"
       opacity="0.15"
       empopacity="0.38"
       empspacing="5" />
  </sodipodi:namedview>
  <metadata
     id="metadata7">
    <rdf:RDF>
      <cc:Work
         rdf:about="">
        <dc:format>image/svg+xml</dc:format>
        <dc:type
           rdf:resource="http://purl.org/dc/dcmitype/StillImage" />
        <dc:title></dc:title>
      </cc:Work>
    </rdf:RDF>
  </metadata>
  <g
     inkscape:label="Layer 1"
     inkscape:groupmode="layer"
     id="layer1"
     transform="translate(0,-84.157471)">
    <path
       id="path77"
       style="fill:#ffaaaa;stroke:#ffaaaa;stroke-width:1px;stroke-linecap:butt;stroke-linejoin:miter;stroke-opacity:1"
       d="m 451.2489,539.29678 c 8.98588,22.73838 6.77749,47.5923 6.99281,71.49664 -0.0412,11.5549 -3.19866,22.71581 -4.99135,34.03591 -4.06114,4.83313 -5.1053,13.34568 3.97491,10.29921 8.573,-3.07883 16.70749,-7.91162 26.06367,-8.44546 18.33225,-2.76966 35.94417,7.73066 54.27919,3.72424 9.45221,-2.63063 19.56367,-2.56495 28.83783,-0.0245 6.49415,-4.87754 -5.10496,-14.60092 -0.60815,-22.05034 2.20691,-10.4719 3.71771,-21.10494 2.42919,-31.8107 -1.18936,-12.37007 -1.47369,-24.81937 -2.54494,-37.17651 -3.07557,-8.46194 -1.36721,-17.28659 -2.7403,-25.60868 -6.84552,-3.31077 -15.57474,-0.50456 -23.18861,-0.47343 -12.95268,1.32429 -25.98236,1.22867 -38.86422,3.32303 -14.62944,-0.005 -29.04825,3.52416 -43.6985,2.60124 -1.98083,0.0145 -3.9615,0.051 -5.94153,0.10939 z" />
    <path
       id="path91"
       style="fill:#ffaaaa;stroke:#ffaaaa;stroke-width:1px;stroke-linecap:butt;stroke-linejoin:miter;stroke-opacity:1"
       d="m 571.46825,532.93976 c 6.51459,35.60451 7.42111,72.25827 2.05562,108.06522 1.59769,14.33656 18.96073,10.6921 27.93433,6.30779 17.32105,-3.6308 35.16213,-3.53595 52.71018,-2.11645 8.14572,-3.5482 21.03048,-2.48243 26.45759,-3.31467 6.04638,-22.46713 7.60834,-46.35498 1.41162,-68.97492 -1.27616,-10.0415 -8.16753,-19.62433 -5.14432,-29.88333 3.07869,-7.94559 -0.55208,-12.03987 -7.15125,-6.19559 -11.89738,5.66159 -25.22095,0.72987 -37.7603,1.04966 -20.22504,-1.11699 -41.73658,5.7212 -60.51347,-4.93771 z" />
    <path
       id="path100"
       style="fill:#ffaaaa;stroke:#ffaaaa;stroke-width:1px;stroke-linecap:butt;stroke-linejoin:miter;stroke-opacity:1"
       d="m 694.42667,534.75241 c -6.34959,4.84103 -10.33054,13.20062 -6.81689,20.9804 3.33952,9.58081 5.97878,19.38143 6.44192,29.56451 1.16058,14.27858 4.01108,28.89144 -0.059,42.9776 -2.2749,6.58615 -1.4986,17.62735 7.67373,17.5212 15.47072,-4.38087 30.19807,6.10164 45.73589,3.5767 10.92817,-1.08873 21.99139,-1.44033 32.80584,0.72822 6.6282,0.12317 17.66145,-1.92373 16.57184,-10.69535 -1.51244,-9.60412 -0.67482,-19.3478 -0.88925,-29.04581 -0.0632,-11.53481 5.11311,-22.3509 4.47411,-33.95466 -0.20386,-8.98597 0.0852,-18.08166 -0.73885,-26.99681 -3.4935,-9.34529 -15.08066,-9.37906 -23.3328,-10.91888 -25.61818,-2.26877 -51.58978,2.10002 -77.04531,-2.8037 -1.61242,-0.28263 -3.22001,-0.59326 -4.82123,-0.93342 z" />
    <path
       id="path108"
       style="fill:#ffaaaa;stroke:#ffaaaa;stroke-width:1px;stroke-linecap:butt;stroke-linejoin:miter;stroke-opacity:1"
       d="m 809.31438,541.78157 c 0.0482,14.43587 0.99946,29.00564 -1.73394,43.27586 -1.48188,19.09441 2.22431,39.22136 -5.9252,57.26943 -1.17109,7.56755 7.90176,10.46274 13.9102,9.30202 15.09609,-2.70763 30.54593,-1.19701 45.80723,-1.70693 16.55843,-0.13171 33.20888,-0.71978 49.51155,-3.84808 0.33626,-11.62733 -7.14172,-22.13016 -5.03395,-33.99485 -0.11486,-15.78341 2.8802,-31.34999 4.0737,-47.04456 6.04332,-9.54922 -0.70717,-24.20291 -12.41362,-24.38948 -22.19552,-0.35267 -44.34905,2.49172 -66.56089,2.41458 -7.1954,0.50942 -14.75366,1.53066 -21.63508,-1.27799 z" />
    <path
       id="path117"
       style="fill:#ffaaaa;stroke:#ffaaaa;stroke-width:1px;stroke-linecap:butt;stroke-linejoin:miter;stroke-opacity:1"
       d="m 922.92974,544.48065 c 3.59072,13.50846 0.28464,27.40143 -2.86924,40.61686 -2.7822,14.69553 -2.34931,30.03141 1.86173,44.40548 1.98504,5.61916 -4.84152,17.01327 4.83488,16.18968 15.16985,0.64599 30.43533,2.92222 45.58423,0.43468 12.04105,-1.04535 23.27166,-7.04707 35.46686,-6.5357 7.1627,4.20011 14.988,-1.27131 10.4791,-9.28166 -4.1546,-21.06397 -7.233,-42.40099 -8.2701,-63.85432 -1.1704,-7.51784 2.2326,-14.84506 1.3103,-22.16988 -4.3896,-4.87263 -12.84349,-4.68875 -19.19364,-5.84169 -16.56545,0.30018 -32.22009,7.8685 -48.93626,6.4411 -6.75593,-0.12797 -13.50838,-0.57763 -20.26786,-0.40455 z" />
    <path
       id="path123"
       style="fill:#ffaaaa;stroke:#ffaaaa;stroke-width:1px;stroke-linecap:butt;stroke-linejoin:miter;stroke-opacity:1"
       d="m 452.83218,414.44733 c 2.15235,11.47175 7.67289,22.31444 6.53835,34.29499 0.95814,22.2453 -2.44538,44.38109 -2.72649,66.56762 -3.21671,5.20024 -3.88157,15.56429 4.6567,8.96294 9.71607,-8.05828 22.83858,-2.67745 34.24725,-5.18968 19.26804,-1.94242 39.116,-4.15648 57.95213,1.79435 14.19851,7.27411 18.31084,-12.17602 10.18722,-20.66408 -4.18263,-14.1411 -1.90328,-29.16736 -3.47528,-43.68817 -0.93029,-13.97557 0.0303,-28.03319 1.26301,-41.87841 -3.3263,-14.74607 -19.08793,-6.37086 -28.75039,-5.08625 -22.31134,3.44923 -45.09853,4.26371 -67.5089,1.47446 -4.33333,-0.0492 -8.80259,0.85381 -12.3836,3.41223 z" />
    <path
       id="path132"
       style="fill:#ffaaaa;stroke:#ffaaaa;stroke-width:1px;stroke-linecap:butt;stroke-linejoin:miter;stroke-opacity:1"
       d="m 572.68359,411.66197 c -6.30159,29.45209 -4.44223,60.1723 2.87923,89.2525 4.17752,7.12009 -4.48542,16.36682 0.004,21.53752 18.26952,-0.73992 36.54666,-3.27102 54.88256,-3.63847 13.5384,-0.49136 26.69482,2.99961 39.80359,5.77876 11.97759,3.66164 11.47906,-10.36607 8.57564,-17.7202 -6.22734,-20.57674 -1.71007,-42.09341 -1.63906,-63.10087 -1.94279,-11.31876 -4.68809,-22.69263 -6.5128,-33.85682 -5.31798,-8.64644 -16.4299,-5.69079 -24.85437,-5.59084 -12.53811,0.2102 -24.64064,3.53447 -36.95119,5.42564 -9.16772,0.9944 -18.23065,4.30698 -27.57845,2.57378 -2.86833,-0.23785 -5.73363,-0.52519 -8.6094,-0.661 z" />
    <path
       id="path140"
       style="fill:#ffaaaa;stroke:#ffaaaa;stroke-width:1px;stroke-linecap:butt;stroke-linejoin:miter;stroke-opacity:1"
       d="m 689.19979,413.66306 c 4.51132,21.94128 -10.48316,42.61863 -5.65919,64.64511 1.82345,13.61886 5.63031,27.23848 3.60268,41.0557 0.18496,16.22762 18.79258,7.30694 28.19057,6.09228 16.45169,-1.43888 33.27889,-2.93336 49.42102,1.55098 11.19952,-1.80654 27.94161,9.07315 35.02768,-1.07455 0.65052,-10.66256 -1.00727,-21.4554 -1.40098,-32.19159 -3.3574,-19.23799 -6.93254,-38.47001 -7.55316,-58.05394 -0.36118,-10.44844 -0.4705,-27.74029 -15.41144,-26.01271 -18.22672,0.29955 -35.1792,8.25456 -53.19646,9.74856 -11.30691,-0.0935 -21.62366,-6.55699 -33.02072,-5.75984 z" />
    <path
       id="path149"
       style="fill:#ffaaaa;stroke:#ffaaaa;stroke-width:1px;stroke-linecap:butt;stroke-linejoin:miter;stroke-opacity:1"
       d="m 802.70938,411.27467 c 0.37048,16.43157 -0.0787,33.04696 3.83725,49.13076 2.11048,17.55039 2.20508,35.32602 3.17608,52.91581 -2.09464,6.68634 -8.48118,20.4067 4.29532,15.73739 19.00902,0.67397 38.02072,0.0554 57.03399,-0.3796 9.83671,0.62505 19.44937,0.49941 29.24914,1.24855 12.86417,-0.881 -0.13579,-14.54704 4.2625,-22.02974 4.14469,-16.88755 7.19897,-34.37158 6.98667,-51.79986 -2.89951,-13.96369 -5.07414,-29.24043 -12.50274,-41.46571 -8.01372,-9.40306 -19.21274,-1.96096 -28.84039,-0.71096 -18.91246,2.91725 -37.9771,-0.26319 -56.62301,-3.34143 -3.63183,-0.26879 -7.31763,-0.13223 -10.87481,0.69479 z" />
    <path
       id="path158"
       style="fill:#ffaaaa;stroke:#ffaaaa;stroke-width:1px;stroke-linecap:butt;stroke-linejoin:miter;stroke-opacity:1"
       d="m 925.76672,417.91346 c 6.49543,20.13547 0.56198,41.11435 -4.15248,60.89118 -2.96927,16.08661 -3.75204,32.79698 -0.30842,48.8762 8.08844,6.02949 19.66755,1.5889 29.12606,4.23196 17.91902,0.39187 35.80164,-6.30174 53.59762,-1.42672 16.1257,1.06934 7.6854,-19.79467 7.9487,-29.19632 -2.2331,-23.07302 -4.0364,-46.68219 1.4254,-69.4546 3.2592,-9.55796 -3.6029,-19.97798 -14.1573,-17.91484 -21.42132,1.84879 -42.90415,6.56249 -64.44968,3.35245 -3.01977,-0.1014 -6.06457,0.0242 -9.0299,0.64069 z" />
    <path
       id="path171"
       style="fill:#ffaaaa;stroke:#ffaaaa;stroke-width:1px;stroke-linecap:butt;stroke-linejoin:miter;stroke-opacity:1"
       d="m 450.96584,299.23694 c 7.80828,18.57628 4.33792,39.16582 7.23169,58.64556 1.22192,12.63412 1.39479,25.69928 -2.82391,37.83967 0.664,9.30098 11.57772,1.20642 16.63971,0.71506 12.84196,-2.17023 25.96172,-1.78931 38.82408,-3.92415 13.20428,-1.18238 26.68361,-2.82474 39.85485,-0.8742 6.09721,3.63447 10.5592,-0.73076 8.13161,-7.23674 -1.06497,-15.34095 -3.50709,-30.59169 -3.13799,-46.0132 -0.0673,-8.54888 -1.59882,-17.05925 -2.84182,-25.41601 0.87273,-8.11525 -6.57812,-13.68636 -11.9392,-18.18677 -8.97616,-1.27688 -17.85222,3.17242 -26.73607,4.4218 -11.87287,2.99131 -24.18477,3.2623 -36.25661,1.43862 -9.01375,-0.0974 -18.09279,-4.95051 -26.94634,-1.40964 z" />
    <path
       id="path179"
       style="fill:#ffaaaa;stroke:#ffaaaa;stroke-width:1px;stroke-linecap:butt;stroke-linejoin:miter;stroke-opacity:1"
       d="m 563.00748,301.31459 c 5.44305,20.74553 2.01807,42.59045 6.95913,63.43832 0.93102,13.95639 -4.25463,27.33344 -7.17601,40.69304 6.15968,4.70622 17.53114,-1.44627 25.60646,-1.27733 14.80902,-4.23847 30.25909,-1.30962 45.27247,-3.22032 9.96183,-4.25984 20.35851,0.42491 29.78643,-0.1434 6.31798,-9.77742 -3.29156,-21.10088 -2.46895,-31.74718 -1.89096,-17.72222 -2.19546,-35.67315 -1.52427,-53.44382 2.2065,-7.75044 6.00695,-20.93623 -5.46873,-22.99159 -11.99178,-1.12482 -24.08405,1.1723 -36.1455,0.39735 -12.52255,-0.38859 -24.9843,1.84782 -36.45621,6.86838 -5.9602,1.66918 -12.23967,2.05666 -18.38482,1.42655 z" />
    <path
       id="path188"
       style="fill:#ffaaaa;stroke:#ffaaaa;stroke-width:1px;stroke-linecap:butt;stroke-linejoin:miter;stroke-opacity:1"
       d="m 680.43153,394.77622 c 10.96661,13.80306 30.59029,15.18806 46.52393,11.03967 13.62161,-2.06492 27.45506,-2.34922 40.8641,-5.68284 9.5761,2.03085 20.1163,0.32023 15.14481,-12.19864 -0.43577,-26.33055 -2.92038,-52.7129 -3.23725,-79.0485 4.17868,-8.91211 0.46025,-21.90421 -11.58155,-18.84267 -18.22272,3.92304 -36.84883,-0.51152 -55.28652,0.4645 -14.17652,-0.77033 -27.79554,5.11417 -41.78266,3.18967 -4.36046,11.5397 6.67706,25.7045 3.07218,38.68525 -2.598,13.52875 -5.46562,28.32855 1.72268,41.01296 2.38798,6.90369 3.95376,14.09829 4.56028,21.3806 z" />
    <path
       id="path197"
       style="fill:#ffaaaa;stroke:#ffaaaa;stroke-width:1px;stroke-linecap:butt;stroke-linejoin:miter;stroke-opacity:1"
       d="m 799.0889,390.83862 c 18.50931,5.80167 35.86264,17.10462 55.96186,16.17252 11.72367,0.16745 23.49365,0.0863 35.13977,1.45088 12.05031,-2.87002 7.63057,-18.54299 10.02143,-27.54828 -1.27119,-22.0151 -3.90487,-44.07786 -3.0449,-66.17861 3.29854,-9.15645 5.52373,-26.44549 -9.52966,-23.29418 -14.38259,-1.16612 -28.68042,-2.94907 -43.16118,-2.28131 -16.08645,-0.30116 -32.40985,1.37762 -48.34073,0.32681 -13.74262,1.42943 2.28918,17.56887 -0.41935,26.41946 0.71623,17.75428 -1.26738,35.60701 1.81131,53.25058 0.80939,7.20107 1.58294,14.42621 1.56145,21.68213 z" />
    <path
       id="path206"
       style="fill:#ffaaaa;stroke:#ffaaaa;stroke-width:1px;stroke-linecap:butt;stroke-linejoin:miter;stroke-opacity:1"
       d="m 915.97848,304.27229 c -4.13029,18.82243 -10.75735,38.28505 -5.42045,57.60851 1.11432,13.13709 5.3826,26.59653 2.68153,39.68616 -1.1671,14.14892 18.54127,2.07785 26.64248,3.96883 16.77692,-1.34181 33.65294,-2.05401 50.37252,-3.6649 8.19912,1.42044 23.99874,9.40984 24.71044,-4.75388 -1.1695,-12.126 -3.6319,-24.19952 -3.3977,-36.48547 -0.048,-15.06544 -0.6381,-30.19745 -1.2102,-45.1888 5.4553,-10.53008 -4.2151,-17.54889 -14.25656,-16.36871 -14.43827,-0.15363 -28.73,2.84659 -43.20884,2.17067 -12.34565,0.18721 -24.78284,0.50365 -36.91322,3.02759 z" />
    <path
       id="path215"
       style="fill:#1a1a1a;stroke:#000000;stroke-width:1.00157;stroke-linecap:round"
       d="m 90.168759,129.20396 c -2.16225,3.4188 -6.8156,7.58663 -3.64316,11.83205 2.94867,4.09589 9.44441,4.05075 11.59855,8.84927 1.393,4.95229 -3.13955,8.75224 -7.04503,10.79827 -5.36463,3.32318 -11.58279,4.86518 -17.32808,7.25327 -2.74453,3.41815 2.43728,6.27101 5.33108,6.83446 4.81525,1.43004 9.14837,-1.80499 13.34641,-3.63273 6.52873,-3.3274 13.258511,-9.05225 13.153791,-17.03072 0.64585,-5.42478 -2.48803,-10.65726 -7.885641,-12.06847 -4.08499,-0.77492 -8.16515,-4.95563 -3.49112,-8.15214 5.15147,-2.53854 -2.50343,-3.25998 -4.0368,-4.68326 z" />
    <path
       id="path217"
       style="fill:#1a1a1a;stroke:#000000;stroke-width:1.00157;stroke-linecap:round"
       d="m 117.82779,132.52283 c 4.50225,5.24325 6.42223,12.27477 6.0677,19.1023 -0.0806,4.37808 -0.92596,8.69165 -1.7837,12.97093 -0.42897,2.6174 1.35628,6.77716 4.16736,3.69914 3.24014,-2.4952 2.56856,-6.89912 2.90415,-10.48905 0.4595,-7.13019 -0.9457,-14.26533 -3.72564,-20.82554 -1.42472,-2.50164 -2.22955,-7.98002 -5.93998,-5.09171 -0.56331,0.21127 -1.12662,0.42256 -1.68989,0.63393 z" />
    <path
       id="path219"
       style="fill:#1a1a1a;stroke:#000000;stroke-width:1.00157;stroke-linecap:round"
       d="m 129.35789,152.5222 c 4.50589,-1.9996 9.53355,-2.72508 14.43251,-2.29344 1.74687,0.6196 3.75823,1.46584 5.61477,0.68768 1.49277,-0.664 3.09052,-1.39097 4.15565,-2.67253 0.92222,-1.05742 0.0936,-3.19179 -1.43664,-2.84169 -5.15895,0.40042 -10.35376,0.0928 -15.5093,0.61123 -4.2559,0.37223 -8.41716,1.38617 -12.62387,2.08832 1.78896,1.47348 3.57792,2.94695 5.36688,4.42043 z" />
    <path
       id="path221"
       style="fill:#1a1a1a;stroke:#000000;stroke-width:1.00157;stroke-linecap:round"
       d="m 152.9991,131.72393 c -2.42708,7.28698 -5.3258,14.73063 -4.60511,22.56617 0.31432,4.10565 0.98474,8.30765 2.64334,12.08219 1.03321,1.791 7.27682,5.49587 6.37845,1.78108 0.11787,-3.66812 -2.03252,-6.76299 -2.5531,-10.30885 -1.55491,-8.14609 0.42502,-16.81135 4.73651,-23.77003 -1.477,-1.68913 -4.5286,-1.34047 -6.60009,-2.35056 z" />
    <path
       id="path223"
       style="fill:#1a1a1a;stroke:#000000;stroke-width:1.00157;stroke-linecap:round"
       d="m 174.189,163.88957 c 5.54443,-8.69762 8.64135,-18.62623 10.91735,-28.60722 0.0112,-1.8308 2.92902,-5.89094 -0.19029,-3.41649 -4.8153,-0.28337 1.13748,2.11123 1.39291,4.53228 4.16793,8.35926 6.39055,17.59816 11.17756,25.67459 0.65258,3.6392 4.5041,5.6797 7.79636,3.8287 3.85897,-2.76035 -1.35883,-5.88609 -2.748,-8.42979 -5.24612,-6.8611 -7.6544,-15.2329 -10.78852,-23.14066 -1.51962,-2.75608 -2.784,-7.07945 -6.55883,-7.1486 -5.65445,-0.84377 -6.47321,5.43974 -6.6846,9.65311 -1.17848,8.62327 -3.51873,17.70394 -9.79312,24.08429 0.21228,2.03796 4.08153,1.75188 5.47918,2.96979 z" />
    <path
       id="path225"
       style="fill:#1a1a1a;stroke:#000000;stroke-width:1.00157;stroke-linecap:round"
       d="m 182.90879,154.6956 c 4.89691,-0.10336 9.81134,-0.0961 14.67867,-0.71322 1.2368,-2.14584 -0.20897,-4.62819 -2.65302,-4.96747 -2.24413,-1.69147 -5.02046,-1.83406 -7.69328,-1.19331 -3.20699,0.38522 -6.42809,0.789 -9.66468,0.77102 1.77742,2.03433 3.55491,4.06867 5.33231,6.10298 z" />
    <path
       id="path227"
       style="fill:#1a1a1a;stroke:#000000;stroke-width:1.00157;stroke-linecap:round"
       d="m 222.56554,162.79712 c -0.24604,-7.70627 0.0749,-15.43684 0.6614,-23.11683 0.69544,-3.59543 1.09392,-7.94868 4.60109,-9.98937 1.26581,-1.17725 4.98294,-1.16967 1.32477,-0.92946 -3.44271,-0.11469 3.30659,1.06631 3.18629,3.23471 2.36674,3.4401 1.29779,8.41618 -2.11339,10.74346 -2.53169,1.36 -7.2535,3.91723 -3.21748,6.65751 2.62769,2.125 6.93736,2.79472 9.31177,-0.0851 5.70186,-5.1338 6.30266,-14.34851 2.08162,-20.57807 -1.76731,-3.23787 -4.9342,-6.28783 -8.92925,-5.70962 -6.75859,-0.16533 -13.48028,5.35939 -13.92579,12.24022 -1.41855,8.86911 0.42355,17.81906 -0.094,26.72523 1.75033,1.78757 4.92063,0.22104 7.11297,0.80734 z" />
    <path
       id="path229"
       style="fill:#1a1a1a;stroke:#000000;stroke-width:1.00157;stroke-linecap:round"
       d="m 251.66685,130.59396 c 3.28723,7.89902 1.68682,16.8683 -1.43995,24.54667 -4.74896,4.57025 0.20813,11.52458 6.12916,8.52925 8.1331,-0.83495 16.13116,-2.78469 24.31532,-3.15441 3.83309,-5.23305 -5.92305,-7.92569 -9.69115,-5.74228 -6.15438,1.32215 -12.39693,2.33269 -18.69514,2.57889 2.81593,-2.60793 6.2506,5.70386 5.93408,-1.09553 1.88148,-8.83853 2.96658,-18.0033 1.59754,-26.99904 -2.71662,0.44549 -5.43325,0.89089 -8.14986,1.33645 z" />
    <path
       id="path231"
       style="fill:#1a1a1a;stroke:#000000;stroke-width:1.00157;stroke-linecap:round"
       d="m 264.18156,146.86248 c 2.98212,-1.44418 6.3933,-1.72408 9.32061,-3.30204 0.62332,-1.47133 1.52806,-4.78282 -0.9631,-4.44839 -2.84978,-0.99851 -5.92629,-2.09051 -8.94336,-1.07098 -2.18686,0.78026 -5.95373,1.12321 -7.24204,1.76821 2.60929,2.35104 5.2187,4.70226 7.82789,7.0532 z" />
    <path
       id="path233"
       style="fill:#1a1a1a;stroke:#000000;stroke-width:1.00157;stroke-linecap:round"
       d="m 255.21027,132.94912 c 8.27702,-0.1742 16.21784,-2.83909 24.40304,-3.7614 3.46606,-2.78832 -2.42248,-6.18095 -5.08194,-6.47624 -4.10974,0.24816 -7.79257,2.5431 -11.92936,2.91762 -4.17044,0.84362 -8.41042,1.38489 -12.66779,1.4586 1.75868,1.95381 3.51739,3.90759 5.27605,5.86142 z" />
    <path
       id="path235"
       style="fill:#1a1a1a;stroke:#000000;stroke-width:1.00157;stroke-linecap:round"
       d="m 316.844,138.97306 c 5.10418,-0.78607 10.29002,-0.76894 15.40349,-1.47309 2.14708,-1.73538 0.0655,-4.11427 -1.94449,-4.4873 -3.04871,-1.92031 -6.63191,-0.48745 -9.90528,-0.19456 -2.77245,0.45567 -5.59881,0.54915 -8.37637,0.828 0.79049,1.63956 3.00306,3.15749 4.29849,4.78132 l 0.26208,0.27282 z" />
    <path
       id="path237"
       style="fill:#1a1a1a;stroke:#000000;stroke-width:1.00157;stroke-linecap:round"
       d="m 314.38154,150.89205 c 8.59744,-0.42899 17.19213,-0.91112 25.78953,-1.34101 2.16894,-2.88016 -3.10015,-5.79237 -5.18092,-7.32304 -3.68363,-1.49349 -7.30104,1.01798 -11.02572,1.09054 -4.98238,0.76731 -9.99982,1.29248 -15.02679,1.65983 1.81463,1.97123 3.62927,3.94245 5.4439,5.91368 z" />
    <path
       id="path239"
       style="fill:#1a1a1a;stroke:#000000;stroke-width:1.00157;stroke-linecap:round"
       d="m 394.64874,114.75268 c -8.46101,7.50923 -17.30246,17.10738 -16.74623,29.23902 -0.1886,9.13264 5.651,19.60926 15.42585,20.63456 5.00694,1.17856 10.37018,-5.91898 3.08349,-6.74595 -6.45743,-0.72922 -11.61744,-6.44256 -11.42343,-12.98289 -0.39444,-8.62386 3.61031,-17.37072 10.03733,-23.0193 4.36609,-3.12792 6.71261,-3.72601 -0.37701,-7.12544 z" />
    <path
       id="path241"
       style="fill:#1a1a1a;stroke:#000000;stroke-width:1.00157;stroke-linecap:round"
       d="m 429.16835,124.55066 c 2.97817,-1.35963 8.21239,-0.28418 8.40901,3.55165 -0.72399,3.37831 -4.29029,4.82293 -6.82465,6.63776 -1.37115,2.51359 4.04301,3.56383 5.87378,4.35495 1.84707,0.85465 5.45115,-1.38263 3.23004,-0.39789 2.99478,-0.35725 7.68684,1.37014 6.74765,5.11729 -1.26793,3.64018 -5.46794,4.61497 -8.50544,6.32164 -3.46612,1.68892 -7.35189,2.48477 -10.72707,4.29322 -2.75363,2.75646 0.51742,5.84174 3.61725,5.6378 3.41091,1.12815 6.84947,-0.0469 9.90754,-1.57732 4.72994,-2.03729 10.0649,-4.84656 11.36035,-10.29307 1.52065,-3.99682 1.65859,-9.40842 -2.34653,-12.02463 -5.552,-3.43093 -12.33951,-1.66752 -18.48319,-2.08496 1.83408,1.56705 4.72406,3.17618 6.20879,4.211 2.97298,-3.12556 5.83289,-7.16375 5.74611,-11.65559 -0.65042,-5.1885 -6.84125,-6.82497 -11.28481,-6.27428 -2.08576,0.43647 -9.00091,-0.25048 -4.77165,2.52162 0.61429,0.55356 1.22876,1.10733 1.84282,1.66081 z" />
    <path
       id="path243"
       style="fill:#1a1a1a;stroke:#000000;stroke-width:1.00157;stroke-linecap:round"
       d="m 478.69311,152.23323 c -2.21011,5.24803 -6.47731,9.18081 -9.67971,13.78888 -0.70674,1.71807 0.2044,3.89979 2.05128,4.30767 1.54745,0.11488 3.18714,0.44472 4.60607,-0.4059 3.26183,-1.37718 5.41168,-4.44919 7.31096,-7.30747 1.73629,-2.69993 3.15808,-5.58705 4.41606,-8.53649 -2.90155,-0.61556 -5.80311,-1.23113 -8.70466,-1.84669 z" />
    <path
       id="path245"
       style="fill:#1a1a1a;stroke:#000000;stroke-width:1.00157;stroke-linecap:round"
       d="m 525.6813,118.35704 c -8.2735,6.96148 -16.17994,16.07904 -16.37193,27.48598 -0.80937,7.97079 6.75981,13.51895 14.1375,13.35571 5.73141,0.0615 12.18961,-0.17482 16.86462,-3.84201 6.32726,-4.57025 3.44051,-15.78098 -4.77724,-15.47014 -5.1388,0.0427 -13.8051,0.15174 -14.09214,7.03768 2.99381,1.92382 10.44364,-0.28895 11.3783,-1.19226 7.60703,2.49838 -3.49453,7.62417 -7.07174,7.82596 -4.72633,1.43397 -11.68902,-4.77771 -9.08968,-10.51702 1.31332,-8.47837 6.76119,-15.99691 13.89459,-20.61149 0.93726,-2.78125 -3.82475,-2.37744 -4.87228,-4.07241 z" />
    <path
       id="path247"
       style="fill:#1a1a1a;stroke:#000000;stroke-width:1.00157;stroke-linecap:round"
       d="m 554.42002,115.57307 c 7.91489,4.48383 16.44878,12.22282 15.24019,22.20238 -1.86053,10.29872 -10.4529,17.82974 -18.6859,23.3244 -5.73563,7.3737 6.48641,10.30122 10.09886,4.17779 5.81868,-6.36782 13.08877,-11.81246 16.1512,-20.21743 3.62261,-7.91452 2.17069,-17.84657 -4.39239,-23.82467 -5.34017,-4.12815 -12.12879,-13.50493 -18.41196,-5.66247 z" />
    <path
       id="path321"
       style="fill:#1a1a1a;stroke:#000000;stroke-width:1.00157;stroke-linecap:round"
       d="m 498.28473,328.03638 c -4.68405,4.32959 -8.09805,10.05703 -8.81845,16.46556 -1.36885,9.08744 0.99517,19.71515 8.69026,25.42932 4.3322,3.04051 10.42791,4.73091 15.4095,2.39861 4.41527,-3.11606 6.71053,-8.4742 8.1016,-13.54215 1.07706,-5.35649 1.29769,-10.99971 0.30191,-16.37139 -1.64221,-5.50768 -6.01236,-10.24818 -11.32838,-12.35703 -4.45698,-2.91498 -10.83511,5.08078 -4.03881,5.71408 2.27867,0.25718 4.94077,-2.58163 1.00344,-1.7776 1.94803,0.74281 6.34228,3.37255 7.7407,6.45883 3.83464,6.67579 2.34924,14.96738 -0.43018,21.73976 -1.44642,3.06909 -3.40373,6.36944 -7.02298,7.05808 2.0899,0.17237 -4.82579,-0.71901 -5.66488,-2.35275 -7.53334,-5.39081 -8.68963,-15.93753 -6.56316,-24.32793 1.08881,-4.62148 4.10708,-8.54049 7.97887,-11.20173 0.27696,-1.78386 -4.10274,-2.11752 -5.35944,-3.33366 z" />
    <path
       id="path323"
       style="fill:#1a1a1a;stroke:#000000;stroke-width:1.00157;stroke-linecap:round"
       d="m 604.98708,343.77047 c 4.87605,-4.15901 8.62429,-9.41945 11.51817,-15.10443 0.68557,-2.54949 6.87056,-8.50708 1.23245,-7.58589 -4.4686,2.01043 -2.09951,9.06432 -3.33611,13.23407 -0.7237,11.29714 -0.13908,22.62606 1.26711,33.84646 -0.33073,2.78107 0.63922,8.831 3.43222,5.17526 4.04549,2.43633 3.42294,-2.60247 2.14637,-4.82346 -1.85306,-9.15976 -2.58665,-18.5259 -3.10324,-27.84423 -0.0814,-6.03175 -0.0148,-12.27879 1.80598,-18.04024 -1.29642,-1.48523 -5.1869,-1.93505 -4.21747,1.30198 -1.56875,7.12289 -6.21307,13.25877 -11.88851,17.6594 -1.80771,1.58566 0.17955,1.33876 1.14303,2.18108 z" />
    <path
       id="path325"
       style="fill:#1a1a1a;stroke:#000000;stroke-width:1.00157;stroke-linecap:round"
       d="m 719.67657,332.46093 c 3.33539,-2.90815 9.22953,-5.89607 13.24095,-2.65952 3.3638,4.35172 2.12244,10.53132 0.52766,15.3616 -5.03928,12.24009 -14.94519,22.12655 -26.45912,28.44597 -1.28932,4.25514 6.99908,4.5532 9.53709,2.49931 9.35174,-3.14011 19.31725,-4.11348 29.12592,-3.91979 1.89915,-2.26064 -5.00718,-6.8127 -8.08096,-4.23958 -8.68501,1.53481 -17.52314,2.38574 -26.01352,4.85106 -4.06608,0.10058 -2.78491,1.55727 -0.0188,2.49528 2.67531,3.60278 6.66178,-3.67674 9.40476,-5.10424 7.9275,-8.20136 16.12219,-17.39938 18.2867,-28.96789 0.55001,-5.04984 0.66677,-11.86449 -4.47396,-14.65284 -6.24816,-2.37513 -12.76266,0.94172 -17.94688,4.3229 0.95673,0.52258 1.91348,1.04511 2.87018,1.56774 z" />
    <path
       id="path327"
       style="fill:#1a1a1a;stroke:#000000;stroke-width:1.00157;stroke-linecap:round"
       d="m 840.31494,328.45452 c 3.59606,-4.07977 10.53075,0.48816 9.50474,5.36704 -0.33947,4.89942 -5.49912,6.67608 -8.51521,9.08557 0.95485,1.69624 5.9729,4.14382 5.75087,3.75567 -3.79719,-0.16457 4.02711,0.14327 4.87366,1.44718 5.04435,2.23173 8.33999,8.86723 4.95418,13.81819 -4.23194,5.91555 -11.03545,9.37891 -17.5555,12.23837 -2.46741,1.2438 -9.72971,1.61514 -5.96889,5.60583 5.11777,4.10023 10.46668,-1.66219 15.03258,-3.82944 5.46754,-3.64647 11.6569,-7.16947 15.00096,-13.0594 3.20667,-6.48421 -0.36742,-14.82427 -6.67932,-17.92562 -3.81892,-2.67022 -10.0064,-4.24655 -14.0114,-2.62405 1.5841,5.52048 6.67072,4.47031 8.96494,0.1657 4.47317,-4.91788 4.49269,-14.36272 -2.24876,-17.32916 -3.40841,-1.75734 -10.10595,-1.33048 -11.43684,2.11266 0.68847,0.58279 1.65749,0.57129 2.33399,1.17146 z" />
    <path
       id="path329"
       style="fill:#1a1a1a;stroke:#000000;stroke-width:1.00157;stroke-linecap:round"
       d="m 956.86044,323.09246 c -3.11743,6.12956 -7.08219,11.78365 -10.86489,17.51094 -1.93007,2.84019 -4.32061,5.44567 -5.82798,8.52637 0.66474,4.08043 6.35406,1.83794 9.19058,1.65859 9.47478,-1.93274 19.22123,-2.62588 28.87948,-2.13353 -1.77581,-1.79667 -3.14553,-5.465 -6.3322,-4.18673 -8.87734,1.07114 -17.61058,3.30934 -26.56128,3.71458 -2.34035,0.37681 -1.30501,-0.82114 -0.15966,0.40422 -0.33587,2.20199 1.68673,-2.64033 2.30161,-3.22283 3.85473,-6.46799 7.60862,-13.00628 11.34177,-19.53672 2.36374,-2.38457 -0.28427,-2.13615 -1.96743,-2.73489 z" />
    <path
       id="path331"
       style="fill:#000000;stroke:#000000;stroke-width:1.00157;stroke-linecap:round"
       d="m 967.55339,336.87504 c 0.5091,7.93961 -0.4099,15.88054 -0.38955,23.82471 -0.12322,5.09275 -0.50386,10.18389 -0.81238,15.25998 0.16252,3.46248 4.64232,3.62893 4.99211,0.0959 0.42833,-3.51167 0.18593,-7.0893 0.29489,-10.63044 0.0613,-8.85215 -0.46726,-17.6998 -0.40828,-26.54851 0.93577,-3.27176 -1.62866,-1.60504 -3.67679,-2.00166 z" />
    <path
       id="path339"
       style="fill:#ffaaaa;fill-opacity:1;stroke:#ffaaaa;stroke-width:1px;stroke-linecap:butt;stroke-linejoin:miter;stroke-opacity:1"
       d="m 1029.8419,300.74797 c -2.2533,22.39331 -4.7915,44.89792 -3.9849,67.43135 1.0959,9.6632 3.48,19.7087 -0.1357,29.1585 -2.9541,8.10004 6.5021,10.16824 11.9368,6.42727 19.4256,-3.72324 39.0971,1.48345 58.6194,0.78051 6.6207,3.25301 14.4537,0.41429 12.8062,-7.94712 2.4742,-17.05003 5.4801,-34.03649 10.2288,-50.61491 2.1323,-7.06862 2.5397,-15.05732 -2.2351,-21.1906 -5.8462,-4.84413 1.6821,-13.40965 -4.4051,-17.81551 -15.4951,-6.33754 -32.5758,-1.19263 -48.4791,-5.4148 -9.09,-2.57416 -18.7011,-2.48879 -27.8466,-0.30374 -2.1721,0.2233 -4.4111,0.1642 -6.5047,-0.51095 z" />
    <path
       id="path347"
       style="fill:#ffaaaa;fill-opacity:1;stroke:#ffaaaa;stroke-width:1px;stroke-linecap:butt;stroke-linejoin:miter;stroke-opacity:1"
       d="m 1026.0755,417.6866 c 1.5529,14.52783 -4.5595,28.52395 -3.5752,43.05878 0.048,18.48277 0.3995,36.95431 1.7712,55.39043 -2.0845,5.57053 -4.0358,15.01619 5.5976,11.94652 17.9088,0.0799 35.8528,2.49634 53.7183,0.0803 10.2372,-1.10003 20.5571,-1.26554 30.802,-0.36928 10.5223,0.72094 10.1504,-10.05612 8.7332,-17.37047 -0.1006,-13.44001 0.203,-26.97832 -2.7008,-40.1858 -1.6995,-10.9003 1.2019,-21.64595 4.1021,-32.04963 2.1468,-6.51012 2.0084,-17.38447 -7.4469,-16.72905 -9.9473,-1.0874 -19.8828,-2.77549 -29.9553,-2.52837 -17.497,-0.36479 -35.2527,2.09011 -52.4768,-1.98991 -2.8586,-0.33626 -5.9044,-0.60824 -8.5694,0.74651 z" />
    <path
       id="path355"
       style="fill:#ffaaaa;fill-opacity:1;stroke:#ffaaaa;stroke-width:1px;stroke-linecap:butt;stroke-linejoin:miter;stroke-opacity:1"
       d="m 1025.8762,540.73453 c -7.6407,14.80682 -5.9199,32.21226 -1.4184,47.67913 2.9833,13.1927 5.5507,26.63182 5.7844,40.17906 -2.6172,6.20227 -1.7559,14.63264 7.1858,12.03135 16.175,0.31051 30.9291,-8.00585 46.9987,-8.86248 12.6639,-1.40569 25.4468,-2.2402 38.176,-2.0312 8.4047,-3.84376 -0.9624,-13.48814 0.1065,-20.26533 -1.7159,-11.2887 2.0868,-22.19346 3.6556,-33.22013 0.8307,-9.26522 1.447,-19.13243 -1.87,-27.96271 -4.5243,-8.14288 -14.8113,-8.06723 -22.8763,-7.1762 -15.754,0.58248 -31.3637,3.66108 -47.1287,3.57365 -9.7446,-0.0298 -18.8323,-5.01557 -28.6136,-3.94514 z" />
    <path
       id="path369"
       style="fill:#000000;fill-opacity:1;stroke:#000000;stroke-width:1.00157;stroke-linecap:round;stroke-opacity:1"
       d="m 1086.5702,327.57693 c -6.8811,-0.0905 -13.7311,-0.82894 -20.6044,-1.09801 -2.6686,-1.52963 -6.1795,0.38317 -6.523,3.40192 -0.077,2.84854 -1.4533,5.40154 -1.5751,8.21679 -0.2791,3.42299 3.6078,3.54284 5.9879,2.83333 7.8343,-0.36814 14.8524,5.85738 17.1384,13.08668 1.2502,5.46771 -2.8069,10.25702 -6.5897,13.65245 -3.964,3.78292 -8.8781,6.28241 -13.5427,9.03051 -2.232,0.93267 -4.4915,4.00151 -0.5741,2.57125 7.1985,-1.46072 13.3541,-6.02974 18.4579,-11.11774 3.5904,-3.77499 7.1043,-9.12911 5.2653,-14.53767 -1.9008,-5.93466 -6.5966,-10.64445 -11.7992,-13.8512 -3.0918,-1.50286 -6.6964,-1.8326 -10.0752,-1.34391 0.4987,-2.60497 1.3733,-7.88131 1.5825,-8.53916 6.7163,-0.21628 13.48,-0.31538 20.1438,0.68938 0.9025,-0.99821 1.8052,-1.99649 2.7076,-2.99462 z" />
    <path
       id="path371"
       style="fill:#000000;fill-opacity:1;stroke:#000000;stroke-width:1.00157;stroke-linecap:round;stroke-opacity:1"
       d="m 508.83605,441.12899 c -5.88235,2.26234 -10.96993,6.46922 -13.68031,12.2273 -4.37205,8.46667 -5.95104,18.60785 -3.85445,27.93522 1.74584,6.36186 4.86807,12.57204 9.62317,17.19765 4.77957,3.88965 13.06074,3.01207 15.87861,-2.8553 3.23034,-6.59865 2.1949,-14.93917 -1.47459,-21.15467 -3.77485,-6.00555 -14.18946,-6.71063 -18.02891,-0.46949 -0.82279,6.93088 8.8735,-1.93919 8.10899,-0.56801 6.0605,0.24752 9.0328,6.82543 9.27507,12.16337 1.39399,5.14271 -3.51816,11.47725 -6.7614,12.17847 -4.9871,-0.0899 -8.35934,-4.82524 -10.58082,-8.83893 -6.39115,-12.54743 -3.39578,-28.48599 5.03947,-39.34698 2.09549,-3.15991 7.87408,-4.52998 9.48974,-6.07832 -1.01152,-0.79677 -2.02313,-1.59346 -3.03457,-2.39031 z" />
    <path
       id="path373"
       style="fill:#000000;fill-opacity:1;stroke:#000000;stroke-width:1.00157;stroke-linecap:round;stroke-opacity:1"
       d="m 604.95201,439.19355 c 14.42175,-0.28504 29.38732,-0.3304 42.89099,-5.93265 -5.32043,-0.59164 -6.60908,8.7348 -9.8545,12.45407 -5.17831,9.95944 -11.64063,19.1319 -17.97076,28.36697 -3.48982,5.50511 -6.56455,11.26859 -9.27855,17.19324 1.17162,5.27756 6.83909,-0.6725 6.07509,-3.94763 6.24076,-15.22296 16.91613,-28.01257 24.57837,-42.48422 1.37232,-4.51054 8.51807,-8.71823 6.26865,-13.10821 -4.56799,0.22179 -8.72421,4.40784 -13.66763,4.83506 -9.13916,2.18159 -18.64006,2.39572 -27.97683,1.79764 l -0.59027,0.20193 z" />
    <path
       id="path375"
       style="fill:#000000;fill-opacity:1;stroke:#000000;stroke-width:1.00157;stroke-linecap:round;stroke-opacity:1"
       d="m 614.50011,463.58209 c 9.4028,-0.22191 18.69675,-1.98076 28.09768,-2.19666 -0.50567,-2.03545 -2.66586,-3.92119 -4.82752,-3.36201 -6.1072,1.81046 -12.48916,2.70413 -18.85802,2.71241 -2.10264,-0.96005 -3.13355,1.77822 -4.41214,2.84626 z" />
    <path
       id="path377"
       style="fill:#000000;fill-opacity:1;stroke:#000000;stroke-width:1.00157;stroke-linecap:round;stroke-opacity:1"
       d="m 747.33245,440.29697 c -5.606,-0.004 -12.4929,-1.68959 -16.64664,3.25915 -3.60419,3.34198 -2.21617,9.0915 1.47956,11.75973 5.23988,3.99434 12.29457,6.30058 15.27022,12.69274 2.99986,5.22747 2.48163,11.90378 -1.0012,16.76984 -2.39955,3.90035 -6.1874,7.34696 -10.88164,7.95598 5.11789,-0.10465 -3.52531,-1.16764 -3.15871,-4.05613 -2.71351,-4.63081 -1.01655,-10.55218 2.78563,-14.02996 4.9509,-4.87686 11.35501,-8.38145 14.83248,-14.64223 2.43227,-4.17845 5.26728,-11.30633 0.003,-14.54157 -4.65404,-3.13269 -7.8064,2.10494 -3.39187,5.11565 0.46253,3.32272 -1.8384,6.69788 -3.58832,9.50755 -4.59736,6.28887 -12.44938,9.54329 -16.04462,16.69317 -4.27704,6.93654 -1.20181,17.25924 6.40585,20.38226 5.41998,0.81554 10.74189,-1.50706 14.42981,-5.42473 5.71137,-5.30021 9.01362,-14.16085 5.29685,-21.50826 -2.62673,-5.79217 -7.19526,-10.6043 -12.87838,-13.4719 -3.01831,-1.97997 -7.0552,-4.14537 -7.53457,-8.07579 0.38785,-3.92869 5.35746,-5.61565 8.3235,-5.39608 2.57643,0.71642 4.93759,-0.92187 6.29863,-2.98942 z" />
    <path
       id="path379"
       style="fill:#000000;fill-opacity:1;stroke:#000000;stroke-width:1.00157;stroke-linecap:round;stroke-opacity:1"
       d="m 860.46611,447.84002 c -0.21399,7.33728 -6.38,14.64131 -14.05888,14.35958 -3.02169,-1.65067 -4.27182,-5.61826 -3.36872,-8.9746 1.52825,-6.56957 9.67519,-9.99456 15.72268,-7.52582 5.36813,1.63503 7.67011,7.86532 6.68542,13.02972 -1.07658,11.70914 -6.35969,23.17143 -14.98997,31.21806 -2.79772,2.52584 -5.87893,4.71122 -8.99812,6.81772 -1.55238,3.91141 4.39414,3.99808 6.54283,2.3982 2.89752,-2.09172 5.39511,-4.72129 7.97802,-7.19266 6.95267,-7.13706 11.57746,-16.35899 13.41555,-26.13358 1.56225,-6.64451 1.9809,-14.88055 -3.33911,-20.01315 -7.53313,-6.67685 -21.34521,-5.43277 -26.44408,3.65507 -2.26409,4.82044 -2.10751,11.6024 2.19165,15.2768 2.98143,1.96912 6.92778,1.18765 10.22478,0.45102 4.35058,-1.11434 8.13356,-4.24785 9.60524,-8.56267 0.89525,-2.339 3.69013,-9.73284 -1.16729,-8.80369 z" />
    <path
       id="path381"
       style="fill:#000000;fill-opacity:1;stroke:#000000;stroke-width:1.00157;stroke-linecap:round;stroke-opacity:1"
       d="m 944.5849,465.25222 c 2.26102,-7.74141 3.74584,-15.73567 6.85374,-23.20983 -5.85207,-1.24644 -4.31304,5.16909 -4.59344,8.72388 -0.4157,16.38869 -1.95269,32.72208 -3.82086,49.00047 -2.38325,3.5939 4.27164,5.22008 5.92236,3.6826 -0.63987,-4.58082 -1.01551,-9.20411 -0.98551,-13.87195 0.50551,-14.58861 -0.73811,-29.34327 2.09846,-43.7642 3.11575,-3.14594 -4.98742,-5.17337 -2.72252,-0.37564 -0.32528,6.7403 -2.62641,13.17665 -5.15667,19.36566 0.80148,0.14968 1.60297,0.2993 2.40444,0.44901 z" />
    <path
       id="path383"
       style="fill:#000000;fill-opacity:1;stroke:#000000;stroke-width:1.00157;stroke-linecap:round;stroke-opacity:1"
       d="m 973.3437,447.08789 c -8.83737,11.35308 -11.86244,27.21533 -7.79621,41.00169 1.90806,7.69257 10.84342,14.31653 18.30604,9.00742 8.72206,-6.0032 13.4521,-16.65352 14.84681,-26.90628 0.99078,-8.43549 -2.23399,-19.7237 -11.84938,-21.31861 -5.60548,-2.998 -15.29443,7.8145 -8.12516,9.38239 2.51894,-5.97825 11.14598,-6.76898 13.00113,0.18699 4.82488,10.75926 0.64226,23.72977 -6.90591,32.13323 -5.06584,7.10689 -14.4391,3.86241 -15.79929,-4.46345 -3.49951,-11.69842 -0.006,-24.38472 6.19682,-34.53375 4.0404,-1.86175 0.66625,-3.93657 -1.87485,-4.48963 z" />
    <path
       id="path385"
       style="fill:#000000;fill-opacity:1;stroke:#000000;stroke-width:1.00157;stroke-linecap:round;stroke-opacity:1"
       d="m 1046.1469,468.62248 c 7.1018,-4.32476 10.5478,-12.29786 13.5574,-19.66507 2.7216,-2.61447 0.2817,-5.19188 -2.7764,-3.62125 -1.8978,4.43604 -1.7646,9.71935 -3.0675,14.45891 -2.663,12.80181 -3.0078,25.92043 -5.1724,38.80069 -2.8771,4.60055 7.5452,6.10579 6.5866,0.87508 -0.227,-5.65913 0.4536,-11.32514 0.2148,-17.00497 -0.07,-12.04914 1.2118,-24.24532 5.0117,-35.72555 -2.368,-1.54167 -4.9245,-1.50029 -4.3266,1.9343 -1.5899,6.48608 -5.0479,12.99289 -10.7385,16.73492 -3.681,1.17614 -0.6486,1.93748 0.7109,3.21294 z" />
    <path
       id="path387"
       style="fill:#000000;fill-opacity:1;stroke:#000000;stroke-width:1.00157;stroke-linecap:round;stroke-opacity:1"
       d="m 1078.4492,466.01207 c 7.4455,-4.95424 10.8854,-13.7098 13.9861,-21.65078 -1.9974,-3.03907 -7.4673,-1.56702 -5.9163,2.61354 -0.4019,10.01099 -1.8722,19.94595 -2.6719,29.93124 -0.4214,7.54718 -2.6744,14.8363 -3.185,22.3597 -1.8419,4.91554 4.8828,6.47339 7.5089,3.21739 -0.2223,-4.86909 -0.2152,-10.16971 0.3451,-15.21725 1.1067,-11.22225 1.0135,-22.5158 1.826,-33.74873 -0.4423,-3.0686 2.8413,-8.29806 1.0174,-9.73955 -6.062,-2.18846 -4.4915,5.01821 -6.5177,8.43553 -2.0305,4.75876 -5.6892,9.02432 -10.5883,10.93756 1.3986,0.95375 2.7971,1.90765 4.1957,2.86135 z" />
    <path
       id="path389"
       style="fill:#000000;fill-opacity:1;stroke:#000000;stroke-width:1.00157;stroke-linecap:round;stroke-opacity:1"
       d="m 481.64434,585.8462 c 3.5413,-5.17041 4.49342,-11.46177 6.55987,-17.24652 0.72377,-4.77697 -7.22264,-1.63667 -4.79453,2.2308 0.19394,4.84932 -0.39501,9.72941 -0.58822,14.5966 -0.76014,9.75274 -1.09624,19.52828 -1.07309,29.30827 -1.16797,3.70282 0.90972,10.05869 5.53119,6.47762 2.09753,-4.79033 -0.71621,-10.74088 -0.25767,-15.99044 -0.50338,-10.35936 -0.34233,-20.76524 0.40695,-31.1075 1.02657,-3.65922 1.75764,-9.52416 -3.95901,-7.97295 0.62641,5.99649 -1.28525,12.4524 -5.37597,16.92278 -1.86822,1.8288 2.76678,1.86451 3.55048,2.78134 z" />
    <path
       id="path391"
       style="fill:#000000;fill-opacity:1;stroke:#000000;stroke-width:1.00157;stroke-linecap:round;stroke-opacity:1"
       d="m 513.8347,576.27129 c 2.32728,-7.87948 9.22394,-4.05276 7.9506,2.83952 0.63343,10.51068 -4.50704,21.03782 -11.98398,28.11961 -7.724,3.15426 -3.34571,10.59176 3.83548,8.40548 7.57465,-1.19583 15.27856,-1.59869 22.89405,-0.54097 -4.24097,-0.42519 3.75818,-8.38158 -3.72284,-6.28557 -8.7068,1.26016 -17.61153,0.97031 -26.26141,2.28818 -1.50209,6.1498 9.80345,1.91581 10.1007,-3.16372 3.82236,-6.90591 8.57513,-13.59982 9.42472,-21.70433 0.65849,-5.86242 0.68381,-12.90441 -3.60131,-17.42282 -4.16201,-4.50258 -16.41205,5.66565 -8.63601,7.46462 z" />
    <path
       id="path393"
       style="fill:#000000;fill-opacity:1;stroke:#000000;stroke-width:1.00157;stroke-linecap:round;stroke-opacity:1"
       d="m 604.12819,582.43917 c 5.27584,-5.63009 9.43009,-12.86046 9.60259,-20.74435 -3.09589,-2.09027 -6.98267,1.27952 -5.66125,4.70284 -0.14378,14.35951 -0.4921,28.84531 -3.74987,42.89708 -2.46663,4.02887 5.13046,6.46702 6.70489,2.92638 1.09861,-3.99042 0.44853,-8.28035 1.16375,-12.38858 0.87574,-7.20614 0.24838,-14.43207 -0.0538,-21.64569 -0.12208,-4.84888 0.11617,-9.84636 1.09555,-14.52875 -2.18789,-2.02394 -5.8313,-0.97904 -4.33409,2.31826 -0.12223,5.65864 -3.3648,10.94901 -7.81368,14.27172 -0.45246,1.46326 2.30724,1.31251 3.04591,2.19109 z" />
    <path
       id="path395"
       style="fill:#000000;fill-opacity:1;stroke:#000000;stroke-width:1.00157;stroke-linecap:round;stroke-opacity:1"
       d="m 640.82946,568.23847 c 1.08342,-1.42045 4.55604,-2.9628 3.98968,-1.24747 3.47259,1.54575 3.59141,6.1088 2.74502,9.32238 -0.92876,3.15538 -3.33277,5.94892 -6.50727,6.97103 -0.70916,2.5617 -0.0278,6.12956 3.30952,5.02366 3.48743,0.83506 7.50937,4.70787 5.6212,8.50721 -2.80778,4.57164 -8.39591,6.26084 -13.0916,8.21183 -5.43534,1.4881 -1.40568,6.37741 2.52964,5.88746 4.23329,0.41953 7.95977,-2.29622 11.39622,-4.39299 4.56118,-3.08456 8.6264,-9.10131 5.98607,-14.67414 -1.91199,-3.79426 -5.24213,-6.91517 -9.05726,-8.73961 -2.85829,0.0119 -0.73185,7.20281 1.37634,2.80054 4.627,-5.19859 5.88368,-13.39333 2.25054,-19.44792 -3.04958,-4.73968 -9.88125,-4.01707 -13.89782,-1.00958 -2.62578,0.97325 2.74639,2.01199 3.34972,2.7876 z" />
    <path
       id="path397"
       style="fill:#000000;fill-opacity:1;stroke:#000000;stroke-width:1.00157;stroke-linecap:round;stroke-opacity:1"
       d="m 721.0576,582.13894 c 4.51484,-4.50819 7.71704,-10.12795 9.82342,-16.11179 1.98556,-2.57984 3.40481,-8.63813 -1.71488,-6.04555 -4.2502,1.09552 -1.70533,5.83385 -2.55576,8.88312 -0.73144,11.46871 -1.09898,22.95731 -1.72726,34.42897 -0.18493,3.58009 -1.06427,7.10911 -1.48889,10.62581 0.86326,4.27567 7.74213,3.0862 7.19392,-1.29909 0.81025,-12.28924 0.0935,-24.61855 0.40581,-36.92825 9.6e-4,-4.59387 0.0631,-9.30057 1.59586,-13.6866 -2.3092,-1.77763 -7.00685,-2.30459 -5.86721,1.87358 -0.88222,5.64838 -3.99687,10.78565 -8.13485,14.65947 -4.13517,1.72666 1.32512,2.44962 2.46984,3.60033 z" />
    <path
       id="path399"
       style="fill:#000000;fill-opacity:1;stroke:#000000;stroke-width:1.00157;stroke-linecap:round;stroke-opacity:1"
       d="m 758.42665,562.09889 c -3.02231,7.51249 -8.37722,13.76485 -13.74071,19.69174 -2.26217,2.49182 0.60778,5.55169 3.42795,5.14351 8.70914,0.42124 17.45158,0.22232 26.15652,0.67697 -1.1571,0.0605 -4.19106,0.067 -1.19827,0.33529 2.63257,0.56301 4.90697,-1.27738 6.79913,-2.79705 3.00146,-3.99155 -3.28238,-2.93248 -5.56052,-3.03014 -4.33033,-0.006 -8.66153,0.1966 -12.97077,0.62561 0.11641,0.43911 -4.72821,0.0416 -6.38419,-0.13178 -2.20686,-0.55981 -5.06433,-0.84356 -3.82739,1.76585 3.79963,-6.94924 8.48415,-13.4272 12.06596,-20.51825 -0.85522,-1.56569 -3.37774,-0.94332 -4.76771,-1.76175 z" />
    <path
       id="path401"
       style="fill:#000000;fill-opacity:1;stroke:#000000;stroke-width:1.00157;stroke-linecap:round;stroke-opacity:1"
       d="m 767.01523,571.29724 c 0.21164,11.3268 -1.22034,22.62161 -3.06303,33.77453 -0.43774,2.8092 -2.53717,6.82298 1.14161,8.35887 2.09477,1.68261 5.64746,-0.4706 6.06639,-2.89818 -0.40748,-9.37655 0.71875,-18.73946 0.47446,-28.12176 0.0205,-3.42791 -0.14003,-6.8908 0.0974,-10.28865 -0.79824,-1.716 -3.2993,-0.42609 -4.71679,-0.82481 z" />
    <path
       id="path403"
       style="fill:#000000;fill-opacity:1;stroke:#000000;stroke-width:1.00157;stroke-linecap:round;stroke-opacity:1"
       d="m 833.62587,587.26193 c 4.44151,-5.34015 8.03075,-11.55458 9.46039,-18.39447 3.12203,-2.94668 -1.26781,-5.95368 -3.2094,-2.72651 -0.66734,5.57848 -0.34563,11.28285 -1.23595,16.86793 -1.89053,12.37871 -1.73768,24.99139 -4.06944,37.30705 1.71275,4.87562 9.49469,1.70957 6.97478,-3.2646 -0.31885,-10.96171 0.79033,-21.90894 1.27024,-32.8531 0.11136,-5.52817 0.0158,-11.17156 1.52066,-16.52625 0.90672,-3.16249 -6.62742,-5.13569 -4.10782,-0.85635 -0.93128,6.96479 -3.89351,14.13746 -9.69069,18.5166 0.42765,1.27394 2.22867,1.09418 3.08723,1.9297 z" />
    <path
       id="path405"
       style="fill:#000000;fill-opacity:1;stroke:#000000;stroke-width:1.00157;stroke-linecap:round;stroke-opacity:1"
       d="m 878.86189,566.00446 c -4.98185,1.11719 -11.22143,0.78949 -14.45696,5.5008 -2.38644,3.82806 -2.38587,8.60995 -3.33861,12.85564 -0.0412,4.16337 6.39279,3.22606 7.28948,2.65262 -1.902,0.0343 3.61302,0.33614 4.53686,1.3077 6.22904,2.94046 5.98387,12.36442 0.7033,16.14109 -3.90562,3.23693 -8.35347,5.68884 -13.04397,7.57029 -3.87654,1.01571 -2.76374,5.40773 1.04124,4.69618 5.53858,0.64972 10.1422,-3.3929 14.29533,-6.48586 6.24321,-4.415 10.10581,-13.35049 6.16864,-20.49608 -3.1992,-5.95414 -10.51021,-7.83565 -16.81261,-7.38265 -3.76085,0.1043 4.34004,-1.23478 2.94551,1.99686 0.18004,-4.30076 0.3115,-10.33315 5.44442,-11.66562 2.62014,-1.54838 8.20397,-0.89905 9.24074,-2.59793 -1.14131,-1.54857 -2.78469,-2.62328 -4.01337,-4.09304 z" />
    <path
       id="path407"
       style="fill:#000000;fill-opacity:1;stroke:#000000;stroke-width:1.00157;stroke-linecap:round;stroke-opacity:1"
       d="m 944.03446,586.86787 c 3.84607,-5.15859 6.93045,-10.86813 9.2808,-16.85324 -3.26547,-1.1332 -5.92101,0.93024 -4.83619,4.39516 -0.68696,11.4555 -1.26999,22.91638 -2.42468,34.33609 0.16364,3.29835 -1.33656,6.67503 -0.19921,9.84625 1.98159,3.7882 7.15544,0.34777 5.99482,-3.23942 0.0227,-13.11422 -0.56387,-26.27214 0.58343,-39.356 1.16801,-3.28906 1.09928,-8.35806 -3.79878,-6.10695 -0.0946,3.82986 -2.13255,7.30331 -3.90559,10.57834 -1.37011,2.07542 -6.23062,5.20745 -1.51474,6.03503 l 0.41005,0.18238 0.41006,0.18236 z" />
    <path
       id="path409"
       style="fill:#000000;fill-opacity:1;stroke:#000000;stroke-width:1.00157;stroke-linecap:round;stroke-opacity:1"
       d="m 975.07859,570.66512 c -3.87031,5.10181 -7.72625,10.50011 -8.92964,16.93234 -1.3986,5.84299 -2.38143,12.39488 0.18178,18.04467 2.3277,4.28383 7.227,6.96165 12.0985,6.28474 5.16025,0.0668 9.14152,-3.73257 12.52384,-7.16105 4.66729,-4.34727 2.06907,-13.50652 -4.33707,-14.43691 -6.98233,-1.81823 -15.76787,0.64833 -19.01561,7.51587 -0.32052,1.84599 1.0464,7.22656 2.53467,3.58623 3.12479,-1.22228 4.79487,-4.33417 7.95975,-5.4905 1.31922,-0.83455 6.70176,-1.16005 2.68316,-1.32587 3.92497,-0.92596 8.05115,3.07664 4.81075,6.63317 -1.22159,2.96712 -6.27325,4.99425 -7.53154,5.86825 3.56142,0.54526 -5.0397,0.41156 -5.31489,-1.99112 -3.77135,-4.34919 -2.2818,-10.62271 -1.26914,-15.71989 1.4629,-5.90574 4.45783,-11.39059 8.52176,-15.905 -0.078,-1.94485 -3.75844,-1.63157 -4.91632,-2.83493 z" />
    <path
       id="path411"
       style="fill:#000000;fill-opacity:1;stroke:#000000;stroke-width:1.00157;stroke-linecap:round;stroke-opacity:1"
       d="m 1046.8026,588.86292 c 3.5344,-5.80147 6.7254,-11.78941 9.5776,-17.9539 0.4144,-2.29677 4.3856,-5.36209 3.4787,-6.93138 -5.0617,0.12119 -5.2318,5.15693 -4.6294,9.00857 -1.4005,12.32028 -1.5662,24.82022 -4.1368,36.99511 -2.7775,3.50439 2.4848,9.18341 4.6703,3.80651 1.3936,-3.81648 0.8095,-8.01906 1.0876,-12.01108 -0.043,-10.99911 0.8028,-21.98538 2.0125,-32.91051 2.5632,-3.19732 -5.5729,-8.05668 -4.0068,-2.87437 -1.4993,7.69378 -5.0658,15.2251 -10.7306,20.74088 -2.186,1.09334 2.0551,1.4747 2.6769,2.13017 z" />
    <path
       id="path413"
       style="fill:#000000;fill-opacity:1;stroke:#000000;stroke-width:1.00157;stroke-linecap:round;stroke-opacity:1"
       d="m 1075.6542,567.68143 c 9.0548,3.40622 18.8902,1.12206 27.7292,-1.78049 -3.2883,-2.03551 -7.3597,-2.20811 -7.5082,2.59279 -4.8237,10.7232 -7.717,22.34106 -14.3122,32.21538 -1.6096,4.57138 -8.1982,8.96576 -6.4425,13.80485 5.7133,3.26633 7.3255,-4.96458 9.6633,-8.38439 4.9598,-8.64682 9.0001,-17.75825 12.5086,-27.07611 2.0018,-4.74505 4.2733,-9.38764 6.9972,-13.76304 -1.8688,-2.43869 -4.7491,-6.71251 -7.4692,-2.72721 -3.8683,2.00223 -8.3559,3.20024 -11.9337,2.92329 -3.7786,-1.08292 -6.3949,-0.79784 -9.2325,2.19493 z" />
    <path
       id="path415"
       style="fill:#000000;fill-opacity:1;stroke:#000000;stroke-width:1.00157;stroke-linecap:round;stroke-opacity:1"
       d="m 1082.7827,595.55666 c 6.2729,-2.1348 12.8831,-2.9516 19.3652,-4.16721 2.8092,-0.90272 1.7962,-4.72923 -0.9093,-4.86897 -3.0224,-1.54128 -6.4574,-0.80495 -9.5426,0.095 -5.0487,1.12345 -10.0645,2.46825 -14.9073,4.3007 1.998,1.54684 3.996,3.09367 5.994,4.64051 z" />
    <path
       id="path516"
       style="fill:#ff0000;fill-opacity:1;stroke:#ff0000;stroke-width:1.00157;stroke-linecap:round;stroke-opacity:1"
       d="m 444.68635,234.61366 c 0.5616,11.79845 2.00564,23.70515 0.21409,35.46265 -0.2346,3.63964 5.90126,2.31964 4.59299,-1.0382 -0.71119,-5.57057 -0.30152,-11.22899 -0.80561,-16.82626 -0.43879,-4.99856 -0.73333,-10.01205 -0.82208,-15.03021 1.15858,-2.12964 -1.54518,-3.18668 -3.17939,-2.56798 z" />
    <path
       id="path518"
       style="fill:#ff0000;fill-opacity:1;stroke:#ff0000;stroke-width:1.00157;stroke-linecap:round;stroke-opacity:1"
       d="m 459.33705,253.18376 c 146.76424,-5.89402 293.63733,2.6158 440.3564,6.62136 58.2121,2.61889 116.07675,13.39221 174.41855,5.88865 56.599,-4.84444 -18.9528,-7.42938 -38.8454,-1.7446 -63.99604,1.28162 -127.52067,-10.17788 -191.58217,-8.06571 -128.36606,-3.33855 -256.90416,-7.84082 -385.27792,-4.07668 z" />
    <path
       id="path520"
       style="fill:#ff0000;fill-opacity:1;stroke:#ff0000;stroke-width:1.00157;stroke-linecap:round;stroke-opacity:1"
       d="m 1114.7619,242.17313 c 0.057,11.23655 -1.6788,22.38583 -1.8794,33.61471 -0.2145,3.66005 -0.4977,7.31605 -0.8468,10.96572 0.941,0.70353 3.1348,2.06058 3.2645,1.7388 4.916,-0.77977 2.2412,-5.78131 2.5069,-9.13281 -0.6492,-11.4379 -1.1481,-23.08536 1.2218,-34.36695 1.8215,-3.66302 -2.1456,-2.27072 -4.267,-2.81947 z" />
    <path
       id="path522"
       style="fill:#ff0000;fill-opacity:1;stroke:#ff0000;stroke-width:1.00157;stroke-linecap:round;stroke-opacity:1"
       d="m 391.01487,305.62441 c 6.28791,-1.24354 12.74256,-1.25718 19.1227,-1.25889 2.89927,0.10307 6.00668,1.1746 8.80417,0.12173 1.12449,-0.94373 3.6206,-1.09029 2.60209,-2.28277 0.78617,-2.86825 -3.66664,-0.88434 -5.273,-1.34979 -9.04544,0.26914 -18.09498,0.3443 -27.14139,0.54083 -1.33296,-0.0594 -2.8499,-0.2333 -1.12857,1.03767 1.00467,1.06374 2.00933,2.12748 3.014,3.19122 z" />
    <path
       id="path524"
       style="fill:#ff0000;fill-opacity:1;stroke:#ff0000;stroke-width:1.00157;stroke-linecap:round;stroke-opacity:1"
       d="m 389.76056,647.19282 c 11.79487,0.2485 23.59429,-0.30283 35.38704,-0.0272 2.88496,0.23785 4.73871,-3.63012 0.93428,-3.96135 -3.92202,-1.41637 -8.09098,-0.89739 -12.1239,-0.37587 -6.36315,0.55795 -12.79657,0.58429 -19.13817,-0.17265 -2.30462,0.60081 -3.19178,3.18569 -5.02919,4.50584 z" />
    <path
       id="path526"
       style="fill:#ff0000;fill-opacity:1;stroke:#ff0000;stroke-width:1.00157;stroke-linecap:round;stroke-opacity:1"
       d="m 403.78786,322.83841 c -0.87775,32.32649 -2.23625,64.80468 3.13497,96.85554 4.11829,61.96168 -0.21656,124.105 0.19084,186.14407 -2.7565,7.18321 1.8815,39.76298 5.67475,18.5426 -2.53937,-52.99632 -2.7936,-106.20501 -1.66887,-159.27068 -1.57715,-45.68039 -12.49533,-91.49626 -5.42033,-137.11228 l -0.52316,-2.79744 z" />
    <path
       id="path528"
       style="fill:#ff0000;fill-opacity:1;stroke:#ff0000;stroke-width:1.00157;stroke-linecap:round;stroke-opacity:1"
       d="m 518.52829,178.33473 c -0.43038,12.59642 10.00786,22.29622 21.8899,24.24023 29.02659,7.62739 57.88642,-4.84924 86.57917,-8.35607 18.9355,-2.88574 42.22312,-7.10186 57.22899,8.03041 13.02417,11.62597 19.42864,34.93289 32.24565,42.24431 -6.24874,-12.87089 -17.32341,-25.20937 -25.17307,-38.17072 -8.28107,-14.07757 -25.34053,-17.99997 -40.55225,-16.25948 -27.05203,1.64278 -53.07702,9.767 -79.85801,13.11483 -16.19372,1.30748 -36.90716,0.42549 -46.46576,-14.8768 -3.63669,-3.19151 1.57264,-12.45608 -5.89462,-9.96671 z" />
    <path
       id="path530"
       style="fill:#ff0000;fill-opacity:1;stroke:#ff0000;stroke-width:1.00157;stroke-linecap:round;stroke-opacity:1"
       d="m 427.06749,185.45719 c -6.65806,23.76291 -27.01334,39.60089 -41.6553,58.34936 -26.12824,26.91249 -70.64694,33.21487 -87.41029,69.54547 -12.31422,26.46107 -20.07479,55.78957 -19.55233,85.11209 1.72488,22.2043 4.98533,48.22631 24.00351,62.6551 24.17882,14.90604 53.71827,18.72986 81.67287,16.76195 -11.49689,-8.33562 -29.15966,-0.5877 -43.04981,-6.05139 -20.44494,-4.16644 -43.43743,-12.84625 -51.24571,-34.14556 -14.34984,-37.13496 -7.4681,-79.49434 8.04548,-115.16087 11.38233,-31.1232 42.44943,-47.03016 70.22083,-60.9661 21.83486,-13.12618 35.46509,-35.45013 51.91128,-54.17758 3.02573,-5.60729 12.64615,-16.26317 7.05947,-21.92247 z" />
  </g>
</svg>
