<?xml version="1.0" encoding="UTF-8" standalone="no"?>
<svg
   xmlns:dc="http://purl.org/dc/elements/1.1/"
   xmlns:cc="http://creativecommons.org/ns#"
   xmlns:rdf="http://www.w3.org/1999/02/22-rdf-syntax-ns#"
   xmlns:svg="http://www.w3.org/2000/svg"
   xmlns="http://www.w3.org/2000/svg"
   xmlns:sodipodi="http://sodipodi.sourceforge.net/DTD/sodipodi-0.dtd"
   xmlns:inkscape="http://www.inkscape.org/namespaces/inkscape"
   width="1200"
   height="600"
   id="svg2"
   sodipodi:version="0.32"
   inkscape:version="1.0.1 (3bc2e813f5, 2020-09-07)"
   sodipodi:docname="np-3d-array.svg"
   version="1.0">
  <defs
     id="defs80" />
  <sodipodi:namedview
     id="base"
     pagecolor="#ffffff"
     bordercolor="#666666"
     borderopacity="1.0"
     inkscape:pageopacity="0.0"
     inkscape:pageshadow="2"
     inkscape:zoom="1.4142136"
     inkscape:cx="609.43461"
     inkscape:cy="302.71619"
     inkscape:document-units="mm"
     inkscape:current-layer="layer1"
     inkscape:window-width="1920"
     inkscape:window-height="1061"
     inkscape:window-x="0"
     inkscape:window-y="19"
     width="12.8cm"
     height="9.6cm"
     units="cm"
     showgrid="false"
     grid_units="mm"
     inkscape:object-paths="true"
     inkscape:grid-points="true"
     inkscape:grid-bbox="true"
     inkscape:guide-points="true"
     showguides="false"
     inkscape:guide-bbox="true"
     inkscape:window-maximized="0"
     inkscape:snap-text-baseline="true"
     inkscape:snap-object-midpoints="false"
     inkscape:snap-grids="true"
     inkscape:snap-center="false"
     inkscape:snap-to-guides="false"
     inkscape:snap-midpoints="true"
     inkscape:snap-smooth-nodes="true"
     inkscape:document-rotation="0"
     inkscape:snap-global="false">
    <inkscape:grid
       id="GridFromPre046Settings"
       type="xygrid"
       originx="0px"
       originy="0px"
       spacingx="2mm"
       spacingy="2mm"
       color="#3f3fff"
       empcolor="#3f3fff"
       opacity="0.15"
       empopacity="0.38"
       empspacing="5" />
  </sodipodi:namedview>
  <metadata
     id="metadata7">
    <rdf:RDF>
      <cc:Work
         rdf:about="">
        <dc:format>image/svg+xml</dc:format>
        <dc:type
           rdf:resource="http://purl.org/dc/dcmitype/StillImage" />
        <dc:title />
      </cc:Work>
    </rdf:RDF>
  </metadata>
  <g
     inkscape:label="Layer 1"
     inkscape:groupmode="layer"
     id="layer1"
     transform="translate(0,-84.157471)">
    <g
       id="g590"
       style="opacity:0.3"
       transform="translate(-617.85734,66.226794)">
      <path
         id="path208"
         style="fill:#ffaaaa;stroke:#ffaaaa;stroke-width:1px;stroke-linecap:butt;stroke-linejoin:miter;stroke-opacity:1"
         d="m 1095.305,467.35635 c 8.9859,22.73838 6.7775,47.5923 6.9928,71.49664 -0.041,11.5549 -3.1987,22.71581 -4.9914,34.03591 -4.0611,4.83313 -5.1053,13.34568 3.9749,10.29921 8.573,-3.07883 16.7075,-7.91162 26.0637,-8.44546 18.3323,-2.76966 35.9442,7.73066 54.2792,3.72424 9.4522,-2.63063 19.5637,-2.56495 28.8378,-0.0245 6.4942,-4.87754 -5.1049,-14.60092 -0.6081,-22.05034 2.2069,-10.4719 3.7177,-21.10494 2.4292,-31.8107 -1.1894,-12.37007 -1.4737,-24.81937 -2.545,-37.17651 -3.0755,-8.46194 -1.3672,-17.28659 -2.7403,-25.60868 -6.8455,-3.31077 -15.5747,-0.50456 -23.1886,-0.47343 -12.9527,1.32429 -25.9823,1.22867 -38.8642,3.32303 -14.6294,-0.005 -29.0482,3.52416 -43.6985,2.60124 -1.9808,0.0145 -3.9615,0.051 -5.9415,0.10939 z" />
      <path
         id="path210"
         style="fill:#ffaaaa;stroke:#ffaaaa;stroke-width:1px;stroke-linecap:butt;stroke-linejoin:miter;stroke-opacity:1"
         d="m 1215.5243,460.99933 c 6.5146,35.60451 7.4211,72.25827 2.0556,108.06522 1.5977,14.33656 18.9608,10.6921 27.9344,6.30779 17.321,-3.6308 35.1621,-3.53595 52.7102,-2.11645 8.1457,-3.5482 21.0304,-2.48243 26.4575,-3.31467 6.0464,-22.46713 7.6084,-46.35498 1.4117,-68.97492 -1.2762,-10.0415 -8.1676,-19.62433 -5.1444,-29.88333 3.0787,-7.94559 -0.552,-12.03987 -7.1512,-6.19559 -11.8974,5.66159 -25.221,0.72987 -37.7603,1.04966 -20.225,-1.11699 -41.7366,5.7212 -60.5135,-4.93771 z" />
      <path
         id="path212"
         style="fill:#ffaaaa;stroke:#ffaaaa;stroke-width:1px;stroke-linecap:butt;stroke-linejoin:miter;stroke-opacity:1"
         d="m 1338.4827,462.81198 c -6.3495,4.84103 -10.3305,13.20062 -6.8168,20.9804 3.3395,9.58081 5.9787,19.38143 6.4419,29.56451 1.1606,14.27858 4.0111,28.89144 -0.059,42.9776 -2.2749,6.58615 -1.4986,17.62735 7.6737,17.5212 15.4707,-4.38087 30.1981,6.10164 45.7359,3.5767 10.9282,-1.08873 21.9914,-1.44033 32.8058,0.72822 6.6282,0.12317 17.6615,-1.92373 16.5719,-10.69535 -1.5125,-9.60412 -0.6748,-19.3478 -0.8893,-29.04581 -0.063,-11.53481 5.1131,-22.3509 4.4741,-33.95466 -0.2038,-8.98597 0.085,-18.08166 -0.7388,-26.99681 -3.4935,-9.34529 -15.0807,-9.37906 -23.3328,-10.91888 -25.6182,-2.26877 -51.5898,2.10002 -77.0453,-2.8037 -1.6124,-0.28263 -3.22,-0.59326 -4.8213,-0.93342 z" />
      <path
         id="path214"
         style="fill:#ffaaaa;stroke:#ffaaaa;stroke-width:1px;stroke-linecap:butt;stroke-linejoin:miter;stroke-opacity:1"
         d="m 1453.3705,469.84114 c 0.048,14.43587 0.9994,29.00564 -1.734,43.27586 -1.4819,19.09441 2.2243,39.22136 -5.9252,57.26943 -1.1711,7.56755 7.9018,10.46274 13.9102,9.30202 15.0961,-2.70763 30.5459,-1.19701 45.8072,-1.70693 16.5585,-0.13171 33.2089,-0.71978 49.5116,-3.84808 0.3363,-11.62733 -7.1417,-22.13016 -5.034,-33.99485 -0.1148,-15.78341 2.8802,-31.34999 4.0737,-47.04456 6.0434,-9.54922 -0.7071,-24.20291 -12.4136,-24.38948 -22.1955,-0.35267 -44.349,2.49172 -66.5609,2.41458 -7.1954,0.50942 -14.7536,1.53066 -21.635,-1.27799 z" />
      <path
         id="path216"
         style="fill:#ffaaaa;stroke:#ffaaaa;stroke-width:1px;stroke-linecap:butt;stroke-linejoin:miter;stroke-opacity:1"
         d="m 1566.9858,472.54022 c 3.5907,13.50846 0.2847,27.40143 -2.8692,40.61686 -2.7822,14.69553 -2.3493,30.03141 1.8617,44.40548 1.985,5.61916 -4.8415,17.01327 4.8349,16.18968 15.1698,0.64599 30.4353,2.92222 45.5842,0.43468 12.0411,-1.04535 23.2717,-7.04707 35.4669,-6.5357 7.1627,4.20011 14.988,-1.27131 10.4791,-9.28166 -4.1546,-21.06397 -7.233,-42.40099 -8.2701,-63.85432 -1.1704,-7.51784 2.2326,-14.84506 1.3103,-22.16988 -4.3896,-4.87263 -12.8435,-4.68875 -19.1937,-5.84169 -16.5654,0.30018 -32.2201,7.8685 -48.9362,6.4411 -6.756,-0.12797 -13.5084,-0.57763 -20.2679,-0.40455 z" />
      <path
         id="path218"
         style="fill:#ffaaaa;stroke:#ffaaaa;stroke-width:1px;stroke-linecap:butt;stroke-linejoin:miter;stroke-opacity:1"
         d="m 1096.8883,342.5069 c 2.1523,11.47175 7.6728,22.31444 6.5383,34.29499 0.9581,22.2453 -2.4454,44.38109 -2.7265,66.56762 -3.2167,5.20024 -3.8816,15.56429 4.6567,8.96294 9.7161,-8.05828 22.8386,-2.67745 34.2473,-5.18968 19.268,-1.94242 39.116,-4.15648 57.9521,1.79435 14.1985,7.27411 18.3108,-12.17602 10.1872,-20.66408 -4.1826,-14.1411 -1.9033,-29.16736 -3.4753,-43.68817 -0.9303,-13.97557 0.03,-28.03319 1.263,-41.87841 -3.3263,-14.74607 -19.0879,-6.37086 -28.7503,-5.08625 -22.3114,3.44923 -45.0986,4.26371 -67.5089,1.47446 -4.3334,-0.0492 -8.8026,0.85381 -12.3836,3.41223 z" />
      <path
         id="path220"
         style="fill:#ffaaaa;stroke:#ffaaaa;stroke-width:1px;stroke-linecap:butt;stroke-linejoin:miter;stroke-opacity:1"
         d="m 1216.7397,339.72154 c -6.3016,29.45209 -4.4423,60.1723 2.8792,89.2525 4.1775,7.12009 -4.4854,16.36682 0,21.53752 18.2695,-0.73992 36.5467,-3.27102 54.8826,-3.63847 13.5384,-0.49136 26.6948,2.99961 39.8035,5.77876 11.9776,3.66164 11.4791,-10.36607 8.5757,-17.7202 -6.2274,-20.57674 -1.7101,-42.09341 -1.6391,-63.10087 -1.9428,-11.31876 -4.6881,-22.69263 -6.5128,-33.85682 -5.318,-8.64644 -16.4299,-5.69079 -24.8543,-5.59084 -12.5382,0.2102 -24.6407,3.53447 -36.9512,5.42564 -9.1678,0.9944 -18.2307,4.30698 -27.5785,2.57378 -2.8683,-0.23785 -5.7336,-0.52519 -8.6094,-0.661 z" />
      <path
         id="path222"
         style="fill:#ffaaaa;stroke:#ffaaaa;stroke-width:1px;stroke-linecap:butt;stroke-linejoin:miter;stroke-opacity:1"
         d="m 1333.2559,341.72263 c 4.5113,21.94128 -10.4832,42.61863 -5.6592,64.64511 1.8234,13.61886 5.6303,27.23848 3.6027,41.0557 0.1849,16.22762 18.7925,7.30694 28.1905,6.09228 16.4517,-1.43888 33.2789,-2.93336 49.421,1.55098 11.1996,-1.80654 27.9417,9.07315 35.0277,-1.07455 0.6505,-10.66256 -1.0072,-21.4554 -1.401,-32.19159 -3.3574,-19.23799 -6.9325,-38.47001 -7.5531,-58.05394 -0.3612,-10.44844 -0.4705,-27.74029 -15.4115,-26.01271 -18.2267,0.29955 -35.1792,8.25456 -53.1964,9.74856 -11.3069,-0.0935 -21.6237,-6.55699 -33.0207,-5.75984 z" />
      <path
         id="path224"
         style="fill:#ffaaaa;stroke:#ffaaaa;stroke-width:1px;stroke-linecap:butt;stroke-linejoin:miter;stroke-opacity:1"
         d="m 1446.7655,339.33424 c 0.3704,16.43157 -0.079,33.04696 3.8372,49.13076 2.1105,17.55039 2.2051,35.32602 3.1761,52.91581 -2.0947,6.68634 -8.4812,20.4067 4.2953,15.73739 19.009,0.67397 38.0207,0.0554 57.034,-0.3796 9.8367,0.62505 19.4494,0.49941 29.2491,1.24855 12.8642,-0.881 -0.1358,-14.54704 4.2625,-22.02974 4.1447,-16.88755 7.199,-34.37158 6.9867,-51.79986 -2.8995,-13.96369 -5.0741,-29.24043 -12.5027,-41.46571 -8.0138,-9.40306 -19.2128,-1.96096 -28.8404,-0.71096 -18.9125,2.91725 -37.9771,-0.26319 -56.623,-3.34143 -3.6319,-0.26879 -7.3177,-0.13223 -10.8748,0.69479 z" />
      <path
         id="path226"
         style="fill:#ffaaaa;stroke:#ffaaaa;stroke-width:1px;stroke-linecap:butt;stroke-linejoin:miter;stroke-opacity:1"
         d="m 1569.8228,345.97303 c 6.4954,20.13547 0.562,41.11435 -4.1525,60.89118 -2.9693,16.08661 -3.752,32.79698 -0.3084,48.8762 8.0884,6.02949 19.6675,1.5889 29.1261,4.23196 17.919,0.39187 35.8016,-6.30174 53.5976,-1.42672 16.1257,1.06934 7.6854,-19.79467 7.9487,-29.19632 -2.2331,-23.07302 -4.0364,-46.68219 1.4254,-69.4546 3.2592,-9.55796 -3.6029,-19.97798 -14.1573,-17.91484 -21.4213,1.84879 -42.9042,6.56249 -64.4497,3.35245 -3.0198,-0.1014 -6.0646,0.0242 -9.0299,0.64069 z" />
      <path
         id="path228"
         style="fill:#ffaaaa;stroke:#ffaaaa;stroke-width:1px;stroke-linecap:butt;stroke-linejoin:miter;stroke-opacity:1"
         d="m 1095.0219,227.29651 c 7.8083,18.57628 4.3379,39.16582 7.2317,58.64556 1.2219,12.63412 1.3948,25.69928 -2.8239,37.83967 0.664,9.30098 11.5777,1.20642 16.6397,0.71506 12.842,-2.17023 25.9617,-1.78931 38.8241,-3.92415 13.2043,-1.18238 26.6836,-2.82474 39.8548,-0.8742 6.0972,3.63447 10.5592,-0.73076 8.1316,-7.23674 -1.0649,-15.34095 -3.507,-30.59169 -3.1379,-46.0132 -0.067,-8.54888 -1.5989,-17.05925 -2.8419,-25.41601 0.8728,-8.11525 -6.5781,-13.68636 -11.9392,-18.18677 -8.9761,-1.27688 -17.8522,3.17242 -26.736,4.4218 -11.8729,2.99131 -24.1848,3.2623 -36.2566,1.43862 -9.0138,-0.0974 -18.0928,-4.95051 -26.9464,-1.40964 z" />
      <path
         id="path230"
         style="fill:#ffaaaa;stroke:#ffaaaa;stroke-width:1px;stroke-linecap:butt;stroke-linejoin:miter;stroke-opacity:1"
         d="m 1207.0636,229.37416 c 5.443,20.74553 2.018,42.59045 6.9591,63.43832 0.931,13.95639 -4.2546,27.33344 -7.176,40.69304 6.1597,4.70622 17.5311,-1.44627 25.6064,-1.27733 14.8091,-4.23847 30.2591,-1.30962 45.2725,-3.22032 9.9618,-4.25984 20.3585,0.42491 29.7864,-0.1434 6.318,-9.77742 -3.2915,-21.10088 -2.4689,-31.74718 -1.891,-17.72222 -2.1955,-35.67315 -1.5243,-53.44382 2.2065,-7.75044 6.007,-20.93623 -5.4687,-22.99159 -11.9918,-1.12482 -24.0841,1.1723 -36.1455,0.39735 -12.5226,-0.38859 -24.9843,1.84782 -36.4562,6.86838 -5.9602,1.66918 -12.2397,2.05666 -18.3848,1.42655 z" />
      <path
         id="path232"
         style="fill:#ffaaaa;stroke:#ffaaaa;stroke-width:1px;stroke-linecap:butt;stroke-linejoin:miter;stroke-opacity:1"
         d="m 1324.4876,322.83579 c 10.9666,13.80306 30.5903,15.18806 46.5239,11.03967 13.6216,-2.06492 27.4551,-2.34922 40.8641,-5.68284 9.5761,2.03085 20.1163,0.32023 15.1448,-12.19864 -0.4357,-26.33055 -2.9203,-52.7129 -3.2372,-79.0485 4.1787,-8.91211 0.4602,-21.90421 -11.5816,-18.84267 -18.2227,3.92304 -36.8488,-0.51152 -55.2865,0.4645 -14.1765,-0.77033 -27.7955,5.11417 -41.7826,3.18967 -4.3605,11.5397 6.677,25.7045 3.0721,38.68525 -2.598,13.52875 -5.4656,28.32855 1.7227,41.01296 2.388,6.90369 3.9538,14.09829 4.5603,21.3806 z" />
      <path
         id="path234"
         style="fill:#ffaaaa;stroke:#ffaaaa;stroke-width:1px;stroke-linecap:butt;stroke-linejoin:miter;stroke-opacity:1"
         d="m 1443.145,318.89819 c 18.5093,5.80167 35.8626,17.10462 55.9618,16.17252 11.7237,0.16745 23.4937,0.0863 35.1398,1.45088 12.0503,-2.87002 7.6306,-18.54299 10.0214,-27.54828 -1.2712,-22.0151 -3.9048,-44.07786 -3.0449,-66.17861 3.2986,-9.15645 5.5238,-26.44549 -9.5296,-23.29418 -14.3826,-1.16612 -28.6804,-2.94907 -43.1612,-2.28131 -16.0865,-0.30116 -32.4099,1.37762 -48.3407,0.32681 -13.7427,1.42943 2.2891,17.56887 -0.4194,26.41946 0.7162,17.75428 -1.2674,35.60701 1.8113,53.25058 0.8094,7.20107 1.583,14.42621 1.5615,21.68213 z" />
      <path
         id="path236"
         style="fill:#ffaaaa;stroke:#ffaaaa;stroke-width:1px;stroke-linecap:butt;stroke-linejoin:miter;stroke-opacity:1"
         d="m 1560.0346,232.33186 c -4.1303,18.82243 -10.7574,38.28505 -5.4205,57.60851 1.1143,13.13709 5.3826,26.59653 2.6815,39.68616 -1.1671,14.14892 18.5413,2.07785 26.6425,3.96883 16.7769,-1.34181 33.653,-2.05401 50.3725,-3.6649 8.1992,1.42044 23.9988,9.40984 24.7105,-4.75388 -1.1695,-12.126 -3.6319,-24.19952 -3.3977,-36.48547 -0.048,-15.06544 -0.6381,-30.19745 -1.2102,-45.1888 5.4553,-10.53008 -4.2151,-17.54889 -14.2566,-16.36871 -14.4383,-0.15363 -28.73,2.84659 -43.2088,2.17067 -12.3457,0.18721 -24.7829,0.50365 -36.9132,3.02759 z" />
      <path
         id="path250"
         style="fill:#ffaaaa;fill-opacity:1;stroke:#ffaaaa;stroke-width:1px;stroke-linecap:butt;stroke-linejoin:miter;stroke-opacity:1"
         d="m 1673.898,228.80754 c -2.2533,22.39331 -4.7915,44.89792 -3.9849,67.43135 1.0959,9.6632 3.48,19.7087 -0.1357,29.1585 -2.9541,8.10004 6.5021,10.16824 11.9368,6.42727 19.4255,-3.72324 39.097,1.48345 58.6193,0.78051 6.6207,3.25301 14.4537,0.41429 12.8062,-7.94712 2.4742,-17.05003 5.4801,-34.03649 10.2288,-50.61491 2.1323,-7.06862 2.5397,-15.05732 -2.2351,-21.1906 -5.8462,-4.84413 1.6821,-13.40965 -4.4051,-17.81551 -15.4951,-6.33754 -32.5758,-1.19263 -48.4791,-5.4148 -9.09,-2.57416 -18.7011,-2.48879 -27.8465,-0.30374 -2.1721,0.2233 -4.4111,0.1642 -6.5047,-0.51095 z" />
      <path
         id="path252"
         style="fill:#ffaaaa;fill-opacity:1;stroke:#ffaaaa;stroke-width:1px;stroke-linecap:butt;stroke-linejoin:miter;stroke-opacity:1"
         d="m 1670.1316,345.74617 c 1.5529,14.52783 -4.5595,28.52395 -3.5752,43.05878 0.048,18.48277 0.3995,36.95431 1.7712,55.39043 -2.0845,5.57053 -4.0358,15.01619 5.5976,11.94652 17.9087,0.0799 35.8527,2.49634 53.7182,0.0803 10.2372,-1.10003 20.5571,-1.26554 30.802,-0.36928 10.5223,0.72094 10.1504,-10.05612 8.7332,-17.37047 -0.1006,-13.44001 0.203,-26.97832 -2.7008,-40.1858 -1.6995,-10.9003 1.2019,-21.64595 4.1021,-32.04963 2.1468,-6.51012 2.0084,-17.38447 -7.4469,-16.72905 -9.9473,-1.0874 -19.8828,-2.77549 -29.9553,-2.52837 -17.497,-0.36479 -35.2527,2.09011 -52.4767,-1.98991 -2.8586,-0.33626 -5.9044,-0.60824 -8.5694,0.74651 z" />
      <path
         id="path254"
         style="fill:#ffaaaa;fill-opacity:1;stroke:#ffaaaa;stroke-width:1px;stroke-linecap:butt;stroke-linejoin:miter;stroke-opacity:1"
         d="m 1669.9323,468.7941 c -7.6407,14.80682 -5.9199,32.21226 -1.4184,47.67913 2.9833,13.1927 5.5507,26.63182 5.7844,40.17906 -2.6172,6.20227 -1.7559,14.63264 7.1858,12.03135 16.1749,0.31051 30.929,-8.00585 46.9986,-8.86248 12.6639,-1.40569 25.4468,-2.2402 38.176,-2.0312 8.4047,-3.84376 -0.9624,-13.48814 0.1065,-20.26533 -1.7159,-11.2887 2.0868,-22.19346 3.6556,-33.22013 0.8307,-9.26522 1.447,-19.13243 -1.87,-27.96271 -4.5243,-8.14288 -14.8113,-8.06723 -22.8763,-7.1762 -15.754,0.58248 -31.3637,3.66108 -47.1287,3.57365 -9.7446,-0.0298 -18.8322,-5.01557 -28.6135,-3.94514 z" />
      <path
         id="path308"
         style="fill:#000000;stroke:#000000;stroke-width:1.00157;stroke-linecap:round"
         d="m 1122.7669,269.2244 c 4.6989,-4.94302 8.4375,-10.72386 12.1293,-16.41887 -0.1521,-3.18046 -5.5828,-1.10549 -3.9804,1.9772 0.3704,15.42717 1.6311,30.85192 1.0123,46.29022 -2.4876,4.11748 5.9044,3.75283 3.5704,-0.21985 -1.5448,-13.92058 -2.955,-27.96716 -1.8923,-41.97639 0.9838,-2.85949 1.7897,-9.15385 -2.4446,-6.9041 -0.054,5.15211 -3.4401,9.64468 -6.7557,13.30916 -0.9068,1.54848 -5.7142,2.69547 -1.639,3.94263 z" />
      <path
         id="path312"
         style="fill:#000000;stroke:#000000;stroke-width:1.00157;stroke-linecap:round"
         d="m 1164.2358,251.96041 c -3.0078,2.08882 -6.7954,5.6579 -4.2517,9.5886 2.3191,3.93927 5.8399,7.03429 8.0067,11.09945 3.07,5.22315 5.5991,11.52403 4.2458,17.63815 -0.9892,3.70502 -7.7509,4.0268 -8.6822,3.50813 -2.7893,0.0133 -6.3998,-0.88574 -6.1367,-4.41777 -0.8951,-6.28698 1.7907,-12.75125 6.5841,-16.84814 3.3669,-3.09341 6.5423,-6.60512 7.8471,-11.0978 1.4802,-2.54222 1.6505,-9.19672 -2.8788,-7.17183 -2.1808,1.95791 0.516,5.28556 -1.7357,7.76943 -2.5232,5.89198 -8.8032,8.92258 -11.4791,14.71968 -2.4362,5.14924 -3.4684,11.277 -1.891,16.82643 0.719,3.49113 4.8266,3.44315 7.6147,3.13015 4.6048,-0.32649 10.7621,0.52579 13.3646,-4.30634 1.6862,-4.11532 -0.1645,-8.55246 -1.1059,-12.63428 -1.9144,-6.73504 -6.6603,-12.01784 -10.5496,-17.64667 -2.6561,-2.94731 -0.3056,-6.8892 2.8691,-8.11902 1.6821,-0.65368 -1.5822,-1.4504 -1.8214,-2.03817 z" />
      <path
         id="path314"
         style="fill:#000000;stroke:#000000;stroke-width:1.00157;stroke-linecap:round"
         d="m 1231.2371,269.54711 c 3.8648,-5.80714 5.8784,-12.54841 8.6197,-18.902 -5.1311,-1.1669 -2.1081,5.76065 -2.8382,8.72353 -0.3436,10.51499 -1.4083,20.99233 -2.1565,31.48249 -0.4252,4.71591 -0.8674,9.46294 -1.3288,14.15336 2.142,3.45568 6.7599,-0.31606 4.6174,-3.5505 -0.4899,-12.69563 0.784,-25.37424 0.7735,-38.07058 0.1072,-3.98276 0.2926,-7.96857 0.7688,-11.92636 -1.6708,-2.70161 -4.1889,-0.74639 -2.9424,1.72427 -0.1739,5.72394 -2.8241,11.1948 -6.5877,15.39833 -0.2772,0.65041 0.6218,0.93259 1.0742,0.96746 z" />
      <path
         id="path318"
         style="fill:#000000;stroke:#000000;stroke-width:1.00157;stroke-linecap:round"
         d="m 1276.1572,264.9579 c -1.2834,3.80645 -9.8368,5.98032 -9.8012,5.30135 -4.6206,-0.1158 -9.7213,-3.35796 -9.2907,-8.51071 0.3005,-4.61745 5.3852,-7.55786 9.6412,-7.49319 -3.7453,-0.20884 3.6677,1.39244 3.8292,3.52205 3.3666,4.21859 5.9581,9.64794 4.6016,15.15325 -1.679,7.64932 -6.1051,14.48672 -11.2727,20.25491 -1.3495,2.96859 -9.1015,3.84975 -5.7788,7.60479 3.3492,2.43719 6.8807,-1.354 9.1406,-3.61531 6.1179,-7.75224 12.2902,-16.33223 13.1522,-26.49278 0.7586,-5.21378 -2.1807,-9.95687 -4.9138,-14.13815 -2.3197,-3.5574 -6.0845,-6.59847 -10.5742,-6.14972 -5.9207,0.25299 -12.5178,3.8241 -13.3813,10.20523 -0.9203,5.19195 2.2441,10.8134 7.4249,12.27279 5.966,2.19237 13.8822,2.56367 18.2789,-2.86126 3.5248,-2.81493 3.7076,-3.93274 -1.0559,-5.05325 z" />
      <path
         id="path322"
         style="fill:#000000;stroke:#000000;stroke-width:1.00157;stroke-linecap:round"
         d="m 1343.1924,263.8355 c 1.0007,-3.19608 8.0166,-7.15764 8.1849,-5.9111 4.1098,3.13845 2.9127,9.70351 2.0094,14.26773 -2.716,10.23404 -9.052,18.92235 -14.316,27.95644 -1.1942,2.06572 -4.9521,5.40446 0.054,4.29967 3.8895,0.86874 4.8106,-5.34641 8.8129,-5.2633 5.2273,-1.67717 9.8528,2.51568 14.6963,4.00908 2.1862,1.3423 8.685,-0.46781 3.9124,-2.65809 -6.0964,-2.12269 -12.2221,-5.78453 -18.9538,-4.65681 -4.2602,0.71345 -8.1042,3.76485 -10.1154,7.53376 1.9096,2.14004 4.6456,3.03903 4.682,-0.57701 5.48,-12.07645 14.6618,-22.96912 15.7218,-36.65386 0.4518,-4.64282 -1.225,-12.55693 -7.4212,-11.39153 -4.2543,0.76234 -7.5027,4.09526 -10.0916,7.32115 -0.8934,1.28371 2.2437,1.08392 2.8239,1.72387 z" />
      <path
         id="path324"
         style="fill:#000000;stroke:#000000;stroke-width:1.00157;stroke-linecap:round"
         d="m 1388.9109,254.91305 c -4.7588,2.14399 -9.668,5.41059 -10.9884,10.80139 -2.4535,7.70263 -3.3354,16.86362 1.3215,23.93574 3.4835,5.37976 10.6577,5.89143 16.4142,4.99281 5.0434,-0.42682 8.1634,-5.14309 9.3301,-9.65135 2.4234,-7.89421 3.4383,-16.7795 0.113,-24.56784 -2.3435,-3.1044 -7.0546,-3.25282 -10.4178,-1.98826 -2.6391,0.49764 -4.5313,5.10815 -2.8354,6.21304 2.191,-1.20353 4.9201,-2.85273 7.1945,-3.52412 -2.6511,-0.50414 3.0047,0.32621 2.8987,2.42078 3.2383,7.87757 1.3018,17.1949 -3.2343,24.15538 -3.898,5.27819 -12.8681,5.21885 -16.5286,-0.2925 -3.8308,-5.42439 -2.8465,-12.57419 -1.3527,-18.62977 1.0521,-4.27062 3.6145,-8.33557 7.855,-10.0145 2.6938,-0.50187 3.9936,-1.68239 0.9666,-3.16992 l -0.4084,-0.33936 z" />
      <path
         id="path326"
         style="fill:#000000;stroke:#000000;stroke-width:1.00157;stroke-linecap:round"
         d="m 1463.9271,258.56078 c 1.1981,-2.27404 7.4859,-3.75349 7.0058,-3.64544 2.837,1.12096 4.522,5.42268 4.0595,8.89602 -0.7369,8.02558 -6.6755,14.1714 -11.7241,19.93829 -3.2161,3.57732 -7.1566,6.4537 -10.9212,9.32272 -1.1351,4.79349 5.0581,3.67556 7.699,2.31589 3.0034,-0.83758 4.655,-0.29073 6.4171,0.0761 4.2482,0.10144 8.139,2.1701 12.2826,2.66744 3.3688,0.35711 7.3616,-5.84465 1.8165,-5.23542 -8.5389,-1.11279 -17.3806,-3.30321 -25.8771,-0.72567 2.8681,-1.35473 3.3827,2.08719 3.5861,2.37044 5.8968,-6.43491 12.1733,-12.61627 17.2661,-19.73192 3.9275,-5.82432 5.505,-14.19392 1.2202,-20.24662 -3.1163,-4.3203 -9.1699,-2.69829 -12.9159,-0.20497 -2.3149,0.88819 -4.5824,3.20387 -0.7313,3.73972 l 0.5032,0.23053 z" />
      <path
         id="path328"
         style="fill:#000000;stroke:#000000;stroke-width:1.00157;stroke-linecap:round"
         d="m 1506.5967,268.22758 c 4.7054,-6.50212 6.6576,-14.41832 8.8597,-22.00479 -1.8713,-1.7565 -6.1951,-1.12864 -4.9242,2.33655 0.7508,5.51395 0.1605,11.09091 -0.053,16.63226 -0.6103,8.98027 -1.7958,17.91673 -3.0655,26.81982 -2.0261,4.29587 7.1734,4.33872 5.1817,0.004 -0.5086,-11.39339 1.1891,-22.7293 1.5886,-34.10304 0.2591,-4.11715 0.6049,-8.2348 1.2666,-12.30917 -2.7236,-0.69625 -6.5202,-0.19161 -5.2035,3.52955 -0.4365,6.40233 -3.2476,12.55035 -7.5505,17.27835 0.9536,1.15605 2.686,1.07312 3.9005,1.8162 z" />
      <path
         id="path330"
         style="fill:#000000;stroke:#000000;stroke-width:1.00157;stroke-linecap:round"
         d="m 1578.1992,269.60402 c 2.1325,-2.37328 6.6325,-5.62508 8.8302,-5.12425 -3.5008,-0.49721 1.5083,2.07257 0.2942,4.05726 -0.6991,7.26975 -4.1201,14.05281 -8.139,20.04592 -2.4451,3.45592 -5.2045,6.82843 -9.049,8.77805 -1.8145,0.93259 2.2514,2.32612 3.5271,2.59219 3.1128,-1.49947 6.6091,-2.35677 10.1228,-2.40471 3.3969,-0.0822 6.8643,-0.11709 10.2057,0.0344 2.473,-0.67985 2.3836,-3.91358 -0.3793,-3.67586 -3.0892,-1.51957 -6.5269,-0.0892 -9.7685,-0.12937 -4.8472,0.47125 -9.7309,1.42425 -14.1173,3.61762 0.8482,3.47987 5.1372,3.52483 6.6167,0.46881 6.8479,-7.34234 11.6186,-16.49167 14.6022,-26.03322 0.7629,-3.21094 1.1975,-7.34203 -1.3425,-9.87056 -3.8359,-2.52182 -8.6715,-0.0833 -11.5943,2.75975 -2.0851,1.40288 -5.2477,3.54749 -0.9639,4.25755 l 0.6955,0.30449 z" />
      <path
         id="path332"
         style="fill:#000000;stroke:#000000;stroke-width:1.00157;stroke-linecap:round"
         d="m 1618.7914,267.45135 c 2.7292,-2.92329 6.4634,-5.38333 10.5373,-5.36604 0.3497,0.7684 -1.8877,0.10112 -0.1555,1.21926 2.7668,2.39309 2.1597,6.75613 1.3675,9.97537 -2.9754,8.82104 -10.1555,15.84325 -18.3464,19.99036 -3.7213,0.91972 2.2362,3.32621 3.9142,3.77137 3.4278,-0.23258 6.9047,-0.84108 10.4087,-0.59442 3.2781,-0.16799 6.9401,0.65101 9.9778,-0.20871 0.8102,-2.8026 -3.2604,-4.78409 -5.5802,-5.25449 -5.5708,0.93331 -11.2793,0.84699 -16.8539,1.86052 -2.0187,0.31469 -4.2634,0.74968 -1.6625,2.46217 2.1616,3.72538 5.1928,0.58378 7.1458,-1.46062 5.8731,-4.81805 11.1662,-10.58738 14.4193,-17.51333 1.9213,-4.73888 2.4065,-10.6056 -0.3036,-15.12813 -2.7716,-3.83166 -8.2578,-2.21624 -11.8634,-0.60171 -2.1661,1.2769 -6.6264,3.39031 -6.7625,5.0437 1.2525,0.60155 2.505,1.20303 3.7574,1.8047 z" />
      <path
         id="path334"
         style="fill:#000000;stroke:#000000;stroke-width:1.00157;stroke-linecap:round"
         d="m 1689.4088,267.96753 c 3.4183,-7.49822 13.4105,-3.942 8.4067,3.97378 -3.0411,10.49237 -9.6356,20.28512 -18.8787,26.18277 4.8356,3.84109 13.296,1.71543 19.4043,0.8583 8.9767,0.82538 4.4851,-9.44749 -1.8639,-5.97238 -4.6406,1.05459 -19.8068,1.4089 -11.9973,8.70498 3.9755,-3.52663 8.8021,-11.24803 12.7377,-16.80967 3.8254,-6.73204 7.2562,-15.00744 5.1053,-22.74919 -3.4887,-6.75655 -15.8787,-0.66304 -15.2039,5.02549 l 1.1184,0.56214 z" />
      <path
         id="path336"
         style="fill:#000000;stroke:#000000;stroke-width:1.00157;stroke-linecap:round"
         d="m 1728.3347,260.93078 c 1.3831,-1.0757 5.031,-1.47162 4.1168,-0.44289 3.1293,0.36631 5.5492,3.98666 3.1464,6.64001 -2.0059,2.81193 -5.3019,4.27552 -8.6045,4.92514 1.2441,0.95118 6.6023,4.62592 2.4726,4.46002 -2.1872,-0.94141 2.8174,1.11493 3.2138,2.35804 2.7947,2.33577 3.192,6.69247 0.3614,9.19331 -2.9301,3.47067 -7.605,4.51663 -10.8989,7.49822 -0.8048,1.81816 -1.9884,3.81621 0.974,2.73715 2.9918,0.0463 5.8811,-0.80539 8.332,-2.52686 4.5308,-2.52229 9.6366,-6.2882 9.6536,-12.01857 0.1108,-4.8077 -4.0286,-7.96543 -7.4297,-10.64776 -2.3741,-2.5892 -8.2459,-2.58715 -6.5983,2.13525 1.3697,3.21415 5.6793,0.20489 7.837,-0.8011 3.6453,-2.55448 7.6853,-6.39162 7.1404,-11.25641 -1.4938,-5.06488 -7.5942,-7.28486 -12.45,-6.42 -1.933,0.36062 -7.0759,1.07443 -3.1425,2.79509 0.6253,0.45719 1.2505,0.91445 1.8759,1.37136 z" />
      <path
         id="path340"
         style="fill:#000000;stroke:#000000;stroke-width:1.00157;stroke-linecap:round"
         d="m 1123.7002,377.8827 c 1.8245,-2.18221 7.7631,-6.6258 7.9387,-2.98649 2.5697,3.72191 1.3938,8.97484 0.9204,13.28604 -2.4977,12.65031 -8.4824,25.40666 -19.3757,32.88414 1.7659,3.95514 6.749,2.572 9.5617,0.73895 6.9754,-1.95225 14.2408,-2.42715 21.4467,-2.73317 0.073,-5.30427 -6.6847,-4.81658 -10.1917,-3.48289 -6.5742,1.39806 -13.2716,2.68197 -19.5767,4.96154 1.0242,4.09152 5.8776,3.11313 6.9084,-0.58877 6.4644,-8.07273 11.6407,-17.32848 13.7079,-27.54317 1.3313,-6.01531 2.3775,-12.45246 0.8549,-18.50742 -1.6158,-4.25358 -7.0139,-3.82053 -10.0233,-1.39375 -1.8336,1.85764 -8.3548,3.84029 -2.1713,5.36499 z" />
      <path
         id="path342"
         style="fill:#000000;stroke:#000000;stroke-width:1.00157;stroke-linecap:round"
         d="m 1168.741,370.37472 c -2.8328,6.02956 -6.8772,11.51237 -11.7725,16.00642 -1.7028,2.51635 1.3115,4.58065 3.6701,4.3648 9.3797,1.44645 18.903,0.8555 28.3533,1.19113 1.3931,-0.79843 -2.4046,-1.86451 -0.1427,-2.28724 -1.3187,-2.58547 -5.1988,-2.1677 -7.7607,-1.6179 -2.3404,0.0354 -4.6462,0.70523 -6.9766,0.5707 -2.5379,-0.44575 -5.212,-0.20818 -7.7701,-0.76377 -1.417,0.10858 -4.9824,-1.98314 -4.0682,0.4751 3.4617,-5.54541 5.9761,-11.6619 9.816,-16.98006 -1.1162,-0.3198 -2.2325,-0.63907 -3.3486,-0.95918 z" />
      <path
         id="path344"
         style="fill:#000000;stroke:#000000;stroke-width:1.00157;stroke-linecap:round"
         d="m 1176.9786,379.72358 c 1.8179,10.79031 -0.146,21.69556 -0.5106,32.51978 -0.3497,2.32215 -1.0104,6.33137 2.6854,5.65337 3.1174,-0.0901 1.9201,-3.37853 1.7823,-5.34971 -0.8155,-10.95067 -1.0271,-21.99093 0.2592,-32.91538 -1.4054,0.0306 -2.811,0.0615 -4.2163,0.0919 z" />
      <path
         id="path346"
         style="fill:#000000;stroke:#000000;stroke-width:1.00157;stroke-linecap:round"
         d="m 1243.4368,377.74077 c 0.5,-2.36484 2.7202,-6.87505 5.5633,-5.26394 1.0135,3.08106 0.4443,6.54929 0.4874,9.77935 -0.7186,10.89804 -4.8468,21.63257 -11.8735,30.01413 -1.6238,1.70754 -7.0156,3.65733 -4.171,6.42045 3.6213,2.16966 8.0306,1.63037 11.8773,0.39894 3.1122,-1.05302 6.3956,-1.15836 9.613,-1.30945 1.1971,-0.0167 4.5775,0.84607 2.4694,-0.54563 2.7631,-0.69288 3.0006,-5.74936 -0.5018,-4.92417 -7.6837,1.26579 -15.4473,2.08738 -23.0664,3.73184 0.6676,3.43751 5.1762,3.50908 6.5344,0.45355 2.7094,-3.38936 4.0736,-7.58571 6.3567,-11.2441 5.332,-10.33606 7.6304,-22.38606 5.6113,-33.90272 -0.9419,-2.96446 -4.8169,-3.94312 -7.1334,-1.87282 -2.1982,1.60068 -6.2572,5.45556 -4.2737,8.00299 0.8072,0.28072 1.6716,0.18194 2.507,0.26158 z" />
      <path
         id="path348"
         style="fill:#000000;stroke:#000000;stroke-width:1.00157;stroke-linecap:round"
         d="m 1288.6643,366.02989 c -4.2098,1.12881 -9.3923,-1.43941 -12.9346,0.90218 -1.8994,3.25915 -1.295,7.29422 -2.0883,10.89148 -0.6013,4.37444 4.6205,4.21375 7.3499,5.69999 5.6678,2.09467 11.3012,7.26514 10.4291,13.84053 -1.0421,5.94147 -6.4591,9.62564 -11.0927,12.82256 -2.005,0.58564 -5.0898,4.37399 -3.957,5.19146 3.3756,-0.21387 6.9357,-0.28204 9.3809,-3.0838 5.3177,-4.13898 10.7635,-10.00329 10.4251,-17.20374 -0.814,-7.00575 -6.5957,-12.23553 -12.6556,-15.12243 -3.583,-0.6805 -5.0593,-3.36066 -3.5377,-6.73922 -0.052,-4.28156 5.4994,-2.30994 8.4279,-3.19198 1.6459,-0.1773 5.21,0.66755 2.4206,-1.50107 -0.7226,-0.83525 -1.4448,-1.67116 -2.1676,-2.50596 z" />
      <path
         id="path350"
         style="fill:#000000;stroke:#000000;stroke-width:1.00157;stroke-linecap:round"
         d="m 1358.4115,383.01324 c 1.6308,-2.8403 4.3713,-5.89464 7.8147,-6.04586 -3.2879,-0.12519 2.454,2.9141 1.3097,5.38558 1.0995,10.40027 -4.1996,20.32007 -11.365,27.50253 -3.5594,3.71912 -7.6822,6.92967 -12.2796,9.26527 2.8647,1.91217 6.48,4.01206 9.7625,1.6654 7.3547,-1.69387 14.9906,-2.11263 22.5218,-1.70549 0.848,-4.61883 -5.5599,-6.57914 -9.1911,-5.17037 -7.1243,1.19189 -14.7515,1.36024 -21.3159,4.4204 1.6977,3.65745 5.5565,4.59733 7.4196,0.4758 7.0645,-8.35086 16.2391,-16.26805 17.8695,-27.69912 0.7345,-5.36895 2.1674,-12.25671 -2.051,-16.51263 -3.9157,-2.6692 -8.3943,0.15576 -11.1583,3.10147 -2.9074,2.27818 -4.7097,4.74566 0.6631,5.31702 z" />
      <path
         id="path352"
         style="fill:#000000;stroke:#000000;stroke-width:1.00157;stroke-linecap:round"
         d="m 1405.0353,369.24733 c -5.5766,4.48491 -10.4069,10.14821 -12.6021,17.06597 -1.9163,5.45788 -3.5108,11.36092 -2.6912,17.17264 1.6051,6.32344 7.0046,11.44602 13.1145,13.44315 4.1385,1.13745 9.2295,0.80737 12.029,-2.87461 2.612,-3.2295 4.0127,-7.73473 3.1899,-11.83568 -1.4213,-4.80633 -7.5391,-4.37554 -11.4825,-3.76866 -3.4831,0.47805 -8.8639,2.5097 -8.0972,6.85621 2.5805,1.73801 6.3556,-1.60054 9.0664,-2.70976 0.9161,-0.26741 2.9104,-0.41925 0.5888,-0.60411 3.9396,-1.77714 6.3573,3.51859 3.9441,6.40429 -0.5259,2.82902 -5.684,4.80108 -6.1984,4.7117 2.4816,0.40152 -4.6389,-0.6954 -5.4697,-2.1061 -4.8139,-2.95629 -7.5048,-8.94863 -6.0656,-14.48209 1.4467,-9.51545 6.1815,-19.0235 14.4953,-24.29049 0.4394,-1.67594 -3.1016,-1.85073 -3.8213,-2.98246 z" />
      <path
         id="path354"
         style="fill:#000000;stroke:#000000;stroke-width:1.00157;stroke-linecap:round"
         d="m 1470.1025,381.97552 c 1.468,-3.68942 8.4469,-6.63901 10.0782,-5.46551 -2.6519,0.12336 2.4706,3.7891 1.1183,5.92041 -0.4265,11.55318 -5.7752,22.59001 -13.2991,31.22177 -2.5622,2.75798 -5.3037,5.48515 -8.5855,7.35433 -1.8806,5.74972 7.3629,3.81007 10.7247,3.18611 8.3085,-1.43177 16.7213,-2.25834 25.1104,-3.10859 3.0551,-4.51288 -5.6067,-7.13149 -8.8756,-5.04871 -8.4243,1.98793 -17.0308,3.02206 -25.6083,4.09266 2.5401,-1.23588 5.4128,3.16261 5.5367,2.4339 7.1011,-8.74664 14.2507,-17.89218 17.3945,-28.90699 1.3514,-5.43462 3.2992,-11.32566 1.4866,-16.86737 -2.0029,-5.88283 -9.9948,-4.3395 -13.6723,-1.01929 -1.6518,1.55686 -7.6694,5.26536 -2.3195,5.81091 z" />
      <path
         id="path356"
         style="fill:#000000;stroke:#000000;stroke-width:1.00157;stroke-linecap:round"
         d="m 1513.2709,379.2918 c 6.2436,-1.25735 12.3944,-3.25815 18.7673,-3.6866 -1.6486,1.33505 -4.8613,-0.78992 -4.6052,-0.55886 -2.2755,8.12441 -6.1813,15.66576 -9.3755,23.44696 -2.4658,5.64778 -5.3048,11.13703 -8.0072,16.65999 -0.2097,5.81893 6.8741,2.73229 6.9146,-1.35626 2.9589,-8.92877 6.8971,-17.51885 10.8152,-26.06581 1.9914,-4.357 4.3378,-8.55041 6.433,-12.84656 1.046,-4.53497 -4.7453,-4.53648 -7.5658,-3.31403 -5.5302,2.06447 -11.4214,3.32665 -17.3289,3.54153 1.3175,1.39321 2.635,2.78643 3.9525,4.17964 z" />
      <path
         id="path358"
         style="fill:#000000;stroke:#000000;stroke-width:1.00157;stroke-linecap:round"
         d="m 1515.0203,396.32941 c 5.5485,-0.1241 11.0886,-0.608 16.6153,-1.03071 1.783,-0.39955 1.3476,-2.33415 1.4076,-3.45546 -1.516,-0.58591 -2.8366,-1.5867 -4.4424,-2.0155 -1.87,-0.71794 -3.8797,-0.57407 -5.7886,-0.0887 -4.225,0.61879 -8.4996,0.8404 -12.7667,0.9028 1.6583,1.89584 3.3165,3.79177 4.9748,5.68761 z" />
      <path
         id="path360"
         style="fill:#000000;stroke:#000000;stroke-width:1.00157;stroke-linecap:round"
         d="m 1591.5476,385.55209 c 0.5548,-2.15765 4.0004,-6.07177 4.4402,-5.32315 -5.2462,-0.99071 1.0082,3.58716 -0.087,6.36663 0.5837,10.36868 -4.8602,20.22974 -11.7991,27.57901 -2.2059,3.97837 -9.1601,4.30303 -8.966,9.4269 2.6014,4.3235 8.555,0.87539 12.5488,1.06114 6.5578,-0.25661 13.1382,-0.0551 19.6846,-0.60362 3.5203,-3.52458 -3.8658,-5.61126 -6.6466,-5.71108 -7.5466,0.40191 -15.1127,0.93703 -22.6613,1.49672 3.3006,-2.80002 4.7423,3.91014 4.9032,3.2164 8.0448,-9.10474 16.0248,-19.26855 18.0559,-31.58272 0.632,-4.83816 0.3601,-10.16991 -2.1756,-14.43033 -3.7712,-3.98055 -9.0872,-0.51747 -10.9751,3.52686 -1.8517,1.89816 -2.5631,4.21398 0.8887,4.1791 0.9298,0.26634 1.8597,0.53253 2.7897,0.79814 z" />
      <path
         id="path362"
         style="fill:#000000;stroke:#000000;stroke-width:1.00157;stroke-linecap:round"
         d="m 1631.0499,376.77658 c -4.1669,1.78991 -8.6775,5.58838 -7.7567,10.6319 1.6932,5.71135 6.4625,9.9731 8.0621,15.76612 1.8179,5.00565 0.9098,11.55216 -4.0539,14.40944 -1.2942,1.1739 -6.238,1.54233 -2.2121,0.84188 -3.8745,-1.08223 -3.6612,-6.20077 -2.3712,-9.2281 3.0249,-5.92715 9.2322,-9.14267 13.4448,-14.0995 3.5815,-3.72563 6.7772,-9.43306 4.3569,-14.58548 -1.2298,-3.15444 -6.4459,-3.71391 -8.2127,-1.55514 0.7929,3.2641 3.6935,7.33213 0.5933,10.47318 -4.4547,7.24302 -13.3127,11.35878 -15.6798,19.91669 -1.0612,4.57592 -0.6478,11.06025 4.2053,13.2988 7.7306,1.79181 16.1497,-5.10105 15.82,-13.10162 0.059,-7.52783 -5.1661,-13.37283 -8.6243,-19.58956 -2.099,-3.33308 -1.889,-8.07655 1.5437,-10.44658 1.2063,-1.29322 3.7088,-1.45788 0.8846,-2.73203 z" />
      <path
         id="path364"
         style="fill:#000000;stroke:#000000;stroke-width:1.00157;stroke-linecap:round"
         d="m 1688.6707,387.98256 c 1.0169,-2.04781 4.3703,-4.9648 5.7152,-4.58833 0.4349,1.71866 2.9038,3.67701 2.4352,6.23539 0.9348,8.06918 -2.8005,15.85794 -7.2819,22.32073 -2.7407,3.67802 -6.1255,6.88399 -9.9879,9.36312 -1.0643,0.30533 2.7333,2.32449 3.4868,3.01475 3.5364,1.35965 7.566,0.54058 11.2994,1.13246 3.7545,0.0152 7.8371,0.82565 11.3854,-0.47338 1.8657,-0.90255 2.036,-4.12682 -0.7216,-3.22684 -1.8734,-0.35764 -5.5462,-1.70601 -5.6941,-1.18614 -6.7212,0.0679 -13.4757,-0.83443 -20.1698,0.11579 -0.8142,2.88194 4.1777,5.37867 5.5334,2.2191 6.6885,-7.27192 13.1268,-15.41172 15.4998,-25.22077 1.1268,-5.24206 1.8039,-11.24795 -1.1681,-16.02389 -1.6084,-2.33728 -4.6666,-2.21916 -7.1268,-1.73855 -3.1704,0.91476 -5.4788,3.6106 -7.364,6.12938 0.6486,1.46036 3.025,0.94493 4.159,1.92718 z" />
      <path
         id="path368"
         style="fill:#000000;stroke:#000000;stroke-width:1.00157;stroke-linecap:round"
         d="m 1736.3332,390.10074 c -2.2993,4.31353 -7.2222,7.18707 -12.1338,6.74977 2.5228,-0.21175 -2.7262,-1.97544 -1.9692,-4.00565 -1.1384,-4.76331 3.109,-9.90352 7.9897,-9.75022 -2.5142,0.2802 3.2936,0.94751 3.6975,2.31731 5.9509,4.2798 6.7514,13.12856 3.2081,19.2052 -3.819,7.45845 -10.7174,12.88956 -18.1602,16.43521 -3.8262,3.50508 3.4225,3.96482 5.5464,2.23717 7.7253,-4.82299 15.3684,-11.20237 18.3816,-20.09862 2.2219,-7.2899 0.7283,-16.547 -6.1779,-20.82071 -4.472,-3.29069 -11.4596,-3.35079 -15.0791,1.26166 -3.3382,4.12739 -4.2265,11.45572 0.3866,15.0139 4.6841,2.19624 10.2305,-0.27939 13.7595,-3.60645 1.2938,-1.55233 5.4647,-4.35848 1.2892,-4.67817 z" />
      <path
         id="path370"
         style="fill:#000000;stroke:#000000;stroke-width:1.00157;stroke-linecap:round"
         d="m 1126.2769,508.39789 c 1.1067,-2.05526 6.1818,-3.99129 5.389,-2.23981 5.313,1.8905 3.052,9.13504 -0.5549,11.65878 -1.142,2.44095 -7.9673,2.54741 -6.4947,4.72518 2.9612,2.44441 6.4573,3.02785 10.0326,3.7647 4.8505,1.29795 8.6968,7.20072 5.7251,11.87495 -3.2388,5.67791 -9.9095,7.78081 -15.4328,10.52574 -3.2539,0.41309 -10.5539,5.31189 -4.0662,6.77932 5.5833,0.34502 10.6431,-2.82751 15.3663,-5.40208 5.9936,-3.8122 12.4162,-10.19655 10.8202,-17.97313 -1.7104,-7.2427 -9.6517,-10.69512 -16.4734,-11.04784 -2.5523,-0.41833 -6.8422,-0.13973 -2.675,2.50852 3.891,3.2447 7.3788,-3.58037 9.7698,-6.12039 3.1863,-4.45013 2.9093,-12.17436 -2.7217,-14.49705 -4.2114,-1.56578 -9.5792,-0.63198 -12.3367,3.07221 0.1751,1.33664 2.6205,1.52471 3.6524,2.3709 z" />
      <path
         id="path372"
         style="fill:#000000;stroke:#000000;stroke-width:1.00157;stroke-linecap:round"
         d="m 1173.1397,502.50104 c -10.9806,7.4633 -13.4384,22.88861 -9.7959,34.90872 2.1233,6.70244 9.9422,11.13671 16.5688,8.07365 8.7937,-4.22141 12.849,-14.23976 14.5833,-23.30301 0.7303,-5.68882 1.3698,-12.90128 -3.4694,-16.9979 -4.4045,-3.45043 -13.8359,-3.09537 -14.0808,3.98434 2.1987,2.73661 8.258,-4.42989 10.4938,0.91372 2.885,7.85311 0.6661,16.90231 -3.407,23.94874 -2.6522,3.69901 -7.4115,8.96769 -11.4981,6.93046 -6.8712,-4.21169 -6.4546,-13.5711 -5.2378,-20.5425 1.1513,-6.03472 4.1716,-11.98623 9.3612,-15.49984 -0.8224,-1.27044 -2.4375,-1.46683 -3.5181,-2.41638 z" />
      <path
         id="path374"
         style="fill:#000000;stroke:#000000;stroke-width:1.00157;stroke-linecap:round"
         d="m 1244.7245,502.17395 c 1.8918,-1.3328 6.3351,-1.46596 5.0926,-0.83011 4.0778,0.68923 4.8845,5.23407 3.8629,8.60152 -1.3407,4.388 -5.2703,7.81574 -9.5667,9.06303 -2.5019,-0.48634 2.4603,2.83678 3.6162,3.86624 1.485,1.3967 6.1929,-0.20796 1.9801,0.36726 6.3573,0.10462 8.6698,9.14721 4.2273,13.12839 -3.764,4.53859 -8.9666,7.60373 -14.3162,9.92036 -2.0895,1.76001 -3.9701,3.50182 -0.063,4.20684 5.5263,2.1064 10.6351,-1.7563 14.7805,-4.95483 4.5137,-3.8395 9.2367,-9.11391 8.7829,-15.4416 -0.4729,-5.99287 -5.2566,-11.92428 -11.6286,-11.81258 -2.2508,0.43061 -7.7602,-0.78197 -8.1921,1.64113 2.2711,4.1188 6.5307,4.69272 9.1697,0.55794 5.8937,-4.24285 9.3214,-13.02867 5.1998,-19.59685 -3.0581,-4.53396 -9.0384,-3.74983 -13.7259,-3.20564 -2.5828,0.22748 -4.7265,1.21216 -1.4109,2.7613 0.7305,0.57602 1.4611,1.15197 2.1919,1.7276 z" />
      <path
         id="path378"
         style="fill:#000000;stroke:#000000;stroke-width:1.00157;stroke-linecap:round"
         d="m 1288.3256,513.63181 c 4.5356,-4.96113 8.1117,-10.69669 11.4232,-16.51979 -4.5933,-1.73226 -5.8068,2.51379 -4.9296,6.16334 0.1151,15.32322 0.2157,30.77821 -2.4625,45.91305 1.2024,4.85383 8.2974,1.42769 5.8712,-2.93219 -0.1694,-12.02707 0.3727,-24.0546 0.3685,-36.08382 -0.6905,-4.33293 2.0157,-9.54239 0.2357,-13.14727 -4.8033,-3.25346 -4.6672,3.56179 -6.7835,6.28677 -1.7046,3.25411 -5.3473,5.83322 -7.4555,8.00838 0.9703,1.14565 2.6146,1.35642 3.7325,2.31153 z" />
      <path
         id="path380"
         style="fill:#000000;stroke:#000000;stroke-width:1.00157;stroke-linecap:round"
         d="m 1361.7114,502.3015 c 0.9415,-2.26759 7.331,-3.2392 6.0991,-1.93473 4.2336,2.05074 3.135,8.58627 -0.3802,10.89354 -2.7061,1.14859 -8.8755,3.19705 -4.851,6.69054 4.202,0.0392 9.0799,0.28111 11.7556,4.19209 3.4079,4.20032 2.1488,10.79495 -2.1035,13.91299 -2.523,3.03898 -6.367,4.42882 -9.4777,6.65014 -1.6586,5.67309 7.2144,3.73832 9.6622,1.26098 5.9797,-3.97737 10.0219,-11.41012 8.7937,-18.64558 -1.0412,-5.55145 -5.6628,-9.94461 -11.1384,-11.07952 -2.5789,-1.87026 -5.4671,0.70109 -2.9567,3.08137 3.0903,-1.16689 5.9548,-3.70825 7.3522,-6.78013 1.7633,-4.23227 0.9767,-9.95385 -2.7682,-12.84579 -4.4462,-2.2133 -10.3606,-0.69995 -13.6208,2.93335 1.1524,0.6792 2.4395,1.07735 3.6337,1.67075 z" />
      <path
         id="path384"
         style="fill:#000000;stroke:#000000;stroke-width:1.00157;stroke-linecap:round"
         d="m 1403.69,504.21922 c 0.2602,-2.14864 4.8139,-4.38507 4.7775,-3.6424 -2.605,0.41599 2.1159,3.41201 1.1136,5.47746 0.8527,9.75246 -5.0293,18.34157 -10.7397,25.67367 -2.0622,3.18173 -6.8078,4.34429 -7.9679,7.84439 0.4478,4.44494 5.6079,3.28351 8.5849,2.61032 6.7797,-0.52379 13.6043,-0.32534 20.3925,-0.87098 4.4327,1.2664 5.472,-3.62534 1.2608,-4.89011 -4.3561,-1.94916 -9.0458,0.60941 -13.5763,0.35284 -4.6787,0.30599 -9.3713,0.77588 -14.0625,0.44912 2.3266,-1.19812 6.0053,0.94718 4.4119,3.67172 6.5234,-7.8452 13.1166,-16.22757 15.1641,-26.48802 0.9824,-4.88021 1.4641,-10.29179 -0.5078,-14.96541 -2.6798,-3.53758 -8.5821,-3.03896 -11.0871,0.49481 -1.5881,1.58944 -3.5659,3.16162 -0.1303,3.46991 0.7887,0.2709 1.5775,0.5418 2.3663,0.81268 z" />
      <path
         id="path386"
         style="fill:#000000;stroke:#000000;stroke-width:1.00157;stroke-linecap:round"
         d="m 1474.8206,508.73392 c 3.2122,-3.02384 8.8454,-0.96971 10.1659,2.98828 1.0311,4.21103 -3.0481,6.59843 -5.9221,8.65088 -2.0771,4.46572 5.2831,4.34415 7.3003,6.96958 4.155,3.18457 3.3567,9.51975 -0.6884,12.41977 -4.7418,4.8419 -11.5977,6.66367 -16.8435,10.71678 -0.995,3.81588 6.0461,1.97855 8.1547,1.00803 5.6106,-2.4477 10.6472,-6.26717 14.7746,-10.75863 3.5195,-3.65616 4.3825,-9.69672 1.1416,-13.78708 -2.0564,-2.81851 -5.0462,-4.73398 -7.9516,-6.57138 -2.5122,1.41716 -0.4881,5.21209 1.2732,1.98596 3.6112,-3.68396 6.1183,-10.27272 2.3059,-14.65189 -4.251,-4.51257 -11.8177,-4.65986 -16.9389,-1.63921 -0.9508,1.46682 2.6069,1.7598 3.2283,2.66891 z" />
      <path
         id="path388"
         style="fill:#000000;stroke:#000000;stroke-width:1.00157;stroke-linecap:round"
         d="m 1516.2217,507.68607 c 5.8311,-1.18981 6.5266,7.79747 0.8629,8.39223 -5.5515,2.67245 0.6742,4.90997 1.6276,6.64796 -1.9256,-0.65743 5.8412,1.17779 6.454,3.66104 5.6976,6.0794 -0.1272,14.28743 -6.3273,17.0023 -2.0457,1.84562 -12.435,4.45893 -7.5569,7.42691 10.2875,10e-4 21.1292,-7.94307 21.8189,-18.6628 -0.3502,-8.11389 -8.2805,-15.2659 -16.4437,-14.25762 1.9265,6.54973 8.8256,0.84413 9.4313,-3.56812 3.3634,-5.10584 -3.6975,-13.33682 -8.5263,-8.24058 -0.4913,0.49364 -0.9307,1.03637 -1.3405,1.59868 z" />
      <path
         id="path390"
         style="fill:#000000;stroke:#000000;stroke-width:1.00157;stroke-linecap:round"
         d="m 1587.7282,505.40668 c -1.925,0.26742 4.0359,0.35981 4.0528,2.15132 3.1895,3.12611 -0.3668,7.38023 -3.2723,9.12713 -3.7667,0.48968 -5.8805,5.98844 -1.2007,6.98316 4.4283,1.21719 9.3102,5.76755 7.495,10.76972 -2.4586,5.71817 -8.7955,7.83052 -13.7301,10.8535 -2.0683,3.59371 4.686,4.96167 6.9949,2.95143 5.7884,-2.74325 12.0301,-7.17727 12.8574,-14.04251 0.7773,-4.50534 -1.5436,-8.85232 -4.9398,-11.68059 -1.238,-1.34143 -5.8355,-4.80835 -4.6364,-0.92448 3.2031,-2.50626 5.8569,-6.48061 6.6511,-10.63198 0.2058,-5.21853 -5.4583,-8.34428 -10.0732,-8.54874 -4.6787,-0.73003 -1.6926,1.27807 -0.1987,2.99204 z" />
      <path
         id="path392"
         style="fill:#000000;stroke:#000000;stroke-width:1.00157;stroke-linecap:round"
         d="m 1623.8372,498.3576 c -3.7526,6.13029 -10.0375,9.97804 -15.0665,14.89514 -2.1036,3.21207 1.4828,5.93446 4.4543,6.2908 6.21,1.78451 12.3522,3.93215 18.7082,5.13753 2.4456,0.40109 6.9816,-0.44813 6.5941,-3.55595 -3.2257,-2.21273 -7.7307,-1.56839 -11.4315,-2.81306 -3.8087,-0.84343 -7.5998,-1.88124 -11.1548,-3.5119 -1.3919,0.14156 -1.1421,1.57122 -0.2337,-0.30623 4.2534,-4.79557 8.3653,-9.71413 12.5961,-14.52949 -1.4887,-0.53562 -2.9775,-1.07125 -4.4662,-1.60684 z" />
      <path
         id="path394"
         style="fill:#000000;stroke:#000000;stroke-width:1.00157;stroke-linecap:round"
         d="m 1627.8428,512.98673 c 0.029,7.73491 -0.374,15.49468 0.1323,23.21393 0.389,1.80851 1.973,5.84281 2.2375,6.06617 0.6662,-3.04864 2.6198,-5.73923 2.3527,-9.01534 0.4638,-6.20542 0.2148,-12.46424 1.072,-18.63364 -0.2698,-2.60375 -4.07,-0.96042 -5.7945,-1.63112 z" />
      <path
         id="path396"
         style="fill:#000000;stroke:#000000;stroke-width:1.00157;stroke-linecap:round"
         d="m 1693.3896,504.13099 c 1.2807,-0.89772 6.1444,-1.04626 2.3492,-0.28206 4.0112,1.84973 2.0094,7.49444 -1.0526,9.31247 -3.1294,0.38969 -6.4932,4.17321 -2.9403,6.56204 5.5096,1.27637 9.0395,8.41778 5.6118,13.26149 -2.6255,4.65374 -6.9638,7.95481 -10.7968,11.50695 -2.7133,4.34999 3.3247,4.85677 5.8996,2.85384 4.5602,-3.36532 8.6859,-7.68623 11.0727,-12.8891 2.5078,-5.42968 1.4907,-12.30124 -3.0509,-16.36628 -0.9883,-1.95224 -4.322,-3.0244 -3.2193,0.30746 4.1232,-1.78049 6.9607,-6.29699 6.9162,-10.84612 0.168,-3.91004 -2.4228,-8.47828 -6.7886,-8.34289 -2.3343,0.24079 -7.1653,-0.11845 -7.8181,1.94933 1.3695,0.85326 2.5444,1.98175 3.8171,2.97287 z" />
      <path
         id="path398"
         style="fill:#000000;stroke:#000000;stroke-width:1.00157;stroke-linecap:round"
         d="m 1743.7175,498.33439 c -4.8877,0.22519 -10.7825,-1.26684 -14.5524,2.79344 -2.3291,2.79563 -4.5877,6.02728 -5.4629,9.55535 -0.2994,3.75084 7.1309,1.6477 6.6655,2.60987 -1.5931,0.0926 -4.862,-0.32939 -1.4249,0.0496 3.9115,1.0444 8.004,3.9617 8.794,8.13644 0.3306,5.17258 -4.5802,8.43227 -8.4118,10.88597 -3.4133,2.30242 -7.7464,3.028 -10.8716,5.75036 -0.5719,1.68017 -3.3249,2.35711 -0.1996,2.06702 5.0102,0.9282 10.1899,-1.01704 14.6456,-3.2583 5.1245,-2.63615 10.4086,-6.61999 11.3384,-12.70762 1.1096,-5.15808 -2.3617,-9.8914 -6.5146,-12.55613 -3.3148,-2.45684 -7.5065,-5.17596 -11.8124,-3.91824 1.0426,1.48424 6.421,-0.3917 4.8481,3.26395 0.4446,-3.54517 3.6673,-7.82945 6.3108,-8.25235 -1.527,-0.12506 3.0639,0.79096 3.6073,-0.99684 1.0412,-1.11582 1.9832,-2.31952 3.0405,-3.42256 z" />
    </g>
    <path
       id="path77"
       style="opacity:0.9;fill:#ffaaaa;stroke:#ffaaaa;stroke-width:1px;stroke-linecap:butt;stroke-linejoin:miter;stroke-opacity:1"
       d="m 441.83318,494.66151 c 8.98588,22.73838 6.77749,47.5923 6.99281,71.49664 -0.0412,11.5549 -3.19866,22.71581 -4.99135,34.03591 -4.06114,4.83313 -5.1053,13.34568 3.97491,10.29921 8.573,-3.07883 16.70749,-7.91162 26.06367,-8.44546 18.33225,-2.76966 35.94417,7.73066 54.27919,3.72424 9.45221,-2.63063 19.56367,-2.56495 28.83783,-0.0245 6.49415,-4.87754 -5.10496,-14.60092 -0.60815,-22.05034 2.20691,-10.4719 3.71771,-21.10494 2.42919,-31.8107 -1.18936,-12.37007 -1.47369,-24.81937 -2.54494,-37.17651 -3.07557,-8.46194 -1.36721,-17.28659 -2.7403,-25.60868 -6.84552,-3.31077 -15.57474,-0.50456 -23.18861,-0.47343 -12.95268,1.32429 -25.98236,1.22867 -38.86422,3.32303 -14.62944,-0.005 -29.04825,3.52416 -43.6985,2.60124 -1.98083,0.0145 -3.9615,0.051 -5.94153,0.10939 z" />
    <path
       id="path91"
       style="opacity:0.9;fill:#ffaaaa;stroke:#ffaaaa;stroke-width:1px;stroke-linecap:butt;stroke-linejoin:miter;stroke-opacity:1"
       d="m 562.05253,488.30449 c 6.51459,35.60451 7.42111,72.25827 2.05562,108.06522 1.59769,14.33656 18.96073,10.6921 27.93433,6.30779 17.32105,-3.6308 35.16213,-3.53595 52.71018,-2.11645 8.14572,-3.5482 21.03048,-2.48243 26.45759,-3.31467 6.04638,-22.46713 7.60834,-46.35498 1.41162,-68.97492 -1.27616,-10.0415 -8.16753,-19.62433 -5.14432,-29.88333 3.07869,-7.94559 -0.55208,-12.03987 -7.15125,-6.19559 -11.89738,5.66159 -25.22095,0.72987 -37.7603,1.04966 -20.22504,-1.11699 -41.73658,5.7212 -60.51347,-4.93771 z" />
    <path
       id="path100"
       style="opacity:0.9;fill:#ffaaaa;stroke:#ffaaaa;stroke-width:1px;stroke-linecap:butt;stroke-linejoin:miter;stroke-opacity:1"
       d="m 685.01095,490.11714 c -6.34959,4.84103 -10.33054,13.20062 -6.81689,20.9804 3.33952,9.58081 5.97878,19.38143 6.44192,29.56451 1.16058,14.27858 4.01108,28.89144 -0.059,42.9776 -2.2749,6.58615 -1.4986,17.62735 7.67373,17.5212 15.47072,-4.38087 30.19807,6.10164 45.73589,3.5767 10.92817,-1.08873 21.99139,-1.44033 32.80584,0.72822 6.6282,0.12317 17.66145,-1.92373 16.57184,-10.69535 -1.51244,-9.60412 -0.67482,-19.3478 -0.88925,-29.04581 -0.0632,-11.53481 5.11311,-22.3509 4.47411,-33.95466 -0.20386,-8.98597 0.0852,-18.08166 -0.73885,-26.99681 -3.4935,-9.34529 -15.08066,-9.37906 -23.3328,-10.91888 -25.61818,-2.26877 -51.58978,2.10002 -77.04531,-2.8037 -1.61242,-0.28263 -3.22001,-0.59326 -4.82123,-0.93342 z" />
    <path
       id="path108"
       style="opacity:0.9;fill:#ffaaaa;stroke:#ffaaaa;stroke-width:1px;stroke-linecap:butt;stroke-linejoin:miter;stroke-opacity:1"
       d="m 799.89866,497.1463 c 0.0482,14.43587 0.99946,29.00564 -1.73394,43.27586 -1.48188,19.09441 2.22431,39.22136 -5.9252,57.26943 -1.17109,7.56755 7.90176,10.46274 13.9102,9.30202 15.09609,-2.70763 30.54593,-1.19701 45.80723,-1.70693 16.55843,-0.13171 33.20888,-0.71978 49.51155,-3.84808 0.33626,-11.62733 -7.14172,-22.13016 -5.03395,-33.99485 -0.11486,-15.78341 2.8802,-31.34999 4.0737,-47.04456 6.04332,-9.54922 -0.70717,-24.20291 -12.41362,-24.38948 -22.19552,-0.35267 -44.34905,2.49172 -66.56089,2.41458 -7.1954,0.50942 -14.75366,1.53066 -21.63508,-1.27799 z" />
    <path
       id="path117"
       style="opacity:0.9;fill:#ffaaaa;stroke:#ffaaaa;stroke-width:1px;stroke-linecap:butt;stroke-linejoin:miter;stroke-opacity:1"
       d="m 913.51402,499.84538 c 3.59072,13.50846 0.28464,27.40143 -2.86924,40.61686 -2.7822,14.69553 -2.34931,30.03141 1.86173,44.40548 1.98504,5.61916 -4.84152,17.01327 4.83488,16.18968 15.16985,0.64599 30.43533,2.92222 45.58423,0.43468 12.04105,-1.04535 23.27166,-7.04707 35.46689,-6.5357 7.16269,4.20011 14.98799,-1.27131 10.47909,-9.28166 -4.1546,-21.06397 -7.233,-42.40099 -8.2701,-63.85432 -1.17039,-7.51784 2.2326,-14.84506 1.3103,-22.16988 -4.38959,-4.87263 -12.84349,-4.68875 -19.19366,-5.84169 -16.56545,0.30018 -32.22009,7.8685 -48.93626,6.4411 -6.75593,-0.12797 -13.50838,-0.57763 -20.26786,-0.40455 z" />
    <path
       id="path123"
       style="opacity:0.9;fill:#ffaaaa;stroke:#ffaaaa;stroke-width:1px;stroke-linecap:butt;stroke-linejoin:miter;stroke-opacity:1"
       d="m 443.41646,369.81206 c 2.15235,11.47175 7.67289,22.31444 6.53835,34.29499 0.95814,22.2453 -2.44538,44.38109 -2.72649,66.56762 -3.21671,5.20024 -3.88157,15.56429 4.6567,8.96294 9.71607,-8.05828 22.83858,-2.67745 34.24725,-5.18968 19.26804,-1.94242 39.116,-4.15648 57.95213,1.79435 14.19851,7.27411 18.31084,-12.17602 10.18722,-20.66408 -4.18263,-14.1411 -1.90328,-29.16736 -3.47528,-43.68817 -0.93029,-13.97557 0.0303,-28.03319 1.26301,-41.87841 -3.3263,-14.74607 -19.08793,-6.37086 -28.75039,-5.08625 -22.31134,3.44923 -45.09853,4.26371 -67.5089,1.47446 -4.33333,-0.0492 -8.80259,0.85381 -12.3836,3.41223 z" />
    <path
       id="path132"
       style="opacity:0.9;fill:#ffaaaa;stroke:#ffaaaa;stroke-width:1px;stroke-linecap:butt;stroke-linejoin:miter;stroke-opacity:1"
       d="m 563.26787,367.0267 c -6.30159,29.45209 -4.44223,60.1723 2.87923,89.2525 4.17752,7.12009 -4.48542,16.36682 0.004,21.53752 18.26952,-0.73992 36.54666,-3.27102 54.88256,-3.63847 13.5384,-0.49136 26.69482,2.99961 39.80359,5.77876 11.97759,3.66164 11.47906,-10.36607 8.57564,-17.7202 -6.22734,-20.57674 -1.71007,-42.09341 -1.63906,-63.10087 -1.94279,-11.31876 -4.68809,-22.69263 -6.5128,-33.85682 -5.31798,-8.64644 -16.4299,-5.69079 -24.85437,-5.59084 -12.53811,0.2102 -24.64064,3.53447 -36.95119,5.42564 -9.16772,0.9944 -18.23065,4.30698 -27.57845,2.57378 -2.86833,-0.23785 -5.73363,-0.52519 -8.6094,-0.661 z" />
    <path
       id="path140"
       style="opacity:0.9;fill:#ffaaaa;stroke:#ffaaaa;stroke-width:1px;stroke-linecap:butt;stroke-linejoin:miter;stroke-opacity:1"
       d="m 679.78407,369.02779 c 4.51132,21.94128 -10.48316,42.61863 -5.65919,64.64511 1.82345,13.61886 5.63031,27.23848 3.60268,41.0557 0.18496,16.22762 18.79258,7.30694 28.19057,6.09228 16.45169,-1.43888 33.27889,-2.93336 49.42102,1.55098 11.19952,-1.80654 27.94161,9.07315 35.02768,-1.07455 0.65052,-10.66256 -1.00727,-21.4554 -1.40098,-32.19159 -3.3574,-19.23799 -6.93254,-38.47001 -7.55316,-58.05394 -0.36118,-10.44844 -0.4705,-27.74029 -15.41144,-26.01271 -18.22672,0.29955 -35.1792,8.25456 -53.19646,9.74856 -11.30691,-0.0935 -21.62366,-6.55699 -33.02072,-5.75984 z" />
    <path
       id="path149"
       style="opacity:0.9;fill:#ffaaaa;stroke:#ffaaaa;stroke-width:1px;stroke-linecap:butt;stroke-linejoin:miter;stroke-opacity:1"
       d="m 793.29366,366.6394 c 0.37048,16.43157 -0.0787,33.04696 3.83725,49.13076 2.11048,17.55039 2.20508,35.32602 3.17608,52.91581 -2.09464,6.68634 -8.48118,20.4067 4.29532,15.73739 19.00902,0.67397 38.02072,0.0554 57.03399,-0.3796 9.83671,0.62505 19.44937,0.49941 29.24914,1.24855 12.86417,-0.881 -0.13579,-14.54704 4.2625,-22.02974 4.14469,-16.88755 7.19897,-34.37158 6.98667,-51.79986 -2.89951,-13.96369 -5.07414,-29.24043 -12.50274,-41.46571 -8.01372,-9.40306 -19.21274,-1.96096 -28.84039,-0.71096 -18.91246,2.91725 -37.9771,-0.26319 -56.62301,-3.34143 -3.63183,-0.26879 -7.31763,-0.13223 -10.87481,0.69479 z" />
    <path
       id="path158"
       style="opacity:0.9;fill:#ffaaaa;stroke:#ffaaaa;stroke-width:1px;stroke-linecap:butt;stroke-linejoin:miter;stroke-opacity:1"
       d="m 916.351,373.27819 c 6.49543,20.13547 0.56198,41.11435 -4.15248,60.89118 -2.96927,16.08661 -3.75204,32.79698 -0.30842,48.8762 8.08844,6.02949 19.66755,1.5889 29.12606,4.23196 17.91902,0.39187 35.80164,-6.30174 53.59765,-1.42672 16.12569,1.06934 7.68539,-19.79467 7.94869,-29.19632 -2.2331,-23.07302 -4.03639,-46.68219 1.4254,-69.4546 3.2592,-9.55796 -3.6029,-19.97798 -14.15729,-17.91484 -21.42135,1.84879 -42.90418,6.56249 -64.44971,3.35245 -3.01977,-0.1014 -6.06457,0.0242 -9.0299,0.64069 z" />
    <path
       id="path171"
       style="opacity:0.9;fill:#ffaaaa;stroke:#ffaaaa;stroke-width:1px;stroke-linecap:butt;stroke-linejoin:miter;stroke-opacity:1"
       d="m 441.55012,254.60167 c 7.80828,18.57628 4.33792,39.16582 7.23169,58.64556 1.22192,12.63412 1.39479,25.69928 -2.82391,37.83967 0.664,9.30098 11.57772,1.20642 16.63971,0.71506 12.84196,-2.17023 25.96172,-1.78931 38.82408,-3.92415 13.20428,-1.18238 26.68361,-2.82474 39.85485,-0.8742 6.09721,3.63447 10.5592,-0.73076 8.13161,-7.23674 -1.06497,-15.34095 -3.50709,-30.59169 -3.13799,-46.0132 -0.0673,-8.54888 -1.59882,-17.05925 -2.84182,-25.41601 0.87273,-8.11525 -6.57812,-13.68636 -11.9392,-18.18677 -8.97616,-1.27688 -17.85222,3.17242 -26.73607,4.4218 -11.87287,2.99131 -24.18477,3.2623 -36.25661,1.43862 -9.01375,-0.0974 -18.09279,-4.95051 -26.94634,-1.40964 z" />
    <path
       id="path179"
       style="opacity:0.9;fill:#ffaaaa;stroke:#ffaaaa;stroke-width:1px;stroke-linecap:butt;stroke-linejoin:miter;stroke-opacity:1"
       d="m 553.59176,256.67932 c 5.44305,20.74553 2.01807,42.59045 6.95913,63.43832 0.93102,13.95639 -4.25463,27.33344 -7.17601,40.69304 6.15968,4.70622 17.53114,-1.44627 25.60646,-1.27733 14.80902,-4.23847 30.25909,-1.30962 45.27247,-3.22032 9.96183,-4.25984 20.35851,0.42491 29.78643,-0.1434 6.31798,-9.77742 -3.29156,-21.10088 -2.46895,-31.74718 -1.89096,-17.72222 -2.19546,-35.67315 -1.52427,-53.44382 2.2065,-7.75044 6.00695,-20.93623 -5.46873,-22.99159 -11.99178,-1.12482 -24.08405,1.1723 -36.1455,0.39735 -12.52255,-0.38859 -24.9843,1.84782 -36.45621,6.86838 -5.9602,1.66918 -12.23967,2.05666 -18.38482,1.42655 z" />
    <path
       id="path188"
       style="opacity:0.9;fill:#ffaaaa;stroke:#ffaaaa;stroke-width:1px;stroke-linecap:butt;stroke-linejoin:miter;stroke-opacity:1"
       d="m 671.01581,350.14095 c 10.96661,13.80306 30.59029,15.18806 46.52393,11.03967 13.62161,-2.06492 27.45506,-2.34922 40.8641,-5.68284 9.5761,2.03085 20.1163,0.32023 15.14481,-12.19864 -0.43577,-26.33055 -2.92038,-52.7129 -3.23725,-79.0485 4.17868,-8.91211 0.46025,-21.90421 -11.58155,-18.84267 -18.22272,3.92304 -36.84883,-0.51152 -55.28652,0.4645 -14.17652,-0.77033 -27.79554,5.11417 -41.78266,3.18967 -4.36046,11.5397 6.67706,25.7045 3.07218,38.68525 -2.598,13.52875 -5.46562,28.32855 1.72268,41.01296 2.38798,6.90369 3.95376,14.09829 4.56028,21.3806 z" />
    <path
       id="path197"
       style="opacity:0.9;fill:#ffaaaa;stroke:#ffaaaa;stroke-width:1px;stroke-linecap:butt;stroke-linejoin:miter;stroke-opacity:1"
       d="m 789.67318,346.20335 c 18.50931,5.80167 35.86264,17.10462 55.96186,16.17252 11.72367,0.16745 23.49365,0.0863 35.13977,1.45088 12.05031,-2.87002 7.63057,-18.54299 10.02143,-27.54828 -1.27119,-22.0151 -3.90487,-44.07786 -3.0449,-66.17861 3.29854,-9.15645 5.52373,-26.44549 -9.52966,-23.29418 -14.38259,-1.16612 -28.68042,-2.94907 -43.16118,-2.28131 -16.08645,-0.30116 -32.40985,1.37762 -48.34073,0.32681 -13.74262,1.42943 2.28918,17.56887 -0.41935,26.41946 0.71623,17.75428 -1.26738,35.60701 1.81131,53.25058 0.80939,7.20107 1.58294,14.42621 1.56145,21.68213 z" />
    <path
       id="path206"
       style="opacity:0.9;fill:#ffaaaa;stroke:#ffaaaa;stroke-width:1px;stroke-linecap:butt;stroke-linejoin:miter;stroke-opacity:1"
       d="m 906.56276,259.63702 c -4.13029,18.82243 -10.75735,38.28505 -5.42045,57.60851 1.11432,13.13709 5.3826,26.59653 2.68153,39.68616 -1.1671,14.14892 18.54127,2.07785 26.64248,3.96883 16.77692,-1.34181 33.65294,-2.05401 50.37252,-3.6649 8.19907,1.42044 23.99876,9.40984 24.71046,-4.75388 -1.1695,-12.126 -3.6319,-24.19952 -3.3977,-36.48547 -0.048,-15.06544 -0.6381,-30.19745 -1.2102,-45.1888 5.4553,-10.53008 -4.21509,-17.54889 -14.25658,-16.36871 -14.43827,-0.15363 -28.73,2.84659 -43.20884,2.17067 -12.34565,0.18721 -24.78284,0.50365 -36.91322,3.02759 z" />
    <path
       id="path321"
       style="fill:#1a1a1a;stroke:#000000;stroke-width:1.00157;stroke-linecap:round"
       d="m 488.86901,283.40111 c -4.68405,4.32959 -8.09805,10.05703 -8.81845,16.46556 -1.36885,9.08744 0.99517,19.71515 8.69026,25.42932 4.3322,3.04051 10.42791,4.73091 15.4095,2.39861 4.41527,-3.11606 6.71053,-8.4742 8.1016,-13.54215 1.07706,-5.35649 1.29769,-10.99971 0.30191,-16.37139 -1.64221,-5.50768 -6.01236,-10.24818 -11.32838,-12.35703 -4.45698,-2.91498 -10.83511,5.08078 -4.03881,5.71408 2.27867,0.25718 4.94077,-2.58163 1.00344,-1.7776 1.94803,0.74281 6.34228,3.37255 7.7407,6.45883 3.83464,6.67579 2.34924,14.96738 -0.43018,21.73976 -1.44642,3.06909 -3.40373,6.36944 -7.02298,7.05808 2.0899,0.17237 -4.82579,-0.71901 -5.66488,-2.35275 -7.53334,-5.39081 -8.68963,-15.93753 -6.56316,-24.32793 1.08881,-4.62148 4.10708,-8.54049 7.97887,-11.20173 0.27696,-1.78386 -4.10274,-2.11752 -5.35944,-3.33366 z" />
    <path
       id="path323"
       style="fill:#1a1a1a;stroke:#000000;stroke-width:1.00157;stroke-linecap:round"
       d="m 595.57136,299.1352 c 4.87605,-4.15901 8.62429,-9.41945 11.51817,-15.10443 0.68557,-2.54949 6.87056,-8.50708 1.23245,-7.58589 -4.4686,2.01043 -2.09951,9.06432 -3.33611,13.23407 -0.7237,11.29714 -0.13908,22.62606 1.26711,33.84646 -0.33073,2.78107 0.63922,8.831 3.43222,5.17526 4.04549,2.43633 3.42294,-2.60247 2.14637,-4.82346 -1.85306,-9.15976 -2.58665,-18.5259 -3.10324,-27.84423 -0.0814,-6.03175 -0.0148,-12.27879 1.80598,-18.04024 -1.29642,-1.48523 -5.1869,-1.93505 -4.21747,1.30198 -1.56875,7.12289 -6.21307,13.25877 -11.88851,17.6594 -1.80771,1.58566 0.17955,1.33876 1.14303,2.18108 z" />
    <path
       id="path325"
       style="fill:#1a1a1a;stroke:#000000;stroke-width:1.00157;stroke-linecap:round"
       d="m 710.26085,287.82566 c 3.33539,-2.90815 9.22953,-5.89607 13.24095,-2.65952 3.3638,4.35172 2.12244,10.53132 0.52766,15.3616 -5.03928,12.24009 -14.94519,22.12655 -26.45912,28.44597 -1.28932,4.25514 6.99908,4.5532 9.53709,2.49931 9.35174,-3.14011 19.31725,-4.11348 29.12592,-3.91979 1.89915,-2.26064 -5.00718,-6.8127 -8.08096,-4.23958 -8.68501,1.53481 -17.52314,2.38574 -26.01352,4.85106 -4.06608,0.10058 -2.78491,1.55727 -0.0188,2.49528 2.67531,3.60278 6.66178,-3.67674 9.40476,-5.10424 7.9275,-8.20136 16.12219,-17.39938 18.2867,-28.96789 0.55001,-5.04984 0.66677,-11.86449 -4.47396,-14.65284 -6.24816,-2.37513 -12.76266,0.94172 -17.94688,4.3229 0.95673,0.52258 1.91348,1.04511 2.87018,1.56774 z" />
    <path
       id="path327"
       style="fill:#1a1a1a;stroke:#000000;stroke-width:1.00157;stroke-linecap:round"
       d="m 830.89922,283.81925 c 3.59606,-4.07977 10.53075,0.48816 9.50474,5.36704 -0.33947,4.89942 -5.49912,6.67608 -8.51521,9.08557 0.95485,1.69624 5.9729,4.14382 5.75087,3.75567 -3.79719,-0.16457 4.02711,0.14327 4.87366,1.44718 5.04435,2.23173 8.33999,8.86723 4.95418,13.81819 -4.23194,5.91555 -11.03545,9.37891 -17.5555,12.23837 -2.46741,1.2438 -9.72971,1.61514 -5.96889,5.60583 5.11777,4.10023 10.46668,-1.66219 15.03258,-3.82944 5.46754,-3.64647 11.6569,-7.16947 15.00096,-13.0594 3.20667,-6.48421 -0.36742,-14.82427 -6.67932,-17.92562 -3.81892,-2.67022 -10.0064,-4.24655 -14.0114,-2.62405 1.5841,5.52048 6.67072,4.47031 8.96494,0.1657 4.47317,-4.91788 4.49269,-14.36272 -2.24876,-17.32916 -3.40841,-1.75734 -10.10595,-1.33048 -11.43684,2.11266 0.68847,0.58279 1.65749,0.57129 2.33399,1.17146 z" />
    <path
       id="path329"
       style="fill:#1a1a1a;stroke:#000000;stroke-width:1.00157;stroke-linecap:round"
       d="m 947.44472,278.45719 c -3.11743,6.12956 -7.08219,11.78365 -10.86489,17.51094 -1.93007,2.84019 -4.32061,5.44567 -5.82798,8.52637 0.66474,4.08043 6.35406,1.83794 9.19058,1.65859 9.47478,-1.93274 19.22123,-2.62588 28.87948,-2.13353 -1.77581,-1.79667 -3.14553,-5.465 -6.3322,-4.18673 -8.87734,1.07114 -17.61058,3.30934 -26.56128,3.71458 -2.34035,0.37681 -1.30501,-0.82114 -0.15966,0.40422 -0.33587,2.20199 1.68673,-2.64033 2.30161,-3.22283 3.85473,-6.46799 7.60862,-13.00628 11.34177,-19.53672 2.36374,-2.38457 -0.28427,-2.13615 -1.96743,-2.73489 z" />
    <path
       id="path331"
       style="fill:#000000;stroke:#000000;stroke-width:1.00157;stroke-linecap:round"
       d="m 958.13767,292.23977 c 0.5091,7.93961 -0.4099,15.88054 -0.38955,23.82471 -0.12322,5.09275 -0.50386,10.18389 -0.81238,15.25998 0.16252,3.46248 4.64232,3.62893 4.99211,0.0959 0.42833,-3.51167 0.18593,-7.0893 0.29489,-10.63044 0.0613,-8.85215 -0.46726,-17.6998 -0.40828,-26.54851 0.93577,-3.27176 -1.62866,-1.60504 -3.67679,-2.00166 z" />
    <path
       id="path339"
       style="opacity:0.9;fill:#ffaaaa;fill-opacity:1;stroke:#ffaaaa;stroke-width:1px;stroke-linecap:butt;stroke-linejoin:miter;stroke-opacity:1"
       d="m 1020.4262,256.1127 c -2.2533,22.39331 -4.7915,44.89792 -3.9849,67.43135 1.0959,9.6632 3.48,19.7087 -0.1357,29.1585 -2.9541,8.10004 6.5021,10.16824 11.9368,6.42727 19.4255,-3.72324 39.097,1.48345 58.6193,0.78051 6.6207,3.25301 14.4537,0.41429 12.8062,-7.94712 2.4742,-17.05003 5.4801,-34.03649 10.2288,-50.61491 2.1323,-7.06862 2.5397,-15.05732 -2.2351,-21.1906 -5.8462,-4.84413 1.6821,-13.40965 -4.4051,-17.81551 -15.4951,-6.33754 -32.5758,-1.19263 -48.4791,-5.4148 -9.09,-2.57416 -18.7011,-2.48879 -27.8465,-0.30374 -2.1721,0.2233 -4.4111,0.1642 -6.5047,-0.51095 z" />
    <path
       id="path347"
       style="opacity:0.9;fill:#ffaaaa;fill-opacity:1;stroke:#ffaaaa;stroke-width:1px;stroke-linecap:butt;stroke-linejoin:miter;stroke-opacity:1"
       d="m 1016.6598,373.05133 c 1.5529,14.52783 -4.5595,28.52395 -3.5752,43.05878 0.048,18.48277 0.3995,36.95431 1.7712,55.39043 -2.0845,5.57053 -4.0358,15.01619 5.5976,11.94652 17.9087,0.0799 35.8527,2.49634 53.7182,0.0803 10.2372,-1.10003 20.5571,-1.26554 30.802,-0.36928 10.5223,0.72094 10.1504,-10.05612 8.7332,-17.37047 -0.1006,-13.44001 0.203,-26.97832 -2.7008,-40.1858 -1.6995,-10.9003 1.2019,-21.64595 4.1021,-32.04963 2.1468,-6.51012 2.0084,-17.38447 -7.4469,-16.72905 -9.9473,-1.0874 -19.8828,-2.77549 -29.9553,-2.52837 -17.497,-0.36479 -35.2527,2.09011 -52.4767,-1.98991 -2.8586,-0.33626 -5.9044,-0.60824 -8.5694,0.74651 z" />
    <path
       id="path355"
       style="opacity:0.9;fill:#ffaaaa;fill-opacity:1;stroke:#ffaaaa;stroke-width:1px;stroke-linecap:butt;stroke-linejoin:miter;stroke-opacity:1"
       d="m 1016.4605,496.09926 c -7.6407,14.80682 -5.9199,32.21226 -1.4184,47.67913 2.9833,13.1927 5.5507,26.63182 5.7844,40.17906 -2.6172,6.20227 -1.7559,14.63264 7.1858,12.03135 16.1749,0.31051 30.929,-8.00585 46.9986,-8.86248 12.6639,-1.40569 25.4468,-2.2402 38.176,-2.0312 8.4047,-3.84376 -0.9624,-13.48814 0.1065,-20.26533 -1.7159,-11.2887 2.0868,-22.19346 3.6556,-33.22013 0.8307,-9.26522 1.447,-19.13243 -1.87,-27.96271 -4.5243,-8.14288 -14.8113,-8.06723 -22.8763,-7.1762 -15.754,0.58248 -31.3637,3.66108 -47.1287,3.57365 -9.7446,-0.0298 -18.8322,-5.01557 -28.6135,-3.94514 z" />
    <path
       id="path369"
       style="fill:#000000;fill-opacity:1;stroke:#000000;stroke-width:1.00157;stroke-linecap:round;stroke-opacity:1"
       d="m 1077.1544,282.94166 c -6.8811,-0.0905 -13.7311,-0.82894 -20.6044,-1.09801 -2.6686,-1.52963 -6.1795,0.38317 -6.523,3.40192 -0.077,2.84854 -1.4533,5.40154 -1.5751,8.21679 -0.2791,3.42299 3.6078,3.54284 5.9879,2.83333 7.8343,-0.36814 14.8524,5.85738 17.1384,13.08668 1.2502,5.46771 -2.8069,10.25702 -6.5897,13.65245 -3.964,3.78292 -8.8781,6.28241 -13.5427,9.03051 -2.232,0.93267 -4.4915,4.00151 -0.5741,2.57125 7.1985,-1.46072 13.3541,-6.02974 18.4579,-11.11774 3.5904,-3.77499 7.1043,-9.12911 5.2653,-14.53767 -1.9008,-5.93466 -6.5966,-10.64445 -11.7992,-13.8512 -3.0918,-1.50286 -6.6964,-1.8326 -10.0752,-1.34391 0.4987,-2.60497 1.3733,-7.88131 1.5825,-8.53916 6.7163,-0.21628 13.48,-0.31538 20.1438,0.68938 0.9025,-0.99821 1.8052,-1.99649 2.7076,-2.99462 z" />
    <path
       id="path371"
       style="fill:#000000;fill-opacity:1;stroke:#000000;stroke-width:1.00157;stroke-linecap:round;stroke-opacity:1"
       d="m 499.42033,396.49372 c -5.88235,2.26234 -10.96993,6.46922 -13.68031,12.2273 -4.37205,8.46667 -5.95104,18.60785 -3.85445,27.93522 1.74584,6.36186 4.86807,12.57204 9.62317,17.19765 4.77957,3.88965 13.06074,3.01207 15.87861,-2.8553 3.23034,-6.59865 2.1949,-14.93917 -1.47459,-21.15467 -3.77485,-6.00555 -14.18946,-6.71063 -18.02891,-0.46949 -0.82279,6.93088 8.8735,-1.93919 8.10899,-0.56801 6.0605,0.24752 9.0328,6.82543 9.27507,12.16337 1.39399,5.14271 -3.51816,11.47725 -6.7614,12.17847 -4.9871,-0.0899 -8.35934,-4.82524 -10.58082,-8.83893 -6.39115,-12.54743 -3.39578,-28.48599 5.03947,-39.34698 2.09549,-3.15991 7.87408,-4.52998 9.48974,-6.07832 -1.01152,-0.79677 -2.02313,-1.59346 -3.03457,-2.39031 z" />
    <path
       id="path373"
       style="fill:#000000;fill-opacity:1;stroke:#000000;stroke-width:1.00157;stroke-linecap:round;stroke-opacity:1"
       d="m 595.53629,394.55828 c 14.42175,-0.28504 29.38732,-0.3304 42.89099,-5.93265 -5.32043,-0.59164 -6.60908,8.7348 -9.8545,12.45407 -5.17831,9.95944 -11.64063,19.1319 -17.97076,28.36697 -3.48982,5.50511 -6.56455,11.26859 -9.27855,17.19324 1.17162,5.27756 6.83909,-0.6725 6.07509,-3.94763 6.24076,-15.22296 16.91613,-28.01257 24.57837,-42.48422 1.37232,-4.51054 8.51807,-8.71823 6.26865,-13.10821 -4.56799,0.22179 -8.72421,4.40784 -13.66763,4.83506 -9.13916,2.18159 -18.64006,2.39572 -27.97683,1.79764 l -0.59027,0.20193 z" />
    <path
       id="path375"
       style="fill:#000000;fill-opacity:1;stroke:#000000;stroke-width:1.00157;stroke-linecap:round;stroke-opacity:1"
       d="m 605.08439,418.94682 c 9.4028,-0.22191 18.69675,-1.98076 28.09768,-2.19666 -0.50567,-2.03545 -2.66586,-3.92119 -4.82752,-3.36201 -6.1072,1.81046 -12.48916,2.70413 -18.85802,2.71241 -2.10264,-0.96005 -3.13355,1.77822 -4.41214,2.84626 z" />
    <path
       id="path377"
       style="fill:#000000;fill-opacity:1;stroke:#000000;stroke-width:1.00157;stroke-linecap:round;stroke-opacity:1"
       d="m 737.91673,395.6617 c -5.606,-0.004 -12.4929,-1.68959 -16.64664,3.25915 -3.60419,3.34198 -2.21617,9.0915 1.47956,11.75973 5.23988,3.99434 12.29457,6.30058 15.27022,12.69274 2.99986,5.22747 2.48163,11.90378 -1.0012,16.76984 -2.39955,3.90035 -6.1874,7.34696 -10.88164,7.95598 5.11789,-0.10465 -3.52531,-1.16764 -3.15871,-4.05613 -2.71351,-4.63081 -1.01655,-10.55218 2.78563,-14.02996 4.9509,-4.87686 11.35501,-8.38145 14.83248,-14.64223 2.43227,-4.17845 5.26728,-11.30633 0.003,-14.54157 -4.65404,-3.13269 -7.8064,2.10494 -3.39187,5.11565 0.46253,3.32272 -1.8384,6.69788 -3.58832,9.50755 -4.59736,6.28887 -12.44938,9.54329 -16.04462,16.69317 -4.27704,6.93654 -1.20181,17.25924 6.40585,20.38226 5.41998,0.81554 10.74189,-1.50706 14.42981,-5.42473 5.71137,-5.30021 9.01362,-14.16085 5.29685,-21.50826 -2.62673,-5.79217 -7.19526,-10.6043 -12.87838,-13.4719 -3.01831,-1.97997 -7.0552,-4.14537 -7.53457,-8.07579 0.38785,-3.92869 5.35746,-5.61565 8.3235,-5.39608 2.57643,0.71642 4.93759,-0.92187 6.29863,-2.98942 z" />
    <path
       id="path379"
       style="fill:#000000;fill-opacity:1;stroke:#000000;stroke-width:1.00157;stroke-linecap:round;stroke-opacity:1"
       d="m 851.05039,403.20475 c -0.21399,7.33728 -6.38,14.64131 -14.05888,14.35958 -3.02169,-1.65067 -4.27182,-5.61826 -3.36872,-8.9746 1.52825,-6.56957 9.67519,-9.99456 15.72268,-7.52582 5.36813,1.63503 7.67011,7.86532 6.68542,13.02972 -1.07658,11.70914 -6.35969,23.17143 -14.98997,31.21806 -2.79772,2.52584 -5.87893,4.71122 -8.99812,6.81772 -1.55238,3.91141 4.39414,3.99808 6.54283,2.3982 2.89752,-2.09172 5.39511,-4.72129 7.97802,-7.19266 6.95267,-7.13706 11.57746,-16.35899 13.41555,-26.13358 1.56225,-6.64451 1.9809,-14.88055 -3.33911,-20.01315 -7.53313,-6.67685 -21.34521,-5.43277 -26.44408,3.65507 -2.26409,4.82044 -2.10751,11.6024 2.19165,15.2768 2.98143,1.96912 6.92778,1.18765 10.22478,0.45102 4.35058,-1.11434 8.13356,-4.24785 9.60524,-8.56267 0.89525,-2.339 3.69013,-9.73284 -1.16729,-8.80369 z" />
    <path
       id="path381"
       style="fill:#000000;fill-opacity:1;stroke:#000000;stroke-width:1.00157;stroke-linecap:round;stroke-opacity:1"
       d="m 935.16918,420.61695 c 2.26102,-7.74141 3.74584,-15.73567 6.85374,-23.20983 -5.85207,-1.24644 -4.31304,5.16909 -4.59344,8.72388 -0.4157,16.38869 -1.95269,32.72208 -3.82086,49.00047 -2.38325,3.5939 4.27164,5.22008 5.92236,3.6826 -0.63987,-4.58082 -1.01551,-9.20411 -0.98551,-13.87195 0.50551,-14.58861 -0.73811,-29.34327 2.09846,-43.7642 3.11575,-3.14594 -4.98742,-5.17337 -2.72252,-0.37564 -0.32528,6.7403 -2.62641,13.17665 -5.15667,19.36566 0.80148,0.14968 1.60297,0.2993 2.40444,0.44901 z" />
    <path
       id="path383"
       style="fill:#000000;fill-opacity:1;stroke:#000000;stroke-width:1.00157;stroke-linecap:round;stroke-opacity:1"
       d="m 963.92798,402.45262 c -8.83737,11.35308 -11.86244,27.21533 -7.79621,41.00169 1.90806,7.69257 10.84342,14.31653 18.30604,9.00742 8.72206,-6.0032 13.4521,-16.65352 14.8468,-26.90628 0.9908,-8.43549 -2.23398,-19.7237 -11.84937,-21.31861 -5.60548,-2.998 -15.29443,7.8145 -8.12516,9.38239 2.51894,-5.97825 11.14598,-6.76898 13.00113,0.18699 4.82488,10.75926 0.64226,23.72977 -6.90591,32.13323 -5.06584,7.10689 -14.4391,3.86241 -15.79929,-4.46345 -3.49951,-11.69842 -0.006,-24.38472 6.19682,-34.53375 4.0404,-1.86175 0.66625,-3.93657 -1.87485,-4.48963 z" />
    <path
       id="path385"
       style="fill:#000000;fill-opacity:1;stroke:#000000;stroke-width:1.00157;stroke-linecap:round;stroke-opacity:1"
       d="m 1036.7311,423.98721 c 7.1018,-4.32476 10.5478,-12.29786 13.5574,-19.66507 2.7216,-2.61447 0.2817,-5.19188 -2.7764,-3.62125 -1.8978,4.43604 -1.7646,9.71935 -3.0675,14.45891 -2.663,12.80181 -3.0078,25.92043 -5.1724,38.80069 -2.8771,4.60055 7.5452,6.10579 6.5866,0.87508 -0.227,-5.65913 0.4536,-11.32514 0.2148,-17.00497 -0.07,-12.04914 1.2118,-24.24532 5.0117,-35.72555 -2.368,-1.54167 -4.9245,-1.50029 -4.3266,1.9343 -1.5899,6.48608 -5.0479,12.99289 -10.7385,16.73492 -3.681,1.17614 -0.6486,1.93748 0.7109,3.21294 z" />
    <path
       id="path387"
       style="fill:#000000;fill-opacity:1;stroke:#000000;stroke-width:1.00157;stroke-linecap:round;stroke-opacity:1"
       d="m 1069.0334,421.3768 c 7.4455,-4.95424 10.8854,-13.7098 13.9861,-21.65078 -1.9974,-3.03907 -7.4673,-1.56702 -5.9163,2.61354 -0.4019,10.01099 -1.8722,19.94595 -2.6719,29.93124 -0.4214,7.54718 -2.6744,14.8363 -3.185,22.3597 -1.8419,4.91554 4.8828,6.47339 7.5089,3.21739 -0.2223,-4.86909 -0.2152,-10.16971 0.3451,-15.21725 1.1067,-11.22225 1.0135,-22.5158 1.826,-33.74873 -0.4423,-3.0686 2.8413,-8.29806 1.0174,-9.73955 -6.062,-2.18846 -4.4915,5.01821 -6.5177,8.43553 -2.0305,4.75876 -5.6892,9.02432 -10.5883,10.93756 1.3986,0.95375 2.7971,1.90765 4.1957,2.86135 z" />
    <path
       id="path389"
       style="fill:#000000;fill-opacity:1;stroke:#000000;stroke-width:1.00157;stroke-linecap:round;stroke-opacity:1"
       d="m 472.22862,541.21093 c 3.5413,-5.17041 4.49342,-11.46177 6.55987,-17.24652 0.72377,-4.77697 -7.22264,-1.63667 -4.79453,2.2308 0.19394,4.84932 -0.39501,9.72941 -0.58822,14.5966 -0.76014,9.75274 -1.09624,19.52828 -1.07309,29.30827 -1.16797,3.70282 0.90972,10.05869 5.53119,6.47762 2.09753,-4.79033 -0.71621,-10.74088 -0.25767,-15.99044 -0.50338,-10.35936 -0.34233,-20.76524 0.40695,-31.1075 1.02657,-3.65922 1.75764,-9.52416 -3.95901,-7.97295 0.62641,5.99649 -1.28525,12.4524 -5.37597,16.92278 -1.86822,1.8288 2.76678,1.86451 3.55048,2.78134 z" />
    <path
       id="path391"
       style="fill:#000000;fill-opacity:1;stroke:#000000;stroke-width:1.00157;stroke-linecap:round;stroke-opacity:1"
       d="m 504.41898,531.63602 c 2.32728,-7.87948 9.22394,-4.05276 7.9506,2.83952 0.63343,10.51068 -4.50704,21.03782 -11.98398,28.11961 -7.724,3.15426 -3.34571,10.59176 3.83548,8.40548 7.57465,-1.19583 15.27856,-1.59869 22.89405,-0.54097 -4.24097,-0.42519 3.75818,-8.38158 -3.72284,-6.28557 -8.7068,1.26016 -17.61153,0.97031 -26.26141,2.28818 -1.50209,6.1498 9.80345,1.91581 10.1007,-3.16372 3.82236,-6.90591 8.57513,-13.59982 9.42472,-21.70433 0.65849,-5.86242 0.68381,-12.90441 -3.60131,-17.42282 -4.16201,-4.50258 -16.41205,5.66565 -8.63601,7.46462 z" />
    <path
       id="path393"
       style="fill:#000000;fill-opacity:1;stroke:#000000;stroke-width:1.00157;stroke-linecap:round;stroke-opacity:1"
       d="m 594.71247,537.8039 c 5.27584,-5.63009 9.43009,-12.86046 9.60259,-20.74435 -3.09589,-2.09027 -6.98267,1.27952 -5.66125,4.70284 -0.14378,14.35951 -0.4921,28.84531 -3.74987,42.89708 -2.46663,4.02887 5.13046,6.46702 6.70489,2.92638 1.09861,-3.99042 0.44853,-8.28035 1.16375,-12.38858 0.87574,-7.20614 0.24838,-14.43207 -0.0538,-21.64569 -0.12208,-4.84888 0.11617,-9.84636 1.09555,-14.52875 -2.18789,-2.02394 -5.8313,-0.97904 -4.33409,2.31826 -0.12223,5.65864 -3.3648,10.94901 -7.81368,14.27172 -0.45246,1.46326 2.30724,1.31251 3.04591,2.19109 z" />
    <path
       id="path395"
       style="fill:#000000;fill-opacity:1;stroke:#000000;stroke-width:1.00157;stroke-linecap:round;stroke-opacity:1"
       d="m 631.41374,523.6032 c 1.08342,-1.42045 4.55604,-2.9628 3.98968,-1.24747 3.47259,1.54575 3.59141,6.1088 2.74502,9.32238 -0.92876,3.15538 -3.33277,5.94892 -6.50727,6.97103 -0.70916,2.5617 -0.0278,6.12956 3.30952,5.02366 3.48743,0.83506 7.50937,4.70787 5.6212,8.50721 -2.80778,4.57164 -8.39591,6.26084 -13.0916,8.21183 -5.43534,1.4881 -1.40568,6.37741 2.52964,5.88746 4.23329,0.41953 7.95977,-2.29622 11.39622,-4.39299 4.56118,-3.08456 8.6264,-9.10131 5.98607,-14.67414 -1.91199,-3.79426 -5.24213,-6.91517 -9.05726,-8.73961 -2.85829,0.0119 -0.73185,7.20281 1.37634,2.80054 4.627,-5.19859 5.88368,-13.39333 2.25054,-19.44792 -3.04958,-4.73968 -9.88125,-4.01707 -13.89782,-1.00958 -2.62578,0.97325 2.74639,2.01199 3.34972,2.7876 z" />
    <path
       id="path397"
       style="fill:#000000;fill-opacity:1;stroke:#000000;stroke-width:1.00157;stroke-linecap:round;stroke-opacity:1"
       d="m 711.64188,537.50367 c 4.51484,-4.50819 7.71704,-10.12795 9.82342,-16.11179 1.98556,-2.57984 3.40481,-8.63813 -1.71488,-6.04555 -4.2502,1.09552 -1.70533,5.83385 -2.55576,8.88312 -0.73144,11.46871 -1.09898,22.95731 -1.72726,34.42897 -0.18493,3.58009 -1.06427,7.10911 -1.48889,10.62581 0.86326,4.27567 7.74213,3.0862 7.19392,-1.29909 0.81025,-12.28924 0.0935,-24.61855 0.40581,-36.92825 9.6e-4,-4.59387 0.0631,-9.30057 1.59586,-13.6866 -2.3092,-1.77763 -7.00685,-2.30459 -5.86721,1.87358 -0.88222,5.64838 -3.99687,10.78565 -8.13485,14.65947 -4.13517,1.72666 1.32512,2.44962 2.46984,3.60033 z" />
    <path
       id="path399"
       style="fill:#000000;fill-opacity:1;stroke:#000000;stroke-width:1.00157;stroke-linecap:round;stroke-opacity:1"
       d="m 749.01093,517.46362 c -3.02231,7.51249 -8.37722,13.76485 -13.74071,19.69174 -2.26217,2.49182 0.60778,5.55169 3.42795,5.14351 8.70914,0.42124 17.45158,0.22232 26.15652,0.67697 -1.1571,0.0605 -4.19106,0.067 -1.19827,0.33529 2.63257,0.56301 4.90697,-1.27738 6.79913,-2.79705 3.00146,-3.99155 -3.28238,-2.93248 -5.56052,-3.03014 -4.33033,-0.006 -8.66153,0.1966 -12.97077,0.62561 0.11641,0.43911 -4.72821,0.0416 -6.38419,-0.13178 -2.20686,-0.55981 -5.06433,-0.84356 -3.82739,1.76585 3.79963,-6.94924 8.48415,-13.4272 12.06596,-20.51825 -0.85522,-1.56569 -3.37774,-0.94332 -4.76771,-1.76175 z" />
    <path
       id="path401"
       style="fill:#000000;fill-opacity:1;stroke:#000000;stroke-width:1.00157;stroke-linecap:round;stroke-opacity:1"
       d="m 757.59951,526.66197 c 0.21164,11.3268 -1.22034,22.62161 -3.06303,33.77453 -0.43774,2.8092 -2.53717,6.82298 1.14161,8.35887 2.09477,1.68261 5.64746,-0.4706 6.06639,-2.89818 -0.40748,-9.37655 0.71875,-18.73946 0.47446,-28.12176 0.0205,-3.42791 -0.14003,-6.8908 0.0974,-10.28865 -0.79824,-1.716 -3.2993,-0.42609 -4.71679,-0.82481 z" />
    <path
       id="path403"
       style="fill:#000000;fill-opacity:1;stroke:#000000;stroke-width:1.00157;stroke-linecap:round;stroke-opacity:1"
       d="m 824.21015,542.62666 c 4.44151,-5.34015 8.03075,-11.55458 9.46039,-18.39447 3.12203,-2.94668 -1.26781,-5.95368 -3.2094,-2.72651 -0.66734,5.57848 -0.34563,11.28285 -1.23595,16.86793 -1.89053,12.37871 -1.73768,24.99139 -4.06944,37.30705 1.71275,4.87562 9.49469,1.70957 6.97478,-3.2646 -0.31885,-10.96171 0.79033,-21.90894 1.27024,-32.8531 0.11136,-5.52817 0.0158,-11.17156 1.52066,-16.52625 0.90672,-3.16249 -6.62742,-5.13569 -4.10782,-0.85635 -0.93128,6.96479 -3.89351,14.13746 -9.69069,18.5166 0.42765,1.27394 2.22867,1.09418 3.08723,1.9297 z" />
    <path
       id="path405"
       style="fill:#000000;fill-opacity:1;stroke:#000000;stroke-width:1.00157;stroke-linecap:round;stroke-opacity:1"
       d="m 869.44617,521.36919 c -4.98185,1.11719 -11.22143,0.78949 -14.45696,5.5008 -2.38644,3.82806 -2.38587,8.60995 -3.33861,12.85564 -0.0412,4.16337 6.39279,3.22606 7.28948,2.65262 -1.902,0.0343 3.61302,0.33614 4.53686,1.3077 6.22904,2.94046 5.98387,12.36442 0.7033,16.14109 -3.90562,3.23693 -8.35347,5.68884 -13.04397,7.57029 -3.87654,1.01571 -2.76374,5.40773 1.04124,4.69618 5.53858,0.64972 10.1422,-3.3929 14.29533,-6.48586 6.24321,-4.415 10.10581,-13.35049 6.16864,-20.49608 -3.1992,-5.95414 -10.51021,-7.83565 -16.81261,-7.38265 -3.76085,0.1043 4.34004,-1.23478 2.94551,1.99686 0.18004,-4.30076 0.3115,-10.33315 5.44442,-11.66562 2.62014,-1.54838 8.20397,-0.89905 9.24074,-2.59793 -1.14131,-1.54857 -2.78469,-2.62328 -4.01337,-4.09304 z" />
    <path
       id="path407"
       style="fill:#000000;fill-opacity:1;stroke:#000000;stroke-width:1.00157;stroke-linecap:round;stroke-opacity:1"
       d="m 934.61874,542.2326 c 3.84607,-5.15859 6.93045,-10.86813 9.2808,-16.85324 -3.26547,-1.1332 -5.92101,0.93024 -4.83619,4.39516 -0.68696,11.4555 -1.26999,22.91638 -2.42468,34.33609 0.16364,3.29835 -1.33656,6.67503 -0.19921,9.84625 1.98159,3.7882 7.15544,0.34777 5.99482,-3.23942 0.0227,-13.11422 -0.56387,-26.27214 0.58343,-39.356 1.16801,-3.28906 1.09928,-8.35806 -3.79878,-6.10695 -0.0946,3.82986 -2.13255,7.30331 -3.90559,10.57834 -1.37011,2.07542 -6.23062,5.20745 -1.51474,6.03503 l 0.41005,0.18238 0.41006,0.18236 z" />
    <path
       id="path409"
       style="fill:#000000;fill-opacity:1;stroke:#000000;stroke-width:1.00157;stroke-linecap:round;stroke-opacity:1"
       d="m 965.66287,526.02985 c -3.87031,5.10181 -7.72625,10.50011 -8.92964,16.93234 -1.3986,5.84299 -2.38143,12.39488 0.18178,18.04467 2.3277,4.28383 7.227,6.96165 12.0985,6.28474 5.16025,0.0668 9.14152,-3.73257 12.52384,-7.16105 4.66729,-4.34727 2.06907,-13.50652 -4.33707,-14.43691 -6.98233,-1.81823 -15.76787,0.64833 -19.01561,7.51587 -0.32052,1.84599 1.0464,7.22656 2.53467,3.58623 3.12479,-1.22228 4.79487,-4.33417 7.95975,-5.4905 1.31922,-0.83455 6.70176,-1.16005 2.68316,-1.32587 3.92497,-0.92596 8.05115,3.07664 4.81075,6.63317 -1.22159,2.96712 -6.27325,4.99425 -7.53154,5.86825 3.56142,0.54526 -5.0397,0.41156 -5.31489,-1.99112 -3.77135,-4.34919 -2.2818,-10.62271 -1.26914,-15.71989 1.4629,-5.90574 4.45783,-11.39059 8.52176,-15.905 -0.078,-1.94485 -3.75844,-1.63157 -4.91632,-2.83493 z" />
    <path
       id="path411"
       style="fill:#000000;fill-opacity:1;stroke:#000000;stroke-width:1.00157;stroke-linecap:round;stroke-opacity:1"
       d="m 1037.3868,544.22765 c 3.5344,-5.80147 6.7254,-11.78941 9.5776,-17.9539 0.4144,-2.29677 4.3856,-5.36209 3.4787,-6.93138 -5.0617,0.12119 -5.2318,5.15693 -4.6294,9.00857 -1.4005,12.32028 -1.5662,24.82022 -4.1368,36.99511 -2.7775,3.50439 2.4848,9.18341 4.6703,3.80651 1.3936,-3.81648 0.8095,-8.01906 1.0876,-12.01108 -0.043,-10.99911 0.8028,-21.98538 2.0125,-32.91051 2.5632,-3.19732 -5.5729,-8.05668 -4.0068,-2.87437 -1.4993,7.69378 -5.0658,15.2251 -10.7306,20.74088 -2.186,1.09334 2.0551,1.4747 2.6769,2.13017 z" />
    <path
       id="path413"
       style="fill:#000000;fill-opacity:1;stroke:#000000;stroke-width:1.00157;stroke-linecap:round;stroke-opacity:1"
       d="m 1066.2384,523.04616 c 9.0548,3.40622 18.8902,1.12206 27.7292,-1.78049 -3.2883,-2.03551 -7.3597,-2.20811 -7.5082,2.59279 -4.8237,10.7232 -7.717,22.34106 -14.3122,32.21538 -1.6096,4.57138 -8.1982,8.96576 -6.4425,13.80485 5.7133,3.26633 7.3255,-4.96458 9.6633,-8.38439 4.9598,-8.64682 9.0001,-17.75825 12.5086,-27.07611 2.0018,-4.74505 4.2733,-9.38764 6.9972,-13.76304 -1.8688,-2.43869 -4.7491,-6.71251 -7.4692,-2.72721 -3.8683,2.00223 -8.3559,3.20024 -11.9337,2.92329 -3.7786,-1.08292 -6.3949,-0.79784 -9.2325,2.19493 z" />
    <path
       id="path415"
       style="fill:#000000;fill-opacity:1;stroke:#000000;stroke-width:1.00157;stroke-linecap:round;stroke-opacity:1"
       d="m 1073.3669,550.92139 c 6.2729,-2.1348 12.8831,-2.9516 19.3652,-4.16721 2.8092,-0.90272 1.7962,-4.72923 -0.9093,-4.86897 -3.0224,-1.54128 -6.4574,-0.80495 -9.5426,0.095 -5.0487,1.12345 -10.0645,2.46825 -14.9073,4.3007 1.998,1.54684 3.996,3.09367 5.994,4.64051 z" />
    <path
       id="path81"
       style="fill:#000000;stroke:#000000;stroke-width:1.00157;stroke-linecap:round"
       d="m 60.678663,117.26427 c -5.170677,2.93155 -11.612375,6.22133 -12.562817,12.75011 -0.353584,4.81934 3.942885,8.05942 8.019731,9.53429 4.216471,1.93363 9.211684,2.91754 12.491684,6.37134 2.016917,3.71108 -1.646137,7.28581 -4.506975,9.19955 -4.376047,2.84626 -9.593155,3.83215 -14.491758,5.29865 -2.707277,0.61209 -4.560385,4.02647 -0.50917,3.62823 5.178834,0.82266 10.090868,-1.65695 14.778068,-3.49257 5.262548,-2.36887 10.948329,-7.05957 10.094941,-13.47671 -0.432317,-5.47608 -6.564854,-6.5256 -10.680279,-8.21844 -3.785878,-2.02797 -9.42042,-3.02923 -10.635048,-7.78163 0.04725,-4.2456 4.168468,-6.9401 7.488385,-8.77541 2.034012,-0.59811 6.132131,-1.94088 2.386387,-3.54526 -0.622768,-0.49939 -1.237299,-1.00929 -1.873149,-1.49215 z" />
    <path
       id="path83"
       style="fill:#000000;stroke:#000000;stroke-width:1.00157;stroke-linecap:round"
       d="m 86.307734,120.98248 c 4.182281,6.14631 4.933901,13.99932 4.133651,21.22255 -0.3918,4.10663 -1.20051,8.15587 -1.99644,12.19245 -0.73868,3.17277 2.34877,4.42226 3.45914,1.244 0.61087,-2.04155 0.43774,-4.26949 0.73433,-6.38972 0.59499,-7.9873 0.81282,-16.22303 -1.54549,-23.96271 -1.28637,-2.0716 -1.36376,-6.54593 -4.785191,-4.30657 z" />
    <path
       id="path85"
       style="fill:#000000;stroke:#000000;stroke-width:1.00157;stroke-linecap:round"
       d="m 89.344235,141.4475 c 6.86541,-1.12475 13.843065,-1.039 20.776245,-1.2036 0.97486,-1.02332 1.56104,-2.27218 -0.2984,-2.31424 -1.84758,-0.98605 -3.89861,-1.08085 -5.89497,-0.46099 -2.39877,0.38378 -4.840685,0.41549 -7.257655,0.69514 -3.30135,0.27737 -6.61727,0.46907 -9.930865,0.34241 0.868545,0.98043 1.737075,1.96087 2.605645,2.94128 z" />
    <path
       id="path87"
       style="fill:#000000;stroke:#000000;stroke-width:1.00157;stroke-linecap:round"
       d="m 114.06669,119.16353 c -4.29593,8.13082 -7.92018,17.46085 -6.04855,26.78984 0.84369,3.06576 1.12689,6.9418 4.02023,8.84076 1.24875,0.55497 4.07096,1.98056 4.75062,0.94068 -2.10835,-2.57315 -3.64594,-5.60763 -4.9666,-8.6583 -2.33885,-8.21794 0.23781,-16.95501 4.31855,-24.17689 2.0445,-1.30663 1.09845,-3.65567 -1.16462,-3.42417 l -0.45611,-0.15222 z" />
    <path
       id="path89"
       style="fill:#000000;stroke:#000000;stroke-width:1.00157;stroke-linecap:round"
       d="m 129.37299,155.58804 c 2.00299,-6.55984 3.78556,-13.17802 5.43,-19.83713 1.35873,-4.84534 2.5415,-9.81795 4.43466,-14.46204 -2.26574,-0.10763 -3.48325,0.94817 -1.56634,2.76107 4.24372,8.96339 7.44056,18.40142 11.98606,27.22136 0.10425,2.75095 5.63826,4.95655 5.06804,0.97978 -1.62943,-2.29172 -3.62522,-4.33837 -4.96456,-6.86549 -4.45534,-7.29451 -7.17462,-15.48365 -9.31767,-23.71303 0.40206,-3.20178 -5.58298,-3.7456 -5.05523,-0.19755 -0.88627,7.13189 -2.09525,14.25287 -4.60521,21.01678 -1.34319,3.98046 -2.768,7.96978 -4.73934,11.6793 -0.24668,1.65725 2.3941,0.81496 3.32959,1.41695 z" />
    <path
       id="path92"
       style="fill:#000000;stroke:#000000;stroke-width:1.00157;stroke-linecap:round"
       d="m 134.38725,144.8317 c 5.01182,-1.95663 10.55011,-2.32619 15.3649,-4.82643 1.31818,-1.36644 3.63223,-2.61018 0.29385,-1.98132 -6.69293,0.0473 -13.02012,2.80443 -19.70405,2.94215 1.34843,1.28853 2.69686,2.57708 4.0453,3.8656 z" />
    <path
       id="path94"
       style="fill:#000000;stroke:#000000;stroke-width:1.00157;stroke-linecap:round"
       d="m 167.23398,154.13311 c 2.12864,-7.41969 2.26535,-15.20681 1.95656,-22.86034 -0.37253,-3.89235 2.43366,-7.34325 6.15647,-8.22707 1.21722,-0.29227 4.07565,-0.9328 2.42172,-0.35601 3.55173,1.43036 1.01904,6.21271 -0.92858,8.08794 -1.55573,2.26096 -6.23988,3.01054 -4.72727,6.06623 2.94185,1.19696 5.74943,-0.17325 7.60107,-2.79454 3.10675,-3.30152 5.51916,-8.58347 3.03172,-12.89783 -2.00714,-2.70816 -5.78023,-1.73959 -8.60407,-1.30495 -4.3522,0.82605 -9.02396,3.88218 -9.31337,8.69616 -0.31133,4.95945 0.7982,9.91026 0.32997,14.88016 -0.2008,3.3719 -0.80088,6.74317 -2.03142,9.89865 1.36907,0.27053 2.73813,0.54109 4.1072,0.8116 z" />
    <path
       id="path96"
       style="fill:#000000;stroke:#000000;stroke-width:1.00157;stroke-linecap:round"
       d="m 196.28577,117.87895 c 4.97551,6.36222 4.75851,15.1123 3.22586,22.65174 -0.68998,2.9804 -1.39756,6.11161 -3.24356,8.59067 -1.73234,3.3569 3.0375,5.26186 5.16876,2.89334 3.92818,-3.81668 9.65292,-4.8692 14.87966,-5.66302 3.36534,-1.11966 8.46652,0.67494 10.73786,-2.15539 -1.87011,-4.15485 -7.7346,-2.16113 -11.25877,-1.4566 -6.11648,0.9859 -11.9888,3.12227 -17.50209,5.89914 -3.02194,0.99048 4.71673,0.0696 2.97529,1.73737 1.48753,-9.9038 4.23718,-20.20888 1.10293,-30.09186 -0.55485,-2.51154 -1.55108,-4.9734 -4.37059,-2.94965 -0.57178,0.18142 -1.14356,0.36284 -1.71535,0.54426 z" />
    <path
       id="path98"
       style="fill:#000000;stroke:#000000;stroke-width:1.00157;stroke-linecap:round"
       d="m 207.93641,138.3719 c 2.1078,-1.30144 4.5811,-1.79286 6.77745,-2.90772 0.5344,-0.72821 1.77212,-2.79345 1.50074,-2.85532 -1.89629,0.56603 -3.91144,-0.3147 -5.805,0.35764 -2.16127,0.61638 -4.23671,1.51395 -6.43881,1.99001 -0.21728,0.90224 1.99276,1.56368 2.63361,2.40324 0.444,0.33739 0.88801,0.67477 1.33201,1.01215 z" />
    <path
       id="path101"
       style="fill:#000000;stroke:#000000;stroke-width:1.00157;stroke-linecap:round"
       d="m 199.78895,122.93894 c 4.46287,-1.45389 9.10917,-2.25156 13.5668,-3.72331 0.75031,-0.73585 2.40917,-1.18924 0.94571,-1.26116 0.22122,-0.81998 2.55095,-2.00729 0.45189,-1.51953 -2.704,-0.3436 -5.40709,-0.38099 -8.07974,0.53996 -3.26262,0.92093 -6.57569,1.67263 -9.93145,2.10712 -1.47244,1.04183 1.83595,2.12888 2.33184,3.20114 l 0.35748,0.32789 z" />
    <path
       id="path103"
       style="fill:#000000;stroke:#000000;stroke-width:1.00157;stroke-linecap:round"
       d="m 239.94412,130.65075 c 3.59415,-1.03092 7.39528,-1.03897 10.97832,-2.11848 2.25776,-2.85635 -3.32699,-2.8647 -5.08979,-2.62085 -3.09891,0.53664 -6.18212,1.26472 -9.33503,1.40802 1.14892,1.11035 2.29714,2.22142 3.4465,3.33131 z" />
    <path
       id="path105"
       style="fill:#000000;stroke:#000000;stroke-width:1.00157;stroke-linecap:round"
       d="m 237.74899,139.55106 c 5.07871,0.21306 10.11615,-0.72427 15.19104,-0.69345 3.06237,-2.82664 -2.62985,-4.25391 -4.85812,-3.97595 -2.40763,0.58042 -6.04157,0.57965 -7.73137,1.02797 0.36605,1.61058 -2.10856,2.2859 -2.60155,3.64143 z" />
    <path
       id="path107"
       style="fill:#000000;stroke:#000000;stroke-width:1.00157;stroke-linecap:round"
       d="m 294.29249,107.25905 c -2.98907,3.15231 -6.15581,6.38745 -7.406,10.67493 -2.86698,7.92411 -2.07558,17.26552 2.44755,24.41717 2.00039,3.21055 5.42313,5.41814 9.2209,5.69639 4.11782,0.53754 -1.64479,-1.88761 -2.39283,-2.99788 -3.42028,-2.69563 -6.01804,-6.36865 -7.09665,-10.61313 -2.17824,-7.46372 -0.35689,-15.8398 4.59724,-21.81373 0.76477,-2.01879 5.75778,-3.87072 1.80487,-4.78039 -0.39169,-0.19445 -0.78334,-0.38911 -1.17508,-0.58336 z" />
    <path
       id="path109"
       style="fill:#000000;stroke:#000000;stroke-width:1.00157;stroke-linecap:round"
       d="m 322.64387,118.38334 c 2.61158,-1.62715 5.95068,-3.12853 8.83805,-1.27606 3.54352,2.22029 3.0703,7.07989 1.54926,10.3964 -2.13461,4.91642 -6.39936,8.56392 -11.03056,11.06034 -2.8368,2.67967 1.47898,5.04342 4.03662,4.06005 6.43128,0.54929 12.92754,0.0532 19.35263,-0.4923 1.81431,0.0104 6.17714,-2.72112 2.08076,-2.72954 -5.70082,-1.12571 -11.42661,0.66642 -17.15696,-0.0151 -1.98687,0.0907 -5.95702,-2.04238 -4.59556,1.68856 1.26329,1.69879 2.61959,-2.54694 3.95737,-3.06697 3.84199,-4.40529 7.66114,-9.44365 8.45971,-15.39135 0.34429,-4.51719 -3.1707,-9.23476 -7.92423,-9.16718 -3.86376,-0.26447 -7.61284,1.0513 -11.10167,2.57308 1.17819,0.78669 2.35639,1.57338 3.53458,2.36007 z" />
    <path
       id="path111"
       style="fill:#000000;stroke:#000000;stroke-width:1.00157;stroke-linecap:round"
       d="m 369.22474,138.60228 c -1.40405,3.35421 -3.33216,6.4538 -4.83119,9.76304 0.35703,1.01768 0.65466,3.39438 0.58343,3.52029 1.05085,-1.74922 3.45752,-1.63764 4.30768,-3.57986 1.65312,-2.81727 3.26216,-5.65987 4.8696,-8.50509 -1.64317,-0.39946 -3.28635,-0.79892 -4.92952,-1.19838 z" />
    <path
       id="path113"
       style="fill:#000000;stroke:#000000;stroke-width:1.00157;stroke-linecap:round"
       d="m 414.8758,117.1345 c 2.25792,-0.65867 4.807,-2.33363 7.10755,-0.88804 1.66299,1.10135 1.45256,3.55102 0.11304,4.82233 -1.52316,1.77437 -3.65116,2.80228 -5.56605,4.07268 2.00961,0.99403 3.45905,3.23035 5.90717,3.20285 1.79798,0.2627 4.77515,0.78571 4.5369,3.18811 -0.269,2.1168 -2.49363,2.93327 -4.03213,4.00639 -2.15107,1.38523 -4.67775,2.16671 -6.63794,3.83576 -1.54886,1.58628 0.80968,3.2021 2.36517,3.09379 4.37127,0.34003 8.05213,-2.58808 11.19749,-5.24249 2.33056,-2.24245 3.57314,-6.2967 1.45608,-9.0716 -2.02025,-2.04304 -4.98277,-2.87652 -7.74149,-3.36848 -2.04114,-0.2435 -5.56007,-0.50776 -6.70238,0.30426 1.14614,1.32342 2.12655,4.41485 4.4031,3.24735 3.26684,-2.449 4.88444,-6.48266 5.86641,-10.31474 0.0932,-2.71675 -2.7793,-4.68922 -5.32485,-4.34861 -3.30571,-0.13207 -6.57362,0.49952 -9.81077,1.08378 0.95424,0.79221 1.90847,1.58444 2.8627,2.37666 z" />
    <path
       id="path115"
       style="fill:#000000;stroke:#000000;stroke-width:1.00157;stroke-linecap:round"
       d="m 452.02413,138.29391 c -1.06038,4.29363 -3.34647,8.13828 -4.753,12.31017 1.4402,0.71103 0.42771,4.64553 2.3115,2.21288 3.10578,-0.90936 4.08213,-4.19063 5.21335,-6.825 0.73405,-2.18048 2.58346,-5.15878 2.33379,-6.96519 -1.70188,-0.24428 -3.40377,-0.48851 -5.10564,-0.73286 z" />
    <path
       id="path118"
       style="fill:#000000;stroke:#000000;stroke-width:1.00157;stroke-linecap:round"
       d="m 509.23326,109.11528 c -3.37422,2.7759 -7.06367,5.28854 -9.54422,8.97035 -3.94463,4.85948 -5.61617,12.05287 -2.61555,17.78815 2.94894,5.47014 10.78201,6.85671 15.96896,3.91798 3.91493,-2.3579 6.16625,-7.7509 4.23753,-12.0595 -2.23328,-3.33367 -6.80174,-2.74023 -10.22662,-2.19583 -2.6532,0.99143 -6.8127,2.01804 -7.07891,5.37576 -0.28668,2.29611 1.02008,2.85607 2.80479,1.67651 2.56411,0.16239 4.35864,-1.68095 6.76741,-2.04204 2.80701,-0.55749 -0.58,-0.5194 -0.48434,-0.60989 3.23796,-1.29357 3.8265,3.28135 1.64775,4.75447 -0.79606,1.46612 -3.98435,1.82614 -4.29027,2.0596 3.64589,0.85996 -3.34124,0.17601 -3.89502,-1.62655 -3.31588,-3.79903 -2.03124,-9.63741 0.72567,-13.38195 2.67382,-4.03537 6.48406,-7.17409 10.58631,-9.67561 -1.4038,-1.17352 -3.08923,-1.93638 -4.60349,-2.95145 z" />
    <path
       id="path120"
       style="fill:#000000;stroke:#000000;stroke-width:1.00157;stroke-linecap:round"
       d="m 545.49904,101.40049 c 8.7193,2.58806 13.42662,13.26593 10.6562,21.69959 -2.71448,9.61855 -10.8319,16.02318 -16.40162,23.89686 -0.11756,1.934 -2.14346,4.44607 0.78051,2.48841 5.98677,-2.76543 9.81317,-8.39003 14.04626,-13.19822 4.53886,-5.43004 8.12449,-12.21974 7.37975,-19.50954 -0.58366,-7.73409 -5.04908,-15.1709 -11.93391,-18.881997 -1.50906,1.168303 -3.01813,2.336597 -4.52719,3.504897 z" />
    <path
       id="path592"
       style="opacity:1;fill:#ff0000;stroke:#ff0000;stroke-width:1.00157;stroke-linecap:round"
       d="m 373.81364,610.53136 c 12.44408,0.0679 24.83359,1.53088 37.27053,1.74807 3.19403,1.28703 5.36178,-1.09803 7.33579,-3.18836 1.36456,-1.26019 4.75002,-4.18695 0.81166,-3.75318 -13.06362,0.0358 -26.24155,0.69387 -39.18873,-1.51181 -2.07642,2.23509 -4.1528,4.47022 -6.22925,6.70528 z" />
    <path
       id="path594"
       style="opacity:1;fill:#ff0000;stroke:#ff0000;stroke-width:1.00157;stroke-linecap:round"
       d="m 416.65652,655.98873 c 5.87674,-0.91427 11.79258,0.60087 17.67471,0.92718 5.64897,0.60397 11.33852,1.13011 17.0233,0.78086 1.19602,-4.52048 -7.43557,-6.65241 -6.74371,-8.42454 5.48543,0.78018 -5.81056,0.41576 -7.48431,0.1571 -6.87403,-0.68311 -13.83802,-0.91248 -20.6928,-0.58903 -8.42251,-0.36118 -2.73025,4.28457 0.22281,7.14843 z" />
    <path
       id="path596"
       style="opacity:1;fill:#ff0000;stroke:#ff0000;stroke-width:1.00157;stroke-linecap:round"
       d="m 395.34114,624.47648 c 6.43878,3.26596 10.90796,9.17472 16.69834,13.35123 1.91528,1.51953 3.82489,3.06981 5.45996,4.89635 2.73499,-0.31482 4.91442,-2.25986 7.43159,-3.21992 3.65898,-1.28383 -1.23942,-2.96923 -2.34196,-4.37953 -4.2931,-3.49948 -8.88979,-6.59115 -13.22915,-10.03306 -2.30124,-1.4457 -4.23014,-3.56313 -6.65181,-4.68216 -2.39158,0.43038 -4.19826,2.48505 -6.42041,3.49727 -0.31552,0.18994 -0.63104,0.37988 -0.94656,0.56982 z" />
    <path
       id="path598"
       style="opacity:1;fill:#ff0000;stroke:#ff0000;stroke-width:1.00157;stroke-linecap:round"
       d="m 293.39955,607.51647 c 11.37577,-0.5171 22.67658,1.35405 34.03627,1.60178 4.8359,0.17598 9.71331,0.81355 14.53755,0.34113 4.20986,-2.27432 -2.34238,-6.14758 -5.13304,-6.27873 1.56704,-0.0503 4.60293,0.0989 1.37796,0.0938 -11.94647,0.0313 -23.87401,-0.93285 -35.79655,-1.45244 -3.42399,-1.15326 -5.87019,1.44593 -7.54966,4.02035 -0.49084,0.55804 -0.98169,1.11608 -1.47253,1.67412 z" />
    <path
       id="path600"
       style="opacity:1;fill:#ff0000;stroke:#ff0000;stroke-width:1.00157;stroke-linecap:round"
       d="m 303.03472,256.57186 c 6.34584,-0.97235 12.77633,-1.19457 19.18683,-1.25757 -2.45306,0.10289 -3.45031,-0.22933 -0.24044,-0.0908 8.96975,-0.0494 17.955,0.49122 26.89965,0.68379 3.79491,-0.95462 10.63215,1.99184 12.44873,-1.5114 -1.3196,-3.76691 -5.97714,-6.26578 -9.87914,-5.31069 -3.62983,0.5846 3.87982,0.20175 -0.13872,0.26136 -13.93753,0.0656 -27.89757,-0.87468 -41.81933,-0.0387 -3.66902,0.68649 -9.78466,0.56397 -11.97525,1.41391 1.8392,1.95001 3.67921,3.8995 5.51767,5.85005 z" />
    <path
       id="path604"
       style="opacity:1;fill:#ff0000;stroke:#ff0000;stroke-width:1.00157;stroke-linecap:round"
       d="m 324.27905,268.91972 c -5.04838,63.65667 -2.31671,127.44749 -0.36912,191.15198 0.62032,44.58751 -0.32418,89.56731 -3.25258,133.83151 15.16831,-2.27143 3.66669,-34.41537 7.84087,-48.59226 1.69239,-67.98983 -1.90877,-135.94584 -2.838,-203.89516 0.48498,-24.16065 2.39785,-48.25855 3.78877,-72.37613 -1.72331,-0.04 -3.44663,-0.08 -5.16994,-0.11994 z" />
    <path
       id="path606"
       style="opacity:1;fill:#ff0000;stroke:#ff0000;stroke-width:1.00157;stroke-linecap:round"
       d="m 444.26338,185.90377 c 0.68708,6.50087 0.03,13.04286 0.097,19.56117 -0.02,3.73673 -0.13632,7.47589 -0.5106,11.19032 -0.18455,2.54258 2.7664,2.90113 3.68926,4.78127 0.71633,-2.21971 4.50602,-2.76073 3.37267,-5.93613 -0.54986,-6.06588 -0.40645,-12.17238 -0.55574,-18.26085 0.0163,-3.50196 -0.27387,-7.0117 0.13823,-10.49221 -0.66937,-1.80111 -4.49596,-0.39844 -6.23083,-0.84357 z" />
    <path
       id="path608"
       style="opacity:1;fill:#ff0000;stroke:#ff0000;stroke-width:1.00157;stroke-linecap:round"
       d="m 1100.9721,173.15667 c 1.9151,11.17338 -0.772,22.3964 -1.2259,33.57526 -0.4722,5.46991 -1.4914,10.87978 -2.1617,16.31813 0.6665,2.55519 1.9837,4.44879 3.5669,1.07538 2.6874,-2.65578 1.3647,-7.04791 2.2151,-10.49658 1.139,-11.12564 2.826,-22.23724 2.6128,-33.45072 -0.1003,-2.92705 1.7489,-8.66272 -3.1286,-7.06453 -0.6262,0.0143 -1.2524,0.0287 -1.8786,0.0431 z" />
    <path
       id="path610"
       style="opacity:1;fill:#ff0000;stroke:#ff0000;stroke-width:1.00157;stroke-linecap:round"
       d="m 470.65398,206.89275 c 119.16449,-9.98344 238.80479,-8.38285 358.22202,-8.72679 79.9984,-3.24114 160.00711,-1.66454 239.7809,2.51466 39.5421,-5.90796 -37.0688,-7.0368 -50.6362,-6.89422 -108.56821,-5.37877 -217.07635,5.19216 -325.65555,1.85957 -74.4919,0.20244 -149.00234,6.52969 -223.32745,7.50438 l -0.45294,1.36659 z" />
    <path
       id="path612"
       style="opacity:1;fill:#ff0000;stroke:#ff0000;stroke-width:1.00157;stroke-linecap:round"
       d="m 407.71039,162.22851 c -15.25799,25.11604 -41.67176,40.96699 -66.1829,55.86213 -33.99378,17.5798 -74.93077,20.78115 -105.56848,44.69569 -24.66635,26.23695 -22.60445,65.71794 -20.09748,99.08269 2.24491,26.90532 16.39818,58.09135 46.14534,62.25354 10.72257,5.16087 35.30973,-6.82976 10.71061,-6.30468 -19.0014,3.14607 -35.45726,-9.81716 -42.65139,-26.60999 -14.25927,-32.53352 -12.74333,-71.14141 -1.01978,-104.14626 12.57846,-34.0078 51.44755,-40.13435 81.53449,-50.55705 34.51632,-10.52225 64.09363,-32.92748 90.5233,-56.7996 2.02963,-3.53427 19.74423,-17.75646 6.60629,-17.47647 z" />
    <path
       id="path614"
       style="opacity:1;fill:#ff0000;stroke:#ff0000;stroke-width:1.00157;stroke-linecap:round"
       d="m 504.05479,169.33154 c 34.70561,20.95237 77.82414,9.6447 112.51047,-5.34058 31.85053,-13.80394 61.75469,-37.73468 97.85818,-37.55619 21.69716,1.03311 34.87833,22.05726 29.28857,41.8464 13.64153,5.94386 8.73772,-29.24244 -1.96624,-35.44291 -21.28501,-18.33875 -51.84449,-10.13065 -74.10961,1.80794 -41.46317,20.66122 -84.20248,49.88457 -132.80659,43.65907 -10.46537,-0.76935 -21.22265,-10.83608 -30.77478,-8.97373 z" />
    <path
       id="path618"
       style="opacity:1;fill:#ff0000;stroke:#ff0000;stroke-width:1.00157;stroke-linecap:round"
       d="M 312.80964,172.99131 C 264.8088,221.92 185.44486,225.5583 144.88466,284.04845 c -49.036115,69.7452 -39.95772,161.92717 -16.36831,239.34923 14.48253,53.12741 30.69945,118.42873 88.65843,139.63462 53.48278,13.95944 111.55899,7.76722 162.33713,-13.45243 -38.37927,-6.02374 -73.99748,20.87801 -113.29357,14.29131 -53.70823,3.33087 -99.12429,-36.07543 -114.34856,-85.78621 -27.7977,-83.06549 -58.853745,-178.22702 -20.23523,-263.12565 28.60922,-63.6195 97.82997,-88.21616 156.46324,-115.47516 6.38526,-6.07904 35.91165,-15.2247 24.71185,-26.49285 z" />
  </g>
</svg>
