<?xml version="1.0" encoding="UTF-8" standalone="no"?>
<svg
   xmlns:dc="http://purl.org/dc/elements/1.1/"
   xmlns:cc="http://creativecommons.org/ns#"
   xmlns:rdf="http://www.w3.org/1999/02/22-rdf-syntax-ns#"
   xmlns:svg="http://www.w3.org/2000/svg"
   xmlns="http://www.w3.org/2000/svg"
   xmlns:sodipodi="http://sodipodi.sourceforge.net/DTD/sodipodi-0.dtd"
   xmlns:inkscape="http://www.inkscape.org/namespaces/inkscape"
   width="1200"
   height="600"
   id="svg2"
   sodipodi:version="0.32"
   inkscape:version="1.0.1 (3bc2e813f5, 2020-09-07)"
   sodipodi:docname="np-argsort.svg"
   version="1.0">
  <defs
     id="defs133" />
  <sodipodi:namedview
     id="base"
     pagecolor="#ffffff"
     bordercolor="#666666"
     borderopacity="1.0"
     inkscape:pageopacity="0.0"
     inkscape:pageshadow="2"
     inkscape:zoom="1.41"
     inkscape:cx="599.05811"
     inkscape:cy="297.06717"
     inkscape:document-units="mm"
     inkscape:current-layer="layer1"
     inkscape:window-width="1920"
     inkscape:window-height="1061"
     inkscape:window-x="0"
     inkscape:window-y="19"
     width="12.8cm"
     height="9.6cm"
     units="cm"
     showgrid="false"
     grid_units="mm"
     inkscape:object-paths="true"
     inkscape:grid-points="true"
     inkscape:grid-bbox="true"
     inkscape:guide-points="true"
     showguides="true"
     inkscape:guide-bbox="true"
     inkscape:window-maximized="0"
     inkscape:snap-text-baseline="true"
     inkscape:snap-object-midpoints="true"
     inkscape:snap-grids="true"
     inkscape:snap-center="true"
     inkscape:snap-to-guides="true"
     inkscape:snap-midpoints="true"
     inkscape:snap-smooth-nodes="true"
     inkscape:snap-bbox="true"
     inkscape:document-rotation="0"
     inkscape:snap-global="false">
    <inkscape:grid
       id="GridFromPre046Settings"
       type="xygrid"
       originx="0px"
       originy="0px"
       spacingx="2mm"
       spacingy="2mm"
       color="#3f3fff"
       empcolor="#3f3fff"
       opacity="0.15"
       empopacity="0.38"
       empspacing="5" />
  </sodipodi:namedview>
  <metadata
     id="metadata7">
    <rdf:RDF>
      <cc:Work
         rdf:about="">
        <dc:format>image/svg+xml</dc:format>
        <dc:type
           rdf:resource="http://purl.org/dc/dcmitype/StillImage" />
        <dc:title />
      </cc:Work>
    </rdf:RDF>
  </metadata>
  <g
     inkscape:label="Layer 1"
     inkscape:groupmode="layer"
     id="layer1"
     transform="translate(0,-148.15747)">
    <path
       id="path174"
       style="fill:#ffaaaa;stroke:#ffaaaa;stroke-width:1.44364px;stroke-linecap:butt;stroke-linejoin:miter;stroke-opacity:1"
       d="m 61.886656,642.57933 c -2.723,22.7142 -6.03197,45.42649 -6.96716,68.29473 4.2394,10.06284 17.136739,1.99605 25.091779,2.41211 11.32435,-2.44232 22.787585,-4.56124 34.429825,-3.69201 6.80244,-0.14379 13.59101,1.15305 20.22728,1.15621 9.36939,-4.01769 5.78381,-16.60536 7.84072,-24.64013 1.02845,-14.4705 0.32987,-29.00568 -1.0592,-43.42745 2.9739,-9.65687 -9.16309,-13.26174 -15.80759,-8.4527 -15.91484,3.97531 -32.448865,4.2207 -48.557875,7.10257 -5.05159,0.57086 -10.120639,0.98797 -15.197779,1.24667 z" />
    <path
       id="path183"
       style="fill:#ffaaaa;stroke:#ffaaaa;stroke-width:1.44364px;stroke-linecap:butt;stroke-linejoin:miter;stroke-opacity:1"
       d="m 150.917,634.76881 c -2.46314,21.93315 0.73813,44.35268 -4.67464,65.96342 -3.30305,10.95873 11.78168,8.31124 18.15146,9.75644 18.48495,1.65048 37.02173,5.45389 55.58912,4.43954 8.74283,-3.58511 7.10372,-14.49096 8.39564,-22.11394 2.58729,-13.427 5.88485,-26.93881 4.35127,-40.73802 -0.53717,-8.9257 0.60013,-25.35614 -13.25738,-21.50127 -11.84277,0.75649 -23.71859,1.49222 -35.49249,3.25484 -8.38582,1.46944 -16.83415,1.58568 -24.96791,-1.19783 -2.84672,-0.44718 -5.91012,0.17094 -8.09507,2.13682 z" />
    <path
       id="path169"
       style="fill:#ffaaaa;stroke:#ffaaaa;stroke-width:1.44364px;stroke-linecap:butt;stroke-linejoin:miter;stroke-opacity:1"
       d="m 238.91137,634.7664 c 1.67394,20.51757 2.22013,41.14544 1.16075,61.71067 -2.73409,4.1224 -5.22613,13.26241 3.13519,10.97514 14.10184,0.30639 28.17139,1.83144 42.1556,3.68604 7.84874,1.44091 15.73243,-0.17787 22.7283,-3.53366 6.01795,1.75171 11.99752,-1.28041 10.36146,-8.40587 -0.43589,-17.85198 -4.81906,-35.74677 -1.57599,-53.59237 0.56023,-5.0507 2.35831,-13.69435 -4.67161,-14.78299 -6.30552,-0.21899 -12.52187,-1.05855 -18.81227,-1.6154 -18.28405,-1.34137 -36.96352,-0.14306 -54.48143,5.55844 z" />
    <path
       id="path238"
       style="fill:#ffaaaa;stroke:#ffaaaa;stroke-width:1.41459px;stroke-linecap:butt;stroke-linejoin:miter;stroke-opacity:1"
       d="m 288.89409,258.76765 c 1.1709,22.91706 3.0976,47.48392 -5.8386,68.60354 -4.1641,6.75788 1.9418,15.52635 7.8654,9.88828 17.3302,-8.32641 36.1549,-3.36441 54.1744,-4.57896 6.1028,-2.2048 12.3854,0.88574 18.1007,0.74577 3.5596,-6.26561 3.1024,-14.746 4.064,-22.08124 1.0875,-14.87103 0.6958,-29.92694 -1.8159,-44.55389 0.3214,-6.24721 -1.2718,-14.00221 -7.6403,-13.27566 -9.1514,-0.0171 -18.0469,3.90362 -27.2539,3.35914 -8.0994,-0.0908 -16.1605,0.95046 -24.2145,1.65722 -6.0659,1.93034 -13.3922,-9.82573 -17.4803,-1.46241 l -0.039,0.80252 z" />
    <path
       id="path268"
       style="fill:#ffaaaa;stroke:#ffaaaa;stroke-width:1.41459px;stroke-linecap:butt;stroke-linejoin:miter;stroke-opacity:1"
       d="m 115.40078,253.14788 c 3.22962,19.50807 -2.01766,39.20146 0.15579,58.78916 2.47767,10.39052 -8.04773,22.32931 0.22378,30.51008 7.83546,5.87312 16.55258,-2.36563 24.67961,-3.05944 13.62823,-0.59492 27.8614,4.4505 40.96503,-2.45857 10.4673,-3.06046 15.3701,-16.30683 12.8687,-28.61525 -2.0709,-17.73496 0.5632,-35.8233 -2.3167,-53.43373 -5.2024,-8.86389 -15.34597,-5.16706 -22.66934,-3.74271 -10.60756,3.29486 -21.59335,0.93226 -32.24927,3.7492 -7.45798,2.74091 -14.38068,-2.48252 -21.6576,-1.73874 z" />
    <path
       id="path277"
       style="fill:#ffaaaa;stroke:#ffaaaa;stroke-width:1.41459px;stroke-linecap:butt;stroke-linejoin:miter;stroke-opacity:1"
       d="m 29.258616,255.3302 c 24.3309,5.26104 48.75639,-1.89297 73.072394,-3.09792 10.23543,-0.8133 9.08404,13.16778 7.15345,21.29663 -2.17707,22.39101 -2.88609,44.98029 -2.77572,67.51661 -3.18561,12.68433 -13.654694,1.12288 -20.114604,0.5069 -10.70311,-2.28105 -21.54606,-5.72431 -32.44387,-3.11467 -7.37721,1.7829 -14.86441,0.92445 -22.28013,1.28082 -6.16599,3.57642 -15.36038,2.34345 -10.15194,-8.39705 5.38694,-11.45314 11.79628,-23.80045 9.63322,-37.72241 -1.0302,-12.71138 -3.43652,-25.44395 -2.0928,-38.26891 z" />
    <path
       id="path290"
       style="fill:#ffaaaa;stroke:#ffaaaa;stroke-width:1.44364px;stroke-linecap:butt;stroke-linejoin:miter;stroke-opacity:1"
       d="m 328.71805,636.73979 c -2.72299,22.7142 -6.03196,45.42649 -6.96715,68.29473 4.23939,10.06284 17.13674,1.99605 25.09177,2.41211 11.32436,-2.44232 22.78759,-4.56124 34.42983,-3.69201 6.80243,-0.14379 13.59101,1.15305 20.22728,1.15621 9.36938,-4.0177 5.7838,-16.60536 7.8407,-24.64013 1.02845,-14.4705 0.32988,-29.00568 -1.05919,-43.42745 2.9739,-9.65687 -9.16308,-13.26175 -15.80758,-8.4527 -15.91484,3.97531 -32.44886,4.2207 -48.55787,7.10256 -5.05159,0.57086 -10.12065,0.98797 -15.19779,1.24668 z" />
    <path
       id="path292"
       style="fill:#ffaaaa;stroke:#ffaaaa;stroke-width:1.44559px;stroke-linecap:butt;stroke-linejoin:miter;stroke-opacity:1"
       d="m 789.62217,634.88339 c -2.46647,21.96275 0.73913,44.41253 -4.68096,66.05243 -3.30751,10.97352 11.79759,8.32246 18.17596,9.76961 18.5099,1.65271 37.0717,5.46124 55.66414,4.44553 8.75463,-3.58995 7.11331,-14.51052 8.40697,-22.14378 2.59079,-13.44512 5.8928,-26.97516 4.35715,-40.793 -0.5379,-8.93774 0.60093,-25.39035 -13.27528,-21.53028 -11.85874,0.75751 -23.75059,1.49423 -35.54038,3.25923 -8.39714,1.47143 -16.85687,1.58783 -25.00161,-1.19944 -2.85055,-0.44779 -5.91809,0.17117 -8.10599,2.1397 z" />
    <path
       id="path296"
       style="fill:#ffaaaa;stroke:#ffaaaa;stroke-width:1.41459px;stroke-linecap:butt;stroke-linejoin:miter;stroke-opacity:1"
       d="m 205.05199,264.90885 c -1.6585,19.83843 -1.5789,39.93844 -3.6556,59.67253 -3.7491,13.96253 9.7226,4.31047 15.4983,6.19801 14.8639,-0.22095 29.8041,0.43462 44.5967,-1.31746 5.5047,1.28237 14.8262,10.6796 16.1651,-1.46423 1.8171,-17.51818 -0.6632,-35.19807 -0.8158,-52.77899 -0.6756,-7.60889 0.8191,-18.27693 -5.793,-22.45029 -8.6922,-4.16323 -17.6432,2.06986 -26.5405,1.82749 -8.4597,0.29764 -16.967,1.00034 -25.0877,4.06604 -5.0075,0.78685 -11.172,0.42487 -14.3675,6.2469 z" />
    <path
       id="path298"
       style="fill:#ffaaaa;stroke:#ffaaaa;stroke-width:1.44559px;stroke-linecap:butt;stroke-linejoin:miter;stroke-opacity:1"
       d="m 1055.6265,639.68394 c 1.6763,20.54526 2.2232,41.20097 1.1624,61.79395 -2.7378,4.12796 -5.2332,13.2803 3.1394,10.98996 14.1209,0.30679 28.2093,1.8339 42.2125,3.691 7.8593,1.44286 15.7537,-0.17811 22.759,-3.53842 6.0261,1.75408 12.0137,-1.28214 10.3755,-8.41722 -0.4365,-17.87606 -4.8256,-35.79501 -1.5782,-53.66468 0.561,-5.05753 2.3615,-13.71283 -4.6779,-14.80295 -6.3141,-0.21928 -12.5388,-1.05998 -18.8376,-1.61757 -18.3089,-1.34319 -37.0135,-0.14326 -54.5551,5.56593 z" />
    <path
       id="path302"
       style="fill:#ffaaaa;stroke:#ffaaaa;stroke-width:1.44559px;stroke-linecap:butt;stroke-linejoin:miter;stroke-opacity:1"
       d="m 876.60216,635.19266 c 23.99161,-5.67846 49.03118,-6.13015 73.37293,-2.59728 5.72796,-0.715 17.0906,-2.87245 16.04497,6.42874 -3.2997,11.45248 -3.89989,23.4633 -5.96859,35.17757 -1.4989,9.62664 -0.65773,19.35674 -0.69427,29.0268 -0.75075,6.26053 -3.57477,15.23286 -10.89159,15.58606 -9.35331,-0.54201 -19.1122,1.48417 -28.05011,-2.3976 -8.66348,-3.4053 -17.99255,-3.25612 -26.96392,-1.35732 -8.16184,1.79347 -19.14042,-2.48386 -18.60953,-12.20124 0.33119,-13.51842 3.86415,-27.02634 1.52553,-40.56955 -0.64388,-9.04131 2.55854,-18.14213 0.23458,-27.09618 z" />
    <path
       id="path310"
       style="fill:#ffaaaa;stroke:#ffaaaa;stroke-width:1.44559px;stroke-linecap:butt;stroke-linejoin:miter;stroke-opacity:1"
       d="m 972.04437,639.5907 c -0.30878,15.90767 -5.20658,31.26488 -6.59782,47.02063 1.80222,9.02103 0.25197,18.77063 -1.7188,26.67184 8.02779,-0.33021 15.69823,2.03898 23.70224,3.17335 15.28871,1.94626 30.73861,1.13367 46.08561,1.93226 10.6504,1.03478 18.9702,-8.59345 17.3978,-18.93489 -1.7707,-13.17997 -2.8218,-26.45726 -4.0404,-39.68367 -4.4016,-7.8994 2.1132,-18.10382 -3.4423,-24.61369 -7.414,-3.34626 -15.0868,2.05443 -22.7763,1.85329 -10.8023,1.03811 -21.8709,3.12074 -32.6576,1.38791 -5.18417,-1.27138 -11.57345,-3.01047 -15.95243,1.19297 z" />
    <path
       id="path344"
       style="fill:#000000;stroke:#000000;stroke-width:1.44591;stroke-linecap:round"
       d="m 186.58899,668.59246 c 2.97273,-8.05509 5.48693,-16.29233 9.02806,-24.12757 -4.85964,-1.30105 -8.95073,1.66857 -7.01274,6.81177 0.3792,14.34245 -2.1945,28.56393 -3.11841,42.80389 3.24672,5.01043 8.48737,-0.85786 6.57235,-5.23941 0.20524,-14.1435 0.13714,-28.42563 3.05659,-42.33536 -1.03259,-4.87588 -9.12784,-4.34963 -7.61099,1.39035 -1.11764,4.83819 -2.6014,9.7108 -4.90633,14.10606 -2.51795,2.6592 -2.83493,6.22181 1.73693,6.00309 0.75147,0.19586 1.50305,0.3917 2.25454,0.58718 z" />
    <path
       id="path350"
       style="fill:#000000;stroke:#000000;stroke-width:1.44591;stroke-linecap:round"
       d="m 361.55252,656.18382 c 0.69809,-2.35156 4.42019,-5.03019 5.33843,-5.0704 -3.11708,0.48495 1.72746,2.90293 0.70614,5.03228 0.0234,8.95886 -5.42756,16.78632 -11.06532,23.29964 -2.48065,2.42231 -4.51406,5.57768 -7.74995,7.01214 -3.00353,1.36116 -1.09577,3.57077 1.11703,4.29419 2.40253,2.18329 5.51224,2.72067 8.5705,1.84176 7.65918,-0.49916 15.31448,0.85092 22.97735,0.32799 3.29436,-1.88469 -0.67048,-5.51224 -3.1864,-5.60205 -1.07726,-0.0934 -2.96755,-1.05387 -2.35503,-0.45204 -8.91076,0.40989 -17.84058,0.0214 -26.7588,0.17803 0.43608,2.0396 3.36387,3.9464 5.35854,4.2913 2.3648,-2.32397 3.55311,-5.79115 5.67656,-8.45218 4.73628,-7.30121 9.90104,-14.58831 12.43044,-23.00746 0.92944,-4.09052 0.90402,-9.18396 -2.35552,-12.2443 -2.86633,-1.4055 -6.61909,-0.84674 -9.2739,0.77763 -1.47758,1.86087 -5.84627,3.77898 -4.69305,6.29604 1.61186,0.9418 3.66245,0.42795 5.26298,1.47743 z" />
    <path
       id="path356"
       style="fill:#000000;stroke:#000000;stroke-width:1.44591;stroke-linecap:round"
       d="m 277.16536,651.35262 c 2.31357,-1.57898 5.66693,-1.66045 6.99312,1.21132 1.57534,4.20532 -1.23729,8.68986 -4.41005,11.32968 -3.73105,3.15014 -8.52882,4.4362 -13.00651,6.12502 1.08769,3.3381 4.96128,4.17034 7.73404,5.56851 1.13085,0.62774 2.25008,-0.79366 0.63811,-0.23321 2.3601,0.54264 5.64267,1.30716 6.04224,4.17026 -0.20285,2.65594 -3.02345,4.00006 -4.99884,5.2868 -4.00508,2.1663 -8.74197,2.83573 -12.43284,5.59169 -1.47703,2.67577 3.31676,2.92239 5.06564,2.90349 6.261,0.0116 12.69844,-2.0748 17.44643,-6.22203 3.77067,-3.29822 4.36708,-10.06209 0.13339,-13.24451 -3.92327,-3.71087 -9.58866,-4.17061 -14.69691,-4.37911 -2.10405,-0.70841 -3.86083,0.33018 -1.58482,1.96989 1.04403,2.09206 3.23052,4.51767 5.80718,3.39765 2.5839,-1.63708 4.96341,-3.63034 7.33073,-5.57617 4.35153,-3.87035 8.52877,-9.60161 7.1412,-15.74361 -0.73146,-3.97266 -4.15368,-7.82327 -8.48523,-7.38246 -2.73715,0.4967 -6.16589,0.11044 -8.29228,2.12724 0.47417,1.36239 2.5896,1.96341 3.57539,3.09955 z" />
    <path
       id="path372"
       style="fill:#000000;stroke:#000000;stroke-width:1.44591;stroke-linecap:round"
       d="m 91.620195,662.60615 c 6.86642,-2.53919 14.015535,-4.77622 21.405795,-4.80395 -3.11703,1.61639 -7.77915,-2.89096 -8.57907,2.59933 -6.593475,9.8492 -13.695275,19.43238 -20.030525,29.40414 -0.80437,8.40788 8.68036,3.07895 9.75364,-1.89456 5.79803,-10.7416 13.203345,-20.46344 20.958935,-29.84742 3.01043,-6.92995 -6.96364,-7.86732 -10.71003,-4.06449 -4.705525,3.48767 -12.613935,2.3463 -16.546845,4.48183 0.95907,1.62548 2.74896,2.53408 3.7481,4.12512 z" />
    <path
       id="path374"
       style="fill:#000000;stroke:#000000;stroke-width:1.44591;stroke-linecap:round"
       d="m 91.177375,677.77935 c 5.97116,0.10798 11.844065,-1.19619 17.758045,-1.78183 3.61324,-0.23542 5.96536,-5.20287 1.07314,-5.38742 -4.53666,-1.44198 -9.32186,-1.21782 -13.987815,-0.75491 -3.48439,0.24316 -7.00495,0.009 -10.47252,0.28774 -1.83761,1.8009 3.02177,3.62743 3.63448,5.48977 0.6626,0.71767 1.32626,1.43437 1.99467,2.14665 z" />
    <path
       id="path376"
       style="fill:#000000;stroke:#000000;stroke-width:1.44786;stroke-linecap:round"
       d="m 921.99865,661.21881 c 0.004,-1.79452 4.445,-1.24563 1.12006,-1.10324 6.13969,5.19186 2.73803,14.69666 -2.00247,19.65062 -4.30546,6.24019 -11.91306,7.3023 -17.64235,10.9702 -4.57367,7.86784 8.64429,5.64376 12.61374,3.60007 6.82456,-1.97696 14.05407,-2.4039 20.73274,-4.8605 7.20766,-4.47055 -5.45047,-8.25398 -9.14308,-4.76863 -7.33168,2.14021 -14.70671,4.30826 -22.31488,5.20631 6.22651,-2.28927 2.31836,8.38174 7.96326,3.79078 6.8974,-4.41123 14.14302,-9.37181 17.20599,-17.35532 2.42976,-5.9159 3.14545,-13.59929 -0.90898,-18.92854 -2.63139,-4.45811 -15.14031,-1.73581 -12.10966,2.41286 1.4777,0.50644 3.1297,0.54944 4.48563,1.38539 z" />
    <path
       id="path378"
       style="fill:#000000;stroke:#000000;stroke-width:1.44786;stroke-linecap:round"
       d="m 1005.643,657.38102 c 2.3078,-2.87444 7.233,-1.49137 8.3339,1.81972 0.7487,2.12039 -0.425,4.25701 -1.2284,6.18293 -2.1618,4.15388 -6.1296,6.99113 -10.199,9.09498 -2.5341,-0.31534 -3.63012,2.77281 -2.1832,4.55888 0.9766,2.31907 3.5769,1.75321 5.305,2.17002 2.4799,1.34177 3.1083,4.83152 1.3788,7.02604 -1.2001,2.12558 -3.6904,2.42174 -5.6443,3.37958 -4.43955,2.33846 -10.06766,2.79021 -13.44572,6.86012 -1.71056,1.73588 2.55581,1.36012 3.68524,1.64398 4.68993,0.2525 9.25118,-1.09674 13.54158,-2.86006 3.897,-1.44216 8.3182,-3.35201 9.9052,-7.52981 1.4733,-4.32192 -0.92,-8.89915 -4.1233,-11.75949 -1.3583,-0.99128 -2.6759,-2.75915 -4.5072,-2.51356 -2.1801,0.76605 -0.078,4.28004 1.7717,3.42499 1.4508,-1.45468 2.6665,-3.20604 4.2594,-4.61808 4.1032,-4.28214 7.85,-9.74148 7.5006,-15.94164 -0.1243,-3.50436 -3.4305,-5.88804 -6.6529,-6.37756 -2.2184,-0.47282 -4.5112,-0.14383 -6.6605,0.42378 -1.6996,0.16523 -4.8292,0.9275 -4.3456,3.12954 0.8081,1.11994 2.358,0.9601 3.3087,1.88564 z" />
    <path
       id="path396"
       style="fill:#000000;stroke:#000000;stroke-width:1.44786;stroke-linecap:round"
       d="m 821.33797,673.06157 c 3.52576,-8.57655 7.26158,-17.18878 9.88455,-26.04311 -2.70234,-1.8137 -7.97947,0.0207 -6.07837,4.01483 0.28387,10.7301 -1.31125,21.39362 -1.7014,32.10036 -0.5241,5.87836 -2.19495,11.68953 -2.02195,17.60417 1.3697,5.37851 6.50671,0.92358 5.75754,-2.95551 -0.14877,-8.54229 -0.33281,-17.12732 0.78098,-25.63376 0.93965,-8.44656 1.86481,-16.90913 3.59236,-25.23939 -3.05395,-1.03406 -8.2255,-3.05343 -7.12522,2.41576 -0.95487,7.7468 -3.59177,15.44183 -8.35928,21.64411 0.76404,1.47526 3.82183,1.17534 5.27079,2.09254 z" />
    <path
       id="path424"
       style="fill:#000000;stroke:#000000;stroke-width:1.44786;stroke-linecap:round"
       d="m 1086.0641,659.32567 c 8.5329,0.3205 17.0478,-1.00516 24.9611,-4.18527 -3.8878,3.01652 -7.8442,-5.63271 -8.4271,1.32795 -5.2166,12.84335 -10.5076,25.65734 -15.5549,38.56877 -0.4827,8.90541 11.0308,3.23342 10.083,-3.07015 4.6261,-13.57948 9.847,-27.09306 17.5089,-39.28621 0.8804,-7.04692 -9.0606,-5.86231 -12.2843,-2.13548 -6.3526,2.24169 -10.895,0.59376 -14.3454,6.7454 l -0.9258,1.06144 -1.016,0.97355 z" />
    <path
       id="path426"
       style="fill:#000000;stroke:#000000;stroke-width:1.44786;stroke-linecap:round"
       d="m 1091.4107,679.53546 c 5.9271,-1.11986 12.5191,-1.43175 17.2961,-5.57607 2.8453,-0.28598 5.7972,-4.17022 1.4132,-4.93965 -3.5265,-0.82155 -7.0243,0.92645 -10.5956,0.63682 -5.2239,0.39204 -10.3809,1.59938 -15.6394,1.51776 2.5084,2.78718 5.0178,5.57369 7.5257,8.36114 z" />
    <path
       id="path315"
       style="fill:#000000;stroke:#000000;stroke-width:1.00157;stroke-linecap:round"
       d="m 146.02159,280.85112 c 0.96677,-1.73319 8.13574,-2.5343 3.93233,-1.70823 4.15652,1.14375 3.04214,7.19751 0.0238,9.10194 -2.0144,1.15645 -8.37068,3.14256 -3.6334,5.38902 2.43284,1.26197 7.43891,3.33717 8.76036,2.10672 -2.21819,0.071 -3.3761,0.22773 -0.4416,0.5803 4.24191,0.2436 7.39146,4.85135 3.7468,8.25153 -3.97876,5.06872 -9.83465,8.37259 -15.87157,10.40038 -3.08888,3.57327 1.37971,6.38086 4.78923,5.95821 5.04981,0.17944 8.96583,-3.66441 12.79588,-6.4211 4.51561,-3.86456 8.78584,-9.2273 8.79254,-15.43125 -0.31124,-4.47359 -5.07369,-6.10083 -8.505,-7.75113 -4.49084,-2.06394 -9.64901,-1.57165 -14.37787,-0.73723 2.86448,1.10428 5.54589,7.20328 8.73602,4.34326 3.97501,-3.63142 7.18202,-9.31369 4.94499,-14.74465 -1.59889,-5.14479 -7.4972,-6.93723 -12.28616,-5.51477 -1.9983,0.75368 -9.40719,1.76086 -4.95969,3.93593 1.17679,0.75911 2.42892,1.40154 3.55334,2.24107 z" />
    <path
       id="path381"
       style="fill:#000000;stroke:#000000;stroke-width:1.00157;stroke-linecap:round"
       d="m 321.16699,280.58368 c -6.5963,4.86061 -12.2311,13.1242 -9.7168,21.63826 2.4778,9.71074 14.7136,15.7242 23.621,10.50954 8.4429,-4.14614 15.4919,-14.27403 12.018,-23.84127 -2.0815,-5.93957 -9.8708,-5.3884 -14.3589,-2.75567 -3.8694,1.13589 -3.7645,8.60369 0.7858,4.57653 4.2844,-2.68933 11.0756,-2.98123 10.0674,4.02972 -0.3483,8.43314 -8.2832,15.95338 -16.6603,16.01592 -9.2007,-0.70035 -13.8908,-12.597 -8.9336,-19.94143 0.6802,-3.53086 10.2922,-6.54993 4.7237,-9.33093 l -0.7731,-0.45034 z" />
    <path
       id="path507"
       style="fill:#000000;stroke:#000000;stroke-width:1.00157;stroke-linecap:round"
       d="m 234.03439,285.49844 c 1.8114,-1.81342 7.3113,-3.11009 7.9057,-2.59013 -1.6959,-0.0157 -2.9612,0.1312 -0.675,1.06425 2.402,2.91427 0.306,6.89397 -1.1016,9.77747 -3.0972,5.36101 -8.1546,9.36012 -13.3915,12.46747 -1.8383,2.8885 0.521,7.85291 4.472,6.37555 6.0344,-0.68743 12.0568,0.76229 18.0504,1.37491 3.0547,0.95391 6.177,-0.43844 8.1447,-2.8292 2.5852,-1.73929 1.3143,-4.77945 -1.8566,-3.63201 -7.2231,-0.18463 -14.3906,-1.16729 -21.5841,-1.76318 0.046,2.13151 0.229,7.40146 2.8009,3.62851 3.8268,-3.49065 7.1198,-7.54652 9.4303,-12.19802 2.5521,-4.64606 5.4037,-10.35462 2.997,-15.62993 -1.6964,-4.17188 -6.473,-4.31343 -10.2911,-4.11223 -3.6278,0.33661 -7.0471,1.91814 -10.3499,3.3674 -1.5775,1.60711 3.401,2.78783 4.6627,4.20126 l 0.3931,0.24895 z" />
    <path
       id="path509"
       style="fill:#000000;stroke:#000000;stroke-width:1.00157;stroke-linecap:round"
       d="m 61.863896,298.07175 c 2.8515,-5.98772 4.7433,-12.37708 7.582,-18.37081 -2.8286,-0.51646 -8.7553,-0.62656 -6.1847,3.98495 0.6692,4.57705 0.7098,9.2954 1.0251,13.94089 0.4173,4.99646 -0.062,10.24474 0.666,15.09188 1.8719,2.28027 7.2661,2.09286 7.5674,-1.35485 -0.491,-3.65467 -1.5992,-7.23793 -1.7865,-10.96863 -0.6366,-6.68217 -1.0085,-13.523 -0.016,-20.15785 -0.7825,-2.95111 -5.5807,-4.69808 -8.052,-3.20352 -1.7304,2.64619 -1.2972,6.15102 -2.8096,8.9965 -1.269,3.43946 -3.0289,6.75488 -5.5589,9.43765 2.5224,0.86794 5.0449,1.73584 7.5674,2.60379 z" />
    <path
       id="path571"
       style="fill:#000000;stroke:#000000;stroke-width:1.00157;stroke-linecap:round"
       d="m 59.323656,222.63114 c 4.55586,-10.42264 12.41389,-19.44858 14.31127,-30.95468 1.51354,-3.07609 4.19158,-12.20817 -1.35638,-7.92552 3.96519,4.57134 5.37953,10.88976 7.93229,16.34233 2.21166,5.59044 5.39327,10.68736 7.51973,16.30977 2.59268,5.76896 7.69751,1.44604 3.17851,-2.63388 -4.82953,-6.04437 -6.94883,-13.66136 -9.90973,-20.70858 -2.75688,-4.09424 -1.64501,-12.85032 -7.52218,-13.21839 -4.82376,3.47504 -2.38312,10.69502 -5.1062,15.54319 -2.55574,8.3963 -6.60443,16.40564 -11.60762,23.51453 -3.07034,2.37744 0.32294,3.65058 2.56031,3.73123 z" />
    <path
       id="path573"
       style="fill:#000000;stroke:#000000;stroke-width:1.00157;stroke-linecap:round"
       d="m 70.289756,208.76998 c 4.56878,-0.61689 9.19122,-0.59213 13.78086,-0.88706 1.34075,-0.0212 2.43671,-2.09498 0.61628,-2.37727 -3.04953,-1.15592 -6.30381,-0.27116 -9.44629,-0.18742 -2.61228,0.16467 -5.22767,0.27461 -7.8435,0.36406 0.96422,1.02923 1.92843,2.05846 2.89265,3.08769 z" />
    <path
       id="path575"
       style="fill:#000000;stroke:#000000;stroke-width:1.00157;stroke-linecap:round"
       d="m 108.86208,186.72354 c 2.33183,5.99582 2.09885,12.5541 2.50651,18.87192 0.13306,3.91804 -0.0449,7.84299 8.9e-4,11.75722 1.44484,3.58891 5.68945,0.23256 3.95106,-2.60141 -1.28496,-8.53198 -1.35586,-17.18235 -2.49059,-25.7326 0.16246,-1.64503 -0.27239,-3.61487 -2.31209,-2.5588 -0.54418,0.12069 -1.08954,0.3133 -1.65578,0.26367 z" />
    <path
       id="path577"
       style="fill:#000000;stroke:#000000;stroke-width:1.00157;stroke-linecap:round"
       d="m 107.11307,188.36512 c 3.47378,-5.69204 11.05609,-10.91718 17.67484,-7.19215 5.6239,2.85732 3.5796,10.20742 -0.23204,13.679 -2.21159,2.94437 -11.39295,4.17589 -5.59209,8.56159 4.59037,3.15928 8.71744,7.06272 11.88403,11.65663 4.97564,3.71998 5.19224,-4.48418 1.13142,-6.06843 -3.24659,-2.43114 -7.38306,-7.83054 -10.49155,-7.87362 4.65692,-0.87678 8.44358,-8.21555 9.86366,-13.18749 1.90197,-6.80978 -5.92863,-10.68092 -11.64622,-9.94124 -6.30889,0.16995 -11.58034,4.72996 -15.58,9.08965 0.59381,0.99287 2.18278,0.52129 2.98795,1.27606 z" />
    <path
       id="path579"
       style="fill:#000000;stroke:#000000;stroke-width:1.00157;stroke-linecap:round"
       d="m 164.67558,179.75296 c -9.52644,4.40844 -15.75372,16.92296 -10.17924,26.61389 3.69561,7.622 16.4297,7.83433 20.03553,0.12236 2.79323,-2.31503 -3.13168,-9.51101 -2.13801,-5.14506 2.98557,0.48545 4.43602,-3.52352 2.51122,0.093 1.73146,6.18344 0.78476,12.62534 1.57941,18.8831 0.28476,2.75394 2.44053,9.26166 2.8945,2.83278 1.5891,-7.24271 0.6862,-14.6686 0.7721,-21.99619 0.031,-7.5786 -10.48563,-6.04704 -13.5931,-1.55259 -0.52355,3.21934 4.91712,7.14346 -1.22176,8.61466 -6.40165,2.05158 -10.00529,-5.65002 -9.34558,-10.93628 0.61782,-6.74681 5.78863,-12.53751 12.02701,-14.68475 -0.37719,-1.45697 -2.49021,-1.69691 -3.34208,-2.8449 z" />
    <path
       id="path581"
       style="fill:#000000;stroke:#000000;stroke-width:1.00157;stroke-linecap:round"
       d="m 215.03019,177.37479 c -4.3896,2.29758 -9.1082,4.64816 -12.0765,8.75138 -1.3995,3.06872 1.0206,6.25805 3.6813,7.64845 3.1965,1.99713 7.3755,3.4136 8.8421,7.22383 0.8451,2.33379 -1.3589,4.18672 -3.1963,5.15618 -4.0341,2.44254 -8.5221,3.91342 -12.9837,5.351 -2.6054,2.16714 1.8286,3.39053 3.6065,3.37384 2.7006,-0.009 5.2557,-1.13296 7.8209,-1.8728 3.6893,-1.34608 7.9732,-2.88867 9.7656,-6.6914 1.8571,-5.02179 -1.6576,-10.65729 -6.326,-12.64147 -2.3837,-1.52298 -6.8406,-2.63157 -6.7446,-5.96699 0.8733,-2.55222 3.6602,-3.52182 5.6101,-5.09986 1.2632,-1.31449 5.5191,-0.80057 4.7321,-2.88318 -0.9105,-0.783 -1.821,-1.56599 -2.7315,-2.34898 z" />
    <path
       id="path583"
       style="fill:#000000;stroke:#000000;stroke-width:1.00157;stroke-linecap:round"
       d="m 246.37939,178.68891 c -5.0642,4.50317 -9.4672,10.77009 -9.1709,17.83133 0.1056,4.66862 2.554,9.31617 6.7827,11.49834 4.8023,2.48015 10.7762,3.36335 15.8824,1.28224 3.593,-1.33334 6.0107,-4.57285 7.2035,-8.10623 2.4793,-6.48822 2.3424,-13.6921 0.8811,-20.39797 -2.1654,-4.71471 -10.0104,-5.34005 -12.691,-0.81465 -0.7951,1.32081 -0.1087,5.18371 1.9011,2.95872 0.8848,-0.36539 4.831,-0.36498 2.859,-1.38976 3.3233,0.57091 4.0726,4.45444 4.0795,7.2853 0.3693,5.9737 -1.444,12.65931 -6.6501,16.15153 -4.6173,3.19309 -11.5752,1.88591 -14.7237,-2.77553 -3.3988,-4.54641 -2.0456,-10.96707 0.8922,-15.38046 1.2024,-2.63321 4.7472,-4.03313 5.8871,-6.03141 -0.6245,-1.23607 -2.3868,-0.99199 -3.1329,-2.11145 z" />
    <path
       id="path585"
       style="fill:#000000;stroke:#000000;stroke-width:1.00157;stroke-linecap:round"
       d="m 289.34919,181.93322 c 1.1897,9.56791 -0.3465,19.18202 -0.063,28.77353 0.1452,1.215 1.2323,2.66492 2.5941,2.28605 1.2299,-0.49637 1.1692,-2.02043 1.3816,-3.11812 0.4485,-3.54519 -0.029,-7.1219 0.2149,-10.67846 0.1793,-5.83718 0.7506,-11.66036 0.7229,-17.504 -1.6168,0.0804 -3.2337,0.16031 -4.8505,0.241 z" />
    <path
       id="path587"
       style="fill:#000000;stroke:#000000;stroke-width:1.00157;stroke-linecap:round"
       d="m 283.82919,182.24361 c 4.9479,-1.71703 11.4213,-4.90326 16.2285,-1.95963 3.7668,2.2563 3.8692,7.76659 0.3444,10.27491 -3.623,1.34525 -7.1616,5.91535 -1.7264,7.70991 6.2246,2.64722 9.2061,9.10806 13.0563,14.19236 4.3985,2.96715 5.6005,-3.31737 2.2804,-5.54527 -3.2844,-4.95947 -7.4151,-9.48503 -12.5747,-12.52881 0.5059,3.23899 6.0671,-4.25745 6.2493,-6.50108 1.567,-5.90046 -3.3419,-12.63226 -9.6299,-12.18884 -6.1507,-0.081 -12.0384,1.9645 -17.8346,3.77454 1.2022,0.924 2.4045,1.84791 3.6067,2.77191 z" />
    <path
       id="path589"
       style="fill:#000000;stroke:#000000;stroke-width:1.00157;stroke-linecap:round"
       d="m 328.82109,181.22918 c 9.125,-1.09113 18.1877,-2.9424 27.3758,-3.29331 4.1294,-2.42807 -3.1784,-5.92537 -5.8734,-4.7529 -8.7037,1.27073 -17.3826,2.76738 -26.132,3.73064 1.5432,1.43852 3.0864,2.87705 4.6296,4.31557 z" />
    <path
       id="path591"
       style="fill:#000000;stroke:#000000;stroke-width:1.00157;stroke-linecap:round"
       d="m 337.79819,181.88713 c 0.5816,9.39637 -0.8907,18.75305 -1.2013,28.12668 -1.206,2.72307 1.3779,6.34152 3.9115,6.0819 2.1195,-1.58844 2.8504,-4.34409 1.9476,-6.96458 -0.6864,-8.32293 0.4131,-16.6463 0.3979,-24.97245 1.4992,-3.7234 -3.3359,-1.78293 -5.0557,-2.27155 z" />
    <path
       id="path164"
       style="fill:#ff0000;stroke:#ff0000;stroke-width:1.00157;stroke-linecap:round"
       d="M 99.249825,614.21861 C 181.40087,481.24389 319.93928,400.87679 431.43852,295.81091 c 58.9438,-53.25561 137.76289,-77.61008 216.56989,-72.30673 104.74445,3.26261 209.64476,5.65238 314.29483,9.96414 67.59956,-0.0971 119.82676,57.80348 117.03876,124.41037 6.7044,71.39909 2.3791,142.96908 1.3755,214.4908 15.2243,-26.7192 3.5046,-120.92117 6.9905,-172.92239 -3.3768,-61.75497 -11.1731,-141.41158 -82.8641,-160.42443 -93.02493,-22.15496 -190.66574,-5.22961 -285.293,-16.10331 -96.03679,-3.55269 -204.33558,-7.00934 -279.60737,63.36424 -66.77808,56.71025 -129.81721,117.72722 -200.4169,169.82434 -53.49492,46.06663 -103.44272,97.5 -140.276805,158.11067 z" />
    <path
       id="path176"
       style="fill:#ff0000;stroke:#ff0000;stroke-width:1.00157;stroke-linecap:round"
       d="m 283.28859,610.38568 c 38.53146,-66.35832 97.60294,-118.12114 155.78656,-166.71958 58.24589,-35.38203 108.02587,-88.12595 173.14913,-109.98868 96.24271,-22.47324 195.76567,-3.55244 293.35545,-4.87871 52.32162,-8.80398 93.07023,32.37898 95.46927,82.86023 9.5585,57.07585 9.4359,114.03966 -0.053,169.34768 13.2536,-37.52313 21.0283,-90.5183 8.6984,-133.24775 C 1007.488,400.75526 995.21979,333.04569 937.49423,327.81548 837.81482,326.89989 737.42188,312.0717 638.00852,325.21055 561.35409,331.27012 512.35615,397.1786 448.83236,432.0536 383.2081,480.06412 327.69631,541.33317 279.74931,606.50192 l 0.2477,2.76485 z" />
    <path
       id="path179"
       style="fill:#ff0000;stroke:#ff0000;stroke-width:1.00157;stroke-linecap:round"
       d="m 374.63515,613.82164 c 60.77348,-53.13422 118.68091,-110.32466 184.69071,-157.02227 71.50877,-44.52063 159.71975,-38.17566 240.46135,-43.55418 42.90074,3.3919 115.98557,-4.76469 125.31485,51.74042 3.99354,38.23836 -0.23314,76.73826 2.34497,114.90469 11.90546,-3.97469 1.72089,-62.12505 4.06547,-87.44713 3.93329,-33.87702 -12.16546,-74.31212 -51.57531,-74.4205 -74.86727,-15.40031 -152.02993,-5.11986 -227.23388,2.48988 -53.95177,6.23084 -102.83272,33.11576 -141.16463,70.96227 -46.67224,40.2189 -90.77319,83.50237 -139.91499,120.79411 l 2.12967,1.09805 0.88182,0.45466 z" />
    <path
       id="path181"
       style="fill:#ff0000;stroke:#ff0000;stroke-width:1.00157;stroke-linecap:round"
       d="m 198.20192,608.57819 c 72.36636,-70.85774 178.76297,-78.29128 273.94948,-89.64253 105.75895,-11.70612 212.6339,-11.93504 318.75755,-13.45701 51.40568,2.27221 30.89299,60.28576 43.15683,81.57573 11.73581,-36.11135 -2.18679,-90.632 -50.48834,-84.36811 -151.72788,2.81737 -305.10184,3.4577 -453.98875,36.84288 -49.21757,6.97712 -93.04399,35.55248 -130.7714,65.43667 z" />
    <path
       id="path185"
       style="fill:#ff0000;stroke:#ff0000;stroke-width:1.00157;stroke-linecap:round"
       d="m 805.90527,580.88208 c 9.00638,10.35779 14.69792,23.20764 24.30894,33.08327 8.52575,3.60255 12.49534,-7.80444 17.65689,-12.41099 6.32929,-7.25008 13.49969,-13.70018 20.00159,-20.78838 2.3895,-8.84463 -9.08018,1.29383 -10.9455,4.31799 -7.199,8.00261 -14.68535,15.83281 -23.26502,22.37826 -4.35778,0.82106 5.73987,1.53416 -0.69295,-0.13131 -9.95525,-6.81713 -15.16059,-18.26128 -22.5018,-27.3813 -1.51572,-0.85551 -3.23585,0.2692 -4.56215,0.93246 z" />
    <path
       id="path188"
       style="fill:#ff0000;stroke:#ff0000;stroke-width:1.00157;stroke-linecap:round"
       d="m 902.49444,576.81624 c 9.77076,7.21086 17.195,17.8639 19.86044,29.70601 5.26906,7.29519 12.62687,-0.44605 16.78343,-4.76759 6.28343,-5.58138 12.69703,-11.02691 19.42235,-16.07181 4.15536,-8.06343 -9.04269,-1.84575 -11.05663,1.69048 -6.7242,5.25298 -13.46657,10.50317 -20.60002,15.19592 -4.49339,-2.14659 5.90521,0.65615 1.87377,0.30628 -6.97333,-9.18021 -13.22837,-19.14794 -20.85418,-27.66505 -1.92452,-0.93669 -4.08816,0.20223 -5.42916,1.60576 z" />
    <path
       id="path190"
       style="fill:#ff0000;stroke:#ff0000;stroke-width:1.00157;stroke-linecap:round"
       d="m 978.38437,575.10754 c 9.86695,7.76768 14.79221,19.85001 20.28018,30.70868 4.58395,6.33015 12.50625,1.67419 15.03095,-4.0165 4.6409,-6.5799 9.0707,-13.35681 14.6423,-19.20538 3.4172,-8.68271 -7.8252,-1.56621 -9.7566,1.87619 -5.1696,6.12259 -9.161,13.22662 -15.4222,18.21139 7.0993,2.35711 -2.7777,-2.89825 -3.18935,-6.10326 -5.55408,-7.92805 -11.00988,-15.93078 -16.09557,-24.16942 -1.82991,0.89942 -3.65977,1.79894 -5.48971,2.6983 z" />
    <path
       id="path192"
       style="fill:#ff0000;stroke:#ff0000;stroke-width:1.00157;stroke-linecap:round"
       d="m 1058.1298,571.56387 c 8.2603,9.25623 13.8242,20.71022 17.6538,32.36768 4.9039,7.93454 12.8198,1.74963 15.8881,-4.15526 4.7786,-5.83337 9.3819,-11.83844 14.7208,-17.18227 1.6511,-3.25465 6.1044,-9.65991 -0.2845,-4.96673 -9.7619,6.24134 -16.3089,16.28985 -25.4711,23.24295 2.4357,-2.68972 4.885,3.32481 0.8171,-0.93719 -6.8889,-9.32848 -12.5845,-19.46625 -17.9233,-29.74051 -1.9443,-0.71683 -3.5604,1.13109 -5.4009,1.37133 z" />
    <path
       id="path194"
       style="fill:#ff0000;stroke:#ff0000;stroke-width:1.00157;stroke-linecap:round"
       d="m 575.3701,467.00207 c 1.22555,9.36889 -0.52083,18.75662 -0.64309,28.134 -1.66766,3.3096 1.63732,6.92123 5.03202,5.14236 2.44531,-2.91091 0.20504,-7.2933 1.17307,-10.79632 0.4257,-6.58121 0.25697,-13.18179 -0.21101,-19.74611 0.75574,-4.50624 -2.60362,-2.60814 -5.35099,-2.73393 z" />
    <path
       id="path196"
       style="fill:#ff0000;stroke:#ff0000;stroke-width:1.00157;stroke-linecap:round"
       d="m 570.23647,503.86807 c 6.83687,-1.8101 13.853,-2.87314 20.89263,-3.48895 1.00296,-2.56191 -2.89978,-4.29007 -4.63844,-5.51423 -2.96047,0.0319 -5.83745,1.10386 -8.82792,1.26066 -4.10525,0.74974 -8.12847,2.01591 -12.31223,2.28426 0.29133,2.44987 3.66438,3.49249 4.88596,5.45826 z" />
    <path
       id="path198"
       style="fill:#ff0000;stroke:#ff0000;stroke-width:1.00157;stroke-linecap:round"
       d="m 567.38235,471.26944 c 7.5227,-1.36633 15.30947,-0.30511 22.75948,-2.1936 1.02945,0.35959 2.51066,0.0206 2.68331,-1.226 0.22677,-1.30746 -0.76642,-2.59266 -2.01228,-2.91798 -1.26072,-1.51998 -3.41299,-1.74979 -5.23173,-1.34456 -2.01417,0.41313 -3.98259,1.07047 -6.04763,1.2024 -5.36686,0.61912 -10.7731,0.73818 -16.16807,0.90347 -0.86861,0.93221 0.46671,1.97505 1.10732,2.6273 0.97061,0.96961 2.24182,1.72292 2.9096,2.94897 z" />
    <path
       id="path200"
       style="fill:#ff0000;stroke:#ff0000;stroke-width:1.00157;stroke-linecap:round"
       d="m 603.09195,467.18293 c 2.27175,7.42385 0.48225,15.25935 1.3899,22.83308 -0.89179,3.16229 -0.60977,8.42679 3.99865,7.38647 3.83929,-0.009 2.33699,-4.32032 2.27221,-6.72687 -0.56206,-7.729 -0.92186,-15.52563 -1.53166,-23.21497 -1.29063,-1.97253 -4.31071,-0.421 -6.1291,-0.27771 z" />
    <path
       id="path203"
       style="fill:#ff0000;stroke:#ff0000;stroke-width:1.00157;stroke-linecap:round"
       d="m 605.26869,468.18164 c 1.94608,-0.69913 8.24086,-1.22036 7.59804,-0.7165 3.16787,0.24373 5.36553,2.83426 5.91372,5.87428 1.20699,5.95887 1.26067,13.22095 -3.34069,17.82419 -2.8317,2.75435 -6.75758,3.88914 -10.21345,5.38639 -0.0899,3.00792 3.96375,5.02842 6.67233,4.51719 4.13331,-1.44611 7.48282,-4.68965 10.03432,-8.17371 4.51692,-6.65845 4.11379,-15.40855 2.07276,-22.85952 -1.16952,-3.88276 -4.79906,-6.89752 -8.93643,-6.77286 -4.59626,-0.41931 -9.19104,0.27793 -13.75924,0.6025 0.26319,1.36446 2.95858,2.94069 3.95864,4.31804 z" />
    <path
       id="path206"
       style="fill:#ff0000;stroke:#ff0000;stroke-width:1.00157;stroke-linecap:round"
       d="m 633.18033,465.85509 c 5.48399,7.47868 7.80017,16.65966 12.56328,24.54553 0.15237,4.1768 6.09084,10.58371 9.08085,5.03383 -0.33857,-4.01704 -4.32781,-6.81405 -5.5112,-10.69815 -3.47856,-6.768 -6.44815,-13.90855 -10.55254,-20.28308 -1.97198,-0.76926 -3.6546,1.33967 -5.58039,1.40187 z" />
    <path
       id="path208"
       style="fill:#ff0000;stroke:#ff0000;stroke-width:1.00157;stroke-linecap:round"
       d="m 654.75337,461.52502 c -8.37562,9.34573 -16.01505,19.32687 -23.65225,29.25546 -5.77869,2.6352 -4.18875,11.84321 2.45469,8.07778 3.86482,-3.87706 6.42853,-8.89863 9.53056,-13.39895 4.66387,-7.49289 9.68461,-14.82137 15.83356,-21.18023 0.2966,-1.83463 -3.10342,-1.91986 -4.16656,-2.75406 z" />
    <path
       id="path210"
       style="fill:#ff0000;stroke:#ff0000;stroke-width:1.00157;stroke-linecap:round"
       d="m 698.0838,475.82131 c 2.43185,-3.81275 4.72502,-7.70777 6.32461,-11.9546 0.71312,-2.48645 3.69932,-5.92629 2.78492,-7.89058 -2.45263,-0.36293 -7.12337,-0.97934 -5.68946,2.81414 -0.66852,13.25399 -1.61633,26.50819 -3.08038,39.70104 0.67734,2.60016 7.07491,2.69792 7.46866,-0.0409 0.06,-4.41016 -0.56884,-8.80806 -0.0928,-13.22552 0.53127,-9.55809 0.0352,-19.291 2.27399,-28.66532 -0.4431,-2.14885 -5.21904,-2.07911 -6.66464,-1.22725 -0.81507,3.40854 -1.36657,6.93533 -3.11624,10.04341 -1.51889,2.83983 -2.88616,5.82322 -4.4835,8.57163 0.67729,1.35975 3.01866,1.09202 4.27488,1.87391 z" />
    <path
       id="path212"
       style="fill:#ff0000;stroke:#ff0000;stroke-width:1.00157;stroke-linecap:round"
       d="m 727.14005,480.08882 c 5.10091,-0.7838 10.27765,-0.54087 15.41562,-0.4319 -0.544,-0.0418 -1.70463,0.40018 -0.44258,0.27299 1.5136,-0.11083 3.23916,-0.36933 4.21618,-1.6494 1.01997,-0.5609 2.09824,-1.64144 1.61989,-2.91131 -0.71135,-1.8662 -2.91865,-0.77929 -4.35989,-0.87341 -5.9504,0.23991 -11.90048,0.55066 -17.85524,0.64154 -0.87791,0.10744 -2.66315,-0.22145 -2.95873,0.11693 1.45493,1.61148 2.90953,3.22345 4.36475,4.83456 z" />
    <path
       id="path214"
       style="fill:#ff0000;stroke:#ff0000;stroke-width:1.00157;stroke-linecap:round"
       d="m 740.80906,466.55933 c 4.92639,2.94844 9.95387,5.75674 14.59188,9.15563 0.89826,1.42357 -0.35081,3.07717 -1.75368,3.51938 -2.08892,0.97472 -4.42549,1.41193 -6.34606,2.73478 -2.42433,1.0595 -5.34017,1.37649 -7.2172,3.40602 -0.91717,1.51351 0.45803,3.33185 1.9998,3.68324 3.59322,1.28913 7.22016,-0.5548 10.43532,-2.03913 4.05539,-1.83053 8.68948,-3.44348 11.07698,-7.4845 1.59696,-2.15545 0.56117,-5.2456 -1.58827,-6.58976 -2.83469,-1.99583 -6.1593,-3.12688 -9.1097,-4.9329 -2.3732,-1.29958 -4.71738,-2.65499 -6.99174,-4.12167 -2.09248,-0.0592 -3.24661,2.09115 -5.09733,2.66891 z" />
    <path
       id="path218"
       style="fill:#ff0000;stroke:#ff0000;stroke-width:1.00157;stroke-linecap:round"
       d="m 785.07101,458.35883 c -6.36814,9.16642 -9.77782,21.83467 -4.81499,32.35662 3.98607,7.49081 14.69861,10.91325 21.70516,5.44847 10.10992,-6.81495 13.29191,-22.46835 5.71853,-32.2765 -6.01971,-5.6116 -14.9697,-0.87706 -18.43658,5.22841 -3.25232,3.4863 0.24184,10.88644 4.09736,5.18837 1.47074,-3.27868 6.9921,-8.44384 8.34457,-7.57885 -2.84007,-1.21866 4.02162,2.68095 3.16926,5.21563 3.02189,8.96461 -2.23877,20.11781 -11.83553,22.05475 -3.44472,0.29713 -8.42409,-3.92965 -9.40407,-8.23317 -1.82441,-6.30123 -0.15551,-13.12397 2.39422,-18.95136 2.31124,-3.39128 5.6241,-7.6878 -0.93793,-8.45237 z" />
    <path
       id="path220"
       style="fill:#ff0000;stroke:#ff0000;stroke-width:1.00157;stroke-linecap:round"
       d="m 558.6592,406.11653 c 3.00627,8.47097 4.53279,17.36993 6.78438,26.04031 1.97146,3.53928 6.74381,0.4028 4.4832,-2.98307 -1.85301,-4.50938 -2.87099,-9.28792 -4.646,-13.83405 -0.94745,-2.74555 -2.1295,-5.42139 -2.50433,-8.30611 -0.59056,-2.29997 -2.59246,-1.07164 -4.11725,-0.91708 z" />
    <path
       id="path222"
       style="fill:#ff0000;stroke:#ff0000;stroke-width:1.00157;stroke-linecap:round"
       d="m 561.43346,438.22809 c 6.24945,-2.46195 12.27038,-5.49493 18.64511,-7.63856 3.3458,-3.00395 -2.8332,-5.34131 -5.29724,-3.93195 -3.84145,1.48878 -7.42961,3.58191 -11.30705,5.01186 -1.93247,1.06143 -5.42885,1.58022 -6.42247,2.8527 1.1813,1.54252 3.02571,2.34957 4.38165,3.70595 z" />
    <path
       id="path224"
       style="fill:#ff0000;stroke:#ff0000;stroke-width:1.00157;stroke-linecap:round"
       d="m 553.09467,411.07334 c 5.30667,-3.6653 11.46204,-5.82061 17.44875,-8.07727 2.4388,0.0232 5.02214,-2.18623 1.92136,-3.89058 -2.7351,-2.87409 -6.52646,-0.98996 -9.31627,0.65475 -5.21694,2.44899 -10.58881,4.66288 -15.38961,7.89418 1.59746,1.40391 3.59536,2.22213 5.33577,3.41892 z" />
    <path
       id="path226"
       style="fill:#ff0000;stroke:#ff0000;stroke-width:1.00157;stroke-linecap:round"
       d="m 593.99967,394.65478 c 2.08493,7.95203 2.59361,16.22385 3.26023,24.36943 -0.0358,3.54126 5.88175,3.1552 4.91349,-0.43064 -1.55591,-6.96724 -1.84059,-14.17065 -3.5568,-21.11493 0.73113,-3.37098 -2.30107,-3.52398 -4.61692,-2.82386 z" />
    <path
       id="path228"
       style="fill:#ff0000;stroke:#ff0000;stroke-width:1.00157;stroke-linecap:round"
       d="m 591.34711,393.24012 c 6.78212,-5.0453 19.11659,-1.50718 20.0665,7.51318 0.57892,9.25427 -5.20155,17.72284 -12.62394,22.7049 -0.48153,5.2058 7.76724,4.67896 9.1001,0.23904 5.89341,-7.242 10.59518,-17.18156 7.48705,-26.58084 -2.83219,-7.38779 -11.94678,-9.82882 -19.13549,-8.63723 -2.36429,0.73054 -11.97032,1.99395 -4.89422,4.76095 z" />
    <path
       id="path231"
       style="fill:#ff0000;stroke:#ff0000;stroke-width:1.00157;stroke-linecap:round"
       d="m 626.43804,381.77037 c 5.5375,8.01637 10.25964,16.62188 16.54521,24.09876 1.52461,2.59759 2.21038,7.13648 5.93292,7.26631 3.60767,-0.47307 2.54385,-4.86468 0.37608,-6.4843 -2.62776,-2.81584 -4.78903,-6.00645 -7.31898,-8.91483 -4.03995,-5.02025 -7.86314,-10.31232 -10.41552,-16.26406 -1.40728,-1.79558 -3.47843,0.0277 -5.11971,0.29812 z" />
    <path
       id="path233"
       style="fill:#ff0000;stroke:#ff0000;stroke-width:1.00157;stroke-linecap:round"
       d="m 647.86777,379.5076 c -8.80342,10.06904 -15.69816,21.69723 -21.92937,33.43912 -1.30445,5.80639 6.53406,5.33784 6.94967,0.2812 4.20034,-9.64308 9.4732,-18.87775 15.76219,-27.31696 3.27075,-3.20179 5.45516,-4.9508 -0.78249,-6.40336 z" />
    <path
       id="path235"
       style="fill:#ff0000;stroke:#ff0000;stroke-width:1.00157;stroke-linecap:round"
       d="m 697.96409,376.36636 c 2.11022,-1.9393 7.97422,-2.91507 8.70098,-2.70221 -1.3379,0.16257 3.88473,0.89872 2.94395,3.23087 0.45546,4.42245 -4.07051,7.73265 -8.17396,7.69141 -3.9295,0.75887 -0.87735,7.93928 2.61314,5.91961 2.44061,-0.10409 1.95716,0.0616 -0.14339,0.0352 -1.49037,-0.40962 3.95022,-0.30038 4.81202,0.889 4.391,2.77268 0.21601,8.23059 -2.82349,10.24674 -3.94903,3.27075 -9.09163,4.10494 -13.80419,5.64498 -3.41176,3.39404 3.20386,4.99958 5.84115,4.74792 5.80947,-0.69245 11.19856,-3.89928 15.23043,-8.05167 3.33741,-3.65069 6.46636,-9.32794 3.41057,-14.08466 -3.00764,-4.761 -9.24303,-5.55582 -14.39967,-5.13805 2.7496,-0.8366 4.99524,0.62269 3.77447,3.50352 0.31105,4.3109 5.81495,-0.69834 7.36506,-2.16301 3.14015,-3.4875 4.47862,-9.54966 0.82889,-13.19319 -3.24743,-3.58497 -8.72466,-2.85982 -12.92489,-1.70252 -1.66346,0.93573 -7.19344,1.33722 -5.76016,3.55384 0.90738,0.38817 1.66519,1.06747 2.50909,1.57226 z" />
    <path
       id="path237"
       style="fill:#ff0000;stroke:#ff0000;stroke-width:1.00157;stroke-linecap:round"
       d="m 734.93959,388.92531 c 2.9189,-0.76167 5.97244,-0.73872 8.96888,-0.71774 -3.52495,0.0769 2.83545,0.44669 3.91771,0.54671 3.51568,-0.17427 7.44812,2.27156 10.45961,-0.52328 4.24096,-3.19297 -2.26516,-4.75127 -5.00666,-4.30236 -7.54968,-0.93798 -15.22394,-0.54944 -22.76289,0.3687 1.14859,1.83117 3.01007,3.02972 4.42335,4.62797 z" />
    <path
       id="path240"
       style="fill:#ff0000;stroke:#ff0000;stroke-width:1.00157;stroke-linecap:round"
       d="m 748.90747,374.46144 c 5.64083,4.75576 12.1946,8.49797 19.29418,10.57029 1.31011,2.62525 3.53086,-1.64021 0.71158,0.57872 -5.05185,5.48232 -12.58764,7.22249 -18.83313,10.88314 -3.05297,5.55176 6.82425,5.27529 9.21217,2.08895 6.21194,-3.55854 12.62507,-7.12175 17.65404,-12.28804 2.25217,-4.92981 -4.31061,-5.05974 -7.42747,-5.44743 -6.06848,-1.39959 -11.92252,-4.13044 -16.50981,-8.39667 -1.36718,0.67032 -2.73445,1.34084 -4.10156,2.01104 z" />
    <path
       id="path242"
       style="fill:#ff0000;stroke:#ff0000;stroke-width:1.00157;stroke-linecap:round"
       d="m 695.60909,271.86232 c 3.46084,-2.53365 10.06266,-5.72253 12.28384,-0.0513 2.20711,6.91139 -3.10638,13.38685 -7.83199,17.83193 -3.71189,3.64552 -8.63098,5.53438 -13.17289,7.762 -4.38928,4.42068 2.28367,8.06134 6.37425,5.33143 7.05737,-1.83592 14.27865,-3.18406 21.60195,-2.79442 -0.93262,2.52201 9.78413,-3.86089 4.16189,-5.22027 -10.02717,0.0925 -19.99715,1.43154 -29.86185,3.18653 3.01934,-1.72581 3.72927,4.48148 4.01154,3.44922 8.50541,-5.89429 18.17381,-12.55174 20.70412,-23.23997 1.63058,-6.81478 -4.55063,-14.61976 -11.78646,-12.2064 -2.3096,0.38085 -11.88531,3.84657 -6.4844,5.9512 z" />
    <path
       id="path244"
       style="fill:#ff0000;stroke:#ff0000;stroke-width:1.00157;stroke-linecap:round"
       d="m 522.44759,316.87957 c 6.10223,5.14015 8.84709,12.88648 12.72885,19.59859 0.14998,3.83883 4.30764,10.3293 7.94669,5.56322 -0.36453,-4.91782 -5.37077,-8.59914 -7.35223,-13.16698 -3.01185,-4.74045 -6.10501,-9.45064 -9.71312,-13.76501 -1.2034,0.59006 -2.40679,1.18012 -3.61019,1.77018 z" />
    <path
       id="path246"
       style="fill:#ff0000;stroke:#ff0000;stroke-width:1.00157;stroke-linecap:round"
       d="m 534.69333,354.64121 c 4.53181,-5.44478 10.91122,-8.76757 16.75982,-12.56071 5.29514,0.47765 6.06126,-8.01727 -0.0843,-6.06795 -3.82776,1.23872 -6.72661,4.30016 -10.16836,6.30666 -4.04252,2.88542 -7.86299,6.08806 -11.36081,9.61591 0.84828,1.88433 3.44056,1.51334 4.85364,2.70609 z" />
    <path
       id="path248"
       style="fill:#ff0000;stroke:#ff0000;stroke-width:1.00157;stroke-linecap:round"
       d="m 517.59755,322.79639 c 4.95312,-5.21307 10.7845,-9.57444 17.13,-12.94915 0.58939,-3.01172 -3.92772,-4.63271 -6.27558,-3.82743 -2.74486,1.66421 -4.86065,4.18778 -7.51251,6.0185 -2.97505,2.4499 -5.93491,4.92264 -8.75368,7.55263 1.01456,2.03468 3.81103,1.8702 5.41177,3.20545 z" />
    <path
       id="path250"
       style="fill:#ff0000;stroke:#ff0000;stroke-width:1.00157;stroke-linecap:round"
       d="m 556.4132,302.48247 c 6.08272,6.3055 9.15971,14.83645 10.59507,23.32465 2.72727,4.41845 8.7334,-0.91381 5.10788,-4.59613 -1.73876,-7.48 -5.67959,-14.19216 -10.24647,-20.28644 -1.99889,-0.95229 -3.5846,1.32882 -5.45648,1.55792 z" />
    <path
       id="path252"
       style="fill:#ff0000;stroke:#ff0000;stroke-width:1.00157;stroke-linecap:round"
       d="m 556.84953,301.02851 c 4.88301,-6.35707 15.03016,-8.27063 21.59589,-3.4341 2.81342,2.06527 3.67308,5.9078 3.35641,9.22877 -0.49414,4.53572 -2.78766,8.69609 -5.68838,12.14249 -2.33449,1.50543 -4.58202,3.42999 -5.79432,5.97902 -1.14257,2.22062 1.66725,3.33659 3.43378,3.1065 3.90451,-1.05165 6.07101,-4.74403 8.29951,-7.7983 3.75922,-4.70098 5.7421,-10.93452 5.04945,-16.9466 -0.45338,-3.58574 -2.01506,-7.30655 -5.25402,-9.2103 -4.4064,-2.73863 -9.83147,-2.87819 -14.85905,-2.60328 -5.38264,0.54485 -10.43601,3.17478 -14.27416,6.94024 -0.39211,2.25507 3.05522,1.56744 4.13489,2.59556 z" />
    <path
       id="path254"
       style="fill:#ff0000;stroke:#ff0000;stroke-width:1.00157;stroke-linecap:round"
       d="m 598.80318,284.59574 c 6.83375,5.21776 12.66952,11.59505 19.07911,17.29659 4.2056,2.5843 5.19804,11.30885 10.92821,10.07068 4.54357,-3.2248 -2.02583,-7.45849 -3.74333,-10.40365 -6.38782,-6.96027 -14.70727,-11.82555 -20.94852,-18.93642 -2.0857,-0.76316 -3.46877,1.56549 -5.31547,1.9728 z" />
    <path
       id="path256"
       style="fill:#ff0000;stroke:#ff0000;stroke-width:1.00157;stroke-linecap:round"
       d="m 625.45092,278.0328 c -9.07783,12.20627 -18.89848,23.94222 -26.48983,37.17673 1.20776,6.52506 9.50086,1.7683 9.81621,-2.91509 6.37274,-10.03202 13.14361,-19.85014 19.67113,-29.75256 3.31606,-2.79665 -0.71001,-3.91478 -2.99751,-4.50908 z" />
    <path
       id="path258"
       style="fill:#ff0000;stroke:#ff0000;stroke-width:1.00157;stroke-linecap:round"
       d="m 732.80056,284.97003 c 6.44206,0.86886 12.85348,2.13094 19.37948,2.14026 3.67135,0.1705 7.34477,0.37678 10.99491,0.81974 2.1586,-0.64462 4.49853,-2.29313 4.95834,-4.57818 -1.51314,-1.39525 -4.36306,-0.088 -6.44406,-0.49702 -7.35171,-0.0799 -14.75831,-0.12018 -22.0278,-1.319 -2.80171,-1.72842 -4.32806,1.40625 -6.31026,2.92437 l -0.27531,0.25491 z" />
    <path
       id="path262"
       style="fill:#ff0000;stroke:#ff0000;stroke-width:1.00157;stroke-linecap:round"
       d="m 758.37309,269.53955 c 5.04799,5.80165 11.78301,9.75501 18.7144,12.86536 3.38259,1.59405 -2.812,4.26476 -3.93801,5.97388 -5.03638,3.66712 -10.80148,6.45124 -15.57625,10.3885 -1.08152,5.18309 6.28537,4.27917 8.25265,1.15107 5.57751,-5.14055 13.20329,-7.80916 17.98998,-13.89839 3.80708,-3.30586 -0.58331,-7.07774 -3.99803,-7.9662 -5.63113,-2.43499 -11.79555,-4.65599 -15.58754,-9.77297 -2.00557,-1.14923 -3.92855,0.94289 -5.8572,1.25875 z" />
    <path
       id="path264"
       style="fill:#ff0000;stroke:#ff0000;stroke-width:1.00157;stroke-linecap:round"
       d="m 792.29371,383.44329 c 3.79232,-5.15421 6.35768,-11.05728 8.97546,-16.8487 1.16059,-1.28724 2.78313,-3.96066 -0.27789,-3.24734 -4.52375,-0.8688 -1.88188,4.73694 -3.11204,7.31338 -1.09853,8.45407 -2.13126,16.92099 -3.59738,25.31999 -0.63193,2.60884 -1.25379,6.33014 2.7357,5.73723 3.5026,1.10394 4.29244,-1.86095 3.53102,-4.70092 -0.008,-8.75068 1.16468,-17.45439 2.0941,-26.14331 -0.32421,-2.72749 2.32671,-7.24301 -0.55572,-8.60931 -3.04418,-1.67292 -5.41102,0.56241 -5.79592,3.64261 -2.36153,5.34213 -4.27497,11.32542 -8.98627,15.13316 1.40462,1.25354 3.37628,1.50543 4.98894,2.40321 z" />
    <path
       id="path269"
       style="fill:#ff0000;stroke:#ff0000;stroke-width:1.00157;stroke-linecap:round"
       d="m 802.59165,269.91204 c 0.96119,-1.42838 4.19097,-2.09506 3.36252,-1.09357 3.77788,2.27916 3.72244,7.61874 2.69278,11.3981 -2.19678,7.30463 -7.97614,12.84592 -13.77182,17.47738 -2.11525,1.90612 -7.35731,3.18508 -5.57501,6.93445 1.45289,3.08803 7.19187,0.53322 7.8815,0.92933 -4.24248,-0.28824 4.01546,-0.0392 5.45712,0.50332 3.36699,0.57813 6.6896,1.40574 10.07885,1.85488 2.88331,0.0326 8.49917,-4.85176 3.68739,-5.42686 -8.32144,-0.64077 -16.54174,-2.59176 -24.92946,-2.24076 2.24876,-1.31595 7.47954,0.20695 5.6475,3.41762 -1.06152,1.23646 1.8536,-2.55986 2.57136,-3.3621 5.4192,-6.06573 12.40129,-11.75713 13.74943,-20.26908 0.67051,-4.55288 -0.23968,-9.58857 -3.12822,-13.23829 -3.11789,-2.74555 -8.08222,-1.82427 -11.15412,0.50784 -0.5906,1.46424 2.76611,1.66085 3.43018,2.60774 z" />
    <path
       id="path271"
       style="fill:#ff0000;stroke:#ff0000;stroke-width:1.00157;stroke-linecap:round"
       d="m 528.07837,190.96526 c 1.34892,8.45419 0.41767,17.02391 0.1234,25.51965 1.00578,2.47166 6.15715,2.04396 6.25407,-0.63309 -0.45908,-4.94762 -0.35748,-9.93304 -0.892,-14.88557 -0.45274,-3.06509 -0.30304,-6.23478 -0.72825,-9.21235 -1.05177,-1.99533 -3.12832,-0.72709 -4.75722,-0.78864 z" />
    <path
       id="path273"
       style="fill:#ff0000;stroke:#ff0000;stroke-width:1.00157;stroke-linecap:round"
       d="m 520.99181,223.92553 c 6.98521,-3.14517 14.6181,-4.45692 22.18587,-5.26844 2.32573,-2.85415 -2.6981,-5.21046 -5.11851,-5.05332 -4.47808,0.36698 -8.82385,1.77967 -13.07856,3.18115 -2.91759,1.01377 -5.80129,2.12355 -8.73176,3.1005 0.94536,1.98016 3.31582,2.52808 4.74296,4.04011 z" />
    <path
       id="path275"
       style="fill:#ff0000;stroke:#ff0000;stroke-width:1.00157;stroke-linecap:round"
       d="m 524.11413,199.28315 c 5.67796,-3.21635 12.23108,-4.72411 18.66823,-5.16579 3.2591,-2.92145 -2.60679,-5.58495 -5.12399,-6.27915 -2.93249,0.35856 -5.67683,1.66865 -8.5586,2.33571 -4.15409,1.23454 -8.30207,2.49869 -12.38079,3.96645 2.46505,1.71426 4.93012,3.42849 7.39515,5.14278 z" />
    <path
       id="path278"
       style="fill:#ff0000;stroke:#ff0000;stroke-width:1.00157;stroke-linecap:round"
       d="m 564.51332,188.40824 c 2.19629,6.74907 1.12601,13.92325 0.43999,20.81884 0.34478,2.88094 4.83503,3.31377 5.91519,0.67785 0.72775,-2.71488 0.0584,-5.60713 0.16437,-8.39654 -0.10247,-3.7598 -0.86208,-7.48272 -1.343,-11.17651 0.27427,-3.38432 -3.19312,-2.33072 -5.17655,-1.92364 z" />
    <path
       id="path280"
       style="fill:#ff0000;stroke:#ff0000;stroke-width:1.00157;stroke-linecap:round"
       d="m 562.66467,190.97461 c 6.07476,-1.45302 13.59407,-1.34414 18.18033,3.45818 2.80704,4.66628 -1.10795,9.83109 -4.62267,12.81682 -2.2012,3.3873 -9.29369,2.29284 -9.0878,6.95326 3.31061,4.70003 9.24542,2.21488 12.48592,-1.14454 5.50427,-4.08944 10.53638,-11.15987 8.27306,-18.29697 -2.71498,-6.56735 -10.67801,-8.28244 -17.07756,-8.33692 -3.48939,0.46554 -9.72893,-0.80132 -11.50145,1.60134 0.91375,1.20063 2.56744,1.63631 3.35017,2.94883 z" />
    <path
       id="path282"
       style="fill:#ff0000;stroke:#ff0000;stroke-width:1.00157;stroke-linecap:round"
       d="m 606.28913,191.65793 c 5.84578,5.51679 10.72751,12.18878 13.70253,19.67646 1.2605,2.84454 6.7583,2.26674 6.62013,-1.12888 -3.01969,-6.99634 -8.02738,-12.79827 -12.7546,-18.67052 -1.13847,-3.4986 -3.7101,-1.59328 -6.10755,-0.51193 -0.48684,0.21163 -0.97367,0.42325 -1.46051,0.63487 z" />
    <path
       id="path284"
       style="fill:#ff0000;stroke:#ff0000;stroke-width:1.00157;stroke-linecap:round"
       d="m 627.80512,181.64294 c -9.23574,9.71991 -19.99528,17.94656 -28.82954,28.02835 -1.53139,6.04852 7.86593,6.09567 9.4317,1.08377 4.62163,-6.46713 11.04521,-11.29951 16.14389,-17.36909 1.81905,-3.41363 8.79868,-6.31761 7.41901,-9.89029 -1.31641,-0.77434 -2.95016,-0.89722 -4.16506,-1.85274 z" />
    <path
       id="path286"
       style="fill:#ff0000;stroke:#ff0000;stroke-width:1.00157;stroke-linecap:round"
       d="m 696.47658,181.39455 c -5.66317,4.25854 -11.43836,10.07523 -11.24852,17.7 -0.39599,6.55757 3.71717,14.47433 11.02669,14.59809 10.41749,0.73116 21.17473,-7.53354 21.36533,-18.3589 0.3536,-6.7087 -4.78179,-14.75387 -12.20153,-13.98602 -5.05612,-1.54643 -8.0454,8.56317 -2.26935,7.15705 3.45871,-0.73854 3.77821,-2.91652 3.047,-1.90491 6.46994,2.78486 6.28939,11.96281 2.23828,16.75419 -3.32417,3.69359 -9.02035,8.34559 -14.05033,5.37201 -3.93593,-2.01517 -4.68163,-7.14135 -4.42992,-11.15233 0.51241,-5.59577 4.55443,-10.21464 9.40577,-12.69763 2.38859,-1.74098 -2.08348,-2.35978 -2.88342,-3.48155 z" />
    <path
       id="path288"
       style="fill:#ff0000;stroke:#ff0000;stroke-width:1.00157;stroke-linecap:round"
       d="m 738.34726,199.56742 c 8.21459,-0.82161 16.58356,-0.84072 24.75299,0.43301 2.56044,-0.11551 7.57431,-5.7506 2.75929,-5.32017 -9.82077,0.52548 -19.65927,-0.13534 -29.48702,-0.15447 -5.32143,-0.91962 1.56337,3.71668 1.97474,5.04163 z" />
    <path
       id="path291"
       style="fill:#ff0000;stroke:#ff0000;stroke-width:1.00157;stroke-linecap:round"
       d="m 760.8385,187.60527 c 6.45124,2.88287 13.22528,5.08032 19.37794,8.60315 -3.91632,0.50217 -6.94462,3.97286 -10.88015,4.97353 -3.14327,1.54792 -10.90246,3.80564 -8.16838,7.83019 3.79109,0.24008 7.40351,-0.70195 10.54806,-2.80088 4.88118,-2.37134 10.08518,-4.55369 13.9334,-8.49836 2.60807,-4.18399 -3.28709,-6.09899 -6.4413,-6.45147 -4.66214,-1.39568 -9.30244,-3.13122 -13.30978,-5.9484 -2.06839,-0.58178 -3.4133,1.51504 -5.05979,2.29224 z" />
    <path
       id="path293"
       style="fill:#ff0000;stroke:#ff0000;stroke-width:1.00157;stroke-linecap:round"
       d="m 803.23615,182.86454 c 1.0073,-0.7898 5.46614,-1.42823 4.58266,-0.86424 -0.87659,-0.0761 4.68332,0.55476 3.58805,3.1889 -0.43656,3.43673 -3.76919,5.7305 -6.76094,6.93322 -3.9104,-0.0212 -4.24088,6.32305 -0.21003,5.98975 4.53839,-0.0728 9.66001,0.57512 13.13913,3.69832 0.20574,3.41028 -3.78491,5.40372 -6.32525,6.98176 -4.33845,2.28341 -9.14724,3.39579 -13.72949,5.06154 -2.62269,2.9498 3.14621,5.32005 5.61689,4.70833 7.83831,-1.67036 15.49491,-5.71982 20.43289,-12.15953 2.99217,-3.15373 0.99364,-8.58531 -2.98346,-9.76117 -4.03008,-1.86665 -8.43221,-2.64779 -12.66564,-3.90325 0.42262,1.9375 -0.22045,6.51102 2.44193,3.47784 4.19844,-2.90281 8.41595,-8.19817 6.51103,-13.57246 -2.11351,-3.92934 -7.30459,-4.36125 -11.28802,-3.94892 -2.15429,0.27011 -8.45404,0.57371 -3.76286,3.02831 0.49094,0.3516 1.05031,0.64054 1.41311,1.1416 z" />
    <path
       id="path297"
       style="fill:#000000;stroke:#000000;stroke-width:1.00157;stroke-linecap:round"
       d="m 706.09403,521.26811 c -15.52599,28.82285 -28.80898,-19.19164 -26.49296,-34.56048 -0.64849,-45.42967 -8.15778,-90.70365 -4.22021,-136.17404 -2.67737,-36.38377 -4.85076,-72.91177 -1.5573,-109.31398 1.84444,-27.94747 -3.75041,-64.94295 -34.90314,-74.19293 -38.61004,-13.67466 -80.50164,-4.1645 -119.27762,3.7348 -43.39449,16.53946 -72.44302,55.22825 -108.10279,83.1852 -9.87001,17.64784 23.97199,-13.47932 29.92047,-19.40412 33.75401,-33.26942 73.6871,-67.87014 124.01299,-67.23989 30.12471,-3.34208 66.00734,-6.34961 89.23633,17.26323 26.01267,44.52726 6.91666,97.74763 13.90794,146.01863 2.99922,38.29978 -0.12654,77.139 3.68404,115.56344 3.32587,27.47474 2.30898,56.44782 12.14495,82.54963 4.83997,12.24146 29.01023,6.50827 21.6473,-7.42949 z" />
    <path
       id="path299"
       style="fill:#000000;stroke:#000000;stroke-width:1.00157;stroke-linecap:round"
       d="m 401.80565,241.16693 c -5.19854,9.47079 -11.50709,18.402 -19.24067,25.97917 2.54905,6.83751 11.74203,1.96969 17.17698,4.0115 9.43674,0.34162 18.88746,1.72777 28.3045,1.57318 4.64056,-3.37465 -6.60093,-2.43026 -8.71331,-2.65521 -10.89188,0.0284 -21.83441,-0.88196 -32.45953,-3.35019 1.95187,1.33795 3.37967,-6.47799 5.59733,-8.37399 3.35971,-5.61196 7.13382,-11.00131 11.55703,-15.83113 0.14094,-1.2334 -1.57662,-0.84184 -2.22233,-1.35333 z" />
  </g>
</svg>
