<?xml version="1.0" encoding="UTF-8" standalone="no"?>
<svg
   xmlns:dc="http://purl.org/dc/elements/1.1/"
   xmlns:cc="http://creativecommons.org/ns#"
   xmlns:rdf="http://www.w3.org/1999/02/22-rdf-syntax-ns#"
   xmlns:svg="http://www.w3.org/2000/svg"
   xmlns="http://www.w3.org/2000/svg"
   xmlns:sodipodi="http://sodipodi.sourceforge.net/DTD/sodipodi-0.dtd"
   xmlns:inkscape="http://www.inkscape.org/namespaces/inkscape"
   width="1200"
   height="600"
   id="svg2"
   sodipodi:version="0.32"
   inkscape:version="1.0.1 (3bc2e813f5, 2020-09-07)"
   sodipodi:docname="np-agg-axis-0.svg"
   version="1.0">
  <defs
     id="defs80" />
  <sodipodi:namedview
     id="base"
     pagecolor="#ffffff"
     bordercolor="#666666"
     borderopacity="1.0"
     inkscape:pageopacity="0.0"
     inkscape:pageshadow="2"
     inkscape:zoom="1.4142136"
     inkscape:cx="620.65259"
     inkscape:cy="294.13314"
     inkscape:document-units="mm"
     inkscape:current-layer="layer1"
     inkscape:window-width="1920"
     inkscape:window-height="1061"
     inkscape:window-x="0"
     inkscape:window-y="19"
     width="12.8cm"
     height="9.6cm"
     units="cm"
     showgrid="false"
     grid_units="mm"
     inkscape:object-paths="true"
     inkscape:grid-points="true"
     inkscape:grid-bbox="true"
     inkscape:guide-points="true"
     showguides="false"
     inkscape:guide-bbox="true"
     inkscape:window-maximized="0"
     inkscape:snap-text-baseline="true"
     inkscape:snap-object-midpoints="false"
     inkscape:snap-grids="true"
     inkscape:snap-center="false"
     inkscape:snap-to-guides="false"
     inkscape:snap-midpoints="true"
     inkscape:snap-smooth-nodes="true"
     inkscape:document-rotation="0"
     inkscape:snap-global="false">
    <inkscape:grid
       id="GridFromPre046Settings"
       type="xygrid"
       originx="0px"
       originy="0px"
       spacingx="2mm"
       spacingy="2mm"
       color="#3f3fff"
       empcolor="#3f3fff"
       opacity="0.15"
       empopacity="0.38"
       empspacing="5" />
  </sodipodi:namedview>
  <metadata
     id="metadata7">
    <rdf:RDF>
      <cc:Work
         rdf:about="">
        <dc:format>image/svg+xml</dc:format>
        <dc:type
           rdf:resource="http://purl.org/dc/dcmitype/StillImage" />
        <dc:title />
      </cc:Work>
    </rdf:RDF>
  </metadata>
  <g
     inkscape:label="Layer 1"
     inkscape:groupmode="layer"
     id="layer1"
     transform="translate(0,-84.157471)">
    <path
       id="path77"
       style="fill:#ffaaaa;stroke:#ffaaaa;stroke-width:1px;stroke-linecap:butt;stroke-linejoin:miter;stroke-opacity:1"
       d="m 50.228522,404.86368 c 8.98588,22.73838 6.77749,47.5923 6.99281,71.49664 -0.0412,11.5549 -3.19866,22.71581 -4.99135,34.03591 -4.06114,4.83313 -5.1053,13.34568 3.97491,10.29921 8.573,-3.07883 16.70749,-7.91162 26.06367,-8.44546 18.332248,-2.76966 35.944168,7.73066 54.279188,3.72424 9.45221,-2.63063 19.56367,-2.56495 28.83783,-0.0245 6.49415,-4.87754 -5.10496,-14.60092 -0.60815,-22.05034 2.20691,-10.4719 3.71771,-21.10494 2.42919,-31.8107 -1.18936,-12.37007 -1.47369,-24.81937 -2.54494,-37.17651 -3.07557,-8.46194 -1.36721,-17.28659 -2.7403,-25.60868 -6.84552,-3.31077 -15.57474,-0.50456 -23.18861,-0.47343 -12.95268,1.32429 -25.98236,1.22867 -38.864216,3.32303 -14.629442,-0.005 -29.048252,3.52416 -43.698502,2.60124 -1.98083,0.0145 -3.9615,0.051 -5.94153,0.10939 z" />
    <path
       id="path91"
       style="fill:#ffaaaa;stroke:#ffaaaa;stroke-width:1px;stroke-linecap:butt;stroke-linejoin:miter;stroke-opacity:1"
       d="m 170.44787,398.50666 c 6.51459,35.60451 7.42111,72.25827 2.05562,108.06522 1.59769,14.33656 18.96073,10.6921 27.93433,6.30779 17.32105,-3.6308 35.16213,-3.53595 52.71018,-2.11645 8.14572,-3.5482 21.03048,-2.48243 26.45759,-3.31467 6.04638,-22.46713 7.60834,-46.35498 1.41162,-68.97492 -1.27616,-10.0415 -8.16753,-19.62433 -5.14432,-29.88333 3.07869,-7.94559 -0.55208,-12.03987 -7.15125,-6.19559 -11.89738,5.66159 -25.22095,0.72987 -37.7603,1.04966 -20.22504,-1.11699 -41.73658,5.7212 -60.51347,-4.93771 z" />
    <path
       id="path100"
       style="fill:#ffaaaa;stroke:#ffaaaa;stroke-width:1px;stroke-linecap:butt;stroke-linejoin:miter;stroke-opacity:1"
       d="m 293.40629,400.31931 c -6.34959,4.84103 -10.33054,13.20062 -6.81689,20.9804 3.33952,9.58081 5.97878,19.38143 6.44192,29.56451 1.16058,14.27858 4.01108,28.89144 -0.059,42.9776 -2.2749,6.58615 -1.4986,17.62735 7.67373,17.5212 15.47072,-4.38087 30.19807,6.10164 45.73589,3.5767 10.92817,-1.08873 21.99139,-1.44033 32.80584,0.72822 6.6282,0.12317 17.66145,-1.92373 16.57184,-10.69535 -1.51244,-9.60412 -0.67482,-19.3478 -0.88925,-29.04581 -0.0632,-11.53481 5.11311,-22.3509 4.47411,-33.95466 -0.20386,-8.98597 0.0852,-18.08166 -0.73885,-26.99681 -3.4935,-9.34529 -15.08066,-9.37906 -23.3328,-10.91888 -25.61818,-2.26877 -51.58978,2.10002 -77.04531,-2.8037 -1.61242,-0.28263 -3.22001,-0.59326 -4.82123,-0.93342 z" />
    <path
       id="path108"
       style="fill:#ffaaaa;stroke:#ffaaaa;stroke-width:1px;stroke-linecap:butt;stroke-linejoin:miter;stroke-opacity:1"
       d="m 408.294,407.34847 c 0.0482,14.43587 0.99946,29.00564 -1.73394,43.27586 -1.48188,19.09441 2.22431,39.22136 -5.9252,57.26943 -1.17109,7.56755 7.90176,10.46274 13.9102,9.30202 15.09609,-2.70763 30.54593,-1.19701 45.80723,-1.70693 16.55843,-0.13171 33.20888,-0.71978 49.51155,-3.84808 0.33626,-11.62733 -7.14172,-22.13016 -5.03395,-33.99485 -0.11486,-15.78341 2.8802,-31.34999 4.0737,-47.04456 6.04332,-9.54922 -0.70717,-24.20291 -12.41362,-24.38948 -22.19552,-0.35267 -44.34905,2.49172 -66.56089,2.41458 -7.1954,0.50942 -14.75366,1.53066 -21.63508,-1.27799 z" />
    <path
       id="path117"
       style="fill:#ffaaaa;stroke:#ffaaaa;stroke-width:1px;stroke-linecap:butt;stroke-linejoin:miter;stroke-opacity:1"
       d="m 521.90936,410.04755 c 3.59072,13.50846 0.28464,27.40143 -2.86924,40.61686 -2.7822,14.69553 -2.34931,30.03141 1.86173,44.40548 1.98504,5.61916 -4.84152,17.01327 4.83488,16.18968 15.16985,0.64599 30.43533,2.92222 45.58423,0.43468 12.04105,-1.04535 23.27166,-7.04707 35.46686,-6.5357 7.1627,4.20011 14.988,-1.27131 10.4791,-9.28166 -4.1546,-21.06397 -7.233,-42.40099 -8.2701,-63.85432 -1.1704,-7.51784 2.2326,-14.84506 1.3103,-22.16988 -4.3896,-4.87263 -12.84349,-4.68875 -19.19364,-5.84169 -16.56545,0.30018 -32.22009,7.8685 -48.93626,6.4411 -6.75593,-0.12797 -13.50838,-0.57763 -20.26786,-0.40455 z" />
    <path
       id="path123"
       style="fill:#ffaaaa;stroke:#ffaaaa;stroke-width:1px;stroke-linecap:butt;stroke-linejoin:miter;stroke-opacity:1"
       d="m 51.811802,280.01423 c 2.15235,11.47175 7.67289,22.31444 6.53835,34.29499 0.95814,22.2453 -2.44538,44.38109 -2.72649,66.56762 -3.21671,5.20024 -3.88157,15.56429 4.6567,8.96294 9.71607,-8.05828 22.83858,-2.67745 34.247252,-5.18968 19.268036,-1.94242 39.115996,-4.15648 57.952126,1.79435 14.19851,7.27411 18.31084,-12.17602 10.18722,-20.66408 -4.18263,-14.1411 -1.90328,-29.16736 -3.47528,-43.68817 -0.93029,-13.97557 0.0303,-28.03319 1.26301,-41.87841 -3.3263,-14.74607 -19.08793,-6.37086 -28.75039,-5.08625 -22.31134,3.44923 -45.098526,4.26371 -67.508898,1.47446 -4.33333,-0.0492 -8.80259,0.85381 -12.3836,3.41223 z" />
    <path
       id="path132"
       style="fill:#ffaaaa;stroke:#ffaaaa;stroke-width:1px;stroke-linecap:butt;stroke-linejoin:miter;stroke-opacity:1"
       d="m 171.66321,277.22887 c -6.30159,29.45209 -4.44223,60.1723 2.87923,89.2525 4.17752,7.12009 -4.48542,16.36682 0.004,21.53752 18.26952,-0.73992 36.54666,-3.27102 54.88256,-3.63847 13.5384,-0.49136 26.69482,2.99961 39.80359,5.77876 11.97759,3.66164 11.47906,-10.36607 8.57564,-17.7202 -6.22734,-20.57674 -1.71007,-42.09341 -1.63906,-63.10087 -1.94279,-11.31876 -4.68809,-22.69263 -6.5128,-33.85682 -5.31798,-8.64644 -16.4299,-5.69079 -24.85437,-5.59084 -12.53811,0.2102 -24.64064,3.53447 -36.95119,5.42564 -9.16772,0.9944 -18.23065,4.30698 -27.57845,2.57378 -2.86833,-0.23785 -5.73363,-0.52519 -8.6094,-0.661 z" />
    <path
       id="path140"
       style="fill:#ffaaaa;stroke:#ffaaaa;stroke-width:1px;stroke-linecap:butt;stroke-linejoin:miter;stroke-opacity:1"
       d="m 288.17941,279.22996 c 4.51132,21.94128 -10.48316,42.61863 -5.65919,64.64511 1.82345,13.61886 5.63031,27.23848 3.60268,41.0557 0.18496,16.22762 18.79258,7.30694 28.19057,6.09228 16.45169,-1.43888 33.27889,-2.93336 49.42102,1.55098 11.19952,-1.80654 27.94161,9.07315 35.02768,-1.07455 0.65052,-10.66256 -1.00727,-21.4554 -1.40098,-32.19159 -3.3574,-19.23799 -6.93254,-38.47001 -7.55316,-58.05394 -0.36118,-10.44844 -0.4705,-27.74029 -15.41144,-26.01271 -18.22672,0.29955 -35.1792,8.25456 -53.19646,9.74856 -11.30691,-0.0935 -21.62366,-6.55699 -33.02072,-5.75984 z" />
    <path
       id="path149"
       style="fill:#ffaaaa;stroke:#ffaaaa;stroke-width:1px;stroke-linecap:butt;stroke-linejoin:miter;stroke-opacity:1"
       d="m 401.689,276.84157 c 0.37048,16.43157 -0.0787,33.04696 3.83725,49.13076 2.11048,17.55039 2.20508,35.32602 3.17608,52.91581 -2.09464,6.68634 -8.48118,20.4067 4.29532,15.73739 19.00902,0.67397 38.02072,0.0554 57.03399,-0.3796 9.83671,0.62505 19.44937,0.49941 29.24914,1.24855 12.86417,-0.881 -0.13579,-14.54704 4.2625,-22.02974 4.14469,-16.88755 7.19897,-34.37158 6.98667,-51.79986 -2.89951,-13.96369 -5.07414,-29.24043 -12.50274,-41.46571 -8.01372,-9.40306 -19.21274,-1.96096 -28.84039,-0.71096 -18.91246,2.91725 -37.9771,-0.26319 -56.62301,-3.34143 -3.63183,-0.26879 -7.31763,-0.13223 -10.87481,0.69479 z" />
    <path
       id="path158"
       style="fill:#ffaaaa;stroke:#ffaaaa;stroke-width:1px;stroke-linecap:butt;stroke-linejoin:miter;stroke-opacity:1"
       d="m 524.74634,283.48036 c 6.49543,20.13547 0.56198,41.11435 -4.15248,60.89118 -2.96927,16.08661 -3.75204,32.79698 -0.30842,48.8762 8.08844,6.02949 19.66755,1.5889 29.12606,4.23196 17.91902,0.39187 35.80164,-6.30174 53.59762,-1.42672 16.1257,1.06934 7.6854,-19.79467 7.9487,-29.19632 -2.2331,-23.07302 -4.0364,-46.68219 1.4254,-69.4546 3.2592,-9.55796 -3.6029,-19.97798 -14.1573,-17.91484 -21.42132,1.84879 -42.90415,6.56249 -64.44968,3.35245 -3.01977,-0.1014 -6.06457,0.0242 -9.0299,0.64069 z" />
    <path
       id="path171"
       style="fill:#ffaaaa;stroke:#ffaaaa;stroke-width:1px;stroke-linecap:butt;stroke-linejoin:miter;stroke-opacity:1"
       d="m 49.945462,164.80384 c 7.80828,18.57628 4.33792,39.16582 7.23169,58.64556 1.22192,12.63412 1.39479,25.69928 -2.82391,37.83967 0.664,9.30098 11.57772,1.20642 16.63971,0.71506 12.84196,-2.17023 25.961722,-1.78931 38.824078,-3.92415 13.20428,-1.18238 26.68361,-2.82474 39.85485,-0.8742 6.09721,3.63447 10.5592,-0.73076 8.13161,-7.23674 -1.06497,-15.34095 -3.50709,-30.59169 -3.13799,-46.0132 -0.0673,-8.54888 -1.59882,-17.05925 -2.84182,-25.41601 0.87273,-8.11525 -6.57812,-13.68636 -11.9392,-18.18677 -8.97616,-1.27688 -17.85222,3.17242 -26.73607,4.4218 -11.87287,2.99131 -24.184766,3.2623 -36.256608,1.43862 -9.01375,-0.0974 -18.09279,-4.95051 -26.94634,-1.40964 z" />
    <path
       id="path179"
       style="fill:#ffaaaa;stroke:#ffaaaa;stroke-width:1px;stroke-linecap:butt;stroke-linejoin:miter;stroke-opacity:1"
       d="m 161.9871,166.88149 c 5.44305,20.74553 2.01807,42.59045 6.95913,63.43832 0.93102,13.95639 -4.25463,27.33344 -7.17601,40.69304 6.15968,4.70622 17.53114,-1.44627 25.60646,-1.27733 14.80902,-4.23847 30.25909,-1.30962 45.27247,-3.22032 9.96183,-4.25984 20.35851,0.42491 29.78643,-0.1434 6.31798,-9.77742 -3.29156,-21.10088 -2.46895,-31.74718 -1.89096,-17.72222 -2.19546,-35.67315 -1.52427,-53.44382 2.2065,-7.75044 6.00695,-20.93623 -5.46873,-22.99159 -11.99178,-1.12482 -24.08405,1.1723 -36.1455,0.39735 -12.52255,-0.38859 -24.9843,1.84782 -36.45621,6.86838 -5.9602,1.66918 -12.23967,2.05666 -18.38482,1.42655 z" />
    <path
       id="path188"
       style="fill:#ffaaaa;stroke:#ffaaaa;stroke-width:1px;stroke-linecap:butt;stroke-linejoin:miter;stroke-opacity:1"
       d="m 279.41115,260.34312 c 10.96661,13.80306 30.59029,15.18806 46.52393,11.03967 13.62161,-2.06492 27.45506,-2.34922 40.8641,-5.68284 9.5761,2.03085 20.1163,0.32023 15.14481,-12.19864 -0.43577,-26.33055 -2.92038,-52.7129 -3.23725,-79.0485 4.17868,-8.91211 0.46025,-21.90421 -11.58155,-18.84267 -18.22272,3.92304 -36.84883,-0.51152 -55.28652,0.4645 -14.17652,-0.77033 -27.79554,5.11417 -41.78266,3.18967 -4.36046,11.5397 6.67706,25.7045 3.07218,38.68525 -2.598,13.52875 -5.46562,28.32855 1.72268,41.01296 2.38798,6.90369 3.95376,14.09829 4.56028,21.3806 z" />
    <path
       id="path197"
       style="fill:#ffaaaa;stroke:#ffaaaa;stroke-width:1px;stroke-linecap:butt;stroke-linejoin:miter;stroke-opacity:1"
       d="m 398.06852,256.40552 c 18.50931,5.80167 35.86264,17.10462 55.96186,16.17252 11.72367,0.16745 23.49365,0.0863 35.13977,1.45088 12.05031,-2.87002 7.63057,-18.54299 10.02143,-27.54828 -1.27119,-22.0151 -3.90487,-44.07786 -3.0449,-66.17861 3.29854,-9.15645 5.52373,-26.44549 -9.52966,-23.29418 -14.38259,-1.16612 -28.68042,-2.94907 -43.16118,-2.28131 -16.08645,-0.30116 -32.40985,1.37762 -48.34073,0.32681 -13.74262,1.42943 2.28918,17.56887 -0.41935,26.41946 0.71623,17.75428 -1.26738,35.60701 1.81131,53.25058 0.80939,7.20107 1.58294,14.42621 1.56145,21.68213 z" />
    <path
       id="path206"
       style="fill:#ffaaaa;stroke:#ffaaaa;stroke-width:1px;stroke-linecap:butt;stroke-linejoin:miter;stroke-opacity:1"
       d="m 514.9581,169.83919 c -4.13029,18.82243 -10.75735,38.28505 -5.42045,57.60851 1.11432,13.13709 5.3826,26.59653 2.68153,39.68616 -1.1671,14.14892 18.54127,2.07785 26.64248,3.96883 16.77692,-1.34181 33.65294,-2.05401 50.37252,-3.6649 8.19912,1.42044 23.99874,9.40984 24.71044,-4.75388 -1.1695,-12.126 -3.6319,-24.19952 -3.3977,-36.48547 -0.048,-15.06544 -0.6381,-30.19745 -1.2102,-45.1888 5.4553,-10.53008 -4.2151,-17.54889 -14.25656,-16.36871 -14.43827,-0.15363 -28.73,2.84659 -43.20884,2.17067 -12.34565,0.18721 -24.78284,0.50365 -36.91322,3.02759 z" />
    <path
       id="path321"
       style="fill:#666666;stroke:#666666;stroke-width:1.00157;stroke-linecap:round"
       d="m 97.264354,193.60328 c -4.68405,4.32959 -8.09805,10.05703 -8.81845,16.46556 -1.36885,9.08744 0.99517,19.71515 8.69026,25.42932 4.332196,3.04051 10.427906,4.73091 15.409496,2.39861 4.41527,-3.11606 6.71053,-8.4742 8.1016,-13.54215 1.07706,-5.35649 1.29769,-10.99971 0.30191,-16.37139 -1.64221,-5.50768 -6.01236,-10.24818 -11.32838,-12.35703 -4.45698,-2.91498 -10.835106,5.08078 -4.03881,5.71408 2.27867,0.25718 4.94077,-2.58163 1.00344,-1.7776 1.94803,0.74281 6.34228,3.37255 7.7407,6.45883 3.83464,6.67579 2.34924,14.96738 -0.43018,21.73976 -1.44642,3.06909 -3.40373,6.36944 -7.02298,7.05808 2.0899,0.17237 -4.82579,-0.71901 -5.66488,-2.35275 -7.533336,-5.39081 -8.689626,-15.93753 -6.563156,-24.32793 1.08881,-4.62148 4.10708,-8.54049 7.978866,-11.20173 0.27696,-1.78386 -4.102736,-2.11752 -5.359436,-3.33366 z" />
    <path
       id="path323"
       style="fill:#666666;stroke:#666666;stroke-width:1.00157;stroke-linecap:round"
       d="m 203.9667,209.33737 c 4.87605,-4.15901 8.62429,-9.41945 11.51817,-15.10443 0.68557,-2.54949 6.87056,-8.50708 1.23245,-7.58589 -4.4686,2.01043 -2.09951,9.06432 -3.33611,13.23407 -0.7237,11.29714 -0.13908,22.62606 1.26711,33.84646 -0.33073,2.78107 0.63922,8.831 3.43222,5.17526 4.04549,2.43633 3.42294,-2.60247 2.14637,-4.82346 -1.85306,-9.15976 -2.58665,-18.5259 -3.10324,-27.84423 -0.0814,-6.03175 -0.0148,-12.27879 1.80598,-18.04024 -1.29642,-1.48523 -5.1869,-1.93505 -4.21747,1.30198 -1.56875,7.12289 -6.21307,13.25877 -11.88851,17.6594 -1.80771,1.58566 0.17955,1.33876 1.14303,2.18108 z" />
    <path
       id="path325"
       style="fill:#666666;stroke:#666666;stroke-width:1.00157;stroke-linecap:round"
       d="m 318.65619,198.02783 c 3.33539,-2.90815 9.22953,-5.89607 13.24095,-2.65952 3.3638,4.35172 2.12244,10.53132 0.52766,15.3616 -5.03928,12.24009 -14.94519,22.12655 -26.45912,28.44597 -1.28932,4.25514 6.99908,4.5532 9.53709,2.49931 9.35174,-3.14011 19.31725,-4.11348 29.12592,-3.91979 1.89915,-2.26064 -5.00718,-6.8127 -8.08096,-4.23958 -8.68501,1.53481 -17.52314,2.38574 -26.01352,4.85106 -4.06608,0.10058 -2.78491,1.55727 -0.0188,2.49528 2.67531,3.60278 6.66178,-3.67674 9.40476,-5.10424 7.9275,-8.20136 16.12219,-17.39938 18.2867,-28.96789 0.55001,-5.04984 0.66677,-11.86449 -4.47396,-14.65284 -6.24816,-2.37513 -12.76266,0.94172 -17.94688,4.3229 0.95673,0.52258 1.91348,1.04511 2.87018,1.56774 z" />
    <path
       id="path327"
       style="fill:#666666;stroke:#666666;stroke-width:1.00157;stroke-linecap:round"
       d="m 439.29456,194.02142 c 3.59606,-4.07977 10.53075,0.48816 9.50474,5.36704 -0.33947,4.89942 -5.49912,6.67608 -8.51521,9.08557 0.95485,1.69624 5.9729,4.14382 5.75087,3.75567 -3.79719,-0.16457 4.02711,0.14327 4.87366,1.44718 5.04435,2.23173 8.33999,8.86723 4.95418,13.81819 -4.23194,5.91555 -11.03545,9.37891 -17.5555,12.23837 -2.46741,1.2438 -9.72971,1.61514 -5.96889,5.60583 5.11777,4.10023 10.46668,-1.66219 15.03258,-3.82944 5.46754,-3.64647 11.6569,-7.16947 15.00096,-13.0594 3.20667,-6.48421 -0.36742,-14.82427 -6.67932,-17.92562 -3.81892,-2.67022 -10.0064,-4.24655 -14.0114,-2.62405 1.5841,5.52048 6.67072,4.47031 8.96494,0.1657 4.47317,-4.91788 4.49269,-14.36272 -2.24876,-17.32916 -3.40841,-1.75734 -10.10595,-1.33048 -11.43684,2.11266 0.68847,0.58279 1.65749,0.57129 2.33399,1.17146 z" />
    <path
       id="path329"
       style="fill:#666666;stroke:#666666;stroke-width:1.00157;stroke-linecap:round"
       d="m 555.84006,188.65936 c -3.11743,6.12956 -7.08219,11.78365 -10.86489,17.51094 -1.93007,2.84019 -4.32061,5.44567 -5.82798,8.52637 0.66474,4.08043 6.35406,1.83794 9.19058,1.65859 9.47478,-1.93274 19.22123,-2.62588 28.87948,-2.13353 -1.77581,-1.79667 -3.14553,-5.465 -6.3322,-4.18673 -8.87734,1.07114 -17.61058,3.30934 -26.56128,3.71458 -2.34035,0.37681 -1.30501,-0.82114 -0.15966,0.40422 -0.33587,2.20199 1.68673,-2.64033 2.30161,-3.22283 3.85473,-6.46799 7.60862,-13.00628 11.34177,-19.53672 2.36374,-2.38457 -0.28427,-2.13615 -1.96743,-2.73489 z" />
    <path
       id="path331"
       style="fill:#666666;stroke:#666666;stroke-width:1.00157;stroke-linecap:round"
       d="m 566.53301,202.44194 c 0.5091,7.93961 -0.4099,15.88054 -0.38955,23.82471 -0.12322,5.09275 -0.50386,10.18389 -0.81238,15.25998 0.16252,3.46248 4.64232,3.62893 4.99211,0.0959 0.42833,-3.51167 0.18593,-7.0893 0.29489,-10.63044 0.0613,-8.85215 -0.46726,-17.6998 -0.40828,-26.54851 0.93577,-3.27176 -1.62866,-1.60504 -3.67679,-2.00166 z" />
    <path
       id="path339"
       style="fill:#ffaaaa;fill-opacity:1;stroke:#ffaaaa;stroke-width:1px;stroke-linecap:butt;stroke-linejoin:miter;stroke-opacity:1"
       d="m 628.82152,166.31487 c -2.2533,22.39331 -4.7915,44.89792 -3.9849,67.43135 1.0959,9.6632 3.48,19.7087 -0.1357,29.1585 -2.9541,8.10004 6.5021,10.16824 11.9368,6.42727 19.4256,-3.72324 39.0971,1.48345 58.6194,0.78051 6.6207,3.25301 14.4537,0.41429 12.8062,-7.94712 2.4742,-17.05003 5.4801,-34.03649 10.2288,-50.61491 2.1323,-7.06862 2.5397,-15.05732 -2.2351,-21.1906 -5.8462,-4.84413 1.6821,-13.40965 -4.4051,-17.81551 -15.4951,-6.33754 -32.5758,-1.19263 -48.4791,-5.4148 -9.09,-2.57416 -18.7011,-2.48879 -27.8466,-0.30374 -2.1721,0.2233 -4.4111,0.1642 -6.5047,-0.51095 z" />
    <path
       id="path347"
       style="fill:#ffaaaa;fill-opacity:1;stroke:#ffaaaa;stroke-width:1px;stroke-linecap:butt;stroke-linejoin:miter;stroke-opacity:1"
       d="m 625.05512,283.2535 c 1.5529,14.52783 -4.5595,28.52395 -3.5752,43.05878 0.048,18.48277 0.3995,36.95431 1.7712,55.39043 -2.0845,5.57053 -4.0358,15.01619 5.5976,11.94652 17.9088,0.0799 35.8528,2.49634 53.7183,0.0803 10.2372,-1.10003 20.5571,-1.26554 30.802,-0.36928 10.5223,0.72094 10.1504,-10.05612 8.7332,-17.37047 -0.1006,-13.44001 0.203,-26.97832 -2.7008,-40.1858 -1.6995,-10.9003 1.2019,-21.64595 4.1021,-32.04963 2.1468,-6.51012 2.0084,-17.38447 -7.4469,-16.72905 -9.9473,-1.0874 -19.8828,-2.77549 -29.9553,-2.52837 -17.497,-0.36479 -35.2527,2.09011 -52.4768,-1.98991 -2.8586,-0.33626 -5.9044,-0.60824 -8.5694,0.74651 z" />
    <path
       id="path355"
       style="fill:#ffaaaa;fill-opacity:1;stroke:#ffaaaa;stroke-width:1px;stroke-linecap:butt;stroke-linejoin:miter;stroke-opacity:1"
       d="m 624.85582,406.30143 c -7.6407,14.80682 -5.9199,32.21226 -1.4184,47.67913 2.9833,13.1927 5.5507,26.63182 5.7844,40.17906 -2.6172,6.20227 -1.7559,14.63264 7.1858,12.03135 16.175,0.31051 30.9291,-8.00585 46.9987,-8.86248 12.6639,-1.40569 25.4468,-2.2402 38.176,-2.0312 8.4047,-3.84376 -0.9624,-13.48814 0.1065,-20.26533 -1.7159,-11.2887 2.0868,-22.19346 3.6556,-33.22013 0.8307,-9.26522 1.447,-19.13243 -1.87,-27.96271 -4.5243,-8.14288 -14.8113,-8.06723 -22.8763,-7.1762 -15.754,0.58248 -31.3637,3.66108 -47.1287,3.57365 -9.7446,-0.0298 -18.8323,-5.01557 -28.6136,-3.94514 z" />
    <path
       id="path369"
       style="fill:#666666;fill-opacity:1;stroke:#666666;stroke-width:1.00157;stroke-linecap:round;stroke-opacity:1"
       d="m 685.54982,193.14383 c -6.8811,-0.0905 -13.7311,-0.82894 -20.6044,-1.09801 -2.6686,-1.52963 -6.1795,0.38317 -6.523,3.40192 -0.077,2.84854 -1.4533,5.40154 -1.5751,8.21679 -0.2791,3.42299 3.6078,3.54284 5.9879,2.83333 7.8343,-0.36814 14.8524,5.85738 17.1384,13.08668 1.2502,5.46771 -2.8069,10.25702 -6.5897,13.65245 -3.964,3.78292 -8.8781,6.28241 -13.5427,9.03051 -2.232,0.93267 -4.4915,4.00151 -0.5741,2.57125 7.1985,-1.46072 13.3541,-6.02974 18.4579,-11.11774 3.5904,-3.77499 7.1043,-9.12911 5.2653,-14.53767 -1.9008,-5.93466 -6.5966,-10.64445 -11.7992,-13.8512 -3.0918,-1.50286 -6.6964,-1.8326 -10.0752,-1.34391 0.4987,-2.60497 1.3733,-7.88131 1.5825,-8.53916 6.7163,-0.21628 13.48,-0.31538 20.1438,0.68938 0.9025,-0.99821 1.8052,-1.99649 2.7076,-2.99462 z" />
    <path
       id="path371"
       style="fill:#666666;fill-opacity:1;stroke:#666666;stroke-width:1.00157;stroke-linecap:round;stroke-opacity:1"
       d="m 107.81567,306.69589 c -5.88235,2.26234 -10.969926,6.46922 -13.680306,12.2273 -4.37205,8.46667 -5.95104,18.60785 -3.85445,27.93522 1.74584,6.36186 4.86807,12.57204 9.62317,17.19765 4.779566,3.88965 13.060736,3.01207 15.878606,-2.8553 3.23034,-6.59865 2.1949,-14.93917 -1.47459,-21.15467 -3.77485,-6.00555 -14.18946,-6.71063 -18.028906,-0.46949 -0.82279,6.93088 8.873496,-1.93919 8.108986,-0.56801 6.0605,0.24752 9.0328,6.82543 9.27507,12.16337 1.39399,5.14271 -3.51816,11.47725 -6.7614,12.17847 -4.9871,-0.0899 -8.359336,-4.82524 -10.580816,-8.83893 -6.39115,-12.54743 -3.39578,-28.48599 5.039466,-39.34698 2.09549,-3.15991 7.87408,-4.52998 9.48974,-6.07832 -1.01152,-0.79677 -2.02313,-1.59346 -3.03457,-2.39031 z" />
    <path
       id="path373"
       style="fill:#666666;fill-opacity:1;stroke:#666666;stroke-width:1.00157;stroke-linecap:round;stroke-opacity:1"
       d="m 203.93163,304.76045 c 14.42175,-0.28504 29.38732,-0.3304 42.89099,-5.93265 -5.32043,-0.59164 -6.60908,8.7348 -9.8545,12.45407 -5.17831,9.95944 -11.64063,19.1319 -17.97076,28.36697 -3.48982,5.50511 -6.56455,11.26859 -9.27855,17.19324 1.17162,5.27756 6.83909,-0.6725 6.07509,-3.94763 6.24076,-15.22296 16.91613,-28.01257 24.57837,-42.48422 1.37232,-4.51054 8.51807,-8.71823 6.26865,-13.10821 -4.56799,0.22179 -8.72421,4.40784 -13.66763,4.83506 -9.13916,2.18159 -18.64006,2.39572 -27.97683,1.79764 l -0.59027,0.20193 z" />
    <path
       id="path375"
       style="fill:#666666;fill-opacity:1;stroke:#666666;stroke-width:1.00157;stroke-linecap:round;stroke-opacity:1"
       d="m 213.47973,329.14899 c 9.4028,-0.22191 18.69675,-1.98076 28.09768,-2.19666 -0.50567,-2.03545 -2.66586,-3.92119 -4.82752,-3.36201 -6.1072,1.81046 -12.48916,2.70413 -18.85802,2.71241 -2.10264,-0.96005 -3.13355,1.77822 -4.41214,2.84626 z" />
    <path
       id="path377"
       style="fill:#666666;fill-opacity:1;stroke:#666666;stroke-width:1.00157;stroke-linecap:round;stroke-opacity:1"
       d="m 346.31207,305.86387 c -5.606,-0.004 -12.4929,-1.68959 -16.64664,3.25915 -3.60419,3.34198 -2.21617,9.0915 1.47956,11.75973 5.23988,3.99434 12.29457,6.30058 15.27022,12.69274 2.99986,5.22747 2.48163,11.90378 -1.0012,16.76984 -2.39955,3.90035 -6.1874,7.34696 -10.88164,7.95598 5.11789,-0.10465 -3.52531,-1.16764 -3.15871,-4.05613 -2.71351,-4.63081 -1.01655,-10.55218 2.78563,-14.02996 4.9509,-4.87686 11.35501,-8.38145 14.83248,-14.64223 2.43227,-4.17845 5.26728,-11.30633 0.003,-14.54157 -4.65404,-3.13269 -7.8064,2.10494 -3.39187,5.11565 0.46253,3.32272 -1.8384,6.69788 -3.58832,9.50755 -4.59736,6.28887 -12.44938,9.54329 -16.04462,16.69317 -4.27704,6.93654 -1.20181,17.25924 6.40585,20.38226 5.41998,0.81554 10.74189,-1.50706 14.42981,-5.42473 5.71137,-5.30021 9.01362,-14.16085 5.29685,-21.50826 -2.62673,-5.79217 -7.19526,-10.6043 -12.87838,-13.4719 -3.01831,-1.97997 -7.0552,-4.14537 -7.53457,-8.07579 0.38785,-3.92869 5.35746,-5.61565 8.3235,-5.39608 2.57643,0.71642 4.93759,-0.92187 6.29863,-2.98942 z" />
    <path
       id="path379"
       style="fill:#666666;fill-opacity:1;stroke:#666666;stroke-width:1.00157;stroke-linecap:round;stroke-opacity:1"
       d="m 459.44573,313.40692 c -0.21399,7.33728 -6.38,14.64131 -14.05888,14.35958 -3.02169,-1.65067 -4.27182,-5.61826 -3.36872,-8.9746 1.52825,-6.56957 9.67519,-9.99456 15.72268,-7.52582 5.36813,1.63503 7.67011,7.86532 6.68542,13.02972 -1.07658,11.70914 -6.35969,23.17143 -14.98997,31.21806 -2.79772,2.52584 -5.87893,4.71122 -8.99812,6.81772 -1.55238,3.91141 4.39414,3.99808 6.54283,2.3982 2.89752,-2.09172 5.39511,-4.72129 7.97802,-7.19266 6.95267,-7.13706 11.57746,-16.35899 13.41555,-26.13358 1.56225,-6.64451 1.9809,-14.88055 -3.33911,-20.01315 -7.53313,-6.67685 -21.34521,-5.43277 -26.44408,3.65507 -2.26409,4.82044 -2.10751,11.6024 2.19165,15.2768 2.98143,1.96912 6.92778,1.18765 10.22478,0.45102 4.35058,-1.11434 8.13356,-4.24785 9.60524,-8.56267 0.89525,-2.339 3.69013,-9.73284 -1.16729,-8.80369 z" />
    <path
       id="path381"
       style="fill:#666666;fill-opacity:1;stroke:#666666;stroke-width:1.00157;stroke-linecap:round;stroke-opacity:1"
       d="m 543.56452,330.81912 c 2.26102,-7.74141 3.74584,-15.73567 6.85374,-23.20983 -5.85207,-1.24644 -4.31304,5.16909 -4.59344,8.72388 -0.4157,16.38869 -1.95269,32.72208 -3.82086,49.00047 -2.38325,3.5939 4.27164,5.22008 5.92236,3.6826 -0.63987,-4.58082 -1.01551,-9.20411 -0.98551,-13.87195 0.50551,-14.58861 -0.73811,-29.34327 2.09846,-43.7642 3.11575,-3.14594 -4.98742,-5.17337 -2.72252,-0.37564 -0.32528,6.7403 -2.62641,13.17665 -5.15667,19.36566 0.80148,0.14968 1.60297,0.2993 2.40444,0.44901 z" />
    <path
       id="path383"
       style="fill:#666666;fill-opacity:1;stroke:#666666;stroke-width:1.00157;stroke-linecap:round;stroke-opacity:1"
       d="m 572.32332,312.65479 c -8.83737,11.35308 -11.86244,27.21533 -7.79621,41.00169 1.90806,7.69257 10.84342,14.31653 18.30604,9.00742 8.72206,-6.0032 13.4521,-16.65352 14.84681,-26.90628 0.99078,-8.43549 -2.23399,-19.7237 -11.84938,-21.31861 -5.60548,-2.998 -15.29443,7.8145 -8.12516,9.38239 2.51894,-5.97825 11.14598,-6.76898 13.00113,0.18699 4.82488,10.75926 0.64226,23.72977 -6.90591,32.13323 -5.06584,7.10689 -14.4391,3.86241 -15.79929,-4.46345 -3.49951,-11.69842 -0.006,-24.38472 6.19682,-34.53375 4.0404,-1.86175 0.66625,-3.93657 -1.87485,-4.48963 z" />
    <path
       id="path385"
       style="fill:#666666;fill-opacity:1;stroke:#666666;stroke-width:1.00157;stroke-linecap:round;stroke-opacity:1"
       d="m 645.12652,334.18938 c 7.1018,-4.32476 10.5478,-12.29786 13.5574,-19.66507 2.7216,-2.61447 0.2817,-5.19188 -2.7764,-3.62125 -1.8978,4.43604 -1.7646,9.71935 -3.0675,14.45891 -2.663,12.80181 -3.0078,25.92043 -5.1724,38.80069 -2.8771,4.60055 7.5452,6.10579 6.5866,0.87508 -0.227,-5.65913 0.4536,-11.32514 0.2148,-17.00497 -0.07,-12.04914 1.2118,-24.24532 5.0117,-35.72555 -2.368,-1.54167 -4.9245,-1.50029 -4.3266,1.9343 -1.5899,6.48608 -5.0479,12.99289 -10.7385,16.73492 -3.681,1.17614 -0.6486,1.93748 0.7109,3.21294 z" />
    <path
       id="path387"
       style="fill:#666666;fill-opacity:1;stroke:#666666;stroke-width:1.00157;stroke-linecap:round;stroke-opacity:1"
       d="m 677.42882,331.57897 c 7.4455,-4.95424 10.8854,-13.7098 13.9861,-21.65078 -1.9974,-3.03907 -7.4673,-1.56702 -5.9163,2.61354 -0.4019,10.01099 -1.8722,19.94595 -2.6719,29.93124 -0.4214,7.54718 -2.6744,14.8363 -3.185,22.3597 -1.8419,4.91554 4.8828,6.47339 7.5089,3.21739 -0.2223,-4.86909 -0.2152,-10.16971 0.3451,-15.21725 1.1067,-11.22225 1.0135,-22.5158 1.826,-33.74873 -0.4423,-3.0686 2.8413,-8.29806 1.0174,-9.73955 -6.062,-2.18846 -4.4915,5.01821 -6.5177,8.43553 -2.0305,4.75876 -5.6892,9.02432 -10.5883,10.93756 1.3986,0.95375 2.7971,1.90765 4.1957,2.86135 z" />
    <path
       id="path389"
       style="fill:#666666;fill-opacity:1;stroke:#666666;stroke-width:1.00157;stroke-linecap:round;stroke-opacity:1"
       d="m 80.623962,451.4131 c 3.5413,-5.17041 4.49342,-11.46177 6.559872,-17.24652 0.72377,-4.77697 -7.222642,-1.63667 -4.794532,2.2308 0.19394,4.84932 -0.39501,9.72941 -0.58822,14.5966 -0.76014,9.75274 -1.09624,19.52828 -1.07309,29.30827 -1.16797,3.70282 0.90972,10.05869 5.531192,6.47762 2.09753,-4.79033 -0.71621,-10.74088 -0.25767,-15.99044 -0.50338,-10.35936 -0.34233,-20.76524 0.40695,-31.1075 1.02657,-3.65922 1.75764,-9.52416 -3.959012,-7.97295 0.62641,5.99649 -1.28525,12.4524 -5.37597,16.92278 -1.86822,1.8288 2.76678,1.86451 3.55048,2.78134 z" />
    <path
       id="path391"
       style="fill:#666666;fill-opacity:1;stroke:#666666;stroke-width:1.00157;stroke-linecap:round;stroke-opacity:1"
       d="m 112.81432,441.83819 c 2.32728,-7.87948 9.22394,-4.05276 7.9506,2.83952 0.63343,10.51068 -4.50704,21.03782 -11.98398,28.11961 -7.724,3.15426 -3.34571,10.59176 3.83548,8.40548 7.57465,-1.19583 15.27856,-1.59869 22.89405,-0.54097 -4.24097,-0.42519 3.75818,-8.38158 -3.72284,-6.28557 -8.7068,1.26016 -17.61153,0.97031 -26.26141,2.28818 -1.50209,6.1498 9.80345,1.91581 10.1007,-3.16372 3.82236,-6.90591 8.57513,-13.59982 9.42472,-21.70433 0.65849,-5.86242 0.68381,-12.90441 -3.60131,-17.42282 -4.16201,-4.50258 -16.41205,5.66565 -8.63601,7.46462 z" />
    <path
       id="path393"
       style="fill:#666666;fill-opacity:1;stroke:#666666;stroke-width:1.00157;stroke-linecap:round;stroke-opacity:1"
       d="m 203.10781,448.00607 c 5.27584,-5.63009 9.43009,-12.86046 9.60259,-20.74435 -3.09589,-2.09027 -6.98267,1.27952 -5.66125,4.70284 -0.14378,14.35951 -0.4921,28.84531 -3.74987,42.89708 -2.46663,4.02887 5.13046,6.46702 6.70489,2.92638 1.09861,-3.99042 0.44853,-8.28035 1.16375,-12.38858 0.87574,-7.20614 0.24838,-14.43207 -0.0538,-21.64569 -0.12208,-4.84888 0.11617,-9.84636 1.09555,-14.52875 -2.18789,-2.02394 -5.8313,-0.97904 -4.33409,2.31826 -0.12223,5.65864 -3.3648,10.94901 -7.81368,14.27172 -0.45246,1.46326 2.30724,1.31251 3.04591,2.19109 z" />
    <path
       id="path395"
       style="fill:#666666;fill-opacity:1;stroke:#666666;stroke-width:1.00157;stroke-linecap:round;stroke-opacity:1"
       d="m 239.80908,433.80537 c 1.08342,-1.42045 4.55604,-2.9628 3.98968,-1.24747 3.47259,1.54575 3.59141,6.1088 2.74502,9.32238 -0.92876,3.15538 -3.33277,5.94892 -6.50727,6.97103 -0.70916,2.5617 -0.0278,6.12956 3.30952,5.02366 3.48743,0.83506 7.50937,4.70787 5.6212,8.50721 -2.80778,4.57164 -8.39591,6.26084 -13.0916,8.21183 -5.43534,1.4881 -1.40568,6.37741 2.52964,5.88746 4.23329,0.41953 7.95977,-2.29622 11.39622,-4.39299 4.56118,-3.08456 8.6264,-9.10131 5.98607,-14.67414 -1.91199,-3.79426 -5.24213,-6.91517 -9.05726,-8.73961 -2.85829,0.0119 -0.73185,7.20281 1.37634,2.80054 4.627,-5.19859 5.88368,-13.39333 2.25054,-19.44792 -3.04958,-4.73968 -9.88125,-4.01707 -13.89782,-1.00958 -2.62578,0.97325 2.74639,2.01199 3.34972,2.7876 z" />
    <path
       id="path397"
       style="fill:#666666;fill-opacity:1;stroke:#666666;stroke-width:1.00157;stroke-linecap:round;stroke-opacity:1"
       d="m 320.03722,447.70584 c 4.51484,-4.50819 7.71704,-10.12795 9.82342,-16.11179 1.98556,-2.57984 3.40481,-8.63813 -1.71488,-6.04555 -4.2502,1.09552 -1.70533,5.83385 -2.55576,8.88312 -0.73144,11.46871 -1.09898,22.95731 -1.72726,34.42897 -0.18493,3.58009 -1.06427,7.10911 -1.48889,10.62581 0.86326,4.27567 7.74213,3.0862 7.19392,-1.29909 0.81025,-12.28924 0.0935,-24.61855 0.40581,-36.92825 9.6e-4,-4.59387 0.0631,-9.30057 1.59586,-13.6866 -2.3092,-1.77763 -7.00685,-2.30459 -5.86721,1.87358 -0.88222,5.64838 -3.99687,10.78565 -8.13485,14.65947 -4.13517,1.72666 1.32512,2.44962 2.46984,3.60033 z" />
    <path
       id="path399"
       style="fill:#666666;fill-opacity:1;stroke:#666666;stroke-width:1.00157;stroke-linecap:round;stroke-opacity:1"
       d="m 357.40627,427.66579 c -3.02231,7.51249 -8.37722,13.76485 -13.74071,19.69174 -2.26217,2.49182 0.60778,5.55169 3.42795,5.14351 8.70914,0.42124 17.45158,0.22232 26.15652,0.67697 -1.1571,0.0605 -4.19106,0.067 -1.19827,0.33529 2.63257,0.56301 4.90697,-1.27738 6.79913,-2.79705 3.00146,-3.99155 -3.28238,-2.93248 -5.56052,-3.03014 -4.33033,-0.006 -8.66153,0.1966 -12.97077,0.62561 0.11641,0.43911 -4.72821,0.0416 -6.38419,-0.13178 -2.20686,-0.55981 -5.06433,-0.84356 -3.82739,1.76585 3.79963,-6.94924 8.48415,-13.4272 12.06596,-20.51825 -0.85522,-1.56569 -3.37774,-0.94332 -4.76771,-1.76175 z" />
    <path
       id="path401"
       style="fill:#666666;fill-opacity:1;stroke:#666666;stroke-width:1.00157;stroke-linecap:round;stroke-opacity:1"
       d="m 365.99485,436.86414 c 0.21164,11.3268 -1.22034,22.62161 -3.06303,33.77453 -0.43774,2.8092 -2.53717,6.82298 1.14161,8.35887 2.09477,1.68261 5.64746,-0.4706 6.06639,-2.89818 -0.40748,-9.37655 0.71875,-18.73946 0.47446,-28.12176 0.0205,-3.42791 -0.14003,-6.8908 0.0974,-10.28865 -0.79824,-1.716 -3.2993,-0.42609 -4.71679,-0.82481 z" />
    <path
       id="path403"
       style="fill:#666666;fill-opacity:1;stroke:#666666;stroke-width:1.00157;stroke-linecap:round;stroke-opacity:1"
       d="m 432.60549,452.82883 c 4.44151,-5.34015 8.03075,-11.55458 9.46039,-18.39447 3.12203,-2.94668 -1.26781,-5.95368 -3.2094,-2.72651 -0.66734,5.57848 -0.34563,11.28285 -1.23595,16.86793 -1.89053,12.37871 -1.73768,24.99139 -4.06944,37.30705 1.71275,4.87562 9.49469,1.70957 6.97478,-3.2646 -0.31885,-10.96171 0.79033,-21.90894 1.27024,-32.8531 0.11136,-5.52817 0.0158,-11.17156 1.52066,-16.52625 0.90672,-3.16249 -6.62742,-5.13569 -4.10782,-0.85635 -0.93128,6.96479 -3.89351,14.13746 -9.69069,18.5166 0.42765,1.27394 2.22867,1.09418 3.08723,1.9297 z" />
    <path
       id="path405"
       style="fill:#666666;fill-opacity:1;stroke:#666666;stroke-width:1.00157;stroke-linecap:round;stroke-opacity:1"
       d="m 477.84151,431.57136 c -4.98185,1.11719 -11.22143,0.78949 -14.45696,5.5008 -2.38644,3.82806 -2.38587,8.60995 -3.33861,12.85564 -0.0412,4.16337 6.39279,3.22606 7.28948,2.65262 -1.902,0.0343 3.61302,0.33614 4.53686,1.3077 6.22904,2.94046 5.98387,12.36442 0.7033,16.14109 -3.90562,3.23693 -8.35347,5.68884 -13.04397,7.57029 -3.87654,1.01571 -2.76374,5.40773 1.04124,4.69618 5.53858,0.64972 10.1422,-3.3929 14.29533,-6.48586 6.24321,-4.415 10.10581,-13.35049 6.16864,-20.49608 -3.1992,-5.95414 -10.51021,-7.83565 -16.81261,-7.38265 -3.76085,0.1043 4.34004,-1.23478 2.94551,1.99686 0.18004,-4.30076 0.3115,-10.33315 5.44442,-11.66562 2.62014,-1.54838 8.20397,-0.89905 9.24074,-2.59793 -1.14131,-1.54857 -2.78469,-2.62328 -4.01337,-4.09304 z" />
    <path
       id="path407"
       style="fill:#666666;fill-opacity:1;stroke:#666666;stroke-width:1.00157;stroke-linecap:round;stroke-opacity:1"
       d="m 543.01408,452.43477 c 3.84607,-5.15859 6.93045,-10.86813 9.2808,-16.85324 -3.26547,-1.1332 -5.92101,0.93024 -4.83619,4.39516 -0.68696,11.4555 -1.26999,22.91638 -2.42468,34.33609 0.16364,3.29835 -1.33656,6.67503 -0.19921,9.84625 1.98159,3.7882 7.15544,0.34777 5.99482,-3.23942 0.0227,-13.11422 -0.56387,-26.27214 0.58343,-39.356 1.16801,-3.28906 1.09928,-8.35806 -3.79878,-6.10695 -0.0946,3.82986 -2.13255,7.30331 -3.90559,10.57834 -1.37011,2.07542 -6.23062,5.20745 -1.51474,6.03503 l 0.41005,0.18238 0.41006,0.18236 z" />
    <path
       id="path409"
       style="fill:#666666;fill-opacity:1;stroke:#666666;stroke-width:1.00157;stroke-linecap:round;stroke-opacity:1"
       d="m 574.05821,436.23202 c -3.87031,5.10181 -7.72625,10.50011 -8.92964,16.93234 -1.3986,5.84299 -2.38143,12.39488 0.18178,18.04467 2.3277,4.28383 7.227,6.96165 12.0985,6.28474 5.16025,0.0668 9.14152,-3.73257 12.52384,-7.16105 4.66729,-4.34727 2.06907,-13.50652 -4.33707,-14.43691 -6.98233,-1.81823 -15.76787,0.64833 -19.01561,7.51587 -0.32052,1.84599 1.0464,7.22656 2.53467,3.58623 3.12479,-1.22228 4.79487,-4.33417 7.95975,-5.4905 1.31922,-0.83455 6.70176,-1.16005 2.68316,-1.32587 3.92497,-0.92596 8.05115,3.07664 4.81075,6.63317 -1.22159,2.96712 -6.27325,4.99425 -7.53154,5.86825 3.56142,0.54526 -5.0397,0.41156 -5.31489,-1.99112 -3.77135,-4.34919 -2.2818,-10.62271 -1.26914,-15.71989 1.4629,-5.90574 4.45783,-11.39059 8.52176,-15.905 -0.078,-1.94485 -3.75844,-1.63157 -4.91632,-2.83493 z" />
    <path
       id="path411"
       style="fill:#666666;fill-opacity:1;stroke:#666666;stroke-width:1.00157;stroke-linecap:round;stroke-opacity:1"
       d="m 645.78222,454.42982 c 3.5344,-5.80147 6.7254,-11.78941 9.5776,-17.9539 0.4144,-2.29677 4.3856,-5.36209 3.4787,-6.93138 -5.0617,0.12119 -5.2318,5.15693 -4.6294,9.00857 -1.4005,12.32028 -1.5662,24.82022 -4.1368,36.99511 -2.7775,3.50439 2.4848,9.18341 4.6703,3.80651 1.3936,-3.81648 0.8095,-8.01906 1.0876,-12.01108 -0.043,-10.99911 0.8028,-21.98538 2.0125,-32.91051 2.5632,-3.19732 -5.5729,-8.05668 -4.0068,-2.87437 -1.4993,7.69378 -5.0658,15.2251 -10.7306,20.74088 -2.186,1.09334 2.0551,1.4747 2.6769,2.13017 z" />
    <path
       id="path413"
       style="fill:#666666;fill-opacity:1;stroke:#666666;stroke-width:1.00157;stroke-linecap:round;stroke-opacity:1"
       d="m 674.63382,433.24833 c 9.0548,3.40622 18.8902,1.12206 27.7292,-1.78049 -3.2883,-2.03551 -7.3597,-2.20811 -7.5082,2.59279 -4.8237,10.7232 -7.717,22.34106 -14.3122,32.21538 -1.6096,4.57138 -8.1982,8.96576 -6.4425,13.80485 5.7133,3.26633 7.3255,-4.96458 9.6633,-8.38439 4.9598,-8.64682 9.0001,-17.75825 12.5086,-27.07611 2.0018,-4.74505 4.2733,-9.38764 6.9972,-13.76304 -1.8688,-2.43869 -4.7491,-6.71251 -7.4692,-2.72721 -3.8683,2.00223 -8.3559,3.20024 -11.9337,2.92329 -3.7786,-1.08292 -6.3949,-0.79784 -9.2325,2.19493 z" />
    <path
       id="path415"
       style="fill:#666666;fill-opacity:1;stroke:#666666;stroke-width:1.00157;stroke-linecap:round;stroke-opacity:1"
       d="m 681.76232,461.12356 c 6.2729,-2.1348 12.8831,-2.9516 19.3652,-4.16721 2.8092,-0.90272 1.7962,-4.72923 -0.9093,-4.86897 -3.0224,-1.54128 -6.4574,-0.80495 -9.5426,0.095 -5.0487,1.12345 -10.0645,2.46825 -14.9073,4.3007 1.998,1.54684 3.996,3.09367 5.994,4.64051 z" />
    <path
       id="path56"
       style="fill:#000000;stroke:#000000;stroke-width:1.00157;stroke-linecap:round"
       d="m 71.70176,616.11351 c 5.883127,-6.17652 8.476732,-14.67935 9.984495,-22.84077 -2.265463,-2.39285 -6.068543,0.73093 -3.592018,3.58773 1.602063,8.80369 2.036901,17.87041 3.310984,26.76247 1.202532,8.17847 3.290156,16.36371 2.561444,24.69815 2.941374,2.05402 8.028449,-0.0259 4.973328,-3.85286 -3.413761,-12.27792 -5.389648,-24.94308 -6.621115,-37.61444 -0.696554,-4.73859 0.199113,-10.09198 -0.620921,-14.46854 -3.631834,-2.68394 -5.711731,1.32532 -4.84949,4.62908 -0.811966,6.36352 -3.58159,12.79577 -8.81062,16.74456 0.816314,1.2786 2.543844,1.44263 3.663913,2.35462 z" />
    <path
       id="path58"
       style="fill:#000000;stroke:#000000;stroke-width:1.00157;stroke-linecap:round"
       d="m 117.18657,591.20173 c -3.28842,2.1495 -6.77781,6.00277 -5.00909,10.20476 2.72984,6.36024 10.01212,8.5679 14.19904,13.73238 3.63597,4.13383 6.49779,10.68186 3.22353,15.81335 -2.12191,2.74049 -5.87403,3.6938 -9.20307,3.33759 -3.28411,-1.68115 -6.55397,-3.89537 -7.74519,-7.58368 -1.77245,-3.87639 0.97582,-7.50028 3.92407,-9.77488 3.89992,-3.87447 8.33461,-7.83442 10.04725,-13.20312 0.8358,-3.22582 -4.5043,-6.08876 -5.67721,-2.32479 -0.69132,3.60307 -1.89473,7.19888 -4.50659,9.90193 -2.79275,3.57698 -7.34268,6.03145 -8.55985,10.63408 -1.09464,6.00639 3.29198,11.81658 8.40654,14.46596 4.08177,1.30961 8.72217,1.10441 12.76962,-0.31815 4.49148,-1.46146 6.68129,-6.49268 5.8816,-10.94127 -0.9464,-7.46336 -6.73861,-12.91187 -12.42616,-17.22045 -2.61718,-2.49907 -6.68773,-4.67277 -6.83661,-8.71403 -1.38427,-3.80849 7.70928,-4.73858 2.78137,-7.10921 -0.42308,-0.30016 -0.84616,-0.60032 -1.26925,-0.90047 z" />
    <path
       id="path60"
       style="fill:#000000;stroke:#000000;stroke-width:1.00157;stroke-linecap:round"
       d="m 203.87071,604.60011 c 0.47232,-2.87893 6.76337,-5.91249 5.3882,-2.4305 3.44571,2.86991 2.34255,7.8649 1.45317,11.70161 -3.06554,9.14327 -9.22429,16.83828 -15.13715,24.30421 -1.25231,2.54978 -7.48567,5.23527 -1.78597,6.04445 3.19553,1.76382 6.00626,-2.62081 9.40212,-2.16986 5.08572,-0.71946 10.23404,-0.4975 15.35305,-0.58603 2.27112,-0.95988 7.4497,-4.11996 6.59302,-5.26096 -5.58951,1.92398 -11.52654,0.60615 -17.26547,1.50792 -5.87724,0.47532 -11.95099,1.64425 -16.89133,5.00656 0.57668,4.016 6.19707,3.68031 6.55557,-0.51381 5.33902,-9.57966 12.16269,-18.33224 16.73667,-28.32619 1.80914,-4.81022 1.86824,-10.82904 -1.67939,-14.88384 -4.2251,-2.62807 -9.57337,0.0168 -11.42322,4.23174 0.0309,1.28265 1.86859,1.05733 2.70073,1.3747 z" />
    <path
       id="path62"
       style="fill:#000000;stroke:#000000;stroke-width:1.00157;stroke-linecap:round"
       d="m 243.38621,611.81387 c 3.59724,-7.2535 8.80636,-13.51331 13.14327,-20.3104 -1.58274,0.9004 -6.69819,-1.41009 -4.78469,2.51216 0.11198,6.81831 -0.34804,13.64742 -0.90806,20.4369 -0.95003,8.02467 -2.22676,16.02587 -3.68747,23.95592 -0.0641,4.25529 6.63474,3.88439 6.3157,-0.52346 -0.0648,-9.6985 1.8927,-19.26486 2.40771,-28.93451 0.46927,-5.98585 0.72231,-12.00997 1.34039,-17.97052 -2.02067,-2.7797 -7.28184,-2.3811 -6.99632,1.80049 -1.85948,4.76737 -4.56729,9.23956 -7.77227,13.19994 -2.66694,1.82878 -4.64682,4.81451 -0.1225,5.37899 l 0.53212,0.22724 z" />
    <path
       id="path64"
       style="fill:#000000;stroke:#000000;stroke-width:1.00157;stroke-linecap:round"
       d="m 317.45002,596.41158 c 2.06032,-5.07315 8.93541,-2.71752 9.96473,1.91031 1.88762,6.43234 -1.07729,13.03736 -3.71058,18.82261 -3.29283,6.51264 -7.82324,12.46422 -13.61214,16.95374 0.081,-2.99226 -6.02128,3.71107 -1.21129,3.99754 4.90014,2.79711 10.17364,-0.79472 15.22087,-1.16903 6.43625,-1.09413 13.00367,-1.71457 19.52596,-1.12889 -5.77212,0.30728 4.2351,-2.91715 -0.39888,-4.65938 -7.29483,-0.0414 -14.47363,1.67667 -21.73423,2.33085 -4.52584,0.52215 -9.0646,0.94057 -13.61351,1.19839 2.82603,1.94501 7.83279,5.64953 9.32086,0.27392 3.31585,-9.59686 10.82825,-17.19122 13.36236,-27.13222 1.57312,-5.14668 1.84259,-11.99663 -2.95677,-15.54326 -3.97023,-2.71284 -10.7405,-0.84913 -12.62716,3.19023 0.73824,0.50079 1.67212,0.58053 2.46978,0.95519 z" />
    <path
       id="path66"
       style="fill:#000000;stroke:#000000;stroke-width:1.00157;stroke-linecap:round"
       d="m 364.29191,590.70257 c -3.28591,4.32229 -7.16276,8.20762 -11.28241,11.70058 -2.18469,2.00406 -0.26066,5.47712 2.47486,5.38045 7.75013,0.96945 15.58279,1.0356 23.34626,1.8729 2.37274,-0.17065 7.8041,1.3748 7.46322,-2.36796 -1.10108,-0.0294 -3.49354,-1.67315 -1.948,-0.45485 -2.38888,-0.90646 -2.613,-1.1716 -5.40407,-0.85448 -6.00567,0.16143 -12.04308,-0.36724 -17.89588,-1.74502 -1.11164,-1.48898 -3.36277,0.14523 -2.1673,1.25138 3.64582,-4.23705 7.31472,-8.52129 10.42206,-13.19163 -1.66957,-0.53047 -3.3392,-1.06087 -5.00874,-1.59137 z" />
    <path
       id="path68"
       style="fill:#000000;stroke:#000000;stroke-width:1.00157;stroke-linecap:round"
       d="m 376.66986,596.6883 c 0.85689,7.53805 0.16625,15.13477 0.46078,22.69681 0.0409,3.58223 -0.45992,7.19833 -0.28144,10.75236 0.0887,0.51855 1.24383,2.93039 0.62951,1.101 0.88194,1.18875 1.97183,4.0815 2.90905,1.23452 2.07046,-1.66505 1.51122,-4.42475 1.1145,-6.67668 -0.89858,-8.16975 -0.55149,-16.40933 -1.3255,-24.58995 -0.31696,-2.18964 0.65467,-5.7756 -2.70264,-4.55684 l -0.40214,0.0194 z" />
    <path
       id="path70"
       style="fill:#000000;stroke:#000000;stroke-width:1.00157;stroke-linecap:round"
       d="m 440.13726,590.32576 c 1.8357,0.023 2.13423,0.11635 1.91238,0.66801 4.15491,3.32568 3.00714,9.39041 2.0339,13.91221 -2.71534,10.05879 -9.10255,18.69404 -16.55629,25.79865 -4.82389,3.71968 2.44103,6.7464 5.88577,4.64138 7.91416,-1.96922 16.17161,-1.66545 24.22203,-2.20974 3.84736,-3.17483 -4.30499,-4.19911 -6.63639,-3.63324 -7.22106,1.06544 -14.526,1.49933 -21.81599,1.80786 2.37438,-1.67514 3.21153,2.84228 2.81951,1.84343 6.53223,-11.24113 14.73274,-22.26119 16.12513,-35.5923 0.88133,-3.66144 -0.14589,-8.41647 -4.05649,-9.82402 -2.24037,-1.35878 -9.55317,1.02708 -4.07382,2.51811 z" />
    <path
       id="path72"
       style="fill:#000000;stroke:#000000;stroke-width:1.00157;stroke-linecap:round"
       d="m 474.1678,590.14336 c 7.8769,0.38129 15.55659,-1.80845 23.34158,-2.63285 0.34983,-0.68807 5.67588,0.25272 1.8799,0.24646 -2.08414,-0.11322 -3.94382,-1.39331 -3.77901,1.74321 -2.85274,10.69115 -9.81134,19.57957 -13.99724,29.69696 -1.18578,2.95188 -1.70641,6.14675 -2.85223,9.01384 2.6565,-3.61752 6.01936,-7.279 8.26988,-11.37137 4.63589,-9.39218 9.5771,-18.63995 15.1738,-27.49403 3.23007,-3.90855 -1.13514,-8.10921 -5.27895,-6.46901 -6.19459,2.7282 -13.04904,3.96182 -19.80438,3.6809 1.07361,0.88709 -2.58092,2.55634 -2.95335,3.58589 z" />
    <path
       id="path74"
       style="fill:#000000;stroke:#000000;stroke-width:1.00157;stroke-linecap:round"
       d="m 482.59163,613.6993 c 4.99391,-1.13015 10.05411,-1.94622 15.0839,-2.87624 1.91187,-0.14177 2.85739,-1.79949 3.89808,-3.14259 -1.41803,-1.25942 -4.23152,-1.19932 -6.21699,-1.69377 -3.68314,-0.0947 -7.22161,1.20861 -10.86297,1.59318 -2.41423,0.36191 -4.83769,0.6587 -7.2634,0.9318 1.78713,1.72921 3.57425,3.45841 5.36138,5.18762 z" />
    <path
       id="path76"
       style="fill:#000000;stroke:#000000;stroke-width:1.00157;stroke-linecap:round"
       d="m 551.40638,591.32455 c 0.74967,-0.22961 3.51127,0.20848 1.18457,0.47289 3.06886,1.20435 1.58023,5.02105 -0.24581,6.65708 -1.45717,2.32076 -6.1321,4.0594 -4.31316,7.32394 1.79043,2.39915 5.3722,2.56578 6.85734,5.33345 2.07163,3.05956 2.62735,7.62503 0.29583,10.67956 -2.51354,1.9716 -5.80132,2.81476 -8.14454,5.02873 -0.32374,1.61158 -3.81646,0.61336 -0.9166,1.41322 3.0403,0.94596 6.36906,1.32174 9.33255,-0.10916 3.72349,-1.35027 7.10864,-4.99147 6.3003,-9.20618 -0.44586,-4.22913 -1.92245,-8.42212 -4.2707,-11.95806 -0.87019,-1.12386 -3.50192,-3.108 -4.02391,-2.38644 2.61395,-3.22906 6.09154,-6.84 5.34695,-11.35969 -0.50737,-3.3227 -3.72551,-5.26869 -6.92828,-4.92488 -1.75443,-0.44732 -5.26176,1.00253 -2.0026,2.08978 0.50936,0.31525 1.01871,0.6305 1.52806,0.94576 z" />
    <path
       id="path78"
       style="fill:#000000;stroke:#000000;stroke-width:1.00157;stroke-linecap:round"
       d="m 585.43834,588.8096 c -3.28371,3.75725 -7.08405,7.36516 -8.98845,12.05382 -1.42702,4.76004 -2.4428,10.13644 -0.51685,14.88801 2.73433,4.81345 8.23434,8.1879 13.85345,7.4634 3.62959,0.0142 6.40361,-2.84617 9.05702,-4.94892 4.57651,-4.29328 8.40079,-10.86829 6.62488,-17.30571 -0.93643,-3.80281 -4.21901,-7.14955 -8.33346,-7.02998 -3.06543,-0.51662 -7.1407,0.75985 -6.56886,4.60858 1.413,-1.54954 7.12881,1.03246 4.09179,-0.4048 4.34595,-0.77081 7.31274,4.28592 7.119,8.16487 -0.63646,6.20568 -5.55163,11.35429 -11.22059,13.55414 -4.19575,2.00076 -9.08658,-1.54493 -11.22968,-5.11127 -2.63622,-6.5697 -0.0301,-14.18606 4.50739,-19.27974 0.97936,-1.93306 4.72052,-3.52257 4.81703,-4.67085 -1.0709,-0.66051 -2.14181,-1.32098 -3.21267,-1.98155 z" />
    <path
       id="path84"
       style="fill:#000000;stroke:#000000;stroke-width:1.00157;stroke-linecap:round"
       d="m 656.253,590.6678 c 0.77509,-1.57405 5.16791,-1.77996 4.74877,-1.43754 -1.23267,0.59577 2.73564,2.44421 2.04354,4.34448 1.20057,4.64338 -2.00532,9.76632 -6.72277,10.65518 -5.19121,0.56027 2.70195,4.30552 2.46392,4.08366 3.31547,0.26087 7.05406,2.62475 7.10638,6.3406 -0.0729,4.51552 -5.30363,5.77927 -8.95141,5.95333 -2.70642,0.82872 -6.65354,-0.39548 -8.50944,1.93024 0.34576,3.67292 5.1591,4.99604 8.29474,4.34263 5.2545,-0.95065 11.22695,-3.08634 13.44785,-8.42108 2.10182,-4.72576 -0.76636,-10.32773 -5.2938,-12.38627 -2.94182,-1.62598 -8.09742,-1.77202 -10.3831,-0.90675 0.51778,3.71777 4.3409,4.4202 6.63877,1.74447 4.5138,-2.83534 7.49421,-8.3708 6.17135,-13.72207 -0.43614,-3.10881 -2.09887,-6.95076 -5.71859,-7.10813 -3.22883,-0.31072 -7.04214,-0.0513 -9.32166,2.52898 1.32853,0.686 2.6567,1.37269 3.98545,2.05827 z" />
    <path
       id="path86"
       style="fill:#000000;stroke:#000000;stroke-width:1.00157;stroke-linecap:round"
       d="m 690.60575,589.08788 c 1.90402,-1.42775 7.30366,-2.67591 7.64447,-1.83937 2.76639,0.77133 5.17444,4.21803 3.10465,7.21274 -2.22623,3.75956 -6.70043,5.27181 -10.60819,6.63537 -3.54453,-0.20366 -2.30486,7.56868 1.4445,5.86343 1.86436,-0.19591 5.73456,-0.84653 3.79852,-0.71548 3.98922,0.12352 9.68464,1.18367 10.98419,5.43952 -0.97184,3.36243 -5.11077,4.44294 -7.88202,5.95113 -3.74605,1.66954 -8.51854,1.83628 -11.2622,5.21708 1.4657,2.76557 7.46378,2.01516 10.58758,1.89136 5.13765,-1.74383 10.61321,-4.02334 13.96527,-8.52073 2.68209,-3.03724 1.73749,-7.90623 -1.48132,-10.16044 -4.89785,-4.20568 -11.64994,-4.81045 -17.83475,-4.62305 -2.60662,-0.0698 -1.76591,-0.33258 0.46184,-0.47754 2.51862,0.98353 -0.49992,7.216 3.60422,3.9597 4.20025,-2.82313 9.15823,-5.92737 9.9106,-11.40365 1.14174,-4.80691 -2.95043,-9.72946 -7.86053,-9.58508 -4.21663,-0.3912 -8.63322,0.42153 -12.37019,2.28151 0.39166,1.46009 2.85439,1.7194 3.79336,2.8735 z" />
    <path
       id="path88"
       style="fill:#000000;stroke:#000000;stroke-width:1.00157;stroke-linecap:round"
       d="m 858.23365,584.68947 c 0.84462,-1.14287 6.0366,-1.20941 2.81632,-0.76957 3.07111,0.15897 3.8652,3.6913 4.26033,6.15728 0.69616,5.17985 0.46032,10.53606 2.16235,15.54182 2.18679,3.69471 6.85717,3.18743 10.15525,1.62425 1.98683,-0.30082 -0.0246,-0.82127 0.0812,-1.96775 -1.97908,-1.46996 -5.61949,-0.33575 -5.86846,-3.74703 -1.17113,-4.25145 -0.27906,-8.75824 -1.56134,-13.00032 -0.84305,-3.03477 -1.53537,-7.30682 -5.04466,-8.28651 -3.87024,-1.07911 -8.03486,0.19595 -11.4865,1.95511 0.69282,1.15961 3.22455,1.58544 4.48554,2.49272 z" />
    <path
       id="path90"
       style="fill:#000000;stroke:#000000;stroke-width:1.00157;stroke-linecap:round"
       d="m 859.7731,593.22759 c -3.00547,1.47387 -5.93677,3.1712 -8.45002,5.40172 -1.6925,3.08099 -1.60561,7.50853 1.39202,9.77371 2.36056,2.06751 5.69168,1.74256 8.60293,2.02843 2.62155,0.11667 5.24756,0.0776 7.86868,-0.0305 -0.26943,-1.38296 0.89096,-3.14535 1.75116,-3.06898 -1.94526,0.27656 -3.66008,-0.64685 -5.37909,-1.45998 -0.90003,-0.68741 -3.21778,-0.1366 -0.85877,-0.37526 2.03598,0.79777 -2.23556,0.23465 -3.01578,0.36535 -1.66767,-0.42613 -3.60229,0.41116 -5.08048,-0.67855 -1.57978,-1.1468 -1.24147,-3.58975 0.30698,-4.59727 2.05395,-1.80166 4.61935,-3.08405 7.35309,-3.38408 -1.4969,-1.32482 -2.99386,-2.64989 -4.49072,-3.97455 z" />
    <path
       id="path92"
       style="fill:#000000;stroke:#000000;stroke-width:1.00157;stroke-linecap:round"
       d="m 889.5499,580.38864 c 5.66224,5.5859 10.20558,12.28623 13.55648,19.48402 0.41813,2.11259 2.29375,3.34038 4.31576,2.61002 1.13335,1.29735 0.88091,-1.05539 2.48398,-1.08475 1.21046,-1.75777 -1.67671,-3.58207 -2.37652,-5.20241 -3.9991,-6.0235 -8.99145,-11.30917 -13.24049,-17.14202 -1.36404,-1.37417 -3.23477,1.11983 -4.73921,1.33514 z" />
    <path
       id="path94"
       style="fill:#000000;stroke:#000000;stroke-width:1.00157;stroke-linecap:round"
       d="m 910.37674,576.37661 c -3.63231,3.38674 -7.04155,7.00562 -10.78739,10.27339 -4.62841,4.39082 -9.31028,8.77973 -13.44675,13.63581 -1.33347,3.43623 4.11192,4.49457 5.98981,2.27676 2.63043,-2.32545 4.65058,-5.25629 7.08047,-7.79174 4.26242,-4.82158 8.54065,-9.70231 13.42562,-13.88873 1.72113,-0.6256 2.95839,-2.81105 0.28205,-3.1675 -0.85012,-0.44184 -1.68671,-0.90953 -2.54381,-1.33799 z" />
    <path
       id="path96"
       style="fill:#000000;stroke:#000000;stroke-width:1.00157;stroke-linecap:round"
       d="m 929.5338,578.30988 c 0.54219,7.1386 -0.57703,14.24823 -1.01218,21.35577 -0.17026,2.1153 1.47465,3.6647 3.34655,4.19992 0.4521,-1.25587 2.68272,-1.56151 2.4777,-3.48761 0.30079,-3.28961 -0.13166,-6.60138 -0.0515,-9.90199 -0.0242,-4.08692 0.0878,-8.17761 0.44778,-12.24985 -1.73612,0.0279 -3.47235,0.0559 -5.2084,0.0838 z" />
    <path
       id="path98"
       style="fill:#000000;stroke:#000000;stroke-width:1.00157;stroke-linecap:round"
       d="m 933.08918,566.90228 c 2.05555,-1.2588 5.98432,-5.72755 2.72144,-7.16724 -2.851,0.39718 -8.27741,-0.93813 -8.98913,2.77011 1.55555,1.97322 4.45143,2.59539 6.26769,4.39713 z" />
    <path
       id="path101"
       style="fill:#000000;stroke:#000000;stroke-width:1.00157;stroke-linecap:round"
       d="m 962.08967,574.58662 c -2.58448,1.73503 -5.38348,3.39638 -7.3201,5.87596 -1.37368,2.45411 0.4122,5.18333 2.21689,6.85022 1.51226,1.74092 3.09883,3.41882 4.56115,5.20377 0.0924,2.54078 -2.74043,3.4111 -4.57039,4.39845 -1.30964,0.65106 -3.39818,0.84002 -1.68552,2.39723 1.31088,1.83241 4.16891,3.17905 6.19401,3.13296 3.25589,-1.57396 6.79891,-3.98045 7.2366,-7.89187 0.36972,-3.00437 -2.0506,-5.15336 -4.13303,-6.8863 -1.68388,-1.48339 -3.41459,-3.05804 -4.57249,-4.96476 0.52338,-1.98325 2.82787,-3.09327 4.66477,-3.69306 3.05528,-0.73141 -1.30082,-2.72023 -2.09776,-3.96941 l -0.24707,-0.22659 z" />
    <path
       id="path107"
       style="fill:#000000;stroke:#000000;stroke-width:1.00157;stroke-linecap:round"
       d="m 998.743,592.53594 c 3.5627,-0.48681 10.7837,0.008 12.0665,-0.0929 -4.134,0.42492 2.7748,0.41937 3.5058,-1.07024 3.1171,-0.95527 4.3241,-6.38154 -0.164,-5.35552 -6.7413,0.27677 -13.4933,0.41103 -20.2447,0.48372 0.9851,2.4609 3.3811,3.90407 4.8364,6.03496 z" />
    <path
       id="path109"
       style="fill:#000000;stroke:#000000;stroke-width:1.00157;stroke-linecap:round"
       d="m 997.6026,577.36917 c 3.0889,-0.50771 9.1241,-0.6479 10.415,-0.59748 -1.3906,0.57631 3.6261,0.41903 4.5176,0.16857 1.9015,-0.69808 5.2955,-1.16924 6.0633,-2.76657 0.7449,-2.73342 -3.8583,-3.29666 -6.2462,-2.78424 -6.7107,0.0258 -13.4253,0.27373 -20.13331,-0.0277 1.79451,2.00252 3.58911,4.00488 5.38361,6.00743 z" />
    <path
       id="path111"
       style="fill:#000000;stroke:#000000;stroke-width:1.00157;stroke-linecap:round"
       d="m 1053.33,561.56744 c -5.202,6.87505 -10.3564,14.34718 -11.0695,23.21794 -1.0575,6.03087 0.2178,16.15047 8.1697,16.01441 14.4399,0.53469 26.3515,-14.22748 24.0706,-28.22479 -0.3236,-5.8921 -3.5504,-12.88863 -10.2739,-13.11184 -4.5576,-2.61952 -13.3527,5.82287 -5.3409,6.54347 1.5822,0.12717 6.6637,-1.22669 2.6073,-1.0918 6.6321,1.70793 6.0202,10.69855 5.0886,16.11855 -1.5191,6.94429 -7.1199,12.97799 -14.2724,14.09961 -0.8516,0.75204 2.2036,0.43113 -0.8639,0.65995 -5.3007,-1.40601 -5.1142,-8.36034 -4.5483,-12.77788 1.0584,-6.69039 4.272,-13.17126 9.1773,-17.83239 1.3923,-1.92185 -1.2005,-3.30204 -2.7446,-3.61523 z" />
    <path
       id="path203"
       style="fill:#ff0000;stroke:#ff0000;stroke-width:1.00157;stroke-linecap:round"
       d="m 103.22641,215.2165 c -7.734024,82.21344 3.89148,164.41523 9.53743,246.34717 2.04119,24.22646 5.921,48.37555 4.26452,72.5888 9.95857,9.07146 2.78334,-24.27021 2.73089,-32.98551 -8.74694,-59.60479 -12.13052,-119.84506 -16.79201,-179.83487 -0.6029,-35.19859 -2.13107,-70.88625 2.88236,-105.72637 l -0.83566,-0.62756 z" />
    <path
       id="path205"
       style="fill:#ff0000;stroke:#ff0000;stroke-width:1.00157;stroke-linecap:round"
       d="m 213.23514,211.59811 c 0.0721,61.44921 4.44885,122.76801 9.48923,183.95942 1.32586,40.04568 2.13824,80.22135 2.50719,120.21241 -4.32642,13.86939 5.39841,28.74866 4.32392,7.3007 -4.03138,-64.36127 -2.51106,-129.11188 -10.04135,-193.28946 -3.01718,-39.25006 -2.63415,-79.1844 -3.2261,-118.15399 l -0.99961,-0.26311 z" />
    <path
       id="path207"
       style="fill:#ff0000;stroke:#ff0000;stroke-width:1.00157;stroke-linecap:round"
       d="m 330.66752,213.36763 c -0.991,55.85831 2.13759,111.67674 9.08105,167.08254 4.06891,57.65761 -0.93599,115.38166 -3.608,172.97805 10.02785,-17.31103 0.10358,-47.06119 4.85664,-68.79749 2.756,-53.91365 2.00213,-108.0504 -6.01147,-161.50047 -2.9816,-36.27444 -3.3648,-73.04011 -0.60503,-109.21593 l -1.14117,-0.53673 z" />
    <path
       id="path209"
       style="fill:#ff0000;stroke:#ff0000;stroke-width:1.00157;stroke-linecap:round"
       d="m 447.23496,209.49281 c 3.51762,92.95403 20.67411,185.17649 16.81518,278.45742 2.01409,21.80887 -7.05226,53.38078 -0.18643,68.96023 3.65645,-23.01013 1.55607,-49.03888 2.82146,-73.39913 1.04187,-80.4472 -10.33462,-160.22167 -16.39174,-240.24954 -3.1036,-9.50578 4.54032,-30.3359 -3.05847,-33.76898 z" />
    <path
       id="path211"
       style="fill:#ff0000;stroke:#ff0000;stroke-width:1.00157;stroke-linecap:round"
       d="m 562.76234,214.64588 c -0.53061,100.96467 0.96526,202.14083 -7.55992,302.83578 -4.89464,10.66936 1.35966,33.34247 3.4952,8.99523 1.3995,-80.01517 6.84529,-159.94204 5.80748,-240.00489 0.37325,-23.31365 0.24567,-46.76096 1.62164,-69.9402 l -1.18038,-1.46741 z" />
    <path
       id="path213"
       style="fill:#ff0000;stroke:#ff0000;stroke-width:1.00157;stroke-linecap:round"
       d="m 672.24058,218.72795 c -0.6017,39.76263 -4.7754,79.39757 -3.96233,119.20643 -1.62858,65.64417 2.40878,131.70066 -6.78158,196.94386 10.41765,8.31208 5.11843,-28.31913 7.83207,-36.91664 3.09271,-77.47832 -1.57013,-155.10377 2.90184,-232.57285 -1.72996,-14.39162 7.21375,-37.97079 0.01,-46.66083 z" />
    <path
       id="path215"
       style="fill:#ff0000;stroke:#ff0000;stroke-width:1.00157;stroke-linecap:round"
       d="m 99.80633,539.22016 c 7.03764,4.09872 13.00768,10.30799 16.09838,17.90809 0.29988,5.62575 8.24717,2.03887 7.92684,-2.23952 4.38699,-8.85726 13.37005,-14.74176 22.74088,-17.32095 4.40892,0.12353 3.13571,-5.30668 -0.75668,-4.53609 -4.18565,0.31677 -7.65677,3.14443 -11.23093,5.10547 -6.4018,3.90533 -11.78051,9.3902 -15.34169,16.00879 -1.00323,1.91296 -3.46463,4.32183 0.3202,3.92742 4.09621,0.99782 -1.55342,-3.96549 -2.08858,-5.663 -2.90478,-4.35229 -6.61279,-8.05389 -10.40648,-11.60979 -1.85601,-2.46833 -4.66978,-4.58512 -7.26194,-1.58042 z" />
    <path
       id="path217"
       style="fill:#ff0000;stroke:#ff0000;stroke-width:1.00157;stroke-linecap:round"
       d="m 212.10022,528.56625 c 6.28729,9.65396 8.86265,21.11923 10.9726,32.29247 3.49344,3.38179 6.84924,-1.32978 7.56277,-4.5709 4.94453,-9.29649 11.12177,-18.05459 19.22014,-24.87736 1.67862,-1.48171 4.96726,-5.11763 4.93597,-6.24851 -6.63342,2.41277 -10.73459,8.44785 -15.40939,13.3718 -5.04399,5.26047 -9.3161,11.1598 -13.31821,17.2283 -1.02149,1.57942 -3.17165,2.69942 -0.0927,2.65063 3.19086,1.36109 -1.59904,-3.392 -1.29438,-5.04893 -2.66444,-7.15767 -4.70711,-14.54163 -7.55542,-21.627 -0.5268,-2.6926 -2.00603,-5.3672 -5.0214,-3.1705 z" />
    <path
       id="path219"
       style="fill:#ff0000;stroke:#ff0000;stroke-width:1.00157;stroke-linecap:round"
       d="m 319.12885,537.4593 c 6.74066,7.89503 9.82539,18.00403 13.96351,27.33966 1.07855,2.34288 2.14834,5.48966 1.94122,7.24109 4.34862,0.47644 7.57452,-2.62739 8.22971,-6.81176 3.67331,-7.28386 8.15725,-14.16159 12.91854,-20.79192 -0.35673,1.77982 -2.98903,2.70038 -1.02937,0.23003 1.16884,-1.50606 4.10373,-5.70267 0.91259,-2.21352 -3.9413,3.31697 -6.88052,7.51679 -9.67603,11.79137 -3.397,4.9001 -6.8375,9.77039 -10.35366,14.58584 1.3995,1.07804 7.69343,2.03843 3.53623,0.0223 -3.34217,-3.54457 -5.37754,-8.13305 -7.69423,-12.37734 -3.24574,-6.69064 -5.79042,-13.69703 -9.08983,-20.36289 -1.21956,0.44906 -2.43911,0.89815 -3.65868,1.34718 z" />
    <path
       id="path221"
       style="fill:#ff0000;stroke:#ff0000;stroke-width:1.00157;stroke-linecap:round"
       d="m 445.06453,538.21269 c 5.59205,6.45622 9.0403,14.45163 12.17954,22.30736 1.60952,4.43731 2.86691,9.0266 3.40025,13.72546 3.70119,3.21595 7.38039,-1.83936 8.06583,-5.25864 0.78098,-1.69888 -0.81531,1.6926 0.4136,-0.9955 4.68625,-10.49738 11.72743,-19.88708 20.45631,-27.36055 2.82586,-3.57983 -3.99374,0.91607 -4.86783,2.05361 -7.87133,7.23785 -13.13846,16.68074 -19.14499,25.39808 -0.79654,2.14402 -6.59551,5.03691 -1.29205,5.05372 -1.08384,-3.08447 -4.3313,-8.07697 -5.76265,-12.08364 -3.53646,-7.99249 -6.16876,-16.44153 -11.02987,-23.78407 -0.80605,0.31472 -1.61207,0.62952 -2.41814,0.94417 z" />
    <path
       id="path223"
       style="fill:#ff0000;stroke:#ff0000;stroke-width:1.00157;stroke-linecap:round"
       d="m 538.83154,523.92242 c 8.32209,9.86883 12.80711,22.6637 13.83775,35.44101 2.83157,2.31538 7.77868,0.48491 7.06404,-3.53965 1.90499,-10.25672 6.94398,-19.76146 13.74737,-27.60922 0.7143,-1.73464 3.00958,-5.3447 -0.59867,-3.29132 -4.78318,1.48138 -6.65033,6.53748 -9.01972,10.4454 -3.52787,6.56027 -6.28968,13.48864 -9.41249,20.24222 -1.79212,1.28443 -1.69124,3.54868 0.96834,2.59519 3.29414,1.2587 3.61612,-0.89435 1.84913,-3.09168 -4.86268,-10.84532 -8.55295,-22.2174 -14.19763,-32.7072 -1.4127,0.50509 -2.82542,1.01015 -4.23812,1.51525 z" />
    <path
       id="path225"
       style="fill:#ff0000;stroke:#ff0000;stroke-width:1.00157;stroke-linecap:round"
       d="m 645.45069,525.51414 c 6.62612,6.85727 11.01258,15.70754 13.43106,24.86484 0.54136,3.98638 1.17395,8.09163 3.02758,11.69716 2.96828,1.78482 8.51002,-1.47968 7.7684,-5.44338 2.2611,-8.52963 7.26791,-15.94515 11.10005,-23.79635 1.25541,-2.4334 5.25999,-6.36009 5.55648,-7.2707 -3.6129,2.74943 -5.60692,7.00204 -8.87049,10.11086 -5.96941,7.2881 -10.98427,15.30915 -15.60924,23.50124 1.59563,0.42035 6.85895,0.70362 6.32701,-0.16133 -1.58679,-3.52987 -2.68977,-5.84409 -4.38326,-9.11199 -5.0787,-6.94539 -8.02933,-15.25126 -12.33005,-22.70131 -1.0243,-3.66088 -3.01578,-3.29582 -6.01754,-1.68904 z" />
  </g>
</svg>
