<?xml version="1.0" encoding="UTF-8" standalone="no"?>
<svg
   xmlns:dc="http://purl.org/dc/elements/1.1/"
   xmlns:cc="http://creativecommons.org/ns#"
   xmlns:rdf="http://www.w3.org/1999/02/22-rdf-syntax-ns#"
   xmlns:svg="http://www.w3.org/2000/svg"
   xmlns="http://www.w3.org/2000/svg"
   xmlns:sodipodi="http://sodipodi.sourceforge.net/DTD/sodipodi-0.dtd"
   xmlns:inkscape="http://www.inkscape.org/namespaces/inkscape"
   width="1200"
   height="300"
   id="svg2"
   sodipodi:version="0.32"
   inkscape:version="1.0.1 (3bc2e813f5, 2020-09-07)"
   sodipodi:docname="np-broadcast-axis.svg"
   version="1.0">
  <sodipodi:namedview
     id="base"
     pagecolor="#ffffff"
     bordercolor="#666666"
     borderopacity="1.0"
     inkscape:pageopacity="0.0"
     inkscape:pageshadow="2"
     inkscape:zoom="1.41"
     inkscape:cx="588.46528"
     inkscape:cy="100.21014"
     inkscape:document-units="mm"
     inkscape:current-layer="layer1"
     inkscape:window-width="1920"
     inkscape:window-height="1061"
     inkscape:window-x="0"
     inkscape:window-y="19"
     width="12.8cm"
     height="9.6cm"
     units="cm"
     showgrid="false"
     grid_units="mm"
     inkscape:object-paths="true"
     inkscape:grid-points="true"
     inkscape:grid-bbox="true"
     inkscape:guide-points="true"
     showguides="true"
     inkscape:guide-bbox="true"
     inkscape:window-maximized="0"
     inkscape:snap-text-baseline="true"
     inkscape:snap-object-midpoints="true"
     inkscape:snap-grids="true"
     inkscape:snap-center="true"
     inkscape:snap-to-guides="true"
     inkscape:snap-midpoints="true"
     inkscape:snap-smooth-nodes="true"
     inkscape:snap-bbox="true"
     inkscape:document-rotation="0"
     inkscape:snap-global="false">
    <inkscape:grid
       id="GridFromPre046Settings"
       type="xygrid"
       originx="0px"
       originy="0px"
       spacingx="2mm"
       spacingy="2mm"
       color="#3f3fff"
       empcolor="#3f3fff"
       opacity="0.15"
       empopacity="0.38"
       empspacing="5" />
  </sodipodi:namedview>
  <metadata
     id="metadata7">
    <rdf:RDF>
      <cc:Work
         rdf:about="">
        <dc:format>image/svg+xml</dc:format>
        <dc:type
           rdf:resource="http://purl.org/dc/dcmitype/StillImage" />
        <dc:title />
      </cc:Work>
    </rdf:RDF>
  </metadata>
  <g
     inkscape:label="Layer 1"
     inkscape:groupmode="layer"
     id="layer1"
     transform="translate(0,-148.15747)">
    <path
       id="path156"
       style="fill:#ffaaaa;stroke:#ffaaaa;stroke-width:1px;stroke-linecap:butt;stroke-linejoin:miter;stroke-opacity:1"
       d="m 15.024628,379.97496 c 0.2045,17.42622 -2.4243,34.73312 -5.6775002,51.79348 0.1132,7.51754 7.9284002,5.07651 12.3249002,3.2469 9.6548,-2.07234 19.3235,-4.82934 29.2339,-5.12 5.0037,-0.52277 13.074,4.35812 15.0737,-2.76656 0.623,-5.37194 0.9476,-10.82698 2.0125,-16.17926 1.3971,-6.39839 0.858,-12.98935 1.8769,-19.4046 1.5973,-5.19913 4.375,-12.30233 -3.9972,-10.62269 -11.6932,-0.38402 -23.604,1.83601 -35.0928,-1.29026 -5.2089,-0.81591 -10.6146,-1.0046 -15.7544,0.34299 z" />
    <path
       id="path165"
       style="fill:#ffaaaa;stroke:#ffaaaa;stroke-width:1px;stroke-linecap:butt;stroke-linejoin:miter;stroke-opacity:1"
       d="m 10.894523,324.39233 c 0.4341,11.1052 -4.187,22.13285 -1.0633,33.1549 1.1909,5.83559 -1.6795,16.20253 7.9101,13.15874 13.004,0.40445 26.4856,-1.37267 39.044,3.09924 5.7303,2.07332 15.7817,0.20626 13.9124,-7.83171 -1.3875,-12.95551 -0.54,-26.00551 -1.0263,-39.00514 2.095,-6.44868 -5.1061,-10.67995 -10.7491,-9.69355 -12.1183,-0.15612 -23.8233,3.79646 -35.9184,4.10378 -4.1426,0.44761 -8.3203,1.21111 -12.1094,3.01374 z" />
    <path
       id="path174"
       style="fill:#ffaaaa;stroke:#ffaaaa;stroke-width:1px;stroke-linecap:butt;stroke-linejoin:miter;stroke-opacity:1"
       d="m 16.000317,262.8314 c -1.8862,15.73397 -4.1783,31.46662 -4.8261,47.30729 2.9366,6.97046 11.8705,1.38265 17.3809,1.67085 7.8443,-1.69178 15.7848,-3.15954 23.8493,-2.55743 4.712,-0.0996 9.4144,0.79871 14.0113,0.8009 6.4901,-2.78303 4.0064,-11.50242 5.4312,-17.06805 0.7124,-10.02361 0.2285,-20.09203 -0.7337,-30.08189 2.06,-6.68925 -6.3472,-9.18632 -10.9498,-5.85513 -11.0241,2.75367 -22.4771,2.92365 -33.6357,4.9199 -3.4992,0.39543 -7.0105,0.68436 -10.5274,0.86356 z" />
    <path
       id="path183"
       style="fill:#ffaaaa;stroke:#ffaaaa;stroke-width:1px;stroke-linecap:butt;stroke-linejoin:miter;stroke-opacity:1"
       d="m 80.41458,258.46029 c -1.7062,15.19294 0.5113,30.72279 -3.2381,45.6924 -2.288,7.59104 8.1611,5.75714 12.5734,6.75822 12.8044,1.14328 25.6447,3.77787 38.5062,3.07524 6.0561,-2.48338 4.9207,-10.03779 5.8156,-15.31817 1.7922,-9.30079 4.0764,-18.66033 3.0141,-28.21895 -0.3721,-6.18277 0.4157,-17.56402 -9.1833,-14.89378 -8.2034,0.52402 -16.4297,1.03365 -24.5854,2.25461 -5.8088,1.01787 -11.6609,1.09839 -17.2951,-0.82973 -1.9719,-0.30976 -4.0939,0.11841 -5.6074,1.48016 z" />
    <path
       id="path192"
       style="fill:#ffaaaa;stroke:#ffaaaa;stroke-width:1px;stroke-linecap:butt;stroke-linejoin:miter;stroke-opacity:1"
       d="m 76.599604,321.99143 c 0.5191,14.52801 0.5334,29.11316 -0.9973,43.58549 -3.9514,4.48634 0.3295,8.65875 5.1315,6.77132 16.059,-1.65803 32.167196,0.20732 48.250096,-0.27785 7.6209,1.86487 10.138,-5.67226 7.8049,-11.62078 -1.4579,-7.96865 -0.3333,-16.19206 -2.1216,-24.12455 -1.7372,-5.77097 5.9539,-13.61795 -0.064,-17.5523 -5.9138,-0.77593 -11.9508,0.98367 -17.9534,0.41135 -13.3846,-0.15677 -26.980296,-0.60517 -40.050396,2.80732 z" />
    <path
       id="path201"
       style="fill:#ffaaaa;stroke:#ffaaaa;stroke-width:1px;stroke-linecap:butt;stroke-linejoin:miter;stroke-opacity:1"
       d="m 76.722028,387.97706 c -1.3021,12.62719 -1.2396,25.42087 -2.8701,37.98164 -2.9435,8.88717 7.6335,2.74362 12.1682,3.94504 11.6701,-0.14063 23.400102,0.27664 35.014202,-0.83856 4.3219,0.81623 11.6405,6.79758 12.6917,-0.93199 1.4266,-11.15034 -0.5207,-22.40361 -0.6405,-33.59389 -0.5305,-4.84307 0.6431,-11.63329 -4.5483,-14.28964 -6.8245,-2.6499 -13.8522,1.31747 -20.8377,1.1632 -6.642,0.18945 -13.321302,0.63672 -19.697102,2.58804 -3.9316,0.50083 -8.7715,0.27043 -11.2804,3.97616 z" />
    <path
       id="path169"
       style="fill:#ffaaaa;stroke:#ffaaaa;stroke-width:1px;stroke-linecap:butt;stroke-linejoin:miter;stroke-opacity:1"
       d="m 209.2753,260.77729 c 1.15953,14.21238 1.53787,28.50116 0.80405,42.74655 -1.89389,2.85556 -3.62011,9.18678 2.17172,7.60241 9.76825,0.21223 19.51413,1.26862 29.20089,2.55329 5.43677,0.99811 10.89775,-0.12321 15.74374,-2.44774 4.16859,1.2134 8.3106,-0.88693 7.17731,-5.82269 -0.30194,-12.36594 -3.33813,-24.76154 -1.09168,-37.12306 0.38807,-3.49859 1.63359,-9.48598 -3.23599,-10.24008 -4.36779,-0.15169 -8.67381,-0.73325 -13.03113,-1.11897 -12.66523,-0.92916 -25.60437,-0.0991 -37.73891,3.85029 z" />
    <path
       id="path177"
       style="fill:#f4d7d7;stroke:#f4d7d7;stroke-width:1px;stroke-linecap:butt;stroke-linejoin:miter;stroke-opacity:1"
       d="m 211.03281,318.09757 c -3.26962,10.5041 -3.61349,21.57792 -5.14804,32.3758 -2.08205,6.63491 -3.36867,14.09884 -0.78596,20.66607 5.6207,-0.11271 11.99304,-9.8e-4 17.97233,0.10764 11.79322,-0.84036 23.54297,-2.39492 35.32565,-3.21828 6.00129,-1.16236 4.61749,-7.83957 5.14219,-12.27996 0.91165,-8.19013 1.16744,-16.5052 -0.32042,-24.62947 0.45907,-4.14728 2.86948,-12.40049 -3.99532,-11.94403 -4.86258,1.26521 -9.193,-1.27381 -13.82525,-2.20862 -7.3911,-1.81571 -14.89222,-0.10861 -22.15501,1.3822 -4.03538,0.6268 -8.23417,0.86124 -12.21017,-0.25135 z" />
    <path
       id="path186"
       style="fill:#f4d7d7;stroke:#f4d7d7;stroke-width:1px;stroke-linecap:butt;stroke-linejoin:miter;stroke-opacity:1"
       d="m 205.44723,378.75145 c 16.59643,-3.92813 33.91779,-4.24059 50.75643,-1.79669 3.96237,-0.49461 11.82258,-1.98705 11.09926,4.44714 -2.2826,7.92236 -2.69779,16.23096 -4.12883,24.33442 -1.03688,6.65932 -0.45499,13.39021 -0.48027,20.07957 -0.51934,4.33078 -2.47288,10.53747 -7.53436,10.7818 -6.47024,-0.37494 -13.22105,1.02669 -19.40393,-1.65856 -5.99305,-2.35565 -12.44652,-2.25245 -18.65255,-0.93894 -5.64603,1.24065 -13.24057,-1.71823 -12.87332,-8.44032 0.2291,-9.3515 2.67306,-18.69573 1.0553,-28.06438 -0.44541,-6.25441 1.76989,-12.54999 0.16227,-18.74404 z" />
    <path
       id="path194"
       style="fill:#ffaaaa;stroke:#ffaaaa;stroke-width:1px;stroke-linecap:butt;stroke-linejoin:miter;stroke-opacity:1"
       d="m 271.06576,264.98006 c 2.521,11.26637 0.25767,22.95084 -3.59225,33.61701 -1.33953,6.04484 1.19307,14.53848 8.47972,14.80084 9.10242,0.87936 18.39264,-1.97244 27.37777,0.72716 5.23976,3.11885 8.28383,-2.44356 12.48882,-4.02502 7.20326,1.6918 8.88622,-7.0989 7.64328,-12.31692 -0.007,-9.41129 -0.0446,-18.85261 1.2384,-28.1797 -0.51128,-7.45324 -7.75939,-12.98082 -14.74609,-14.18644 -6.36816,-0.80967 -12.48371,1.94106 -18.71767,2.84085 -6.90282,1.65144 -14.76913,1.36938 -20.17198,6.72222 z" />
    <path
       id="path204"
       style="fill:#f4d7d7;stroke:#f4d7d7;stroke-width:1px;stroke-linecap:butt;stroke-linejoin:miter;stroke-opacity:1"
       d="m 269.93342,320.2077 c 0.43481,9.77918 -1.74453,19.37767 -3.07709,28.9956 -0.50624,7.22781 0.54091,15.04355 -3.14893,21.59268 2.43465,3.35985 7.45604,-2.13058 11.14805,-1.63948 9.03271,-1.51703 18.21582,-1.95423 27.33715,-2.67786 5.58369,-0.16622 11.69473,0.39869 16.20013,3.99637 5.26761,2.96289 7.78992,-3.7549 6.73894,-7.96191 -1.09636,-9.68011 -1.37455,-19.43963 -0.49612,-29.15267 -0.79387,-4.12937 2.72894,-8.46695 0.35645,-12.21141 -4.87732,-2.67862 -10.75974,-3.12593 -16.21118,-4.00482 -9.75436,-1.6884 -18.93948,3.24478 -28.51566,3.78495 -3.455,-0.0863 -6.86272,-1.06564 -10.33174,-0.72145 z" />
    <path
       id="path220"
       style="fill:#f4d7d7;stroke:#f4d7d7;stroke-width:1px;stroke-linecap:butt;stroke-linejoin:miter;stroke-opacity:1"
       d="m 269.01258,378.38693 c 1.64925,11.68734 0.65129,23.50299 0.81755,35.23837 0.52764,5.38288 1.90503,11.63635 -2.36331,15.96341 -1.62235,6.28634 6.77967,3.00715 9.67175,1.44576 11.52346,-3.98225 23.74055,-0.16978 35.56907,-0.69041 3.79808,-0.3707 8.72242,1.60318 11.61305,-1.64756 3.06547,-5.65179 1.89447,-12.39727 2.1431,-18.57559 -0.0684,-6.66548 1.49127,-13.28082 0.4647,-19.94587 -1.08852,-4.77466 0.68688,-9.92488 -1.37039,-14.48065 -3.90904,-1.96124 -8.15769,1.39728 -12.33039,0.38961 -9.48982,-0.12908 -19.23059,-1.68566 -28.45888,1.35885 -5.20394,1.54223 -10.55663,-0.15726 -15.75625,0.94408 z" />
    <path
       id="path229"
       style="fill:#ffaaaa;stroke:#ffaaaa;stroke-width:1px;stroke-linecap:butt;stroke-linejoin:miter;stroke-opacity:1"
       d="m 396.42343,260.43978 c -0.21355,11.00428 -3.60164,21.62778 -4.56413,32.52697 1.24673,6.24038 0.17433,12.98476 -1.18895,18.4505 5.55327,-0.22843 10.85938,1.41048 16.39628,2.19519 10.57616,1.34635 21.26371,0.78423 31.88025,1.33666 7.36749,0.71582 13.12276,-5.9446 12.03505,-13.09839 -1.22492,-9.11737 -1.95203,-18.30206 -2.79501,-27.45156 -3.04489,-5.46448 1.4618,-12.52349 -2.38125,-17.02675 -5.1287,-2.31481 -10.43643,1.42117 -15.75577,1.28203 -7.47252,0.71812 -15.12936,2.1588 -22.59115,0.9601 -3.58621,-0.87949 -8.00615,-2.08252 -11.03532,0.82525 z" />
    <path
       id="path238"
       style="fill:#ffaaaa;stroke:#ffaaaa;stroke-width:1px;stroke-linecap:butt;stroke-linejoin:miter;stroke-opacity:1"
       d="m 392.37099,321.07111 c 0.91931,14.58674 2.43201,30.22358 -4.58405,43.66624 -3.26934,4.3014 1.5246,9.88254 6.17535,6.2939 13.60644,-5.29977 28.38625,-2.14145 42.53385,-2.91451 4.79151,-1.40336 9.72414,0.56377 14.21143,0.47468 2.79474,-3.98807 2.43577,-9.38585 3.19079,-14.05474 0.85378,-9.46542 0.54628,-19.04853 -1.42573,-28.3586 0.25229,-3.97636 -0.99853,-8.91243 -5.99867,-8.44998 -7.18501,-0.0109 -14.16914,2.48466 -21.39779,2.1381 -6.3591,-0.0578 -12.68808,0.60497 -19.01151,1.05482 -4.76254,1.22867 -10.51462,-6.25409 -13.72428,-0.93082 l -0.0305,0.5108 z" />
    <path
       id="path246"
       style="fill:#ffaaaa;stroke:#ffaaaa;stroke-width:1px;stroke-linecap:butt;stroke-linejoin:miter;stroke-opacity:1"
       d="m 392.53826,375.76519 c -7.57901,15.9303 -9.19604,34.70771 -4.00993,51.60824 0.71362,4.59608 3.90127,5.93885 8.12874,5.32255 8.91318,0.70758 17.75889,-0.65512 26.60162,-1.50398 6.48335,-0.7014 13.0743,0.008 19.50855,-1.04988 5.56499,-0.65088 4.57633,-6.97238 4.14219,-10.96866 -1.32163,-9.54886 2.84545,-18.61158 3.10721,-28.05064 -0.96341,-4.89446 4.13996,-9.84971 0.99332,-14.39284 -3.50624,-2.94866 -8.54722,-2.35311 -12.815,-3.09884 -13.52245,-0.38095 -26.65191,5.59474 -40.22258,3.20867 -1.82898,-0.25989 -3.64395,-0.61849 -5.43412,-1.07462 z" />
    <path
       id="path260"
       style="fill:#ffaaaa;stroke:#ffaaaa;stroke-width:1px;stroke-linecap:butt;stroke-linejoin:miter;stroke-opacity:1"
       d="m 455.68665,258.793 c 4.47172,13.97713 3.80631,29.04435 0.5769,43.20575 0.55466,4.49361 -5.25094,8.48171 -3.02356,12.33083 4.62736,2.09848 9.26371,-2.18994 14.10316,-1.82636 7.38486,-0.63223 14.79908,-0.87913 22.17893,-1.56682 7.3701,-0.353 15.05063,0.83271 22.16057,-1.57262 3.90065,-1.78573 4.77533,-6.44572 3.97331,-10.2722 -1.2684,-8.6781 -2.56385,-17.40591 -2.03584,-26.20853 0.0926,-4.78853 0.37361,-9.57074 0.79957,-14.3286 -1.4285,-5.14261 -7.66912,1.62532 -11.39783,-0.383 -7.80051,-0.13639 -15.66403,0.44404 -23.40906,-0.87977 -6.77079,-1.32135 -13.31752,1.28973 -19.98757,1.82237 -1.319,0.0462 -2.64716,-0.0401 -3.93858,-0.32105 z" />
    <path
       id="path268"
       style="fill:#ffaaaa;stroke:#ffaaaa;stroke-width:1px;stroke-linecap:butt;stroke-linejoin:miter;stroke-opacity:1"
       d="m 458.54021,318.02155 c 2.53567,12.41691 -1.58412,24.95178 0.12232,37.41937 1.94529,6.61358 -6.31851,14.21264 0.17569,19.41971 6.15185,3.73825 12.99591,-1.50573 19.37668,-1.94734 10.69991,-0.37867 21.87478,2.83275 32.1628,-1.56488 8.21819,-1.94799 12.06753,-10.37932 10.10364,-18.21365 -1.62598,-11.28832 0.44215,-22.80157 -1.81896,-34.01063 -4.08456,-5.64188 -12.04854,-3.28884 -17.79833,-2.38224 -8.3283,2.09718 -16.95356,0.59338 -25.31983,2.38637 -5.85548,1.74459 -11.29069,-1.58013 -17.00401,-1.10671 z" />
    <path
       id="path277"
       style="fill:#ffaaaa;stroke:#ffaaaa;stroke-width:1px;stroke-linecap:butt;stroke-linejoin:miter;stroke-opacity:1"
       d="m 457.50628,377.63762 c 19.10289,3.34866 38.28005,-1.20488 57.37124,-1.97183 8.03613,-0.51767 7.13214,8.38131 5.61638,13.55533 -1.70928,14.25191 -2.26595,28.63001 -2.1793,42.97441 -2.50111,8.07359 -10.72069,0.71471 -15.79255,0.32264 -8.40332,-1.45189 -16.91643,-3.64353 -25.47262,-1.98249 -5.79206,1.13482 -11.67047,0.58841 -17.49277,0.81524 -4.8411,2.2764 -12.05988,1.49161 -7.97058,-5.34473 4.22944,-7.28994 9.2616,-15.14901 7.56332,-24.01036 -0.80884,-8.09081 -2.69811,-16.19511 -1.64312,-24.35821 z" />
    <path
       id="path286"
       style="fill:#ffaaaa;stroke:#ffaaaa;stroke-width:1px;stroke-linecap:butt;stroke-linejoin:miter;stroke-opacity:1"
       d="m 685.29308,380.94728 c 0.2045,17.42622 -2.4243,34.73312 -5.6775,51.79348 0.1132,7.51754 7.9284,5.07651 12.3249,3.2469 9.6548,-2.07234 19.3235,-4.82934 29.2339,-5.12 5.0037,-0.52277 13.074,4.35812 15.0737,-2.76656 0.623,-5.37194 0.9476,-10.82698 2.0125,-16.17926 1.3971,-6.39839 0.858,-12.98935 1.8769,-19.4046 1.5973,-5.19913 4.375,-12.30233 -3.9972,-10.62269 -11.6932,-0.38402 -23.604,1.83601 -35.0928,-1.29026 -5.2089,-0.81591 -10.6146,-1.0046 -15.7544,0.34299 z" />
    <path
       id="path288"
       style="fill:#ffaaaa;stroke:#ffaaaa;stroke-width:1px;stroke-linecap:butt;stroke-linejoin:miter;stroke-opacity:1"
       d="m 681.16297,325.36465 c 0.4341,11.1052 -4.187,22.13285 -1.0633,33.1549 1.1909,5.83559 -1.6795,16.20253 7.9101,13.15874 13.004,0.40445 26.4856,-1.37267 39.044,3.09924 5.7303,2.07332 15.7817,0.20626 13.9124,-7.83171 -1.3875,-12.95551 -0.54,-26.00551 -1.0263,-39.00514 2.095,-6.44868 -5.1061,-10.67995 -10.7491,-9.69355 -12.1183,-0.15612 -23.8233,3.79646 -35.9184,4.10378 -4.1426,0.44761 -8.3203,1.21111 -12.1094,3.01374 z" />
    <path
       id="path290"
       style="fill:#ffaaaa;stroke:#ffaaaa;stroke-width:1px;stroke-linecap:butt;stroke-linejoin:miter;stroke-opacity:1"
       d="m 686.26877,263.80372 c -1.8862,15.73397 -4.1783,31.46662 -4.8261,47.30729 2.9366,6.97046 11.8705,1.38265 17.3809,1.67085 7.8443,-1.69178 15.7848,-3.15954 23.8493,-2.55743 4.712,-0.0996 9.4144,0.79871 14.0113,0.8009 6.4901,-2.78303 4.0064,-11.50242 5.4312,-17.06805 0.7124,-10.02361 0.2285,-20.09203 -0.7337,-30.08189 2.06,-6.68925 -6.3472,-9.18632 -10.9498,-5.85513 -11.0241,2.75367 -22.4771,2.92365 -33.6357,4.9199 -3.4992,0.39543 -7.0105,0.68436 -10.5274,0.86356 z" />
    <path
       id="path292"
       style="fill:#ffaaaa;stroke:#ffaaaa;stroke-width:1px;stroke-linecap:butt;stroke-linejoin:miter;stroke-opacity:1"
       d="m 750.68303,259.43261 c -1.7062,15.19294 0.5113,30.72279 -3.2381,45.6924 -2.288,7.59104 8.1611,5.75714 12.5734,6.75822 12.8044,1.14328 25.6447,3.77787 38.5062,3.07524 6.0561,-2.48338 4.9207,-10.03779 5.8156,-15.31817 1.7922,-9.30079 4.0764,-18.66033 3.0141,-28.21895 -0.3721,-6.18277 0.4157,-17.56402 -9.1833,-14.89378 -8.2034,0.52402 -16.4297,1.03365 -24.5854,2.25461 -5.8088,1.01787 -11.6609,1.09839 -17.2951,-0.82973 -1.9719,-0.30976 -4.0939,0.11841 -5.6074,1.48016 z" />
    <path
       id="path294"
       style="fill:#ffaaaa;stroke:#ffaaaa;stroke-width:1px;stroke-linecap:butt;stroke-linejoin:miter;stroke-opacity:1"
       d="m 746.86805,322.96375 c 0.5191,14.52801 0.5334,29.11316 -0.9973,43.58549 -3.9514,4.48634 0.3295,8.65875 5.1315,6.77132 16.059,-1.65803 32.1672,0.20732 48.2501,-0.27785 7.6209,1.86487 10.138,-5.67226 7.8049,-11.62078 -1.4579,-7.96865 -0.3333,-16.19206 -2.1216,-24.12455 -1.7372,-5.77097 5.9539,-13.61795 -0.064,-17.5523 -5.9138,-0.77593 -11.9508,0.98367 -17.9534,0.41135 -13.3846,-0.15677 -26.9803,-0.60517 -40.0504,2.80732 z" />
    <path
       id="path296"
       style="fill:#ffaaaa;stroke:#ffaaaa;stroke-width:1px;stroke-linecap:butt;stroke-linejoin:miter;stroke-opacity:1"
       d="m 746.99048,388.94938 c -1.3021,12.62719 -1.2396,25.42087 -2.8701,37.98164 -2.9435,8.88717 7.6335,2.74362 12.1682,3.94504 11.6701,-0.14063 23.4001,0.27664 35.0142,-0.83856 4.3219,0.81623 11.6405,6.79758 12.6917,-0.93199 1.4266,-11.15034 -0.5207,-22.40361 -0.6405,-33.59389 -0.5305,-4.84307 0.6431,-11.63329 -4.5483,-14.28964 -6.8245,-2.6499 -13.8522,1.31747 -20.8377,1.1632 -6.642,0.18945 -13.3213,0.63672 -19.6971,2.58804 -3.9316,0.50083 -8.7715,0.27043 -11.2804,3.97616 z" />
    <path
       id="path298"
       style="fill:#ffaaaa;stroke:#ffaaaa;stroke-width:1px;stroke-linecap:butt;stroke-linejoin:miter;stroke-opacity:1"
       d="m 879.54375,261.74961 c 1.15953,14.21238 1.53787,28.50116 0.80405,42.74655 -1.89389,2.85556 -3.62011,9.18678 2.17172,7.60241 9.76825,0.21223 19.51413,1.26862 29.20089,2.55329 5.43677,0.99811 10.89775,-0.12321 15.74374,-2.44774 4.16859,1.2134 8.3106,-0.88693 7.17731,-5.82269 -0.30194,-12.36594 -3.33813,-24.76154 -1.09168,-37.12306 0.38807,-3.49859 1.63359,-9.48598 -3.23599,-10.24008 -4.36779,-0.15169 -8.67381,-0.73325 -13.03113,-1.11897 -12.66523,-0.92916 -25.60437,-0.0991 -37.73891,3.85029 z" />
    <path
       id="path300"
       style="fill:#ffaaaa;stroke:#ffaaaa;stroke-width:1px;stroke-linecap:butt;stroke-linejoin:miter;stroke-opacity:1"
       d="m 881.30126,319.06989 c -3.26962,10.5041 -3.61349,21.57792 -5.14804,32.3758 -2.08205,6.63491 -3.36867,14.09884 -0.78596,20.66607 5.6207,-0.11271 11.99304,-9.8e-4 17.97233,0.10764 11.79322,-0.84036 23.54297,-2.39492 35.32565,-3.21828 6.00129,-1.16236 4.61749,-7.83957 5.14219,-12.27996 0.91165,-8.19013 1.16744,-16.5052 -0.32042,-24.62947 0.45907,-4.14728 2.86948,-12.40049 -3.99532,-11.94403 -4.86258,1.26521 -9.193,-1.27381 -13.82525,-2.20862 -7.3911,-1.81571 -14.89222,-0.10861 -22.15501,1.3822 -4.03538,0.6268 -8.23417,0.86124 -12.21017,-0.25135 z" />
    <path
       id="path302"
       style="fill:#ffaaaa;stroke:#ffaaaa;stroke-width:1px;stroke-linecap:butt;stroke-linejoin:miter;stroke-opacity:1"
       d="m 875.71568,379.72377 c 16.59643,-3.92813 33.91779,-4.24059 50.75643,-1.79669 3.96237,-0.49461 11.82258,-1.98705 11.09926,4.44714 -2.2826,7.92236 -2.69779,16.23096 -4.12883,24.33442 -1.03688,6.65932 -0.45499,13.39021 -0.48027,20.07957 -0.51934,4.33078 -2.47288,10.53747 -7.53436,10.7818 -6.47024,-0.37494 -13.22105,1.02669 -19.40393,-1.65856 -5.99305,-2.35565 -12.44652,-2.25245 -18.65255,-0.93894 -5.64603,1.24065 -13.24057,-1.71823 -12.87332,-8.44032 0.2291,-9.3515 2.67306,-18.69573 1.0553,-28.06438 -0.44541,-6.25441 1.76989,-12.54999 0.16227,-18.74404 z" />
    <path
       id="path304"
       style="fill:#f4d7d7;stroke:#f4d7d7;stroke-width:1px;stroke-linecap:butt;stroke-linejoin:miter;stroke-opacity:1"
       d="m 941.33421,265.95238 c 2.521,11.26637 0.25767,22.95084 -3.59225,33.61701 -1.33953,6.04484 1.19307,14.53848 8.47972,14.80084 9.10242,0.87936 18.39264,-1.97244 27.37777,0.72716 5.23976,3.11885 8.28383,-2.44356 12.48882,-4.02502 7.20326,1.6918 8.88622,-7.0989 7.64328,-12.31692 -0.007,-9.41129 -0.0446,-18.85261 1.2384,-28.1797 -0.51128,-7.45324 -7.75939,-12.98082 -14.74609,-14.18644 -6.36816,-0.80967 -12.48371,1.94106 -18.71767,2.84085 -6.90282,1.65144 -14.76913,1.36938 -20.17198,6.72222 z" />
    <path
       id="path306"
       style="fill:#f4d7d7;stroke:#f4d7d7;stroke-width:1px;stroke-linecap:butt;stroke-linejoin:miter;stroke-opacity:1"
       d="m 940.20187,321.18002 c 0.43481,9.77918 -1.74453,19.37767 -3.07709,28.9956 -0.50624,7.22781 0.54091,15.04355 -3.14893,21.59268 2.43465,3.35985 7.45604,-2.13058 11.14805,-1.63948 9.03271,-1.51703 18.21582,-1.95423 27.33715,-2.67786 5.58369,-0.16622 11.69473,0.39869 16.20013,3.99637 5.26761,2.96289 7.78992,-3.7549 6.73894,-7.96191 -1.09636,-9.68011 -1.37455,-19.43963 -0.49612,-29.15267 -0.79387,-4.12937 2.72894,-8.46695 0.35645,-12.21141 -4.87732,-2.67862 -10.75974,-3.12593 -16.21118,-4.00482 -9.75436,-1.6884 -18.93948,3.24478 -28.51566,3.78495 -3.455,-0.0863 -6.86272,-1.06564 -10.33174,-0.72145 z" />
    <path
       id="path308"
       style="fill:#f4d7d7;stroke:#f4d7d7;stroke-width:1px;stroke-linecap:butt;stroke-linejoin:miter;stroke-opacity:1"
       d="m 939.28103,379.35925 c 1.64925,11.68734 0.65129,23.50299 0.81755,35.23837 0.52764,5.38288 1.90503,11.63635 -2.36331,15.96341 -1.62235,6.28634 6.77967,3.00715 9.67175,1.44576 11.52346,-3.98225 23.74055,-0.16978 35.56907,-0.69041 3.79808,-0.3707 8.72242,1.60318 11.61305,-1.64756 3.06547,-5.65179 1.89447,-12.39727 2.1431,-18.57559 -0.0684,-6.66548 1.49127,-13.28082 0.4647,-19.94587 -1.08852,-4.77466 0.68688,-9.92488 -1.37039,-14.48065 -3.90904,-1.96124 -8.15769,1.39728 -12.33039,0.38961 -9.48982,-0.12908 -19.23059,-1.68566 -28.45888,1.35885 -5.20394,1.54223 -10.55663,-0.15726 -15.75625,0.94408 z" />
    <path
       id="path310"
       style="fill:#ffaaaa;stroke:#ffaaaa;stroke-width:1px;stroke-linecap:butt;stroke-linejoin:miter;stroke-opacity:1"
       d="m 1066.6919,261.4121 c -0.2136,11.00428 -3.6017,21.62778 -4.5641,32.52697 1.2467,6.24038 0.1743,12.98476 -1.189,18.4505 5.5533,-0.22843 10.8594,1.41048 16.3963,2.19519 10.5761,1.34635 21.2637,0.78423 31.8802,1.33666 7.3675,0.71582 13.1228,-5.9446 12.0351,-13.09839 -1.2249,-9.11737 -1.952,-18.30206 -2.795,-27.45156 -3.0449,-5.46448 1.4618,-12.52349 -2.3813,-17.02675 -5.1287,-2.31481 -10.4364,1.42117 -15.7557,1.28203 -7.4726,0.71812 -15.1294,2.1588 -22.5912,0.9601 -3.5862,-0.87949 -8.0061,-2.08252 -11.0353,0.82525 z" />
    <path
       id="path312"
       style="fill:#ffaaaa;stroke:#ffaaaa;stroke-width:1px;stroke-linecap:butt;stroke-linejoin:miter;stroke-opacity:1"
       d="m 1062.6394,322.04343 c 0.9194,14.58674 2.4321,30.22358 -4.584,43.66624 -3.2693,4.3014 1.5246,9.88254 6.1753,6.2939 13.6065,-5.29977 28.3863,-2.14145 42.5339,-2.91451 4.7915,-1.40336 9.7241,0.56377 14.2114,0.47468 2.7948,-3.98807 2.4358,-9.38585 3.1908,-14.05474 0.8538,-9.46542 0.5463,-19.04853 -1.4257,-28.3586 0.2523,-3.97636 -0.9985,-8.91243 -5.9987,-8.44998 -7.185,-0.0109 -14.1691,2.48466 -21.3978,2.1381 -6.3591,-0.0578 -12.6881,0.60497 -19.0115,1.05482 -4.7625,1.22867 -10.5146,-6.25409 -13.7243,-0.93082 l -0.031,0.5108 z" />
    <path
       id="path314"
       style="fill:#ffaaaa;stroke:#ffaaaa;stroke-width:1px;stroke-linecap:butt;stroke-linejoin:miter;stroke-opacity:1"
       d="m 1062.8067,376.73751 c -7.579,15.9303 -9.196,34.70771 -4.0099,51.60824 0.7136,4.59608 3.9013,5.93885 8.1287,5.32255 8.9132,0.70758 17.7589,-0.65512 26.6016,-1.50398 6.4834,-0.7014 13.0743,0.008 19.5086,-1.04988 5.565,-0.65088 4.5763,-6.97238 4.1422,-10.96866 -1.3216,-9.54886 2.8454,-18.61158 3.1072,-28.05064 -0.9634,-4.89446 4.14,-9.84971 0.9933,-14.39284 -3.5062,-2.94866 -8.5472,-2.35311 -12.815,-3.09884 -13.5224,-0.38095 -26.6519,5.59474 -40.2226,3.20867 -1.8289,-0.25989 -3.6439,-0.61849 -5.4341,-1.07462 z" />
    <path
       id="path316"
       style="fill:#ffaaaa;stroke:#ffaaaa;stroke-width:1px;stroke-linecap:butt;stroke-linejoin:miter;stroke-opacity:1"
       d="m 1125.9551,259.76532 c 4.4717,13.97713 3.8063,29.04435 0.5769,43.20575 0.5547,4.49361 -5.2509,8.48171 -3.0236,12.33083 4.6274,2.09848 9.2638,-2.18994 14.1032,-1.82636 7.3849,-0.63223 14.7991,-0.87913 22.1789,-1.56682 7.3701,-0.353 15.0507,0.83271 22.1606,-1.57262 3.9007,-1.78573 4.7753,-6.44572 3.9733,-10.2722 -1.2684,-8.6781 -2.5638,-17.40591 -2.0358,-26.20853 0.093,-4.78853 0.3736,-9.57074 0.7995,-14.3286 -1.4285,-5.14261 -7.6691,1.62532 -11.3978,-0.383 -7.8005,-0.13639 -15.664,0.44404 -23.409,-0.87977 -6.7708,-1.32135 -13.3176,1.28973 -19.9876,1.82237 -1.319,0.0462 -2.6472,-0.0401 -3.9386,-0.32105 z" />
    <path
       id="path318"
       style="fill:#ffaaaa;stroke:#ffaaaa;stroke-width:1px;stroke-linecap:butt;stroke-linejoin:miter;stroke-opacity:1"
       d="m 1128.8087,318.99387 c 2.5356,12.41691 -1.5842,24.95178 0.1223,37.41937 1.9453,6.61358 -6.3185,14.21264 0.1757,19.41971 6.1518,3.73825 12.9959,-1.50573 19.3767,-1.94734 10.6999,-0.37867 21.8747,2.83275 32.1628,-1.56488 8.2181,-1.94799 12.0675,-10.37932 10.1036,-18.21365 -1.626,-11.28832 0.4421,-22.80157 -1.819,-34.01063 -4.0845,-5.64188 -12.0485,-3.28884 -17.7983,-2.38224 -8.3283,2.09718 -16.9536,0.59338 -25.3198,2.38637 -5.8555,1.74459 -11.2907,-1.58013 -17.004,-1.10671 z" />
    <path
       id="path320"
       style="fill:#ffaaaa;stroke:#ffaaaa;stroke-width:1px;stroke-linecap:butt;stroke-linejoin:miter;stroke-opacity:1"
       d="m 1127.7747,378.60994 c 19.1029,3.34866 38.2801,-1.20488 57.3713,-1.97183 8.0361,-0.51767 7.1321,8.38131 5.6164,13.55533 -1.7093,14.25191 -2.266,28.63001 -2.1793,42.97441 -2.5012,8.07359 -10.7207,0.71471 -15.7926,0.32264 -8.4033,-1.45189 -16.9164,-3.64353 -25.4726,-1.98249 -5.7921,1.13482 -11.6705,0.58841 -17.4928,0.81524 -4.8411,2.2764 -12.0599,1.49161 -7.9706,-5.34473 4.2295,-7.28994 9.2616,-15.14901 7.5634,-24.01036 -0.8089,-8.09081 -2.6982,-16.19511 -1.6432,-24.35821 z" />
    <path
       id="path322"
       style="fill:#000000;stroke:#000000;stroke-width:1.00157;stroke-linecap:round"
       d="m 39.079887,277.59281 c 0.09468,-3.98997 5.951158,-6.74029 5.772048,-1.09004 0.146483,3.75218 -1.242501,7.50699 -2.786517,10.88381 -3.124448,5.97554 -8.566038,10.5894 -14.778007,13.11819 -2.763557,3.85021 4.283211,5.30817 6.85565,3.7399 5.447171,-2.95806 11.509824,-4.60079 17.685318,-5.11093 5.272979,0.94738 3.408515,-5.43653 -0.670326,-5.02015 -3.769307,-0.03 -7.27187,1.95589 -10.911339,2.82596 -3.689318,1.12957 -7.391392,2.46711 -11.095336,3.33823 -0.398571,4.33798 7.057786,3.76262 7.906548,-0.34152 5.82363,-7.55811 12.050292,-16.45784 10.787966,-26.50289 -1.104281,-4.879 -7.231224,-4.54282 -9.911418,-1.2318 -2.725942,2.01638 -3.485199,5.92512 1.145413,5.39124 z" />
    <path
       id="path326"
       style="fill:#000000;stroke:#000000;stroke-width:1.00157;stroke-linecap:round"
       d="m 106.71537,273.69956 c 0.33854,-0.55991 2.58546,-0.0828 0.94499,-0.0506 3.66872,2.09536 3.74988,8.57361 -0.37775,10.1882 -1.2016,0.4594 -4.08596,0.39586 -4.34945,0.19458 2.06796,-0.67295 4.19476,1.08318 3.92129,3.23558 0.68851,2.04231 -3.61814,0.97236 -1.04552,1.62973 2.23526,0.76156 5.42117,2.43669 4.87703,5.24798 -1.27513,2.47296 -4.33298,2.97878 -6.49337,4.41089 -2.59459,1.87458 -6.449682,1.60196 -8.43195,4.38398 -0.558367,1.92472 1.589306,3.16723 3.235419,3.26024 4.058061,0.6288 7.442171,-2.15003 10.841911,-3.86082 3.07925,-1.68899 6.65321,-4.07184 6.95472,-7.91428 0.36902,-4.23224 -3.14319,-7.56215 -6.67247,-9.23472 -2.73197,-0.97707 -6.05091,-1.93327 -8.85726,-0.68574 -2.393655,1.39698 -0.67258,5.5014 2.00846,5.00055 2.55394,-0.22942 5.27525,-0.13183 7.55801,-1.52362 3.60805,-1.83161 4.50707,-6.39143 3.78104,-10.05576 -0.54483,-2.57942 -1.34003,-5.72703 -4.10706,-6.73964 -2.03551,-0.81153 -4.35303,-0.79044 -6.45198,-0.28134 -0.7009,1.18539 2.20179,1.86334 2.66394,2.79479 z" />
    <path
       id="path328"
       style="fill:#000000;stroke:#000000;stroke-width:1.00157;stroke-linecap:round"
       d="m 34.042656,330.17476 c -2.261043,2.12711 -5.052649,5.56326 -2.959107,8.71131 2.372192,3.45732 6.963035,4.21486 9.692812,7.3234 3.150941,3.07045 4.541442,8.33677 1.897572,12.16394 -0.98485,2.33815 -4.732741,4.81695 -6.43611,3.93484 3.012156,-0.25595 -2.074712,-1.25619 -1.995849,-2.798 -2.358687,-3.51683 0.446115,-7.40596 2.650532,-10.16641 3.635925,-4.42967 8.476449,-8.93213 8.440956,-15.11074 0.13971,-3.00814 -3.072334,-6.04376 -5.987014,-4.33633 -1.030917,0.52413 -2.74244,0.89999 -1.490837,1.26145 0.790679,2.05715 3.680057,3.50927 2.426308,6.41319 -1.835906,7.27842 -9.879377,11.1873 -11.141182,18.71959 -0.508,4.85467 3.830351,9.9943 8.900438,9.31085 3.748301,0.31775 6.11961,-3.13646 7.683805,-6.04608 2.770862,-4.59015 1.359763,-10.74288 -2.500018,-14.26376 -2.500787,-2.72948 -5.990941,-4.2344 -8.681253,-6.70919 -2.079084,-1.82928 -0.742762,-4.95733 1.534782,-5.86184 2.127319,-1.27441 -1.450471,-1.75364 -2.035835,-2.54622 z" />
    <path
       id="path332"
       style="fill:#000000;stroke:#000000;stroke-width:1.00157;stroke-linecap:round"
       d="m 110.11916,339.86024 c -1.79903,0.67393 -6.66701,1.33497 -6.52069,0.782 -3.760333,0.18314 -3.50631,-4.09269 -1.72034,-6.14106 -0.035,-1.20343 3.96963,-1.87913 1.49287,-1.63147 4.4997,1.33225 7.21768,6.19364 6.53724,10.7431 -1.14987,7.9743 -7.18457,13.98268 -12.601954,19.45648 -1.452054,0.71 -4.682145,5.2911 -1.227374,4.72272 4.250198,-1.30341 6.934478,-5.10413 9.869078,-8.18965 3.09867,-3.91625 5.98105,-8.19373 7.48458,-12.99106 1.59607,-6.27772 -1.27132,-14.21731 -7.7422,-16.39911 -3.10191,-0.80836 -6.910942,0.3181 -8.105147,3.54851 -1.776867,2.71038 -2.934401,7.03426 0.329874,9.16341 3.135393,1.90412 7.057563,1.10138 10.466613,0.54105 1.72723,-0.53671 5.90031,-1.10399 2.67355,-2.78905 -0.31203,-0.27197 -0.62406,-0.54392 -0.9361,-0.81587 z" />
    <path
       id="path334"
       style="fill:#000000;stroke:#000000;stroke-width:1.00157;stroke-linecap:round"
       d="m 27.85208,408.51955 c 1.644736,-3.74572 3.131284,-7.57634 5.16913,-11.134 0.548596,-1.60169 1.399623,-3.83031 -1.145469,-2.96796 -2.799237,0.0349 -1.074798,3.22439 -1.379836,4.93287 0.279405,5.81286 0.04457,11.64703 -0.129418,17.44696 0.310721,2.13786 -1.101085,4.45666 0.520434,6.31156 1.132869,2.73758 1.861575,-0.88973 2.457842,-2.12063 -0.490983,-1.86114 -0.294545,-3.79222 -0.351784,-5.70292 -0.24212,-6.64939 -0.285424,-13.35116 0.595788,-19.95172 -0.811444,-1.12891 -4.218326,-1.7715 -3.546528,0.46695 -0.372096,2.34917 -0.431399,4.78407 -1.490663,6.98442 -0.45764,1.81728 -2.581075,3.86486 -2.794665,5.06892 0.698391,0.22184 1.396824,0.44361 2.095169,0.66555 z" />
    <path
       id="path336"
       style="fill:#000000;stroke:#000000;stroke-width:1.00157;stroke-linecap:round"
       d="m 46.310856,395.14551 c -2.34917,3.61263 -5.60089,6.49907 -8.240193,9.88276 -0.704351,3.67716 4.177162,3.05322 6.457999,2.79388 6.358717,-0.20666 12.585005,-1.71928 18.946907,-1.93255 3.323952,0.89389 3.209423,-3.13974 0.162875,-3.04762 -3.310455,-0.0936 -6.527527,1.15658 -9.831731,1.45597 -3.446707,0.50655 -6.988181,0.74041 -10.430952,0.0758 -1.365923,1.48323 0.589678,2.21944 0.729092,0.0832 1.400292,-2.81464 4.7396,-5.75265 5.254317,-8.26658 -0.932187,-0.57313 -2.081405,-0.55589 -3.048314,-1.04482 z" />
    <path
       id="path338"
       style="fill:#000000;stroke:#000000;stroke-width:1.00157;stroke-linecap:round"
       d="m 51.27338,402.25983 c -1.456613,5.59137 -2.237312,11.36162 -2.691666,17.10418 0.407657,1.59313 1.881332,5.55592 3.028086,2.36202 1.962306,-2.01844 1.296214,-4.89634 1.571786,-7.41816 0.245011,-3.75907 0.730713,-7.54721 1.992843,-11.11352 -0.858837,-0.79269 -2.484944,-0.53307 -3.673416,-0.89634 l -0.139751,-0.0234 z" />
    <path
       id="path340"
       style="fill:#000000;stroke:#000000;stroke-width:1.00157;stroke-linecap:round"
       d="m 91.690529,407.25798 c 1.35467,-4.25555 2.917346,-8.44079 4.499924,-12.61572 -1.375739,-1.36603 -4.631153,-0.53815 -3.57758,1.89731 0.34535,3.09956 0.04535,6.24875 0.0131,9.3687 -0.222686,5.63474 -0.717595,11.25401 -1.244066,16.86712 0.608933,1.92149 2.306121,4.16329 3.279971,1.23799 1.443533,-1.80932 0.200321,-4.20804 0.465407,-6.30294 -0.184485,-6.79159 -0.144612,-13.62309 0.646743,-20.37343 0.814904,-1.81425 0.0586,-4.19297 -2.258034,-3.5461 -2.310962,0.0844 -0.830617,3.54056 -1.714403,5.04618 -0.562046,2.70774 -1.646129,5.32405 -3.285717,7.55934 1.058215,0.2872 2.116463,0.57428 3.174659,0.86155 z" />
    <path
       id="path342"
       style="fill:#000000;stroke:#000000;stroke-width:1.00157;stroke-linecap:round"
       d="m 119.87594,393.62841 c -2.95194,0.094 -5.89985,-0.27981 -8.78717,-0.87158 -2.1913,0.9177 -6.43273,0.0821 -6.78972,3.16679 0.0159,2.40014 0.10617,4.7976 0.0373,7.1982 -0.21912,2.60315 2.11999,3.49575 4.30517,3.3077 2.19513,0.51628 4.09608,-0.87256 6.31483,-0.71008 -1.76426,0.14258 -1.46749,-0.18445 0.0278,0.1345 2.0159,2.18316 -1.87894,4.07819 -3.01239,5.78296 -1.93717,1.90221 -4.05739,3.63236 -6.39286,5.02433 -1.25022,1.41406 -1.98618,4.82297 0.96335,3.92686 2.85928,0.28829 5.61994,-0.75246 7.53883,-2.90552 3.13002,-2.99001 7.06945,-5.99227 7.80668,-10.54461 0.63874,-2.87998 -1.85364,-5.68382 -4.75421,-5.60914 -3.52255,-0.33399 -7.1127,0.26308 -10.60633,-0.11087 1.87821,-0.17798 5.46847,0.70236 5.26575,1.7475 -0.3433,-2.08178 -0.10162,-5.07733 -0.33482,-6.58734 -2.04293,0.47942 -4.57915,0.20755 -6.19983,1.55466 1.44984,1.53804 5.16935,0.28794 7.44813,0.95105 3.31816,0.91975 4.56979,-3.39411 6.85176,-5.10324 l 0.31769,-0.35215 z" />
    <path
       id="path344"
       style="fill:#000000;stroke:#000000;stroke-width:1.00157;stroke-linecap:round"
       d="m 235.99956,286.53919 c 2.05919,-5.57971 3.80076,-11.28559 6.25368,-16.713 -3.36624,-0.90123 -6.20011,1.1558 -4.85768,4.71846 0.26267,9.93492 -1.52011,19.78604 -2.1601,29.64996 2.24898,3.47069 5.87914,-0.59423 4.55262,-3.6293 0.14217,-9.79711 0.095,-19.69024 2.11728,-29.32541 -0.71527,-3.37749 -6.32279,-3.01296 -5.27208,0.96308 -0.77418,3.35138 -1.80197,6.72661 -3.39858,9.77117 -1.74417,1.84201 -1.96374,4.30981 1.20316,4.1583 0.52054,0.13567 1.04115,0.27133 1.5617,0.40674 z" />
    <path
       id="path346"
       style="fill:#b3b3b3;stroke:#b3b3b3;stroke-width:1.00157;stroke-linecap:round"
       d="m 231.51877,345.43657 c 3.45257,-4.47937 6.98804,-8.92666 9.83359,-13.82896 -2.09773,-0.78925 -5.96422,-1.30492 -4.98205,2.08271 -0.49389,8.5616 -0.57963,17.15013 -1.39591,25.69074 -0.97627,2.09817 0.12334,3.98381 2.50666,3.48111 3.2223,0.27132 1.63876,-3.489 1.91332,-5.44203 -0.0917,-8.16247 -0.27908,-16.46559 1.66104,-24.45027 1.22506,-2.56578 -3.8239,-2.59849 -4.62363,-2.19133 -1.19077,4.30803 -3.78857,8.24108 -7.09181,11.23281 -1.28345,0.91994 -2.67884,1.63443 -0.37135,2.17253 0.85006,0.41754 1.70011,0.83509 2.55014,1.25269 z" />
    <path
       id="path348"
       style="fill:#b3b3b3;stroke:#b3b3b3;stroke-width:1.00157;stroke-linecap:round"
       d="m 230.30921,405.85734 c 2.78438,-5.71581 5.47703,-11.51362 8.34204,-17.16607 -1.22666,-0.4803 -5.6415,-1.77482 -4.93778,1.07267 -1.22356,9.57742 0.34251,19.408 -2.23398,28.8238 -2.10474,3.66979 4.8995,4.78077 4.60363,0.75664 0.24521,-6.53311 1.20509,-13.05005 0.90367,-19.60575 0.0322,-3.5883 0.27,-7.33296 1.69364,-10.63639 -0.96716,-0.86158 -3.80327,-1.88735 -4.79543,-0.8934 -0.0126,2.75267 -1.30786,5.24727 -2.31223,7.76447 -1.30735,3.0335 -3.37862,5.67703 -5.26854,8.31206 1.01184,0.96536 2.77805,0.8681 4.00498,1.57197 z" />
    <path
       id="path350"
       style="fill:#000000;stroke:#000000;stroke-width:1.00157;stroke-linecap:round"
       d="m 296.06886,277.8778 c 0.48356,-1.62891 3.06183,-3.48438 3.69789,-3.51223 -2.15918,0.33592 1.1966,2.01084 0.48914,3.48582 0.0162,6.20574 -3.75963,11.62777 -7.66487,16.1395 -1.71833,1.67792 -3.12686,3.86362 -5.36834,4.85726 -2.08052,0.94287 -0.75903,2.47345 0.77376,2.97456 1.66422,1.51235 3.81829,1.88459 5.93673,1.27577 5.30546,-0.34576 10.60823,0.58943 15.91625,0.2272 2.28198,-1.30551 -0.46444,-3.81829 -2.2072,-3.8805 -0.74621,-0.0647 -2.0556,-0.73001 -1.63131,-0.31313 -6.17242,0.28393 -12.35805,0.0148 -18.53564,0.12332 0.30207,1.41282 2.33013,2.73365 3.71183,2.97256 1.63808,-1.6098 2.46121,-4.01149 3.93211,-5.85477 3.28079,-5.0575 6.85838,-10.10522 8.61048,-15.93711 0.64382,-2.83347 0.62621,-6.36166 -1.63165,-8.48154 -1.98549,-0.97358 -4.585,-0.58653 -6.42397,0.53866 -1.02351,1.28901 -4.04967,2.61767 -3.25084,4.36122 1.11652,0.65238 2.53695,0.29644 3.64563,1.02341 z" />
    <path
       id="path352"
       style="fill:#b3b3b3;stroke:#b3b3b3;stroke-width:1.00157;stroke-linecap:round"
       d="m 293.80422,338.54161 c 0.1823,-2.6348 4.38568,-5.75254 5.19293,-5.09131 -2.53328,0.27468 1.94607,1.83661 1.31482,3.59734 1.33298,6.03171 -2.49753,11.7116 -6.89436,15.45044 -2.00007,1.719 -4.31924,3.21742 -6.90592,3.81589 2.13864,1.22427 3.79039,3.88942 6.58344,3.46178 4.21037,-1.10655 8.51004,0.80555 12.72806,0.0469 2.1598,3.7e-4 5.37268,-3.61577 1.69928,-3.99981 -6.52823,0.1946 -13.08349,-0.52356 -19.61172,0.0699 -0.66315,1.54748 1.98175,4.22123 3.53378,4.32435 3.26643,-2.32163 5.69872,-5.61014 8.37567,-8.56872 3.22452,-3.76366 5.83717,-8.63168 4.91926,-13.7414 -0.51172,-2.54326 -1.22838,-5.55961 -3.49065,-7.08881 -2.79628,-0.80241 -6.21768,-0.5161 -8.25372,1.80388 -1.05086,1.45695 -5.70997,5.12088 -1.52321,5.401 0.78031,0.14856 1.60665,0.16215 2.33234,0.5185 z" />
    <path
       id="path354"
       style="fill:#b3b3b3;stroke:#b3b3b3;stroke-width:1.00157;stroke-linecap:round"
       d="m 295.25579,396.40242 c -0.14644,-2.2222 5.09589,-2.1162 1.43297,-1.54327 3.18132,1.84486 4.49296,6.15737 3.54153,9.68957 -2.03285,6.60327 -8.53089,10.59253 -14.7294,12.7339 -3.34941,0.57795 -0.50753,5.85176 2.14541,4.54068 8.19482,-0.6122 16.4112,-0.96645 24.63036,-1.0732 3.56763,-1.83334 -1.03833,-4.24549 -3.1208,-4.44347 -3.50704,-0.31299 -6.98646,0.68754 -10.50893,0.64775 -3.92757,0.21702 -7.85976,0.33014 -11.79045,0.47288 2.46394,-1.20605 3.48793,1.72826 2.98092,3.46524 4.55144,-3.16623 8.87875,-6.83042 12.20272,-11.29279 2.97423,-4.13571 3.66784,-9.96732 0.85665,-14.37368 -1.38366,-3.0979 -4.83972,-4.76005 -8.08949,-3.58758 -2.0157,0.46056 -5.67662,3.84498 -1.54695,4.08474 0.66515,0.22641 1.33031,0.4528 1.99546,0.67923 z" />
    <path
       id="path356"
       style="fill:#000000;stroke:#000000;stroke-width:1.00157;stroke-linecap:round"
       d="m 418.57638,276.72519 c 1.60259,-1.09375 3.92544,-1.15018 4.84408,0.83907 1.09123,2.913 -0.85706,6.01941 -3.05481,7.84799 -2.58447,2.18208 -5.90785,3.07293 -9.00952,4.24276 0.75344,2.31228 3.43665,2.88877 5.35732,3.85727 0.78333,0.43483 1.55861,-0.54976 0.44201,-0.16154 1.63483,0.37588 3.90864,0.90546 4.18542,2.88871 -0.14051,1.83975 -2.09432,2.77081 -3.46266,3.66213 -2.77429,1.50058 -6.0555,1.96429 -8.61214,3.87332 -1.02313,1.85349 2.29749,2.02432 3.50893,2.01123 4.33695,0.008 8.79612,-1.4372 12.08502,-4.30996 2.61192,-2.28465 3.02505,-6.96994 0.0924,-9.17438 -2.71762,-2.57049 -6.642,-2.88895 -10.18045,-3.03338 -1.45746,-0.49071 -2.67437,0.22872 -1.09779,1.36453 0.72319,1.44916 2.23776,3.12936 4.02259,2.35353 1.78985,-1.13399 3.43812,-2.51471 5.07795,-3.86257 3.01427,-2.68097 5.90782,-6.65097 4.94666,-10.90549 -0.50668,-2.75184 -2.87723,-5.41913 -5.87766,-5.11378 -1.89601,0.34406 -4.27107,0.0765 -5.74401,1.47352 0.32846,0.94372 1.7938,1.36004 2.47665,2.14704 z" />
    <path
       id="path358"
       style="fill:#000000;stroke:#000000;stroke-width:1.00157;stroke-linecap:round"
       d="m 493.33305,273.37561 c -4.56364,0.89099 -9.7351,-2.53024 -13.91215,0.63227 -1.66347,3.10401 -4.9786,9.11004 -1.25435,11.86541 3.95862,0.21196 11.75503,0.69062 8.86351,6.77948 -2.6049,3.67661 -9.70594,7.10907 -10.59329,10.12931 5.98646,-1.14055 12.7202,-3.19032 15.79252,-8.97989 2.95906,-5.21205 -2.25342,-10.43985 -7.01856,-11.68118 -2.14745,0.303 -4.14577,1.21793 -2.2805,-1.79567 1.83448,-3.24079 -0.36103,-6.55943 -3.97315,-4.48502 -3.2985,1.99417 4.84865,1.40762 6.22428,1.65281 3.36306,-0.54137 9.12314,1.42712 11.1351,-1.15369 -0.79324,-1.18114 -2.19788,-1.77942 -2.98341,-2.96383 z" />
    <path
       id="path360"
       style="fill:#000000;stroke:#000000;stroke-width:1.00157;stroke-linecap:round"
       d="m 429.18885,335.6102 c -2.53011,3.48921 -7.27444,4.60103 -11.28349,4.47751 1.81225,-0.49077 -1.58279,-1.15855 -0.62086,-2.5542 0.6123,-2.30668 2.94138,-3.63747 4.8999,-4.70276 1.71196,-0.71065 3.97017,-1.89013 5.08757,-0.0722 2.24993,1.22015 2.16416,4.16978 1.59788,6.31802 -1.45233,4.92127 -4.92646,8.90219 -8.71821,12.21985 -2.54415,2.32696 -5.17748,4.62171 -7.15931,7.47036 0.52103,1.64228 3.10295,-0.65792 4.32416,-1.00031 4.94698,-2.75125 9.09493,-6.78645 12.54776,-11.23114 2.69218,-3.69584 4.69087,-8.59339 3.15911,-13.14974 -1.01395,-2.73258 -3.84109,-4.74529 -6.79941,-4.4254 -5.31901,-0.14214 -11.15727,2.27068 -13.5278,7.29335 -1.28569,2.14295 -0.66563,5.11753 1.54039,6.38546 2.2105,1.34433 4.9583,0.95337 7.40164,0.64133 4.09893,-0.72886 8.02275,-2.94921 10.39185,-6.42632 -0.50435,-1.06369 -2.01151,-0.63386 -2.84118,-1.24384 z" />
    <path
       id="path362"
       style="fill:#000000;stroke:#000000;stroke-width:1.00157;stroke-linecap:round"
       d="m 472.33425,346.21533 c 2.26143,-4.68202 4.84844,-9.20411 6.95025,-13.96353 -2.32413,-1.32844 -3.00056,2.01222 -2.91264,3.80636 -0.84303,7.37576 -1.21409,14.80309 -1.76564,22.19799 -0.28752,2.39578 2.08763,2.79505 2.32673,0.29184 0.51688,-2.5757 0.49134,-5.2365 0.81517,-7.8485 0.58409,-5.98432 0.0297,-12.07185 1.29228,-17.98385 -1.11033,-0.614 -2.67616,-1.24736 -2.27982,0.66075 -0.99191,4.51486 -3.15509,8.87475 -6.61706,12.0004 0.73021,0.2796 1.46067,0.55854 2.19073,0.83854 z" />
    <path
       id="path364"
       style="fill:#000000;stroke:#000000;stroke-width:1.00157;stroke-linecap:round"
       d="m 493.3031,343.76438 c 3.13289,-4.62193 5.61158,-9.63761 8.1642,-14.59122 -4.36692,-3.79397 -6.81181,3.2786 -5.89829,6.74567 -0.81995,7.26223 -2.11936,14.47954 -2.52362,21.78282 0.47058,4.96587 3.40958,1.84598 3.85194,-1.09462 2.16218,-7.05977 1.69116,-14.59565 3.39447,-21.74608 1.93421,-3.13063 -1.06726,-9.22627 -4.15245,-4.90303 -1.00675,4.51534 -3.741,8.09624 -6.54913,11.52449 0.26059,1.67844 2.7569,1.18038 3.71288,2.28197 z" />
    <path
       id="path366"
       style="fill:#000000;stroke:#000000;stroke-width:1.00157;stroke-linecap:round"
       d="m 402.30907,405.74136 c 3.22711,-5.53315 5.12483,-11.76532 8.74773,-17.07946 -5.42043,-1.31611 -3.59237,6.2704 -4.29431,9.45204 -0.37235,6.32035 -1.09582,12.62264 -1.86521,18.89164 -0.49323,2.4162 1.2184,7.63455 2.54034,2.91901 2.37234,-4.60819 1.54075,-9.97785 2.27509,-14.95248 0.50996,-5.07032 0.63006,-10.23052 1.55785,-15.22412 -1.34697,-4.16099 -6.06678,-0.53327 -5.03955,2.73049 -1.33611,4.39669 -3.63996,8.65592 -7.27799,11.5623 0.85476,1.01782 2.35312,0.90871 3.35605,1.70058 z" />
    <path
       id="path368"
       style="fill:#000000;stroke:#000000;stroke-width:1.00157;stroke-linecap:round"
       d="m 433.26009,390.36213 c -4.84983,1.05394 -10.76455,-1.16501 -14.9557,1.33634 -0.77941,3.13243 -1.05228,7.76585 1.41168,10.15939 1.67654,1.35486 6.0324,0.22401 5.73141,0.34915 4.6926,-0.36013 6.68505,5.08162 2.44604,7.54264 -3.19089,3.61459 -8.24038,4.59007 -11.55649,7.99414 -1.04563,1.55347 -1.85059,2.12197 0.61392,1.67038 4.07219,0.77607 7.72599,-1.40608 10.9708,-3.54429 3.69066,-2.2353 8.16441,-5.01554 8.74739,-9.6702 -0.0983,-5.62629 -6.43655,-8.2852 -11.32703,-8.19662 -2.01596,0.38352 -4.69377,-1.08565 -1.20883,-0.15436 2.45751,2.35124 -0.37022,-3.81479 1.65788,-1.84308 3.51443,-0.78891 7.2211,-0.51749 10.68049,-1.23339 0.96851,-1.71927 -2.72667,-2.87775 -3.21156,-4.4101 z" />
    <path
       id="path370"
       style="fill:#000000;stroke:#000000;stroke-width:1.00157;stroke-linecap:round"
       d="m 473.2737,403.76581 c 1.6587,-4.70466 3.45311,-9.35985 5.15044,-14.05048 -2.10455,-0.17777 -5.39461,-0.45936 -4.35176,2.67948 0.41943,7.9608 -0.96484,15.86332 -1.40083,23.79005 -0.0838,2.12711 0.0495,5.08066 2.11128,6.16223 1.67051,-1.82117 2.36005,-4.38851 2.65487,-6.83892 0.82262,-5.56972 0.50682,-11.22647 0.87236,-16.83279 0.0902,-2.90784 0.15923,-5.81632 0.21121,-8.72509 -1.55283,-1.02627 -5.58948,-1.76302 -4.80487,1.10518 -0.53993,3.34314 -1.23877,6.82967 -3.33104,9.58527 -2.38469,2.77265 1.03586,2.19245 2.88834,3.12507 z" />
    <path
       id="path372"
       style="fill:#000000;stroke:#000000;stroke-width:1.00157;stroke-linecap:round"
       d="m 492.66314,398.14482 c 4.75632,-1.75888 9.70846,-3.30845 14.82764,-3.32766 -2.15914,1.11966 -5.38856,-2.00255 -5.94266,1.80054 -4.56725,6.82247 -9.48662,13.46067 -13.875,20.36804 -0.55718,5.82408 6.01282,2.13277 6.75628,-1.31235 4.01625,-7.44063 9.14586,-14.17488 14.5181,-20.6751 2.08531,-4.80033 -4.82366,-5.44964 -7.41876,-2.81544 -3.25948,2.41588 -8.73758,1.62526 -11.46188,3.10453 0.66434,1.12596 1.90418,1.75534 2.59628,2.85744 z" />
    <path
       id="path374"
       style="fill:#000000;stroke:#000000;stroke-width:1.00157;stroke-linecap:round"
       d="m 493.37489,408.68188 c 4.13618,0.0748 8.2043,-0.82859 12.30087,-1.23426 2.50287,-0.16307 4.13217,-3.60399 0.74336,-3.73183 -3.14251,-0.99885 -6.45719,-0.84357 -9.68926,-0.52292 -2.41361,0.16844 -4.85228,0.006 -7.25424,0.19932 -1.2729,1.24747 2.09316,2.51269 2.51758,3.80272 0.45898,0.49713 0.91869,0.99358 1.38169,1.48697 z" />
    <path
       id="path376"
       style="fill:#000000;stroke:#000000;stroke-width:1.00157;stroke-linecap:round"
       d="m 709.90113,279.9853 c 0.003,-1.24138 3.07487,-0.86168 0.77481,-0.76318 4.24719,3.59152 1.89406,10.16656 -1.38523,13.59351 -2.97834,4.31671 -8.24097,5.05143 -12.20426,7.58874 -3.16388,5.44265 5.97977,3.90412 8.72567,2.49038 4.72096,-1.36758 9.72204,-1.66292 14.34207,-3.3623 4.98597,-3.09254 -3.77041,-5.70977 -6.32481,-3.29874 -5.07176,1.48051 -10.17351,2.98028 -15.43653,3.60151 4.30725,-1.58362 1.60375,5.79815 5.50866,2.62231 4.77134,-3.05151 9.78357,-6.48304 11.90241,-12.00571 1.68081,-4.09238 2.17589,-9.40744 -0.6288,-13.094 -1.82029,-3.08394 -10.47345,-1.20076 -8.37697,1.66912 1.02221,0.35034 2.165,0.38008 3.10298,0.95836 z" />
    <path
       id="path378"
       style="fill:#000000;stroke:#000000;stroke-width:1.00157;stroke-linecap:round"
       d="m 774.79115,277.28214 c 1.59648,-1.98842 5.00341,-1.03167 5.76502,1.25881 0.51794,1.4668 -0.29401,2.94483 -0.84977,4.2771 -1.49542,2.87349 -4.24023,4.83618 -7.05522,6.29154 -1.75293,-0.21814 -2.51118,1.91812 -1.51024,3.15365 0.67558,1.60424 2.47441,1.2128 3.6698,1.50113 1.71547,0.92818 2.15017,3.34225 0.95374,4.86033 -0.83019,1.47039 -2.55283,1.67526 -3.90443,2.33786 -3.07119,1.61765 -6.96449,1.93015 -9.30126,4.74555 -1.18327,1.20081 1.76799,0.94088 2.54931,1.13724 3.24427,0.17467 6.3996,-0.75868 9.36753,-1.97847 2.69579,-0.99763 5.75417,-2.31879 6.85199,-5.20882 1.01921,-2.98973 -0.63641,-6.15607 -2.85236,-8.13474 -0.93958,-0.68573 -1.85104,-1.90867 -3.11784,-1.73878 -1.50813,0.52992 -0.0537,2.96076 1.22562,2.36927 1.00355,-1.00629 1.84459,-2.21781 2.94651,-3.1946 2.83831,-2.96221 5.43023,-6.73876 5.18851,-11.02778 -0.0859,-2.42418 -2.37307,-4.07311 -4.60216,-4.41174 -1.53457,-0.32708 -3.1207,-0.0995 -4.60745,0.29315 -1.17576,0.1143 -3.34063,0.64161 -3.00612,2.16489 0.55899,0.77473 1.63121,0.66416 2.28882,1.30441 z" />
    <path
       id="path380"
       style="fill:#000000;stroke:#000000;stroke-width:1.00157;stroke-linecap:round"
       d="m 704.13747,330.09073 c -2.02994,3.44015 -0.89866,7.87719 1.46055,10.85134 2.32933,3.91348 4.45554,8.24228 4.46856,12.89199 -0.16966,3.10239 -1.92786,6.22033 -4.8196,7.53199 -0.73582,0.66638 -2.73968,0.94284 -3.21315,0.19739 0.49025,-0.70124 2.71776,0.32866 1.41301,-0.70335 -1.55675,-1.06117 -1.7862,-3.23638 -1.23971,-4.9144 1.13267,-2.69096 3.55633,-4.52884 5.67469,-6.42194 4.27009,-3.58417 9.23762,-6.70686 12.03621,-11.68556 0.94284,-1.79328 1.77678,-4.26608 0.28714,-6.0093 -1.48733,-1.91105 -4.18126,-1.55377 -6.28152,-1.19502 -1.67539,-0.32059 -3.18298,1.48567 -1.46939,2.6227 0.39968,0.79888 3.04823,0.55535 1.28163,0.704 -1.75335,0.75043 1.68798,-0.60498 1.64672,0.88398 0.0999,1.62641 -1.23967,2.88253 -2.12078,4.11256 -4.64246,5.74576 -11.79489,9.02441 -15.78949,15.35677 -1.40435,2.47964 -0.66467,5.46847 0.45238,7.90001 0.66785,1.79509 2.35644,3.15922 4.29151,3.26224 3.13446,0.72816 6.46497,-0.50308 8.67394,-2.77043 2.35952,-1.99599 3.6309,-5.17577 3.1555,-8.24741 -0.48509,-6.32365 -3.79499,-11.90187 -6.69195,-17.37936 -0.71706,-1.7925 -0.63307,-3.89714 0.23758,-5.62167 -1.12997,-0.50834 -2.31282,-0.88514 -3.45383,-1.36653 z" />
    <path
       id="path382"
       style="fill:#000000;stroke:#000000;stroke-width:1.00157;stroke-linecap:round"
       d="m 780.37337,339.25911 c 0.60435,3.72245 -5.37277,7.93613 -6.36844,7.59333 1.67598,-0.75507 -2.96063,-3.63558 -1.40985,-5.86308 0.76528,-4.10252 5.65811,-7.10559 8.40458,-3.7032 4.99662,3.30935 5.09548,11.38252 0.8135,15.39189 -3.57922,4.22339 -9.1726,6.03336 -12.78985,10.18528 -4.01342,2.41604 3.68847,0.25207 5.26513,0.3454 5.12988,-1.28294 9.49743,-4.87935 12.81949,-8.88615 5.54587,-7.08565 2.37537,-19.90604 -6.81044,-22.06659 -5.79486,-1.53086 -12.67664,2.78517 -12.61771,9.0818 -1.17322,5.40698 3.78506,12.47764 9.61485,9.05405 3.4199,-1.68232 7.92568,-8.00122 5.18232,-10.97609 -0.69199,-0.14741 -1.4001,-0.15894 -2.10358,-0.15664 z" />
    <path
       id="path384"
       style="fill:#000000;stroke:#000000;stroke-width:1.00157;stroke-linecap:round"
       d="m 694.27985,407.60338 c 3.93095,-4.3089 7.35441,-9.11317 10.9133,-13.6823 -1.88096,-1.38854 -4.80754,-0.82548 -3.88771,2.10036 -0.4749,6.13277 -2.02176,12.14848 -3.0794,18.20543 -0.79522,3.4401 -2.10168,6.73297 -3.00052,10.14422 0.86517,3.11137 4.26106,1.55976 5.06222,-0.62934 0.77951,-5.85934 1.54839,-11.7528 2.73561,-17.55706 0.73316,-4.25457 1.51855,-8.50675 2.63519,-12.68004 -1.90889,-1.73317 -5.15434,-1.40349 -5.50744,1.47078 -2.13175,3.93132 -4.93777,7.59399 -8.70463,10.08033 -1.92101,0.97755 2.2902,1.82431 2.83338,2.54762 z" />
    <path
       id="path386"
       style="fill:#000000;stroke:#000000;stroke-width:1.00157;stroke-linecap:round"
       d="m 720.4993,395.62333 c -2.63622,3.43303 -5.9754,6.22702 -9.09578,9.18462 -1.31781,1.91348 0.55449,4.54246 2.80292,3.93337 5.71934,0.10969 11.44524,-0.17148 17.12854,-0.81906 2.40897,0.36533 1.4805,-3.18375 -0.33036,-3.36806 -1.51219,-1.12171 -3.37683,-1.16562 -5.08799,-0.55407 -2.03842,0.44196 -4.19645,0.45704 -6.22288,0.58858 0.75408,0.25234 1.84537,-0.20329 0.36644,-0.16779 -1.06892,0.0277 -3.25595,-0.7492 -2.40518,1.05708 -0.16582,1.10013 -0.0896,2.04964 0.69725,0.62388 2.26867,-2.89105 4.53488,-5.78715 6.95484,-8.55436 -1.60264,-0.64128 -3.20496,-1.28353 -4.8078,-1.92419 z" />
    <path
       id="path388"
       style="fill:#000000;stroke:#000000;stroke-width:1.00157;stroke-linecap:round"
       d="m 723.97317,402.80711 c -0.50216,4.6185 -1.31597,9.19867 -2.30532,13.73539 -0.20071,1.84681 0.55137,3.75231 -0.15724,5.54896 0.18006,1.28614 0.64527,-0.18791 0.60262,-0.73654 0.4602,-1.72765 1.79069,-3.05011 2.29745,-4.76555 1.0657,-3.09042 1.74322,-6.30094 2.85716,-9.37742 0.32232,-1.29905 1.03611,-2.94706 0.91074,-4.08501 -1.4018,-0.10661 -2.8036,-0.21324 -4.20541,-0.31983 z" />
    <path
       id="path390"
       style="fill:#000000;stroke:#000000;stroke-width:1.00157;stroke-linecap:round"
       d="m 760.95617,408.36409 c 2.38604,-4.59678 5.55646,-8.73158 7.95262,-13.32258 -3.2065,-2.52181 -5.06962,1.87125 -4.22204,4.55251 -0.80591,7.36207 -1.98484,14.75943 -3.84468,21.89332 -1.11097,3.4937 3.51383,5.16833 3.81044,1.007 1.60819,-7.52063 2.72361,-15.15484 3.41433,-22.82146 1.9039,-2.32254 -0.0152,-7.93746 -3.11994,-4.98606 -1.65841,3.94338 -3.18604,8.20578 -6.62629,10.96607 -2.21238,1.9916 1.64833,1.90633 2.63556,2.7112 z" />
    <path
       id="path392"
       style="fill:#000000;stroke:#000000;stroke-width:1.00157;stroke-linecap:round"
       d="m 789.66024,396.34346 c -4.58878,0.82242 -10.19384,-2.41775 -14.10939,0.47136 -0.75365,2.98534 -1.43735,6.85252 -0.11293,9.66373 2.26407,2.71749 7.82086,-0.29435 8.51145,4.05465 -1.25328,4.03305 -6.5967,5.25197 -9.58839,8.0194 -1.60906,1.21903 -4.20477,4.24804 -3.96245,5.60451 4.0238,-1.36577 8.67902,-1.00318 12.427,-3.38488 4.10608,-2.00756 9.21577,-5.8666 7.83121,-11.07887 -1.33584,-3.65483 -5.12868,-6.60523 -9.10357,-6.307 -1.38633,-1.17628 1.3256,-4.2579 -2.08756,-2.41458 -3.56424,-0.41561 3.88645,-0.31148 5.09721,-0.30995 2.52889,-0.17768 3.46097,-2.80821 5.09742,-4.31837 z" />
    <path
       id="path396"
       style="fill:#000000;stroke:#000000;stroke-width:1.00157;stroke-linecap:round"
       d="m 903.0663,286.0895 c 2.43898,-5.93291 5.02327,-11.8905 6.83773,-18.01557 -1.86937,-1.25464 -5.51987,0.0143 -4.20477,2.7773 0.19637,7.42265 -0.90707,14.79924 -1.17696,22.20573 -0.36255,4.06641 -1.51838,8.08634 -1.3987,12.17785 0.9475,3.72064 4.50108,0.6389 3.98283,-2.0445 -0.10291,-5.90921 -0.23022,-11.84799 0.54025,-17.7324 0.65001,-5.84299 1.29,-11.69705 2.48505,-17.45959 -2.1126,-0.71532 -5.69007,-2.11224 -4.92894,1.67113 -0.66054,5.35892 -2.48464,10.68203 -5.78261,14.97252 0.52853,1.02052 2.64379,0.81305 3.64612,1.44753 z" />
    <path
       id="path398"
       style="fill:#000000;stroke:#000000;stroke-width:1.00157;stroke-linecap:round"
       d="m 901.32995,338.11479 c 3.98167,-0.65631 3.21544,6.08479 1.75998,8.38744 -2.53304,5.59171 -7.08163,9.97013 -11.95284,13.56555 -0.74611,4.68154 5.80379,3.37916 8.42632,2.35807 3.26907,-0.55957 9.56898,-0.39799 11.26904,-0.26876 3.34781,0.58863 6.89744,-4.73622 1.56696,-4.32545 -6.24531,0.21606 -12.5431,0.35267 -18.72066,1.31229 -0.96258,0.19148 2.55732,0.85749 3.21104,1.76703 4.16857,-6.40963 11.16088,-11.92062 11.3314,-20.15875 0.14372,-4.44288 -5.86158,-7.48418 -8.98712,-4.35045 0.1406,1.06445 1.47473,1.03989 2.09588,1.71303 z" />
    <path
       id="path400"
       style="fill:#000000;stroke:#000000;stroke-width:1.00157;stroke-linecap:round"
       d="m 901.36632,398.95173 c 2.80856,-2.81247 4.85576,2.87509 2.40048,4.78592 -2.43727,0.93382 -6.88943,3.95278 -3.00505,6.29879 0.89888,0.4691 4.53898,-0.55147 1.60221,-0.37427 4.00244,-0.93512 4.90417,5.13036 0.86545,5.88776 -3.10467,2.67739 -10.11576,2.32803 -10.45902,7.04178 2.99411,0.22051 6.18727,0.83659 9.11901,-0.44125 3.24124,-1.37346 6.82335,-2.79393 8.99348,-5.68314 2.74863,-3.8478 -0.0353,-9.67605 -4.5871,-10.31903 -1.42486,-0.2438 -6.87688,-0.62735 -2.92096,-0.73229 2.37844,-0.23589 1.88579,3.62872 2.11954,2.94087 3.72952,-1.87915 6.2751,-7.07728 3.02183,-10.56041 -1.96851,-2.96899 -8.80318,-3.48319 -9.73592,-0.36675 0.77702,0.63997 1.70587,1.04981 2.58605,1.52202 z" />
    <path
       id="path402"
       style="fill:#b3b3b3;stroke:#b3b3b3;stroke-width:1.00157;stroke-linecap:round"
       d="m 964.13883,286.05132 c 2.31989,-4.21187 4.22054,-8.65867 5.60634,-13.26454 -3.36851,-1.69787 -5.60098,1.80806 -4.09063,4.72422 -0.0255,8.33952 -2.31213,16.43439 -3.71192,24.58695 -0.72797,4.84068 5.28416,4.10385 5.28413,-0.20049 1.4554,-9.60402 1.49465,-19.38842 2.87701,-29.0134 -3.02275,-3.59695 -6.66307,0.67576 -5.93586,4.14972 -0.25156,2.78475 -3.2591,6.00683 -3.41086,7.75981 1.12725,0.41928 2.25441,0.83881 3.38179,1.25773 z" />
    <path
       id="path404"
       style="fill:#b3b3b3;stroke:#b3b3b3;stroke-width:1.00157;stroke-linecap:round"
       d="m 964.17903,336.61348 c 0.56103,-1.69685 3.77333,-0.19522 0.73603,-0.48756 2.51675,3.62719 0.0609,8.44462 -2.3287,11.49261 -2.60366,4.42149 -7.95872,5.55341 -11.162,8.967 -2.02681,5.56736 6.17976,3.95731 9.31527,3.70783 5.07655,-0.63035 10.2583,-0.11747 15.28551,-1.10267 1.56462,-3.93607 -4.46888,-5.20935 -7.33047,-4.64304 -4.76483,0.40839 -9.53678,0.84652 -14.32377,0.82432 2.92144,-3.05016 4.84042,3.79121 4.5198,2.88934 5.27248,-5.40642 12.36437,-10.72498 12.61346,-18.98478 0.55525,-5.16296 -5.07035,-9.24548 -9.62797,-6.40398 -3.70855,2.07964 0.97008,2.54456 2.30284,3.74093 z" />
    <path
       id="path406"
       style="fill:#b3b3b3;stroke:#b3b3b3;stroke-width:1.00157;stroke-linecap:round"
       d="m 964.74509,395.58896 c 0.6578,-0.48491 3.59242,-0.51237 1.16471,-0.0629 2.98209,3.19705 -3.21333,4.41264 -4.26029,6.61557 -1.04161,4.30751 6.563,3.44651 4.99949,7.2879 -1.92227,2.59711 -5.09601,3.8545 -7.89107,5.30223 -3.21009,1.51697 -6.94555,2.40315 -9.50053,4.96331 -0.0676,3.703 5.72818,1.01907 8.15425,0.83129 4.77472,-1.55599 9.54809,-3.54806 13.54217,-6.63481 3.36813,-2.34961 4.2779,-7.73114 0.73807,-10.34627 -1.37158,-1.61544 -4.06009,-3.32063 -3.78608,0.1221 1.60582,2.83365 4.23003,-2.95097 4.90864,-4.51521 2.07695,-4.55861 -2.64469,-8.77495 -7.11392,-7.47758 -1.72347,0.17558 -6.4395,0.38124 -2.76702,2.43468 0.61089,0.47829 1.33874,0.84795 1.81158,1.47969 z" />
    <path
       id="path408"
       style="fill:#000000;stroke:#000000;stroke-width:1.00157;stroke-linecap:round"
       d="m 1089.6722,278.61481 c 5.545,-6.28522 5.0504,6.90609 -0.4306,7.30978 -4.6069,1.56126 -4.2941,4.89121 0.2614,6.27256 6.3117,2.69713 0.7833,10.13495 -4.753,9.41832 -3.6873,-0.78906 -10.5562,5.85872 -3.3173,5.6065 6.9751,0.9183 15.0243,-2.47383 18.5705,-8.6019 2.1933,-6.95597 -7.0811,-13.71813 -12.8898,-10.66592 4.8087,7.55659 12.9859,-0.34359 12.939,-6.82601 3.0211,-8.14378 -10.6837,-13.16439 -13.8213,-5.48601 0.171,1.70101 2.042,2.49472 3.4411,2.97268 z" />
    <path
       id="path410"
       style="fill:#000000;stroke:#000000;stroke-width:1.00157;stroke-linecap:round"
       d="m 1150.9743,271.662 c -2.9959,4.85824 -7.9536,7.9201 -12.2829,11.44877 -2.6681,0.4887 -4.8798,4.53133 -1.6855,5.96217 3.0105,0.83253 6.2466,0.34462 9.3436,0.71172 6.0457,0.15308 12.1663,0.53594 18.1702,-0.19744 3.317,-2.29 -2.138,-5.30723 -4.5456,-5.11851 -3.9563,-0.11864 -6.62,0.63149 -9.9052,0.44939 -2.5779,0.24212 -9.6608,-1.32393 -8.0032,2.039 2.8825,-3.65185 6.263,-6.94767 9.3009,-10.49618 1.7098,-1.4426 4.3814,-4.24343 0.4732,-4.47588 l -0.4327,-0.16152 z" />
    <path
       id="path412"
       style="fill:#000000;stroke:#000000;stroke-width:1.00157;stroke-linecap:round"
       d="m 1155.348,279.82553 c -0.4673,4.39248 -2.4798,8.43512 -3.1025,12.80732 -0.7474,3.26905 -1.5677,6.52329 -2.1782,9.82196 0.4658,2.10386 2.3324,6.03976 4.1789,2.68897 3.1588,-1.96081 2.303,-5.92176 3.2365,-8.99391 1.064,-4.94214 1.9967,-9.96816 3.2818,-14.82378 -0.6922,-1.94023 -3.8517,-0.98112 -5.4165,-1.50056 z" />
    <path
       id="path414"
       style="fill:#000000;stroke:#000000;stroke-width:1.00157;stroke-linecap:round"
       d="m 1078.765,344.40881 c 2.1409,-3.94179 3.0692,-8.44375 5.4857,-12.24878 -2.3032,-0.92098 -6.8561,-1.67012 -5.4298,2.31451 -0.124,6.79631 -2.1911,13.3489 -3.2732,20.01724 -0.4542,3.61606 -3.1819,7.73401 -0.7361,11.09691 1.8084,2.96995 4.5757,-2.08776 4.7961,-4.09783 1.1813,-7.92265 3.2458,-15.73581 3.7401,-23.74264 1.141,-2.97653 2.0031,-8.48566 -2.8756,-6.9569 -3.983,0.66911 -1.8518,6.39953 -4.5515,8.80788 -1.4544,1.55851 -2.5864,3.68186 0.4299,3.94591 0.8103,0.26652 1.6697,0.42948 2.4144,0.8637 z" />
    <path
       id="path416"
       style="fill:#000000;stroke:#000000;stroke-width:1.00157;stroke-linecap:round"
       d="m 1102.0097,332.18789 c -6.1994,4.51624 -11.6828,11.34497 -11.9524,19.31119 -0.1367,3.93132 1.3973,9.13633 5.9347,9.73851 4.7051,0.62881 9.763,-0.3852 13.2336,-3.8208 5.5414,-4.50761 7.2186,-12.60104 5.4266,-19.28971 -1.2401,-3.23082 -5.0922,-3.02707 -7.9052,-2.70322 -3.1623,-0.43385 -5.798,6.46649 -2.3818,6.13548 1.3496,-0.72929 5.5575,-1.4704 5.5047,-1.88112 -1.4884,-0.0256 -2.648,-1.10516 -0.8186,0.35559 1.9707,4.06568 -0.2083,8.88794 -2.9318,12.07496 -2.018,2.26509 -4.779,3.92642 -7.7997,4.3821 4.0677,1.02665 -2.9296,0.26072 -2.5189,-2.23543 -2.0473,-6.44448 1.6311,-13.40034 6.6462,-17.41252 2.7738,-1.10403 3.9104,-2.90258 0.3888,-3.9881 l -0.3387,-0.22165 -0.4876,-0.4453 z" />
    <path
       id="path418"
       style="fill:#000000;stroke:#000000;stroke-width:1.00157;stroke-linecap:round"
       d="m 1143.8195,344.62553 c 2.7861,-4.21969 5.4316,-8.54234 8.5243,-12.54999 -2.0114,1.22697 -6.3985,-2.9827 -5.8672,0.65269 -0.1748,5.8738 -1.4989,11.64932 -2.5608,17.41321 -0.7496,3.97183 -1.6675,7.92737 -2.1698,11.9363 -0.084,2.30817 3.0407,4.5611 4.6563,2.21197 1.9886,-2.04707 1.2731,-5.1279 1.7806,-7.68964 0.7986,-7.71532 1.6469,-15.5164 3.953,-22.94442 1.5527,-2.50337 -0.7389,-3.97276 -3.0775,-3.47457 -3.2921,-1.45293 -2.9735,2.45178 -3.9513,4.4255 -1.1565,2.95313 -2.8401,5.81534 -5.4074,7.75364 1.0319,1.2435 2.8202,1.39356 4.1198,2.26531 z" />
    <path
       id="path420"
       style="fill:#000000;stroke:#000000;stroke-width:1.00157;stroke-linecap:round"
       d="m 1165.0705,341.71662 c 1.5287,-4.1236 5.0266,-9.62561 5.7027,-12.72104 -4.1271,-0.62002 -6.4485,1.57675 -5.1858,5.60228 -0.6267,5.76134 -0.8133,11.548 -1.0122,17.32966 -0.3688,4.34512 -1.0287,8.77682 -0.087,13.09675 4.5371,2.91277 4.9086,-6.22873 4.5071,-9.17232 -0.1008,-8.98043 0.8731,-17.93249 2.16,-26.80809 -3.2832,-3.67988 -7.6265,-0.21431 -6.7418,3.98788 -1.1861,2.96156 -6.3474,7.91465 -0.37,8.31383 l 0.5117,0.19057 z" />
    <path
       id="path422"
       style="fill:#000000;stroke:#000000;stroke-width:1.00157;stroke-linecap:round"
       d="m 1072.8567,405.18848 c 2.1989,-3.61056 3.6706,-7.60197 5.7873,-11.25708 0.4668,-1.29837 1.9283,-2.99398 -0.5236,-2.37918 -3.8433,-0.95857 -1.6429,3.1665 -1.8652,5.22295 0.1627,8.37201 -1.3232,16.66593 -2.3844,24.9387 -0.8468,2.8388 3.447,4.02998 4.286,1.32326 0.961,-4.45302 1.0577,-9.06491 1.3575,-13.60533 0.076,-4.46974 -0.066,-8.94453 0.4099,-13.40046 0,-2.18088 1.177,-5.92819 -2.2181,-5.5915 -3.413,-0.94509 -2.5321,3.1765 -3.876,5.20613 -1.1559,2.95612 -2.8846,5.72939 -5.2681,7.85065 1.4316,0.5639 2.8631,1.12829 4.2947,1.69186 z" />
    <path
       id="path424"
       style="fill:#000000;stroke:#000000;stroke-width:1.00157;stroke-linecap:round"
       d="m 1091.0796,395.62442 c 5.9027,0.22171 11.793,-0.69533 17.2671,-2.8952 -2.6894,2.08671 -5.4263,-3.89648 -5.8295,0.91862 -3.6087,8.88451 -7.2688,17.74871 -10.7603,26.68032 -0.3339,6.1604 7.6307,2.23675 6.975,-2.12381 3.2002,-9.39373 6.8118,-18.74188 12.112,-27.17661 0.609,-4.87477 -6.2678,-4.05531 -8.4978,-1.47724 -4.3945,1.55071 -7.5367,0.41074 -9.9236,4.6662 l -0.6404,0.73426 -0.7028,0.67346 z" />
    <path
       id="path426"
       style="fill:#000000;stroke:#000000;stroke-width:1.00157;stroke-linecap:round"
       d="m 1095.5342,410.52579 c 4.1001,-0.77468 8.6602,-0.99043 11.9647,-3.8573 1.9683,-0.19783 4.0103,-2.88479 0.9776,-3.41705 -2.4395,-0.56832 -4.8591,0.64088 -7.3296,0.44052 -3.6137,0.2712 -7.1811,1.10639 -10.8187,1.04993 1.7352,1.92806 3.4711,3.85565 5.206,5.7839 z" />
    <path
       id="path428"
       style="fill:#000000;stroke:#000000;stroke-width:1.00157;stroke-linecap:round"
       d="m 1145.4356,404.75144 c 1.6513,-3.75105 3.0836,-7.64136 5.3875,-11.05978 0.6053,-1.36163 1.8323,-2.2873 -0.4313,-1.85409 -1.7935,-0.70944 -4.7649,-0.42868 -3.5134,2.23053 0.024,6.93283 -0.9443,13.82817 -1.8077,20.69383 -0.4372,3.51461 -1.2587,7.05486 -1.305,10.5743 0.6496,2.85683 4.1922,3.23062 5.2668,0.46639 0.8026,-2.59968 0.2333,-5.40116 0.5214,-8.08345 0.334,-7.63824 0.9475,-15.28116 1.8532,-22.86486 1.292,-2.54942 0.086,-4.25212 -2.6504,-4.50649 -3.3419,-1.34083 -2.0441,3.53458 -3.0598,5.43041 -0.6452,2.69918 -1.7649,5.32011 -3.5088,7.48516 0.045,1.21212 2.4393,0.81454 3.2475,1.48805 z" />
    <path
       id="path430"
       style="fill:#000000;stroke:#000000;stroke-width:1.00157;stroke-linecap:round"
       d="m 1168.5967,393.45395 c -2.4526,2.28818 -5.6137,5.16674 -4.7869,8.88713 1.0327,4.02013 4.9325,6.2341 7.1256,9.54769 2.4504,2.23316 2.1322,6.26297 -1.0417,7.66391 -1.256,0.81539 -3.7453,1.37024 -4.7599,0.75792 1.1906,-0.13453 3.9543,0.23019 1.365,-0.72902 -1.8768,-2.04714 -0.1224,-4.8719 1.2107,-6.69243 2.4558,-3.19448 5.4227,-5.97034 7.6383,-9.35749 1.3813,-2.11266 3.9086,-4.44096 2.8169,-7.2033 -1.0168,-2.55772 -5.5257,-2.04055 -5.7894,0.80377 -2.4547,5.93444 -7.7463,10.02674 -11.3669,15.20552 -2.2506,3.06357 -2.9299,7.69719 -0.1594,10.68226 2.2925,2.68848 6.3347,2.37801 9.452,1.69844 3.756,-1.47535 7.497,-4.63757 8.0075,-8.87388 0.3795,-4.27711 -3.8897,-6.64489 -6.2566,-9.53695 -1.7511,-2.05813 -4.4129,-4.65029 -3.1859,-7.60084 0.3938,-1.88147 4.8206,-3.23298 1.1994,-4.41319 -0.5027,-0.25224 -1.0566,-0.44025 -1.4687,-0.83954 z" />
    <path
       id="path432"
       style="fill:#000000;stroke:#000000;stroke-width:1.00157;stroke-linecap:round"
       d="m 160.93846,348.90898 c 8.03382,-1.10178 16.14883,-1.37016 24.24406,-1.64043 -1.76797,-1.26137 1.90821,-6.34172 -2.99593,-4.66714 -6.81547,0.83026 -13.58352,1.94576 -20.45633,2.19412 -2.81591,-0.1801 -5.01019,1.76384 -1.46405,3.3144 z" />
    <path
       id="path434"
       style="fill:#000000;stroke:#000000;stroke-width:1.00157;stroke-linecap:round"
       d="m 169.77317,330.29717 c 1.13411,9.27317 0.52428,18.63715 1.12721,27.94181 -2.11184,2.17918 1.2131,6.97912 3.73272,4.88935 0.9627,-2.13487 -0.22443,-4.57446 -0.0652,-6.83617 -0.6029,-8.44305 -0.85819,-16.91091 -0.76536,-25.37495 -0.82859,-1.57644 -2.74016,-0.29985 -4.02942,-0.62004 z" />
    <path
       id="path436"
       style="fill:#000000;stroke:#000000;stroke-width:1.00157;stroke-linecap:round"
       d="m 344.27628,344.31178 c 8.40486,-0.23345 16.80598,0.63439 25.20909,0.204 1.02584,-2.71837 -2.68316,-4.6652 -4.85156,-5.13212 -1.16204,-0.11433 -3.58143,0.0415 -1.0814,0.006 -4.92172,0.11348 -9.86954,0.41196 -14.77579,-0.15835 -1.50001,1.69366 -3.0009,3.38658 -4.50034,5.08072 z" />
    <path
       id="path438"
       style="fill:#000000;stroke:#000000;stroke-width:1.00157;stroke-linecap:round"
       d="m 348.5846,360.266 c 8.12255,-1.13858 16.31285,-1.65538 24.4806,-2.3504 1.01935,-1.28705 -1.03451,-2.25829 -1.74365,-3.12603 -0.92728,-1.31441 -2.58757,-1.55783 -4.03976,-1.06424 -2.13463,0.56892 -4.36381,0.39089 -6.5319,0.77771 -5.26074,0.6592 -10.52386,1.66603 -15.84929,1.43265 0.83841,1.72523 2.54266,2.82106 3.684,4.33031 z" />
    <path
       id="path440"
       style="fill:#000000;stroke:#000000;stroke-width:1.00157;stroke-linecap:round"
       d="m 831.60708,349.98675 c 7.43288,-1.912 15.16118,-1.00939 22.71567,-0.59261 3.84832,-4.32147 -4.41614,-6.70084 -7.77433,-5.2381 -6.32903,-0.005 -12.70595,-0.059 -18.95995,1.05408 0.0694,2.42734 2.98908,2.93499 4.01861,4.77663 z" />
    <path
       id="path442"
       style="fill:#000000;stroke:#000000;stroke-width:1.00157;stroke-linecap:round"
       d="m 840.55219,331.75204 c 0.9758,7.87145 -0.854,15.71958 -0.7118,23.596 -0.53996,1.87952 -0.90413,3.99518 -0.14017,5.86311 0.42155,1.05982 1.87669,1.71504 2.8824,1.13153 1.44215,-0.93689 1.5594,-2.8357 1.35984,-4.37992 -0.17332,-1.65598 -0.54,-3.33745 -0.20095,-4.99627 0.33844,-7.10104 0.41817,-14.21692 1.02516,-21.30326 -1.40482,0.0296 -2.80967,0.0592 -4.21448,0.0888 z" />
    <path
       id="path444"
       style="fill:#000000;stroke:#000000;stroke-width:1.00157;stroke-linecap:round"
       d="m 1016.8826,339.17261 c 3.4302,-0.49332 7.4651,-0.0212 11.4063,-0.26516 4.2159,-0.32239 8.8192,0.0564 12.7712,-1.11214 1.3119,-2.97205 -3.6772,-4.44655 -5.9469,-3.9425 -7.1026,1.00895 -14.3008,1.22697 -21.4676,0.96091 -0.2235,1.97044 2.5893,2.70962 3.237,4.35889 z" />
    <path
       id="path446"
       style="fill:#000000;stroke:#000000;stroke-width:1.00157;stroke-linecap:round"
       d="m 1017.3973,352.55784 c 4.9069,-0.91359 9.9147,-1.11744 14.896,-1.06721 -3.9464,0.0833 2.8963,0.33331 4.0494,0.89049 2.8783,1.0787 9.3821,-1.92291 6.4771,-5.24063 -3.3377,-0.23555 -6.8178,-0.45876 -10.2296,-0.59716 -6.0833,-0.22407 -12.119,0.71481 -18.1732,1.10389 -3.4616,-0.0425 2.5151,3.70798 2.9803,4.91062 z" />
    <path
       id="path448"
       style="fill:#000000;stroke:#000000;stroke-width:1.00157;stroke-linecap:round"
       d="m 113.11925,167.88897 c 2.91313,6.97454 2.95632,14.74066 1.68058,22.08706 -0.4814,3.46099 -1.3685,6.86018 -2.15164,10.24775 -0.0616,3.34303 3.97246,2.32727 4.21736,-0.33465 1.48195,-7.43327 2.8834,-15.04442 2.23985,-22.65113 -0.38234,-3.36447 -1.19819,-6.6579 -2.00767,-9.93956 -1.32616,0.19685 -2.65232,0.39369 -3.97848,0.59053 z" />
    <path
       id="path450"
       style="fill:#000000;stroke:#000000;stroke-width:1.00157;stroke-linecap:round"
       d="m 111.14986,174.97552 c 1.8806,-4.69331 6.73781,-7.7812 11.63756,-8.38665 3.24058,0.3756 6.10657,3.93989 4.95588,7.2162 -1.41256,4.39861 -5.2955,7.40678 -9.13991,9.64857 -1.19408,3.85574 3.93729,3.07223 6.03811,4.19841 4.09894,1.7674 6.84457,5.42882 9.58064,8.75959 2.6196,2.9362 5.66518,-0.47144 2.96935,-3.09275 -3.85097,-4.18309 -8.22432,-8.08389 -13.52801,-10.32121 -1.44297,1.35044 0.37193,4.15313 1.42441,1.45508 3.15715,-3.76754 5.78483,-8.51033 5.69231,-13.54025 -0.47215,-4.05509 -4.50245,-7.13247 -8.54465,-6.57482 -5.7213,0.39172 -10.6284,4.35017 -13.80337,8.89974 -1.04252,1.88229 1.86162,1.17055 2.71768,1.73809 z" />
    <path
       id="path452"
       style="fill:#000000;stroke:#000000;stroke-width:1.00157;stroke-linecap:round"
       d="m 152.04853,165.63654 c -7.68363,8.17822 -10.60886,21.41535 -5.1487,31.52677 4.60084,6.08392 14.88848,4.96295 18.81878,-1.32173 4.66695,-6.03399 6.64253,-14.51184 4.30982,-21.83764 -3.10743,-6.34393 -14.91059,-4.77942 -15.23382,2.63106 -0.55872,6.05285 5.18968,-1.22632 7.83415,-1.57813 -1.85182,-1.27047 4.30239,1.38545 3.07566,3.9129 1.51655,7.51226 -2.22288,16.10637 -9.41255,19.17707 -5.64623,0.6893 -8.8588,-5.60752 -8.71403,-10.50036 -0.462,-7.4296 2.60176,-14.95957 7.99554,-20.06625 -0.79905,-1.2408 -2.42804,-1.13935 -3.52485,-1.94369 z" />
    <path
       id="path454"
       style="fill:#000000;stroke:#000000;stroke-width:1.00157;stroke-linecap:round"
       d="m 180.55556,168.57929 c 2.63493,8.17925 4.32567,16.7342 4.61795,25.33071 -0.95077,3.3734 -0.13349,7.95403 4.1622,5.44519 2.28827,-1.67211 1.51534,-5.69187 2.55387,-8.34177 0.80074,-3.31849 1.27886,-6.76721 2.72985,-9.87029 -1.30096,0.65178 -4.79977,-0.1935 -2.51267,2.21971 1.71693,3.87184 3.69891,7.62195 5.33799,11.52895 -0.57548,4.63534 6.19121,4.43649 6.79679,0.38721 0.32595,-4.22077 1.63661,-8.21898 2.88103,-12.24826 1.78464,-5.34422 3.81168,-10.76939 7.11292,-15.3601 0.72289,-5.60642 -7.21218,-3.63938 -7.07921,0.8982 -2.74197,8.08981 -6.37732,15.93632 -7.8894,24.4008 -2.77031,3.52972 3.97665,0.16597 3.47576,1.91042 -3.22894,-2.4714 -4.42312,-6.90491 -6.1948,-10.48911 -0.5299,-2.57484 -1.05324,-7.00922 -4.81671,-5.95688 -3.37528,1.10174 -2.09951,5.24663 -2.95467,7.88936 -0.57499,3.72978 -1.76407,7.35448 -3.22794,10.79991 0.91447,1.18207 4.59167,-1.34693 4.24995,1.25701 -1.86048,-5.18481 -2.06534,-10.77857 -3.57783,-16.06664 -1.06682,-4.63321 -2.13434,-9.30425 -2.32885,-14.0721 -1.11206,0.1127 -2.22429,0.22412 -3.33623,0.33768 z" />
    <path
       id="path456"
       style="fill:#000000;stroke:#000000;stroke-width:1.00157;stroke-linecap:round"
       d="m 264.73006,169.82065 c 2.61695,7.30041 4.71974,14.92038 5.05353,22.6959 -1.35485,2.60765 0.13983,4.92685 3.06584,3.65191 3.20678,0.31731 2.85676,-3.0253 3.4263,-5.15342 2.13623,-8.71479 6.3717,-16.70972 10.60798,-24.54927 0.36525,-3.38088 -4.27383,-3.60332 -5.98224,-1.56487 -1.33945,2.70218 -2.14415,5.69797 -3.31918,8.49864 -2.35589,6.05876 -4.59692,12.17914 -6.97222,18.2189 -2.79801,3.26988 2.4724,2.16045 4.34546,2.59732 -2.79154,-2.21908 -2.52445,-6.364 -3.74108,-9.48469 -1.3574,-5.03974 -2.77267,-10.08945 -3.42757,-15.27986 -1.01892,0.12315 -2.03799,0.2463 -3.05682,0.36944 z" />
    <path
       id="path458"
       style="fill:#000000;stroke:#000000;stroke-width:1.00157;stroke-linecap:round"
       d="m 298.6753,168.19531 c 1.58297,7.90208 0.67235,16.00951 0.41287,23.99049 0.64554,2.55974 -2.86332,7.81597 1.2416,8.16 4.28984,-0.14098 7.96683,-2.69955 12.14211,-3.42568 2.94791,-0.75856 5.93524,-1.35931 8.8665,-2.18335 2.06475,-2.53954 -2.51485,-4.30067 -4.56407,-3.67566 -4.18075,1.17145 -8.25458,2.74793 -12.48571,3.7798 -1.19331,0.4057 -5.31636,1.34475 -4.42386,1.50652 1.32446,-0.63025 4.76142,0.0122 3.93208,1.05205 -1.43656,-2.38878 -1.15066,-5.38544 -1.50278,-8.06441 -0.22114,-5.8347 0.0613,-11.68763 -0.20281,-17.51349 0.53439,-2.14866 0.1426,-4.68821 -2.62299,-3.66374 l -0.39647,0.0187 z" />
    <path
       id="path460"
       style="fill:#000000;stroke:#000000;stroke-width:1.00157;stroke-linecap:round"
       d="m 303.58408,183.42142 c 2.78576,-1.64479 5.98107,-2.56234 8.63367,-4.41585 1.58145,-1.42038 0.59335,-3.83455 -1.57411,-3.17829 -3.02871,-0.12078 -5.77886,1.28991 -8.40702,2.60473 -0.81881,0.68592 -3.45049,0.84339 -3.24911,1.43245 1.53219,1.18565 3.06434,2.37136 4.59657,3.55696 z" />
    <path
       id="path462"
       style="fill:#000000;stroke:#000000;stroke-width:1.00157;stroke-linecap:round"
       d="m 301.51262,172.8379 c 2.83761,-2.55634 6.61983,-3.97602 8.99406,-7.05798 0.3074,-1.0284 2.17476,-2.21896 1.75793,-2.97274 -1.80825,-0.0829 -3.59558,0.37668 -5.3687,0.67734 -4.26273,1.01812 -7.91935,3.54589 -11.87845,5.30982 2.16505,1.34785 4.33011,2.69571 6.49516,4.04356 z" />
    <path
       id="path464"
       style="fill:#000000;stroke:#000000;stroke-width:1.00157;stroke-linecap:round"
       d="m 340.16944,164.68015 c -4.27181,2.69424 -8.59435,5.99725 -10.30611,10.95845 -1.97089,4.99444 -1.64846,11.33807 2.02964,15.46547 2.61496,2.5147 6.44738,1.92405 9.74419,1.82485 1.86482,-0.47159 4.64134,-0.19359 5.48578,-2.33566 1.26181,-3.25177 -3.33355,-2.15354 -5.20955,-2.40134 -1.06508,0.0869 -3.57142,0.85676 -3.73159,0.65245 2.83242,0.49274 -1.74107,0.46461 -2.47042,-0.10348 -3.12584,-1.40567 -3.47768,-5.42943 -3.11523,-8.42594 0.72962,-5.81906 5.0693,-10.76285 10.52561,-12.73311 1.14748,-0.77383 -2.36243,-2.1081 -2.95232,-2.90169 z" />
    <path
       id="path466"
       style="fill:#000000;stroke:#000000;stroke-width:1.00157;stroke-linecap:round"
       d="m 366.95192,163.07701 c 0.58944,4.6909 -0.048,9.421 0.0212,14.12762 -0.20451,5.35123 -1.11843,10.65446 -1.73624,15.9508 0.0582,2.66853 3.37822,2.53648 4.29954,0.47148 0.64782,-2.12752 0.0782,-4.48332 0.38532,-6.70684 0.29222,-7.15162 0.65571,-14.32634 0.42528,-21.47409 0.79314,-1.66822 -0.0566,-2.90968 -1.92181,-2.35907 -0.4911,-0.003 -0.98221,-0.007 -1.4733,-0.01 z" />
    <path
       id="path468"
       style="fill:#000000;stroke:#000000;stroke-width:1.00157;stroke-linecap:round"
       d="m 360.02166,169.86867 c 3.96365,-0.58375 7.9206,-1.2455 11.75014,-2.45623 3.82077,-1.17274 7.80419,-1.85284 11.50872,-3.36986 2.80171,-0.89701 0.99746,-3.99741 -1.38092,-3.6727 -4.21119,-0.6446 -8.11195,1.60044 -12.09362,2.58113 -4.32615,1.05359 -8.6396,2.38572 -13.10975,2.60381 0.21808,1.60365 2.46247,2.77132 3.32543,4.31385 z" />
    <path
       id="path470"
       style="fill:#000000;stroke:#000000;stroke-width:1.00157;stroke-linecap:round"
       d="m 395.28832,164.78973 c -4.21269,6.91706 -7.48898,15.83853 -3.74177,23.66528 3.22787,5.38855 11.07261,4.59189 15.53857,1.27193 6.06609,-4.95032 10.22826,-13.43714 8.01217,-21.27354 -1.68202,-6.13232 -11.64317,-5.53546 -13.38706,0.25724 -0.81808,3.61981 0.79171,3.66731 3.06565,1.56046 1.46109,-0.38966 5.22281,-2.34952 3.70849,-1.79998 3.32172,2.66464 1.70964,7.66126 0.54778,11.11754 -1.72775,4.29529 -5.34095,7.76633 -9.6656,9.28765 -4.06983,0.70484 -6.1966,-5.26842 -5.77858,-8.94639 0.10998,-4.89988 2.08687,-9.69337 5.30694,-13.36803 -0.64462,-1.40458 -2.56417,-0.90148 -3.60659,-1.77216 z" />
    <path
       id="path472"
       style="fill:#000000;stroke:#000000;stroke-width:1.00157;stroke-linecap:round"
       d="m 424.422,164.36818 c 0.62992,7.85857 -0.50485,15.70357 -0.84917,23.54252 0.43629,2.08809 3.13472,2.84519 4.40621,1.03397 0.92191,-1.17565 0.32432,-2.79359 0.44589,-4.16713 -0.15973,-6.67525 0.0707,-13.38244 0.87703,-20.00772 -1.22744,-0.83048 -3.13607,-0.0973 -4.64861,-0.39778 l -0.23135,-0.004 z" />
    <path
       id="path474"
       style="fill:#000000;stroke:#000000;stroke-width:1.00157;stroke-linecap:round"
       d="m 424.33954,166.50196 c 2.55676,-2.0822 5.61317,-3.9919 9.03173,-3.90287 -2.47515,0.27366 3.12563,1.19088 2.04515,3.35575 0.0397,3.70372 -2.90612,6.39992 -5.4302,8.70573 -1.71386,2.74679 2.24025,4.68993 3.21919,6.96899 2.44739,2.54396 3.21481,6.49491 6.00424,8.59732 2.11696,1.73457 5.43398,-1.32319 3.14395,-3.25463 -2.19426,-2.09999 -3.63694,-4.83376 -5.29657,-7.35892 -0.60964,-1.17685 -2.45249,-4.44449 -1.89816,-2.90696 2.0452,-3.54693 4.86108,-7.01168 5.1328,-11.24812 -0.17248,-3.64767 -3.93442,-6.18561 -7.40198,-5.87337 -4.50608,-0.21524 -8.37362,2.50096 -12.17084,4.50549 0.2517,0.97629 2.61436,1.59559 3.62069,2.41159 z" />
    <path
       id="path476"
       style="fill:#000000;stroke:#000000;stroke-width:1.00157;stroke-linecap:round"
       d="m 722.40365,164.92245 c -7.13711,4.803 -12.26512,13.2568 -11.94555,21.94898 0.83085,7.26973 8.95294,9.95413 15.24779,9.4851 3.4756,0.52305 10.4294,-3.9585 6.53945,-6.54012 -5.20385,1.1334 -11.64687,3.84816 -16.21703,-0.2507 -3.85393,-5.6848 -0.45724,-13.52504 4.0414,-17.81248 1.80922,-2.0187 7.24203,-4.95796 2.33394,-6.83078 z" />
    <path
       id="path478"
       style="fill:#000000;stroke:#000000;stroke-width:1.00157;stroke-linecap:round"
       d="m 747.35163,169.97363 c -4.7453,4.81189 -8.68512,11.35125 -7.44817,18.37601 0.19648,4.97335 4.8564,9.51049 9.95128,7.81323 5.04746,-1.44949 9.20793,-5.20283 12.37129,-9.28609 2.74787,-4.05953 4.65631,-9.7606 2.24993,-14.38391 -2.50864,-3.18732 -8.50073,-5.21475 -11.61238,-1.8274 -1.67699,1.92005 0.0587,4.55122 1.87141,2.32946 2.07961,0.20154 2.33445,-0.44487 2.19854,-0.2675 4.2943,0.56943 5.10209,5.89936 3.4743,9.20795 -2.10631,5.74643 -7.33188,10.28653 -13.23846,11.71131 -5.67048,-1.46198 -5.44335,-9.13824 -3.63354,-13.55598 0.698,-3.67046 5.4857,-6.47962 5.98234,-9.08124 -0.67396,-0.46095 -1.55381,-0.46325 -2.16654,-1.03584 z" />
    <path
       id="path480"
       style="fill:#000000;stroke:#000000;stroke-width:1.00157;stroke-linecap:round"
       d="m 775.64481,166.86418 c 0.46904,7.64163 -0.27741,15.35613 -1.82882,22.84054 -0.53641,2.68617 -3.89841,7.9583 1.05118,8.05758 3.69842,-0.6132 7.3683,-1.5867 11.15547,-1.54917 1.42023,-0.0564 5.7155,-0.086 5.24528,0.15263 1.72081,0.0512 5.50129,-0.40199 6.42053,-2.62017 -1.25116,-2.59125 -4.82249,-1.15457 -7.13482,-1.47717 -5.53476,-0.009 -11.11887,0.27043 -16.52257,1.55196 1.35739,-1.02321 3.67081,1.10544 2.50505,0.95047 -0.17705,-3.87989 0.55951,-7.74595 0.74692,-11.62081 0.48384,-5.42395 1.04569,-10.84788 1.99662,-16.21268 -1.21161,-0.0244 -2.42327,-0.0488 -3.63484,-0.0732 z" />
    <path
       id="path482"
       style="fill:#000000;stroke:#000000;stroke-width:1.00157;stroke-linecap:round"
       d="m 804.65976,170.25638 c -0.0838,5.78681 -0.50255,11.76596 1.57444,17.29509 0.82143,1.94337 1.40564,4.12248 2.81667,5.71917 1.94438,1.08011 4.35339,0.73972 6.50316,0.79489 2.48702,-0.41526 3.94182,-2.83315 5.24055,-4.76144 2.56081,-4.79731 3.9025,-10.12316 5.92774,-15.15045 1.56388,-2.32533 0.7075,-4.7973 -1.63443,-6.03518 -1.12271,-0.74247 -2.79203,0.95214 -4.00356,1.17018 -1.82317,2.16475 -1.43078,5.2656 -2.37476,7.8197 -1.01989,3.99272 -2.59042,7.95513 -5.19041,11.17469 -0.94913,0.53463 -2.63859,1.29634 -0.41908,1.22423 1.24516,-0.0903 2.02885,0.69649 0.26509,0.34122 -3.01561,-1.22554 -4.38561,-4.60003 -5.27292,-7.50742 -0.5994,-2.81387 -0.78274,-5.7528 -0.57422,-8.61024 0.84382,-1.96904 0.47674,-4.0081 -2.08862,-3.41718 l -0.38483,-0.0286 z" />
    <path
       id="path484"
       style="fill:#000000;stroke:#000000;stroke-width:1.00157;stroke-linecap:round"
       d="m 837.53279,191.7175 c 1.64354,-5.92133 3.62507,-11.75516 4.79772,-17.79696 0.37479,-2.22295 2.20872,-5.46094 1.70807,-7.04672 -1.86545,0.70566 -7.18772,-1.41678 -4.98844,1.84279 1.9646,5.18171 3.08772,10.64222 4.60224,15.94649 1.01936,2.40008 4.83121,2.89708 6.71379,1.36639 1.43453,-2.08702 1.93112,-4.69154 3.09919,-6.95485 2.07814,-4.96623 4.40957,-9.8902 7.51329,-14.29911 -1.92029,-0.18586 -6.64182,-1.07263 -5.01868,2.59729 1.5088,7.01341 2.29653,14.1915 3.90916,21.19853 -0.009,3.85925 7.59727,3.09629 5.8078,-0.7167 -2.07196,-6.61092 -4.09932,-13.35722 -4.04814,-20.3603 0.99557,-3.32583 -1.21868,-5.13888 -4.4415,-5.02935 -3.95864,-0.61251 -3.02459,5.69339 -5.19184,8.03434 -1.93019,4.02737 -3.98699,8.03476 -6.33331,11.82141 -1.3252,0.78009 3.80318,0.44329 3.66076,1.08547 -3.22848,-5.29652 -4.35854,-11.55786 -4.73864,-17.66668 -1.79276,-1.07989 -5.29338,-0.28135 -6.48154,0.8015 -0.56503,3.16889 -0.55346,6.42936 -1.52372,9.53516 -1.17129,4.53132 -2.3425,9.09086 -3.88614,13.498 -0.46775,2.55376 3.41787,1.38939 4.83993,2.1433 z" />
    <path
       id="path486"
       style="fill:#000000;stroke:#000000;stroke-width:1.00157;stroke-linecap:round"
       d="m 880.51474,190.51923 c 0.98381,-5.43495 3.2846,-10.51735 4.53387,-15.8896 0.1943,-2.15379 2.85974,-6.26997 1.75712,-7.03156 -2.08106,-0.18603 -5.5492,0.23613 -2.87161,2.75542 3.56605,7.32525 5.77812,15.2815 9.86753,22.3498 0.74597,1.8089 0.82388,5.07857 4.02967,3.54059 2.25948,-0.49679 5.32577,-0.91431 5.27534,-3.87015 1.20025,-7.48971 3.50543,-14.74432 5.9727,-21.89324 1.33536,-3.01113 -1.77623,-7.1082 -4.03133,-3.24551 -2.59633,3.5157 -2.58909,8.12722 -4.2813,12.05124 -1.39879,4.34334 -2.77975,8.81839 -5.20897,12.67447 1.34984,1.63236 5.6361,-0.47249 6.27742,1.3459 -0.58199,-2.91691 -4.04636,-3.39535 -5.57403,-5.75513 -4.43083,-5.25904 -6.59262,-11.9746 -8.02194,-18.59352 0.75131,2.47378 0.005,-3.48888 -2.40343,-2.87577 -3.92947,-2.41798 -4.48411,2.47263 -4.18863,5.32816 -0.62985,5.46913 -2.51572,10.68889 -4.12003,15.91441 -2.25621,2.44879 0.31863,2.95309 2.26107,3.0746 0.24218,0.04 0.48443,0.08 0.72655,0.11989 z" />
    <path
       id="path488"
       style="fill:#000000;stroke:#000000;stroke-width:1.00157;stroke-linecap:round"
       d="m 956.15301,169.47093 c 3.00959,5.47006 4.10375,11.73574 5.38122,17.76209 -0.60541,3.32022 2.48455,4.19563 5.08509,3.326 3.36742,-0.91641 4.16947,-5.13153 6.27611,-7.56351 3.37233,-5.39699 6.35979,-11.0311 9.50745,-16.55406 1.08037,-2.261 -1.03603,-5.77863 -3.47357,-3.56763 -2.86157,1.11557 -3.42471,4.36371 -4.90692,6.70285 -2.99831,5.58762 -6.48376,10.93527 -10.31952,15.96413 -2.37344,1.34964 5.61407,-1.11416 3.45896,1.60124 -2.63834,-4.41896 -3.74357,-9.56952 -4.94795,-14.53034 0.0703,-3.20107 -1.68379,-5.15765 -4.75422,-3.40235 -0.42823,0.11908 -0.86187,0.22494 -1.30665,0.26158 z" />
    <path
       id="path490"
       style="fill:#000000;stroke:#000000;stroke-width:1.00157;stroke-linecap:round"
       d="m 990.8873,167.19525 c 0.28574,6.35916 -0.55968,12.70423 -1.37,18.99112 -0.67226,1.74373 -2.32638,4.65521 0.0827,5.78728 2.23536,0.32269 4.71072,0.21605 6.71675,-0.94503 3.44671,-1.84802 7.29409,-2.74777 10.87939,-4.279 1.7925,-1.96959 -0.9547,-4.09182 -2.9132,-4.12322 -3.1932,-0.76029 -6.02157,1.36976 -8.81875,2.53617 -1.41005,0.87283 -4.23091,2.00147 -4.95802,2.62124 1.17494,0.39818 4.48708,-0.85694 3.45928,1.4873 -1.66908,-1.85678 -1.12657,-4.73654 -1.24714,-7.05243 0.0967,-4.85239 0.62799,-9.72659 1.93387,-14.40713 -0.44449,-1.1051 -2.70736,-0.23231 -3.76484,-0.6163 z" />
    <path
       id="path492"
       style="fill:#000000;stroke:#000000;stroke-width:1.00157;stroke-linecap:round"
       d="m 994.54463,180.52618 c 2.02567,-1.60293 4.61945,-2.35978 6.47977,-4.19047 0.7493,-1.60665 -0.8772,-3.22115 -2.46942,-3.22643 -2.34987,-0.63267 -4.67226,0.35687 -6.6519,1.55841 -0.70839,0.86702 -3.19851,0.81246 -2.98499,1.95132 1.35047,0.94343 2.72793,1.85688 4.07188,2.82567 0.51822,0.3605 1.03644,0.721 1.55466,1.0815 z" />
    <path
       id="path494"
       style="fill:#000000;stroke:#000000;stroke-width:1.00157;stroke-linecap:round"
       d="m 993.73774,168.82972 c 3.64354,-1.96714 7.08216,-4.29876 10.46596,-6.67291 0.9305,-0.99122 1.7084,-3.71472 1.1205,-4.30838 -2.7979,0.21824 -5.83562,-0.0412 -8.25372,1.65658 -2.57824,1.57384 -5.12056,3.21096 -7.74136,4.70782 -2.71112,1.92036 1.3621,2.64711 2.64452,3.62615 0.58005,0.34403 1.15941,0.69105 1.7641,0.99074 z" />
    <path
       id="path496"
       style="fill:#000000;stroke:#000000;stroke-width:1.00157;stroke-linecap:round"
       d="m 1024.6453,161.83209 c -5.6636,2.82021 -10.2532,8.30208 -11.0249,14.70101 -0.3236,3.07788 0.01,6.41779 1.9331,8.95963 1.3754,1.95003 3.6157,3.19519 5.986,3.40309 3.1571,0.50349 6.6689,1.02282 9.5841,-0.64181 0.9093,-0.61654 2.1213,-1.38318 2.1114,-2.61531 -0.3691,-1.31102 -2.0912,-1.42663 -3.2215,-1.28295 -1.672,0.23397 -3.4197,-0.14164 -5.13,-0.10636 -2.3073,-0.0522 -4.5939,-1.28078 -5.7592,-3.29337 -1.4099,-2.70435 -0.6734,-5.97945 0.62,-8.58015 1.7171,-3.32502 4.7369,-5.88364 8.1762,-7.29944 0.4325,-1.24487 -1.0879,-1.78935 -1.9538,-2.21215 -0.4935,-0.25649 -1.0503,-0.51562 -1.3214,-1.03219 z" />
    <path
       id="path498"
       style="fill:#000000;stroke:#000000;stroke-width:1.00157;stroke-linecap:round"
       d="m 1052.3618,161.5427 c -1.327,8.17631 -1.9737,16.45446 -3.402,24.61115 -0.5485,2.72781 3.0589,4.32628 4.9128,2.4423 1.3865,-1.74027 0.8395,-4.21419 1.042,-6.29811 -0.023,-4.08667 0.6956,-8.1232 1.0784,-12.18235 0.3477,-2.54586 0.6942,-5.12946 1.5499,-7.55096 -1.2936,-0.74665 -3.3305,-0.55574 -4.9111,-0.97973 z" />
    <path
       id="path500"
       style="fill:#000000;stroke:#000000;stroke-width:1.00157;stroke-linecap:round"
       d="m 1044.7829,169.5913 c 7.1527,-0.69137 14.1275,-2.50587 21.0741,-4.26871 3.2317,-1.43635 0.3265,-4.8965 -2.2822,-4.41913 -3.6629,-0.37395 -7.1433,1.27573 -10.7203,1.80266 -4.2004,0.8911 -8.4568,1.61841 -12.7577,1.73677 1.562,1.71616 3.1241,3.43225 4.6861,5.14841 z" />
    <path
       id="path502"
       style="fill:#000000;stroke:#000000;stroke-width:1.00157;stroke-linecap:round"
       d="m 1081.1403,161.87063 c -5.9334,5.79253 -10.801,14.14082 -8.9812,22.7011 1.9957,5.03654 8.6043,4.86515 12.9983,3.71486 6.143,-1.9667 12.3745,-5.99846 14.0735,-12.61764 1.8787,-4.36427 1.6714,-11.05086 -3.518,-12.93869 -3.2818,-0.89999 -9.8489,-0.63951 -8.3891,4.43014 0.4277,2.74803 6.2699,0.44063 6.2972,1.67648 -2.25,0.20671 -2.9961,-1.35673 -1.5462,1.21604 0.1987,5.2366 -4.151,9.67691 -8.6262,11.74735 -1.5308,0.88665 -5.381,1.12611 -1.9255,1.76327 -4.7731,0.59903 -6.0921,-5.70389 -4.6021,-9.20464 0.6136,-4.4792 5.6336,-8.33854 7.4569,-10.67062 -1.0792,-0.60587 -2.1586,-1.21149 -3.2376,-1.81765 z" />
    <path
       id="path504"
       style="fill:#000000;stroke:#000000;stroke-width:1.00157;stroke-linecap:round"
       d="m 1112.6048,165.31437 c 0.056,6.11057 -1.9628,11.96218 -3.428,17.8221 -0.544,1.43669 -0.7248,3.80796 1.0239,4.44406 1.4666,0.22717 3.5129,0.67859 4.3718,-0.93835 1.1354,-1.50287 0.7874,-3.50281 1.2144,-5.25007 0.7876,-5.25419 1.9249,-10.45654 3.4161,-15.55608 -2.1994,-0.17389 -4.3988,-0.34777 -6.5982,-0.52166 z" />
    <path
       id="path506"
       style="fill:#000000;stroke:#000000;stroke-width:1.00157;stroke-linecap:round"
       d="m 1112.2293,164.51825 c 3.0586,-3.71089 12.2316,-2.36265 10.852,3.39446 -2.0321,3.19432 -10.6841,1.77132 -7.4847,7.48351 3.4142,3.85741 7.2845,7.34119 10.1154,11.7141 1.5507,5.04233 11.1164,6.17997 9.2128,-0.58849 -4.1071,-4.02263 -8.4956,-8.13151 -11.5728,-13.17268 -2.1916,-1.81471 -0.027,4.51524 2.2341,1.33119 4.0234,-2.82372 7.3557,-9.33394 2.7005,-13.19696 -5.1989,-4.99486 -13.7923,-4.32949 -19.5131,-0.61728 -2.0956,1.9681 2.6893,2.61669 3.4558,3.65215 z" />
  </g>
</svg>
