<?xml version="1.0" encoding="UTF-8" standalone="no"?>
<svg
   xmlns:dc="http://purl.org/dc/elements/1.1/"
   xmlns:cc="http://creativecommons.org/ns#"
   xmlns:rdf="http://www.w3.org/1999/02/22-rdf-syntax-ns#"
   xmlns:svg="http://www.w3.org/2000/svg"
   xmlns="http://www.w3.org/2000/svg"
   xmlns:sodipodi="http://sodipodi.sourceforge.net/DTD/sodipodi-0.dtd"
   xmlns:inkscape="http://www.inkscape.org/namespaces/inkscape"
   id="svg8"
   version="1.1"
   viewBox="0 0 158.75 79.375"
   height="300"
   width="600"
   sodipodi:docname="np-brownie.svg"
   inkscape:version="1.0.1 (3bc2e813f5, 2020-09-07)">
  <sodipodi:namedview
     pagecolor="#ffffff"
     bordercolor="#666666"
     borderopacity="1"
     objecttolerance="10"
     gridtolerance="10"
     guidetolerance="10"
     inkscape:pageopacity="0"
     inkscape:pageshadow="2"
     inkscape:window-width="1920"
     inkscape:window-height="1061"
     id="namedview63"
     showgrid="false"
     inkscape:zoom="2.8284271"
     inkscape:cx="360.26442"
     inkscape:cy="163.36565"
     inkscape:window-x="0"
     inkscape:window-y="19"
     inkscape:window-maximized="0"
     inkscape:current-layer="svg8"
     inkscape:document-rotation="0" />
  <defs
     id="defs2" />
  <metadata
     id="metadata5">
    <rdf:RDF>
      <cc:Work
         rdf:about="">
        <dc:format>image/svg+xml</dc:format>
        <dc:type
           rdf:resource="http://purl.org/dc/dcmitype/StillImage" />
        <dc:title />
      </cc:Work>
    </rdf:RDF>
  </metadata>
  <path
     d="m 28.136684,76.51749 c 3.837124,-0.008 7.590754,0.96793 11.394035,1.25048 2.719655,-0.31089 5.364953,-1.10345 8.117629,-1.17401 4.258154,-0.60849 8.515048,-1.22132 12.794237,-1.6535 3.376544,-0.54121 6.854605,-1.20702 10.247558,-0.3991 3.320968,0.66713 3.910477,-3.07461 2.962578,-5.4158 -1.512068,-2.66186 -0.311647,-5.41459 -0.08031,-8.16962 -0.124656,-2.66375 -3.432368,-2.03392 -5.272366,-2.16527 -6.052586,0.0302 -11.93763,1.69024 -17.978539,1.88255 -5.078944,0.45416 -10.149283,1.96519 -15.271477,1.04072 -5.511393,-0.49195 -11.063743,0.0733 -16.481329,1.11229 -2.146469,-0.38728 -5.814137,-0.52652 -5.590672,2.6062 -0.212836,3.13948 0.231926,6.31015 -0.300893,9.42952 0.286581,1.36532 -0.956738,2.32531 0.719444,2.55927 2.004659,-0.31353 3.922667,-1.01943 6.01881,-0.7405 2.888626,-0.0935 5.856529,-0.76818 8.721295,-0.16323 z"
     style="fill:#713425;fill-opacity:1;stroke:#713425;stroke-width:0.264583px;stroke-linecap:butt;stroke-linejoin:miter;stroke-opacity:1"
     id="path1576" />
  <path
     d="m 72.843549,60.27121 c -1.081595,-2.76109 0.0017,-5.919 -1.530682,-8.60825 -1.028137,-2.25448 1.666415,-6.99573 -2.202731,-6.69644 -2.16673,0.15152 -4.26223,0.88073 -6.452053,0.78725 -9.058386,0.74803 -18.326141,0.32962 -27.127452,2.95478 -2.961323,0.4974 -5.983145,0.58341 -8.903393,1.33378 -2.670964,0.39113 -5.371723,0.72763 -8.019191,1.17523 -1.664831,-0.54935 -3.683557,0.0368 -3.318909,2.14711 -0.910971,2.54528 -1.481345,5.18181 -1.947396,7.82331 -1.050379,1.41969 -0.79392,4.29224 1.217194,2.88606 3.200768,-0.32292 6.374192,-0.92489 9.5994,-0.8485 2.970448,-0.25717 5.94616,-0.52374 8.927211,-0.35018 3.370468,-0.22003 6.756959,-1.30885 10.128476,-0.46127 6.091016,0.6668 12.075538,-1.41219 18.169751,-1.00261 3.509242,0.0154 7.008387,-0.45262 10.414969,-1.25622 0.351402,-0.0153 0.705643,0.022 1.044806,0.11595 z"
     style="fill:#cb480b;fill-opacity:1;stroke:#cb480b;stroke-width:0.264583px;stroke-linecap:butt;stroke-linejoin:miter;stroke-opacity:1"
     id="path1590" />
  <path
     d="m 12.650678,64.71766 c 0.356082,4.08868 5.749678,1.20678 8.27847,1.03252 4.426233,-0.73049 8.944048,-0.0747 13.377732,-0.84678 3.424188,-0.0976 6.914108,0.37644 10.267437,-0.58407 4.754513,-0.43497 9.511343,1.0004 14.258412,0.0776 4.389649,-0.68171 8.794309,-1.92391 13.262546,-1.32454 2.794983,-1.03089 0.480544,-4.48033 -1.708938,-2.56311 -2.888286,0.54408 -5.827904,0.81017 -8.693055,1.38126 -2.938312,-0.45321 -5.831979,-0.0232 -8.753578,0.28892 -5.002178,0.0464 -9.999345,0.34728 -14.997921,0.11632 -3.195201,0.32616 -6.421355,0.1647 -9.610751,0.54448 -3.673651,0.98289 -7.542854,0.69246 -11.305564,0.97339 -1.123202,-0.45329 -5.609499,0.5196 -3.968409,0.51606 0.442808,-0.60047 1.53053,-1.57857 1.903386,-0.28572"
     style="fill:#421f16;fill-opacity:1;stroke:#421f16;stroke-width:0.264583px;stroke-linecap:butt;stroke-linejoin:miter;stroke-opacity:1"
     id="path1636" />
  <path
     d="m 9.2317517,51.95568 c -0.207246,2.15007 -0.892426,5.05815 0.678687,6.7287 2.8841193,0.83628 5.9834793,-0.295 8.9401613,0.36893 3.811309,1.1285 7.740846,0.91338 11.661954,0.76819 3.226346,0.51228 6.516616,0.4649 9.75803,0.77045 4.180012,-0.2963 8.352115,0.0626 12.53292,-0.0617 2.855742,0.28444 5.567959,1.74435 8.515924,1.0428 4.346776,0.28247 1.423849,-3.81653 0.456524,-5.70346 -0.833886,-2.46592 1.973183,-6.31342 -0.620183,-7.70332 -5.186477,0.0848 -10.39248,-0.12118 -15.576677,0.27766 -5.33572,-0.12968 -10.535212,-1.9698 -15.910334,-1.40145 -5.052142,0.23928 -10.120878,0.17078 -15.137539,-0.48265 -1.919509,0.4979 -7.5191663,-0.96836 -6.0885113,2.48976 0.367035,0.90581 1.146379,1.88063 0.789044,2.90613 z"
     style="fill:#713425;fill-opacity:1;stroke:#713425;stroke-width:0.264583px;stroke-linecap:butt;stroke-linejoin:miter;stroke-opacity:1"
     id="path1598" />
  <path
     d="m 59.9723,47.83115 c -0.803477,2.41303 -0.316432,4.99215 0.191322,7.41165 0.701696,1.32182 1.066213,2.78088 1.277455,4.2503 0.226789,1.18276 1.634482,1.14896 2.402793,0.78925 0.611157,-1.08199 1.388352,-2.03527 2.157477,-3.0136 0.81095,-0.86653 1.814296,-1.52671 2.624644,-2.40152 1.173072,-1.23755 2.585549,-2.198 3.849785,-3.33039 0.924512,-0.82143 1.592197,-1.87335 2.233174,-2.90955 0.994169,-1.10269 2.070847,-2.19341 2.578278,-3.62387 0.880353,-1.14246 0.472572,-2.43848 -0.228167,-3.51661 -0.784314,-1.63654 -1.447479,-3.38942 -1.424562,-5.22622 -0.167689,-1.23559 -1.490033,-1.10902 -1.895596,-0.0908 -2.812183,2.92938 -6.766781,4.70519 -8.918591,8.26821 -0.808105,1.14183 -2.055944,1.82631 -3.174881,2.60194 -0.475047,0.40216 -1.045054,0.72416 -1.673131,0.7912 z"
     style="fill:#421f16;fill-opacity:1;stroke:#421f16;stroke-width:0.264583px;stroke-linecap:butt;stroke-linejoin:miter;stroke-opacity:1"
     id="path1606" />
  <path
     d="m 8.8606267,50.22785 c -3.489706,-0.64581 0.181285,-5.2716 2.4276843,-3.7203 3.302085,0.77968 6.703391,-0.0314 10.050327,0.14341 9.288151,-0.17303 18.638202,-0.065 27.810063,1.54942 3.778145,0.29096 7.590387,-0.21735 11.285363,-0.94515 4.610611,-1.77782 7.514849,-6.07944 11.637717,-8.63437 2.363348,-0.63113 3.984818,-5.22511 0.296573,-4.47825 -3.083162,0.7052 -6.235839,0.36012 -9.305888,-0.24674 -4.432704,-0.53327 -8.919618,-0.52805 -13.376159,-0.84215 -3.652874,-0.27754 -7.343019,-0.17684 -10.972903,-0.64859 -4.166806,-0.84225 -8.695708,-2.60993 -12.80116,-0.55034 -4.056047,1.46983 -7.318636,4.464 -9.970978,7.7792 -2.379237,2.35597 -5.26782,4.21941 -7.2307273,6.97735 -0.367792,1.19447 0.09513,2.41548 0.150088,3.61651 z"
     style="fill:#cb480b;fill-opacity:1;stroke:#cb480b;stroke-width:0.264583px;stroke-linecap:butt;stroke-linejoin:miter;stroke-opacity:1"
     id="path1614" />
  <path
     d="m 8.7012057,46.55353 c 7e-6,3.85594 4.7280843,2.57009 7.0741773,1.99887 3.391095,-0.96643 6.684499,0.86507 10.110853,0.42883 3.492177,0.11565 6.971736,0.83417 10.476364,0.31286 2.83236,-0.25374 5.670862,0.28317 8.502502,0.27192 2.990806,0.62316 6.07133,1.01098 9.11619,0.63953 1.944904,-0.99582 4.39988,-0.25034 6.180684,-1.65193 1.127679,-2.59366 -3.363993,-0.263 -4.702445,-0.77631 -3.199204,-0.52454 -6.472552,-1.46882 -9.653886,-0.28861 -2.992626,0.77743 -5.60452,-1.31233 -8.545131,-1.302 -3.829253,-0.10926 -7.662803,0.49368 -11.48051,-0.0634 -5.008875,-0.0674 -10.021893,1.26007 -15.01191,0.28099 -0.691411,-0.0343 -1.3887673,0.008 -2.0668883,0.14924 z"
     style="fill:#421f16;fill-opacity:1;stroke:#421f16;stroke-width:0.264583px;stroke-linecap:butt;stroke-linejoin:miter;stroke-opacity:1"
     id="path1628" />
  <path
     d="m 12.805048,76.8342 c -1.074884,-2.38987 0.812986,-4.678 1.946514,-6.63986 1.510088,-1.78862 5.03268,-2.31816 6.185664,0.139 0.914184,2.18497 2.864496,3.52721 4.490068,5.1362 3.138974,1.91585 5.158091,-2.57037 6.795141,-4.5173 2.744064,-2.71697 6.905781,-2.81735 10.404189,-3.94928 2.290575,-1.11546 5.639997,1.10583 3.800973,3.5914 -1.38767,1.28311 -4.475172,3.09609 -1.324135,4.5529 2.910062,1.10673 5.927981,-0.72933 8.604038,-1.67977 2.021617,-1.3288 4.745985,-0.99025 6.915064,-0.18741 -0.31017,2.77343 -4.046456,1.79651 -5.970577,2.4813 -2.34311,1.05045 -4.834677,1.28809 -7.35716,1.4273 -2.955491,0.51542 -6.061792,1.41729 -8.996481,0.28001 -3.169367,-0.66797 -6.415687,0.19239 -9.596056,-0.40087 -2.868827,0.69268 -5.75019,-0.0676 -8.609359,-0.38831 -2.39508,-0.46296 -5.056306,1.26452 -7.200085,0.3789 z"
     style="fill:#612e21;fill-opacity:1;stroke:#612e21;stroke-width:0.264583px;stroke-linecap:butt;stroke-linejoin:miter;stroke-opacity:1"
     id="path1644" />
  <path
     d="m 61.935508,61.58049 c -2.359922,1.22714 -4.33497,-1.16825 -6.55441,-1.38318 -4.000254,-0.14176 -8.017738,1.0128 -12.00958,0.17165 -2.73064,-1.23328 -5.606676,0.15438 -8.376389,-0.45336 -3.013977,-1.41813 -6.465927,-1.42071 -9.643305,-0.60735 -1.636908,0.60842 -4.707102,-0.0305 -3.926249,-2.34535 0.955409,-2.19457 3.69446,-2.66047 5.821313,-2.9047 1.954651,0.46851 4.606322,-1.44251 5.8506,0.84496 1.278844,0.98092 4.009055,2.11916 5.20245,0.88727 -0.638753,-2.46354 1.864577,-2.88055 3.740268,-2.85885 2.980446,0.27569 5.155378,2.71849 7.900752,3.68519 2.138057,1.848 5.096057,-0.10602 7.514943,0.98808 1.660761,1.04159 2.846524,2.9247 4.950591,2.87419 0.156789,0.41689 -0.19168,0.83402 -0.470984,1.10145 z"
     style="fill:#612e21;fill-opacity:1;stroke:#612e21;stroke-width:0.264583px;stroke-linecap:butt;stroke-linejoin:miter;stroke-opacity:1"
     id="path1810" />
  <path
     d="m 17.363198,35.91522 c 1.229529,3.48723 -0.247279,7.01056 -0.446809,10.43976 -1.764345,2.45985 0.01369,5.11881 2.849303,3.73731 2.833108,-1.34282 5.797461,-2.41276 8.976345,-2.41993 2.936894,-0.77987 5.902074,-1.67269 8.999519,-1.26803 2.853006,0.0436 5.58656,-1.24931 8.46945,-1.03531 2.920435,-0.5971 5.858407,-1.02977 8.826084,-1.20363 3.107314,-0.78865 6.164218,-1.67545 9.281489,-2.41208 2.727972,0.16708 5.05917,-1.16855 7.578467,-1.90261 3.280731,-0.64915 0.05645,-4.93765 0.702246,-7.1698 -0.125405,-2.52258 0.25395,-5.17518 0.252706,-7.58095 -3.258088,-0.96819 -6.573047,1.38328 -9.874962,1.64837 -8.120743,0.76114 -15.809572,3.71184 -23.785005,5.26023 -3.559537,1.59663 -7.287921,1.69376 -11.052557,1.12323 -3.746601,0.21378 -7.183393,1.86198 -10.776276,2.78344 z"
     style="fill:#421f16;fill-opacity:1;stroke:#421f16;stroke-width:0.264583px;stroke-linecap:butt;stroke-linejoin:miter;stroke-opacity:1"
     id="path1818" />
  <path
     d="m 18.324506,37.40149 c 0.345283,-1.16769 -0.04492,-2.59679 -1.333951,-2.93604 -1.422843,-1.27851 -1.809298,-3.25683 -2.89924,-4.78046 -0.793537,-1.21901 -1.566766,-2.4519 -2.217459,-3.75179 -0.232699,-1.12536 -0.682759,-0.28599 -0.303941,0.40046 -0.204633,1.57022 -0.139375,3.20384 -0.242012,4.80264 -0.0943,1.38878 -0.356771,3.04192 0.847854,4.05915 1.070459,1.64889 1.224432,3.68146 1.836689,5.51453 0.617945,2.38845 1.569718,4.69825 1.785281,7.17654 -0.459709,1.53993 1.979621,2.25964 2.084618,0.59867 0.02544,-1.98033 -0.437351,-3.97176 -0.02513,-5.944 0.218966,-1.70701 0.104239,-3.45284 0.467291,-5.1397 z"
     style="fill:#713425;fill-opacity:1;stroke:#713425;stroke-width:0.264583px;stroke-linecap:butt;stroke-linejoin:miter;stroke-opacity:1"
     id="path1826" />
  <path
     d="m 73.157448,26.12233 c -2.108091,-2.66499 -4.122041,-6.36418 -7.90335,-6.59958 -3.348318,-0.98477 -6.475477,0.90919 -9.768428,1.16573 -3.393341,0.62014 -6.304673,2.83296 -9.929588,2.17562 -5.183618,0.56168 -10.116663,2.73675 -15.387071,2.79969 -4.768414,0.60818 -9.584027,0.38146 -14.315108,-0.36073 -2.73567,-1.0993 -6.2305543,1.29435 -3.159432,3.75604 2.555597,2.19844 1.997494,7.13532 5.659775,7.83207 4.219555,-2.12623 9.044662,-1.35773 13.552217,-2.25627 4.386189,-0.87335 8.928021,-0.91088 13.226692,-2.28655 3.758726,-0.95605 7.679264,-1.08911 11.318005,-2.60195 4.683798,-1.41607 9.559113,-2.05126 14.309015,-3.12693 0.762952,-0.28654 1.563042,-0.62236 2.397273,-0.49714 z"
     style="fill:#cb480b;fill-opacity:1;stroke:#cb480b;stroke-width:0.264583px;stroke-linecap:butt;stroke-linejoin:miter;stroke-opacity:1"
     id="path1834" />
  <path
     d="m 72.024045,34.85824 c 0.498696,1.84552 1.356273,4.85511 -0.557163,6.0445 -1.784373,0.45553 -3.648408,0.8673 -5.493313,0.65635 -2.383235,-0.29769 -4.289742,1.44386 -6.487884,2.02988 -3.941719,1.38007 -8.201097,1.1736 -12.246858,2.08898 -2.062452,0.13458 -4.553307,0.87812 -6.371265,-0.34852 -0.797804,-1.38782 -0.26284,-3.27423 -2.331665,-3.47077 -2.037203,-1.88605 2.315924,-3.74685 3.984422,-3.70749 1.675216,0.32536 3.655972,0.75393 4.894889,-0.83374 0.553223,-1.77411 4.19833,-1.95072 2.616918,0.41043 -0.761271,2.37803 2.299935,2.2651 3.803673,2.48219 2.179938,0.3901 3.431011,-1.68852 4.665361,-3.08144 1.414845,-0.95303 2.124767,-2.49907 3.184266,-3.77511 1.561622,-1.23092 3.224533,-3.41573 5.329094,-3.13261 1.031988,1.59754 2.759064,1.9642 4.387666,1.29488 1.153208,0.57349 1.345803,2.35329 0.621859,3.34247 z"
     style="fill:#612e21;fill-opacity:1;stroke:#612e21;stroke-width:0.264583px;stroke-linecap:butt;stroke-linejoin:miter;stroke-opacity:1"
     id="path1842" />
  <path
     d="m 11.609487,26.58393 c -0.358203,1.45743 0.366517,2.93767 1.386005,3.95103 0.908054,1.04069 1.514423,2.2876 2.158256,3.49522 0.447297,0.64087 0.974523,1.21805 1.260331,1.95806 0.362208,0.78468 1.09333,1.27883 1.617259,1.94312 0.962921,0.52813 0.792478,-0.92064 0.487947,-1.42428 -0.437163,-1.04626 -1.106478,-1.97384 -1.635229,-2.97382 -0.614575,-0.98825 -1.26556,-1.96291 -1.626953,-3.08027 -0.542548,-1.56088 -2.175797,-2.51647 -2.470072,-4.18976 -0.121082,-0.44522 -0.939383,-1.77006 -1.004686,-0.68801 0.04856,0.35389 -0.09723,0.67237 -0.172858,1.00871 z"
     style="fill:#421f16;fill-opacity:1;stroke:#421f16;stroke-width:0.264583px;stroke-linecap:butt;stroke-linejoin:miter;stroke-opacity:1"
     id="path1850" />
  <path
     d="m 1.5308527,14.38542 c 1.295359,4.05405 0.994001,8.40917 0.572948,12.48202 2.716545,0.97053 5.953837,0.27224 8.8695013,0.88481 5.938528,0.61501 11.877147,1.26385 17.857309,1.15738 6.039109,0.50225 12.24,0.0287 18.091208,1.89865 2.748602,0.26573 5.482521,1.15003 8.210006,0.53319 3.779436,0.44619 3.410694,-3.44259 2.87451,-5.95305 -0.661382,-2.8168 1.538344,-5.78048 0.204443,-8.38402 C 54.991243,15.18103 51.017151,15.86444 47.515308,14.93774 43.38665,13.70468 39.063795,14.46189 34.878985,13.58736 30.707309,12.80328 26.476091,12.49773 22.237735,12.63768 17.71008,12.50795 13.289492,10.70785 8.7412447,11.64592 c -2.415203,0.76289 -6.806063,-0.94862 -7.210392,2.7395 z"
     style="fill:#713425;fill-opacity:1;stroke:#713425;stroke-width:0.264583px;stroke-linecap:butt;stroke-linejoin:miter;stroke-opacity:1"
     id="path1858" />
  <path
     d="m 61.723584,28.18334 c 1.953291,-1.72971 3.970347,-3.42066 6.313395,-4.60247 1.707326,-1.08069 3.097324,-2.5635 4.804414,-3.64256 2.065809,-1.48624 3.539651,-3.9512 3.219652,-6.55782 C 75.767928,11.05702 75.715703,8.71603 75.368649,6.3997 75.928098,4.66587 74.192668,3.75754 72.938103,4.96326 71.430087,5.7908 70.619466,7.55233 68.892472,8.03016 67.395979,8.83 66.50108,10.3734 65.003655,11.1846 c -2.086258,1.23106 -3.41193,3.32195 -5.375144,4.70934 -1.750276,1.02922 -2.241877,3.13436 -1.941117,5.02232 0.206601,2.32922 -0.946431,4.52961 -0.758714,6.86602 0.171653,1.19962 -1.071085,4.11572 1.137067,3.52508 1.538388,-0.6105 2.587177,-1.92495 3.657837,-3.12402 z"
     style="fill:#421f16;fill-opacity:1;stroke:#421f16;stroke-width:0.264583px;stroke-linecap:butt;stroke-linejoin:miter;stroke-opacity:1"
     id="path1872" />
  <path
     d="M 19.866713,3.14072 C 17.412941,3.99631 15.055374,5.28328 12.65614,6.32493 10.02949,8.69631 6.2778487,8.75699 3.3105787,10.3843 c -0.780895,0.7795 -2.79080403,2.75012 -0.210803,2.14194 2.88399,-1.11918 6.00458,-0.14756 8.9995273,-0.50681 3.021875,-0.31205 6.012374,0.37184 9.007579,0.64638 3.531688,0.84191 7.175235,0.18406 10.746394,0.71664 2.839998,0.19068 5.493546,1.41167 8.34898,1.58345 3.073934,0.6288 6.192573,1.02794 9.333717,0.82528 2.587104,0.37437 5.149114,0.91615 7.673134,1.16956 2.675856,0.0326 3.973327,-2.76234 6.327719,-3.64839 C 66.72933,11.22416 69.462465,8.52557 72.330619,6.0463 73.667006,5.54081 77.219093,3.37173 73.629398,3.38127 71.225728,3.23785 68.871762,4.34502 66.458534,3.72647 63.276568,3.39888 60.355439,1.60513 57.084952,2.03945 54.469473,1.35433 52.026645,2.95307 49.364569,2.53805 45.962202,2.32379 42.561618,2.03718 39.151423,2.26718 36.644357,2.25438 34.281582,0.4348 31.779596,1.6094 29.583586,0.49805 27.511728,1.98426 25.186775,1.83288 23.254581,1.90088 21.368691,1.61101 19.866713,3.14072 Z"
     style="fill:#cb480b;fill-opacity:1;stroke:#cb480b;stroke-width:0.264583px;stroke-linecap:butt;stroke-linejoin:miter;stroke-opacity:1"
     id="path1888" />
  <path
     d="m 78.418841,8.59011 c -0.290021,1.10168 -1.401563,1.68012 -2.09311,2.50948 -1.03732,1.04513 -1.690069,2.45606 -2.959281,3.26953 -1.660284,1.42984 -3.101376,3.14687 -4.058807,5.1271 -0.829417,0.63129 0.01872,1.08111 0.615328,0.55909 1.34175,-0.61383 2.113941,-1.9962 3.429593,-2.65946 1.596052,-0.95452 3.230123,-1.90975 5.006747,-2.48156 1.238014,-0.33909 2.767804,-0.11608 3.696067,-1.16907 1.390003,-1.53978 2.103286,-3.5376 3.448889,-5.11393 0.76165,-1.00875 1.65941,-1.91161 2.32036,-2.98822 0.77877,-1.01942 2.24127,-1.58379 2.50782,-2.93908 3e-4,-1.40616 -1.83051,-0.15028 -2.3902,0.27933 -1.03044,0.82576 -2.18996,1.4472 -3.380803,2.00463 -1.506713,1.03798 -3.726769,1.00477 -4.772242,2.68712 -0.239187,0.49058 -0.709714,1.29514 -1.370361,0.91504 z"
     style="fill:#713425;fill-opacity:1;stroke:#713425;stroke-width:0.264583px;stroke-linecap:butt;stroke-linejoin:miter;stroke-opacity:1"
     id="path1896" />
  <path
     d="m 76.902936,52.87877 c -0.230813,-1.76813 -1.473019,-3.37505 -1.708273,-5.01297 1.605899,-0.0964 3.291728,-0.0871 4.823799,-0.8724 1.840946,-0.85162 3.741489,-1.50221 5.329175,-2.81214 1.29948,-1.37113 3.60622,-1.17724 4.02682,0.86751 0.75421,1.73566 1.01203,3.62681 1.92921,5.30113 0.72902,1.93613 1.63878,3.8467 2.92146,5.47938 1.24043,2.2075 2.17404,4.62743 3.95982,6.47648 1.26897,1.22748 1.39318,3.05787 2.290143,4.48999 1.07955,1.67671 1.92525,3.55202 2.43702,5.44601 1.11826,1.98394 -0.89947,3.68207 -2.67311,4.06753 -1.271133,1.25032 -3.100733,0.32335 -4.449803,1.63375 -1.77724,1.00575 -4.27958,0.94981 -5.85336,-0.4088 -1.28567,-1.672 -2.07513,-3.65616 -2.82558,-5.62012 -1.11469,-1.47651 -1.47725,-3.31292 -2.263543,-4.9325 -1.133353,-1.83346 -1.848963,-3.91712 -3.353669,-5.50234 -1.335963,-1.67099 -1.89131,-3.76857 -2.921564,-5.62599 -0.602734,-0.94943 -0.900152,-2.18617 -1.668545,-2.97452 z"
     style="fill:#421f16;fill-opacity:1;stroke:#421f16;stroke-width:0.264583px;stroke-linecap:butt;stroke-linejoin:miter;stroke-opacity:1"
     id="path1923" />
  <path
     d="m 70.272377,19.2713 c 1.373774,-1.38399 2.975652,-2.56119 4.657218,-3.53829 1.857849,-0.85147 3.884713,-1.26704 5.826657,-1.85347 2.126616,-0.24199 1.663486,2.16864 2.622939,3.25413 1.106633,1.17165 1.344593,2.76893 2.112126,4.14654 0.59203,1.87942 1.05378,3.81247 1.72072,5.66316 0.4375,1.66392 1.09753,3.26208 1.42919,4.957 0.37929,2.22494 1.39557,4.39707 0.97552,6.69771 -0.57653,1.47519 -0.764,3.04965 -0.98597,4.61171 -1.17416,1.09666 -3.08637,1.61695 -4.461893,2.63356 -1.548776,1.10377 -3.354989,1.57406 -5.198266,1.87409 -1.059347,0.25126 -4.239487,1.67966 -3.585504,-0.54561 0.335245,-1.45713 1.24495,-2.90489 0.571635,-4.42099 -0.795664,-1.38424 -1.061583,-2.99193 -1.27504,-4.56598 0.116042,-1.58489 1.644321,-3.07036 0.860604,-4.74861 -0.526521,-1.70351 -1.285816,-3.42188 -2.658809,-4.61443 -0.754112,-1.44127 -1.636756,-2.79992 -2.538405,-4.13005 -0.246819,-1.55392 -1.963949,-3.1525 -1.284839,-4.65071 0.430542,-0.46688 1.309705,-0.64667 1.347702,-1.39085"
     style="fill:#612e21;fill-opacity:1;stroke:#612e21;stroke-width:0.264583px;stroke-linecap:butt;stroke-linejoin:miter;stroke-opacity:1"
     id="path1937" />
  <path
     d="m 89.523207,2.93341 c 2.16222,-1.06186 1.73802,3.83984 3.86219,4.57702 1.12466,2.0653 2.8941,3.64799 4.19732,5.58322 1.80597,3.13006 2.35567,6.85764 4.593673,9.75356 1.63187,2.01166 1.40432,4.73986 2.87679,6.7703 2.32092,1.85952 3.48777,4.35209 3.4462,7.32425 0.79158,2.35276 3.40638,3.83869 2.92283,6.62424 0.98193,2.43978 2.74004,4.57145 3.59918,6.99075 0.30042,2.94499 -3.45359,4.00939 -2.48013,7.17117 -0.93509,1.65824 -1.82486,3.07105 -1.75502,5.04733 -2.59978,1.53008 -3.60316,4.34316 -4.59611,6.59811 -2.10466,0.69902 -1.30527,5.57016 -3.32668,4.98993 -0.32719,-3.1365 -2.6977,-5.46568 -3.353503,-8.51895 -0.83779,-2.45466 -2.25946,-4.56123 -3.79639,-6.62324 -2.5766,-2.32888 -4.06966,-5.33249 -4.95616,-8.64358 -0.34554,-2.57058 -1.89141,-4.60941 -2.81709,-6.94663 0.39833,-1.86716 0.35695,-4.92654 0.81983,-6.39418 1.90591,-1.66282 -1.99864,-3.87016 -1.03735,-6.26764 0.5875,-2.59397 -1.52232,-4.4206 -2.54085,-6.54028 -0.693183,-2.28004 -0.387783,-4.97083 -2.306369,-6.74867 -3.136596,-2.57923 -0.0947,-5.71973 1.398876,-8.25404 1.277373,-2.19603 3.246033,-3.84241 4.876333,-5.7501 l 0.23999,-0.38311 z"
     style="fill:#cb480b;fill-opacity:1;stroke:#cb480b;stroke-width:0.264583px;stroke-linecap:butt;stroke-linejoin:miter;stroke-opacity:1"
     id="path1904" />
  <path
     d="m 10.684189,25.11597 c 0.466319,2.42984 3.460512,1.17956 5.111076,1.72508 1.380062,0.53141 3.851197,-0.23382 4.596524,0.99227 0.315829,2.36317 3.174095,-0.33584 4.540205,-0.34127 1.435804,0.35075 2.919443,0.62382 4.443178,0.47584 2.1033,-0.0795 4.181876,-0.56365 6.287945,-0.23246 1.886834,0.40073 3.792059,0.64158 5.720165,0.79715 2.504673,0.50909 5.106681,0.40873 7.595666,1.05858 2.618515,-0.15761 0.626037,-3.0273 1.309356,-4.23226 1.628979,-1.55338 4.263137,1.22127 5.680288,-0.7481 0.503728,-2.40254 -2.247674,-3.82758 -4.03044,-4.74193 -1.789097,-0.63789 -3.851491,-0.64372 -5.459836,0.46214 -1.336634,0.76836 -2.525096,1.78467 -3.933662,2.42889 -2.119172,0.0606 -3.172934,-2.12605 -4.355724,-3.53104 -1.36988,-1.61503 -3.653769,-2.92793 -5.795364,-2.21993 -2.466401,1.13924 -2.989379,4.34108 -5.519054,5.40537 -2.763767,1.43283 -6.001551,1.73037 -9.062819,1.51965 -2.42483,-0.0693 -3.539723,-2.55139 -5.665925,-3.18633 -1.065507,-0.59777 -4.2797853,0.0856 -2.5066623,1.42257 1.4905613,-0.21466 3.6670643,1.47785 1.3342693,2.18783 -0.245223,0.15487 -0.381577,0.47447 -0.289186,0.75795 z"
     style="fill:#612e21;fill-opacity:1;stroke:#612e21;stroke-width:0.264583px;stroke-linecap:butt;stroke-linejoin:miter;stroke-opacity:1"
     id="path1945" />
  <path
     d="m 64.501095,6.62013 c 1.669764,-0.41382 3.767926,0.6759 2.960815,2.50442 1.612073,1.27916 -1.409013,2.39008 -2.345707,3.16306 -1.53373,1.06822 -2.776336,2.51278 -4.444376,3.39534 -1.147061,1.2436 -2.981129,2.38145 -4.593652,1.21506 -1.421901,-0.94732 -2.858018,-1.98099 -4.633452,-2.08992 -1.922587,-0.40426 -4.183854,0.048 -5.651516,-1.58627 -1.04656,-1.6513 -2.873941,-2.53002 -4.744349,-2.91488 -2.313532,-0.62762 -4.75285,0.31159 -7.050464,-0.30997 -1.907554,-1.21401 -0.209459,-3.31529 1.596068,-3.18403 2.116543,-0.89126 4.021013,0.56909 6.009897,1.04283 1.891749,0.6794 3.683318,-0.24584 5.007623,-1.5621 2.387782,-1.44234 4.803444,-3.12294 7.61834,-3.55969 1.777177,0.21687 3.509141,0.77223 5.326132,0.56236 1.637865,0.41175 2.913107,1.42615 4.736961,0.98107 2.208111,0.38857 0.696414,2.51852 -0.920474,1.72667 -1.521762,0.56632 0.631901,1.06793 1.128154,0.61605 z"
     style="fill:#b7410a;fill-opacity:1;stroke:#b7410a;stroke-width:0.264583px;stroke-linecap:butt;stroke-linejoin:miter;stroke-opacity:1"
     id="path1969" />
  <path
     d="m 88.820247,46.82899 c 1.52984,1.54892 1.17605,3.93947 2.00385,5.82822 0.67129,2.3953 2.02281,4.70289 4.22474,5.97797 1.50275,1.59099 2.50362,3.78172 2.98743,5.87007 0.42326,2.56269 1.63477,5.08825 3.665823,6.74619 1.43189,1.03954 0.14259,5.16265 2.61373,3.32811 0.8394,-1.879 1.36186,-3.78598 3.06617,-5.09799 1.22165,-2.06045 0.83191,-4.69782 2.65543,-6.4826 1.52803,-2.48948 -0.66348,-5.5146 0.63182,-8.06955 1.00962,-2.45792 0.471,-5.31592 -0.11609,-7.83424 -0.35947,-2.57681 -3.21771,-3.34347 -4.43478,-0.93989 -1.62559,1.93498 -3.46518,-0.58158 -4.54745,-1.78682 -0.75615,-2.29273 1.29531,-4.58086 0.0273,-6.92538 -0.97707,-3.09782 -1.862983,-6.30773 -3.603153,-9.08369 -1.23097,-1.27922 -2.65091,-3.84471 -4.68759,-3.18976 -1.54373,1.79438 0.86138,4.41514 -0.43312,6.49907 -0.71453,2.37817 -2.38417,3.90661 -3.9931,5.59738 -0.78425,2.14712 -0.70061,4.51702 -1.26743,6.75547 -0.42473,1.31051 1.45159,1.96299 1.20641,2.80744 z"
     style="fill:#b7410a;fill-opacity:1;stroke:#b7410a;stroke-width:0.264583px;stroke-linecap:butt;stroke-linejoin:miter;stroke-opacity:1"
     id="path1983" />
  <path
     d="m 88.155187,57.99198 c 0.94923,-0.96976 1.7816,0.94344 1.6411,1.78126 0.15302,1.60102 0.72707,3.1195 1.06875,4.68203 0.70251,2.08233 2.02525,3.88372 3.31108,5.63943 0.50889,0.90331 1.6958,1.01986 2.1792,1.92663 0.44106,0.73711 0.85675,1.84079 1.88963,1.80145 1.21353,0.37769 0.46743,2.08881 -0.0445,2.82414 -0.60826,0.72003 -1.48678,0.88134 -2.12816,1.53577 -1.65382,0.55575 -3.57336,1.17332 -5.23699,0.30798 -1.14674,-0.55262 -2.15025,-1.54487 -2.3471,-2.85049 -0.19172,-1.26722 -0.91099,-2.31953 -1.50237,-3.41361 -0.27188,-1.01101 -1.02198,-1.74038 -1.50179,-2.63065 -0.40182,-0.99291 -0.492793,-2.12394 -1.191583,-2.98222 -0.435763,-0.88847 -0.956223,-1.91027 -0.781033,-2.91821 0.37405,-0.8595 1.121763,-1.60072 1.006193,-2.61171 0.23816,-1.33045 1.826083,-0.22508 2.623273,-0.18321 0.75894,-0.54384 0.27838,-1.77382 0.78333,-2.53534 0.0634,-0.13214 0.14036,-0.25796 0.23098,-0.37325 z"
     style="fill:#612e21;fill-opacity:1;stroke:#612e21;stroke-width:0.264583px;stroke-linecap:butt;stroke-linejoin:miter;stroke-opacity:1"
     id="path1991" />
  <path
     d="m 71.812935,23.86321 c -2.17992,-0.48082 -1.384961,1.68252 -0.189213,2.35888 1.162047,1.41351 1.282287,3.40671 2.541477,4.76318 0.518392,1.44293 1.870097,2.91587 1.043588,4.5207 -0.992817,1.81442 -0.875763,4.00641 -0.0797,5.87335 0.791598,2.06435 0.777784,4.40736 -0.08788,6.4341 0.569581,1.92502 2.879324,0.13704 4.318828,0.59509 1.72521,-0.13158 2.795233,-1.67234 4.280646,-2.33281 1.148473,-0.36946 2.756856,-0.94638 3.286116,-1.95758 -0.41958,-1.63864 -2.910313,-1.58104 -2.980326,-3.50288 -0.0965,-1.52414 1.770066,-2.35962 1.703666,-3.96561 -0.008,-1.54231 -0.15236,-3.10436 -0.38354,-4.62533 -0.670313,-2.57409 -2.362449,-4.90539 -4.689435,-6.2174 0.372543,1.50868 0.918633,2.94537 1.630756,4.323 0.41871,1.0576 1.012083,4.00826 -0.790003,3.58089 -1.354063,-1.64951 -1.552583,-3.87414 -3.032595,-5.48635 -0.830996,-1.15217 -2.01756,0.033 -1.018763,0.91148 0.145653,1.37158 -1.613887,-0.70805 -1.708589,-1.26433 -0.591977,-1.69917 -1.514055,-3.52293 -3.300733,-4.18603 -0.636606,0.10916 -0.700699,0.22143 -0.297823,-0.43242"
     style="fill:#713425;fill-opacity:1;stroke:#713425;stroke-width:0.264583px;stroke-linecap:butt;stroke-linejoin:miter;stroke-opacity:1"
     id="path1999" />
  <path
     d="m 9.0197437,15.86619 c -2.952705,-0.20265 -0.669274,2.52949 1.1017393,1.84402 2.206986,1.74947 3.728801,-1.19371 0.973916,-1.45037 -0.41402,-0.83073 -1.3601283,-1.16356 -2.0756553,-0.39365 z"
     style="fill:#612e21;fill-opacity:1;stroke:#612e21;stroke-width:0.264583px;stroke-linecap:butt;stroke-linejoin:miter;stroke-opacity:1"
     id="path2007" />
  <path
     d="m 14.627376,36.68507 c 0.195402,1.54942 1.36514,3.31253 1.10369,0.65079 -0.05949,-0.73947 -1.409266,-2.65054 -1.10369,-0.65079 z"
     style="fill:#421f16;fill-opacity:1;stroke:#421f16;stroke-width:0.264583px;stroke-linecap:butt;stroke-linejoin:miter;stroke-opacity:1"
     id="path2019" />
  <path
     d="m 14.541108,51.61433 c 1.307045,1.47747 3.792687,0.3392 1.280435,-0.70913 -0.650298,-0.62126 -1.082558,0.21068 -1.280435,0.70913 z"
     style="fill:#421f16;fill-opacity:1;stroke:#421f16;stroke-width:0.264583px;stroke-linecap:butt;stroke-linejoin:miter;stroke-opacity:1"
     id="path2025" />
  <path
     d="m 29.034689,50.74919 c -1.549806,-0.51368 -3.85661,1.76032 -1.036831,1.07491 0.60778,0.91515 2.120547,-0.57188 1.036831,-1.07491 z"
     style="fill:#612e21;fill-opacity:1;stroke:#612e21;stroke-width:0.264583px;stroke-linecap:butt;stroke-linejoin:miter;stroke-opacity:1"
     id="path2031" />
  <path
     d="m 62.581903,66.29957 c -1.975023,-0.84647 -4.836375,2.38461 -1.197438,1.20975 1.931736,1.23842 5.016698,-1.0784 2.605251,-2.53191 -0.647093,0.2369 -0.903727,0.9127 -1.407813,1.32216 z"
     style="fill:#612e21;fill-opacity:1;stroke:#612e21;stroke-width:0.264583px;stroke-linecap:butt;stroke-linejoin:miter;stroke-opacity:1"
     id="path2037" />
  <path
     d="m 79.702885,43.19024 c -3.902862,1.57412 4.085566,0.90827 0.560767,-0.384 z"
     style="fill:#421f16;fill-opacity:1;stroke:#421f16;stroke-width:0.264583px;stroke-linecap:butt;stroke-linejoin:miter;stroke-opacity:1"
     id="path2043" />
  <path
     d="m 67.425421,52.51274 c -1.319652,0.41255 -5.443821,3.08777 -2.059342,2.47469 0.828076,-0.5924 2.401774,-1.21431 2.059342,-2.47469 z"
     style="fill:#612e21;fill-opacity:1;stroke:#612e21;stroke-width:0.264583px;stroke-linecap:butt;stroke-linejoin:miter;stroke-opacity:1"
     id="path2049" />
  <path
     d="m 71.825254,42.88526 c -3.29606,1.99164 3.694845,0.0621 0.337914,0.0787 z"
     style="fill:#612e21;fill-opacity:1;stroke:#612e21;stroke-width:0.264583px;stroke-linecap:butt;stroke-linejoin:miter;stroke-opacity:1"
     id="path2055" />
  <path
     d="m 32.214399,38.29335 c -2.82528,0.15671 -1.600786,2.18828 0.531214,1.08173 1.866446,-0.73493 0.783502,-1.18983 -0.531214,-1.08173 z"
     style="fill:#612e21;fill-opacity:1;stroke:#612e21;stroke-width:0.264583px;stroke-linecap:butt;stroke-linejoin:miter;stroke-opacity:1"
     id="path2061" />
  <path
     d="m 62.347734,19.29348 c -2.938989,2.03069 2.969678,-0.10836 0.903004,-1.09716 -0.396436,0.27386 -0.610009,0.72955 -0.903004,1.09716 z"
     style="fill:#612e21;fill-opacity:1;stroke:#612e21;stroke-width:0.264583px;stroke-linecap:butt;stroke-linejoin:miter;stroke-opacity:1"
     id="path2067" />
  <path
     d="m 79.254685,10.09506 c -3.724988,0.75273 1.433767,2.42636 1.141997,-0.0465 -0.31403,-0.29865 -0.834877,-0.2189 -1.141997,0.0465 z"
     style="fill:#612e21;fill-opacity:1;stroke:#612e21;stroke-width:0.264583px;stroke-linecap:butt;stroke-linejoin:miter;stroke-opacity:1"
     id="path2073" />
  <path
     d="m 78.749828,19.88412 c -1.439976,1.11194 -1.160303,3.16468 0.642077,1.26165 0.713307,-0.60484 0.27481,-1.60694 -0.642077,-1.26165 z"
     style="fill:#713425;fill-opacity:1;stroke:#713425;stroke-width:0.264583px;stroke-linecap:butt;stroke-linejoin:miter;stroke-opacity:1"
     id="path2079" />
  <path
     d="m 85.787717,49.40112 c -3.436429,2.14951 4.60579,0.32361 0.47854,0.058 z"
     style="fill:#612e21;fill-opacity:1;stroke:#612e21;stroke-width:0.264583px;stroke-linecap:butt;stroke-linejoin:miter;stroke-opacity:1"
     id="path2085" />
  <path
     id="path2171"
     style="fill:#713425;fill-opacity:1;stroke:#713425;stroke-width:0.529167;stroke-linecap:round;stroke-miterlimit:4;stroke-dasharray:none;stroke-opacity:1"
     d="m 113.84628,59.12415 c 2.07664,1.062505 2.99945,3.445099 3.14413,5.657638 0.38144,2.640091 0.10788,5.460032 -1.34502,7.755666 -0.34222,0.952964 -1.66276,2.08571 -1.31451,2.965519 1.0413,-0.378977 1.15853,-1.91215 1.8569,-2.738923 0.97345,-1.655777 1.69197,-3.523008 1.57252,-5.474927 -0.0404,-2.145811 -0.12892,-4.450392 -1.28076,-6.328851 -0.63264,-0.76717 -1.4903,-2.12786 -2.63326,-1.836122 z" />
  <path
     id="path2173"
     style="fill:#713425;fill-opacity:1;stroke:#713425;stroke-width:0.529167;stroke-linecap:round;stroke-miterlimit:4;stroke-dasharray:none;stroke-opacity:1"
     d="m 113.2297,61.7912 c 0.55745,-1.864928 2.15064,-3.613712 4.19336,-3.703211 1.04809,0.316765 1.80152,1.439356 1.35809,2.515482 -0.0871,0.687948 -1.18753,1.599333 -0.88511,1.987531 1.11964,-0.153181 1.69062,-1.435897 2.87121,-1.487756 -0.15074,-0.09142 1.43787,0.752242 1.56891,1.569655 0.78083,1.528574 0.36796,3.36215 -0.6467,4.670466 -0.53757,0.935249 -1.5329,1.563769 -1.88704,2.596987 1.02946,0.04445 2.01754,-1.707708 2.71448,-2.569677 1.09266,-1.379023 1.43041,-3.374956 0.49896,-4.928754 -0.54534,-1.320504 -2.12843,-1.842159 -3.40891,-1.327519 -0.49895,0.272212 -2.21985,0.993959 -1.47499,1.47728 1.12481,-0.58721 1.78085,-2.321882 1.2806,-3.53653 -0.92404,-1.439887 -3.0117,-1.279141 -4.30935,-0.470698 -1.03909,0.598303 -2.48387,2.344708 -2.11656,3.202633 l 0.24305,0.0041 z" />
  <path
     id="path2179"
     style="fill:#713425;fill-opacity:1;stroke:#713425;stroke-width:0.529167;stroke-linecap:round;stroke-miterlimit:4;stroke-dasharray:none;stroke-opacity:1"
     d="m 123.67031,59.49269 c 1.99708,1.419161 2.85598,3.963553 2.85304,6.335228 0.11792,0.692062 -0.0791,1.383804 0.005,2.072611 0.24242,0.936682 1.18698,-0.06916 0.80858,-0.665399 -0.33825,-1.822129 -0.61453,-3.712446 -1.55889,-5.342857 -0.40942,-0.712367 -0.92992,-1.381482 -1.56811,-1.89398 -0.75225,-0.157613 -0.68473,-0.800524 -0.0496,-1.048188 0.6644,-0.464999 1.40476,-0.857154 2.22793,-0.927972 -0.41051,0.242816 0.82279,0.433198 0.70602,0.936314 0.28831,1.126816 -0.2114,2.267055 -0.81108,3.202 0.57595,0.348417 1.11942,-0.270465 1.57238,-0.558173 0.47661,-0.04276 1.04845,0.522522 1.2745,0.997482 0.39421,0.829997 0.40094,1.933848 1.21338,2.502401 0.52826,0.339926 0.88421,-0.207831 0.39633,-0.591988 -0.42432,-0.582769 -0.51812,-1.303643 -0.81932,-1.939304 -0.33965,-0.719553 -1.08154,-1.267474 -1.90169,-1.170169 -0.52058,-0.0037 -1.74175,0.138271 -1.54203,0.839494 0.88311,0.375114 1.15114,-0.91256 1.28643,-1.527162 0.20326,-0.692823 0.41561,-1.506825 -0.10826,-2.12303 -0.42595,-0.617722 -1.2327,-0.882169 -1.94895,-0.683625 -1.15124,0.171108 -2.22625,0.768697 -3.005,1.62991 0.63692,0.681039 1.5897,1.04245 2.00257,1.929646 1.111,1.581534 1.42877,3.541607 1.7615,5.401932 0.0221,0.48719 -0.0503,1.737403 0.75516,1.29662 0.32091,-0.535615 -0.0553,-1.234558 0.0161,-1.857339 -0.0745,-1.701583 -0.21879,-3.500538 -1.21269,-4.948563 -0.47273,-0.746072 -1.08094,-1.417968 -1.82746,-1.897288 -0.17688,-0.0372 -0.34892,0.03984 -0.52566,0.0314 z" />
  <path
     id="path2181"
     style="fill:#713425;fill-opacity:1;stroke:#713425;stroke-width:0.529167;stroke-linecap:round;stroke-miterlimit:4;stroke-dasharray:none;stroke-opacity:1"
     d="m 131.49987,58.11739 c -0.73523,1.670632 -0.69857,3.812068 0.53237,5.244019 0.92636,0.749907 2.35083,0.217756 2.88702,-0.758898 1.38392,-2.081213 0.53121,-5.295033 -1.75324,-6.348131 -0.66608,-0.193388 -2.21148,-0.251689 -1.92557,0.812192 0.52923,1.063021 0.38546,-0.91817 0.90187,-0.805927 1.34414,0.303437 2.25364,1.599417 2.58822,2.868151 0.36283,1.444874 -0.01,3.199696 -1.27066,4.094102 -0.35613,0.288025 0.4091,0.42911 -0.19741,0.328317 -0.9185,-0.26237 -1.29468,-1.289828 -1.54648,-2.120604 -0.24403,-1.023838 -0.23201,-2.145663 0.0961,-3.135098 0.015,-0.177835 -0.16172,-0.293769 -0.31219,-0.178123 z" />
  <path
     id="path2183"
     style="fill:#713425;fill-opacity:1;stroke:#713425;stroke-width:0.529167;stroke-linecap:round;stroke-miterlimit:4;stroke-dasharray:none;stroke-opacity:1"
     d="m 135.56122,52.91353 c 1.67112,2.447942 2.71605,5.244265 4.03503,7.882748 0.5162,0.870022 1.76168,-0.146613 1.22149,-0.957741 -0.1733,-1.9558 -0.60934,-3.87821 -0.88477,-5.818891 0.20548,-0.758498 -0.62178,-0.214631 -0.0477,0.153006 0.61161,0.689855 1.07366,1.503716 1.63172,2.242608 0.49682,0.522671 0.70526,1.469718 1.49572,1.58331 1.0342,0.313234 1.05348,-0.886737 0.90347,-1.582982 -0.16474,-1.019991 -0.32845,-2.074444 -0.80716,-3.00055 -0.45486,-0.3214 -0.23378,1.062979 -0.24418,1.402242 0.29269,0.998246 -0.0602,2.225372 0.22647,3.079244 1.14357,0.10497 -0.37866,-0.697692 -0.51805,-1.134476 -0.70567,-0.890818 -1.34623,-1.828856 -2.02413,-2.73823 -0.46993,-0.821068 -1.74696,-0.606567 -1.21089,0.442012 0.41871,2.003613 0.93725,4.056996 0.64623,6.116165 -0.44165,0.468808 1.21524,0.604049 0.42157,0.150247 -1.28524,-2.266634 -2.25077,-4.704968 -3.6424,-6.91251 -0.31572,-0.407533 -0.53755,-1.139689 -1.20242,-0.906202 z" />
  <path
     id="path2185"
     style="fill:#713425;fill-opacity:1;stroke:#713425;stroke-width:0.529167;stroke-linecap:round;stroke-miterlimit:4;stroke-dasharray:none;stroke-opacity:1"
     d="m 144.27935,48.89828 c 0.80446,2.232729 1.28742,4.561114 1.83867,6.864448 -0.32119,1.180414 1.75101,0.785881 0.88703,-0.169018 -0.49071,-2.064038 -0.74063,-4.200481 -0.69866,-6.315828 0.15175,-0.433338 0.5014,-1.307502 0.64222,-0.441237 1.39188,1.281816 1.33158,3.40722 2.51789,4.838219 0.56735,-1.065941 -0.43564,-2.364102 -0.70754,-3.451179 -0.39414,-1.133217 -1.60288,-2.616919 -2.90784,-1.788949 -0.79267,1.036269 -0.20511,2.568848 -0.23383,3.794589 0.15569,1.400077 0.4184,2.785084 0.68008,4.168366 1.43003,0.460112 0.19459,-1.535703 0.14228,-2.190673 -0.49462,-1.767517 -0.78666,-3.633718 -1.56075,-5.296247 -0.18638,-0.110973 -0.40182,0.03091 -0.59955,-0.01249 z" />
  <path
     id="path2187"
     style="fill:#713425;fill-opacity:1;stroke:#713425;stroke-width:0.529167;stroke-linecap:round;stroke-miterlimit:4;stroke-dasharray:none;stroke-opacity:1"
     d="m 149.36046,45.23866 c 0.77612,2.514311 1.56994,5.027455 2.49147,7.491289 0.60717,0.860025 1.12041,-0.173944 0.69789,-0.779175 -0.56275,-1.878767 -1.24441,-3.724296 -1.98243,-5.540673 -0.31075,-0.493575 -0.418,-1.45124 -1.20693,-1.171441 z" />
  <path
     id="path2189"
     style="fill:#713425;fill-opacity:1;stroke:#713425;stroke-width:0.529167;stroke-linecap:round;stroke-miterlimit:4;stroke-dasharray:none;stroke-opacity:1"
     d="m 154.14766,47.991227 c 1.24073,-0.287837 2.56871,-1.016943 2.92478,-2.330444 0.18471,-0.621913 -0.23117,-1.285161 -0.85118,-1.434555 -0.89213,-0.281354 -1.804,0.30981 -2.23411,1.073898 -0.92652,1.516586 -0.36196,3.823569 1.31861,4.545968 0.74715,0.310018 1.59576,0.305087 2.37123,0.108779 0.49062,-0.333064 0.01,-0.360866 -0.302,-0.221493 -0.53122,0.15253 -0.80812,0.27739 -1.36039,-0.07592 -1.2184,-0.706908 -1.98354,-2.269265 -1.55009,-3.652285 0.0742,-0.698873 0.93979,-1.33465 1.15151,-1.646985 0.41675,0.2555 0.93216,0.65056 0.68259,1.208007 -0.23438,1.002374 -1.11346,1.681991 -2.03666,2.026847 -0.23898,0.115579 -1.25024,0.327379 -0.47512,0.347633 0.12113,0.0085 0.2433,0.01764 0.36083,0.05056 z" />
  <path
     id="path2191"
     style="fill:#713425;fill-opacity:1;stroke:#713425;stroke-width:0.529167;stroke-linecap:round;stroke-miterlimit:4;stroke-dasharray:none;stroke-opacity:1"
     d="m 148.97661,41.843667 c -1.34562,0.02234 0.96394,1.53008 0.1282,0.581336 -0.0256,-0.176442 0.1771,-0.551643 -0.1282,-0.581336 z" />
  <path
     id="path2223"
     style="fill:#713425;fill-opacity:1;stroke:#713425;stroke-width:0.529167;stroke-linecap:round;stroke-miterlimit:4;stroke-dasharray:none;stroke-opacity:1"
     d="m 110.81251,24.928582 c 0.33802,-0.07429 1.22045,0.625181 1.60696,1.203375 1.51582,2.115792 1.25864,4.847108 1.92899,7.253995 0.26747,1.11989 0.41295,2.331935 1.06849,3.303693 0.73504,0.395017 0.0256,-1.303216 0.0101,-1.748506 -0.59584,-1.99902 -0.9192,-4.059536 -1.28543,-6.10834 -0.31764,-1.538112 -1.09257,-3.149657 -2.53834,-3.9084 -0.16413,-0.18295 -1.70874,-0.0833 -0.79075,0.0042 z" />
  <path
     id="path2225"
     style="fill:#713425;fill-opacity:1;stroke:#713425;stroke-width:0.529167;stroke-linecap:round;stroke-miterlimit:4;stroke-dasharray:none;stroke-opacity:1"
     d="m 120.21855,23.3539 c 0.0932,-0.855597 -1.42748,-1.127844 -1.11878,-0.06978 0.21166,1.497999 0.71123,2.940796 1.00466,4.425198 0.43959,1.811409 0.79456,3.680518 1.6304,5.359217 0.16677,0.517087 0.91732,0.690946 0.50998,-0.02901 -0.60524,-1.93459 -1.19105,-3.875058 -1.63236,-5.854641 -0.3025,-1.282427 -0.73837,-2.546017 -0.90507,-3.853067 0.23124,-0.391981 -0.4029,-1.065601 -0.31772,-0.464218 0.14366,0.362043 0.40387,0.658083 0.82889,0.486294 z" />
  <path
     id="path2227"
     style="fill:#713425;fill-opacity:1;stroke:#713425;stroke-width:0.529167;stroke-linecap:round;stroke-miterlimit:4;stroke-dasharray:none;stroke-opacity:1"
     d="m 113.63698,31.15606 c 0.28624,-0.716989 0.81045,-1.427083 1.63411,-1.5235 1.23053,-0.279539 2.53148,-0.198608 3.71912,-0.675636 0.51153,-0.15814 1.09925,-0.607868 1.38455,-0.893652 -1.12072,0.476503 -2.27826,0.891371 -3.47139,1.142451 -1.00248,0.195618 -2.13835,0.07095 -2.99455,0.7208 -0.27371,0.271831 -0.96173,0.963648 -0.62518,1.219754 0.11778,0.0033 0.23556,0.0066 0.35334,0.0098 z" />
  <path
     id="path2229"
     style="fill:#713425;fill-opacity:1;stroke:#713425;stroke-width:0.529167;stroke-linecap:round;stroke-miterlimit:4;stroke-dasharray:none;stroke-opacity:1"
     d="m 124.9933,33.05055 c 0.87924,-1.747073 1.06908,-3.727505 1.44508,-5.621861 0.12384,-0.736228 0.23584,-1.474772 0.31601,-2.217153 -0.52493,-0.349115 -0.78661,0.09253 -0.24409,0.406433 1.05561,1.155729 2.25411,2.375627 3.84371,2.707994 0.37697,0.09406 1.23014,0.01138 0.44414,-0.186637 -1.40246,-0.363632 -2.47212,-1.409681 -3.47849,-2.392952 -0.16986,-0.830894 -1.56321,-0.961558 -1.30499,0.113994 -0.16412,2.209084 -0.55903,4.420623 -1.31203,6.507745 -0.13949,0.360241 -0.53304,0.809479 0.14071,0.673385 z" />
  <path
     id="path2231"
     style="fill:#713425;fill-opacity:1;stroke:#713425;stroke-width:0.529167;stroke-linecap:round;stroke-miterlimit:4;stroke-dasharray:none;stroke-opacity:1"
     d="m 126.16615,30.45971 c 0.83814,-0.350308 1.5976,-0.888202 2.23121,-1.536016 0.27421,-0.266521 0.32868,-0.692116 0.66379,-0.898208 -0.10584,0.05344 -0.51921,0.404477 -0.78374,0.502313 -0.94949,0.547991 -1.74439,1.345029 -2.7595,1.783086 -0.1759,0.151332 0.38629,0.07459 0.50407,0.132704 l 0.0721,0.0081 0.0721,0.008 z" />
  <path
     id="path2235"
     style="fill:#713425;fill-opacity:1;stroke:#713425;stroke-width:0.529167;stroke-linecap:round;stroke-miterlimit:4;stroke-dasharray:none;stroke-opacity:1"
     d="m 133.07417,23.779127 c 1.5837,0.456081 2.57094,1.935514 3.37725,3.268995 0.21317,0.697622 0.75513,1.789843 1.49401,0.883723 0.27864,-0.79172 0.23916,-1.687204 0.31468,-2.525886 0.036,-1.233913 0.25596,-2.467639 0.78161,-3.591392 0.14227,-0.354779 0.35999,-1.246555 -0.19323,-0.659533 -0.59977,0.308231 -0.99097,0.877042 -1.13835,1.52594 -0.48783,1.630777 -0.22158,3.368371 -0.63463,5.012311 -0.35201,0.606321 1.31888,0.51613 0.498,-0.08181 -0.87114,-1.503446 -1.87007,-3.143281 -3.54049,-3.84307 -0.31234,-0.08949 -0.64732,-0.07371 -0.95885,0.01072 z" />
  <path
     id="path2237"
     style="fill:#713425;fill-opacity:1;stroke:#713425;stroke-width:0.529167;stroke-linecap:round;stroke-miterlimit:4;stroke-dasharray:none;stroke-opacity:1"
     d="m 143.10003,24.018751 c 0.77742,-0.06844 1.54588,-0.381328 2.06442,-0.979951 0.93311,-0.864883 1.5698,-2.259426 1.10061,-3.516 -0.22902,-0.641961 -1.13148,-0.650435 -1.59893,-0.286486 -0.7202,0.641954 -1.12681,1.577306 -1.33807,2.502333 -0.18529,0.919 -0.0642,2.097562 0.81416,2.627434 0.87777,0.543834 1.94001,0.277189 2.89709,0.179193 0.24953,-0.117399 0.57769,-0.408034 0.0984,-0.250524 -0.57656,0.163677 -1.0389,0.458767 -1.63819,0.166458 -1.02886,-0.246295 -1.63897,-1.367636 -1.48619,-2.379387 0.0964,-1.005075 0.49239,-2.045605 1.26077,-2.720083 0.38526,-0.123477 0.27328,-0.424334 -0.0636,-0.223969 0.58043,0.294623 0.58767,1.04659 0.55421,1.621167 -0.14722,1.162911 -0.99183,2.116643 -1.93606,2.745044 -0.39476,0.268309 -0.8977,0.338478 -1.33585,0.425419 0.20152,0.03301 0.40563,0.05382 0.60717,0.08935 z" />
  <path
     id="path2239"
     style="fill:#713425;fill-opacity:1;stroke:#713425;stroke-width:0.529167;stroke-linecap:round;stroke-miterlimit:4;stroke-dasharray:none;stroke-opacity:1"
     d="m 129.63984,46.83915 c 1.78987,-3.133252 1.79253,-6.864437 1.68145,-10.364061 0.49656,-1.058634 -1.32422,-0.625247 -0.50811,0.05959 1.18454,2.410555 2.85496,4.83321 5.40483,5.922057 0.74407,0.222344 1.62394,0.419002 2.35408,0.088 -1.13334,0.18027 -2.20566,-0.507883 -3.11354,-1.12267 -1.84846,-1.419472 -3.26066,-3.36002 -4.13203,-5.516537 -1.48412,-0.384554 -0.51747,1.539932 -0.71083,2.34061 0.0768,2.808901 -0.29717,5.678464 -1.48741,8.24709 -0.15061,0.350244 0.27546,0.384064 0.51156,0.345922 z" />
  <path
     id="path2241"
     style="fill:#713425;fill-opacity:1;stroke:#713425;stroke-width:0.529167;stroke-linecap:round;stroke-miterlimit:4;stroke-dasharray:none;stroke-opacity:1"
     d="m 131.82724,42.10466 c 0.73076,-0.302487 1.48479,-0.668044 1.94626,-1.339618 0.14333,-0.120873 0.21009,-0.470392 -0.0663,-0.276459 -0.64507,0.19591 -1.16285,0.644598 -1.74457,0.967093 -0.27917,0.198832 -0.85556,0.426541 -0.97974,0.54955 0.28143,0.03316 0.56294,0.06565 0.8443,0.09943 z" />
</svg>
