<?xml version="1.0" encoding="UTF-8" standalone="no"?>
<svg
   xmlns:dc="http://purl.org/dc/elements/1.1/"
   xmlns:cc="http://creativecommons.org/ns#"
   xmlns:rdf="http://www.w3.org/1999/02/22-rdf-syntax-ns#"
   xmlns:svg="http://www.w3.org/2000/svg"
   xmlns="http://www.w3.org/2000/svg"
   xmlns:sodipodi="http://sodipodi.sourceforge.net/DTD/sodipodi-0.dtd"
   xmlns:inkscape="http://www.inkscape.org/namespaces/inkscape"
   width="1200"
   height="300"
   id="svg2"
   sodipodi:version="0.32"
   inkscape:version="1.0.1 (3bc2e813f5, 2020-09-07)"
   sodipodi:docname="np-broadcast-simple.svg"
   version="1.0">
  <defs
     id="defs4" />
  <sodipodi:namedview
     id="base"
     pagecolor="#ffffff"
     bordercolor="#666666"
     borderopacity="1.0"
     inkscape:pageopacity="0.0"
     inkscape:pageshadow="2"
     inkscape:zoom="1.41"
     inkscape:cx="595.29055"
     inkscape:cy="120.02591"
     inkscape:document-units="mm"
     inkscape:current-layer="layer1"
     inkscape:window-width="1920"
     inkscape:window-height="1061"
     inkscape:window-x="0"
     inkscape:window-y="19"
     width="12.8cm"
     height="9.6cm"
     units="cm"
     showgrid="false"
     grid_units="mm"
     inkscape:object-paths="true"
     inkscape:grid-points="true"
     inkscape:grid-bbox="true"
     inkscape:guide-points="true"
     showguides="false"
     inkscape:guide-bbox="true"
     inkscape:window-maximized="0"
     inkscape:snap-text-baseline="false"
     inkscape:snap-object-midpoints="true"
     inkscape:snap-grids="true"
     inkscape:snap-center="true"
     inkscape:snap-to-guides="false"
     inkscape:snap-midpoints="true"
     inkscape:snap-smooth-nodes="true"
     inkscape:snap-bbox="true"
     inkscape:document-rotation="0"
     inkscape:snap-global="false">
    <inkscape:grid
       id="GridFromPre046Settings"
       type="xygrid"
       originx="0px"
       originy="0px"
       spacingx="2mm"
       spacingy="2mm"
       color="#3f3fff"
       empcolor="#3f3fff"
       opacity="0.15"
       empopacity="0.38"
       empspacing="5" />
  </sodipodi:namedview>
  <metadata
     id="metadata7">
    <rdf:RDF>
      <cc:Work
         rdf:about="">
        <dc:format>image/svg+xml</dc:format>
        <dc:type
           rdf:resource="http://purl.org/dc/dcmitype/StillImage" />
        <dc:title />
      </cc:Work>
    </rdf:RDF>
  </metadata>
  <g
     inkscape:label="Layer 1"
     inkscape:groupmode="layer"
     id="layer1"
     transform="translate(0,-148.15747)">
    <path
       id="path82"
       style="fill:#ffaaaa;stroke:#ffaaaa;stroke-width:1px;stroke-linecap:butt;stroke-linejoin:miter;stroke-opacity:1"
       d="m 669.56658,170.46576 c 5.74392,14.22225 5.17258,30.5476 -0.4745,44.70137 -0.73302,5.55744 6.19659,5.66384 8.60758,1.87701 6.24576,-3.46968 13.75762,-2.53504 20.63621,-2.79056 4.72564,0.28566 9.5948,-0.49184 14.14875,-0.56871 3.00452,3.03505 7.35115,2.25843 4.91714,-2.66523 -2.90827,-8.84454 -3.8175,-18.43348 -1.37563,-27.50603 0.57035,-4.39613 3.75631,-8.68488 2.38425,-13.16356 -4.91971,-3.62817 -12.09197,-0.0673 -17.83278,-0.27837 -10.31835,0.73254 -20.67706,0.83557 -31.01102,0.39408 z" />
    <path
       id="path100"
       style="fill:#ffaaaa;stroke:#ffaaaa;stroke-width:1px;stroke-linecap:butt;stroke-linejoin:miter;stroke-opacity:1"
       d="m 724.52013,172.0765 c -5.3908,10.53982 -4.2202,22.92784 -1.03629,33.93923 1.28762,3.47607 -0.43289,9.84367 5.56363,8.09536 11.21596,-3.39682 23.04824,-5.0245 34.77358,-4.08261 4.10287,-2.22856 0.80422,-7.68637 1.67501,-11.33941 -0.0418,-7.43367 0.83916,-15.08322 -1.3153,-22.30757 0.944,-2.63303 4.03944,-7.69468 -1.45144,-6.85458 -9.01427,2.06249 -18.23072,3.66983 -27.52972,3.41243 -3.57323,-0.0612 -7.14351,-0.34228 -10.67947,-0.86285 z" />
    <path
       id="path109"
       style="fill:#ffaaaa;stroke:#ffaaaa;stroke-width:1px;stroke-linecap:butt;stroke-linejoin:miter;stroke-opacity:1"
       d="m 772.62184,172.04064 c -1.82637,8.90879 -0.12233,17.98522 0.15796,26.91631 0.0953,4.13951 -7.82507,9.5969 -2.20761,12.34428 4.79346,0.0541 9.53781,-1.40916 14.38525,-1.21697 8.9454,-0.007 17.86256,-0.55098 26.76214,-1.40936 4.11684,-0.93088 7.63054,1.00762 11.11182,2.23215 -1.44682,-4.93999 -5.8144,-9.7816 -5.22242,-15.64575 -0.60331,-8.5983 -0.97893,-17.5683 1.9156,-25.80649 -0.13853,-4.31099 -5.3821,1.6684 -8.29899,-0.18507 -8.75871,0.72566 -17.57774,0.99687 -26.3734,1.3397 -4.09925,0.2398 -8.19681,0.64456 -12.23035,1.4312 z" />
    <path
       id="path118"
       style="fill:#ffaaaa;stroke:#ffaaaa;stroke-width:1px;stroke-linecap:butt;stroke-linejoin:miter;stroke-opacity:1"
       d="m 829.42943,172.32701 c -1.72533,9.62023 -0.66827,19.48537 -1.5669,29.13948 -2.32322,3.71754 -2.18003,9.92272 3.76227,7.86997 8.23098,-1.77227 16.53749,-3.35227 24.98879,-3.49187 3.84008,-0.59562 8.02074,-0.62895 11.5059,-0.26917 0.75657,-3.93845 0.54601,-8.15546 0.89746,-12.2194 0.1978,-8.90974 -1.85682,-18.06615 1.20781,-26.71467 0.48075,-5.46621 -5.91174,-3.56085 -8.18238,-0.96154 -8.61503,2.6266 -17.52095,4.72397 -26.58636,4.81247 -2.09559,0.23853 -4.18471,0.78333 -6.02659,1.83473 z" />
    <path
       id="path127"
       style="fill:#ffaaaa;stroke:#ffaaaa;stroke-width:1px;stroke-linecap:butt;stroke-linejoin:miter;stroke-opacity:1"
       d="m 875.9302,168.31833 c -0.61738,9.17592 0.75547,18.33288 1.90622,27.40038 -0.96363,3.44109 -6.03962,11.65156 1.40667,10.42656 3.76301,-1.82823 7.44922,-4.13595 11.8338,-3.89179 5.36324,-0.0797 10.72687,-0.12124 16.04823,-0.86097 5.36482,-1.76206 10.8992,3.33579 15.54277,1.40966 2.6429,-4.8498 -0.64141,-10.30151 -1.3523,-15.25224 -1.25235,-5.77712 0.40503,-11.85757 -1.53237,-17.5522 0.34198,-2.93982 4.02777,-8.62339 -1.81535,-6.07987 -11.66992,5.04128 -24.65224,4.56774 -37.10066,4.73832 -1.64931,-0.0432 -3.29881,-0.13688 -4.93701,-0.33785 z" />
    <path
       id="path136"
       style="fill:#ffaaaa;stroke:#ffaaaa;stroke-width:1px;stroke-linecap:butt;stroke-linejoin:miter;stroke-opacity:1"
       d="m 933.24789,163.47565 c -0.78077,12.01651 -2.68916,23.92244 -3.67955,35.91963 -1.81622,4.71848 4.72592,5.17031 7.84556,4.53423 10.65862,-0.74449 21.2793,-3.5458 32.00703,-2.15092 4.98415,-0.64157 4.25551,-6.89256 4.20092,-10.58309 -0.0514,-7.38085 -1.06268,-14.75954 -2.53221,-21.95235 1.23832,-3.43812 1.14087,-9.60415 -4.09949,-7.22683 -6.86815,1.35243 -13.84891,-0.91208 -20.77868,-0.24621 -4.49262,-0.50656 -8.70515,3.74138 -12.96358,1.70554 z" />
    <path
       id="path160"
       style="fill:#ffaaaa;stroke:#ffaaaa;stroke-width:1px;stroke-linecap:butt;stroke-linejoin:miter;stroke-opacity:1"
       d="m 668.52769,282.71439 c 0.87891,13.91337 -1.61043,27.84488 -5.92125,41.0378 0.67262,7.95089 9.49702,1.27498 14.14317,1.96522 9.92984,-0.65721 19.89502,0.0761 29.83167,-0.0849 4.37049,0.80258 10.95341,2.19332 10.21017,-4.57429 0.0435,-12.79251 -1.75904,-25.99343 2.47617,-38.36172 0.6944,-7.61621 -7.69295,-5.10805 -11.97923,-3.29852 -12.74316,2.49939 -25.85214,2.27255 -38.7607,3.31638 z" />
    <path
       id="path178"
       style="fill:#f4d7d7;stroke:#f4d7d7;stroke-width:1px;stroke-linecap:butt;stroke-linejoin:miter;stroke-opacity:1"
       d="m 725.03762,283.66309 c 3.77835,11.13821 2.29895,23.52832 -2.50247,34.11396 -1.84383,4.02466 0.80142,11.70178 6.17146,9.06551 8.51274,-4.62366 18.48461,-3.88913 27.82184,-3.44097 4.50828,0.91653 11.78228,-0.12542 10.04933,-6.36084 -0.26368,-8.36654 -3.72848,-16.48148 -2.39113,-24.92684 1.12391,-5.2038 -1.74953,-10.67261 0.80909,-15.443 -3.67474,1.88865 -8.5136,4.59333 -13.39218,4.40681 -7.02036,1.18199 -14.08333,-1.07813 -21.07339,-0.41659 -2.05295,0.5168 -3.82149,1.75253 -5.49255,3.00196 z" />
    <path
       id="path187"
       style="fill:#f4d7d7;stroke:#f4d7d7;stroke-width:1px;stroke-linecap:butt;stroke-linejoin:miter;stroke-opacity:1"
       d="m 774.14959,276.48141 c -0.48713,10.79128 0.76218,21.55377 2.41524,32.19028 1.45267,6.23008 -3.48423,11.27382 -4.52412,16.48387 4.06301,1.95965 9.40149,-0.90865 13.88114,-1.20697 7.46834,-2.05632 14.94642,-4.73269 22.81575,-4.32188 5.04678,-1.47612 12.28026,2.23137 15.83289,-2.16461 1.40814,-6.15706 -0.0307,-12.58028 -0.0695,-18.83747 -0.27731,-5.77999 -0.17079,-11.57893 -0.0952,-17.32451 2.04,-5.21824 -0.79409,-11.15733 -6.99451,-8.77777 -8.88352,0.95933 -17.93179,0.54744 -26.65109,2.8388 -5.39429,1.36437 -11.09073,2.35704 -16.61062,1.12026 z" />
    <path
       id="path196"
       style="fill:#f4d7d7;stroke:#f4d7d7;stroke-width:1px;stroke-linecap:butt;stroke-linejoin:miter;stroke-opacity:1"
       d="m 831.54933,272.92974 c 1.64584,12.09065 -0.38014,24.23382 -1.54728,36.26724 0.49498,3.33156 -0.79061,7.03234 0.9426,10.10413 1.97493,2.18859 4.65788,-0.40293 6.96949,-0.10258 8.92254,-0.40964 17.8713,0.84389 26.77487,-0.15638 2.77248,1.65003 6.00169,3.42427 9.33488,2.79588 2.80801,-0.90102 1.95059,-4.34801 1.61945,-6.51828 -0.15625,-11.95618 2.25555,-23.77199 2.22409,-35.72353 -5.07987,-5.36533 -12.82599,-8.47419 -20.19876,-7.04919 -5.88182,-1.61991 -11.23143,2.4631 -17.00226,2.67101 -2.47844,0.24877 -4.54724,-1.25294 -6.62364,-2.24327 -0.81488,-0.19259 -1.67275,-0.21927 -2.49344,-0.045 z" />
    <path
       id="path208"
       style="fill:#f4d7d7;stroke:#f4d7d7;stroke-width:1px;stroke-linecap:butt;stroke-linejoin:miter;stroke-opacity:1"
       d="m 882.07056,277.15183 c -0.42228,11.46171 1.44262,22.93982 0.44605,34.37745 -2.01244,3.92863 -0.66815,9.30738 4.76761,8.07419 11.87986,1.04193 23.84386,1.51684 35.73015,0.36112 4.63858,0.24958 12.46349,2.32342 10.58145,-5.18628 -0.4121,-10.10121 -3.65306,-19.98963 -2.86287,-30.1605 0.0621,-3.38529 2.12349,-12.13003 -3.85263,-10.16266 -12.16409,2.27489 -24.64542,1.21155 -36.92356,0.78392 -2.71465,0.13456 -5.44685,0.6787 -7.8862,1.91276 z" />
    <path
       id="path217"
       style="fill:#f4d7d7;stroke:#f4d7d7;stroke-width:1px;stroke-linecap:butt;stroke-linejoin:miter;stroke-opacity:1"
       d="m 939.76839,274.83773 c -3.0124,9.33106 -0.50774,19.27536 -2.71039,28.73159 -1.46183,5.22652 0.52408,10.83741 -1.89441,15.81047 -1.58065,6.09061 6.83091,0.96267 9.94083,0.41516 6.02053,-2.6373 12.46741,-4.51566 19.09647,-4.01885 5.9273,-0.32477 11.95964,-1.2399 17.83219,0.0857 3.72038,-3.59638 1.75513,-9.37514 1.95545,-13.95883 -0.7935,-6.78157 -1.32601,-13.61048 -1.56743,-20.40768 0.32977,-3.04326 3.5545,-8.61473 -2.10074,-7.45327 -4.38158,1.83129 -8.96352,3.4316 -13.80502,3.20129 -8.94087,-0.32552 -17.88291,-1.18662 -26.74695,-2.4056 z" />
    <path
       id="path238"
       style="fill:#ffaaaa;stroke:#ffaaaa;stroke-width:1px;stroke-linecap:butt;stroke-linejoin:miter;stroke-opacity:1"
       d="m 663.48366,388.87949 c -1.12241,10.8854 -0.16185,21.88892 1.73575,32.62413 0.28241,4.19827 -6.04303,12.63342 1.23797,13.32244 5.15623,-0.87519 10.37653,-1.04654 15.58578,-1.58339 8.30517,-0.99896 16.75508,-2.2081 25.07992,-0.70314 6.1868,0.0793 9.36016,-6.90462 8.498,-12.31237 -0.95889,-8.89915 -6.44825,-17.38247 -3.9371,-26.54342 0.91931,-3.185 5.46191,-9.68224 -1.21965,-8.88385 -15.47903,2.88989 -31.25445,3.8655 -46.98067,4.0796 z" />
    <path
       id="path253"
       style="fill:#ffaaaa;stroke:#ffaaaa;stroke-width:1px;stroke-linecap:butt;stroke-linejoin:miter;stroke-opacity:1"
       d="m 723.66092,386.97321 c -0.38766,14.52973 -1.73846,29.02667 -1.68426,43.56919 -2.03568,5.62657 6.54687,2.22394 9.57839,2.85072 5.82413,-0.50959 11.61107,-1.3445 17.44626,-1.78117 4.63297,-0.59909 10.32413,-1.9118 11.80114,-7.06878 2.5108,-9.28614 -0.21892,-19.03784 1.6341,-28.44093 0.25189,-3.76111 2.25505,-12.31237 -4.02346,-11.28561 -8.43007,2.00983 -16.80559,4.66908 -25.48491,5.29334 -3.32206,0.0809 -6.81219,-0.78475 -9.26726,-3.13676 z" />
    <path
       id="path274"
       style="fill:#ffaaaa;stroke:#ffaaaa;stroke-width:1px;stroke-linecap:butt;stroke-linejoin:miter;stroke-opacity:1"
       d="m 772.52277,386.26421 c -1.50144,9.74072 1.34221,19.37242 1.90236,29.0332 1.02853,4.35137 -5.21783,10.67551 0.6557,12.93101 6.46898,0.94208 13.11464,0.13547 19.62214,-0.25958 8.78748,-0.65898 17.5041,-2.51386 26.33489,-2.2192 6.35197,-0.28157 4.40752,-7.50324 3.12887,-11.41339 -1.87132,-7.73296 -1.38548,-15.81259 -3.1486,-23.56149 0.13662,-4.44143 4.42234,-11.48742 -2.08,-13.42156 -7.2138,-1.65888 -11.25243,6.11725 -17.22612,8.40222 -5.54269,1.81502 -11.39349,-0.35719 -17.06615,-0.41242 -4.05332,-0.27814 -8.18938,-0.19535 -12.12309,0.92121 z" />
    <path
       id="path283"
       style="fill:#ffaaaa;stroke:#ffaaaa;stroke-width:1px;stroke-linecap:butt;stroke-linejoin:miter;stroke-opacity:1"
       d="m 834.57974,381.96774 c 1.81682,13.44732 0.0262,27.18323 -3.9963,40.07985 0.31012,7.3484 9.27353,2.57763 13.71534,3.33068 7.15453,-0.65609 14.30379,-0.85937 21.48569,-0.72737 4.35193,-1.73561 10.86788,1.74429 13.85181,-2.11188 -0.62745,-7.22087 0.44506,-14.50977 -0.0473,-21.76798 -0.0807,-5.04554 0.32648,-10.42007 3.21679,-14.73359 1.79317,-6.7176 -7.80302,-5.58871 -11.98291,-6.08865 -9.38211,-0.63599 -18.80315,-0.32184 -28.18338,-0.92353 -2.90149,0.0786 -5.94676,0.83114 -8.05976,2.94247 z" />
    <path
       id="path298"
       style="fill:#ffaaaa;stroke:#ffaaaa;stroke-width:1px;stroke-linecap:butt;stroke-linejoin:miter;stroke-opacity:1"
       d="m 889.89624,384.65975 c -2.98508,9.99192 -2.65584,20.65023 -0.92552,30.83023 -0.75576,3.98384 -2.93681,12.12503 3.9648,11.00226 7.91388,-1.41398 16.00036,-0.87271 23.98614,-1.70777 4.84579,0.085 10.02229,-2.06604 14.51932,0.55414 4.03076,2.97443 8.98795,-0.46909 8.44174,-5.17947 0.81382,-11.18726 -2.17457,-22.40544 -0.32541,-33.57423 0.13154,-5.32677 -5.73477,-5.24941 -9.31172,-3.78107 -9.63439,-0.51838 -19.31983,-1.94429 -28.99052,-0.90846 -3.85749,0.47354 -7.85665,0.96717 -11.35883,2.76437 z" />
    <path
       id="path307"
       style="fill:#ffaaaa;stroke:#ffaaaa;stroke-width:1px;stroke-linecap:butt;stroke-linejoin:miter;stroke-opacity:1"
       d="m 947.75088,382.35332 c -0.23727,11.72483 -2.445,23.32435 -2.74976,35.02872 1.60376,3.85465 -3.03211,13.14013 3.54176,12.18267 4.80198,-2.03024 10.0493,-0.99171 15.096,-1.72887 8.53343,-0.39204 16.57497,-3.39311 24.80552,-5.31337 4.48505,0.14195 7.84728,-0.10513 6.22099,-5.41334 -0.25711,-6.73961 -0.34954,-13.492 -0.65971,-20.23761 -2.12989,-4.85814 6.67172,-10.60485 1.01996,-13.78043 -14.16631,-0.21445 -28.37846,0.99599 -42.53345,-0.28217 -1.58266,-0.12728 -3.16352,-0.27812 -4.74131,-0.4556 z" />
    <path
       id="path328"
       style="fill:#000000;stroke:#000000;stroke-width:1.00157;stroke-linecap:round"
       d="m 740.62199,191.59345 c 1.33876,-2.85833 2.95917,-5.58856 4.37082,-8.39742 -1.08307,-0.25805 -2.78107,-0.0824 -1.96039,1.45322 0.53354,5.27111 0.61427,10.57713 0.51014,15.87067 -0.83262,1.46401 1.60113,3.86043 1.91708,1.27116 -0.007,-1.63192 -0.39389,-3.28347 -0.42358,-4.94375 -0.29596,-4.3954 -0.26731,-8.82074 0.10776,-13.20474 -0.13298,-1.59673 -3.00628,-1.73457 -2.88713,0.13902 -0.76339,2.49009 -1.89278,4.94998 -3.75556,6.81598 0.50319,0.63009 1.46359,0.59746 2.12086,0.99586 z" />
    <path
       id="path330"
       style="fill:#000000;stroke:#000000;stroke-width:1.00157;stroke-linecap:round"
       d="m 789.79498,184.34555 c 0.15297,-1.05324 2.59139,-2.2108 2.55989,-1.36647 0.97146,1.96092 0.4559,4.39571 -0.39038,6.42415 -1.1489,2.93127 -3.28761,5.46594 -5.88115,7.20107 1.21707,1.81943 3.55734,0.89898 5.25681,0.25278 2.08567,-0.3495 4.54128,-0.53417 6.34338,0.023 1.42872,0.49358 2.85045,0.28111 3.8875,-0.90593 1.52533,-0.98276 0.196,-2.07074 -1.06728,-1.46476 -4.41739,0.2766 -8.93179,0.22016 -13.18476,1.61944 -2.35996,0.5301 1.96851,3.1576 1.87677,0.59567 1.81884,-3.90489 4.52392,-7.61135 4.84072,-12.03085 0.4221,-1.93865 -1.55974,-3.65621 -3.34246,-2.66137 -0.82141,0.58199 -3.09425,1.98176 -0.98029,2.28254 l 0.0813,0.0306 z" />
    <path
       id="path332"
       style="fill:#000000;stroke:#000000;stroke-width:1.00157;stroke-linecap:round"
       d="m 845.85085,181.77156 c 1.22902,-1.10092 3.45716,0.33718 2.84503,1.92745 -0.5543,1.86227 -2.62246,2.50122 -4.24628,3.12883 -1.95415,0.16512 0.98064,1.56002 1.64783,1.8265 0.59836,0.11802 1.22943,-0.31317 0.57505,-0.0446 1.47731,-0.0989 3.48021,1.00025 3.07716,2.71714 -0.99376,1.48601 -2.62625,2.44604 -4.13747,3.35773 -1.26721,0.79245 -2.9756,1.10506 -3.62472,2.61386 -0.0892,1.37852 2.36575,0.41569 3.26801,0.46169 1.49349,-0.47498 2.81678,-1.38988 4.15762,-2.19107 1.82394,-1.18167 3.63689,-3.3711 2.81304,-5.67346 -0.97274,-2.57024 -4.05494,-3.33885 -6.53811,-3.10755 -0.8852,0.10529 -2.37569,-0.0369 -1.15541,0.97688 0.62339,1.64389 2.25713,0.7876 3.26974,0.0616 1.7511,-1.08358 3.42364,-3.05489 2.78165,-5.25904 -0.37484,-2.06971 -2.74988,-2.70765 -4.53853,-2.21429 -0.90307,0.10687 -2.15886,0.49608 -0.7275,1.0587 0.1833,0.11084 0.36909,0.22031 0.53289,0.35959 z" />
    <path
       id="path334"
       style="fill:#000000;stroke:#000000;stroke-width:1.00157;stroke-linecap:round"
       d="m 897.11814,177.67794 c -1.96825,2.31296 -4.5547,3.9671 -6.80318,5.9684 -0.79372,1.15555 0.59119,2.31487 1.75431,2.03953 4.85474,-0.15707 9.61966,-1.31852 14.48015,-1.42815 2.11283,-0.19695 0.18502,-2.26196 -1.06413,-2.02798 -1.60266,0.0693 -3.15428,0.61494 -4.74895,0.81093 -2.63256,0.41619 -5.31644,0.77721 -7.97774,0.65871 1.15171,-0.64131 -0.1185,0.82329 0.40428,0.96386 1.89034,-1.66769 3.10452,-3.9388 4.92345,-5.67315 1.53732,-0.62529 -0.57082,-0.89007 -0.96819,-1.31215 z" />
    <path
       id="path336"
       style="fill:#000000;stroke:#000000;stroke-width:1.00157;stroke-linecap:round"
       d="m 900.88802,179.37308 c 0.52411,2.92021 -0.004,5.88108 -0.21854,8.80361 -0.21747,1.42857 -0.6475,2.83985 -0.59194,4.29804 0.67271,0.78048 1.73599,0.95171 2.41959,0.11213 0.39287,-0.8299 0.25249,-1.80889 0.31153,-2.70667 -0.0599,-1.62988 0.1666,-3.24524 0.24171,-4.86807 0.0315,-1.89617 -0.17682,-3.79958 0.0523,-5.68974 -0.73821,0.0169 -1.47642,0.0338 -2.21463,0.0507 z" />
    <path
       id="path338"
       style="fill:#000000;stroke:#000000;stroke-width:1.00157;stroke-linecap:round"
       d="m 954.83399,174.69039 c -2.58929,0.82369 -5.3499,0.75918 -8.02798,0.55659 0.89103,-0.307 2.5604,0.31264 0.78228,0.4859 -1.71574,-0.30225 -2.3368,1.15111 -1.95431,2.62119 0.12049,1.48914 -1.46158,3.99406 0.46554,4.75309 1.67982,0.18305 3.40644,0.0195 5.06765,0.44648 1.28664,0.32814 2.72328,0.71383 3.62252,1.74222 0.72779,1.35281 -0.69162,2.44516 -1.60495,3.21987 -1.37027,1.1329 -2.94286,1.98576 -4.53383,2.76397 -1.44161,1.46962 1.49293,2.19491 2.47306,1.4272 2.08703,-1.28171 4.25652,-2.59132 5.8539,-4.48535 1.17568,-1.26497 1.41417,-3.42526 -0.11139,-4.54372 -1.77155,-1.41671 -4.08991,-1.86263 -6.24732,-2.38544 -0.81835,-0.35776 -2.74636,-0.24851 -2.21243,0.22923 0.14601,-1.10444 0.78908,-3.8788 0.50682,-3.93012 -0.61605,0.52465 -3.8745,0.33755 -1.44123,0.46306 3.2418,0.14207 6.32993,-1.01524 9.53117,-1.31179 -0.72317,-0.68412 -1.4463,-1.36829 -2.1695,-2.05238 z" />
    <path
       id="path342"
       style="fill:#000000;stroke:#000000;stroke-width:1.00157;stroke-linecap:round"
       d="m 692.95761,188.04845 c -2.90314,2.69563 -5.81118,5.86224 -6.6331,9.86306 -0.69614,2.94194 1.44324,5.91475 4.26313,6.68336 3.17166,0.81475 6.87243,0.24288 9.28013,-2.1103 2.80319,-2.70197 4.5277,-7.01494 3.2243,-10.83068 -0.97939,-2.22113 -4.01546,-2.69132 -5.97075,-1.57141 -1.30934,0.7751 -0.81082,2.72685 0.77273,1.76185 0.88892,-0.12479 1.40296,-0.38995 1.07265,-0.65556 1.9161,-0.0803 2.76007,2.1571 2.53776,3.77193 -0.33818,3.46314 -2.83519,6.68048 -6.09372,7.88552 -1.68609,0.63359 -3.6827,0.84471 -5.2197,-0.30349 -1.75683,-1.05919 -2.47629,-3.30155 -1.83117,-5.2212 0.77536,-2.92306 2.85967,-5.34864 5.15368,-7.21842 1.19994,-0.42738 1.39416,-1.33548 0.0792,-1.68166 -0.21172,-0.12432 -0.42344,-0.24865 -0.63512,-0.373 z" />
    <path
       id="path346"
       style="fill:#000000;stroke:#000000;stroke-width:1.00157;stroke-linecap:round"
       d="m 682.06068,291.89097 c -1.64028,3.63225 -3.60726,7.16032 -6.03269,10.31426 -1.45484,0.5996 -2.96273,3.52731 -0.54385,3.74017 2.50772,-0.27698 5.04329,-0.21098 7.55405,-0.54367 2.85468,-0.25523 5.71995,-0.57621 8.58036,-0.40412 1.60087,-0.21084 -0.62662,-2.29627 -1.53426,-2.39285 -1.43358,0.19431 -2.79527,0.74554 -4.24884,0.86001 -2.46652,0.40695 -4.97611,0.56243 -7.47344,0.43732 -0.14283,-0.58595 -2.10016,-0.11832 -1.1336,0.93065 0.70437,0.16842 0.89317,-2.27547 1.60979,-3.00007 1.8261,-3.0859 3.24514,-6.44204 5.52441,-9.23834 -0.76731,-0.23445 -1.53461,-0.46894 -2.30193,-0.70336 z" />
    <path
       id="path348"
       style="fill:#000000;stroke:#000000;stroke-width:1.00157;stroke-linecap:round"
       d="m 685.35115,300.2108 c -0.39811,3.76682 -1.12733,7.48959 -1.92287,11.18852 -0.45631,1.06341 0.45619,2.91504 1.49236,2.56728 1.11908,-0.49342 1.44934,-1.65417 1.54505,-2.79301 0.14444,-1.60667 0.31121,-3.20949 0.6532,-4.7881 0.34121,-1.9384 0.75512,-3.88447 1.55181,-5.69373 -1.10652,-0.16032 -2.21303,-0.32064 -3.31955,-0.48096 z" />
    <path
       id="path350"
       style="fill:#000000;stroke:#000000;stroke-width:1.00157;stroke-linecap:round"
       d="m 700.70063,294.66105 c 0.34813,-1.32239 2.69341,-1.73236 2.81814,-0.0572 1.05443,4.03375 -0.88187,8.16218 -3.28652,11.31752 -1.70601,2.12081 -3.56239,4.21211 -5.84353,5.72378 -1.69779,0.58452 0.90832,1.09226 1.49673,1.53837 1.50843,0.46943 2.95861,-0.48113 4.45154,0.30472 2.25741,0.53177 4.55132,1.43921 6.90192,1.11595 2.25024,-0.61461 0.83981,-2.361 -0.8031,-2.22365 -1.60905,-0.40784 -3.36966,-0.39068 -5.01862,-0.78957 -2.35773,-0.38455 -4.87547,-0.61723 -7.14258,0.30925 -0.8261,1.93008 2.65673,2.78837 2.9747,0.58482 2.98876,-4.24256 6.85871,-8.21055 7.88474,-13.48272 0.35457,-2.00723 0.37706,-4.23269 -0.60412,-6.06818 -0.79547,-1.14241 -2.36934,-1.0443 -3.43511,-0.37009 -0.86571,0.35461 -2.24278,1.89341 -0.39419,2.09703 z" />
    <path
       id="path352"
       style="fill:#b3b3b3;stroke:#b3b3b3;stroke-width:1.00157;stroke-linecap:round"
       d="m 735.3502,293.30405 c -2.27051,2.55383 -4.81209,4.85421 -7.19175,7.29647 -1.25169,1.28954 0.31431,2.71554 1.69821,2.76046 3.06005,0.601 6.1353,1.33572 9.25346,1.47558 1.02246,0.15286 3.02665,-1.50688 1.2015,-1.83097 -1.35316,-0.0166 -2.70412,-0.003 -4.05095,-0.20014 -1.82747,-0.20323 -3.65452,-0.58469 -5.33732,-1.34465 -0.98156,0.77778 1.08041,-1.36086 1.38091,-1.69725 1.57521,-1.92845 3.2692,-3.81402 5.35955,-5.19859 -0.77118,-0.42034 -1.54255,-0.8404 -2.31361,-1.26091 z" />
    <path
       id="path354"
       style="fill:#b3b3b3;stroke:#b3b3b3;stroke-width:1.00157;stroke-linecap:round"
       d="m 737.34684,300.43034 c 0.0988,2.48706 -0.14885,4.97357 -0.0377,7.46145 0.0333,1.92708 -0.24501,3.94361 0.61095,5.74825 0.12308,0.47041 0.89223,2.26371 0.70093,0.93843 -0.39112,-1.2374 0.65596,-2.50124 0.29905,-3.78702 -0.21169,-1.91432 -0.14775,-3.86507 -0.13908,-5.79437 0.0433,-1.37863 0.0224,-2.76899 0.28841,-4.12293 -0.08,-0.72129 -1.22461,-0.25474 -1.72256,-0.44381 z" />
    <path
       id="path356"
       style="fill:#b3b3b3;stroke:#b3b3b3;stroke-width:1.00157;stroke-linecap:round"
       d="m 750.05784,296.64034 c 0.98851,-0.68029 2.72294,-1.34273 1.89478,0.0161 1.10203,3.29139 -0.70175,6.721 -2.10742,9.635 -0.79221,2.04768 -4.17983,4.77511 -4.6676,5.46992 1.8564,2.57833 4.89308,2.11746 7.69357,1.32762 2.10683,-0.69073 6.37781,1.44205 6.98167,-1.19943 -1.80564,-2.65073 -5.37992,-0.93048 -7.96011,-1.05758 -2.13506,0.32317 -5.70942,-0.11822 -6.91568,1.06701 0.56245,2.18477 3.48695,3.22042 4.01373,0.37884 3.30394,-4.70864 6.49481,-10.20592 5.81513,-16.17989 -0.5341,-3.05538 -6.05061,-2.41779 -6.48302,-0.539 0.56632,0.38014 1.23954,0.59665 1.73495,1.08145 z" />
    <path
       id="path358"
       style="fill:#b3b3b3;stroke:#b3b3b3;stroke-width:1.00157;stroke-linecap:round"
       d="m 789.74861,290.59227 c -1.79413,2.98972 -4.41709,5.3354 -6.77287,7.86023 -0.77618,1.29271 0.62832,2.52853 1.8813,2.59025 2.79952,0.67699 5.70437,0.72986 8.52042,1.33309 1.53019,0.22576 3.36148,0.97359 4.5853,-0.40031 1.15842,-0.72798 0.66191,-2.02069 -0.69303,-1.58804 -2.13701,0.24756 -4.31171,0.0214 -6.44208,-0.24479 -1.62502,-0.0263 -3.3782,-1.13572 -4.80987,-0.96655 -0.0257,1.0193 1.02725,-1.19187 1.39303,-1.43598 1.55142,-2.12914 2.99905,-4.33628 4.66336,-6.38135 -0.77516,-0.25551 -1.55055,-0.51109 -2.32556,-0.76655 z" />
    <path
       id="path360"
       style="fill:#b3b3b3;stroke:#b3b3b3;stroke-width:1.00157;stroke-linecap:round"
       d="m 794.03747,296.5677 c 0.25622,4.34118 -10e-4,8.69457 0.007,13.03271 0.0872,1.05393 1.61448,3.6702 1.6693,1.49568 1.32715,-0.92073 0.66712,-3.013 0.77701,-4.51268 -0.22525,-3.25021 -0.40941,-6.56146 0.28538,-9.77 -0.90071,-0.19333 -1.82867,-0.13626 -2.73881,-0.24571 z" />
    <path
       id="path362"
       style="fill:#b3b3b3;stroke:#b3b3b3;stroke-width:1.00157;stroke-linecap:round"
       d="m 808.9634,292.59607 c 0.6965,-1.09811 2.15053,-3.16743 2.0801,-0.99013 1.04272,3.36566 -0.21518,6.96976 -1.372,10.14341 -0.83762,3.45572 -4.16079,5.54189 -5.32502,8.46005 2.41075,1.70099 5.82308,-0.29328 8.6586,0.0235 1.31683,0.0113 4.71012,0.44084 4.20339,-1.71137 -1.8796,-2.09044 -5.25943,-0.61396 -7.80238,-0.84598 -2.31049,-0.53103 -7.7651,2.53369 -3.15851,3.22429 2.96172,-1.12841 3.56716,-5.02799 5.18125,-7.50292 1.7643,-4.15224 2.85352,-8.81066 2.09076,-13.30934 -1.07458,-2.51227 -4.54151,-1.81979 -5.985,-0.0423 -1.48898,1.72502 -0.0711,2.2285 1.42881,2.55079 z" />
    <path
       id="path364"
       style="fill:#b3b3b3;fill-opacity:1;stroke:#b3b3b3;stroke-width:1.00157;stroke-linecap:round;stroke-opacity:1"
       d="m 845.15423,285.44988 c -1.47311,3.55547 -3.62404,6.77368 -6.09024,9.71307 -1.2351,0.84879 -1.40044,2.93918 0.27167,3.35342 2.87171,0.72619 5.77129,1.37402 8.69659,1.833 1.0716,-0.0876 2.06821,-0.77783 3.08188,-0.9097 -0.63405,-0.85659 -1.21679,-1.72154 -2.55817,-1.47666 -2.20828,-0.21883 -4.41638,-0.7058 -6.50671,-1.47263 -0.85153,-0.30102 -0.52216,1.41524 -0.24245,0.0988 1.65858,-3.49644 3.25824,-7.0641 5.50966,-10.2261 -0.16894,-0.77564 -1.60705,-0.47989 -2.16223,-0.91324 z" />
    <path
       id="path366"
       style="fill:#b3b3b3;stroke:#b3b3b3;stroke-width:1.00157;stroke-linecap:round"
       d="m 846.76218,294.73632 c 0.14224,3.57462 0.1028,7.15409 0.16971,10.72907 0.10447,1.26577 0.48815,2.67646 1.58076,3.43453 0.89468,-0.238 0.8206,-1.63251 1.20389,-2.38379 0.44017,-1.9998 0.0462,-4.0522 0.0959,-6.07606 -0.0369,-1.92339 -0.063,-3.84736 -0.15045,-5.76932 -0.96658,0.0219 -1.93324,0.0438 -2.89977,0.0656 z" />
    <path
       id="path368"
       style="fill:#b3b3b3;fill-opacity:1;stroke:#b3b3b3;stroke-width:1.00157;stroke-linecap:round;stroke-opacity:1"
       d="m 861.21537,289.98746 c 3.1651,-1.67183 2.42608,4.0886 1.60646,5.74401 -1.28175,3.8599 -3.78143,7.25885 -6.91038,9.83172 -1.27117,3.13393 2.80594,3.14037 4.74975,2.5584 2.97896,-0.12104 5.97599,0.0508 8.93871,-0.35469 2.93798,-2.47411 -3.26094,-3.69226 -5.11236,-3.02008 -2.02006,0.11359 -5.7611,0.42927 -6.7224,0.3177 1.91985,-0.20732 1.40839,3.48948 2.64874,0.88847 2.65342,-4.2305 5.60732,-8.58657 6.32376,-13.63524 1.10143,-3.67369 -2.92972,-6.09333 -6.03477,-4.59181 -2.65358,0.56105 -0.67332,1.53971 0.51249,2.26152 z" />
    <path
       id="path370"
       style="fill:#b3b3b3;stroke:#b3b3b3;stroke-width:1.00157;stroke-linecap:round"
       d="m 894.78274,289.25187 c -1.40505,3.19344 -3.93552,5.69964 -6.54246,7.93183 -1.22957,1.18686 0.0608,3.05824 1.50097,3.24511 2.89975,0.62659 5.8391,1.10887 8.78769,1.44989 1.45951,0.11881 2.94914,0.23169 4.39989,0.0212 1.0671,-1.38758 -1.41366,-2.56662 -2.50276,-2.93998 -1.85283,-0.19111 2.79049,-0.0147 0.33134,0.0798 -2.56082,0.13827 -5.13814,-0.0453 -7.6552,-0.53518 -0.41777,-0.7845 -2.24703,0.18209 -1.41175,-0.0711 2.14617,-2.73465 4.28467,-5.4754 6.399,-8.23478 -1.10225,-0.31559 -2.20444,-0.63147 -3.30672,-0.94686 z" />
    <path
       id="path372"
       style="fill:#b3b3b3;stroke:#b3b3b3;stroke-width:1.00157;stroke-linecap:round"
       d="m 898.8021,295.24391 c 0.55356,2.38295 0.27586,4.85317 0.62123,7.26238 0.14115,1.5248 0.0984,3.07924 0.41845,4.57977 0.30134,0.66619 1.20053,1.7298 1.83916,1.52652 0.73235,-0.87309 1.23989,-2.09219 0.81983,-3.21963 -0.47323,-3.02567 -0.81571,-6.07545 -0.98211,-9.13326 0.2266,-0.58079 0.017,-1.46701 -0.76813,-1.08956 -0.64823,0.0524 -1.29943,0.0372 -1.94843,0.0738 z" />
    <path
       id="path374"
       style="fill:#b3b3b3;fill-opacity:1;stroke:#b3b3b3;stroke-width:1.00157;stroke-linecap:round;stroke-opacity:1"
       d="m 916.44754,290.65259 c 0.80786,-0.36515 1.93588,0.20745 0.33273,0.0868 0.92379,1.27106 1.02453,3.457 0.43221,5.17646 -0.94905,2.97829 -2.71812,5.6907 -4.86428,7.94381 -1.26181,0.93977 -3.11023,2.83801 -1.20363,4.152 1.32505,0.54496 2.85688,0.25552 4.27138,0.37283 1.70803,-0.10029 3.43464,0.29929 5.12123,0.0125 1.16709,-0.46121 4.21522,-1.16417 2.65421,-2.80946 -1.20812,-0.80416 -2.72885,-0.24762 -4.08182,-0.51556 -1.51972,-0.0927 -3.04578,-0.18523 -4.56713,-0.0725 0.0981,0.6316 -0.22874,2.91385 0.23813,1.25006 2.14803,-3.73647 4.69817,-7.39479 5.72168,-11.63835 0.40173,-1.93506 0.30891,-4.33428 -1.29552,-5.70864 -1.56031,-0.86714 -3.56454,-0.74473 -5.17166,-0.0954 0.27929,0.72158 1.77957,1.22362 2.41247,1.84546 z" />
    <path
       id="path376"
       style="fill:#b3b3b3;stroke:#b3b3b3;stroke-width:1.00157;stroke-linecap:round"
       d="m 949.83198,289.35409 c -0.64734,2.19011 -2.39155,3.78126 -3.58928,5.6629 -0.83671,1.32454 -2.80372,2.17674 -2.78005,3.89462 0.38855,1.68665 2.43107,1.35966 3.71782,1.71736 2.53539,0.401 5.04552,0.96706 7.55379,1.48044 1.31299,0.10641 2.32647,-0.96977 3.12531,-1.86592 0.97976,-1.58542 -1.20914,-1.14332 -2.12661,-1.24162 -2.84851,-0.18323 -5.66671,-0.64972 -8.49211,-1.03509 -0.24737,0.60379 -0.22331,1.34456 0.19099,0.30893 1.69771,-2.27609 3.18243,-4.71035 4.4873,-7.22429 1.79109,-1.61145 -1.2895,-1.15827 -2.08716,-1.69733 z" />
    <path
       id="path378"
       style="fill:#b3b3b3;stroke:#b3b3b3;stroke-width:1.00157;stroke-linecap:round"
       d="m 953.18432,296.47403 c 0.17062,3.09156 -0.11049,6.20618 0.27596,9.28392 0.16937,1.05865 1.04992,2.33448 2.23705,2.15761 1.0796,-0.57812 1.19006,-2.00109 1.07027,-3.09041 -0.32345,-2.76815 -0.55601,-5.56414 -0.36294,-8.35109 -1.07345,-2e-5 -2.14689,4e-5 -3.22034,-3e-5 z" />
    <path
       id="path380"
       style="fill:#b3b3b3;stroke:#b3b3b3;stroke-width:1.00157;stroke-linecap:round"
       d="m 968.20352,292.92609 c 0.78516,-0.49642 2.05213,-0.21623 0.48137,-0.11936 1.02801,0.66293 1.50541,2.22866 1.20429,3.59772 -0.66589,3.68013 -3.27405,6.71376 -6.19229,8.90159 -1.05486,1.69489 0.83506,3.50749 2.59482,3.08152 2.1428,0.0439 4.33169,0.47692 6.45398,0.061 1.04928,-0.46996 2.60671,-0.89604 3.23837,-1.62414 -0.46663,-2.10776 -3.00304,-1.29355 -4.57027,-1.51324 -1.48687,0.1192 -3.97978,-1.12156 -4.07178,1.20316 0.63995,-1.34495 1.96684,-2.46372 2.63809,-3.88162 1.78953,-2.78039 3.60146,-6.1057 2.8042,-9.51607 -0.45351,-1.9295 -2.42604,-2.99326 -4.31827,-2.68838 -1.02051,0.0894 -3.93083,0.34923 -1.86604,1.31116 0.53449,0.39558 1.06897,0.79116 1.60353,1.18663 z" />
    <path
       id="path382"
       style="fill:#000000;stroke:#000000;stroke-width:1.00157;stroke-linecap:round"
       d="m 676.87633,401.52357 c -1.1786,2.93995 -3.37515,5.31463 -5.46724,7.63094 -1.10102,0.73093 -2.63387,2.54368 -1.13442,3.64478 1.58867,0.6738 3.38603,0.0317 5.05218,0.37839 2.70195,0.22031 5.33053,0.95364 8.00497,1.32465 0.87932,0.0458 2.31026,-0.73078 2.25483,-0.86805 1.21698,-0.83526 -0.27581,-1.98751 -1.4236,-1.68566 -3.48444,-0.37866 -6.96752,-0.87568 -10.41354,-1.54725 -0.56999,0.22817 -0.2215,2.43899 0.19867,1.01272 2.12306,-2.90506 3.54738,-6.24714 5.63626,-9.17448 -0.9027,-0.23867 -1.8054,-0.4774 -2.70811,-0.71604 z" />
    <path
       id="path384"
       style="fill:#000000;stroke:#000000;stroke-width:1.00157;stroke-linecap:round"
       d="m 680.79462,409.64868 c -0.25382,3.45238 -0.46867,6.92167 -0.27811,10.38206 0.18834,1.10327 1.00975,1.93362 1.75671,2.70527 0.91034,0.33088 0.74738,-1.18787 1.15783,-1.65868 0.4605,-1.30834 0.26958,-2.73439 0.28634,-4.09712 0.0132,-2.38872 0.0764,-4.77872 0.27109,-7.16036 -1.06462,-0.057 -2.12924,-0.1142 -3.19386,-0.17117 z" />
    <path
       id="path386"
       style="fill:#000000;stroke:#000000;stroke-width:1.00157;stroke-linecap:round"
       d="m 699.63702,405.00662 c 1.32196,-0.14297 -1.03313,-0.035 0.59501,0.25257 2.05202,1.09029 1.52782,3.80246 0.90504,5.60224 -1.54866,4.05656 -4.88848,7.30146 -8.75546,9.18548 -0.97116,2.5103 1.75832,3.25914 3.64774,2.63331 2.9112,-0.6049 5.8192,-1.25383 8.80091,-1.40551 2.10618,-0.22452 4.25664,-0.14068 6.34262,-0.42851 1.96936,-2.12487 -1.47167,-2.05126 -2.95575,-2.63535 -4.79494,0.70615 -9.66555,1.54937 -14.55219,1.33646 1.555,-0.87061 4.21593,0.9923 2.55688,2.58532 3.23733,-4.11492 7.24002,-8.13504 8.23568,-13.47786 0.63058,-2.38673 -0.51128,-5.25587 -3.15599,-5.68979 -1.06497,-0.26682 -5.02687,-0.3726 -2.63119,1.13372 0.32223,0.30264 0.64449,0.60527 0.9667,0.90792 z" />
    <path
       id="path388"
       style="fill:#000000;stroke:#000000;stroke-width:1.00157;stroke-linecap:round"
       d="m 732.36622,402.35254 c -1.78566,2.61973 -4.40007,4.48767 -6.56769,6.75589 -0.92236,1.53276 0.99303,2.84341 2.41197,2.6889 3.57525,0.56212 7.23596,0.7245 10.72076,1.74895 1.17505,-0.82213 2.67502,-1.61653 3.65481,-2.77568 -1.31248,-0.41302 -2.68356,0.16334 -4.02857,10e-4 -2.63197,0.0191 -5.26732,-0.27647 -7.82623,-0.89444 -0.56762,-1.06888 -2.47791,0.79065 -1.347,-0.0648 1.85349,-2.14704 3.53966,-4.43776 5.49325,-6.49811 -0.83709,-0.32065 -1.67427,-0.64136 -2.5113,-0.96198 z" />
    <path
       id="path390"
       style="fill:#000000;stroke:#000000;stroke-width:1.00157;stroke-linecap:round"
       d="m 735.05104,408.87964 c 0.30449,3.26779 0.3859,6.55675 0.52489,9.83027 -0.29764,1.40545 0.47381,2.59216 0.71669,3.91504 0.27001,0.64144 1.43504,1.58053 1.61689,0.62517 1.05313,-0.42772 0.4035,-1.81691 0.86649,-2.67375 0.25156,-1.23868 -0.34398,-2.47769 -0.21782,-3.73038 -0.24431,-2.73689 -0.46119,-5.48293 -0.97022,-8.18657 -0.84563,0.0734 -1.69132,0.14678 -2.53692,0.22022 z" />
    <path
       id="path392"
       style="fill:#000000;stroke:#000000;stroke-width:1.00157;stroke-linecap:round"
       d="m 749.54135,402.61681 c 1.34521,-0.20923 -0.44614,0.14561 0.67026,0.42297 1.40045,0.80158 1.59002,2.63101 0.94149,3.98547 -0.50589,1.27209 -2.36588,3.21811 -0.37737,4.12882 1.54416,0.1747 3.42428,1.17971 2.7543,3.05271 -0.91297,1.55211 -2.1479,2.9971 -3.57172,4.12322 -1.64218,0.58822 -1.8811,2.34834 -2.35776,3.6929 1.25973,0.15681 3.33879,0.13921 4.75739,-0.46277 1.9807,-1.11694 3.60446,-2.85716 4.77608,-4.78759 0.89701,-2.07587 0.49043,-4.70102 -0.94518,-6.43231 -0.77894,-0.77377 -3.43758,-2.79419 -2.5024,-0.44669 0.56517,0.13146 1.09897,-2.48671 1.01718,-3.51546 -0.003,-2.32372 -1.16896,-5.29151 -3.81844,-5.50677 -1.146,-0.16458 -4.09756,-0.0803 -1.93854,1.18603 0.19745,0.18732 0.39489,0.37467 0.59471,0.55947 z" />
    <path
       id="path394"
       style="fill:#000000;stroke:#000000;stroke-width:1.00157;stroke-linecap:round"
       d="m 785.16549,397.81976 c -1.79112,2.6552 -4.05233,4.96296 -5.85409,7.60303 -0.64856,1.30989 0.4482,2.79064 1.81002,2.95161 3.10617,0.50366 6.29699,0.65165 9.31743,1.59893 1.10436,-0.0311 2.3494,-0.86419 2.77632,-1.77023 1.57238,-1.30611 -1.4165,-1.34193 -2.26935,-1.32057 -2.45563,-0.14243 -4.91461,-0.41878 -7.30106,-1.03278 -0.6398,0.54652 -0.67981,0.7475 -0.19977,-0.12538 1.49326,-2.27346 2.84672,-4.69069 4.86538,-6.55522 -1.04828,-0.44982 -2.09662,-0.89951 -3.14488,-1.34939 z" />
    <path
       id="path396"
       style="fill:#000000;stroke:#000000;stroke-width:1.00157;stroke-linecap:round"
       d="m 789.89585,403.21209 c 0.12722,4.18534 -0.36121,8.37642 -0.0615,12.55622 0.20624,1.43019 0.79406,2.85185 1.86498,3.85083 0.83898,-0.59169 0.713,-2.20981 0.93497,-3.26979 0.0303,-2.24659 -0.15579,-4.49084 -0.15778,-6.73845 -0.0548,-2.10645 -0.0844,-4.218 0.083,-6.32045 -0.88786,-0.0261 -1.77582,-0.0525 -2.66362,-0.0784 z" />
    <path
       id="path398"
       style="fill:#000000;stroke:#000000;stroke-width:1.00157;stroke-linecap:round"
       d="m 806.36084,396.37096 c -1.55081,3.57084 -4.37393,6.34912 -6.64198,9.43145 -0.44866,1.50638 1.2323,2.52366 2.55963,2.16185 4.75732,-0.0694 9.50269,-0.47103 14.25681,-0.62052 1.92182,0.0947 1.54003,-2.606 -0.28125,-2.37774 -1.84518,-1.06375 -4.00335,-9e-5 -5.96733,0.0849 -1.94931,0.23226 -3.91401,0.27106 -5.87395,0.33774 1.37255,0.008 -1.84525,-0.36803 -0.79585,0.68333 -0.23535,1.15782 0.77069,-1.11754 1.04364,-1.37291 1.45408,-2.47457 2.81311,-5.0796 4.92909,-7.06929 -1.07621,-0.41975 -2.15288,-0.83834 -3.22881,-1.25881 z" />
    <path
       id="path400"
       style="fill:#000000;stroke:#000000;stroke-width:1.00157;stroke-linecap:round"
       d="m 811.55858,401.71799 c 0.33167,4.9818 0.22043,9.97722 0.23221,14.96615 0.0401,0.94939 1.24005,2.29812 1.83549,2.23767 0.39248,-0.9922 1.64533,-1.66567 1.23774,-2.90399 -0.15147,-4.76615 -0.49771,-9.52884 -0.43547,-14.29987 -0.95666,3e-5 -1.91331,-5e-5 -2.86997,4e-5 z" />
    <path
       id="path402"
       style="fill:#000000;stroke:#000000;stroke-width:1.00157;stroke-linecap:round"
       d="m 848.92784,393.63563 c -2.58611,3.08212 -5.79847,5.54683 -8.71883,8.2901 -1.31528,0.66853 -1.61918,2.75813 -0.16322,3.44193 1.61526,0.67878 3.4396,0.1836 5.13914,0.46293 2.21166,0.11694 4.40204,0.52472 6.58437,0.82099 1.20866,-0.0898 3.8331,-0.51087 3.18834,-2.20077 -1.22706,-1.04389 -3.03817,-0.44923 -4.51016,-0.78905 -2.28684,-0.18572 -4.57681,-0.38226 -6.83932,-0.77398 -0.53923,0.0566 -0.68399,1.98678 -0.1974,0.73364 2.40073,-2.86552 4.70318,-5.83816 7.50682,-8.33141 1.20031,-1.13118 -1.46918,-1.15063 -1.98974,-1.65438 z" />
    <path
       id="path404"
       style="fill:#000000;stroke:#000000;stroke-width:1.00157;stroke-linecap:round"
       d="m 850.4471,401.79162 c 0.53676,4.39236 0.32379,8.82741 0.5075,13.23649 0.0993,1.20633 1.12912,1.95919 2.05391,2.56098 0.40744,-0.82876 1.5879,-1.96934 1.23577,-3.28207 -0.3767,-4.1713 -0.67261,-8.36731 -0.42026,-12.55549 -1.12564,0.0134 -2.2513,0.0267 -3.37692,0.0401 z" />
    <path
       id="path406"
       style="fill:#000000;stroke:#000000;stroke-width:1.00157;stroke-linecap:round"
       d="m 869.54912,395.89116 c -2.79385,0.54388 -5.66686,0.60965 -8.49571,0.33885 -1.99173,0.47778 -0.89925,2.9742 -1.03171,4.40009 0.0689,1.55957 -0.94953,4.38732 1.3617,4.67631 2.51433,-0.0919 5.38749,0.42727 6.94639,2.61137 1.51436,1.55246 -0.31723,3.20322 -1.6398,4.04814 -1.38409,1.51079 -4.13848,1.55408 -4.92701,3.47934 -1.14497,0.47512 1.74227,0.63056 2.44642,1.07004 2.56939,0.20127 4.78997,-1.55548 6.5896,-3.19117 1.88811,-1.58656 2.63175,-4.6651 0.90614,-6.64205 -1.78646,-2.26527 -4.6475,-3.42117 -7.38539,-4.02856 -0.93089,0.0852 -0.30365,1.28633 -0.52621,-0.0816 -0.13547,-1.14192 0.0606,-3.25952 0.14174,-3.78328 -0.69047,1.55449 1.95166,-0.008 2.78599,0.30361 1.77845,-0.17619 3.56318,-0.2795 5.34821,-0.36035 -0.70259,-1.06211 -1.70696,-1.87061 -2.52036,-2.84071 z" />
    <path
       id="path408"
       style="fill:#000000;stroke:#000000;stroke-width:1.00157;stroke-linecap:round"
       d="m 905.11628,395.86005 c -1.70444,2.55761 -3.77335,4.87143 -6.03209,6.94043 -0.98436,0.91971 -0.22263,2.68614 1.12438,2.5647 1.7518,-0.11229 3.50987,-0.13931 5.25536,0.0954 1.50718,0.0715 3.0071,0.25201 4.5133,0.3105 1.23348,-0.0382 2.44994,-1.03854 2.78628,-2.18318 -0.67782,-1.058 -2.31984,-0.088 -3.37656,-0.37095 -2.41699,0.0541 -4.84689,0.0507 -7.2461,-0.26086 -0.30053,0.46473 -0.19697,1.87508 0.26768,0.67694 1.63228,-2.3079 2.9372,-4.94217 5.244,-6.68469 -0.84541,-0.36279 -1.69089,-0.72538 -2.53625,-1.08828 z" />
    <path
       id="path410"
       style="fill:#000000;stroke:#000000;stroke-width:1.00157;stroke-linecap:round"
       d="m 907.93557,400.20948 c -0.31841,3.92018 -0.46036,7.89499 0.0395,11.80173 0.32128,0.96252 1.88963,3.67106 1.97141,1.44065 1.18615,-1.16528 0.96292,-2.88465 1.05456,-4.4001 -0.0137,-2.72702 -0.10466,-5.45939 -0.0265,-8.18192 -0.37302,-1.04423 -2.15007,-0.33758 -3.0389,-0.66036 z" />
    <path
       id="path412"
       style="fill:#000000;stroke:#000000;stroke-width:1.00157;stroke-linecap:round"
       d="m 923.64261,396.01098 c -2.04172,3.41356 -4.12879,6.98957 -4.71911,10.98329 -0.25147,2.05908 0.0709,4.56058 1.89163,5.83845 1.71067,0.80444 3.98645,0.48232 5.41828,-0.75477 1.33396,-1.4368 3.00843,-3.07469 2.89061,-5.19617 -0.16615,-1.68888 -2.07119,-2.22245 -3.50479,-2.08583 -1.59501,-0.16541 -3.62046,0.36342 -4.09095,2.10135 -0.11934,0.88897 -0.31209,2.38659 0.73398,1.15809 0.96851,-0.26624 3.05681,-0.7415 3.28003,-1.17771 -1.31072,-0.20903 1.2839,-0.052 0.49822,0.99445 -0.54676,1.47918 -1.99273,2.43263 -3.47879,2.79565 0.61456,0.18519 1.95401,0.24994 0.55278,0.28859 -1.26942,-0.52992 -1.69542,-2.10593 -1.82627,-3.35731 -0.18439,-3.20954 1.22831,-6.28594 2.86831,-8.95972 0.38308,-0.91562 2.35651,-2.02623 0.48283,-2.24632 -0.33223,-0.12739 -0.66448,-0.25476 -0.99676,-0.38204 z" />
    <path
       id="path422"
       style="fill:#000000;stroke:#000000;stroke-width:1.00157;stroke-linecap:round"
       d="m 957.46408,394.81933 c -1.36522,2.57533 -3.26454,4.82478 -5.13211,7.04036 -1.14562,0.72023 -1.58876,2.79198 0.0687,3.17786 0.98438,0.0608 2.868,0.099 3.38793,-0.12871 -1.25601,-0.006 1.23166,0.006 1.70007,0.0734 2.41561,0.11533 4.8008,0.60215 7.17948,0.94532 0.97338,-0.14554 3.09979,-1.49396 2.19303,-2.43651 -1.39531,-0.0543 -2.79681,-0.0293 -4.20401,-0.1857 -3.05364,-0.24682 -6.10646,-0.5286 -9.17194,-0.54506 0.17328,-0.28944 1.65857,0.0685 1.071,1.00712 1.65396,-2.77433 3.16036,-5.65562 4.87432,-8.4038 -0.6555,-0.18133 -1.31098,-0.36354 -1.96649,-0.54431 z" />
    <path
       id="path424"
       style="fill:#000000;stroke:#000000;stroke-width:1.00157;stroke-linecap:round"
       d="m 960.48509,399.92633 c -0.25777,4.63146 -1.04367,9.21804 -1.20804,13.85748 -0.42456,0.98202 1.21799,2.1413 1.55734,2.06556 0.25455,-0.89849 1.40406,-1.37845 0.95541,-2.4981 -0.0153,-4.02769 0.0102,-8.11726 0.92793,-12.05469 0.96045,-1.51983 -1.02776,-1.15354 -1.93038,-1.33869 l -0.15113,-0.0158 z" />
    <path
       id="path426"
       style="fill:#000000;stroke:#000000;stroke-width:1.00157;stroke-linecap:round"
       d="m 977.61292,397.75674 c 3.04487,-0.73593 6.15752,-1.47 9.25882,-1.73506 -1.28084,0.60808 -2.57459,-1.22264 -2.69536,0.8827 -1.24123,2.30648 -2.58271,4.59796 -3.73421,6.96881 -1.56052,3.13991 -3.14556,6.27017 -4.7644,9.37842 -0.46065,1.97902 1.57616,2.56944 2.55891,0.95876 1.09488,-1.35882 1.39953,-3.15617 2.19232,-4.68899 1.76644,-4.20636 3.838,-8.30144 6.47477,-12.03275 1.53421,-1.45048 0.98146,-4.28055 -1.51341,-3.67425 -2.17992,0.57761 -4.2938,1.46472 -6.56809,1.67756 -0.93571,0.46612 -4.26903,-0.61224 -2.44916,0.8732 0.41326,0.46386 0.82658,0.92787 1.23981,1.3916 z" />
    <path
       id="path428"
       style="fill:#000000;stroke:#000000;stroke-width:1.00157;stroke-linecap:round"
       d="m 977.9115,406.7117 c 2.35693,-1.00223 4.96749,-1.11283 7.37812,-1.92397 1.32295,-0.85577 -0.18248,-1.74774 -1.17082,-1.65272 -2.55435,-0.34822 -4.99377,0.81157 -7.52019,0.96035 -0.79265,-0.002 -1.6112,0.37503 -0.57631,0.91284 0.62973,0.56783 1.25947,1.13566 1.8892,1.7035 z" />
    <path
       id="path430"
       style="fill:#000000;stroke:#000000;stroke-width:1.00157;stroke-linecap:round"
       d="m 815.12673,243.95479 c 7.17209,-1.70938 14.59005,-2.07067 21.92509,-2.42857 3.10643,0.67601 2.13959,-2.75697 -0.28866,-2.43203 -7.89672,0.52142 -15.703,2.08259 -23.59226,2.77465 0.12692,1.04397 1.54177,1.20432 1.95583,2.08595 z" />
    <path
       id="path432"
       style="fill:#000000;stroke:#000000;stroke-width:1.00157;stroke-linecap:round"
       d="m 825.46432,232.07097 c 0.30893,5.47869 -0.17109,10.95605 -0.39143,16.42816 -0.9624,2.10991 2.06046,4.98775 2.77147,1.66389 0.34052,-2.31856 -0.26635,-4.69123 -0.16518,-7.04401 -0.1574,-3.66002 -0.23168,-7.3458 0.27288,-10.98404 -0.82925,-0.0213 -1.65849,-0.0427 -2.48774,-0.064 z" />
    <path
       id="path434"
       style="fill:#000000;stroke:#000000;stroke-width:1.00157;stroke-linecap:round"
       d="m 816.09211,343.74647 c 6.37789,-1.13846 12.81676,-2.05304 19.28698,-2.43673 2.25033,-0.16827 4.56218,0.007 6.77416,-0.35008 0.64222,-0.69599 -0.8268,-1.14637 -0.0355,-1.53871 -1.80022,-1.9028 -4.68071,-1.26292 -7.01955,-1.18122 -4.40285,0.31244 -8.77277,0.90754 -13.12868,1.61211 -2.96608,0.41209 -5.97948,0.67642 -8.96874,0.36243 1.03043,1.1774 2.06087,2.3548 3.0913,3.5322 z" />
    <path
       id="path436"
       style="fill:#000000;stroke:#000000;stroke-width:1.00157;stroke-linecap:round"
       d="m 811.04068,357.06657 c 7.69931,0.70195 15.4278,0.0468 23.08128,-0.83379 3.65251,-0.27329 7.32133,-0.27425 10.97886,-0.10665 1.52573,-2.36925 -2.95096,-3.17115 -4.6211,-2.57062 -6.23092,0.30145 -12.39997,1.26671 -18.61508,1.74871 -2.7658,0.17243 -5.59639,0.10276 -8.28995,-0.60455 -0.84467,0.78897 -1.68935,1.57792 -2.53401,2.3669 z" />
    <path
       id="path288"
       style="fill:#000000;fill-opacity:1;stroke:#000000;stroke-width:1.00157;stroke-linecap:round;stroke-opacity:1"
       d="m 203.44308,306.86356 c 5.02126,4.97664 7.92763,11.55566 11.83334,17.35818 2.74186,4.43111 5.5492,8.82844 8.64345,13.02407 2.19802,1.68827 5.9026,0.0342 3.63301,-2.7388 -5.3763,-6.33521 -10.12068,-13.19813 -14.89559,-20.00223 -1.69634,-2.43534 -3.38588,-4.87542 -5.08873,-7.30622 -0.36007,-2.50498 -2.83093,-0.85385 -4.12548,-0.335 z" />
    <path
       id="path290"
       style="fill:#000000;fill-opacity:1;stroke:#000000;stroke-width:1.00157;stroke-linecap:round;stroke-opacity:1"
       d="m 223.04405,304.8088 c -4.18987,8.37924 -9.1304,16.3539 -13.464,24.65783 -0.89021,1.87846 -2.31448,3.62176 -2.8059,5.61494 0.5138,2.98301 5.20055,2.29844 5.77102,-0.37949 3.79976,-8.35582 7.98883,-16.53904 12.24215,-24.67418 0.68141,-1.8819 4.3182,-4.46848 0.41752,-4.56756 -0.72027,-0.21718 -1.44053,-0.43436 -2.16079,-0.65154 z" />
    <path
       id="path296"
       style="fill:#000000;fill-opacity:1;stroke:#000000;stroke-width:1.00157;stroke-linecap:round;stroke-opacity:1"
       d="m 259.43961,276.18928 c -7.68301,0.3843 -15.27249,-1.98839 -22.92038,-1.47228 -4.23899,2.6899 0.21841,8.23164 0.11,12.16795 2.52069,12.81649 3.30971,25.9298 2.98217,38.95395 -0.0891,4.01388 -5.06858,13.37863 2.40776,12.66362 6.3081,-0.44242 12.65122,0.10019 18.82467,1.27859 3.75152,-0.13985 6.78667,-6.9281 0.72938,-4.91437 -5.71588,1.38466 -13.48202,-2.01101 -17.98718,-0.35492 1.34688,5.8698 1.94652,-4.99068 1.7395,-6.77154 -0.0248,-15.83065 -2.44964,-31.52041 -3.41268,-47.29307 1.33278,-2.90095 -4.01752,1.70653 -3.12407,-0.10727 5.07413,-0.66032 9.96307,1.13056 14.95164,0.92659 2.35351,-0.96603 3.80711,-3.44576 5.69919,-5.07725 z" />
    <path
       id="path299"
       style="fill:#000000;fill-opacity:1;stroke:#000000;stroke-width:1.00157;stroke-linecap:round;stroke-opacity:1"
       d="m 276.90922,286.49106 c -4.97797,4.29258 -8.80357,10.12413 -9.68423,16.73252 -1.21328,6.75332 -0.72233,14.40085 3.53765,20.04321 2.31184,2.9424 6.90004,2.92923 9.90415,1.12783 5.36987,-4.36406 7.34175,-11.41335 9.11281,-17.82265 0.95828,-4.29397 2.19403,-8.68477 1.87706,-13.10998 -0.62286,-3.63287 -4.49785,-5.41808 -7.88205,-4.98147 -3.64461,-0.51365 -6.88498,4.32113 -5.03748,6.28767 1.78813,-1.38125 5.22616,-1.26231 6.51069,-2.41877 -4.05424,-0.5535 2.12115,0.18164 1.86981,2.65495 0.9073,7.97813 -0.78252,16.50966 -5.41687,23.15851 -1.04973,2.45119 -5.8678,4.47246 -5.56179,4.61553 -4.24659,-1.3235 -5.45441,-6.35591 -6.0475,-10.24405 -0.87711,-7.91466 1.34032,-16.82011 7.69569,-22.03343 2.02341,-0.80694 3.31611,-2.21455 0.48064,-3.09966 -0.46399,-0.27928 -0.99365,-0.49182 -1.35858,-0.91021 z" />
    <path
       id="path301"
       style="fill:#000000;fill-opacity:1;stroke:#000000;stroke-width:1.00157;stroke-linecap:round;stroke-opacity:1"
       d="m 334.1905,306.88719 c 6.65486,0.35152 2.92571,-10.44351 -2.094,-5.21022 -3.35541,1.52326 -0.51737,5.15889 2.094,5.21022 z" />
    <path
       id="path303"
       style="fill:#000000;fill-opacity:1;stroke:#000000;stroke-width:1.00157;stroke-linecap:round;stroke-opacity:1"
       d="m 333.84012,330.07175 c 3.30138,-0.41691 12.692,-4.29781 5.95357,-7.10888 -4.59932,-0.19072 -14.22994,2.48891 -5.95357,7.10888 z" />
    <path
       id="path305"
       style="fill:#000000;fill-opacity:1;stroke:#000000;stroke-width:1.00157;stroke-linecap:round;stroke-opacity:1"
       d="m 308.97473,323.31524 c -3.40739,3.82308 -6.76747,7.71149 -9.76416,11.86545 -0.57473,1.02954 -0.70689,3.52014 -0.25084,3.84284 0.18843,1.15874 2.06501,-0.4815 2.91268,-0.58561 1.6598,-0.65023 2.85586,-1.96608 3.89799,-3.35499 2.61458,-3.14425 5.24295,-6.3579 8.58282,-8.76891 -1.1097,-1.14669 -2.81107,-1.45985 -4.11755,-2.34886 -0.42031,-0.21663 -0.84063,-0.43327 -1.26094,-0.64992 z" />
    <path
       id="path308"
       style="fill:#000000;fill-opacity:1;stroke:#000000;stroke-width:1.00157;stroke-linecap:round;stroke-opacity:1"
       d="m 353.93414,274.10413 c 5.13277,-0.067 14.71437,-0.46154 17.07039,-0.13061 -5.39498,-1.00631 -0.48111,6.85217 -1.84433,9.92045 -0.24908,17.56439 -1.0353,35.17474 -3.31313,52.60106 -1.93768,-1.04902 3.96543,-1.68731 0.066,-1.21187 -4.72059,0.67592 -10.39563,-0.71189 -14.39798,2.32609 1.12401,5.50342 9.63328,2.09291 13.90748,2.44271 -3.24532,-0.0594 8.95955,1.23902 5.94345,-4.03902 -1.57651,-8.57272 -0.28957,-17.35049 -0.13663,-26.00484 0.50021,-11.19099 0.97867,-22.38541 1.81257,-33.5577 2.47379,-5.53085 -4.3864,-7.89351 -8.27847,-5.09933 -3.68194,0.48189 -8.5088,-1.17256 -10.82935,2.75306 z" />
    <path
       id="path310"
       style="fill:#000000;fill-opacity:1;stroke:#000000;stroke-width:1.00157;stroke-linecap:round;stroke-opacity:1"
       d="m 393.23367,306.51082 c 10.55385,1.4603 21.15558,-0.42804 31.7207,-0.72259 2.20821,0.46756 5.40746,-1.9463 2.2358,-3.39017 -4.52972,-1.60647 -9.30067,-0.0365 -13.91294,0.29809 -5.36265,0.47096 -10.81162,1.09604 -16.16761,0.23696 -1.29199,1.19257 -2.58396,2.38515 -3.87595,3.57771 z" />
    <path
       id="path312"
       style="fill:#000000;fill-opacity:1;stroke:#000000;stroke-width:1.00157;stroke-linecap:round;stroke-opacity:1"
       d="m 409.15001,291.30912 c 0.63736,5.85115 0.48501,11.75528 0.3557,17.62726 -0.20128,2.57063 -0.10985,5.30606 1.26408,7.56752 0.70728,0.66531 0.72073,1.43454 1.47555,1.76918 -0.22181,-1.18614 0.51797,-3.18667 1.19943,-2.68819 1.22451,-4.20162 0.59542,-8.60579 0.63016,-12.9075 -0.13058,-3.83552 -0.41898,-7.66437 -0.50644,-11.50155 -1.47283,0.0444 -2.94565,0.0888 -4.41848,0.13328 z" />
    <path
       id="path314"
       style="fill:#000000;fill-opacity:1;stroke:#000000;stroke-width:1.00157;stroke-linecap:round;stroke-opacity:1"
       d="m 470.83322,273.80575 c -3.1506,6.34943 -8.18872,11.46021 -12.75494,16.78242 -1.99236,1.35575 -4.68348,5.12863 -1.37534,6.57813 6.74324,2.168 13.9535,2.05281 20.93741,2.83901 2.41567,-1.01931 4.94788,0.68672 7.3917,0.35849 3.01513,-2.20244 -1.78225,-4.14916 -3.792,-4.32943 -0.46517,-0.13214 -2.63386,0.33697 -1.05231,0.42412 -6.19576,0.22622 -12.50167,0.0392 -18.50349,-1.66471 -1.0106,-0.84002 -1.87853,0.8424 -0.59102,-0.93357 4.50582,-6.3097 8.70999,-12.86891 13.8819,-18.67038 -1.38061,-0.46144 -2.76144,-0.92222 -4.14191,-1.38408 z" />
    <path
       id="path316"
       style="fill:#000000;fill-opacity:1;stroke:#000000;stroke-width:1.00157;stroke-linecap:round;stroke-opacity:1"
       d="m 478.79613,288.69814 c 0.62688,7.07212 0.94855,14.17065 1.23731,21.26241 0.13296,2.82099 -0.25355,5.86067 1.00556,8.4738 0.85514,1.13151 2.49185,3.94064 2.5574,1.01932 1.44325,-2.10483 0.5637,-4.71923 0.46253,-7.06815 -0.77958,-5.5382 -0.80683,-11.14135 -1.26707,-16.70912 -0.64294,-2.20795 0.87276,-5.38745 -0.58636,-6.96878 -1.12951,-0.0843 -2.2725,0.06 -3.40937,-0.009 z" />
    <path
       id="path318"
       style="fill:#000000;fill-opacity:1;stroke:#000000;stroke-width:1.00157;stroke-linecap:round;stroke-opacity:1"
       d="m 511.71066,283.5223 c 0.62919,-2.48549 5.47245,-5.4276 5.93408,-4.52563 -2.9623,0.14803 2.78966,2.77577 1.79102,4.99063 1.09467,8.55832 -3.0628,16.86487 -7.83451,23.69619 -2.42452,4.3278 -7.11712,6.82311 -9.63831,10.80543 -0.002,4.80061 6.32417,3.14143 9.50037,3.32909 8.46718,-0.17072 16.93742,0.0899 25.40624,0.0833 1.87149,-3.50115 -3.05888,-4.92933 -5.87657,-5.64981 -7.07582,0.98048 -14.31192,1.23129 -21.45836,0.58992 -1.89693,0.45231 -1.14949,4.76003 0.0763,1.10073 6.29662,-9.23059 12.87769,-18.83638 15.1106,-29.97306 0.68256,-4.78428 -0.87183,-11.10301 -6.05857,-12.60252 -4.57632,-0.85697 -8.75943,3.05232 -10.31645,6.99359 0.50413,1.10369 2.43566,0.51998 3.36421,1.16217 z" />
  </g>
</svg>
