<?xml version="1.0" encoding="UTF-8" standalone="no"?>
<svg
   xmlns:dc="http://purl.org/dc/elements/1.1/"
   xmlns:cc="http://creativecommons.org/ns#"
   xmlns:rdf="http://www.w3.org/1999/02/22-rdf-syntax-ns#"
   xmlns:svg="http://www.w3.org/2000/svg"
   xmlns="http://www.w3.org/2000/svg"
   xmlns:sodipodi="http://sodipodi.sourceforge.net/DTD/sodipodi-0.dtd"
   xmlns:inkscape="http://www.inkscape.org/namespaces/inkscape"
   sodipodi:docname="np-dice.svg"
   inkscape:version="1.0.1 (3bc2e813f5, 2020-09-07)"
   id="svg8"
   version="1.1"
   viewBox="0 0 158.75 79.375"
   height="300"
   width="600">
  <sodipodi:namedview
     inkscape:snap-global="false"
     inkscape:document-rotation="0"
     inkscape:window-maximized="0"
     inkscape:window-y="19"
     inkscape:window-x="0"
     inkscape:window-height="1061"
     inkscape:window-width="1920"
     units="px"
     showgrid="false"
     inkscape:current-layer="layer1"
     inkscape:document-units="mm"
     inkscape:cy="143.18723"
     inkscape:cx="296.32967"
     inkscape:zoom="2.8"
     inkscape:pageshadow="2"
     inkscape:pageopacity="0.0"
     borderopacity="1.0"
     bordercolor="#666666"
     pagecolor="#ffffff"
     id="base" />
  <metadata
     id="metadata5">
    <rdf:RDF>
      <cc:Work
         rdf:about="">
        <dc:format>image/svg+xml</dc:format>
        <dc:type
           rdf:resource="http://purl.org/dc/dcmitype/StillImage" />
        <dc:title></dc:title>
      </cc:Work>
    </rdf:RDF>
  </metadata>
  <g
     transform="translate(0,-217.62501)"
     id="layer1"
     inkscape:groupmode="layer"
     inkscape:label="Layer 1">
    <path
       id="path88"
       style="fill:#87de87;stroke:#87de87;stroke-width:0.264583px;stroke-linecap:butt;stroke-linejoin:miter;stroke-opacity:1"
       d="m 37.82157,252.2551 c 5.110974,-1.29287 9.073666,-5.10586 14.011625,-6.86989 4.990209,-2.47919 10.129649,-4.68445 15.023393,-7.33247 1.98966,-1.30336 5.374499,-3.70923 7.003633,-3.22337 0.487487,5.03591 2.790951,9.72009 3.343347,14.76928 0.634656,6.45577 0.819701,12.96825 0.328163,19.43882 1.153783,3.90472 -0.266762,7.37854 -4.624588,7.77517 -4.79177,2.17023 -8.710289,5.82138 -13.393263,8.22004 -3.814833,2.28953 -7.713887,4.38128 -11.623852,6.49005 -2.045583,1.57085 -7.109987,5.51576 -6.854169,0.3147 -0.746904,-4.69684 -2.74371,-9.30116 -1.780597,-14.13762 0.68403,-3.53793 0.81236,-7.13094 0.09335,-10.6806 -0.625433,-4.91202 -1.223566,-9.81839 -1.52704,-14.76411 z" />
    <path
       id="path96"
       style="fill:#37c837;stroke:#37c837;stroke-width:0.264583px;stroke-linecap:butt;stroke-linejoin:miter;stroke-opacity:1"
       d="m 5.2356679,236.00594 c 3.4487648,0.90909 6.2052821,3.46816 9.7535291,4.19753 5.397808,2.02489 10.934518,4.00246 15.429692,7.7308 2.547545,2.45089 6.32547,3.68906 8.538077,6.06652 1.451746,4.59078 1.001225,9.50449 1.699058,14.21542 -0.05636,5.65951 -1.110087,11.40525 0.416896,16.97617 0.0927,2.9398 2.085283,7.44851 -0.03636,9.43612 -3.27023,-1.08907 -7.08268,-0.36362 -10.097168,-2.39357 -4.570179,-2.09464 -9.513752,-3.59792 -13.391156,-6.9369 -3.21972,-1.7029 -6.030225,-3.95298 -8.7190137,-6.37735 -2.4753011,-2.1758 -6.4839242,-3.89996 -6.2493541,-7.78494 -0.2604647,-4.23246 -0.2037525,-8.45275 0.6815771,-12.62449 0.2326918,-6.09936 1.2578988,-12.16912 1.4219254,-18.26138 0.2107503,-1.40672 -0.2207265,-2.95509 0.5522972,-4.24393 z" />
    <path
       id="path104"
       style="fill:#5fd35f;stroke:#5fd35f;stroke-width:0.264583px;stroke-linecap:butt;stroke-linejoin:miter;stroke-opacity:1"
       d="m 19.692272,229.8834 c -4.311598,2.79302 -10.0051737,2.58442 -13.9815754,5.98831 -0.5071879,2.35197 4.4983554,3.54366 6.6340424,4.66553 6.141126,1.50115 11.716285,4.67947 17.28134,7.56833 3.497575,1.58444 7.074626,6.62203 11.189698,4.53491 4.14582,-2.59901 8.346945,-5.25112 13.052843,-6.73563 5.91346,-2.67579 12.116411,-5.12514 16.829482,-9.74621 2.154939,-0.46239 4.118047,-2.06367 0.878599,-2.70889 -6.024944,-2.98199 -12.209023,-5.61228 -18.409248,-8.20519 -3.954239,-1.32352 -7.968631,-2.56255 -11.979924,-3.63957 -7.739447,-0.0133 -13.803089,5.59347 -20.832118,8.00284 z" />
    <path
       id="path118"
       style="fill:#3771c8;stroke:#3771c8;stroke-width:0.264583px;stroke-linecap:butt;stroke-linejoin:miter;stroke-opacity:1"
       d="m 82.559407,224.35979 c 1.730338,2.96917 4.415044,5.08281 7.126204,7.07299 3.320243,3.73752 6.53005,7.71966 10.940999,10.23925 2.55988,1.32794 4.6639,4.33786 3.45623,7.26679 -1.32249,7.41893 -1.55151,14.9701 -1.87902,22.48084 -0.77812,3.91054 0.70653,7.91631 -0.3674,11.77918 1.0451,2.42664 -0.97335,4.19116 -2.216064,1.4149 -2.436334,-2.29312 -4.654493,-4.761 -6.721084,-7.38137 -2.692243,-2.24054 -4.634262,-5.23249 -7.565676,-7.19455 -3.207331,-2.17006 -2.285692,-6.52991 -2.32296,-9.84352 0.562916,-9.46638 -0.646072,-18.93263 -0.05604,-28.39939 -0.120101,-2.46204 0.04392,-5.01168 -0.395188,-7.43512 z" />
    <path
       id="path126"
       style="fill:#5f8dd3;stroke:#5f8dd3;stroke-width:0.264583px;stroke-linecap:butt;stroke-linejoin:miter;stroke-opacity:1"
       d="m 102.34019,245.2785 c 9.15977,-0.009 18.29473,-0.71529 27.42397,-1.23943 6.81643,-0.14828 13.70332,-0.44989 20.46426,0.33742 5.17906,-1.89315 5.90015,2.03656 4.79431,6.06418 -0.38972,9.29616 0.33036,18.65207 1.18296,27.8921 0.52048,4.61781 -0.8798,11.31102 -7.083,8.84718 -10.06837,-0.35808 -20.19497,0.84685 -30.20561,-0.72689 -5.68262,-0.89137 -11.56982,-0.60698 -17.17263,-1.48175 -1.17417,-4.9288 -2.160144,-10.83667 -0.62095,-16.04656 1.91518,-5.6854 0.9688,-11.8198 1.07379,-17.69115 -0.18724,-1.97659 -0.37381,-4.00902 0.1429,-5.9551 z" />
    <path
       id="path136"
       style="fill:#87aade;stroke:#87aade;stroke-width:0.264583px;stroke-linecap:butt;stroke-linejoin:miter;stroke-opacity:1"
       d="m 115.68759,221.19869 c -10.56536,1.00794 -21.363698,-0.0844 -31.803902,1.75103 -3.495536,4.56026 4.733523,7.77336 6.554447,11.43795 2.572039,4.68819 7.291986,7.05627 11.549855,9.88824 4.97506,3.82251 11.50254,1.39098 17.20295,1.55861 8.48813,0.25156 16.93251,-2.61234 25.39603,-0.93582 2.91633,-0.27642 11.61676,2.58605 8.84989,-2.74552 -3.10252,-5.4425 -7.47199,-10.06896 -10.19543,-15.76464 -2.57815,-6.10215 -9.10004,-6.86541 -14.87413,-6.22205 -4.14059,0.36676 -8.8974,-0.87174 -12.67971,1.0322 z" />
    <path
       id="path299"
       style="opacity:1;fill:#b3b3b3;fill-opacity:1;stroke:#1a1a1a;stroke-width:0.529167;stroke-linecap:round;stroke-opacity:1"
       d="m 46.588675,255.70588 c 0.388471,2.29858 0.470189,4.64638 0.782453,6.94649 0.85032,0.13587 0.139602,-0.98855 0.210241,-1.4896 -0.224331,-1.65236 -0.327095,-3.31849 -0.55067,-4.97094 0.08585,-0.25413 -0.152441,-0.61961 -0.442024,-0.48595 z" />
    <path
       id="path301"
       style="opacity:1;fill:#b3b3b3;fill-opacity:1;stroke:#1a1a1a;stroke-width:0.529167;stroke-linecap:round;stroke-opacity:1"
       d="m 47.961727,263.1124 c 2.068324,-1.49832 4.432343,-2.51976 6.52916,-3.97378 -1.871628,0.76849 -3.566362,1.90463 -5.331399,2.88436 -0.248779,0.25425 -2.275328,1.14999 -1.197761,1.08942 z" />
    <path
       id="path303"
       style="opacity:1;fill:#b3b3b3;fill-opacity:1;stroke:#1a1a1a;stroke-width:0.529167;stroke-linecap:round;stroke-opacity:1"
       d="m 55.907787,262.75043 c 0.760113,1.29279 0.88742,2.82301 1.244344,4.25215 0.04913,0.35664 0.365072,1.74458 0.669044,0.93053 -0.404335,-1.68414 -0.677127,-3.43237 -1.420479,-5.01655 -0.08827,-0.17271 -0.317637,-0.25509 -0.492909,-0.16613 z" />
    <path
       id="path305"
       style="opacity:1;fill:#b3b3b3;fill-opacity:1;stroke:#1a1a1a;stroke-width:0.529167;stroke-linecap:round;stroke-opacity:1"
       d="m 58.007317,268.65298 c 1.62874,-1.24618 3.52885,-2.07972 5.154039,-3.33106 -0.672324,0.12466 -1.575737,0.79704 -2.303451,1.17711 -1.050679,0.63935 -2.114243,1.26307 -3.141273,1.93794 -0.347913,0.3263 0.146194,0.1554 0.290685,0.21601 z" />
    <path
       id="path307"
       style="opacity:1;fill:#b3b3b3;fill-opacity:1;stroke:#1a1a1a;stroke-width:0.529167;stroke-linecap:round;stroke-opacity:1"
       d="m 64.362029,245.52808 c 0.581667,2.62388 0.726189,5.31515 0.934296,7.987 0.441641,0.88163 0.298331,-1.16308 0.213339,-1.55477 -0.226839,-2.16046 -0.437645,-4.33045 -0.827436,-6.46654 -0.09269,-0.0412 -0.26183,0.13892 -0.320199,0.0343 z" />
    <path
       id="path309"
       style="opacity:1;fill:#b3b3b3;fill-opacity:1;stroke:#1a1a1a;stroke-width:0.529167;stroke-linecap:round;stroke-opacity:1"
       d="m 66.033452,253.87835 c 2.057768,-0.74799 4.038468,-1.72103 5.915362,-2.84009 -0.027,-0.26833 -0.996204,0.33362 -1.336154,0.47906 -1.638136,0.83978 -3.28874,1.66722 -5.018308,2.30466 0.146376,0.0187 0.29272,0.0381 0.4391,0.0564 z" />
    <path
       id="path311"
       style="opacity:1;fill:#b3b3b3;fill-opacity:1;stroke:#1a1a1a;stroke-width:0.529167;stroke-linecap:round;stroke-opacity:1"
       d="m 65.614319,267.12565 c 0.571024,1.86032 0.788052,3.80303 1.188868,5.70005 0.505099,0.5161 0.285964,-0.64391 0.196659,-0.9188 -0.238145,-1.30163 -0.488955,-2.60598 -0.791704,-3.8898 -0.05401,-0.33884 -0.08285,-0.99578 -0.593823,-0.89145 z" />
    <path
       id="path313"
       style="opacity:1;fill:#b3b3b3;fill-opacity:1;stroke:#1a1a1a;stroke-width:0.529167;stroke-linecap:round;stroke-opacity:1"
       d="m 67.642072,273.45129 c 1.692167,-0.91436 3.172165,-2.15631 4.661372,-3.36024 -1.274158,0.5417 -2.3049,1.50043 -3.457013,2.24757 -0.519211,0.35979 -1.046913,0.70817 -1.593384,1.02541 0.08341,0.13767 0.269232,0.0245 0.389025,0.0873 z" />
    <path
       id="path315"
       style="opacity:1;fill:#b3b3b3;fill-opacity:1;stroke:#1a1a1a;stroke-width:0.529167;stroke-linecap:round;stroke-opacity:1"
       d="m 46.420567,277.67107 c 0.527778,1.89878 0.84966,3.85085 1.370601,5.74895 0.127552,0.36344 0.593846,0.60981 0.339596,0.0598 -0.310617,-1.91875 -0.899692,-3.77588 -1.331417,-5.66793 -0.05265,-0.14925 -0.243464,-0.19979 -0.37878,-0.14082 z" />
    <path
       id="path317"
       style="opacity:1;fill:#b3b3b3;fill-opacity:1;stroke:#1a1a1a;stroke-width:0.529167;stroke-linecap:round;stroke-opacity:1"
       d="m 48.475499,284.16931 c 2.304875,-1.20842 4.631802,-2.4144 6.705811,-3.99705 0.958273,-0.56358 -0.839904,0.46174 -1.193521,0.66553 -1.923451,1.13239 -3.864067,2.26146 -5.852295,3.26059 0.01924,0.12235 0.251271,0.0443 0.340005,0.0709 z" />
    <path
       id="path323"
       style="opacity:1;fill:#b3b3b3;fill-opacity:1;stroke:#1a1a1a;stroke-width:0.529167;stroke-linecap:round;stroke-opacity:1"
       d="m 26.687156,252.83684 c 0.04268,1.95074 0.03231,3.90453 0.07867,5.85367 0.219358,0.69161 0.204183,-0.72999 0.248776,-0.99465 0.08355,-1.58356 -0.05634,-3.16851 0.0042,-4.75245 -0.03074,-0.15765 -0.220492,-0.12014 -0.331597,-0.10657 z" />
    <path
       id="path325"
       style="opacity:1;fill:#b3b3b3;fill-opacity:1;stroke:#1a1a1a;stroke-width:0.529167;stroke-linecap:round;stroke-opacity:1"
       d="m 27.063963,258.95387 c 2.443329,1.41026 5.084211,2.43085 7.5658,3.76738 -1.224221,-1.13901 -2.919357,-1.49782 -4.342779,-2.31295 -0.992939,-0.46112 -1.957037,-1.03241 -2.936858,-1.48574 -0.09542,0.01 -0.190831,0.0208 -0.286163,0.0313 z" />
    <path
       id="path327"
       style="opacity:1;fill:#b3b3b3;fill-opacity:1;stroke:#1a1a1a;stroke-width:0.529167;stroke-linecap:round;stroke-opacity:1"
       d="m 16.684103,261.35856 c 0.142785,-0.30037 0.117667,-1.03433 0.06557,-0.30582 0.01639,1.52665 -0.339378,3.02929 -0.3559,4.55289 0.213937,0.81249 0.325978,-0.6222 0.379876,-0.89876 0.08848,-1.3475 0.274584,-2.69685 0.191601,-4.04914 -0.283428,-0.49735 -0.487489,0.67561 -0.281143,0.70083 z" />
    <path
       id="path329"
       style="opacity:1;fill:#b3b3b3;fill-opacity:1;stroke:#1a1a1a;stroke-width:0.529167;stroke-linecap:round;stroke-opacity:1"
       d="m 16.538037,265.97107 c 2.501933,0.86662 5.0119,1.77607 7.301251,3.12554 0.200662,-0.4152 -1.189593,-0.79965 -1.646769,-1.09228 -1.738191,-0.80989 -3.545467,-1.4602 -5.367215,-2.05409 l -0.144874,-0.004 -0.142393,0.0244 z" />
    <path
       id="path333"
       style="opacity:1;fill:#b3b3b3;fill-opacity:1;stroke:#1a1a1a;stroke-width:0.529167;stroke-linecap:round;stroke-opacity:1"
       d="m 7.3320265,271.27358 c 2.2359808,1.61856 4.6924415,2.90577 7.2070345,4.03206 -2.066554,-1.4137 -4.484506,-2.24716 -6.4628013,-3.79867 -0.2217759,-0.13925 -0.4769581,-0.2487 -0.7442332,-0.23339 z" />
    <path
       id="path335"
       style="opacity:1;fill:#b3b3b3;fill-opacity:1;stroke:#1a1a1a;stroke-width:0.529167;stroke-linecap:round;stroke-opacity:1"
       d="m 33.809455,243.39108 c 2.420257,-2.12092 5.252405,-3.68127 7.961097,-5.38633 0.07537,-0.24733 -1.300505,0.67319 -1.715744,0.88572 -2.259821,1.37139 -4.511671,2.7787 -6.545725,4.47515 l 0.1502,0.013 0.150172,0.0125 z" />
    <path
       id="path337"
       style="opacity:1;fill:#b3b3b3;fill-opacity:1;stroke:#1a1a1a;stroke-width:0.529167;stroke-linecap:round;stroke-opacity:1"
       d="m 42.051322,237.95811 c 3.415182,1.63442 6.444296,3.93523 9.54773,6.07061 -0.655724,-0.96094 -2.1703,-1.63949 -3.18862,-2.43114 -2.016265,-1.28212 -4.005252,-2.64469 -6.180311,-3.64517 -0.05938,0.002 -0.119927,0.005 -0.178799,0.006 z" />
    <path
       id="path339"
       style="opacity:1;fill:#b3b3b3;fill-opacity:1;stroke:#1a1a1a;stroke-width:0.529167;stroke-linecap:round;stroke-opacity:1"
       d="m 33.801972,229.52523 c 1.708091,-2.34811 4.479612,-3.5143 6.597354,-5.42215 -2.213266,1.4332 -4.47911,2.85047 -6.377544,4.69606 -0.108429,0.17616 -0.888525,0.82972 -0.21981,0.72609 z" />
    <path
       id="path341"
       style="opacity:1;fill:#b3b3b3;fill-opacity:1;stroke:#1a1a1a;stroke-width:0.529167;stroke-linecap:round;stroke-opacity:1"
       d="m 40.213028,224.09265 c 3.10964,0.79098 6.035781,2.25271 8.586844,4.1926 -1.980976,-2.07734 -4.779803,-3.03275 -7.408526,-3.99989 -0.38157,-0.10608 -0.778995,-0.21512 -1.178318,-0.19271 z" />
    <path
       id="path331"
       style="opacity:1;fill:#b3b3b3;fill-opacity:1;stroke:#1a1a1a;stroke-width:0.529167;stroke-linecap:round;stroke-opacity:1"
       d="m 7.5217076,265.21116 c 0.1609958,1.90575 -0.2931789,3.79172 -0.3340855,5.68858 0.4077589,0.61491 0.4558767,-0.69511 0.5262492,-1.00388 0.1038226,-1.54781 0.4156376,-3.11409 0.1373615,-4.66052 -0.096151,-0.09 -0.2202437,0.006 -0.3295252,-0.0242 z" />
    <path
       id="path219"
       style="opacity:1;fill:#f9f9f9;fill-opacity:1;stroke:#f9f9f9;stroke-width:0.529167;stroke-linecap:round;stroke-opacity:1"
       d="m 8.9083093,271.74045 c -0.3502587,-1.3268 0.96844,-3.00983 1.4161837,-3.45172 -0.6754257,0.11228 1.104197,0.4841 1.088653,1.0524 1.109533,1.64119 1.523737,4.02326 3.573367,4.81853 0.532039,0.29916 2.716728,0.14207 1.141289,-0.12712 -1.79409,-0.50953 -2.410277,-2.43784 -3.070469,-3.96632 -0.528153,-1.46524 -2.17956,-2.42601 -3.6802157,-1.81989 -1.2231148,0.47349 -1.7081651,2.00612 -1.6837718,3.20619 0.1894666,0.64598 0.8380632,0.15234 1.2149638,0.28793 z" />
    <path
       id="path261"
       style="opacity:1;fill:#f9f9f9;fill-opacity:1;stroke:#f9f9f9;stroke-width:0.529167;stroke-linecap:round;stroke-opacity:1"
       d="m 34.974081,229.98543 c 0.480078,-1.25543 1.468481,-1.61685 1.943903,-0.1735 1.399155,1.8285 4.268841,2.97649 6.263667,1.41886 2.251058,-1.66604 -0.384077,-3.25084 -1.311597,-4.66538 -0.405364,-1.08251 -0.919029,-3.12807 -1.793475,-1.12544 -0.825268,2.45633 3.210194,2.66868 2.426028,4.81767 -0.841269,2.43822 -3.374627,0.86765 -4.383858,-0.54864 -0.624374,-1.95804 -3.925132,-1.70211 -3.75412,0.21622 l 0.24299,0.061 z" />
    <path
       id="path259"
       style="opacity:1;fill:#f9f9f9;fill-opacity:1;stroke:#f9f9f9;stroke-width:0.529167;stroke-linecap:round;stroke-opacity:1"
       d="m 34.290916,245.26329 c -0.188181,-1.13267 2.306727,-2.0694 1.980486,-2.05799 1.070348,0.31846 1.901497,1.05471 2.734314,1.7752 0.894678,0.80726 1.985174,1.44985 3.212076,1.51134 1.56933,0.42584 2.893589,-1.02456 2.950912,-2.50552 0.192381,-1.76861 -1.87452,-2.16381 -2.451326,-3.46359 -0.09008,-0.80187 0.296398,-2.42336 -1.067413,-1.70256 -1.681663,1.06585 -0.201928,2.86558 1.062514,3.4808 1.243133,0.8407 0.989916,2.64222 -0.0076,3.56523 -0.899415,0.59573 0.761161,0.34832 -0.365813,0.20462 -2.091343,-0.52488 -3.203448,-2.92723 -5.428644,-3.17839 -1.548149,-0.22489 -3.612078,0.69355 -3.862145,2.28489 0.366266,0.26195 0.843198,-0.0457 1.242592,0.086 z" />
    <path
       id="path223"
       style="opacity:1;fill:#f9f9f9;fill-opacity:1;stroke:#f9f9f9;stroke-width:0.529167;stroke-linecap:round;stroke-opacity:1"
       d="m 27.358817,259.17638 c 1.102716,-0.52439 1.460824,-1.80011 1.734325,-2.89018 0.335275,-1.47945 1.255065,-2.86808 2.640299,-3.54671 0.308646,-0.0758 0.581576,-0.19755 0.07182,-0.18934 -0.571777,0.034 0.445435,0.37702 0.280482,0.77131 0.09207,0.84344 -0.118396,1.69427 0.0059,2.54006 0.109178,0.69369 0.206366,1.54085 0.788678,1.99957 0.726234,0.44736 1.629695,0.33388 2.420497,0.15269 0.12961,-0.29883 -0.909468,0.0871 -0.388865,-0.0681 -1.064706,-0.0262 -1.884195,-1.04764 -1.891041,-2.07461 -0.09082,-1.00546 0.20936,-2.02185 -0.0221,-3.01861 -0.406439,-0.65072 -1.297852,-0.48876 -1.919273,-0.31243 -1.374033,0.53625 -2.432185,1.81809 -2.678711,3.27686 -0.27141,1.14924 -0.512702,2.49992 -1.594896,3.17852 -0.210684,0.22264 0.468093,0.0999 0.552842,0.18097 z" />
    <path
       id="path221"
       style="opacity:1;fill:#f9f9f9;fill-opacity:1;stroke:#f9f9f9;stroke-width:0.529167;stroke-linecap:round;stroke-opacity:1"
       d="m 17.604328,266.06388 c 0.627301,-0.85845 0.987056,-1.84407 1.268282,-2.85475 0.142061,-0.91697 1.501029,-1.99391 1.696764,-2.18088 -0.565737,0.31052 0.900738,0.94207 0.643586,1.59798 0.356838,1.45028 1.242587,3.27599 2.965068,3.28908 0.459818,0.10665 2.051318,-0.30037 1.682813,-0.19787 -1.591648,0.39326 -3.13887,-0.853 -3.418653,-2.40172 -0.106994,-1.37952 -1.23794,-3.07993 -2.80263,-2.29409 -1.659214,0.74167 -1.897678,2.70743 -2.458941,4.22039 -0.33604,0.46958 -0.283521,1.02294 0.423711,0.82186 z" />
    <path
       id="path225"
       style="opacity:1;fill:#f9f9f9;fill-opacity:1;stroke:#f9f9f9;stroke-width:0.529167;stroke-linecap:round;stroke-opacity:1"
       d="m 46.940821,255.61756 c 0.325498,1.5708 1.23924,3.18595 2.772487,3.829 0.95255,0.10461 2.124733,0.44848 2.954319,-0.14776 0.60269,-0.20642 -1.077327,0.0423 -0.910604,0.0972 -0.649218,0.14014 -1.425368,-0.22301 -1.984091,-0.60102 -0.987395,-0.72028 -1.573152,-1.8705 -1.833968,-3.04302 -0.225885,-0.33704 -0.680272,-0.0588 -0.998143,-0.13444 z" />
    <path
       id="path235"
       style="opacity:1;fill:#f9f9f9;fill-opacity:1;stroke:#f9f9f9;stroke-width:0.529167;stroke-linecap:round;stroke-opacity:1"
       d="m 46.56552,277.33289 c 0.912001,1.16424 1.90999,2.39516 3.298028,2.99113 1.235035,0.33234 2.528134,0.12056 3.784752,0.11471 0.481974,-0.0556 1.242632,-0.53049 0.286081,-0.30203 -1.364397,0.19595 -2.893275,0.33795 -4.067736,-0.54408 -0.85164,-0.54519 -1.435856,-1.38864 -2.063531,-2.15175 -0.363279,-0.25176 -0.830584,-0.16891 -1.237594,-0.10798 z" />
    <path
       id="path229"
       style="opacity:1;fill:#f9f9f9;fill-opacity:1;stroke:#f9f9f9;stroke-width:0.529167;stroke-linecap:round;stroke-opacity:1"
       d="m 56.564637,262.76729 c 0.571141,1.16362 1.332842,2.51764 2.734777,2.75107 0.950147,0.18697 1.925538,0.0951 2.877775,-0.0253 0.326939,-0.69896 -0.977621,-0.0333 -1.320813,-0.30604 -0.662465,0.0367 -0.04876,0.58045 0.181887,0.14688 -0.696612,0.007 -1.369189,-0.23864 -1.913861,-0.68107 -0.574817,-0.44837 -1.021497,-1.05062 -1.318181,-1.7143 -0.289985,-0.42778 -0.838131,-0.11345 -1.241584,-0.17123 z" />
    <path
       id="path227"
       style="opacity:1;fill:#f9f9f9;fill-opacity:1;stroke:#f9f9f9;stroke-width:0.529167;stroke-linecap:round;stroke-opacity:1"
       d="m 64.93753,246.43977 c 0.06747,1.56101 1.11417,2.82616 1.966828,4.05198 0.70942,0.93695 1.903691,1.27308 3.033617,1.17782 0.385301,-0.004 1.397941,-0.0243 0.500789,-0.10371 -1.326846,-0.1967 -2.513376,-1.03197 -3.144833,-2.21652 -0.49026,-0.79459 -1.091615,-1.57836 -1.161388,-2.54125 -0.103962,-0.66993 -0.773202,-0.30623 -1.195013,-0.36832 z" />
    <path
       id="path231"
       style="opacity:1;fill:#f9f9f9;fill-opacity:1;stroke:#f9f9f9;stroke-width:0.529167;stroke-linecap:round;stroke-opacity:1"
       d="m 66.249943,267.00884 c 0.339847,1.19878 1.003223,2.42337 2.129677,3.03539 0.879609,0.33744 1.838091,0.14544 2.752295,0.258 0.43727,-0.004 0.788373,-0.46437 0.109218,-0.30367 -0.713407,0.10237 -1.619573,-0.16291 -2.189736,-0.72998 -0.635679,-0.61452 -1.042396,-1.41098 -1.460622,-2.16799 -0.389254,-0.2996 -0.904546,-0.0117 -1.340832,-0.0917 z" />
    <path
       id="path217"
       style="opacity:1;fill:#f9f9f9;fill-opacity:1;stroke:#f9f9f9;stroke-width:0.529167;stroke-linecap:round;stroke-opacity:1"
       d="m 89.81832,246.65364 c -0.644893,2.31516 0.631782,4.79108 2.728057,5.84952 2.200084,0.55517 2.53075,3.4534 0.518656,4.49329 -1.415792,1.12813 -4.061761,-0.0923 -4.605403,2.20809 -0.990433,2.17336 1.931812,2.49859 1.996068,0.35005 -0.227918,-2.07447 2.48665,-1.32364 3.677127,-1.96693 1.936463,-0.91392 2.314056,-4.16678 0.02984,-4.89771 -1.563534,-0.94347 -3.462175,-2.17726 -3.544112,-4.1982 -0.210368,-0.55784 0.28386,-2.24706 -0.800235,-1.83811 z" />
    <path
       id="path251"
       style="opacity:1;fill:#f9f9f9;fill-opacity:1;stroke:#f9f9f9;stroke-width:0.529167;stroke-linecap:round;stroke-opacity:1"
       d="m 123.75862,260.41917 c 0.16356,1.88139 -0.29728,3.8616 0.47168,5.65631 0.0303,1.64735 1.85534,3.30069 3.41382,2.174 2.02158,-1.24126 2.25774,-4.01201 4.21822,-5.34174 0.53959,-0.60772 2.8591,-0.90671 1.00049,-0.99269 -2.1788,0.039 -3.61194,1.95977 -4.53527,3.71446 -0.31985,1.02221 -1.89824,2.14258 -2.04467,2.64257 0.26626,-0.67466 -1.18027,-1.76976 -1.0745,-2.83835 -0.33234,-1.48021 -0.0556,-3.01941 -0.33276,-4.49731 -0.10419,-0.52975 -0.66043,-0.74516 -1.11701,-0.51725 z" />
    <path
       id="path253"
       style="opacity:1;fill:#f9f9f9;fill-opacity:1;stroke:#f9f9f9;stroke-width:0.529167;stroke-linecap:round;stroke-opacity:1"
       d="m 138.78956,248.03029 c 0.51241,2.74867 -0.13162,5.60104 0.50451,8.32502 0.77232,1.28458 2.49028,0.48926 3.03813,-0.59225 1.25548,-1.69475 2.33609,-3.84748 4.51712,-4.47568 1.82842,-0.69556 -0.85437,-0.48726 -1.49831,-0.0551 -2.33278,0.92163 -3.29528,3.40486 -4.92863,5.10249 -1.20186,0.59484 1.14579,0.61268 0.0242,0.061 -1.07195,-2.60811 -0.34554,-5.48165 -0.8573,-8.18642 -0.15337,-0.3108 -0.53552,-0.18494 -0.79975,-0.17908 z" />
    <path
       id="path263"
       style="opacity:1;fill:#b3b3b3;fill-opacity:1;stroke:#1a1a1a;stroke-width:0.529167;stroke-linecap:round;stroke-opacity:1"
       d="m 88.513838,244.65807 c 0.0091,3.72748 -0.659359,7.42416 -0.572171,11.15406 -0.07319,1.80642 -0.157837,3.61295 -0.169319,5.42113 0.64301,-1.10947 0.383375,-2.44469 0.377794,-3.66258 -0.04696,-0.81539 0.139735,-1.61531 0.108675,-2.43019 0.08297,-3.37939 0.422228,-6.74604 0.583944,-10.12087 -0.01046,-0.16893 -0.107815,-0.43646 -0.328923,-0.36155 z" />
    <path
       id="path287"
       style="opacity:1;fill:#b3b3b3;fill-opacity:1;stroke:#1a1a1a;stroke-width:0.529167;stroke-linecap:round;stroke-opacity:1"
       d="m 139.47854,247.45487 c 2.94616,-0.30028 5.92508,-0.15152 8.85968,-0.5847 -3.11434,0.23103 -6.24142,0.23576 -9.35346,0.50309 0.15866,0.0597 0.33167,0.0382 0.49378,0.0816 z" />
    <path
       id="path289"
       style="opacity:1;fill:#b3b3b3;fill-opacity:1;stroke:#1a1a1a;stroke-width:0.529167;stroke-linecap:round;stroke-opacity:1"
       d="m 138.44518,247.60672 c -0.2006,2.97368 -0.57369,5.94139 -0.60756,8.92286 0.13839,1.33548 0.44055,-0.81006 0.47565,-1.22459 0.22492,-2.5623 0.34256,-5.13365 0.59622,-7.69426 l -0.23216,-0.002 -0.23215,-0.002 z" />
    <path
       id="path291"
       style="opacity:1;fill:#b3b3b3;fill-opacity:1;stroke:#1a1a1a;stroke-width:0.529167;stroke-linecap:round;stroke-opacity:1"
       d="m 123.38467,259.52488 c 3.43419,0.74318 6.96773,0.89763 10.47101,0.79005 -3.27296,-0.0514 -6.57033,-0.10181 -9.78239,-0.80335 -0.22793,-0.0319 -0.46315,-0.0416 -0.68862,0.0133 z" />
    <path
       id="path293"
       style="opacity:1;fill:#b3b3b3;fill-opacity:1;stroke:#1a1a1a;stroke-width:0.529167;stroke-linecap:round;stroke-opacity:1"
       d="m 122.6177,259.2704 c 0.17011,3.32597 -0.27609,6.65255 -0.14655,9.97449 0.61625,0.14109 0.33708,-1.59356 0.48249,-2.12896 0.12993,-2.52611 0.18776,-5.06527 0.17352,-7.58719 -0.024,-0.25783 -0.30437,-0.32813 -0.50946,-0.25834 z" />
    <path
       id="path295"
       style="opacity:1;fill:#b3b3b3;fill-opacity:1;stroke:#1a1a1a;stroke-width:0.529167;stroke-linecap:round;stroke-opacity:1"
       d="m 109.04969,273.98785 c 3.15093,-0.31146 6.32344,-0.11174 9.48358,-0.23728 1.15629,-0.0162 -0.82683,-0.0439 -1.24221,-0.0482 -2.73298,-0.002 -5.46985,0.0245 -8.19949,0.12344 -0.35081,0.0154 -0.58097,0.15014 -0.0419,0.16209 z" />
    <path
       id="path297"
       style="opacity:1;fill:#b3b3b3;fill-opacity:1;stroke:#1a1a1a;stroke-width:0.529167;stroke-linecap:round;stroke-opacity:1"
       d="m 108.34112,274.00567 c 0.12742,2.87761 -0.144,5.75174 -0.41599,8.61154 -0.13777,0.56769 0.44375,1.86016 0.40089,0.53371 0.26923,-2.84615 0.63274,-5.69723 0.45235,-8.56187 -0.0563,-0.43232 0.20668,-0.7021 -0.43725,-0.58338 z" />
    <path
       id="path257"
       style="opacity:1;fill:#f9f9f9;fill-opacity:1;stroke:#f9f9f9;stroke-width:0.529167;stroke-linecap:round;stroke-opacity:1"
       d="m 109.35996,274.26214 c 1.4558,1.7356 0.48946,4.15544 1.23985,6.1383 0.15246,1.64065 1.8407,3.54489 3.51309,2.36966 1.17404,-1.18035 1.56953,-2.91425 2.66561,-4.17101 0.51228,-0.57645 2.29901,-2.51022 0.44723,-1.61234 -2.02594,1.09827 -2.76377,3.4502 -3.96834,5.27024 -1.1497,0.23308 0.47267,0.99389 -0.47085,0.29237 -1.27289,-1.10335 -1.42171,-2.96486 -1.49395,-4.54778 -0.0781,-1.20461 0.0266,-2.58725 -0.74867,-3.58812 -0.33209,-0.26809 -0.79308,-0.23073 -1.18397,-0.15132 z" />
    <path
       id="path345"
       style="opacity:1;fill:#b3b3b3;fill-opacity:1;stroke:#1a1a1a;stroke-width:0.529167;stroke-linecap:round;stroke-opacity:1"
       d="m 92.408683,227.74952 c 1.422493,1.84522 2.567324,3.90207 4.153862,5.62007 0.686294,0.12253 -0.341951,-0.78875 -0.480147,-1.01393 -1.239064,-1.47578 -2.282506,-3.12702 -3.493459,-4.60802 -0.05505,-0.0234 -0.122017,0.006 -0.180256,0.002 z" />
    <path
       id="path347"
       style="opacity:1;fill:#b3b3b3;fill-opacity:1;stroke:#1a1a1a;stroke-width:0.529167;stroke-linecap:round;stroke-opacity:1"
       d="m 102.32452,238.12273 c 1.85435,1.93227 3.50132,4.05189 5.23172,6.08976 0.97912,0.39097 -0.40933,-1.15551 -0.68806,-1.43552 -1.39035,-1.57314 -2.78268,-3.14579 -4.21597,-4.68069 -0.1092,0.009 -0.21854,0.0178 -0.32769,0.0264 z" />
    <path
       id="path349"
       style="opacity:1;fill:#b3b3b3;fill-opacity:1;stroke:#1a1a1a;stroke-width:0.529167;stroke-linecap:round;stroke-opacity:1"
       d="m 114.1151,230.32258 c 1.32395,1.8246 2.70775,3.60782 4.14124,5.34663 0.70188,0.28806 -0.22555,-0.80095 -0.39714,-1.0281 -1.01556,-1.31573 -2.15237,-2.53824 -3.0758,-3.91951 -0.16683,-0.20367 -0.39447,-0.38506 -0.6683,-0.39902 z" />
    <path
       id="path351"
       style="opacity:1;fill:#b3b3b3;fill-opacity:1;stroke:#1a1a1a;stroke-width:0.529167;stroke-linecap:round;stroke-opacity:1"
       d="m 129.20518,223.39476 c 0.83667,1.97659 1.51459,4.03402 2.57799,5.90507 0.18423,0.38464 0.53176,0.50676 0.26754,-0.0141 -0.55594,-1.55797 -1.36368,-3.01117 -1.93669,-4.56342 -0.30861,-0.39497 -0.2731,-1.46311 -0.90884,-1.32755 z" />
    <path
       id="path353"
       style="opacity:1;fill:#b3b3b3;fill-opacity:1;stroke:#1a1a1a;stroke-width:0.529167;stroke-linecap:round;stroke-opacity:1"
       d="m 135.40167,234.00586 c 0.71506,1.51583 1.20489,3.13475 2.00963,4.60724 0.51646,0.64261 -0.005,-0.73203 -0.12544,-1.02512 -0.39532,-1.19053 -0.90308,-2.34279 -1.43765,-3.47717 -0.1029,-0.14272 -0.29565,-0.12052 -0.44654,-0.10495 z" />
    <path
       id="path359"
       style="opacity:1;fill:#b3b3b3;fill-opacity:1;stroke:#1a1a1a;stroke-width:0.529167;stroke-linecap:round;stroke-opacity:1"
       d="m 102.61651,237.71753 c 2.03288,0.0593 4.06783,0.0551 6.09898,0.16728 -0.35527,-0.24373 -1.06547,-0.0623 -1.55862,-0.14038 -1.61878,-0.0379 -3.23778,-0.067 -4.85694,-0.0827 l 0.15677,0.0338 z" />
    <path
       id="path361"
       style="opacity:1;fill:#b3b3b3;fill-opacity:1;stroke:#1a1a1a;stroke-width:0.529167;stroke-linecap:round;stroke-opacity:1"
       d="m 92.018813,227.36302 c 2.313066,-0.65587 4.747342,-0.58351 7.123113,-0.43699 -0.784981,-0.25195 -1.634333,-0.0854 -2.445182,-0.16406 -1.67372,-0.0136 -3.368173,0.091 -4.982466,0.56302 0.101401,0.0135 0.202988,0.0261 0.304535,0.038 z" />
    <path
       id="path363"
       style="opacity:1;fill:#b3b3b3;fill-opacity:1;stroke:#1a1a1a;stroke-width:0.529167;stroke-linecap:round;stroke-opacity:1"
       d="m 114.32054,230.02857 c 2.15068,-0.0865 4.30206,-0.16914 6.44912,-0.32454 -0.89503,-0.11719 -1.8001,0.0812 -2.69921,0.0804 -1.37086,0.0748 -2.74237,0.138 -4.11435,0.18846 0.12147,0.0186 0.243,0.037 0.36444,0.0557 z" />
    <path
       id="path365"
       style="opacity:1;fill:#b3b3b3;fill-opacity:1;stroke:#1a1a1a;stroke-width:0.529167;stroke-linecap:round;stroke-opacity:1"
       d="m 129.97739,223.32945 c 1.98883,-0.0505 3.97645,-0.15148 5.96615,-0.16474 -1.27231,-0.13299 -2.55016,0.005 -3.82427,0.0274 -0.81632,0.0345 -1.63261,0.0712 -2.44946,0.0906 0.10253,0.0155 0.20507,0.0315 0.30758,0.0467 z" />
    <path
       id="path367"
       style="opacity:1;fill:#b3b3b3;fill-opacity:1;stroke:#1a1a1a;stroke-width:0.529167;stroke-linecap:round;stroke-opacity:1"
       d="m 135.98435,233.93776 c 2.50528,-0.28039 5.0247,-0.41264 7.54386,-0.4829 -1.32451,-0.1618 -2.65453,0.0843 -3.98165,0.0917 -1.29692,0.0751 -2.59329,0.17382 -3.8821,0.33959 0.0702,-0.0902 0.25517,0.16133 0.31989,0.0516 z" />
    <path
       id="path237"
       style="opacity:1;fill:#f9f9f9;fill-opacity:1;stroke:#f9f9f9;stroke-width:0.529167;stroke-linecap:round;stroke-opacity:1"
       d="m 96.525961,227.33627 c 1.058529,-0.29403 2.294515,-0.70468 3.340065,-0.16763 0.967814,0.44635 0.423584,1.63896 -0.27202,2.05516 -0.85435,0.63954 -2.199701,0.83379 -2.574041,1.96257 -0.279042,1.19701 0.868983,2.30565 1.986221,2.31242 -0.1814,-0.88452 -0.990424,-1.92966 -0.20682,-2.77585 0.86942,-0.71774 2.128854,-1.04936 2.659644,-2.15618 0.70534,-1.10441 -0.77765,-1.9309 -1.738414,-1.83515 -1.293971,-0.0629 -2.661745,-0.0606 -3.871665,0.43895 -0.03964,0.22751 0.557346,0.055 0.67703,0.16571 z" />
    <path
       id="path239"
       style="opacity:1;fill:#f9f9f9;fill-opacity:1;stroke:#f9f9f9;stroke-width:0.529167;stroke-linecap:round;stroke-opacity:1"
       d="m 105.21713,238.28735 c 1.26559,-0.18599 2.49979,-0.56955 3.78086,-0.65099 -0.42124,0.194 0.861,0.7134 0.1729,1.16129 -0.37716,1.44848 -2.12831,1.5275 -2.87978,2.55251 -0.55588,1.14837 0.57246,2.09719 1.65986,2.07317 1.32873,0.032 -1.00501,-0.88894 -0.45194,-1.74353 0.46198,-1.13526 2.06103,-1.12156 2.57112,-2.23418 0.71922,-0.71932 0.27316,-2.20178 -0.86936,-1.98967 -1.66155,-0.066 -3.25508,0.48032 -4.88494,0.69774 0.3004,0.0447 0.60103,0.0882 0.90128,0.13366 z" />
    <path
       id="path241"
       style="opacity:1;fill:#f9f9f9;fill-opacity:1;stroke:#f9f9f9;stroke-width:0.529167;stroke-linecap:round;stroke-opacity:1"
       d="m 117.38243,230.40692 c 0.84567,-0.19162 2.1892,-0.77744 2.73828,0.18561 0.11631,0.84065 -0.67852,1.4663 -1.34938,1.81212 -0.60349,0.33269 -1.39095,0.52554 -1.73107,1.17683 -0.16999,0.8974 0.94005,1.3363 1.67175,1.29653 -0.34262,-0.49556 -0.65152,-1.49448 0.16878,-1.87056 1.0045,-0.32214 1.96643,-1.0423 2.25603,-2.09847 -0.0449,-0.92913 -1.19146,-1.03789 -1.9096,-1.00309 -0.67231,0.0554 -1.8631,-0.0181 -2.18669,0.47674 l 0.17031,0.009 z" />
    <path
       id="path243"
       style="opacity:1;fill:#f9f9f9;fill-opacity:1;stroke:#f9f9f9;stroke-width:0.529167;stroke-linecap:round;stroke-opacity:1"
       d="m 133.57991,223.6234 c 0.70312,-0.43923 2.1899,-0.5184 2.28555,0.55984 -0.14794,1.01077 -1.04459,1.74145 -1.89054,2.21309 -0.85879,0.48997 -1.96668,0.90612 -2.32576,1.90625 0.0637,0.94234 1.40151,0.97884 1.29573,-0.0637 0.53911,-1.11887 1.8911,-1.35758 2.79189,-2.09145 0.63465,-0.49493 1.45736,-1.2498 1.16338,-2.1391 -0.427,-0.99493 -1.70518,-0.87587 -2.59928,-0.83575 -0.50517,-0.15984 -1.96087,0.42383 -0.72097,0.45094 z" />
    <path
       id="path245"
       style="opacity:1;fill:#f9f9f9;fill-opacity:1;stroke:#f9f9f9;stroke-width:0.529167;stroke-linecap:round;stroke-opacity:1"
       d="m 139.13994,234.26872 c 0.76145,-0.14241 2.0035,-0.37209 2.32705,0.56199 0.0115,0.88542 -0.79208,1.52558 -1.46328,1.98263 -0.73875,0.50605 -1.68545,0.76159 -2.25672,1.47591 -0.50778,0.83987 0.72516,1.94019 1.46711,1.35546 0.22254,-0.61912 -0.38559,-1.41297 0.51505,-1.78219 1.17088,-0.63829 2.61671,-1.25369 3.06022,-2.63235 0.15697,-1.08473 -1.24221,-1.33774 -2.05956,-1.32751 -0.7967,-0.0265 -1.58813,0.10105 -2.36763,0.25217 0.25926,0.0379 0.51855,0.0756 0.77776,0.11389 z" />
    <path
       id="path371"
       style="opacity:1;fill:#b3b3b3;fill-opacity:1;stroke:#1a1a1a;stroke-width:0.529167;stroke-linecap:round;stroke-opacity:1"
       d="m 89.078061,245.21129 c 2.124571,2.25765 4.139412,4.62981 6.357216,6.79301 -0.527242,-0.80355 -1.671425,-1.87438 -2.445548,-2.75339 -1.251178,-1.33055 -2.514855,-2.6505 -3.711346,-4.03105 0.0013,0.0224 -0.200749,-0.0768 -0.200322,-0.009 z" />
  </g>
</svg>
