<?xml version="1.0" encoding="UTF-8" standalone="no"?>
<svg
   xmlns:dc="http://purl.org/dc/elements/1.1/"
   xmlns:cc="http://creativecommons.org/ns#"
   xmlns:rdf="http://www.w3.org/1999/02/22-rdf-syntax-ns#"
   xmlns:svg="http://www.w3.org/2000/svg"
   xmlns="http://www.w3.org/2000/svg"
   xmlns:sodipodi="http://sodipodi.sourceforge.net/DTD/sodipodi-0.dtd"
   xmlns:inkscape="http://www.inkscape.org/namespaces/inkscape"
   inkscape:version="1.0 (4035a4fb49, 2020-05-01)"
   sodipodi:docname="np-pointer.svg"
   width="600"
   height="300"
   viewBox="0 0 158.75 79.375"
   version="1.1"
   id="svg8">
  <defs
     id="defs22" />
  <sodipodi:namedview
     inkscape:current-layer="svg8"
     inkscape:window-maximized="0"
     inkscape:window-y="19"
     inkscape:window-x="0"
     inkscape:cy="154.97918"
     inkscape:cx="300.52414"
     inkscape:zoom="2.8284271"
     showgrid="false"
     id="namedview20"
     inkscape:window-height="1061"
     inkscape:window-width="1920"
     inkscape:pageshadow="2"
     inkscape:pageopacity="0"
     guidetolerance="10"
     gridtolerance="10"
     objecttolerance="10"
     borderopacity="1"
     bordercolor="#666666"
     pagecolor="#ffffff" />
  <metadata
     id="metadata5">
    <rdf:RDF>
      <cc:Work
         rdf:about="">
        <dc:format>image/svg+xml</dc:format>
        <dc:type
           rdf:resource="http://purl.org/dc/dcmitype/StillImage" />
        <dc:title></dc:title>
      </cc:Work>
    </rdf:RDF>
  </metadata>
  <g
     id="layer1"
     transform="translate(0,-217.62501)">
    <path
       style="fill:#e9ddaf;stroke:#e9ddaf;stroke-width:0.26458332px;stroke-linecap:butt;stroke-linejoin:miter;stroke-opacity:1"
       id="path1463"
       d="m 47.15253,247.48513 c 1.210848,-3.62723 3.151308,-6.94081 4.85096,-10.34865 0.412574,-0.82722 0.593762,-1.79574 1.183211,-2.50793 2.077588,-2.51019 4.074053,-5.12565 6.572835,-7.24098 1.077591,-0.91223 2.151124,-1.99125 3.521875,-2.33823 3.769614,-0.95422 7.550262,-1.99032 11.444697,-2.27433 1.389182,-0.10131 2.78245,-0.0372 4.173291,0.0373 4.264062,0.22833 8.551369,0.52982 12.717085,1.53411 0.350209,0.0844 0.694949,0.17139 1.057084,0.20653 2.466869,0.23936 4.829046,1.34979 6.609519,3.07535 1.872423,1.81467 3.037863,4.29897 3.364593,6.88133 0.18061,1.42748 0.78998,2.80869 1.79122,3.85346 1.20492,1.2573 2.84444,1.9976 4.50523,2.43771 1.73404,0.45952 3.52954,0.75929 5.31868,0.70591 2.04496,-0.061 4.14716,0.43508 5.83599,1.62522 1.30278,0.91809 2.26592,2.2877 2.72367,3.81406 0.16514,0.55065 0.12466,1.15053 0.31826,1.6916 1.18596,3.31456 1.46895,6.99265 0.55291,10.40941 -0.42483,1.58458 -1.28558,2.99619 -2.04693,4.45031 -1.29113,2.46596 -3.30066,4.50564 -5.61412,6.03071 -2.67725,1.76488 -5.65049,3.38874 -8.83676,3.62651 -2.85005,0.21268 -5.69861,-0.30284 -8.549569,-0.089 -1.616978,0.12128 -3.262715,0.51989 -4.602204,1.46538 -0.393378,0.27767 -0.824475,0.54247 -1.101046,0.93713 -2.902477,4.14171 -5.207684,8.74491 -6.463784,13.65699 -0.112096,0.43836 -0.38007,0.87437 -0.310178,1.32141 0.211219,1.35099 0.08288,2.78456 -0.517585,4.0242 -0.381957,0.78854 -1.028604,1.50146 -1.892138,1.75546 -0.866322,0.25482 -1.791762,-0.0118 -2.55778,-0.43872 -0.304428,-0.16967 -0.593354,-0.35566 -0.910541,-0.50632 -2.521591,-1.19772 -4.765836,-2.93231 -7.386899,-3.9291 -1.434058,-0.54537 -3.008369,-0.77242 -4.531932,-0.49845 -0.783484,0.14089 -1.518622,0.4556 -2.243545,0.77706 -1.57376,0.69787 -3.35168,0.93496 -5.051325,0.63329 -2.035387,-0.36126 -3.475423,-2.12351 -5.406276,-2.80836 -1.642151,-0.58245 -3.422031,-0.51981 -5.128846,-0.32865 -2.089846,0.23406 -4.172583,0.6983 -6.287304,0.57604 -1.38519,-0.0801 -2.7604,-0.522 -3.880517,-1.35708 -1.132681,-0.84445 -2.047782,-2.00435 -2.498042,-3.35444 -0.538623,-1.61504 -0.426923,-3.36598 -0.07985,-5.00839 0.405361,-1.91824 1.351737,-3.68065 1.795922,-5.58464 1.109756,-4.75695 3.453573,-9.13585 4.435053,-13.92646 0.100051,-0.48835 0.188236,-0.97795 0.227549,-1.47672 0.230745,-2.92752 1.127853,-5.74504 2.060082,-8.51333 0.2308,-0.68537 0.562142,-1.34426 0.702997,-2.05295 0.06215,-0.3127 0.104335,-0.62643 0.134459,-0.94376 z"
       transform="translate(0.94494005,-1.889881)" />
    <path
       style="fill:#714d37;fill-opacity:1;stroke:#714d37;stroke-width:0.26458332px;stroke-linecap:butt;stroke-linejoin:miter;stroke-opacity:1"
       id="path1500"
       d="m 109.99107,264.11608 c 0.42417,0.0688 0.8415,0.17299 1.25993,0.2695 0.8106,0.18696 1.62365,0.38056 2.45314,0.45921 0.41576,0.0394 0.83981,0.0626 1.25208,-0.0165 0.19968,-0.0383 0.37949,-0.13626 0.56636,-0.22085 0.52171,-0.23616 0.97909,-0.60178 1.34607,-1.03994 0.48152,-0.57492 0.81707,-1.25202 1.13574,-1.9259 0.36145,-0.76435 0.70605,-1.54579 1.20881,-2.23096 0.29414,-0.40086 0.74725,-0.65451 1.0558,-1.04562 0.15945,-0.20212 0.34083,-0.39795 0.57348,-0.51614 0.1487,-0.0755 0.32924,-0.099 0.48683,-0.0353 0.19367,0.0782 0.33235,0.24908 0.42976,0.42767 0.16549,0.3034 0.25099,0.64541 0.28433,0.98745 0.0286,0.29327 -0.0369,0.58478 -0.0473,0.88037 -0.0445,1.26531 0.0644,2.53475 -0.0626,3.79717 -0.0451,0.44774 -0.19926,0.87873 -0.24087,1.32709 -0.0532,0.57369 -0.25076,1.12679 -0.53241,1.62717 -0.388,0.68931 -0.91349,1.28565 -1.42041,1.88803 -0.41639,0.4948 -0.81295,1.0085 -1.14312,1.56689 -0.28361,0.47965 -0.69241,0.87858 -1.16169,1.17644 -0.59143,0.3754 -1.2633,0.60211 -1.94091,0.76424 -0.44223,0.10581 -0.9089,0.10994 -1.33915,0.25651 -0.35679,0.12155 -0.74224,0.13331 -1.11322,0.081 -0.69982,-0.0987 -1.35843,-0.39137 -2.06367,-0.46075 -0.18194,-0.0179 -0.36542,0.0161 -0.54768,4e-5 -0.40019,-0.0353 -0.79311,-0.14948 -1.15206,-0.32854 -0.31293,-0.1561 -0.60965,-0.36388 -0.81793,-0.64912 -0.15118,-0.20704 -0.23532,-0.46469 -0.21894,-0.72265 0.013,-0.20507 0.10315,-0.39334 0.18911,-0.57803 0.29575,-0.63542 0.74063,-1.18295 1.10376,-1.77871 0.24651,-0.40443 0.4537,-0.84273 0.52888,-1.31431 0.0351,-0.22037 0.0306,-0.44449 0.0151,-0.66699 -0.0348,-0.50039 0.077,-0.99952 0.031,-1.49956 -0.0151,-0.16419 -0.0494,-0.32837 -0.1182,-0.47888 z"
       transform="translate(0.60476105,-1.190625)" />
    <path
       style="fill:#ae8163;fill-opacity:1;stroke:#ae8163;stroke-width:0.26458332px;stroke-linecap:butt;stroke-linejoin:miter;stroke-opacity:1"
       id="path1470"
       d="m 49.420385,238.13022 c 1.227125,-2.29584 2.923249,-4.30205 4.74871,-6.14285 1.626179,-1.63984 3.324693,-3.20562 5.041093,-4.74951 1.503595,-1.35247 3.418205,-2.21477 5.409576,-2.53627 0.449433,-0.0726 0.908389,-0.0662 1.358015,-0.13746 2.636319,-0.41809 5.314348,-0.31969 7.972725,-0.28568 1.742907,0.0223 3.482399,-0.091 5.224757,-0.189 1.438111,-0.0809 2.900205,-0.11481 4.314291,0.20472 0.966174,0.21832 1.833435,0.71784 2.664439,1.265 1.756258,1.15638 3.575466,2.25014 5.115579,3.69534 0.627522,0.58885 1.27926,1.1895 1.693175,1.94521 1.341295,2.44888 3.83338,4.46712 4.219434,7.23307 0.20685,1.48201 -0.01011,2.99502 -0.459404,4.41378 -0.653998,2.06517 -1.670988,3.98783 -2.714213,5.87487 -0.128789,0.23296 -0.228158,0.47548 -0.441374,0.65767 -0.602769,0.51507 -1.381936,0.77397 -2.161033,0.86418 -1.479853,0.17135 -2.97532,-0.13723 -4.451559,0.0965 -0.741494,0.11742 -1.485399,0.40523 -2.00974,0.95058 -0.229273,0.23846 -0.411091,0.52068 -0.569709,0.81 -0.470538,0.85825 -0.614636,1.85174 -0.617891,2.81948 -0.0053,1.57973 0.338293,3.15584 0.155172,4.73391 -0.03835,0.33047 -0.09758,0.659 -0.204577,0.97575 -0.41528,1.22933 -0.981261,2.43234 -1.843346,3.41498 -0.570928,0.65077 -1.294719,1.1576 -2.090264,1.50326 -3.043992,1.32261 -6.328438,2.14324 -9.654111,2.22389 -2.751928,0.0667 -5.536792,-0.41553 -8.048595,-1.56359 -1.998535,-0.91346 -3.916007,-2.04419 -5.558911,-3.51418 -0.591671,-0.5294 -1.117661,-1.12549 -1.645936,-1.71798 -1.530175,-1.71618 -3.034439,-3.48494 -4.154004,-5.50452 -0.832505,-1.50175 -1.387962,-3.16008 -1.579951,-4.87314 -0.317007,-2.82857 -0.620789,-5.68077 -0.405467,-8.52898 0.100655,-1.33143 0.318716,-2.65636 0.693119,-3.93907 z"
       transform="translate(0.56696405,-1.7008928)" />
    <path
       style="fill:#714d37;fill-opacity:1;stroke:#714d37;stroke-width:0.26458332px;stroke-linecap:butt;stroke-linejoin:miter;stroke-opacity:1"
       id="path1477"
       d="m 37.986607,259.95834 c -1.084765,-0.68109 -1.846756,-1.80529 -2.197069,-3.02779 -0.388705,-1.35648 -0.284675,-2.87351 0.395781,-4.12153 0.173176,-0.31762 0.434785,-0.57663 0.624457,-0.88473 1.937668,-3.14756 3.793181,-6.36104 6.075873,-9.27824 0.580297,-0.7416 1.20948,-1.44264 1.831931,-2.149 1.39792,-1.58637 2.724281,-3.2321 3.977692,-4.94216 0.778614,-1.06228 1.751647,-2.00666 2.923316,-2.62485 0.810368,-0.42756 1.732731,-0.52663 2.641845,-0.66279 2.105738,-0.31537 4.120911,-1.04923 6.069311,-1.88676 0.778444,-0.33462 2.622784,-1.83035 2.319695,-1.03915 -1.064645,2.77922 -2.407542,5.64172 -2.272477,8.62052 0.0844,1.86139 0.609101,3.6711 1.277179,5.40023 0.773014,2.00073 1.487771,4.03537 2.502103,5.92547 1.044409,1.94615 2.516035,3.63344 3.474142,5.62971 0.49873,1.03913 0.734682,2.17947 0.841814,3.33287 0.232613,2.50434 0.739977,4.98775 0.727991,7.51135 -0.0075,1.5692 -0.280962,3.14238 -0.876147,4.60306 -0.104435,0.2563 -0.189561,0.52042 -0.295518,0.7766 -0.462976,1.11937 -1.103789,2.18587 -1.994371,3.01799 -0.682511,0.63771 -1.542821,1.08994 -2.469713,1.24846 -0.698925,0.11953 -1.417806,0.001 -2.08207,-0.22695 -1.423264,-0.48856 -2.70511,-1.26744 -4.049576,-1.94096 -2.242522,-1.1234 -4.678597,-1.82314 -6.862811,-3.06898 -0.77897,-0.44431 -1.497573,-0.98563 -2.177333,-1.57148 -1.534161,-1.32221 -3.297311,-2.33309 -5.053327,-3.34748 -1.279397,-0.73906 -2.347278,-1.78408 -3.319764,-2.88457 -0.690608,-0.78151 -1.226487,-1.71086 -2.014755,-2.39309 -0.0061,-0.005 -0.01213,-0.0105 -0.0182,-0.0157 z"
       transform="translate(2.740327,-2.9293155)" />
    <path
       style="fill:#decd87;stroke:#decd87;stroke-width:0.26458332px;stroke-linecap:butt;stroke-linejoin:miter;stroke-opacity:1"
       id="path1520"
       d="m 81.926339,269.97471 c 0.670276,0.0612 1.314378,0.28513 1.919862,0.57122 0.934881,0.44173 2.087752,0.64726 2.73785,1.45217 0.115311,0.14277 0.209886,0.32058 0.194225,0.5097 -0.01548,0.1869 -0.134304,0.34601 -0.267677,0.46912 -0.229943,0.21224 -0.504747,0.36676 -0.774115,0.52246 -0.318366,0.18402 -0.649332,0.35388 -0.931416,0.59224 -0.108937,0.0921 -0.166097,0.23714 -0.283877,0.319 -1.048869,0.72895 -2.049405,1.54198 -2.891712,2.50649 -0.690878,0.79111 -1.247454,1.70014 -1.622867,2.68467 -0.05522,0.14481 -0.08123,0.301 -0.146233,0.44113 -0.130366,0.28104 -0.249894,0.56768 -0.347875,0.8615 -0.03913,0.11733 -0.0557,0.24195 -0.102199,0.35704 -0.01271,0.0315 0.0071,0.0706 0.03979,0.0357 0.0741,-0.079 0.127557,-0.17467 0.183993,-0.26641 0.116447,-0.1893 0.213723,-0.38936 0.331215,-0.57815 0.417161,-0.6703 0.980517,-1.23378 1.570172,-1.75268 0.778292,-0.6849 1.599866,-1.32298 2.315038,-2.0784 0.378501,-0.3998 0.853967,-0.68947 1.336678,-0.94596 0.585046,-0.31086 1.196999,-0.58336 1.724681,-0.98998 0.09974,-0.0769 0.223831,-0.35329 0.287623,-0.2447 0.219105,0.37296 0.308331,0.8066 0.339754,1.2335 0.04748,0.64512 -0.01645,1.29127 -0.07678,1.93327 -0.0387,0.41183 -0.01648,0.83055 -0.09116,1.23766 -0.35585,1.93989 -0.340437,3.92533 -0.680511,5.8674 -0.01239,0.0708 -0.05957,0.2807 -0.0386,0.212 0.535216,-1.75368 1.34145,-3.41449 2.28578,-4.98244 0.418975,-0.69566 0.857354,-1.38034 1.331662,-2.0394 0.527489,-0.73295 1.196671,-1.35098 1.905356,-1.9054 0.48947,-0.38292 2.127538,-1.14989 1.508783,-1.09419 -0.944827,0.085 -1.917987,-0.0626 -2.776238,-0.47422 -0.523041,-0.25088 -0.930176,-0.67449 -1.380589,-1.04105 -0.949602,-0.77282 -1.866655,-1.5965 -2.909873,-2.24256 -0.08783,-0.0544 -0.169477,-0.12176 -0.264634,-0.16168 -1.009295,-0.42345 -2.037519,-0.80776 -3.094982,-1.09312 -0.264258,-0.0713 -0.557471,-0.0618 -0.798295,-0.1919 -0.07542,-0.0408 -0.164384,-0.0109 -0.231824,0.0334 -0.108174,0.0711 -0.188223,0.17815 -0.301004,0.24259 z"
       transform="translate(2.919866,-3.3545387)" />
    <path
       style="fill:#ae8163;fill-opacity:1;stroke:#ae8163;stroke-width:0.26458332px;stroke-linecap:butt;stroke-linejoin:miter;stroke-opacity:1"
       id="path1484"
       d="m 106.87277,262.41519 c 1.96235,0.1512 3.92977,0.35879 5.89989,0.25803 0.31597,-0.0162 0.64046,0.008 0.94671,-0.0706 0.54421,-0.14012 1.09324,-0.29049 1.65691,-0.31181 0.23956,-0.009 0.49036,-0.005 0.71293,0.0961 0.13321,0.0603 0.23751,0.18456 0.25927,0.33132 0.0329,0.22192 -0.046,0.44333 -0.14229,0.63892 -0.12154,0.24682 -0.25581,0.48835 -0.42229,0.70843 -0.55563,0.73452 -1.35015,1.24622 -1.89699,1.98853 -0.223,0.30271 -0.21878,0.74459 -0.48487,1.01138 -1.132,1.135 -2.40287,2.20005 -3.17923,3.60736 -0.0606,0.10994 -0.16046,0.18495 -0.25306,0.26631 -0.77537,0.68126 -1.5701,1.35795 -2.48529,1.8461 -0.49534,0.26421 -1.09645,0.28335 -1.57816,0.57352 -0.58461,0.35216 -1.25666,0.53022 -1.92981,0.61276 -0.86552,0.10613 -1.74003,0.0576 -2.60837,0.11599 -1.902923,0.12799 -3.819238,0.53432 -5.714403,0.30111 -0.898959,-0.11062 -1.808677,-0.0296 -2.708496,-0.13084 -0.558751,-0.0629 -1.123858,-0.20627 -1.59394,-0.52703 -0.244681,-0.16696 -0.501568,-0.35421 -0.627103,-0.62227 -0.938985,-2.00507 -2.847613,-3.73784 -2.944033,-5.95243 -0.03625,-0.83262 -0.199596,-1.66125 -0.137814,-2.49679 0.03496,-0.47281 0.163763,-0.95163 0.451269,-1.33659 0.199244,-0.26678 0.537087,-0.38507 0.762926,-0.62791 1.00635,-1.08212 2.286361,-1.89594 3.682643,-2.39128 0.135981,-0.0482 0.276241,-0.0819 0.409755,-0.13793 1.167531,-0.49006 2.438088,-0.68514 3.589522,-1.21778 0.315529,-0.14596 0.657578,-0.27397 0.901223,-0.52231 0.456826,-0.46562 1.085348,-0.7467 1.729548,-0.82203 0.526797,-0.0616 1.084773,0.0249 1.536393,0.31586 0.34077,0.21954 0.53904,0.58524 0.72606,0.94294 0.38334,0.73317 0.80723,1.45801 1.38352,2.05835 0.42741,0.44525 0.95746,0.8016 1.55431,0.97617 0.16989,0.0497 0.34844,0.0601 0.52006,0.10156 0.65694,0.1587 1.3334,0.22714 1.98321,0.41683 z"
       transform="translate(1.984375,-1.5119048)" />
    <path
       style="fill:#4c4b52;fill-opacity:1;stroke:#4c4b52;stroke-width:0.26458332px;stroke-linecap:butt;stroke-linejoin:miter;stroke-opacity:1"
       id="path1494"
       d="m 112.06994,247.67412 c 0.50018,-1.20114 1.43081,-2.22804 2.60482,-2.79943 0.43579,-0.2121 0.92718,-0.26644 1.38229,-0.43339 1.16269,-0.42651 2.40751,-0.58396 3.64124,-0.59017 0.92903,-0.005 1.88264,-0.0694 2.77921,0.17135 1.26512,0.33974 2.33553,1.28954 2.87089,2.47929 0.17407,0.38684 0.3418,0.79719 0.33921,1.22161 -0.008,1.28675 -0.27191,2.55241 -0.53455,3.80648 -0.11346,0.54175 -0.004,1.17514 -0.32005,1.62938 -0.38757,0.55638 -0.61388,1.21215 -0.71224,1.88021 -0.14773,1.00334 -0.0497,2.01874 -0.0463,3.02747 7.3e-4,0.21221 -7.9e-4,0.42399 0.006,0.6363 0.0841,2.57683 -0.447,5.15629 -1.44807,7.53215 -0.0574,0.1363 -0.0918,0.28123 -0.13562,0.42249 -0.39716,1.28004 -0.8852,2.54786 -1.62529,3.67145 -0.2112,0.32064 -0.43196,0.6375 -0.69103,0.92134 -1.00017,1.09581 -2.33305,1.86153 -3.7557,2.26266 -0.8349,0.23541 -1.73432,0.56104 -2.57158,0.33406 -0.23578,-0.0639 -0.48435,-0.15038 -0.64956,-0.34063 -0.11617,-0.13377 -0.13406,-0.32714 -0.0816,-0.49196 0.0901,-0.28318 0.28448,-0.51891 0.48803,-0.72851 0.45481,-0.46831 0.98068,-0.86093 1.51938,-1.22628 0.22247,-0.15088 0.43934,-0.31149 0.67188,-0.44623 1.17327,-0.67984 2.1867,-1.61001 3.05062,-2.64945 0.34116,-0.41047 0.70042,-0.81504 0.95576,-1.2837 0.4995,-0.9168 0.74293,-1.95692 0.78925,-2.99587 0.0379,-0.8496 -0.0815,-1.69546 -0.2116,-2.5347 -0.0104,-0.0673 -0.0669,0.0475 -0.0797,0.0712 -0.18444,0.33963 -0.34423,0.69194 -0.51783,1.03712 -0.22147,0.44036 -0.46096,0.87137 -0.71427,1.29518 -0.0382,0.064 -0.1016,0.11436 -0.12741,0.18349 -0.3351,0.89759 -0.88688,1.69524 -1.49938,2.42499 -0.65318,0.77822 -1.33335,1.53242 -2.02306,2.27858 -1.05381,1.14005 -2.17412,2.23519 -3.46547,3.10601 -0.20172,0.13603 -0.43395,0.22961 -0.61674,0.39018 -0.74109,0.65101 -1.63084,1.1155 -2.5634,1.42692 -1.04602,0.34931 -2.13199,0.59294 -3.22855,0.67651 -0.34102,0.026 -0.68832,0.0487 -1.02543,-0.0127 -0.10339,-0.0188 -0.22553,-0.0215 -0.30207,-0.0985 -0.0662,-0.0667 0.0263,-0.14265 0.0813,-0.17718 0.17555,-0.11024 0.40536,-0.11858 0.56875,-0.24415 1.16463,-0.89509 2.36973,-1.75328 3.39013,-2.81728 0.30751,-0.32065 0.536,-0.7131 0.86022,-1.01698 0.7001,-0.65618 1.51678,-1.16703 2.32151,-1.68244 0.75138,-0.48124 1.48637,-1.00122 2.10599,-1.6497 0.17155,-0.17954 0.31598,-0.38215 0.47152,-0.57529 0.9766,-1.21273 1.99153,-2.40527 2.79896,-3.74069 0.3712,-0.61393 0.72051,-1.25549 0.89619,-1.95514 0.0541,-0.2155 0.094,-0.43515 0.1131,-0.65633 0.0599,-0.69385 -0.0983,-1.39125 -0.36132,-2.02997 -0.39339,-0.95546 -1.01405,-1.82219 -1.81233,-2.47991 -0.37945,-0.31264 -0.77014,-0.69056 -1.25716,-0.7625 -0.42955,-0.0635 -0.84497,-0.25502 -1.14792,-0.57106 -0.3657,-0.38151 -0.5586,-0.89042 -0.68513,-1.39474 -0.2101,-0.83741 -0.22578,-1.71173 -0.44335,-2.54648 -0.0271,-0.10386 -0.0495,-0.20773 -0.0638,-0.31452 -0.0633,-0.47455 -0.14465,-0.96155 -0.044,-1.43672 0.0146,-0.0688 0.0325,-0.13751 0.0552,-0.20379 z"
       transform="translate(2.078868,-2.7403274)" />
    <path
       style="fill:#1a1a1c;fill-opacity:1;stroke:#1a1a1c;stroke-width:0.26458332px;stroke-linecap:butt;stroke-linejoin:miter;stroke-opacity:1"
       id="path1507"
       d="m 117.26711,251.45388 c 0.23675,-0.0211 0.47391,0.008 0.71083,0.009 0.15446,5.5e-4 0.31098,-0.0122 0.45813,-0.0648 0.0491,-0.0175 0.091,-0.0487 0.1378,-0.0709 0.14099,-0.0667 0.2869,-0.13011 0.40631,-0.23281 0.079,-0.0679 0.11072,-0.17105 0.16848,-0.25824 0.12418,-0.18745 0.2972,-0.33508 0.43,-0.51576 0.0813,-0.11056 0.13962,-0.24011 0.15379,-0.37772 0.004,-0.0415 -0.0203,-0.0899 0.002,-0.12488 0.0681,-0.10514 0.0853,-0.23301 0.0904,-0.35569 0.009,-0.20823 -0.0217,-0.41705 6e-4,-0.62477 0.0102,-0.0954 0.07,-0.17666 0.0902,-0.27199 0.0282,-0.1331 0.11304,-0.24518 0.20562,-0.34116 0.16393,-0.16995 0.37362,-0.30169 0.49631,-0.50579 0.0206,-0.0343 0.0467,-0.0643 0.0757,-0.0919 0.13171,-0.1252 0.30644,-0.19691 0.48359,-0.22775 0.23892,-0.0416 0.4911,-0.0221 0.71567,0.0696 0.0779,0.0318 0.15678,0.0663 0.21982,0.12375 0.10056,0.0916 0.15358,0.22247 0.18439,0.35214 0.0426,0.17945 0.0691,0.36313 0.0734,0.54702 0.006,0.23507 0.0191,0.47154 -0.0114,0.70543 -0.02,0.15345 -0.0378,0.33118 -0.1555,0.43545 -0.0422,0.0374 -0.0364,0.0978 -0.0401,0.14928 -0.0101,0.14281 0.001,0.29163 0.0629,0.42289 0.043,0.0917 0.1209,0.16787 0.21781,0.20102 0.0886,0.0303 0.18514,-0.0101 0.27575,0.009 0.16397,0.0344 0.3366,-0.009 0.47754,-0.0957 0.13783,-0.0846 0.24818,-0.21068 0.32126,-0.35614 0.0219,-0.0435 0.028,-0.0915 0.051,-0.13488 0.13743,-0.25921 0.25836,-0.53012 0.43793,-0.76405 0.0419,-0.0546 0.12523,-0.087 0.13634,-0.15497 0.009,-0.0574 0.0201,-0.1188 0.0587,-0.16477 0.0262,-0.0312 0.0683,-0.0362 0.10543,-0.0446 0.042,-0.009 0.0626,-0.051 0.0766,-0.0891 0.0125,-0.0342 -0.008,-0.0898 0.0205,-0.10716 0.11432,-0.0703 0.19279,-0.18319 0.26186,-0.29554 0.0518,-0.0842 0.0602,-0.25065 0.15945,-0.25012 0.0613,3.3e-4 0.11646,-0.0327 0.16615,-0.0651 0.092,-0.06 0.17142,-0.13784 0.26606,-0.19383 0.034,-0.0201 0.0915,-0.0479 0.11726,-0.005 0.0248,0.0413 0.0216,0.0921 0.021,0.13846 -4.2e-4,0.0326 -0.006,0.0609 0.0136,0.0926 0.0824,0.13656 0.10716,0.30105 0.0939,0.45822 -0.017,0.20246 -0.0855,0.39846 -0.18381,0.57525 -0.0493,0.0886 -0.13697,0.15437 -0.17393,0.24891 -0.0255,0.0653 -0.0637,0.13048 -0.12744,0.16457 -0.0509,0.0272 -0.10583,0.0475 -0.15107,0.0849 -0.0412,0.034 -0.0688,0.0806 -0.10179,0.12212 -0.106,0.13341 -0.26099,0.22015 -0.35637,0.36301 -0.0449,0.0672 -0.0796,0.14626 -0.0774,0.22728 0.003,0.11075 0.0633,0.20973 0.13187,0.293 0.10309,0.12525 0.23544,0.22324 0.33583,0.35066 0.0375,0.0476 0.0813,0.10069 0.0802,0.16242 -0.002,0.11404 0.0516,0.2187 0.10465,0.31644 0.0512,0.0944 0.1118,0.1874 0.1315,0.29484 0.0133,0.0728 -0.007,0.14872 -0.0494,0.20913 -0.0158,0.0225 -0.0328,0.0804 -0.0536,0.0625 -0.0345,-0.0295 -0.0785,0.0108 -0.10727,0.0309 -0.0735,0.0511 -0.14308,0.11088 -0.22817,0.14243 -0.0452,0.0168 -0.0969,0.009 -0.13569,-0.0239 -0.0355,-0.0298 -0.0413,-0.0772 -0.0741,-0.10945 -0.091,-0.0893 -0.13704,-0.21273 -0.16396,-0.33495 -0.0427,-0.19392 -0.0645,-0.39103 -0.1206,-0.58356 -0.012,-0.0411 -0.0483,-0.0667 -0.0773,-0.0958 -0.14654,-0.14656 -0.30428,-0.2869 -0.49082,-0.3807 -0.14255,-0.0717 -0.30342,-0.10776 -0.46305,-0.0983 -0.096,0.006 -0.19306,0.0201 -0.28248,0.0556 -0.11282,0.0448 -0.20377,0.12867 -0.29119,0.21059 -0.0407,0.0381 -0.0689,0.097 -0.12206,0.11445 -0.0504,0.0165 -0.0943,0.0486 -0.13246,0.0853 -0.11481,0.11003 -0.19589,0.25638 -0.32895,0.34499 -0.0404,0.0269 -0.0634,0.0711 -0.0977,0.10546 -0.11693,0.11701 -0.27118,0.18402 -0.4203,0.24975 -0.11854,0.0522 -0.22883,0.11966 -0.34093,0.18709 -0.10209,0.0614 -0.22395,0.0779 -0.34091,0.0807 -0.20791,0.005 -0.4143,-0.027 -0.61885,-0.0605 -0.077,-0.0126 -0.1537,-0.0474 -0.23115,-0.0376 -0.19626,0.0248 -0.39535,0.0165 -0.59087,-0.0112 -0.22486,-0.0318 -0.44781,-0.0811 -0.67545,-0.0901 -0.0722,-0.003 -0.14458,0.007 -0.21672,0.003 -0.15086,-0.01 -0.30188,0.003 -0.45274,0.006 -0.14661,0.003 -0.29537,0.007 -0.43921,-0.0252 -0.085,-0.0191 -0.17462,-0.0532 -0.22636,-0.12725 -0.0114,-0.0163 -0.0468,-0.0494 -0.0272,-0.053 0.12643,-0.0236 0.25355,0.0112 0.37413,0.0471 0.078,0.0232 0.15614,0.0476 0.23702,0.0586"
       transform="translate(2.267857,-2.778125)" />
    <path
       style="fill:#ae8163;fill-opacity:1;stroke:#ae8163;stroke-width:0.26458332px;stroke-linecap:butt;stroke-linejoin:miter;stroke-opacity:1"
       id="path1513"
       d="m 94.021575,225.94049 c 0.623029,0.10129 1.210057,0.35429 1.759034,0.65899 0.846984,0.47011 1.628245,1.0549 2.509512,1.46442 0.129202,0.06 0.265867,0.10313 0.39432,0.16436 0.398377,0.18989 0.739847,0.48907 0.996027,0.84742 0.330762,0.46267 0.529852,1.00296 0.690602,1.54422 0.17728,0.59693 0.51355,1.17654 0.50055,1.7995 -0.0168,0.80437 0.14686,1.60369 0.41105,2.3608 0.24106,0.69082 0.52268,1.37336 0.90817,1.99412 0.22034,0.35482 0.41256,0.7262 0.63108,1.08214 0.21551,0.35104 0.44242,0.70188 0.74067,0.98877 0.18015,0.17329 0.39405,0.3278 0.64436,0.37671 0.2055,0.0402 0.41889,-0.0198 0.59337,-0.13097 0.10115,-0.0645 0.22708,-0.12062 0.27494,-0.23039 0.32472,-0.74476 0.67193,-1.48616 0.87273,-2.27648 0.11491,-0.45228 0.18831,-0.92155 0.1517,-1.38814 -0.047,-0.59872 -0.24433,-1.17953 -0.53967,-1.70066 -0.3814,-0.67299 -0.9064,-1.24989 -1.45196,-1.79274 -0.45215,-0.4499 -1.10264,-0.75613 -1.3708,-1.33498 -0.36007,-0.77724 -0.89418,-1.47045 -1.5431,-2.0288 -0.41234,-0.35479 -0.84568,-0.70974 -1.353414,-0.90421 -0.742227,-0.28429 -1.415615,-0.7136 -2.083958,-1.13731 -0.63579,-0.40307 -1.277997,-0.8104 -1.986208,-1.07465 -0.554974,-0.20707 -1.14674,-0.28013 -1.731406,-0.35023 -0.495265,-0.0594 -0.982507,-0.16513 -1.473744,-0.25955 -0.156138,-0.03 -0.31624,-0.0389 -0.471464,-0.0754 -0.03169,-0.007 -0.08774,0.0108 -0.0449,0.046 0.07947,0.0653 0.172923,0.11076 0.263594,0.158 0.438413,0.2284 0.895356,0.42872 1.299432,0.7156 0.133625,0.0949 0.274908,0.19168 0.363209,0.33236 0.0282,0.0449 0.05031,0.097 0.04628,0.1511 z"
       transform="translate(0.85044605,-1.984375)" />
    <path
       style="fill:#b3b3b3;stroke:#b3b3b3;stroke-width:0.26458332px;stroke-linecap:butt;stroke-linejoin:miter;stroke-opacity:1"
       id="path1527"
       d="m 80.792409,239.07516 c 0.272316,-0.083 0.513731,-0.23907 0.748451,-0.3959 0.249246,-0.16654 0.502522,-0.33306 0.785721,-0.43761 0.05637,-0.0208 0.117039,-0.0294 0.172207,-0.0528 0.393409,-0.1667 0.781228,-0.34831 1.151062,-0.56298 0.09949,-0.0577 0.21381,-0.0977 0.294852,-0.17931 0.254895,-0.2568 0.55414,-0.46304 0.854616,-0.66234 0.120283,-0.0798 0.244869,-0.15368 0.359658,-0.24118 0.147793,-0.11266 0.304408,-0.2131 0.461159,-0.31266 0.295498,-0.18769 0.558663,-0.45536 0.896582,-0.54677 0.258748,-0.07 0.53125,-0.0581 0.794357,-0.0215 0.322784,0.0448 0.66172,0.0435 0.962074,0.17043 0.03463,0.0146 0.06503,0.0412 0.09516,0.0644 0.121542,0.0936 0.219501,0.21468 0.296417,0.34685 0.08777,0.15083 0.166232,0.30745 0.267612,0.45015 0.05515,0.0776 0.124027,0.14428 0.182341,0.2194 0.238081,0.30669 0.42895,0.64745 0.672954,0.94956 0.101829,0.12608 0.224995,0.23193 0.350554,0.33646 0.280111,0.23319 0.594124,0.42172 0.917205,0.58883 0.119401,0.0618 0.323737,0.0502 0.361191,0.17933 0.02065,0.0712 0.07644,0.12474 0.131218,0.1713 0.149398,0.12698 0.343269,0.19421 0.486186,0.32727 0.02013,0.0187 0.08799,0.0524 0.05915,0.0652 -0.03846,0.0171 -0.08358,0.006 -0.123791,-3.4e-4 -0.100822,-0.0165 -0.201227,-0.0355 -0.302532,-0.0491 -0.369283,-0.0498 -0.746837,-0.0644 -1.115566,-0.003 -0.150603,0.0251 -0.291904,0.0882 -0.441429,0.11973 -0.203927,0.043 -0.383911,0.15406 -0.560063,0.26029 -0.180311,0.10874 -0.382108,0.17468 -0.567187,0.27796 -0.195128,0.10889 -0.41053,0.17363 -0.624594,0.23369 -0.201321,0.0565 -0.410797,0.0897 -0.603583,0.17089 -0.314316,0.13239 -0.65107,0.2101 -0.990767,0.23584 -0.330681,0.0251 -0.667148,-0.004 -0.985063,-0.1044 -0.560845,-0.17635 -1.121328,-0.3545 -1.673175,-0.55732 -0.422162,-0.15516 -0.802662,-0.39908 -1.202326,-0.60146 -0.184957,-0.0937 -0.388641,-0.14484 -0.574146,-0.23821 -0.213393,-0.10741 -0.448993,-0.16458 -0.68608,-0.18696 -0.282691,-0.0267 -0.567021,-0.0135 -0.850427,-0.0138 z"
       transform="translate(1.341814,-1.7008929)" />
    <path
       style="fill:#b3b3b3;fill-opacity:1;stroke:#b3b3b3;stroke-width:0.26458332px;stroke-linecap:butt;stroke-linejoin:miter;stroke-opacity:1"
       id="path1531"
       d="m 103.47098,235.95685 c 0.0516,0.0183 0.11086,0.0222 0.16137,-0.002 0.0579,-0.0278 0.0977,-0.081 0.13269,-0.13303 0.0504,-0.075 0.0924,-0.15754 0.15923,-0.21996 0.0408,-0.0381 0.095,-0.0607 0.15121,-0.0637 0.0156,-8.3e-4 0.0273,-0.0148 0.0411,-0.0225 0.0426,-0.0236 0.0912,-0.0328 0.13895,-0.037 0.0506,-0.004 0.0701,-0.0541 0.10506,-0.0913 0.004,-0.004 -0.004,-0.0158 0.0105,-0.0122 0.0848,0.0217 0.17448,0.0131 0.25761,-0.0119 0.14537,-0.0437 0.27672,-0.12533 0.42573,-0.1591 0.0402,-0.009 0.0817,-0.008 0.12243,-0.0118 0.13703,-0.0133 0.27415,0.0126 0.40603,0.0482 0.0821,0.0222 0.21812,-0.0108 0.24527,0.0697 0.0195,0.0578 0.0725,0.0928 0.10783,0.13997 0.0273,0.0365 0.0419,0.0808 0.0483,0.12562 0.008,0.0589 0.0678,0.0863 0.12002,0.0988 0.0408,0.01 0.14084,-0.009 0.12256,0.0287 -0.0183,0.0378 -0.0403,0.087 -0.014,0.12519 0.0251,0.0365 0.12032,0.0301 0.10718,0.0705 -0.0252,0.0774 -0.0138,0.15979 -0.0107,0.23944 0.002,0.0569 0.004,0.11748 -0.0236,0.16935 -0.0175,0.0334 -0.0888,0.0354 -0.0829,0.0722 0.0132,0.0826 0.0221,0.16771 0.007,0.25046 -0.008,0.0454 -0.0256,0.0943 -0.0657,0.12097 -0.009,0.006 -0.0331,0.003 -0.0298,0.0138 0.0169,0.0526 0.0182,0.11095 -0.003,0.16276 -0.0271,0.0653 -0.0838,0.11595 -0.0987,0.18686 -0.009,0.0444 0.0611,0.12388 0.0172,0.13178 -0.0427,0.008 -0.0858,0.0337 -0.0956,0.0796 -0.01,0.0464 -0.0228,0.0931 -0.0207,0.14068 5.1e-4,0.0119 -0.0139,0.005 -0.0216,0.006 -0.0407,0.005 -0.0554,0.0494 -0.0609,0.0845 -0.0102,0.065 -0.004,0.13199 -0.0217,0.1961 -0.009,0.0318 -0.0762,0.0272 -0.0698,0.061 0.0108,0.0575 9e-4,0.11842 -0.0287,0.16947 -0.0373,0.0644 -0.0984,0.10959 -0.14066,0.17025 -0.0295,0.0422 0.0348,0.14032 -0.0161,0.14597 -0.038,0.004 -0.0786,0.0223 -0.0943,0.0599 -0.0201,0.0479 -0.006,0.10477 -0.0342,0.14995 -0.0169,0.0272 -0.0773,0.0142 -0.0793,0.0448 -0.003,0.047 -0.0233,0.0908 -0.0464,0.13092 -0.0267,0.0465 -0.0538,0.0956 -0.0965,0.12853 -0.0116,0.009 -0.0209,0.016 -0.0288,0.0296 -0.0368,0.0626 -0.0974,0.10499 -0.15584,0.14521 -0.0348,0.024 -0.0582,0.0596 -0.087,0.0902 -0.0333,0.0354 -0.0679,0.0734 -0.11556,0.0891 -0.0386,0.0127 -0.12979,-0.0215 -0.11988,0.0176 0.009,0.0352 -0.0175,0.066 -0.0514,0.0766 -0.0477,0.015 -0.0989,0.0135 -0.14611,0.0311 -0.0235,0.009 -0.0107,0.0529 -0.0353,0.0586 -0.0876,0.0204 -0.18147,0.0242 -0.26781,-0.004 -0.0654,-0.0217 -0.12314,-0.0696 -0.1494,-0.13438 -0.0261,-0.0644 0.0613,-0.18852 -0.005,-0.20288 -0.0411,-0.009 -0.0777,-0.0375 -0.0932,-0.0773 -0.0205,-0.0528 -0.0165,-0.11098 -0.0114,-0.16622 0.007,-0.0765 0.0224,-0.15242 0.0206,-0.2296 -0.001,-0.047 -0.021,-0.099 -0.0695,-0.11626 -0.0122,-0.004 -0.0381,0.005 -0.038,-0.008 4.2e-4,-0.43474 0.34338,-1.0325 0.004,-1.30423 -0.0526,-0.0421 -0.0799,-0.10704 -0.0931,-0.17164 -0.0208,-0.1012 -0.0121,-0.2076 -0.046,-0.30608 -0.0108,-0.0312 -0.0528,-0.0525 -0.0491,-0.0855 0.0124,-0.11178 -0.013,-0.22458 -0.056,-0.32757 -0.0381,-0.0912 -0.0884,-0.17652 -0.13762,-0.26189 z"
       transform="translate(0.85044605,-1.7953869)" />
    <path
       style="fill:#714d37;fill-opacity:1;stroke:#714d37;stroke-width:0.26458332px;stroke-linecap:butt;stroke-linejoin:miter;stroke-opacity:1"
       id="path1547"
       d="m 82.682291,238.31921 c 0.304942,-0.10653 0.617921,-0.19141 0.914572,-0.32066 0.112575,-0.049 0.220557,-0.10808 0.324016,-0.17432 0.414462,-0.26538 0.764477,-0.64618 1.221167,-0.8293 0.334021,-0.13393 0.650987,-0.30852 0.992282,-0.42468 0.124016,-0.0422 0.251944,-0.0712 0.380437,-0.0971 0.240988,-0.0484 0.48816,-0.0746 0.733842,-0.0569 0.187838,0.0136 0.379095,0.0492 0.544197,0.14261 0.03161,0.0179 0.07031,0.0136 0.105942,0.0198 0.1143,0.02 0.222218,0.074 0.306359,0.15422 0.106674,0.10172 0.175885,0.23518 0.229384,0.37079 0.06005,0.15222 0.134976,0.30399 0.150513,0.46669 0.01753,0.18358 -0.02205,0.36825 -0.08892,0.53866 -0.08865,0.22594 -0.219361,0.4322 -0.356317,0.63145 -0.07871,0.11451 -0.17103,0.22019 -0.240016,0.3408 -0.0822,0.14371 -0.192462,0.27294 -0.330088,0.36645 -0.157877,0.10727 -0.345784,0.1544 -0.529105,0.20097 -0.04476,0.0114 -0.09036,0.0163 -0.133883,0.0341 -0.156107,0.0639 -0.32823,0.0727 -0.494685,0.0603 -0.249987,-0.0186 -0.496186,-0.0658 -0.742361,-0.111 -0.354735,-0.0652 -0.705557,-0.16607 -1.02826,-0.32934 -0.131775,-0.0667 -0.273363,-0.12671 -0.376655,-0.23233 -0.100704,-0.10297 -0.230829,-0.17081 -0.363718,-0.22278 -0.198235,-0.0775 -0.408415,-0.12607 -0.596503,-0.22834 -0.10314,-0.0561 -0.151931,-0.21652 -0.269491,-0.22354 -0.120509,-0.007 -0.241859,-0.0273 -0.352713,-0.0767 z"
       transform="translate(1.41741,-1.2284226)" />
    <path
       style="fill:#714d37;fill-opacity:1;stroke:#714d37;stroke-width:0.26458332px;stroke-linecap:butt;stroke-linejoin:miter;stroke-opacity:1"
       id="path1551"
       d="m 103.65997,236.9018 c 0.1267,-0.0457 0.24251,-0.11784 0.34718,-0.20187 0.033,-0.0265 0.0547,-0.0944 0.0956,-0.0836 0.0408,0.0108 0.0892,0.006 0.1185,-0.0282 0.0269,-0.0314 0.0526,-0.0697 0.0981,-0.0769 0.0285,-0.005 0.0563,0.011 0.084,0.009 0.15731,-0.009 0.31708,-0.007 0.4711,0.0299 0.0939,0.0224 0.25139,0.0127 0.26777,0.1079 0.022,0.12824 0.0677,0.25055 0.10189,0.3757 0.0264,0.0968 0.0429,0.19726 0.0373,0.29791 -0.002,0.0364 -0.0204,0.0726 -0.014,0.1085 0.008,0.0455 0.015,0.0925 0.005,0.13836 -0.0106,0.0497 -0.0517,0.0843 -0.0925,0.11062 -0.006,0.004 -0.0212,0.005 -0.0194,0.0121 0.013,0.054 0.01,0.11211 -0.0128,0.16331 -0.0372,0.0851 -0.11069,0.14613 -0.15711,0.22554 -0.0256,0.0437 0.0102,0.15994 -0.0384,0.14502 -0.0214,-0.007 -0.0511,-0.004 -0.059,0.0212 -0.0117,0.0368 -0.007,0.0756 -0.007,0.11353 -5e-4,0.0281 -0.0167,0.0584 -0.0478,0.0623 -0.0134,0.002 -0.044,-0.0155 -0.0401,-0.003 0.01,0.0325 -0.0146,0.0604 -0.0404,0.0782 -0.0299,0.0206 -0.0806,0.0336 -0.0817,0.0757 -7.6e-4,0.029 0.0578,0.0617 0.034,0.0758 -0.0413,0.0246 -0.0912,0.0477 -0.10958,0.0952 -0.0143,0.0371 0.0468,0.11538 0.009,0.11376 -0.0343,-0.001 -0.0856,-9.2e-4 -0.0954,0.0392 -0.009,0.0373 0.003,0.0747 0.008,0.11155 0.004,0.0268 -0.0106,0.0554 -0.0381,0.0626 -0.0481,0.0127 -0.10289,0.004 -0.14214,-0.0273 -0.0419,-0.0335 -0.0639,-0.0842 -0.0845,-0.13219 -0.0223,-0.052 -0.0418,-0.10736 -0.081,-0.14944 -0.0153,-0.0164 -0.0582,-0.0166 -0.0545,-0.0387 0.0128,-0.0753 0.0209,-0.15295 0.007,-0.22867 -0.009,-0.0512 -0.0303,-0.10516 -0.0744,-0.13452 -0.0276,-0.0184 -0.0542,-0.0391 -0.073,-0.067 -0.0334,-0.0497 -0.0447,-0.11043 -0.0478,-0.16916 -0.006,-0.10511 0.009,-0.20978 0.0143,-0.31458 0.003,-0.0617 -0.008,-0.12333 -0.006,-0.18533 0.002,-0.0561 0.009,-0.112 0.006,-0.16821 -0.002,-0.0445 -0.0226,-0.0882 -0.0588,-0.11565 -0.0151,-0.0114 -0.0482,-0.009 -0.0493,-0.0277 -0.004,-0.0751 -0.0316,-0.14664 -0.0664,-0.21259 -0.0371,-0.0701 -0.0816,-0.13667 -0.11387,-0.20912 z"
       transform="translate(1.039434,-2.1733631)" />
    <path
       style="opacity:1;fill:#ffffff;fill-opacity:1;stroke:#ffffff;stroke-width:0.52916664;stroke-linecap:round;stroke-miterlimit:4;stroke-dasharray:none;stroke-opacity:1"
       id="path1561"
       d="m 87.181935,235.85606 a 0.54501969,0.54501969 0 0 1 0.770011,-0.0142 0.54501969,0.54501969 0 0 1 0.01543,0.76999 0.54501969,0.54501969 0 0 1 -0.769961,0.0167 0.54501969,0.54501969 0 0 1 -0.01796,-0.76993 l 0.394577,0.37597 z" />
    <path
       d="m 105.11423,234.77217 a 0.27775016,0.27775016 0 0 1 0.39241,-0.007 0.27775016,0.27775016 0 0 1 0.008,0.3924 0.27775016,0.27775016 0 0 1 -0.39238,0.009 0.27775016,0.27775016 0 0 1 -0.009,-0.39237 l 0.20108,0.1916 z"
       id="path1567"
       style="opacity:1;fill:#ffffff;fill-opacity:1;stroke:#ffffff;stroke-width:0.52916664;stroke-linecap:round;stroke-miterlimit:4;stroke-dasharray:none;stroke-opacity:1" />
  </g>
</svg>
