<?xml version="1.0" encoding="UTF-8" standalone="no"?>
<svg
   xmlns:dc="http://purl.org/dc/elements/1.1/"
   xmlns:cc="http://creativecommons.org/ns#"
   xmlns:rdf="http://www.w3.org/1999/02/22-rdf-syntax-ns#"
   xmlns:svg="http://www.w3.org/2000/svg"
   xmlns="http://www.w3.org/2000/svg"
   xmlns:sodipodi="http://sodipodi.sourceforge.net/DTD/sodipodi-0.dtd"
   xmlns:inkscape="http://www.inkscape.org/namespaces/inkscape"
   width="1200"
   height="600"
   id="svg2"
   sodipodi:version="0.32"
   inkscape:version="1.0.1 (3bc2e813f5, 2020-09-07)"
   sodipodi:docname="np-slice-5-step-both.svg"
   version="1.0">
  <defs
     id="defs80" />
  <sodipodi:namedview
     id="base"
     pagecolor="#ffffff"
     bordercolor="#666666"
     borderopacity="1.0"
     inkscape:pageopacity="0.0"
     inkscape:pageshadow="2"
     inkscape:zoom="1.4142136"
     inkscape:cx="613.62777"
     inkscape:cy="294.13314"
     inkscape:document-units="mm"
     inkscape:current-layer="layer1"
     inkscape:window-width="1920"
     inkscape:window-height="1061"
     inkscape:window-x="0"
     inkscape:window-y="19"
     width="12.8cm"
     height="9.6cm"
     units="cm"
     showgrid="false"
     grid_units="mm"
     inkscape:object-paths="true"
     inkscape:grid-points="true"
     inkscape:grid-bbox="true"
     inkscape:guide-points="true"
     showguides="false"
     inkscape:guide-bbox="true"
     inkscape:window-maximized="0"
     inkscape:snap-text-baseline="true"
     inkscape:snap-object-midpoints="false"
     inkscape:snap-grids="true"
     inkscape:snap-center="false"
     inkscape:snap-to-guides="false"
     inkscape:snap-midpoints="true"
     inkscape:snap-smooth-nodes="true"
     inkscape:document-rotation="0"
     inkscape:snap-global="false">
  </sodipodi:namedview>
  <metadata
     id="metadata7">
    <rdf:RDF>
      <cc:Work
         rdf:about="">
        <dc:format>image/svg+xml</dc:format>
        <dc:type
           rdf:resource="http://purl.org/dc/dcmitype/StillImage" />
        <dc:title />
      </cc:Work>
    </rdf:RDF>
  </metadata>
  <g
     inkscape:label="Layer 1"
     inkscape:groupmode="layer"
     id="layer1"
     transform="translate(0,-84.157471)">
    <path
       id="path77"
       style="fill:#ffaaaa;stroke:#ffaaaa;stroke-width:1px;stroke-linecap:butt;stroke-linejoin:miter;stroke-opacity:1"
       d="m 90.27785,451.06032 c 8.98588,22.73838 6.77749,47.5923 6.99281,71.49664 -0.0412,11.5549 -3.19866,22.71581 -4.99135,34.03591 -4.06114,4.83313 -5.1053,13.34568 3.97491,10.29921 8.573,-3.07883 16.70749,-7.91162 26.06367,-8.44546 18.33225,-2.76966 35.94417,7.73066 54.27919,3.72424 9.45221,-2.63063 19.56367,-2.56495 28.83783,-0.0245 6.49415,-4.87754 -5.10496,-14.60092 -0.60815,-22.05034 2.20691,-10.4719 3.71771,-21.10494 2.42919,-31.8107 -1.18936,-12.37007 -1.47369,-24.81937 -2.54494,-37.17651 -3.07557,-8.46194 -1.36721,-17.28659 -2.7403,-25.60868 -6.84552,-3.31077 -15.57474,-0.50456 -23.18861,-0.47343 -12.95268,1.32429 -25.98236,1.22867 -38.86422,3.32303 -14.62944,-0.005 -29.04825,3.52416 -43.6985,2.60124 -1.98083,0.0145 -3.9615,0.051 -5.94153,0.10939 z" />
    <path
       id="path91"
       style="fill:#ff5555;stroke:#ff5555;stroke-width:1px;stroke-linecap:butt;stroke-linejoin:miter;stroke-opacity:1"
       d="m 210.4972,444.7033 c 6.51459,35.60451 7.42111,72.25827 2.05562,108.06522 1.59769,14.33656 18.96073,10.6921 27.93433,6.30779 17.32105,-3.6308 35.16213,-3.53595 52.71018,-2.11645 8.14572,-3.5482 21.03048,-2.48243 26.45759,-3.31467 6.04638,-22.46713 7.60834,-46.35498 1.41162,-68.97492 -1.27616,-10.0415 -8.16753,-19.62433 -5.14432,-29.88333 3.07869,-7.94559 -0.55208,-12.03987 -7.15125,-6.19559 -11.89738,5.66159 -25.22095,0.72987 -37.7603,1.04966 -20.22504,-1.11699 -41.73658,5.7212 -60.51347,-4.93771 z" />
    <path
       id="path100"
       style="fill:#ffaaaa;stroke:#ffaaaa;stroke-width:1px;stroke-linecap:butt;stroke-linejoin:miter;stroke-opacity:1"
       d="m 333.45562,446.51595 c -6.34959,4.84103 -10.33054,13.20062 -6.81689,20.9804 3.33952,9.58081 5.97878,19.38143 6.44192,29.56451 1.16058,14.27858 4.01108,28.89144 -0.059,42.9776 -2.2749,6.58615 -1.4986,17.62735 7.67373,17.5212 15.47072,-4.38087 30.19807,6.10164 45.73589,3.5767 10.92817,-1.08873 21.99139,-1.44033 32.80584,0.72822 6.6282,0.12317 17.66145,-1.92373 16.57184,-10.69535 -1.51244,-9.60412 -0.67482,-19.3478 -0.88925,-29.04581 -0.0632,-11.53481 5.11311,-22.3509 4.47411,-33.95466 -0.20386,-8.98597 0.0852,-18.08166 -0.73885,-26.99681 -3.4935,-9.34529 -15.08066,-9.37906 -23.3328,-10.91888 -25.61818,-2.26877 -51.58978,2.10002 -77.04531,-2.8037 -1.61242,-0.28263 -3.22001,-0.59326 -4.82123,-0.93342 z" />
    <path
       id="path108"
       style="fill:#ffaaaa;stroke:#ffaaaa;stroke-width:1px;stroke-linecap:butt;stroke-linejoin:miter;stroke-opacity:1"
       d="m 448.34333,453.54511 c 0.0482,14.43587 0.99946,29.00564 -1.73394,43.27586 -1.48188,19.09441 2.22431,39.22136 -5.9252,57.26943 -1.17109,7.56755 7.90176,10.46274 13.9102,9.30202 15.09609,-2.70763 30.54593,-1.19701 45.80723,-1.70693 16.55843,-0.13171 33.20888,-0.71978 49.51155,-3.84808 0.33626,-11.62733 -7.14172,-22.13016 -5.03395,-33.99485 -0.11486,-15.78341 2.8802,-31.34999 4.0737,-47.04456 6.04332,-9.54922 -0.70717,-24.20291 -12.41362,-24.38948 -22.19552,-0.35267 -44.34905,2.49172 -66.56089,2.41458 -7.1954,0.50942 -14.75366,1.53066 -21.63508,-1.27799 z" />
    <path
       id="path117"
       style="fill:#ff5555;stroke:#ff5555;stroke-width:1px;stroke-linecap:butt;stroke-linejoin:miter;stroke-opacity:1"
       d="m 561.95869,456.24419 c 3.59072,13.50846 0.28464,27.40143 -2.86924,40.61686 -2.7822,14.69553 -2.34931,30.03141 1.86173,44.40548 1.98504,5.61916 -4.84152,17.01327 4.83488,16.18968 15.16985,0.64599 30.43533,2.92222 45.58423,0.43468 12.04105,-1.04535 23.27166,-7.04707 35.46686,-6.5357 7.1627,4.20011 14.988,-1.27131 10.4791,-9.28166 -4.1546,-21.06397 -7.233,-42.40099 -8.2701,-63.85432 -1.1704,-7.51784 2.2326,-14.84506 1.3103,-22.16988 -4.3896,-4.87263 -12.84349,-4.68875 -19.19364,-5.84169 -16.56545,0.30018 -32.22009,7.8685 -48.93626,6.4411 -6.75593,-0.12797 -13.50838,-0.57763 -20.26786,-0.40455 z" />
    <path
       id="path123"
       style="fill:#ffaaaa;stroke:#ffaaaa;stroke-width:1px;stroke-linecap:butt;stroke-linejoin:miter;stroke-opacity:1"
       d="m 91.86113,326.21087 c 2.15235,11.47175 7.67289,22.31444 6.53835,34.29499 0.95814,22.2453 -2.44538,44.38109 -2.72649,66.56762 -3.21671,5.20024 -3.88157,15.56429 4.6567,8.96294 9.71607,-8.05828 22.83858,-2.67745 34.24725,-5.18968 19.26804,-1.94242 39.116,-4.15648 57.95213,1.79435 14.19851,7.27411 18.31084,-12.17602 10.18722,-20.66408 -4.18263,-14.1411 -1.90328,-29.16736 -3.47528,-43.68817 -0.93029,-13.97557 0.0303,-28.03319 1.26301,-41.87841 -3.3263,-14.74607 -19.08793,-6.37086 -28.75039,-5.08625 -22.31134,3.44923 -45.09853,4.26371 -67.5089,1.47446 -4.33333,-0.0492 -8.80259,0.85381 -12.3836,3.41223 z" />
    <path
       id="path132"
       style="fill:#ffaaaa;stroke:#ffaaaa;stroke-width:1px;stroke-linecap:butt;stroke-linejoin:miter;stroke-opacity:1"
       d="m 211.71254,323.42551 c -6.30159,29.45209 -4.44223,60.1723 2.87923,89.2525 4.17752,7.12009 -4.48542,16.36682 0.004,21.53752 18.26952,-0.73992 36.54666,-3.27102 54.88256,-3.63847 13.5384,-0.49136 26.69482,2.99961 39.80359,5.77876 11.97759,3.66164 11.47906,-10.36607 8.57564,-17.7202 -6.22734,-20.57674 -1.71007,-42.09341 -1.63906,-63.10087 -1.94279,-11.31876 -4.68809,-22.69263 -6.5128,-33.85682 -5.31798,-8.64644 -16.4299,-5.69079 -24.85437,-5.59084 -12.53811,0.2102 -24.64064,3.53447 -36.95119,5.42564 -9.16772,0.9944 -18.23065,4.30698 -27.57845,2.57378 -2.86833,-0.23785 -5.73363,-0.52519 -8.6094,-0.661 z" />
    <path
       id="path140"
       style="fill:#ffaaaa;stroke:#ffaaaa;stroke-width:1px;stroke-linecap:butt;stroke-linejoin:miter;stroke-opacity:1"
       d="m 328.22874,325.4266 c 4.51132,21.94128 -10.48316,42.61863 -5.65919,64.64511 1.82345,13.61886 5.63031,27.23848 3.60268,41.0557 0.18496,16.22762 18.79258,7.30694 28.19057,6.09228 16.45169,-1.43888 33.27889,-2.93336 49.42102,1.55098 11.19952,-1.80654 27.94161,9.07315 35.02768,-1.07455 0.65052,-10.66256 -1.00727,-21.4554 -1.40098,-32.19159 -3.3574,-19.23799 -6.93254,-38.47001 -7.55316,-58.05394 -0.36118,-10.44844 -0.4705,-27.74029 -15.41144,-26.01271 -18.22672,0.29955 -35.1792,8.25456 -53.19646,9.74856 -11.30691,-0.0935 -21.62366,-6.55699 -33.02072,-5.75984 z" />
    <path
       id="path149"
       style="fill:#ffaaaa;stroke:#ffaaaa;stroke-width:1px;stroke-linecap:butt;stroke-linejoin:miter;stroke-opacity:1"
       d="m 441.73833,323.03821 c 0.37048,16.43157 -0.0787,33.04696 3.83725,49.13076 2.11048,17.55039 2.20508,35.32602 3.17608,52.91581 -2.09464,6.68634 -8.48118,20.4067 4.29532,15.73739 19.00902,0.67397 38.02072,0.0554 57.03399,-0.3796 9.83671,0.62505 19.44937,0.49941 29.24914,1.24855 12.86417,-0.881 -0.13579,-14.54704 4.2625,-22.02974 4.14469,-16.88755 7.19897,-34.37158 6.98667,-51.79986 -2.89951,-13.96369 -5.07414,-29.24043 -12.50274,-41.46571 -8.01372,-9.40306 -19.21274,-1.96096 -28.84039,-0.71096 -18.91246,2.91725 -37.9771,-0.26319 -56.62301,-3.34143 -3.63183,-0.26879 -7.31763,-0.13223 -10.87481,0.69479 z" />
    <path
       id="path158"
       style="fill:#ffaaaa;stroke:#ffaaaa;stroke-width:1px;stroke-linecap:butt;stroke-linejoin:miter;stroke-opacity:1"
       d="m 564.79567,329.677 c 6.49543,20.13547 0.56198,41.11435 -4.15248,60.89118 -2.96927,16.08661 -3.75204,32.79698 -0.30842,48.8762 8.08844,6.02949 19.66755,1.5889 29.12606,4.23196 17.91902,0.39187 35.80164,-6.30174 53.59762,-1.42672 16.1257,1.06934 7.6854,-19.79467 7.9487,-29.19632 -2.2331,-23.07302 -4.0364,-46.68219 1.4254,-69.4546 3.2592,-9.55796 -3.6029,-19.97798 -14.1573,-17.91484 -21.42132,1.84879 -42.90415,6.56249 -64.44968,3.35245 -3.01977,-0.1014 -6.06457,0.0242 -9.0299,0.64069 z" />
    <path
       id="path171"
       style="fill:#ffaaaa;stroke:#ffaaaa;stroke-width:1px;stroke-linecap:butt;stroke-linejoin:miter;stroke-opacity:1"
       d="m 89.99479,211.00048 c 7.80828,18.57628 4.33792,39.16582 7.23169,58.64556 1.22192,12.63412 1.39479,25.69928 -2.82391,37.83967 0.664,9.30098 11.57772,1.20642 16.63971,0.71506 12.84196,-2.17023 25.96172,-1.78931 38.82408,-3.92415 13.20428,-1.18238 26.68361,-2.82474 39.85485,-0.8742 6.09721,3.63447 10.5592,-0.73076 8.13161,-7.23674 -1.06497,-15.34095 -3.50709,-30.59169 -3.13799,-46.0132 -0.0673,-8.54888 -1.59882,-17.05925 -2.84182,-25.41601 0.87273,-8.11525 -6.57812,-13.68636 -11.9392,-18.18677 -8.97616,-1.27688 -17.85222,3.17242 -26.73607,4.4218 -11.87287,2.99131 -24.18477,3.2623 -36.25661,1.43862 -9.01375,-0.0974 -18.09279,-4.95051 -26.94634,-1.40964 z" />
    <path
       id="path179"
       style="fill:#ff5555;stroke:#ff5555;stroke-width:1px;stroke-linecap:butt;stroke-linejoin:miter;stroke-opacity:1"
       d="m 202.03643,213.07813 c 5.44305,20.74553 2.01807,42.59045 6.95913,63.43832 0.93102,13.95639 -4.25463,27.33344 -7.17601,40.69304 6.15968,4.70622 17.53114,-1.44627 25.60646,-1.27733 14.80902,-4.23847 30.25909,-1.30962 45.27247,-3.22032 9.96183,-4.25984 20.35851,0.42491 29.78643,-0.1434 6.31798,-9.77742 -3.29156,-21.10088 -2.46895,-31.74718 -1.89096,-17.72222 -2.19546,-35.67315 -1.52427,-53.44382 2.2065,-7.75044 6.00695,-20.93623 -5.46873,-22.99159 -11.99178,-1.12482 -24.08405,1.1723 -36.1455,0.39735 -12.52255,-0.38859 -24.9843,1.84782 -36.45621,6.86838 -5.9602,1.66918 -12.23967,2.05666 -18.38482,1.42655 z" />
    <path
       id="path188"
       style="fill:#ffaaaa;stroke:#ffaaaa;stroke-width:1px;stroke-linecap:butt;stroke-linejoin:miter;stroke-opacity:1"
       d="m 319.46048,306.53976 c 10.96661,13.80306 30.59029,15.18806 46.52393,11.03967 13.62161,-2.06492 27.45506,-2.34922 40.8641,-5.68284 9.5761,2.03085 20.1163,0.32023 15.14481,-12.19864 -0.43577,-26.33055 -2.92038,-52.7129 -3.23725,-79.0485 4.17868,-8.91211 0.46025,-21.90421 -11.58155,-18.84267 -18.22272,3.92304 -36.84883,-0.51152 -55.28652,0.4645 -14.17652,-0.77033 -27.79554,5.11417 -41.78266,3.18967 -4.36046,11.5397 6.67706,25.7045 3.07218,38.68525 -2.598,13.52875 -5.46562,28.32855 1.72268,41.01296 2.38798,6.90369 3.95376,14.09829 4.56028,21.3806 z" />
    <path
       id="path197"
       style="fill:#ffaaaa;stroke:#ffaaaa;stroke-width:1px;stroke-linecap:butt;stroke-linejoin:miter;stroke-opacity:1"
       d="m 438.11785,302.60216 c 18.50931,5.80167 35.86264,17.10462 55.96186,16.17252 11.72367,0.16745 23.49365,0.0863 35.13977,1.45088 12.05031,-2.87002 7.63057,-18.54299 10.02143,-27.54828 -1.27119,-22.0151 -3.90487,-44.07786 -3.0449,-66.17861 3.29854,-9.15645 5.52373,-26.44549 -9.52966,-23.29418 -14.38259,-1.16612 -28.68042,-2.94907 -43.16118,-2.28131 -16.08645,-0.30116 -32.40985,1.37762 -48.34073,0.32681 -13.74262,1.42943 2.28918,17.56887 -0.41935,26.41946 0.71623,17.75428 -1.26738,35.60701 1.81131,53.25058 0.80939,7.20107 1.58294,14.42621 1.56145,21.68213 z" />
    <path
       id="path206"
       style="fill:#ff5555;stroke:#ff5555;stroke-width:1px;stroke-linecap:butt;stroke-linejoin:miter;stroke-opacity:1"
       d="m 555.00743,216.03583 c -4.13029,18.82243 -10.75735,38.28505 -5.42045,57.60851 1.11432,13.13709 5.3826,26.59653 2.68153,39.68616 -1.1671,14.14892 18.54127,2.07785 26.64248,3.96883 16.77692,-1.34181 33.65294,-2.05401 50.37252,-3.6649 8.19912,1.42044 23.99874,9.40984 24.71044,-4.75388 -1.1695,-12.126 -3.6319,-24.19952 -3.3977,-36.48547 -0.048,-15.06544 -0.6381,-30.19745 -1.2102,-45.1888 5.4553,-10.53008 -4.2151,-17.54889 -14.25656,-16.36871 -14.43827,-0.15363 -28.73,2.84659 -43.20884,2.17067 -12.34565,0.18721 -24.78284,0.50365 -36.91322,3.02759 z" />
    <path
       id="path321"
       style="fill:#1a1a1a;stroke:#000000;stroke-width:1.00157;stroke-linecap:round"
       d="m 137.31368,239.79992 c -4.68405,4.32959 -8.09805,10.05703 -8.81845,16.46556 -1.36885,9.08744 0.99517,19.71515 8.69026,25.42932 4.3322,3.04051 10.42791,4.73091 15.4095,2.39861 4.41527,-3.11606 6.71053,-8.4742 8.1016,-13.54215 1.07706,-5.35649 1.29769,-10.99971 0.30191,-16.37139 -1.64221,-5.50768 -6.01236,-10.24818 -11.32838,-12.35703 -4.45698,-2.91498 -10.83511,5.08078 -4.03881,5.71408 2.27867,0.25718 4.94077,-2.58163 1.00344,-1.7776 1.94803,0.74281 6.34228,3.37255 7.7407,6.45883 3.83464,6.67579 2.34924,14.96738 -0.43018,21.73976 -1.44642,3.06909 -3.40373,6.36944 -7.02298,7.05808 2.0899,0.17237 -4.82579,-0.71901 -5.66488,-2.35275 -7.53334,-5.39081 -8.68963,-15.93753 -6.56316,-24.32793 1.08881,-4.62148 4.10708,-8.54049 7.97887,-11.20173 0.27696,-1.78386 -4.10274,-2.11752 -5.35944,-3.33366 z" />
    <path
       id="path323"
       style="fill:#1a1a1a;stroke:#000000;stroke-width:1.00157;stroke-linecap:round"
       d="m 244.01603,255.53401 c 4.87605,-4.15901 8.62429,-9.41945 11.51817,-15.10443 0.68557,-2.54949 6.87056,-8.50708 1.23245,-7.58589 -4.4686,2.01043 -2.09951,9.06432 -3.33611,13.23407 -0.7237,11.29714 -0.13908,22.62606 1.26711,33.84646 -0.33073,2.78107 0.63922,8.831 3.43222,5.17526 4.04549,2.43633 3.42294,-2.60247 2.14637,-4.82346 -1.85306,-9.15976 -2.58665,-18.5259 -3.10324,-27.84423 -0.0814,-6.03175 -0.0148,-12.27879 1.80598,-18.04024 -1.29642,-1.48523 -5.1869,-1.93505 -4.21747,1.30198 -1.56875,7.12289 -6.21307,13.25877 -11.88851,17.6594 -1.80771,1.58566 0.17955,1.33876 1.14303,2.18108 z" />
    <path
       id="path325"
       style="fill:#1a1a1a;stroke:#000000;stroke-width:1.00157;stroke-linecap:round"
       d="m 358.70552,244.22447 c 3.33539,-2.90815 9.22953,-5.89607 13.24095,-2.65952 3.3638,4.35172 2.12244,10.53132 0.52766,15.3616 -5.03928,12.24009 -14.94519,22.12655 -26.45912,28.44597 -1.28932,4.25514 6.99908,4.5532 9.53709,2.49931 9.35174,-3.14011 19.31725,-4.11348 29.12592,-3.91979 1.89915,-2.26064 -5.00718,-6.8127 -8.08096,-4.23958 -8.68501,1.53481 -17.52314,2.38574 -26.01352,4.85106 -4.06608,0.10058 -2.78491,1.55727 -0.0188,2.49528 2.67531,3.60278 6.66178,-3.67674 9.40476,-5.10424 7.9275,-8.20136 16.12219,-17.39938 18.2867,-28.96789 0.55001,-5.04984 0.66677,-11.86449 -4.47396,-14.65284 -6.24816,-2.37513 -12.76266,0.94172 -17.94688,4.3229 0.95673,0.52258 1.91348,1.04511 2.87018,1.56774 z" />
    <path
       id="path327"
       style="fill:#1a1a1a;stroke:#000000;stroke-width:1.00157;stroke-linecap:round"
       d="m 479.34389,240.21806 c 3.59606,-4.07977 10.53075,0.48816 9.50474,5.36704 -0.33947,4.89942 -5.49912,6.67608 -8.51521,9.08557 0.95485,1.69624 5.9729,4.14382 5.75087,3.75567 -3.79719,-0.16457 4.02711,0.14327 4.87366,1.44718 5.04435,2.23173 8.33999,8.86723 4.95418,13.81819 -4.23194,5.91555 -11.03545,9.37891 -17.5555,12.23837 -2.46741,1.2438 -9.72971,1.61514 -5.96889,5.60583 5.11777,4.10023 10.46668,-1.66219 15.03258,-3.82944 5.46754,-3.64647 11.6569,-7.16947 15.00096,-13.0594 3.20667,-6.48421 -0.36742,-14.82427 -6.67932,-17.92562 -3.81892,-2.67022 -10.0064,-4.24655 -14.0114,-2.62405 1.5841,5.52048 6.67072,4.47031 8.96494,0.1657 4.47317,-4.91788 4.49269,-14.36272 -2.24876,-17.32916 -3.40841,-1.75734 -10.10595,-1.33048 -11.43684,2.11266 0.68847,0.58279 1.65749,0.57129 2.33399,1.17146 z" />
    <path
       id="path329"
       style="fill:#1a1a1a;stroke:#000000;stroke-width:1.00157;stroke-linecap:round"
       d="m 595.88939,234.856 c -3.11743,6.12956 -7.08219,11.78365 -10.86489,17.51094 -1.93007,2.84019 -4.32061,5.44567 -5.82798,8.52637 0.66474,4.08043 6.35406,1.83794 9.19058,1.65859 9.47478,-1.93274 19.22123,-2.62588 28.87948,-2.13353 -1.77581,-1.79667 -3.14553,-5.465 -6.3322,-4.18673 -8.87734,1.07114 -17.61058,3.30934 -26.56128,3.71458 -2.34035,0.37681 -1.30501,-0.82114 -0.15966,0.40422 -0.33587,2.20199 1.68673,-2.64033 2.30161,-3.22283 3.85473,-6.46799 7.60862,-13.00628 11.34177,-19.53672 2.36374,-2.38457 -0.28427,-2.13615 -1.96743,-2.73489 z" />
    <path
       id="path331"
       style="fill:#000000;stroke:#000000;stroke-width:1.00157;stroke-linecap:round"
       d="m 606.58234,248.63858 c 0.5091,7.93961 -0.4099,15.88054 -0.38955,23.82471 -0.12322,5.09275 -0.50386,10.18389 -0.81238,15.25998 0.16252,3.46248 4.64232,3.62893 4.99211,0.0959 0.42833,-3.51167 0.18593,-7.0893 0.29489,-10.63044 0.0613,-8.85215 -0.46726,-17.6998 -0.40828,-26.54851 0.93577,-3.27176 -1.62866,-1.60504 -3.67679,-2.00166 z" />
    <path
       id="path339"
       style="fill:#ffaaaa;fill-opacity:1;stroke:#ffaaaa;stroke-width:1px;stroke-linecap:butt;stroke-linejoin:miter;stroke-opacity:1"
       d="m 668.87085,212.51151 c -2.2533,22.39331 -4.7915,44.89792 -3.9849,67.43135 1.0959,9.6632 3.48,19.7087 -0.1357,29.1585 -2.9541,8.10004 6.5021,10.16824 11.9368,6.42727 19.4256,-3.72324 39.0971,1.48345 58.6194,0.78051 6.6207,3.25301 14.4537,0.41429 12.8062,-7.94712 2.4742,-17.05003 5.4801,-34.03649 10.2288,-50.61491 2.1323,-7.06862 2.5397,-15.05732 -2.2351,-21.1906 -5.8462,-4.84413 1.6821,-13.40965 -4.4051,-17.81551 -15.4951,-6.33754 -32.5758,-1.19263 -48.4791,-5.4148 -9.09,-2.57416 -18.7011,-2.48879 -27.8466,-0.30374 -2.1721,0.2233 -4.4111,0.1642 -6.5047,-0.51095 z" />
    <path
       id="path347"
       style="fill:#ffaaaa;fill-opacity:1;stroke:#ffaaaa;stroke-width:1px;stroke-linecap:butt;stroke-linejoin:miter;stroke-opacity:1"
       d="m 665.10445,329.45014 c 1.5529,14.52783 -4.5595,28.52395 -3.5752,43.05878 0.048,18.48277 0.3995,36.95431 1.7712,55.39043 -2.0845,5.57053 -4.0358,15.01619 5.5976,11.94652 17.9088,0.0799 35.8528,2.49634 53.7183,0.0803 10.2372,-1.10003 20.5571,-1.26554 30.802,-0.36928 10.5223,0.72094 10.1504,-10.05612 8.7332,-17.37047 -0.1006,-13.44001 0.203,-26.97832 -2.7008,-40.1858 -1.6995,-10.9003 1.2019,-21.64595 4.1021,-32.04963 2.1468,-6.51012 2.0084,-17.38447 -7.4469,-16.72905 -9.9473,-1.0874 -19.8828,-2.77549 -29.9553,-2.52837 -17.497,-0.36479 -35.2527,2.09011 -52.4768,-1.98991 -2.8586,-0.33626 -5.9044,-0.60824 -8.5694,0.74651 z" />
    <path
       id="path355"
       style="fill:#ffaaaa;fill-opacity:1;stroke:#ffaaaa;stroke-width:1px;stroke-linecap:butt;stroke-linejoin:miter;stroke-opacity:1"
       d="m 664.90515,452.49807 c -7.6407,14.80682 -5.9199,32.21226 -1.4184,47.67913 2.9833,13.1927 5.5507,26.63182 5.7844,40.17906 -2.6172,6.20227 -1.7559,14.63264 7.1858,12.03135 16.175,0.31051 30.9291,-8.00585 46.9987,-8.86248 12.6639,-1.40569 25.4468,-2.2402 38.176,-2.0312 8.4047,-3.84376 -0.9624,-13.48814 0.1065,-20.26533 -1.7159,-11.2887 2.0868,-22.19346 3.6556,-33.22013 0.8307,-9.26522 1.447,-19.13243 -1.87,-27.96271 -4.5243,-8.14288 -14.8113,-8.06723 -22.8763,-7.1762 -15.754,0.58248 -31.3637,3.66108 -47.1287,3.57365 -9.7446,-0.0298 -18.8323,-5.01557 -28.6136,-3.94514 z" />
    <path
       id="path369"
       style="fill:#000000;fill-opacity:1;stroke:#000000;stroke-width:1.00157;stroke-linecap:round;stroke-opacity:1"
       d="m 725.59915,239.34047 c -6.8811,-0.0905 -13.7311,-0.82894 -20.6044,-1.09801 -2.6686,-1.52963 -6.1795,0.38317 -6.523,3.40192 -0.077,2.84854 -1.4533,5.40154 -1.5751,8.21679 -0.2791,3.42299 3.6078,3.54284 5.9879,2.83333 7.8343,-0.36814 14.8524,5.85738 17.1384,13.08668 1.2502,5.46771 -2.8069,10.25702 -6.5897,13.65245 -3.964,3.78292 -8.8781,6.28241 -13.5427,9.03051 -2.232,0.93267 -4.4915,4.00151 -0.5741,2.57125 7.1985,-1.46072 13.3541,-6.02974 18.4579,-11.11774 3.5904,-3.77499 7.1043,-9.12911 5.2653,-14.53767 -1.9008,-5.93466 -6.5966,-10.64445 -11.7992,-13.8512 -3.0918,-1.50286 -6.6964,-1.8326 -10.0752,-1.34391 0.4987,-2.60497 1.3733,-7.88131 1.5825,-8.53916 6.7163,-0.21628 13.48,-0.31538 20.1438,0.68938 0.9025,-0.99821 1.8052,-1.99649 2.7076,-2.99462 z" />
    <path
       id="path371"
       style="fill:#000000;fill-opacity:1;stroke:#000000;stroke-width:1.00157;stroke-linecap:round;stroke-opacity:1"
       d="m 147.865,352.89253 c -5.88235,2.26234 -10.96993,6.46922 -13.68031,12.2273 -4.37205,8.46667 -5.95104,18.60785 -3.85445,27.93522 1.74584,6.36186 4.86807,12.57204 9.62317,17.19765 4.77957,3.88965 13.06074,3.01207 15.87861,-2.8553 3.23034,-6.59865 2.1949,-14.93917 -1.47459,-21.15467 -3.77485,-6.00555 -14.18946,-6.71063 -18.02891,-0.46949 -0.82279,6.93088 8.8735,-1.93919 8.10899,-0.56801 6.0605,0.24752 9.0328,6.82543 9.27507,12.16337 1.39399,5.14271 -3.51816,11.47725 -6.7614,12.17847 -4.9871,-0.0899 -8.35934,-4.82524 -10.58082,-8.83893 -6.39115,-12.54743 -3.39578,-28.48599 5.03947,-39.34698 2.09549,-3.15991 7.87408,-4.52998 9.48974,-6.07832 -1.01152,-0.79677 -2.02313,-1.59346 -3.03457,-2.39031 z" />
    <path
       id="path373"
       style="fill:#000000;fill-opacity:1;stroke:#000000;stroke-width:1.00157;stroke-linecap:round;stroke-opacity:1"
       d="m 243.98096,350.95709 c 14.42175,-0.28504 29.38732,-0.3304 42.89099,-5.93265 -5.32043,-0.59164 -6.60908,8.7348 -9.8545,12.45407 -5.17831,9.95944 -11.64063,19.1319 -17.97076,28.36697 -3.48982,5.50511 -6.56455,11.26859 -9.27855,17.19324 1.17162,5.27756 6.83909,-0.6725 6.07509,-3.94763 6.24076,-15.22296 16.91613,-28.01257 24.57837,-42.48422 1.37232,-4.51054 8.51807,-8.71823 6.26865,-13.10821 -4.56799,0.22179 -8.72421,4.40784 -13.66763,4.83506 -9.13916,2.18159 -18.64006,2.39572 -27.97683,1.79764 l -0.59027,0.20193 z" />
    <path
       id="path375"
       style="fill:#000000;fill-opacity:1;stroke:#000000;stroke-width:1.00157;stroke-linecap:round;stroke-opacity:1"
       d="m 253.52906,375.34563 c 9.4028,-0.22191 18.69675,-1.98076 28.09768,-2.19666 -0.50567,-2.03545 -2.66586,-3.92119 -4.82752,-3.36201 -6.1072,1.81046 -12.48916,2.70413 -18.85802,2.71241 -2.10264,-0.96005 -3.13355,1.77822 -4.41214,2.84626 z" />
    <path
       id="path377"
       style="fill:#000000;fill-opacity:1;stroke:#000000;stroke-width:1.00157;stroke-linecap:round;stroke-opacity:1"
       d="m 386.3614,352.06051 c -5.606,-0.004 -12.4929,-1.68959 -16.64664,3.25915 -3.60419,3.34198 -2.21617,9.0915 1.47956,11.75973 5.23988,3.99434 12.29457,6.30058 15.27022,12.69274 2.99986,5.22747 2.48163,11.90378 -1.0012,16.76984 -2.39955,3.90035 -6.1874,7.34696 -10.88164,7.95598 5.11789,-0.10465 -3.52531,-1.16764 -3.15871,-4.05613 -2.71351,-4.63081 -1.01655,-10.55218 2.78563,-14.02996 4.9509,-4.87686 11.35501,-8.38145 14.83248,-14.64223 2.43227,-4.17845 5.26728,-11.30633 0.003,-14.54157 -4.65404,-3.13269 -7.8064,2.10494 -3.39187,5.11565 0.46253,3.32272 -1.8384,6.69788 -3.58832,9.50755 -4.59736,6.28887 -12.44938,9.54329 -16.04462,16.69317 -4.27704,6.93654 -1.20181,17.25924 6.40585,20.38226 5.41998,0.81554 10.74189,-1.50706 14.42981,-5.42473 5.71137,-5.30021 9.01362,-14.16085 5.29685,-21.50826 -2.62673,-5.79217 -7.19526,-10.6043 -12.87838,-13.4719 -3.01831,-1.97997 -7.0552,-4.14537 -7.53457,-8.07579 0.38785,-3.92869 5.35746,-5.61565 8.3235,-5.39608 2.57643,0.71642 4.93759,-0.92187 6.29863,-2.98942 z" />
    <path
       id="path379"
       style="fill:#000000;fill-opacity:1;stroke:#000000;stroke-width:1.00157;stroke-linecap:round;stroke-opacity:1"
       d="m 499.49506,359.60356 c -0.21399,7.33728 -6.38,14.64131 -14.05888,14.35958 -3.02169,-1.65067 -4.27182,-5.61826 -3.36872,-8.9746 1.52825,-6.56957 9.67519,-9.99456 15.72268,-7.52582 5.36813,1.63503 7.67011,7.86532 6.68542,13.02972 -1.07658,11.70914 -6.35969,23.17143 -14.98997,31.21806 -2.79772,2.52584 -5.87893,4.71122 -8.99812,6.81772 -1.55238,3.91141 4.39414,3.99808 6.54283,2.3982 2.89752,-2.09172 5.39511,-4.72129 7.97802,-7.19266 6.95267,-7.13706 11.57746,-16.35899 13.41555,-26.13358 1.56225,-6.64451 1.9809,-14.88055 -3.33911,-20.01315 -7.53313,-6.67685 -21.34521,-5.43277 -26.44408,3.65507 -2.26409,4.82044 -2.10751,11.6024 2.19165,15.2768 2.98143,1.96912 6.92778,1.18765 10.22478,0.45102 4.35058,-1.11434 8.13356,-4.24785 9.60524,-8.56267 0.89525,-2.339 3.69013,-9.73284 -1.16729,-8.80369 z" />
    <path
       id="path381"
       style="fill:#000000;fill-opacity:1;stroke:#000000;stroke-width:1.00157;stroke-linecap:round;stroke-opacity:1"
       d="m 583.61385,377.01576 c 2.26102,-7.74141 3.74584,-15.73567 6.85374,-23.20983 -5.85207,-1.24644 -4.31304,5.16909 -4.59344,8.72388 -0.4157,16.38869 -1.95269,32.72208 -3.82086,49.00047 -2.38325,3.5939 4.27164,5.22008 5.92236,3.6826 -0.63987,-4.58082 -1.01551,-9.20411 -0.98551,-13.87195 0.50551,-14.58861 -0.73811,-29.34327 2.09846,-43.7642 3.11575,-3.14594 -4.98742,-5.17337 -2.72252,-0.37564 -0.32528,6.7403 -2.62641,13.17665 -5.15667,19.36566 0.80148,0.14968 1.60297,0.2993 2.40444,0.44901 z" />
    <path
       id="path383"
       style="fill:#000000;fill-opacity:1;stroke:#000000;stroke-width:1.00157;stroke-linecap:round;stroke-opacity:1"
       d="m 612.37265,358.85143 c -8.83737,11.35308 -11.86244,27.21533 -7.79621,41.00169 1.90806,7.69257 10.84342,14.31653 18.30604,9.00742 8.72206,-6.0032 13.4521,-16.65352 14.84681,-26.90628 0.99078,-8.43549 -2.23399,-19.7237 -11.84938,-21.31861 -5.60548,-2.998 -15.29443,7.8145 -8.12516,9.38239 2.51894,-5.97825 11.14598,-6.76898 13.00113,0.18699 4.82488,10.75926 0.64226,23.72977 -6.90591,32.13323 -5.06584,7.10689 -14.4391,3.86241 -15.79929,-4.46345 -3.49951,-11.69842 -0.006,-24.38472 6.19682,-34.53375 4.0404,-1.86175 0.66625,-3.93657 -1.87485,-4.48963 z" />
    <path
       id="path385"
       style="fill:#000000;fill-opacity:1;stroke:#000000;stroke-width:1.00157;stroke-linecap:round;stroke-opacity:1"
       d="m 685.17585,380.38602 c 7.1018,-4.32476 10.5478,-12.29786 13.5574,-19.66507 2.7216,-2.61447 0.2817,-5.19188 -2.7764,-3.62125 -1.8978,4.43604 -1.7646,9.71935 -3.0675,14.45891 -2.663,12.80181 -3.0078,25.92043 -5.1724,38.80069 -2.8771,4.60055 7.5452,6.10579 6.5866,0.87508 -0.227,-5.65913 0.4536,-11.32514 0.2148,-17.00497 -0.07,-12.04914 1.2118,-24.24532 5.0117,-35.72555 -2.368,-1.54167 -4.9245,-1.50029 -4.3266,1.9343 -1.5899,6.48608 -5.0479,12.99289 -10.7385,16.73492 -3.681,1.17614 -0.6486,1.93748 0.7109,3.21294 z" />
    <path
       id="path387"
       style="fill:#000000;fill-opacity:1;stroke:#000000;stroke-width:1.00157;stroke-linecap:round;stroke-opacity:1"
       d="m 717.47815,377.77561 c 7.4455,-4.95424 10.8854,-13.7098 13.9861,-21.65078 -1.9974,-3.03907 -7.4673,-1.56702 -5.9163,2.61354 -0.4019,10.01099 -1.8722,19.94595 -2.6719,29.93124 -0.4214,7.54718 -2.6744,14.8363 -3.185,22.3597 -1.8419,4.91554 4.8828,6.47339 7.5089,3.21739 -0.2223,-4.86909 -0.2152,-10.16971 0.3451,-15.21725 1.1067,-11.22225 1.0135,-22.5158 1.826,-33.74873 -0.4423,-3.0686 2.8413,-8.29806 1.0174,-9.73955 -6.062,-2.18846 -4.4915,5.01821 -6.5177,8.43553 -2.0305,4.75876 -5.6892,9.02432 -10.5883,10.93756 1.3986,0.95375 2.7971,1.90765 4.1957,2.86135 z" />
    <path
       id="path389"
       style="fill:#000000;fill-opacity:1;stroke:#000000;stroke-width:1.00157;stroke-linecap:round;stroke-opacity:1"
       d="m 120.67329,497.60974 c 3.5413,-5.17041 4.49342,-11.46177 6.55987,-17.24652 0.72377,-4.77697 -7.22264,-1.63667 -4.79453,2.2308 0.19394,4.84932 -0.39501,9.72941 -0.58822,14.5966 -0.76014,9.75274 -1.09624,19.52828 -1.07309,29.30827 -1.16797,3.70282 0.90972,10.05869 5.53119,6.47762 2.09753,-4.79033 -0.71621,-10.74088 -0.25767,-15.99044 -0.50338,-10.35936 -0.34233,-20.76524 0.40695,-31.1075 1.02657,-3.65922 1.75764,-9.52416 -3.95901,-7.97295 0.62641,5.99649 -1.28525,12.4524 -5.37597,16.92278 -1.86822,1.8288 2.76678,1.86451 3.55048,2.78134 z" />
    <path
       id="path391"
       style="fill:#000000;fill-opacity:1;stroke:#000000;stroke-width:1.00157;stroke-linecap:round;stroke-opacity:1"
       d="m 152.86365,488.03483 c 2.32728,-7.87948 9.22394,-4.05276 7.9506,2.83952 0.63343,10.51068 -4.50704,21.03782 -11.98398,28.11961 -7.724,3.15426 -3.34571,10.59176 3.83548,8.40548 7.57465,-1.19583 15.27856,-1.59869 22.89405,-0.54097 -4.24097,-0.42519 3.75818,-8.38158 -3.72284,-6.28557 -8.7068,1.26016 -17.61153,0.97031 -26.26141,2.28818 -1.50209,6.1498 9.80345,1.91581 10.1007,-3.16372 3.82236,-6.90591 8.57513,-13.59982 9.42472,-21.70433 0.65849,-5.86242 0.68381,-12.90441 -3.60131,-17.42282 -4.16201,-4.50258 -16.41205,5.66565 -8.63601,7.46462 z" />
    <path
       id="path393"
       style="fill:#000000;fill-opacity:1;stroke:#000000;stroke-width:1.00157;stroke-linecap:round;stroke-opacity:1"
       d="m 243.15714,494.20271 c 5.27584,-5.63009 9.43009,-12.86046 9.60259,-20.74435 -3.09589,-2.09027 -6.98267,1.27952 -5.66125,4.70284 -0.14378,14.35951 -0.4921,28.84531 -3.74987,42.89708 -2.46663,4.02887 5.13046,6.46702 6.70489,2.92638 1.09861,-3.99042 0.44853,-8.28035 1.16375,-12.38858 0.87574,-7.20614 0.24838,-14.43207 -0.0538,-21.64569 -0.12208,-4.84888 0.11617,-9.84636 1.09555,-14.52875 -2.18789,-2.02394 -5.8313,-0.97904 -4.33409,2.31826 -0.12223,5.65864 -3.3648,10.94901 -7.81368,14.27172 -0.45246,1.46326 2.30724,1.31251 3.04591,2.19109 z" />
    <path
       id="path395"
       style="fill:#000000;fill-opacity:1;stroke:#000000;stroke-width:1.00157;stroke-linecap:round;stroke-opacity:1"
       d="m 279.85841,480.00201 c 1.08342,-1.42045 4.55604,-2.9628 3.98968,-1.24747 3.47259,1.54575 3.59141,6.1088 2.74502,9.32238 -0.92876,3.15538 -3.33277,5.94892 -6.50727,6.97103 -0.70916,2.5617 -0.0278,6.12956 3.30952,5.02366 3.48743,0.83506 7.50937,4.70787 5.6212,8.50721 -2.80778,4.57164 -8.39591,6.26084 -13.0916,8.21183 -5.43534,1.4881 -1.40568,6.37741 2.52964,5.88746 4.23329,0.41953 7.95977,-2.29622 11.39622,-4.39299 4.56118,-3.08456 8.6264,-9.10131 5.98607,-14.67414 -1.91199,-3.79426 -5.24213,-6.91517 -9.05726,-8.73961 -2.85829,0.0119 -0.73185,7.20281 1.37634,2.80054 4.627,-5.19859 5.88368,-13.39333 2.25054,-19.44792 -3.04958,-4.73968 -9.88125,-4.01707 -13.89782,-1.00958 -2.62578,0.97325 2.74639,2.01199 3.34972,2.7876 z" />
    <path
       id="path397"
       style="fill:#000000;fill-opacity:1;stroke:#000000;stroke-width:1.00157;stroke-linecap:round;stroke-opacity:1"
       d="m 360.08655,493.90248 c 4.51484,-4.50819 7.71704,-10.12795 9.82342,-16.11179 1.98556,-2.57984 3.40481,-8.63813 -1.71488,-6.04555 -4.2502,1.09552 -1.70533,5.83385 -2.55576,8.88312 -0.73144,11.46871 -1.09898,22.95731 -1.72726,34.42897 -0.18493,3.58009 -1.06427,7.10911 -1.48889,10.62581 0.86326,4.27567 7.74213,3.0862 7.19392,-1.29909 0.81025,-12.28924 0.0935,-24.61855 0.40581,-36.92825 9.6e-4,-4.59387 0.0631,-9.30057 1.59586,-13.6866 -2.3092,-1.77763 -7.00685,-2.30459 -5.86721,1.87358 -0.88222,5.64838 -3.99687,10.78565 -8.13485,14.65947 -4.13517,1.72666 1.32512,2.44962 2.46984,3.60033 z" />
    <path
       id="path399"
       style="fill:#000000;fill-opacity:1;stroke:#000000;stroke-width:1.00157;stroke-linecap:round;stroke-opacity:1"
       d="m 397.4556,473.86243 c -3.02231,7.51249 -8.37722,13.76485 -13.74071,19.69174 -2.26217,2.49182 0.60778,5.55169 3.42795,5.14351 8.70914,0.42124 17.45158,0.22232 26.15652,0.67697 -1.1571,0.0605 -4.19106,0.067 -1.19827,0.33529 2.63257,0.56301 4.90697,-1.27738 6.79913,-2.79705 3.00146,-3.99155 -3.28238,-2.93248 -5.56052,-3.03014 -4.33033,-0.006 -8.66153,0.1966 -12.97077,0.62561 0.11641,0.43911 -4.72821,0.0416 -6.38419,-0.13178 -2.20686,-0.55981 -5.06433,-0.84356 -3.82739,1.76585 3.79963,-6.94924 8.48415,-13.4272 12.06596,-20.51825 -0.85522,-1.56569 -3.37774,-0.94332 -4.76771,-1.76175 z" />
    <path
       id="path401"
       style="fill:#000000;fill-opacity:1;stroke:#000000;stroke-width:1.00157;stroke-linecap:round;stroke-opacity:1"
       d="m 406.04418,483.06078 c 0.21164,11.3268 -1.22034,22.62161 -3.06303,33.77453 -0.43774,2.8092 -2.53717,6.82298 1.14161,8.35887 2.09477,1.68261 5.64746,-0.4706 6.06639,-2.89818 -0.40748,-9.37655 0.71875,-18.73946 0.47446,-28.12176 0.0205,-3.42791 -0.14003,-6.8908 0.0974,-10.28865 -0.79824,-1.716 -3.2993,-0.42609 -4.71679,-0.82481 z" />
    <path
       id="path403"
       style="fill:#000000;fill-opacity:1;stroke:#000000;stroke-width:1.00157;stroke-linecap:round;stroke-opacity:1"
       d="m 472.65482,499.02547 c 4.44151,-5.34015 8.03075,-11.55458 9.46039,-18.39447 3.12203,-2.94668 -1.26781,-5.95368 -3.2094,-2.72651 -0.66734,5.57848 -0.34563,11.28285 -1.23595,16.86793 -1.89053,12.37871 -1.73768,24.99139 -4.06944,37.30705 1.71275,4.87562 9.49469,1.70957 6.97478,-3.2646 -0.31885,-10.96171 0.79033,-21.90894 1.27024,-32.8531 0.11136,-5.52817 0.0158,-11.17156 1.52066,-16.52625 0.90672,-3.16249 -6.62742,-5.13569 -4.10782,-0.85635 -0.93128,6.96479 -3.89351,14.13746 -9.69069,18.5166 0.42765,1.27394 2.22867,1.09418 3.08723,1.9297 z" />
    <path
       id="path405"
       style="fill:#000000;fill-opacity:1;stroke:#000000;stroke-width:1.00157;stroke-linecap:round;stroke-opacity:1"
       d="m 517.89084,477.768 c -4.98185,1.11719 -11.22143,0.78949 -14.45696,5.5008 -2.38644,3.82806 -2.38587,8.60995 -3.33861,12.85564 -0.0412,4.16337 6.39279,3.22606 7.28948,2.65262 -1.902,0.0343 3.61302,0.33614 4.53686,1.3077 6.22904,2.94046 5.98387,12.36442 0.7033,16.14109 -3.90562,3.23693 -8.35347,5.68884 -13.04397,7.57029 -3.87654,1.01571 -2.76374,5.40773 1.04124,4.69618 5.53858,0.64972 10.1422,-3.3929 14.29533,-6.48586 6.24321,-4.415 10.10581,-13.35049 6.16864,-20.49608 -3.1992,-5.95414 -10.51021,-7.83565 -16.81261,-7.38265 -3.76085,0.1043 4.34004,-1.23478 2.94551,1.99686 0.18004,-4.30076 0.3115,-10.33315 5.44442,-11.66562 2.62014,-1.54838 8.20397,-0.89905 9.24074,-2.59793 -1.14131,-1.54857 -2.78469,-2.62328 -4.01337,-4.09304 z" />
    <path
       id="path407"
       style="fill:#000000;fill-opacity:1;stroke:#000000;stroke-width:1.00157;stroke-linecap:round;stroke-opacity:1"
       d="m 583.06341,498.63141 c 3.84607,-5.15859 6.93045,-10.86813 9.2808,-16.85324 -3.26547,-1.1332 -5.92101,0.93024 -4.83619,4.39516 -0.68696,11.4555 -1.26999,22.91638 -2.42468,34.33609 0.16364,3.29835 -1.33656,6.67503 -0.19921,9.84625 1.98159,3.7882 7.15544,0.34777 5.99482,-3.23942 0.0227,-13.11422 -0.56387,-26.27214 0.58343,-39.356 1.16801,-3.28906 1.09928,-8.35806 -3.79878,-6.10695 -0.0946,3.82986 -2.13255,7.30331 -3.90559,10.57834 -1.37011,2.07542 -6.23062,5.20745 -1.51474,6.03503 l 0.41005,0.18238 0.41006,0.18236 z" />
    <path
       id="path409"
       style="fill:#000000;fill-opacity:1;stroke:#000000;stroke-width:1.00157;stroke-linecap:round;stroke-opacity:1"
       d="m 614.10754,482.42866 c -3.87031,5.10181 -7.72625,10.50011 -8.92964,16.93234 -1.3986,5.84299 -2.38143,12.39488 0.18178,18.04467 2.3277,4.28383 7.227,6.96165 12.0985,6.28474 5.16025,0.0668 9.14152,-3.73257 12.52384,-7.16105 4.66729,-4.34727 2.06907,-13.50652 -4.33707,-14.43691 -6.98233,-1.81823 -15.76787,0.64833 -19.01561,7.51587 -0.32052,1.84599 1.0464,7.22656 2.53467,3.58623 3.12479,-1.22228 4.79487,-4.33417 7.95975,-5.4905 1.31922,-0.83455 6.70176,-1.16005 2.68316,-1.32587 3.92497,-0.92596 8.05115,3.07664 4.81075,6.63317 -1.22159,2.96712 -6.27325,4.99425 -7.53154,5.86825 3.56142,0.54526 -5.0397,0.41156 -5.31489,-1.99112 -3.77135,-4.34919 -2.2818,-10.62271 -1.26914,-15.71989 1.4629,-5.90574 4.45783,-11.39059 8.52176,-15.905 -0.078,-1.94485 -3.75844,-1.63157 -4.91632,-2.83493 z" />
    <path
       id="path411"
       style="fill:#000000;fill-opacity:1;stroke:#000000;stroke-width:1.00157;stroke-linecap:round;stroke-opacity:1"
       d="m 685.83155,500.62646 c 3.5344,-5.80147 6.7254,-11.78941 9.5776,-17.9539 0.4144,-2.29677 4.3856,-5.36209 3.4787,-6.93138 -5.0617,0.12119 -5.2318,5.15693 -4.6294,9.00857 -1.4005,12.32028 -1.5662,24.82022 -4.1368,36.99511 -2.7775,3.50439 2.4848,9.18341 4.6703,3.80651 1.3936,-3.81648 0.8095,-8.01906 1.0876,-12.01108 -0.043,-10.99911 0.8028,-21.98538 2.0125,-32.91051 2.5632,-3.19732 -5.5729,-8.05668 -4.0068,-2.87437 -1.4993,7.69378 -5.0658,15.2251 -10.7306,20.74088 -2.186,1.09334 2.0551,1.4747 2.6769,2.13017 z" />
    <path
       id="path413"
       style="fill:#000000;fill-opacity:1;stroke:#000000;stroke-width:1.00157;stroke-linecap:round;stroke-opacity:1"
       d="m 714.68315,479.44497 c 9.0548,3.40622 18.8902,1.12206 27.7292,-1.78049 -3.2883,-2.03551 -7.3597,-2.20811 -7.5082,2.59279 -4.8237,10.7232 -7.717,22.34106 -14.3122,32.21538 -1.6096,4.57138 -8.1982,8.96576 -6.4425,13.80485 5.7133,3.26633 7.3255,-4.96458 9.6633,-8.38439 4.9598,-8.64682 9.0001,-17.75825 12.5086,-27.07611 2.0018,-4.74505 4.2733,-9.38764 6.9972,-13.76304 -1.8688,-2.43869 -4.7491,-6.71251 -7.4692,-2.72721 -3.8683,2.00223 -8.3559,3.20024 -11.9337,2.92329 -3.7786,-1.08292 -6.3949,-0.79784 -9.2325,2.19493 z" />
    <path
       id="path415"
       style="fill:#000000;fill-opacity:1;stroke:#000000;stroke-width:1.00157;stroke-linecap:round;stroke-opacity:1"
       d="m 721.81165,507.3202 c 6.2729,-2.1348 12.8831,-2.9516 19.3652,-4.16721 2.8092,-0.90272 1.7962,-4.72923 -0.9093,-4.86897 -3.0224,-1.54128 -6.4574,-0.80495 -9.5426,0.095 -5.0487,1.12345 -10.0645,2.46825 -14.9073,4.3007 1.998,1.54684 3.996,3.09367 5.994,4.64051 z" />
    <path
       id="path56"
       style="fill:#000000;stroke:#000000;stroke-width:1.00157;stroke-linecap:round"
       d="m 798.03982,376.92399 c 7.255,12.23202 16.00452,23.45182 24.20971,35.03775 1.97431,2.61739 4.40021,8.99867 8.41805,5.36978 0.89859,-3.57654 -4.11973,-5.92256 -5.70037,-8.92927 -7.23583,-8.67153 -14.53401,-17.45348 -20.0625,-27.32837 -0.92183,-2.0304 -1.64423,-6.27953 -4.64437,-4.68242 -0.74017,0.17751 -1.48035,0.35502 -2.22052,0.53253 z" />
    <path
       id="path58"
       style="fill:#000000;stroke:#000000;stroke-width:1.00157;stroke-linecap:round"
       d="m 824.62255,374.64286 c -2.35582,8.03354 -8.39614,14.17995 -12.63389,21.21856 -4.69417,7.14694 -9.00423,14.58956 -12.61301,22.33521 -0.90743,4.22567 3.82303,3.8305 4.95359,0.54556 3.2611,-6.22317 6.08254,-12.70304 9.67539,-18.76747 3.71274,-6.73723 8.53948,-12.83984 11.33699,-20.06481 0.97328,-2.70481 4.43637,-5.29497 -0.71907,-5.26705 z" />
    <path
       id="path60"
       style="fill:#000000;stroke:#000000;stroke-width:1.00157;stroke-linecap:round"
       d="m 866.98687,326.72959 c -7.06695,1.78211 -17.71026,-1.22395 -22.4356,3.75634 -0.18366,7.47887 3.24759,14.63927 2.51751,22.27915 0.82725,21.06287 0.4824,42.28686 -3.4116,63.06322 -3.13383,6.28114 1.1744,13.704 8.40469,9.43869 5.07246,-2.53502 17.35259,-1.27779 17.09895,-6.91526 -7.54464,-0.7729 -14.96317,0.54821 -22.2919,2.21227 -1.59875,-2.5233 5.25851,4.13662 2.92629,0.003 0.13708,-11.51778 2.28011,-22.93116 1.80789,-34.47547 0.79119,-17.78665 0.73414,-35.61991 -0.53768,-53.36489 2.37359,0.0356 12.50666,-1.48716 12.35002,-1.70683 0.82204,-1.7088 2.57571,-2.70232 3.57143,-4.29064 z" />
    <path
       id="path62"
       style="fill:#000000;stroke:#000000;stroke-width:1.00157;stroke-linecap:round"
       d="m 880.53425,378.61322 c 23.74428,-8.42614 -16.46336,-8.14407 0,0 z" />
    <path
       id="path64"
       style="fill:#000000;stroke:#000000;stroke-width:1.00157;stroke-linecap:round"
       d="m 882.19552,410.00769 c 26.25962,-11.86987 -20.9392,-10.36182 0,0 z" />
    <path
       id="path66"
       style="fill:#000000;stroke:#000000;stroke-width:1.00157;stroke-linecap:round"
       d="m 919.83824,377.15713 c 21.22415,-9.4733 -17.62145,-8.66983 0,0 z" />
    <path
       id="path68"
       style="fill:#000000;stroke:#000000;stroke-width:1.00157;stroke-linecap:round"
       d="m 922.96741,412.10482 c 20.55437,-11.89453 -20.1449,-8.17151 0,0 z" />
    <path
       id="path72"
       style="fill:#000000;stroke:#000000;stroke-width:1.00157;stroke-linecap:round"
       d="m 1004.8921,401.21002 c -1.2387,1.5535 -2.138,3.3209 -2.8933,5.12342 -2.70392,4.52201 -5.92244,8.7025 -9.01672,12.95787 -0.42383,1.42621 -1.55373,4.9154 0.9925,2.95683 3.56901,-1.58192 5.77327,-4.95376 8.14112,-7.88829 2.4231,-3.38108 5.1227,-6.5999 7.1493,-10.24186 1.0278,-1.2346 0.5876,-2.53637 -1.0933,-2.30315 -1.0932,-0.20161 -2.1864,-0.40322 -3.2796,-0.60482 z" />
    <path
       id="path74"
       style="fill:#000000;stroke:#000000;stroke-width:1.00157;stroke-linecap:round"
       d="m 1035.2,373.61833 c 2.9487,-8.73016 6.9103,-17.23615 9.5343,-25.99188 -3.6,-2.50325 -6.7635,0.26845 -4.7721,4.10041 1.158,13.65912 0.02,27.36896 0.022,41.04885 0.2925,3.65577 -1.0192,7.79338 0.8348,11.08496 4.5587,4.54482 6.4956,-3.4599 4.6921,-6.86412 -1.5381,-15.42018 -1.7108,-30.99283 -0.5878,-46.44459 3.4455,-4.91981 -7.5098,-7.01547 -5.9018,-1.39247 -1.3613,7.78939 -2.4024,16.24974 -7.5582,22.57954 0.2043,1.45387 2.8178,1.05729 3.7369,1.8793 z" />
    <path
       id="path76"
       style="fill:#000000;stroke:#000000;stroke-width:1.00157;stroke-linecap:round"
       d="m 1073.1546,373.8721 c 24.6697,-9.6901 -17.061,-9.28756 0,0 z" />
    <path
       id="path78"
       style="fill:#000000;stroke:#000000;stroke-width:1.00157;stroke-linecap:round"
       d="m 1073.2755,409.9301 c 17.5979,-10.37078 -17.2514,-6.64847 0,0 z" />
    <path
       id="path80"
       style="fill:#000000;stroke:#000000;stroke-width:1.00157;stroke-linecap:round"
       d="m 1111.4884,373.78552 c 22.8509,-8.71772 -15.484,-13.61858 -1.415,-0.57238 l 1.3889,0.56182 z" />
    <path
       id="path82"
       style="fill:#000000;stroke:#000000;stroke-width:1.00157;stroke-linecap:round"
       d="m 1111.0684,411.10802 c 32.4675,-12.60837 -23.9681,-10.94814 0,0 z" />
    <path
       id="path84"
       style="fill:#000000;stroke:#000000;stroke-width:1.00157;stroke-linecap:round"
       d="m 1145.3567,345.26639 c 0.5655,-0.97518 5.874,-1.46635 2.6817,-0.73987 5.1375,0.3279 6.2218,6.94705 4.7717,10.93121 -1.8131,5.80744 -7.3749,9.31893 -12.8539,11.13932 -2.5884,7.18727 8.7595,3.73179 11.8037,8.09739 4.6006,3.54892 3.7141,10.72803 -0.3864,14.27773 -2.7883,4.77788 -9.6732,6.68708 -12.2656,10.51155 2.4444,5.34404 9.116,1.89777 12.002,-1.22045 5.729,-4.04756 11.1696,-10.23921 10.3713,-17.74804 -0.5325,-6.48156 -5.9111,-11.58429 -12.0317,-13.09212 -2.5751,-2.68045 -4.937,2.02249 -2.5768,2.53576 6.5817,-3.6493 11.8998,-10.28933 12.1052,-18.05752 0.5213,-5.22421 -2.5083,-11.33933 -8.2336,-11.82784 -2.803,0.0395 -10.1055,-0.21325 -9.554,2.87599 1.3888,0.77231 2.7776,1.54465 4.1664,2.31689 z" />
    <path
       id="path86"
       style="fill:#000000;stroke:#000000;stroke-width:1.00157;stroke-linecap:round"
       d="m 1157.2933,320.49627 c 6.8191,-0.035 19.6649,-1.21073 22.6305,-1.70417 -3.0529,-0.22055 3.9073,6.95919 2.3989,10.71605 2.9087,26.99858 0.2828,54.1904 -0.3181,81.24395 0.7592,4.49482 -4.1819,9.61706 2.0058,6.19945 -4.4852,1.21386 -18.3343,-1.32041 -23.4765,3.76583 2.5501,7.12241 16.9636,1.3915 17.6631,3.04915 7.5086,2.60527 14.04,-2.89062 10.8371,-10.84656 -2.0627,-25.36941 1.0973,-50.83667 -0.9267,-76.22347 -0.9272,-7.46967 1.8414,-18.91302 -6.0109,-23.01707 -7.467,-0.20304 -14.9589,2.39082 -22.189,3.82734 -1.1511,0.71618 -2.0086,1.79911 -2.6142,2.9895 z" />
    <path
       id="path88"
       style="fill:#000000;stroke:#000000;stroke-width:1.00157;stroke-linecap:round"
       d="m 955.3354,352.93406 c 4.8699,-5.25526 15.28591,-4.5673 17.88458,2.67577 1.35592,5.63332 -1.45181,11.34936 -3.79057,16.36734 -6.1231,11.1259 -14.17258,21.07708 -20.04958,32.35717 -4.37472,3.00253 -2.12527,9.6401 3.42511,6.54022 7.41438,-2.38131 15.10641,-3.85838 22.92307,-3.70725 2.1826,-0.64637 3.8405,0.86637 2.35536,0.20561 4.07922,1.81031 9.52923,-5.71611 2.69786,-5.00749 -10.43495,-0.20686 -20.86101,1.67509 -30.90075,4.34197 1.56625,-1.52901 3.66447,2.71102 2.52404,1.71472 5.12283,-14.63604 15.91813,-26.23177 22.65535,-40.02366 2.84584,-5.86264 4.72918,-14.45808 -1.42505,-18.9749 -6.67954,-4.92672 -15.97169,-3.06754 -22.39806,1.36268 1.3662,0.71596 2.73248,1.43177 4.09864,2.14782 z" />
  </g>
</svg>
