<?xml version="1.0" encoding="UTF-8" standalone="no"?>
<svg
   xmlns:dc="http://purl.org/dc/elements/1.1/"
   xmlns:cc="http://creativecommons.org/ns#"
   xmlns:rdf="http://www.w3.org/1999/02/22-rdf-syntax-ns#"
   xmlns:svg="http://www.w3.org/2000/svg"
   xmlns="http://www.w3.org/2000/svg"
   xmlns:sodipodi="http://sodipodi.sourceforge.net/DTD/sodipodi-0.dtd"
   xmlns:inkscape="http://www.inkscape.org/namespaces/inkscape"
   width="1200"
   height="600"
   viewBox="0 0 317.5 158.75"
   version="1.1"
   id="svg8"
   inkscape:version="1.0.1 (3bc2e813f5, 2020-09-07)"
   sodipodi:docname="reg-newsgroups.svg">
  <defs
     id="defs2" />
  <sodipodi:namedview
     id="base"
     pagecolor="#ffffff"
     bordercolor="#666666"
     borderopacity="1.0"
     inkscape:pageopacity="0.0"
     inkscape:pageshadow="2"
     inkscape:zoom="1.4142136"
     inkscape:cx="605.24145"
     inkscape:cy="298.32956"
     inkscape:document-units="mm"
     inkscape:current-layer="layer1"
     showgrid="false"
     units="px"
     inkscape:window-width="1920"
     inkscape:window-height="1061"
     inkscape:window-x="0"
     inkscape:window-y="19"
     inkscape:window-maximized="0"
     inkscape:document-rotation="0"
     inkscape:snap-global="false" />
  <metadata
     id="metadata5">
    <rdf:RDF>
      <cc:Work
         rdf:about="">
        <dc:format>image/svg+xml</dc:format>
        <dc:type
           rdf:resource="http://purl.org/dc/dcmitype/StillImage" />
        <dc:title></dc:title>
      </cc:Work>
    </rdf:RDF>
  </metadata>
  <g
     inkscape:label="Layer 1"
     inkscape:groupmode="layer"
     id="layer1"
     transform="translate(0,-138.25001)">
    <path
       id="path74"
       style="fill:#000000;stroke:#000000;stroke-width:1;stroke-linecap:round"
       d="m 85.577772,221.67187 c -16.200703,14.68441 -32.502127,29.27934 -48.649765,44.00439 -6.904109,5.63634 -14.105455,10.89181 -21.201518,16.28037 18.210269,-12.23334 33.956349,-27.6016 49.979158,-42.48277 6.399568,-6.14891 14.310174,-10.90291 19.872125,-17.80199 z" />
    <path
       id="path76"
       style="fill:#000000;stroke:#000000;stroke-width:1;stroke-linecap:round"
       d="m 17.56226,273.14195 c -2.454237,5.21163 -6.527556,9.39999 -10.3939567,13.57432 -1.2605212,3.64756 3.6704747,1.06968 5.2722087,0.53625 4.95279,-1.81144 9.85947,-3.91071 15.096862,-4.76032 -0.288698,-2.05989 -3.913211,0.87919 -5.371249,1.05785 -4.607454,1.75946 -9.341641,3.63468 -14.183029,4.32812 3.17326,-4.75578 6.349011,-9.57761 10.116175,-13.91815 0.34739,-0.37177 -0.107192,-0.90983 -0.537011,-0.81807 z" />
    <path
       id="path78"
       style="fill:#000000;stroke:#000000;stroke-width:1;stroke-linecap:round"
       d="m 57.904697,238.19847 c 66.519713,-9.73515 134.094753,-8.70404 201.141373,-8.10305 11.34843,0.39517 49.68445,2.39348 20.08806,0.63721 -66.24316,-3.079 -132.74055,-1.00652 -198.813264,4.11723 -7.500046,0.91738 -14.972279,2.05415 -22.416169,3.34861 z" />
    <path
       id="path80"
       style="fill:#000000;stroke:#000000;stroke-width:1;stroke-linecap:round"
       d="m 278.23844,220.95376 c 6.33619,3.45429 13.46855,4.88846 20.26076,7.16098 1.57551,0.83111 7.13266,0.76817 3.18705,2.205 -5.78227,4.4967 -13.30657,5.89856 -19.20237,10.24457 6.92538,-3.28793 13.91267,-6.44987 20.88671,-9.59815 4.47753,-2.95211 -2.4685,-3.54427 -4.84562,-3.7896 -6.72237,-1.33671 -13.50032,-3.16077 -19.4046,-6.75818 -0.37823,-0.003 -0.57552,0.3963 -0.88193,0.53538 z" />
    <path
       id="path82"
       style="fill:#000000;stroke:#000000;stroke-width:1;stroke-linecap:round"
       d="m 68.898774,254.80016 c -0.08069,-12.42998 2.730291,-24.65204 3.076584,-37.06485 1.247444,-14.63296 2.465474,-29.40774 0.610869,-44.04428 -0.124074,-3.39664 1.084221,-9.82967 -0.571066,-11.29345 -2.486609,6.18717 -0.0023,12.84892 0.04493,19.23279 1.532725,15.73362 -1.322015,31.42513 -1.773835,47.13734 -0.66884,8.69443 -1.986042,17.32832 -2.5065,26.03556 0.129317,0.61812 0.889882,0.0593 1.119013,-0.003 z" />
    <path
       id="path84"
       style="fill:#000000;stroke:#000000;stroke-width:1;stroke-linecap:round"
       d="m 65.563767,171.60967 c 2.22805,-5.78547 4.041509,-11.85981 7.637588,-16.98167 -0.111714,0.90091 2.326787,3.7169 2.811263,5.6379 0.791408,1.79959 2.454256,5.53818 2.910817,6.01578 -1.833677,-3.88765 -3.812688,-7.75186 -4.919173,-11.91694 -2.319923,-2.03218 -2.772354,2.47444 -3.300946,3.93712 -1.414908,3.615 -2.997517,7.19442 -4.714265,10.65792 -0.313829,0.61357 -2.120976,2.61793 -0.425284,2.64989 z" />
    <path
       id="path86"
       style="fill:#000000;stroke:#000000;stroke-width:1;stroke-linecap:round"
       d="m 63.961179,230.66004 c 8.23213,8.11161 20.017484,11.68425 27.3973,20.80104 10.925071,9.43284 22.947611,17.55549 34.989231,25.44596 9.92261,3.8998 -6.13415,-2.82011 -8.74666,-5.66863 -9.70992,-7.54584 -20.324717,-13.9076 -29.079386,-22.62279 -5.809662,-6.00661 -13.409808,-9.55577 -20.103607,-14.31563 -1.484775,-1.21421 -2.917436,-2.49361 -4.456878,-3.63995 z" />
    <path
       id="path88"
       style="fill:#000000;stroke:#000000;stroke-width:1;stroke-linecap:round"
       d="m 128.50017,270.86134 c 2.61686,2.73001 4.48362,6.09228 7.22863,8.71005 2.27856,3.10011 -3.00419,2.13289 -4.73278,2.64364 -3.20702,0.26176 -6.429,0.25241 -9.63665,0.50402 -0.66005,0.22461 -2.96582,0.14083 -0.63495,0.21907 5.50907,0.0499 11.03281,-0.22537 16.52394,-0.4985 2.07542,-2.06329 -2.51826,-3.10626 -3.21895,-4.90205 -2.02316,-2.01888 -3.37704,-4.81055 -5.1042,-6.83241 z" />
    <path
       id="path90"
       style="fill:#000000;stroke:#000000;stroke-width:1;stroke-linecap:round"
       d="m 52.798805,243.51222 c 29.000941,-12.38404 56.250005,-28.43121 84.092185,-43.16137 5.55018,-2.99096 24.5224,-13.95607 9.81917,-5.64983 -30.91875,16.95233 -61.691003,34.44391 -93.911355,48.8112 z" />
    <path
       id="path92"
       style="fill:#000000;stroke:#000000;stroke-width:1;stroke-linecap:round"
       d="m 144.10007,189.39971 c 5.59084,-0.52759 10.94641,-2.33526 16.46076,-3.29632 -3.21287,3.85292 -6.06251,8.0037 -9.45717,11.70551 2.71318,-3.76269 6.54767,-6.6517 8.75932,-10.78587 -0.90493,-1.54701 -3.12448,-0.0349 -4.52649,-0.018 -3.11247,0.89873 -6.21931,2.19353 -9.51813,1.99983 -0.57875,0.1032 -1.15409,0.22888 -1.71829,0.39488 z" />
    <path
       id="path96"
       style="fill:#000000;stroke:#000000;stroke-width:1;stroke-linecap:round"
       d="m 249.55092,243.61654 c 1.01156,2.761 1.57267,5.67331 1.80359,8.60043 -0.26477,1.94863 2.01683,-0.0686 1.33984,-1.18875 0.15927,-2.08732 0.60796,-4.1361 0.9578,-6.19613 -1.59242,0.38909 0.6816,1.99027 0.55462,2.99994 0.97497,1.40324 0.45755,3.95026 2.05849,4.70522 1.66384,-0.30459 1.05297,-2.42408 1.41673,-3.6204 0.0428,-0.98426 0.75634,-3.27384 -0.091,-3.53171 -1.02955,1.85937 -0.53096,4.16642 -1.60336,6.00057 1.23199,0.93818 -0.44216,-0.68659 -0.55409,-1.31516 -0.85536,-1.69014 -1.11674,-3.59037 -1.56851,-5.39872 -1.29832,-1.07116 -1.46831,1.58939 -1.33128,2.45768 -0.13076,1.81105 -0.55965,3.59418 -1.20299,5.28988 1.77099,0.45223 -0.14661,-1.5198 0.0146,-2.42763 -0.38021,-1.61085 -0.76027,-3.24097 -0.98142,-4.87129 -0.0244,-0.52117 0.12169,-1.90356 -0.81302,-1.50393 z" />
    <path
       id="path98"
       style="fill:#000000;stroke:#000000;stroke-width:1;stroke-linecap:round"
       d="m 261.90335,244.31089 c 0.32796,2.63931 0.62638,5.29902 0.65431,7.95501 0.003,0.78417 1.16773,1.19218 1.02658,0.10938 -0.0522,-1.79554 -0.52022,-3.55026 -0.6586,-5.34147 -0.10082,-0.91402 -0.18283,-1.83012 -0.24568,-2.74754 -0.25887,0.008 -0.51777,0.0165 -0.77661,0.0246 z" />
    <path
       id="path100"
       style="fill:#000000;stroke:#000000;stroke-width:1;stroke-linecap:round"
       d="m 261.68007,241.77238 c 0.57182,-0.6409 2.11674,-1.94881 1.42652,-2.54259 -0.84477,0.35652 -2.91551,1.11516 -2.18311,2.20657 0.24778,0.12202 0.53083,0.16963 0.75659,0.33602 z" />
    <path
       id="path102"
       style="fill:#000000;stroke:#000000;stroke-width:1;stroke-linecap:round"
       d="m 268.35216,253.14245 c -0.4557,-2.5461 -0.27801,-5.14912 -0.0184,-7.70609 -1.76908,-0.0485 0.63666,2.43518 0.84347,3.25877 1.14549,1.1942 1.24346,5.2535 3.46236,3.95829 1.08887,-1.71644 -0.0274,-3.84352 0.67039,-5.732 0.41606,-0.84206 0.43998,-4.1339 -0.84213,-2.34773 -0.63665,1.89523 -0.44522,3.96119 -0.99634,5.899 -0.58645,1.01336 -0.18828,2.56034 0.84531,1.30527 -1.31851,-1.55257 -2.43859,-3.36481 -3.14656,-5.31428 0.54834,-1.76593 -2.57196,-2.45146 -2.22328,-0.43697 0.51211,2.31203 -0.34436,4.8493 0.0462,7.10971 0.4228,0.23628 0.91158,-0.0341 1.35899,0.006 z" />
    <path
       id="path104"
       style="fill:#000000;stroke:#000000;stroke-width:1;stroke-linecap:round"
       d="m 278.06422,244.39775 c 0.28402,2.51162 0.0117,5.03865 -0.0586,7.55019 -0.11575,0.93665 0.82475,2.12044 0.88592,0.58084 0.24479,-1.53673 -0.0859,-3.09184 0.0317,-4.63665 -0.16034,-1.10287 0.17188,-2.74896 -0.26333,-3.51176 -0.19856,0.006 -0.39799,0.0111 -0.59568,0.0174 z" />
    <path
       id="path106"
       style="fill:#000000;stroke:#000000;stroke-width:1;stroke-linecap:round"
       d="m 276.98004,244.68271 c 2.35399,-0.84775 5.19183,0.34958 6.44336,2.45556 0.65176,1.86914 -0.69651,3.66941 -1.72715,5.11653 -0.79011,0.47629 -0.89085,2.0606 0.24959,1.08837 1.37889,-1.35617 2.63724,-3.13279 2.68061,-5.13352 -0.27658,-2.11083 -2.32382,-3.33709 -4.1154,-4.08439 -1.143,-0.28209 -3.22879,-0.62879 -3.82579,0.36365 l 0.1168,0.0932 0.17799,0.10065 z" />
    <path
       id="path108"
       style="fill:#000000;stroke:#000000;stroke-width:1;stroke-linecap:round"
       d="m 291.6533,244.18083 c -1.51666,2.0284 -3.01694,4.57541 -2.24051,7.19739 0.17902,1.60055 1.55059,3.18234 3.27875,2.60673 1.979,-0.40944 3.39047,-2.55954 2.86298,-4.53744 0.0341,-1.46657 -1.58994,-3.81433 -3.03471,-2.29258 0.99931,0.83216 2.07198,2.08084 1.66092,3.60618 -0.18758,1.33506 -2.06323,3.01212 -3.26272,1.81935 -1.53876,-1.8035 -1.05543,-4.56251 0.25982,-6.33636 0.4907,-0.62333 2.13203,-1.71685 0.47547,-2.06327 z" />
    <path
       id="path110"
       style="fill:#000000;stroke:#000000;stroke-width:1;stroke-linecap:round"
       d="m 298.45158,244.17275 c 1.16615,2.30233 1.52201,4.8944 1.84837,7.42357 -0.68748,1.7968 2.21986,2.6981 1.96951,0.41562 -0.0709,-0.86376 0.25508,-3.21591 1.02242,-2.74962 0.87904,0.9459 1.04247,3.62127 2.86303,2.72353 1.50099,-0.65353 1.16451,-2.43859 1.51359,-3.72766 0.30855,-1.29152 0.87492,-2.86584 0.31096,-4.08337 -1.06222,1.14746 -1.05499,2.77723 -1.53854,4.18617 -0.37764,0.89785 -1.10955,2.67469 0.0307,2.70706 -1.61747,-0.29852 -1.98415,-3.00257 -3.86223,-2.77386 -1.33172,0.72055 -0.71756,2.67158 -1.64832,3.74923 -1.29586,0.6825 1.63647,0.72308 0.17649,-0.24657 -1.03015,-2.08906 -1.57138,-4.39125 -1.78344,-6.70269 0.33478,-0.60976 -0.24717,-1.36979 -0.90252,-0.92141 z" />
    <path
       id="path114"
       style="fill:#000000;stroke:#000000;stroke-width:1;stroke-linecap:round"
       d="m 13.775612,162.68141 c -0.234333,-3.16975 0.569373,-6.28059 0.868866,-9.41672 -2.310667,-0.13967 0.1921,2.44668 0.441902,3.54593 0.948771,1.99865 1.835361,4.03254 2.514767,6.14025 2.099165,0.49446 1.737565,-2.2953 1.722693,-3.58712 0.124451,-2.10483 0.352747,-4.22384 0.991384,-6.24223 -1.769484,0.34011 0.888376,1.71064 0.954939,2.81434 1.130708,1.92574 1.570355,4.12606 2.316744,6.19419 1.1122,1.35475 1.434072,-0.97906 0.520474,-1.65283 -1.437067,-2.49081 -1.978351,-5.38271 -3.436559,-7.87005 -1.897759,-1.31934 -2.240046,1.8126 -2.092914,3.07562 -0.226124,2.17859 -0.438803,4.36484 -0.89803,6.50956 1.613734,0.72997 0.870728,-0.89007 0.161777,-1.48362 -1.376967,-2.31148 -2.194348,-4.89127 -3.05637,-7.42391 -2.01864,-1.35707 -1.876033,1.75785 -1.651258,2.9643 -0.04173,2.04616 -0.309845,4.08416 -0.520334,6.11088 0.139552,0.48287 0.787002,0.42804 1.161919,0.32141 z" />
    <path
       id="path116"
       style="fill:#000000;stroke:#000000;stroke-width:1;stroke-linecap:round"
       d="m 26.443383,152.7517 c -0.677376,2.50709 -0.658971,5.66447 1.43893,7.5092 1.434273,1.12085 3.478638,0.27476 4.104249,-1.32224 1.02063,-1.68545 1.558935,-4.07801 0.250931,-5.7577 -0.606492,-0.94026 -3.006092,-1.21612 -2.824485,0.24838 0.399932,0.22048 1.328774,0.0814 1.087658,0.22716 1.137341,0.39072 1.245675,1.82073 1.164484,2.85683 -0.20615,1.30782 -0.904755,2.66972 -2.108406,3.30498 -1.295197,0.33671 -2.172306,-1.06531 -2.501709,-2.1274 -0.303433,-1.09416 -0.365615,-2.29147 -0.116594,-3.39299 0.341787,-0.79647 0.846615,-1.57787 -0.495058,-1.54622 z" />
    <path
       id="path118"
       style="fill:#000000;stroke:#000000;stroke-width:1;stroke-linecap:round"
       d="m 38.114334,151.5058 c -1.715514,2.55702 -2.220601,6.36763 -0.0557,8.82241 1.467634,1.43781 3.918315,0.64943 4.960017,-0.91513 1.434983,-1.73608 1.58292,-4.74581 -0.417303,-6.1275 -0.733534,-1.12483 -3.628939,-0.0145 -1.659369,0.72913 1.366665,0.22497 2.027812,1.68278 1.879543,2.94805 -0.173712,1.56166 -1.413384,2.97356 -2.93903,3.31424 -1.820249,-0.13576 -2.639406,-2.23056 -2.678957,-3.82212 -0.04812,-1.69233 0.621869,-3.4027 1.836589,-4.58715 -0.308598,-0.12064 -0.617211,-0.24124 -0.925789,-0.36193 z" />
    <path
       id="path120"
       style="fill:#000000;stroke:#000000;stroke-width:1;stroke-linecap:round"
       d="m 47.899006,159.31838 c 0.341382,-2.86598 0.467639,-5.76515 1.082485,-8.59261 -1.873993,0.0542 0.595124,1.77608 0.762037,2.73653 1.046602,1.78469 2.252585,3.50552 3.317084,5.25118 1.591187,0.95285 2.569154,-1.04224 2.142247,-2.40222 -0.06699,-1.71876 0.543788,-3.35606 0.702597,-5.03917 -0.597464,-2.08081 -2.647676,0.0372 -2.079286,1.44837 -0.117819,1.86384 -0.365347,3.72142 -0.725098,5.55416 0.623378,-0.1762 2.661559,-0.10575 1.064888,-0.57069 -1.498183,-1.11012 -2.504625,-2.77876 -3.404422,-4.38346 -0.766731,-1.02702 -1.343119,-4.81612 -3.06918,-3.00774 -0.412794,1.3593 0.130539,2.84694 -0.224182,4.27508 -0.16059,1.51453 -0.450508,3.01534 -0.865351,4.48077 0.35567,0.33201 0.887182,0.056 1.296181,0.2498 z" />
    <path
       id="path124"
       style="fill:#000000;stroke:#000000;stroke-width:1;stroke-linecap:round"
       d="m 104.58258,193.91564 c -1.98703,1.93428 -2.71999,6.20183 1e-4,7.78364 2.16279,1.32649 6.0803,-2.8771 3.07306,-3.72912 -1.10583,1.58234 1.35789,3.25327 1.64583,4.87543 0.0863,1.15133 2.28242,3.70573 1.29146,1.15217 -0.83073,-1.67187 -1.44362,-4.85313 -2.90713,-5.39752 -0.001,1.62604 -0.99737,3.46236 -2.94598,2.47356 -2.54505,-1.72616 -0.90483,-4.98962 0.31935,-6.87812 l -0.0878,-0.11378 z" />
    <path
       id="path126"
       style="fill:#000000;stroke:#000000;stroke-width:1;stroke-linecap:round"
       d="m 109.37484,192.30097 c 1.00488,1.73992 1.52493,3.69501 2.15042,5.58939 -0.53286,1.28798 2.04835,1.3273 0.86267,-0.006 -0.76386,-1.83831 -1.42877,-3.71534 -2.10111,-5.58841 -0.22424,-0.30502 -0.63481,-0.0711 -0.91198,0.005 z" />
    <path
       id="path128"
       style="fill:#000000;stroke:#000000;stroke-width:1;stroke-linecap:round"
       d="m 109.74192,191.95256 c 0.51322,-1.29215 2.8691,-2.62553 3.38773,-0.64492 0.17956,1.09682 -1.64821,2.06737 -0.43664,3.01418 1.23987,0.95531 2.31866,2.10402 3.5847,3.03009 1.14234,0.36052 0.99344,-1.26793 0.0173,-1.29574 -0.89654,-0.76619 -2.64377,-1.59147 -2.6948,-2.67954 0.99199,-1.22627 0.36303,-3.92804 -1.50846,-3.63136 -0.99651,0.34466 -2.53982,1.02085 -2.73109,2.07447 l 0.14316,0.0796 0.23837,0.0532 z" />
    <path
       id="path132"
       style="fill:#000000;stroke:#000000;stroke-width:1;stroke-linecap:round"
       d="m 120.0785,195.77705 c -0.003,-2.75437 -0.57275,-5.49513 -0.30148,-8.25169 -0.46211,-0.99983 -1.62083,0.65079 -0.3879,0.84803 1.48173,1.78798 2.89313,3.64326 4.51137,5.31216 1.14247,0.42227 1.46226,-1.30224 0.25649,-1.40724 -1.82637,-1.37474 -3.20713,-3.25458 -4.28966,-5.24919 -1.18676,-0.7455 -1.98688,0.75713 -1.23978,1.68324 0.4336,2.2986 0.58397,4.65425 0.40124,6.98752 0.33183,0.18838 0.70371,-0.0328 1.04972,0.0772 z" />
    <path
       id="path134"
       style="fill:#000000;stroke:#000000;stroke-width:1;stroke-linecap:round"
       d="m 120.74432,193.58173 c 1.90679,0.30789 1.92373,-3.33227 -2.7e-4,-1.87522 -0.78695,0.35213 -1.13803,1.74488 2.7e-4,1.87522 z" />
    <path
       id="path136"
       style="fill:#000000;stroke:#000000;stroke-width:1;stroke-linecap:round"
       d="m 125.12687,183.52719 c 1.59167,2.21706 2.18977,4.93877 3.39002,7.34614 0.87493,1.00047 1.23875,-0.53617 0.60714,-1.12413 -1.1279,-2.11582 -2.01102,-4.34815 -3.00727,-6.52662 -0.32996,0.10154 -0.65993,0.20306 -0.98989,0.30461 z" />
    <path
       id="path138"
       style="fill:#000000;stroke:#000000;stroke-width:1;stroke-linecap:round"
       d="m 125.99176,183.59883 c 1.18037,-0.63055 2.91079,-1.19116 3.92369,0.0326 1.09083,1.42706 0.19336,3.26386 -0.35516,4.72032 -0.51698,0.59347 -0.65786,2.74955 0.37601,1.46751 0.98815,-1.77633 1.97172,-3.94978 1.21573,-5.99033 -0.59649,-1.54804 -2.58317,-1.75194 -3.99267,-1.35538 -0.48708,0.27099 -2.84462,0.45689 -1.1676,1.12527 z" />
    <path
       id="path140"
       style="fill:#000000;stroke:#000000;stroke-width:1;stroke-linecap:round"
       d="m 133.47343,179.68206 c 1.0613,1.5906 1.84624,3.35921 2.42434,5.17269 0.1214,0.84712 1.61788,1.31673 1.38207,0.10699 -0.23433,-0.90343 -0.8154,-1.66907 -1.15832,-2.53429 -0.42476,-0.92347 -0.94174,-1.81376 -1.27202,-2.77453 -0.31384,-0.53595 -0.94632,-0.007 -1.37607,0.0291 z" />
    <path
       id="path142"
       style="fill:#000000;stroke:#000000;stroke-width:1;stroke-linecap:round"
       d="m 133.78805,177.45201 c 1.0459,-0.50198 0.80708,-2.58348 -0.55634,-1.8587 -1.25264,0.17247 -0.97725,1.88181 0.24023,1.6895 0.11146,0.0437 0.21959,0.0978 0.31611,0.1692 z" />
    <path
       id="path144"
       style="fill:#000000;stroke:#000000;stroke-width:1;stroke-linecap:round"
       d="m 138.57681,177.69092 c 1.03924,1.41112 1.81418,3.04022 2.19964,4.7511 0.36278,0.75618 -0.36733,2.43712 0.89171,2.38461 0.73677,-0.1094 1.352,-0.53548 1.75917,-1.15944 0.36535,-0.59003 1.19593,-0.97247 1.227,-1.71326 -0.0687,-0.94387 -1.11814,-0.67077 -1.699,-0.37337 -0.63642,0.52991 -1.07504,1.27702 -1.68457,1.84844 -0.43545,0.42177 1.11187,-0.36819 1.24394,0.36572 -0.28335,0.0417 -0.62369,-0.99545 -0.86605,-1.42355 -0.59904,-1.41318 -1.07251,-2.87801 -1.71436,-4.27269 -0.19264,-0.92068 -0.6708,-0.68939 -1.35748,-0.40756 z" />
    <path
       id="path146"
       style="fill:#000000;stroke:#000000;stroke-width:1;stroke-linecap:round"
       d="m 141.25913,180.4331 c 0.54449,-0.593 1.17493,-1.10451 1.67911,-1.73488 -0.074,-0.30639 -0.0278,-0.96028 -0.53138,-0.77198 -0.37435,0.0263 -0.80422,-0.0675 -1.10405,0.22376 -0.50905,0.44918 -0.97715,0.94372 -1.49531,1.3832 0.13989,0.48799 0.74132,0.4704 1.10475,0.70243 0.1167,0.0639 0.22936,0.13505 0.34688,0.19747 z" />
    <path
       id="path148"
       style="fill:#000000;stroke:#000000;stroke-width:1;stroke-linecap:round"
       d="m 139.12887,177.39798 c 0.96055,-0.8172 1.72525,-1.82779 2.58675,-2.74214 0.28043,-0.77205 -0.46222,-1.38773 -1.16149,-0.95774 -0.87324,0.26359 -1.17213,1.22885 -1.80933,1.7904 -0.40047,0.44654 -1.58878,1.39312 -0.37339,1.60608 0.25321,0.0942 0.5375,0.13759 0.75746,0.3034 z" />
    <path
       id="path150"
       style="fill:#000000;stroke:#000000;stroke-width:1;stroke-linecap:round"
       d="m 149.05553,180.18516 c -0.49221,-1.99363 -0.85431,-4.02141 -1.03845,-6.06735 -0.0409,0.66778 -1.99738,0.0637 -0.86795,0.82073 1.07458,1.18787 2.0881,2.43847 3.03105,3.73017 0.2632,0.85399 1.12655,1.48372 1.95857,0.89172 0.85789,-0.40584 0.35347,-1.47225 0.39412,-2.1971 -0.27775,-2.04653 -0.089,-4.11029 -0.17334,-6.16446 0.0211,-0.63558 -0.42497,-1.9324 -1.14991,-1.70507 -0.78107,0.68788 -0.72708,1.79612 -0.63532,2.74153 0.12236,2.05925 0.41244,4.12272 0.22626,6.18754 0.34012,-0.0172 1.924,0.13659 0.9101,-0.0858 -1.0802,-0.7037 -1.84277,-1.79778 -2.5899,-2.82973 -0.53144,-0.54713 -0.59562,-1.57367 -1.36579,-1.80423 -0.96615,-0.39438 -1.75271,0.39139 -1.12112,1.30403 0.45021,1.62677 0.9673,3.28324 0.87375,4.99087 0.11861,0.58567 1.11282,0.0612 1.54793,0.18718 z" />
    <path
       id="path152"
       style="fill:#000000;stroke:#000000;stroke-width:1;stroke-linecap:round"
       d="m 157.68973,168.16523 c 1.1737,2.2069 1.73003,4.68377 2.48865,7.03272 0.26232,0.92936 1.69318,0.85815 1.18707,-0.25897 -0.50918,-1.45036 -1.12919,-2.86081 -1.59924,-4.32767 -0.30725,-0.89585 -0.59255,-1.79961 -0.83742,-2.71462 -0.41302,0.0895 -0.82603,0.17909 -1.23906,0.26854 z" />
    <path
       id="path154"
       style="fill:#000000;stroke:#000000;stroke-width:1;stroke-linecap:round"
       d="m 155.79059,170.52501 c 2.29743,-1.53181 4.32204,-3.45241 6.66331,-4.91265 0.77562,-0.50284 1.01326,-2.12213 -0.31851,-1.37474 -1.82878,0.62438 -3.00045,2.29843 -4.65905,3.22342 -0.90098,0.77921 -2.54052,1.33538 -2.97065,2.26699 0.31801,0.42409 0.92827,0.42116 1.2849,0.79698 z" />
    <path
       id="path156"
       style="fill:#000000;stroke:#000000;stroke-width:1;stroke-linecap:round"
       d="m 8.4417918,261.08192 c -1.8031812,2.64408 -1.8769896,6.83991 0.7908647,8.94348 1.8430015,1.19445 4.0978085,-0.18344 4.7246735,-2.0755 1.007369,-0.82631 0.805408,-3.52279 -0.795509,-2.05641 0.02516,1.66545 1.540842,3.04659 2.030915,4.6719 0.428383,1.52441 2.589943,0.62441 1.280818,-0.61986 -1.034926,-1.23542 -1.242411,-3.39621 -2.239419,-4.29293 -2.353093,-0.0941 -0.621101,3.33016 -2.903971,3.81659 -1.7514413,0.65596 -2.8596841,-1.52014 -3.0557633,-2.95599 -0.2105529,-1.51121 0.1919072,-3.08998 1.0567367,-4.34197 1.1655746,-0.56504 -0.5120726,-0.81775 -0.8893456,-1.08931 z" />
    <path
       id="path160"
       style="fill:#000000;stroke:#000000;stroke-width:1;stroke-linecap:round"
       d="m 26.891178,260.86336 c -0.942758,-2.85498 -1.901726,-5.73715 -2.443354,-8.69288 0.555026,-1.16959 -1.667634,-1.31193 -0.750674,-0.44046 2.551798,1.43535 4.876888,3.26983 7.076768,5.20303 1.415658,0.60121 1.409012,-1.62551 0.08694,-1.59735 -2.331965,-1.54289 -4.761714,-3.0135 -6.689427,-5.06943 -2.556818,-0.0571 -0.836306,2.60595 -0.387142,3.88206 0.783572,2.24456 1.400568,4.55732 1.684236,6.92144 0.474219,-0.0688 0.948421,-0.13772 1.422656,-0.20641 z" />
    <path
       id="path162"
       style="fill:#000000;stroke:#000000;stroke-width:1;stroke-linecap:round"
       d="m 27.052372,257.08161 c 0.164406,-0.68633 0.971092,-1.09821 1.037508,-1.76404 0.06756,-0.57136 -0.389058,-0.98076 -0.931562,-0.69486 -0.671434,0.0187 -1.102082,0.53694 -1.440328,1.05149 -0.274715,0.29826 -0.867808,0.8907 -0.08625,0.93663 0.478769,0.1323 0.94294,0.32565 1.420634,0.47078 z" />
    <path
       id="path164"
       style="fill:#000000;stroke:#000000;stroke-width:1;stroke-linecap:round"
       d="m 30.222748,246.29851 c 1.761321,2.25297 3.4418,4.57861 4.864683,7.06268 0.154855,1.73247 2.412544,1.26366 2.897352,-0.0298 0.628504,-1.34188 3.52846,-2.13014 2.584682,-3.69551 -1.727433,-0.0545 -2.952563,1.71087 -4.176187,2.77418 -0.970237,0.54187 -0.416067,1.24521 0.528633,0.95124 -1.452647,-0.7513 -2.246687,-2.3169 -3.262374,-3.53526 -1.202778,-0.97037 -1.312235,-3.44876 -2.776279,-3.75643 -0.224375,0.0643 -0.436703,0.16288 -0.66051,0.22894 z" />
    <path
       id="path166"
       style="fill:#000000;stroke:#000000;stroke-width:1;stroke-linecap:round"
       d="m 142.83995,266.89625 c 0.40956,2.80827 0.14855,5.66204 -0.28215,8.4511 -0.97614,1.71402 1.80937,1.85556 2.75023,1.09404 2.06873,-0.58004 4.23219,-0.59298 6.35858,-0.76447 1.22057,-1.35258 -1.83822,-1.59701 -2.70356,-1.09869 -2.10526,0.29979 -4.4033,0.12848 -6.29685,1.2268 -0.10436,1.03383 1.91545,0.93434 1.00023,-0.21384 -0.18359,-2.76523 -0.19609,-5.57181 0.18995,-8.30838 -0.0595,-0.50423 -0.65195,-0.47707 -1.01643,-0.38656 z" />
    <path
       id="path168"
       style="fill:#000000;stroke:#000000;stroke-width:1;stroke-linecap:round"
       d="m 155.01794,275.4934 c 0.73202,-3.35471 0.45263,-6.89652 1.65621,-10.15284 -0.20644,-0.1128 -1.40557,0.41334 -0.33002,0.87086 1.0502,1.52655 1.66975,3.30398 2.54413,4.93382 0.29962,0.80261 1.41724,3.33396 2.17794,1.95444 -0.43036,-1.65151 -1.70455,-2.9054 -2.36796,-4.45971 -1.09506,-1.24837 -0.76009,-3.69529 -2.45076,-4.28167 -1.78497,0.33713 -0.44366,2.88804 -1.09536,4.19608 -0.26958,2.22723 -0.87432,4.40581 -1.17139,6.62212 0.0979,0.49636 0.70837,0.21261 1.03721,0.3169 z" />
    <path
       id="path170"
       style="fill:#000000;stroke:#000000;stroke-width:1;stroke-linecap:round"
       d="m 156.76345,272.54608 c 0.71269,-0.42655 1.54543,-0.64854 2.2049,-1.15739 0.15958,-0.34132 0.81981,-0.9134 0.89321,-0.81286 -0.85288,0.17423 -1.73481,-0.0932 -2.57166,0.19731 -0.64894,0.17055 -1.26667,0.43705 -1.90425,0.64295 0.3581,0.48057 0.94392,0.72425 1.3778,1.12999 z" />
    <path
       id="path172"
       style="fill:#000000;stroke:#000000;stroke-width:1;stroke-linecap:round"
       d="m 162.92053,264.19482 c 1.58879,2.47744 2.66998,5.34356 2.93085,8.27343 0.99035,1.39335 2.68618,-0.45412 1.83733,-1.68004 -0.23724,-1.0582 0.22939,-3.32933 0.55406,-3.48125 0.10847,1.31481 2.0842,2.02217 2.39707,3.5404 0.70356,2.09334 3.85254,1.71472 3.61159,-0.64768 -0.15357,-2.04945 0.69098,-3.94258 0.98209,-5.91858 -0.60713,-2.35687 -2.48255,0.54816 -2.10299,1.8419 0.12157,1.48966 -1.27554,3.36247 -0.72659,4.45499 1.12786,0.59564 -1.59606,-1.24879 -1.75033,-1.84023 -0.87391,-1.11293 -2.87385,-3.82214 -3.9363,-1.44219 0.24654,1.64146 -0.65008,3.21524 -0.44974,4.85348 2.15267,0.43132 -0.33796,-2.27086 -0.27847,-3.37096 -0.5663,-1.66096 -1.09198,-3.33827 -1.7685,-4.95907 -0.43337,0.12519 -0.86672,0.25094 -1.30007,0.3758 z" />
    <path
       id="path176"
       style="fill:#000000;stroke:#000000;stroke-width:1;stroke-linecap:round"
       d="m 54.404471,233.973 c 13.434459,2.26053 27.183723,3.24724 40.184723,7.57256 4.144725,-1.59972 -3.864794,-2.34508 -5.405982,-2.75201 -8.88624,-2.17975 -17.901883,-3.83558 -27.041943,-4.39855 -2.492761,0.27325 -5.829077,-2.13703 -7.736798,-0.422 z" />
    <path
       id="path178"
       style="fill:#000000;stroke:#000000;stroke-width:1;stroke-linecap:round"
       d="m 94.272316,237.89044 c 2.148254,1.07488 4.497537,1.74669 6.513714,3.08077 -1.556487,1.06471 -3.252863,1.87617 -4.975184,2.62738 -1.24071,0.32662 -1.683984,2.06999 -0.04444,1.19853 1.673343,-0.39237 3.122925,-1.37986 4.741724,-1.93911 1.46148,-0.25743 3.38301,-2.14444 1.42038,-3.19192 -2.118689,-0.59923 -4.278549,-1.26568 -6.145874,-2.47999 -0.628156,-0.16276 -0.984394,0.52782 -1.510322,0.70434 z" />
    <path
       id="path180"
       style="fill:#000000;stroke:#000000;stroke-width:1;stroke-linecap:round"
       d="m 65.167131,221.90101 c 2.02758,7.07115 2.822214,14.77814 7.312835,20.86797 1.289423,2.17121 1.49841,8.00714 3.898397,7.66001 -0.06561,-3.30531 -2.607349,-5.91724 -3.509251,-9.02551 -2.149759,-4.27559 -4.168723,-8.69148 -5.200718,-13.36012 -0.915017,-1.92921 0.88055,-6.19194 -2.501263,-6.14235 z" />
    <path
       id="path182"
       style="fill:#000000;stroke:#000000;stroke-width:1;stroke-linecap:round"
       d="m 71.684656,251.44892 c 2.035537,1.29868 3.916858,2.83361 5.822821,4.29559 1.623461,0.87471 3.112328,-0.63172 2.93264,-2.26849 0.351069,-1.90422 0.575938,-3.90589 -0.05375,-5.77903 -0.138836,-0.89994 -0.384833,1.20467 -0.625005,1.43483 -0.623715,1.51236 -0.484723,3.21485 -1.229536,4.67824 -0.537554,0.92479 1.325781,0.92038 -0.121721,0.73672 -2.034569,-0.59253 -3.793875,-1.92238 -5.356294,-3.31793 -0.364949,-0.52476 -1.016197,-0.0653 -1.369158,0.22007 z" />
    <path
       id="path184"
       style="fill:#000000;stroke:#000000;stroke-width:1;stroke-linecap:round"
       d="m 62.377645,251.88687 c 4.350791,-11.68664 9.475502,-23.11223 15.763743,-33.89191 -2.015845,-3.1496 -4.579303,7.05745 -6.459807,9.18543 -3.42762,7.60064 -7.022626,15.19695 -9.662966,23.09766 -0.09569,0.54031 -0.104916,1.21384 0.35903,1.60882 z" />
    <path
       id="path186"
       style="fill:#000000;stroke:#000000;stroke-width:1;stroke-linecap:round"
       d="m 74.321923,215.67125 c 1.712953,-1.20109 4.450227,-3.00437 5.619132,-3.69539 0.242199,1.71839 1.407627,3.6999 1.388435,5.75585 -0.08031,1.56821 2.096693,2.76091 1.56482,0.43763 -0.723366,-2.23417 -0.597007,-4.91708 -2.068396,-6.79006 -2.300817,-1.70143 -3.649949,1.99144 -5.702315,2.54311 -1.089482,0.80176 -3.014738,0.57497 -0.801676,1.74886 z" />
    <path
       id="path456"
       style="fill:#000000;stroke:#000000;stroke-width:1;stroke-linecap:round"
       d="m 16.321003,257.20356 c -1.292892,1.55341 -1.217416,3.96344 0.02242,5.5256 0.761445,1.29444 2.008985,3.20038 3.764893,2.62566 1.085943,-0.74624 1.26065,-2.23502 1.467594,-3.44127 0.247277,-2.02413 -0.438321,-4.37359 -2.310114,-5.41388 -1.073668,-0.9251 -3.196289,1.42903 -1.505594,1.67068 0.896348,-0.30225 0.280209,-1.66376 1.32183,-0.78512 1.931098,1.17411 2.115247,3.81253 1.624127,5.80321 -0.146559,1.38379 -1.539537,2.41154 -2.540772,1.02167 -1.101918,-1.33749 -2.303449,-2.96119 -2.055691,-4.79923 -0.25397,-0.93433 1.799439,-1.94205 0.211308,-2.20732 z" />
    <path
       id="path541"
       style="fill:#d40055;stroke:#d40055;stroke-width:1;stroke-linecap:round"
       d="m 6.3978773,235.73381 c -1.283637,1.71867 -2.264914,5.32052 0.48838,6.15348 2.611477,0.27023 5.3081497,-2.20955 5.2604127,-4.79781 -0.274839,-1.70048 -3.5491977,-1.18623 -1.746427,0.25132 -0.396225,1.32176 -2.1529947,4.37733 -3.5478107,2.32354 -0.618389,-1.31786 2.475436,-3.73308 -0.454555,-3.93053 z" />
    <path
       id="path543"
       style="fill:#d40055;stroke:#d40055;stroke-width:1;stroke-linecap:round"
       d="m 49.500861,256.69101 c -1.381226,1.13743 -2.265697,3.48286 -0.840432,4.92792 1.356451,1.46719 4.186332,1.36571 5.095846,-0.54944 0.952321,-1.21932 0.777983,-3.57965 -1.088852,-3.67628 -1.138628,-0.19796 -1.945782,1.59323 -0.393654,1.3497 0.636179,-0.0808 0.905819,2.0825 -0.33177,2.5806 -1.56379,1.28081 -3.655101,-0.96501 -2.696452,-2.56297 0.460624,-0.83321 2.093949,-1.55939 0.255314,-2.06953 z" />
    <path
       id="path545"
       style="fill:#d40055;stroke:#d40055;stroke-width:1;stroke-linecap:round"
       d="m 41.896339,281.1168 c -0.584877,1.64011 -0.516804,4.18472 1.427358,4.84444 1.88053,0.57007 3.386116,-1.05296 4.104144,-2.60035 1.354243,-1.44998 0.08201,-3.77109 -1.877007,-3.04442 -1.712531,0.025 -1.850169,2.58496 0.05549,1.67727 0.174574,-0.0896 1.132544,-0.33873 0.413026,-0.46557 1.077844,0.97275 -0.530923,2.48885 -1.327827,3.23399 -1.155767,1.10128 -2.660675,-1.27315 -1.910533,-2.32991 0.59547,-0.96726 0.104741,-1.25658 -0.884649,-1.31545 z" />
    <path
       id="path547"
       style="fill:#d40055;stroke:#d40055;stroke-width:1;stroke-linecap:round"
       d="m 92.278182,260.67988 c -1.009643,2.00752 -0.14636,5.11794 2.30269,5.49944 2.618499,0.47485 5.603508,-1.93154 5.224911,-4.66079 -0.568368,-1.75014 -3.596805,-2.08984 -4.483191,-0.52406 -0.486449,1.8997 1.5821,0.83677 2.441216,0.62351 1.505499,1.05255 -0.364869,2.94493 -1.567661,3.37484 -1.940192,1.07491 -3.882112,-1.52361 -2.90863,-3.30707 0.352175,-0.96353 -0.46503,-0.77739 -1.009335,-1.00587 z" />
    <path
       id="path549"
       style="fill:#d40055;stroke:#d40055;stroke-width:1;stroke-linecap:round"
       d="m 111.19704,285.62927 c -0.50756,1.87455 -1.42787,4.23842 0.1583,5.86237 1.22174,1.59163 4.17722,2.01231 4.99954,-0.19947 1.03253,-1.46375 1.11788,-4.79733 -1.39932,-4.52119 -1.10695,-0.11407 -1.61782,1.54611 -0.34084,1.04559 0.24227,0.45092 -0.63363,0.44832 0.25037,0.65145 1.43335,1.07577 0.006,3.99601 -1.74873,3.22561 -1.73036,-0.7639 -2.32075,-3.10662 -1.244,-4.63532 0.39657,-0.71097 0.21246,-1.34972 -0.67532,-1.42904 z" />
    <path
       id="path551"
       style="fill:#d40055;stroke:#d40055;stroke-width:1;stroke-linecap:round"
       d="m 69.018669,289.63257 c -0.414659,1.65806 -0.90087,3.6459 0.176856,5.15287 1.592025,1.51957 3.577954,-0.21351 4.15401,-1.81638 1.20842,-1.0246 1.556092,-3.7512 -0.637699,-3.58257 -1.748625,-0.37547 -1.618743,2.08838 0.05772,1.64908 1.519049,0.41917 -1.060986,0.28082 -0.718066,0.11285 0.495475,1.10351 -0.819063,2.55236 -1.479261,2.95232 -1.146315,-1.00444 -0.592732,-2.58127 -0.142292,-3.7722 0.05571,-0.83123 -0.958997,-0.39171 -1.411268,-0.69597 z" />
    <path
       id="path553"
       style="fill:#d40055;stroke:#d40055;stroke-width:1;stroke-linecap:round"
       d="m 71.747429,263.90751 c -1.75822,1.061 -3.043555,3.77193 -1.43132,5.47942 1.66458,1.53982 4.27177,0.60017 5.608329,-0.90859 1.748714,-0.77344 2.444945,-4.36548 -0.100684,-4.19917 -1.688203,0.67669 0.506,2.03376 -0.778196,2.88934 -0.721529,1.22381 -3.412605,2.74866 -3.801888,0.51452 -0.660293,-1.61469 3.245397,-2.55481 0.978964,-3.44136 -0.170867,-0.0905 -0.349872,-0.18114 -0.475205,-0.33416 z" />
    <path
       id="path555"
       style="fill:#003380;stroke:#003380;stroke-width:1;stroke-linecap:round"
       d="m 117.24432,174.17103 c -1.24025,0.77462 -2.80063,1.68253 -2.86731,3.32483 -0.0945,1.64583 1.62547,2.63029 3.09049,2.6376 1.69304,0.0628 3.40577,-0.6922 4.54958,-1.92609 0.73228,-1.37942 -1.29183,-2.49186 -2.41108,-1.77502 -0.93197,0.28217 -0.80362,1.64053 0.27755,1.2592 -0.10428,1.0105 -1.67043,1.43547 -2.59215,1.33097 -1.51327,-0.0713 -1.91352,-2.05104 -0.6576,-2.80656 0.43607,-0.65409 2.6206,-0.75599 1.17995,-1.59644 -0.1958,-0.14141 -0.40541,-0.26786 -0.56943,-0.44849 z" />
    <path
       id="path557"
       style="fill:#003380;stroke:#003380;stroke-width:1;stroke-linecap:round"
       d="m 97.92479,206.18697 c -1.4184,1.00366 -2.76156,2.56559 -2.60153,4.41522 0.35576,1.25744 1.97295,1.30799 3.01511,0.99927 1.46706,-0.45508 2.57346,-1.60551 3.70244,-2.57503 0.83013,-1.17408 -0.54344,-2.35666 -1.72294,-1.85468 -0.89634,0.0586 -0.40439,0.83465 -0.004,1.08614 -0.087,0.44736 -0.7846,0.13544 -0.20825,0.10267 -0.12509,1.09353 -1.20987,1.69002 -2.16076,1.9977 -0.35867,0.72747 -1.65667,-0.17628 -0.93711,-0.93987 0.252,-1.14278 1.71463,-1.59294 2.16997,-2.31014 -0.34538,-0.39776 -0.88976,-0.54475 -1.25246,-0.92128 z" />
    <path
       id="path559"
       style="fill:#003380;stroke:#003380;stroke-width:1;stroke-linecap:round"
       d="m 139.33086,217.61389 c -1.44254,1.2338 -2.84858,3.14087 -2.27522,5.13765 0.59076,1.7184 2.79468,2.43635 4.36353,1.6025 1.23983,-0.53778 2.7615,-1.69428 2.32853,-3.23519 -0.22457,-1.12803 -1.96543,-2.02851 -2.79948,-1.02704 -0.38635,0.66446 1.64454,0.897 0.34066,1.08124 1.42523,0.43444 -0.0859,2.00024 -0.96363,2.12672 -0.60037,0.10696 0.53653,0.008 -0.21518,0.19794 -1.70656,0.0292 -2.3225,-2.12459 -1.23757,-3.28184 0.30794,-0.74392 1.58807,-1.30891 1.59375,-1.88702 -0.35864,-0.26928 -0.77696,-0.4454 -1.13539,-0.71496 z" />
    <path
       id="path561"
       style="fill:#003380;stroke:#003380;stroke-width:1;stroke-linecap:round"
       d="m 84.794766,172.02034 c -1.40815,1.47137 -2.99272,3.29742 -2.64455,5.49241 0.37857,1.72332 2.45351,2.23867 3.95722,1.78596 1.81891,-0.49862 3.40748,-1.90573 4.14491,-3.6231 0.50115,-1.73457 -2.49396,-3.1666 -3.1194,-1.37477 1.02468,0.38048 -1.11859,0.93317 0.19997,1.03167 1.35717,0.72539 -0.29439,2.39586 -1.29102,2.6266 -0.98679,0.87366 -2.64116,0.0211 -2.40441,-1.30079 0.32248,-1.58255 1.45977,-2.92206 2.81898,-3.74983 -0.5539,-0.29605 -1.10782,-0.59207 -1.6617,-0.88815 z" />
    <path
       id="path563"
       style="fill:#003380;stroke:#003380;stroke-width:1;stroke-linecap:round"
       d="m 59.784269,193.80298 c -1.375259,1.16355 -2.728626,3.25017 -1.640965,5.01881 1.360195,1.80995 4.135428,1.65072 5.875829,0.4966 1.1708,-0.77845 2.241147,-1.73343 3.162338,-2.78977 1.065569,-1.28554 0.329105,-3.53491 -1.503309,-3.38787 -1.267597,-0.65603 -3.432466,1.77692 -1.208968,1.69744 0.928718,-0.0363 0.268246,-0.0253 0.412105,-0.10787 1.904387,0.37238 -0.269506,2.66185 -1.12754,3.21061 -1.105554,0.77917 -2.784075,1.63762 -3.994059,0.56878 -1.229898,-1.18935 0.03662,-2.99235 1.215541,-3.63472 0.345099,-0.6848 -0.88715,-0.65523 -1.190972,-1.07201 z" />
    <path
       id="path565"
       style="fill:#003380;stroke:#003380;stroke-width:1;stroke-linecap:round"
       d="m 99.932767,147.7933 c -1.05178,1.58149 -2.47065,3.45076 -1.78739,5.45547 0.75527,1.58659 2.910343,1.47468 4.204563,0.6566 1.85942,-0.96236 3.37269,-2.50994 4.53975,-4.22636 0.71346,-1.54798 -1.10091,-2.70836 -2.47764,-2.16643 -1.2898,0.25002 -3.12426,1.01224 -2.97821,2.59923 0.32854,0.95033 1.5788,-0.47533 2.29949,-0.52982 1.14878,-0.24028 0.73877,-0.77182 1.08764,-0.64073 0.81314,1.33736 -0.5726,2.93323 -1.69426,3.6734 -1.07098,0.72763 -2.82253,1.8511 -3.966003,0.71337 -0.90036,-1.11538 -0.0966,-2.56661 0.45894,-3.64098 0.20946,-0.8436 2.087913,-1.55748 0.31312,-1.89375 z" />
    <path
       id="path567"
       style="fill:#003380;stroke:#003380;stroke-width:1;stroke-linecap:round"
       d="m 130.89798,158.8461 c -1.38384,1.02419 -3.06425,2.37837 -2.83334,4.30684 0.18514,1.72422 2.03036,2.85874 3.67845,2.53477 1.57513,-0.18588 2.79262,-1.38866 3.69164,-2.59824 0.75356,-1.03331 -0.10534,-2.74546 -1.42783,-2.51818 -1.10666,-0.025 -1.6118,1.19448 -0.48648,1.69967 0.58919,1.19238 -1.09132,1.8737 -1.85539,2.45436 -1.452,0.30022 -2.84793,-1.47584 -2.04334,-2.7911 0.32275,-1.13711 1.91676,-1.69233 2.3539,-2.31773 -0.28792,-0.34998 -0.76531,-0.44949 -1.07761,-0.77039 z" />
    <path
       id="path569"
       style="fill:#003380;stroke:#003380;stroke-width:1;stroke-linecap:round"
       d="m 211.02335,160.06312 c -0.94986,1.56753 -1.27719,3.6293 -0.49108,5.32817 0.73669,1.01844 2.26436,0.80558 3.27453,0.3589 1.74998,-0.75302 3.37838,-2.54541 3.034,-4.56934 -0.0715,-1.14345 -1.45805,-1.80225 -2.30072,-0.95609 -0.38884,0.77122 1.07976,1.54444 0.25655,2.46232 -0.58875,1.0549 -1.60491,1.79273 -2.73368,2.18618 0.62475,0.38783 -1.04183,-0.0747 -0.87601,-0.60943 -0.47097,-1.23675 -0.046,-2.6277 0.59396,-3.70962 0.0493,-0.41554 -0.49592,-0.3914 -0.75755,-0.49109 z" />
    <path
       id="path571"
       style="fill:#aa4400;stroke:#aa4400;stroke-width:1;stroke-linecap:round"
       d="m 228.0758,238.18844 c -1.57793,0.58237 -3.54234,0.97433 -4.3112,2.67214 -0.84921,1.4587 -0.26882,3.6944 1.48839,4.12255 2.17554,0.53853 4.55505,-0.4766 5.89069,-2.22619 0.67928,-1.25405 -0.81058,-2.26337 -1.95484,-2.06513 -1.08907,-0.20481 -1.68043,1.43359 -0.25567,1.27264 1.00451,0.23938 -0.44769,0.1242 0.37293,0.11379 0.42121,1.03784 -1.46988,1.5801 -2.29575,1.82292 -1.37299,0.51297 -2.36842,-1.26068 -1.58992,-2.33413 0.78715,-1.44678 2.54748,-1.74183 3.98769,-2.11925 -0.26912,-0.5405 -0.95582,-0.78684 -1.33232,-1.25934 z" />
    <path
       id="path573"
       style="fill:#aa4400;stroke:#aa4400;stroke-width:1;stroke-linecap:round"
       d="m 257.45495,201.70048 c -1.22106,1.16527 -2.5661,2.70417 -2.19152,4.52859 0.39538,1.50318 2.29114,1.74031 3.57457,1.35667 2.03218,-0.45555 4.1153,-2.00256 4.2721,-4.21953 -0.0362,-1.41767 -1.89694,-1.70551 -2.98055,-1.33783 -1.07897,0.49168 -0.26484,1.73273 0.71198,1.26773 0.93467,0.24917 -0.75129,-0.11377 0.31685,0.17006 1.07194,1.04895 -0.88384,2.48662 -1.85118,2.92742 -0.95463,0.72763 -3.06556,0.74543 -3.02668,-0.84691 -0.10538,-1.49596 1.49944,-2.37945 2.05513,-3.34885 -0.23645,-0.25629 -0.63929,-0.24838 -0.8807,-0.49735 z" />
    <path
       id="path575"
       style="fill:#aa4400;stroke:#aa4400;stroke-width:1;stroke-linecap:round"
       d="m 240.83488,250.41605 c -1.17155,1.11804 -2.75816,2.15881 -2.96891,3.90138 -0.0592,1.52418 1.56566,2.43243 2.93337,2.32787 2.16846,-0.0258 3.92772,-1.55217 5.3048,-3.06842 0.86184,-1.21101 -0.65163,-2.24873 -1.79056,-1.81607 -1.42049,0.0939 -0.58467,1.30906 0.16564,1.4228 -1.08193,0.0493 0.77709,-0.54686 0.0797,0.47119 -0.65809,1.25887 -2.23276,1.92696 -3.59845,2.06299 -1.35082,0.21145 -2.24304,-1.55423 -1.29743,-2.51616 0.43265,-0.9634 1.98587,-1.42286 2.28741,-2.06055 -0.31526,-0.32397 -0.78214,-0.42536 -1.11553,-0.72503 z" />
    <path
       id="path577"
       style="fill:#aa4400;stroke:#aa4400;stroke-width:1;stroke-linecap:round"
       d="m 278.81793,277.78735 c -1.13106,1.42975 -2.42886,3.03129 -2.31946,4.96561 0.0459,1.38124 1.36566,2.3251 2.63908,2.49409 1.25085,0.2281 2.55759,-0.12682 3.55051,-0.91097 1.07009,-0.76545 2.04688,-1.95468 1.9919,-3.33724 -0.16866,-1.15482 -1.42981,-1.70019 -2.48391,-1.66084 -0.82609,0.0315 -1.92221,0.0646 -2.24072,1.00229 -0.42916,0.76365 0.4323,1.33093 1.0708,0.89266 0.51846,-0.004 0.96491,-0.3324 1.33252,-0.48825 0.77936,0.0694 1.11247,0.99609 0.83422,1.65349 -0.36584,0.72732 -1.074,1.26373 -1.7959,1.62206 -1.16859,0.55907 -2.8857,0.37355 -3.51282,-0.8892 -0.58411,-1.3221 0.0889,-2.81147 0.96293,-3.83415 0.24214,-0.39723 1.44835,-0.91803 0.5009,-1.26728 -0.17591,-0.0825 -0.35614,-0.15559 -0.53005,-0.24227 z" />
    <path
       id="path579"
       style="fill:#aa4400;stroke:#aa4400;stroke-width:1;stroke-linecap:round"
       d="m 292.42362,264.66678 c -1.41663,1.71827 -0.35647,5.08394 2.22422,4.28831 2.58211,-0.30086 4.79378,-1.9348 6.6298,-3.65736 1.50487,-1.99504 -1.17285,-3.61203 -2.95029,-2.66363 -1.4449,-0.10453 -2.65091,2.90988 -0.55284,1.95946 0.93741,-0.88631 3.19235,-0.94308 1.92049,0.75069 -1.53628,1.49919 -3.63747,2.8097 -5.86447,2.63068 -2.33033,-0.11276 0.55202,-3.16805 -1.40691,-3.30815 z" />
    <path
       id="path581"
       style="fill:#aa4400;stroke:#aa4400;stroke-width:1;stroke-linecap:round"
       d="m 254.29254,277.16846 c -1.17817,1.36736 -2.16599,3.31435 -1.38985,5.116 0.76096,1.65675 2.91877,1.54144 4.17694,0.5505 0.95844,-0.74657 3.38085,-1.67424 2.39542,-3.1882 -1.29276,-1.22164 -2.01676,1.03308 -2.59783,1.87262 -0.5698,0.91712 -2.14571,1.35558 -2.66133,0.14851 -0.4419,-1.12939 0.13241,-2.40547 1.0646,-3.09551 0.70885,-1.04117 -0.45671,-1.01491 -0.98795,-1.40392 z" />
    <path
       id="path583"
       style="fill:#aa4400;stroke:#aa4400;stroke-width:1;stroke-linecap:round"
       d="m 203.26771,278.7792 c -1.93535,0.88772 -3.86821,2.56425 -3.86526,4.86285 -0.03,1.79032 1.45614,3.3974 3.25548,3.48214 1.75172,0.42359 3.13109,-0.84612 3.99102,-2.21002 0.98451,-0.94376 0.55921,-3.14124 -1.05753,-2.84246 -1.9574,0.46965 1.05499,2.08755 -0.48844,3.11685 -0.92254,1.11802 -2.90622,1.25558 -3.67457,-0.13363 -1.06949,-1.60986 0.19468,-3.70196 1.73663,-4.4645 0.64474,-0.35896 2.07043,-0.44126 0.8428,-1.2029 -0.25725,-0.18793 -0.54504,-0.34888 -0.74013,-0.60833 z" />
    <path
       id="path585"
       style="fill:#aa4400;stroke:#aa4400;stroke-width:1;stroke-linecap:round"
       d="m 186.64261,201.96591 c -1.92803,0.29897 -4.02962,1.53079 -4.42706,3.57069 0.0262,2.43048 2.61193,4.04682 4.85865,3.95954 2.17348,0.0561 4.61281,-0.85669 5.62684,-2.89441 0.31072,-1.4572 -1.41964,-2.32819 -2.65748,-2.33096 -1.20234,-0.31473 -2.14694,0.37551 -1.68756,1.40596 1.02473,-0.31263 3.59307,0.53191 2.07825,1.77689 -1.753,1.36884 -4.82863,1.45359 -6.05508,-0.65725 -0.87373,-1.95397 1.59951,-3.21061 3.21936,-3.29994 0.64381,-0.44419 -0.82195,-1.04277 -0.95592,-1.53052 z" />
    <path
       id="path587"
       style="fill:#aa4400;stroke:#aa4400;stroke-width:1;stroke-linecap:round"
       d="m 171.39336,247.8743 c -3.15263,1.26422 -6.57091,3.69451 -6.88326,7.35046 0.3356,3.2397 4.58473,4.10817 7.05111,2.67767 2.06478,-1.0499 5.94406,-4.11735 3.47321,-6.45436 -1.79383,-1.90346 -5.60946,0.88516 -1.98829,1.5809 2.07143,1.83824 -2.41559,4.74024 -4.41838,4.3376 -3.28055,-0.2079 -2.65102,-4.41378 -0.53785,-5.80008 0.61597,-1.48428 6.11989,-2.11477 3.30346,-3.69219 z" />
    <path
       id="path641"
       style="fill:#ff80b2;fill-opacity:1;stroke:#ff80b2;stroke-width:1;stroke-linecap:round;stroke-opacity:1"
       d="m 59.510173,271.47217 c 2.021776,2.24006 3.509692,4.90599 5.500221,7.1649 0.427576,0.83025 1.501165,3.05814 2.464754,1.78641 -0.30977,-1.53075 -1.987543,-2.29402 -2.65717,-3.67826 -1.425871,-1.76906 -2.77093,-3.61342 -3.890264,-5.58803 -0.479537,-0.3596 -0.944386,0.2646 -1.417541,0.31498 z" />
    <path
       id="path643"
       style="fill:#ff80b2;fill-opacity:1;stroke:#ff80b2;stroke-width:1;stroke-linecap:round;stroke-opacity:1"
       d="m 66.424412,272.14594 c -1.756746,3.39171 -4.658688,5.96997 -6.812681,9.08593 -0.5514,0.17665 -0.869084,0.90246 -0.462029,1.37037 0.384867,0.53084 1.214394,0.31575 1.491513,-0.21238 0.571292,-0.82039 0.972192,-1.74985 1.605131,-2.52941 1.515572,-2.14906 3.264262,-4.13161 4.648204,-6.37336 0.502821,-0.2651 0.789172,-1.11959 0.03041,-1.24169 -0.162787,-0.0506 -0.331492,-0.0797 -0.500544,-0.0995 z" />
    <path
       id="path647"
       style="fill:#ff80b2;stroke:#ff80b2;stroke-width:1;stroke-linecap:round"
       d="m 35.808629,290.62185 c -0.933289,-1.4333 -1.649957,-2.9904 -2.473524,-4.48606 -0.493204,-0.67002 -1.956024,-0.4066 -1.463215,0.59652 0.522915,0.94492 1.301031,1.72665 1.868414,2.65088 0.580363,0.61346 0.752155,2.04903 1.796075,1.32392 l 0.136125,-0.0426 z" />
    <path
       id="path649"
       style="fill:#ff80b2;stroke:#ff80b2;stroke-width:1;stroke-linecap:round"
       d="m 28.378499,275.40302 c -0.58898,-2.12026 -0.836265,-4.32285 -0.878323,-6.51903 0.426744,-0.8058 -0.792409,-2.20036 -1.281303,-0.95861 -0.223045,0.92209 0.16218,1.87014 0.228134,2.79987 0.32209,1.47048 0.706095,2.93024 0.888952,4.42584 0.128806,0.63593 0.629368,0.3094 1.04254,0.25193 z" />
    <path
       id="path655"
       style="fill:#ff80b2;stroke:#ff80b2;stroke-width:1;stroke-linecap:round"
       d="m 38.360021,246.02884 c 1.424519,-0.46169 3.008438,-0.45103 4.337377,-1.17873 0.263987,-0.3044 1.2448,-0.98287 1.03282,-0.99246 -1.008901,0.12259 -2.069136,0.0976 -2.971518,0.63453 -0.982557,0.39256 -2.012574,0.64719 -3.042393,0.8807 0.03634,0.35343 0.48365,0.38804 0.643714,0.65596 z" />
    <path
       id="path657"
       style="fill:#ff80b2;stroke:#ff80b2;stroke-width:1;stroke-linecap:round"
       d="m 56.383726,244.36056 c 2.086481,-0.33474 4.200591,0.14841 6.168329,0.82899 0.556148,0.1209 1.716682,-0.40664 0.701372,-0.81993 -1.112692,-0.31735 -2.270069,-0.45546 -3.407164,-0.66082 -1.283478,-0.17393 -2.590144,-0.12379 -3.873006,-0.16745 -0.543865,0.1848 0.330415,0.56091 0.410469,0.81921 z" />
    <path
       id="path659"
       style="fill:#ff80b2;stroke:#ff80b2;stroke-width:1;stroke-linecap:round"
       d="m 83.59505,248.53524 c 1.907908,0.008 3.733016,0.64959 5.486367,1.33135 0.677394,0.31859 1.458143,-0.45546 0.499632,-0.7943 -1.035617,-0.42921 -2.157567,-0.60773 -3.232337,-0.92017 -0.975637,-0.21606 -2.033546,-0.86637 -2.641795,0.2734 z" />
    <path
       id="path661"
       style="fill:#ff80b2;stroke:#ff80b2;stroke-width:1;stroke-linecap:round"
       d="m 102.07788,255.22227 c 1.05684,0.92671 1.8446,2.10634 2.59532,3.28243 0.33817,0.54494 1.40984,0.58756 1.0554,-0.27812 -0.29153,-0.61323 -0.8223,-1.07642 -1.16924,-1.66193 -0.47217,-0.6448 -0.96832,-1.27918 -1.56304,-1.81675 -0.30614,0.15811 -0.61232,0.31632 -0.91844,0.47437 z" />
    <path
       id="path663"
       style="fill:#ff80b2;stroke:#ff80b2;stroke-width:1;stroke-linecap:round"
       d="m 104.24743,272.00377 c 0.22181,1.64245 -0.29032,3.25382 -0.47274,4.87176 0.0378,0.38818 -0.0424,0.76859 -0.10222,1.14895 0.0517,0.35548 0.20082,-0.33893 0.2873,-0.47885 0.32782,-0.71459 0.67513,-1.43987 0.75742,-2.23188 0.23229,-1.09335 0.46639,-2.1878 0.61647,-3.29613 -0.36206,-0.005 -0.7242,-0.009 -1.08623,-0.0139 z" />
    <path
       id="path665"
       style="fill:#ff80b2;stroke:#ff80b2;stroke-width:1;stroke-linecap:round"
       d="m 95.692189,290.35172 c -0.917308,1.23932 -2.157425,2.28593 -2.680713,3.7767 0.217796,0.6773 1.179479,-0.27072 1.586101,-0.47759 0.979349,-0.77093 1.669385,-1.83546 2.611905,-2.64558 -0.505766,-0.21784 -1.011523,-0.4357 -1.517293,-0.65353 z" />
    <path
       id="path667"
       style="fill:#ff80b2;stroke:#ff80b2;stroke-width:1;stroke-linecap:round"
       d="m 14.363573,236.15711 c 1.461959,-1.16804 3.180853,-1.94175 4.807711,-2.83367 0.630414,-0.28115 0.633425,-1.15978 -0.1906,-0.81473 -1.378264,0.2683 -2.441211,1.27248 -3.65592,1.9079 -0.501658,0.46352 -1.634364,0.67825 -1.729259,1.31082 0.215397,0.21041 0.563302,0.20557 0.768068,0.42968 z" />
    <path
       id="path669"
       style="fill:#ff80b2;stroke:#ff80b2;stroke-width:1;stroke-linecap:round"
       d="m 37.14942,228.69583 c 2.005724,-0.57071 4.07797,-0.90153 6.109523,-1.32269 0.625728,-0.25494 1.033189,-0.83567 0.07184,-0.76927 -1.439139,-0.29904 -2.804141,0.39997 -4.201959,0.62136 -0.84348,0.26649 -2.365378,0.37979 -2.769974,0.7908 0.263511,0.22658 0.527107,0.45336 0.790565,0.6798 z" />
    <path
       id="path671"
       style="fill:#ff80b2;stroke:#ff80b2;stroke-width:1;stroke-linecap:round"
       d="m 63.602234,225.78184 c 1.600772,-0.12365 3.207129,-0.14121 4.811873,-0.15309 0.291986,0.19295 0.428802,-0.0661 0.306386,-0.11825 0.354347,-0.17349 1.641776,-0.19275 0.689314,-0.62914 -0.713955,-0.38601 -1.565618,-0.15681 -2.338624,-0.16803 -1.311248,0.11532 -2.627387,0.18893 -3.942237,0.19816 -0.516733,0.16933 0.445008,0.63418 0.473288,0.87035 z" />
    <path
       id="path673"
       style="fill:#ff80b2;stroke:#ff80b2;stroke-width:1;stroke-linecap:round"
       d="m 84.369681,227.08647 c 2.005995,0.0709 3.960263,0.57335 5.896036,1.05148 0.546079,0.17822 1.364144,-0.40035 0.421686,-0.61517 -1.320859,-0.30504 -2.675082,-0.45332 -4.0118,-0.68418 -0.678616,0.0127 -1.537319,-0.45191 -2.08892,4.5e-4 l -0.101322,0.13085 z" />
    <path
       id="path675"
       style="fill:#ff80b2;stroke:#ff80b2;stroke-width:1;stroke-linecap:round"
       d="m 113.10738,237.8125 c 1.58752,0.35446 2.819,1.49576 3.93443,2.60861 0.2559,0.32895 1.24188,0.70597 0.80848,-0.0745 -0.36706,-1.07232 -1.42402,-1.66092 -2.29482,-2.2819 -0.63692,-0.34108 -1.61126,-1.30759 -2.21646,-0.46969 -0.0772,0.0725 -0.15447,0.14508 -0.23163,0.21749 z" />
    <path
       id="path677"
       style="fill:#ff80b2;stroke:#ff80b2;stroke-width:1;stroke-linecap:round"
       d="m 129.79266,256.1473 c 0.46257,1.05789 0.72219,2.1876 1.10432,3.27423 0.4068,0.37438 0.52098,1.39155 0.73647,1.54636 -0.21866,-0.70582 -0.2102,-1.42708 -0.30658,-2.14803 -0.28542,-0.8018 -0.49799,-1.61986 -0.61335,-2.46174 -0.11001,-0.51775 -0.58197,-0.23645 -0.92086,-0.21082 z" />
    <path
       id="path679"
       style="fill:#ff80b2;stroke:#ff80b2;stroke-width:1;stroke-linecap:round"
       d="m 129.68518,285.50422 c -0.88479,1.24487 -1.85485,2.47524 -2.39264,3.91807 -0.10013,0.87955 0.95861,-0.21696 1.28762,-0.3922 0.7115,-0.53746 1.26392,-1.24182 1.7902,-1.94871 0.56843,-0.39397 0.94386,-1.32893 -0.0413,-1.33591 -0.21917,-0.0671 -0.43826,-0.13872 -0.64384,-0.24125 z" />
    <path
       id="path681"
       style="fill:#ff80b2;stroke:#ff80b2;stroke-width:1;stroke-linecap:round"
       d="m 2.9915847,248.41115 c -0.3144346,1.10391 -0.8509941,2.13684 -1.1999536,3.22182 0.021133,0.30886 0.1261389,1.22968 0.1414144,1.11367 0.3239735,-0.69234 0.9619044,-1.21049 1.0683479,-2.00581 0.2712562,-0.71811 0.5942657,-1.42463 1.0492825,-2.04664 -0.3530429,-0.0943 -0.706043,-0.18876 -1.0590912,-0.28304 z" />
    <path
       id="path683"
       style="fill:#ff80b2;stroke:#ff80b2;stroke-width:1;stroke-linecap:round"
       d="m 4.2668994,293.29715 c 0.6219842,0.66252 0.9321492,1.56244 1.5748046,2.20238 0.3904991,0.42081 1.1968281,0.13298 0.7900456,-0.47801 -0.3329842,-0.61912 -0.8382011,-1.1321 -1.1387085,-1.77405 -0.1189845,-0.57632 -0.7154251,-0.0214 -1.0911223,0.006 l -0.06751,0.022 z" />
    <path
       id="path782"
       style="fill:#ff80b2;fill-opacity:1;stroke:#ff80b2;stroke-width:1;stroke-linecap:round;stroke-opacity:1"
       d="m 5.0210127,224.0852 c 1.7271359,1.53254 2.3979078,3.84725 3.0732776,5.96939 -0.1747773,0.81536 0.9303764,2.43197 1.390259,1.06712 -0.2200676,-1.10747 -0.8143347,-2.11626 -1.0607568,-3.23595 -0.5438781,-1.50526 -1.3152866,-2.96898 -2.3046344,-4.20461 -0.4128187,-0.0767 -0.7130173,0.33719 -1.0981454,0.40405 z" />
    <path
       id="path784"
       style="fill:#ff80b2;fill-opacity:1;stroke:#ff80b2;stroke-width:1;stroke-linecap:round;stroke-opacity:1"
       d="m 6.9528062,228.33075 c 1.5279096,-1.13261 2.9954656,-2.40825 4.8087398,-3.06889 0.576687,-0.0731 2.061038,-0.8101 0.833703,-1.10303 -1.101476,-0.0188 -1.925555,0.89963 -2.8807263,1.33099 -1.1912523,0.68284 -2.2935373,1.53262 -3.3138225,2.42969 0.027604,0.24727 0.3844768,0.28592 0.552106,0.41124 z" />
    <path
       id="path786"
       style="fill:#ff80b2;fill-opacity:1;stroke:#ff80b2;stroke-width:1;stroke-linecap:round;stroke-opacity:1"
       d="m 8.7693965,221.97166 c 2.4645345,1.23747 3.4540785,4.06723 4.0334255,6.58391 0.113445,1.07785 1.369352,1.4983 0.990409,0.10003 -0.326186,-1.56683 -1.056015,-3.04098 -1.865247,-4.4139 -0.757165,-0.94686 -1.651012,-2.63374 -2.9931455,-2.4375 z" />
    <path
       id="path788"
       style="fill:#ff80b2;fill-opacity:1;stroke:#ff80b2;stroke-width:1;stroke-linecap:round;stroke-opacity:1"
       d="m 16.992112,219.51246 c -0.519542,2.21393 -1.086271,4.83437 0.365513,6.82555 0.654431,1.02483 2.46537,1.70327 3.14322,0.3389 1.076273,-2.05723 1.296619,-4.43933 1.295137,-6.72766 -0.256743,-1.11553 -1.763331,-0.88874 -2.380468,-0.22345 -0.841747,0.32432 -0.752484,2.05761 0.235716,1.14632 0.479571,-0.17256 1.098446,-1.08939 1.086694,-0.72562 0.631403,0.75599 0.535382,1.91109 0.440994,2.85705 -0.281372,1.36266 -0.589208,2.9213 -1.755279,3.81152 -1.00017,0.18385 -1.726416,-1.0054 -2.074119,-1.81871 -0.413619,-1.14208 -0.343231,-2.40522 -0.16876,-3.57455 0.151177,-0.61078 0.983816,-1.80936 -0.188648,-1.90935 z" />
    <path
       id="path790"
       style="fill:#ff80b2;fill-opacity:1;stroke:#ff80b2;stroke-width:1;stroke-linecap:round;stroke-opacity:1"
       d="m 27.565182,217.22146 c -1.672861,1.12424 -2.840254,3.03014 -2.769956,5.08326 -0.111991,1.51224 0.437989,3.84545 2.373901,3.67558 1.221677,-0.17907 2.981481,-0.53004 3.255796,-1.96139 -0.484714,-1.15365 -1.907284,0.67418 -2.713229,0.85041 -1.371184,0.71792 -1.866869,-1.22047 -1.753836,-2.23295 -0.07849,-1.77774 0.800798,-3.6664 2.414959,-4.51015 0.511629,-0.51256 -0.64553,-0.58931 -0.807635,-0.90476 z" />
    <path
       id="path792"
       style="fill:#ff80b2;fill-opacity:1;stroke:#ff80b2;stroke-width:1;stroke-linecap:round;stroke-opacity:1"
       d="m 33.50704,215.16558 c 0.980516,2.85435 1.842531,5.76899 2.308749,8.75347 0.597464,1.31024 1.268219,-0.51091 0.596879,-1.14562 -0.684541,-2.24556 -1.275963,-4.52484 -1.928207,-6.78266 0.131003,-0.57216 -0.380133,-1.2581 -0.977421,-0.82519 z" />
    <path
       id="path794"
       style="fill:#ff80b2;fill-opacity:1;stroke:#ff80b2;stroke-width:1;stroke-linecap:round;stroke-opacity:1"
       d="m 38.721677,215.05782 c -0.654259,1.37429 -2.812671,1.73216 -3.070136,3.16431 0.603029,0.80392 1.82051,0.8233 2.470382,1.64025 0.968191,0.81217 1.598883,1.93719 2.344043,2.92205 1.522403,0.90033 1.302878,-1.13776 0.348889,-1.70219 -0.987069,-1.24371 -2.118624,-2.38336 -3.49095,-3.20205 -0.696873,0.24849 0.395716,0.35185 0.332922,-0.24921 0.441211,-0.73781 2.10718,-1.61724 1.7518,-2.30687 -0.228977,-0.0888 -0.457944,-0.17759 -0.68695,-0.26629 z" />
    <path
       id="path796"
       style="fill:#ff80b2;fill-opacity:1;stroke:#ff80b2;stroke-width:1;stroke-linecap:round;stroke-opacity:1"
       d="m 45.927396,214.42183 c 0.431926,2.2237 0.515145,4.50282 0.44923,6.76164 -0.312061,0.73587 -0.09237,1.82591 0.916322,1.55594 0.956315,0.0128 1.82098,0.55607 2.773046,0.54422 1.027757,-0.01 1.162254,-1.39568 0.01922,-1.13158 -0.813891,-0.0625 -1.574075,-0.48044 -2.396709,-0.48964 0.09323,0.45916 -0.11613,-0.74432 -0.09597,-0.93479 -0.09656,-2.03999 -0.343271,-4.06706 -0.502413,-6.10181 0.128535,-0.57299 -0.849199,-0.10944 -1.162734,-0.20398 z" />
    <path
       id="path798"
       style="fill:#ff80b2;fill-opacity:1;stroke:#ff80b2;stroke-width:1;stroke-linecap:round;stroke-opacity:1"
       d="m 47.711354,218.53341 c 0.959294,-0.0206 1.918391,0.056 2.877543,0.0165 0.57498,-0.46254 -0.329665,-1.02226 -0.751298,-1.19863 -0.642342,-0.31128 -1.362024,-0.0726 -2.041214,-0.0832 -0.324732,0.0652 -1.072796,-0.0306 -1.117159,0.15556 0.344035,0.3699 0.688201,0.73985 1.032128,1.10973 z" />
    <path
       id="path800"
       style="fill:#ff80b2;fill-opacity:1;stroke:#ff80b2;stroke-width:1;stroke-linecap:round;stroke-opacity:1"
       d="m 47.141648,214.68392 c 0.841098,-0.25645 1.719185,-0.36488 2.559539,-0.62411 0.09864,-0.21351 0.349697,-0.83384 0.325868,-0.77588 -0.585292,0.005 -1.057389,-0.47476 -1.657591,-0.42411 -0.837163,0.005 -1.613076,0.3848 -2.440387,0.47298 -0.319688,0.26387 0.556843,0.59197 0.710539,0.8895 0.167337,0.15388 0.334679,0.30776 0.502032,0.46162 z" />
    <path
       id="path802"
       style="fill:#ff80b2;fill-opacity:1;stroke:#ff80b2;stroke-width:1;stroke-linecap:round;stroke-opacity:1"
       d="m 55.757051,213.39636 c 1.146485,0.9215 1.968267,2.17021 3.077962,3.13052 0.865552,0.45079 1.829367,-0.10045 2.349683,-0.81164 0.772925,-0.78512 1.506528,-1.62444 2.415103,-2.2592 -0.591397,-0.27598 -1.514844,-0.72821 -2.004188,-0.0588 -0.199773,0.63735 -0.527504,1.21033 -0.883793,1.77501 -1.129841,1.88052 -2.428653,3.67787 -3.263775,5.71913 -0.511499,0.46754 -0.564207,1.60716 0.261813,1.75294 0.752229,0.15754 1.207046,-0.58962 1.281239,-1.23688 0.210669,-0.8792 0.718712,-1.64476 1.10605,-2.45346 0.987132,-1.82663 2.184406,-3.52641 3.304585,-5.2714 -0.04775,-0.72448 -1.471901,-1.14032 -1.762435,-0.34854 -0.606497,0.86713 -1.314862,1.73844 -2.309785,2.17077 0.364038,0.0772 0.661545,0.14854 0.106441,-0.026 -1.031762,-0.51317 -1.723323,-1.46997 -2.445141,-2.32731 -0.431797,-0.41522 -0.800444,0.20192 -1.233759,0.24492 z" />
    <path
       id="path896"
       style="fill:#5599ff;fill-opacity:1;stroke:#5599ff;stroke-width:1;stroke-linecap:round;stroke-opacity:1"
       d="m 124.43584,167.96629 c 1.71735,2.05809 3.31715,4.22307 4.85421,6.41188 -0.0131,0.68866 1.48428,1.79852 1.11249,0.5694 -0.72107,-1.19297 -1.74177,-2.17012 -2.52235,-3.32527 -0.87649,-1.15215 -1.81858,-2.27641 -2.49112,-3.55986 -0.219,-0.3175 -0.66757,-0.33312 -0.95323,-0.0962 z" />
    <path
       id="path898"
       style="fill:#5599ff;fill-opacity:1;stroke:#5599ff;stroke-width:1;stroke-linecap:round;stroke-opacity:1"
       d="m 129.97439,167.54356 c -1.72811,2.07914 -3.13852,4.42355 -5.07366,6.32538 -0.49846,0.26767 -1.81261,1.91082 -0.56972,1.53835 0.9073,-0.79113 1.52058,-1.86101 2.33997,-2.74056 1.26914,-1.58345 2.47532,-3.21955 3.82884,-4.73361 0.0343,-0.28082 -0.33835,-0.31728 -0.52543,-0.38956 z" />
    <path
       id="path910"
       style="fill:#5599ff;fill-opacity:1;stroke:#5599ff;stroke-width:1;stroke-linecap:round;stroke-opacity:1"
       d="m 95.13754,151.08879 c -0.918935,0.77582 -1.721729,1.69837 -2.271556,2.77137 -0.433226,0.39524 -0.447545,1.69594 0.287625,0.92597 0.569156,-0.59057 0.801724,-1.41836 1.360464,-2.02325 0.364729,-0.4528 0.786959,-0.86191 1.266302,-1.19237 -0.04536,-0.31155 -0.468638,-0.2819 -0.642835,-0.48172 z" />
    <path
       id="path912"
       style="fill:#5599ff;fill-opacity:1;stroke:#5599ff;stroke-width:1;stroke-linecap:round;stroke-opacity:1"
       d="m 89.98433,163.4953 c -0.312231,0.99566 -0.626306,2.00333 -0.622978,3.05705 -0.107186,1.08558 -0.240398,2.17542 -0.182235,3.26826 0.581414,-2.03133 0.296579,-4.2545 1.197728,-6.20262 -0.06496,-0.16083 -0.273863,-0.051 -0.392515,-0.12269 z" />
    <path
       id="path914"
       style="fill:#5599ff;fill-opacity:1;stroke:#5599ff;stroke-width:1;stroke-linecap:round;stroke-opacity:1"
       d="m 91.845907,181.35564 c 1.340679,2.08212 2.276475,4.39263 3.531288,6.52001 0.744121,0.58376 0.724005,-0.52337 0.160678,-0.776 -1.171012,-1.54865 -1.927893,-3.35639 -2.901666,-5.0234 -0.117777,-0.32701 -0.303953,-0.98944 -0.7903,-0.72061 z" />
    <path
       id="path916"
       style="fill:#5599ff;fill-opacity:1;stroke:#5599ff;stroke-width:1;stroke-linecap:round;stroke-opacity:1"
       d="m 120.00792,202.13255 c 1.39195,0.18482 2.72173,0.67424 4.11129,0.87193 0.6718,0.73339 2.02531,-0.79687 0.61482,-0.67168 -1.37769,-0.11273 -2.73068,-0.42288 -4.08567,-0.68541 -0.27731,0.0597 -0.4479,0.30148 -0.64044,0.48516 z" />
    <path
       id="path918"
       style="fill:#5599ff;fill-opacity:1;stroke:#5599ff;stroke-width:1;stroke-linecap:round;stroke-opacity:1"
       d="m 146.89342,202.31595 c 1.67543,-0.93288 3.54563,-1.42209 5.33766,-2.05586 0.46841,-0.28191 0.3344,-0.76151 -0.19961,-0.5196 -1.11537,0.10401 -2.0611,0.77919 -3.09721,1.15009 -0.81699,0.35138 -1.64139,0.68683 -2.48121,0.98009 -0.10704,0.26127 0.35717,0.26132 0.44037,0.44528 z" />
    <path
       id="path920"
       style="fill:#5599ff;fill-opacity:1;stroke:#5599ff;stroke-width:1;stroke-linecap:round;stroke-opacity:1"
       d="m 167.56827,180.52408 c 0.48789,-1.62651 1.66976,-3.05459 1.70627,-4.80185 -0.003,-0.65265 -0.65938,-1.07976 -0.86881,-0.24781 -0.31869,0.92516 -0.3808,1.92509 -0.76633,2.83449 -0.21558,0.67695 -0.54443,1.33964 -0.63168,2.04439 0.0772,0.23752 0.38159,0.12088 0.56055,0.17078 z" />
    <path
       id="path922"
       style="fill:#5599ff;fill-opacity:1;stroke:#5599ff;stroke-width:1;stroke-linecap:round;stroke-opacity:1"
       d="m 164.63646,158.3516 c -0.68798,-2.08062 -1.75216,-4.03725 -3.00452,-5.8247 -0.42492,-0.67066 -1.70876,-1.06531 -1.13583,0.17138 0.59264,1.37875 1.54301,2.57436 2.21303,3.91815 0.57554,0.58097 0.48263,2.27443 1.54434,1.80896 0.12766,-0.0246 0.25532,-0.0492 0.38298,-0.0738 z" />
    <path
       id="path924"
       style="fill:#5599ff;fill-opacity:1;stroke:#5599ff;stroke-width:1;stroke-linecap:round;stroke-opacity:1"
       d="m 142.73449,142.61661 c -1.30314,-0.63758 -2.55476,-1.43928 -3.96599,-1.81368 -0.61351,-0.27314 -1.15667,0.28204 -0.36577,0.60004 0.78954,0.36395 1.57626,0.73261 2.35202,1.1279 0.71232,0.32185 1.32086,0.84803 1.97974,0.0857 z" />
    <path
       id="path926"
       style="fill:#5599ff;fill-opacity:1;stroke:#5599ff;stroke-width:1;stroke-linecap:round;stroke-opacity:1"
       d="m 107.81641,141.63816 c -1.32897,0.69297 -2.45404,1.6971 -3.66974,2.5601 -0.43348,0.89931 1.00878,0.50379 1.22666,-2.2e-4 0.89048,-0.81492 1.82689,-1.6695 2.9741,-2.07576 -0.0495,-0.24101 -0.39711,-0.29399 -0.53102,-0.48412 z" />
    <path
       id="path928"
       style="fill:#5599ff;fill-opacity:1;stroke:#5599ff;stroke-width:1;stroke-linecap:round;stroke-opacity:1"
       d="m 70.285307,143.13112 c -1.451442,1.16785 -2.989772,2.31917 -3.97727,3.93305 -0.234529,0.66101 0.235626,0.92031 0.627156,0.36341 0.580182,-0.58501 0.91111,-1.36875 1.509351,-1.94546 0.662679,-0.76356 1.420549,-1.45177 2.281898,-1.98518 8.46e-4,-0.23433 -0.33499,-0.20433 -0.441135,-0.36582 z" />
    <path
       id="path930"
       style="fill:#5599ff;fill-opacity:1;stroke:#5599ff;stroke-width:1;stroke-linecap:round;stroke-opacity:1"
       d="m 60.187569,161.75913 c -1.09524,1.72281 -1.500699,3.77391 -1.823915,5.75792 -0.07982,0.41971 0.04915,1.16479 0.270676,0.35654 0.658695,-1.31828 0.729795,-2.83161 1.277891,-4.19298 -0.01544,-0.61099 1.04931,-1.46534 0.560123,-1.83713 l -0.151065,-0.0277 z" />
    <path
       id="path932"
       style="fill:#5599ff;fill-opacity:1;stroke:#5599ff;stroke-width:1;stroke-linecap:round;stroke-opacity:1"
       d="m 59.762929,183.28426 c -0.01,2.27704 0.609758,4.50332 1.295589,6.65367 0.17996,0.46494 0.899175,1.25276 0.537891,0.25046 -0.263045,-1.33281 -0.931703,-2.54945 -1.191733,-3.88806 -0.226846,-0.9621 -0.344696,-1.967 -0.187678,-2.94977 -0.125721,-0.1363 -0.308931,0.0141 -0.454069,-0.0663 z" />
    <path
       id="path934"
       style="fill:#5599ff;fill-opacity:1;stroke:#5599ff;stroke-width:1;stroke-linecap:round;stroke-opacity:1"
       d="m 65.804322,206.8816 c 0.625732,1.17523 1.164776,2.40103 1.787681,3.57299 0.138671,0.27087 0.808117,1.0496 0.600254,0.2861 -0.181172,-0.78462 -0.804919,-1.34636 -1.105145,-2.07887 -0.31654,-0.60996 -0.619185,-1.2293 -0.853222,-1.87628 -0.143192,0.032 -0.286462,0.064 -0.429568,0.0961 z" />
    <path
       id="path936"
       style="fill:#5599ff;fill-opacity:1;stroke:#5599ff;stroke-width:1;stroke-linecap:round;stroke-opacity:1"
       d="m 75.628893,228.93575 c 1.098105,1.17132 1.915343,2.57026 2.953886,3.787 0.41827,0.45207 1.139407,0.13122 0.537872,-0.40643 -0.618231,-0.69264 -1.348056,-1.2801 -1.892051,-2.04234 -0.59756,-0.35677 -0.72703,-1.93127 -1.599707,-1.33823 z" />
    <path
       id="path938"
       style="fill:#5599ff;fill-opacity:1;stroke:#5599ff;stroke-width:1;stroke-linecap:round;stroke-opacity:1"
       d="m 107.38508,245.96911 c 1.28234,-0.12461 2.56501,0.0742 3.84901,0.0186 0.0839,-0.71529 -0.90851,-0.60685 -1.37465,-0.53624 -0.87643,0.0246 -1.75574,0.0164 -2.6295,0.0847 -0.47184,0.0131 0.11003,0.28272 0.15514,0.43293 z" />
    <path
       id="path940"
       style="fill:#5599ff;fill-opacity:1;stroke:#5599ff;stroke-width:1;stroke-linecap:round;stroke-opacity:1"
       d="m 132.01839,245.88798 c 1.54456,-0.34792 3.13362,-0.47519 4.68878,-0.725 0.27149,-0.2601 0.71602,-0.59894 0.0688,-0.46581 -0.92173,-0.16914 -1.82494,0.12884 -2.72287,0.30173 -0.81001,0.18029 -1.62538,0.3661 -2.45771,0.39788 0.0583,0.22768 0.3058,0.3056 0.42305,0.4912 z" />
    <path
       id="path942"
       style="fill:#5599ff;fill-opacity:1;stroke:#5599ff;stroke-width:1;stroke-linecap:round;stroke-opacity:1"
       d="m 157.44927,239.48809 c 1.224,-0.95848 2.79628,-1.27272 4.12104,-2.03712 0.43395,-0.28297 0.27637,-0.82556 -0.24943,-0.48867 -1.51323,0.31839 -2.80964,1.20647 -4.13381,1.94568 -0.36282,0.29733 -0.005,0.47373 0.2622,0.58011 z" />
    <path
       id="path944"
       style="fill:#5599ff;fill-opacity:1;stroke:#5599ff;stroke-width:1;stroke-linecap:round;stroke-opacity:1"
       d="m 182.76547,225.56016 c 1.11022,-0.85856 2.20884,-1.77401 3.00991,-2.94009 -0.0242,-0.35268 0.8171,-1.35824 0.0473,-0.7041 -0.95431,0.60944 -1.51485,1.62561 -2.40729,2.30643 -0.3286,0.36766 -1.12312,0.69634 -1.23144,0.98511 0.19382,0.11755 0.38763,0.23513 0.58147,0.35265 z" />
    <path
       id="path946"
       style="fill:#5599ff;fill-opacity:1;stroke:#5599ff;stroke-width:1;stroke-linecap:round;stroke-opacity:1"
       d="m 198.8679,205.61962 c 0.93317,-1.42634 1.80741,-2.90395 2.4624,-4.47936 0.30564,-0.52305 0.15143,-1.64115 -0.50861,-0.83811 -0.67795,0.62142 -0.73267,1.61608 -1.16546,2.39069 -0.38547,0.87546 -0.81039,1.7339 -1.28178,2.56639 -0.0449,0.26538 0.29953,0.34055 0.49345,0.36039 z" />
    <path
       id="path948"
       style="fill:#5599ff;fill-opacity:1;stroke:#5599ff;stroke-width:1;stroke-linecap:round;stroke-opacity:1"
       d="m 201.42393,178.80738 c -0.14775,-1.70556 0.39233,-3.39425 0.19201,-5.09915 -0.26164,-0.50984 -0.63242,-1.63215 -0.95186,-0.58796 -0.48167,0.61899 -0.23533,1.4248 -0.30616,2.14285 -0.003,1.11275 0.01,2.22866 0.0291,3.33899 0.10686,0.47811 0.71068,0.11136 1.0369,0.20527 z" />
    <path
       id="path950"
       style="fill:#5599ff;fill-opacity:1;stroke:#5599ff;stroke-width:1;stroke-linecap:round;stroke-opacity:1"
       d="m 198.10508,150.56985 c -0.98972,-1.7767 -1.66632,-3.73565 -2.85983,-5.39244 -0.37819,-0.60149 -1.77273,-1.10156 -1.45308,0.11334 0.25904,0.99019 1.02302,1.73735 1.53096,2.60393 0.63095,0.8931 1.31972,1.7588 1.77957,2.75803 0.30112,0.29803 0.66709,-0.11223 1.00238,-0.0829 z" />
    <path
       id="path1058"
       style="fill:#5599ff;fill-opacity:1;stroke:#5599ff;stroke-width:1;stroke-linecap:round;stroke-opacity:1"
       d="m 209.72669,142.51126 c -1.90395,0.32266 -4.16544,3.07733 -2.17841,4.62172 1.41842,0.9532 3.76014,1.62776 3.69928,3.71768 -0.20689,1.80022 -2.18419,2.39692 -3.5816,3.07081 -0.70077,0.19236 -2.2558,1.21829 -0.69311,1.04322 1.75969,-0.47611 3.62169,-1.27192 4.73265,-2.78114 1.26545,-1.93247 -0.60713,-4.0589 -2.37897,-4.79365 -1.90801,-0.38091 -2.23917,-2.76295 -0.54102,-3.65392 0.43017,-0.54315 2.43949,-0.34563 0.94118,-1.22472 z" />
    <path
       id="path1060"
       style="fill:#5599ff;fill-opacity:1;stroke:#5599ff;stroke-width:1;stroke-linecap:round;stroke-opacity:1"
       d="m 215.75353,143.01924 c 1.03806,2.86304 1.01988,5.96701 1.08019,8.96751 -0.30303,0.64567 0.5126,2.44858 0.56779,0.87387 -0.09,-1.40633 -0.27596,-2.80321 -0.28856,-4.21643 -0.11422,-1.83742 -0.30466,-3.67367 -0.6648,-5.48049 -0.1042,-0.2888 -0.47782,-0.27764 -0.69462,-0.14446 z" />
    <path
       id="path1062"
       style="fill:#5599ff;fill-opacity:1;stroke:#5599ff;stroke-width:1;stroke-linecap:round;stroke-opacity:1"
       d="m 215.37267,143.18226 c 1.58217,-0.7082 3.43614,-0.70319 5.06887,-0.17814 1.21244,0.58549 0.9855,2.24858 0.1589,3.06997 -0.3573,0.86239 -2.28264,1.15568 -1.91605,2.05915 1.05885,0.117 1.72221,-0.90565 2.40495,-1.55087 0.7638,-0.88539 1.40241,-2.34509 0.58014,-3.38636 -1.09346,-1.03083 -2.73357,-0.84973 -4.12731,-0.88714 -0.88037,0.0524 -1.871,0.094 -2.62242,0.55177 0.008,0.21103 0.31132,0.23631 0.45292,0.32162 z" />
    <path
       id="path1064"
       style="fill:#5599ff;fill-opacity:1;stroke:#5599ff;stroke-width:1;stroke-linecap:round;stroke-opacity:1"
       d="m 224.50373,153.70153 c 1.66303,-3.29798 1.96699,-7.03526 2.92913,-10.5541 -1.17152,0.38552 1.25121,2.22297 1.40699,3.18524 1.39334,2.21156 2.49965,4.61116 3.90448,6.80096 1.52727,-0.11886 -0.69082,-1.98918 -0.96776,-2.74789 -1.59468,-2.42516 -3.00343,-4.97351 -4.19374,-7.62101 -1.87318,-0.38943 -0.65781,2.47552 -1.22771,3.52662 -0.38289,2.48596 -1.16152,4.91628 -2.34426,7.13839 0.033,0.22656 0.33556,0.23566 0.49287,0.27179 z" />
    <path
       id="path1066"
       style="fill:#5599ff;fill-opacity:1;stroke:#5599ff;stroke-width:1;stroke-linecap:round;stroke-opacity:1"
       d="m 226.73168,150.69785 c 1.19151,-0.5154 2.45517,-0.84155 3.64243,-1.36762 0.22323,-0.22663 1.25415,-0.81308 0.37903,-0.59973 -0.81988,0.0219 -1.61979,0.19365 -2.37495,0.51181 -0.77475,0.2872 -1.57231,0.51221 -2.35388,0.77374 -0.0169,0.32562 0.55766,0.42714 0.70737,0.6818 z" />
    <path
       id="path1068"
       style="fill:#5599ff;fill-opacity:1;stroke:#5599ff;stroke-width:1;stroke-linecap:round;stroke-opacity:1"
       d="m 238.83176,142.19318 c -2.05224,0.91997 -3.70642,2.95077 -3.64563,5.27672 -0.19128,2.09712 0.31912,4.77664 2.47558,5.67739 1.23878,0.45912 3.57012,0.22274 3.9286,-1.11249 -1.59402,0.20028 -3.48939,1.36728 -4.84091,-0.15742 -1.49895,-1.55668 -1.44143,-4.04238 -0.82224,-5.98264 0.4869,-1.54825 1.72957,-2.75949 3.18586,-3.37542 0.082,-0.1729 -0.18384,-0.27624 -0.28126,-0.32614 z" />
    <path
       id="path1070"
       style="fill:#5599ff;fill-opacity:1;stroke:#5599ff;stroke-width:1;stroke-linecap:round;stroke-opacity:1"
       d="m 245.40112,142.12749 c 0.83424,2.72463 0.57563,5.61252 0.44687,8.41091 -0.11134,0.61127 -0.62806,1.80825 0.33692,1.94434 1.08528,0.0819 2.18664,0.16794 3.24145,0.46166 0.81203,0.24628 1.65421,0.82805 2.52612,0.5038 0.7716,-0.87341 -0.9506,-1.07397 -1.52082,-1.23032 -1.49339,-0.35434 -3.05538,-0.59592 -4.58571,-0.37914 0.21126,0.48986 1.11701,0.25486 0.68007,-0.37227 -0.0713,-2.86266 0.32967,-5.75514 -0.21138,-8.59239 0.12389,-0.54005 -0.37942,-1.08983 -0.91352,-0.74659 z" />
    <path
       id="path1072"
       style="fill:#5599ff;fill-opacity:1;stroke:#5599ff;stroke-width:1;stroke-linecap:round;stroke-opacity:1"
       d="m 246.64892,147.48415 c 1.1033,-0.24372 2.23782,-0.3021 3.36473,-0.29712 -0.28345,0.2355 -0.29149,-0.32645 0.10853,-0.10997 0.76014,-0.007 0.62265,-1.02527 -0.14303,-0.78114 -1.35595,0.0213 -2.69362,0.2611 -4.01548,0.54699 0.22832,0.21385 0.45738,0.42692 0.68525,0.64124 z" />
    <path
       id="path1074"
       style="fill:#5599ff;fill-opacity:1;stroke:#5599ff;stroke-width:1;stroke-linecap:round;stroke-opacity:1"
       d="m 245.65569,142.51233 c 2.43182,-0.47051 4.87775,-0.93916 7.21542,-1.77712 -1.76436,-2.0468 -4.0992,1.39225 -6.34146,0.67889 -0.63115,0.009 -1.95788,0.44339 -0.87396,1.09823 z" />
    <path
       id="path1183"
       style="fill:#ffb380;fill-opacity:1;stroke:#ffb380;stroke-width:1;stroke-linecap:round;stroke-opacity:1"
       d="m 232.65272,268.6731 c 3.10854,3.86533 6.55727,7.50803 9.06802,11.80679 1.98963,1.50146 0.38806,-1.48173 -0.34851,-2.13234 -2.54084,-3.24981 -5.47141,-6.243 -7.54366,-9.82346 -0.36357,-0.25236 -0.84033,-0.0447 -1.17585,0.14901 z" />
    <path
       id="path1185"
       style="fill:#ffb380;fill-opacity:1;stroke:#ffb380;stroke-width:1;stroke-linecap:round;stroke-opacity:1"
       d="m 242.26549,266.74774 c -4.39829,4.17576 -7.93384,9.13066 -11.64375,13.8996 0.13209,2.29488 2.62812,-1.65037 3.42873,-2.31472 2.80288,-3.84145 5.6088,-7.7446 9.18898,-10.91422 -0.002,-0.52979 -0.72772,-0.34236 -0.97396,-0.67066 z" />
    <path
       id="path1197"
       style="fill:#ffb380;fill-opacity:1;stroke:#ffb380;stroke-width:1;stroke-linecap:round;stroke-opacity:1"
       d="m 188.51436,292.70834 c -1.70316,-1.67392 -2.80786,-3.83255 -3.99346,-5.87496 -0.80656,-1.32441 -2.37443,0.29302 -1.11597,1.17839 1.07797,1.57136 2.1014,3.19148 3.36905,4.62338 0.2524,0.96773 1.19252,0.29172 1.74038,0.0732 z" />
    <path
       id="path1199"
       style="fill:#ffb380;fill-opacity:1;stroke:#ffb380;stroke-width:1;stroke-linecap:round;stroke-opacity:1"
       d="m 178.87251,270.66073 c -1.12835,-2.60283 -0.80952,-5.60067 -2.01273,-8.17014 -0.17704,-0.65845 -1.15957,-1.28947 -0.97864,-0.12008 0.10576,1.31285 0.70983,2.52119 0.91797,3.81908 0.3616,1.54231 0.69092,3.09674 1.20514,4.59766 0.2985,0.0371 0.57538,-0.10486 0.86826,-0.12652 z" />
    <path
       id="path1201"
       style="fill:#ffb380;fill-opacity:1;stroke:#ffb380;stroke-width:1;stroke-linecap:round;stroke-opacity:1"
       d="m 178.23225,245.55036 c 0.54975,-2.22267 2.79665,-3.24488 4.32526,-4.70496 0.5293,-0.40654 1.88285,-1.47115 1.10818,-1.99612 -1.05188,0.28312 -1.59943,1.35867 -2.47689,1.93688 -1.49319,1.26145 -2.98381,2.67357 -3.71583,4.52019 0.0652,0.35817 0.52422,0.14221 0.75928,0.24401 z" />
    <path
       id="path1203"
       style="fill:#ffb380;fill-opacity:1;stroke:#ffb380;stroke-width:1;stroke-linecap:round;stroke-opacity:1"
       d="m 198.87038,231.90109 c 1.81039,-2.19613 4.52199,-3.28923 6.94775,-4.63198 0.71952,-0.17148 2.78858,-0.87449 2.17955,-1.43623 -1.69614,-0.42288 -3.22623,1.3484 -4.77846,1.93187 -1.81118,1.08808 -3.63705,2.21729 -5.20117,3.63866 -0.0576,0.41206 0.66522,0.27303 0.85233,0.49768 z" />
    <path
       id="path1205"
       style="fill:#ffb380;fill-opacity:1;stroke:#ffb380;stroke-width:1;stroke-linecap:round;stroke-opacity:1"
       d="m 230.92929,224.10403 c 2.16515,-0.57519 4.4714,-0.93455 6.68817,-0.48682 0.63785,0.23127 2.75844,-0.4594 1.42615,-1.0508 -1.37167,-0.22192 -2.80893,-0.0467 -4.20463,0.0213 -1.54078,0.14456 -3.06687,0.4252 -4.56783,0.79937 0.0274,0.36142 0.4981,0.43358 0.65814,0.71693 z" />
    <path
       id="path1207"
       style="fill:#ffb380;fill-opacity:1;stroke:#ffb380;stroke-width:1;stroke-linecap:round;stroke-opacity:1"
       d="m 264.97695,225.59434 c 3.82954,-0.64106 7.70275,0.25911 11.37306,1.26199 1.81167,0.0235 1.26587,-1.58695 -0.26753,-1.31983 -3.51902,-0.51262 -7.07541,-1.10579 -10.64235,-0.79454 -0.8445,-0.17057 -1.48914,0.25453 -0.46318,0.85238 z" />
    <path
       id="path1209"
       style="fill:#ffb380;fill-opacity:1;stroke:#ffb380;stroke-width:1;stroke-linecap:round;stroke-opacity:1"
       d="m 304.04585,234.98537 c 2.64941,0.74022 4.70434,2.75832 6.24552,4.95011 0.58706,0.92755 2.34598,1.15898 1.6185,-0.40709 -0.54147,-1.23402 -1.69233,-2.06015 -2.67296,-2.93408 -1.24941,-0.94458 -2.59716,-1.84691 -4.09871,-2.31387 -0.4727,0.0136 -0.72977,0.47512 -1.09235,0.70493 z" />
    <path
       id="path1211"
       style="fill:#ffb380;fill-opacity:1;stroke:#ffb380;stroke-width:1;stroke-linecap:round;stroke-opacity:1"
       d="m 309.27495,288.90936 c -1.7401,2.60236 -4.55399,4.13118 -7.06337,5.8745 -1.63228,0.2679 -0.12283,2.53573 0.88997,1.22997 1.58345,-1.04527 3.09559,-2.20291 4.59133,-3.37075 1.10617,-0.91545 2.15368,-1.90293 3.1198,-2.96549 -0.37029,-0.49126 -1.05331,-0.45892 -1.53773,-0.76823 z" />
    <path
       id="path1227"
       style="fill:#ffb380;fill-opacity:1;stroke:#ffb380;stroke-width:1;stroke-linecap:round;stroke-opacity:1"
       d="m 154.76136,286.64602 c -0.14714,-2.21791 0.11378,-4.43562 0.0701,-6.65442 -0.57875,-1.01963 -1.48699,0.39699 -0.99385,1.06972 0.16051,1.84409 0.40459,3.69125 0.31168,5.54615 0.18773,0.14032 0.40899,-0.0218 0.61207,0.0386 z" />
    <path
       id="path1229"
       style="fill:#ffb380;fill-opacity:1;stroke:#ffb380;stroke-width:1;stroke-linecap:round;stroke-opacity:1"
       d="m 154.34571,253.06177 c 0.22626,-2.39002 0.29554,-4.79963 0.72019,-7.16716 -0.0394,-0.6141 -0.39773,-1.68417 -0.7553,-0.5935 -0.53823,0.90545 -0.23468,1.99215 -0.41555,2.98298 -0.1218,1.57864 -0.28816,3.15332 -0.4363,4.72959 0.29565,0.016 0.59132,0.0322 0.88696,0.0481 z" />
    <path
       id="path1231"
       style="fill:#ffb380;fill-opacity:1;stroke:#ffb380;stroke-width:1;stroke-linecap:round;stroke-opacity:1"
       d="m 159.9447,224.79116 c 2.1233,-2.76273 4.51202,-5.36651 7.36895,-7.38606 0.86436,-0.98772 -0.49728,-0.83714 -0.86691,-0.11979 -2.56506,2.18175 -4.54227,4.93552 -6.83082,7.38408 l 0.16439,0.0609 z" />
    <path
       id="path1233"
       style="fill:#ffb380;fill-opacity:1;stroke:#ffb380;stroke-width:1;stroke-linecap:round;stroke-opacity:1"
       d="m 196.03287,197.58208 c 2.04052,-1.36357 4.34515,-2.24812 6.53801,-3.31519 0.86237,-1.11668 -1.165,-0.50773 -1.6253,-0.18215 -1.87605,0.98202 -3.72348,2.01944 -5.546,3.09885 0.21112,0.13279 0.422,0.26597 0.63329,0.39849 z" />
    <path
       id="path1235"
       style="fill:#ffb380;fill-opacity:1;stroke:#ffb380;stroke-width:1;stroke-linecap:round;stroke-opacity:1"
       d="m 223.03523,191.08496 c 2.9304,-0.91729 6.0386,-0.88247 9.07131,-0.80852 0.58005,0.0302 2.20428,-0.39478 0.77142,-0.69733 -1.42081,-0.31309 -2.87387,0.0876 -4.31107,-0.0207 -2.00899,0.0545 -4.05571,0.25642 -5.93066,1.02731 -0.21191,0.24845 0.24832,0.40266 0.399,0.49929 z" />
    <path
       id="path1237"
       style="fill:#ffb380;fill-opacity:1;stroke:#ffb380;stroke-width:1;stroke-linecap:round;stroke-opacity:1"
       d="m 257.06599,193.6246 c 2.22654,-0.64997 4.51928,0.16461 6.71877,0.54346 1.61744,0.45734 3.24387,0.83147 4.92741,0.84852 1.00287,0.0823 -1.15158,-0.83195 -1.60493,-0.99243 -1.61607,-0.42434 -3.28279,-0.64255 -4.91205,-1.03596 -1.81855,-0.334 -3.74389,-0.58032 -5.54866,-0.0587 -0.39368,0.25083 0.3121,0.51298 0.41946,0.69513 z" />
    <path
       id="path1239"
       style="fill:#ffb380;fill-opacity:1;stroke:#ffb380;stroke-width:1;stroke-linecap:round;stroke-opacity:1"
       d="m 287.00526,204.82119 c 2.78661,1.25086 5.39093,2.90068 8.21129,4.06245 0.69367,0.24325 2.43196,0.98904 0.99106,0.0651 -1.28702,-1.26496 -3.03704,-1.78448 -4.55574,-2.69499 -1.27213,-0.68361 -2.54987,-1.36522 -3.89225,-1.9028 -0.32725,0.0119 -0.49037,0.33237 -0.75436,0.47019 z" />
    <path
       id="path1241"
       style="fill:#ffb380;fill-opacity:1;stroke:#ffb380;stroke-width:1;stroke-linecap:round;stroke-opacity:1"
       d="m 312.10247,221.3857 c 0.96255,0.55924 1.7718,1.42989 2.87066,1.72286 0.87906,0.19047 0.14474,-0.77105 -0.22994,-0.93327 -0.63069,-0.35332 -1.11754,-0.9524 -1.78572,-1.22085 -0.36327,-0.0674 -0.55568,0.3077 -0.855,0.43126 z" />
    <path
       id="path1267"
       style="fill:#ffb380;fill-opacity:1;stroke:#ffb380;stroke-width:1;stroke-linecap:round;stroke-opacity:1"
       d="m 235.90001,175.01476 c -3.27898,1.00112 -5.31684,5.33079 -3.45945,8.34545 1.30842,1.7803 4.31359,1.89511 5.62692,0.0586 1.08545,-0.64596 0.25294,-3.35962 -0.33542,-1.42532 0.67366,2.0399 0.84047,4.1905 1.38412,6.25635 1.12308,1.87514 0.64371,-1.42246 0.39146,-2.10647 -0.84903,-1.51245 0.44121,-5.07508 -1.90898,-5.027 0.30774,1.99452 -2.15024,4.05949 -3.92887,2.41836 -1.9405,-1.70348 -1.00162,-4.83763 0.62385,-6.43082 0.53221,-1.19008 3.72888,-0.91813 1.60637,-2.08918 z" />
    <path
       id="path1269"
       style="fill:#ffb380;fill-opacity:1;stroke:#ffb380;stroke-width:1;stroke-linecap:round;stroke-opacity:1"
       d="m 243.01045,174.78629 c 0.16403,2.8277 0.2474,5.6645 0.26753,8.49325 0.23109,1.42371 1.42781,0.34147 0.97581,-0.62108 -0.36579,-2.55953 -0.38879,-5.16074 -0.2527,-7.73959 -0.21967,-0.36938 -0.67849,-0.008 -0.99064,-0.13258 z" />
    <path
       id="path1271"
       style="fill:#ffb380;fill-opacity:1;stroke:#ffb380;stroke-width:1;stroke-linecap:round;stroke-opacity:1"
       d="m 243.38596,174.76662 c 1.26539,-0.71999 3.81604,-1.50799 4.4275,0.3443 0.34383,1.65584 -2.15344,1.97849 -2.02507,3.34528 1.12202,1.29871 2.59326,2.30638 3.56046,3.76959 0.28374,0.55794 2.21605,2.7521 1.75676,1.04466 -1.07543,-1.7457 -2.5955,-3.17423 -3.94358,-4.70832 0.4604,-1.49012 2.65034,-2.81001 1.48717,-4.51613 -1.33294,-1.12928 -3.25169,-0.4172 -4.78676,-0.16017 -0.4735,0.0791 -1.51084,0.56487 -0.47648,0.88079 z" />
    <path
       id="path1273"
       style="fill:#ffb380;fill-opacity:1;stroke:#ffb380;stroke-width:1;stroke-linecap:round;stroke-opacity:1"
       d="m 255.74136,183.56203 c 1.14306,-3.1584 2.04866,-6.42949 3.67679,-9.38744 -0.2359,0.50407 -1.5048,0.0322 -0.591,0.90393 1.27733,2.59454 1.99584,5.42256 3.18903,8.04744 1.47429,0.75495 0.32517,-1.67207 0.002,-2.31694 -0.94176,-2.06407 -1.6504,-4.22739 -2.07073,-6.45224 -0.54642,-1.86771 -2.57647,-0.60649 -2.30057,0.93216 -0.68095,2.69303 -1.71994,5.28423 -2.68914,7.88527 0.0281,0.37002 0.502,0.40088 0.78312,0.38782 z" />
    <path
       id="path1275"
       style="fill:#ffb380;fill-opacity:1;stroke:#ffb380;stroke-width:1;stroke-linecap:round;stroke-opacity:1"
       d="m 258.40316,180.91343 c 0.59174,-0.10372 0.97282,-0.60602 1.4559,-0.8801 0.21413,-0.0316 0.53568,-0.3109 0.10933,-0.19067 -0.69948,0.2795 -1.46613,0.027 -2.17708,0.22364 -0.31963,0.17952 0.35993,0.47168 0.47004,0.70598 0.047,0.0473 0.0942,0.0944 0.14181,0.14115 z" />
    <path
       id="path1277"
       style="fill:#ffb380;fill-opacity:1;stroke:#ffb380;stroke-width:1;stroke-linecap:round;stroke-opacity:1"
       d="m 266.61628,173.72629 c 0.90124,1.87103 0.82333,4.01306 0.95354,6.03175 -0.1238,0.79477 0.36661,2.24644 0.64831,2.49501 0.27332,-0.93619 0.43387,-1.86587 0.20837,-2.83485 -0.14603,-1.92615 -0.29832,-3.85485 -0.60712,-5.76309 -0.35779,-0.33512 -0.80462,0.0939 -1.2031,0.0712 z" />
    <path
       id="path1279"
       style="fill:#ffb380;fill-opacity:1;stroke:#ffb380;stroke-width:1;stroke-linecap:round;stroke-opacity:1"
       d="m 265.29419,173.86959 c 1.54379,-1.0148 3.71602,-1.44403 5.3463,-0.38105 1.1612,1.19314 -0.36191,2.84902 -1.62987,3.00814 0.0491,1.30847 1.61305,1.21762 2.18286,0.27275 1.04197,-0.85874 1.82701,-2.58726 0.77007,-3.73168 -1.23831,-1.11596 -3.06887,-0.8978 -4.60551,-0.73129 -1.01753,0.16566 -2.01417,0.51407 -2.87665,1.08521 0.27094,0.15929 0.54181,0.31872 0.8128,0.47792 z" />
    <path
       id="path1281"
       style="fill:#ffb380;fill-opacity:1;stroke:#ffb380;stroke-width:1;stroke-linecap:round;stroke-opacity:1"
       d="m 277.11765,172.22413 c 0.16006,3.05627 -0.0371,6.11707 -0.27372,9.16284 -0.1126,1.01219 1.04906,1.51136 1.12208,0.21653 0.33337,-1.59486 0.18851,-3.24775 0.24503,-4.86912 0.0189,-1.4137 -0.0472,-2.85427 0.12536,-4.24464 -0.23162,-0.42129 -0.83597,-0.22023 -1.21875,-0.26561 z" />
    <path
       id="path1283"
       style="fill:#ffb380;fill-opacity:1;stroke:#ffb380;stroke-width:1;stroke-linecap:round;stroke-opacity:1"
       d="m 279.37066,178.00962 c 1.48575,-0.34254 3.01277,-0.43887 4.51083,-0.71095 0.48855,-0.22989 0.68804,-1.05272 -0.0893,-0.79554 -1.15107,-0.26151 -2.26836,0.23385 -3.40096,0.36874 -0.51507,0.16295 -1.64817,0.15894 -1.7544,0.4567 0.2446,0.22702 0.48923,0.45403 0.73381,0.68105 z" />
    <path
       id="path1285"
       style="fill:#ffb380;fill-opacity:1;stroke:#ffb380;stroke-width:1;stroke-linecap:round;stroke-opacity:1"
       d="m 284.9101,171.47108 c 0.2029,2.81507 -0.38209,5.61472 -0.39419,8.42011 0.0168,0.57259 0.51712,2.46016 0.55457,0.97585 0.27381,-1.7161 0.13061,-3.46214 0.34768,-5.18746 0.11513,-1.25438 0.15452,-2.52179 0.33636,-3.76229 0.006,-0.46378 -0.48815,-0.56331 -0.84442,-0.44621 z" />
    <path
       id="path1287"
       style="fill:#ffb380;fill-opacity:1;stroke:#ffb380;stroke-width:1;stroke-linecap:round;stroke-opacity:1"
       d="m 291.01393,173.08293 c 0.39394,2.91176 0.0723,5.87264 0.42998,8.78129 0.75226,1.03895 1.44555,-0.45772 1.05368,-1.18898 -0.12446,-2.44625 -0.24526,-4.90039 -0.4202,-7.33837 -0.1346,-0.46876 -0.71948,-0.32147 -1.06346,-0.25394 z" />
    <path
       id="path1289"
       style="fill:#ffb380;fill-opacity:1;stroke:#ffb380;stroke-width:1;stroke-linecap:round;stroke-opacity:1"
       d="m 291.59244,170.22944 c 1.17175,-0.27494 1.96526,-2.47095 0.17422,-2.30292 -0.97752,-0.27558 -2.97661,1.07026 -1.34151,1.62616 0.39808,0.20891 0.81079,0.39874 1.16729,0.67676 z" />
    <path
       id="path1291"
       style="fill:#ffb380;fill-opacity:1;stroke:#ffb380;stroke-width:1;stroke-linecap:round;stroke-opacity:1"
       d="m 300.21728,171.33005 c -2.16476,1.29211 -3.81337,3.60234 -3.77856,6.19376 -0.17529,1.8169 0.39372,4.21961 2.47574,4.62031 0.843,0.26938 3.5915,0.21301 3.09408,-0.93918 -1.52747,-0.028 -3.57018,0.24546 -4.23035,-1.56862 -0.73761,-2.07524 -0.0147,-4.53823 1.46489,-6.12308 0.39724,-0.94726 3.05434,-1.06065 1.41168,-1.8487 -0.1459,-0.11139 -0.29176,-0.22285 -0.43748,-0.33449 z" />
    <path
       id="path1293"
       style="fill:#ffb380;fill-opacity:1;stroke:#ffb380;stroke-width:1;stroke-linecap:round;stroke-opacity:1"
       d="m 310.40995,169.90301 c -1.76257,0.58183 -4.11468,2.07147 -3.53317,4.23538 0.69694,1.95558 3.52275,2.309 3.82207,4.47724 -0.16293,2.20045 -3.07748,2.08284 -4.09328,3.61237 0.50837,1.07589 2.82564,-0.26204 3.72675,-0.81149 2.06224,-1.00666 2.4557,-3.89368 0.35181,-5.08847 -1.61635,-0.67874 -3.92075,-2.54866 -2.30021,-4.38339 0.17906,-1.13761 3.68715,-0.81337 2.02603,-2.04164 z" />
  </g>
</svg>
