<?xml version="1.0" encoding="UTF-8" standalone="no"?>
<svg
   xmlns:dc="http://purl.org/dc/elements/1.1/"
   xmlns:cc="http://creativecommons.org/ns#"
   xmlns:rdf="http://www.w3.org/1999/02/22-rdf-syntax-ns#"
   xmlns:svg="http://www.w3.org/2000/svg"
   xmlns="http://www.w3.org/2000/svg"
   xmlns:sodipodi="http://sodipodi.sourceforge.net/DTD/sodipodi-0.dtd"
   xmlns:inkscape="http://www.inkscape.org/namespaces/inkscape"
   sodipodi:docname="ol-ann-full.svg"
   inkscape:version="1.0.1 (3bc2e813f5, 2020-09-07)"
   id="svg8"
   version="1.1"
   viewBox="0 0 317.5 158.75"
   height="600"
   width="1200">
  <defs
     id="defs2" />
  <sodipodi:namedview
     inkscape:snap-global="false"
     inkscape:document-rotation="0"
     inkscape:window-maximized="0"
     inkscape:window-y="19"
     inkscape:window-x="0"
     inkscape:window-height="1061"
     inkscape:window-width="1920"
     units="px"
     showgrid="false"
     inkscape:current-layer="layer1"
     inkscape:document-units="mm"
     inkscape:cy="313.29591"
     inkscape:cx="615.72997"
     inkscape:zoom="1.4"
     inkscape:pageshadow="2"
     inkscape:pageopacity="0.0"
     borderopacity="1.0"
     bordercolor="#666666"
     pagecolor="#ffffff"
     id="base" />
  <metadata
     id="metadata5">
    <rdf:RDF>
      <cc:Work
         rdf:about="">
        <dc:format>image/svg+xml</dc:format>
        <dc:type
           rdf:resource="http://purl.org/dc/dcmitype/StillImage" />
        <dc:title></dc:title>
      </cc:Work>
    </rdf:RDF>
  </metadata>
  <g
     transform="translate(0,-138.25001)"
     id="layer1"
     inkscape:groupmode="layer"
     inkscape:label="Layer 1">
    <path
       id="path41"
       style="fill:#000000;stroke:#000000;stroke-width:0.264583"
       d="m 35.71254,188.87675 c -1.633064,2.14349 -2.171567,5.13955 -0.824043,7.56089 0.932117,2.15578 3.496426,2.64945 5.535485,1.94235 3.551811,-0.93874 7.273016,-3.52136 7.740752,-7.43294 0.553537,-3.14568 -2.269259,-6.3653 -5.505534,-5.9626 -1.752402,0.55571 -4.643854,1.46456 -4.930002,3.50783 1.54844,0.91631 3.183806,-2.48406 5.275384,-2.1999 2.698525,-0.12638 4.43863,3.21047 3.647857,5.58551 -1.107441,3.62021 -4.965617,6.09708 -8.681513,6.08437 -2.984981,-0.80306 -3.472479,-4.83091 -2.102618,-7.17042 0.731796,-0.80624 1.550501,-1.77024 -0.155768,-1.91509 z" />
    <path
       id="path43"
       style="fill:#000000;stroke:#000000;stroke-width:0.264583"
       d="m 35.798238,232.50762 c -4.061615,3.78547 -2.38828,11.77484 3.139933,13.14518 4.579096,0.74879 9.293672,-2.6049 10.402122,-7.06415 1.196192,-2.98582 1.552526,-7.22197 -1.453977,-9.2703 -2.968118,-2.02091 -6.8633,-0.60931 -9.099299,1.8292 -1.50499,0.91058 -1.090532,3.97435 0.474129,1.67625 1.552068,-2.07665 4.185774,-4.13055 6.902423,-3.01758 3.288519,1.42462 3.437933,5.8368 2.236966,8.73462 -1.487783,3.8141 -5.40127,7.37065 -9.73898,6.4962 -4.603933,-1.43033 -5.934485,-8.63317 -1.991095,-11.51381 0.427486,-0.5728 -0.529901,-0.81537 -0.872222,-1.01561 z" />
    <path
       id="path45"
       style="fill:#000000;stroke:#000000;stroke-width:0.264583"
       d="m 108.67879,148.83334 c -2.62363,0.98185 -4.18837,3.84368 -3.65331,6.58079 0.10567,3.60106 2.43164,7.31269 6.14218,8.01798 2.88531,0.68289 6.01186,-0.83441 7.26986,-3.52027 1.63404,-2.8709 2.17619,-6.97894 -0.1495,-9.62637 -2.15375,-2.14746 -6.28042,-2.17879 -8.2701,0.1873 0.22986,2.19546 3.15299,-1.46823 4.71769,-0.88286 3.25718,0.18839 4.89965,3.89733 4.34919,6.78745 -0.45238,3.71327 -3.71926,7.54884 -7.73958,6.94724 -5.57812,-0.8514 -8.16727,-8.72536 -4.29399,-12.76919 0.15662,-0.75519 2.90626,-0.98397 1.62756,-1.72207 z" />
    <path
       id="path47"
       style="fill:#000000;stroke:#000000;stroke-width:0.264583"
       d="m 106.06012,203.18252 c -1.75483,1.85069 -2.1748,4.49151 -2.41534,6.93083 -0.2156,2.68366 1.54146,5.58196 4.25811,6.17762 2.9436,0.78276 6.15487,-0.13993 8.46167,-2.06497 2.09753,-1.72125 3.61168,-4.33461 3.56609,-7.09668 -0.13372,-2.0283 -1.933,-3.54841 -3.81021,-4.00501 -2.45596,-0.53874 -5.2735,-0.0546 -7.1366,1.71915 -0.72238,0.38678 -0.11579,1.53152 0.5564,0.84312 0.77137,-0.45988 1.4149,-1.17322 2.29487,-1.41969 2.14297,-1.12822 5.22537,-0.49072 6.41344,1.71782 0.78208,1.58245 0.43587,3.50261 -0.32656,5.02654 -1.19199,2.29282 -3.35935,4.06681 -5.8296,4.81207 -2.27335,0.64077 -5.04665,0.26848 -6.64094,-1.61317 -1.44026,-1.78773 -1.51559,-4.32236 -0.89019,-6.44787 0.35746,-1.22254 0.93623,-2.37867 1.68875,-3.40565 0.70151,-0.30711 0.63894,-1.14428 -0.18989,-1.17411 z" />
    <path
       id="path51"
       style="fill:#000000;stroke:#000000;stroke-width:0.264583"
       d="m 106.26948,262.69883 c -3.13281,2.36104 -5.89724,6.25269 -4.77818,10.35948 0.95504,4.28487 5.86757,7.0341 10.02081,5.56513 4.09473,-1.34349 7.26585,-5.68091 6.89415,-10.02855 -0.64119,-4.06767 -5.34532,-6.62307 -9.16135,-5.19491 -1.40821,-0.0375 -4.95902,3.57977 -2.03207,1.96646 2.49294,-1.32926 5.96616,-1.95135 8.13303,0.30057 2.18548,1.98306 2.48585,5.41323 0.96897,7.88646 -1.93152,3.97175 -7.42105,6.29859 -11.28545,3.62577 -3.9631,-2.6115 -3.84889,-8.72015 -0.55973,-11.82005 0.27069,-1.02605 3.95859,-1.82584 1.79982,-2.66036 z" />
    <path
       id="path53"
       style="fill:#000000;stroke:#000000;stroke-width:0.264583"
       d="m 183.6314,171.36077 c -3.67574,2.00808 -6.99285,6.37877 -5.50667,10.72393 2.06274,5.28618 9.01874,7.2102 13.88188,4.69051 3.95961,-1.68464 7.65634,-5.68612 6.9553,-10.26114 -1.13431,-3.83732 -5.80904,-4.60604 -9.2527,-4.08785 -1.26216,-0.057 -5.40422,1.56488 -3.98066,2.31835 2.81495,-0.90308 5.87894,-2.25382 8.80586,-0.89408 2.87543,0.93304 3.60871,4.42448 2.33785,6.89395 -2.31813,5.03655 -9.01536,8.27973 -14.1349,5.40582 -3.31381,-1.69414 -5.24675,-6.09673 -3.16077,-9.45083 0.72272,-2.25556 4.00371,-3.7588 4.90912,-4.7316 -0.28477,-0.20236 -0.56953,-0.40473 -0.85431,-0.60706 z" />
    <path
       id="path55"
       style="fill:#000000;stroke:#000000;stroke-width:0.264583"
       d="m 181.8171,244.13101 c -2.59871,1.97606 -5.55909,4.94073 -5.02286,8.4884 1.23298,3.83865 5.86875,4.85933 9.44927,4.62755 4.2538,-0.24763 9.13603,-2.68631 9.9276,-7.2555 0.66259,-2.95818 -1.69928,-5.62873 -4.49266,-6.18156 -2.36383,-0.51042 -4.96523,-0.55323 -7.25372,0.24216 -1.3587,1.30188 2.38297,0.0666 3.0884,0.36057 3.09361,-0.38955 7.32358,1.10566 7.29752,4.78236 -0.0353,4.28797 -4.46436,6.98386 -8.29482,7.50721 -3.08017,0.39719 -6.90599,-0.46086 -8.50463,-3.36262 -1.11932,-3.07848 1.29987,-5.97539 3.62238,-7.70836 0.55917,-0.65253 1.56057,-1.01893 0.18352,-1.50021 z" />
    <path
       id="path57"
       style="fill:#000000;stroke:#000000;stroke-width:0.264583"
       d="m 249.21829,175.75314 c -3.06819,1.47144 -3.6285,6.81029 -0.21693,8.21701 2.78781,1.19299 5.94733,0.75591 8.85736,0.36054 3.09327,-0.57375 6.04694,-3.12322 5.92017,-6.47717 0.11558,-3.23014 -3.13149,-4.98846 -5.95452,-5.23657 -3.59753,-0.62738 -7.52623,0.66307 -9.82818,3.52912 -0.76445,2.06268 2.57641,-1.13754 3.44889,-1.31177 3.01319,-1.8393 7.52637,-1.88477 10.07796,0.76314 1.99346,2.79509 -0.029,6.85128 -3.10274,7.82085 -3.03519,1.2636 -6.64978,1.24299 -9.62086,-0.17978 -2.17413,-1.5044 -1.68313,-5.3829 0.7011,-6.39628 0.86198,-0.35669 0.29149,-0.91321 -0.28225,-1.08909 z" />
    <path
       id="path59"
       style="fill:#000000;stroke:#000000;stroke-width:0.264583"
       d="m 251.204,242.45377 c -3.23364,1.77153 -4.52205,6.44197 -2.62628,9.59042 2.74608,2.97028 7.3729,2.69172 10.94652,1.69787 4.09066,-1.25622 7.65518,-5.37056 7.0578,-9.80818 -0.42589,-2.95607 -3.28934,-5.28634 -6.31023,-4.81481 -2.33113,-0.10351 -7.59144,1.57453 -7.25221,3.3986 2.90381,-1.21931 6.29524,-3.26518 9.46571,-1.72019 2.98166,1.57593 3.36507,5.79142 1.41553,8.33209 -2.85835,4.42953 -9.72884,6.10765 -13.99594,2.77994 -2.43436,-2.65815 -0.84734,-7.24699 2.21422,-8.65379 -0.0157,-0.44869 -0.63264,-0.5713 -0.91512,-0.80195 z" />
    <path
       id="path61"
       style="fill:#3c8eee;fill-opacity:1;stroke:#3c8eee;stroke-width:0.264583;stroke-opacity:1"
       d="m 56.70952,186.18623 c 6.536254,-3.6396 12.408724,-8.29753 18.548639,-12.52075 5.616755,-3.3724 11.848747,-5.48633 17.902876,-7.91019 2.891379,-3.24211 -4.176799,0.23945 -5.23333,1.08254 -6.883111,2.62531 -13.573463,5.83106 -19.29166,10.54549 -3.963662,3.09016 -8.220655,5.91062 -12.62083,8.23533 0.04023,0.3372 0.382056,0.54706 0.694305,0.56758 z" />
    <path
       id="path63"
       style="fill:#3c8eee;fill-opacity:1;stroke:#3c8eee;stroke-width:0.264583;stroke-opacity:1"
       d="m 89.272283,161.84454 c 3.46931,1.04658 7.135475,0.55544 10.686275,1.00138 -0.569189,0.60264 -1.736024,-0.82499 -1.919637,0.54662 -1.983123,2.22772 -4.317216,4.15076 -6.059024,6.58329 1.653212,-1.19878 3.313676,-2.38655 4.76357,-3.83405 0.996545,-1.46272 3.525923,-2.0869 3.733633,-3.88675 -0.848372,-1.409 -2.717858,0.18353 -4.04042,-0.1568 -2.178728,0.11084 -4.360653,-0.19122 -6.475216,-0.68008 -0.291446,-0.009 -0.542736,0.18925 -0.689181,0.42639 z" />
    <path
       id="path65"
       style="fill:#3c8eee;fill-opacity:1;stroke:#3c8eee;stroke-width:0.264583;stroke-opacity:1"
       d="m 55.0026,190.17213 c 11.680561,4.96312 22.770891,11.28936 34.688454,15.68074 1.16976,1.79253 7.521888,2.03915 3.258485,0.21991 -12.062176,-3.60643 -22.883224,-10.23513 -34.514047,-14.87422 -0.999739,-0.4986 -2.265125,-1.97621 -3.432892,-1.02643 z" />
    <path
       id="path67"
       style="fill:#3c8eee;fill-opacity:1;stroke:#3c8eee;stroke-width:0.264583;stroke-opacity:1"
       d="m 91.602371,201.90605 c 2.088026,1.54881 4.104206,3.29113 5.491242,5.51837 0.03796,1.61289 -2.223154,1.35973 -3.268646,1.918 -1.275104,0.20543 -3.943429,1.27419 -4.202736,1.75651 2.205861,0.0212 4.373368,-0.41739 6.50518,-0.94497 1.250259,-0.11232 3.023104,-0.88256 2.55928,-2.43745 -0.501557,-1.36448 -1.95888,-2.04007 -2.868883,-3.11478 -1.089259,-1.04439 -2.15049,-2.11997 -3.140307,-3.25975 -0.358395,0.18799 -0.716652,0.37624 -1.07513,0.56407 z" />
    <path
       id="path71"
       style="fill:#3c8eee;fill-opacity:1;stroke:#3c8eee;stroke-width:0.264583;stroke-opacity:1"
       d="m 52.002081,195.58759 c 7.828191,9.70245 15.257935,19.7294 21.951543,30.23772 6.292703,7.85136 13.749621,14.92677 18.197195,24.08426 0.833434,4.27006 10.987871,11.82156 4.159162,4.59422 -5.44803,-7.11313 -8.962385,-15.63482 -15.860835,-21.61165 C 70.256512,221.39793 63.579683,207.21226 52.798691,196.23175 Z" />
    <path
       id="path73"
       style="fill:#3c8eee;fill-opacity:1;stroke:#3c8eee;stroke-width:0.264583;stroke-opacity:1"
       d="m 98.804274,251.87776 c 1.238026,2.77245 1.865096,5.77545 2.209886,8.77978 -0.44017,0.74776 0.35264,-0.42918 0.67239,-0.14401 -2.167581,-0.45588 -4.225251,-1.46883 -6.472807,-1.522 -0.723721,-0.41405 -1.218823,-0.1583 -0.26483,0.30413 1.412851,1.44453 3.409522,2.0511 5.251277,2.73736 1.37958,0.73063 3.35441,-0.28359 2.20226,-1.8757 -0.77383,-1.84753 -1.25886,-3.8114 -1.8324,-5.73113 -0.59495,-1.07435 0.16326,-3.51736 -1.765776,-2.54843 z" />
    <path
       id="path75"
       style="fill:#3c8eee;fill-opacity:1;stroke:#3c8eee;stroke-width:0.264583;stroke-opacity:1"
       d="m 55.401187,232.07304 c 10.21444,-17.95156 22.445189,-34.67263 35.04822,-50.97285 2.891265,-8.13325 -3.693844,3.95549 -5.417449,5.93728 -6.851305,8.94487 -13.633587,17.95122 -19.147654,27.80384 -3.653576,5.79453 -7.535052,11.44077 -11.438936,17.0683 0.318606,0.0545 0.637213,0.10895 0.955819,0.16343 z" />
    <path
       id="path77"
       style="fill:#3c8eee;fill-opacity:1;stroke:#3c8eee;stroke-width:0.264583;stroke-opacity:1"
       d="m 85.095648,180.00095 c 2.821864,-2.84582 6.153424,-5.17058 9.622312,-7.14036 1.17759,-0.44056 -1.396753,-0.29189 -0.484483,0.72043 0.240025,1.82605 -0.388269,3.76751 0.290509,5.56662 -0.08978,1.88126 0.676577,-0.93251 0.797057,-1.47632 0.04259,-1.7381 0.532276,-3.51783 0.149351,-5.22957 -0.981746,-1.66868 -2.471928,0.57585 -3.372872,1.25604 -2.554788,2.08641 -5.349044,3.85054 -8.014377,5.78802 0.337503,0.17171 0.675004,0.34342 1.012503,0.51514 z" />
    <path
       id="path79"
       style="fill:#3c8eee;fill-opacity:1;stroke:#3c8eee;stroke-width:0.264583;stroke-opacity:1"
       d="m 57.960664,235.58919 c 10.063621,-5.36777 20.565033,-9.93194 30.660372,-15.18048 2.041754,-0.18184 6.083548,-3.7869 1.911666,-2.19843 -3.593156,2.34904 -7.337065,4.40033 -11.279613,6.13842 -6.553813,2.98537 -13.038093,6.16477 -19.531944,9.2434 -0.723486,0.245 -3.777127,0.99022 -1.760481,1.99709 z" />
    <path
       id="path81"
       style="fill:#3c8eee;fill-opacity:1;stroke:#3c8eee;stroke-width:0.264583;stroke-opacity:1"
       d="m 88.001271,215.66009 c 3.033625,-0.001 6.118418,-0.24603 9.119471,-0.0549 -0.484562,0.91175 -1.21098,2.3251 -1.974335,3.32328 -0.988975,1.61337 -2.730326,2.78386 -3.195794,4.68061 0.64685,0.3628 2.145625,-1.46205 2.751595,-2.28405 1.315018,-1.80267 3.066697,-3.28235 4.175412,-5.23011 0.473909,-1.92825 -1.962031,-1.70291 -3.146878,-1.44417 -2.563201,0.25314 -5.144417,0.33066 -7.710279,0.0819 -1.24534,0.0246 -0.334049,0.47958 -0.01919,0.92742 z" />
    <path
       id="path83"
       style="fill:#3c8eee;fill-opacity:1;stroke:#3c8eee;stroke-width:0.264583;stroke-opacity:1"
       d="m 54.15408,242.18185 c 10.588283,8.6071 22.105306,16.05841 34.102014,22.5097 1.25207,2.02288 8.316622,4.99663 3.771766,1.54263 -11.192946,-6.56983 -22.755795,-12.69092 -32.784412,-21.04117 -1.712582,-0.60911 -3.158124,-4.19485 -5.089368,-3.01116 z" />
    <path
       id="path85"
       style="fill:#3c8eee;fill-opacity:1;stroke:#3c8eee;stroke-width:0.264583;stroke-opacity:1"
       d="m 92.88429,263.48055 c 1.57667,1.7664 2.530927,4.04614 2.814243,6.38789 -0.63301,0.33668 -1.524142,-0.2925 -2.314945,0.0907 -1.221374,-0.0864 -2.276571,0.34163 -3.389345,0.6186 -1.654472,0.16588 0.5903,0.93825 1.194537,0.85165 1.871079,0.0397 3.774951,0.48803 5.629039,0.0547 1.241234,-0.82909 0.279888,-2.42588 -0.17163,-3.44901 -0.785766,-1.66159 -1.782746,-3.21274 -2.574637,-4.87122 -0.43773,-0.18662 -0.775689,0.27126 -1.187262,0.31668 z" />
    <path
       id="path87"
       style="fill:#14c420;fill-opacity:1;stroke:#14c420;stroke-width:0.264583;stroke-opacity:1"
       d="m 8.6313731,238.9937 c 4.0178799,-0.22525 8.0444239,-0.25826 12.0627679,-0.47088 1.086446,-0.40393 3.890494,0.86666 3.718451,-0.7868 -1.271015,-1.16502 -3.050984,-0.29148 -4.560724,-0.34222 -4.041106,0.30333 -8.096879,0.56925 -12.150511,0.38627 0.092989,0.55231 0.6803005,0.7589 0.9300161,1.21363 z" />
    <path
       id="path89"
       style="fill:#14c420;fill-opacity:1;stroke:#14c420;stroke-width:0.264583;stroke-opacity:1"
       d="m 21.087559,235.02513 c 2.31918,0.4912 4.579153,1.45172 6.382687,3.01414 0.354836,0.89751 -1.412404,0.96419 -1.817712,1.63966 -0.854486,0.44831 -2.725511,1.36525 -2.411448,2.26977 1.522418,-0.0622 2.938358,-0.69897 4.212076,-1.50883 0.995582,-0.4101 2.87856,-1.56631 1.807977,-2.76896 -1.031399,-0.49534 -2.049523,-1.01335 -3.047317,-1.58767 -1.352689,-0.70104 -2.747107,-1.31638 -4.132271,-1.94937 -0.331336,0.29708 -0.66262,0.59422 -0.993992,0.89126 z" />
    <path
       id="path91"
       style="fill:#14c420;fill-opacity:1;stroke:#14c420;stroke-width:0.264583;stroke-opacity:1"
       d="m 8.439266,193.3626 c 4.947371,-0.23327 9.905219,0.28075 14.84736,0.0123 1.325015,0.72968 3.307473,-0.80331 1.052024,-1.15555 -2.030295,0.0696 -4.051041,0.46887 -6.099773,0.40034 -3.454102,0.0583 -6.90844,-0.16425 -10.3618879,-0.0279 -0.00882,0.37275 0.4264107,0.4735 0.5622769,0.77078 z" />
    <path
       id="path93"
       style="fill:#14c420;fill-opacity:1;stroke:#14c420;stroke-width:0.264583;stroke-opacity:1"
       d="m 22.667951,189.87473 c 1.973693,0.22944 4.01872,0.5946 5.692592,1.73423 0.556086,1.23184 -1.162857,1.88311 -1.917182,2.52748 -1.168836,0.35256 -2.059696,1.90774 -2.449107,2.48973 0.990381,-0.70099 2.347618,-0.30685 3.341922,-1.03044 1.20603,-0.70723 2.776543,-1.43348 3.062597,-2.95135 0.395075,-1.77378 -1.672279,-2.28387 -2.969257,-2.59589 -1.377712,-0.17004 -2.712138,-1.20718 -4.106872,-0.83758 -0.282658,0.14518 -0.490639,0.39798 -0.654693,0.66382 z" />
    <path
       id="path95"
       style="fill:#14c420;fill-opacity:1;stroke:#14c420;stroke-width:0.264583;stroke-opacity:1"
       d="m 8.1991773,210.6872 c 2.0886497,2.00927 3.4079807,4.63739 5.0325777,7.00289 0.897091,1.02333 1.386569,3.70338 2.945307,3.3856 0.01992,-1.68052 -1.693561,-2.66732 -2.39986,-4.06328 -1.424821,-2.04119 -2.72399,-4.16614 -4.1236402,-6.22424 -0.1165111,-0.87971 -1.0060339,-0.27763 -1.4543845,-0.10097 z" />
    <path
       id="path97"
       style="fill:#14c420;fill-opacity:1;stroke:#14c420;stroke-width:0.264583;stroke-opacity:1"
       d="m 14.594148,209.80099 c -1.921544,3.97249 -4.7340047,7.40828 -7.027034,11.15823 -1.1484733,0.62572 -0.072181,2.59333 0.6108843,0.91165 2.1397107,-4.0433 5.2685607,-7.44391 7.4806277,-11.44013 0.140935,-0.61765 -0.705649,-0.53884 -1.064478,-0.62975 z" />
    <path
       id="path101"
       style="fill:#3c8eee;fill-opacity:1;stroke:#3c8eee;stroke-width:0.264583;stroke-opacity:1"
       d="m 126.38727,159.95018 c 7.57683,1.55002 13.70721,6.75222 21.02398,9.07834 7.33766,2.77901 15.10216,4.37158 22.23085,7.71011 -3.04671,-2.93996 -8.72085,-3.04077 -12.735,-4.93477 -9.74261,-3.06785 -18.80546,-7.82976 -28.00972,-12.13671 -0.80328,-0.2692 -1.84181,-0.37809 -2.51011,0.28303 z" />
    <path
       id="path103"
       style="fill:#3c8eee;fill-opacity:1;stroke:#3c8eee;stroke-width:0.264583;stroke-opacity:1"
       d="m 167.92462,171.44915 c 1.95484,1.29458 3.76338,2.95357 4.77838,5.10296 0.34961,1.53921 -1.49635,2.14711 -2.60237,2.61571 -0.88757,0.63893 -2.90135,0.7232 -3.35926,0.91239 2.08159,-0.39123 4.42832,0.22714 6.25925,-1.10387 1.58739,-0.8756 0.87112,-2.86612 -0.29011,-3.75522 -1.33527,-1.40716 -2.72295,-2.76292 -4.08621,-4.14264 -0.23318,0.12364 -0.46674,0.24657 -0.69968,0.37067 z" />
    <path
       id="path105"
       style="fill:#3c8eee;fill-opacity:1;stroke:#3c8eee;stroke-width:0.264583;stroke-opacity:1"
       d="m 123.85302,163.87356 c 6.90643,10.72608 16.08541,19.88766 21.77485,31.42059 8.30662,13.47152 16.42919,27.081 24.35246,40.76114 1.08259,-2.91405 -7.73111,-12.84584 -9.87808,-18.57291 -10.73185,-17.29373 -20.86217,-35.09087 -34.01217,-50.71451 -0.58537,-0.89708 -0.78041,-2.78922 -2.23706,-2.89431 z" />
    <path
       id="path107"
       style="fill:#3c8eee;fill-opacity:1;stroke:#3c8eee;stroke-width:0.264583;stroke-opacity:1"
       d="m 171.84387,230.86231 c 1.15723,2.69934 1.87993,5.57405 2.50167,8.43533 0.009,0.78767 0.0762,1.69187 -0.35402,0.95034 -3.38661,-0.80861 -6.48505,-2.59308 -9.95263,-3.11967 -1.39502,-0.35954 1.37839,0.85707 1.71595,1.16035 2.04552,0.97622 4.20811,1.68424 6.20786,2.7696 1.29734,1.15021 4.62652,1.19724 3.80471,-1.26548 -1.30438,-2.1536 -1.6387,-4.75576 -2.31171,-7.15999 -0.35991,-0.88373 -0.13339,-2.62294 -1.61183,-1.77048 z" />
    <path
       id="path111"
       style="fill:#3c8eee;fill-opacity:1;stroke:#3c8eee;stroke-width:0.264583;stroke-opacity:1"
       d="m 124.28874,207.86382 c 8.60268,-7.54789 18.95956,-12.73014 29.17452,-17.70554 1.92262,-0.85949 7.39581,-2.53826 6.6069,-4.02521 -4.21382,0.58006 -7.33794,4.0207 -11.31803,5.38804 -8.77677,4.76707 -16.98267,10.48869 -25.39378,15.85427 0.31014,0.16279 0.62027,0.32561 0.93039,0.48844 z" />
    <path
       id="path113"
       style="fill:#3c8eee;fill-opacity:1;stroke:#3c8eee;stroke-width:0.264583;stroke-opacity:1"
       d="m 156.53744,183.65574 c 2.7726,0.30268 5.68929,0.0964 8.32194,1.11411 0.0574,1.081 -1.3777,1.75522 -2.00314,2.59384 -1.16417,0.98946 -2.37535,1.95187 -3.2924,3.18216 -0.59153,0.64349 1.17962,-0.55857 1.55359,-0.68387 1.52559,-0.8708 2.73302,-2.17542 4.07855,-3.28565 1.26134,-0.70063 1.85841,-2.9453 -0.20526,-2.67985 -2.56725,-0.10413 -5.14523,-0.39115 -7.65361,-0.97201 -0.26656,0.24375 -0.53305,0.48759 -0.79967,0.73127 z" />
    <path
       id="path125"
       style="fill:#3c8eee;fill-opacity:1;stroke:#3c8eee;stroke-width:0.264583;stroke-opacity:1"
       d="m 124.3537,215.67472 c 10.80111,3.42658 19.59101,10.91773 29.70572,15.77528 1.00679,1.14179 5.56437,3.52275 4.31639,0.72338 -6.50559,-2.82783 -13.03701,-5.66587 -18.93776,-9.65286 -4.45684,-2.68965 -9.05678,-5.26177 -13.73989,-7.44787 -0.51503,-0.0743 -1.04987,0.17659 -1.34446,0.60207 z" />
    <path
       id="path127"
       style="fill:#3c8eee;fill-opacity:1;stroke:#3c8eee;stroke-width:0.264583;stroke-opacity:1"
       d="m 157.66991,228.35301 c 1.78823,1.35022 3.59358,3.02429 4.08067,5.30678 -0.17494,1.52065 -2.13665,1.5046 -3.24481,1.97559 -1.13554,0.37114 -3.26268,0.67619 -3.79991,1.02969 1.45363,0.13786 2.92374,0.032 4.38276,0.0166 1.44498,-0.11985 3.15191,-0.36479 4.07481,-1.60177 0.64436,-1.44163 -0.63392,-2.73183 -1.34882,-3.87085 -0.87394,-1.16044 -1.81455,-2.29306 -2.89377,-3.26415 -0.47478,-0.26224 -0.84034,0.2741 -1.25093,0.40809 z" />
    <path
       id="path129"
       style="fill:#3c8eee;fill-opacity:1;stroke:#3c8eee;stroke-width:0.264583;stroke-opacity:1"
       d="m 127.14995,266.36374 c 11.9341,-5.07749 23.89214,-10.1801 36.29915,-14.00898 3.04265,0.41111 1.72657,-3.26127 -0.53769,-0.76022 -9.27528,4.5592 -19.26029,7.41396 -28.74627,11.48199 -1.28221,1.16721 -8.77914,1.86839 -7.01519,3.28721 z" />
    <path
       id="path131"
       style="fill:#3c8eee;fill-opacity:1;stroke:#3c8eee;stroke-width:0.264583;stroke-opacity:1"
       d="m 159.82366,248.22999 c 3.40096,0.01 6.86787,-0.26921 10.19657,0.5986 0.73759,1.76013 -1.58101,2.99261 -2.30687,4.39326 -1.07292,1.23147 -2.20283,2.44171 -2.986,3.88794 1.52012,-1.41485 3.26757,-2.5759 4.60221,-4.19017 0.88668,-1.26489 3.52884,-2.83028 2.30017,-4.52796 -1.45912,-0.78832 -3.22877,-0.0993 -4.82173,-0.39062 -2.12873,-0.0799 -4.25501,-0.22874 -6.37347,-0.45283 -0.20362,0.22727 -0.40729,0.45448 -0.61088,0.68178 z" />
    <path
       id="path135"
       style="fill:#3c8eee;fill-opacity:1;stroke:#3c8eee;stroke-width:0.264583;stroke-opacity:1"
       d="m 125.24728,259.93172 c 16.02716,-18.43535 28.20292,-39.84046 44.31539,-58.21702 4.57678,-7.80441 -4.51512,4.69348 -5.81,6.59512 -11.00138,14.37402 -21.29155,29.28242 -32.05304,43.8195 -1.50666,2.81788 -6.66059,4.59037 -6.45235,7.8024 z" />
    <path
       id="path137"
       style="fill:#3c8eee;fill-opacity:1;stroke:#3c8eee;stroke-width:0.264583;stroke-opacity:1"
       d="m 165.83391,199.81168 c 2.36925,-2.10173 4.95285,-4.0462 7.92314,-5.21038 0.11541,1.75573 0.79495,3.42392 0.61552,5.27478 -0.46978,1.23815 1.20143,2.94421 1.51204,1.03472 0.0183,-1.66756 -0.41148,-3.33215 -0.49143,-5.0123 0.44489,-2.26356 -2.79092,-2.88728 -3.79968,-1.12918 -2.16815,1.67375 -4.56122,3.02005 -6.93794,4.36902 0.39276,0.22449 0.7857,0.44866 1.17835,0.67334 z" />
    <path
       id="path141"
       style="fill:#3c8eee;fill-opacity:1;stroke:#3c8eee;stroke-width:0.264583;stroke-opacity:1"
       d="m 204.33875,178.77169 c 8.83724,-0.32899 17.72226,-1.42569 26.53149,-0.0733 1.45436,-0.11455 6.11139,1.29898 5.39631,-0.7202 -2.78745,-0.61282 -5.69164,-0.3293 -8.53483,-0.67468 -7.48483,-0.32757 -14.99321,0.145 -22.45159,0.57336 l -0.54775,0.31705 z" />
    <path
       id="path143"
       style="fill:#3c8eee;fill-opacity:1;stroke:#3c8eee;stroke-width:0.264583;stroke-opacity:1"
       d="m 234.89659,172.95725 c 2.03768,1.38805 4.045,2.94777 5.38404,5.05463 0.423,1.50084 -1.25864,2.35459 -2.21207,3.16527 -1.52905,1.12469 -3.15643,2.11312 -4.84544,2.97809 2.07937,-0.97258 4.27111,-1.71519 6.25854,-2.87464 1.55219,-0.72033 3.44452,-2.65333 1.64558,-4.19416 -1.74951,-1.51363 -3.44737,-3.09353 -5.11997,-4.6954 -0.41097,0.10262 -0.73329,0.391 -1.11068,0.56621 z" />
    <path
       id="path145"
       style="fill:#3c8eee;fill-opacity:1;stroke:#3c8eee;stroke-width:0.264583;stroke-opacity:1"
       d="m 204.24298,187.13556 c 9.44498,10.1949 17.15066,21.8329 25.86684,32.62042 4.47956,4.62614 6.94453,14.70738 12.03992,16.4364 -3.02838,-5.77066 -7.95823,-11.38518 -11.73048,-17.09709 -7.53025,-10.1341 -15.65334,-19.79777 -23.1256,-29.98066 -0.98839,-0.77642 -1.47925,-3.16859 -3.05068,-1.97907 z" />
    <path
       id="path147"
       style="fill:#3c8eee;fill-opacity:1;stroke:#3c8eee;stroke-width:0.264583;stroke-opacity:1"
       d="m 242.35414,230.206 c 1.34775,2.56093 2.24317,5.34771 2.84704,8.16978 0.10762,1.92086 -2.64226,0.19689 -3.94818,0.48484 -2.61446,-0.31382 -5.24455,-0.81233 -7.87599,-0.50995 2.47827,1.24923 5.33489,1.11926 7.99143,1.75912 1.58843,0.24905 3.23139,0.71348 4.83184,0.47647 1.62273,-0.90497 0.10146,-2.79221 -0.25999,-4.02277 -0.70295,-1.92898 -1.32372,-3.88807 -2.08608,-5.7952 0.24961,-1.0256 -0.9493,-0.81575 -1.50007,-0.56229 z" />
    <path
       id="path149"
       style="fill:#3c8eee;fill-opacity:1;stroke:#3c8eee;stroke-width:0.264583;stroke-opacity:1"
       d="m 200.9494,243.9173 c 11.05884,-11.10006 23.20376,-21.12613 33.19775,-33.26773 5.12914,-5.87684 10.05096,-11.92957 15.01956,-17.94149 -5.09099,3.60507 -7.81951,10.51825 -12.65593,14.9623 -10.9741,12.98519 -22.9865,25.19623 -36.60915,35.41936 -0.34432,0.65442 0.79543,0.70561 1.04777,0.82756 z" />
    <path
       id="path151"
       style="fill:#3c8eee;fill-opacity:1;stroke:#3c8eee;stroke-width:0.264583;stroke-opacity:1"
       d="m 242.55556,191.99695 c 2.35503,0.0199 4.55893,-0.96493 6.85976,-1.33221 0.75999,-0.1774 3.45169,-0.85587 2.01111,0.35462 -0.2758,1.72334 -0.97832,3.28359 -1.57364,4.92032 -0.27732,1.22727 -1.1547,3.17322 -1.40162,3.86431 1.18972,-2.16828 2.73954,-4.1331 3.6505,-6.45475 0.60128,-1.19931 1.94792,-3.87841 -0.39148,-3.96761 -1.47339,0.41836 -2.90752,1.0918 -4.44026,1.37356 -1.25619,0.44197 -3.22787,0.25768 -4.10036,0.63336 -0.15636,0.24724 -0.51159,0.32722 -0.61401,0.6084 z" />
    <path
       id="path153"
       style="fill:#3c8eee;fill-opacity:1;stroke:#3c8eee;stroke-width:0.264583;stroke-opacity:1"
       d="m 203.63137,251.50452 c 10.02214,-0.90488 20.09945,-1.07448 30.14829,-1.37074 1.9616,0.89481 4.9353,-1.31119 1.39228,-1.04841 -10.83559,0.72987 -21.69314,1.0428 -32.55112,1.16729 l 0.48055,0.64409 z" />
    <path
       id="path155"
       style="fill:#3c8eee;fill-opacity:1;stroke:#3c8eee;stroke-width:0.264583;stroke-opacity:1"
       d="m 232.74785,245.9653 c 2.75311,0.81014 5.67839,1.27747 8.14417,2.83429 0.7233,1.56376 -1.36372,2.56221 -2.36475,3.35231 -1.50621,0.91792 -3.17023,1.95884 -4.53212,2.89968 2.11626,-0.71354 4.27331,-1.38187 6.13078,-2.66343 1.30636,-0.73242 3.59666,-2.22219 2.48838,-3.94628 -1.06846,-1.13385 -2.77447,-1.07566 -4.14193,-1.63903 -1.58448,-0.48525 -3.15431,-1.03391 -4.65183,-1.74776 -0.35757,0.30341 -0.71512,0.60682 -1.0727,0.91022 z" />
    <path
       id="path157"
       style="fill:#ee3caa;fill-opacity:1;stroke:#ee3caa;stroke-width:0.264583;stroke-opacity:1"
       d="m 271.77608,178.53444 c 6.27112,0.4249 12.55571,0.68602 18.84207,0.66534 1.71505,0.86802 3.74613,-1.2342 0.9346,-1.32769 -2.26178,0.11927 -4.50704,0.52082 -6.78773,0.40854 -3.78764,0.0112 -7.56903,-0.31997 -11.31968,-0.83073 -0.70414,0.0277 -1.30939,0.5077 -1.66926,1.08454 z" />
    <path
       id="path159"
       style="fill:#ee3caa;fill-opacity:1;stroke:#ee3caa;stroke-width:0.264583;stroke-opacity:1"
       d="m 290.42576,174.90289 c 2.58414,0.29574 5.30219,0.53884 7.56401,1.94572 0.71548,1.55963 -1.1718,2.67991 -1.99025,3.76098 -1.19833,1.21856 -2.17979,2.63159 -3.4387,3.78513 0.93923,-0.80101 2.00694,-1.56435 3.09282,-2.21324 1.64286,-1.16086 3.36579,-2.41331 4.25301,-4.2806 0.36656,-1.88221 -1.93047,-2.39005 -3.31613,-2.66023 -1.73406,-0.46013 -3.47647,-0.8932 -5.238,-1.23581 -0.30892,0.29934 -0.61783,0.59871 -0.92676,0.89805 z" />
    <path
       id="path161"
       style="fill:#ee3caa;fill-opacity:1;stroke:#ee3caa;stroke-width:0.264583;stroke-opacity:1"
       d="m 272.62656,246.92318 c 5.30266,-1.36378 10.84673,-1.7067 16.29781,-1.44409 1.23198,0.69616 4.69327,-0.41588 1.97836,-1.15194 -2.59536,-0.1366 -5.2051,0.22664 -7.81012,0.28599 -3.93456,0.22456 -7.87456,0.44167 -11.78455,0.95357 0.25701,0.61729 0.94835,0.83292 1.3185,1.35647 z" />
    <path
       id="path163"
       style="fill:#ee3caa;fill-opacity:1;stroke:#ee3caa;stroke-width:0.264583;stroke-opacity:1"
       d="m 286.98614,241.45197 c 3.16983,-0.0208 6.41906,0.42487 9.27673,1.86681 1.18328,1.60756 -1.03621,2.99871 -2.06806,3.9864 -1.9012,1.57484 -3.9506,2.98205 -5.87331,4.51165 2.93698,-2.03948 6.2657,-3.53204 8.99894,-5.87323 1.63521,-1.04296 1.31087,-3.62144 -0.76244,-3.80038 -2.79214,-0.68265 -5.60755,-1.26961 -8.40864,-1.91745 -0.38774,0.40874 -0.7755,0.81744 -1.16322,1.2262 z" />
    <path
       id="path165"
       style="fill:#ee3caa;fill-opacity:1;stroke:#ee3caa;stroke-width:0.264583;stroke-opacity:1"
       d="m 283.35031,209.97296 c 0.5444,2.00335 2.29879,4.61446 4.65156,3.11472 1.20859,-0.90983 3.95853,-1.86195 3.74955,-3.46082 -1.95107,-0.61403 -2.64128,1.84519 -3.91026,2.80976 -1.94556,2.30055 -3.95212,4.55778 -5.82668,6.91343 -0.51421,0.65525 -1.39654,2.67695 -1.07161,2.72861 1.5626,-1.64905 2.82843,-3.52939 4.24684,-5.29519 1.90969,-2.1754 3.91262,-4.28867 6.10311,-6.18056 0.61649,-1.10416 -1.3085,-0.56294 -1.43626,0.24858 -1.21111,0.90549 -3.9056,2.85222 -4.58231,0.44014 -0.28705,-1.05841 -0.74534,-1.70379 -1.92394,-1.31867 z" />
    <path
       id="path167"
       style="fill:#ee3caa;fill-opacity:1;stroke:#ee3caa;stroke-width:0.264583;stroke-opacity:1"
       d="m 285.72861,205.72908 c 0.75255,-1.24127 1.53555,-2.47085 2.46681,-3.58757 0.18213,-0.14497 -1.04442,0.16265 -0.28996,0.43585 0.73758,1.07028 0.87856,2.41502 1.506,3.5357 0.43379,0.63948 1.20303,0.15457 0.85476,-0.54073 -0.25047,-1.17249 -0.81254,-2.25051 -1.11614,-3.40959 -0.12653,-0.99321 -1.4873,-1.43592 -2.09311,-0.5977 -0.48709,0.72967 -0.82321,1.56087 -1.36536,2.26302 -0.2189,0.51848 -1.17674,1.12816 -1.0508,1.46266 0.36259,0.14611 0.72525,0.29239 1.0878,0.43836 z" />
    <path
       id="path169"
       style="fill:#1a406c;fill-opacity:1;stroke:#1a406c;stroke-width:0.264583;stroke-opacity:1"
       d="m 92.004506,144.19273 c -0.907079,0.72545 -2.118968,1.69121 -1.701209,3.01439 0.585628,2.14565 3.106397,3.34593 5.201348,2.92288 1.36234,-0.33585 1.763147,-1.96684 1.763221,-3.19455 0.06075,-1.65781 -1.731402,-3.32726 -3.376008,-2.64837 -1.117608,0.87488 1.11514,1.29496 1.400008,2.06117 0.622957,0.84181 0.322269,2.03663 -0.5013,2.62292 -0.02322,0.44694 -1.830716,-0.11116 -2.274393,-0.66239 -0.93517,-0.65595 -1.222185,-2.20997 -0.03715,-2.77035 0.686137,-0.30358 0.722676,-0.86285 -0.055,-1.05936 -0.149308,-0.0799 -0.297467,-0.16719 -0.419514,-0.28634 z" />
    <path
       id="path171"
       style="fill:#1a406c;fill-opacity:1;stroke:#1a406c;stroke-width:0.264583;stroke-opacity:1"
       d="m 97.261034,149.89897 c 1.609017,0.91491 3.163156,1.93396 4.631826,3.05711 0.52021,0.33208 1.68264,0.63588 1.36594,-0.19292 -0.23671,-0.70925 -1.15431,-0.77554 -1.66499,-1.22847 -1.1513,-0.70374 -2.270835,-1.46226 -3.464352,-2.0947 -0.371896,-0.0726 -0.568254,0.33318 -0.868424,0.45898 z" />
    <path
       id="path173"
       style="fill:#1a406c;fill-opacity:1;stroke:#1a406c;stroke-width:0.264583;stroke-opacity:1"
       d="m 100.85577,149.29411 c 0.95232,0.99072 1.60726,2.22657 2.09327,3.50207 -0.51473,0.73937 -1.55954,0.54814 -2.2696,0.98559 -0.4306,0.21177 -1.488938,1.11802 -0.41553,0.79508 0.95904,0.24951 1.93609,0.20419 2.87511,-0.12473 1.06861,-0.16037 1.83446,-1.41172 1.04894,-2.31712 -0.72647,-1.0516 -1.43669,-2.134 -1.87702,-3.34195 -0.48506,0.16699 -0.97013,0.33424 -1.45517,0.50106 z" />
    <path
       id="path175"
       style="fill:#1a406c;fill-opacity:1;stroke:#1a406c;stroke-width:0.264583;stroke-opacity:1"
       d="m 96.913339,189.26054 c -0.819189,0.65698 -1.61766,1.74841 -1.184075,2.84148 0.469346,1.12969 1.809752,1.4867 2.928277,1.44446 1.252814,0.023 2.679019,-0.76354 2.867369,-2.09174 0.079,-1.19885 -1.13788,-2.05058 -2.253364,-1.96803 -0.59337,-0.11204 -1.652487,0.43001 -0.493644,0.56841 0.675116,0.23815 1.632888,0.77171 1.426208,1.62713 -0.263601,0.71692 -1.270453,0.8856 -1.71873,1.12249 -0.917993,-0.0538 -2.101468,-0.70901 -1.725294,-1.7976 0.07627,-0.60133 1.788133,-1.02127 0.623771,-1.4443 -0.156732,-0.10091 -0.31315,-0.20251 -0.470518,-0.3023 z" />
    <path
       id="path179"
       style="fill:#1a406c;fill-opacity:1;stroke:#1a406c;stroke-width:0.264583;stroke-opacity:1"
       d="m 100.59593,195.26558 c 1.11127,1.1425 1.82468,2.58626 2.62546,3.94271 0.50144,0.53656 1.56473,0.54 1.41561,-0.43254 -0.3138,-0.62305 -0.78835,-1.16794 -1.14378,-1.77475 -0.43114,-0.69805 -0.9341,-1.35356 -1.29917,-2.08936 -0.43246,-0.33839 -1.08883,0.31927 -1.59812,0.35394 z" />
    <path
       id="path181"
       style="fill:#1a406c;fill-opacity:1;stroke:#1a406c;stroke-width:0.264583;stroke-opacity:1"
       d="m 105.44439,196.81393 c 0.0103,1.2008 0.10781,2.40486 -0.009,3.60345 -0.58768,0.58701 -1.70973,0.30943 -2.29168,0.28461 -0.92001,-0.0837 -1.9356,-0.17425 -2.79148,0.23234 -0.20575,0.74641 1.12625,1.10771 1.79082,1.05054 1.35449,0.0943 2.79999,0.29644 4.08577,-0.24011 1.07556,-0.68752 0.619,-2.03948 0.51417,-3.06544 -0.10694,-0.79437 0.4378,-2.22875 -0.94585,-1.82633 l -0.19231,-0.005 -0.16048,-0.0342 z" />
    <path
       id="path183"
       style="fill:#1a406c;fill-opacity:1;stroke:#1a406c;stroke-width:0.264583;stroke-opacity:1"
       d="m 106.15963,246.52079 c -1.02261,0.44565 -1.71659,1.6269 -1.31963,2.72463 0.28663,1.25421 1.53142,2.26663 2.84584,2.04578 1.75742,-0.1113 3.09561,-1.73414 3.21013,-3.43508 0.23902,-1.09547 -0.33687,-2.395 -1.517,-2.60689 -0.59851,-0.24084 -1.89367,0.32297 -2.01042,0.46662 0.82376,0.26466 2.26824,0.672 2.40372,1.80459 0.24877,1.25255 -0.72138,2.5289 -1.93752,2.79179 -0.72219,0.56265 -1.83007,-0.47546 -1.914,-1.28255 -0.29729,-0.88956 0.50117,-1.47324 1.04534,-1.86909 -0.18593,-0.29935 -0.56262,-0.39689 -0.80646,-0.6398 z" />
    <path
       id="path185"
       style="fill:#1a406c;fill-opacity:1;stroke:#1a406c;stroke-width:0.264583;stroke-opacity:1"
       d="m 107.61291,253.32672 c -0.0857,1.17836 -0.25919,2.35345 -0.19619,3.53793 -0.0252,0.72485 0.0523,1.53526 0.62412,2.05089 0.4888,0.50596 0.86838,-0.55427 0.93551,-0.9614 0.0614,-0.77272 -0.1028,-1.54226 -0.10354,-2.31583 -0.0424,-0.74979 -0.0654,-1.50281 -0.007,-2.25242 -0.41759,-0.0198 -0.8353,-0.0387 -1.25281,-0.0592 z" />
    <path
       id="path187"
       style="fill:#1a406c;fill-opacity:1;stroke:#1a406c;stroke-width:0.264583;stroke-opacity:1"
       d="m 104.87687,257.35115 c 1.05474,1.10792 1.86873,2.41531 2.62778,3.73127 0.607,0.62147 1.85905,0.67781 2.32893,-0.13834 0.47991,-0.71742 1.20806,-1.44704 0.89098,-2.3847 -0.0424,-0.26852 -0.89054,0.26381 -1.24086,0.36829 -0.36694,0.29121 -1.14408,1.0751 -1.07705,1.20835 0.4673,0.0336 0.73086,0.27196 0.16414,-0.0119 -1.08262,-0.76066 -1.78949,-1.90382 -2.55669,-2.94968 -0.37993,-0.41474 -0.75361,0.0815 -1.13723,0.17674 z" />
    <path
       id="path189"
       style="fill:#1a406c;fill-opacity:1;stroke:#1a406c;stroke-width:0.264583;stroke-opacity:1"
       d="m 181.68315,232.35357 c -1.00644,0.68616 -1.92818,1.86888 -1.65495,3.15644 0.36161,1.18462 1.78171,1.47853 2.84647,1.17967 1.40993,-0.2034 2.75789,-1.41428 2.81234,-2.88877 -0.0106,-0.86464 -0.65415,-1.92299 -1.63734,-1.7557 -0.47205,-0.0216 -0.98812,0.35059 -0.37237,0.64648 0.67529,0.55968 1.06636,1.66016 0.3409,2.34552 -0.68106,0.4177 -1.38445,1.18587 -2.25176,0.81456 -1.10852,-0.32335 -0.74714,-1.74281 -0.0828,-2.33225 0.31835,-0.33396 1.10945,-0.72675 0.29276,-0.97617 -0.10496,-0.0502 -0.21224,-0.10361 -0.29325,-0.18978 z" />
    <path
       id="path191"
       style="fill:#1a406c;fill-opacity:1;stroke:#1a406c;stroke-width:0.264583;stroke-opacity:1"
       d="m 181.80533,237.73792 c -0.018,1.20567 0.20304,2.40297 0.32684,3.59453 0.21004,0.27748 0.69389,0.5788 0.97423,0.56651 0.35992,-0.333 0.74935,-0.70409 0.48957,-1.2574 -0.2272,-0.97026 -0.23822,-1.97581 -0.41605,-2.9553 -0.4582,0.0172 -0.91639,0.0351 -1.37459,0.0517 z" />
    <path
       id="path193"
       style="fill:#1a406c;fill-opacity:1;stroke:#1a406c;stroke-width:0.264583;stroke-opacity:1"
       d="m 180.13415,240.89286 c 0.54162,0.60543 0.76097,1.47637 1.46671,1.93652 0.24974,0.10981 0.53403,0.0979 0.7998,0.14375 0.52419,0.0507 1.11107,0.0465 1.53777,-0.30864 0.59008,-0.40673 1.06977,-1.12986 0.89781,-1.87117 -0.002,-0.29491 -0.2964,-0.48424 -0.55984,-0.34462 -0.30814,0.13383 -0.60529,0.29635 -0.90604,0.44258 -0.3977,0.26687 -0.75235,0.6533 -1.24931,0.72275 0.20468,0.0747 0.59886,-0.008 0.69898,0.13218 -0.41031,0.15172 -0.80178,-0.15548 -1.05055,-0.45467 -0.23243,-0.25495 -0.44833,-0.58141 -0.80697,-0.65915 -0.29669,0.009 -0.54559,0.19564 -0.82836,0.26047 z" />
    <path
       id="path195"
       style="fill:#1a406c;fill-opacity:1;stroke:#1a406c;stroke-width:0.264583;stroke-opacity:1"
       d="m 176.66141,159.5079 c -0.88979,0.6062 -1.98068,1.39763 -1.84007,2.62099 0.0445,1.39213 1.30909,2.68335 2.74471,2.50599 1.31494,-0.0587 2.26232,-1.13162 2.92476,-2.16007 0.5779,-0.8476 -0.17571,-2.0917 -1.20212,-1.93163 -0.83252,-0.12809 -1.27772,0.50332 -0.47688,0.9933 0.63404,0.74302 -0.0677,1.89366 -0.89693,2.13412 -0.79219,0.39799 -1.74469,-0.16174 -1.91513,-1.00377 -0.34499,-1.06419 0.48423,-1.9177 1.36846,-2.32727 0.47738,-0.45501 -0.51286,-0.57421 -0.7068,-0.83166 z" />
    <path
       id="path197"
       style="fill:#1a406c;fill-opacity:1;stroke:#1a406c;stroke-width:0.264583;stroke-opacity:1"
       d="m 177.76501,166.94231 c 0.0785,0.87908 0.20828,1.76107 0.55596,2.57928 0.23405,0.5804 0.39833,1.3108 1.05589,1.54927 0.5225,0.37713 1.11953,0.0214 1.09299,-0.60509 -0.0129,-0.5146 -0.48726,-0.86275 -0.63352,-1.34251 -0.2653,-0.64292 -0.53504,-1.30645 -0.58395,-2.00586 -0.18717,-0.47529 -0.87045,-0.0782 -1.28249,-0.18156 -0.0683,0.002 -0.13662,0.004 -0.20488,0.006 z" />
    <path
       id="path199"
       style="fill:#1a406c;fill-opacity:1;stroke:#1a406c;stroke-width:0.264583;stroke-opacity:1"
       d="m 176.07596,170.20096 c 1.053,1.00027 2.09023,2.33476 3.65814,2.42882 1.01225,0.0478 1.96666,-0.67946 2.1736,-1.67205 0.35073,-0.66204 0.61691,-1.96682 -0.41161,-2.13164 -0.74853,-0.12025 -1.32687,0.44157 -1.51725,1.12433 -0.0207,0.46348 -1.19596,1.05273 -0.19451,0.91681 0.95055,0.0476 -0.32395,0.26722 -0.63737,0.0184 -0.93269,-0.0271 -1.40913,-1.43804 -2.33104,-1.02427 -0.24482,0.11604 -0.47234,0.27823 -0.73996,0.33956 z" />
    <path
       id="path201"
       style="fill:#1a406c;fill-opacity:1;stroke:#1a406c;stroke-width:0.264583;stroke-opacity:1"
       d="m 244.35978,163.68268 c -1.26326,0.78918 -2.28616,3.28876 -0.42468,3.97315 1.61982,0.50874 3.45272,-0.75098 3.74314,-2.38339 1.02868,-1.27549 -1.78178,-3.3727 -2.28664,-1.59128 1.86453,0.4784 0.35933,3.45368 -1.1354,2.64525 -0.45237,-1.00126 2.00187,-2.05982 0.10358,-2.64373 z" />
    <path
       id="path203"
       style="fill:#1a406c;fill-opacity:1;stroke:#1a406c;stroke-width:0.264583;stroke-opacity:1"
       d="m 245.94901,168.86332 c 0.25373,1.01779 0.54659,2.05114 1.07257,2.96252 0.45436,0.42317 1.23514,0.35725 1.68571,-0.0434 0.50715,-0.42724 -0.13987,-0.9968 -0.31894,-1.42697 -0.32273,-0.47861 -0.40451,-1.05938 -0.66178,-1.56267 -0.50152,-0.18389 -1.21298,0.0825 -1.77756,0.0705 z" />
    <path
       id="path205"
       style="fill:#1a406c;fill-opacity:1;stroke:#1a406c;stroke-width:0.264583;stroke-opacity:1"
       d="m 248.7258,169.50451 c 0.80702,1.20603 -0.58929,2.31059 -1.75561,2.19395 -0.65449,-0.0844 -2.47961,0.20398 -1.84512,1.02342 1.32633,0.82322 3.05787,0.73459 4.38439,-0.0326 1.04123,-0.63037 1.32904,-2.1753 0.85442,-3.22642 -0.46145,-0.4658 -1.10501,0.10978 -1.63808,0.0417 z" />
    <path
       id="path207"
       style="fill:#1a406c;fill-opacity:1;stroke:#1a406c;stroke-width:0.264583;stroke-opacity:1"
       d="m 250.82391,228.65283 c -1.18487,0.71186 -2.38278,2.04982 -1.95089,3.53412 0.51852,1.28099 2.34579,1.38605 3.40088,0.74302 0.9817,-0.69621 2.21307,-1.83975 1.87121,-3.16702 -0.17135,-1.04381 -1.83787,-0.77283 -2.15411,-0.40495 0.87556,0.78156 0.0649,2.4762 -1.08255,2.56294 -0.14001,0.20028 0.35964,0.24111 -0.19062,0.12262 -0.96946,-0.86955 0.35995,-2.01259 0.97594,-2.60797 -0.002,-0.43791 -0.64926,-0.46562 -0.86986,-0.78276 z" />
    <path
       id="path209"
       style="fill:#1a406c;fill-opacity:1;stroke:#1a406c;stroke-width:0.264583;stroke-opacity:1"
       d="m 251.57565,234.50196 c 0.15007,1.22791 0.51459,2.41514 0.88444,3.59128 0.45538,0.61341 1.47786,0.53276 1.94427,-0.027 0.27203,-0.59162 -0.31975,-1.16427 -0.44088,-1.73545 -0.29384,-0.61387 -0.35464,-1.54632 -0.71681,-1.98396 -0.55701,0.0517 -1.114,0.10352 -1.67102,0.15511 z" />
    <path
       id="path211"
       style="fill:#1a406c;fill-opacity:1;stroke:#1a406c;stroke-width:0.264583;stroke-opacity:1"
       d="m 250.3521,237.83513 c 0.52813,0.85972 1.29129,1.95055 2.45669,1.69667 0.83345,0.0235 1.75507,-0.0372 2.36042,-0.68729 0.61131,-0.51972 1.15382,-1.15747 1.42093,-1.92444 0.0355,-0.90834 -1.13619,-1.22317 -1.78376,-0.75471 -0.68643,0.43104 -0.98402,1.31041 -1.77145,1.61346 -0.4759,0.26198 1.01667,0.0262 0.43381,0.33231 -0.93293,0.21022 -1.50073,-1.27959 -2.4159,-0.52911 -0.23357,0.0843 -0.46728,0.16872 -0.70074,0.25311 z" />
    <path
       id="path213"
       style="fill:#000000;stroke:#000000;stroke-width:0.264583"
       d="m 40.210536,189.55381 c 0.421975,1.46532 0.53059,2.99286 0.720592,4.4991 0.246157,0.6124 1.12104,1.19186 1.503092,0.36149 0.352393,-0.65963 -0.108472,-1.3711 -0.216642,-2.03508 -0.254053,-0.97336 -0.506073,-1.9564 -0.562981,-2.96488 -0.481359,0.0464 -0.962699,0.093 -1.444061,0.13937 z" />
    <path
       id="path215"
       style="fill:#000000;stroke:#000000;stroke-width:0.264583"
       d="m 38.819661,196.52265 c 1.784867,-0.65196 3.684492,-1.09797 5.271624,-2.1882 0.634785,-0.27736 0.531935,-1.02622 -0.210521,-0.71736 -1.721599,0.37455 -3.346709,1.10243 -5.056957,1.53129 -0.424199,0.14048 -1.775526,0.21374 -0.822488,0.74319 0.297785,0.18022 0.547624,0.4162 0.818342,0.63108 z" />
    <path
       id="path217"
       style="fill:#000000;stroke:#000000;stroke-width:0.264583"
       d="m 39.545437,191.24986 c 1.112876,-0.66462 2.321159,-1.145 3.522829,-1.62142 0.113928,-0.34478 0.714122,-1.06974 -0.03444,-0.89268 -0.789516,-0.1261 -1.60353,-0.0986 -2.324859,0.27793 -0.762232,0.32031 -1.485794,0.74605 -2.293655,0.94748 -0.452522,0.63548 0.744513,0.81076 1.040766,1.22517 l 0.08935,0.0635 z" />
    <path
       id="path219"
       style="fill:#000000;stroke:#000000;stroke-width:0.264583"
       d="m 40.547848,236.01813 c 0.357102,1.03247 0.488499,2.12187 0.706297,3.18778 0.223488,0.52868 0.998896,1.27335 1.485828,0.59891 0.436879,-0.51789 0.210799,-1.20139 0.02941,-1.77016 -0.20195,-0.75184 -0.366928,-1.5129 -0.529349,-2.27406 -0.564053,0.0859 -1.128232,0.17098 -1.692186,0.25753 z" />
    <path
       id="path221"
       style="fill:#000000;stroke:#000000;stroke-width:0.264583"
       d="m 39.497244,242.72721 c 2.011963,-0.612 3.708038,-1.93194 5.68068,-2.63863 0.261548,-0.18901 0.439478,-0.58823 0.194013,-0.8636 -0.330233,-0.38267 -0.969198,-0.43564 -1.36652,-0.1275 -1.214655,0.56021 -2.324823,1.33675 -3.592034,1.78444 -0.714596,0.29011 -1.437866,0.56036 -2.137811,0.88524 0.407237,0.32 0.814396,0.6401 1.221672,0.96005 z" />
    <path
       id="path223"
       style="fill:#000000;stroke:#000000;stroke-width:0.264583"
       d="m 39.189011,237.13956 c 1.586166,-0.82381 3.292971,-1.38423 4.925624,-2.09372 0.467426,-0.47113 0.549676,-1.26719 -0.30436,-1.05754 -0.943463,-0.26264 -1.795886,0.25992 -2.638797,0.59617 -1.176506,0.48097 -2.364335,0.93811 -3.579888,1.31154 0.532471,0.41452 1.064964,0.82901 1.597421,1.24355 z" />
    <path
       id="path225"
       style="fill:#000000;stroke:#000000;stroke-width:0.264583"
       d="m 108.58911,267.84364 c -1.40933,0.1296 -3.21691,-0.50148 -4.3502,0.45742 -0.46436,1.35676 1.18241,1.89338 2.06972,2.45446 0.51817,0.36728 2.01782,1.38012 1.02665,0.31946 -1.02573,0.30009 -1.92538,1.01282 -2.96521,1.34902 -1.00919,0.18635 -2.22104,1.32552 -1.01763,2.15603 0.8192,0.42084 1.78696,0.48667 2.6911,0.63283 1.07642,0.0824 2.22426,0.15554 3.24152,-0.25235 0.69494,-0.92214 -1.41377,-0.88006 -2.01133,-1.04859 -0.62069,0.0824 -2.42283,-1.00904 -2.04639,0.19807 1.2113,-0.95429 2.6626,-1.51646 4.06043,-2.13294 1.0738,-0.87707 -0.30602,-1.92917 -1.23375,-1.99584 -0.53255,-0.15741 -1.79727,-1.63423 -1.78283,-0.66227 0.2795,0.25184 1.2348,-0.0248 0.38758,0.0281 1.00084,0.0242 1.23773,-1.01362 1.93034,-1.50342 z" />
    <path
       id="path227"
       style="fill:#000000;stroke:#000000;stroke-width:0.264583"
       d="m 114.87891,269.99017 c 0.0265,-1.01817 0.49516,-2.41461 -0.55994,-3.08243 -0.91703,-0.49104 -2.16974,0.0514 -2.33451,1.11308 -0.4934,1.77878 -0.47839,3.63969 -0.54629,5.47006 0.21315,0.42088 0.47308,1.5848 0.56429,1.54586 0.59591,-0.81001 1.14175,-1.69897 1.05692,-2.7471 0.0992,-1.30009 0.14471,-2.64845 0.7025,-3.85205 0.66055,-0.40381 -1.49334,-0.45498 -0.5665,-0.13369 0.19659,0.7154 0.0404,2.06843 1.24588,1.66192 l 0.21955,-0.004 0.2181,0.0289 z" />
    <path
       id="path229"
       style="fill:#000000;stroke:#000000;stroke-width:0.264583"
       d="m 111.88104,272.74529 c 0.67429,-0.0916 1.3565,-0.12829 2.03394,-0.11413 0.49913,-0.47292 -0.99336,-0.28204 -0.34537,-0.51171 0.43208,-0.12084 1.25064,-0.85102 0.53655,-1.13069 -0.58249,-0.15587 -1.19712,-0.11335 -1.79168,-0.2054 -0.76176,-0.0533 -1.52577,-0.0136 -2.28701,0.0285 0.61792,0.64441 1.2353,1.28936 1.85357,1.93342 z" />
    <path
       id="path231"
       style="fill:#000000;stroke:#000000;stroke-width:0.264583"
       d="m 109.97068,205.71125 c -1.35726,0.44963 -2.8557,-0.20931 -4.17728,0.41526 -0.84212,0.94847 0.31534,2.05558 1.08792,2.59165 0.38018,0.35148 1.26098,1.49262 1.48091,1.17778 -0.79715,-0.74756 -1.71959,0.532 -2.59843,0.56099 -1.27818,0.0499 -1.73736,2.0283 -0.32937,2.26299 1.57857,0.10012 3.18432,0.40521 4.76073,0.11956 1.35257,0.20148 1.39751,-1.94853 0.0552,-1.57776 -1.08823,0.15544 -2.47668,-0.5468 -3.35937,0.0888 -0.2724,1.03543 0.81528,0.60341 1.21,0.19678 0.9721,-0.37114 3.11992,-0.44083 2.71199,-1.95817 -0.52644,-0.93944 -1.67036,-1.26882 -2.26536,-2.16368 -0.4525,-0.54403 -0.92741,0.31905 -0.12664,0.1983 0.85389,-0.11073 2.27149,-0.0537 2.70937,-0.7999 -0.24928,-0.49721 -0.88176,-0.63914 -1.15963,-1.11262 z" />
    <path
       id="path233"
       style="fill:#000000;stroke:#000000;stroke-width:0.264583"
       d="m 116.20862,208.74088 c 0.23282,-0.94223 0.49282,-2.38678 -0.67711,-2.80966 -0.9924,-0.33389 -2.17192,0.21551 -2.4266,1.26805 -0.63231,1.72145 -0.39713,3.59516 -0.19242,5.3687 0.25736,1.0587 1.83422,0.80674 1.64419,-0.31561 -0.10686,-1.01437 -0.29551,-2.02518 -0.20659,-3.05293 -0.18326,-0.68153 0.65191,-1.65235 0.61476,-1.94463 -0.24679,0.25392 -1.0338,-0.26741 -0.40681,0.037 0.11717,0.78357 0.23667,1.74157 1.30637,1.41532 0.11532,0.003 0.231,0.0117 0.34421,0.0337 z" />
    <path
       id="path235"
       style="fill:#000000;stroke:#000000;stroke-width:0.264583"
       d="m 111.27148,210.87377 c 0.98042,0.11152 2.01785,0.31354 2.97485,-0.0183 0.44303,-0.3115 1.25992,-0.3674 1.44632,-0.85059 -0.09,-0.57861 -0.54292,-0.89294 -1.12336,-0.81217 -0.5326,0.0255 -1.12102,-0.29245 -1.61007,0.0184 -0.51876,0.59051 -1.12868,1.10595 -1.68774,1.66268 z" />
    <path
       id="path239"
       style="fill:#000000;stroke:#000000;stroke-width:0.264583"
       d="m 111.69448,152.77331 c -1.40481,0.15586 -2.82139,0.12722 -4.23136,0.0768 -1.11398,0.76299 0.0776,2.06604 1.09054,2.0248 0.44202,0.34985 2.26779,1.52366 1.42714,0.41642 -1.00441,0.3558 -1.88308,1.03892 -2.93928,1.30505 -1.23844,0.14252 -1.41185,1.87407 -0.0989,2.04608 1.69078,0.38496 3.39877,0.72494 5.1017,1.04346 1.12268,0.265 2.32483,-1.34982 0.73296,-1.56861 -1.1415,0.0569 -2.30852,-0.20542 -3.41716,-0.49527 -0.64041,-0.19362 -1.49618,-0.81421 -1.154,0.33995 1.01018,-0.0623 2.33319,-1.21122 3.53092,-1.51177 1.59856,-0.49261 0.19803,-2.20814 -0.91355,-2.21986 -0.67031,-0.56253 -2.36521,-1.5057 -1.75651,0.1837 1.14193,0.0711 2.38227,-0.38719 3.58362,-0.33327 0.39409,-0.0791 -0.78459,-0.96268 -0.9561,-1.30748 z" />
    <path
       id="path241"
       style="fill:#000000;stroke:#000000;stroke-width:0.264583"
       d="m 116.80277,152.1095 c -1.3783,0.52412 -2.07095,2.00948 -2.17387,3.40232 -0.20871,1.4064 -0.35046,2.84794 -0.23763,4.26386 0.398,1.18437 1.64773,0.29023 1.41575,-0.67959 -0.0138,-1.68991 -0.0353,-3.54501 0.93467,-5.01145 0.25015,-0.58503 1.76613,-0.63971 0.71079,-1.28037 -0.21704,-0.23115 -0.43349,-0.46286 -0.64971,-0.69477 z" />
    <path
       id="path243"
       style="fill:#000000;stroke:#000000;stroke-width:0.264583"
       d="m 112.95475,156.88938 c 1.34293,0.0199 2.77186,0.15266 4.02066,-0.42614 0.17288,-0.34559 -0.65996,-0.23244 -0.087,-0.23709 0.19968,0.0565 0.96187,-0.0815 0.34572,-0.0917 -0.52339,0.0434 -1.1247,0.0378 -1.55651,-0.29398 -0.001,-0.49753 -0.83043,-0.20684 -1.20802,-0.39605 -0.42429,0.10752 -0.59497,0.57586 -0.92531,0.82479 -0.19658,0.20664 -0.39327,0.41346 -0.58954,0.62019 z" />
    <path
       id="path245"
       style="fill:#000000;stroke:#000000;stroke-width:0.264583"
       d="m 185.64328,176.32465 c -1.32473,0.24656 -3.72617,-0.21584 -4.09893,1.4572 0.32482,1.12042 1.61953,1.51761 2.45809,2.18682 0.54695,0.53618 2.58273,1.42224 1.25645,0.50443 -1.04857,0.50782 -2.15772,0.84716 -3.26504,1.22145 -1.17067,0.12947 -1.92474,1.78666 -0.52305,2.21284 2.37205,0.26753 4.79872,0.32898 7.18736,0.12536 1.26416,-0.54862 -0.80747,-1.39387 -1.12778,-1.38868 -1.46964,0.1119 -2.94667,-0.0424 -4.39575,-0.29641 -0.53354,0.66899 0.21634,1.32096 0.7307,0.55623 1.22557,-0.86169 3.26159,-0.76544 4.01345,-2.12895 0.0367,-1.44773 -1.80986,-1.21089 -2.63079,-1.93817 -0.52592,-0.0912 -1.76567,-1.77791 -1.49116,-0.75082 0.83927,-0.50163 2.23712,-0.009 2.7771,-0.78176 -0.23515,-0.3701 -0.64722,-0.59839 -0.89065,-0.97954 z" />
    <path
       id="path247"
       style="fill:#000000;stroke:#000000;stroke-width:0.264583"
       d="m 194.37539,177.62723 c -0.21238,-1.10588 -1.25255,-2.38264 -2.47015,-1.66253 -0.92958,0.70307 -0.93954,2.01087 -1.16136,3.06151 -0.19881,1.54628 -0.33143,3.11098 -0.45633,4.65817 -0.002,1.10004 1.38245,1.21145 1.36946,0.0493 0.2995,-1.45926 0.18066,-2.96821 0.48714,-4.42973 -0.13322,-0.85846 0.74398,-1.89816 0.59971,-2.49051 -0.96306,-0.38167 0.14883,1.13889 0.7048,0.9361 0.31258,-0.005 0.61899,-0.075 0.92673,-0.12228 z" />
    <path
       id="path249"
       style="fill:#000000;stroke:#000000;stroke-width:0.264583"
       d="m 190.52982,181.13772 c 0.65899,-0.1621 1.34209,-0.19678 1.99969,-0.36559 0.23433,-0.0552 0.75408,-0.73823 0.23329,-0.57735 0.24151,-0.0337 0.55725,-0.43471 0.0931,-0.36767 -0.74835,-0.046 -1.40179,-0.59569 -2.16967,-0.47028 -0.48018,0.0392 -0.96117,0.0987 -1.44325,0.0674 -0.23562,0.26964 0.46546,0.59929 0.5852,0.90416 0.23307,0.27045 0.46774,0.53975 0.7016,0.80936 z" />
    <path
       id="path251"
       style="fill:#000000;stroke:#000000;stroke-width:0.264583"
       d="m 184.26409,246.25935 c -1.38065,0.40537 -3.62434,0.0512 -4.21271,1.6668 -0.47333,1.42324 0.84662,2.34291 2.11791,2.42505 0.98707,-0.0136 2.40789,1.31069 3.05924,0.73478 0.11977,-1.79057 -1.81757,-0.42444 -2.74564,-0.37081 -1.02587,0.40045 -2.91395,0.5319 -2.89003,1.9592 0.39073,1.43332 2.11771,1.71006 3.34201,2.07039 1.29162,0.26661 3.11779,0.7133 3.89072,-0.72761 -0.524,-1.30333 -2.81007,-0.41317 -3.94163,-1.19296 -0.25969,-0.1033 -1.04582,-0.58383 -0.74154,0.012 1.31754,-0.63031 2.73612,-0.9834 4.21083,-1.05902 1.74094,-0.0285 1.31302,-2.24855 -0.22331,-2.12159 -1.23943,-0.0629 -2.44327,-0.86805 -3.5462,-1.01876 0.16534,-0.36144 1.78149,-0.63815 2.56,-0.78401 1.08002,-0.076 -0.77551,-1.18356 -0.87965,-1.59349 z" />
    <path
       id="path253"
       style="fill:#000000;stroke:#000000;stroke-width:0.264583"
       d="m 192.63181,249.3397 c 0.004,-0.82128 0.24646,-2.23034 -0.944,-2.29156 -0.80158,-0.36917 -1.66476,0.022 -1.85469,0.90119 -0.69107,1.69668 -0.73227,3.58088 -0.66505,5.38575 -0.0245,0.9112 1.32753,1.85931 1.55121,0.53197 0.32612,-0.94725 -0.0249,-1.94474 0.13791,-2.91661 0.0897,-0.79471 0.17205,-1.65605 0.60237,-2.34124 0.67434,-0.44788 -0.78586,-0.29365 -0.7439,-0.41738 -0.0366,0.59237 0.27852,1.43921 1.11477,1.12977 0.26706,0.006 0.53526,0.012 0.80138,0.0181 z" />
    <path
       id="path255"
       style="fill:#000000;stroke:#000000;stroke-width:0.264583"
       d="m 189.23146,251.80115 c 0.88578,-0.16891 2.12118,0.11003 2.76899,-0.50165 -0.17447,-0.49734 0.39054,-0.78499 -0.30421,-0.80605 -0.84051,-0.57587 -1.79027,-0.84594 -2.80852,-0.72645 -0.43267,0.10635 -1.99471,-0.21729 -1.15684,0.42548 0.50017,0.53623 1.00034,1.07258 1.50058,1.60867 z" />
    <path
       id="path257"
       style="fill:#000000;stroke:#000000;stroke-width:0.264583"
       d="m 253.76691,176.01663 c -1.47741,0.20885 -2.95779,0.40079 -4.42709,0.66256 -0.89263,0.89598 0.18893,1.95749 1.04955,2.30212 0.72435,0.35724 2.03444,1.57362 2.3896,1.36892 -0.60855,-0.97319 -1.8238,0.56056 -2.73347,0.47316 -0.88109,0.41717 -2.87608,0.23629 -2.5292,1.69122 0.63902,1.37159 2.50815,0.65128 3.70673,0.90449 1.12871,-0.0219 2.81191,0.2405 3.4512,-0.9164 -0.46207,-1.13616 -2.09884,-0.3586 -3.06147,-0.66468 -0.79115,-0.21825 -2.17402,-0.26102 -1.67658,0.95207 1.16171,-0.28802 2.31176,-0.87781 3.49652,-1.2384 1.0112,-0.21013 2.44935,-1.38585 1.24482,-2.31971 -1.05249,-0.46491 -2.19825,-0.85627 -3.04487,-1.70034 -0.57891,-0.85854 -0.69365,1.27763 0.1212,0.44587 0.86446,-0.45565 2.76489,-0.0968 2.96703,-1.09588 -0.28258,-0.3272 -0.70266,-0.50713 -0.95397,-0.865 z" />
    <path
       id="path259"
       style="fill:#000000;stroke:#000000;stroke-width:0.264583"
       d="m 260.32547,178.2344 c 0.26729,-0.88632 0.83368,-2.21865 -0.21366,-2.8175 -0.94958,-0.39516 -2.06852,0.22325 -2.40388,1.16202 -0.86589,1.68082 -0.82805,3.61599 -0.9785,5.44925 -0.12957,1.04224 1.38695,1.49909 1.6599,0.38591 0.14043,-0.93774 -0.0361,-1.91949 0.11442,-2.86977 0.13278,-0.98674 0.36438,-2.11207 1.17503,-2.75723 -0.16631,-0.14746 -1.0593,0.27907 -0.89652,-0.24065 0.37224,0.53607 -0.0419,1.85275 1.08662,1.60339 0.15173,0.0306 0.30347,0.0616 0.45659,0.0846 z" />
    <path
       id="path261"
       style="fill:#000000;stroke:#000000;stroke-width:0.264583"
       d="m 256.53495,180.48923 c 0.85537,0.13393 1.72271,-0.1412 2.46082,-0.56146 0.14173,-0.16214 0.3843,-0.0401 0.51999,-0.14347 -0.1633,-0.18616 -0.16172,-0.46073 -0.31601,-0.6553 -0.19826,-0.29519 -0.61402,-0.49778 -0.95056,-0.31347 -0.2421,0.14564 -0.41112,0.38097 -0.61846,0.56861 -0.36499,0.36861 -0.72326,0.74413 -1.09578,1.10509 z" />
    <path
       id="path263"
       style="fill:#000000;stroke:#000000;stroke-width:0.264583"
       d="m 256.22288,244.0441 c -1.6652,0.48037 -3.41058,0.49625 -5.12215,0.67671 -1.21096,1.11582 0.69926,2.16548 1.74402,2.15003 0.56038,0.10782 1.70172,1.03213 1.88711,0.57386 -0.83939,-0.65848 -1.78344,0.89784 -2.77313,0.89907 -0.78125,0.46519 -2.64736,0.43672 -2.18848,1.76718 0.71837,1.25297 2.4902,0.65028 3.68302,0.90508 1.02895,-0.0108 2.80905,0.22981 3.15488,-1.03545 -0.68772,-0.87575 -2.06839,-0.28812 -3.04657,-0.56314 -0.66463,-0.43655 -2.28293,0.19989 -1.44867,0.73078 1.45935,-0.85028 3.11726,-1.29596 4.55571,-2.18627 1.02383,-1.15696 -0.69794,-2.02333 -1.71136,-1.95278 -0.69648,-0.34838 -2.4866,-1.34656 -2.13019,0.11705 1.53458,-0.33587 3.09365,-0.7401 4.68086,-0.6805 -0.42829,-0.46726 -0.85704,-0.9341 -1.28505,-1.40162 z" />
    <path
       id="path265"
       style="fill:#000000;stroke:#000000;stroke-width:0.264583"
       d="m 263.17684,245.4433 c -0.14374,-0.9331 -0.28548,-2.43428 -1.59776,-2.23582 -1.09429,-0.31058 -1.64124,0.73062 -1.81477,1.63687 -0.5485,1.68034 -0.87349,3.44269 -0.94782,5.20669 0.13927,1.05203 1.71288,1.10451 1.86176,0.006 0.2152,-1.1823 0.12377,-2.4069 0.39753,-3.5883 0.10599,-0.72122 0.43599,-1.47491 0.85998,-1.98392 -0.43719,-0.0669 -1.37279,-0.432 -0.8229,0.27723 0.16427,1.27548 1.24885,0.55339 2.06398,0.68107 z" />
    <path
       id="path267"
       style="fill:#000000;stroke:#000000;stroke-width:0.264583"
       d="m 259.85736,248.02573 c 0.5953,-0.22141 1.49557,0.12104 1.8686,-0.51712 0.32325,-0.31939 0.42843,-0.8997 -0.16779,-0.93402 -0.79251,-0.25374 -1.52516,-0.76442 -2.39235,-0.71295 -0.36841,0.0887 -1.05955,-0.12938 -1.20556,0.17147 0.61572,0.67791 1.26797,1.32588 1.8971,1.99262 z" />
    <path
       id="path818"
       style="fill:#3c8eee;fill-opacity:1;stroke:#3c8eee;stroke-width:0.264583;stroke-opacity:1"
       d="m 58.715782,177.84159 c 0.605121,0.997 1.297553,1.97462 1.593878,3.11929 0.87281,0.68994 1.772524,-0.30615 1.375795,-1.22402 -0.09885,-0.70688 0.236418,-2.10265 -0.145717,-2.41638 -0.583688,0.0925 0.541685,0.65629 0.614879,1.02024 0.634055,0.67147 1.80606,0.009 1.643249,-0.89002 0.151442,-0.95574 0.543321,-1.97189 0.08106,-2.91195 -0.770448,0.44241 -1.097799,1.20324 -1.096658,2.05029 -0.183242,0.5202 -0.618372,1.47692 0.311773,1.2351 -0.6979,-0.37351 -1.292124,-1.78318 -2.234606,-1.08059 -0.552799,0.78034 -0.09773,1.79192 -0.266211,2.66371 -0.24592,0.53365 -0.195739,1.27471 0.572529,0.90862 -0.03333,-0.0863 -1.141637,-1.08669 -1.305506,-1.71918 -0.116388,-0.61733 -0.425035,-1.12904 -1.144465,-0.75511 z" />
    <path
       id="path820"
       style="fill:#3c8eee;fill-opacity:1;stroke:#3c8eee;stroke-width:0.264583;stroke-opacity:1"
       d="m 62.929521,188.81848 c 0.304503,1.11647 0.397699,2.28485 0.324547,3.43799 0.612074,0.92154 1.684238,-0.0615 1.861721,-0.81979 0.164857,-0.40948 1.000029,-1.09688 0.796314,-1.23257 -0.639207,0.36255 0.597293,1.14514 0.477587,1.75172 0.0349,1.05366 1.170002,1.8678 2.056481,1.08475 0.662433,-0.66449 1.056689,-1.55045 1.553461,-2.33867 0.457232,-0.79248 -0.07831,-1.34738 -0.735545,-0.61602 -0.718897,0.60733 -0.930244,1.70037 -1.828961,2.12926 0.502927,0.0777 0.618372,0.36162 0.07857,0.0294 -0.656175,-0.65186 -0.571863,-1.68215 -0.981483,-2.44132 -0.819488,-0.83929 -1.643388,0.29371 -1.992077,1.00333 -0.255602,0.52962 -1.377105,1.04245 -0.217855,1.04132 -0.745845,-0.44541 -0.614299,-1.80387 -0.688491,-2.65428 0.07006,-0.60777 -0.332167,-0.41314 -0.704267,-0.37513 z" />
    <path
       id="path822"
       style="fill:#3c8eee;fill-opacity:1;stroke:#3c8eee;stroke-width:0.264583;stroke-opacity:1"
       d="m 61.156789,200.40173 c 0.212894,1.25659 -0.924631,2.62668 -0.437039,3.71652 0.910496,0.53389 1.563256,-0.48482 2.109489,-1.04568 0.612953,-0.29803 0.693334,-1.08216 -0.04732,-0.59285 -0.09028,0.90909 0.06904,1.85271 -0.229188,2.75391 -0.448227,0.94634 0.475563,1.7976 1.394393,1.3236 0.949836,-0.31803 1.823184,-0.88685 2.626309,-1.48195 0.159311,-0.31546 0.67504,-1.14549 -0.104575,-0.82409 -0.950208,-0.14854 -1.644325,0.58348 -2.417491,0.96758 -0.91709,0.0522 -0.280231,0.68581 -0.411674,0.49764 -0.377529,-0.75649 -0.05915,-1.76448 0.04338,-2.59101 0.63323,-0.93412 -0.800007,-1.89904 -1.358196,-0.90403 -0.157931,0.57711 -1.240034,0.93321 -1.16901,1.32454 0.513682,-0.16572 0.195172,-1.54846 0.504993,-2.17984 0.280268,-0.51303 0.305246,-1.19041 -0.504069,-0.96434 z" />
    <path
       id="path824"
       style="fill:#3c8eee;fill-opacity:1;stroke:#3c8eee;stroke-width:0.264583;stroke-opacity:1"
       d="m 53.705492,223.63198 c 1.046699,0.27602 1.798863,1.06896 2.55136,1.74008 1.140259,0.24866 1.112402,-1.0667 0.763728,-1.77313 -0.260932,-0.49753 0.01569,-1.6738 -0.685982,-1.08221 -0.07359,0.0981 1.096545,0.4757 1.442502,0.738 1.190702,0.68618 1.922891,-0.81586 1.471211,-1.79602 -0.131893,-0.69063 -0.0814,-2.26209 -1.075998,-2.02728 -0.682252,0.89893 0.393589,1.97974 -0.08172,2.93784 0.716569,0.49713 -1.004216,-0.18415 -1.260648,-0.48013 -0.93786,-0.5295 -1.523017,0.55815 -1.033594,1.32098 0.311995,0.45864 -0.111137,1.50932 0.733628,1.07448 0.61702,0.39836 -0.779273,-0.13196 -1.017774,-0.32272 -0.687212,-0.31135 -1.137391,-1.17306 -1.806717,-0.32989 z" />
    <path
       id="path826"
       style="fill:#3c8eee;fill-opacity:1;stroke:#3c8eee;stroke-width:0.264583;stroke-opacity:1"
       d="m 61.885846,227.80051 c 0.961338,0.6397 1.553968,1.80405 2.560718,2.30721 1.111785,0.36004 1.363548,-0.84743 1.263524,-1.67534 -0.05017,-0.49789 0.669907,-2.12228 -0.102307,-1.35036 0.828315,0.25119 0.857105,1.22405 1.43328,1.72936 0.748005,0.10215 1.638597,-0.48764 1.377696,-1.32197 0.168387,-0.91798 0.105036,-1.75286 -0.545933,-2.4079 -0.757075,0.46338 -0.772311,1.38684 -0.940186,2.18075 -0.276118,0.67608 1.598699,0.12166 0.883342,0.34887 -0.881803,-0.23066 -1.130061,-1.56318 -2.138217,-1.46787 -1.048965,0.14466 -0.839554,1.39705 -1.061989,2.15075 -0.17838,0.6196 -0.409527,1.29175 0.455715,1.00513 -0.985106,-0.34268 -1.436682,-1.39278 -2.329993,-1.86348 -0.302357,0.0801 -0.552842,0.28599 -0.85565,0.36485 z" />
    <path
       id="path828"
       style="fill:#3c8eee;fill-opacity:1;stroke:#3c8eee;stroke-width:0.264583;stroke-opacity:1"
       d="m 69.260683,248.09421 c 0.152521,1.13162 -0.906341,2.23596 -0.610464,3.23301 0.8851,0.61168 1.55351,-0.52652 2.19084,-0.96185 0.349885,-0.18088 1.444388,-1.04976 0.540407,-0.51854 -0.08694,0.87312 -0.392448,1.65203 -0.68745,2.46303 0.255585,1.11155 1.857939,0.65287 2.614545,0.28359 0.709907,-0.44972 1.972327,-0.20163 2.333059,-1.04999 -0.303344,-0.88303 -1.640406,-1.06924 -2.306819,-0.4323 -0.50587,0.40071 -1.963451,0.72103 -1.995812,0.83528 0.390122,0.23189 0.761333,0.39719 0.586139,-0.24466 0.03304,-0.92477 1.078846,-2.20976 0.111801,-2.89833 -0.986127,-0.19067 -1.481093,0.8978 -2.240219,1.2998 -0.345568,0.30839 -1.217354,0.54457 -0.387189,0.69158 0.07579,0.2122 -0.145068,-1.06288 0.05432,-1.391 -0.04427,-0.46151 0.775363,-1.43687 -0.203157,-1.30962 z" />
    <path
       id="path830"
       style="fill:#3c8eee;fill-opacity:1;stroke:#3c8eee;stroke-width:0.264583;stroke-opacity:1"
       d="m 130.45707,244.72785 c 1.10442,0.19495 2.05538,0.8428 2.97148,1.36224 1.08445,0.002 1.00839,-1.14713 0.27594,-1.62757 -0.26767,-0.22601 -0.78434,-1.537 -0.73815,-0.86409 -0.44967,0.22485 -0.52081,0.15864 0.0262,0.22696 0.84809,0.17834 2.27943,0.85129 2.71973,-0.27267 0.25309,-1.06248 -0.59745,-1.92208 -1.08849,-2.76902 -0.3612,-0.82539 -1.85074,-0.6062 -1.30402,0.40894 0.44912,0.6565 0.75752,1.41777 1.23964,2.04372 0.69413,0.24322 -0.75811,0.0658 -0.99166,-0.10966 -0.64568,-0.45696 -2.33507,-0.37894 -1.66763,0.73327 0.57417,0.48885 0.62845,1.55171 1.467,1.67168 0.42971,-0.0105 0.77374,-0.35816 0.14659,-0.36256 -0.98224,-0.0269 -1.82924,-0.9354 -2.76821,-0.7186 -0.11457,0.0715 -0.20815,0.17027 -0.28838,0.27736 z" />
    <path
       id="path832"
       style="fill:#3c8eee;fill-opacity:1;stroke:#3c8eee;stroke-width:0.264583;stroke-opacity:1"
       d="m 137.48065,256.63624 c 0.98908,0.74403 1.54369,2.0031 2.57353,2.63027 1.27672,0.0875 0.9992,-1.41274 0.91741,-2.22877 0.0419,-0.30706 0.0456,-1.21844 -0.35148,-0.73297 0.90393,0.30336 1.48884,1.03166 2.26592,1.53617 1.07319,0.55898 1.72618,-0.81427 1.28512,-1.68512 -0.31917,-0.9744 0.1853,-2.20423 -0.61485,-2.9936 -1.07995,-0.19294 -0.83241,1.48692 -0.74802,2.20653 -0.0404,0.7249 -0.16598,1.57553 0.67384,1.60753 -1.21423,-0.12562 -1.98119,-1.8757 -3.30682,-1.39359 -0.58036,0.73422 -0.0183,2.05146 -0.18012,2.7457 0.79926,0.22439 -0.94764,-0.62716 -1.12094,-1.02726 -0.45756,-0.40045 -0.63696,-1.26651 -1.39359,-0.66489 z" />
    <path
       id="path836"
       style="fill:#3c8eee;fill-opacity:1;stroke:#3c8eee;stroke-width:0.264583;stroke-opacity:1"
       d="m 134.39735,214.88131 c 0.26651,1.03185 -0.51121,2.12805 -0.22141,3.03514 0.81661,0.51928 1.46884,-0.47801 2.12494,-0.81633 0.37074,-0.16957 0.88824,-0.43328 0.22355,-0.19848 0.17302,0.79791 0.0292,1.58761 0.006,2.40587 0.32266,1.10478 1.85969,0.3734 2.5476,-0.002 0.55179,-0.38998 2.0037,-0.82979 1.14073,-1.67786 -0.74713,-0.37995 -1.55733,0.032 -2.10762,0.56546 -0.31316,0.278 -1.47099,0.60571 -0.42062,0.6192 0.23622,0.53275 -0.42238,-0.21931 -0.17785,-0.5472 -0.005,-0.74994 0.39724,-2.01309 -0.561,-2.30258 -0.96091,-0.001 -1.64202,0.80486 -2.46297,1.16843 0.44322,-0.0382 0.67872,0.53203 0.44878,-0.10099 -0.21716,-0.6827 0.46643,-1.74936 -0.1389,-2.15469 -0.13333,-0.016 -0.26762,0.002 -0.40079,0.006 z" />
    <path
       id="path838"
       style="fill:#3c8eee;fill-opacity:1;stroke:#3c8eee;stroke-width:0.264583;stroke-opacity:1"
       d="m 127.75322,198.35051 c 0.83378,0.60397 1.12608,1.67701 1.9085,2.3298 0.57332,0.26769 1.34855,-0.15629 1.394,-0.80338 0.0208,-0.38093 -0.18783,-0.74172 -0.13015,-1.1288 -0.0227,-0.20276 -0.0456,-0.78515 -0.23251,-0.66002 0.49672,0.30185 0.87195,0.8096 1.43422,1.01451 0.59532,0.2267 1.1897,-0.27909 1.2888,-0.85656 0.15469,-0.75894 0.0286,-1.53687 0.0525,-2.30294 0.006,-0.37014 -0.13558,-0.76875 -0.51605,-0.82376 -0.10106,-0.30388 -0.53576,-0.63612 -0.61768,-0.12975 0.047,0.28905 -0.57545,0.42381 -0.30033,0.0846 -0.46575,0.82345 -0.29726,1.80375 -0.28022,2.70507 0.15583,0.0146 0.83649,0.10349 0.75716,0.16222 -0.57362,-0.30283 -1.0463,-0.82481 -1.71916,-0.91974 -0.57382,-0.14016 -1.1865,0.26558 -1.25841,0.85642 -0.12486,0.61249 0.0646,1.25103 -0.11793,1.85683 -0.009,0.5656 0.76259,0.42805 1.09622,0.25802 0.26656,-0.25311 -0.44235,-0.36049 -0.55468,-0.60634 -0.42873,-0.36287 -0.74884,-0.83567 -1.13981,-1.22996 -0.34759,-0.20632 -0.76599,-0.0113 -1.06444,0.19382 z" />
    <path
       id="path840"
       style="fill:#3c8eee;fill-opacity:1;stroke:#3c8eee;stroke-width:0.264583;stroke-opacity:1"
       d="m 134.70768,171.66789 c -0.0289,0.97656 -1.81046,2.04479 -0.82891,2.8547 0.77799,0.26039 2.02572,-0.3737 2.44893,-0.49539 -1.02949,-0.48914 -0.96062,0.72905 -1.28479,1.3377 -0.7114,0.76305 -0.34752,1.96308 0.82517,1.79694 1.08015,0.0192 2.17627,0.0628 3.2429,0.0189 1.03691,-0.64083 -0.35673,-1.38655 -0.97993,-1.66053 -0.42431,-0.2399 -1.59122,-0.0515 -1.54656,0.032 0.54007,0.0656 0.4926,-0.0709 0.0668,0.12625 -0.58823,1.0282 -0.124,-0.81291 0.10904,-1.09863 0.66715,-0.91778 -0.26251,-2.06864 -1.2658,-1.49492 -0.38388,0.21278 -1.37669,0.44194 -1.42535,0.48906 0.55745,-0.31987 0.73911,0.88771 0.78699,0.007 0.1284,-0.70191 1.24152,-1.94746 -0.14826,-1.91315 z" />
    <path
       id="path842"
       style="fill:#3c8eee;fill-opacity:1;stroke:#3c8eee;stroke-width:0.264583;stroke-opacity:1"
       d="m 140.84139,160.06457 c 0.34926,1.18617 -0.45961,2.62606 0.11864,3.64849 0.82543,0.43891 1.57458,-0.30454 2.14329,-0.8178 0.37133,-0.22817 1.24462,-0.92089 0.42787,-0.39971 0.14987,0.77688 0.12069,1.55235 0.13765,2.31865 0.52023,0.8407 1.77103,0.66517 2.37858,0.0114 0.49352,-0.66554 2.13939,-0.79895 1.66548,-1.87755 -0.81635,-0.51087 -1.84438,-0.0251 -2.42382,0.62827 -0.45526,0.32374 -1.62389,0.59948 -0.48899,0.79887 -0.32542,-0.43407 -0.0751,-1.76141 -0.39713,-2.49954 -0.67236,-0.90336 -1.77241,0.0553 -2.31919,0.62358 -0.4831,0.24734 -1.08975,0.40267 -0.23143,0.5679 -0.66678,-0.76257 -0.1373,-1.8579 -0.26741,-2.76325 -0.0278,-0.44978 -0.47908,-0.12494 -0.74354,-0.23931 z" />
    <path
       id="path844"
       style="fill:#3c8eee;fill-opacity:1;stroke:#3c8eee;stroke-width:0.264583;stroke-opacity:1"
       d="m 208.46355,173.66525 c 0.593,0.75801 -0.0122,2.4852 1.2424,2.60612 0.9228,-0.15549 1.07158,-1.27796 1.77631,-1.73532 -0.42375,0.11037 0.37238,0.74512 0.36288,1.15418 0.2189,0.97155 1.35526,0.78937 1.74692,0.0497 0.55477,-0.5687 0.96324,-1.25612 1.3843,-1.9245 -0.18484,-0.36768 0.29509,-1.2724 -0.40377,-0.68801 -0.79235,0.30827 -1.21258,1.07875 -1.77233,1.64805 -0.3748,0.1219 -0.61028,0.67611 -0.14411,0.52638 -0.50039,-0.50141 -0.82089,-1.60097 -1.74538,-1.27804 -0.43191,0.36073 -1.20629,1.2516 -1.30253,1.4087 0.73113,0.31072 -0.2494,-0.3496 -0.12422,-0.7836 -0.17398,-0.70636 -0.0721,-1.36038 -1.02047,-0.98368 z" />
    <path
       id="path846"
       style="fill:#3c8eee;fill-opacity:1;stroke:#3c8eee;stroke-width:0.264583;stroke-opacity:1"
       d="m 214.55383,191.91276 c -0.38384,0.96626 -1.98234,1.29607 -1.87961,2.40181 0.58138,0.62275 1.54604,0.15663 2.28946,0.22978 0.34788,-0.0594 1.66903,0.0479 0.69508,-0.0707 -0.721,0.14828 -2.2029,0.96037 -1.46552,1.79468 0.76997,0.5312 1.72778,0.21682 2.5942,0.2785 0.84018,-0.0334 1.67726,-0.13761 2.51902,-0.12998 0.59194,-0.88003 -0.86789,-1.49128 -1.58362,-1.3337 -0.71697,0.0712 -1.43005,0.18786 -2.15153,0.19989 0.93924,-0.0942 -0.63639,-0.006 -0.10969,0.64143 0.53833,-0.24512 1.52711,-1.22268 1.22868,-2.01767 -0.5781,-0.69614 -1.59456,-0.16036 -2.36414,-0.23189 -0.45336,0.10223 -0.99275,-0.22115 -0.40789,0.12172 0.14836,0.90739 0.59539,-0.76608 0.89091,-0.97653 0.33345,-0.53232 0.5763,-0.76651 -0.25535,-0.90736 z" />
    <path
       id="path848"
       style="fill:#3c8eee;fill-opacity:1;stroke:#3c8eee;stroke-width:0.264583;stroke-opacity:1"
       d="m 203.73207,234.1803 c 1.01,0.46724 1.80632,1.2877 2.66949,1.90811 1.28401,0.29038 1.67903,-1.11557 1.22514,-2.07739 -0.29619,-0.76003 0.18133,-2.72242 -1.15456,-1.8739 0.52912,0.36886 1.14831,1.36901 1.9837,1.50253 1.20033,0.32791 1.35889,-1.16478 1.37937,-2.0026 0.30554,-0.70106 -0.0636,-2.44561 -1.05985,-1.66188 -0.52526,0.70831 -0.32003,1.67829 -0.48788,2.49794 0.13535,0.35108 0.9881,0.28649 0.26392,0.0232 -0.57588,-0.64828 -1.37427,-1.95338 -2.37583,-1.032 -0.49379,1.04645 0.24317,2.29053 -0.0593,3.41342 -0.28978,0.93857 2.10042,0.13848 0.82151,-0.10466 -0.91147,-0.19 -1.7426,-1.14442 -2.63536,-0.94132 -0.19148,0.1137 -0.35824,0.27129 -0.57031,0.3486 z" />
    <path
       id="path850"
       style="fill:#3c8eee;fill-opacity:1;stroke:#3c8eee;stroke-width:0.264583;stroke-opacity:1"
       d="m 211.76671,245.1467 c 0.68135,1.06855 0.97837,2.31453 1.39695,3.49625 0.79573,0.616 1.83505,0.017 2.01608,-0.88691 0.14672,-0.52162 0.83487,-1.56412 1.00504,-1.5428 -1.06628,-0.0457 0.33449,0.88866 0.031,1.49831 0.0809,1.17158 1.67739,0.727 2.21428,0.14141 0.48749,-0.74658 1.14821,-1.61773 0.84323,-2.57125 -0.60044,-0.28547 -1.59017,0.48683 -1.9598,1.09758 -0.45079,0.28602 -0.87011,1.15865 0.0314,0.92803 0.83187,0.39857 -0.38181,-0.15539 -0.24754,-0.67944 -0.0896,-0.76948 -0.76479,-1.54385 -1.59842,-1.28809 -0.80315,0.54322 -0.97579,1.69199 -1.72235,2.33826 -0.80318,0.27302 1.05915,0.47052 0.29582,0.11759 -0.74328,-0.80342 -0.86467,-2.06164 -1.53364,-2.82381 -0.27032,-0.0198 -0.50947,0.1414 -0.77204,0.17487 z" />
    <path
       id="path852"
       style="fill:#1a406c;fill-opacity:1;stroke:#1a406c;stroke-width:0.264583;stroke-opacity:1"
       d="m 103.47122,143.56852 c 0.36388,0.89045 0.57445,1.83261 0.77701,2.76999 0.45883,0.49559 1.36401,0.1148 1.2973,-0.5741 0.0234,-0.31571 0.21144,-1.01827 0.30282,-1.05635 -0.30361,0.0239 -0.84894,0.0213 -0.34007,0.34043 0.3272,0.61239 0.78518,1.64948 1.65995,1.12238 0.7703,-0.46519 0.72236,-1.45585 1.09118,-2.17779 0.41652,-0.71731 -0.63831,-1.36605 -1.08634,-0.66697 -0.28748,0.56146 -0.50989,1.18579 -0.73872,1.77753 0.34655,-0.0707 0.84599,0.30766 0.2503,0.0284 -0.39698,-0.42273 -0.64641,-1.14046 -1.36289,-1.05174 -0.68324,0.0863 -0.46875,0.91661 -0.77499,1.34677 -0.38217,0.57738 0.67396,0.24833 0.54843,0.47148 -0.34575,-0.64886 -0.57003,-1.43145 -0.56737,-2.18612 -0.11862,-0.4784 -0.74128,-0.091 -1.05661,-0.14396 z" />
    <path
       id="path854"
       style="fill:#1a406c;fill-opacity:1;stroke:#1a406c;stroke-width:0.264583;stroke-opacity:1"
       d="m 107.16133,192.92528 c 0.57473,0.80207 0.3859,2.04002 1.10982,2.68812 0.85722,0.3684 1.24201,-0.5567 1.46907,-1.18809 0.22838,-0.22804 0.37502,-0.78374 -0.0115,-0.42179 0.68416,0.22465 0.44394,1.59806 1.32995,1.33451 0.70662,-0.0934 1.45305,-0.3839 1.52046,-1.20954 0.28375,-0.58549 0.86101,-2.427 -0.3067,-2.17837 -0.85007,0.44024 -1.18699,1.36902 -1.62365,2.15618 -0.13797,0.25731 1.40214,-0.12155 0.81649,0.3483 -0.74622,-0.1426 -0.69,-1.4369 -1.59482,-1.27645 -0.76434,0.14271 -1.14271,1.05166 -1.34968,1.66171 0.84554,0.30553 -0.34803,-0.83301 -0.17489,-1.28939 -0.0272,-0.93387 -0.46002,-0.75231 -1.18459,-0.62519 z" />
    <path
       id="path856"
       style="fill:#1a406c;fill-opacity:1;stroke:#1a406c;stroke-width:0.264583;stroke-opacity:1"
       d="m 111.92944,255.40276 c 0.50563,0.8184 -0.0874,2.28672 0.63584,2.78141 0.84249,0.33427 1.54825,-0.0985 1.83135,-0.8987 0.30909,-0.25775 0.54527,-0.4399 0.0176,-0.20484 -0.0845,0.42728 0.64098,0.71963 0.61016,1.27413 0.20816,0.98811 1.21409,0.40996 1.87358,0.40305 0.6017,-0.22792 0.88734,-0.9918 0.98638,-1.58566 0.0579,-0.50555 -0.26631,-1.30794 -0.78776,-0.63449 -0.53164,0.17177 -1.23809,0.67215 -1.28762,1.20196 0.23621,0.0639 1.39081,0.007 0.64126,0.14594 -0.72235,-0.27467 -0.78766,-1.30575 -1.58814,-1.4817 -0.72032,-0.38377 -1.3176,-0.003 -1.67539,0.64722 -0.5575,0.3006 -0.28112,0.77321 0.24546,0.54976 -0.2624,-0.5719 -0.39349,-1.26491 -0.30476,-1.90561 0.0374,-0.66019 -0.86798,-0.1481 -1.19794,-0.29247 z" />
    <path
       id="path858"
       style="fill:#1a406c;fill-opacity:1;stroke:#1a406c;stroke-width:0.264583;stroke-opacity:1"
       d="m 186.95768,237.09384 c 0.56767,0.73753 0.22057,2.10822 1.07261,2.54396 0.78107,0.2309 1.30583,-0.39122 1.71737,-0.93262 0.27422,-0.2638 0.80847,-0.40418 0.27279,-0.0562 0.36891,0.50364 0.56862,1.30272 1.2643,1.44675 0.71497,0.23575 1.6583,0.12225 1.84721,-0.75019 0.2084,-0.69709 -0.15163,-1.46477 0.24994,-2.13711 -0.23756,0.82997 -1.67479,1.15729 -1.88617,1.53398 0.30163,-0.0491 1.16375,0.31594 0.41264,0.19114 -0.58959,-0.46562 -0.89097,-1.44452 -1.83336,-1.28307 -0.75161,0.0142 -1.52069,0.74453 -1.67575,1.32335 0.80958,0.31258 -0.3208,-0.61807 -0.23931,-1.06277 -0.0953,-0.57127 -0.282,-1.23046 -0.97523,-0.84405 l -0.11308,0.0185 -0.11397,0.008 z" />
    <path
       id="path860"
       style="fill:#1a406c;fill-opacity:1;stroke:#1a406c;stroke-width:0.264583;stroke-opacity:1"
       d="m 184.01851,165.68137 c 0.34552,1.14721 0.67887,2.3056 0.82442,3.4981 0.46276,0.74373 1.65985,0.39378 2.11179,-0.18924 0.47935,-0.53498 0.85454,-1.70085 1.27962,-1.91314 -0.42073,0.0616 -1.23674,-0.0312 -0.51721,0.4695 0.30496,0.8396 0.80533,1.72387 1.8511,1.47852 0.97754,0.1621 1.2573,-0.83263 1.55158,-1.53169 0.30213,-0.41176 -0.004,-1.46989 -0.0642,-1.53125 -0.81777,0.38248 -1.56607,0.97275 -2.13351,1.6884 0.25646,0.0597 1.49868,0.23964 0.60734,0.1303 -0.64128,-0.45873 -0.57074,-1.60036 -1.52809,-1.67718 -1.03512,-0.47868 -1.43843,0.65673 -1.83007,1.35639 -0.17305,0.43879 -1.21781,1.03737 -0.20874,0.87159 0.58303,-0.0508 0.37975,0.45525 0.10499,-0.0285 -0.52154,-0.76934 -0.35228,-1.77292 -0.62264,-2.57394 -0.41264,-0.29703 -0.96743,-0.0687 -1.4264,-0.0479 z" />
    <path
       id="path862"
       style="fill:#1a406c;fill-opacity:1;stroke:#1a406c;stroke-width:0.264583;stroke-opacity:1"
       d="m 252.05799,166.25205 c 0.40447,0.86641 0.5107,1.83695 0.50478,2.78331 0.40464,0.48708 1.42323,0.86491 1.90023,0.37456 0.12509,-0.41814 0.79724,-1.1309 0.51319,-1.40192 -0.37796,0.10722 -1.04026,0.19782 -0.46364,0.54348 0.099,0.88768 0.86512,1.05124 1.621,1.09266 0.8736,0.30255 1.52418,-0.49443 1.83935,-1.20303 0.51967,-0.63196 0.074,-1.6643 -0.76122,-1.06538 -0.37656,0.2768 -1.43095,0.63514 -1.3957,0.7405 0.31838,0.003 1.13844,0.37941 0.37736,0.15067 -0.49291,-0.49293 -0.83863,-1.39891 -1.71625,-0.9853 -0.74192,-0.0582 -1.16139,0.87155 -1.3478,1.23572 0.37328,0.12958 1.42642,0.57361 0.74857,-0.1772 -0.50208,-0.58885 -0.28326,-1.75699 -0.60742,-2.13774 -0.40408,0.0164 -0.80886,0.0336 -1.21245,0.0497 z" />
    <path
       id="path866"
       style="fill:#1a406c;fill-opacity:1;stroke:#1a406c;stroke-width:0.264583;stroke-opacity:1"
       d="m 256.65681,231.62607 c 0.50878,1.24227 0.68152,2.58801 0.83168,3.9056 0.39376,0.73407 1.58098,0.41674 1.83657,-0.28879 0.0349,-0.32653 0.70825,-1.03362 0.62967,-0.88642 -0.90388,-0.0731 0.13168,0.8089 0.16715,1.25948 0.52061,0.73426 1.93593,0.67883 2.38068,-0.13209 0.30722,-0.80726 0.94306,-1.52996 0.97974,-2.41697 -0.12804,-0.50079 0.0129,-1.08073 -0.62798,-0.56523 -0.93598,0.20946 -1.39031,1.04442 -1.84959,1.7792 -0.84308,0.69176 0.80352,0.35486 0.66823,0.62782 -0.92212,-0.16824 -1.19578,-1.4568 -2.22743,-1.38666 -0.72519,0.13244 -0.86321,1.13134 -1.37302,1.46643 0.38278,1.5e-4 0.79634,0.26257 0.32495,-0.0916 -0.39388,-0.73474 -0.76933,-1.51818 -0.89639,-2.34441 -0.005,-0.48756 -0.14581,-1.33192 -0.84426,-0.92631 z" />
  </g>
</svg>
