<?xml version="1.0" encoding="UTF-8" standalone="no"?>
<svg
   xmlns:dc="http://purl.org/dc/elements/1.1/"
   xmlns:cc="http://creativecommons.org/ns#"
   xmlns:rdf="http://www.w3.org/1999/02/22-rdf-syntax-ns#"
   xmlns:svg="http://www.w3.org/2000/svg"
   xmlns="http://www.w3.org/2000/svg"
   xmlns:sodipodi="http://sodipodi.sourceforge.net/DTD/sodipodi-0.dtd"
   xmlns:inkscape="http://www.inkscape.org/namespaces/inkscape"
   id="svg8"
   version="1.1"
   viewBox="0 0 158.75 79.375"
   height="300"
   width="600"
   sodipodi:docname="ol-forest-ponderosa-pine.svg"
   inkscape:version="1.0.1 (3bc2e813f5, 2020-09-07)">
  <sodipodi:namedview
     pagecolor="#ffffff"
     bordercolor="#666666"
     borderopacity="1"
     objecttolerance="10"
     gridtolerance="10"
     guidetolerance="10"
     inkscape:pageopacity="0"
     inkscape:pageshadow="2"
     inkscape:window-width="1920"
     inkscape:window-height="1061"
     id="namedview58"
     showgrid="false"
     inkscape:zoom="2.8"
     inkscape:cx="300"
     inkscape:cy="150"
     inkscape:window-x="0"
     inkscape:window-y="19"
     inkscape:window-maximized="0"
     inkscape:current-layer="svg8" />
  <defs
     id="defs2" />
  <metadata
     id="metadata5">
    <rdf:RDF>
      <cc:Work
         rdf:about="">
        <dc:format>image/svg+xml</dc:format>
        <dc:type
           rdf:resource="http://purl.org/dc/dcmitype/StillImage" />
        <dc:title></dc:title>
      </cc:Work>
    </rdf:RDF>
  </metadata>
  <path
     d="m 80.537289,46.26935 c 0.319719,-0.39431 0.938228,-0.14519 0.953172,0.3464 -0.05651,0.43048 0.781737,0.21325 0.461853,0.7254 -0.190599,0.27661 -0.700103,-0.009 -0.677464,0.4941 -0.144147,0.46155 0.42337,0.71744 0.362228,1.14664 -0.278421,0.29282 0.251358,-0.25728 0.376972,0.0552 0.32208,0.1971 -0.04861,1.01252 0.279784,0.97813 0.296104,-0.45306 0.761025,0.19792 0.84199,0.5087 0.113598,-0.0657 0.226091,-0.65631 0.613631,-0.43313 0.250747,0.27881 0.262687,0.80818 -0.01,1.08742 -0.612616,0.25862 -0.04516,0.81714 -0.01769,1.2893 0.228646,0.41977 -0.261204,1.22423 -0.689308,0.75537 -0.272691,-0.012 -0.710852,0.53615 -0.750744,-0.1113 -0.106211,-0.26832 0.145937,-0.85282 -0.27835,-0.47847 -0.336149,0.0955 -1.125746,0.3577 -1.057704,-0.23419 0.284781,-0.40678 -0.419226,0.13801 -0.423315,-0.30786 -0.169728,-0.37891 0.188057,-0.90542 -0.263129,-1.15828 -0.365691,-0.27579 -0.196583,-0.75813 -0.03738,-1.09958 0.190286,-0.25124 0.414369,-0.57629 -0.07346,-0.62882 -0.358009,-0.16073 -0.923918,-0.11691 -1.103221,-0.47508 0.315412,-0.52682 0.909409,-0.83943 1.182062,-1.39683 0.0703,-0.43136 -0.312253,-0.81125 0.310041,-1.06313 z"
     style="fill:#405e0a;fill-opacity:1;stroke:#405e0a;stroke-width:0.264583px;stroke-linecap:butt;stroke-linejoin:miter;stroke-opacity:1"
     id="path580" />
  <path
     d="m 78.708605,8.95832 c -0.859431,4.30647 0.06037,8.75129 -0.205654,13.12229 -0.139958,4.75971 0.858965,9.52405 -0.220229,14.24272 -1.045374,6.55558 0.936007,13.13596 -0.165873,19.69636 -0.919491,5.36254 -0.163324,10.78601 -0.69685,16.17408 0.287315,2.05151 -0.545709,6.59769 2.90717,5.17577 -0.91992,-4.19246 -0.01204,-8.45415 -0.170666,-12.71891 0.444441,-4.04261 0.113387,-8.08809 -0.282282,-12.1178 -0.07384,-3.79111 0.738894,-7.55108 -0.06407,-11.31224 -0.270314,-3.39441 -0.213921,-6.79142 0.14093,-10.1883 -0.684647,-5.13581 -0.78535,-10.30421 -0.732216,-15.46704 -0.295458,-1.39866 0.521838,-7.34922 -0.510258,-6.60693 z"
     style="fill:#4b3031;fill-opacity:1;stroke:#4b3031;stroke-width:0.264583px;stroke-linecap:butt;stroke-linejoin:miter;stroke-opacity:1"
     id="path170" />
  <path
     d="m 78.58536,53.49098 c -0.395631,0.0299 -0.539132,0.45578 -0.843537,0.62308 -0.438969,0.24825 -0.868806,0.52178 -1.363586,0.64726 -0.423739,0.15434 -0.959212,0.28803 -1.155641,0.74001 -0.07679,0.40066 -0.214447,0.77765 -0.466649,1.10289 -0.31062,0.5151 -0.697328,1.01572 -1.244419,1.29024 -0.144266,0.26117 0.143272,-0.20254 0.178409,-0.30658 0.305906,-0.20751 0.650089,-0.40328 0.802469,-0.76023 0.132665,-0.34852 0.499288,-0.46837 0.719796,-0.7291 0.127983,-0.34265 0.409224,-0.55708 0.75333,-0.65812 0.465603,-0.18317 0.930816,-0.40635 1.263587,-0.79218 0.278265,-0.27541 0.731052,-0.28376 0.939296,-0.64361 0.135894,-0.17346 0.251323,-0.36558 0.416945,-0.51366 z"
     style="fill:#4b3031;fill-opacity:1;stroke:#4b3031;stroke-width:0.264583px;stroke-linecap:butt;stroke-linejoin:miter;stroke-opacity:1"
     id="path176" />
  <path
     d="m 78.88115,51.77179 c -0.897493,0.95286 -2.083241,1.53979 -3.235194,2.12035 -0.694649,0.38246 -1.311715,0.92152 -1.711155,1.61213 -0.467396,0.54586 -1.149402,0.83802 -1.763514,1.1813 -0.416344,0.10103 0.399876,-0.0833 0.465884,-0.27538 0.379622,-0.17485 0.510898,-0.59677 0.692482,-0.92393 0.202915,-0.006 0.506688,-0.38863 0.145841,-0.20875 -0.233682,0.20688 -0.655922,0.16208 -0.260717,-0.0987 0.483904,-0.47251 1.215516,-0.57153 1.666512,-1.09091 0.497042,-0.47942 1.036693,-0.92667 1.674877,-1.20416 0.530914,-0.32414 0.920133,-0.84696 1.473637,-1.13264 0.271018,-0.1141 0.577969,-0.046 0.851347,0.0207 z"
     style="fill:#4b3031;fill-opacity:1;stroke:#4b3031;stroke-width:0.264583px;stroke-linecap:butt;stroke-linejoin:miter;stroke-opacity:1"
     id="path192" />
  <path
     d="m 79.657589,56.25278 c 0.647702,0.18933 1.213546,0.60007 1.686415,1.07081 0.245975,0.27213 0.196742,0.65806 0.331305,0.97417 0.168524,0.36262 0.60964,0.41652 0.893023,0.65546 0.240508,0.19922 0.484341,0.41845 0.687718,0.63617 -0.324289,-0.0641 -0.664305,-0.16915 -0.901715,-0.40944 -0.04155,0.16499 0.20908,0.40051 0.286772,0.58767 0.128018,0.23884 0.276612,0.51709 0.210789,0.79323 -0.167124,10e-4 -0.194408,-0.44642 -0.303746,-0.61648 -0.120736,-0.37532 -0.168231,-0.84545 -0.55936,-1.04808 -0.306439,-0.16867 -0.534996,-0.45269 -0.583108,-0.8047 -0.06918,-0.35857 -0.377465,-0.61567 -0.727023,-0.68106 -0.333925,-0.0855 -0.786938,-0.12171 -0.919977,-0.50099 -0.07223,-0.21193 -0.04674,-0.44129 -0.101093,-0.65676 z"
     style="fill:#4b3031;fill-opacity:1;stroke:#4b3031;stroke-width:0.264583px;stroke-linecap:butt;stroke-linejoin:miter;stroke-opacity:1"
     id="path200" />
  <path
     d="m 78.573035,44.24061 c -1.199584,-0.008 -2.211327,0.79627 -2.893896,1.71645 -0.6771,0.46856 -0.778328,1.57666 -1.68259,1.66743 -0.623861,0.46476 -1.418108,0.31523 -2.139756,0.4672 -1.025013,0.22458 -2.092482,0.44771 -3.002624,0.97998 -0.378985,0.32612 -0.690485,1.22706 -1.105272,1.2009 0.09021,-0.59575 0.584448,-1.03318 0.602627,-1.64923 -0.330704,0.62741 -1.284128,0.5211 -1.799514,1.00672 -0.572634,0.28064 0.02981,0.84699 0.148374,0.20225 -0.08839,-0.61428 0.444787,-0.7219 0.810687,-0.9573 0.115423,-0.61285 -1.29843,-0.38903 -1.152565,-0.62993 0.908059,-0.0776 1.840282,0.11876 2.761205,-0.0322 0.313685,-0.002 1.453651,0.14071 0.569528,-0.0977 -0.547217,-0.40406 -1.369746,-0.47037 -1.860823,-0.75232 0.627022,0.26755 1.415093,0.0282 2.049302,0.35124 0.189768,0.21164 1.137133,0.0335 0.410141,0.0269 -0.523322,-0.18653 -0.843636,-0.68075 -1.264044,-1.00212 1.045811,-0.0787 1.842212,0.60927 2.783772,0.89815 0.4523,-0.078 1.499261,-0.0838 1.493685,-0.57788 -0.627803,-0.29318 -1.316646,-0.4587 -1.843732,-0.94302 -0.426349,-0.39814 -1.252031,-0.57098 -1.551094,-0.8757 0.662885,0.15289 1.483111,-0.0218 2.047521,0.54804 0.557172,0.59383 1.40257,0.83237 2.191125,0.87358 0.576018,-0.23994 1.026471,-0.71983 1.551194,-1.05775 0.350753,-0.29999 1.345021,-1.17512 0.273798,-0.95908 -0.822377,-0.0319 -1.363487,0.8391 -2.206229,0.76595 -0.755124,0.1861 -1.22753,-0.45447 -1.019402,-1.13688 -0.02108,-0.49096 -1.442074,-0.59183 -0.497326,-0.53645 0.831926,-0.0786 0.662724,1.42265 1.696153,1.22735 1.094278,0.0877 1.954382,-0.80065 3.039196,-0.79297 0.538226,0.0525 1.162077,-0.44746 1.590559,0.0684 z"
     style="fill:#4b3031;fill-opacity:1;stroke:#4b3031;stroke-width:0.264583px;stroke-linecap:butt;stroke-linejoin:miter;stroke-opacity:1"
     id="path208" />
  <path
     d="m 77.764281,43.21917 c -0.190391,0.64169 -0.872725,0.92408 -1.200467,1.46602 -0.1097,0.48072 -0.488487,0.81365 -0.981465,0.86266 -0.417029,0.13276 -0.902282,0.10021 -1.270187,0.35585 -0.217379,0.28695 -0.04872,0.82852 -0.508618,0.95376 -0.63165,0.16956 -1.182751,0.64809 -1.854985,0.65901 -0.289993,-0.13937 -0.172443,-0.63519 0.143298,-0.59407 -0.513048,-0.19669 0.07984,-0.89961 0.346811,-0.45318 -0.327727,0.26036 -0.825702,-0.66714 -0.153839,-0.56008 0.526939,0.0217 -0.0366,0.42618 -0.152807,0.0265 -0.206172,-0.25762 -0.142544,-0.8193 0.284155,-0.5276 0.375392,0.13406 0.800706,0.0654 1.17399,0.22624 0.147797,-0.24116 -0.507718,-0.83571 0.09263,-0.87126 0.336955,0.0742 0.481569,-0.10164 0.254572,-0.38913 0.163232,-0.38602 0.923181,0.47183 0.440923,0.22552 -0.2009,-0.17624 -0.596255,-0.99204 -0.05606,-0.73557 0.06417,0.15323 0.343409,0.51393 0.306594,0.14314 -0.06117,-0.3142 -0.323471,-1.07967 0.182685,-1.09445 0.370879,0.19786 0.729107,0.54074 0.895016,0.92247 0.163478,0.35197 0.04077,-0.55305 0.06185,-0.73673 -0.04698,-0.19648 -0.06998,-0.63046 0.04561,-0.19196 0.06964,0.31802 0.267257,0.10306 0.143193,-0.1197 -0.08829,-0.399 0.01342,-1.33254 0.574761,-0.7938 0.03059,0.35972 0.31794,0.56288 0.446252,0.13565 0.333704,-0.62588 0.585808,0.32816 0.648021,0.6326 0.04238,0.15373 0.08482,0.30786 0.138074,0.4581 z"
     style="fill:#7a913c;fill-opacity:1;stroke:#7a913c;stroke-width:0.264583px;stroke-linecap:butt;stroke-linejoin:miter;stroke-opacity:1"
     id="path540" />
  <path
     d="m 79.5097,48.32231 c 0.854458,0.13698 1.742363,-0.20013 2.577085,0.0816 0.509782,0.25202 0.661281,0.90732 1.209349,1.0981 0.321465,0.307 0.524274,0.75217 1.054835,0.62299 0.525658,0.0521 0.433202,0.76184 0.823208,1.02508 0.600909,0.60763 1.346182,1.04945 2.057348,1.51414 0.125552,0.17152 0.899292,0.095 0.497303,0.33577 C 87.29412,52.706 86.758604,53.09359 86.38962,52.8175 86.068207,52.42118 85.822446,51.95563 85.416723,51.62747 85.05238,51.25955 84.569857,51.04475 84.17593,50.72188 83.938294,50.28864 83.553135,50.0275 83.088614,49.89055 c -0.492977,-0.22643 -0.627973,-0.85254 -1.155063,-1.03387 -0.67832,-0.32559 -1.498844,0.16708 -2.13676,-0.26986 -0.101596,-0.0816 -0.189609,-0.17826 -0.287091,-0.26447 z"
     style="fill:#4b3031;fill-opacity:1;stroke:#4b3031;stroke-width:0.264583px;stroke-linecap:butt;stroke-linejoin:miter;stroke-opacity:1"
     id="path216" />
  <path
     d="m 79.448073,44.29607 c 1.368387,0.0838 2.413612,1.15692 3.066641,2.27797 0.290099,0.45725 0.508278,0.9789 1.043904,1.20886 0.984983,0.58308 1.446958,1.82747 2.589855,2.17383 0.480691,0.15897 0.739524,0.60226 0.967643,1.01805 0.205292,0.32041 0.64299,0.56932 0.847272,0.76998 C 87.63479,51.39251 87.054385,51.09164 86.707941,50.66288 86.021672,50.04712 85.417302,49.26986 84.507559,48.97864 83.74868,48.6696 83.307139,47.90887 82.569106,47.56376 81.968964,47.16234 82.011934,46.12741 81.176224,46.01782 80.439475,45.79069 79.564775,45.37368 79.47208,44.50834 l -0.01466,-0.10597 z"
     style="fill:#4b3031;fill-opacity:1;stroke:#4b3031;stroke-width:0.264583px;stroke-linecap:butt;stroke-linejoin:miter;stroke-opacity:1"
     id="path224" />
  <path
     d="m 79.472724,43.50857 c 0.682206,-0.17841 1.341026,0.13802 1.894264,0.50796 0.938877,0.5277 1.970751,0.89464 2.882246,1.46118 0.455537,0.45188 0.388621,1.23547 1.015731,1.55909 1.310803,0.91708 1.842882,2.52621 2.943319,3.64453 0.08847,0.38891 1.161493,0.35527 0.898568,0.5357 -0.537125,-0.22939 -1.072956,-0.50961 -1.534217,-0.8737 -0.539767,-0.45511 -0.739024,-1.17126 -1.217535,-1.67002 -0.656492,-0.23614 -0.783106,-0.96652 -1.18824,-1.44705 -0.405162,-0.36439 -0.670569,-0.95783 -1.203036,-1.11491 -0.55067,-0.4051 -1.03134,-0.90276 -1.626321,-1.25744 -0.62606,-0.51247 -1.441125,-0.59067 -2.20327,-0.73509 -0.313588,-0.0755 -0.547229,-0.31495 -0.661509,-0.61025 z"
     style="fill:#4b3031;fill-opacity:1;stroke:#4b3031;stroke-width:0.264583px;stroke-linecap:butt;stroke-linejoin:miter;stroke-opacity:1"
     id="path232" />
  <path
     d="m 80.266149,41.82163 c 0.347591,0.14203 0.443467,0.53751 0.679676,0.78062 0.330789,0.0903 0.7924,-0.45372 0.883363,0.15866 0.106766,0.30243 0.116176,0.64262 0.293365,0.9169 0.389807,0.232 0.822113,-0.0686 1.175928,-0.2349 0.43264,-0.21579 0.938517,-0.315 1.418252,-0.24575 0.363816,0.11643 0.716173,0.48374 1.126751,0.28328 0.321689,-0.20638 0.833639,-0.58252 0.31338,-0.86959 -0.299288,-0.25955 -0.416186,-0.68351 -0.281792,-1.05897 0.162951,-0.35552 0.178736,-0.73646 0.164224,-1.1206 0.03316,-0.49988 -0.518653,0.16344 -0.740082,0.19636 -0.365249,0.18373 -0.297317,-0.59094 -0.64267,-0.16075 -0.29586,0.26599 -0.548559,-0.5808 -0.829978,-0.0875 0.01039,0.28801 -0.299508,0.3545 -0.410437,0.40953 0.03534,0.204 -0.05086,0.80977 -0.229173,0.36059 -0.19645,-0.3236 -0.488469,-0.88401 -0.875872,-0.4499 -0.273882,0.13215 -0.520871,-0.15222 -0.642475,-0.26951 -0.04051,0.30974 0.718246,0.75618 0.140276,0.917 -0.194838,0.27941 -0.568381,0.56437 -0.877958,0.25396 -0.2953,-0.51818 -0.446148,-0.0478 -0.664778,0.22056 z"
     style="fill:#405e0a;fill-opacity:1;stroke:#405e0a;stroke-width:0.264583px;stroke-linecap:butt;stroke-linejoin:miter;stroke-opacity:1"
     id="path512" />
  <path
     d="m 79.780834,37.65222 c 1.002178,0.39256 1.320166,1.52036 1.489348,2.47882 0.221511,0.84036 1.037582,1.42697 1.030293,2.33592 0.180813,0.75881 1.256627,0.45495 1.732895,1.02878 0.742975,0.38548 1.205525,1.17135 2.018256,1.44903 -0.308589,0.16649 -1.58646,-0.48798 -1.993184,-1.03487 -0.195547,-0.54654 -1.120127,-0.45227 -0.470333,0.0409 0.433796,0.71284 0.874002,1.45941 1.619233,1.88656 0.868438,0.79698 1.365594,2.14371 2.62645,2.40587 0.821243,0.18521 1.766296,0.45253 2.491558,0.4918 -0.657103,0.0419 -1.523671,-0.25562 -2.305533,-0.15346 -0.363415,-0.0542 -1.144797,-0.24514 -0.327346,-0.0462 0.691178,0.27673 1.300147,0.67181 1.898623,1.08242 -0.785534,0.16606 -1.841567,-0.70877 -2.588773,-1.19829 -0.874286,-0.60294 -1.489113,-1.48458 -1.942533,-2.42726 -0.41183,-0.73076 -1.373296,-0.72779 -1.881346,-1.29948 -0.252412,-0.73248 -0.58693,-1.40834 -1.113774,-1.99064 -0.454385,-0.75696 -0.450792,-1.72122 -1.14416,-2.35801 -0.489465,-0.72254 -0.901694,-1.50507 -1.231745,-2.31347 0.495396,-0.46337 -1.028314,-0.67184 -0.145729,-0.52335 l 0.106748,0.0599 0.131052,0.085 z"
     style="fill:#4b3031;fill-opacity:1;stroke:#4b3031;stroke-width:0.264583px;stroke-linecap:butt;stroke-linejoin:miter;stroke-opacity:1"
     id="path240" />
  <path
     d="m 78.178655,38.36207 c -0.112792,0.45262 0.02472,1.06723 -0.448348,1.348 -0.43811,0.26265 -1.05102,0.22894 -1.363587,0.68912 -0.550211,0.62662 -0.988798,1.34456 -1.580565,1.93438 -0.282556,0.2115 -0.201031,0.70639 -0.390721,0.87998 0.260689,-0.33213 0.03886,-0.72936 -0.0058,-1.09096 -0.01419,-0.31959 0.08373,-0.66795 0.08858,-0.95081 0.01863,0.39121 -0.35111,0.60422 -0.620508,0.83564 -0.323708,0.39065 -0.705516,0.72086 -1.132821,0.99316 -0.208194,0.0737 -0.365248,0.30714 -0.451918,0.42173 0.03335,-0.34944 0.435609,-0.52939 0.611775,-0.81646 0.329506,-0.4017 0.582832,-0.8738 0.674281,-1.38824 0.203508,-0.2457 0.39125,-0.53063 0.432085,-0.81244 0.196056,0.36984 0.70048,-0.10354 0.735648,0.36654 -0.113313,0.24336 0.0309,0.5449 0.265431,0.24672 0.258753,-0.23238 0.402644,-0.56307 0.725458,-0.73011 0.43115,-0.27338 -0.947359,-0.16673 -0.36423,-0.38655 0.334644,-0.10228 0.684143,-0.18005 0.958856,-0.41176 0.377558,-0.22631 0.864777,-0.22234 1.186366,-0.56127 0.228666,-0.18758 0.404475,-0.43979 0.680012,-0.56667 z"
     style="fill:#4b3031;fill-opacity:1;stroke:#4b3031;stroke-width:0.264583px;stroke-linecap:butt;stroke-linejoin:miter;stroke-opacity:1"
     id="path248" />
  <path
     d="m 78.745581,33.80344 c -0.472139,0.54952 -1.206882,0.89303 -1.444959,1.6235 -0.161783,0.58783 -0.260144,1.21086 -0.665744,1.69556 -0.357549,0.49488 -0.910551,0.98454 -0.817034,1.65776 0.200309,0.30924 -0.252216,0.9557 -0.467892,0.50295 0.113248,-0.37941 0.47502,-0.645 0.613574,-1.03277 0.262023,-0.43402 0.441003,-0.91566 0.490435,-1.42045 0.205955,-0.43836 0.506872,-0.82369 0.703191,-1.2675 -0.07232,-0.40252 -0.508603,0.31073 -0.667385,0.44265 -0.333351,0.43999 -0.737636,0.81706 -1.123955,1.2071 -0.372062,0.25027 -0.636018,0.60122 -0.858344,0.98369 -0.340636,0.33823 -0.83127,0.48113 -1.190985,0.80432 -0.256942,0.0673 -0.553854,0.62657 -0.587296,0.55468 0.235491,-0.45814 0.436962,-0.96544 0.810515,-1.34221 0.489249,-0.30983 0.865207,-0.74041 1.236783,-1.18151 0.478821,-0.4006 1.040749,-0.72242 1.3887,-1.25966 0.558977,-0.73228 1.125294,-1.57456 2.063562,-1.83942 0.168674,-0.056 0.341725,-0.0985 0.516834,-0.12869 z"
     style="fill:#4b3031;fill-opacity:1;stroke:#4b3031;stroke-width:0.264583px;stroke-linecap:butt;stroke-linejoin:miter;stroke-opacity:1"
     id="path256" />
  <path
     d="m 79.5097,35.85538 c 0.938724,-0.0587 2.005423,0.24718 2.559123,1.05041 0.151698,0.54212 0.485951,0.97775 0.712081,1.47595 0.215648,0.58161 0.744338,0.9649 1.235971,1.30393 0.477604,0.25442 0.990501,0.4327 1.543817,0.36499 0.741848,0.059 1.20853,0.83241 1.969214,0.86915 0.84382,0.16928 1.731016,0.19206 2.56326,-0.0375 0.514904,0.0711 0.05102,0.31001 -0.175122,0.015 -0.611594,-0.26228 -1.214432,0.14281 -1.816906,0.23003 -0.655528,0.21835 -1.400589,0.0814 -1.890253,-0.42003 -0.351638,-0.57043 -0.985434,-0.6924 -1.608216,-0.62051 -0.719696,-0.0935 -1.115424,-0.82198 -1.780918,-1.05347 -0.553978,-0.29234 -0.728552,-0.92816 -0.750095,-1.50913 -0.0042,-0.83308 -0.96465,-0.9298 -1.535277,-1.24753 -0.340167,-0.14534 -0.683313,-0.28392 -1.026679,-0.42124 z"
     style="fill:#4b3031;fill-opacity:1;stroke:#4b3031;stroke-width:0.264583px;stroke-linecap:butt;stroke-linejoin:miter;stroke-opacity:1"
     id="path264" />
  <path
     d="m 78.58536,28.95642 c 0.631525,0.13168 -0.08149,-0.84559 0.02815,-0.0657 -0.911867,-0.14442 -1.412866,0.72427 -1.96549,1.35496 -0.543244,0.80811 -0.281135,1.86227 -0.419892,2.78328 0.210856,0.86147 -0.543476,1.37133 -1.142171,1.80482 -0.687044,0.57387 -0.662927,1.58661 -1.280031,2.22818 -0.590545,0.78376 -1.423797,1.33847 -2.046638,2.10491 -0.520249,0.85034 -1.51777,1.02825 -2.406663,1.26738 -0.473433,0.0407 -1.120068,0.50142 -1.50182,0.33298 0.848169,-0.17203 1.696661,-0.54728 2.317014,-1.19763 0.739637,-0.78445 2.25907,-0.84338 2.610739,-1.9059 0.285247,-0.70208 0.498903,-1.46562 0.936041,-2.08082 0.693591,-0.63868 1.675354,-1.09355 1.911911,-2.0953 0.352733,-0.87849 0.188971,-1.84272 0.278428,-2.74715 0.01302,-0.76147 -1.03705,0.44926 -0.945559,0.88011 -0.05378,0.91673 -0.892313,1.35461 -1.306304,2.07155 -0.103476,0.44387 -0.562996,1.33607 -0.597704,1.40035 0.343006,-0.61494 0.227937,-1.42379 0.809603,-1.92595 0.639641,-0.70073 0.684371,-1.66797 0.906447,-2.53895 0.356252,-0.68813 1.385593,-0.70298 1.692073,-1.50453 0.218963,-0.79424 1.842875,-1.01198 2.121868,-0.16654 z"
     style="fill:#4b3031;fill-opacity:1;stroke:#4b3031;stroke-width:0.264583px;stroke-linecap:butt;stroke-linejoin:miter;stroke-opacity:1"
     id="path272" />
  <path
     d="m 79.361806,28.61258 c 1.204874,-0.21503 2.729655,0.16905 3.222839,1.40616 0.380282,0.81175 1.27036,1.14926 2.033486,1.49551 0.729955,0.27695 1.611355,-0.11447 2.21995,0.52928 0.865023,0.78806 2.108872,0.5009 3.170072,0.51549 0.975444,-0.0277 1.96909,-0.0149 2.915166,-0.28853 0.134996,-0.15121 -0.874237,0.25038 -1.184627,0.37147 -0.925673,0.34266 -1.93929,0.40207 -2.919862,0.42205 -0.870674,-0.009 -1.780057,-0.22171 -2.482318,-0.75144 -0.415134,-0.74473 -1.317824,-0.56867 -2.020023,-0.60169 -0.884118,-0.2003 -1.454139,-0.98484 -1.800455,-1.76936 -0.369981,-0.80279 -1.343839,-0.75108 -2.079553,-0.89129 -0.410375,-0.0287 -0.682436,-0.38639 -1.074675,-0.43765 z"
     style="fill:#4b3031;fill-opacity:1;stroke:#4b3031;stroke-width:0.264583px;stroke-linecap:butt;stroke-linejoin:miter;stroke-opacity:1"
     id="path280" />
  <path
     d="m 78.831851,25.57349 c -0.496178,0.56514 -1.344832,0.69748 -1.743179,1.3715 -0.470698,0.6116 -0.901429,1.25605 -1.428888,1.82152 -0.427941,0.68345 -0.543164,1.51317 -0.97649,2.1932 -0.09687,0.33377 -0.341657,0.43094 -0.09778,0.0383 0.116815,-0.47823 0.418854,-1.06399 0.205707,-1.52661 -0.09458,0.47537 -0.480058,0.96985 -1.01556,0.86316 -0.69782,0.13617 -0.780022,0.94539 -1.090133,1.45632 -0.144054,0.25067 -0.599343,0.88133 -0.620982,0.81718 0.287086,-0.37086 0.229231,-0.89088 0.508852,-1.27235 0.33323,-0.63746 0.654819,-1.31743 1.184027,-1.81496 0.344639,-0.31587 1.030354,-0.42802 1.213618,-0.78634 -0.372305,0.26121 -0.885546,0.47118 -1.211871,0.84165 -0.537694,0.40251 -1.134981,0.74192 -1.51674,1.31037 -0.430979,0.4063 -1.106041,0.33019 -1.54307,0.67738 -0.152735,0.861 1.12439,0.48341 1.059891,-0.20021 0.03624,-0.70597 0.432482,-1.33934 1.117916,-1.57052 0.503512,-0.21707 0.716587,-0.7765 1.20309,-1.02503 0.524689,-0.32628 1.069544,-0.67995 1.346781,-1.25433 0.332532,-0.31193 0.823442,-0.39406 1.09706,-0.78391 0.415509,-0.37516 0.947761,-0.58003 1.387432,-0.92525 0.273634,-0.17696 0.59691,-0.25301 0.920322,-0.23106 z"
     style="fill:#4b3031;fill-opacity:1;stroke:#4b3031;stroke-width:0.264583px;stroke-linecap:butt;stroke-linejoin:miter;stroke-opacity:1"
     id="path288" />
  <path
     d="m 79.337155,25.37384 c 0.666097,0.36267 1.651548,-0.32075 2.129629,0.45593 0.347988,0.73818 0.836897,1.66052 1.831593,1.29533 0.875913,-0.24557 1.984002,-0.39811 2.395533,0.63682 0.637533,0.3737 1.610753,0.45342 2.144012,-0.15463 0.806154,-0.49406 1.777424,-0.0442 2.655603,-0.14006 0.91089,0.17048 1.993508,-0.45399 2.776536,0.006 0.477577,0.94495 -1.106008,1.03515 -1.50668,0.39952 -0.594659,-0.62883 -1.482945,-0.6935 -2.293782,-0.72775 -0.666526,0.33428 -1.326673,-0.18278 -1.894962,0.38339 -0.816207,0.40788 -1.120506,-0.90149 -1.779277,-0.74828 -0.655594,0.81786 -1.067202,-1.12516 -0.137558,-0.63056 0.985351,0.1798 2.027228,-0.23975 2.975269,0.20311 0.583812,0.0776 1.33974,0.14169 1.79832,0.20728 -0.492077,-0.24271 -1.137369,-0.012 -1.682694,-0.15666 -0.619062,-0.23927 -1.233432,-0.76715 -1.928097,-0.43649 -0.672903,-0.0202 -1.428058,-0.39874 -2.050094,-0.12432 0.19102,0.81425 -0.945797,0.9522 -1.426362,0.54452 -0.65446,-0.16433 -1.239747,-0.42954 -1.782729,-0.81765 -0.309511,-0.27516 -1.067338,-0.41948 -1.184067,-0.5642 0.757908,0.13388 1.424544,-0.32189 2.155066,-0.50876 0.503741,-0.4888 1.178,-0.22198 1.786398,-0.21757 0.382631,0.0954 1.148747,-0.38504 0.353195,-0.36254 -0.789334,-0.28119 -1.595413,-0.13087 -2.23712,0.40534 -0.893787,0.20664 -1.79695,0.63437 -2.735318,0.47138 -0.670556,-0.49029 -0.579699,0.15916 -0.362414,0.58073 z"
     style="fill:#4b3031;fill-opacity:1;stroke:#4b3031;stroke-width:0.264583px;stroke-linecap:butt;stroke-linejoin:miter;stroke-opacity:1"
     id="path296" />
  <path
     d="m 79.041364,23.35518 c -0.721092,0.56033 -1.575799,0.95996 -2.209151,1.62535 -0.199939,0.4417 -0.674574,0.58553 -1.124797,0.59591 -0.856124,0.0688 -1.67192,-0.27486 -2.518774,-0.30114 -0.297382,-0.1815 -0.468361,-0.66792 -0.92993,-0.44061 -0.574609,0.0891 -1.178575,0.34151 -1.753087,0.12926 -0.251072,-0.13732 -1.111109,-0.74625 -0.406734,-0.73106 0.502935,0.15185 0.965606,0.46415 1.511874,0.46291 0.601048,-0.0174 1.19363,0.0872 1.717668,0.39607 0.29603,0.0861 1.062767,0.72993 1.105385,0.1491 -0.168425,-0.43818 -0.315137,-0.97993 -0.765372,-1.18748 0.187457,-0.0622 0.67795,0.4367 0.884603,0.67673 0.181868,0.45363 0.773154,0.26453 1.149619,0.25382 0.726576,-0.16119 1.34479,-0.65426 1.791909,-1.22947 0.430221,-0.35595 1.026519,-0.32158 1.546787,-0.39939 z"
     style="fill:#4b3031;fill-opacity:1;stroke:#4b3031;stroke-width:0.264583px;stroke-linecap:butt;stroke-linejoin:miter;stroke-opacity:1"
     id="path304" />
  <path
     d="m 79.176933,21.65817 c 0.669954,-0.43254 1.47139,-0.55094 2.211086,-0.80526 0.400287,-0.21346 0.908626,-0.49148 1.321586,-0.13616 0.44728,0.39235 0.840789,0.85871 1.429304,1.05099 0.451283,0.23221 0.799903,0.64105 1.294668,0.79669 0.401837,0.31051 -0.221644,-0.27281 -0.352876,-0.34151 -0.392288,-0.38887 -0.567524,-1.04231 -1.171756,-1.17809 -0.236504,-0.16806 -0.749347,-0.21903 -0.791962,-0.46951 0.608159,0.14603 1.276004,0.14801 1.811879,0.51911 0.400828,0.12228 0.459346,0.72846 0.925703,0.71011 0.446973,0.0599 0.69565,0.98083 1.14091,0.68266 0.05616,-0.51431 -0.540395,-0.75796 -0.872001,-1.04344 -0.443947,-0.12277 -0.92338,-0.16443 -1.161666,-0.63678 -0.399874,-0.28945 -0.920018,-0.33062 -1.350269,-0.55782 -0.108726,-0.17261 -0.468367,-0.47203 -0.473648,-0.48995 0.434597,-0.1182 0.908166,0.12084 1.325565,-0.11368 0.450167,-0.30484 0.950942,-0.0254 1.218164,0.37792 0.328881,0.46837 0.983282,0.30543 1.241215,-0.14234 0.195132,-0.13461 0.741166,-0.74846 0.167732,-0.54901 -0.511359,0.0165 -0.977468,0.30791 -1.479895,0.31352 -0.417284,-0.13422 -0.784921,-0.26112 -1.151282,-0.45859 -0.528966,-0.082 -0.770045,0.61066 -1.316059,0.50191 -0.44398,0.0692 -0.492669,0.73767 -1.018329,0.69904 -0.852395,0.23784 -1.769725,0.12238 -2.609579,0.40485 -0.358865,0.13471 -0.364021,0.54543 -0.33849,0.86534 z"
     style="fill:#4b3031;fill-opacity:1;stroke:#4b3031;stroke-width:0.264583px;stroke-linecap:butt;stroke-linejoin:miter;stroke-opacity:1"
     id="path312" />
  <path
     d="m 78.486765,17.08844 c -0.576718,0.0351 -0.99009,0.48191 -1.358513,0.87392 -0.367372,0.18939 -0.838694,0.30966 -0.924624,0.7858 -0.128064,0.53681 -0.753902,0.61249 -1.158907,0.33101 -0.418981,-0.2443 -0.901932,-0.51262 -1.395396,-0.30462 -0.532534,0.22376 -1.14079,0.35563 -1.700671,0.14505 -0.407798,-0.1863 -0.897642,-0.3793 -1.084399,-0.82074 0.104925,-0.28029 -0.453671,-0.5765 -0.293086,-0.66005 0.230647,0.37693 0.652791,0.58322 1.024639,0.80962 0.422978,-0.0472 0.614332,0.30666 0.888148,0.54327 0.339502,0.0183 0.94292,0.26764 0.824034,-0.3241 0.150232,-0.26825 -0.562713,-0.51064 -0.104675,-0.34983 0.398831,0.15937 0.825608,0.2451 1.201899,0.46485 0.412264,0.20078 1.074455,0.52523 1.309189,-0.0728 0.261924,-0.39175 0.795853,-0.44997 1.07066,-0.84885 0.451037,-0.41129 1.077742,-0.73759 1.701702,-0.57249 z"
     style="fill:#4b3031;fill-opacity:1;stroke:#4b3031;stroke-width:0.264583px;stroke-linecap:butt;stroke-linejoin:miter;stroke-opacity:1"
     id="path320" />
  <path
     d="m 79.004396,14.75921 c 0.63617,-0.14301 1.32847,-0.28329 1.961411,-0.063 0.331578,0.24775 0.739943,0.52294 1.155757,0.2797 0.509471,-0.21887 0.998228,-0.56142 1.581179,-0.51395 0.993249,-0.0513 1.983934,0.12507 2.975535,0.0774 0.250214,0.0121 1.103648,-0.23585 0.496014,-0.37951 -0.577014,0.0436 -1.151028,0.11683 -1.72027,0.22672 -0.508013,-0.0697 -0.856107,-0.68593 -1.408248,-0.50171 -0.445658,0.18773 -0.876992,0.48504 -1.387051,0.39115 -0.224518,-0.0186 -0.721182,0.17464 -0.582799,0.39868 0.21823,-0.31929 0.608231,-0.47301 0.803597,-0.81406 0.114041,-0.21095 0.681589,-0.39518 0.581512,-0.516 -0.191801,0.38049 -0.659137,0.26126 -0.965925,0.46225 -0.373502,0.27954 -0.906586,0.79496 -1.353201,0.34899 -0.305236,-0.36936 -0.723182,-0.46029 -1.117789,-0.16824 -0.347916,0.0726 -0.897041,-0.017 -0.995104,0.44279 -0.02644,0.10731 -0.02998,0.21886 -0.02462,0.32875 z"
     style="fill:#4b3031;fill-opacity:1;stroke:#4b3031;stroke-width:0.264583px;stroke-linecap:butt;stroke-linejoin:miter;stroke-opacity:1"
     id="path328" />
  <path
     d="m 78.696281,12.2747 c -0.64403,0.12124 -1.359066,0.20238 -1.848489,0.68629 -0.320693,0.31429 -0.651307,0.63409 -1.073647,0.80796 -0.250964,0.12913 -0.535055,0.15016 -0.800811,0.22793 -0.143138,0.11212 -0.581214,0.12985 -0.378731,-0.14504 0.184142,-0.14642 0.393571,0.0743 0.595743,0.0553 0.447644,-0.0367 0.666481,-0.49485 1.030945,-0.69395 0.181366,-0.13548 0.342114,-0.30886 0.538211,-0.40821 -0.152958,-0.092 -0.427935,0.1248 -0.62777,0.15354 -0.435005,0.14588 -0.860592,0.32319 -1.314439,0.40497 -0.318244,-0.0245 0.104829,-0.19318 0.182114,-0.27281 -0.02951,-0.21254 0.03022,-0.44604 0.303039,-0.40179 0.43857,-0.0117 0.877429,-0.007 1.316047,-0.0165 0.370382,-0.003 0.700601,-0.17862 1.014472,-0.35518 0.328107,-0.18706 0.715371,-0.14404 1.063316,-0.0425 z"
     style="fill:#4b3031;fill-opacity:1;stroke:#4b3031;stroke-width:0.264583px;stroke-linecap:butt;stroke-linejoin:miter;stroke-opacity:1"
     id="path336" />
  <path
     d="m 79.546668,11.25427 c 0.72028,-0.30656 1.531937,-0.45447 2.309718,-0.33811 0.423177,0.13481 0.892491,0.33449 1.305302,0.0441 0.569999,-0.3072 1.217775,-0.4446 1.855253,-0.53097 0.346225,-0.0558 0.753277,0.11987 1.023217,-0.19203 0.04657,-0.21117 0.475506,-0.29557 0.232465,-0.0332 -0.25152,0.27162 -0.598634,0.53096 -0.995417,0.50288 -0.471772,-0.0603 -1.008346,-0.1873 -1.409078,0.15768 -0.593362,0.45988 -1.384693,0.81332 -2.14197,0.59434 -0.394508,-0.18064 -0.741494,-0.67057 -1.22791,-0.47559 -0.474682,0.20895 -0.978812,0.33793 -1.484377,0.44932 -0.180981,-0.009 -0.404492,0.092 -0.0996,0.0434 0.221207,-0.0509 0.432818,-0.10608 0.632395,-0.22183 z"
     style="fill:#4b3031;fill-opacity:1;stroke:#4b3031;stroke-width:0.264583px;stroke-linecap:butt;stroke-linejoin:miter;stroke-opacity:1"
     id="path344" />
  <path
     d="M 78.733256,9.71254 C 78.085664,9.78514 77.404732,9.66324 76.844797,9.32382 76.650599,9.20575 76.71608,8.97113 76.702975,8.78783 c 0.120407,-0.0231 -0.06235,0.24579 0.0894,0.30196 0.04663,0.16765 0.288006,0.32264 0.337039,0.0628 0.0804,-0.21442 0.230761,-0.38423 0.382532,-0.54818 0.04361,-0.0684 0.184217,-0.34053 0.09302,-0.12549 -0.147913,0.25512 -0.07244,0.56524 -0.154887,0.83683 -0.135097,0.24376 -0.432477,0.41221 -0.71223,0.33542 -0.27923,-0.0621 -0.562733,-0.22 -0.85223,-0.10868 -0.0823,0.0513 -0.40485,0.14566 -0.291406,0.25526 0.35307,-0.0628 0.719795,-0.0204 1.066397,-0.12719 0.203285,-0.0859 0.278577,0.1026 0.321552,0.25526 0.354442,0.12674 0.72105,-0.0494 1.081866,-0.0497 0.229594,-0.0149 0.466358,-0.0481 0.669233,-0.1636 z"
     style="fill:#4b3031;fill-opacity:1;stroke:#4b3031;stroke-width:0.264583px;stroke-linecap:butt;stroke-linejoin:miter;stroke-opacity:1"
     id="path352" />
  <path
     d="M 77.369898,8.62455 C 76.853825,8.55885 76.583595,9.18155 76.063619,9.16228 75.488739,9.36216 75.187937,8.83079 74.903725,8.44861 74.512453,8.01696 73.928619,8.29338 73.524823,8.54451 72.962921,8.79644 72.264746,8.37447 72.215582,7.7594 72.027192,7.44358 71.847396,6.61351 72.491524,6.94987 c 0.318905,0.0318 0.546913,0.88628 0.36223,0.31848 -0.02024,-0.88539 0.790299,0.0391 1.10983,0.22413 C 73.67434,7.31338 73.303765,6.35647 73.73532,6.17215 74.177914,6.22485 74.122329,7.09181 73.72271,6.53372 73.467477,6.24447 72.86995,5.11725 73.67204,5.43579 73.891744,5.52839 74.210217,5.95772 73.784029,5.6944 73.52824,5.32914 73.131403,4.44661 73.856609,4.36733 74.141698,4.24824 74.789015,4.61647 74.506222,4.85185 74.172336,4.32174 75.404712,3.8977 75.650062,4.3472 75.851845,4.60135 75.479839,5.65458 75.538993,4.95677 75.683101,4.69059 76.531132,5.20786 76.084708,4.6315 75.637476,4.24229 75.935964,3.17777 76.598843,3.58379 77.029432,3.89511 77.598258,4.65653 77.11604,5.1051 77.13393,4.78332 77.454612,4.16464 77.654939,4.26703 77.413577,4.07451 77.629329,3.69221 77.846675,4.07713 78.126059,3.81624 77.35604,3.25924 77.54956,2.79596 77.46571,1.92442 78.609239,2.62967 78.69645,2.48488 78.321323,2.13744 78.469772,1.55783 79.046981,1.78885 c 0.448447,0.018 0.457583,0.64268 0.486027,0.77752 0.145852,-0.71071 1.496672,-0.50602 0.819817,0.20259 -0.443057,0.50982 0.95109,1.26467 -0.07874,1.37728 -0.429135,-0.12774 -0.48977,0.14408 -0.24173,0.43865 0.07506,0.70824 -1.364903,0.40085 -0.612843,1.10645 0.580468,0.49082 0.01847,1.12075 -0.599212,0.94677 -0.186363,0.4089 0.961153,1.00015 0.189818,1.31386 -0.444477,-0.0238 -0.69378,0.0674 -0.708886,0.54813 C 77.96069,8.4643 77.668057,8.29013 77.369895,8.62456 Z"
     style="fill:#7a913c;fill-opacity:1;stroke:#7a913c;stroke-width:0.264583px;stroke-linecap:butt;stroke-linejoin:miter;stroke-opacity:1"
     id="path360" />
  <path
     d="m 77.394547,8.35835 c -0.01404,0.57857 0.374119,0.77117 0.850421,0.48136 0.450325,-0.18515 1.030635,0.0568 1.087768,0.57218 0.07701,0.4793 0.917065,0.0905 0.734584,0.73942 -0.179697,0.27448 0.526972,-0.0792 0.659925,-0.19318 C 81.030223,9.64544 81.098698,9.03664 81.389388,8.8381 81.618203,8.7493 81.757437,9.18895 81.771905,8.7597 81.54691,8.00486 82.822936,8.34985 82.907966,7.661 82.739482,7.35303 82.126903,7.43418 82.267063,6.97881 82.052722,6.81287 82.119892,6.40277 81.937125,6.81284 c -0.285007,0.36582 -0.328763,-0.13153 0.05349,-0.0998 0.3539,0.0532 0.582584,-0.7349 0.811777,-0.15376 0.138052,0.48033 0.726967,-0.41985 0.786576,0.15126 C 83.152306,6.59315 83.485901,5.66404 83.917447,5.72 83.447438,6.16084 83.152912,5.21735 83.539784,4.89498 83.905799,4.48735 83.182786,4.71975 83.111735,4.31244 82.687921,3.78452 82.656294,5.02534 82.098244,4.56818 81.514071,4.48818 81.4298,3.78685 81.781757,3.40758 81.997813,3.20466 82.482032,2.37886 82.004549,3.01777 81.867649,3.42438 81.36684,4.0912 80.976442,3.53215 80.521374,3.10306 81.905394,2.49475 81.14527,2.3343 c -0.508858,0.0834 -0.710535,0.6199 -0.61292,1.07474 -0.05039,0.63506 -1.030576,0.0852 -0.794529,0.8823 0.155405,0.40859 0.249128,0.8272 -0.360501,0.70205 -0.291701,0.11254 -1.095793,-0.30409 -0.598898,0.2053 0.413175,0.32718 -0.04736,0.61301 -0.33679,0.29326 -0.382964,-0.20699 0.08286,0.48199 -0.364461,0.56682 -0.66416,0.17959 -0.217479,0.67126 -0.117422,1.04815 -0.405538,0.0987 -1.219258,0.30069 -0.836598,0.91454 0.06578,0.13065 0.177443,0.22793 0.271401,0.33691 z"
     style="fill:#405e0a;fill-opacity:1;stroke:#405e0a;stroke-width:0.264583px;stroke-linecap:butt;stroke-linejoin:miter;stroke-opacity:1"
     id="path368" />
  <path
     d="m 82.644774,9.26786 c -0.379179,-0.0704 -1.045529,-0.23508 -1.060056,0.35976 -0.262017,0.47868 0.717319,0.69226 0.132251,1.06087 -0.453491,0.38436 0.08375,0.7909 0.498219,0.52363 0.382455,-0.12343 0.624765,-0.68775 1.083424,-0.49227 0.117736,0.42114 0.590149,0.56917 0.887464,0.19485 0.339339,-0.29329 0.673997,-0.91875 1.201501,-0.72853 0.173069,0.41868 0.314205,0.96009 0.894846,0.67547 0.377489,0.19007 0.602153,-0.18356 0.626703,-0.49529 0.55014,-0.16692 -0.216044,-0.64774 -0.03504,-1.00575 0.343501,-0.46015 0.658149,0.59143 0.917562,0.12593 0.111797,-0.29298 0.839413,-0.0334 0.316262,0.0192 -0.483104,-0.18861 0.601219,-1.01175 -0.01123,-0.54074 -0.594507,0.0421 -0.444498,-0.80706 -0.235691,-1.12887 0.03499,-0.18701 0.258631,-0.3792 0.07152,-0.11164 -0.289517,0.42788 -0.772961,-0.0497 -0.831266,-0.40633 -0.164395,-0.27559 0.204188,-0.88876 0.35251,-0.70259 0.206037,-0.0639 0.47011,-0.72549 -0.05354,-0.66229 -0.46593,-0.27344 -0.650639,0.23697 -0.606925,0.62037 -0.03525,-0.32838 -0.582404,-0.69363 -0.740664,-0.57168 0.279345,0.46267 -0.32745,0.80171 -0.684027,0.52846 0.187194,0.30267 0.411653,1.03434 -0.206553,0.84745 -0.377994,-0.23704 -0.896714,0.16884 -0.435048,0.5018 0.138422,0.0515 0.764554,0.30309 0.31691,0.30834 -0.240386,-0.18289 -0.670523,-0.35065 -0.495936,0.0799 -0.275023,-0.0512 -0.955405,-0.16445 -0.854231,0.37836 -0.0303,0.25363 0.320867,0.39679 -0.06501,0.18417 -0.421618,-0.17083 -0.242693,0.48896 -0.635551,0.26377 -0.136355,0.005 -0.210173,0.15283 -0.348407,0.17362 z"
     style="fill:#405e0a;fill-opacity:1;stroke:#405e0a;stroke-width:0.264583px;stroke-linecap:butt;stroke-linejoin:miter;stroke-opacity:1"
     id="path376" />
  <path
     d="m 77.801256,11.74128 c -0.320465,-0.0733 -0.844459,-0.049 -0.841874,0.39161 -0.02044,0.57286 -0.633507,0.50068 -0.984631,0.26106 -0.408251,-0.24174 -0.945152,-0.0266 -1.092,0.41615 -0.100396,0.45649 0.63603,0.505 0.605186,0.95091 -0.160621,0.38292 -0.761664,0.24351 -1.051492,0.0786 -0.374235,-0.29475 -0.881848,-0.15036 -1.248096,0.0688 -0.520724,0.0841 -0.410811,-0.61049 -0.359918,-0.93344 0.08802,-0.28616 0.610783,-0.13105 0.121689,-0.14294 -0.468748,-0.3121 0.426416,-0.52057 0.681887,-0.47361 0.321586,-0.10248 0.282479,0.31991 0.04814,0.0694 -0.211794,-0.54556 0.554531,-0.75759 0.964886,-0.72783 0.157577,0.10112 -0.434205,0.0224 -0.547257,-0.12781 -0.244889,-0.40516 -0.7299,-0.24018 -1.114922,-0.22289 -0.43329,0.15275 -0.623539,-0.57013 -0.161841,-0.54584 -0.241361,0.15499 -0.642447,0.40979 -0.988409,0.40466 -0.160311,-0.27107 -0.245105,-0.57468 -0.501761,-0.78583 -0.243556,-0.4578 0.510639,-0.87117 0.675941,-0.31629 0.05544,-0.1029 0.250292,-0.64753 0.598104,-0.70046 0.374126,-0.13382 0.770583,0.22993 0.728488,0.61207 0.129363,-0.007 0.11367,-0.72734 0.534337,-0.44293 0.174987,0.3591 0.474336,0.37511 0.675062,0.0591 0.401103,-0.10726 0.738529,0.34385 0.62959,0.71804 -0.05002,0.68152 0.907847,0.17842 0.983342,-0.21196 0.193322,-0.52022 0.207291,0.80374 0.341358,0.2382 0.06106,-0.33751 0.295419,-0.79596 0.528784,-0.94613 0.01947,0.37052 0.0653,0.76069 0.07329,1.14332 0.14281,0.008 0.07729,-0.81918 0.399999,-0.50987 0.17244,0.28939 0.574969,0.0358 0.620902,0.47186 0.17586,0.41712 0.265427,1.07513 -0.31879,1.2039 z"
     style="fill:#7a913c;fill-opacity:1;stroke:#7a913c;stroke-width:0.264583px;stroke-linecap:butt;stroke-linejoin:miter;stroke-opacity:1"
     id="path384" />
  <path
     d="m 77.776608,14.08161 c 0.567595,0.20534 1.106462,-0.1584 1.500375,-0.52898 0.596936,-0.374 0.686239,0.54559 1.146405,0.57409 0.465123,-0.14236 1.008982,-0.67188 1.384447,-0.0507 0.457843,0.5382 0.986746,-0.10077 1.35346,-0.39735 0.487674,-0.30709 1.033454,0.0266 1.361208,0.40589 0.700841,0.5951 1.694288,0.26922 2.455475,-0.0284 0.412565,-0.22677 1.248895,-0.26883 1.091511,-0.93249 0.03939,-0.4985 -0.448427,-1.18872 -0.76438,-0.46321 -0.108571,0.26652 -0.659143,0.88139 -0.539683,0.20905 0.04393,-0.32504 0.02615,-0.94999 -0.243097,-0.38347 -0.45697,0.50694 -0.449579,-0.33131 -0.515667,-0.52217 -0.145897,0.6957 -1.283698,0.3407 -0.989509,-0.34244 -0.04662,-0.28104 0.214892,-0.57233 0.186973,-0.14515 -0.150498,0.58153 -0.553858,0.11521 -0.799805,-0.0178 -0.334989,0.10597 -0.199298,1.29519 -0.53793,0.62016 -0.242672,-0.18455 -0.404975,-1.04098 -0.52793,-0.29076 -0.127229,0.29478 -0.495862,0.7317 -0.7076,0.33797 -0.141059,0.73105 -0.639921,-0.33024 -0.62482,-0.45579 0.321122,0.60277 -0.51294,0.72357 -0.849451,0.31346 -0.100588,-0.34054 -0.409344,-0.0898 -0.402759,-0.0757 0.087,-0.40582 -0.399833,-0.695 -0.402401,-0.13497 -0.100148,0.166 0.03955,0.89328 0.02401,0.44875 -0.197534,-0.66311 -1.469432,-0.50195 -1.016168,0.2564 0.380687,0.65204 -0.864691,0.19524 -0.888616,0.86134 0.02304,0.47332 -0.456546,0.42053 -0.694053,0.7422 z"
     style="fill:#7a913c;fill-opacity:1;stroke:#7a913c;stroke-width:0.264583px;stroke-linecap:butt;stroke-linejoin:miter;stroke-opacity:1"
     id="path392" />
  <path
     d="m 78.787215,16.16682 c -0.547886,-0.10245 -1.136311,-0.0516 -1.595686,0.28879 -0.407789,0.21746 -0.998462,0.47739 -0.921079,1.03897 0.08814,0.69585 -0.466886,1.31267 -1.074129,1.56687 -0.42254,-0.26516 -0.666799,-0.79458 -1.045551,-1.14787 -0.255523,-0.43613 -0.741249,-0.19172 -0.555082,0.28068 0.21159,0.58321 -0.453612,0.79668 -0.877021,0.92417 -0.470633,-0.24384 -0.658988,-1.05244 -1.37826,-0.9052 -0.320745,-0.11534 -1.075895,0.58374 -1.060128,0.0842 0.286289,-0.52709 -0.453845,-0.80234 -0.639824,-1.19722 -0.283867,-0.64854 0.96484,-0.31173 0.820648,-0.40303 -0.539291,-0.21922 -0.429135,-0.78337 0.0293,-0.71104 -0.474985,-0.12037 -0.340609,-1.21908 0.213481,-1.18689 0.359496,0.19474 0.297135,0.74083 0.753126,0.9071 0.134106,0.47268 0.217373,0.0831 0.442039,-0.0812 0.246063,-0.043 0.645946,0.66699 0.464684,0.38856 0.244524,-0.39579 0.58768,0.74273 0.628264,0.28444 -0.337261,-0.13158 -0.709435,-1.01062 -0.09946,-0.85742 0.362919,0.13519 0.428261,0.98281 0.700896,0.91 -0.385351,-0.23194 0.04378,-1.23249 0.371306,-0.64215 0.02244,0.17035 0.2736,0.76792 0.222056,0.29962 -0.329848,-0.57728 0.462445,-0.35155 0.339733,0.109 -0.07427,0.5073 0.565255,0.76069 0.617055,0.13987 0.203395,-0.21875 0.61185,-0.0766 0.533147,-0.56201 0.386472,-0.33551 0.03131,1.01929 0.582196,0.50461 0.303264,-0.0504 0.60936,-0.21484 0.554181,-0.42054 0.541803,-0.14512 1.032157,-0.2721 1.594201,-6.7e-4 0.170941,0.0786 0.276698,0.23905 0.379904,0.38834 z"
     style="fill:#405e0a;fill-opacity:1;stroke:#405e0a;stroke-width:0.264583px;stroke-linecap:butt;stroke-linejoin:miter;stroke-opacity:1"
     id="path400" />
  <path
     d="m 77.973796,20.04887 c -0.0936,0.74778 0.831353,1.00242 1.256088,0.44855 0.483675,-0.39879 1.288366,-0.41152 1.510156,0.27627 0.458119,0.80503 1.38666,0.002 1.869973,-0.36941 0.585654,-0.57377 1.430883,-0.34691 2.045101,0.0376 0.65497,0.11388 1.245728,0.89376 0.560828,1.39128 -0.4615,0.18022 -0.773093,0.88072 -0.0441,0.61154 0.778351,-0.17837 1.153424,-0.93423 1.486426,-1.5801 0.865482,-0.43611 -0.563175,-1.80077 0.683227,-1.88102 0.850258,-0.10845 1.150187,0.73814 1.509214,1.31433 0.456265,-0.45118 0.36442,-1.27591 0.370186,-1.85951 0.02734,-0.34067 0.623008,-1.06824 0.03271,-0.50529 -0.814882,0.52557 0.06933,-1.38658 -0.787116,-0.69812 -0.425238,0.25296 -1.071684,0.0975 -1.130842,-0.34836 -0.241482,0.44305 -0.412243,1.29853 -0.956533,1.35464 -0.101089,-0.1914 -0.274578,-1.06604 -0.308315,-0.33304 -0.254692,0.89186 -0.799942,-0.16805 -0.634955,-0.61844 -0.36828,0.12621 -0.162556,1.5519 -0.907505,1.17761 -0.09574,-0.22195 -0.261354,-0.55655 -0.326284,-0.12392 -0.404098,-0.54798 1.112975,-1.05137 0.07059,-1.07252 -0.472639,-0.007 -1.185158,-0.99969 -0.360233,-0.50734 0.551814,0.3122 1.432674,0.34675 1.097341,-0.52395 -0.185031,-0.40021 -0.45577,-0.58716 -0.66419,-0.89897 -0.536733,-0.31926 -1.081342,0.9138 -0.500051,0.43609 -0.218302,-0.0123 -1.17248,-0.34113 -0.976598,-0.0446 0.750936,0.46544 -0.292422,0.86043 -0.768274,0.67862 -0.934969,0.10741 1.342924,1.23571 0.196173,1.21099 -0.743796,-0.16745 -0.482946,0.47462 0.01889,0.54242 0.751906,0.5694 -1.027357,0.85434 -1.134367,0.12815 -0.32764,-0.12832 -0.256705,-0.79694 -0.178402,-0.27143 -0.553368,0.40922 -0.755126,-0.6502 -0.928303,-0.79525 0.120985,0.28149 -0.61489,1.1397 -0.292762,0.49728 0.14681,-0.54831 0.587075,-1.58135 -0.405207,-1.44666 -0.325401,0.43957 -0.324252,1.29655 0.109393,1.67167 -0.366703,0.12309 -1.26555,0.11644 -0.62311,0.68681 0.263574,0.44695 -0.472272,0.65519 0.188995,0.9404 0.421957,0.52841 -0.846926,0.3442 -1.078144,0.47372 z"
     style="fill:#405e0a;fill-opacity:1;stroke:#405e0a;stroke-width:0.264583px;stroke-linecap:butt;stroke-linejoin:miter;stroke-opacity:1"
     id="path408" />
  <path
     d="m 79.144625,22.36701 c -0.54233,0.15442 0.0018,1.29989 -0.887226,1.04812 -0.812386,-0.13178 -1.570717,0.22659 -2.354899,0.23765 -0.655728,-0.23618 -1.527893,-0.056 -1.37427,0.81354 -0.523296,0.33256 -1.226446,-0.31427 -1.786335,0.0504 -0.399893,0.47733 -1.16015,0.64008 -1.582329,0.0933 -0.394925,-0.32807 -1.358953,-1.29014 -1.691771,-0.58025 0.347899,0.36147 0.564431,1.10586 -0.227062,0.96224 -0.584155,0.0633 -0.943856,-0.19242 -1.413387,-0.45192 -0.590641,0.0483 -1.620719,0.038 -1.648209,-0.76312 0.06206,-0.67286 0.875323,-0.87947 1.238823,-0.36399 0.772247,0.16257 -0.377647,0.24183 -0.406767,-0.26483 -0.412299,-0.50489 0.468078,-0.42946 0.01067,-0.90838 -0.582684,-0.38585 -0.294075,-1.30837 0.407337,-0.9258 0.304366,0.24079 0.905454,0.68075 0.458527,0.50747 0.602452,0.38569 -0.305235,-0.88904 -0.28334,-1.28478 0.105359,-0.89776 1.296054,-0.0261 1.212854,0.49956 0.131665,-0.17699 0.06166,-0.88857 0.466041,-0.36843 0.187657,0.31021 0.692299,1.73055 0.692274,0.66048 -0.07475,-0.84099 0.573147,0.27194 0.513097,0.60137 0.235676,0.51623 1.170347,1.15965 0.934286,0.1412 -0.211453,-0.474 0.389803,-1.17418 0.425383,-0.35412 -0.185386,0.58828 0.689572,0.78321 0.331932,0.1254 -0.409313,-0.49355 0.363178,-1.2118 0.476063,-0.3528 0.08433,0.3595 0.272876,0.40293 0.171835,0.0281 0.349667,-0.42616 0.929688,0.99173 0.735686,0.0927 -0.170639,-1.0321 1.147129,-1.01769 1.436279,-0.20292 -0.03025,0.0858 -0.302701,-0.78512 0.170081,-0.94333 0.774111,-0.18369 0.696639,0.97543 0.868472,1.45611 0.495352,1.02198 1.229498,-1.13036 1.522101,-0.17724 0.38952,0.12103 0.749957,-0.36034 0.245865,0.0818 -0.454376,0.87756 1.099647,-4.9e-4 1.337988,0.54242 z"
     style="fill:#7a913c;fill-opacity:1;stroke:#7a913c;stroke-width:0.264583px;stroke-linecap:butt;stroke-linejoin:miter;stroke-opacity:1"
     id="path416" />
  <path
     d="m 79.773169,23.38744 c -1.167668,-0.37022 -0.841725,1.72395 0.136685,0.70839 0.535097,-0.70066 1.654553,-0.96787 1.89022,0.11684 0.07174,0.14795 -0.956638,0.94267 -0.08274,1.05158 0.707718,-0.0225 0.425693,1.53629 1.454098,0.81449 0.547317,-0.69578 1.566831,-0.86013 1.929036,0.12324 0.370697,0.91958 1.534865,0.94502 1.905055,0.0757 1.097182,-0.53355 1.27085,1.05049 2.200766,1.07384 0.815408,0.48685 1.371954,-0.14908 1.969958,-0.61859 0.672052,-0.41055 1.292385,0.44039 1.620782,0.72476 0.225539,1.18427 1.619727,-0.33125 2.380126,0.45014 0.96668,0.48859 1.423665,-0.81112 0.217533,-0.72669 -0.553525,0.32266 -0.861813,-0.51615 -1.124944,-0.60827 0.258486,0.0144 1.159729,0.12642 0.65586,-0.29751 -0.305793,0.16291 -1.013753,0.75553 -0.525229,0.0318 0.628365,-0.31061 1.241217,-1.22622 0.563945,-1.68675 -0.425842,0.26923 0.241391,0.94108 -0.364882,0.45127 -0.807232,-0.58655 -0.610054,0.27721 -0.725386,0.72131 -0.62228,0.38174 -1.263635,-0.28074 -0.754084,-0.77664 -0.484701,-0.35156 -0.792134,-0.91723 0.112786,-0.83144 0.98255,-0.0512 -0.06988,-0.93334 -0.351246,-1.19973 -0.300379,-0.21562 -0.974555,-0.36027 -0.795099,0.39984 0.5693,0.55044 -0.203977,0.71777 -0.372063,0.0505 -0.592626,-0.64555 -0.410186,0.0574 -0.01547,0.37791 0.59831,0.97407 -0.751607,0.14944 -0.842103,0.63128 0.522513,0.17566 0.824328,1.04348 -0.04039,0.99399 -0.433107,-0.19285 -1.517781,-0.40579 -1.514714,-0.67549 0.711412,0.44306 -0.909582,0.17271 -1.161862,-0.0523 -0.662261,-0.62401 0.840799,-0.79467 0.358208,0.0746 -0.739117,0.50651 -0.752819,-1.13611 8.89e-4,-1.15409 -0.906523,0.16606 0.676272,-0.76847 -0.257042,-0.83259 -0.78768,-0.17429 -0.350525,1.12154 -1.192808,0.54994 -0.709144,-0.46014 -1.31118,0.37498 -1.916222,-0.38058 -0.583313,-0.72551 -0.124879,0.93698 -0.91169,0.47987 -1.329181,0.31115 -0.24006,-2.1431 -1.419253,-1.34622 -0.837295,0.0427 0.462151,0.83036 -0.494554,0.74167 -0.643275,0.0956 -1.158163,-0.90297 -1.693707,-0.36764 -1.005115,-0.48996 -0.839347,0.16844 -0.840451,0.91158 z"
     style="fill:#405e0a;fill-opacity:1;stroke:#405e0a;stroke-width:0.264583px;stroke-linecap:butt;stroke-linejoin:miter;stroke-opacity:1"
     id="path424" />
  <path
     d="m 77.135731,27.90171 c 0.46245,-0.0766 0.946679,-0.14838 1.34736,0.14619 0.494916,0.0757 0.995494,0.11426 1.493254,0.16931 0.572738,0.039 0.533345,-0.66423 0.506569,-1.05726 0.08718,-0.50198 -0.46099,-0.75209 -0.83312,-0.45485 -0.188534,0.2446 -0.786289,0.38647 -0.521587,-0.0907 -0.144648,-0.22554 -0.394389,0.27019 -0.516759,-0.11352 -0.346062,-0.62662 -0.72494,0.45439 -1.235182,0.29679 -0.443401,0.0422 -0.541884,-0.34902 -0.380598,-0.68273 -0.166765,-0.15104 -0.427139,0.35913 -0.740843,0.17284 -0.326337,0.0519 -0.497516,-0.52217 -0.720314,-0.13623 -0.376699,0.13009 -0.839774,-0.74479 -0.953071,-0.0421 -0.09716,0.69287 -0.794728,-0.018 -1.236117,0.13823 -0.425327,-0.0278 -0.421453,0.64808 -0.987691,0.57267 -0.216516,-0.0126 -0.656073,-0.0222 -0.418753,0.34077 0.20067,0.13984 0.885246,0.15018 0.825853,0.29068 -0.233127,0.0514 -0.870579,-0.16372 -0.30136,-0.0605 0.768258,0.20161 -0.650226,0.69673 -0.452006,0.49672 0.329029,-0.0884 1.142012,0.28745 0.514023,0.50535 -0.38887,0.17645 -0.52467,-0.47335 -0.08677,-0.26395 0.379076,0.2578 0.881492,0.56009 1.304512,0.19008 0.305335,-0.38967 1.176614,-0.45722 0.914036,0.23417 -0.258676,0.68158 0.594154,0.40073 0.824126,0.0685 0.359997,-0.2313 0.712782,-0.4797 1.102799,-0.66036 0.12045,0.27154 0.395907,0.0274 0.551642,-0.0602 z"
     style="fill:#405e0a;fill-opacity:1;stroke:#405e0a;stroke-width:0.264583px;stroke-linecap:butt;stroke-linejoin:miter;stroke-opacity:1"
     id="path432" />
  <path
     d="m 70.887228,29.04414 c 0.578695,-0.31428 1.264449,-0.18148 1.867543,-0.0421 0.08847,0.56557 -0.662165,0.7745 -1.126531,0.80625 -0.540169,-0.004 -0.882432,1.0241 -0.180296,0.99195 0.534977,-0.29174 0.63821,0.38291 0.218192,0.59443 -0.288996,0.19559 -0.213336,0.53323 0.0076,0.69437 -0.449494,0.0868 -0.835795,0.3652 -1.305688,0.44032 -0.320704,0.14808 -0.858295,-0.33274 -1.003853,0.26729 -0.09924,0.35138 -0.652551,0.5087 -0.859653,0.62551 -0.501061,-0.37808 -1.015996,0.38506 -1.427625,-0.1711 -0.452955,-0.16967 -0.725336,0.55341 -1.238631,0.4931 -0.564349,0.19211 -0.610799,-0.92331 -0.263982,-1.12948 0.426496,-0.0776 1.164696,-0.22777 0.499552,-0.6582 -0.321601,-0.28112 0.373389,-0.39895 0.194102,-0.29743 -0.381591,-0.23681 0.241619,-0.91819 0.271496,-0.62549 -0.556607,0.25332 -0.410817,-0.47849 -0.500446,-0.74343 -0.417344,0.0251 -1.065573,-0.5328 -0.514036,-0.81897 0.378815,-0.0241 0.252091,0.72258 0.0036,0.21305 -0.408682,-0.49533 0.16291,-1.38157 0.630171,-0.67104 0.190202,0.28402 -0.333802,-0.35657 -0.224268,-0.59075 -0.102565,-0.62309 0.623,-0.45678 0.710941,0.0259 -0.637483,-0.0313 -0.217672,-1.36491 0.278527,-0.61966 0.2035,0.34253 -0.129508,0.41126 -0.158759,0.0317 -0.19704,-0.64191 0.64654,-0.66354 0.909841,-0.23647 0.377042,0.13774 0.02786,0.86329 -0.05633,0.33527 -0.01327,-0.53392 0.777322,-0.73988 1.042682,-0.28496 0.338921,0.38093 -0.199163,1.15602 0.155689,1.35031 0.641214,-0.19569 -0.278278,-1.186 0.359714,-1.10929 0.491082,0.50483 0.94581,-0.42644 0.427856,-0.71648 -0.438391,-0.40116 0.183669,-0.41972 0.375853,-0.0907 0.614086,0.16987 -0.509817,-0.4499 0.06963,-0.41796 0.358311,0.0115 0.62489,0.48187 0.345858,0.75658 0.659473,-0.17415 0.837288,0.80213 0.571947,0.91384 0.397208,-0.12417 -0.07862,0.56918 -0.08075,0.68363 z"
     style="fill:#7a913c;fill-opacity:1;stroke:#7a913c;stroke-width:0.264583px;stroke-linecap:butt;stroke-linejoin:miter;stroke-opacity:1"
     id="path440" />
  <path
     d="m 81.412327,28.88886 c 0.150686,0.25984 0.05524,0.66002 -0.248811,0.75739 -0.235971,0.13402 -0.173271,0.4617 -0.04299,0.64939 0.191088,0.25631 0.474847,0.52454 0.419465,0.87521 -0.0093,0.21778 -0.504802,0.32852 -0.23584,0.54903 0.295697,0.10651 0.650373,0.23628 0.946213,0.0637 0.272499,-0.18316 0.340366,-0.52743 0.512811,-0.78731 0.04008,-0.13516 0.113348,-0.52409 0.290784,-0.26353 0.196307,0.25504 0.556317,0.22267 0.71433,-0.0501 0.178178,-0.12387 0.357635,-0.29662 0.405384,-0.48141 0.238685,0.16135 0.553464,-0.0445 0.751349,-0.20143 0.04004,-0.28213 -0.05377,-0.5621 -0.04228,-0.84544 0.03401,-0.22756 -0.172606,-0.52338 -0.02633,-0.69956 0.179039,-0.0854 0.278765,0.16173 0.07767,0.22024 -0.223354,0.20723 -0.529426,-0.005 -0.448115,-0.28511 -0.02837,-0.12894 -0.01949,-0.52889 0.116734,-0.44947 0.02282,0.29078 -0.456387,0.15386 -0.426487,-0.0853 0.01136,-0.13963 -0.102177,-0.35571 -0.203697,-0.13157 -0.168238,0.17681 -0.478665,0.26479 -0.698218,0.14008 -0.203073,-0.0705 -0.137668,-0.50241 -0.32811,-0.46424 -0.02363,0.2624 -0.06203,0.52495 -0.151966,0.77505 3.25e-4,0.12942 -0.119246,0.35956 -0.159462,0.11459 0.03621,-0.13713 -0.165711,-0.23223 -0.08668,-0.0518 0.03978,0.2064 0.01494,0.48676 -0.137086,0.63523 -0.263261,-0.0441 -0.356418,-0.36074 -0.503963,-0.55193 -0.0796,-0.0744 -0.115125,-0.44067 -0.150753,-0.17818 -0.03931,0.25285 -0.101271,0.51588 -0.300516,0.69337 l -0.02193,0.0263 -0.02146,0.0267 z"
     style="fill:#405e0a;fill-opacity:1;stroke:#405e0a;stroke-width:0.264583px;stroke-linecap:butt;stroke-linejoin:miter;stroke-opacity:1"
     id="path448" />
  <path
     d="m 86.305144,31.48429 c 0.428796,-0.24181 1.273137,-0.5606 1.304739,0.22599 0.237769,0.57983 0.996664,0.41802 1.239568,1.01679 0.230486,0.24444 0.68047,0.82079 0.92586,0.23005 0.460732,-0.54246 1.155824,-0.58345 1.569413,0.004 0.460723,-0.13939 0.857755,-0.94423 1.460596,-0.42476 0.451562,0.22473 0.57624,-0.2047 0.702115,-0.49629 0.597436,-0.14975 0.745887,-0.85534 1.407924,-0.93962 0.459019,-0.22347 -0.333861,-0.84655 -0.673315,-0.79262 -0.285295,0.0964 -0.582488,-0.0989 -0.851038,0.0124 -0.348372,-0.23048 0.240922,-0.70034 0.154437,-0.20307 -0.120242,0.57228 -0.849175,0.93218 -0.828315,0.126 -0.01385,-0.25078 -0.07924,-0.7273 0.03709,-0.20624 0.205817,0.48609 -0.348077,1.02646 -0.808926,0.72091 -0.198311,-0.19584 -0.424989,-0.59305 -0.405094,-0.82125 0.283604,0.31867 0.124351,1.07169 -0.355007,1.21866 -0.446905,0.36732 -1.252746,-0.65141 -0.791724,-0.78422 0.342525,0.27441 0.307204,1.13378 -0.24676,0.6678 -0.407415,-0.0945 -0.713682,-1.18142 -0.204105,-1.01756 0.121444,0.59362 -0.276428,-0.0467 -0.187465,-0.29219 -0.2062,-0.25941 -0.694697,0.27454 -0.811647,-0.22427 -0.237015,-0.3785 -0.574519,-0.29646 -0.478103,0.14732 -0.159554,0.53422 0.414043,0.2706 0.213922,-0.0901 -0.203131,-0.88653 -1.225369,0.39627 -0.406586,0.30038 0.192219,-0.82751 -1.635938,-0.57627 -1.106843,0.25353 0.291307,0.16127 -0.400625,-0.41267 -0.604551,-0.20234 -0.467206,0.0508 0.03815,0.6763 -0.491627,0.37439 -0.455599,-0.16828 -1.090954,0.3636 -0.759967,0.81448 0.272016,0.25406 0.688915,0.19286 0.995407,0.38219 z"
     style="fill:#7a913c;fill-opacity:1;stroke:#7a913c;stroke-width:0.264583px;stroke-linecap:butt;stroke-linejoin:miter;stroke-opacity:1"
     id="path456" />
  <path
     d="m 75.003602,34.80067 c 0.495285,0.60834 1.461408,0.47738 1.865243,-0.16636 0.499144,-0.55899 1.347884,-1.13806 2.092308,-0.68495 0.440309,0.30735 0.84094,0.78029 1.440899,0.62634 0.601762,0.0914 0.739844,0.97974 1.434045,0.97365 0.574604,0.0397 1.39639,0.0976 1.62671,-0.57827 0.100486,-0.3222 0.485146,-1.25827 0.08845,-1.25298 -0.336162,0.49296 -0.377509,-0.17474 0.03258,-0.24617 0.191383,-0.42097 -1.224321,9.9e-4 -0.965359,-0.78213 -0.08081,0.50349 -0.675265,0.81995 -0.863198,0.19186 -0.04433,-0.25903 -0.159681,-1.28744 0.184983,-0.95273 -0.08159,0.42736 -1.010033,1.15635 -1.240013,0.41266 -0.307806,-0.52721 0.293298,-1.35343 -0.305895,-1.62125 -0.831232,-0.33682 -0.618008,0.89668 -0.445384,0.95795 -0.506528,-0.0975 -1.118243,-0.62424 -1.545641,-0.43514 0.143438,0.23124 0.671431,0.83619 0.206482,0.30993 -0.376741,-0.5106 -0.760902,-1.13416 -1.397221,-1.33717 -0.0077,0.45202 -0.227423,1.25137 0.11195,1.48171 0.305222,-0.48024 -0.842082,-1.29723 -1.12099,-0.74836 -0.121546,0.43689 0.929127,0.77192 0.172091,0.73441 -0.796286,0.1103 0.302311,0.79647 0.300105,0.74812 -0.476828,0.031 -1.22631,-0.34324 -1.53215,0.007 0.575688,0.37752 -0.874366,-0.0786 -1.08116,0.39519 -0.113558,0.40729 -0.19172,0.27285 -0.590772,0.24011 -0.488482,-0.0292 -0.790035,0.23395 -0.37825,0.63963 0.375684,0.66529 1.126135,1.16945 1.910185,1.08703 z"
     style="fill:#7a913c;fill-opacity:1;stroke:#7a913c;stroke-width:0.264583px;stroke-linecap:butt;stroke-linejoin:miter;stroke-opacity:1"
     id="path464" />
  <path
     d="m 84.088645,33.99274 c -0.874169,0.27446 -0.846825,1.77383 3.2e-5,2.0656 0.381176,0.006 1.302488,-0.39661 1.196331,0.34227 -0.420805,0.52538 0.227901,0.96848 0.712876,0.63616 0.540347,-0.30977 1.26916,0.12953 0.698996,0.6805 -0.458797,0.69345 0.567219,0.32537 0.792968,0.80954 0.366378,0.66423 1.04373,-0.42741 1.35703,0.18696 0.332976,0.67835 0.991351,-0.078 1.473229,0.0817 0.413632,0.28002 0.791623,0.24634 1.188989,-0.0353 0.429654,0.11053 1.348179,0.24837 1.186231,-0.49811 0.03213,-0.32202 -0.45154,-0.74167 0.03629,-0.83748 -0.489507,-0.24003 0.174083,-0.88245 0.21222,-1.04323 -0.328878,0.13035 -0.779371,0.35098 -0.787624,-0.18349 -0.324153,-0.12111 -0.647634,0.61464 -0.442625,0.0371 -0.313408,-0.2492 -0.427638,0.65324 -0.61437,0.91004 -0.226305,0.58591 -0.108662,-0.97819 -0.509199,-0.27643 -0.402748,0.33418 -0.995572,0.34793 -1.501976,0.30221 -0.07737,-0.52019 0.57275,0.33755 0.391704,-0.28548 -0.302369,-0.59494 1.110561,-0.57559 0.788788,-0.40787 -0.314776,-0.0298 -0.837057,-0.48663 -0.218774,-0.47322 0.314344,0.12093 0.607371,-0.2587 0.146285,-0.15887 -0.451591,-0.0428 -0.990171,-0.34564 -1.2312,-0.66372 0.01956,-0.33477 0.781085,0.0499 0.332123,-0.3415 -0.412065,-0.22354 -0.08565,0.11188 0.104526,-0.0978 -0.427347,-0.35759 -1.564233,-0.32718 -1.341254,0.47302 0.03442,0.36322 0.562384,0.45945 0.06959,0.16103 -0.236083,-0.15814 -0.873662,-0.72788 -0.430785,-0.0979 0.103707,0.29905 0.911679,0.72689 0.289729,0.39817 -0.566989,0.0515 -0.609048,-1.3239 -1.063999,-0.92079 -0.127764,0.42798 0.198602,1.03951 0.275828,1.29233 -0.490376,-0.35212 -1.36436,-0.27978 -1.586199,-0.98392 0.07791,-0.5168 0.79501,0.17899 0.192045,-0.0931 -0.567304,-0.33085 0.278135,-0.95051 0.49137,-0.63352 -0.442919,0.27751 -1.021749,-1.05963 -1.07309,-0.27979 -0.09729,-0.41248 -0.583378,-0.95652 -0.904156,-0.97442 -0.169585,0.27511 0.114208,0.71101 -0.231924,0.90946 z"
     style="fill:#7a913c;fill-opacity:1;stroke:#7a913c;stroke-width:0.264583px;stroke-linecap:butt;stroke-linejoin:miter;stroke-opacity:1"
     id="path472" />
  <path
     d="m 72.39081,35.47725 c 0.337791,0.32435 1.208812,0.63522 0.911309,1.20649 -0.425852,0.36961 -1.049317,0.34038 -1.564381,0.51799 -0.614178,0.0511 -1.093101,0.72577 -0.573572,1.22435 0.13277,0.49456 -0.822295,0.41499 -0.840676,1.00664 -0.150212,0.6037 -0.71831,1.04553 -1.338389,0.75698 -0.460481,-0.33014 -0.6371,-0.002 -0.455239,0.44654 -0.197915,0.87339 -0.898007,-0.22023 -1.232708,-0.46621 -0.631831,-0.30448 -0.285952,1.12584 -0.886937,0.45105 -0.476632,-0.47615 -1.229378,-0.73166 -1.219684,0.20887 -0.417924,0.36791 0.816579,0.87928 0.01625,0.75445 -0.491352,-0.0545 -1.806881,0.1473 -1.430842,-0.70094 0.166342,-0.069 -0.324163,-0.82277 0.276642,-0.68219 -0.157464,-0.19826 -0.760966,-0.27327 -0.306195,-0.65275 0.462456,-0.23308 0.45049,0.44828 0.07438,0.0153 -0.833483,-0.37176 -0.262789,-1.48887 0.496326,-1.12062 0.279503,0.17558 0.442947,1.02893 0.633938,0.37 0.260167,-0.008 0.742288,0.62589 0.53034,-0.003 -0.07441,-0.38695 -0.456984,-1.52842 0.261232,-1.05554 0.407725,0.0508 0.731895,0.49262 0.943026,0.65052 0.05854,-0.65318 -0.672521,-1.13165 -0.833698,-1.6479 -0.38033,-0.63142 0.379768,-0.068 0.651258,-0.15152 0.0074,-0.17751 -0.733061,-0.32284 -0.219904,-0.55029 0.403092,-0.21447 0.97193,0.88266 0.659246,0.0937 -0.353062,-0.45386 0.228537,-1.48241 0.675534,-0.80432 0.417206,0.59815 0.394947,-0.0892 0.332231,-0.44784 0.357679,-0.80859 0.580081,0.59437 0.690225,0.92029 0.148596,0.86812 0.0069,-0.34962 0.18462,-0.61858 0.228087,-0.70061 1.092699,0.30757 0.976837,0.70437 -0.125294,0.5261 0.603229,-0.14696 0.665928,-0.42615 0.155423,-0.0777 0.537477,-0.49873 0.216702,-0.22284 0.04511,0.57008 -0.213428,-1.01583 0.379496,-0.51522 0.005,0.44459 0.447982,0.44708 0.291583,-0.0229 -0.104718,-0.52017 0.529485,-1.4829 0.892347,-0.64145 0.484969,0.47343 0.190347,0.86912 0.142769,1.40302 z"
     style="fill:#7a913c;fill-opacity:1;stroke:#7a913c;stroke-width:0.264583px;stroke-linecap:butt;stroke-linejoin:miter;stroke-opacity:1"
     id="path480" />
  <path
     d="m 72.957738,38.72708 c -0.216745,0.47739 -0.752257,0.91234 -0.598203,1.48629 0.133313,0.2605 0.707591,0.66004 0.0899,0.70568 -0.367642,0.15131 -0.831809,0.28901 -1.124757,0.50499 0.206464,0.38164 0.735286,0.63667 1.179538,0.64234 0.539842,0.078 0.888622,-0.42321 1.378715,-0.46114 0.321557,0.14742 0.604061,0.41603 0.861615,0.66737 0.305161,0.43425 0.218164,-0.32649 0.320539,-0.52247 0.16733,-0.31981 0.03184,-1.09012 0.477338,-1.08863 0.554783,0.28257 0.01048,-0.4868 0.310704,-0.70178 0.202724,-0.34401 0.762934,-0.0608 0.929002,-0.43765 -0.202269,-0.29516 -0.219073,-0.80361 0.281775,-0.83004 0.327229,0.0392 0.557891,0.0405 0.252967,-0.29053 -0.201089,-0.23572 -0.191138,-1.03212 -0.651879,-0.60827 -0.32218,0.37476 -0.01956,-0.53855 -0.455166,-0.52967 -0.395502,-0.23651 -0.829702,0.43925 -0.846129,0.49285 0.110292,-0.47853 -0.618993,-0.88564 -0.701933,-0.27043 -0.06375,0.17865 0.104318,0.80489 0.08972,0.61882 -0.466256,0.0939 0.01173,0.94368 -0.59291,0.90179 -0.252096,-0.0723 -0.64756,-0.23048 -0.545017,0.0309 -0.147804,-0.26999 -0.410128,-0.21552 -0.655816,-0.31042 z"
     style="fill:#405e0a;fill-opacity:1;stroke:#405e0a;stroke-width:0.264583px;stroke-linecap:butt;stroke-linejoin:miter;stroke-opacity:1"
     id="path488" />
  <path
     d="m 80.278473,36.97462 c 0.0031,-0.26737 0.555214,-0.81088 0.552704,-0.30461 0.07068,0.2906 -0.04114,0.26625 -0.07522,0.004 -0.06064,-0.36799 0.391861,-0.56186 0.685039,-0.42043 0.235896,0.0296 0.187515,0.61794 0.434174,0.31924 0.08254,-0.24771 0.132893,-0.69702 0.462729,-0.70388 0.5037,0.0782 0.127479,0.83866 0.620331,0.82429 0.491743,-0.17087 0.818878,0.35344 1.122411,0.59953 0.21107,-0.25342 0.605814,-0.24353 0.778448,0.0463 -0.482004,0.0984 -0.01612,0.71504 -0.383321,0.9633 -0.32429,0.17328 -0.729088,0.13784 -1.082205,0.25374 -0.3811,0.0816 -0.666523,-0.38542 -1.046795,-0.2255 -0.346567,0.21545 -0.07919,0.71431 -0.378079,0.96584 -0.352824,0.37392 -0.871328,0.54359 -1.366042,0.62752 -0.343396,0.0652 -0.31966,-0.45209 -0.694265,-0.32539 -0.404536,0.11079 -0.494136,-0.37691 -0.418974,-0.66879 0.148438,-0.2563 0.546113,-0.22309 0.799241,-0.34023 0.289587,-0.23202 -0.01214,-0.64594 -0.156641,-0.88531 -0.146503,-0.27689 -0.727682,-0.16092 -0.706573,-0.46621 0.308073,-0.003 0.580913,-0.11872 0.853035,-0.26354 z"
     style="fill:#405e0a;fill-opacity:1;stroke:#405e0a;stroke-width:0.264583px;stroke-linecap:butt;stroke-linejoin:miter;stroke-opacity:1"
     id="path496" />
  <path
     d="m 85.085021,39.7475 c 0.430797,-0.55502 1.338377,-0.5848 1.756405,-0.0112 0.466682,0.0838 1.210764,0.0709 0.943707,0.76646 0.37752,0.37956 1.072086,0.13549 1.588354,0.16254 1.014816,-0.29297 0.261675,1.13059 0.941794,1.35468 0.377447,-0.0629 0.658784,0.86424 0.744178,0.34386 -0.342995,-0.36266 -0.198835,-1.24321 0.372204,-0.66447 0.484335,0.0826 1.171156,0.3112 1.49018,0.41655 -0.2902,-0.22674 -0.18437,-1.12001 -0.565542,-1.01879 0.251856,-0.14667 0.398377,-0.2541 0.606417,0.0171 0.31607,-0.18424 0.814796,-0.3446 0.673541,0.24541 0.05303,0.76195 0.867886,-0.3528 1.16346,0.47397 0.329288,0.46295 0.372129,-0.28589 0.865128,-0.2215 0.472916,-0.50568 -0.354172,-1.34556 -0.767425,-1.36445 0.215584,-0.44573 -0.674642,0.59151 -0.339355,-0.086 0.210245,-0.16393 0.688126,-0.57729 0.36722,-0.3634 0.05878,-0.59728 0.04005,-1.25049 0.175214,-1.82866 -0.18027,-0.42476 -0.261265,0.17115 -0.08319,0.36241 0.102793,0.36809 -0.489341,1.36759 -0.445106,0.47595 -0.06178,-0.75702 -1.09939,0.22211 -1.488575,-0.15867 -0.721727,-0.22564 -0.537168,0.66945 -0.539694,1.01918 -0.318026,-0.71514 -1.220103,0.69755 -1.37262,-0.0851 0.03536,-0.19663 -0.541541,0.50404 -0.827868,0.11936 -0.62663,-0.24111 0.349641,-1.21768 0.226966,-0.47197 -0.548854,0.22216 -1.039625,-0.83405 -0.556567,-0.98701 0.206218,0.56512 -0.32819,-0.14418 -0.463714,-0.30725 -0.620254,-0.2606 -0.356894,1.22065 -0.171301,0.92367 -0.536186,-0.35443 -0.466611,0.94549 -1.119711,0.38887 -0.322756,-0.43752 -1.367135,-0.0189 -1.015942,-0.78258 0.22884,-0.63314 -0.555602,-1.09361 -0.963278,-1.46622 -0.799445,-0.14922 -0.479939,1.03121 -0.129907,1.36261 0.09373,0.47167 -0.827376,-0.0346 -0.854761,0.42812 -0.549357,0.12629 -0.677346,0.63478 -0.210208,0.95652 z"
     style="fill:#405e0a;fill-opacity:1;stroke:#405e0a;stroke-width:0.264583px;stroke-linecap:butt;stroke-linejoin:miter;stroke-opacity:1"
     id="path504" />
  <path
     d="m 84.283926,44.60561 c -0.03602,0.62014 -0.170644,1.43306 0.369807,1.87402 0.653188,0.32226 1.116491,-0.48578 1.729005,-0.46057 0.64609,0.31855 1.35425,-0.12441 1.944079,0.1362 0.01088,0.36112 -0.61309,1.22648 0.22087,1.11618 0.629505,-0.46303 1.181688,0.24016 0.837606,0.84505 -0.161227,0.64959 0.86595,0.80931 0.439345,1.51288 -0.03548,0.65615 0.97056,0.80243 1.47331,0.68856 0.382365,-0.28556 1.223335,-0.78369 0.345767,-0.94766 -0.534738,-0.23793 -0.106849,-0.64777 -0.08218,-0.94931 -0.0527,-0.38149 0.05833,-0.33061 -0.380195,-0.37208 -0.656533,-0.38097 0.446972,-0.77011 0.683779,-0.26921 0.578929,-0.0628 0.706486,0.53392 1.147141,0.72532 0.653297,-0.76693 0.889914,0.69368 1.376144,0.54716 -0.01943,-0.2448 -0.03191,-0.87302 -0.06489,-0.59231 -0.399458,-0.39095 -0.853236,-0.75303 -0.815787,-1.3767 -0.666113,0.53474 -0.32023,-0.98678 -0.19939,-0.69675 -0.492627,0.0353 -0.105619,-1.261 0.474389,-1.03706 -0.671761,0.68455 -1.092843,-0.85895 -0.343242,-0.90962 -0.02337,0.82559 -0.749971,-0.22533 -0.332587,-0.54249 -0.264359,-0.23713 -1.066744,0.22914 -0.911972,-0.47545 0.04474,-0.38985 -0.284258,-0.77057 -0.395009,-0.22248 -0.4841,0.57247 -1.434279,0.74119 -2.083939,0.36757 -0.486187,-0.28114 0.06388,-0.48025 0.09111,0.0246 -0.223355,0.86249 -1.043952,-0.17325 -0.942207,-0.67511 -0.177909,-0.0558 -0.534713,-0.16448 -0.65259,-0.52366 -0.646126,-0.55921 -0.373549,0.83318 -0.621154,1.16245 -0.201273,0.31103 -0.537464,0.43768 -0.776143,0.80665 -0.324222,0.46079 -0.690005,-0.17148 -0.858825,-0.11515 0.0047,0.2126 0.477701,0.55475 -0.06051,0.36271 -0.593586,-0.36439 -1.041099,0.59689 -1.611734,-0.004 z"
     style="fill:#405e0a;fill-opacity:1;stroke:#405e0a;stroke-width:0.264583px;stroke-linecap:butt;stroke-linejoin:miter;stroke-opacity:1"
     id="path526" />
  <path
     d="m 71.084417,44.72762 c 0.03077,0.6694 -0.557583,1.19792 -1.11671,1.45679 -0.424266,0.13013 -1.270802,-0.29493 -1.004116,0.46778 0.250189,0.99874 -1.212421,-0.0871 -1.352164,0.70435 -0.196393,0.42268 0.168561,1.1612 -0.582017,1.17051 -0.63154,0.0737 -0.850197,0.62673 -0.87418,1.17497 -0.802737,0.52255 -1.8694,0.68972 -2.799063,0.42654 -0.456333,-0.30278 0.655297,-0.12617 0.827136,-0.29071 0.614704,-0.36733 -0.870486,-0.87758 -0.05862,-1.29594 0.112571,-0.34272 1.057507,-0.23274 0.522181,-0.0718 -0.672873,-0.11844 -0.06761,-1.08907 0.329361,-0.6083 -0.310454,0.33536 -1.401049,-0.1052 -1.079492,-0.59817 0.496754,0.11478 -0.659789,0.10586 -0.863079,-0.0493 -0.504488,-0.11546 -0.574262,-0.66539 0.02012,-0.60642 0.194287,-0.0557 1.238661,-0.26727 0.739806,-0.31046 -0.457198,0.28053 -0.05447,-0.28212 0.229987,-0.0276 0.248627,0.0119 1.056801,0.62461 0.81778,0.073 -0.809266,0.11157 -1.174774,-0.64758 -1.583835,-1.21621 0.29025,-0.59502 1.203702,0.60719 1.095053,-0.0675 0.301787,-0.13698 1.51299,0.59084 0.862298,-0.13396 -0.377028,-0.24451 -0.34436,-0.87715 0.176095,-0.51932 0.330492,0.23342 0.679215,0.21649 0.300272,-0.2163 -0.400652,-0.55292 0.248262,-1.54012 0.657725,-0.61753 0.175174,0.27877 0.280469,0.72808 0.378784,0.17772 0.464271,-0.62402 0.728016,1.06097 0.843018,0.21921 -0.143104,-0.50231 0.04911,-1.47336 0.741542,-1.27145 0.450264,0.18846 0.128186,1.5382 0.759135,0.91209 0.439679,-0.6551 0.467906,0.33351 0.273636,0.64255 0.201755,0.632 0.564881,-0.42778 0.382938,-0.72162 0.08533,-0.609 0.990683,0.91671 1.013376,-0.001 0.05479,-0.18236 0.324772,-0.8899 0.232758,-0.41126 0.640097,0.29426 0.363573,-0.58636 0.306566,-0.85378 0.02317,0.54031 -0.02485,1.15455 0.555124,1.39908 -0.07952,0.43284 -0.533569,0.69726 -0.751415,1.06459 z"
     style="fill:#7a913c;fill-opacity:1;stroke:#7a913c;stroke-width:0.264583px;stroke-linecap:butt;stroke-linejoin:miter;stroke-opacity:1"
     id="path548" />
  <path
     d="m 73.845098,49.81865 c 0.0787,0.99149 -0.673771,1.7503 -1.452343,2.20013 -0.04541,0.85865 -0.942328,0.94268 -1.503319,0.43502 -0.243846,0.17549 -0.463846,0.80068 -1.008812,0.65362 -0.538994,0.29247 -0.791446,0.96433 -1.428202,1.15424 -0.669274,0.41452 -1.436722,-0.01 -2.145552,0.22353 -0.281035,0.16552 -1.257279,0.0693 -0.552948,-0.17981 0.788908,0.30109 -0.334335,1.09023 -0.456708,0.16958 -0.242599,-0.30132 0.142767,-0.76512 0.314181,-0.34588 -0.646029,0.23327 -0.138786,-1.10906 -0.0035,-0.81383 -0.652386,0.0772 -0.207306,-1.14178 -0.0057,-0.65995 -0.67064,0.1323 -1.677709,-0.27139 -1.977021,-0.68472 0.55303,0.0365 1.094055,-0.19237 1.599007,-0.27997 -0.579073,0.2315 -0.95736,-0.57693 -0.192945,-0.54409 0.448847,-0.19051 1.572187,0.3953 1.504498,0.48378 -0.268537,-0.63592 0.434061,-0.62709 0.686285,-0.23151 -0.08608,-0.81113 1.070468,0.44493 0.61913,-0.38235 -0.275562,-0.54592 0.367374,-0.67796 0.616239,-0.27346 0.293403,-0.34054 -0.304158,-1.70993 0.65214,-1.31272 0.418798,-0.008 0.698877,0.89465 0.807626,0.20845 0.698623,0.21071 0.309381,-0.84669 0.35052,-0.85468 0.429394,0.19087 1.309985,1.16726 1.475695,0.3106 0.05767,-0.2355 -0.226857,-1.11729 0.217545,-0.66216 0.447014,-0.53142 1.162962,-0.73956 1.226179,0.15311 0.26842,0.62271 0.740178,-0.63338 1.008034,0.10501 0.329307,0.33159 0.491453,1.02028 -0.169782,1.14186 -0.0044,0.0842 -0.179647,-0.0747 -0.180218,-0.0138 z"
     style="fill:#405e0a;fill-opacity:1;stroke:#405e0a;stroke-width:0.264583px;stroke-linecap:butt;stroke-linejoin:miter;stroke-opacity:1"
     id="path556" />
  <path
     d="m 77.493141,46.82393 c -0.524646,-0.037 -0.725328,0.55801 -1.132447,0.76761 -0.115005,0.15774 -0.491954,0.16445 -0.166393,0.0899 0.328204,0.0116 0.816085,0.33859 0.62655,0.7036 -0.144604,0.2642 -0.956222,-0.0269 -0.580055,0.3381 0.19914,0.46178 -0.505565,0.66295 -0.831546,0.79918 -0.172838,0.20346 -0.869539,-0.11206 -0.687106,0.2697 0.334327,0.10682 0.868638,-0.26353 1.034828,0.21903 -0.225726,0.22412 -0.803596,0.49828 -1.059583,0.18948 -0.134441,-0.46924 0.48924,-0.54323 0.760694,-0.29109 0.318138,0.12471 0.615774,0.54557 0.151463,0.70613 -0.306253,0.11032 -0.257294,0.39683 0.06036,0.35092 0.225347,0.19696 0.457368,0.6546 0.801283,0.34156 0.260823,0.0805 -0.173112,0.4436 -0.03318,0.10916 -0.105628,-0.41112 -0.165503,0.38294 0.177671,0.28751 0.342699,-0.007 0.720767,-0.0152 1.025444,-0.18925 0.300821,-0.27226 0.199224,-0.75525 0.476751,-1.0495 0.288365,-0.43371 0.51602,-0.90652 0.746903,-1.36875 0.21403,-0.13576 0.242898,-0.32423 -0.03388,-0.33734 -0.231618,-0.31055 -0.07872,-0.7806 0.181088,-1.03511 0.149437,-0.20441 0.429162,-0.53984 0.310689,-0.76777 -0.137751,0.15506 -0.296544,0.39716 -0.383627,0.13601 -0.492204,0.0985 -0.346955,-0.43414 -0.485258,-0.67364 -0.333408,0.0759 -0.626217,0.30595 -0.960669,0.40518 z"
     style="fill:#405e0a;fill-opacity:1;stroke:#405e0a;stroke-width:0.264583px;stroke-linecap:butt;stroke-linejoin:miter;stroke-opacity:1"
     id="path564" />
  <path
     d="m 72.785193,51.94823 c -0.05665,0.53011 0.443779,1.23845 1.02169,0.99002 0.173676,-0.16681 0.599756,-0.21603 0.35418,0.12792 -0.133013,0.37878 0.04403,1.2107 -0.605068,1.01832 -0.39775,-0.12701 -0.770927,0.23445 -0.770051,0.6271 0.01227,0.32814 -0.184562,0.78559 0.269849,0.81324 -0.06003,0.26073 -0.96029,0.53981 -0.401456,0.82038 0.466619,-0.0275 0.524527,0.68147 0.07166,0.77203 -0.43395,0.14458 -0.873747,0.30118 -1.269989,0.51196 -0.03042,-0.17629 0.292749,-0.69549 0.01913,-0.41146 -0.339446,0.0383 -1.039066,0.11108 -0.999358,-0.38812 0.517532,0.12122 -0.09146,0.7331 -0.411615,0.45155 -0.300821,-0.19333 0.06089,-0.99496 -0.451552,-0.69134 -0.323867,-0.26146 -0.204317,-1.0887 0.319441,-0.89896 0.263663,0.30034 0.717044,0.6456 0.910084,0.0919 0.394933,-0.44242 0.55749,0.5896 0.896959,0.0888 -0.0984,-0.21241 -0.328945,-0.45401 -0.480265,-0.66944 -0.318515,-0.14623 -0.773696,0.11712 -0.958847,-0.30845 -0.199212,-0.19473 -0.1464,-0.84892 -0.515414,-0.4858 -0.503927,0.12794 -0.782016,-0.3858 -0.412362,-0.73162 0.111117,-0.39758 0.509028,-0.82717 0.954703,-0.62271 0.299343,0.2937 0.701252,0.0976 0.475195,-0.31493 0.03285,-0.32835 -0.152916,-0.62526 -0.241519,-0.89528 0.37424,-0.0324 0.738789,-0.12931 1.098336,-0.25781 0.377068,-0.0412 0.622261,0.42783 1.004878,0.31252 0.399827,0.13537 -0.191194,0.93743 0.465369,0.8078 -0.276711,-0.11498 -0.235169,-0.48613 -0.343977,-0.75761 z"
     style="fill:#7a913c;fill-opacity:1;stroke:#7a913c;stroke-width:0.264583px;stroke-linecap:butt;stroke-linejoin:miter;stroke-opacity:1"
     id="path572" />
  <path
     d="m 83.495164,48.58749 c 0.152118,-0.18449 0.304041,-0.39752 0.527814,-0.4961 0.221239,-0.008 0.179732,0.27463 0.303668,0.39038 0.12771,0.12427 0.296752,-0.0172 0.416376,-0.0842 0.210349,-0.13637 0.435627,-0.30969 0.700112,-0.28877 0.168161,0.0117 0.142399,0.19949 0.200302,0.28521 0.144112,-0.084 0.276701,-0.21406 0.445975,-0.26132 0.140788,0.0966 0.03683,0.33291 0.05538,0.49163 -0.02772,0.2117 -0.06001,0.42687 -0.130471,0.62854 -0.08416,0.18099 -0.308582,0.18529 -0.478513,0.21448 -0.08227,0.0479 -0.382941,-0.0985 -0.311463,0.0587 0.223582,0.11267 -0.0056,0.303 -0.1726,0.23613 -0.443442,-0.0263 -0.890434,-0.0919 -1.308176,-0.24575 -0.123997,-0.11708 -0.09156,-0.31566 -0.152885,-0.46522 -0.03175,-0.15456 -0.0548,-0.31103 -0.09552,-0.46365 z"
     style="fill:#405e0a;fill-opacity:1;stroke:#405e0a;stroke-width:0.264583px;stroke-linecap:butt;stroke-linejoin:miter;stroke-opacity:1"
     id="path588" />
  <path
     d="m 86.502333,50.56179 c 0.238683,0.43674 -0.206227,0.82775 -0.431422,1.15743 -0.399671,0.52055 0.920801,0.66839 0.16795,1.02449 -0.33124,0.22364 -0.809122,0.20588 -1.070899,0.52483 0.01876,0.4726 0.464717,1.04888 0.980666,0.80177 0.501697,-0.18031 0.583412,-0.85583 1.112069,-0.9798 0.264893,0.03 0.960156,-0.63742 0.770752,-0.0552 -0.167649,0.32196 -0.486525,0.84954 -0.382773,1.12006 0.75176,-0.016 -0.04254,0.59571 -0.358716,0.66439 -0.29313,0.0188 -1.003252,0.57488 -0.478915,0.66838 0.308392,0.30657 0.844435,0.0794 1.278752,0.0866 0.455786,0.0705 0.657253,-0.37512 0.971953,-0.5965 0.212497,-0.20387 0.747475,-0.0978 0.635543,0.0623 0.248195,-0.21166 0.897025,0.06 0.651416,0.33255 -0.366264,-0.45033 0.518015,-0.72161 0.494075,-0.0877 -0.214541,0.11232 -0.07653,-0.9567 0.280059,-0.55007 -0.418663,-0.22712 -0.24141,-0.8417 -0.02902,-1.18934 0.07884,-0.56474 0.959228,-0.0155 0.391105,0.12607 -0.689699,-0.24872 0.227487,-1.15147 0.630045,-0.71404 -0.08145,0.36777 -0.411689,-0.4173 -0.126282,-0.58118 -0.05032,-0.21995 0.52451,-0.49282 0.317521,-0.21021 -0.658652,-0.0178 -0.666384,-0.65544 -0.659724,-1.1245 -0.151615,0.44048 -0.581175,-0.0114 -0.457045,-0.31282 -0.12396,-0.19197 -0.07775,-0.40613 0.02237,-0.0829 -0.09272,0.63176 -0.923015,0.0319 -0.447897,-0.32144 0.270167,0.34514 -0.46231,0.81037 -0.717867,0.39867 -0.251059,0.004 -0.276783,0.88303 -0.431284,0.26015 -0.208523,-0.14637 -0.025,-0.71889 -0.01507,-0.29403 -0.05906,0.68757 -0.8135,0.33386 -0.802162,-0.18984 -0.0254,-0.57416 -0.618398,-0.66017 -1.039284,-0.4229 -0.490053,0.0324 -0.680522,0.48375 -1.029547,0.72155 -0.148911,0.0539 -0.268278,-0.0981 -0.226364,-0.23678 z"
     style="fill:#405e0a;fill-opacity:1;stroke:#405e0a;stroke-width:0.264583px;stroke-linecap:butt;stroke-linejoin:miter;stroke-opacity:1"
     id="path596" />
</svg>
