<?xml version="1.0" encoding="UTF-8" standalone="no"?>
<svg
   xmlns:dc="http://purl.org/dc/elements/1.1/"
   xmlns:cc="http://creativecommons.org/ns#"
   xmlns:rdf="http://www.w3.org/1999/02/22-rdf-syntax-ns#"
   xmlns:svg="http://www.w3.org/2000/svg"
   xmlns="http://www.w3.org/2000/svg"
   xmlns:sodipodi="http://sodipodi.sourceforge.net/DTD/sodipodi-0.dtd"
   xmlns:inkscape="http://www.inkscape.org/namespaces/inkscape"
   id="svg8"
   version="1.1"
   viewBox="0 0 158.75 79.375"
   height="300"
   width="600"
   sodipodi:docname="ol-forest-willow.svg"
   inkscape:version="1.0.1 (3bc2e813f5, 2020-09-07)">
  <sodipodi:namedview
     pagecolor="#ffffff"
     bordercolor="#666666"
     borderopacity="1"
     objecttolerance="10"
     gridtolerance="10"
     guidetolerance="10"
     inkscape:pageopacity="0"
     inkscape:pageshadow="2"
     inkscape:window-width="1920"
     inkscape:window-height="1061"
     id="namedview25"
     showgrid="false"
     inkscape:zoom="2.8"
     inkscape:cx="300"
     inkscape:cy="150"
     inkscape:window-x="0"
     inkscape:window-y="19"
     inkscape:window-maximized="0"
     inkscape:current-layer="svg8" />
  <defs
     id="defs2" />
  <metadata
     id="metadata5">
    <rdf:RDF>
      <cc:Work
         rdf:about="">
        <dc:format>image/svg+xml</dc:format>
        <dc:type
           rdf:resource="http://purl.org/dc/dcmitype/StillImage" />
        <dc:title></dc:title>
      </cc:Work>
    </rdf:RDF>
  </metadata>
  <path
     d="m 73.12004,17.27436 c 2.697264,6.06072 1.650662,13.00551 3.975042,19.13355 0.644791,-5.3199 2.682154,-10.31506 3.292843,-15.6376 0.411326,-1.85571 1.624597,-6.51176 0.854176,-2.02977 -0.09727,3.41447 -0.753799,6.71104 -1.682162,9.97039 0.141167,1.7754 -2.165994,8.67238 0.623907,4.30747 1.576149,-4.05724 6.980002,-6.71156 6.712516,-11.37346 0.71197,-3.74774 1.51041,-0.35745 -0.02666,1.38695 -1.258688,5.27441 -6.181758,8.62101 -7.466712,13.85752 -0.929645,1.6841 -1.95117,4.35955 0.03781,1.51288 3.53334,-2.59559 4.82782,-7.06878 4.117774,-11.29081 -0.504836,-3.83343 0.605223,3.46403 1.274954,4.55589 2.071709,-0.40668 3.144478,-5.76103 5.649773,-7.25289 0.56471,-1.0363 1.41149,-5.26313 0.792124,-1.81907 -1.178444,4.60395 -4.549837,8.06053 -6.559535,12.2163 -0.583859,1.42204 -3.223907,5.78601 -0.311104,3.99907 0.07757,-5.1293 5.127482,-7.74432 7.234647,-12.02182 4.043897,-3.98766 3.06203,3.64956 -0.994559,3.26036 -3.077058,1.96599 -3.387817,6.43164 -6.533875,8.50776 -3.452564,0.41531 -6.155506,3.1321 -6.854181,6.48992 -1.215306,4.41191 -2.691899,9.66874 0.395619,13.62449 1.765148,-3.87166 4.878126,-7.8821 3.161094,-12.42301 -0.08445,-2.19405 -0.860293,-7.98995 -0.294628,-7.6351 0.06894,3.25424 1.312207,6.4917 1.658218,9.80421 2.84639,-1.18885 3.836367,-7.79614 6.852879,-10.58299 2.299564,-1.24511 1.203085,-4.98225 3.083307,-5.49534 -0.356231,4.58674 -4.753987,7.89182 -6.196481,12.25618 -1.159963,2.04071 -3.653065,5.56282 -0.150603,2.72962 3.183481,-2.02359 7.645921,-1.57532 10.34096,1.0447 -3.444197,-2.3761 -7.838755,-1.73759 -10.757713,1.14991 -3.964444,3.44834 -5.445549,8.78241 -7.101696,13.57274 4.527423,0.84827 8.716087,-2.97205 11.019544,-6.70936 1.008052,-1.95863 -1.42938,-4.6997 -0.340657,-5.82791 -0.361731,4.88239 2.886814,7.66718 7.116994,4.75873 2.350947,0.48771 5.950105,-4.68341 6.128895,-1.3709 4.86304,-1.75193 -2.448973,1.20523 -4.10351,1.89261 -4.846065,0.74749 -9.411949,3.12487 -13.000843,6.38593 -2.474871,2.09975 -6.871931,0.45857 -8.324467,3.87232 -1.975672,3.0993 -1.921042,7.17631 -2.229686,10.0665 -4.70186,1.91669 0.20832,-4.41473 -1.938234,-6.66561 -1.170639,-3.12902 -0.478215,-6.66756 -2.521844,-9.52498 -1.860738,-3.89934 -2.778657,-8.19673 -4.56288,-12.11465 -1.509731,-3.22758 -0.458444,-7.33541 -2.951127,-10.07777 -2.401975,-3.61306 -7.419496,0.64812 -8.440129,0.61686 1.050877,-4.05557 8.406054,-1.30745 7.39443,-6.00066 -0.491128,-2.89084 -0.382876,-5.77096 -2.251039,-8.22394 2.50603,3.07042 2.644753,7.30994 4.325163,10.68652 -0.139481,-3.41591 2.068525,-6.78693 2.941103,-10.17258 1.300793,-1.5002 0.961472,-8.72173 3.598142,-5.25483 -1.325645,3.44814 -4.592559,6.19484 -4.417243,10.38947 -0.454727,4.79218 -1.550475,9.80713 0.727353,14.3466 2.370299,5.8699 3.781144,12.08352 6.583631,17.78575 0.505461,2.03842 0.689401,3.45614 1.251028,0.68942 1.05332,-4.73189 0.553222,-9.59451 1.00179,-14.3714 1.312686,-3.29283 0.406011,-6.83273 -1.021188,-9.92015 -0.113488,-3.71986 -2.74895,-9.07312 -3.019833,-11.39844 1.573513,3.46034 2.689945,7.08091 3.851564,10.72989 0.203923,2.75858 1.804856,2.75885 1.673865,-0.21955 -1.391996,-3.17373 -1.929527,-6.88954 -2.496153,-10.40643 0.252858,-3.31742 -1.21059,-6.50949 -1.122407,-9.77949 z"
     style="fill:#212516;fill-opacity:1;stroke:#212516;stroke-width:0.264583px;stroke-linecap:butt;stroke-linejoin:miter;stroke-opacity:1"
     id="path158" />
  <path
     d="m 92.0874,17.13017 c 0.420338,-1.45472 2.719322,-1.07757 2.889097,-2.7739 0.769715,-1.69975 1.874024,-3.27301 3.223272,-4.56087 1.229191,-0.99584 2.462091,1.0225 2.877291,1.99851 -0.15141,1.37628 0.54042,2.5775 1.93095,2.89503 1.62327,0.77212 1.67313,2.83939 1.65876,4.39711 -0.0945,2.18979 0.53135,4.34199 0.32831,6.53721 -0.11082,2.00221 -0.4446,3.98723 -0.75791,5.96396 -0.33057,1.20719 -0.96389,-1.16258 -1.14655,-1.62581 -0.5194,-0.63179 -0.59908,-2.08624 -0.95609,-2.32356 0.52052,0.66909 0.5504,2.96018 -0.0898,1.23136 -0.0162,-1.00138 -1.43284,-1.3268 -1.1233,-0.0321 0.10086,0.85337 0.46089,2.4302 -0.23096,2.91724 -0.733419,-0.74066 0.55417,-2.28368 -0.59091,-3.07107 -0.457495,-1.50496 -0.67356,0.28572 -0.476678,0.89208 -0.43002,-0.85554 -0.01291,-2.61141 0.186402,-3.77502 0.212736,-1.67715 -1.101397,-3.30165 -0.337729,-4.9634 0.631005,-0.98713 0.439698,-3.60857 -1.152247,-2.96236 -0.547452,1.31271 -1.588856,2.79952 -3.225977,2.6411 -1.534376,-0.54818 -1.487167,1.81718 -2.717388,1.92946 -2.26489,-0.12922 -2.91746,-3.67435 -1.034224,-4.80136 0.276466,-0.12547 0.518081,-0.3157 0.745652,-0.51364 z"
     style="fill:#7a944d;fill-opacity:1;stroke:#7a944d;stroke-width:0.264583px;stroke-linecap:butt;stroke-linejoin:miter;stroke-opacity:1"
     id="path166" />
  <path
     d="m 102.87131,32.61401 c 0.56274,-1.72829 2.19836,-2.8462 3.78351,-3.55076 1.17044,-0.30041 2.48103,-0.98875 3.63977,-0.27971 1.31522,0.46021 1.23986,1.97525 1.16487,3.11302 0.15149,1.55428 1.14562,3.18305 0.31639,4.71102 -1.13939,2.33993 -0.57054,5.00451 -0.13979,7.44311 0.13613,0.88488 -0.37189,2.07776 -0.11449,2.70629 -1.08171,-2.03461 -1.17385,-4.42491 -1.43724,-6.67375 0.16412,-0.50565 -0.22011,-1.94818 -0.72041,-0.99573 0.32382,0.9109 0.76169,1.78203 0.43506,2.78961 -0.11936,1.22987 -0.0534,2.47733 0.12372,3.69085 -0.27425,0.73073 -0.66243,1.47913 -0.29841,2.1969 -0.57506,0.10875 -0.56366,-1.48446 -0.82684,-2.07302 -0.2679,-1.18772 -0.24344,-2.42401 -0.58332,-3.58918 0.006,-0.71517 -0.0609,-0.84709 -0.17202,-0.0453 0.1805,0.74767 -0.56032,2.93179 -1.16447,1.35292 -0.79389,-0.79348 -0.0724,2.00255 -0.17589,1.41381 -0.18755,-1.27017 -0.0815,-2.5789 -0.38337,-3.83988 -0.70402,-1.28616 0.21143,-2.56455 0.22797,-3.86771 0.32771,-0.75977 0.25241,-2.56633 -1.03999,-1.92569 -0.79498,0.52976 -2.0214,1.66222 -2.8423,0.54813 -0.6755,-0.90186 -1.24483,-2.61016 0.20725,-3.12488 z"
     style="fill:#849e64;fill-opacity:1;stroke:#849e64;stroke-width:0.264583px;stroke-linecap:butt;stroke-linejoin:miter;stroke-opacity:1"
     id="path174" />
  <path
     d="m 100.38312,43.64735 c 1.32328,-1.59705 3.73935,-2.95596 5.73919,-1.79101 1.82364,0.50802 2.43686,-2.92961 4.34124,-1.74253 1.33725,1.74171 1.69018,4.063 2.53622,6.06933 0.64625,1.72047 0.70229,3.60455 0.84335,5.41372 -0.282,3.4554 0.3819,6.87163 0.49872,10.31441 -0.0218,0.6054 0.0858,1.84673 -0.19633,0.55392 -1.00242,-2.44812 -1.94717,-5.18415 -1.0962,-7.82305 0.20728,-0.80093 -0.0446,-3.2583 -0.82725,-2.80501 0.33894,1.69638 0.16609,3.2344 -0.77861,4.72005 -0.27441,2.29397 0.15323,4.60387 -0.0557,6.8938 -0.209,0.57937 -0.34256,-1.89371 -0.63994,-2.49624 -0.54626,-1.98186 -0.81063,-4.15274 0.0763,-6.08201 0.58006,-1.42788 -0.10284,-3.0113 -0.64185,-4.29183 0.0659,1.7322 -0.37671,3.43864 -0.5307,5.15883 -0.51147,2.93113 -0.50186,5.9378 0.13956,8.8476 0.36268,0.95446 -0.24614,3.03761 -0.90384,2.90974 -0.53316,-1.66888 -0.0239,-3.5261 -0.93699,-5.11568 -0.34595,-1.53978 -0.84931,-3.35448 0.12441,-4.76796 0.89619,-1.73427 -0.15492,-3.7071 -1.07333,-5.20851 -0.93334,-1.64164 1.59056,-2.94343 0.80006,-4.56123 -1.13514,-1.73216 -2.9773,0.55832 -4.55013,0.22725 -1.60764,0.23612 -3.346713,-0.95294 -3.276379,-2.66761 0.0046,-0.60777 0.268209,-1.17276 0.408169,-1.75598 z"
     style="fill:#7a944d;fill-opacity:1;stroke:#7a944d;stroke-width:0.264583px;stroke-linecap:butt;stroke-linejoin:miter;stroke-opacity:1"
     id="path182" />
  <path
     d="m 83.53422,16.95271 c -0.982019,-1.30759 -0.176371,-2.99328 0.560628,-4.20369 0.611486,-1.10134 2.164865,-0.14729 2.730621,-1.22592 0.403437,-0.94255 0.0913,-2.22514 1.101212,-2.87482 1.032739,-0.42438 2.509817,0.88774 2.782463,-0.8609 1.113608,-0.83768 1.913779,0.67005 2.894106,0.9237 1.309934,0.37024 1.915656,1.79196 2.506097,2.89949 0.473637,1.22648 0.09837,2.70023 0.992841,3.78643 1.092126,1.50133 1.005472,3.43788 0.768993,5.18396 -0.251456,1.52195 0.529915,2.98775 0.30096,4.48567 -0.804877,1.54381 -1.392452,-1.01579 -1.197079,-1.77825 0.03617,-1.33966 0.231402,-2.81068 -0.539893,-3.99398 -0.463462,-1.63332 -0.388745,0.82228 -0.472722,1.35333 -0.244349,1.58489 0.08761,3.25117 -0.621763,4.75075 -0.15099,0.44371 -0.528427,2.75995 -1.046677,1.46061 -0.179961,-1.42132 -0.778175,-2.78852 -0.521868,-4.24796 0.119952,-1.36008 -0.73024,-2.87959 -0.749737,-3.99005 0.06906,1.24471 -0.291126,2.45309 -0.417778,3.67579 0.105344,1.30938 -0.07438,2.60279 -0.367705,3.86143 -0.78556,-1.38 -0.50723,-3.41916 -0.999753,-5.02644 0.346897,-1.21416 -0.521368,-2.34339 -0.327638,-3.50981 0.453074,-0.67192 0.121263,-1.86405 -0.656744,-0.88655 -0.728806,1.19299 -0.307723,2.66314 -0.574983,3.97136 -1.09546,1.6084 -2.404991,-0.64596 -3.605629,-0.98087 -1.196615,-0.10682 -2.208308,-0.72313 -1.755642,-2.06244 -0.02359,-0.45705 -0.44837,-0.54842 -0.78231,-0.71084 z"
     style="fill:#849e64;fill-opacity:1;stroke:#849e64;stroke-width:0.264583px;stroke-linecap:butt;stroke-linejoin:miter;stroke-opacity:1"
     id="path190" />
  <path
     d="m 86.405819,31.38284 c 1.074157,-1.00529 1.454444,-2.5343 2.571297,-3.50906 0.742463,-0.91747 1.678622,-1.89946 2.955248,-1.87157 1.5603,-0.0238 2.960322,0.79803 4.317118,1.46515 0.912873,0.45043 1.181443,1.52194 1.054358,2.45758 -0.130849,0.94217 -0.205459,1.92482 0.196686,2.81654 0.354477,0.75377 0.52831,1.55518 0.04107,2.28464 -0.349823,0.85496 0.187283,2.1431 -0.283759,2.74117 -0.746534,-0.46407 -0.740423,-1.47779 -0.950385,-2.24395 -0.307551,-1.27793 -0.544799,-2.62638 -1.248483,-3.75584 -0.364365,-0.42146 -1.057439,-1.31412 -0.947525,-1.54572 -0.292216,1.0188 0.445357,1.93289 0.756889,2.85683 0.513303,1.14162 0.954543,2.35225 0.883514,3.62411 -0.06919,0.73896 0.488616,1.62657 0.155756,2.23257 -1.039505,0.38813 -1.171395,-0.93364 -1.60382,-1.54696 -0.650731,-1.1037 -0.797233,-2.3962 -0.719049,-3.65149 -0.04258,-0.94849 -0.432026,-2.41707 -1.129175,-2.81496 -0.165595,1.02461 0.483005,1.9713 0.547503,2.98611 0.156401,1.08846 0.515332,2.2717 0.09142,3.33736 -0.304494,0.42719 -0.930716,1.63385 -0.951846,0.42432 -0.06739,-1.364 -0.130591,-2.73694 -0.472973,-4.06862 -0.238968,-0.76011 -0.0456,-1.94611 -0.988717,-2.24292 -0.794676,0.3278 -1.356564,1.12508 -1.611341,1.92221 -0.122007,0.71936 0.13115,2.30565 -1.119135,1.73952 -0.819189,-0.70408 -0.852918,-1.9219 -1.304157,-2.85075 -0.112072,-0.25087 -0.282873,-0.49594 -0.240494,-0.78627 z"
     style="fill:#7a944d;fill-opacity:1;stroke:#7a944d;stroke-width:0.264583px;stroke-linecap:butt;stroke-linejoin:miter;stroke-opacity:1"
     id="path198" />
  <path
     d="m 90.312678,34.00045 c 1.155375,-1.18116 2.904731,-1.5772 3.922733,-2.93341 0.942453,-0.96639 2.301942,-1.17598 3.454991,-1.75463 1.051486,-0.54758 1.48836,-2.37833 2.963868,-1.78077 1.37705,0.7197 2.94171,1.48007 3.71785,2.90458 0.34806,1.66665 0.39128,3.41995 0.91085,5.08012 0.28209,1.20082 0.41964,2.46702 -0.0217,3.64774 -0.34183,1.96556 0.35323,3.9403 0.056,5.90817 -1.3471,-0.74396 -0.90656,-2.75927 -1.29589,-4.05954 -0.2677,-2.02715 -0.51016,-4.08566 -1.40697,-5.95311 -0.60263,-0.16379 -1.24603,-1.47928 -0.35753,-0.66329 0.67182,1.35553 0.65652,2.93066 1.08771,4.36799 0.51329,2.20462 0.94415,4.55616 0.2459,6.76638 0.0158,0.67359 -0.27757,2.31703 -0.53581,0.83668 -0.99456,-1.54121 -1.57153,-3.20034 -1.79495,-5.0286 -0.3972,-0.552 0.20021,1.40313 0.35575,1.86788 0.33196,2.05572 -0.0127,4.16236 -0.75889,6.08459 -0.991781,-0.9275 -1.382165,-3.0105 -1.223607,-4.51393 0.234398,-1.49845 -0.353747,-2.97373 -0.111648,-4.47315 -0.08227,-0.70583 -0.250145,-2.45762 -0.809523,-2.42654 0.745339,2.0564 0.350035,4.2985 0.292216,6.43393 -0.07785,1.31507 -0.218613,2.6285 -0.337195,3.93774 -1.192674,1.67676 -1.901072,-1.22446 -2.094343,-2.1784 -0.778381,-1.43449 0.895429,-3.46956 -0.745606,-4.40968 -1.575658,-0.32315 -1.360124,-1.85505 -1.206176,-3.06748 -0.0434,-1.10535 -0.04741,-2.79508 -1.504257,-2.93388 -1.173551,10e-4 -2.958845,1.0573 -3.083896,-0.89486 -0.03671,-0.27852 0.05436,-0.58434 0.280154,-0.76453 z"
     style="fill:#849e64;fill-opacity:1;stroke:#849e64;stroke-width:0.264583px;stroke-linecap:butt;stroke-linejoin:miter;stroke-opacity:1"
     id="path206" />
  <path
     d="m 84.532495,36.91754 c 1.933677,-0.39564 2.925293,-2.41016 4.736468,-3.02548 1.79598,-0.50764 3.327109,0.92612 4.514434,2.07044 1.182206,0.7088 0.945516,2.1771 0.918689,3.33689 0.05113,2.11434 1.457662,3.99067 1.204483,6.14259 0.03012,0.59636 0.203912,1.78977 -0.170001,2.01496 0.102998,-0.65948 -0.222065,1.02001 -0.101492,1.33845 -0.117533,0.91468 -1.229455,-0.87267 -1.557837,-1.33629 -0.637554,-1.21179 -0.580556,-2.65641 -0.674828,-3.98027 -0.263531,-0.98208 -0.116757,0.87618 -0.0387,1.24579 0.299169,1.6817 -0.0098,3.41471 -0.377904,5.05774 -0.853897,0.43151 -1.425529,-1.35544 -1.615298,-2.08078 -0.08777,-1.1162 0.232725,-2.21998 0.07258,-3.34283 0.114577,-1.09079 0.140572,-2.22201 -0.399603,-3.22243 -0.374842,-0.35014 -0.154985,-1.88119 -0.283545,-0.64018 0.226296,1.57307 0.07163,3.15158 -0.190709,4.70844 -0.270699,1.58031 -0.200044,3.18832 0.03387,4.76469 -0.33059,1.33149 -1.318465,-0.34192 -1.260524,-1.01851 -0.437355,-1.78998 -0.16689,-3.65257 -0.519162,-5.45549 -0.41447,-1.09233 0.491919,-2.37436 -0.0432,-3.3029 -0.857793,0.26416 -1.787831,0.69202 -2.735888,0.85595 -1.248129,0.16096 -1.823439,-1.21321 -2.288431,-2.12182 -0.495005,-0.93543 1.505543,-1.48231 0.544665,-2.23977 -0.118665,-0.18563 0.135058,-0.36176 0.30588,-0.34596"
     style="fill:#849e64;fill-opacity:1;stroke:#849e64;stroke-width:0.264583px;stroke-linecap:butt;stroke-linejoin:miter;stroke-opacity:1"
     id="path214" />
  <path
     d="m 90.682412,49.52865 c 2.124992,-1.83133 4.560639,-3.24093 6.83861,-4.85525 1.323072,-1.08662 2.987868,-3.09294 4.853688,-1.89137 1.51151,0.81199 1.74169,2.57958 2.58504,3.90631 0.53094,1.51651 0.0449,3.18696 0.14301,4.76644 -0.12396,2.07664 0.29699,4.11131 0.80014,6.10887 0.32497,2.1113 0.41405,4.27126 0.34782,6.3984 -0.52272,0.71682 -0.8575,2.84426 -1.61748,2.58363 -0.45009,-1.96558 -0.53836,-3.96914 -0.57271,-5.99438 0.0678,-0.65805 -0.30046,-2.35559 -0.34714,-0.72236 0.39207,3.04462 0.86593,6.13636 0.57848,9.21177 0.26189,1.57776 -1.60105,3.51487 -2.07988,1.08583 -0.74932,-2.89731 -0.16048,-5.92984 -0.73387,-8.85079 -0.67492,-0.61741 -0.52275,-4.30421 -0.86936,-1.99571 0.31796,2.82136 1.06754,5.63621 0.84917,8.4931 -0.47066,1.58235 -1.26038,3.08997 -2.124033,4.47762 -1.237698,-0.63626 -0.820654,-3.35302 -0.748123,-4.88873 0.226957,-2.87038 -0.590936,-5.67556 -0.597151,-8.53086 -0.03754,-1.18279 0.766199,-3.40732 -0.586954,-3.84118 -0.119685,1.55208 0.226737,3.13891 0.13883,4.6556 0.233292,1.81398 -0.386883,3.6128 0.03078,5.40914 0.55544,2.18429 0.952578,4.82104 -0.726915,6.63839 -1.187813,1.898 -2.72718,0.0779 -1.979898,-1.49205 0.124194,-1.74552 -0.361738,-3.55728 0.260395,-5.27567 0.284983,-2.32566 -0.170755,-4.65727 -0.282225,-6.98039 -0.49147,-1.45712 -1.020599,-4.16539 -3.049384,-2.61048 -2.066376,0.33755 -3.057041,-2.34459 -2.392295,-3.95922 0.250631,-0.74393 1.14469,-1.0568 1.28146,-1.84666 z"
     style="fill:#7a944d;fill-opacity:1;stroke:#7a944d;stroke-width:0.264583px;stroke-linecap:butt;stroke-linejoin:miter;stroke-opacity:1"
     id="path222" />
  <path
     d="m 77.408952,41.22107 c 0.122729,-1.94061 1.643718,-3.36012 2.628508,-4.91861 1.131455,-1.61142 3.142618,-2.1785 5.025313,-2.11079 1.641518,-0.10368 3.416652,0.95313 3.312295,2.76702 0.190246,1.65058 1.333398,3.12302 1.054614,4.84921 -0.337954,2.38206 0.373111,4.90664 -0.585146,7.18426 -0.617059,-1.1294 -1.10195,-2.32783 -1.198047,-3.62358 -0.10929,-0.61049 -0.490706,-3.1564 -0.638002,-1.43786 0.01288,1.27192 0.189551,2.55016 0.644449,3.76705 0.922442,2.52489 1.030133,5.23743 1.416941,7.87375 -0.0095,0.74503 -0.004,2.61165 -0.432692,2.61986 -0.866415,-1.36488 -0.895032,-3.06366 -1.594277,-4.5076 -0.485998,-1.15048 -0.191863,-3.65264 -0.940562,-4.08356 0.08883,2.42561 1.193388,4.8164 0.661052,7.24842 -0.128662,1.13467 -1.810314,1.68188 -1.690153,0.13817 -0.442428,-2.31068 -0.305127,-4.67007 -0.109387,-6.99423 0.0085,-1.3128 -0.98859,-2.3486 -1.028224,-3.60452 -0.53535,0.81565 -0.308218,2.25283 -0.281822,3.31259 0.184766,2.45791 0.537849,4.89856 0.803018,7.34819 -0.390256,0.99778 -1.4045,-1.07786 -1.815835,-1.41503 -1.314969,-2.30565 0.294843,-4.90294 -0.367947,-7.30807 -0.758757,-1.3605 -0.831898,-2.93239 -0.811952,-4.45524 0.132413,-1.38173 -1.193995,-2.48726 -2.274675,-1.19884 -0.705647,1.10521 -1.724805,0.9938 -1.90502,-0.32258 -0.08496,-0.37331 -0.08764,-0.79395 0.127551,-1.12801 z"
     style="fill:#7a944d;fill-opacity:1;stroke:#7a944d;stroke-width:0.264583px;stroke-linecap:butt;stroke-linejoin:miter;stroke-opacity:1"
     id="path230" />
  <path
     d="m 69.422694,8.96677 c 0.145009,-1.67853 1.560514,-2.81821 2.581182,-4.01279 1.005823,-0.9758 3.173587,-1.69305 3.829702,0.0238 1.254301,0.57313 1.777684,-2.15386 3.325654,-2.0462 2.154328,-0.47363 4.211816,1.42719 4.980585,3.30165 0.438564,1.5098 -0.0086,3.14667 0.547889,4.64638 0.480191,2.80603 0.810407,5.64646 1.018353,8.48209 -0.211596,1.5589 0.05454,3.14332 -0.227073,4.68387 -0.461869,0.68986 0.435202,3.36391 -0.410027,1.65624 -0.361183,-1.73831 -0.394301,-3.50795 -0.574306,-5.26775 -0.476659,-2.12149 -1.555495,-4.07485 -1.85981,-6.24092 -0.609371,2.12764 0.24668,4.44129 -0.459554,6.62677 0.03319,2.29072 0.353917,4.58287 0.275,6.88926 0.653261,1.11048 -1.000638,2.99151 -1.270339,1.07612 -0.624351,-1.80451 -0.36847,-3.80999 -1.244042,-5.54947 -0.531271,-2.20671 0.764489,-4.50768 -0.137271,-6.66694 0.09569,-1.25097 -0.941339,-0.78249 -0.227725,0.18411 0.07006,1.35433 -0.01952,2.72144 -0.06002,4.07952 -0.307663,2.27014 -0.865142,4.54523 -0.498716,6.84731 0.262959,1.07277 -0.342522,3.9386 -1.499854,1.94161 -1.060326,-2.59982 -0.300914,-5.46172 -0.444604,-8.18017 -0.09187,-1.59223 -0.04597,-3.19176 -0.211128,-4.7796 -0.565928,-0.20911 -0.375958,1.72313 -0.556327,2.34139 0.268177,2.23903 0.210234,4.49674 0.179682,6.74746 0.255983,1.19769 -1.188995,3.93943 -1.807072,1.54134 -0.425953,-2.04267 0.05989,-4.17077 -0.541868,-6.20222 0.06587,-1.75443 -1.812493,-3.00862 -1.237487,-4.74738 0.66746,-2.37662 -2.202539,-1.26208 -3.295664,-1.8659 -0.758808,-1.36017 -1.136009,-3.27777 -0.150167,-4.62211 0.153785,-0.27136 0.180543,-0.63173 -0.025,-0.88749 z"
     style="fill:#849e64;fill-opacity:1;stroke:#849e64;stroke-width:0.264583px;stroke-linecap:butt;stroke-linejoin:miter;stroke-opacity:1"
     id="path238" />
  <path
     d="m 60.056098,12.749 c 0.274402,-1.87679 1.147864,-4.09021 3.106031,-4.72385 1.069379,0.30401 1.981209,0.0369 2.500656,-1.07404 0.744213,-1.21399 2.402686,-1.38546 3.494678,-0.53399 1.99201,1.09209 2.160932,3.60147 2.929996,5.50403 0.568512,1.52514 0.804146,3.2519 0.319622,4.82183 -0.911693,1.27407 -2.885656,-0.18979 -4.026559,1.02979 -1.006213,0.78904 -0.905349,2.2299 -1.011108,3.38443 -0.08441,2.4239 0.911589,4.67737 1.552289,6.96187 0.44269,0.75951 -0.23447,1.8831 -0.671133,0.61253 -1.03035,-1.46349 -2.226073,-3.04086 -2.113172,-4.94435 -0.09006,-1.24136 0.655121,-3.2836 -0.492203,-3.97168 0.05305,1.10018 1.227919,2.43307 0.62786,3.82543 -0.414847,1.83288 0.746224,3.80538 -0.217612,5.54008 -1.509782,0.71283 -2.277492,-1.49168 -2.042707,-2.67468 0.180313,-2.00498 0.473937,-4.07663 -0.299085,-6.00737 -0.632682,-1.09503 -0.642413,-2.8822 -1.514659,-3.58004 -0.769228,1.1823 0.187629,2.99895 -0.140062,4.46754 0.232096,2.4949 0.609172,4.98636 0.574319,7.50109 0.294386,0.9417 -0.261629,1.39253 -0.513988,0.28042 -0.691995,-0.9091 -1.114493,-1.94817 -1.538045,-2.99727 -0.81592,-1.59765 -1.817213,-3.3179 -1.405023,-5.18625 0.31167,-1.73311 0.02012,-3.47284 0.01585,-5.20749 0.07993,-1.05438 0.391514,-2.08451 0.864055,-3.02803 z"
     style="fill:#7a944d;fill-opacity:1;stroke:#7a944d;stroke-width:0.264583px;stroke-linecap:butt;stroke-linejoin:miter;stroke-opacity:1"
     id="path246" />
  <path
     d="m 71.468556,44.2047 c 0.143623,-2.22492 0.355933,-4.44857 0.334512,-6.67813 0.290913,-2.13178 -0.04583,-4.27729 -0.83356,-6.26928 -0.641434,-1.35687 -0.0015,1.2927 -0.189746,1.80825 -0.158788,0.81849 0.01275,-1.22103 -0.480959,-1.55415 -0.695066,-1.44183 -1.214771,-3.25505 -2.669779,-4.09506 -1.50789,0.31667 -1.320014,2.42823 -1.501687,3.66433 -0.01794,0.96094 -0.41839,3.23982 -1.522257,1.50871 -1.356685,-0.82844 -1.50609,-2.49622 -2.152103,-3.79311 -0.934682,-0.88561 -2.377553,-1.3406 -3.521849,-1.59158 -1.670575,0.98327 0.651216,3.56218 -1.597378,4.00657 -1.509824,1.1337 -0.247046,3.08959 -0.620786,4.60937 -0.258688,2.98159 0.784662,5.87513 1.818396,8.62269 0.734759,2.13521 2.087174,-0.81967 1.863738,-1.90582 0.04193,-1.33983 -0.568925,-3.27949 0.968419,-4.01256 0.16867,0.55779 -0.821298,1.60711 -0.199582,2.51414 0.03824,1.64009 0.248381,3.26986 0.70785,4.84247 -0.103341,1.66428 0.13025,3.32691 0.06658,4.9572 0.924217,-0.56891 0.556496,-2.65949 1.459674,-3.65013 0.869185,-1.53262 0.860027,-3.32998 0.648877,-5.02153 0.104522,-0.78432 0.114116,-3.16559 0.07045,-1.14465 0.201641,2.74431 1.256044,5.35585 1.339909,8.11643 0.42519,1.08525 0.05686,2.86546 0.868188,3.50724 0.989539,-0.94899 -0.526674,-2.58496 0.454922,-3.77261 0.492662,-1.71393 0.258081,-3.52108 0.745924,-5.23326 0.468244,-0.91124 -1.402989,-2.66371 0.120835,-2.65507 0.04187,1.85719 0.225681,3.75259 0.681335,5.57883 0.51334,1.61999 0.310905,3.39379 0.727683,4.98724 0.689424,-0.83299 0.867727,-2.27499 1.382082,-3.33565 1.092282,-0.95273 0.761124,-2.45512 0.937591,-3.70562 l 0.09268,-0.30526 z"
     style="fill:#849e64;fill-opacity:1;stroke:#849e64;stroke-width:0.264583px;stroke-linecap:butt;stroke-linejoin:miter;stroke-opacity:1"
     id="path292" />
  <path
     d="m 51.749401,18.29479 c -0.18172,-1.54411 0.945102,-2.86034 1.836488,-3.99351 1.230274,-1.3034 3.268074,-1.63862 4.827429,-0.72961 1.623081,0.74443 3.260577,2.02668 3.42038,3.9431 0.03884,1.48235 0.286688,2.90626 0.992692,4.22445 0.458102,1.57869 -0.158781,3.18313 -0.510611,4.70506 0.06511,1.1169 0.982683,2.55477 0.02098,3.45555 -1.066065,0.0651 -2.012922,-3.253 -2.866451,-1.52836 -0.491811,1.50288 -0.461946,3.1093 0.0011,4.61502 0.140093,1.1355 0.818948,3.555 -0.456683,3.91915 -1.018874,-2.08046 -0.590984,-4.49773 -1.023388,-6.72598 -0.277636,-0.71458 0.03356,-3.05345 -0.9797,-2.64662 0.134291,1.60996 0.01938,3.3125 0.08509,4.96372 0.07599,1.71268 -0.297115,3.39781 -0.606742,5.05369 -0.224774,-1.23312 -0.927003,-2.40195 -1.140685,-3.67333 -0.545385,-1.31682 -1.162837,-2.78524 -0.484957,-4.18216 0.511598,-1.32972 0.02292,-2.67853 -0.631013,-3.84974 -0.578354,-0.66916 0.05631,-3.01636 -0.560507,-1.14763 -0.587778,2.10294 -1.13868,4.233 -1.594894,6.36054 -0.785423,-0.45982 -0.76033,-2.20851 -0.763749,-3.2494 -0.27939,-2.13483 0.442767,-4.30805 -0.182501,-6.41126 -0.187231,-1.03087 -0.457653,-2.45048 0.61773,-3.10268 z"
     style="fill:#7a944d;fill-opacity:1;stroke:#7a944d;stroke-width:0.264583px;stroke-linecap:butt;stroke-linejoin:miter;stroke-opacity:1"
     id="path254" />
  <path
     d="m 62.434721,25.08283 c 0.0918,-2.06446 1.650473,-3.60751 2.656402,-5.28691 0.811007,-0.92936 2.427965,-1.62244 3.543243,-0.96785 0.924188,1.23859 0.778348,2.91664 1.339323,4.31554 0.495882,1.65004 1.880446,3.13479 1.474714,4.97303 -0.410709,2.02057 2.046226,3.26881 1.646604,5.29127 -0.576427,1.09553 -0.04193,2.23105 0.103311,3.22302 -1.248482,0.0663 -1.422308,-2.05107 -1.859368,-2.99305 -0.213954,-1.04106 -0.975809,-1.94323 -0.98012,-3.00665 -0.221542,1.57035 -0.227441,3.17803 0.133628,4.73557 0.394931,1.36045 0.176196,2.84739 0.859023,4.12078 0.502359,1.83127 -1.396483,0.46556 -1.485652,-0.54362 -0.503059,-1.34815 -0.318587,-2.95892 -1.325016,-4.11167 -0.764319,-1.09605 -1.278289,-2.39896 -1.328568,-3.72977 -0.08699,-1.42626 -0.172839,1.65095 0.0033,2.27634 0.03062,2.0717 0.535371,4.11278 0.691045,6.16258 -0.06387,0.70372 0.158506,2.64597 -0.671382,1.23285 -0.398824,-1.22505 -0.468418,-2.56976 -1.246699,-3.65062 -0.978946,-1.28146 -0.06847,-2.8347 -0.280544,-4.25349 -0.07203,-0.51792 -0.705621,-2.23808 -0.769252,-0.74122 -0.287571,1.99187 0.345372,4.01886 -0.03894,5.98515 -0.855353,0.36595 -1.045145,-1.65138 -1.316,-2.39312 -0.206029,-1.09198 -0.357285,-2.20081 -0.518206,-3.29 0.202336,-1.31246 1.262454,-2.39423 0.962804,-3.80563 0.09644,-1.37051 -0.375931,-2.55768 -1.549118,-3.2538 l -0.04449,-0.28873 z"
     style="fill:#7a944d;fill-opacity:1;stroke:#7a944d;stroke-width:0.264583px;stroke-linecap:butt;stroke-linejoin:miter;stroke-opacity:1"
     id="path262" />
  <path
     d="m 49.235209,21.3006 c 2.183398,-0.73534 4.418249,0.5778 6.107147,1.86265 1.853411,1.48138 -0.237013,3.29974 -0.207528,5.02533 -1.184752,1.28434 -0.200069,3.11587 0.158086,4.66688 0.694835,1.90617 -1.312542,3.40014 -0.703037,5.3203 0.416696,2.59342 1.957576,5.22512 0.896396,7.86816 0.08395,0.59827 0.352369,1.90946 -0.214581,0.60714 -0.665532,-1.91167 -0.75773,-4.19434 -2.466242,-5.54657 -0.537108,-0.61349 -1.02543,-3.08174 -0.544383,-1.1925 0.444289,2.26651 0.49972,4.62025 0.291394,6.91637 -0.67549,1.65203 -0.626706,3.22185 -0.08701,4.86171 -1.090351,-1.29379 -2.26162,-2.95837 -2.47922,-4.73967 -0.136811,-0.8756 -0.599104,-2.7047 -0.899695,-3.9561 0.420948,-1.72529 -0.521414,-3.32822 -0.419423,-5.02212 0.0084,-1.4989 -0.627074,1.26165 -0.48287,1.80718 -0.430765,0.76039 -0.224418,2.85347 -0.814058,2.79572 -0.58358,-1.72571 -0.909457,-3.55447 -1.269963,-5.34692 -0.225428,-1.50198 -0.220438,-3.0921 0.286299,-4.53359 1.366757,-0.5293 -0.379892,1.25048 -0.777611,1.65135 -0.258866,0.819 -1.847143,1.71739 -0.908933,0.12104 0.33921,-1.78422 -0.240706,-3.5994 0.120471,-5.38813 0.270789,-1.45665 -0.918633,-3.03542 0.139416,-4.32729 1.009727,-1.1705 2.140543,-2.21778 3.096015,-3.43488 0.321333,-0.2742 0.999338,-0.59504 1.179326,-0.0161 z"
     style="fill:#849e64;fill-opacity:1;stroke:#849e64;stroke-width:0.264583px;stroke-linecap:butt;stroke-linejoin:miter;stroke-opacity:1"
     id="path276" />
  <path
     d="m 62.57029,38.80311 c 1.406457,-0.86891 2.592095,0.77061 3.482501,1.63719 1.187657,1.07167 1.798171,2.55366 2.574806,3.90723 0.228059,1.47343 -0.66709,3.65578 -2.512142,3.54837 -1.527932,-0.10837 -2.891624,1.141 -2.405649,2.72143 0.373946,1.7789 -0.260731,3.54767 0.234731,5.32312 -1.00268,1.38159 -1.870271,-1.54387 -2.708234,-2.10253 -1.368847,-1.70444 -0.662798,-3.94348 -0.31239,-5.86381 0.140104,-0.58397 -0.100318,-3.29943 -0.365556,-1.42644 -0.04596,2.00365 -0.09696,4.06017 -1.058654,5.87711 -0.538582,1.56659 -0.196155,0.5554 -0.493688,2.84112 -0.824221,1.87436 -0.621434,2.00352 -0.876303,3.75758 -1.414896,-0.78822 -1.0958,-7.01092 -1.700433,-8.27203 -0.285531,-1.28746 0.03146,-2.63386 0.08818,-3.86415 -0.812663,1.04055 -0.410162,2.84202 -0.421199,4.18695 0.403852,3.37366 -0.250115,6.80365 0.495909,10.14607 -0.124871,1.07464 -0.133757,2.61254 -0.712628,3.34406 -1.078294,-1.20199 -2.169334,-2.47413 -2.669245,-4.06914 -1.021459,-1.44549 0.244966,-3.09492 -0.262843,-4.61176 -0.594618,-1.70784 -1.502234,-3.66484 -0.365508,-5.36826 0.791038,-1.23978 1.250632,-2.60684 0.990972,-4.06731 0.03081,-1.55541 1.218276,-2.60179 1.757203,-3.95486 0.0076,-1.72215 1.539397,-2.04454 2.855662,-2.66606 1.261987,-0.49611 2.653047,-0.62278 3.86171,-1.27011 0.156208,0.10296 0.31902,0.25389 0.522801,0.24623 z"
     style="fill:#7a944d;fill-opacity:1;stroke:#7a944d;stroke-width:0.264583px;stroke-linecap:butt;stroke-linejoin:miter;stroke-opacity:1"
     id="path284" />
  <path
     d="m 78.136095,50.77091 c -1.441681,-0.48189 -3.011156,-0.30085 -4.458003,-0.77251 -1.007913,0.008 -1.916716,-0.5989 -2.903831,-0.54453 -0.949076,0.15133 -1.615038,1.715 -2.610904,0.71272 -0.789586,-0.90724 -2.272934,-0.71966 -2.719487,0.42986 -1.025856,2.10584 -0.935584,4.52994 -1.076295,6.81478 -0.077,2.71259 0.149376,5.42754 0.38626,8.12016 -0.337838,0.62205 0.302624,2.00499 0.744718,0.89917 -0.287588,-1.11575 -1.074606,-2.15333 -0.6022,-3.40195 0.36541,-1.49945 0.08233,-3.05968 0.53945,-4.54539 0.482819,-1.50846 -0.195434,-3.41117 1.036088,-4.63906 0.714566,-0.64527 0.57106,1.4879 1.126442,1.83794 1.164045,0.89585 1.645747,2.21368 1.454093,3.65909 0.106425,1.95622 0.588034,3.89083 0.361822,5.86127 -0.441234,0.77708 0.639552,1.93918 -0.159409,2.42496 -0.271582,-0.9216 0.885114,-1.78516 0.269633,-2.83635 -0.245695,-1.37678 0.380791,-2.69727 0.502198,-4.05761 0.310027,-1.72736 0.671865,-3.47817 1.481209,-5.05079 0.07593,-0.4706 -0.411914,-2.56531 0.1179,-1.2195 0.06165,1.52644 0.812909,2.97444 0.651172,4.51617 0.05065,0.69395 0.367827,-0.58578 0.429805,0.4258 -0.235063,0.51457 0.329478,2.29218 0.378085,0.97296 0.200226,-1.01563 0.186803,-2.11554 0.469877,-3.14658 0.315932,-0.97556 0.388389,-2.0362 0.626115,-3.01089 0.434079,-1.00013 0.257721,1.18356 0.426686,1.57738 -0.134974,1.11686 0.704834,1.95031 0.914509,2.97817 -0.262084,1.88351 0.693084,3.86231 -0.201625,5.66371 -0.324388,0.76123 -1.107479,2.7775 -0.533459,3.00886 1.274581,-2.5778 2.374816,-5.37659 2.20857,-8.30778 -0.107743,-1.20396 0.51705,-2.34201 0.372587,-3.52451 -0.197544,-0.54341 0.252304,-1.84914 0.03396,-0.63796 0.366208,1.50897 1.096366,2.94151 1.131559,4.52696 0.182308,1.37169 -0.439754,2.71935 -0.04589,4.07605 0.273114,0.73411 -0.523956,2.74993 0.888415,1.70707 1.479034,-0.65614 0.76371,-2.74198 1.003072,-4.07863 -0.198984,-1.46602 -0.892962,-2.90239 -0.378071,-4.40707 0.512301,-1.20816 0.333579,-2.45648 -0.105802,-3.64633 -0.08279,-1.07325 -0.34918,-2.51882 -1.613336,-2.7536 -0.231348,-0.025 -0.349664,0.24281 -0.145909,0.36796 z"
     style="fill:#849e64;fill-opacity:1;stroke:#849e64;stroke-width:0.264583px;stroke-linecap:butt;stroke-linejoin:miter;stroke-opacity:1"
     id="path300" />
  <path
     d="m 78.062152,57.51459 c 1.267414,-0.88027 2.56182,-1.75149 3.93739,-2.44812 1.880463,-0.61551 4.023965,-1.15934 5.935434,-0.36501 0.858294,0.80713 0.882392,2.10194 1.143305,3.1793 0.174488,1.42368 0.295321,2.84324 0.305809,4.27637 0.176066,2.1189 0.506084,4.24184 0.226501,6.3701 -0.334078,1.02714 0.229339,2.81198 -0.739547,3.34211 -0.954222,-0.96251 0.763223,-2.2158 -0.01516,-3.39813 -0.408766,-1.28224 -0.86344,-2.57948 -0.747795,-3.94929 0.03809,-1.07368 -0.11151,-2.19418 -0.736264,-3.08878 0.175275,-0.49782 -0.807124,-1.45824 -0.303917,-0.5687 0.822468,0.90349 0.275703,2.17684 0.408841,3.27685 -0.358109,1.55664 -0.444462,3.15685 -0.342339,4.75113 -0.02527,0.65366 0.01338,2.65651 -0.935238,2.00085 -0.398185,-1.53852 -1.231828,-2.94488 -1.51035,-4.51682 -0.183775,-1.62121 -0.05391,-3.25463 -0.06504,-4.87592 0.08767,-0.45408 -0.709831,-2.37759 -0.781796,-1.19286 0.750412,0.9115 0.589981,2.27373 0.528143,3.39853 -0.29089,1.86482 -0.312211,3.75212 -0.409698,5.63077 0.01164,0.96071 -0.769348,2.28727 -1.876188,1.76723 -0.807985,-0.68481 -0.586787,-1.97841 -0.732001,-2.94974 -0.06262,-1.36448 0.364398,-2.66991 0.682085,-3.97423 0.2633,-0.8921 -0.667573,-2.44216 -0.667935,-2.64955 -0.106789,1.72938 -0.08931,3.46403 -0.137405,5.19278 -0.19703,1.66474 -1.064506,3.2111 -2.283158,4.34629 -0.782286,-0.15465 -2.217396,0.78875 -1.73502,-0.64499 0.225896,-1.36425 0.216903,-2.78192 0.606942,-4.12991 0.484105,-1.36013 -0.322364,-3.0873 0.799883,-4.22048 1.014868,-0.89439 -0.808642,-1.32606 -1.262571,-1.95816 -1.225884,-0.71034 -0.126294,-1.74785 0.579198,-2.32296 l 0.0769,-0.13499 0.05098,-0.14367 z"
     style="fill:#7a944d;fill-opacity:1;stroke:#7a944d;stroke-width:0.264583px;stroke-linecap:butt;stroke-linejoin:miter;stroke-opacity:1"
     id="path308" />
</svg>
