<?xml version="1.0" encoding="UTF-8" standalone="no"?>
<svg
   xmlns:dc="http://purl.org/dc/elements/1.1/"
   xmlns:cc="http://creativecommons.org/ns#"
   xmlns:rdf="http://www.w3.org/1999/02/22-rdf-syntax-ns#"
   xmlns:svg="http://www.w3.org/2000/svg"
   xmlns="http://www.w3.org/2000/svg"
   xmlns:sodipodi="http://sodipodi.sourceforge.net/DTD/sodipodi-0.dtd"
   xmlns:inkscape="http://www.inkscape.org/namespaces/inkscape"
   width="600"
   height="300"
   viewBox="0 0 158.75 79.375"
   version="1.1"
   id="svg8"
   sodipodi:docname="ol-forest-spruce-fir.svg"
   inkscape:version="1.0.1 (3bc2e813f5, 2020-09-07)">
  <sodipodi:namedview
     pagecolor="#ffffff"
     bordercolor="#666666"
     borderopacity="1"
     objecttolerance="10"
     gridtolerance="10"
     guidetolerance="10"
     inkscape:pageopacity="0"
     inkscape:pageshadow="2"
     inkscape:window-width="1920"
     inkscape:window-height="1061"
     id="namedview38"
     showgrid="false"
     inkscape:zoom="2.8"
     inkscape:cx="300"
     inkscape:cy="150"
     inkscape:window-x="0"
     inkscape:window-y="19"
     inkscape:window-maximized="0"
     inkscape:current-layer="svg8" />
  <defs
     id="defs2" />
  <metadata
     id="metadata5">
    <rdf:RDF>
      <cc:Work
         rdf:about="">
        <dc:format>image/svg+xml</dc:format>
        <dc:type
           rdf:resource="http://purl.org/dc/dcmitype/StillImage" />
        <dc:title></dc:title>
      </cc:Work>
    </rdf:RDF>
  </metadata>
  <path
     id="path170"
     style="fill:#1d1a09;fill-opacity:1;stroke:#1d1a09;stroke-width:0.264583px;stroke-linecap:butt;stroke-linejoin:miter;stroke-opacity:1"
     d="m 79.438499,3.18194 c -0.303446,3.68654 -0.7787,7.34096 -0.335833,11.01986 0.42033,4.49699 -0.426139,8.96418 0.115127,13.44854 -0.122932,3.92899 -1.082818,7.80287 -1.090156,11.76279 -0.222031,5.86182 -0.0052,11.74187 -1.017445,17.54987 -0.02237,4.60132 -0.749223,9.25873 -0.07039,13.83671 1.687669,2.80469 -3.167609,8.44719 1.676879,7.57696 3.830658,1.68957 0.476519,-4.351 1.213444,-6.24753 -1.119077,-3.71331 0.174848,-7.41808 -0.09646,-11.1478 -1.419033,-5.81986 -0.663279,-11.85165 0.130748,-17.71889 0.298798,-3.2916 -0.802975,-6.57122 -0.105617,-9.83194 C 79.142652,29.89002 80.55409,26.5199 80.256091,23.00179 80.005144,19.13611 80.57581,15.28174 79.936642,11.42266 79.356117,9.02799 81.087477,4.46106 79.438505,3.18194 Z" />
  <path
     id="path178"
     style="fill:#67882c;fill-opacity:1;stroke:#67882c;stroke-width:0.264583px;stroke-linecap:butt;stroke-linejoin:miter;stroke-opacity:1"
     d="m 79.857528,1.00799 c 0.364417,0.42396 0.656427,-0.38516 1.009346,-0.29803 -0.09306,0.27054 -0.23538,0.52831 0.187354,0.41487 0.160793,0.23712 -0.875653,0.58423 -0.27843,0.37161 0.441618,-0.0235 0.03882,0.22519 -0.0044,0.39836 0.183168,0.18973 0.525169,-0.2 0.797754,0.0362 0.163694,0.0541 0.524105,-0.23386 0.378247,0.0969 -0.198448,0.139 -0.701516,0.4252 -0.161081,0.27569 0.174411,0.17573 -0.515116,0.66806 0.0017,0.37861 0.339872,-0.12888 0.281198,0.39427 0.07713,0.16667 0.217104,-0.10715 1.193827,-0.0894 0.694471,0.22893 -0.251617,0.088 -0.902532,0.48788 -0.926742,0.3364 0.243444,-0.0932 0.996395,0.0961 0.482202,0.30392 -0.196212,-0.0775 -0.478416,0.15774 -0.136845,0.0825 0.338367,-0.13355 0.988671,0.55235 0.900851,-0.17267 -0.172065,-0.32274 0.377947,-0.59339 0.2652,-0.13968 -0.01614,0.69492 0.464813,-0.71392 0.73932,-0.12875 -0.407694,0.33825 -0.687328,0.77862 -1.084016,1.12849 -0.03464,0.23993 0.932364,-0.37149 0.721642,0.15179 -0.08835,0.29789 -1.125637,0.30801 -0.548739,0.13995 0.389053,-0.0725 0.519318,0.24476 0.24934,0.49747 0.252959,0.29891 -0.604879,0.2928 -0.815445,0.11103 -0.321159,-0.18537 -0.09011,-0.23774 -0.04726,0.0885 0.0853,0.55443 -0.678917,0.0252 -0.872551,-0.14641 C 81.176324,4.73541 81.840433,5.81227 81.274093,5.70088 80.868492,5.67288 80.663272,5.28557 80.678523,4.95466 80.50886,5.41025 80.108133,4.34388 79.868639,4.89496 79.638037,5.34707 78.910393,4.99697 79.011913,4.53441 79.051003,4.34787 79.355168,3.77326 79.285631,3.88009 78.955686,4.31145 78.115927,3.89149 78.442662,3.48899 78.121224,3.92 77.331209,3.08472 77.752473,2.94327 77.608243,3.31361 76.619346,2.42225 77.231762,2.42998 77.435861,2.86143 76.32951,2.85556 76.7532,2.35038 c 0.201649,-0.44096 1.050233,-0.46635 0.777094,0.0822 0.105811,-0.32143 0.390184,-0.6988 0.776282,-0.71132 0.523461,0.0414 0.306707,0.71657 0.484861,0.94732 C 78.666297,2.3458 79.0061,1.77721 79.371755,1.99776 79.603173,2.23904 79.185322,2.67369 79.123888,2.20865 79.003718,2.00862 79.236087,1.522 79.322664,1.64095 78.870816,1.823 78.956212,1.07099 79.391984,1.11727 c 0.151749,-0.05 0.310533,-0.0725 0.46547,-0.10918 z" />
  <path
     id="path186"
     style="fill:#39561c;fill-opacity:1;stroke:#39561c;stroke-width:0.264583px;stroke-linecap:butt;stroke-linejoin:miter;stroke-opacity:1"
     d="m 81.582955,8.08442 c 0.750318,0.0423 1.379866,-0.42272 2.019565,-0.73787 0.428335,-0.14031 0.769691,-0.42674 1.123815,-0.69199 0.538863,-0.34842 1.113784,-0.68502 1.746257,-0.82124 0.399645,-0.13381 0.954409,0.35813 0.516917,0.69269 -0.162219,0.23293 -0.545428,0.14372 -0.670898,0.20611 0.4647,0.0341 -0.11313,0.25963 -0.04525,0.4148 0.236303,-0.20773 0.540604,0.0826 0.140947,0.18631 -0.102907,0.19695 -0.616479,0.24041 -0.375961,-0.0216 0.02824,0.24527 -0.699615,0.42268 -0.587874,0.26351 0.242267,0.17052 0.382591,0.61378 -0.06375,0.59682 -0.342883,-0.0444 -0.07726,0.6083 -0.500402,0.40405 -0.133536,-0.14574 -0.40139,0.2993 -0.608692,0.0362 0.0799,0.21434 0.280588,0.48705 -0.07119,0.61261 -0.285066,0.24273 -0.521487,-0.30588 -0.621934,0.13853 -0.326482,0.0288 -0.651403,-0.15563 -0.982942,-0.0743 -0.242658,0.0988 -0.498042,0.0504 -0.693901,0.013 C 81.531012,9.60932 81.449524,8.80983 80.962411,9.06833 80.630453,9.24232 80.391136,8.78009 80.83957,8.82325 81.23262,8.75405 81.379749,8.37308 81.582946,8.08449 Z" />
  <path
     id="path194"
     style="fill:#67882c;fill-opacity:1;stroke:#67882c;stroke-width:0.264583px;stroke-linecap:butt;stroke-linejoin:miter;stroke-opacity:1"
     d="M 82.544263,7.99569 C 81.153806,8.38496 79.687788,8.66084 78.243697,8.46087 77.307144,8.25062 76.672723,7.47514 75.92579,6.93239 75.520912,6.58524 75.061197,6.32294 74.57047,6.12716 74.135156,5.64754 74.47301,6.61463 74.324702,6.80677 c -0.235476,0.40895 0.593283,0.0571 0.346135,0.54481 -0.114463,0.27331 -0.38497,0.35393 0.0097,0.34961 0.399787,0.0669 0.166081,0.98136 0.03235,0.49412 0.407466,-0.39758 0.30481,0.64983 0.204813,0.26784 0.363204,-0.32832 0.641785,0.22534 0.561987,0.42377 0.198392,-0.20204 0.244198,-0.78157 0.698391,-0.50182 0.372412,0.12139 -0.10683,0.88142 -0.03253,0.644 0.427008,-0.38515 0.540375,0.95097 0.614089,0.29974 0.333459,-0.42781 0.606962,0.29406 0.361432,0.42114 0.101067,-0.58935 0.637992,0.0524 0.824397,-0.0475 -0.122422,-0.56192 0.747816,-0.2537 0.306617,0.0743 -0.01578,-0.29983 0.568375,0.0696 0.591624,0.13846 0.210981,-0.36686 1.114633,-0.32786 0.929063,0.13209 -0.524325,0.0236 0.540946,-0.99656 0.700236,-0.37427 0.101725,0.33516 -0.403116,0.31459 -0.04314,0.0879 0.27325,-0.29307 0.730014,-0.27708 0.6759,0.11539 -0.115693,-0.40184 0.79111,-0.88738 0.669374,-0.30767 -0.198506,0.1537 -0.407509,0.27122 -0.05836,0.0937 0.417735,0.42935 0.452001,-0.51401 0.792293,-0.28604 0.0022,-0.25893 0.498351,-0.70086 0.478056,-0.23171 -0.394928,0.34629 -0.144621,-0.34375 0.202982,-0.18168 0.398896,0.0382 0.110514,0.46576 -0.02454,0.0437 -0.04707,-0.42204 -0.268898,-0.77404 -0.62127,-1.01098 z" />
  <path
     id="path202"
     style="fill:#39561c;fill-opacity:1;stroke:#39561c;stroke-width:0.264583px;stroke-linecap:butt;stroke-linejoin:miter;stroke-opacity:1"
     d="m 83.517898,8.68336 c 1.569387,0.55172 3.272121,0.85447 4.930299,0.60299 0.590904,-0.13728 1.17518,-0.314 1.748252,-0.50413 0.254772,0.29327 -0.444615,0.8208 -0.751013,0.99081 -0.192956,0.19924 -0.863576,0.30074 -0.607529,-0.14731 0.121973,-0.13745 0.858658,-0.58089 0.544981,-0.22314 -0.234056,0.14272 -0.904799,0.0943 -0.321451,-0.0382 0.664861,-0.14855 0.216015,0.59559 -0.20675,0.47384 -0.389133,-0.10796 -0.248786,0.18476 0.04056,0.14071 0.37155,0.46212 -0.781761,0.33522 -0.633164,0.0884 0.249345,0.40829 -0.397737,0.88058 -0.711227,0.53975 0.363888,0.14902 -0.770335,0.32383 -0.752096,-0.1128 0.203059,0.57194 -0.984535,0.072 -0.727845,-0.0127 0.159159,0.48126 -0.874145,0.34785 -0.837724,-0.1166 0.05664,-0.0201 0.191868,0.74697 -0.312855,0.57689 -0.270036,0.0795 -0.978198,0.0593 -0.929234,-0.22765 0.235507,-0.0503 0.541108,0.24692 0.138474,0.0736 -0.261325,-0.11069 -0.542302,-0.39527 -0.634144,-0.61402 0.394356,0.0768 0.290018,0.51184 -0.07814,0.32219 -0.433864,-0.231 0.331831,-0.11858 0.01202,0.1862 -0.441478,0.41978 -1.342578,0.0715 -1.347493,-0.55677 C 81.905849,9.82344 82.480477,9.328 82.475347,9.76086 82.175019,9.62083 81.299694,9.57243 81.533499,9.12211 81.74422,8.89106 82.153688,9.38307 81.778953,9.20421 81.386889,8.807 81.736333,8.22202 82.278158,8.42118 c 0.532713,0.0282 1.354613,-0.008 1.430048,0.69817 l 0.03152,0.0962" />
  <path
     id="path210"
     style="fill:#39561c;fill-opacity:1;stroke:#39561c;stroke-width:0.264583px;stroke-linecap:butt;stroke-linejoin:miter;stroke-opacity:1"
     d="m 78.033506,9.09375 c -2.493532,0.29358 -5.078527,-0.0664 -7.358193,-1.13457 -0.354879,-0.30752 -0.214814,0.0887 0.0778,0.13715 0.240948,0.29362 0.886154,0.87227 0.318577,1.13781 -0.132305,-0.234 0.989978,0.072 0.44033,0.43119 -0.461156,0.27321 0.403757,-0.0203 0.352263,0.37188 -0.06089,-0.32208 0.702417,-0.0473 0.40066,0.32226 -0.0053,0.27998 -0.473547,0.44323 -0.199088,0.0611 0.410158,-0.55812 1.129865,0.0193 0.749428,0.56766 -0.645212,0.15575 0.264734,-0.87621 0.403852,-0.1501 0.230408,0.20053 -0.217393,0.70317 -0.134877,0.26468 0.300782,-0.50069 0.815637,0.31153 0.910768,7.5e-4 0.132023,-0.008 0.683718,0.0964 0.396321,0.26561 0.210023,-0.46163 0.619349,0.13425 0.664195,0.20438 0.271168,-0.28098 0.835795,-0.42372 0.722318,0.15569 0.129189,0.23463 0.652233,-0.28102 0.402931,0.16554 0.0753,-0.49037 0.751323,-0.30559 0.484527,0.18092 -0.175079,0.48108 0.0062,-0.16339 0.315555,-0.14933 0.273662,-0.18911 0.614445,0.51884 0.514473,-0.0729 -0.09317,-0.57119 0.630751,-0.13772 0.757068,-0.43899 0.389896,0.26485 0.272043,-0.69558 0.571355,-0.35792 -0.525321,0.0691 0.07023,-0.63435 0.288081,-0.71331 0.09898,-0.34495 0.353524,-0.67443 0.532405,-0.86691 -0.339614,0.0541 -0.995185,0.283 -1.064194,-0.34152 -0.07013,-0.45186 0.706708,-0.15759 0.158303,-0.32903 -0.266633,-0.044 -0.50407,0.13849 -0.704858,0.28796 z" />
  <path
     id="path218"
     style="fill:#39561c;fill-opacity:1;stroke:#39561c;stroke-width:0.264583px;stroke-linecap:butt;stroke-linejoin:miter;stroke-opacity:1"
     d="m 79.648012,12.27703 c -1.406009,0.67337 -3.00337,0.4764 -4.412917,-0.0305 -0.354491,0.12264 -1.083042,-0.44557 -0.4302,-0.0293 -0.711245,0.59784 -1.829946,-0.19954 -2.630836,-0.44471 -0.930033,-0.79419 1.126652,0.24501 0.07578,0.75565 -0.872345,0.51967 -1.791104,-0.0284 -2.618434,-0.24072 -1.239145,0.0413 0.317328,-0.69374 0.419164,0.11617 -0.735432,0.54009 -2.185258,0.0712 -2.647722,0.52333 0.912511,0.44948 1.881793,0.78062 2.851677,0.91891 -0.24981,0.4049 -1.957248,0.91832 -0.617036,0.56446 1.101708,0.10952 -0.416806,1.34882 -0.290117,0.61207 0.479664,-0.15418 0.776852,0.60125 1.039541,-0.18203 0.553379,-0.15856 0.819573,0.65161 0.936801,-0.19366 0.710434,-0.70494 1.227225,0.59325 0.402461,0.66983 -0.135553,-1.2236 1.382842,-0.3474 0.488939,0.29232 -0.700246,0.3245 0.18552,-0.92605 0.04,-0.12814 -0.08799,0.65486 -0.885097,0.64948 -0.279249,0.0575 0.52414,-0.38588 0.822533,0.80495 0.900844,-0.059 0.512447,-0.71382 1.263325,0.69306 1.013042,-0.46853 0.346016,-0.74365 1.154359,0.69088 0.531198,0.19892 -0.09062,-1.06894 1.198,0.43289 0.423119,0.0458 -0.09852,-0.74117 1.199518,-0.16036 0.733316,-0.2989 0.02492,-1.27941 2.092527,-0.0847 0.610945,0.22279 -0.523273,-0.91781 1.33204,-1.23768 0.61008,-0.25002 -1.084027,-0.55247 1.248655,-1.38373 0.645985,-0.28702 -0.908299,-0.77437 1.595828,-0.62148 0.571585,-0.16051 -0.142795,-0.72373 0.831321,-0.45904 0.837935,0.0204 -0.156431,-0.62524 1.124765,-0.81395 1.311316,-0.55788 0.287958,-0.62831 1.259976,-0.6272 0.488945,0.0444 -0.550606,0.25426 0.380866,-0.2736 0.480684,0.19324 -0.0965,-1.06029 1.202497,0.31291 0.678834,-0.25398 0.263896,-0.56308 0.834619,0.23417 0.670424,-0.15334 0.408535,-0.36025 0.752353,0.56799 0.952278,-0.0937 0.433345,-0.29459 0.862839,0.15799 0.598909,-0.35051 0.127135,-0.8644 1.578851,-0.37633 0.994366,-0.28381 0.491277,-0.27027 1.216244,-0.26477 1.477143,-0.88391 0.500854,0.0303 0.215771,0.9684 0.421127,0.20076 0.761933,-0.29033 0.678108,-2.18399 -0.208363,-1.15985 -0.665708,0.66724 -1.799281,0.75431 -2.655688,1.16321 -1.310797,0.27955 -2.762285,0.5609 -4.064917,0.13803 -0.125698,-0.0611 -0.244658,-0.13825 -0.350949,-0.22764 z" />
  <path
     id="path226"
     style="fill:#67882c;fill-opacity:1;stroke:#67882c;stroke-width:0.264583px;stroke-linecap:butt;stroke-linejoin:miter;stroke-opacity:1"
     d="m 80.929762,13.36401 c 1.712327,0.40998 3.380558,1.35183 5.193671,1.00754 1.545218,-0.20807 3.057909,-0.59894 4.574712,-0.94171 0.388823,0.0744 1.171831,-0.498 0.735398,0.28661 -0.255656,0.37037 -1.197886,1.07109 -1.472575,0.76346 0.955511,0.0359 -0.699769,0.65377 -0.430317,0.61419 0.131747,0.74358 -0.97654,-0.044 -0.902573,0.22075 -0.45902,0.4465 -1.429388,-0.40072 -1.541648,0.18411 0.729507,-0.75824 1.846985,-0.37095 2.652826,0.09 0.747945,0.49598 1.634447,0.11029 2.048119,-0.52715 0.190336,0.55203 -0.763732,1.49915 -1.370438,1.6903 -1.008655,0.0695 0.40414,-0.79492 -0.08374,-0.10786 -0.725089,-0.20365 -0.826934,0.96484 -1.539325,0.15066 0.337038,0.39165 -1.071206,0.86469 -1.107833,0.0686 0.582234,0.34185 -0.817195,0.37559 -0.903356,-0.0701 -0.710926,-0.5246 0.963929,0.23044 0.0889,0.11906 -0.861001,-0.71759 0.628597,0.51814 0.960424,0.64556 0.48102,0.40593 2.357758,-0.0483 1.072546,0.68749 -0.406519,0.48544 -2.30093,1.03338 -1.973839,0.0647 0.439042,0.50739 -1.032834,-0.15728 -0.589044,-0.61973 -0.330897,0.8241 -1.461347,-0.57938 -1.184663,-0.22904 -0.507351,0.8472 -1.891954,-0.78505 -1.064838,-0.94947 0.02959,0.77143 -2.002192,-0.56451 -0.905252,-0.24808 -0.437951,0.52722 -1.40433,-0.96853 -0.77193,-0.15844 -0.293693,0.4161 -1.352057,-0.25083 -0.439822,0.0267 -0.359328,0.47588 -1.805219,0.30688 -2.407883,-0.10599 0.92867,0.51254 0.229426,1.25466 -0.563511,1.11458 -0.806342,-0.19625 0.857423,0.20274 0.08995,0.72746 -0.435908,0.26498 -1.150246,-0.14068 -0.986957,-0.58775 0.365108,0.64643 -1.175474,0.59367 -0.812204,-0.12437 -0.490761,0.73288 -1.958223,0.28395 -1.271839,-0.46788 -0.0062,0.75311 -1.228879,0.14697 -1.146528,0.6927 -0.916579,0.50985 -2.429726,-0.62262 -0.998435,-1.21333 1.267202,-0.88978 2.897685,-0.66339 4.267351,-1.26587 0.915782,-0.53207 1.775028,-1.18068 2.784649,-1.53782 z" />
  <path
     id="path234"
     style="fill:#39561c;fill-opacity:1;stroke:#39561c;stroke-width:0.264583px;stroke-linecap:butt;stroke-linejoin:miter;stroke-opacity:1"
     d="m 79.931479,19.1649 c -1.040539,1.06816 -2.675544,0.93799 -3.877336,0.25845 -0.962975,-0.67899 -1.826579,-2.03133 -3.200974,-1.53804 -1.590213,0.51622 -3.558756,0.87696 -4.967614,-0.27666 -0.706276,-0.23448 -1.35208,-1.40004 -0.95111,0.0826 0.03977,0.88744 1.910249,0.83528 1.570992,1.34484 0.808785,0.19895 1.195336,0.44387 1.454649,0.37987 1.122826,-0.20908 -0.26045,1.14306 0.598888,0.66828 0.911671,-0.0745 0.586023,1.31265 0.608504,0.32346 0.856579,-0.17382 1.02855,0.65822 1.984241,0.38561 0.306177,0.10293 1.377476,-0.074 0.475038,0.51942 0.503884,-0.84746 0.558861,0.48445 1.058117,-0.23477 0.12843,0.8859 0.722635,-0.46531 1.08104,0.46408 -0.490674,0.99781 -0.318094,-0.73016 0.535934,-0.0169 0.753664,0.42323 0.03543,0.66312 0.655706,0.29402 0.624726,0.71085 0.41244,-0.23733 1.23877,0.29525 0.33868,-0.3544 1.857166,-0.59231 1.611975,-0.43228 0.585138,-0.5699 1.196113,0.24248 0.881677,-0.46711 0.743288,-0.47252 0.728657,-0.22775 1.192224,-0.57764 0.88035,0.13864 1.619229,-0.42801 1.791793,0.6193 -0.03736,0.62619 0.907006,-0.0494 0.76463,0.90846 0.439737,-0.81641 0.785209,0.47693 1.310587,0.12017 0.725627,0.6599 -0.545862,0.40262 0.387356,0.0614 1.025985,-0.47115 1.016554,1.17895 0.30514,0.37664 0.116182,-0.8692 2.3126,-0.17488 1.181555,0.12535 0.302363,-1.16654 1.347409,-0.13709 1.726571,-1.03008 0.7474,-0.48218 0.858576,0.54155 1.227445,-0.19346 0.756439,-0.0328 1.298855,-1.07953 1.947648,-0.5092 0.803503,-0.40298 2.304356,-1.37592 0.581951,-1.35248 -1.567781,0.1732 -3.052461,0.97191 -4.679138,0.71452 -0.988628,-0.27504 -2.76816,-0.0588 -3.139827,-1.11742 1.224069,-0.45798 1.806234,0.63306 2.792714,0.36788 0.76124,0.67391 3.161363,-2.17683 1.283323,-1.88622 -1.068149,1.05122 -2.637238,0.83927 -3.989018,1.20772 -1.23868,0.19573 -2.69832,0.28873 -3.71261,-0.5745 -0.74048,-0.42021 -1.103903,0.53123 -1.730841,0.68939 z" />
  <path
     id="path242"
     style="fill:#67882c;fill-opacity:1;stroke:#67882c;stroke-width:0.264583px;stroke-linecap:butt;stroke-linejoin:miter;stroke-opacity:1"
     d="m 76.603867,20.75099 c -1.930906,0.75816 -4.003848,1.15227 -6.0504,1.4377 -1.965208,0.057 -3.931942,-0.18603 -5.893091,-0.15024 -0.738699,-0.0436 -1.755536,-0.43679 -0.526571,0.0275 0.832106,0.72155 2.786966,0.0908 2.658399,1.22834 0.702455,-0.9593 1.085156,0.99191 0.831976,0.29328 0.947739,-0.22971 0.64303,1.20296 1.60901,0.91124 0.412184,-0.82511 0.705831,0.88345 0.926718,-0.031 0.738357,-0.45257 1.264134,0.80727 0.928579,-0.0484 0.989945,0.23001 0.678342,-0.37715 1.593102,-0.27134 -0.197267,-0.36185 0.966619,0.31957 0.838299,-0.22094 0.707947,-0.55297 1.444672,0.37741 1.37885,-0.43004 0.822705,-0.31891 0.650064,0.92882 0.70164,0.19648 0.814844,-0.57167 1.177501,1.17622 0.649251,0.40679 0.587556,-0.31382 0.849271,0.22906 1.189775,-0.34695 0.512657,0.66066 0.85463,0.15362 1.874369,0.36319 0.997678,-0.92275 1.028235,1.16337 1.715432,0.11859 0.445239,0.35054 0.390501,1.04169 0.906846,0.18333 0.632166,0.18823 0.348509,0.39633 0.850937,0.25027 0.188156,0.505 0.619107,-0.56263 1.101081,0.0946 0.702894,-0.46091 -0.23025,0.85443 0.32437,-0.0197 0.844693,-0.51034 1.122119,1.04925 0.936267,0.45599 0.629203,-0.79352 1.559316,-0.0121 2.028314,-0.73702 1.006291,0.16662 -0.0097,1.11318 0.523554,0.20418 0.365313,0.036 0.890652,-0.46694 1.150017,-0.16167 0.138894,-1.01363 1.396028,-0.26928 1.561032,-1.05991 0.832228,0.23952 -0.920486,-0.0906 -0.02899,-0.59676 1.249009,0.14095 3.010516,0.33082 3.357392,-1.34888 -2.99224,0.60119 -5.897785,2.34736 -9.027096,1.76985 -1.58654,-0.49569 -3.14246,-1.13617 -4.458476,-2.13867 -1.179337,-0.74895 -2.479551,0.35719 -3.650587,-0.37983 z" />
  <path
     id="path250"
     style="fill:#67882c;fill-opacity:1;stroke:#67882c;stroke-width:0.264583px;stroke-linecap:butt;stroke-linejoin:miter;stroke-opacity:1"
     d="m 94.46203,23.97864 c -2.003192,-0.55678 -4.019935,0.74727 -6.033938,0.0858 -2.967702,-0.72105 -6.151638,-1.16843 -8.658436,-3.05678 -1.325557,0.3237 -2.14652,1.63077 -3.506491,1.94921 -1.947849,0.96537 -3.959155,1.78796 -6.00416,2.51084 -1.533649,0.39639 -3.168186,0.94458 -4.740023,0.47072 0.689529,1.685 2.821229,0.40456 3.751566,1.48927 0.723579,-0.79737 0.37543,0.59534 0.315422,-0.42048 0.480382,-1.14259 1.112433,0.59996 1.480891,-0.0665 0.820848,0.44005 1.068843,-1.26527 1.749937,0.0117 -0.528586,-0.99414 1.603401,-0.38415 1.714193,-1.18818 1.28083,-0.91475 0.817576,1.83909 0.543557,0.70305 0.731605,-0.56535 1.185841,0.73954 1.547103,-0.27782 0.992192,-0.96193 1.170367,1.33757 1.679139,0.0468 0.503795,-0.7625 0.988575,0.33537 1.463437,-0.61629 0.669235,-0.34725 -0.0348,1.62242 0.765297,0.58875 0.368205,-1.00678 1.24282,0.27385 0.374562,-0.35545 -0.518098,-0.42589 0.08997,-2.03645 0.226568,-1.34883 -0.952441,-0.19227 -0.0723,-0.98935 -0.19741,-0.50083 -0.08664,-0.64759 0.562374,-1.21978 0.446242,-0.23912 1.025581,-0.20886 1.11595,1.59573 2.268155,0.67109 0.649177,0.39328 -0.201794,1.21088 0.798719,1.16682 0.291973,0.91788 1.167016,-0.5554 1.216218,0.73736 -0.741458,0.92149 0.916964,-0.29503 0.441318,0.94135 -0.315169,-0.52667 1.589546,0.0108 1.793145,-0.89852 0.599411,0.57901 0.04794,0.28341 0.856144,-0.011 0.773123,0.46012 0.51606,-0.0209 0.645936,-0.54827 0.08313,0.58286 0.982589,0.5704 0.987301,1.04166 0.662878,-0.57439 0.981564,-0.44823 1.309664,0.18649 0.904175,0.39606 0.998379,-0.16979 1.789098,-0.35992 0.149208,0.84353 -0.175045,-1.14378 -0.968074,-0.35093 -0.457294,0.0252 -1.877985,-1.73186 -1.307829,-0.62674 -1.496124,-0.52458 0.442184,-0.91028 0.94029,-0.31506 0.551545,-0.35145 0.4902,0.39539 1.102812,-0.1951 -0.05892,0.14725 0.92801,-1.2975 0.799237,-0.17106 -0.401496,-0.30847 0.257548,-0.79609 0.41041,-1.05394 z" />
  <path
     id="path258"
     style="fill:#39561c;fill-opacity:1;stroke:#39561c;stroke-width:0.264583px;stroke-linecap:butt;stroke-linejoin:miter;stroke-opacity:1"
     d="m 77.146147,26.05277 c -0.510155,0.26391 -0.274981,-0.34099 0.186719,-0.15603 0.473194,-0.49466 -0.679006,0.60381 -0.991154,0.41988 -2.38921,0.81883 -4.865014,1.56797 -7.421965,1.46611 -1.747642,-0.008 -3.494808,-0.16837 -5.24243,-0.0719 -0.384658,-0.22922 -1.194287,-0.13869 -0.42324,0.2497 0.07836,0.56961 0.203598,1.18415 0.768919,0.55954 0.929427,-0.29119 0.774464,0.94991 1.43182,0.95404 0.231354,0.28757 0.0032,1.3598 0.03684,0.5762 0.463483,-0.86352 1.205193,-0.22119 1.373968,0.20843 0.436448,-0.46801 1.138874,-1.25296 1.695328,-0.46443 0.594216,-0.56712 0.903139,0.27401 0.1569,0.42744 -0.573364,0.063 -1.659735,0.34964 -1.89121,0.34981 0.931799,-0.1866 2.047424,0.4817 3.041951,0.10074 0.344922,-0.34971 1.350874,-0.14392 0.502267,0.12666 0.347211,-0.16287 0.713131,0.23853 0.175956,0.19111 0.130062,0.56793 -0.962516,0.57103 -0.295905,0.27808 0.56904,0.93941 1.445024,0.30991 2.267222,0.10422 0.522668,-0.27093 0.618813,0.80182 1.037753,0.065 0.473482,-0.71923 0.893164,-0.44118 0.750803,0.148 0.314779,-0.26465 1.048164,-1.36346 0.889404,-0.31461 0.574538,-0.59417 1.188049,-0.98273 1.833528,-1.4841 -0.385715,0.5096 0.168391,0.32391 0.154843,-0.15558 0.505329,-0.42891 0.131578,0.77627 0.727408,0.18023 0.290785,0.15963 0.232502,1.01342 0.717195,0.31036 0.343282,-0.39342 1.595329,-1.00473 1.089914,-1.22258 0.228833,-0.96507 1.021304,-1.82275 0.79207,-2.86539 -0.822737,-0.19476 -1.743425,0.15032 -2.605319,-0.0924 -0.256831,-0.0172 -0.522606,0.004 -0.759583,0.11146 z" />
  <path
     id="path266"
     style="fill:#67882c;fill-opacity:1;stroke:#67882c;stroke-width:0.264583px;stroke-linecap:butt;stroke-linejoin:miter;stroke-opacity:1"
     d="m 79.216659,28.71474 c -0.539176,0.18622 -1.162758,1.28648 -0.356662,1.481 1.078156,0.0131 0.777748,1.07282 0.247585,1.5834 0.296981,-0.15739 1.193625,-1.04788 1.719485,-0.42273 0.396959,-0.2094 0.527063,-1.29041 1.226323,-0.81898 0.403995,0.0283 1.269351,-0.86842 1.249346,-0.009 0.08018,0.39943 0.804141,0.37241 0.508309,0.96581 -0.177127,0.214 0.44538,-0.1714 0.47013,0.31665 0.467645,-0.16919 0.803094,0.39641 0.780618,0.936 0.413562,-0.0791 0.833974,-1.32473 0.945992,-0.42471 0.388486,-0.0399 0.716549,-0.14936 1.010508,0.15494 0.364749,-0.26265 0.83314,-0.9987 0.713132,-0.39251 0.12297,-0.36439 0.531488,-0.51116 0.1852,-0.009 0.335515,0.3882 0.801813,-0.65223 1.211265,-0.84605 0.335388,-0.57161 1.095282,-0.69961 1.046665,-0.0153 0.125265,-0.87032 1.63822,-0.5879 1.491071,-1.49575 -0.703968,-0.0579 -0.545431,1.2752 -1.421575,1.00833 -0.771854,-0.0892 -1.573406,0.001 -2.281773,-0.3805 -0.277433,-0.009 -1.071429,0.17911 -0.373267,-0.0635 0.698013,-0.0902 1.417308,-0.50678 1.919092,-0.86998 -0.719542,-0.28077 0.245871,-0.66367 0.540201,-0.5515 0.499041,-0.53923 0.917851,0.29272 1.399864,-0.33383 0.368461,-0.37222 1.210829,-0.6954 1.184707,-1.20929 -0.986217,0.12866 -1.926115,0.61004 -2.834457,1.0172 -0.966586,0.6605 -2.105142,0.88982 -3.228791,1.12613 -0.514284,0.30995 -1.376397,0.20125 -0.796033,-0.3773 -0.662304,0.0167 -0.08607,-0.74779 -0.78372,-0.69233 0.07612,-0.89447 -0.875932,-0.84501 -1.524752,-0.92906 -1.074452,-0.0288 -2.057478,0.51254 -3.120343,0.58741 -0.430855,0.11048 -0.782199,0.39965 -1.12812,0.6641 z" />
  <path
     id="path274"
     style="fill:#67882c;fill-opacity:1;stroke:#67882c;stroke-width:0.264583px;stroke-linecap:butt;stroke-linejoin:miter;stroke-opacity:1"
     d="m 79.438499,35.07021 c -1.89292,0.64641 -3.333533,-1.61236 -5.235678,-1.1071 -1.288189,0.34119 -2.342124,1.26766 -3.656982,1.56845 -2.04035,0.59912 -4.315089,0.58459 -6.30252,-0.14775 0.03969,0.57912 0.941061,0.36604 1.010434,1.1057 0.765704,0.0255 0.283733,0.24971 0.88924,0.22042 0.440063,0.71664 1.178748,-0.71558 1.353094,0.45669 -0.225936,0.31681 0.701595,-1.01016 1.095769,-0.045 0.613416,0.66582 -0.675558,0.96555 0.0079,0.20249 0.558379,-0.59144 1.047205,-0.0787 1.225018,0.29354 0.48868,-0.65186 0.493351,0.20371 0.914918,-0.44377 0.865305,0.14179 1.150957,-0.83886 1.933105,-1.02454 0.151681,0.6698 1.633535,-0.52511 0.693162,0.37294 -1.486987,2.04342 -3.420885,3.73936 -5.544736,5.08985 -1.214161,0.36506 0.962739,-0.1089 1.247611,-0.50764 1.336349,0.0842 2.121242,-0.76778 2.521051,-1.96884 0.362304,-0.80329 0.596325,0.40167 0.220306,-0.29611 -0.02441,-0.69595 1.132457,-0.48653 0.562073,-0.0597 0.174639,-0.90786 1.040356,-0.16015 1.058273,-0.98637 0.587789,-0.3472 0.665981,0.80396 0.916881,-0.19234 0.441666,-0.74515 0.696132,0.76526 0.44326,0.22569 0.484455,-1.06239 1.201203,-0.69228 0.973463,0.15294 0.376844,-0.25508 0.121117,-1.24124 0.262636,-0.28299 -0.08731,1.10112 1.444546,-1.08313 1.065545,0.36602 0.341713,0.59004 1.292481,-1.18089 0.853983,0.1826 0.551791,0.26118 1.021351,0.50459 1.247043,1.1026 1.001936,-0.49589 1.797619,1.26413 2.460793,0.94212 1.347089,-1.53007 -1.019748,-1.95645 -2.082844,-2.3768 -0.982405,-0.12767 -1.827508,-1.86142 -0.258916,-1.47058 0.850242,0.12476 1.696805,0.7116 2.247742,0.78981 0.325319,0.47215 1.161626,-0.6911 1.832342,-0.53883 0.661965,-0.23692 0.357263,0.73953 0.549402,-0.20553 0.646318,-1.13957 0.125392,1.3462 0.483453,0.16736 0.484044,-0.9404 0.679005,0.61224 0.908708,-0.46302 0.540191,-0.7594 1.245267,-1.24657 1.941935,-2.1057 -1.08198,-0.38858 -1.887886,0.81844 -2.968165,0.75306 -1.459512,0.26094 -2.923171,0.69463 -4.420759,0.54692 L 79.631195,35.27306 79.438469,35.0701 Z" />
  <path
     id="path282"
     style="fill:#39561c;fill-opacity:1;stroke:#39561c;stroke-width:0.264583px;stroke-linecap:butt;stroke-linejoin:miter;stroke-opacity:1"
     d="m 88.95299,32.28623 c 0.915791,0.10265 1.669975,0.87443 2.655994,0.61688 0.932957,0.0847 2.175864,-0.21781 2.92331,-0.0619 -0.37603,0.42857 -1.213646,0.86251 -0.134447,0.71384 -0.13375,0.536 -0.879613,0.0263 -0.589034,0.45505 -0.62355,0.45451 -2.433396,0.93122 -2.607297,-0.16821 -0.636263,0.51282 -1.282681,-0.21925 -1.732034,0.46044 -0.549397,-0.38329 -1.51896,-0.36962 -1.984365,0.23228 0.876974,0.47524 1.644626,1.38245 2.769985,1.02259 1.183771,-0.0729 3.091168,-0.46647 3.801974,0.56095 -0.689989,0.94508 -1.968821,0.66765 -2.757971,0.85755 -0.586081,0.56459 -1.25841,-0.45314 -1.835891,0.42567 -0.467023,0.45224 -0.661732,-0.66703 -0.67775,0.10877 -0.628028,-0.63551 -2.044163,-0.0711 -2.539282,-0.48018 0.143344,1.02792 1.484217,1.16359 2.318468,1.38639 1.422805,0.33287 2.904032,0.24829 4.303079,-0.14416 0.437726,-0.15702 2.162033,-0.4634 1.225865,0.24602 1.094828,0.69134 -0.728642,0.87851 -1.08683,1.29226 -0.443363,0.29579 -1.820161,0.34586 -1.160944,0.42389 -0.42409,0.3232 -1.075583,0.0125 -1.235263,0.10416 -0.364217,0.61374 -1.25507,-0.38385 -0.953301,0.0923 -0.311069,0.76429 -0.9962,-0.30794 -1.436226,0.25563 -0.594185,10e-4 -0.54555,-0.4571 -0.979616,0.006 -0.572809,-0.22647 -0.660317,-0.64543 -1.27649,-0.17453 -0.598335,0.48556 -1.735222,-1.3268 -1.242763,-0.12182 0.591999,1.12227 2.018591,1.02456 3.094502,0.93965 0.846708,0.18521 2.0348,9.7e-4 2.658595,0.16294 -0.708008,0.47131 -1.640935,0.7927 -2.441932,1.17463 -0.343667,0.4349 -1.892934,0.63786 -0.855331,0.0451 0.602075,0.0764 -0.877893,0.17464 -1.057188,-0.16575 -0.706936,0.27312 -0.716525,-1.05055 -1.351295,-0.35008 -0.529201,-0.18249 0.214757,-1.57672 -0.403957,-0.47815 -0.621117,0.97667 -0.237717,-0.98652 -1.011509,-0.17795 -0.736615,0.77438 -1.162474,-0.62638 -2.004319,-0.14588 0.253296,-0.84188 -0.942149,-0.57985 -0.811187,-1.46205 -0.902882,0.20584 -1.314563,-0.95813 -1.484164,-1.52909 0.186221,-0.34416 0.397845,-1.12179 -0.235309,-1.11363 0.475069,-0.46689 1.984165,0.11264 2.005004,-0.56322 -0.593614,-0.8246 -1.821446,-0.9768 -2.744263,-1.43047 -0.02219,-0.25565 0.233772,-0.8759 -0.333594,-0.59017 -0.115651,0.46081 -1.1756,0.80507 -0.269694,0.50783 -0.881034,-0.65044 0.996818,-0.18723 1.40119,-0.30899 1.367501,-0.0322 2.558997,-0.794 3.876364,-1.07291 1.10253,-0.29544 2.169226,-0.72687 3.130182,-1.34277 1.018691,-0.36962 1.984546,0.33444 3.00481,0.2813 0.396768,-0.1772 -0.228138,-0.6884 0.474617,-0.33091 0.32975,0.41714 -0.295046,-0.094 -0.410693,-0.15939 z" />
  <path
     id="path426"
     style="fill:#39561c;fill-opacity:1;stroke:#39561c;stroke-width:0.264583px;stroke-linecap:butt;stroke-linejoin:miter;stroke-opacity:1"
     d="m 79.412845,38.63406 c -2.069725,0.98625 -4.425249,0.83654 -6.634451,1.24455 -3.12977,0.41523 -6.269319,-0.0416 -9.392605,-0.27711 -0.458229,0.0629 -1.89475,-0.90458 -1.096799,-0.12045 -0.333519,0.63484 -0.21122,1.52818 -0.05191,1.96755 0.695127,-0.70679 0.67041,0.57822 0.03493,0.62957 0.09959,0.49874 1.024323,-0.7788 0.889689,0.2459 0.201274,0.48091 0.359114,-0.66161 0.763182,-0.11255 0.480235,-0.83942 1.320336,0.10136 1.734456,-0.56074 0.560216,-0.16246 0.544443,0.58318 0.868733,-0.0682 0.342563,0.11079 0.298482,0.25872 0.600928,-0.007 0.0038,0.88135 -0.750125,1.64071 -0.698621,2.55411 0.0042,1.03322 -1.633624,0.52827 -1.590329,1.19115 0.804713,0.39878 1.584386,-0.53305 2.391457,-0.65686 0.453711,-0.007 0.771682,-0.98814 1.037172,-0.32176 0.286824,-0.94201 0.597764,-0.22916 0.328167,-0.13947 -0.121956,-0.32002 0.353417,-0.99825 0.338474,-0.31845 0.08099,-0.42468 0.562221,-1.2519 0.670393,-0.35876 -0.0059,0.76583 0.583528,0.41054 0.294549,-0.13379 0.481486,-0.37383 1.035998,-1.6389 1.903183,-1.12254 0.442394,-0.0921 0.957475,-0.11723 1.248881,-0.67466 0.803012,0.95422 1.06606,-0.69361 1.877061,-0.78382 0.870597,0.24985 1.66416,-0.19857 2.481687,-0.48912 0.773829,-0.1786 1.951933,-0.22128 2.169177,-1.15926 0.0016,-0.18873 -0.06905,-0.37043 -0.167396,-0.52832 z" />
  <path
     id="path296"
     style="fill:#67882c;fill-opacity:1;stroke:#67882c;stroke-width:0.264583px;stroke-linecap:butt;stroke-linejoin:miter;stroke-opacity:1"
     d="m 78.846925,37.54363 c -1.028532,0.73503 -1.719303,1.87658 -2.876593,2.4468 -1.192633,0.68247 -2.416658,1.37658 -3.757532,1.71533 -0.844102,0.14423 -1.693115,0.26626 -2.510947,0.52741 -0.42949,0.12956 -1.149684,0.0529 -1.390904,-0.0103 0.130026,0.89905 1.43607,0.15077 1.505002,1.06387 0.444498,-0.30613 0.945311,0.67083 1.261641,-0.0946 0.62207,-0.29324 0.701471,1.26173 0.875989,0.30681 0.218134,-0.41791 0.669513,0.0792 0.843067,-0.49589 0.159996,-0.32456 0.616081,-1.43808 0.773167,-0.55447 -0.01499,0.28293 0.808388,-0.97873 1.11427,-0.2247 -0.0058,0.75525 0.549061,-1.08527 0.780512,-0.12251 0.336316,0.6785 0.390562,-1.02671 1.068361,-0.74194 0.306662,0.0891 0.197558,0.86076 0.522432,0.22198 0.103543,-0.42352 0.811962,-1.21726 0.770867,-0.32993 0.294111,0.25569 0.509287,-0.90789 1.012462,-0.98646 0.554122,-0.59717 0.574443,1.09447 0.741323,0.24618 0.117534,-0.61076 0.674152,-0.21282 0.903916,-0.0692 0.203219,-0.63014 1.347559,-1.02907 0.866591,-1.79952 -0.872295,0.0422 -1.900094,-0.15551 -2.422411,-0.96913 l -0.08121,-0.12974 z" />
  <path
     id="path304"
     style="fill:#67882c;fill-opacity:1;stroke:#67882c;stroke-width:0.264583px;stroke-linecap:butt;stroke-linejoin:miter;stroke-opacity:1"
     d="m 80.042397,44.5646 c 4.811475,1.74491 10.181307,0.49967 14.529714,-1.89754 0.728657,-0.36163 2.119982,-0.48871 1.041354,0.51669 0.114077,1.07622 -0.788443,1.60024 -1.425359,2.27463 -0.748775,-0.44499 -0.586225,1.369 -1.083547,0.37624 0.953138,0.5279 -0.85123,1.24312 -0.346149,0.18359 0.635524,1.2438 -1.854916,0.38898 -1.116961,0.45831 -0.232224,1.25102 -1.366591,-0.39358 -1.100493,0.67877 -0.695477,0.69327 -0.771299,-0.82265 -0.918762,0.33639 -0.866989,0.16807 -0.454897,-1.4539 -0.488134,-0.25282 -0.567026,0.5688 -0.781319,-0.11738 -1.407405,0.0971 0.19574,-0.9605 -0.816349,0.62446 -0.916654,-0.0537 0.546015,0.90231 -1.641956,0.33618 -1.268302,-0.18334 1.130134,0.8569 2.586842,0.97995 4.01458,0.96338 1.924514,-0.13247 -0.372253,1.80171 -1.350409,1.32327 0.625027,0.0748 -0.769778,0.83936 -0.667095,-0.0346 -0.299695,1.47121 -1.154151,-0.64427 -1.442186,0.52992 -0.883959,0.69716 -0.755503,-0.89339 -1.367298,0.016 -0.649933,0.0554 -0.386637,-0.72617 -1.077571,-0.33185 -0.527755,-0.49191 -0.437975,-0.81228 -1.088573,-0.27226 -0.651746,-0.29747 -1.17221,-0.35584 -1.682205,-0.752 -0.180481,-0.64435 -1.261283,-0.71808 -2.516076,-0.43467 -0.998505,0.18952 -1.872423,0.61708 -2.341181,0.65337 -0.409111,0.45534 -0.409237,-0.45974 -0.580886,0.36828 -0.65066,-0.50967 -0.231708,-0.005 -0.63274,0.31289 -0.380917,-0.66476 -0.556996,0.91042 -0.980486,-0.0524 0.297134,0.80168 -1.294975,1.14882 -1.192408,0.24062 -0.0947,0.72171 -1.24557,0.68408 -1.071789,-0.10358 -1.855133,0.8534 -0.98231,-2.40976 0.582286,-1.80789 1.625486,-0.81952 3.630559,-0.29502 5.237777,-1.24332 0.700982,-0.38752 2.331482,-1.17632 0.653521,-0.52689 -0.844198,0.0178 -1.813372,0.54626 -2.083585,-0.28029 -0.63556,0.98283 -1.456209,0.0146 -2.192629,0.65622 -0.423965,-0.83436 -0.227988,-0.21477 -0.969416,0.16014 -0.61996,-0.79725 -1.815514,0.84845 -2.351357,-0.14492 -0.05207,-0.53214 -0.678103,0.68861 -1.045578,-0.17791 -0.672202,-0.27291 -1.668996,-1.17331 -0.249758,-1.17008 1.451462,-0.11469 2.987625,-0.44915 4.251617,-1.22091 0.937757,-1.49458 2.576951,-0.82932 3.821928,-0.21431 1.226582,0.15941 2.881161,0.38829 3.814375,0.65023 -0.620113,0.10062 -2.562765,0.71058 -1.088631,0.91414 0.213109,-0.0897 0.228597,-0.39235 0.09647,-0.55506 z" />
  <path
     id="path312"
     style="fill:#39561c;fill-opacity:1;stroke:#39561c;stroke-width:0.264583px;stroke-linecap:butt;stroke-linejoin:miter;stroke-opacity:1"
     d="m 74.804494,45.15246 c -1.496176,0.0698 -2.834847,0.89048 -4.330879,0.97751 -1.15833,0.12116 -2.320302,0.21557 -3.478283,0.3335 -0.59732,0.0139 -1.20415,-0.20305 -1.760792,-10e-4 0.306673,-0.13696 1.01534,0.20934 1.367699,0.47214 0.163137,0.33582 0.842295,-0.0829 1.037936,0.50166 0.04822,0.53466 0.204589,-0.44028 0.481554,0.0632 0.375348,0.16298 0.59756,1.12515 0.761262,0.3245 -0.08641,-0.61241 0.810185,-0.83173 0.87453,-0.16129 -0.03817,-0.62713 0.802009,-0.57389 0.881671,-0.0199 0.397216,0.46497 0.08479,-0.74298 0.62488,-0.38201 0.336711,0.1098 0.404892,1.17163 0.736399,0.46983 0.07404,-0.38303 0.710135,-1.30129 0.954131,-0.56701 0.264321,0.46318 0.302831,-0.58146 0.722212,-0.23975 0.599685,0.43993 0.733373,-0.64023 1.32226,-0.5555 0.412272,-0.26613 1.27589,-0.74065 1.117757,-1.23642 -0.434883,0.0492 -0.891757,-0.19759 -1.312337,0.021 z" />
  <path
     id="path320"
     style="fill:#39561c;fill-opacity:1;stroke:#39561c;stroke-width:0.264583px;stroke-linecap:butt;stroke-linejoin:miter;stroke-opacity:1"
     d="m 77.503556,48.76831 c -1.67904,-0.15765 -2.685555,1.47712 -3.957594,2.28757 -1.498659,1.12595 -3.445982,1.5811 -5.285017,1.19146 -0.645732,-0.16615 -2.424835,-0.13674 -2.325352,-0.62175 1.010169,0.43497 2.352594,1.36781 2.954237,1.74118 0.821835,-0.6016 1.173132,0.89466 1.219605,-0.0503 0.511169,0.52526 -0.106026,0.66988 0.624678,0.0258 0.670584,-0.2402 0.06179,1.01092 0.45061,0.15247 0.629992,0.67801 1.122237,-0.99395 1.469445,0.0898 0.490298,0.028 0.525607,-1.76922 0.934219,-0.37112 0.117661,-1.10641 1.412307,-0.95593 1.5533,-0.75461 0.344626,-0.74136 1.256267,-0.96609 1.585836,-0.43037 0.348064,-0.80131 1.074572,-0.65369 1.031482,0.15328 0.322331,-1.05101 0.725923,0.0912 1.201415,-0.395 0.919632,0.43137 2.006515,-0.69463 2.082777,0.85253 0.58508,-0.15831 0.853625,0.38335 1.322813,-0.34129 0.139466,1.05149 0.737308,-0.85708 1.385014,0.17856 0.453097,-0.86119 0.615142,-0.16672 1.113095,-0.61351 0.443027,0.20211 0.677845,0.53178 1.011483,0.0969 0.477456,0.38611 0.970109,0.47929 1.353045,0.15647 0.54009,1.53729 1.348317,-0.69582 2.407468,0.262 0.683129,0.0978 2.631032,-0.87592 2.117022,-1.24796 -1.127685,1.11619 -0.541835,-1.66697 -1.889713,-0.9266 -1.6788,0.55942 -3.529034,0.25372 -5.277351,0.301 -1.194421,-0.25976 -3.579841,-0.65526 -3.59815,-2.07345 0.978103,-1.23896 -1.332543,-0.2039 -1.978444,-0.24224 -0.541589,0.0699 -1.057761,0.26545 -1.505923,0.57902 z" />
  <path
     id="path328"
     style="fill:#67882c;fill-opacity:1;stroke:#67882c;stroke-width:0.264583px;stroke-linecap:butt;stroke-linejoin:miter;stroke-opacity:1"
     d="m 70.219791,53.14948 c -3.693521,0.56109 -7.752959,-0.2847 -10.443968,-3.007 -1.241344,-1.06179 0.141426,2.49254 0.625391,1.83161 0.105942,1.14737 -0.09283,-0.60664 0.07096,0.66913 -0.277915,0.29409 0.627403,-0.24042 0.78734,0.55717 0.776036,-0.94017 0.90008,1.9285 1.22357,0.48581 0.301825,1.05597 1.307158,-0.42965 1.420829,0.78609 1.282012,-0.42158 2.51181,0.43711 3.045946,0.70105 0.03452,0.79463 0.343728,-0.21295 0.703181,0.51894 0.348527,0.25136 0.663426,0.85232 1.392134,0.25 0.458498,0.0141 1.260066,1.80424 1.863057,0.31741 0.526186,-0.0342 0.478914,-0.002 1.067513,0.26534 0.176941,-1.19153 1.11924,0.3745 1.35621,-0.67595 0.661936,1.23139 1.010068,-1.0158 1.642778,-0.0908 0.721234,-0.45625 1.252904,-0.65396 1.892167,-1.18848 0.03703,0.82021 1.867961,-1.91714 1.142001,-0.41564 -0.0712,-1.64399 0.375257,1.52599 1.253278,0.24339 1.161938,-0.88929 0.167114,2.06315 1.184148,1.21237 0.157223,0.40413 0.674173,1.40609 0.974075,0.4947 0.459065,1.79128 1.385822,-0.75955 2.536375,-0.31453 0.560408,-0.2936 1.444393,-0.95146 1.134289,0.24348 0.616301,-1.07283 0.996619,0.84381 1.793376,-0.23229 1.075073,0.38798 1.792159,0.78552 2.381675,1.20792 0.288494,-1.50511 2.610851,0.62691 1.141933,-0.55859 1.537782,-0.68864 2.374504,-0.75347 3.977077,-1.2396 0.622209,-0.56043 2.486659,-1.97253 0.674559,-2.02525 -1.677945,1.2318 -3.914159,0.42201 -5.832184,0.80521 -2.041467,0.64416 -3.346709,-1.16619 -4.962197,-1.63004 -1.459825,0.81411 -2.972663,1.70922 -4.449518,0.24661 -1.628922,-1.26151 -3.389253,0.0565 -4.933553,0.69727 -1.537485,0.35726 -3.107451,-0.44837 -4.662441,-0.15538 z" />
  <path
     id="path336"
     style="fill:#39561c;fill-opacity:1;stroke:#39561c;stroke-width:0.264583px;stroke-linecap:butt;stroke-linejoin:miter;stroke-opacity:1"
     d="m 72.019165,54.93522 c -1.172152,1.06407 -2.377291,2.23445 -3.993578,2.54862 -2.195011,0.53814 -4.508056,0.45018 -6.723599,0.0837 -0.879107,-0.18089 -1.740536,-0.48304 -2.506544,-0.95609 0.128298,-0.57561 -0.503248,-0.31182 -0.646926,-0.62833 0.948833,0.16834 0.457313,1.19496 1.02818,1.66942 0.293419,0.41543 -0.337138,0.82657 0.05129,0.23382 0.530467,-0.35168 1.575237,0.95367 0.982144,1.0034 -0.0025,-0.91651 0.797041,0.74046 0.391983,0.46823 0.06559,-0.95549 1.474636,0.0331 0.966629,0.25424 0.201785,-0.89277 0.944835,0.10447 1.037992,0.33242 0.317547,-0.79358 1.034637,-0.59188 0.95938,0.23305 0.107345,-0.5315 1.086491,-0.53144 1.081681,0.20532 -0.0081,0.73555 0.585697,-0.88714 0.987636,-0.0237 0.308532,0.438 0.34679,0.39958 0.494768,-0.0369 0.391444,-0.43284 1.025976,-0.26983 1.279793,0.0644 0.690964,-0.24602 1.346021,-1.28939 2.130401,-0.61143 0.468192,0.30468 0.07612,0.69139 0.282611,0.0982 0.386593,-0.27384 0.912486,-1.3216 1.019176,-0.34934 0.069,-0.85652 1.362671,-1.25743 1.177535,-0.17438 0.282045,-0.5566 0.766835,-1.44016 1.021888,-1.87226 -0.274417,0.82995 0.246963,-0.54013 0.447772,-0.73076 -0.5642,-0.52853 0.0386,-1.48225 -0.464034,-1.9379 -0.345855,0.0239 -0.691377,0.55671 -1.006178,0.12632 z" />
  <path
     id="path344"
     style="fill:#67882c;fill-opacity:1;stroke:#67882c;stroke-width:0.264583px;stroke-linecap:butt;stroke-linejoin:miter;stroke-opacity:1"
     d="m 75.741153,54.52483 c -0.966337,0.61383 -0.78614,2.0089 -1.65134,2.74258 -1.076591,1.33032 -2.486286,2.60521 -4.283458,2.70103 -1.811007,0.11114 -3.617323,0.26587 -5.421851,0.46118 -1.645494,0.11069 -3.386543,0.16107 -4.922827,-0.50235 -0.431585,0.0188 -1.240674,-0.58542 -0.413161,-0.0759 0.775552,0.75056 1.251944,1.64933 2.260835,2.1333 0.05438,0.83949 0.64159,0.92404 0.567441,1.81686 0.0025,-1.24995 1.461649,-1.7393 1.783846,-0.42222 -0.156987,0.89367 0.27848,0.65029 0.323785,-0.0658 -0.031,-0.98027 1.204674,-0.97222 1.109004,0.0302 0.399078,0.1681 0.749413,-2.21473 1.251661,-0.89853 0.131032,1.51905 0.05695,-1.13 0.839759,-0.13647 -0.207289,1.42387 0.842577,-1.08849 0.777083,0.3194 0.06174,-0.29978 0.585857,-0.60483 0.49593,-0.13285 0.123131,-1.02367 1.502837,-0.53566 0.848496,-0.30987 0.235585,-0.82147 1.172783,-0.0665 1.170691,-0.75725 0.476937,-0.70446 1.299305,0.42288 1.226316,-0.38356 0.263743,-0.7921 0.995066,-0.28268 1.15536,-0.2374 -0.0038,-0.61959 1.282097,-1.75291 0.991915,-0.51793 0.48753,-0.26556 0.720961,-1.58378 1.149534,-0.94029 -0.0411,-0.49838 0.505442,-1.13436 0.817871,-0.44517 -0.01068,-0.89554 0.600355,-1.66812 0.979401,-2.27657 0.352108,0.45695 0.114285,-1.11798 0.879964,-0.85862 0.617255,-0.55835 1.188987,-1.61373 -0.07314,-1.6442 -0.674554,-0.22148 -3.041028,0.0766 -1.185299,0.83303" />
  <path
     id="path352"
     style="fill:#39561c;fill-opacity:1;stroke:#39561c;stroke-width:0.264583px;stroke-linecap:butt;stroke-linejoin:miter;stroke-opacity:1"
     d="m 76.739437,56.83188 c -0.536077,0.97291 1.270273,0.6341 1.004519,1.68791 -0.418277,1.07108 0.610514,-1.06533 0.735657,0.16874 0.144826,0.3728 -0.670483,1.34094 0.125575,0.70899 0.864818,-0.46578 0.670038,1.41156 1.385793,0.50178 0.434258,-0.97396 1.936463,-0.77187 1.144056,0.36022 0.423997,-1.09352 0.292571,1.22404 0.533023,0.87767 0.259332,-0.62434 0.907677,-0.6812 0.721146,0.12361 0.228341,0.65042 0.896931,-1.09238 1.211115,0.13857 0.06582,0.77579 0.398494,0.75204 0.707326,0.0686 0.636085,-0.9882 0.411735,1.53752 0.982472,0.17148 0.493712,0.59024 1.378312,1.47851 2.344934,0.79846 0.178605,-0.43295 0.776614,-0.58846 0.943986,-0.76883 -1.295495,-0.75302 -2.103924,-2.16545 -3.556282,-2.67572 -1.269999,-0.33387 0.647711,-0.20517 0.96726,0.14219 0.620004,-0.0159 1.404688,-0.14837 1.74366,0.43456 0.370017,-0.38093 0.911233,-0.74025 1.122433,-0.0548 0.490678,-0.5415 0.925954,-0.56736 1.220242,0.0961 0.416973,-0.42798 0.805738,-0.57315 1.183482,-0.19014 0.481928,-0.35596 0.899669,-1.14372 1.382027,-0.5277 0.31611,-0.28751 0.777376,-0.86688 0.68469,-0.0226 0.473132,-0.25957 0.821356,-1.30657 1.684971,-1.3644 0.729486,-0.25831 0.354413,-1.0758 -0.237309,-0.41363 -1.314883,-0.0769 -2.768446,-0.2283 -4.146036,-0.0853 -1.814197,0.0789 -3.74248,0.25371 -5.41128,-0.61986 -1.478179,-0.7238 -3.159492,-0.41748 -4.73504,-0.69366 -0.913264,-0.038 -2.019801,-0.66526 -2.781894,0.10968 -0.25059,0.39458 -0.469717,0.8852 -0.960526,1.02813 z" />
  <path
     id="path360"
     style="fill:#39561c;fill-opacity:1;stroke:#39561c;stroke-width:0.264583px;stroke-linecap:butt;stroke-linejoin:miter;stroke-opacity:1"
     d="m 78.440216,58.11851 c -2.309322,2.16564 -4.971289,4.07282 -8.011865,5.04391 -1.447428,0.37746 -2.942868,0.52297 -4.414664,0.76866 -0.592229,0.10162 -1.809042,-0.22051 -1.994127,-0.10844 0.770996,0.36335 1.329576,1.64195 1.926339,1.76446 0.08925,-0.64464 0.435333,-0.40594 0.621183,0.0257 0.317938,-0.217 0.464077,-1.45907 0.769233,-0.4862 0.350818,0.84267 0.174438,-0.96225 0.880676,-0.35475 0.288708,0.45238 0.449067,0.71976 0.774602,0.0644 0.550722,-0.858 0.544164,1.40851 0.713091,0.21486 0.03554,-0.54339 0.681882,-0.0117 0.724137,-0.67162 0.306599,-0.66829 1.261808,-0.84433 1.51678,-0.2302 -0.160435,-0.67745 1.010687,-1.15744 0.977331,-0.26156 0.123959,-0.44058 0.490504,-1.03719 0.83418,-0.55043 0.461395,-0.20459 0.954212,-2.1058 1.241939,-0.91456 0.06438,0.15489 0.444113,0.48524 0.434743,0.92182 0.600063,-0.0264 1.499316,0.67119 1.934199,-0.21483 0.285749,-0.45542 1.697773,-0.10921 0.937217,-0.63266 -0.23006,-0.54606 0.03309,-0.84227 0.354811,-0.2746 0.592417,-0.0608 0.809651,-0.33812 0.672069,-0.8499 0.0051,-0.51354 0.274708,-0.30961 0.19925,-0.44533 0.955383,-0.6349 0.40015,-1.71053 -0.222525,-2.38133 -0.228049,-0.13554 -1.344116,-0.4977 -0.598071,-0.55518 0.127179,0.0971 0.188809,0.27581 0.358038,0.31625" />
  <path
     id="path368"
     style="fill:#67882c;fill-opacity:1;stroke:#67882c;stroke-width:0.264583px;stroke-linecap:butt;stroke-linejoin:miter;stroke-opacity:1"
     d="m 79.771258,60.83594 c 2.034921,0.37808 3.905759,1.34061 5.914378,1.80377 1.757922,0.32276 3.384379,-0.60693 5.043637,-1.02427 1.263772,-0.32041 2.559404,-0.68249 3.555399,-1.57532 0.953253,-0.5348 2.06786,-1.14334 3.123273,-1.22696 0.02553,0.49746 -0.05361,1.05458 0.388476,1.14202 0.04745,0.79147 -1.788333,1.24591 -1.653382,0.85181 0.449787,0.77006 -1.144749,0.6704 -0.586622,0.0948 0.251425,1.01701 -1.136753,0.38244 -0.778592,1.23951 -0.271079,0.80338 -1.009095,-0.52927 -0.379814,0.24385 -0.22767,0.85507 -1.528039,-0.7157 -0.844043,0.17561 -0.553869,0.33517 -1.291887,-0.29449 -1.572705,0.60172 -0.421877,0.76642 -1.160857,-0.3384 -1.350545,0.69721 -0.388026,0.24072 -0.580006,-0.53174 -0.898394,0.1515 -0.487464,-0.0499 -0.394079,0.0192 -0.815696,0.43528 -0.742803,0.0636 -1.250065,-0.38197 -2.021152,-0.066 -0.828415,0.0117 -1.011279,-2.04727 -1.553601,-0.62495 -0.351896,1.21723 -1.535223,-0.5748 -2.286784,0.27805 -0.477255,-0.1734 -0.889148,-0.634 -1.31024,-0.53597 -0.77978,-0.58255 -1.83133,-0.59543 -2.632801,-1.25834 -0.694547,-0.0619 -2.280253,-0.47851 -1.058053,-1.16632 0.513809,-0.32767 1.146237,-0.18785 1.717261,-0.237 z" />
  <path
     id="path376"
     style="fill:#39561c;fill-opacity:1;stroke:#39561c;stroke-width:0.264583px;stroke-linecap:butt;stroke-linejoin:miter;stroke-opacity:1"
     d="m 92.933791,62.88788 c 1.282399,-0.10628 2.56018,-0.6631 3.834177,-0.43711 0.842878,-0.14405 0.5788,-0.29188 0.181546,0.30404 0.274066,0.90194 -1.440191,0.63137 -1.216871,1.45406 -0.401554,-0.47431 -0.332305,1.02389 -0.929283,0.21275 0.01642,-0.68247 0.715561,0.64218 -0.04092,0.43116 0.603405,0.82956 1.795526,0.8886 2.732279,0.89904 1.021079,-0.0737 2.488708,-1.83164 3.171531,-0.59225 -0.42522,0.50773 -1.26773,0.49218 -1.210577,1.05054 -0.716792,0.16881 -0.769356,0.11389 -0.137388,0.54769 0.873115,0.98903 -1.105225,-0.25323 -0.492187,0.92403 -0.473126,0.62757 -1.76832,-0.15679 -2.006996,0.36689 -0.680817,-0.37033 -1.069943,-0.53986 -1.654074,-0.56552 0.345269,0.57138 -0.215341,1.46095 -0.601581,0.52562 -0.478723,-0.5209 -0.838329,1.25583 -1.167809,0.056 -0.04872,-0.0643 -0.923255,-0.20589 -0.126471,0.14965 -0.330845,0.76128 -2.010694,-0.77638 -0.679285,-0.0792 0.431313,0.73249 -1.157177,-0.58742 -0.145386,-0.0453 0.833772,0.23078 0.764967,1.39428 -0.08657,0.60912 -0.633771,-0.15808 -1.574282,-1.02471 -0.64375,-0.18248 0.593407,1.15182 -2.098053,-1.12628 -0.682744,-0.0322 1.138037,0.86997 -2.20164,0.26875 -1.147944,0.26036 0.731033,0.64698 -0.906388,-0.49672 -0.287313,0.13398 -0.500031,0.30921 -0.847905,-0.0714 -0.126237,0.26018 1.146842,0.99926 -2.190419,-0.61385 -0.594506,0.0623 1.444836,0.90449 -1.653387,0.5402 -1.116928,0.17781 1.195337,0.69231 -0.420941,1.56806 -0.807993,0.44342 -0.53498,-0.77965 0.715316,-0.21256 -0.03698,-0.2371 -0.448716,-0.90405 -1.275301,0.046 -1.675805,-0.92415 -0.334782,0.91659 -0.700425,-0.13805 -1.241998,-0.0767 -0.228537,-0.4917 -0.219366,-1.35368 -0.254764,-0.31325 0.05392,1.08809 -1.435232,-0.11738 -1.204643,0.11597 -0.300454,0.46875 -0.609412,-1.27782 -1.261835,-0.31878 -1.065643,0.13593 -1.866604,-0.81571 -2.738698,-1.18608 -0.405116,-1.00977 1.382162,-0.28203 1.399525,-1.51824 0.768003,0.52526 1.853374,0.51049 2.811318,0.35991 0.562819,0.0517 1.654088,-0.91681 1.221588,-0.95675 0.257522,0.33373 0.961274,0.63494 0.35517,0.1415 0.857275,-0.32952 1.454254,-0.70659 2.398678,-1.22084 1.581744,-0.11189 3.189089,-0.3081 4.779872,-0.47613 0.628498,0.0844 1.697563,-0.84221 1.813921,0.29733" />
  <path
     id="path390"
     style="fill:#67882c;fill-opacity:1;stroke:#67882c;stroke-width:0.264583px;stroke-linecap:butt;stroke-linejoin:miter;stroke-opacity:1"
     d="m 78.45254,62.48858 c 0.53364,1.22513 1.8781,1.6996 2.932782,2.371 0.339985,0.1189 1.329114,0.65218 0.459925,0.78314 -0.300747,-0.0203 -1.177715,0.40418 -1.083934,0.41821 0.640109,-0.48744 0.256828,0.39332 -0.01616,0.59664 0.483162,0.79642 -0.681653,0.97362 -1.221774,0.74484 -0.250514,0.35117 -0.429206,1.56037 -1.035148,0.78902 -0.597515,-1.0011 -0.0244,1.03129 -0.853517,0.55375 -0.09169,-0.36043 -0.443554,-0.94466 -0.305984,-0.18088 -0.161912,0.67305 -1.42745,-0.73269 -1.399388,0.37095 0.02078,0.68447 -0.862442,0.60843 -0.959857,0.0596 -0.481788,0.56267 -0.381069,-0.84109 -0.95567,-0.11206 -0.43086,0.19973 -0.911591,-0.47029 -1.195439,0.24201 -0.461094,0.41849 -0.943679,-0.49758 -1.531449,-0.0735 -0.652685,0.0612 -1.341746,-0.20444 -1.816039,-0.65361 0.673428,-0.21757 1.420366,-0.21113 2.086795,-0.54234 1.10426,-0.30705 2.478356,-0.43321 3.122077,-1.51888 0.300699,-0.34721 0.457997,-0.91843 -0.09238,-0.42708 -0.683098,0.39801 -0.430751,-0.35601 -0.263495,-0.68371 -0.169805,-0.43296 -1.49642,0.46977 -1.278169,-0.15538 0.384523,-0.0438 1.075389,-0.82219 0.342106,-0.46268 -0.225764,0.44717 -0.501117,0.93173 -1.023552,0.63354 -0.16381,0.24363 -0.459012,0.99847 -0.590779,0.29854 -0.240837,-0.93038 1.219355,-0.41585 1.727811,-0.82734 1.416257,-0.4347 2.70775,-1.26302 3.692502,-2.36781 0.581856,-0.75952 1.399369,-0.056 1.473508,0.67576 0.03088,0.0964 0.06034,0.1933 0.09334,0.28903" />
  <path
     id="path398"
     style="fill:#39561c;fill-opacity:1;stroke:#39561c;stroke-width:0.264583px;stroke-linecap:butt;stroke-linejoin:miter;stroke-opacity:1"
     d="m 73.066743,63.85285 c -2.166255,1.19802 -4.572741,2.08955 -7.077786,2.06623 -1.569055,0.0145 -3.241666,0.23873 -4.677044,-0.5569 -0.851392,-0.47183 -1.727665,-0.97427 -2.300415,-1.77763 -0.845529,-0.42312 0.622353,0.75329 0.277554,1.22082 0.139294,0.674 0.653,1.42716 0.918286,1.95867 0.467381,-0.12491 0.573819,1.36301 0.65632,0.28505 0.444631,-0.66823 0.657813,1.28674 0.948407,0.3632 0.231818,0.17303 -0.132545,1.30387 0.294786,0.722 0.239464,-0.8283 0.403734,0.14547 0.620989,0.12624 0.17774,-0.72575 0.670026,-0.29957 0.7645,0.23233 0.0018,-0.89453 1.033983,-0.8836 1.09271,8.8e-4 -0.226679,-0.0236 0.336596,-0.50459 0.339867,0.0702 0.243266,0.64925 0.155832,0.17717 0.359578,0.043 0.06682,0.46529 -0.233586,1.18054 -0.09127,1.79625 -0.302433,0.48093 0.59018,0.0303 0.202305,0.48405 0.128243,-0.94252 -1.605023,0.51528 -0.350507,0.45292 0.756683,-0.218 1.576955,-0.99168 2.3361,-0.29048 0.469697,0.19794 -0.246222,-0.76518 0.428997,-0.44395 -0.03903,0.50976 0.654299,0.7359 0.366227,0.1046 0.242655,-0.88554 0.811846,0.44833 0.893644,0.50285 -0.196206,-0.5229 0.277504,-0.68948 0.372519,-0.12183 0.03294,0.54545 0.247772,-1.31632 0.80341,-0.41005 0.740495,0.50138 -0.40766,-1.41239 0.610227,-0.87856 0.438535,0.52079 0.914293,0.12577 0.395213,-0.35632 -0.367053,-0.50108 0.717719,-1.02996 0.400671,-0.65771 -0.308929,-0.29198 -0.463426,-0.84312 0.102513,-0.68348 0.431614,-0.67992 1.092486,-1.0241 1.798006,-1.34984 0.938953,-0.47389 0.324052,-1.62888 -0.610979,-1.18775 -1.227652,0.1335 0.467186,-1.01257 0.12517,-1.71474 z" />
  <path
     id="path406"
     style="fill:#39561c;fill-opacity:1;stroke:#39561c;stroke-width:0.264583px;stroke-linecap:butt;stroke-linejoin:miter;stroke-opacity:1"
     d="m 80.004419,3.61797 c -0.955305,0.48151 -2.032563,0.65605 -3.093968,0.66555 -0.516241,0.0132 -1.049669,0.0501 -1.550918,-0.0955 -0.126474,-0.0625 -0.667906,-0.32476 -0.296064,-0.31622 0.295803,0.0347 0.583017,0.11951 0.830771,0.29224 0.112583,0.17239 -0.26182,0.34715 -0.113023,0.57767 -0.03381,0.20993 0.116503,0.18358 0.213686,0.20116 0.0898,0.22554 -0.02945,0.56141 -0.134838,0.72839 0.118325,-0.15786 0.33635,-0.57025 0.642499,-0.43705 0.30008,0.0718 0.533455,-0.17015 0.67298,-0.40406 0.09554,-0.165 0.304998,-0.27123 0.338288,-0.0208 0.216039,-0.0392 0.236747,0.36049 0.452502,0.19571 0.131035,-0.25654 0.566035,-0.38579 0.651609,-0.0227 0.158598,0.0997 0.39215,0.007 0.470037,0.26699 0.213634,0.31738 0.529047,-0.0909 0.681168,-0.26915 C 80.02742,4.6594 80.330778,4.32051 80.387691,3.89907 80.360951,3.71482 80.145959,3.67964 80.004419,3.618 Z" />
  <path
     id="path412"
     style="fill:#39561c;fill-opacity:1;stroke:#39561c;stroke-width:0.264583px;stroke-linecap:butt;stroke-linejoin:miter;stroke-opacity:1"
     d="m 81.273842,4.46092 c 0.547136,0.21904 1.145392,0.4055 1.74006,0.31392 0.443516,-0.0964 0.852882,-0.33315 1.18848,-0.63432 0.0707,-0.13818 0.167299,-0.14614 0.09287,0.0211 -0.04809,0.20959 -0.0716,0.42843 -0.135346,0.63915 0.07363,0.0851 0.354368,-0.0262 0.189495,0.19249 -0.158163,0.12956 -0.353609,0.463 -0.572548,0.34322 -0.0065,0.10854 0.07605,0.3581 -0.123498,0.45058 -0.195649,0.19357 -0.397215,-0.0991 -0.606584,-0.0483 -0.223339,0.0886 -0.578797,0.11262 -0.626873,-0.20174 -0.009,-0.10087 -0.121732,-0.32273 -0.0968,-0.1012 -0.09699,0.23119 -0.526341,0.27096 -0.773696,0.23559 C 81.328303,5.69711 81.476672,5.19155 81.270445,5.4676 81.072441,5.537 80.631714,5.4696 80.678221,5.1902 80.94216,4.90922 80.300352,4.94776 80.485647,4.67524 80.664398,4.48698 80.951775,4.5167 81.188138,4.47223 c 0.0286,-0.004 0.05723,-0.007 0.08571,-0.0112 z" />
  <path
     id="path418"
     style="fill:#67882c;fill-opacity:1;stroke:#67882c;stroke-width:0.264583px;stroke-linecap:butt;stroke-linejoin:miter;stroke-opacity:1"
     d="m 79.15403,30.84778 c -1.277115,0.95211 -2.894238,1.19461 -4.340957,1.78182 -0.844949,0.31139 -2.165593,0.34525 -2.344636,-0.76953 -0.577317,-0.18497 -1.141308,0.62325 -1.794894,0.68753 -0.632351,0.0556 -1.527345,0.74848 -1.925329,0.0475 -0.729977,-0.30355 -1.499948,-0.67716 -2.312543,-0.62706 0.272757,0.43262 -0.395504,1.01562 -0.238426,1.19146 0.272375,0.14602 0.322518,0.45665 0.680702,0.046 0.590039,-0.48442 0.265305,1.04845 0.360562,0.47039 0.06753,1.03588 0.411737,-0.53167 0.984913,-0.0844 0.367744,0.84962 0.274884,-0.30602 0.582628,-0.44237 0.630903,-0.0768 0.08895,1.37085 0.59685,0.64536 0.424682,-0.69449 0.899095,0.7631 0.975571,-0.0651 0.235664,-0.56855 0.237291,0.0472 0.297999,0.27525 0.284188,-0.0524 0.440788,-0.92986 0.868826,-0.30909 0.590656,0.45447 0.800237,-1.09731 1.559448,-0.75052 0.748633,0.3009 1.520498,0.39423 2.327037,0.35563 0.619515,-0.36606 1.622436,0.54919 1.76653,-0.53611 0.683044,0.22924 1.098952,-0.54318 1.782529,-0.74569 0.411546,-0.21302 1.270817,-1.34624 0.550682,-1.38898 -0.124553,0.0748 -0.250422,0.14743 -0.377492,0.21786 z" />
</svg>
