<?xml version="1.0" encoding="UTF-8" standalone="no"?>
<svg
   xmlns:dc="http://purl.org/dc/elements/1.1/"
   xmlns:cc="http://creativecommons.org/ns#"
   xmlns:rdf="http://www.w3.org/1999/02/22-rdf-syntax-ns#"
   xmlns:svg="http://www.w3.org/2000/svg"
   xmlns="http://www.w3.org/2000/svg"
   xmlns:sodipodi="http://sodipodi.sourceforge.net/DTD/sodipodi-0.dtd"
   xmlns:inkscape="http://www.inkscape.org/namespaces/inkscape"
   id="svg8"
   version="1.1"
   viewBox="0 0 158.75 79.375"
   height="300"
   width="600"
   sodipodi:docname="ol-forest-krummholz.svg"
   inkscape:version="1.0.1 (3bc2e813f5, 2020-09-07)">
  <sodipodi:namedview
     pagecolor="#ffffff"
     bordercolor="#666666"
     borderopacity="1"
     objecttolerance="10"
     gridtolerance="10"
     guidetolerance="10"
     inkscape:pageopacity="0"
     inkscape:pageshadow="2"
     inkscape:window-width="1920"
     inkscape:window-height="1061"
     id="namedview17"
     showgrid="false"
     inkscape:zoom="2.8"
     inkscape:cx="300"
     inkscape:cy="150"
     inkscape:window-x="0"
     inkscape:window-y="19"
     inkscape:window-maximized="0"
     inkscape:current-layer="svg8" />
  <defs
     id="defs2" />
  <metadata
     id="metadata5">
    <rdf:RDF>
      <cc:Work
         rdf:about="">
        <dc:format>image/svg+xml</dc:format>
        <dc:type
           rdf:resource="http://purl.org/dc/dcmitype/StillImage" />
        <dc:title></dc:title>
      </cc:Work>
    </rdf:RDF>
  </metadata>
  <path
     d="m 50.377032,59.31978 c -0.603328,3.07375 -1.310511,6.20165 -2.639344,9.04046 -0.770098,1.65926 -4.035108,4.2599 -2.334507,5.77399 1.789691,-0.79432 3.656421,-1.30343 5.629394,-1.43935 1.252848,-2.45969 -0.514082,-5.48035 0.329386,-8.21512 0.417197,-3.29803 1.374902,-6.46418 2.128656,-9.69016 0.88196,-3.58863 1.51141,-7.35409 3.719447,-10.42946 1.90012,-2.79383 1.684563,-6.34688 3.017783,-9.33834 1.654345,-2.30078 4.733862,-3.06136 7.320287,-3.84884 5.232938,-0.82962 10.570357,-0.87671 15.84923,-0.58803 0.873924,5.1e-4 4.400797,0.16049 2.082298,-0.59459 -2.263693,-0.61916 -4.679177,-1.30619 -6.749967,0.35047 -2.432521,-1.70738 2.178545,-3.0096 3.73838,-2.47038 2.739806,-1.38456 6.435438,-1.83595 8.689079,-3.57662 -1.258578,0.0854 -2.763347,1.93845 -4.667524,1.30317 -2.899354,0.6317 -5.609113,1.94602 -8.431295,2.8491 -2.890706,1.97738 -6.536892,0.95304 -9.729319,1.95443 -1.506573,0.0832 -5.710182,0.9701 -5.462294,2.07751 1.397224,-2.52466 4.952676,-3.62209 7.574633,-4.8457 3.497497,-1.16339 6.651751,-3.11077 10.038001,-4.53743 2.443737,-0.974 4.891794,-2.55041 7.637248,-2.06859 3.387172,-0.20357 6.320537,-2.27358 9.459857,-3.40204 1.895532,-0.66344 -0.234869,-1.27602 -0.699499,0.18666 -3.005464,0.97029 -6.191521,1.4462 -9.228963,1.66449 -1.787914,0.43898 2.17424,-1.22282 2.886276,-1.31501 2.51526,-0.74989 5.030478,-2.6691 7.554984,-2.03534 -1.370667,-0.75001 -4.347988,0.3823 -6.282182,0.5683 -3.360938,0.79631 -5.970366,3.23424 -9.163811,4.38318 -2.706197,0.96983 -5.503424,1.67531 -8.129792,2.86175 -2.233773,1.06792 -4.567472,1.95648 -6.769814,3.09956 -0.983268,-0.0291 -2.285941,1.42034 -1.015511,0.35427 2.477761,-1.65426 5.495976,-2.99544 6.81449,-6.01235 1.577303,-2.3557 3.18606,-5.32247 6.379707,-5.46812 1.78612,0.27582 1.903246,-1.86087 0.469051,-0.21011 -2.854583,-0.0133 -5.800898,0.46942 -6.937446,3.61464 -1.435192,2.18196 -2.564886,4.66478 -5.057372,5.8537 -2.97833,1.10541 -4.595002,3.6637 -6.695498,5.87004 -1.444493,2.3406 -3.877793,3.77381 -5.329327,6.05468 -1.21864,3.78825 -3.021612,7.38891 -3.628951,11.35943 -0.965619,3.56646 -2.348187,7.12834 -2.365771,10.86575 z"
     style="fill:#342c29;fill-opacity:1;stroke:#342c29;stroke-width:0.264583px;stroke-linecap:butt;stroke-linejoin:miter;stroke-opacity:1"
     id="path164" />
  <path
     d="m 51.720398,46.28719 c 0.464665,3.01846 -1.312529,5.86611 -0.734547,8.90234 0.06022,2.82597 0.356162,5.64517 0.368297,8.46221 -0.309423,2.41207 -0.316582,4.86375 -0.235966,7.28421 0.319793,3.25016 3.575327,0.49959 5.292572,0.84711 -1.26166,-2.52675 -2.202516,-5.51663 -1.947966,-8.42836 0.181943,-3.41254 0.660621,-6.83564 0.05511,-10.23895 -0.292161,-3.48015 0.807915,-7.0197 -0.280764,-10.44435 -0.726329,-2.43462 -0.942804,-4.97322 -0.365393,-7.46425 -0.07135,-2.73602 0.28293,-6.04465 2.921322,-7.5561 2.240628,-0.6012 4.221728,-1.7478 5.797062,-3.47175 1.939633,-1.77267 3.48497,-3.91766 5.421458,-5.69598 1.847831,-2.64368 4.443925,-4.63348 6.233707,-7.32985 0.307114,-0.59051 3.165277,-2.9698 1.795562,-2.50396 -1.587872,1.90218 -3.851871,3.32242 -5.251401,5.54846 -2.140667,2.10648 -5.109503,3.54237 -6.180892,6.5536 -1.264178,2.53674 -3.979885,3.78015 -6.020835,5.58001 -1.811617,0.72328 -4.331906,0.79774 -5.9655,1.37143 -0.437826,-2.23121 2.990465,-2.7613 3.754589,-3.5964 -2.219667,0.16643 -4.875653,1.2637 -5.478679,3.72773 0.909209,1.50962 2.899471,2.74945 1.783876,4.94038 -0.413146,2.89452 0.609081,5.9098 -0.07531,8.7285 -1.972579,-0.0294 -3.604049,-3.97228 -1.144282,-5.01084 1.947742,-1.16682 4.897584,-0.58104 6.023255,-2.98686 1.46631,-2.15829 2.432258,-5.08698 5.27246,-5.77626 2.43908,-1.02643 5.094372,-1.70195 7.74621,-1.21219 3.291353,-0.007 6.684423,0.86211 9.91451,-0.0494 1.239778,-1.14242 3.099935,-0.49711 4.146245,-0.71611 -1.626031,-0.0548 -3.782372,0.59882 -5.634476,0.43606 -3.576541,0.37549 -7.108145,-0.50361 -10.684473,-0.48743 -2.538648,-0.57715 -4.871543,0.53054 -6.998941,1.78165 -2.814094,0.8709 -3.31748,3.95002 -4.959078,5.95237 -1.843639,2.00805 -5.096191,0.88268 -6.959757,2.92836 -1.829752,2.04106 1.691843,4.77127 1.744863,7.25207 0.370015,0.84325 0.700535,1.73559 0.647162,2.67254 z"
     style="fill:#251a19;fill-opacity:1;stroke:#251a19;stroke-width:0.264583px;stroke-linecap:butt;stroke-linejoin:miter;stroke-opacity:1"
     id="path177" />
  <path
     d="m 53.827881,53.21942 c 1.203464,-0.0715 2.487945,0.3887 3.608544,-0.26299 1.406337,-0.68711 2.694027,-1.59705 4.145189,-2.19946 1.075281,-0.48429 2.038748,-1.18996 2.795594,-2.09363 0.950362,-0.84895 1.822884,-1.78857 2.940774,-2.4217 1.259344,-0.86865 2.569316,-1.67072 3.686968,-2.71692 0.09866,-0.26208 -0.883207,0.76793 -1.065051,1.13587 -0.957035,1.5954 -3.076981,1.7171 -4.20171,3.13731 -0.969408,1.3907 -2.365842,2.39703 -3.838067,3.19992 -1.212718,0.78886 -2.093605,2.22495 -3.650056,2.36206 -1.177522,0.36248 -2.344555,1.10447 -3.631399,0.78864 -0.242282,-0.13944 -1.697404,-0.6576 -0.790786,-0.9291 z"
     style="fill:#251a19;fill-opacity:1;stroke:#251a19;stroke-width:0.264583px;stroke-linecap:butt;stroke-linejoin:miter;stroke-opacity:1"
     id="path192" />
  <path
     d="m 78.452178,7.05629 c 0.747352,-0.77902 1.925562,-0.70058 2.834793,-1.18871 0.852903,-0.36949 1.78253,-0.7684 2.72663,-0.58459 0.335171,-0.2534 -0.596965,0.31474 -0.791606,0.24279 -1.013658,0.13916 -2.183145,0.47395 -2.641978,1.48898 -0.328419,0.007 0.644337,0.0668 0.846171,0.002 0.959853,-0.0312 1.942488,-0.36392 2.885136,-0.0244 0.530447,0.23498 -0.579263,0.003 -0.740557,0.18207 -0.490907,0.22117 -1.257247,0.67548 -1.510485,0.92199 0.66629,0.0409 1.479199,0.48889 2.036067,-0.10352 0.662589,0.2347 -0.55486,0.39519 -0.784577,0.50508 -0.54488,0.37282 -1.529654,0.14068 -1.903949,0.47189 0.186279,0.019 0.748437,0.21831 0.200703,0.20747 -0.674008,0.0983 -1.333789,0.27855 -2.02058,0.25183 -0.54713,0.008 -1.504332,0.26232 -0.475454,0.43435 0.5993,0.16596 1.222044,0.2038 1.823091,0.33127 -1.759512,0.51428 -3.611542,0.29594 -5.41021,0.49575 -0.591488,0.11632 -1.181099,0.22915 -1.786003,0.24354 -0.567204,0.13486 0.394477,-0.46471 0.596392,-0.53172 C 75.25497,10.17653 73.911587,10.2513 73.613727,10.07908 73.180009,9.65326 74.412236,9.69075 74.591414,9.29055 75.22569,8.7239 75.983314,8.34201 76.76465,8.02432 77.339978,7.72637 77.906152,7.40081 78.452178,7.05623 Z"
     style="fill:#101c06;fill-opacity:1;stroke:#101c06;stroke-width:0.264583px;stroke-linecap:butt;stroke-linejoin:miter;stroke-opacity:1"
     id="path200" />
  <path
     d="m 73.879795,14.16599 c -0.834147,-0.0731 -2.562364,-0.58986 -0.771665,-0.67408 0.805849,-0.62437 3.00553,-0.66184 3.261223,-0.43895 -0.712499,-0.26533 -1.476647,0.8158 -0.43803,0.44952 0.835316,-0.48861 2.022374,-0.73891 2.828359,-0.72514 -0.465344,0.41361 -1.887331,0.86308 -1.90008,0.97353 1.972633,-0.48205 3.947063,-0.93621 5.910456,-1.46481 -0.475828,0.40705 -2.030484,0.85465 -2.004863,1.33327 1.205664,-0.0651 2.067483,-1.08622 3.158348,-1.3632 0.637432,0.3043 1.317078,-0.43711 0.390347,-0.0741 -1.314157,0.68094 1.165058,-0.29581 1.601383,-0.49316 0.60721,-0.23712 2.143963,-0.54214 2.309664,-0.46908 -1.122033,0.76594 1.031811,-0.35993 1.426902,-0.0789 0.615974,0.14813 2.151608,-0.60162 0.874277,0.11042 -1.359666,0.47395 -2.626214,-1.08605 -3.934772,-0.26913 -1.260477,1.36301 1.276555,1.81616 2.207487,1.28485 1.047802,-0.82977 1.38085,1.03673 0.194226,0.73081 -1.30333,-0.60872 -2.541927,0.42766 -3.834916,0.46699 -0.824004,0.6468 1.136383,-0.35641 1.648796,0.17192 0.704201,-0.0213 1.92249,0.3995 0.541494,0.59209 -1.146512,0.62755 -2.533911,0.77406 -3.712995,1.17267 0.522224,0.40767 2.109269,0.002 0.75864,0.42823 -2.571163,0.0556 -5.325425,-1.15257 -7.770324,0.15843 -0.883797,0.89794 -2.925165,1.12038 -3.493537,1.08551 0.868503,-0.25876 1.059004,-0.54477 0.02266,-0.46227 -1.672326,-0.4875 1.020736,-0.0142 1.384164,-0.73122 0.348154,0.0215 -1.480391,-0.33654 -1.748455,0.3699 -1.425637,1.20937 -3.368005,1.08235 -5.089351,1.47003 -0.608358,0.1428 -2.768142,0.38558 -2.377098,-0.18706 1.37494,-0.36601 2.721226,-0.81709 4.126218,-1.04911 0.981328,-0.40406 -0.555052,-0.0294 0.333945,-0.30897 0.503323,-0.37555 2.077116,-0.6899 1.994718,-0.75164 -0.794905,-0.325 1.438973,-0.3626 1.63053,-0.88723 L 73.651524,14.35627 73.8798,14.1661 Z"
     style="fill:#101c06;fill-opacity:1;stroke:#101c06;stroke-width:0.264583px;stroke-linecap:butt;stroke-linejoin:miter;stroke-opacity:1"
     id="path208" />
  <path
     d="m 90.86292,11.96986 c 1.879443,-1.30011 4.210694,-1.50644 6.298215,-2.26077 -0.582457,-0.0196 -3.768777,1.50692 -1.665989,1.36622 0.899721,-0.43721 1.936654,0.0246 0.442734,0.19929 -1.562841,0.57674 0.195554,0.52971 0.913559,0.23007 0.155501,0.65682 -1.883319,0.43362 -2.286526,1.36821 0.79105,0.32562 3.599244,-1.78811 2.265212,-0.27305 -0.936132,1.03056 -2.875921,0.95282 -3.490601,2.03292 1.535359,-0.58308 3.354782,0.31896 4.729249,-0.88334 -1.245912,-0.86439 1.866227,-1.51958 2.281757,-1.99586 -0.516459,0.75938 1.95496,0.0539 2.50292,-0.16572 1.83584,-0.72996 -2.08322,0.86585 -0.1807,1.24818 0.83955,-0.21945 2.07104,-3.1493 2.50855,-1.16415 -0.37548,0.75815 -3.40302,0.65193 -1.33356,1.14753 0.87503,0.1892 3.23031,-0.38568 1.16888,0.17684 -1.20001,0.98633 -2.97016,0.60241 -4.08808,1.32472 0.83965,-0.38577 2.53674,-2.48521 2.95688,-0.60022 -1.12021,1.27846 -3.43735,0.91435 -5.033505,1.62895 -2.000676,1.00095 1.966125,0.54685 2.701115,0.80994 1.50861,0.52122 3.04361,-0.24882 4.55581,0.16286 -0.77854,0.18332 -2.66246,0.8742 -2.70192,0.89739 1.60969,0.54872 3.30056,0.22887 4.52765,-0.94665 0.87555,-0.76974 2.31732,0.38609 1.27687,1.23589 0.71809,0.12542 4.10179,-0.0767 1.93113,0.0171 -0.59138,-0.0978 -2.44689,0.37497 -2.36916,0.49788 1.45163,0.4554 4.58896,-0.656 4.99743,0.30278 -1.65463,0.186 -3.1854,1.05179 -4.92977,1.15357 -0.61484,0.15678 -2.53942,-0.0488 -0.94576,-0.36329 -1.12027,-0.82772 -3.44972,0.39911 -4.00241,-0.83706 0.77733,-0.3014 2.28779,1.611 0.75884,0.72 -0.7786,-0.11615 -2.08553,0.2012 -2.52515,0.12094 0.23032,0.52703 2.34965,0.97778 0.91035,1.08024 -1.29183,-0.58372 -2.70024,-0.90129 -4.08011,-1.16775 0.784108,0.29917 1.98346,1.66184 0.491834,0.6591 -1.471894,-0.0914 -2.919903,-0.0246 -4.374175,-0.15684 -0.189532,-0.0223 1.321271,0.0335 0.279562,-0.27158 -0.713326,-0.38239 -2.832811,-0.18931 -2.864305,-0.60124 0.690307,0.14008 1.513361,0.2727 0.173112,0.13617 -0.698301,-0.30949 -3.463593,-0.30321 -1.460563,-0.50187 1.164175,-1.284 -1.362917,-1.10827 -1.85638,-0.19591 -0.521276,0.58372 -2.576503,-0.61433 -1.00136,0.18645 -1.125339,0.12695 -4.015219,0.60176 -4.444565,0.41813 0.572772,-0.0699 1.943052,-1.10895 0.624353,-1.08514 -0.468709,-1.73673 3.676023,-0.10583 2.757422,-1.54519 -1.661068,0.4536 -0.11639,-0.91317 0.79566,-0.8671 -0.434935,-1.4292 1.755015,-1.58423 0.630387,-2.91228 0.485446,-0.47805 2.24346,-0.70266 2.40774,-0.74986 -0.15229,0.063 -0.403962,0.20918 -0.252632,0.42345 z"
     style="fill:#101c06;fill-opacity:1;stroke:#101c06;stroke-width:0.264583px;stroke-linecap:butt;stroke-linejoin:miter;stroke-opacity:1"
     id="path216" />
  <path
     d="m 88.21316,20.90967 c 1.863324,-0.77023 3.935148,-0.41755 5.806765,0.11811 0.824669,0.69289 -2.104585,1.29667 -0.588161,1.51709 1.220597,0.13042 2.418795,-0.31229 3.642282,-0.13285 0.328047,-0.16414 1.747852,-0.0854 0.900465,0.28558 -0.991098,0.3454 -1.192915,-1.06968 -0.134649,-0.89291 0.965731,0.44631 2.13443,0.92398 3.130158,0.23787 0.40662,-0.53661 2.07516,-1.73855 1.85996,-0.34541 -0.94655,0.45256 -1.93962,0.90262 -2.920727,1.22567 0.179017,0.59889 2.463767,0.15813 1.187387,1.00188 -0.72326,-0.35562 -1.993205,-0.72317 -2.566379,-0.37289 0.479098,0.94306 2.051749,-0.18672 2.201499,0.85031 -0.929454,0.28801 -2.194714,-0.21891 -3.24385,0.21851 -1.103999,-0.44128 0.916572,0.56067 1.223155,0.65807 1.042529,-0.0619 -0.935124,0.23736 -1.231388,0.17494 -0.914537,0.27576 -1.990848,0.0834 -2.760222,-0.1475 0.182956,0.87483 1.535342,0.92625 1.798184,1.19124 -0.930678,0.37955 -2.091906,0.14292 -2.907841,0.77418 -0.899438,0.91863 -0.0138,2.46565 1.155183,2.55731 1.8101,0.26462 3.087455,-1.30399 4.270167,-2.40966 0.393668,-0.71258 1.253522,-0.0477 0.26284,0.12699 -0.678674,0.0324 -2.799183,-0.6859 -2.075013,0.67193 1.013273,0.0676 2.071154,-0.10816 3.101435,-0.1861 0.99839,-0.2745 1.85774,0.58729 2.83446,0.31193 0.49617,0.65742 -1.65105,0.64916 -2.18865,0.63053 -0.972247,0.41316 1.02455,0.66571 1.40401,0.62769 0.60115,0.21349 2.07783,0.1084 2.09438,0.74931 -0.6393,0.52798 -2.80184,0.33877 -2.64568,1.34259 0.1396,0.86054 -1.55527,0.20682 -1.58816,1.11213 -0.799494,-0.64988 -2.041723,-0.42339 -2.896188,-0.93189 0.507756,-0.27586 1.030039,-0.93813 0.03398,-1.25962 -0.642754,-0.37306 -1.706443,-0.98079 -0.65673,-1.2721 -0.951164,-0.83694 -2.518288,-0.28682 -3.576299,-0.79066 -0.03623,-1.39647 -1.956709,0.23212 -2.824608,-0.51582 -0.905207,-0.16297 -1.830995,-0.42376 -2.687407,-0.67468 0.631304,-0.22295 1.896578,-0.30638 2.40115,-0.87467 -1.071098,0.32889 -2.142148,-0.59079 -3.252164,-0.77834 -0.472294,-0.002 -2.270894,-0.0585 -1.158606,-0.60873 0.308461,0.35691 1.178328,0.21936 0.311887,0.0989 -1.36431,-0.22084 -2.749602,-0.26566 -4.122749,-0.26296 -0.06372,-0.41565 1.049158,-0.15845 1.36583,-0.38758 -0.330406,0.60731 -1.998273,-0.0371 -2.799741,0.24131 -0.771558,-0.17851 -2.40264,0.404 -2.673943,-0.48356 0.796294,-0.42971 0.860629,-1.8 -0.273295,-1.18009 -0.913301,0.4529 -0.678764,-0.68964 0.127348,-0.42592 0.802336,-0.32371 1.800027,-0.3581 2.498688,-0.34119 -0.685676,0.0833 -1.710854,0.50159 -2.574895,0.49222 -0.696063,0.27573 -2.730297,0.63209 -2.199268,1.60076 0.460729,0.0791 2.14637,0.51413 0.930125,0.74491 -0.80564,-0.25745 -0.893737,0.76085 -0.03378,0.43115 0.552959,0.45519 2.425686,-0.48028 1.581775,0.70121 -0.981101,0.81524 -2.301807,0.10263 -3.434265,0.25619 -0.646609,-0.21343 -2.159708,0.94863 -2.157736,0.0459 0.975823,-0.39257 2.613047,-1.6504 1.071809,-2.36817 0.166511,-1.17248 1.866285,-0.91872 2.204738,-1.65298 -0.595825,-0.2741 0.983385,-1.00312 1.286665,-1.32463 1.073276,-0.57342 2.276751,-0.90473 3.379742,-1.37681 -0.228942,-0.53398 -0.940877,0.4543 -1.451235,0.29856 0.267967,1.15823 1.472557,-0.89107 2.401157,-0.31178 1.207355,0.0912 -1.613383,1.54999 0.116581,1.43033 0.69108,0.0649 3.195189,-0.0708 1.817399,1.00457 -0.760085,1.19927 1.830609,0.84462 2.408324,0.42396 1.07959,-0.40358 1.763024,-1.44549 2.814105,-1.84429 z"
     style="fill:#101c06;fill-opacity:1;stroke:#101c06;stroke-width:0.264583px;stroke-linecap:butt;stroke-linejoin:miter;stroke-opacity:1"
     id="path224" />
  <path
     d="m 83.049208,28.80687 c 1.369603,-0.40396 2.695356,0.28533 4.05071,0.38804 1.191091,0.20451 0.06359,1.05517 -0.373191,1.4316 0.76622,0.46048 2.060889,0.46291 3.042893,0.53461 1.130849,-0.0276 2.301018,0.66426 3.38725,0.0836 0.876225,0.19168 -0.33329,1.07628 -0.773494,0.50128 -0.858689,-0.3486 -1.75565,0.073 -2.613553,0.19998 -0.585963,0.64254 0.735429,0.51427 1.056892,0.23191 0.976304,0.0784 1.832451,0.68247 2.81489,0.81384 0.400691,0.0972 1.855666,0.63049 0.670146,0.72157 -1.14198,0.71945 -2.275571,0.18459 -3.374821,-0.235 -1.17037,-0.12743 -0.494918,1.65967 0.110859,1.32906 -0.661679,-0.65536 -1.653361,-0.93663 -2.411083,-1.50396 -0.339211,-0.19736 -1.836002,-0.53094 -0.731185,-0.67027 0.483526,0.31636 1.172476,-0.29154 0.374594,-0.41197 -0.981506,0.21952 -1.894054,-0.43535 -2.897917,-0.27191 -0.14397,-0.35035 -1.181477,-0.5954 -0.728375,-0.10568 0.423959,0.14067 1.787099,0.7187 0.535241,0.6043 -1.845363,-0.16927 -3.714047,-0.23212 -5.553922,-0.0228 -0.0038,-0.50506 0.887367,0.26342 1.314993,0.0985 0.791996,0.16144 1.550547,0.49071 2.361059,0.52656 0.613172,0.60175 -1.474839,-0.004 -1.058105,0.49157 1.076609,0.40254 2.283183,0.21398 3.350705,0.63773 -0.135799,0.41619 -1.574942,0.028 -2.114757,0.17484 -1.173039,-0.2256 -2.176158,0.76596 -3.260228,0.63179 -0.539077,-0.43742 -0.519687,0.30682 0.06848,0.0319 0.517653,-0.37245 0.469627,0.29675 -0.05918,-0.0555 -1.082645,-0.11859 -2.17263,-0.20069 -3.256925,-0.3086 -0.519044,0.2804 -1.681527,-0.24183 -0.701838,-0.61417 0.869914,0.48397 1.678018,-0.33582 2.484731,-0.14886 -0.576695,-0.48997 -2.08522,-0.42095 -3.00052,-0.50026 -0.906169,-0.0751 -1.755713,-0.45773 -2.56074,-0.85252 -0.05749,-0.52193 -1.718999,-0.63597 -0.677472,-0.76197 1.176275,-0.14243 2.353941,-0.30009 3.527236,-0.45917 -0.0179,-0.53479 -1.147518,0.21119 -1.492465,-0.40315 -1.266467,-0.85035 -3.10069,0.26175 -4.181925,-0.99986 -0.636922,-0.0882 -0.03449,0.14536 0.09934,0.23131 -0.756055,0.055 -1.640279,-0.15627 -2.325669,-0.0209 0.416429,-0.7085 1.245405,-1.31579 2.112592,-1.26364 0.719763,0.31176 1.841486,-0.52821 2.285297,0.031 -0.19128,0.3149 0.778433,-0.11757 0.992854,0.16563 0.703297,0.0724 2.139347,-0.2561 2.432235,0.14523 -1.233094,0.36209 -0.363758,1.56886 0.579674,1.42095 0.782276,0.21899 -0.251784,-1.47952 0.927025,-1.40953 1.061227,-0.10313 2.283792,-0.10996 3.068251,-0.79237 -0.04527,0.1798 -0.656075,0.41085 -0.04772,0.22073 0.829151,-0.18562 1.669996,0.58964 2.54713,0.16451 z"
     style="fill:#101c06;fill-opacity:1;stroke:#101c06;stroke-width:0.264583px;stroke-linecap:butt;stroke-linejoin:miter;stroke-opacity:1"
     id="path232" />
  <path
     d="m 57.167815,22.47358 c 1.280422,-1.30194 3.348004,-1.51955 5.072972,-1.34283 1.739372,0.5952 3.647104,1.24234 5.433763,0.39727 1.464255,-0.59645 2.705142,-1.61583 4.199499,-2.15329 1.126627,-0.75601 2.355922,-1.29126 3.746846,-1.23468 0.94898,-0.0391 2.65916,-0.99558 3.134285,-0.14041 -0.593946,-0.0247 -1.742143,-0.2686 -0.47763,0.2465 0.592254,0.28813 2.631744,-0.21083 1.141962,0.47926 -0.644758,0.19281 -3.390337,0.53263 -1.930812,1.40282 0.618942,0.19858 1.79974,0.36317 0.616059,0.86044 -0.89179,0.2731 -2.939193,1.58383 -0.907185,1.79396 0.688591,-0.10425 2.440807,0.4959 0.931673,0.054 -1.683241,-0.0632 -3.576747,0.55634 -5.351402,0.75554 -0.791364,-0.10167 -1.796118,0.95677 -0.414975,0.57026 0.588802,-0.2036 1.527326,0.95348 0.459127,0.39592 -1.263932,0.12296 -3.352014,0.6458 -4.102773,0.67509 0.730109,0.0879 2.265717,0.0172 2.517182,0.52769 -1.532769,0.36881 -3.380125,0.6428 -4.77607,-0.22856 -1.140749,-0.90945 -3.049745,-1.44036 -4.213708,-0.30285 -0.39579,0.84698 -0.05286,2.15138 -1.546699,1.93362 -1.20417,0.26024 -2.765811,-0.0849 -3.156818,-1.34426 -0.669665,-0.69868 -2.289227,-0.58019 -2.637947,-0.9523 0.531381,-0.62832 -0.07742,-1.72047 1.24769,-1.53311 0.837792,0.12357 0.670189,-0.47079 1.014961,-0.86006 z"
     style="fill:#101c06;fill-opacity:1;stroke:#101c06;stroke-width:0.264583px;stroke-linecap:butt;stroke-linejoin:miter;stroke-opacity:1"
     id="path239" />
  <path
     d="m 50.438651,28.64049 c 0.300667,-0.88158 1.902262,-0.0785 1.72026,-0.99355 -0.458673,-0.15713 -2.031466,-0.46174 -1.216525,-1.11281 0.727565,-0.37378 1.271149,-1.06609 0.258295,-1.43713 0.05785,-1.00119 1.71141,-0.88102 2.479099,-1.22249 0.734864,-0.54562 0.472972,0.34471 -0.100979,0.43622 -0.749498,0.50631 -0.218732,1.28228 0.333063,1.48693 -0.12936,0.25396 -1.243123,-0.0238 -0.662859,0.41822 0.727201,-0.1683 2.265334,0.24623 1.21566,1.05804 0.628736,0.434 1.77391,0.47862 2.548909,0.27454 0.1504,0.41694 -1.730291,0.84849 -0.629123,1.02327 1.187386,3e-4 2.501253,0.10325 3.603048,-0.37048 0.442221,0.12926 -1.221331,0.93938 -0.182852,0.68731 0.826114,-0.39289 1.830517,-0.0885 2.638479,-0.52719 0.13,0.80342 0.892317,-0.18578 1.529332,0.12337 0.334122,0.21227 2.190096,0.17216 0.943909,0.44367 -0.941703,0.33308 0.346979,1.06371 0.767094,0.42287 0.719344,-0.0297 1.584101,-0.36107 2.222785,-0.14878 -0.440098,0.79384 -1.909959,0.84522 -2.693367,1.18536 0.409617,0.60758 1.197822,1.01736 1.93265,1.06561 0.297041,0.2419 -0.814733,0.32611 -0.117874,0.54465 0.610785,0.0428 1.687089,0.10562 1.973149,0.58288 -0.809153,0.18381 -1.106748,1.45864 0.0107,1.24092 1.028013,0.0563 0.195113,0.65929 0.06221,1.04281 0.91516,0.46686 2.078072,0.19162 3.082376,0.18365 0.823778,0.0551 -0.642891,0.84112 -0.961235,0.90301 -0.310265,0.0858 -1.798356,0.45584 -1.457843,0.59663 0.640155,-0.47211 0.533889,0.0766 0.02033,0.14342 0.26242,0.63811 1.127814,-0.27983 1.4816,-0.45421 0.03639,-1.48403 -1.812146,-0.58146 -2.266758,0.18184 -0.431892,0.77317 -2.198068,0.0942 -1.246347,-0.54714 0.798635,-0.1072 0.696453,-0.85431 -0.101263,-0.66505 -0.648229,-0.21638 -1.704056,-0.63938 -0.83052,-1.34081 -0.341169,-0.93373 -1.754044,-1.02225 -2.59113,-1.41514 -0.663759,-0.0159 -1.811188,0.0858 -2.111821,0.61594 0.437002,0.22659 2.000817,0.40714 0.8532,0.95886 -0.283198,0.30157 -1.81774,0.34913 -1.336618,0.8521 0.992087,-0.49717 2.098846,-0.0765 3.000279,0.42078 0.361075,0.1347 1.178075,0.27413 0.362032,0.38805 -1.185515,0.58392 -2.525012,0.27446 -3.763722,0.45448 -0.631747,0.56292 -0.853335,-0.12066 -0.350282,-0.565 -0.217483,-0.99926 -2.089877,-0.73546 -1.940524,-1.87212 0.08977,-0.50599 1.405028,-1.2339 0.271306,-1.40996 -0.699518,-0.4736 -1.458575,-1.05319 -2.282845,-0.84426 0.600665,-0.58667 2.092762,-0.12138 2.322606,-1.24179 0.496325,-0.32659 -0.844816,0.29694 -1.179532,0.106 -1.373856,-0.0194 -2.749199,0.26685 -4.114782,0.0141 -0.271036,0.038 -1.309337,0.42113 -0.533607,0.16342 0.69825,0.2693 2.300978,0.24171 2.293684,1.1205 -0.699215,0.22406 -1.456337,0.93691 -0.332452,1.15889 0.383784,0.23779 2.144499,0.41618 0.860223,0.70551 -1.470612,0.6419 -3.083168,0.77729 -4.670757,0.75803 -0.639494,-0.0992 -1.975405,0.21964 -2.131807,-0.50648 1.286273,-0.65278 -0.616325,-0.97858 -1.213429,-0.88693 -0.591851,0.32455 -1.141768,0.4471 -1.029705,-0.48668 -0.333918,-0.98909 0.425417,-1.71291 1.333278,-1.88621 0.348751,-0.2697 1.871172,0.13769 1.092936,-0.51908 -0.550551,0.18442 -1.751169,-0.70149 -0.535074,-0.66168 0.506542,-0.078 1.02172,-0.25535 1.373138,-0.64686 z"
     style="fill:#101c06;fill-opacity:1;stroke:#101c06;stroke-width:0.264583px;stroke-linecap:butt;stroke-linejoin:miter;stroke-opacity:1"
     id="path247" />
  <path
     d="m 69.541581,43.80268 c -0.208054,-0.50095 0.342612,-0.67475 0.72074,-0.76091 0.44306,-0.25356 0.957558,-0.15285 1.417669,-0.28995 0.593175,-0.192 1.028158,-0.64324 1.51376,-1.00665 0.266133,-0.29899 0.822844,-0.19089 1.034917,-0.32707 -0.31408,0.12147 -0.691622,0.32099 -0.935353,0.61005 -0.370382,0.19209 -0.110563,0.50535 0.221082,0.37623 0.287025,-0.0821 0.552267,0.0718 0.171526,0.22888 -0.210465,0.15168 -0.499674,0.69066 -9.91e-4,0.47376 0.840358,-0.0664 1.618344,-0.41694 2.40095,-0.70192 0.389521,-0.19536 0.778366,-0.39483 1.199796,-0.51159 0.117487,-0.19998 -0.451486,0.11785 -0.579764,0.12713 -0.08153,0.30522 -0.579177,0.10135 -0.22481,-0.0427 0.646177,-0.14225 1.243051,-0.50555 1.922711,-0.50227 0.745884,-0.024 1.635503,0.15651 2.219944,-0.4339 0.08393,-0.34947 0.870683,-0.52658 0.638405,-0.0342 -0.396954,0.13211 -0.694581,0.46294 -1.108402,0.56518 -0.566446,0.17612 -1.141446,0.34382 -1.642309,0.67325 -0.209601,0.18521 -1.073864,0.0698 -0.62654,0.46987 0.424641,-0.0121 0.847281,-0.19946 1.288207,-0.13717 0.228075,0.16962 0.665175,-0.34638 0.672608,-0.0594 -0.427838,-0.0898 -0.903137,-0.15492 -1.334818,0.0125 -0.515075,0.13568 -0.917353,0.52131 -1.417271,0.68026 -0.130237,-0.0124 -0.590833,-0.11677 -0.307506,0.094 0.237409,-0.15943 0.898066,0.2998 0.339882,0.25736 -0.513553,0.0794 -1.002408,0.30163 -1.532042,0.30169 -0.669588,0.049 -1.366423,0.0351 -1.999617,0.27844 0.142335,0.34524 0.779032,0.42879 1.079222,0.57934 -0.444176,0.18635 -0.991943,0.0509 -1.475863,0.11468 -0.429567,0.0428 -0.858814,0.0371 -1.280071,-0.0607 -0.287754,0.0733 -0.0577,-0.22587 -0.09471,0.005 -0.387563,0.32723 -0.891927,0.33395 -1.363971,0.41052 -0.25978,0.003 -0.842709,0.70704 -0.809428,0.18659 0.278533,0.0302 0.457389,-0.34026 0.06769,-0.24326 -0.71081,0.0175 -0.261911,-0.58911 -0.179411,-0.93726 -0.0041,-0.13215 0.0086,-0.26413 0.0038,-0.39616 z"
     style="fill:#101c06;fill-opacity:1;stroke:#101c06;stroke-width:0.264583px;stroke-linecap:butt;stroke-linejoin:miter;stroke-opacity:1"
     id="path260" />
</svg>
