<?xml version="1.0" encoding="UTF-8" standalone="no"?>
<svg
   xmlns:dc="http://purl.org/dc/elements/1.1/"
   xmlns:cc="http://creativecommons.org/ns#"
   xmlns:rdf="http://www.w3.org/1999/02/22-rdf-syntax-ns#"
   xmlns:svg="http://www.w3.org/2000/svg"
   xmlns="http://www.w3.org/2000/svg"
   xmlns:sodipodi="http://sodipodi.sourceforge.net/DTD/sodipodi-0.dtd"
   xmlns:inkscape="http://www.inkscape.org/namespaces/inkscape"
   width="1200"
   height="600"
   viewBox="0 0 317.5 158.75"
   version="1.1"
   id="svg8"
   inkscape:version="1.0.1 (3bc2e813f5, 2020-09-07)"
   sodipodi:docname="ol-gradient-direction.svg">
  <defs
     id="defs2" />
  <sodipodi:namedview
     id="base"
     pagecolor="#ffffff"
     bordercolor="#666666"
     borderopacity="1.0"
     inkscape:pageopacity="0.0"
     inkscape:pageshadow="2"
     inkscape:zoom="1.4"
     inkscape:cx="607.34065"
     inkscape:cy="295.21168"
     inkscape:document-units="mm"
     inkscape:current-layer="layer1"
     showgrid="false"
     units="px"
     inkscape:window-width="1920"
     inkscape:window-height="1061"
     inkscape:window-x="0"
     inkscape:window-y="19"
     inkscape:window-maximized="0"
     inkscape:document-rotation="0"
     inkscape:snap-global="false" />
  <metadata
     id="metadata5">
    <rdf:RDF>
      <cc:Work
         rdf:about="">
        <dc:format>image/svg+xml</dc:format>
        <dc:type
           rdf:resource="http://purl.org/dc/dcmitype/StillImage" />
        <dc:title />
      </cc:Work>
    </rdf:RDF>
  </metadata>
  <g
     inkscape:label="Layer 1"
     inkscape:groupmode="layer"
     id="layer1"
     transform="translate(0,-138.25001)">
    <path
       id="path158"
       style="fill:#1a406c;fill-opacity:1;stroke:#1a406c;stroke-width:0.264999;stroke-linecap:round;stroke-opacity:1"
       d="m 13.744217,146.35635 c 2.184513,21.37545 -1.449146,47.32329 -0.726122,68.6746 1.017568,13.65842 3.716931,27.27355 2.718877,41.01849 4.506,-9.12927 -0.614376,-19.64241 -0.472858,-29.31618 -3.667354,-23.72196 1.935304,-47.53621 -0.31444,-71.32506 -1.111786,-0.70829 1.181518,-9.70383 -1.205457,-9.05185 z"
       sodipodi:nodetypes="cccccc" />
    <path
       style="fill:#1a406c;fill-opacity:1;stroke:#1a406c;stroke-width:0.264999;stroke-linecap:round;stroke-opacity:1"
       id="path160"
       d="m 11.085688,238.51081 c 1.031386,0.19661 2.059689,0.39707 3.101895,0.52763 1.852953,0.17314 3.716924,0.10949 5.574442,0.0656 1.815308,-0.0454 3.630978,-0.0666 5.446801,-0.073 1.816756,-0.0103 3.63356,-0.009 5.450236,-0.0302 2.053368,-0.005 4.105667,-0.0592 6.158347,-0.10602 2.050097,-0.0607 4.100081,-0.12432 6.150168,-0.18535 2.186609,-0.0337 4.369347,-0.1525 6.552411,-0.27331 2.324166,-0.13033 4.648213,-0.26533 6.969736,-0.43697 2.224728,-0.16208 4.450337,-0.30981 6.67907,-0.40342 1.889522,-0.0775 3.780698,-0.0906 5.671527,-0.0967 1.89117,-0.002 3.782171,0.0214 5.673367,0.0191 3.010853,0.019 6.021361,-0.0359 9.031875,-0.0721 2.985085,-0.0307 5.969175,-0.12005 8.95259,-0.22085 2.737914,-0.10623 5.475187,-0.22982 8.212847,-0.34349 2.76766,-0.0962 5.5351,-0.19843 8.3034,-0.27468 2.35882,-0.0632 4.71799,-0.10973 7.07751,-0.13604 1.96999,-0.0267 3.94017,-0.0277 5.91028,-0.0388 2.30642,-0.005 4.61285,-0.002 6.91928,-0.002 2.34879,-0.006 4.69743,-0.0134 7.04615,0.008 2.44807,0.0324 4.89622,0.0626 7.34451,0.0703 3.15222,0.0321 6.30451,0.0324 9.45683,0.0246 3.84735,-0.0834 7.69385,-0.20027 11.54043,-0.31275 3.80142,-0.167 7.60485,-0.28512 11.40791,-0.4079 3.27746,-0.12417 6.5561,-0.2159 9.83482,-0.2995 2.83308,-0.081 5.66691,-0.12782 8.5002,-0.20072 2.42114,-0.0819 4.84381,-0.0756 7.26595,-0.0782 2.97183,-0.009 5.94332,0.0428 8.91498,0.0629 3.3116,0.041 6.62316,0.0397 9.93494,0.0397 3.02739,-0.021 6.05482,-0.0426 9.08228,-0.0495 2.38748,-0.0293 4.77449,-0.012 7.16176,0.0209 2.86463,0.0177 5.72856,0.0765 8.59194,0.16101 3.11383,0.0981 6.22921,0.1519 9.34437,0.18673 3.18781,0.0146 6.37479,0.0391 9.56081,0.15312 1.88923,0.0758 3.77604,0.19971 5.66305,0.3163 1.07315,0.075 2.14762,0.11325 3.22302,0.13128 1.71699,0.0289 3.43255,-0.004 5.1453,-0.12014 1.25156,-0.0875 2.49881,-0.22541 3.74716,-0.3489 1.00471,-0.11266 2.01398,-0.17333 3.02374,-0.21626 0.97745,-0.0455 1.95591,-0.0654 2.93426,-0.0802 0.17131,-0.003 0.34263,-0.006 0.51395,-0.008 0.17581,-0.002 0.35163,-0.004 0.52745,-0.005 0.18079,-7.9e-4 0.72316,-5.3e-4 0.54237,2.6e-4 -3.20363,0.0124 -1.34663,0.007 -0.63553,0.035 0.90728,0.0386 1.81313,0.0987 2.71848,0.16788 0.41117,0.0311 0.8222,0.0647 1.23418,0.0829 0.98258,0.0619 1.96879,-0.0231 2.95262,0.0101 0.51638,0.0237 0.9871,0.008 -1.48013,-0.009 0,0 0.11316,0.007 0.11316,0.007 v 0 c -0.40585,-0.13626 -0.81169,-0.27253 -1.21754,-0.40879 -0.003,7.9e-4 0.0276,0.004 -0.005,0.002 -0.98912,0.0895 3.48747,-0.0191 2.13598,0.008 -0.48866,-7.9e-4 -0.97724,-0.0121 -1.46529,-0.0372 -0.93583,-0.0473 -1.87023,-0.11817 -2.80638,-0.15972 -1.76663,-0.0686 -3.53523,-0.0333 -5.30276,-0.0254 -0.97237,0.0207 -1.94479,0.044 -2.91639,0.0894 -0.9819,0.051 -1.96244,0.11762 -2.93846,0.24147 -1.20836,0.13378 -2.41644,0.27362 -3.62953,0.35838 -0.60235,0.0374 -1.20446,0.0677 -1.80761,0.0892 -0.14978,0.005 -0.29956,0.0101 -0.44939,0.0138 -0.15754,0.004 -0.63024,0.006 -0.47268,0.009 0.48038,0.007 0.96083,0.003 1.44124,0.005 -1.17303,0.002 -2.34585,-0.0211 -3.51764,-0.0776 -2.08166,-0.0862 -4.1632,-0.17792 -6.2461,-0.22919 -3.24494,-0.0809 -6.49037,-0.10037 -9.73614,-0.1274 -3.08993,-0.0448 -6.17992,-0.0891 -9.26846,-0.19718 -2.81764,-0.077 -5.63552,-0.15015 -8.45405,-0.18445 -3.0706,-0.0195 -6.14137,-0.022 -9.212,-0.009 -2.95117,0.0317 -5.90219,0.0808 -8.85355,0.0851 -2.81518,0.004 -5.63064,-0.0212 -8.44577,-0.0349 -2.9557,-0.0374 -5.91146,-0.0654 -8.86742,-0.071 -2.94191,-0.0157 -5.88428,-0.0227 -8.8249,0.08 -2.79972,0.0761 -5.59973,0.14178 -8.39949,0.21656 -3.18707,0.10319 -6.37331,0.22694 -9.55995,0.34251 -3.80948,0.14912 -7.61913,0.29864 -11.43009,0.40437 -3.87537,0.14862 -7.75183,0.32679 -11.63113,0.29703 -2.72831,0.004 -5.4562,-0.0321 -8.1843,-0.0619 -2.45722,-0.0269 -4.91465,-0.0358 -7.37185,-0.066 -2.82562,-0.0121 -5.65129,5.3e-4 -8.47692,-0.005 -2.34318,-0.001 -4.68632,-0.0197 -7.0295,-0.0149 -1.97713,-0.005 -3.95447,0.001 -5.93131,0.0368 -2.27033,0.0511 -4.54079,0.10118 -6.81039,0.17873 -2.75519,0.0949 -5.51064,0.181 -8.26564,0.28102 -2.732575,0.10461 -5.463816,0.24105 -8.196393,0.3459 -2.938748,0.1207 -5.878494,0.21274 -8.819787,0.24043 -2.692334,0.037 -5.384837,0.0576 -8.077435,0.0409 -2.362997,-0.0228 -4.72594,-0.0635 -7.089053,-0.0611 -1.856422,0.0119 -3.713628,0.0264 -5.568238,0.11627 -2.192179,0.11838 -4.383225,0.25617 -6.572417,0.4212 -2.298777,0.15146 -4.596513,0.31894 -6.896782,0.44721 -2.243828,0.12621 -4.489199,0.19275 -6.73589,0.24334 -2.024364,0.0609 -4.048469,0.12835 -6.072576,0.1971 -2.088669,0.0594 -4.178035,0.076 -6.267469,0.0875 -1.817566,0.004 -3.63504,0.0274 -5.452623,0.0298 -1.815432,0.0145 -3.631042,0.0251 -5.445945,0.0745 -1.32908,0.0287 -2.605668,0.0745 -3.937543,-0.0704 -0.976638,-0.11846 -1.95502,-0.26376 -2.900125,-0.54481 0,0 -1.063983,0.14292 -1.063983,0.14292 z" />
    <path
       style="fill:#1a406c;fill-opacity:1;stroke:#1a406c;stroke-width:0.264999;stroke-linecap:round;stroke-opacity:1"
       id="path162"
       d="m 289.81101,232.15135 c 1.21362,0.30555 2.40954,0.67287 3.62292,0.98081 2.03909,0.54374 4.13049,0.81143 6.22051,1.06785 1.93492,0.1888 3.87025,0.37435 5.80877,0.52263 0.42667,0.0472 0.85968,0.0534 1.28545,0.11038 -0.0209,-0.0807 -0.009,-0.1784 -0.0625,-0.24206 -0.007,-0.009 -0.16669,0.0686 -0.31247,0.13732 -0.40188,0.18956 -0.80264,0.38106 -1.20552,0.5685 -1.33459,0.55817 -2.65695,1.14481 -3.98809,1.71099 -1.69445,0.6546 -3.36608,1.35739 -4.99346,2.16468 -0.4939,0.32265 -1.92529,0.86528 -2.1414,1.45528 -0.0278,0.0758 0.003,0.16143 0.004,0.24215 0.1224,0.08 0.24477,0.1599 0.36716,0.23985 0,0 0.11298,0.01 0.11298,0.01 v 0 c 0.2635,-0.0459 0.527,-0.0919 0.7905,-0.1378 0.17385,-0.0631 0.35181,-0.11584 0.52162,-0.18916 0.83743,-0.36158 1.53427,-0.96708 2.33008,-1.40236 1.52847,-0.8349 3.12529,-1.52887 4.74059,-2.17791 1.36763,-0.56509 2.73746,-1.12468 4.10184,-1.69755 0.48612,-0.18451 0.97345,-0.3624 1.46359,-0.53571 0.055,-0.0195 0.41953,-0.1418 0.43678,-0.17627 0.0452,-0.0904 0.0143,-0.20165 0.0214,-0.30247 -0.6205,-0.021 -1.24333,0.0212 -1.86365,-0.0229 -2.08086,-0.0827 -4.16118,-0.2128 -6.23064,-0.45037 -1.99647,-0.24266 -3.98648,-0.54227 -5.92558,-1.09136 -1.13147,-0.29259 -2.26661,-0.58798 -3.35865,-1.00867 0,0 -1.74633,0.22464 -1.74633,0.22464 z" />
    <path
       id="path164"
       style="fill:#1a406c;fill-opacity:1;stroke:#1a406c;stroke-width:0.264999;stroke-linecap:round;stroke-opacity:1"
       d="m 9.9761502,151.98824 c 0.7584988,-2.02931 2.0699758,-3.79619 2.8206938,-5.83153 0.629937,-1.43619 1.035292,-2.95498 1.389777,-4.47676 0.303376,-0.40385 -0.830989,-0.0666 -1.182504,-0.17307 -0.583818,0.0662 0.600233,0.62997 0.706179,1.02952 1.617705,1.91506 2.994775,4.01775 4.575261,5.96254 0.486339,1.02191 1.500445,1.0491 2.396123,1.41409 -0.60079,-0.37838 0.596126,-0.50975 -0.176992,-0.84992 -1.946584,-1.57547 -3.41968,-3.62392 -4.74142,-5.72786 -0.651424,-0.60681 -0.824693,-1.96477 -1.802128,-2.00291 -0.678028,-0.17258 -1.735582,-0.20753 -1.557653,0.78079 -0.389287,3.14384 -1.86137,6.01962 -3.498351,8.68636 -0.2575357,0.52465 -1.1180612,1.34607 -0.02424,1.14242 0.3650701,0.0154 0.7302652,0.031 1.0952541,0.0463 z" />
    <path
       id="path166"
       style="fill:#1a406c;fill-opacity:1;stroke:#1a406c;stroke-width:0.264999;stroke-linecap:round;stroke-opacity:1"
       d="m 12.099852,191.84803 c 1.71315,-0.30409 3.453457,-0.38151 5.187864,-0.46107 1.184417,-0.085 2.361442,-0.26564 3.548354,-0.30724 -0.279527,-0.1753 -1.14494,-0.17469 -1.646821,-0.30153 -1.039675,-0.15239 -2.073078,0.14874 -3.108489,0.21429 -1.397173,0.15591 -2.808041,0.14785 -4.197885,0.37802 -0.433801,0.0924 -1.519736,0.12734 -1.609477,0.21536 0.609228,0.084 1.21768,0.17542 1.826454,0.26217 z" />
    <path
       id="path168"
       style="fill:#1a406c;fill-opacity:1;stroke:#1a406c;stroke-width:0.264999;stroke-linecap:round;stroke-opacity:1"
       d="m 6.0035453,188.35311 c -0.9817382,1.46517 -1.8173988,3.19037 -1.6349153,5.00024 0.1076584,0.89778 0.2901467,1.88806 1.0526089,2.47514 0.6424913,0.52364 1.5613486,0.57035 2.345019,0.40936 0.7354237,-0.1407 1.3335131,-0.67777 1.6185252,-1.36052 0.6278349,-1.37554 0.7862039,-2.89891 0.8225829,-4.39385 0.01544,-0.72819 0.09089,-1.45636 0.08583,-2.18182 -0.2954981,-0.63403 -1.2160042,-0.2831 -1.7680666,-0.27846 -0.5587088,-0.0455 -0.6765053,0.65459 -1.0642244,0.94213 -0.4275924,0.30635 -0.6701114,0.97964 0.048286,1.10998 0.4845811,-0.0804 1.0659571,-0.23761 1.3625781,-0.67713 0.3024837,-0.44056 0.6465589,-0.9079 1.1743689,-1.07721 -0.7275238,-0.0953 -1.4692025,-0.13991 -2.1880683,-0.30632 0.6035771,0.0883 0.6559881,0.79533 0.6352311,1.27826 0.036237,1.62473 0.0622,3.29315 -0.4135539,4.8639 -0.2576343,0.69991 -0.5469558,1.58183 -1.3489294,1.80788 -0.5339106,0.0694 0.4317503,0.10291 0.6334001,0.13587 0.6606203,-0.007 -0.5171705,-0.10079 -0.6861534,-0.32645 -0.7155267,-0.49765 -1.0020998,-1.38402 -1.0388392,-2.2201 -0.1254176,-1.70663 0.3764979,-3.49562 1.4832431,-4.81597 0.6287553,-0.44642 -0.341527,-0.27276 -0.6812791,-0.35339 -0.1458786,-0.0105 -0.291778,-0.021 -0.4376421,-0.0315 z" />
    <path
       id="path170"
       style="fill:#1a406c;fill-opacity:1;stroke:#1a406c;stroke-width:0.264999;stroke-linecap:round;stroke-opacity:1"
       d="m 25.793916,191.2541 c 8.076763,-0.45401 -5.012303,-1.19355 0,0 z" />
    <path
       id="path172"
       style="fill:#1a406c;fill-opacity:1;stroke:#1a406c;stroke-width:0.264999;stroke-linecap:round;stroke-opacity:1"
       d="m 35.058383,191.46904 c 5.411764,0.98398 3.272522,-1.48114 0,0 z" />
    <path
       id="path174"
       style="fill:#1a406c;fill-opacity:1;stroke:#1a406c;stroke-width:0.264999;stroke-linecap:round;stroke-opacity:1"
       d="m 46.318603,191.05544 c 6.437493,0.23839 -4.672949,-0.84622 0,0 z" />
    <path
       id="path176"
       style="fill:#1a406c;fill-opacity:1;stroke:#1a406c;stroke-width:0.264999;stroke-linecap:round;stroke-opacity:1"
       d="m 55.237366,191.1779 c 2.9342,0.95716 5.673954,-0.8925 0,0 z" />
    <path
       id="path178"
       style="fill:#1a406c;fill-opacity:1;stroke:#1a406c;stroke-width:0.264999;stroke-linecap:round;stroke-opacity:1"
       d="m 67.992096,190.9546 c 4.593943,1.14867 3.952459,-1.43874 0,0 z" />
    <path
       id="path180"
       style="fill:#1a406c;fill-opacity:1;stroke:#1a406c;stroke-width:0.264999;stroke-linecap:round;stroke-opacity:1"
       d="m 80.675494,191.0313 c 3.796375,0.90864 5.551634,-1.6127 0,0 z" />
    <path
       id="path182"
       style="fill:#1a406c;fill-opacity:1;stroke:#1a406c;stroke-width:0.264999;stroke-linecap:round;stroke-opacity:1"
       d="m 94.46123,190.83006 c 3.993548,1.24408 4.933326,-1.05254 0,0 z" />
    <path
       id="path184"
       style="fill:#1a406c;fill-opacity:1;stroke:#1a406c;stroke-width:0.264999;stroke-linecap:round;stroke-opacity:1"
       d="m 105.36231,191.13323 c 4.56777,0.81122 3.83532,-0.72004 0,0 z" />
    <path
       id="path186"
       style="fill:#1a406c;fill-opacity:1;stroke:#1a406c;stroke-width:0.264999;stroke-linecap:round;stroke-opacity:1"
       d="m 117.39605,191.07376 c 3.77666,0.79844 4.64835,-0.99834 0,0 z" />
    <path
       id="path188"
       style="fill:#1a406c;fill-opacity:1;stroke:#1a406c;stroke-width:0.264999;stroke-linecap:round;stroke-opacity:1"
       d="m 130.89042,190.62562 c 5.54835,0.5218 5.33549,-0.57092 0,0 z" />
    <path
       id="path190"
       style="fill:#1a406c;fill-opacity:1;stroke:#1a406c;stroke-width:0.264999;stroke-linecap:round;stroke-opacity:1"
       d="m 144.90432,190.89466 c 6.46643,1.76644 3.77342,-2.34157 0,0 z" />
    <path
       id="path192"
       style="fill:#1a406c;fill-opacity:1;stroke:#1a406c;stroke-width:0.264999;stroke-linecap:round;stroke-opacity:1"
       d="m 159.29805,190.82012 c 5.11192,1.70341 3.51453,-1.4001 0,0 z" />
    <path
       id="path194"
       style="fill:#1a406c;fill-opacity:1;stroke:#1a406c;stroke-width:0.264999;stroke-linecap:round;stroke-opacity:1"
       d="m 172.84529,190.80771 c 2.63773,1.40453 5.27075,-2.12241 0,0 z" />
    <path
       id="path196"
       style="fill:#1a406c;fill-opacity:1;stroke:#1a406c;stroke-width:0.264999;stroke-linecap:round;stroke-opacity:1"
       d="m 188.54773,190.88917 c 6.06444,1.48811 4.10857,-1.51094 0,0 z" />
    <path
       id="path198"
       style="fill:#1a406c;fill-opacity:1;stroke:#1a406c;stroke-width:0.264999;stroke-linecap:round;stroke-opacity:1"
       d="m 205.51314,191.13363 c 4.85259,1.0392 4.41147,-0.87874 0,0 z" />
    <path
       id="path200"
       style="fill:#1a406c;fill-opacity:1;stroke:#1a406c;stroke-width:0.264999;stroke-linecap:round;stroke-opacity:1"
       d="m 219.46551,190.90907 c 5.3035,0.75615 3.40526,-1.12657 0,0 z" />
    <path
       id="path202"
       style="fill:#1a406c;fill-opacity:1;stroke:#1a406c;stroke-width:0.264999;stroke-linecap:round;stroke-opacity:1"
       d="m 233.69539,190.65899 c 4.59413,1.56787 3.77536,-1.61665 0,0 z" />
    <path
       id="path204"
       style="fill:#1a406c;fill-opacity:1;stroke:#1a406c;stroke-width:0.264999;stroke-linecap:round;stroke-opacity:1"
       d="m 247.96658,190.76896 c 4.24851,0.87753 4.2381,-0.96489 0,0 z" />
    <path
       id="path206"
       style="fill:#1a406c;fill-opacity:1;stroke:#1a406c;stroke-width:0.264999;stroke-linecap:round;stroke-opacity:1"
       d="m 243.67859,190.58234 c 0.0857,0.001 0.0857,0.001 0,0 z" />
    <path
       id="path208"
       style="fill:#1a406c;fill-opacity:1;stroke:#1a406c;stroke-width:0.264999;stroke-linecap:round;stroke-opacity:1"
       d="m 261.40717,190.95385 c 4.25739,1.8916 2.98934,-1.44739 0,0 z" />
    <path
       id="path210"
       style="fill:#1a406c;fill-opacity:1;stroke:#1a406c;stroke-width:0.264999;stroke-linecap:round;stroke-opacity:1"
       d="m 275.51976,191.79153 c 4.67331,0.89159 3.77875,-1.31243 0,0 z" />
    <path
       id="path212"
       style="fill:#1a406c;fill-opacity:1;stroke:#1a406c;stroke-width:0.264999;stroke-linecap:round;stroke-opacity:1"
       d="m 291.70453,192.29616 c 6.62055,-0.009 -3.94715,-0.98881 0,0 z" />
    <path
       id="path214"
       style="fill:#1a406c;fill-opacity:1;stroke:#1a406c;stroke-width:0.264999;stroke-linecap:round;stroke-opacity:1"
       d="m 142.66275,232.77553 c -0.23803,2.17283 -0.36063,10.99822 1.19103,4.63193 -0.11154,-1.38233 0.70103,-4.17972 -1.19103,-4.63193 z" />
    <path
       id="path216"
       style="fill:#1a406c;fill-opacity:1;stroke:#1a406c;stroke-width:0.264999;stroke-linecap:round;stroke-opacity:1"
       d="m 137.68963,243.00658 c 0.24535,-0.79425 1.56149,-1.43159 1.95789,-1.27436 -0.37973,-0.0444 -1.26486,-0.0162 -0.47437,0.28481 0.85315,0.74353 0.55475,1.99712 0.16746,2.90547 -0.80318,1.88031 -2.23186,3.44998 -3.90278,4.60535 0.75634,0.065 1.51289,0.0274 2.12397,-0.46778 0.31473,-0.12822 1.11322,-0.0559 0.32296,-0.0856 -0.47706,-0.0141 -0.71626,0.0354 -0.0542,0.088 1.1989,0.2423 2.26539,1.20758 3.55382,0.92891 0.38334,0.0837 1.46172,-0.18609 0.58608,-0.37393 -1.09055,-0.35784 -2.1328,-0.93353 -3.31114,-0.93237 -0.88666,-0.0264 -1.79486,-0.0164 -2.6611,0.17579 -0.5185,0.10194 -1.02416,0.90531 -0.17122,0.80218 0.67078,0.22502 1.44572,0.14989 1.86906,-0.47555 1.31459,-1.43069 2.47886,-3.02917 3.305,-4.7928 0.49055,-0.89242 0.4439,-2.31725 -0.6254,-2.75767 -0.93379,-0.31503 -2.02843,-0.25379 -2.93677,0.1061 -0.43167,0.26124 -1.13308,0.89688 -1.17425,1.18951 0.47489,0.0245 0.95075,0.0497 1.42501,0.0739 z" />
    <path
       id="path218"
       style="fill:#1a406c;fill-opacity:1;stroke:#1a406c;stroke-width:0.264999;stroke-linecap:round;stroke-opacity:1"
       d="m 146.12708,245.10163 c 0.25962,-0.42563 1.42002,-0.76103 1.39398,-0.73064 -0.38191,-7.2e-4 -1.45569,-0.0199 -0.59018,0.26669 0.74316,0.43035 1.38952,1.1594 2.31443,1.14983 1.64808,0.22214 3.46034,0.17105 4.87759,-0.80238 0.5456,-0.0338 1.60243,-1.09708 0.5948,-1.14692 -0.95798,0.13082 -1.87848,0.45419 -2.74205,0.88453 -0.59927,0.26724 -1.21824,0.51 -1.87053,0.60795 0.33347,0.27599 1.53231,0.0437 1.42077,0.13297 -1.1353,-0.004 -2.12895,-0.61253 -3.06441,-1.18738 -0.72831,-0.2537 -1.5155,-0.0905 -2.26785,-0.17988 -0.54177,-0.004 -1.70074,0.55567 -1.64447,0.87662 0.52674,0.018 1.05205,0.0894 1.57792,0.12861 z" />
    <path
       id="path220"
       style="fill:#1a406c;fill-opacity:1;stroke:#1a406c;stroke-width:0.264999;stroke-linecap:round;stroke-opacity:1"
       d="m 147.54217,245.15042 c 0.54199,1.09402 0.27109,2.37754 -0.14756,3.46345 -0.19913,0.45808 -0.58018,0.81547 -0.75689,1.28249 -0.0844,0.34981 0.55226,0.54147 0.5861,0.59901 0.43205,-0.21534 0.98374,-0.13267 1.35703,-0.48883 0.48824,-0.4224 0.66449,-1.08124 0.84279,-1.67809 0.24641,-1.06511 0.28781,-2.20413 -0.0412,-3.25655 -0.61324,0.0263 -1.22796,0.0517 -1.84028,0.0785 z" />
    <path
       id="path222"
       style="fill:#1a406c;fill-opacity:1;stroke:#1a406c;stroke-width:0.264999;stroke-linecap:round;stroke-opacity:1"
       d="m 151.80761,245.19011 c -0.69315,1.30076 -0.66004,3.00926 0.21452,4.21758 0.52096,0.65312 1.39778,0.71776 2.14896,0.91468 0.16299,-0.11332 -0.037,-0.39668 0.13177,-0.52705 -0.083,-0.42381 -0.47406,-0.69452 -0.66609,-1.06855 -0.67529,-1.00178 -0.65756,-2.36725 -0.0661,-3.402 -0.4231,-0.12481 -0.90283,-0.0582 -1.3472,-0.11291 -0.13861,-0.007 -0.27733,-0.0146 -0.41585,-0.0217 z" />
    <path
       id="path224"
       style="fill:#1a406c;fill-opacity:1;stroke:#1a406c;stroke-width:0.264999;stroke-linecap:round;stroke-opacity:1"
       d="m 78.436311,235.4045 c -0.469763,2.86159 0.954033,9.8949 1.477557,3.04498 0.1898,-1.12054 0.376568,-3.38492 -1.477557,-3.04498 z" />
    <path
       id="path226"
       style="fill:#1a406c;fill-opacity:1;stroke:#1a406c;stroke-width:0.264999;stroke-linecap:round;stroke-opacity:1"
       d="m 75.412703,244.56153 c 0.395138,-0.74861 1.110347,-1.35764 1.939098,-1.55044 0.652043,0.0857 -0.839137,-0.0548 -1.103364,0.0986 0.982415,0.19578 1.687753,1.05292 2.696057,1.18586 0.967648,0.16875 1.959923,0.11689 2.937008,0.0914 1.035378,-0.0559 2.031284,-0.40323 2.911893,-0.94206 0.467897,-0.15623 1.284494,-0.79281 0.327926,-0.90469 -0.532766,-0.14003 -1.450648,-0.0305 -2.034094,0.32964 -0.951666,0.60833 -2.01933,1.11109 -3.16469,1.16669 0.453651,0.0508 1.434386,0.0285 1.556912,0.0272 -1.155152,-0.0606 -2.224871,-0.5561 -3.20827,-1.12708 -0.741371,-0.23077 -1.536383,-0.13464 -2.302111,-0.17375 -0.797876,-0.001 -1.357309,0.69184 -1.887863,1.19975 -0.272852,0.22395 -0.580545,0.62932 0.01291,0.51869 0.439393,0.0269 0.879898,0.0527 1.318585,0.0801 z" />
    <path
       id="path228"
       style="fill:#1a406c;fill-opacity:1;stroke:#1a406c;stroke-width:0.264999;stroke-linecap:round;stroke-opacity:1"
       d="m 77.266553,244.82354 c 0.370844,0.90466 0.326158,1.95603 -0.08459,2.83927 -0.243964,0.67945 -0.806109,1.16286 -1.214623,1.7384 -0.08286,0.31496 0.404354,0.29439 0.597069,0.40534 0.357263,-0.005 0.723216,-0.029 1.068514,-0.12839 0.480277,-0.16653 0.768315,-0.63312 1.0127,-1.05067 0.480772,-0.88732 0.574067,-1.93073 0.47755,-2.92051 -0.02698,-0.30455 -0.111795,-0.60216 -0.170021,-0.89848 -0.244943,-0.10105 -0.552655,0.005 -0.821792,-0.0167 -0.288249,0.0108 -0.576616,0.0214 -0.86481,0.0317 z" />
    <path
       id="path230"
       style="fill:#1a406c;fill-opacity:1;stroke:#1a406c;stroke-width:0.264999;stroke-linecap:round;stroke-opacity:1"
       d="m 81.264011,244.7035 c -0.290222,0.97495 -0.80578,1.94013 -0.662057,2.98868 0.03821,0.61739 0.294515,1.20107 0.604469,1.72814 0.246091,0.41528 0.649755,0.725 1.125922,0.82308 0.272682,0.11305 0.687432,0.19109 0.839607,0.13965 0.128686,0.11318 0.371964,0.0873 0.102536,-0.0167 -0.133777,-0.10502 0.377495,-0.0603 0.351872,-0.30173 0.08156,-0.32598 -0.337621,-0.47646 -0.479549,-0.72653 -0.583473,-0.61842 -0.86706,-1.485 -0.859264,-2.32684 0.01605,-0.78895 0.273275,-1.56524 0.702219,-2.22509 -0.575235,-0.0276 -1.15059,-0.0549 -1.725755,-0.0826 z" />
    <path
       id="path232"
       style="fill:#1a406c;fill-opacity:1;stroke:#1a406c;stroke-width:0.264999;stroke-linecap:round;stroke-opacity:1"
       d="m 111.62652,234.46359 c -1.07978,3.09417 1.7324,8.97772 1.79731,2.50694 0.19867,-1.14593 -0.15322,-3.04609 -1.79731,-2.50694 z" />
    <path
       id="path234"
       style="fill:#1a406c;fill-opacity:1;stroke:#1a406c;stroke-width:0.264999;stroke-linecap:round;stroke-opacity:1"
       d="m 106.05532,242.84218 c 0.2653,-0.17925 0.98598,-0.2231 1.02799,-0.20416 -0.39232,0.0167 -0.7862,0.0267 -1.17785,-0.008 0.50764,0.0698 0.85084,0.70113 0.52766,1.13627 -0.1515,0.44706 -0.82612,0.5907 -0.82847,1.03242 0.20255,0.33493 0.66165,0.16231 0.98433,0.1796 0.38126,-0.0354 0.7574,-0.10967 1.137,-0.15802 -0.36486,0.006 -1.22055,-0.0263 -1.26895,0.0319 0.63175,0.073 1.38624,0.23526 1.732,0.82725 0.24071,0.45697 -0.16119,0.90634 -0.48993,1.18678 -0.29999,0.25926 -0.65635,0.44182 -0.97566,0.67137 -0.13533,0.41162 -0.66329,0.13396 -0.95915,0.33267 -0.19314,0.30406 0.81126,0.29512 0.20823,0.28007 -0.34325,0.0204 0.39725,0.026 0.53542,0.0388 0.49779,0.01 1.00377,0.0709 1.49728,0.01 0.68875,-0.24028 1.31894,-0.65767 1.83528,-1.17069 0.39796,-0.39145 0.43795,-1.0565 0.0818,-1.49076 -0.62634,-0.75754 -1.68054,-0.95054 -2.61442,-0.98575 -0.46151,-0.0175 -1.21752,0.001 -1.499,0.0111 0.56706,0.0102 1.1363,0.007 1.69983,0.08 -0.05,0.27826 0.36336,-0.26755 0.42976,-0.3594 0.34255,-0.41634 0.52679,-1.09542 0.0903,-1.51613 -0.53275,-0.51945 -1.35176,-0.46208 -2.03657,-0.40264 -0.48428,0.0584 -0.95917,0.17422 -1.43034,0.29762 0.4978,0.0601 0.9958,0.12028 1.49348,0.18022 z" />
    <path
       id="path236"
       style="fill:#1a406c;fill-opacity:1;stroke:#1a406c;stroke-width:0.264999;stroke-linecap:round;stroke-opacity:1"
       d="m 111.3092,244.44454 c 2.24848,0.2893 4.59853,0.19741 6.73371,-0.6184 0.35006,-0.21347 -0.38475,-0.27713 -0.54512,-0.32806 -0.50795,-0.0703 -1.02804,-0.0719 -1.53701,-0.02 -0.70377,0.20522 -1.36391,0.57029 -2.10208,0.65659 -0.30825,0.0718 -0.89348,0.10597 -1.03905,0.11417 0.52452,-4.9e-4 1.04901,0.006 1.57349,0.0123 -0.48496,0.0175 -0.9716,-0.0866 -1.45205,-0.0501 -0.54393,0.0779 -1.08804,0.15656 -1.63189,0.23358 z" />
    <path
       id="path238"
       style="fill:#1a406c;fill-opacity:1;stroke:#1a406c;stroke-width:0.264999;stroke-linecap:round;stroke-opacity:1"
       d="m 112.73314,244.58157 c -0.0353,1.05707 -0.39799,2.0748 -0.86662,3.01218 -0.13276,0.27452 0.19387,0.39667 0.39384,0.47141 0.16116,0.0485 0.23662,0.17583 0.23746,0.3094 0.0951,-0.0624 0.11794,-0.23764 0.29217,-0.23306 0.34487,-0.1167 0.78842,-0.12136 0.99676,-0.47063 0.15781,-0.31777 0.24903,-0.66487 0.37175,-0.99754 0.2236,-0.6759 0.4004,-1.37638 0.41532,-2.0917 -0.61356,-4e-5 -1.22712,8e-5 -1.84068,-6e-5 z" />
    <path
       id="path240"
       style="fill:#1a406c;fill-opacity:1;stroke:#1a406c;stroke-width:0.264999;stroke-linecap:round;stroke-opacity:1"
       d="m 115.67602,244.23952 c -0.1168,0.83853 -0.046,1.72217 0.31836,2.49489 0.23443,0.0701 0.44993,0.2446 0.70027,0.21837 0.31269,0.0612 0.64044,0.097 0.9241,0.25112 0.24141,0.0571 -0.13859,-0.33108 0.20034,-0.3011 0.22213,-0.0968 0.16782,-0.3607 -0.005,-0.47764 -0.43986,-0.61939 -0.54394,-1.41257 -0.4979,-2.15457 -0.54672,-0.0104 -1.09355,-0.0207 -1.6402,-0.0311 z" />
    <path
       id="path242"
       style="fill:#1a406c;fill-opacity:1;stroke:#1a406c;stroke-width:0.264999;stroke-linecap:round;stroke-opacity:1"
       d="m 106.39889,252.16656 c 3.52784,-1.57734 7.42387,-1.95511 11.19224,-2.58677 0.80593,0.065 2.46982,-0.52075 0.77774,-0.56508 -1.90512,-0.17468 -3.73322,0.53938 -5.60811,0.75892 -2.84019,0.50211 -5.69972,1.05435 -8.37692,2.1606 0.67168,0.0774 1.34342,0.1549 2.01505,0.23233 z" />
    <path
       id="path244"
       style="fill:#1a406c;fill-opacity:1;stroke:#1a406c;stroke-width:0.264999;stroke-linecap:round;stroke-opacity:1"
       d="m 111.14723,253.76126 c 0.74859,-0.26097 1.52462,-0.50831 2.32763,-0.47203 -0.70224,0.0243 -1.40496,0.0323 -2.10748,0.0456 0.53269,0.22608 0.32493,0.91896 0.14419,1.31835 -0.49858,1.16992 -1.61764,1.87503 -2.65696,2.51325 -0.19993,0.23533 -1.25534,0.50655 -0.67127,0.79984 1.56211,0.0736 3.11908,-0.15414 4.66095,-0.39053 1.39335,-0.23837 2.82058,-0.2576 4.19599,-0.60146 0.18573,-0.32544 -0.78554,-0.0985 -1.04085,-0.26427 -0.6521,-0.12998 -1.31539,-0.10576 -1.96569,0.024 -1.72475,0.3416 -3.46499,0.59521 -5.21447,0.77123 -0.30752,0.0275 -0.89144,0.0961 -0.22703,0.0792 0.58343,0.0613 1.2398,-0.20597 1.75857,-0.14198 0.006,0.21684 -0.25204,0.54435 0.0558,0.20246 1.16477,-0.88248 2.56028,-1.6803 3.11505,-3.11333 0.18723,-0.45672 0.34153,-1.18352 -0.20489,-1.45615 -0.68528,-0.07 -1.37928,-0.0238 -2.06748,-0.0235 -0.58304,0.0831 -1.13416,0.31842 -1.68305,0.52472 0.52698,0.0615 1.05398,0.12373 1.58095,0.18458 z" />
    <path
       id="path246"
       style="fill:#1a406c;fill-opacity:1;stroke:#1a406c;stroke-width:0.264999;stroke-linecap:round;stroke-opacity:1"
       d="m 46.022466,236.79992 c -1.760532,5.90806 3.444279,3.90583 0.592974,-0.12085 z" />
    <path
       id="path248"
       style="fill:#1a406c;fill-opacity:1;stroke:#1a406c;stroke-width:0.264999;stroke-linecap:round;stroke-opacity:1"
       d="m 39.955295,244.37454 c 1.556542,0.28294 3.189376,0.46921 4.741521,0.0667 1.132795,-0.36011 2.097878,-1.08268 3.090942,-1.70939 0.366139,-0.44357 -0.490614,-0.39346 -0.765202,-0.43004 -0.514176,-0.0235 -1.06887,0.0566 -1.450477,0.43602 -0.950752,0.7576 -2.007159,1.51278 -3.24914,1.64789 0.197182,0.0475 0.916898,0.006 0.988535,0.0135 -0.629267,-0.009 -1.25601,-0.092 -1.870639,-0.22485 -0.495159,0.0668 -0.990456,0.13329 -1.48554,0.20016 z" />
    <path
       id="path250"
       style="fill:#1a406c;fill-opacity:1;stroke:#1a406c;stroke-width:0.264999;stroke-linecap:round;stroke-opacity:1"
       d="m 43.438498,244.43978 c 0.305855,1.02666 0.08958,2.11264 -0.174412,3.12249 -0.01021,0.49537 0.265619,0.93694 0.459529,1.37697 0.224699,0.1311 0.338598,-0.34691 0.538558,-0.44262 0.120964,-0.10671 0.231121,-0.24681 0.363935,-0.3278 -0.151559,0.22967 0.19969,-0.23207 0.272911,-0.30452 0.212794,-0.16894 0.229823,-0.43751 0.286774,-0.68368 0.155252,-0.69173 0.219308,-1.42602 9.51e-4,-2.11228 -0.128272,-0.26959 -0.02678,-0.80947 -0.462043,-0.66309 -0.42871,0.0116 -0.85758,0.0237 -1.286203,0.0345 z" />
    <path
       id="path252"
       style="fill:#1a406c;fill-opacity:1;stroke:#1a406c;stroke-width:0.264999;stroke-linecap:round;stroke-opacity:1"
       d="m 45.705085,244.0267 c 0.210588,0.78317 0.524848,1.59868 1.180242,2.11705 0.303121,0.22572 0.662502,0.36997 1.030525,0.44704 0.311825,0.002 0.624613,0.031 0.936436,0.0225 0.243937,-0.0915 0.207993,-0.28473 -0.01959,-0.36084 -0.600396,-0.39302 -1.118761,-0.92092 -1.447408,-1.56335 -0.120762,-0.22373 -0.224869,-0.45624 -0.315708,-0.69363 -0.454809,0.0104 -0.909802,0.021 -1.364495,0.0312 z" />
    <path
       id="path254"
       style="fill:#1a406c;fill-opacity:1;stroke:#1a406c;stroke-width:0.264999;stroke-linecap:round;stroke-opacity:1"
       d="m 47.335207,252.08512 c 1.466574,-1.50695 3.181045,-2.7409 4.83477,-4.02942 1.149379,-0.86765 2.373428,-1.64003 3.515165,-2.51276 0.605754,-0.82214 -1.039917,-0.64671 -1.491353,-0.59229 -1.193007,0.21063 -1.958939,1.25353 -2.885086,1.9351 -2.023781,1.64835 -4.195275,3.1363 -5.990243,5.04699 0.67224,0.0508 1.344546,0.10179 2.016747,0.15238 z" />
    <path
       id="path256"
       style="fill:#1a406c;fill-opacity:1;stroke:#1a406c;stroke-width:0.264999;stroke-linecap:round;stroke-opacity:1"
       d="m 53.15831,250.5896 c 0.27841,-0.30073 1.098962,-0.38336 1.207241,-0.35661 -0.327411,0.0589 -1.019608,0.0288 -1.120002,0.0732 0.864028,0.38426 1.009155,1.54059 0.582061,2.30046 -0.779041,1.52337 -2.221841,2.58579 -3.702875,3.37043 -0.612286,0.2011 -0.0048,0.63108 0.380076,0.47787 2.215175,0.10168 4.413713,-0.26555 6.615421,-0.44718 0.610688,-0.0803 1.23252,-0.10296 1.837915,-0.18653 -0.04107,-0.27005 -0.660936,-0.16639 -0.892759,-0.29385 -0.949366,-0.15365 -1.912925,-0.10023 -2.855471,0.0722 -1.63803,0.2104 -3.282684,0.37863 -4.932548,0.46041 0.642568,0.0247 1.599492,-0.10649 2.046869,0.0784 -0.647615,0.35351 0.482848,-0.47363 0.625586,-0.65225 1.080866,-0.93696 2.13961,-1.99102 2.713905,-3.32306 0.397218,-0.92999 -0.287177,-2.17955 -1.340302,-2.18561 -0.659361,0.009 -1.340342,-0.0312 -1.981847,0.13816 -0.292686,0.10696 -1.075633,0.38099 -0.339794,0.35458 0.385494,0.0398 0.771141,0.0794 1.156524,0.11941 z" />
    <path
       id="path487"
       style="fill:#1a406c;fill-opacity:1;stroke:#1a406c;stroke-width:0.264999;stroke-linecap:round;stroke-opacity:1"
       d="m 47.459834,228.99006 c 0.910393,-6.14899 -3.69693,-1.26569 0,0 z" />
    <path
       id="path489"
       style="fill:#1a406c;fill-opacity:1;stroke:#1a406c;stroke-width:0.264999;stroke-linecap:round;stroke-opacity:1"
       d="m 47.57186,217.14809 c 0.861815,-2.68701 -1.443092,-5.3284 -1.025688,-1.13745 -0.175338,0.60253 0.289908,1.5781 1.025688,1.13745 z" />
    <path
       id="path491"
       style="fill:#1a406c;fill-opacity:1;stroke:#1a406c;stroke-width:0.264999;stroke-linecap:round;stroke-opacity:1"
       d="m 47.673596,201.68227 c 1.602643,-4.52839 -3.960591,-0.41867 0,0 z" />
    <path
       id="path493"
       style="fill:#1a406c;fill-opacity:1;stroke:#1a406c;stroke-width:0.264999;stroke-linecap:round;stroke-opacity:1"
       d="m 47.558264,184.8807 c 3.103527,-4.80602 -4.449877,-4.11997 0,0 z" />
    <path
       id="path495"
       style="fill:#1a406c;fill-opacity:1;stroke:#1a406c;stroke-width:0.264999;stroke-linecap:round;stroke-opacity:1"
       d="m 48.009601,171.39274 c 2.078829,-2.95772 -2.696318,-1.69452 0,0 z" />
    <path
       id="path497"
       style="fill:#1a406c;fill-opacity:1;stroke:#1a406c;stroke-width:0.264999;stroke-linecap:round;stroke-opacity:1"
       d="m 48.182736,157.12146 c 2.75643,-3.24999 -2.724511,-1.59735 0,0 z" />
    <path
       id="path501"
       style="fill:#1a406c;fill-opacity:1;stroke:#1a406c;stroke-width:0.264999;stroke-linecap:round;stroke-opacity:1"
       d="m 79.733208,227.98824 c 1.744043,-4.48841 -3.956906,-1.93483 0,0 z" />
    <path
       id="path503"
       style="fill:#1a406c;fill-opacity:1;stroke:#1a406c;stroke-width:0.264999;stroke-linecap:round;stroke-opacity:1"
       d="m 79.445993,217.17702 c 1.200461,-4.49151 -1.996374,-3.03964 -0.385988,0.0996 z" />
    <path
       id="path505"
       style="fill:#1a406c;fill-opacity:1;stroke:#1a406c;stroke-width:0.264999;stroke-linecap:round;stroke-opacity:1"
       d="m 79.183703,205.64508 c 1.436304,-4.49225 -3.262397,-2.82488 0,0 z" />
    <path
       id="path513"
       style="fill:#1a406c;fill-opacity:1;stroke:#1a406c;stroke-width:0.264999;stroke-linecap:round;stroke-opacity:1"
       d="m 112.09847,228.71364 c 1.42744,-4.43254 -4.04939,-1.4637 0,0 z" />
    <path
       id="path515"
       style="fill:#1a406c;fill-opacity:1;stroke:#1a406c;stroke-width:0.264999;stroke-linecap:round;stroke-opacity:1"
       d="m 112.40352,215.56537 c 0.89577,-2.63578 -2.06075,-5.63316 -1.38862,-1.29234 -0.16826,0.78938 0.50275,1.90746 1.38862,1.29234 z" />
    <path
       id="path517"
       style="fill:#1a406c;fill-opacity:1;stroke:#1a406c;stroke-width:0.264999;stroke-linecap:round;stroke-opacity:1"
       d="m 112.22252,201.76214 c 1.09313,-4.43084 -2.712,-3.04116 -0.78619,0.12678 l 0.36368,0.0347 z" />
    <path
       id="path519"
       style="fill:#1a406c;fill-opacity:1;stroke:#1a406c;stroke-width:0.264999;stroke-linecap:round;stroke-opacity:1"
       d="m 111.77066,185.93687 c 2.03484,-3.31353 -2.7491,-1.25162 0,0 z" />
    <path
       id="path521"
       style="fill:#1a406c;fill-opacity:1;stroke:#1a406c;stroke-width:0.264999;stroke-linecap:round;stroke-opacity:1"
       d="m 111.66764,174.86806 c 2.13672,-5.38999 -4.09778,-3.04873 0,0 z" />
    <path
       id="path523"
       style="fill:#1a406c;fill-opacity:1;stroke:#1a406c;stroke-width:0.264999;stroke-linecap:round;stroke-opacity:1"
       d="m 112.28094,163.39603 c 2.37797,-5.97468 -4.82021,-2.55204 0,0 z" />
    <path
       id="path525"
       style="fill:#1a406c;fill-opacity:1;stroke:#1a406c;stroke-width:0.264999;stroke-linecap:round;stroke-opacity:1"
       d="m 142.89636,225.60452 c 1.47961,-4.97945 -3.7178,-0.67277 0,0 z" />
    <path
       id="path527"
       style="fill:#1a406c;fill-opacity:1;stroke:#1a406c;stroke-width:0.264999;stroke-linecap:round;stroke-opacity:1"
       d="m 142.51202,213.39687 c 1.75067,-4.71812 -4.22535,-2.70434 0,0 z" />
    <path
       id="path529"
       style="fill:#1a406c;fill-opacity:1;stroke:#1a406c;stroke-width:0.264999;stroke-linecap:round;stroke-opacity:1"
       d="m 142.16588,202.2149 c 1.98852,-2.91357 -3.21488,-5.47738 -1.75353,-1.03094 0.0645,0.80866 1.00087,1.58914 1.75353,1.03094 z" />
    <path
       id="path669"
       style="fill:#1a406c;fill-opacity:1;stroke:#1a406c;stroke-width:0.264999;stroke-linecap:round;stroke-opacity:1"
       d="m 265.58621,233.13693 c 4.79825,-5.93648 -7.31969,-3.24071 0,0 z" />
    <path
       id="path671"
       style="fill:#1a406c;fill-opacity:1;stroke:#1a406c;stroke-width:0.264999;stroke-linecap:round;stroke-opacity:1"
       d="m 264.0533,220.29646 c 4.36756,-6.11273 -5.91385,-4.20994 0,0 z" />
    <path
       id="path673"
       style="fill:#1a406c;fill-opacity:1;stroke:#1a406c;stroke-width:0.264999;stroke-linecap:round;stroke-opacity:1"
       d="m 263.55501,201.63552 c 3.70927,-5.46173 -5.85175,-2.81073 0,0 z" />
    <path
       id="path675"
       style="fill:#1a406c;fill-opacity:1;stroke:#1a406c;stroke-width:0.264999;stroke-linecap:round;stroke-opacity:1"
       d="m 207.16918,202.84374 c 4.63034,-5.79744 -6.44095,-4.10829 0,0 z" />
    <path
       id="path677"
       style="fill:#1a406c;fill-opacity:1;stroke:#1a406c;stroke-width:0.264999;stroke-linecap:round;stroke-opacity:1"
       d="m 206.51466,218.16084 c 3.98793,-4.22994 -4.82215,-2.79514 0,0 z" />
    <path
       id="path679"
       style="fill:#1a406c;fill-opacity:1;stroke:#1a406c;stroke-width:0.264999;stroke-linecap:round;stroke-opacity:1"
       d="m 207.02843,229.63084 c 4.98041,-7.04625 -7.02376,-2.7311 0,0 z" />
    <path
       id="path681"
       style="fill:#1a406c;fill-opacity:1;stroke:#1a406c;stroke-width:0.264999;stroke-linecap:round;stroke-opacity:1"
       d="m 235.92685,229.62571 c 3.89726,-3.8197 -4.27513,-1.31937 0,0 z" />
    <path
       id="path683"
       style="fill:#1a406c;fill-opacity:1;stroke:#1a406c;stroke-width:0.264999;stroke-linecap:round;stroke-opacity:1"
       d="m 236.1708,216.14567 c 2.6424,-4.90132 -4.79538,0.42682 0,0 z" />
    <path
       id="path685"
       style="fill:#1a406c;fill-opacity:1;stroke:#1a406c;stroke-width:0.264999;stroke-linecap:round;stroke-opacity:1"
       d="m 235.84806,203.01977 c 3.57368,-5.10886 -5.21342,-1.26537 0,0 z" />
    <path
       id="path687"
       style="fill:#1a406c;fill-opacity:1;stroke:#1a406c;stroke-width:0.264999;stroke-linecap:round;stroke-opacity:1"
       d="m 234.68397,184.1489 c 2.15711,-5.56104 -5.06529,-0.19098 0,0 z" />
    <path
       id="path689"
       style="fill:#1a406c;fill-opacity:1;stroke:#1a406c;stroke-width:0.264999;stroke-linecap:round;stroke-opacity:1"
       d="m 233.90423,171.39776 c 2.16076,-5.47151 -4.75226,-0.67495 0,0 z" />
    <path
       id="path691"
       style="fill:#1a406c;fill-opacity:1;stroke:#1a406c;stroke-width:0.264999;stroke-linecap:round;stroke-opacity:1"
       d="m 233.50306,158.36542 c 3.98957,-7.30819 -5.2005,-2.54765 0,0 z" />
    <path
       id="path693"
       style="fill:#1a406c;fill-opacity:1;stroke:#1a406c;stroke-width:0.264999;stroke-linecap:round;stroke-opacity:1"
       d="m 173.50043,229.2446 c 4.87015,-5.44963 -6.02524,-3.35443 0,0 z" />
    <path
       id="path695"
       style="fill:#1a406c;fill-opacity:1;stroke:#1a406c;stroke-width:0.264999;stroke-linecap:round;stroke-opacity:1"
       d="m 173.57927,216.49062 c 3.66794,-5.43452 -6.21005,-1.94692 0,0 z" />
    <path
       id="path697"
       style="fill:#1a406c;fill-opacity:1;stroke:#1a406c;stroke-width:0.264999;stroke-linecap:round;stroke-opacity:1"
       d="m 172.94994,201.71191 c 3.85128,-6.36021 -6.42583,-1.84123 0,0 z" />
    <path
       id="path699"
       style="fill:#1a406c;fill-opacity:1;stroke:#1a406c;stroke-width:0.264999;stroke-linecap:round;stroke-opacity:1"
       d="m 172.58779,183.28479 c 2.33114,-8.90634 -5.59004,-1.27604 0,0 z" />
    <path
       id="path701"
       style="fill:#1a406c;fill-opacity:1;stroke:#1a406c;stroke-width:0.264999;stroke-linecap:round;stroke-opacity:1"
       d="m 172.79446,171.23997 c 2.00437,-5.31717 -4.97285,-0.95277 0,0 z" />
    <path
       id="path703"
       style="fill:#1a406c;fill-opacity:1;stroke:#1a406c;stroke-width:0.264999;stroke-linecap:round;stroke-opacity:1"
       d="m 172.74728,158.97602 c 2.80635,-4.71363 -4.24934,-1.91435 0,0 z" />
    <path
       id="path869"
       style="fill:#14c420;fill-opacity:1;stroke:#14c420;stroke-width:0.264999;stroke-linecap:round;stroke-opacity:1"
       d="m 12.494367,194.44783 c 6.485194,-12.10759 12.806741,-24.25192 21.236415,-35.10146 8.41085,-16.87292 29.128405,-7.20118 33.337109,7.3723 10.142565,19.08462 13.082797,43.17024 31.746727,56.54308 12.476792,13.95033 25.069232,-1.67862 31.595422,-12.53346 11.81616,-16.07619 17.44468,-36.36319 29.9536,-51.9101 17.6512,-15.39247 26.90498,12.72005 36.53969,23.20197 10.59879,13.66732 18.70619,29.74674 31.95044,41.04621 13.08106,9.3663 21.78354,-6.20363 26.30533,-16.61076 8.12321,-15.07457 18.61549,-28.91136 28.38031,-42.88134 8.98984,-8.8066 30.51174,-6.40403 10.34109,-6.47676 -16.27651,2.34231 -20.43044,20.47913 -29.83603,31.21339 -11.2888,9.31778 -13.15984,37.33694 -29.38849,36.00464 -14.37069,-7.4027 -21.65369,-23.37178 -30.92074,-36.00527 -9.14357,-10.21458 -15.13857,-22.82561 -24.60007,-32.74915 -14.71856,-7.61915 -27.62081,7.06617 -31.543,20.02979 -9.03922,17.90437 -18.00392,36.13509 -32.17844,50.52997 -11.90057,6.52479 -25.391744,-12.00032 -30.836424,-22.47655 -9.302447,-17.21982 -12.002013,-39.39401 -28.332246,-51.82261 -13.427306,-7.74436 -23.911695,5.17262 -29.419852,15.91247 -5.61303,7.87275 -12.427579,19.08454 -14.330841,26.71364 z" />
    <path
       id="path873"
       style="fill:#14c420;fill-opacity:1;stroke:#14c420;stroke-width:0.264999;stroke-linecap:round;stroke-opacity:1"
       d="m 295.55385,164.72068 c -0.89932,0.12755 -1.81987,0.52571 -2.38611,1.25647 -0.45216,0.56851 -0.0647,1.36222 0.5775,1.56805 0.78698,0.35102 1.70283,0.3473 2.44782,0.8003 0.54216,0.43732 0.40811,1.24596 0.0522,1.75788 -0.34052,0.62412 -0.94287,1.08395 -1.64101,1.22948 -0.6616,0.18987 -1.35138,0.24243 -2.03576,0.27504 0.90907,-0.005 1.81822,-0.0332 2.72735,-0.0454 -0.26867,-0.022 -0.81964,-0.0464 -0.81491,-0.0583 -0.57082,-0.0286 -1.15034,0.0107 -1.71084,-0.0181 -0.24729,0.0728 -1.12399,0.35233 -0.46027,0.48331 1.0899,0.0539 2.18662,0.10955 3.27705,0.0307 0.83105,-0.0814 1.78256,-0.27586 2.25839,-1.04008 0.41998,-0.55915 0.84402,-1.2143 0.82073,-1.93751 -0.10912,-0.67502 -0.72111,-1.11707 -1.3576,-1.24317 -0.73257,-0.22538 -1.5746,-0.23636 -2.19339,-0.73429 -0.54439,-0.55925 0.13478,-1.30517 0.67346,-1.55097 0.51709,-0.29762 1.10414,-0.47325 1.70243,-0.47614 -0.64552,-0.0991 -1.29224,-0.19803 -1.937,-0.2973 z" />
    <path
       id="path875"
       style="fill:#14c420;fill-opacity:1;stroke:#14c420;stroke-width:0.264999;stroke-linecap:round;stroke-opacity:1"
       d="m 301.3741,165.19595 c 0.0811,0.96152 -0.10977,1.91648 -0.22576,2.86685 -0.14835,0.76092 -0.3424,1.51326 -0.57191,2.25314 -0.2179,0.47164 0.30807,0.56352 0.64857,0.59671 0.30927,0.10187 0.62894,0.0602 0.94162,0.005 0.2769,-0.0386 0.63929,-0.0173 0.74072,-0.34672 0.14131,-0.41378 0.0926,-0.86458 0.16043,-1.29278 0.0358,-1.25395 0.0292,-2.51513 0.20998,-3.75909 0.0628,-0.21074 0.0914,-0.38222 -0.18642,-0.31072 -0.57238,-0.004 -1.145,-0.008 -1.71723,-0.012 z" />
    <path
       id="path877"
       style="fill:#14c420;fill-opacity:1;stroke:#14c420;stroke-width:0.264999;stroke-linecap:round;stroke-opacity:1"
       d="m 301.74557,160.8497 c -0.23029,0.47154 -0.68011,0.8705 -0.68519,1.4271 0.0293,0.23723 0.21814,0.4807 0.47651,0.467 0.8802,0.0205 1.78971,0.20065 2.64711,-0.0866 0.38173,-0.1186 0.78056,-0.23391 1.10354,-0.47744 0.22042,-0.15709 0.29006,-0.5737 -0.01,-0.68455 -0.21768,-0.11952 -0.46066,-0.17077 -0.70868,-0.14231 -0.3296,-0.006 -0.66279,-0.0639 -0.98801,0.019 -0.30632,0.0451 -0.65903,0.0188 -0.90261,0.24264 -0.0659,0.29536 -0.25862,0.5608 -0.54555,0.69259 -0.10343,0.10916 -0.62134,0.10757 -0.23582,0.12311 0.57218,0.0207 1.14487,0.0106 1.7172,0.0232 -0.21039,0.0478 -0.49859,-0.0784 -0.47134,-0.32851 0.0136,-0.47391 0.41288,-0.80175 0.71003,-1.12115 -0.70237,-0.0515 -1.40498,-0.10228 -2.1072,-0.1541 z" />
    <path
       id="path879"
       style="fill:#14c420;fill-opacity:1;stroke:#14c420;stroke-width:0.264999;stroke-linecap:round;stroke-opacity:1"
       d="m 305.89403,165.74716 c -0.006,1.63856 -0.46094,3.24415 -1.03627,4.76628 -0.11502,0.37673 -0.36505,0.72591 -0.76143,0.83473 0.92926,-0.15508 1.87465,-0.13689 2.81336,-0.13759 0.65728,-0.79665 1.00592,-1.78715 1.55509,-2.65367 0.34429,-0.5865 0.57346,-1.36824 1.29539,-1.59151 0.42819,-0.19983 1.30705,-0.30838 1.50543,-0.3031 -0.84085,0.0264 -1.68209,0.0366 -2.52325,0.0481 0.55562,0.0686 0.61446,0.75875 0.6394,1.20329 0.0768,1.07449 -0.21005,2.12202 -0.36896,3.17355 0.0217,0.56115 0.83343,0.15171 1.19343,0.39033 0.39518,-0.21713 1.27815,0.18181 1.32176,-0.40387 -0.002,-0.62549 0.10294,-1.2669 0.1155,-1.90034 0.0281,-0.8787 0.17199,-1.87145 -0.37809,-2.62972 -0.62924,-0.60704 -1.57417,-0.39575 -2.33973,-0.2462 -0.77224,0.16477 -1.67161,0.32625 -2.15859,1.01366 -0.43627,0.82201 -0.73647,1.71706 -1.25485,2.49785 -0.16137,0.43084 -0.83715,0.91866 -0.83919,1.22825 0.83801,0.0733 1.68753,0.15487 2.49586,0.40371 -0.4622,0.006 -0.53134,-0.70262 -0.3534,-1.0754 0.35151,-1.43503 0.59931,-2.89249 0.85619,-4.347 0.17973,-0.49875 -0.67732,-0.15465 -0.97833,-0.26299 -0.26644,-0.003 -0.53288,-0.006 -0.79932,-0.008 z" />
    <path
       id="path893"
       style="fill:#ee3caa;fill-opacity:1;stroke:#ee3caa;stroke-width:0.264999;stroke-linecap:round;stroke-opacity:1"
       d="m 13.165049,151.50569 c 9.800095,-1.31943 16.469749,9.17926 19.950315,17.05249 7.37575,13.264 17.204119,25.07403 23.260541,39.09861 5.214994,10.00162 12.689098,21.82742 25.05265,22.80169 14.232926,-1.41527 20.499665,-16.29439 26.183375,-27.48097 5.77739,-12.32234 13.77595,-23.3907 19.55208,-35.72451 3.86444,-13.08109 19.13375,-15.2676 25.77678,-3.08054 7.42309,9.43625 9.46935,22.01412 18.47731,30.4381 7.11097,8.73369 10.53311,21.34736 22.26084,25.41539 10.9224,5.99155 23.90944,0.40606 29.81111,-9.86609 12.54242,-14.00664 16.82483,-33.29488 28.91426,-47.51999 7.65159,-8.60143 16.75855,-1.66231 22.38382,5.98702 5.91063,13.20486 16.13068,24.30574 22.75294,37.28338 7.8533,2.73782 -3.49425,-9.56299 -4.99408,-12.8418 -7.90378,-10.53618 -13.3548,-23.34381 -22.72855,-32.44173 -11.74659,-7.52572 -24.02558,2.35139 -27.98204,13.57279 -8.72777,16.10201 -15.58653,34.55314 -30.80895,45.77302 -8.19171,4.88576 -20.83913,-1.13796 -27.19077,-9.39437 -5.10729,-10.79038 -14.05512,-18.77398 -19.34576,-29.32922 -5.11947,-10.13428 -10.03078,-22.97326 -22.00124,-26.44182 -12.57765,-1.73284 -17.40925,11.96245 -21.93308,20.95145 -7.41979,13.0371 -14.93416,26.04644 -21.377594,39.58793 -5.242829,8.73353 -16.433675,20.11991 -26.589475,10.85503 -12.787582,-8.73302 -15.710852,-24.94179 -24.513634,-36.85684 -5.628452,-8.66566 -11.7038,-17.01639 -16.072364,-26.41 -3.069145,-7.00484 -14.910159,-14.77343 -18.838484,-11.42902 z" />
    <path
       id="path895"
       style="fill:#ee3caa;fill-opacity:1;stroke:#ee3caa;stroke-width:0.264999;stroke-linecap:round;stroke-opacity:1"
       d="m 294.26027,212.26319 c -1.3648,0.31651 -2.62596,1.08239 -3.46379,2.21545 -0.63052,0.79794 -0.82657,1.86139 -0.81233,2.85599 0.0307,1.08297 1.08295,1.92379 2.13639,1.87287 0.99897,-0.0257 2.00933,0.10086 2.99589,-0.11179 0.6985,-0.11261 1.3311,-0.44836 1.95433,-0.76563 -0.21206,-0.38044 -0.87677,-0.35677 -1.29839,-0.39741 -0.56577,-0.0332 -1.15317,0.0283 -1.62515,0.37158 -0.5264,0.30041 -1.11497,0.47853 -1.71065,0.57899 0.52734,0.003 1.40794,-0.0207 1.71595,0.0133 -0.84968,0.0759 -1.85139,-0.22634 -2.20818,-1.07294 -0.3033,-0.8233 -0.1073,-1.7604 0.25705,-2.53109 0.77935,-1.4531 2.23963,-2.54177 3.88295,-2.77797 -0.60801,-0.0837 -1.21611,-0.16856 -1.82407,-0.25135 z" />
    <path
       id="path899"
       style="fill:#ee3caa;fill-opacity:1;stroke:#ee3caa;stroke-width:0.264999;stroke-linecap:round;stroke-opacity:1"
       d="m 300.21382,212.46278 c -0.87839,1.01033 -1.5956,2.21913 -1.74437,3.57243 -0.15601,0.72259 -0.18949,1.52054 0.23017,2.16645 0.35828,0.77699 1.27935,0.99097 2.05963,0.98586 0.6731,-0.0354 1.36358,0.01 2.02132,-0.15328 0.86028,-0.34915 1.44383,-1.13142 1.95084,-1.87344 0.53928,-0.91985 0.84352,-1.96593 0.87945,-3.03139 0.0518,-0.69119 0.0809,-1.5148 -0.44933,-2.0402 -0.40332,-0.23533 -0.91297,-0.0436 -1.36222,-0.1013 -0.53125,0.0171 -1.07221,0.002 -1.59505,0.0956 -0.62623,0.4999 0.46225,0.97497 0.89996,0.65436 0.48164,-0.0438 1.28717,-0.26283 1.53515,-0.37044 -0.68446,-0.052 -1.37168,-0.003 -2.05655,-0.0443 0.63375,-0.0263 0.75001,0.82087 0.81089,1.31431 0.10566,1.43766 -0.27254,2.93143 -1.20664,4.05129 -0.45327,0.56179 -1.07543,1.07811 -1.82231,1.13755 0.61656,0.009 1.23319,0.0171 1.84946,0.0388 -0.74788,-0.0148 -1.58224,-0.10596 -2.10396,-0.70718 -0.54194,-0.52971 -0.70087,-1.32957 -0.57455,-2.05711 0.13461,-1.31793 0.70189,-2.63843 1.72391,-3.5059 -0.23206,-0.14621 -0.73358,-0.0615 -1.0458,-0.13212 z" />
    <path
       id="path901"
       style="fill:#ee3caa;fill-opacity:1;stroke:#ee3caa;stroke-width:0.264999;stroke-linecap:round;stroke-opacity:1"
       d="m 311.54566,212.43584 c -1.18425,-0.0877 -2.49427,-0.38534 -3.5752,0.27296 -0.37175,0.2522 -0.8725,0.60005 -0.76544,1.11848 0.0626,0.61638 0.62812,1.01243 1.19375,1.1317 0.71974,0.21792 1.49506,0.12223 2.20544,0.36725 0.4721,0.29519 0.31889,0.95674 0.0493,1.34063 -0.50046,0.79248 -1.49952,0.97938 -2.3601,1.0828 -0.57998,0.0767 -1.16362,0.12043 -1.7446,0.1883 0.21146,0.24621 0.85195,0.0966 1.19288,0.24417 0.77164,0.14664 1.56695,0.19176 2.33944,0.0249 0.96632,-0.1457 2.08346,-0.30591 2.69698,-1.1607 0.38905,-0.50938 0.57744,-1.3179 0.0742,-1.82125 -0.38011,-0.40912 -0.99085,-0.31085 -1.49369,-0.37962 -0.69095,-0.0608 -1.48304,-0.0616 -2.02912,-0.54963 -0.37727,-0.3325 -0.24806,-0.92953 0.15478,-1.17964 0.18226,-0.24831 0.88084,-0.3908 0.85049,-0.43897 -0.45078,-0.0369 -0.90326,-0.005 -1.35468,-0.0211 0.6798,0.06 1.35251,-0.0586 2.02683,-0.14971 0.17951,-0.0237 0.35982,-0.0467 0.53878,-0.0706 z" />
    <path
       id="path911"
       style="fill:#dc723b;fill-opacity:1;stroke:#dc723b;stroke-width:0.264999;stroke-linecap:round;stroke-opacity:1"
       d="m 16.524864,146.09572 c 2.89847,0.42228 5.831232,-0.0945 8.737842,0.20824 5.288236,0.31085 10.602371,0.42355 15.885928,-0.0311 -2.435534,-0.5548 -4.904286,0.25145 -7.358604,0.057 -4.018576,0.0915 -8.021908,-0.47651 -12.041696,-0.33654 -1.412608,0.0363 -2.824715,0.0554 -4.235801,-0.0221 -0.332235,0.006 -0.665831,0.0391 -0.987669,0.1245 z" />
    <path
       id="path915"
       style="fill:#dc723b;fill-opacity:1;stroke:#dc723b;stroke-width:0.264999;stroke-linecap:round;stroke-opacity:1"
       d="m 38.081985,143.66247 c 1.824055,0.80629 3.708472,1.48205 5.496633,2.36507 0.08547,0.54334 -0.944673,0.72701 -1.301657,1.06938 -1.080724,0.56383 -2.252852,0.91548 -3.409458,1.28536 0.303047,0.49732 1.235013,0.26195 1.775702,0.25359 1.72431,-0.43746 3.285439,-1.33517 4.813361,-2.22194 0.395177,-0.64744 -0.867908,-0.47549 -1.202459,-0.78225 -1.687768,-0.67054 -3.424761,-1.22964 -5.046806,-2.05551 -0.378166,-0.0538 -0.74913,0.0755 -1.125316,0.0863 z" />
    <path
       id="path917"
       style="fill:#dc723b;fill-opacity:1;stroke:#dc723b;stroke-width:0.264999;stroke-linecap:round;stroke-opacity:1"
       d="m 55.00162,146.51529 c 13.433873,-0.45908 26.869335,0.32809 40.307064,0.1725 3.808509,0.20164 7.659996,0.19663 11.450686,-0.0761 -4.09745,-0.31428 -8.221681,0.16393 -12.336517,-0.0942 -13.434032,0.0631 -26.874042,-0.66651 -40.301974,-0.12702 l 0.443602,0.0611 z" />
    <path
       id="path921"
       style="fill:#dc723b;fill-opacity:1;stroke:#dc723b;stroke-width:0.264999;stroke-linecap:round;stroke-opacity:1"
       d="m 55.300346,143.89483 c -1.270911,0.88557 -2.690664,1.5205 -4.066941,2.21286 -0.906248,0.72806 0.646784,0.85239 1.103491,1.17909 1.52691,0.68812 3.093092,1.33356 4.460823,2.3172 0.622865,0.16578 1.328506,0.21209 1.909285,-0.10143 -0.340717,-0.39656 -1.00985,-0.5127 -1.484319,-0.79913 -1.360471,-0.63412 -2.734456,-1.24927 -4.024717,-2.02052 -0.214905,-0.29881 -0.506932,0.0292 -0.122437,-0.26206 0.667659,-0.50036 1.395736,-0.91477 2.048865,-1.43896 0.47591,-0.33204 0.961081,-0.65067 1.4521,-0.95987 -0.425311,-0.0423 -0.851286,-0.0853 -1.27615,-0.12718 z" />
    <path
       id="path923"
       style="fill:#dc723b;fill-opacity:1;stroke:#dc723b;stroke-width:0.264999;stroke-linecap:round;stroke-opacity:1"
       d="m 114.70617,146.49677 c 9.76236,0.19543 19.5225,-0.22344 29.28057,-0.16307 7.56973,0.0743 15.16506,0.58823 22.71832,0.41341 -6.19798,-0.45625 -12.47884,-0.31922 -18.70916,-0.55673 -10.98723,-0.32837 -21.96862,0.34593 -32.95834,0.12516 -1.70335,0.0101 -1.73208,-0.0399 -0.33139,0.18123 z" />
    <path
       id="path925"
       style="fill:#dc723b;fill-opacity:1;stroke:#dc723b;stroke-width:0.264999;stroke-linecap:round;stroke-opacity:1"
       d="m 162.61167,143.60036 c 1.86934,0.89381 3.71685,1.83334 5.60167,2.69464 0.47931,0.16289 -0.54134,0.14245 -0.72674,0.46438 -1.55498,0.9606 -3.13671,1.88286 -4.76494,2.71513 0.68613,0.3123 1.49371,0.27639 2.22788,0.33517 0.73536,-0.23979 1.27595,-0.85092 1.94081,-1.22969 1.01508,-0.69401 2.06588,-1.36301 3.23142,-1.77547 0.67172,0.0889 0.84398,-0.73018 0.0835,-0.62595 -1.56822,-0.45449 -3.07061,-1.12951 -4.53269,-1.854 -0.75629,-0.27013 -1.37548,-1.08359 -2.23102,-0.81414 -0.27661,0.0301 -0.55323,0.0602 -0.82988,0.0899 z" />
    <path
       id="path927"
       style="fill:#dc723b;fill-opacity:1;stroke:#dc723b;stroke-width:0.264999;stroke-linecap:round;stroke-opacity:1"
       d="m 179.11524,146.5576 c 10.72531,0.27892 21.44911,-0.4222 32.17602,-0.13984 5.64813,-0.18654 11.29387,0.25068 16.92389,0.41916 2.62368,-0.53571 -4.02895,-0.40539 -5.13573,-0.58251 -11.03414,-0.16908 -22.0761,-0.15075 -33.10973,0.0747 -4.04175,0.24593 -8.08826,0.0708 -12.13256,0.0193 0.41944,0.10729 0.85599,0.11907 1.27811,0.20921 z" />
    <path
       id="path929"
       style="fill:#dc723b;fill-opacity:1;stroke:#dc723b;stroke-width:0.264999;stroke-linecap:round;stroke-opacity:1"
       d="m 181.6631,143.47975 c -1.62339,0.94305 -3.45111,1.45282 -5.22836,2.00919 -0.5737,-0.036 -1.24301,0.54684 -0.4056,0.78554 1.89102,0.98028 3.73384,2.06029 5.54148,3.18833 0.6703,0.44598 1.35101,1.14641 2.23329,0.81482 0.32781,-0.0281 1.53542,-0.068 0.69679,-0.39243 -2.44166,-1.07135 -4.5903,-2.68889 -6.91287,-3.96901 0.70052,-0.0877 1.46776,-0.58635 2.19089,-0.83932 0.99525,-0.43879 1.95706,-0.94846 2.94525,-1.40042 0.13377,-0.18143 -0.81724,-0.11356 -1.06087,-0.1967 z" />
    <path
       id="path931"
       style="fill:#dc723b;fill-opacity:1;stroke:#dc723b;stroke-width:0.264999;stroke-linecap:round;stroke-opacity:1"
       d="m 239.1456,146.76263 c 10.18347,0.66615 20.39326,0.0463 30.5771,0.59203 4.16439,-0.008 7.0091,-0.19469 10.07043,-0.0252 2.80521,-0.0321 9.53283,0.38566 9.76079,-0.3948 -6.41277,0.38309 -12.868,-0.17444 -19.29849,0.16642 -9.91115,-0.49946 -19.84331,0.0619 -29.75289,-0.48176 l -0.68037,0.045 -0.67657,0.0981 z" />
    <path
       id="path933"
       style="fill:#dc723b;fill-opacity:1;stroke:#dc723b;stroke-width:0.264999;stroke-linecap:round;stroke-opacity:1"
       d="m 286.71669,143.94568 c 1.99474,0.33128 3.8134,1.26153 5.72884,1.86277 0.25146,0.22642 0.90434,0.0771 0.3009,0.29622 -1.43273,1.06666 -2.8667,2.1347 -4.35834,3.11745 -0.23861,0.54759 0.48551,0.91012 0.92357,0.54569 1.21683,0.0998 1.94939,-1.03273 2.86824,-1.61786 1.01553,-0.75508 2.06706,-1.4838 3.23831,-1.97784 0.17176,-0.71741 -1.0722,-0.48016 -1.51077,-0.75862 -1.79928,-0.50909 -3.51916,-1.26977 -5.33681,-1.71791 -0.61795,0.0835 -1.23614,0.16575 -1.85394,0.2501 z" />
    <path
       d="m 193.74295,264.98013 c -1.05746,0.5555 -2.07228,1.30815 -2.68512,2.35287 -0.34309,0.53357 0.0735,1.14025 0.61068,1.30782 1.0086,0.4105 2.22736,0.39338 3.04538,1.20437 0.47467,0.39609 0.27379,1.11176 -0.16156,1.45093 -0.65815,0.63477 -1.51998,0.99744 -2.33058,1.39187 -0.62178,0.23398 -1.29877,0.32408 -1.88105,0.65864 -0.13349,0.3195 0.3957,0.15825 0.44621,0.23218 1.59806,0.27526 3.18783,-0.3392 4.57571,-1.07912 0.76589,-0.45329 1.56012,-1.07809 1.78625,-1.9789 0.0599,-0.74826 -0.68229,-1.18531 -1.28724,-1.41321 -0.78834,-0.35799 -1.67537,-0.45467 -2.44035,-0.86036 -0.58696,-0.24087 -0.32879,-0.90734 -0.004,-1.24904 0.60168,-0.8137 1.4532,-1.43962 2.40651,-1.77811 -0.69349,-0.08 -1.38701,-0.15985 -2.08049,-0.23994 z"
       style="fill:#dc723b;fill-opacity:1;stroke:#dc723b;stroke-width:0.264999;stroke-linecap:round;stroke-opacity:1"
       id="path132" />
    <path
       d="m 199.66857,265.58759 c 0.55517,1.4044 0.57444,2.94514 0.56894,4.43405 -0.0157,0.87423 -0.0824,1.74658 -0.22184,2.60962 -0.15193,0.50978 0.20522,0.97856 0.73832,0.90397 0.41293,0.0235 0.96976,0.0318 1.15108,-0.42825 0.17844,-0.66638 0.0632,-1.36887 0.10811,-2.0505 -0.018,-1.7216 -0.24804,-3.43026 -0.51647,-5.12795 0.10445,-0.59427 -0.52632,-0.31904 -0.88633,-0.36401 -0.3139,0.008 -0.62807,0.0155 -0.94181,0.0231 z"
       style="fill:#dc723b;fill-opacity:1;stroke:#dc723b;stroke-width:0.264999;stroke-linecap:round;stroke-opacity:1"
       id="path134" />
    <path
       d="m 197.67593,261.22271 c 0.69399,0.15374 1.37227,0.4191 1.99952,0.73407 -0.2511,-0.26665 -0.61533,0.0367 -0.91037,0.0795 -0.17447,0.051 -0.44966,0.13992 -0.11294,0.18184 0.89651,0.12202 1.79003,0.27675 2.6909,0.36819 0.5241,0.0179 1.07084,-0.0956 1.51638,-0.37921 0.22274,-0.1461 0.18471,-0.4902 -0.0441,-0.60912 -0.41251,-0.18929 -0.86262,-0.28282 -1.28586,-0.44719 -0.29776,-0.10393 -0.59406,-0.212 -0.89202,-0.31535 -0.98713,0.12908 -1.97453,0.25836 -2.9615,0.3873 z"
       style="fill:#dc723b;fill-opacity:1;stroke:#dc723b;stroke-width:0.264999;stroke-linecap:round;stroke-opacity:1"
       id="path136" />
    <path
       d="m 207.49708,264.88175 c -0.61753,0.55459 -1.37562,1.02729 -1.67652,1.84424 -0.3943,0.92345 -0.47978,1.95288 -0.44675,2.94592 0.0701,1.01219 0.96813,1.72623 1.89449,1.95446 0.9841,0.27973 2.10867,0.32652 3.03247,-0.16746 1.01337,-0.72464 1.54416,-1.98055 1.65115,-3.19325 0.0164,-0.80442 -0.0812,-1.63069 -0.3627,-2.38806 -0.17137,-0.45735 -0.62649,-0.73815 -1.10579,-0.74501 -0.5506,-0.0386 -1.11595,0.0329 -1.64209,0.18261 0.13338,0.057 0.34218,-0.12424 0.007,-0.0205 -0.1612,0.34724 0.66111,0.49191 0.70946,0.90922 0.2223,0.52532 0.47958,1.05409 0.45758,1.6418 -0.0114,1.13602 -0.42223,2.32374 -1.26942,3.10658 -0.19163,0.26592 -0.80846,0.3727 -0.89112,0.49424 0.48183,-0.0242 1.38114,-0.0238 1.60226,-0.0349 -0.97925,-0.0635 -2.04857,-0.66794 -2.21987,-1.70742 -0.14037,-0.88138 -0.0456,-1.81699 0.30486,-2.64063 0.38635,-0.8659 1.12745,-1.52816 1.9371,-1.99421 -0.66056,-0.0625 -1.32171,-0.12558 -1.98191,-0.18762 z"
       style="fill:#dc723b;fill-opacity:1;stroke:#dc723b;stroke-width:0.264999;stroke-linecap:round;stroke-opacity:1"
       id="path138" />
    <path
       d="m 210.12515,264.31804 c 0.51613,2.02699 0.5712,4.14058 0.58046,6.2222 -0.035,2.67047 -0.53635,5.4577 -2.12636,7.66428 -0.17357,0.40375 -1.16735,1.00843 -1.11753,0.96182 0.49071,-0.032 1.86111,0.0744 1.76268,-2e-5 -0.94458,-0.3343 -0.9523,-1.46971 -0.64145,-2.24068 -0.78344,-0.0362 -2.7034,-0.67297 -2.43628,0.70949 0.0178,0.86523 0.4505,1.88684 1.41036,2.01268 1.17269,0.30044 2.53062,-0.20566 3.09166,-1.31264 1.75997,-2.70631 2.02941,-6.07887 1.73843,-9.21761 -0.026,-1.56497 -0.2984,-3.10247 -0.57367,-4.63907 -0.17803,-0.42709 -1.2123,-0.0598 -1.6883,-0.16045 z"
       style="fill:#dc723b;fill-opacity:1;stroke:#dc723b;stroke-width:0.264999;stroke-linecap:round;stroke-opacity:1"
       id="path140" />
    <path
       d="m 215.00641,264.50707 c 0.25354,1.09749 0.232,2.23273 0.29724,3.35099 0.002,0.95801 0.007,1.91729 -0.058,2.87291 -0.0712,0.50563 0.39317,0.93712 0.88771,0.83707 0.378,0.24447 0.79897,0.007 1.18463,-0.18135 0.3361,-0.27497 0.15289,-0.72994 0.15358,-1.0943 -0.10458,-1.24744 -0.12526,-2.50396 -0.29768,-3.74443 -0.11581,-0.68386 -0.25395,-1.36821 -0.26838,-2.06397 -0.63303,0.008 -1.26609,0.0158 -1.8991,0.0231 z"
       style="fill:#dc723b;fill-opacity:1;stroke:#dc723b;stroke-width:0.264999;stroke-linecap:round;stroke-opacity:1"
       id="path142" />
    <path
       d="m 217.35353,269.71504 c 0.18478,-1.38026 0.66664,-2.71254 1.29073,-3.95258 0.26776,-0.45724 0.52258,-0.98274 0.99123,-1.26246 0.38737,-0.1697 1.18437,-0.1056 1.33504,-0.11391 -0.78861,0.0283 -1.57772,0.0379 -2.36665,0.0528 0.8797,0.19134 1.31102,1.13228 1.41398,1.94801 0.21924,1.49817 0.0143,3.01562 -0.13739,4.51063 0.21956,0.45213 0.86415,0.35006 1.28173,0.39044 0.36193,-0.0651 1.01408,-0.0119 1.01268,-0.52859 -0.0806,-0.72371 0.0358,-1.45097 0.005,-2.17894 -0.0192,-1.0776 -0.10629,-2.16431 -0.36837,-3.212 -0.24811,-0.65205 -0.86285,-1.2943 -1.61119,-1.21997 -0.72122,-0.0102 -1.44691,-0.0795 -2.16587,-0.013 -0.85879,0.22473 -1.17785,1.15282 -1.5349,1.86614 -0.53392,1.17154 -0.7111,2.45815 -1.11639,3.67261 0.65681,0.0135 1.31445,0.0277 1.97072,0.0408 z"
       style="fill:#dc723b;fill-opacity:1;stroke:#dc723b;stroke-width:0.264999;stroke-linecap:round;stroke-opacity:1"
       id="path144" />
    <path
       d="m 230.60017,254.26055 c -3.59854,3.45185 -3.75756,8.93624 -3.04034,13.55466 0.50818,3.31465 1.61972,6.98609 4.54,8.94658 1.02854,0.88669 3.13052,-0.12928 1.11248,-0.81444 -3.04712,-2.57892 -3.73527,-6.85393 -4.11709,-10.61421 -0.12927,-3.16785 0.21035,-6.59674 1.95106,-9.31573 0.73314,-0.79977 1.95693,-2.0288 -0.0268,-1.72166 l -0.41922,-0.0352 z"
       style="fill:#dc723b;fill-opacity:1;stroke:#dc723b;stroke-width:0.264999;stroke-linecap:round;stroke-opacity:1"
       id="path146" />
    <path
       d="m 237.62888,258.95675 c -0.58733,0.42078 -1.10576,0.99197 -1.34194,1.6828 -0.13855,0.80929 0.29605,1.61115 0.86917,2.15348 0.33294,0.31105 0.80824,0.20065 1.21737,0.2749 0.72915,0.0776 1.59332,0.12826 2.16106,-0.42514 0.27864,-0.28565 0.53522,-0.59878 0.75531,-0.93073 0.23175,-0.44567 0.33082,-1.02574 0.0811,-1.48248 -0.19326,-0.19131 -0.56513,-0.6207 -0.81715,-0.45209 -0.31959,-0.0882 -0.71166,-0.085 -0.97023,-0.29476 -0.13928,-0.17611 -0.22539,-0.11574 -0.0917,0.051 -0.0292,0.28003 -0.41604,0.28014 -0.53029,0.34899 0.0516,0.52855 0.1768,1.091 -0.0463,1.59926 -0.0529,0.3346 -0.14724,0.67374 -0.41964,0.8992 -0.0719,0.17199 -0.57677,0.2252 -0.47983,0.30815 0.53751,0.0513 1.07803,0.0356 1.61735,0.0451 -0.40591,0.0256 -0.81063,-0.14182 -1.06432,-0.46276 -0.45426,-0.44025 -0.66981,-1.14547 -0.40516,-1.74153 0.26776,-0.60006 0.75993,-1.09661 1.35643,-1.37236 -0.63037,-0.067 -1.26106,-0.13433 -1.89123,-0.20107 z"
       style="fill:#dc723b;fill-opacity:1;stroke:#dc723b;stroke-width:0.264999;stroke-linecap:round;stroke-opacity:1"
       id="path148" />
    <path
       d="m 239.47144,252.55666 c 0.24322,1.55273 0.19557,3.13087 0.27573,4.69617 0.0205,1.25016 -0.0209,2.5023 0.0294,3.75086 -0.0734,0.59836 0.42301,0.89645 0.93186,0.98288 0.39045,0.15927 1.02446,-0.12219 1.1723,-0.52761 0.0734,-0.86675 -0.12858,-1.73297 -0.13896,-2.60105 -0.2162,-1.71546 -0.70309,-3.39531 -0.73116,-5.13378 -0.11915,-0.46043 0.2819,-1.40506 -0.49307,-1.17645 -0.34869,0.003 -0.69742,0.006 -1.04607,0.009 z"
       style="fill:#dc723b;fill-opacity:1;stroke:#dc723b;stroke-width:0.264999;stroke-linecap:round;stroke-opacity:1"
       id="path150" />
    <path
       d="m 248.96576,256.85645 c -0.63924,0.28299 -1.28237,0.70927 -1.55232,1.38315 -0.0716,0.52457 0.48446,0.80474 0.89005,0.97655 0.47636,0.2063 1.02778,0.39616 1.29031,0.88195 0.0995,0.59843 -0.48542,0.98933 -0.91998,1.27382 -0.59414,0.37223 -1.25695,0.61355 -1.86866,0.95313 0.27758,0.33496 0.7803,0.0438 1.13281,0.26416 0.82206,0.17684 1.72124,0.0749 2.4257,-0.40713 0.58947,-0.3403 1.22565,-0.68003 1.62578,-1.24786 0.28587,-0.55644 -0.086,-1.18863 -0.57362,-1.48367 -0.53968,-0.39101 -1.26543,-0.48699 -1.73782,-0.96969 -0.17648,-0.40281 0.25112,-0.73623 0.54156,-0.93877 0.21525,-0.20085 0.68106,-0.24252 0.79946,-0.44134 -0.68192,-0.0917 -1.36927,-0.16124 -2.05327,-0.2443 z"
       style="fill:#dc723b;fill-opacity:1;stroke:#dc723b;stroke-width:0.264999;stroke-linecap:round;stroke-opacity:1"
       id="path152" />
    <path
       d="m 255.06972,256.65127 c 0.21929,1.02163 0.14839,2.07362 0.14735,3.11031 -0.0251,0.45568 -0.11126,0.95121 0.10959,1.37344 0.21825,0.27412 0.60931,0.2327 0.92016,0.29248 0.3703,0.0516 0.74438,-0.0356 1.10707,-0.10726 0.30855,-0.08 0.38076,-0.43045 0.37685,-0.70581 -0.002,-0.51521 -0.13008,-1.01934 -0.16861,-1.53201 -0.10781,-0.81461 -0.27322,-1.62566 -0.2776,-2.45033 -0.73824,0.006 -1.47675,0.013 -2.21481,0.0192 z"
       style="fill:#dc723b;fill-opacity:1;stroke:#dc723b;stroke-width:0.264999;stroke-linecap:round;stroke-opacity:1"
       id="path154" />
    <path
       d="m 255.03476,252.92738 c 0.25367,0.33684 0.53959,0.65412 0.73372,1.03148 -0.12127,0.16428 0.0341,-0.31962 -0.14117,-0.33295 1.18176,-0.0228 2.36404,-0.0198 3.54599,-0.008 -0.5444,-0.0132 -1.08911,-0.0796 -1.63317,-0.0122 -0.60772,0.0547 -1.21376,0.13243 -1.81958,0.20033 -0.38992,0.0839 -0.79209,0.11983 -1.16944,0.25523 0.1503,0.16835 0.61214,0.0499 0.87546,0.1149 0.98894,0.0931 1.9812,0.0191 2.97173,0.004 0.27226,-0.0166 0.55386,0.004 0.82019,-0.0378 0.22633,-0.16534 0.13745,-0.5981 -0.19082,-0.53208 -0.47297,-0.14123 -0.88954,-0.45406 -1.17982,-0.85154 -0.93763,0.056 -1.87579,0.11242 -2.81309,0.16828 z"
       style="fill:#dc723b;fill-opacity:1;stroke:#dc723b;stroke-width:0.264999;stroke-linecap:round;stroke-opacity:1"
       id="path156" />
    <path
       d="m 260.87718,256.54752 c 0.38042,1.49167 0.28807,3.04864 0.23611,4.57199 -0.0466,0.51197 -0.16099,1.02086 -0.36978,1.49195 0.15628,0.44909 0.89253,-0.0922 1.28732,-0.0716 0.54393,-0.11916 1.09228,-0.21651 1.64008,-0.31582 0.01,-0.82546 0.3698,-1.59771 0.64299,-2.36239 0.4334,-0.99662 0.95114,-2.09979 1.97447,-2.60531 0.25538,-0.10264 0.68613,0.0261 0.17338,-0.005 -0.53277,0.0128 -1.43176,-0.0344 -1.73697,0.049 0.90097,0.13547 1.50084,1.01043 1.55865,1.87902 0.10008,0.4789 -0.0658,0.9778 0.0676,1.44513 0.27769,0.55791 1.07149,0.51679 1.59947,0.45088 0.50769,-0.0199 0.99687,-0.40534 0.92028,-0.95154 0.0809,-1.03386 -0.18827,-2.22447 -1.13927,-2.79606 -0.50166,-0.41679 -1.1611,-0.54841 -1.79718,-0.4891 -0.61646,0.066 -1.24176,-0.0214 -1.8537,0.0708 -1.11399,0.56996 -1.64087,1.79439 -2.16189,2.8604 -0.35826,0.72463 -0.61965,1.50317 -0.96483,2.22585 0.0217,0.39328 0.84623,0.18215 1.19896,0.27119 0.50167,0.015 1.00457,0.0118 1.50465,0.0599 -0.29014,-0.46302 -0.22649,-1.06745 -0.28621,-1.59739 -0.0539,-1.40917 -0.18377,-2.81342 -0.26789,-4.22072 -0.74206,0.0127 -1.48425,0.0265 -2.22622,0.0387 z"
       style="fill:#dc723b;fill-opacity:1;stroke:#dc723b;stroke-width:0.264999;stroke-linecap:round;stroke-opacity:1"
       id="path159" />
    <path
       d="m 271.9644,255.97781 c 1.35053,0.89538 2.55947,1.98665 3.7241,3.10789 0.54289,0.51309 0.97511,1.23008 1.74435,1.42183 0.42448,0.0829 0.87559,0.11897 1.30493,0.0474 0.45637,0.0615 0.85951,-0.42359 0.38388,-0.74431 -0.56859,-0.546 -1.18318,-1.04458 -1.76799,-1.57448 -0.97301,-0.85501 -2.00166,-1.64324 -2.98879,-2.48143 -0.80014,0.0745 -1.60045,0.14827 -2.40048,0.22314 z"
       style="fill:#dc723b;fill-opacity:1;stroke:#dc723b;stroke-width:0.264999;stroke-linecap:round;stroke-opacity:1"
       id="path161" />
    <path
       d="m 277.70912,255.25141 c -1.51669,1.02996 -2.8641,2.27477 -4.22005,3.50115 -0.72114,0.64582 -1.48394,1.25186 -2.16695,1.9364 -0.41647,0.5316 0.3862,1.20557 0.89999,0.92676 0.96889,-0.15926 1.95979,-0.51868 2.5935,-1.30857 1.27902,-1.29291 2.51867,-2.62854 3.86754,-3.84961 0.41168,-0.35945 0.84499,-0.69695 1.31533,-0.97672 -0.76309,-0.0765 -1.52643,-0.15262 -2.28936,-0.22941 z"
       style="fill:#dc723b;fill-opacity:1;stroke:#dc723b;stroke-width:0.264999;stroke-linecap:round;stroke-opacity:1"
       id="path163" />
    <path
       d="m 236.75595,267.44688 c 13.8069,-2.18757 27.84119,-2.2997 41.73734,-3.37187 -8.06729,-0.64377 -16.12462,0.94713 -24.19855,1.04547 -6.33356,0.41123 -12.6571,1.05895 -18.91681,2.11943 0.45934,0.069 0.91868,0.13797 1.37802,0.20697 z"
       style="fill:#dc723b;fill-opacity:1;stroke:#dc723b;stroke-width:0.264999;stroke-linecap:round;stroke-opacity:1"
       id="path165" />
    <path
       d="m 249.26729,272.25644 c -0.48196,0.47082 -1.05923,0.85566 -1.40975,1.44683 -0.43683,0.56931 -0.78566,1.28854 -0.60028,2.02196 0.0768,0.6404 0.55184,1.15313 1.13462,1.39133 1.35155,0.56974 2.85171,0.3028 4.27096,0.27218 0.86874,-0.13898 1.67802,-0.78948 1.82155,-1.68663 0.1604,-0.94453 0.0359,-2.04161 -0.71835,-2.71424 -0.70464,-0.63584 -1.72103,-0.52094 -2.59796,-0.51698 -0.32746,0.0246 -1.20393,0.26126 -0.54102,0.56083 0.55479,0.2789 0.94091,0.83245 1.17032,1.3977 0.34501,0.80142 0.0246,1.80502 -0.72301,2.25321 -0.22848,0.18929 -0.80399,0.27445 -0.87755,0.32083 0.64319,0.009 1.28634,0.0261 1.92965,0.0242 -0.76448,0.0244 -1.60524,-0.23847 -2.0786,-0.86494 -0.33789,-0.55227 -0.26374,-1.25062 0.0681,-1.78573 0.43651,-0.78855 1.13096,-1.41369 1.90392,-1.86407 -0.91754,-0.0854 -1.83519,-0.17165 -2.75265,-0.25651 z"
       style="fill:#dc723b;fill-opacity:1;stroke:#dc723b;stroke-width:0.264999;stroke-linecap:round;stroke-opacity:1"
       id="path167" />
    <path
       d="m 253.28776,266.49891 c -0.17603,2.21042 -0.49933,4.40614 -0.67411,6.61682 -0.0815,0.86342 -0.21805,1.72705 -0.22394,2.59431 0.11894,0.55861 0.81994,0.34681 1.13298,0.66372 0.24921,0.23516 0.25704,-0.27961 0.6529,-0.1777 0.54514,-0.0759 0.79073,-0.63746 0.67088,-1.13441 -0.0524,-1.75583 0.002,-3.51104 0.0615,-5.26568 0.0333,-1.09299 -0.0263,-2.193 0.12627,-3.27922 -0.58217,-0.006 -1.16439,-0.0118 -1.74653,-0.0178 z"
       style="fill:#dc723b;fill-opacity:1;stroke:#dc723b;stroke-width:0.264999;stroke-linecap:round;stroke-opacity:1"
       id="path169" />
    <path
       d="m 257.88435,271.91562 c 0.82213,0.55481 1.4764,1.31534 2.13263,2.04875 0.4926,0.66535 0.90803,1.48783 1.72719,1.80211 0.415,0.15492 0.8641,0.21108 1.30276,0.23184 -0.22307,-0.0156 0.22914,-0.11384 0.38442,-0.1734 0.41964,-0.11799 0.23299,-0.63267 0.0195,-0.86068 -0.48822,-0.66066 -1.11379,-1.20214 -1.66535,-1.80723 -0.53031,-0.52156 -1.08965,-1.0153 -1.69071,-1.45422 -0.73683,0.0708 -1.47365,0.1425 -2.21048,0.21283 z"
       style="fill:#dc723b;fill-opacity:1;stroke:#dc723b;stroke-width:0.264999;stroke-linecap:round;stroke-opacity:1"
       id="path171" />
    <path
       d="m 262.36558,270.69713 c -1.33981,1.18227 -2.47959,2.56604 -3.67021,3.89271 -0.33405,0.41143 -0.69036,0.81631 -0.95193,1.27744 -0.1073,0.50271 0.59667,0.93633 1.03154,0.72692 0.62911,-0.17039 1.29731,-0.4225 1.64929,-1.01188 0.7919,-1.02748 1.60195,-2.04161 2.5037,-2.97611 0.53809,-0.57984 1.08619,-1.15028 1.63241,-1.72244 -0.73159,-0.0623 -1.46325,-0.12389 -2.1948,-0.18664 z"
       style="fill:#dc723b;fill-opacity:1;stroke:#dc723b;stroke-width:0.264999;stroke-linecap:round;stroke-opacity:1"
       id="path173" />
    <path
       d="m 280.18584,251.40096 c 3.63696,1.42292 4.93244,5.72746 4.87869,9.31183 -0.16289,5.23522 -3.04609,9.99367 -6.56763,13.70013 -0.90643,0.41857 -2.49945,1.99975 -0.52055,1.88378 2.13472,0.0908 3.48705,-1.97613 4.75248,-3.39183 2.67669,-3.48745 4.87615,-7.60647 4.98932,-12.09412 0.067,-3.50992 -1.1431,-7.3155 -4.18003,-9.33396 -1.04693,-0.52562 -2.25561,-0.23707 -3.35228,-0.0758 z"
       style="fill:#dc723b;fill-opacity:1;stroke:#dc723b;stroke-width:0.264999;stroke-linecap:round;stroke-opacity:1"
       id="path175" />
    <path
       d="m 15.807064,269.92298 c -1.28024,0.42745 -2.522312,1.26567 -3.08914,2.5287 -0.296887,0.7793 -0.350848,1.74241 0.124338,2.46264 0.448361,0.63917 1.26795,0.91148 2.024136,0.82636 0.701366,-0.0155 1.406029,0.084 2.104274,0.0358 0.87067,-0.17243 1.792649,-0.67451 2.021988,-1.59802 0.21501,-0.90841 0.383483,-1.86395 0.218906,-2.79363 -0.0901,-0.64693 -0.72841,-0.94779 -1.305406,-1.04286 -0.52783,-0.17029 -1.210559,-0.1624 -1.537269,0.35691 -0.05353,0.46938 0.343474,0.84821 0.376156,1.31629 0.212505,0.93614 0.07715,2.0346 -0.676702,2.70209 -0.327616,0.35156 -0.837795,0.51265 -1.241344,0.65961 0.695767,-0.002 1.39467,-0.0307 2.091644,-0.002 -0.767122,0.0811 -1.608301,-0.28088 -1.921196,-1.01921 -0.416031,-0.95594 0.08017,-2.03972 0.741745,-2.74985 0.651849,-0.67674 1.507806,-1.15098 2.417473,-1.37527 -0.783127,-0.10227 -1.566851,-0.20697 -2.349603,-0.30771 z"
       style="fill:#101c06;stroke:#101c06;stroke-width:0.264999;stroke-linecap:round"
       id="path177" />
    <path
       d="m 18.880694,264.39059 c -0.813098,3.24536 -1.094098,6.59078 -1.317743,9.91919 -0.09939,0.64332 0.02764,1.51657 0.770222,1.68449 0.09215,0.0438 0.393158,0.52548 0.265991,0.12587 0.8923,-0.29552 0.972405,-1.30818 0.882104,-2.10098 -0.01807,-2.69729 0.378313,-5.37636 0.743966,-8.04246 -2.6e-4,-0.494 0.459745,-1.23966 0.334969,-1.52785 -0.559823,-0.0194 -1.119757,-0.0387 -1.679509,-0.0583 z"
       style="fill:#101c06;stroke:#101c06;stroke-width:0.264999;stroke-linecap:round"
       id="path179" />
    <path
       d="m 26.964234,269.46731 c -1.074209,0.18304 -2.107325,0.60541 -3.031701,1.17459 -0.39723,0.25752 -0.550507,0.86441 -0.138268,1.18541 0.551484,0.52946 1.312654,0.73807 1.910383,1.19858 0.363729,0.18505 0.409612,0.66662 0.01511,0.8464 -0.341681,0.28984 -0.737763,0.50166 -1.121832,0.72898 -0.429758,0.45439 0.360838,0.30088 0.623784,0.39623 0.507333,0.0334 1.029375,0.12947 1.528588,-0.0145 0.680178,-0.14367 1.380311,-0.48005 1.748265,-1.09434 0.183839,-0.39559 -0.161715,-0.75224 -0.465213,-0.95746 -0.646428,-0.43315 -1.415669,-0.66796 -1.999563,-1.19932 -0.367138,-0.1943 -0.363579,-0.69843 -0.0175,-0.90745 0.8495,-0.54295 1.826217,-0.92018 2.835072,-1.0127 0.286089,-0.008 0.264746,-0.0209 -0.0075,-0.055 -0.626535,-0.0965 -1.253141,-0.19294 -1.87964,-0.28934 z"
       style="fill:#101c06;stroke:#101c06;stroke-width:0.264999;stroke-linecap:round"
       id="path181" />
    <path
       d="m 32.688774,269.46668 c 0.324535,1.66425 0.05245,3.36372 -0.195633,5.01794 -0.08769,0.44281 -0.273466,0.94232 0.0055,1.35874 0.385508,0.34165 0.952768,0.27889 1.430365,0.27341 0.484874,0.0121 1.056187,-0.15534 1.215322,-0.66989 0.161004,-0.48755 0.06771,-1.01158 0.127403,-1.51504 0.06841,-1.14267 -0.06257,-2.28385 -0.08678,-3.42612 -0.01273,-0.3544 -0.02242,-0.70894 -0.02643,-1.06356 -0.823244,0.008 -1.646525,0.0157 -2.469739,0.0245 z"
       style="fill:#101c06;stroke:#101c06;stroke-width:0.264999;stroke-linecap:round"
       id="path183" />
    <path
       d="m 35.446704,265.68542 c 0.608279,-0.25087 0.358137,-1.1161 -0.305731,-0.98368 -0.864856,-0.0759 -1.767579,0.0751 -2.542655,0.47291 -0.459198,0.44474 0.769509,0.21409 1.056505,0.34235 0.597311,0.0559 1.194385,0.11456 1.791881,0.16842 z"
       style="fill:#101c06;stroke:#101c06;stroke-width:0.264999;stroke-linecap:round"
       id="path185" />
    <path
       d="m 38.988794,268.64378 c 0.311248,1.53454 0.275596,3.11621 0.157354,4.6693 -7.96e-4,0.43407 -0.320651,1.09679 -0.171631,1.37761 0.887991,-0.053 1.786622,-0.002 2.664043,-0.17511 -0.05,-0.80995 0.230223,-1.59455 0.435841,-2.36722 0.321677,-0.99837 0.863248,-1.9628 1.669192,-2.64832 0.25519,-0.265 0.924808,-0.45712 1.068972,-0.32293 -0.63995,0.0526 -1.282683,0.0181 -1.922286,-0.0218 0.351142,0.28515 0.669178,0.62756 0.775551,1.08025 0.276519,0.71576 0.275319,1.49297 0.386123,2.23961 0.07863,0.55215 0.443785,1.00632 0.952676,1.22592 0.507713,0.2085 1.090189,-0.38105 1.199474,-0.87198 0.141429,-0.67424 -0.08524,-1.35008 -0.139983,-2.02264 -0.109895,-0.59923 -0.130263,-1.30448 -0.657973,-1.70972 -0.327875,-0.42115 -0.85337,-0.33885 -1.31479,-0.28432 -0.640192,0.0796 -1.299588,-0.0721 -1.92922,0.0749 -0.953218,0.33028 -1.456972,1.29994 -1.905229,2.13153 -0.512412,0.9784 -0.724504,2.07099 -1.117078,3.09439 -0.427599,0.56548 0.597781,0.36735 0.933554,0.45348 0.511602,0.0272 1.02433,0.029 1.535534,0.0644 -0.348393,-0.5345 -0.276491,-1.21124 -0.379353,-1.8167 -0.09984,-1.38984 -0.130979,-2.79649 0.07766,-4.17819 -0.772654,0.002 -1.54659,0.007 -2.318434,0.008 z"
       style="fill:#101c06;stroke:#101c06;stroke-width:0.264999;stroke-linecap:round"
       id="path187" />
    <path
       d="m 51.061094,267.19579 c 1.070011,1.23639 1.905754,2.65538 2.683613,4.08712 0.344706,0.68964 0.652617,1.40106 1.073931,2.04925 0.477691,0.36509 1.150144,0.71248 1.747837,0.59604 0.578895,-0.2261 0.738374,-0.83856 0.323794,-1.31333 -0.567461,-1.05957 -1.241707,-2.05749 -1.840906,-3.09895 -0.509563,-0.82158 -1.039944,-1.63065 -1.521111,-2.46953 -0.82239,0.0497 -1.644756,0.1 -2.467158,0.1494 z"
       style="fill:#101c06;stroke:#101c06;stroke-width:0.264999;stroke-linecap:round"
       id="path189" />
    <path
       d="m 57.101384,266.66129 c -1.85009,1.22997 -3.727197,2.43647 -5.386983,3.92259 -0.597267,0.52071 -1.27764,0.99578 -1.713035,1.66475 -0.01772,0.35403 0.02615,0.92789 0.109176,1.1476 0.426954,-0.31198 0.920555,-0.50651 1.407929,-0.70932 1.11549,-0.4801 1.84198,-1.50421 2.757466,-2.25924 1.305569,-1.11584 2.654984,-2.19027 4.093912,-3.13062 0.235853,-0.19537 1.073085,-0.49525 0.340184,-0.46648 -0.536223,-0.0563 -1.07252,-0.11242 -1.608649,-0.16928 z"
       style="fill:#101c06;stroke:#101c06;stroke-width:0.264999;stroke-linecap:round"
       id="path191" />
    <path
       d="m 13.398664,281.80238 c 12.556928,-1.10557 25.149195,-2.15723 37.753366,-2.38588 1.725119,0.26067 6.990564,0.41133 6.364006,-0.13948 -15.372675,-0.83539 -30.731428,0.95712 -46.027779,2.15852 0.363996,0.35374 1.339075,0.20605 1.910407,0.36684 z"
       style="fill:#101c06;stroke:#101c06;stroke-width:0.264999;stroke-linecap:round"
       id="path193" />
    <path
       d="m 29.910344,289.69502 c -1.381667,0.18364 -2.849764,-0.28706 -4.171216,0.29382 -0.888637,0.41889 -1.578127,1.38396 -1.413489,2.39623 0.02498,0.94676 0.948042,1.68842 1.868613,1.62462 1.045699,-0.002 2.090494,-0.0504 3.135743,-0.075 1.051909,-0.35578 2.202242,-0.9493 2.556477,-2.08597 0.26788,-0.76209 0.215282,-1.68228 -0.362355,-2.29284 -0.548249,-0.72411 -1.520772,-0.89795 -2.376048,-0.82559 -0.483736,-0.003 -1.047296,-0.12911 -1.402922,0.28611 0.307797,0.26313 0.789972,0.41773 1.045091,0.79304 0.755638,0.79359 0.544237,2.12823 -0.228181,2.83083 -0.500627,0.48927 -1.173064,0.75917 -1.846012,0.91275 0.699869,0.0211 1.399842,0.0388 2.099628,0.0626 -0.7397,0.0946 -1.610397,-0.27896 -1.792798,-1.05641 -0.239877,-1.04864 0.627624,-2.06714 1.622662,-2.29001 0.329141,-0.097 1.093057,-0.14512 1.144946,-0.14278 -0.899032,0.0241 -1.798464,0.0135 -2.697658,0.008 0.939081,-0.14642 1.878905,-0.29203 2.817519,-0.43896 z"
       style="fill:#101c06;stroke:#101c06;stroke-width:0.264999;stroke-linecap:round"
       id="path195" />
    <path
       d="m 31.501864,282.81792 c -0.16201,1.45476 -0.6913,2.83974 -0.846819,4.29628 -0.172036,1.13461 -0.536965,2.2543 -0.510442,3.4102 0.02969,0.5604 0.443254,0.98411 0.911547,1.23875 0.518382,0.40659 0.867223,-0.48282 1.130344,-0.81763 0.317777,-0.85429 0.240779,-1.78859 0.391338,-2.67752 0.172224,-1.30062 0.421,-2.58991 0.654234,-3.88055 0.05116,-0.4938 0.380482,-1.14759 0.36649,-1.51303 -0.698887,-0.0189 -1.397872,-0.0369 -2.096692,-0.0565 z"
       style="fill:#101c06;stroke:#101c06;stroke-width:0.264999;stroke-linecap:round"
       id="path197" />
    <path
       d="m 35.377534,287.81777 c 0.896211,0.85027 1.644795,1.83945 2.399567,2.81271 0.307285,0.49027 0.573303,1.06511 1.136122,1.31134 0.502808,0.30888 1.129568,0.4068 1.700367,0.28627 0.218269,0.0179 0.744368,-0.11596 0.678698,-0.51964 -0.03338,-0.46444 -0.444439,-0.77204 -0.69147,-1.13326 -0.81044,-1.00248 -1.651607,-1.97948 -2.480414,-2.96669 -0.914269,0.0698 -1.828692,0.13926 -2.74287,0.20927 z"
       style="fill:#101c06;stroke:#101c06;stroke-width:0.264999;stroke-linecap:round"
       id="path199" />
    <path
       d="m 40.659554,286.79677 c -1.661816,1.35337 -3.077321,2.97256 -4.568142,4.50377 -0.315437,0.43014 -0.837561,0.99325 -0.546295,1.55535 0.334508,0.0547 -0.07041,0.28413 0.08452,0.37543 0.265118,-0.4159 0.824853,-0.35408 1.198826,-0.62613 1.579287,-0.88715 2.604954,-2.42944 3.882649,-3.66571 0.633505,-0.67848 1.236057,-1.39763 1.983263,-1.95689 -0.678278,-0.0619 -1.356517,-0.12423 -2.034824,-0.18582 z"
       style="fill:#101c06;stroke:#101c06;stroke-width:0.264999;stroke-linecap:round"
       id="path201" />
    <path
       d="m 65.784254,276.52589 c 2.109389,-0.54423 4.304154,-0.53567 6.467188,-0.55538 0.08543,0.20144 0.397257,-0.23905 0.02057,-0.1542 -1.592441,-0.29805 -3.220851,-0.41201 -4.836897,-0.27514 -1.472602,0.0738 -2.938311,0.27618 -4.377487,0.59608 0.816608,0.15744 1.653699,0.23167 2.478835,0.35527 0.0826,0.0111 0.165197,0.0222 0.247796,0.0334 z"
       style="fill:#101c06;stroke:#101c06;stroke-width:0.264999;stroke-linecap:round"
       id="path203" />
    <path
       d="m 66.108924,281.70464 c 2.448822,-0.34999 4.926316,-0.385 7.39379,-0.48663 -0.245195,-0.61993 -1.353267,-0.35688 -1.960514,-0.47171 -1.999924,-0.072 -3.985902,0.23139 -5.980449,0.3231 -0.675959,0.0615 -1.831708,0.13178 -2.206319,0.23862 0.917829,0.1322 1.83567,0.26452 2.753492,0.39662 z"
       style="fill:#101c06;stroke:#101c06;stroke-width:0.264999;stroke-linecap:round"
       id="path205" />
    <path
       d="m 87.316394,274.04306 c -1.575762,-0.10198 -3.262477,-0.36107 -4.739291,0.3568 -0.772095,0.49059 -1.354924,1.23485 -1.857075,1.98824 -0.539038,0.84206 -0.739541,1.86841 -0.756514,2.85453 0.0637,0.77502 0.638163,1.45198 1.398037,1.62374 0.863675,0.22439 1.768612,0.19515 2.653849,0.23895 1.336069,0.006 2.74636,-0.15514 3.896081,-0.88593 0.109047,-0.55389 -0.996954,-0.58277 -1.416929,-0.49362 -0.894751,-0.0129 -1.695755,0.41033 -2.525892,0.67335 -0.372588,0.13041 -1.176982,0.21299 -1.311241,0.21801 0.792783,-0.0125 1.585676,-0.003 2.378467,0.003 -0.879119,-0.0105 -1.993023,-0.0777 -2.487358,-0.92648 -0.443696,-0.83698 -0.04647,-1.80599 0.287632,-2.60746 0.585237,-1.24676 1.62286,-2.50028 3.080394,-2.65065 0.244832,-0.0745 -0.52532,-0.0571 -0.7044,-0.0915 -0.493549,-0.0345 -0.988213,-0.0667 -1.483238,-0.0541 0.985697,0.26832 1.989733,-0.0681 2.976143,-0.1606 0.203744,-0.0286 0.408022,-0.058 0.611335,-0.0866 z"
       style="fill:#101c06;stroke:#101c06;stroke-width:0.264999;stroke-linecap:round"
       id="path207" />
    <path
       d="m 93.775484,274.30965 c -1.222386,0.69885 -2.526468,1.58954 -2.968223,3.00029 -0.34583,0.96493 0.06311,2.17023 1.039739,2.58284 0.744259,0.32453 1.578512,0.1987 2.368476,0.26709 1.40704,0.0544 2.878144,-0.0952 4.10065,-0.85332 0.983695,-0.55077 1.952724,-1.34032 2.223094,-2.48952 0.2029,-0.69376 0.3063,-1.58534 -0.32621,-2.09579 -0.562649,-0.53204 -1.181957,0.1335 -1.835633,-0.16049 -0.802684,-0.11179 -1.674354,-0.32988 -2.448644,0.0128 -0.585336,0.22737 -0.162647,0.9814 -0.03476,0.88405 0.561539,-0.0421 1.172184,-0.22552 1.770596,-0.31309 0.373653,-0.07 0.46015,-0.11578 0.01815,-0.0458 0.224417,-0.0579 1.080685,-0.22012 1.556845,-0.25493 -0.852787,0.0101 -1.705712,0.006 -2.558416,-0.009 0.497391,-0.0378 1.091585,0.19597 1.144898,0.75954 0.271108,1.14523 -0.465079,2.2517 -1.366049,2.89172 -0.918722,0.69042 -2.028189,1.16101 -3.180069,1.23793 0.570364,0.0426 1.529924,0.0143 1.860471,0.0263 -0.965876,0.0359 -2.025575,-0.62848 -2.077826,-1.66387 -0.01004,-1.25781 0.986028,-2.23063 1.970925,-2.8704 0.262175,-0.26927 1.057786,-0.46295 1.078711,-0.6286 -0.778787,-0.0928 -1.558571,-0.18367 -2.336721,-0.27767 z"
       style="fill:#101c06;stroke:#101c06;stroke-width:0.264999;stroke-linecap:round"
       id="path209" />
    <path
       d="m 108.46693,273.40665 c -1.48735,-0.0515 -3.06584,-0.21582 -4.45181,0.45055 -0.45611,0.21068 -0.46868,0.80063 -0.20398,1.17033 0.36142,0.6431 0.95778,1.0886 1.56317,1.48349 0.35849,0.22044 0.879,0.6357 0.44819,1.06913 -0.71407,0.69826 -1.59685,1.21863 -2.53995,1.54249 -0.50314,-0.0382 -0.27218,0.46125 0.10315,0.39963 0.28108,0.0225 0.79349,0.15058 1.1773,0.13474 0.87,0.0402 1.81115,0.0942 2.57511,-0.40198 0.73124,-0.42733 1.53483,-0.96161 1.75533,-1.83266 0.119,-0.57427 -0.42502,-0.93783 -0.86623,-1.15832 -0.69283,-0.4392 -1.50454,-0.81702 -1.91787,-1.56422 -0.29396,-0.59991 0.52511,-0.76854 0.94583,-0.86623 0.24733,-0.0657 0.91682,-0.10081 0.30281,-0.1104 -0.38809,-0.0165 -1.15373,-0.0328 -1.30814,-0.0127 0.63908,0.004 1.26654,-0.16462 1.90109,-0.22963 0.17199,-0.0248 0.34409,-0.0494 0.516,-0.0742 z"
       style="fill:#101c06;stroke:#101c06;stroke-width:0.264999;stroke-linecap:round"
       id="path211" />
    <path
       d="m 114.6745,272.52172 c 0.96245,1.54782 1.70774,3.22132 2.72318,4.73786 0.33775,0.55262 0.64134,1.12852 0.93981,1.70016 0.49531,0.51434 1.27064,0.28423 1.89974,0.27522 0.40525,-0.0317 1.16163,0.12394 1.20655,-0.45052 -0.51042,-0.82295 -1.09502,-1.59821 -1.58063,-2.43663 -0.84433,-1.29086 -1.65777,-2.60536 -2.39163,-3.96126 -0.93234,0.0451 -1.86468,0.0902 -2.79702,0.13517 z"
       style="fill:#101c06;stroke:#101c06;stroke-width:0.264999;stroke-linecap:round"
       id="path213" />
    <path
       d="m 120.45626,272.32515 c -1.82428,1.41534 -3.63054,2.85388 -5.47113,4.24799 -0.92781,0.7539 -1.86522,1.50199 -2.77626,2.27281 -0.73837,0.78415 0.68143,1.17094 1.26739,0.91603 0.82379,-0.0597 1.49812,-0.58929 1.99413,-1.21328 1.27821,-1.26459 2.70893,-2.36199 4.05522,-3.55214 1.00685,-0.85417 2.01388,-1.71265 3.10317,-2.4616 -0.72417,-0.07 -1.44838,-0.13954 -2.17252,-0.20981 z"
       style="fill:#101c06;stroke:#101c06;stroke-width:0.264999;stroke-linecap:round"
       id="path215" />
  </g>
</svg>
