<?xml version="1.0" encoding="UTF-8" standalone="no"?>
<svg
   xmlns:dc="http://purl.org/dc/elements/1.1/"
   xmlns:cc="http://creativecommons.org/ns#"
   xmlns:rdf="http://www.w3.org/1999/02/22-rdf-syntax-ns#"
   xmlns:svg="http://www.w3.org/2000/svg"
   xmlns="http://www.w3.org/2000/svg"
   xmlns:sodipodi="http://sodipodi.sourceforge.net/DTD/sodipodi-0.dtd"
   xmlns:inkscape="http://www.inkscape.org/namespaces/inkscape"
   width="1200"
   height="600"
   viewBox="0 0 317.5 158.75"
   version="1.1"
   id="svg8"
   sodipodi:docname="ol-maks.svg"
   inkscape:version="1.0.1 (3bc2e813f5, 2020-09-07)">
  <sodipodi:namedview
     pagecolor="#ffffff"
     bordercolor="#666666"
     borderopacity="1"
     objecttolerance="10"
     gridtolerance="10"
     guidetolerance="10"
     inkscape:pageopacity="0"
     inkscape:pageshadow="2"
     inkscape:window-width="1920"
     inkscape:window-height="1061"
     id="namedview21"
     showgrid="false"
     inkscape:zoom="1.4"
     inkscape:cx="600"
     inkscape:cy="300"
     inkscape:window-x="0"
     inkscape:window-y="19"
     inkscape:window-maximized="0"
     inkscape:current-layer="svg8" />
  <defs
     id="defs2" />
  <metadata
     id="metadata5">
    <rdf:RDF>
      <cc:Work
         rdf:about="">
        <dc:format>image/svg+xml</dc:format>
        <dc:type
           rdf:resource="http://purl.org/dc/dcmitype/StillImage" />
        <dc:title></dc:title>
      </cc:Work>
    </rdf:RDF>
  </metadata>
  <path
     id="path224"
     style="fill:#f9e99a;fill-opacity:1;stroke:#f9e99a;stroke-width:0.264583px;stroke-linecap:butt;stroke-linejoin:miter;stroke-opacity:1"
     d="m 98.766032,108.12449 c -2.514103,-2.36943 -4.959901,-4.81994 -7.421595,-7.22932 -4.903801,-3.07724 -6.306286,-9.07991 -7.325872,-14.38193 -0.709434,-3.66238 -0.01927,-7.4362 0.669404,-11.03044 0.272643,-3.61401 3.807916,-5.16744 7.012034,-5.10994 3.525781,-0.64939 6.459924,1.77668 9.708227,2.66724 2.56277,1.25383 4.3382,3.63214 7.2596,1.67787 4.03424,1.37423 -1.31275,-3.51092 0.32227,-5.64158 0.35984,-2.92699 -0.11494,-6.8366 2.90728,-8.50268 -0.3513,-2.87837 -4.88619,-5.5965 -5.95673,-8.98817 2.68748,-0.97601 5.23044,4.84312 7.72387,6.37661 3.83619,4.04763 7.82437,8.23649 10.22277,13.36631 1.66458,2.50522 2.50232,5.46644 3.86421,8.14259 0.15428,3.9081 2.975,6.74392 5.1989,9.68159 2.0353,4.23624 5.42405,7.97563 6.1415,12.74522 0.0598,3.10199 -0.78027,6.09827 -1.13462,9.14885 -0.55134,2.41557 -3.10649,8.30137 -5.99971,5.83132 -2.85978,-2.00507 -4.31625,-5.2565 -6.33549,-7.95922 -2.25637,-2.92923 3.60019,-4.9738 3.43046,-8.31352 1.95419,-4.14013 1.14645,-9.08606 -1.11335,-12.93815 -0.0767,-2.89498 -1.8785,-4.0511 -3.32832,-1.14911 -2.29868,2.44187 -4.20445,5.45882 -4.16122,8.9429 0.1267,3.08966 -1.21747,6.09909 -0.77692,9.15444 0.3646,2.72254 3.25093,6.23612 4.65039,2.10586 2.59472,-1.53964 3.94841,-8.00804 7.6468,-5.18497 3.25694,2.24439 6.40837,5.86293 5.84613,10.11063 -0.22381,3.19553 -3.02929,5.24575 -3.79581,8.24049 -2.05157,3.92594 0.46176,8.69957 -1.09084,12.73929 -2.25132,3.60418 -7.27205,3.92105 -10.84046,2.4343 -4.53977,-2.55116 -6.71813,-7.48312 -10.24724,-11.08873 -2.27684,-3.82594 -4.7947,-7.55883 -8.05609,-10.6428 -1.49087,-1.89705 -3.934278,-3.06795 -5.019578,-5.20495 z" />
  <path
     id="path230"
     style="fill:#394252;fill-opacity:1;stroke:#394252;stroke-width:0.264583px;stroke-linecap:butt;stroke-linejoin:miter;stroke-opacity:1"
     d="m 49.335173,121.30458 c -2.816352,-3.4128 -0.229923,-3.90238 2.04376,-1.09332 4.449887,4.01172 7.803229,-1.09772 10.796826,-3.85695 3.482609,-4.5694 -3.250967,-7.68989 -4.223045,-11.94208 -3.353709,-6.96564 -3.656269,-14.86274 -3.895808,-22.43738 -0.629668,-3.13061 2.736928,-8.68241 2.83067,-2.46355 1.00921,6.27768 4.218356,12.26991 8.059065,17.34796 1.46909,3.24466 4.399367,-2.28576 7.127293,0.86206 3.996639,2.72466 7.28999,-2.87069 11.341153,-4.17343 4.009406,-3.84129 5.856762,5.73217 9.791542,7.05359 4.418235,3.71869 6.929031,9.15931 11.670261,12.57816 4.78354,3.27835 9.58227,6.75447 12.76389,11.73477 1.33283,3.29382 8.91847,8.18515 5.02538,10.83315 -5.17478,-0.73609 -11.11774,-0.39339 -14.99006,3.55742 -3.71199,2.10711 -7.58656,4.4316 -11.802318,5.1543 -4.67428,-0.5876 -7.186525,-5.53777 -8.181386,-9.65359 1.863506,-6.14542 13.284244,-3.20225 15.068244,-10.93706 -0.92902,-4.89288 -8.640166,-5.35562 -13.035446,-5.2166 -7.967906,1.28314 -14.082405,8.2875 -22.445793,8.25023 -2.425532,0.2549 4.361948,2.99146 6.207082,3.00174 5.463009,0.96218 11.196257,3.29223 16.631584,0.99251 4.902972,-1.7432 7.407817,4.10699 7.998493,7.96607 1.012493,5.16457 -4.144441,7.44382 -8.75196,7.04879 -5.762382,-0.70356 -12.046619,-1.25306 -16.936862,-4.66922 -6.865095,-5.32317 -12.737982,-11.71676 -18.92976,-17.75229 -1.177187,-1.05381 -2.574264,-1.94342 -4.162805,-2.18528 z" />
  <path
     id="path236"
     style="fill:#c18f63;fill-opacity:1;stroke:#c18f63;stroke-width:0.264583px;stroke-linecap:butt;stroke-linejoin:miter;stroke-opacity:1"
     d="m 68.701297,52.636 c 3.151051,-5.23379 10.452956,-6.99102 16.085678,-5.35219 4.802046,2.0102 9.123212,5.81221 10.412001,11.04851 1.998429,4.14077 -0.894871,9.31334 -4.82059,10.96503 -4.187622,1.03642 -10.042738,-4.84497 -7.193565,-8.51885 2.090045,-2.02277 4.765822,3.12679 4.866639,-1.25793 -0.231626,-6.42887 -10.709195,-7.03231 -12.852034,-1.44374 -2.890981,4.06447 -3.122428,9.19839 -1.047931,13.64446 0.756035,5.28098 3.550433,9.84075 6.919837,13.8669 4.243745,6.27169 10.714459,10.47264 15.047327,16.66853 2.977325,3.20954 5.926551,6.42706 9.416701,9.09399 2.93149,4.65242 11.21536,7.53352 9.951,13.83564 -0.76835,2.88494 -6.1382,6.70638 -7.79759,5.00143 2.5247,-3.25569 1.53717,-8.37923 -0.73389,-11.58647 -2.95125,-2.84317 -5.64582,-6.02186 -8.905107,-8.46373 -4.076959,-2.77455 -7.597873,-6.25104 -11.887347,-8.7232 C 82.67251,98.46526 80.35513,94.3739 77.661784,90.7097 73.857305,84.72418 70.566164,78.41974 67.269217,72.15799 64.374104,67.15304 66.907565,62.09491 68.371673,57.21302 68.753709,55.70455 68.512396,54.14637 68.701297,52.636 Z" />
  <path
     id="path242"
     style="fill:#455a8f;fill-opacity:1;stroke:#455a8f;stroke-width:0.264583px;stroke-linecap:butt;stroke-linejoin:miter;stroke-opacity:1"
     d="m 46.648563,92.9992 c -2.590388,-0.57838 -2.92438,3.38609 -0.918984,4.35474 1.24152,1.9438 3.728651,2.35915 5.32079,3.55262 -2.413575,1.61676 -2.993992,5.12484 -1.335206,7.5292 1.273596,2.06555 4.162427,1.66295 5.910186,1.982 -1.290659,2.96996 1.782122,5.69696 4.702982,4.82776 2.856269,-0.42625 4.357426,-3.08239 6.615088,-4.54568 2.878018,-2.09778 6.034278,-3.99052 9.512289,-4.85439 2.865597,-0.51417 5.869284,-0.11341 8.651446,-1.10586 -1.937449,0.25208 -3.506572,-1.1653 -5.426456,-0.99777 -1.376381,0.30607 -5.557227,0.39449 -3.394885,-1.80818 0.505381,-1.33811 3.727488,-1.97676 3.011388,-3.12316 -2.367978,-0.54253 -4.876622,-0.72156 -7.043352,-1.95477 -2.933448,-1.58345 -5.837082,-3.30453 -9.135172,-4.02205 -2.841792,-0.77885 -5.539268,-2.2585 -8.58226,-1.92614 -2.622336,0.25403 -6.089571,-0.33745 -7.887854,2.09168 z" />
  <path
     id="path248"
     style="fill:#455a8f;fill-opacity:1;stroke:#455a8f;stroke-width:0.264583px;stroke-linecap:butt;stroke-linejoin:miter;stroke-opacity:1"
     d="m 34.586494,86.21137 c -4.375932,4.20207 0.996836,9.53367 5.693462,9.61324 1.640528,0.56961 6.728268,-0.90917 2.558942,1.34398 -4.210759,1.81222 -3.117154,7.86855 0.905469,9.16964 2.037697,1.63931 7.336079,1.76908 7.610378,3.58454 -2.224815,4.07221 2.756001,8.5035 6.785129,7.94276 6.02966,1.22589 -2.804707,6.94399 -4.489679,1.96386 -1.464623,-3.12594 -10.391494,-4.87817 -7.648814,0.39964 1.583853,4.29169 8.660268,2.59677 9.846715,6.04714 -3.983613,0.73593 -9.007409,1.10505 -12.40637,-1.6348 -1.699337,-1.50145 1.562976,-7.56392 -2.943342,-5.67229 -5.223688,2.68587 -12.106742,-0.763 -12.92121,-6.57518 1.843215,-4.36643 -1.172642,-7.08297 -5.286266,-8.20556 -3.319171,-2.66405 -6.509859,-5.9845 -8.006242,-10.0755 1.434978,-2.59368 2.486364,-4.05965 -0.982607,-5.74793 C 9.3351763,84.92753 5.6999024,80.80841 4.0074086,75.75267 5.7145621,70.77111 12.67564,72.75943 16.778859,72.64219 c 5.681976,0.6013 11.440122,0.59643 16.932801,2.38652 4.516027,0.72265 8.892572,1.99211 12.992116,4.05015 4.112671,1.51976 8.765233,1.78337 12.327503,4.57406 6.993214,3.34479 12.780361,8.66587 19.460053,12.55683 1.940537,1.30461 4.788524,8.29623 0.755756,4.14128 -1.549564,-4.38543 -6.532908,-4.54459 -9.420894,-7.71747 -4.819542,-3.72899 -10.326405,-6.50389 -15.782905,-9.16705 -4.190371,-1.6236 -8.968988,-3.47398 -13.286538,-1.14754 -2.303312,0.66785 -5.551244,1.0772 -6.170272,3.89236 z" />
  <path
     id="path262"
     style="fill:#b3b3b3;stroke:#b3b3b3;stroke-width:0.264583px;stroke-linecap:butt;stroke-linejoin:miter;stroke-opacity:1"
     d="m 229.00282,71.46636 c 8.95931,-0.63066 19.13443,-0.40396 25.28096,7.25603 7.49819,3.37352 9.73543,22.52095 -1.57973,14.6668 -5.49669,-5.65019 -12.4444,-11.50821 -12.6803,-19.98718 -1.04574,-14.24009 -17.26663,-3.52815 -21.17747,3.24542 -8.00273,2.81182 -16.64974,3.38783 -24.86766,5.43413 -8.99448,-0.80236 -18.04372,4.14048 -8.39627,11.66882 2.31039,4.69334 13.76173,10.90612 8.74602,15.23975 -6.12372,-3.23502 -11.33477,-12.72153 -17.76396,-3.97278 -6.41635,7.23239 -19.91766,13.07755 -19.37891,23.61353 5.18425,7.39989 14.40842,11.26757 23.16063,12.54881 7.73521,2.93179 14.80221,7.71617 23.4057,8.28773 12.49163,3.88094 26.73036,8.40282 39.09114,1.55442 13.06058,-5.6106 25.08538,-13.32191 36.12681,-22.17195 11.66988,-7.07198 19.11589,-18.98755 29.27137,-27.88183 8.49781,-8.63326 6.01561,-20.18459 -2.57451,-27.41789 C 300.88205,62.91647 291.79281,55.30245 284.98393,46.01823 280.03995,37.36695 271.11394,31.89176 266.09223,23.24399 260.78964,16.83811 253.85346,12.06016 249.56717,5.13984 237.1618,0.06528 230.26195,16.42439 236.99859,25.89855 c 3.38614,9.21136 2.66406,19.98713 -4.59291,27.15935 -2.58699,6.32959 -22.98335,13.37009 -3.40286,18.40846 z" />
  <path
     id="path300"
     style="fill:#b3b3b3;fill-opacity:1;stroke:#b3b3b3;stroke-width:0.264583px;stroke-linecap:butt;stroke-linejoin:miter;stroke-opacity:1"
     d="m 227.36847,62.89426 c -4.54676,-3.98857 -4.17003,-10.02777 -3.16066,-15.27923 -0.0621,-5.98616 -4.37803,-11.33062 -9.8198,-13.2699 -8.01564,-1.47883 -3.78862,8.44067 -0.26488,11.17354 3.3942,4.90431 8.06933,8.21716 14.21975,7.32134 4.59447,2.68547 -3.68556,6.82697 -5.72004,9.05426 -6.1114,4.60061 -13.27502,8.27174 -17.36826,15.00655 -3.60922,4.62601 -6.14774,9.94334 -9.08502,14.9655 -2.84085,5.19998 -10.149,6.39232 -12.60938,0.42459 -0.83077,-2.32463 -5.59253,-9.8237 -5.36437,-3.50562 0.96563,5.71961 -1.07643,11.23967 -5.33363,15.10924 -5.76509,6.02438 -13.26998,10.4789 -17.50106,17.86366 -4.29954,4.46249 -5.46793,-5.87911 -4.24976,-8.71236 2.19092,-7.11843 7.4012,-12.82464 10.35792,-19.6245 3.61938,-6.04661 6.86046,-12.3056 9.71782,-18.75199 4.53815,-9.78276 13.49634,-17.05192 16.4265,-27.65255 2.98667,-6.59151 8.90947,-12.1791 16.28898,-13.13823 6.60859,-2.27601 9.83005,-9.06824 13.89263,-14.21953 2.4832,-4.06914 8.87581,-8.65648 12.75362,-3.70296 4.26701,4.3088 4.41979,10.74461 4.21952,16.41007 0.43677,6.27046 0.84115,12.54407 1.18842,18.79893 0.0283,5.41033 -3.68423,9.86976 -8.5883,11.72919 z" />
  <path
     id="path320"
     style="fill:#f9f9f9;fill-opacity:1;stroke:#f9f9f9;stroke-width:0.264583px;stroke-linecap:butt;stroke-linejoin:miter;stroke-opacity:1"
     d="m 202.96265,66.8383 c -4.20709,0.4071 -7.69788,-2.58535 -11.69559,-3.35477 -3.05156,-0.99697 -5.4817,-6.63482 -7.21743,-1.49386 -2.76669,3.39778 -7.29387,6.53844 -5.93209,11.59663 0.44915,5.45967 5.6112,8.54028 10.72801,8.12813 3.67657,0.0864 10.25121,2.05334 7.58634,6.95334 0.21802,4.25393 -1.73403,9.10428 1.63947,12.64697 3.55671,4.0157 6.81133,8.3378 10.71815,12.01972 6.88977,5.56624 15.59273,9.84089 24.65795,9.19892 5.79035,0.8515 -1.53197,-3.339 -1.83599,-5.83015 -2.96396,-4.84805 -4.8402,-10.20322 -6.97199,-15.42972 -1.48222,-2.71374 -0.72796,-8.32357 -2.63129,-9.56239 -4.24879,0.97884 -8.14852,-2.96857 -10.77134,-6.01831 -4.00422,-4.14048 -3.67711,-10.26765 -6.0295,-15.2331 -0.54936,-1.40244 -0.64559,-2.96952 -2.24469,-3.62144 z" />
  <path
     id="path326"
     style="fill:#f9f9f9;fill-opacity:1;stroke:#f9f9f9;stroke-width:0.264583px;stroke-linecap:butt;stroke-linejoin:miter;stroke-opacity:1"
     d="m 233.01606,121.51808 c 1.12619,2.66273 4.20153,5.88281 5.74009,7.0006 -3.14742,0.14746 -6.20262,1.15638 -9.34913,1.5118 -3.22894,0.56391 -6.39575,1.48614 -9.71273,1.23262 -5.24471,0.11204 -10.49389,0.0233 -15.73248,0.27754 -5.34011,-0.2258 -10.71025,-0.19132 -15.98973,-1.16701 -3.29218,0.14977 2.1413,1.1255 2.92899,1.54255 4.87187,1.83362 9.97598,2.89886 14.9922,4.25087 6.09721,1.33552 12.30973,0.0559 18.45425,-0.0995 3.68639,-0.75105 7.65094,-0.15374 11.05405,-2.04226 3.78395,-0.65936 7.09975,-2.70012 10.66209,-4.01055 0.95768,-1.8139 -3.92879,-1.88559 -4.92377,-3.48581 -2.73124,-1.51036 -5.29775,-5.725 -7.83786,-5.8235 l -0.16839,0.41326 -0.11754,0.39935 z" />
  <path
     id="path336"
     style="fill:#f9f9f9;stroke:#f9f9f9;stroke-width:0.264583px;stroke-linecap:butt;stroke-linejoin:miter;stroke-opacity:1"
     d="m 174.16324,76.65837 c 0.12822,7.19828 4.85085,13.10072 8.24348,19.09777 3.70016,6.05093 8.27148,11.61673 13.61679,16.26831 5.12403,5.74549 10.95729,11.76991 18.88672,13.14709 3.25505,1.16491 6.61882,1.92972 10.04756,2.29833 -4.34578,0.17608 -8.5802,-0.44013 -12.7835,-1.46258 -9.99624,-0.17079 -17.81984,-7.72692 -23.82275,-14.94758 -2.49954,-5.20296 -7.52909,-3.38089 -10.89609,-0.21039 -5.68711,2.75271 -9.94519,7.53488 -15.07151,11.1188 -3.23156,1.51074 -6.20968,10.70328 -9.48041,4.55304 -1.90329,-3.88074 1.95308,-7.34944 3.93228,-10.33069 4.10587,-4.56461 10.05013,-7.15518 13.54587,-12.33415 2.28132,-3.12543 6.69754,-6.57382 4.74004,-10.86188 -1.98284,-3.81677 -1.78398,-8.1042 -1.84376,-12.27135 0.0574,-1.39117 0.30022,-2.79271 0.88528,-4.0647 z" />
  <path
     id="path342"
     style="fill:#e6e6e6;stroke:#e6e6e6;stroke-width:0.264583px;stroke-linecap:butt;stroke-linejoin:miter;stroke-opacity:1"
     d="m 243.30223,10.45272 c -5.0357,-2.79426 -11.23971,-2.79059 -15.43586,1.51324 -8.64211,2.887 0.5067,8.81693 1.84366,13.78964 1.90426,6.59001 3.00454,13.83354 1.76546,20.66214 -1.46124,6.02427 -6.84376,10.34689 -12.86594,11.17609 -7.56256,3.11333 -15.11125,6.32117 -23.0836,8.26082 -5.54845,4.1578 -4.41323,14.05141 1.29454,17.73251 5.72604,1.98837 10.83203,5.57723 13.21883,11.42739 4.95335,6.34457 14.23439,-1.58742 14.66111,-8.19047 2.18156,-6.05571 8.94745,-8.54713 12.34999,-13.80637 2.98055,-5.17317 4.63802,-13.2022 12.54292,-12.29437 6.78377,0.22923 12.61317,4.36067 18.81929,6.62472 7.52003,4.44715 11.86998,12.94229 13.04562,21.34506 5.30017,4.69489 7.25108,-8.9812 6.13601,-13.14576 -1.09003,-8.2737 -2.58936,-18.52049 -11.2536,-22.25475 -4.93888,-3.79209 -10.61191,-6.71223 -17.0052,-6.66499 -6.93261,-0.68039 -13.38145,2.2249 -19.43713,5.15032 -8.50595,-0.76859 1.19021,-7.84601 3.08994,-11.05354 2.13551,-5.47034 4.87795,-11.13098 3.76183,-17.22429 -0.40954,-4.2723 -0.16861,-9.99485 -3.44787,-13.04739 z" />
  <path
     id="path360"
     style="fill:#000000;stroke:#000000;stroke-width:0.264583px;stroke-linecap:butt;stroke-linejoin:miter;stroke-opacity:1"
     d="m 227.50128,15.09077 c 2.21969,3.52877 5.20717,7.15604 4.8837,11.58548 -0.22027,3.37946 -0.47244,6.82217 0.44755,10.13082 0.56464,2.28356 0.13198,4.88326 1.49831,6.91791 1.14507,1.22394 3.02942,-0.14237 3.09639,-1.56758 0.54178,-1.90993 0.0543,-3.89285 0.45346,-5.82245 -0.0288,-1.89803 -0.22263,-3.82429 0.20965,-5.6901 0.15698,-4.19499 0.40985,-8.8723 -2.33503,-12.37638 -1.83651,-2.33096 -4.052,-4.36742 -6.41559,-6.15004 -1.27051,-1.18138 -4.03012,-0.28156 -3.14017,1.66824 0.28395,0.54788 0.78579,0.97865 1.30173,1.3041 z" />
  <path
     id="path370"
     style="fill:#000000;stroke:#000000;stroke-width:0.264583px;stroke-linecap:butt;stroke-linejoin:miter;stroke-opacity:1"
     d="m 256.71813,53.3847 c -3.68383,-1.30131 -8.63466,-3.25355 -12.02396,-0.44491 0.0826,4.13541 6.60168,3.33094 9.24871,5.47045 4.59584,2.12889 9.24299,4.09977 14.0387,5.7284 4.34776,1.5557 6.61299,5.81942 10.08966,8.51636 2.40773,2.4122 4.2974,5.28791 5.09686,8.62724 1.0858,1.51013 1.19082,8.08235 1.57141,3.14273 0.83922,-6.24531 -2.75944,-12.00724 -6.40659,-16.74192 -3.84994,-3.61118 -8.07843,-6.80097 -12.20576,-10.08349 -3.17144,-1.3141 -5.75105,-4.3368 -9.40903,-4.21486 z" />
  <path
     id="path377"
     style="fill:#000000;stroke:#000000;stroke-width:0.264583px;stroke-linecap:butt;stroke-linejoin:miter;stroke-opacity:1"
     d="m 174.68526,95.46436 c -0.27538,1.8476 -1.25633,3.4755 -1.96227,5.16444 -3.50037,4.68441 -9.05491,7.3482 -12.48153,12.11538 -1.86074,2.05967 -4.8396,3.13676 -5.84875,5.92418 -0.45238,1.71128 -2.34065,2.84596 -2.05204,4.74989 0.57351,1.25456 1.09279,4.23187 2.51699,3.95243 1.19929,-1.95954 2.78991,-3.61957 4.69161,-4.90412 1.90837,-1.49696 3.79384,-3.02839 5.80168,-4.39229 2.4586,-0.64554 4.31479,-2.63105 6.32979,-4.0952 2.43515,-2.14512 4.99677,-4.16151 7.35263,-6.38569 1.30263,-1.50659 2.49682,-3.61089 0.99863,-5.44006 -1.33012,-1.88911 -2.39318,-3.98053 -3.84484,-5.77609 -0.41803,-0.41685 -0.92603,-0.76038 -1.50188,-0.91287 z" />
  <path
     id="path387"
     style="fill:#000000;stroke:#000000;stroke-width:0.264583px;stroke-linecap:butt;stroke-linejoin:miter;stroke-opacity:1"
     d="m 192.66774,76.86308 c 1.27668,3.782 3.68483,7.62037 8.06772,7.84798 3.44677,3.57353 0.38946,9.73289 0.79222,14.43898 -1.35365,5.03635 2.85112,8.46857 5.74842,11.85812 4.01904,4.52121 9.97052,7.42341 16.08787,6.96718 4.22674,0.65535 9.29329,-1.05953 12.14503,2.99209 2.62368,3.5682 -5.6042,2.09565 -7.8151,2.15836 -4.52189,0.18956 -8.90595,-0.20322 -13.37012,-0.94559 -4.71216,-1.62313 -7.70093,-6.06096 -11.19719,-9.36651 -3.19502,-3.51981 -6.47112,-6.91212 -9.6714,-10.40719 -3.23369,-2.80202 -1.29092,-7.20234 -1.07912,-10.87365 -0.72755,-2.08305 3.6529,-7.23471 -0.82371,-5.45621 -3.92465,-1.15048 -8.29389,0.62764 -11.90093,-1.40582 -1.867,-2.96502 -3.45291,-6.46563 -4.28917,-9.93284 -0.65826,-4.40539 3.59716,-6.99256 5.07273,-10.67627 1.3013,-1.52454 4.3065,-8.32509 5.72644,-4.14586 -1.21784,4.46973 -7.23335,6.83588 -6.33336,11.99346 0.64296,3.76238 3.70829,7.23535 7.83992,6.33695 1.74431,-0.0474 3.49301,-0.48955 4.99975,-1.38318 z" />
</svg>
