<?xml version="1.0" encoding="UTF-8" standalone="no"?>
<svg
   xmlns:dc="http://purl.org/dc/elements/1.1/"
   xmlns:cc="http://creativecommons.org/ns#"
   xmlns:rdf="http://www.w3.org/1999/02/22-rdf-syntax-ns#"
   xmlns:svg="http://www.w3.org/2000/svg"
   xmlns="http://www.w3.org/2000/svg"
   xmlns:sodipodi="http://sodipodi.sourceforge.net/DTD/sodipodi-0.dtd"
   xmlns:inkscape="http://www.inkscape.org/namespaces/inkscape"
   width="1200"
   height="600"
   viewBox="0 0 317.5 158.75"
   version="1.1"
   id="svg8"
   sodipodi:docname="ol-neurons.svg"
   inkscape:version="1.0.1 (3bc2e813f5, 2020-09-07)">
  <sodipodi:namedview
     pagecolor="#ffffff"
     bordercolor="#666666"
     borderopacity="1"
     objecttolerance="10"
     gridtolerance="10"
     guidetolerance="10"
     inkscape:pageopacity="0"
     inkscape:pageshadow="2"
     inkscape:window-width="1920"
     inkscape:window-height="1061"
     id="namedview168"
     showgrid="false"
     inkscape:zoom="1.4"
     inkscape:cx="600"
     inkscape:cy="300"
     inkscape:window-x="0"
     inkscape:window-y="19"
     inkscape:window-maximized="0"
     inkscape:current-layer="svg8"
     inkscape:document-rotation="0" />
  <defs
     id="defs2" />
  <metadata
     id="metadata5">
    <rdf:RDF>
      <cc:Work
         rdf:about="">
        <dc:format>image/svg+xml</dc:format>
        <dc:type
           rdf:resource="http://purl.org/dc/dcmitype/StillImage" />
        <dc:title />
      </cc:Work>
    </rdf:RDF>
  </metadata>
  <g
     id="g1633"
     transform="translate(73.222124,-87.406283)">
    <path
       id="path158"
       style="fill:#5599ff;fill-opacity:1;stroke:#5599ff;stroke-width:0.264583px;stroke-linecap:butt;stroke-linejoin:miter;stroke-opacity:1"
       d="m 75.99945,160.31539 c 0.731996,2.80643 -4.341329,3.10304 -3.609158,5.12363 1.422935,1.33297 -0.540154,4.90227 -0.198253,5.336 3.425177,-0.68099 3.8407,3.80093 3.960501,6.18018 -0.09272,4.4312 -1.10349,8.82911 -0.612231,13.2796 -0.256992,2.54273 0.399169,5.01127 1.598104,7.24906 1.443691,3.93891 3.318558,8.01615 6.905119,10.45171 1.076275,0.5912 2.70997,5.66289 2.535806,2.27393 -1.444686,-2.19445 -3.21627,-4.17987 -4.422735,-6.56352 -1.335606,-2.35497 -3.333024,-4.33122 -3.938677,-7.05706 -0.370731,-2.20649 -1.620088,-4.19117 -1.773646,-6.42373 -0.291682,-3.07742 0.06892,-6.21666 0.365142,-9.31566 0.470948,-2.83719 -0.490435,-6.37175 2.050756,-8.45045 2.86297,-1.11939 0.51053,-3.6316 1.562576,-5.93193 0.07692,-1.05337 1.495521,-2.86441 -0.41844,-1.9121 -2.132548,-0.48254 -3.088072,-2.49117 -4.004864,-4.23966 z" />
    <path
       id="path166"
       style="fill:#0044aa;stroke:#0044aa;stroke-width:1;stroke-linecap:round"
       d="m 80.9983,164.59527 c 1.868914,-1.50542 4.138003,-3.1705 4.151903,-5.83512 0.251408,-1.03411 0.0288,-4.14767 -1.281959,-2.44355 0.391728,2.02984 0.455413,4.39838 -1.267137,5.89301 -0.140259,0.668 -3.302679,2.02148 -1.602807,2.38566 z" />
    <path
       id="path168"
       style="fill:#0044aa;stroke:#0044aa;stroke-width:1;stroke-linecap:round"
       d="m 85.593808,158.76238 c 0.605228,-1.74028 2.392055,-3.74028 2.915592,-4.95304 -0.78086,1.47669 -3.202188,3.53805 -2.915592,4.95304 z" />
    <path
       id="path170"
       style="fill:#0044aa;stroke:#0044aa;stroke-width:1;stroke-linecap:round"
       d="m 84.209509,160.45864 c 2.22187,-1.03018 4.667402,0.60021 5.669929,2.58851 1.684166,0.89912 0.160828,-2.04568 -0.935107,-2.14896 -1.100873,-1.38349 -4.406923,-1.3946 -4.972577,-0.64972 z" />
    <path
       id="path172"
       style="fill:#0044aa;stroke:#0044aa;stroke-width:1;stroke-linecap:round"
       d="m 86.179868,158.20354 c 1.319755,-1.55994 3.556046,-3.07995 5.600173,-2.16362 2.04831,-0.26551 -1.68027,-1.37834 -2.404698,-0.58939 -1.170808,0.4852 -3.449095,1.58728 -3.507086,2.64028 z" />
    <path
       id="path174"
       style="fill:#0044aa;stroke:#0044aa;stroke-width:1;stroke-linecap:round"
       d="m 76.772158,160.56104 c 0.04045,-2.25318 1.197076,-4.3442 2.720631,-5.94619 -0.124408,-1.11356 -1.293982,0.17414 -1.383462,0.75138 -0.732382,1.47876 -1.638223,2.90344 -1.906738,4.56251 -0.236699,0.76778 -0.132317,0.62685 0.569569,0.6323 z" />
    <path
       id="path176"
       style="fill:#0044aa;stroke:#0044aa;stroke-width:1;stroke-linecap:round"
       d="m 76.942997,159.44514 c -0.06192,-2.32578 -1.06974,-4.49275 -2.367724,-6.37956 -0.563931,-0.84941 -0.70138,-2.1367 -1.776968,-2.52457 -0.889957,-0.3075 -1.200061,0.88238 -0.352749,1.14748 1.469649,1.49675 2.551345,3.3604 3.277277,5.31795 0.370982,0.73455 0.06686,2.06524 0.573522,2.46112 0.215547,-0.007 0.431096,-0.0149 0.646642,-0.0224 z" />
    <path
       id="path178"
       style="fill:#0044aa;stroke:#0044aa;stroke-width:1;stroke-linecap:round"
       d="m 75.992508,156.51649 c -1.366328,-0.99183 -3.068022,-1.38725 -4.721205,-1.54275 -1.196221,0.0225 -0.989992,1.40337 0.16056,1.16951 1.194302,0.13664 2.497197,0.21674 3.471055,1.00714 0.363195,-0.2113 0.726412,-0.42257 1.08959,-0.6339 z" />
    <path
       id="path180"
       style="fill:#0044aa;stroke:#0044aa;stroke-width:1;stroke-linecap:round"
       d="m 73.20531,164.41933 c -1.659728,-0.58223 -3.180773,-1.52918 -4.907954,-1.92397 -1.682551,-0.25817 -0.414747,-2.0132 -0.521851,-3.05378 0.160835,-1.37768 -1.071683,-2.30558 -1.36327,-3.57304 -0.232437,-0.44616 -0.379663,-1.38711 -0.306166,-1.59039 -0.538015,0.94929 -1.147474,2.04631 -0.337132,3.06598 0.578603,0.89055 0.942531,1.95589 0.640776,3.01789 -0.258524,1.00885 -0.837376,2.69771 0.711954,2.90926 1.799799,0.48777 3.572766,1.08815 5.300658,1.79104 0.260988,-0.21434 0.522047,-0.42859 0.782985,-0.64299 z" />
    <path
       id="path182"
       style="fill:#0044aa;stroke:#0044aa;stroke-width:1;stroke-linecap:round"
       d="m 67.099015,161.30118 c -1.405134,0.13508 -2.443694,-1.14466 -2.774344,-2.38367 -0.278805,-1.19392 -0.699676,-2.38861 -1.80163,-3.04208 -0.746606,-0.79405 -1.278111,-1.77142 -2.087673,-2.50921 -1.087832,0.99497 -0.120062,2.52303 0.917912,3.09836 1.035375,0.68249 1.671981,1.76649 1.853418,2.97973 0.227201,1.023 0.745603,2.25959 1.928466,2.39955 0.679289,0.13425 1.551195,0.11287 1.963851,-0.54268 z" />
    <path
       id="path184"
       style="fill:#0044aa;stroke:#0044aa;stroke-width:1;stroke-linecap:round"
       d="m 65.0682,160.47639 c -1.262129,-0.77175 -3.141073,-1.18168 -4.329129,-0.0604 -1.010499,0.88524 -1.436175,2.21116 -2.157087,3.29653 -0.425817,0.79146 0.420111,1.83737 1.015579,0.77965 0.596041,-1.09654 0.844199,-2.47636 1.969854,-3.19987 0.577938,-0.33914 1.26307,-0.68693 1.21787,-0.53465 0.876872,0.26291 1.596908,0.46835 2.282913,-0.28125 z" />
    <path
       id="path186"
       style="fill:#0044aa;stroke:#0044aa;stroke-width:1;stroke-linecap:round"
       d="m 65.702251,162.20586 c -1.286498,0.14087 -2.45349,1.26228 -2.404898,2.60004 -0.09577,1.10548 -0.568762,2.66216 0.17838,3.52182 1.319095,0.37691 0.853033,-1.15435 0.823369,-1.90218 0.01054,-0.95831 0.214722,-1.9502 0.727059,-2.76728 0.474185,-0.46405 2.123898,-0.32261 0.964287,-1.13589 -0.09606,-0.10551 -0.192123,-0.21102 -0.288197,-0.31651 z" />
    <path
       id="path188"
       style="fill:#0044aa;stroke:#0044aa;stroke-width:1;stroke-linecap:round"
       d="m 72.113099,170.32988 c -2.210173,0.86375 -4.424687,1.90704 -6.83952,1.98553 -0.310285,0.0534 -4.974169,-1.97896 -3.11723,0.4089 3.360003,1.41182 7.072055,0.092 10.199355,-1.33688 1.378347,-0.42992 0.386867,-0.42325 -0.242605,-1.05755 z" />
    <path
       id="path190"
       style="fill:#0044aa;stroke:#0044aa;stroke-width:1;stroke-linecap:round"
       d="m 70.301614,171.70323 c -1.176431,0.0461 -0.963987,-0.20074 -0.956404,-0.0781 -1.283251,0.14961 -2.681293,-3.75462 -3.204994,-1.32439 0.60048,1.86857 3.033496,3.1271 4.715455,2.03237 l -0.277031,-0.31496 z" />
    <path
       id="path192"
       style="fill:#0044aa;stroke:#0044aa;stroke-width:1;stroke-linecap:round"
       d="m 68.419818,172.67928 c -2.33392,0.0986 -4.801856,1.87543 -4.489268,4.44 -0.400967,1.57283 2.222493,3.03266 1.138703,0.79598 -0.516437,-1.66874 0.395667,-3.71185 2.215288,-4.0315 0.559246,-0.32444 2.581736,-0.28737 1.135277,-1.20448 z" />
    <path
       id="path194"
       style="fill:#0044aa;stroke:#0044aa;stroke-width:1;stroke-linecap:round"
       d="m 67.189653,173.63422 c 1.712624,1.21135 1.957501,3.30087 1.513315,5.10163 2.259527,-0.1839 1.430678,-3.0098 0.17159,-4.10061 -0.376168,-0.47083 -1.001511,-1.35691 -1.684905,-1.00102 z" />
    <path
       id="path196"
       style="fill:#0044aa;stroke:#0044aa;stroke-width:1;stroke-linecap:round"
       d="m 80.477785,171.57676 c 2.623127,-0.23373 4.71316,2.13678 4.763915,4.65525 0.192596,0.81362 -0.267789,3.78045 0.474375,3.48183 0.674927,-2.67293 0.405746,-6.13592 -2.013214,-7.87108 -0.335115,-0.35595 -4.712016,-1.74457 -3.225076,-0.266 z" />
    <path
       id="path198"
       style="fill:#0044aa;stroke:#0044aa;stroke-width:1;stroke-linecap:round"
       d="m 80.693497,171.39723 c 1.830027,0.51341 4.011899,2.09126 5.733978,0.42264 1.55606,-0.52369 2.116819,-4.9266 0.540536,-2.13356 -0.474931,1.65139 -2.286379,3.03187 -3.986651,2.15426 -0.785442,-0.0954 -1.664959,-1.37881 -2.287863,-0.44334 z" />
    <path
       id="path200"
       style="fill:#0044aa;stroke:#0044aa;stroke-width:1;stroke-linecap:round"
       d="m 85.066229,173.40814 c 1.664302,-2.1792 4.658857,-2.4606 7.066559,-1.62612 1.75093,-0.83713 -2.576144,-1.12896 -3.42978,-0.9242 -1.451003,0.19648 -3.703534,1.1716 -4.069208,2.40447 z" />
    <path
       id="path202"
       style="fill:#0044aa;stroke:#0044aa;stroke-width:1;stroke-linecap:round"
       d="m 84.833922,173.51086 c 1.980809,0.48991 3.933623,1.34309 6.024427,0.99447 1.181368,0.31935 4.072652,-1.41225 1.414518,-1.08721 -1.945173,0.72731 -4.111784,0.84218 -6.014248,-0.0978 -0.631065,-0.36473 -0.942619,-0.49487 -1.424697,0.19057 z" />
    <path
       id="path204"
       style="fill:#0044aa;stroke:#0044aa;stroke-width:1;stroke-linecap:round"
       d="m 86.39743,174.14108 c 2.384131,0.61917 2.545086,3.4485 3.45389,4.99799 1.424047,-1.51916 -0.756348,-3.86822 -1.98436,-5.00314 -0.56308,-0.57219 -0.901185,-0.65248 -1.46953,0.005 z" />
    <path
       id="path206"
       style="fill:#0044aa;fill-opacity:1;stroke:#0044aa;stroke-width:1;stroke-linecap:round;stroke-opacity:1"
       d="m 85.578682,210.01862 c 1.222349,2.23597 1.467068,5.00721 0.477298,7.37664 -0.528173,1.37781 -1.234595,2.71487 -2.263471,3.78201 -0.761126,1.36255 1.448114,0.99478 1.605077,-0.0522 1.052676,-1.62426 1.479438,-3.54942 2.013318,-5.38357 0.363692,-1.99989 -0.118148,-4.07424 -0.862322,-5.92255 -0.315688,-0.0771 -0.647892,0.17421 -0.9699,0.19965 z" />
    <path
       id="path208"
       style="fill:#0044aa;fill-opacity:1;stroke:#0044aa;stroke-width:1;stroke-linecap:round;stroke-opacity:1"
       d="m 86.134862,211.06451 c 0.571891,3.53541 0.997236,7.38906 3.438134,10.20479 0.421394,0.58717 1.757497,1.05004 0.937591,-0.0638 -0.892756,-1.21004 -1.841562,-2.42283 -2.244572,-3.90469 -0.621997,-2.00445 -0.885725,-4.10447 -1.284439,-6.15337 -0.174706,-0.33647 -0.568334,-0.0334 -0.846714,-0.0829 z" />
    <path
       id="path210"
       style="fill:#0044aa;fill-opacity:1;stroke:#0044aa;stroke-width:1;stroke-linecap:round;stroke-opacity:1"
       d="m 86.743258,211.53583 c 1.689083,2.33503 4.140548,3.92831 6.195069,5.90409 0.403721,0.45548 1.600895,0.67836 0.897358,-0.22338 -1.663104,-1.52681 -3.755029,-2.54472 -5.282336,-4.23209 -0.644632,-0.42071 -0.81385,-1.9439 -1.810091,-1.44862 z" />
    <path
       id="path212"
       style="fill:#0044aa;fill-opacity:1;stroke:#0044aa;stroke-width:1;stroke-linecap:round;stroke-opacity:1"
       d="m 85.589445,209.39374 c 1.032625,0.47742 2.057718,1.50158 3.279435,1.15385 1.090365,-0.65379 1.267964,-2.1555 2.363055,-2.83466 1.489829,-1.00774 3.393905,-0.74378 5.090938,-0.98916 1.506425,-0.69036 -1.201221,-0.69948 -1.753065,-0.52054 -1.712334,0.14646 -3.746717,0.33891 -4.809839,1.88771 -0.495051,0.627 -0.790665,1.57856 -1.656969,1.77733 0.520116,0.16508 -1.315778,-0.3881 -1.569635,-0.80445 -0.378814,-0.2004 -0.622377,0.2194 -0.94392,0.32992 z" />
    <path
       id="path214"
       style="fill:#0044aa;fill-opacity:1;stroke:#0044aa;stroke-width:1;stroke-linecap:round;stroke-opacity:1"
       d="m 88.869469,210.53489 c 2.039217,-0.38979 4.151854,-0.63951 6.218845,-0.40078 0.758054,0.4619 2.96878,-0.1922 1.501063,-0.75893 -2.795652,0.0396 -5.578413,0.41472 -8.375387,0.45274 0.218488,0.23565 0.437067,0.47144 0.655479,0.70697 z" />
    <path
       id="path1086"
       style="fill:#0044aa;fill-opacity:1;stroke:#0044aa;stroke-width:0.264583px;stroke-linecap:butt;stroke-linejoin:miter;stroke-opacity:1"
       d="m 75.565758,166.25309 c -1.173074,0.65771 -0.848976,2.61348 0.345329,3.0647 0.853691,0.34937 1.915003,-0.15179 2.165878,-1.04609 0.343507,-0.83076 0.168148,-2.0255 -0.770224,-2.37613 -0.426262,-0.14332 -1.995029,-0.54533 -1.740983,0.35752 z" />
    <path
       id="path1096"
       style="fill:#5599ff;fill-opacity:1;stroke:#5599ff;stroke-width:0.264583px;stroke-linecap:butt;stroke-linejoin:miter;stroke-opacity:1"
       d="m 77.151838,167.30405 c -0.176309,0.0996 -0.405529,0.18141 -0.455732,0.40347 -0.04989,0.2105 0.162154,0.3581 0.344228,0.39132 0.195655,0.0464 0.498426,0.0135 0.533026,-0.23156 0.0167,-0.1819 0.04655,-0.43039 -0.138658,-0.53863 -0.08845,-0.0391 -0.190206,-0.006 -0.282864,-0.0246 z" />
  </g>
  <g
     id="g1662"
     transform="translate(-35.483193,-139.10382)">
    <path
       id="path1119"
       style="fill:#5599ff;fill-opacity:1;stroke:#5599ff;stroke-width:0.264583px;stroke-linecap:butt;stroke-linejoin:miter;stroke-opacity:1"
       d="m 134.49915,172.76899 c -0.32521,1.984 -2.53891,3.07221 -2.54297,5.1918 -0.39398,1.93946 -0.15159,4.19961 2.00431,4.93606 1.89564,1.64862 -0.33647,4.39453 0.12456,6.54617 -0.0137,4.96141 0.6892,9.98036 2.68482,14.5543 0.88284,2.50117 2.27146,4.89283 4.41947,6.51074 0.67132,1.10107 2.73489,1.89716 1.47602,0.0299 -1.09148,-2.24353 -3.55732,-3.46722 -4.23644,-5.97549 -0.86115,-2.46361 -2.43967,-4.69625 -2.56039,-7.37722 -0.24572,-2.35375 -0.0951,-4.73952 -0.44035,-7.07409 0.29129,-2.02606 0.57166,-4.07482 1.06316,-6.0633 0.69325,-1.29889 3.50776,-1.37236 3.12038,-3.56464 0.0707,-2.08542 -1.08491,-4.06136 -2.27154,-5.68175 -0.82987,-0.82472 -1.81575,-1.47705 -2.84103,-2.03243 z" />
    <path
       id="path1125"
       style="fill:#0044aa;fill-opacity:1;stroke:#0044aa;stroke-width:0.264583px;stroke-linecap:butt;stroke-linejoin:miter;stroke-opacity:1"
       d="m 135.63206,178.33747 c -0.41532,-0.19717 -0.8995,-0.18461 -1.30846,0.0201 -0.70965,0.21418 -1.14311,1.0734 -0.88426,1.76804 0.18472,0.47685 0.74948,0.59663 1.20063,0.66436 0.65037,0.0687 1.4174,-0.0469 1.83819,-0.59877 0.21711,-0.31753 0.29457,-0.73365 0.23117,-1.11039 -0.14074,-0.40344 -0.60807,-0.53091 -0.96002,-0.69157 l -0.0589,-0.0255 -0.0584,-0.0263 z" />
    <path
       id="path1132"
       style="fill:#5599ff;fill-opacity:1;stroke:#5599ff;stroke-width:0.264583px;stroke-linecap:butt;stroke-linejoin:miter;stroke-opacity:1"
       d="m 135.54054,179.50998 c -0.0906,0.12045 -0.19148,0.23331 -0.27436,0.35951 0.0377,0.10799 0.18515,0.0814 0.27318,0.12157 0.16616,0.034 0.3657,0.047 0.50038,-0.075 0.0892,-0.0991 -0.0155,-0.20908 -0.11256,-0.24403 -0.1235,-0.0663 -0.26012,-0.10262 -0.38664,-0.16208 z" />
    <path
       id="path1140"
       style="fill:#0044aa;fill-opacity:1;stroke:#0044aa;stroke-width:1;stroke-linecap:round;stroke-opacity:1"
       d="m 138.3719,178.01091 c 1.98614,1.45611 2.16085,-2.07474 3.64991,-2.64892 1.23756,-0.72163 4.18286,-0.89048 4.046,-2.40431 -1.35477,0.75244 -2.83647,1.21563 -4.27728,1.75463 -1.26732,0.42926 -2.23272,2.75804 -2.37525,3.22828 -0.4244,-0.11935 -0.60612,-0.36302 -1.04338,0.0703 z" />
    <path
       id="path1142"
       style="fill:#0044aa;fill-opacity:1;stroke:#0044aa;stroke-width:1;stroke-linecap:round;stroke-opacity:1"
       d="m 141.09318,176.39626 c 1.4534,0.89742 3.07376,1.86507 4.836,1.32688 1.15562,-0.0454 1.27034,-1.52797 -0.0276,-0.82494 -1.56882,1.10353 -3.12066,-0.60521 -4.36177,-0.90201 l -0.22603,0.21936 z" />
    <path
       id="path1144"
       style="fill:#0044aa;fill-opacity:1;stroke:#0044aa;stroke-width:1;stroke-linecap:round;stroke-opacity:1"
       d="m 139.13455,181.44894 c 0.60093,2.32162 3.219,0.82063 4.8043,1.21147 0.69665,0.29844 3.07142,0.0281 1.24542,-0.49257 -1.64929,-0.6004 -3.4019,0.39437 -4.94689,-0.10408 -0.30816,-0.44362 -0.45337,-0.9438 -1.10283,-0.61482 z" />
    <path
       id="path1146"
       style="fill:#0044aa;fill-opacity:1;stroke:#0044aa;stroke-width:1;stroke-linecap:round;stroke-opacity:1"
       d="m 139.4039,182.3147 c 0.46927,2.02698 2.05324,3.48677 3.1113,5.07981 -0.0864,0.9118 0.99641,2.87482 1.31863,1.00054 0.0326,-2.04661 -2.17979,-2.84415 -2.97959,-4.394 -0.24521,-0.67348 -0.30434,-2.29959 -1.45034,-1.68635 z" />
    <path
       id="path1148"
       style="fill:#0044aa;fill-opacity:1;stroke:#0044aa;stroke-width:1;stroke-linecap:round;stroke-opacity:1"
       d="m 139.89351,182.91672 c 1.00181,1.65331 -0.87314,3.43594 -0.45918,4.8469 1.25677,-0.86277 1.34062,-2.74224 1.2815,-4.17652 0.005,-0.45158 -0.31694,-1.00622 -0.82232,-0.67038 z" />
    <path
       id="path1150"
       style="fill:#0044aa;fill-opacity:1;stroke:#0044aa;stroke-width:1;stroke-linecap:round;stroke-opacity:1"
       d="m 131.99762,181.11554 c -1.29983,1.33565 -2.40616,3.31218 -4.49165,3.38684 -0.8077,-0.0506 -3.01104,0.81143 -1.21504,1.16038 1.74349,-0.21933 3.63837,-0.75822 4.78466,-2.19005 0.34213,-0.82857 2.76119,-2.0153 0.92203,-2.35717 z" />
    <path
       id="path1152"
       style="fill:#0044aa;fill-opacity:1;stroke:#0044aa;stroke-width:1;stroke-linecap:round;stroke-opacity:1"
       d="m 130.73905,183.21669 c -0.91853,1.51324 -0.73009,3.52832 0.55744,4.74663 0.0686,0.79627 0.91401,2.6865 1.19283,0.87772 -0.59723,-1.73682 -2.57698,-3.37234 -1.10631,-5.28795 -0.0101,-0.29939 -0.46477,-0.25508 -0.64396,-0.3364 z" />
    <path
       id="path1154"
       style="fill:#0044aa;fill-opacity:1;stroke:#0044aa;stroke-width:1;stroke-linecap:round;stroke-opacity:1"
       d="m 129.82436,184.76698 c -0.23502,1.94702 -1.08795,3.72738 -2.10296,5.31727 1.4466,0.13511 2.16985,-1.78526 2.36857,-3.03663 0.0246,-0.682 0.97762,-2.37516 -0.26561,-2.28064 z" />
    <path
       id="path1156"
       style="fill:#0044aa;fill-opacity:1;stroke:#0044aa;stroke-width:1;stroke-linecap:round;stroke-opacity:1"
       d="m 131.67097,177.78743 c -1.3738,0.27887 -3.32862,-1.3506 -4.89452,-1.92584 -2.8159,0.38775 -0.9616,-3.36397 -2.97869,-3.80778 -1.57788,0.3787 0.38741,1.62717 -0.036,2.66998 0.0347,1.8921 1.98595,1.77759 3.26301,2.30492 1.41014,0.73442 2.79593,1.77057 4.47625,1.61852 1.07058,0.13749 0.75591,-0.44611 0.16994,-0.8598 z" />
    <path
       id="path1158"
       style="fill:#0044aa;fill-opacity:1;stroke:#0044aa;stroke-width:1;stroke-linecap:round;stroke-opacity:1"
       d="m 129.96759,177.87076 c -1.59638,-1.60579 -4.40373,-0.58078 -4.93511,1.50586 -0.63257,0.92307 -3.5326,1.43801 -2.86844,2.3622 2.15873,-0.005 3.77635,-1.65432 4.84592,-3.33842 0.88435,-0.84257 2.10654,0.21078 2.95763,-0.52964 z" />
    <path
       id="path1160"
       style="fill:#0044aa;fill-opacity:1;stroke:#0044aa;stroke-width:1;stroke-linecap:round;stroke-opacity:1"
       d="m 130.51404,177.87792 c -2.3391,-0.34715 -0.65474,-2.99035 -1.54673,-4.23307 -0.33327,-1.03623 -2.1779,-0.90828 -0.97215,0.17366 0.68778,1.46704 -0.48837,3.81934 1.57979,4.53806 0.3839,0.0751 0.68576,-0.24129 0.93909,-0.47865 z" />
    <path
       id="path1162"
       style="fill:#0044aa;fill-opacity:1;stroke:#0044aa;stroke-width:1;stroke-linecap:round;stroke-opacity:1"
       d="m 135.28644,172.93703 c -2.15291,-1.07651 1.30038,-3.38441 -0.26492,-4.90292 -1.35947,-1.07992 -1.42415,-2.70698 -0.24592,-3.92614 0.87982,-2.03658 -1.26563,-3.42992 -1.60601,-5.18131 -0.40634,-1.73499 2.84371,-2.41902 1.70081,-3.82444 -1.29805,0.71182 -2.30939,2.20106 -2.94745,3.56479 -0.11931,2.02269 2.72957,3.67834 1.26899,5.71756 -1.16878,1.59868 -0.54378,3.41801 0.87201,4.50874 0.49942,1.356 -1.68281,4.46424 0.78462,4.41507 l 0.21964,-0.15134 0.21828,-0.22001 z" />
    <path
       id="path1164"
       style="fill:#0044aa;fill-opacity:1;stroke:#0044aa;stroke-width:1;stroke-linecap:round;stroke-opacity:1"
       d="m 134.80394,162.88726 c 1.53655,-1.48316 3.95675,-0.0259 5.77514,-0.38952 1.30936,0.46671 1.54678,3.1679 2.42177,3.16353 -0.14911,-1.52937 -1.11155,-3.55898 -2.76583,-3.803 -1.69285,0.35553 -3.37188,-0.37131 -4.97782,0.08 -0.38731,0.10874 -1.47207,0.82514 -0.45326,0.94898 z" />
    <path
       id="path1166"
       style="fill:#0044aa;fill-opacity:1;stroke:#0044aa;stroke-width:1;stroke-linecap:round;stroke-opacity:1"
       d="m 134.49297,162.30657 c 0.75253,-1.28938 1.388,-2.9229 3.08986,-3.16413 1.82597,-0.333 3.44957,-1.23054 5.0922,-2.04892 0.0545,-0.36646 -2.05254,0.39502 -2.80169,0.70559 -1.19322,0.62557 -2.64223,0.63065 -3.72987,1.43734 -0.67064,0.8001 -2.1882,2.30744 -1.95437,2.9457 z" />
    <path
       id="path1168"
       style="fill:#0044aa;fill-opacity:1;stroke:#0044aa;stroke-width:1;stroke-linecap:round;stroke-opacity:1"
       d="m 138.44658,158.66995 c 1.52701,-0.8958 0.005,-3.44681 2.07381,-3.97138 1.21193,-1.2622 -1.70752,-0.10253 -1.90179,0.60385 -0.91598,0.95861 0.12545,2.21411 -0.60411,3.12521 l 0.14715,0.11525 0.28496,0.12707 z" />
    <path
       id="path1170"
       style="fill:#0044aa;fill-opacity:1;stroke:#0044aa;stroke-width:1;stroke-linecap:round;stroke-opacity:1"
       d="m 134.21085,160.84453 c -0.78953,-1.27188 -2.44228,-2.88171 -3.66984,-2.44381 -1.28431,0.51207 -2.26339,-2.31942 -3.18447,-0.90867 0.64165,1.856 3.4498,1.79695 4.14118,1.88707 1.25407,0.0536 1.38378,2.32192 2.71313,1.46541 z" />
    <path
       id="path1172"
       style="fill:#0044aa;fill-opacity:1;stroke:#0044aa;stroke-width:1;stroke-linecap:round;stroke-opacity:1"
       d="m 134.73851,162.17271 c -1.51931,-1.16487 -3.60765,-1.22312 -4.9985,0.0889 -1.01897,0.16049 0.35866,0.0925 -0.76012,0.0315 -1.12773,-0.27003 -2.94294,-2.76657 -3.57715,-1.52137 1.15007,1.42284 3.2005,2.97591 5.09336,2.18665 1.03823,-0.92586 1.84168,-1.42078 3.13562,-0.53825 0.42315,0.22567 0.77787,0.0138 1.10679,-0.24743 z" />
    <path
       id="path1174"
       style="fill:#0044aa;fill-opacity:1;stroke:#0044aa;stroke-width:1;stroke-linecap:round;stroke-opacity:1"
       d="m 133.00971,162.8577 c -1.87331,0.22553 -2.13261,2.83319 -4.07035,2.9777 -0.93718,0.0134 -2.06199,1.40665 -0.41746,1.11627 1.29873,-0.50253 3.06581,-0.8538 3.37405,-2.38818 0.31182,-0.6328 2.78165,-0.98581 1.11376,-1.70579 z" />
    <path
       id="path1176"
       style="fill:#0044aa;fill-opacity:1;stroke:#0044aa;stroke-width:1;stroke-linecap:round;stroke-opacity:1"
       d="m 142.13997,210.56807 c 0.88537,1.2349 1.0765,2.85524 0.6011,4.28615 -0.1722,1.3153 -0.95696,2.45124 -2.11145,3.09407 -0.49958,0.34561 -2.1481,1.13179 -0.80781,1.44755 1.25421,-0.53647 2.53689,-1.56807 3.21355,-2.81597 0.41027,-1.29286 0.87377,-2.65545 0.7563,-4.02412 -0.40291,-0.69423 -0.56552,-2.68083 -1.65169,-1.98768 z" />
    <path
       id="path1178"
       style="fill:#0044aa;fill-opacity:1;stroke:#0044aa;stroke-width:1;stroke-linecap:round;stroke-opacity:1"
       d="m 142.94986,212.4339 c -0.34855,2.48353 -1.02033,5.2091 0.19054,7.56537 0.50291,1.14303 1.8056,1.44663 2.9352,1.31356 1.09503,-0.46421 -0.34041,-0.75281 -0.86326,-0.55504 -1.35338,-0.15734 -1.87042,-1.67843 -2.06148,-2.83886 -0.24168,-1.81829 0.18516,-3.62711 0.46799,-5.4141 -0.22299,-0.0237 -0.44605,-0.0472 -0.66899,-0.0709 z" />
    <path
       id="path1180"
       style="fill:#0044aa;fill-opacity:1;stroke:#0044aa;stroke-width:1;stroke-linecap:round;stroke-opacity:1"
       d="m 142.99819,212.55659 c 0.6182,1.05369 1.7322,1.57483 2.85114,1.89994 0.90252,0.51115 0.99594,1.67953 1.74294,2.35543 0.75533,0.80932 1.82014,1.63993 2.99846,1.38264 -0.82482,-0.81312 -2.17692,-1.01376 -2.72454,-2.14612 -0.47953,-0.79422 -0.67885,-2.00525 -1.81864,-2.08713 -1.02928,-0.0349 -2.10496,-0.56592 -2.4915,-1.57223 -0.18595,0.0557 -0.37238,0.11184 -0.55786,0.16747 z" />
    <path
       id="path1182"
       style="fill:#0044aa;fill-opacity:1;stroke:#0044aa;stroke-width:1;stroke-linecap:round;stroke-opacity:1"
       d="m 143.5246,211.57792 c 1.60221,-0.18664 2.74688,1.37776 4.27729,1.6517 1.17099,0.30108 2.40201,0.24806 3.59791,0.15563 0.34631,-0.91085 -1.59668,-0.23074 -2.2051,-0.37151 -1.41067,0.01 -2.72043,-0.59655 -3.84845,-1.39868 -0.57039,-0.38959 -1.71326,-0.69703 -2.163,-0.2925 l 0.17347,0.11966 0.16791,0.13571 z" />
    <path
       id="path1184"
       style="fill:#0044aa;fill-opacity:1;stroke:#0044aa;stroke-width:1;stroke-linecap:round;stroke-opacity:1"
       d="m 144.40726,211.05406 c 0.48423,-1.21364 1.97567,-1.12593 3.05628,-1.10407 1.33156,0.0134 2.91424,0.10244 3.90111,-0.96287 0.44342,-0.53084 0.45343,-1.19052 -0.29178,-0.57352 -1.0645,0.69493 -2.28267,1.16779 -3.57511,1.08658 -1.1699,-0.0239 -2.79694,-0.13213 -3.2826,1.21248 -0.0643,0.12695 -0.002,0.39033 0.1921,0.3414 z" />
    <path
       id="path1186"
       style="fill:#0044aa;fill-opacity:1;stroke:#0044aa;stroke-width:1;stroke-linecap:round;stroke-opacity:1"
       d="m 143.66628,210.85964 c 0.0232,-1.23712 1.03989,-2.19727 2.14608,-2.58944 1.56147,-0.71393 3.11093,-1.44973 4.70095,-2.10007 0.9073,-1.09167 -0.91292,-0.53572 -1.38642,-0.12864 -1.58302,0.85842 -3.30233,1.45354 -4.86653,2.34029 -0.65378,0.59771 -1.45659,1.69228 -1.33477,2.49147 0.24727,0.0396 0.49334,-0.0182 0.74069,-0.0136 z" />
  </g>
  <g
     id="g1703"
     transform="translate(23.357292,-115.51352)">
    <path
       id="path1188"
       style="fill:#5599ff;fill-opacity:1;stroke:#5599ff;stroke-width:0.264583px;stroke-linecap:butt;stroke-linejoin:miter;stroke-opacity:1"
       d="m 194.74252,176.27709 c -1.1784,-1.18079 -3.33341,-3.22863 -4.64761,-1.00324 -1.24895,1.94836 -1.76028,4.5374 -1.08257,6.77798 0.73094,1.61056 3.49536,1.71812 2.65353,4.10195 -0.25303,3.87222 -0.37765,7.76104 -0.30946,11.6391 -0.49379,3.00148 -2.61975,5.32927 -3.59582,8.14858 -1.19697,2.34689 -2.91663,4.38466 -4.31644,6.5847 1.10089,1.55989 3.04141,-1.84074 3.99615,-2.72666 1.80905,-2.05871 3.92132,-4.18733 4.21518,-7.0561 1.25056,-3.53253 2.00708,-7.35424 1.13491,-11.07122 -0.54159,-1.91156 -0.54643,-3.89145 -0.033,-5.80743 -0.0157,-2.1229 2.77428,-1.64867 3.73057,-3.15852 1.2096,-1.78788 1.20542,-4.64701 -0.55712,-6.0727 -0.35767,-0.21831 -0.77428,-0.32161 -1.1883,-0.35644 z" />
    <path
       id="path1194"
       style="fill:#0044aa;fill-opacity:1;stroke:#0044aa;stroke-width:0.264583px;stroke-linecap:butt;stroke-linejoin:miter;stroke-opacity:1"
       d="m 192.61612,178.34762 c -0.4815,-0.26241 -1.08656,0.11504 -1.09793,0.65606 -0.1269,0.53931 -0.18764,1.20972 0.2691,1.61822 0.39231,0.32101 0.80212,0.7459 1.34412,0.75236 0.48548,-0.0396 0.78696,-0.51428 0.98145,-0.91326 0.30128,-0.71139 0.17169,-1.62178 -0.37262,-2.18244 -0.2556,-0.28529 -0.72699,-0.41825 -0.97447,-0.0448 -0.0464,0.0422 -0.0946,0.083 -0.14965,0.11391 z" />
    <path
       id="path1202"
       style="fill:#5599ff;fill-opacity:1;stroke:#5599ff;stroke-width:0.264583px;stroke-linecap:butt;stroke-linejoin:miter;stroke-opacity:1"
       d="m 193.1913,179.22603 c -0.17829,0.0964 -0.41181,0.11095 -0.53872,0.28668 -0.0424,0.15288 0.0939,0.28018 0.1778,0.39097 0.10631,0.11565 0.34597,0.30611 0.47188,0.12258 0.0776,-0.19189 0.002,-0.40515 -0.0454,-0.59573 -0.0206,-0.0686 -0.0433,-0.13645 -0.0655,-0.2045 z" />
    <path
       id="path1211"
       style="fill:#0044aa;fill-opacity:1;stroke:#0044aa;stroke-width:1;stroke-linecap:round;stroke-opacity:1"
       d="m 184.59289,212.36756 c -0.94918,1.53006 -1.93072,3.56767 -0.92704,5.30606 0.91038,1.76034 2.85898,2.57084 4.68443,3.00844 0.67438,0.37978 1.87722,-0.62928 0.68034,-0.77234 -1.79526,-0.21163 -3.79026,-0.84522 -4.64487,-2.58843 -0.74147,-1.39922 -0.1772,-3.147 0.71968,-4.33553 0.70004,-0.4768 -0.2484,-0.36383 -0.51254,-0.6182 z" />
    <path
       id="path1213"
       style="fill:#0044aa;fill-opacity:1;stroke:#0044aa;stroke-width:1;stroke-linecap:round;stroke-opacity:1"
       d="m 184.34763,212.28416 c -0.30824,0.20414 -1.29372,0.27631 -1.05304,0.15713 -1.68923,-0.15102 -2.32967,-1.94598 -3.58672,-2.79534 -0.89373,-0.49725 -1.9805,-0.66729 -2.97378,-0.39704 -0.63072,0.73582 0.39613,0.40414 0.75207,0.78802 -0.8339,-0.0161 1.01014,-0.007 1.26994,0.35609 1.36527,0.80942 2.14524,2.52578 3.83611,2.8022 0.6419,0.10133 2.44596,0.23575 2.31492,-0.54455 -0.17682,-0.13735 -0.38492,-0.22514 -0.5595,-0.36651 z" />
    <path
       id="path1215"
       style="fill:#0044aa;fill-opacity:1;stroke:#0044aa;stroke-width:1;stroke-linecap:round;stroke-opacity:1"
       d="m 183.09268,213.23959 c -1.50297,1.30815 -3.29905,2.32773 -5.29084,2.61583 -0.66922,0.0338 -0.97081,0.98697 -0.0437,0.83672 1.08527,0.20125 2.14441,-0.33631 3.12301,-0.73705 1.10303,-0.60862 2.10618,-1.44445 3.08378,-2.19531 -0.236,-0.22825 -0.59977,-0.32726 -0.87225,-0.52019 z" />
    <path
       id="path1217"
       style="fill:#0044aa;fill-opacity:1;stroke:#0044aa;stroke-width:1;stroke-linecap:round;stroke-opacity:1"
       d="m 184.31311,214.02128 c -1.46776,0.401 -2.05272,1.93502 -2.58169,3.19678 -0.60675,1.12641 -2.11324,1.30083 -2.67348,2.44404 -0.29789,0.88834 1.58801,-0.22853 2.06095,-0.59166 0.80036,-0.64355 1.75619,-1.30816 1.88338,-2.42105 0.0774,-1.08195 1.43224,-1.68636 1.88451,-2.074 -0.20022,-0.17551 -0.38418,-0.36724 -0.57367,-0.55411 z" />
    <path
       id="path1219"
       style="fill:#0044aa;fill-opacity:1;stroke:#0044aa;stroke-width:1;stroke-linecap:round;stroke-opacity:1"
       d="m 183.72213,218.44607 c 0.44489,1.8213 -0.16314,3.75907 -1.34241,5.17577 -0.7484,0.92833 0.31448,1.6014 0.89553,0.63613 0.96363,-1.36343 1.52186,-3.01619 1.39933,-4.69523 0.0227,-0.94908 0.27737,-1.33096 -0.95245,-1.11667 z" />
    <path
       id="path1221"
       style="fill:#0044aa;fill-opacity:1;stroke:#0044aa;stroke-width:1;stroke-linecap:round;stroke-opacity:1"
       d="m 183.97823,217.73031 c 0.38395,1.4276 0.0268,3.0254 0.69282,4.36461 0.77397,0.75439 1.91881,2.18016 3.08676,1.68323 0.83233,-0.92835 -1.32229,-0.88208 -1.68658,-1.60061 -0.99808,-0.81649 -0.70342,-2.23727 -0.94024,-3.36573 0.0451,-0.70648 -0.0747,-1.35037 -0.9569,-1.08317 l -0.19586,10e-4 z" />
    <path
       id="path1223"
       style="fill:#0044aa;fill-opacity:1;stroke:#0044aa;stroke-width:1;stroke-linecap:round;stroke-opacity:1"
       d="m 195.40144,176.7153 c 2.12697,-1.66765 3.34982,2.33928 5.14378,2.95059 2.47731,0.97779 4.22921,-3.24901 6.41535,-0.92034 2.14228,1.64277 4.90386,1.68807 7.02338,-0.0188 1.72925,-0.94199 4.41353,0.58673 5.62469,-1.51166 0.66087,-1.30953 4.09464,-3.57874 2.35659,-4.53589 -2.18907,1.23261 -3.34164,5.36107 -5.71139,4.79019 -2.24709,-0.44718 -4.02918,1.39009 -6.07241,1.69739 -2.25429,-0.39661 -4.61703,-3.37106 -6.81322,-1.20624 -2.18204,2.69088 -4.11767,-0.74749 -5.88403,-1.96633 -0.54106,-0.86648 -4.00056,0.0597 -2.08274,0.72109 z" />
    <path
       id="path1225"
       style="fill:#0044aa;fill-opacity:1;stroke:#0044aa;stroke-width:1;stroke-linecap:round;stroke-opacity:1"
       d="m 213.08066,178.80764 c 1.14059,1.6049 0.98712,4.83871 3.79276,4.48233 1.05855,0.20938 3.48758,-1.53532 1.06915,-1.28067 -2.9655,1.48645 -2.68128,-2.68239 -4.28351,-3.49172 l -0.26721,0.0958 -0.31119,0.19456 z" />
    <path
       id="path1227"
       style="fill:#0044aa;fill-opacity:1;stroke:#0044aa;stroke-width:1;stroke-linecap:round;stroke-opacity:1"
       d="m 215.44372,177.70238 c -0.34056,-1.75379 3.00417,-3.11249 1.31666,-5.15962 -2.08966,-0.22965 -0.88607,2.60771 -2.2675,3.65004 -0.52873,0.91208 -0.57663,2.53677 0.95084,1.50958 z" />
    <path
       id="path1229"
       style="fill:#0044aa;fill-opacity:1;stroke:#0044aa;stroke-width:1;stroke-linecap:round;stroke-opacity:1"
       d="m 209.74424,179.25665 c 1.2655,-1.11914 1.53966,-5.31695 -0.26614,-4.91719 0.37526,1.54971 -0.0208,3.86944 -0.12707,4.71948 z" />
    <path
       id="path1231"
       style="fill:#0044aa;fill-opacity:1;stroke:#0044aa;stroke-width:1;stroke-linecap:round;stroke-opacity:1"
       d="m 207.88564,179.05237 c 2.34834,2.13065 -1.33034,4.53711 -0.29486,6.49612 1.06569,0.27481 1.25097,-2.25027 2.00722,-3.09848 0.47834,-1.15216 -0.0378,-3.97551 -1.71236,-3.39764 z" />
    <path
       id="path1233"
       style="fill:#0044aa;fill-opacity:1;stroke:#0044aa;stroke-width:1;stroke-linecap:round;stroke-opacity:1"
       d="m 202.1365,179.86492 c 2.65583,0.76829 -2.25129,5.06147 0.7265,4.21357 1.20887,-0.90107 1.65749,-4.92593 -0.7265,-4.21357 z" />
    <path
       id="path1235"
       style="fill:#0044aa;fill-opacity:1;stroke:#0044aa;stroke-width:1;stroke-linecap:round;stroke-opacity:1"
       d="m 203.06081,177.48577 c 0.58655,0.0471 -0.8404,-0.57648 0.14545,-1.45682 0.6965,-2.07134 -3.56801,0.86643 -1.33433,1.92947 0.56209,0.94529 3.00854,0.7708 1.18888,-0.47265 z" />
    <path
       id="path1237"
       style="fill:#0044aa;fill-opacity:1;stroke:#0044aa;stroke-width:1;stroke-linecap:round;stroke-opacity:1"
       d="m 190.75783,176.27685 c -2.68113,-1.04252 -5.24819,-3.12197 -8.19703,-3.01115 -2.34408,0.54699 -5.78648,1.75674 -5.41916,4.74679 0.55612,2.98 -2.94604,1.67356 -3.9805,3.10246 1.92381,1.11843 6.25397,-0.18001 5.52596,-3.06969 -0.59378,-2.44206 3.05384,-3.07172 4.63876,-3.63823 2.41808,0.2716 4.57982,2.64714 6.89254,2.28236 l 0.25286,-0.18682 z" />
    <path
       id="path1239"
       style="fill:#0044aa;fill-opacity:1;stroke:#0044aa;stroke-width:1;stroke-linecap:round;stroke-opacity:1"
       d="m 178.57794,175.50208 c -1.70186,1.23428 -2.14238,-1.30889 -4.41719,-1.11285 -1.11468,-0.62522 -5.00342,1.26594 -2.44235,1.59201 1.87555,-1.3481 3.65388,-0.16893 5.34441,0.89477 0.82249,0.24109 3.7801,-0.57546 1.51513,-1.37393 z" />
    <path
       id="path1241"
       style="fill:#0044aa;fill-opacity:1;stroke:#0044aa;stroke-width:1;stroke-linecap:round;stroke-opacity:1"
       d="m 182.08412,173.43634 c -2.2341,-0.20771 -3.15877,-2.63632 -2.46628,-4.28634 -1.28075,-1.67565 -2.21947,-4.07941 -3.09011,-5.63329 -1.61225,2.38927 1.16597,4.12173 1.60242,6.12163 -0.86621,2.10906 1.76992,5.45939 3.75568,4.04419 z" />
    <path
       id="path1243"
       style="fill:#0044aa;fill-opacity:1;stroke:#0044aa;stroke-width:1;stroke-linecap:round;stroke-opacity:1"
       d="m 179.60244,169.84319 c -0.83333,-3.12198 -3.72139,-0.43879 -5.41853,-0.13123 -1.37664,0.17734 -4.16715,-2.86 -4.89376,-0.78373 2.20077,1.67816 5.91367,2.81938 8.12101,0.61441 0.0349,-1.46903 1.00018,1.22103 2.19128,0.30055 z" />
    <path
       id="path1245"
       style="fill:#0044aa;fill-opacity:1;stroke:#0044aa;stroke-width:1;stroke-linecap:round;stroke-opacity:1"
       d="m 179.42634,171.46976 c -0.45951,-2.55092 2.54118,-3.37618 3.63251,-5.17088 1.19041,-1.13231 -0.93177,-4.85693 -0.95201,-1.79426 0.37034,2.82747 -3.31762,3.16791 -3.53578,5.8419 -0.0964,0.65891 -0.0816,1.54244 0.85528,1.12324 z" />
    <path
       id="path1247"
       style="fill:#0044aa;fill-opacity:1;stroke:#0044aa;stroke-width:1;stroke-linecap:round;stroke-opacity:1"
       d="m 186.73342,173.50315 c -2.70473,-1.41505 -0.54061,-4.07716 0.15994,-5.69733 -1.55861,-0.56924 -3.56628,2.71231 -2.49688,4.33304 0.29343,1.03375 1.18118,2.35919 2.33694,1.36429 z" />
    <path
       id="path1249"
       style="fill:#0044aa;fill-opacity:1;stroke:#0044aa;stroke-width:1;stroke-linecap:round;stroke-opacity:1"
       d="m 185.79633,173.93242 c 0.72384,-0.52617 3.66398,-3.01129 1.06906,-2.28041 -0.56087,0.63526 -3.42927,1.9065 -1.06906,2.28041 z" />
    <path
       id="path1251"
       style="fill:#0044aa;fill-opacity:1;stroke:#0044aa;stroke-width:1;stroke-linecap:round;stroke-opacity:1"
       d="m 192.65585,174.47028 c 1.40281,-2.61375 0.51441,-5.57512 -0.72251,-8.03282 -1.27877,-2.88678 1.56391,-5.38959 0.90869,-8.15888 -1.78394,-2.79457 0.62071,-5.2315 1.13525,-7.92238 0.88057,-2.16409 -3.01187,-3.65197 -1.96389,-0.79297 1.04041,2.73877 -2.58255,4.69546 -1.29018,7.61642 1.3811,2.77057 -1.11323,5.30573 -0.71004,8.14653 0.18735,2.7482 2.91756,5.14406 1.62175,7.9756 -0.57206,0.93076 0.22209,1.16506 1.02093,1.1685 z" />
    <path
       id="path1253"
       style="fill:#0044aa;fill-opacity:1;stroke:#0044aa;stroke-width:1;stroke-linecap:round;stroke-opacity:1"
       d="m 191.77486,156.93256 c 1.27078,-2.59998 -2.15803,-4.27051 -2.07267,-6.81318 -0.81281,-3.02613 -1.8905,1.09863 -0.69604,2.1108 1.2958,1.30914 1.57069,3.59553 2.41343,4.73744 z" />
    <path
       id="path1255"
       style="fill:#0044aa;fill-opacity:1;stroke:#0044aa;stroke-width:1;stroke-linecap:round;stroke-opacity:1"
       d="m 191.46666,160.68737 c -0.68394,-2.89262 -3.31261,-4.71635 -4.43134,-7.31337 0.0402,-1.49888 -1.49684,-2.99576 -1.52905,-0.55295 0.33862,3.12418 4.0357,4.40424 4.63901,7.46866 0.15232,0.62728 0.85374,0.712 1.32138,0.39766 z" />
    <path
       id="path1257"
       style="fill:#0044aa;fill-opacity:1;stroke:#0044aa;stroke-width:1;stroke-linecap:round;stroke-opacity:1"
       d="m 190.43575,163.58359 c -2.36708,-1.35588 -3.09381,-5.12984 -6.07523,-5.3325 -1.1975,0.0295 -4.50926,0.68995 -4.29631,0.76583 -0.0454,-1.85792 -2.35521,-4.0402 -4.76532,-3.82635 -2.31901,-0.64546 -4.20277,2.17033 -4.55066,4.19174 1.85294,0.70305 2.53988,-4.23233 4.96127,-3.01992 2.23703,-0.008 2.65877,1.96 3.219,3.51693 2.33233,1.12386 5.00468,-1.90992 6.81959,0.17763 1.51719,0.75919 2.79044,5.31935 4.68766,3.52664 z" />
    <path
       id="path1259"
       style="fill:#0044aa;fill-opacity:1;stroke:#0044aa;stroke-width:1;stroke-linecap:round;stroke-opacity:1"
       d="m 180.36529,159.50728 c -2.70353,-1.57338 -6.14765,-0.0157 -7.81644,2.33518 -0.0351,1.94007 2.51465,-1.01753 3.46237,-1.15251 1.38364,-1.3583 3.12347,0.38988 4.35407,-1.18267 z" />
    <path
       id="path1261"
       style="fill:#0044aa;fill-opacity:1;stroke:#0044aa;stroke-width:1;stroke-linecap:round;stroke-opacity:1"
       d="m 180.26228,159.12876 c -2.63243,-1.68961 0.74172,-5.22062 -1.67859,-7.15614 -0.5732,-1.58398 -4.29386,-1.08988 -1.98697,0.24799 2.59449,1.7476 0.10877,5.51399 2.4479,7.30377 0.44578,0.203 0.90857,-0.096 1.21766,-0.39562 z" />
    <path
       id="path1263"
       style="fill:#0044aa;fill-opacity:1;stroke:#0044aa;stroke-width:1;stroke-linecap:round;stroke-opacity:1"
       d="m 184.43817,159.66702 c -2.76217,-1.7272 -0.25982,-5.00559 -0.69454,-7.47386 0.19965,-1.14083 -1.35157,-4.11036 -2.04117,-1.75557 1.62773,2.88276 -1.23255,6.38108 0.80736,9.1103 0.44185,0.74222 1.36361,0.64291 1.92835,0.11913 z" />
    <path
       id="path1265"
       style="fill:#0044aa;fill-opacity:1;stroke:#0044aa;stroke-width:1;stroke-linecap:round;stroke-opacity:1"
       d="m 192.30219,162.64039 c 1.26104,-1.45896 1.7163,-4.88186 3.76204,-4.82413 2.21131,0.84368 4.39901,-1.02587 4.77694,-3.14621 -1.10967,-1.82409 -2.45859,3.47532 -3.88992,2.29021 -3.14011,-0.91437 -3.83751,3.14886 -5.39728,4.92061 -0.73741,0.71511 0.25945,0.65692 0.74822,0.75952 z" />
    <path
       id="path1267"
       style="fill:#0044aa;fill-opacity:1;stroke:#0044aa;stroke-width:1;stroke-linecap:round;stroke-opacity:1"
       d="m 193.32798,161.50989 c 1.94261,-2.46801 3.29765,1.82713 5.12431,1.99978 1.2612,0.36143 4.60146,-2.73461 1.66763,-1.42945 -2.5388,1.76859 -4.02265,-3.37912 -6.8115,-1.60491 -0.70931,0.50881 -1.14219,0.72599 0.0196,1.03458 z" />
    <path
       id="path1269"
       style="fill:#0044aa;fill-opacity:1;stroke:#0044aa;stroke-width:1;stroke-linecap:round;stroke-opacity:1"
       d="m 192.74337,170.51202 c 3.22729,0.99834 5.39803,-2.04189 7.47429,-3.83981 2.84338,-0.27195 5.78958,-0.96693 6.59108,-4.18091 1.92778,-2.4002 0.27591,-5.42888 1.57596,-7.93474 0.59998,-0.81094 2.27898,-3.6228 0.11219,-2.72228 -1.79243,1.66205 -2.88381,4.25865 -2.09847,6.67858 0.28366,2.57388 -1.07287,5.55493 -3.41956,6.78379 -2.88332,-0.11915 -4.90981,1.66818 -6.62776,3.79785 -0.94436,1.18827 -2.57804,0.47044 -3.60773,1.41752 z" />
    <path
       id="path1271"
       style="fill:#0044aa;fill-opacity:1;stroke:#0044aa;stroke-width:1;stroke-linecap:round;stroke-opacity:1"
       d="m 195.91626,171.65087 c 1.61065,-2.29872 4.39976,-1.37475 6.64251,-1.29898 2.0492,-0.54072 3.9284,-3.17496 5.77471,-0.81664 2.55373,2.15904 5.29659,0.0149 7.97611,-0.4671 1.12841,-0.0737 3.44601,-1.66348 1.02344,-1.53639 -2.63972,-0.0421 -4.9175,2.80827 -7.57004,1.63999 -1.94233,-2.57466 -5.24169,-1.5333 -7.18706,0.32469 -2.33,0.14748 -4.99154,-0.84728 -6.87249,1.16411 -0.57638,0.27423 -0.59517,1.06502 0.21282,0.99032 z" />
    <path
       id="path1273"
       style="fill:#0044aa;fill-opacity:1;stroke:#0044aa;stroke-width:1;stroke-linecap:round;stroke-opacity:1"
       d="m 209.39958,168.51609 c 1.73882,-2.29517 4.60233,-3.40249 7.38939,-3.58909 1.487,-0.15678 2.93047,-2.64709 0.54861,-1.38028 -2.44587,0.41845 -4.86233,1.03731 -6.88089,2.55795 -0.71568,0.46019 -2.26692,1.5642 -1.05711,2.41142 z" />
    <path
       id="path1275"
       style="fill:#0044aa;fill-opacity:1;stroke:#0044aa;stroke-width:1;stroke-linecap:round;stroke-opacity:1"
       d="m 213.70572,169.07944 c 1.15673,2.72317 5.6228,1.61373 6.94705,1.43253 0.93928,0.0597 1.43497,-0.44126 0.52012,-0.93504 -0.82665,-0.9529 -4.56493,1.5522 -6.01033,-0.31768 -0.3672,-0.40728 -1.0011,-0.55065 -1.45684,-0.17981 z" />
    <path
       id="path1277"
       style="fill:#0044aa;fill-opacity:1;stroke:#0044aa;stroke-width:1;stroke-linecap:round;stroke-opacity:1"
       d="m 212.11401,165.59918 c 0.85636,-2.0956 4.38763,-2.38369 3.65327,-5.367 0.41518,-1.13077 -0.0468,-4.22705 -1.19967,-1.81854 0.99356,2.89061 -1.64322,4.92408 -3.29898,6.52538 -0.26156,0.61028 0.41399,0.81966 0.84538,0.66016 z" />
    <path
       id="path1279"
       style="fill:#0044aa;fill-opacity:1;stroke:#0044aa;stroke-width:1;stroke-linecap:round;stroke-opacity:1"
       d="m 206.41277,161.35074 c 3.32383,-0.23514 5.72809,-2.79594 7.24661,-5.50896 1.18072,-0.56022 2.32677,-2.72907 0.0267,-1.77288 -2.55825,1.54014 -3.05204,5.49274 -6.36002,6.02611 -0.83582,0.12348 -2.33967,0.31614 -0.91334,1.25573 z" />
    <path
       id="path1281"
       style="fill:#0044aa;fill-opacity:1;stroke:#0044aa;stroke-width:1;stroke-linecap:round;stroke-opacity:1"
       d="m 207.41381,154.7938 c -1.58905,-1.7037 -0.53134,-5.2818 -1.15153,-6.40437 -2.13176,1.43428 -1.41723,4.47021 -0.33184,6.34129 0.36304,0.48677 1.02815,0.25528 1.48337,0.0631 z" />
  </g>
  <g
     id="g1793"
     transform="translate(-49.685293,-164.45614)">
    <path
       id="path1306"
       style="fill:#5599ff;fill-opacity:1;stroke:#5599ff;stroke-width:0.264583px;stroke-linecap:butt;stroke-linejoin:miter;stroke-opacity:1"
       d="m 108.82586,258.98686 c -2.31853,-0.97065 -3.9395,2.99032 -1.91283,4.18478 2.12331,2.47197 -1.69178,3.14305 -2.22662,5.13694 -0.77592,2.28403 -0.96782,4.9093 0.53287,6.9632 1.27888,1.70962 3.37039,3.30914 2.54694,5.75938 -0.0224,4.94672 -1.11536,10.17926 0.85605,14.89217 1.29999,1.70858 2.40727,3.58785 3.84534,5.16104 0.65266,0.99156 3.46245,3.34497 2.02277,0.8903 -2.28786,-3.24035 -5.9749,-5.98845 -6.07338,-10.29751 0.0219,-3.49054 -0.1887,-7.02815 0.72954,-10.44002 -0.55934,-2.59611 2.24704,-3.35606 3.13488,-5.27389 0.89018,-2.30285 0.91652,-5.00878 0.11025,-7.33646 -0.5853,-2.02781 -4.22695,-1.92666 -3.48219,-4.59257 1.31396,-1.1844 3.10575,-3.40299 0.92466,-4.92289 -0.26091,-0.25547 -0.69263,-0.3155 -1.00828,-0.12447 z" />
    <path
       id="path1313"
       style="fill:#0044aa;fill-opacity:1;stroke:#0044aa;stroke-width:0.264583px;stroke-linecap:butt;stroke-linejoin:miter;stroke-opacity:1"
       d="m 109.12216,271.66102 c -0.50411,-0.0483 -1.12023,0.13969 -1.28437,0.67343 -0.22209,0.65607 -0.22739,1.46737 0.25968,2.01104 0.46167,0.55886 1.35114,0.82471 1.9827,0.39201 0.64958,-0.43064 1.01263,-1.23693 0.99478,-2.0057 -0.003,-0.48676 -0.28339,-0.98724 -0.76972,-1.1292 -0.38766,-0.14334 -0.7956,-0.0108 -1.18307,0.0584 z" />
    <path
       id="path1320"
       style="fill:#5599ff;fill-opacity:1;stroke:#5599ff;stroke-width:0.264583px;stroke-linecap:butt;stroke-linejoin:miter;stroke-opacity:1"
       d="m 109.47075,272.88452 c -0.12678,0.26185 -0.29972,0.50557 -0.3777,0.78829 -0.0457,0.19679 0.0686,0.40778 0.26152,0.47104 0.30387,0.1187 0.68458,0.0327 0.9033,-0.21069 0.1719,-0.19426 0.20695,-0.4943 0.0978,-0.7266 -0.10754,-0.11179 -0.28453,-0.0939 -0.42316,-0.14328 -0.16026,-0.0416 -0.31115,-0.11176 -0.46176,-0.17876 z" />
    <path
       id="path1381"
       style="fill:#0044aa;fill-opacity:1;stroke:#0044aa;stroke-width:1;stroke-linecap:round;stroke-opacity:1"
       d="m 109.33536,259.56307 c 0.65842,-5.09547 6.44078,-6.66674 10.74053,-7.24276 3.67152,-0.19047 10.40185,-2.157 11.08915,-4.86291 -3.7092,2.67683 -8.22494,3.85198 -12.76589,4.36095 -4.03341,0.82516 -9.84318,2.73054 -9.76726,7.66782 l 0.2626,0.11533 z" />
    <path
       id="path1383"
       style="fill:#0044aa;fill-opacity:1;stroke:#0044aa;stroke-width:1;stroke-linecap:round;stroke-opacity:1"
       d="m 109.91212,259.72509 c 2.88021,-3.19152 7.56054,-2.56991 11.13358,-1.09175 4.4308,1.37731 9.24076,3.0546 13.86209,1.53067 -0.30684,-1.67288 -6.25641,0.74117 -8.53616,-0.76965 -4.93865,-0.99481 -10.30559,-4.0958 -15.20394,-1.33532 -0.38334,0.23564 -2.16501,1.0063 -1.25557,1.66605 z" />
    <path
       id="path1385"
       style="fill:#0044aa;fill-opacity:1;stroke:#0044aa;stroke-width:1;stroke-linecap:round;stroke-opacity:1"
       d="m 110.35581,260.40198 c 4.95328,-1.64879 9.61917,1.58474 14.14067,3.13557 3.27679,1.39 8.1685,2.07814 10.79906,-0.59348 -3.59005,0.0834 -7.27895,1.86603 -10.65618,-0.374 -4.70157,-1.39637 -9.73705,-4.66773 -14.68852,-2.48537 0.13493,0.10565 0.27009,0.21175 0.40497,0.31728 z" />
    <path
       id="path1387"
       style="fill:#0044aa;fill-opacity:1;stroke:#0044aa;stroke-width:1;stroke-linecap:round;stroke-opacity:1"
       d="m 108.46988,259.94431 c 1.16386,-5.43352 -4.48028,-10.10215 -9.659747,-9.33163 -3.57155,0.003 -7.794761,1.27349 -10.616993,-1.66462 -1.388809,-1.78296 -5.135069,-1.37163 -2.033947,0.63022 3.214137,2.76183 7.59321,2.99194 11.58952,2.364 3.754277,-0.45399 8.442997,1.23192 9.130427,5.39743 0.51109,1.02702 -0.16693,3.08163 1.59074,2.6046 z" />
    <path
       id="path1389"
       style="fill:#0044aa;fill-opacity:1;stroke:#0044aa;stroke-width:1;stroke-linecap:round;stroke-opacity:1"
       d="m 108.08751,260.12938 c -2.81048,-4.95554 -9.331038,-6.31631 -14.13073,-3.50514 -3.094424,1.69463 -9.779773,0.0385 -11.144921,1.42854 5.458245,1.36813 11.114111,0.0129 16.26681,-1.84187 3.930771,-1.03959 6.139731,3.69419 9.008841,3.91847 z" />
    <path
       id="path1391"
       style="fill:#0044aa;fill-opacity:1;stroke:#0044aa;stroke-width:1;stroke-linecap:round;stroke-opacity:1"
       d="m 107.94201,260.14546 c -3.52751,-2.78044 -8.720329,-4.64808 -12.748933,-1.74418 -3.504767,1.98112 -7.533081,2.08801 -11.383584,2.72633 -1.110549,1.82026 5.626575,0.25158 7.571642,-0.003 3.912067,-0.67354 7.460187,-4.4425 11.592785,-2.65542 1.58071,0.62572 3.12274,2.73527 4.96809,1.67625 z" />
    <path
       id="path1393"
       style="fill:#0044aa;fill-opacity:1;stroke:#0044aa;stroke-width:1;stroke-linecap:round;stroke-opacity:1"
       d="m 113.9153,302.24744 c 0.84017,1.59626 1.5544,3.8631 0.24865,5.40279 -0.76756,1.45912 -3.81671,1.03989 -3.9122,2.50302 1.75592,0.52754 3.57762,-0.69977 4.96073,-1.66799 1.59113,-1.33826 0.86585,-3.54821 0.21732,-5.17044 -0.19947,-0.85287 -0.48055,-1.65944 -1.5145,-1.06738 z" />
    <path
       id="path1395"
       style="fill:#0044aa;fill-opacity:1;stroke:#0044aa;stroke-width:1;stroke-linecap:round;stroke-opacity:1"
       d="m 114.55179,302.21382 c 0.73102,2.60497 0.4589,5.33726 0.0783,7.96799 0.0598,1.5683 1.76873,3.64143 3.41714,2.80705 -0.48889,-1.02577 -2.32776,-1.56007 -2.04695,-3.06575 0.52048,-2.56062 0.16209,-5.22481 -0.62642,-7.68208 -0.20207,-0.23359 -0.57519,-0.0376 -0.82207,-0.0272 z" />
    <path
       id="path1397"
       style="fill:#0044aa;fill-opacity:1;stroke:#0044aa;stroke-width:1;stroke-linecap:round;stroke-opacity:1"
       d="m 114.48845,302.84644 c 2.45542,1.54177 2.71387,5.04942 5.36615,6.35554 1.12264,0.64027 1.70473,-0.61035 0.38876,-0.93755 -1.61946,-0.86596 -2.10266,-2.89329 -3.34406,-4.17005 -0.66532,-0.50747 -1.43319,-2.2488 -2.41085,-1.24794 z" />
    <path
       id="path1399"
       style="fill:#0044aa;fill-opacity:1;stroke:#0044aa;stroke-width:1;stroke-linecap:round;stroke-opacity:1"
       d="m 114.73899,302.92368 c 1.5064,0.61294 2.97064,2.24015 4.7208,1.32041 1.70631,-0.69395 3.60465,-0.25233 5.09871,0.72887 0.62864,0.66777 2.73415,0.52633 1.42253,-0.53886 -1.89646,-1.10307 -4.15575,-1.78573 -6.34408,-1.2326 -0.72732,0.11142 -1.5239,0.51399 -1.44941,0.44718 -1.17512,0.0582 -2.21009,-1.81696 -3.26956,-0.84914 l -0.17899,0.12415 z" />
    <path
       id="path1401"
       style="fill:#0044aa;fill-opacity:1;stroke:#0044aa;stroke-width:1;stroke-linecap:round;stroke-opacity:1"
       d="m 119.20508,303.54933 c 1.06151,-1.5739 2.85002,-2.95827 4.85214,-2.52158 0.90076,0.14162 3.00722,0.0355 1.15109,-0.59592 -2.1847,-0.55169 -4.65699,0.24118 -6.05388,2.0322 -0.60073,0.37218 -0.84359,0.93036 0.0506,1.0853 z" />
  </g>
  <g
     id="g1744"
     transform="translate(-46.429769,-237.48967)">
    <path
       id="path1283"
       style="fill:#5599ff;fill-opacity:1;stroke:#5599ff;stroke-width:0.264583px;stroke-linecap:butt;stroke-linejoin:miter;stroke-opacity:1"
       d="m 65.722864,265.95138 c -2.495741,1.29798 -1.746937,4.48554 -1.911608,6.77892 -0.515718,2.51487 1.768421,4.37134 1.36922,6.79197 -0.457914,2.93113 0.140019,5.88184 -0.137291,8.82921 -0.03439,3.1087 1.465863,5.97272 2.480354,8.83391 0.505924,1.09276 3.305595,3.38821 3.234281,2.58529 -2.092462,-2.00251 -2.881198,-4.8255 -4.061565,-7.39812 -1.452978,-2.45263 -0.506487,-5.45337 -0.78618,-8.16552 0.113075,-2.37842 -0.36531,-5.2706 1.476591,-7.10396 1.943409,-3.06771 1.756611,-7.17885 0.270645,-10.39777 -0.414739,-0.61944 -1.220521,-0.87777 -1.934447,-0.75393 z" />
    <path
       id="path1290"
       style="fill:#0044aa;fill-opacity:1;stroke:#0044aa;stroke-width:0.264583px;stroke-linecap:butt;stroke-linejoin:miter;stroke-opacity:1"
       d="m 65.653149,270.4689 c -0.562362,0.31903 -0.737549,1.01802 -0.697179,1.62209 -0.0401,0.82645 0.54607,1.55193 1.221166,1.95785 0.412515,0.29667 1.023476,0.14063 1.176102,-0.35918 0.307738,-0.89572 0.25724,-1.92187 -0.133431,-2.78392 -0.246967,-0.48474 -0.709873,-0.9063 -1.273384,-0.94291 -0.13986,0.14164 -0.189842,0.3409 -0.293274,0.50607 z" />
    <path
       id="path1298"
       style="fill:#5599ff;fill-opacity:1;stroke:#5599ff;stroke-width:0.264583px;stroke-linecap:butt;stroke-linejoin:miter;stroke-opacity:1"
       d="m 66.19346,271.83357 c 0.0709,0.32937 0.143546,0.69537 0.407557,0.92882 0.143296,0.10534 0.342924,0.0334 0.429107,-0.10997 0.170473,-0.22595 0.187364,-0.60925 -0.06922,-0.78066 -0.226051,-0.14642 -0.522157,-0.0961 -0.767443,-0.0382 z" />
    <path
       id="path1403"
       style="fill:#0044aa;fill-opacity:1;stroke:#0044aa;stroke-width:1;stroke-linecap:round;stroke-opacity:1"
       d="m 66.539845,266.01812 c -1.611838,-2.28997 -1.954621,-5.49563 -0.480887,-7.94407 1.050682,-2.04039 1.963458,-4.14571 2.953976,-6.21025 0.637419,-1.13104 -0.762027,-3.17932 -1.314045,-1.10699 -0.458364,2.20524 -1.660391,4.22332 -2.802994,6.17181 -1.510456,2.41809 -2.042921,5.63891 -0.593137,8.21277 0.323456,1.28535 1.208402,1.50664 2.237087,0.87673 z" />
    <path
       id="path1405"
       style="fill:#0044aa;fill-opacity:1;stroke:#0044aa;stroke-width:1;stroke-linecap:round;stroke-opacity:1"
       d="m 66.939754,255.92664 c -0.224526,-2.75524 -3.397796,-4.52314 -2.907907,-7.42065 -0.321248,-2.81062 -2.160623,1.19408 -1.005643,2.24775 0.760586,1.74304 2.500541,3.02769 2.681911,5.02939 0.319173,0.33892 0.83884,0.0355 1.231639,0.14351 z" />
    <path
       id="path1407"
       style="fill:#0044aa;fill-opacity:1;stroke:#0044aa;stroke-width:1;stroke-linecap:round;stroke-opacity:1"
       d="m 65.377541,257.71864 c -1.731183,0.24121 -2.711379,-1.53586 -2.704228,-3.03743 0.01764,-1.41205 -2.520828,-3.68504 -3.167933,-1.80209 1.948882,0.89575 1.685042,3.27549 2.663612,4.91549 0.880752,1.05467 2.516237,1.40657 3.208549,-0.076 z" />
    <path
       id="path1409"
       style="fill:#0044aa;fill-opacity:1;stroke:#0044aa;stroke-width:1;stroke-linecap:round;stroke-opacity:1"
       d="m 65.02039,258.67303 c -1.813464,-0.29172 -4.234615,-1.29457 -5.604657,0.4811 -1.09172,0.41233 -1.824025,3.64921 -0.176431,2.51342 0.650502,-1.16122 2.049109,-2.78641 2.350133,-2.40988 1.269316,-0.16897 2.555094,0.73803 3.430955,-0.58464 z" />
    <path
       id="path1411"
       style="fill:#0044aa;fill-opacity:1;stroke:#0044aa;stroke-width:1;stroke-linecap:round;stroke-opacity:1"
       d="m 66.105018,261.58257 c 0.526274,-1.68943 2.434759,-1.71687 3.808806,-2.05924 0.882515,-1.15703 2.066372,-2.39845 2.670552,-3.5793 -1.756666,-0.14815 -2.499116,1.76184 -3.563532,2.791 -1.33749,0.50428 -2.858803,0.77501 -3.588152,2.17865 -0.397981,0.51176 0.285759,0.68852 0.672326,0.66889 z" />
    <path
       id="path1413"
       style="fill:#0044aa;fill-opacity:1;stroke:#0044aa;stroke-width:1;stroke-linecap:round;stroke-opacity:1"
       d="m 69.41712,299.4536 c 1.722157,1.59212 3.078034,3.85954 3.005353,6.26205 -0.43122,2.19979 -2.632202,3.21677 -4.323648,4.34492 -1.466157,0.91221 0.346122,1.29817 1.073514,0.4741 1.582837,-1.24118 3.764875,-2.14072 4.383041,-4.24062 0.285128,-1.72467 -0.709421,-3.34227 -1.514505,-4.79036 -0.748421,-0.68597 -1.376262,-3.12258 -2.623755,-2.05009 z" />
    <path
       id="path1415"
       style="fill:#0044aa;fill-opacity:1;stroke:#0044aa;stroke-width:1;stroke-linecap:round;stroke-opacity:1"
       d="m 72.554334,303.01403 c 0.361279,2.1841 -0.223145,4.6929 1.31253,6.54035 0.452395,0.85435 2.338771,1.51043 2.621886,0.60622 -0.915556,-0.56551 -2.071947,-0.89041 -2.431643,-2.04591 -0.730125,-1.56149 -0.465567,-3.34011 -0.742838,-4.9895 -0.146665,-0.27701 -0.52526,-0.14317 -0.759935,-0.11116 z" />
    <path
       id="path1417"
       style="fill:#0044aa;fill-opacity:1;stroke:#0044aa;stroke-width:1;stroke-linecap:round;stroke-opacity:1"
       d="m 72.15003,302.10605 c 1.305745,0.10505 2.268621,1.84904 3.201547,2.88142 1.025033,0.86144 2.406316,1.47127 3.758092,1.49605 1.283262,-0.13343 0.597825,-1.17139 -0.346099,-1.00686 -1.680817,-0.14266 -3.183219,-1.17155 -4.026051,-2.61604 -0.541528,-0.83775 -2.382797,-1.86857 -2.974332,-1.17529 l 0.212928,0.22139 z" />
    <path
       id="path1419"
       style="fill:#0044aa;fill-opacity:1;stroke:#0044aa;stroke-width:1;stroke-linecap:round;stroke-opacity:1"
       d="m 73.796704,302.17312 c 1.20041,-0.40465 2.155213,1.0014 3.3878,0.99926 1.424064,0.041 2.181794,-1.37507 3.27278,-2.0354 0.591135,-0.66315 1.063305,-1.24326 -0.114795,-0.83613 -1.359823,0.10407 -1.85841,1.62176 -3.140504,1.92477 0.540942,0.22725 -1.267073,-0.29237 -1.640676,-0.52405 -0.416047,-0.29194 -2.882509,-0.40622 -1.764605,0.47155 z" />
  </g>
  <g
     id="g1919"
     transform="translate(81.93718,-134.27291)">
    <path
       id="path1331"
       style="fill:#5599ff;fill-opacity:1;stroke:#5599ff;stroke-width:0.264583px;stroke-linecap:butt;stroke-linejoin:miter;stroke-opacity:1"
       d="m 179.25821,241.85791 c -3.51676,-1.1531 -6.52304,3.44308 -4.81038,6.48271 0.69345,2.05627 3.03421,4.97597 1.33995,6.8232 -4.47138,-0.25218 -8.98479,2.09891 -13.37762,0.46586 -1.84945,-0.9484 -7.67945,-0.0441 -3.56101,1.91677 3.30728,0.51122 6.61465,-0.88086 9.93746,-0.25725 3.43255,0.47568 6.75621,-1.12273 10.08022,-0.90001 2.50218,1.19145 4.93514,2.50822 7.60808,3.32097 4.84626,1.66375 10.25796,2.24292 15.12387,0.31781 3.0342,-0.70706 5.58877,-2.62339 8.19424,-4.25067 2.70502,-1.74027 0.12671,-2.86477 -1.45492,-1.12065 -3.10893,1.21078 -5.79184,3.24471 -8.81716,4.60058 -4.65526,1.29941 -9.63435,0.55897 -13.96034,-1.49441 -1.96602,-0.986 -7.75355,-1.74627 -5.69625,-4.8373 2.09935,-2.28769 4.51753,-5.8008 2.5645,-8.89669 -0.79936,-1.04382 -2.05145,-1.55904 -3.17064,-2.17092 z" />
    <path
       id="path1337"
       style="fill:#0044aa;fill-opacity:1;stroke:#0044aa;stroke-width:0.264583px;stroke-linecap:butt;stroke-linejoin:miter;stroke-opacity:1"
       d="m 177.93358,246.297 c -0.53274,0.0639 -1.06554,0.41489 -1.17719,0.96625 -0.22008,0.59933 -0.39291,1.3381 0.0374,1.89091 0.55575,0.82222 1.79902,1.21704 2.65156,0.62604 0.35089,-0.29937 0.47347,-0.76553 0.71106,-1.14662 0.29753,-0.56968 0.496,-1.34183 0.0706,-1.90001 -0.54037,-0.67994 -1.53611,-0.62366 -2.29339,-0.43657 z" />
    <path
       id="path1344"
       style="fill:#5599ff;fill-opacity:1;stroke:#5599ff;stroke-width:0.264583px;stroke-linecap:butt;stroke-linejoin:miter;stroke-opacity:1"
       d="m 178.80504,247.47344 c -0.10032,0.16873 -0.22478,0.35441 -0.19502,0.55993 0.0428,0.13645 0.20441,0.14997 0.32513,0.14573 0.30228,-0.009 0.64109,-0.0869 0.8288,-0.34433 0.10909,-0.13936 0.1102,-0.36679 -0.0451,-0.47366 -0.22935,-0.14239 -0.51519,-0.0629 -0.7465,0.0325 -0.0569,0.0243 -0.11254,0.0512 -0.16733,0.0798 z" />
    <path
       id="path1421"
       style="fill:#0044aa;fill-opacity:1;stroke:#0044aa;stroke-width:1;stroke-linecap:round;stroke-opacity:1"
       d="m 157.80392,256.63977 c -3.10167,0.1376 -6.54484,0.0214 -9.1201,-1.88982 -1.22158,-1.6315 -1.85928,-4.06556 -4.06965,-4.62894 -1.93102,-0.45735 -1.71024,1.27591 -0.0759,1.52265 1.94505,0.92928 1.9254,3.55483 3.83477,4.46772 2.7402,1.31167 5.81629,1.7516 8.82867,1.45794 1.08166,-0.13142 1.9077,0.26339 0.6022,-0.92955 z" />
    <path
       id="path1423"
       style="fill:#0044aa;fill-opacity:1;stroke:#0044aa;stroke-width:1;stroke-linecap:round;stroke-opacity:1"
       d="m 151.28424,257.01024 c -2.4595,-0.77877 -5.26841,-1.40137 -7.61742,0.0481 -0.75991,0.6931 -4.21135,0.63883 -3.11833,1.82199 2.77142,0.52978 4.91639,-2.47498 7.70631,-1.67284 0.99613,0.049 2.34249,0.98735 3.02944,-0.19729 z" />
    <path
       id="path1425"
       style="fill:#0044aa;fill-opacity:1;stroke:#0044aa;stroke-width:1;stroke-linecap:round;stroke-opacity:1"
       d="m 152.02407,256.99138 c -2.00412,-0.0333 -3.8936,0.85011 -5.19138,2.36771 -1.20046,1.587 -3.7049,1.70453 -4.77335,3.06239 1.89124,0.96913 3.89974,-0.97462 5.40357,-2.02649 1.19698,-1.34235 2.6535,-2.44213 4.51236,-2.55838 0.93674,-0.12433 0.6158,-0.31288 0.0488,-0.84523 z" />
    <path
       id="path1427"
       style="fill:#0044aa;fill-opacity:1;stroke:#0044aa;stroke-width:1;stroke-linecap:round;stroke-opacity:1"
       d="m 154.68419,257.95755 c -0.68261,2.19503 -3.49263,1.66828 -5.03569,2.83146 -1.25784,0.60965 -3.39879,3.48968 -1.83684,4.26882 0.9912,-1.93611 2.08414,-4.08871 4.58024,-4.34614 1.02285,0.2831 4.74116,-2.36109 2.29229,-2.75414 z" />
    <path
       id="path1429"
       style="fill:#0044aa;fill-opacity:1;stroke:#0044aa;stroke-width:1;stroke-linecap:round;stroke-opacity:1"
       d="m 153.12613,260.56334 c 0.582,2.57892 -1.88584,4.21335 -2.90799,6.04784 1.17781,1.01333 2.91038,-1.7905 3.45573,-2.93715 0.18791,-0.72046 0.99731,-3.5377 -0.54774,-3.11069 z" />
    <path
       id="path1431"
       style="fill:#0044aa;fill-opacity:1;stroke:#0044aa;stroke-width:1;stroke-linecap:round;stroke-opacity:1"
       d="m 156.29819,256.69163 c -2.4592,-0.57253 -4.26576,-3.03021 -3.66043,-5.54815 -0.0187,-1.27993 -2.42593,-3.99717 -3.08262,-2.30034 2.11569,1.34866 1.2247,3.97669 2.24192,5.88903 0.91328,1.20774 2.9897,3.84777 4.50113,1.95946 z" />
    <path
       id="path1433"
       style="fill:#0044aa;fill-opacity:1;stroke:#0044aa;stroke-width:1;stroke-linecap:round;stroke-opacity:1"
       d="m 152.90232,253.06394 c 0.77112,-1.38065 2.25192,-4.85198 0.58533,-5.45183 -0.49174,1.70955 -0.78946,3.65788 -1.18835,5.25209 0.1918,0.0954 0.39916,0.14208 0.60302,0.19974 z" />
    <path
       id="path1435"
       style="fill:#0044aa;fill-opacity:1;stroke:#0044aa;stroke-width:1;stroke-linecap:round;stroke-opacity:1"
       d="m 211.04413,254.38938 c 0.49141,-1.79575 2.73321,-2.63838 2.67409,-4.65468 0.22703,-1.77499 -0.15999,-4.00871 1.37093,-5.28681 1.22519,-1.72091 -1.38047,-1.08365 -1.56464,0.15924 -1.29333,2.19222 -0.10408,5.19486 -2.01464,7.11069 -0.31216,0.77156 -2.54125,2.548 -0.46574,2.67156 z" />
    <path
       id="path1437"
       style="fill:#0044aa;fill-opacity:1;stroke:#0044aa;stroke-width:1;stroke-linecap:round;stroke-opacity:1"
       d="m 213.55917,247.82027 c -1.16694,-1.1914 -2.55945,-2.87345 -1.79862,-4.6342 -1.79339,-0.0475 -2.19339,2.21231 -1.0628,3.2966 0.67363,0.85123 1.63892,2.43736 2.86142,1.3376 z" />
    <path
       id="path1439"
       style="fill:#0044aa;fill-opacity:1;stroke:#0044aa;stroke-width:1;stroke-linecap:round;stroke-opacity:1"
       d="m 213.14248,250.53017 c 1.73811,-1.04057 3.57573,-2.01497 4.73268,-3.7194 0.79907,-0.26169 3.90238,-1.76043 1.64744,-1.7551 -2.169,-0.0608 -3.64523,1.70395 -4.93504,3.18344 -0.5338,0.56421 -3.19003,1.59373 -1.44508,2.29106 z" />
    <path
       id="path1441"
       style="fill:#0044aa;fill-opacity:1;stroke:#0044aa;stroke-width:1;stroke-linecap:round;stroke-opacity:1"
       d="m 211.2061,253.52897 c 1.72941,-1.19367 3.6886,-0.57751 5.28674,0.49359 1.91537,0.58978 3.46456,-0.92099 4.8685,-1.95563 0.82884,-0.44873 3.87984,-1.53537 1.44793,-1.87938 -2.18631,-0.0782 -3.38194,2.06037 -5.28477,2.69684 -0.21073,0.53979 -2.28233,-0.90974 -3.25958,-0.91854 -0.99573,0.0214 -4.39097,0.27163 -3.23242,1.43951 z" />
    <path
       id="path1443"
       style="fill:#0044aa;fill-opacity:1;stroke:#0044aa;stroke-width:1;stroke-linecap:round;stroke-opacity:1"
       d="m 214.17889,253.10301 c 2.22877,0.85401 2.80587,3.34736 3.16679,5.43119 0.45579,1.26686 -0.7379,3.86462 0.41407,4.29447 1.66243,-0.93964 1.19581,-3.18031 0.80196,-4.69284 -0.42643,-2.10915 -1.24161,-4.47343 -3.24171,-5.5555 -0.46287,-0.15337 -0.88349,0.17736 -1.14111,0.52268 z" />
    <path
       id="path1445"
       style="fill:#0044aa;fill-opacity:1;stroke:#0044aa;stroke-width:1;stroke-linecap:round;stroke-opacity:1"
       d="m 217.73764,253.9554 c 1.77194,1.33389 3.30357,3.1696 3.39818,5.45673 0.39509,1.46415 3.72537,1.34839 1.73406,-0.10058 -0.71668,-1.50579 -1.13335,-3.18343 -2.49212,-4.29388 -0.75043,-0.67426 -1.57758,-2.05655 -2.64012,-1.06227 z" />
  </g>
  <g
     id="g1901"
     transform="translate(85.579364,-274.64053)">
    <path
       id="path1355"
       style="fill:#5599ff;fill-opacity:1;stroke:#5599ff;stroke-width:0.264583px;stroke-linecap:butt;stroke-linejoin:miter;stroke-opacity:1"
       d="m 181.28003,293.82514 c -0.82859,0.0368 -1.49242,0.564 -1.71326,1.36167 -0.92979,1.87456 -1.34913,4.26937 -0.28055,6.17417 0.55543,0.98523 1.63086,1.64623 2.77316,1.60571 1.94595,0.14823 4.26957,-0.47811 5.18243,-2.36555 1.01208,-2.35095 -0.35034,-5.16333 -2.46141,-6.39921 -0.78264,-0.4214 -1.65356,-0.79229 -2.55237,-0.80324 -0.35337,0.0256 -0.69663,0.17522 -0.948,0.42645 z" />
    <path
       id="path1362"
       style="fill:#0044aa;fill-opacity:1;stroke:#0044aa;stroke-width:0.264583px;stroke-linecap:butt;stroke-linejoin:miter;stroke-opacity:1"
       d="m 182.67438,296.6329 c -0.57198,0.35436 -0.9907,0.96046 -1.02957,1.64263 -0.13393,0.86937 0.26698,1.86352 1.12767,2.19463 0.96193,0.40554 2.21701,0.10326 2.83648,-0.74878 0.40728,-0.65882 0.41781,-1.56292 0.0232,-2.22792 -0.40207,-0.54834 -1.03395,-0.8918 -1.66419,-1.1103 -0.46774,-0.1639 -0.89128,0.0176 -1.29358,0.24974 z" />
    <path
       id="path1369"
       style="fill:#5599ff;fill-opacity:1;stroke:#5599ff;stroke-width:0.264583px;stroke-linecap:butt;stroke-linejoin:miter;stroke-opacity:1"
       d="m 183.511,297.4172 c -0.13716,0.45737 -0.16062,1.03711 0.21685,1.38959 0.38366,0.35113 1.12223,0.28189 1.34132,-0.22166 0.12088,-0.31225 -0.006,-0.66474 -0.19482,-0.92012 -0.28752,-0.28585 -0.72737,-0.20509 -1.09423,-0.2246 -0.09,-0.003 -0.18024,-0.009 -0.26912,-0.0232 z" />
    <path
       id="path1447"
       style="fill:#0044aa;fill-opacity:1;stroke:#0044aa;stroke-width:1;stroke-linecap:round;stroke-opacity:1"
       d="m 186.29831,296.74808 c 2.62472,1.30311 5.48078,0.16629 7.83406,-1.12122 2.34909,0.53788 4.90449,-0.0835 6.47615,-2.19775 1.5491,-1.53525 5.33424,-0.68844 6.1167,-1.86113 -2.09507,-0.74495 -4.66028,-0.3106 -6.57347,0.74404 -1.56119,1.41537 -3.21177,3.04439 -5.45399,2.02271 -2.3563,0.11108 -4.29454,2.61571 -6.77845,1.75993 -0.61843,-0.0977 -1.22967,0.17377 -1.621,0.65342 z" />
    <path
       id="path1449"
       style="fill:#0044aa;fill-opacity:1;stroke:#0044aa;stroke-width:1;stroke-linecap:round;stroke-opacity:1"
       d="m 198.56685,295.29624 c 2.27182,-1.48647 4.55192,0.99779 6.93479,0.75777 1.43658,0.44796 6.27505,-1.37257 2.61198,-1.13502 -2.4919,0.72076 -4.63579,-0.68765 -6.97992,-1.09904 -0.46438,0.0795 -4.58834,0.42057 -2.56685,1.47629 z" />
    <path
       id="path1451"
       style="fill:#0044aa;fill-opacity:1;stroke:#0044aa;stroke-width:1;stroke-linecap:round;stroke-opacity:1"
       d="m 193.57915,296.50384 c 2.29475,0.69874 2.72496,4.88574 5.98838,3.13821 2.89533,-1.16372 5.66085,0.51192 7.69531,2.47898 1.11131,1.07246 3.74234,1.16662 1.68582,-0.46531 -1.94712,-1.53662 -3.88776,-3.67455 -6.60875,-3.42664 -2.03688,-0.25067 -5.33899,1.90658 -5.74897,-1.28668 -0.66817,-1.03185 -2.16573,-1.68243 -3.01179,-0.43856 z" />
    <path
       id="path1453"
       style="fill:#0044aa;fill-opacity:1;stroke:#0044aa;stroke-width:1;stroke-linecap:round;stroke-opacity:1"
       d="m 207.02393,295.91577 c 0.37868,2.28871 2.81173,2.9883 4.80317,2.97157 1.27337,0.29052 4.52276,0.98408 4.59381,0.32816 -2.23162,-1.42805 -5.18023,-0.90032 -7.31025,-2.0551 -0.44864,-0.73298 -1.06865,-1.75857 -2.08673,-1.24463 z" />
    <path
       id="path1455"
       style="fill:#0044aa;fill-opacity:1;stroke:#0044aa;stroke-width:1;stroke-linecap:round;stroke-opacity:1"
       d="m 186.47371,301.50589 c 3.08515,0.3446 4.75684,3.61442 7.70392,4.14233 2.70984,-0.0943 5.39904,-0.35756 8.11578,-0.15632 1.37873,0.12596 3.19257,-0.97714 0.77023,-1.03514 -2.8625,-0.59145 -5.76129,0.0413 -8.58987,0.0956 -2.70812,-0.4765 -4.22058,-3.43137 -6.93789,-3.78996 -0.4569,0.039 -0.83147,0.36706 -1.06217,0.7435 z" />
    <path
       id="path1457"
       style="fill:#0044aa;fill-opacity:1;stroke:#0044aa;stroke-width:1;stroke-linecap:round;stroke-opacity:1"
       d="m 188.89305,302.92273 c -0.11262,2.8491 2.61024,6.45677 5.24608,6.03326 -2.32864,-1.44417 -3.87451,-3.5277 -4.70488,-5.9945 l -0.2446,-0.0546 z" />
    <path
       id="path1459"
       style="fill:#0044aa;fill-opacity:1;stroke:#0044aa;stroke-width:1;stroke-linecap:round;stroke-opacity:1"
       d="m 196.70533,304.92992 c 1.55511,1.44227 0.70796,4.87926 3.61173,4.94725 1.39092,0.81902 5.7426,-0.89164 2.32236,-0.84903 -2.73737,0.60884 -3.80268,-1.89969 -4.37502,-4.04074 -0.34566,-0.62918 -1.12347,-0.43071 -1.55907,-0.0575 z" />
    <path
       id="path1461"
       style="fill:#0044aa;fill-opacity:1;stroke:#0044aa;stroke-width:1;stroke-linecap:round;stroke-opacity:1"
       d="m 179.13904,300.09548 c -1.84791,2.26153 -4.59015,3.95404 -7.32325,1.90078 -3.61502,-1.84941 -7.36303,0.11071 -10.33702,2.22045 -0.89554,0.75571 -5.79949,3.27104 -2.55331,2.4325 3.48243,-1.4106 6.32579,-4.92777 10.35262,-4.6087 2.40274,-0.0527 4.52427,2.69755 6.89607,1.38049 0.72894,-0.6335 4.55679,-2.54036 2.96489,-3.32552 z" />
    <path
       id="path1463"
       style="fill:#0044aa;fill-opacity:1;stroke:#0044aa;stroke-width:1;stroke-linecap:round;stroke-opacity:1"
       d="m 164.9906,302.99237 c -2.78791,0.51954 -4.27114,-1.68342 -4.95681,-3.97614 -1.75992,-1.73004 -0.37001,2.9206 0.32795,3.65622 0.82313,1.14837 5.1616,1.9371 4.98095,0.59875 z" />
    <path
       id="path1465"
       style="fill:#0044aa;fill-opacity:1;stroke:#0044aa;stroke-width:1;stroke-linecap:round;stroke-opacity:1"
       d="m 159.52323,300.85329 c -2.58075,0.58644 -4.27257,-3.19216 -6.10691,-2.79413 0.62918,1.8748 4.37691,4.89151 6.10691,2.79413 z" />
    <path
       id="path1467"
       style="fill:#0044aa;fill-opacity:1;stroke:#0044aa;stroke-width:1;stroke-linecap:round;stroke-opacity:1"
       d="m 174.44908,303.55333 c -3.21346,-2.25451 -4.74837,2.58643 -7.22672,3.45536 -1.18062,0.1453 -4.31102,1.50403 -3.44145,2.22651 2.29324,-1.51374 5.8993,-1.15011 6.97911,-4.03116 1.05449,-2.29275 1.96762,-0.57016 3.68906,-1.65071 z" />
    <path
       id="path1469"
       style="fill:#0044aa;fill-opacity:1;stroke:#0044aa;stroke-width:1;stroke-linecap:round;stroke-opacity:1"
       d="m 179.74942,295.97473 c -2.33855,0.97302 -5.07511,1.05475 -7.20381,-0.47032 -2.48399,-1.60148 -5.0073,-3.9824 -8.22276,-3.37264 -2.87023,1.24728 -1.22453,-4.35427 -3.75689,-4.27551 0.28227,2.06134 0.27415,6.15878 3.41513,5.54139 3.44386,-1.29948 5.77343,2.25941 8.61016,3.44013 2.07748,1.27678 6.71693,0.7671 7.6139,-0.45757 l -0.27549,-0.19794 -0.18024,-0.20753 z" />
    <path
       id="path1471"
       style="fill:#0044aa;fill-opacity:1;stroke:#0044aa;stroke-width:1;stroke-linecap:round;stroke-opacity:1"
       d="m 162.74418,292.2069 c -2.99454,0.64414 -5.57537,-1.11585 -8.14183,-2.23519 -1.55748,-0.59006 -5.75823,-0.49546 -5.52241,1.28387 2.55416,-1.08093 5.40738,-0.97965 7.60978,0.8929 1.63213,0.93151 4.74987,1.9112 6.05446,0.0584 z" />
    <path
       id="path1473"
       style="fill:#0044aa;fill-opacity:1;stroke:#0044aa;stroke-width:1;stroke-linecap:round;stroke-opacity:1"
       d="m 166.64951,292.18183 c -0.30932,-3.7021 5.45784,-0.72833 6.17323,-2.41486 -2.18534,0.70998 -4.85758,-1.31966 -6.65513,0.67867 -0.61888,0.57108 -1.08586,2.64454 0.4819,1.73619 z" />
    <path
       id="path1475"
       style="fill:#0044aa;fill-opacity:1;stroke:#0044aa;stroke-width:1;stroke-linecap:round;stroke-opacity:1"
       d="m 176.76183,296.66394 c -2.63761,-0.15916 1.06347,-5.15978 -1.45295,-3.93241 -1.33852,1.20618 -1.16687,6.16848 1.45295,3.93241 z" />
    <path
       id="path1477"
       style="fill:#0044aa;fill-opacity:1;stroke:#0044aa;stroke-width:1;stroke-linecap:round;stroke-opacity:1"
       d="m 170.90431,296.1461 c -2.30792,-0.58049 -6.90985,-0.72815 -7.55048,1.5098 2.32494,-0.55631 4.7363,-1.16127 7.17575,-1.1653 z" />
  </g>
</svg>
