<?xml version="1.0" encoding="UTF-8" standalone="no"?>
<svg
   xmlns:dc="http://purl.org/dc/elements/1.1/"
   xmlns:cc="http://creativecommons.org/ns#"
   xmlns:rdf="http://www.w3.org/1999/02/22-rdf-syntax-ns#"
   xmlns:svg="http://www.w3.org/2000/svg"
   xmlns="http://www.w3.org/2000/svg"
   xmlns:sodipodi="http://sodipodi.sourceforge.net/DTD/sodipodi-0.dtd"
   xmlns:inkscape="http://www.inkscape.org/namespaces/inkscape"
   width="1200"
   height="600"
   viewBox="0 0 317.5 158.75"
   version="1.1"
   id="svg6472"
   sodipodi:docname="ol-perceptron-xor.svg"
   inkscape:version="1.0.1 (3bc2e813f5, 2020-09-07)">
  <sodipodi:namedview
     pagecolor="#ffffff"
     bordercolor="#666666"
     borderopacity="1"
     objecttolerance="10"
     gridtolerance="10"
     guidetolerance="10"
     inkscape:pageopacity="0"
     inkscape:pageshadow="2"
     inkscape:window-width="1920"
     inkscape:window-height="1061"
     id="namedview78"
     showgrid="false"
     inkscape:zoom="1.4"
     inkscape:cx="600"
     inkscape:cy="300"
     inkscape:window-x="0"
     inkscape:window-y="19"
     inkscape:window-maximized="0"
     inkscape:current-layer="svg6472" />
  <defs
     id="defs6466" />
  <metadata
     id="metadata6469">
    <rdf:RDF>
      <cc:Work
         rdf:about="">
        <dc:format>image/svg+xml</dc:format>
        <dc:type
           rdf:resource="http://purl.org/dc/dcmitype/StillImage" />
        <dc:title></dc:title>
      </cc:Work>
    </rdf:RDF>
  </metadata>
  <path
     id="path138"
     style="fill:#ff6600;stroke:#ff6600;stroke-width:0.264583"
     d="m 239.96827,84.204346 c 12.00137,-1.53626 24.09492,1.05417 36.10579,-0.3587 2.19775,1.09091 8.79798,-0.66923 3.7079,-2.07379 -3.82274,0.0201 -7.639,0.33419 -11.47303,0.44309 -9.75953,0.48534 -19.5521,-0.73126 -29.28104,0.57615 -0.47187,0.66365 0.75335,0.91323 0.94038,1.41325 z" />
  <path
     id="path140"
     style="fill:#ff6600;stroke:#ff6600;stroke-width:0.264583"
     d="m 278.65812,77.117936 c 3.0935,2.43974 6.99539,3.48242 10.24168,5.67323 -1.43984,-1.23525 -2.58156,2.29596 -4.28079,2.4042 -3.16753,2.00622 -6.627,3.47682 -9.97231,5.1498 -1.5233,2.73527 3.41012,1.4839 4.29378,0.14699 4.16829,-2.4868 8.83273,-4.20703 12.53733,-7.42138 1.27956,-3.11367 -3.56397,-2.46094 -5.22008,-3.56874 -2.76467,-0.25312 -5.05215,-4.43606 -7.59961,-2.3841 z" />
  <path
     id="path142"
     style="fill:#008066;stroke:#008066;stroke-width:0.264583"
     d="m 195.22081,65.781226 c -4.22287,0.6646 -7.15061,4.40285 -8.37178,8.27769 -1.03248,3.23468 -1.56656,6.69041 -1.30376,10.08233 0.70463,5.00063 4.71647,8.79636 9.03187,10.99114 6.915,4.0518 15.51069,3.45971 22.87593,1.04406 3.35187,-0.9596 6.6279,-2.64826 8.66866,-5.57304 3.44402,-4.49095 4.06106,-11.3469 0.37436,-15.88939 -3.77615,-5.30262 -9.61882,-9.72146 -16.35168,-9.87385 -4.91255,-0.39675 -9.94704,-1.0537 -14.79976,0.16444 1.01071,2.42144 4.0196,1.88526 6.04657,1.40867 2.18877,-0.75162 4.35988,-0.11369 6.55034,0.043 5.38502,0.39824 11.07929,2.36819 14.35177,6.90151 3.88335,3.63175 5.49623,10.10081 2.41437,14.71979 -3.61737,5.30603 -10.18554,7.52998 -16.32859,8.05791 -6.40877,0.73621 -13.20459,-1.43902 -17.80907,-6.00007 -2.60212,-2.32168 -3.44193,-5.93601 -3.43719,-9.29669 0.0332,-3.54636 1.08252,-7.08499 3.01665,-10.06011 0.37362,-1.95386 2.73736,-2.29071 4.2423,-3.06253 0.82907,-0.2806 1.81834,-1.14523 0.82901,-1.93489 z" />
  <path
     id="path146"
     style="fill:#008066;stroke:#008066;stroke-width:0.264583"
     d="m 202.96896,72.933766 c -3.22778,0.0357 -6.46863,0.19495 -9.6472,0.79072 -2.82102,-0.1941 -1.32959,3.48915 0.64286,3.60915 2.09966,1.32937 4.35165,2.39123 6.59648,3.44776 -0.81434,-1.86592 -2.78584,1.34109 -4.21239,1.28325 -1.33946,1.02164 -5.10899,1.07747 -4.18418,3.41016 1.88769,1.59667 4.62607,1.48223 6.82626,2.5254 1.45889,0.91556 5.76492,2.24647 4.9502,-0.76062 -3.0695,-0.57838 -6.14266,-1.48928 -8.99592,-2.82987 -0.20639,1.78926 2.36984,-0.99255 3.26127,-1.01228 1.60332,-0.93448 6.56008,-1.6202 4.78135,-4.19479 -2.02749,-0.72755 -4.24919,-1.05908 -6.06086,-2.36555 -0.75448,-0.26678 -3.23511,-2.89787 -2.23074,-1.21326 2.12608,-0.57099 4.32037,-0.72565 6.51517,-1.0441 0.80644,-0.2431 1.42336,-0.88834 1.7577,-1.64597 z" />
  <path
     id="path148"
     style="fill:#008066;stroke:#008066;stroke-width:0.264583"
     d="m 218.90942,79.042156 c 0.34535,-1.95262 -0.42395,-4.40354 -2.68712,-4.6522 -2.00193,-0.37717 -3.50503,1.39967 -3.98326,3.15543 -0.81648,2.61141 -1.00313,5.36823 -1.39865,8.0614 -0.70578,2.51461 3.25735,2.59156 2.66786,0.0538 0.0355,-2.74344 0.11718,-5.62752 1.30732,-8.15464 -0.0571,-0.67649 1.9464,-1.45379 0.5587,-1.48085 2.0102,-0.24426 1.36244,2.4502 2.42348,2.93852 0.36932,0.0421 0.74882,-0.0202 1.11167,0.0786 z" />
  <path
     id="path150"
     style="fill:#008066;stroke:#008066;stroke-width:0.264583"
     d="m 208.3165,82.634666 c 2.97932,0.1112 5.96141,0.091 8.94158,0.16535 1.06224,0.61493 1.87337,-0.84546 0.72819,-1.3998 -0.73679,-0.83546 -1.8602,-1.1095 -2.91987,-0.87401 -0.4842,-0.0168 -1.46614,0.0886 -1.24933,0.17766 -1.19593,0.0186 -2.39051,-0.0595 -3.58336,-0.13542 -0.63904,0.68875 -1.2783,1.37747 -1.91721,2.06622 z" />
  <path
     id="path162"
     style="fill:#216778;stroke:#216778;stroke-width:0.264583"
     d="m 107.12334,21.445962 c -12.733151,2.48484 -16.778184,21.52666 -6.3749,29.1889 7.58558,5.59264 17.91139,4.79957 26.61735,2.75127 6.7537,-2.07047 13.80261,-5.50995 17.75645,-11.55559 2.64579,-7.48139 -4.80493,-12.92122 -10.8845,-15.34794 -7.00996,-3.95982 -15.22781,-7.148 -23.30446,-5.27334 -3.64116,4.2958 7.18189,0.99866 9.60526,2.50777 7.42852,2.15978 15.62,4.73649 20.8594,10.72395 4.63981,7.45806 -5.06591,13.23685 -10.823,15.90696 -8.58452,3.37138 -19.08751,4.54491 -27.43299,-0.0361 -10.451504,-5.701 -8.270753,-22.66565 2.33652,-26.85787 1.01402,-0.69082 4.10811,-0.35664 1.64487,-2.00804 z" />
  <path
     id="path164"
     style="fill:#216778;stroke:#216778;stroke-width:0.264583"
     d="m 114.82593,30.464502 c -3.2294,-0.33901 -6.48501,-0.14907 -9.70943,0.15049 -2.19124,2.24644 1.71409,4.32755 3.11879,5.82197 0.92546,0.74937 2.83829,2.70821 3.39735,2.34224 -2.07431,0.0762 -3.66282,2.50745 -5.7697,3.18388 -1.63843,0.69472 -5.30696,3.37532 -2.02253,4.4209 2.11835,0.26223 4.27772,0.0856 6.40673,0.39465 2.02987,0.12532 4.1007,0.46287 6.11458,0.22651 2.29943,-0.8575 -1.23211,-1.56673 -0.12603,-2.16266 -0.77772,-0.10346 -4.05693,0.13064 -5.83998,-0.10435 -1.51184,0.22246 -4.20639,-1.18858 -4.85682,-0.29884 0.64655,2.37374 2.72184,-1.40635 4.06559,-1.78605 1.48677,-1.10259 3.06749,-2.11684 4.81946,-2.74287 2.0846,-2.27728 -1.96693,-3.06314 -3.33647,-3.9537 -1.4939,-0.6574 -3.26562,-3.34231 -3.56669,-3.74036 1.32077,0.96225 3.31161,-0.46466 4.89223,0.16697 1.03082,-0.28423 1.72543,-1.16326 2.41292,-1.91878 z" />
  <path
     id="path166"
     style="fill:#216778;stroke:#216778;stroke-width:0.264583"
     d="m 132.76818,32.672512 c -0.48562,-2.1457 -2.72547,-4.15172 -4.96084,-2.92099 -2.8015,1.61857 -3.20959,5.19052 -3.93333,8.04816 -0.62164,2.97842 -0.95359,6.03057 -0.80595,9.07455 1.1879,2.2591 3.52732,-0.42564 2.42601,-2.09718 -0.24715,-4.12694 0.23467,-8.50521 2.39755,-12.10026 1.34232,-0.63046 0.45054,-2.08254 1.6589,-0.92869 0.75067,1.54375 1.84308,1.44509 3.21766,0.92441 z" />
  <path
     id="path168"
     style="fill:#216778;stroke:#216778;stroke-width:0.264583"
     d="m 123.56214,40.494902 c 1.59034,-0.33675 3.21147,-0.56755 4.76934,-1.03372 0.80104,-0.20345 1.35557,-1.30628 0.15546,-1.35195 -2.00619,-0.61338 -4.03809,0.22074 -6.05636,0.28044 -0.55734,-0.0923 -0.90208,0.2537 -0.33691,0.62371 0.5296,0.45361 0.96607,0.99838 1.46847,1.48152 z" />
  <path
     id="path170"
     style="fill:#212178;stroke:#212178;stroke-width:0.264583"
     d="m 105.92703,111.69011 c -12.446183,3.5995 -18.141786,22.67556 -7.339712,31.09226 9.520142,6.26696 22.768612,9.6918 33.359932,4.01264 5.62793,-3.0846 11.03116,-8.57406 11.44343,-15.23922 -1.34319,-8.49673 -9.59153,-13.55322 -16.65307,-17.19412 -6.50227,-2.96888 -13.76352,-4.33052 -20.89641,-3.71329 4.87082,5.8878 14.46065,1.25734 20.32964,6.43794 7.06288,3.34794 17.81259,11.14559 12.22663,19.94996 -5.29149,7.91064 -15.59159,12.12035 -24.84456,9.43776 -7.02025,-1.86987 -16.023342,-3.87116 -17.936522,-12.1059 -2.379529,-8.01281 1.94481,-16.86712 9.520472,-20.25269 1.5552,-1.09985 3.53909,-0.58916 0.79017,-2.42534 z" />
  <path
     id="path172"
     style="fill:#212178;stroke:#212178;stroke-width:0.264583"
     d="m 108.2396,122.88218 c -2.69839,0.90999 -6.57418,-0.84518 -8.521112,1.0378 0.0187,2.70332 3.686982,2.96182 5.359532,4.49766 0.75314,1.0697 4.45393,1.84877 1.65747,1.94166 -1.85348,1.69072 -4.20723,2.50644 -6.26071,3.89514 -2.746062,2.67178 2.55398,3.58764 4.50628,3.4059 3.77823,0.27228 7.58038,0.91244 11.3635,0.74636 1.76743,-0.30603 2.14391,-3.01312 -0.17712,-2.22462 -4.37857,0.14219 -8.81232,-0.10619 -13.05735,-1.25503 0.099,2.45559 2.99316,-1.78984 4.42329,-1.83316 1.53345,-0.97033 5.75828,-2.20893 3.46757,-4.50792 -2.13204,-1.14105 -4.52702,-1.83666 -6.40091,-3.464 -0.73541,-1.21548 -2.78184,-1.59964 -1.91729,0.17575 2.15629,0.80474 4.43164,-0.53311 6.69866,-0.29838 1.54248,-0.20548 -0.94928,-1.57616 -1.14181,-2.11716 z" />
  <path
     id="path174"
     style="fill:#212178;stroke:#212178;stroke-width:0.264583"
     d="m 128.86609,125.55738 c -0.13099,-2.05118 -2.49186,-3.40737 -4.28937,-2.32905 -1.728,1.18128 -1.56096,3.55147 -1.9097,5.39029 -0.26637,2.82874 -0.66082,5.73735 -0.0939,8.54762 0.70376,2.25554 3.25719,0.52858 2.67329,-1.30816 -0.27691,-3.42946 -0.73776,-7.11691 0.83159,-10.32334 1.17363,-0.68102 -1.94772,-0.95191 -0.17094,-0.47507 0.7663,1.38724 1.81531,0.62472 2.95902,0.49771 z" />
  <path
     id="path176"
     style="fill:#212178;stroke:#212178;stroke-width:0.264583"
     d="m 118.35897,132.00667 c 3.02973,0.51627 6.11728,0.0632 9.16165,0.27538 1.30312,-0.21562 1.46439,-2.03474 -0.0289,-1.86557 -1.51436,-1.04645 -3.44079,-0.29177 -5.12692,-0.68814 -1.97989,-0.58083 -2.79176,1.16787 -4.00585,2.27833 z" />
  <path
     id="path178"
     style="fill:#212178;stroke:#212178;stroke-width:0.264583"
     d="m 150.1358,120.9249 c 6.05551,-5.57542 13.57805,-9.15515 20.65074,-13.23094 1.54747,-0.6772 5.77695,-2.54771 2.33046,-3.59572 -3.43595,0.92634 -5.77949,4.05021 -9.01766,5.52812 -5.23064,3.24177 -10.55466,6.38993 -15.60045,9.88876 -0.56704,0.93594 1.08266,1.19061 1.63691,1.40978 z" />
  <path
     id="path180"
     style="fill:#212178;stroke:#212178;stroke-width:0.264583"
     d="m 168.46722,102.40534 c 4.32195,-0.60593 8.60815,-1.68482 12.99848,-1.62514 -2.57179,-0.68942 -2.63686,2.17558 -3.81127,3.67671 -1.07961,1.98663 -2.58956,3.75879 -3.54031,5.79002 -0.41587,0.9806 -0.61071,3.15858 0.75029,1.47089 2.12516,-1.4321 2.88459,-4.06123 4.53315,-5.93944 1.29162,-1.75109 2.64237,-3.53535 3.28011,-5.64696 -0.5485,-2.341482 -3.44018,-1.061892 -5.01305,-0.70288 -3.13602,0.675 -6.3272,1.15893 -9.52125,1.35912 -1.53556,0.38152 -0.0436,1.04507 0.32385,1.61768 z" />
  <path
     id="path182"
     style="fill:#216778;stroke:#216778;stroke-width:0.264583"
     d="m 147.81609,52.530135 c 5.81633,1.70103 11.34732,4.22962 17.11261,6.08662 2.01373,0.54215 6.59721,3.72213 6.64145,-0.22191 -1.51245,-1.35554 -4.11953,-0.96469 -6.03538,-1.92623 -5.29491,-1.56295 -10.52701,-3.40078 -15.48704,-5.84079 -0.74388,0.6341 -1.48776,1.26823 -2.23164,1.90231 z" />
  <path
     id="path184"
     style="fill:#216778;stroke:#216778;stroke-width:0.264583"
     d="m 174.37498,55.219235 c 1.81877,1.67643 4.68232,4.61911 4.62908,6.42079 -2.4533,-0.0456 -4.63476,1.60106 -7.14397,1.62148 -2.08358,1.02896 -6.09023,-0.29748 -6.93662,2.15558 1.54685,2.32376 4.9215,0.21547 7.09003,-0.12773 3.14867,-0.73485 6.35786,-1.20419 9.48591,-2.03197 2.46103,-1.39819 -0.43024,-3.62044 -1.49156,-4.88702 -1.62994,-1.11487 -2.56791,-4.8924 -4.94738,-3.47407 l -0.34812,0.17885 z" />
  <path
     id="path188"
     style="fill:#008066;fill-opacity:1;stroke:#008066;stroke-width:0.264583;stroke-opacity:1"
     d="m 197.87518,38.331796 c -1.99674,0.30919 -3.64843,2.27932 -3.17094,4.33156 0.4989,2.92282 3.51474,5.11348 6.45234,4.72604 1.86995,-0.0318 4.05938,-0.86074 4.53918,-2.87186 0.47134,-1.90758 0.4244,-4.49397 -1.42191,-5.65174 -1.56487,-0.758 -3.47801,-0.086 -4.5512,1.16796 1.31226,-0.45609 3.40733,-0.31856 3.88582,1.25714 0.6698,1.76045 -0.35897,4.03224 -2.32252,4.30103 -0.54323,0.62332 -2.44453,0.0381 -3.32608,-0.67663 -1.42152,-0.95443 -2.20997,-3.40319 -0.62413,-4.57188 0.56907,-0.66548 2.5682,-0.48165 1.17094,-1.37184 -0.21025,-0.2135 -0.41949,-0.42803 -0.6315,-0.63978 z" />
  <path
     id="path190"
     style="fill:#008066;fill-opacity:1;stroke:#008066;stroke-width:0.264583;stroke-opacity:1"
     d="m 192.07755,46.224186 c -2.03982,0.57057 -3.5604,2.56056 -3.46501,4.69602 -0.18622,2.84564 0.81201,5.82428 2.85009,7.84078 1.07238,0.81932 2.5103,-0.71659 1.01841,-1.41246 -2.22378,-2.24852 -3.0122,-6.09882 -1.19728,-8.81855 0.65454,-0.64366 2.87885,-1.01768 1.23401,-1.92358 -0.1467,-0.12745 -0.29343,-0.25486 -0.44022,-0.38221 z" />
  <path
     id="path192"
     style="fill:#008066;fill-opacity:1;stroke:#008066;stroke-width:0.264583;stroke-opacity:1"
     d="m 193.74171,55.399166 c 0.25838,1.72134 0.40239,3.46308 0.36534,5.20449 -0.51075,-0.1775 -2.01288,-0.21759 -1.92776,-0.19709 0.0391,-0.0639 -1.64583,-0.23033 -2.23444,-0.1275 -0.87386,-0.005 -2.8509,0.51703 -1.50861,1.51813 1.17742,0.67475 2.60908,0.54376 3.9194,0.6631 1.13403,-0.0402 2.35813,0.13639 3.41168,-0.35438 1.59207,-0.79868 0.31965,-2.2428 0.0525,-3.38515 -0.43884,-1.06093 0.26951,-2.65561 -0.47306,-3.37829 -0.52774,0.10215 -1.06918,0.0412 -1.60509,0.0567 z" />
  <path
     id="path196"
     style="fill:#216778;stroke:#216778;stroke-width:0.264583"
     d="m 79.428404,9.2065825 c -2.490238,1.1165695 -3.538827,4.7241095 -1.772713,6.8868695 2.089213,2.52612 6.231847,3.13764 8.862253,1.11742 1.742464,-1.68289 1.956803,-4.6947 0.510374,-6.62545 -0.581634,-0.7708295 -1.483713,-1.2143695 -2.412178,-1.3951995 -1.029501,-0.31207 -2.218168,-0.007 -3.019098,0.69026 -0.684625,0.8667095 0.609491,1.3744595 1.268641,1.5565295 0.776688,0.12185 1.781737,0.27468 2.128717,1.08577 0.393459,0.90246 0.635974,2.0714 -0.08588,2.90111 -1.250004,1.58934 -4.064932,1.81207 -5.313342,0.10755 -0.629093,-0.67355 -1.078005,-1.60901 -0.741759,-2.5362 0.34565,-1.07306 1.178151,-1.88431 1.924432,-2.69265 C 80.517918,9.7503725 79.921504,9.5017625 79.428408,9.2065825 Z" />
  <path
     id="path198"
     style="fill:#216778;stroke:#216778;stroke-width:0.264583"
     d="m 79.469436,20.743792 c -0.701381,1.80109 -1.619364,4.01716 -0.27475,5.76472 1.534086,2.21949 4.479788,2.50474 6.955631,2.38965 1.563862,-0.0328 3.123765,-0.17722 4.688484,-0.18031 0.881725,-1.70263 -2.093203,-1.82629 -3.136555,-1.31427 -2.41354,0.39791 -5.347319,0.45981 -7.103998,-1.544 -1.296871,-1.43178 -0.01323,-3.4731 0.259295,-4.70479 -0.439729,-0.21131 -0.964822,-0.16051 -1.388107,-0.411 z" />
  <path
     id="path200"
     style="fill:#216778;stroke:#216778;stroke-width:0.264583"
     d="m 89.24325,25.067442 c 1.438773,0.6504 3.12593,1.43869 3.600018,3.08794 -0.148848,1.19237 -1.328517,1.86428 -2.046976,2.71595 -1.196763,0.62411 -1.65951,1.82165 -1.997627,3.01141 0.23371,-0.3226 2.095392,-0.87738 1.259063,-0.2091 2.066362,-0.3783 3.596316,-2.01188 4.797885,-3.6205 1.069655,-1.30994 0.453305,-3.18952 -1.076519,-3.78049 -1.243831,-0.5312 -2.149239,-2.15831 -3.61038,-1.93625 -0.378421,0.1611 -0.561917,0.54605 -0.925464,0.73104 z" />
  <path
     id="path202"
     style="fill:#212178;stroke:#212178;stroke-width:0.264583"
     d="m 94.915768,90.07904 c -1.763959,0.34664 -3.452693,2.36245 -2.482948,4.1447 1.274265,2.01185 3.981588,2.04252 6.109038,1.85975 2.141712,-0.14972 4.731222,-1.37016 4.868592,-3.79676 0.12734,-2.36018 -2.01292,-4.43309 -4.349722,-4.34844 -1.47338,0.0546 -3.24963,-0.0373 -4.26793,1.23709 -0.917523,1.67187 1.59203,0.81639 2.43057,0.6205 1.66671,-0.89361 4.234112,0.61452 4.200472,2.55398 -0.50563,2.22712 -3.206952,2.98007 -5.217262,2.70589 -1.485332,0.0288 -3.430057,-1.97365 -1.758,-3.11641 0.67128,-0.49213 2.21358,-0.80264 0.87178,-1.49219 -0.13303,-0.12469 -0.266,-0.24956 -0.40459,-0.36811 z" />
  <path
     id="path204"
     style="fill:#212178;stroke:#212178;stroke-width:0.264583"
     d="m 91.520938,96.60722 c -2.385947,1.81204 -3.761657,5.38858 -2.040029,8.0968 1.758158,2.761 5.232545,3.30942 7.999579,4.58493 1.83106,1.21519 3.293432,-2.18391 0.67943,-1.87843 -2.32271,-0.8155 -5.026262,-1.35807 -6.647977,-3.3629 -1.197113,-1.86581 -0.497187,-4.53823 1.318618,-5.73983 1.183248,-1.04101 -0.906922,-1.10288 -1.309621,-1.70057 z" />
  <path
     id="path206"
     style="fill:#212178;stroke:#212178;stroke-width:0.264583"
     d="m 98.478408,105.42853 c 1.19305,0.90686 3.134212,2.56558 2.146792,4.17669 -1.492972,1.63892 -3.655762,2.34093 -5.610452,3.2513 -1.047474,1.66915 1.49297,1.58509 2.5457,1.38338 2.01195,-0.8532 4.192082,-1.78256 5.503252,-3.62409 1.06732,-1.42644 0.61421,-3.4411 -0.89611,-4.33648 -0.89538,-1.15058 -2.202032,-2.27226 -3.489772,-0.95569 z" />
  <path
     id="path216"
     style="fill:#000000;stroke:#000000;stroke-width:0.264583"
     d="m 30.687654,51.335884 c 9.694749,-3.24906 20.202934,-2.46959 29.917812,-5.68604 2.519662,-1.0775 8.458755,-1.30593 8.893289,-2.47007 -4.570546,-1.49886 -8.882317,2.39689 -13.43179,2.83566 -8.523742,2.29364 -17.635818,1.79821 -25.986417,4.73326 l -0.0138,0.13762 z" />
  <path
     id="path218"
     style="fill:#000000;stroke:#000000;stroke-width:0.264583"
     d="m 67.134612,36.585631 c 3.476069,1.57711 7.052707,2.98136 10.30201,5.00866 -1.778952,0.69925 -2.786273,2.45895 -4.364565,3.45351 -0.269626,0.76106 -1.303319,2.00345 0.09091,1.16796 2.273539,-0.71021 4.091311,-2.33186 5.849887,-3.86914 1.304849,-1.48428 -0.856273,-2.56407 -2.147813,-2.55135 -3.055928,-0.87202 -5.921948,-2.29512 -8.750835,-3.69472 -0.387942,-0.0247 -0.690612,0.27492 -0.979591,0.48508 z" />
  <path
     id="path220"
     style="fill:#000000;stroke:#000000;stroke-width:0.264583"
     d="m 36.457786,65.934111 c 4.537846,6.42395 11.280764,10.92872 15.523346,17.61276 5.525895,7.28046 10.737485,15.10805 18.327746,20.436889 5.265561,-1.8038 -4.268869,-4.705059 -5.378629,-7.025569 -8.872036,-8.32696 -14.666144,-19.52026 -24.437878,-26.95639 -1.298556,-1.3697 -2.159935,-3.37386 -4.034585,-4.06769 z" />
  <path
     id="path222"
     style="fill:#000000;stroke:#000000;stroke-width:0.264583"
     d="m 71.92253,96.339265 c 1.977601,3.2764 4.232057,6.543375 5.173404,10.289325 -0.897318,-1.18079 -2.636886,0.1362 -4.051096,-0.11466 -1.478612,0.0286 -3.014439,-0.061 -4.415577,0.50067 -0.897637,-0.0203 -1.972533,-0.0395 -0.531567,0.28212 2.408122,1.15526 5.121788,0.34044 7.668094,0.70224 1.502016,0.23679 5.203911,0.44749 3.691662,-2.03754 -2.424353,-3.09409 -4.325595,-6.553895 -6.181515,-10.009705 -0.451139,0.12917 -0.902256,0.25842 -1.353405,0.38755 z" />
  <path
     id="path224"
     style="fill:#000000;stroke:#000000;stroke-width:0.264583"
     d="m 38.604926,93.117281 c 7.655141,-4.74416 15.334998,-9.46322 23.100851,-14.00945 5.793739,-4.01765 11.008708,-9.07857 17.682244,-11.65673 -3.468982,-2.52918 -7.605818,3.82261 -11.015531,5.27011 -7.128664,5.94946 -14.985962,10.88632 -23.125636,15.32152 -1.0397,1.38246 -8.845863,3.59899 -6.641928,5.07455 z" />
  <path
     id="path226"
     style="fill:#000000;stroke:#000000;stroke-width:0.264583"
     d="m 73.932595,64.149585 c 4.385979,-1.10351 8.915066,-1.85054 13.450686,-1.58198 -2.219172,-0.51239 -2.314775,2.46817 -3.549043,3.59525 -1.278541,1.63562 -2.764171,3.2517 -2.940704,5.42186 1.103211,-0.66086 2.942,-2.20223 3.770403,-3.68514 1.059188,-2.04647 3.447434,-3.76255 3.485524,-6.12583 -1.36264,-1.66828 -3.747114,-0.0792 -5.492335,-0.005 -3.139023,0.53603 -6.350026,0.60361 -9.453629,1.35378 -0.515496,0.53004 0.544476,0.68397 0.729098,1.02687 z" />
  <path
     id="path228"
     style="fill:#000000;stroke:#000000;stroke-width:0.264583"
     d="m 37.634334,104.88707 c 8.981943,6.5689 19.085178,11.40461 28.190164,17.79054 3.330859,0.97315 1.159181,-3.69942 -1.144757,-3.27561 -6.915243,-3.64226 -13.786615,-7.45642 -20.618599,-11.19279 -2.311341,-0.66943 -3.747633,-4.21988 -6.426808,-3.32214 z" />
  <path
     id="path230"
     style="fill:#000000;stroke:#000000;stroke-width:0.264583"
     d="m 67.806127,116.12953 c 2.247156,1.55833 4.619773,3.18357 5.956719,5.64646 -0.603326,1.83267 -2.71128,2.44773 -4.266431,3.24202 -1.096987,0.65881 -3.47421,1.56028 -3.877626,1.99005 1.960575,-0.19689 3.981381,-0.0211 5.856769,-0.77158 1.602476,-0.60961 3.284868,-1.36175 4.413023,-2.68479 1.275725,-1.72026 -0.479703,-3.32459 -1.840487,-4.22636 -1.633732,-1.31949 -3.311902,-2.58421 -4.91175,-3.94541 -0.4434,0.24988 -0.886845,0.49968 -1.330217,0.74961 z" />
  <path
     style="fill:#216778;stroke:#216778;stroke-width:0.264583"
     id="path232"
     d="m 130.20823,20.031972 c -0.0921,-1.3716 0.18719,-2.71935 0.34432,-4.07385 0.0764,-0.7825 0.22356,-1.56139 0.42758,-2.3209 0.23546,-0.75004 0.3057,-0.26628 -1.72103,0.2995 0.96337,0.46002 1.74717,1.53399 2.41383,2.33607 1.21231,1.53287 2.35874,3.12099 3.30761,4.8314 0.14619,0.33115 0.34215,0.65025 0.45214,0.99785 0.0293,0.0927 0.004,0.2039 0.0557,0.28632 0.10478,0.1674 0.23661,0.31626 0.35492,0.47438 0.65258,-0.23634 1.36286,-0.35151 1.95775,-0.70902 0.13871,-0.0834 0.0215,-0.32297 0.0285,-0.48465 0.0459,-1.0551 0.10028,-2.1035 0.19747,-3.15572 0.16641,-2.08537 0.73584,-4.10504 1.36058,-6.09201 0.18031,-0.53779 0.18946,-0.99476 -0.49392,-1.1224 -0.11606,-0.0217 -0.23239,0.0419 -0.34859,0.0628 0,0 0.15446,-0.0367 0.15446,-0.0367 v 0 c -0.14853,-0.0507 -0.28867,-0.14854 -0.44558,-0.15216 -0.70884,-0.0164 -0.94903,0.37352 -1.02026,0.9976 -0.24327,2.08147 -0.48097,4.16669 -0.90718,6.22064 -0.14639,0.86058 -0.16861,1.0539 -0.34662,1.87548 -0.0648,0.29912 -0.17742,0.82316 -0.31274,1.12487 -0.0272,0.0606 -0.18836,0.16898 -0.1231,0.15664 0.62301,-0.11785 1.22683,-0.32096 1.84025,-0.48144 0.0837,0.15798 0.19289,0.30491 0.25112,0.47395 0.0199,0.0578 -0.10047,0.002 -0.24492,-0.12175 -0.30902,-0.26393 -0.57288,-0.57996 -0.86141,-0.86429 -1.3212,-1.48762 -2.52696,-3.07311 -3.6263,-4.73173 -0.64432,-0.98224 -1.22045,-2.02771 -1.97282,-2.93081 -1.87657,0.34212 -2.10145,-0.25997 -1.98277,0.65581 0.0777,0.7802 0.1403,1.56588 0.12533,2.3502 -0.0418,1.34749 -0.037,2.7158 -0.45956,4.01257 0,0 1.59525,0.12132 1.59525,0.12132 z" />
  <path
     id="path234"
     style="fill:#216778;stroke:#216778;stroke-width:0.264583"
     d="m 143.29967,21.500322 c 0.68817,-2.77261 1.44182,-5.56553 2.66603,-8.14992 1.35096,-0.98532 -1.27162,-0.58877 -0.053,0.16069 1.25518,1.28439 2.00778,2.99794 2.94826,4.53081 0.93769,1.40911 1.32722,3.22459 2.39922,4.48001 1.55365,0.53363 1.9113,-1.51815 0.6357,-2.14746 -1.78107,-2.5946 -3.47605,-5.28014 -4.74613,-8.15727 -1.19881,-1.66578 -2.95977,-0.15412 -2.81128,1.48462 -0.5985,2.16423 -1.33188,4.28896 -2.02811,6.42335 -0.89523,0.91255 0.0499,1.48458 0.98933,1.37517 z" />
  <path
     id="path236"
     style="fill:#216778;stroke:#216778;stroke-width:0.264583"
     d="m 144.50634,19.033712 c 2.26009,-0.43432 4.58309,-0.43328 6.84259,-0.83931 0.91892,-0.42002 0.31525,-1.41862 -0.53918,-1.32935 -1.70459,-0.44419 -3.39553,0.30773 -5.10507,0.34811 -0.81149,0.16168 -2.28186,-0.0688 -2.68102,0.13397 0.49404,0.5621 0.98965,1.12495 1.48268,1.68658 z" />
  <path
     id="path238"
     style="fill:#216778;stroke:#216778;stroke-width:0.264583"
     d="m 156.74206,20.896092 c 0.20753,-2.62367 0.6427,-5.23774 1.42464,-7.75408 -1.18906,-0.51321 -1.70218,0.73279 -0.67553,1.34734 1.42552,2.23809 2.3081,4.75594 3.4639,7.13198 1.07165,0.82819 3.34169,-0.14181 2.80599,-1.65279 -0.16114,-2.42589 0.4844,-4.83353 1.44367,-7.04288 0.18608,-1.75694 -2.83496,-1.63329 -2.71965,0.0956 -0.61589,2.47458 -0.72075,5.04954 -1.40731,7.50508 0.15309,1.24005 3.46643,0.35669 1.55667,-0.45549 -1.3455,-1.5685 -2.35245,-3.43461 -3.13237,-5.33941 -0.30374,-1.41175 -1.42717,-3.93658 -3.09,-2.33926 -0.72239,1.14648 -0.1074,2.67692 -0.53274,3.97605 -0.21559,1.46475 -0.57595,2.90791 -1.0703,4.30338 0.64434,0.0749 1.28871,0.14944 1.93303,0.2245 z" />
  <path
     id="path240"
     style="fill:#216778;stroke:#216778;stroke-width:0.264583"
     d="m 169.18932,12.657322 c 0.15357,2.01395 -0.18223,4.02548 -0.13397,6.03925 -0.14773,0.98278 -0.099,2.76612 1.23976,2.76176 1.17275,-0.33838 1.10277,-1.75904 0.9749,-2.72673 -0.0952,-1.42622 -0.12074,-2.8556 -0.25381,-4.28072 -0.22019,-0.68115 0.47823,-2.13399 -0.68223,-1.80588 -0.38154,0.004 -0.76314,0.008 -1.14465,0.0123 z" />
  <path
     id="path242"
     style="fill:#216778;stroke:#216778;stroke-width:0.264583"
     d="m 171.09883,13.168772 c 1.5154,-0.61192 4.3139,-0.72441 4.51533,1.43095 -0.009,2.22522 -1.75895,3.85031 -3.03987,5.47647 -0.27938,0.44965 -0.99006,1.9814 -0.82833,1.87617 1.12051,-0.61067 2.4752,-0.8724 3.27909,-1.95819 1.40658,-1.49832 2.80409,-3.41431 2.58207,-5.5772 -0.12607,-1.58861 -1.66813,-2.48272 -3.12683,-2.53801 -1.47129,-0.14868 -2.95789,0.10591 -4.40439,0.2805 0.11935,0.45417 0.77238,0.61544 1.02293,1.00931 z" />
  <path
     id="path244"
     style="fill:#212178;stroke:#212178;stroke-width:0.264583"
     d="m 154.34453,139.09136 c -1.54561,1.31618 -3.21436,2.69605 -3.91778,4.67107 -0.35689,1.06912 -0.34897,2.27616 0.0554,3.33017 0.74303,1.80176 2.87939,2.80364 4.75442,2.3567 2.5824,-0.44707 4.75299,-2.25715 6.11565,-4.43661 0.84483,-1.15929 0.86466,-2.83308 0.0177,-3.99571 -0.60849,-0.88957 -1.68262,-1.43516 -2.76166,-1.38032 -0.79391,-0.30382 -1.68019,-0.0286 -2.42747,0.28938 -0.44344,0.212 -1.19084,0.64948 -0.8577,1.22975 0.32795,0.51312 0.96261,0.12315 1.4426,0.12675 0.89956,-0.11802 1.97296,-0.27691 2.71201,0.38083 0.42133,0.41114 0.66679,1.03372 0.49905,1.61499 -0.33808,1.93624 -1.87319,3.44406 -3.59023,4.26788 -0.65757,0.31846 -1.35691,0.55242 -2.07576,0.68454 -1.20912,-0.0728 -2.17896,-1.09028 -2.39875,-2.24733 -0.25826,-1.16319 0.007,-2.46908 0.81167,-3.36691 0.23115,-0.79313 1.01306,-1.2306 1.60341,-1.7388 0.3634,-0.33319 1.11455,-0.76956 0.78239,-1.34387 -0.19626,-0.2292 -0.49009,-0.33994 -0.765,-0.44251 z" />
  <path
     id="path246"
     style="fill:#212178;stroke:#212178;stroke-width:0.264583"
     d="m 165.2691,149.4469 c 0.2683,-2.58996 0.3369,-5.19633 0.30372,-7.79756 0.0207,-0.87133 -0.14427,-2.2003 0.86631,-2.57631 0.26831,-0.0434 1.34419,-0.15344 0.98274,-0.0438 0.88843,-0.10404 1.21684,1.0464 0.68461,1.63049 -0.55899,0.82952 -1.55653,1.16993 -2.47542,1.42342 -0.83391,0.22011 -0.8519,1.39715 -0.14228,1.77884 0.97406,0.44236 2.16668,0.17821 3.08133,0.81946 1.32345,0.75424 2.27433,2.05321 2.86369,3.42502 0.50831,0.74213 1.51155,0.60662 2.15399,0.13651 0.82578,-0.29811 0.70826,-1.2837 0.0948,-1.74201 -0.98347,-0.99905 -1.89275,-2.08465 -3.07457,-2.86437 -0.91165,-0.64564 -1.92695,-1.16734 -3.02099,-1.41754 -0.45393,0.36108 0.21486,1.54303 -0.002,1.56962 1.61025,-0.77847 3.0849,-2.32565 3.05326,-4.21415 -0.0971,-1.26483 -1.39777,-2.03387 -2.57684,-1.99358 -1.27219,0.0194 -2.77469,-0.24703 -3.78945,0.71458 -0.71234,0.83412 -0.35262,2.00774 -0.52854,3.00032 -0.076,2.44806 0.24589,4.90552 -0.0753,7.34524 -0.12175,1.15259 0.85929,0.77248 1.60141,0.80586 z" />
  <path
     id="path248"
     style="fill:#008066;stroke:#008066;stroke-width:0.264583"
     d="m 205.09169,110.42896 c 0.8792,-2.79544 2.36349,-5.3497 3.95116,-7.79522 -0.86402,-0.67119 -2.61374,0.0485 -1.36407,1.08435 1.23782,2.47927 2.29402,5.07166 3.7484,7.42913 1.33418,1.23041 3.03036,-0.72995 1.47914,-1.85288 -1.57876,-2.17709 -3.02331,-4.56047 -3.47599,-7.25308 -1.15959,-1.39235 -3.20399,-0.3251 -3.2023,1.33888 -0.92686,2.19629 -2.05126,4.30484 -3.2848,6.34318 0.55727,0.6046 1.47529,0.34885 2.14846,0.70564 z" />
  <path
     id="path250"
     style="fill:#008066;stroke:#008066;stroke-width:0.264583"
     d="m 206.77443,108.39885 c 1.74817,-0.43196 3.51564,-0.7788 5.27402,-1.16548 0.11823,-0.46744 0.66099,-1.18008 -0.16771,-1.02152 -0.85234,-0.38431 -1.76036,-0.37236 -2.63136,-0.0476 -1.30305,0.30728 -2.60737,0.62049 -3.87643,1.05066 0.46724,0.39456 0.93384,0.78989 1.40148,1.18398 z" />
  <path
     id="path252"
     style="fill:#008066;stroke:#008066;stroke-width:0.264583"
     d="m 217.1826,110.78921 c -0.0664,-2.22016 0.37869,-4.42457 1.04368,-6.53348 -0.36471,0.55713 -2.34735,0.0448 -1.08153,1.07523 1.46372,1.83315 2.59663,3.90168 4.03824,5.75102 0.94958,0.66057 2.88325,0.39971 2.67223,-1.08424 0.13891,-2.44864 0.27566,-4.92296 0.97565,-7.28392 0.45383,-1.74894 -2.01553,-1.54557 -1.89942,0.0445 -0.49615,2.15683 -0.57573,4.37595 -0.96949,6.54839 -0.92264,0.81897 2.03191,0.82349 0.39993,0.36921 -1.86517,-1.45899 -2.90983,-3.67063 -3.82476,-5.78078 -1.14132,-1.20661 -3.06258,-0.21559 -2.47552,1.45706 -0.0189,1.60932 -0.078,3.21742 -0.4631,4.78271 -0.10883,1.01 1.02931,0.50571 1.58409,0.65429 z" />
  <path
     id="path254"
     style="fill:#008066;stroke:#008066;stroke-width:0.264583"
     d="m 228.11492,103.78694 c -0.2376,1.55024 -0.14737,3.12645 -0.21775,4.6874 0.0561,0.92251 0.33126,2.28664 1.30734,2.5687 0.76647,-0.43703 0.99334,-1.42777 1.10184,-2.24471 0.0829,-1.27927 -0.0745,-2.55965 -0.0611,-3.84034 0.17958,-0.86122 -0.4162,-1.45439 -1.28379,-1.1704 -0.28254,0.0445 -0.56487,0.0247 -0.84654,-6.5e-4 z" />
  <path
     id="path256"
     style="fill:#008066;stroke:#008066;stroke-width:0.264583"
     d="m 230.59036,102.72467 c 1.35331,0.41187 2.91666,2.01754 2.39165,3.80113 -0.58207,2.73034 -3.21817,4.13358 -4.79929,6.20875 -0.25975,1.76207 2.17752,0.1286 2.90598,-0.36144 1.41319,-1.14065 2.68497,-2.50543 3.6566,-4.04082 1.16073,-2.01741 0.86778,-5.20138 -1.43371,-6.27027 -0.90182,-0.24856 -3.32951,-0.82581 -3.37808,-0.0322 0.21898,0.2316 0.43798,0.46322 0.65685,0.69488 z" />
  <path
     id="path276"
     style="fill:#ff6600;fill-opacity:1;stroke:#ff6600;stroke-width:0.264583;stroke-opacity:1"
     d="m 236.35237,62.458419 c 0.57441,0.9925 0.84009,3.07379 2.46292,2.5296 1.19475,-0.56312 1.79705,-1.86346 2.88932,-2.57864 0.45152,-0.88987 -1.77709,-0.66744 -1.72737,0.33235 -0.54279,1.17076 -1.50442,2.06112 -2.17294,3.16204 -0.81492,1.29493 -1.88635,2.45372 -2.47954,3.87183 -0.35111,0.66057 -0.15962,1.65008 0.53748,0.65034 1.48946,-1.50036 2.33539,-3.48479 3.63423,-5.13808 0.69587,-1.06573 1.61976,-1.99237 2.34567,-3.00882 -0.0984,-1.20755 -1.70017,-0.57448 -1.74543,0.34218 -0.32342,0.66876 -1.68102,1.33213 -1.72969,1.54797 0.35539,0.0156 -0.85745,-0.69594 -0.62972,-1.2717 -0.13282,-0.72476 -0.86042,-0.629 -1.38493,-0.43907 z" />
  <path
     id="path278"
     style="fill:#ff6600;fill-opacity:1;stroke:#ff6600;stroke-width:0.264583;stroke-opacity:1"
     d="m 237.71445,58.478459 c 0.34024,-0.96424 0.93653,-1.80998 1.56617,-2.60546 0.49358,0.17113 -0.9726,0.0821 -0.30644,0.39242 0.57006,0.41049 0.6073,1.26039 1.26133,1.59724 0.44378,0.53861 0.99627,0.27513 1.00361,-0.37622 0.0759,-0.7519 -0.5736,-1.28443 -0.9159,-1.88224 -0.41261,-0.60471 -1.31597,-0.79616 -1.95654,-0.4749 -0.44812,0.43872 -0.63596,1.08397 -1.0058,1.59069 -0.21643,0.4708 -0.84038,1.02791 -0.90455,1.36964 0.41937,0.12962 0.83879,0.25909 1.25812,0.38883 z" />
  <path
     id="path284"
     style="fill:#ff6600;fill-opacity:1;stroke:#ff6600;stroke-width:0.264583;stroke-opacity:1"
     d="m 244.09858,65.527669 c 1.48015,0.10512 2.99783,-0.0841 4.39832,-0.55617 0.27438,-0.23179 1.43723,-0.37929 0.55815,-0.40156 -0.89631,-0.13786 -1.79845,-0.26307 -2.70811,-0.18715 -0.27395,0.008 -1.07896,0.0245 -1.01604,-0.014 0.51369,-0.0722 -0.55878,0.0313 -0.55988,0.37192 -0.19282,0.29095 -0.4433,0.52694 -0.67244,0.78696 z" />
  <path
     id="path286"
     style="fill:#ff6600;fill-opacity:1;stroke:#ff6600;stroke-width:0.264583;stroke-opacity:1"
     d="m 245.5564,68.982949 c 1.28903,-0.25878 2.69184,0.0803 3.90138,-0.54797 0.30631,-0.074 0.96573,-0.0788 0.35755,-0.30716 -0.64575,-0.68463 -1.65299,-0.46077 -2.49062,-0.50787 -0.99462,0.0226 -1.99461,-0.0316 -2.98547,-0.002 0.14982,0.41254 0.768,0.81011 1.08388,1.22581 l 0.0667,0.0694 0.0666,0.0694 z" />
  <path
     id="path288"
     style="fill:#ff6600;fill-opacity:1;stroke:#ff6600;stroke-width:0.264583;stroke-opacity:1"
     d="m 254.42648,61.326969 c 0.84525,1.48575 1.31445,3.15426 2.21768,4.61169 0.58151,1.00441 1.00502,2.33558 2.22408,2.71724 0.55514,-0.81263 -0.42612,-2.01315 -0.92467,-2.74971 -0.78623,-1.29417 -1.56758,-2.59931 -2.16835,-3.99305 0.11719,-0.88352 -0.77746,-0.83424 -1.34874,-0.58617 z" />
  <path
     id="path290"
     style="fill:#ff6600;fill-opacity:1;stroke:#ff6600;stroke-width:0.264583;stroke-opacity:1"
     d="m 253.36334,69.960239 c 1.67195,-3.04212 4.01598,-5.65564 6.44898,-8.09307 0.19455,-1.42315 -1.51386,0.3714 -1.88873,0.79378 -2.01841,2.22832 -4.49186,4.18414 -5.71486,7.0127 0.38488,0.0955 0.76969,0.19127 1.15461,0.28659 z" />
  <path
     id="path296"
     style="fill:#ff6600;fill-opacity:1;stroke:#ff6600;stroke-width:0.264583;stroke-opacity:1"
     d="m 262.87101,62.185199 c -1.37021,1.42905 -2.41875,3.40758 -2.19917,5.43353 0.14801,1.40067 1.56328,2.39233 2.92443,2.13308 1.42005,-0.16987 2.34005,-1.39929 2.90836,-2.60165 0.57724,-1.16909 0.88664,-2.83551 -0.17366,-3.82896 -0.57683,-0.77519 -2.91581,-0.58022 -2.18865,0.62021 0.18435,0.47975 1.39101,0.40273 1.14311,1.31565 0.0216,1.21969 -0.68136,2.55852 -1.85436,3.01528 -0.62999,0.24338 0.41118,0.36002 -0.39751,0.2182 -1.42218,-0.52367 -1.28002,-2.40214 -0.66018,-3.49761 0.2253,-0.88758 1.5107,-1.52593 1.64897,-2.09365 -0.33792,-0.3084 -0.79608,-0.4307 -1.15134,-0.71408 z" />
  <path
     id="path298"
     style="fill:#ff6600;fill-opacity:1;stroke:#ff6600;stroke-width:0.264583;stroke-opacity:1"
     d="m 269.93167,69.119769 c -0.0579,-1.85997 -0.1652,-3.73366 0.0272,-5.58693 0.17376,-0.76059 2.08186,-1.15254 1.1376,-0.68046 0.38225,1.12345 -1.53541,0.97805 -1.82986,1.82939 -0.0461,1.13453 1.39582,1.56133 1.86084,2.49138 0.76286,0.70269 1.20865,2.46697 2.52671,1.81151 1.45664,-0.47819 0.0481,-1.55286 -0.60393,-2.08906 -0.6759,-0.45743 -1.35064,-2.00761 -1.95332,-1.83397 0.60133,0.40812 1.46274,-1.04935 1.82119,-1.60929 0.47743,-1.21178 -0.7928,-2.26108 -1.9518,-2.01059 -1.17437,0.05 -2.6806,0.73002 -2.68411,2.07819 0.0456,1.39882 0.27883,2.79175 0.19972,4.19823 0.0418,0.66971 -0.35154,1.75735 0.7096,1.41255 0.24656,-0.003 0.49565,-0.007 0.74013,-0.011 z" />
  <path
     id="path300"
     style="fill:#ff6600;fill-opacity:1;stroke:#ff6600;stroke-width:0.264583;stroke-opacity:1"
     d="m 277.78031,59.105119 c -2.42559,2.62549 -3.26373,6.79229 -1.55845,10.0073 0.5195,1.06594 2.37036,1.20342 3.05765,1.06048 -2.37954,-1.22953 -3.23188,-4.34928 -2.57397,-6.82526 0.17184,-1.44717 1.51391,-2.92092 2.11224,-3.73933 -0.34581,-0.16774 -0.69165,-0.33552 -1.03747,-0.50319 z" />
  <path
     id="path302"
     style="fill:#ff6600;fill-opacity:1;stroke:#ff6600;stroke-width:0.264583;stroke-opacity:1"
     d="m 280.05051,62.197039 c 0.49093,1.97632 1.42844,3.80013 2.37974,5.58745 0.40159,0.44381 1.5992,1.11417 1.72539,0.12009 0.0344,-0.87807 -0.76176,-1.45904 -1.07629,-2.21637 -0.59794,-1.09687 -1.04141,-2.27039 -1.41537,-3.46014 -0.45455,-0.45777 -1.08248,0.0746 -1.61347,-0.031 z" />
  <path
     id="path304"
     style="fill:#ff6600;fill-opacity:1;stroke:#ff6600;stroke-width:0.264583;stroke-opacity:1"
     d="m 283.77322,62.646249 c -1.47404,1.36417 -2.97042,2.70596 -4.3829,4.1348 -0.40829,0.7339 0.11245,1.52178 0.79307,0.98625 1.21553,-0.66276 2.0531,-1.82037 3.0803,-2.72287 0.55792,-0.57113 1.23351,-1.00389 1.81357,-1.54516 0.0106,-0.3882 -0.96316,-0.56018 -1.30404,-0.85302 z" />
  <path
     id="path306"
     style="fill:#ff6600;fill-opacity:1;stroke:#ff6600;stroke-width:0.264583;stroke-opacity:1"
     d="m 285.39739,66.110089 c 0.026,0.88125 -0.44778,1.80343 -0.0316,2.65065 0.17005,0.27505 0.48689,1.07643 0.81394,0.53634 0.3072,-0.42799 0.68467,-0.83946 0.77134,-1.37845 0.11774,-0.51947 0.127,-1.06297 0.31147,-1.56691 -0.37321,-0.15298 -0.79286,-0.0881 -1.18353,-0.16969 -0.22718,-0.0241 -0.45453,-0.0482 -0.68164,-0.0719 z" />
  <path
     id="path308"
     style="fill:#ff6600;fill-opacity:1;stroke:#ff6600;stroke-width:0.264583;stroke-opacity:1"
     d="m 289.53744,67.939989 c -0.39651,0.77091 -0.98049,1.46773 -1.14949,2.33815 0.0667,0.34066 -0.0399,1.39259 0.54668,0.81618 0.90113,-0.31325 1.56808,-1.02512 2.14014,-1.75218 0.33761,-0.19961 0.76993,-0.76241 0.0732,-0.783 -0.53682,-0.20647 -1.0736,-0.41305 -1.61057,-0.61915 z" />
  <path
     id="path310"
     style="fill:#ff6600;fill-opacity:1;stroke:#ff6600;stroke-width:0.264583;stroke-opacity:1"
     d="m 294.2221,62.640499 c 1.39009,2.28691 2.87886,5.4714 4.87913,6.7801 1.92691,-1.59074 -1.80376,-3.47481 -2.18042,-5.26856 -0.51728,-0.95083 -1.50731,-1.9821 -2.69871,-1.51154 z" />
  <path
     id="path312"
     style="fill:#ff6600;fill-opacity:1;stroke:#ff6600;stroke-width:0.264583;stroke-opacity:1"
     d="m 299.21948,62.266449 c -1.36158,2.10351 -5.46395,5.2453 -4.97404,6.76104 2.41174,-1.38224 4.34941,-4.09032 5.73767,-6.21288 -0.0823,-0.33851 -0.42457,-0.5575 -0.76363,-0.54816 z" />
  <path
     id="path314"
     style="fill:#ff6600;fill-opacity:1;stroke:#ff6600;stroke-width:0.264583;stroke-opacity:1"
     d="m 301.55463,66.159429 c 0.52904,1.19785 -0.40171,2.39554 -1.27929,3.13256 -0.71688,0.5236 -2.32887,1.28021 -1.21948,2.29809 0.76645,0.42415 1.70202,0.20754 2.54427,0.30851 1.15743,3.1e-4 2.45641,0.0707 3.44888,-0.61159 -0.344,-0.78686 -1.39023,-0.9355 -2.25127,-0.85882 -0.67073,-0.26998 -2.33355,-0.31575 -2.0223,0.46696 1.1714,-1.18772 2.51873,-2.45582 2.65493,-4.22863 0.14834,-1.42492 -1.09626,-0.56321 -1.87574,-0.50708 z" />
  <path
     id="path316"
     style="fill:#ff6600;fill-opacity:1;stroke:#ff6600;stroke-width:0.264583;stroke-opacity:1"
     d="m 303.66298,58.823129 c 2.66116,1.34242 5.12993,4.08675 4.78073,7.24712 -0.14821,1.71415 -2.3611,3.72065 -2.22871,4.90339 1.23364,-0.86713 2.82275,-1.35893 3.55083,-2.80144 1.57968,-2.58609 0.23141,-5.8535 -1.71517,-7.83517 -1.10395,-0.82717 -2.56424,-3.33864 -3.98084,-1.7518 l -0.19639,0.13753 z" />
  <path
     id="path318"
     style="fill:#000000;stroke:#000000;stroke-width:0.264583"
     d="m 12.977324,52.780549 c 2.107471,2.92722 3.745488,6.20076 6.210288,8.86311 0.185714,1.09159 2.804499,2.22237 2.261194,0.42954 -1.052742,-1.00622 -2.109925,-2.00668 -2.923735,-3.22505 -1.491492,-1.97924 -2.892594,-4.09381 -3.918923,-6.32693 -0.533902,-0.28647 -1.09518,0.21135 -1.628824,0.25933 z" />
  <path
     id="path320"
     style="fill:#000000;stroke:#000000;stroke-width:0.264583"
     d="m 19.821109,52.024709 c -2.188907,2.95838 -4.518782,5.81646 -6.623814,8.83326 -0.794979,0.47876 -1.659623,2.72381 -0.02975,2.03472 1.17244,-1.27706 1.81552,-2.96344 2.91275,-4.31912 1.44568,-2.11008 2.969677,-4.17181 4.663941,-6.09033 -0.165263,-0.35642 -0.662566,-0.21949 -0.923129,-0.45853 z" />
  <path
     id="path322"
     style="fill:#000000;stroke:#000000;stroke-width:0.264583"
     d="m 23.100476,61.202169 c 0.209585,1.64947 0.317876,3.31363 0.46298,4.96625 0.07042,0.67246 0.983903,1.40097 1.236317,0.39851 0.348931,-0.90699 -0.03241,-1.87055 -0.04101,-2.80218 -0.07782,-0.88794 -0.148007,-1.77762 -0.285497,-2.65885 -0.457601,0.0319 -0.915183,0.0652 -1.37279,0.0963 z" />
  <path
     id="path324"
     style="fill:#000000;stroke:#000000;stroke-width:0.264583"
     d="m 12.261333,92.472565 c 1.080159,1.90773 1.977237,3.9258 3.378398,5.63399 1.311529,1.75572 2.498724,3.615025 3.709314,5.427075 1.278908,0.95467 1.634165,-1.36788 0.401275,-1.71564 -2.299217,-2.612975 -4.451684,-5.392335 -6.046529,-8.498705 -0.01235,-0.7429 -0.759901,-1.36989 -1.442458,-0.84672 z" />
  <path
     id="path326"
     style="fill:#000000;stroke:#000000;stroke-width:0.264583"
     d="m 19.184078,92.802815 c -1.402334,2.60922 -3.526431,4.78431 -4.641555,7.557535 -0.491044,1.36742 -2.137712,3.06004 -1.312226,4.45185 1.274976,-0.88322 1.376777,-2.70593 2.098656,-4.01092 1.270433,-2.787905 3.147783,-5.243185 5.136677,-7.553005 -0.427186,-0.14848 -0.854362,-0.29699 -1.281552,-0.44546 z" />
  <path
     id="path332"
     style="fill:#000000;stroke:#000000;stroke-width:0.264583"
     d="m 22.411694,102.66992 c 0.223892,-0.50574 1.434277,-1.7361 1.02683,-0.44183 0.265057,0.82372 -0.183367,1.59941 -0.57366,2.29719 -0.716276,1.16541 -1.953758,1.84957 -2.83388,2.85861 -0.666355,1.031 0.833888,1.57589 1.644763,1.30992 1.113691,-0.0149 2.227967,-0.0774 3.336583,-0.2025 0.894242,-0.28535 0.536897,-1.08867 -0.273257,-0.96039 -0.945597,-0.0511 -2.407152,-0.43472 -3.062799,0.26674 1.28618,-1.20666 2.012264,-2.93686 2.542281,-4.6056 0.39079,-0.91731 0.27538,-2.775 -1.154739,-2.28848 -0.466853,0.22209 -2.129664,1.36652 -0.996177,1.62707 0.118911,0.0368 0.234668,0.0793 0.344055,0.13927 z" />
  <path
     id="path732"
     style="fill:#000000;fill-opacity:1;stroke:#000000;stroke-width:0.264583;stroke-opacity:1"
     d="m 10.774429,48.022309 c -3.0061638,3.4819 -1.7256158,8.41845 -1.5500178,12.5842 0.405658,3.89699 2.5484208,8.23382 6.7488468,9.02375 3.820697,1.40634 9.923437,2.59489 11.816782,-2.22723 1.62538,-4.65546 -0.05539,-9.60478 -1.069993,-14.21672 -0.987651,-3.5063 -3.358258,-7.50387 -7.477422,-7.50164 -2.94154,-0.0427 -7.337632,-1.04475 -8.218319,2.86736 1.269748,2.67879 3.366506,-2.74659 5.834302,-1.55555 3.013396,-0.16279 6.03533,1.28245 7.277803,4.12832 1.787102,3.95968 2.368745,8.40862 2.495653,12.71557 0.304603,3.54084 -2.77149,7.02647 -6.444798,5.73836 -3.804803,-0.41203 -8.115672,-2.23782 -9.020197,-6.36668 -0.96737,-4.10378 -1.7936208,-8.72433 -0.47577,-12.77684 0.309157,-0.65348 1.42751,-2.10933 0.08313,-2.4129 z" />
  <path
     id="path734"
     style="fill:#000000;fill-opacity:1;stroke:#000000;stroke-width:0.264583;stroke-opacity:1"
     d="m 10.061915,87.076885 c -4.6147818,6.6445 -3.5857568,15.967395 0.688299,22.514895 2.056825,3.93081 6.608004,6.49611 11.014396,5.1982 5.032808,-1.04224 8.55721,-5.75887 8.773068,-10.79628 1.318877,-9.005145 -5.601176,-19.217125 -15.168715,-19.142155 -3.010989,-1.29659 -6.6730888,5.76971 -2.386918,3.74135 2.895435,-4.0362 8.272841,-0.66264 11.087327,1.8858 5.217632,5.08792 6.485506,14.428975 1.628843,20.141245 -2.840206,3.34196 -8.623896,4.33724 -11.613605,0.6042 -5.5732888,-5.57181 -6.4793508,-14.259345 -4.1070858,-21.509945 -0.232155,-0.72272 1.7581448,-2.69247 0.084391,-2.63731 z" />
</svg>
