<?xml version="1.0" encoding="UTF-8" standalone="no"?>
<svg
   xmlns:dc="http://purl.org/dc/elements/1.1/"
   xmlns:cc="http://creativecommons.org/ns#"
   xmlns:rdf="http://www.w3.org/1999/02/22-rdf-syntax-ns#"
   xmlns:svg="http://www.w3.org/2000/svg"
   xmlns="http://www.w3.org/2000/svg"
   xmlns:sodipodi="http://sodipodi.sourceforge.net/DTD/sodipodi-0.dtd"
   xmlns:inkscape="http://www.inkscape.org/namespaces/inkscape"
   width="1200"
   height="600"
   viewBox="0 0 317.5 158.75"
   version="1.1"
   id="svg4744"
   sodipodi:docname="ol-perceptron-activation.svg"
   inkscape:version="1.0.1 (3bc2e813f5, 2020-09-07)">
  <sodipodi:namedview
     pagecolor="#ffffff"
     bordercolor="#666666"
     borderopacity="1"
     objecttolerance="10"
     gridtolerance="10"
     guidetolerance="10"
     inkscape:pageopacity="0"
     inkscape:pageshadow="2"
     inkscape:window-width="1920"
     inkscape:window-height="1061"
     id="namedview75"
     showgrid="false"
     inkscape:zoom="1.4"
     inkscape:cx="600"
     inkscape:cy="300"
     inkscape:window-x="0"
     inkscape:window-y="19"
     inkscape:window-maximized="0"
     inkscape:current-layer="svg4744"
     inkscape:document-rotation="0" />
  <defs
     id="defs4738" />
  <metadata
     id="metadata4741">
    <rdf:RDF>
      <cc:Work
         rdf:about="">
        <dc:format>image/svg+xml</dc:format>
        <dc:type
           rdf:resource="http://purl.org/dc/dcmitype/StillImage" />
        <dc:title />
      </cc:Work>
    </rdf:RDF>
  </metadata>
  <path
     id="path55"
     style="fill:#3771c8;stroke:#3771c8;stroke-width:0.264583"
     d="m 145.02557,40.1512 c -10.77081,0.91919 -19.22952,9.38574 -23.85689,18.63246 -3.53046,6.61731 -3.59692,14.44213 -3.06041,21.74691 0.62773,6.72003 2.263,13.30567 4.32858,19.71748 5.62905,8.68609 14.83494,16.24411 25.61264,16.39716 5.92412,-0.45049 12.33105,-1.09593 17.1914,-4.87076 3.59807,-2.59582 3.62722,-8.21248 0.50644,-11.17305 -3.62954,-4.62136 -7.22756,-9.87447 -7.19602,-15.99764 -1.19966,-12.79973 5.25405,-24.42842 9.24327,-36.16881 1.64787,-3.45133 1.17559,-7.90192 -1.8558,-10.45134 -3.9848,-3.57811 -10.27939,-4.68453 -15.09409,-2.17807 -2.1161,2.35775 -6.28153,2.03826 -7.79506,4.89548 0.21125,1.34137 2.50592,2.98861 1.89972,2.58406 3.26203,-1.21942 6.64547,-2.4259 9.41494,-4.55341 3.60962,-1.88387 8.21553,0.38684 9.08738,4.33735 1.16947,3.75852 0.22491,8.11641 -2.46246,11.00596 -5.10858,11.56686 -9.13667,24.71933 -5.69069,37.33268 0.41129,4.236 3.88137,6.41837 5.93109,9.73634 2.08043,3.43973 1.26232,8.74769 -2.81494,10.27677 -3.0758,0.90849 -6.24939,1.57775 -9.45423,1.89013 -9.98595,0.1861 -18.75311,-6.79494 -23.68712,-15.02867 -3.6034,-9.45005 -5.12927,-19.7698 -4.15287,-29.84216 2.15998,-12.64422 12.37175,-24.26316 25.39796,-26.0158 0.62071,-1.20555 -1.29588,-1.3225 -1.49284,-2.27307 z" />
  <path
     id="path57"
     style="fill:#37abc8;stroke:#37abc8;stroke-width:0.264583"
     d="m 161.79032,35.29403 c 8.25055,10.56843 -1.10946,23.16929 -3.23132,34.18232 -2.81525,10.14373 -2.70534,21.46931 2.82931,30.65564 -4.3e-4,10.36268 8.85313,18.89597 19.23239,13.36799 17.60158,-8.49873 23.98023,-29.92689 23.56158,-48.19031 -0.61381,-13.83916 -6.83706,-31.13459 -21.93351,-34.46026 -6.98101,-2.23623 -26.45318,-1.33447 -18.99043,9.15035 5.79199,-7.92334 17.61517,-7.8243 24.85819,-1.46566 16.11102,16.05243 14.28746,43.63574 1.87499,61.30705 -4.23632,6.79534 -17.78943,17.26638 -22.28202,5.41535 -2.65904,-8.71948 -8.97495,-16.4828 -6.96791,-26.19823 0.75408,-11.61304 7.34073,-22.05608 7.86975,-33.60871 -0.40397,-3.69451 -1.46867,-11.43919 -6.82102,-10.15553 z" />
  <path
     id="path59"
     style="fill:#37abc8;fill-opacity:1;stroke:#37abc8;stroke-width:0.264583"
     d="m 189.97681,61.31641 c 0.0197,-3.99325 -0.14722,-10.80244 -5.50287,-10.92066 -4.38408,1.03192 -5.17451,6.36417 -6.09703,10.04927 -1.39699,7.24207 -0.68585,14.6937 -1.95281,21.95177 1.79741,4.19086 6.22434,-0.72568 4.4922,-3.67589 0.39875,-7.54607 0.13593,-15.46402 3.07302,-22.53606 1.58737,-1.24948 2.06348,-2.19139 -0.25084,-1.87321 3.16814,1.75871 0.16207,8.69409 5.44543,6.97593 l 0.7929,0.0289 z" />
  <path
     id="path61"
     style="fill:#37abc8;fill-opacity:1;stroke:#37abc8;stroke-width:0.264583"
     d="m 171.03654,71.9127 c 2.58882,0.0654 5.14327,0.6646 7.74047,0.54021 2.05561,0.15352 4.2122,-0.0574 5.99631,-1.15376 1.79173,-0.19692 3.02864,-2.53 0.88909,-3.33252 -1.54388,-0.98529 -3.40301,-0.60414 -4.89464,0.2638 -0.94343,0.50487 -2.2947,0.58269 -3.16321,0.73545 0.89082,0.066 1.84515,0.0223 0.32067,0.19287 -2.12261,-0.11989 -4.63475,-0.83493 -5.81406,1.59582 -0.35822,0.38604 -0.71643,0.77208 -1.07463,1.15813 z" />
  <path
     id="path63"
     style="fill:#3771c8;stroke:#3771c8;stroke-width:0.264583"
     d="m 148.86572,50.38335 c -6.03592,1.44404 -12.31255,1.31082 -18.42019,2.00343 -4.75529,2.34296 0.93531,7.7905 2.466,10.74007 2.56614,4.6121 7.12162,7.43564 10.48097,11.35585 0.92277,2.7586 1.61474,-0.13179 0.77688,-1.11747 -5.12613,6.32212 -10.21865,12.75627 -15.51219,18.97226 -3.26156,3.27412 1.96783,5.59635 4.87289,4.7531 4.16378,0.12606 8.33222,-0.0992 12.49403,0.12078 -1.75023,0.14925 -3.47888,-0.32186 -0.60128,0.13707 2.53791,0.68957 3.16549,-2.30577 5.3875,-1.72197 3.00364,-2.12274 -0.27264,-3.56368 -2.43203,-2.74237 -3.28785,-0.13739 -9.45737,-0.0668 -10.95502,0.0954 1.94974,0.302 -6.88109,-1.53634 -3.79824,2.06191 2.06389,-3.09026 4.67087,-6.06361 7.07938,-9.02338 2.83692,-3.53534 5.86923,-6.92038 8.84512,-10.32636 1.04574,-3.78589 -3.90929,-5.69845 -6.06041,-7.94788 -4.33729,-3.18572 -7.22242,-7.79895 -9.52609,-12.56481 -1.18927,3.23673 4.79134,0.15468 6.45563,0.95579 3.68476,-0.60102 8.94475,-1.10644 11.51671,-2.87552 -0.89559,-1.0889 -2.17999,-1.78414 -3.06966,-2.87592 z" />
  <path
     id="path65"
     style="fill:#000000;stroke:#000000;stroke-width:0.264583"
     d="m 214.03499,76.21214 c 12.69963,1.10854 25.63462,1.65251 38.08959,-1.54233 7.82774,-3.02454 17.676,1.88784 24.21885,-2.38684 -2.93674,-5.09946 -12.78242,-1.66501 -18.49346,-2.23348 -11.68451,0.68116 -23.10236,4.67278 -34.89499,3.01783 -3.77282,-0.68552 -6.86332,-0.52542 -8.91999,3.14482 z" />
  <path
     id="path67"
     style="fill:#000000;stroke:#000000;stroke-width:0.264583"
     d="m 262.03791,59.58461 c 9.3724,7.39014 21.74446,9.95311 33.44779,9.60937 -2.37583,-4.98516 -8.67017,0.58437 -10.97532,3.78186 -4.8431,4.39538 -12.84521,8.02568 -15.90376,12.64842 3.9665,4.70885 8.67747,-2.43349 12.00578,-4.68676 4.96773,-3.79895 10.04019,-7.46326 15.24824,-10.92633 1.06522,-7.11617 -7.76564,-3.41615 -11.9669,-5.02723 -5.21137,-0.87863 -10.27485,-2.60779 -14.95048,-5.0687 -1.43704,-2.53456 -5.01936,-1.95885 -6.90535,-0.33063 z" />
  <path
     id="path73"
     style="fill:#000000;stroke:#000000;stroke-width:0.264583"
     d="m 56.672637,13.63573 c 9.532578,8.60637 16.64457,19.63291 27.037435,27.34709 5.783761,3.41402 10.396209,10.79639 16.844438,11.71548 4.33664,-5.06398 -6.965944,-6.48705 -9.36043,-10.35693 C 80.467963,34.526 71.298179,24.82022 63.07802,14.49701 61.472126,12.66045 58.691396,12.07308 56.672637,13.63573 Z" />
  <path
     id="path75"
     style="fill:#000000;stroke:#000000;stroke-width:0.264583"
     d="m 98.391084,36.33532 c 2.181396,6.37153 4.881596,12.57622 8.445446,18.30397 0.84963,0.79225 1.61668,4.82736 1.57654,1.73366 -0.007,-1.04802 -3.08955,0.14626 -4.35141,-0.16669 -0.8468,-0.009 -2.14332,0.17384 -0.58287,0.0892 -5.316358,-0.21533 -10.671695,-0.53675 -15.980962,-0.009 -1.983106,1.33647 1.690035,3.78967 3.260274,3.86927 1.144826,0.0197 4.514333,-0.54708 4.27226,-0.40993 -2.03121,-0.12897 2.886073,-0.11041 3.85143,-0.13689 4.356178,-0.055 8.754548,0.31843 13.081658,-0.25158 3.02762,-0.76781 1.08423,-3.78654 -0.53733,-4.88826 -3.87652,-4.91553 -6.58081,-10.62798 -9.27575,-16.23998 -0.26816,-2.57528 -1.64299,-2.40943 -3.759286,-1.89347 z" />
  <path
     id="path81"
     style="fill:#000000;stroke:#000000;stroke-width:0.264583"
     d="M 63.696652,155.03795 C 76.637111,147.802 88.941158,139.4517 100.7064,130.47567 c 2.71613,-1.19591 10.42661,-5.85402 7.05549,-7.81314 -7.67195,2.3994 -13.183813,8.76676 -19.768329,13.09563 -8.645529,6.36575 -17.756853,12.35355 -27.370126,17.02431 0.522737,1.20403 2.302262,1.23132 3.073217,2.25548 z" />
  <path
     id="path83"
     style="fill:#000000;stroke:#000000;stroke-width:0.264583"
     d="m 95.431244,121.49686 c 5.755126,-0.23448 11.498686,-1.05798 16.970866,-2.89977 1.82514,-0.54729 3.6637,-1.07855 5.55249,-1.3567 -1.73179,-0.30094 -5.18534,-2.64112 -4.85783,0.62453 -0.72912,4.72714 -1.44143,9.48175 -2.5388,14.13033 -1.43156,2.03676 0.63336,5.00136 2.81932,3.50689 1.59467,-1.53739 0.93954,-4.18868 1.60451,-6.16803 0.61436,-3.87385 1.25123,-7.7519 2.23694,-11.55187 1.76134,-2.25003 -1.94185,-4.37819 -3.75565,-2.835 -4.9753,2.57937 -10.60521,3.69852 -16.159299,4.08826 -1.383056,0.36265 -5.495312,-0.8208 -2.957552,1.22272 0.361673,0.41288 0.723344,0.82575 1.085005,1.23864 z" />
  <path
     id="path89"
     style="fill:#000000;stroke:#000000;stroke-width:0.264583"
     d="m 29.870897,91.79514 c 12.843311,-0.99823 25.733522,-0.84223 38.549822,0.36402 9.594909,0.24045 19.143597,-0.96273 28.72476,-1.21966 -2.951986,-6.15761 -11.859491,-0.24775 -17.293792,-1.36092 -13.8715,1.31917 -27.714011,-1.95392 -41.568193,-0.12014 -1.456213,0.82563 -12.515096,-1.29916 -8.412597,2.3367 z" />
  <path
     id="path91"
     style="fill:#000000;stroke:#000000;stroke-width:0.264583"
     d="m 83.952917,79.17735 c 7.963065,2.87264 15.341655,7.11674 22.661513,11.30874 1.68401,2.04148 0.87806,-1.89843 -0.51763,-0.35825 -2.8503,2.18011 -6.1291,3.81788 -9.322315,5.46766 -1.994802,0.77461 -5.328349,3.35161 -5.090566,4.74919 5.433772,-0.9588 9.863371,-4.4632 14.862991,-6.55462 1.76671,-1.29443 5.63242,-1.18057 5.334,-4.10673 -0.75689,-2.06794 -3.72481,-1.27322 -5.39556,-2.33068 -6.03951,-2.05688 -11.615759,-5.24852 -17.118045,-8.41722 -2.05398,-1.84339 -3.537096,-1.76276 -5.414388,0.24191 z" />
  <path
     id="path93"
     style="fill:#000000;stroke:#000000;stroke-width:0.264583"
     d="m 74.693913,9.38826 c 1.519086,-1.15187 2.55942,-2.79752 3.568822,-4.38105 1.019272,-1.046 -1.940719,-0.8583 -1.292989,0.19184 -0.249956,3.22417 -0.729181,6.42606 -1.064998,9.64212 0.164869,1.02215 -1.048671,2.66209 0.171788,3.18465 1.272338,0.4957 1.652062,-0.8575 1.349723,-1.83033 C 77.492429,12.30867 77.76714,8.40405 78.607362,4.59966 78.235491,4.01998 76.671612,3.01851 76.811677,4.28973 76.488651,5.746 75.988497,7.25502 74.702019,8.15587 74.186224,8.50451 73.325624,8.84189 74.388036,9.18444 l 0.152941,0.10189 0.152933,0.10189 z" />
  <path
     id="path95"
     style="fill:#000000;stroke:#000000;stroke-width:0.264583"
     d="m 71.042411,19.45388 c 4.032562,-1.08844 8.248129,-1.30607 12.387635,-1.427 -0.01679,-0.60259 0.225116,-1.17926 -0.815935,-1.18831 -2.322015,0.13895 -4.605837,0.70047 -6.92744,0.89853 -1.789429,0.24969 -3.625271,0.3523 -5.389914,0.63309 -0.419883,0.39312 0.611915,0.74171 0.745654,1.08369 z" />
  <path
     id="path97"
     style="fill:#000000;stroke:#000000;stroke-width:0.264583"
     d="m 86.189327,9.78214 c 0.954336,2.02532 0.631924,4.54631 1.595406,6.42801 2.157862,0.93847 2.303968,-2.18419 3.141262,-3.38896 0.287522,-1.05775 1.948818,-2.84855 1.625466,-3.29713 -1.351802,0.79133 0.908868,2.4831 0.818133,3.71502 0.794949,1.21196 0.135661,4.48861 2.388829,3.51661 1.45576,-1.34609 1.395614,-3.66773 3.015445,-5.01745 1.025729,-0.637 2.430702,-3.89248 0.219032,-2.32833 -1.18179,1.09331 -1.839374,2.61649 -2.865886,3.8453 -0.786029,1.00716 -2.757102,3.72197 -0.201079,2.80712 -1.064261,-1.21905 -1.510341,-2.89653 -2.063761,-4.41571 -0.469195,-1.09541 -0.484988,-3.99027 -2.265803,-2.64983 -1.071708,1.5164 -1.391899,3.45747 -2.656884,4.87075 -0.787286,0.38128 -0.704626,2.38793 -0.106072,1.23827 C 88.022076,13.41341 88.082889,11.5075 87.593784,9.72156 87.163653,9.38375 86.65815,9.8764 86.189327,9.78216 Z" />
  <path
     id="path99"
     style="fill:#000000;stroke:#000000;stroke-width:0.264583"
     d="m 102.9091,13.62235 c -2.52146,0.5666 -4.398157,3.5764 -3.203767,6.01851 0.581867,1.39265 2.078197,2.3132 3.586867,2.13919 1.83644,0.0552 3.49128,-1.64469 3.28659,-3.49293 -0.0536,-1.39165 -1.22954,-2.89606 -2.74044,-2.63682 -0.66099,-0.0251 -1.65251,0.33647 -0.54464,0.64562 1.08378,0.60069 2.29007,1.81673 1.72,3.15944 -0.56295,1.33166 -2.45398,1.98899 -3.60551,0.97553 -1.626136,-1.3146 -1.23019,-4.0173 0.38946,-5.1608 0.48515,-0.63506 2.66564,-0.51371 1.27827,-1.43402 l -0.0895,-0.10165 z" />
  <path
     id="path101"
     style="fill:#000000;stroke:#000000;stroke-width:0.264583"
     d="m 28.123503,70.8677 c 1.774987,1.71785 3.063992,3.85597 4.743151,5.66145 1.168677,1.14263 1.835509,2.97365 3.3796,3.63796 1.70133,-0.0329 -0.48196,-1.92458 -0.932817,-2.45463 -2.254033,-2.21597 -3.910421,-4.93347 -5.749541,-7.48322 -0.480128,0.21282 -0.960271,0.42561 -1.440393,0.63844 z" />
  <path
     id="path103"
     style="fill:#000000;stroke:#000000;stroke-width:0.264583"
     d="m 35.893364,69.49087 c -2.446783,2.98658 -4.760809,6.08065 -6.786486,9.36986 -0.618377,0.54622 -1.517655,2.78637 0.0053,2.20843 1.171282,-1.12657 1.64783,-2.75626 2.575008,-4.07076 1.537656,-2.52404 3.282661,-4.93292 5.321804,-7.07733 -0.371867,-0.14339 -0.743714,-0.28683 -1.115589,-0.4302 z" />
  <path
     id="path105"
     style="fill:#000000;stroke:#000000;stroke-width:0.264583"
     d="m 37.977739,77.67369 c 0.158239,1.08891 0.127283,2.19472 0.239172,3.28833 0.06689,0.75456 -0.100731,1.64577 0.497167,2.2308 0.566072,0.7361 1.105336,-0.3178 1.077251,-0.87315 -0.02235,-0.72381 -0.162334,-1.4433 -0.18195,-2.17099 -0.05457,-0.80166 -0.120102,-1.60761 -0.258704,-2.39754 -0.327807,-0.38007 -0.937696,0.0228 -1.372936,-0.0774 z" />
  <path
     id="path107"
     style="fill:#000000;stroke:#000000;stroke-width:0.264583"
     d="m 41.869621,68.35344 c 1.380151,3.83021 3.194376,7.57346 3.668367,11.66272 0.25701,1.00953 1.675599,0.73427 1.95936,-0.11932 0.282441,-1.13778 0.264597,-2.3435 0.594252,-3.48369 0.426081,-2.00941 1.003744,-3.98455 1.679082,-5.92371 -0.58722,0.2078 -1.070723,0.49851 -0.296783,0.95786 1.055878,1.13692 1.648398,2.60136 2.489739,3.88864 0.642219,1.13362 1.057907,2.3876 1.711747,3.50943 0.9068,0.85837 2.373492,-0.26967 2.253005,-1.37188 -0.07663,-3.08646 1.634523,-5.81058 2.525517,-8.6677 -0.403495,-1.40012 -1.49196,0.52025 -1.583743,1.20466 -0.825874,2.62645 -2.067924,5.10092 -2.931016,7.71557 0.529765,-0.12653 1.560401,0.24526 0.561376,-0.32943 -1.732609,-1.70908 -2.802371,-3.9445 -3.86011,-6.10456 0.1695,-1.11819 -1.794051,-2.11432 -2.228426,-0.85611 -0.170554,1.12036 -0.319577,2.24155 -0.615064,3.34303 -0.447917,1.98415 -1.02187,3.94688 -1.836217,5.81375 0.634819,0.70353 1.399372,-0.12839 0.544491,-0.61237 -1.312237,-2.39036 -2.072215,-5.04517 -2.776857,-7.66829 -0.589237,-0.92117 0.06683,-2.86783 -1.237537,-3.06573 -0.20978,0.0174 -0.416386,0.06 -0.621183,0.10713 z" />
  <path
     id="path109"
     style="fill:#000000;stroke:#000000;stroke-width:0.264583"
     d="m 59.808356,76.30308 c -0.14269,2.27166 -0.188243,4.55868 -0.06564,6.82913 0.15097,0.90994 1.409939,1.10705 1.54546,0.0641 0.147819,-0.91502 -0.117416,-1.84192 -0.08232,-2.76576 -0.06846,-1.29306 -0.02905,-2.59935 -0.123369,-3.88529 -0.244069,-0.47919 -0.871536,-0.13721 -1.274125,-0.24219 z" />
  <path
     id="path111"
     style="fill:#000000;stroke:#000000;stroke-width:0.264583"
     d="m 43.903872,131.54676 c 2.300074,1.58285 4.303604,3.54732 6.518635,5.24219 1.24767,0.61853 2.48736,3.20673 4.008177,2.06804 0.486318,-1.23247 -1.551306,-1.42098 -2.191093,-2.17506 -2.44095,-1.64385 -4.702668,-3.57045 -6.625157,-5.80321 -0.68018,-0.25516 -1.120046,0.51528 -1.710562,0.66804 z" />
  <path
     id="path113"
     style="fill:#000000;stroke:#000000;stroke-width:0.264583"
     d="m 51.568624,129.95883 c -1.682645,3.6636 -3.583023,7.22203 -5.284021,10.87687 -0.235447,0.63541 -0.288991,2.60747 0.454458,1.16979 1.281149,-1.46198 1.721821,-3.43353 2.658215,-5.1057 1.060114,-2.23547 2.141367,-4.46084 3.203261,-6.69546 -0.343979,-0.0818 -0.687932,-0.16371 -1.031913,-0.2455 z" />
  <path
     id="path115"
     style="fill:#000000;stroke:#000000;stroke-width:0.264583"
     d="m 56.37226,137.37733 c 1.661015,-1.40062 1.275043,1.59019 0.433695,2.30164 -0.540017,1.37812 -2.512361,1.93339 -2.564453,3.43316 0.69793,1.10815 2.211991,0.3887 3.260885,0.33863 2.12926,-0.42093 4.312394,-0.40006 6.455393,-0.71771 1.450777,-1.01627 -1.268272,-1.22453 -1.988869,-0.92942 -2.084289,0.44116 -4.222441,0.68861 -6.355258,0.60605 0.681139,-0.20287 -0.163173,0.97665 0.55406,0.0518 1.105288,-1.4481 2.447728,-2.93596 2.720181,-4.80025 0.253528,-1.46862 -1.509452,-1.91835 -2.594984,-1.45299 -1.065548,0.38745 -0.995662,0.77061 0.07935,1.16913 z" />
  <path
     id="path117"
     style="fill:#000000;stroke:#000000;stroke-width:0.264583"
     d="m 58.873797,126.81562 c 2.022604,3.07827 3.342328,6.53507 4.841654,9.88045 2.374102,0.17676 1.918018,-2.86504 2.191199,-4.41602 -4.01e-4,-1.14387 1.183676,-3.1046 0.578685,-3.65188 -1.030535,1.0876 1.613434,2.52989 1.834104,3.88963 0.464015,1.33664 1.740283,4.63356 3.384442,2.58612 0.640628,-1.45053 0.398079,-3.12368 1.040266,-4.5947 0.497497,-1.60432 1.116829,-3.20465 1.190938,-4.90129 -1.899431,0.56965 -2.022143,2.96846 -2.609618,4.55683 -0.149897,1.25497 -1.373792,3.43496 -1.215108,3.97743 1.854609,0.70918 -0.947264,-1.18662 -1.025083,-2.02703 -1.382657,-1.02347 -1.098533,-5.21446 -3.379325,-4.03389 -1.021257,1.80694 -0.494862,4.19434 -1.418307,6.14752 -0.708514,0.80368 -0.211817,2.30675 0.671167,1.31489 -1.096881,-1.38922 -1.886824,-3.06794 -2.663802,-4.68871 -0.931418,-1.34952 -1.122961,-3.68731 -2.67649,-4.32544 l -0.39235,0.10802 -0.352372,0.17804 z" />
  <path
     id="path119"
     style="fill:#000000;stroke:#000000;stroke-width:0.264583"
     d="m 77.646998,133.59626 c 0.372699,-0.24507 0.792845,-0.68403 0.09479,-0.2461 -0.402097,0.87949 -0.431758,1.90717 -1.124725,2.65327 -0.733278,1.09608 -1.757507,1.9444 -2.715732,2.83374 -0.681587,1.23306 1.147965,1.8439 2.044598,1.32251 1.090493,-0.29874 2.112156,-0.82555 2.955829,-1.57137 0.400849,-0.31667 1.138407,-0.47404 0.239466,-0.30517 -1.108183,-0.0576 -2.205609,-0.0594 -3.290405,0.2046 -0.571661,0.0404 -1.245456,0.26484 -0.26489,0.29521 0.560909,0.13796 -2.16e-4,1.13524 0.537707,0.33866 0.910702,-1.2962 1.718762,-2.6688 2.480421,-4.05718 0.443742,-0.84321 1.131578,-2.84647 -0.360286,-2.97373 -0.794409,-0.16144 -2.402876,1.0021 -0.977995,1.31087 0.128558,0.0619 0.255832,0.12656 0.381219,0.19469 z" />
  <path
     id="path121"
     style="fill:#4d4d4d;stroke:#4d4d4d;stroke-width:0.264583"
     d="m 16.280795,9.23308 c 0.40611,2.05328 0.4894,4.15322 0.70705,6.23046 0.0661,1.0743 -0.0955,2.29694 0.71814,3.13725 0.57665,-0.35621 0.67281,-1.39599 0.4743,-2.10013 -0.26515,-1.94023 -0.53821,-3.88284 -0.78296,-5.82361 0.0805,-0.81967 -2e-5,-1.90492 -1.11653,-1.44397 z" />
  <path
     id="path123"
     style="fill:#4d4d4d;stroke:#4d4d4d;stroke-width:0.264583"
     d="m 15.233945,8.65554 c 1.33954,-0.87651 4.34447,-0.57544 3.87165,1.57029 -0.0223,1.19073 -2.36197,2.52927 -0.94569,3.44243 1.23822,0.16767 3.0078,-0.63862 3.75009,0.80589 0.54617,1.66353 -1.37479,2.89354 -2.54109,3.71867 -1.00389,0.22441 -2.39925,2.0894 -0.48763,1.51368 2.21653,-0.22775 4.44898,-1.99992 4.74567,-4.2774 0.27182,-1.97549 -1.91294,-2.80974 -3.52933,-2.76846 -0.76331,-0.15126 -2.66185,0.11673 -0.98271,0.12267 0.89362,-1.13247 1.83453,-3.43529 0.30992,-4.46759 -1.2786,-0.77186 -3.42433,-0.66957 -4.45753,0.15754 z" />
  <path
     id="path125"
     style="fill:#4d4d4d;stroke:#4d4d4d;stroke-width:0.264583"
     d="m 26.232325,9.68647 c 0.37513,1.46819 0.22871,2.99556 0.30097,4.49336 -0.002,0.58201 -0.0424,1.164 -0.0163,1.74597 0.14023,0.34282 0.69842,0.6816 0.83226,0.8123 0.054,-0.41479 0.68303,-0.44931 0.67127,-0.89684 -0.12034,-1.89874 -0.30225,-3.79534 -0.52589,-5.68478 0.0907,-0.3326 -0.0901,-0.73887 -0.48368,-0.5406 -0.25808,0.0314 -0.52154,0.0477 -0.77865,0.0706 z" />
  <path
     id="path127"
     style="fill:#4d4d4d;stroke:#4d4d4d;stroke-width:0.264583"
     d="m 26.802985,7.31718 c 0.83443,-0.0148 1.96956,-1.57212 0.6885,-1.79026 -0.7807,-0.36408 -2.43307,0.83408 -1.30301,1.42945 0.23432,0.0635 0.47033,0.15028 0.61451,0.36081 z" />
  <path
     id="path129"
     style="fill:#4d4d4d;stroke:#4d4d4d;stroke-width:0.264583"
     d="m 33.855215,8.43441 c -0.96721,2.80953 -2.18971,5.52696 -3.28698,8.28116 -0.42729,1.09739 0.93326,1.41939 1.22422,0.32724 0.49696,-1.12211 0.72428,-2.35531 1.19686,-3.49561 0.54603,-1.48224 1.09189,-2.96906 1.7692,-4.39442 0.26555,-0.72821 -0.49388,-0.58937 -0.9033,-0.71837 z" />
  <path
     id="path131"
     style="fill:#4d4d4d;stroke:#4d4d4d;stroke-width:0.264583"
     d="m 33.962655,8.27707 c 1.03808,2.77389 1.88424,5.62627 2.78619,8.43729 0.28754,1.16071 1.74443,0.71838 1.11749,-0.36634 -1.0388,-2.37786 -2.10457,-4.76599 -2.75302,-7.28751 0.10442,-0.75609 -0.4815,-1.13516 -1.15066,-0.78344 z" />
  <path
     id="path137"
     style="fill:#4d4d4d;stroke:#4d4d4d;stroke-width:0.264583"
     d="m 33.723405,14.58665 c 1.24758,-0.21066 2.4896,-0.47265 3.6954,-0.85988 0.60065,-0.45351 -0.22358,-0.98635 -0.70984,-0.91056 -0.81925,-0.046 -1.57478,0.35264 -2.37195,0.48222 -0.51714,0.11339 -1.04078,0.20151 -1.56915,0.24013 0.23301,0.42084 0.65955,0.67901 0.95554,1.04809 z" />
  <path
     id="path139"
     style="fill:#4d4d4d;stroke:#4d4d4d;stroke-width:0.264583"
     d="m 44.164605,8.32703 c -1.64399,0.4187 -2.51548,2.6441 -0.94922,3.72637 1.33466,0.65256 2.36824,2.52658 0.41015,3.1818 -1.14887,0.91902 -3.37958,0.89951 -3.78507,2.44826 2.23936,0.29676 4.47227,-0.668 6.22525,-2.02538 1.49795,-1.39504 0.14842,-3.39568 -1.436,-3.9173 -1.24118,-0.66782 -1.25732,-2.27357 0.26036,-2.47608 0.11415,-0.42963 -0.54121,-0.62837 -0.72547,-0.93767 z" />
  <path
     id="path141"
     style="fill:#000000;stroke:#000000;stroke-width:0.264583"
     d="m 289.78318,37.6737 c 1.40443,2.26239 1.29505,7.15698 4.95484,6.73105 3.04672,-0.85893 4.22394,-4.20532 6.8211,-5.72752 2.65356,-1.47135 -0.33092,-3.5001 -1.66376,-1.25035 -4.55712,5.43976 -9.03777,10.96518 -13.02991,16.84369 0.57089,2.86501 2.80848,-1.48913 3.30732,-2.58202 3.2033,-5.11714 6.96735,-10.06249 11.80486,-13.70033 -2.42871,-1.89875 -3.02248,2.66858 -5.20148,3.52151 -1.41017,1.75245 -3.94621,2.28889 -4.46596,-0.52343 -0.83078,-1.06284 -0.2937,-4.30968 -2.52701,-3.3126 z" />
  <path
     id="path143"
     style="fill:#000000;stroke:#000000;stroke-width:0.264583"
     d="m 291.99461,32.87081 c 2.00992,-2.31866 3.63196,-4.93873 5.54276,-7.3359 1.07705,-0.80297 -0.21412,-0.67949 -0.7209,-0.35976 1.44905,2.10613 1.77248,4.75679 2.85354,7.04328 0.78347,1.23069 1.87175,0.27724 1.1485,-0.87169 -0.6601,-1.62344 -1.43853,-3.20597 -1.82253,-4.931 -0.065,-1.35369 -0.7284,-3.49633 -2.49528,-2.56449 -0.93916,1.35843 -1.20777,3.20961 -2.275,4.57652 -0.74599,1.48846 -2.58032,2.86281 -3.33673,3.82766 0.36851,0.2052 0.73677,0.41083 1.10564,0.61538 z" />
  <path
     id="path149"
     style="fill:#37abc8;stroke:#37abc8;stroke-width:0.264583"
     d="m 183.42552,125.84722 c 0.67616,-2.82578 1.90112,-5.50343 3.47358,-7.94037 -1.9539,-0.0739 -0.17575,2.04651 -0.30486,3.1224 0.44017,2.03866 0.82773,4.14201 1.81507,5.99801 1.0642,0.71381 1.30854,-1.04697 0.55664,-1.57232 -1.02943,-2.42464 -1.83076,-5.04635 -1.8498,-7.67602 -0.75775,-1.18159 -1.90909,-0.11989 -1.78383,0.96646 -0.76188,2.31115 -1.94047,4.44952 -3.00739,6.62734 -0.0871,0.64525 0.79571,0.24552 1.10059,0.4745 z" />
  <path
     id="path151"
     style="fill:#37abc8;stroke:#37abc8;stroke-width:0.264583"
     d="m 185.55976,124.34816 c 1.1003,-0.58803 2.25469,-1.06566 3.36717,-1.62918 0.0316,-0.44472 1.46911,-1.27936 0.33679,-0.95527 -1.12011,-0.0912 -2.20951,0.11497 -3.2285,0.58951 -0.48821,0.39083 -1.93721,0.29639 -1.79756,1.04578 0.36213,0.41727 0.98551,0.50605 1.3221,0.94916 z" />
  <path
     id="path153"
     style="fill:#37abc8;stroke:#37abc8;stroke-width:0.264583"
     d="m 197.52057,119.40977 c -2.06987,0.26487 -4.11737,1.94616 -4.15468,4.141 -0.0375,1.22049 0.85547,2.31213 2.02482,2.60659 0.93713,0.29738 1.94119,0.26061 2.90388,0.12864 0.45481,-0.28154 1.49367,-1.02471 0.35322,-0.74703 -0.97775,-0.31349 -2.04238,-0.21418 -2.98139,-0.63921 -1.10767,-0.47974 -1.09712,-1.95167 -0.48043,-2.81699 0.67477,-1.07568 1.95978,-1.57082 3.18508,-1.58174 0.0651,-0.35026 -0.66063,-0.73649 -0.8505,-1.09126 z" />
  <path
     id="path155"
     style="fill:#37abc8;stroke:#37abc8;stroke-width:0.264583"
     d="m 203.75505,119.41512 c 0.122,2.0123 -0.17404,4.01502 -0.30067,6.01924 0.18716,0.65742 0.96247,1.56999 1.37979,0.56629 0.69914,-0.72513 0.20262,-1.78303 0.33903,-2.67008 -0.001,-1.29922 0.0214,-2.60006 0.1369,-3.89481 -0.51834,-0.007 -1.03678,-0.0135 -1.55505,-0.0206 z" />
  <path
     id="path157"
     style="fill:#37abc8;stroke:#37abc8;stroke-width:0.264583"
     d="m 202.41153,121.09054 c 1.46434,-0.55075 2.83648,-1.31785 4.30468,-1.8592 0.37675,-0.45513 1.57799,-0.86662 1.32017,-1.4439 -0.97427,-0.15645 -1.96495,0.2038 -2.90765,0.41446 -1.21378,0.5357 -2.43022,1.08528 -3.74485,1.32274 -0.99202,0.28436 0.64909,1.00681 0.93505,1.48201 z" />
  <path
     id="path159"
     style="fill:#37abc8;stroke:#37abc8;stroke-width:0.264583"
     d="m 211.30213,119.83437 c 0.0627,1.41549 0.10801,2.83154 0.13929,4.24767 0.0907,0.51722 0.33393,1.37837 0.97265,1.35918 0.53861,-0.38511 0.75178,-1.13912 0.72612,-1.7868 0.003,-1.28134 -0.0581,-2.56185 -0.0571,-3.84318 -0.59363,0.008 -1.18737,0.016 -1.78095,0.0231 z" />
  <path
     id="path161"
     style="fill:#37abc8;stroke:#37abc8;stroke-width:0.264583"
     d="m 211.8439,117.82767 c 0.79345,-0.3815 2.60653,-2.0918 0.9532,-2.42908 -1.13498,-0.19742 -3.31632,1.27792 -1.54835,2.06609 0.20746,0.10456 0.41781,0.21034 0.59515,0.36299 z" />
  <path
     id="path163"
     style="fill:#37abc8;stroke:#37abc8;stroke-width:0.264583"
     d="m 216.25448,119.36399 c 0.93535,1.79354 1.69923,3.68827 2.13451,5.66776 0.93117,1.12254 2.72938,0.44656 2.78128,-0.99564 0.90726,-2.16217 2.31141,-4.05858 3.43341,-6.1063 0.25595,-1.66618 -1.87922,0.10316 -2.12983,0.83547 -1.20014,1.65219 -2.22436,3.42127 -3.31035,5.1482 -0.73015,0.55678 1.87295,0.72142 0.6284,-0.004 -0.7273,-1.40538 -1.52682,-2.818 -1.79616,-4.39204 -0.29309,-0.78985 -1.17481,-0.0572 -1.74126,-0.1532 z" />
  <path
     id="path165"
     style="fill:#37abc8;stroke:#37abc8;stroke-width:0.264583"
     d="m 228.98719,117.70227 c -1.0899,2.04307 -2.12695,4.12329 -3.02121,6.25713 -0.22422,0.81036 0.6537,1.56034 1.16632,0.65645 0.70043,-0.66035 0.80739,-1.69505 1.25652,-2.5131 0.55923,-1.30522 1.13739,-2.60257 1.75177,-3.88285 -0.14899,-0.49187 -0.81267,-0.28335 -1.1534,-0.51763 z" />
  <path
     id="path167"
     style="fill:#37abc8;stroke:#37abc8;stroke-width:0.264583"
     d="m 228.9425,117.19206 c 0.96233,2.56264 2.41002,4.92198 3.23582,7.53863 0.26335,1.31053 2.55086,1.44597 2.04025,-0.18125 -0.54071,-1.22706 -1.31105,-2.34875 -1.84263,-3.58761 -0.6557,-1.36213 -1.27203,-2.74336 -1.95974,-4.08996 -0.49124,0.10671 -0.98244,0.21356 -1.4737,0.32019 z" />
  <path
     id="path169"
     style="fill:#37abc8;stroke:#37abc8;stroke-width:0.264583"
     d="m 228.169,122.9421 c 1.38847,-0.38606 2.71977,-0.94466 4.06529,-1.4545 0.4147,-0.24832 -0.0281,-0.81846 0.26417,-1.09481 -0.80641,0.0938 -1.59826,-0.60294 -2.40261,-0.17538 -1.27074,0.32751 -2.51293,0.75513 -3.78176,1.08949 0.61831,0.54506 1.2366,1.09015 1.85491,1.6352 z" />
  <path
     id="path171"
     style="fill:#37abc8;stroke:#37abc8;stroke-width:0.264583"
     d="m 237.96325,117.97401 c 0.16579,2.08116 0.065,4.17399 0.0624,6.25482 0.0948,0.9645 1.25004,1.84815 1.84159,0.69954 0.57053,-0.95238 0.22564,-2.1083 0.31259,-3.1538 0.01,-1.25875 0.0683,-2.51726 0.18179,-3.77097 -0.79946,-0.01 -1.59894,-0.0198 -2.3984,-0.0296 z" />
  <path
     id="path173"
     style="fill:#37abc8;stroke:#37abc8;stroke-width:0.264583"
     d="m 235.79345,119.68864 c 2.7892,-0.95725 5.5492,-2.03327 8.43677,-2.66543 1.39452,-0.71153 0.0428,-1.92699 -1.06477,-1.55983 -1.58766,0.10117 -2.94476,1.0675 -4.48738,1.38124 -1.55595,0.46424 -3.13577,0.84178 -4.70059,1.27395 0.60533,0.52335 1.21065,1.04671 1.81597,1.57007 z" />
  <path
     id="path179"
     style="fill:#37abc8;stroke:#37abc8;stroke-width:0.264583"
     d="m 247.66933,118.47031 c 0.14853,1.41736 0.0305,2.84614 0.12127,4.2668 -0.0781,0.82936 0.20475,1.53692 0.70465,2.16085 0.23381,0.4755 0.22483,-0.83745 0.59279,-0.77007 0.23142,-1.49755 -0.0787,-3.01199 -0.006,-4.5177 0.28838,-0.86203 -0.26006,-1.41892 -1.11565,-1.1086 -0.0996,0.002 -0.20127,-10e-4 -0.29727,-0.0313 z" />
  <path
     id="path181"
     style="fill:#37abc8;stroke:#37abc8;stroke-width:0.264583"
     d="m 248.96734,115.86952 c 0.78606,-0.47884 2.05325,-1.50286 1.51022,-2.45487 -1.03487,0.10996 -2.23417,-0.0242 -3.02439,0.82859 -0.51838,0.89704 0.98225,1.01034 1.42027,1.54444 z" />
  <path
     id="path183"
     style="fill:#37abc8;stroke:#37abc8;stroke-width:0.264583"
     d="m 255.61748,116.16374 c -1.75497,1.28492 -3.31658,3.33136 -2.90954,5.63192 0.16702,1.5838 0.94618,3.65772 2.77563,3.82293 2.26281,0.3754 4.01972,-1.61342 4.78979,-3.51828 0.75329,-1.8938 1.29926,-4.39276 -0.16994,-6.08481 -0.59654,-0.91488 -3.61347,-0.48581 -2.30356,0.62105 0.91494,-0.34419 1.87231,1.14091 1.66917,2.37073 -0.11783,2.18686 -1.31143,4.54474 -3.49638,5.2719 0.27494,0.42502 -1.42526,-0.5987 -1.41082,-1.35226 -1.01634,-1.99329 -0.0746,-4.55248 1.79047,-5.67638 0.63336,-0.56183 -0.39533,-0.8361 -0.73482,-1.0868 z" />
  <path
     id="path185"
     style="fill:#37abc8;stroke:#37abc8;stroke-width:0.264583"
     d="m 264.09949,124.59516 c 0.28948,-2.61068 0.66654,-5.22978 1.48265,-7.73505 -2.09391,0.10535 0.36958,1.68989 0.53347,2.75528 0.73958,1.5207 1.58482,3.01454 2.32705,4.50722 1.588,1.2541 3.27203,-0.57402 2.95343,-2.26488 0.47498,-2.57661 1.58927,-5.00933 1.93443,-7.60649 -0.90933,-2.32016 -2.54375,1.0283 -2.59641,2.24524 -0.63726,2.30075 -1.06976,4.68306 -2.10305,6.85218 0.81416,0.42919 2.95474,0.0706 1.25087,-0.76426 -1.75287,-1.79579 -2.9328,-4.06212 -3.82489,-6.38643 -1.43748,-1.06025 -2.73073,0.77775 -2.26954,2.14172 -0.17267,2.08046 -0.57191,4.13342 -1.00736,6.17246 0.43978,0.0277 0.8796,0.0551 1.31935,0.083 z" />
  <path
     id="path187"
     style="fill:#37abc8;stroke:#37abc8;stroke-width:0.264583"
     d="m 192.22502,136.31417 c 0.40592,2.35003 0.15624,4.74465 0.31557,7.1128 -0.0396,0.93418 -0.13253,2.20783 0.82245,2.72768 0.96541,-0.34461 0.77012,-1.77586 0.64282,-2.63407 -0.0769,-2.36829 -0.25592,-4.74271 -0.16812,-7.10986 -0.37345,-0.47492 -1.11661,0.0677 -1.61272,-0.0965 z" />
  <path
     id="path189"
     style="fill:#37abc8;stroke:#37abc8;stroke-width:0.264583"
     d="m 193.18666,138.21669 c 1.72852,-0.74281 3.26477,-1.86759 5.01869,-2.55911 0.70185,-0.28714 2.06108,-1.47092 0.52708,-1.26568 -1.83818,0.15749 -3.41461,1.22842 -5.08955,1.90064 -0.47105,0.31593 -1.85156,0.43719 -1.64456,0.97761 0.39612,0.3155 0.79228,0.63095 1.18834,0.94654 z" />
  <path
     id="path191"
     style="fill:#37abc8;stroke:#37abc8;stroke-width:0.264583"
     d="m 194.55223,141.37381 c 0.99656,-0.60014 2.13775,-0.93986 3.10903,-1.57386 0.34747,-0.45697 1.25643,-0.64894 1.2686,-1.24422 -0.55761,-0.16024 -1.13844,0.0977 -1.6972,0.17277 -0.71373,0.0864 -1.4239,0.21904 -2.08303,0.51614 -0.76676,0.27614 -1.54075,0.5454 -2.34411,0.69396 0.58225,0.47838 1.16437,0.95693 1.74671,1.43521 z" />
  <path
     id="path193"
     style="fill:#37abc8;stroke:#37abc8;stroke-width:0.264583"
     d="m 202.27472,136.4415 c 0.2136,2.10126 0.0502,4.31616 0.96942,6.27765 0.81208,0.99198 2.50653,0.50513 3.08337,-0.51073 1.00255,-1.45019 1.72314,-3.12403 2.02925,-4.86126 0.0654,-0.61471 -0.1527,-1.87804 -0.73525,-0.7929 -1.09127,1.33411 -1.32878,3.15721 -2.43775,4.48904 -0.26131,0.34029 -1.33554,0.97272 -0.35627,1.01481 -0.8354,0.28554 -1.19071,-1.27188 -1.44494,-1.97455 -0.30847,-1.13804 -0.31366,-2.34685 -0.0835,-3.49972 -0.29394,-0.24765 -0.69004,-0.0428 -1.02428,-0.14234 z" />
  <path
     id="path195"
     style="fill:#37abc8;stroke:#37abc8;stroke-width:0.264583"
     d="m 211.78491,143.71919 c 0.3285,-2.31686 0.70879,-4.63897 1.42527,-6.8723 0.2106,0.54035 -1.48666,-7.4e-4 -0.48809,0.79483 1.1736,1.66728 1.90803,3.58799 2.49094,5.52853 1.23407,0.62862 2.88663,0.0957 2.49775,-1.53802 0.26928,-2.43429 1.26942,-4.72394 1.58335,-7.14302 -1.04445,-1.65449 -1.98991,0.86985 -2.11764,1.85408 -0.52445,1.95373 -1.16077,3.87509 -1.82618,5.78484 0.58085,-0.22719 2.52707,0.41633 1.07775,-0.57103 -1.34509,-1.4494 -2.13599,-3.3081 -2.72155,-5.17215 -1.14617,-1.10724 -2.62556,-0.0371 -2.1415,1.40865 -0.20318,1.93584 -0.52114,3.87465 -1.17663,5.7139 0.4655,0.0706 0.93103,0.14104 1.39653,0.21169 z" />
  <path
     id="path197"
     style="fill:#37abc8;stroke:#37abc8;stroke-width:0.264583"
     d="m 224.80552,134.83161 c -1.64739,1.1801 -3.46333,2.746 -3.48448,4.94629 -0.0394,1.58888 1.45054,2.94325 3.0262,2.77947 1.09582,0.11586 2.85356,-0.67232 3.24038,-1.0221 -1.07857,0.3255 -2.20231,-0.0546 -3.27391,-0.215 -1.14236,-0.21289 -1.76008,-1.45828 -1.31461,-2.5074 0.41222,-1.39189 1.59781,-2.37424 2.82437,-3.04265 0.34467,-0.51305 -0.82555,-0.59409 -1.01795,-0.93861 z" />
  <path
     id="path199"
     style="fill:#37abc8;stroke:#37abc8;stroke-width:0.264583"
     d="m 231.81747,135.05722 c -0.0103,1.91784 0.19455,3.82987 0.19607,5.74834 0.0238,0.72566 0.12435,2.30576 1.20495,1.97917 0.76105,-0.67197 0.397,-1.83648 0.38055,-2.72472 -0.09,-1.51384 -0.341,-3.03858 -0.10079,-4.55057 -0.17663,-0.71393 -1.18033,-0.29752 -1.68078,-0.45222 z" />
  <path
     id="path201"
     style="fill:#37abc8;stroke:#37abc8;stroke-width:0.264583"
     d="m 229.6853,137.00353 c 2.4194,-0.75557 4.51943,-2.24259 6.86976,-3.16426 0.93118,-0.17945 1.46665,-1.64673 0.11537,-1.47076 -1.56997,0.12592 -2.84501,1.17567 -4.29124,1.69596 -1.38687,0.60905 -2.83581,1.06308 -4.22242,1.67277 0.5095,0.42211 1.01909,0.84411 1.52853,1.26629 z" />
  <path
     id="path203"
     style="fill:#37abc8;stroke:#37abc8;stroke-width:0.264583"
     d="m 240.52266,135.69525 c 0.15172,1.63838 0.12394,3.28896 0.16011,4.92899 0.0539,0.54992 0.5878,2.04717 1.20315,1.20191 0.74299,-0.99342 0.4628,-2.28952 0.53483,-3.44103 -0.0221,-0.79982 0.11101,-1.5999 0.0608,-2.39667 -0.24321,-0.74941 -1.37543,-0.10552 -1.95889,-0.2932 z" />
  <path
     id="path205"
     style="fill:#37abc8;stroke:#37abc8;stroke-width:0.264583"
     d="m 242.1117,133.16298 c 0.77152,-0.74376 1.60232,-1.58447 1.8268,-2.66853 -1.21815,0.079 -2.43783,0.37915 -3.44548,1.07823 -0.918,1.13462 1.09332,1.09452 1.61868,1.5903 z" />
  <path
     id="path207"
     style="fill:#37abc8;stroke:#37abc8;stroke-width:0.264583"
     d="m 248.24163,134.61437 c -1.51353,1.89779 -2.4713,4.73647 -1.1509,6.98248 0.85141,1.06538 2.53532,1.11877 3.6919,0.58382 1.42245,-1.01534 2.34891,-2.80785 2.26974,-4.56827 -0.1008,-1.26974 -1.2064,-2.70864 -2.60905,-2.36218 -1.24674,0.18638 -0.74948,1.42051 0.23471,1.50895 1.00195,1.07727 0.52433,2.79844 -0.34447,3.78913 -0.77001,0.60043 -1.72016,1.07629 -2.23974,-0.0923 -0.80055,-1.71716 -0.19402,-3.89234 1.22459,-5.10312 0.0591,-0.4993 -0.82897,-0.42194 -1.07678,-0.73851 z" />
  <path
     id="path209"
     style="fill:#37abc8;stroke:#37abc8;stroke-width:0.264583"
     d="m 258.11196,141.30917 c -0.11339,-1.91586 0.37928,-3.79341 0.8367,-5.63613 -0.89336,0.12056 -1.66566,0.4312 -0.62332,1.14131 1.27314,1.51049 2.3155,3.20694 3.15014,4.98893 0.99225,1.23095 3.09597,0.48518 2.96845,-1.14857 0.17951,-2.03566 0.67306,-4.01731 1.08974,-6.01336 -0.16185,-0.73002 -0.37121,-2.0725 -1.02444,-0.77025 -1.26511,1.68492 -0.9425,3.96248 -1.78037,5.83769 -0.39977,0.74649 -0.67201,1.25232 0.4535,1.15674 0.14199,-0.005 -1.34543,-1.07934 -1.59436,-1.70612 -1.05657,-1.20822 -1.58264,-2.76003 -2.53716,-4.01272 -1.53752,-1.16738 -2.39362,0.73551 -1.9541,2.04861 -0.0157,1.301 -0.68851,3.1278 -0.43221,4.07871 0.48239,0.0118 0.96556,0.0232 1.44743,0.0352 z" />
  <path
     id="path378"
     style="fill:#3771c8;fill-opacity:1;stroke:#3771c8;stroke-width:0.325365;stroke-opacity:1"
     d="m 124.02931,24.495003 c -1.34847,0.06539 -3.3872,2.010452 -1.91821,3.330404 1.12127,0.783984 2.70971,0.45756 3.675,1.540664 0.8447,1.387693 -0.9619,2.331975 -1.80748,2.994512 -1.38038,0.87903 -2.92441,1.367507 -4.36175,2.113107 -0.0737,1.358311 2.05612,-0.09506 2.68813,-0.473747 1.7158,-0.917867 3.79199,-1.683536 4.65418,-3.726891 0.26409,-1.686464 -1.65828,-2.01396 -2.74112,-2.329589 -1.48228,0.145555 -2.29977,-1.993426 -0.5617,-2.311145 0.85227,-0.290413 1.39804,-0.221705 0.37295,-1.137315 z" />
  <path
     id="path380"
     style="fill:#3771c8;fill-opacity:1;stroke:#3771c8;stroke-width:0.325365;stroke-opacity:1"
     d="m 129.84941,25.295652 c 0.15638,2.134093 0.17855,4.481185 1.49695,6.211606 0.60567,1.014241 2.06714,0.629104 2.25598,-0.542378 0.60878,-2.083184 1.1662,-4.197607 1.56564,-6.339632 0.13121,-0.863037 -0.76217,-1.581435 -1.04445,-0.446429 -0.35218,0.952589 -0.22059,2.02513 -0.50461,3.005888 -0.25993,1.327652 -0.6679,2.638821 -1.34882,3.780341 -0.33766,0.25493 0.69989,0.307542 -0.15658,0.09648 -1.3529,-0.942386 -1.56277,-2.876984 -1.63517,-4.481352 0.0754,-0.61186 0.37068,-1.689018 -0.62894,-1.284547 z" />
  <path
     id="path382"
     style="fill:#3771c8;fill-opacity:1;stroke:#3771c8;stroke-width:0.325365;stroke-opacity:1"
     d="m 137.52854,32.293629 c 0.55266,-2.477763 1.00158,-4.992091 1.785,-7.399288 -1.53474,0.233868 0.67222,1.958021 0.45024,2.947111 -0.0404,1.295536 1.11176,3.562234 2.1542,1.72739 0.88804,-1.962832 1.76295,-4.006083 3.25587,-5.519778 -1.40468,0.207273 0.53076,1.663609 0.37594,2.607621 0.57959,1.050498 0.47935,3.861457 1.81569,3.653746 -0.13748,-2.044335 -1.41421,-3.940729 -1.58876,-6.059976 -0.53678,-2.218949 -2.42213,-0.04953 -2.61193,1.237546 -0.54118,1.327253 -1.98402,2.904509 -2.29316,3.899842 1.12055,0.304111 -0.54232,-1.219786 -0.39249,-1.903578 -0.31922,-0.930572 -0.98515,-4.435615 -2.12684,-2.60468 -0.3013,1.810712 -0.34569,3.704733 -1.02408,5.446117 -0.0707,0.632664 -1.08734,2.095979 0.20032,1.967927 z" />
</svg>
