<?xml version="1.0" encoding="UTF-8" standalone="no"?>
<svg
   xmlns:dc="http://purl.org/dc/elements/1.1/"
   xmlns:cc="http://creativecommons.org/ns#"
   xmlns:rdf="http://www.w3.org/1999/02/22-rdf-syntax-ns#"
   xmlns:svg="http://www.w3.org/2000/svg"
   xmlns="http://www.w3.org/2000/svg"
   xmlns:sodipodi="http://sodipodi.sourceforge.net/DTD/sodipodi-0.dtd"
   xmlns:inkscape="http://www.inkscape.org/namespaces/inkscape"
   width="1200"
   height="600"
   viewBox="0 0 317.5 158.75"
   version="1.1"
   id="svg8"
   inkscape:version="1.0.1 (3bc2e813f5, 2020-09-07)"
   sodipodi:docname="pd-bat.svg">
  <sodipodi:namedview
     id="base"
     pagecolor="#ffffff"
     bordercolor="#666666"
     borderopacity="1.0"
     inkscape:pageopacity="0.0"
     inkscape:pageshadow="2"
     inkscape:zoom="1.4"
     inkscape:cx="596.85401"
     inkscape:cy="311.27943"
     inkscape:document-units="mm"
     inkscape:current-layer="layer1"
     showgrid="false"
     units="px"
     inkscape:window-width="1920"
     inkscape:window-height="1061"
     inkscape:window-x="0"
     inkscape:window-y="19"
     inkscape:window-maximized="0"
     inkscape:document-rotation="0"
     inkscape:snap-global="false" />
  <metadata
     id="metadata5">
    <rdf:RDF>
      <cc:Work
         rdf:about="">
        <dc:format>image/svg+xml</dc:format>
        <dc:type
           rdf:resource="http://purl.org/dc/dcmitype/StillImage" />
        <dc:title />
      </cc:Work>
    </rdf:RDF>
  </metadata>
  <g
     inkscape:label="Layer 1"
     inkscape:groupmode="layer"
     id="layer1"
     transform="translate(0,-138.25001)">
    <path
       id="path73"
       style="fill:#31203a;fill-opacity:1;stroke:#31203a;stroke-width:0.264583px;stroke-linecap:butt;stroke-linejoin:miter;stroke-opacity:1"
       d="m 191.37794,203.70982 c -7.84014,2.33956 -3.8013,12.53563 -4.67563,18.55348 1.23728,7.48105 7.41696,12.96225 8.64653,20.50809 3.59047,13.31543 0.0524,27.08542 -2.42348,40.25917 2.51551,2.97565 9.18927,-2.95727 13.85418,-1.61147 13.39328,-0.9545 26.8274,-0.10289 40.23561,-0.45389 7.86102,0.64323 16.42166,0.69415 22.99841,5.72696 3.76124,2.95689 12.42671,11.51312 11.62527,0.94055 -2.79585,-14.2811 0.56768,-28.82021 -0.81898,-43.215 -0.43861,-9.42388 -4.26195,-18.1803 -6.44081,-27.20425 -2.28522,-6.97648 3.17524,-17.60789 -3.98586,-22.05821 -6.33175,-2.41221 -12.88476,-0.67079 -18.27877,3.02535 -12.77441,5.59308 -27.34394,6.50707 -41.00693,4.24322 -6.5451,-0.38334 -13.55182,0.45035 -19.72954,1.286 z" />
    <path
       id="path28"
       style="fill:#85657a;fill-opacity:1;stroke:#85657a;stroke-width:0.264583px;stroke-linecap:butt;stroke-linejoin:miter;stroke-opacity:1"
       d="m 191.16879,212.46949 c 1.63255,-1.3057 4.38621,-3.33649 5.81131,-0.53921 1.5792,2.85513 1.70981,6.24726 2.90549,9.26851 0.63216,2.75876 2.04632,5.43712 1.32053,8.33776 -0.16181,2.52882 -0.74499,5.26912 0.55266,7.61652 -0.13858,1.8313 1.8926,4.1903 0.1066,5.59474 -2.35614,0.27942 -4.4474,-1.58021 -6.10212,-3.07448 -2.23384,-2.16469 -5.40352,-2.79164 -8.16053,-4.04378 -1.01832,-2.05444 0.7628,-4.27488 0.51326,-6.45891 0.64027,-4.26567 1.00838,-8.60422 0.53246,-12.90499 -0.17172,-1.8024 2.08418,-2.79787 2.52034,-3.79616 z" />
    <path
       id="path39"
       style="fill:#907689;fill-opacity:1;stroke:#907689;stroke-width:0.264583px;stroke-linecap:butt;stroke-linejoin:miter;stroke-opacity:1"
       d="m 189.25155,233.56697 c -1.86863,0.0998 -2.57359,2.28508 -2.07244,3.84515 0.27435,2.7989 -0.14897,5.61071 0.1036,8.40496 -0.014,1.51147 0.13325,3.70483 2.00761,4.01472 2.2899,0.69526 4.58694,1.66519 7.03089,1.45836 1.54838,0.82456 2.9816,0.0953 3.49335,-1.53754 1.07714,-1.84173 3.35878,-3.30708 3.00854,-5.7021 -0.54047,-2.14727 -2.62023,-3.2646 -3.77739,-5.01835 -2.00774,-2.2385 -4.54824,-4.07418 -7.48294,-4.85768 -0.75213,-0.2527 -1.47909,-0.749 -2.31122,-0.60752 z" />
    <path
       id="path50"
       style="fill:#85657a;fill-opacity:1;stroke:#85657a;stroke-width:0.264583px;stroke-linecap:butt;stroke-linejoin:miter;stroke-opacity:1"
       d="m 263.67525,218.84666 c 0.026,-4.08049 2.74912,-7.45036 4.26484,-11.07994 2.04167,-3.03608 3.95664,-6.76678 7.55484,-8.14296 5.12222,-0.75927 5.8275,6.04828 7.27111,9.54257 1.41414,4.6326 3.19273,9.31862 3.01916,14.25517 0.0359,5.10671 2.57785,9.69625 3.45834,14.66135 0.97406,3.52763 2.74195,6.75638 4.09792,10.10109 0.62957,3.75585 -1.27358,7.4022 -0.56553,11.18816 0.59868,3.09385 1.27733,8.92427 -3.6873,7.27379 -1.9772,-2.28756 -2.53434,-5.88511 -5.72327,-7.40744 -3.06996,-1.79308 -4.91638,-4.93758 -6.77468,-7.86493 -2.64116,-4.7187 -3.36663,-10.31608 -6.68409,-14.67175 -2.0482,-2.87361 -3.30159,-6.14334 -3.86292,-9.61015 -0.70686,-2.7719 -1.72343,-5.4759 -2.36842,-8.24496 z" />
    <path
       id="path60"
       style="fill:#907689;fill-opacity:1;stroke:#907689;stroke-width:0.264583px;stroke-linecap:butt;stroke-linejoin:miter;stroke-opacity:1"
       d="m 281.69728,249.24585 c 1.45935,-1.37209 3.86235,-0.98608 5.45704,-0.0742 1.90234,1.8154 2.54879,4.5353 4.38932,6.42227 1.35125,1.7178 1.41896,4.10336 1.87045,6.18368 0.19917,3.68459 1.00427,7.90669 -1.43964,11.05892 -0.94161,1.59825 -4.6783,3.43921 -4.28818,0.1692 -0.10956,-5.91503 -2.37022,-11.52238 -4.59434,-16.91518 -1.11395,-1.95554 -2.9619,-4.29815 -1.49367,-6.56428 z" />
    <path
       id="path67"
       style="fill:#907689;fill-opacity:1;stroke:#907689;stroke-width:0.264583px;stroke-linecap:butt;stroke-linejoin:miter;stroke-opacity:1"
       d="m 198.59373,206.45484 c -6.04063,0.79578 -7.96719,8.81052 -4.4028,13.20953 2.0996,4.97396 4.60962,9.70615 7.67213,14.13585 3.36134,6.85649 3.01708,14.83352 3.22631,22.28136 -0.96523,7.30408 -3.35428,15.24901 -0.28443,22.36472 4.88437,6.59836 13.94223,7.08675 21.40052,8.49426 8.52084,1.27369 17.14407,1.78327 25.70352,2.30254 7.73124,-0.73239 18.55363,-0.24167 21.16244,-9.56485 0.9412,-5.51366 -2.89982,-10.73157 -1.66361,-16.46259 7.9e-4,-8.06079 -0.22033,-16.13177 -0.61307,-24.18056 -2.68498,-6.52952 -2.92556,-13.87747 -2.58412,-20.81595 1.44277,-6.01032 3.23177,-12.39373 9.50653,-14.85004 3.72946,-5.54569 -7.9153,-8.29919 -12.111,-7.32361 -9.561,3.77078 -17.97701,10.65897 -28.43684,12.04942 -10.2284,2.90437 -19.85485,-3.49461 -30.09986,-2.7972 -2.85131,-0.0915 -5.84477,-0.11142 -8.47572,1.15712 z" />
    <path
       id="path79"
       style="fill:#edb601;fill-opacity:1;stroke:#edb601;stroke-width:0.264583px;stroke-linecap:butt;stroke-linejoin:miter;stroke-opacity:1"
       d="m 201.88789,275.04908 c 0.18356,5.40813 5.87542,8.73627 10.72068,9.40251 3.90261,0.67297 7.75101,2.29151 11.80212,1.64138 8.00554,0.15804 16.01961,-0.0553 23.99267,0.82593 4.64691,0.21507 9.39439,0.34771 13.94273,-0.66879 3.64603,-0.52466 7.11308,-2.4874 9.8941,-4.80807 3.1218,-3.39293 2.80103,5.20034 1.05531,6.34007 -3.08504,2.24018 -6.92994,3.12795 -10.48186,4.32807 -5.80718,1.21299 -11.71769,0.0643 -17.57988,0.17333 -8.95631,-0.64635 -17.92815,-1.47349 -26.91575,-1.30265 -5.31247,-0.0904 -9.05537,-4.04812 -13.18984,-6.76539 -2.75928,-1.94752 -5.62955,-5.86215 -3.24028,-9.16639 z" />
    <path
       id="path85"
       style="fill:#ebc113;fill-opacity:1;stroke:#ebc113;stroke-width:0.264583px;stroke-linecap:butt;stroke-linejoin:miter;stroke-opacity:1"
       d="m 200.38896,271.97465 c 1.11678,-0.066 2.25993,-0.25291 3.3448,0.13215 0.9973,0.0223 1.58572,0.63872 1.39323,1.65336 0.0921,1.60328 0.13317,3.21895 0.0849,4.81949 -0.42931,0.86753 -0.91556,1.74084 -0.9827,2.73479 -0.14052,1.61846 -0.38391,3.24653 -0.14103,4.86885 0.022,0.93631 0.34162,1.98638 -0.0904,2.85557 -0.63617,1.14455 -1.77864,0.24434 -2.15034,-0.61095 -1.48905,-2.18981 -2.49112,-4.73418 -2.62583,-7.39605 -0.0738,-0.87455 -0.19819,-1.76097 0.0327,-2.62807 0.17521,-1.59981 0.0515,-3.2598 0.68337,-4.77894 0.17218,-0.54361 0.34689,-1.08876 0.4513,-1.6502 z" />
    <path
       id="path91"
       style="fill:#ebc113;fill-opacity:1;stroke:#ebc113;stroke-width:0.264583px;stroke-linecap:butt;stroke-linejoin:miter;stroke-opacity:1"
       d="m 205.11234,282.97044 c -0.056,-0.99946 0.80825,-1.76113 1.37387,-2.47886 0.98129,-0.44441 2.0715,0.0827 3.04636,0.31642 1.5757,0.50387 3.08335,1.22633 4.72652,1.48946 2.47609,0.84274 5.10653,1.22743 7.71969,1.05958 1.18842,0.39715 0.73827,1.97202 1.02283,2.94795 0.41414,2.06247 0.56483,4.33357 -0.52282,6.228 -1.02695,0.19603 -2.07481,-0.0921 -3.11267,-0.0314 -2.7585,-0.1702 -5.53182,-0.51153 -8.28941,-0.13291 -1.98106,0.12588 -3.98855,0.0463 -5.93976,0.46922 -0.3675,-0.98888 0.48289,-1.88941 0.54457,-2.86824 0.30782,-1.77358 -0.39961,-3.50769 -0.36178,-5.27438 -0.0655,-0.57536 -0.18353,-1.14508 -0.2074,-1.72484 z" />
    <path
       id="path97"
       style="fill:#7e4d04;fill-opacity:1;stroke:#7e4d04;stroke-width:0.264583px;stroke-linecap:butt;stroke-linejoin:miter;stroke-opacity:1"
       d="m 224.65074,281.91948 c -0.10655,3.1569 0.40577,6.2971 0.31837,9.45379 1.52574,1.10774 3.61589,0.0602 5.36188,0.54037 3.2201,0.26057 6.44375,0.11526 9.66265,0.39943 2.94129,0.16871 5.9333,0.067 8.84232,-0.0358 0.87431,-1.59083 -0.11317,-3.70918 0.34373,-5.5003 0.29331,-1.84864 0.6871,-5.1278 -2.21162,-3.83339 -2.21107,0.59981 -4.55993,0.38752 -6.83625,0.398 -5.14068,-0.57361 -10.58098,0.65826 -15.48108,-1.42208 z" />
    <path
       id="path104"
       style="fill:#ebc113;fill-opacity:1;stroke:#ebc113;stroke-width:0.264583px;stroke-linecap:butt;stroke-linejoin:miter;stroke-opacity:1"
       d="m 254.68166,284.1155 c -0.34229,1.44269 0.18495,2.92466 -0.0208,4.38777 -0.0244,1.02472 -0.26724,2.09791 -0.0251,3.09623 0.40487,1.09021 1.5356,1.61008 2.63807,1.35125 1.96384,-0.10603 3.86936,-0.75611 5.85012,-0.62622 1.71589,-0.0756 3.38734,-0.56575 5.11354,-0.57427 1.43653,-0.0526 2.88926,-0.0499 4.29743,0.25601 -0.30056,-2.56126 -0.31879,-5.14551 -0.42914,-7.71733 -0.28556,-1.33549 -0.41756,-2.70354 -0.62387,-4.04094 -0.38254,-1.20867 -1.66616,-0.74475 -2.55072,-0.5312 -2.93977,0.58489 -5.82249,1.41621 -8.73396,2.11532 -1.59522,0.28136 -3.22179,0.50462 -4.71905,1.15023 -0.61919,0.09 -1.60833,0.42943 -0.79657,1.13315 z" />
    <path
       id="path114"
       style="fill:#ebc113;fill-opacity:1;stroke:#ebc113;stroke-width:0.264583px;stroke-linecap:butt;stroke-linejoin:miter;stroke-opacity:1"
       d="m 271.83223,273.43344 c -0.64607,1.89943 0.25677,3.84048 0.26256,5.76225 0.47513,2.78867 1.01398,5.57793 1.02538,8.41868 0.0873,1.42888 0.1852,3.02428 1.1354,4.16812 1.36746,1.12855 2.90699,-0.45284 2.17275,-1.90819 -0.29047,-2.01149 -0.60164,-4.03553 -0.37787,-6.07266 0.16614,-2.14653 0.24927,-4.30193 0.0471,-6.44801 -0.0532,-1.27423 0.35188,-3.03111 -0.9724,-3.80139 -1.03823,-0.65876 -2.20703,-0.66 -3.29292,-0.1188 z" />
    <path
       id="path143"
       style="fill:#edb601;fill-opacity:1;stroke:#edb601;stroke-width:0.264583px;stroke-linecap:butt;stroke-linejoin:miter;stroke-opacity:1"
       d="m 229.96672,234.4384 c -2.76808,0.54874 -5.46526,1.67898 -7.98313,2.88423 -2.98301,2.62757 -4.53963,7.0906 -3.47966,10.97201 1.07235,3.48738 5.01135,4.12444 7.65189,5.96365 3.13083,1.71799 6.79519,0.754 10.08106,0.10462 2.50729,-1.1193 5.03883,-2.45172 7.14341,-4.2144 1.80819,-3.50215 2.55957,-8.11318 0.25753,-11.58115 -2.35041,-2.43628 -5.68458,-3.84461 -8.98738,-4.42514 -1.54945,-0.19594 -3.21927,-0.38382 -4.68372,0.29618 z" />
    <path
       id="path150"
       style="fill:#31203a;fill-opacity:1;stroke:#31203a;stroke-width:0.264583px;stroke-linecap:butt;stroke-linejoin:miter;stroke-opacity:1"
       d="m 222.66378,243.88129 c 0.0907,-1.08494 1.15567,-2.4702 1.62939,-2.97992 0.59663,1.71312 2.79833,2.41002 4.16859,1.08421 0.75878,-0.29956 1.20547,-2.3526 1.09267,-2.13266 0.43989,1.61439 2.55731,0.18206 2.57514,-1.0167 0.34279,1.86638 2.51532,3.75763 4.47192,2.8466 1.20004,-0.29789 1.72825,-1.99256 2.16007,-2.55806 0.60252,1.72098 1.69738,3.23639 2.21104,5.01604 0.28756,0.61413 0.81299,2.8385 0.22452,2.64701 -0.41532,-1.19347 -1.70777,-3.14884 -3.1237,-2.06692 -0.97522,0.41448 -0.54716,3.19798 -1.71513,1.52921 -1.45791,-1.39709 -2.88314,1.21866 -3.24289,2.45287 -0.20405,0.908 -0.22491,1.41553 -0.63938,0.29842 -0.65445,-1.30912 -2.47782,-2.45053 -3.74498,-1.22444 -0.69001,0.78744 -0.52402,0.92702 -0.72437,-0.11517 -0.55794,-1.00529 -1.74388,-2.04822 -2.95456,-1.44622 -0.90081,0.0899 -1.70389,1.6179 -1.947,1.71804 0.0642,-1.30659 0.67059,-3.02477 -0.44133,-4.05231 z" />
    <path
       id="path161"
       style="fill:#372840;fill-opacity:1;stroke:#372840;stroke-width:0.264583px;stroke-linecap:butt;stroke-linejoin:miter;stroke-opacity:1"
       d="m 185.10335,251.34776 c 0.75948,-2.74985 -1.4149,-7.14558 1.09194,-8.73798 2.92892,-0.80575 6.10742,-0.40671 8.73027,1.15145 3.03277,1.10811 5.12483,3.69808 7.77974,5.42719 1.69998,2.07431 0.94533,5.01014 1.2887,7.48138 -0.14524,4.46661 -1.39198,8.82151 -2.37671,13.14331 -1.28223,3.89723 -2.39131,7.9154 -2.79858,12.00015 -0.41267,3.37726 1.36336,7.61888 -1.26538,10.36514 -1.93328,2.02191 -4.64911,0.79692 -7.00095,0.65768 -2.91329,-0.29542 -6.12812,-0.34756 -8.5982,-2.11427 -1.24562,-2.52805 -2.24545,-5.51533 -1.67377,-8.33563 1.00435,-2.96659 4.47332,-5.60114 2.9085,-8.99715 -1.02441,-2.80822 2.81121,-5.15 1.02215,-7.73615 -0.28952,-2.33117 2.79773,-4.23892 0.5758,-6.50034 -0.53243,-2.57873 -0.0562,-5.23915 0.31649,-7.80478 z" />
    <path
       id="path168"
       style="fill:#372840;fill-opacity:1;stroke:#372840;stroke-width:0.264583px;stroke-linecap:butt;stroke-linejoin:miter;stroke-opacity:1"
       d="m 247.27415,244.33617 c -1.66687,1.43201 -2.6859,3.81738 -2.10308,5.97698 -0.30322,3.24936 4.41378,0.96074 4.04449,4.14611 0.35958,2.51848 3.9318,0.72816 4.40466,2.97539 0.99975,2.65934 4.30974,1.70762 6.45428,2.26002 2.01105,0.75972 3.39205,2.45307 5.30034,3.40798 2.75563,2.30837 5.45116,4.72686 7.79369,7.45096 1.55675,1.63269 3.7339,2.72251 4.94623,4.63509 0.25849,0.92485 1.60593,2.13425 1.24034,0.34175 -0.1453,-1.56191 -0.4075,-3.08086 1.42858,-1.73182 2.21566,0.86065 4.18093,2.28483 5.59497,4.20771 0.9772,0.42734 1.97291,2.78222 1.54665,0.39186 -0.26007,-2.10324 -0.78052,-4.52459 0.73395,-6.30512 0.93494,-1.74603 1.83629,-3.54699 2.08597,-5.56238 0.39953,-3.74148 -0.63802,-7.60596 -2.5032,-10.84163 -1.33691,-2.27289 -3.64007,-3.68292 -5.75572,-5.12114 -2.35226,-0.87762 -4.92639,-0.25409 -7.3086,-1.04899 -2.75947,-0.47759 -5.27416,-1.98561 -7.02675,-4.15739 -1.08806,-2.45887 -4.71468,-1.54459 -5.56756,-4.29116 -1.06708,-1.82132 -1.99774,-4.08523 -4.24942,-4.68604 -1.82993,-0.5725 -4.06249,-4.07367 -5.43866,-0.98382 -0.39791,2.15131 -2.59022,2.59581 -4.19969,2.72951 -0.77484,1.64453 -1.869,3.80455 -1.49355,5.53392 7e-5,0.10284 0.29775,0.63458 0.0721,0.67221 z" />
    <path
       id="path178"
       style="fill:#31203a;fill-opacity:1;stroke:#31203a;stroke-width:0.264583px;stroke-linecap:butt;stroke-linejoin:miter;stroke-opacity:1"
       d="m 267.35285,260.25731 c 2.30266,3.45495 4.53612,6.97807 7.32432,10.07153 1.76232,2.35449 2.98597,5.04426 4.08085,7.75492 0.75825,1.18419 0.78563,-1.75308 1.00768,-2.41798 -0.13868,-1.17938 0.66199,-2.4653 1.66225,-1.05336 2.0152,1.71598 4.26975,3.17479 5.9332,5.26541 0.86742,1.43552 1.66504,0.78709 1.438,-0.66372 -0.21662,-2.26833 -0.57836,-4.52242 -0.75549,-6.79589 1.63555,-0.88754 -1.62366,-2.10202 -2.46424,-2.38356 -3.35759,-1.27101 -7.2979,-1.57887 -9.94537,-4.24805 -2.32175,-1.7679 -4.02362,-4.20454 -6.3942,-5.91126 -0.913,-0.66765 -2.9584,-2.43635 -3.34862,-2.39727 0.64738,0.80554 0.25323,2.49173 1.46162,2.77923 z" />
    <path
       id="path184"
       style="fill:#ba6041;fill-opacity:1;stroke:#ba6041;stroke-width:0.264583px;stroke-linecap:butt;stroke-linejoin:miter;stroke-opacity:1"
       d="m 220.55269,185.55537 c 0.70519,1.7437 0.13836,3.77313 1.19404,5.42548 0.41771,1.67703 1.42948,3.09131 2.65551,4.27893 1.14596,1.42563 2.53226,2.65112 4.32122,3.19056 2.0827,1.12387 4.48999,1.29503 6.81115,1.31259 1.86141,0.13999 3.17885,-1.19315 4.42416,-2.34927 2.14186,-1.60651 3.58586,-3.96408 4.77902,-6.31785 0.62996,-1.96555 0.48351,-4.09142 0.41547,-6.13171 -0.93121,-1.23033 -2.45585,1.15733 -3.47344,1.57057 -1.94425,1.54026 -4.09886,2.96552 -6.59614,3.36538 -2.48554,0.72746 -5.18006,0.22421 -7.4637,-0.89571 -1.39332,-1.06943 -3.28856,-1.40969 -4.38713,-2.87147 -0.63032,-0.58732 -1.98593,-1.53629 -2.68016,-0.5775 z" />
    <path
       id="path198"
       style="fill:#31203a;fill-opacity:1;stroke:#31203a;stroke-width:0.264583px;stroke-linecap:butt;stroke-linejoin:miter;stroke-opacity:1"
       d="m 216.89233,171.9571 c -0.0762,2.17855 1.10795,4.17773 0.99102,6.37075 0.11649,2.30226 0.50085,4.61829 1.33784,6.76697 0.85651,1.69359 1.9113,3.28691 2.59919,5.0614 1.5424,1.81666 3.63092,3.14378 5.56748,4.50657 1.96849,0.95712 3.78581,2.15414 5.88936,2.79074 1.99073,1.03568 4.04012,-0.28366 5.28245,-1.83734 2.48515,-1.96768 4.33332,-4.59337 6.61752,-6.78009 1.38242,-2.00354 2.45989,-4.30961 2.36809,-6.79566 0.27009,-2.90842 0.4481,-5.83681 0.55791,-8.7456 -0.0677,-1.72754 0.28516,-5.79564 2.87996,-4.37804 0.78515,1.6422 1.11142,3.53487 1.2274,5.34777 0.0994,1.75838 0.28684,3.51659 0.66804,5.23798 -0.70635,4.4475 -2.90017,8.4709 -4.12722,12.76572 0.90672,0.12824 3.21482,-1.18596 3.86604,0.47639 -0.96457,1.23497 -1.1791,2.55592 0.0384,3.77099 -0.80294,1.61652 -3.12083,2.65596 -4.51641,4.03623 -2.97158,1.80523 -6.55221,1.93575 -9.79634,2.97057 -1.82788,0.49494 -3.74105,0.67144 -5.50894,-0.11894 -2.26083,-0.43946 -4.83872,-0.50088 -6.51598,-2.32223 -1.67214,-1.12438 -3.76651,-1.23044 -5.57933,-2.04336 -1.6765,-0.25925 -2.53452,-1.61151 -2.242,-3.09863 -0.68256,-1.38443 -4.53664,-0.80764 -3.50268,-2.6405 1.50848,-1.33048 4.27587,-1.88411 4.38051,-4.30319 -0.0908,-2.32816 -2.22462,-3.88421 -2.92123,-6.03176 -1.42701,-3.29847 -1.62382,-6.96318 -1.92406,-10.48949 -0.18634,-1.40251 0.55203,-4.66458 2.33036,-2.67304 0.4153,0.54678 1.06852,1.86109 0.0326,2.15579 z" />
    <path
       id="path208"
       style="fill:#372840;fill-opacity:1;stroke:#372840;stroke-width:0.264583px;stroke-linecap:butt;stroke-linejoin:miter;stroke-opacity:1"
       d="m 250.10679,195.36032 c 3.25815,-1.93516 7.70125,-3.33478 11.28349,-2.2491 4.56046,0.0911 10.66189,-1.05366 13.31939,3.74039 0.30762,1.78462 -5.12381,-0.76248 -7.10866,1.14699 -4.99654,1.84853 -7.18431,7.11576 -10.97874,10.4749 -4.18663,4.78477 -9.625,8.99526 -16.05189,9.98631 -4.13891,0.9484 -8.5078,1.33202 -12.52136,-0.34072 -4.62104,-1.04557 -9.17432,-2.47969 -13.0928,-5.25005 -5.98592,-1.42021 0.23436,-6.8983 1.16095,-5.73657 -4.2243,0.58169 -7.0788,4.74376 -11.54445,4.59286 -5.90425,0.34005 -11.35322,2.83588 -16.69884,5.15965 -3.01122,-2.54107 -2.85308,-9.25663 0.26187,-12.17654 4.12415,-3.98085 8.35165,-8.49763 14.34681,-9.34466 4.10918,-0.8217 8.65992,-0.14999 12.16253,-2.89971 4.48798,-0.81619 6.12485,4.43049 9.25871,6.39875 4.82472,2.38729 10.58318,4.09528 15.77269,1.71122 3.44008,-1.78387 7.7106,-2.27737 10.4303,-5.21372 z" />
    <path
       id="path222"
       style="fill:#d38b73;fill-opacity:1;stroke:#d38b73;stroke-width:0.264583px;stroke-linecap:butt;stroke-linejoin:miter;stroke-opacity:1"
       d="m 219.44349,164.96325 c -2.01582,1.03956 -1.76936,3.67256 -2.48621,5.52112 -0.44295,2.74702 0.47982,5.45941 0.43171,8.20884 0.24389,1.71448 0.74166,3.38914 1.18047,5.06638 0.38368,1.44313 1.18672,2.71934 2.02678,3.91945 1.044,2.04077 3.14147,3.17616 4.83089,4.61379 1.56086,1.15936 3.42501,1.90186 5.36911,2.03117 2.20696,0.57094 4.569,0.39725 6.61484,-0.63401 1.9172,-0.96015 3.60905,-2.30142 5.44991,-3.39464 1.69665,-1.04826 2.97461,-2.62199 3.77541,-4.44025 1.03483,-1.92333 1.0395,-4.17003 1.48424,-6.2624 0.14363,-1.74573 -0.24364,-3.48882 -0.0285,-5.2295 -0.11454,-2.41491 -1.24963,-4.66556 -2.52127,-6.67245 -0.89274,-1.19924 -1.64784,-2.49871 -2.46977,-3.73384 -1.56521,-1.53813 -3.74078,-0.39416 -5.25745,0.58133 -1.73094,0.85918 -3.5541,1.55229 -5.42429,2.041 -2.91951,0.68572 -6.0314,0.14206 -8.64726,-1.27993 -1.40473,-1.04235 -2.92325,-0.08 -4.32856,-0.33606 z" />
    <path
       id="path228"
       style="fill:#31203a;fill-opacity:1;stroke:#31203a;stroke-width:0.264583px;stroke-linecap:butt;stroke-linejoin:miter;stroke-opacity:1"
       d="m 230.782,142.34753 c 2.234,-0.6931 4.6275,-0.41888 6.88721,-0.0472 2.13866,0.92522 4.63641,1.39287 6.16138,3.32998 1.0058,0.8486 2.29727,2.14816 2.98177,2.89776 0.48088,-1.45175 0.26442,-3.02768 0.61103,-4.51067 0.16324,-0.84497 0.39735,1.65385 0.38053,2.00439 0.21487,2.38308 0.8867,4.70363 0.88633,7.11764 0.34514,2.56691 1.30684,5.0014 1.46684,7.59926 0.0682,1.95897 0.83482,3.76557 1.27149,5.6452 0.3164,3.08336 0.74803,6.16318 0.94657,9.25407 -0.63334,2.31159 -3.81394,0.51641 -4.61597,-0.9631 -1.68878,-1.22362 -3.95116,-1.21483 -5.96055,-1.16801 -2.95449,0.38936 -5.69242,1.93293 -8.72635,1.80383 -1.98652,0.25379 -4.08052,0.67032 -6.04694,0.11764 -1.58046,-0.8327 -2.99624,-2.12521 -4.92315,-1.96043 -1.91819,-0.12685 -3.90704,0.39929 -5.26242,1.82212 -2.26423,1.89873 -2.5011,-1.5727 -2.34957,-3.10531 -0.30248,-2.49364 0.65081,-4.91805 0.44916,-7.41532 0.176,-2.97095 -0.0882,-5.93056 -0.32309,-8.88694 -0.31171,-3.60635 -0.009,-7.22947 0.4724,-10.80321 0.35947,-1.35712 1.13613,1.811 1.59865,2.24874 0.41739,0.75859 0.76557,3.96963 1.59322,1.79993 0.94157,-1.45874 2.22543,-2.66271 3.64185,-3.62673 1.60419,-1.55414 3.66751,-2.88283 5.90726,-3.18135 0.93485,0.0582 2.19977,-0.74627 2.95235,0.0277 z" />
    <path
       id="path238"
       style="fill:#d38b73;fill-opacity:1;stroke:#d38b73;stroke-width:0.264583px;stroke-linecap:butt;stroke-linejoin:miter;stroke-opacity:1"
       d="m 218.50683,168.55691 c 0.1182,-0.53199 0.57213,-0.9381 1.11104,-1.00614 1.734,-0.54391 3.65347,-0.76796 5.39297,-0.12269 0.98791,0.31696 1.56614,1.25496 2.42547,1.78195 0.3465,0.28103 0.65036,0.86373 0.40427,1.2794 -0.43215,0.40613 -1.05118,0.0658 -1.49145,-0.14336 -0.64038,-0.40923 -1.40426,-0.29446 -2.11823,-0.24775 -1.244,-0.006 -2.49555,-0.31159 -3.60687,-0.87246 -0.61097,-0.44566 -1.38694,-0.55794 -2.1172,-0.66895 z" />
    <path
       id="path244"
       style="fill:#d38b73;fill-opacity:1;stroke:#d38b73;stroke-width:0.264583px;stroke-linecap:butt;stroke-linejoin:miter;stroke-opacity:1"
       d="m 235.62553,169.35551 c -0.0527,-0.84973 0.71613,-1.39308 1.14347,-2.02978 0.52727,-0.78999 1.47606,-1.07955 2.33874,-1.33682 0.89461,-0.21693 1.8282,-0.40614 2.75137,-0.31085 0.6241,0.14503 1.15722,0.54201 1.69953,0.86661 0.96329,0.51854 1.17601,1.95211 0.49796,2.77809 -0.56194,0.55912 -1.42447,0.37159 -2.13685,0.37563 -0.94744,-0.0771 -1.89771,-0.0851 -2.84639,-0.12607 -0.56574,-0.0288 -1.11217,-0.18577 -1.6619,-0.30086 -0.54705,-0.0899 -0.98273,0.52142 -1.52666,0.28609 -0.10791,-0.0396 -0.17306,-0.13537 -0.25927,-0.20204 z" />
    <path
       id="path250"
       style="fill:#852821;fill-opacity:1;stroke:#852821;stroke-width:0.264583px;stroke-linecap:butt;stroke-linejoin:miter;stroke-opacity:1"
       d="m 237.28679,166.64046 c 0.47904,-0.26635 0.91286,-0.68313 1.49449,-0.68881 1.2652,-0.19157 2.59156,-0.56527 3.84961,-0.13364 0.53048,0.19133 1.00325,0.51804 1.43846,0.86853 0.31909,0.31554 0.24921,0.80297 0.27607,1.21208 -0.0213,0.36151 -0.0403,0.77666 -0.28706,1.06007 -0.4029,0.25281 -0.68587,-0.24774 -0.90767,-0.50737 -0.41176,-0.50671 -0.74377,-1.15711 -1.4015,-1.37895 -1.03134,-0.45258 -2.20255,-0.50382 -3.29183,-0.25183 -0.40664,0.086 -0.8014,-0.002 -1.17057,-0.18008 z" />
    <path
       id="path264"
       style="fill:#852821;fill-opacity:1;stroke:#852821;stroke-width:0.264583px;stroke-linecap:butt;stroke-linejoin:miter;stroke-opacity:1"
       d="m 219.07556,167.35108 c -0.79972,-0.003 -1.26072,1.34877 -0.37915,1.60851 0.8845,0.18976 1.66688,-0.4188 2.41956,-0.78807 1.03121,-0.60519 2.32564,-0.82956 3.45481,-0.36016 0.51705,0.0939 1.42745,0.29059 1.68831,0.35601 -0.46319,-0.56746 -0.93083,-1.20955 -1.67727,-1.40999 -1.05867,-0.31626 -2.18505,-0.20691 -3.27361,-0.17831 -0.68407,0.088 -1.44593,0.0522 -2.04256,0.43814 -0.0971,0.0875 -0.16072,0.20765 -0.19009,0.33387 z" />
    <path
       id="path271"
       style="fill:#cfd8eb;fill-opacity:1;stroke:#cfd8eb;stroke-width:0.264583px;stroke-linecap:butt;stroke-linejoin:miter;stroke-opacity:1"
       d="m 220.60199,159.41746 c 0.0277,0.20889 -0.67463,0.75706 0.0136,0.71768 0.79891,0.0734 1.68836,-0.19422 2.38474,0.32941 1.14027,0.70877 1.85902,1.88287 2.80436,2.80575 0.42848,0.74036 1.00175,1.36059 1.52763,2.01528 0.16729,0.48619 0.83388,0.67613 0.58731,-0.008 -0.15291,-1.00457 -1.04258,-1.62378 -1.56982,-2.43013 -0.47518,-0.62602 -0.45987,-1.4931 -0.98161,-2.10175 -0.48796,-0.80068 -1.27737,-1.47101 -2.24545,-1.53605 -0.84243,-0.11945 -1.70511,-0.0209 -2.52073,0.20796 z" />
    <path
       id="path278"
       style="fill:#cfd8eb;fill-opacity:1;stroke:#cfd8eb;stroke-width:0.264583px;stroke-linecap:butt;stroke-linejoin:miter;stroke-opacity:1"
       d="m 234.54097,162.7893 c -0.52847,0.56489 -1.60098,1.04749 -1.33401,1.98306 0.45691,0.83718 1.22937,0.0924 1.43303,-0.51284 0.43294,-0.76708 0.88801,-1.52611 1.46875,-2.18977 0.43619,-0.80001 0.9552,-1.57249 1.72217,-2.09347 0.66127,-0.63908 1.58338,-0.75806 2.46337,-0.72231 0.73456,0.31552 1.14356,-0.80026 0.28061,-0.83769 -0.88128,0.0542 -1.73061,0.35451 -2.56832,0.60537 -0.68106,0.42402 -1.10938,1.14432 -1.78177,1.58833 -0.70452,0.59195 -1.41992,1.26723 -1.68383,2.17932 z" />
    <path
       id="path285"
       style="fill:#cfd8eb;fill-opacity:1;stroke:#cfd8eb;stroke-width:0.264583px;stroke-linecap:butt;stroke-linejoin:miter;stroke-opacity:1"
       d="m 227.72554,175.34496 c 0.0913,-1.27332 0.76927,-2.47457 0.5779,-3.77252 0.006,-0.91486 1.07618,-0.82226 1.70225,-0.97307 1.48082,-0.28509 3.00045,-0.54406 4.50987,-0.36807 0.77716,0.30598 0.526,1.29487 0.56096,1.95143 -0.0137,0.89547 -0.0922,1.78858 -0.10408,2.68411 0.57943,0.83972 0.93568,-0.47413 0.8707,-0.99112 0.10633,-1.28596 -0.0324,-2.57972 -0.1277,-3.8602 -0.15071,-0.79312 -1.04994,-0.70833 -1.65314,-0.60983 -1.15398,0.13099 -2.31796,-0.0768 -3.47304,0.085 -1.04697,0.12949 -2.27716,0.23007 -2.96851,1.13346 -0.50012,1.13859 -0.70313,2.45333 -0.43158,3.67426 0.1097,0.37843 0.28424,0.74223 0.53637,1.04652 z" />
    <path
       id="path292"
       style="fill:#852821;fill-opacity:1;stroke:#852821;stroke-width:0.264583px;stroke-linecap:butt;stroke-linejoin:miter;stroke-opacity:1"
       d="m 226.50542,183.29761 c 1.1861,-1.13903 2.80496,-1.66378 4.34091,-2.14385 1.21791,-0.29683 2.60327,-0.65173 3.78103,-0.032 1.03016,0.52091 2.05187,1.28661 3.26634,1.19584 0.80242,-0.22787 1.31388,0.46889 0.88715,1.18317 -0.17636,0.75159 -0.73256,1.30588 -1.36574,1.70648 -1.30223,1.04867 -2.99031,1.61408 -4.66392,1.45198 -1.01691,-0.0559 -2.1525,0.003 -2.96824,-0.71927 -0.76145,-0.62937 -1.48857,-1.29949 -2.3073,-1.85712 -0.33066,-0.25256 -0.65682,-0.51138 -0.97023,-0.78519 z" />
    <path
       id="path298"
       style="fill:#e6e6e6;stroke:#e6e6e6;stroke-width:0.264583px;stroke-linecap:butt;stroke-linejoin:miter;stroke-opacity:1"
       d="m 228.83474,182.83177 c 1.75855,-0.0597 3.5268,-0.001 5.2729,-0.2588 1.00197,-0.12134 2.02338,0.31989 3.00526,4.3e-4 0.44757,-0.30591 -0.28057,-0.74074 -0.62269,-0.61683 -0.64487,-0.1276 -1.16128,-0.75822 -1.86472,-0.5993 -1.15374,0.36256 -2.40127,0.0846 -3.55365,0.46668 -0.68621,0.22716 -1.4161,0.287 -2.0966,0.52694 -0.27795,0.0616 -0.18017,0.27422 -0.1405,0.48088 z" />
    <path
       id="path304"
       style="fill:#b64942;fill-opacity:1;stroke:#b64942;stroke-width:0.264583px;stroke-linecap:butt;stroke-linejoin:miter;stroke-opacity:1"
       d="m 226.8998,183.53054 c 0.87292,0.79706 1.87435,1.47245 2.58466,2.43244 1.0176,0.68558 2.3005,0.77362 3.48205,0.94976 1.04482,0.15071 2.11191,-0.0926 2.97752,-0.69655 0.86697,-0.46153 1.75397,-1.01652 2.2043,-1.92628 0.73256,-0.52324 0.34072,-1.45394 -0.45892,-0.76858 -0.78387,0.49133 -1.68128,0.73414 -2.47045,1.2258 -1.10591,0.49432 -2.3619,0.22616 -3.52462,0.13558 -1.4074,-0.15225 -2.72122,-0.68802 -4.03531,-1.1747 -0.24888,-0.0754 -0.50215,-0.13764 -0.75923,-0.17747 z" />
    <path
       id="path315"
       style="fill:#000000;stroke:#000000;stroke-width:0.264583px;stroke-linecap:butt;stroke-linejoin:miter;stroke-opacity:1"
       d="m 134.17492,178.36822 c 6.64734,-9.40872 17.97467,-13.6768 25.09453,-22.49885 -6.27106,8.70282 -14.5186,17.79262 -15.59936,28.72104 12.0039,-1.36299 24.18095,-0.18005 36.03809,1.50907 -9.79741,4.08177 -20.19534,8.64854 -27.44691,16.25783 8.97335,3.88269 18.79785,6.21526 28.50003,8.20748 9.59304,0.3123 -7.43441,2.4435 -11.13316,3.66554 -6.45209,2.97045 -21.83439,3.37836 -18.87053,12.89115 5.17753,6.29371 13.01009,9.90481 18.03751,16.27282 -8.73232,-3.08337 -20.0139,-8.62129 -29.47514,-3.36322 -5.42259,5.66654 -1.78272,18.62563 -0.0945,22.24651 -7.01795,-6.97377 -16.85927,-10.29018 -24.97544,-15.74052 -9.97055,-1.13108 -19.283875,6.45641 -24.643702,14.25652 -2.863234,-0.0329 -2.762029,-17.98703 -11.477851,-17.76261 -8.808207,2.58956 -15.572782,9.71363 -23.238509,14.54272 -7.445897,2.61807 2.197324,-10.80616 2.728579,-14.99664 0.794842,-4.89337 8.777552,-19.02103 1.267635,-9.85622 -8.151321,2.45157 -16.549754,-3.03956 -24.913437,-0.33521 -5.412634,0.79093 -16.162746,2.93954 -5.903493,-2.17482 9.741533,-6.23261 17.372762,-15.22894 27.822545,-20.37218 -7.063811,-3.43586 -19.382267,-11.73312 -29.373193,-15.66363 8.302949,-1.66322 16.874598,-2.78174 25.124484,-0.22657 7.09016,-0.46666 18.633342,9.61398 15.064515,-3.18797 -0.100492,-8.46406 -3.992994,-22.21924 -6.686256,-25.5878 12.617281,3.81968 24.766241,9.03165 37.601231,12.05498 10.612052,0.90897 21.201782,3.91499 31.881142,3.00289 1.68706,-0.30965 3.41304,-0.61104 4.67124,-1.86231 z" />
    <path
       id="path322"
       style="fill:#5bc4eb;fill-opacity:1;stroke:#5bc4eb;stroke-width:0.264583px;stroke-linecap:butt;stroke-linejoin:miter;stroke-opacity:1"
       d="m 89.486375,167.01045 c 6.68538,-5.54 8.641986,-14.54407 11.053915,-22.3603 4.72033,6.90229 8.53051,21.62758 19.56151,18.71251 4.5312,-2.97514 8.62536,-10.81734 6.47566,-0.7042 6.03342,8.27641 15.82939,-3.02295 22.39571,-6.02298 4.67795,-3.10206 14.0643,-10.70645 7.45565,-0.2103 -2.92467,6.80245 -13.47548,21.01649 -0.429,22.59317 6.74242,-0.008 19.88439,1.74433 22.61565,2.30497 -6.63886,4.3375 -16.95723,5.86638 -20.17655,13.61726 4.5944,8.62802 16.82956,8.71664 25.06723,12.10082 -9.23281,4.50128 -21.65472,1.38042 -28.94159,9.67687 -2.85849,8.75868 12.57022,17.0399 13.64212,20.54705 -8.62036,-2.42026 -18.1331,-6.30321 -27.1042,-3.97584 -9.06164,5.13242 3.68496,19.93694 1.47559,24.24958 -8.3661,-6.42846 -16.48814,-14.12677 -26.6795,-17.50588 -10.73977,-1.84925 -18.622725,8.73467 -25.430485,15.33699 -0.287397,-3.61813 -3.630027,-20.23522 -14.677268,-16.18564 -8.652518,0.35418 -19.147772,10.6009 -23.101714,11.73662 3.653913,-6.93568 7.525721,-18.50276 -1.196526,-23.31586 -8.268324,-3.37067 -17.639627,-4.33358 -26.093199,-1.25918 6.678337,-7.19642 17.36049,-10.59222 23.772253,-18.00819 0.897857,-10.48698 -12.373121,-14.23858 -20.563494,-15.71714 -11.513444,-0.10489 8.066301,-2.50575 11.897777,-4.58571 7.736574,-3.55257 20.017277,-3.15862 22.550983,-13.16725 5.99053,-6.68212 -8.783933,-18.82223 3.863032,-13.4172 7.870489,0.58533 15.018869,3.5967 22.566446,5.55983 z" />
    <path
       id="path328"
       style="fill:#e30910;fill-opacity:1;stroke:#e30910;stroke-width:0.264583px;stroke-linecap:butt;stroke-linejoin:miter;stroke-opacity:1"
       d="m 93.849238,172.75589 c 3.937953,-4.83815 5.587247,-11.72617 8.087922,-16.81174 3.33211,5.5869 7.1724,16.54976 15.50721,14.37798 2.42813,-2.07319 4.50509,-7.19691 4.58455,-0.58914 2.15255,8.51442 13.59065,4.33677 17.96121,-0.36072 3.24649,-2.17337 10.17058,-10.55304 5.60257,-2.18048 -4.65224,5.94062 -3.13477,15.39892 5.32267,16.67238 3.83055,2.52696 16.15075,-1.1481 14.34544,0.0894 -4.39321,5.17768 -18.91967,7.5518 -15.96131,15.31813 7.46541,1.49885 15.75517,1.33279 22.2094,6.04585 -5.11761,2.24527 -12.46503,2.04241 -18.14039,4.47761 -9.77486,0.3511 -9.16683,11.06977 -2.07521,15.46017 2.02953,2.44813 7.31816,7.53967 1.19983,4.34825 -6.41787,-1.5324 -17.50832,-4.04065 -20.49338,3.84575 -2.25269,3.46285 5.06811,15.45945 1.68323,13.14714 -5.70331,-4.60948 -12.66673,-7.46784 -18.93381,-11.14167 -7.85954,-1.90214 -16.311923,2.96175 -20.64887,9.28608 -3.078037,2.47449 -2.43757,-10.92129 -9.048517,-10.83292 -8.235171,-1.95028 -14.702364,4.51877 -20.901296,8.69361 0.07515,-5.5336 3.235451,-15.49066 -4.447978,-18.45235 -4.080178,-3.52326 -19.480389,-0.56741 -9.418302,-6.41329 6.723187,-3.36532 9.640202,-12.49607 1.786113,-16.45771 -3.324479,-2.68223 -10.430295,-5.05002 -2.591327,-6.28578 7.755483,-3.08656 15.480645,-6.90787 21.786763,-12.39484 1.453478,-5.08802 -8.100092,-13.66229 -3.778474,-14.69705 8.543691,0.56588 16.866553,2.75298 24.994072,5.05397 z" />
    <path
       id="path334"
       style="fill:#000000;stroke:#000000;stroke-width:0.264583px;stroke-linecap:butt;stroke-linejoin:miter;stroke-opacity:1"
       d="m 38.044033,176.03899 c 4.520328,-1.32403 9.291392,-3.54966 14.040177,-3.35487 0.299718,2.12378 -2.570823,8.76014 -0.839757,8.44644 2.597705,-2.3918 4.125341,-8.68966 7.747717,-8.38158 2.86369,3.02249 11.395869,6.76291 5.581897,10.95638 -1.665356,5.0752 -7.818898,8.6229 -7.138076,14.22724 1.015007,2.44955 2.412107,10.73635 3.23234,10.26524 0.02695,-5.41761 1.592243,-10.76914 3.544971,-15.78022 2.027866,-4.79696 8.759109,-3.25643 13.027419,-4.35529 5.89126,1.11865 6.091473,-4.40987 5.146766,-8.54059 6.817555,-1.72357 14.059077,-6.20989 21.121253,-2.96088 4.46808,0.31019 2.59228,9.47828 7.1017,4.93561 2.94209,-2.47431 8.74258,6.59395 6.58161,0.17252 0.0104,-3.55995 -3.34238,-7.98991 2.23768,-8.30966 3.05112,-1.40694 8.43542,-2.99831 10.82921,-1.73066 0.29824,1.80185 0.25635,8.40081 1.12492,7.50349 0.34163,-4.68429 -0.74427,-11.91571 6.12884,-11.25268 5.56711,-3.27832 1.87528,6.77282 2.95199,9.52885 0.55852,7.15572 -0.1672,-6.17338 4.251,-4.55965 3.19159,-0.47226 8.21057,-2.80369 10.50685,-2.39962 0.27497,2.63536 -1.08976,7.45364 2.15592,3.26721 1.17463,2.7145 -0.2596,7.93648 -0.82326,11.43073 -2.21928,6.02159 -5.19975,11.82492 -6.29143,18.22002 -1.44232,6.37663 -2.31359,12.90047 -4.11243,19.18658 -1.15219,4.99919 -7.17232,3.55179 -10.86468,5.00206 -3.81919,2.60873 -2.60924,-4.79114 -6.40624,-1.18709 -3.87214,-0.75605 -9.05361,4.94469 -11.47263,1.44543 0.66114,-4.19463 -2.16196,3.96825 -4.22626,4.32912 -3.61838,5.69285 -14.666613,5.941 -16.599296,-1.36873 -1.994411,-4.75245 -2.386823,-9.89871 -2.725627,-14.9603 -0.495556,-2.22079 0.311273,-6.60775 -1.612932,-2.36439 -0.609151,5.31577 0.911511,11.07984 -1.281285,16.33263 -2.156537,2.44449 -7.190719,1.36863 -6.597695,5.6393 -4.406409,0.75057 -9.590255,3.29038 -13.722192,2.21185 0.900811,-3.13433 -1.164944,-4.77604 -2.412354,-1.6797 -3.763169,-0.17618 -8.961057,2.66875 -11.7237,2.09903 1.310828,-3.87502 -4.290083,-2.5936 -2.55408,-5.8729 -0.994748,2.60636 -3.610218,4.31227 -3.226179,0.10646 -3.46732,-1.13176 -3.921976,-7.20359 -4.251965,-10.2174 0.465611,4.09809 1.267634,8.96322 -4.316918,9.44349 -3.048245,0.70867 -10.919718,6.52865 -8.373193,-0.61572 -4.424171,0.0202 -1.018596,-8.81636 -1.513147,-12.2038 0.353727,-8.49061 2.526945,-16.74583 3.225505,-25.19969 1.346302,-5.75166 0.383415,-11.90925 2.547561,-17.45426 z" />
    <path
       id="path339"
       style="fill:#f7ed6a;fill-opacity:1;stroke:#f7ed6a;stroke-width:0.264583px;stroke-linecap:butt;stroke-linejoin:miter;stroke-opacity:1"
       d="m 39.103936,183.20414 c 1.06365,-3.00214 -0.09432,-7.63708 4.693482,-6.45429 2.206783,-0.12933 8.619012,-3.4091 5.198098,0.90987 -0.3437,1.98314 -4.189922,10.30568 0.474475,6.42113 3.44113,-2.34287 7.116149,-5.46021 9.126442,-8.43941 0.741032,2.95702 8.35034,4.7909 3.523273,7.21351 -2.638977,3.59983 -7.093055,5.63136 -9.323242,9.39291 1.30175,5.11054 1.016324,10.49223 2.573266,15.53935 1.367135,4.28339 1.449316,9.07125 3.861621,12.9646 2.580408,-3.10295 3.192429,-7.62459 4.082802,-11.55535 1.933295,-5.32637 2.597675,-11.06103 4.106893,-16.45401 4.294753,-1.23639 8.799664,-1.81472 13.238088,-2.62639 2.211446,-1.06749 -1.642348,4.42461 -0.546373,6.18018 0.555568,6.29689 -0.85905,12.52308 -0.479354,18.81765 1.192399,0.0995 1.465064,-7.36406 2.625122,-9.87485 1.554394,-5.34343 0.02853,-11.27424 2.346321,-16.51143 1.447924,-3.95276 0.239849,-9.85944 6.241075,-9.74409 4.404022,-0.94217 10.793045,-2.16546 13.666125,2.16286 0.58581,2.3663 -3.92241,10.28722 1.46977,6.80845 3.29533,-2.9938 8.17913,-5.31499 11.77811,-1.36188 1.13221,2.51319 2.41703,3.93581 2.03245,0.009 0.829,-4.19216 -2.40026,-11.95418 4.5368,-10.75948 2.34834,-0.14597 5.3878,-2.9557 3.35258,1.06141 -2.30515,6.06243 0.89297,12.46547 -0.60139,18.61087 -0.0459,2.77046 -0.8537,6.30129 -0.68041,8.64601 1.58491,-5.20868 3.10696,-10.51182 4.44336,-15.82799 1.18824,-5.27786 1.07663,-10.78821 3.01355,-15.90212 -0.301,-2.44559 6.40021,-3.1705 4.0058,0.34223 -1.01461,6.2907 -0.052,12.77898 -1.57331,19.03128 -0.1422,4.78298 -0.4984,9.5262 -1.73206,14.18166 -0.59203,1.53291 0.42459,7.69821 1.26287,2.85565 0.63458,-5.61733 3.03479,-10.65581 4.82944,-15.95755 1.69632,-6.18205 2.45257,-12.54214 3.06727,-18.90446 2.56306,0.24325 6.57993,-0.88903 8.84441,-1.08118 -1.63488,4.72774 -3.36376,9.39445 -4.40432,14.31564 -1.03472,5.27852 -1.59962,10.64286 -3.15985,15.81738 -0.93121,4.61724 -0.77053,9.47447 -2.96233,13.77825 0.67083,4.99401 -5.09551,2.6645 -7.95793,3.43608 -5.03191,3.12571 -0.26291,-4.35164 -1.29543,-6.7726 -0.0218,-4.81668 -0.0363,-9.66813 0.1417,-14.46026 -1.74232,4.37706 -3.27907,8.91467 -4.46261,13.50141 -1.76787,3.35321 -0.23179,9.72306 -6.02095,8.34006 -2.57488,-0.90235 -6.78039,2.59258 -4.16918,-1.7406 1.1408,-2.15946 0.29113,-7.8613 -1.57432,-2.82942 -2.03173,4.15935 -5.50194,7.45967 -8.62555,10.80751 -3.59395,3.58146 -11.142441,1.46417 -12.176804,-3.51005 -0.106851,-4.48907 -0.993015,-9.14021 0.231749,-13.57476 0.456658,-2.71523 1.67924,-6.97319 1.541471,-8.87021 -3.395597,3.27717 -8.903903,5.657 -9.598318,10.7211 -1.141664,4.41973 1.469414,12.82706 -3.651152,14.60245 -3.246681,-0.40115 -5.906356,1.00777 -4.899251,4.35125 -3.436091,0.14934 -6.885265,2.51581 -10.187984,1.88116 1.198431,-3.24933 0.847986,-9.55159 -3.537135,-6.31174 0.393242,3.25426 0.553904,7.62502 -4.131257,5.96625 -2.439845,-0.38048 -9.541502,1.66813 -5.477655,-2.6372 1.158894,-1.98722 4.673743,-8.66882 0.144666,-4.45341 -2.619454,0.76039 -7.918329,6.43185 -7.308408,0.38476 -0.272877,-5.1823 -2.242815,-9.96562 -3.159497,-15.0248 -0.449182,-2.20202 -1.983735,-11.52645 -2.949418,-4.54984 -0.966601,6.26702 1.224009,13.121 -1.935619,18.91757 -2.376793,0.69156 -6.242101,1.92569 -7.881013,1.63696 0.283855,-4.39471 2.52843,-8.47228 2.394991,-12.99332 0.6894,-4.84893 0.248027,-9.85824 2.114726,-14.49685 1.290681,-4.93782 1.01841,-10.07396 0.915841,-15.07658 l 0.271484,-0.46271 0.312344,-0.38744 z" />
    <path
       id="path344"
       style="fill:#000000;stroke:#000000;stroke-width:0.264583px;stroke-linecap:butt;stroke-linejoin:miter;stroke-opacity:1"
       d="m 67.992498,218.58626 c 1.039191,-0.51089 2.748072,0.49606 3.323627,-0.87048 0.248244,-1.19095 -0.311985,-2.39985 -0.05412,-3.60502 0.295424,-2.715 0.452941,-5.4555 0.249741,-8.18254 0.09936,-1.75055 0.730878,-3.4195 0.849589,-5.17116 0.184249,-1.37332 0.335965,-2.76659 0.188099,-4.15117 -0.643606,0.22711 -0.711652,1.93943 -1.020992,2.76872 -0.468081,1.95452 -1.099475,3.89758 -1.073564,5.92997 -0.181327,2.68828 -1.115333,5.25449 -1.797647,7.84309 -0.496735,1.75518 -1.014099,3.60521 -0.66473,5.43859 z" />
    <path
       id="path350"
       style="fill:#000000;stroke:#000000;stroke-width:0.264583px;stroke-linecap:butt;stroke-linejoin:miter;stroke-opacity:1"
       d="m 91.408994,192.03303 c -0.614269,0.98198 -0.358283,2.19828 -0.675597,3.27009 -0.284264,1.25352 -0.624504,2.49731 -0.930834,3.74293 -0.177021,0.28851 -0.169202,0.74372 0.164157,0.30833 1.950091,-1.61721 4.571689,-2.39052 6.12642,-4.4797 0.633338,-0.89125 0.932899,-1.97429 1.110458,-3.03808 0.152074,-0.93632 -0.838777,-1.49598 -1.65773,-1.45837 -1.35958,-0.009 -2.733278,0.29815 -3.952378,0.90259 -0.213432,0.1905 -0.119947,0.5058 -0.184496,0.75221 z" />
    <path
       id="path356"
       style="fill:#000000;stroke:#000000;stroke-width:0.264583px;stroke-linecap:butt;stroke-linejoin:miter;stroke-opacity:1"
       d="m 107.89913,200.46263 c -2.27983,3.16724 -4.18127,6.69611 -5.17201,10.48362 -0.53634,2.1397 -0.59879,4.49425 0.49498,6.47818 0.4701,1.36683 1.20918,3.00091 2.72683,3.38934 1.97739,0.072 2.86801,-2.13122 4.04722,-3.35765 1.0857,-1.54653 1.93327,-3.24692 2.82843,-4.90567 0.79065,-1.99 1.32222,-4.16677 0.73702,-6.29147 -0.0886,-2.44494 0.11914,-4.96219 -0.64395,-7.32535 -0.7564,-2.53248 -3.601,-1.3955 -4.2472,0.58091 -0.23485,0.33253 -0.46968,0.67123 -0.77132,0.94809 z" />
    <path
       id="path363"
       style="fill:#e30910;fill-opacity:1;stroke:#e30910;stroke-width:0.264583px;stroke-linecap:butt;stroke-linejoin:miter;stroke-opacity:1"
       d="m 107.84984,210.20104 c -1.44407,2.02082 -2.38407,4.53422 -2.17544,7.03493 0.17105,1.60637 2.31889,1.9761 3.14816,0.65417 1.12118,-1.25809 2.05872,-2.68416 2.55858,-4.3061 0.66769,-1.75451 1.38272,-3.50509 1.60485,-5.38724 0.20661,-1.63279 0.48788,-3.2835 0.44486,-4.92881 -0.46546,-0.43327 -0.87206,1.32023 -1.29275,1.72656 -0.89313,1.45621 -1.57725,3.0639 -2.67142,4.38363 -0.42242,0.48785 -1.06526,0.56074 -1.61684,0.82286 z" />
    <path
       id="path370"
       style="fill:#000000;stroke:#000000;stroke-width:0.264583px;stroke-linecap:butt;stroke-linejoin:miter;stroke-opacity:1"
       d="m 161.01761,170.16045 c -1.7849,4.152 -1.60194,8.81984 -3.47989,12.9308 -0.31137,2.08812 -2.69118,6.16815 -1.08057,7.26988 4.21711,-1.07003 0.54372,5.0031 0.75446,7.23849 0.32528,1.79091 -2.10451,7.10518 1.16891,4.68322 2.5061,-0.036 -0.0683,4.17583 0.6716,5.85773 0.27273,3.91744 -1.5201,7.27313 -4.35733,9.61557 -0.68607,2.17551 -1.58079,8.99591 2.32835,5.71721 2.10776,-1.15153 4.97285,-1.72462 6.94423,-1.82616 0.35083,-2.36953 1.71746,-5.04131 0.97427,-7.30044 -1.60646,-1.2502 -5.90673,2.07685 -3.54054,-1.05264 1.48756,-3.64691 3.66392,-6.94258 4.97113,-10.67402 1.2222,-3.11135 3.1594,-5.94688 3.97384,-9.20868 1.75884,-1.82555 -0.15388,-2.42302 -1.64808,-2.67389 0.2016,-2.6216 2.70154,-4.67646 3.39506,-7.2999 1.40295,-2.19238 1.47416,-4.91137 -1.86416,-4.08668 -1.68196,-1.68194 2.70396,-4.42877 2.99252,-6.66658 2.21239,-2.58149 1.53165,-7.35201 -2.65121,-6.40442 -3.08492,0.41418 -7.88178,1.38004 -9.55259,3.88051 z" />
    <path
       id="path376"
       style="fill:#f7ed6a;fill-opacity:1;stroke:#f7ed6a;stroke-width:0.264583px;stroke-linecap:butt;stroke-linejoin:miter;stroke-opacity:1"
       d="m 160.45068,174.39744 c 0.60845,-2.51535 1.48207,-5.26872 4.67558,-5.01193 1.92644,0.21864 4.45252,-1.56943 5.86882,-0.97633 -1.83082,3.04478 -3.43465,6.29952 -4.40251,9.74616 -0.15305,1.49895 -2.32336,4.55489 -1.22722,5.14439 0.73688,-0.43533 3.03654,-2.03438 3.31355,-1.3912 -1.76417,2.23969 -1.71703,5.34322 -3.29469,7.69282 -0.5786,1.34793 -2.22138,4.007 0.58339,3.00545 1.48474,-0.80587 2.2283,-0.53071 1.42011,1.11433 -1.04151,2.32613 -2.28761,4.55745 -3.07945,6.995 -1.06352,2.86519 -2.95713,5.37568 -3.63071,8.38441 -0.57692,1.04643 -2.10452,4.67949 -1.58804,1.72268 0.7714,-2.3433 0.97472,-4.76865 1.23135,-7.20522 -0.0145,-1.42744 2.09092,-5.63377 -0.88751,-3.86447 -2.47233,1.39819 -1.77735,-1.47362 -0.78633,-2.58952 0.24604,-2.66215 1.67863,-6.07615 1.46366,-8.21806 -1.37841,0.13128 -4.54512,1.28446 -3.02077,-1.35471 1.35665,-3.06635 1.58122,-6.40944 2.1289,-9.66915 0.25257,-1.22142 0.62458,-2.4298 1.23187,-3.52465 z" />
    <path
       id="path382"
       style="fill:#f7ed6a;fill-opacity:1;stroke:#f7ed6a;stroke-width:0.264583px;stroke-linecap:butt;stroke-linejoin:miter;stroke-opacity:1"
       d="m 156.95054,217.63239 c -0.31697,0.89044 -0.34984,1.8482 -0.59289,2.75781 -0.15203,0.73821 -0.14834,1.52235 -0.47744,2.21285 -0.0501,0.5215 0.54032,-0.18768 0.75596,-0.21416 1.07296,-0.29879 2.18336,-0.39287 3.28225,-0.54458 0.37111,-0.10022 0.86139,-0.0595 1.10815,-0.39776 0.15295,-0.44477 0.17734,-0.92574 0.28408,-1.38508 0.23265,-1.33874 0.44794,-2.68132 0.59631,-4.03234 -0.48187,-0.19845 -0.80879,0.5447 -1.31419,0.55491 -0.60421,0.0841 -1.22533,0.0842 -1.80739,0.29571 -0.63047,0.19985 -1.24574,0.45194 -1.83484,0.75264 z" />
  </g>
</svg>
