<?xml version="1.0" encoding="UTF-8" standalone="no"?>
<svg
   xmlns:dc="http://purl.org/dc/elements/1.1/"
   xmlns:cc="http://creativecommons.org/ns#"
   xmlns:rdf="http://www.w3.org/1999/02/22-rdf-syntax-ns#"
   xmlns:svg="http://www.w3.org/2000/svg"
   xmlns="http://www.w3.org/2000/svg"
   xmlns:sodipodi="http://sodipodi.sourceforge.net/DTD/sodipodi-0.dtd"
   xmlns:inkscape="http://www.inkscape.org/namespaces/inkscape"
   width="1200"
   height="600"
   viewBox="0 0 317.5 158.75"
   version="1.1"
   id="svg8"
   inkscape:version="1.0.1 (3bc2e813f5, 2020-09-07)"
   sodipodi:docname="pd-metro.svg">
  <sodipodi:namedview
     id="base"
     pagecolor="#ffffff"
     bordercolor="#666666"
     borderopacity="1.0"
     inkscape:pageopacity="0.0"
     inkscape:pageshadow="2"
     inkscape:zoom="1.4"
     inkscape:cx="609.43798"
     inkscape:cy="302.89733"
     inkscape:document-units="mm"
     inkscape:current-layer="layer1"
     showgrid="false"
     units="px"
     inkscape:window-width="1920"
     inkscape:window-height="1061"
     inkscape:window-x="0"
     inkscape:window-y="19"
     inkscape:window-maximized="0"
     inkscape:document-rotation="0"
     inkscape:snap-global="false" />
  <metadata
     id="metadata5">
    <rdf:RDF>
      <cc:Work
         rdf:about="">
        <dc:format>image/svg+xml</dc:format>
        <dc:type
           rdf:resource="http://purl.org/dc/dcmitype/StillImage" />
        <dc:title />
      </cc:Work>
    </rdf:RDF>
  </metadata>
  <g
     inkscape:label="Layer 1"
     inkscape:groupmode="layer"
     id="layer1"
     transform="translate(0,-138.25001)">
    <path
       id="path31"
       style="fill:#999999;stroke:#999999;stroke-width:0.264583px;stroke-linecap:butt;stroke-linejoin:miter;stroke-opacity:1"
       d="m 63.437732,273.68249 c -5.509754,2.12311 -27.661625,3.66292 -10.810398,5.81433 16.051839,0.0896 31.887051,3.89104 47.964106,2.80559 14.02031,2.21052 27.36159,-2.15271 40.38046,-6.6692 18.67935,-4.03809 38.00071,-5.26069 56.42138,-10.35699 12.66664,-4.37105 26.10088,-5.95408 39.22438,-8.42825 13.14539,-2.54837 26.66007,-4.20424 39.51274,-8.25109 -19.34431,-0.24332 -38.78833,-0.84361 -57.91682,2.66373 -20.84848,1.31302 -40.82334,8.17018 -61.64251,9.8882 -29.58896,3.54169 -58.981303,8.67232 -88.395408,12.9867 -1.589129,0.0253 -3.184701,-0.10791 -4.73793,-0.45302 z" />
    <path
       id="path37"
       style="fill:#080b0b;fill-opacity:1;stroke:#080b0b;stroke-width:0.264583px;stroke-linecap:butt;stroke-linejoin:miter;stroke-opacity:1"
       d="m 135.58519,271.84128 c 0.12146,1.75703 1.48838,3.24174 2.99296,4.01495 1.46643,0.2974 3.09582,1.12572 4.55806,0.50987 1.12184,-0.94627 1.80873,-2.49478 2.03985,-3.93647 -0.0789,-1.87488 -2.26295,-2.38762 -3.79079,-2.44872 -1.65105,-0.30976 -3.31948,0.29497 -4.77252,1.01473 -0.35685,0.26458 -0.65576,0.60015 -1.02756,0.84564 z" />
    <path
       id="path46"
       style="fill:#080b0b;fill-opacity:1;stroke:#080b0b;stroke-width:0.264583px;stroke-linecap:butt;stroke-linejoin:miter;stroke-opacity:1"
       d="m 148.72308,270.48811 c -0.71359,1.29345 0.10522,2.71834 0.21489,4.04852 0.61306,1.1492 2.00548,0.21355 2.91708,0.0515 1.72537,-0.56921 3.45748,-1.1768 5.25452,-1.44522 1.07007,-0.22193 2.6262,0.11946 2.91019,-1.34467 0.7439,-1.21676 0.93862,-2.62278 1.35809,-3.95064 0.0487,-0.79924 1.59058,-2.06229 0.77697,-2.52823 -3.54235,0.7722 -6.9276,2.18291 -10.52892,2.70962 -0.87289,0.26049 -2.03534,0.0269 -2.64169,0.83444 -0.31119,0.48017 -0.31886,1.0759 -0.26113,1.62463 z" />
    <path
       id="path53"
       style="fill:#080b0b;fill-opacity:1;stroke:#080b0b;stroke-width:0.264583px;stroke-linecap:butt;stroke-linejoin:miter;stroke-opacity:1"
       d="m 161.54053,266.1624 c -0.5474,1.02804 0.11631,2.12974 0.26491,3.17496 0.17259,0.94967 0.65275,1.93672 1.62061,2.28542 1.67224,0.7863 3.94748,0.0941 4.68038,-1.66209 0.50028,-1.04606 0.80794,-2.17429 1.33011,-3.21018 0.42566,-0.72796 0.48246,-1.9735 -0.62752,-2.05568 -1.66023,-0.28377 -3.41504,-0.28812 -5.01011,0.31867 -0.81237,0.25835 -1.50056,0.77513 -2.25838,1.1489 z" />
    <path
       id="path60"
       style="fill:#080b0b;fill-opacity:1;stroke:#080b0b;stroke-width:0.264583px;stroke-linecap:butt;stroke-linejoin:miter;stroke-opacity:1"
       d="m 262.15753,246.08665 c -0.19147,0.64904 -0.27402,1.3284 -0.32654,1.9993 -0.011,0.77241 0.90974,0.53018 1.3781,0.38961 0.98143,-0.25582 1.88457,-0.81386 2.90146,-0.91839 0.80508,-0.0182 1.24842,0.77274 1.91416,1.07844 0.59659,0.005 0.89741,-0.64802 1.11264,-1.11554 0.34101,-0.84139 0.47234,-1.94564 -0.15755,-2.68495 -0.56377,-0.63217 -1.31406,0.0642 -1.77407,0.46294 -0.60607,0.48404 -1.43083,0.23241 -2.12999,0.48652 -0.72992,0.0343 -1.45956,-0.51545 -2.17782,-0.14193 -0.26863,0.10723 -0.51419,0.26526 -0.74039,0.444 z" />
    <path
       id="path71"
       style="fill:#080b0b;fill-opacity:1;stroke:#080b0b;stroke-width:0.264583px;stroke-linecap:butt;stroke-linejoin:miter;stroke-opacity:1"
       d="m 208.79257,167.62486 c 1.47669,-0.13488 2.96816,0.008 4.43642,-0.24057 1.36602,-0.44602 1.93009,1.23644 0.55968,1.69874 -1.12355,0.40587 -1.00688,1.69972 -0.55315,2.57296 0.38703,0.9189 1.1826,1.62782 1.41487,2.63177 0.73131,1.99918 1.2601,4.16944 2.75756,5.76784 0.89438,1.06593 1.03684,2.52931 1.9385,3.58856 0.71577,0.72627 1.00288,2.16168 -0.46823,2.01508 -0.87741,0.048 -2.05763,0.3007 -2.69543,-0.43685 -0.31855,-0.9988 -0.89602,-1.86927 -1.34343,-2.80359 -0.57099,-1.58033 -0.24301,-3.34331 -0.97499,-4.88578 -0.66988,-1.64209 -1.52699,-3.20813 -2.04235,-4.91052 -0.67263,-1.42276 -2.09974,-2.22908 -3.10429,-3.38191 -1.2274,-0.0639 -1.62702,-1.36987 -0.19909,-1.53985 l 0.13688,-0.0397 z" />
    <path
       id="path77"
       style="fill:#080b0b;fill-opacity:1;stroke:#080b0b;stroke-width:0.264583px;stroke-linecap:butt;stroke-linejoin:miter;stroke-opacity:1"
       d="m 204.92268,160.26006 c -1.66218,2.12717 2.03208,1.03505 2.46414,-0.37387 0.83847,-0.97399 5.54241,-1.82136 2.62659,-0.353 -1.42988,0.33785 -5.00417,3.63709 -1.60423,2.40415 2.53954,-1.75457 5.51183,-2.28737 8.5399,-1.83201 4.14882,0.34942 8.37615,0.79445 12.46694,-0.25089 3.13852,0.18957 6.25503,-0.87691 9.27314,-0.81663 1.13145,0.19679 4.20269,4.14713 2.47791,1.26879 -1.33705,-2.73941 -4.61304,-3.36292 -7.33988,-3.91017 -3.93097,-0.60148 -7.77475,1.15439 -11.71706,0.73533 -4.60226,0.35643 -9.18159,0.9831 -13.78538,1.3066 -1.28883,0.25904 -2.36007,1.06994 -3.40207,1.8217 z" />
    <path
       id="path84"
       style="fill:#080b0b;fill-opacity:1;stroke:#080b0b;stroke-width:0.264583px;stroke-linecap:butt;stroke-linejoin:miter;stroke-opacity:1"
       d="m 213.42656,159.66111 c 0.0944,0.64584 0.85334,0.996 0.74875,0.0821 0.0422,-1.00844 1.25567,-0.3103 0.88508,0.3917 -0.36073,0.83024 -0.97324,1.52962 -1.5144,2.24882 -0.71714,0.87281 -1.5294,1.70062 -2.56404,2.18859 -0.2365,0.0998 -0.93601,0.66793 -0.26626,0.38064 0.58573,-0.42221 1.24455,-0.77216 1.98702,-0.81619 1.15397,-0.13457 2.40055,-0.27187 3.48724,0.2309 0.5521,0.24523 0.75806,1.14455 0.10332,1.39782 -0.65779,0.36299 -1.27761,-0.2437 -1.90917,-0.37292 -1.07504,-0.22118 -2.23091,-0.42462 -3.29915,-0.06 -1.32631,0.81028 -1.89805,2.37912 -3.06371,3.36209 -0.78058,0.10431 -0.48982,-1.00743 -0.0642,-1.29552 0.5534,-0.64263 1.18761,-1.21334 1.77249,-1.82416 1.09487,-0.8902 1.91648,-2.06353 2.60615,-3.28285 0.62179,-0.46548 0.56777,-1.33412 0.84764,-1.99411 0.0707,-0.21607 0.14973,-0.42962 0.24325,-0.6369 z" />
    <path
       id="path98"
       style="fill:#080b0b;fill-opacity:1;stroke:#080b0b;stroke-width:0.264583px;stroke-linecap:butt;stroke-linejoin:miter;stroke-opacity:1"
       d="m 230.0153,158.84034 c 0.72039,-0.27389 3.05241,-0.2807 1.56709,0.7984 -2.13911,1.65396 -4.9698,1.9613 -7.1781,3.50161 -1.97733,0.82619 -3.59224,2.229 -5.40089,3.30822 -1.74498,0.77134 -3.5041,1.80645 -5.4449,1.90865 -1.27965,-0.9292 1.51362,-1.69653 2.12772,-2.31498 1.22811,-0.99358 2.69659,-1.66266 3.86649,-2.75513 1.84979,-1.00351 3.94251,-1.48566 5.71061,-2.6561 1.55796,-0.39357 2.8605,-1.45781 4.40104,-1.79191 l 0.1755,-0.005 z" />
    <path
       id="path109"
       style="fill:#e6e6e6;stroke:#e6e6e6;stroke-width:0.264583px;stroke-linecap:butt;stroke-linejoin:miter;stroke-opacity:1"
       d="m 88.48106,154.62554 c 9.312938,-0.46726 18.69025,0.30483 27.88524,-1.62828 9.50632,-0.71284 18.81829,1.00528 28.02656,3.08537 9.67674,3.04908 18.75022,8.13769 28.53152,11.12644 13.7137,3.77594 26.31481,10.69698 40.30704,13.63284 9.93388,3.32295 19.70817,7.17698 29.63758,10.43565 10.16786,3.02907 19.63164,8.10343 29.7017,11.2699 6.02933,7.09269 2.21568,16.35657 2.33053,24.90814 0.35467,7.24169 5.22655,24.00881 -7.87211,18.83584 -8.71938,2.08947 -17.52826,3.36759 -26.33933,5.01798 -12.1147,1.82396 -23.63664,6.67776 -36.00279,6.70967 -9.91867,2.23849 -19.9058,4.2981 -29.96924,5.84047 -8.61091,3.12226 -19.1381,1.45389 -26.84221,6.56025 -7.97756,2.13755 -16.6255,3.61974 -24.95805,3.27488 -10.23475,-3.29926 -21.34742,-1.49263 -31.889517,-3.28698 -9.81277,-0.58705 -19.707945,0.78694 -29.392634,-1.44037 -10.263069,0.77916 -18.718358,-10.39162 -17.646311,-19.8216 -0.166802,-11.00659 2.139816,-21.80202 3.319209,-32.6644 0.112206,-10.51671 2.068526,-21.21631 6.113309,-30.92198 4.298037,-8.25978 6.451507,-17.7294 12.996927,-24.75242 4.420612,-6.50335 15.116714,-6.46081 22.062577,-6.1814 z" />
    <path
       id="path115"
       style="fill:#ffd42a;fill-opacity:1;stroke:#ffd42a;stroke-width:0.264583px;stroke-linecap:butt;stroke-linejoin:miter;stroke-opacity:1"
       d="m 264.74567,199.12493 c 0.69058,4.15742 4.15655,6.85164 6.25992,10.23492 1.03803,2.50908 1.72198,5.18134 2.07831,7.86805 0.47963,3.62488 0.90852,7.24899 1.31036,10.89087 1.34669,5.16832 0.81012,10.73831 -1.50112,15.54807 -1.79262,4.19577 4.37169,3.98935 4.36885,0.33818 0.0911,-3.71366 -0.65272,-7.4523 -0.3696,-11.17659 0.39142,-5.54074 0.26285,-11.10185 -0.42253,-16.61788 0.57249,-5.23087 -0.51457,-11.35589 -4.87599,-14.75418 -2.14088,-0.93414 -4.51087,-2.30581 -6.8482,-2.33144 z" />
    <path
       id="path122"
       style="fill:#ffd42a;fill-opacity:1;stroke:#ffd42a;stroke-width:0.264583px;stroke-linecap:butt;stroke-linejoin:miter;stroke-opacity:1"
       d="m 62.747564,174.25762 c -11.659222,0.56564 0.05796,-14.4121 4.581963,-17.87944 7.790704,-2.22381 16.400631,-2.03406 24.580589,-2.24193 12.717244,-0.66495 25.461564,-2.07806 38.247534,-1.72583 12.15366,-0.71296 23.07319,6.23847 34.66392,8.88394 4.82062,3.43373 15.09338,6.58068 16.73914,10.35233 -7.59648,4.84711 -10.35784,14.44883 -13.40563,22.58507 -3.34573,14.29215 -10.17215,28.38945 -7.32479,43.45821 1.4185,9.39727 3.66923,18.65745 4.92779,28.0836 -9.68072,1.95699 -18.24185,7.16483 -27.67482,8.95749 -9.88641,2.98904 -20.0694,2.33495 -29.83507,-0.66357 -17.394841,-4.11097 -35.930273,-3.35028 -52.465608,-10.88421 -5.442863,-6.78121 -19.177064,-5.05033 -15.722351,-17.01855 -1.065557,-12.01968 5.922397,-22.45949 6.644591,-34.2843 2.357611,-10.39065 2.632546,-21.85191 8.503932,-31.00585 2.198843,-2.6967 6.797249,-2.61662 7.53881,-6.61696 z" />
    <path
       id="path128"
       style="fill:#080b0b;fill-opacity:1;stroke:#080b0b;stroke-width:0.264583px;stroke-linecap:butt;stroke-linejoin:miter;stroke-opacity:1"
       d="m 42.929809,254.6937 c -0.697822,4.25477 6.156038,5.58031 5.630615,10.52559 1.485509,4.18518 -1.731488,7.71938 -3.786974,10.55874 3.936227,-0.47257 7.815579,-1.27616 11.793425,-1.2913 9.216481,-1.14133 18.226721,1.98032 27.431104,1.90988 8.785259,0.6986 17.542241,1.90753 26.359711,2.00662 4.26322,-0.0814 8.41209,1.18555 12.58101,1.46051 2.64439,-2.69652 0.17071,-7.27691 0.0596,-10.70622 -0.74348,-3.78868 -3.92073,-6.55966 -4.77839,-10.24654 -6.69837,0.44645 -13.74317,0.2858 -20.574722,0.0708 -14.44428,0.17432 -28.759286,-1.99742 -43.133685,-3.08428 -3.915674,0.0425 -7.675935,-1.43051 -11.581714,-1.20383 z" />
    <path
       id="path134"
       style="fill:#4c73c0;fill-opacity:1;stroke:#4c73c0;stroke-width:0.264583px;stroke-linecap:butt;stroke-linejoin:miter;stroke-opacity:1"
       d="m 61.736956,166.75972 c 21.256747,-0.26243 42.645814,-3.22897 63.810554,-0.23524 14.35641,1.03366 17.30555,19.53444 31.16532,21.17362 13.4892,0.25365 26.29544,5.43013 39.46714,7.8331 16.66004,4.86681 33.47404,9.19445 50.70291,11.34741 9.35876,2.85856 24.58616,3.42325 29.58836,9.93012 5.2569,14.78168 -3.37932,21.72868 -17.07139,19.71387 -16.06087,1.38041 -32.17531,2.15354 -48.2186,3.64668 -21.0475,-0.91653 -42.29291,0.36421 -62.95131,3.94473 -11.74439,2.91099 -23.41841,7.44705 -35.49248,7.96436 -22.047769,-0.61861 -43.979165,-4.78201 -66.086235,-2.90226 -15.209452,-0.0916 -1.094106,-18.46903 -3.770275,-27.53191 0.07969,-11.98814 3.310085,-23.76812 6.41737,-35.31468 2.785685,-7.19074 3.197846,-17.52875 12.438636,-19.5698 z" />
    <path
       id="path150"
       style="fill:#080b0b;fill-opacity:1;stroke:#080b0b;stroke-width:0.264583px;stroke-linecap:butt;stroke-linejoin:miter;stroke-opacity:1"
       d="m 245.29766,191.38301 c 4.43104,-1.34507 1.00337,4.13602 2.80194,6.15498 2.06631,2.25697 3.95825,4.86083 3.73433,8.13786 0.73915,4.17705 0.15343,8.44302 0.62782,12.65439 0.71276,7.04441 -0.23795,14.10612 -0.20387,21.15116 0.28949,2.99466 0.0937,6.12379 -0.62272,8.98863 -1.18074,0.97442 -5.32717,4.24538 -3.54608,0.89874 1.33914,-4.10656 1.21648,-8.49312 1.14789,-12.76378 -0.40812,-6.02381 -0.46874,-12.07545 0.34865,-18.06959 0.68299,-5.3002 -0.87157,-10.52639 -0.74757,-15.82336 0.4772,-3.60549 -3.76203,-4.39371 -4.24693,-7.44831 -0.17147,-1.32357 0.0888,-2.69985 0.70654,-3.88072 z" />
    <path
       id="path156"
       style="fill:#080b0b;fill-opacity:1;stroke:#080b0b;stroke-width:0.264583px;stroke-linecap:butt;stroke-linejoin:miter;stroke-opacity:1"
       d="m 227.22996,184.90553 c 4.96945,0.4942 -0.0895,8.0793 5.08447,9.59331 1.72779,3.90186 0.99188,8.41822 2.09966,12.53143 1.74247,10.35206 -0.30502,20.76411 0.0515,31.16171 -0.30424,4.96145 0.62646,10.24006 -1.26022,14.94617 -2.11433,4.32943 -4.82548,1.10887 -2.52724,-2.11747 0.56624,-4.96236 0.10502,-9.96991 0.77904,-14.95097 0.34649,-11.12609 0.10818,-22.29996 -1.21618,-33.35455 0.25675,-3.58871 1.5077,-8.74216 -2.83427,-10.23131 -2.21188,-2.28291 -0.29959,-5.061 -0.17672,-7.57832 z" />
    <path
       id="path167"
       style="fill:#002cab;fill-opacity:1;stroke:#002cab;stroke-width:0.264583px;stroke-linecap:butt;stroke-linejoin:miter;stroke-opacity:1"
       d="m 266.75194,210.91028 c -1.05026,0.81719 -0.4024,2.34322 -0.56929,3.46733 0.14381,3.26128 0.53496,6.51792 0.32659,9.78641 0.0261,3.42366 -0.0768,6.85869 0.3643,10.26158 -0.0302,1.09667 -0.73332,2.86561 1.07276,2.07866 1.54709,-0.15597 0.72018,-1.90821 1.01228,-2.91989 0.22232,-2.56891 0.0676,-5.15961 0.3423,-7.727 0.14531,-2.76978 0.15988,-5.55671 -0.26818,-8.30346 -0.19856,-1.56008 0.0435,-3.10604 0.39531,-4.61724 0.19113,-1.65741 -1.72848,-1.3707 -2.67607,-2.02639 z" />
    <path
       id="path173"
       style="fill:#002cab;fill-opacity:1;stroke:#002cab;stroke-width:0.264583px;stroke-linecap:butt;stroke-linejoin:miter;stroke-opacity:1"
       d="m 265.88923,214.74797 c -0.32977,-1.30803 0.21611,-3.17154 -0.59906,-4.10567 -1.25107,-0.84539 -1.91932,0.12836 -1.56012,1.36623 0.12157,1.60539 0.40623,3.18227 0.68827,4.76756 0.41599,2.6495 -0.28946,5.30389 -0.19852,7.96406 0.016,3.43552 0.28762,6.87361 0.20173,10.30607 -0.38687,1.13028 0.0621,1.96319 1.28736,1.78219 1.58152,0.1669 1.11068,-1.88302 1.19054,-2.88781 -0.0656,-2.14103 -0.42809,-4.25408 -0.64124,-6.37857 0.0742,-1.69314 0.61575,-3.41896 0.0893,-5.1003 -0.41926,-2.30941 -0.56249,-4.6652 -0.56969,-7.00561 0.0156,-0.24108 0.12209,-0.46521 0.11142,-0.70815 z" />
    <path
       id="path179"
       style="fill:#f2f2f2;fill-opacity:1;stroke:#f2f2f2;stroke-width:0.264583px;stroke-linecap:butt;stroke-linejoin:miter;stroke-opacity:1"
       d="m 264.29937,236.92002 c 0.95168,-0.008 1.90265,-0.0794 2.8546,-0.0504 0.15173,0.48527 -0.3047,0.90521 -0.24587,1.39896 -0.15506,1.81125 -0.33015,3.62109 -0.54076,5.42637 -0.0675,0.74542 -0.0222,1.50941 0.26074,2.20744 -0.0635,0.4454 -0.75507,0.29695 -1.10948,0.35497 -0.36818,-0.13294 -0.96295,0.36918 -1.1287,-0.0487 -0.0397,-1.63794 0.24549,-3.2799 0.0676,-4.91815 -0.0689,-0.78979 0.0223,-1.61537 -0.30372,-2.35983 -0.21163,-0.55843 -0.35017,-1.23626 0.0481,-1.7509 0.042,-0.0825 0.0782,-0.16885 0.0975,-0.25974 z" />
    <path
       id="path189"
       style="fill:#f2f2f2;fill-opacity:1;stroke:#f2f2f2;stroke-width:0.264583px;stroke-linecap:butt;stroke-linejoin:miter;stroke-opacity:1"
       d="m 266.88751,236.79801 c -0.15003,0.73088 0.4241,1.36005 0.37594,2.08973 0.0983,1.14542 -0.0689,2.29261 -0.35125,3.40109 -0.18941,0.99614 -0.19931,2.01372 -0.22007,3.02405 0.0175,0.41063 0.82682,-0.17103 1.14346,-0.1868 0.43541,-0.1114 1.15278,0.0436 0.95222,-0.66663 -0.0361,-2.04554 -0.20556,-4.09449 -0.0361,-6.13897 0.0447,-0.77196 0.0966,-1.54419 0.0967,-2.31781 -0.59186,-0.067 -0.92556,0.58969 -1.47979,0.68767 -0.15871,0.0431 -0.32136,0.0694 -0.48115,0.10767 z" />
    <path
       id="path195"
       style="fill:#ffd42a;stroke:#ffd42a;stroke-width:0.264583px;stroke-linecap:butt;stroke-linejoin:miter;stroke-opacity:1"
       d="m 264.15148,245.71564 c -0.12746,0.30256 -0.35796,0.68634 -0.15603,1.00156 0.26111,0.20512 0.61923,0.0489 0.90151,-0.0222 0.62464,-0.21045 1.21495,-0.52735 1.8706,-0.63941 0.36996,-0.0496 0.66859,-0.30983 1.03265,-0.35914 0.38892,-0.0363 0.83145,0.14123 1.17579,-0.11091 0.27183,-0.27447 0.35864,-0.71794 0.35257,-1.08291 -0.28574,-0.20639 -0.668,0.0117 -0.98179,0.0448 -0.64208,0.17416 -1.2859,0.34605 -1.92066,0.54437 -0.48071,0.19075 -0.95776,0.40383 -1.47563,0.47212 -0.26668,0.0486 -0.53496,0.0896 -0.79901,0.15169 z" />
    <path
       style="fill:#002cab;fill-opacity:1;stroke:#002cab;stroke-width:0.264583px;stroke-linecap:butt;stroke-linejoin:miter;stroke-opacity:1"
       d="m 254.10704,208.51451 c 0.0688,0.0794 0.17097,0.11874 0.26719,0.1529 0.33482,0.11887 0.68444,0.18847 1.03161,0.2602 0.44212,0.0914 0.89271,0.14707 1.32716,0.27043 0.0958,0.0272 0.21185,0.0292 0.28215,0.10163 0.038,0.0392 0.0317,0.10053 0.0315,0.15103 -0.001,0.31106 -0.0351,0.62092 -0.0672,0.92996 -0.0897,0.86618 -0.21913,1.72788 -0.30532,2.59438 -0.034,0.34183 -0.0466,0.6855 -0.0553,1.02875 -0.0401,1.58438 0.0763,3.16646 0.13291,4.74892 0.0757,2.11655 0.11746,4.23418 0.21037,6.35019 0.0638,1.45309 0.13699,2.91109 0.0286,4.36352 -0.0808,1.08249 -0.27711,2.15943 -0.24029,3.24843 0.0194,0.57264 0.12077,1.14426 0.3246,1.68182 0.18978,0.5005 0.39606,0.99918 0.50641,1.52408 0.0388,0.18475 0.0791,0.37561 0.0521,0.56478 -0.0113,0.0788 -0.0519,0.15471 -0.12631,0.19404 -0.23826,0.12591 -0.50855,0.17218 -0.77327,0.20351 -0.46285,0.0548 -0.92927,0.0569 -1.3938,0.0911 -0.16585,0.0122 -0.32527,0.063 -0.49213,0.0738 -0.062,0.004 -0.0842,-0.0645 -0.0951,-0.11257 -0.039,-0.17174 -0.0217,-0.34995 -0.007,-0.52359 0.0163,-0.19641 0.0574,-0.39061 0.0641,-0.58761 0.0266,-0.78311 -0.069,-1.57065 0.0316,-2.3501 0.037,-0.28709 0.10615,-0.56936 0.12421,-0.85931 0.0487,-0.78233 -0.0862,-1.55856 -0.16848,-2.33376 -0.0426,-0.40113 -0.0578,-0.80484 -0.0455,-1.20839 0.0133,-0.44001 -0.003,-0.88372 0.0645,-1.31936 0.0466,-0.29954 0.19214,-0.57435 0.22064,-0.87858 0.0704,-0.75192 -0.0802,-1.5029 -0.026,-2.25579 0.11514,-1.60052 0.1336,-3.21003 -8e-5,-4.81078 -0.0803,-0.96192 -0.12839,-1.9277 -0.27741,-2.88284 -0.14736,-0.94451 -0.29757,-1.89245 -0.31504,-2.85065 -0.006,-0.31425 0.0142,-0.62805 0.0272,-0.94195 0.0241,-0.58097 -0.0654,-1.16777 0.0362,-1.74385 0.0824,-0.46717 0.17719,-0.93299 0.22412,-1.40546 0.0304,-0.30574 0.0654,-0.61772 0.0118,-0.92193 -0.0219,-0.1243 -0.0519,-0.26329 -0.15441,-0.34659 -0.13179,-0.1071 -0.31172,-0.11803 -0.4561,-0.20032 z"
       id="path201" />
    <path
       id="path205"
       style="fill:#002cab;fill-opacity:1;stroke:#002cab;stroke-width:0.264583px;stroke-linecap:butt;stroke-linejoin:miter;stroke-opacity:1"
       d="m 257.23745,209.26873 c 1.4574,-0.52818 2.35838,0.9888 1.77458,2.31495 -0.38045,2.01131 -0.66943,4.10322 -0.0963,6.108 0.15993,2.22224 0.51202,4.43122 0.36856,6.66605 -0.0103,2.49932 0.49432,4.97248 0.40727,7.47813 0.0529,1.28953 -0.28768,2.53989 -0.13509,3.82821 -0.0367,1.59717 -2.79675,0.77596 -2.20078,-0.7293 -0.17769,-1.88833 0.0947,-3.77528 0.11805,-5.65565 -0.53679,-3.38332 -0.0502,-6.80637 -0.1695,-10.20996 -0.005,-3.26689 -0.16524,-6.53381 -0.0668,-9.80043 z" />
    <path
       id="path212"
       style="fill:#f2f2f2;fill-opacity:1;stroke:#f2f2f2;stroke-width:0.264583px;stroke-linecap:butt;stroke-linejoin:miter;stroke-opacity:1"
       d="m 254.78489,237.54115 c 0.15888,1.57867 -0.0187,3.16317 -0.008,4.74273 0.0983,1.41212 0.43768,2.84223 0.10102,4.24934 0.0199,0.44978 -0.55575,1.25031 0.23296,0.92614 0.57454,-0.10032 1.14261,-0.23456 1.71784,-0.33118 0.27006,-0.66265 0.11687,-1.40531 0.10548,-2.0992 -0.13475,-1.38973 -0.24119,-2.78297 -0.19934,-4.18021 0.009,-1.38845 0.0444,-2.80694 0.47851,-4.13776 -0.32743,-0.22566 -0.94812,0.44066 -1.44114,0.19528 -0.46621,-0.0999 -1.2413,-0.33105 -0.99844,0.43857 l 0.009,0.10053 0.002,0.0958 z" />
    <path
       id="path218"
       style="fill:#f2f2f2;fill-opacity:1;stroke:#f2f2f2;stroke-width:0.264583px;stroke-linecap:butt;stroke-linejoin:miter;stroke-opacity:1"
       d="m 257.68113,236.72037 c 0.55446,-0.32664 1.21988,-0.17789 1.81384,-0.34873 0.536,0.30592 -0.0532,1.17972 -0.0136,1.70722 -0.11347,1.77532 0.18261,3.55613 -0.0426,5.32769 -0.0644,0.94108 0.13788,1.87809 0.0965,2.81599 -0.23248,0.69287 -1.15103,0.472 -1.70644,0.42812 -0.532,0.19042 -0.81676,-0.24082 -0.63501,-0.7202 0.0708,-1.68767 -0.0637,-3.38369 0.0444,-5.07036 0.13679,-0.59709 0.32581,-1.18833 0.29708,-1.80959 0.0232,-0.57223 -0.0809,-1.13924 -0.20963,-1.69114 10e-4,-0.25764 0.1696,-0.47747 0.35549,-0.639 z" />
    <path
       id="path224"
       style="fill:#ffd42a;stroke:#ffd42a;stroke-width:0.264583px;stroke-linecap:butt;stroke-linejoin:miter;stroke-opacity:1"
       d="m 253.95915,247.6123 c -0.0301,0.25886 -0.17754,0.69395 0.27137,0.63101 1.17849,0.10019 2.42189,0.0382 3.50261,-0.48558 0.43969,-0.2152 0.62305,-0.8145 1.14676,-0.87469 0.30043,0.003 0.78696,0.0521 0.78118,-0.38137 0.10547,-0.498 -0.46728,-0.66115 -0.84675,-0.52015 -0.99478,0.22563 -1.84665,0.86335 -2.85109,1.05106 -0.55431,0.0369 -1.15346,-0.0234 -1.64109,0.30094 -0.13054,0.0795 -0.25167,0.17426 -0.36299,0.27878 z" />
    <path
       id="path230"
       style="fill:#002cab;fill-opacity:1;stroke:#002cab;stroke-width:0.264583px;stroke-linecap:butt;stroke-linejoin:miter;stroke-opacity:1"
       d="m 216.73924,200.82804 c 1.32888,1.40443 3.5046,0.66903 5.10588,1.39969 0.50656,1.79577 -0.004,3.83504 0.16276,5.73955 -0.11605,3.70456 -0.14097,7.40928 0.14592,11.10546 0.0297,5.46856 -0.35128,10.93156 -0.44182,16.39955 -0.32544,1.51269 1.28433,4.14252 -1.37494,4.22932 -1.37389,0.15563 -4.40742,0.69141 -3.23881,-1.49957 0.49434,-3.14595 -0.22584,-6.34124 0.39255,-9.48111 0.4736,-4.13629 -0.74128,-8.20808 -0.55798,-12.33916 -0.14555,-2.16068 -0.26525,-4.32233 -0.42561,-6.48243 -0.13924,-2.68813 -0.17616,-5.45912 0.38758,-8.1035 -0.0256,-0.32667 -0.10843,-0.64441 -0.15553,-0.9678 z" />
    <path
       id="path236"
       style="fill:#002cab;fill-opacity:1;stroke:#002cab;stroke-width:0.264583px;stroke-linecap:butt;stroke-linejoin:miter;stroke-opacity:1"
       d="m 222.58104,202.41414 c 1.39541,0.16365 4.6201,-0.38733 4.18085,1.74287 -0.50583,2.14563 -0.57943,4.32155 -0.2539,6.49788 0.10997,2.98685 0.30142,5.97846 0.97613,8.89631 0.5452,4.65611 -0.58112,9.29679 -0.40563,13.95821 -0.65259,1.6983 0.95257,4.7434 -1.29506,5.27817 -1.79891,0.60112 -4.72112,0.74231 -3.8015,-1.99224 0.22627,-4.52178 0.99421,-9.04467 0.42328,-13.57558 -0.35886,-3.88816 -0.10046,-7.79423 -0.15245,-11.69201 0.0128,-2.78292 0.80488,-5.55486 0.26458,-8.33148 -0.0181,-0.26157 -0.008,-0.52829 0.0637,-0.78213 z" />
    <path
       id="path242"
       style="fill:#f2f2f2;stroke:#f2f2f2;stroke-width:0.264583px;stroke-linecap:butt;stroke-linejoin:miter;stroke-opacity:1"
       d="m 216.68994,240.02566 c 1.10799,-0.61936 2.42231,-0.17389 3.60632,-0.48543 0.67853,-0.13208 1.84019,-0.4265 1.57045,0.69794 -0.002,1.06134 0.0713,2.12891 0.041,3.1948 -0.0261,1.63583 0.0438,3.27407 0.29265,4.89217 0.14564,1.63564 -0.0745,3.27528 -0.008,4.91193 -0.6162,1.03104 -2.26028,0.64839 -3.22497,1.31064 -0.62156,0.5134 -2.01303,0.87189 -1.92115,-0.36782 -0.28722,-1.54066 0.0441,-3.10564 -0.12666,-4.65272 -0.0664,-2.9129 0.68765,-5.87623 -0.0977,-8.74568 -0.0892,-0.24064 -0.12787,-0.5 -0.13207,-0.75583 z" />
    <path
       id="path248"
       style="fill:#f2f2f2;stroke:#f2f2f2;stroke-width:0.264583px;stroke-linecap:butt;stroke-linejoin:miter;stroke-opacity:1"
       d="m 222.34687,239.45999 c -0.25918,0.94525 0.0707,1.91954 0.11354,2.87533 0.26005,2.24774 0.30897,4.51083 0.41684,6.76829 0.10107,1.14419 0.11282,2.32963 -0.36456,3.40128 -0.26868,0.45173 -0.35039,1.15839 0.40783,0.87893 1.10098,0.12104 2.24414,-0.0568 3.3185,-0.32027 0.48699,-0.49373 0.23677,-1.30656 0.26987,-1.93811 -0.1151,-1.11361 -0.20108,-2.23527 -0.051,-3.35009 0.0539,-1.32648 -0.20773,-2.64859 -0.0642,-3.973 -0.0127,-1.32263 -0.42154,-2.61913 -0.2919,-3.95044 0.0757,-0.47619 0.53684,-1.11611 -0.32703,-0.8917 -0.77074,0.17292 -1.53985,0.3411 -2.33526,0.34846 -0.36641,0.0319 -0.73245,0.0757 -1.09266,0.15132 z" />
    <path
       id="path254"
       style="fill:#ffd42a;stroke:#ffd42a;stroke-width:0.264583px;stroke-linecap:butt;stroke-linejoin:miter;stroke-opacity:1"
       d="m 217.5773,254.46689 c -0.5186,0.37276 -0.90609,0.9091 -1.22005,1.45366 0.0887,0.83357 1.35111,0.40089 1.90674,0.25282 0.94824,-0.52089 2.06607,-0.56692 3.02756,-1.04996 0.59056,-0.46344 1.32542,-0.63737 2.06,-0.71244 1.01108,-0.0889 1.92578,-0.64823 2.95248,-0.6273 0.61621,0.20675 1.00917,-0.38921 0.60019,-0.87789 -0.29093,-0.4952 -0.94865,-0.3429 -1.41791,-0.27848 -1.53332,0.34494 -2.88705,1.23439 -4.44216,1.51287 -1.12922,0.25671 -2.30735,0.50624 -3.46685,0.32672 z" />
    <path
       id="path260"
       style="fill:#002cab;fill-opacity:1;stroke:#002cab;stroke-width:0.264583px;stroke-linecap:butt;stroke-linejoin:miter;stroke-opacity:1"
       d="m 196.14504,195.45479 c 1.68012,1.40201 4.11407,0.639 5.83521,1.56732 0.36761,1.97932 0.61278,4.02305 0.80551,6.05971 0.31502,5.53154 -0.30837,11.07519 0.14471,16.60396 0.072,3.79255 0.60383,7.56343 0.37117,11.36425 -0.10781,2.45654 0.17992,4.91913 0.44192,7.33739 -0.88671,2.48539 -4.10731,1.88889 -6.14419,1.78778 -2.42244,-2.1571 -0.0409,-6.18664 -0.58,-9.06129 -0.17635,-4.91633 -0.79481,-9.80465 -0.76824,-14.72815 -0.45206,-2.41846 0.40302,-4.80762 0.0184,-7.24195 -0.46662,-3.01268 -0.39155,-6.0821 -0.3334,-9.10859 0.0541,-1.45413 1.27831,-3.30313 0.20888,-4.58043 z" />
    <path
       id="path270"
       style="fill:#002cab;fill-opacity:1;stroke:#002cab;stroke-width:0.264583px;stroke-linecap:butt;stroke-linejoin:miter;stroke-opacity:1"
       d="m 193.17484,194.77821 c -1.85568,-0.0334 -4.79119,-1.65731 -4.2706,1.4271 -0.004,2.78126 -0.34439,5.56482 0.2337,8.32353 0.10578,4.08994 1.473,8.16067 0.67705,12.25357 -0.72976,4.80817 -0.67667,9.69607 0.0932,14.49452 0.31239,2.5419 0.60198,5.11084 0.37724,7.67304 -1.09184,2.28195 3.18704,0.14428 4.42718,0.91974 3.40806,0.82964 1.07827,-3.9356 1.88302,-5.85298 -0.39289,-4.91389 -1.34021,-9.82877 -0.99911,-14.7724 0.71731,-5.72012 0.14384,-11.49802 -0.27556,-17.2092 -0.18675,-2.16295 1.24933,-4.5 0.0421,-6.51851 -0.5314,-0.71663 -1.46173,-0.43975 -2.18825,-0.73841 z" />
    <path
       id="path280"
       style="fill:#f2f2f2;stroke:#f2f2f2;stroke-width:0.264583px;stroke-linecap:butt;stroke-linejoin:miter;stroke-opacity:1"
       d="m 191.06736,240.0651 c -1.08009,-0.28805 -1.56021,1.04123 -1.40749,1.8985 -0.08,4.39269 0.39017,8.77334 0.44306,13.16096 -0.14001,1.38179 -0.77204,2.66051 -1.01912,4.0131 0.40138,0.95095 1.55757,0.67967 2.38326,0.61322 1.08656,-0.17803 2.18178,-0.28858 3.27824,-0.35001 1.19663,-0.10335 1.32756,-1.38769 1.35732,-2.33261 0.0698,-2.76002 -0.43113,-5.50649 -0.2857,-8.26846 -0.11901,-2.68455 0.0556,-5.37974 0.54534,-8.02159 0.54397,-1.54637 -1.29023,-1.24922 -2.23163,-1.15628 -1.02278,-0.0138 -2.12494,-0.0193 -3.06328,0.44317 z" />
    <path
       id="path286"
       style="fill:#f2f2f2;stroke:#f2f2f2;stroke-width:0.264583px;stroke-linecap:butt;stroke-linejoin:miter;stroke-opacity:1"
       d="m 196.89684,240.16492 c 1.33759,-0.34589 2.71069,-0.62979 4.03588,-0.92102 1.0781,-0.22729 1.88552,0.72909 2.31842,1.59069 0.4995,0.93801 0.17567,2.04407 0.21474,3.05744 -0.20564,2.98319 -0.002,5.98059 -0.23021,8.96101 -0.26099,1.43276 -0.63138,2.89571 -0.69526,4.30466 -0.95896,0.75937 -2.36988,0.58765 -3.40059,1.30242 -0.93559,0.57008 -2.68049,0.77979 -2.61567,-0.76578 -0.69671,-2.58579 0.0881,-5.26184 -0.14952,-7.88883 0.0597,-1.71819 0.23211,-3.43156 0.18809,-5.15353 0.0547,-1.14904 -0.13676,-2.32058 0.0815,-3.45236 0.0998,-0.34025 0.23752,-0.67626 0.25265,-1.0347 z" />
    <path
       id="path292"
       style="fill:#ffd42a;stroke:#ffd42a;stroke-width:0.264583px;stroke-linecap:butt;stroke-linejoin:miter;stroke-opacity:1"
       d="m 189.76097,259.34225 c -0.67676,0.12807 -0.8598,0.95141 -1.23634,1.43118 0.239,0.60144 1.35151,0.17918 1.92889,0.19282 1.70868,-0.28492 3.38805,-0.81385 5.13887,-0.75576 1.39754,-0.10754 2.69349,-0.70828 4.07429,-0.90917 0.82778,-0.23058 1.6573,-0.45803 2.52047,-0.49005 0.7488,-0.0402 0.66866,-0.99412 0.62942,-1.53423 -0.18817,-0.86542 -1.43418,-0.28568 -2.05869,-0.17333 -0.974,0.33555 -1.95211,0.74478 -3.00291,0.71542 -2.03183,0.15334 -4.02932,0.57373 -6.04194,0.8686 -0.6865,0.10997 -1.29852,0.44099 -1.95206,0.65452 z" />
    <path
       id="path298"
       style="fill:#87cdde;fill-opacity:1;stroke:#87cdde;stroke-width:0.264583px;stroke-linecap:butt;stroke-linejoin:miter;stroke-opacity:1"
       d="m 269.79859,214.03458 c 0.76906,0.10598 1.54573,0.32898 2.29948,0.40664 0.04,0.82411 -0.55551,1.63322 -0.53175,2.5049 -0.16679,0.98354 0.27869,1.9053 0.28404,2.87989 0.0224,1.25108 0.37107,2.48937 0.18771,3.7434 0.0591,1.04385 0.01,2.08716 -0.1442,3.11997 -0.11875,0.66238 0.41912,1.87624 -0.73351,1.62818 -0.37988,-0.0133 -1.28838,0.22959 -0.88107,-0.44995 0.226,-0.99947 0.20912,-2.02063 0.23787,-3.03615 0.15078,-1.2039 0.003,-2.40929 0.0175,-3.61639 -0.0661,-0.91852 -0.4335,-1.78714 -0.45867,-2.71519 -0.1305,-1.199 0.13951,-2.40528 -0.10155,-3.59736 -0.11756,-0.28953 0.14128,-0.67395 -0.17584,-0.86794 z" />
    <path
       id="path316"
       style="fill:#87cdde;fill-opacity:1;stroke:#87cdde;stroke-width:0.264583px;stroke-linecap:butt;stroke-linejoin:miter;stroke-opacity:1"
       d="m 272.69483,214.82763 c 0.6739,0.24549 1.01152,0.93827 1.65232,1.23018 0.68779,0.16752 0.86938,0.65485 0.76904,1.32648 0.0677,2.41604 0.0284,4.83491 0.11754,7.24989 -0.0957,0.65533 0.0759,1.28956 0.14078,1.93322 -0.006,0.55427 0.3794,1.32961 -0.38227,1.55178 -0.5672,0.28483 -1.2166,0.27153 -1.79189,0.0179 -0.81234,-0.15283 -0.13855,-1.10942 -0.21375,-1.66531 0.0633,-1.14203 -0.0628,-2.28531 -0.0151,-3.42727 -0.0305,-1.58483 -0.13305,-3.16912 -0.21254,-4.74977 0.006,-1.1573 -0.32629,-2.31822 -0.0641,-3.46707 z" />
    <path
       id="path326"
       style="fill:#87cdde;fill-opacity:1;stroke:#87cdde;stroke-width:0.264583px;stroke-linecap:butt;stroke-linejoin:miter;stroke-opacity:1"
       d="m 266.95779,215.66504 c 0.97262,0.10079 1.6206,0.80075 1.27773,1.78157 -0.0113,1.5675 0.12463,3.13518 -0.0109,4.70067 -0.0913,2.30873 -0.19353,4.62569 0.0991,6.92562 0.14033,1.3116 0.0379,2.63005 0.15185,3.9419 0.28961,0.89242 -1.27097,1.13439 -0.87941,0.1076 -0.24754,-1.40528 -0.47562,-2.83494 -0.22282,-4.25813 0.21757,-1.55746 -0.16424,-3.09122 -0.3244,-4.63021 0.003,-1.68196 0.42853,-3.38321 0.0381,-5.05583 -0.28218,-1.04842 -0.2049,-2.12775 -0.0918,-3.19147 l -0.0102,-0.16148 -0.0273,-0.16024 z" />
    <path
       id="path332"
       style="fill:#87cdde;fill-opacity:1;stroke:#87cdde;stroke-width:0.264583px;stroke-linecap:butt;stroke-linejoin:miter;stroke-opacity:1"
       d="m 264.66544,214.72226 c 1.35745,-0.27038 0.52685,1.38834 0.6577,2.1279 -0.0185,1.36728 0.11643,2.72683 0.2686,4.08082 0.0197,1.95262 0.28038,3.89601 0.1681,5.85137 0.13179,1.4268 0.47112,2.85115 0.25986,4.28895 -0.15048,0.8471 0.92314,2.24761 -0.21571,2.63881 -1.13508,-0.0573 -0.15975,-1.66315 -0.50968,-2.41757 -0.18802,-1.30154 -0.37145,-2.63715 -0.0238,-3.93316 0.0986,-1.04254 0.0306,-2.08747 -0.20526,-3.1043 -0.0407,-1.83344 -0.16892,-3.66608 -0.18636,-5.50035 0.069,-0.91255 0.13282,-1.82458 -0.0573,-2.72949 -0.0785,-0.43461 0.10752,-0.90915 -0.15619,-1.30298 z" />
    <path
       id="path338"
       style="fill:#87cdde;fill-opacity:1;stroke:#87cdde;stroke-width:0.264583px;stroke-linecap:butt;stroke-linejoin:miter;stroke-opacity:1"
       d="m 259.51176,212.05474 c 1.18257,0.44845 2.6957,-0.3019 3.70214,0.57117 0.50142,0.85052 0.29635,1.90424 0.43557,2.84633 0.007,2.38056 -0.30812,4.75414 -0.1405,7.13644 0.35327,3.31128 0.0367,6.63824 0.10374,9.95584 0.27192,1.00533 0.0778,1.90589 -1.16312,1.64365 -1.0879,0.0645 -2.94821,0.39858 -2.33324,-1.30201 0.0113,-1.8554 0.0379,-3.70954 0.13903,-5.56337 0.16046,-1.43975 0.374,-2.88164 0.2093,-4.33371 -0.0884,-1.54764 0.0717,-3.11605 -0.34883,-4.63167 -0.31868,-1.26129 -0.63877,-2.52001 -0.73383,-3.8226 -0.24241,-0.83947 0.30816,-1.65591 0.12974,-2.50007 z" />
    <path
       id="path344"
       style="fill:#87cdde;fill-opacity:1;stroke:#87cdde;stroke-width:0.264583px;stroke-linecap:butt;stroke-linejoin:miter;stroke-opacity:1"
       d="m 257.774,214.28414 c 0.65055,0.6631 0.0476,1.69362 0.35482,2.50174 0.22931,1.46171 0.38786,2.93427 0.37753,4.41397 0.12964,1.74527 0.0318,3.4962 -0.15662,5.23134 0.0876,1.74051 0.71329,3.41338 0.7068,5.16786 0.0925,0.93504 0.57101,2.6221 -0.92752,2.5648 -0.47897,-0.87544 -0.0517,-1.95684 -0.28454,-2.91371 0.0585,-1.42942 0.007,-2.84844 -0.1557,-4.26693 -0.0669,-1.28261 -0.0758,-2.55679 0.11572,-3.83024 0.18179,-1.51041 0.11731,-3.03387 -0.0548,-4.53808 0.0153,-1.36627 -0.22596,-2.72921 -0.20653,-4.08564 l 0.0825,-0.15105 0.14833,-0.0941 z" />
    <path
       id="path350"
       style="fill:#87cdde;fill-opacity:1;stroke:#87cdde;stroke-width:0.264583px;stroke-linecap:butt;stroke-linejoin:miter;stroke-opacity:1"
       d="m 255.15505,213.95139 c 1.4798,-0.30435 0.84857,1.28402 0.89947,2.12907 -0.0385,2.87268 0.0881,5.74553 0.045,8.61794 0.17329,2.57984 0.11279,5.16949 0.37977,7.74305 0.014,0.59542 0.27603,2.47448 -0.72242,1.69827 -0.16848,-0.89948 -0.24367,-1.82953 -0.37809,-2.74387 -0.30066,-2.03535 0.36859,-4.06449 0.0717,-6.10133 -0.16473,-2.70455 0.26124,-5.42448 -0.15813,-8.11636 -0.0529,-0.9528 -0.12609,-1.89449 -0.31146,-2.82613 0.0508,-0.0448 0.0259,-0.40105 0.17417,-0.40064 z" />
    <path
       id="path356"
       style="fill:#87cdde;fill-opacity:1;stroke:#87cdde;stroke-width:0.264583px;stroke-linecap:butt;stroke-linejoin:miter;stroke-opacity:1"
       d="m 252.72097,210.45755 c 0.72662,0.24959 1.53259,0.40616 1.12912,1.40137 -0.0699,3.75068 -0.35333,7.51423 0.0781,11.25388 0.24997,1.88601 0.0738,3.78914 0.22074,5.67698 0.24937,1.53059 0.45016,3.10477 0.10393,4.63925 0.56226,1.34429 -2.2186,1.58139 -1.22501,0.10828 0.61208,-1.88412 -0.32558,-3.85958 0.13443,-5.77171 0.13111,-1.70521 -0.40231,-3.41595 0.002,-5.11057 0.1576,-2.22597 -0.40909,-4.42038 -0.3864,-6.64291 -0.34484,-1.85062 0.11418,-3.69559 -0.0566,-5.55457 z" />
    <path
       id="path362"
       style="fill:#87cdde;fill-opacity:1;stroke:#87cdde;stroke-width:0.264583px;stroke-linecap:butt;stroke-linejoin:miter;stroke-opacity:1"
       d="m 238.43691,207.60701 c 2.26603,0.26834 4.37699,1.31462 6.67216,1.47416 2.44163,-0.34566 0.92149,2.77453 1.45188,4.2295 0.11633,2.40675 0.26317,4.806 0.10743,7.2139 -0.093,3.59254 0.44346,7.16287 0.34618,10.75683 -0.3045,1.20207 1.01764,4.10741 -1.17143,3.58345 -1.55665,0.0151 -3.07293,0.48301 -4.63917,0.45325 -1.27411,-0.20818 -4.08617,0.91064 -3.32005,-1.23726 0.19383,-3.9358 0.0211,-7.87327 -0.28567,-11.79903 -0.22233,-4.06232 0.0395,-8.14187 -0.33534,-12.19744 0.31169,-1.02254 -1.06286,-3.65129 1.17401,-2.47736 z" />
    <path
       id="path368"
       style="fill:#87cdde;fill-opacity:1;stroke:#87cdde;stroke-width:0.264583px;stroke-linecap:butt;stroke-linejoin:miter;stroke-opacity:1"
       d="m 227.49894,205.21924 c -0.23548,1.43126 0.32672,2.86553 0.0507,4.30909 -0.0234,3.55734 0.74806,7.05379 1.11859,10.58103 0.45906,1.93922 0.42927,3.93755 0.004,5.87805 -0.61739,2.70867 -0.82323,5.48223 -0.76972,8.2546 -1.23816,1.82838 2.40268,3.4079 2.58411,1.33186 -0.21385,-3.27692 0.48626,-6.54987 0.0519,-9.82441 -0.2017,-3.40972 0.0238,-6.8319 -0.27936,-10.23695 -0.25526,-2.93033 -0.5172,-5.86735 -0.46248,-8.81037 0.53153,-1.38145 -1.59732,-0.89927 -2.29776,-1.4829 z" />
    <path
       id="path374"
       style="fill:#87cdde;fill-opacity:1;stroke:#87cdde;stroke-width:0.264583px;stroke-linecap:butt;stroke-linejoin:miter;stroke-opacity:1"
       d="m 223.05597,208.66318 c 0.26221,2.19478 0.32895,4.39671 0.23252,6.60482 -0.0177,2.71863 0.0351,5.43856 0.20632,8.15487 -0.0693,2.45701 0.27666,4.90032 0.23017,7.3557 0.0343,1.72043 -0.80001,3.40048 -0.42046,5.11235 1.38819,1.25078 2.83699,-0.17699 2.52249,-1.74484 0.16526,-3.479 0.29837,-6.97894 -0.1237,-10.44619 -0.20223,-3.64307 -0.3562,-7.30304 -0.0851,-10.94485 -0.42056,-1.24493 0.54242,-3.22472 -0.74898,-3.9056 -0.60228,-0.0571 -1.20542,-0.40204 -1.81325,-0.18626 z" />
    <path
       id="path380"
       style="fill:#87cdde;fill-opacity:1;stroke:#87cdde;stroke-width:0.264583px;stroke-linecap:butt;stroke-linejoin:miter;stroke-opacity:1"
       d="m 217.97828,207.55402 c 0.98746,0.69016 3.49782,0.0816 2.94817,1.88991 -8.2e-4,3.37315 0.0555,6.74862 0.0853,10.12242 0.0787,2.39484 0.64549,4.75118 0.51378,7.15793 0.0327,1.83107 0.0951,3.67133 -0.34008,5.46789 -0.23884,1.30686 -0.44154,2.66572 -0.21334,3.97373 -0.85617,0.61229 -3.46025,0.72613 -2.61499,-1.11128 0.0738,-2.31932 0.17435,-4.65732 0.34146,-6.98101 0.19581,-2.75855 -0.6419,-5.46177 -0.38747,-8.22063 0.23319,-3.22094 -0.067,-6.44056 -0.28425,-9.6529 -0.20612,-0.88202 0.0227,-1.76113 -0.0486,-2.64606 z" />
    <path
       id="path386"
       style="fill:#87cdde;fill-opacity:1;stroke:#87cdde;stroke-width:0.264583px;stroke-linecap:butt;stroke-linejoin:miter;stroke-opacity:1"
       d="m 203.35575,200.08534 c 0.3494,2.48306 0.77972,4.96211 0.6235,7.48079 0.0877,4.50811 -0.39183,9.02828 0.25693,13.51397 0.22062,4.21332 0.4958,8.4345 0.36948,12.65299 -0.22382,1.56798 -0.60887,4.22029 1.83239,3.30177 3.15539,-0.26676 6.31984,-0.0268 9.46599,-0.31006 1.34548,-1.32998 0.12382,-4.07638 0.85324,-5.92968 0.0564,-2.49012 0.047,-4.98779 0.0286,-7.48654 -0.14839,-2.38828 -0.44831,-4.76876 -0.69564,-7.15281 0.11005,-2.84036 -0.29335,-5.65498 -0.50218,-8.48167 -0.52526,-1.62958 1.07808,-3.97008 0.0474,-5.10126 -2.33164,0.15356 -4.62008,-0.73965 -6.88444,-1.22207 -1.78177,-0.46858 -3.62752,-0.92434 -5.39522,-1.26543 z" />
    <path
       id="path396"
       style="fill:#87cdde;fill-opacity:1;stroke:#87cdde;stroke-width:0.264583px;stroke-linecap:butt;stroke-linejoin:miter;stroke-opacity:1"
       d="m 197.51689,204.00681 c 1.24333,0.32566 3.24826,-0.2632 3.90598,0.98467 0.1195,1.484 -0.18415,2.97591 -0.002,4.47161 -0.0668,3.17257 0.19555,6.33326 0.29257,9.5007 7e-4,3.54656 -0.0206,7.10226 0.40667,10.62734 0.13277,2.49807 0.27463,5.04109 -0.24977,7.50229 -1.01965,0.65581 -2.77907,0.57862 -3.88413,0.32034 -0.0703,-1.81769 0.57609,-3.68331 0.33902,-5.5334 -0.12023,-4.81287 -0.83473,-9.60611 -0.52679,-14.42421 -0.0143,-2.40001 0.45679,-4.79348 0.0947,-7.192 -0.1656,-1.79346 -0.10954,-3.62057 -10e-4,-5.39491 -0.0869,-0.30332 -0.24656,-0.57687 -0.3754,-0.86243 z" />
    <path
       id="path402"
       style="fill:#87cdde;fill-opacity:1;stroke:#87cdde;stroke-width:0.264583px;stroke-linecap:butt;stroke-linejoin:miter;stroke-opacity:1"
       d="m 190.35339,202.58724 c 1.23007,0.74186 3.53756,0.21683 4.17452,1.03028 -0.25418,4.30173 1.01527,8.56258 0.47099,12.86794 -0.49857,5.32586 0.17947,10.64656 0.35982,15.96638 -0.0317,1.67939 -0.15275,4.01014 -0.62465,5.21092 -1.71955,0.29547 -4.18362,0.67924 -3.46929,-1.95522 -0.0255,-3.15178 -0.0477,-6.30676 -0.0523,-9.45597 -0.39735,-4.39271 -0.48182,-8.79989 -0.31513,-13.20658 0.19965,-3.29199 -0.48556,-6.52967 -0.68055,-9.79765 0.0188,-0.22441 0.0632,-0.44709 0.13655,-0.6601 z" />
    <path
       id="path412"
       style="fill:#87cdde;fill-opacity:1;stroke:#87cdde;stroke-width:0.264583px;stroke-linecap:butt;stroke-linejoin:miter;stroke-opacity:1"
       d="m 152.71874,189.53573 c -0.47265,5.91667 -0.22301,11.85482 0.49878,17.7391 0.53178,5.28771 1.21149,10.60209 0.63558,15.92066 -0.54735,1.59676 -0.47363,3.22623 1.72892,2.50802 4.75666,0.0706 9.56328,-0.64801 14.30498,0.10748 3.55084,0.19062 7.10042,0.32677 10.6499,0.58537 2.23556,0.21498 5.37569,0.69934 4.34224,-2.51845 0.12674,-3.65634 1.04317,-7.26988 0.55156,-10.94276 -0.25815,-4.27736 -0.7046,-8.53397 -0.92871,-12.81285 -0.22975,-2.08069 0.0955,-5.00679 -3.00206,-4.47339 -3.84015,-0.82538 -7.7249,-1.34943 -11.5995,-1.96174 -5.17431,-1.09255 -10.21301,-2.79944 -15.41976,-3.72943 -0.55898,-0.20554 -1.13881,-0.62588 -1.76193,-0.42201 z" />
    <path
       id="path422"
       style="fill:#87cdde;fill-opacity:1;stroke:#87cdde;stroke-width:0.264583px;stroke-linecap:butt;stroke-linejoin:miter;stroke-opacity:1"
       d="m 122.88888,188.90388 c 1.52819,-3.34644 3.52104,-6.44511 4.98709,-9.82001 1.50981,-2.57874 4.44886,-4.12313 7.43752,-3.79652 2.97963,-0.0999 6.23328,2.02281 6.11249,5.26059 -0.88278,8.57828 0.35542,17.28348 -1.13291,25.82307 -0.55113,3.15959 -0.71211,6.32561 -0.55712,9.52834 0.2342,3.29156 -2.26312,6.63323 -5.67464,6.75018 -3.79167,0.69414 -7.67799,1.07958 -11.5148,0.61039 -2.24554,0.39965 -5.3959,0.0974 -5.80372,-2.69971 -0.60094,-4.41224 1.12942,-8.72661 1.55321,-13.08906 0.89804,-4.15472 2.77452,-8.12486 2.87503,-12.43725 0.31095,-2.11164 1.28963,-4.04697 1.71785,-6.13002 z" />
    <path
       id="path428"
       style="fill:#87cdde;fill-opacity:1;stroke:#87cdde;stroke-width:0.264583px;stroke-linecap:butt;stroke-linejoin:miter;stroke-opacity:1"
       d="m 67.236691,169.48479 c 8.43233,-1.48285 17.048393,-0.90049 25.555547,-1.54342 7.122745,-0.0868 14.261602,0.32858 21.371602,0.53104 5.85001,2.87741 -0.0782,10.51145 -1.09235,15.08571 -3.32117,5.62644 -5.33758,11.86861 -7.61317,17.95847 -1.53527,6.25833 -3.71528,12.30398 -5.45483,18.50669 -2.147673,4.08537 -7.745121,3.48762 -11.573239,2.65428 -9.834277,-2.27069 -19.979649,-1.72679 -29.980872,-1.65895 -2.939889,-0.36289 -8.81173,1.0728 -8.028753,-3.66258 0.306655,-5.48116 3.035631,-10.4816 3.037121,-16.02103 0.534908,-5.70028 2.087662,-11.21254 3.44168,-16.74804 0.57449,-3.99009 0.86136,-8.01882 1.578583,-11.96423 1.199879,-3.98938 5.970874,-1.40061 8.758681,-3.13794 z" />
    <path
       id="path434"
       style="fill:#c8ab37;stroke:#c8ab37;stroke-width:0.264583px;stroke-linecap:butt;stroke-linejoin:miter;stroke-opacity:1"
       d="m 98.034508,156.76356 c -1.316509,1.8315 -3.624706,2.5076 -5.134871,4.13605 -0.42648,0.43209 -1.372934,0.79499 -1.513197,1.24502 1.422236,0.22336 2.880803,-0.33925 4.296365,0.0543 1.179755,0.20361 2.351255,0.47729 3.548425,0.56047 0.78208,-0.31743 1.22116,-1.11117 1.82239,-1.66559 1.57969,-1.64848 3.52367,-2.88948 5.51226,-3.98467 0.99335,-0.63703 -0.60855,-0.31078 -1.03646,-0.45985 -2.12208,-0.2619 -4.31847,-0.64682 -6.421842,-0.0577 -0.354644,0.0741 -0.711741,0.14092 -1.07307,0.17199 z" />
    <path
       id="path440"
       style="fill:#c8ab37;stroke:#c8ab37;stroke-width:0.264583px;stroke-linecap:butt;stroke-linejoin:miter;stroke-opacity:1"
       d="m 68.265026,159.19487 c 0.20804,1.65416 0.327382,3.35287 -0.03454,4.9945 -0.153891,0.64703 0.659984,0.14942 0.958674,0.0376 0.733259,-0.31561 1.481976,-0.62602 2.286503,-0.69306 0.862088,-0.14153 1.729579,-0.28218 2.605621,-0.28261 0.648195,0.3332 0.529506,-0.65865 0.603638,-1.04341 0.02334,-0.60297 0.175545,-1.19007 0.444959,-1.72944 0.267178,-0.62824 0.557366,-1.24806 0.775275,-1.89594 -0.273221,-0.36057 -0.897249,0.0808 -1.32574,0.0109 -1.484877,0.16885 -2.982062,0.0955 -4.471425,0.15576 -0.631457,0.0613 -1.248729,0.22747 -1.842961,0.44571 z" />
    <path
       id="path446"
       style="fill:#ffeeaa;stroke:#ffeeaa;stroke-width:0.264583px;stroke-linecap:butt;stroke-linejoin:miter;stroke-opacity:1"
       d="m 84.805564,154.92832 c 3.729687,-1.5314 7.826191,-0.52213 11.699754,-1.15415 1.746988,-0.16797 0.758689,1.60114 -0.459083,1.49057 -1.758081,0.47957 -3.222382,1.60832 -4.91689,2.26046 -1.54184,0.87401 -2.638755,2.33611 -3.849227,3.60141 -0.8037,1.6315 -2.560018,2.43221 -4.288636,2.66452 -1.442009,0.2038 -2.995581,-0.43441 -4.009714,-1.43581 -0.949536,-1.55853 0.451239,-3.12301 1.307421,-4.34423 0.903754,-1.67651 2.478566,-3.19699 4.516375,-3.08277 z" />
    <path
       id="path453"
       style="fill:#002cab;fill-opacity:1;stroke:#002cab;stroke-width:0.264583px;stroke-linecap:butt;stroke-linejoin:miter;stroke-opacity:1"
       d="m 82.121432,237.15356 c 1.64179,-1.0155 3.560819,-1.47049 5.232754,-2.43981 2.180519,-0.84962 4.509887,-1.2346 6.634552,-2.23298 3.158626,-1.05682 6.568922,-0.60991 9.830622,-0.44642 2.32973,0.64942 2.18906,3.53827 1.88393,5.4411 -0.75349,2.09204 0.77848,6.28864 -2.68857,5.85768 -2.42731,0.19417 -4.879318,-0.68401 -7.287757,0.005 -3.292473,0.37391 -6.616088,0.0904 -9.917105,0.37423 -1.766516,-0.0515 -4.077275,0.0116 -5.094398,-1.71741 -0.857411,-1.62155 -0.394,-4.06624 1.405972,-4.84169 z" />
    <path
       id="path460"
       style="fill:#002cab;fill-opacity:1;stroke:#002cab;stroke-width:0.264583px;stroke-linecap:butt;stroke-linejoin:miter;stroke-opacity:1"
       d="m 44.229834,230.20473 c -1.077839,0.0354 -1.329749,1.34138 -1.472005,2.19359 -0.174937,1.75244 0.01578,3.51933 -0.181269,5.27259 -0.06413,1.02859 -0.275353,2.54373 1.121177,2.70507 1.440807,0.44872 2.935493,0.75185 4.454097,0.6339 1.399449,-0.0726 2.795878,-0.22623 4.196383,-0.0893 1.47218,0.11772 2.181293,-1.47139 2.236372,-2.71148 0.219977,-1.42165 -1.353205,-1.95954 -2.046379,-2.9292 -0.552753,-0.95495 -1.627709,-1.40053 -2.357025,-2.19302 -1.308672,-0.96667 -2.506149,-2.26131 -4.202068,-2.48975 -0.590208,-0.10384 -1.194528,-0.14114 -1.749283,-0.39242 z" />
    <path
       id="path467"
       style="fill:#550000;stroke:#550000;stroke-width:0.264583px;stroke-linecap:butt;stroke-linejoin:miter;stroke-opacity:1"
       d="m 44.090402,232.73015 c -0.352668,0.34121 -0.59474,0.81362 -0.574999,1.31274 -0.005,0.36085 -0.03936,0.73398 0.05566,1.08542 0.160581,0.4547 0.720219,0.67139 1.157711,0.49255 0.399794,-0.13674 0.639044,-0.53288 0.705691,-0.93345 0.127076,-0.62189 0.02395,-1.31627 -0.352275,-1.83596 -0.171581,-0.16091 -0.389595,-0.52663 -0.656427,-0.31949 -0.105655,0.0775 -0.220115,0.13716 -0.335358,0.19819 z" />
    <path
       id="path474"
       style="fill:#ff6600;fill-opacity:1;stroke:#ff6600;stroke-width:0.264583px;stroke-linecap:butt;stroke-linejoin:miter;stroke-opacity:1"
       d="m 46.791961,234.43991 c -0.283533,0.59166 -0.425949,1.32324 -0.139569,1.93843 0.208458,0.22539 0.507915,0.3492 0.772066,0.49377 0.392344,0.13413 0.59401,-0.28618 0.707339,-0.58245 0.227606,-0.54369 0.386972,-1.12349 0.437227,-1.71131 0.0071,-0.4779 -0.23286,-1.04337 -0.73453,-1.16956 -0.47594,-0.11412 -0.872268,0.31291 -0.979447,0.73935 -0.02876,0.0954 -0.0492,0.19316 -0.06309,0.29177 z" />
    <path
       id="path481"
       style="fill:#ffeeaa;stroke:#ffeeaa;stroke-width:0.264583px;stroke-linecap:butt;stroke-linejoin:miter;stroke-opacity:1"
       d="m 49.824687,237.13787 c -0.102789,0.32697 -0.131291,0.68618 0.05688,0.98891 0.0913,0.32011 0.283613,0.64754 0.637378,0.71231 0.446114,0.16227 1.026848,0.13601 1.334765,-0.27236 0.39999,-0.52326 0.388586,-1.27286 0.127047,-1.85528 -0.157024,-0.35703 -0.54094,-0.6597 -0.94829,-0.54364 -0.518457,0.13624 -0.8845,0.57001 -1.207782,0.97006 z" />
    <path
       id="path488"
       style="fill:#ffeeaa;stroke:#ffeeaa;stroke-width:0.264583px;stroke-linecap:butt;stroke-linejoin:miter;stroke-opacity:1"
       d="m 86.600791,238.03196 c -0.01112,0.89141 -0.694544,1.73624 -0.354611,2.63342 0.34989,0.8122 1.629952,1.06631 2.171154,0.30985 0.681273,-0.79112 0.942583,-2.02441 0.447726,-2.97107 -0.333098,-0.58802 -1.141343,-0.71228 -1.640694,-0.26869 -0.199534,0.11494 -0.404155,0.22425 -0.623575,0.29649 z" />
    <path
       id="path497"
       style="fill:#ff6600;stroke:#ff6600;stroke-width:0.264583px;stroke-linecap:butt;stroke-linejoin:miter;stroke-opacity:1"
       d="m 93.345986,235.91438 c -0.489911,0.80814 -0.744432,1.90315 -0.23686,2.76243 0.295138,0.50891 0.983478,0.82845 1.527895,0.50851 0.397843,-0.26049 0.769286,-0.59966 1.007597,-1.01555 0.264776,-0.53737 0.332397,-1.14594 0.404832,-1.73282 0.04122,-0.71489 -0.43096,-1.50416 -1.18775,-1.58386 -0.697006,-0.0901 -1.297319,0.43056 -1.515714,1.06129 z" />
    <path
       id="path504"
       style="fill:#550000;stroke:#550000;stroke-width:0.264583px;stroke-linecap:butt;stroke-linejoin:miter;stroke-opacity:1"
       d="m 100.28291,235.13008 c -0.724789,0.66737 -0.797325,1.99686 0.045,2.60366 0.75805,0.60357 2.11649,0.50667 2.55274,-0.43928 0.30493,-0.66107 0.43025,-1.44814 0.21418,-2.15377 -0.17494,-0.60193 -0.78907,-1.08309 -1.43139,-0.93889 -0.56567,0.10033 -1.02436,0.49905 -1.38049,0.92828 z" />
    <path
       style="fill:#080b0b;fill-opacity:1;stroke:#080b0b;stroke-width:0.264583px;stroke-linecap:butt;stroke-linejoin:miter;stroke-opacity:1"
       d="m 60.613506,182.92757 c 0.22242,-0.11711 0.516364,-0.14918 0.66809,-0.35102 0.08755,-0.11647 0.137573,-0.26429 0.24564,-0.36149 0.04983,-0.0448 0.163739,-0.20002 0.149464,-0.13453 -0.02148,0.0986 -0.02065,0.20153 -0.02513,0.30232 -0.01954,0.43945 -0.02806,0.87933 -0.05893,1.31831 -0.05572,0.79221 -0.153366,1.58331 -0.337492,2.35702 -0.265523,1.11575 -0.63684,2.20653 -0.817602,3.34243 -0.356264,2.23875 -0.7055,4.47902 -1.113856,6.70897 -0.4383,2.39347 -1.003773,4.77235 -1.864916,7.05273 -0.218679,0.57908 -0.272459,1.20186 -0.461729,1.79023 -0.318261,0.98936 -0.547629,2.00759 -0.915026,2.98033 -0.204146,0.54051 -0.509019,1.0369 -0.697108,1.58451 -0.288395,0.83964 -0.431288,1.72041 -0.539501,2.59865 -0.172425,1.39937 -0.349025,2.80442 -0.711684,4.16929 -0.187548,0.70584 -0.454215,1.39644 -0.527326,2.12799 -0.0115,0.11507 -0.01283,0.46181 -0.0175,0.34632 -0.01594,-0.39459 -0.01859,-0.79002 -0.04999,-1.18377 -0.05374,-0.6739 -0.175192,-1.34217 -0.176148,-2.02059 -0.0033,-2.35015 -0.159149,-4.70076 -0.06294,-7.05005 0.06041,-1.47515 0.319188,-2.937 0.693449,-4.36335 0.135207,-0.51529 0.309747,-1.01912 0.458094,-1.53069 0.151709,-0.52316 0.170865,-1.07172 0.297924,-1.60082 0.292969,-1.21998 0.674099,-2.41817 0.933868,-3.64592 0.170446,-0.80558 0.252095,-1.62699 0.432921,-2.43083 0.263303,-1.17048 0.638755,-2.31376 0.854268,-3.49583 0.106284,-0.58296 0.183912,-1.1798 0.409757,-1.73062 0.442987,-1.08041 0.88009,-2.16472 1.246404,-3.27357 0.258265,-0.78178 0.426748,-1.59911 0.802167,-2.33752 0.211795,-0.41658 0.506305,-0.81028 0.918937,-1.04518 0.085,-0.0484 0.174054,-0.0897 0.265898,-0.12332 z"
       id="path512" />
    <path
       id="path522"
       style="fill:#080b0b;fill-opacity:1;stroke:#080b0b;stroke-width:0.264583px;stroke-linecap:butt;stroke-linejoin:miter;stroke-opacity:1"
       d="m 53.205993,200.76238 c 3.362487,-2.20543 2.537478,3.60532 3.449624,5.43522 1.225288,4.45199 1.382513,9.1296 2.70794,13.54917 1.065457,2.52733 2.500425,4.89481 3.395312,7.50342 1.990061,2.52133 2.649071,6.73638 5.972477,7.78588 1.053617,1.62149 -4.107482,1.22344 -5.01121,-0.13803 -1.383757,-2.5863 -2.96227,-5.29055 -3.388798,-8.25415 -0.431186,-3.38559 -2.287512,-6.29377 -3.474824,-9.4122 -0.989855,-3.27569 -0.42578,-6.97096 -2.239452,-9.97855 -0.284881,-2.19865 -1.762518,-4.29311 -1.411069,-6.49076 z" />
  </g>
</svg>
