<?xml version="1.0" encoding="UTF-8" standalone="no"?>
<svg
   xmlns:dc="http://purl.org/dc/elements/1.1/"
   xmlns:cc="http://creativecommons.org/ns#"
   xmlns:rdf="http://www.w3.org/1999/02/22-rdf-syntax-ns#"
   xmlns:svg="http://www.w3.org/2000/svg"
   xmlns="http://www.w3.org/2000/svg"
   xmlns:sodipodi="http://sodipodi.sourceforge.net/DTD/sodipodi-0.dtd"
   xmlns:inkscape="http://www.inkscape.org/namespaces/inkscape"
   sodipodi:docname="pd-parchment.svg"
   inkscape:version="1.0.1 (3bc2e813f5, 2020-09-07)"
   id="svg8"
   version="1.1"
   viewBox="0 0 317.5 158.75"
   height="600"
   width="1200">
  <defs
     id="defs2" />
  <sodipodi:namedview
     inkscape:snap-global="false"
     inkscape:document-rotation="0"
     inkscape:window-maximized="1"
     inkscape:window-y="19"
     inkscape:window-x="0"
     inkscape:window-height="1061"
     inkscape:window-width="1920"
     units="px"
     showgrid="false"
     inkscape:current-layer="layer1"
     inkscape:document-units="mm"
     inkscape:cy="299.72603"
     inkscape:cx="598.95134"
     inkscape:zoom="1.4"
     inkscape:pageshadow="2"
     inkscape:pageopacity="0.0"
     borderopacity="1.0"
     bordercolor="#666666"
     pagecolor="#ffffff"
     id="base" />
  <metadata
     id="metadata5">
    <rdf:RDF>
      <cc:Work
         rdf:about="">
        <dc:format>image/svg+xml</dc:format>
        <dc:type
           rdf:resource="http://purl.org/dc/dcmitype/StillImage" />
        <dc:title />
      </cc:Work>
    </rdf:RDF>
  </metadata>
  <g
     transform="translate(0,-138.25001)"
     id="layer1"
     inkscape:groupmode="layer"
     inkscape:label="Layer 1">
    <path
       sodipodi:nodetypes="ccccccccccccccccccccccccccsc"
       d="m 96.155378,169.65912 c 9.697442,-6.21268 21.026162,0.79114 31.483332,0.8533 6.31035,3.43743 16.97717,-0.40192 21.27484,4.3015 -2.15793,2.92036 -0.85703,10.8825 0.87161,3.45294 1.12457,-7.80834 15.92902,-0.35797 23.55525,1.4573 10.16238,1.27006 19.74474,4.62636 29.55637,7.36739 8.29337,2.19509 16.82042,4.82329 24.0255,9.53789 3.17299,4.0407 11.49213,6.3332 13.33256,9.63751 -3.42956,0.56287 -16.94734,4.68119 -7.13935,4.01308 9.75212,-3.883 16.95112,6.4671 23.43702,11.99482 -1.89494,6.55715 -15.1241,5.29892 -19.99703,11.38179 -9.26144,4.52954 -16.3571,12.61439 -21.95689,21.06028 -5.73142,9.30065 -10.26728,19.29858 -12.92052,29.92427 -1.26806,3.65867 -2.72875,12.87817 -5.90143,4.70398 -7.22721,-5.24171 -14.28688,-10.695 -22.05575,-15.25305 -11.1422,-7.08526 -9.93317,-7.57464 -8.83958,-15.56606 -2.03796,-2.52316 -2.3885,12.10677 -6.84807,5.21499 -9.05816,-4.79431 -19.59981,-4.51798 -28.84957,-8.63043 -10.19109,-3.12705 -20.57847,-5.4805 -31.09713,-7.1321 -8.440836,1.53287 -7.462078,-9.01372 -9.116537,-12.10757 0.03119,5.02229 1.084029,13.35683 -6.858977,9.31332 -13.74654,-3.61296 -28.821026,-2.03592 -41.785485,-8.1328 0.329841,-3.79622 8.687798,-13.87227 0.912012,-6.34443 -3.36584,9.15983 -14.144617,1.62609 -8.852588,-5.3283 6.743591,-8.44692 15.313404,-15.26843 21.684123,-24.08168 7.835516,-9.51383 14.28804,-20.65675 25.177783,-27.09036 4.550236,-3.32622 11.311259,-9.03746 16.908507,-4.5476 z"
       style="fill:#decd87;stroke:#decd87;stroke-width:0.264583px;stroke-linecap:butt;stroke-linejoin:miter;stroke-opacity:1"
       id="path61" />
    <path
       id="path35"
       style="fill:#b3b3b3;stroke:#b3b3b3;stroke-width:0.264583px;stroke-linecap:butt;stroke-linejoin:miter;stroke-opacity:1"
       d="m 236.53556,147.12974 c -3.31398,6.41546 -10.29438,11.2197 -10.39881,19.03826 -0.3714,6.5268 0.92793,13.22944 -1.10371,19.58014 0.33861,5.60128 6.77891,7.27851 9.89315,11.02086 0.3825,2.3859 -7.47708,-2.96005 -7.27829,2.02763 2.23618,4.26922 2.65332,9.1515 2.99151,13.91224 0.16002,6.38202 3.31656,12.55962 8.69536,16.07464 3.24751,2.23277 6.92788,3.70659 10.32618,5.67888 -3.76906,-2.7703 -11.01328,-0.84557 -5.7757,3.93532 1.46734,4.78625 -1.39859,10.52601 1.94111,14.74754 2.87945,2.30846 7.07161,1.68863 10.06422,3.98738 3.02899,1.65579 5.90802,3.72233 9.29216,4.60403 4.97432,4.25684 2.87623,-4.80421 3.10031,-7.52648 0.47342,-4.73397 2.88108,-8.92458 5.22532,-13.00411 3.11682,-4.38271 -0.38371,-8.5758 -3.21319,-11.75086 -1.0682,-1.79092 -2.9686,-10.38057 -4.00732,-4.74784 0.47915,2.78447 -3.13231,4.79375 -2.18393,0.668 0.42702,-6.23225 0.91184,-13.05289 -3.03323,-18.37328 -3.24611,-4.98754 -7.84938,-10.53234 -6.03837,-16.90668 1.06712,-5.14158 -0.34416,-10.32671 -1.96827,-15.09329 -0.52426,-6.23516 -7.67442,-1.96704 -10.54295,0.14624 -0.51567,-5.76397 6.55467,-11.43933 2.77522,-16.82453 -3.21981,-4.1845 -5.11382,-10.07001 -2.67818,-15.08576 -1.9495,-4.61144 -4.42818,3.01259 -6.08259,3.89167 z" />
    <path
       id="path40"
       style="fill:#4d4d4d;stroke:#4d4d4d;stroke-width:0.264583px;stroke-linecap:butt;stroke-linejoin:miter;stroke-opacity:1"
       d="m 237.54646,185.57515 c -0.94453,10.85602 4.4536,20.84221 7.0204,31.08594 5.44842,11.00323 11.3469,21.8075 16.15568,33.1012 5.43172,9.76614 12.0094,18.8209 18.02482,28.22298 1.54425,-7.56158 -6.41784,-12.06477 -8.91936,-18.41514 -13.14113,-23.15458 -25.15389,-47.27742 -32.10816,-73.07484 z" />
    <path
       id="path93"
       style="fill:#c8ab37;stroke:#c8ab37;stroke-width:0.264583px;stroke-linecap:butt;stroke-linejoin:miter;stroke-opacity:1"
       d="m 95.552273,143.92022 c -6.240057,-1.33352 -9.386392,5.42964 -12.261095,9.67388 -4.115903,6.33396 -8.897138,12.18864 -14.130258,17.61781 -5.091295,5.70022 -8.598982,12.51138 -12.815564,18.81896 -8.426635,12.00205 -19.030679,22.51949 -26.319684,35.26508 -1.693818,2.47359 0.236113,8.8083 2.202069,7.73962 -3.257617,-6.04069 3.009185,-11.56251 7.092068,-15.237 3.92468,-3.73803 11.769964,0.007 13.648267,-5.94793 0.871494,-1.60551 4.0133,-7.68535 3.783794,-6.10088 -0.07071,3.6321 -1.916756,8.96974 -2.575469,10.8045 4.043921,0.14427 7.939832,0.5562 10.92934,3.605 4.116253,2.94648 7.360042,7.442 7.927414,12.56472 3.394449,-4.34514 3.342265,-10.29743 5.902787,-15.09672 2.632708,-5.87879 5.90154,-11.46005 8.845979,-17.17496 3.455302,-5.06258 7.896626,-9.45062 10.539687,-15.05249 3.933752,-6.14916 9.228092,-11.33532 14.558302,-16.24668 5.06022,-3.82275 10.00651,-8.11839 16.12997,-10.13782 0.7844,-6.83178 -7.23107,-9.44788 -11.82682,-12.58718 -3.54147,-2.52349 -10.73187,-3.66454 -11.16326,2.30402 -0.78283,2.71821 -2.83147,5.46266 -2.71999,0.89432 1.01254,-5.17311 -2.95981,-9.89566 -7.747537,-5.70625 z" />
    <path
       id="path112"
       style="opacity:1;fill:#502d16;stroke:#502d16;stroke-width:0.529167;stroke-linecap:round"
       d="m 106.07384,220.77768 c -1.07264,-1.2877 -2.59008,-2.09794 -4.1218,-2.71408 0.73928,-0.62481 2.13762,-0.68861 2.46147,-0.58476 0.56912,0.0751 2.38837,0.69992 2.16867,-0.18466 -1.34467,-0.41897 -2.92694,-1.33636 -3.08307,-2.87623 0.12653,-0.66353 1.94641,-0.85121 1.27628,-0.71714 1.09836,0.0127 2.14479,1.14749 3.1949,0.63265 -0.42022,-0.5005 -1.58524,-0.67406 -2.34805,-0.84492 -1.07753,-0.11029 -2.41634,-0.18146 -3.20956,0.68893 -0.62508,1.41129 1.20202,2.59782 2.30362,3.11804 0.46761,0.32968 2.03264,0.62706 2.03921,0.20334 -2.04458,-0.4126 -4.27244,-0.52414 -6.20118,0.39982 0.78127,0.86811 2.12165,0.82044 3.01666,1.55167 0.77387,0.50768 1.427,1.63473 2.50285,1.32734 z" />
    <path
       id="path114"
       style="opacity:1;fill:#502d16;stroke:#502d16;stroke-width:0.529167;stroke-linecap:round"
       d="m 106.60152,210.56744 c 0.43989,-0.56047 0.78995,-1.32061 0.55742,-2.03705 -0.22213,-0.5959 -1.02498,-0.8566 -1.54732,-0.48182 -0.5098,0.32318 -0.72298,1.04053 -0.4273,1.57692 0.38837,1.0318 1.13572,2.02725 2.24123,2.33232 0.49074,0.10182 1.00038,0.12272 1.50078,0.10338 0.47615,-0.0436 1.10458,-0.20018 1.20805,-0.74821 -5.3e-4,-0.22985 -0.10016,-0.73286 -0.33155,-0.70571 -0.1789,0.32195 -0.54596,0.4295 -0.84579,0.60677 -0.24473,0.1552 -0.626,0.33182 -0.66883,0.62236 0.19216,0.0642 0.58779,-0.0242 0.20196,-0.0711 -0.71939,-0.0923 -1.26693,-0.66134 -1.66761,-1.22507 -0.27814,-0.42818 -0.54151,-0.89796 -0.60707,-1.41203 -0.1331,-0.34421 0.40435,-0.64345 0.10949,-0.92599 -0.14585,-0.1182 -0.69676,-0.006 -0.27224,0.0948 0.55808,0.30724 0.55614,1.09174 0.2788,1.59235 -0.17075,0.248 -0.43329,0.81078 0.1207,0.68512 -0.0159,-0.0655 0.15448,0.0428 0.14928,-0.007 z" />
    <path
       id="path118"
       style="opacity:1;fill:#502d16;stroke:#502d16;stroke-width:0.529167;stroke-linecap:round"
       d="m 108.21202,203.02869 c -0.27984,1.30457 -0.37712,2.7735 0.341,3.96081 0.89383,0.69687 1.64618,-0.57335 1.85536,-1.31963 0.18493,-0.50954 1.39325,-0.91128 0.28211,-0.72767 0.59042,0.52983 0.95462,1.83856 0.80792,2.84919 -0.30678,1.17424 1.51819,1.56699 1.693,0.37152 0.28785,-1.1216 -0.16106,-2.40628 -1.0109,-3.17617 -0.68858,-0.44164 -1.66447,-0.3716 -2.39825,-0.0731 -0.42395,0.40356 -1.18445,1.50832 -0.93715,1.83229 1.20318,0.16767 0.0899,-1.04537 0.27402,-1.68793 -0.1962,-0.62855 0.23031,-1.62001 0.0693,-1.99318 -0.32545,-0.0121 -0.65112,-0.0245 -0.97641,-0.0361 z" />
    <path
       id="path120"
       style="opacity:1;fill:#502d16;stroke:#502d16;stroke-width:0.529167;stroke-linecap:round"
       d="m 110.42236,198.46243 c 0.28447,1.81592 1.816,3.69709 3.81817,3.44914 1.52388,0.13285 2.46778,-1.66573 1.54046,-2.86241 -1.04253,-1.62235 -3.20588,-1.94487 -4.98494,-1.84812 -1.1558,-0.12747 -0.52918,0.9015 0.2654,0.46483 1.09146,-0.27485 0.0198,-0.28158 -0.41638,-0.24238 1.71661,-0.009 3.74003,0.77456 4.25753,2.5676 0.14047,1.10987 -1.11609,2.33129 -1.96476,1.13633 -1.23778,-0.50731 -1.00964,-2.36998 -2.13472,-2.6888 l -0.19127,0.004 -0.18949,0.0199 z" />
    <path
       id="path122"
       style="opacity:1;fill:#502d16;stroke:#502d16;stroke-width:0.529167;stroke-linecap:round"
       d="m 116.75605,199.36977 c -2.56932,-3.18805 -6.55325,-4.887 -10.46605,-5.72291 -1.00876,-0.10345 -1.57307,0.64765 -0.21567,0.59007 3.52461,0.82402 6.8782,2.53882 9.54777,4.97971 0.32509,0.22512 0.76089,0.32222 1.13395,0.15313 z" />
    <path
       id="path124"
       style="opacity:1;fill:#502d16;stroke:#502d16;stroke-width:0.529167;stroke-linecap:round"
       d="m 114.51744,192.63295 c -1.1009,-0.93621 0.58154,-3.80941 1.71048,-2.35969 0.54823,1.00471 0.51322,3.36631 1.75587,3.0086 -0.30668,0.36677 1.91599,0.44613 2.39117,-0.23988 1.40453,-1.63211 -0.76155,-3.40006 -2.39859,-3.46753 -0.7741,-0.58487 -2.87054,0.36314 -0.98247,0.35694 1.65167,-0.11756 4.11551,1.24545 5.28275,-0.15473 -0.14498,-1.5873 -2.94739,0.56081 -1.33432,0.23437 -1.84535,-0.31067 -3.72286,-0.48045 -5.59429,-0.3726 1.61037,-0.0493 4.83035,1.02383 3.5556,3.09734 -0.85666,0.88081 1.10447,0.44702 -0.23661,0.28642 -0.43947,-0.10756 -1.71876,0.12193 -0.56803,0.0617 0.13715,-1.31219 -0.49582,-3.06663 -1.85765,-3.46301 -1.7803,-0.75201 -4.01796,1.74711 -2.22595,3.05515 l 0.23489,0.0309 z" />
    <path
       id="path126"
       style="opacity:1;fill:#502d16;stroke:#502d16;stroke-width:0.529167;stroke-linecap:round"
       d="m 119.97846,185.96135 c 0.78836,-0.89516 -1.3213,-3.45089 -1.19842,-1.83811 1.37372,1.11364 3.38239,1.30791 5.06191,1.13764 2.2311,-1.28726 -0.38677,-3.23619 -1.62153,-4.09806 -0.59431,-0.87385 -3.75101,-1.29216 -1.84448,-0.11965 1.89794,0.55936 3.7195,1.35398 5.38548,2.4326 1.94756,0.8588 1.19304,2.83067 -0.42142,3.48073 1.33612,-0.85422 -0.87269,-2.59569 -0.50978,-3.92 0.14762,-1.19595 -0.3898,-4.62577 -1.99542,-2.77495 -0.35071,2.01475 0.63174,4.13253 1.12259,6.0571 1.1092,1.83214 4.68462,0.87533 4.58852,-1.27156 -0.18971,-1.94621 -2.39624,-2.31035 -3.82044,-3.08332 -1.55779,-0.61116 -3.08938,-1.39358 -4.71146,-1.77617 -1.55224,0.70973 1.62606,1.22127 1.96789,2.02623 1.63534,0.69242 1.38607,3.66268 -0.61351,2.54345 -0.70091,-0.42072 -3.57677,-2.1323 -2.33269,-0.0568 0.20753,0.47822 0.0613,1.6014 0.94276,1.26086 z" />
    <path
       id="path128"
       style="opacity:1;fill:#502d16;stroke:#502d16;stroke-width:0.529167;stroke-linecap:round"
       d="m 114.39593,220.73002 c 0.96271,0.0164 3.21206,0.29562 4.49512,0.981 1.65467,0.7102 3.06363,1.89398 4.1987,3.27215 0.79417,0.66839 1.98126,-0.25521 0.76288,-0.86254 -1.78086,-1.86089 -4.17595,-3.0812 -6.73419,-3.40503 -1.01008,-0.17972 -3.45235,-0.27677 -3.55645,-0.10516 0.27753,0.0434 0.55895,0.0596 0.83394,0.11958 z" />
    <path
       id="path130"
       style="opacity:1;fill:#502d16;stroke:#502d16;stroke-width:0.529167;stroke-linecap:round"
       d="m 114.91031,223.038 c -0.0102,-1.71698 -0.38044,-3.70049 0.76639,-5.15006 0.50766,-0.22115 1.17486,-0.8114 0.90902,-0.29669 1.17523,0.88046 1.41185,2.38475 1.90855,3.60921 1.00121,0.77135 1.53127,-0.38652 1.16725,-1.23793 0.0501,-1.2262 1.03501,-2.361 2.30296,-2.37349 -1.05124,0.0992 1.03228,0.69525 0.861,1.43049 0.93756,1.19986 -0.66496,3.18606 0.82185,3.89119 1.76859,-0.13547 1.20851,-2.82088 0.63349,-3.91809 -0.84407,-1.98651 -3.78731,-2.09302 -5.20224,-0.71869 -0.70738,0.83839 -1.46767,3.26425 0.15645,3.37618 1.58471,-0.78791 -0.41946,-2.33988 -0.73448,-3.42406 -1.07351,-1.86841 -4.26759,-1.24162 -4.63747,0.84951 -0.006,1.27594 -0.66145,3.07953 0.29871,4.02609 0.25437,0.009 0.49277,-0.14092 0.74852,-0.0637 z" />
    <path
       id="path132"
       style="opacity:1;fill:#502d16;stroke:#502d16;stroke-width:0.529167;stroke-linecap:round"
       d="m 122.79152,213.06476 c -0.20193,1.63006 1.25361,3.09359 2.87308,2.9597 1.3377,0.24162 2.80188,-0.74436 2.64682,-2.1947 -0.0572,-1.98386 -2.08583,-3.40722 -3.97966,-3.22193 -1.33906,-0.2592 -2.2565,1.6585 -0.9361,2.32809 1.2133,0.54068 0.76185,-1.37164 1.44233,-1.89355 -1.12203,-0.20946 0.81796,0.26686 1.01325,0.74472 1.10856,0.96652 1.37275,3.1167 -0.0932,3.85958 -0.18625,0.39315 0.7197,0.0817 -0.0654,0.0268 -1.3387,-0.25957 -1.60814,-1.63081 -2.01509,-2.56958 -0.28101,-0.11663 -0.59344,-0.0735 -0.88602,-0.0391 z" />
    <path
       id="path134"
       style="opacity:1;fill:#502d16;stroke:#502d16;stroke-width:0.529167;stroke-linecap:round"
       d="m 125.31248,206.45083 c 0.11669,1.35504 1.01121,2.88635 2.51635,2.93061 1.09617,0.14496 2.63781,-0.0996 2.91127,-1.37777 0.10151,-1.35574 -1.1749,-2.64638 -2.53794,-2.51332 -0.71971,-0.27218 -2.49001,0.42896 -1.43337,1.24832 0.71422,-0.0184 2.1048,-1.40816 1.00095,-0.84008 1.0847,0.2377 2.15551,1.65277 1.36179,2.68106 -0.37135,0.29358 -1.11834,0.69334 -0.81751,0.52925 -1.02366,-0.21462 -1.71145,-1.16912 -1.83921,-2.16822 -0.12326,-0.5479 -0.70407,-0.64642 -1.16233,-0.48985 z" />
    <path
       id="path136"
       style="opacity:1;fill:#502d16;stroke:#502d16;stroke-width:0.529167;stroke-linecap:round"
       d="m 121.0693,200.42778 c 3.63205,-0.6627 7.50749,0.37126 10.29056,2.80754 0.51267,0.79533 2.69627,0.96462 1.45594,-0.28288 -1.32245,-0.98328 -2.81535,-1.79548 -4.38521,-2.31138 -2.61724,-0.76224 -5.4145,-0.73824 -8.08963,-0.36358 0.0471,0.15955 0.53925,0.0806 0.72834,0.1503 z" />
    <path
       id="path142"
       style="opacity:1;fill:#502d16;stroke:#502d16;stroke-width:0.529167;stroke-linecap:round"
       d="m 127.60087,195.86649 c 0.0152,1.69721 -0.23913,3.40663 0.0426,5.09406 0.92312,0.76196 1.99171,-0.14097 2.62101,-0.82818 0.37138,-0.55128 1.96897,-1.02153 1.88345,-0.88825 -0.57451,-0.0452 -1.62024,0.014 -0.4738,0.30919 1.09024,0.4829 2.49274,1.20255 3.6331,0.53746 1.21523,-0.75638 -0.25993,-2.46611 -1.06719,-1.30426 -0.0997,0.58491 -1.13855,1.4225 -0.0489,1.19979 1.4813,0.10476 -0.62162,-0.33141 -1.02151,-0.67227 -1.47735,-0.71784 -3.38062,-0.44464 -4.55736,0.72251 -0.54429,0.2849 -1.2968,1.35393 -0.0986,1.08999 1.3918,-0.069 0.1157,-1.90017 0.45053,-2.77822 -0.23074,-1.08638 0.55372,-2.99856 -1.36329,-2.48182 z" />
    <path
       id="path158"
       style="opacity:1;fill:#502d16;stroke:#502d16;stroke-width:0.529167;stroke-linecap:round"
       d="m 97.256007,224.59195 c -0.08323,2.03898 2.433314,3.45687 4.190203,2.54044 1.09665,-0.51447 1.88231,-1.92225 1.23847,-3.06713 -0.62885,-1.16261 -1.7929,-2.15129 -3.175079,-2.14397 -1.190124,-0.33453 -2.061074,0.83695 -1.820718,1.94146 -0.128322,0.72885 0.974458,1.947 1.538373,1.21779 -0.06451,-0.82173 -0.678978,-1.67241 -0.05036,-2.46428 0.25708,-0.353 0.613363,-0.57589 -0.04081,-0.45863 -0.210421,-0.01 1.278874,0.30208 1.566234,0.74579 0.81734,0.69555 1.63941,1.86973 1.1031,2.96637 -0.0811,0.76016 -1.54592,1.17896 -1.5394,1.44109 0.28483,-0.11847 -0.820491,-0.28176 -1.078957,-0.55616 -0.727756,-0.44776 -1.162847,-1.26665 -1.209946,-2.11098 -0.222218,-0.15087 -0.482043,0.007 -0.72111,-0.0518 z" />
    <path
       id="path160"
       style="opacity:1;fill:#502d16;stroke:#502d16;stroke-width:0.529167;stroke-linecap:round"
       d="m 83.920931,234.19433 c 1.018587,-0.85505 2.415828,-1.05231 3.699976,-1.10986 2.224142,0.16181 4.224153,1.40861 5.678855,3.04793 0.959792,1.02991 1.775153,2.18263 2.685545,3.25177 0.525814,0.94522 1.711035,-0.13527 0.846606,-0.71088 -0.619751,-0.40486 -0.987011,-1.1079 -1.509351,-1.62913 -1.472125,-1.72819 -3.262103,-3.38151 -5.554933,-3.86082 -2.21033,-0.53619 -4.735052,-0.39428 -6.646412,0.92477 0.197376,0.15845 0.567299,-0.0404 0.799714,0.0862 z" />
    <path
       id="path162"
       style="opacity:1;fill:#502d16;stroke:#502d16;stroke-width:0.529167;stroke-linecap:round"
       d="m 86.032758,235.54418 c -0.665532,-2.89957 0.148061,-6.20328 2.235452,-8.34202 1.553472,-1.13793 4.064676,-2.18849 5.615084,-0.8525 1.48458,1.30065 1.430108,3.51895 1.576887,5.34894 0.23389,1.52942 0.302269,3.02324 0.339978,4.54424 1.538014,0.94811 1.793042,-1.70142 1.233572,-2.68626 -0.42748,-2.43663 0.01754,-5.38063 -1.977238,-7.23267 -1.588471,-1.2447 -3.773479,-0.72792 -5.591261,-0.40157 -2.316632,0.66954 -3.830107,2.89429 -4.193224,5.19984 -0.248113,1.21911 -1.054005,4.20475 0.76075,4.422 z" />
    <path
       id="path176"
       style="opacity:1;fill:#502d16;stroke:#502d16;stroke-width:0.529167;stroke-linecap:round"
       d="m 151.26515,236.5247 c -1.61498,2.6201 0.0379,5.80983 1.90692,7.80852 1.77364,1.90623 4.53701,3.26267 7.15762,2.48174 2.30706,-1.2703 1.62793,-4.32045 0.96183,-6.34506 -0.10833,-1.35064 -2.55979,-2.01028 -1.53613,-0.17578 0.99811,1.74485 1.64961,4.32861 0.1022,5.94307 -1.78015,1.40971 -3.82121,-0.40489 -5.21094,-1.52449 -1.73557,-1.61972 -3.13179,-3.91936 -3.06484,-6.34472 0.17098,-0.55991 1.03639,-2.20701 -0.31666,-1.84328 z" />
    <path
       id="path178"
       style="opacity:1;fill:#502d16;stroke:#502d16;stroke-width:0.529167;stroke-linecap:round"
       d="m 162.47174,236.75417 c 1.1589,-0.73912 1.78564,-2.48262 0.84019,-3.63037 -0.56122,-0.95634 -2.31176,-1.62303 -3.00621,-0.49234 -0.38102,1.15651 0.6865,2.11141 1.36936,2.8966 0.86045,0.93654 2.09653,1.60725 3.39938,1.36422 1.02625,0.34514 1.82007,-1.62829 0.82527,-1.69455 -0.23243,0.51298 -1.35599,1.35566 -1.03908,1.50433 -1.58302,-0.23131 -2.63176,-1.60543 -3.45852,-2.85231 -0.28069,-0.46335 0.21052,-1.76549 -0.26314,-1.53838 1.44117,0.32074 2.26647,2.1704 1.41618,3.42028 -0.23322,0.35898 -1.21124,1.12916 -0.0834,1.02252 z" />
    <path
       id="path180"
       style="opacity:1;fill:#502d16;stroke:#502d16;stroke-width:0.529167;stroke-linecap:round"
       d="m 162.79038,226.58203 c 2.21632,0.31633 4.23422,1.42129 6.00197,2.75174 1.12019,0.22497 0.66523,-0.60994 -0.0753,-0.72288 -1.31967,-0.73695 -2.89526,-1.56171 -3.29465,-3.14675 -0.29242,-0.97902 1.57554,-2.19677 1.56366,-1.64611 1.42566,0.32116 2.53807,1.46813 4.01223,1.63121 1.13705,-0.42594 -0.97469,-0.85357 -1.31062,-1.21426 -1.31255,-0.70349 -2.97805,-1.12216 -4.394,-0.50722 -1.18323,0.67439 -1.12563,2.36956 -0.16617,3.20792 0.94785,0.99718 2.2397,1.56243 3.38159,2.28541 0.61514,0.41792 1.68896,-0.12408 0.57567,-0.48592 -1.87792,-1.11052 -3.93762,-2.35959 -6.20191,-2.17477 l -0.0656,0.0154 -0.0269,0.006 z" />
    <path
       id="path182"
       style="opacity:1;fill:#502d16;stroke:#502d16;stroke-width:0.529167;stroke-linecap:round"
       d="m 167.93126,215.76314 c -0.57257,0.99985 -0.90983,3.17278 0.81095,3.09854 1.21842,0.10254 1.78672,-1.11732 2.75661,-1.54674 0.35615,-0.1111 1.22004,-0.48842 0.5287,-0.13452 0.5967,1.00133 0.0378,2.11929 0.28168,3.20738 0.70298,1.52252 1.59634,-0.48842 1.25037,-1.36034 0.33679,-1.10062 -0.36923,-2.42917 -1.65393,-2.18384 -1.31643,-0.13351 -2.13892,1.02144 -3.13394,1.63322 -0.34114,0.33351 0.66856,0.20235 -0.0582,0.0197 -1.07101,-0.69444 0.40383,-2.23721 -0.36411,-2.74155 -0.13903,-0.0169 -0.27962,-0.009 -0.41814,0.008 z" />
    <path
       id="path184"
       style="opacity:1;fill:#502d16;stroke:#502d16;stroke-width:0.529167;stroke-linecap:round"
       d="m 170.78562,211.98796 c 1.40748,0.92302 3.18527,1.92896 4.89502,1.25823 1.52165,-0.86627 1.18952,-2.99856 0.29266,-4.20994 -0.33595,-0.5975 -2.13289,-1.9977 -2.30629,-0.92708 1.00585,0.66433 1.81542,1.62999 1.86896,2.90415 0.35536,1.53635 -1.27876,2.88933 -2.5437,1.63199 -0.66684,-0.33591 -1.42813,-0.8627 -2.20665,-0.65735 z" />
    <path
       id="path186"
       style="opacity:1;fill:#502d16;stroke:#502d16;stroke-width:0.529167;stroke-linecap:round"
       d="m 174.15708,200.40156 c -0.49142,1.23501 0.0194,3.3325 1.72382,2.86872 0.65057,-0.13012 2.33142,-0.80212 2.17074,-0.95214 0.51998,1.05971 -0.12399,2.42408 -0.25194,3.65704 -0.19291,0.93431 0.71126,1.67319 1.21047,0.60683 0.5248,-1.12804 0.99845,-2.52175 0.59988,-3.75123 -0.62841,-1.21639 -2.31137,-0.69313 -3.29394,-0.24626 -0.38019,0.0933 -0.99104,0.63686 -0.71021,0.45088 -1.31475,-0.47138 0.0544,-2.33126 -0.98461,-2.68358 l -0.20583,0.0109 -0.25813,0.0389 z" />
    <path
       id="path212"
       style="opacity:1;fill:#502d16;stroke:#502d16;stroke-width:0.529167;stroke-linecap:round"
       d="m 174.49349,262.28808 c -1.2151,-1.76818 -3.3074,-2.57305 -4.87783,-3.95937 -1.41369,-0.97339 -3.00617,-1.63623 -4.56452,-2.33677 -0.72762,-0.14012 -1.16785,0.35175 -0.13163,0.31094 2.98748,0.56907 5.99404,1.11324 9.00273,1.51353 1.38447,-0.4339 -0.9132,-1.3417 -1.27743,-1.93418 -1.88832,-1.54722 -3.64244,-3.24711 -5.4342,-4.89531 -0.57588,-0.56965 -1.85307,0.0187 -0.50965,0.1 3.28667,0.80451 6.26976,2.46842 9.52193,3.37868 0.67075,0.15507 2.41505,1.12346 2.5001,0.31867 -2.48192,-0.68406 -4.90041,-1.57579 -7.26698,-2.58361 -1.71093,-0.64871 -3.44612,-1.26952 -5.25401,-1.58626 -0.90883,0.52461 1.28255,1.20556 1.51549,1.86095 1.59444,1.48989 3.22224,2.9458 4.91907,4.31869 0.0376,0.78479 2.64867,1.12267 1.10095,0.73182 -2.91333,-0.45538 -5.8275,-0.9185 -8.71134,-1.53798 -0.64583,0.069 -1.6868,0.0894 -0.47216,0.32548 2.18919,0.8891 4.26699,2.03189 6.14003,3.4764 0.91768,0.73095 2.06734,1.15875 2.7595,2.14554 0.25697,0.28264 0.6547,0.49118 1.03995,0.35281 z" />
    <path
       id="path214"
       style="opacity:1;fill:#502d16;stroke:#502d16;stroke-width:0.529167;stroke-linecap:round"
       d="m 169.95509,244.51793 c 3.14784,1.65285 6.1049,3.63521 9.06552,5.59597 0.97484,1.49874 2.12127,-0.61435 1.75486,-1.67984 0.34065,-1.62946 0.68078,-3.28363 1.42871,-4.783 0.84458,-1.31662 -1.26327,-1.39532 -1.29772,-0.0987 -0.69847,2.07173 -1.01908,4.25019 -1.42435,6.38743 0.006,0.80179 2.06143,0.67892 0.68248,0.20262 -3.23691,-1.86741 -6.21441,-4.25286 -9.68704,-5.66853 l -0.25514,-0.009 z" />
    <path
       id="path216"
       style="opacity:1;fill:#502d16;stroke:#502d16;stroke-width:0.529167;stroke-linecap:round"
       d="m 175.15475,234.32227 c 2.17865,-0.93432 4.56092,-1.22388 6.88609,-1.56928 1.78267,-0.19031 3.61683,0.0153 5.36355,-0.44397 -0.44204,-0.49061 -1.87013,-0.0141 -2.65441,0.0702 -2.15997,0.0896 -4.33528,0.12698 -6.45232,0.6169 -1.40788,0.26205 -2.8191,0.58117 -4.1317,1.16826 0.28555,0.18751 0.6723,0.066 0.98879,0.1579 z" />
    <path
       id="path218"
       style="opacity:1;fill:#502d16;stroke:#502d16;stroke-width:0.529167;stroke-linecap:round"
       d="m 178.13374,227.96931 c 1.52551,2.22574 2.64334,4.71125 3.30029,7.327 0.60776,1.21569 0.7519,3.27326 2.07312,3.79767 1.42487,-0.37021 -0.30622,-1.40611 -0.41333,-2.20771 -1.11763,-2.49323 -1.44897,-5.36417 -3.20341,-7.54602 -0.32157,-0.68152 -0.84265,-1.64135 -1.75667,-1.37094 z" />
    <path
       id="path220"
       style="opacity:1;fill:#502d16;stroke:#502d16;stroke-width:0.529167;stroke-linecap:round"
       d="m 182.55287,218.8063 c 0.8073,2.17897 1.96774,4.20335 3.0243,6.2661 0.71767,1.2304 1.60385,2.36163 2.54982,3.41907 0.53877,0.42586 1.61209,-0.0778 0.67951,-0.5927 -1.15644,-1.16381 -2.11862,-2.49992 -2.91655,-3.92987 -0.92136,-1.54798 -1.73209,-3.1593 -2.5605,-4.75747 -0.11796,-0.52532 -0.31564,-0.43121 -0.77658,-0.40513 z" />
    <path
       id="path222"
       style="opacity:1;fill:#502d16;stroke:#502d16;stroke-width:0.529167;stroke-linecap:round"
       d="m 180.12704,224.5026 c 2.03454,-0.30878 3.97825,-1.06861 6.03765,-1.24366 1.82192,-0.28765 3.62315,-0.69461 5.43272,-1.04508 -0.67828,-0.50243 -1.99968,0.0972 -2.89265,0.20291 -1.77531,0.41919 -3.58266,0.66827 -5.37475,0.99339 -1.34272,0.30523 -2.65345,0.76612 -4.01528,0.97359 0.26871,0.0465 0.54262,0.0739 0.81231,0.11885 z" />
    <path
       id="path224"
       style="opacity:1;fill:#502d16;stroke:#502d16;stroke-width:0.529167;stroke-linecap:round"
       d="m 187.01118,209.98606 c 1.35726,1.69942 2.73299,3.41702 3.62475,5.41874 0.64989,1.29516 1.30004,2.78766 2.67329,3.45703 0.55948,0.38974 1.37106,-0.20596 0.55071,-0.63827 -1.08241,-0.82944 -1.68046,-2.06554 -2.28813,-3.24728 -0.94319,-1.8717 -2.28623,-3.49135 -3.67237,-5.04724 -0.29607,0.0191 -0.59225,0.0373 -0.88825,0.057 z" />
    <path
       id="path226"
       style="opacity:1;fill:#502d16;stroke:#502d16;stroke-width:0.529167;stroke-linecap:round"
       d="m 183.5929,214.21702 c 3.75334,0.50769 7.54398,-0.002 11.24353,-0.66158 0.84894,-0.12958 1.70117,-0.24187 2.55783,-0.3057 -1.38397,-0.42729 -2.83104,0.0365 -4.22317,0.21262 -2.03794,0.36692 -4.15141,0.71413 -6.18284,0.79426 0.6173,2.4e-4 -0.94531,0.0228 -1.22257,-0.046 -0.72327,-0.068 -1.45385,-0.13867 -2.17278,0.006 z" />
    <path
       id="path228"
       style="opacity:1;fill:#502d16;stroke:#502d16;stroke-width:0.529167;stroke-linecap:round"
       d="m 187.53437,205.85594 c 3.81998,0.33124 7.58681,1.11154 11.29059,2.08576 2.16777,-0.003 0.0208,-1.76097 -0.62804,-2.47442 -1.22727,-1.31143 -2.70979,-2.36192 -4.31876,-3.14262 -0.90414,-0.68334 -2.47152,-2.58279 -3.5188,-1.37861 0.82895,0.98374 2.08488,1.53732 3.15012,2.25126 1.54038,0.9044 3.01092,1.98482 4.06799,3.43897 0.24819,0.50399 2.1613,1.49869 1.81349,0.93957 -3.51779,-0.80605 -7.06152,-1.61321 -10.66841,-1.85499 -0.39917,0.005 -0.79875,0.0457 -1.18818,0.13508 z" />
    <path
       id="path230"
       style="opacity:1;fill:#502d16;stroke:#502d16;stroke-width:0.529167;stroke-linecap:round"
       d="m 193.86005,195.17711 c 2.56115,1.64338 5.38462,2.83199 8.17123,4.0239 0.84043,0.45831 2.38136,-0.25879 0.76817,-0.52527 -1.61367,-0.67998 -3.21999,-1.38006 -4.81622,-2.10018 -1.0099,-0.44799 -1.9519,-1.06435 -2.95847,-1.49564 -0.39253,-0.0494 -0.77395,0.0961 -1.16471,0.0972 z" />
    <path
       id="path232"
       style="opacity:1;fill:#502d16;stroke:#502d16;stroke-width:0.529167;stroke-linecap:round"
       d="m 203.71606,201.77325 c 0.16966,-1.60205 0.72763,-3.13177 1.37824,-4.59513 -0.49766,-0.91644 -1.70262,-0.10788 -1.70596,0.72407 -0.48332,1.23053 -0.70313,2.54563 -0.82829,3.85621 0.38532,0.005 0.77077,0.01 1.15601,0.0148 z" />
    <path
       id="path234"
       style="opacity:1;fill:#502d16;stroke:#502d16;stroke-width:0.529167;stroke-linecap:round"
       d="m 193.29536,196.81028 c 0.75376,-0.91765 1.44651,-1.90491 1.88966,-3.0133 0.86747,-0.78539 -0.94256,-1.42086 -1.19653,-0.46734 -0.43882,0.93443 -0.84092,1.89231 -1.43219,2.74784 -0.44461,0.39674 -0.35672,0.863 0.31041,0.69797 0.14281,-0.006 0.2916,-0.0166 0.42865,0.0348 z" />
    <path
       id="path242"
       style="fill:#d40000;stroke:#d40000;stroke-width:0.264583px;stroke-linecap:butt;stroke-linejoin:miter;stroke-opacity:1"
       d="m 185.40837,261.35217 c -1.43418,2.6818 -1.09584,6.05661 -0.11623,8.82738 1.22935,3.00608 3.89938,5.53304 7.25314,5.7594 3.2988,0.66588 7.21411,0.25161 9.27454,-2.75269 3.28419,-4.60782 4.66025,-11.39245 1.43757,-16.39678 -2.07703,-2.45337 -5.58964,-3.3371 -8.69487,-3.26953 -4.05292,0.76362 -8.23604,3.60619 -9.15415,7.83222 z" />
    <path
       id="path265"
       style="fill:#aa0000;stroke:#aa0000;stroke-width:0.264583px;stroke-linecap:butt;stroke-linejoin:miter;stroke-opacity:1"
       d="m 192.01412,259.11168 c 1.39176,-1.43489 3.45042,-1.99644 5.40114,-2.01112 1.32941,0.38772 2.86341,1.09797 3.21517,2.57519 0.65368,3.64926 -0.32813,7.3642 -1.76081,10.70981 -1.14976,3.03584 -5.4036,4.39337 -8.03113,2.41541 -1.55322,-1.09682 -2.30702,-2.98576 -2.44638,-4.83084 -0.1725,-1.75988 -0.28316,-3.63834 0.57391,-5.25394 0.43212,-0.75107 0.94,-1.45589 1.38391,-2.20157 0.40662,-0.60993 0.94263,-1.18373 1.66419,-1.40294 z" />
    <path
       id="path280"
       style="fill:#800000;stroke:#800000;stroke-width:0.264583px;stroke-linecap:butt;stroke-linejoin:miter;stroke-opacity:1"
       d="m 191.98948,263.39303 c -0.29096,1.08932 -0.79013,2.12868 -0.87637,3.26641 -0.10825,0.68664 -0.13832,1.38224 -0.22268,2.07172 0.28112,0.53123 0.9699,0.3191 1.4434,0.26176 1.45516,-0.16922 2.89334,-0.48255 4.30807,-0.861 0.53673,-0.16648 1.09434,-0.3016 1.59627,-0.5546 0.68546,-0.56423 0.60726,-1.59607 0.41046,-2.37255 -0.44409,-1.43994 -1.595,-2.61862 -2.94749,-3.24871 -0.7393,-0.32812 -1.54345,-0.45797 -2.30654,-0.71075 -0.85905,-0.19435 -1.08463,0.88159 -1.20782,1.5048 -0.0511,0.21831 -0.10754,0.43685 -0.1973,0.64292 z" />
    <path
       id="path294"
       style="fill:#aa0000;fill-opacity:1;stroke:#aa0000;stroke-width:0.264583px;stroke-linecap:butt;stroke-linejoin:miter;stroke-opacity:1"
       d="m 191.6199,264.64738 c 1.17598,0.20457 2.41751,-0.40413 3.00308,-1.4396 0.19769,-0.33275 0.5172,-0.79395 0.63061,-1.05792 -0.0451,0.51144 -0.27634,1.09715 0.17029,1.52198 0.79706,0.78374 1.69647,1.48704 2.72865,1.93422 0.34319,-0.0439 0.64786,0.22906 0.16622,0.29667 -1.31472,0.53776 -2.77041,1.04838 -3.62624,2.25581 -0.12046,0.22779 -0.40118,0.77847 -0.40037,0.21372 -0.11287,-0.76536 -0.0641,-1.6898 -0.72848,-2.22258 -0.66383,-0.47958 -1.32253,-0.97128 -1.94376,-1.5023 z" />
  </g>
</svg>
